# After translation (centering): m931.obj
# Applied area-weighted barycenter centering
# Shape moved to origin
# Generated on 2025-10-13 17:03:22

v 0.393104 0.259009 0.000000
v 0.318028 0.259009 0.231060
v 0.393104 0.193492 0.000000
v 0.318028 0.193492 0.231060
v -0.000000 0.193492 0.000000
v -0.000000 0.259009 0.000000
v 0.121475 0.259009 0.373863
v 0.121475 0.193492 0.373863
v -0.121475 0.259009 0.373863
v -0.121475 0.193492 0.373863
v -0.318027 0.259009 0.231060
v -0.318027 0.193492 0.231060
v -0.393103 0.259009 0.000000
v -0.393103 0.193492 0.000000
v -0.318027 0.259009 -0.231061
v -0.318027 0.193492 -0.231061
v -0.121475 0.259009 -0.373864
v -0.121475 0.193492 -0.373864
v 0.121475 0.259009 -0.373864
v 0.121475 0.193492 -0.373864
v 0.318028 0.259009 -0.231061
v 0.318028 0.193492 -0.231061
v 0.229311 -0.690991 0.229310
v 0.229311 0.182572 0.229310
v 0.294828 -0.690991 0.229310
v 0.294828 0.182572 0.229310
v 0.294828 -0.690991 0.294827
v 0.229311 -0.690991 0.294827
v 0.229311 0.182572 0.294827
v 0.294828 0.182572 0.294827
v -0.294827 -0.690991 0.229310
v -0.294827 0.182572 0.229310
v -0.229310 -0.690991 0.229310
v -0.229310 0.182572 0.229310
v -0.229310 -0.690991 0.294827
v -0.294827 -0.690991 0.294827
v -0.294827 0.182572 0.294827
v -0.229310 0.182572 0.294827
v -0.294827 -0.690991 -0.294828
v -0.294827 0.182572 -0.294828
v -0.229310 -0.690991 -0.294828
v -0.229310 0.182572 -0.294828
v -0.229310 -0.690991 -0.229311
v -0.294827 -0.690991 -0.229311
v -0.294827 0.182572 -0.229311
v -0.229310 0.182572 -0.229311
v 0.229311 -0.690991 -0.294828
v 0.229311 0.182572 -0.294828
v 0.294828 -0.690991 -0.294828
v 0.294828 0.182572 -0.294828
v 0.294828 -0.690991 -0.229311
v 0.229311 -0.690991 -0.229311
v 0.229311 0.182572 -0.229311
v 0.294828 0.182572 -0.229311
v 0.355566 0.259009 0.115530
v 0.355566 0.226250 0.115530
v 0.393104 0.226250 0.000000
v 0.318028 0.226250 0.231060
v 0.355566 0.193492 0.115530
v 0.196552 0.193492 0.000000
v 0.159014 0.193492 0.115530
v 0.159014 0.259009 0.115530
v 0.196552 0.259009 0.000000
v 0.219752 0.259009 0.302462
v 0.219752 0.226250 0.302462
v 0.121475 0.226250 0.373863
v 0.219752 0.193492 0.302462
v 0.060738 0.193492 0.186932
v 0.060738 0.259009 0.186932
v 0.000000 0.259009 0.373863
v 0.000000 0.226250 0.373863
v -0.121475 0.226250 0.373863
v 0.000000 0.193492 0.373863
v -0.060738 0.193492 0.186932
v -0.060738 0.259009 0.186932
v -0.219751 0.259009 0.302462
v -0.219751 0.226250 0.302462
v -0.318027 0.226250 0.231060
v -0.219751 0.193492 0.302462
v -0.159014 0.193492 0.115530
v -0.159014 0.259009 0.115530
v -0.355565 0.259009 0.115530
v -0.355565 0.226250 0.115530
v -0.393103 0.226250 0.000000
v -0.355565 0.193492 0.115530
v -0.196552 0.193492 0.000000
v -0.196552 0.259009 0.000000
v -0.355565 0.259009 -0.115530
v -0.355565 0.226250 -0.115530
v -0.318027 0.226250 -0.231061
v -0.355565 0.193492 -0.115530
v -0.159014 0.193492 -0.115530
v -0.159014 0.259009 -0.115530
v -0.219751 0.259009 -0.302462
v -0.219751 0.226250 -0.302462
v -0.121475 0.226250 -0.373864
v -0.219751 0.193492 -0.302462
v -0.060738 0.193492 -0.186932
v -0.060738 0.259009 -0.186932
v 0.000000 0.259009 -0.373864
v 0.000000 0.226250 -0.373864
v 0.121475 0.226250 -0.373864
v 0.000000 0.193492 -0.373864
v 0.060738 0.193492 -0.186932
v 0.060738 0.259009 -0.186932
v 0.219752 0.259009 -0.302462
v 0.219752 0.226250 -0.302462
v 0.318028 0.226250 -0.231061
v 0.219752 0.193492 -0.302462
v 0.159014 0.193492 -0.115530
v 0.159014 0.259009 -0.115530
v 0.355566 0.259009 -0.115530
v 0.355566 0.226250 -0.115530
v 0.355566 0.193492 -0.115530
v 0.229311 -0.254210 0.229310
v 0.262069 -0.254210 0.229310
v 0.262069 -0.690991 0.229310
v 0.262069 0.182572 0.229310
v 0.294828 -0.254210 0.229310
v 0.262069 -0.690991 0.262069
v 0.262069 -0.690991 0.294827
v 0.229311 -0.690991 0.262069
v 0.294828 -0.690991 0.262069
v 0.229311 -0.254210 0.262069
v 0.229311 -0.254210 0.294827
v 0.229311 0.182572 0.262069
v 0.262069 0.182572 0.294827
v 0.262069 0.182572 0.262069
v 0.294828 0.182572 0.262069
v 0.294828 -0.254210 0.262069
v 0.294828 -0.254210 0.294827
v 0.262069 -0.254210 0.294827
v -0.294827 -0.254210 0.229310
v -0.262069 -0.254210 0.229310
v -0.262069 -0.690991 0.229310
v -0.262069 0.182572 0.229310
v -0.229310 -0.254210 0.229310
v -0.262069 -0.690991 0.262069
v -0.262069 -0.690991 0.294827
v -0.294827 -0.690991 0.262069
v -0.229310 -0.690991 0.262069
v -0.294827 -0.254210 0.262069
v -0.294827 -0.254210 0.294827
v -0.294827 0.182572 0.262069
v -0.262069 0.182572 0.294827
v -0.262069 0.182572 0.262069
v -0.229310 0.182572 0.262069
v -0.229310 -0.254210 0.262069
v -0.229310 -0.254210 0.294827
v -0.262069 -0.254210 0.294827
v -0.294827 -0.254210 -0.294828
v -0.262069 -0.254210 -0.294828
v -0.262069 -0.690991 -0.294828
v -0.262069 0.182572 -0.294828
v -0.229310 -0.254210 -0.294828
v -0.262069 -0.690991 -0.262069
v -0.262069 -0.690991 -0.229311
v -0.294827 -0.690991 -0.262069
v -0.229310 -0.690991 -0.262069
v -0.294827 -0.254210 -0.262069
v -0.294827 -0.254210 -0.229311
v -0.294827 0.182572 -0.262069
v -0.262069 0.182572 -0.229311
v -0.262069 0.182572 -0.262069
v -0.229310 0.182572 -0.262069
v -0.229310 -0.254210 -0.262069
v -0.229310 -0.254210 -0.229311
v -0.262069 -0.254210 -0.229311
v 0.229311 -0.254210 -0.294828
v 0.262069 -0.254210 -0.294828
v 0.262069 -0.690991 -0.294828
v 0.262069 0.182572 -0.294828
v 0.294828 -0.254210 -0.294828
v 0.262069 -0.690991 -0.262069
v 0.262069 -0.690991 -0.229311
v 0.229311 -0.690991 -0.262069
v 0.294828 -0.690991 -0.262069
v 0.229311 -0.254210 -0.262069
v 0.229311 -0.254210 -0.229311
v 0.229311 0.182572 -0.262069
v 0.262069 0.182572 -0.229311
v 0.262069 0.182572 -0.262069
v 0.294828 0.182572 -0.262069
v 0.294828 -0.254210 -0.262069
v 0.294828 -0.254210 -0.229311
v 0.262069 -0.254210 -0.229311
v 0.374335 0.259009 0.057765
v 0.374335 0.242629 0.057765
v 0.393104 0.242629 0.000000
v 0.336797 0.259009 0.173295
v 0.336797 0.242629 0.173295
v 0.355566 0.242629 0.115530
v 0.374335 0.209871 0.057765
v 0.393104 0.209871 0.000000
v 0.374335 0.226250 0.057765
v 0.318028 0.242629 0.231060
v 0.336797 0.226250 0.173295
v 0.318028 0.209871 0.231060
v 0.336797 0.193492 0.173295
v 0.336797 0.209871 0.173295
v 0.374335 0.193492 0.057765
v 0.355566 0.209871 0.115530
v 0.098276 0.193492 0.000000
v 0.177783 0.193492 0.057765
v 0.079507 0.193492 0.057765
v 0.294828 0.193492 0.000000
v 0.276059 0.193492 0.057765
v 0.238521 0.193492 0.173295
v 0.257290 0.193492 0.115530
v 0.079507 0.259009 0.057765
v 0.177783 0.259009 0.057765
v 0.098276 0.259009 0.000000
v 0.238521 0.259009 0.173295
v 0.257290 0.259009 0.115530
v 0.294828 0.259009 0.000000
v 0.276059 0.259009 0.057765
v 0.268890 0.259009 0.266761
v 0.268890 0.242629 0.266761
v 0.170614 0.259009 0.338163
v 0.170614 0.242629 0.338163
v 0.219752 0.242629 0.302462
v 0.268890 0.209871 0.266761
v 0.268890 0.226250 0.266761
v 0.121475 0.242629 0.373863
v 0.170614 0.226250 0.338163
v 0.121475 0.209871 0.373863
v 0.170614 0.193492 0.338163
v 0.170614 0.209871 0.338163
v 0.268890 0.193492 0.266761
v 0.219752 0.209871 0.302462
v 0.109876 0.193492 0.151231
v 0.030369 0.193492 0.093466
v 0.189383 0.193492 0.208996
v 0.091107 0.193492 0.280398
v 0.140245 0.193492 0.244697
v 0.030369 0.259009 0.093466
v 0.109876 0.259009 0.151231
v 0.091107 0.259009 0.280398
v 0.140245 0.259009 0.244697
v 0.189383 0.259009 0.208996
v 0.060738 0.259009 0.373863
v 0.060738 0.242629 0.373863
v -0.060738 0.259009 0.373863
v -0.060738 0.242629 0.373863
v 0.000000 0.242629 0.373863
v 0.060738 0.209871 0.373863
v 0.060738 0.226250 0.373863
v -0.121475 0.242629 0.373863
v -0.060738 0.226250 0.373863
v -0.121475 0.209871 0.373863
v -0.060738 0.193492 0.373863
v -0.060738 0.209871 0.373863
v 0.060738 0.193492 0.373863
v 0.000000 0.209871 0.373863
v -0.000000 0.193492 0.186932
v -0.030369 0.193492 0.093466
v 0.030369 0.193492 0.280398
v -0.091107 0.193492 0.280398
v -0.030369 0.193492 0.280398
v -0.030369 0.259009 0.093466
v -0.000000 0.259009 0.186932
v -0.091107 0.259009 0.280398
v -0.030369 0.259009 0.280398
v 0.030369 0.259009 0.280398
v -0.170613 0.259009 0.338163
v -0.170613 0.242629 0.338163
v -0.268889 0.259009 0.266761
v -0.268889 0.242629 0.266761
v -0.219751 0.242629 0.302462
v -0.170613 0.209871 0.338163
v -0.170613 0.226250 0.338163
v -0.318027 0.242629 0.231060
v -0.268889 0.226250 0.266761
v -0.318027 0.209871 0.231060
v -0.268889 0.193492 0.266761
v -0.268889 0.209871 0.266761
v -0.170613 0.193492 0.338163
v -0.219751 0.209871 0.302462
v -0.109876 0.193492 0.151231
v -0.079507 0.193492 0.057765
v -0.140245 0.193492 0.244697
v -0.238521 0.193492 0.173295
v -0.189383 0.193492 0.208996
v -0.079507 0.259009 0.057765
v -0.109876 0.259009 0.151231
v -0.238521 0.259009 0.173295
v -0.189383 0.259009 0.208996
v -0.140245 0.259009 0.244697
v -0.336796 0.259009 0.173295
v -0.336796 0.242629 0.173295
v -0.374334 0.259009 0.057765
v -0.374334 0.242629 0.057765
v -0.355565 0.242629 0.115530
v -0.336796 0.209871 0.173295
v -0.336796 0.226250 0.173295
v -0.393103 0.242629 0.000000
v -0.374334 0.226250 0.057765
v -0.393103 0.209871 0.000000
v -0.374334 0.193492 0.057765
v -0.374334 0.209871 0.057765
v -0.336796 0.193492 0.173295
v -0.355565 0.209871 0.115530
v -0.177783 0.193492 0.057765
v -0.098276 0.193492 0.000000
v -0.257290 0.193492 0.115530
v -0.294828 0.193492 0.000000
v -0.276059 0.193492 0.057765
v -0.098276 0.259009 0.000000
v -0.177783 0.259009 0.057765
v -0.294828 0.259009 0.000000
v -0.276059 0.259009 0.057765
v -0.257290 0.259009 0.115530
v -0.374334 0.259009 -0.057765
v -0.374334 0.242629 -0.057765
v -0.336796 0.259009 -0.173295
v -0.336796 0.242629 -0.173295
v -0.355565 0.242629 -0.115530
v -0.374334 0.209871 -0.057765
v -0.374334 0.226250 -0.057765
v -0.318027 0.242629 -0.231061
v -0.336796 0.226250 -0.173295
v -0.318027 0.209871 -0.231061
v -0.336796 0.193492 -0.173295
v -0.336796 0.209871 -0.173295
v -0.374334 0.193492 -0.057765
v -0.355565 0.209871 -0.115530
v -0.177783 0.193492 -0.057765
v -0.079507 0.193492 -0.057765
v -0.276059 0.193492 -0.057765
v -0.238521 0.193492 -0.173295
v -0.257290 0.193492 -0.115530
v -0.079507 0.259009 -0.057765
v -0.177783 0.259009 -0.057765
v -0.238521 0.259009 -0.173295
v -0.257290 0.259009 -0.115530
v -0.276059 0.259009 -0.057765
v -0.268889 0.259009 -0.266761
v -0.268889 0.242629 -0.266761
v -0.170613 0.259009 -0.338163
v -0.170613 0.242629 -0.338163
v -0.219751 0.242629 -0.302462
v -0.268889 0.209871 -0.266761
v -0.268889 0.226250 -0.266761
v -0.121475 0.242629 -0.373864
v -0.170613 0.226250 -0.338163
v -0.121475 0.209871 -0.373864
v -0.170613 0.193492 -0.338163
v -0.170613 0.209871 -0.338163
v -0.268889 0.193492 -0.266761
v -0.219751 0.209871 -0.302462
v -0.109876 0.193492 -0.151231
v -0.030369 0.193492 -0.093466
v -0.189383 0.193492 -0.208996
v -0.091107 0.193492 -0.280398
v -0.140245 0.193492 -0.244697
v -0.030369 0.259009 -0.093466
v -0.109876 0.259009 -0.151231
v -0.091107 0.259009 -0.280398
v -0.140245 0.259009 -0.244697
v -0.189383 0.259009 -0.208996
v -0.060738 0.259009 -0.373864
v -0.060738 0.242629 -0.373864
v 0.060738 0.259009 -0.373864
v 0.060738 0.242629 -0.373864
v 0.000000 0.242629 -0.373864
v -0.060738 0.209871 -0.373864
v -0.060738 0.226250 -0.373864
v 0.121475 0.242629 -0.373864
v 0.060738 0.226250 -0.373864
v 0.121475 0.209871 -0.373864
v 0.060738 0.193492 -0.373864
v 0.060738 0.209871 -0.373864
v -0.060738 0.193492 -0.373864
v 0.000000 0.209871 -0.373864
v -0.000000 0.193492 -0.186932
v 0.030369 0.193492 -0.093466
v -0.030369 0.193492 -0.280398
v 0.091107 0.193492 -0.280398
v 0.030369 0.193492 -0.280398
v 0.030369 0.259009 -0.093466
v -0.000000 0.259009 -0.186932
v 0.091107 0.259009 -0.280398
v 0.030369 0.259009 -0.280398
v -0.030369 0.259009 -0.280398
v 0.170614 0.259009 -0.338163
v 0.170614 0.242629 -0.338163
v 0.268890 0.259009 -0.266761
v 0.268890 0.242629 -0.266761
v 0.219752 0.242629 -0.302462
v 0.170614 0.209871 -0.338163
v 0.170614 0.226250 -0.338163
v 0.318028 0.242629 -0.231061
v 0.268890 0.226250 -0.266761
v 0.318028 0.209871 -0.231061
v 0.268890 0.193492 -0.266761
v 0.268890 0.209871 -0.266761
v 0.170614 0.193492 -0.338163
v 0.219752 0.209871 -0.302462
v 0.109876 0.193492 -0.151231
v 0.079507 0.193492 -0.057765
v 0.140245 0.193492 -0.244697
v 0.238521 0.193492 -0.173295
v 0.189383 0.193492 -0.208996
v 0.079507 0.259009 -0.057765
v 0.109876 0.259009 -0.151231
v 0.238521 0.259009 -0.173295
v 0.189383 0.259009 -0.208996
v 0.140245 0.259009 -0.244697
v 0.336797 0.259009 -0.173295
v 0.336797 0.242629 -0.173295
v 0.374335 0.259009 -0.057765
v 0.374335 0.242629 -0.057765
v 0.355566 0.242629 -0.115530
v 0.336797 0.209871 -0.173295
v 0.336797 0.226250 -0.173295
v 0.374335 0.226250 -0.057765
v 0.374335 0.193492 -0.057765
v 0.374335 0.209871 -0.057765
v 0.336797 0.193492 -0.173295
v 0.355566 0.209871 -0.115530
v 0.177783 0.193492 -0.057765
v 0.257290 0.193492 -0.115530
v 0.276059 0.193492 -0.057765
v 0.177783 0.259009 -0.057765
v 0.276059 0.259009 -0.057765
v 0.257290 0.259009 -0.115530
v 0.229311 -0.472601 0.229310
v 0.245690 -0.472601 0.229310
v 0.245690 -0.690991 0.229310
v 0.229311 -0.035819 0.229310
v 0.245690 -0.035819 0.229310
v 0.245690 -0.254210 0.229310
v 0.278448 -0.472601 0.229310
v 0.278448 -0.690991 0.229310
v 0.262069 -0.472601 0.229310
v 0.278448 -0.254210 0.229310
v 0.294828 -0.472601 0.229310
v 0.245690 0.182572 0.229310
v 0.262069 -0.035819 0.229310
v 0.278448 0.182572 0.229310
v 0.294828 -0.035819 0.229310
v 0.278448 -0.035819 0.229310
v 0.245690 -0.690991 0.245690
v 0.245690 -0.690991 0.262069
v 0.229311 -0.690991 0.245690
v 0.278448 -0.690991 0.278448
v 0.278448 -0.690991 0.294827
v 0.262069 -0.690991 0.278448
v 0.245690 -0.690991 0.294827
v 0.229311 -0.690991 0.278448
v 0.245690 -0.690991 0.278448
v 0.262069 -0.690991 0.245690
v 0.294828 -0.690991 0.245690
v 0.278448 -0.690991 0.245690
v 0.294828 -0.690991 0.278448
v 0.278448 -0.690991 0.262069
v 0.229311 -0.472601 0.245690
v 0.229311 -0.472601 0.278448
v 0.229311 -0.472601 0.262069
v 0.229311 -0.035819 0.245690
v 0.229311 -0.254210 0.245690
v 0.229311 -0.035819 0.262069
v 0.229311 0.182572 0.245690
v 0.229311 -0.472601 0.294827
v 0.229311 -0.254210 0.278448
v 0.229311 -0.035819 0.294827
v 0.229311 0.182572 0.278448
v 0.229311 -0.035819 0.278448
v 0.245690 0.182572 0.262069
v 0.245690 0.182572 0.245690
v 0.245690 0.182572 0.294827
v 0.245690 0.182572 0.278448
v 0.278448 0.182572 0.294827
v 0.278448 0.182572 0.278448
v 0.262069 0.182572 0.278448
v 0.262069 0.182572 0.245690
v 0.294828 0.182572 0.278448
v 0.278448 0.182572 0.262069
v 0.294828 0.182572 0.245690
v 0.278448 0.182572 0.245690
v 0.294828 -0.472601 0.245690
v 0.294828 -0.472601 0.262069
v 0.294828 -0.035819 0.278448
v 0.294828 -0.035819 0.294827
v 0.294828 -0.254210 0.278448
v 0.294828 -0.472601 0.294827
v 0.294828 -0.472601 0.278448
v 0.294828 -0.254210 0.245690
v 0.294828 -0.035819 0.245690
v 0.294828 -0.035819 0.262069
v 0.278448 -0.472601 0.294827
v 0.262069 -0.472601 0.294827
v 0.245690 -0.035819 0.294827
v 0.245690 -0.254210 0.294827
v 0.245690 -0.472601 0.294827
v 0.278448 -0.254210 0.294827
v 0.278448 -0.035819 0.294827
v 0.262069 -0.035819 0.294827
v -0.294827 -0.472601 0.229310
v -0.278448 -0.472601 0.229310
v -0.278448 -0.690991 0.229310
v -0.294827 -0.035819 0.229310
v -0.278448 -0.035819 0.229310
v -0.278448 -0.254210 0.229310
v -0.245690 -0.472601 0.229310
v -0.245690 -0.690991 0.229310
v -0.262069 -0.472601 0.229310
v -0.245690 -0.254210 0.229310
v -0.229310 -0.472601 0.229310
v -0.278448 0.182572 0.229310
v -0.262069 -0.035819 0.229310
v -0.245690 0.182572 0.229310
v -0.229310 -0.035819 0.229310
v -0.245690 -0.035819 0.229310
v -0.278448 -0.690991 0.245690
v -0.278448 -0.690991 0.262069
v -0.294827 -0.690991 0.245690
v -0.245690 -0.690991 0.278448
v -0.245690 -0.690991 0.294827
v -0.262069 -0.690991 0.278448
v -0.278448 -0.690991 0.294827
v -0.294827 -0.690991 0.278448
v -0.278448 -0.690991 0.278448
v -0.262069 -0.690991 0.245690
v -0.229310 -0.690991 0.245690
v -0.245690 -0.690991 0.245690
v -0.229310 -0.690991 0.278448
v -0.245690 -0.690991 0.262069
v -0.294827 -0.472601 0.245690
v -0.294827 -0.472601 0.278448
v -0.294827 -0.472601 0.262069
v -0.294827 -0.035819 0.245690
v -0.294827 -0.254210 0.245690
v -0.294827 -0.035819 0.262069
v -0.294827 0.182572 0.245690
v -0.294827 -0.472601 0.294827
v -0.294827 -0.254210 0.278448
v -0.294827 -0.035819 0.294827
v -0.294827 0.182572 0.278448
v -0.294827 -0.035819 0.278448
v -0.278448 0.182572 0.262069
v -0.278448 0.182572 0.245690
v -0.278448 0.182572 0.294827
v -0.278448 0.182572 0.278448
v -0.245690 0.182572 0.294827
v -0.245690 0.182572 0.278448
v -0.262069 0.182572 0.278448
v -0.262069 0.182572 0.245690
v -0.229310 0.182572 0.278448
v -0.245690 0.182572 0.262069
v -0.229310 0.182572 0.245690
v -0.245690 0.182572 0.245690
v -0.229310 -0.472601 0.245690
v -0.229310 -0.472601 0.262069
v -0.229310 -0.035819 0.278448
v -0.229310 -0.035819 0.294827
v -0.229310 -0.254210 0.278448
v -0.229310 -0.472601 0.294827
v -0.229310 -0.472601 0.278448
v -0.229310 -0.254210 0.245690
v -0.229310 -0.035819 0.245690
v -0.229310 -0.035819 0.262069
v -0.245690 -0.472601 0.294827
v -0.262069 -0.472601 0.294827
v -0.278448 -0.035819 0.294827
v -0.278448 -0.254210 0.294827
v -0.278448 -0.472601 0.294827
v -0.245690 -0.254210 0.294827
v -0.245690 -0.035819 0.294827
v -0.262069 -0.035819 0.294827
v -0.294827 -0.472601 -0.294828
v -0.278448 -0.472601 -0.294828
v -0.278448 -0.690991 -0.294828
v -0.294827 -0.035819 -0.294828
v -0.278448 -0.035819 -0.294828
v -0.278448 -0.254210 -0.294828
v -0.245690 -0.472601 -0.294828
v -0.245690 -0.690991 -0.294828
v -0.262069 -0.472601 -0.294828
v -0.245690 -0.254210 -0.294828
v -0.229310 -0.472601 -0.294828
v -0.278448 0.182572 -0.294828
v -0.262069 -0.035819 -0.294828
v -0.245690 0.182572 -0.294828
v -0.229310 -0.035819 -0.294828
v -0.245690 -0.035819 -0.294828
v -0.278448 -0.690991 -0.278448
v -0.278448 -0.690991 -0.262069
v -0.294827 -0.690991 -0.278448
v -0.245690 -0.690991 -0.245690
v -0.245690 -0.690991 -0.229311
v -0.262069 -0.690991 -0.245690
v -0.278448 -0.690991 -0.229311
v -0.294827 -0.690991 -0.245690
v -0.278448 -0.690991 -0.245690
v -0.262069 -0.690991 -0.278448
v -0.229310 -0.690991 -0.278448
v -0.245690 -0.690991 -0.278448
v -0.229310 -0.690991 -0.245690
v -0.245690 -0.690991 -0.262069
v -0.294827 -0.472601 -0.278448
v -0.294827 -0.472601 -0.245690
v -0.294827 -0.472601 -0.262069
v -0.294827 -0.035819 -0.278448
v -0.294827 -0.254210 -0.278448
v -0.294827 -0.035819 -0.262069
v -0.294827 0.182572 -0.278448
v -0.294827 -0.472601 -0.229311
v -0.294827 -0.254210 -0.245690
v -0.294827 -0.035819 -0.229311
v -0.294827 0.182572 -0.245690
v -0.294827 -0.035819 -0.245690
v -0.278448 0.182572 -0.262069
v -0.278448 0.182572 -0.278448
v -0.278448 0.182572 -0.229311
v -0.278448 0.182572 -0.245690
v -0.245690 0.182572 -0.229311
v -0.245690 0.182572 -0.245690
v -0.262069 0.182572 -0.245690
v -0.262069 0.182572 -0.278448
v -0.229310 0.182572 -0.245690
v -0.245690 0.182572 -0.262069
v -0.229310 0.182572 -0.278448
v -0.245690 0.182572 -0.278448
v -0.229310 -0.472601 -0.278448
v -0.229310 -0.472601 -0.262069
v -0.229310 -0.035819 -0.245690
v -0.229310 -0.035819 -0.229311
v -0.229310 -0.254210 -0.245690
v -0.229310 -0.472601 -0.229311
v -0.229310 -0.472601 -0.245690
v -0.229310 -0.254210 -0.278448
v -0.229310 -0.035819 -0.278448
v -0.229310 -0.035819 -0.262069
v -0.245690 -0.472601 -0.229311
v -0.262069 -0.472601 -0.229311
v -0.278448 -0.035819 -0.229311
v -0.278448 -0.254210 -0.229311
v -0.278448 -0.472601 -0.229311
v -0.245690 -0.254210 -0.229311
v -0.245690 -0.035819 -0.229311
v -0.262069 -0.035819 -0.229311
v 0.229311 -0.472601 -0.294828
v 0.245690 -0.472601 -0.294828
v 0.245690 -0.690991 -0.294828
v 0.229311 -0.035819 -0.294828
v 0.245690 -0.035819 -0.294828
v 0.245690 -0.254210 -0.294828
v 0.278448 -0.472601 -0.294828
v 0.278448 -0.690991 -0.294828
v 0.262069 -0.472601 -0.294828
v 0.278448 -0.254210 -0.294828
v 0.294828 -0.472601 -0.294828
v 0.245690 0.182572 -0.294828
v 0.262069 -0.035819 -0.294828
v 0.278448 0.182572 -0.294828
v 0.294828 -0.035819 -0.294828
v 0.278448 -0.035819 -0.294828
v 0.245690 -0.690991 -0.278448
v 0.245690 -0.690991 -0.262069
v 0.229311 -0.690991 -0.278448
v 0.278448 -0.690991 -0.245690
v 0.278448 -0.690991 -0.229311
v 0.262069 -0.690991 -0.245690
v 0.245690 -0.690991 -0.229311
v 0.229311 -0.690991 -0.245690
v 0.245690 -0.690991 -0.245690
v 0.262069 -0.690991 -0.278448
v 0.294828 -0.690991 -0.278448
v 0.278448 -0.690991 -0.278448
v 0.294828 -0.690991 -0.245690
v 0.278448 -0.690991 -0.262069
v 0.229311 -0.472601 -0.278448
v 0.229311 -0.472601 -0.245690
v 0.229311 -0.472601 -0.262069
v 0.229311 -0.035819 -0.278448
v 0.229311 -0.254210 -0.278448
v 0.229311 -0.035819 -0.262069
v 0.229311 0.182572 -0.278448
v 0.229311 -0.472601 -0.229311
v 0.229311 -0.254210 -0.245690
v 0.229311 -0.035819 -0.229311
v 0.229311 0.182572 -0.245690
v 0.229311 -0.035819 -0.245690
v 0.245690 0.182572 -0.262069
v 0.245690 0.182572 -0.278448
v 0.245690 0.182572 -0.229311
v 0.245690 0.182572 -0.245690
v 0.278448 0.182572 -0.229311
v 0.278448 0.182572 -0.245690
v 0.262069 0.182572 -0.245690
v 0.262069 0.182572 -0.278448
v 0.294828 0.182572 -0.245690
v 0.278448 0.182572 -0.262069
v 0.294828 0.182572 -0.278448
v 0.278448 0.182572 -0.278448
v 0.294828 -0.472601 -0.278448
v 0.294828 -0.472601 -0.262069
v 0.294828 -0.035819 -0.245690
v 0.294828 -0.035819 -0.229311
v 0.294828 -0.254210 -0.245690
v 0.294828 -0.472601 -0.229311
v 0.294828 -0.472601 -0.245690
v 0.294828 -0.254210 -0.278448
v 0.294828 -0.035819 -0.278448
v 0.294828 -0.035819 -0.262069
v 0.278448 -0.472601 -0.229311
v 0.262069 -0.472601 -0.229311
v 0.245690 -0.035819 -0.229311
v 0.245690 -0.254210 -0.229311
v 0.245690 -0.472601 -0.229311
v 0.278448 -0.254210 -0.229311
v 0.278448 -0.035819 -0.229311
v 0.262069 -0.035819 -0.229311
f 1 187 189
f 187 55 188
f 188 57 189
f 187 188 189
f 55 190 192
f 190 2 191
f 191 56 192
f 190 191 192
f 56 193 195
f 193 3 194
f 194 57 195
f 193 194 195
f 55 192 188
f 192 56 195
f 195 57 188
f 192 195 188
f 2 196 191
f 196 58 197
f 197 56 191
f 196 197 191
f 58 198 200
f 198 4 199
f 199 59 200
f 198 199 200
f 59 201 202
f 201 3 193
f 193 56 202
f 201 193 202
f 58 200 197
f 200 59 202
f 202 56 197
f 200 202 197
f 5 203 205
f 203 60 204
f 204 61 205
f 203 204 205
f 60 206 207
f 206 3 201
f 201 59 207
f 206 201 207
f 59 199 209
f 199 4 208
f 208 61 209
f 199 208 209
f 60 207 204
f 207 59 209
f 209 61 204
f 207 209 204
f 6 210 212
f 210 62 211
f 211 63 212
f 210 211 212
f 62 213 214
f 213 2 190
f 190 55 214
f 213 190 214
f 55 187 216
f 187 1 215
f 215 63 216
f 187 215 216
f 62 214 211
f 214 55 216
f 216 63 211
f 214 216 211
f 2 217 196
f 217 64 218
f 218 58 196
f 217 218 196
f 64 219 221
f 219 7 220
f 220 65 221
f 219 220 221
f 65 222 223
f 222 4 198
f 198 58 223
f 222 198 223
f 64 221 218
f 221 65 223
f 223 58 218
f 221 223 218
f 7 224 220
f 224 66 225
f 225 65 220
f 224 225 220
f 66 226 228
f 226 8 227
f 227 67 228
f 226 227 228
f 67 229 230
f 229 4 222
f 222 65 230
f 229 222 230
f 66 228 225
f 228 67 230
f 230 65 225
f 228 230 225
f 5 205 232
f 205 61 231
f 231 68 232
f 205 231 232
f 61 208 233
f 208 4 229
f 229 67 233
f 208 229 233
f 67 227 235
f 227 8 234
f 234 68 235
f 227 234 235
f 61 233 231
f 233 67 235
f 235 68 231
f 233 235 231
f 6 236 210
f 236 69 237
f 237 62 210
f 236 237 210
f 69 238 239
f 238 7 219
f 219 64 239
f 238 219 239
f 64 217 240
f 217 2 213
f 213 62 240
f 217 213 240
f 69 239 237
f 239 64 240
f 240 62 237
f 239 240 237
f 7 241 224
f 241 70 242
f 242 66 224
f 241 242 224
f 70 243 245
f 243 9 244
f 244 71 245
f 243 244 245
f 71 246 247
f 246 8 226
f 226 66 247
f 246 226 247
f 70 245 242
f 245 71 247
f 247 66 242
f 245 247 242
f 9 248 244
f 248 72 249
f 249 71 244
f 248 249 244
f 72 250 252
f 250 10 251
f 251 73 252
f 250 251 252
f 73 253 254
f 253 8 246
f 246 71 254
f 253 246 254
f 72 252 249
f 252 73 254
f 254 71 249
f 252 254 249
f 5 232 256
f 232 68 255
f 255 74 256
f 232 255 256
f 68 234 257
f 234 8 253
f 253 73 257
f 234 253 257
f 73 251 259
f 251 10 258
f 258 74 259
f 251 258 259
f 68 257 255
f 257 73 259
f 259 74 255
f 257 259 255
f 6 260 236
f 260 75 261
f 261 69 236
f 260 261 236
f 75 262 263
f 262 9 243
f 243 70 263
f 262 243 263
f 70 241 264
f 241 7 238
f 238 69 264
f 241 238 264
f 75 263 261
f 263 70 264
f 264 69 261
f 263 264 261
f 9 265 248
f 265 76 266
f 266 72 248
f 265 266 248
f 76 267 269
f 267 11 268
f 268 77 269
f 267 268 269
f 77 270 271
f 270 10 250
f 250 72 271
f 270 250 271
f 76 269 266
f 269 77 271
f 271 72 266
f 269 271 266
f 11 272 268
f 272 78 273
f 273 77 268
f 272 273 268
f 78 274 276
f 274 12 275
f 275 79 276
f 274 275 276
f 79 277 278
f 277 10 270
f 270 77 278
f 277 270 278
f 78 276 273
f 276 79 278
f 278 77 273
f 276 278 273
f 5 256 280
f 256 74 279
f 279 80 280
f 256 279 280
f 74 258 281
f 258 10 277
f 277 79 281
f 258 277 281
f 79 275 283
f 275 12 282
f 282 80 283
f 275 282 283
f 74 281 279
f 281 79 283
f 283 80 279
f 281 283 279
f 6 284 260
f 284 81 285
f 285 75 260
f 284 285 260
f 81 286 287
f 286 11 267
f 267 76 287
f 286 267 287
f 76 265 288
f 265 9 262
f 262 75 288
f 265 262 288
f 81 287 285
f 287 76 288
f 288 75 285
f 287 288 285
f 11 289 272
f 289 82 290
f 290 78 272
f 289 290 272
f 82 291 293
f 291 13 292
f 292 83 293
f 291 292 293
f 83 294 295
f 294 12 274
f 274 78 295
f 294 274 295
f 82 293 290
f 293 83 295
f 295 78 290
f 293 295 290
f 13 296 292
f 296 84 297
f 297 83 292
f 296 297 292
f 84 298 300
f 298 14 299
f 299 85 300
f 298 299 300
f 85 301 302
f 301 12 294
f 294 83 302
f 301 294 302
f 84 300 297
f 300 85 302
f 302 83 297
f 300 302 297
f 5 280 304
f 280 80 303
f 303 86 304
f 280 303 304
f 80 282 305
f 282 12 301
f 301 85 305
f 282 301 305
f 85 299 307
f 299 14 306
f 306 86 307
f 299 306 307
f 80 305 303
f 305 85 307
f 307 86 303
f 305 307 303
f 6 308 284
f 308 87 309
f 309 81 284
f 308 309 284
f 87 310 311
f 310 13 291
f 291 82 311
f 310 291 311
f 82 289 312
f 289 11 286
f 286 81 312
f 289 286 312
f 87 311 309
f 311 82 312
f 312 81 309
f 311 312 309
f 13 313 296
f 313 88 314
f 314 84 296
f 313 314 296
f 88 315 317
f 315 15 316
f 316 89 317
f 315 316 317
f 89 318 319
f 318 14 298
f 298 84 319
f 318 298 319
f 88 317 314
f 317 89 319
f 319 84 314
f 317 319 314
f 15 320 316
f 320 90 321
f 321 89 316
f 320 321 316
f 90 322 324
f 322 16 323
f 323 91 324
f 322 323 324
f 91 325 326
f 325 14 318
f 318 89 326
f 325 318 326
f 90 324 321
f 324 91 326
f 326 89 321
f 324 326 321
f 5 304 328
f 304 86 327
f 327 92 328
f 304 327 328
f 86 306 329
f 306 14 325
f 325 91 329
f 306 325 329
f 91 323 331
f 323 16 330
f 330 92 331
f 323 330 331
f 86 329 327
f 329 91 331
f 331 92 327
f 329 331 327
f 6 332 308
f 332 93 333
f 333 87 308
f 332 333 308
f 93 334 335
f 334 15 315
f 315 88 335
f 334 315 335
f 88 313 336
f 313 13 310
f 310 87 336
f 313 310 336
f 93 335 333
f 335 88 336
f 336 87 333
f 335 336 333
f 15 337 320
f 337 94 338
f 338 90 320
f 337 338 320
f 94 339 341
f 339 17 340
f 340 95 341
f 339 340 341
f 95 342 343
f 342 16 322
f 322 90 343
f 342 322 343
f 94 341 338
f 341 95 343
f 343 90 338
f 341 343 338
f 17 344 340
f 344 96 345
f 345 95 340
f 344 345 340
f 96 346 348
f 346 18 347
f 347 97 348
f 346 347 348
f 97 349 350
f 349 16 342
f 342 95 350
f 349 342 350
f 96 348 345
f 348 97 350
f 350 95 345
f 348 350 345
f 5 328 352
f 328 92 351
f 351 98 352
f 328 351 352
f 92 330 353
f 330 16 349
f 349 97 353
f 330 349 353
f 97 347 355
f 347 18 354
f 354 98 355
f 347 354 355
f 92 353 351
f 353 97 355
f 355 98 351
f 353 355 351
f 6 356 332
f 356 99 357
f 357 93 332
f 356 357 332
f 99 358 359
f 358 17 339
f 339 94 359
f 358 339 359
f 94 337 360
f 337 15 334
f 334 93 360
f 337 334 360
f 99 359 357
f 359 94 360
f 360 93 357
f 359 360 357
f 17 361 344
f 361 100 362
f 362 96 344
f 361 362 344
f 100 363 365
f 363 19 364
f 364 101 365
f 363 364 365
f 101 366 367
f 366 18 346
f 346 96 367
f 366 346 367
f 100 365 362
f 365 101 367
f 367 96 362
f 365 367 362
f 19 368 364
f 368 102 369
f 369 101 364
f 368 369 364
f 102 370 372
f 370 20 371
f 371 103 372
f 370 371 372
f 103 373 374
f 373 18 366
f 366 101 374
f 373 366 374
f 102 372 369
f 372 103 374
f 374 101 369
f 372 374 369
f 5 352 376
f 352 98 375
f 375 104 376
f 352 375 376
f 98 354 377
f 354 18 373
f 373 103 377
f 354 373 377
f 103 371 379
f 371 20 378
f 378 104 379
f 371 378 379
f 98 377 375
f 377 103 379
f 379 104 375
f 377 379 375
f 6 380 356
f 380 105 381
f 381 99 356
f 380 381 356
f 105 382 383
f 382 19 363
f 363 100 383
f 382 363 383
f 100 361 384
f 361 17 358
f 358 99 384
f 361 358 384
f 105 383 381
f 383 100 384
f 384 99 381
f 383 384 381
f 19 385 368
f 385 106 386
f 386 102 368
f 385 386 368
f 106 387 389
f 387 21 388
f 388 107 389
f 387 388 389
f 107 390 391
f 390 20 370
f 370 102 391
f 390 370 391
f 106 389 386
f 389 107 391
f 391 102 386
f 389 391 386
f 21 392 388
f 392 108 393
f 393 107 388
f 392 393 388
f 108 394 396
f 394 22 395
f 395 109 396
f 394 395 396
f 109 397 398
f 397 20 390
f 390 107 398
f 397 390 398
f 108 396 393
f 396 109 398
f 398 107 393
f 396 398 393
f 5 376 400
f 376 104 399
f 399 110 400
f 376 399 400
f 104 378 401
f 378 20 397
f 397 109 401
f 378 397 401
f 109 395 403
f 395 22 402
f 402 110 403
f 395 402 403
f 104 401 399
f 401 109 403
f 403 110 399
f 401 403 399
f 6 404 380
f 404 111 405
f 405 105 380
f 404 405 380
f 111 406 407
f 406 21 387
f 387 106 407
f 406 387 407
f 106 385 408
f 385 19 382
f 382 105 408
f 385 382 408
f 111 407 405
f 407 106 408
f 408 105 405
f 407 408 405
f 21 409 392
f 409 112 410
f 410 108 392
f 409 410 392
f 112 411 413
f 411 1 412
f 412 113 413
f 411 412 413
f 113 414 415
f 414 22 394
f 394 108 415
f 414 394 415
f 112 413 410
f 413 113 415
f 415 108 410
f 413 415 410
f 1 189 412
f 189 57 416
f 416 113 412
f 189 416 412
f 57 194 418
f 194 3 417
f 417 114 418
f 194 417 418
f 114 419 420
f 419 22 414
f 414 113 420
f 419 414 420
f 57 418 416
f 418 114 420
f 420 113 416
f 418 420 416
f 5 400 203
f 400 110 421
f 421 60 203
f 400 421 203
f 110 402 422
f 402 22 419
f 419 114 422
f 402 419 422
f 114 417 423
f 417 3 206
f 206 60 423
f 417 206 423
f 110 422 421
f 422 114 423
f 423 60 421
f 422 423 421
f 6 212 404
f 212 63 424
f 424 111 404
f 212 424 404
f 63 215 425
f 215 1 411
f 411 112 425
f 215 411 425
f 112 409 426
f 409 21 406
f 406 111 426
f 409 406 426
f 63 425 424
f 425 112 426
f 426 111 424
f 425 426 424
f 23 427 429
f 427 115 428
f 428 117 429
f 427 428 429
f 115 430 432
f 430 24 431
f 431 116 432
f 430 431 432
f 116 433 435
f 433 25 434
f 434 117 435
f 433 434 435
f 115 432 428
f 432 116 435
f 435 117 428
f 432 435 428
f 25 433 437
f 433 116 436
f 436 119 437
f 433 436 437
f 116 431 439
f 431 24 438
f 438 118 439
f 431 438 439
f 118 440 442
f 440 26 441
f 441 119 442
f 440 441 442
f 116 439 436
f 439 118 442
f 442 119 436
f 439 442 436
f 23 443 445
f 443 120 444
f 444 122 445
f 443 444 445
f 120 446 448
f 446 27 447
f 447 121 448
f 446 447 448
f 121 449 451
f 449 28 450
f 450 122 451
f 449 450 451
f 120 448 444
f 448 121 451
f 451 122 444
f 448 451 444
f 23 429 443
f 429 117 452
f 452 120 443
f 429 452 443
f 117 434 454
f 434 25 453
f 453 123 454
f 434 453 454
f 123 455 456
f 455 27 446
f 446 120 456
f 455 446 456
f 117 454 452
f 454 123 456
f 456 120 452
f 454 456 452
f 23 445 427
f 445 122 457
f 457 115 427
f 445 457 427
f 122 450 459
f 450 28 458
f 458 124 459
f 450 458 459
f 124 460 461
f 460 24 430
f 430 115 461
f 460 430 461
f 122 459 457
f 459 124 461
f 461 115 457
f 459 461 457
f 24 460 463
f 460 124 462
f 462 126 463
f 460 462 463
f 124 458 465
f 458 28 464
f 464 125 465
f 458 464 465
f 125 466 468
f 466 29 467
f 467 126 468
f 466 467 468
f 124 465 462
f 465 125 468
f 468 126 462
f 465 468 462
f 24 463 470
f 463 126 469
f 469 128 470
f 463 469 470
f 126 467 472
f 467 29 471
f 471 127 472
f 467 471 472
f 127 473 475
f 473 30 474
f 474 128 475
f 473 474 475
f 126 472 469
f 472 127 475
f 475 128 469
f 472 475 469
f 24 470 438
f 470 128 476
f 476 118 438
f 470 476 438
f 128 474 478
f 474 30 477
f 477 129 478
f 474 477 478
f 129 479 480
f 479 26 440
f 440 118 480
f 479 440 480
f 128 478 476
f 478 129 480
f 480 118 476
f 478 480 476
f 25 481 453
f 481 130 482
f 482 123 453
f 481 482 453
f 130 483 485
f 483 30 484
f 484 131 485
f 483 484 485
f 131 486 487
f 486 27 455
f 455 123 487
f 486 455 487
f 130 485 482
f 485 131 487
f 487 123 482
f 485 487 482
f 25 437 481
f 437 119 488
f 488 130 481
f 437 488 481
f 119 441 489
f 441 26 479
f 479 129 489
f 441 479 489
f 129 477 490
f 477 30 483
f 483 130 490
f 477 483 490
f 119 489 488
f 489 129 490
f 490 130 488
f 489 490 488
f 27 491 447
f 491 132 492
f 492 121 447
f 491 492 447
f 132 493 494
f 493 29 466
f 466 125 494
f 493 466 494
f 125 464 495
f 464 28 449
f 449 121 495
f 464 449 495
f 132 494 492
f 494 125 495
f 495 121 492
f 494 495 492
f 27 486 491
f 486 131 496
f 496 132 491
f 486 496 491
f 131 484 497
f 484 30 473
f 473 127 497
f 484 473 497
f 127 471 498
f 471 29 493
f 493 132 498
f 471 493 498
f 131 497 496
f 497 127 498
f 498 132 496
f 497 498 496
f 31 499 501
f 499 133 500
f 500 135 501
f 499 500 501
f 133 502 504
f 502 32 503
f 503 134 504
f 502 503 504
f 134 505 507
f 505 33 506
f 506 135 507
f 505 506 507
f 133 504 500
f 504 134 507
f 507 135 500
f 504 507 500
f 33 505 509
f 505 134 508
f 508 137 509
f 505 508 509
f 134 503 511
f 503 32 510
f 510 136 511
f 503 510 511
f 136 512 514
f 512 34 513
f 513 137 514
f 512 513 514
f 134 511 508
f 511 136 514
f 514 137 508
f 511 514 508
f 31 515 517
f 515 138 516
f 516 140 517
f 515 516 517
f 138 518 520
f 518 35 519
f 519 139 520
f 518 519 520
f 139 521 523
f 521 36 522
f 522 140 523
f 521 522 523
f 138 520 516
f 520 139 523
f 523 140 516
f 520 523 516
f 31 501 515
f 501 135 524
f 524 138 515
f 501 524 515
f 135 506 526
f 506 33 525
f 525 141 526
f 506 525 526
f 141 527 528
f 527 35 518
f 518 138 528
f 527 518 528
f 135 526 524
f 526 141 528
f 528 138 524
f 526 528 524
f 31 517 499
f 517 140 529
f 529 133 499
f 517 529 499
f 140 522 531
f 522 36 530
f 530 142 531
f 522 530 531
f 142 532 533
f 532 32 502
f 502 133 533
f 532 502 533
f 140 531 529
f 531 142 533
f 533 133 529
f 531 533 529
f 32 532 535
f 532 142 534
f 534 144 535
f 532 534 535
f 142 530 537
f 530 36 536
f 536 143 537
f 530 536 537
f 143 538 540
f 538 37 539
f 539 144 540
f 538 539 540
f 142 537 534
f 537 143 540
f 540 144 534
f 537 540 534
f 32 535 542
f 535 144 541
f 541 146 542
f 535 541 542
f 144 539 544
f 539 37 543
f 543 145 544
f 539 543 544
f 145 545 547
f 545 38 546
f 546 146 547
f 545 546 547
f 144 544 541
f 544 145 547
f 547 146 541
f 544 547 541
f 32 542 510
f 542 146 548
f 548 136 510
f 542 548 510
f 146 546 550
f 546 38 549
f 549 147 550
f 546 549 550
f 147 551 552
f 551 34 512
f 512 136 552
f 551 512 552
f 146 550 548
f 550 147 552
f 552 136 548
f 550 552 548
f 33 553 525
f 553 148 554
f 554 141 525
f 553 554 525
f 148 555 557
f 555 38 556
f 556 149 557
f 555 556 557
f 149 558 559
f 558 35 527
f 527 141 559
f 558 527 559
f 148 557 554
f 557 149 559
f 559 141 554
f 557 559 554
f 33 509 553
f 509 137 560
f 560 148 553
f 509 560 553
f 137 513 561
f 513 34 551
f 551 147 561
f 513 551 561
f 147 549 562
f 549 38 555
f 555 148 562
f 549 555 562
f 137 561 560
f 561 147 562
f 562 148 560
f 561 562 560
f 35 563 519
f 563 150 564
f 564 139 519
f 563 564 519
f 150 565 566
f 565 37 538
f 538 143 566
f 565 538 566
f 143 536 567
f 536 36 521
f 521 139 567
f 536 521 567
f 150 566 564
f 566 143 567
f 567 139 564
f 566 567 564
f 35 558 563
f 558 149 568
f 568 150 563
f 558 568 563
f 149 556 569
f 556 38 545
f 545 145 569
f 556 545 569
f 145 543 570
f 543 37 565
f 565 150 570
f 543 565 570
f 149 569 568
f 569 145 570
f 570 150 568
f 569 570 568
f 39 571 573
f 571 151 572
f 572 153 573
f 571 572 573
f 151 574 576
f 574 40 575
f 575 152 576
f 574 575 576
f 152 577 579
f 577 41 578
f 578 153 579
f 577 578 579
f 151 576 572
f 576 152 579
f 579 153 572
f 576 579 572
f 41 577 581
f 577 152 580
f 580 155 581
f 577 580 581
f 152 575 583
f 575 40 582
f 582 154 583
f 575 582 583
f 154 584 586
f 584 42 585
f 585 155 586
f 584 585 586
f 152 583 580
f 583 154 586
f 586 155 580
f 583 586 580
f 39 587 589
f 587 156 588
f 588 158 589
f 587 588 589
f 156 590 592
f 590 43 591
f 591 157 592
f 590 591 592
f 157 593 595
f 593 44 594
f 594 158 595
f 593 594 595
f 156 592 588
f 592 157 595
f 595 158 588
f 592 595 588
f 39 573 587
f 573 153 596
f 596 156 587
f 573 596 587
f 153 578 598
f 578 41 597
f 597 159 598
f 578 597 598
f 159 599 600
f 599 43 590
f 590 156 600
f 599 590 600
f 153 598 596
f 598 159 600
f 600 156 596
f 598 600 596
f 39 589 571
f 589 158 601
f 601 151 571
f 589 601 571
f 158 594 603
f 594 44 602
f 602 160 603
f 594 602 603
f 160 604 605
f 604 40 574
f 574 151 605
f 604 574 605
f 158 603 601
f 603 160 605
f 605 151 601
f 603 605 601
f 40 604 607
f 604 160 606
f 606 162 607
f 604 606 607
f 160 602 609
f 602 44 608
f 608 161 609
f 602 608 609
f 161 610 612
f 610 45 611
f 611 162 612
f 610 611 612
f 160 609 606
f 609 161 612
f 612 162 606
f 609 612 606
f 40 607 614
f 607 162 613
f 613 164 614
f 607 613 614
f 162 611 616
f 611 45 615
f 615 163 616
f 611 615 616
f 163 617 619
f 617 46 618
f 618 164 619
f 617 618 619
f 162 616 613
f 616 163 619
f 619 164 613
f 616 619 613
f 40 614 582
f 614 164 620
f 620 154 582
f 614 620 582
f 164 618 622
f 618 46 621
f 621 165 622
f 618 621 622
f 165 623 624
f 623 42 584
f 584 154 624
f 623 584 624
f 164 622 620
f 622 165 624
f 624 154 620
f 622 624 620
f 41 625 597
f 625 166 626
f 626 159 597
f 625 626 597
f 166 627 629
f 627 46 628
f 628 167 629
f 627 628 629
f 167 630 631
f 630 43 599
f 599 159 631
f 630 599 631
f 166 629 626
f 629 167 631
f 631 159 626
f 629 631 626
f 41 581 625
f 581 155 632
f 632 166 625
f 581 632 625
f 155 585 633
f 585 42 623
f 623 165 633
f 585 623 633
f 165 621 634
f 621 46 627
f 627 166 634
f 621 627 634
f 155 633 632
f 633 165 634
f 634 166 632
f 633 634 632
f 43 635 591
f 635 168 636
f 636 157 591
f 635 636 591
f 168 637 638
f 637 45 610
f 610 161 638
f 637 610 638
f 161 608 639
f 608 44 593
f 593 157 639
f 608 593 639
f 168 638 636
f 638 161 639
f 639 157 636
f 638 639 636
f 43 630 635
f 630 167 640
f 640 168 635
f 630 640 635
f 167 628 641
f 628 46 617
f 617 163 641
f 628 617 641
f 163 615 642
f 615 45 637
f 637 168 642
f 615 637 642
f 167 641 640
f 641 163 642
f 642 168 640
f 641 642 640
f 47 643 645
f 643 169 644
f 644 171 645
f 643 644 645
f 169 646 648
f 646 48 647
f 647 170 648
f 646 647 648
f 170 649 651
f 649 49 650
f 650 171 651
f 649 650 651
f 169 648 644
f 648 170 651
f 651 171 644
f 648 651 644
f 49 649 653
f 649 170 652
f 652 173 653
f 649 652 653
f 170 647 655
f 647 48 654
f 654 172 655
f 647 654 655
f 172 656 658
f 656 50 657
f 657 173 658
f 656 657 658
f 170 655 652
f 655 172 658
f 658 173 652
f 655 658 652
f 47 659 661
f 659 174 660
f 660 176 661
f 659 660 661
f 174 662 664
f 662 51 663
f 663 175 664
f 662 663 664
f 175 665 667
f 665 52 666
f 666 176 667
f 665 666 667
f 174 664 660
f 664 175 667
f 667 176 660
f 664 667 660
f 47 645 659
f 645 171 668
f 668 174 659
f 645 668 659
f 171 650 670
f 650 49 669
f 669 177 670
f 650 669 670
f 177 671 672
f 671 51 662
f 662 174 672
f 671 662 672
f 171 670 668
f 670 177 672
f 672 174 668
f 670 672 668
f 47 661 643
f 661 176 673
f 673 169 643
f 661 673 643
f 176 666 675
f 666 52 674
f 674 178 675
f 666 674 675
f 178 676 677
f 676 48 646
f 646 169 677
f 676 646 677
f 176 675 673
f 675 178 677
f 677 169 673
f 675 677 673
f 48 676 679
f 676 178 678
f 678 180 679
f 676 678 679
f 178 674 681
f 674 52 680
f 680 179 681
f 674 680 681
f 179 682 684
f 682 53 683
f 683 180 684
f 682 683 684
f 178 681 678
f 681 179 684
f 684 180 678
f 681 684 678
f 48 679 686
f 679 180 685
f 685 182 686
f 679 685 686
f 180 683 688
f 683 53 687
f 687 181 688
f 683 687 688
f 181 689 691
f 689 54 690
f 690 182 691
f 689 690 691
f 180 688 685
f 688 181 691
f 691 182 685
f 688 691 685
f 48 686 654
f 686 182 692
f 692 172 654
f 686 692 654
f 182 690 694
f 690 54 693
f 693 183 694
f 690 693 694
f 183 695 696
f 695 50 656
f 656 172 696
f 695 656 696
f 182 694 692
f 694 183 696
f 696 172 692
f 694 696 692
f 49 697 669
f 697 184 698
f 698 177 669
f 697 698 669
f 184 699 701
f 699 54 700
f 700 185 701
f 699 700 701
f 185 702 703
f 702 51 671
f 671 177 703
f 702 671 703
f 184 701 698
f 701 185 703
f 703 177 698
f 701 703 698
f 49 653 697
f 653 173 704
f 704 184 697
f 653 704 697
f 173 657 705
f 657 50 695
f 695 183 705
f 657 695 705
f 183 693 706
f 693 54 699
f 699 184 706
f 693 699 706
f 173 705 704
f 705 183 706
f 706 184 704
f 705 706 704
f 51 707 663
f 707 186 708
f 708 175 663
f 707 708 663
f 186 709 710
f 709 53 682
f 682 179 710
f 709 682 710
f 179 680 711
f 680 52 665
f 665 175 711
f 680 665 711
f 186 710 708
f 710 179 711
f 711 175 708
f 710 711 708
f 51 702 707
f 702 185 712
f 712 186 707
f 702 712 707
f 185 700 713
f 700 54 689
f 689 181 713
f 700 689 713
f 181 687 714
f 687 53 709
f 709 186 714
f 687 709 714
f 185 713 712
f 713 181 714
f 714 186 712
f 713 714 712
