# Original shape: m937.obj
# No processing applied - exact copy of source file
# Generated on 2025-10-03 22:41:36

v 0.922222 0.025000 0.325481
v 0.674519 0.025000 0.077778
v 0.325481 0.025000 0.077778
v 0.922222 0.025000 0.674519
v 0.674519 0.025000 0.922222
v 0.325481 0.025000 0.922222
v 0.077778 0.025000 0.674519
v 0.077778 0.025000 0.325481
v 0.674519 0.112963 0.077778
v 0.325481 0.112963 0.077778
v 0.922222 0.112963 0.325481
v 0.922222 0.112963 0.674519
v 0.674519 0.112963 0.922222
v 0.325481 0.112963 0.922222
v 0.077778 0.112963 0.674519
v 0.077778 0.112963 0.325481
v 0.609074 0.200926 0.236111
v 0.390926 0.200926 0.236111
v 0.763889 0.200926 0.390926
v 0.763889 0.200926 0.609074
v 0.609074 0.200926 0.763889
v 0.390926 0.200926 0.763889
v 0.236111 0.200926 0.609074
v 0.236111 0.200926 0.390926
v 0.587259 0.288889 0.288889
v 0.412741 0.288889 0.288889
v 0.711111 0.288889 0.412741
v 0.711111 0.288889 0.587259
v 0.587259 0.288889 0.711111
v 0.412741 0.288889 0.711111
v 0.288889 0.288889 0.587259
v 0.288889 0.288889 0.412741
v 0.543630 0.552778 0.394444
v 0.456370 0.552778 0.394444
v 0.605556 0.552778 0.456370
v 0.605556 0.552778 0.543630
v 0.543630 0.552778 0.605556
v 0.456370 0.552778 0.605556
v 0.394444 0.552778 0.543630
v 0.394444 0.552778 0.456370
v 0.565444 0.640741 0.341667
v 0.434556 0.640741 0.341667
v 0.658333 0.640741 0.434556
v 0.658333 0.640741 0.565444
v 0.565444 0.640741 0.658333
v 0.434556 0.640741 0.658333
v 0.341667 0.640741 0.565444
v 0.341667 0.640741 0.434556
v 0.696333 0.675926 0.025000
v 0.303667 0.675926 0.025000
v 0.975000 0.675926 0.303667
v 0.975000 0.675926 0.696333
v 0.696333 0.675926 0.975000
v 0.303667 0.675926 0.975000
v 0.025000 0.675926 0.696333
v 0.025000 0.675926 0.303667
v 0.696333 0.728704 0.025000
v 0.303667 0.728704 0.025000
v 0.975000 0.728704 0.303667
v 0.975000 0.728704 0.696333
v 0.696333 0.728704 0.975000
v 0.303667 0.728704 0.975000
v 0.025000 0.728704 0.696333
v 0.025000 0.728704 0.303667
v 0.587259 0.763889 0.288889
v 0.412741 0.763889 0.288889
v 0.711111 0.763889 0.412741
v 0.711111 0.763889 0.587259
v 0.587259 0.763889 0.711111
v 0.412741 0.763889 0.711111
v 0.288889 0.763889 0.587259
v 0.288889 0.763889 0.412741
f 1 2 3
f 4 1 3
f 5 4 3
f 6 5 3
f 7 6 3
f 8 7 3
f 3 9 10
f 3 2 9
f 2 11 9
f 2 1 11
f 1 12 11
f 1 4 12
f 4 13 12
f 4 5 13
f 5 14 13
f 5 6 14
f 6 15 14
f 6 7 15
f 7 16 15
f 7 8 16
f 8 10 16
f 8 3 10
f 10 17 18
f 10 9 17
f 9 19 17
f 9 11 19
f 11 20 19
f 11 12 20
f 12 21 20
f 12 13 21
f 13 22 21
f 13 14 22
f 14 23 22
f 14 15 23
f 15 24 23
f 15 16 24
f 16 18 24
f 16 10 18
f 18 25 26
f 18 17 25
f 17 27 25
f 17 19 27
f 19 28 27
f 19 20 28
f 20 29 28
f 20 21 29
f 21 30 29
f 21 22 30
f 22 31 30
f 22 23 31
f 23 32 31
f 23 24 32
f 24 26 32
f 24 18 26
f 26 33 34
f 26 25 33
f 25 35 33
f 25 27 35
f 27 36 35
f 27 28 36
f 28 37 36
f 28 29 37
f 29 38 37
f 29 30 38
f 30 39 38
f 30 31 39
f 31 40 39
f 31 32 40
f 32 34 40
f 32 26 34
f 34 41 42
f 34 33 41
f 33 43 41
f 33 35 43
f 35 44 43
f 35 36 44
f 36 45 44
f 36 37 45
f 37 46 45
f 37 38 46
f 38 47 46
f 38 39 47
f 39 48 47
f 39 40 48
f 40 42 48
f 40 34 42
f 42 49 50
f 42 41 49
f 41 51 49
f 41 43 51
f 43 52 51
f 43 44 52
f 44 53 52
f 44 45 53
f 45 54 53
f 45 46 54
f 46 55 54
f 46 47 55
f 47 56 55
f 47 48 56
f 48 50 56
f 48 42 50
f 50 57 58
f 50 49 57
f 49 59 57
f 49 51 59
f 51 60 59
f 51 52 60
f 52 61 60
f 52 53 61
f 53 62 61
f 53 54 62
f 54 63 62
f 54 55 63
f 55 64 63
f 55 56 64
f 56 58 64
f 56 50 58
f 58 65 66
f 58 57 65
f 57 67 65
f 57 59 67
f 59 68 67
f 59 60 68
f 60 69 68
f 60 61 69
f 61 70 69
f 61 62 70
f 62 71 70
f 62 63 71
f 63 72 71
f 63 64 72
f 64 66 72
f 64 58 66
f 66 65 67
f 66 67 68
f 66 68 69
f 66 69 70
f 66 70 71
f 66 71 72
