# Unified Preprocessed OBJ file from m998.obj
# Applied remeshing: Yes
# Applied 4-step normalization: centering, PCA alignment, flipping, scaling
# Generated on 2025-09-29 15:16:46

v 0.476726 0.035960 0.018716
v 0.661977 -0.018270 0.017351
v 0.673759 -0.013239 0.003582
v 0.661684 -0.010819 -0.010643
v 0.756620 -0.188245 -0.043815
v 0.612179 0.050046 -0.053786
v 0.603739 0.034487 -0.053200
v 0.660704 0.044677 -0.241021
v 0.596762 0.062975 -0.054817
v 0.476066 0.039223 0.016031
v 0.543489 0.118507 -0.006284
v 0.533570 0.112115 -0.020006
v 0.540073 0.295620 -0.073680
v 0.529549 0.122278 0.006988
v 0.475067 0.042727 0.018330
v 0.568249 0.098156 0.080539
v 0.554074 0.107946 0.071173
v 0.567067 0.218419 0.227049
v 0.558567 0.085749 0.089466
v 0.475110 0.041631 0.022451
v 0.613640 0.012890 0.085983
v 0.598313 0.023515 0.093603
v 0.665781 -0.084489 0.244855
v 0.605110 -0.000368 0.077917
v 0.476136 0.037446 0.022683
v 0.156774 -0.073483 0.021346
v 0.270382 -0.041571 -0.003736
v 0.277752 -0.037680 0.004554
v 0.270141 -0.033224 0.012328
v 0.322606 0.065741 -0.048515
v 0.240941 -0.044793 0.058629
v 0.235124 -0.038168 0.051956
v 0.268842 0.038167 0.142077
v 0.231775 -0.050848 0.064793
v 0.156449 -0.073884 0.023972
v 0.201100 -0.098695 0.066589
v 0.194523 -0.090310 0.070390
v 0.204549 -0.152025 0.172311
v 0.192694 -0.106495 0.062259
v 0.155978 -0.076496 0.024396
v 0.216825 -0.125019 0.017536
v 0.208225 -0.126074 0.026213
v 0.222113 -0.242141 0.000518
v 0.210443 -0.123400 0.008342
v 0.156014 -0.077726 0.022030
v 0.242142 -0.086467 -0.021570
v 0.233051 -0.095104 -0.020374
v 0.273019 -0.106710 -0.136728
v 0.236251 -0.077266 -0.023284
v 0.156506 -0.075871 0.020148
v 0.262730 -0.019210 -0.044199
v 0.400383 -0.017598 0.000608
v 0.409672 -0.027448 -0.003356
v 0.401042 -0.038305 -0.005937
v 0.469158 -0.067065 0.127963
v 0.366377 -0.069679 -0.054142
v 0.359701 -0.070001 -0.042661
v 0.407403 -0.208868 -0.055457
v 0.355134 -0.070374 -0.064205
v 0.262374 -0.021131 -0.046743
v 0.315187 -0.033381 -0.105342
v 0.307968 -0.044126 -0.101254
v 0.318204 -0.077696 -0.240375
v 0.304487 -0.023660 -0.108024
v 0.261644 -0.019305 -0.049308
v 0.331077 0.031520 -0.086539
v 0.320908 0.024497 -0.094523
v 0.329064 0.145417 -0.171573
v 0.323324 0.037524 -0.077166
v 0.261547 -0.016252 -0.048352
v 0.363090 0.033707 -0.021454
v 0.351644 0.039399 -0.029508
v 0.395977 0.150498 0.058132
v 0.356617 0.026986 -0.012006
v 0.262218 -0.016202 -0.045185
v -0.094380 0.001151 -0.002209
v 0.476546 0.037092 0.016901
v 0.475930 0.038190 0.023054
v -0.094996 0.002255 0.003955
v -0.095938 0.006966 -0.000140
v 0.474989 0.042907 0.018971
v -0.095298 0.001454 -0.001305
v 0.261910 -0.020419 -0.048589
v 0.262721 -0.018999 -0.044132
v -0.094487 0.002879 0.003162
v -0.095530 0.006033 -0.000261
v 0.261677 -0.015840 -0.047544
v -0.095259 0.001668 -0.000845
v 0.156190 -0.077288 0.021002
v 0.156072 -0.075783 0.024612
v -0.095376 0.003163 0.002770
v -0.094679 0.005551 -0.000324
v 0.156771 -0.073405 0.021524
v -0.096229 0.032887 -0.092686
v -0.095104 0.003455 0.000541
v -0.095009 -0.005011 -0.096861
v -0.093804 -0.041618 -0.086200
v -0.092797 -0.071359 -0.062352
v -0.092142 -0.089714 -0.028917
v -0.091937 -0.093885 0.009001
v -0.092214 -0.083238 0.045633
v -0.092931 -0.059389 0.075385
v -0.093979 -0.025971 0.093752
v -0.095199 0.011928 0.097927
v -0.096403 0.048529 0.087282
v -0.097411 0.078275 0.063417
v -0.098066 0.096630 0.029983
v -0.098271 0.100801 -0.007936
v -0.097994 0.090149 -0.044551
v -0.097277 0.066306 -0.074319
v -0.048535 0.052098 -0.085264
v -0.033628 0.057708 -0.088568
v -0.034129 0.073901 -0.076192
v -0.048707 0.056873 -0.094808
v -0.033050 0.039394 -0.096549
v -0.049435 0.081303 -0.060719
v -0.034552 0.087769 -0.061803
v -0.034851 0.098002 -0.044177
v -0.049708 0.089356 -0.067697
v -0.049942 0.098888 -0.026853
v -0.035053 0.105304 -0.025570
v -0.035103 0.108014 -0.005364
v -0.050276 0.109011 -0.030213
v -0.049979 0.102192 0.011164
v -0.035055 0.107645 0.014621
v -0.034849 0.102425 0.034325
v -0.050321 0.112817 0.011936
v -0.049539 0.090692 0.047562
v -0.034557 0.094449 0.052649
v -0.034127 0.082081 0.068850
v -0.049839 0.100214 0.052335
v -0.048691 0.066156 0.076770
v -0.033636 0.067700 0.082723
v -0.033047 0.050083 0.092960
v -0.048902 0.073131 0.084828
v -0.047563 0.032309 0.094362
v -0.032431 0.031488 0.100266
v -0.031772 0.011292 0.102975
v -0.047653 0.035668 0.104490
v -0.046326 -0.005688 0.097665
v -0.031126 -0.008677 0.102616
v -0.030498 -0.028377 0.097381
v -0.046282 -0.006459 0.108296
v -0.045170 -0.042068 0.086157
v -0.029920 -0.046692 0.089401
v -0.029418 -0.062885 0.077024
v -0.044998 -0.046832 0.095695
v -0.044270 -0.071262 0.061608
v -0.028996 -0.076752 0.062635
v -0.028697 -0.086985 0.045008
v -0.043996 -0.079316 0.068585
v -0.043762 -0.088858 0.027746
v -0.028495 -0.094288 0.026403
v -0.028444 -0.096997 0.006196
v -0.043429 -0.098964 0.031112
v -0.043726 -0.092151 -0.010276
v -0.028493 -0.096638 -0.013782
v -0.028698 -0.091408 -0.033493
v -0.043383 -0.102776 -0.011047
v -0.044165 -0.080662 -0.046669
v -0.028990 -0.083433 -0.051816
v -0.029420 -0.071073 -0.068012
v -0.043865 -0.090184 -0.051442
v -0.045014 -0.056116 -0.075882
v -0.029912 -0.056683 -0.081891
v -0.030501 -0.039066 -0.092129
v -0.044803 -0.063090 -0.083939
v -0.046142 -0.022268 -0.093474
v -0.031117 -0.020470 -0.099433
v -0.031776 -0.000275 -0.102143
v -0.046051 -0.025638 -0.103597
v -0.047378 0.015729 -0.096778
v -0.032422 0.019694 -0.101783
v -0.047423 0.016500 -0.107407
v -0.094407 -0.023315 -0.091531
v -0.070269 -0.022982 -0.092648
v -0.073816 -0.006816 -0.095592
v -0.072632 -0.042735 -0.084079
v -0.095619 0.013937 -0.094774
v -0.071496 0.014711 -0.095984
v -0.075027 0.030769 -0.092465
v -0.096753 0.049597 -0.083502
v -0.072644 0.050819 -0.084634
v -0.076081 0.064300 -0.075190
v -0.097635 0.078227 -0.059435
v -0.073538 0.079827 -0.060313
v -0.076817 0.088667 -0.046402
v -0.098133 0.095472 -0.026249
v -0.074043 0.097325 -0.026742
v -0.077124 0.100177 -0.010463
v -0.098169 0.098716 0.011024
v -0.074081 0.100662 0.010971
v -0.076953 0.097054 0.027142
v -0.097738 0.087452 0.046700
v -0.073647 0.089309 0.047103
v -0.076332 0.079790 0.060689
v -0.096907 0.063399 0.075344
v -0.072807 0.065013 0.076119
v -0.075356 0.051018 0.085066
v -0.095801 0.030220 0.092602
v -0.071689 0.031466 0.093636
v -0.074172 0.015099 0.096581
v -0.094589 -0.007022 0.095840
v -0.070462 -0.006233 0.096961
v -0.072961 -0.022486 0.093454
v -0.093455 -0.042680 0.084569
v -0.069314 -0.042340 0.085610
v -0.071907 -0.056011 0.076189
v -0.092573 -0.071311 0.060501
v -0.068419 -0.071348 0.061290
v -0.071171 -0.080384 0.047390
v -0.092075 -0.088556 0.027314
v -0.067914 -0.088858 0.027724
v -0.070864 -0.091894 0.011452
v -0.092039 -0.091799 -0.009958
v -0.067876 -0.092183 -0.009995
v -0.071035 -0.088771 -0.026153
v -0.092469 -0.080537 -0.045634
v -0.068310 -0.080841 -0.046121
v -0.071655 -0.071517 -0.059694
v -0.093301 -0.056494 -0.074273
v -0.069150 -0.056536 -0.075142
v -0.141917 -0.048027 -0.095439
v -0.153362 -0.066892 -0.084502
v -0.237857 -0.067841 -0.082323
v -0.140802 -0.080970 -0.069013
v -0.152416 -0.094249 -0.051826
v -0.236934 -0.094563 -0.050495
v -0.140076 -0.101297 -0.031995
v -0.151927 -0.107030 -0.011170
v -0.236456 -0.107069 -0.010853
v -0.139849 -0.105905 0.009999
v -0.151971 -0.103284 0.031282
v -0.236496 -0.103468 0.030560
v -0.140156 -0.094111 0.050565
v -0.152538 -0.083593 0.069072
v -0.237048 -0.084304 0.067441
v -0.140951 -0.067698 0.083527
v -0.153545 -0.050933 0.096445
v -0.238029 -0.052490 0.094180
v -0.142111 -0.030699 0.103867
v -0.154837 -0.010307 0.109240
v -0.239289 -0.012879 0.106699
v -0.143461 0.011264 0.108485
v -0.156218 0.032133 0.105490
v -0.240635 0.028511 0.103100
v -0.144796 0.051808 0.096688
v -0.157477 0.069903 0.085790
v -0.241864 0.065372 0.083927
v -0.145911 0.084751 0.070262
v -0.158423 0.097260 0.053115
v -0.242788 0.092095 0.052099
v -0.146638 0.105089 0.033240
v -0.158912 0.110035 0.012475
v -0.243267 0.104617 0.012463
v -0.146864 0.109703 -0.008745
v -0.158869 0.106295 -0.029993
v -0.243226 0.101017 -0.028950
v -0.146557 0.097909 -0.049311
v -0.158301 0.086602 -0.067784
v -0.242674 0.081852 -0.065831
v -0.145763 0.071495 -0.082273
v -0.157294 0.053942 -0.095157
v -0.241693 0.050038 -0.092570
v -0.144602 0.034490 -0.102623
v -0.156002 0.013313 -0.107936
v -0.240433 0.010411 -0.105095
v -0.143252 -0.007484 -0.107236
v -0.154621 -0.029123 -0.104202
v -0.239086 -0.030980 -0.101495
v -0.049266 0.074842 -0.082729
v -0.047977 0.034449 -0.092775
v -0.050063 0.101344 -0.049650
v -0.049025 0.067868 -0.074408
v -0.050372 0.113177 -0.008956
v -0.049742 0.091711 -0.044640
v -0.050144 0.108544 0.033175
v -0.050020 0.102363 -0.008024
v -0.049415 0.088154 0.070307
v -0.049815 0.098193 0.029894
v -0.048296 0.055100 0.096832
v -0.049159 0.079837 0.063328
v -0.046957 0.014422 0.108658
v -0.048152 0.050091 0.087193
v -0.045603 -0.027682 0.104031
v -0.046947 0.013490 0.097838
v -0.044438 -0.064812 0.083622
v -0.045728 -0.024409 0.093663
v -0.043641 -0.091308 0.050555
v -0.044680 -0.057827 0.075296
v -0.043333 -0.103147 0.009849
v -0.043962 -0.081675 0.045544
v -0.043561 -0.098509 -0.032271
v -0.043685 -0.092322 0.008912
v -0.044289 -0.078113 -0.069419
v -0.043890 -0.088152 -0.029006
v -0.045408 -0.045064 -0.095927
v -0.044546 -0.069796 -0.062441
v -0.046747 -0.004380 -0.107770
v -0.045553 -0.040056 -0.086289
v -0.048102 0.037717 -0.103127
v -0.046758 -0.003449 -0.096950
v -0.237298 -0.084362 -0.069063
v -0.236569 -0.104758 -0.031915
v -0.236341 -0.109396 0.010205
v -0.236650 -0.097558 0.050910
v -0.237447 -0.071061 0.083978
v -0.238611 -0.033931 0.104387
v -0.239966 0.008173 0.109014
v -0.241305 0.048851 0.097187
v -0.242424 0.081905 0.070663
v -0.243153 0.102295 0.033531
v -0.243380 0.106928 -0.008600
v -0.243072 0.095095 -0.049295
v -0.242275 0.068592 -0.082373
v -0.241110 0.031468 -0.102771
v -0.239756 -0.010630 -0.107414
v -0.238417 -0.051314 -0.095572
v 0.569352 0.008845 0.018033
v 0.667868 -0.015755 0.010466
v 0.575243 0.011360 0.011149
v 0.667722 -0.012029 -0.003531
v 0.569205 0.012570 0.004036
v 0.709152 -0.099532 -0.027229
v 0.715190 -0.100742 -0.020117
v 0.709298 -0.103258 -0.013232
v 0.607959 0.042266 -0.053493
v 0.632222 0.039582 -0.147110
v 0.636441 0.047362 -0.147404
v 0.628733 0.053826 -0.147919
v 0.604470 0.056510 -0.054302
v 0.536414 0.051099 -0.019393
v 0.544123 0.044635 -0.018877
v 0.539903 0.036855 -0.018584
v 0.538529 0.115311 -0.013145
v 0.536822 0.203867 -0.046843
v 0.541781 0.207063 -0.039982
v 0.534811 0.208949 -0.033346
v 0.536519 0.120393 0.000352
v 0.502308 0.082502 0.012659
v 0.509278 0.080617 0.006023
v 0.504318 0.077421 -0.000838
v 0.561162 0.103051 0.075856
v 0.560571 0.163183 0.149111
v 0.567658 0.158288 0.153794
v 0.562817 0.152084 0.158258
v 0.563408 0.091952 0.085003
v 0.516839 0.063690 0.055958
v 0.521679 0.069894 0.051495
v 0.514592 0.074789 0.046812
v 0.605976 0.018203 0.089793
v 0.632047 -0.030487 0.169229
v 0.639710 -0.035800 0.165419
v 0.635445 -0.042429 0.161386
v 0.609375 0.006261 0.081950
v 0.540623 0.018539 0.050300
v 0.544888 0.025168 0.054333
v 0.537224 0.030481 0.058143
v 0.213578 -0.057527 0.008805
v 0.274067 -0.039626 0.000409
v 0.217263 -0.055582 0.012950
v 0.273946 -0.035452 0.008441
v 0.213457 -0.053354 0.016837
v 0.296373 0.016258 -0.018094
v 0.300179 0.014031 -0.021980
v 0.296494 0.012085 -0.026125
v 0.238032 -0.041481 0.055292
v 0.251983 -0.000001 0.097016
v 0.254892 -0.003313 0.100353
v 0.250309 -0.006341 0.103435
v 0.236358 -0.047821 0.061711
v 0.194112 -0.062366 0.044383
v 0.198695 -0.059339 0.041300
v 0.195786 -0.056026 0.037964
v 0.197811 -0.094503 0.068490
v 0.199536 -0.121167 0.121350
v 0.202824 -0.125360 0.119450
v 0.198621 -0.129260 0.117285
v 0.196897 -0.102595 0.064424
v 0.174336 -0.091495 0.043328
v 0.178539 -0.087596 0.045493
v 0.175251 -0.083403 0.047393
v 0.212525 -0.125547 0.021874
v 0.215169 -0.184108 0.013366
v 0.219469 -0.183580 0.009027
v 0.216278 -0.182770 0.004430
v 0.213634 -0.124209 0.012939
v 0.183228 -0.100563 0.015186
v 0.186420 -0.101373 0.019783
v 0.182119 -0.101900 0.024121
v 0.237597 -0.090786 -0.020972
v 0.253035 -0.100907 -0.078551
v 0.257581 -0.096588 -0.079149
v 0.254635 -0.091988 -0.080006
v 0.239197 -0.081866 -0.022427
v 0.196378 -0.076568 -0.001568
v 0.199324 -0.081169 -0.000711
v 0.194779 -0.085488 -0.000113
v 0.331557 -0.018404 -0.021795
v 0.405028 -0.022523 -0.001374
v 0.336201 -0.023329 -0.023778
v 0.405357 -0.032877 -0.004647
v 0.331886 -0.028758 -0.025068
v 0.435100 -0.052685 0.061013
v 0.439415 -0.047256 0.062304
v 0.434771 -0.042331 0.064286
v 0.363039 -0.069840 -0.048402
v 0.383552 -0.139434 -0.049059
v 0.386890 -0.139274 -0.054800
v 0.381269 -0.139621 -0.059831
v 0.360756 -0.070026 -0.059174
v 0.308754 -0.045752 -0.055474
v 0.314376 -0.045405 -0.050443
v 0.311038 -0.045566 -0.044702
v 0.311577 -0.038753 -0.103298
v 0.313086 -0.060911 -0.170814
v 0.316696 -0.055539 -0.172858
v 0.311345 -0.050678 -0.174199
v 0.309837 -0.028520 -0.106683
v 0.283066 -0.021482 -0.078666
v 0.288416 -0.026343 -0.077325
v 0.284806 -0.031715 -0.075281
v 0.325992 0.028008 -0.090531
v 0.324986 0.084957 -0.133048
v 0.330071 0.088468 -0.129056
v 0.326194 0.091471 -0.124370
v 0.327200 0.034522 -0.081853
v 0.292436 0.010636 -0.062759
v 0.296312 0.007634 -0.067446
v 0.291228 0.004122 -0.071438
v 0.357367 0.036553 -0.025481
v 0.373811 0.094948 0.014312
v 0.379534 0.092102 0.018339
v 0.376297 0.088742 0.023063
v 0.359853 0.030347 -0.016730
v 0.309417 0.005392 -0.028595
v 0.312654 0.008752 -0.033320
v 0.306931 0.011598 -0.037347
v 0.191083 0.019122 0.007346
v 0.476238 0.037641 0.019978
v 0.190775 0.019671 0.010423
v 0.190467 0.020222 0.013505
v -0.094688 0.001703 0.000873
v 0.189525 0.024936 0.009416
v 0.475767 0.039999 0.017936
v 0.190304 0.022029 0.008380
v -0.095159 0.004059 -0.001174
v 0.475460 0.040548 0.021013
v 0.189996 0.022581 0.011463
v -0.095467 0.004610 0.001908
v 0.083306 -0.009482 -0.024947
v 0.262316 -0.019709 -0.046360
v 0.083712 -0.008772 -0.022719
v 0.084117 -0.008060 -0.020485
v -0.094893 0.002167 0.000928
v 0.083074 -0.004904 -0.023902
v 0.261794 -0.018129 -0.048066
v 0.083190 -0.007193 -0.024425
v -0.095414 0.003744 -0.000783
v 0.262199 -0.017420 -0.045838
v 0.083595 -0.006480 -0.022191
v -0.095008 0.004456 0.001451
v 0.030465 -0.037810 0.010079
v 0.156131 -0.076536 0.022807
v 0.030407 -0.037057 0.011883
v 0.030348 -0.036310 0.013691
v -0.095318 0.002415 0.000963
v 0.031046 -0.033927 0.010600
v 0.156480 -0.075347 0.021263
v 0.030755 -0.035869 0.010339
v -0.094969 0.003610 -0.000585
v 0.156422 -0.074594 0.023068
v 0.030697 -0.035121 0.012147
v -0.095028 0.004357 0.001223
v -0.095666 0.018171 -0.046073
v -0.095057 -0.000778 -0.048160
v -0.095619 0.013938 -0.094774
v -0.094454 -0.019081 -0.042829
v -0.094407 -0.023315 -0.091531
v -0.093951 -0.033952 -0.030905
v -0.093301 -0.056488 -0.074276
v -0.093623 -0.043129 -0.014188
v -0.092469 -0.080536 -0.045635
v -0.093520 -0.045215 0.004771
v -0.092039 -0.091799 -0.009958
v -0.093659 -0.039891 0.023087
v -0.092075 -0.088561 0.027317
v -0.094018 -0.027967 0.037963
v -0.092573 -0.071314 0.060509
v -0.094542 -0.011258 0.047146
v -0.093455 -0.042680 0.084568
v -0.095151 0.007692 0.049234
v -0.094589 -0.007022 0.095839
v -0.095754 0.025992 0.043912
v -0.095801 0.030228 0.092605
v -0.096257 0.040865 0.031979
v -0.096907 0.063402 0.075350
v -0.096585 0.050043 0.015262
v -0.097738 0.087453 0.046700
v -0.096688 0.052128 -0.003697
v -0.098169 0.098716 0.011024
v -0.096549 0.046802 -0.022005
v -0.098133 0.095475 -0.026243
v -0.096190 0.034881 -0.036889
v -0.097635 0.078227 -0.059435
v -0.096753 0.049596 -0.083503
v -0.041081 0.054903 -0.086916
v -0.033879 0.065805 -0.082380
v -0.041332 0.062999 -0.080728
v -0.041167 0.057291 -0.091688
v -0.033339 0.048551 -0.092559
v -0.040878 0.048134 -0.095679
v -0.041993 0.084536 -0.061261
v -0.034701 0.092885 -0.052990
v -0.042143 0.089652 -0.052448
v -0.042130 0.088562 -0.064750
v -0.034341 0.080835 -0.068997
v -0.041919 0.081628 -0.071944
v -0.042497 0.102096 -0.026212
v -0.035078 0.106659 -0.015467
v -0.042523 0.103451 -0.016109
v -0.042664 0.107157 -0.027892
v -0.034952 0.101653 -0.034873
v -0.042563 0.103506 -0.037195
v -0.042517 0.104918 0.012892
v -0.034952 0.105035 0.024473
v -0.042414 0.102309 0.022744
v -0.042688 0.110231 0.013279
v -0.035079 0.107830 0.004628
v -0.042712 0.110415 0.003286
v -0.042048 0.092571 0.050106
v -0.034342 0.088265 0.060750
v -0.041833 0.086386 0.058206
v -0.042198 0.097332 0.052492
v -0.034703 0.098437 0.043487
v -0.042344 0.101320 0.043330
v -0.041164 0.066928 0.079747
v -0.033341 0.058892 0.087842
v -0.040869 0.058120 0.084865
v -0.041269 0.070415 0.083775
v -0.033881 0.074890 0.075786
v -0.041515 0.077606 0.076839
v -0.039997 0.031898 0.097314
v -0.032102 0.021390 0.101621
v -0.039668 0.021800 0.098668
v -0.040042 0.033578 0.102378
v -0.032739 0.040786 0.096613
v -0.040350 0.042876 0.098725
v -0.038726 -0.007183 0.100141
v -0.030812 -0.018527 0.099999
v -0.038412 -0.017033 0.097523
v -0.038704 -0.007568 0.105456
v -0.031449 0.001307 0.102796
v -0.039027 0.002416 0.105636
v -0.037545 -0.044380 0.087779
v -0.029669 -0.054788 0.083213
v -0.037294 -0.052476 0.081591
v -0.037459 -0.046762 0.092548
v -0.030209 -0.037534 0.093391
v -0.037748 -0.037605 0.096538
v -0.036633 -0.074007 0.062121
v -0.028846 -0.081868 0.053822
v -0.036483 -0.079124 0.053308
v -0.036496 -0.078034 0.065610
v -0.029207 -0.069818 0.069829
v -0.036707 -0.071100 0.072805
v -0.036129 -0.091573 0.027075
v -0.028470 -0.095642 0.016299
v -0.036103 -0.092927 0.016971
v -0.035962 -0.096626 0.028757
v -0.028596 -0.090636 0.035706
v -0.036063 -0.092974 0.038060
v -0.036109 -0.094395 -0.012029
v -0.028596 -0.094023 -0.023638
v -0.036212 -0.091780 -0.021885
v -0.035938 -0.099707 -0.012415
v -0.028469 -0.096818 -0.003793
v -0.035914 -0.099886 -0.002426
v -0.036578 -0.082047 -0.049242
v -0.029205 -0.077253 -0.059914
v -0.036793 -0.075868 -0.057340
v -0.036428 -0.086808 -0.051629
v -0.028844 -0.087420 -0.042655
v -0.036282 -0.090796 -0.042468
v -0.037463 -0.056399 -0.078886
v -0.030207 -0.047874 -0.087010
v -0.037757 -0.047591 -0.084005
v -0.037357 -0.059886 -0.082915
v -0.029666 -0.063878 -0.074951
v -0.037112 -0.067081 -0.075976
v -0.038629 -0.021369 -0.096454
v -0.031446 -0.010372 -0.100788
v -0.038959 -0.011271 -0.097809
v -0.038584 -0.023054 -0.101515
v -0.030809 -0.029768 -0.095781
v -0.038276 -0.032352 -0.097863
v -0.039900 0.017711 -0.099280
v -0.032736 0.029544 -0.099166
v -0.040214 0.027562 -0.096664
v -0.039922 0.018097 -0.104595
v -0.032099 0.009710 -0.101963
v -0.039599 0.008113 -0.104775
v -0.082338 -0.023148 -0.092089
v -0.072043 -0.014899 -0.094120
v -0.084111 -0.015066 -0.093561
v -0.058205 -0.022625 -0.093061
v -0.071450 -0.032859 -0.088363
v -0.059387 -0.032501 -0.088776
v -0.083557 0.014324 -0.095379
v -0.073261 0.022740 -0.094225
v -0.085323 0.022353 -0.093619
v -0.059437 0.015220 -0.096381
v -0.072656 0.003947 -0.095788
v -0.060597 0.004456 -0.096185
v -0.084698 0.050208 -0.084068
v -0.074362 0.057559 -0.079912
v -0.086417 0.056948 -0.079346
v -0.060589 0.051458 -0.084949
v -0.073836 0.040794 -0.088549
v -0.061781 0.041433 -0.088864
v -0.085587 0.079027 -0.059874
v -0.075178 0.084247 -0.053358
v -0.087226 0.083447 -0.052919
v -0.061486 0.080565 -0.060516
v -0.074810 0.072063 -0.067751
v -0.062758 0.072801 -0.067954
v -0.086088 0.096399 -0.026495
v -0.075583 0.098751 -0.018603
v -0.087628 0.097824 -0.018356
v -0.061992 0.098106 -0.026797
v -0.075430 0.092996 -0.036572
v -0.063379 0.093777 -0.036628
v -0.086125 0.099689 0.010998
v -0.075517 0.098858 0.019056
v -0.087561 0.097885 0.019083
v -0.062030 0.101427 0.011068
v -0.075602 0.100419 0.000254
v -0.063551 0.101184 0.000350
v -0.085693 0.088381 0.046901
v -0.074990 0.084550 0.053896
v -0.087035 0.083621 0.053694
v -0.061593 0.090001 0.047332
v -0.075300 0.093182 0.037122
v -0.063246 0.093873 0.037352
v -0.084857 0.064206 0.075731
v -0.074081 0.058016 0.080592
v -0.086131 0.057209 0.080205
v -0.060749 0.065585 0.076445
v -0.074570 0.072402 0.068404
v -0.062512 0.072973 0.068730
v -0.083745 0.030843 0.093119
v -0.072930 0.023283 0.095108
v -0.084986 0.022660 0.094591
v -0.059626 0.031887 0.093999
v -0.073522 0.041242 0.089351
v -0.061459 0.041664 0.089714
v -0.082525 -0.006627 0.096400
v -0.071711 -0.014359 0.095207
v -0.083775 -0.014754 0.094647
v -0.058394 -0.005960 0.097313
v -0.072317 0.004433 0.096771
v -0.060249 0.004706 0.097123
v -0.081384 -0.042510 0.085090
v -0.070610 -0.049176 0.080900
v -0.082681 -0.049346 0.080379
v -0.057242 -0.042204 0.085884
v -0.071137 -0.032413 0.089532
v -0.059065 -0.032277 0.089805
v -0.080496 -0.071329 0.060895
v -0.069795 -0.075866 0.054340
v -0.081872 -0.075847 0.053945
v -0.056345 -0.071305 0.061449
v -0.070163 -0.063680 0.068740
v -0.058088 -0.063637 0.068898
v -0.079995 -0.088707 0.027519
v -0.069389 -0.090376 0.019588
v -0.081470 -0.090225 0.019383
v -0.055838 -0.088858 0.027735
v -0.069543 -0.084621 0.037557
v -0.057467 -0.084621 0.037568
v -0.079958 -0.091991 -0.009976
v -0.069455 -0.090477 -0.018074
v -0.081537 -0.090285 -0.018055
v -0.055801 -0.092167 -0.010136
v -0.069370 -0.092039 0.000729
v -0.057295 -0.092023 0.000588
v -0.080390 -0.080689 -0.045878
v -0.069983 -0.076179 -0.052908
v -0.082062 -0.076027 -0.052664
v -0.056237 -0.080751 -0.046395
v -0.069672 -0.084806 -0.036137
v -0.057600 -0.084716 -0.036411
v -0.081226 -0.056515 -0.074707
v -0.070891 -0.049635 -0.079610
v -0.082966 -0.049615 -0.079176
v -0.057082 -0.056326 -0.075512
v -0.070403 -0.064026 -0.067418
v -0.058334 -0.063816 -0.067788
v -0.147640 -0.057460 -0.089970
v -0.195610 -0.067366 -0.083412
v -0.189887 -0.057934 -0.088881
v -0.147082 -0.073931 -0.076758
v -0.099082 -0.064991 -0.084221
v -0.092802 -0.072030 -0.076476
v -0.146609 -0.087610 -0.060420
v -0.194675 -0.094406 -0.051161
v -0.188868 -0.087767 -0.059754
v -0.146246 -0.097773 -0.041911
v -0.098141 -0.092216 -0.051634
v -0.091971 -0.095741 -0.041718
v -0.146002 -0.104164 -0.021583
v -0.194192 -0.107049 -0.011012
v -0.188266 -0.104183 -0.021424
v -0.145888 -0.106468 -0.000585
v -0.097655 -0.104903 -0.011109
v -0.091616 -0.104341 -0.000524
v -0.145910 -0.104595 0.020641
v -0.194233 -0.103376 0.030921
v -0.188172 -0.104687 0.020280
v -0.146063 -0.098698 0.040924
v -0.097700 -0.101124 0.031197
v -0.091793 -0.096538 0.040839
v -0.146347 -0.088852 0.059819
v -0.194793 -0.083948 0.068257
v -0.188602 -0.089208 0.059003
v -0.146745 -0.075645 0.076299
v -0.098267 -0.081454 0.068828
v -0.092473 -0.073507 0.076056
v -0.147248 -0.059315 0.089986
v -0.195787 -0.051712 0.095312
v -0.189490 -0.060094 0.088853
v -0.147828 -0.040816 0.100156
v -0.099272 -0.048883 0.096070
v -0.093555 -0.038766 0.099781
v -0.148474 -0.020503 0.106554
v -0.197063 -0.011593 0.107970
v -0.190700 -0.021789 0.105283
v -0.149149 0.000478 0.108863
v -0.100560 -0.008383 0.108768
v -0.094872 0.002403 0.108391
v -0.149840 0.021698 0.106988
v -0.198427 0.030322 0.104295
v -0.192048 0.019888 0.105793
v -0.150507 0.041970 0.101089
v -0.101936 0.033900 0.104990
v -0.096224 0.043738 0.100589
v -0.151137 0.060855 0.091239
v -0.199671 0.067637 0.084859
v -0.193330 0.058590 0.090308
v -0.151694 0.077327 0.078026
v -0.103190 0.071517 0.085309
v -0.097407 0.078941 0.077545
v -0.152167 0.091005 0.061689
v -0.200606 0.094677 0.052607
v -0.194350 0.088423 0.061181
v -0.152531 0.101174 0.043177
v -0.104131 0.098737 0.052725
v -0.098238 0.102651 0.042787
v -0.152775 0.107562 0.022857
v -0.201089 0.107326 0.012469
v -0.194952 0.104853 0.022851
v -0.152888 0.109869 0.001865
v -0.104617 0.111426 0.012206
v -0.098593 0.111260 0.001596
v -0.152867 0.107999 -0.019369
v -0.201048 0.103656 -0.029472
v -0.195045 0.105360 -0.018848
v -0.152713 0.102102 -0.039652
v -0.104572 0.107653 -0.030103
v -0.098417 0.103460 -0.039762
v -0.152429 0.092255 -0.058547
v -0.200487 0.084227 -0.066808
v -0.194616 0.089880 -0.057571
v -0.152032 0.079049 -0.075028
v -0.104005 0.087979 -0.067740
v -0.097736 0.080425 -0.074985
v -0.151529 0.062719 -0.088715
v -0.199494 0.051990 -0.093863
v -0.193728 0.060767 -0.087421
v -0.150948 0.044216 -0.098890
v -0.103000 0.055408 -0.094982
v -0.096654 0.045682 -0.098715
v -0.150302 0.023901 -0.105279
v -0.198218 0.011862 -0.106516
v -0.192518 0.022451 -0.103859
v -0.149627 0.002914 -0.107586
v -0.101712 0.014906 -0.107672
v -0.095337 0.004508 -0.107322
v -0.148937 -0.018303 -0.105719
v -0.196854 -0.030051 -0.102849
v -0.191169 -0.019232 -0.104366
v -0.148269 -0.038575 -0.099820
v -0.100336 -0.027380 -0.103899
v -0.093984 -0.036833 -0.099518
v -0.041698 0.074371 -0.079460
v -0.041447 0.066275 -0.085648
v -0.040513 0.036922 -0.094662
v -0.040802 0.046079 -0.090672
v -0.042457 0.099673 -0.046913
v -0.042308 0.094556 -0.055727
v -0.041577 0.070885 -0.075300
v -0.041789 0.077818 -0.068106
v -0.042738 0.110595 -0.007160
v -0.042712 0.109240 -0.017263
v -0.042297 0.094857 -0.044408
v -0.042398 0.098507 -0.035105
v -0.042497 0.105485 0.033750
v -0.042599 0.108095 0.023898
v -0.042562 0.105189 -0.006694
v -0.042537 0.105004 0.003298
v -0.041771 0.085118 0.069579
v -0.041986 0.091302 0.061478
v -0.042332 0.100309 0.032110
v -0.042186 0.096321 0.041271
v -0.040671 0.052592 0.094896
v -0.040966 0.061400 0.089777
v -0.041643 0.080959 0.066089
v -0.041397 0.073769 0.073026
v -0.039365 0.012857 0.105817
v -0.039694 0.022955 0.104462
v -0.040599 0.050087 0.090077
v -0.040291 0.040790 0.093730
v -0.038050 -0.028030 0.100706
v -0.038364 -0.018179 0.103324
v -0.039360 0.012391 0.100407
v -0.039037 0.002407 0.100227
v -0.036928 -0.063848 0.080323
v -0.037179 -0.055752 0.086512
v -0.038113 -0.026393 0.095522
v -0.037824 -0.035550 0.091532
v -0.036169 -0.089147 0.047782
v -0.036318 -0.084030 0.056595
v -0.037049 -0.060356 0.076160
v -0.036838 -0.067289 0.068965
v -0.035889 -0.100072 0.008022
v -0.035914 -0.098717 0.018126
v -0.036330 -0.084330 0.045276
v -0.036229 -0.087982 0.035974
v -0.036130 -0.094959 -0.032882
v -0.036027 -0.097574 -0.023026
v -0.036065 -0.094660 0.007554
v -0.036089 -0.094480 -0.002435
v -0.036855 -0.074593 -0.068715
v -0.036640 -0.080773 -0.060617
v -0.036294 -0.089780 -0.031250
v -0.036440 -0.085792 -0.040411
v -0.037955 -0.042065 -0.094028
v -0.037660 -0.050873 -0.088909
v -0.036983 -0.070435 -0.065226
v -0.037229 -0.063239 -0.072166
v -0.039262 -0.002328 -0.104956
v -0.038932 -0.012425 -0.103601
v -0.038027 -0.039561 -0.089209
v -0.038335 -0.030263 -0.092861
v -0.040576 0.038556 -0.099838
v -0.040262 0.028706 -0.102455
v -0.039267 -0.001862 -0.099547
v -0.039590 0.008122 -0.099367
v -0.060287 -0.005133 -0.096271
v -0.058513 -0.013216 -0.094799
v -0.083218 -0.042177 -0.085139
v -0.082037 -0.032300 -0.089424
v -0.061502 0.032609 -0.092620
v -0.059736 0.024580 -0.094380
v -0.084413 -0.005914 -0.096227
v -0.083252 0.004850 -0.096423
v -0.062553 0.066084 -0.074799
v -0.060834 0.059343 -0.079521
v -0.085628 0.031828 -0.092576
v -0.084436 0.041853 -0.088660
v -0.063280 0.090189 -0.045521
v -0.061640 0.085769 -0.052476
v -0.086679 0.065303 -0.074755
v -0.085407 0.073066 -0.067316
v -0.063572 0.101270 -0.009244
v -0.062031 0.099844 -0.017383
v -0.087406 0.089408 -0.045477
v -0.086018 0.093737 -0.035646
v -0.063384 0.097623 0.028518
v -0.061948 0.099427 0.020433
v -0.087697 0.100489 -0.009199
v -0.086176 0.100731 0.001518
v -0.062746 0.079814 0.062009
v -0.061403 0.084573 0.055216
v -0.087510 0.096842 0.028562
v -0.085857 0.092970 0.038543
v -0.061754 0.050555 0.086130
v -0.060479 0.057552 0.081656
v -0.086871 0.079032 0.062053
v -0.085109 0.071644 0.069768
v -0.060559 0.014295 0.097209
v -0.059318 0.022478 0.095737
v -0.085880 0.049774 0.086174
v -0.084046 0.039998 0.090459
v -0.059344 -0.023447 0.093558
v -0.058095 -0.015321 0.095312
v -0.084685 0.013514 0.097254
v -0.082830 0.002848 0.097444
v -0.058293 -0.056919 0.075742
v -0.056997 -0.050084 0.080453
v -0.083470 -0.024229 0.093603
v -0.081647 -0.034156 0.089681
v -0.057567 -0.081030 0.046467
v -0.056191 -0.076512 0.053417
v -0.082419 -0.057700 0.075787
v -0.080675 -0.065368 0.068338
v -0.057275 -0.092108 0.010182
v -0.055800 -0.090590 0.018318
v -0.081692 -0.081811 0.046512
v -0.080064 -0.086048 0.036679
v -0.057462 -0.088461 -0.027579
v -0.055883 -0.090168 -0.019501
v -0.081400 -0.092889 0.010227
v -0.079906 -0.093034 -0.000497
v -0.058101 -0.070657 -0.061068
v -0.056428 -0.075319 -0.054281
v -0.081588 -0.089243 -0.027535
v -0.080226 -0.085278 -0.037519
v -0.059092 -0.041396 -0.085184
v -0.057352 -0.048296 -0.080715
v -0.082226 -0.071438 -0.061023
v -0.080974 -0.063947 -0.068747
v -0.237578 -0.076102 -0.075693
v -0.195330 -0.075627 -0.076782
v -0.045105 -0.054077 -0.089933
v -0.099385 -0.055978 -0.090214
v -0.236751 -0.099660 -0.041205
v -0.194493 -0.099503 -0.041871
v -0.044077 -0.084149 -0.060430
v -0.098353 -0.086181 -0.060623
v -0.236398 -0.108233 -0.000324
v -0.194134 -0.108213 -0.000483
v -0.043472 -0.100643 -0.021659
v -0.097744 -0.102769 -0.021720
v -0.236573 -0.100513 0.040735
v -0.194310 -0.100421 0.041096
v -0.043381 -0.101055 0.020480
v -0.097652 -0.103215 0.020565
v -0.237248 -0.077682 0.075710
v -0.194993 -0.077327 0.076525
v -0.043819 -0.085312 0.059570
v -0.098090 -0.087450 0.059813
v -0.238320 -0.043211 0.099283
v -0.196078 -0.042432 0.100416
v -0.044718 -0.055822 0.089659
v -0.098992 -0.057872 0.090034
v -0.239627 -0.002353 0.107857
v -0.197402 -0.001067 0.109127
v -0.045942 -0.017071 0.106164
v -0.100220 -0.018995 0.106636
v -0.240970 0.038681 0.100144
v -0.198762 0.040492 0.101339
v -0.047305 0.025045 0.106574
v -0.101588 0.023277 0.107074
v -0.242144 0.073639 0.077295
v -0.199951 0.075904 0.078227
v -0.048599 0.064115 0.090830
v -0.102887 0.062501 0.091311
v -0.242970 0.097195 0.042815
v -0.200788 0.099777 0.043323
v -0.049627 0.094184 0.061321
v -0.103919 0.092707 0.061711
v -0.243323 0.105772 0.001931
v -0.201146 0.108481 0.001937
v -0.050233 0.110680 0.022556
v -0.104528 0.109290 0.022825
v -0.243149 0.098056 -0.039122
v -0.200971 0.100695 -0.039644
v -0.050324 0.111094 -0.019584
v -0.104620 0.109736 -0.019474
v -0.242474 0.075222 -0.074102
v -0.200288 0.077597 -0.075079
v -0.049886 0.095350 -0.058674
v -0.104182 0.093973 -0.058717
v -0.241402 0.040753 -0.097670
v -0.199202 0.042705 -0.098964
v -0.048987 0.065857 -0.088768
v -0.103280 0.064392 -0.088943
v -0.240094 -0.000109 -0.106255
v -0.197879 0.001341 -0.107675
v -0.047762 0.027108 -0.105267
v -0.102052 0.025515 -0.105531
v -0.238752 -0.041147 -0.098533
v -0.196519 -0.040218 -0.099887
v -0.046399 -0.015009 -0.105683
v -0.100684 -0.016752 -0.105986
v -0.048780 0.059983 -0.079836
v -0.048404 0.047295 -0.098967
v -0.049589 0.086507 -0.052679
v -0.049487 0.082099 -0.075213
v -0.049981 0.100625 -0.017439
v -0.050170 0.105177 -0.039932
v -0.049897 0.100192 0.020529
v -0.050346 0.112997 0.001490
v -0.049349 0.085264 0.055445
v -0.049991 0.104379 0.042755
v -0.048421 0.058124 0.081982
v -0.049159 0.080643 0.077568
v -0.047255 0.022899 0.096100
v -0.047975 0.045384 0.100661
v -0.046027 -0.015048 0.095664
v -0.046620 0.003981 0.108477
v -0.044925 -0.049947 0.080726
v -0.045300 -0.037257 0.099863
v -0.044116 -0.076469 0.053576
v -0.044217 -0.072064 0.076104
v -0.043724 -0.090590 0.018329
v -0.043535 -0.095136 0.040833
v -0.043808 -0.090151 -0.019641
v -0.043358 -0.102962 -0.000599
v -0.044355 -0.075229 -0.054555
v -0.043713 -0.094347 -0.041856
v -0.045283 -0.048086 -0.081085
v -0.044546 -0.070601 -0.076679
v -0.046450 -0.012859 -0.095212
v -0.045730 -0.035351 -0.099762
v -0.047678 0.025089 -0.094777
v -0.047085 0.006060 -0.107589
v -0.094708 -0.014163 -0.094196
v -0.045847 -0.031162 -0.089882
v -0.095924 0.023412 -0.093730
v -0.047068 0.006140 -0.096864
v -0.097015 0.057951 -0.078911
v -0.048256 0.043274 -0.089019
v -0.097815 0.084188 -0.051993
v -0.049230 0.074585 -0.067564
v -0.098202 0.098136 -0.017092
v -0.049842 0.095299 -0.035747
v -0.098118 0.097673 0.020503
v -0.049999 0.102277 0.001570
v -0.097574 0.082864 0.055059
v -0.049677 0.094442 0.038728
v -0.096655 0.055964 0.081313
v -0.048925 0.072997 0.070049
v -0.095500 0.021074 0.095264
v -0.047857 0.041200 0.090777
v -0.094284 -0.016496 0.094796
v -0.046637 0.003901 0.097752
v -0.093193 -0.051035 0.079977
v -0.045449 -0.033238 0.089910
v -0.092393 -0.077274 0.053067
v -0.044475 -0.064545 0.068452
v -0.092006 -0.091220 0.018158
v -0.043862 -0.085267 0.036645
v -0.092090 -0.090757 -0.019438
v -0.043705 -0.092237 -0.000682
v -0.092633 -0.075948 -0.053993
v -0.044027 -0.084407 -0.037837
v -0.093553 -0.049056 -0.080237
v -0.044780 -0.062956 -0.069161
v -0.238137 -0.059577 -0.088947
v -0.190167 -0.049671 -0.095505
v -0.092546 -0.079542 -0.069216
v -0.237116 -0.089462 -0.059779
v -0.189050 -0.082666 -0.069038
v -0.091818 -0.099903 -0.032133
v -0.236512 -0.105914 -0.021384
v -0.188322 -0.103028 -0.031955
v -0.091591 -0.104526 0.009924
v -0.236419 -0.106432 0.020382
v -0.188095 -0.107651 0.010102
v -0.091899 -0.092710 0.050560
v -0.236849 -0.090931 0.059176
v -0.188403 -0.095834 0.050738
v -0.092694 -0.066255 0.083575
v -0.237738 -0.061776 0.089079
v -0.189199 -0.069379 0.083752
v -0.093857 -0.029190 0.103949
v -0.238950 -0.023405 0.105543
v -0.190361 -0.032315 0.104127
v -0.095209 0.012843 0.108572
v -0.240301 0.018342 0.106057
v -0.191714 0.009718 0.108750
v -0.096546 0.053454 0.096760
v -0.241584 0.057111 0.090557
v -0.193050 0.050329 0.096937
v -0.097663 0.086453 0.070285
v -0.242606 0.087000 0.061381
v -0.194167 0.083328 0.070463
v -0.098391 0.106817 0.033207
v -0.243210 0.103456 0.022997
v -0.194895 0.103692 0.033385
v -0.098618 0.111440 -0.008850
v -0.243303 0.103972 -0.018775
v -0.195122 0.108315 -0.008673
v -0.098310 0.099626 -0.049481
v -0.242873 0.088473 -0.057563
v -0.194815 0.096502 -0.049303
v -0.097515 0.073168 -0.082501
v -0.241984 0.059315 -0.087472
v -0.194019 0.070044 -0.082323
v -0.096352 0.036104 -0.102875
v -0.240772 0.020940 -0.103933
v -0.192856 0.032979 -0.102697
v -0.095000 -0.005932 -0.107503
v -0.239421 -0.020805 -0.104455
v -0.191504 -0.009057 -0.107325
v -0.093663 -0.046546 -0.095683
v -0.094106 -0.032467 -0.088865
v -0.095314 0.004463 -0.095818
v -0.096491 0.041242 -0.088094
v -0.097456 0.072266 -0.066877
v -0.098063 0.092810 -0.035400
v -0.098220 0.099758 0.001544
v -0.097902 0.092041 0.038341
v -0.097159 0.070837 0.069381
v -0.096102 0.039375 0.089942
v -0.094894 0.002453 0.096883
v -0.093717 -0.034325 0.089160
v -0.092752 -0.065350 0.067943
v -0.092145 -0.085897 0.036474
v -0.091988 -0.092842 -0.000478
v -0.092306 -0.085125 -0.037276
v -0.093049 -0.063926 -0.068313
f 1 319 321
f 319 2 320
f 320 3 321
f 319 320 321
f 3 322 321
f 322 4 323
f 323 1 321
f 322 323 321
f 5 324 325
f 324 4 322
f 322 3 325
f 324 322 325
f 3 320 325
f 320 2 326
f 326 5 325
f 320 326 325
f 6 327 329
f 327 7 328
f 328 8 329
f 327 328 329
f 8 330 329
f 330 9 331
f 331 6 329
f 330 331 329
f 6 331 333
f 331 9 332
f 332 10 333
f 331 332 333
f 10 334 333
f 334 7 327
f 327 6 333
f 334 327 333
f 11 335 337
f 335 12 336
f 336 13 337
f 335 336 337
f 13 338 337
f 338 14 339
f 339 11 337
f 338 339 337
f 11 339 341
f 339 14 340
f 340 15 341
f 339 340 341
f 15 342 341
f 342 12 335
f 335 11 341
f 342 335 341
f 16 343 345
f 343 17 344
f 344 18 345
f 343 344 345
f 18 346 345
f 346 19 347
f 347 16 345
f 346 347 345
f 16 347 349
f 347 19 348
f 348 20 349
f 347 348 349
f 20 350 349
f 350 17 343
f 343 16 349
f 350 343 349
f 21 351 353
f 351 22 352
f 352 23 353
f 351 352 353
f 23 354 353
f 354 24 355
f 355 21 353
f 354 355 353
f 21 355 357
f 355 24 356
f 356 25 357
f 355 356 357
f 25 358 357
f 358 22 351
f 351 21 357
f 358 351 357
f 26 359 361
f 359 27 360
f 360 28 361
f 359 360 361
f 28 362 361
f 362 29 363
f 363 26 361
f 362 363 361
f 30 364 365
f 364 29 362
f 362 28 365
f 364 362 365
f 28 360 365
f 360 27 366
f 366 30 365
f 360 366 365
f 31 367 369
f 367 32 368
f 368 33 369
f 367 368 369
f 33 370 369
f 370 34 371
f 371 31 369
f 370 371 369
f 31 371 373
f 371 34 372
f 372 35 373
f 371 372 373
f 35 374 373
f 374 32 367
f 367 31 373
f 374 367 373
f 36 375 377
f 375 37 376
f 376 38 377
f 375 376 377
f 38 378 377
f 378 39 379
f 379 36 377
f 378 379 377
f 36 379 381
f 379 39 380
f 380 40 381
f 379 380 381
f 40 382 381
f 382 37 375
f 375 36 381
f 382 375 381
f 41 383 385
f 383 42 384
f 384 43 385
f 383 384 385
f 43 386 385
f 386 44 387
f 387 41 385
f 386 387 385
f 41 387 389
f 387 44 388
f 388 45 389
f 387 388 389
f 45 390 389
f 390 42 383
f 383 41 389
f 390 383 389
f 46 391 393
f 391 47 392
f 392 48 393
f 391 392 393
f 48 394 393
f 394 49 395
f 395 46 393
f 394 395 393
f 46 395 397
f 395 49 396
f 396 50 397
f 395 396 397
f 50 398 397
f 398 47 391
f 391 46 397
f 398 391 397
f 51 399 401
f 399 52 400
f 400 53 401
f 399 400 401
f 53 402 401
f 402 54 403
f 403 51 401
f 402 403 401
f 55 404 405
f 404 54 402
f 402 53 405
f 404 402 405
f 53 400 405
f 400 52 406
f 406 55 405
f 400 406 405
f 56 407 409
f 407 57 408
f 408 58 409
f 407 408 409
f 58 410 409
f 410 59 411
f 411 56 409
f 410 411 409
f 56 411 413
f 411 59 412
f 412 60 413
f 411 412 413
f 60 414 413
f 414 57 407
f 407 56 413
f 414 407 413
f 61 415 417
f 415 62 416
f 416 63 417
f 415 416 417
f 63 418 417
f 418 64 419
f 419 61 417
f 418 419 417
f 61 419 421
f 419 64 420
f 420 65 421
f 419 420 421
f 65 422 421
f 422 62 415
f 415 61 421
f 422 415 421
f 66 423 425
f 423 67 424
f 424 68 425
f 423 424 425
f 68 426 425
f 426 69 427
f 427 66 425
f 426 427 425
f 66 427 429
f 427 69 428
f 428 70 429
f 427 428 429
f 70 430 429
f 430 67 423
f 423 66 429
f 430 423 429
f 71 431 433
f 431 72 432
f 432 73 433
f 431 432 433
f 73 434 433
f 434 74 435
f 435 71 433
f 434 435 433
f 71 435 437
f 435 74 436
f 436 75 437
f 435 436 437
f 75 438 437
f 438 72 431
f 431 71 437
f 438 431 437
f 76 439 441
f 439 77 440
f 440 78 441
f 439 440 441
f 78 442 441
f 442 79 443
f 443 76 441
f 442 443 441
f 80 444 446
f 444 81 445
f 445 77 446
f 444 445 446
f 77 439 446
f 439 76 447
f 447 80 446
f 439 447 446
f 79 442 449
f 442 78 448
f 448 81 449
f 442 448 449
f 81 444 449
f 444 80 450
f 450 79 449
f 444 450 449
f 82 451 453
f 451 83 452
f 452 84 453
f 451 452 453
f 84 454 453
f 454 85 455
f 455 82 453
f 454 455 453
f 86 456 458
f 456 87 457
f 457 83 458
f 456 457 458
f 83 451 458
f 451 82 459
f 459 86 458
f 451 459 458
f 85 454 461
f 454 84 460
f 460 87 461
f 454 460 461
f 87 456 461
f 456 86 462
f 462 85 461
f 456 462 461
f 88 463 465
f 463 89 464
f 464 90 465
f 463 464 465
f 90 466 465
f 466 91 467
f 467 88 465
f 466 467 465
f 92 468 470
f 468 93 469
f 469 89 470
f 468 469 470
f 89 463 470
f 463 88 471
f 471 92 470
f 463 471 470
f 91 466 473
f 466 90 472
f 472 93 473
f 466 472 473
f 93 468 473
f 468 92 474
f 474 91 473
f 468 474 473
f 94 475 477
f 475 95 476
f 476 96 477
f 475 476 477
f 96 476 479
f 476 95 478
f 478 97 479
f 476 478 479
f 97 478 481
f 478 95 480
f 480 98 481
f 478 480 481
f 98 480 483
f 480 95 482
f 482 99 483
f 480 482 483
f 99 482 485
f 482 95 484
f 484 100 485
f 482 484 485
f 100 484 487
f 484 95 486
f 486 101 487
f 484 486 487
f 101 486 489
f 486 95 488
f 488 102 489
f 486 488 489
f 102 488 491
f 488 95 490
f 490 103 491
f 488 490 491
f 103 490 493
f 490 95 492
f 492 104 493
f 490 492 493
f 104 492 495
f 492 95 494
f 494 105 495
f 492 494 495
f 105 494 497
f 494 95 496
f 496 106 497
f 494 496 497
f 106 496 499
f 496 95 498
f 498 107 499
f 496 498 499
f 107 498 501
f 498 95 500
f 500 108 501
f 498 500 501
f 108 500 503
f 500 95 502
f 502 109 503
f 500 502 503
f 109 502 505
f 502 95 504
f 504 110 505
f 502 504 505
f 110 504 506
f 504 95 475
f 475 94 506
f 504 475 506
f 111 507 509
f 507 112 508
f 508 113 509
f 507 508 509
f 114 510 512
f 510 112 511
f 511 115 512
f 510 511 512
f 116 513 515
f 513 117 514
f 514 118 515
f 513 514 515
f 119 516 518
f 516 117 517
f 517 113 518
f 516 517 518
f 120 519 521
f 519 121 520
f 520 122 521
f 519 520 521
f 123 522 524
f 522 121 523
f 523 118 524
f 522 523 524
f 124 525 527
f 525 125 526
f 526 126 527
f 525 526 527
f 127 528 530
f 528 125 529
f 529 122 530
f 528 529 530
f 128 531 533
f 531 129 532
f 532 130 533
f 531 532 533
f 131 534 536
f 534 129 535
f 535 126 536
f 534 535 536
f 132 537 539
f 537 133 538
f 538 134 539
f 537 538 539
f 135 540 542
f 540 133 541
f 541 130 542
f 540 541 542
f 136 543 545
f 543 137 544
f 544 138 545
f 543 544 545
f 139 546 548
f 546 137 547
f 547 134 548
f 546 547 548
f 140 549 551
f 549 141 550
f 550 142 551
f 549 550 551
f 143 552 554
f 552 141 553
f 553 138 554
f 552 553 554
f 144 555 557
f 555 145 556
f 556 146 557
f 555 556 557
f 147 558 560
f 558 145 559
f 559 142 560
f 558 559 560
f 148 561 563
f 561 149 562
f 562 150 563
f 561 562 563
f 151 564 566
f 564 149 565
f 565 146 566
f 564 565 566
f 152 567 569
f 567 153 568
f 568 154 569
f 567 568 569
f 155 570 572
f 570 153 571
f 571 150 572
f 570 571 572
f 156 573 575
f 573 157 574
f 574 158 575
f 573 574 575
f 159 576 578
f 576 157 577
f 577 154 578
f 576 577 578
f 160 579 581
f 579 161 580
f 580 162 581
f 579 580 581
f 163 582 584
f 582 161 583
f 583 158 584
f 582 583 584
f 164 585 587
f 585 165 586
f 586 166 587
f 585 586 587
f 167 588 590
f 588 165 589
f 589 162 590
f 588 589 590
f 168 591 593
f 591 169 592
f 592 170 593
f 591 592 593
f 171 594 596
f 594 169 595
f 595 166 596
f 594 595 596
f 172 597 599
f 597 173 598
f 598 115 599
f 597 598 599
f 174 600 602
f 600 173 601
f 601 170 602
f 600 601 602
f 175 603 605
f 603 176 604
f 604 177 605
f 603 604 605
f 168 606 608
f 606 176 607
f 607 178 608
f 606 607 608
f 179 609 611
f 609 180 610
f 610 181 611
f 609 610 611
f 172 612 614
f 612 180 613
f 613 177 614
f 612 613 614
f 182 615 617
f 615 183 616
f 616 184 617
f 615 616 617
f 111 618 620
f 618 183 619
f 619 181 620
f 618 619 620
f 185 621 623
f 621 186 622
f 622 187 623
f 621 622 623
f 116 624 626
f 624 186 625
f 625 184 626
f 624 625 626
f 188 627 629
f 627 189 628
f 628 190 629
f 627 628 629
f 120 630 632
f 630 189 631
f 631 187 632
f 630 631 632
f 191 633 635
f 633 192 634
f 634 193 635
f 633 634 635
f 124 636 638
f 636 192 637
f 637 190 638
f 636 637 638
f 194 639 641
f 639 195 640
f 640 196 641
f 639 640 641
f 128 642 644
f 642 195 643
f 643 193 644
f 642 643 644
f 197 645 647
f 645 198 646
f 646 199 647
f 645 646 647
f 132 648 650
f 648 198 649
f 649 196 650
f 648 649 650
f 200 651 653
f 651 201 652
f 652 202 653
f 651 652 653
f 136 654 656
f 654 201 655
f 655 199 656
f 654 655 656
f 203 657 659
f 657 204 658
f 658 205 659
f 657 658 659
f 140 660 662
f 660 204 661
f 661 202 662
f 660 661 662
f 206 663 665
f 663 207 664
f 664 208 665
f 663 664 665
f 144 666 668
f 666 207 667
f 667 205 668
f 666 667 668
f 209 669 671
f 669 210 670
f 670 211 671
f 669 670 671
f 148 672 674
f 672 210 673
f 673 208 674
f 672 673 674
f 212 675 677
f 675 213 676
f 676 214 677
f 675 676 677
f 152 678 680
f 678 213 679
f 679 211 680
f 678 679 680
f 215 681 683
f 681 216 682
f 682 217 683
f 681 682 683
f 156 684 686
f 684 216 685
f 685 214 686
f 684 685 686
f 218 687 689
f 687 219 688
f 688 220 689
f 687 688 689
f 160 690 692
f 690 219 691
f 691 217 692
f 690 691 692
f 221 693 695
f 693 222 694
f 694 178 695
f 693 694 695
f 164 696 698
f 696 222 697
f 697 220 698
f 696 697 698
f 223 699 701
f 699 224 700
f 700 225 701
f 699 700 701
f 226 702 704
f 702 224 703
f 703 167 704
f 702 703 704
f 226 705 707
f 705 227 706
f 706 228 707
f 705 706 707
f 229 708 710
f 708 227 709
f 709 163 710
f 708 709 710
f 229 711 713
f 711 230 712
f 712 231 713
f 711 712 713
f 232 714 716
f 714 230 715
f 715 159 716
f 714 715 716
f 232 717 719
f 717 233 718
f 718 234 719
f 717 718 719
f 235 720 722
f 720 233 721
f 721 155 722
f 720 721 722
f 235 723 725
f 723 236 724
f 724 237 725
f 723 724 725
f 238 726 728
f 726 236 727
f 727 151 728
f 726 727 728
f 238 729 731
f 729 239 730
f 730 240 731
f 729 730 731
f 241 732 734
f 732 239 733
f 733 147 734
f 732 733 734
f 241 735 737
f 735 242 736
f 736 243 737
f 735 736 737
f 244 738 740
f 738 242 739
f 739 143 740
f 738 739 740
f 244 741 743
f 741 245 742
f 742 246 743
f 741 742 743
f 247 744 746
f 744 245 745
f 745 139 746
f 744 745 746
f 247 747 749
f 747 248 748
f 748 249 749
f 747 748 749
f 250 750 752
f 750 248 751
f 751 135 752
f 750 751 752
f 250 753 755
f 753 251 754
f 754 252 755
f 753 754 755
f 253 756 758
f 756 251 757
f 757 131 758
f 756 757 758
f 253 759 761
f 759 254 760
f 760 255 761
f 759 760 761
f 256 762 764
f 762 254 763
f 763 127 764
f 762 763 764
f 256 765 767
f 765 257 766
f 766 258 767
f 765 766 767
f 259 768 770
f 768 257 769
f 769 123 770
f 768 769 770
f 259 771 773
f 771 260 772
f 772 261 773
f 771 772 773
f 262 774 776
f 774 260 775
f 775 119 776
f 774 775 776
f 262 777 779
f 777 263 778
f 778 264 779
f 777 778 779
f 265 780 782
f 780 263 781
f 781 114 782
f 780 781 782
f 265 783 785
f 783 266 784
f 784 267 785
f 783 784 785
f 268 786 788
f 786 266 787
f 787 174 788
f 786 787 788
f 268 789 791
f 789 269 790
f 790 270 791
f 789 790 791
f 223 792 794
f 792 269 793
f 793 171 794
f 792 793 794
f 271 795 796
f 795 113 508
f 508 112 796
f 795 508 796
f 272 797 798
f 797 115 511
f 511 112 798
f 797 511 798
f 273 799 800
f 799 118 514
f 514 117 800
f 799 514 800
f 274 801 802
f 801 113 517
f 517 117 802
f 801 517 802
f 275 803 804
f 803 122 520
f 520 121 804
f 803 520 804
f 276 805 806
f 805 118 523
f 523 121 806
f 805 523 806
f 277 807 808
f 807 126 526
f 526 125 808
f 807 526 808
f 278 809 810
f 809 122 529
f 529 125 810
f 809 529 810
f 279 811 812
f 811 130 532
f 532 129 812
f 811 532 812
f 280 813 814
f 813 126 535
f 535 129 814
f 813 535 814
f 281 815 816
f 815 134 538
f 538 133 816
f 815 538 816
f 282 817 818
f 817 130 541
f 541 133 818
f 817 541 818
f 283 819 820
f 819 138 544
f 544 137 820
f 819 544 820
f 284 821 822
f 821 134 547
f 547 137 822
f 821 547 822
f 285 823 824
f 823 142 550
f 550 141 824
f 823 550 824
f 286 825 826
f 825 138 553
f 553 141 826
f 825 553 826
f 287 827 828
f 827 146 556
f 556 145 828
f 827 556 828
f 288 829 830
f 829 142 559
f 559 145 830
f 829 559 830
f 289 831 832
f 831 150 562
f 562 149 832
f 831 562 832
f 290 833 834
f 833 146 565
f 565 149 834
f 833 565 834
f 291 835 836
f 835 154 568
f 568 153 836
f 835 568 836
f 292 837 838
f 837 150 571
f 571 153 838
f 837 571 838
f 293 839 840
f 839 158 574
f 574 157 840
f 839 574 840
f 294 841 842
f 841 154 577
f 577 157 842
f 841 577 842
f 295 843 844
f 843 162 580
f 580 161 844
f 843 580 844
f 296 845 846
f 845 158 583
f 583 161 846
f 845 583 846
f 297 847 848
f 847 166 586
f 586 165 848
f 847 586 848
f 298 849 850
f 849 162 589
f 589 165 850
f 849 589 850
f 299 851 852
f 851 170 592
f 592 169 852
f 851 592 852
f 300 853 854
f 853 166 595
f 595 169 854
f 853 595 854
f 301 855 856
f 855 115 598
f 598 173 856
f 855 598 856
f 302 857 858
f 857 170 601
f 601 173 858
f 857 601 858
f 302 859 860
f 859 177 604
f 604 176 860
f 859 604 860
f 97 861 862
f 861 178 607
f 607 176 862
f 861 607 862
f 272 863 864
f 863 181 610
f 610 180 864
f 863 610 864
f 96 865 866
f 865 177 613
f 613 180 866
f 865 613 866
f 274 867 868
f 867 184 616
f 616 183 868
f 867 616 868
f 94 869 870
f 869 181 619
f 619 183 870
f 869 619 870
f 276 871 872
f 871 187 622
f 622 186 872
f 871 622 872
f 110 873 874
f 873 184 625
f 625 186 874
f 873 625 874
f 278 875 876
f 875 190 628
f 628 189 876
f 875 628 876
f 109 877 878
f 877 187 631
f 631 189 878
f 877 631 878
f 280 879 880
f 879 193 634
f 634 192 880
f 879 634 880
f 108 881 882
f 881 190 637
f 637 192 882
f 881 637 882
f 282 883 884
f 883 196 640
f 640 195 884
f 883 640 884
f 107 885 886
f 885 193 643
f 643 195 886
f 885 643 886
f 284 887 888
f 887 199 646
f 646 198 888
f 887 646 888
f 106 889 890
f 889 196 649
f 649 198 890
f 889 649 890
f 286 891 892
f 891 202 652
f 652 201 892
f 891 652 892
f 105 893 894
f 893 199 655
f 655 201 894
f 893 655 894
f 288 895 896
f 895 205 658
f 658 204 896
f 895 658 896
f 104 897 898
f 897 202 661
f 661 204 898
f 897 661 898
f 290 899 900
f 899 208 664
f 664 207 900
f 899 664 900
f 103 901 902
f 901 205 667
f 667 207 902
f 901 667 902
f 292 903 904
f 903 211 670
f 670 210 904
f 903 670 904
f 102 905 906
f 905 208 673
f 673 210 906
f 905 673 906
f 294 907 908
f 907 214 676
f 676 213 908
f 907 676 908
f 101 909 910
f 909 211 679
f 679 213 910
f 909 679 910
f 296 911 912
f 911 217 682
f 682 216 912
f 911 682 912
f 100 913 914
f 913 214 685
f 685 216 914
f 913 685 914
f 298 915 916
f 915 220 688
f 688 219 916
f 915 688 916
f 99 917 918
f 917 217 691
f 691 219 918
f 917 691 918
f 300 919 920
f 919 178 694
f 694 222 920
f 919 694 920
f 98 921 922
f 921 220 697
f 697 222 922
f 921 697 922
f 303 923 924
f 923 225 700
f 700 224 924
f 923 700 924
f 297 925 926
f 925 167 703
f 703 224 926
f 925 703 926
f 304 927 928
f 927 228 706
f 706 227 928
f 927 706 928
f 295 929 930
f 929 163 709
f 709 227 930
f 929 709 930
f 305 931 932
f 931 231 712
f 712 230 932
f 931 712 932
f 293 933 934
f 933 159 715
f 715 230 934
f 933 715 934
f 306 935 936
f 935 234 718
f 718 233 936
f 935 718 936
f 291 937 938
f 937 155 721
f 721 233 938
f 937 721 938
f 307 939 940
f 939 237 724
f 724 236 940
f 939 724 940
f 289 941 942
f 941 151 727
f 727 236 942
f 941 727 942
f 308 943 944
f 943 240 730
f 730 239 944
f 943 730 944
f 287 945 946
f 945 147 733
f 733 239 946
f 945 733 946
f 309 947 948
f 947 243 736
f 736 242 948
f 947 736 948
f 285 949 950
f 949 143 739
f 739 242 950
f 949 739 950
f 310 951 952
f 951 246 742
f 742 245 952
f 951 742 952
f 283 953 954
f 953 139 745
f 745 245 954
f 953 745 954
f 311 955 956
f 955 249 748
f 748 248 956
f 955 748 956
f 281 957 958
f 957 135 751
f 751 248 958
f 957 751 958
f 312 959 960
f 959 252 754
f 754 251 960
f 959 754 960
f 279 961 962
f 961 131 757
f 757 251 962
f 961 757 962
f 313 963 964
f 963 255 760
f 760 254 964
f 963 760 964
f 277 965 966
f 965 127 763
f 763 254 966
f 965 763 966
f 314 967 968
f 967 258 766
f 766 257 968
f 967 766 968
f 275 969 970
f 969 123 769
f 769 257 970
f 969 769 970
f 315 971 972
f 971 261 772
f 772 260 972
f 971 772 972
f 273 973 974
f 973 119 775
f 775 260 974
f 973 775 974
f 316 975 976
f 975 264 778
f 778 263 976
f 975 778 976
f 271 977 978
f 977 114 781
f 781 263 978
f 977 781 978
f 317 979 980
f 979 267 784
f 784 266 980
f 979 784 980
f 301 981 982
f 981 174 787
f 787 266 982
f 981 787 982
f 318 983 984
f 983 270 790
f 790 269 984
f 983 790 984
f 299 985 986
f 985 171 793
f 793 269 986
f 985 793 986
f 113 801 509
f 801 274 987
f 987 111 509
f 801 987 509
f 115 855 512
f 855 301 988
f 988 114 512
f 855 988 512
f 118 805 515
f 805 276 989
f 989 116 515
f 805 989 515
f 113 795 518
f 795 271 990
f 990 119 518
f 795 990 518
f 122 809 521
f 809 278 991
f 991 120 521
f 809 991 521
f 118 799 524
f 799 273 992
f 992 123 524
f 799 992 524
f 126 813 527
f 813 280 993
f 993 124 527
f 813 993 527
f 122 803 530
f 803 275 994
f 994 127 530
f 803 994 530
f 130 817 533
f 817 282 995
f 995 128 533
f 817 995 533
f 126 807 536
f 807 277 996
f 996 131 536
f 807 996 536
f 134 821 539
f 821 284 997
f 997 132 539
f 821 997 539
f 130 811 542
f 811 279 998
f 998 135 542
f 811 998 542
f 138 825 545
f 825 286 999
f 999 136 545
f 825 999 545
f 134 815 548
f 815 281 1000
f 1000 139 548
f 815 1000 548
f 142 829 551
f 829 288 1001
f 1001 140 551
f 829 1001 551
f 138 819 554
f 819 283 1002
f 1002 143 554
f 819 1002 554
f 146 833 557
f 833 290 1003
f 1003 144 557
f 833 1003 557
f 142 823 560
f 823 285 1004
f 1004 147 560
f 823 1004 560
f 150 837 563
f 837 292 1005
f 1005 148 563
f 837 1005 563
f 146 827 566
f 827 287 1006
f 1006 151 566
f 827 1006 566
f 154 841 569
f 841 294 1007
f 1007 152 569
f 841 1007 569
f 150 831 572
f 831 289 1008
f 1008 155 572
f 831 1008 572
f 158 845 575
f 845 296 1009
f 1009 156 575
f 845 1009 575
f 154 835 578
f 835 291 1010
f 1010 159 578
f 835 1010 578
f 162 849 581
f 849 298 1011
f 1011 160 581
f 849 1011 581
f 158 839 584
f 839 293 1012
f 1012 163 584
f 839 1012 584
f 166 853 587
f 853 300 1013
f 1013 164 587
f 853 1013 587
f 162 843 590
f 843 295 1014
f 1014 167 590
f 843 1014 590
f 170 857 593
f 857 302 1015
f 1015 168 593
f 857 1015 593
f 166 847 596
f 847 297 1016
f 1016 171 596
f 847 1016 596
f 115 797 599
f 797 272 1017
f 1017 172 599
f 797 1017 599
f 170 851 602
f 851 299 1018
f 1018 174 602
f 851 1018 602
f 177 865 605
f 865 96 1019
f 1019 175 605
f 865 1019 605
f 178 919 608
f 919 300 1020
f 1020 168 608
f 919 1020 608
f 181 869 611
f 869 94 1021
f 1021 179 611
f 869 1021 611
f 177 859 614
f 859 302 1022
f 1022 172 614
f 859 1022 614
f 184 873 617
f 873 110 1023
f 1023 182 617
f 873 1023 617
f 181 863 620
f 863 272 1024
f 1024 111 620
f 863 1024 620
f 187 877 623
f 877 109 1025
f 1025 185 623
f 877 1025 623
f 184 867 626
f 867 274 1026
f 1026 116 626
f 867 1026 626
f 190 881 629
f 881 108 1027
f 1027 188 629
f 881 1027 629
f 187 871 632
f 871 276 1028
f 1028 120 632
f 871 1028 632
f 193 885 635
f 885 107 1029
f 1029 191 635
f 885 1029 635
f 190 875 638
f 875 278 1030
f 1030 124 638
f 875 1030 638
f 196 889 641
f 889 106 1031
f 1031 194 641
f 889 1031 641
f 193 879 644
f 879 280 1032
f 1032 128 644
f 879 1032 644
f 199 893 647
f 893 105 1033
f 1033 197 647
f 893 1033 647
f 196 883 650
f 883 282 1034
f 1034 132 650
f 883 1034 650
f 202 897 653
f 897 104 1035
f 1035 200 653
f 897 1035 653
f 199 887 656
f 887 284 1036
f 1036 136 656
f 887 1036 656
f 205 901 659
f 901 103 1037
f 1037 203 659
f 901 1037 659
f 202 891 662
f 891 286 1038
f 1038 140 662
f 891 1038 662
f 208 905 665
f 905 102 1039
f 1039 206 665
f 905 1039 665
f 205 895 668
f 895 288 1040
f 1040 144 668
f 895 1040 668
f 211 909 671
f 909 101 1041
f 1041 209 671
f 909 1041 671
f 208 899 674
f 899 290 1042
f 1042 148 674
f 899 1042 674
f 214 913 677
f 913 100 1043
f 1043 212 677
f 913 1043 677
f 211 903 680
f 903 292 1044
f 1044 152 680
f 903 1044 680
f 217 917 683
f 917 99 1045
f 1045 215 683
f 917 1045 683
f 214 907 686
f 907 294 1046
f 1046 156 686
f 907 1046 686
f 220 921 689
f 921 98 1047
f 1047 218 689
f 921 1047 689
f 217 911 692
f 911 296 1048
f 1048 160 692
f 911 1048 692
f 178 861 695
f 861 97 1049
f 1049 221 695
f 861 1049 695
f 220 915 698
f 915 298 1050
f 1050 164 698
f 915 1050 698
f 225 1051 701
f 1051 318 1052
f 1052 223 701
f 1051 1052 701
f 167 1014 704
f 1014 295 1053
f 1053 226 704
f 1014 1053 704
f 228 1054 707
f 1054 303 1055
f 1055 226 707
f 1054 1055 707
f 163 1012 710
f 1012 293 1056
f 1056 229 710
f 1012 1056 710
f 231 1057 713
f 1057 304 1058
f 1058 229 713
f 1057 1058 713
f 159 1010 716
f 1010 291 1059
f 1059 232 716
f 1010 1059 716
f 234 1060 719
f 1060 305 1061
f 1061 232 719
f 1060 1061 719
f 155 1008 722
f 1008 289 1062
f 1062 235 722
f 1008 1062 722
f 237 1063 725
f 1063 306 1064
f 1064 235 725
f 1063 1064 725
f 151 1006 728
f 1006 287 1065
f 1065 238 728
f 1006 1065 728
f 240 1066 731
f 1066 307 1067
f 1067 238 731
f 1066 1067 731
f 147 1004 734
f 1004 285 1068
f 1068 241 734
f 1004 1068 734
f 243 1069 737
f 1069 308 1070
f 1070 241 737
f 1069 1070 737
f 143 1002 740
f 1002 283 1071
f 1071 244 740
f 1002 1071 740
f 246 1072 743
f 1072 309 1073
f 1073 244 743
f 1072 1073 743
f 139 1000 746
f 1000 281 1074
f 1074 247 746
f 1000 1074 746
f 249 1075 749
f 1075 310 1076
f 1076 247 749
f 1075 1076 749
f 135 998 752
f 998 279 1077
f 1077 250 752
f 998 1077 752
f 252 1078 755
f 1078 311 1079
f 1079 250 755
f 1078 1079 755
f 131 996 758
f 996 277 1080
f 1080 253 758
f 996 1080 758
f 255 1081 761
f 1081 312 1082
f 1082 253 761
f 1081 1082 761
f 127 994 764
f 994 275 1083
f 1083 256 764
f 994 1083 764
f 258 1084 767
f 1084 313 1085
f 1085 256 767
f 1084 1085 767
f 123 992 770
f 992 273 1086
f 1086 259 770
f 992 1086 770
f 261 1087 773
f 1087 314 1088
f 1088 259 773
f 1087 1088 773
f 119 990 776
f 990 271 1089
f 1089 262 776
f 990 1089 776
f 264 1090 779
f 1090 315 1091
f 1091 262 779
f 1090 1091 779
f 114 988 782
f 988 301 1092
f 1092 265 782
f 988 1092 782
f 267 1093 785
f 1093 316 1094
f 1094 265 785
f 1093 1094 785
f 174 1018 788
f 1018 299 1095
f 1095 268 788
f 1018 1095 788
f 270 1096 791
f 1096 317 1097
f 1097 268 791
f 1096 1097 791
f 171 1016 794
f 1016 297 1098
f 1098 223 794
f 1016 1098 794
f 112 507 798
f 507 111 1024
f 1024 272 798
f 507 1024 798
f 112 510 796
f 510 114 977
f 977 271 796
f 510 977 796
f 117 513 802
f 513 116 1026
f 1026 274 802
f 513 1026 802
f 117 516 800
f 516 119 973
f 973 273 800
f 516 973 800
f 121 519 806
f 519 120 1028
f 1028 276 806
f 519 1028 806
f 121 522 804
f 522 123 969
f 969 275 804
f 522 969 804
f 125 525 810
f 525 124 1030
f 1030 278 810
f 525 1030 810
f 125 528 808
f 528 127 965
f 965 277 808
f 528 965 808
f 129 531 814
f 531 128 1032
f 1032 280 814
f 531 1032 814
f 129 534 812
f 534 131 961
f 961 279 812
f 534 961 812
f 133 537 818
f 537 132 1034
f 1034 282 818
f 537 1034 818
f 133 540 816
f 540 135 957
f 957 281 816
f 540 957 816
f 137 543 822
f 543 136 1036
f 1036 284 822
f 543 1036 822
f 137 546 820
f 546 139 953
f 953 283 820
f 546 953 820
f 141 549 826
f 549 140 1038
f 1038 286 826
f 549 1038 826
f 141 552 824
f 552 143 949
f 949 285 824
f 552 949 824
f 145 555 830
f 555 144 1040
f 1040 288 830
f 555 1040 830
f 145 558 828
f 558 147 945
f 945 287 828
f 558 945 828
f 149 561 834
f 561 148 1042
f 1042 290 834
f 561 1042 834
f 149 564 832
f 564 151 941
f 941 289 832
f 564 941 832
f 153 567 838
f 567 152 1044
f 1044 292 838
f 567 1044 838
f 153 570 836
f 570 155 937
f 937 291 836
f 570 937 836
f 157 573 842
f 573 156 1046
f 1046 294 842
f 573 1046 842
f 157 576 840
f 576 159 933
f 933 293 840
f 576 933 840
f 161 579 846
f 579 160 1048
f 1048 296 846
f 579 1048 846
f 161 582 844
f 582 163 929
f 929 295 844
f 582 929 844
f 165 585 850
f 585 164 1050
f 1050 298 850
f 585 1050 850
f 165 588 848
f 588 167 925
f 925 297 848
f 588 925 848
f 169 591 854
f 591 168 1020
f 1020 300 854
f 591 1020 854
f 169 594 852
f 594 171 985
f 985 299 852
f 594 985 852
f 173 597 858
f 597 172 1022
f 1022 302 858
f 597 1022 858
f 173 600 856
f 600 174 981
f 981 301 856
f 600 981 856
f 176 603 862
f 603 175 1099
f 1099 97 862
f 603 1099 862
f 176 606 860
f 606 168 1015
f 1015 302 860
f 606 1015 860
f 180 609 866
f 609 179 1100
f 1100 96 866
f 609 1100 866
f 180 612 864
f 612 172 1017
f 1017 272 864
f 612 1017 864
f 183 615 870
f 615 182 1101
f 1101 94 870
f 615 1101 870
f 183 618 868
f 618 111 987
f 987 274 868
f 618 987 868
f 186 621 874
f 621 185 1102
f 1102 110 874
f 621 1102 874
f 186 624 872
f 624 116 989
f 989 276 872
f 624 989 872
f 189 627 878
f 627 188 1103
f 1103 109 878
f 627 1103 878
f 189 630 876
f 630 120 991
f 991 278 876
f 630 991 876
f 192 633 882
f 633 191 1104
f 1104 108 882
f 633 1104 882
f 192 636 880
f 636 124 993
f 993 280 880
f 636 993 880
f 195 639 886
f 639 194 1105
f 1105 107 886
f 639 1105 886
f 195 642 884
f 642 128 995
f 995 282 884
f 642 995 884
f 198 645 890
f 645 197 1106
f 1106 106 890
f 645 1106 890
f 198 648 888
f 648 132 997
f 997 284 888
f 648 997 888
f 201 651 894
f 651 200 1107
f 1107 105 894
f 651 1107 894
f 201 654 892
f 654 136 999
f 999 286 892
f 654 999 892
f 204 657 898
f 657 203 1108
f 1108 104 898
f 657 1108 898
f 204 660 896
f 660 140 1001
f 1001 288 896
f 660 1001 896
f 207 663 902
f 663 206 1109
f 1109 103 902
f 663 1109 902
f 207 666 900
f 666 144 1003
f 1003 290 900
f 666 1003 900
f 210 669 906
f 669 209 1110
f 1110 102 906
f 669 1110 906
f 210 672 904
f 672 148 1005
f 1005 292 904
f 672 1005 904
f 213 675 910
f 675 212 1111
f 1111 101 910
f 675 1111 910
f 213 678 908
f 678 152 1007
f 1007 294 908
f 678 1007 908
f 216 681 914
f 681 215 1112
f 1112 100 914
f 681 1112 914
f 216 684 912
f 684 156 1009
f 1009 296 912
f 684 1009 912
f 219 687 918
f 687 218 1113
f 1113 99 918
f 687 1113 918
f 219 690 916
f 690 160 1011
f 1011 298 916
f 690 1011 916
f 222 693 922
f 693 221 1114
f 1114 98 922
f 693 1114 922
f 222 696 920
f 696 164 1013
f 1013 300 920
f 696 1013 920
f 224 699 926
f 699 223 1098
f 1098 297 926
f 699 1098 926
f 224 702 924
f 702 226 1055
f 1055 303 924
f 702 1055 924
f 227 705 930
f 705 226 1053
f 1053 295 930
f 705 1053 930
f 227 708 928
f 708 229 1058
f 1058 304 928
f 708 1058 928
f 230 711 934
f 711 229 1056
f 1056 293 934
f 711 1056 934
f 230 714 932
f 714 232 1061
f 1061 305 932
f 714 1061 932
f 233 717 938
f 717 232 1059
f 1059 291 938
f 717 1059 938
f 233 720 936
f 720 235 1064
f 1064 306 936
f 720 1064 936
f 236 723 942
f 723 235 1062
f 1062 289 942
f 723 1062 942
f 236 726 940
f 726 238 1067
f 1067 307 940
f 726 1067 940
f 239 729 946
f 729 238 1065
f 1065 287 946
f 729 1065 946
f 239 732 944
f 732 241 1070
f 1070 308 944
f 732 1070 944
f 242 735 950
f 735 241 1068
f 1068 285 950
f 735 1068 950
f 242 738 948
f 738 244 1073
f 1073 309 948
f 738 1073 948
f 245 741 954
f 741 244 1071
f 1071 283 954
f 741 1071 954
f 245 744 952
f 744 247 1076
f 1076 310 952
f 744 1076 952
f 248 747 958
f 747 247 1074
f 1074 281 958
f 747 1074 958
f 248 750 956
f 750 250 1079
f 1079 311 956
f 750 1079 956
f 251 753 962
f 753 250 1077
f 1077 279 962
f 753 1077 962
f 251 756 960
f 756 253 1082
f 1082 312 960
f 756 1082 960
f 254 759 966
f 759 253 1080
f 1080 277 966
f 759 1080 966
f 254 762 964
f 762 256 1085
f 1085 313 964
f 762 1085 964
f 257 765 970
f 765 256 1083
f 1083 275 970
f 765 1083 970
f 257 768 968
f 768 259 1088
f 1088 314 968
f 768 1088 968
f 260 771 974
f 771 259 1086
f 1086 273 974
f 771 1086 974
f 260 774 972
f 774 262 1091
f 1091 315 972
f 774 1091 972
f 263 777 978
f 777 262 1089
f 1089 271 978
f 777 1089 978
f 263 780 976
f 780 265 1094
f 1094 316 976
f 780 1094 976
f 266 783 982
f 783 265 1092
f 1092 301 982
f 783 1092 982
f 266 786 980
f 786 268 1097
f 1097 317 980
f 786 1097 980
f 269 789 986
f 789 268 1095
f 1095 299 986
f 789 1095 986
f 269 792 984
f 792 223 1052
f 1052 318 984
f 792 1052 984
