# Original shape: m1427.obj
# No processing applied - exact copy of source file
# Generated on 2025-10-13 17:14:13

v 0.025722 0.043780 0.103300
v 0.025000 0.025000 0.103300
v 0.119480 0.043780 0.127281
v 0.119480 0.025000 0.125403
v 0.230284 0.043780 0.147217
v 0.230284 0.025000 0.145484
v 0.296738 0.043780 0.162241
v 0.296738 0.025000 0.155307
v 0.388040 0.043780 0.168453
v 0.388040 0.025000 0.165709
v 0.479342 0.043780 0.170620
v 0.479342 0.025000 0.170620
v 0.616583 0.042480 0.171198
v 0.616583 0.025000 0.171198
v 0.734466 0.041469 0.162241
v 0.734466 0.025000 0.162241
v 0.856972 0.042480 0.140427
v 0.856972 0.025000 0.140427
v 0.963154 0.043780 0.107489
v 0.966477 0.025000 0.107489
v 0.026156 0.052304 0.103300
v 0.119480 0.052304 0.129159
v 0.230284 0.052304 0.148806
v 0.026445 0.062128 0.103300
v 0.119480 0.062128 0.131759
v 0.213238 0.062128 0.152707
v 0.278536 0.052304 0.162241
v 0.974133 0.028467 0.103300
v 0.971533 0.025000 0.103300
v 0.975000 0.033379 0.103300
v 0.969655 0.043780 0.103300
v 0.119480 0.043780 0.079319
v 0.119480 0.025000 0.081197
v 0.230284 0.043780 0.059383
v 0.230284 0.025000 0.061116
v 0.296738 0.043780 0.044358
v 0.296738 0.025000 0.051293
v 0.388040 0.043781 0.038146
v 0.388040 0.025000 0.040891
v 0.479342 0.043781 0.035979
v 0.479342 0.025000 0.035979
v 0.616583 0.042480 0.035402
v 0.616583 0.025000 0.035401
v 0.734466 0.041469 0.044358
v 0.734466 0.025000 0.044358
v 0.856972 0.042480 0.066172
v 0.856972 0.025000 0.066172
v 0.963154 0.043780 0.099110
v 0.966477 0.025000 0.099110
v 0.119480 0.052304 0.077441
v 0.230284 0.052304 0.057793
v 0.119480 0.062128 0.074840
v 0.213238 0.062128 0.053893
v 0.278536 0.052304 0.044358
v 0.388040 0.052304 0.168453
v 0.479342 0.052304 0.035979
v 0.388040 0.052304 0.038146
v 0.479342 0.052304 0.170620
v 0.616583 0.052304 0.035402
v 0.616583 0.052304 0.171198
v 0.322742 0.052304 0.131037
v 0.322742 0.062128 0.131037
v 0.322742 0.062128 0.075563
v 0.322742 0.052304 0.075563
v 0.241697 0.067328 0.119624
v 0.232162 0.067328 0.110090
v 0.248487 0.067328 0.103300
v 0.264234 0.067328 0.119624
v 0.273768 0.067328 0.110090
v 0.273768 0.067328 0.096510
v 0.264234 0.067328 0.086975
v 0.241697 0.067328 0.086975
v 0.232162 0.067328 0.096510
v 0.234907 0.074118 0.110090
v 0.246753 0.076863 0.119624
v 0.264234 0.076863 0.119624
v 0.273768 0.076863 0.110090
v 0.273768 0.076863 0.096510
v 0.264234 0.076863 0.086975
v 0.246753 0.076863 0.086975
v 0.234907 0.074118 0.096510
v 0.231151 0.067328 0.110523
v 0.231151 0.043780 0.110523
v 0.241264 0.043780 0.120780
v 0.241264 0.067328 0.120780
v 0.255710 0.043780 0.120780
v 0.255710 0.067328 0.120780
v 0.265967 0.043780 0.110523
v 0.265967 0.067328 0.110523
v 0.265967 0.043780 0.096077
v 0.265967 0.067328 0.096077
v 0.255710 0.043780 0.085820
v 0.255710 0.067328 0.085820
v 0.241264 0.043780 0.085820
v 0.241264 0.067328 0.085820
v 0.231151 0.043780 0.096077
v 0.231151 0.067328 0.096077
v 0.196624 0.070506 0.099688
v 0.236352 0.070073 0.100122
v 0.236352 0.072962 0.100122
v 0.196624 0.072529 0.099688
v 0.236352 0.072962 0.097232
v 0.196624 0.072529 0.097666
v 0.236352 0.070073 0.097232
v 0.196624 0.070506 0.097666
v 0.196624 0.070506 0.108934
v 0.236352 0.070073 0.109367
v 0.236352 0.072962 0.109367
v 0.196624 0.072529 0.108934
v 0.236352 0.072962 0.106478
v 0.196624 0.072529 0.106912
v 0.236352 0.070073 0.106478
v 0.196624 0.070506 0.106912
v 0.722909 0.059672 0.086975
v 0.732444 0.059672 0.096510
v 0.716119 0.059672 0.103300
v 0.700373 0.059672 0.086975
v 0.690838 0.059672 0.096510
v 0.690838 0.059672 0.110090
v 0.700373 0.059672 0.119624
v 0.722909 0.059672 0.119624
v 0.732444 0.059672 0.110090
v 0.729699 0.066462 0.096510
v 0.717853 0.069206 0.086975
v 0.700373 0.069206 0.086975
v 0.690838 0.069206 0.096510
v 0.690838 0.069206 0.110090
v 0.700373 0.069206 0.119624
v 0.717853 0.069206 0.119624
v 0.729699 0.066461 0.110090
v 0.733599 0.059672 0.096077
v 0.733599 0.036124 0.096077
v 0.723342 0.036124 0.085820
v 0.723342 0.059672 0.085820
v 0.708896 0.036124 0.085820
v 0.708896 0.059672 0.085820
v 0.698783 0.036124 0.096077
v 0.698783 0.059672 0.096077
v 0.698783 0.036124 0.110523
v 0.698783 0.059672 0.110523
v 0.708896 0.036124 0.120780
v 0.708896 0.059672 0.120780
v 0.723342 0.036124 0.120780
v 0.723342 0.059672 0.120780
v 0.733599 0.036124 0.110523
v 0.733599 0.059672 0.110523
v 0.767982 0.062850 0.106912
v 0.728399 0.062416 0.106478
v 0.728399 0.065306 0.106478
v 0.767982 0.064872 0.106912
v 0.728399 0.065306 0.109367
v 0.767982 0.064872 0.108934
v 0.728399 0.062416 0.109367
v 0.767982 0.062850 0.108934
v 0.767982 0.062850 0.097666
v 0.728399 0.062416 0.097232
v 0.728399 0.065306 0.097232
v 0.767982 0.064872 0.097666
v 0.728399 0.065306 0.100122
v 0.767982 0.064872 0.099688
v 0.728399 0.062416 0.100122
v 0.767982 0.062850 0.099688
v 0.774772 0.045514 0.086975
v 0.784307 0.045514 0.096510
v 0.767982 0.045514 0.103300
v 0.752235 0.045514 0.086975
v 0.742701 0.045514 0.096510
v 0.742701 0.045514 0.110090
v 0.752235 0.045514 0.119624
v 0.774772 0.045514 0.119624
v 0.784307 0.045514 0.110090
v 0.781562 0.052304 0.096510
v 0.769716 0.055049 0.086975
v 0.752235 0.055049 0.086975
v 0.742701 0.055049 0.096510
v 0.742701 0.055049 0.110090
v 0.752235 0.055049 0.119624
v 0.769716 0.055049 0.119624
v 0.781562 0.052304 0.110090
v 0.785318 0.045514 0.096077
v 0.785318 0.035835 0.096077
v 0.775205 0.035835 0.085820
v 0.775205 0.045514 0.085820
v 0.760759 0.035835 0.085820
v 0.760759 0.045514 0.085820
v 0.750502 0.035835 0.096077
v 0.750502 0.045514 0.096077
v 0.750502 0.035835 0.110523
v 0.750502 0.045514 0.110523
v 0.760759 0.035835 0.120780
v 0.760759 0.045514 0.120780
v 0.775205 0.035835 0.120780
v 0.775205 0.045514 0.120780
v 0.785318 0.035835 0.110523
v 0.785318 0.045514 0.110523
v 0.819845 0.048692 0.106911
v 0.780117 0.048259 0.106478
v 0.780117 0.051293 0.106478
v 0.819845 0.050715 0.106911
v 0.780117 0.051293 0.109367
v 0.819845 0.050715 0.108934
v 0.780117 0.048259 0.109367
v 0.819845 0.048692 0.108934
v 0.819845 0.048692 0.097666
v 0.780117 0.048259 0.097232
v 0.780117 0.051293 0.097232
v 0.819845 0.050715 0.097666
v 0.780117 0.051293 0.100122
v 0.819845 0.050715 0.099688
v 0.780117 0.048259 0.100122
v 0.819845 0.048692 0.099688
v 0.598669 0.057938 0.130026
v 0.608204 0.057938 0.139561
v 0.591880 0.057938 0.146350
v 0.576133 0.057938 0.130026
v 0.566598 0.057938 0.139561
v 0.566598 0.057938 0.152996
v 0.576133 0.057938 0.162675
v 0.598669 0.057938 0.162675
v 0.608204 0.057938 0.152996
v 0.605459 0.064728 0.139561
v 0.593613 0.067328 0.130026
v 0.576133 0.067328 0.130026
v 0.566598 0.067328 0.139561
v 0.566598 0.067328 0.152996
v 0.576133 0.067328 0.162675
v 0.593613 0.067328 0.162675
v 0.605459 0.064728 0.152996
v 0.609360 0.057938 0.139127
v 0.609360 0.034390 0.139127
v 0.599103 0.034390 0.128870
v 0.599103 0.057938 0.128870
v 0.584656 0.034390 0.128870
v 0.584656 0.057938 0.128870
v 0.574399 0.034390 0.139127
v 0.574399 0.057938 0.139127
v 0.574399 0.034390 0.153574
v 0.574399 0.057938 0.153574
v 0.584656 0.034390 0.163686
v 0.584656 0.057938 0.163686
v 0.599103 0.034390 0.163686
v 0.599103 0.057938 0.163686
v 0.609360 0.034390 0.153574
v 0.609360 0.057938 0.153574
v 0.643742 0.061116 0.149962
v 0.604015 0.060683 0.149529
v 0.604015 0.063572 0.149529
v 0.643742 0.063139 0.149962
v 0.604015 0.063572 0.152418
v 0.643742 0.063139 0.151984
v 0.604015 0.060683 0.152418
v 0.643742 0.061116 0.151984
v 0.643742 0.061116 0.140572
v 0.604015 0.060683 0.140138
v 0.604015 0.063572 0.140138
v 0.643742 0.063139 0.140572
v 0.604015 0.063572 0.143172
v 0.643742 0.063139 0.142594
v 0.604015 0.060683 0.143172
v 0.643742 0.061116 0.142594
v 0.457961 0.057938 0.076574
v 0.448282 0.057938 0.067039
v 0.464606 0.057938 0.060249
v 0.480497 0.057938 0.076574
v 0.490032 0.057938 0.067039
v 0.490032 0.057938 0.053604
v 0.480497 0.057938 0.043925
v 0.457961 0.057938 0.043925
v 0.448282 0.057938 0.053604
v 0.451026 0.064728 0.067039
v 0.463017 0.067328 0.076574
v 0.480497 0.067328 0.076574
v 0.490032 0.067328 0.067039
v 0.490032 0.067328 0.053604
v 0.480497 0.067328 0.043925
v 0.463017 0.067328 0.043925
v 0.451026 0.064728 0.053604
v 0.447270 0.057938 0.067473
v 0.447270 0.034390 0.067473
v 0.457383 0.034390 0.077730
v 0.457383 0.057938 0.077730
v 0.471829 0.034390 0.077730
v 0.471829 0.057938 0.077730
v 0.482086 0.034390 0.067473
v 0.482086 0.057938 0.067473
v 0.482086 0.034390 0.053026
v 0.482086 0.057938 0.053026
v 0.471829 0.034390 0.042914
v 0.471829 0.057938 0.042914
v 0.457383 0.034390 0.042914
v 0.457383 0.057938 0.042914
v 0.447270 0.034390 0.053026
v 0.447270 0.057938 0.053026
v 0.412888 0.061116 0.056638
v 0.452471 0.060683 0.057071
v 0.452471 0.063572 0.057071
v 0.412888 0.063139 0.056638
v 0.452471 0.063572 0.054182
v 0.412888 0.063139 0.054615
v 0.452471 0.060683 0.054182
v 0.412888 0.061116 0.054615
v 0.412888 0.061116 0.066028
v 0.452471 0.060683 0.066461
v 0.452471 0.063572 0.066461
v 0.412888 0.063139 0.066028
v 0.452471 0.063572 0.063428
v 0.412888 0.063139 0.064006
v 0.452471 0.060683 0.063428
v 0.412888 0.061116 0.064006
v 0.375471 0.052304 0.044503
v 0.296738 0.052304 0.044358
v 0.375471 0.043780 0.044503
v 0.420544 0.052304 0.046236
v 0.397575 0.043781 0.038002
v 0.397575 0.052304 0.038002
v 0.420544 0.043780 0.046236
v 0.436436 0.052304 0.036991
v 0.436436 0.043781 0.036991
v 0.502311 0.052304 0.044936
v 0.502311 0.043492 0.044936
v 0.514158 0.052304 0.035835
v 0.514158 0.043492 0.035835
v 0.528315 0.052304 0.035979
v 0.528315 0.043347 0.035979
v 0.542473 0.052304 0.044214
v 0.542473 0.043347 0.044214
v 0.561542 0.052304 0.035690
v 0.561542 0.042914 0.035690
v 0.573388 0.052304 0.035690
v 0.573388 0.042914 0.035690
v 0.586534 0.052304 0.044214
v 0.586534 0.042769 0.044214
v 0.603003 0.052304 0.035402
v 0.603003 0.042914 0.035402
v 0.627273 0.052304 0.044936
v 0.627273 0.042336 0.044936
v 0.670757 0.052304 0.044936
v 0.670757 0.042047 0.044936
v 0.717275 0.052304 0.086831
v 0.717275 0.041613 0.086831
v 0.296738 0.052304 0.162241
v 0.375471 0.052304 0.162097
v 0.375471 0.043780 0.162097
v 0.397575 0.052304 0.168598
v 0.397575 0.043780 0.168598
v 0.420544 0.052304 0.160363
v 0.420544 0.043780 0.160363
v 0.436436 0.043780 0.169609
v 0.436436 0.052304 0.169609
v 0.447559 0.052304 0.169898
v 0.447559 0.043780 0.169898
v 0.470529 0.052304 0.161664
v 0.470529 0.043492 0.161664
v 0.482375 0.043492 0.170620
v 0.482375 0.052304 0.170620
v 0.496533 0.052304 0.170620
v 0.496533 0.043347 0.170620
v 0.510546 0.052304 0.162386
v 0.510546 0.043347 0.162386
v 0.529760 0.052304 0.170765
v 0.529760 0.042914 0.170765
v 0.541461 0.052304 0.170765
v 0.541461 0.042914 0.170765
v 0.554752 0.052304 0.162386
v 0.554752 0.042769 0.162386
v 0.571221 0.052304 0.170909
v 0.571221 0.042914 0.170909
v 0.627273 0.052304 0.161664
v 0.627273 0.042336 0.161664
v 0.670757 0.052304 0.161664
v 0.670757 0.042047 0.161664
v 0.717275 0.052304 0.119769
v 0.717275 0.041613 0.119769
v 0.500000 0.054471 0.108934
v 0.512424 0.051726 0.133637
v 0.512424 0.054471 0.133637
v 0.500000 0.051726 0.108934
v 0.500000 0.054471 0.073829
v 0.500000 0.051726 0.073829
v 0.533516 0.054471 0.073829
v 0.533516 0.051726 0.073829
v 0.554174 0.054471 0.112979
v 0.554174 0.051726 0.112979
v 0.554174 0.054471 0.133637
v 0.554174 0.051726 0.133637
v 0.508812 0.074985 0.115002
v 0.512424 0.074985 0.122080
v 0.508812 0.074985 0.086542
v 0.533516 0.074985 0.086542
v 0.545940 0.074985 0.112979
v 0.545940 0.074985 0.122080
v 0.511991 0.113557 0.107056
v 0.511991 0.072385 0.107056
v 0.517047 0.072385 0.112257
v 0.517047 0.113557 0.112257
v 0.533516 0.072385 0.112257
v 0.533516 0.113557 0.112257
v 0.538717 0.072385 0.107056
v 0.538717 0.113557 0.107056
v 0.538717 0.072385 0.099544
v 0.538717 0.113557 0.099544
v 0.533516 0.072385 0.094343
v 0.533516 0.113557 0.094343
v 0.517047 0.072385 0.094343
v 0.517047 0.113557 0.094343
v 0.511991 0.072385 0.099544
v 0.511991 0.113557 0.099544
v 0.511991 0.116302 0.107056
v 0.517047 0.116302 0.112257
v 0.533516 0.116302 0.112257
v 0.538717 0.116302 0.107056
v 0.538717 0.116302 0.099544
v 0.533516 0.116302 0.094343
v 0.517047 0.116302 0.094343
v 0.511991 0.116302 0.099544
v 0.524126 0.116302 0.103300
v 0.510835 0.091887 0.079319
v 0.510835 0.052159 0.079319
v 0.515169 0.052159 0.079319
v 0.515169 0.091887 0.079319
v 0.515169 0.052159 0.074985
v 0.515169 0.091887 0.074985
v 0.510835 0.052159 0.074985
v 0.510835 0.091887 0.074985
v 0.511268 0.109223 0.078885
v 0.514735 0.109223 0.078885
v 0.514735 0.109223 0.075418
v 0.511268 0.109223 0.075418
v 0.513002 0.110957 0.077152
v 0.449582 0.110523 0.076141
v 0.513435 0.069062 0.076140
v 0.512424 0.067473 0.076140
v 0.448571 0.108934 0.076141
v 0.512424 0.067473 0.078163
v 0.448571 0.108934 0.078163
v 0.513435 0.069062 0.078163
v 0.449582 0.110523 0.078163
v 0.534383 0.091887 0.131615
v 0.534383 0.052159 0.131615
v 0.538717 0.052159 0.131615
v 0.538717 0.091887 0.131615
v 0.538717 0.052159 0.127281
v 0.538717 0.091887 0.127281
v 0.534383 0.052159 0.127281
v 0.534383 0.091887 0.127281
v 0.534816 0.109223 0.131182
v 0.538283 0.109223 0.131182
v 0.538283 0.109223 0.127714
v 0.534816 0.109223 0.127714
v 0.536550 0.110957 0.129448
v 0.599825 0.110523 0.130459
v 0.535972 0.069062 0.130459
v 0.537127 0.067473 0.130459
v 0.600981 0.108934 0.130459
v 0.537127 0.067473 0.128437
v 0.600981 0.108934 0.128437
v 0.535972 0.069062 0.128437
v 0.599825 0.110523 0.128437
v 0.282147 0.077152 0.112835
v 0.282147 0.051726 0.112835
v 0.322164 0.077152 0.131326
v 0.322164 0.051726 0.131326
v 0.333866 0.077152 0.128870
v 0.333866 0.051726 0.128870
v 0.357991 0.077152 0.128870
v 0.357991 0.051726 0.128870
v 0.322164 0.077152 0.075274
v 0.282147 0.051726 0.093765
v 0.282147 0.077152 0.093765
v 0.322164 0.051726 0.075274
v 0.333866 0.077152 0.077730
v 0.333866 0.051726 0.077730
v 0.357991 0.077152 0.077730
v 0.357991 0.051726 0.077730
v 0.282147 0.083797 0.112835
v 0.322164 0.083797 0.131326
v 0.333866 0.083797 0.128870
v 0.357991 0.083797 0.128870
v 0.322164 0.083797 0.075274
v 0.282147 0.083797 0.093765
v 0.333866 0.083797 0.077730
v 0.357991 0.083797 0.077730
v 0.357991 0.077152 0.123092
v 0.397286 0.077152 0.123092
v 0.406387 0.051726 0.128870
v 0.409565 0.077152 0.103011
v 0.418666 0.051726 0.108790
v 0.398152 0.077152 0.084664
v 0.357991 0.077152 0.084664
v 0.407254 0.051726 0.077730
v 0.409565 0.077152 0.094776
v 0.418666 0.051726 0.087842
v 0.357991 0.083797 0.123092
v 0.397286 0.083797 0.123092
v 0.409565 0.083797 0.103011
v 0.398152 0.083797 0.084664
v 0.357991 0.083797 0.084664
v 0.409565 0.083797 0.094776
v 0.376916 0.082642 0.115868
v 0.368104 0.082642 0.108501
v 0.368104 0.115291 0.108501
v 0.376916 0.115291 0.115868
v 0.395696 0.082642 0.115868
v 0.395696 0.115291 0.115868
v 0.406098 0.082642 0.108501
v 0.406098 0.115291 0.108501
v 0.406098 0.082642 0.098099
v 0.406098 0.115291 0.098099
v 0.395696 0.082642 0.090732
v 0.395696 0.115291 0.090732
v 0.376916 0.082642 0.090732
v 0.376916 0.115291 0.090732
v 0.368104 0.082642 0.098099
v 0.368104 0.115291 0.098099
v 0.372438 0.115291 0.107056
v 0.379227 0.115291 0.112401
v 0.393674 0.115291 0.112401
v 0.401908 0.115291 0.107056
v 0.401908 0.115291 0.099544
v 0.393674 0.115291 0.094199
v 0.379227 0.115291 0.094199
v 0.372438 0.115291 0.099544
v 0.372438 0.124103 0.107056
v 0.379227 0.124103 0.112401
v 0.393674 0.124103 0.112401
v 0.401908 0.124103 0.107056
v 0.401908 0.124103 0.099544
v 0.393674 0.124103 0.094199
v 0.379227 0.124103 0.094199
v 0.372438 0.124103 0.099544
v 0.386451 0.124103 0.103300
v 0.289226 0.088420 0.109367
v 0.289226 0.082642 0.109367
v 0.297894 0.082642 0.118035
v 0.297894 0.088420 0.118035
v 0.309884 0.082642 0.117457
v 0.309884 0.088420 0.117457
v 0.315230 0.082642 0.109367
v 0.315230 0.088420 0.109367
v 0.315230 0.082642 0.097232
v 0.315230 0.088420 0.097232
v 0.309884 0.082642 0.089142
v 0.309884 0.088420 0.089142
v 0.297894 0.082642 0.088565
v 0.297894 0.088420 0.088565
v 0.289226 0.082642 0.097232
v 0.289226 0.088420 0.097232
v 0.299338 0.089720 0.108356
v 0.302661 0.089720 0.114279
v 0.309884 0.089720 0.115579
v 0.313929 0.089720 0.108356
v 0.313929 0.089720 0.098244
v 0.309884 0.089720 0.091020
v 0.302661 0.089720 0.092321
v 0.299338 0.089720 0.098244
v 0.302228 0.093187 0.108356
v 0.305695 0.093187 0.114279
v 0.309884 0.093187 0.115579
v 0.313929 0.093187 0.108356
v 0.313929 0.093187 0.098244
v 0.309884 0.093187 0.091020
v 0.305695 0.093187 0.092321
v 0.302228 0.093187 0.098244
v 0.309595 0.093187 0.103300
v 0.340944 0.182756 0.104456
v 0.340944 0.082642 0.104456
v 0.343400 0.082642 0.104456
v 0.343400 0.182756 0.104456
v 0.343400 0.082642 0.102144
v 0.343400 0.182756 0.102144
v 0.340944 0.082642 0.102144
v 0.340944 0.182756 0.102144
v 0.339789 0.219739 0.103878
v 0.339789 0.167442 0.103878
v 0.341089 0.167442 0.103878
v 0.341089 0.219739 0.103878
v 0.341089 0.167442 0.102722
v 0.341089 0.219739 0.102722
v 0.339789 0.167442 0.102722
v 0.339789 0.219739 0.102722
v 0.326931 0.092176 0.088853
v 0.326931 0.082642 0.088853
v 0.326931 0.082642 0.117746
v 0.326931 0.092176 0.117746
v 0.360736 0.082642 0.117746
v 0.360736 0.092176 0.117746
v 0.360736 0.082642 0.088853
v 0.360736 0.092176 0.088853
v 0.346290 0.092176 0.103300
v 0.326931 0.103155 0.091743
v 0.326931 0.089576 0.091743
v 0.326931 0.089576 0.114857
v 0.326931 0.103155 0.114857
v 0.340511 0.089576 0.114857
v 0.340511 0.103155 0.114857
v 0.340511 0.089576 0.091743
v 0.340511 0.103155 0.091743
v 0.334154 0.103155 0.103300
v 0.332854 0.092032 0.134938
v 0.332854 0.092032 0.071662
v 0.339500 0.092032 0.103300
v 0.344556 0.092032 0.134938
v 0.344556 0.092032 0.071662
v 0.332854 0.099111 0.071662
v 0.332854 0.099110 0.134938
v 0.344556 0.099110 0.134938
v 0.344556 0.099111 0.071662
v 0.657322 0.182756 0.102144
v 0.657322 0.051726 0.102144
v 0.654866 0.051726 0.102144
v 0.654866 0.182756 0.102144
v 0.654866 0.051726 0.104456
v 0.654866 0.182756 0.104456
v 0.657322 0.051726 0.104456
v 0.657322 0.182756 0.104456
v 0.658478 0.219739 0.102722
v 0.658478 0.167442 0.102722
v 0.657178 0.167442 0.102722
v 0.657178 0.219739 0.102722
v 0.657178 0.167442 0.103878
v 0.657178 0.219739 0.103878
v 0.658478 0.167442 0.103878
v 0.658478 0.219739 0.103878
v 0.384573 0.050281 0.162819
v 0.384573 0.047537 0.164408
v 0.362614 0.049415 0.164408
v 0.384573 0.050281 0.165998
v 0.418955 0.050281 0.159641
v 0.420544 0.047537 0.159641
v 0.420544 0.049415 0.181600
v 0.422134 0.050281 0.159641
v 0.468940 0.050281 0.159641
v 0.470529 0.047537 0.159641
v 0.470529 0.049415 0.181600
v 0.472118 0.050281 0.159641
v 0.509535 0.050281 0.159641
v 0.511124 0.047537 0.159641
v 0.511124 0.049415 0.181600
v 0.512857 0.050281 0.159641
v 0.553741 0.050281 0.159641
v 0.555330 0.047537 0.159641
v 0.555330 0.049415 0.181600
v 0.556919 0.050281 0.159641
v 0.620772 0.050281 0.165998
v 0.620772 0.047537 0.164408
v 0.642731 0.049415 0.164408
v 0.620772 0.050281 0.162819
v 0.362614 0.049415 0.042191
v 0.384573 0.047537 0.042191
v 0.384573 0.050281 0.043780
v 0.384573 0.050281 0.040602
v 0.420544 0.049415 0.025000
v 0.420544 0.047537 0.046959
v 0.418955 0.050281 0.046959
v 0.422134 0.050281 0.046959
v 0.501156 0.049415 0.025000
v 0.501156 0.047537 0.046959
v 0.499567 0.050281 0.046959
v 0.502745 0.050281 0.046959
v 0.541750 0.049415 0.025000
v 0.541750 0.047537 0.046959
v 0.540161 0.050281 0.046959
v 0.543484 0.050281 0.046959
v 0.585957 0.049415 0.025000
v 0.585957 0.047537 0.046959
v 0.584367 0.050281 0.046959
v 0.587546 0.050281 0.046959
v 0.642731 0.049415 0.042191
v 0.620772 0.047537 0.042191
v 0.620772 0.050281 0.040602
v 0.620772 0.050281 0.043780
v 0.683759 0.061550 0.094776
v 0.683759 0.051726 0.094776
v 0.663390 0.061550 0.075852
v 0.663390 0.051726 0.075852
v 0.653999 0.061550 0.075852
v 0.650532 0.051726 0.075852
v 0.646054 0.061550 0.084375
v 0.642587 0.051726 0.084375
v 0.663390 0.061550 0.130748
v 0.683759 0.051726 0.111823
v 0.683759 0.061550 0.111823
v 0.663390 0.051726 0.130748
v 0.653999 0.061550 0.130748
v 0.650532 0.051726 0.130748
v 0.646054 0.061550 0.122225
v 0.642587 0.051726 0.122225
v 0.668879 0.080908 0.099255
v 0.668879 0.061116 0.099255
v 0.668879 0.061116 0.107345
v 0.668879 0.080908 0.107345
v 0.675814 0.061116 0.111390
v 0.675814 0.080908 0.111390
v 0.682748 0.061116 0.107345
v 0.682748 0.080908 0.107345
v 0.682748 0.061116 0.099255
v 0.682748 0.080908 0.099255
v 0.675814 0.061116 0.095210
v 0.675814 0.080908 0.095210
v 0.675814 0.080908 0.103300
v 0.640564 0.066462 0.096221
v 0.640564 0.051726 0.095643
v 0.640564 0.051726 0.110957
v 0.640564 0.066461 0.110379
v 0.645765 0.051726 0.118613
v 0.645765 0.066461 0.117602
v 0.650966 0.051726 0.110957
v 0.650966 0.066461 0.110379
v 0.650966 0.051726 0.095643
v 0.650966 0.066462 0.096221
v 0.645765 0.051726 0.087987
v 0.645765 0.066462 0.088998
v 0.640564 0.085675 0.094921
v 0.640564 0.085675 0.111679
v 0.645765 0.083942 0.114568
v 0.650966 0.083942 0.110090
v 0.650966 0.083942 0.096510
v 0.645765 0.083942 0.092032
v 0.644465 0.095643 0.098677
v 0.644465 0.095643 0.107923
v 0.651399 0.086975 0.113990
v 0.651255 0.085242 0.110090
v 0.651255 0.085242 0.096510
v 0.651399 0.086975 0.092609
v 0.654722 0.097955 0.096510
v 0.654722 0.097955 0.110090
v 0.653422 0.087698 0.110090
v 0.653422 0.087698 0.096510
v 0.653999 0.092754 0.093621
v 0.653999 0.092754 0.103300
v 0.653999 0.092754 0.112979
v 0.340655 0.169898 0.107056
v 0.338488 0.169898 0.103300
v 0.342678 0.169898 0.103300
v 0.344845 0.169898 0.107056
v 0.347012 0.169898 0.103300
v 0.344845 0.169898 0.099544
v 0.340655 0.169898 0.099544
v 0.338488 0.179144 0.103300
v 0.340655 0.179144 0.107056
v 0.344845 0.179144 0.107056
v 0.347012 0.179144 0.103300
v 0.344845 0.179144 0.099544
v 0.340655 0.179144 0.099544
v 0.657611 0.169898 0.099544
v 0.659778 0.169898 0.103300
v 0.655444 0.169898 0.103300
v 0.653277 0.169898 0.099544
v 0.651255 0.169898 0.103300
v 0.653277 0.169898 0.107056
v 0.657611 0.169898 0.107056
v 0.659778 0.179144 0.103300
v 0.657611 0.179144 0.099544
v 0.653277 0.179144 0.099544
v 0.651255 0.179144 0.103300
v 0.653277 0.179144 0.107056
v 0.657611 0.179144 0.107056
f 1 2 3
f 3 2 4
f 3 4 5
f 5 4 6
f 5 6 7
f 7 6 8
f 7 8 9
f 9 8 10
f 9 10 11
f 11 10 12
f 11 12 13
f 13 12 14
f 13 14 15
f 15 14 16
f 15 16 17
f 17 16 18
f 17 18 19
f 19 18 20
f 21 1 22
f 22 1 3
f 22 3 23
f 23 3 5
f 24 21 25
f 25 21 22
f 25 23 26
f 25 22 23
f 27 23 7
f 23 5 7
f 28 20 29
f 19 30 31
f 19 20 30
f 30 20 28
f 32 2 1
f 33 2 32
f 34 33 32
f 35 33 34
f 36 35 34
f 37 35 36
f 38 37 36
f 39 37 38
f 40 39 38
f 41 39 40
f 42 41 40
f 43 41 42
f 44 43 42
f 45 43 44
f 46 45 44
f 47 45 46
f 48 47 46
f 49 47 48
f 50 1 21
f 32 1 50
f 51 32 50
f 34 32 51
f 52 21 24
f 50 21 52
f 53 51 52
f 51 50 52
f 36 51 54
f 36 34 51
f 29 49 28
f 31 30 48
f 30 49 48
f 28 49 30
f 31 48 19
f 48 17 19
f 48 46 17
f 46 15 17
f 46 44 15
f 44 13 15
f 44 42 13
f 25 52 24
f 25 26 52
f 26 53 52
f 23 54 51
f 23 27 54
f 55 56 57
f 55 58 56
f 58 59 56
f 60 59 58
f 23 61 62
f 63 64 51
f 63 51 53
f 26 23 62
f 26 62 53
f 53 62 63
f 65 66 67
f 68 65 67
f 69 68 67
f 70 69 67
f 71 70 67
f 72 71 67
f 73 72 67
f 66 73 67
f 74 66 65
f 74 65 75
f 75 65 68
f 75 68 76
f 76 68 69
f 76 69 77
f 77 69 70
f 77 70 78
f 78 70 71
f 78 71 79
f 79 71 72
f 79 72 80
f 80 72 73
f 80 73 81
f 81 73 66
f 81 66 74
f 80 74 75
f 80 81 74
f 75 79 80
f 75 76 79
f 76 78 79
f 76 77 78
f 82 83 84
f 82 84 85
f 85 84 86
f 85 86 87
f 87 86 88
f 87 88 89
f 89 88 90
f 89 90 91
f 91 90 92
f 91 92 93
f 93 92 94
f 93 94 95
f 95 94 96
f 95 96 97
f 97 96 83
f 97 83 82
f 67 82 85
f 67 85 87
f 67 87 89
f 67 89 91
f 67 91 93
f 67 93 95
f 67 95 97
f 67 97 82
f 98 99 100
f 98 100 101
f 101 100 102
f 101 102 103
f 103 102 104
f 103 104 105
f 105 104 99
f 105 99 98
f 106 107 108
f 106 108 109
f 109 108 110
f 109 110 111
f 111 110 112
f 111 112 113
f 113 112 107
f 113 107 106
f 114 115 116
f 117 114 116
f 118 117 116
f 119 118 116
f 120 119 116
f 121 120 116
f 122 121 116
f 115 122 116
f 123 115 114
f 123 114 124
f 124 114 117
f 124 117 125
f 125 117 118
f 125 118 126
f 126 118 119
f 126 119 127
f 127 119 120
f 127 120 128
f 128 120 121
f 128 121 129
f 129 121 122
f 129 122 130
f 130 122 115
f 130 115 123
f 129 123 124
f 129 130 123
f 124 128 129
f 124 125 128
f 125 127 128
f 125 126 127
f 131 132 133
f 131 133 134
f 134 133 135
f 134 135 136
f 136 135 137
f 136 137 138
f 138 137 139
f 138 139 140
f 140 139 141
f 140 141 142
f 142 141 143
f 142 143 144
f 144 143 145
f 144 145 146
f 146 145 132
f 146 132 131
f 116 131 134
f 116 134 136
f 116 136 138
f 116 138 140
f 116 140 142
f 116 142 144
f 116 144 146
f 116 146 131
f 147 148 149
f 147 149 150
f 150 149 151
f 150 151 152
f 152 151 153
f 152 153 154
f 154 153 148
f 154 148 147
f 155 156 157
f 155 157 158
f 158 157 159
f 158 159 160
f 160 159 161
f 160 161 162
f 162 161 156
f 162 156 155
f 163 164 165
f 166 163 165
f 167 166 165
f 168 167 165
f 169 168 165
f 170 169 165
f 171 170 165
f 164 171 165
f 172 164 163
f 172 163 173
f 173 163 166
f 173 166 174
f 174 166 167
f 174 167 175
f 175 167 168
f 175 168 176
f 176 168 169
f 176 169 177
f 177 169 170
f 177 170 178
f 178 170 171
f 178 171 179
f 179 171 164
f 179 164 172
f 178 172 173
f 178 179 172
f 173 177 178
f 173 174 177
f 174 176 177
f 174 175 176
f 180 181 182
f 180 182 183
f 183 182 184
f 183 184 185
f 185 184 186
f 185 186 187
f 187 186 188
f 187 188 189
f 189 188 190
f 189 190 191
f 191 190 192
f 191 192 193
f 193 192 194
f 193 194 195
f 195 194 181
f 195 181 180
f 165 180 183
f 165 183 185
f 165 185 187
f 165 187 189
f 165 189 191
f 165 191 193
f 165 193 195
f 165 195 180
f 196 197 198
f 196 198 199
f 199 198 200
f 199 200 201
f 201 200 202
f 201 202 203
f 203 202 197
f 203 197 196
f 204 205 206
f 204 206 207
f 207 206 208
f 207 208 209
f 209 208 210
f 209 210 211
f 211 210 205
f 211 205 204
f 212 213 214
f 215 212 214
f 216 215 214
f 217 216 214
f 218 217 214
f 219 218 214
f 220 219 214
f 213 220 214
f 221 213 212
f 221 212 222
f 222 212 215
f 222 215 223
f 223 215 216
f 223 216 224
f 224 216 217
f 224 217 225
f 225 217 218
f 225 218 226
f 226 218 219
f 226 219 227
f 227 219 220
f 227 220 228
f 228 220 213
f 228 213 221
f 227 221 222
f 227 228 221
f 222 226 227
f 222 223 226
f 223 225 226
f 223 224 225
f 229 230 231
f 229 231 232
f 232 231 233
f 232 233 234
f 234 233 235
f 234 235 236
f 236 235 237
f 236 237 238
f 238 237 239
f 238 239 240
f 240 239 241
f 240 241 242
f 242 241 243
f 242 243 244
f 244 243 230
f 244 230 229
f 214 229 232
f 214 232 234
f 214 234 236
f 214 236 238
f 214 238 240
f 214 240 242
f 214 242 244
f 214 244 229
f 245 246 247
f 245 247 248
f 248 247 249
f 248 249 250
f 250 249 251
f 250 251 252
f 252 251 246
f 252 246 245
f 253 254 255
f 253 255 256
f 256 255 257
f 256 257 258
f 258 257 259
f 258 259 260
f 260 259 254
f 260 254 253
f 261 262 263
f 264 261 263
f 265 264 263
f 266 265 263
f 267 266 263
f 268 267 263
f 269 268 263
f 262 269 263
f 270 262 261
f 270 261 271
f 271 261 264
f 271 264 272
f 272 264 265
f 272 265 273
f 273 265 266
f 273 266 274
f 274 266 267
f 274 267 275
f 275 267 268
f 275 268 276
f 276 268 269
f 276 269 277
f 277 269 262
f 277 262 270
f 276 270 271
f 276 277 270
f 271 275 276
f 271 272 275
f 272 274 275
f 272 273 274
f 278 279 280
f 278 280 281
f 281 280 282
f 281 282 283
f 283 282 284
f 283 284 285
f 285 284 286
f 285 286 287
f 287 286 288
f 287 288 289
f 289 288 290
f 289 290 291
f 291 290 292
f 291 292 293
f 293 292 279
f 293 279 278
f 263 278 281
f 263 281 283
f 263 283 285
f 263 285 287
f 263 287 289
f 263 289 291
f 263 291 293
f 263 293 278
f 294 295 296
f 294 296 297
f 297 296 298
f 297 298 299
f 299 298 300
f 299 300 301
f 301 300 295
f 301 295 294
f 302 303 304
f 302 304 305
f 305 304 306
f 305 306 307
f 307 306 308
f 307 308 309
f 309 308 303
f 309 303 302
f 310 36 311
f 312 36 310
f 57 312 310
f 38 312 57
f 313 314 315
f 316 314 313
f 317 318 313
f 313 318 316
f 56 318 317
f 40 318 56
f 319 40 56
f 320 40 319
f 321 322 319
f 319 322 320
f 323 322 321
f 324 322 323
f 325 324 323
f 326 324 325
f 327 326 325
f 328 326 327
f 329 328 327
f 330 328 329
f 331 330 329
f 332 330 331
f 333 332 331
f 334 332 333
f 59 334 333
f 42 334 59
f 335 42 59
f 336 42 335
f 337 336 335
f 338 336 337
f 339 338 337
f 340 338 339
f 315 38 57
f 314 38 315
f 311 36 54
f 341 7 342
f 342 7 343
f 342 343 55
f 55 343 9
f 344 345 346
f 346 345 347
f 346 348 349
f 347 348 346
f 349 348 350
f 350 348 351
f 350 351 352
f 352 351 353
f 352 354 355
f 353 354 352
f 355 354 356
f 356 354 357
f 356 357 358
f 358 357 359
f 358 359 360
f 360 359 361
f 360 361 362
f 362 361 363
f 362 363 364
f 364 363 365
f 364 365 366
f 366 365 367
f 366 367 60
f 60 367 13
f 60 13 368
f 368 13 369
f 368 369 370
f 370 369 371
f 370 371 372
f 372 371 373
f 55 9 344
f 344 9 345
f 27 7 341
f 312 38 36
f 316 318 314
f 320 322 40
f 326 328 324
f 332 334 330
f 347 345 348
f 343 7 9
f 351 354 353
f 357 361 359
f 363 367 365
f 341 310 311
f 341 342 310
f 342 57 310
f 342 55 57
f 335 59 60
f 60 368 335
f 368 337 335
f 368 370 337
f 370 339 337
f 370 372 339
f 311 27 341
f 311 54 27
f 374 375 376
f 377 375 374
f 378 377 374
f 379 377 378
f 380 379 378
f 381 379 380
f 382 381 380
f 383 381 382
f 384 383 382
f 385 383 384
f 376 385 384
f 375 385 376
f 386 376 387
f 374 376 386
f 388 374 386
f 378 374 388
f 389 378 388
f 380 378 389
f 390 380 389
f 382 380 390
f 391 382 390
f 384 382 391
f 387 384 391
f 376 384 387
f 387 390 386
f 391 390 387
f 390 388 386
f 389 388 390
f 392 393 394
f 392 394 395
f 395 394 396
f 395 396 397
f 397 396 398
f 397 398 399
f 399 398 400
f 399 400 401
f 401 400 402
f 401 402 403
f 403 402 404
f 403 404 405
f 405 404 406
f 405 406 407
f 407 406 393
f 407 393 392
f 408 392 395
f 408 395 409
f 409 395 397
f 409 397 410
f 410 397 399
f 410 399 411
f 411 399 401
f 411 401 412
f 412 401 403
f 412 403 413
f 413 403 405
f 413 405 414
f 414 405 407
f 414 407 415
f 415 407 392
f 415 392 408
f 416 408 409
f 416 409 410
f 416 410 411
f 416 411 412
f 416 412 413
f 416 413 414
f 416 414 415
f 416 415 408
f 417 418 419
f 417 419 420
f 420 419 421
f 420 421 422
f 422 421 423
f 422 423 424
f 424 423 418
f 424 418 417
f 425 417 420
f 425 420 426
f 426 420 422
f 426 422 427
f 427 422 424
f 427 424 428
f 428 424 417
f 428 417 425
f 429 425 426
f 429 426 427
f 429 427 428
f 429 428 425
f 430 431 432
f 430 432 433
f 433 432 434
f 433 434 435
f 435 434 436
f 435 436 437
f 437 436 431
f 437 431 430
f 438 439 440
f 438 440 441
f 441 440 442
f 441 442 443
f 443 442 444
f 443 444 445
f 445 444 439
f 445 439 438
f 446 438 441
f 446 441 447
f 447 441 443
f 447 443 448
f 448 443 445
f 448 445 449
f 449 445 438
f 449 438 446
f 450 446 447
f 450 447 448
f 450 448 449
f 450 449 446
f 451 452 453
f 451 453 454
f 454 453 455
f 454 455 456
f 456 455 457
f 456 457 458
f 458 457 452
f 458 452 451
f 459 460 461
f 461 460 462
f 461 462 463
f 463 462 464
f 463 464 465
f 465 464 466
f 467 468 469
f 470 468 467
f 471 470 467
f 472 470 471
f 473 472 471
f 474 472 473
f 469 460 459
f 468 460 469
f 475 459 476
f 476 459 461
f 476 461 477
f 477 461 463
f 477 463 478
f 478 463 465
f 479 469 480
f 467 469 479
f 481 467 479
f 471 467 481
f 482 471 481
f 473 471 482
f 480 459 475
f 469 459 480
f 475 476 480
f 476 479 480
f 476 477 479
f 477 481 479
f 477 478 481
f 478 482 481
f 483 466 484
f 484 466 485
f 484 485 486
f 486 485 487
f 488 474 489
f 490 474 488
f 491 490 488
f 492 490 491
f 486 487 491
f 491 487 492
f 493 483 494
f 494 483 484
f 494 484 495
f 495 484 486
f 496 489 497
f 488 489 496
f 498 488 496
f 491 488 498
f 495 486 498
f 498 486 491
f 493 494 497
f 494 496 497
f 494 495 496
f 496 495 498
f 483 465 466
f 483 493 465
f 493 478 465
f 473 489 474
f 497 489 473
f 473 482 497
f 499 500 501
f 502 499 501
f 503 499 502
f 504 503 502
f 505 503 504
f 506 505 504
f 507 505 506
f 508 507 506
f 509 507 508
f 510 509 508
f 511 509 510
f 512 511 510
f 513 511 512
f 514 513 512
f 500 513 514
f 501 500 514
f 502 501 515
f 516 502 515
f 504 502 516
f 517 504 516
f 506 504 517
f 518 506 517
f 508 506 518
f 519 508 518
f 510 508 519
f 520 510 519
f 512 510 520
f 521 512 520
f 514 512 521
f 522 514 521
f 501 514 522
f 515 501 522
f 516 515 523
f 524 516 523
f 517 516 524
f 525 517 524
f 518 517 525
f 526 518 525
f 519 518 526
f 527 519 526
f 520 519 527
f 528 520 527
f 521 520 528
f 529 521 528
f 522 521 529
f 530 522 529
f 515 522 530
f 523 515 530
f 524 523 531
f 525 524 531
f 526 525 531
f 527 526 531
f 528 527 531
f 529 528 531
f 530 529 531
f 523 530 531
f 532 533 534
f 532 534 535
f 535 534 536
f 535 536 537
f 537 536 538
f 537 538 539
f 539 538 540
f 539 540 541
f 541 540 542
f 541 542 543
f 543 542 544
f 543 544 545
f 545 544 546
f 545 546 547
f 547 546 533
f 547 533 532
f 548 532 535
f 548 535 549
f 549 535 537
f 549 537 550
f 550 537 539
f 550 539 551
f 551 539 541
f 551 541 552
f 552 541 543
f 552 543 553
f 553 543 545
f 553 545 554
f 554 545 547
f 554 547 555
f 555 547 532
f 555 532 548
f 556 548 549
f 556 549 557
f 557 549 550
f 557 550 558
f 558 550 551
f 558 551 559
f 559 551 552
f 559 552 560
f 560 552 553
f 560 553 561
f 561 553 554
f 561 554 562
f 562 554 555
f 562 555 563
f 563 555 548
f 563 548 556
f 564 556 557
f 564 557 558
f 564 558 559
f 564 559 560
f 564 560 561
f 564 561 562
f 564 562 563
f 564 563 556
f 565 566 567
f 565 567 568
f 568 567 569
f 568 569 570
f 570 569 571
f 570 571 572
f 572 571 566
f 572 566 565
f 573 574 575
f 573 575 576
f 576 575 577
f 576 577 578
f 578 577 579
f 578 579 580
f 580 579 574
f 580 574 573
f 581 582 583
f 581 583 584
f 584 583 585
f 584 585 586
f 586 585 587
f 586 587 588
f 588 587 582
f 588 582 581
f 589 581 584
f 589 584 586
f 589 586 588
f 589 588 581
f 590 591 592
f 590 592 593
f 593 592 594
f 593 594 595
f 595 594 596
f 595 596 597
f 597 596 591
f 597 591 590
f 598 590 593
f 598 593 595
f 598 595 597
f 598 597 590
f 599 600 601
f 602 599 601
f 603 602 601
f 600 603 601
f 604 600 599
f 604 599 605
f 605 599 602
f 605 602 606
f 606 602 603
f 606 603 607
f 607 603 600
f 607 600 604
f 608 609 610
f 608 610 611
f 611 610 612
f 611 612 613
f 613 612 614
f 613 614 615
f 615 614 609
f 615 609 608
f 616 617 618
f 616 618 619
f 619 618 620
f 619 620 621
f 621 620 622
f 621 622 623
f 623 622 617
f 623 617 616
f 624 625 626
f 627 624 626
f 625 627 626
f 628 629 630
f 631 628 630
f 629 631 630
f 632 633 634
f 635 632 634
f 633 635 634
f 636 637 638
f 639 636 638
f 637 639 638
f 640 641 642
f 643 640 642
f 641 643 642
f 644 645 646
f 647 644 646
f 645 647 646
f 648 649 650
f 648 650 651
f 648 651 649
f 652 653 654
f 652 654 655
f 652 655 653
f 656 657 658
f 656 658 659
f 656 659 657
f 660 661 662
f 660 662 663
f 660 663 661
f 664 665 666
f 664 666 667
f 664 667 665
f 668 669 670
f 668 670 671
f 668 671 669
f 672 673 674
f 674 673 675
f 674 675 676
f 676 675 677
f 676 677 678
f 678 677 679
f 680 681 682
f 683 681 680
f 684 683 680
f 685 683 684
f 686 685 684
f 687 685 686
f 678 687 686
f 679 687 678
f 682 681 672
f 672 681 673
f 672 674 682
f 674 680 682
f 674 676 680
f 676 684 680
f 676 678 684
f 678 686 684
f 688 689 690
f 688 690 691
f 691 690 692
f 691 692 693
f 693 692 694
f 693 694 695
f 695 694 696
f 695 696 697
f 697 696 698
f 697 698 699
f 699 698 689
f 699 689 688
f 700 688 691
f 700 691 693
f 700 693 695
f 700 695 697
f 700 697 699
f 700 699 688
f 701 702 703
f 701 703 704
f 704 703 705
f 704 705 706
f 706 705 707
f 706 707 708
f 708 707 709
f 708 709 710
f 710 709 711
f 710 711 712
f 712 711 702
f 712 702 701
f 713 701 704
f 713 704 714
f 714 704 706
f 714 706 715
f 715 706 708
f 715 708 716
f 716 708 710
f 716 710 717
f 717 710 712
f 717 712 718
f 718 712 701
f 718 701 713
f 719 713 714
f 719 714 720
f 721 715 716
f 721 716 722
f 722 716 717
f 722 717 723
f 724 718 713
f 725 719 720
f 725 720 726
f 727 722 723
f 727 723 728
f 728 723 724
f 728 724 729
f 729 719 725
f 730 725 726
f 730 726 731
f 730 731 727
f 730 727 728
f 730 728 729
f 730 729 725
f 724 713 729
f 729 713 719
f 724 723 717
f 717 718 724
f 726 720 731
f 720 714 731
f 715 721 714
f 714 721 731
f 731 721 727
f 727 721 722
f 4 33 2
f 4 6 33
f 6 35 33
f 6 8 35
f 8 37 35
f 8 10 37
f 10 39 37
f 10 12 39
f 12 41 39
f 12 14 41
f 14 43 41
f 43 14 16
f 16 45 43
f 16 18 45
f 18 47 45
f 18 20 47
f 20 49 47
f 20 29 49
f 732 733 734
f 735 732 734
f 736 735 734
f 737 736 734
f 738 737 734
f 733 738 734
f 739 733 732
f 739 732 740
f 740 732 735
f 740 735 741
f 741 735 736
f 741 736 742
f 742 736 737
f 742 737 743
f 743 737 738
f 743 738 744
f 744 738 733
f 744 733 739
f 745 746 747
f 748 745 747
f 749 748 747
f 750 749 747
f 751 750 747
f 746 751 747
f 752 746 745
f 752 745 753
f 753 745 748
f 753 748 754
f 754 748 749
f 754 749 755
f 755 749 750
f 755 750 756
f 756 750 751
f 756 751 757
f 757 751 746
f 757 746 752
