# Original shape: m702.obj
# No processing applied - exact copy of source file
# Generated on 2025-10-03 23:18:06

v 0.065826 0.074289 0.091762
v 0.065723 0.074289 0.101132
v 0.065928 0.075952 0.092220
v 0.065915 0.074289 0.083659
v 0.065928 0.072626 0.092220
v 0.082754 0.074289 0.092016
v 0.082854 0.074289 0.101132
v 0.082649 0.072626 0.092220
v 0.082663 0.074289 0.083659
v 0.082649 0.075952 0.092220
v 0.074289 0.079576 0.171560
v 0.073006 0.080736 0.157569
v 0.073257 0.079475 0.171560
v 0.074289 0.080863 0.157569
v 0.072823 0.081655 0.142732
v 0.074289 0.081800 0.142732
v 0.072699 0.082281 0.127168
v 0.074289 0.082437 0.127168
v 0.072629 0.082635 0.110114
v 0.074289 0.082854 0.101132
v 0.072626 0.082649 0.092220
v 0.074289 0.082663 0.083659
v 0.072708 0.082237 0.075728
v 0.074289 0.081589 0.061117
v 0.072967 0.080935 0.054204
v 0.074289 0.080443 0.047607
v 0.073088 0.080325 0.047607
v 0.073231 0.079605 0.041369
v 0.074289 0.079709 0.041369
v 0.071773 0.080362 0.157569
v 0.072265 0.079174 0.171560
v 0.071415 0.081228 0.142732
v 0.071170 0.081817 0.127168
v 0.071032 0.082151 0.110114
v 0.071027 0.082164 0.092220
v 0.071188 0.081776 0.075728
v 0.071696 0.080549 0.054204
v 0.071934 0.079975 0.047607
v 0.072214 0.079297 0.041369
v 0.070637 0.079755 0.157569
v 0.071351 0.078685 0.171560
v 0.070116 0.080534 0.142732
v 0.069762 0.081064 0.127168
v 0.069561 0.081364 0.110114
v 0.069553 0.081377 0.092220
v 0.069637 0.081252 0.083659
v 0.069787 0.081027 0.075728
v 0.070524 0.079923 0.054204
v 0.070870 0.079406 0.047607
v 0.071277 0.078796 0.041369
v 0.069640 0.078937 0.157569
v 0.070550 0.078028 0.171560
v 0.068978 0.079600 0.142732
v 0.068527 0.080051 0.127168
v 0.068272 0.080306 0.110114
v 0.068261 0.080316 0.092220
v 0.068559 0.080019 0.075728
v 0.069127 0.079450 0.061117
v 0.069937 0.078641 0.047607
v 0.070456 0.078122 0.041369
v 0.068823 0.077941 0.157569
v 0.069892 0.077226 0.171560
v 0.068044 0.078462 0.142732
v 0.067514 0.078816 0.127168
v 0.067213 0.079016 0.110114
v 0.067201 0.079025 0.092220
v 0.067326 0.078941 0.083659
v 0.067551 0.078791 0.075728
v 0.068654 0.078053 0.054204
v 0.069172 0.077708 0.047607
v 0.069782 0.077300 0.041369
v 0.068215 0.076804 0.157569
v 0.069404 0.076312 0.171560
v 0.067350 0.077163 0.142732
v 0.066761 0.077407 0.127168
v 0.066427 0.077545 0.110114
v 0.066413 0.077551 0.092220
v 0.066552 0.077493 0.083659
v 0.066802 0.077390 0.075728
v 0.068028 0.076882 0.054204
v 0.068603 0.076644 0.047607
v 0.069281 0.076363 0.041369
v 0.067841 0.075571 0.157569
v 0.069103 0.075320 0.171560
v 0.066922 0.075754 0.142732
v 0.066297 0.075879 0.127168
v 0.065943 0.075949 0.110114
v 0.066341 0.075870 0.075728
v 0.067643 0.075611 0.054204
v 0.068253 0.075490 0.047607
v 0.068972 0.075346 0.041369
v 0.069001 0.074289 0.171560
v 0.067715 0.074289 0.157569
v 0.066778 0.074289 0.142732
v 0.066140 0.074289 0.127168
v 0.066989 0.074289 0.061117
v 0.068134 0.074289 0.047607
v 0.068868 0.074289 0.041369
v 0.067841 0.073006 0.157569
v 0.069103 0.073257 0.171560
v 0.066922 0.072823 0.142732
v 0.066297 0.072699 0.127168
v 0.065943 0.072629 0.110114
v 0.066341 0.072708 0.075728
v 0.067643 0.072967 0.054204
v 0.068253 0.073088 0.047607
v 0.068972 0.073231 0.041369
v 0.068215 0.071773 0.157569
v 0.069404 0.072265 0.171560
v 0.067350 0.071415 0.142732
v 0.066761 0.071170 0.127168
v 0.066427 0.071032 0.110114
v 0.066413 0.071027 0.092220
v 0.066552 0.071084 0.083659
v 0.066802 0.071188 0.075728
v 0.068028 0.071696 0.054204
v 0.068603 0.071934 0.047607
v 0.069281 0.072214 0.041369
v 0.068823 0.070637 0.157569
v 0.069892 0.071351 0.171560
v 0.068044 0.070116 0.142732
v 0.067514 0.069762 0.127168
v 0.067213 0.069561 0.110114
v 0.067201 0.069553 0.092220
v 0.067326 0.069637 0.083659
v 0.067551 0.069787 0.075728
v 0.068654 0.070524 0.054204
v 0.069172 0.070870 0.047607
v 0.069782 0.071277 0.041369
v 0.069640 0.069640 0.157569
v 0.070550 0.070550 0.171560
v 0.068978 0.068978 0.142732
v 0.068527 0.068527 0.127168
v 0.068272 0.068272 0.110114
v 0.068261 0.068261 0.092220
v 0.068559 0.068559 0.075728
v 0.069127 0.069127 0.061117
v 0.069937 0.069937 0.047607
v 0.070456 0.070456 0.041369
v 0.070637 0.068823 0.157569
v 0.071351 0.069892 0.171560
v 0.070116 0.068044 0.142732
v 0.069762 0.067514 0.127168
v 0.069561 0.067213 0.110114
v 0.069553 0.067201 0.092220
v 0.069637 0.067326 0.083659
v 0.069787 0.067551 0.075728
v 0.070524 0.068654 0.054204
v 0.070870 0.069172 0.047607
v 0.071277 0.069782 0.041369
v 0.071773 0.068215 0.157569
v 0.072265 0.069404 0.171560
v 0.071415 0.067350 0.142732
v 0.071170 0.066761 0.127168
v 0.071032 0.066427 0.110114
v 0.071027 0.066413 0.092220
v 0.071188 0.066802 0.075728
v 0.071696 0.068028 0.054204
v 0.071934 0.068603 0.047607
v 0.072214 0.069281 0.041369
v 0.073006 0.067841 0.157569
v 0.073257 0.069103 0.171560
v 0.072823 0.066922 0.142732
v 0.072699 0.066297 0.127168
v 0.072629 0.065943 0.110114
v 0.072626 0.065928 0.092220
v 0.072708 0.066341 0.075728
v 0.072967 0.067643 0.054204
v 0.073088 0.068253 0.047607
v 0.073231 0.068972 0.041369
v 0.074289 0.069001 0.171560
v 0.074289 0.067715 0.157569
v 0.074289 0.066778 0.142732
v 0.074289 0.066140 0.127168
v 0.074289 0.065723 0.101132
v 0.074289 0.065915 0.083659
v 0.074289 0.066989 0.061117
v 0.074289 0.068134 0.047607
v 0.074289 0.068868 0.041369
v 0.075571 0.067841 0.157569
v 0.075320 0.069103 0.171560
v 0.075754 0.066922 0.142732
v 0.075879 0.066297 0.127168
v 0.075949 0.065943 0.110114
v 0.075952 0.065928 0.092220
v 0.075923 0.066076 0.083659
v 0.075870 0.066341 0.075728
v 0.075611 0.067643 0.054204
v 0.075490 0.068253 0.047607
v 0.075346 0.068972 0.041369
v 0.076804 0.068215 0.157569
v 0.076312 0.069404 0.171560
v 0.077163 0.067350 0.142732
v 0.077407 0.066761 0.127168
v 0.077545 0.066427 0.110114
v 0.077551 0.066413 0.092220
v 0.077390 0.066802 0.075728
v 0.076882 0.068028 0.054204
v 0.076644 0.068603 0.047607
v 0.076363 0.069281 0.041369
v 0.077941 0.068823 0.157569
v 0.077226 0.069892 0.171560
v 0.078462 0.068044 0.142732
v 0.078816 0.067514 0.127168
v 0.079016 0.067213 0.110114
v 0.079025 0.067201 0.092220
v 0.078941 0.067326 0.083659
v 0.078791 0.067551 0.075728
v 0.078053 0.068654 0.054204
v 0.077708 0.069172 0.047607
v 0.077300 0.069782 0.041369
v 0.078937 0.069640 0.157569
v 0.078028 0.070550 0.171560
v 0.079600 0.068978 0.142732
v 0.080051 0.068527 0.127168
v 0.080306 0.068272 0.110114
v 0.080316 0.068261 0.092220
v 0.080019 0.068559 0.075728
v 0.079450 0.069127 0.061117
v 0.078641 0.069937 0.047607
v 0.078122 0.070456 0.041369
v 0.079755 0.070637 0.157569
v 0.078685 0.071351 0.171560
v 0.080534 0.070116 0.142732
v 0.081064 0.069762 0.127168
v 0.081364 0.069561 0.110114
v 0.081377 0.069553 0.092220
v 0.081027 0.069787 0.075728
v 0.079923 0.070524 0.054204
v 0.079406 0.070870 0.047607
v 0.078796 0.071277 0.041369
v 0.080362 0.071773 0.157569
v 0.079174 0.072265 0.171560
v 0.081228 0.071415 0.142732
v 0.081817 0.071170 0.127168
v 0.082151 0.071032 0.110114
v 0.082164 0.071027 0.092220
v 0.081776 0.071188 0.075728
v 0.080549 0.071696 0.054204
v 0.079975 0.071934 0.047607
v 0.079297 0.072214 0.041369
v 0.080736 0.073006 0.157569
v 0.079475 0.073257 0.171560
v 0.081655 0.072823 0.142732
v 0.082281 0.072699 0.127168
v 0.082635 0.072629 0.110114
v 0.082237 0.072708 0.075728
v 0.080935 0.072967 0.054204
v 0.080325 0.073088 0.047607
v 0.079605 0.073231 0.041369
v 0.079576 0.074289 0.171560
v 0.080863 0.074289 0.157569
v 0.081800 0.074289 0.142732
v 0.082437 0.074289 0.127168
v 0.081589 0.074289 0.061117
v 0.080443 0.074289 0.047607
v 0.079709 0.074289 0.041369
v 0.080736 0.075571 0.157569
v 0.079475 0.075320 0.171560
v 0.081655 0.075754 0.142732
v 0.082281 0.075879 0.127168
v 0.082635 0.075949 0.110114
v 0.082237 0.075870 0.075728
v 0.080935 0.075611 0.054204
v 0.080325 0.075490 0.047607
v 0.079605 0.075346 0.041369
v 0.080362 0.076804 0.157569
v 0.079174 0.076312 0.171560
v 0.081228 0.077163 0.142732
v 0.081817 0.077407 0.127168
v 0.082151 0.077545 0.110114
v 0.082164 0.077551 0.092220
v 0.081776 0.077390 0.075728
v 0.080549 0.076882 0.054204
v 0.079975 0.076644 0.047607
v 0.079297 0.076363 0.041369
v 0.079755 0.077941 0.157569
v 0.078685 0.077226 0.171560
v 0.080534 0.078462 0.142732
v 0.081064 0.078816 0.127168
v 0.081364 0.079016 0.110114
v 0.081377 0.079025 0.092220
v 0.081027 0.078791 0.075728
v 0.079923 0.078053 0.054204
v 0.079406 0.077708 0.047607
v 0.078796 0.077300 0.041369
v 0.078937 0.078937 0.157569
v 0.078028 0.078028 0.171560
v 0.079600 0.079600 0.142732
v 0.080051 0.080051 0.127168
v 0.080306 0.080306 0.110114
v 0.080316 0.080316 0.092220
v 0.080019 0.080019 0.075728
v 0.079450 0.079450 0.061117
v 0.078641 0.078641 0.047607
v 0.078122 0.078122 0.041369
v 0.077941 0.079755 0.157569
v 0.077226 0.078685 0.171560
v 0.078462 0.080534 0.142732
v 0.078816 0.081064 0.127168
v 0.079016 0.081364 0.110114
v 0.079025 0.081377 0.092220
v 0.078791 0.081027 0.075728
v 0.078053 0.079923 0.054204
v 0.077708 0.079406 0.047607
v 0.077300 0.078796 0.041369
v 0.076804 0.080362 0.157569
v 0.076312 0.079174 0.171560
v 0.077163 0.081228 0.142732
v 0.077407 0.081817 0.127168
v 0.077545 0.082151 0.110114
v 0.077551 0.082164 0.092220
v 0.077390 0.081776 0.075728
v 0.076882 0.080549 0.054204
v 0.076644 0.079975 0.047607
v 0.076363 0.079297 0.041369
v 0.075571 0.080736 0.157569
v 0.075320 0.079475 0.171560
v 0.075754 0.081655 0.142732
v 0.075879 0.082281 0.127168
v 0.075949 0.082635 0.110114
v 0.075952 0.082649 0.092220
v 0.075923 0.082502 0.083659
v 0.075870 0.082237 0.075728
v 0.075611 0.080935 0.054204
v 0.075490 0.080325 0.047607
v 0.075346 0.079605 0.041369
v 0.074665 0.075578 0.957439
v 0.074143 0.075624 0.957439
v 0.074289 0.074289 0.975000
v 0.073643 0.075467 0.957439
v 0.073241 0.075130 0.957439
v 0.072999 0.074665 0.957439
v 0.072953 0.074143 0.957439
v 0.073111 0.073643 0.957439
v 0.073447 0.073241 0.957439
v 0.073912 0.072999 0.957439
v 0.074435 0.072953 0.957439
v 0.074935 0.073111 0.957439
v 0.075336 0.073447 0.957439
v 0.075578 0.073912 0.957439
v 0.075624 0.074435 0.957439
v 0.075570 0.074692 0.957439
v 0.075318 0.075152 0.957439
v 0.072770 0.075822 0.939392
v 0.072500 0.075496 0.939392
v 0.073104 0.076474 0.929795
v 0.072701 0.076201 0.929795
v 0.073127 0.076835 0.910074
v 0.072653 0.076560 0.910074
v 0.072707 0.076824 0.841431
v 0.073232 0.077084 0.841431
v 0.072850 0.077004 0.729424
v 0.073408 0.077233 0.729424
v 0.073059 0.077124 0.586235
v 0.073636 0.077310 0.586235
v 0.073688 0.077311 0.176234
v 0.074289 0.077370 0.176234
v 0.072299 0.075124 0.939392
v 0.072358 0.075854 0.929795
v 0.072241 0.076197 0.910074
v 0.072243 0.076467 0.841431
v 0.072348 0.076672 0.729424
v 0.072577 0.076851 0.176234
v 0.073110 0.077135 0.176234
v 0.072174 0.074720 0.939392
v 0.072090 0.075448 0.929795
v 0.071908 0.075761 0.910074
v 0.071857 0.076026 0.841431
v 0.071921 0.076247 0.729424
v 0.072110 0.076468 0.176234
v 0.072131 0.074299 0.939392
v 0.071906 0.074996 0.929795
v 0.071667 0.075268 0.910074
v 0.071565 0.075518 0.841431
v 0.071584 0.075747 0.729424
v 0.071691 0.075963 0.586235
v 0.072170 0.073878 0.939392
v 0.071814 0.074518 0.929795
v 0.071526 0.074738 0.910074
v 0.071377 0.074963 0.841431
v 0.071352 0.075192 0.729424
v 0.071414 0.075424 0.586235
v 0.071727 0.076001 0.176234
v 0.072291 0.073472 0.939392
v 0.071817 0.074031 0.929795
v 0.071492 0.074190 0.910074
v 0.071302 0.074382 0.841431
v 0.071232 0.074602 0.729424
v 0.071267 0.074890 0.176234
v 0.071442 0.075468 0.176234
v 0.071915 0.073553 0.929795
v 0.071565 0.073647 0.910074
v 0.071341 0.073797 0.841431
v 0.071230 0.073999 0.729424
v 0.071199 0.074237 0.586235
v 0.072756 0.072770 0.939392
v 0.072104 0.073104 0.929795
v 0.071742 0.073127 0.910074
v 0.071494 0.073232 0.841431
v 0.071345 0.073408 0.729424
v 0.071267 0.073688 0.176234
v 0.071208 0.074289 0.176234
v 0.073081 0.072500 0.939392
v 0.072377 0.072701 0.929795
v 0.072018 0.072653 0.910074
v 0.071753 0.072707 0.841431
v 0.071573 0.072850 0.729424
v 0.073454 0.072299 0.939392
v 0.072723 0.072358 0.929795
v 0.072381 0.072241 0.910074
v 0.072111 0.072243 0.841431
v 0.071906 0.072348 0.729424
v 0.071727 0.072577 0.176234
v 0.071442 0.073110 0.176234
v 0.073858 0.072174 0.939392
v 0.073130 0.072090 0.929795
v 0.072817 0.071908 0.910074
v 0.072552 0.071857 0.841431
v 0.072331 0.071921 0.729424
v 0.072110 0.072110 0.176234
v 0.074279 0.072131 0.939392
v 0.073581 0.071906 0.929795
v 0.073309 0.071667 0.910074
v 0.073060 0.071565 0.841431
v 0.072830 0.071584 0.729424
v 0.072615 0.071691 0.586235
v 0.074700 0.072170 0.939392
v 0.074060 0.071814 0.929795
v 0.073840 0.071526 0.910074
v 0.073615 0.071377 0.841431
v 0.073386 0.071352 0.729424
v 0.073154 0.071414 0.586235
v 0.072577 0.071727 0.176234
v 0.075105 0.072291 0.939392
v 0.074547 0.071817 0.929795
v 0.074387 0.071492 0.910074
v 0.074196 0.071302 0.841431
v 0.073976 0.071232 0.729424
v 0.073688 0.071267 0.176234
v 0.073110 0.071442 0.176234
v 0.075024 0.071915 0.929795
v 0.074931 0.071565 0.910074
v 0.074780 0.071341 0.841431
v 0.074579 0.071230 0.729424
v 0.074340 0.071199 0.586235
v 0.075808 0.072756 0.939392
v 0.075473 0.072104 0.929795
v 0.075450 0.071742 0.910074
v 0.075346 0.071494 0.841431
v 0.075170 0.071345 0.729424
v 0.074890 0.071267 0.176234
v 0.074289 0.071208 0.176234
v 0.076078 0.073081 0.939392
v 0.075877 0.072377 0.929795
v 0.075925 0.072018 0.910074
v 0.075871 0.071753 0.841431
v 0.075727 0.071573 0.729424
v 0.076279 0.073454 0.939392
v 0.076219 0.072723 0.929795
v 0.076336 0.072381 0.910074
v 0.076335 0.072111 0.841431
v 0.076229 0.071906 0.729424
v 0.075468 0.071442 0.176234
v 0.076404 0.073858 0.939392
v 0.076487 0.073130 0.929795
v 0.076669 0.072817 0.910074
v 0.076721 0.072552 0.841431
v 0.076657 0.072331 0.729424
v 0.076468 0.072110 0.176234
v 0.076001 0.071727 0.176234
v 0.076447 0.074279 0.939392
v 0.076671 0.073581 0.929795
v 0.076911 0.073309 0.910074
v 0.077013 0.073060 0.841431
v 0.076993 0.072830 0.729424
v 0.076886 0.072615 0.586235
v 0.076408 0.074700 0.939392
v 0.076764 0.074060 0.929795
v 0.077051 0.073840 0.910074
v 0.077200 0.073615 0.841431
v 0.077226 0.073386 0.729424
v 0.077135 0.073110 0.176234
v 0.076851 0.072577 0.176234
v 0.076287 0.075105 0.939392
v 0.076761 0.074547 0.929795
v 0.077086 0.074387 0.910074
v 0.077276 0.074196 0.841431
v 0.077346 0.073976 0.729424
v 0.077311 0.073688 0.176234
v 0.076663 0.075024 0.929795
v 0.077013 0.074931 0.910074
v 0.077236 0.074780 0.841431
v 0.077348 0.074579 0.729424
v 0.075822 0.075808 0.939392
v 0.076474 0.075473 0.929795
v 0.076835 0.075450 0.910074
v 0.077084 0.075346 0.841431
v 0.077233 0.075170 0.729424
v 0.077311 0.074890 0.176234
v 0.077370 0.074289 0.176234
v 0.075496 0.076078 0.939392
v 0.076201 0.075877 0.929795
v 0.076560 0.075925 0.910074
v 0.076824 0.075871 0.841431
v 0.077004 0.075727 0.729424
v 0.075124 0.076279 0.939392
v 0.075854 0.076219 0.929795
v 0.076197 0.076336 0.910074
v 0.076467 0.076335 0.841431
v 0.076672 0.076229 0.729424
v 0.077135 0.075468 0.176234
v 0.074720 0.076404 0.939392
v 0.075448 0.076487 0.929795
v 0.075761 0.076669 0.910074
v 0.076026 0.076721 0.841431
v 0.076247 0.076657 0.729424
v 0.076468 0.076468 0.176234
v 0.076851 0.076001 0.176234
v 0.074299 0.076447 0.939392
v 0.074996 0.076671 0.929795
v 0.075268 0.076911 0.910074
v 0.075518 0.077013 0.841431
v 0.075747 0.076993 0.729424
v 0.075963 0.076886 0.586235
v 0.073878 0.076408 0.939392
v 0.074518 0.076764 0.929795
v 0.074738 0.077051 0.910074
v 0.074963 0.077200 0.841431
v 0.075192 0.077226 0.729424
v 0.076001 0.076851 0.176234
v 0.073472 0.076287 0.939392
v 0.074031 0.076761 0.929795
v 0.074190 0.077086 0.910074
v 0.074382 0.077276 0.841431
v 0.074601 0.077346 0.729424
v 0.074890 0.077311 0.176234
v 0.075468 0.077135 0.176234
v 0.073553 0.076663 0.929795
v 0.073647 0.077013 0.910074
v 0.073797 0.077236 0.841431
v 0.073999 0.077348 0.729424
v 0.074237 0.077379 0.586235
v 0.074289 0.079626 0.171638
v 0.073248 0.079523 0.171638
v 0.074289 0.079924 0.171749
v 0.071258 0.081606 0.171780
v 0.078689 0.080875 0.171780
v 0.071781 0.080342 0.171817
v 0.074289 0.088205 0.171250
v 0.076174 0.083765 0.171660
v 0.070950 0.091076 0.170807
v 0.074289 0.091404 0.170807
v 0.074289 0.096132 0.170025
v 0.067547 0.108184 0.167737
v 0.074289 0.108848 0.167737
v 0.074289 0.123578 0.164999
v 0.064673 0.122631 0.164999
v 0.074289 0.081001 0.175804
v 0.071720 0.080490 0.175804
v 0.074289 0.084674 0.175276
v 0.074289 0.092142 0.173939
v 0.071538 0.088117 0.174653
v 0.070066 0.095518 0.173139
v 0.074289 0.095934 0.173139
v 0.069319 0.099272 0.172255
v 0.074289 0.103629 0.171280
v 0.067802 0.106901 0.170206
v 0.074289 0.107540 0.170206
v 0.074289 0.111492 0.169036
v 0.067031 0.110777 0.169036
v 0.074289 0.115483 0.167776
v 0.065466 0.118644 0.166428
v 0.072202 0.079328 0.171701
v 0.068921 0.082323 0.171660
v 0.068963 0.087146 0.171250
v 0.067739 0.090102 0.170807
v 0.065930 0.094470 0.170025
v 0.061064 0.106217 0.167737
v 0.055427 0.119826 0.164999
v 0.068519 0.082924 0.175276
v 0.067457 0.090783 0.173939
v 0.064541 0.097823 0.172255
v 0.063061 0.101396 0.171280
v 0.061564 0.105009 0.170206
v 0.058524 0.112347 0.167776
v 0.071259 0.078824 0.171701
v 0.064780 0.088520 0.170807
v 0.062153 0.092451 0.170025
v 0.055089 0.103023 0.167737
v 0.046905 0.115271 0.164999
v 0.066456 0.086012 0.174653
v 0.064370 0.089133 0.173939
v 0.060137 0.095469 0.172255
v 0.057988 0.098684 0.171280
v 0.053620 0.105222 0.169036
v 0.049164 0.111891 0.166428
v 0.070515 0.078063 0.171638
v 0.069390 0.077562 0.171786
v 0.067703 0.078689 0.171780
v 0.064448 0.084129 0.171250
v 0.062186 0.086391 0.170807
v 0.054654 0.093924 0.168977
v 0.039436 0.109141 0.164999
v 0.069543 0.079035 0.175804
v 0.064319 0.084259 0.174653
v 0.058984 0.089594 0.173139
v 0.053542 0.095035 0.171280
v 0.050777 0.097801 0.170206
v 0.045160 0.103418 0.167776
v 0.069754 0.077319 0.171701
v 0.061432 0.079614 0.171250
v 0.060058 0.083798 0.170807
v 0.056127 0.086424 0.170025
v 0.045554 0.093489 0.167737
v 0.033307 0.101672 0.164999
v 0.065654 0.080058 0.175276
v 0.062566 0.082122 0.174653
v 0.059444 0.084208 0.173939
v 0.053109 0.088441 0.172255
v 0.049893 0.090589 0.171280
v 0.043356 0.094958 0.169036
v 0.036687 0.099414 0.166428
v 0.069250 0.076376 0.171701
v 0.067862 0.075567 0.171817
v 0.058476 0.080839 0.170807
v 0.054108 0.082648 0.170025
v 0.042361 0.087514 0.167737
v 0.028752 0.093151 0.164999
v 0.068088 0.076857 0.175804
v 0.057794 0.081121 0.173939
v 0.050755 0.084037 0.172255
v 0.047182 0.085517 0.171280
v 0.043569 0.087013 0.170206
v 0.036230 0.090053 0.167776
v 0.068940 0.075353 0.171701
v 0.068397 0.074289 0.171786
v 0.064812 0.076174 0.171660
v 0.060372 0.074289 0.171250
v 0.057502 0.077628 0.170807
v 0.040394 0.081031 0.167737
v 0.025947 0.083905 0.164999
v 0.063904 0.074289 0.175276
v 0.060460 0.077039 0.174653
v 0.053060 0.078511 0.173139
v 0.049306 0.079258 0.172255
v 0.041677 0.080776 0.170206
v 0.037801 0.081547 0.169036
v 0.029934 0.083112 0.166428
v 0.068952 0.074289 0.171638
v 0.057173 0.074289 0.170807
v 0.052445 0.074289 0.170025
v 0.039730 0.074289 0.167737
v 0.025000 0.074289 0.164999
v 0.067577 0.074289 0.175804
v 0.056435 0.074289 0.173939
v 0.052644 0.074289 0.173139
v 0.044949 0.074289 0.171280
v 0.041038 0.074289 0.170206
v 0.037086 0.074289 0.169036
v 0.033094 0.074289 0.167776
v 0.069054 0.073248 0.171638
v 0.068762 0.073189 0.171749
v 0.068235 0.071781 0.171817
v 0.066971 0.071258 0.171780
v 0.060640 0.071574 0.171250
v 0.057502 0.070950 0.170807
v 0.040394 0.067547 0.167737
v 0.025947 0.064673 0.164999
v 0.068088 0.071720 0.175804
v 0.064694 0.070315 0.175276
v 0.060460 0.071538 0.174653
v 0.053060 0.070066 0.173139
v 0.049306 0.069319 0.172255
v 0.041677 0.067802 0.170206
v 0.037801 0.067031 0.169036
v 0.029934 0.065466 0.166428
v 0.069250 0.072202 0.171701
v 0.068846 0.072034 0.171786
v 0.061432 0.068963 0.171250
v 0.058476 0.067739 0.170807
v 0.054108 0.065930 0.170025
v 0.042361 0.061064 0.167737
v 0.028752 0.055427 0.164999
v 0.057794 0.067457 0.173939
v 0.050755 0.064541 0.172255
v 0.047182 0.063061 0.171280
v 0.043569 0.061564 0.170206
v 0.036230 0.058524 0.167776
v 0.069754 0.071259 0.171701
v 0.069655 0.069655 0.171817
v 0.060058 0.064780 0.170807
v 0.056127 0.062153 0.170025
v 0.045554 0.055089 0.167737
v 0.033307 0.046905 0.164999
v 0.069543 0.069543 0.175804
v 0.065654 0.068519 0.175276
v 0.062566 0.066456 0.174653
v 0.059444 0.064370 0.173939
v 0.053109 0.060137 0.172255
v 0.049893 0.057988 0.171280
v 0.043356 0.053620 0.169036
v 0.036687 0.049164 0.166428
v 0.070432 0.070432 0.171701
v 0.070123 0.070123 0.171786
v 0.069888 0.067703 0.171780
v 0.068921 0.066255 0.171660
v 0.064448 0.064448 0.171250
v 0.062186 0.062186 0.170807
v 0.054654 0.054654 0.168977
v 0.039436 0.039436 0.164999
v 0.068519 0.065654 0.175276
v 0.064319 0.064319 0.174653
v 0.058984 0.058984 0.173139
v 0.053542 0.053542 0.171280
v 0.050777 0.050777 0.170206
v 0.045160 0.045160 0.167776
v 0.071259 0.069754 0.171701
v 0.068963 0.061432 0.171250
v 0.064780 0.060058 0.170807
v 0.062153 0.056127 0.170025
v 0.055089 0.045554 0.167737
v 0.046905 0.033307 0.164999
v 0.071720 0.068088 0.175804
v 0.066456 0.062566 0.174653
v 0.064370 0.059444 0.173939
v 0.060137 0.053109 0.172255
v 0.057988 0.049893 0.171280
v 0.053620 0.043356 0.169036
v 0.049164 0.036687 0.166428
v 0.072202 0.069250 0.171701
v 0.067739 0.058476 0.170807
v 0.065930 0.054108 0.170025
v 0.061064 0.042361 0.167737
v 0.055427 0.028752 0.164999
v 0.067457 0.057794 0.173939
v 0.064541 0.050755 0.172255
v 0.063061 0.047182 0.171280
v 0.061564 0.043569 0.170206
v 0.058524 0.036230 0.167776
v 0.073225 0.068940 0.171701
v 0.074289 0.068397 0.171786
v 0.072404 0.064812 0.171660
v 0.074289 0.060372 0.171250
v 0.070950 0.057502 0.170807
v 0.067547 0.040394 0.167737
v 0.064673 0.025947 0.164999
v 0.074289 0.063904 0.175276
v 0.071538 0.060460 0.174653
v 0.070066 0.053060 0.173139
v 0.069319 0.049306 0.172255
v 0.067802 0.041677 0.170206
v 0.067031 0.037801 0.169036
v 0.065466 0.029934 0.166428
v 0.074289 0.068952 0.171638
v 0.074289 0.057173 0.170807
v 0.074289 0.052445 0.170025
v 0.074289 0.039730 0.167737
v 0.074289 0.025000 0.164999
v 0.074289 0.067577 0.175804
v 0.074289 0.056435 0.173939
v 0.074289 0.052644 0.173139
v 0.074289 0.044949 0.171280
v 0.074289 0.041038 0.170206
v 0.074289 0.037086 0.169036
v 0.074289 0.033094 0.167776
v 0.075330 0.069054 0.171638
v 0.075388 0.068762 0.171749
v 0.078922 0.069655 0.171817
v 0.077320 0.066971 0.171780
v 0.077004 0.060640 0.171250
v 0.077628 0.057502 0.170807
v 0.081031 0.040394 0.167737
v 0.083905 0.025947 0.164999
v 0.076857 0.068088 0.175804
v 0.078263 0.064694 0.175276
v 0.077039 0.060460 0.174653
v 0.078511 0.053060 0.173139
v 0.079258 0.049306 0.172255
v 0.080776 0.041677 0.170206
v 0.081547 0.037801 0.169036
v 0.083112 0.029934 0.166428
v 0.076376 0.069250 0.171701
v 0.079614 0.061432 0.171250
v 0.080839 0.058476 0.170807
v 0.082648 0.054108 0.170025
v 0.087514 0.042361 0.167737
v 0.093151 0.028752 0.164999
v 0.081121 0.057794 0.173939
v 0.084037 0.050755 0.172255
v 0.085517 0.047182 0.171280
v 0.087013 0.043569 0.170206
v 0.090053 0.036230 0.167776
v 0.077319 0.069754 0.171701
v 0.078455 0.070123 0.171786
v 0.083798 0.060058 0.170807
v 0.086424 0.056127 0.170025
v 0.093489 0.045554 0.167737
v 0.101672 0.033307 0.164999
v 0.080058 0.065654 0.175276
v 0.082122 0.062566 0.174653
v 0.084208 0.059444 0.173939
v 0.088441 0.053109 0.172255
v 0.090589 0.049893 0.171280
v 0.094958 0.043356 0.169036
v 0.099414 0.036687 0.166428
v 0.078145 0.070432 0.171701
v 0.080875 0.069888 0.171780
v 0.082323 0.068921 0.171660
v 0.084129 0.064448 0.171250
v 0.086391 0.062186 0.170807
v 0.093924 0.054654 0.168977
v 0.109141 0.039436 0.164999
v 0.079035 0.069543 0.175804
v 0.084259 0.064319 0.174653
v 0.089594 0.058984 0.173139
v 0.095035 0.053542 0.171280
v 0.097801 0.050777 0.170206
v 0.103418 0.045160 0.167776
v 0.078824 0.071259 0.171701
v 0.080715 0.073011 0.171817
v 0.087146 0.068963 0.171250
v 0.088520 0.064780 0.170807
v 0.092451 0.062153 0.170025
v 0.103023 0.055089 0.167737
v 0.115271 0.046905 0.164999
v 0.082924 0.068519 0.175276
v 0.086012 0.066456 0.174653
v 0.089133 0.064370 0.173939
v 0.095469 0.060137 0.172255
v 0.098684 0.057988 0.171280
v 0.105222 0.053620 0.169036
v 0.111891 0.049164 0.166428
v 0.079328 0.072202 0.171701
v 0.090102 0.067739 0.170807
v 0.094470 0.065930 0.170025
v 0.106217 0.061064 0.167737
v 0.119826 0.055427 0.164999
v 0.080490 0.071720 0.175804
v 0.090783 0.067457 0.173939
v 0.097823 0.064541 0.172255
v 0.101396 0.063061 0.171280
v 0.105009 0.061564 0.170206
v 0.112347 0.058524 0.167776
v 0.079638 0.073225 0.171701
v 0.080180 0.074289 0.171786
v 0.082209 0.074289 0.171780
v 0.088205 0.074289 0.171250
v 0.091076 0.070950 0.170807
v 0.108184 0.067547 0.167737
v 0.122631 0.064673 0.164999
v 0.084674 0.074289 0.175276
v 0.088117 0.071538 0.174653
v 0.095518 0.070066 0.173139
v 0.099272 0.069319 0.172255
v 0.106901 0.067802 0.170206
v 0.110777 0.067031 0.169036
v 0.118644 0.065466 0.166428
v 0.079626 0.074289 0.171638
v 0.091404 0.074289 0.170807
v 0.096132 0.074289 0.170025
v 0.108848 0.074289 0.167737
v 0.123578 0.074289 0.164999
v 0.081001 0.074289 0.175804
v 0.092142 0.074289 0.173939
v 0.095934 0.074289 0.173139
v 0.103629 0.074289 0.171280
v 0.107540 0.074289 0.170206
v 0.111492 0.074289 0.169036
v 0.115483 0.074289 0.167776
v 0.079523 0.075330 0.171638
v 0.079816 0.075388 0.171749
v 0.080342 0.076796 0.171817
v 0.081606 0.077320 0.171780
v 0.087938 0.077004 0.171250
v 0.091076 0.077628 0.170807
v 0.108184 0.081031 0.167737
v 0.122631 0.083905 0.164999
v 0.080490 0.076857 0.175804
v 0.083883 0.078263 0.175276
v 0.088117 0.077039 0.174653
v 0.095518 0.078511 0.173139
v 0.099272 0.079258 0.172255
v 0.106901 0.080776 0.170206
v 0.110777 0.081547 0.169036
v 0.118644 0.083112 0.166428
v 0.079328 0.076376 0.171701
v 0.082323 0.079657 0.171660
v 0.087146 0.079614 0.171250
v 0.090102 0.080839 0.170807
v 0.094470 0.082648 0.170025
v 0.106217 0.087514 0.167737
v 0.119826 0.093151 0.164999
v 0.090783 0.081121 0.173939
v 0.097823 0.084037 0.172255
v 0.101396 0.085517 0.171280
v 0.105009 0.087013 0.170206
v 0.112347 0.090053 0.167776
v 0.078824 0.077319 0.171701
v 0.079187 0.077562 0.171786
v 0.088520 0.083798 0.170807
v 0.092451 0.086424 0.170025
v 0.103023 0.093489 0.167737
v 0.115271 0.101672 0.164999
v 0.079035 0.079035 0.175804
v 0.082924 0.080058 0.175276
v 0.086012 0.082122 0.174653
v 0.089133 0.084208 0.173939
v 0.095469 0.088441 0.172255
v 0.098684 0.090589 0.171280
v 0.105222 0.094958 0.169036
v 0.111891 0.099414 0.166428
v 0.078063 0.078063 0.171638
v 0.084129 0.084129 0.171250
v 0.086391 0.086391 0.170807
v 0.093924 0.093924 0.168977
v 0.109141 0.109141 0.164999
v 0.080058 0.082924 0.175276
v 0.084259 0.084259 0.174653
v 0.089594 0.089594 0.173139
v 0.095035 0.095035 0.171280
v 0.097801 0.097801 0.170206
v 0.103418 0.103418 0.167776
v 0.077319 0.078824 0.171701
v 0.077562 0.079187 0.171786
v 0.079614 0.087146 0.171250
v 0.083798 0.088520 0.170807
v 0.086424 0.092451 0.170025
v 0.093489 0.103023 0.167737
v 0.101672 0.115271 0.164999
v 0.076857 0.080490 0.175804
v 0.082122 0.086012 0.174653
v 0.084208 0.089133 0.173939
v 0.088441 0.095469 0.172255
v 0.090589 0.098684 0.171280
v 0.094958 0.105222 0.169036
v 0.099414 0.111891 0.166428
v 0.076331 0.079220 0.171638
v 0.076543 0.079732 0.171786
v 0.080839 0.090102 0.170807
v 0.082648 0.094470 0.170025
v 0.087514 0.106217 0.167737
v 0.093151 0.119826 0.164999
v 0.078263 0.083883 0.175276
v 0.081121 0.090783 0.173939
v 0.084037 0.097823 0.172255
v 0.085517 0.101396 0.171280
v 0.087013 0.105009 0.170206
v 0.090053 0.112347 0.167776
v 0.075353 0.079638 0.171701
v 0.077004 0.087938 0.171250
v 0.077628 0.091076 0.170807
v 0.081031 0.108184 0.167737
v 0.083905 0.122631 0.164999
v 0.077039 0.088117 0.174653
v 0.078511 0.095518 0.173139
v 0.079258 0.099272 0.172255
v 0.080776 0.106901 0.170206
v 0.081547 0.110777 0.169036
v 0.083112 0.118644 0.166428
v 0.074289 0.080208 0.036334
v 0.074289 0.079066 0.036994
v 0.075212 0.078929 0.036686
v 0.076088 0.078633 0.036489
v 0.076895 0.078189 0.036408
v 0.078684 0.076109 0.036858
v 0.079008 0.075228 0.037231
v 0.080513 0.075686 0.036334
v 0.078212 0.076910 0.036593
v 0.077609 0.077609 0.036443
v 0.079068 0.074289 0.037007
v 0.078957 0.073360 0.036877
v 0.078135 0.068370 0.036334
v 0.076986 0.070251 0.037529
v 0.076836 0.070158 0.037611
v 0.077687 0.070890 0.037194
v 0.078258 0.071637 0.036972
v 0.078685 0.072468 0.036866
v 0.072440 0.069824 0.037373
v 0.071741 0.070158 0.037611
v 0.070442 0.068370 0.036334
v 0.076138 0.069824 0.037373
v 0.073351 0.069575 0.037195
v 0.075227 0.069575 0.037195
v 0.074289 0.069491 0.037135
v 0.069510 0.074289 0.037007
v 0.069570 0.075228 0.037231
v 0.068065 0.075686 0.036334
v 0.069621 0.073360 0.036877
v 0.071591 0.070251 0.037529
v 0.070890 0.070890 0.037194
v 0.070320 0.071637 0.036972
v 0.069893 0.072468 0.036866
v 0.073366 0.078929 0.036686
v 0.072489 0.078633 0.036489
v 0.071683 0.078189 0.036408
v 0.069894 0.076109 0.036858
v 0.070366 0.076910 0.036593
v 0.070968 0.077609 0.036443
v 0.074289 0.080208 0.028778
v 0.080513 0.075686 0.028778
v 0.074289 0.073664 0.025000
v 0.078135 0.068370 0.028778
v 0.070442 0.068370 0.028778
v 0.068065 0.075686 0.028778
f 1 2 3
f 3 4 1
f 1 4 5
f 2 1 5
f 6 7 8
f 8 9 6
f 6 9 10
f 7 6 10
f 11 12 13
f 11 14 12
f 14 15 12
f 14 16 15
f 16 17 15
f 16 18 17
f 18 19 17
f 18 20 19
f 20 21 19
f 20 22 21
f 23 21 22
f 22 24 23
f 25 23 24
f 24 26 25
f 27 25 26
f 28 27 26
f 26 29 28
f 12 30 31
f 13 12 31
f 15 32 30
f 12 15 30
f 17 33 32
f 15 17 32
f 19 34 33
f 17 19 33
f 21 35 34
f 19 21 34
f 36 35 21
f 21 23 36
f 37 36 23
f 23 25 37
f 38 37 25
f 25 27 38
f 39 38 27
f 27 28 39
f 30 40 41
f 31 30 41
f 32 42 40
f 30 32 40
f 33 43 42
f 32 33 42
f 34 44 43
f 33 34 43
f 35 45 44
f 34 35 44
f 46 45 35
f 35 36 46
f 47 46 36
f 48 47 36
f 36 37 48
f 49 48 37
f 37 38 49
f 50 49 38
f 38 39 50
f 40 51 52
f 41 40 52
f 42 53 51
f 40 42 51
f 43 54 53
f 42 43 53
f 44 55 54
f 43 44 54
f 45 56 55
f 44 45 55
f 45 46 56
f 57 56 46
f 46 47 57
f 58 57 47
f 47 48 58
f 59 58 48
f 48 49 59
f 60 59 49
f 49 50 60
f 61 62 52
f 52 51 61
f 63 61 51
f 51 53 63
f 64 63 53
f 53 54 64
f 65 64 54
f 54 55 65
f 66 65 55
f 55 56 66
f 56 67 66
f 57 68 67
f 56 57 67
f 58 69 68
f 57 58 68
f 59 70 69
f 58 59 69
f 60 71 70
f 59 60 70
f 72 73 62
f 62 61 72
f 74 72 61
f 61 63 74
f 75 74 63
f 63 64 75
f 76 75 64
f 64 65 76
f 77 76 65
f 65 66 77
f 67 78 77
f 66 67 77
f 68 79 78
f 67 68 78
f 69 80 79
f 68 69 79
f 70 81 80
f 69 70 80
f 71 82 81
f 70 71 81
f 83 84 73
f 73 72 83
f 85 83 72
f 72 74 85
f 86 85 74
f 74 75 86
f 87 86 75
f 75 76 87
f 3 87 76
f 76 77 3
f 78 88 3
f 77 78 3
f 78 79 88
f 80 89 88
f 79 80 88
f 81 90 89
f 80 81 89
f 82 91 90
f 81 82 90
f 84 83 92
f 83 93 92
f 83 85 93
f 94 93 85
f 85 86 94
f 95 94 86
f 86 87 95
f 87 2 95
f 87 3 2
f 3 88 4
f 88 96 4
f 88 89 96
f 89 97 96
f 89 90 97
f 91 98 97
f 90 91 97
f 92 99 100
f 92 93 99
f 93 101 99
f 93 94 101
f 94 102 101
f 102 94 95
f 95 103 102
f 95 2 103
f 2 5 103
f 104 5 4
f 4 96 104
f 96 105 104
f 96 97 105
f 106 105 97
f 107 106 97
f 97 98 107
f 99 108 109
f 100 99 109
f 101 110 108
f 99 101 108
f 102 111 110
f 101 102 110
f 103 112 111
f 102 103 111
f 5 113 112
f 103 5 112
f 114 113 5
f 5 104 114
f 115 114 104
f 116 115 104
f 104 105 116
f 117 116 105
f 105 106 117
f 118 117 106
f 106 107 118
f 108 119 120
f 109 108 120
f 110 121 119
f 108 110 119
f 111 122 121
f 110 111 121
f 112 123 122
f 111 112 122
f 113 124 123
f 112 113 123
f 125 124 113
f 113 114 125
f 126 125 114
f 114 115 126
f 127 126 115
f 115 116 127
f 128 127 116
f 116 117 128
f 129 128 117
f 117 118 129
f 119 130 131
f 120 119 131
f 121 132 130
f 119 121 130
f 122 133 132
f 121 122 132
f 123 134 133
f 122 123 133
f 124 135 134
f 123 124 134
f 124 125 135
f 136 135 125
f 125 126 136
f 137 136 126
f 126 127 137
f 138 137 127
f 127 128 138
f 139 138 128
f 128 129 139
f 140 141 131
f 131 130 140
f 142 140 130
f 130 132 142
f 143 142 132
f 132 133 143
f 144 143 133
f 133 134 144
f 145 144 134
f 134 135 145
f 135 146 145
f 136 147 146
f 135 136 146
f 137 148 147
f 136 137 147
f 138 149 148
f 137 138 148
f 139 150 149
f 138 139 149
f 151 152 141
f 141 140 151
f 153 151 140
f 140 142 153
f 154 153 142
f 142 143 154
f 155 154 143
f 143 144 155
f 156 155 144
f 144 145 156
f 146 157 156
f 145 146 156
f 146 147 157
f 148 158 157
f 147 148 157
f 149 159 158
f 148 149 158
f 150 160 159
f 149 150 159
f 161 162 152
f 152 151 161
f 163 161 151
f 151 153 163
f 164 163 153
f 153 154 164
f 165 164 154
f 154 155 165
f 166 165 155
f 155 156 166
f 157 167 166
f 156 157 166
f 158 168 167
f 157 158 167
f 159 169 168
f 158 159 168
f 160 170 169
f 159 160 169
f 162 161 171
f 172 171 161
f 161 163 172
f 173 172 163
f 163 164 173
f 164 174 173
f 164 165 174
f 175 174 165
f 165 166 175
f 166 176 175
f 176 166 167
f 167 177 176
f 167 168 177
f 168 178 177
f 178 168 169
f 170 179 178
f 169 170 178
f 171 180 181
f 180 171 172
f 172 182 180
f 182 172 173
f 173 183 182
f 173 174 183
f 174 184 183
f 174 175 184
f 175 185 184
f 175 176 185
f 186 185 176
f 176 187 186
f 176 177 187
f 188 187 177
f 177 178 188
f 189 188 178
f 190 189 178
f 178 179 190
f 180 191 192
f 181 180 192
f 182 193 191
f 180 182 191
f 183 194 193
f 182 183 193
f 184 195 194
f 183 184 194
f 185 196 195
f 184 185 195
f 197 196 185
f 185 186 197
f 186 187 197
f 198 197 187
f 187 188 198
f 199 198 188
f 188 189 199
f 200 199 189
f 189 190 200
f 191 201 202
f 192 191 202
f 193 203 201
f 191 193 201
f 194 204 203
f 193 194 203
f 195 205 204
f 194 195 204
f 196 206 205
f 195 196 205
f 207 206 196
f 196 197 207
f 208 207 197
f 209 208 197
f 197 198 209
f 210 209 198
f 198 199 210
f 211 210 199
f 199 200 211
f 201 212 213
f 202 201 213
f 203 214 212
f 201 203 212
f 204 215 214
f 203 204 214
f 205 216 215
f 204 205 215
f 206 217 216
f 205 206 216
f 206 207 217
f 218 217 207
f 207 208 218
f 219 218 208
f 208 209 219
f 220 219 209
f 209 210 220
f 221 220 210
f 210 211 221
f 222 223 213
f 213 212 222
f 224 222 212
f 212 214 224
f 225 224 214
f 214 215 225
f 226 225 215
f 215 216 226
f 227 226 216
f 216 217 227
f 217 228 227
f 217 218 228
f 219 229 228
f 218 219 228
f 220 230 229
f 219 220 229
f 221 231 230
f 220 221 230
f 232 233 223
f 223 222 232
f 234 232 222
f 222 224 234
f 235 234 224
f 224 225 235
f 236 235 225
f 225 226 236
f 237 236 226
f 226 227 237
f 228 238 237
f 227 228 237
f 229 239 238
f 228 229 238
f 230 240 239
f 229 230 239
f 231 241 240
f 230 231 240
f 242 243 233
f 233 232 242
f 244 242 232
f 232 234 244
f 245 244 234
f 234 235 245
f 246 245 235
f 235 236 246
f 8 246 236
f 236 237 8
f 238 247 8
f 237 238 8
f 239 248 247
f 238 239 247
f 240 249 248
f 239 240 248
f 241 250 249
f 240 241 249
f 243 242 251
f 242 252 251
f 242 244 252
f 253 252 244
f 244 245 253
f 254 253 245
f 245 246 254
f 7 254 246
f 246 8 7
f 8 247 9
f 247 255 9
f 255 247 248
f 248 256 255
f 248 249 256
f 250 257 256
f 249 250 256
f 251 258 259
f 251 252 258
f 252 260 258
f 252 253 260
f 253 261 260
f 253 254 261
f 254 262 261
f 254 7 262
f 7 10 262
f 263 10 9
f 9 255 263
f 264 263 255
f 255 256 264
f 265 264 256
f 256 257 266
f 256 266 265
f 258 267 268
f 259 258 268
f 260 269 267
f 258 260 267
f 261 270 269
f 260 261 269
f 262 271 270
f 261 262 270
f 10 272 271
f 262 10 271
f 273 272 10
f 10 263 273
f 274 273 263
f 263 264 274
f 275 274 264
f 264 265 275
f 276 275 265
f 265 266 276
f 267 277 278
f 268 267 278
f 269 279 277
f 267 269 277
f 270 280 279
f 269 270 279
f 271 281 280
f 270 271 280
f 272 282 281
f 271 272 281
f 283 282 272
f 272 273 283
f 284 283 273
f 273 274 284
f 285 284 274
f 274 275 285
f 286 285 275
f 275 276 286
f 277 287 288
f 278 277 288
f 279 289 287
f 277 279 287
f 280 290 289
f 279 280 289
f 281 291 290
f 280 281 290
f 282 292 291
f 281 282 291
f 282 283 292
f 293 292 283
f 294 293 283
f 283 284 294
f 295 294 284
f 284 285 295
f 296 295 285
f 285 286 296
f 297 298 288
f 288 287 297
f 299 297 287
f 287 289 299
f 300 299 289
f 289 290 300
f 301 300 290
f 290 291 301
f 302 301 291
f 291 292 302
f 292 303 302
f 292 293 303
f 294 304 303
f 293 294 303
f 295 305 304
f 294 295 304
f 296 306 305
f 295 296 305
f 307 308 298
f 298 297 307
f 309 307 297
f 297 299 309
f 310 309 299
f 299 300 310
f 311 310 300
f 300 301 311
f 312 311 301
f 301 302 312
f 303 313 312
f 302 303 312
f 304 314 313
f 303 304 313
f 305 315 314
f 304 305 314
f 306 316 315
f 305 306 315
f 317 318 308
f 308 307 317
f 319 317 307
f 307 309 319
f 320 319 309
f 309 310 320
f 321 320 310
f 310 311 321
f 322 321 311
f 311 312 322
f 313 323 322
f 312 313 322
f 313 324 323
f 314 325 324
f 313 314 324
f 315 326 325
f 314 315 325
f 316 327 326
f 315 316 326
f 318 317 11
f 14 11 317
f 317 319 14
f 16 14 319
f 319 320 16
f 18 16 320
f 320 321 18
f 20 18 321
f 321 322 20
f 322 22 20
f 322 323 22
f 323 324 22
f 324 24 22
f 324 325 24
f 325 26 24
f 325 326 26
f 327 29 26
f 326 327 26
f 328 329 330
f 329 331 330
f 331 332 330
f 332 333 330
f 333 334 330
f 334 335 330
f 335 336 330
f 336 337 330
f 337 338 330
f 338 339 330
f 339 340 330
f 340 341 330
f 341 342 330
f 342 343 330
f 343 344 330
f 344 328 330
f 334 333 332
f 334 332 331
f 334 331 329
f 334 329 328
f 335 334 328
f 336 335 328
f 337 336 328
f 338 337 328
f 338 328 344
f 339 338 344
f 340 339 344
f 341 340 344
f 341 344 343
f 342 341 343
f 332 345 346
f 347 348 345
f 349 350 348
f 347 349 348
f 351 350 349
f 349 352 351
f 353 351 352
f 352 354 353
f 355 353 354
f 354 356 355
f 357 355 356
f 356 358 357
f 359 333 332
f 332 346 359
f 360 346 345
f 345 348 360
f 361 360 348
f 348 350 361
f 362 361 350
f 350 351 362
f 351 353 363
f 351 363 362
f 364 363 353
f 353 355 364
f 365 364 355
f 355 357 365
f 333 359 366
f 367 359 346
f 346 360 367
f 368 367 360
f 360 361 368
f 369 368 361
f 361 362 369
f 370 369 362
f 362 363 370
f 371 370 363
f 363 364 371
f 372 334 333
f 333 366 372
f 373 366 359
f 359 367 373
f 374 373 367
f 367 368 374
f 368 369 375
f 368 375 374
f 376 375 369
f 369 370 376
f 377 376 370
f 370 371 377
f 334 372 378
f 379 372 366
f 366 373 379
f 380 379 373
f 373 374 380
f 374 375 381
f 374 381 380
f 382 381 375
f 375 376 382
f 383 382 376
f 376 377 383
f 384 383 377
f 377 371 384
f 385 335 334
f 334 378 385
f 386 378 372
f 372 379 386
f 387 386 379
f 379 380 387
f 388 387 380
f 380 381 388
f 389 388 381
f 381 382 389
f 382 383 390
f 382 390 389
f 391 390 383
f 383 384 391
f 392 385 378
f 378 386 392
f 393 392 386
f 386 387 393
f 394 393 387
f 387 388 394
f 395 394 388
f 388 389 395
f 389 390 396
f 389 396 395
f 397 336 335
f 335 385 397
f 398 397 385
f 385 392 398
f 399 398 392
f 392 393 399
f 393 394 400
f 393 400 399
f 401 400 394
f 394 395 401
f 395 396 402
f 395 402 401
f 403 402 396
f 396 390 403
f 336 397 404
f 398 405 397
f 399 406 405
f 398 399 405
f 407 406 399
f 399 400 407
f 408 407 400
f 400 401 408
f 409 337 336
f 336 404 409
f 410 404 397
f 397 405 410
f 411 410 405
f 405 406 411
f 412 411 406
f 406 407 412
f 407 408 413
f 407 413 412
f 414 413 408
f 408 401 414
f 415 414 401
f 401 402 415
f 337 409 416
f 417 409 404
f 404 410 417
f 418 417 410
f 410 411 418
f 419 418 411
f 411 412 419
f 420 419 412
f 412 413 420
f 421 420 413
f 413 414 421
f 422 338 337
f 337 416 422
f 423 416 409
f 409 417 423
f 424 423 417
f 417 418 424
f 418 419 425
f 418 425 424
f 426 425 419
f 419 420 426
f 427 426 420
f 420 421 427
f 338 422 428
f 429 422 416
f 416 423 429
f 430 429 423
f 423 424 430
f 424 425 431
f 424 431 430
f 432 431 425
f 425 426 432
f 433 432 426
f 426 427 433
f 434 433 427
f 427 421 434
f 435 339 338
f 338 428 435
f 436 428 422
f 422 429 436
f 437 436 429
f 429 430 437
f 438 437 430
f 430 431 438
f 439 438 431
f 431 432 439
f 432 433 440
f 432 440 439
f 441 440 433
f 433 434 441
f 442 435 428
f 428 436 442
f 443 442 436
f 436 437 443
f 444 443 437
f 437 438 444
f 445 444 438
f 438 439 445
f 439 440 446
f 439 446 445
f 447 340 339
f 339 435 447
f 448 447 435
f 435 442 448
f 449 448 442
f 442 443 449
f 443 444 450
f 443 450 449
f 451 450 444
f 444 445 451
f 445 446 452
f 445 452 451
f 453 452 446
f 446 440 453
f 340 447 454
f 448 455 447
f 449 456 455
f 448 449 455
f 457 456 449
f 449 450 457
f 458 457 450
f 450 451 458
f 459 341 340
f 340 454 459
f 460 454 447
f 447 455 460
f 461 460 455
f 455 456 461
f 462 461 456
f 456 457 462
f 457 458 463
f 457 463 462
f 464 458 451
f 451 452 464
f 341 459 465
f 466 459 454
f 454 460 466
f 467 466 460
f 460 461 467
f 468 467 461
f 461 462 468
f 469 468 462
f 462 463 469
f 470 469 463
f 463 458 470
f 458 464 471
f 458 471 470
f 472 342 341
f 341 465 472
f 473 465 459
f 459 466 473
f 474 473 466
f 466 467 474
f 467 468 475
f 467 475 474
f 476 475 468
f 468 469 476
f 477 476 469
f 469 470 477
f 478 343 342
f 342 472 478
f 479 472 465
f 465 473 479
f 480 479 473
f 473 474 480
f 474 475 481
f 474 481 480
f 482 481 475
f 475 476 482
f 483 482 476
f 476 477 483
f 484 483 477
f 477 470 484
f 343 478 485
f 486 478 472
f 472 479 486
f 487 486 479
f 479 480 487
f 488 487 480
f 480 481 488
f 489 488 481
f 481 482 489
f 482 483 490
f 482 490 489
f 485 344 343
f 491 485 478
f 478 486 491
f 492 491 486
f 486 487 492
f 493 492 487
f 487 488 493
f 494 493 488
f 488 489 494
f 344 485 495
f 496 495 485
f 485 491 496
f 497 496 491
f 491 492 497
f 492 493 498
f 492 498 497
f 499 498 493
f 493 494 499
f 494 489 500
f 494 500 499
f 501 500 489
f 489 490 501
f 502 328 344
f 344 495 502
f 496 503 495
f 497 504 503
f 496 497 503
f 505 504 497
f 497 498 505
f 506 505 498
f 498 499 506
f 328 502 507
f 508 502 495
f 495 503 508
f 509 508 503
f 503 504 509
f 510 509 504
f 504 505 510
f 505 506 511
f 505 511 510
f 512 506 499
f 499 500 512
f 328 507 513
f 514 507 502
f 502 508 514
f 515 514 508
f 508 509 515
f 516 515 509
f 509 510 516
f 517 516 510
f 510 511 517
f 518 517 511
f 511 506 518
f 506 512 519
f 506 519 518
f 520 329 328
f 328 513 520
f 521 513 507
f 507 514 521
f 522 521 514
f 514 515 522
f 515 516 523
f 515 523 522
f 524 523 516
f 516 517 524
f 525 524 517
f 517 518 525
f 329 520 526
f 527 520 513
f 513 521 527
f 528 527 521
f 521 522 528
f 522 523 529
f 522 529 528
f 530 529 523
f 523 524 530
f 531 524 525
f 525 518 531
f 532 331 329
f 329 526 532
f 533 526 520
f 520 527 533
f 534 533 527
f 527 528 534
f 535 534 528
f 528 529 535
f 536 535 529
f 529 530 536
f 530 524 537
f 530 537 536
f 538 537 524
f 524 531 538
f 539 532 526
f 526 533 539
f 540 539 533
f 533 534 540
f 541 540 534
f 534 535 541
f 542 541 535
f 535 536 542
f 536 537 543
f 536 543 542
f 345 332 331
f 331 532 345
f 347 345 532
f 532 539 347
f 349 347 539
f 539 540 349
f 540 541 352
f 540 352 349
f 354 352 541
f 541 542 354
f 542 543 356
f 542 356 354
f 358 356 543
f 543 537 358
f 544 11 13
f 545 544 13
f 544 545 546
f 547 548 549
f 550 551 547
f 552 553 550
f 552 554 553
f 554 552 555
f 555 556 554
f 555 557 556
f 557 555 558
f 559 560 365
f 537 559 365
f 561 560 559
f 561 562 563
f 562 564 563
f 562 565 564
f 566 564 565
f 565 567 566
f 567 568 566
f 567 569 568
f 570 571 568
f 569 570 568
f 572 573 571
f 570 572 571
f 557 558 573
f 572 557 573
f 545 13 31
f 574 545 31
f 546 545 574
f 549 546 574
f 547 575 576
f 576 550 547
f 552 550 576
f 577 552 576
f 578 552 577
f 555 552 578
f 579 555 578
f 580 555 579
f 580 558 555
f 561 581 560
f 563 582 581
f 561 563 581
f 563 564 582
f 564 583 582
f 564 566 583
f 584 583 566
f 566 568 584
f 568 585 584
f 568 571 585
f 586 585 571
f 571 573 586
f 558 580 586
f 573 558 586
f 574 31 41
f 587 574 41
f 549 574 587
f 588 577 576
f 578 577 588
f 589 578 588
f 578 589 590
f 590 579 578
f 590 580 579
f 580 590 591
f 581 582 592
f 582 593 592
f 594 593 582
f 582 583 594
f 584 595 594
f 583 584 594
f 585 596 595
f 584 585 595
f 586 597 596
f 585 586 596
f 580 591 597
f 586 580 597
f 587 41 52
f 598 587 52
f 599 587 598
f 599 549 587
f 600 549 599
f 600 547 549
f 547 600 575
f 576 575 601
f 588 576 601
f 602 588 601
f 588 602 603
f 603 589 588
f 603 590 589
f 604 590 603
f 591 590 604
f 560 605 371
f 365 560 371
f 560 581 605
f 581 592 606
f 593 607 606
f 592 593 606
f 593 594 607
f 594 608 607
f 594 595 608
f 609 608 595
f 595 596 609
f 610 609 596
f 596 597 610
f 604 610 597
f 597 591 604
f 52 62 611
f 611 598 52
f 611 599 598
f 612 575 600
f 601 575 612
f 601 612 613
f 613 602 601
f 603 602 613
f 614 603 613
f 615 603 614
f 615 604 603
f 604 615 616
f 605 581 617
f 606 618 617
f 581 606 617
f 619 618 606
f 606 607 619
f 607 620 619
f 607 608 620
f 608 621 620
f 609 622 621
f 608 609 621
f 610 623 622
f 609 610 622
f 604 616 623
f 610 604 623
f 62 73 624
f 624 611 62
f 611 624 625
f 625 599 611
f 600 599 625
f 626 613 612
f 613 626 627
f 627 614 613
f 615 614 627
f 628 615 627
f 629 615 628
f 616 615 629
f 605 630 390
f 371 605 390
f 605 617 630
f 618 631 617
f 618 619 631
f 620 632 631
f 619 620 631
f 633 632 620
f 620 621 633
f 634 633 621
f 621 622 634
f 635 634 622
f 622 623 635
f 629 635 623
f 623 616 629
f 73 84 636
f 636 624 73
f 624 636 637
f 637 625 624
f 638 600 625
f 612 600 638
f 639 612 638
f 612 639 640
f 640 626 612
f 640 627 626
f 627 640 641
f 641 628 627
f 641 629 628
f 642 629 641
f 630 617 643
f 644 643 617
f 617 631 644
f 631 645 644
f 631 632 645
f 632 646 645
f 633 647 646
f 632 633 646
f 633 634 647
f 634 648 647
f 635 649 648
f 634 635 648
f 642 649 635
f 635 629 642
f 84 92 650
f 650 636 84
f 637 636 650
f 651 640 639
f 652 640 651
f 641 640 652
f 653 641 652
f 654 641 653
f 642 641 654
f 390 630 655
f 630 643 655
f 644 656 643
f 644 645 656
f 645 657 656
f 646 658 657
f 645 646 657
f 646 647 658
f 647 659 658
f 647 648 660
f 647 660 659
f 661 660 648
f 648 649 661
f 654 661 649
f 649 642 654
f 650 92 100
f 662 650 100
f 650 662 663
f 663 637 650
f 637 663 664
f 625 637 664
f 638 625 664
f 665 638 664
f 639 638 665
f 666 639 665
f 639 666 667
f 667 651 639
f 667 652 651
f 652 667 668
f 668 653 652
f 668 654 653
f 654 668 669
f 655 670 415
f 390 655 415
f 655 643 671
f 655 671 670
f 672 671 643
f 643 656 672
f 656 673 672
f 656 657 673
f 674 673 657
f 657 658 674
f 658 675 674
f 658 659 675
f 660 676 675
f 659 660 675
f 661 677 676
f 660 661 676
f 677 661 654
f 654 669 677
f 662 100 109
f 678 662 109
f 663 662 678
f 679 663 678
f 679 664 663
f 680 666 665
f 667 666 680
f 681 667 680
f 682 667 681
f 668 667 682
f 683 668 682
f 684 668 683
f 684 669 668
f 672 685 671
f 672 673 685
f 673 686 685
f 673 674 686
f 687 686 674
f 674 675 687
f 675 688 687
f 675 676 688
f 689 688 676
f 676 677 689
f 669 684 689
f 677 669 689
f 678 109 120
f 690 678 120
f 679 678 690
f 691 664 679
f 664 691 665
f 692 681 680
f 682 681 692
f 693 682 692
f 682 693 694
f 694 683 682
f 694 684 683
f 684 694 695
f 696 421 415
f 415 670 696
f 697 696 670
f 670 671 697
f 698 697 671
f 671 685 698
f 685 699 698
f 700 699 685
f 685 686 700
f 687 701 700
f 686 687 700
f 688 702 701
f 687 688 701
f 689 703 702
f 688 689 702
f 684 695 703
f 689 684 703
f 690 120 131
f 704 690 131
f 690 704 705
f 705 679 690
f 691 679 705
f 706 665 691
f 665 706 707
f 707 680 665
f 680 707 708
f 692 680 708
f 709 692 708
f 692 709 710
f 710 693 692
f 710 694 693
f 711 694 710
f 695 694 711
f 697 712 696
f 713 712 697
f 697 698 713
f 699 714 713
f 698 699 713
f 699 700 714
f 700 715 714
f 700 701 715
f 716 715 701
f 701 702 716
f 717 716 702
f 702 703 717
f 711 717 703
f 703 695 711
f 131 141 718
f 718 704 131
f 705 704 718
f 708 707 719
f 708 719 720
f 720 709 708
f 710 709 720
f 721 710 720
f 722 710 721
f 722 711 710
f 711 722 723
f 421 696 724
f 712 724 696
f 713 725 712
f 726 725 713
f 713 714 726
f 714 727 726
f 714 715 727
f 715 728 727
f 716 729 728
f 715 716 728
f 717 730 729
f 716 717 729
f 711 723 730
f 717 711 730
f 141 152 731
f 731 718 141
f 718 731 691
f 691 705 718
f 732 720 719
f 720 732 733
f 733 721 720
f 722 721 733
f 734 722 733
f 735 722 734
f 723 722 735
f 421 724 440
f 725 736 712
f 725 726 736
f 727 737 736
f 726 727 736
f 738 737 727
f 727 728 738
f 739 738 728
f 728 729 739
f 740 739 729
f 729 730 740
f 735 740 730
f 730 723 735
f 152 162 741
f 741 731 152
f 731 741 742
f 742 691 731
f 706 691 742
f 743 707 706
f 719 707 743
f 744 719 743
f 719 744 745
f 745 732 719
f 745 733 732
f 733 745 746
f 746 734 733
f 746 735 734
f 747 735 746
f 724 712 748
f 749 748 712
f 712 736 749
f 736 750 749
f 736 737 750
f 737 751 750
f 738 752 751
f 737 738 751
f 738 739 752
f 739 753 752
f 740 754 753
f 739 740 753
f 747 754 740
f 740 735 747
f 162 171 755
f 755 741 162
f 742 741 755
f 744 756 745
f 756 757 745
f 757 758 746
f 746 745 757
f 759 746 758
f 747 746 759
f 440 724 760
f 760 724 748
f 749 761 748
f 749 750 761
f 750 762 761
f 762 750 751
f 751 763 762
f 751 752 763
f 752 764 763
f 765 764 752
f 752 753 765
f 753 754 766
f 753 766 765
f 759 766 754
f 754 747 759
f 755 171 181
f 767 755 181
f 755 767 768
f 768 742 755
f 769 742 768
f 706 742 769
f 769 770 743
f 743 706 769
f 744 743 770
f 771 744 770
f 772 756 744
f 772 744 771
f 772 757 756
f 773 758 757
f 773 757 772
f 773 759 758
f 759 773 774
f 760 775 464
f 440 760 464
f 776 775 760
f 760 748 776
f 748 761 777
f 748 777 776
f 761 778 777
f 761 762 778
f 779 778 762
f 762 763 779
f 763 780 779
f 763 764 780
f 765 781 780
f 764 765 780
f 766 782 781
f 765 766 781
f 759 774 782
f 766 759 782
f 767 181 192
f 783 767 192
f 768 767 783
f 769 768 783
f 784 771 770
f 772 771 784
f 785 772 784
f 786 772 785
f 773 772 786
f 787 773 786
f 788 773 787
f 788 774 773
f 777 789 776
f 777 778 789
f 778 790 789
f 778 779 790
f 791 790 779
f 779 780 791
f 780 792 791
f 780 781 792
f 793 792 781
f 781 782 793
f 774 788 793
f 782 774 793
f 783 192 202
f 794 783 202
f 769 783 794
f 795 769 794
f 796 785 784
f 786 785 796
f 797 786 796
f 786 797 798
f 798 787 786
f 798 788 787
f 788 798 799
f 775 470 464
f 775 776 800
f 801 800 776
f 776 789 801
f 789 802 801
f 803 802 789
f 789 790 803
f 791 804 803
f 790 791 803
f 792 805 804
f 791 792 804
f 793 806 805
f 792 793 805
f 788 799 806
f 793 788 806
f 794 202 213
f 807 794 213
f 794 807 795
f 808 770 769
f 770 808 809
f 809 784 770
f 784 809 810
f 796 784 810
f 811 796 810
f 796 811 812
f 812 797 796
f 812 798 797
f 813 798 812
f 799 798 813
f 775 814 470
f 775 800 814
f 800 801 815
f 802 816 815
f 801 802 815
f 802 803 816
f 803 817 816
f 803 804 817
f 818 817 804
f 804 805 818
f 819 818 805
f 805 806 819
f 813 819 806
f 806 799 813
f 213 223 820
f 820 807 213
f 795 807 820
f 821 795 820
f 795 821 769
f 810 809 822
f 810 822 823
f 823 811 810
f 812 811 823
f 824 812 823
f 825 812 824
f 825 813 812
f 813 825 826
f 814 800 827
f 815 828 827
f 800 815 827
f 829 828 815
f 815 816 829
f 816 830 829
f 816 817 830
f 817 831 830
f 818 832 831
f 817 818 831
f 819 833 832
f 818 819 832
f 813 826 833
f 819 813 833
f 223 233 834
f 834 820 223
f 820 834 821
f 808 769 821
f 835 823 822
f 823 835 836
f 836 824 823
f 825 824 836
f 837 825 836
f 838 825 837
f 826 825 838
f 814 839 490
f 470 814 490
f 814 827 839
f 828 840 827
f 828 829 840
f 830 841 840
f 829 830 840
f 842 841 830
f 830 831 842
f 843 842 831
f 831 832 843
f 844 843 832
f 832 833 844
f 838 844 833
f 833 826 838
f 233 243 845
f 845 834 233
f 834 845 846
f 846 821 834
f 847 808 821
f 847 809 808
f 822 809 847
f 848 822 847
f 822 848 849
f 849 835 822
f 849 836 835
f 836 849 850
f 850 837 836
f 850 838 837
f 851 838 850
f 839 827 852
f 853 852 827
f 827 840 853
f 840 854 853
f 840 841 854
f 841 855 854
f 842 856 855
f 841 842 855
f 842 843 856
f 843 857 856
f 844 858 857
f 843 844 857
f 851 858 844
f 844 838 851
f 243 251 859
f 859 845 243
f 846 845 859
f 860 849 848
f 861 849 860
f 861 862 850
f 850 849 861
f 862 863 850
f 851 850 863
f 490 839 864
f 839 852 864
f 853 865 852
f 853 854 865
f 854 866 865
f 855 867 866
f 854 855 866
f 855 856 867
f 856 868 867
f 869 868 856
f 856 857 869
f 857 858 870
f 857 870 869
f 858 851 863
f 858 863 870
f 859 251 259
f 871 859 259
f 859 871 872
f 872 846 859
f 846 872 873
f 821 846 873
f 847 821 873
f 874 847 873
f 875 848 847
f 848 875 876
f 876 860 848
f 876 861 860
f 877 862 861
f 877 861 876
f 877 863 862
f 863 877 878
f 864 879 512
f 490 864 512
f 864 852 880
f 864 880 879
f 881 880 852
f 852 865 881
f 865 882 881
f 865 866 882
f 866 867 883
f 866 883 882
f 867 884 883
f 867 868 884
f 869 885 884
f 868 869 884
f 870 886 885
f 869 870 885
f 863 878 886
f 870 863 886
f 871 259 268
f 887 871 268
f 872 871 887
f 873 872 887
f 888 847 874
f 847 888 889
f 889 875 847
f 876 875 889
f 890 876 889
f 891 876 890
f 877 876 891
f 892 877 891
f 893 877 892
f 893 878 877
f 881 894 880
f 881 882 894
f 882 895 894
f 882 883 895
f 896 895 883
f 883 884 896
f 884 897 896
f 884 885 897
f 898 897 885
f 885 886 898
f 878 893 898
f 886 878 898
f 887 268 278
f 899 887 278
f 873 887 899
f 900 873 899
f 901 890 889
f 891 890 901
f 902 891 901
f 891 902 903
f 903 892 891
f 903 893 892
f 893 903 904
f 512 879 905
f 906 905 879
f 879 880 906
f 907 906 880
f 880 894 907
f 894 908 907
f 909 908 894
f 894 895 909
f 896 910 909
f 895 896 909
f 897 911 910
f 896 897 910
f 898 912 911
f 897 898 911
f 893 904 912
f 898 893 912
f 899 278 288
f 913 899 288
f 900 899 913
f 548 873 900
f 548 874 873
f 874 548 888
f 889 888 914
f 901 889 914
f 915 901 914
f 901 915 916
f 916 902 901
f 916 903 902
f 917 903 916
f 904 903 917
f 512 905 518
f 906 918 905
f 919 918 906
f 906 907 919
f 908 920 919
f 907 908 919
f 908 909 920
f 909 921 920
f 909 910 921
f 922 921 910
f 910 911 922
f 923 922 911
f 911 912 923
f 917 923 912
f 912 904 917
f 288 298 924
f 924 913 288
f 924 900 913
f 925 900 924
f 900 925 548
f 926 888 548
f 914 888 926
f 914 926 927
f 927 915 914
f 916 915 927
f 928 916 927
f 929 916 928
f 929 917 916
f 917 929 930
f 518 905 931
f 918 931 905
f 919 932 918
f 933 932 919
f 919 920 933
f 920 934 933
f 920 921 934
f 921 935 934
f 922 936 935
f 921 922 935
f 923 937 936
f 922 923 936
f 917 930 937
f 923 917 937
f 298 308 938
f 938 924 298
f 939 924 938
f 939 925 924
f 548 925 939
f 940 927 926
f 927 940 941
f 941 928 927
f 929 928 941
f 942 929 941
f 943 929 942
f 930 929 943
f 518 931 537
f 918 944 931
f 932 945 944
f 918 932 944
f 932 933 945
f 934 946 945
f 933 934 945
f 947 946 934
f 934 935 947
f 948 947 935
f 935 936 948
f 949 948 936
f 936 937 949
f 943 949 937
f 937 930 943
f 308 318 950
f 950 938 308
f 950 939 938
f 926 548 551
f 951 926 551
f 926 951 952
f 952 940 926
f 952 941 940
f 941 952 953
f 953 942 941
f 953 943 942
f 954 943 953
f 944 945 955
f 945 956 955
f 945 946 956
f 946 957 956
f 947 958 957
f 946 947 957
f 947 948 958
f 948 959 958
f 949 960 959
f 948 949 959
f 954 960 949
f 949 943 954
f 318 11 544
f 544 950 318
f 546 950 544
f 546 939 950
f 549 939 546
f 939 549 548
f 551 548 547
f 550 951 551
f 952 951 550
f 553 952 550
f 554 952 553
f 953 952 554
f 556 953 554
f 557 953 556
f 954 953 557
f 537 931 559
f 944 561 559
f 931 944 559
f 955 562 561
f 944 955 561
f 955 956 562
f 956 565 562
f 957 567 565
f 956 957 565
f 957 958 567
f 958 569 567
f 570 569 958
f 958 959 570
f 572 570 959
f 959 960 572
f 557 572 960
f 960 954 557
f 961 962 963
f 961 963 964
f 961 964 965
f 966 967 968
f 969 966 968
f 970 969 968
f 965 970 968
f 961 965 968
f 968 967 971
f 968 971 972
f 973 968 972
f 974 975 973
f 976 974 973
f 977 976 973
f 978 977 973
f 972 978 973
f 979 980 981
f 973 975 982
f 983 979 981
f 983 981 973
f 973 982 984
f 985 983 973
f 973 984 985
f 986 987 988
f 989 986 988
f 989 988 981
f 981 980 990
f 981 990 991
f 981 991 992
f 993 989 981
f 992 993 981
f 994 962 961
f 995 994 961
f 996 995 961
f 988 987 997
f 988 997 998
f 988 998 999
f 996 961 988
f 999 996 988
f 962 29 327
f 963 962 327
f 316 964 963
f 963 327 316
f 316 306 965
f 965 964 316
f 970 965 306
f 296 970 306
f 969 970 296
f 286 969 296
f 966 969 286
f 276 966 286
f 967 966 276
f 266 967 276
f 967 266 257
f 971 967 257
f 971 257 250
f 972 971 250
f 250 241 978
f 978 972 250
f 977 978 241
f 231 977 241
f 976 977 231
f 221 976 231
f 974 976 221
f 211 974 221
f 974 211 200
f 975 974 200
f 982 975 200
f 982 200 190
f 984 982 190
f 984 190 179
f 985 984 179
f 983 985 179
f 170 983 179
f 979 983 170
f 160 979 170
f 160 150 990
f 980 979 160
f 990 980 160
f 990 150 139
f 991 990 139
f 991 139 129
f 992 991 129
f 992 129 118
f 993 992 118
f 993 118 107
f 107 989 993
f 107 98 986
f 986 989 107
f 98 91 987
f 987 986 98
f 987 91 82
f 997 987 82
f 997 82 71
f 998 997 71
f 998 71 60
f 999 998 60
f 999 60 50
f 996 999 50
f 996 50 39
f 39 995 996
f 39 28 994
f 994 995 39
f 962 994 28
f 29 962 28
f 1000 1001 1002
f 1001 1003 1002
f 1003 1004 1002
f 1004 1005 1002
f 1005 1000 1002
f 1000 961 968
f 968 1001 1000
f 1001 968 973
f 973 1003 1001
f 1003 973 981
f 981 1004 1003
f 1004 981 988
f 988 1005 1004
f 1005 988 961
f 961 1000 1005
