# Unified Preprocessed OBJ file from m704.obj
# Applied remeshing: Yes
# Applied 4-step normalization: centering, PCA alignment, flipping, scaling
# Generated on 2025-09-29 15:19:56

v -0.214794 0.004335 0.007403
v -0.214682 0.002064 0.007406
v -0.214292 -0.005834 0.007419
v -0.213904 -0.013731 0.007432
v -0.213894 -0.013947 0.007432
v -0.241500 -0.017405 0.007444
v -0.243049 0.003098 0.007411
v -0.213783 -0.016191 0.007436
v -0.213711 -0.017651 0.007212
v -0.213703 -0.017830 0.007185
v -0.241376 -0.019041 0.007193
v -0.213636 -0.019191 0.006524
v -0.241261 -0.020568 0.006450
v -0.213628 -0.019358 0.006442
v -0.213571 -0.020528 0.005388
v -0.241162 -0.021879 0.005267
v -0.213563 -0.020670 0.005259
v -0.213519 -0.021569 0.003884
v -0.241087 -0.022886 0.003724
v -0.213517 -0.021635 0.003784
v -0.213515 -0.021679 0.003716
v -0.213487 -0.022246 0.002114
v -0.241041 -0.023520 0.001926
v -0.213484 -0.022315 0.001918
v -0.213474 -0.022509 0.000199
v -0.241025 -0.023738 -0.000004
v -0.213473 -0.022533 -0.000012
v -0.213474 -0.022510 -0.000221
v -0.213484 -0.022321 -0.001943
v -0.241041 -0.023527 -0.001934
v -0.213488 -0.022253 -0.002139
v -0.213516 -0.021692 -0.003742
v -0.241089 -0.022898 -0.003734
v -0.213521 -0.021582 -0.003911
v -0.213566 -0.020688 -0.005289
v -0.241165 -0.021896 -0.005280
v -0.213519 -0.021647 -0.003811
v -0.213573 -0.020546 -0.005417
v -0.213631 -0.019379 -0.006476
v -0.241264 -0.020589 -0.006467
v -0.213639 -0.019212 -0.006557
v -0.213707 -0.017854 -0.007224
v -0.241380 -0.019065 -0.007215
v -0.213714 -0.017675 -0.007251
v -0.213786 -0.016216 -0.007480
v -0.241503 -0.017429 -0.007472
v -0.213897 -0.013971 -0.007484
v -0.213907 -0.013755 -0.007484
v -0.214296 -0.005858 -0.007497
v -0.214685 0.002040 -0.007510
v -0.214797 0.004311 -0.007514
v -0.243053 0.003074 -0.007505
v -0.214807 0.004493 -0.007485
v -0.214879 0.005949 -0.007262
v -0.243176 0.004711 -0.007254
v -0.214887 0.006120 -0.007179
v -0.214953 0.007477 -0.006519
v -0.243291 0.006237 -0.006511
v -0.214959 0.007624 -0.006388
v -0.215017 0.008790 -0.005337
v -0.243390 0.007548 -0.005328
v -0.215023 0.008902 -0.005164
v -0.215065 0.009798 -0.003793
v -0.243464 0.008555 -0.003785
v -0.215069 0.009869 -0.003592
v -0.215073 0.009944 -0.003380
v -0.215097 0.010433 -0.001996
v -0.243512 0.009189 -0.001987
v -0.215098 0.010458 -0.001780
v -0.215107 0.010652 -0.000066
v -0.243528 0.009409 -0.000057
v -0.215097 0.010463 0.001649
v -0.243511 0.009196 0.001873
v -0.215097 0.010439 0.001865
v -0.215071 0.009955 0.003250
v -0.215067 0.009880 0.003463
v -0.243463 0.008567 0.003673
v -0.215064 0.009810 0.003665
v -0.215020 0.008919 0.005038
v -0.243388 0.007565 0.005220
v -0.215014 0.008807 0.005211
v -0.214956 0.007645 0.006266
v -0.243288 0.006258 0.006407
v -0.214950 0.007498 0.006398
v -0.214884 0.006143 0.007063
v -0.243173 0.004735 0.007155
v -0.214875 0.005973 0.007146
v -0.214803 0.004518 0.007374
v 0.016295 -0.008483 -0.003925
v 0.016418 -0.011598 -0.010640
v 0.016556 -0.014993 -0.009526
v 0.016407 -0.011259 -0.002030
v 0.016674 -0.017906 -0.007758
v 0.016765 -0.020141 -0.005456
v 0.016408 -0.011252 0.002185
v 0.016823 -0.021544 -0.002778
v 0.016842 -0.022019 0.000095
v 0.016824 -0.021535 0.002967
v 0.016768 -0.020123 0.005640
v 0.016677 -0.017881 0.007934
v 0.016560 -0.014961 0.009694
v 0.016297 -0.008470 0.004071
v 0.015174 0.019235 -0.010690
v 0.015367 0.014501 -0.002228
v 0.015106 0.021005 0.000024
v 0.015037 0.022634 -0.009588
v 0.014920 0.025554 -0.007828
v 0.014829 0.027795 -0.005534
v 0.014773 0.029208 -0.002861
v 0.014754 0.029692 0.000010
v 0.014774 0.029217 0.002884
v 0.014832 0.027814 0.005562
v 0.014923 0.025579 0.007864
v 0.015368 0.014509 0.002299
v 0.015041 0.022666 0.009632
v 0.015179 0.019270 0.010746
v 0.016423 -0.011562 0.010796
v 0.017347 -0.008402 -0.003923
v 0.016420 0.014569 -0.002227
v 0.017349 -0.008389 0.004069
v 0.016421 0.014576 0.002298
v 0.017460 -0.011164 0.002184
v 0.017459 -0.011170 -0.002030
v 0.016158 0.021077 0.000024
v 0.013137 -0.015505 -0.015677
v 0.011591 0.022791 -0.015739
v 0.010544 0.022554 -0.014683
v 0.012075 -0.015350 -0.014622
v 0.013307 -0.019721 -0.014040
v 0.012233 -0.019258 -0.013104
v 0.013454 -0.023341 -0.011440
v 0.012371 -0.022656 -0.010664
v 0.013567 -0.026115 -0.008056
v 0.012477 -0.025252 -0.007498
v 0.013639 -0.027857 -0.004118
v 0.012544 -0.026875 -0.003826
v 0.013663 -0.028445 0.000106
v 0.012566 -0.027424 0.000104
v 0.012546 -0.026862 0.004034
v 0.013641 -0.027843 0.004329
v 0.012481 -0.025227 0.007701
v 0.013571 -0.026088 0.008261
v 0.012376 -0.022620 0.010858
v 0.013460 -0.023303 0.011636
v 0.012239 -0.019215 0.013287
v 0.013313 -0.019675 0.014224
v 0.012082 -0.015301 0.014792
v 0.013144 -0.015454 0.015847
v 0.010551 0.022603 0.014730
v 0.011598 0.022842 0.015785
v 0.010393 0.026511 0.013213
v 0.011427 0.027060 0.014148
v 0.010256 0.029909 0.010773
v 0.011280 0.030678 0.011548
v 0.010149 0.032505 0.007607
v 0.011166 0.033453 0.008164
v 0.010083 0.034128 0.003934
v 0.011096 0.035195 0.004226
v 0.010060 0.034677 0.000003
v 0.011071 0.035783 0.000001
v 0.011094 0.035181 -0.004221
v 0.010081 0.034115 -0.003925
v 0.011163 0.033426 -0.008153
v 0.010146 0.032480 -0.007592
v 0.011275 0.030640 -0.011528
v 0.010251 0.029873 -0.010749
v 0.011420 0.027013 -0.014116
v 0.010387 0.026468 -0.013179
v 0.010406 0.026032 -0.008661
v 0.011487 0.025415 -0.007827
v 0.011604 0.022495 -0.009587
v 0.010532 0.022893 -0.010552
v 0.010307 0.028475 -0.006161
v 0.011397 0.027657 -0.005533
v 0.010246 0.030038 -0.003202
v 0.011341 0.029069 -0.002860
v 0.010225 0.030579 0.000010
v 0.011322 0.029553 0.000011
v 0.011342 0.029078 0.002885
v 0.010247 0.030048 0.003225
v 0.011400 0.027675 0.005563
v 0.010310 0.028496 0.006189
v 0.011490 0.025440 0.007865
v 0.010410 0.026060 0.008697
v 0.011609 0.022527 0.009633
v 0.010537 0.022928 0.010598
v 0.011746 0.019131 0.010747
v 0.010685 0.019259 0.011802
v 0.012990 -0.011700 0.010797
v 0.011944 -0.011909 0.011853
v 0.013127 -0.015099 0.009695
v 0.012092 -0.015582 0.010660
v 0.013245 -0.018020 0.007935
v 0.012218 -0.018721 0.008770
v 0.013335 -0.020261 0.005641
v 0.012315 -0.021164 0.006270
v 0.013391 -0.021672 0.002968
v 0.012378 -0.022727 0.003311
v 0.013410 -0.022158 0.000096
v 0.012399 -0.023268 0.000098
v 0.012377 -0.022737 -0.003116
v 0.013390 -0.021682 -0.002777
v 0.012312 -0.021185 -0.006080
v 0.013332 -0.020280 -0.005455
v 0.012214 -0.018749 -0.008588
v 0.013242 -0.018045 -0.007757
v 0.012087 -0.015617 -0.010489
v 0.013123 -0.015131 -0.009525
v 0.011939 -0.011948 -0.011693
v 0.012985 -0.011735 -0.010639
v 0.010680 0.019220 -0.011744
v 0.011741 0.019096 -0.010689
v 0.015022 0.022930 -0.015740
v 0.016569 -0.015366 -0.015678
v 0.017616 -0.015125 -0.014623
v 0.016086 0.022778 -0.014685
v 0.016221 0.019443 -0.011746
v 0.016073 0.023116 -0.010553
v 0.017479 -0.011724 -0.011695
v 0.017627 -0.015393 -0.010491
v 0.017754 -0.018525 -0.008590
v 0.017854 -0.020961 -0.006082
v 0.017917 -0.022513 -0.003118
v 0.017940 -0.023045 0.000096
v 0.017918 -0.022502 0.003309
v 0.017857 -0.020940 0.006268
v 0.017758 -0.018497 0.008768
v 0.017632 -0.015358 0.010659
v 0.017484 -0.011685 0.011851
v 0.016226 0.019482 0.011800
v 0.016077 0.023151 0.010596
v 0.015950 0.026283 0.008695
v 0.015852 0.028719 0.006187
v 0.015788 0.030271 0.003223
v 0.015766 0.030803 0.000008
v 0.015786 0.030261 -0.003204
v 0.015849 0.028698 -0.006163
v 0.015946 0.026255 -0.008663
v 0.014853 0.027152 -0.014117
v 0.015928 0.026691 -0.013180
v 0.014707 0.030779 -0.011529
v 0.015791 0.030098 -0.010751
v 0.014596 0.033565 -0.008154
v 0.015686 0.032703 -0.007594
v 0.014526 0.035319 -0.004222
v 0.015621 0.034339 -0.003927
v 0.014503 0.035922 0.000000
v 0.015600 0.034900 0.000002
v 0.015623 0.034352 0.003933
v 0.014528 0.035333 0.004225
v 0.015689 0.032728 0.007605
v 0.014599 0.033592 0.008163
v 0.015796 0.030133 0.010771
v 0.014712 0.030817 0.011547
v 0.015934 0.026734 0.013211
v 0.014860 0.027199 0.014147
v 0.016092 0.022826 0.014729
v 0.015030 0.022981 0.015784
v 0.017622 -0.015077 0.014791
v 0.016576 -0.015315 0.015846
v 0.017779 -0.018991 0.013286
v 0.016746 -0.019536 0.014223
v 0.017917 -0.022397 0.010856
v 0.016892 -0.023164 0.011635
v 0.018021 -0.025003 0.007699
v 0.017004 -0.025949 0.008260
v 0.018086 -0.026639 0.004032
v 0.017074 -0.027704 0.004328
v 0.018108 -0.027200 0.000103
v 0.017096 -0.028307 0.000105
v 0.017072 -0.027718 -0.004119
v 0.018084 -0.026652 -0.003827
v 0.017000 -0.025976 -0.008057
v 0.018017 -0.025028 -0.007500
v 0.016886 -0.023202 -0.011441
v 0.017912 -0.022433 -0.010666
v 0.016740 -0.019583 -0.014041
v 0.017773 -0.019034 -0.013106
v 0.012770 -0.006277 0.007368
v 0.011717 -0.006324 0.007368
v 0.010888 0.014212 0.007335
v 0.011942 0.014258 0.007334
v 0.012837 -0.007916 0.007117
v 0.011783 -0.007963 0.007117
v 0.012898 -0.009444 0.006373
v 0.011845 -0.009491 0.006374
v 0.012951 -0.010758 0.005191
v 0.011897 -0.010804 0.005191
v 0.011937 -0.011813 0.003648
v 0.012991 -0.011767 0.003648
v 0.013017 -0.012402 0.001850
v 0.011963 -0.012448 0.001850
v 0.013024 -0.012621 -0.000080
v 0.011971 -0.012667 -0.000080
v 0.013016 -0.012408 -0.002011
v 0.011962 -0.012455 -0.002010
v 0.012989 -0.011779 -0.003810
v 0.011936 -0.011825 -0.003810
v 0.012948 -0.010775 -0.005357
v 0.011895 -0.010822 -0.005357
v 0.011842 -0.009512 -0.006544
v 0.012895 -0.009465 -0.006544
v 0.012834 -0.007940 -0.007292
v 0.011780 -0.007986 -0.007292
v 0.012767 -0.006302 -0.007548
v 0.011713 -0.006348 -0.007548
v 0.011938 0.014233 -0.007582
v 0.010884 0.014187 -0.007581
v 0.010819 0.015826 -0.007330
v 0.011873 0.015872 -0.007331
v 0.011811 0.017400 -0.006588
v 0.010757 0.017355 -0.006587
v 0.010704 0.018668 -0.005405
v 0.011758 0.018714 -0.005405
v 0.011717 0.019723 -0.003862
v 0.010664 0.019677 -0.003861
v 0.011693 0.020358 -0.002064
v 0.010639 0.020312 -0.002064
v 0.011684 0.020577 -0.000134
v 0.010630 0.020531 -0.000134
v 0.011694 0.020364 0.001797
v 0.010640 0.020318 0.001797
v 0.011719 0.019735 0.003596
v 0.010665 0.019689 0.003597
v 0.011760 0.018731 0.005143
v 0.010706 0.018685 0.005143
v 0.011814 0.017422 0.006330
v 0.010760 0.017376 0.006330
v 0.011876 0.015896 0.007078
v 0.010822 0.015850 0.007078
v -0.244048 -0.018642 0.004616
v -0.244142 -0.017395 0.004808
v -0.245671 0.002849 0.004775
v -0.245767 0.004097 0.004579
v -0.245844 0.005127 0.004074
v -0.245910 0.005994 0.003287
v -0.245960 0.006642 0.002287
v -0.245989 0.007039 0.001150
v -0.245999 0.007171 -0.000053
v -0.245990 0.007035 -0.001254
v -0.245961 0.006635 -0.002390
v -0.245911 0.005983 -0.003388
v -0.245846 0.005114 -0.004173
v -0.245769 0.004082 -0.004675
v -0.245673 0.002834 -0.004867
v -0.244144 -0.017411 -0.004834
v -0.244050 -0.018658 -0.004638
v -0.243972 -0.019688 -0.004132
v -0.243907 -0.020555 -0.003345
v -0.243857 -0.021203 -0.002345
v -0.243827 -0.021600 -0.001208
v -0.243816 -0.021732 -0.000006
v -0.243826 -0.021596 0.001196
v -0.243856 -0.021195 0.002332
v -0.243905 -0.020544 0.003330
v -0.243970 -0.019674 0.004114
v 0.737305 -0.009847 -0.000091
v 0.754001 -0.035552 0.001213
v 0.741275 -0.030501 0.002388
v 0.728285 -0.014799 0.001324
v 0.616805 0.002937 -0.000084
v 0.611398 -0.001595 0.001475
v 0.524138 0.011809 -0.000077
v 0.518749 0.005878 0.001599
v 0.444233 0.018391 -0.000070
v 0.438886 0.011445 0.001706
v 0.361188 0.022469 -0.000057
v 0.355909 0.014966 0.001822
v 0.280231 0.024100 -0.000041
v 0.275022 0.016477 0.001937
v 0.199297 0.023315 -0.000022
v 0.194131 0.016009 0.002057
v 0.106812 0.015516 0.002185
v 0.111961 0.022483 -0.000000
v 0.237641 -0.004781 0.003556
v 0.242780 -0.006126 0.001866
v 0.125171 -0.007945 0.002031
v 0.120003 -0.006019 0.003842
v 0.354225 -0.006330 0.003278
v 0.359315 -0.007706 0.001709
v 0.448682 -0.009916 0.003056
v 0.453720 -0.011829 0.001587
v 0.552084 -0.015657 0.002816
v 0.557086 -0.018554 0.001456
v 0.637905 -0.021245 0.002619
v 0.642875 -0.025139 0.001349
v 0.611398 -0.001600 -0.001625
v 0.728284 -0.014803 -0.001484
v 0.741274 -0.030509 -0.002503
v 0.754000 -0.035556 -0.001317
v 0.642874 -0.025143 -0.001436
v 0.637904 -0.021253 -0.002717
v 0.557085 -0.018559 -0.001525
v 0.552082 -0.015666 -0.002893
v 0.453719 -0.011834 -0.001631
v 0.448680 -0.009926 -0.003104
v 0.359314 -0.007711 -0.001723
v 0.354223 -0.006341 -0.003294
v 0.242780 -0.006132 -0.001832
v 0.237639 -0.004792 -0.003524
v 0.125170 -0.007952 -0.001936
v 0.120002 -0.006032 -0.003752
v 0.194130 0.016002 -0.002072
v 0.106811 0.015509 -0.002159
v 0.275021 0.016470 -0.001992
v 0.355909 0.014960 -0.001909
v 0.438886 0.011439 -0.001820
v 0.518748 0.005872 -0.001730
v -0.214738 0.003200 0.007404
v -0.214487 -0.001885 0.007413
v -0.214543 -0.000749 0.007411
v -0.214098 -0.009782 0.007425
v -0.214349 -0.004698 0.007417
v -0.213899 -0.013839 0.007432
v -0.214344 -0.004806 0.007417
v -0.227697 -0.015676 0.007438
v -0.228147 -0.006535 0.007423
v -0.242275 -0.007153 0.007428
v -0.228922 0.003717 0.007407
v -0.213838 -0.015069 0.007434
v -0.227641 -0.016798 0.007440
v -0.213707 -0.017741 0.007198
v -0.227540 -0.018436 0.007189
v -0.227544 -0.018346 0.007202
v -0.213747 -0.016921 0.007324
v -0.227580 -0.017616 0.007314
v -0.241438 -0.018223 0.007319
v -0.213670 -0.018511 0.006854
v -0.227448 -0.019879 0.006487
v -0.227482 -0.019199 0.006817
v -0.241319 -0.019804 0.006822
v -0.213632 -0.019274 0.006483
v -0.227445 -0.019963 0.006446
v -0.213600 -0.019943 0.005915
v -0.227367 -0.021203 0.005328
v -0.227395 -0.020618 0.005854
v -0.241212 -0.021223 0.005859
v -0.213567 -0.020599 0.005324
v -0.227363 -0.021275 0.005263
v -0.213541 -0.021120 0.004572
v -0.227303 -0.022228 0.003804
v -0.227325 -0.021778 0.004492
v -0.241125 -0.022382 0.004496
v -0.213516 -0.021657 0.003750
v -0.227301 -0.022283 0.003720
v -0.227302 -0.022260 0.003754
v -0.213518 -0.021602 0.003834
v -0.213501 -0.021963 0.002915
v -0.227264 -0.022883 0.002020
v -0.227278 -0.022600 0.002821
v -0.241064 -0.023203 0.002825
v -0.213485 -0.022280 0.002016
v -0.227262 -0.022917 0.001922
v -0.213479 -0.022412 0.001058
v -0.227249 -0.023124 0.000098
v -0.227254 -0.023026 0.000957
v -0.241033 -0.023629 0.000961
v -0.213473 -0.022521 0.000093
v -0.227249 -0.023136 -0.000008
v -0.227249 -0.023124 -0.000113
v -0.213479 -0.022415 -0.001082
v -0.227255 -0.023030 -0.000973
v -0.227263 -0.022924 -0.001938
v -0.241033 -0.023632 -0.000969
v -0.213473 -0.022521 -0.000117
v -0.227265 -0.022890 -0.002036
v -0.213502 -0.021972 -0.002940
v -0.227279 -0.022609 -0.002838
v -0.227303 -0.022295 -0.003738
v -0.241065 -0.023212 -0.002834
v -0.213486 -0.022287 -0.002041
v -0.227305 -0.022240 -0.003822
v -0.213543 -0.021135 -0.004600
v -0.227327 -0.021793 -0.004511
v -0.227365 -0.021292 -0.005285
v -0.241127 -0.022397 -0.004507
v -0.213520 -0.021615 -0.003861
v -0.227304 -0.022273 -0.003772
v -0.213518 -0.021669 -0.003776
v -0.213569 -0.020617 -0.005353
v -0.227369 -0.021221 -0.005349
v -0.213602 -0.019962 -0.005947
v -0.227398 -0.020637 -0.005878
v -0.227448 -0.019984 -0.006471
v -0.241214 -0.021242 -0.005874
v -0.227451 -0.019901 -0.006512
v -0.213673 -0.018533 -0.006890
v -0.227485 -0.019221 -0.006845
v -0.227543 -0.018459 -0.007220
v -0.241322 -0.019827 -0.006841
v -0.213635 -0.019296 -0.006516
v -0.227547 -0.018370 -0.007233
v -0.213750 -0.016945 -0.007366
v -0.227583 -0.017640 -0.007348
v -0.227645 -0.016822 -0.007476
v -0.241442 -0.018247 -0.007344
v -0.213710 -0.017765 -0.007238
v -0.213842 -0.015094 -0.007482
v -0.227700 -0.015700 -0.007478
v -0.213902 -0.013863 -0.007484
v -0.227705 -0.015592 -0.007478
v -0.214102 -0.009807 -0.007491
v -0.227900 -0.011644 -0.007484
v -0.214491 -0.001909 -0.007503
v -0.228094 -0.007694 -0.007491
v -0.214741 0.003176 -0.007512
v -0.228150 -0.006559 -0.007493
v -0.228925 0.003692 -0.007509
v -0.242278 -0.007178 -0.007488
v -0.228930 0.003784 -0.007495
v -0.214843 0.005221 -0.007374
v -0.228966 0.004511 -0.007384
v -0.229027 0.005330 -0.007258
v -0.243115 0.003892 -0.007379
v -0.214802 0.004402 -0.007499
v -0.214883 0.006034 -0.007221
v -0.229032 0.005416 -0.007217
v -0.214920 0.006799 -0.006849
v -0.229065 0.006094 -0.006887
v -0.229122 0.006857 -0.006515
v -0.243233 0.005474 -0.006882
v -0.214956 0.007551 -0.006454
v -0.229125 0.006930 -0.006449
v -0.214988 0.008207 -0.005862
v -0.229154 0.007513 -0.005924
v -0.229204 0.008169 -0.005332
v -0.243340 0.006892 -0.005919
v -0.229207 0.008225 -0.005246
v -0.215044 0.009350 -0.004479
v -0.229228 0.008673 -0.004561
v -0.229265 0.009176 -0.003789
v -0.243427 0.008051 -0.004556
v -0.215020 0.008846 -0.005250
v -0.229267 0.009212 -0.003689
v -0.215071 0.009906 -0.003486
v -0.229269 0.009249 -0.003582
v -0.215085 0.010189 -0.002688
v -0.229281 0.009494 -0.002890
v -0.229305 0.009811 -0.001991
v -0.243488 0.008872 -0.002886
v -0.215067 0.009833 -0.003693
v -0.229305 0.009824 -0.001884
v -0.215103 0.010555 -0.000923
v -0.229310 0.009921 -0.001026
v -0.229318 0.010030 -0.000062
v -0.243520 0.009299 -0.001022
v -0.215098 0.010445 -0.001888
v -0.215102 0.010558 0.000792
v -0.229304 0.009829 0.001761
v -0.229309 0.009924 0.000904
v -0.243520 0.009302 0.000908
v -0.215097 0.010451 0.001757
v -0.229304 0.009818 0.001869
v -0.215069 0.009918 0.003357
v -0.229265 0.009224 0.003568
v -0.229267 0.009261 0.003462
v -0.215084 0.010197 0.002558
v -0.229280 0.009503 0.002769
v -0.243487 0.008881 0.002773
v -0.215065 0.009845 0.003564
v -0.229263 0.009189 0.003669
v -0.215042 0.009364 0.004351
v -0.229204 0.008242 0.005129
v -0.229226 0.008688 0.004442
v -0.243425 0.008066 0.004446
v -0.215017 0.008863 0.005125
v -0.229201 0.008186 0.005215
v -0.214985 0.008226 0.005739
v -0.229122 0.006951 0.006336
v -0.229151 0.007533 0.005809
v -0.243338 0.006911 0.005813
v -0.214953 0.007571 0.006332
v -0.229119 0.006878 0.006402
v -0.214917 0.006821 0.006730
v -0.229028 0.005439 0.007109
v -0.229061 0.006117 0.006776
v -0.243230 0.005496 0.006781
v -0.214879 0.006058 0.007104
v -0.229024 0.005354 0.007150
v -0.214839 0.005245 0.007260
v -0.228926 0.003808 0.007392
v -0.228962 0.004535 0.007279
v -0.243111 0.003916 0.007283
v -0.214798 0.004427 0.007388
v 0.016356 -0.010040 -0.007282
v 0.016487 -0.013295 -0.010083
v 0.016425 -0.011738 -0.006726
v 0.016351 -0.009871 -0.002978
v 0.016481 -0.013126 -0.005778
v 0.016615 -0.016450 -0.008642
v 0.016540 -0.014583 -0.004894
v 0.016720 -0.019024 -0.006607
v 0.016586 -0.015700 -0.003743
v 0.016408 -0.011255 0.000078
v 0.016587 -0.015696 -0.001635
v 0.016794 -0.020842 -0.004117
v 0.016615 -0.016398 -0.000296
v 0.016832 -0.021781 -0.001342
v 0.016625 -0.016635 0.001140
v 0.016833 -0.021777 0.001531
v 0.016616 -0.016393 0.002576
v 0.016796 -0.020829 0.004303
v 0.016588 -0.015687 0.003913
v 0.016723 -0.019002 0.006787
v 0.016543 -0.014566 0.005060
v 0.016619 -0.016421 0.008814
v 0.016484 -0.013107 0.005939
v 0.016352 -0.009861 0.003128
v 0.016428 -0.011716 0.006882
v 0.015796 0.003819 -0.010665
v 0.015734 0.005376 -0.007308
v 0.015831 0.003009 -0.003077
v 0.015271 0.016868 -0.006459
v 0.015237 0.017753 -0.001102
v 0.015140 0.020120 -0.005333
v 0.015105 0.020935 -0.010139
v 0.015071 0.021820 -0.004782
v 0.014978 0.024094 -0.008708
v 0.015013 0.023279 -0.003902
v 0.014874 0.026675 -0.006681
v 0.014967 0.024400 -0.002755
v 0.014801 0.028501 -0.004197
v 0.014939 0.025106 -0.001418
v 0.014764 0.029450 -0.001425
v 0.014930 0.025348 0.000017
v 0.014764 0.029454 0.001447
v 0.014940 0.025111 0.001454
v 0.014803 0.028515 0.004223
v 0.014969 0.024409 0.002793
v 0.014878 0.026696 0.006713
v 0.015015 0.023292 0.003944
v 0.015237 0.017757 0.001162
v 0.015146 0.020044 0.005081
v 0.014982 0.024122 0.008748
v 0.015205 0.018587 0.005966
v 0.015110 0.020968 0.010189
v 0.015274 0.016890 0.006522
v 0.016492 -0.013262 0.010245
v 0.016360 -0.010016 0.007433
v 0.015801 0.003854 0.010771
v 0.015738 0.005400 0.007408
v 0.015833 0.003019 0.003185
v 0.016821 -0.008443 -0.003924
v 0.016357 0.003049 -0.003076
v 0.016884 0.003083 -0.003075
v 0.015894 0.014535 -0.002228
v 0.016823 -0.008430 0.004070
v 0.016359 0.003060 0.003184
v 0.016885 0.003093 0.003183
v 0.015895 0.014542 0.002299
v 0.016934 -0.011208 0.002185
v 0.016934 -0.011211 0.000077
v 0.017460 -0.011167 0.000077
v 0.016933 -0.011215 -0.002030
v 0.015763 0.017787 -0.001101
v 0.015632 0.021041 0.000024
v 0.016289 0.017823 -0.001102
v 0.016877 -0.009827 -0.002977
v 0.017403 -0.009786 -0.002976
v 0.016878 -0.009817 0.003127
v 0.017404 -0.009776 0.003126
v 0.016290 0.017826 0.001161
v 0.015764 0.017791 0.001161
v 0.012364 0.003643 -0.015708
v 0.011067 0.022673 -0.015211
v 0.011841 0.003525 -0.015180
v 0.011310 0.003602 -0.014653
v 0.012606 -0.015427 -0.015149
v 0.013222 -0.017613 -0.014858
v 0.012691 -0.017536 -0.014331
v 0.012154 -0.017304 -0.013863
v 0.012770 -0.019490 -0.013572
v 0.013381 -0.021531 -0.012740
v 0.012844 -0.021300 -0.012272
v 0.012302 -0.020957 -0.011884
v 0.012913 -0.022998 -0.011052
v 0.013511 -0.024728 -0.009748
v 0.012969 -0.024385 -0.009360
v 0.012424 -0.023954 -0.009081
v 0.013022 -0.025684 -0.007777
v 0.013603 -0.026986 -0.006087
v 0.013058 -0.026554 -0.005808
v 0.012510 -0.026064 -0.005662
v 0.013091 -0.027366 -0.003972
v 0.013651 -0.028151 -0.002006
v 0.013103 -0.027660 -0.001860
v 0.012555 -0.027149 -0.001861
v 0.013115 -0.027934 0.000105
v 0.013093 -0.027352 0.004181
v 0.013652 -0.028144 0.002217
v 0.013104 -0.027654 0.002070
v 0.012556 -0.027143 0.002069
v 0.013026 -0.025658 0.007981
v 0.013606 -0.026965 0.006295
v 0.013061 -0.026535 0.006015
v 0.012513 -0.026045 0.005867
v 0.012918 -0.022962 0.011247
v 0.013515 -0.024696 0.009949
v 0.012973 -0.024354 0.009560
v 0.012428 -0.023924 0.009280
v 0.012776 -0.019445 0.013756
v 0.013387 -0.021489 0.012930
v 0.012849 -0.021259 0.012462
v 0.012307 -0.020918 0.012073
v 0.012613 -0.015378 0.015320
v 0.013229 -0.017564 0.015036
v 0.012698 -0.017488 0.014508
v 0.012161 -0.017258 0.014040
v 0.011074 0.022722 0.015258
v 0.012371 0.003694 0.015816
v 0.011848 0.003574 0.015289
v 0.011317 0.003651 0.014761
v 0.010910 0.026786 0.013680
v 0.011512 0.024951 0.014967
v 0.010996 0.024677 0.014499
v 0.010472 0.024557 0.013972
v 0.010768 0.030293 0.011160
v 0.011354 0.028869 0.012848
v 0.010841 0.028484 0.012460
v 0.010324 0.028210 0.011993
v 0.010658 0.032979 0.007886
v 0.011223 0.032066 0.009856
v 0.010715 0.031592 0.009578
v 0.010202 0.031207 0.009190
v 0.010589 0.034661 0.004080
v 0.011131 0.034324 0.006195
v 0.010625 0.033791 0.006049
v 0.010116 0.033317 0.005771
v 0.010565 0.035230 0.000002
v 0.011083 0.035489 0.002114
v 0.010578 0.034936 0.002115
v 0.010071 0.034402 0.001969
v 0.011082 0.035482 -0.002110
v 0.010577 0.034929 -0.002109
v 0.010070 0.034396 -0.001961
v 0.010587 0.034648 -0.004073
v 0.011128 0.034304 -0.006187
v 0.010622 0.033771 -0.006039
v 0.010113 0.033298 -0.005759
v 0.010654 0.032953 -0.007873
v 0.011219 0.032033 -0.009841
v 0.010710 0.031560 -0.009560
v 0.010198 0.031177 -0.009171
v 0.010763 0.030257 -0.011139
v 0.011348 0.028827 -0.012822
v 0.010836 0.028443 -0.012433
v 0.010319 0.028171 -0.011964
v 0.010904 0.026741 -0.013647
v 0.011505 0.024902 -0.014928
v 0.010989 0.024629 -0.014459
v 0.010466 0.024511 -0.013931
v 0.010946 0.025723 -0.008244
v 0.011545 0.023955 -0.008707
v 0.011005 0.024264 -0.009124
v 0.010469 0.024463 -0.009606
v 0.011068 0.022694 -0.010069
v 0.010852 0.028066 -0.005847
v 0.011442 0.026536 -0.006680
v 0.010897 0.026945 -0.006994
v 0.010357 0.027254 -0.007411
v 0.010793 0.029553 -0.003031
v 0.011369 0.028363 -0.004196
v 0.010822 0.028847 -0.004368
v 0.010277 0.029256 -0.004682
v 0.010773 0.030066 0.000011
v 0.011332 0.029311 -0.001424
v 0.010783 0.029824 -0.001425
v 0.010235 0.030308 -0.001596
v 0.011332 0.029315 0.001448
v 0.010783 0.029829 0.001447
v 0.010236 0.030314 0.001617
v 0.010795 0.029563 0.003055
v 0.011371 0.028376 0.004224
v 0.010824 0.028861 0.004394
v 0.010279 0.029272 0.004707
v 0.010855 0.028085 0.005876
v 0.011445 0.026558 0.006714
v 0.010900 0.026968 0.007027
v 0.010360 0.027278 0.007443
v 0.010950 0.025750 0.008281
v 0.011549 0.023984 0.008749
v 0.011009 0.024294 0.009165
v 0.010474 0.024494 0.009647
v 0.011073 0.022727 0.010115
v 0.011677 0.020829 0.010190
v 0.011142 0.021030 0.010672
v 0.010611 0.021093 0.011200
v 0.011216 0.019195 0.011274
v 0.012368 0.003716 0.010772
v 0.011838 0.003779 0.011299
v 0.011315 0.003675 0.011827
v 0.012467 -0.011805 0.011325
v 0.013059 -0.013400 0.010246
v 0.012536 -0.013504 0.010774
v 0.012018 -0.013746 0.011256
v 0.012609 -0.015341 0.010177
v 0.013186 -0.016559 0.008815
v 0.012668 -0.016801 0.009298
v 0.012155 -0.017152 0.009715
v 0.012732 -0.018370 0.008353
v 0.013290 -0.019141 0.006788
v 0.012776 -0.019491 0.007205
v 0.012267 -0.019943 0.007520
v 0.012825 -0.020713 0.005955
v 0.013363 -0.020967 0.004304
v 0.012853 -0.021418 0.004619
v 0.012347 -0.021946 0.004790
v 0.012885 -0.022200 0.003139
v 0.013401 -0.021915 0.001532
v 0.012894 -0.022442 0.001703
v 0.012389 -0.022997 0.001704
v 0.012905 -0.022713 0.000097
v 0.012883 -0.022210 -0.002947
v 0.013400 -0.021920 -0.001341
v 0.012893 -0.022447 -0.001510
v 0.012388 -0.023003 -0.001509
v 0.012822 -0.020732 -0.005768
v 0.013361 -0.020981 -0.004116
v 0.012851 -0.021433 -0.004429
v 0.012345 -0.021961 -0.004598
v 0.012728 -0.018397 -0.008173
v 0.013287 -0.019162 -0.006606
v 0.012773 -0.019515 -0.007022
v 0.012263 -0.019967 -0.007334
v 0.012605 -0.015374 -0.010007
v 0.013182 -0.016588 -0.008641
v 0.012664 -0.016831 -0.009123
v 0.012150 -0.017183 -0.009539
v 0.012462 -0.011842 -0.011166
v 0.013054 -0.013433 -0.010082
v 0.012531 -0.013539 -0.010609
v 0.012013 -0.013782 -0.011091
v 0.011210 0.019158 -0.011217
v 0.012363 0.003681 -0.010664
v 0.011832 0.003742 -0.011191
v 0.011309 0.003636 -0.011719
v 0.011673 0.020796 -0.010138
v 0.011137 0.020995 -0.010620
v 0.010606 0.021057 -0.011148
v 0.015796 0.003782 -0.015709
v 0.017092 -0.015246 -0.015151
v 0.016319 0.003902 -0.015182
v 0.016851 0.003826 -0.014654
v 0.015554 0.022854 -0.015213
v 0.015697 0.019339 -0.011218
v 0.015629 0.021039 -0.010667
v 0.016147 0.021280 -0.011150
v 0.015555 0.022875 -0.010071
v 0.016320 0.003923 -0.011193
v 0.016850 0.003860 -0.011720
v 0.016949 -0.011661 -0.011167
v 0.017091 -0.015193 -0.010009
v 0.017023 -0.013495 -0.010565
v 0.017553 -0.013558 -0.011093
v 0.017214 -0.018216 -0.008174
v 0.017155 -0.016759 -0.009058
v 0.017690 -0.016959 -0.009540
v 0.017310 -0.020551 -0.005769
v 0.017264 -0.019433 -0.006920
v 0.017804 -0.019743 -0.007336
v 0.017370 -0.022029 -0.002948
v 0.017341 -0.021327 -0.004287
v 0.017885 -0.021737 -0.004600
v 0.017391 -0.022532 0.000095
v 0.017381 -0.022295 -0.001341
v 0.017928 -0.022779 -0.001511
v 0.017382 -0.022290 0.001531
v 0.017929 -0.022774 0.001703
v 0.017371 -0.022019 0.003138
v 0.017343 -0.021313 0.004475
v 0.017887 -0.021721 0.004788
v 0.017312 -0.020531 0.005954
v 0.017267 -0.019411 0.007101
v 0.017807 -0.019719 0.007518
v 0.017218 -0.018189 0.008351
v 0.017159 -0.016729 0.009231
v 0.017695 -0.016927 0.009713
v 0.017096 -0.015160 0.010176
v 0.017027 -0.013460 0.010727
v 0.017558 -0.013522 0.011255
v 0.016954 -0.011624 0.011323
v 0.015703 0.019376 0.011273
v 0.016325 0.003960 0.011298
v 0.016855 0.003898 0.011826
v 0.015634 0.021074 0.010716
v 0.016152 0.021316 0.011198
v 0.015559 0.022908 0.010114
v 0.015500 0.024365 0.009230
v 0.016014 0.024717 0.009646
v 0.015437 0.025931 0.008279
v 0.015391 0.027049 0.007129
v 0.015901 0.027501 0.007441
v 0.015342 0.028266 0.005875
v 0.015313 0.028968 0.004536
v 0.015820 0.029495 0.004705
v 0.015281 0.029744 0.003054
v 0.015271 0.029981 0.001617
v 0.015777 0.030537 0.001616
v 0.015260 0.030247 0.000009
v 0.015280 0.029734 -0.003032
v 0.015270 0.029976 -0.001597
v 0.015776 0.030532 -0.001598
v 0.015339 0.028247 -0.005848
v 0.015311 0.028953 -0.004512
v 0.015817 0.029480 -0.004683
v 0.015433 0.025904 -0.008246
v 0.015388 0.027025 -0.007099
v 0.015898 0.027477 -0.007413
v 0.015496 0.024335 -0.009191
v 0.016009 0.024686 -0.009608
v 0.014938 0.025041 -0.014929
v 0.015469 0.024965 -0.014401
v 0.016007 0.024734 -0.013933
v 0.015390 0.026922 -0.013649
v 0.014780 0.028966 -0.012823
v 0.015317 0.028735 -0.012355
v 0.015859 0.028394 -0.011966
v 0.015249 0.030438 -0.011140
v 0.014651 0.032172 -0.009842
v 0.015193 0.031831 -0.009453
v 0.015738 0.031400 -0.009173
v 0.015141 0.033134 -0.007874
v 0.014561 0.034442 -0.006188
v 0.015106 0.034011 -0.005908
v 0.015654 0.033521 -0.005760
v 0.015073 0.034829 -0.004074
v 0.014515 0.035620 -0.002111
v 0.015062 0.035131 -0.001963
v 0.015611 0.034620 -0.001962
v 0.015052 0.035411 0.000001
v 0.015075 0.034842 0.004079
v 0.014516 0.035627 0.002113
v 0.015063 0.035137 0.001966
v 0.015612 0.034626 0.001967
v 0.015144 0.033160 0.007884
v 0.014564 0.034462 0.006194
v 0.015109 0.034030 0.005915
v 0.015656 0.033540 0.005769
v 0.015254 0.030475 0.011159
v 0.014656 0.032204 0.009855
v 0.015198 0.031862 0.009467
v 0.015743 0.031430 0.009188
v 0.015397 0.026967 0.013679
v 0.014786 0.029008 0.012847
v 0.015323 0.028776 0.012379
v 0.015865 0.028434 0.011991
v 0.015561 0.022903 0.015256
v 0.014945 0.025090 0.014965
v 0.015476 0.025012 0.014438
v 0.016013 0.024780 0.013970
v 0.017099 -0.015196 0.015318
v 0.015803 0.003833 0.015815
v 0.016326 0.003952 0.015287
v 0.016857 0.003874 0.014760
v 0.017263 -0.019264 0.013754
v 0.016661 -0.017426 0.015035
v 0.017178 -0.017153 0.014566
v 0.017701 -0.017034 0.014038
v 0.017404 -0.022781 0.011246
v 0.016819 -0.021350 0.012929
v 0.017332 -0.020967 0.012540
v 0.017848 -0.020694 0.012071
v 0.017512 -0.025476 0.007980
v 0.016948 -0.024557 0.009948
v 0.017456 -0.024084 0.009667
v 0.017969 -0.023700 0.009278
v 0.017580 -0.027171 0.004180
v 0.017039 -0.026827 0.006294
v 0.017545 -0.026294 0.006146
v 0.018053 -0.025821 0.005866
v 0.017602 -0.027753 0.000104
v 0.017085 -0.028006 0.002216
v 0.017591 -0.027452 0.002215
v 0.018097 -0.026919 0.002067
v 0.017084 -0.028012 -0.002007
v 0.017590 -0.027459 -0.002008
v 0.018096 -0.026926 -0.001862
v 0.017578 -0.027185 -0.003973
v 0.017036 -0.026847 -0.006088
v 0.017542 -0.026314 -0.005942
v 0.018051 -0.025840 -0.005664
v 0.017509 -0.025502 -0.007779
v 0.016943 -0.024589 -0.009749
v 0.017452 -0.024115 -0.009471
v 0.017965 -0.023730 -0.009083
v 0.017399 -0.022817 -0.011053
v 0.016813 -0.021392 -0.012741
v 0.017326 -0.021008 -0.012353
v 0.017843 -0.020733 -0.011886
v 0.017256 -0.019308 -0.013573
v 0.016654 -0.017474 -0.014859
v 0.017171 -0.017200 -0.014392
v 0.017694 -0.017080 -0.013865
v 0.010538 0.022724 -0.012618
v 0.010460 0.024681 -0.011865
v 0.010612 0.020887 -0.013214
v 0.010397 0.026250 -0.010920
v 0.010328 0.027953 -0.009705
v 0.010279 0.029174 -0.008455
v 0.010227 0.030478 -0.006877
v 0.010196 0.031259 -0.005397
v 0.010163 0.032076 -0.003564
v 0.010153 0.032357 -0.001599
v 0.010142 0.032628 0.000007
v 0.010154 0.032354 0.001972
v 0.010165 0.032088 0.003580
v 0.010198 0.031277 0.005416
v 0.010230 0.030500 0.006898
v 0.010283 0.029202 0.008481
v 0.010333 0.027985 0.009735
v 0.010402 0.026286 0.010955
v 0.010465 0.024720 0.011905
v 0.010544 0.022765 0.012664
v 0.010618 0.020931 0.013266
v 0.012545 -0.026869 0.000104
v 0.012511 -0.026057 -0.001732
v 0.012479 -0.025240 0.000101
v 0.012426 -0.023941 -0.001482
v 0.012360 -0.022221 0.010494
v 0.012281 -0.020264 0.011247
v 0.012223 -0.019003 -0.012643
v 0.011377 0.001935 -0.013183
v 0.011384 0.001979 0.013297
v 0.012013 -0.013605 0.013322
v 0.012087 -0.015442 0.012726
v 0.012150 -0.017011 0.011781
v 0.012349 -0.021974 0.008235
v 0.012398 -0.023196 0.006985
v 0.012429 -0.023977 0.005506
v 0.012440 -0.024248 0.003899
v 0.012007 -0.013649 -0.013158
v 0.012081 -0.015483 -0.012555
v 0.012229 -0.019136 -0.010577
v 0.012292 -0.020703 -0.009626
v 0.012342 -0.021920 -0.008372
v 0.012374 -0.022696 -0.006890
v 0.012385 -0.022962 -0.005283
v 0.016079 0.022947 -0.012619
v 0.016000 0.024904 -0.011867
v 0.016153 0.021110 -0.013215
v 0.015937 0.026473 -0.010922
v 0.015869 0.028176 -0.009707
v 0.015820 0.029398 -0.008457
v 0.015767 0.030701 -0.006878
v 0.015736 0.031482 -0.005399
v 0.015704 0.032300 -0.003565
v 0.015693 0.032580 -0.001601
v 0.015683 0.032852 0.000005
v 0.015694 0.032578 0.001970
v 0.015705 0.032312 0.003578
v 0.015738 0.031500 0.005414
v 0.015771 0.030723 0.006896
v 0.015824 0.029426 0.008479
v 0.015873 0.028208 0.009733
v 0.015942 0.026509 0.010953
v 0.016005 0.024943 0.011904
v 0.016085 0.022988 0.012662
v 0.016159 0.021154 0.013265
v 0.018085 -0.026646 0.000102
v 0.018052 -0.025834 -0.001734
v 0.018019 -0.025016 0.000100
v 0.017966 -0.023718 -0.001483
v 0.017900 -0.021997 0.010493
v 0.017822 -0.020040 0.011245
v 0.017764 -0.018779 -0.012645
v 0.016918 0.002159 -0.013185
v 0.016924 0.002202 0.013295
v 0.017547 -0.013425 -0.013159
v 0.017621 -0.015259 -0.012557
v 0.017769 -0.018913 -0.010578
v 0.017833 -0.020479 -0.009628
v 0.017883 -0.021697 -0.008374
v 0.017914 -0.022473 -0.006892
v 0.017553 -0.013381 0.013321
v 0.017627 -0.015218 0.012725
v 0.017690 -0.016787 0.011779
v 0.017889 -0.021750 0.008234
v 0.017939 -0.022972 0.006984
v 0.017970 -0.023753 0.005504
v 0.017969 -0.023758 0.002291
v 0.017980 -0.024024 0.003898
v 0.014853 -0.015436 -0.015678
v 0.014080 0.003712 -0.015709
v 0.013306 0.022860 -0.015740
v 0.013221 0.024972 -0.014928
v 0.013137 0.027083 -0.014117
v 0.013064 0.028896 -0.012823
v 0.012991 0.030710 -0.011529
v 0.012935 0.032103 -0.009841
v 0.012879 0.033496 -0.008154
v 0.012844 0.034373 -0.006188
v 0.012810 0.035250 -0.004221
v 0.012787 0.035853 0.000001
v 0.012799 0.035551 -0.002110
v 0.012800 0.035558 0.002113
v 0.012812 0.035264 0.004226
v 0.012847 0.034393 0.006195
v 0.012883 0.033523 0.008164
v 0.012940 0.032135 0.009856
v 0.012996 0.030747 0.011548
v 0.013070 0.028938 0.012848
v 0.013143 0.027129 0.014147
v 0.013228 0.025020 0.014966
v 0.013314 0.022912 0.015785
v 0.014087 0.003764 0.015816
v 0.014860 -0.015384 0.015847
v 0.014945 -0.017495 0.015035
v 0.015030 -0.019606 0.014224
v 0.015103 -0.021420 0.012930
v 0.015176 -0.023234 0.011636
v 0.015231 -0.024626 0.009948
v 0.015287 -0.026019 0.008261
v 0.015322 -0.026896 0.006295
v 0.015357 -0.027773 0.004328
v 0.015368 -0.028074 0.002217
v 0.015380 -0.028376 0.000105
v 0.015367 -0.028081 -0.002007
v 0.015355 -0.027787 -0.004119
v 0.015319 -0.026916 -0.006088
v 0.015284 -0.026046 -0.008057
v 0.015227 -0.024658 -0.009749
v 0.015170 -0.023271 -0.011441
v 0.015097 -0.021462 -0.012741
v 0.015023 -0.019652 -0.014040
v 0.014938 -0.017544 -0.014859
v 0.012243 -0.006300 0.007368
v 0.011302 0.003944 0.007351
v 0.011829 0.003967 0.007351
v 0.011415 0.014235 0.007334
v 0.012356 0.003990 0.007351
v 0.012804 -0.007097 0.007242
v 0.012277 -0.007120 0.007242
v 0.012310 -0.007939 0.007117
v 0.011750 -0.007143 0.007242
v 0.012372 -0.009467 0.006374
v 0.011814 -0.008727 0.006745
v 0.012341 -0.008703 0.006745
v 0.012868 -0.008680 0.006745
v 0.012925 -0.010101 0.005782
v 0.012398 -0.010124 0.005782
v 0.011871 -0.010147 0.005782
v 0.012424 -0.010781 0.005191
v 0.011917 -0.011309 0.004419
v 0.012444 -0.011286 0.004419
v 0.012464 -0.011790 0.003648
v 0.012971 -0.011262 0.004419
v 0.013004 -0.012084 0.002749
v 0.012490 -0.012425 0.001850
v 0.012477 -0.012107 0.002749
v 0.011950 -0.012131 0.002749
v 0.013020 -0.012511 0.000885
v 0.012497 -0.012644 -0.000080
v 0.012494 -0.012535 0.000885
v 0.011967 -0.012558 0.000885
v 0.012489 -0.012431 -0.002011
v 0.011966 -0.012561 -0.001045
v 0.012493 -0.012538 -0.001045
v 0.013020 -0.012515 -0.001045
v 0.013003 -0.012094 -0.002911
v 0.012476 -0.012117 -0.002910
v 0.012462 -0.011802 -0.003810
v 0.011949 -0.012140 -0.002910
v 0.012422 -0.010798 -0.005357
v 0.011915 -0.011323 -0.004583
v 0.012442 -0.011300 -0.004584
v 0.012969 -0.011277 -0.004584
v 0.011868 -0.010167 -0.005950
v 0.012395 -0.010143 -0.005950
v 0.012922 -0.010120 -0.005950
v 0.012369 -0.009488 -0.006544
v 0.012864 -0.008703 -0.006918
v 0.012307 -0.007963 -0.007292
v 0.012338 -0.008726 -0.006918
v 0.011811 -0.008749 -0.006918
v 0.012800 -0.007121 -0.007420
v 0.012240 -0.006325 -0.007548
v 0.012273 -0.007144 -0.007420
v 0.011746 -0.007167 -0.007420
v 0.012352 0.003966 -0.007565
v 0.011411 0.014210 -0.007582
v 0.011826 0.003943 -0.007565
v 0.011299 0.003920 -0.007565
v 0.010852 0.015007 -0.007456
v 0.011378 0.015030 -0.007456
v 0.011346 0.015849 -0.007331
v 0.011905 0.015053 -0.007456
v 0.011842 0.016636 -0.006959
v 0.011284 0.017378 -0.006587
v 0.011315 0.016614 -0.006959
v 0.010788 0.016591 -0.006959
v 0.010731 0.018011 -0.005996
v 0.011257 0.018034 -0.005996
v 0.011231 0.018691 -0.005405
v 0.011784 0.018057 -0.005996
v 0.011190 0.019700 -0.003862
v 0.010684 0.019172 -0.004633
v 0.011211 0.019195 -0.004633
v 0.011737 0.019219 -0.004633
v 0.011705 0.020041 -0.002963
v 0.011178 0.020017 -0.002963
v 0.011166 0.020335 -0.002064
v 0.010651 0.019994 -0.002963
v 0.011157 0.020554 -0.000134
v 0.010635 0.020421 -0.001099
v 0.011162 0.020445 -0.001099
v 0.011688 0.020468 -0.001099
v 0.011689 0.020471 0.000831
v 0.011167 0.020341 0.001797
v 0.011162 0.020448 0.000831
v 0.010635 0.020425 0.000832
v 0.011706 0.020050 0.002696
v 0.011192 0.019712 0.003596
v 0.011179 0.020027 0.002697
v 0.010653 0.020003 0.002697
v 0.011740 0.019233 0.004370
v 0.011233 0.018708 0.005143
v 0.011213 0.019210 0.004370
v 0.010686 0.019187 0.004370
v 0.011287 0.017399 0.006330
v 0.010733 0.018031 0.005737
v 0.011260 0.018053 0.005736
v 0.011787 0.018076 0.005736
v 0.011845 0.016659 0.006704
v 0.011318 0.016636 0.006704
v 0.010791 0.016613 0.006704
v 0.011349 0.015873 0.007078
v 0.010855 0.015031 0.007206
v 0.011382 0.015054 0.007206
v 0.011909 0.015077 0.007206
v 0.011776 0.018248 -0.008638
v 0.011708 0.019948 -0.008087
v 0.011807 0.017484 -0.009010
v 0.011649 0.021408 -0.007208
v 0.011604 0.022528 -0.006060
v 0.011840 0.016665 -0.009135
v 0.011576 0.023235 -0.004724
v 0.011567 0.023477 -0.003288
v 0.011577 0.023239 -0.001851
v 0.012254 0.006397 -0.009119
v 0.012876 -0.009019 -0.009094
v 0.012945 -0.010716 -0.008537
v 0.013004 -0.012174 -0.007653
v 0.013050 -0.013291 -0.006502
v 0.013390 -0.021677 0.000095
v 0.013362 -0.020976 -0.001244
v 0.013334 -0.020271 0.000093
v 0.013289 -0.019150 0.001240
v 0.013230 -0.017689 0.002120
v 0.013161 -0.015990 0.002671
v 0.011416 0.027259 0.005375
v 0.011475 0.025802 0.006259
v 0.011544 0.024105 0.006816
v 0.011550 0.023896 -0.001260
v 0.011530 0.024400 -0.000488
v 0.011518 0.024718 0.000410
v 0.011513 0.024828 0.001375
v 0.011518 0.024721 0.002341
v 0.011720 0.019748 0.006272
v 0.011732 0.019433 0.007172
v 0.011753 0.018931 0.007945
v 0.011780 0.018277 0.008538
v 0.011811 0.017514 0.008912
v 0.011844 0.016695 0.009040
v 0.012466 0.001279 0.009066
v 0.012880 -0.008989 0.009082
v 0.012914 -0.009808 0.008957
v 0.012944 -0.010572 0.008585
v 0.012971 -0.011229 0.007994
v 0.013142 -0.015519 -0.000132
v 0.013162 -0.016023 -0.000904
v 0.013175 -0.016341 -0.001803
v 0.013178 -0.016450 -0.002768
v 0.013174 -0.016344 -0.003733
v 0.013161 -0.016029 -0.004633
v 0.013140 -0.015527 -0.005406
v 0.013114 -0.014872 -0.006000
v 0.013083 -0.014110 -0.006374
v -0.242712 -0.018842 0.005905
v -0.242774 -0.018024 0.006030
v -0.244095 -0.018019 0.004712
v -0.242821 -0.017400 0.006126
v -0.243596 -0.007148 0.006109
v -0.244906 -0.007273 0.004791
v -0.244360 0.002974 0.006093
v -0.244470 0.004416 0.005867
v -0.244408 0.003598 0.005995
v -0.245719 0.003473 0.004677
v -0.244527 0.005178 0.005493
v -0.245805 0.004612 0.004327
v -0.244566 0.005693 0.005240
v -0.244616 0.006346 0.004647
v -0.245877 0.005560 0.003681
v -0.244649 0.006779 0.004253
v -0.244686 0.007280 0.003480
v -0.245935 0.006318 0.002787
v -0.244711 0.007605 0.002980
v -0.244736 0.007919 0.002080
v -0.245975 0.006841 0.001718
v -0.244750 0.008117 0.001512
v -0.244759 0.008224 0.000546
v -0.245994 0.007105 0.000548
v -0.244764 0.008290 -0.000055
v -0.244751 0.008112 -0.001621
v -0.244759 0.008222 -0.000656
v -0.245995 0.007103 -0.000654
v -0.244713 0.007595 -0.003087
v -0.244737 0.007912 -0.002189
v -0.245975 0.006835 -0.001822
v -0.244651 0.006765 -0.004358
v -0.244688 0.007269 -0.003587
v -0.245936 0.006309 -0.002889
v -0.244568 0.005675 -0.005342
v -0.244618 0.006331 -0.004750
v -0.245878 0.005548 -0.003780
v -0.244473 0.004397 -0.005965
v -0.244530 0.005159 -0.005593
v -0.245807 0.004598 -0.004424
v -0.245721 0.003458 -0.004771
v -0.244363 0.002954 -0.006186
v -0.244411 0.003578 -0.006090
v -0.242824 -0.017420 -0.006153
v -0.243598 -0.007169 -0.006170
v -0.244909 -0.007289 -0.004851
v -0.242715 -0.018861 -0.005927
v -0.242777 -0.018043 -0.006055
v -0.244097 -0.018034 -0.004736
v -0.242657 -0.019623 -0.005553
v -0.244011 -0.019173 -0.004385
v -0.242618 -0.020138 -0.005300
v -0.242568 -0.020792 -0.004706
v -0.243939 -0.020121 -0.003739
v -0.242536 -0.021226 -0.004313
v -0.242498 -0.021727 -0.003540
v -0.243882 -0.020879 -0.002845
v -0.242473 -0.022050 -0.003039
v -0.242449 -0.022365 -0.002140
v -0.243842 -0.021402 -0.001776
v -0.242434 -0.022563 -0.001571
v -0.242426 -0.022669 -0.000606
v -0.243821 -0.021666 -0.000607
v -0.242420 -0.022735 -0.000005
v -0.242434 -0.022558 0.001561
v -0.242426 -0.022667 0.000596
v -0.243821 -0.021664 0.000595
v -0.242472 -0.022040 0.003028
v -0.242448 -0.022358 0.002129
v -0.243841 -0.021396 0.001764
v -0.242534 -0.021211 0.004299
v -0.242496 -0.021715 0.003527
v -0.243881 -0.020870 0.002831
v -0.242616 -0.020121 0.005282
v -0.242566 -0.020776 0.004691
v -0.243938 -0.020109 0.003722
v -0.242655 -0.019605 0.005533
v -0.244009 -0.019158 0.004365
v -0.245760 0.003974 -0.004520
v -0.245792 0.004408 -0.004128
v -0.245817 0.004734 -0.003629
v -0.245831 0.004934 -0.003061
v -0.245067 -0.005188 -0.003044
v -0.245758 0.003988 0.004425
v -0.245790 0.004421 0.004031
v -0.245816 0.004746 0.003531
v -0.245830 0.004944 0.002962
v -0.245065 -0.005178 0.002979
v -0.244058 -0.018549 -0.004483
v -0.244025 -0.018983 -0.004090
v -0.244001 -0.019307 -0.003590
v -0.243985 -0.019506 -0.003021
v -0.244908 -0.007283 -0.001231
v -0.244056 -0.018535 0.004461
v -0.244023 -0.018970 0.004069
v -0.243999 -0.019295 0.003570
v -0.243984 -0.019496 0.003002
v -0.243979 -0.019564 0.002401
v -0.243984 -0.019498 0.001800
v -0.245066 -0.005180 0.001777
v -0.245989 0.007037 -0.000052
v -0.101953 0.009273 0.007369
v -0.101897 0.008138 0.007370
v -0.101702 0.004189 0.007377
v -0.101508 0.000240 0.007383
v -0.101503 0.000132 0.007383
v -0.101033 -0.011258 0.007402
v -0.101089 -0.010135 0.007400
v -0.100960 -0.012896 0.007151
v -0.100964 -0.012807 0.007164
v -0.100997 -0.011987 0.007290
v -0.100926 -0.013577 0.006820
v -0.100892 -0.014424 0.006408
v -0.100896 -0.014341 0.006449
v -0.100863 -0.015009 0.005881
v -0.100833 -0.015737 0.005225
v -0.100837 -0.015666 0.005290
v -0.100811 -0.016187 0.004538
v -0.100789 -0.016746 0.003682
v -0.100790 -0.016724 0.003716
v -0.100791 -0.016691 0.003766
v -0.100775 -0.017029 0.002881
v -0.100760 -0.017381 0.001884
v -0.100762 -0.017347 0.001982
v -0.100755 -0.017479 0.001024
v -0.100751 -0.017600 -0.000046
v -0.100752 -0.017588 0.000059
v -0.100756 -0.017482 -0.001116
v -0.100761 -0.017388 -0.001976
v -0.100752 -0.017589 -0.000151
v -0.100776 -0.017039 -0.002974
v -0.100790 -0.016758 -0.003776
v -0.100763 -0.017354 -0.002074
v -0.100813 -0.016202 -0.004634
v -0.100835 -0.015755 -0.005323
v -0.213519 -0.021637 -0.003827
v -0.100793 -0.016704 -0.003861
v -0.100839 -0.015684 -0.005387
v -0.100866 -0.015029 -0.005980
v -0.100895 -0.014445 -0.006510
v -0.100929 -0.013599 -0.006924
v -0.100963 -0.012920 -0.007258
v -0.100898 -0.014362 -0.006550
v -0.101001 -0.012011 -0.007400
v -0.101037 -0.011282 -0.007514
v -0.100967 -0.012831 -0.007271
v -0.101092 -0.010160 -0.007516
v -0.101506 0.000108 -0.007533
v -0.101511 0.000216 -0.007533
v -0.101706 0.004165 -0.007539
v -0.101900 0.008114 -0.007546
v -0.101956 0.009249 -0.007548
v -0.101994 0.010160 -0.007408
v -0.102030 0.010888 -0.007296
v -0.101961 0.009340 -0.007533
v -0.102034 0.010973 -0.007255
v -0.102065 0.011737 -0.006883
v -0.102098 0.012416 -0.006553
v -0.102101 0.012489 -0.006488
v -0.102128 0.013146 -0.005896
v -0.102156 0.013729 -0.005371
v -0.102180 0.014289 -0.004513
v -0.102201 0.014737 -0.003827
v -0.102159 0.013785 -0.005284
v -0.215083 0.010151 -0.002794
v -0.102215 0.015090 -0.002828
v -0.102229 0.015372 -0.002030
v -0.102203 0.014773 -0.003727
v -0.102234 0.015494 -0.000957
v -0.102238 0.015592 -0.000100
v -0.102230 0.015385 -0.001922
v -0.102233 0.015497 0.000758
v -0.102228 0.015379 0.001831
v -0.102229 0.015391 0.001723
v -0.215082 0.010160 0.002664
v -0.102214 0.015099 0.002630
v -0.102199 0.014749 0.003631
v -0.102201 0.014785 0.003530
v -0.102178 0.014304 0.004317
v -0.102154 0.013746 0.005177
v -0.102157 0.013802 0.005091
v -0.102125 0.013165 0.005705
v -0.102095 0.012437 0.006364
v -0.102098 0.012510 0.006298
v -0.102062 0.011760 0.006696
v -0.102027 0.010911 0.007112
v -0.102031 0.010996 0.007070
v -0.101990 0.010184 0.007226
v -0.101958 0.009365 0.007354
v 0.745653 -0.022699 0.000561
v 0.747638 -0.033026 0.001801
v 0.739290 -0.020174 0.001149
v 0.734780 -0.022650 0.001856
v 0.732795 -0.012323 0.000617
v 0.677055 -0.003455 -0.000087
v 0.672545 -0.005931 0.000620
v 0.669842 -0.008197 0.001399
v 0.614101 0.000671 0.000695
v 0.570472 0.007373 -0.000081
v 0.567768 0.005107 0.000699
v 0.565074 0.002141 0.001537
v 0.521444 0.008844 0.000761
v 0.484186 0.015100 -0.000074
v 0.481491 0.012134 0.000764
v 0.478818 0.008661 0.001652
v 0.441560 0.014918 0.000818
v 0.402711 0.020430 -0.000064
v 0.400037 0.016957 0.000824
v 0.397398 0.013205 0.001764
v 0.358549 0.018717 0.000882
v 0.320710 0.023284 -0.000049
v 0.318070 0.019533 0.000890
v 0.315466 0.015721 0.001880
v 0.277627 0.020288 0.000948
v 0.239764 0.023708 -0.000032
v 0.237160 0.019896 0.000958
v 0.234576 0.016243 0.001997
v 0.196714 0.019662 0.001018
v 0.150471 0.015762 0.002121
v 0.109386 0.018999 0.001092
v 0.153046 0.019246 0.001028
v 0.155629 0.022899 -0.000011
v 0.240210 -0.005453 0.002711
v 0.183976 -0.007036 0.001948
v 0.181406 -0.006363 0.002793
v 0.178822 -0.005400 0.003699
v 0.122587 -0.006982 0.002936
v 0.356770 -0.007018 0.002494
v 0.301048 -0.006916 0.001787
v 0.298503 -0.006228 0.002572
v 0.295933 -0.005555 0.003417
v 0.451201 -0.010872 0.002321
v 0.406517 -0.009767 0.001648
v 0.403998 -0.008811 0.002382
v 0.401453 -0.008123 0.003167
v 0.554585 -0.017105 0.002136
v 0.505403 -0.015191 0.001521
v 0.502902 -0.013743 0.002201
v 0.500383 -0.012786 0.002936
v 0.640390 -0.023192 0.001984
v 0.599980 -0.021846 0.001403
v 0.597495 -0.019899 0.002038
v 0.594994 -0.018451 0.002718
v 0.698438 -0.030345 0.001281
v 0.692075 -0.027820 0.001869
v 0.689590 -0.025873 0.002504
v 0.614101 0.000668 -0.000854
v 0.669841 -0.008202 -0.001554
v 0.672544 -0.005933 -0.000784
v 0.732794 -0.012325 -0.000788
v 0.747637 -0.033032 -0.001910
v 0.745652 -0.022701 -0.000704
v 0.739289 -0.020178 -0.001297
v 0.734779 -0.022656 -0.001994
v 0.698437 -0.030350 -0.001377
v 0.692074 -0.027826 -0.001970
v 0.689589 -0.025881 -0.002610
v 0.640389 -0.023198 -0.002077
v 0.599980 -0.021851 -0.001481
v 0.597494 -0.019906 -0.002121
v 0.594993 -0.018460 -0.002805
v 0.554584 -0.017112 -0.002209
v 0.505402 -0.015196 -0.001578
v 0.502901 -0.013750 -0.002262
v 0.500381 -0.012796 -0.002998
v 0.451200 -0.010880 -0.002367
v 0.406517 -0.009773 -0.001677
v 0.403997 -0.008819 -0.002413
v 0.401452 -0.008133 -0.003199
v 0.356769 -0.007026 -0.002509
v 0.301047 -0.006922 -0.001777
v 0.298501 -0.006236 -0.002563
v 0.295931 -0.005566 -0.003409
v 0.240209 -0.005462 -0.002678
v 0.183975 -0.007042 -0.001884
v 0.181404 -0.006372 -0.002730
v 0.178820 -0.005412 -0.003638
v 0.122586 -0.006992 -0.002844
v 0.196714 0.019659 -0.001047
v 0.153045 0.019243 -0.001036
v 0.150470 0.015755 -0.002116
v 0.109386 0.018996 -0.001080
v 0.277626 0.020285 -0.001017
v 0.237159 0.019893 -0.001007
v 0.234575 0.016236 -0.002032
v 0.358548 0.018714 -0.000983
v 0.318070 0.019530 -0.000975
v 0.315465 0.015715 -0.001950
v 0.397397 0.013199 -0.001864
v 0.400037 0.016954 -0.000939
v 0.441559 0.014915 -0.000945
v 0.521443 0.008841 -0.000904
v 0.481491 0.012132 -0.000900
v 0.478817 0.008656 -0.001775
v 0.567768 0.005105 -0.000851
v 0.565073 0.002136 -0.001677
v 0.557086 -0.018556 -0.000035
v 0.505403 -0.015194 0.000031
v 0.453720 -0.011831 -0.000022
v 0.599980 -0.021849 0.000010
v 0.642875 -0.025141 -0.000044
v 0.698438 -0.030347 0.000016
v 0.754000 -0.035554 -0.000052
v 0.359314 -0.007709 -0.000007
v 0.406517 -0.009770 0.000039
v 0.242780 -0.006129 0.000017
v 0.301047 -0.006919 -0.000061
v 0.125170 -0.007949 0.000047
v 0.183975 -0.007039 -0.000035
v 0.061615 0.015039 -0.002193
v 0.062079 0.003553 -0.003041
v 0.068674 -0.007217 -0.003838
v 0.113406 0.004738 -0.002955
v 0.157066 0.004985 -0.002912
v 0.215884 0.005605 -0.002798
v 0.256330 0.005839 -0.002758
v 0.314622 0.005065 -0.002643
v 0.355066 0.004310 -0.002602
v 0.396554 0.002549 -0.002557
v 0.443783 0.000756 -0.002462
v 0.483714 -0.002027 -0.002417
v 0.535415 -0.004897 -0.002311
v 0.581740 -0.008633 -0.002259
v 0.624651 -0.011427 -0.002171
v 0.683094 -0.018028 -0.002101
v 0.061616 0.015046 0.002241
v 0.062080 0.003563 0.003127
v 0.068676 -0.007204 0.003955
v 0.113407 0.004748 0.003014
v 0.157067 0.004995 0.002949
v 0.215886 0.005614 0.002806
v 0.256331 0.005848 0.002747
v 0.314623 0.005073 0.002608
v 0.355067 0.004318 0.002550
v 0.396556 0.002558 0.002492
v 0.443784 0.000764 0.002381
v 0.483715 -0.002019 0.002327
v 0.535416 -0.004889 0.002207
v 0.581741 -0.008626 0.002145
v 0.624652 -0.011420 0.002047
v 0.683095 -0.018022 0.001972
v 0.071315 -0.009561 -0.001983
v 0.071315 -0.009558 0.000124
v 0.071316 -0.009555 0.002107
v 0.064059 0.021780 0.000012
v 0.061484 0.018293 -0.001067
v 0.068730 -0.008601 -0.002891
v 0.068732 -0.008592 0.003013
v 0.061485 0.018296 0.001105
f 1 409 411
f 409 2 410
f 410 3 411
f 409 410 411
f 1 411 413
f 411 3 412
f 412 4 413
f 411 412 413
f 1 413 415
f 413 4 414
f 414 5 415
f 413 414 415
f 1 415 417
f 415 5 416
f 416 6 417
f 415 416 417
f 1 417 419
f 417 6 418
f 418 7 419
f 417 418 419
f 5 420 416
f 420 8 421
f 421 6 416
f 420 421 416
f 9 422 424
f 422 10 423
f 423 11 424
f 422 423 424
f 8 425 426
f 425 9 424
f 424 11 426
f 425 424 426
f 8 426 421
f 426 11 427
f 427 6 421
f 426 427 421
f 10 428 430
f 428 12 429
f 429 13 430
f 428 429 430
f 10 430 423
f 430 13 431
f 431 11 423
f 430 431 423
f 12 432 429
f 432 14 433
f 433 13 429
f 432 433 429
f 14 434 436
f 434 15 435
f 435 16 436
f 434 435 436
f 14 436 433
f 436 16 437
f 437 13 433
f 436 437 433
f 15 438 435
f 438 17 439
f 439 16 435
f 438 439 435
f 17 440 442
f 440 18 441
f 441 19 442
f 440 441 442
f 17 442 439
f 442 19 443
f 443 16 439
f 442 443 439
f 20 444 446
f 444 21 445
f 445 19 446
f 444 445 446
f 18 447 441
f 447 20 446
f 446 19 441
f 447 446 441
f 21 448 450
f 448 22 449
f 449 23 450
f 448 449 450
f 21 450 445
f 450 23 451
f 451 19 445
f 450 451 445
f 22 452 449
f 452 24 453
f 453 23 449
f 452 453 449
f 24 454 456
f 454 25 455
f 455 26 456
f 454 455 456
f 24 456 453
f 456 26 457
f 457 23 453
f 456 457 453
f 25 458 455
f 458 27 459
f 459 26 455
f 458 459 455
f 26 460 462
f 460 28 461
f 461 29 462
f 460 461 462
f 26 462 464
f 462 29 463
f 463 30 464
f 462 463 464
f 27 465 459
f 465 28 460
f 460 26 459
f 465 460 459
f 30 466 468
f 466 31 467
f 467 32 468
f 466 467 468
f 30 468 470
f 468 32 469
f 469 33 470
f 468 469 470
f 29 471 463
f 471 31 466
f 466 30 463
f 471 466 463
f 33 472 474
f 472 34 473
f 473 35 474
f 472 473 474
f 33 474 476
f 474 35 475
f 475 36 476
f 474 475 476
f 37 477 478
f 477 34 472
f 472 33 478
f 477 472 478
f 32 479 469
f 479 37 478
f 478 33 469
f 479 478 469
f 35 480 475
f 480 38 481
f 481 36 475
f 480 481 475
f 36 481 483
f 481 38 482
f 482 39 483
f 481 482 483
f 36 483 485
f 483 39 484
f 484 40 485
f 483 484 485
f 40 486 488
f 486 41 487
f 487 42 488
f 486 487 488
f 40 488 490
f 488 42 489
f 489 43 490
f 488 489 490
f 39 491 484
f 491 41 486
f 486 40 484
f 491 486 484
f 43 492 494
f 492 44 493
f 493 45 494
f 492 493 494
f 43 494 496
f 494 45 495
f 495 46 496
f 494 495 496
f 42 497 489
f 497 44 492
f 492 43 489
f 497 492 489
f 45 498 495
f 498 47 499
f 499 46 495
f 498 499 495
f 46 499 501
f 499 47 500
f 500 48 501
f 499 500 501
f 46 501 503
f 501 48 502
f 502 49 503
f 501 502 503
f 46 503 505
f 503 49 504
f 504 50 505
f 503 504 505
f 46 505 507
f 505 50 506
f 506 51 507
f 505 506 507
f 46 507 509
f 507 51 508
f 508 52 509
f 507 508 509
f 52 510 512
f 510 53 511
f 511 54 512
f 510 511 512
f 52 512 514
f 512 54 513
f 513 55 514
f 512 513 514
f 51 515 508
f 515 53 510
f 510 52 508
f 515 510 508
f 54 516 513
f 516 56 517
f 517 55 513
f 516 517 513
f 55 517 519
f 517 56 518
f 518 57 519
f 517 518 519
f 55 519 521
f 519 57 520
f 520 58 521
f 519 520 521
f 57 522 520
f 522 59 523
f 523 58 520
f 522 523 520
f 58 523 525
f 523 59 524
f 524 60 525
f 523 524 525
f 58 525 527
f 525 60 526
f 526 61 527
f 525 526 527
f 61 528 530
f 528 62 529
f 529 63 530
f 528 529 530
f 61 530 532
f 530 63 531
f 531 64 532
f 530 531 532
f 60 533 526
f 533 62 528
f 528 61 526
f 533 528 526
f 64 534 536
f 534 65 535
f 535 66 536
f 534 535 536
f 64 536 538
f 536 66 537
f 537 67 538
f 536 537 538
f 64 538 540
f 538 67 539
f 539 68 540
f 538 539 540
f 63 541 531
f 541 65 534
f 534 64 531
f 541 534 531
f 68 542 544
f 542 69 543
f 543 70 544
f 542 543 544
f 68 544 546
f 544 70 545
f 545 71 546
f 544 545 546
f 67 547 539
f 547 69 542
f 542 68 539
f 547 542 539
f 70 548 550
f 548 72 549
f 549 73 550
f 548 549 550
f 70 550 545
f 550 73 551
f 551 71 545
f 550 551 545
f 72 552 549
f 552 74 553
f 553 73 549
f 552 553 549
f 75 554 556
f 554 76 555
f 555 77 556
f 554 555 556
f 74 557 558
f 557 75 556
f 556 77 558
f 557 556 558
f 74 558 553
f 558 77 559
f 559 73 553
f 558 559 553
f 76 560 555
f 560 78 561
f 561 77 555
f 560 561 555
f 78 562 564
f 562 79 563
f 563 80 564
f 562 563 564
f 78 564 561
f 564 80 565
f 565 77 561
f 564 565 561
f 79 566 563
f 566 81 567
f 567 80 563
f 566 567 563
f 81 568 570
f 568 82 569
f 569 83 570
f 568 569 570
f 81 570 567
f 570 83 571
f 571 80 567
f 570 571 567
f 82 572 569
f 572 84 573
f 573 83 569
f 572 573 569
f 84 574 576
f 574 85 575
f 575 86 576
f 574 575 576
f 84 576 573
f 576 86 577
f 577 83 573
f 576 577 573
f 85 578 575
f 578 87 579
f 579 86 575
f 578 579 575
f 87 580 582
f 580 88 581
f 581 7 582
f 580 581 582
f 87 582 579
f 582 7 583
f 583 86 579
f 582 583 579
f 88 584 581
f 584 1 419
f 419 7 581
f 584 419 581
f 89 585 587
f 585 90 586
f 586 91 587
f 585 586 587
f 92 588 589
f 588 89 587
f 587 91 589
f 588 587 589
f 92 589 591
f 589 91 590
f 590 93 591
f 589 590 591
f 92 591 593
f 591 93 592
f 592 94 593
f 591 592 593
f 95 594 595
f 594 92 593
f 593 94 595
f 594 593 595
f 95 595 597
f 595 94 596
f 596 96 597
f 595 596 597
f 95 597 599
f 597 96 598
f 598 97 599
f 597 598 599
f 95 599 601
f 599 97 600
f 600 98 601
f 599 600 601
f 95 601 603
f 601 98 602
f 602 99 603
f 601 602 603
f 95 603 605
f 603 99 604
f 604 100 605
f 603 604 605
f 95 605 607
f 605 100 606
f 606 101 607
f 605 606 607
f 102 608 609
f 608 95 607
f 607 101 609
f 608 607 609
f 103 610 611
f 610 90 585
f 585 89 611
f 610 585 611
f 103 611 613
f 611 89 612
f 612 104 613
f 611 612 613
f 103 613 615
f 613 104 614
f 614 105 615
f 613 614 615
f 106 616 617
f 616 103 615
f 615 105 617
f 616 615 617
f 107 618 619
f 618 106 617
f 617 105 619
f 618 617 619
f 108 620 621
f 620 107 619
f 619 105 621
f 620 619 621
f 109 622 623
f 622 108 621
f 621 105 623
f 622 621 623
f 110 624 625
f 624 109 623
f 623 105 625
f 624 623 625
f 111 626 627
f 626 110 625
f 625 105 627
f 626 625 627
f 112 628 629
f 628 111 627
f 627 105 629
f 628 627 629
f 113 630 631
f 630 112 629
f 629 105 631
f 630 629 631
f 113 631 633
f 631 105 632
f 632 114 633
f 631 632 633
f 115 634 635
f 634 113 633
f 633 114 635
f 634 633 635
f 116 636 637
f 636 115 635
f 635 114 637
f 636 635 637
f 102 609 639
f 609 101 638
f 638 117 639
f 609 638 639
f 102 639 641
f 639 117 640
f 640 116 641
f 639 640 641
f 114 642 637
f 642 102 641
f 641 116 637
f 642 641 637
f 104 612 644
f 612 89 643
f 643 118 644
f 612 643 644
f 118 645 644
f 645 119 646
f 646 104 644
f 645 646 644
f 120 647 648
f 647 102 642
f 642 114 648
f 647 642 648
f 121 649 650
f 649 120 648
f 648 114 650
f 649 648 650
f 92 594 652
f 594 95 651
f 651 122 652
f 594 651 652
f 122 653 652
f 653 123 654
f 654 92 652
f 653 654 652
f 105 614 655
f 614 104 646
f 646 119 655
f 614 646 655
f 124 656 657
f 656 105 655
f 655 119 657
f 656 655 657
f 89 588 658
f 588 92 654
f 654 123 658
f 588 654 658
f 123 659 658
f 659 118 643
f 643 89 658
f 659 643 658
f 122 651 660
f 651 95 608
f 608 102 660
f 651 608 660
f 120 661 647
f 661 122 660
f 660 102 647
f 661 660 647
f 105 656 663
f 656 124 662
f 662 121 663
f 656 662 663
f 121 650 663
f 650 114 632
f 632 105 663
f 650 632 663
f 125 664 666
f 664 126 665
f 665 127 666
f 664 665 666
f 127 667 666
f 667 128 668
f 668 125 666
f 667 668 666
f 129 669 670
f 669 125 668
f 668 128 670
f 669 668 670
f 128 671 670
f 671 130 672
f 672 129 670
f 671 672 670
f 131 673 674
f 673 129 672
f 672 130 674
f 673 672 674
f 130 675 674
f 675 132 676
f 676 131 674
f 675 676 674
f 133 677 678
f 677 131 676
f 676 132 678
f 677 676 678
f 132 679 678
f 679 134 680
f 680 133 678
f 679 680 678
f 135 681 682
f 681 133 680
f 680 134 682
f 681 680 682
f 134 683 682
f 683 136 684
f 684 135 682
f 683 684 682
f 137 685 686
f 685 135 684
f 684 136 686
f 685 684 686
f 136 687 686
f 687 138 688
f 688 137 686
f 687 688 686
f 139 689 691
f 689 140 690
f 690 137 691
f 689 690 691
f 138 692 688
f 692 139 691
f 691 137 688
f 692 691 688
f 141 693 695
f 693 142 694
f 694 140 695
f 693 694 695
f 139 696 689
f 696 141 695
f 695 140 689
f 696 695 689
f 143 697 699
f 697 144 698
f 698 142 699
f 697 698 699
f 141 700 693
f 700 143 699
f 699 142 693
f 700 699 693
f 145 701 703
f 701 146 702
f 702 144 703
f 701 702 703
f 143 704 697
f 704 145 703
f 703 144 697
f 704 703 697
f 147 705 707
f 705 148 706
f 706 146 707
f 705 706 707
f 145 708 701
f 708 147 707
f 707 146 701
f 708 707 701
f 149 709 711
f 709 150 710
f 710 148 711
f 709 710 711
f 147 712 705
f 712 149 711
f 711 148 705
f 712 711 705
f 151 713 715
f 713 152 714
f 714 150 715
f 713 714 715
f 149 716 709
f 716 151 715
f 715 150 709
f 716 715 709
f 153 717 719
f 717 154 718
f 718 152 719
f 717 718 719
f 151 720 713
f 720 153 719
f 719 152 713
f 720 719 713
f 155 721 723
f 721 156 722
f 722 154 723
f 721 722 723
f 153 724 717
f 724 155 723
f 723 154 717
f 724 723 717
f 157 725 727
f 725 158 726
f 726 156 727
f 725 726 727
f 155 728 721
f 728 157 727
f 727 156 721
f 728 727 721
f 159 729 731
f 729 160 730
f 730 158 731
f 729 730 731
f 157 732 725
f 732 159 731
f 731 158 725
f 732 731 725
f 161 733 734
f 733 160 729
f 729 159 734
f 733 729 734
f 159 735 734
f 735 162 736
f 736 161 734
f 735 736 734
f 163 737 738
f 737 161 736
f 736 162 738
f 737 736 738
f 162 739 738
f 739 164 740
f 740 163 738
f 739 740 738
f 165 741 742
f 741 163 740
f 740 164 742
f 741 740 742
f 164 743 742
f 743 166 744
f 744 165 742
f 743 744 742
f 167 745 746
f 745 165 744
f 744 166 746
f 745 744 746
f 166 747 746
f 747 168 748
f 748 167 746
f 747 748 746
f 126 749 750
f 749 167 748
f 748 168 750
f 749 748 750
f 168 751 750
f 751 127 665
f 665 126 750
f 751 665 750
f 169 752 754
f 752 170 753
f 753 171 754
f 752 753 754
f 172 755 756
f 755 169 754
f 754 171 756
f 755 754 756
f 173 757 759
f 757 174 758
f 758 170 759
f 757 758 759
f 169 760 752
f 760 173 759
f 759 170 752
f 760 759 752
f 175 761 763
f 761 176 762
f 762 174 763
f 761 762 763
f 173 764 757
f 764 175 763
f 763 174 757
f 764 763 757
f 177 765 767
f 765 178 766
f 766 176 767
f 765 766 767
f 175 768 761
f 768 177 767
f 767 176 761
f 768 767 761
f 179 769 770
f 769 178 765
f 765 177 770
f 769 765 770
f 177 771 770
f 771 180 772
f 772 179 770
f 771 772 770
f 181 773 774
f 773 179 772
f 772 180 774
f 773 772 774
f 180 775 774
f 775 182 776
f 776 181 774
f 775 776 774
f 183 777 778
f 777 181 776
f 776 182 778
f 777 776 778
f 182 779 778
f 779 184 780
f 780 183 778
f 779 780 778
f 185 781 782
f 781 183 780
f 780 184 782
f 781 780 782
f 184 783 782
f 783 186 784
f 784 185 782
f 783 784 782
f 187 785 786
f 785 185 784
f 784 186 786
f 785 784 786
f 186 787 786
f 787 188 788
f 788 187 786
f 787 788 786
f 189 789 790
f 789 187 788
f 788 188 790
f 789 788 790
f 188 791 790
f 791 190 792
f 792 189 790
f 791 792 790
f 191 793 794
f 793 189 792
f 792 190 794
f 793 792 794
f 190 795 794
f 795 192 796
f 796 191 794
f 795 796 794
f 193 797 798
f 797 191 796
f 796 192 798
f 797 796 798
f 192 799 798
f 799 194 800
f 800 193 798
f 799 800 798
f 195 801 802
f 801 193 800
f 800 194 802
f 801 800 802
f 194 803 802
f 803 196 804
f 804 195 802
f 803 804 802
f 197 805 806
f 805 195 804
f 804 196 806
f 805 804 806
f 196 807 806
f 807 198 808
f 808 197 806
f 807 808 806
f 199 809 810
f 809 197 808
f 808 198 810
f 809 808 810
f 198 811 810
f 811 200 812
f 812 199 810
f 811 812 810
f 201 813 815
f 813 202 814
f 814 199 815
f 813 814 815
f 200 816 812
f 816 201 815
f 815 199 812
f 816 815 812
f 203 817 819
f 817 204 818
f 818 202 819
f 817 818 819
f 201 820 813
f 820 203 819
f 819 202 813
f 820 819 813
f 205 821 823
f 821 206 822
f 822 204 823
f 821 822 823
f 203 824 817
f 824 205 823
f 823 204 817
f 824 823 817
f 207 825 827
f 825 208 826
f 826 206 827
f 825 826 827
f 205 828 821
f 828 207 827
f 827 206 821
f 828 827 821
f 209 829 831
f 829 210 830
f 830 208 831
f 829 830 831
f 207 832 825
f 832 209 831
f 831 208 825
f 832 831 825
f 211 833 835
f 833 212 834
f 834 210 835
f 833 834 835
f 209 836 829
f 836 211 835
f 835 210 829
f 836 835 829
f 172 756 838
f 756 171 837
f 837 212 838
f 756 837 838
f 211 839 833
f 839 172 838
f 838 212 833
f 839 838 833
f 213 840 842
f 840 214 841
f 841 215 842
f 840 841 842
f 215 843 842
f 843 216 844
f 844 213 842
f 843 844 842
f 217 845 846
f 845 103 616
f 616 106 846
f 845 616 846
f 218 847 848
f 847 217 846
f 846 106 848
f 847 846 848
f 90 610 849
f 610 103 845
f 845 217 849
f 610 845 849
f 217 850 849
f 850 219 851
f 851 90 849
f 850 851 849
f 220 852 853
f 852 91 586
f 586 90 853
f 852 586 853
f 219 854 851
f 854 220 853
f 853 90 851
f 854 853 851
f 221 855 856
f 855 93 590
f 590 91 856
f 855 590 856
f 220 857 852
f 857 221 856
f 856 91 852
f 857 856 852
f 222 858 859
f 858 94 592
f 592 93 859
f 858 592 859
f 221 860 855
f 860 222 859
f 859 93 855
f 860 859 855
f 223 861 862
f 861 96 596
f 596 94 862
f 861 596 862
f 222 863 858
f 863 223 862
f 862 94 858
f 863 862 858
f 224 864 865
f 864 97 598
f 598 96 865
f 864 598 865
f 223 866 861
f 866 224 865
f 865 96 861
f 866 865 861
f 98 600 867
f 600 97 864
f 864 224 867
f 600 864 867
f 224 868 867
f 868 225 869
f 869 98 867
f 868 869 867
f 99 602 870
f 602 98 869
f 869 225 870
f 602 869 870
f 225 871 870
f 871 226 872
f 872 99 870
f 871 872 870
f 100 604 873
f 604 99 872
f 872 226 873
f 604 872 873
f 226 874 873
f 874 227 875
f 875 100 873
f 874 875 873
f 101 606 876
f 606 100 875
f 875 227 876
f 606 875 876
f 227 877 876
f 877 228 878
f 878 101 876
f 877 878 876
f 117 638 879
f 638 101 878
f 878 228 879
f 638 878 879
f 228 880 879
f 880 229 881
f 881 117 879
f 880 881 879
f 230 882 883
f 882 116 640
f 640 117 883
f 882 640 883
f 229 884 881
f 884 230 883
f 883 117 881
f 884 883 881
f 115 636 885
f 636 116 882
f 882 230 885
f 636 882 885
f 230 886 885
f 886 231 887
f 887 115 885
f 886 887 885
f 113 634 888
f 634 115 887
f 887 231 888
f 634 887 888
f 231 889 888
f 889 232 890
f 890 113 888
f 889 890 888
f 112 630 891
f 630 113 890
f 890 232 891
f 630 890 891
f 232 892 891
f 892 233 893
f 893 112 891
f 892 893 891
f 111 628 894
f 628 112 893
f 893 233 894
f 628 893 894
f 233 895 894
f 895 234 896
f 896 111 894
f 895 896 894
f 110 626 897
f 626 111 896
f 896 234 897
f 626 896 897
f 234 898 897
f 898 235 899
f 899 110 897
f 898 899 897
f 236 900 901
f 900 109 624
f 624 110 901
f 900 624 901
f 235 902 899
f 902 236 901
f 901 110 899
f 902 901 899
f 237 903 904
f 903 108 622
f 622 109 904
f 903 622 904
f 236 905 900
f 905 237 904
f 904 109 900
f 905 904 900
f 238 906 907
f 906 107 620
f 620 108 907
f 906 620 907
f 237 908 903
f 908 238 907
f 907 108 903
f 908 907 903
f 218 848 909
f 848 106 618
f 618 107 909
f 848 618 909
f 238 910 906
f 910 218 909
f 909 107 906
f 910 909 906
f 239 911 912
f 911 213 844
f 844 216 912
f 911 844 912
f 216 913 912
f 913 240 914
f 914 239 912
f 913 914 912
f 241 915 916
f 915 239 914
f 914 240 916
f 915 914 916
f 240 917 916
f 917 242 918
f 918 241 916
f 917 918 916
f 243 919 920
f 919 241 918
f 918 242 920
f 919 918 920
f 242 921 920
f 921 244 922
f 922 243 920
f 921 922 920
f 245 923 924
f 923 243 922
f 922 244 924
f 923 922 924
f 244 925 924
f 925 246 926
f 926 245 924
f 925 926 924
f 247 927 928
f 927 245 926
f 926 246 928
f 927 926 928
f 246 929 928
f 929 248 930
f 930 247 928
f 929 930 928
f 249 931 933
f 931 250 932
f 932 247 933
f 931 932 933
f 248 934 930
f 934 249 933
f 933 247 930
f 934 933 930
f 251 935 937
f 935 252 936
f 936 250 937
f 935 936 937
f 249 938 931
f 938 251 937
f 937 250 931
f 938 937 931
f 253 939 941
f 939 254 940
f 940 252 941
f 939 940 941
f 251 942 935
f 942 253 941
f 941 252 935
f 942 941 935
f 255 943 945
f 943 256 944
f 944 254 945
f 943 944 945
f 253 946 939
f 946 255 945
f 945 254 939
f 946 945 939
f 257 947 949
f 947 258 948
f 948 256 949
f 947 948 949
f 255 950 943
f 950 257 949
f 949 256 943
f 950 949 943
f 259 951 953
f 951 260 952
f 952 258 953
f 951 952 953
f 257 954 947
f 954 259 953
f 953 258 947
f 954 953 947
f 261 955 957
f 955 262 956
f 956 260 957
f 955 956 957
f 259 958 951
f 958 261 957
f 957 260 951
f 958 957 951
f 263 959 961
f 959 264 960
f 960 262 961
f 959 960 961
f 261 962 955
f 962 263 961
f 961 262 955
f 962 961 955
f 265 963 965
f 963 266 964
f 964 264 965
f 963 964 965
f 263 966 959
f 966 265 965
f 965 264 959
f 966 965 959
f 267 967 969
f 967 268 968
f 968 266 969
f 967 968 969
f 265 970 963
f 970 267 969
f 969 266 963
f 970 969 963
f 269 971 973
f 971 270 972
f 972 268 973
f 971 972 973
f 267 974 967
f 974 269 973
f 973 268 967
f 974 973 967
f 271 975 976
f 975 270 971
f 971 269 976
f 975 971 976
f 269 977 976
f 977 272 978
f 978 271 976
f 977 978 976
f 273 979 980
f 979 271 978
f 978 272 980
f 979 978 980
f 272 981 980
f 981 274 982
f 982 273 980
f 981 982 980
f 275 983 984
f 983 273 982
f 982 274 984
f 983 982 984
f 274 985 984
f 985 276 986
f 986 275 984
f 985 986 984
f 277 987 988
f 987 275 986
f 986 276 988
f 987 986 988
f 276 989 988
f 989 278 990
f 990 277 988
f 989 990 988
f 214 991 992
f 991 277 990
f 990 278 992
f 991 990 992
f 278 993 992
f 993 215 841
f 841 214 992
f 993 841 992
f 172 994 995
f 994 127 751
f 751 168 995
f 994 751 995
f 127 994 996
f 994 172 839
f 839 211 996
f 994 839 996
f 169 755 997
f 755 172 995
f 995 168 997
f 755 995 997
f 169 997 998
f 997 168 747
f 747 166 998
f 997 747 998
f 173 760 999
f 760 169 998
f 998 166 999
f 760 998 999
f 173 999 1000
f 999 166 743
f 743 164 1000
f 999 743 1000
f 175 764 1001
f 764 173 1000
f 1000 164 1001
f 764 1000 1001
f 175 1001 1002
f 1001 164 739
f 739 162 1002
f 1001 739 1002
f 175 1002 1003
f 1002 162 735
f 735 159 1003
f 1002 735 1003
f 177 768 1004
f 768 175 1003
f 1003 159 1004
f 768 1003 1004
f 177 1004 1005
f 1004 159 732
f 732 157 1005
f 1004 732 1005
f 180 771 1006
f 771 177 1005
f 1005 157 1006
f 771 1005 1006
f 180 1006 1007
f 1006 157 728
f 728 155 1007
f 1006 728 1007
f 182 775 1008
f 775 180 1007
f 1007 155 1008
f 775 1007 1008
f 182 1008 1009
f 1008 155 724
f 724 153 1009
f 1008 724 1009
f 184 779 1010
f 779 182 1009
f 1009 153 1010
f 779 1009 1010
f 184 1010 1011
f 1010 153 720
f 720 151 1011
f 1010 720 1011
f 186 783 1012
f 783 184 1011
f 1011 151 1012
f 783 1011 1012
f 186 1012 1013
f 1012 151 716
f 716 149 1013
f 1012 716 1013
f 188 787 1014
f 787 186 1013
f 1013 149 1014
f 787 1013 1014
f 139 692 1015
f 692 138 687
f 687 136 1015
f 692 687 1015
f 139 1015 1016
f 1015 136 683
f 683 134 1016
f 1015 683 1016
f 141 696 1017
f 696 139 1016
f 1016 134 1017
f 696 1016 1017
f 141 1017 1018
f 1017 134 679
f 679 132 1018
f 1017 679 1018
f 145 704 1019
f 704 143 700
f 700 141 1019
f 704 700 1019
f 147 708 1020
f 708 145 1019
f 1019 141 1020
f 708 1019 1020
f 132 675 1021
f 675 130 671
f 671 128 1021
f 675 671 1021
f 128 667 1022
f 667 127 996
f 996 211 1022
f 667 996 1022
f 188 1014 1023
f 1014 149 712
f 712 147 1023
f 1014 712 1023
f 190 791 1024
f 791 188 1023
f 1023 147 1024
f 791 1023 1024
f 192 795 1025
f 795 190 1024
f 1024 147 1025
f 795 1024 1025
f 194 799 1026
f 799 192 1025
f 1025 147 1026
f 799 1025 1026
f 194 1026 1027
f 1026 147 1020
f 1020 141 1027
f 1026 1020 1027
f 196 803 1028
f 803 194 1027
f 1027 141 1028
f 803 1027 1028
f 198 807 1029
f 807 196 1028
f 1028 141 1029
f 807 1028 1029
f 200 811 1030
f 811 198 1029
f 1029 141 1030
f 811 1029 1030
f 128 1022 1031
f 1022 211 836
f 836 209 1031
f 1022 836 1031
f 128 1031 1032
f 1031 209 832
f 832 207 1032
f 1031 832 1032
f 132 1021 1033
f 1021 128 1032
f 1032 207 1033
f 1021 1032 1033
f 132 1033 1034
f 1033 207 828
f 828 205 1034
f 1033 828 1034
f 132 1034 1035
f 1034 205 824
f 824 203 1035
f 1034 824 1035
f 132 1035 1036
f 1035 203 820
f 820 201 1036
f 1035 820 1036
f 200 1030 1037
f 1030 141 1018
f 1018 132 1037
f 1030 1018 1037
f 201 816 1036
f 816 200 1037
f 1037 132 1036
f 816 1037 1036
f 240 913 1039
f 913 216 1038
f 1038 218 1039
f 913 1038 1039
f 217 847 1040
f 847 218 1038
f 1038 216 1040
f 847 1038 1040
f 240 1039 1041
f 1039 218 910
f 910 238 1041
f 1039 910 1041
f 242 917 1042
f 917 240 1041
f 1041 238 1042
f 917 1041 1042
f 242 1042 1043
f 1042 238 908
f 908 237 1043
f 1042 908 1043
f 244 921 1044
f 921 242 1043
f 1043 237 1044
f 921 1043 1044
f 244 1044 1045
f 1044 237 905
f 905 236 1045
f 1044 905 1045
f 246 925 1046
f 925 244 1045
f 1045 236 1046
f 925 1045 1046
f 248 929 1047
f 929 246 1046
f 1046 236 1047
f 929 1046 1047
f 248 1047 1048
f 1047 236 902
f 902 235 1048
f 1047 902 1048
f 249 934 1049
f 934 248 1048
f 1048 235 1049
f 934 1048 1049
f 249 1049 1050
f 1049 235 898
f 898 234 1050
f 1049 898 1050
f 251 938 1051
f 938 249 1050
f 1050 234 1051
f 938 1050 1051
f 251 1051 1052
f 1051 234 895
f 895 233 1052
f 1051 895 1052
f 253 942 1053
f 942 251 1052
f 1052 233 1053
f 942 1052 1053
f 253 1053 1054
f 1053 233 892
f 892 232 1054
f 1053 892 1054
f 255 946 1055
f 946 253 1054
f 1054 232 1055
f 946 1054 1055
f 255 1055 1056
f 1055 232 889
f 889 231 1056
f 1055 889 1056
f 257 950 1057
f 950 255 1056
f 1056 231 1057
f 950 1056 1057
f 257 1057 1058
f 1057 231 886
f 886 230 1058
f 1057 886 1058
f 272 977 1059
f 977 269 974
f 974 267 1059
f 977 974 1059
f 274 981 1060
f 981 272 1059
f 1059 267 1060
f 981 1059 1060
f 274 1060 1061
f 1060 267 970
f 970 265 1061
f 1060 970 1061
f 276 985 1062
f 985 274 1061
f 1061 265 1062
f 985 1061 1062
f 265 966 1063
f 966 263 962
f 962 261 1063
f 966 962 1063
f 265 1063 1064
f 1063 261 958
f 958 259 1064
f 1063 958 1064
f 215 993 1065
f 993 278 989
f 989 276 1065
f 993 989 1065
f 217 1040 1066
f 1040 216 843
f 843 215 1066
f 1040 843 1066
f 259 954 1067
f 954 257 1058
f 1058 230 1067
f 954 1058 1067
f 219 850 1068
f 850 217 1066
f 1066 215 1068
f 850 1066 1068
f 220 854 1069
f 854 219 1068
f 1068 215 1069
f 854 1068 1069
f 220 1069 1070
f 1069 215 1065
f 1065 276 1070
f 1069 1065 1070
f 221 857 1071
f 857 220 1070
f 1070 276 1071
f 857 1070 1071
f 222 860 1072
f 860 221 1071
f 1071 276 1072
f 860 1071 1072
f 223 863 1073
f 863 222 1072
f 1072 276 1073
f 863 1072 1073
f 259 1067 1074
f 1067 230 884
f 884 229 1074
f 1067 884 1074
f 259 1074 1075
f 1074 229 880
f 880 228 1075
f 1074 880 1075
f 259 1075 1076
f 1075 228 877
f 877 227 1076
f 1075 877 1076
f 265 1064 1077
f 1064 259 1076
f 1076 227 1077
f 1064 1076 1077
f 265 1077 1078
f 1077 227 874
f 874 226 1078
f 1077 874 1078
f 265 1078 1079
f 1078 226 871
f 871 225 1079
f 1078 871 1079
f 223 1073 1080
f 1073 276 1062
f 1062 265 1080
f 1073 1062 1080
f 224 866 1081
f 866 223 1080
f 1080 265 1081
f 866 1080 1081
f 265 1079 1081
f 1079 225 868
f 868 224 1081
f 1079 868 1081
f 125 1082 1083
f 1082 214 840
f 840 213 1083
f 1082 840 1083
f 213 1084 1083
f 1084 126 664
f 664 125 1083
f 1084 664 1083
f 167 749 1085
f 749 126 1084
f 1084 213 1085
f 749 1084 1085
f 239 1086 911
f 1086 167 1085
f 1085 213 911
f 1086 1085 911
f 167 1086 1087
f 1086 239 915
f 915 241 1087
f 1086 915 1087
f 241 1088 1087
f 1088 165 745
f 745 167 1087
f 1088 745 1087
f 165 1088 1089
f 1088 241 919
f 919 243 1089
f 1088 919 1089
f 243 1090 1089
f 1090 163 741
f 741 165 1089
f 1090 741 1089
f 163 1090 1091
f 1090 243 923
f 923 245 1091
f 1090 923 1091
f 245 1092 1091
f 1092 161 737
f 737 163 1091
f 1092 737 1091
f 247 1093 1094
f 1093 160 733
f 733 161 1094
f 1093 733 1094
f 247 1094 927
f 1094 161 1092
f 1092 245 927
f 1094 1092 927
f 158 730 1095
f 730 160 1093
f 1093 247 1095
f 730 1093 1095
f 250 1096 932
f 1096 158 1095
f 1095 247 932
f 1096 1095 932
f 156 726 1097
f 726 158 1096
f 1096 250 1097
f 726 1096 1097
f 252 1098 936
f 1098 156 1097
f 1097 250 936
f 1098 1097 936
f 154 722 1099
f 722 156 1098
f 1098 252 1099
f 722 1098 1099
f 254 1100 940
f 1100 154 1099
f 1099 252 940
f 1100 1099 940
f 152 718 1101
f 718 154 1100
f 1100 254 1101
f 718 1100 1101
f 256 1102 944
f 1102 152 1101
f 1101 254 944
f 1102 1101 944
f 152 1102 1103
f 1102 256 948
f 948 258 1103
f 1102 948 1103
f 258 1104 1103
f 1104 150 714
f 714 152 1103
f 1104 714 1103
f 148 710 1105
f 710 150 1104
f 1104 258 1105
f 710 1104 1105
f 260 1106 952
f 1106 148 1105
f 1105 258 952
f 1106 1105 952
f 148 1106 1107
f 1106 260 956
f 956 262 1107
f 1106 956 1107
f 262 1108 1107
f 1108 146 706
f 706 148 1107
f 1108 706 1107
f 144 702 1109
f 702 146 1108
f 1108 262 1109
f 702 1108 1109
f 264 1110 960
f 1110 144 1109
f 1109 262 960
f 1110 1109 960
f 142 698 1111
f 698 144 1110
f 1110 264 1111
f 698 1110 1111
f 266 1112 964
f 1112 142 1111
f 1111 264 964
f 1112 1111 964
f 140 694 1113
f 694 142 1112
f 1112 266 1113
f 694 1112 1113
f 268 1114 968
f 1114 140 1113
f 1113 266 968
f 1114 1113 968
f 137 690 1115
f 690 140 1114
f 1114 268 1115
f 690 1114 1115
f 270 1116 972
f 1116 137 1115
f 1115 268 972
f 1116 1115 972
f 137 1116 1117
f 1116 270 975
f 975 271 1117
f 1116 975 1117
f 271 1118 1117
f 1118 135 685
f 685 137 1117
f 1118 685 1117
f 135 1118 1119
f 1118 271 979
f 979 273 1119
f 1118 979 1119
f 273 1120 1119
f 1120 133 681
f 681 135 1119
f 1120 681 1119
f 133 1120 1121
f 1120 273 983
f 983 275 1121
f 1120 983 1121
f 275 1122 1121
f 1122 131 677
f 677 133 1121
f 1122 677 1121
f 131 1122 1123
f 1122 275 987
f 987 277 1123
f 1122 987 1123
f 277 1124 1123
f 1124 129 673
f 673 131 1123
f 1124 673 1123
f 125 669 1125
f 669 129 1124
f 1124 277 1125
f 669 1124 1125
f 214 1082 991
f 1082 125 1125
f 1125 277 991
f 1082 1125 991
f 279 1126 1128
f 1126 280 1127
f 1127 281 1128
f 1126 1127 1128
f 281 1129 1128
f 1129 282 1130
f 1130 279 1128
f 1129 1130 1128
f 280 1126 1132
f 1126 279 1131
f 1131 283 1132
f 1126 1131 1132
f 283 1133 1132
f 1133 284 1134
f 1134 280 1132
f 1133 1134 1132
f 285 1135 1137
f 1135 286 1136
f 1136 284 1137
f 1135 1136 1137
f 283 1138 1133
f 1138 285 1137
f 1137 284 1133
f 1138 1137 1133
f 286 1135 1140
f 1135 285 1139
f 1139 287 1140
f 1135 1139 1140
f 288 1141 1142
f 1141 286 1140
f 1140 287 1142
f 1141 1140 1142
f 289 1143 1144
f 1143 288 1142
f 1142 287 1144
f 1143 1142 1144
f 290 1145 1146
f 1145 289 1144
f 1144 287 1146
f 1145 1144 1146
f 290 1147 1149
f 1147 291 1148
f 1148 292 1149
f 1147 1148 1149
f 289 1145 1150
f 1145 290 1149
f 1149 292 1150
f 1145 1149 1150
f 291 1151 1153
f 1151 293 1152
f 1152 294 1153
f 1151 1152 1153
f 292 1148 1154
f 1148 291 1153
f 1153 294 1154
f 1148 1153 1154
f 295 1155 1157
f 1155 296 1156
f 1156 294 1157
f 1155 1156 1157
f 294 1152 1157
f 1152 293 1158
f 1158 295 1157
f 1152 1158 1157
f 296 1155 1160
f 1155 295 1159
f 1159 297 1160
f 1155 1159 1160
f 297 1161 1160
f 1161 298 1162
f 1162 296 1160
f 1161 1162 1160
f 299 1163 1165
f 1163 300 1164
f 1164 298 1165
f 1163 1164 1165
f 298 1161 1165
f 1161 297 1166
f 1166 299 1165
f 1161 1166 1165
f 301 1167 1168
f 1167 300 1163
f 1163 299 1168
f 1167 1163 1168
f 299 1169 1168
f 1169 302 1170
f 1170 301 1168
f 1169 1170 1168
f 302 1171 1173
f 1171 303 1172
f 1172 304 1173
f 1171 1172 1173
f 301 1170 1174
f 1170 302 1173
f 1173 304 1174
f 1170 1173 1174
f 303 1175 1177
f 1175 305 1176
f 1176 306 1177
f 1175 1176 1177
f 304 1172 1178
f 1172 303 1177
f 1177 306 1178
f 1172 1177 1178
f 305 1179 1181
f 1179 307 1180
f 1180 308 1181
f 1179 1180 1181
f 306 1176 1182
f 1176 305 1181
f 1181 308 1182
f 1176 1181 1182
f 309 1183 1184
f 1183 308 1180
f 1180 307 1184
f 1183 1180 1184
f 310 1185 1186
f 1185 309 1184
f 1184 307 1186
f 1185 1184 1186
f 310 1187 1189
f 1187 311 1188
f 1188 312 1189
f 1187 1188 1189
f 309 1185 1190
f 1185 310 1189
f 1189 312 1190
f 1185 1189 1190
f 313 1191 1192
f 1191 312 1188
f 1188 311 1192
f 1191 1188 1192
f 314 1193 1194
f 1193 313 1192
f 1192 311 1194
f 1193 1192 1194
f 315 1195 1197
f 1195 316 1196
f 1196 313 1197
f 1195 1196 1197
f 313 1193 1197
f 1193 314 1198
f 1198 315 1197
f 1193 1198 1197
f 316 1195 1200
f 1195 315 1199
f 1199 317 1200
f 1195 1199 1200
f 317 1201 1200
f 1201 318 1202
f 1202 316 1200
f 1201 1202 1200
f 319 1203 1205
f 1203 320 1204
f 1204 318 1205
f 1203 1204 1205
f 318 1201 1205
f 1201 317 1206
f 1206 319 1205
f 1201 1206 1205
f 319 1207 1209
f 1207 321 1208
f 1208 322 1209
f 1207 1208 1209
f 320 1203 1210
f 1203 319 1209
f 1209 322 1210
f 1203 1209 1210
f 321 1211 1213
f 1211 323 1212
f 1212 324 1213
f 1211 1212 1213
f 322 1208 1214
f 1208 321 1213
f 1213 324 1214
f 1208 1213 1214
f 323 1215 1217
f 1215 325 1216
f 1216 326 1217
f 1215 1216 1217
f 324 1212 1218
f 1212 323 1217
f 1217 326 1218
f 1212 1217 1218
f 327 1219 1221
f 1219 328 1220
f 1220 326 1221
f 1219 1220 1221
f 325 1222 1216
f 1222 327 1221
f 1221 326 1216
f 1222 1221 1216
f 328 1219 1224
f 1219 327 1223
f 1223 329 1224
f 1219 1223 1224
f 330 1225 1226
f 1225 328 1224
f 1224 329 1226
f 1225 1224 1226
f 282 1129 1228
f 1129 281 1227
f 1227 330 1228
f 1129 1227 1228
f 330 1226 1228
f 1226 329 1229
f 1229 282 1228
f 1226 1229 1228
f 311 1230 1231
f 1230 212 837
f 837 171 1231
f 1230 837 1231
f 212 1230 1232
f 1230 311 1187
f 1187 310 1232
f 1230 1187 1232
f 311 1231 1233
f 1231 171 753
f 753 170 1233
f 1231 753 1233
f 311 1233 1234
f 1233 170 758
f 758 174 1234
f 1233 758 1234
f 212 1232 1235
f 1232 310 1186
f 1186 307 1235
f 1232 1186 1235
f 311 1234 1236
f 1234 174 762
f 762 176 1236
f 1234 762 1236
f 311 1236 1237
f 1236 176 766
f 766 178 1237
f 1236 766 1237
f 311 1237 1238
f 1237 178 769
f 769 179 1238
f 1237 769 1238
f 212 1235 1239
f 1235 307 1179
f 1179 305 1239
f 1235 1179 1239
f 210 834 1240
f 834 212 1239
f 1239 305 1240
f 834 1239 1240
f 208 830 1241
f 830 210 1240
f 1240 305 1241
f 830 1240 1241
f 206 826 1242
f 826 208 1241
f 1241 305 1242
f 826 1241 1242
f 204 822 1243
f 822 206 1242
f 1242 305 1243
f 822 1242 1243
f 197 809 1244
f 809 199 814
f 814 202 1244
f 809 814 1244
f 197 1244 1245
f 1244 202 818
f 818 204 1245
f 1244 818 1245
f 195 805 1246
f 805 197 1245
f 1245 204 1246
f 805 1245 1246
f 193 801 1247
f 801 195 1246
f 1246 204 1247
f 801 1246 1247
f 191 797 1248
f 797 193 1247
f 1247 204 1248
f 797 1247 1248
f 189 793 1249
f 793 191 1248
f 1248 204 1249
f 793 1248 1249
f 179 773 1250
f 773 181 777
f 777 183 1250
f 773 777 1250
f 179 1250 1251
f 1250 183 781
f 781 185 1251
f 1250 781 1251
f 179 1251 1252
f 1251 185 785
f 785 187 1252
f 1251 785 1252
f 314 1194 1253
f 1194 311 1238
f 1238 179 1253
f 1194 1238 1253
f 315 1198 1254
f 1198 314 1253
f 1253 179 1254
f 1198 1253 1254
f 317 1199 1255
f 1199 315 1254
f 1254 179 1255
f 1199 1254 1255
f 319 1206 1256
f 1206 317 1255
f 1255 179 1256
f 1206 1255 1256
f 321 1207 1257
f 1207 319 1256
f 1256 179 1257
f 1207 1256 1257
f 321 1257 1258
f 1257 179 1252
f 1252 187 1258
f 1257 1252 1258
f 323 1211 1259
f 1211 321 1258
f 1258 187 1259
f 1211 1258 1259
f 325 1215 1260
f 1215 323 1259
f 1259 187 1260
f 1215 1259 1260
f 327 1222 1261
f 1222 325 1260
f 1260 187 1261
f 1222 1260 1261
f 329 1223 1262
f 1223 327 1261
f 1261 187 1262
f 1223 1261 1262
f 282 1229 1263
f 1229 329 1262
f 1262 187 1263
f 1229 1262 1263
f 282 1263 1264
f 1263 187 789
f 789 189 1264
f 1263 789 1264
f 279 1130 1265
f 1130 282 1264
f 1264 189 1265
f 1130 1264 1265
f 283 1131 1266
f 1131 279 1265
f 1265 189 1266
f 1131 1265 1266
f 285 1138 1267
f 1138 283 1266
f 1266 189 1267
f 1138 1266 1267
f 287 1139 1268
f 1139 285 1267
f 1267 189 1268
f 1139 1267 1268
f 287 1268 1269
f 1268 189 1249
f 1249 204 1269
f 1268 1249 1269
f 290 1146 1270
f 1146 287 1269
f 1269 204 1270
f 1146 1269 1270
f 291 1147 1271
f 1147 290 1270
f 1270 204 1271
f 1147 1270 1271
f 293 1151 1272
f 1151 291 1271
f 1271 204 1272
f 1151 1271 1272
f 295 1158 1273
f 1158 293 1272
f 1272 204 1273
f 1158 1272 1273
f 297 1159 1274
f 1159 295 1273
f 1273 204 1274
f 1159 1273 1274
f 299 1166 1275
f 1166 297 1274
f 1274 204 1275
f 1166 1274 1275
f 302 1169 1276
f 1169 299 1275
f 1275 204 1276
f 1169 1275 1276
f 303 1171 1277
f 1171 302 1276
f 1276 204 1277
f 1171 1276 1277
f 305 1175 1243
f 1175 303 1277
f 1277 204 1243
f 1175 1277 1243
f 6 427 1279
f 427 11 1278
f 1278 331 1279
f 427 1278 1279
f 331 1280 1279
f 1280 332 1281
f 1281 6 1279
f 1280 1281 1279
f 7 418 1282
f 418 6 1281
f 1281 332 1282
f 418 1281 1282
f 332 1283 1282
f 1283 333 1284
f 1284 7 1282
f 1283 1284 1282
f 334 1285 1286
f 1285 86 583
f 583 7 1286
f 1285 583 1286
f 333 1287 1284
f 1287 334 1286
f 1286 7 1284
f 1287 1286 1284
f 83 577 1288
f 577 86 1285
f 1285 334 1288
f 577 1285 1288
f 334 1289 1288
f 1289 335 1290
f 1290 83 1288
f 1289 1290 1288
f 80 571 1291
f 571 83 1290
f 1290 335 1291
f 571 1290 1291
f 335 1292 1291
f 1292 336 1293
f 1293 80 1291
f 1292 1293 1291
f 77 565 1294
f 565 80 1293
f 1293 336 1294
f 565 1293 1294
f 336 1295 1294
f 1295 337 1296
f 1296 77 1294
f 1295 1296 1294
f 73 559 1297
f 559 77 1296
f 1296 337 1297
f 559 1296 1297
f 337 1298 1297
f 1298 338 1299
f 1299 73 1297
f 1298 1299 1297
f 71 551 1300
f 551 73 1299
f 1299 338 1300
f 551 1299 1300
f 338 1301 1300
f 1301 339 1302
f 1302 71 1300
f 1301 1302 1300
f 340 1303 1304
f 1303 68 546
f 546 71 1304
f 1303 546 1304
f 339 1305 1302
f 1305 340 1304
f 1304 71 1302
f 1305 1304 1302
f 341 1306 1307
f 1306 64 540
f 540 68 1307
f 1306 540 1307
f 340 1308 1303
f 1308 341 1307
f 1307 68 1303
f 1308 1307 1303
f 342 1309 1310
f 1309 61 532
f 532 64 1310
f 1309 532 1310
f 341 1311 1306
f 1311 342 1310
f 1310 64 1306
f 1311 1310 1306
f 343 1312 1313
f 1312 58 527
f 527 61 1313
f 1312 527 1313
f 342 1314 1309
f 1314 343 1313
f 1313 61 1309
f 1314 1313 1309
f 344 1315 1316
f 1315 55 521
f 521 58 1316
f 1315 521 1316
f 343 1317 1312
f 1317 344 1316
f 1316 58 1312
f 1317 1316 1312
f 344 1318 1320
f 1318 345 1319
f 1319 52 1320
f 1318 1319 1320
f 344 1320 1315
f 1320 52 514
f 514 55 1315
f 1320 514 1315
f 346 1321 1322
f 1321 46 509
f 509 52 1322
f 1321 509 1322
f 345 1323 1319
f 1323 346 1322
f 1322 52 1319
f 1323 1322 1319
f 347 1324 1325
f 1324 43 496
f 496 46 1325
f 1324 496 1325
f 346 1326 1321
f 1326 347 1325
f 1325 46 1321
f 1326 1325 1321
f 40 490 1327
f 490 43 1324
f 1324 347 1327
f 490 1324 1327
f 347 1328 1327
f 1328 348 1329
f 1329 40 1327
f 1328 1329 1327
f 36 485 1330
f 485 40 1329
f 1329 348 1330
f 485 1329 1330
f 348 1331 1330
f 1331 349 1332
f 1332 36 1330
f 1331 1332 1330
f 33 476 1333
f 476 36 1332
f 1332 349 1333
f 476 1332 1333
f 349 1334 1333
f 1334 350 1335
f 1335 33 1333
f 1334 1335 1333
f 30 470 1336
f 470 33 1335
f 1335 350 1336
f 470 1335 1336
f 350 1337 1336
f 1337 351 1338
f 1338 30 1336
f 1337 1338 1336
f 26 464 1339
f 464 30 1338
f 1338 351 1339
f 464 1338 1339
f 351 1340 1339
f 1340 352 1341
f 1341 26 1339
f 1340 1341 1339
f 353 1342 1343
f 1342 23 457
f 457 26 1343
f 1342 457 1343
f 352 1344 1341
f 1344 353 1343
f 1343 26 1341
f 1344 1343 1341
f 354 1345 1346
f 1345 19 451
f 451 23 1346
f 1345 451 1346
f 353 1347 1342
f 1347 354 1346
f 1346 23 1342
f 1347 1346 1342
f 355 1348 1349
f 1348 16 443
f 443 19 1349
f 1348 443 1349
f 354 1350 1345
f 1350 355 1349
f 1349 19 1345
f 1350 1349 1345
f 356 1351 1352
f 1351 13 437
f 437 16 1352
f 1351 437 1352
f 355 1353 1348
f 1353 356 1352
f 1352 16 1348
f 1353 1352 1348
f 331 1278 1354
f 1278 11 431
f 431 13 1354
f 1278 431 1354
f 356 1355 1351
f 1355 331 1354
f 1354 13 1351
f 1355 1354 1351
f 345 1318 1356
f 1318 344 1317
f 1317 343 1356
f 1318 1317 1356
f 345 1356 1357
f 1356 343 1314
f 1314 342 1357
f 1356 1314 1357
f 345 1357 1358
f 1357 342 1311
f 1311 341 1358
f 1357 1311 1358
f 345 1358 1359
f 1358 341 1308
f 1308 340 1359
f 1358 1308 1359
f 346 1323 1360
f 1323 345 1359
f 1359 340 1360
f 1323 1359 1360
f 335 1289 1361
f 1289 334 1287
f 1287 333 1361
f 1289 1287 1361
f 336 1292 1362
f 1292 335 1361
f 1361 333 1362
f 1292 1361 1362
f 337 1295 1363
f 1295 336 1362
f 1362 333 1363
f 1295 1362 1363
f 338 1298 1364
f 1298 337 1363
f 1363 333 1364
f 1298 1363 1364
f 338 1364 1365
f 1364 333 1283
f 1283 332 1365
f 1364 1283 1365
f 348 1328 1366
f 1328 347 1326
f 1326 346 1366
f 1328 1326 1366
f 349 1331 1367
f 1331 348 1366
f 1366 346 1367
f 1331 1366 1367
f 350 1334 1368
f 1334 349 1367
f 1367 346 1368
f 1334 1367 1368
f 351 1337 1369
f 1337 350 1368
f 1368 346 1369
f 1337 1368 1369
f 351 1369 1370
f 1369 346 1360
f 1360 340 1370
f 1369 1360 1370
f 332 1280 1371
f 1280 331 1355
f 1355 356 1371
f 1280 1355 1371
f 332 1371 1372
f 1371 356 1353
f 1353 355 1372
f 1371 1353 1372
f 332 1372 1373
f 1372 355 1350
f 1350 354 1373
f 1372 1350 1373
f 332 1373 1374
f 1373 354 1347
f 1347 353 1374
f 1373 1347 1374
f 332 1374 1375
f 1374 353 1344
f 1344 352 1375
f 1374 1344 1375
f 332 1375 1376
f 1375 352 1340
f 1340 351 1376
f 1375 1340 1376
f 332 1376 1377
f 1376 351 1370
f 1370 340 1377
f 1376 1370 1377
f 338 1365 1378
f 1365 332 1377
f 1377 340 1378
f 1365 1377 1378
f 340 1305 1378
f 1305 339 1301
f 1301 338 1378
f 1305 1301 1378
f 2 409 1380
f 409 1 1379
f 1379 281 1380
f 409 1379 1380
f 3 410 1381
f 410 2 1380
f 1380 281 1381
f 410 1380 1381
f 4 412 1382
f 412 3 1381
f 1381 281 1382
f 412 1381 1382
f 5 414 1383
f 414 4 1382
f 1382 281 1383
f 414 1382 1383
f 280 1384 1385
f 1384 8 420
f 420 5 1385
f 1384 420 1385
f 280 1385 1127
f 1385 5 1383
f 1383 281 1127
f 1385 1383 1127
f 284 1386 1387
f 1386 10 422
f 422 9 1387
f 1386 422 1387
f 284 1387 1134
f 1387 9 1388
f 1388 280 1134
f 1387 1388 1134
f 9 425 1388
f 425 8 1384
f 1384 280 1388
f 425 1384 1388
f 12 428 1389
f 428 10 1386
f 1386 284 1389
f 428 1386 1389
f 286 1390 1391
f 1390 14 432
f 432 12 1391
f 1390 432 1391
f 286 1391 1136
f 1391 12 1389
f 1389 284 1136
f 1391 1389 1136
f 15 434 1392
f 434 14 1390
f 1390 286 1392
f 434 1390 1392
f 288 1393 1394
f 1393 17 438
f 438 15 1394
f 1393 438 1394
f 288 1394 1141
f 1394 15 1392
f 1392 286 1141
f 1394 1392 1141
f 18 440 1395
f 440 17 1393
f 1393 288 1395
f 440 1393 1395
f 289 1396 1397
f 1396 21 444
f 444 20 1397
f 1396 444 1397
f 289 1397 1398
f 1397 20 447
f 447 18 1398
f 1397 447 1398
f 289 1398 1143
f 1398 18 1395
f 1395 288 1143
f 1398 1395 1143
f 22 448 1399
f 448 21 1396
f 1396 289 1399
f 448 1396 1399
f 292 1400 1401
f 1400 24 452
f 452 22 1401
f 1400 452 1401
f 292 1401 1150
f 1401 22 1399
f 1399 289 1150
f 1401 1399 1150
f 25 454 1402
f 454 24 1400
f 1400 292 1402
f 454 1400 1402
f 294 1403 1404
f 1403 27 458
f 458 25 1404
f 1403 458 1404
f 294 1404 1154
f 1404 25 1402
f 1402 292 1154
f 1404 1402 1154
f 29 461 1406
f 461 28 1405
f 1405 296 1406
f 461 1405 1406
f 28 465 1407
f 465 27 1403
f 1403 294 1407
f 465 1403 1407
f 28 1407 1405
f 1407 294 1156
f 1156 296 1405
f 1407 1156 1405
f 32 467 1409
f 467 31 1408
f 1408 298 1409
f 467 1408 1409
f 31 471 1410
f 471 29 1406
f 1406 296 1410
f 471 1406 1410
f 31 1410 1408
f 1410 296 1162
f 1162 298 1408
f 1410 1162 1408
f 35 473 1412
f 473 34 1411
f 1411 300 1412
f 473 1411 1412
f 34 477 1413
f 477 37 479
f 479 32 1413
f 477 479 1413
f 34 1413 1414
f 1413 32 1409
f 1409 298 1414
f 1413 1409 1414
f 34 1414 1411
f 1414 298 1164
f 1164 300 1411
f 1414 1164 1411
f 38 480 1415
f 480 35 1412
f 1412 300 1415
f 480 1412 1415
f 38 1415 1416
f 1415 300 1167
f 1167 301 1416
f 1415 1167 1416
f 39 482 1417
f 482 38 1416
f 1416 301 1417
f 482 1416 1417
f 42 487 1419
f 487 41 1418
f 1418 304 1419
f 487 1418 1419
f 41 491 1420
f 491 39 1417
f 1417 301 1420
f 491 1417 1420
f 41 1420 1418
f 1420 301 1174
f 1174 304 1418
f 1420 1174 1418
f 45 493 1422
f 493 44 1421
f 1421 306 1422
f 493 1421 1422
f 44 497 1423
f 497 42 1419
f 1419 304 1423
f 497 1419 1423
f 44 1423 1421
f 1423 304 1178
f 1178 306 1421
f 1423 1178 1421
f 47 498 1424
f 498 45 1422
f 1422 306 1424
f 498 1422 1424
f 47 1424 1425
f 1424 306 1182
f 1182 308 1425
f 1424 1182 1425
f 48 500 1426
f 500 47 1425
f 1425 308 1426
f 500 1425 1426
f 49 502 1427
f 502 48 1426
f 1426 308 1427
f 502 1426 1427
f 50 504 1428
f 504 49 1427
f 1427 308 1428
f 504 1427 1428
f 51 506 1429
f 506 50 1428
f 1428 308 1429
f 506 1428 1429
f 54 511 1431
f 511 53 1430
f 1430 309 1431
f 511 1430 1431
f 53 515 1432
f 515 51 1429
f 1429 308 1432
f 515 1429 1432
f 53 1432 1430
f 1432 308 1183
f 1183 309 1430
f 1432 1183 1430
f 56 516 1433
f 516 54 1431
f 1431 309 1433
f 516 1431 1433
f 56 1433 1434
f 1433 309 1190
f 1190 312 1434
f 1433 1190 1434
f 57 518 1435
f 518 56 1434
f 1434 312 1435
f 518 1434 1435
f 59 522 1436
f 522 57 1435
f 1435 312 1436
f 522 1435 1436
f 59 1436 1437
f 1436 312 1191
f 1191 313 1437
f 1436 1191 1437
f 60 524 1438
f 524 59 1437
f 1437 313 1438
f 524 1437 1438
f 63 529 1440
f 529 62 1439
f 1439 316 1440
f 529 1439 1440
f 62 533 1441
f 533 60 1438
f 1438 313 1441
f 533 1438 1441
f 62 1441 1439
f 1441 313 1196
f 1196 316 1439
f 1441 1196 1439
f 67 537 1442
f 537 66 535
f 535 65 1442
f 537 535 1442
f 67 1442 1444
f 1442 65 1443
f 1443 318 1444
f 1442 1443 1444
f 65 541 1445
f 541 63 1440
f 1440 316 1445
f 541 1440 1445
f 65 1445 1443
f 1445 316 1202
f 1202 318 1443
f 1445 1202 1443
f 70 543 1447
f 543 69 1446
f 1446 320 1447
f 543 1446 1447
f 69 547 1448
f 547 67 1444
f 1444 318 1448
f 547 1444 1448
f 69 1448 1446
f 1448 318 1204
f 1204 320 1446
f 1448 1204 1446
f 72 548 1449
f 548 70 1447
f 1447 320 1449
f 548 1447 1449
f 322 1450 1451
f 1450 74 552
f 552 72 1451
f 1450 552 1451
f 322 1451 1210
f 1451 72 1449
f 1449 320 1210
f 1451 1449 1210
f 76 554 1452
f 554 75 557
f 557 74 1452
f 554 557 1452
f 76 1452 1453
f 1452 74 1450
f 1450 322 1453
f 1452 1450 1453
f 324 1454 1455
f 1454 78 560
f 560 76 1455
f 1454 560 1455
f 324 1455 1214
f 1455 76 1453
f 1453 322 1214
f 1455 1453 1214
f 79 562 1456
f 562 78 1454
f 1454 324 1456
f 562 1454 1456
f 326 1457 1458
f 1457 81 566
f 566 79 1458
f 1457 566 1458
f 326 1458 1218
f 1458 79 1456
f 1456 324 1218
f 1458 1456 1218
f 82 568 1459
f 568 81 1457
f 1457 326 1459
f 568 1457 1459
f 328 1460 1461
f 1460 84 572
f 572 82 1461
f 1460 572 1461
f 328 1461 1220
f 1461 82 1459
f 1459 326 1220
f 1461 1459 1220
f 85 574 1462
f 574 84 1460
f 1460 328 1462
f 574 1460 1462
f 330 1463 1464
f 1463 87 578
f 578 85 1464
f 1463 578 1464
f 330 1464 1225
f 1464 85 1462
f 1462 328 1225
f 1464 1462 1225
f 88 580 1465
f 580 87 1463
f 1463 330 1465
f 580 1463 1465
f 281 1379 1466
f 1379 1 584
f 584 88 1466
f 1379 584 1466
f 281 1466 1227
f 1466 88 1465
f 1465 330 1227
f 1466 1465 1227
f 357 1467 1469
f 1467 358 1468
f 1468 359 1469
f 1467 1468 1469
f 359 1470 1469
f 1470 360 1471
f 1471 357 1469
f 1470 1471 1469
f 361 1472 1473
f 1472 357 1471
f 1471 360 1473
f 1472 1471 1473
f 360 1474 1473
f 1474 362 1475
f 1475 361 1473
f 1474 1475 1473
f 363 1476 1477
f 1476 361 1475
f 1475 362 1477
f 1476 1475 1477
f 362 1478 1477
f 1478 364 1479
f 1479 363 1477
f 1478 1479 1477
f 365 1480 1481
f 1480 363 1479
f 1479 364 1481
f 1480 1479 1481
f 364 1482 1481
f 1482 366 1483
f 1483 365 1481
f 1482 1483 1481
f 367 1484 1485
f 1484 365 1483
f 1483 366 1485
f 1484 1483 1485
f 366 1486 1485
f 1486 368 1487
f 1487 367 1485
f 1486 1487 1485
f 369 1488 1489
f 1488 367 1487
f 1487 368 1489
f 1488 1487 1489
f 368 1490 1489
f 1490 370 1491
f 1491 369 1489
f 1490 1491 1489
f 371 1492 1493
f 1492 369 1491
f 1491 370 1493
f 1492 1491 1493
f 370 1494 1493
f 1494 372 1495
f 1495 371 1493
f 1494 1495 1493
f 372 1496 1498
f 1496 373 1497
f 1497 374 1498
f 1496 1497 1498
f 372 1498 1495
f 1498 374 1499
f 1499 371 1495
f 1498 1499 1495
f 375 1500 1502
f 1500 376 1501
f 1501 377 1502
f 1500 1501 1502
f 378 1503 1504
f 1503 375 1502
f 1502 377 1504
f 1503 1502 1504
f 379 1505 1507
f 1505 380 1506
f 1506 376 1507
f 1505 1506 1507
f 375 1508 1500
f 1508 379 1507
f 1507 376 1500
f 1508 1507 1500
f 381 1509 1511
f 1509 382 1510
f 1510 380 1511
f 1509 1510 1511
f 379 1512 1505
f 1512 381 1511
f 1511 380 1505
f 1512 1511 1505
f 383 1513 1515
f 1513 384 1514
f 1514 382 1515
f 1513 1514 1515
f 381 1516 1509
f 1516 383 1515
f 1515 382 1509
f 1516 1515 1509
f 385 1517 1519
f 1517 386 1518
f 1518 384 1519
f 1517 1518 1519
f 383 1520 1513
f 1520 385 1519
f 1519 384 1513
f 1520 1519 1513
f 359 1468 1522
f 1468 358 1521
f 1521 386 1522
f 1468 1521 1522
f 385 1523 1517
f 1523 359 1522
f 1522 386 1517
f 1523 1522 1517
f 361 1524 1526
f 1524 387 1525
f 1525 388 1526
f 1524 1525 1526
f 388 1527 1526
f 1527 357 1472
f 1472 361 1526
f 1527 1472 1526
f 389 1528 1530
f 1528 390 1529
f 1529 357 1530
f 1528 1529 1530
f 388 1531 1527
f 1531 389 1530
f 1530 357 1527
f 1531 1530 1527
f 391 1532 1533
f 1532 390 1528
f 1528 389 1533
f 1532 1528 1533
f 389 1534 1533
f 1534 392 1535
f 1535 391 1533
f 1534 1535 1533
f 393 1536 1537
f 1536 391 1535
f 1535 392 1537
f 1536 1535 1537
f 392 1538 1537
f 1538 394 1539
f 1539 393 1537
f 1538 1539 1537
f 395 1540 1541
f 1540 393 1539
f 1539 394 1541
f 1540 1539 1541
f 394 1542 1541
f 1542 396 1543
f 1543 395 1541
f 1542 1543 1541
f 397 1544 1545
f 1544 395 1543
f 1543 396 1545
f 1544 1543 1545
f 396 1546 1545
f 1546 398 1547
f 1547 397 1545
f 1546 1547 1545
f 399 1548 1549
f 1548 397 1547
f 1547 398 1549
f 1548 1547 1549
f 398 1550 1549
f 1550 400 1551
f 1551 399 1549
f 1550 1551 1549
f 401 1552 1553
f 1552 399 1551
f 1551 400 1553
f 1552 1551 1553
f 400 1554 1553
f 1554 402 1555
f 1555 401 1553
f 1554 1555 1553
f 403 1556 1557
f 1556 371 1499
f 1499 374 1557
f 1556 1499 1557
f 404 1558 1559
f 1558 403 1557
f 1557 374 1559
f 1558 1557 1559
f 405 1560 1561
f 1560 369 1492
f 1492 371 1561
f 1560 1492 1561
f 403 1562 1556
f 1562 405 1561
f 1561 371 1556
f 1562 1561 1556
f 406 1563 1564
f 1563 367 1488
f 1488 369 1564
f 1563 1488 1564
f 405 1565 1560
f 1565 406 1564
f 1564 369 1560
f 1565 1564 1560
f 367 1563 1567
f 1563 406 1566
f 1566 407 1567
f 1563 1566 1567
f 407 1568 1567
f 1568 365 1484
f 1484 367 1567
f 1568 1484 1567
f 408 1569 1570
f 1569 363 1480
f 1480 365 1570
f 1569 1480 1570
f 407 1571 1568
f 1571 408 1570
f 1570 365 1568
f 1571 1570 1568
f 387 1524 1572
f 1524 361 1476
f 1476 363 1572
f 1524 1476 1572
f 408 1573 1569
f 1573 387 1572
f 1572 363 1569
f 1573 1572 1569
f 382 1514 1575
f 1514 384 1574
f 1574 393 1575
f 1514 1574 1575
f 382 1575 1576
f 1575 393 1540
f 1540 395 1576
f 1575 1540 1576
f 391 1536 1577
f 1536 393 1574
f 1574 384 1577
f 1536 1574 1577
f 384 1518 1577
f 1518 386 1578
f 1578 391 1577
f 1518 1578 1577
f 390 1532 1579
f 1532 391 1578
f 1578 386 1579
f 1532 1578 1579
f 386 1521 1579
f 1521 358 1580
f 1580 390 1579
f 1521 1580 1579
f 358 1467 1580
f 1467 357 1529
f 1529 390 1580
f 1467 1529 1580
f 395 1544 1582
f 1544 397 1581
f 1581 380 1582
f 1544 1581 1582
f 382 1576 1510
f 1576 395 1582
f 1582 380 1510
f 1576 1582 1510
f 399 1583 1584
f 1583 376 1506
f 1506 380 1584
f 1583 1506 1584
f 380 1581 1584
f 1581 397 1548
f 1548 399 1584
f 1581 1548 1584
f 401 1585 1586
f 1585 377 1501
f 1501 376 1586
f 1585 1501 1586
f 376 1583 1586
f 1583 399 1552
f 1552 401 1586
f 1583 1552 1586
f 404 1587 1588
f 1587 119 645
f 645 118 1588
f 1587 645 1588
f 404 1588 1590
f 1588 118 1589
f 1589 402 1590
f 1588 1589 1590
f 403 1558 1591
f 1558 404 1590
f 1590 402 1591
f 1558 1590 1591
f 403 1591 1592
f 1591 402 1554
f 1554 400 1592
f 1591 1554 1592
f 405 1562 1593
f 1562 403 1592
f 1592 400 1593
f 1562 1592 1593
f 405 1593 1594
f 1593 400 1550
f 1550 398 1594
f 1593 1550 1594
f 406 1565 1595
f 1565 405 1594
f 1594 398 1595
f 1565 1594 1595
f 407 1566 1596
f 1566 406 1595
f 1595 398 1596
f 1566 1595 1596
f 407 1596 1597
f 1596 398 1546
f 1546 396 1597
f 1596 1546 1597
f 408 1571 1598
f 1571 407 1597
f 1597 396 1598
f 1571 1597 1598
f 408 1598 1599
f 1598 396 1542
f 1542 394 1599
f 1598 1542 1599
f 387 1573 1600
f 1573 408 1599
f 1599 394 1600
f 1573 1599 1600
f 387 1600 1601
f 1600 394 1538
f 1538 392 1601
f 1600 1538 1601
f 388 1525 1602
f 1525 387 1601
f 1601 392 1602
f 1525 1601 1602
f 392 1534 1602
f 1534 389 1531
f 1531 388 1602
f 1534 1531 1602
f 120 649 1604
f 649 121 1603
f 1603 373 1604
f 649 1603 1604
f 378 1605 1606
f 1605 120 1604
f 1604 373 1606
f 1605 1604 1606
f 378 1606 1607
f 1606 373 1496
f 1496 372 1607
f 1606 1496 1607
f 375 1503 1608
f 1503 378 1607
f 1607 372 1608
f 1503 1607 1608
f 375 1608 1609
f 1608 372 1494
f 1494 370 1609
f 1608 1494 1609
f 379 1508 1610
f 1508 375 1609
f 1609 370 1610
f 1508 1609 1610
f 379 1610 1611
f 1610 370 1490
f 1490 368 1611
f 1610 1490 1611
f 379 1611 1612
f 1611 368 1486
f 1486 366 1612
f 1611 1486 1612
f 381 1512 1613
f 1512 379 1612
f 1612 366 1613
f 1512 1612 1613
f 381 1613 1614
f 1613 366 1482
f 1482 364 1614
f 1613 1482 1614
f 383 1516 1615
f 1516 381 1614
f 1614 364 1615
f 1516 1614 1615
f 383 1615 1616
f 1615 364 1478
f 1478 362 1616
f 1615 1478 1616
f 385 1520 1617
f 1520 383 1616
f 1616 362 1617
f 1520 1616 1617
f 360 1470 1618
f 1470 359 1523
f 1523 385 1618
f 1470 1523 1618
f 362 1474 1617
f 1474 360 1618
f 1618 385 1617
f 1474 1618 1617
f 401 1619 1620
f 1619 123 653
f 653 122 1620
f 1619 653 1620
f 377 1585 1621
f 1585 401 1620
f 1620 122 1621
f 1585 1620 1621
f 404 1559 1623
f 1559 374 1622
f 1622 124 1623
f 1559 1622 1623
f 124 657 1623
f 657 119 1587
f 1587 404 1623
f 657 1587 1623
f 123 1619 1624
f 1619 401 1555
f 1555 402 1624
f 1619 1555 1624
f 402 1589 1624
f 1589 118 659
f 659 123 1624
f 1589 659 1624
f 122 661 1625
f 661 120 1605
f 1605 378 1625
f 661 1605 1625
f 378 1504 1625
f 1504 377 1621
f 1621 122 1625
f 1504 1621 1625
f 124 1622 1626
f 1622 374 1497
f 1497 373 1626
f 1622 1497 1626
f 373 1603 1626
f 1603 121 662
f 662 124 1626
f 1603 662 1626
