# Unified Preprocessed OBJ file from m720.obj
# Applied remeshing: Yes
# Applied 4-step normalization: centering, PCA alignment, flipping, scaling
# Generated on 2025-09-29 15:20:03

v 0.199570 0.000324 -0.006671
v 0.199571 0.000307 0.006720
v 0.199493 0.044822 0.000080
v 0.199653 -0.047243 -0.000036
v 0.740106 0.004749 0.000014
v 0.263258 -0.044790 -0.000035
v 0.678694 -0.026661 -0.000024
v 0.744264 0.001260 0.000009
v 0.263107 0.042589 0.000076
v 0.216233 0.044181 0.000079
v 0.729182 -0.008361 -0.000003
v 0.541330 0.032692 0.000055
v 0.678603 0.026035 0.000042
v 0.713773 0.015985 0.000029
v 0.696094 -0.021642 -0.000019
v 0.430843 0.036854 0.000063
v 0.663633 -0.028963 -0.000027
v 0.336763 0.040038 0.000070
v 0.430974 -0.038473 -0.000032
v 0.216391 -0.046545 -0.000036
v 0.159435 -0.022050 -0.016742
v 0.159396 0.000269 -0.023410
v 0.159358 0.022535 0.016793
v -0.178713 -0.013739 -0.010026
v -0.178736 -0.000364 0.013426
v -0.178759 0.013052 0.010095
v 0.159357 0.022578 -0.016686
v 0.159342 0.031796 0.000065
v 0.159397 0.000210 0.023461
v 0.159436 -0.022092 0.016737
v 0.159451 -0.031311 -0.000015
v -0.178736 -0.000330 -0.013356
v -0.178769 0.018622 0.000058
v -0.178703 -0.019309 0.000010
v 0.119178 0.025976 0.020146
v 0.119223 0.000266 0.026809
v 0.119221 0.000334 -0.026756
v 0.119177 0.026027 -0.020028
v 0.119266 -0.025395 -0.020093
v 0.119267 -0.025446 0.020081
v -0.101766 0.017897 0.016795
v -0.128547 0.016550 0.013446
v -0.128520 0.001235 0.020122
v -0.101739 0.001590 -0.023400
v -0.128521 0.001286 -0.020052
v -0.128548 0.016584 -0.013336
v -0.101710 -0.014803 -0.016725
v -0.128495 -0.014015 -0.013375
v -0.101737 0.001531 0.023470
v -0.128494 -0.014049 0.013407
v -0.101767 0.017940 -0.016684
v -0.128558 0.022894 0.000062
v -0.101778 0.024714 0.000064
v -0.101698 -0.021586 0.000005
v -0.128483 -0.020393 0.000007
v -0.101709 -0.014845 0.016754
v -0.054867 0.001354 0.026816
v -0.054834 -0.018365 -0.020079
v -0.054902 0.021155 0.020145
v -0.054869 0.001422 -0.026749
v -0.054820 -0.026593 -0.000003
v -0.054833 -0.018416 0.020095
v -0.054903 0.021206 -0.020029
v -0.054917 0.029383 0.000068
v 0.075650 0.028976 0.023500
v 0.075700 0.000373 0.033507
v 0.075750 -0.028205 0.023427
v 0.075748 -0.028145 -0.023443
v 0.075698 0.000458 -0.033450
v 0.075649 0.029036 -0.023371
v 0.035524 0.000596 -0.033449
v 0.035476 0.028398 -0.023370
v 0.035478 0.028338 0.023500
v 0.035526 0.000511 0.033508
v 0.035573 -0.027211 -0.023441
v 0.035574 -0.027270 0.023430
v 0.119159 0.036648 0.000072
v 0.119285 -0.036001 -0.000020
v -0.011344 0.000973 0.030163
v -0.011304 -0.023145 -0.020086
v -0.011387 0.025147 0.020149
v -0.011346 0.001049 -0.030100
v 0.035457 0.039851 0.000079
v 0.075629 0.040925 0.000079
v 0.035593 -0.038824 -0.000021
v 0.075770 -0.040093 -0.000024
v -0.011303 -0.023196 0.020088
v -0.011388 0.025198 -0.020025
v -0.011286 -0.033180 -0.000012
v -0.011404 0.035082 0.000074
v -0.151978 0.014467 0.013444
v -0.151954 0.000578 0.016775
v -0.151955 0.000621 -0.016704
v -0.151979 0.014501 -0.013338
v -0.151930 -0.013287 0.013409
v -0.151931 -0.013253 -0.013374
v -0.151988 0.020242 0.000059
v -0.151920 -0.019029 0.000010
v -0.178760 0.013077 -0.009992
v -0.178712 -0.013765 0.010061
v 0.202812 0.061223 0.006797
v 0.196118 0.061212 0.006797
v 0.196142 0.047142 0.013475
v 0.202999 -0.046585 0.013356
v 0.196305 -0.046597 0.013356
v 0.196329 -0.060649 0.006642
v 0.202963 -0.025436 0.020079
v 0.196268 -0.025447 0.020079
v 0.202837 0.047154 0.013475
v 0.196179 0.025976 0.020144
v 0.202803 0.066254 0.000107
v 0.196109 0.066242 0.000108
v -0.175414 0.014657 -0.009990
v -0.188805 0.014365 -0.009990
v -0.188815 0.020446 0.000061
v -0.175362 -0.015306 -0.010028
v -0.188754 -0.015062 -0.010027
v -0.188780 -0.000343 -0.016705
v -0.242344 -0.000466 0.006732
v -0.245693 -0.000471 0.006732
v -0.245681 -0.007277 0.003376
v -0.215533 -0.017080 0.013406
v -0.222228 -0.017460 0.013405
v -0.222216 -0.024473 0.000005
v -0.215591 0.016231 0.013448
v -0.222287 0.016588 0.013448
v -0.222258 -0.000444 0.016775
v -0.215562 -0.000432 0.016775
v -0.175361 -0.015332 0.010059
v -0.188753 -0.015088 0.010060
v -0.188743 -0.021167 0.000008
v -0.175424 0.020871 0.000061
v -0.188804 0.014340 0.010097
v -0.175351 -0.021546 0.000007
v 0.186138 0.023628 -0.016685
v 0.172744 0.024910 -0.016683
v 0.172727 0.035067 0.000069
v 0.186236 -0.032703 -0.000018
v 0.172848 -0.034569 -0.000020
v 0.172829 -0.024370 -0.016746
v 0.186220 -0.023084 0.016735
v 0.172830 -0.024412 0.016733
v 0.186122 0.033249 0.000066
v 0.172745 0.024868 0.016796
v -0.175387 -0.000362 0.016774
v -0.188779 -0.000385 0.016774
v -0.175388 -0.000320 -0.016705
v -0.175413 0.014631 0.010097
v 0.196268 -0.025141 0.016732
v 0.196224 0.000264 0.020111
v 0.196222 0.000315 -0.020062
v 0.196179 0.025679 0.016796
v 0.196178 0.025721 -0.016683
v 0.202918 0.000276 0.020111
v 0.202917 0.000327 -0.020063
v 0.202873 0.025733 -0.016683
v 0.202962 -0.025129 0.016732
v 0.202961 -0.025087 -0.016747
v 0.159332 0.037387 0.000072
v 0.159352 0.026380 0.020146
v 0.159351 0.026431 -0.020028
v -0.198854 0.018152 0.000058
v -0.198845 0.012715 0.010096
v 0.203032 -0.065651 -0.000060
v 0.196337 -0.065663 -0.000060
v 0.196328 -0.060632 -0.006748
v 0.202812 0.061240 -0.006594
v 0.196117 0.061229 -0.006594
v 0.203024 -0.060638 0.006642
v -0.198790 -0.018943 0.000011
v -0.198800 -0.013472 -0.010025
v 0.186178 0.000302 -0.023411
v 0.172786 0.000283 -0.026758
v 0.186219 -0.023041 -0.016744
v 0.186179 0.000243 0.023460
v 0.172788 0.000215 0.026808
v 0.159461 -0.036935 -0.000022
v 0.159442 -0.025929 -0.020095
v 0.159443 -0.025980 0.020079
v -0.215603 0.023144 0.000065
v -0.222300 0.023636 0.000066
v -0.215521 -0.023993 0.000005
v -0.222229 -0.017426 -0.013377
v -0.215592 0.016265 -0.013334
v -0.222288 0.016622 -0.013334
v 0.186139 0.023586 0.016794
v -0.198845 0.012741 -0.009992
v 0.159396 0.000260 -0.026757
v 0.159397 0.000192 0.026808
v -0.242333 -0.007103 0.003376
v -0.245676 -0.010085 0.000024
v -0.198799 -0.013498 0.010062
v -0.198823 -0.000365 -0.013356
v 0.202836 0.047188 -0.013307
v 0.196141 0.047176 -0.013307
v 0.202999 -0.046551 -0.013426
v 0.196304 -0.046563 -0.013426
v 0.196267 -0.025396 -0.020095
v 0.203023 -0.060621 -0.006748
v 0.202873 0.026038 -0.020030
v 0.196178 0.026027 -0.020030
v 0.202874 0.025987 0.020144
v 0.202962 -0.025385 -0.020095
v -0.198822 -0.000399 0.013426
v -0.215563 -0.000389 -0.016704
v -0.222259 -0.000401 -0.016704
v -0.215534 -0.017046 -0.013377
v -0.242356 0.006196 -0.003303
v -0.245705 0.006361 -0.006650
v -0.245710 0.009165 0.000048
v -0.242328 -0.009878 0.000024
v -0.245681 -0.007264 -0.006667
v -0.242361 0.008970 0.000048
v -0.245705 0.006349 0.003393
v -0.242345 -0.000449 -0.006659
v -0.245693 -0.000454 -0.006659
v -0.242333 -0.007095 -0.003320
v -0.242356 0.006187 0.003393
v -0.208849 -0.010598 0.006718
v -0.208841 -0.014842 0.000017
v -0.249054 0.007586 0.000046
v -0.249050 0.005205 0.003392
v -0.208884 0.009807 -0.006647
v -0.208892 0.014050 0.000053
v -0.208849 -0.010581 -0.006673
v -0.208884 0.009790 0.006744
v -0.249050 0.005213 -0.003304
v -0.208867 -0.000386 -0.010008
v -0.249040 -0.000477 0.006732
v -0.249030 -0.006170 -0.003319
v -0.249040 -0.000460 -0.006659
v -0.225642 0.020616 0.000062
v -0.225631 0.014443 0.010098
v -0.225579 -0.015319 0.010061
v -0.225569 -0.021466 0.000009
v -0.238984 -0.008165 0.000026
v 0.196190 0.019222 -0.013343
v -0.249026 -0.008517 0.000026
v -0.249030 -0.006178 0.003377
v -0.208866 -0.000412 0.010079
v 0.196177 0.027073 0.000058
v 0.196256 -0.018642 0.013392
v -0.225632 0.014469 -0.009989
v 0.196269 -0.026492 -0.000010
v 0.196267 -0.025098 -0.016747
v 0.202874 0.025691 0.016796
v -0.225580 -0.015293 -0.010027
v -0.239010 0.007269 0.000046
v 0.196303 -0.045592 0.013357
v 0.196144 0.046138 0.013474
v 0.196143 0.046172 -0.013308
v 0.202998 -0.045581 0.013357
v 0.202997 -0.045547 -0.013425
v 0.202838 0.046184 -0.013309
v -0.225605 -0.000449 0.016775
v -0.212179 -0.020539 0.000009
v -0.239007 0.004996 -0.003305
v -0.238987 -0.005926 0.003377
v -0.238997 -0.000443 -0.006659
v 0.196255 -0.018608 -0.013391
v 0.196191 0.019189 0.013440
v -0.225606 -0.000407 -0.016704
v -0.212249 0.019736 0.000061
v -0.212189 -0.014660 0.010061
v -0.212239 0.013823 -0.009990
v -0.238988 -0.005918 -0.003319
v -0.239006 0.004988 0.003391
v -0.252382 -0.004007 0.003380
v -0.252380 -0.005443 0.000030
v -0.238997 -0.000460 0.006732
v -0.212238 0.013797 0.010097
v -0.235640 -0.005247 0.000030
v -0.235655 0.002960 -0.003307
v -0.212189 -0.014634 -0.010026
v -0.212214 -0.000388 -0.013356
v -0.212213 -0.000422 0.013427
v -0.252395 0.003064 -0.003307
v -0.252397 0.004500 0.000042
v -0.252395 0.003056 0.003389
v -0.235657 0.004362 0.000042
v -0.252383 -0.003999 -0.003316
v -0.232327 0.014546 0.000055
v -0.232319 0.010151 0.006745
v -0.232320 0.010168 -0.006646
v -0.235643 -0.003845 0.003380
v -0.232275 -0.015418 0.000017
v -0.232283 -0.011024 -0.006673
v -0.232283 -0.011041 0.006718
v 0.196302 -0.045559 -0.013425
v -0.252389 -0.000479 0.003385
v -0.252389 -0.000470 -0.003311
v -0.235643 -0.003836 -0.003316
v 0.202839 0.046150 0.013474
v -0.235649 -0.000441 -0.003312
v -0.235649 -0.000450 0.003384
v -0.235654 0.002951 0.003388
v -0.232302 -0.000427 -0.010008
v -0.232301 -0.000452 0.010080
v 0.196112 0.064569 0.000105
v 0.196120 0.059873 0.006795
v 0.196327 -0.059310 0.006644
v 0.196334 -0.063988 -0.000058
v 0.203029 -0.063976 -0.000058
v 0.196326 -0.059293 -0.006746
v 0.203021 -0.059299 0.006644
v 0.202806 0.064580 0.000105
v 0.202814 0.059901 -0.006595
v 0.196119 0.059890 -0.006595
v 0.203021 -0.059282 -0.006747
v 0.202815 0.059884 0.006795
v -0.255736 -0.000480 0.000036
v 0.740119 -0.002483 0.000004
v 0.663534 0.028051 0.000045
v 0.729150 0.010019 0.000021
v 0.696019 0.021645 0.000036
v 0.713827 -0.015150 -0.000011
v 0.541445 -0.033930 -0.000030
v 0.336905 -0.041984 -0.000034
v 0.199570 0.000316 0.000024
v 0.199532 0.022564 0.003400
v 0.199532 0.022573 -0.003295
v 0.199611 -0.023460 -0.003354
v 0.469838 0.002536 -0.003329
v 0.469880 -0.021247 -0.000011
v 0.470976 -0.035725 -0.000030
v 0.711479 -0.012700 -0.000008
v 0.503761 -0.021765 -0.000013
v 0.503685 0.021925 0.000042
v 0.239670 0.043385 0.000077
v 0.480249 0.022721 0.000044
v 0.464417 -0.027802 -0.000020
v 0.471958 -0.022992 -0.000014
v 0.736723 -0.003550 0.000003
v 0.703938 -0.017511 -0.000014
v 0.642797 0.016976 0.000032
v 0.711433 0.013647 0.000026
v 0.609966 0.029364 0.000049
v 0.231414 -0.022241 0.003342
v 0.199612 -0.023468 0.003342
v 0.231455 -0.046017 -0.000036
v 0.729019 0.008623 0.000019
v 0.742185 0.003004 0.000011
v 0.726940 0.010367 0.000021
v 0.231338 0.021457 -0.003298
v 0.231300 0.043705 0.000078
v 0.456672 0.008155 -0.003321
v 0.439087 0.013179 -0.003314
v 0.696188 0.021010 0.000036
v 0.447873 -0.034443 -0.000028
v 0.712638 -0.015002 -0.000011
v 0.370450 0.016508 -0.003308
v 0.315207 0.018589 -0.003304
v 0.346975 0.039721 0.000070
v 0.431643 -0.038103 -0.000032
v 0.679864 -0.025303 -0.000023
v 0.687394 -0.024152 -0.000021
v 0.540513 0.020649 0.000040
v 0.439046 0.036365 0.000063
v 0.671164 -0.027812 -0.000026
v 0.554834 -0.032567 -0.000028
v 0.547304 -0.033718 -0.000030
v 0.347116 -0.041631 -0.000034
v 0.315313 -0.042858 -0.000034
v 0.486087 0.034773 0.000059
v 0.239824 -0.045667 -0.000036
v 0.208022 -0.046894 -0.000036
v 0.299935 0.041313 0.000073
v 0.207863 0.044502 0.000080
v 0.207902 0.022244 0.003399
v 0.159415 -0.010890 -0.020076
v 0.159377 0.011402 -0.003308
v 0.159397 0.000243 0.000025
v -0.178724 -0.007052 0.001700
v -0.178747 0.006344 0.011761
v -0.178736 -0.000344 0.000035
v 0.159377 0.011423 -0.020048
v 0.159350 0.027187 -0.008310
v 0.159369 0.016033 -0.011672
v 0.159417 -0.010941 0.020099
v 0.159444 -0.026702 0.008361
v 0.159424 -0.015551 0.011723
v -0.178748 0.006361 -0.001631
v -0.178764 0.015837 0.005077
v -0.178753 0.009146 -0.006649
v -0.178708 -0.016524 -0.005008
v -0.178719 -0.009836 0.006718
v 0.139268 0.024256 0.018470
v 0.119200 0.013121 0.023478
v 0.139290 0.011401 0.021801
v 0.139308 0.000302 -0.025083
v 0.119199 0.013181 -0.023392
v 0.139286 0.013148 -0.021719
v 0.139350 -0.023722 -0.018418
v 0.119243 -0.012530 -0.023424
v 0.139328 -0.010858 -0.021749
v 0.139310 0.000238 0.025135
v 0.119245 -0.012590 0.023445
v 0.139332 -0.012618 0.021771
v -0.115156 0.017223 0.015120
v -0.128534 0.008892 0.016784
v -0.115143 0.009566 0.018459
v -0.115130 0.001438 -0.021726
v -0.128535 0.008935 -0.016694
v -0.115143 0.009087 -0.018368
v -0.115102 -0.014409 -0.015050
v -0.128508 -0.006365 -0.016713
v -0.115116 -0.006758 -0.018389
v -0.115129 0.001383 0.021796
v -0.128507 -0.006407 0.016764
v -0.115116 -0.006259 0.018438
v -0.115157 0.017262 -0.015010
v -0.128553 0.019739 -0.006637
v -0.115163 0.020417 -0.008311
v -0.115168 0.023804 0.000063
v -0.128553 0.019722 0.006754
v -0.115163 0.020632 0.006755
v -0.115091 -0.020990 0.000006
v -0.128489 -0.017204 -0.006684
v -0.115096 -0.017801 -0.006685
v -0.115101 -0.014447 0.015080
v -0.128489 -0.017221 0.006707
v -0.115096 -0.017619 0.008380
v -0.078302 0.001442 0.025143
v -0.101723 -0.006657 0.020112
v -0.078288 -0.006746 0.021785
v -0.078272 -0.016584 -0.018402
v -0.101724 -0.006606 -0.020063
v -0.078287 -0.008388 -0.021740
v -0.078334 0.019526 0.018470
v -0.101752 0.009714 0.020133
v -0.078320 0.011343 0.021808
v -0.078304 0.001506 -0.025075
v -0.101753 0.009765 -0.020042
v -0.078318 0.009681 -0.021717
v -0.078259 -0.024089 0.000001
v -0.101704 -0.018194 -0.008360
v -0.078265 -0.020698 -0.008364
v -0.078271 -0.016631 0.018424
v -0.101703 -0.018215 0.008379
v -0.078266 -0.020001 0.010050
v -0.078335 0.019573 -0.018356
v -0.101772 0.021327 -0.008310
v -0.078341 0.022960 -0.009982
v -0.078347 0.027048 0.000066
v -0.101772 0.021306 0.008429
v -0.078341 0.023640 0.008432
v 0.097414 0.027476 0.021823
v 0.075675 0.014675 0.028503
v 0.097439 0.013174 0.026826
v 0.097461 0.000320 0.030158
v 0.075725 -0.013916 0.028467
v 0.097486 -0.013969 0.025118
v 0.097507 -0.026770 -0.021768
v 0.075723 -0.013844 -0.028447
v 0.097482 -0.012469 -0.026772
v 0.097460 0.000396 -0.030103
v 0.075674 0.014747 -0.028411
v 0.097435 0.014685 -0.025063
v 0.055611 0.000527 -0.033450
v 0.035500 0.014497 -0.028410
v 0.055587 0.014428 -0.028410
v 0.055564 0.028657 0.023500
v 0.035502 0.014424 0.028504
v 0.055588 0.014743 0.028504
v 0.055660 -0.027678 -0.023442
v 0.035548 -0.013308 -0.028445
v 0.055636 -0.013775 -0.028446
v 0.055613 0.000442 0.033507
v 0.035550 -0.013380 0.028469
v 0.055637 -0.013449 0.028468
v 0.139250 0.034222 0.000069
v 0.119168 0.031312 0.010109
v 0.139260 0.028886 0.010106
v 0.139267 0.024302 -0.018357
v 0.119168 0.031337 -0.009978
v 0.139258 0.029613 -0.008307
v 0.139351 -0.023769 0.018409
v 0.119276 -0.030723 0.010031
v 0.139360 -0.029046 0.008358
v 0.139368 -0.033656 -0.000017
v 0.119275 -0.030698 -0.010056
v 0.139359 -0.028353 -0.010054
v -0.033106 0.001163 0.028489
v -0.054850 -0.008531 0.023455
v -0.033089 -0.008722 0.025129
v -0.033069 -0.020755 -0.020082
v -0.054852 -0.008472 -0.023414
v -0.033086 -0.010861 -0.023418
v -0.033144 0.023151 0.020147
v -0.054885 0.011255 0.023481
v -0.033127 0.013251 0.023482
v -0.033107 0.001236 -0.028425
v -0.054886 0.011314 -0.023389
v -0.033125 0.011128 -0.025064
v 0.055563 0.028717 -0.023371
v 0.035467 0.034124 -0.011646
v 0.055553 0.034443 -0.011646
v 0.055543 0.040388 0.000079
v 0.035467 0.034095 0.011789
v 0.055553 0.034632 0.011790
v 0.055662 -0.027738 0.023428
v 0.035584 -0.033047 0.011704
v 0.055672 -0.033514 0.011703
v 0.055681 -0.039458 -0.000022
v 0.035583 -0.033017 -0.011731
v 0.055671 -0.033652 -0.011732
v 0.097413 0.027531 -0.021699
v 0.075639 0.034980 -0.011646
v 0.097403 0.033476 -0.009974
v 0.097394 0.038786 0.000076
v 0.075640 0.034951 0.011789
v 0.097405 0.032812 0.011786
v 0.097508 -0.026825 0.021754
v 0.075760 -0.034149 0.011702
v 0.097518 -0.032770 0.010029
v 0.097527 -0.038047 -0.000022
v 0.075759 -0.034119 -0.011734
v 0.097516 -0.032073 -0.011732
v 0.012091 0.000742 0.031835
v -0.011323 -0.011112 0.025125
v 0.012112 -0.011343 0.026798
v 0.012134 -0.025178 -0.021764
v -0.011325 -0.011048 -0.025093
v 0.012113 -0.013081 -0.026770
v 0.012089 0.000822 -0.031774
v -0.011367 0.013124 -0.025062
v 0.012068 0.012897 -0.026737
v 0.012046 0.026743 0.021825
v -0.011365 0.013060 0.025156
v 0.012067 0.014655 0.026831
v -0.033068 -0.020806 0.020091
v -0.054826 -0.022505 0.010046
v -0.033061 -0.024894 0.010042
v -0.033053 -0.029886 -0.000008
v -0.054827 -0.022479 -0.010041
v -0.033060 -0.025773 -0.010046
v -0.033145 0.023202 -0.020027
v -0.054910 0.025294 -0.009980
v -0.033152 0.027291 -0.009978
v -0.033160 0.032233 0.000071
v -0.054909 0.025269 0.010107
v -0.033153 0.028119 0.010110
v 0.012154 -0.036002 -0.000017
v -0.011295 -0.028162 -0.010049
v 0.012145 -0.030984 -0.010054
v 0.012136 -0.025233 0.021759
v -0.011294 -0.028188 0.010038
v 0.012144 -0.030225 0.011709
v 0.012026 0.037467 0.000076
v -0.011395 0.030115 0.010112
v 0.012035 0.032499 0.010114
v 0.012044 0.026798 -0.021698
v -0.011396 0.030140 -0.009975
v 0.012036 0.031740 -0.011648
v -0.140262 0.015508 0.013445
v -0.151966 0.007523 0.015109
v -0.140250 0.008564 0.015110
v -0.140238 0.000953 -0.018378
v -0.151967 0.007561 -0.015021
v -0.140250 0.007893 -0.016695
v -0.140237 0.000907 0.018448
v -0.151942 -0.006354 0.015092
v -0.140225 -0.006026 0.016765
v -0.140213 -0.013634 -0.013374
v -0.151943 -0.006316 -0.015039
v -0.140225 -0.006697 -0.015040
v -0.140263 0.015542 -0.013337
v -0.151984 0.017371 -0.006639
v -0.140268 0.018413 -0.006638
v -0.140273 0.021568 0.000061
v -0.151983 0.017354 0.006752
v -0.140268 0.018680 0.006753
v -0.140212 -0.013668 0.013408
v -0.151925 -0.016158 0.006709
v -0.140207 -0.016539 0.006708
v -0.140202 -0.019711 0.000008
v -0.151926 -0.016141 -0.006682
v -0.140207 -0.016823 -0.006683
v -0.165346 0.000146 -0.015030
v -0.178748 0.006374 -0.011674
v -0.165357 0.006849 -0.013348
v -0.165369 0.013759 0.011770
v -0.165357 0.007052 0.013435
v -0.165322 -0.013496 -0.011700
v -0.178725 -0.007035 -0.011691
v -0.165334 -0.006791 -0.013365
v -0.165345 0.000107 0.015100
v -0.178724 -0.007064 0.011744
v -0.165333 -0.006593 0.013418
v -0.165379 0.019432 0.000059
v -0.165374 0.016647 0.005077
v -0.165369 0.013789 -0.011665
v -0.178764 0.015850 -0.004967
v -0.165374 0.016561 -0.006640
v -0.165321 -0.013526 0.011735
v -0.178708 -0.016537 0.005036
v -0.165317 -0.016298 0.006709
v -0.165312 -0.019169 0.000010
v -0.165317 -0.016384 -0.005008
v 0.199465 0.061218 0.006797
v 0.196130 0.054177 0.010136
v 0.199477 0.054183 0.010136
v 0.199652 -0.046591 0.013356
v 0.196317 -0.053623 0.009999
v 0.199664 -0.053617 0.009999
v 0.199616 -0.025442 0.020079
v 0.196286 -0.036022 0.016717
v 0.199634 -0.036016 0.016717
v 0.199489 0.047148 0.013475
v 0.196161 0.036559 0.016809
v 0.199508 0.036565 0.016809
v 0.199456 0.066248 0.000108
v 0.196113 0.063727 0.003452
v 0.199460 0.063733 0.003452
v -0.182109 0.014511 -0.009990
v -0.188810 0.017406 -0.004965
v -0.182115 0.017552 -0.004965
v -0.182058 -0.015184 -0.010028
v -0.188767 -0.007703 -0.013366
v -0.182071 -0.007825 -0.013366
v -0.244018 -0.000469 0.006732
v -0.245687 -0.003874 0.005054
v -0.244013 -0.003871 0.005054
v -0.218881 -0.017270 0.013405
v -0.222222 -0.020967 0.006705
v -0.218875 -0.020777 0.006705
v -0.218939 0.016410 0.013448
v -0.222272 0.008072 0.015112
v -0.218924 0.007894 0.015112
v -0.218910 -0.000438 0.016775
v -0.222243 -0.008952 0.015090
v -0.218895 -0.008946 0.015090
v -0.182057 -0.015210 0.010060
v -0.188748 -0.018127 0.005034
v -0.182052 -0.018250 0.005034
v -0.182120 0.020658 0.000061
v -0.188810 0.017393 0.005079
v -0.182114 0.017605 0.005079
v -0.182047 -0.021357 0.000008
v -0.188749 -0.018115 -0.005010
v -0.182052 -0.018304 -0.005010
v 0.179441 0.024269 -0.016684
v 0.172735 0.029989 -0.008307
v 0.179432 0.029348 -0.008308
v 0.179542 -0.033636 -0.000019
v 0.172839 -0.029469 -0.008383
v 0.179533 -0.028537 -0.008382
v 0.179525 -0.023748 0.016734
v 0.172839 -0.029490 0.008357
v 0.179534 -0.028826 0.008357
v 0.179424 0.034158 0.000067
v 0.172736 0.029967 0.008432
v 0.179433 0.029058 0.008431
v -0.182083 -0.000374 0.016774
v -0.188766 -0.007736 0.013417
v -0.182070 -0.007725 0.013417
v -0.182084 -0.000331 -0.016705
v -0.188792 0.007011 -0.013347
v -0.182097 0.007023 -0.013348
v -0.182109 0.014486 0.010097
v -0.188792 0.006977 0.013436
v -0.182096 0.007123 0.013436
v 0.196246 -0.012438 0.018422
v 0.196223 0.000290 0.000024
v 0.196245 -0.012413 -0.001665
v 0.196202 0.012972 0.018454
v 0.196179 0.025700 0.000057
v 0.196201 0.012993 0.001714
v 0.202918 0.000301 0.000024
v 0.202895 0.013030 -0.018373
v 0.202896 0.013004 0.001714
v 0.202962 -0.025108 -0.000008
v 0.202939 -0.012380 -0.018405
v 0.202940 -0.012401 -0.001666
v 0.166030 0.036227 0.000070
v 0.159342 0.031884 0.010109
v 0.166039 0.030724 0.010107
v 0.166047 0.025671 -0.018356
v 0.159341 0.031909 -0.009978
v 0.166038 0.031149 -0.008306
v -0.193835 0.019299 0.000059
v -0.198850 0.015434 0.005077
v -0.193830 0.016581 0.005078
v 0.199685 -0.065657 -0.000060
v 0.196333 -0.063148 -0.003404
v 0.199680 -0.063142 -0.003404
v 0.199465 0.061235 -0.006594
v 0.196113 0.063736 -0.003243
v 0.199460 0.063741 -0.003243
v 0.199676 -0.060643 0.006642
v 0.196333 -0.063156 0.003291
v 0.199680 -0.063150 0.003291
v -0.193767 -0.020055 0.000010
v -0.198795 -0.016207 -0.005007
v -0.193771 -0.017320 -0.005009
v 0.179482 0.000293 -0.025084
v 0.172765 0.012597 -0.021720
v 0.179461 0.012606 -0.020047
v 0.179524 -0.023705 -0.016745
v 0.172808 -0.012043 -0.021752
v 0.179503 -0.011379 -0.021751
v 0.179484 0.000229 0.025134
v 0.172809 -0.012099 0.021771
v 0.179505 -0.012085 0.020097
v 0.166154 -0.035752 -0.000021
v 0.159451 -0.031432 -0.010058
v 0.166145 -0.030249 -0.010057
v 0.166137 -0.025196 0.018406
v 0.159452 -0.031457 0.010028
v 0.166146 -0.030674 0.008356
v -0.218951 0.023390 0.000065
v -0.222294 0.020112 0.006757
v -0.218945 0.019866 0.006757
v -0.218869 -0.024233 0.000005
v -0.222223 -0.020950 -0.006686
v -0.218875 -0.020710 -0.006686
v -0.218940 0.016444 -0.013334
v -0.222294 0.020129 -0.006634
v -0.218946 0.019950 -0.006634
v 0.179442 0.024227 0.016795
v 0.172766 0.012541 0.021802
v 0.179463 0.011900 0.021801
v -0.193825 0.013553 -0.009991
v -0.198850 0.015446 -0.004967
v -0.193830 0.016259 -0.004966
v 0.166135 -0.025149 -0.018420
v 0.159419 -0.012834 -0.023426
v 0.166113 -0.012055 -0.021751
v 0.166091 0.000271 -0.026757
v 0.159373 0.013346 -0.023393
v 0.166069 0.013357 -0.023393
v 0.166093 0.000203 0.026808
v 0.159420 -0.012894 0.023444
v 0.166115 -0.012882 0.023443
v 0.166048 0.025624 0.018471
v 0.159375 0.013286 0.023477
v 0.166071 0.012530 0.021802
v -0.244007 -0.007190 0.003376
v -0.245679 -0.008681 0.001700
v -0.244004 -0.008594 0.001700
v -0.193776 -0.014293 0.010061
v -0.198795 -0.016220 0.005037
v -0.193772 -0.017015 0.005036
v -0.193801 -0.000354 -0.015030
v -0.198834 0.006188 -0.011674
v -0.193812 0.006199 -0.013348
v 0.199489 0.047182 -0.013307
v 0.196129 0.054202 -0.009950
v 0.199477 0.054208 -0.009950
v 0.199651 -0.046557 -0.013426
v 0.196285 -0.035980 -0.016761
v 0.199633 -0.035974 -0.016761
v 0.199676 -0.060626 -0.006748
v 0.196316 -0.053597 -0.010087
v 0.199664 -0.053592 -0.010087
v 0.199525 0.026033 -0.020030
v 0.196160 0.036601 -0.016668
v 0.199507 0.036607 -0.016669
v 0.199571 0.000270 0.020111
v 0.196246 -0.012592 0.020095
v 0.199593 -0.012586 0.020095
v 0.199526 0.025982 0.020144
v 0.196201 0.013120 0.020128
v 0.199549 0.013126 0.020128
v 0.199570 0.000321 -0.020062
v 0.196200 0.013171 -0.020046
v 0.199547 0.013177 -0.020046
v 0.199614 -0.025391 -0.020095
v 0.196245 -0.012541 -0.020079
v 0.199592 -0.012535 -0.020079
v -0.193825 0.013527 0.010096
v -0.198833 0.006158 0.011761
v -0.193813 0.006971 0.011762
v -0.193800 -0.000392 0.015100
v -0.198811 -0.006948 0.011744
v -0.193789 -0.006942 0.013418
v -0.218911 -0.000395 -0.016704
v -0.222273 0.008110 -0.015019
v -0.218925 0.008116 -0.015019
v -0.218881 -0.017236 -0.013377
v -0.222244 -0.008914 -0.015040
v -0.218896 -0.008724 -0.015040
v -0.193777 -0.014267 -0.010026
v -0.198811 -0.006918 -0.011690
v -0.193788 -0.007713 -0.011692
v -0.244030 0.006278 -0.004977
v -0.245707 0.007763 -0.003301
v -0.244033 0.007680 -0.001627
v -0.244002 -0.009982 0.000024
v -0.245679 -0.008674 -0.003322
v -0.244005 -0.008571 -0.003322
v -0.244035 0.009068 0.000048
v -0.245707 0.007757 0.001721
v -0.244033 0.007659 0.001720
v -0.244019 -0.000452 -0.006659
v -0.245699 0.002953 -0.006654
v -0.244025 0.002956 -0.006655
v -0.244007 -0.007179 -0.004994
v -0.245687 -0.003859 -0.006663
v -0.244013 -0.003775 -0.004989
v -0.244030 0.006268 0.003393
v -0.245699 0.002939 0.005062
v -0.244024 0.002858 0.005062
v -0.203824 -0.012048 0.008390
v -0.208845 -0.012720 0.003367
v -0.203820 -0.014170 0.005039
v 0.202962 -0.025236 -0.018421
v 0.202939 -0.012529 -0.020079
v -0.247382 0.008376 0.000047
v -0.249052 0.006395 0.001719
v -0.247380 0.007185 0.001720
v -0.203865 0.011274 -0.008319
v -0.208888 0.011929 -0.003297
v -0.203868 0.013395 -0.004969
v -0.203816 -0.016892 0.000014
v -0.208845 -0.012712 -0.003328
v -0.203820 -0.014762 -0.003331
v -0.203873 0.016101 0.000056
v -0.208888 0.011920 0.003398
v -0.203869 0.013971 0.003401
v -0.247377 0.005787 -0.004977
v -0.249052 0.006400 -0.001629
v -0.247379 0.006974 -0.003302
v -0.203824 -0.012027 -0.008349
v -0.208858 -0.005484 -0.008340
v -0.203833 -0.006929 -0.010017
v -0.203845 -0.000376 -0.011682
v -0.208876 0.004710 -0.008328
v -0.203854 0.004721 -0.010001
v -0.247377 0.005777 0.003392
v -0.249045 0.002364 0.005062
v -0.247372 0.002936 0.005062
v -0.247356 -0.006717 -0.004993
v -0.249035 -0.003315 -0.004989
v -0.247361 -0.003862 -0.006663
v -0.223971 0.022126 0.000064
v -0.225636 0.017530 0.005080
v -0.223965 0.019039 0.005082
v -0.223904 -0.016390 0.011733
v -0.225574 -0.018392 0.005035
v -0.223899 -0.019463 0.006707
v -0.240656 -0.009022 0.000025
v -0.242331 -0.008487 -0.001648
v -0.240658 -0.007630 -0.001647
v 0.191164 0.021425 -0.015014
v 0.186130 0.028439 -0.008310
v 0.191156 0.026236 -0.006638
v -0.247351 -0.009301 0.000025
v -0.249028 -0.007343 -0.001646
v -0.247353 -0.008127 -0.001647
v -0.247356 -0.006727 0.003376
v -0.249028 -0.007348 0.001702
v -0.247354 -0.007897 0.001701
v -0.203864 0.011253 0.008420
v -0.208875 0.004689 0.008411
v -0.203855 0.006152 0.010087
v 0.191149 0.030161 0.000062
v 0.186130 0.028417 0.008430
v 0.191158 0.025329 0.008426
v 0.191238 -0.020863 0.015063
v 0.186228 -0.027894 0.008358
v 0.191246 -0.025673 0.006687
v -0.223960 0.015545 -0.011661
v -0.225637 0.017542 -0.004963
v -0.223965 0.018619 -0.006636
v 0.191253 -0.029598 -0.000014
v 0.186227 -0.027872 -0.008381
v 0.191244 -0.024767 -0.008377
v -0.203844 -0.000405 0.011753
v -0.208857 -0.005505 0.008398
v -0.203835 -0.005498 0.010072
v 0.196267 -0.025247 -0.018421
v 0.196245 -0.012392 -0.018405
v 0.202874 0.025839 0.018470
v 0.202896 0.013132 0.020127
v 0.202896 0.012983 0.018454
v -0.223893 -0.022969 0.000007
v -0.225574 -0.018380 -0.005009
v -0.223898 -0.019883 -0.005011
v -0.240686 0.008119 0.000047
v -0.242358 0.007579 0.001720
v -0.240683 0.006728 0.001719
v 0.196285 -0.035367 0.015045
v 0.196267 -0.025120 -0.000008
v 0.196285 -0.035345 -0.001695
v 0.196162 0.035908 0.015135
v 0.196143 0.046155 0.000083
v 0.196161 0.035925 0.001744
v 0.202997 -0.045564 -0.000034
v 0.202979 -0.035317 -0.015086
v 0.202979 -0.035334 -0.001695
v 0.202874 0.025712 0.000057
v 0.202856 0.035958 -0.014996
v 0.202856 0.035937 0.001744
v -0.247366 -0.000474 0.006732
v -0.249035 -0.003328 0.005055
v -0.247361 -0.003325 0.005054
v -0.247367 -0.000457 -0.006659
v -0.249045 0.002377 -0.004981
v -0.247372 0.002379 -0.004981
v -0.223931 -0.000446 0.016775
v -0.225592 -0.007884 0.013418
v -0.223918 -0.007881 0.013418
v -0.213850 -0.022266 0.000007
v -0.215528 -0.020520 -0.006686
v -0.213856 -0.018792 -0.006684
v -0.240681 0.005596 -0.003304
v -0.242358 0.007583 -0.001628
v -0.240684 0.006983 -0.001628
v -0.240660 -0.006515 0.003377
v -0.242330 -0.008491 0.001700
v -0.240658 -0.007902 0.001701
v -0.240671 -0.000446 -0.006659
v -0.242350 0.002873 -0.004981
v -0.240677 0.002876 -0.004981
v 0.191202 0.000253 0.021786
v 0.186200 -0.011421 0.020097
v 0.191222 -0.011410 0.018423
v 0.191237 -0.020825 -0.015067
v 0.186198 -0.011370 -0.020077
v 0.191217 -0.009153 -0.018401
v 0.191165 0.021387 0.015117
v 0.186159 0.011914 0.020127
v 0.191185 0.009716 0.018450
v 0.191200 0.000309 -0.021736
v 0.186158 0.011965 -0.020048
v 0.191180 0.011972 -0.018374
v 0.159419 -0.012868 0.003357
v 0.159397 0.000226 0.000025
v 0.196239 -0.009146 -0.016727
v 0.196207 0.009752 -0.003311
v 0.196223 0.000290 0.000024
v -0.223932 -0.000404 -0.016704
v -0.225619 0.007031 -0.013346
v -0.223945 0.007034 -0.013346
v -0.213926 0.021440 0.000063
v -0.215597 0.019688 0.006756
v -0.213920 0.017984 0.006754
v -0.213861 -0.015870 0.011733
v -0.215527 -0.020537 0.006705
v -0.213855 -0.019326 0.005033
v -0.175375 -0.007813 -0.013367
v -0.175401 0.007156 -0.003304
v -0.175388 -0.000337 0.000035
v -0.223904 -0.016360 -0.011702
v -0.225593 -0.007850 -0.013365
v -0.223917 -0.008917 -0.015040
v -0.213915 0.015044 -0.011662
v -0.215597 0.019705 -0.006635
v -0.213921 0.018483 -0.004963
v 0.196179 0.025827 0.018470
v -0.223959 0.015516 0.011773
v -0.225618 0.006997 0.013437
v -0.223946 0.008069 0.015112
v -0.240660 -0.006506 -0.003319
v -0.242339 -0.003772 -0.004989
v -0.240666 -0.003183 -0.004989
v -0.240681 0.005587 0.003392
v -0.242350 0.002861 0.005062
v -0.240675 0.002261 0.005061
v -0.250706 -0.005093 0.003379
v -0.252381 -0.004725 0.001705
v -0.250705 -0.005811 0.001704
v -0.240671 -0.000463 0.006732
v -0.242338 -0.003785 0.005054
v -0.240665 -0.003782 0.005054
v -0.213915 0.015014 0.011773
v -0.215576 0.007900 0.015111
v -0.213900 0.006683 0.013436
v -0.237312 -0.006706 0.000028
v -0.238986 -0.007041 -0.001646
v -0.237314 -0.005582 -0.001644
v -0.237331 0.003978 -0.003306
v -0.239008 0.006132 -0.001630
v -0.237332 0.005114 -0.001631
v -0.213862 -0.015840 -0.011701
v -0.215548 -0.008718 -0.015040
v -0.213876 -0.007512 -0.013365
v -0.213889 -0.000389 -0.015030
v -0.215577 0.007938 -0.015019
v -0.213903 0.007939 -0.013345
v -0.213888 -0.000427 0.015101
v -0.215547 -0.008756 0.015090
v -0.213873 -0.008751 0.013416
v -0.250722 0.004139 -0.003305
v -0.252396 0.003782 -0.001632
v -0.250724 0.004857 -0.001631
v 0.196268 -0.025294 0.018405
v 0.196286 -0.035520 0.016718
v -0.250726 0.006043 0.000044
v -0.252396 0.003778 0.001716
v -0.250724 0.005321 0.001718
v -0.237334 0.005815 0.000044
v -0.239008 0.006128 0.001718
v -0.237332 0.004675 0.001716
v -0.250703 -0.006980 0.000028
v -0.252381 -0.004721 -0.001643
v -0.250704 -0.006258 -0.001645
v -0.228985 0.017581 0.000058
v -0.232323 0.012348 0.003400
v -0.228981 0.015383 0.003403
v -0.210570 0.016893 0.000057
v -0.212244 0.016767 0.005079
v -0.210565 0.013924 0.005075
v -0.210519 -0.012629 0.008389
v -0.212184 -0.017599 0.005035
v -0.210514 -0.015568 0.003364
v -0.210510 -0.017690 0.000013
v -0.212184 -0.017586 -0.005008
v -0.210515 -0.014738 -0.005005
v -0.228976 0.012318 -0.008317
v -0.232323 0.012357 -0.003296
v -0.228979 0.014507 -0.004967
v -0.237315 -0.004885 0.003379
v -0.238986 -0.007046 0.001702
v -0.237313 -0.006005 0.001703
v -0.228922 -0.018442 0.000013
v -0.232279 -0.013221 -0.003328
v -0.228926 -0.016245 -0.003332
v -0.228931 -0.013180 0.008389
v -0.232279 -0.013229 0.003367
v -0.228927 -0.015368 0.005039
v -0.210562 0.011815 -0.008318
v -0.212244 0.016779 -0.004965
v -0.210567 0.014772 -0.003293
v 0.196303 -0.046061 -0.013425
v 0.196284 -0.035328 -0.015086
v 0.196285 -0.035831 -0.015087
v 0.196178 0.025874 -0.018356
v 0.196161 0.035947 -0.014996
v 0.196160 0.036099 -0.016669
v -0.250722 0.004130 0.003390
v -0.252392 0.001289 0.003387
v -0.250719 0.002363 0.003388
v -0.250715 -0.000465 -0.004985
v -0.252392 0.001297 -0.003309
v -0.250718 0.001302 -0.004983
v -0.250706 -0.005084 -0.003317
v -0.252386 -0.002235 -0.003313
v -0.250710 -0.003320 -0.003315
v 0.202963 -0.025283 0.018405
v 0.202981 -0.036010 0.016717
v 0.202981 -0.035857 0.015044
v 0.202998 -0.046049 -0.013426
v 0.202980 -0.035968 -0.016761
v 0.202979 -0.035466 -0.016760
v 0.196143 0.046640 0.013474
v 0.196161 0.036411 0.015136
v 0.202873 0.025886 -0.018356
v 0.202854 0.036613 -0.016669
v 0.202855 0.036460 -0.014995
v -0.250714 -0.000478 0.005058
v -0.252385 -0.002243 0.003382
v -0.250711 -0.002242 0.005056
v -0.233963 -0.007443 0.005049
v -0.235641 -0.004546 0.001705
v -0.233961 -0.008144 0.003374
v -0.233987 0.006564 -0.004977
v -0.235656 0.003661 -0.001633
v -0.233988 0.007265 -0.003302
v -0.233958 -0.010332 0.000023
v -0.235642 -0.004541 -0.001643
v -0.233959 -0.009627 -0.001650
v 0.202838 0.046652 0.013474
v 0.202855 0.036571 0.016809
v 0.202856 0.036068 0.016809
v -0.237323 -0.000442 -0.004985
v -0.239002 0.002277 -0.004982
v -0.237328 0.002277 -0.003308
v -0.237315 -0.004877 -0.003317
v -0.238992 -0.003180 -0.004989
v -0.237320 -0.002139 -0.004988
v -0.237323 -0.000455 0.005058
v -0.238992 -0.003193 0.005054
v -0.237318 -0.003188 0.003381
v -0.233992 0.009454 0.000048
v -0.235656 0.003657 0.001715
v -0.233991 0.008748 0.001721
v -0.210519 -0.012608 -0.008349
v -0.212202 -0.007511 -0.011691
v -0.210532 -0.005485 -0.010014
v -0.210541 -0.000387 -0.011682
v -0.212227 0.006717 -0.011673
v -0.210553 0.006718 -0.009999
v -0.228954 -0.000417 -0.013356
v -0.232311 0.004870 -0.008327
v -0.228963 0.004880 -0.011675
v -0.210540 -0.000417 0.011753
v -0.212201 -0.007541 0.011744
v -0.210528 -0.007536 0.010070
v -0.228953 -0.000451 0.013428
v -0.232292 -0.005747 0.008399
v -0.228944 -0.005745 0.011747
v -0.228932 -0.013159 -0.008350
v -0.232292 -0.005725 -0.008340
v -0.228941 -0.007860 -0.010017
v -0.237330 0.003969 0.003390
v -0.239002 0.002264 0.005061
v -0.237326 0.001246 0.005060
v -0.210561 0.011794 0.008420
v -0.212226 0.006688 0.011762
v -0.210549 0.004684 0.010085
v -0.228975 0.012297 0.008422
v -0.232310 0.004849 0.008412
v -0.228966 0.006995 0.010089
v 0.196110 0.065405 0.000107
v 0.196116 0.062221 0.003450
v 0.196114 0.063058 0.003451
v 0.196328 -0.059980 0.006643
v 0.196331 -0.061649 0.003293
v 0.196332 -0.062319 0.003292
v 0.203031 -0.064814 -0.000059
v 0.203028 -0.063136 -0.003404
v 0.203026 -0.062299 -0.003403
v 0.196336 -0.064825 -0.000059
v 0.196330 -0.061641 -0.003402
v 0.196332 -0.062478 -0.003403
v 0.203022 -0.059968 0.006643
v 0.203028 -0.063144 0.003291
v 0.203027 -0.062475 0.003292
v 0.202805 0.065417 0.000106
v 0.202808 0.063739 0.003452
v 0.202809 0.062902 0.003451
v 0.202813 0.060571 -0.006595
v 0.202808 0.063747 -0.003243
v 0.202809 0.063078 -0.003244
v 0.196118 0.060559 -0.006594
v 0.196116 0.062229 -0.003245
v 0.196114 0.062899 -0.003244
v 0.196132 0.053005 0.010135
v 0.196120 0.059881 0.000100
v 0.196132 0.053014 0.003439
v 0.196315 -0.052451 0.010001
v 0.196303 -0.045575 -0.000034
v 0.196314 -0.052434 -0.003390
v 0.202838 0.046167 0.000082
v 0.202826 0.053042 -0.009952
v 0.202826 0.053025 0.003439
v 0.203021 -0.059290 -0.000051
v 0.203009 -0.052414 -0.010086
v 0.203009 -0.052423 -0.003391
v -0.233963 -0.007430 -0.004994
v -0.235646 -0.002139 -0.003314
v -0.233966 -0.005733 -0.004992
v -0.233975 -0.000434 -0.006660
v -0.235652 0.001259 -0.003310
v -0.233978 0.001266 -0.006657
v -0.233975 -0.000451 0.006732
v -0.235646 -0.002147 0.003382
v -0.233972 -0.002148 0.006730
v -0.233987 0.006551 0.005067
v -0.235651 0.001251 0.003386
v -0.233984 0.004850 0.005064
v 0.203022 -0.059951 -0.006747
v 0.203011 -0.053586 -0.010087
v 0.203010 -0.052916 -0.010086
v 0.196119 0.060542 0.006796
v 0.196131 0.053675 0.010135
v 0.196327 -0.059963 -0.006747
v 0.196314 -0.052426 -0.010086
v 0.196315 -0.053095 -0.010086
v 0.202999 -0.046083 0.013357
v 0.203012 -0.053611 0.009999
v 0.203011 -0.053109 0.010000
v 0.196142 0.046674 -0.013308
v 0.196131 0.053031 -0.009952
v 0.196130 0.053533 -0.009951
v 0.202813 0.060554 0.006796
v 0.202825 0.054189 0.010136
v 0.202826 0.053519 0.010135
v 0.202837 0.046686 -0.013308
v 0.202824 0.054214 -0.009951
v 0.202825 0.053712 -0.009951
v 0.196304 -0.046095 0.013357
v 0.196316 -0.052953 0.010000
v 0.159374 0.013320 -0.003306
v 0.159364 0.018823 -0.013343
v 0.159429 -0.018372 0.013393
v 0.196206 0.009769 -0.016703
v 0.196183 0.023148 -0.006642
v 0.196199 0.013694 -0.010002
v 0.196240 -0.009189 0.016751
v 0.196263 -0.022567 0.006691
v 0.196247 -0.013114 0.010051
v -0.175401 0.007169 -0.013348
v -0.175419 0.017764 -0.004965
v -0.175406 0.010275 -0.008322
v -0.175374 -0.007847 0.013417
v -0.175356 -0.018439 0.005033
v -0.175369 -0.010954 0.008391
v -0.254065 0.001292 -0.001635
v -0.254062 -0.000475 -0.001638
v -0.254067 0.002010 0.000039
v -0.254065 0.001288 0.001713
v -0.254062 -0.000480 0.001710
v -0.254059 -0.002244 0.001708
v -0.254058 -0.002962 0.000033
v -0.254059 -0.002240 -0.001640
v 0.196326 -0.059302 -0.000051
v 0.202810 0.062241 -0.003245
v 0.202810 0.062232 0.003450
v 0.202814 0.059893 0.000100
v 0.203025 -0.061629 -0.003402
v 0.203025 -0.061638 0.003293
v 0.471917 0.000784 0.003364
v 0.742191 -0.000611 0.000007
v 0.734650 -0.005422 0.000001
v 0.671069 0.027043 0.000044
v 0.602432 0.030372 0.000050
v 0.734628 0.007384 0.000017
v 0.721461 0.013002 0.000025
v 0.687311 0.023840 0.000039
v 0.704896 0.018815 0.000033
v 0.721504 -0.011755 -0.000007
v 0.704961 -0.018396 -0.000015
v 0.383803 0.038446 0.000067
v 0.486210 -0.036201 -0.000031
v 0.602539 -0.031446 -0.000028
v 0.300082 -0.043387 -0.000035
v 0.383940 -0.040229 -0.000033
v 0.159378 0.011372 0.020127
v 0.159416 -0.010920 0.003359
v 0.159350 0.027166 0.008429
v 0.159443 -0.026680 -0.008379
v -0.175419 0.017751 0.005079
v -0.175356 -0.018426 -0.005011
v -0.175400 0.007135 0.013436
v 0.196200 0.013018 -0.018373
v 0.202940 -0.012427 0.018421
v 0.202941 -0.012580 0.020095
v 0.202895 0.013183 -0.020046
v 0.196184 0.023131 0.006749
v 0.196262 -0.022550 -0.006700
v 0.202980 -0.035355 0.015044
v 0.202856 0.035920 0.015135
v 0.196207 0.009726 0.016775
v 0.196240 -0.009172 0.003360
v -0.175374 -0.007834 0.003373
v 0.202827 0.053017 0.010134
v 0.203009 -0.052440 0.010001
f 1 319 321
f 319 2 320
f 320 3 321
f 319 320 321
f 4 322 324
f 322 1 323
f 323 5 324
f 322 323 324
f 6 325 327
f 325 7 326
f 326 8 327
f 325 326 327
f 8 328 330
f 328 9 329
f 329 10 330
f 328 329 330
f 11 331 333
f 331 4 332
f 332 8 333
f 331 332 333
f 8 326 333
f 326 7 334
f 334 11 333
f 326 334 333
f 12 335 337
f 335 8 336
f 336 13 337
f 335 336 337
f 6 338 340
f 338 2 339
f 339 4 340
f 338 339 340
f 14 341 343
f 341 8 342
f 342 5 343
f 341 342 343
f 9 344 345
f 344 1 321
f 321 3 345
f 344 321 345
f 5 323 343
f 323 1 346
f 346 14 343
f 323 346 343
f 14 346 348
f 346 1 347
f 347 13 348
f 346 347 348
f 15 349 350
f 349 4 331
f 331 11 350
f 349 331 350
f 13 336 348
f 336 8 341
f 341 14 348
f 336 341 348
f 13 347 337
f 347 1 351
f 351 12 337
f 347 351 337
f 16 352 353
f 352 1 344
f 344 9 353
f 352 344 353
f 17 354 355
f 354 4 349
f 349 15 355
f 354 349 355
f 11 334 350
f 334 7 356
f 356 15 350
f 334 356 350
f 18 357 358
f 357 8 335
f 335 12 358
f 357 335 358
f 17 359 361
f 359 7 360
f 360 19 361
f 359 360 361
f 19 360 362
f 360 7 325
f 325 6 362
f 360 325 362
f 19 363 361
f 363 4 354
f 354 17 361
f 363 354 361
f 6 340 362
f 340 4 363
f 363 19 362
f 340 363 362
f 1 352 351
f 352 16 364
f 364 12 351
f 352 364 351
f 8 357 328
f 357 18 367
f 367 9 328
f 357 367 328
f 10 368 369
f 368 3 320
f 320 2 369
f 368 320 369
f 21 370 372
f 370 22 371
f 371 23 372
f 370 371 372
f 24 373 375
f 373 25 374
f 374 26 375
f 373 374 375
f 22 376 378
f 376 27 377
f 377 28 378
f 376 377 378
f 29 379 381
f 379 30 380
f 380 31 381
f 379 380 381
f 32 382 384
f 382 26 383
f 383 33 384
f 382 383 384
f 25 373 386
f 373 24 385
f 385 34 386
f 373 385 386
f 23 387 389
f 387 35 388
f 388 36 389
f 387 388 389
f 22 390 392
f 390 37 391
f 391 38 392
f 390 391 392
f 21 393 395
f 393 39 394
f 394 37 395
f 393 394 395
f 29 396 398
f 396 36 397
f 397 40 398
f 396 397 398
f 41 399 401
f 399 42 400
f 400 43 401
f 399 400 401
f 44 402 404
f 402 45 403
f 403 46 404
f 402 403 404
f 47 405 407
f 405 48 406
f 406 45 407
f 405 406 407
f 49 408 410
f 408 43 409
f 409 50 410
f 408 409 410
f 51 411 413
f 411 46 412
f 412 52 413
f 411 412 413
f 53 414 416
f 414 52 415
f 415 42 416
f 414 415 416
f 54 417 419
f 417 55 418
f 418 48 419
f 417 418 419
f 56 420 422
f 420 50 421
f 421 55 422
f 420 421 422
f 57 423 425
f 423 49 424
f 424 56 425
f 423 424 425
f 58 426 428
f 426 47 427
f 427 44 428
f 426 427 428
f 59 429 431
f 429 41 430
f 430 49 431
f 429 430 431
f 60 432 434
f 432 44 433
f 433 51 434
f 432 433 434
f 61 435 437
f 435 54 436
f 436 47 437
f 435 436 437
f 62 438 440
f 438 56 439
f 439 54 440
f 438 439 440
f 63 441 443
f 441 51 442
f 442 53 443
f 441 442 443
f 64 444 446
f 444 53 445
f 445 41 446
f 444 445 446
f 35 447 449
f 447 65 448
f 448 66 449
f 447 448 449
f 36 450 452
f 450 66 451
f 451 67 452
f 450 451 452
f 39 453 455
f 453 68 454
f 454 69 455
f 453 454 455
f 37 456 458
f 456 69 457
f 457 70 458
f 456 457 458
f 69 459 461
f 459 71 460
f 460 72 461
f 459 460 461
f 65 462 464
f 462 73 463
f 463 74 464
f 462 463 464
f 68 465 467
f 465 75 466
f 466 71 467
f 465 466 467
f 66 468 470
f 468 74 469
f 469 76 470
f 468 469 470
f 28 471 473
f 471 77 472
f 472 35 473
f 471 472 473
f 27 474 476
f 474 38 475
f 475 77 476
f 474 475 476
f 30 477 479
f 477 40 478
f 478 78 479
f 477 478 479
f 31 480 482
f 480 78 481
f 481 39 482
f 480 481 482
f 79 483 485
f 483 57 484
f 484 62 485
f 483 484 485
f 80 486 488
f 486 58 487
f 487 60 488
f 486 487 488
f 81 489 491
f 489 59 490
f 490 57 491
f 489 490 491
f 82 492 494
f 492 60 493
f 493 63 494
f 492 493 494
f 70 495 497
f 495 72 496
f 496 83 497
f 495 496 497
f 84 498 500
f 498 83 499
f 499 73 500
f 498 499 500
f 67 501 503
f 501 76 502
f 502 85 503
f 501 502 503
f 86 504 506
f 504 85 505
f 505 75 506
f 504 505 506
f 38 507 509
f 507 70 508
f 508 84 509
f 507 508 509
f 77 510 512
f 510 84 511
f 511 65 512
f 510 511 512
f 40 513 515
f 513 67 514
f 514 86 515
f 513 514 515
f 78 516 518
f 516 86 517
f 517 68 518
f 516 517 518
f 74 519 521
f 519 79 520
f 520 87 521
f 519 520 521
f 75 522 524
f 522 80 523
f 523 82 524
f 522 523 524
f 71 525 527
f 525 82 526
f 526 88 527
f 525 526 527
f 73 528 530
f 528 81 529
f 529 79 530
f 528 529 530
f 87 531 533
f 531 62 532
f 532 61 533
f 531 532 533
f 89 534 536
f 534 61 535
f 535 58 536
f 534 535 536
f 88 537 539
f 537 63 538
f 538 64 539
f 537 538 539
f 90 540 542
f 540 64 541
f 541 59 542
f 540 541 542
f 85 543 545
f 543 89 544
f 544 80 545
f 543 544 545
f 76 546 548
f 546 87 547
f 547 89 548
f 546 547 548
f 83 549 551
f 549 90 550
f 550 81 551
f 549 550 551
f 72 552 554
f 552 88 553
f 553 90 554
f 552 553 554
f 42 555 557
f 555 91 556
f 556 92 557
f 555 556 557
f 45 558 560
f 558 93 559
f 559 94 560
f 558 559 560
f 43 561 563
f 561 92 562
f 562 95 563
f 561 562 563
f 48 564 566
f 564 96 565
f 565 93 566
f 564 565 566
f 46 567 569
f 567 94 568
f 568 97 569
f 567 568 569
f 52 570 572
f 570 97 571
f 571 91 572
f 570 571 572
f 50 573 575
f 573 95 574
f 574 98 575
f 573 574 575
f 55 576 578
f 576 98 577
f 577 96 578
f 576 577 578
f 93 579 581
f 579 32 580
f 580 99 581
f 579 580 581
f 91 582 583
f 582 26 374
f 374 25 583
f 582 374 583
f 96 584 586
f 584 24 585
f 585 32 586
f 584 585 586
f 92 587 589
f 587 25 588
f 588 100 589
f 587 588 589
f 97 590 591
f 590 33 383
f 383 26 591
f 590 383 591
f 94 592 594
f 592 99 593
f 593 33 594
f 592 593 594
f 95 595 597
f 595 100 596
f 596 34 597
f 595 596 597
f 98 598 599
f 598 34 385
f 385 24 599
f 598 385 599
f 101 600 602
f 600 102 601
f 601 103 602
f 600 601 602
f 104 603 605
f 603 105 604
f 604 106 605
f 603 604 605
f 107 606 608
f 606 108 607
f 607 105 608
f 606 607 608
f 109 609 611
f 609 103 610
f 610 110 611
f 609 610 611
f 111 612 614
f 612 112 613
f 613 102 614
f 612 613 614
f 113 615 617
f 615 114 616
f 616 115 617
f 615 616 617
f 116 618 620
f 618 117 619
f 619 118 620
f 618 619 620
f 119 621 623
f 621 120 622
f 622 121 623
f 621 622 623
f 122 624 626
f 624 123 625
f 625 124 626
f 624 625 626
f 125 627 629
f 627 126 628
f 628 127 629
f 627 628 629
f 128 630 632
f 630 127 631
f 631 123 632
f 630 631 632
f 129 633 635
f 633 130 634
f 634 131 635
f 633 634 635
f 132 636 638
f 636 115 637
f 637 133 638
f 636 637 638
f 134 639 641
f 639 131 640
f 640 117 641
f 639 640 641
f 135 642 644
f 642 136 643
f 643 137 644
f 642 643 644
f 138 645 647
f 645 139 646
f 646 140 647
f 645 646 647
f 141 648 650
f 648 142 649
f 649 139 650
f 648 649 650
f 143 651 653
f 651 137 652
f 652 144 653
f 651 652 653
f 145 654 656
f 654 146 655
f 655 130 656
f 654 655 656
f 147 657 659
f 657 118 658
f 658 114 659
f 657 658 659
f 148 660 662
f 660 133 661
f 661 146 662
f 660 661 662
f 149 663 665
f 663 150 664
f 664 151 665
f 663 664 665
f 150 666 668
f 666 152 667
f 667 153 668
f 666 667 668
f 154 669 671
f 669 155 670
f 670 156 671
f 669 670 671
f 157 672 674
f 672 158 673
f 673 155 674
f 672 673 674
f 137 675 677
f 675 159 676
f 676 160 677
f 675 676 677
f 136 678 680
f 678 161 679
f 679 159 680
f 678 679 680
f 115 681 683
f 681 162 682
f 682 163 683
f 681 682 683
f 164 684 686
f 684 165 685
f 685 166 686
f 684 685 686
f 167 687 689
f 687 168 688
f 688 112 689
f 687 688 689
f 169 690 692
f 690 106 691
f 691 165 692
f 690 691 692
f 131 693 695
f 693 170 694
f 694 171 695
f 693 694 695
f 172 696 698
f 696 173 697
f 697 136 698
f 696 697 698
f 174 699 701
f 699 140 700
f 700 173 701
f 699 700 701
f 175 702 704
f 702 176 703
f 703 142 704
f 702 703 704
f 139 705 707
f 705 177 706
f 706 178 707
f 705 706 707
f 142 708 710
f 708 179 709
f 709 177 710
f 708 709 710
f 180 711 713
f 711 181 712
f 712 126 713
f 711 712 713
f 182 714 716
f 714 124 715
f 715 183 716
f 714 715 716
f 184 717 719
f 717 185 718
f 718 181 719
f 717 718 719
f 186 720 722
f 720 144 721
f 721 176 722
f 720 721 722
f 114 723 725
f 723 187 724
f 724 162 725
f 723 724 725
f 140 726 728
f 726 178 727
f 727 188 728
f 726 727 728
f 173 729 731
f 729 188 730
f 730 161 731
f 729 730 731
f 176 732 734
f 732 189 733
f 733 179 734
f 732 733 734
f 144 735 737
f 735 160 736
f 736 189 737
f 735 736 737
f 190 738 740
f 738 121 739
f 739 191 740
f 738 739 740
f 130 741 743
f 741 192 742
f 742 170 743
f 741 742 743
f 118 744 746
f 744 193 745
f 745 187 746
f 744 745 746
f 194 747 749
f 747 195 748
f 748 168 749
f 747 748 749
f 196 750 752
f 750 197 751
f 751 198 752
f 750 751 752
f 199 753 755
f 753 166 754
f 754 197 755
f 753 754 755
f 200 756 758
f 756 201 757
f 757 195 758
f 756 757 758
f 154 759 761
f 759 150 760
f 760 108 761
f 759 760 761
f 202 762 764
f 762 110 763
f 763 150 764
f 762 763 764
f 155 765 767
f 765 151 766
f 766 201 767
f 765 766 767
f 203 768 770
f 768 198 769
f 769 151 770
f 768 769 770
f 133 771 773
f 771 163 772
f 772 204 773
f 771 772 773
f 146 774 776
f 774 204 775
f 775 192 776
f 774 775 776
f 205 777 779
f 777 206 778
f 778 185 779
f 777 778 779
f 207 780 782
f 780 183 781
f 781 206 782
f 780 781 782
f 117 783 785
f 783 171 784
f 784 193 785
f 783 784 785
f 208 786 788
f 786 209 787
f 787 210 788
f 786 787 788
f 211 789 791
f 789 191 790
f 790 212 791
f 789 790 791
f 213 792 794
f 792 210 793
f 793 214 794
f 792 793 794
f 215 795 797
f 795 216 796
f 796 209 797
f 795 796 797
f 217 798 800
f 798 212 799
f 799 216 800
f 798 799 800
f 218 801 803
f 801 214 802
f 802 120 803
f 801 802 803
f 192 804 806
f 804 219 805
f 805 220 806
f 804 805 806
f 158 807 673
f 807 203 808
f 808 155 673
f 807 808 673
f 210 809 811
f 809 221 810
f 810 222 811
f 809 810 811
f 187 812 814
f 812 223 813
f 813 224 814
f 812 813 814
f 170 815 817
f 815 220 816
f 816 225 817
f 815 816 817
f 162 818 820
f 818 224 819
f 819 226 820
f 818 819 820
f 209 821 823
f 821 227 822
f 822 221 823
f 821 822 823
f 171 824 826
f 824 225 825
f 825 228 826
f 824 825 826
f 193 827 829
f 827 228 828
f 828 223 829
f 827 828 829
f 214 830 832
f 830 222 831
f 831 229 832
f 830 831 832
f 212 833 835
f 833 230 834
f 834 231 835
f 833 834 835
f 181 836 838
f 836 232 837
f 837 233 838
f 836 837 838
f 123 839 841
f 839 234 840
f 840 235 841
f 839 840 841
f 236 842 844
f 842 211 843
f 843 217 844
f 842 843 844
f 237 845 847
f 845 135 846
f 846 143 847
f 845 846 847
f 191 848 850
f 848 238 849
f 849 230 850
f 848 849 850
f 121 851 853
f 851 239 852
f 852 238 853
f 851 852 853
f 163 854 856
f 854 226 855
f 855 240 856
f 854 855 856
f 241 857 859
f 857 143 858
f 858 186 859
f 857 858 859
f 242 860 862
f 860 141 861
f 861 138 862
f 860 861 862
f 185 863 865
f 863 243 864
f 864 232 865
f 863 864 865
f 244 866 868
f 866 138 867
f 867 174 868
f 866 867 868
f 204 869 871
f 869 240 870
f 870 219 871
f 869 870 871
f 198 872 769
f 872 245 873
f 873 151 769
f 872 873 769
f 246 874 876
f 874 202 875
f 875 154 876
f 874 875 876
f 124 877 879
f 877 235 878
f 878 247 879
f 877 878 879
f 248 880 882
f 880 213 881
f 881 218 882
f 880 881 882
f 249 883 885
f 883 149 884
f 884 245 885
f 883 884 885
f 152 886 888
f 886 250 887
f 887 251 888
f 886 887 888
f 252 889 891
f 889 253 890
f 890 158 891
f 889 890 891
f 246 892 894
f 892 156 893
f 893 254 894
f 892 893 894
f 120 895 897
f 895 229 896
f 896 239 897
f 895 896 897
f 216 898 900
f 898 231 899
f 899 227 900
f 898 899 900
f 127 901 903
f 901 255 902
f 902 234 903
f 901 902 903
f 256 904 906
f 904 182 905
f 905 207 906
f 904 905 906
f 257 907 909
f 907 208 908
f 908 213 909
f 907 908 909
f 258 910 912
f 910 190 911
f 911 211 912
f 910 911 912
f 259 913 915
f 913 215 914
f 914 208 915
f 913 914 915
f 150 916 918
f 916 175 917
f 917 141 918
f 916 917 918
f 260 919 921
f 919 174 920
f 920 172 921
f 919 920 921
f 261 922 924
f 922 186 923
f 923 175 924
f 922 923 924
f 151 925 927
f 925 172 926
f 926 135 927
f 925 926 927
f 178 928 929
f 928 189 736
f 736 160 929
f 928 736 929
f 260 930 932
f 930 151 931
f 931 261 932
f 930 931 932
f 206 933 935
f 933 262 934
f 934 243 935
f 933 934 935
f 263 936 938
f 936 180 937
f 937 125 938
f 936 937 938
f 264 939 941
f 939 122 940
f 940 182 941
f 939 940 941
f 116 942 944
f 942 147 943
f 943 148 944
f 942 943 944
f 183 945 947
f 945 247 946
f 946 262 947
f 945 946 947
f 265 948 950
f 948 184 949
f 949 180 950
f 948 949 950
f 110 951 763
f 951 152 666
f 666 150 763
f 951 666 763
f 126 952 954
f 952 233 953
f 953 255 954
f 952 953 954
f 266 955 957
f 955 217 956
f 956 215 957
f 955 956 957
f 267 958 960
f 958 218 959
f 959 119 960
f 958 959 960
f 239 961 963
f 961 268 962
f 962 269 963
f 961 962 963
f 270 964 966
f 964 119 965
f 965 190 966
f 964 965 966
f 271 967 969
f 967 125 968
f 968 128 969
f 967 968 969
f 272 970 972
f 970 236 971
f 971 266 972
f 970 971 972
f 273 973 975
f 973 257 974
f 974 248 975
f 973 974 975
f 274 976 978
f 976 207 977
f 977 205 978
f 976 977 978
f 275 979 981
f 979 205 980
f 980 184 981
f 979 980 981
f 276 982 984
f 982 128 983
f 983 122 984
f 982 983 984
f 227 985 987
f 985 277 986
f 986 278 987
f 985 986 987
f 108 988 989
f 988 149 883
f 883 249 989
f 988 883 989
f 221 990 992
f 990 278 991
f 991 279 992
f 990 991 992
f 280 993 995
f 993 248 994
f 994 267 995
f 993 994 995
f 238 996 998
f 996 269 997
f 997 281 998
f 996 997 998
f 232 999 1001
f 999 282 1000
f 1000 283 1001
f 999 1000 1001
f 224 1002 1004
f 1002 263 1003
f 1003 271 1004
f 1002 1003 1004
f 219 1005 1007
f 1005 264 1006
f 1006 256 1007
f 1005 1006 1007
f 220 1008 1010
f 1008 256 1009
f 1009 274 1010
f 1008 1009 1010
f 243 1011 1013
f 1011 284 1012
f 1012 282 1013
f 1011 1012 1013
f 285 1014 1016
f 1014 258 1015
f 1015 236 1016
f 1014 1015 1016
f 235 1017 1019
f 1017 286 1018
f 1018 287 1019
f 1017 1018 1019
f 234 1020 1022
f 1020 288 1021
f 1021 286 1022
f 1020 1021 1022
f 223 1023 1025
f 1023 265 1024
f 1024 263 1025
f 1023 1024 1025
f 197 1026 1028
f 1026 289 1027
f 1027 245 1028
f 1026 1027 1028
f 201 1029 1031
f 1029 153 1030
f 1030 251 1031
f 1029 1030 1031
f 222 1032 1034
f 1032 279 1033
f 1033 290 1034
f 1032 1033 1034
f 231 1035 1037
f 1035 291 1036
f 1036 277 1037
f 1035 1036 1037
f 230 1038 1040
f 1038 281 1039
f 1039 291 1040
f 1038 1039 1040
f 157 1041 1043
f 1041 107 1042
f 1042 104 1043
f 1041 1042 1043
f 253 1044 1046
f 1044 196 1045
f 1045 203 1046
f 1044 1045 1046
f 103 1047 1048
f 1047 250 886
f 886 152 1048
f 1047 886 1048
f 156 1049 1051
f 1049 200 1050
f 1050 194 1051
f 1049 1050 1051
f 229 1052 1054
f 1052 290 1053
f 1053 268 1054
f 1052 1053 1054
f 288 1055 1057
f 1055 285 1056
f 1056 272 1057
f 1055 1056 1057
f 284 1058 1060
f 1058 273 1059
f 1059 280 1060
f 1058 1059 1060
f 286 1061 1063
f 1061 272 1062
f 1062 292 1063
f 1061 1062 1063
f 293 1064 1066
f 1064 109 1065
f 1065 202 1066
f 1064 1065 1066
f 294 1067 1069
f 1067 259 1068
f 1068 257 1069
f 1067 1068 1069
f 292 1070 1072
f 1070 266 1071
f 1071 259 1072
f 1070 1071 1072
f 295 1073 1075
f 1073 270 1074
f 1074 258 1075
f 1073 1074 1075
f 282 1076 1078
f 1076 280 1077
f 1077 296 1078
f 1076 1077 1078
f 225 1079 1081
f 1079 274 1080
f 1080 275 1081
f 1079 1080 1081
f 228 1082 1084
f 1082 275 1083
f 1083 265 1084
f 1082 1083 1084
f 262 1085 1087
f 1085 297 1086
f 1086 284 1087
f 1085 1086 1087
f 240 1088 1090
f 1088 276 1089
f 1089 264 1090
f 1088 1089 1090
f 255 1091 1093
f 1091 298 1092
f 1092 288 1093
f 1091 1092 1093
f 247 1094 1096
f 1094 287 1095
f 1095 297 1096
f 1094 1095 1096
f 296 1097 1099
f 1097 267 1098
f 1098 270 1099
f 1097 1098 1099
f 226 1100 1102
f 1100 271 1101
f 1101 276 1102
f 1100 1101 1102
f 233 1103 1105
f 1103 283 1104
f 1104 298 1105
f 1103 1104 1105
f 112 1106 1108
f 1106 299 1107
f 1107 300 1108
f 1106 1107 1108
f 106 1109 1111
f 1109 301 1110
f 1110 302 1111
f 1109 1110 1111
f 303 1112 1114
f 1112 164 1113
f 1113 199 1114
f 1112 1113 1114
f 165 1115 1117
f 1115 302 1116
f 1116 304 1117
f 1115 1116 1117
f 305 1118 1120
f 1118 169 1119
f 1119 164 1120
f 1118 1119 1120
f 306 1121 1123
f 1121 111 1122
f 1122 101 1123
f 1121 1122 1123
f 307 1124 1126
f 1124 167 1125
f 1125 111 1126
f 1124 1125 1126
f 168 1127 1129
f 1127 308 1128
f 1128 299 1129
f 1127 1128 1129
f 250 1130 1132
f 1130 300 1131
f 1131 308 1132
f 1130 1131 1132
f 301 1133 1135
f 1133 249 1134
f 1134 289 1135
f 1133 1134 1135
f 293 1136 1138
f 1136 254 1137
f 1137 307 1138
f 1136 1137 1138
f 305 1139 1141
f 1139 309 1140
f 1140 253 1141
f 1139 1140 1141
f 287 1142 1144
f 1142 292 1143
f 1143 294 1144
f 1142 1143 1144
f 297 1145 1147
f 1145 294 1146
f 1146 273 1147
f 1145 1146 1147
f 298 1148 1150
f 1148 295 1149
f 1149 285 1150
f 1148 1149 1150
f 283 1151 1153
f 1151 296 1152
f 1152 295 1153
f 1151 1152 1153
f 309 1154 1156
f 1154 199 1155
f 1155 196 1156
f 1154 1155 1156
f 102 1157 1158
f 1157 300 1130
f 1130 250 1158
f 1157 1130 1158
f 166 1159 1161
f 1159 304 1160
f 1160 289 1161
f 1159 1160 1161
f 252 1162 1164
f 1162 104 1163
f 1163 169 1164
f 1162 1163 1164
f 195 1165 1167
f 1165 251 1166
f 1166 308 1167
f 1165 1166 1167
f 310 1168 1170
f 1168 101 1169
f 1169 109 1170
f 1168 1169 1170
f 254 1171 1173
f 1171 194 1172
f 1172 167 1173
f 1171 1172 1173
f 105 1174 1175
f 1174 249 1133
f 1133 301 1175
f 1174 1133 1175
f 188 1176 1177
f 1176 160 676
f 676 159 1177
f 1176 676 1177
f 189 928 1178
f 928 178 706
f 706 177 1178
f 928 706 1178
f 151 1179 1181
f 1179 237 1180
f 1180 241 1181
f 1179 1180 1181
f 150 1182 1184
f 1182 242 1183
f 1183 244 1184
f 1182 1183 1184
f 147 1185 1187
f 1185 113 1186
f 1186 132 1187
f 1185 1186 1187
f 145 1188 1190
f 1188 129 1189
f 1189 134 1190
f 1188 1189 1190
f 311 1191 1192
f 1191 277 1036
f 1036 291 1192
f 1191 1036 1192
f 311 1193 1191
f 1193 278 986
f 986 277 1191
f 1193 986 1191
f 311 1194 1193
f 1194 279 991
f 991 278 1193
f 1194 991 1193
f 311 1195 1194
f 1195 290 1033
f 1033 279 1194
f 1195 1033 1194
f 311 1196 1195
f 1196 268 1053
f 1053 290 1195
f 1196 1053 1195
f 311 1197 1196
f 1197 269 962
f 962 268 1196
f 1197 962 1196
f 311 1198 1197
f 1198 281 997
f 997 269 1197
f 1198 997 1197
f 311 1192 1198
f 1192 291 1039
f 1039 281 1198
f 1192 1039 1198
f 300 1107 1131
f 1107 299 1128
f 1128 308 1131
f 1107 1128 1131
f 301 1199 1110
f 1199 304 1116
f 1116 302 1110
f 1199 1116 1110
f 307 1200 1202
f 1200 306 1201
f 1201 310 1202
f 1200 1201 1202
f 303 1203 1204
f 1203 309 1139
f 1139 305 1204
f 1203 1139 1204
f 4 339 322
f 339 2 319
f 319 1 322
f 339 319 322
f 4 324 332
f 324 5 342
f 342 8 332
f 324 342 332
f 6 327 338
f 327 8 1205
f 1205 2 338
f 327 1205 338
f 8 330 1205
f 330 10 369
f 369 2 1205
f 330 369 1205
f 1207 312 1206
f 333 1207 1206
f 366 20 365
f 340 366 365
f 9 345 329
f 345 3 368
f 368 10 329
f 345 368 329
f 1211 314 1210
f 343 1211 1210
f 1213 315 1212
f 348 1213 1212
f 1209 313 1208
f 337 1209 1208
f 16 353 1216
f 353 9 367
f 367 18 1216
f 353 367 1216
f 17 355 359
f 355 15 356
f 356 7 359
f 355 356 359
f 1215 316 1214
f 350 1215 1214
f 18 358 1216
f 358 12 364
f 364 16 1216
f 358 364 1216
f 1218 317 1217
f 361 1218 1217
f 1220 318 1219
f 362 1220 1219
f 21 372 1222
f 372 23 1221
f 1221 29 1222
f 372 1221 1222
f 24 375 585
f 375 26 382
f 382 32 585
f 375 382 585
f 22 378 371
f 378 28 1223
f 1223 23 371
f 378 1223 371
f 29 381 1222
f 381 31 1224
f 1224 21 1222
f 381 1224 1222
f 32 384 580
f 384 33 593
f 593 99 580
f 384 593 580
f 25 386 588
f 386 34 596
f 596 100 588
f 386 596 588
f 23 389 1221
f 389 36 396
f 396 29 1221
f 389 396 1221
f 22 392 376
f 392 38 474
f 474 27 376
f 392 474 376
f 21 395 370
f 395 37 390
f 390 22 370
f 395 390 370
f 29 398 379
f 398 40 477
f 477 30 379
f 398 477 379
f 41 401 430
f 401 43 408
f 408 49 430
f 401 408 430
f 44 404 433
f 404 46 411
f 411 51 433
f 404 411 433
f 47 407 427
f 407 45 402
f 402 44 427
f 407 402 427
f 49 410 424
f 410 50 420
f 420 56 424
f 410 420 424
f 51 413 442
f 413 52 414
f 414 53 442
f 413 414 442
f 53 416 445
f 416 42 399
f 399 41 445
f 416 399 445
f 54 419 436
f 419 48 405
f 405 47 436
f 419 405 436
f 56 422 439
f 422 55 417
f 417 54 439
f 422 417 439
f 57 425 484
f 425 56 438
f 438 62 484
f 425 438 484
f 58 428 487
f 428 44 432
f 432 60 487
f 428 432 487
f 59 431 490
f 431 49 423
f 423 57 490
f 431 423 490
f 60 434 493
f 434 51 441
f 441 63 493
f 434 441 493
f 61 437 535
f 437 47 426
f 426 58 535
f 437 426 535
f 62 440 532
f 440 54 435
f 435 61 532
f 440 435 532
f 63 443 538
f 443 53 444
f 444 64 538
f 443 444 538
f 64 446 541
f 446 41 429
f 429 59 541
f 446 429 541
f 35 449 388
f 449 66 450
f 450 36 388
f 449 450 388
f 36 452 397
f 452 67 513
f 513 40 397
f 452 513 397
f 39 455 394
f 455 69 456
f 456 37 394
f 455 456 394
f 37 458 391
f 458 70 507
f 507 38 391
f 458 507 391
f 69 461 457
f 461 72 495
f 495 70 457
f 461 495 457
f 65 464 448
f 464 74 468
f 468 66 448
f 464 468 448
f 68 467 454
f 467 71 459
f 459 69 454
f 467 459 454
f 66 470 451
f 470 76 501
f 501 67 451
f 470 501 451
f 28 473 1223
f 473 35 387
f 387 23 1223
f 473 387 1223
f 27 476 377
f 476 77 471
f 471 28 377
f 476 471 377
f 30 479 380
f 479 78 480
f 480 31 380
f 479 480 380
f 31 482 1224
f 482 39 393
f 393 21 1224
f 482 393 1224
f 79 485 520
f 485 62 531
f 531 87 520
f 485 531 520
f 80 488 523
f 488 60 492
f 492 82 523
f 488 492 523
f 81 491 529
f 491 57 483
f 483 79 529
f 491 483 529
f 82 494 526
f 494 63 537
f 537 88 526
f 494 537 526
f 70 497 508
f 497 83 498
f 498 84 508
f 497 498 508
f 84 500 511
f 500 73 462
f 462 65 511
f 500 462 511
f 67 503 514
f 503 85 504
f 504 86 514
f 503 504 514
f 86 506 517
f 506 75 465
f 465 68 517
f 506 465 517
f 38 509 475
f 509 84 510
f 510 77 475
f 509 510 475
f 77 512 472
f 512 65 447
f 447 35 472
f 512 447 472
f 40 515 478
f 515 86 516
f 516 78 478
f 515 516 478
f 78 518 481
f 518 68 453
f 453 39 481
f 518 453 481
f 74 521 469
f 521 87 546
f 546 76 469
f 521 546 469
f 75 524 466
f 524 82 525
f 525 71 466
f 524 525 466
f 71 527 460
f 527 88 552
f 552 72 460
f 527 552 460
f 73 530 463
f 530 79 519
f 519 74 463
f 530 519 463
f 87 533 547
f 533 61 534
f 534 89 547
f 533 534 547
f 89 536 544
f 536 58 486
f 486 80 544
f 536 486 544
f 88 539 553
f 539 64 540
f 540 90 553
f 539 540 553
f 90 542 550
f 542 59 489
f 489 81 550
f 542 489 550
f 85 545 505
f 545 80 522
f 522 75 505
f 545 522 505
f 76 548 502
f 548 89 543
f 543 85 502
f 548 543 502
f 83 551 499
f 551 81 528
f 528 73 499
f 551 528 499
f 72 554 496
f 554 90 549
f 549 83 496
f 554 549 496
f 42 557 400
f 557 92 561
f 561 43 400
f 557 561 400
f 45 560 403
f 560 94 567
f 567 46 403
f 560 567 403
f 43 563 409
f 563 95 573
f 573 50 409
f 563 573 409
f 48 566 406
f 566 93 558
f 558 45 406
f 566 558 406
f 46 569 412
f 569 97 570
f 570 52 412
f 569 570 412
f 52 572 415
f 572 91 555
f 555 42 415
f 572 555 415
f 50 575 421
f 575 98 576
f 576 55 421
f 575 576 421
f 55 578 418
f 578 96 564
f 564 48 418
f 578 564 418
f 93 581 559
f 581 99 592
f 592 94 559
f 581 592 559
f 91 583 556
f 583 25 587
f 587 92 556
f 583 587 556
f 96 586 565
f 586 32 579
f 579 93 565
f 586 579 565
f 92 589 562
f 589 100 595
f 595 95 562
f 589 595 562
f 97 591 571
f 591 26 582
f 582 91 571
f 591 582 571
f 94 594 568
f 594 33 590
f 590 97 568
f 594 590 568
f 95 597 574
f 597 34 598
f 598 98 574
f 597 598 574
f 98 599 577
f 599 24 584
f 584 96 577
f 599 584 577
f 101 602 1169
f 602 103 609
f 609 109 1169
f 602 609 1169
f 104 605 1163
f 605 106 690
f 690 169 1163
f 605 690 1163
f 107 608 1042
f 608 105 603
f 603 104 1042
f 608 603 1042
f 109 611 1065
f 611 110 762
f 762 202 1065
f 611 762 1065
f 111 614 1122
f 614 102 600
f 600 101 1122
f 614 600 1122
f 113 617 1186
f 617 115 636
f 636 132 1186
f 617 636 1186
f 116 620 942
f 620 118 657
f 657 147 942
f 620 657 942
f 119 623 965
f 623 121 738
f 738 190 965
f 623 738 965
f 122 626 940
f 626 124 714
f 714 182 940
f 626 714 940
f 125 629 968
f 629 127 630
f 630 128 968
f 629 630 968
f 128 632 983
f 632 123 624
f 624 122 983
f 632 624 983
f 129 635 1189
f 635 131 639
f 639 134 1189
f 635 639 1189
f 132 638 1225
f 638 133 660
f 660 148 1225
f 638 660 1225
f 134 641 1226
f 641 117 618
f 618 116 1226
f 641 618 1226
f 135 644 846
f 644 137 651
f 651 143 846
f 644 651 846
f 138 647 867
f 647 140 699
f 699 174 867
f 647 699 867
f 141 650 861
f 650 139 645
f 645 138 861
f 650 645 861
f 143 653 858
f 653 144 720
f 720 186 858
f 653 720 858
f 145 656 1188
f 656 130 633
f 633 129 1188
f 656 633 1188
f 147 659 1185
f 659 114 615
f 615 113 1185
f 659 615 1185
f 148 662 1227
f 662 146 654
f 654 145 1227
f 662 654 1227
f 149 665 884
f 665 151 873
f 873 245 884
f 665 873 884
f 150 668 664
f 668 153 1228
f 1228 151 664
f 668 1228 664
f 154 671 876
f 671 156 892
f 892 246 876
f 671 892 876
f 157 674 1229
f 674 155 669
f 669 154 1229
f 674 669 1229
f 137 677 652
f 677 160 735
f 735 144 652
f 677 735 652
f 136 680 643
f 680 159 675
f 675 137 643
f 680 675 643
f 115 683 637
f 683 163 771
f 771 133 637
f 683 771 637
f 164 686 1113
f 686 166 753
f 753 199 1113
f 686 753 1113
f 167 689 1125
f 689 112 612
f 612 111 1125
f 689 612 1125
f 169 692 1119
f 692 165 684
f 684 164 1119
f 692 684 1119
f 131 695 640
f 695 171 783
f 783 117 640
f 695 783 640
f 172 698 926
f 698 136 642
f 642 135 926
f 698 642 926
f 174 701 920
f 701 173 696
f 696 172 920
f 701 696 920
f 175 704 917
f 704 142 648
f 648 141 917
f 704 648 917
f 139 707 646
f 707 178 726
f 726 140 646
f 707 726 646
f 142 710 649
f 710 177 705
f 705 139 649
f 710 705 649
f 180 713 937
f 713 126 627
f 627 125 937
f 713 627 937
f 182 716 905
f 716 183 780
f 780 207 905
f 716 780 905
f 184 719 949
f 719 181 711
f 711 180 949
f 719 711 949
f 186 722 923
f 722 176 702
f 702 175 923
f 722 702 923
f 114 725 616
f 725 162 681
f 681 115 616
f 725 681 616
f 140 728 700
f 728 188 729
f 729 173 700
f 728 729 700
f 173 731 697
f 731 161 678
f 678 136 697
f 731 678 697
f 176 734 703
f 734 179 708
f 708 142 703
f 734 708 703
f 144 737 721
f 737 189 732
f 732 176 721
f 737 732 721
f 190 740 911
f 740 191 789
f 789 211 911
f 740 789 911
f 130 743 634
f 743 170 693
f 693 131 634
f 743 693 634
f 118 746 658
f 746 187 723
f 723 114 658
f 746 723 658
f 194 749 1172
f 749 168 687
f 687 167 1172
f 749 687 1172
f 196 752 1045
f 752 198 768
f 768 203 1045
f 752 768 1045
f 199 755 1155
f 755 197 750
f 750 196 1155
f 755 750 1155
f 200 758 1050
f 758 195 747
f 747 194 1050
f 758 747 1050
f 154 761 1230
f 761 108 606
f 606 107 1230
f 761 606 1230
f 202 764 875
f 764 150 759
f 759 154 875
f 764 759 875
f 155 767 1231
f 767 201 756
f 756 200 1231
f 767 756 1231
f 203 770 808
f 770 151 765
f 765 155 808
f 770 765 808
f 133 773 661
f 773 204 774
f 774 146 661
f 773 774 661
f 146 776 655
f 776 192 741
f 741 130 655
f 776 741 655
f 205 779 980
f 779 185 717
f 717 184 980
f 779 717 980
f 207 782 977
f 782 206 777
f 777 205 977
f 782 777 977
f 117 785 619
f 785 193 744
f 744 118 619
f 785 744 619
f 208 788 908
f 788 210 792
f 792 213 908
f 788 792 908
f 211 791 843
f 791 212 798
f 798 217 843
f 791 798 843
f 213 794 881
f 794 214 801
f 801 218 881
f 794 801 881
f 215 797 914
f 797 209 786
f 786 208 914
f 797 786 914
f 217 800 956
f 800 216 795
f 795 215 956
f 800 795 956
f 218 803 959
f 803 120 621
f 621 119 959
f 803 621 959
f 192 806 742
f 806 220 815
f 815 170 742
f 806 815 742
f 155 1231 670
f 1231 200 1049
f 1049 156 670
f 1231 1049 670
f 210 811 793
f 811 222 830
f 830 214 793
f 811 830 793
f 187 814 724
f 814 224 818
f 818 162 724
f 814 818 724
f 170 817 694
f 817 225 824
f 824 171 694
f 817 824 694
f 162 820 682
f 820 226 854
f 854 163 682
f 820 854 682
f 209 823 787
f 823 221 809
f 809 210 787
f 823 809 787
f 171 826 784
f 826 228 827
f 827 193 784
f 826 827 784
f 193 829 745
f 829 223 812
f 812 187 745
f 829 812 745
f 214 832 802
f 832 229 895
f 895 120 802
f 832 895 802
f 212 835 799
f 835 231 898
f 898 216 799
f 835 898 799
f 181 838 712
f 838 233 952
f 952 126 712
f 838 952 712
f 123 841 625
f 841 235 877
f 877 124 625
f 841 877 625
f 236 844 971
f 844 217 955
f 955 266 971
f 844 955 971
f 237 847 1180
f 847 143 857
f 857 241 1180
f 847 857 1180
f 191 850 790
f 850 230 833
f 833 212 790
f 850 833 790
f 121 853 739
f 853 238 848
f 848 191 739
f 853 848 739
f 163 856 772
f 856 240 869
f 869 204 772
f 856 869 772
f 241 859 1232
f 859 186 922
f 922 261 1232
f 859 922 1232
f 242 862 1183
f 862 138 866
f 866 244 1183
f 862 866 1183
f 185 865 718
f 865 232 836
f 836 181 718
f 865 836 718
f 244 868 1233
f 868 174 919
f 919 260 1233
f 868 919 1233
f 204 871 775
f 871 219 804
f 804 192 775
f 871 804 775
f 151 1228 766
f 1228 153 1029
f 1029 201 766
f 1228 1029 766
f 154 1230 1229
f 1230 107 1041
f 1041 157 1229
f 1230 1041 1229
f 124 879 715
f 879 247 945
f 945 183 715
f 879 945 715
f 248 882 994
f 882 218 958
f 958 267 994
f 882 958 994
f 249 885 1134
f 885 245 1027
f 1027 289 1134
f 885 1027 1134
f 152 888 667
f 888 251 1030
f 1030 153 667
f 888 1030 667
f 252 891 1234
f 891 158 672
f 672 157 1234
f 891 672 1234
f 246 894 1235
f 894 254 1136
f 1136 293 1235
f 894 1136 1235
f 120 897 622
f 897 239 851
f 851 121 622
f 897 851 622
f 216 900 796
f 900 227 821
f 821 209 796
f 900 821 796
f 127 903 631
f 903 234 839
f 839 123 631
f 903 839 631
f 256 906 1009
f 906 207 976
f 976 274 1009
f 906 976 1009
f 257 909 974
f 909 213 880
f 880 248 974
f 909 880 974
f 258 912 1015
f 912 211 842
f 842 236 1015
f 912 842 1015
f 259 915 1068
f 915 208 907
f 907 257 1068
f 915 907 1068
f 150 918 1182
f 918 141 860
f 860 242 1182
f 918 860 1182
f 260 921 930
f 921 172 925
f 925 151 930
f 921 925 930
f 261 924 1236
f 924 175 916
f 916 150 1236
f 924 916 1236
f 151 927 1179
f 927 135 845
f 845 237 1179
f 927 845 1179
f 178 929 727
f 929 160 1176
f 1176 188 727
f 929 1176 727
f 260 932 1237
f 932 261 1236
f 1236 150 1237
f 932 1236 1237
f 206 935 778
f 935 243 863
f 863 185 778
f 935 863 778
f 263 938 1003
f 938 125 967
f 967 271 1003
f 938 967 1003
f 264 941 1006
f 941 182 904
f 904 256 1006
f 941 904 1006
f 116 944 1238
f 944 148 1227
f 1227 145 1238
f 944 1227 1238
f 183 947 781
f 947 262 933
f 933 206 781
f 947 933 781
f 265 950 1024
f 950 180 936
f 936 263 1024
f 950 936 1024
f 150 663 760
f 663 149 988
f 988 108 760
f 663 988 760
f 126 954 628
f 954 255 901
f 901 127 628
f 954 901 628
f 266 957 1071
f 957 215 913
f 913 259 1071
f 957 913 1071
f 267 960 1098
f 960 119 964
f 964 270 1098
f 960 964 1098
f 239 963 852
f 963 269 996
f 996 238 852
f 963 996 852
f 270 966 1074
f 966 190 910
f 910 258 1074
f 966 910 1074
f 271 969 1101
f 969 128 982
f 982 276 1101
f 969 982 1101
f 272 972 1062
f 972 266 1070
f 1070 292 1062
f 972 1070 1062
f 273 975 1059
f 975 248 993
f 993 280 1059
f 975 993 1059
f 274 978 1080
f 978 205 979
f 979 275 1080
f 978 979 1080
f 275 981 1083
f 981 184 948
f 948 265 1083
f 981 948 1083
f 276 984 1089
f 984 122 939
f 939 264 1089
f 984 939 1089
f 227 987 822
f 987 278 990
f 990 221 822
f 987 990 822
f 108 989 607
f 989 249 1174
f 1174 105 607
f 989 1174 607
f 221 992 810
f 992 279 1032
f 1032 222 810
f 992 1032 810
f 280 995 1077
f 995 267 1097
f 1097 296 1077
f 995 1097 1077
f 238 998 849
f 998 281 1038
f 1038 230 849
f 998 1038 849
f 232 1001 837
f 1001 283 1103
f 1103 233 837
f 1001 1103 837
f 224 1004 819
f 1004 271 1100
f 1100 226 819
f 1004 1100 819
f 219 1007 805
f 1007 256 1008
f 1008 220 805
f 1007 1008 805
f 220 1010 816
f 1010 274 1079
f 1079 225 816
f 1010 1079 816
f 243 1013 864
f 1013 282 999
f 999 232 864
f 1013 999 864
f 285 1016 1056
f 1016 236 970
f 970 272 1056
f 1016 970 1056
f 235 1019 878
f 1019 287 1094
f 1094 247 878
f 1019 1094 878
f 234 1022 840
f 1022 286 1017
f 1017 235 840
f 1022 1017 840
f 223 1025 813
f 1025 263 1002
f 1002 224 813
f 1025 1002 813
f 197 1028 751
f 1028 245 872
f 872 198 751
f 1028 872 751
f 201 1031 757
f 1031 251 1165
f 1165 195 757
f 1031 1165 757
f 222 1034 831
f 1034 290 1052
f 1052 229 831
f 1034 1052 831
f 231 1037 899
f 1037 277 985
f 985 227 899
f 1037 985 899
f 230 1040 834
f 1040 291 1035
f 1035 231 834
f 1040 1035 834
f 157 1043 1234
f 1043 104 1162
f 1162 252 1234
f 1043 1162 1234
f 253 1046 890
f 1046 203 807
f 807 158 890
f 1046 807 890
f 103 1048 610
f 1048 152 951
f 951 110 610
f 1048 951 610
f 156 1051 893
f 1051 194 1171
f 1171 254 893
f 1051 1171 893
f 229 1054 896
f 1054 268 961
f 961 239 896
f 1054 961 896
f 288 1057 1021
f 1057 272 1061
f 1061 286 1021
f 1057 1061 1021
f 284 1060 1012
f 1060 280 1076
f 1076 282 1012
f 1060 1076 1012
f 286 1063 1018
f 1063 292 1142
f 1142 287 1018
f 1063 1142 1018
f 293 1066 1235
f 1066 202 874
f 874 246 1235
f 1066 874 1235
f 294 1069 1146
f 1069 257 973
f 973 273 1146
f 1069 973 1146
f 292 1072 1143
f 1072 259 1067
f 1067 294 1143
f 1072 1067 1143
f 295 1075 1149
f 1075 258 1014
f 1014 285 1149
f 1075 1014 1149
f 282 1078 1000
f 1078 296 1151
f 1151 283 1000
f 1078 1151 1000
f 225 1081 825
f 1081 275 1082
f 1082 228 825
f 1081 1082 825
f 228 1084 828
f 1084 265 1023
f 1023 223 828
f 1084 1023 828
f 262 1087 934
f 1087 284 1011
f 1011 243 934
f 1087 1011 934
f 240 1090 870
f 1090 264 1005
f 1005 219 870
f 1090 1005 870
f 255 1093 902
f 1093 288 1020
f 1020 234 902
f 1093 1020 902
f 247 1096 946
f 1096 297 1085
f 1085 262 946
f 1096 1085 946
f 296 1099 1152
f 1099 270 1073
f 1073 295 1152
f 1099 1073 1152
f 226 1102 855
f 1102 276 1088
f 1088 240 855
f 1102 1088 855
f 233 1105 953
f 1105 298 1091
f 1091 255 953
f 1105 1091 953
f 112 1108 613
f 1108 300 1157
f 1157 102 613
f 1108 1157 613
f 106 1111 691
f 1111 302 1115
f 1115 165 691
f 1111 1115 691
f 303 1114 1203
f 1114 199 1154
f 1154 309 1203
f 1114 1154 1203
f 165 1117 685
f 1117 304 1159
f 1159 166 685
f 1117 1159 685
f 305 1120 1204
f 1120 164 1112
f 1112 303 1204
f 1120 1112 1204
f 306 1123 1201
f 1123 101 1168
f 1168 310 1201
f 1123 1168 1201
f 307 1126 1200
f 1126 111 1121
f 1121 306 1200
f 1126 1121 1200
f 168 1129 688
f 1129 299 1106
f 1106 112 688
f 1129 1106 688
f 250 1132 887
f 1132 308 1166
f 1166 251 887
f 1132 1166 887
f 301 1135 1199
f 1135 289 1160
f 1160 304 1199
f 1135 1160 1199
f 293 1138 1239
f 1138 307 1202
f 1202 310 1239
f 1138 1202 1239
f 305 1141 1240
f 1141 253 889
f 889 252 1240
f 1141 889 1240
f 287 1144 1095
f 1144 294 1145
f 1145 297 1095
f 1144 1145 1095
f 297 1147 1086
f 1147 273 1058
f 1058 284 1086
f 1147 1058 1086
f 298 1150 1092
f 1150 285 1055
f 1055 288 1092
f 1150 1055 1092
f 283 1153 1104
f 1153 295 1148
f 1148 298 1104
f 1153 1148 1104
f 309 1156 1140
f 1156 196 1044
f 1044 253 1140
f 1156 1044 1140
f 102 1158 601
f 1158 250 1047
f 1047 103 601
f 1158 1047 601
f 166 1161 754
f 1161 289 1026
f 1026 197 754
f 1161 1026 754
f 252 1164 1240
f 1164 169 1118
f 1118 305 1240
f 1164 1118 1240
f 195 1167 748
f 1167 308 1127
f 1127 168 748
f 1167 1127 748
f 310 1170 1239
f 1170 109 1064
f 1064 293 1239
f 1170 1064 1239
f 254 1173 1137
f 1173 167 1124
f 1124 307 1137
f 1173 1124 1137
f 105 1175 604
f 1175 301 1109
f 1109 106 604
f 1175 1109 604
f 188 1177 730
f 1177 159 679
f 679 161 730
f 1177 679 730
f 189 1178 733
f 1178 177 709
f 709 179 733
f 1178 709 733
f 151 1181 931
f 1181 241 1232
f 1232 261 931
f 1181 1232 931
f 150 1184 1237
f 1184 244 1233
f 1233 260 1237
f 1184 1233 1237
f 147 1187 943
f 1187 132 1225
f 1225 148 943
f 1187 1225 943
f 145 1190 1238
f 1190 134 1226
f 1226 116 1238
f 1190 1226 1238
