# After flipping: m624.obj
# Applied moment test for consistent orientation
# All moment test values forced positive
# Generated on 2025-10-13 13:54:53

v -0.556654 0.037563 0.036538
v -0.485565 0.020634 0.036538
v -0.556654 0.037563 -0.036538
v -0.485565 0.020633 -0.036538
v -0.539725 0.108652 -0.036538
v -0.539725 0.108652 0.036538
v -0.468636 0.091723 0.036538
v -0.468636 0.091723 -0.036538
v -0.481333 0.038406 0.018269
v 0.371735 -0.164743 0.018269
v -0.481333 0.038406 -0.018269
v 0.371735 -0.164743 -0.018269
v -0.472868 0.073951 -0.018269
v -0.472868 0.073951 0.018269
v 0.380199 -0.129198 0.018269
v 0.380199 -0.129198 -0.018269
v 0.335769 -0.118617 0.009135
v 0.353541 -0.122849 0.009135
v 0.335769 -0.118617 -0.009135
v 0.353541 -0.122849 -0.009135
v 0.369627 0.023561 -0.009135
v 0.369627 0.023561 0.009135
v 0.387399 0.019329 0.009135
v 0.387399 0.019329 -0.009135
v 0.413214 0.088301 -0.073077
v 0.423165 0.130086 -0.059120
v 0.377669 0.096765 -0.073077
v 0.387620 0.138551 -0.059120
v 0.377669 0.096765 -0.000000
v 0.413214 0.088301 -0.000000
v 0.429315 0.155911 -0.022582
v 0.393770 0.164376 -0.022582
v 0.429315 0.155911 0.022582
v 0.393770 0.164376 0.022582
v 0.423165 0.130086 0.059121
v 0.387620 0.138551 0.059121
v 0.413214 0.088301 0.073077
v 0.377669 0.096765 0.073077
v 0.403264 0.046516 0.059121
v 0.367719 0.054981 0.059121
v 0.397114 0.020691 0.022582
v 0.361569 0.029156 0.022582
v 0.397114 0.020691 -0.022582
v 0.361569 0.029156 -0.022582
v 0.403264 0.046516 -0.059120
v 0.367719 0.054981 -0.059120
v -0.521110 0.029098 0.036538
v -0.521110 0.029098 -0.000000
v -0.556654 0.037563 -0.000000
v -0.485565 0.020634 -0.000000
v -0.521110 0.029098 -0.036538
v -0.548190 0.073107 -0.000000
v -0.539725 0.108652 -0.000000
v -0.548190 0.073107 0.036538
v -0.548190 0.073107 -0.036538
v -0.512645 0.064643 0.036538
v -0.504181 0.100187 0.036538
v -0.477101 0.056178 0.036538
v -0.468636 0.091723 -0.000000
v -0.477101 0.056178 -0.000000
v -0.477101 0.056178 -0.036538
v -0.512645 0.064643 -0.036538
v -0.504181 0.100187 -0.036538
v -0.504181 0.100187 -0.000000
v -0.054799 -0.063169 0.018269
v -0.054799 -0.063169 0.000000
v -0.481333 0.038406 -0.000000
v 0.371735 -0.164743 0.000000
v -0.054799 -0.063169 -0.018269
v -0.477101 0.056178 -0.000000
v -0.472868 0.073951 -0.000000
v -0.477101 0.056178 0.018269
v -0.477101 0.056178 -0.018269
v -0.050567 -0.045396 0.018269
v -0.046334 -0.027624 0.018269
v 0.375967 -0.146970 0.018269
v 0.380199 -0.129198 -0.000000
v 0.375967 -0.146970 0.000000
v 0.375967 -0.146970 -0.018269
v -0.050567 -0.045396 -0.018269
v -0.046334 -0.027624 -0.018269
v -0.046334 -0.027624 -0.000000
v 0.344655 -0.120733 0.009135
v 0.344655 -0.120733 -0.000000
v 0.335769 -0.118617 -0.000000
v 0.353541 -0.122849 -0.000000
v 0.344655 -0.120733 -0.009135
v 0.352698 -0.047528 -0.000000
v 0.369627 0.023561 -0.000000
v 0.352698 -0.047528 0.009135
v 0.352698 -0.047528 -0.009135
v 0.361584 -0.049644 0.009135
v 0.378513 0.021445 0.009135
v 0.370470 -0.051760 0.009135
v 0.387399 0.019329 -0.000000
v 0.370470 -0.051760 -0.000000
v 0.370470 -0.051760 -0.009135
v 0.361584 -0.049644 -0.009135
v 0.378513 0.021445 -0.009135
v 0.378513 0.021445 -0.000000
v 0.418190 0.109193 -0.066099
v 0.400417 0.113426 -0.066099
v 0.395442 0.092533 -0.073077
v 0.405393 0.134318 -0.059120
v 0.382645 0.117658 -0.066099
v 0.377669 0.096765 -0.036539
v 0.382645 0.117658 -0.029560
v 0.418190 0.109193 -0.029560
v 0.413214 0.088301 -0.036539
v 0.426240 0.142999 -0.040851
v 0.408467 0.147231 -0.040851
v 0.411542 0.160143 -0.022582
v 0.390695 0.151463 -0.040851
v 0.385720 0.130570 -0.011291
v 0.421265 0.122106 -0.011291
v 0.429315 0.155911 -0.000000
v 0.411542 0.160143 -0.000000
v 0.411542 0.160143 0.022582
v 0.393770 0.164376 -0.000000
v 0.385720 0.130571 0.011291
v 0.421265 0.122106 0.011291
v 0.426240 0.142999 0.040851
v 0.408468 0.147231 0.040851
v 0.405393 0.134319 0.059121
v 0.390695 0.151463 0.040851
v 0.382645 0.117658 0.029560
v 0.418190 0.109193 0.029560
v 0.418190 0.109193 0.066099
v 0.400417 0.113426 0.066099
v 0.395442 0.092533 0.073077
v 0.382645 0.117658 0.066099
v 0.377669 0.096765 0.036538
v 0.413214 0.088301 0.036538
v 0.408239 0.067408 0.066099
v 0.390467 0.071641 0.066099
v 0.385491 0.050749 0.059121
v 0.372694 0.075873 0.066099
v 0.372694 0.075873 0.029560
v 0.408239 0.067408 0.029560
v 0.400189 0.033604 0.040851
v 0.382416 0.037836 0.040851
v 0.379341 0.024924 0.022582
v 0.364644 0.042068 0.040851
v 0.369619 0.062961 0.011291
v 0.405164 0.054496 0.011291
v 0.397114 0.020691 -0.000000
v 0.379341 0.024924 -0.000000
v 0.379341 0.024924 -0.022582
v 0.361569 0.029156 -0.000000
v 0.369619 0.062961 -0.011291
v 0.405164 0.054496 -0.011291
v 0.400189 0.033604 -0.040851
v 0.382416 0.037836 -0.040851
v 0.385491 0.050748 -0.059120
v 0.364644 0.042068 -0.040851
v 0.372694 0.075873 -0.029560
v 0.408239 0.067408 -0.029560
v 0.408239 0.067408 -0.066099
v 0.390467 0.071641 -0.066099
v 0.372694 0.075873 -0.066099
v -0.538882 0.033330 0.036538
v -0.538882 0.033330 0.018269
v -0.556654 0.037563 0.018269
v -0.503337 0.024866 0.036538
v -0.503337 0.024866 0.018269
v -0.521110 0.029098 0.018269
v -0.538882 0.033330 -0.018269
v -0.556654 0.037563 -0.018269
v -0.538882 0.033330 -0.000000
v -0.521110 0.029098 -0.018269
v -0.538882 0.033330 -0.036538
v -0.485565 0.020634 0.018269
v -0.503337 0.024866 -0.000000
v -0.485565 0.020634 -0.018269
v -0.503338 0.024866 -0.036538
v -0.503337 0.024866 -0.018269
v -0.552422 0.055335 0.018269
v -0.548190 0.073107 0.018269
v -0.552422 0.055335 0.036538
v -0.543958 0.090879 -0.018269
v -0.539725 0.108652 -0.018269
v -0.543958 0.090879 -0.000000
v -0.539725 0.108652 0.018269
v -0.543958 0.090879 0.036538
v -0.543958 0.090879 0.018269
v -0.552422 0.055335 -0.000000
v -0.552422 0.055335 -0.036538
v -0.552422 0.055335 -0.018269
v -0.543958 0.090879 -0.036538
v -0.548190 0.073107 -0.018269
v -0.534650 0.051103 0.036538
v -0.526185 0.086647 0.036538
v -0.530418 0.068875 0.036538
v -0.499105 0.042638 0.036538
v -0.516877 0.046870 0.036538
v -0.494873 0.060410 0.036538
v -0.481333 0.038406 0.036538
v -0.521953 0.104419 0.036538
v -0.508413 0.082415 0.036538
v -0.486408 0.095955 0.036538
v -0.472868 0.073950 0.036538
v -0.490641 0.078183 0.036538
v -0.477101 0.056178 0.018269
v -0.481333 0.038406 0.018269
v -0.468636 0.091723 0.018269
v -0.472868 0.073950 0.018269
v -0.468636 0.091723 -0.018269
v -0.472868 0.073950 -0.018269
v -0.472868 0.073950 -0.000000
v -0.481333 0.038406 -0.000000
v -0.472868 0.073950 -0.036538
v -0.477101 0.056178 -0.018269
v -0.481333 0.038406 -0.036538
v -0.481333 0.038406 -0.018269
v -0.534650 0.051103 -0.036538
v -0.530418 0.068875 -0.036538
v -0.490641 0.078183 -0.036538
v -0.486408 0.095955 -0.036538
v -0.508413 0.082415 -0.036538
v -0.521953 0.104419 -0.036538
v -0.526185 0.086647 -0.036538
v -0.516878 0.046870 -0.036538
v -0.499105 0.042638 -0.036538
v -0.494873 0.060410 -0.036538
v -0.521953 0.104419 -0.018269
v -0.521953 0.104419 -0.000000
v -0.486408 0.095955 0.018269
v -0.504181 0.100187 0.018269
v -0.521953 0.104419 0.018269
v -0.504181 0.100187 -0.018269
v -0.486408 0.095955 -0.018269
v -0.486408 0.095955 -0.000000
v -0.268066 -0.012382 0.018269
v -0.268066 -0.012382 0.009134
v -0.481333 0.038406 0.009134
v 0.158468 -0.113956 0.018269
v 0.158468 -0.113956 0.009135
v -0.054799 -0.063169 0.009135
v -0.268066 -0.012382 -0.009135
v -0.481333 0.038406 -0.009135
v -0.268066 -0.012382 -0.000000
v -0.054799 -0.063169 -0.009134
v -0.268066 -0.012382 -0.018269
v 0.371735 -0.164743 0.009135
v 0.158468 -0.113956 0.000000
v 0.371735 -0.164743 -0.009134
v 0.158468 -0.113956 -0.018269
v 0.158468 -0.113956 -0.009134
v -0.479217 0.047292 0.009134
v -0.477101 0.056178 0.009134
v -0.479217 0.047292 0.018269
v -0.474985 0.065064 -0.009135
v -0.472868 0.073951 -0.009135
v -0.474985 0.065064 -0.000000
v -0.472868 0.073951 0.009134
v -0.474985 0.065064 0.018269
v -0.474985 0.065064 0.009134
v -0.479217 0.047292 -0.000000
v -0.479217 0.047292 -0.018269
v -0.479217 0.047292 -0.009135
v -0.474985 0.065064 -0.018269
v -0.477101 0.056178 -0.009135
v -0.265950 -0.003495 0.018269
v -0.261718 0.014277 0.018269
v -0.263834 0.005391 0.018269
v 0.160584 -0.105069 0.018269
v -0.052683 -0.054282 0.018269
v 0.162700 -0.096183 0.018269
v 0.373851 -0.155856 0.018269
v -0.259601 0.023163 0.018269
v -0.048451 -0.036510 0.018269
v 0.166933 -0.078411 0.018269
v 0.378083 -0.138084 0.018269
v 0.164816 -0.087297 0.018269
v 0.375967 -0.146970 0.009135
v 0.373851 -0.155857 0.009135
v 0.380199 -0.129198 0.009134
v 0.378083 -0.138084 0.009135
v 0.380199 -0.129198 -0.009135
v 0.378083 -0.138084 -0.009135
v 0.378083 -0.138084 -0.000000
v 0.373851 -0.155857 0.000000
v 0.378083 -0.138084 -0.018269
v 0.375967 -0.146970 -0.009134
v 0.373851 -0.155857 -0.018269
v 0.373851 -0.155857 -0.009134
v -0.265950 -0.003495 -0.018269
v -0.263834 0.005391 -0.018269
v 0.164816 -0.087297 -0.018269
v 0.166932 -0.078411 -0.018269
v -0.048451 -0.036510 -0.018269
v -0.259601 0.023163 -0.018269
v -0.261718 0.014277 -0.018269
v -0.052683 -0.054282 -0.018269
v 0.160584 -0.105069 -0.018269
v 0.162700 -0.096183 -0.018269
v -0.259601 0.023163 -0.009135
v -0.259601 0.023163 -0.000000
v 0.166933 -0.078411 0.009134
v -0.046334 -0.027624 0.009134
v -0.259601 0.023163 0.009134
v -0.046334 -0.027624 -0.009135
v 0.166932 -0.078411 -0.009135
v 0.166932 -0.078411 -0.000000
v 0.340212 -0.119675 0.009135
v 0.340212 -0.119675 0.004567
v 0.335769 -0.118617 0.004567
v 0.349098 -0.121791 0.009135
v 0.349098 -0.121791 0.004567
v 0.344655 -0.120733 0.004567
v 0.340212 -0.119675 -0.004568
v 0.335769 -0.118617 -0.004568
v 0.340212 -0.119675 -0.000000
v 0.344655 -0.120733 -0.004568
v 0.340212 -0.119675 -0.009135
v 0.353541 -0.122849 0.004567
v 0.349098 -0.121791 -0.000000
v 0.353541 -0.122849 -0.004568
v 0.349098 -0.121791 -0.009135
v 0.349098 -0.121791 -0.004568
v 0.344233 -0.083073 0.004567
v 0.352698 -0.047528 0.004567
v 0.344233 -0.083073 0.009135
v 0.361162 -0.011984 -0.004568
v 0.369627 0.023561 -0.004568
v 0.361162 -0.011984 -0.000000
v 0.369627 0.023561 0.004567
v 0.361162 -0.011984 0.009135
v 0.361162 -0.011984 0.004567
v 0.344233 -0.083073 -0.000000
v 0.344233 -0.083073 -0.009135
v 0.344233 -0.083073 -0.004568
v 0.361162 -0.011984 -0.009135
v 0.352698 -0.047528 -0.004568
v 0.348676 -0.084131 0.009135
v 0.365605 -0.013042 0.009135
v 0.357141 -0.048586 0.009135
v 0.357562 -0.086247 0.009135
v 0.353119 -0.085189 0.009135
v 0.366027 -0.050702 0.009135
v 0.362005 -0.087305 0.009135
v 0.374070 0.022503 0.009135
v 0.370048 -0.014100 0.009135
v 0.382956 0.020387 0.009135
v 0.378934 -0.016216 0.009135
v 0.374491 -0.015158 0.009135
v 0.370470 -0.051760 0.004567
v 0.362005 -0.087305 0.004567
v 0.387399 0.019329 0.004567
v 0.378934 -0.016216 0.004567
v 0.387399 0.019329 -0.004568
v 0.378934 -0.016216 -0.004568
v 0.378934 -0.016216 -0.000000
v 0.362005 -0.087305 -0.000000
v 0.378934 -0.016216 -0.009135
v 0.370470 -0.051760 -0.004568
v 0.362005 -0.087305 -0.009135
v 0.362005 -0.087305 -0.004568
v 0.348676 -0.084131 -0.009135
v 0.357141 -0.048586 -0.009135
v 0.374491 -0.015158 -0.009135
v 0.382956 0.020387 -0.009135
v 0.370048 -0.014100 -0.009135
v 0.374070 0.022503 -0.009135
v 0.365605 -0.013042 -0.009135
v 0.353119 -0.085189 -0.009135
v 0.357562 -0.086247 -0.009135
v 0.366027 -0.050702 -0.009135
v 0.374070 0.022503 -0.004568
v 0.374070 0.022503 -0.000000
v 0.382956 0.020387 0.004567
v 0.378513 0.021445 0.004567
v 0.374070 0.022503 0.004567
v 0.378513 0.021445 -0.004568
v 0.382956 0.020387 -0.004568
v 0.382956 0.020387 -0.000000
v 0.415702 0.098747 -0.069588
v 0.406816 0.100863 -0.069588
v 0.404328 0.090417 -0.073077
v 0.420677 0.119640 -0.062609
v 0.411791 0.121756 -0.062609
v 0.409303 0.111310 -0.066099
v 0.389043 0.105095 -0.069588
v 0.386556 0.094649 -0.073077
v 0.397929 0.102979 -0.069588
v 0.414279 0.132202 -0.059120
v 0.402905 0.123872 -0.062609
v 0.396506 0.136435 -0.059120
v 0.385132 0.128104 -0.062609
v 0.394019 0.125988 -0.062609
v 0.380157 0.107212 -0.069588
v 0.391531 0.115542 -0.066099
v 0.377669 0.096765 -0.018269
v 0.380157 0.107212 -0.033049
v 0.380157 0.107212 -0.014780
v 0.377669 0.096765 -0.054808
v 0.380157 0.107212 -0.051319
v 0.385132 0.128104 -0.044340
v 0.382645 0.117658 -0.047829
v 0.415702 0.098747 -0.014780
v 0.415702 0.098747 -0.033049
v 0.413214 0.088301 -0.018269
v 0.420677 0.119640 -0.044340
v 0.418190 0.109193 -0.047829
v 0.413214 0.088301 -0.054808
v 0.415702 0.098747 -0.051319
v 0.424703 0.136542 -0.049986
v 0.415816 0.138659 -0.049986
v 0.427777 0.149455 -0.031717
v 0.418891 0.151571 -0.031717
v 0.417354 0.145115 -0.040851
v 0.398044 0.142891 -0.049986
v 0.406930 0.140775 -0.049986
v 0.420429 0.158027 -0.022582
v 0.410005 0.153687 -0.031717
v 0.402656 0.162260 -0.022582
v 0.392232 0.157919 -0.031717
v 0.401119 0.155803 -0.031717
v 0.389158 0.145007 -0.049986
v 0.399581 0.149347 -0.040851
v 0.384182 0.124114 -0.020426
v 0.381694 0.113668 -0.005646
v 0.386670 0.134561 -0.035206
v 0.389745 0.147473 -0.016937
v 0.388207 0.141017 -0.026071
v 0.417239 0.105203 -0.005646
v 0.419727 0.115650 -0.020426
v 0.425290 0.139008 -0.016937
v 0.423752 0.132552 -0.026071
v 0.422215 0.126096 -0.035206
v 0.429315 0.155911 -0.011291
v 0.420429 0.158027 -0.011291
v 0.429315 0.155911 0.011291
v 0.420429 0.158027 0.011291
v 0.420429 0.158027 -0.000000
v 0.402656 0.162260 -0.011291
v 0.411542 0.160143 -0.011291
v 0.420429 0.158027 0.022582
v 0.411542 0.160143 0.011291
v 0.402656 0.162260 0.022582
v 0.393770 0.164376 0.011291
v 0.402656 0.162260 0.011291
v 0.393770 0.164376 -0.011291
v 0.402656 0.162260 -0.000000
v 0.385720 0.130571 -0.000000
v 0.381694 0.113668 0.005645
v 0.389745 0.147473 -0.005646
v 0.389745 0.147473 0.016936
v 0.389745 0.147473 0.005645
v 0.417239 0.105203 0.005645
v 0.421265 0.122106 -0.000000
v 0.425290 0.139008 0.016936
v 0.425290 0.139008 0.005645
v 0.425290 0.139008 -0.005646
v 0.427777 0.149455 0.031717
v 0.418891 0.151571 0.031717
v 0.424703 0.136542 0.049986
v 0.415816 0.138659 0.049986
v 0.417354 0.145115 0.040851
v 0.401119 0.155803 0.031717
v 0.410005 0.153687 0.031717
v 0.414279 0.132202 0.059121
v 0.406930 0.140775 0.049986
v 0.396506 0.136435 0.059121
v 0.389158 0.145007 0.049986
v 0.398044 0.142891 0.049986
v 0.392232 0.157919 0.031717
v 0.399581 0.149347 0.040851
v 0.384182 0.124114 0.020426
v 0.380157 0.107212 0.014780
v 0.388207 0.141017 0.026071
v 0.385132 0.128104 0.044341
v 0.386670 0.134561 0.035206
v 0.415702 0.098747 0.014780
v 0.419727 0.115650 0.020426
v 0.420677 0.119640 0.044341
v 0.422215 0.126096 0.035206
v 0.423752 0.132552 0.026071
v 0.420677 0.119640 0.062610
v 0.411791 0.121756 0.062610
v 0.415702 0.098747 0.069588
v 0.406816 0.100863 0.069588
v 0.409303 0.111310 0.066099
v 0.394019 0.125988 0.062610
v 0.402905 0.123872 0.062610
v 0.404328 0.090417 0.073077
v 0.397930 0.102979 0.069588
v 0.386556 0.094649 0.073077
v 0.380157 0.107212 0.069588
v 0.389043 0.105096 0.069588
v 0.385132 0.128105 0.062610
v 0.391531 0.115542 0.066099
v 0.380157 0.107212 0.033049
v 0.377669 0.096765 0.018269
v 0.382645 0.117658 0.047830
v 0.377669 0.096765 0.054808
v 0.380157 0.107212 0.051319
v 0.413214 0.088301 0.018269
v 0.415702 0.098747 0.033049
v 0.413214 0.088301 0.054808
v 0.415702 0.098747 0.051319
v 0.418190 0.109193 0.047830
v 0.410727 0.077855 0.069588
v 0.401840 0.079971 0.069588
v 0.405751 0.056962 0.062610
v 0.396865 0.059078 0.062610
v 0.399353 0.069525 0.066099
v 0.384068 0.084203 0.069588
v 0.392954 0.082087 0.069588
v 0.394378 0.048632 0.059121
v 0.387979 0.061195 0.062610
v 0.376605 0.052865 0.059121
v 0.370206 0.065427 0.062610
v 0.379093 0.063311 0.062610
v 0.375182 0.086319 0.069588
v 0.381580 0.073757 0.066099
v 0.375182 0.086319 0.033049
v 0.375182 0.086319 0.014780
v 0.375182 0.086319 0.051319
v 0.370206 0.065427 0.044341
v 0.372694 0.075873 0.047830
v 0.410727 0.077855 0.014780
v 0.410727 0.077855 0.033049
v 0.405751 0.056962 0.044341
v 0.408239 0.067408 0.047830
v 0.410727 0.077855 0.051319
v 0.401726 0.040060 0.049986
v 0.392840 0.042176 0.049986
v 0.398651 0.027148 0.031717
v 0.389765 0.029264 0.031717
v 0.391303 0.035720 0.040851
v 0.375068 0.046408 0.049986
v 0.383954 0.044292 0.049986
v 0.388228 0.022807 0.022582
v 0.380879 0.031380 0.031717
v 0.370455 0.027040 0.022582
v 0.363106 0.035612 0.031717
v 0.371993 0.033496 0.031717
v 0.366181 0.048525 0.049986
v 0.373530 0.039952 0.040851
v 0.371157 0.069417 0.020426
v 0.373644 0.079863 0.005645
v 0.368669 0.058971 0.035206
v 0.365594 0.046058 0.016936
v 0.367131 0.052515 0.026071
v 0.409189 0.071398 0.005645
v 0.406702 0.060952 0.020426
v 0.401139 0.037594 0.016936
v 0.402677 0.044050 0.026071
v 0.404214 0.050506 0.035206
v 0.397114 0.020691 0.011291
v 0.388228 0.022807 0.011291
v 0.397114 0.020691 -0.011291
v 0.388228 0.022807 -0.011291
v 0.388228 0.022807 -0.000000
v 0.370455 0.027040 0.011291
v 0.379341 0.024924 0.011291
v 0.388228 0.022807 -0.022582
v 0.379341 0.024924 -0.011291
v 0.370455 0.027040 -0.022582
v 0.361569 0.029156 -0.011291
v 0.370455 0.027040 -0.011291
v 0.361569 0.029156 0.011291
v 0.370455 0.027040 -0.000000
v 0.369619 0.062961 -0.000000
v 0.373644 0.079863 -0.005646
v 0.365594 0.046058 0.005645
v 0.365594 0.046058 -0.016937
v 0.365594 0.046058 -0.005646
v 0.409189 0.071398 -0.005646
v 0.405164 0.054496 -0.000000
v 0.401139 0.037594 -0.016937
v 0.401139 0.037594 -0.005646
v 0.401139 0.037594 0.005645
v 0.398651 0.027147 -0.031717
v 0.389765 0.029264 -0.031717
v 0.401726 0.040060 -0.049986
v 0.392840 0.042176 -0.049986
v 0.391303 0.035720 -0.040851
v 0.371993 0.033496 -0.031717
v 0.380879 0.031380 -0.031717
v 0.394378 0.048632 -0.059120
v 0.383954 0.044292 -0.049986
v 0.376605 0.052865 -0.059120
v 0.366181 0.048525 -0.049986
v 0.375068 0.046408 -0.049986
v 0.363106 0.035612 -0.031717
v 0.373530 0.039952 -0.040851
v 0.371157 0.069417 -0.020426
v 0.375182 0.086319 -0.014780
v 0.367131 0.052514 -0.026071
v 0.370206 0.065427 -0.044340
v 0.368669 0.058971 -0.035206
v 0.410727 0.077855 -0.014780
v 0.406702 0.060952 -0.020426
v 0.405751 0.056962 -0.044340
v 0.404214 0.050506 -0.035206
v 0.402677 0.044050 -0.026071
v 0.405751 0.056962 -0.062609
v 0.396865 0.059078 -0.062609
v 0.410727 0.077854 -0.069588
v 0.401840 0.079971 -0.069588
v 0.399353 0.069525 -0.066099
v 0.379093 0.063311 -0.062609
v 0.387979 0.061195 -0.062609
v 0.392954 0.082087 -0.069588
v 0.375182 0.086319 -0.069588
v 0.384068 0.084203 -0.069588
v 0.370206 0.065427 -0.062609
v 0.381580 0.073757 -0.066099
v 0.375182 0.086319 -0.033049
v 0.372694 0.075873 -0.047829
v 0.375182 0.086319 -0.051319
v 0.410727 0.077855 -0.033049
v 0.410727 0.077855 -0.051319
v 0.408239 0.067408 -0.047829
f 1 161 163
f 161 47 162
f 162 49 163
f 161 162 163
f 47 164 166
f 164 2 165
f 165 48 166
f 164 165 166
f 48 167 169
f 167 3 168
f 168 49 169
f 167 168 169
f 47 166 162
f 166 48 169
f 169 49 162
f 166 169 162
f 3 167 171
f 167 48 170
f 170 51 171
f 167 170 171
f 48 165 173
f 165 2 172
f 172 50 173
f 165 172 173
f 50 174 176
f 174 4 175
f 175 51 176
f 174 175 176
f 48 173 170
f 173 50 176
f 176 51 170
f 173 176 170
f 1 177 179
f 177 52 178
f 178 54 179
f 177 178 179
f 52 180 182
f 180 5 181
f 181 53 182
f 180 181 182
f 53 183 185
f 183 6 184
f 184 54 185
f 183 184 185
f 52 182 178
f 182 53 185
f 185 54 178
f 182 185 178
f 1 163 177
f 163 49 186
f 186 52 177
f 163 186 177
f 49 168 188
f 168 3 187
f 187 55 188
f 168 187 188
f 55 189 190
f 189 5 180
f 180 52 190
f 189 180 190
f 49 188 186
f 188 55 190
f 190 52 186
f 188 190 186
f 1 179 161
f 179 54 191
f 191 47 161
f 179 191 161
f 54 184 193
f 184 6 192
f 192 56 193
f 184 192 193
f 56 194 195
f 194 2 164
f 164 47 195
f 194 164 195
f 54 193 191
f 193 56 195
f 195 47 191
f 193 195 191
f 2 194 197
f 194 56 196
f 196 58 197
f 194 196 197
f 56 192 199
f 192 6 198
f 198 57 199
f 192 198 199
f 57 200 202
f 200 7 201
f 201 58 202
f 200 201 202
f 56 199 196
f 199 57 202
f 202 58 196
f 199 202 196
f 2 197 204
f 197 58 203
f 203 60 204
f 197 203 204
f 58 201 206
f 201 7 205
f 205 59 206
f 201 205 206
f 59 207 209
f 207 8 208
f 208 60 209
f 207 208 209
f 58 206 203
f 206 59 209
f 209 60 203
f 206 209 203
f 2 204 172
f 204 60 210
f 210 50 172
f 204 210 172
f 60 208 212
f 208 8 211
f 211 61 212
f 208 211 212
f 61 213 214
f 213 4 174
f 174 50 214
f 213 174 214
f 60 212 210
f 212 61 214
f 214 50 210
f 212 214 210
f 3 215 187
f 215 62 216
f 216 55 187
f 215 216 187
f 62 217 219
f 217 8 218
f 218 63 219
f 217 218 219
f 63 220 221
f 220 5 189
f 189 55 221
f 220 189 221
f 62 219 216
f 219 63 221
f 221 55 216
f 219 221 216
f 3 171 215
f 171 51 222
f 222 62 215
f 171 222 215
f 51 175 223
f 175 4 213
f 213 61 223
f 175 213 223
f 61 211 224
f 211 8 217
f 217 62 224
f 211 217 224
f 51 223 222
f 223 61 224
f 224 62 222
f 223 224 222
f 5 225 181
f 225 64 226
f 226 53 181
f 225 226 181
f 64 227 228
f 227 7 200
f 200 57 228
f 227 200 228
f 57 198 229
f 198 6 183
f 183 53 229
f 198 183 229
f 64 228 226
f 228 57 229
f 229 53 226
f 228 229 226
f 5 220 225
f 220 63 230
f 230 64 225
f 220 230 225
f 63 218 231
f 218 8 207
f 207 59 231
f 218 207 231
f 59 205 232
f 205 7 227
f 227 64 232
f 205 227 232
f 63 231 230
f 231 59 232
f 232 64 230
f 231 232 230
f 9 233 235
f 233 65 234
f 234 67 235
f 233 234 235
f 65 236 238
f 236 10 237
f 237 66 238
f 236 237 238
f 66 239 241
f 239 11 240
f 240 67 241
f 239 240 241
f 65 238 234
f 238 66 241
f 241 67 234
f 238 241 234
f 11 239 243
f 239 66 242
f 242 69 243
f 239 242 243
f 66 237 245
f 237 10 244
f 244 68 245
f 237 244 245
f 68 246 248
f 246 12 247
f 247 69 248
f 246 247 248
f 66 245 242
f 245 68 248
f 248 69 242
f 245 248 242
f 9 249 251
f 249 70 250
f 250 72 251
f 249 250 251
f 70 252 254
f 252 13 253
f 253 71 254
f 252 253 254
f 71 255 257
f 255 14 256
f 256 72 257
f 255 256 257
f 70 254 250
f 254 71 257
f 257 72 250
f 254 257 250
f 9 235 249
f 235 67 258
f 258 70 249
f 235 258 249
f 67 240 260
f 240 11 259
f 259 73 260
f 240 259 260
f 73 261 262
f 261 13 252
f 252 70 262
f 261 252 262
f 67 260 258
f 260 73 262
f 262 70 258
f 260 262 258
f 9 251 233
f 251 72 263
f 263 65 233
f 251 263 233
f 72 256 265
f 256 14 264
f 264 74 265
f 256 264 265
f 74 266 267
f 266 10 236
f 236 65 267
f 266 236 267
f 72 265 263
f 265 74 267
f 267 65 263
f 265 267 263
f 10 266 269
f 266 74 268
f 268 76 269
f 266 268 269
f 74 264 271
f 264 14 270
f 270 75 271
f 264 270 271
f 75 272 274
f 272 15 273
f 273 76 274
f 272 273 274
f 74 271 268
f 271 75 274
f 274 76 268
f 271 274 268
f 10 269 276
f 269 76 275
f 275 78 276
f 269 275 276
f 76 273 278
f 273 15 277
f 277 77 278
f 273 277 278
f 77 279 281
f 279 16 280
f 280 78 281
f 279 280 281
f 76 278 275
f 278 77 281
f 281 78 275
f 278 281 275
f 10 276 244
f 276 78 282
f 282 68 244
f 276 282 244
f 78 280 284
f 280 16 283
f 283 79 284
f 280 283 284
f 79 285 286
f 285 12 246
f 246 68 286
f 285 246 286
f 78 284 282
f 284 79 286
f 286 68 282
f 284 286 282
f 11 287 259
f 287 80 288
f 288 73 259
f 287 288 259
f 80 289 291
f 289 16 290
f 290 81 291
f 289 290 291
f 81 292 293
f 292 13 261
f 261 73 293
f 292 261 293
f 80 291 288
f 291 81 293
f 293 73 288
f 291 293 288
f 11 243 287
f 243 69 294
f 294 80 287
f 243 294 287
f 69 247 295
f 247 12 285
f 285 79 295
f 247 285 295
f 79 283 296
f 283 16 289
f 289 80 296
f 283 289 296
f 69 295 294
f 295 79 296
f 296 80 294
f 295 296 294
f 13 297 253
f 297 82 298
f 298 71 253
f 297 298 253
f 82 299 300
f 299 15 272
f 272 75 300
f 299 272 300
f 75 270 301
f 270 14 255
f 255 71 301
f 270 255 301
f 82 300 298
f 300 75 301
f 301 71 298
f 300 301 298
f 13 292 297
f 292 81 302
f 302 82 297
f 292 302 297
f 81 290 303
f 290 16 279
f 279 77 303
f 290 279 303
f 77 277 304
f 277 15 299
f 299 82 304
f 277 299 304
f 81 303 302
f 303 77 304
f 304 82 302
f 303 304 302
f 17 305 307
f 305 83 306
f 306 85 307
f 305 306 307
f 83 308 310
f 308 18 309
f 309 84 310
f 308 309 310
f 84 311 313
f 311 19 312
f 312 85 313
f 311 312 313
f 83 310 306
f 310 84 313
f 313 85 306
f 310 313 306
f 19 311 315
f 311 84 314
f 314 87 315
f 311 314 315
f 84 309 317
f 309 18 316
f 316 86 317
f 309 316 317
f 86 318 320
f 318 20 319
f 319 87 320
f 318 319 320
f 84 317 314
f 317 86 320
f 320 87 314
f 317 320 314
f 17 321 323
f 321 88 322
f 322 90 323
f 321 322 323
f 88 324 326
f 324 21 325
f 325 89 326
f 324 325 326
f 89 327 329
f 327 22 328
f 328 90 329
f 327 328 329
f 88 326 322
f 326 89 329
f 329 90 322
f 326 329 322
f 17 307 321
f 307 85 330
f 330 88 321
f 307 330 321
f 85 312 332
f 312 19 331
f 331 91 332
f 312 331 332
f 91 333 334
f 333 21 324
f 324 88 334
f 333 324 334
f 85 332 330
f 332 91 334
f 334 88 330
f 332 334 330
f 17 323 305
f 323 90 335
f 335 83 305
f 323 335 305
f 90 328 337
f 328 22 336
f 336 92 337
f 328 336 337
f 92 338 339
f 338 18 308
f 308 83 339
f 338 308 339
f 90 337 335
f 337 92 339
f 339 83 335
f 337 339 335
f 18 338 341
f 338 92 340
f 340 94 341
f 338 340 341
f 92 336 343
f 336 22 342
f 342 93 343
f 336 342 343
f 93 344 346
f 344 23 345
f 345 94 346
f 344 345 346
f 92 343 340
f 343 93 346
f 346 94 340
f 343 346 340
f 18 341 348
f 341 94 347
f 347 96 348
f 341 347 348
f 94 345 350
f 345 23 349
f 349 95 350
f 345 349 350
f 95 351 353
f 351 24 352
f 352 96 353
f 351 352 353
f 94 350 347
f 350 95 353
f 353 96 347
f 350 353 347
f 18 348 316
f 348 96 354
f 354 86 316
f 348 354 316
f 96 352 356
f 352 24 355
f 355 97 356
f 352 355 356
f 97 357 358
f 357 20 318
f 318 86 358
f 357 318 358
f 96 356 354
f 356 97 358
f 358 86 354
f 356 358 354
f 19 359 331
f 359 98 360
f 360 91 331
f 359 360 331
f 98 361 363
f 361 24 362
f 362 99 363
f 361 362 363
f 99 364 365
f 364 21 333
f 333 91 365
f 364 333 365
f 98 363 360
f 363 99 365
f 365 91 360
f 363 365 360
f 19 315 359
f 315 87 366
f 366 98 359
f 315 366 359
f 87 319 367
f 319 20 357
f 357 97 367
f 319 357 367
f 97 355 368
f 355 24 361
f 361 98 368
f 355 361 368
f 87 367 366
f 367 97 368
f 368 98 366
f 367 368 366
f 21 369 325
f 369 100 370
f 370 89 325
f 369 370 325
f 100 371 372
f 371 23 344
f 344 93 372
f 371 344 372
f 93 342 373
f 342 22 327
f 327 89 373
f 342 327 373
f 100 372 370
f 372 93 373
f 373 89 370
f 372 373 370
f 21 364 369
f 364 99 374
f 374 100 369
f 364 374 369
f 99 362 375
f 362 24 351
f 351 95 375
f 362 351 375
f 95 349 376
f 349 23 371
f 371 100 376
f 349 371 376
f 99 375 374
f 375 95 376
f 376 100 374
f 375 376 374
f 25 377 379
f 377 101 378
f 378 103 379
f 377 378 379
f 101 380 382
f 380 26 381
f 381 102 382
f 380 381 382
f 102 383 385
f 383 27 384
f 384 103 385
f 383 384 385
f 101 382 378
f 382 102 385
f 385 103 378
f 382 385 378
f 26 386 381
f 386 104 387
f 387 102 381
f 386 387 381
f 104 388 390
f 388 28 389
f 389 105 390
f 388 389 390
f 105 391 392
f 391 27 383
f 383 102 392
f 391 383 392
f 104 390 387
f 390 105 392
f 392 102 387
f 390 392 387
f 29 393 395
f 393 106 394
f 394 107 395
f 393 394 395
f 106 396 397
f 396 27 391
f 391 105 397
f 396 391 397
f 105 389 399
f 389 28 398
f 398 107 399
f 389 398 399
f 106 397 394
f 397 105 399
f 399 107 394
f 397 399 394
f 30 400 402
f 400 108 401
f 401 109 402
f 400 401 402
f 108 403 404
f 403 26 380
f 380 101 404
f 403 380 404
f 101 377 406
f 377 25 405
f 405 109 406
f 377 405 406
f 108 404 401
f 404 101 406
f 406 109 401
f 404 406 401
f 26 407 386
f 407 110 408
f 408 104 386
f 407 408 386
f 110 409 411
f 409 31 410
f 410 111 411
f 409 410 411
f 111 412 413
f 412 28 388
f 388 104 413
f 412 388 413
f 110 411 408
f 411 111 413
f 413 104 408
f 411 413 408
f 31 414 410
f 414 112 415
f 415 111 410
f 414 415 410
f 112 416 418
f 416 32 417
f 417 113 418
f 416 417 418
f 113 419 420
f 419 28 412
f 412 111 420
f 419 412 420
f 112 418 415
f 418 113 420
f 420 111 415
f 418 420 415
f 29 395 422
f 395 107 421
f 421 114 422
f 395 421 422
f 107 398 423
f 398 28 419
f 419 113 423
f 398 419 423
f 113 417 425
f 417 32 424
f 424 114 425
f 417 424 425
f 107 423 421
f 423 113 425
f 425 114 421
f 423 425 421
f 30 426 400
f 426 115 427
f 427 108 400
f 426 427 400
f 115 428 429
f 428 31 409
f 409 110 429
f 428 409 429
f 110 407 430
f 407 26 403
f 403 108 430
f 407 403 430
f 115 429 427
f 429 110 430
f 430 108 427
f 429 430 427
f 31 431 414
f 431 116 432
f 432 112 414
f 431 432 414
f 116 433 435
f 433 33 434
f 434 117 435
f 433 434 435
f 117 436 437
f 436 32 416
f 416 112 437
f 436 416 437
f 116 435 432
f 435 117 437
f 437 112 432
f 435 437 432
f 33 438 434
f 438 118 439
f 439 117 434
f 438 439 434
f 118 440 442
f 440 34 441
f 441 119 442
f 440 441 442
f 119 443 444
f 443 32 436
f 436 117 444
f 443 436 444
f 118 442 439
f 442 119 444
f 444 117 439
f 442 444 439
f 29 422 446
f 422 114 445
f 445 120 446
f 422 445 446
f 114 424 447
f 424 32 443
f 443 119 447
f 424 443 447
f 119 441 449
f 441 34 448
f 448 120 449
f 441 448 449
f 114 447 445
f 447 119 449
f 449 120 445
f 447 449 445
f 30 450 426
f 450 121 451
f 451 115 426
f 450 451 426
f 121 452 453
f 452 33 433
f 433 116 453
f 452 433 453
f 116 431 454
f 431 31 428
f 428 115 454
f 431 428 454
f 121 453 451
f 453 116 454
f 454 115 451
f 453 454 451
f 33 455 438
f 455 122 456
f 456 118 438
f 455 456 438
f 122 457 459
f 457 35 458
f 458 123 459
f 457 458 459
f 123 460 461
f 460 34 440
f 440 118 461
f 460 440 461
f 122 459 456
f 459 123 461
f 461 118 456
f 459 461 456
f 35 462 458
f 462 124 463
f 463 123 458
f 462 463 458
f 124 464 466
f 464 36 465
f 465 125 466
f 464 465 466
f 125 467 468
f 467 34 460
f 460 123 468
f 467 460 468
f 124 466 463
f 466 125 468
f 468 123 463
f 466 468 463
f 29 446 470
f 446 120 469
f 469 126 470
f 446 469 470
f 120 448 471
f 448 34 467
f 467 125 471
f 448 467 471
f 125 465 473
f 465 36 472
f 472 126 473
f 465 472 473
f 120 471 469
f 471 125 473
f 473 126 469
f 471 473 469
f 30 474 450
f 474 127 475
f 475 121 450
f 474 475 450
f 127 476 477
f 476 35 457
f 457 122 477
f 476 457 477
f 122 455 478
f 455 33 452
f 452 121 478
f 455 452 478
f 127 477 475
f 477 122 478
f 478 121 475
f 477 478 475
f 35 479 462
f 479 128 480
f 480 124 462
f 479 480 462
f 128 481 483
f 481 37 482
f 482 129 483
f 481 482 483
f 129 484 485
f 484 36 464
f 464 124 485
f 484 464 485
f 128 483 480
f 483 129 485
f 485 124 480
f 483 485 480
f 37 486 482
f 486 130 487
f 487 129 482
f 486 487 482
f 130 488 490
f 488 38 489
f 489 131 490
f 488 489 490
f 131 491 492
f 491 36 484
f 484 129 492
f 491 484 492
f 130 490 487
f 490 131 492
f 492 129 487
f 490 492 487
f 29 470 494
f 470 126 493
f 493 132 494
f 470 493 494
f 126 472 495
f 472 36 491
f 491 131 495
f 472 491 495
f 131 489 497
f 489 38 496
f 496 132 497
f 489 496 497
f 126 495 493
f 495 131 497
f 497 132 493
f 495 497 493
f 30 498 474
f 498 133 499
f 499 127 474
f 498 499 474
f 133 500 501
f 500 37 481
f 481 128 501
f 500 481 501
f 128 479 502
f 479 35 476
f 476 127 502
f 479 476 502
f 133 501 499
f 501 128 502
f 502 127 499
f 501 502 499
f 37 503 486
f 503 134 504
f 504 130 486
f 503 504 486
f 134 505 507
f 505 39 506
f 506 135 507
f 505 506 507
f 135 508 509
f 508 38 488
f 488 130 509
f 508 488 509
f 134 507 504
f 507 135 509
f 509 130 504
f 507 509 504
f 39 510 506
f 510 136 511
f 511 135 506
f 510 511 506
f 136 512 514
f 512 40 513
f 513 137 514
f 512 513 514
f 137 515 516
f 515 38 508
f 508 135 516
f 515 508 516
f 136 514 511
f 514 137 516
f 516 135 511
f 514 516 511
f 29 494 518
f 494 132 517
f 517 138 518
f 494 517 518
f 132 496 519
f 496 38 515
f 515 137 519
f 496 515 519
f 137 513 521
f 513 40 520
f 520 138 521
f 513 520 521
f 132 519 517
f 519 137 521
f 521 138 517
f 519 521 517
f 30 522 498
f 522 139 523
f 523 133 498
f 522 523 498
f 139 524 525
f 524 39 505
f 505 134 525
f 524 505 525
f 134 503 526
f 503 37 500
f 500 133 526
f 503 500 526
f 139 525 523
f 525 134 526
f 526 133 523
f 525 526 523
f 39 527 510
f 527 140 528
f 528 136 510
f 527 528 510
f 140 529 531
f 529 41 530
f 530 141 531
f 529 530 531
f 141 532 533
f 532 40 512
f 512 136 533
f 532 512 533
f 140 531 528
f 531 141 533
f 533 136 528
f 531 533 528
f 41 534 530
f 534 142 535
f 535 141 530
f 534 535 530
f 142 536 538
f 536 42 537
f 537 143 538
f 536 537 538
f 143 539 540
f 539 40 532
f 532 141 540
f 539 532 540
f 142 538 535
f 538 143 540
f 540 141 535
f 538 540 535
f 29 518 542
f 518 138 541
f 541 144 542
f 518 541 542
f 138 520 543
f 520 40 539
f 539 143 543
f 520 539 543
f 143 537 545
f 537 42 544
f 544 144 545
f 537 544 545
f 138 543 541
f 543 143 545
f 545 144 541
f 543 545 541
f 30 546 522
f 546 145 547
f 547 139 522
f 546 547 522
f 145 548 549
f 548 41 529
f 529 140 549
f 548 529 549
f 140 527 550
f 527 39 524
f 524 139 550
f 527 524 550
f 145 549 547
f 549 140 550
f 550 139 547
f 549 550 547
f 41 551 534
f 551 146 552
f 552 142 534
f 551 552 534
f 146 553 555
f 553 43 554
f 554 147 555
f 553 554 555
f 147 556 557
f 556 42 536
f 536 142 557
f 556 536 557
f 146 555 552
f 555 147 557
f 557 142 552
f 555 557 552
f 43 558 554
f 558 148 559
f 559 147 554
f 558 559 554
f 148 560 562
f 560 44 561
f 561 149 562
f 560 561 562
f 149 563 564
f 563 42 556
f 556 147 564
f 563 556 564
f 148 562 559
f 562 149 564
f 564 147 559
f 562 564 559
f 29 542 566
f 542 144 565
f 565 150 566
f 542 565 566
f 144 544 567
f 544 42 563
f 563 149 567
f 544 563 567
f 149 561 569
f 561 44 568
f 568 150 569
f 561 568 569
f 144 567 565
f 567 149 569
f 569 150 565
f 567 569 565
f 30 570 546
f 570 151 571
f 571 145 546
f 570 571 546
f 151 572 573
f 572 43 553
f 553 146 573
f 572 553 573
f 146 551 574
f 551 41 548
f 548 145 574
f 551 548 574
f 151 573 571
f 573 146 574
f 574 145 571
f 573 574 571
f 43 575 558
f 575 152 576
f 576 148 558
f 575 576 558
f 152 577 579
f 577 45 578
f 578 153 579
f 577 578 579
f 153 580 581
f 580 44 560
f 560 148 581
f 580 560 581
f 152 579 576
f 579 153 581
f 581 148 576
f 579 581 576
f 45 582 578
f 582 154 583
f 583 153 578
f 582 583 578
f 154 584 586
f 584 46 585
f 585 155 586
f 584 585 586
f 155 587 588
f 587 44 580
f 580 153 588
f 587 580 588
f 154 586 583
f 586 155 588
f 588 153 583
f 586 588 583
f 29 566 590
f 566 150 589
f 589 156 590
f 566 589 590
f 150 568 591
f 568 44 587
f 587 155 591
f 568 587 591
f 155 585 593
f 585 46 592
f 592 156 593
f 585 592 593
f 150 591 589
f 591 155 593
f 593 156 589
f 591 593 589
f 30 594 570
f 594 157 595
f 595 151 570
f 594 595 570
f 157 596 597
f 596 45 577
f 577 152 597
f 596 577 597
f 152 575 598
f 575 43 572
f 572 151 598
f 575 572 598
f 157 597 595
f 597 152 598
f 598 151 595
f 597 598 595
f 45 599 582
f 599 158 600
f 600 154 582
f 599 600 582
f 158 601 603
f 601 25 602
f 602 159 603
f 601 602 603
f 159 604 605
f 604 46 584
f 584 154 605
f 604 584 605
f 158 603 600
f 603 159 605
f 605 154 600
f 603 605 600
f 25 379 602
f 379 103 606
f 606 159 602
f 379 606 602
f 103 384 608
f 384 27 607
f 607 160 608
f 384 607 608
f 160 609 610
f 609 46 604
f 604 159 610
f 609 604 610
f 103 608 606
f 608 160 610
f 610 159 606
f 608 610 606
f 29 590 393
f 590 156 611
f 611 106 393
f 590 611 393
f 156 592 612
f 592 46 609
f 609 160 612
f 592 609 612
f 160 607 613
f 607 27 396
f 396 106 613
f 607 396 613
f 156 612 611
f 612 160 613
f 613 106 611
f 612 613 611
f 30 402 594
f 402 109 614
f 614 157 594
f 402 614 594
f 109 405 615
f 405 25 601
f 601 158 615
f 405 601 615
f 158 599 616
f 599 45 596
f 596 157 616
f 599 596 616
f 109 615 614
f 615 158 616
f 616 157 614
f 615 616 614
