# Original shape: m432.obj
# No processing applied - exact copy of source file
# Generated on 2025-10-03 20:19:36

v 0.358185 0.123890 0.388689
v 0.358185 0.096159 0.325302
v 0.358185 0.062881 0.338772
v 0.358185 0.127059 0.337187
v 0.358185 0.093782 0.384727
v 0.358185 0.066842 0.364127
v 0.358185 0.063673 0.390274
v 0.618844 0.066842 0.364127
v 0.618844 0.093782 0.384727
v 0.618844 0.063673 0.390274
v 0.618844 0.127059 0.337187
v 0.618844 0.062881 0.338772
v 0.618844 0.096159 0.325302
v 0.618844 0.123890 0.388689
v 0.620242 0.063614 0.528732
v 0.620242 0.100787 0.565906
v 0.620242 0.070951 0.559058
v 0.620242 0.070462 0.513080
v 0.620242 0.098342 0.521885
v 0.620242 0.133559 0.551232
v 0.620242 0.130135 0.510146
v 0.548072 0.074460 0.632353
v 0.541224 0.102340 0.632353
v 0.527528 0.076906 0.632353
v 0.569104 0.079840 0.632353
v 0.563724 0.104786 0.632353
v 0.540735 0.128264 0.632353
v 0.580354 0.137557 0.632353
v 0.423344 0.078862 0.632353
v 0.401334 0.109677 0.632353
v 0.400356 0.086199 0.632353
v 0.424323 0.106253 0.632353
v 0.423834 0.134133 0.632353
v 0.393019 0.143427 0.632353
v 0.162681 0.025107 0.935226
v 0.092311 0.025107 0.557368
v 0.034179 0.025107 0.763890
v 0.453341 0.025107 0.848028
v 0.854147 0.025107 0.477819
v 0.757770 0.025107 0.956643
v 0.975000 0.025107 0.711877
v 0.860266 0.025107 0.113728
v 0.589493 0.025107 0.025000
v 0.973470 0.025107 0.312601
v 0.167270 0.025107 0.155032
v 0.025000 0.025107 0.360024
v 0.376852 0.025107 0.109139
v 0.434009 0.158496 0.630013
v 0.400365 0.174887 0.630013
v 0.406835 0.161515 0.630013
v 0.465498 0.159358 0.630013
v 0.535376 0.188258 0.630013
v 0.499143 0.161515 0.630013
v 0.534513 0.161515 0.630013
v 0.541414 0.175318 0.630013
v 0.494829 0.192572 0.630013
v 0.470243 0.189552 0.630013
v 0.446950 0.186533 0.630013
v 0.415030 0.189984 0.630013
v 0.402953 0.186533 0.630013
v 0.430559 0.187827 0.630013
v 0.356787 0.133559 0.551232
v 0.356787 0.130135 0.510146
v 0.356787 0.098342 0.521885
v 0.356787 0.070951 0.559058
v 0.356787 0.070462 0.513080
v 0.356787 0.063614 0.528732
v 0.356787 0.100787 0.565906
v 0.629139 0.092989 0.390274
v 0.614156 0.130228 0.394235
v 0.614156 0.092989 0.390274
v 0.629139 0.130228 0.394235
v 0.614156 0.132606 0.333226
v 0.629139 0.132606 0.333226
v 0.629139 0.093782 0.319756
v 0.614156 0.093782 0.319756
v 0.629139 0.055750 0.330056
v 0.614156 0.055750 0.330056
v 0.629139 0.062088 0.364919
v 0.614156 0.062088 0.364919
v 0.629139 0.057334 0.396612
v 0.614156 0.057334 0.396612
v 0.614156 0.121513 0.384727
v 0.629139 0.101705 0.378389
v 0.614156 0.101705 0.378389
v 0.629139 0.121513 0.384727
v 0.614156 0.102497 0.360958
v 0.629139 0.102497 0.360958
v 0.614156 0.121513 0.366504
v 0.629139 0.121513 0.366504
v 0.629139 0.102497 0.351450
v 0.614156 0.101705 0.333226
v 0.614156 0.102497 0.351450
v 0.629139 0.101705 0.333226
v 0.614156 0.123890 0.338772
v 0.629139 0.123890 0.338772
v 0.629139 0.123098 0.356204
v 0.614156 0.123098 0.356204
v 0.614156 0.085859 0.334018
v 0.629139 0.088235 0.379973
v 0.614156 0.088235 0.379973
v 0.629139 0.085859 0.334018
v 0.629139 0.072389 0.379181
v 0.614156 0.072389 0.379181
v 0.614156 0.068427 0.341149
v 0.629139 0.068427 0.341149
v 0.626545 0.139428 0.549242
v 0.611098 0.135515 0.504732
v 0.611098 0.139428 0.549242
v 0.626545 0.135515 0.504732
v 0.626545 0.136983 0.556090
v 0.611098 0.136983 0.556090
v 0.626545 0.101277 0.569297
v 0.611098 0.101277 0.569297
v 0.626545 0.067038 0.564405
v 0.611098 0.067038 0.564405
v 0.611098 0.056277 0.523318
v 0.626545 0.056277 0.523318
v 0.611098 0.068994 0.508156
v 0.626545 0.068994 0.508156
v 0.611098 0.097363 0.517449
v 0.626545 0.097363 0.517449
v 0.611098 0.127200 0.515493
v 0.626545 0.129157 0.549731
v 0.611098 0.129157 0.549731
v 0.626545 0.127200 0.515493
v 0.626545 0.103722 0.523808
v 0.611098 0.103722 0.523808
v 0.626545 0.106168 0.540927
v 0.611098 0.106168 0.540927
v 0.626545 0.102254 0.560492
v 0.611098 0.102254 0.560492
v 0.611098 0.089538 0.558536
v 0.626545 0.073885 0.555601
v 0.611098 0.073885 0.555601
v 0.626545 0.089538 0.558536
v 0.611098 0.096385 0.541416
v 0.626545 0.096385 0.541416
v 0.611098 0.092472 0.524297
v 0.626545 0.092472 0.524297
v 0.626545 0.073396 0.518916
v 0.611098 0.073396 0.518916
v 0.626545 0.068994 0.532123
v 0.611098 0.068994 0.532123
v 0.586712 0.144894 0.638319
v 0.536333 0.131687 0.626117
v 0.536333 0.131687 0.638319
v 0.586712 0.144894 0.626117
v 0.536822 0.102829 0.626117
v 0.536822 0.102829 0.638319
v 0.522148 0.073482 0.626117
v 0.522148 0.073482 0.638319
v 0.545626 0.070547 0.638319
v 0.545626 0.070547 0.626117
v 0.573017 0.075438 0.638319
v 0.573017 0.075438 0.626117
v 0.567148 0.102340 0.638319
v 0.567148 0.102340 0.626117
v 0.543180 0.126307 0.626117
v 0.576441 0.134133 0.638319
v 0.543180 0.126307 0.638319
v 0.576441 0.134133 0.626117
v 0.564213 0.110166 0.626117
v 0.564213 0.110166 0.638319
v 0.543180 0.107721 0.626117
v 0.543180 0.107721 0.638319
v 0.565191 0.080330 0.638319
v 0.533398 0.079840 0.626117
v 0.533398 0.079840 0.638319
v 0.565191 0.080330 0.626117
v 0.542691 0.097449 0.638319
v 0.542691 0.097449 0.626117
v 0.559810 0.097449 0.638319
v 0.559810 0.097449 0.626117
v 0.398888 0.083264 0.626117
v 0.425790 0.076416 0.638319
v 0.398888 0.083264 0.638319
v 0.425790 0.076416 0.626117
v 0.399378 0.102340 0.638319
v 0.399378 0.102340 0.626117
v 0.389595 0.147829 0.638319
v 0.389595 0.147829 0.626117
v 0.428236 0.138046 0.638319
v 0.428236 0.138046 0.626117
v 0.427746 0.107231 0.626117
v 0.427746 0.107231 0.638319
v 0.396443 0.139025 0.626117
v 0.421388 0.131687 0.638319
v 0.396443 0.139025 0.638319
v 0.421388 0.131687 0.626117
v 0.402801 0.115057 0.626117
v 0.402801 0.115057 0.638319
v 0.421877 0.112612 0.638319
v 0.421877 0.112612 0.626117
v 0.421877 0.084242 0.638319
v 0.402312 0.086688 0.626117
v 0.402312 0.086688 0.638319
v 0.421877 0.084242 0.626117
v 0.422366 0.105764 0.638319
v 0.422366 0.105764 0.626117
v 0.404758 0.107231 0.626117
v 0.404758 0.107231 0.638319
v 0.640084 0.111723 0.680287
v 0.643566 0.092339 0.665553
v 0.637551 0.092339 0.679168
v 0.646099 0.111723 0.666672
v 0.658127 0.130078 0.688258
v 0.664142 0.130078 0.674643
v 0.690426 0.124541 0.702527
v 0.696441 0.124542 0.688912
v 0.705624 0.120376 0.709241
v 0.711639 0.120376 0.695627
v 0.715755 0.102031 0.697444
v 0.709740 0.102031 0.711060
v 0.703724 0.077109 0.708402
v 0.709739 0.077109 0.694787
v 0.687260 0.066020 0.701129
v 0.693275 0.066020 0.687513
v 0.663513 0.070520 0.690638
v 0.669528 0.070520 0.677022
v 0.644833 0.071571 0.682385
v 0.650848 0.071571 0.668770
v 0.653064 0.108262 0.669749
v 0.647049 0.108262 0.683364
v 0.643567 0.094070 0.681826
v 0.649582 0.094070 0.668210
v 0.654331 0.080570 0.670308
v 0.648316 0.080570 0.683924
v 0.661931 0.078135 0.689938
v 0.667946 0.078135 0.676323
v 0.684094 0.073289 0.699730
v 0.690109 0.073289 0.686115
v 0.700558 0.085070 0.707003
v 0.706573 0.085070 0.693388
v 0.700875 0.100300 0.707143
v 0.706890 0.100300 0.693528
v 0.703408 0.108954 0.708263
v 0.709423 0.108954 0.694647
v 0.687893 0.115888 0.701409
v 0.693908 0.115888 0.687793
v 0.656861 0.120386 0.687699
v 0.662876 0.120386 0.674084
v 0.650294 0.074686 0.678590
v 0.647444 0.112761 0.677332
v 0.642695 0.094070 0.675233
v 0.682272 0.069494 0.692718
v 0.707285 0.095454 0.703768
v 0.702219 0.078493 0.701530
v 0.707602 0.111031 0.703908
v 0.701903 0.117607 0.701390
v 0.662642 0.124184 0.684046
v 0.673566 0.104615 0.692041
v 0.668999 0.111225 0.683685
v 0.666656 0.111225 0.688988
v 0.675909 0.104615 0.686737
v 0.658202 0.100366 0.678915
v 0.655859 0.100366 0.684219
v 0.661657 0.086674 0.680441
v 0.659314 0.086674 0.685744
v 0.675909 0.084313 0.686737
v 0.673566 0.084313 0.692041
v 0.678500 0.094700 0.687882
v 0.676157 0.094700 0.693186
v 0.672885 0.102254 0.685402
v 0.670543 0.102254 0.690705
v 0.666224 0.103198 0.688797
v 0.668567 0.103198 0.683494
v 0.674181 0.090451 0.685974
v 0.671838 0.090451 0.691277
v 0.665544 0.090451 0.682158
v 0.663201 0.090451 0.687462
v 0.661042 0.099422 0.686508
v 0.663384 0.099422 0.681204
v 0.679612 0.107920 0.694712
v 0.681091 0.103198 0.689027
v 0.678748 0.103198 0.694330
v 0.681955 0.107920 0.689408
v 0.687817 0.105087 0.698337
v 0.690160 0.105087 0.693034
v 0.695159 0.106032 0.701580
v 0.697502 0.106032 0.696277
v 0.699230 0.100838 0.697040
v 0.696886 0.100838 0.702343
v 0.681771 0.089034 0.695666
v 0.684114 0.089034 0.690362
v 0.696886 0.090451 0.702343
v 0.699230 0.090451 0.697040
v 0.696023 0.085258 0.701962
v 0.698366 0.085258 0.696658
v 0.677885 0.085730 0.693949
v 0.680227 0.085730 0.688645
v 0.678748 0.092340 0.694330
v 0.681091 0.092340 0.689027
v 0.689113 0.101310 0.698909
v 0.691456 0.101310 0.693606
v 0.638458 0.040483 0.675877
v 0.638378 0.025107 0.665539
v 0.632444 0.025107 0.678971
v 0.641026 0.040483 0.670064
v 0.646905 0.047008 0.679608
v 0.648065 0.025107 0.685872
v 0.649473 0.047008 0.673795
v 0.653999 0.025107 0.672440
v 0.639451 0.112937 0.674003
v 0.637163 0.109042 0.668119
v 0.635315 0.111348 0.672304
v 0.641300 0.110631 0.669818
v 0.636737 0.064210 0.679358
v 0.640133 0.069502 0.671671
v 0.642552 0.062760 0.681840
v 0.645948 0.068052 0.674153
v 0.639128 0.097347 0.674569
v 0.641508 0.095036 0.669182
v 0.637485 0.087730 0.667591
v 0.635105 0.090040 0.672979
v 0.707244 0.039097 0.706265
v 0.712637 0.025107 0.692114
v 0.705462 0.025107 0.708354
v 0.709812 0.039097 0.700452
v 0.715373 0.045622 0.709856
v 0.716645 0.025107 0.713294
v 0.717941 0.045622 0.704043
v 0.723820 0.025107 0.697054
v 0.716795 0.116402 0.708172
v 0.714508 0.112161 0.702289
v 0.712659 0.114467 0.706473
v 0.718644 0.114097 0.703987
v 0.708132 0.063863 0.708982
v 0.711174 0.069155 0.702097
v 0.712364 0.062413 0.710765
v 0.715406 0.067706 0.703879
v 0.718690 0.097347 0.709719
v 0.721779 0.095036 0.702727
v 0.714587 0.091541 0.699736
v 0.711498 0.093851 0.706728
v 0.400796 0.193003 0.638356
v 0.395620 0.175318 0.621830
v 0.395620 0.175318 0.638356
v 0.400796 0.193004 0.621830
v 0.449107 0.189552 0.638356
v 0.449107 0.189552 0.621830
v 0.487928 0.195160 0.638356
v 0.487928 0.195160 0.621830
v 0.539258 0.190415 0.638356
v 0.539258 0.190415 0.621830
v 0.544865 0.174456 0.621830
v 0.544865 0.174456 0.638356
v 0.536238 0.159790 0.621830
v 0.536238 0.159790 0.638356
v 0.487496 0.158496 0.621830
v 0.487496 0.158496 0.638356
v 0.447813 0.155908 0.621830
v 0.447813 0.155908 0.638356
v 0.400796 0.158496 0.621830
v 0.400796 0.158496 0.638356
v 0.408560 0.181357 0.621830
v 0.415030 0.187827 0.638356
v 0.408560 0.181357 0.638356
v 0.415030 0.187827 0.621830
v 0.405109 0.173161 0.621830
v 0.405109 0.173161 0.638356
v 0.412442 0.163672 0.621830
v 0.412442 0.163672 0.638356
v 0.447381 0.161515 0.638356
v 0.447381 0.161515 0.621830
v 0.492241 0.164966 0.638356
v 0.492241 0.164966 0.621830
v 0.534082 0.164103 0.638356
v 0.534082 0.164103 0.621830
v 0.537964 0.174456 0.638356
v 0.537964 0.174456 0.621830
v 0.533219 0.186964 0.638356
v 0.533219 0.186964 0.621830
v 0.489653 0.189121 0.621830
v 0.489653 0.189121 0.638356
v 0.447381 0.182651 0.621830
v 0.447381 0.182651 0.638356
v 0.358940 0.025642 0.247744
v 0.612571 0.025210 0.626717
v 0.358940 0.025641 0.626717
v 0.612571 0.025210 0.247744
v 0.618178 0.052385 0.626717
v 0.618178 0.052385 0.247744
v 0.616884 0.082147 0.626717
v 0.616884 0.082148 0.247744
v 0.616022 0.115793 0.626717
v 0.616022 0.115793 0.247744
v 0.616884 0.147280 0.626717
v 0.616884 0.147281 0.247744
v 0.612139 0.182651 0.626717
v 0.612139 0.182651 0.247744
v 0.554770 0.212846 0.247744
v 0.554770 0.212845 0.626717
v 0.515087 0.267626 0.626718
v 0.515087 0.267626 0.247744
v 0.498695 0.315074 0.626718
v 0.498695 0.315075 0.247744
v 0.477559 0.314643 0.247744
v 0.477559 0.314643 0.626718
v 0.436582 0.259431 0.247744
v 0.436582 0.259430 0.626718
v 0.396898 0.224060 0.247744
v 0.396898 0.224060 0.626717
v 0.343842 0.193004 0.247744
v 0.343842 0.193003 0.626717
v 0.362822 0.161947 0.247744
v 0.362822 0.161946 0.626717
v 0.361528 0.112342 0.247744
v 0.361528 0.112341 0.626717
v 0.365931 0.139428 0.549242
v 0.350484 0.135515 0.504732
v 0.350484 0.139428 0.549242
v 0.365931 0.135515 0.504732
v 0.365931 0.136983 0.556090
v 0.350484 0.136983 0.556090
v 0.365931 0.101277 0.569297
v 0.350484 0.101277 0.569297
v 0.365931 0.067038 0.564405
v 0.350484 0.067038 0.564405
v 0.350484 0.056277 0.523318
v 0.365931 0.056277 0.523318
v 0.350484 0.068994 0.508156
v 0.365931 0.068994 0.508156
v 0.350484 0.097363 0.517449
v 0.365931 0.097363 0.517449
v 0.350484 0.127200 0.515493
v 0.365931 0.129157 0.549731
v 0.350484 0.129157 0.549731
v 0.365931 0.127200 0.515493
v 0.365931 0.103722 0.523808
v 0.350484 0.103722 0.523808
v 0.365931 0.106168 0.540927
v 0.350484 0.106168 0.540927
v 0.365931 0.102254 0.560492
v 0.350484 0.102254 0.560492
v 0.350484 0.089538 0.558536
v 0.365931 0.073885 0.555601
v 0.350484 0.073885 0.555601
v 0.365931 0.089538 0.558536
v 0.350484 0.096385 0.541416
v 0.365931 0.096385 0.541416
v 0.350484 0.092472 0.524297
v 0.365931 0.092472 0.524297
v 0.365931 0.073396 0.518916
v 0.350484 0.073396 0.518916
v 0.365931 0.068994 0.532123
v 0.350484 0.068994 0.532123
v 0.362873 0.092989 0.390274
v 0.347890 0.130228 0.394235
v 0.347890 0.092989 0.390274
v 0.362873 0.130228 0.394235
v 0.347890 0.132606 0.333226
v 0.362873 0.132606 0.333226
v 0.362873 0.093782 0.319756
v 0.347890 0.093782 0.319756
v 0.362873 0.055750 0.330056
v 0.347890 0.055750 0.330056
v 0.362873 0.062088 0.364919
v 0.347890 0.062088 0.364919
v 0.362873 0.057334 0.396612
v 0.347890 0.057334 0.396612
v 0.347890 0.121513 0.384727
v 0.362873 0.101705 0.378389
v 0.347890 0.101705 0.378389
v 0.362873 0.121513 0.384727
v 0.347890 0.102497 0.360958
v 0.362873 0.102497 0.360958
v 0.347890 0.121513 0.366504
v 0.362873 0.121513 0.366504
v 0.362873 0.102497 0.351450
v 0.347890 0.101705 0.333226
v 0.347890 0.102497 0.351450
v 0.362873 0.101705 0.333226
v 0.347890 0.123890 0.338772
v 0.362873 0.123890 0.338772
v 0.362873 0.123098 0.356204
v 0.347890 0.123098 0.356204
v 0.347890 0.085859 0.334018
v 0.362873 0.088235 0.379973
v 0.347890 0.088235 0.379973
v 0.362873 0.085859 0.334018
v 0.362873 0.072389 0.379181
v 0.347890 0.072389 0.379181
v 0.347890 0.068427 0.341149
v 0.362873 0.068427 0.341149
v 0.547194 0.211769 0.238709
v 0.609562 0.180920 0.651436
v 0.547194 0.211768 0.651436
v 0.609562 0.180920 0.238709
v 0.510310 0.265418 0.651436
v 0.510310 0.265419 0.238709
v 0.493544 0.306997 0.651436
v 0.493544 0.306998 0.238709
v 0.480132 0.307668 0.238709
v 0.480132 0.307668 0.651436
v 0.442577 0.253348 0.238709
v 0.442577 0.253347 0.651436
v 0.395633 0.214452 0.238709
v 0.395633 0.214451 0.651436
v 0.350701 0.195003 0.238709
v 0.350701 0.195003 0.651436
v 0.337959 0.177567 0.238709
v 0.337959 0.177566 0.651436
v 0.325888 0.192320 0.651436
v 0.325888 0.192321 0.238709
v 0.385574 0.225851 0.651436
v 0.385574 0.225852 0.238709
v 0.439224 0.271454 0.651436
v 0.439224 0.271454 0.238709
v 0.472084 0.321080 0.651436
v 0.472084 0.321081 0.238709
v 0.490191 0.329798 0.651436
v 0.490191 0.329799 0.238709
v 0.504274 0.319739 0.651436
v 0.504274 0.319739 0.238709
v 0.521710 0.273466 0.238709
v 0.521710 0.273466 0.651436
v 0.557924 0.217134 0.238709
v 0.557924 0.217133 0.651436
v 0.631693 0.182261 0.651436
v 0.631693 0.182261 0.238709
v 0.620963 0.169520 0.238708
v 0.620963 0.169519 0.651436
v 0.432452 0.032323 0.637743
v 0.433916 0.025000 0.620738
v 0.433916 0.025000 0.637743
v 0.432452 0.032323 0.620738
v 0.500558 0.025000 0.637743
v 0.500558 0.025000 0.620738
v 0.507148 0.086515 0.637743
v 0.507148 0.086515 0.620738
v 0.526189 0.135580 0.637743
v 0.526189 0.135581 0.620738
v 0.449295 0.138510 0.620738
v 0.449295 0.138509 0.637743
v 0.453689 0.080656 0.620738
v 0.453689 0.080656 0.637743
v 0.460280 0.126792 0.620738
v 0.488108 0.124596 0.637743
v 0.460280 0.126792 0.637743
v 0.488108 0.124596 0.620738
v 0.475659 0.085050 0.620738
v 0.475659 0.085050 0.637743
v 0.463209 0.084318 0.620738
v 0.463209 0.084318 0.637743
v 0.494699 0.122399 0.620738
v 0.514472 0.122399 0.637743
v 0.494699 0.122399 0.637743
v 0.514472 0.122399 0.620738
v 0.500558 0.087980 0.620738
v 0.500558 0.087980 0.637743
v 0.485179 0.090177 0.620738
v 0.485179 0.090177 0.637743
v 0.491770 0.033056 0.637743
v 0.473462 0.034520 0.620738
v 0.473462 0.034520 0.637743
v 0.491770 0.033056 0.620738
v 0.482982 0.071869 0.637743
v 0.482982 0.071869 0.620738
v 0.494699 0.073333 0.637743
v 0.494699 0.073333 0.620738
v 0.463209 0.034520 0.637743
v 0.444901 0.033056 0.620738
v 0.444901 0.033056 0.637743
v 0.463209 0.034520 0.620738
v 0.461745 0.067475 0.637743
v 0.461745 0.067475 0.620738
v 0.477123 0.066010 0.637743
v 0.477123 0.066010 0.620738
v 0.496164 0.029394 0.628989
v 0.460280 0.079924 0.628989
v 0.438311 0.029394 0.628989
v 0.499825 0.077727 0.628989
v 0.455886 0.130454 0.628989
v 0.520330 0.126792 0.628989
v 0.494900 0.072321 0.641751
v 0.497115 0.072321 0.645587
v 0.492685 0.071135 0.645587
v 0.500357 0.075564 0.645587
v 0.496521 0.075564 0.638943
v 0.501544 0.079993 0.645587
v 0.497115 0.079993 0.637915
v 0.496521 0.084423 0.638943
v 0.500357 0.084423 0.645587
v 0.497115 0.087665 0.645587
v 0.494900 0.087665 0.641751
v 0.492685 0.088852 0.645587
v 0.490471 0.072321 0.641751
v 0.488850 0.075564 0.638943
v 0.488256 0.079993 0.637915
v 0.488850 0.084423 0.638943
v 0.490471 0.087665 0.641751
v 0.488256 0.072321 0.645587
v 0.485014 0.075564 0.645587
v 0.483827 0.079993 0.645587
v 0.485014 0.084423 0.645587
v 0.488256 0.087665 0.645587
v 0.490471 0.072321 0.649423
v 0.488850 0.075564 0.652230
v 0.488256 0.079993 0.653258
v 0.488850 0.084423 0.652230
v 0.490471 0.087665 0.649423
v 0.494900 0.072321 0.649423
v 0.496521 0.075564 0.652230
v 0.497115 0.079993 0.653258
v 0.496521 0.084423 0.652230
v 0.494900 0.087665 0.649423
v 0.460280 0.126792 0.637566
v 0.449295 0.138509 0.637566
v 0.453689 0.080656 0.637566
v 0.463209 0.084318 0.637566
v 0.488108 0.124596 0.637566
v 0.475659 0.085050 0.637566
v 0.485179 0.090177 0.637566
v 0.494699 0.122399 0.637566
v 0.500558 0.087980 0.637566
v 0.432452 0.032323 0.637566
v 0.461745 0.067475 0.637566
v 0.444901 0.033056 0.637566
v 0.477123 0.066010 0.637566
v 0.463209 0.034520 0.637566
v 0.473462 0.034520 0.637566
v 0.482982 0.071869 0.637566
v 0.491770 0.033056 0.637566
v 0.433916 0.025000 0.637566
v 0.500558 0.025000 0.637566
v 0.526189 0.135580 0.637566
v 0.514472 0.122399 0.637566
v 0.494699 0.073333 0.637566
v 0.507148 0.086515 0.637566
v 0.417792 0.174250 0.632492
v 0.411819 0.169024 0.632492
v 0.416597 0.168875 0.632492
v 0.417941 0.177236 0.632492
v 0.420927 0.173952 0.632492
v 0.421524 0.176639 0.632492
v 0.423166 0.182909 0.632492
v 0.421225 0.169024 0.632492
v 0.424659 0.169024 0.632492
v 0.418837 0.184552 0.632492
v 0.419882 0.180670 0.632492
v 0.439071 0.174102 0.632492
v 0.431307 0.174401 0.632492
v 0.435339 0.171116 0.632492
v 0.443103 0.179029 0.632492
v 0.440863 0.168279 0.632492
v 0.443401 0.168578 0.632492
v 0.438026 0.179178 0.632492
v 0.434891 0.174998 0.632492
v 0.432800 0.178880 0.632492
v 0.428919 0.178880 0.632492
v 0.427276 0.175894 0.632492
v 0.431307 0.168428 0.632492
v 0.427575 0.167533 0.632492
v 0.450652 0.167016 0.632492
v 0.448413 0.176720 0.632492
v 0.447368 0.166120 0.632492
v 0.452743 0.176720 0.632492
v 0.452467 0.178511 0.632492
v 0.448286 0.182094 0.632492
v 0.448286 0.178511 0.632492
v 0.453064 0.181945 0.632492
v 0.459036 0.167446 0.632492
v 0.458887 0.175957 0.632492
v 0.455453 0.167446 0.632492
v 0.465904 0.167446 0.632492
v 0.462022 0.166700 0.632492
v 0.465456 0.181630 0.632492
v 0.462022 0.181332 0.632492
v 0.462171 0.174613 0.632492
v 0.458439 0.180734 0.632492
v 0.454706 0.179241 0.632492
v 0.472740 0.172640 0.632492
v 0.468559 0.168609 0.632492
v 0.471844 0.168011 0.632492
v 0.473038 0.175476 0.632492
v 0.477070 0.171594 0.632492
v 0.477219 0.175178 0.632492
v 0.482146 0.166966 0.632492
v 0.478264 0.166369 0.632492
v 0.477368 0.182345 0.632492
v 0.473636 0.183240 0.632492
v 0.475427 0.178463 0.632492
v 0.489189 0.181342 0.632492
v 0.486800 0.180446 0.632492
v 0.485606 0.171488 0.632492
v 0.489338 0.171787 0.632492
v 0.494713 0.180596 0.632492
v 0.484710 0.184776 0.632492
v 0.496057 0.183731 0.632492
v 0.482470 0.181939 0.632492
v 0.501753 0.180674 0.632492
v 0.497871 0.183959 0.632492
v 0.497722 0.180674 0.632492
v 0.501902 0.182914 0.632492
v 0.497189 0.167301 0.632492
v 0.496144 0.177753 0.632492
v 0.493605 0.168048 0.632492
v 0.499428 0.177454 0.632492
v 0.510088 0.181106 0.632492
v 0.506207 0.180211 0.632492
v 0.503519 0.175881 0.632492
v 0.506654 0.175881 0.632492
v 0.503818 0.170357 0.632492
v 0.506953 0.171999 0.632492
v 0.510088 0.168416 0.632492
v 0.510536 0.171999 0.632492
v 0.514269 0.172596 0.632492
v 0.513970 0.178718 0.632492
v 0.509193 0.177822 0.632492
v 0.512029 0.175134 0.632492
v 0.523163 0.168165 0.632492
v 0.522118 0.177123 0.632492
v 0.520475 0.168016 0.632492
v 0.528538 0.175780 0.632492
v 0.528239 0.168464 0.632492
v 0.531524 0.169658 0.632492
v 0.526895 0.183394 0.632492
v 0.525104 0.178915 0.632492
v 0.530180 0.182648 0.632492
v 0.521222 0.183095 0.632492
v 0.517639 0.181453 0.632492
f 1 2 3
f 4 2 1
f 5 6 7
f 5 3 6
f 1 3 5
f 8 9 10
f 11 8 12
f 13 11 12
f 8 14 9
f 11 14 8
f 15 16 17
f 18 16 15
f 19 20 16
f 21 20 19
f 18 19 16
f 22 23 24
f 25 23 22
f 26 27 23
f 28 27 26
f 25 26 23
f 29 30 31
f 32 30 29
f 33 34 30
f 32 33 30
f 35 36 37
f 38 36 35
f 39 38 40
f 41 39 40
f 42 43 39
f 44 42 39
f 45 46 36
f 47 45 36
f 43 36 38
f 39 43 38
f 43 47 36
f 48 49 50
f 51 49 48
f 52 53 54
f 55 52 54
f 56 57 58
f 52 56 58
f 59 60 49
f 61 59 49
f 53 49 51
f 52 49 53
f 58 61 49
f 52 58 49
f 62 63 64
f 65 66 67
f 64 66 65
f 68 64 65
f 62 64 68
f 69 70 71
f 72 70 69
f 72 73 70
f 74 73 72
f 73 75 76
f 74 75 73
f 76 77 78
f 75 77 76
f 78 79 80
f 77 79 78
f 80 81 82
f 79 81 80
f 81 71 82
f 69 71 81
f 83 84 85
f 86 84 83
f 84 87 85
f 88 87 84
f 88 89 87
f 90 89 88
f 89 86 83
f 90 86 89
f 91 92 93
f 94 92 91
f 94 95 92
f 96 95 94
f 95 97 98
f 96 97 95
f 98 91 93
f 97 91 98
f 99 100 101
f 102 100 99
f 101 103 104
f 100 103 101
f 103 105 104
f 106 105 103
f 106 99 105
f 102 99 106
f 95 76 92
f 73 76 95
f 89 93 87
f 98 93 89
f 87 92 85
f 93 92 87
f 92 76 78
f 99 78 105
f 105 78 80
f 104 105 80
f 70 95 98
f 73 95 70
f 98 89 83
f 92 78 99
f 104 80 82
f 70 98 83
f 85 99 101
f 92 99 85
f 101 104 82
f 71 101 82
f 83 85 71
f 70 83 71
f 85 101 71
f 79 103 81
f 84 86 100
f 97 90 88
f 91 97 88
f 91 88 84
f 94 91 84
f 102 84 100
f 106 103 79
f 77 106 79
f 75 74 77
f 100 69 81
f 103 100 81
f 97 86 90
f 94 84 102
f 77 102 106
f 86 72 69
f 100 86 69
f 77 94 102
f 97 72 86
f 74 72 97
f 77 74 94
f 74 97 96
f 74 96 94
f 107 108 109
f 110 108 107
f 111 109 112
f 107 109 111
f 113 112 114
f 111 112 113
f 115 114 116
f 113 114 115
f 117 115 116
f 118 115 117
f 119 118 117
f 120 118 119
f 121 120 119
f 122 120 121
f 108 122 121
f 110 122 108
f 123 124 125
f 126 124 123
f 127 123 128
f 126 123 127
f 129 128 130
f 127 128 129
f 131 130 132
f 129 130 131
f 125 131 132
f 124 131 125
f 133 134 135
f 136 134 133
f 137 136 133
f 138 136 137
f 139 138 137
f 140 138 139
f 141 139 142
f 140 139 141
f 143 142 144
f 141 142 143
f 134 144 135
f 143 144 134
f 123 121 128
f 108 121 123
f 128 121 132
f 130 128 132
f 139 119 142
f 121 119 139
f 119 117 144
f 142 119 144
f 109 114 112
f 108 123 125
f 109 108 125
f 121 139 137
f 132 121 137
f 144 117 116
f 135 144 116
f 125 132 114
f 109 125 114
f 132 137 133
f 133 135 116
f 114 133 116
f 132 133 114
f 111 113 131
f 107 111 131
f 136 113 115
f 134 136 115
f 143 134 115
f 118 143 115
f 107 131 124
f 127 129 131
f 136 131 113
f 138 131 136
f 141 143 118
f 120 141 118
f 126 107 124
f 110 107 126
f 140 131 138
f 127 131 140
f 122 140 141
f 120 122 141
f 126 127 122
f 110 126 122
f 122 127 140
f 145 146 147
f 148 146 145
f 147 149 150
f 146 149 147
f 150 151 152
f 149 151 150
f 151 153 152
f 154 153 151
f 154 155 153
f 156 155 154
f 156 157 155
f 158 157 156
f 158 145 157
f 148 145 158
f 159 160 161
f 162 160 159
f 160 163 164
f 162 163 160
f 164 165 166
f 163 165 164
f 165 161 166
f 159 161 165
f 167 168 169
f 170 168 167
f 168 171 169
f 172 171 168
f 172 173 171
f 174 173 172
f 173 170 167
f 174 170 173
f 162 158 163
f 148 158 162
f 163 158 165
f 174 156 170
f 158 156 174
f 168 156 154
f 170 156 168
f 162 159 146
f 148 162 146
f 158 174 172
f 165 158 172
f 168 154 151
f 159 165 149
f 146 159 149
f 172 168 151
f 165 172 151
f 165 151 149
f 166 147 150
f 161 147 166
f 164 166 150
f 150 152 169
f 171 150 169
f 153 169 152
f 167 169 153
f 160 147 161
f 145 147 160
f 173 150 171
f 164 150 173
f 155 167 153
f 160 164 157
f 145 160 157
f 167 164 173
f 155 164 167
f 155 157 164
f 175 176 177
f 178 176 175
f 179 175 177
f 180 175 179
f 181 180 179
f 182 180 181
f 183 182 181
f 184 182 183
f 185 183 186
f 184 183 185
f 178 186 176
f 185 186 178
f 187 188 189
f 190 188 187
f 191 189 192
f 187 189 191
f 193 191 192
f 194 191 193
f 188 194 193
f 190 194 188
f 195 196 197
f 198 196 195
f 199 198 195
f 200 198 199
f 201 199 202
f 200 199 201
f 196 202 197
f 201 202 196
f 185 178 198
f 184 185 198
f 190 200 194
f 194 200 201
f 191 194 201
f 198 178 175
f 196 198 175
f 184 198 200
f 191 201 196
f 187 191 196
f 180 196 175
f 184 200 190
f 187 196 180
f 187 184 190
f 182 184 187
f 182 187 180
f 183 176 186
f 197 179 177
f 192 189 197
f 202 192 197
f 193 192 202
f 199 193 202
f 195 197 177
f 176 195 177
f 197 189 179
f 199 188 193
f 176 199 195
f 183 199 176
f 179 189 181
f 183 188 199
f 188 181 189
f 183 181 188
f 203 204 205
f 206 204 203
f 207 206 203
f 208 206 207
f 209 208 207
f 210 208 209
f 211 210 209
f 212 210 211
f 213 211 214
f 212 211 213
f 213 214 215
f 216 213 215
f 216 215 217
f 218 216 217
f 218 217 219
f 220 218 219
f 220 219 221
f 222 220 221
f 205 222 221
f 204 222 205
f 223 224 225
f 226 223 225
f 227 225 228
f 226 225 227
f 229 227 228
f 230 227 229
f 231 230 229
f 232 230 231
f 233 232 231
f 234 232 233
f 235 234 233
f 236 234 235
f 237 236 235
f 238 236 237
f 238 237 239
f 240 238 239
f 241 240 239
f 242 240 241
f 242 241 224
f 223 242 224
f 208 210 212
f 213 216 234
f 212 213 234
f 238 234 236
f 227 230 232
f 216 218 232
f 234 216 232
f 206 222 204
f 212 234 238
f 232 218 220
f 227 232 220
f 212 238 240
f 208 212 240
f 227 220 222
f 208 240 242
f 226 227 222
f 242 223 206
f 208 242 206
f 206 226 222
f 206 223 226
f 221 225 205
f 228 225 221
f 237 235 233
f 229 228 221
f 231 229 221
f 214 211 215
f 211 209 207
f 207 203 205
f 224 205 225
f 231 221 219
f 207 205 224
f 217 231 219
f 207 224 241
f 233 231 217
f 215 233 217
f 239 207 241
f 211 207 239
f 215 237 233
f 211 237 215
f 211 239 237
f 243 244 245
f 246 244 243
f 247 246 248
f 249 246 247
f 250 251 244
f 249 250 244
f 249 244 246
f 252 253 254
f 255 253 252
f 254 256 257
f 253 256 254
f 257 258 259
f 256 258 257
f 259 260 261
f 258 260 259
f 262 263 261
f 260 262 261
f 262 252 263
f 255 252 262
f 264 265 266
f 267 264 266
f 265 268 269
f 264 268 265
f 269 270 271
f 268 270 269
f 270 272 271
f 273 272 270
f 267 266 272
f 273 267 272
f 264 262 268
f 255 262 264
f 262 260 268
f 255 264 267
f 253 255 267
f 270 260 258
f 268 260 270
f 267 273 256
f 253 267 256
f 273 270 258
f 256 273 258
f 272 257 259
f 271 272 259
f 269 271 259
f 261 269 259
f 263 252 261
f 266 257 272
f 254 257 266
f 261 265 269
f 252 265 261
f 265 254 266
f 252 254 265
f 274 275 276
f 277 275 274
f 278 277 274
f 279 277 278
f 280 279 278
f 281 279 280
f 282 280 283
f 281 280 282
f 284 282 283
f 285 282 284
f 286 285 284
f 287 285 286
f 287 286 288
f 289 287 288
f 290 289 288
f 291 289 290
f 292 291 290
f 293 291 292
f 294 293 292
f 295 293 294
f 295 294 276
f 275 295 276
f 281 282 279
f 285 289 291
f 287 289 285
f 295 291 293
f 279 295 275
f 277 279 275
f 295 285 291
f 279 282 295
f 295 282 285
f 294 292 290
f 288 284 290
f 286 284 288
f 283 280 284
f 278 274 276
f 294 278 276
f 294 290 284
f 280 294 284
f 280 278 294
f 296 297 298
f 299 297 296
f 300 296 298
f 301 300 298
f 302 300 301
f 303 302 301
f 299 303 297
f 302 303 299
f 303 301 298
f 297 303 298
f 304 305 306
f 307 305 304
f 308 299 296
f 309 299 308
f 310 308 296
f 300 310 296
f 311 310 300
f 302 311 300
f 311 302 299
f 309 311 299
f 311 312 310
f 313 312 311
f 314 311 309
f 313 311 314
f 314 309 308
f 315 314 308
f 312 315 308
f 310 312 308
f 307 304 312
f 313 307 312
f 305 313 314
f 307 313 305
f 305 314 315
f 306 305 315
f 312 306 315
f 304 306 312
f 316 317 318
f 319 317 316
f 320 316 318
f 321 320 318
f 322 320 321
f 323 322 321
f 319 323 317
f 322 323 319
f 323 321 318
f 317 323 318
f 324 325 326
f 327 325 324
f 328 319 316
f 329 319 328
f 330 328 316
f 320 330 316
f 322 330 320
f 331 330 322
f 331 322 319
f 329 331 319
f 331 332 330
f 333 332 331
f 334 331 329
f 333 331 334
f 334 329 328
f 335 334 328
f 330 335 328
f 332 335 330
f 327 324 332
f 333 327 332
f 325 333 334
f 327 333 325
f 325 334 335
f 326 325 335
f 324 326 335
f 332 324 335
f 336 337 338
f 339 337 336
f 340 339 336
f 341 339 340
f 342 341 340
f 343 341 342
f 344 343 342
f 345 343 344
f 346 344 347
f 345 344 346
f 348 347 349
f 346 347 348
f 350 349 351
f 348 349 350
f 352 351 353
f 350 351 352
f 354 353 355
f 352 353 354
f 338 354 355
f 337 354 338
f 356 357 358
f 359 357 356
f 360 358 361
f 356 358 360
f 362 361 363
f 360 361 362
f 364 362 363
f 365 362 364
f 366 365 364
f 367 365 366
f 368 367 366
f 369 367 368
f 370 369 368
f 371 369 370
f 372 371 370
f 373 371 372
f 374 372 375
f 373 372 374
f 376 375 377
f 374 375 376
f 359 377 357
f 376 377 359
f 343 345 341
f 371 348 369
f 346 348 371
f 374 376 359
f 369 348 365
f 367 369 365
f 350 352 354
f 339 354 337
f 373 346 371
f 345 346 373
f 348 350 354
f 365 348 354
f 345 373 374
f 362 365 354
f 341 374 359
f 345 374 341
f 360 362 354
f 339 341 359
f 339 360 354
f 339 359 356
f 339 356 360
f 361 338 355
f 363 361 355
f 375 357 377
f 368 366 364
f 364 363 355
f 353 364 355
f 344 342 340
f 361 336 338
f 358 336 361
f 351 364 353
f 368 364 351
f 357 336 358
f 349 368 351
f 340 336 357
f 370 368 349
f 347 370 349
f 375 340 357
f 344 340 375
f 344 372 370
f 347 344 370
f 344 375 372
f 378 379 380
f 381 379 378
f 381 382 379
f 383 382 381
f 383 384 382
f 385 384 383
f 385 386 384
f 387 386 385
f 387 388 386
f 389 388 387
f 389 390 388
f 391 390 389
f 390 392 393
f 391 392 390
f 392 394 393
f 395 394 392
f 395 396 394
f 397 396 395
f 396 398 399
f 397 398 396
f 399 400 401
f 398 400 399
f 401 402 403
f 400 402 401
f 403 404 405
f 402 404 403
f 405 406 407
f 404 406 405
f 407 408 409
f 406 408 407
f 409 378 380
f 408 378 409
f 402 406 404
f 398 395 400
f 397 395 398
f 391 389 387
f 392 391 387
f 383 381 378
f 385 383 378
f 402 408 406
f 400 408 402
f 400 392 387
f 395 392 400
f 408 385 378
f 387 385 408
f 400 387 408
f 382 384 379
f 386 390 393
f 388 390 386
f 396 399 401
f 394 396 401
f 403 405 407
f 379 409 380
f 384 409 379
f 386 393 394
f 384 386 394
f 401 403 407
f 394 401 407
f 394 407 409
f 384 394 409
f 410 411 412
f 413 411 410
f 414 412 415
f 410 412 414
f 416 415 417
f 414 415 416
f 418 417 419
f 416 417 418
f 420 418 419
f 421 418 420
f 422 421 420
f 423 421 422
f 424 423 422
f 425 423 424
f 411 425 424
f 413 425 411
f 426 427 428
f 429 427 426
f 430 426 431
f 429 426 430
f 432 431 433
f 430 431 432
f 434 433 435
f 432 433 434
f 428 434 435
f 427 434 428
f 436 437 438
f 439 437 436
f 440 439 436
f 441 439 440
f 442 441 440
f 443 441 442
f 444 442 445
f 443 442 444
f 446 445 447
f 444 445 446
f 437 447 438
f 446 447 437
f 414 416 434
f 410 414 434
f 439 416 418
f 437 439 418
f 446 437 418
f 421 446 418
f 410 434 427
f 430 432 434
f 439 434 416
f 441 434 439
f 444 446 421
f 423 444 421
f 429 410 427
f 413 410 429
f 443 434 441
f 430 434 443
f 425 443 444
f 423 425 444
f 429 430 425
f 413 429 425
f 425 430 443
f 426 424 431
f 411 424 426
f 431 424 435
f 433 431 435
f 442 422 445
f 424 422 442
f 422 420 447
f 445 422 447
f 412 417 415
f 411 426 428
f 412 411 428
f 424 442 440
f 435 424 440
f 447 420 419
f 438 447 419
f 428 435 417
f 412 428 417
f 435 440 436
f 436 438 419
f 417 436 419
f 435 436 417
f 448 449 450
f 451 449 448
f 451 452 449
f 453 452 451
f 452 454 455
f 453 454 452
f 455 456 457
f 454 456 455
f 457 458 459
f 456 458 457
f 459 460 461
f 458 460 459
f 460 450 461
f 448 450 460
f 462 463 464
f 465 463 462
f 463 466 464
f 467 466 463
f 467 468 466
f 469 468 467
f 468 465 462
f 469 465 468
f 470 471 472
f 473 471 470
f 473 474 471
f 475 474 473
f 474 476 477
f 475 476 474
f 477 470 472
f 476 470 477
f 478 479 480
f 481 479 478
f 480 482 483
f 479 482 480
f 482 484 483
f 485 484 482
f 485 478 484
f 481 478 485
f 458 482 460
f 463 465 479
f 476 469 467
f 470 476 467
f 470 467 463
f 473 470 463
f 481 463 479
f 485 482 458
f 456 485 458
f 454 453 456
f 479 448 460
f 482 479 460
f 476 465 469
f 473 463 481
f 456 481 485
f 465 451 448
f 479 465 448
f 456 473 481
f 476 451 465
f 453 451 476
f 456 453 473
f 453 476 475
f 453 475 473
f 474 455 471
f 452 455 474
f 468 472 466
f 477 472 468
f 466 471 464
f 472 471 466
f 471 455 457
f 478 457 484
f 484 457 459
f 483 484 459
f 449 474 477
f 452 474 449
f 477 468 462
f 471 457 478
f 483 459 461
f 449 477 462
f 464 478 480
f 471 478 464
f 480 483 461
f 450 480 461
f 462 464 450
f 449 462 450
f 464 480 450
f 486 487 488
f 489 487 486
f 490 486 488
f 491 486 490
f 492 491 490
f 493 491 492
f 494 492 495
f 493 492 494
f 496 495 497
f 494 495 496
f 498 497 499
f 496 497 498
f 500 499 501
f 498 499 500
f 502 501 503
f 500 501 502
f 504 502 503
f 505 502 504
f 506 505 504
f 507 505 506
f 508 507 506
f 509 507 508
f 510 509 508
f 511 509 510
f 512 511 510
f 513 511 512
f 514 513 512
f 515 513 514
f 516 514 517
f 515 514 516
f 518 517 519
f 516 517 518
f 520 518 519
f 521 518 520
f 522 520 523
f 521 520 522
f 489 523 487
f 522 523 489
f 493 486 491
f 494 496 498
f 500 502 505
f 513 509 511
f 513 515 516
f 521 522 489
f 498 500 505
f 507 498 505
f 486 521 489
f 518 521 486
f 509 498 507
f 516 518 486
f 493 516 486
f 494 498 509
f 513 494 509
f 513 516 493
f 513 493 494
f 520 487 523
f 517 514 512
f 512 510 508
f 501 504 503
f 497 501 499
f 488 492 490
f 487 519 488
f 520 519 487
f 506 504 501
f 497 506 501
f 488 517 492
f 519 517 488
f 497 508 506
f 517 512 492
f 495 508 497
f 512 508 495
f 492 512 495
f 524 525 526
f 527 525 524
f 525 528 526
f 529 528 525
f 529 530 528
f 531 530 529
f 531 532 530
f 533 532 531
f 532 534 535
f 533 534 532
f 535 536 537
f 534 536 535
f 537 527 524
f 536 527 537
f 538 539 540
f 541 539 538
f 539 542 543
f 541 542 539
f 543 544 545
f 542 544 543
f 544 540 545
f 538 540 544
f 546 547 548
f 549 547 546
f 547 550 551
f 549 550 547
f 551 552 553
f 550 552 551
f 552 548 553
f 546 548 552
f 554 555 556
f 557 555 554
f 555 558 556
f 559 558 555
f 559 560 558
f 561 560 559
f 560 557 554
f 561 557 560
f 562 563 564
f 565 563 562
f 563 566 564
f 567 566 563
f 567 568 566
f 569 568 567
f 568 565 562
f 569 565 568
f 538 544 536
f 534 538 536
f 546 552 542
f 541 546 542
f 552 550 542
f 544 527 536
f 542 527 544
f 567 563 527
f 569 555 565
f 559 555 569
f 565 557 563
f 555 557 565
f 527 529 525
f 563 529 527
f 533 541 538
f 534 533 538
f 541 549 546
f 542 567 527
f 559 569 567
f 557 529 563
f 533 549 541
f 542 559 567
f 550 559 542
f 561 529 557
f 531 529 561
f 549 531 550
f 533 531 549
f 531 561 559
f 550 531 559
f 570 571 572
f 573 571 570
f 573 574 571
f 575 574 573
f 576 577 578
f 576 579 577
f 580 579 576
f 580 581 579
f 582 581 580
f 583 584 581
f 582 583 581
f 585 583 586
f 584 583 585
f 585 586 587
f 576 578 588
f 589 576 588
f 580 576 589
f 590 580 589
f 582 580 590
f 591 582 590
f 583 582 591
f 592 583 591
f 586 583 592
f 586 592 587
f 588 578 593
f 588 593 594
f 589 588 594
f 595 589 594
f 590 589 595
f 596 590 595
f 591 590 596
f 591 596 597
f 592 591 597
f 587 592 597
f 578 598 593
f 599 593 598
f 594 593 599
f 600 594 599
f 595 594 600
f 601 595 600
f 596 595 601
f 602 596 601
f 597 596 602
f 587 597 602
f 578 603 598
f 603 599 598
f 604 599 603
f 604 600 599
f 605 600 604
f 606 601 600
f 605 606 600
f 607 602 601
f 606 607 601
f 607 587 602
f 577 603 578
f 577 604 603
f 579 604 577
f 579 605 604
f 581 605 579
f 581 606 605
f 584 606 581
f 584 607 606
f 585 607 584
f 585 587 607
f 608 609 610
f 611 608 610
f 612 613 614
f 615 612 614
f 616 614 613
f 611 610 617
f 613 611 617
f 618 617 619
f 620 621 622
f 623 620 622
f 622 621 619
f 624 622 619
f 619 617 625
f 626 619 625
f 612 609 608
f 627 609 612
f 628 612 615
f 613 617 618
f 623 618 620
f 626 624 619
f 627 612 628
f 623 613 618
f 616 613 623
f 626 629 624
f 630 629 626
f 628 616 630
f 627 628 630
f 616 623 629
f 630 616 629
f 631 632 633
f 634 632 631
f 635 634 631
f 636 634 635
f 637 635 638
f 639 637 638
f 640 632 634
f 641 640 634
f 637 636 635
f 636 640 641
f 637 640 636
f 642 643 644
f 645 642 646
f 647 645 646
f 645 648 649
f 650 651 652
f 649 650 652
f 653 652 654
f 643 652 653
f 645 649 642
f 649 652 643
f 642 649 643
f 655 656 657
f 658 656 655
f 659 660 661
f 662 660 659
f 663 664 665
f 666 664 667
f 668 669 670
f 666 668 670
f 670 671 672
f 664 672 665
f 666 670 664
f 670 672 664
f 673 674 675
f 676 674 673
f 677 676 673
f 678 676 677
f 679 677 680
f 679 681 682
f 682 674 676
f 679 678 677
f 683 682 676
f 678 682 683
f 679 682 678
f 684 685 686
f 687 684 686
f 688 689 684
f 690 689 688
f 685 689 691
f 684 689 685
f 692 693 694
f 695 693 692
f 696 697 698
f 699 697 696
f 700 701 702
f 703 702 704
f 705 703 704
f 706 705 704
f 707 705 706
f 708 709 706
f 710 702 703
f 700 702 710
f 711 707 706
f 709 711 706
f 711 700 710
f 709 700 711
f 712 713 714
f 715 713 716
f 717 715 716
f 715 718 719
f 720 718 715
f 719 721 722
f 713 722 714
f 719 722 713
f 715 719 713
