# Original shape: m462.obj
# No processing applied - exact copy of source file
# Generated on 2025-10-13 14:33:59

v 0.071884 0.025000 0.906093
v 0.636753 0.025000 0.906093
v 0.634493 0.331254 0.906093
v 0.026695 0.234784 0.975000
v 0.154355 0.500000 0.974081
v 0.154920 0.501531 0.026838
v 0.071884 0.317779 0.026838
v 0.352624 0.603820 0.026838
v 0.637317 0.025000 0.974081
v 0.636753 0.025000 0.026838
v 0.636753 0.345648 0.026838
v 0.071884 0.025000 0.026838
v 0.071884 0.025000 0.974081
v 0.071884 0.326048 0.974081
v 0.352624 0.603820 0.974081
v 0.550328 0.500919 0.974081
v 0.563320 0.501225 0.025919
v 0.679683 0.285316 0.972244
v 0.680247 0.285316 0.025000
v 0.550328 0.498162 0.906093
v 0.352624 0.599533 0.906093
v 0.154920 0.497244 0.906093
v 0.074708 0.331254 0.906093
v 0.025000 0.218246 0.027756
v 0.637317 0.325129 0.974081
f 1 2 3
f 4 5 6
f 7 6 8
f 9 10 11
f 12 13 14
f 15 16 17
f 5 15 8
f 16 18 19
f 1 3 20
f 1 20 21
f 1 21 22
f 1 22 23
f 4 6 24
f 7 8 17
f 7 17 11
f 7 11 10
f 7 10 12
f 9 11 25
f 12 14 7
f 15 17 8
f 5 8 6
f 16 19 17
