# Original shape: m64.obj
# No processing applied - exact copy of source file
# Generated on 2025-10-03 18:02:05

v 0.331771 0.065174 0.126253
v 0.385491 0.025000 0.122286
v 0.395387 0.034128 0.120004
v 0.388318 0.122367 0.113882
v 0.297842 0.112300 0.124689
v 0.351562 0.135897 0.116262
v 0.315513 0.147467 0.113173
v 0.327530 0.160197 0.108047
v 0.297842 0.153881 0.114451
v 0.290774 0.146525 0.120840
v 0.331771 0.065174 0.077647
v 0.351562 0.135897 0.087638
v 0.388318 0.122367 0.090019
v 0.395387 0.034128 0.083896
v 0.385491 0.025000 0.081614
v 0.297842 0.112300 0.079211
v 0.315513 0.147467 0.090727
v 0.327530 0.160197 0.095853
v 0.290774 0.146525 0.083060
v 0.297842 0.153881 0.089449
v 0.235640 0.477230 0.101950
v 0.252604 0.516813 0.101950
v 0.347050 0.418857 0.101950
v 0.232812 0.427751 0.101950
v 0.323289 0.545087 0.101950
v 0.399628 0.536605 0.101950
v 0.526860 0.472989 0.101950
v 0.545429 0.361383 0.101950
v 0.636609 0.316155 0.101950
v 0.649851 0.382512 0.101950
v 0.704985 0.303346 0.101950
v 0.686607 0.347170 0.101950
v 0.550893 0.102602 0.101950
v 0.665402 0.227006 0.101950
v 0.497173 0.160563 0.101950
v 0.699330 0.225593 0.101950
v 0.700744 0.198733 0.101950
v 0.685193 0.176114 0.101950
v 0.235329 0.258679 0.175339
v 0.196623 0.239395 0.165371
v 0.210872 0.170879 0.119406
v 0.264896 0.203932 0.149379
v 0.266383 0.223163 0.161229
v 0.266354 0.242318 0.170384
v 0.112850 0.181954 0.101950
v 0.201711 0.153495 0.101950
v 0.168973 0.248864 0.164099
v 0.132648 0.232162 0.150640
v 0.123516 0.222982 0.143532
v 0.119436 0.245295 0.151063
v 0.130485 0.275516 0.151336
v 0.166475 0.276870 0.164756
v 0.089835 0.240567 0.138830
v 0.048011 0.190563 0.106178
v 0.069495 0.182809 0.101950
v 0.071652 0.222765 0.130224
v 0.082936 0.228931 0.135877
v 0.040551 0.191664 0.101950
v 0.215235 0.330549 0.161845
v 0.144359 0.317495 0.142063
v 0.163542 0.403718 0.101950
v 0.111822 0.361358 0.101950
v 0.230440 0.294403 0.176169
v 0.080578 0.245089 0.133659
v 0.044547 0.278086 0.101950
v 0.095024 0.267660 0.068086
v 0.025000 0.241143 0.101950
v 0.200069 0.420573 0.101950
v 0.328840 0.346077 0.159414
v 0.263138 0.279196 0.178900
v 0.303941 0.262425 0.175542
v 0.266050 0.390807 0.135077
v 0.282152 0.438831 0.101950
v 0.319243 0.371515 0.147642
v 0.345642 0.280566 0.175616
v 0.325384 0.441005 0.101950
v 0.381558 0.420134 0.116234
v 0.422055 0.343739 0.152906
v 0.397872 0.262726 0.169448
v 0.368527 0.439060 0.101950
v 0.440711 0.295655 0.166054
v 0.416179 0.429294 0.101950
v 0.442703 0.388728 0.127763
v 0.469165 0.411138 0.101950
v 0.494266 0.276295 0.162391
v 0.493648 0.374015 0.125704
v 0.506729 0.351857 0.136286
v 0.540617 0.274195 0.157316
v 0.563842 0.369949 0.101950
v 0.572114 0.301360 0.148007
v 0.563591 0.319227 0.141789
v 0.553436 0.337971 0.133590
v 0.581279 0.272181 0.152549
v 0.601102 0.343496 0.112209
v 0.609745 0.330127 0.121691
v 0.613986 0.259339 0.146562
v 0.624327 0.304351 0.136954
v 0.617570 0.317050 0.130053
v 0.247856 0.148838 0.101950
v 0.354261 0.243082 0.167094
v 0.312730 0.202032 0.055444
v 0.367233 0.179915 0.070801
v 0.359917 0.222046 0.158106
v 0.414838 0.144799 0.101950
v 0.364687 0.200688 0.146613
v 0.463070 0.202059 0.141149
v 0.460417 0.149254 0.101950
v 0.367233 0.179915 0.133099
v 0.447761 0.262164 0.164986
v 0.542978 0.228458 0.143590
v 0.502748 0.171145 0.114837
v 0.504782 0.187566 0.127001
v 0.536405 0.181199 0.113776
v 0.576090 0.218232 0.132204
v 0.589284 0.194527 0.101950
v 0.600691 0.213787 0.121634
v 0.536405 0.181199 0.090124
v 0.567012 0.192572 0.091031
v 0.636127 0.258976 0.143706
v 0.630249 0.230179 0.128611
v 0.650889 0.227510 0.119416
v 0.642509 0.322234 0.110442
v 0.650008 0.298077 0.133870
v 0.660157 0.278069 0.140743
v 0.655936 0.288011 0.138269
v 0.663595 0.325504 0.101950
v 0.681276 0.266696 0.136863
v 0.679164 0.275437 0.136636
v 0.700574 0.319473 0.101950
v 0.696803 0.265334 0.132817
v 0.712803 0.263902 0.128766
v 0.734264 0.268384 0.124607
v 0.738256 0.291372 0.116907
v 0.677736 0.244839 0.128639
v 0.688223 0.233403 0.108854
v 0.658582 0.242023 0.071847
v 0.681078 0.258446 0.068544
v 0.692313 0.242346 0.083360
v 0.707414 0.233541 0.101950
v 0.650889 0.227510 0.084484
v 0.646081 0.220356 0.092639
v 0.729819 0.240100 0.111696
v 0.729018 0.234075 0.101950
v 0.751037 0.255077 0.120437
v 0.743155 0.318896 0.101950
v 0.783945 0.324719 0.101950
v 0.771051 0.252090 0.117443
v 0.825935 0.309013 0.110795
v 0.813804 0.294922 0.112892
v 0.803375 0.281460 0.114379
v 0.795836 0.269142 0.115150
v 0.823748 0.337311 0.101950
v 0.860668 0.349973 0.101950
v 0.909423 0.301053 0.101950
v 0.899061 0.284751 0.101950
v 0.892023 0.268548 0.101950
v 0.888765 0.252453 0.101950
v 0.807633 0.209092 0.107748
v 0.923765 0.362463 0.101950
v 0.951314 0.365902 0.101950
v 0.932845 0.349706 0.102366
v 0.922652 0.317439 0.101950
v 0.893385 0.357284 0.101950
v 0.938295 0.333894 0.101950
v 0.955897 0.350406 0.101950
v 0.975000 0.366962 0.101950
v 0.757020 0.233484 0.110788
v 0.759624 0.225508 0.101950
v 0.789488 0.209470 0.101950
v 0.819594 0.191992 0.101950
v 0.882648 0.165553 0.101950
v 0.915112 0.153588 0.101950
v 0.901146 0.168150 0.102351
v 0.908400 0.189026 0.101950
v 0.892845 0.220573 0.101950
v 0.850763 0.178100 0.101950
v 0.919750 0.173357 0.101950
v 0.933094 0.157747 0.101950
v 0.948140 0.142185 0.101950
v 0.201549 0.270459 0.030660
v 0.230801 0.223344 0.043217
v 0.210872 0.170879 0.084494
v 0.234226 0.276486 0.026176
v 0.162777 0.237093 0.045132
v 0.168973 0.248864 0.039801
v 0.166475 0.276870 0.039144
v 0.143657 0.254233 0.044677
v 0.106149 0.226148 0.062001
v 0.111696 0.252468 0.056385
v 0.082936 0.228931 0.068023
v 0.071652 0.222765 0.073676
v 0.048011 0.190563 0.097722
v 0.230440 0.294403 0.027731
v 0.184360 0.319328 0.045675
v 0.192053 0.367024 0.068088
v 0.263138 0.279196 0.025000
v 0.301095 0.280471 0.025831
v 0.285566 0.343787 0.042401
v 0.336617 0.321496 0.035484
v 0.276668 0.367496 0.054474
v 0.381558 0.420134 0.087666
v 0.395458 0.396658 0.074003
v 0.422055 0.343739 0.050993
v 0.440711 0.295655 0.037846
v 0.397872 0.262726 0.034452
v 0.432851 0.318133 0.042879
v 0.349056 0.262890 0.030807
v 0.480782 0.394274 0.089820
v 0.518997 0.329298 0.058622
v 0.494266 0.276295 0.041509
v 0.444684 0.278224 0.036509
v 0.563591 0.319227 0.062111
v 0.583061 0.340618 0.081401
v 0.592065 0.325307 0.072468
v 0.542978 0.228458 0.060310
v 0.600081 0.310180 0.064985
v 0.572114 0.301360 0.055893
v 0.606666 0.295698 0.059371
v 0.581279 0.272181 0.051351
v 0.611385 0.282319 0.056045
v 0.626327 0.331118 0.092317
v 0.634771 0.319421 0.083622
v 0.642810 0.308477 0.076111
v 0.629770 0.292121 0.061845
v 0.605598 0.224730 0.073894
v 0.579138 0.232329 0.063874
v 0.636127 0.258976 0.060194
v 0.307440 0.242920 0.034448
v 0.266383 0.223163 0.042671
v 0.403718 0.243111 0.040238
v 0.416294 0.200498 0.059805
v 0.499388 0.243993 0.048920
v 0.502296 0.225119 0.056412
v 0.502748 0.171145 0.089063
v 0.504363 0.205934 0.065878
v 0.662241 0.268039 0.062860
v 0.655936 0.288011 0.065631
v 0.696803 0.265334 0.071083
v 0.712803 0.263902 0.075134
v 0.732398 0.257035 0.080523
v 0.757632 0.275939 0.083364
v 0.731626 0.252163 0.082423
v 0.775275 0.236364 0.089454
v 0.753268 0.243574 0.087078
v 0.788892 0.289769 0.088109
v 0.850966 0.313056 0.095669
v 0.807633 0.209092 0.096153
f 1 2 3
f 1 3 4
f 5 1 6
f 6 1 4
f 7 5 6
f 8 7 6
f 9 10 7
f 5 7 10
f 9 7 8
f 11 12 13
f 14 11 13
f 11 14 15
f 16 17 12
f 12 17 18
f 16 12 11
f 17 19 20
f 18 17 20
f 16 19 17
f 21 22 23
f 24 21 23
f 23 25 26
f 23 27 28
f 23 26 27
f 29 28 30
f 22 25 23
f 30 28 27
f 31 29 32
f 32 29 30
f 33 34 35
f 36 34 37
f 33 38 34
f 34 38 37
f 39 40 41
f 39 42 43
f 39 43 44
f 39 41 42
f 45 46 41
f 47 45 41
f 48 49 45
f 47 48 45
f 47 41 40
f 50 48 51
f 52 47 40
f 49 50 53
f 50 49 48
f 54 55 56
f 55 45 57
f 57 45 49
f 57 49 53
f 58 54 56
f 54 58 55
f 55 57 56
f 52 59 60
f 61 60 59
f 61 62 60
f 47 52 51
f 52 40 63
f 51 52 60
f 51 60 62
f 48 47 51
f 64 62 65
f 64 50 51
f 64 53 50
f 64 51 62
f 65 62 66
f 57 64 56
f 56 64 67
f 57 53 64
f 64 65 67
f 59 68 61
f 63 59 52
f 69 70 71
f 72 68 59
f 70 72 63
f 73 68 72
f 73 72 74
f 69 74 72
f 69 71 75
f 69 72 70
f 72 59 63
f 76 73 74
f 77 74 78
f 69 75 79
f 77 76 74
f 77 80 76
f 74 69 78
f 78 69 79
f 78 79 81
f 82 83 84
f 77 82 80
f 83 77 78
f 81 85 78
f 85 83 78
f 82 77 83
f 83 86 84
f 87 86 83
f 85 87 83
f 85 88 87
f 86 89 84
f 87 89 86
f 88 90 91
f 88 91 92
f 88 92 87
f 88 93 90
f 92 94 89
f 87 92 89
f 91 94 92
f 90 95 91
f 90 93 96
f 97 98 90
f 91 95 94
f 90 98 95
f 97 90 96
f 39 63 40
f 39 70 63
f 39 44 70
f 46 99 41
f 41 99 42
f 75 71 100
f 44 71 70
f 99 101 102
f 103 100 71
f 71 43 42
f 75 100 79
f 71 44 43
f 99 102 104
f 103 71 42
f 105 103 42
f 106 104 107
f 108 99 104
f 79 109 81
f 79 100 103
f 109 79 106
f 79 103 105
f 79 104 106
f 104 105 108
f 104 79 105
f 109 85 81
f 88 85 110
f 106 85 109
f 111 112 106
f 111 106 107
f 113 111 107
f 110 85 112
f 85 106 112
f 111 113 112
f 93 88 110
f 114 110 113
f 113 110 112
f 93 110 114
f 96 93 114
f 114 113 115
f 116 114 115
f 115 117 118
f 96 119 97
f 120 96 116
f 96 114 116
f 121 120 116
f 95 122 94
f 98 122 95
f 122 97 123
f 119 124 125
f 119 125 123
f 122 98 97
f 126 123 125
f 126 122 123
f 127 128 124
f 126 89 94
f 125 124 128
f 129 126 128
f 127 130 128
f 126 125 128
f 130 131 129
f 129 128 130
f 131 132 133
f 131 129 133
f 119 123 97
f 119 96 120
f 119 120 121
f 121 116 115
f 134 124 121
f 127 124 134
f 124 119 121
f 131 130 135
f 135 121 115
f 136 137 138
f 130 127 134
f 135 130 134
f 131 135 139
f 139 140 138
f 139 141 140
f 132 131 142
f 131 139 142
f 142 139 143
f 144 132 133
f 145 146 133
f 145 133 129
f 147 144 133
f 146 148 149
f 147 133 146
f 150 151 146
f 151 147 146
f 149 150 146
f 146 152 148
f 148 152 153
f 154 155 153
f 156 155 153
f 157 150 151
f 157 156 149
f 157 151 158
f 159 160 161
f 162 154 153
f 157 149 150
f 163 159 161
f 153 163 161
f 162 153 161
f 164 162 161
f 161 165 164
f 160 166 165
f 160 165 161
f 144 132 142
f 142 167 144
f 167 142 143
f 143 168 167
f 147 144 167
f 158 151 147
f 167 158 147
f 169 170 158
f 167 169 158
f 167 168 169
f 156 153 148
f 171 172 173
f 174 175 158
f 176 171 173
f 156 148 149
f 174 176 173
f 174 170 176
f 177 174 173
f 174 158 170
f 173 178 177
f 172 179 178
f 172 178 173
f 180 181 182
f 180 183 181
f 184 182 45
f 184 185 182
f 180 185 186
f 185 180 182
f 182 46 45
f 187 185 184
f 185 187 186
f 187 188 189
f 187 184 45
f 188 55 190
f 187 45 188
f 188 45 55
f 55 191 190
f 58 192 55
f 191 192 58
f 191 55 192
f 193 183 180
f 194 193 180
f 194 195 193
f 66 187 189
f 62 194 186
f 186 194 180
f 195 62 61
f 187 66 62
f 187 62 186
f 66 189 190
f 190 189 188
f 65 66 190
f 191 67 65
f 65 190 191
f 62 195 194
f 196 183 193
f 197 198 199
f 196 193 198
f 195 61 68
f 200 195 68
f 193 200 198
f 193 195 200
f 200 73 76
f 199 200 76
f 197 196 198
f 199 76 201
f 200 68 73
f 199 198 200
f 201 76 80
f 199 201 202
f 203 199 202
f 204 205 206
f 205 207 199
f 201 82 202
f 201 80 82
f 202 82 208
f 209 206 203
f 210 204 209
f 209 203 208
f 210 211 204
f 204 206 209
f 203 202 208
f 212 209 213
f 82 84 208
f 212 213 214
f 209 208 89
f 215 210 209
f 89 208 84
f 212 214 216
f 217 216 218
f 217 212 216
f 218 219 217
f 218 220 219
f 89 213 209
f 216 214 221
f 216 221 222
f 218 216 222
f 218 222 223
f 224 218 223
f 225 226 220
f 220 218 224
f 220 224 227
f 228 229 196
f 229 183 196
f 228 196 197
f 99 229 101
f 99 181 229
f 46 182 99
f 229 181 183
f 229 228 101
f 99 182 181
f 207 197 199
f 207 205 230
f 207 228 197
f 231 102 230
f 108 105 42
f 108 42 99
f 199 203 206
f 204 211 205
f 102 101 207
f 101 228 207
f 211 232 233
f 102 207 230
f 234 107 235
f 205 211 230
f 205 199 206
f 232 211 210
f 104 102 231
f 211 233 235
f 231 230 211
f 107 231 211
f 107 104 231
f 115 113 107
f 107 211 235
f 209 212 217
f 215 217 219
f 215 233 232
f 215 232 210
f 225 220 227
f 117 235 215
f 235 233 215
f 115 226 225
f 118 215 226
f 115 107 117
f 107 234 117
f 215 209 217
f 226 219 220
f 117 234 235
f 115 118 226
f 226 215 219
f 118 117 215
f 139 135 115
f 136 227 236
f 140 227 136
f 115 225 141
f 227 140 141
f 221 214 213
f 221 213 89
f 237 223 126
f 224 237 227
f 126 221 89
f 222 221 126
f 223 222 126
f 237 224 223
f 238 126 129
f 122 126 94
f 238 137 237
f 137 236 237
f 239 238 129
f 145 240 241
f 145 129 239
f 145 239 240
f 236 227 237
f 238 237 126
f 139 115 141
f 135 134 121
f 138 238 239
f 139 239 242
f 225 227 141
f 136 236 137
f 138 137 238
f 140 136 138
f 243 244 241
f 143 242 244
f 240 242 239
f 139 138 239
f 244 242 240
f 146 145 241
f 146 241 245
f 153 152 246
f 152 146 245
f 163 162 164
f 159 164 165
f 159 163 164
f 163 153 246
f 246 152 245
f 160 159 165
f 155 246 156
f 154 246 155
f 162 163 154
f 163 246 154
f 160 165 166
f 244 240 241
f 247 169 243
f 143 139 242
f 169 168 243
f 243 241 245
f 168 244 243
f 168 143 244
f 247 243 245
f 170 169 247
f 170 247 175
f 171 176 175
f 247 245 246
f 175 247 157
f 175 157 158
f 171 174 177
f 172 177 178
f 157 246 156
f 176 170 175
f 247 246 157
f 174 171 175
f 172 171 177
f 172 178 179
