# Unified Preprocessed OBJ file from m69.obj
# Applied remeshing: Yes
# Applied 4-step normalization: centering, PCA alignment, flipping, scaling
# Generated on 2025-09-29 15:02:40

v -0.317573 -0.017634 0.010421
v -0.316722 -0.012321 0.025195
v -0.324298 0.000324 0.009142
v -0.316340 0.000400 0.031609
v -0.324248 0.000327 0.010010
v -0.316696 0.013074 0.025100
v -0.317535 0.018279 0.010287
v -0.324418 0.000317 0.007046
v -0.318431 0.012963 -0.005292
v -0.324537 0.000309 0.004949
v -0.318860 0.000238 -0.012510
v -0.324587 0.000306 0.004082
v -0.318458 -0.012433 -0.005197
v -0.293721 -0.038210 0.019580
v -0.292414 -0.027081 0.042873
v -0.291607 0.000467 0.056396
v -0.292357 0.027913 0.042668
v -0.293535 0.039227 0.021796
v -0.282929 0.133286 0.009547
v -0.284820 0.121776 -0.023306
v -0.307184 0.107063 -0.006279
v -0.296068 0.027675 -0.022319
v -0.296921 0.000126 -0.036647
v -0.295975 -0.030241 -0.020075
v -0.291295 -0.122767 -0.020003
v -0.289684 -0.130778 0.008390
v -0.312893 -0.110160 0.010493
v -0.255694 -0.048405 0.019956
v -0.253962 -0.034032 0.049966
v -0.252929 0.000466 0.067289
v -0.253889 0.034835 0.049710
v -0.255591 0.048989 0.019593
v -0.244987 0.143048 0.007344
v -0.247408 0.128631 -0.034732
v -0.258655 0.034530 -0.033745
v -0.259734 0.000029 -0.051871
v -0.258728 -0.034338 -0.033488
v -0.254048 -0.126864 -0.033416
v -0.251658 -0.140972 0.008767
v -0.221257 -0.056611 0.021270
v -0.219284 -0.039829 0.055435
v -0.218108 0.000458 0.075126
v -0.219199 0.040600 0.055135
v -0.221136 0.057132 0.020846
v -0.224670 0.040249 -0.040666
v -0.225846 -0.000038 -0.060357
v -0.224755 -0.040180 -0.040366
v -0.149295 -0.068133 0.021274
v -0.150200 -0.047972 0.061503
v -0.148839 0.000419 0.084272
v -0.150099 0.048642 0.061143
v -0.149151 0.068500 0.020765
v -0.156427 0.048236 -0.049663
v -0.157788 -0.000155 -0.072432
v -0.156528 -0.048378 -0.049303
v -0.051326 -0.081361 0.009402
v -0.047906 -0.057302 0.068756
v -0.046439 0.000343 0.093163
v -0.047784 0.057810 0.068327
v -0.051153 0.081433 0.008795
v -0.054573 0.057374 -0.050559
v -0.056040 -0.000272 -0.074967
v -0.054695 -0.057738 -0.050130
v 0.087899 -0.083164 0.003914
v 0.091221 -0.058632 0.061535
v 0.092648 0.000167 0.085221
v 0.091345 0.058792 0.061098
v 0.088075 0.082900 0.003296
v 0.084753 0.058369 -0.054325
v 0.083326 -0.000431 -0.078012
v 0.084630 -0.059056 -0.053888
v 0.152535 -0.078329 0.003481
v 0.155460 -0.055260 0.054181
v 0.156720 0.000061 0.075012
v 0.155576 0.055228 0.053770
v 0.152700 0.077925 0.002898
v 0.149776 0.054855 -0.047802
v 0.148517 -0.000465 -0.068633
v 0.149659 -0.055632 -0.047391
v 0.216541 -0.063698 -0.001047
v 0.218769 -0.044983 0.037550
v 0.219731 -0.000086 0.053399
v 0.218864 0.044695 0.037216
v 0.216675 0.063126 -0.001520
v 0.214447 0.044411 -0.040118
v 0.213485 -0.000487 -0.055967
v 0.214352 -0.045267 -0.039783
v -0.313778 -0.104959 -0.005125
v -0.306288 0.112380 0.009300
v 0.032761 -0.068383 0.005651
v 0.035155 -0.048222 0.047128
v -0.023710 0.000029 0.014936
v 0.036188 0.000149 0.064160
v -0.023697 0.000030 0.015175
v 0.035257 0.048392 0.046768
v 0.032905 0.068250 0.005142
v -0.023743 0.000027 0.014359
v 0.030511 0.048088 -0.036336
v -0.023776 0.000025 0.013782
v 0.029476 -0.000282 -0.053368
v -0.023790 0.000024 0.013543
v 0.030409 -0.048526 -0.035976
v 0.094664 -0.079885 0.007890
v 0.097622 -0.056336 0.059166
v 0.098897 0.000142 0.080232
v 0.097742 0.056464 0.058746
v 0.094833 0.079637 0.007295
v 0.091875 0.056088 -0.043981
v 0.090601 -0.000391 -0.065046
v 0.091756 -0.056713 -0.043560
v 0.155490 -0.075055 0.005218
v 0.158347 -0.052949 0.054767
v 0.159578 0.000059 0.075128
v 0.158460 0.052915 0.054373
v 0.155648 0.074658 0.004660
v 0.152791 0.052551 -0.044891
v 0.151561 -0.000456 -0.065251
v 0.152679 -0.053312 -0.044497
v 0.247469 -0.055540 0.003168
v 0.249793 -0.039214 0.043507
v 0.250790 -0.000094 0.060095
v 0.249876 0.038904 0.043216
v 0.247586 0.054934 0.002757
v 0.245262 0.038607 -0.037581
v 0.244265 -0.000512 -0.054169
v 0.245179 -0.039510 -0.037290
v 0.357209 -0.036059 -0.003170
v 0.358934 -0.025518 0.026801
v 0.359671 -0.000287 0.039138
v 0.358988 0.024852 0.026614
v 0.357285 0.035174 -0.003436
v 0.355560 0.024632 -0.033406
v 0.354823 -0.000598 -0.045743
v 0.355507 -0.025738 -0.033219
v 0.432999 -0.019812 -0.009196
v 0.434257 -0.014088 0.012714
v 0.434790 -0.000431 0.021747
v 0.434286 0.013159 0.012613
v 0.433040 0.018722 -0.009340
v 0.431781 0.012998 -0.031249
v 0.431248 -0.000659 -0.040281
v 0.431752 -0.014249 -0.031147
v 0.482648 -0.011195 -0.016157
v 0.483541 -0.008041 -0.000586
v 0.483916 -0.000543 0.005840
v 0.483556 0.006909 -0.000641
v 0.482669 0.009948 -0.016236
v 0.481776 0.006795 -0.031806
v 0.481399 -0.000704 -0.038232
v 0.481761 -0.008155 -0.031751
v 0.515023 -0.000689 -0.024595
v 0.515056 -0.000687 -0.024017
v 0.515070 -0.000686 -0.023778
v 0.514990 -0.000691 -0.025172
v 0.514977 -0.000692 -0.025411
v 0.466312 -0.006029 -0.022923
v 0.465075 -0.005951 -0.002347
v 0.465089 0.007158 -0.002396
v 0.538928 -0.005852 0.045303
v 0.538942 0.007258 0.045254
v 0.621914 -0.005796 0.083989
v 0.621928 0.007314 0.083940
v 0.652505 -0.005799 0.091891
v 0.652519 0.007311 0.091842
v 0.675411 -0.001396 0.091773
v 0.675413 0.000963 0.091765
v 0.642381 -0.001471 0.062298
v 0.642383 0.000888 0.062289
v 0.578383 -0.001647 -0.002802
v 0.578386 0.000713 -0.002811
v 0.560049 -0.001722 -0.028292
v 0.560051 0.000638 -0.028301
v 0.587242 -0.002022 -0.101012
v 0.587245 0.000338 -0.101020
v 0.544594 -0.006354 -0.087704
v 0.544608 0.006757 -0.087753
v 0.499170 -0.006201 -0.059779
v 0.499183 0.006908 -0.059828
v 0.466326 0.007080 -0.022972
v 0.364018 -0.000317 0.032427
v 0.410002 -0.000295 0.051193
v 0.412469 -0.000346 0.038218
v 0.374133 -0.000625 -0.047422
v 0.417682 -0.000760 -0.071299
v 0.421611 -0.000717 -0.058689
v 0.257101 -0.037778 -0.041318
v 0.295670 -0.054276 -0.077134
v 0.301441 -0.050524 -0.069780
v 0.257175 0.036678 -0.041663
v 0.295775 0.052711 -0.077657
v 0.301540 0.049028 -0.070263
v -0.302078 -0.126073 -0.001785
v -0.301533 -0.125231 0.002575
v -0.304653 -0.124227 0.001462
v -0.300658 -0.123202 0.005219
v -0.305696 -0.121581 0.003423
v -0.299438 -0.120121 0.007313
v -0.306019 -0.118001 0.004965
v -0.298100 -0.116493 0.007988
v -0.293165 -0.122260 0.004247
v -0.291311 -0.118808 0.004669
v -0.295858 -0.124840 0.002873
v -0.298559 -0.126246 0.001122
v -0.306091 -0.123820 -0.001565
v -0.308019 -0.120924 -0.001465
v -0.309054 -0.117144 -0.001420
v -0.305224 -0.114199 0.005447
v -0.290876 -0.123166 -0.002436
v -0.288834 -0.119789 -0.002565
v -0.294107 -0.125533 -0.002243
v -0.297475 -0.126675 -0.002046
v -0.305007 -0.124250 -0.004732
v -0.306267 -0.121617 -0.006581
v -0.306765 -0.118049 -0.008103
v -0.308510 -0.113270 -0.001465
v -0.293911 -0.122308 -0.008821
v -0.292119 -0.118859 -0.009477
v -0.296429 -0.124876 -0.007130
v -0.298913 -0.126268 -0.005073
v -0.302034 -0.125263 -0.006186
v -0.301466 -0.123254 -0.008927
v -0.300493 -0.120189 -0.011169
v -0.306032 -0.114251 -0.008699
v -0.299243 -0.116566 -0.012017
v -0.302276 0.123987 0.001224
v -0.299235 0.125196 0.002333
v -0.299837 0.125984 -0.002030
v -0.303131 0.121286 0.003192
v -0.298220 0.123239 0.004984
v -0.303202 0.117700 0.004748
v -0.296785 0.120250 0.007088
v -0.302140 0.113959 0.005242
v -0.295195 0.116720 0.007774
v -0.288584 0.119460 0.004447
v -0.290677 0.122782 0.004014
v -0.293545 0.125175 0.002631
v -0.296339 0.126396 0.000876
v -0.303682 0.123476 -0.001801
v -0.305402 0.120462 -0.001692
v -0.306168 0.116623 -0.001634
v -0.305352 0.112794 -0.001667
v -0.286181 0.120573 -0.002790
v -0.288457 0.123810 -0.002672
v -0.291846 0.125962 -0.002486
v -0.295287 0.126883 -0.002293
v -0.302630 0.123964 -0.004972
v -0.303702 0.121249 -0.006810
v -0.303948 0.117652 -0.008321
v -0.302948 0.113907 -0.008905
v -0.289392 0.119408 -0.009699
v -0.291424 0.122734 -0.009055
v -0.294117 0.125138 -0.007372
v -0.296693 0.126373 -0.005320
v -0.299735 0.125164 -0.006429
v -0.299028 0.123187 -0.009163
v -0.297840 0.120182 -0.011394
v -0.296337 0.116646 -0.012232
v 0.039591 -0.005206 0.076981
v -0.053730 -0.005060 0.089547
v -0.053716 0.008049 0.089498
v -0.000509 -0.001882 0.134746
v -0.000503 0.003782 0.134725
v 0.044537 -0.001822 0.163535
v 0.044543 0.003842 0.163514
v 0.063970 -0.001833 0.166044
v 0.063976 0.003830 0.166023
v 0.044125 -0.002005 0.114103
v 0.044131 0.003658 0.114082
v 0.042165 -0.005119 0.100959
v 0.042179 0.007991 0.100910
v 0.039604 0.007904 0.076932
v -0.148075 0.045155 -0.019123
v -0.173525 0.056539 -0.021698
v -0.174235 0.052161 -0.034034
v -0.155352 0.112136 -0.042475
v -0.156062 0.107757 -0.054812
v -0.132080 0.142897 -0.057884
v -0.132400 0.140927 -0.063436
v -0.083391 0.173483 -0.071541
v -0.083710 0.171512 -0.077092
v -0.084120 0.148512 -0.062637
v -0.084439 0.146541 -0.068189
v -0.103291 0.091638 -0.038196
v -0.104001 0.087259 -0.050533
v -0.097969 0.064389 -0.028832
v -0.098679 0.060010 -0.041169
v -0.103633 0.046234 -0.022064
v -0.104343 0.041855 -0.034401
v -0.148785 0.040777 -0.031460
v -0.148872 -0.040811 -0.031165
v -0.174345 -0.052167 -0.033636
v -0.173644 -0.056433 -0.021259
v -0.156283 -0.107988 -0.053900
v -0.155582 -0.112254 -0.041524
v -0.132689 -0.141284 -0.062218
v -0.132373 -0.143204 -0.056649
v -0.084061 -0.172092 -0.075593
v -0.083746 -0.174011 -0.070023
v -0.084740 -0.147038 -0.066919
v -0.084424 -0.148959 -0.061350
v -0.104183 -0.087557 -0.049811
v -0.103481 -0.091823 -0.037434
v -0.098805 -0.060234 -0.040697
v -0.098104 -0.064500 -0.028321
v -0.104433 -0.042007 -0.034096
v -0.103732 -0.046273 -0.021719
v -0.148171 -0.045078 -0.018789
v 0.275975 -0.000340 0.001058
v 0.426174 -0.000444 0.016044
v 0.437750 -0.000658 -0.038221
v 0.303115 -0.045355 -0.059312
v 0.324527 -0.035513 -0.040366
v 0.294335 -0.029365 -0.026157
v 0.303204 0.043972 -0.059738
v 0.324597 0.034295 -0.040686
v 0.294393 0.028361 -0.026411
v -0.317148 -0.014978 0.017808
v -0.320510 -0.005999 0.017168
v -0.320935 -0.008655 0.009781
v -0.316531 -0.005961 0.028402
v -0.320294 0.000363 0.020810
v -0.320485 -0.005997 0.017603
v -0.316518 0.006737 0.028355
v -0.320497 0.006699 0.017121
v -0.320319 0.000362 0.020375
v -0.317115 0.015676 0.017694
v -0.320976 0.009298 0.008666
v -0.320557 0.006695 0.016073
v -0.317983 0.015621 0.002497
v -0.321484 0.006636 -0.000171
v -0.321036 0.009294 0.007618
v -0.318645 0.006600 -0.008901
v -0.321723 0.000272 -0.004214
v -0.321509 0.006634 -0.000605
v -0.318659 -0.006098 -0.008853
v -0.321498 -0.006062 -0.000124
v -0.321698 0.000273 -0.003780
v -0.318016 -0.015034 0.002612
v -0.320995 -0.008659 0.008733
v -0.321438 -0.006058 0.000924
v -0.293068 -0.032646 0.031226
v -0.304568 -0.019701 0.034034
v -0.305222 -0.025266 0.022387
v -0.292011 -0.013307 0.049634
v -0.303974 0.000433 0.044002
v -0.304377 -0.013341 0.037241
v -0.291982 0.014190 0.049532
v -0.304526 0.020494 0.033884
v -0.304151 0.006770 0.040748
v -0.292946 0.033570 0.032232
v -0.305535 0.028753 0.016041
v -0.304946 0.023096 0.026477
v -0.283875 0.127531 -0.006880
v -0.296002 0.114420 -0.014793
v -0.295057 0.120175 0.001634
v -0.296495 0.013900 -0.029483
v -0.307890 0.000182 -0.024578
v -0.307464 0.013956 -0.017414
v -0.296448 -0.015058 -0.028361
v -0.307217 -0.021337 -0.012636
v -0.307689 -0.006154 -0.020922
v -0.290490 -0.126773 -0.005806
v -0.301289 -0.120469 0.009442
v -0.302094 -0.116464 -0.004755
v -0.254828 -0.041218 0.034961
v -0.273188 -0.030556 0.046420
v -0.274054 -0.037743 0.031414
v -0.253446 -0.016783 0.058627
v -0.272268 0.000466 0.061842
v -0.272785 -0.016783 0.053181
v -0.253409 0.017651 0.058499
v -0.273123 0.031374 0.046189
v -0.272643 0.014190 0.054978
v -0.254740 0.041912 0.034651
v -0.274563 0.044108 0.020694
v -0.273712 0.037031 0.035753
v -0.246197 0.135839 -0.013694
v -0.266114 0.125204 -0.029019
v -0.264904 0.132412 -0.007981
v -0.259195 0.017279 -0.042808
v -0.278327 0.000077 -0.044259
v -0.277788 0.017328 -0.035196
v -0.259231 -0.017154 -0.042679
v -0.277352 -0.032290 -0.026781
v -0.277855 -0.015106 -0.035973
v -0.252853 -0.133918 -0.012325
v -0.270671 -0.135875 0.008579
v -0.271866 -0.128821 -0.012513
v -0.220270 -0.048220 0.038353
v -0.236623 -0.036930 0.052701
v -0.237610 -0.045322 0.035618
v -0.218696 -0.019685 0.065281
v -0.235519 0.000462 0.071208
v -0.236107 -0.019681 0.061362
v -0.218654 0.020529 0.065131
v -0.236544 0.037718 0.052422
v -0.235999 0.017647 0.062418
v -0.220167 0.048866 0.037991
v -0.238363 0.053060 0.020220
v -0.237395 0.044795 0.037364
v -0.222903 0.048691 -0.009910
v -0.241663 0.037389 -0.037205
v -0.239896 0.045831 -0.006449
v -0.225258 0.020105 -0.050511
v -0.242790 -0.000004 -0.056114
v -0.242202 0.020139 -0.046268
v -0.225300 -0.020109 -0.050362
v -0.241742 -0.037259 -0.036927
v -0.242287 -0.017188 -0.046923
v -0.223006 -0.048396 -0.009548
v -0.238476 -0.052508 0.020613
v -0.240225 -0.044292 -0.010205
v -0.149748 -0.058052 0.041389
v -0.184742 -0.043900 0.058469
v -0.184290 -0.053981 0.038355
v -0.149520 -0.023776 0.072888
v -0.183474 0.000439 0.079699
v -0.184154 -0.023757 0.068315
v -0.149469 0.024530 0.072708
v -0.184649 0.044621 0.058139
v -0.184019 0.020510 0.069704
v -0.149625 0.058571 0.040954
v -0.185144 0.062816 0.020806
v -0.185617 0.052887 0.040995
v -0.152789 0.058368 -0.014449
v -0.190548 0.044242 -0.045164
v -0.186911 0.054375 -0.009950
v -0.157107 0.024040 -0.061047
v -0.191817 -0.000097 -0.066394
v -0.191136 0.024099 -0.055010
v -0.157158 -0.024267 -0.060867
v -0.190642 -0.044279 -0.044834
v -0.191271 -0.020168 -0.056399
v -0.152912 -0.058255 -0.014014
v -0.185276 -0.062372 0.021272
v -0.188892 -0.052495 -0.014016
v -0.049616 -0.069332 0.039079
v -0.099053 -0.052637 0.065130
v -0.100763 -0.064667 0.035452
v -0.047172 -0.028479 0.080960
v -0.097639 0.000381 0.088718
v -0.098372 -0.028442 0.076514
v -0.047111 0.029077 0.080745
v -0.098941 0.053226 0.064735
v -0.098269 0.024493 0.077153
v -0.049468 0.069621 0.038561
v -0.100152 0.074966 0.014780
v -0.098467 0.063155 0.044546
v -0.052863 0.069403 -0.020882
v -0.105500 0.052805 -0.050111
v -0.103790 0.064834 -0.020434
v -0.055307 0.028551 -0.062763
v -0.106914 -0.000214 -0.073699
v -0.106180 0.028609 -0.061495
v -0.055368 -0.029005 -0.062548
v -0.105612 -0.053058 -0.049716
v -0.106284 -0.024325 -0.062135
v -0.053010 -0.069550 -0.020364
v -0.100311 -0.074747 0.015338
v -0.101995 -0.062935 -0.014428
v 0.089560 -0.070898 0.032725
v 0.021658 -0.057967 0.065146
v 0.019997 -0.070233 0.036335
v 0.091934 -0.029233 0.073378
v 0.023104 0.000255 0.089192
v 0.022391 -0.029144 0.077349
v 0.091996 0.029479 0.073159
v 0.021781 0.058301 0.064712
v 0.022432 0.028989 0.076774
v 0.089710 0.070846 0.032197
v 0.018461 0.082166 0.006045
v 0.020096 0.070112 0.034946
v 0.086414 0.070634 -0.025515
v 0.015090 0.057871 -0.052442
v 0.016751 0.070137 -0.023632
v 0.084039 0.028969 -0.066169
v 0.013643 -0.000352 -0.076489
v 0.014356 0.029048 -0.064646
v 0.083978 -0.029743 -0.065950
v 0.014967 -0.058397 -0.052009
v 0.014315 -0.029085 -0.064071
v 0.086265 -0.071110 -0.024987
v 0.018287 -0.082262 0.006658
v 0.016652 -0.070208 -0.022243
v 0.153998 -0.066794 0.028831
v 0.123341 -0.056946 0.057858
v 0.121878 -0.068481 0.032508
v 0.156090 -0.027599 0.064597
v 0.124684 0.000114 0.080116
v 0.124054 -0.027546 0.069701
v 0.156148 0.027644 0.064391
v 0.123460 0.057010 0.057434
v 0.124032 0.029426 0.068055
v 0.154138 0.066576 0.028334
v 0.120388 0.080412 0.003097
v 0.121825 0.069064 0.028533
v 0.151238 0.066390 -0.022452
v 0.117264 0.056612 -0.051064
v 0.118727 0.068147 -0.025713
v 0.149146 0.027195 -0.058218
v 0.115921 -0.000448 -0.073322
v 0.116551 0.027212 -0.062907
v 0.149088 -0.028049 -0.058012
v 0.117144 -0.057344 -0.050639
v 0.116573 -0.029761 -0.061260
v 0.151097 -0.066980 -0.021955
v 0.120217 -0.080746 0.003698
v 0.118779 -0.069398 -0.021738
v 0.217655 -0.054341 0.018251
v 0.187114 -0.050121 0.045866
v 0.186000 -0.059479 0.026567
v 0.219250 -0.022535 0.045475
v 0.188225 -0.000013 0.064206
v 0.187744 -0.022461 0.056281
v 0.219297 0.022304 0.045308
v 0.187220 0.049961 0.045493
v 0.187654 0.027571 0.053584
v 0.217769 0.053910 0.017848
v 0.184688 0.070525 0.000689
v 0.185782 0.061310 0.020057
v 0.215561 0.053768 -0.020819
v 0.182112 0.049633 -0.043960
v 0.183225 0.058990 -0.024661
v 0.213966 0.021962 -0.048042
v 0.181001 -0.000476 -0.062300
v 0.181482 0.021973 -0.054375
v 0.213919 -0.022877 -0.047875
v 0.182006 -0.050449 -0.043587
v 0.181572 -0.028060 -0.051679
v 0.215446 -0.054482 -0.020415
v 0.184538 -0.071013 0.001217
v 0.183444 -0.061798 -0.018151
v -0.257211 -0.041371 -0.006766
v -0.253676 -0.094689 0.014361
v -0.255193 -0.087655 -0.012361
v -0.256388 -0.080601 -0.033452
v -0.275012 -0.078553 -0.026745
v -0.274708 -0.043308 0.019768
v -0.291703 -0.084494 0.013985
v -0.272689 -0.089591 0.014173
v -0.293635 -0.076504 -0.020039
v -0.304877 -0.067600 -0.012600
v -0.305647 -0.027922 0.015000
v -0.315233 -0.063897 0.010457
v -0.303307 -0.074185 0.015036
v -0.316118 -0.058696 -0.005161
v -0.315676 -0.061297 0.002648
v -0.277362 0.031102 -0.028032
v -0.290444 0.074726 -0.022813
v -0.271738 0.078153 -0.028525
v -0.257123 0.041759 -0.007076
v -0.253032 0.081580 -0.034238
v -0.251500 0.088810 -0.007570
v -0.250289 0.096018 0.013469
v -0.269261 0.091138 0.014570
v -0.307250 0.020319 -0.013806
v -0.312808 0.060013 -0.005786
v -0.301626 0.067369 -0.014299
v -0.288232 0.086257 0.015671
v -0.300232 0.075782 0.009917
v -0.311911 0.065329 0.009793
v -0.312359 0.062671 0.002004
v 0.033958 -0.058303 0.026390
v 0.005722 -0.024097 0.031032
v 0.004525 -0.034177 0.010293
v 0.035672 -0.024037 0.055644
v 0.006246 0.000089 0.039668
v 0.005729 -0.024096 0.031152
v 0.035722 0.024271 0.055464
v 0.005773 0.024211 0.030852
v 0.006239 0.000089 0.039548
v 0.034081 0.058321 0.025955
v 0.004581 0.034138 0.009750
v 0.005757 0.024210 0.030564
v 0.031708 0.058169 -0.015597
v 0.003367 0.024056 -0.011277
v 0.004564 0.034137 0.009462
v 0.029994 0.023903 -0.044852
v 0.002843 -0.000129 -0.019913
v 0.003360 0.024056 -0.011397
v 0.029943 -0.024404 -0.044672
v 0.003316 -0.024251 -0.011097
v 0.002850 -0.000129 -0.019793
v 0.031585 -0.058454 -0.015163
v 0.004509 -0.034178 0.010005
v 0.003333 -0.024250 -0.010809
v 0.096143 -0.068111 0.033528
v 0.066389 -0.052279 0.053147
v 0.064910 -0.064054 0.027509
v 0.098260 -0.028097 0.069699
v 0.067543 0.000145 0.072196
v 0.066905 -0.028094 0.061663
v 0.098319 0.028303 0.069489
v 0.066499 0.052428 0.052757
v 0.067077 0.024267 0.063500
v 0.096288 0.068050 0.033021
v 0.063869 0.073943 0.006218
v 0.065323 0.062357 0.031944
v 0.093354 0.067862 -0.018343
v 0.061193 0.052088 -0.040158
v 0.062672 0.063862 -0.014520
v 0.091238 0.027849 -0.054514
v 0.060038 -0.000336 -0.059207
v 0.060676 0.027903 -0.048674
v 0.091178 -0.028552 -0.054303
v 0.061082 -0.052619 -0.039768
v 0.060505 -0.024458 -0.050511
v 0.093210 -0.068299 -0.017835
v 0.063712 -0.074134 0.006770
v 0.062258 -0.062548 -0.018955
v 0.156919 -0.064002 0.029992
v 0.127985 -0.054642 0.056967
v 0.126556 -0.065695 0.032192
v 0.158963 -0.026445 0.064948
v 0.129237 0.000100 0.077680
v 0.128622 -0.026403 0.067499
v 0.159019 0.026487 0.064751
v 0.128101 0.054690 0.056559
v 0.128660 0.028261 0.066937
v 0.157054 0.063787 0.029516
v 0.125241 0.077147 0.005978
v 0.126647 0.066276 0.030834
v 0.154219 0.063605 -0.020116
v 0.122333 0.054319 -0.044436
v 0.123762 0.065373 -0.019661
v 0.152176 0.026048 -0.055071
v 0.121081 -0.000423 -0.065149
v 0.121696 0.026080 -0.054969
v 0.152120 -0.026884 -0.054874
v 0.122217 -0.055013 -0.044028
v 0.121658 -0.028584 -0.054406
v 0.154084 -0.064184 -0.019639
v 0.125077 -0.077470 0.006554
v 0.123671 -0.066599 -0.018303
v 0.248631 -0.047377 0.023338
v 0.204070 -0.046081 0.049137
v 0.202908 -0.054244 0.028968
v 0.250292 -0.019654 0.051801
v 0.205184 -0.000018 0.067612
v 0.204685 -0.019578 0.059318
v 0.250333 0.019405 0.051655
v 0.204168 0.045909 0.048794
v 0.204625 0.026410 0.057234
v 0.248731 0.046919 0.022986
v 0.201617 0.064796 0.003708
v 0.202762 0.056781 0.023938
v 0.246424 0.046771 -0.017412
v 0.199026 0.045579 -0.041236
v 0.200189 0.053742 -0.021067
v 0.244763 0.019048 -0.045875
v 0.197913 -0.000484 -0.059710
v 0.198411 0.019076 -0.051416
v 0.244722 -0.020011 -0.045729
v 0.198929 -0.046411 -0.040893
v 0.198472 -0.026912 -0.049333
v 0.246324 -0.047525 -0.017061
v 0.201479 -0.065297 0.004193
v 0.200334 -0.057282 -0.016036
v 0.358072 -0.030789 0.011816
v 0.304364 -0.032366 0.035154
v 0.303501 -0.037637 0.020168
v 0.359303 -0.012902 0.032970
v 0.305231 -0.000191 0.049616
v 0.304862 -0.012806 0.043448
v 0.359329 0.012283 0.032876
v 0.304432 0.031878 0.034915
v 0.304773 0.019308 0.041177
v 0.358136 0.030013 0.011589
v 0.302436 0.045054 -0.000339
v 0.303287 0.039893 0.014685
v 0.356423 0.029903 -0.018421
v 0.300411 0.031620 -0.035493
v 0.301273 0.036891 -0.020508
v 0.355192 0.012017 -0.039575
v 0.299544 -0.000555 -0.049956
v 0.299913 0.012060 -0.043787
v 0.355165 -0.013168 -0.039481
v 0.300343 -0.032624 -0.035254
v 0.300001 -0.020054 -0.041516
v 0.356358 -0.030899 -0.018195
v 0.302339 -0.045800 -0.000001
v 0.301488 -0.040639 -0.015025
v 0.433628 -0.016950 0.001759
v 0.396596 -0.019803 0.019758
v 0.395966 -0.022665 0.008803
v 0.434524 -0.007260 0.017231
v 0.397231 -0.000359 0.030442
v 0.396964 -0.007188 0.025926
v 0.434538 0.006364 0.017180
v 0.396637 0.019005 0.019613
v 0.396889 0.012210 0.024180
v 0.433663 0.015940 0.001637
v 0.395162 0.026948 -0.006388
v 0.395786 0.024167 0.004589
v 0.432410 0.015860 -0.020294
v 0.393671 0.018815 -0.032327
v 0.394300 0.021677 -0.021373
v 0.431515 0.006170 -0.035765
v 0.393036 -0.000628 -0.043012
v 0.393302 0.006200 -0.038496
v 0.431500 -0.007454 -0.035714
v 0.393629 -0.019994 -0.032183
v 0.393377 -0.013198 -0.036750
v 0.432375 -0.017031 -0.020172
v 0.395104 -0.027936 -0.006183
v 0.394481 -0.025154 -0.017159
v 0.483094 -0.009618 -0.008371
v 0.458899 -0.011065 0.006064
v 0.458452 -0.012642 -0.001721
v 0.483729 -0.004292 0.002627
v 0.459353 -0.000487 0.013794
v 0.459166 -0.004236 0.010581
v 0.483736 0.003183 0.002600
v 0.458921 0.010034 0.005986
v 0.459101 0.006308 0.009227
v 0.483112 0.008428 -0.008438
v 0.457854 0.014335 -0.012788
v 0.458298 0.012815 -0.004990
v 0.482223 0.008371 -0.024021
v 0.456779 0.009896 -0.031527
v 0.457225 0.011473 -0.023742
v 0.481588 0.003045 -0.035019
v 0.456324 -0.000682 -0.039257
v 0.456512 0.003068 -0.036044
v 0.481580 -0.004430 -0.034991
v 0.456757 -0.011202 -0.031449
v 0.456576 -0.007477 -0.034690
v 0.482204 -0.009675 -0.023954
v 0.457823 -0.015504 -0.012676
v 0.457380 -0.013984 -0.020473
v 0.515040 -0.000688 -0.024306
v 0.499299 -0.004364 -0.012301
v 0.499282 -0.004365 -0.012590
v 0.515063 -0.000687 -0.023898
v 0.499493 -0.000615 -0.008969
v 0.499486 -0.000615 -0.009088
v 0.499306 0.003111 -0.012329
v 0.499313 0.003111 -0.012210
v 0.498846 0.004629 -0.020415
v 0.498863 0.004630 -0.020127
v 0.515007 -0.000690 -0.024883
v 0.498383 0.003052 -0.028489
v 0.498400 0.003053 -0.028200
v 0.514984 -0.000692 -0.025291
v 0.498188 -0.000698 -0.031822
v 0.498195 -0.000698 -0.031702
v 0.498376 -0.004423 -0.028461
v 0.498369 -0.004424 -0.028581
v 0.498836 -0.005942 -0.020376
v 0.498819 -0.005943 -0.020664
v 0.465694 -0.005990 -0.012635
v 0.465082 0.000604 -0.002371
v 0.465701 0.000565 -0.012659
v 0.502002 -0.005902 0.021478
v 0.538935 0.000703 0.045279
v 0.502009 0.000654 0.021454
v 0.580421 -0.005824 0.064646
v 0.621921 0.000759 0.083964
v 0.580428 0.000731 0.064621
v 0.637209 -0.005797 0.087940
v 0.652512 0.000756 0.091867
v 0.637216 0.000758 0.087915
v 0.663958 -0.003598 0.091832
v 0.675412 -0.000217 0.091769
v 0.663959 -0.002418 0.091828
v 0.658896 -0.001434 0.077035
v 0.642382 -0.000292 0.062293
v 0.658897 -0.000254 0.077031
v 0.610382 -0.001559 0.029748
v 0.578385 -0.000467 -0.002807
v 0.610383 -0.000379 0.029743
v 0.569216 -0.001685 -0.015547
v 0.560050 -0.000542 -0.028297
v 0.569217 -0.000505 -0.015552
v 0.573645 -0.001872 -0.064652
v 0.587243 -0.000842 -0.101016
v 0.573647 -0.000692 -0.064656
v 0.565918 -0.004188 -0.094358
v 0.544601 0.000202 -0.087729
v 0.565925 0.002367 -0.094382
v 0.521882 -0.006277 -0.073742
v 0.499176 0.000353 -0.059804
v 0.521889 0.000277 -0.073766
v 0.482741 -0.006115 -0.041351
v 0.466319 0.000526 -0.022948
v 0.482748 0.000439 -0.041376
v 0.502016 0.007208 0.021429
v 0.580435 0.007286 0.064597
v 0.543509 0.007236 0.040772
v 0.505453 -0.006191 -0.055314
v 0.387010 -0.000306 0.041810
v 0.411236 -0.000321 0.044705
v 0.388243 -0.000331 0.035323
v 0.395908 -0.000692 -0.059361
v 0.419646 -0.000739 -0.064994
v 0.397872 -0.000671 -0.053056
v 0.276385 -0.046027 -0.059226
v 0.298556 -0.052400 -0.073457
v 0.279271 -0.044151 -0.055549
v 0.276475 0.044695 -0.059660
v 0.298657 0.050869 -0.073960
v 0.279357 0.042853 -0.055963
v -0.301806 -0.125652 0.000395
v -0.303093 -0.124729 0.002019
v -0.303365 -0.125150 -0.000162
v -0.301096 -0.124217 0.003897
v -0.302655 -0.123715 0.003341
v -0.303177 -0.122391 0.004321
v -0.300048 -0.121662 0.006266
v -0.302567 -0.120851 0.005368
v -0.302729 -0.119061 0.006139
v -0.298769 -0.118307 0.007651
v -0.302060 -0.117247 0.006477
v -0.296302 -0.121191 0.005780
v -0.292238 -0.120534 0.004458
v -0.295375 -0.119464 0.005991
v -0.298258 -0.124021 0.004046
v -0.294512 -0.123550 0.003560
v -0.296912 -0.122731 0.004733
v -0.300046 -0.125738 0.001848
v -0.297209 -0.125543 0.001997
v -0.298696 -0.125036 0.002724
v -0.300319 -0.126159 -0.000332
v -0.305372 -0.124023 -0.000051
v -0.304085 -0.124946 -0.001675
v -0.305174 -0.122904 0.002442
v -0.305894 -0.122700 0.000929
v -0.306857 -0.121252 0.000979
v -0.305857 -0.119791 0.004194
v -0.307019 -0.119463 0.001750
v -0.307537 -0.117573 0.001773
v -0.305622 -0.116100 0.005206
v -0.307139 -0.115672 0.002013
v -0.292021 -0.122713 0.000906
v -0.289855 -0.121477 -0.002500
v -0.290999 -0.121024 0.000841
v -0.294982 -0.125186 0.000315
v -0.292491 -0.124349 -0.002339
v -0.293367 -0.124003 0.000218
v -0.298017 -0.126460 -0.000462
v -0.295791 -0.126104 -0.002144
v -0.296333 -0.125889 -0.000560
v -0.299776 -0.126374 -0.001916
v -0.305549 -0.124035 -0.003148
v -0.303542 -0.125161 -0.003259
v -0.307055 -0.122372 -0.001515
v -0.306513 -0.122587 -0.003099
v -0.307143 -0.121271 -0.004023
v -0.308537 -0.119034 -0.001442
v -0.307661 -0.119380 -0.004000
v -0.307910 -0.117596 -0.004761
v -0.308782 -0.115207 -0.001442
v -0.307637 -0.115660 -0.004784
v -0.292394 -0.122737 -0.005628
v -0.293015 -0.120584 -0.009149
v -0.291498 -0.121013 -0.005956
v -0.295268 -0.125205 -0.004687
v -0.295170 -0.123592 -0.007976
v -0.294009 -0.123921 -0.005532
v -0.298194 -0.126472 -0.003560
v -0.297671 -0.125572 -0.006102
v -0.296952 -0.125776 -0.004588
v -0.300495 -0.126171 -0.003429
v -0.303520 -0.124757 -0.005459
v -0.302056 -0.125668 -0.003986
v -0.305637 -0.122934 -0.005656
v -0.304150 -0.123440 -0.006383
v -0.303867 -0.122436 -0.007754
v -0.306516 -0.119833 -0.007342
v -0.304116 -0.120652 -0.008515
v -0.303629 -0.119119 -0.009636
v -0.306399 -0.116150 -0.008401
v -0.303263 -0.117220 -0.009934
v -0.297202 -0.121248 -0.009995
v -0.299868 -0.118378 -0.011593
v -0.296577 -0.119437 -0.010419
v -0.298948 -0.124065 -0.008029
v -0.300980 -0.121721 -0.010048
v -0.298461 -0.122533 -0.009150
v -0.300473 -0.125766 -0.005629
v -0.301750 -0.124259 -0.007556
v -0.300190 -0.124761 -0.007000
v -0.300756 0.124591 0.001779
v -0.299536 0.125590 0.000152
v -0.301057 0.124986 -0.000403
v -0.300675 0.122262 0.004088
v -0.298727 0.124217 0.003658
v -0.301183 0.123241 0.002763
v -0.299993 0.118975 0.005918
v -0.297502 0.121744 0.006036
v -0.300711 0.120469 0.004866
v -0.298668 0.115340 0.006508
v -0.295990 0.118485 0.007431
v -0.299463 0.117105 0.006165
v -0.291889 0.118090 0.006110
v -0.289631 0.121121 0.004231
v -0.292936 0.119751 0.005894
v -0.293731 0.121516 0.005551
v -0.292111 0.123978 0.003322
v -0.295165 0.122713 0.004859
v -0.295883 0.124207 0.003807
v -0.294942 0.125785 0.001753
v -0.297279 0.124817 0.002930
v -0.297787 0.125796 0.001605
v -0.298088 0.126190 -0.000577
v -0.302979 0.123732 -0.000289
v -0.301760 0.124730 -0.001916
v -0.304266 0.120874 0.000750
v -0.302704 0.122636 0.002208
v -0.303839 0.122224 -0.000234
v -0.304685 0.117162 0.001557
v -0.303166 0.119493 0.003970
v -0.304650 0.118955 0.000779
v -0.303746 0.113377 0.001787
v -0.302671 0.115830 0.004995
v -0.304277 0.115247 0.001541
v -0.287382 0.120017 0.000829
v -0.287319 0.122192 -0.002731
v -0.288521 0.121635 0.000888
v -0.289567 0.123296 0.000671
v -0.290151 0.124886 -0.002579
v -0.291261 0.124372 0.000764
v -0.292696 0.125569 0.000072
v -0.293566 0.126423 -0.002390
v -0.294416 0.126029 0.000169
v -0.295813 0.126639 -0.000708
v -0.297562 0.126433 -0.002162
v -0.303156 0.123720 -0.003386
v -0.301234 0.124974 -0.003501
v -0.304552 0.120856 -0.004251
v -0.304542 0.121969 -0.001747
v -0.303692 0.122363 -0.004306
v -0.305058 0.117138 -0.004978
v -0.305785 0.118543 -0.001663
v -0.304675 0.119057 -0.005007
v -0.304150 0.113351 -0.005286
v -0.305760 0.114709 -0.001650
v -0.304558 0.115265 -0.005270
v -0.287786 0.119991 -0.006245
v -0.290408 0.121071 -0.009377
v -0.288802 0.121653 -0.005923
v -0.289940 0.123272 -0.005864
v -0.292770 0.123936 -0.008213
v -0.291287 0.124474 -0.005022
v -0.292981 0.125550 -0.004929
v -0.295405 0.125756 -0.006346
v -0.294269 0.126168 -0.003903
v -0.295990 0.126628 -0.003806
v -0.298265 0.126179 -0.003675
v -0.301183 0.124564 -0.005700
v -0.299786 0.125574 -0.004229
v -0.301365 0.122218 -0.007986
v -0.303166 0.122607 -0.005891
v -0.300829 0.123576 -0.007067
v -0.300894 0.118917 -0.009858
v -0.303825 0.119451 -0.007566
v -0.300771 0.120716 -0.009102
v -0.299643 0.115277 -0.010568
v -0.303448 0.115780 -0.008613
v -0.300143 0.117149 -0.010276
v -0.292865 0.118027 -0.010965
v -0.297089 0.118414 -0.011813
v -0.293616 0.119795 -0.010547
v -0.294632 0.121458 -0.010225
v -0.298434 0.121685 -0.010278
v -0.295226 0.122960 -0.009109
v -0.296572 0.124163 -0.008267
v -0.299382 0.124175 -0.007796
v -0.296926 0.125151 -0.006900
v -0.298214 0.125768 -0.005874
v -0.007070 -0.005133 0.083264
v -0.053723 0.001495 0.089523
v -0.007063 0.001422 0.083240
v -0.027120 -0.003471 0.112147
v -0.000506 0.000950 0.134736
v -0.027117 -0.000639 0.112136
v 0.022014 -0.001852 0.149141
v 0.044540 0.001010 0.163524
v 0.022017 0.000980 0.149130
v 0.054254 -0.001827 0.164789
v 0.063973 0.000999 0.166033
v 0.054257 0.001004 0.164779
v 0.054048 -0.001919 0.140074
v 0.044128 0.000826 0.114093
v 0.054051 0.000912 0.140063
v 0.043145 -0.003562 0.107531
v 0.042172 0.001436 0.100934
v 0.043152 0.002993 0.107507
v 0.040878 -0.005163 0.088970
v 0.039598 0.001349 0.076957
v 0.040885 0.001393 0.088945
v -0.027110 0.005916 0.112112
v 0.022020 0.003812 0.149119
v -0.004586 0.005945 0.126506
v 0.041858 -0.003606 0.095542
v -0.160800 0.050847 -0.020410
v -0.173880 0.054350 -0.027866
v -0.161155 0.048658 -0.026579
v -0.164438 0.084337 -0.032086
v -0.155707 0.109946 -0.048643
v -0.164793 0.082148 -0.038255
v -0.143716 0.127516 -0.050179
v -0.132240 0.141912 -0.060660
v -0.143876 0.126531 -0.052955
v -0.107735 0.158190 -0.064712
v -0.083550 0.172498 -0.074317
v -0.107895 0.157205 -0.067488
v -0.083755 0.160997 -0.067089
v -0.084279 0.147527 -0.065413
v -0.083915 0.160012 -0.069865
v -0.093705 0.120075 -0.050416
v -0.103646 0.089449 -0.044365
v -0.094060 0.117886 -0.056585
v -0.100630 0.078013 -0.033514
v -0.098324 0.062200 -0.035001
v -0.100985 0.075824 -0.039683
v -0.100801 0.055311 -0.025448
v -0.103988 0.044045 -0.028232
v -0.101156 0.053122 -0.031617
v -0.125854 0.045695 -0.020593
v -0.148430 0.042966 -0.025291
v -0.126209 0.043505 -0.026762
v -0.123022 0.054772 -0.023978
v -0.165148 0.079959 -0.044423
v -0.144231 0.124342 -0.059124
v -0.153317 0.096544 -0.048735
v -0.161609 -0.046489 -0.032401
v -0.173995 -0.054300 -0.027448
v -0.161258 -0.048622 -0.026212
v -0.165314 -0.080077 -0.043768
v -0.155933 -0.110121 -0.047712
v -0.164964 -0.082210 -0.037580
v -0.144486 -0.124636 -0.058059
v -0.132531 -0.142244 -0.059434
v -0.144328 -0.125596 -0.055275
v -0.108375 -0.156688 -0.068906
v -0.083904 -0.173052 -0.072808
v -0.108217 -0.157647 -0.066121
v -0.084401 -0.159565 -0.071256
v -0.084582 -0.147998 -0.064134
v -0.084243 -0.160525 -0.068471
v -0.094461 -0.117298 -0.058365
v -0.103832 -0.089690 -0.043622
v -0.094111 -0.119431 -0.052177
v -0.101494 -0.073895 -0.045254
v -0.098455 -0.062367 -0.034509
v -0.101143 -0.076028 -0.039066
v -0.101619 -0.051120 -0.037396
v -0.104082 -0.044140 -0.027907
v -0.101268 -0.053253 -0.031208
v -0.126652 -0.041409 -0.032630
v -0.148521 -0.042944 -0.024977
v -0.126302 -0.043542 -0.026442
v -0.164613 -0.084343 -0.031391
v -0.143978 -0.127729 -0.049086
v -0.153009 -0.099818 -0.038954
v -0.123839 -0.050522 -0.035931
v -0.324358 0.000320 0.008094
v -0.324273 0.000326 0.009576
v -0.324478 0.000313 0.005997
v -0.324562 0.000307 0.004516
v -0.306736 0.109722 0.001510
v -0.294608 0.122833 0.009423
v -0.313336 -0.107560 0.002684
v -0.302537 -0.113863 -0.012564
v -0.263958 0.138167 0.008446
v -0.272672 -0.124816 -0.026709
v 0.247372 -0.022662 0.019304
v 0.246258 -0.032019 0.000006
v 0.247853 -0.000213 0.027229
v 0.247419 0.022177 0.019137
v 0.246325 0.031393 -0.000231
v 0.245211 0.022036 -0.019530
v 0.244730 -0.000414 -0.027454
v 0.245164 -0.022803 -0.019362
v -0.023727 0.000028 0.014648
v -0.023703 0.000029 0.015056
v -0.023760 0.000026 0.014070
v -0.023783 0.000024 0.013662
v 0.465708 0.007119 -0.012684
v 0.637223 0.007313 0.087891
v 0.663966 0.004137 0.091803
v 0.658898 0.000925 0.077027
v 0.610385 0.000801 0.029739
v 0.569219 0.000675 -0.015556
v 0.573648 0.000488 -0.064661
v 0.565926 0.003547 -0.094387
v 0.521896 0.006832 -0.073791
v 0.482755 0.006994 -0.041400
v 0.558804 0.007235 0.044723
v 0.570251 0.004060 0.044685
v 0.553736 0.004023 0.029947
v 0.521738 0.003936 -0.002603
v 0.512570 0.003898 -0.015348
v 0.526167 0.003748 -0.051708
v 0.504849 0.006957 -0.045074
v 0.482136 0.007033 -0.031112
v 0.526777 -0.004026 -0.061968
v 0.513180 -0.003876 -0.025608
v 0.522348 -0.003838 -0.012863
v 0.554347 -0.003750 0.019687
v 0.570861 -0.003713 0.034425
v 0.559409 -0.005914 0.034484
v 0.544113 -0.005912 0.030533
v 0.502620 -0.005941 0.011190
v 0.419321 -0.000395 0.027131
v 0.395096 -0.000380 0.024236
v 0.429680 -0.000688 -0.048455
v 0.405942 -0.000641 -0.042821
v 0.302278 -0.047940 -0.064546
v 0.280108 -0.041567 -0.050315
v 0.313821 -0.040434 -0.049839
v 0.290814 -0.036645 -0.040842
v 0.309431 -0.032439 -0.033261
v 0.275718 -0.033571 -0.033737
v 0.302372 0.046500 -0.065000
v 0.280189 0.040325 -0.050700
v 0.313900 0.039134 -0.050212
v 0.290886 0.035487 -0.041174
v 0.309495 0.031328 -0.033548
v 0.275784 0.032520 -0.034037
v -0.301662 -0.115346 0.006717
v -0.294706 -0.117650 0.006329
v -0.306867 -0.113735 0.001991
v -0.290072 -0.119298 0.001052
v -0.307271 -0.113761 -0.005082
v -0.290476 -0.119324 -0.006021
v -0.302637 -0.115409 -0.010358
v -0.295681 -0.117713 -0.010747
v -0.007056 0.007977 0.083215
v 0.054260 0.003836 0.164768
v 0.054054 0.003744 0.140052
v 0.043155 0.005824 0.107496
v 0.040892 0.007948 0.088921
v 0.005130 0.005940 0.127760
v -0.004792 0.005854 0.101790
v -0.005768 0.008020 0.095204
v 0.051780 -0.003519 0.121512
v 0.042064 -0.003514 0.120258
v 0.019541 -0.003544 0.105864
v -0.161510 0.046469 -0.032747
v -0.108055 0.156220 -0.070264
v -0.084075 0.159027 -0.072641
v -0.094220 0.116900 -0.059361
v -0.101340 0.073635 -0.045851
v -0.101511 0.050933 -0.037785
v -0.126564 0.041316 -0.032930
v -0.125683 0.068397 -0.028660
v -0.116097 0.096834 -0.040880
v -0.115733 0.109319 -0.045332
v -0.140077 0.094026 -0.038504
v -0.151713 0.078645 -0.030799
v -0.128973 0.111837 -0.055563
v -0.129337 0.099351 -0.051112
v -0.139118 0.069710 -0.042284
v -0.136457 0.056086 -0.037602
v -0.139289 0.047008 -0.034218
v -0.160907 -0.050755 -0.020024
v -0.108059 -0.158608 -0.063336
v -0.084085 -0.161485 -0.065687
v -0.093953 -0.120391 -0.049392
v -0.100793 -0.078161 -0.032877
v -0.100918 -0.055386 -0.025020
v -0.125951 -0.045675 -0.020254
v -0.128695 -0.115222 -0.045641
v -0.129034 -0.102696 -0.041304
v -0.138563 -0.074128 -0.029346
v -0.135874 -0.060466 -0.024790
v -0.138688 -0.051353 -0.021489
v -0.126527 -0.064184 -0.040488
v -0.116806 -0.093925 -0.049042
v -0.116467 -0.106451 -0.053379
v -0.140780 -0.091047 -0.046692
v -0.152578 -0.074399 -0.042533
f 1 317 319
f 317 2 318
f 318 3 319
f 317 318 319
f 2 320 322
f 320 4 321
f 321 5 322
f 320 321 322
f 4 323 325
f 323 6 324
f 324 3 325
f 323 324 325
f 6 326 328
f 326 7 327
f 327 8 328
f 326 327 328
f 7 329 331
f 329 9 330
f 330 10 331
f 329 330 331
f 9 332 334
f 332 11 333
f 333 12 334
f 332 333 334
f 11 335 337
f 335 13 336
f 336 10 337
f 335 336 337
f 13 338 340
f 338 1 339
f 339 8 340
f 338 339 340
f 14 341 343
f 341 15 342
f 342 2 343
f 341 342 343
f 15 344 346
f 344 16 345
f 345 4 346
f 344 345 346
f 16 347 349
f 347 17 348
f 348 6 349
f 347 348 349
f 17 350 352
f 350 18 351
f 351 7 352
f 350 351 352
f 19 353 355
f 353 20 354
f 354 21 355
f 353 354 355
f 22 356 358
f 356 23 357
f 357 11 358
f 356 357 358
f 23 359 361
f 359 24 360
f 360 13 361
f 359 360 361
f 25 362 364
f 362 26 363
f 363 27 364
f 362 363 364
f 28 365 367
f 365 29 366
f 366 15 367
f 365 366 367
f 29 368 370
f 368 30 369
f 369 16 370
f 368 369 370
f 30 371 373
f 371 31 372
f 372 17 373
f 371 372 373
f 31 374 376
f 374 32 375
f 375 18 376
f 374 375 376
f 33 377 379
f 377 34 378
f 378 20 379
f 377 378 379
f 35 380 382
f 380 36 381
f 381 23 382
f 380 381 382
f 36 383 385
f 383 37 384
f 384 24 385
f 383 384 385
f 38 386 388
f 386 39 387
f 387 26 388
f 386 387 388
f 40 389 391
f 389 41 390
f 390 29 391
f 389 390 391
f 41 392 394
f 392 42 393
f 393 30 394
f 392 393 394
f 42 395 397
f 395 43 396
f 396 31 397
f 395 396 397
f 43 398 400
f 398 44 399
f 399 32 400
f 398 399 400
f 44 401 403
f 401 45 402
f 402 35 403
f 401 402 403
f 45 404 406
f 404 46 405
f 405 36 406
f 404 405 406
f 46 407 409
f 407 47 408
f 408 37 409
f 407 408 409
f 47 410 412
f 410 40 411
f 411 28 412
f 410 411 412
f 48 413 415
f 413 49 414
f 414 41 415
f 413 414 415
f 49 416 418
f 416 50 417
f 417 42 418
f 416 417 418
f 50 419 421
f 419 51 420
f 420 43 421
f 419 420 421
f 51 422 424
f 422 52 423
f 423 44 424
f 422 423 424
f 52 425 427
f 425 53 426
f 426 45 427
f 425 426 427
f 53 428 430
f 428 54 429
f 429 46 430
f 428 429 430
f 54 431 433
f 431 55 432
f 432 47 433
f 431 432 433
f 55 434 436
f 434 48 435
f 435 40 436
f 434 435 436
f 56 437 439
f 437 57 438
f 438 49 439
f 437 438 439
f 57 440 442
f 440 58 441
f 441 50 442
f 440 441 442
f 58 443 445
f 443 59 444
f 444 51 445
f 443 444 445
f 59 446 448
f 446 60 447
f 447 52 448
f 446 447 448
f 60 449 451
f 449 61 450
f 450 53 451
f 449 450 451
f 61 452 454
f 452 62 453
f 453 54 454
f 452 453 454
f 62 455 457
f 455 63 456
f 456 55 457
f 455 456 457
f 63 458 460
f 458 56 459
f 459 48 460
f 458 459 460
f 64 461 463
f 461 65 462
f 462 57 463
f 461 462 463
f 65 464 466
f 464 66 465
f 465 58 466
f 464 465 466
f 66 467 469
f 467 67 468
f 468 59 469
f 467 468 469
f 67 470 472
f 470 68 471
f 471 60 472
f 470 471 472
f 68 473 475
f 473 69 474
f 474 61 475
f 473 474 475
f 69 476 478
f 476 70 477
f 477 62 478
f 476 477 478
f 70 479 481
f 479 71 480
f 480 63 481
f 479 480 481
f 71 482 484
f 482 64 483
f 483 56 484
f 482 483 484
f 72 485 487
f 485 73 486
f 486 65 487
f 485 486 487
f 73 488 490
f 488 74 489
f 489 66 490
f 488 489 490
f 74 491 493
f 491 75 492
f 492 67 493
f 491 492 493
f 75 494 496
f 494 76 495
f 495 68 496
f 494 495 496
f 76 497 499
f 497 77 498
f 498 69 499
f 497 498 499
f 77 500 502
f 500 78 501
f 501 70 502
f 500 501 502
f 78 503 505
f 503 79 504
f 504 71 505
f 503 504 505
f 79 506 508
f 506 72 507
f 507 64 508
f 506 507 508
f 80 509 511
f 509 81 510
f 510 73 511
f 509 510 511
f 81 512 514
f 512 82 513
f 513 74 514
f 512 513 514
f 82 515 517
f 515 83 516
f 516 75 517
f 515 516 517
f 83 518 520
f 518 84 519
f 519 76 520
f 518 519 520
f 84 521 523
f 521 85 522
f 522 77 523
f 521 522 523
f 85 524 526
f 524 86 525
f 525 78 526
f 524 525 526
f 86 527 529
f 527 87 528
f 528 79 529
f 527 528 529
f 87 530 532
f 530 80 531
f 531 72 532
f 530 531 532
f 37 533 535
f 533 28 534
f 534 39 535
f 533 534 535
f 24 384 537
f 384 37 536
f 536 38 537
f 384 536 537
f 28 538 540
f 538 14 539
f 539 26 540
f 538 539 540
f 13 360 542
f 360 24 541
f 541 25 542
f 360 541 542
f 14 543 545
f 543 1 544
f 544 27 545
f 543 544 545
f 1 338 547
f 338 13 546
f 546 88 547
f 338 546 547
f 35 548 550
f 548 22 549
f 549 20 550
f 548 549 550
f 32 551 553
f 551 35 552
f 552 34 553
f 551 552 553
f 18 375 555
f 375 32 554
f 554 33 555
f 375 554 555
f 22 556 558
f 556 9 557
f 557 21 558
f 556 557 558
f 7 351 560
f 351 18 559
f 559 19 560
f 351 559 560
f 9 329 562
f 329 7 561
f 561 89 562
f 329 561 562
f 90 563 565
f 563 91 564
f 564 92 565
f 563 564 565
f 91 566 568
f 566 93 567
f 567 94 568
f 566 567 568
f 93 569 571
f 569 95 570
f 570 92 571
f 569 570 571
f 95 572 574
f 572 96 573
f 573 97 574
f 572 573 574
f 96 575 577
f 575 98 576
f 576 99 577
f 575 576 577
f 98 578 580
f 578 100 579
f 579 101 580
f 578 579 580
f 100 581 583
f 581 102 582
f 582 99 583
f 581 582 583
f 102 584 586
f 584 90 585
f 585 97 586
f 584 585 586
f 103 587 589
f 587 104 588
f 588 91 589
f 587 588 589
f 104 590 592
f 590 105 591
f 591 93 592
f 590 591 592
f 105 593 595
f 593 106 594
f 594 95 595
f 593 594 595
f 106 596 598
f 596 107 597
f 597 96 598
f 596 597 598
f 107 599 601
f 599 108 600
f 600 98 601
f 599 600 601
f 108 602 604
f 602 109 603
f 603 100 604
f 602 603 604
f 109 605 607
f 605 110 606
f 606 102 607
f 605 606 607
f 110 608 610
f 608 103 609
f 609 90 610
f 608 609 610
f 111 611 613
f 611 112 612
f 612 104 613
f 611 612 613
f 112 614 616
f 614 113 615
f 615 105 616
f 614 615 616
f 113 617 619
f 617 114 618
f 618 106 619
f 617 618 619
f 114 620 622
f 620 115 621
f 621 107 622
f 620 621 622
f 115 623 625
f 623 116 624
f 624 108 625
f 623 624 625
f 116 626 628
f 626 117 627
f 627 109 628
f 626 627 628
f 117 629 631
f 629 118 630
f 630 110 631
f 629 630 631
f 118 632 634
f 632 111 633
f 633 103 634
f 632 633 634
f 119 635 637
f 635 120 636
f 636 112 637
f 635 636 637
f 120 638 640
f 638 121 639
f 639 113 640
f 638 639 640
f 121 641 643
f 641 122 642
f 642 114 643
f 641 642 643
f 122 644 646
f 644 123 645
f 645 115 646
f 644 645 646
f 123 647 649
f 647 124 648
f 648 116 649
f 647 648 649
f 124 650 652
f 650 125 651
f 651 117 652
f 650 651 652
f 125 653 655
f 653 126 654
f 654 118 655
f 653 654 655
f 126 656 658
f 656 119 657
f 657 111 658
f 656 657 658
f 127 659 661
f 659 128 660
f 660 120 661
f 659 660 661
f 128 662 664
f 662 129 663
f 663 121 664
f 662 663 664
f 129 665 667
f 665 130 666
f 666 122 667
f 665 666 667
f 130 668 670
f 668 131 669
f 669 123 670
f 668 669 670
f 131 671 673
f 671 132 672
f 672 124 673
f 671 672 673
f 132 674 676
f 674 133 675
f 675 125 676
f 674 675 676
f 133 677 679
f 677 134 678
f 678 126 679
f 677 678 679
f 134 680 682
f 680 127 681
f 681 119 682
f 680 681 682
f 135 683 685
f 683 136 684
f 684 128 685
f 683 684 685
f 136 686 688
f 686 137 687
f 687 129 688
f 686 687 688
f 137 689 691
f 689 138 690
f 690 130 691
f 689 690 691
f 138 692 694
f 692 139 693
f 693 131 694
f 692 693 694
f 139 695 697
f 695 140 696
f 696 132 697
f 695 696 697
f 140 698 700
f 698 141 699
f 699 133 700
f 698 699 700
f 141 701 703
f 701 142 702
f 702 134 703
f 701 702 703
f 142 704 706
f 704 135 705
f 705 127 706
f 704 705 706
f 143 707 709
f 707 144 708
f 708 136 709
f 707 708 709
f 144 710 712
f 710 145 711
f 711 137 712
f 710 711 712
f 145 713 715
f 713 146 714
f 714 138 715
f 713 714 715
f 146 716 718
f 716 147 717
f 717 139 718
f 716 717 718
f 147 719 721
f 719 148 720
f 720 140 721
f 719 720 721
f 148 722 724
f 722 149 723
f 723 141 724
f 722 723 724
f 149 725 727
f 725 150 726
f 726 142 727
f 725 726 727
f 150 728 730
f 728 143 729
f 729 135 730
f 728 729 730
f 151 731 733
f 731 152 732
f 732 144 733
f 731 732 733
f 152 734 736
f 734 153 735
f 735 145 736
f 734 735 736
f 153 734 738
f 734 152 737
f 737 146 738
f 734 737 738
f 152 731 740
f 731 151 739
f 739 147 740
f 731 739 740
f 151 741 743
f 741 154 742
f 742 148 743
f 741 742 743
f 154 744 746
f 744 155 745
f 745 149 746
f 744 745 746
f 155 744 748
f 744 154 747
f 747 150 748
f 744 747 748
f 154 741 750
f 741 151 749
f 749 143 750
f 741 749 750
f 156 751 753
f 751 157 752
f 752 158 753
f 751 752 753
f 157 754 756
f 754 159 755
f 755 160 756
f 754 755 756
f 159 757 759
f 757 161 758
f 758 162 759
f 757 758 759
f 161 760 762
f 760 163 761
f 761 164 762
f 760 761 762
f 163 763 765
f 763 165 764
f 764 166 765
f 763 764 765
f 165 766 768
f 766 167 767
f 767 168 768
f 766 767 768
f 167 769 771
f 769 169 770
f 770 170 771
f 769 770 771
f 169 772 774
f 772 171 773
f 773 172 774
f 772 773 774
f 171 775 777
f 775 173 776
f 776 174 777
f 775 776 777
f 173 778 780
f 778 175 779
f 779 176 780
f 778 779 780
f 175 781 783
f 781 177 782
f 782 178 783
f 781 782 783
f 177 784 786
f 784 156 785
f 785 179 786
f 784 785 786
f 158 787 789
f 787 160 788
f 788 162 789
f 787 788 789
f 156 784 790
f 784 177 781
f 781 175 790
f 784 781 790
f 180 791 793
f 791 181 792
f 792 182 793
f 791 792 793
f 183 794 796
f 794 184 795
f 795 185 796
f 794 795 796
f 186 797 799
f 797 187 798
f 798 188 799
f 797 798 799
f 189 800 802
f 800 190 801
f 801 191 802
f 800 801 802
f 192 803 805
f 803 193 804
f 804 194 805
f 803 804 805
f 194 804 807
f 804 193 806
f 806 195 807
f 804 806 807
f 196 808 810
f 808 195 809
f 809 197 810
f 808 809 810
f 198 811 813
f 811 197 812
f 812 199 813
f 811 812 813
f 197 814 816
f 814 200 815
f 815 201 816
f 814 815 816
f 195 817 819
f 817 202 818
f 818 200 819
f 817 818 819
f 193 820 822
f 820 203 821
f 821 202 822
f 820 821 822
f 192 823 803
f 823 203 820
f 820 193 803
f 823 820 803
f 192 805 825
f 805 194 824
f 824 204 825
f 805 824 825
f 204 824 827
f 824 194 826
f 826 196 827
f 824 826 827
f 205 828 830
f 828 196 829
f 829 198 830
f 828 829 830
f 206 831 833
f 831 198 832
f 832 207 833
f 831 832 833
f 200 834 836
f 834 208 835
f 835 209 836
f 834 835 836
f 202 837 839
f 837 210 838
f 838 208 839
f 837 838 839
f 203 840 842
f 840 211 841
f 841 210 842
f 840 841 842
f 192 843 823
f 843 211 840
f 840 203 823
f 843 840 823
f 192 825 845
f 825 204 844
f 844 212 845
f 825 844 845
f 212 844 847
f 844 204 846
f 846 205 847
f 844 846 847
f 213 848 850
f 848 205 849
f 849 206 850
f 848 849 850
f 214 851 853
f 851 206 852
f 852 215 853
f 851 852 853
f 208 854 856
f 854 216 855
f 855 217 856
f 854 855 856
f 210 857 859
f 857 218 858
f 858 216 859
f 857 858 859
f 211 860 862
f 860 219 861
f 861 218 862
f 860 861 862
f 192 863 843
f 863 219 860
f 860 211 843
f 863 860 843
f 192 845 865
f 845 212 864
f 864 220 865
f 845 864 865
f 220 864 867
f 864 212 866
f 866 213 867
f 864 866 867
f 221 868 870
f 868 213 869
f 869 214 870
f 868 869 870
f 222 871 873
f 871 214 872
f 872 223 873
f 871 872 873
f 216 874 876
f 874 222 875
f 875 224 876
f 874 875 876
f 218 877 879
f 877 221 878
f 878 222 879
f 877 878 879
f 219 880 882
f 880 220 881
f 881 221 882
f 880 881 882
f 192 865 863
f 865 220 880
f 880 219 863
f 865 880 863
f 225 883 885
f 883 226 884
f 884 227 885
f 883 884 885
f 228 886 888
f 886 229 887
f 887 226 888
f 886 887 888
f 230 889 891
f 889 231 890
f 890 229 891
f 889 890 891
f 232 892 894
f 892 233 893
f 893 231 894
f 892 893 894
f 233 895 897
f 895 234 896
f 896 235 897
f 895 896 897
f 231 898 900
f 898 235 899
f 899 236 900
f 898 899 900
f 229 901 903
f 901 236 902
f 902 237 903
f 901 902 903
f 226 904 884
f 904 237 905
f 905 227 884
f 904 905 884
f 238 906 907
f 906 225 885
f 885 227 907
f 906 885 907
f 239 908 910
f 908 228 909
f 909 225 910
f 908 909 910
f 240 911 913
f 911 230 912
f 912 228 913
f 911 912 913
f 241 914 916
f 914 232 915
f 915 230 916
f 914 915 916
f 234 917 919
f 917 242 918
f 918 243 919
f 917 918 919
f 235 920 922
f 920 243 921
f 921 244 922
f 920 921 922
f 236 923 925
f 923 244 924
f 924 245 925
f 923 924 925
f 237 926 905
f 926 245 927
f 927 227 905
f 926 927 905
f 246 928 929
f 928 238 907
f 907 227 929
f 928 907 929
f 247 930 932
f 930 239 931
f 931 238 932
f 930 931 932
f 248 933 935
f 933 240 934
f 934 239 935
f 933 934 935
f 249 936 938
f 936 241 937
f 937 240 938
f 936 937 938
f 242 939 941
f 939 250 940
f 940 251 941
f 939 940 941
f 243 942 944
f 942 251 943
f 943 252 944
f 942 943 944
f 244 945 947
f 945 252 946
f 946 253 947
f 945 946 947
f 245 948 927
f 948 253 949
f 949 227 927
f 948 949 927
f 254 950 951
f 950 246 929
f 929 227 951
f 950 929 951
f 255 952 954
f 952 247 953
f 953 246 954
f 952 953 954
f 256 955 957
f 955 248 956
f 956 247 957
f 955 956 957
f 257 958 960
f 958 249 959
f 959 248 960
f 958 959 960
f 250 961 963
f 961 257 962
f 962 256 963
f 961 962 963
f 251 964 966
f 964 256 965
f 965 255 966
f 964 965 966
f 252 967 969
f 967 255 968
f 968 254 969
f 967 968 969
f 253 970 949
f 970 254 951
f 951 227 949
f 970 951 949
f 258 971 973
f 971 259 972
f 972 260 973
f 971 972 973
f 259 974 976
f 974 261 975
f 975 262 976
f 974 975 976
f 261 977 979
f 977 263 978
f 978 264 979
f 977 978 979
f 263 980 982
f 980 265 981
f 981 266 982
f 980 981 982
f 265 983 985
f 983 267 984
f 984 268 985
f 983 984 985
f 267 986 988
f 986 269 987
f 987 270 988
f 986 987 988
f 269 989 991
f 989 258 990
f 990 271 991
f 989 990 991
f 260 992 994
f 992 262 993
f 993 264 994
f 992 993 994
f 258 989 995
f 989 269 986
f 986 267 995
f 989 986 995
f 272 996 998
f 996 273 997
f 997 274 998
f 996 997 998
f 273 999 1001
f 999 275 1000
f 1000 276 1001
f 999 1000 1001
f 275 1002 1004
f 1002 277 1003
f 1003 278 1004
f 1002 1003 1004
f 277 1005 1007
f 1005 279 1006
f 1006 280 1007
f 1005 1006 1007
f 279 1008 1010
f 1008 281 1009
f 1009 282 1010
f 1008 1009 1010
f 281 1011 1013
f 1011 283 1012
f 1012 284 1013
f 1011 1012 1013
f 283 1014 1016
f 1014 285 1015
f 1015 286 1016
f 1014 1015 1016
f 285 1017 1019
f 1017 287 1018
f 1018 288 1019
f 1017 1018 1019
f 287 1020 1022
f 1020 272 1021
f 1021 289 1022
f 1020 1021 1022
f 272 1020 1023
f 1020 287 1017
f 1017 285 1023
f 1020 1017 1023
f 274 1024 1026
f 1024 276 1025
f 1025 278 1026
f 1024 1025 1026
f 290 1027 1029
f 1027 291 1028
f 1028 292 1029
f 1027 1028 1029
f 291 1030 1032
f 1030 293 1031
f 1031 294 1032
f 1030 1031 1032
f 293 1033 1035
f 1033 295 1034
f 1034 296 1035
f 1033 1034 1035
f 295 1036 1038
f 1036 297 1037
f 1037 298 1038
f 1036 1037 1038
f 297 1039 1041
f 1039 299 1040
f 1040 300 1041
f 1039 1040 1041
f 299 1042 1044
f 1042 301 1043
f 1043 302 1044
f 1042 1043 1044
f 301 1045 1047
f 1045 303 1046
f 1046 304 1047
f 1045 1046 1047
f 303 1048 1050
f 1048 305 1049
f 1049 306 1050
f 1048 1049 1050
f 305 1051 1053
f 1051 290 1052
f 1052 307 1053
f 1051 1052 1053
f 292 1054 1056
f 1054 294 1055
f 1055 296 1056
f 1054 1055 1056
f 290 1051 1057
f 1051 305 1048
f 1048 303 1057
f 1051 1048 1057
f 1 319 339
f 319 3 1058
f 1058 8 339
f 319 1058 339
f 2 322 318
f 322 5 1059
f 1059 3 318
f 322 1059 318
f 4 325 321
f 325 3 1059
f 1059 5 321
f 325 1059 321
f 6 328 324
f 328 8 1058
f 1058 3 324
f 328 1058 324
f 7 331 327
f 331 10 1060
f 1060 8 327
f 331 1060 327
f 9 334 330
f 334 12 1061
f 1061 10 330
f 334 1061 330
f 11 337 333
f 337 10 1061
f 1061 12 333
f 337 1061 333
f 13 340 336
f 340 8 1060
f 1060 10 336
f 340 1060 336
f 14 343 543
f 343 2 317
f 317 1 543
f 343 317 543
f 15 346 342
f 346 4 320
f 320 2 342
f 346 320 342
f 16 349 345
f 349 6 323
f 323 4 345
f 349 323 345
f 17 352 348
f 352 7 326
f 326 6 348
f 352 326 348
f 19 355 1063
f 355 21 1062
f 1062 89 1063
f 355 1062 1063
f 22 358 556
f 358 11 332
f 332 9 556
f 358 332 556
f 23 361 357
f 361 13 335
f 335 11 357
f 361 335 357
f 25 364 1065
f 364 27 1064
f 1064 88 1065
f 364 1064 1065
f 28 367 538
f 367 15 341
f 341 14 538
f 367 341 538
f 29 370 366
f 370 16 344
f 344 15 366
f 370 344 366
f 30 373 369
f 373 17 347
f 347 16 369
f 373 347 369
f 31 376 372
f 376 18 350
f 350 17 372
f 376 350 372
f 33 379 1066
f 379 20 353
f 353 19 1066
f 379 353 1066
f 35 382 548
f 382 23 356
f 356 22 548
f 382 356 548
f 36 385 381
f 385 24 359
f 359 23 381
f 385 359 381
f 38 388 1067
f 388 26 362
f 362 25 1067
f 388 362 1067
f 40 391 411
f 391 29 365
f 365 28 411
f 391 365 411
f 41 394 390
f 394 30 368
f 368 29 390
f 394 368 390
f 42 397 393
f 397 31 371
f 371 30 393
f 397 371 393
f 43 400 396
f 400 32 374
f 374 31 396
f 400 374 396
f 44 403 399
f 403 35 551
f 551 32 399
f 403 551 399
f 45 406 402
f 406 36 380
f 380 35 402
f 406 380 402
f 46 409 405
f 409 37 383
f 383 36 405
f 409 383 405
f 47 412 408
f 412 28 533
f 533 37 408
f 412 533 408
f 48 415 435
f 415 41 389
f 389 40 435
f 415 389 435
f 49 418 414
f 418 42 392
f 392 41 414
f 418 392 414
f 50 421 417
f 421 43 395
f 395 42 417
f 421 395 417
f 51 424 420
f 424 44 398
f 398 43 420
f 424 398 420
f 52 427 423
f 427 45 401
f 401 44 423
f 427 401 423
f 53 430 426
f 430 46 404
f 404 45 426
f 430 404 426
f 54 433 429
f 433 47 407
f 407 46 429
f 433 407 429
f 55 436 432
f 436 40 410
f 410 47 432
f 436 410 432
f 56 439 459
f 439 49 413
f 413 48 459
f 439 413 459
f 57 442 438
f 442 50 416
f 416 49 438
f 442 416 438
f 58 445 441
f 445 51 419
f 419 50 441
f 445 419 441
f 59 448 444
f 448 52 422
f 422 51 444
f 448 422 444
f 60 451 447
f 451 53 425
f 425 52 447
f 451 425 447
f 61 454 450
f 454 54 428
f 428 53 450
f 454 428 450
f 62 457 453
f 457 55 431
f 431 54 453
f 457 431 453
f 63 460 456
f 460 48 434
f 434 55 456
f 460 434 456
f 64 463 483
f 463 57 437
f 437 56 483
f 463 437 483
f 65 466 462
f 466 58 440
f 440 57 462
f 466 440 462
f 66 469 465
f 469 59 443
f 443 58 465
f 469 443 465
f 67 472 468
f 472 60 446
f 446 59 468
f 472 446 468
f 68 475 471
f 475 61 449
f 449 60 471
f 475 449 471
f 69 478 474
f 478 62 452
f 452 61 474
f 478 452 474
f 70 481 477
f 481 63 455
f 455 62 477
f 481 455 477
f 71 484 480
f 484 56 458
f 458 63 480
f 484 458 480
f 72 487 507
f 487 65 461
f 461 64 507
f 487 461 507
f 73 490 486
f 490 66 464
f 464 65 486
f 490 464 486
f 74 493 489
f 493 67 467
f 467 66 489
f 493 467 489
f 75 496 492
f 496 68 470
f 470 67 492
f 496 470 492
f 76 499 495
f 499 69 473
f 473 68 495
f 499 473 495
f 77 502 498
f 502 70 476
f 476 69 498
f 502 476 498
f 78 505 501
f 505 71 479
f 479 70 501
f 505 479 501
f 79 508 504
f 508 64 482
f 482 71 504
f 508 482 504
f 80 511 531
f 511 73 485
f 485 72 531
f 511 485 531
f 81 514 510
f 514 74 488
f 488 73 510
f 514 488 510
f 82 517 513
f 517 75 491
f 491 74 513
f 517 491 513
f 83 520 516
f 520 76 494
f 494 75 516
f 520 494 516
f 84 523 519
f 523 77 497
f 497 76 519
f 523 497 519
f 85 526 522
f 526 78 500
f 500 77 522
f 526 500 522
f 86 529 525
f 529 79 503
f 503 78 525
f 529 503 525
f 87 532 528
f 532 72 506
f 506 79 528
f 532 506 528
f 308 1068 1069
f 1068 81 509
f 509 80 1069
f 1068 509 1069
f 308 1070 1068
f 1070 82 512
f 512 81 1068
f 1070 512 1068
f 308 1071 1070
f 1071 83 515
f 515 82 1070
f 1071 515 1070
f 308 1072 1071
f 1072 84 518
f 518 83 1071
f 1072 518 1071
f 308 1073 1072
f 1073 85 521
f 521 84 1072
f 1073 521 1072
f 308 1074 1073
f 1074 86 524
f 524 85 1073
f 1074 524 1073
f 308 1075 1074
f 1075 87 527
f 527 86 1074
f 1075 527 1074
f 308 1069 1075
f 1069 80 530
f 530 87 1075
f 1069 530 1075
f 37 535 536
f 535 39 386
f 386 38 536
f 535 386 536
f 24 537 541
f 537 38 1067
f 1067 25 541
f 537 1067 541
f 28 540 534
f 540 26 387
f 387 39 534
f 540 387 534
f 13 542 546
f 542 25 1065
f 1065 88 546
f 542 1065 546
f 14 545 539
f 545 27 363
f 363 26 539
f 545 363 539
f 1 547 544
f 547 88 1064
f 1064 27 544
f 547 1064 544
f 35 550 552
f 550 20 378
f 378 34 552
f 550 378 552
f 32 553 554
f 553 34 377
f 377 33 554
f 553 377 554
f 18 555 559
f 555 33 1066
f 1066 19 559
f 555 1066 559
f 22 558 549
f 558 21 354
f 354 20 549
f 558 354 549
f 7 560 561
f 560 19 1063
f 1063 89 561
f 560 1063 561
f 9 562 557
f 562 89 1062
f 1062 21 557
f 562 1062 557
f 90 565 585
f 565 92 1076
f 1076 97 585
f 565 1076 585
f 91 568 564
f 568 94 1077
f 1077 92 564
f 568 1077 564
f 93 571 567
f 571 92 1077
f 1077 94 567
f 571 1077 567
f 95 574 570
f 574 97 1076
f 1076 92 570
f 574 1076 570
f 96 577 573
f 577 99 1078
f 1078 97 573
f 577 1078 573
f 98 580 576
f 580 101 1079
f 1079 99 576
f 580 1079 576
f 100 583 579
f 583 99 1079
f 1079 101 579
f 583 1079 579
f 102 586 582
f 586 97 1078
f 1078 99 582
f 586 1078 582
f 103 589 609
f 589 91 563
f 563 90 609
f 589 563 609
f 104 592 588
f 592 93 566
f 566 91 588
f 592 566 588
f 105 595 591
f 595 95 569
f 569 93 591
f 595 569 591
f 106 598 594
f 598 96 572
f 572 95 594
f 598 572 594
f 107 601 597
f 601 98 575
f 575 96 597
f 601 575 597
f 108 604 600
f 604 100 578
f 578 98 600
f 604 578 600
f 109 607 603
f 607 102 581
f 581 100 603
f 607 581 603
f 110 610 606
f 610 90 584
f 584 102 606
f 610 584 606
f 111 613 633
f 613 104 587
f 587 103 633
f 613 587 633
f 112 616 612
f 616 105 590
f 590 104 612
f 616 590 612
f 113 619 615
f 619 106 593
f 593 105 615
f 619 593 615
f 114 622 618
f 622 107 596
f 596 106 618
f 622 596 618
f 115 625 621
f 625 108 599
f 599 107 621
f 625 599 621
f 116 628 624
f 628 109 602
f 602 108 624
f 628 602 624
f 117 631 627
f 631 110 605
f 605 109 627
f 631 605 627
f 118 634 630
f 634 103 608
f 608 110 630
f 634 608 630
f 119 637 657
f 637 112 611
f 611 111 657
f 637 611 657
f 120 640 636
f 640 113 614
f 614 112 636
f 640 614 636
f 121 643 639
f 643 114 617
f 617 113 639
f 643 617 639
f 122 646 642
f 646 115 620
f 620 114 642
f 646 620 642
f 123 649 645
f 649 116 623
f 623 115 645
f 649 623 645
f 124 652 648
f 652 117 626
f 626 116 648
f 652 626 648
f 125 655 651
f 655 118 629
f 629 117 651
f 655 629 651
f 126 658 654
f 658 111 632
f 632 118 654
f 658 632 654
f 127 661 681
f 661 120 635
f 635 119 681
f 661 635 681
f 128 664 660
f 664 121 638
f 638 120 660
f 664 638 660
f 129 667 663
f 667 122 641
f 641 121 663
f 667 641 663
f 130 670 666
f 670 123 644
f 644 122 666
f 670 644 666
f 131 673 669
f 673 124 647
f 647 123 669
f 673 647 669
f 132 676 672
f 676 125 650
f 650 124 672
f 676 650 672
f 133 679 675
f 679 126 653
f 653 125 675
f 679 653 675
f 134 682 678
f 682 119 656
f 656 126 678
f 682 656 678
f 135 685 705
f 685 128 659
f 659 127 705
f 685 659 705
f 136 688 684
f 688 129 662
f 662 128 684
f 688 662 684
f 137 691 687
f 691 130 665
f 665 129 687
f 691 665 687
f 138 694 690
f 694 131 668
f 668 130 690
f 694 668 690
f 139 697 693
f 697 132 671
f 671 131 693
f 697 671 693
f 140 700 696
f 700 133 674
f 674 132 696
f 700 674 696
f 141 703 699
f 703 134 677
f 677 133 699
f 703 677 699
f 142 706 702
f 706 127 680
f 680 134 702
f 706 680 702
f 143 709 729
f 709 136 683
f 683 135 729
f 709 683 729
f 144 712 708
f 712 137 686
f 686 136 708
f 712 686 708
f 145 715 711
f 715 138 689
f 689 137 711
f 715 689 711
f 146 718 714
f 718 139 692
f 692 138 714
f 718 692 714
f 147 721 717
f 721 140 695
f 695 139 717
f 721 695 717
f 148 724 720
f 724 141 698
f 698 140 720
f 724 698 720
f 149 727 723
f 727 142 701
f 701 141 723
f 727 701 723
f 150 730 726
f 730 135 704
f 704 142 726
f 730 704 726
f 151 733 749
f 733 144 707
f 707 143 749
f 733 707 749
f 152 736 732
f 736 145 710
f 710 144 732
f 736 710 732
f 153 738 735
f 738 146 713
f 713 145 735
f 738 713 735
f 152 740 737
f 740 147 716
f 716 146 737
f 740 716 737
f 151 743 739
f 743 148 719
f 719 147 739
f 743 719 739
f 154 746 742
f 746 149 722
f 722 148 742
f 746 722 742
f 155 748 745
f 748 150 725
f 725 149 745
f 748 725 745
f 154 750 747
f 750 143 728
f 728 150 747
f 750 728 747
f 156 753 785
f 753 158 1080
f 1080 179 785
f 753 1080 785
f 157 756 752
f 756 160 787
f 787 158 752
f 756 787 752
f 159 759 755
f 759 162 788
f 788 160 755
f 759 788 755
f 161 762 758
f 762 164 1081
f 1081 162 758
f 762 1081 758
f 163 765 761
f 765 166 1082
f 1082 164 761
f 765 1082 761
f 165 768 764
f 768 168 1083
f 1083 166 764
f 768 1083 764
f 167 771 767
f 771 170 1084
f 1084 168 767
f 771 1084 767
f 169 774 770
f 774 172 1085
f 1085 170 770
f 774 1085 770
f 171 777 773
f 777 174 1086
f 1086 172 773
f 777 1086 773
f 173 780 776
f 780 176 1087
f 1087 174 776
f 780 1087 776
f 175 783 779
f 783 178 1088
f 1088 176 779
f 783 1088 779
f 177 786 782
f 786 179 1089
f 1089 178 782
f 786 1089 782
f 158 789 1090
f 789 162 1081
f 1081 164 1090
f 789 1081 1090
f 158 1090 1091
f 1090 164 1082
f 1082 166 1091
f 1090 1082 1091
f 158 1091 1092
f 1091 166 1083
f 1083 168 1092
f 1091 1083 1092
f 158 1092 1093
f 1092 168 1084
f 1084 170 1093
f 1092 1084 1093
f 158 1093 1094
f 1093 170 1085
f 1085 172 1094
f 1093 1085 1094
f 158 1094 1095
f 1094 172 1086
f 1086 174 1095
f 1094 1086 1095
f 158 1095 1096
f 1095 174 1087
f 1087 176 1096
f 1095 1087 1096
f 158 1096 1097
f 1096 176 1088
f 1088 178 1097
f 1096 1088 1097
f 158 1097 1080
f 1097 178 1089
f 1089 179 1080
f 1097 1089 1080
f 156 790 1098
f 790 175 778
f 778 173 1098
f 790 778 1098
f 156 1098 1099
f 1098 173 775
f 775 171 1099
f 1098 775 1099
f 156 1099 1100
f 1099 171 772
f 772 169 1100
f 1099 772 1100
f 156 1100 1101
f 1100 169 769
f 769 167 1101
f 1100 769 1101
f 156 1101 1102
f 1101 167 766
f 766 165 1102
f 1101 766 1102
f 156 1102 1103
f 1102 165 763
f 763 163 1103
f 1102 763 1103
f 156 1103 1104
f 1103 163 760
f 760 161 1104
f 1103 760 1104
f 156 1104 1105
f 1104 161 757
f 757 159 1105
f 1104 757 1105
f 156 1105 751
f 1105 159 754
f 754 157 751
f 1105 754 751
f 180 793 1107
f 793 182 1106
f 1106 309 1107
f 793 1106 1107
f 183 796 1109
f 796 185 1108
f 1108 310 1109
f 796 1108 1109
f 186 799 1111
f 799 188 1110
f 1110 311 1111
f 799 1110 1111
f 186 1111 1113
f 1111 311 1112
f 1112 312 1113
f 1111 1112 1113
f 186 1113 1115
f 1113 312 1114
f 1114 313 1115
f 1113 1114 1115
f 189 802 1117
f 802 191 1116
f 1116 314 1117
f 802 1116 1117
f 189 1117 1119
f 1117 314 1118
f 1118 315 1119
f 1117 1118 1119
f 189 1119 1121
f 1119 315 1120
f 1120 316 1121
f 1119 1120 1121
f 194 807 826
f 807 195 808
f 808 196 826
f 807 808 826
f 196 810 829
f 810 197 811
f 811 198 829
f 810 811 829
f 198 813 832
f 813 199 1122
f 1122 207 832
f 813 1122 832
f 197 816 812
f 816 201 1123
f 1123 199 812
f 816 1123 812
f 195 819 809
f 819 200 814
f 814 197 809
f 819 814 809
f 193 822 806
f 822 202 817
f 817 195 806
f 822 817 806
f 204 827 846
f 827 196 828
f 828 205 846
f 827 828 846
f 205 830 849
f 830 198 831
f 831 206 849
f 830 831 849
f 206 833 852
f 833 207 1124
f 1124 215 852
f 833 1124 852
f 200 836 815
f 836 209 1125
f 1125 201 815
f 836 1125 815
f 202 839 818
f 839 208 834
f 834 200 818
f 839 834 818
f 203 842 821
f 842 210 837
f 837 202 821
f 842 837 821
f 212 847 866
f 847 205 848
f 848 213 866
f 847 848 866
f 213 850 869
f 850 206 851
f 851 214 869
f 850 851 869
f 214 853 872
f 853 215 1126
f 1126 223 872
f 853 1126 872
f 208 856 835
f 856 217 1127
f 1127 209 835
f 856 1127 835
f 210 859 838
f 859 216 854
f 854 208 838
f 859 854 838
f 211 862 841
f 862 218 857
f 857 210 841
f 862 857 841
f 220 867 881
f 867 213 868
f 868 221 881
f 867 868 881
f 221 870 878
f 870 214 871
f 871 222 878
f 870 871 878
f 222 873 875
f 873 223 1128
f 1128 224 875
f 873 1128 875
f 216 876 855
f 876 224 1129
f 1129 217 855
f 876 1129 855
f 218 879 858
f 879 222 874
f 874 216 858
f 879 874 858
f 219 882 861
f 882 221 877
f 877 218 861
f 882 877 861
f 228 888 909
f 888 226 883
f 883 225 909
f 888 883 909
f 230 891 912
f 891 229 886
f 886 228 912
f 891 886 912
f 232 894 915
f 894 231 889
f 889 230 915
f 894 889 915
f 233 897 893
f 897 235 898
f 898 231 893
f 897 898 893
f 231 900 890
f 900 236 901
f 901 229 890
f 900 901 890
f 229 903 887
f 903 237 904
f 904 226 887
f 903 904 887
f 239 910 931
f 910 225 906
f 906 238 931
f 910 906 931
f 240 913 934
f 913 228 908
f 908 239 934
f 913 908 934
f 241 916 937
f 916 230 911
f 911 240 937
f 916 911 937
f 234 919 896
f 919 243 920
f 920 235 896
f 919 920 896
f 235 922 899
f 922 244 923
f 923 236 899
f 922 923 899
f 236 925 902
f 925 245 926
f 926 237 902
f 925 926 902
f 247 932 953
f 932 238 928
f 928 246 953
f 932 928 953
f 248 935 956
f 935 239 930
f 930 247 956
f 935 930 956
f 249 938 959
f 938 240 933
f 933 248 959
f 938 933 959
f 242 941 918
f 941 251 942
f 942 243 918
f 941 942 918
f 243 944 921
f 944 252 945
f 945 244 921
f 944 945 921
f 244 947 924
f 947 253 948
f 948 245 924
f 947 948 924
f 255 954 968
f 954 246 950
f 950 254 968
f 954 950 968
f 256 957 965
f 957 247 952
f 952 255 965
f 957 952 965
f 257 960 962
f 960 248 955
f 955 256 962
f 960 955 962
f 250 963 940
f 963 256 964
f 964 251 940
f 963 964 940
f 251 966 943
f 966 255 967
f 967 252 943
f 966 967 943
f 252 969 946
f 969 254 970
f 970 253 946
f 969 970 946
f 258 973 990
f 973 260 1130
f 1130 271 990
f 973 1130 990
f 259 976 972
f 976 262 992
f 992 260 972
f 976 992 972
f 261 979 975
f 979 264 993
f 993 262 975
f 979 993 975
f 263 982 978
f 982 266 1131
f 1131 264 978
f 982 1131 978
f 265 985 981
f 985 268 1132
f 1132 266 981
f 985 1132 981
f 267 988 984
f 988 270 1133
f 1133 268 984
f 988 1133 984
f 269 991 987
f 991 271 1134
f 1134 270 987
f 991 1134 987
f 260 994 1135
f 994 264 1131
f 1131 266 1135
f 994 1131 1135
f 260 1135 1136
f 1135 266 1132
f 1132 268 1136
f 1135 1132 1136
f 260 1136 1137
f 1136 268 1133
f 1133 270 1137
f 1136 1133 1137
f 260 1137 1130
f 1137 270 1134
f 1134 271 1130
f 1137 1134 1130
f 258 995 1138
f 995 267 983
f 983 265 1138
f 995 983 1138
f 258 1138 1139
f 1138 265 980
f 980 263 1139
f 1138 980 1139
f 258 1139 1140
f 1139 263 977
f 977 261 1140
f 1139 977 1140
f 258 1140 971
f 1140 261 974
f 974 259 971
f 1140 974 971
f 272 998 1021
f 998 274 1141
f 1141 289 1021
f 998 1141 1021
f 273 1001 997
f 1001 276 1024
f 1024 274 997
f 1001 1024 997
f 275 1004 1000
f 1004 278 1025
f 1025 276 1000
f 1004 1025 1000
f 277 1007 1003
f 1007 280 1142
f 1142 278 1003
f 1007 1142 1003
f 279 1010 1006
f 1010 282 1143
f 1143 280 1006
f 1010 1143 1006
f 281 1013 1009
f 1013 284 1144
f 1144 282 1009
f 1013 1144 1009
f 283 1016 1012
f 1016 286 1145
f 1145 284 1012
f 1016 1145 1012
f 285 1019 1015
f 1019 288 1146
f 1146 286 1015
f 1019 1146 1015
f 287 1022 1018
f 1022 289 1147
f 1147 288 1018
f 1022 1147 1018
f 272 1023 1148
f 1023 285 1014
f 1014 283 1148
f 1023 1014 1148
f 272 1148 1149
f 1148 283 1011
f 1011 281 1149
f 1148 1011 1149
f 272 1149 1150
f 1149 281 1008
f 1008 279 1150
f 1149 1008 1150
f 272 1150 1151
f 1150 279 1005
f 1005 277 1151
f 1150 1005 1151
f 272 1151 1152
f 1151 277 1002
f 1002 275 1152
f 1151 1002 1152
f 272 1152 996
f 1152 275 999
f 999 273 996
f 1152 999 996
f 274 1026 1153
f 1026 278 1142
f 1142 280 1153
f 1026 1142 1153
f 274 1153 1154
f 1153 280 1143
f 1143 282 1154
f 1153 1143 1154
f 274 1154 1155
f 1154 282 1144
f 1144 284 1155
f 1154 1144 1155
f 274 1155 1156
f 1155 284 1145
f 1145 286 1156
f 1155 1145 1156
f 274 1156 1157
f 1156 286 1146
f 1146 288 1157
f 1156 1146 1157
f 274 1157 1141
f 1157 288 1147
f 1147 289 1141
f 1157 1147 1141
f 290 1029 1052
f 1029 292 1158
f 1158 307 1052
f 1029 1158 1052
f 291 1032 1028
f 1032 294 1054
f 1054 292 1028
f 1032 1054 1028
f 293 1035 1031
f 1035 296 1055
f 1055 294 1031
f 1035 1055 1031
f 295 1038 1034
f 1038 298 1159
f 1159 296 1034
f 1038 1159 1034
f 297 1041 1037
f 1041 300 1160
f 1160 298 1037
f 1041 1160 1037
f 299 1044 1040
f 1044 302 1161
f 1161 300 1040
f 1044 1161 1040
f 301 1047 1043
f 1047 304 1162
f 1162 302 1043
f 1047 1162 1043
f 303 1050 1046
f 1050 306 1163
f 1163 304 1046
f 1050 1163 1046
f 305 1053 1049
f 1053 307 1164
f 1164 306 1049
f 1053 1164 1049
f 292 1056 1165
f 1056 296 1159
f 1159 298 1165
f 1056 1159 1165
f 292 1165 1166
f 1165 298 1160
f 1160 300 1166
f 1165 1160 1166
f 292 1166 1167
f 1166 300 1161
f 1161 302 1167
f 1166 1161 1167
f 292 1167 1168
f 1167 302 1162
f 1162 304 1168
f 1167 1162 1168
f 292 1168 1169
f 1168 304 1163
f 1163 306 1169
f 1168 1163 1169
f 292 1169 1158
f 1169 306 1164
f 1164 307 1158
f 1169 1164 1158
f 290 1057 1170
f 1057 303 1045
f 1045 301 1170
f 1057 1045 1170
f 290 1170 1171
f 1170 301 1042
f 1042 299 1171
f 1170 1042 1171
f 290 1171 1172
f 1171 299 1039
f 1039 297 1172
f 1171 1039 1172
f 290 1172 1173
f 1172 297 1036
f 1036 295 1173
f 1172 1036 1173
f 290 1173 1174
f 1173 295 1033
f 1033 293 1174
f 1173 1033 1174
f 290 1174 1027
f 1174 293 1030
f 1030 291 1027
f 1174 1030 1027
