# Unified Preprocessed OBJ file from m79.obj
# Applied remeshing: Yes
# Applied 4-step normalization: centering, PCA alignment, flipping, scaling
# Generated on 2025-09-29 15:02:44

v -0.212744 -0.011005 -0.035846
v -0.285903 -0.017921 -0.028603
v -0.274136 0.000712 -0.036032
v -0.263034 0.021382 0.051736
v -0.270291 0.012109 0.033351
v -0.229071 0.020003 0.038167
v -0.270712 0.029847 0.072938
v -0.330487 -0.027759 -0.036716
v -0.342137 -0.037161 -0.054030
v -0.313977 -0.027531 -0.041315
v -0.285819 -0.017901 -0.028600
v -0.338137 -0.022652 -0.022989
v -0.075419 -0.033049 -0.008225
v -0.143509 -0.038096 -0.009121
v -0.108901 -0.047605 -0.026601
v -0.141838 -0.049996 -0.027099
v -0.159522 -0.063763 -0.043269
v 0.240938 -0.059197 0.014165
v 0.091879 -0.051263 0.009821
v 0.078964 -0.134194 0.020244
v -0.369852 -0.027961 -0.020015
v -0.411396 -0.045190 -0.004242
v -0.493763 -0.051924 -0.048204
v -0.269506 -0.032581 -0.021066
v -0.267239 -0.045169 -0.004532
v -0.091388 -0.028547 -0.021940
v -0.212745 -0.010998 -0.035849
v -0.077106 -0.011231 -0.037396
v -0.048087 0.006689 -0.047426
v 0.094239 -0.035703 -0.023147
v 0.092228 -0.048404 -0.008411
v 0.096477 -0.019289 -0.035007
v 0.098205 -0.005591 -0.042119
v 0.182109 -0.013626 -0.037099
v 0.091203 -0.052606 0.003651
v 0.195989 -0.059962 0.005580
v 0.208740 -0.051722 -0.009961
v 0.386001 -0.028978 -0.015586
v 0.326431 -0.043940 -0.012836
v 0.290088 -0.022752 -0.027930
v 0.200360 -0.032349 -0.026460
v 0.408898 -0.045882 0.000380
v 0.431973 -0.041062 0.008173
v 0.381980 -0.054377 0.013887
v 0.324015 -0.059204 0.004874
v 0.284055 -0.060852 0.016278
v 0.175076 -0.058050 0.014447
v 0.090956 -0.051382 0.011013
v -0.073005 -0.034004 -0.007484
v -0.170123 -0.039587 -0.006008
v -0.207086 -0.042421 0.005424
v -0.042482 -0.037864 0.004245
v -0.367087 -0.052409 0.009066
v -0.450711 -0.041232 0.003610
v -0.469689 -0.028967 -0.001994
v 0.444026 -0.028034 0.002390
v 0.433731 -0.029956 -0.004714
v 0.091087 -0.042760 0.025588
v -0.073148 -0.021765 0.019788
v -0.267397 -0.031637 0.025619
v -0.411539 -0.032951 0.023029
v -0.555967 0.041386 0.172108
v -0.370116 -0.005444 0.030158
v -0.450713 -0.041232 0.003610
v 0.091965 -0.025886 0.041761
v -0.091705 -0.001484 0.038360
v -0.269823 -0.005518 0.039234
v 0.093843 -0.001927 0.052111
v -0.077536 0.025488 0.044419
v -0.213140 0.022778 0.039409
v -0.048548 0.046071 0.040324
v 0.096016 0.020094 0.052742
v 0.097729 0.035003 0.048330
v 0.433616 -0.020110 0.017223
v 0.408755 -0.033643 0.027652
v 0.323856 -0.045672 0.035025
v 0.195845 -0.047722 0.032851
v 0.385737 -0.006460 0.034587
v 0.326114 -0.016877 0.047464
v 0.208423 -0.024660 0.050338
v 0.289692 0.011024 0.047328
v 0.199930 0.004370 0.055355
v 0.181648 0.025757 0.050651
v -0.286233 0.010234 0.034109
v -0.285904 -0.017913 -0.028606
v -0.121467 0.042778 -0.067231
v -0.154604 0.041704 -0.044994
v -0.087611 0.054647 -0.047647
v -0.153854 0.036437 -0.065953
v -0.172458 0.029285 -0.085097
v 0.111003 0.127196 -0.096900
v 0.105936 0.063425 -0.041578
v 0.253303 0.041691 -0.031049
v -0.493762 -0.051934 -0.048199
v -0.414489 -0.011275 -0.019480
v -0.369852 -0.027971 -0.020010
v -0.276498 0.021423 -0.034467
v -0.100646 0.038047 -0.051876
v -0.081292 0.018884 -0.050934
v -0.048086 0.006684 -0.047424
v 0.102121 0.028611 -0.051970
v 0.104053 0.048070 -0.051647
v 0.099924 0.008830 -0.047609
v 0.098204 -0.005595 -0.042117
v 0.182109 -0.013628 -0.037098
v 0.208843 0.044918 -0.041423
v 0.104989 0.059879 -0.046760
v 0.218215 0.025576 -0.044604
v 0.290087 -0.022754 -0.027929
v 0.331169 -0.005290 -0.030157
v 0.204645 0.002609 -0.042127
v 0.413184 -0.010922 -0.015287
v 0.389864 0.009940 -0.014938
v 0.435420 -0.012939 -0.004430
v 0.295881 0.035623 -0.026958
v 0.333490 0.018096 -0.029768
v 0.188864 0.054437 -0.035965
v 0.105167 0.064566 -0.040950
v -0.181032 0.038888 -0.041285
v -0.085567 0.056353 -0.048102
v -0.218642 0.040693 -0.031938
v -0.054961 0.066963 -0.042868
v -0.372777 0.009996 -0.018971
v -0.453200 -0.013952 -0.008646
v -0.469688 -0.028978 -0.001989
v 0.104874 0.069724 -0.024823
v -0.085710 0.068592 -0.020831
v -0.276656 0.034955 -0.004317
v -0.414632 0.000965 0.007792
v -0.370116 -0.005453 0.030162
v -0.555974 0.041375 0.172114
v -0.453201 -0.013952 -0.008646
v 0.103789 0.070587 -0.001474
v -0.100963 0.065110 0.008423
v -0.274453 0.027775 0.024268
v 0.101726 0.062387 0.023288
v -0.081722 0.055602 0.030881
v -0.213139 0.022771 0.039413
v -0.048547 0.046066 0.040326
v 0.099462 0.048212 0.040140
v 0.097729 0.034999 0.048332
v 0.413040 0.001318 0.011984
v 0.333331 0.031628 0.000383
v 0.208700 0.057157 -0.014151
v 0.330852 0.021773 0.030143
v 0.217898 0.052639 0.015696
v 0.289692 0.011022 0.047329
v 0.204215 0.039328 0.039688
v 0.181647 0.025754 0.050652
v -0.286232 0.010226 0.034112
v -0.010941 0.053435 0.056136
v 0.023700 0.043346 0.043100
v 0.097892 0.036343 0.047767
v -0.048706 0.047228 0.039841
v -0.035455 0.084403 0.118532
v -0.011104 0.052094 0.056697
v -0.048562 0.048979 0.039018
v 0.023537 0.042006 0.043661
v -0.249323 -0.014463 -0.032224
v -0.280019 -0.008604 -0.032318
v -0.243440 -0.005146 -0.035939
v -0.266663 0.016746 0.042544
v -0.249681 0.016056 0.035759
v -0.246053 0.020693 0.044952
v -0.266873 0.025614 0.062337
v -0.249891 0.024925 0.055552
v -0.336312 -0.032460 -0.045373
v -0.328057 -0.032346 -0.047672
v -0.322232 -0.027645 -0.039015
v -0.308153 -0.022830 -0.032658
v -0.299898 -0.022716 -0.034957
v -0.334312 -0.025206 -0.029852
v -0.311978 -0.020276 -0.025794
v -0.109464 -0.035572 -0.008673
v -0.126205 -0.042851 -0.017861
v -0.092160 -0.040327 -0.017413
v -0.142674 -0.044046 -0.018110
v -0.125370 -0.048801 -0.026850
v -0.150680 -0.056880 -0.035184
v -0.134212 -0.055684 -0.034935
v 0.166408 -0.055230 0.011993
v 0.085421 -0.092729 0.015032
v 0.159951 -0.096696 0.017204
v -0.390624 -0.036576 -0.012128
v -0.452579 -0.048557 -0.026223
v -0.431807 -0.039943 -0.034109
v -0.319679 -0.030271 -0.020540
v -0.340451 -0.038885 -0.012654
v -0.268372 -0.038875 -0.012799
v -0.339317 -0.045180 -0.004387
v -0.180447 -0.030564 -0.021503
v -0.179313 -0.036858 -0.013236
v -0.241126 -0.021789 -0.028457
v -0.144925 -0.011115 -0.036622
v -0.173306 -0.021906 -0.029231
v -0.130416 -0.002155 -0.041637
v -0.062596 -0.002271 -0.042411
v -0.084247 -0.019889 -0.029668
v 0.008567 -0.023467 -0.030272
v 0.001425 -0.032125 -0.022544
v 0.000420 -0.038475 -0.015176
v 0.093234 -0.042053 -0.015779
v 0.024195 -0.006300 -0.041217
v 0.009686 -0.015260 -0.036202
v 0.025059 0.000549 -0.044772
v 0.097341 -0.012440 -0.038563
v 0.095358 -0.027496 -0.029077
v 0.140157 -0.009608 -0.039609
v 0.139293 -0.016457 -0.036053
v 0.091715 -0.050505 -0.002380
v 0.144109 -0.054183 -0.001416
v 0.143596 -0.056284 0.004616
v 0.150484 -0.050063 -0.009186
v 0.202364 -0.055842 -0.002191
v 0.151489 -0.043713 -0.016554
v 0.356216 -0.036459 -0.014211
v 0.308259 -0.033346 -0.020383
v 0.338044 -0.025865 -0.021758
v 0.147300 -0.034026 -0.024804
v 0.204550 -0.042036 -0.018211
v 0.148419 -0.025819 -0.030734
v 0.263396 -0.038145 -0.019648
v 0.267586 -0.047831 -0.011399
v 0.245224 -0.027551 -0.027195
v 0.236098 -0.018189 -0.032515
v 0.191234 -0.022987 -0.031779
v 0.397450 -0.037430 -0.007603
v 0.367665 -0.044911 -0.006228
v 0.406976 -0.047719 0.011030
v 0.395439 -0.050130 0.007134
v 0.420436 -0.043472 0.004277
v 0.304035 -0.060028 0.010576
v 0.240022 -0.060407 0.010929
v 0.260002 -0.059583 0.005227
v 0.266377 -0.055463 -0.002543
v 0.333017 -0.057615 0.015082
v 0.352997 -0.056790 0.009381
v 0.366457 -0.052543 0.002627
v 0.325223 -0.051572 -0.003981
v 0.229566 -0.059451 0.015363
v 0.185532 -0.059006 0.010014
v 0.133139 -0.055328 0.009049
v 0.091079 -0.051994 0.007332
v 0.133016 -0.054716 0.012730
v -0.170122 -0.039587 -0.006008
v -0.218681 -0.042378 -0.005270
v -0.121564 -0.036795 -0.006746
v -0.237162 -0.043795 0.000446
v -0.140045 -0.038212 -0.001030
v -0.057743 -0.035934 -0.001620
v -0.124784 -0.040143 0.004835
v -0.082196 -0.031276 -0.014712
v 0.009612 -0.041204 -0.007947
v 0.009099 -0.043305 -0.001916
v 0.024360 -0.045235 0.003948
v 0.024237 -0.044623 0.007629
v -0.287086 -0.047415 0.007245
v -0.317163 -0.048789 0.002267
v -0.389241 -0.048800 0.002412
v -0.431053 -0.043211 -0.000316
v -0.408899 -0.046821 0.006338
v -0.472237 -0.046578 -0.022297
v -0.460200 -0.035100 0.000808
v -0.481726 -0.040446 -0.025099
v 0.437999 -0.034548 0.005282
v 0.432852 -0.035509 0.001730
v 0.438879 -0.028995 -0.001162
v 0.421315 -0.037919 -0.002167
v 0.409866 -0.029467 -0.010150
v 0.024303 -0.040312 0.014917
v 0.091021 -0.047071 0.018301
v -0.057815 -0.029814 0.012016
v 0.008970 -0.032262 0.022688
v -0.140117 -0.032093 0.012606
v -0.237242 -0.037029 0.015522
v -0.170272 -0.026701 0.022703
v -0.317242 -0.042023 0.017343
v -0.339468 -0.032294 0.024324
v -0.389313 -0.042680 0.016048
v -0.483753 0.004218 0.097569
v -0.390828 -0.019197 0.026594
v -0.463041 0.017971 0.101133
v -0.431126 -0.037091 0.013320
v -0.408900 -0.046820 0.006338
v -0.503340 0.000077 0.087859
v -0.512828 0.006209 0.085057
v -0.460201 -0.035100 0.000808
v 0.009408 -0.023825 0.030775
v 0.091526 -0.034323 0.033675
v -0.082427 -0.011624 0.029074
v 0.000130 -0.013685 0.040061
v -0.179551 -0.016561 0.031989
v -0.268610 -0.018578 0.032426
v -0.180764 -0.003501 0.038797
v -0.340681 -0.019234 0.031132
v -0.319969 -0.005481 0.034696
v 0.001069 -0.001706 0.045235
v 0.092904 -0.013906 0.046936
v -0.084621 0.012002 0.041389
v 0.008154 0.011780 0.048265
v -0.173679 0.009985 0.041826
v -0.145338 0.024133 0.041914
v -0.241482 0.008630 0.039322
v -0.130844 0.034424 0.039866
v -0.063042 0.035779 0.042371
v 0.009240 0.022791 0.048580
v 0.094930 0.009083 0.052426
v 0.023734 0.033082 0.046533
v 0.096873 0.027548 0.050536
v 0.024591 0.040537 0.044327
v 0.432794 -0.030586 0.012698
v 0.438821 -0.024072 0.009807
v 0.421185 -0.026877 0.022438
v 0.420364 -0.037352 0.017913
v 0.395367 -0.044010 0.020769
v 0.366306 -0.039657 0.031339
v 0.352918 -0.050025 0.024456
v 0.303956 -0.053262 0.025652
v 0.259851 -0.046697 0.033938
v 0.239950 -0.054287 0.024565
v 0.185461 -0.052886 0.023649
v 0.143466 -0.045241 0.029220
v 0.133082 -0.050405 0.020018
v 0.409676 -0.013285 0.025905
v 0.397246 -0.020051 0.031119
v 0.355926 -0.011669 0.041026
v 0.367435 -0.025260 0.037558
v 0.324985 -0.031275 0.041245
v 0.267269 -0.020768 0.048901
v 0.266140 -0.035166 0.042682
v 0.202134 -0.036191 0.041595
v 0.150194 -0.025273 0.046050
v 0.143905 -0.036804 0.037306
v 0.307903 -0.002927 0.047396
v 0.337715 0.002282 0.040957
v 0.244811 0.007697 0.051341
v 0.263022 -0.006254 0.051410
v 0.204177 -0.010145 0.052847
v 0.146887 0.001221 0.053733
v 0.151133 -0.013293 0.051225
v 0.235670 0.018390 0.048989
v 0.190789 0.015063 0.053003
v 0.138832 0.022925 0.051696
v 0.147973 0.012232 0.054048
v 0.139688 0.030380 0.049490
v -0.328175 0.002395 0.032133
v -0.278028 0.002358 0.036671
v -0.249687 0.016506 0.036759
v -0.130756 -0.034067 -0.013974
v -0.327878 -0.022937 -0.024311
v -0.277705 -0.025247 -0.024836
v -0.249324 -0.014455 -0.032228
v -0.138035 0.042241 -0.056113
v -0.121107 0.048176 -0.046321
v -0.104539 0.048713 -0.057439
v -0.137661 0.039607 -0.066592
v -0.154229 0.039071 -0.055474
v -0.163156 0.032861 -0.075525
v -0.146962 0.036031 -0.076164
v 0.108469 0.095310 -0.069239
v 0.179619 0.052558 -0.036313
v 0.182153 0.084443 -0.063975
v -0.454125 -0.031604 -0.033839
v -0.392170 -0.019623 -0.019745
v -0.431807 -0.039953 -0.034105
v -0.321994 -0.013630 -0.028021
v -0.344312 -0.005281 -0.027756
v -0.275317 0.011067 -0.035250
v -0.345493 0.005074 -0.026973
v -0.187391 0.019379 -0.043954
v -0.188572 0.029735 -0.043172
v -0.147018 0.003939 -0.043390
v -0.177714 0.009798 -0.043483
v -0.064689 0.012784 -0.049179
v -0.130415 -0.002161 -0.041635
v -0.090969 0.028465 -0.051405
v 0.010414 0.023747 -0.051452
v 0.000737 0.033329 -0.051923
v 0.001703 0.043058 -0.051762
v 0.103087 0.038340 -0.051808
v 0.025919 0.007757 -0.047516
v 0.009316 0.013857 -0.049271
v 0.099064 0.001618 -0.044863
v 0.025059 0.000545 -0.044770
v 0.101022 0.018720 -0.049790
v 0.141016 -0.002399 -0.042353
v 0.140156 -0.009611 -0.039607
v 0.156448 0.046494 -0.046535
v 0.104521 0.053974 -0.049203
v 0.156916 0.052399 -0.044091
v 0.161134 0.036823 -0.048125
v 0.213529 0.035247 -0.043013
v 0.160168 0.027093 -0.048287
v 0.310628 -0.014022 -0.029043
v 0.358585 -0.017134 -0.022871
v 0.338044 -0.025866 -0.021758
v 0.211430 0.014093 -0.043365
v 0.153383 0.015610 -0.047049
v 0.152284 0.005720 -0.044868
v 0.274692 0.010143 -0.037380
v 0.267907 -0.001340 -0.036142
v 0.247366 -0.010072 -0.035028
v 0.236098 -0.018191 -0.032513
v 0.193377 -0.005509 -0.039612
v 0.372176 -0.008106 -0.022722
v 0.399592 -0.019950 -0.015437
v 0.401524 -0.000491 -0.015113
v 0.412642 -0.001499 -0.009684
v 0.424302 -0.011930 -0.009859
v 0.252362 0.040270 -0.034190
v 0.314685 0.026860 -0.028363
v 0.271167 0.031507 -0.035595
v 0.275852 0.021836 -0.037186
v 0.342872 0.022781 -0.020948
v 0.361677 0.014018 -0.022353
v 0.373337 0.003587 -0.022528
v 0.332329 0.006403 -0.029962
v 0.198854 0.049678 -0.038694
v 0.242372 0.045030 -0.031461
v 0.146927 0.057158 -0.041362
v 0.105078 0.062223 -0.043855
v 0.147016 0.059502 -0.038457
v -0.228765 0.030155 -0.037876
v -0.181032 0.038888 -0.041285
v -0.133299 0.047620 -0.044694
v -0.247570 0.031058 -0.033203
v -0.152104 0.048523 -0.040020
v -0.070264 0.061658 -0.045485
v -0.136802 0.053828 -0.037403
v -0.093106 0.047200 -0.049989
v 0.009243 0.052211 -0.049874
v 0.009711 0.058116 -0.047431
v 0.025014 0.063421 -0.044814
v 0.025103 0.065765 -0.041909
v -0.324637 0.015710 -0.026719
v -0.295709 0.025345 -0.025455
v -0.393633 -0.000639 -0.019226
v -0.433844 -0.012614 -0.014063
v -0.412988 -0.001978 -0.013809
v -0.473481 -0.032943 -0.028423
v -0.481725 -0.040456 -0.025094
v -0.461444 -0.021465 -0.005318
v 0.434575 -0.021447 -0.004572
v 0.439723 -0.020487 -0.001020
v 0.423457 -0.020439 -0.010001
v 0.024956 0.068344 -0.033845
v 0.105021 0.067145 -0.032886
v -0.070336 0.067778 -0.031849
v 0.009582 0.069158 -0.022827
v -0.152176 0.054643 -0.026384
v -0.247649 0.037824 -0.018127
v -0.181183 0.051773 -0.012574
v -0.324716 0.022475 -0.011644
v -0.393704 0.005481 -0.005590
v -0.345644 0.017960 0.001738
v -0.392374 -0.002244 0.018977
v -0.485303 0.021170 0.089953
v -0.463045 0.017961 0.101138
v -0.412989 -0.001978 -0.013809
v -0.433916 -0.006494 -0.000427
v -0.504587 0.013711 0.081734
v -0.461444 -0.021465 -0.005318
v -0.512831 0.006198 0.085062
v 0.009039 0.069590 -0.011152
v 0.104331 0.070156 -0.013148
v -0.093337 0.066851 -0.006204
v 0.001413 0.067848 0.003475
v -0.188810 0.050032 0.002053
v -0.275554 0.031365 0.009976
v -0.187708 0.046442 0.016346
v -0.344542 0.014370 0.016030
v -0.322284 0.011161 0.027215
v 0.000381 0.063748 0.015856
v 0.102757 0.066487 0.010907
v -0.091343 0.060356 0.019652
v 0.010002 0.058995 0.027084
v -0.178088 0.041689 0.027574
v -0.243796 0.025273 0.031840
v -0.147431 0.039187 0.035147
v -0.130843 0.034419 0.039869
v -0.065135 0.050834 0.035603
v 0.008870 0.051907 0.035511
v 0.100594 0.055300 0.031714
v 0.025458 0.047139 0.040233
v 0.098596 0.041606 0.044236
v 0.024591 0.040533 0.044329
v 0.434518 -0.016525 0.006397
v 0.424230 -0.005811 0.003777
v 0.423328 -0.009396 0.014604
v 0.401452 0.005629 -0.001477
v 0.361598 0.020784 -0.007277
v 0.373186 0.016473 0.006183
v 0.314606 0.033625 -0.013288
v 0.252290 0.046390 -0.020555
v 0.271016 0.044393 -0.006884
v 0.198782 0.055797 -0.025058
v 0.146869 0.062081 -0.030394
v 0.156787 0.063441 -0.019487
v 0.399389 -0.002571 0.023285
v 0.371946 0.011545 0.021063
v 0.358294 0.007656 0.032365
v 0.332092 0.026700 0.015263
v 0.275615 0.042134 0.008040
v 0.274375 0.037206 0.022920
v 0.213299 0.054898 0.000772
v 0.156244 0.063872 -0.007813
v 0.160843 0.061613 0.007111
v 0.310272 0.016397 0.038736
v 0.337715 0.002281 0.040958
v 0.267533 0.030550 0.034915
v 0.246954 0.025175 0.043508
v 0.211057 0.045984 0.027692
v 0.159812 0.057513 0.019492
v 0.152970 0.050857 0.031488
v 0.192931 0.032541 0.045170
v 0.235670 0.018388 0.048990
v 0.151839 0.043770 0.039914
v 0.140555 0.036983 0.045396
v 0.139688 0.030376 0.049492
v -0.328174 0.002386 0.032137
v -0.280342 0.019000 0.029190
v -0.249686 0.016499 0.036762
v -0.140839 0.038467 -0.046581
v -0.327877 -0.022946 -0.024307
v 0.006379 0.048390 0.049618
v 0.060796 0.039844 0.045433
v 0.043475 0.044889 0.051951
v -0.029824 0.050332 0.047988
v -0.012503 0.045287 0.041470
v -0.023198 0.068919 0.087334
v 0.031218 0.060373 0.083149
v -0.029833 0.050537 0.047858
v -0.012512 0.045493 0.041340
v 0.006217 0.047050 0.050179
v 0.060633 0.038504 0.045996
v 0.043313 0.043549 0.052514
f 1 159 161
f 159 2 160
f 160 3 161
f 159 160 161
f 4 162 164
f 162 5 163
f 163 6 164
f 162 163 164
f 7 165 166
f 165 4 164
f 164 6 166
f 165 164 166
f 8 167 169
f 167 9 168
f 168 10 169
f 167 168 169
f 11 170 171
f 170 8 169
f 169 10 171
f 170 169 171
f 12 172 173
f 172 8 170
f 170 11 173
f 172 170 173
f 13 174 176
f 174 14 175
f 175 15 176
f 174 175 176
f 14 177 175
f 177 16 178
f 178 15 175
f 177 178 175
f 15 178 180
f 178 16 179
f 179 17 180
f 178 179 180
f 18 181 183
f 181 19 182
f 182 20 183
f 181 182 183
f 21 184 186
f 184 22 185
f 185 23 186
f 184 185 186
f 22 184 188
f 184 21 187
f 187 24 188
f 184 187 188
f 22 188 190
f 188 24 189
f 189 25 190
f 188 189 190
f 25 189 192
f 189 24 191
f 191 26 192
f 189 191 192
f 24 193 195
f 193 27 194
f 194 28 195
f 193 194 195
f 27 196 194
f 196 29 197
f 197 28 194
f 196 197 194
f 24 195 191
f 195 28 198
f 198 26 191
f 195 198 191
f 26 198 200
f 198 28 199
f 199 30 200
f 198 199 200
f 31 201 202
f 201 26 200
f 200 30 202
f 201 200 202
f 28 197 204
f 197 29 203
f 203 32 204
f 197 203 204
f 29 205 203
f 205 33 206
f 206 32 203
f 205 206 203
f 28 204 199
f 204 32 207
f 207 30 199
f 204 207 199
f 33 208 206
f 208 34 209
f 209 32 206
f 208 209 206
f 35 210 212
f 210 31 211
f 211 36 212
f 210 211 212
f 36 211 214
f 211 31 213
f 213 37 214
f 211 213 214
f 31 202 213
f 202 30 215
f 215 37 213
f 202 215 213
f 38 216 218
f 216 39 217
f 217 40 218
f 216 217 218
f 30 219 215
f 219 41 220
f 220 37 215
f 219 220 215
f 32 221 207
f 221 41 219
f 219 30 207
f 221 219 207
f 41 222 220
f 222 39 223
f 223 37 220
f 222 223 220
f 40 217 224
f 217 39 222
f 222 41 224
f 217 222 224
f 34 225 226
f 225 40 224
f 224 41 226
f 225 224 226
f 32 209 221
f 209 34 226
f 226 41 221
f 209 226 221
f 38 227 216
f 227 42 228
f 228 39 216
f 227 228 216
f 43 229 231
f 229 44 230
f 230 42 231
f 229 230 231
f 45 232 234
f 232 46 233
f 233 36 234
f 232 233 234
f 45 234 235
f 234 36 214
f 214 37 235
f 234 214 235
f 44 236 237
f 236 46 232
f 232 45 237
f 236 232 237
f 42 230 238
f 230 44 237
f 237 45 238
f 230 237 238
f 42 238 228
f 238 45 239
f 239 39 228
f 238 239 228
f 39 239 223
f 239 45 235
f 235 37 223
f 239 235 223
f 46 240 233
f 240 47 241
f 241 36 233
f 240 241 233
f 47 242 241
f 242 35 212
f 212 36 241
f 242 212 241
f 48 243 244
f 243 35 242
f 242 47 244
f 243 242 244
f 49 245 247
f 245 25 246
f 246 50 247
f 245 246 247
f 51 248 249
f 248 25 245
f 245 49 249
f 248 245 249
f 51 249 251
f 249 49 250
f 250 52 251
f 249 250 251
f 49 252 253
f 252 26 201
f 201 31 253
f 252 201 253
f 52 250 255
f 250 49 254
f 254 35 255
f 250 254 255
f 35 254 210
f 254 49 253
f 253 31 210
f 254 253 210
f 48 256 243
f 256 52 255
f 255 35 243
f 256 255 243
f 51 257 248
f 257 53 258
f 258 25 248
f 257 258 248
f 53 259 258
f 259 22 190
f 190 25 258
f 259 190 258
f 54 260 261
f 260 22 259
f 259 53 261
f 260 259 261
f 54 262 260
f 262 23 185
f 185 22 260
f 262 185 260
f 54 263 262
f 263 55 264
f 264 23 262
f 263 264 262
f 56 265 267
f 265 43 266
f 266 57 267
f 265 266 267
f 57 268 269
f 268 42 227
f 227 38 269
f 268 227 269
f 57 266 268
f 266 43 231
f 231 42 268
f 266 231 268
f 58 270 271
f 270 52 256
f 256 48 271
f 270 256 271
f 59 272 273
f 272 52 270
f 270 58 273
f 272 270 273
f 59 274 272
f 274 51 251
f 251 52 272
f 274 251 272
f 60 275 276
f 275 51 274
f 274 59 276
f 275 274 276
f 60 277 275
f 277 53 257
f 257 51 275
f 277 257 275
f 60 278 277
f 278 61 279
f 279 53 277
f 278 279 277
f 62 280 282
f 280 61 281
f 281 63 282
f 280 281 282
f 61 283 279
f 283 64 284
f 284 53 279
f 283 284 279
f 62 285 280
f 285 64 283
f 283 61 280
f 285 283 280
f 62 286 285
f 286 55 287
f 287 64 285
f 286 287 285
f 65 288 289
f 288 59 273
f 273 58 289
f 288 273 289
f 66 290 291
f 290 59 288
f 288 65 291
f 290 288 291
f 66 292 290
f 292 60 276
f 276 59 290
f 292 276 290
f 67 293 294
f 293 60 292
f 292 66 294
f 293 292 294
f 67 295 293
f 295 61 278
f 278 60 293
f 295 278 293
f 67 296 295
f 296 63 281
f 281 61 295
f 296 281 295
f 68 297 298
f 297 66 291
f 291 65 298
f 297 291 298
f 69 299 300
f 299 66 297
f 297 68 300
f 299 297 300
f 69 301 299
f 301 67 294
f 294 66 299
f 301 294 299
f 69 302 301
f 302 70 303
f 303 67 301
f 302 303 301
f 71 304 305
f 304 70 302
f 302 69 305
f 304 302 305
f 72 306 307
f 306 69 300
f 300 68 307
f 306 300 307
f 71 305 308
f 305 69 306
f 306 72 308
f 305 306 308
f 71 308 310
f 308 72 309
f 309 73 310
f 308 309 310
f 74 311 312
f 311 43 265
f 265 56 312
f 311 265 312
f 74 313 311
f 313 75 314
f 314 43 311
f 313 314 311
f 43 314 229
f 314 75 315
f 315 44 229
f 314 315 229
f 75 316 315
f 316 76 317
f 317 44 315
f 316 317 315
f 44 317 236
f 317 76 318
f 318 46 236
f 317 318 236
f 76 319 318
f 319 77 320
f 320 46 318
f 319 320 318
f 77 321 320
f 321 47 240
f 240 46 320
f 321 240 320
f 77 322 321
f 322 58 323
f 323 47 321
f 322 323 321
f 58 271 323
f 271 48 244
f 244 47 323
f 271 244 323
f 74 324 313
f 324 78 325
f 325 75 313
f 324 325 313
f 78 326 325
f 326 79 327
f 327 75 325
f 326 327 325
f 75 327 316
f 327 79 328
f 328 76 316
f 327 328 316
f 79 329 328
f 329 80 330
f 330 76 328
f 329 330 328
f 80 331 330
f 331 77 319
f 319 76 330
f 331 319 330
f 80 332 331
f 332 65 333
f 333 77 331
f 332 333 331
f 65 289 333
f 289 58 322
f 322 77 333
f 289 322 333
f 81 334 335
f 334 79 326
f 326 78 335
f 334 326 335
f 81 336 334
f 336 82 337
f 337 79 334
f 336 337 334
f 82 338 337
f 338 80 329
f 329 79 337
f 338 329 337
f 82 339 338
f 339 68 340
f 340 80 338
f 339 340 338
f 68 298 340
f 298 65 332
f 332 80 340
f 298 332 340
f 81 341 336
f 341 83 342
f 342 82 336
f 341 342 336
f 83 343 342
f 343 72 344
f 344 82 342
f 343 344 342
f 72 307 344
f 307 68 339
f 339 82 344
f 307 339 344
f 73 309 345
f 309 72 343
f 343 83 345
f 309 343 345
f 84 346 347
f 346 63 296
f 296 67 347
f 346 296 347
f 70 348 303
f 348 84 347
f 347 67 303
f 348 347 303
f 50 246 349
f 246 25 192
f 192 26 349
f 246 192 349
f 49 247 252
f 247 50 349
f 349 26 252
f 247 349 252
f 21 350 187
f 350 85 351
f 351 24 187
f 350 351 187
f 24 351 193
f 351 85 352
f 352 27 193
f 351 352 193
f 86 353 355
f 353 87 354
f 354 88 355
f 353 354 355
f 86 356 353
f 356 89 357
f 357 87 353
f 356 357 353
f 90 358 359
f 358 89 356
f 356 86 359
f 358 356 359
f 91 360 362
f 360 92 361
f 361 93 362
f 360 361 362
f 94 363 365
f 363 95 364
f 364 96 365
f 363 364 365
f 3 366 367
f 366 96 364
f 364 95 367
f 366 364 367
f 97 368 369
f 368 3 367
f 367 95 369
f 368 367 369
f 98 370 371
f 370 3 368
f 368 97 371
f 370 368 371
f 99 372 373
f 372 1 161
f 161 3 373
f 372 161 373
f 99 374 372
f 374 100 375
f 375 1 372
f 374 375 372
f 98 376 370
f 376 99 373
f 373 3 370
f 376 373 370
f 101 377 378
f 377 99 376
f 376 98 378
f 377 376 378
f 101 378 380
f 378 98 379
f 379 102 380
f 378 379 380
f 103 381 382
f 381 100 374
f 374 99 382
f 381 374 382
f 103 383 381
f 383 104 384
f 384 100 381
f 383 384 381
f 101 385 377
f 385 103 382
f 382 99 377
f 385 382 377
f 103 386 383
f 386 105 387
f 387 104 383
f 386 387 383
f 106 388 390
f 388 102 389
f 389 107 390
f 388 389 390
f 108 391 392
f 391 102 388
f 388 106 392
f 391 388 392
f 108 393 391
f 393 101 380
f 380 102 391
f 393 380 391
f 109 394 396
f 394 110 395
f 395 38 396
f 394 395 396
f 108 397 393
f 397 111 398
f 398 101 393
f 397 398 393
f 101 398 385
f 398 111 399
f 399 103 385
f 398 399 385
f 108 400 397
f 400 110 401
f 401 111 397
f 400 401 397
f 111 401 402
f 401 110 394
f 394 109 402
f 401 394 402
f 111 402 404
f 402 109 403
f 403 105 404
f 402 403 404
f 111 404 399
f 404 105 386
f 386 103 399
f 404 386 399
f 110 405 395
f 405 112 406
f 406 38 395
f 405 406 395
f 112 407 409
f 407 113 408
f 408 114 409
f 407 408 409
f 106 410 412
f 410 115 411
f 411 116 412
f 410 411 412
f 108 392 413
f 392 106 412
f 412 116 413
f 392 412 413
f 116 411 415
f 411 115 414
f 414 113 415
f 411 414 415
f 116 415 416
f 415 113 407
f 407 112 416
f 415 407 416
f 110 417 405
f 417 116 416
f 416 112 405
f 417 416 405
f 108 413 400
f 413 116 417
f 417 110 400
f 413 417 400
f 106 418 410
f 418 117 419
f 419 115 410
f 418 419 410
f 106 390 418
f 390 107 420
f 420 117 418
f 390 420 418
f 117 420 422
f 420 107 421
f 421 118 422
f 420 421 422
f 119 423 425
f 423 97 424
f 424 120 425
f 423 424 425
f 120 424 427
f 424 97 426
f 426 121 427
f 424 426 427
f 122 428 429
f 428 120 427
f 427 121 429
f 428 427 429
f 102 379 431
f 379 98 430
f 430 120 431
f 379 430 431
f 107 432 433
f 432 120 428
f 428 122 433
f 432 428 433
f 102 431 389
f 431 120 432
f 432 107 389
f 431 432 389
f 107 433 421
f 433 122 434
f 434 118 421
f 433 434 421
f 97 435 426
f 435 123 436
f 436 121 426
f 435 436 426
f 97 369 435
f 369 95 437
f 437 123 435
f 369 437 435
f 123 437 439
f 437 95 438
f 438 124 439
f 437 438 439
f 95 363 438
f 363 94 440
f 440 124 438
f 363 440 438
f 94 441 440
f 441 125 442
f 442 124 440
f 441 442 440
f 57 443 267
f 443 114 444
f 444 56 267
f 443 444 267
f 38 406 269
f 406 112 445
f 445 57 269
f 406 445 269
f 112 409 445
f 409 114 443
f 443 57 445
f 409 443 445
f 118 434 447
f 434 122 446
f 446 126 447
f 434 446 447
f 126 446 449
f 446 122 448
f 448 127 449
f 446 448 449
f 122 429 448
f 429 121 450
f 450 127 448
f 429 450 448
f 127 450 452
f 450 121 451
f 451 128 452
f 450 451 452
f 121 436 451
f 436 123 453
f 453 128 451
f 436 453 451
f 123 454 453
f 454 129 455
f 455 128 453
f 454 455 453
f 130 456 458
f 456 129 457
f 457 131 458
f 456 457 458
f 123 459 454
f 459 132 460
f 460 129 454
f 459 460 454
f 129 460 457
f 460 132 461
f 461 131 457
f 460 461 457
f 132 462 461
f 462 125 463
f 463 131 461
f 462 463 461
f 126 449 465
f 449 127 464
f 464 133 465
f 449 464 465
f 133 464 467
f 464 127 466
f 466 134 467
f 464 466 467
f 127 452 466
f 452 128 468
f 468 134 466
f 452 468 466
f 134 468 470
f 468 128 469
f 469 135 470
f 468 469 470
f 128 455 469
f 455 129 471
f 471 135 469
f 455 471 469
f 129 456 471
f 456 130 472
f 472 135 471
f 456 472 471
f 133 467 474
f 467 134 473
f 473 136 474
f 467 473 474
f 136 473 476
f 473 134 475
f 475 137 476
f 473 475 476
f 134 470 475
f 470 135 477
f 477 137 475
f 470 477 475
f 135 478 477
f 478 138 479
f 479 137 477
f 478 479 477
f 137 479 481
f 479 138 480
f 480 139 481
f 479 480 481
f 136 476 483
f 476 137 482
f 482 140 483
f 476 482 483
f 140 482 484
f 482 137 481
f 481 139 484
f 482 481 484
f 141 485 486
f 485 140 484
f 484 139 486
f 485 484 486
f 56 444 312
f 444 114 487
f 487 74 312
f 444 487 312
f 114 488 487
f 488 142 489
f 489 74 487
f 488 489 487
f 113 490 408
f 490 142 488
f 488 114 408
f 490 488 408
f 113 491 490
f 491 143 492
f 492 142 490
f 491 492 490
f 115 493 414
f 493 143 491
f 491 113 414
f 493 491 414
f 115 494 493
f 494 144 495
f 495 143 493
f 494 495 493
f 115 419 494
f 419 117 496
f 496 144 494
f 419 496 494
f 117 497 496
f 497 126 498
f 498 144 496
f 497 498 496
f 117 422 497
f 422 118 447
f 447 126 497
f 422 447 497
f 142 499 489
f 499 78 324
f 324 74 489
f 499 324 489
f 142 500 499
f 500 145 501
f 501 78 499
f 500 501 499
f 143 502 492
f 502 145 500
f 500 142 492
f 502 500 492
f 143 503 502
f 503 146 504
f 504 145 502
f 503 504 502
f 143 495 503
f 495 144 505
f 505 146 503
f 495 505 503
f 144 506 505
f 506 133 507
f 507 146 505
f 506 507 505
f 144 498 506
f 498 126 465
f 465 133 506
f 498 465 506
f 78 501 509
f 501 145 508
f 508 147 509
f 501 508 509
f 145 510 508
f 510 148 511
f 511 147 508
f 510 511 508
f 145 504 510
f 504 146 512
f 512 148 510
f 504 512 510
f 146 513 512
f 513 136 514
f 514 148 512
f 513 514 512
f 146 507 513
f 507 133 474
f 474 136 513
f 507 474 513
f 148 515 511
f 515 149 516
f 516 147 511
f 515 516 511
f 148 517 515
f 517 140 518
f 518 149 515
f 517 518 515
f 148 514 517
f 514 136 483
f 483 140 517
f 514 483 517
f 149 518 519
f 518 140 485
f 485 141 519
f 518 485 519
f 135 472 521
f 472 130 520
f 520 150 521
f 472 520 521
f 135 521 478
f 521 150 522
f 522 138 478
f 521 522 478
f 98 371 523
f 371 97 423
f 423 119 523
f 371 423 523
f 98 523 430
f 523 119 425
f 425 120 430
f 523 425 430
f 3 160 366
f 160 2 524
f 524 96 366
f 160 524 366
f 151 525 527
f 525 152 526
f 526 153 527
f 525 526 527
f 151 528 525
f 528 154 529
f 529 152 525
f 528 529 525
f 155 530 531
f 530 151 527
f 527 153 531
f 530 527 531
f 156 532 534
f 532 157 533
f 533 158 534
f 532 533 534
f 156 534 536
f 534 158 535
f 535 73 536
f 534 535 536
