# Original shape: D00988.obj
# No processing applied - exact copy of source file
# Generated on 2025-10-13 12:06:19

v 0.766519 0.394598 0.119809
v 0.765348 0.421326 0.117522
v 0.753431 0.388610 0.121812
v 0.738687 0.420419 0.120579
v 0.739859 0.393692 0.122867
v 0.751775 0.426407 0.118577
v 0.771455 0.408150 0.118032
v 0.733752 0.406868 0.122356
v 0.755280 0.413164 0.027315
v 0.761387 0.399988 0.027826
v 0.756452 0.386436 0.029603
v 0.743364 0.380448 0.031606
v 0.729791 0.385530 0.032661
v 0.723684 0.398706 0.032150
v 0.728620 0.412257 0.030373
v 0.741708 0.418245 0.028371
v 0.705694 0.345286 -0.425187
v 0.704523 0.372014 -0.427474
v 0.692606 0.339298 -0.423184
v 0.677862 0.371107 -0.424417
v 0.679033 0.344380 -0.422129
v 0.690950 0.377096 -0.426419
v 0.710630 0.358838 -0.426964
v 0.672927 0.357556 -0.422640
v 0.694455 0.363852 -0.517681
v 0.700562 0.350676 -0.517170
v 0.695626 0.337125 -0.515393
v 0.682539 0.331136 -0.513391
v 0.668966 0.336218 -0.512336
v 0.662859 0.349394 -0.512846
v 0.667795 0.362945 -0.514623
v 0.680882 0.368934 -0.516626
v 0.777806 -0.598548 0.208410
v 0.783912 -0.611724 0.208921
v 0.782741 -0.584997 0.206633
v 0.815509 -0.597266 0.204086
v 0.809402 -0.584090 0.203576
v 0.810573 -0.610817 0.205863
v 0.797485 -0.616806 0.207866
v 0.795829 -0.579008 0.204631
v 0.799334 -0.592252 0.113369
v 0.805441 -0.605428 0.113880
v 0.800505 -0.618979 0.115657
v 0.787418 -0.624968 0.117660
v 0.773845 -0.619886 0.118715
v 0.767738 -0.606710 0.118204
v 0.772674 -0.593158 0.116427
v 0.785762 -0.587170 0.114424
v -0.839797 0.325049 -0.250869
v -0.857821 0.305509 -0.247089
v -0.826224 0.319967 -0.251924
v -0.838141 0.287251 -0.247634
v -0.820117 0.306791 -0.251413
v -0.851714 0.292333 -0.246579
v -0.852885 0.319061 -0.248866
v -0.825053 0.293240 -0.249636
v -0.836292 0.311805 -0.342130
v -0.830185 0.298629 -0.341620
v -0.835121 0.285078 -0.339843
v -0.848208 0.279089 -0.337840
v -0.861781 0.284171 -0.336785
v -0.867888 0.297347 -0.337296
v -0.862952 0.310899 -0.339073
v -0.849865 0.316887 -0.341075
v -0.830704 0.353906 0.037055
v -0.828716 0.308549 0.040937
v -0.785460 0.355444 0.031867
v -0.783473 0.310087 0.035749
v -0.860597 0.282702 -0.244716
v -0.862585 0.328060 -0.248598
v -0.815353 0.284241 -0.249905
v -0.817341 0.329598 -0.253787
v -0.805595 0.339120 -0.148546
v -0.759554 -0.711653 -0.058610
v 0.679908 0.389629 -0.318908
v 0.725949 -0.661144 -0.228972
v -0.770293 -0.720359 -0.154830
v -0.816334 0.330414 -0.244766
v 0.715211 -0.669850 -0.325192
v 0.669169 0.380922 -0.415128
v 0.716981 -0.647860 -0.336586
v 0.723087 -0.661036 -0.336075
v 0.721916 -0.634308 -0.338363
v 0.754684 -0.646578 -0.340910
v 0.748577 -0.633402 -0.341420
v 0.749748 -0.660129 -0.339133
v 0.736660 -0.666117 -0.337130
v 0.735004 -0.628320 -0.340365
v 0.738509 -0.641564 -0.431627
v 0.744616 -0.654740 -0.431116
v 0.739680 -0.668291 -0.429339
v 0.726593 -0.674279 -0.427337
v 0.713020 -0.669197 -0.426282
v 0.706913 -0.656022 -0.426792
v 0.711849 -0.642470 -0.428569
v 0.724936 -0.636482 -0.430572
v 0.764652 -0.582799 0.131730
v 0.766639 -0.628156 0.135612
v 0.809896 -0.581261 0.126541
v 0.811883 -0.626618 0.130423
v 0.714204 -0.670666 -0.334213
v 0.712217 -0.625309 -0.338095
v 0.759448 -0.669128 -0.339401
v 0.757460 -0.623771 -0.343283
v -0.799527 0.357697 0.109956
v -0.817550 0.338157 0.113736
v -0.785954 0.352615 0.108901
v -0.797870 0.319899 0.113191
v -0.779847 0.339439 0.109412
v -0.811443 0.324981 0.114246
v -0.812614 0.351708 0.111959
v -0.784783 0.325887 0.111189
v -0.796021 0.344453 0.018695
v -0.789915 0.331277 0.019206
v -0.794850 0.317725 0.020983
v -0.807938 0.311737 0.022985
v -0.821511 0.316819 0.024040
v -0.827618 0.329995 0.023529
v -0.822682 0.343546 0.021752
v -0.809594 0.349535 0.019750
v -0.767892 0.340402 -0.152870
v -0.755727 0.350264 -0.043871
v 0.642205 0.388347 -0.314584
v 0.654370 0.398209 -0.205585
v 0.693729 0.361693 -0.206674
v 0.681564 0.351831 -0.315673
v 0.690226 0.376060 -0.207582
v 0.675685 0.370558 -0.316711
v 0.661278 0.383923 -0.316313
v 0.681515 0.388044 -0.207695
v 0.687330 0.380044 -0.207620
v 0.668924 0.395822 -0.206993
v 0.673110 0.393237 -0.207226
v 0.736458 -0.613484 -0.123208
v 0.724293 -0.623346 -0.232207
v 0.689164 0.362385 -0.196260
v 0.686186 0.374596 -0.197033
v 0.683677 0.362329 -0.194101
v 0.678782 0.384783 -0.197128
v 0.681224 0.372386 -0.194737
v 0.675127 0.380775 -0.194815
v 0.666313 0.386219 -0.194324
v 0.668079 0.391394 -0.196532
v 0.656125 0.387890 -0.193339
v 0.691003 0.362268 -0.198561
v 0.689480 0.375941 -0.201734
v 0.692843 0.362152 -0.200862
v 0.681120 0.387444 -0.201842
v 0.669035 0.394909 -0.201169
v 0.655387 0.395311 -0.197576
v 0.655708 0.393423 -0.195335
v 0.655066 0.397200 -0.199817
v -0.754389 0.345478 -0.033621
v -0.753972 0.339945 -0.031624
v -0.755031 0.349255 -0.038103
v -0.754710 0.347367 -0.035862
v -0.770029 0.346897 -0.041970
v -0.786522 0.334697 -0.150275
v -0.799716 0.320393 -0.147508
v -0.781902 0.338287 -0.039866
v -0.773976 0.344035 -0.041270
v -0.803939 0.301323 -0.145311
v -0.789538 0.325747 -0.037879
v -0.787000 0.329915 -0.038539
v -0.791774 0.311185 -0.036312
v -0.766546 0.342616 -0.032005
v -0.763983 0.337588 -0.030294
v -0.772295 0.331562 -0.028821
v -0.776638 0.335298 -0.030216
v -0.777640 0.322783 -0.027430
v -0.783128 0.324638 -0.028528
v -0.785029 0.312261 -0.027195
v -0.768759 0.346023 -0.036278
v -0.780154 0.337759 -0.034259
v -0.787483 0.325723 -0.032352
v -0.787329 0.312004 -0.029022
v -0.789629 0.311746 -0.030848
v -0.779205 0.312590 -0.026333
v -0.761210 -0.673855 -0.061845
v -0.749045 -0.663993 0.047154
v 0.688246 -0.662426 -0.224648
v 0.706876 -0.656721 -0.227243
v -0.721851 -0.710371 -0.062934
v -0.755331 -0.692582 -0.060807
v 0.720070 -0.642417 -0.230010
v -0.740924 -0.705947 -0.061205
v -0.709686 -0.700508 0.046065
v 0.700411 -0.652564 -0.115649
v 0.714714 -0.649196 -0.117550
v 0.718660 -0.646334 -0.118249
v 0.726586 -0.640586 -0.119654
v 0.734222 -0.628046 -0.121641
v 0.731684 -0.632215 -0.120980
v 0.701173 -0.640204 -0.105343
v 0.701253 -0.646011 -0.106369
v 0.711185 -0.637847 -0.106674
v 0.713410 -0.643148 -0.107985
v 0.719496 -0.631820 -0.108147
v 0.723502 -0.635830 -0.109773
v 0.729992 -0.625171 -0.111462
v 0.724841 -0.623042 -0.109538
v 0.726406 -0.612849 -0.110635
v 0.701113 -0.648272 -0.108255
v 0.714701 -0.647302 -0.111965
v 0.700974 -0.650534 -0.110141
v 0.726097 -0.639038 -0.113985
v 0.733426 -0.627002 -0.115892
v 0.733732 -0.612909 -0.115095
v 0.731893 -0.612793 -0.112794
v 0.735572 -0.613026 -0.117396
v -0.719112 -0.686478 0.057357
v -0.708924 -0.688149 0.056371
v -0.727926 -0.681034 0.057848
v -0.736476 -0.662588 0.057133
v -0.734023 -0.672645 0.057769
v -0.745541 -0.678359 0.048063
v -0.736831 -0.690344 0.048175
v -0.742646 -0.682343 0.048100
v -0.724240 -0.698122 0.047474
v -0.728425 -0.695536 0.047707
v -0.742300 -0.662917 0.056270
v -0.739322 -0.675129 0.057043
v -0.731918 -0.685316 0.057138
v -0.721216 -0.691927 0.056542
v -0.708844 -0.693955 0.055345
v -0.744600 -0.663174 0.054444
v -0.743537 -0.677220 0.053491
v -0.746900 -0.663431 0.052618
v -0.735177 -0.688723 0.053598
v -0.723092 -0.696188 0.052925
v -0.708984 -0.696217 0.053459
v -0.709123 -0.698479 0.051573
v 0.720598 0.422616 0.045676
v 0.722585 0.377259 0.049558
v 0.765842 0.424155 0.040487
v 0.767829 0.378798 0.044369
v 0.670150 0.334749 -0.420266
v 0.668163 0.380106 -0.424149
v 0.715394 0.336288 -0.425455
v 0.713406 0.381645 -0.429337
v -0.786650 -0.651510 0.123109
v -0.784662 -0.696867 0.126991
v -0.741406 -0.649972 0.117920
v -0.739419 -0.695329 0.121803
v -0.816543 -0.722713 -0.158662
v -0.818531 -0.677356 -0.162544
v -0.771299 -0.721175 -0.163851
v -0.773287 -0.675818 -0.167733
v -0.773496 -0.667259 0.199790
v -0.753816 -0.685516 0.199245
v -0.768560 -0.653707 0.198013
v -0.735793 -0.665977 0.195466
v -0.755473 -0.647719 0.196010
v -0.740729 -0.679528 0.197243
v -0.767389 -0.680435 0.200300
v -0.741900 -0.652801 0.194955
v -0.751967 -0.660963 0.104749
v -0.745861 -0.674139 0.105260
v -0.750796 -0.687690 0.107037
v -0.763884 -0.693678 0.109039
v -0.777457 -0.688597 0.110094
v -0.783564 -0.675421 0.109583
v -0.778628 -0.661869 0.107806
v -0.765540 -0.655881 0.105804
v -0.775339 -0.651125 0.121812
v -0.805542 -0.675611 -0.148807
v -0.752717 -0.650356 0.119218
v -0.782920 -0.674842 -0.151401
v -0.824986 0.285216 -0.233573
v -0.847608 0.284447 -0.230979
v -0.794784 0.309702 0.037046
v -0.817405 0.308933 0.039640
v -0.788641 0.204478 0.059413
v -0.811263 0.203709 0.062007
v -0.781734 0.101097 0.088990
v -0.804356 0.100327 0.091584
v -0.807137 0.074588 0.059698
v -0.784515 0.075357 0.057104
v -0.768776 -0.128529 0.133897
v -0.773055 -0.057184 0.117742
v -0.763527 -0.274618 0.136352
v -0.765580 -0.201469 0.140140
v -0.762985 -0.416011 0.099160
v -0.778335 0.011210 0.091980
v -0.762657 -0.346587 0.122604
v -0.755900 -0.542733 0.123367
v -0.758216 -0.435629 0.134928
v -0.791398 -0.129298 0.136491
v -0.788202 -0.202238 0.142734
v -0.800956 0.010441 0.094575
v -0.795677 -0.057953 0.120336
v -0.785279 -0.347357 0.125199
v -0.785607 -0.416780 0.101754
v -0.786149 -0.275387 0.138946
v -0.780838 -0.436398 0.137523
v -0.778522 -0.543502 0.125961
v 0.776550 -0.581938 0.135695
v 0.725205 -0.623564 -0.324357
v 0.799172 -0.581169 0.133100
v 0.747827 -0.622795 -0.326952
v 0.683139 0.336494 -0.406529
v 0.705761 0.337263 -0.409124
v 0.757106 0.378889 0.050928
v 0.734484 0.378120 0.053523
v 0.763248 0.273665 0.073295
v 0.740626 0.272896 0.075890
v 0.770155 0.170283 0.102872
v 0.747534 0.169514 0.105467
v 0.744752 0.143775 0.073580
v 0.767374 0.144544 0.070986
v 0.760491 -0.060111 0.150374
v 0.763687 -0.133051 0.156617
v 0.750933 0.079628 0.108457
v 0.756213 0.011234 0.134219
v 0.765740 -0.206201 0.152829
v 0.766610 -0.278170 0.139081
v 0.766282 -0.347594 0.115637
v 0.773367 -0.474315 0.139844
v 0.771051 -0.367211 0.151405
v 0.783113 -0.059342 0.147779
v 0.778834 0.012003 0.131624
v 0.788362 -0.205431 0.150235
v 0.786309 -0.132282 0.154022
v 0.789232 -0.277401 0.136487
v 0.773555 0.080397 0.105863
v 0.788904 -0.346824 0.113043
v 0.793673 -0.366442 0.148811
v 0.795989 -0.473546 0.137249
v -0.813767 -0.699906 -0.161035
v -0.794087 -0.718164 -0.161580
v -0.808831 -0.686355 -0.162812
v -0.776063 -0.698624 -0.165359
v -0.795743 -0.680367 -0.164815
v -0.780999 -0.712176 -0.163582
v -0.807660 -0.713082 -0.160525
v -0.782170 -0.685448 -0.165870
v -0.792238 -0.693610 -0.256076
v -0.786131 -0.706786 -0.255566
v -0.791067 -0.720338 -0.253789
v -0.804155 -0.726326 -0.251786
v -0.817727 -0.721244 -0.250731
v -0.823834 -0.708068 -0.251242
v -0.818898 -0.694517 -0.253019
v -0.805811 -0.688529 -0.255021
f 1 2 3
f 4 5 6
f 7 2 1
f 8 5 4
f 2 6 5
f 5 3 2
f 2 9 6
f 7 10 2
f 1 11 7
f 3 12 1
f 5 13 3
f 8 14 5
f 4 15 8
f 6 16 4
f 15 4 16
f 14 8 15
f 13 5 14
f 12 3 13
f 11 1 12
f 10 7 11
f 9 2 10
f 16 6 9
f 9 13 16
f 13 9 12
f 15 16 13
f 11 12 9
f 10 11 9
f 14 15 13
f 17 18 19
f 20 21 22
f 23 18 17
f 24 21 20
f 18 22 21
f 21 19 18
f 18 25 22
f 23 26 18
f 17 27 23
f 19 28 17
f 21 29 19
f 24 30 21
f 20 31 24
f 22 32 20
f 31 20 32
f 30 24 31
f 29 21 30
f 28 19 29
f 27 17 28
f 26 23 27
f 25 18 26
f 32 22 25
f 25 29 32
f 29 25 28
f 31 32 29
f 27 28 25
f 26 27 25
f 30 31 29
f 33 34 35
f 36 37 38
f 39 40 34
f 40 39 37
f 39 38 37
f 40 35 34
f 37 41 40
f 36 42 37
f 38 43 36
f 39 44 38
f 34 45 39
f 33 46 34
f 35 47 33
f 40 48 35
f 47 35 48
f 46 33 47
f 45 34 46
f 44 39 45
f 43 38 44
f 42 36 43
f 41 37 42
f 48 40 41
f 46 47 45
f 42 43 41
f 48 44 47
f 44 48 43
f 48 41 43
f 44 45 47
f 49 50 51
f 52 53 54
f 55 50 49
f 56 53 52
f 50 54 53
f 53 51 50
f 51 57 49
f 53 58 51
f 56 59 53
f 52 60 56
f 54 61 52
f 50 62 54
f 55 63 50
f 49 64 55
f 63 55 64
f 62 50 63
f 61 54 62
f 60 52 61
f 59 56 60
f 58 53 59
f 57 51 58
f 64 49 57
f 62 58 61
f 58 62 57
f 60 61 58
f 64 57 62
f 63 64 62
f 59 60 58
f 65 66 67
f 68 67 66
f 69 66 70
f 65 70 66
f 66 69 68
f 71 68 69
f 68 71 67
f 72 67 71
f 69 70 71
f 72 71 70
f 70 65 72
f 67 72 65
f 73 74 75
f 76 75 74
f 77 74 78
f 73 78 74
f 74 77 76
f 79 76 77
f 76 79 75
f 80 75 79
f 77 78 79
f 80 79 78
f 78 73 80
f 75 80 73
f 81 82 83
f 84 85 86
f 87 88 82
f 88 87 85
f 87 86 85
f 88 83 82
f 85 89 88
f 84 90 85
f 86 91 84
f 87 92 86
f 82 93 87
f 81 94 82
f 83 95 81
f 88 96 83
f 95 83 96
f 94 81 95
f 93 82 94
f 92 87 93
f 91 86 92
f 90 84 91
f 89 85 90
f 96 88 89
f 94 95 93
f 90 91 89
f 96 92 95
f 92 96 91
f 96 89 91
f 92 93 95
f 97 98 99
f 100 99 98
f 101 98 102
f 97 102 98
f 98 101 100
f 103 100 101
f 100 103 99
f 104 99 103
f 101 102 103
f 104 103 102
f 102 97 104
f 99 104 97
f 105 106 107
f 108 109 110
f 111 106 105
f 112 109 108
f 106 110 109
f 109 107 106
f 107 113 105
f 109 114 107
f 112 115 109
f 108 116 112
f 110 117 108
f 106 118 110
f 111 119 106
f 105 120 111
f 119 111 120
f 118 106 119
f 117 110 118
f 116 108 117
f 115 112 116
f 114 109 115
f 113 107 114
f 120 105 113
f 118 114 117
f 114 118 113
f 116 117 114
f 120 113 118
f 119 120 118
f 115 116 114
f 121 122 123
f 124 123 122
f 125 126 127
f 128 127 126
f 128 129 130
f 131 128 130
f 129 123 132
f 133 129 132
f 124 132 123
f 133 130 129
f 131 127 128
f 134 135 125
f 126 125 135
f 136 137 138
f 137 139 140
f 141 139 142
f 142 143 144
f 145 146 136
f 147 146 145
f 139 137 148
f 143 139 149
f 149 150 143
f 151 143 150
f 125 127 147
f 130 148 131
f 146 131 148
f 149 148 133
f 132 149 133
f 149 132 152
f 124 152 132
f 130 133 148
f 127 131 146
f 146 147 127
f 152 150 149
f 148 149 139
f 146 148 137
f 137 136 146
f 151 144 143
f 143 142 139
f 141 140 139
f 140 138 137
f 151 150 153
f 153 154 151
f 144 151 154
f 152 124 155
f 155 156 152
f 150 152 156
f 122 155 124
f 156 153 150
f 122 121 157
f 158 157 121
f 158 159 160
f 161 158 160
f 159 162 163
f 164 159 163
f 165 163 162
f 164 160 159
f 161 157 158
f 153 166 154
f 167 166 168
f 168 169 170
f 171 172 170
f 156 173 153
f 155 173 156
f 169 166 174
f 171 169 175
f 175 176 171
f 172 171 176
f 122 157 155
f 160 174 161
f 173 161 174
f 175 174 164
f 163 175 164
f 175 163 177
f 165 177 163
f 160 164 174
f 157 161 173
f 173 155 157
f 177 176 175
f 174 175 169
f 173 174 166
f 166 153 173
f 178 170 172
f 171 170 169
f 169 168 166
f 167 154 166
f 179 180 162
f 165 162 180
f 181 135 182
f 179 183 184
f 162 121 179
f 128 126 129
f 185 182 135
f 183 121 181
f 183 179 121
f 158 121 159
f 123 129 126
f 126 181 121
f 162 159 121
f 126 135 181
f 121 123 126
f 186 184 183
f 187 183 188
f 181 188 183
f 188 181 189
f 182 189 181
f 190 182 191
f 185 191 182
f 185 135 192
f 193 185 192
f 134 192 135
f 193 191 185
f 190 189 182
f 194 195 196
f 196 197 198
f 199 200 198
f 201 200 202
f 203 204 195
f 205 204 203
f 199 197 206
f 200 199 207
f 207 208 200
f 209 200 208
f 188 189 205
f 191 206 190
f 204 190 206
f 207 206 193
f 192 207 193
f 207 192 210
f 134 210 192
f 191 193 206
f 189 190 204
f 204 205 189
f 210 208 207
f 206 207 199
f 204 206 197
f 197 195 204
f 209 202 200
f 201 198 200
f 199 198 197
f 197 196 195
f 209 208 136
f 209 136 202
f 138 202 136
f 125 147 134
f 147 145 210
f 208 210 145
f 210 134 147
f 145 136 208
f 211 212 213
f 168 178 167
f 214 212 178
f 215 213 212
f 142 144 141
f 170 178 168
f 214 215 212
f 201 194 198
f 144 194 138
f 140 141 144
f 154 178 212
f 212 194 154
f 202 194 201
f 138 140 144
f 144 154 194
f 202 138 194
f 196 198 194
f 154 167 178
f 180 179 216
f 184 216 179
f 184 186 217
f 218 184 217
f 186 183 219
f 220 186 219
f 187 219 183
f 220 217 186
f 218 216 184
f 214 221 215
f 222 223 215
f 213 223 211
f 224 225 211
f 226 227 221
f 228 227 226
f 223 222 229
f 224 223 230
f 230 231 224
f 225 224 231
f 180 216 228
f 217 229 218
f 227 218 229
f 230 229 220
f 219 230 220
f 230 219 232
f 187 232 219
f 217 220 229
f 216 218 227
f 227 228 216
f 232 231 230
f 229 230 223
f 227 229 222
f 222 221 227
f 212 211 225
f 224 211 223
f 213 215 223
f 222 215 221
f 176 226 172
f 172 221 178
f 214 178 221
f 180 228 165
f 228 226 177
f 176 177 226
f 177 165 228
f 221 172 226
f 225 231 195
f 195 194 225
f 212 225 194
f 232 187 205
f 205 203 232
f 231 232 203
f 188 205 187
f 203 195 231
f 233 234 235
f 236 235 234
f 237 234 238
f 233 238 234
f 234 237 236
f 239 236 237
f 236 239 235
f 240 235 239
f 237 238 239
f 240 239 238
f 238 233 240
f 235 240 233
f 241 242 243
f 244 243 242
f 245 242 246
f 241 246 242
f 242 245 244
f 247 244 245
f 244 247 243
f 248 243 247
f 245 246 247
f 248 247 246
f 246 241 248
f 243 248 241
f 249 250 251
f 252 253 254
f 255 250 249
f 256 253 252
f 250 254 253
f 253 251 250
f 256 257 253
f 252 258 256
f 254 259 252
f 250 260 254
f 255 261 250
f 249 262 255
f 251 263 249
f 253 264 251
f 263 251 264
f 262 249 263
f 261 255 262
f 260 250 261
f 259 254 260
f 258 252 259
f 257 256 258
f 264 253 257
f 262 264 261
f 258 260 257
f 263 264 262
f 259 260 258
f 264 257 260
f 260 261 264
f 265 266 267
f 268 267 266
f 269 268 270
f 266 270 268
f 271 269 272
f 270 272 269
f 273 274 275
f 271 272 273
f 274 273 272
f 276 275 274
f 276 277 275
f 278 275 277
f 279 269 280
f 281 269 282
f 279 282 269
f 268 269 283
f 275 278 273
f 284 280 269
f 285 283 269
f 269 273 278
f 281 285 269
f 268 283 286
f 278 284 269
f 267 268 286
f 287 286 283
f 271 273 269
f 288 270 289
f 290 270 291
f 292 270 293
f 288 291 270
f 294 270 292
f 277 270 290
f 270 277 274
f 295 293 296
f 294 289 270
f 272 270 274
f 266 296 293
f 276 274 277
f 266 293 270
f 265 296 266
f 285 292 283
f 281 294 285
f 282 289 281
f 279 288 282
f 280 291 279
f 284 290 280
f 278 277 284
f 290 284 277
f 291 280 290
f 288 279 291
f 289 282 288
f 294 281 289
f 292 285 294
f 293 283 292
f 287 283 295
f 293 295 283
f 286 296 267
f 287 295 286
f 296 286 295
f 265 267 296
f 297 298 299
f 300 299 298
f 298 301 300
f 302 300 301
f 303 302 304
f 301 304 302
f 305 306 307
f 303 304 305
f 306 305 304
f 308 307 306
f 308 309 307
f 310 307 309
f 311 301 312
f 313 301 314
f 311 314 301
f 315 312 301
f 316 301 317
f 309 301 313
f 308 306 309
f 298 318 317
f 316 315 301
f 304 301 306
f 319 317 318
f 301 309 306
f 298 317 301
f 297 318 298
f 320 300 321
f 322 300 323
f 320 323 300
f 324 300 322
f 325 300 310
f 326 300 324
f 327 328 326
f 302 305 310
f 325 321 300
f 299 300 328
f 307 310 305
f 300 326 328
f 302 310 300
f 303 305 302
f 324 316 326
f 322 315 324
f 323 312 322
f 320 311 323
f 321 314 320
f 325 313 321
f 310 309 325
f 313 325 309
f 314 321 313
f 311 320 314
f 312 323 311
f 315 322 312
f 316 324 315
f 317 326 316
f 327 326 319
f 317 319 326
f 328 318 299
f 327 319 328
f 318 328 319
f 297 299 318
f 329 330 331
f 332 333 334
f 335 330 329
f 336 333 332
f 330 334 333
f 333 331 330
f 336 337 333
f 332 338 336
f 334 339 332
f 330 340 334
f 335 341 330
f 329 342 335
f 331 343 329
f 333 344 331
f 343 331 344
f 342 329 343
f 341 335 342
f 340 330 341
f 339 334 340
f 338 332 339
f 337 336 338
f 344 333 337
f 342 344 341
f 338 340 337
f 343 344 342
f 339 340 338
f 344 337 340
f 340 341 344
