# Unified Preprocessed OBJ file from m946.obj
# Applied remeshing: Yes
# Applied 4-step normalization: centering, PCA alignment, flipping, scaling
# Generated on 2025-09-29 15:02:55

v -0.478884 -0.181281 0.057454
v -0.476581 -0.185270 0.057453
v -0.476588 -0.185242 -0.109724
v -0.478891 -0.181252 -0.109724
v -0.483490 -0.181281 0.057454
v -0.483497 -0.181252 -0.109723
v -0.485793 -0.185270 0.057453
v -0.485800 -0.185242 -0.109724
v -0.483491 -0.189259 0.057453
v -0.483498 -0.189230 -0.109725
v -0.478885 -0.189260 0.057452
v -0.478892 -0.189231 -0.109725
v -0.478883 -0.119565 0.119739
v -0.476579 -0.123554 0.119738
v -0.476589 -0.123514 -0.109714
v -0.478892 -0.119525 -0.109713
v -0.483489 -0.119565 0.119739
v -0.483498 -0.119525 -0.109713
v -0.485792 -0.123554 0.119738
v -0.485801 -0.123515 -0.109713
v -0.483490 -0.127542 0.119738
v -0.483499 -0.127503 -0.109714
v -0.478883 -0.127543 0.119737
v -0.478893 -0.127504 -0.109714
v -0.478881 -0.057842 0.148022
v -0.476579 -0.061832 0.148022
v -0.476590 -0.061787 -0.109703
v -0.478892 -0.057798 -0.109702
v -0.483488 -0.057842 0.148023
v -0.483498 -0.057798 -0.109702
v -0.485792 -0.061832 0.148022
v -0.485802 -0.061788 -0.109703
v -0.483489 -0.065821 0.148021
v -0.483499 -0.065777 -0.109704
v -0.478883 -0.065821 0.148021
v -0.478894 -0.065777 -0.109704
v -0.478882 0.003883 0.155743
v -0.476580 -0.000106 0.155743
v -0.476591 -0.000060 -0.109693
v -0.478893 0.003929 -0.109692
v -0.483488 0.003883 0.155744
v -0.483499 0.003929 -0.109692
v -0.485793 -0.000106 0.155743
v -0.485803 -0.000061 -0.109692
v -0.483489 -0.004096 0.155742
v -0.483500 -0.004050 -0.109693
v -0.478883 -0.004095 0.155742
v -0.478894 -0.004050 -0.109693
v -0.478884 0.065611 0.148044
v -0.476582 0.061622 0.148043
v -0.476592 0.061667 -0.109682
v -0.478894 0.065655 -0.109681
v -0.483490 0.065612 0.148044
v -0.483500 0.065656 -0.109681
v -0.485794 0.061622 0.148043
v -0.485804 0.061666 -0.109682
v -0.483491 0.057633 0.148042
v -0.483501 0.057677 -0.109682
v -0.478885 0.057633 0.148042
v -0.478895 0.057677 -0.109683
v -0.478886 0.127343 0.119781
v -0.476584 0.123354 0.119780
v -0.476593 0.123394 -0.109671
v -0.478895 0.127382 -0.109671
v -0.483492 0.127342 0.119781
v -0.483501 0.127382 -0.109670
v -0.485795 0.123354 0.119781
v -0.485805 0.123394 -0.109671
v -0.483493 0.119365 0.119780
v -0.483502 0.119404 -0.109672
v -0.478887 0.119364 0.119780
v -0.478896 0.119403 -0.109672
v -0.478890 0.189080 0.057517
v -0.476587 0.185092 0.057517
v -0.476594 0.185121 -0.109661
v -0.478896 0.189109 -0.109660
v -0.483496 0.189080 0.057518
v -0.483503 0.189109 -0.109660
v -0.485799 0.185092 0.057517
v -0.485806 0.185121 -0.109660
v -0.483497 0.181103 0.057516
v -0.483503 0.181131 -0.109661
v -0.478890 0.181102 0.057516
v -0.478897 0.181130 -0.109661
v 0.484057 -0.181267 0.057414
v 0.486359 -0.185255 0.057414
v 0.486352 -0.185227 -0.109764
v 0.484050 -0.181238 -0.109763
v 0.479450 -0.181267 0.057415
v 0.479444 -0.181238 -0.109763
v 0.477147 -0.185255 0.057414
v 0.477141 -0.185227 -0.109763
v 0.479450 -0.189244 0.057413
v 0.479443 -0.189215 -0.109764
v 0.484056 -0.189246 0.057413
v 0.484049 -0.189217 -0.109764
v 0.484058 -0.119551 0.119699
v 0.486360 -0.123539 0.119699
v 0.486351 -0.123500 -0.109753
v 0.484049 -0.119511 -0.109752
v 0.479452 -0.119550 0.119700
v 0.479443 -0.119510 -0.109752
v 0.477149 -0.123539 0.119699
v 0.477140 -0.123500 -0.109753
v 0.479451 -0.127528 0.119698
v 0.479442 -0.127489 -0.109754
v 0.484057 -0.127529 0.119698
v 0.484048 -0.127490 -0.109754
v 0.484058 -0.057828 0.147983
v 0.486361 -0.061818 0.147982
v 0.486351 -0.061774 -0.109743
v 0.484048 -0.057784 -0.109742
v 0.479452 -0.057828 0.147983
v 0.479441 -0.057783 -0.109742
v 0.477149 -0.061817 0.147983
v 0.477138 -0.061773 -0.109742
v 0.479451 -0.065806 0.147982
v 0.479441 -0.065762 -0.109743
v 0.484057 -0.065807 0.147982
v 0.484047 -0.065763 -0.109743
v 0.484057 0.003897 0.155704
v 0.486361 -0.000092 0.155703
v 0.486350 -0.000047 -0.109732
v 0.484047 0.003943 -0.109731
v 0.479452 0.003897 0.155704
v 0.479441 0.003943 -0.109731
v 0.477148 -0.000091 0.155704
v 0.477137 -0.000046 -0.109732
v 0.479450 -0.004081 0.155703
v 0.479439 -0.004035 -0.109732
v 0.484057 -0.004082 0.155703
v 0.484046 -0.004036 -0.109733
v 0.484057 0.065626 0.148004
v 0.486359 0.061636 0.148003
v 0.486349 0.061681 -0.109721
v 0.484047 0.065670 -0.109721
v 0.479451 0.065626 0.148004
v 0.479440 0.065670 -0.109720
v 0.477147 0.061637 0.148004
v 0.477136 0.061681 -0.109721
v 0.479449 0.057648 0.148003
v 0.479438 0.057692 -0.109722
v 0.484055 0.057647 0.148003
v 0.484045 0.057691 -0.109722
v 0.484055 0.127358 0.119742
v 0.486357 0.123368 0.119741
v 0.486348 0.123408 -0.109711
v 0.484045 0.127397 -0.109710
v 0.479449 0.127357 0.119742
v 0.479439 0.127397 -0.109710
v 0.477145 0.123369 0.119741
v 0.477135 0.123408 -0.109710
v 0.479448 0.119380 0.119741
v 0.479438 0.119419 -0.109711
v 0.484053 0.119379 0.119740
v 0.484043 0.119418 -0.109711
v 0.484051 0.189095 0.057478
v 0.486353 0.185106 0.057477
v 0.486346 0.185135 -0.109700
v 0.484044 0.189124 -0.109699
v 0.479445 0.189095 0.057478
v 0.479438 0.189124 -0.109699
v 0.477141 0.185106 0.057478
v 0.477134 0.185134 -0.109700
v 0.479444 0.181117 0.057477
v 0.479437 0.181146 -0.109701
v 0.484050 0.181117 0.057477
v 0.484043 0.181145 -0.109701
v -0.494284 -0.229752 0.013385
v -0.499707 -0.217297 0.009342
v -0.499710 -0.228459 -0.061236
v -0.494286 -0.241553 -0.061239
v -0.481190 -0.234909 0.015060
v -0.481193 -0.246977 -0.061240
v -0.468095 -0.229751 0.013385
v -0.468098 -0.241555 -0.061240
v -0.462671 -0.217298 0.009342
v -0.462674 -0.228460 -0.061237
v -0.468093 -0.204843 0.005299
v -0.468096 -0.215366 -0.061234
v -0.481187 -0.199684 0.003623
v -0.481189 -0.209940 -0.061233
v -0.494281 -0.204841 0.005297
v -0.494284 -0.215362 -0.061233
v -0.494281 -0.195468 0.080710
v -0.499705 -0.184873 0.073017
v -0.481188 -0.199856 0.083896
v -0.468093 -0.195468 0.080710
v -0.462669 -0.184873 0.073016
v -0.468091 -0.174278 0.065322
v -0.481185 -0.169887 0.062135
v -0.494279 -0.174275 0.065321
v -0.494280 -0.142057 0.134146
v -0.499704 -0.134358 0.123555
v -0.481185 -0.145245 0.138533
v -0.468091 -0.142057 0.134146
v -0.462668 -0.134357 0.123554
v -0.468090 -0.126659 0.112964
v -0.481184 -0.123469 0.108574
v -0.494278 -0.126657 0.112961
v -0.494279 -0.074749 0.168461
v -0.499704 -0.070700 0.156009
v -0.481185 -0.076425 0.173620
v -0.468091 -0.074747 0.168463
v -0.462667 -0.070699 0.156010
v -0.468090 -0.066650 0.143558
v -0.481184 -0.064972 0.138398
v -0.494278 -0.066649 0.143555
v -0.494280 -0.000131 0.180300
v -0.499703 -0.000127 0.167205
v -0.481186 -0.000131 0.185722
v -0.468092 -0.000129 0.180300
v -0.462667 -0.000126 0.167206
v -0.468090 -0.000122 0.154112
v -0.481183 -0.000122 0.148686
v -0.494279 -0.000124 0.154109
v -0.494282 0.074494 0.168499
v -0.499705 0.070451 0.156046
v -0.481188 0.076169 0.173658
v -0.468094 0.074496 0.168499
v -0.462669 0.070453 0.156046
v -0.468091 0.066409 0.143591
v -0.481185 0.064733 0.138431
v -0.494280 0.066407 0.143589
v -0.494284 0.141821 0.134218
v -0.499707 0.134126 0.123622
v -0.481191 0.145007 0.138605
v -0.468095 0.141822 0.134217
v -0.462671 0.134128 0.123622
v -0.468094 0.126434 0.113026
v -0.481187 0.123246 0.108637
v -0.494283 0.126432 0.113024
v -0.494287 0.195258 0.080808
v -0.499710 0.184666 0.073110
v -0.481194 0.199645 0.083998
v -0.468098 0.195260 0.080807
v -0.462674 0.184669 0.073108
v -0.468097 0.174076 0.065409
v -0.481190 0.169687 0.062220
v -0.494284 0.174073 0.065409
v -0.494291 0.229574 0.013501
v -0.499714 0.217122 0.009451
v -0.481196 0.234734 0.015178
v -0.468102 0.229577 0.013500
v -0.462678 0.217125 0.009450
v -0.468100 0.204673 0.005400
v -0.481193 0.199512 0.003723
v -0.494287 0.204669 0.005401
v -0.494294 0.241414 -0.061118
v -0.499717 0.228321 -0.061121
v -0.481200 0.246839 -0.061117
v -0.468105 0.241416 -0.061119
v -0.462681 0.228322 -0.061123
v -0.468102 0.215228 -0.061126
v -0.481196 0.209803 -0.061127
v -0.494290 0.215223 -0.061124
v -0.499720 -0.228404 -0.308144
v -0.494297 -0.241497 -0.308147
v -0.481203 -0.246922 -0.308148
v -0.468108 -0.241499 -0.308147
v -0.462684 -0.228405 -0.308145
v -0.468106 -0.215310 -0.308141
v -0.481199 -0.209886 -0.308140
v -0.494294 -0.215307 -0.308141
v -0.494304 0.241470 -0.308025
v -0.499727 0.228376 -0.308028
v -0.481210 0.246893 -0.308024
v -0.468115 0.241472 -0.308027
v -0.462691 0.228378 -0.308031
v -0.468113 0.215284 -0.308034
v -0.481206 0.209857 -0.308035
v -0.494300 0.215279 -0.308033
v 0.468657 -0.229738 0.013346
v 0.463234 -0.217283 0.009303
v 0.463231 -0.228444 -0.061276
v 0.468654 -0.241539 -0.061278
v 0.481751 -0.234895 0.015021
v 0.481748 -0.246962 -0.061279
v 0.494845 -0.229737 0.013345
v 0.494842 -0.241540 -0.061279
v 0.500270 -0.217283 0.009302
v 0.500267 -0.228446 -0.061276
v 0.494847 -0.204829 0.005259
v 0.494845 -0.215351 -0.061274
v 0.481754 -0.199669 0.003584
v 0.481751 -0.209926 -0.061272
v 0.468658 -0.204826 0.005257
v 0.468656 -0.215348 -0.061272
v 0.468659 -0.195453 0.080671
v 0.463236 -0.184858 0.072977
v 0.481753 -0.199841 0.083857
v 0.494847 -0.195453 0.080671
v 0.500272 -0.184858 0.072977
v 0.494849 -0.174263 0.065282
v 0.481756 -0.169872 0.062095
v 0.468660 -0.174261 0.065281
v 0.468661 -0.142042 0.134106
v 0.463237 -0.134344 0.123515
v 0.481754 -0.145231 0.138494
v 0.494849 -0.142042 0.134106
v 0.500273 -0.134343 0.123515
v 0.494850 -0.126644 0.112924
v 0.481757 -0.123455 0.108535
v 0.468663 -0.126643 0.112922
v 0.468661 -0.074734 0.168421
v 0.463237 -0.070685 0.155970
v 0.481755 -0.076411 0.173580
v 0.494850 -0.074734 0.168423
v 0.500273 -0.070684 0.155970
v 0.494851 -0.066635 0.143519
v 0.481757 -0.064957 0.138359
v 0.468663 -0.066634 0.143516
v 0.468661 -0.000116 0.180260
v 0.463236 -0.000112 0.167166
v 0.481755 -0.000116 0.185683
v 0.494849 -0.000115 0.180260
v 0.500272 -0.000111 0.167167
v 0.494850 -0.000109 0.154072
v 0.481756 -0.000107 0.148647
v 0.468662 -0.000109 0.154069
v 0.468659 0.074509 0.168460
v 0.463235 0.070466 0.156007
v 0.481753 0.076184 0.173618
v 0.494847 0.074511 0.168460
v 0.500272 0.070468 0.156006
v 0.494849 0.066424 0.143551
v 0.481755 0.064748 0.138392
v 0.468660 0.066422 0.143549
v 0.468657 0.141834 0.134178
v 0.463233 0.134141 0.123583
v 0.481750 0.145021 0.138566
v 0.494844 0.141836 0.134177
v 0.500269 0.134143 0.123582
v 0.494847 0.126448 0.112988
v 0.481753 0.123261 0.108597
v 0.468658 0.126446 0.112984
v 0.468653 0.195272 0.080769
v 0.463230 0.184680 0.073070
v 0.481747 0.199659 0.083958
v 0.494841 0.195273 0.080768
v 0.500266 0.184682 0.073069
v 0.494844 0.174090 0.065370
v 0.481751 0.169702 0.062181
v 0.468655 0.174088 0.065370
v 0.468650 0.229589 0.013461
v 0.463227 0.217137 0.009412
v 0.481743 0.234748 0.015138
v 0.494839 0.229591 0.013460
v 0.500263 0.217140 0.009411
v 0.494841 0.204687 0.005361
v 0.481748 0.199527 0.003683
v 0.468652 0.204684 0.005361
v 0.468647 0.241429 -0.061157
v 0.463224 0.228335 -0.061160
v 0.481740 0.246853 -0.061157
v 0.494836 0.241430 -0.061158
v 0.500260 0.228337 -0.061163
v 0.494838 0.215243 -0.061166
v 0.481745 0.209817 -0.061166
v 0.468649 0.215238 -0.061164
v 0.463221 -0.228390 -0.308183
v 0.468644 -0.241483 -0.308186
v 0.481738 -0.246907 -0.308188
v 0.494832 -0.241484 -0.308186
v 0.500257 -0.228390 -0.308184
v 0.494835 -0.215296 -0.308181
v 0.481741 -0.209871 -0.308179
v 0.468646 -0.215292 -0.308181
v 0.468637 0.241485 -0.308064
v 0.463214 0.228389 -0.308067
v 0.481730 0.246908 -0.308064
v 0.494826 0.241487 -0.308066
v 0.500250 0.228393 -0.308070
v 0.494828 0.215298 -0.308073
v 0.481735 0.209872 -0.308073
v 0.468639 0.215294 -0.308072
v -0.456636 0.222172 -0.104823
v -0.459943 0.209828 -0.104825
v -0.459940 0.209816 -0.030753
v -0.456633 0.222161 -0.030751
v -0.447600 0.231210 -0.104823
v -0.447597 0.231200 -0.030750
v -0.435252 0.234520 -0.104822
v -0.435249 0.234509 -0.030750
v 0.436202 0.234508 -0.104858
v 0.436205 0.234497 -0.030786
v 0.448549 0.231199 -0.104858
v 0.448552 0.231189 -0.030786
v 0.457584 0.222161 -0.104860
v 0.457587 0.222151 -0.030788
v 0.460891 0.209816 -0.104861
v 0.460894 0.209805 -0.030788
v 0.460887 -0.209927 -0.104923
v 0.460890 -0.209938 -0.030851
v 0.457579 -0.222272 -0.104924
v 0.457582 -0.222283 -0.030852
v 0.448540 -0.231308 -0.104926
v 0.448543 -0.231320 -0.030854
v 0.436196 -0.234618 -0.104926
v 0.436199 -0.234627 -0.030854
v -0.435257 -0.234606 -0.104890
v -0.435254 -0.234616 -0.030818
v -0.447603 -0.231298 -0.104889
v -0.447600 -0.231308 -0.030817
v -0.456640 -0.222261 -0.104887
v -0.456637 -0.222272 -0.030815
v -0.459948 -0.209915 -0.104885
v -0.459945 -0.209927 -0.030813
v -0.048900 0.012285 -0.030798
v -0.468411 -0.215578 -0.115754
v -0.468417 0.215472 -0.115680
v 0.468561 0.215485 -0.115691
v 0.468567 -0.215563 -0.115765
v -0.468417 0.215470 -0.103334
v -0.468410 -0.215580 -0.103408
v 0.468568 -0.215565 -0.103420
v 0.468561 0.215483 -0.103346
v -0.468848 -0.240798 -0.103453
v -0.468849 -0.240792 -0.128144
v -0.468856 0.240678 -0.128049
v -0.468855 0.240672 -0.103358
v -0.493540 -0.240792 -0.128143
v -0.493539 -0.240797 -0.103452
v -0.493546 0.240672 -0.103357
v -0.493547 0.240678 -0.128048
v 0.494093 -0.240783 -0.103493
v 0.494092 -0.240778 -0.128184
v 0.494085 0.240693 -0.128088
v 0.494086 0.240687 -0.103397
v 0.469401 -0.240778 -0.128183
v 0.469402 -0.240784 -0.103492
v 0.469395 0.240687 -0.103396
v 0.469394 0.240692 -0.128087
v -0.482871 0.216040 -0.103350
v -0.482871 0.216044 -0.128040
v 0.483336 0.216071 -0.128068
v 0.483336 0.216066 -0.103377
v -0.482873 0.240734 -0.128061
v -0.482873 0.240730 -0.103370
v 0.483334 0.240758 -0.103397
v 0.483334 0.240762 -0.128088
v -0.482814 -0.240643 -0.103453
v -0.482814 -0.240638 -0.128144
v 0.483393 -0.240611 -0.128171
v 0.483393 -0.240615 -0.103480
v -0.482815 -0.215947 -0.128114
v -0.482816 -0.215952 -0.103424
v 0.483392 -0.215925 -0.103451
v 0.483392 -0.215921 -0.128142
v -0.477732 -0.183276 0.057453
v -0.476584 -0.185256 -0.026136
v -0.477736 -0.183261 -0.026135
v -0.478887 -0.181267 -0.026135
v -0.477739 -0.183247 -0.109724
v -0.481187 -0.181281 0.057454
v -0.481191 -0.181267 -0.026135
v -0.483494 -0.181267 -0.026135
v -0.481194 -0.181252 -0.109723
v -0.484642 -0.183276 0.057454
v -0.484645 -0.183261 -0.026135
v -0.485797 -0.185256 -0.026135
v -0.484649 -0.183247 -0.109724
v -0.484642 -0.187265 0.057453
v -0.484646 -0.187250 -0.026136
v -0.483495 -0.189244 -0.026136
v -0.484649 -0.187236 -0.109724
v -0.481188 -0.189259 0.057452
v -0.481191 -0.189245 -0.026136
v -0.478888 -0.189245 -0.026136
v -0.481195 -0.189230 -0.109725
v -0.477733 -0.187265 0.057453
v -0.477736 -0.187251 -0.026136
v -0.477740 -0.187236 -0.109725
v -0.477731 -0.121559 0.119738
v -0.476584 -0.123534 0.005012
v -0.477736 -0.121540 0.005012
v -0.478887 -0.119545 0.005013
v -0.477740 -0.121520 -0.109713
v -0.481186 -0.119565 0.119739
v -0.481190 -0.119545 0.005013
v -0.483493 -0.119545 0.005013
v -0.481195 -0.119525 -0.109713
v -0.484640 -0.121559 0.119739
v -0.484645 -0.121540 0.005013
v -0.485797 -0.123534 0.005012
v -0.484650 -0.121520 -0.109713
v -0.484641 -0.125548 0.119738
v -0.484645 -0.125529 0.005012
v -0.483494 -0.127523 0.005012
v -0.484650 -0.125509 -0.109714
v -0.481187 -0.127543 0.119737
v -0.481191 -0.127523 0.005012
v -0.478888 -0.127524 0.005012
v -0.481196 -0.127503 -0.109714
v -0.477731 -0.125549 0.119738
v -0.477736 -0.125529 0.005012
v -0.477741 -0.125509 -0.109714
v -0.477730 -0.059837 0.148022
v -0.476585 -0.061810 0.019159
v -0.477736 -0.059815 0.019160
v -0.478887 -0.057820 0.019160
v -0.477741 -0.059793 -0.109703
v -0.481185 -0.057842 0.148023
v -0.481190 -0.057820 0.019160
v -0.483493 -0.057820 0.019160
v -0.481195 -0.057798 -0.109702
v -0.484640 -0.059837 0.148022
v -0.484645 -0.059815 0.019160
v -0.485797 -0.061810 0.019160
v -0.484650 -0.059793 -0.109702
v -0.484640 -0.063827 0.148022
v -0.484645 -0.063804 0.019159
v -0.483494 -0.065799 0.019159
v -0.484651 -0.063782 -0.109703
v -0.481186 -0.065821 0.148021
v -0.481191 -0.065799 0.019159
v -0.478889 -0.065799 0.019159
v -0.481197 -0.065777 -0.109704
v -0.477731 -0.063826 0.148021
v -0.477737 -0.063804 0.019159
v -0.477742 -0.063782 -0.109703
v -0.477731 0.001889 0.155743
v -0.476586 -0.000083 0.023025
v -0.477737 0.001911 0.023025
v -0.478888 0.003906 0.023026
v -0.477742 0.001934 -0.109692
v -0.481185 0.003883 0.155743
v -0.481191 0.003906 0.023026
v -0.483494 0.003906 0.023026
v -0.481196 0.003929 -0.109692
v -0.484640 0.001889 0.155743
v -0.484646 0.001911 0.023026
v -0.485798 -0.000083 0.023025
v -0.484651 0.001934 -0.109692
v -0.484641 -0.002101 0.155743
v -0.484646 -0.002078 0.023025
v -0.483495 -0.004073 0.023025
v -0.484652 -0.002055 -0.109693
v -0.481186 -0.004095 0.155742
v -0.481192 -0.004073 0.023025
v -0.478889 -0.004073 0.023024
v -0.481197 -0.004050 -0.109693
v -0.477732 -0.002101 0.155742
v -0.477737 -0.002078 0.023025
v -0.477742 -0.002055 -0.109693
v -0.477733 0.063617 0.148043
v -0.476587 0.061645 0.019180
v -0.477738 0.063639 0.019181
v -0.478889 0.065633 0.019181
v -0.477743 0.063661 -0.109682
v -0.481187 0.065611 0.148044
v -0.481192 0.065633 0.019181
v -0.483495 0.065634 0.019181
v -0.481197 0.065655 -0.109681
v -0.484642 0.063617 0.148044
v -0.484647 0.063639 0.019181
v -0.485799 0.061644 0.019181
v -0.484652 0.063661 -0.109681
v -0.484642 0.059628 0.148043
v -0.484648 0.059650 0.019180
v -0.483496 0.057655 0.019180
v -0.484653 0.059672 -0.109682
v -0.481188 0.057633 0.148042
v -0.481193 0.057655 0.019180
v -0.478890 0.057655 0.019180
v -0.481198 0.057677 -0.109682
v -0.477733 0.059628 0.148043
v -0.477738 0.059650 0.019180
v -0.477744 0.059672 -0.109682
v -0.477735 0.125348 0.119781
v -0.476588 0.123374 0.005055
v -0.477740 0.125368 0.005055
v -0.478891 0.127362 0.005055
v -0.477744 0.125388 -0.109671
v -0.481189 0.127343 0.119781
v -0.481194 0.127362 0.005055
v -0.483497 0.127362 0.005056
v -0.481198 0.127382 -0.109670
v -0.484644 0.125348 0.119781
v -0.484648 0.125368 0.005055
v -0.485800 0.123374 0.005055
v -0.484653 0.125388 -0.109671
v -0.484644 0.121359 0.119780
v -0.484649 0.121379 0.005055
v -0.483498 0.119384 0.005054
v -0.484653 0.121399 -0.109671
v -0.481190 0.119364 0.119780
v -0.481195 0.119384 0.005054
v -0.478891 0.119384 0.005054
v -0.481199 0.119404 -0.109672
v -0.477735 0.121359 0.119780
v -0.477740 0.121379 0.005054
v -0.477745 0.121398 -0.109672
v -0.477738 0.187086 0.057517
v -0.476591 0.185106 -0.026072
v -0.477742 0.187101 -0.026072
v -0.478893 0.189095 -0.026071
v -0.477745 0.187115 -0.109660
v -0.481193 0.189080 0.057517
v -0.481196 0.189095 -0.026071
v -0.483499 0.189095 -0.026071
v -0.481199 0.189109 -0.109660
v -0.484647 0.187086 0.057517
v -0.484651 0.187100 -0.026071
v -0.485802 0.185106 -0.026072
v -0.484654 0.187115 -0.109660
v -0.484648 0.183097 0.057517
v -0.484651 0.183112 -0.026072
v -0.483500 0.181117 -0.026072
v -0.484655 0.183126 -0.109661
v -0.481194 0.181102 0.057516
v -0.481197 0.181116 -0.026073
v -0.478894 0.181116 -0.026073
v -0.481200 0.181131 -0.109661
v -0.477739 0.183097 0.057516
v -0.477742 0.183111 -0.026072
v -0.477746 0.183126 -0.109661
v 0.485208 -0.183261 0.057414
v 0.486355 -0.185241 -0.026175
v 0.485204 -0.183247 -0.026175
v 0.484053 -0.181253 -0.026174
v 0.485201 -0.183232 -0.109763
v 0.481754 -0.181267 0.057414
v 0.481750 -0.181253 -0.026174
v 0.479447 -0.181253 -0.026174
v 0.481747 -0.181238 -0.109763
v 0.478299 -0.183261 0.057414
v 0.478296 -0.183247 -0.026174
v 0.477144 -0.185241 -0.026175
v 0.478292 -0.183233 -0.109763
v 0.478299 -0.187250 0.057414
v 0.478295 -0.187235 -0.026175
v 0.479446 -0.189229 -0.026176
v 0.478292 -0.187221 -0.109764
v 0.481753 -0.189245 0.057413
v 0.481749 -0.189230 -0.026176
v 0.484052 -0.189231 -0.026176
v 0.481746 -0.189216 -0.109764
v 0.485207 -0.187251 0.057413
v 0.485204 -0.187236 -0.026175
v 0.485200 -0.187222 -0.109764
v 0.485209 -0.121545 0.119699
v 0.486356 -0.123519 0.004973
v 0.485205 -0.121525 0.004973
v 0.484053 -0.119531 0.004973
v 0.485200 -0.121505 -0.109753
v 0.481755 -0.119550 0.119699
v 0.481750 -0.119530 0.004974
v 0.479447 -0.119530 0.004974
v 0.481746 -0.119511 -0.109752
v 0.478300 -0.121544 0.119699
v 0.478296 -0.121525 0.004973
v 0.477144 -0.123519 0.004973
v 0.478291 -0.121505 -0.109753
v 0.478300 -0.125534 0.119699
v 0.478295 -0.125514 0.004973
v 0.479446 -0.127509 0.004972
v 0.478291 -0.125494 -0.109753
v 0.481754 -0.127529 0.119698
v 0.481749 -0.127509 0.004972
v 0.484053 -0.127510 0.004972
v 0.481745 -0.127490 -0.109754
v 0.485209 -0.125534 0.119698
v 0.485204 -0.125514 0.004972
v 0.485199 -0.125495 -0.109753
v 0.485210 -0.059823 0.147983
v 0.486356 -0.061796 0.019120
v 0.485205 -0.059801 0.019120
v 0.484053 -0.057806 0.019121
v 0.485199 -0.059779 -0.109742
v 0.481755 -0.057828 0.147983
v 0.481750 -0.057806 0.019121
v 0.479447 -0.057805 0.019121
v 0.481745 -0.057784 -0.109742
v 0.478300 -0.059822 0.147983
v 0.478295 -0.059800 0.019120
v 0.477144 -0.061795 0.019120
v 0.478290 -0.059778 -0.109742
v 0.478300 -0.063812 0.147982
v 0.478295 -0.063789 0.019120
v 0.479446 -0.065784 0.019119
v 0.478289 -0.063767 -0.109743
v 0.481754 -0.065807 0.147982
v 0.481749 -0.065785 0.019119
v 0.484052 -0.065785 0.019119
v 0.481744 -0.065762 -0.109743
v 0.485209 -0.063813 0.147982
v 0.485204 -0.063790 0.019120
v 0.485199 -0.063768 -0.109743
v 0.485209 0.001903 0.155704
v 0.486355 -0.000069 0.022986
v 0.485204 0.001925 0.022986
v 0.484052 0.003920 0.022986
v 0.485198 0.001948 -0.109732
v 0.481755 0.003897 0.155704
v 0.481749 0.003920 0.022986
v 0.479447 0.003920 0.022987
v 0.481744 0.003943 -0.109731
v 0.478300 0.001903 0.155704
v 0.478295 0.001926 0.022986
v 0.477143 -0.000068 0.022986
v 0.478289 0.001949 -0.109731
v 0.478299 -0.002086 0.155703
v 0.478294 -0.002063 0.022986
v 0.479445 -0.004058 0.022985
v 0.478288 -0.002040 -0.109732
v 0.481753 -0.004081 0.155703
v 0.481748 -0.004058 0.022985
v 0.484051 -0.004059 0.022985
v 0.481743 -0.004035 -0.109732
v 0.485209 -0.002087 0.155703
v 0.485203 -0.002064 0.022985
v 0.485198 -0.002041 -0.109732
v 0.485208 0.063631 0.148004
v 0.486354 0.061658 0.019141
v 0.485203 0.063653 0.019141
v 0.484052 0.065648 0.019142
v 0.485198 0.063675 -0.109721
v 0.481754 0.065626 0.148004
v 0.481749 0.065648 0.019142
v 0.479446 0.065648 0.019142
v 0.481743 0.065670 -0.109720
v 0.478299 0.063631 0.148004
v 0.478294 0.063653 0.019142
v 0.477142 0.061659 0.019141
v 0.478288 0.063676 -0.109721
v 0.478298 0.059642 0.148003
v 0.478293 0.059665 0.019141
v 0.479444 0.057670 0.019141
v 0.478287 0.059687 -0.109721
v 0.481752 0.057647 0.148003
v 0.481747 0.057669 0.019141
v 0.484050 0.057669 0.019140
v 0.481741 0.057692 -0.109722
v 0.485207 0.059642 0.148003
v 0.485202 0.059664 0.019141
v 0.485197 0.059686 -0.109722
v 0.485206 0.125363 0.119741
v 0.486352 0.123388 0.005015
v 0.485201 0.125383 0.005015
v 0.484050 0.127377 0.005016
v 0.485196 0.125402 -0.109710
v 0.481752 0.127357 0.119742
v 0.481747 0.127377 0.005016
v 0.479444 0.127377 0.005016
v 0.481742 0.127397 -0.109710
v 0.478297 0.125363 0.119742
v 0.478292 0.125383 0.005016
v 0.477140 0.123389 0.005015
v 0.478287 0.125403 -0.109710
v 0.478296 0.121374 0.119741
v 0.478291 0.121394 0.005015
v 0.479443 0.119399 0.005015
v 0.478287 0.121414 -0.109711
v 0.481750 0.119379 0.119740
v 0.481746 0.119399 0.005015
v 0.484048 0.119398 0.005015
v 0.481741 0.119419 -0.109711
v 0.485205 0.121373 0.119741
v 0.485200 0.121393 0.005015
v 0.485196 0.121413 -0.109711
v 0.485202 0.187101 0.057478
v 0.486350 0.185120 -0.026111
v 0.485199 0.187115 -0.026111
v 0.484048 0.189110 -0.026111
v 0.485195 0.187129 -0.109700
v 0.481748 0.189095 0.057478
v 0.481745 0.189110 -0.026111
v 0.479442 0.189110 -0.026111
v 0.481741 0.189124 -0.109699
v 0.478293 0.187100 0.057478
v 0.478290 0.187115 -0.026111
v 0.477137 0.185120 -0.026111
v 0.478286 0.187129 -0.109699
v 0.478292 0.183112 0.057477
v 0.478289 0.183126 -0.026111
v 0.479441 0.181132 -0.026112
v 0.478286 0.183140 -0.109700
v 0.481747 0.181117 0.057477
v 0.481744 0.181131 -0.026112
v 0.484047 0.181131 -0.026112
v 0.481740 0.181146 -0.109701
v 0.485202 0.183111 0.057477
v 0.485198 0.183126 -0.026112
v 0.485195 0.183140 -0.109700
v -0.496995 -0.223524 0.011364
v -0.499708 -0.222878 -0.025947
v -0.496997 -0.229105 -0.023926
v -0.494285 -0.235652 -0.023927
v -0.496998 -0.235006 -0.061237
v -0.487737 -0.232330 0.014223
v -0.487738 -0.238231 -0.023089
v -0.481191 -0.240943 -0.023090
v -0.487740 -0.244265 -0.061239
v -0.474642 -0.232330 0.014223
v -0.474644 -0.238364 -0.023928
v -0.468096 -0.235653 -0.023927
v -0.474645 -0.244266 -0.061240
v -0.465383 -0.223524 0.011363
v -0.465384 -0.229426 -0.025949
v -0.462672 -0.222879 -0.025947
v -0.465386 -0.235008 -0.061238
v -0.465382 -0.211070 0.007320
v -0.465384 -0.216652 -0.027969
v -0.468095 -0.210104 -0.027968
v -0.465385 -0.221913 -0.061235
v -0.474640 -0.202263 0.004461
v -0.474641 -0.207525 -0.028805
v -0.481188 -0.204812 -0.028805
v -0.474643 -0.212653 -0.061233
v -0.487734 -0.202263 0.004460
v -0.487735 -0.207391 -0.027968
v -0.494282 -0.210102 -0.027968
v -0.487737 -0.212651 -0.061233
v -0.496994 -0.211069 0.007319
v -0.496995 -0.216330 -0.025945
v -0.496997 -0.221910 -0.061235
v -0.496993 -0.190171 0.076864
v -0.499706 -0.201085 0.041179
v -0.496994 -0.206383 0.045026
v -0.494282 -0.212610 0.047048
v -0.487735 -0.197662 0.082303
v -0.487736 -0.214804 0.048641
v -0.481189 -0.217382 0.049478
v -0.474640 -0.197662 0.082303
v -0.474641 -0.215188 0.047885
v -0.468094 -0.212609 0.047048
v -0.465381 -0.190170 0.076863
v -0.465382 -0.207312 0.043201
v -0.462670 -0.201085 0.041179
v -0.465380 -0.179575 0.069169
v -0.465381 -0.195788 0.037332
v -0.468092 -0.189560 0.035310
v -0.474638 -0.172083 0.063728
v -0.474639 -0.187365 0.033717
v -0.481186 -0.184786 0.032879
v -0.487732 -0.172081 0.063728
v -0.487733 -0.186980 0.034472
v -0.494280 -0.189558 0.035309
v -0.496992 -0.179574 0.069169
v -0.496993 -0.194857 0.039157
v -0.496992 -0.138208 0.128850
v -0.499704 -0.159616 0.098286
v -0.496993 -0.163465 0.103581
v -0.494281 -0.168763 0.107428
v -0.487733 -0.143651 0.136339
v -0.487733 -0.170357 0.109622
v -0.481187 -0.172550 0.111215
v -0.474638 -0.143651 0.136339
v -0.474640 -0.170956 0.109021
v -0.468092 -0.168762 0.107428
v -0.465380 -0.138207 0.128850
v -0.465380 -0.164912 0.102132
v -0.462668 -0.159615 0.098285
v -0.465379 -0.130508 0.118259
v -0.465380 -0.155766 0.092990
v -0.468091 -0.150468 0.089143
v -0.474637 -0.125064 0.110769
v -0.474638 -0.148873 0.086948
v -0.481184 -0.146678 0.085354
v -0.487731 -0.125063 0.110768
v -0.487732 -0.148272 0.087548
v -0.494279 -0.150466 0.089141
v -0.496991 -0.130508 0.118258
v -0.496992 -0.154317 0.094438
v -0.496991 -0.072724 0.162235
v -0.499704 -0.102529 0.139782
v -0.496991 -0.104553 0.146008
v -0.494280 -0.108403 0.151303
v -0.487732 -0.075587 0.171040
v -0.487733 -0.109241 0.153883
v -0.481185 -0.110835 0.156076
v -0.474638 -0.075586 0.171041
v -0.474638 -0.109996 0.153498
v -0.468091 -0.108402 0.151304
v -0.465379 -0.072723 0.162236
v -0.465379 -0.106378 0.145078
v -0.462667 -0.102528 0.139782
v -0.465378 -0.068674 0.149784
v -0.465379 -0.100503 0.133556
v -0.468090 -0.096654 0.128261
v -0.474637 -0.065811 0.140978
v -0.474637 -0.095816 0.125681
v -0.481184 -0.094221 0.123486
v -0.487731 -0.065811 0.140977
v -0.487731 -0.095059 0.126065
v -0.494278 -0.096653 0.128258
v -0.496991 -0.068674 0.149782
v -0.496991 -0.098678 0.134485
v -0.496992 -0.000129 0.173752
v -0.499703 -0.035413 0.161607
v -0.496992 -0.035415 0.168154
v -0.494279 -0.037440 0.174380
v -0.487733 -0.000131 0.183011
v -0.487733 -0.037440 0.177091
v -0.481186 -0.038278 0.179671
v -0.474639 -0.000130 0.183011
v -0.474639 -0.038277 0.176960
v -0.468091 -0.037438 0.174381
v -0.465380 -0.000127 0.173753
v -0.465379 -0.037437 0.167834
v -0.462667 -0.035412 0.161608
v -0.465379 -0.000124 0.160659
v -0.465378 -0.035411 0.155061
v -0.468090 -0.033386 0.148835
v -0.474637 -0.000122 0.151399
v -0.474637 -0.033386 0.146122
v -0.481184 -0.032547 0.143542
v -0.487731 -0.000123 0.151397
v -0.487731 -0.032548 0.146253
v -0.494278 -0.033387 0.148832
v -0.496991 -0.000126 0.160657
v -0.496991 -0.033388 0.155380
v -0.496993 0.072472 0.162273
v -0.499704 0.035162 0.161626
v -0.496992 0.037183 0.167852
v -0.494281 0.037182 0.174399
v -0.487735 0.075332 0.171078
v -0.487734 0.038019 0.176979
v -0.481187 0.038019 0.179690
v -0.474641 0.075332 0.171078
v -0.474640 0.037182 0.177111
v -0.468093 0.037183 0.174399
v -0.465381 0.072474 0.162272
v -0.465380 0.035162 0.168173
v -0.462668 0.035163 0.161626
v -0.465380 0.068431 0.149818
v -0.465379 0.033142 0.155398
v -0.468091 0.033144 0.148851
v -0.474638 0.065571 0.141011
v -0.474637 0.032305 0.146271
v -0.481184 0.032306 0.143559
v -0.487733 0.065570 0.141010
v -0.487732 0.033143 0.146137
v -0.494280 0.033141 0.148849
v -0.496993 0.068429 0.149817
v -0.496992 0.035163 0.155077
v -0.496996 0.137973 0.128920
v -0.499706 0.102288 0.139834
v -0.496995 0.106136 0.145132
v -0.494283 0.108157 0.151358
v -0.487737 0.143414 0.136411
v -0.487736 0.109751 0.153552
v -0.481189 0.110588 0.156131
v -0.474643 0.143415 0.136411
v -0.474642 0.108996 0.153937
v -0.468094 0.108159 0.151358
v -0.465383 0.137975 0.128919
v -0.465383 0.104312 0.146060
v -0.462670 0.102290 0.139834
v -0.465383 0.130281 0.118324
v -0.465381 0.098444 0.134536
v -0.468093 0.096422 0.128308
v -0.474641 0.124840 0.110831
v -0.474639 0.094828 0.126114
v -0.481186 0.093989 0.123534
v -0.487735 0.124839 0.110830
v -0.487734 0.095583 0.125728
v -0.494281 0.096419 0.128306
v -0.496995 0.130279 0.118323
v -0.496994 0.100266 0.133605
v -0.496999 0.189962 0.076959
v -0.499709 0.159396 0.098366
v -0.496997 0.164692 0.102215
v -0.494286 0.168539 0.107513
v -0.487741 0.197451 0.082403
v -0.487739 0.170733 0.109108
v -0.481192 0.172326 0.111301
v -0.474646 0.197452 0.082402
v -0.474645 0.170133 0.109706
v -0.468097 0.168541 0.107512
v -0.465386 0.189964 0.076958
v -0.465385 0.163245 0.103662
v -0.462673 0.159398 0.098365
v -0.465385 0.179372 0.069259
v -0.465384 0.154102 0.094515
v -0.468095 0.150255 0.089217
v -0.474643 0.171882 0.063815
v -0.474642 0.148061 0.087623
v -0.481189 0.146466 0.085428
v -0.487737 0.171880 0.063815
v -0.487736 0.148659 0.087023
v -0.494284 0.150252 0.089216
v -0.496997 0.179369 0.069259
v -0.496997 0.155549 0.093067
v -0.497002 0.223348 0.011476
v -0.499712 0.200894 0.041281
v -0.497001 0.207120 0.043305
v -0.494289 0.212416 0.047154
v -0.487743 0.232154 0.014339
v -0.487742 0.214996 0.047993
v -0.481195 0.217189 0.049588
v -0.474649 0.232155 0.014339
v -0.474648 0.214611 0.048749
v -0.468100 0.212418 0.047153
v -0.465390 0.223351 0.011475
v -0.465388 0.206192 0.045128
v -0.462676 0.200897 0.041279
v -0.465389 0.210899 0.007425
v -0.465387 0.194671 0.039254
v -0.468098 0.189375 0.035404
v -0.474646 0.202093 0.004561
v -0.474645 0.186794 0.034566
v -0.481191 0.184600 0.032971
v -0.487740 0.202091 0.004562
v -0.487739 0.187178 0.033811
v -0.494286 0.189371 0.035405
v -0.497001 0.210895 0.007426
v -0.496999 0.195598 0.037430
v -0.497005 0.234867 -0.061119
v -0.499715 0.222721 -0.025835
v -0.497004 0.229268 -0.025833
v -0.494292 0.235494 -0.023809
v -0.487747 0.244127 -0.061118
v -0.487745 0.238207 -0.023808
v -0.481198 0.240787 -0.022970
v -0.474652 0.244127 -0.061118
v -0.474651 0.238075 -0.022970
v -0.468103 0.235496 -0.023810
v -0.465393 0.234869 -0.061121
v -0.465391 0.228949 -0.023812
v -0.462679 0.222724 -0.025837
v -0.465392 0.221775 -0.061125
v -0.465390 0.216176 -0.025838
v -0.468101 0.209950 -0.027863
v -0.474649 0.212516 -0.061127
v -0.474648 0.207238 -0.027864
v -0.481194 0.204658 -0.028702
v -0.487743 0.212513 -0.061126
v -0.487742 0.207368 -0.028701
v -0.494289 0.209946 -0.027862
v -0.497004 0.221772 -0.061123
v -0.497002 0.216495 -0.027860
v -0.497008 -0.234950 -0.308146
v -0.494291 -0.241525 -0.184693
v -0.497003 -0.234978 -0.184691
v -0.499715 -0.228431 -0.184690
v -0.487750 -0.244210 -0.308148
v -0.481198 -0.246949 -0.184694
v -0.487745 -0.244237 -0.184693
v -0.474655 -0.244210 -0.308148
v -0.468103 -0.241527 -0.184693
v -0.474650 -0.244238 -0.184694
v -0.465396 -0.234952 -0.308146
v -0.462679 -0.228433 -0.184691
v -0.465391 -0.234979 -0.184692
v -0.465395 -0.221857 -0.308143
v -0.468101 -0.215338 -0.184688
v -0.465390 -0.221886 -0.184689
v -0.474653 -0.212598 -0.308141
v -0.481194 -0.209913 -0.184686
v -0.474648 -0.212625 -0.184687
v -0.487747 -0.212597 -0.308141
v -0.494289 -0.215335 -0.184687
v -0.487742 -0.212624 -0.184686
v -0.497007 -0.221855 -0.308143
v -0.497002 -0.221883 -0.184689
v -0.497015 0.234923 -0.308026
v -0.499722 0.228348 -0.184574
v -0.497010 0.234895 -0.184573
v -0.494299 0.241442 -0.184571
v -0.487757 0.244182 -0.308025
v -0.487752 0.244154 -0.184571
v -0.481205 0.246866 -0.184571
v -0.474662 0.244183 -0.308026
v -0.474657 0.244156 -0.184572
v -0.468110 0.241444 -0.184573
v -0.465403 0.234925 -0.308029
v -0.465398 0.234897 -0.184575
v -0.462686 0.228350 -0.184577
v -0.465402 0.221831 -0.308032
v -0.465397 0.221803 -0.184578
v -0.468108 0.215256 -0.184580
v -0.474659 0.212571 -0.308034
v -0.474654 0.212543 -0.184581
v -0.481201 0.209830 -0.184581
v -0.487753 0.212568 -0.308034
v -0.487748 0.212541 -0.184580
v -0.494295 0.215251 -0.184578
v -0.497014 0.221827 -0.308030
v -0.497009 0.221799 -0.184576
v 0.465945 -0.223510 0.011324
v 0.463232 -0.222863 -0.025986
v 0.465944 -0.229091 -0.023965
v 0.468656 -0.235638 -0.023966
v 0.465943 -0.234992 -0.061277
v 0.475204 -0.232317 0.014183
v 0.475203 -0.238217 -0.023129
v 0.481749 -0.240929 -0.023129
v 0.475201 -0.244251 -0.061279
v 0.488298 -0.232316 0.014183
v 0.488296 -0.238350 -0.023967
v 0.494844 -0.235638 -0.023967
v 0.488295 -0.244251 -0.061279
v 0.497557 -0.223510 0.011324
v 0.497556 -0.229411 -0.025988
v 0.500268 -0.222865 -0.025987
v 0.497555 -0.234993 -0.061278
v 0.497559 -0.211056 0.007281
v 0.497557 -0.216638 -0.028008
v 0.494846 -0.210090 -0.028007
v 0.497556 -0.221899 -0.061275
v 0.488301 -0.202249 0.004422
v 0.488299 -0.207510 -0.028845
v 0.481753 -0.204798 -0.028844
v 0.488298 -0.212638 -0.061273
v 0.475206 -0.202248 0.004421
v 0.475205 -0.207376 -0.028007
v 0.468657 -0.210087 -0.028008
v 0.475204 -0.212637 -0.061272
v 0.465946 -0.211054 0.007280
v 0.465945 -0.216315 -0.025985
v 0.465943 -0.221896 -0.061274
v 0.465948 -0.190156 0.076824
v 0.463235 -0.201070 0.041140
v 0.465947 -0.206368 0.044987
v 0.468658 -0.212595 0.047008
v 0.475206 -0.197647 0.082264
v 0.475205 -0.214789 0.048601
v 0.481752 -0.217368 0.049439
v 0.488300 -0.197647 0.082264
v 0.488299 -0.215174 0.047846
v 0.494846 -0.212595 0.047008
v 0.497559 -0.190155 0.076824
v 0.497558 -0.207297 0.043161
v 0.500271 -0.201070 0.041140
v 0.497561 -0.179560 0.069130
v 0.497560 -0.195773 0.037292
v 0.494848 -0.189546 0.035271
v 0.488302 -0.172068 0.063689
v 0.488302 -0.187351 0.033677
v 0.481755 -0.184771 0.032840
v 0.475208 -0.172067 0.063688
v 0.475207 -0.186965 0.034433
v 0.468659 -0.189544 0.035269
v 0.465948 -0.179560 0.069129
v 0.465947 -0.194842 0.039117
v 0.465949 -0.138193 0.128811
v 0.463236 -0.159601 0.098246
v 0.465948 -0.163450 0.103542
v 0.468660 -0.168748 0.107389
v 0.475207 -0.143637 0.136300
v 0.475207 -0.170342 0.109582
v 0.481754 -0.172536 0.111175
v 0.488302 -0.143637 0.136300
v 0.488301 -0.170941 0.108982
v 0.494848 -0.168747 0.107389
v 0.497561 -0.138193 0.128811
v 0.497560 -0.164898 0.102093
v 0.500272 -0.159601 0.098246
v 0.497562 -0.130494 0.118220
v 0.497561 -0.155751 0.092951
v 0.494850 -0.150453 0.089103
v 0.488304 -0.125049 0.110729
v 0.488303 -0.148859 0.086909
v 0.481756 -0.146664 0.085315
v 0.475210 -0.125049 0.110728
v 0.475209 -0.148258 0.087509
v 0.468661 -0.150452 0.089102
v 0.465950 -0.130494 0.118219
v 0.465949 -0.154303 0.094398
v 0.465949 -0.072709 0.162196
v 0.463237 -0.102514 0.139743
v 0.465949 -0.104539 0.145968
v 0.468661 -0.108388 0.151264
v 0.475208 -0.075573 0.171001
v 0.475208 -0.109227 0.153843
v 0.481755 -0.110821 0.156037
v 0.488303 -0.075572 0.171002
v 0.488302 -0.109982 0.153458
v 0.494850 -0.108388 0.151265
v 0.497561 -0.072709 0.162197
v 0.497561 -0.106363 0.145038
v 0.500273 -0.102514 0.139743
v 0.497562 -0.068659 0.149745
v 0.497562 -0.100489 0.133517
v 0.494850 -0.096639 0.128222
v 0.488304 -0.065796 0.140939
v 0.488304 -0.095801 0.125642
v 0.481757 -0.094206 0.123447
v 0.475210 -0.065796 0.140937
v 0.475210 -0.095045 0.126025
v 0.468663 -0.096639 0.128219
v 0.465950 -0.068659 0.149743
v 0.465950 -0.098664 0.134446
v 0.465949 -0.000114 0.173713
v 0.463237 -0.035399 0.161568
v 0.465949 -0.035400 0.168115
v 0.468661 -0.037425 0.174341
v 0.475208 -0.000116 0.182971
v 0.475208 -0.037425 0.177052
v 0.481755 -0.038264 0.179632
v 0.488302 -0.000116 0.182971
v 0.488302 -0.038263 0.176920
v 0.494849 -0.037424 0.174342
v 0.497561 -0.000113 0.173713
v 0.497561 -0.037422 0.167795
v 0.500273 -0.035397 0.161569
v 0.497561 -0.000110 0.160619
v 0.497561 -0.035396 0.155021
v 0.494850 -0.033372 0.148796
v 0.488303 -0.000108 0.151359
v 0.488303 -0.033371 0.146083
v 0.481757 -0.032532 0.143503
v 0.475209 -0.000108 0.151358
v 0.475209 -0.032533 0.146214
v 0.468662 -0.033372 0.148793
v 0.465949 -0.000111 0.160618
v 0.465950 -0.033373 0.155341
v 0.465947 0.072487 0.162233
v 0.463235 0.035177 0.161586
v 0.465948 0.037198 0.167813
v 0.468660 0.037197 0.174360
v 0.475206 0.075347 0.171039
v 0.475207 0.038034 0.176939
v 0.481754 0.038034 0.179650
v 0.488300 0.075347 0.171039
v 0.488301 0.037197 0.177071
v 0.494848 0.037198 0.174360
v 0.497559 0.072489 0.162233
v 0.497560 0.035176 0.168133
v 0.500272 0.035178 0.161586
v 0.497561 0.068446 0.149779
v 0.497561 0.033157 0.155359
v 0.494850 0.033158 0.148812
v 0.488302 0.065586 0.140972
v 0.488302 0.032320 0.146232
v 0.481755 0.032321 0.143519
v 0.475208 0.065585 0.140971
v 0.475208 0.033158 0.146098
v 0.468661 0.033156 0.148809
v 0.465948 0.068444 0.149778
v 0.465948 0.035178 0.155038
v 0.465945 0.137987 0.128880
v 0.463234 0.102303 0.139795
v 0.465946 0.106150 0.145092
v 0.468658 0.108172 0.151319
v 0.475203 0.143428 0.136372
v 0.475205 0.109765 0.153513
v 0.481751 0.110603 0.156092
v 0.488297 0.143429 0.136371
v 0.488299 0.109010 0.153898
v 0.494846 0.108173 0.151318
v 0.497557 0.137990 0.128880
v 0.497558 0.104327 0.146021
v 0.500271 0.102305 0.139794
v 0.497558 0.130296 0.118285
v 0.497559 0.098458 0.134497
v 0.494848 0.096436 0.128270
v 0.488300 0.124854 0.110792
v 0.488301 0.094843 0.126074
v 0.481754 0.094004 0.123494
v 0.475206 0.124853 0.110791
v 0.475206 0.095597 0.125688
v 0.468659 0.096434 0.128267
v 0.465946 0.130293 0.118284
v 0.465947 0.100281 0.133566
v 0.465942 0.189976 0.076919
v 0.463232 0.159410 0.098326
v 0.465943 0.164706 0.102176
v 0.468655 0.168553 0.107473
v 0.475200 0.197465 0.082363
v 0.475202 0.170747 0.109068
v 0.481748 0.172340 0.111262
v 0.488294 0.197466 0.082363
v 0.488296 0.170147 0.109667
v 0.494843 0.168555 0.107472
v 0.497554 0.189978 0.076918
v 0.497555 0.163259 0.103623
v 0.500268 0.159413 0.098325
v 0.497555 0.179386 0.069219
v 0.497557 0.154117 0.094476
v 0.494846 0.150269 0.089179
v 0.488297 0.171896 0.063775
v 0.488299 0.148075 0.087584
v 0.481752 0.146481 0.085389
v 0.475203 0.171895 0.063775
v 0.475204 0.148674 0.086983
v 0.468657 0.150267 0.089177
v 0.465943 0.179384 0.069220
v 0.465944 0.155563 0.093027
v 0.465939 0.223363 0.011437
v 0.463229 0.200908 0.041241
v 0.465940 0.207134 0.043266
v 0.468652 0.212430 0.047115
v 0.475197 0.232168 0.014300
v 0.475198 0.215010 0.047954
v 0.481745 0.217203 0.049548
v 0.488291 0.232169 0.014299
v 0.488293 0.214625 0.048709
v 0.494840 0.212432 0.047114
v 0.497551 0.223365 0.011435
v 0.497552 0.206207 0.045089
v 0.500265 0.200911 0.041240
v 0.497552 0.210914 0.007386
v 0.497554 0.194685 0.039215
v 0.494843 0.189389 0.035365
v 0.488294 0.202107 0.004522
v 0.488296 0.186809 0.034526
v 0.481749 0.184615 0.032932
v 0.475200 0.202106 0.004522
v 0.475201 0.187193 0.033771
v 0.468654 0.189386 0.035365
v 0.465940 0.210910 0.007387
v 0.465941 0.195612 0.037391
v 0.465935 0.234882 -0.061159
v 0.463226 0.222736 -0.025874
v 0.465937 0.229283 -0.025873
v 0.468648 0.235509 -0.023848
v 0.475193 0.244141 -0.061157
v 0.475195 0.238221 -0.023848
v 0.481742 0.240801 -0.023009
v 0.488288 0.244142 -0.061157
v 0.488290 0.238089 -0.023010
v 0.494837 0.235511 -0.023849
v 0.497548 0.234884 -0.061161
v 0.497550 0.228964 -0.023851
v 0.500262 0.222739 -0.025876
v 0.497549 0.221790 -0.061164
v 0.497551 0.216191 -0.025878
v 0.494840 0.209965 -0.027902
v 0.488292 0.212530 -0.061166
v 0.488293 0.207252 -0.027902
v 0.481746 0.204672 -0.028742
v 0.475197 0.212528 -0.061165
v 0.475199 0.207383 -0.028740
v 0.468651 0.209961 -0.027901
v 0.465937 0.221787 -0.061162
v 0.465938 0.216510 -0.027899
v 0.465933 -0.234936 -0.308184
v 0.468649 -0.241511 -0.184732
v 0.465938 -0.234965 -0.184730
v 0.463226 -0.228417 -0.184729
v 0.475191 -0.244195 -0.308187
v 0.481743 -0.246935 -0.184734
v 0.475196 -0.244223 -0.184733
v 0.488285 -0.244195 -0.308187
v 0.494837 -0.241512 -0.184733
v 0.488290 -0.244223 -0.184733
v 0.497544 -0.234937 -0.308185
v 0.500262 -0.228418 -0.184730
v 0.497550 -0.234965 -0.184731
v 0.497546 -0.221843 -0.308182
v 0.494840 -0.215323 -0.184727
v 0.497551 -0.221871 -0.184729
v 0.488288 -0.212583 -0.308180
v 0.481746 -0.209899 -0.184726
v 0.488293 -0.212611 -0.184726
v 0.475194 -0.212582 -0.308180
v 0.468651 -0.215320 -0.184727
v 0.475199 -0.212610 -0.184726
v 0.465933 -0.221841 -0.308182
v 0.465938 -0.221868 -0.184728
v 0.465925 0.234937 -0.308066
v 0.463219 0.228362 -0.184614
v 0.465930 0.234910 -0.184612
v 0.468642 0.241457 -0.184611
v 0.475183 0.244197 -0.308064
v 0.475188 0.244169 -0.184611
v 0.481735 0.246881 -0.184610
v 0.488278 0.244197 -0.308065
v 0.488283 0.244170 -0.184612
v 0.494831 0.241459 -0.184612
v 0.497538 0.234940 -0.308068
v 0.497543 0.234912 -0.184614
v 0.500255 0.228365 -0.184616
v 0.497539 0.221845 -0.308071
v 0.497544 0.221817 -0.184618
v 0.494833 0.215270 -0.184619
v 0.488281 0.212585 -0.308073
v 0.488287 0.212557 -0.184620
v 0.481740 0.209845 -0.184620
v 0.475187 0.212583 -0.308073
v 0.475192 0.212556 -0.184619
v 0.468644 0.215266 -0.184618
v 0.465927 0.221842 -0.308070
v 0.465932 0.221814 -0.184616
v -0.458290 0.216000 -0.104824
v -0.459942 0.209822 -0.067789
v -0.458288 0.215994 -0.067788
v -0.456635 0.222167 -0.067787
v -0.458287 0.215989 -0.030752
v -0.452118 0.226691 -0.104823
v -0.452116 0.226686 -0.067787
v -0.447598 0.231205 -0.067787
v -0.452115 0.226681 -0.030751
v -0.441426 0.232865 -0.104822
v -0.441424 0.232860 -0.067786
v -0.435250 0.234514 -0.067786
v -0.441423 0.232855 -0.030750
v 0.000475 0.234514 -0.104840
v 0.000477 0.234508 -0.067804
v 0.436203 0.234502 -0.067822
v 0.000478 0.234503 -0.030768
v 0.442375 0.232854 -0.104858
v 0.442377 0.232848 -0.067822
v 0.448550 0.231194 -0.067822
v 0.442378 0.232843 -0.030786
v 0.453066 0.226680 -0.104859
v 0.453068 0.226675 -0.067823
v 0.457585 0.222156 -0.067824
v 0.453069 0.226670 -0.030787
v 0.459237 0.215988 -0.104861
v 0.459239 0.215984 -0.067825
v 0.460893 0.209811 -0.067825
v 0.459240 0.215978 -0.030788
v 0.460889 -0.000056 -0.104892
v 0.460890 -0.000061 -0.067856
v 0.460888 -0.209933 -0.067887
v 0.460892 -0.000066 -0.030820
v 0.459233 -0.216100 -0.104923
v 0.459234 -0.216105 -0.067887
v 0.457580 -0.222278 -0.067888
v 0.459236 -0.216110 -0.030851
v 0.453059 -0.226790 -0.104925
v 0.453061 -0.226796 -0.067889
v 0.448542 -0.231314 -0.067890
v 0.453062 -0.226801 -0.030853
v 0.442368 -0.232963 -0.104926
v 0.442370 -0.232969 -0.067890
v 0.436198 -0.234623 -0.067890
v 0.442371 -0.232974 -0.030854
v 0.000470 -0.234612 -0.104908
v 0.000471 -0.234617 -0.067872
v -0.435255 -0.234611 -0.067854
v 0.000473 -0.234622 -0.030836
v -0.441430 -0.232952 -0.104890
v -0.441429 -0.232957 -0.067854
v -0.447602 -0.231303 -0.067853
v -0.441427 -0.232962 -0.030818
v -0.452122 -0.226779 -0.104888
v -0.452120 -0.226785 -0.067852
v -0.456638 -0.222267 -0.067851
v -0.452118 -0.226790 -0.030816
v -0.458294 -0.216088 -0.104886
v -0.458293 -0.216094 -0.067850
v -0.459947 -0.209921 -0.067849
v -0.458291 -0.216099 -0.030814
v -0.459946 -0.000044 -0.104855
v -0.459944 -0.000049 -0.067819
v -0.459943 -0.000055 -0.030783
v -0.254420 0.111051 -0.030775
v -0.252766 0.117223 -0.030774
v -0.248248 0.121743 -0.030774
v -0.242074 0.123397 -0.030774
v 0.193653 0.123391 -0.030792
v 0.199826 0.121737 -0.030792
v 0.204343 0.117218 -0.030793
v 0.205997 0.111045 -0.030793
v 0.205995 -0.098827 -0.030824
v 0.204341 -0.104999 -0.030825
v 0.199822 -0.109517 -0.030826
v 0.193650 -0.111171 -0.030826
v -0.242077 -0.111166 -0.030808
v -0.248250 -0.109512 -0.030808
v -0.252768 -0.104993 -0.030807
v -0.254422 -0.098821 -0.030806
v -0.468414 -0.000053 -0.115717
v 0.000072 0.215478 -0.115685
v 0.000075 -0.000046 -0.115722
v 0.000078 -0.215570 -0.115759
v 0.468564 -0.000039 -0.115728
v -0.468414 -0.000055 -0.103371
v 0.000079 -0.215572 -0.103414
v 0.000076 -0.000048 -0.103377
v 0.000072 0.215476 -0.103340
v 0.468565 -0.000041 -0.103383
v -0.468410 -0.215579 -0.109581
v 0.000079 -0.215571 -0.109586
v 0.468568 -0.215564 -0.109592
v 0.468561 0.215484 -0.109518
v 0.468564 -0.000040 -0.109555
v -0.468417 0.215471 -0.109507
v 0.000072 0.215477 -0.109513
v -0.468414 -0.000054 -0.109544
v -0.468848 -0.240795 -0.115799
v -0.468852 -0.000057 -0.128097
v -0.468852 -0.000060 -0.115751
v -0.468851 -0.000063 -0.103406
v -0.468856 0.240675 -0.115703
v -0.493539 -0.240795 -0.115798
v -0.493542 -0.000063 -0.103405
v -0.493543 -0.000060 -0.115750
v -0.493543 -0.000057 -0.128096
v -0.493547 0.240675 -0.115702
v -0.481193 -0.240798 -0.103453
v -0.481197 -0.000063 -0.103405
v -0.481201 0.240672 -0.103357
v -0.481194 -0.240792 -0.128144
v -0.481198 -0.000057 -0.128096
v -0.481202 0.240678 -0.128048
v 0.494093 -0.240780 -0.115838
v 0.494088 -0.000043 -0.128136
v 0.494089 -0.000045 -0.115791
v 0.494089 -0.000048 -0.103445
v 0.494085 0.240690 -0.115743
v 0.469402 -0.240781 -0.115837
v 0.469398 -0.000048 -0.103444
v 0.469398 -0.000046 -0.115790
v 0.469397 -0.000043 -0.128135
v 0.469394 0.240689 -0.115742
v 0.481748 -0.240783 -0.103492
v 0.481744 -0.000048 -0.103445
v 0.481740 0.240687 -0.103397
v 0.481747 -0.240778 -0.128183
v 0.481743 -0.000043 -0.128136
v 0.481739 0.240692 -0.128088
v -0.482871 0.216042 -0.115695
v 0.000232 0.216057 -0.128054
v 0.000232 0.216055 -0.115709
v 0.000232 0.216053 -0.103364
v 0.483336 0.216069 -0.115722
v -0.482873 0.240732 -0.115716
v 0.000231 0.240744 -0.103383
v 0.000231 0.240746 -0.115729
v 0.000231 0.240748 -0.128075
v 0.483334 0.240760 -0.115742
v -0.482872 0.228385 -0.103360
v 0.000231 0.228398 -0.103373
v 0.483335 0.228412 -0.103387
v -0.482872 0.228389 -0.128051
v 0.000232 0.228403 -0.128064
v 0.483335 0.228416 -0.128078
v -0.482814 -0.240640 -0.115798
v 0.000290 -0.240624 -0.128157
v 0.000290 -0.240627 -0.115812
v 0.000290 -0.240629 -0.103466
v 0.483393 -0.240613 -0.115825
v -0.482816 -0.215949 -0.115769
v 0.000288 -0.215938 -0.103438
v 0.000288 -0.215936 -0.115783
v 0.000288 -0.215934 -0.128128
v 0.483392 -0.215923 -0.115797
v -0.482815 -0.228297 -0.103438
v 0.000289 -0.228283 -0.103452
v 0.483393 -0.228270 -0.103465
v -0.482814 -0.228293 -0.128129
v 0.000289 -0.228280 -0.128143
v 0.483393 -0.228266 -0.128156
f 1 450 452
f 450 2 451
f 451 3 452
f 450 451 452
f 4 453 454
f 453 1 452
f 452 3 454
f 453 452 454
f 5 455 456
f 455 1 453
f 453 4 456
f 455 453 456
f 6 457 458
f 457 5 456
f 456 4 458
f 457 456 458
f 7 459 460
f 459 5 457
f 457 6 460
f 459 457 460
f 8 461 462
f 461 7 460
f 460 6 462
f 461 460 462
f 9 463 464
f 463 7 461
f 461 8 464
f 463 461 464
f 10 465 466
f 465 9 464
f 464 8 466
f 465 464 466
f 11 467 468
f 467 9 465
f 465 10 468
f 467 465 468
f 12 469 470
f 469 11 468
f 468 10 470
f 469 468 470
f 2 471 472
f 471 11 469
f 469 12 472
f 471 469 472
f 3 451 473
f 451 2 472
f 472 12 473
f 451 472 473
f 13 474 476
f 474 14 475
f 475 15 476
f 474 475 476
f 16 477 478
f 477 13 476
f 476 15 478
f 477 476 478
f 17 479 480
f 479 13 477
f 477 16 480
f 479 477 480
f 18 481 482
f 481 17 480
f 480 16 482
f 481 480 482
f 19 483 484
f 483 17 481
f 481 18 484
f 483 481 484
f 20 485 486
f 485 19 484
f 484 18 486
f 485 484 486
f 21 487 488
f 487 19 485
f 485 20 488
f 487 485 488
f 22 489 490
f 489 21 488
f 488 20 490
f 489 488 490
f 23 491 492
f 491 21 489
f 489 22 492
f 491 489 492
f 24 493 494
f 493 23 492
f 492 22 494
f 493 492 494
f 14 495 496
f 495 23 493
f 493 24 496
f 495 493 496
f 15 475 497
f 475 14 496
f 496 24 497
f 475 496 497
f 25 498 500
f 498 26 499
f 499 27 500
f 498 499 500
f 28 501 502
f 501 25 500
f 500 27 502
f 501 500 502
f 29 503 504
f 503 25 501
f 501 28 504
f 503 501 504
f 30 505 506
f 505 29 504
f 504 28 506
f 505 504 506
f 31 507 508
f 507 29 505
f 505 30 508
f 507 505 508
f 32 509 510
f 509 31 508
f 508 30 510
f 509 508 510
f 33 511 512
f 511 31 509
f 509 32 512
f 511 509 512
f 34 513 514
f 513 33 512
f 512 32 514
f 513 512 514
f 35 515 516
f 515 33 513
f 513 34 516
f 515 513 516
f 36 517 518
f 517 35 516
f 516 34 518
f 517 516 518
f 26 519 520
f 519 35 517
f 517 36 520
f 519 517 520
f 27 499 521
f 499 26 520
f 520 36 521
f 499 520 521
f 37 522 524
f 522 38 523
f 523 39 524
f 522 523 524
f 40 525 526
f 525 37 524
f 524 39 526
f 525 524 526
f 41 527 528
f 527 37 525
f 525 40 528
f 527 525 528
f 42 529 530
f 529 41 528
f 528 40 530
f 529 528 530
f 43 531 532
f 531 41 529
f 529 42 532
f 531 529 532
f 44 533 534
f 533 43 532
f 532 42 534
f 533 532 534
f 45 535 536
f 535 43 533
f 533 44 536
f 535 533 536
f 46 537 538
f 537 45 536
f 536 44 538
f 537 536 538
f 47 539 540
f 539 45 537
f 537 46 540
f 539 537 540
f 48 541 542
f 541 47 540
f 540 46 542
f 541 540 542
f 38 543 544
f 543 47 541
f 541 48 544
f 543 541 544
f 39 523 545
f 523 38 544
f 544 48 545
f 523 544 545
f 49 546 548
f 546 50 547
f 547 51 548
f 546 547 548
f 52 549 550
f 549 49 548
f 548 51 550
f 549 548 550
f 53 551 552
f 551 49 549
f 549 52 552
f 551 549 552
f 54 553 554
f 553 53 552
f 552 52 554
f 553 552 554
f 55 555 556
f 555 53 553
f 553 54 556
f 555 553 556
f 56 557 558
f 557 55 556
f 556 54 558
f 557 556 558
f 57 559 560
f 559 55 557
f 557 56 560
f 559 557 560
f 58 561 562
f 561 57 560
f 560 56 562
f 561 560 562
f 59 563 564
f 563 57 561
f 561 58 564
f 563 561 564
f 60 565 566
f 565 59 564
f 564 58 566
f 565 564 566
f 50 567 568
f 567 59 565
f 565 60 568
f 567 565 568
f 51 547 569
f 547 50 568
f 568 60 569
f 547 568 569
f 61 570 572
f 570 62 571
f 571 63 572
f 570 571 572
f 64 573 574
f 573 61 572
f 572 63 574
f 573 572 574
f 65 575 576
f 575 61 573
f 573 64 576
f 575 573 576
f 66 577 578
f 577 65 576
f 576 64 578
f 577 576 578
f 67 579 580
f 579 65 577
f 577 66 580
f 579 577 580
f 68 581 582
f 581 67 580
f 580 66 582
f 581 580 582
f 69 583 584
f 583 67 581
f 581 68 584
f 583 581 584
f 70 585 586
f 585 69 584
f 584 68 586
f 585 584 586
f 71 587 588
f 587 69 585
f 585 70 588
f 587 585 588
f 72 589 590
f 589 71 588
f 588 70 590
f 589 588 590
f 62 591 592
f 591 71 589
f 589 72 592
f 591 589 592
f 63 571 593
f 571 62 592
f 592 72 593
f 571 592 593
f 73 594 596
f 594 74 595
f 595 75 596
f 594 595 596
f 76 597 598
f 597 73 596
f 596 75 598
f 597 596 598
f 77 599 600
f 599 73 597
f 597 76 600
f 599 597 600
f 78 601 602
f 601 77 600
f 600 76 602
f 601 600 602
f 79 603 604
f 603 77 601
f 601 78 604
f 603 601 604
f 80 605 606
f 605 79 604
f 604 78 606
f 605 604 606
f 81 607 608
f 607 79 605
f 605 80 608
f 607 605 608
f 82 609 610
f 609 81 608
f 608 80 610
f 609 608 610
f 83 611 612
f 611 81 609
f 609 82 612
f 611 609 612
f 84 613 614
f 613 83 612
f 612 82 614
f 613 612 614
f 74 615 616
f 615 83 613
f 613 84 616
f 615 613 616
f 75 595 617
f 595 74 616
f 616 84 617
f 595 616 617
f 85 618 620
f 618 86 619
f 619 87 620
f 618 619 620
f 88 621 622
f 621 85 620
f 620 87 622
f 621 620 622
f 89 623 624
f 623 85 621
f 621 88 624
f 623 621 624
f 90 625 626
f 625 89 624
f 624 88 626
f 625 624 626
f 91 627 628
f 627 89 625
f 625 90 628
f 627 625 628
f 92 629 630
f 629 91 628
f 628 90 630
f 629 628 630
f 93 631 632
f 631 91 629
f 629 92 632
f 631 629 632
f 94 633 634
f 633 93 632
f 632 92 634
f 633 632 634
f 95 635 636
f 635 93 633
f 633 94 636
f 635 633 636
f 96 637 638
f 637 95 636
f 636 94 638
f 637 636 638
f 86 639 640
f 639 95 637
f 637 96 640
f 639 637 640
f 87 619 641
f 619 86 640
f 640 96 641
f 619 640 641
f 97 642 644
f 642 98 643
f 643 99 644
f 642 643 644
f 100 645 646
f 645 97 644
f 644 99 646
f 645 644 646
f 101 647 648
f 647 97 645
f 645 100 648
f 647 645 648
f 102 649 650
f 649 101 648
f 648 100 650
f 649 648 650
f 103 651 652
f 651 101 649
f 649 102 652
f 651 649 652
f 104 653 654
f 653 103 652
f 652 102 654
f 653 652 654
f 105 655 656
f 655 103 653
f 653 104 656
f 655 653 656
f 106 657 658
f 657 105 656
f 656 104 658
f 657 656 658
f 107 659 660
f 659 105 657
f 657 106 660
f 659 657 660
f 108 661 662
f 661 107 660
f 660 106 662
f 661 660 662
f 98 663 664
f 663 107 661
f 661 108 664
f 663 661 664
f 99 643 665
f 643 98 664
f 664 108 665
f 643 664 665
f 109 666 668
f 666 110 667
f 667 111 668
f 666 667 668
f 112 669 670
f 669 109 668
f 668 111 670
f 669 668 670
f 113 671 672
f 671 109 669
f 669 112 672
f 671 669 672
f 114 673 674
f 673 113 672
f 672 112 674
f 673 672 674
f 115 675 676
f 675 113 673
f 673 114 676
f 675 673 676
f 116 677 678
f 677 115 676
f 676 114 678
f 677 676 678
f 117 679 680
f 679 115 677
f 677 116 680
f 679 677 680
f 118 681 682
f 681 117 680
f 680 116 682
f 681 680 682
f 119 683 684
f 683 117 681
f 681 118 684
f 683 681 684
f 120 685 686
f 685 119 684
f 684 118 686
f 685 684 686
f 110 687 688
f 687 119 685
f 685 120 688
f 687 685 688
f 111 667 689
f 667 110 688
f 688 120 689
f 667 688 689
f 121 690 692
f 690 122 691
f 691 123 692
f 690 691 692
f 124 693 694
f 693 121 692
f 692 123 694
f 693 692 694
f 125 695 696
f 695 121 693
f 693 124 696
f 695 693 696
f 126 697 698
f 697 125 696
f 696 124 698
f 697 696 698
f 127 699 700
f 699 125 697
f 697 126 700
f 699 697 700
f 128 701 702
f 701 127 700
f 700 126 702
f 701 700 702
f 129 703 704
f 703 127 701
f 701 128 704
f 703 701 704
f 130 705 706
f 705 129 704
f 704 128 706
f 705 704 706
f 131 707 708
f 707 129 705
f 705 130 708
f 707 705 708
f 132 709 710
f 709 131 708
f 708 130 710
f 709 708 710
f 122 711 712
f 711 131 709
f 709 132 712
f 711 709 712
f 123 691 713
f 691 122 712
f 712 132 713
f 691 712 713
f 133 714 716
f 714 134 715
f 715 135 716
f 714 715 716
f 136 717 718
f 717 133 716
f 716 135 718
f 717 716 718
f 137 719 720
f 719 133 717
f 717 136 720
f 719 717 720
f 138 721 722
f 721 137 720
f 720 136 722
f 721 720 722
f 139 723 724
f 723 137 721
f 721 138 724
f 723 721 724
f 140 725 726
f 725 139 724
f 724 138 726
f 725 724 726
f 141 727 728
f 727 139 725
f 725 140 728
f 727 725 728
f 142 729 730
f 729 141 728
f 728 140 730
f 729 728 730
f 143 731 732
f 731 141 729
f 729 142 732
f 731 729 732
f 144 733 734
f 733 143 732
f 732 142 734
f 733 732 734
f 134 735 736
f 735 143 733
f 733 144 736
f 735 733 736
f 135 715 737
f 715 134 736
f 736 144 737
f 715 736 737
f 145 738 740
f 738 146 739
f 739 147 740
f 738 739 740
f 148 741 742
f 741 145 740
f 740 147 742
f 741 740 742
f 149 743 744
f 743 145 741
f 741 148 744
f 743 741 744
f 150 745 746
f 745 149 744
f 744 148 746
f 745 744 746
f 151 747 748
f 747 149 745
f 745 150 748
f 747 745 748
f 152 749 750
f 749 151 748
f 748 150 750
f 749 748 750
f 153 751 752
f 751 151 749
f 749 152 752
f 751 749 752
f 154 753 754
f 753 153 752
f 752 152 754
f 753 752 754
f 155 755 756
f 755 153 753
f 753 154 756
f 755 753 756
f 156 757 758
f 757 155 756
f 756 154 758
f 757 756 758
f 146 759 760
f 759 155 757
f 757 156 760
f 759 757 760
f 147 739 761
f 739 146 760
f 760 156 761
f 739 760 761
f 157 762 764
f 762 158 763
f 763 159 764
f 762 763 764
f 160 765 766
f 765 157 764
f 764 159 766
f 765 764 766
f 161 767 768
f 767 157 765
f 765 160 768
f 767 765 768
f 162 769 770
f 769 161 768
f 768 160 770
f 769 768 770
f 163 771 772
f 771 161 769
f 769 162 772
f 771 769 772
f 164 773 774
f 773 163 772
f 772 162 774
f 773 772 774
f 165 775 776
f 775 163 773
f 773 164 776
f 775 773 776
f 166 777 778
f 777 165 776
f 776 164 778
f 777 776 778
f 167 779 780
f 779 165 777
f 777 166 780
f 779 777 780
f 168 781 782
f 781 167 780
f 780 166 782
f 781 780 782
f 158 783 784
f 783 167 781
f 781 168 784
f 783 781 784
f 159 763 785
f 763 158 784
f 784 168 785
f 763 784 785
f 169 786 788
f 786 170 787
f 787 171 788
f 786 787 788
f 172 789 790
f 789 169 788
f 788 171 790
f 789 788 790
f 173 791 792
f 791 169 789
f 789 172 792
f 791 789 792
f 174 793 794
f 793 173 792
f 792 172 794
f 793 792 794
f 175 795 796
f 795 173 793
f 793 174 796
f 795 793 796
f 176 797 798
f 797 175 796
f 796 174 798
f 797 796 798
f 177 799 800
f 799 175 797
f 797 176 800
f 799 797 800
f 178 801 802
f 801 177 800
f 800 176 802
f 801 800 802
f 179 803 804
f 803 177 801
f 801 178 804
f 803 801 804
f 180 805 806
f 805 179 804
f 804 178 806
f 805 804 806
f 181 807 808
f 807 179 805
f 805 180 808
f 807 805 808
f 182 809 810
f 809 181 808
f 808 180 810
f 809 808 810
f 183 811 812
f 811 181 809
f 809 182 812
f 811 809 812
f 184 813 814
f 813 183 812
f 812 182 814
f 813 812 814
f 170 815 816
f 815 183 813
f 813 184 816
f 815 813 816
f 171 787 817
f 787 170 816
f 816 184 817
f 787 816 817
f 185 818 820
f 818 186 819
f 819 170 820
f 818 819 820
f 169 821 786
f 821 185 820
f 820 170 786
f 821 820 786
f 187 822 823
f 822 185 821
f 821 169 823
f 822 821 823
f 173 824 791
f 824 187 823
f 823 169 791
f 824 823 791
f 188 825 826
f 825 187 824
f 824 173 826
f 825 824 826
f 175 827 795
f 827 188 826
f 826 173 795
f 827 826 795
f 189 828 829
f 828 188 827
f 827 175 829
f 828 827 829
f 177 830 799
f 830 189 829
f 829 175 799
f 830 829 799
f 190 831 832
f 831 189 830
f 830 177 832
f 831 830 832
f 179 833 803
f 833 190 832
f 832 177 803
f 833 832 803
f 191 834 835
f 834 190 833
f 833 179 835
f 834 833 835
f 181 836 807
f 836 191 835
f 835 179 807
f 836 835 807
f 192 837 838
f 837 191 836
f 836 181 838
f 837 836 838
f 183 839 811
f 839 192 838
f 838 181 811
f 839 838 811
f 186 840 841
f 840 192 839
f 839 183 841
f 840 839 841
f 170 819 815
f 819 186 841
f 841 183 815
f 819 841 815
f 193 842 844
f 842 194 843
f 843 186 844
f 842 843 844
f 185 845 818
f 845 193 844
f 844 186 818
f 845 844 818
f 195 846 847
f 846 193 845
f 845 185 847
f 846 845 847
f 187 848 822
f 848 195 847
f 847 185 822
f 848 847 822
f 196 849 850
f 849 195 848
f 848 187 850
f 849 848 850
f 188 851 825
f 851 196 850
f 850 187 825
f 851 850 825
f 197 852 853
f 852 196 851
f 851 188 853
f 852 851 853
f 189 854 828
f 854 197 853
f 853 188 828
f 854 853 828
f 198 855 856
f 855 197 854
f 854 189 856
f 855 854 856
f 190 857 831
f 857 198 856
f 856 189 831
f 857 856 831
f 199 858 859
f 858 198 857
f 857 190 859
f 858 857 859
f 191 860 834
f 860 199 859
f 859 190 834
f 860 859 834
f 200 861 862
f 861 199 860
f 860 191 862
f 861 860 862
f 192 863 837
f 863 200 862
f 862 191 837
f 863 862 837
f 194 864 865
f 864 200 863
f 863 192 865
f 864 863 865
f 186 843 840
f 843 194 865
f 865 192 840
f 843 865 840
f 201 866 868
f 866 202 867
f 867 194 868
f 866 867 868
f 193 869 842
f 869 201 868
f 868 194 842
f 869 868 842
f 203 870 871
f 870 201 869
f 869 193 871
f 870 869 871
f 195 872 846
f 872 203 871
f 871 193 846
f 872 871 846
f 204 873 874
f 873 203 872
f 872 195 874
f 873 872 874
f 196 875 849
f 875 204 874
f 874 195 849
f 875 874 849
f 205 876 877
f 876 204 875
f 875 196 877
f 876 875 877
f 197 878 852
f 878 205 877
f 877 196 852
f 878 877 852
f 206 879 880
f 879 205 878
f 878 197 880
f 879 878 880
f 198 881 855
f 881 206 880
f 880 197 855
f 881 880 855
f 207 882 883
f 882 206 881
f 881 198 883
f 882 881 883
f 199 884 858
f 884 207 883
f 883 198 858
f 884 883 858
f 208 885 886
f 885 207 884
f 884 199 886
f 885 884 886
f 200 887 861
f 887 208 886
f 886 199 861
f 887 886 861
f 202 888 889
f 888 208 887
f 887 200 889
f 888 887 889
f 194 867 864
f 867 202 889
f 889 200 864
f 867 889 864
f 209 890 892
f 890 210 891
f 891 202 892
f 890 891 892
f 201 893 866
f 893 209 892
f 892 202 866
f 893 892 866
f 211 894 895
f 894 209 893
f 893 201 895
f 894 893 895
f 203 896 870
f 896 211 895
f 895 201 870
f 896 895 870
f 212 897 898
f 897 211 896
f 896 203 898
f 897 896 898
f 204 899 873
f 899 212 898
f 898 203 873
f 899 898 873
f 213 900 901
f 900 212 899
f 899 204 901
f 900 899 901
f 205 902 876
f 902 213 901
f 901 204 876
f 902 901 876
f 214 903 904
f 903 213 902
f 902 205 904
f 903 902 904
f 206 905 879
f 905 214 904
f 904 205 879
f 905 904 879
f 215 906 907
f 906 214 905
f 905 206 907
f 906 905 907
f 207 908 882
f 908 215 907
f 907 206 882
f 908 907 882
f 216 909 910
f 909 215 908
f 908 207 910
f 909 908 910
f 208 911 885
f 911 216 910
f 910 207 885
f 911 910 885
f 210 912 913
f 912 216 911
f 911 208 913
f 912 911 913
f 202 891 888
f 891 210 913
f 913 208 888
f 891 913 888
f 217 914 916
f 914 218 915
f 915 210 916
f 914 915 916
f 209 917 890
f 917 217 916
f 916 210 890
f 917 916 890
f 219 918 919
f 918 217 917
f 917 209 919
f 918 917 919
f 211 920 894
f 920 219 919
f 919 209 894
f 920 919 894
f 220 921 922
f 921 219 920
f 920 211 922
f 921 920 922
f 212 923 897
f 923 220 922
f 922 211 897
f 923 922 897
f 221 924 925
f 924 220 923
f 923 212 925
f 924 923 925
f 213 926 900
f 926 221 925
f 925 212 900
f 926 925 900
f 222 927 928
f 927 221 926
f 926 213 928
f 927 926 928
f 214 929 903
f 929 222 928
f 928 213 903
f 929 928 903
f 223 930 931
f 930 222 929
f 929 214 931
f 930 929 931
f 215 932 906
f 932 223 931
f 931 214 906
f 932 931 906
f 224 933 934
f 933 223 932
f 932 215 934
f 933 932 934
f 216 935 909
f 935 224 934
f 934 215 909
f 935 934 909
f 218 936 937
f 936 224 935
f 935 216 937
f 936 935 937
f 210 915 912
f 915 218 937
f 937 216 912
f 915 937 912
f 225 938 940
f 938 226 939
f 939 218 940
f 938 939 940
f 217 941 914
f 941 225 940
f 940 218 914
f 941 940 914
f 227 942 943
f 942 225 941
f 941 217 943
f 942 941 943
f 219 944 918
f 944 227 943
f 943 217 918
f 944 943 918
f 228 945 946
f 945 227 944
f 944 219 946
f 945 944 946
f 220 947 921
f 947 228 946
f 946 219 921
f 947 946 921
f 229 948 949
f 948 228 947
f 947 220 949
f 948 947 949
f 221 950 924
f 950 229 949
f 949 220 924
f 950 949 924
f 230 951 952
f 951 229 950
f 950 221 952
f 951 950 952
f 222 953 927
f 953 230 952
f 952 221 927
f 953 952 927
f 231 954 955
f 954 230 953
f 953 222 955
f 954 953 955
f 223 956 930
f 956 231 955
f 955 222 930
f 956 955 930
f 232 957 958
f 957 231 956
f 956 223 958
f 957 956 958
f 224 959 933
f 959 232 958
f 958 223 933
f 959 958 933
f 226 960 961
f 960 232 959
f 959 224 961
f 960 959 961
f 218 939 936
f 939 226 961
f 961 224 936
f 939 961 936
f 233 962 964
f 962 234 963
f 963 226 964
f 962 963 964
f 225 965 938
f 965 233 964
f 964 226 938
f 965 964 938
f 235 966 967
f 966 233 965
f 965 225 967
f 966 965 967
f 227 968 942
f 968 235 967
f 967 225 942
f 968 967 942
f 236 969 970
f 969 235 968
f 968 227 970
f 969 968 970
f 228 971 945
f 971 236 970
f 970 227 945
f 971 970 945
f 237 972 973
f 972 236 971
f 971 228 973
f 972 971 973
f 229 974 948
f 974 237 973
f 973 228 948
f 974 973 948
f 238 975 976
f 975 237 974
f 974 229 976
f 975 974 976
f 230 977 951
f 977 238 976
f 976 229 951
f 977 976 951
f 239 978 979
f 978 238 977
f 977 230 979
f 978 977 979
f 231 980 954
f 980 239 979
f 979 230 954
f 980 979 954
f 240 981 982
f 981 239 980
f 980 231 982
f 981 980 982
f 232 983 957
f 983 240 982
f 982 231 957
f 983 982 957
f 234 984 985
f 984 240 983
f 983 232 985
f 984 983 985
f 226 963 960
f 963 234 985
f 985 232 960
f 963 985 960
f 241 986 988
f 986 242 987
f 987 234 988
f 986 987 988
f 233 989 962
f 989 241 988
f 988 234 962
f 989 988 962
f 243 990 991
f 990 241 989
f 989 233 991
f 990 989 991
f 235 992 966
f 992 243 991
f 991 233 966
f 992 991 966
f 244 993 994
f 993 243 992
f 992 235 994
f 993 992 994
f 236 995 969
f 995 244 994
f 994 235 969
f 995 994 969
f 245 996 997
f 996 244 995
f 995 236 997
f 996 995 997
f 237 998 972
f 998 245 997
f 997 236 972
f 998 997 972
f 246 999 1000
f 999 245 998
f 998 237 1000
f 999 998 1000
f 238 1001 975
f 1001 246 1000
f 1000 237 975
f 1001 1000 975
f 247 1002 1003
f 1002 246 1001
f 1001 238 1003
f 1002 1001 1003
f 239 1004 978
f 1004 247 1003
f 1003 238 978
f 1004 1003 978
f 248 1005 1006
f 1005 247 1004
f 1004 239 1006
f 1005 1004 1006
f 240 1007 981
f 1007 248 1006
f 1006 239 981
f 1007 1006 981
f 242 1008 1009
f 1008 248 1007
f 1007 240 1009
f 1008 1007 1009
f 234 987 984
f 987 242 1009
f 1009 240 984
f 987 1009 984
f 249 1010 1012
f 1010 250 1011
f 1011 242 1012
f 1010 1011 1012
f 241 1013 986
f 1013 249 1012
f 1012 242 986
f 1013 1012 986
f 251 1014 1015
f 1014 249 1013
f 1013 241 1015
f 1014 1013 1015
f 243 1016 990
f 1016 251 1015
f 1015 241 990
f 1016 1015 990
f 252 1017 1018
f 1017 251 1016
f 1016 243 1018
f 1017 1016 1018
f 244 1019 993
f 1019 252 1018
f 1018 243 993
f 1019 1018 993
f 253 1020 1021
f 1020 252 1019
f 1019 244 1021
f 1020 1019 1021
f 245 1022 996
f 1022 253 1021
f 1021 244 996
f 1022 1021 996
f 254 1023 1024
f 1023 253 1022
f 1022 245 1024
f 1023 1022 1024
f 246 1025 999
f 1025 254 1024
f 1024 245 999
f 1025 1024 999
f 255 1026 1027
f 1026 254 1025
f 1025 246 1027
f 1026 1025 1027
f 247 1028 1002
f 1028 255 1027
f 1027 246 1002
f 1028 1027 1002
f 256 1029 1030
f 1029 255 1028
f 1028 247 1030
f 1029 1028 1030
f 248 1031 1005
f 1031 256 1030
f 1030 247 1005
f 1031 1030 1005
f 250 1032 1033
f 1032 256 1031
f 1031 248 1033
f 1032 1031 1033
f 242 1011 1008
f 1011 250 1033
f 1033 248 1008
f 1011 1033 1008
f 257 1034 1036
f 1034 258 1035
f 1035 172 1036
f 1034 1035 1036
f 171 1037 790
f 1037 257 1036
f 1036 172 790
f 1037 1036 790
f 258 1038 1040
f 1038 259 1039
f 1039 174 1040
f 1038 1039 1040
f 172 1035 794
f 1035 258 1040
f 1040 174 794
f 1035 1040 794
f 259 1041 1043
f 1041 260 1042
f 1042 176 1043
f 1041 1042 1043
f 174 1039 798
f 1039 259 1043
f 1043 176 798
f 1039 1043 798
f 260 1044 1046
f 1044 261 1045
f 1045 178 1046
f 1044 1045 1046
f 176 1042 802
f 1042 260 1046
f 1046 178 802
f 1042 1046 802
f 261 1047 1049
f 1047 262 1048
f 1048 180 1049
f 1047 1048 1049
f 178 1045 806
f 1045 261 1049
f 1049 180 806
f 1045 1049 806
f 262 1050 1052
f 1050 263 1051
f 1051 182 1052
f 1050 1051 1052
f 180 1048 810
f 1048 262 1052
f 1052 182 810
f 1048 1052 810
f 263 1053 1055
f 1053 264 1054
f 1054 184 1055
f 1053 1054 1055
f 182 1051 814
f 1051 263 1055
f 1055 184 814
f 1051 1055 814
f 264 1056 1057
f 1056 257 1037
f 1037 171 1057
f 1056 1037 1057
f 184 1054 817
f 1054 264 1057
f 1057 171 817
f 1054 1057 817
f 265 1058 1060
f 1058 266 1059
f 1059 250 1060
f 1058 1059 1060
f 249 1061 1010
f 1061 265 1060
f 1060 250 1010
f 1061 1060 1010
f 267 1062 1063
f 1062 265 1061
f 1061 249 1063
f 1062 1061 1063
f 251 1064 1014
f 1064 267 1063
f 1063 249 1014
f 1064 1063 1014
f 268 1065 1066
f 1065 267 1064
f 1064 251 1066
f 1065 1064 1066
f 252 1067 1017
f 1067 268 1066
f 1066 251 1017
f 1067 1066 1017
f 269 1068 1069
f 1068 268 1067
f 1067 252 1069
f 1068 1067 1069
f 253 1070 1020
f 1070 269 1069
f 1069 252 1020
f 1070 1069 1020
f 270 1071 1072
f 1071 269 1070
f 1070 253 1072
f 1071 1070 1072
f 254 1073 1023
f 1073 270 1072
f 1072 253 1023
f 1073 1072 1023
f 271 1074 1075
f 1074 270 1073
f 1073 254 1075
f 1074 1073 1075
f 255 1076 1026
f 1076 271 1075
f 1075 254 1026
f 1076 1075 1026
f 272 1077 1078
f 1077 271 1076
f 1076 255 1078
f 1077 1076 1078
f 256 1079 1029
f 1079 272 1078
f 1078 255 1029
f 1079 1078 1029
f 266 1080 1081
f 1080 272 1079
f 1079 256 1081
f 1080 1079 1081
f 250 1059 1032
f 1059 266 1081
f 1081 256 1032
f 1059 1081 1032
f 273 1082 1084
f 1082 274 1083
f 1083 275 1084
f 1082 1083 1084
f 276 1085 1086
f 1085 273 1084
f 1084 275 1086
f 1085 1084 1086
f 277 1087 1088
f 1087 273 1085
f 1085 276 1088
f 1087 1085 1088
f 278 1089 1090
f 1089 277 1088
f 1088 276 1090
f 1089 1088 1090
f 279 1091 1092
f 1091 277 1089
f 1089 278 1092
f 1091 1089 1092
f 280 1093 1094
f 1093 279 1092
f 1092 278 1094
f 1093 1092 1094
f 281 1095 1096
f 1095 279 1093
f 1093 280 1096
f 1095 1093 1096
f 282 1097 1098
f 1097 281 1096
f 1096 280 1098
f 1097 1096 1098
f 283 1099 1100
f 1099 281 1097
f 1097 282 1100
f 1099 1097 1100
f 284 1101 1102
f 1101 283 1100
f 1100 282 1102
f 1101 1100 1102
f 285 1103 1104
f 1103 283 1101
f 1101 284 1104
f 1103 1101 1104
f 286 1105 1106
f 1105 285 1104
f 1104 284 1106
f 1105 1104 1106
f 287 1107 1108
f 1107 285 1105
f 1105 286 1108
f 1107 1105 1108
f 288 1109 1110
f 1109 287 1108
f 1108 286 1110
f 1109 1108 1110
f 274 1111 1112
f 1111 287 1109
f 1109 288 1112
f 1111 1109 1112
f 275 1083 1113
f 1083 274 1112
f 1112 288 1113
f 1083 1112 1113
f 289 1114 1116
f 1114 290 1115
f 1115 274 1116
f 1114 1115 1116
f 273 1117 1082
f 1117 289 1116
f 1116 274 1082
f 1117 1116 1082
f 291 1118 1119
f 1118 289 1117
f 1117 273 1119
f 1118 1117 1119
f 277 1120 1087
f 1120 291 1119
f 1119 273 1087
f 1120 1119 1087
f 292 1121 1122
f 1121 291 1120
f 1120 277 1122
f 1121 1120 1122
f 279 1123 1091
f 1123 292 1122
f 1122 277 1091
f 1123 1122 1091
f 293 1124 1125
f 1124 292 1123
f 1123 279 1125
f 1124 1123 1125
f 281 1126 1095
f 1126 293 1125
f 1125 279 1095
f 1126 1125 1095
f 294 1127 1128
f 1127 293 1126
f 1126 281 1128
f 1127 1126 1128
f 283 1129 1099
f 1129 294 1128
f 1128 281 1099
f 1129 1128 1099
f 295 1130 1131
f 1130 294 1129
f 1129 283 1131
f 1130 1129 1131
f 285 1132 1103
f 1132 295 1131
f 1131 283 1103
f 1132 1131 1103
f 296 1133 1134
f 1133 295 1132
f 1132 285 1134
f 1133 1132 1134
f 287 1135 1107
f 1135 296 1134
f 1134 285 1107
f 1135 1134 1107
f 290 1136 1137
f 1136 296 1135
f 1135 287 1137
f 1136 1135 1137
f 274 1115 1111
f 1115 290 1137
f 1137 287 1111
f 1115 1137 1111
f 297 1138 1140
f 1138 298 1139
f 1139 290 1140
f 1138 1139 1140
f 289 1141 1114
f 1141 297 1140
f 1140 290 1114
f 1141 1140 1114
f 299 1142 1143
f 1142 297 1141
f 1141 289 1143
f 1142 1141 1143
f 291 1144 1118
f 1144 299 1143
f 1143 289 1118
f 1144 1143 1118
f 300 1145 1146
f 1145 299 1144
f 1144 291 1146
f 1145 1144 1146
f 292 1147 1121
f 1147 300 1146
f 1146 291 1121
f 1147 1146 1121
f 301 1148 1149
f 1148 300 1147
f 1147 292 1149
f 1148 1147 1149
f 293 1150 1124
f 1150 301 1149
f 1149 292 1124
f 1150 1149 1124
f 302 1151 1152
f 1151 301 1150
f 1150 293 1152
f 1151 1150 1152
f 294 1153 1127
f 1153 302 1152
f 1152 293 1127
f 1153 1152 1127
f 303 1154 1155
f 1154 302 1153
f 1153 294 1155
f 1154 1153 1155
f 295 1156 1130
f 1156 303 1155
f 1155 294 1130
f 1156 1155 1130
f 304 1157 1158
f 1157 303 1156
f 1156 295 1158
f 1157 1156 1158
f 296 1159 1133
f 1159 304 1158
f 1158 295 1133
f 1159 1158 1133
f 298 1160 1161
f 1160 304 1159
f 1159 296 1161
f 1160 1159 1161
f 290 1139 1136
f 1139 298 1161
f 1161 296 1136
f 1139 1161 1136
f 305 1162 1164
f 1162 306 1163
f 1163 298 1164
f 1162 1163 1164
f 297 1165 1138
f 1165 305 1164
f 1164 298 1138
f 1165 1164 1138
f 307 1166 1167
f 1166 305 1165
f 1165 297 1167
f 1166 1165 1167
f 299 1168 1142
f 1168 307 1167
f 1167 297 1142
f 1168 1167 1142
f 308 1169 1170
f 1169 307 1168
f 1168 299 1170
f 1169 1168 1170
f 300 1171 1145
f 1171 308 1170
f 1170 299 1145
f 1171 1170 1145
f 309 1172 1173
f 1172 308 1171
f 1171 300 1173
f 1172 1171 1173
f 301 1174 1148
f 1174 309 1173
f 1173 300 1148
f 1174 1173 1148
f 310 1175 1176
f 1175 309 1174
f 1174 301 1176
f 1175 1174 1176
f 302 1177 1151
f 1177 310 1176
f 1176 301 1151
f 1177 1176 1151
f 311 1178 1179
f 1178 310 1177
f 1177 302 1179
f 1178 1177 1179
f 303 1180 1154
f 1180 311 1179
f 1179 302 1154
f 1180 1179 1154
f 312 1181 1182
f 1181 311 1180
f 1180 303 1182
f 1181 1180 1182
f 304 1183 1157
f 1183 312 1182
f 1182 303 1157
f 1183 1182 1157
f 306 1184 1185
f 1184 312 1183
f 1183 304 1185
f 1184 1183 1185
f 298 1163 1160
f 1163 306 1185
f 1185 304 1160
f 1163 1185 1160
f 313 1186 1188
f 1186 314 1187
f 1187 306 1188
f 1186 1187 1188
f 305 1189 1162
f 1189 313 1188
f 1188 306 1162
f 1189 1188 1162
f 315 1190 1191
f 1190 313 1189
f 1189 305 1191
f 1190 1189 1191
f 307 1192 1166
f 1192 315 1191
f 1191 305 1166
f 1192 1191 1166
f 316 1193 1194
f 1193 315 1192
f 1192 307 1194
f 1193 1192 1194
f 308 1195 1169
f 1195 316 1194
f 1194 307 1169
f 1195 1194 1169
f 317 1196 1197
f 1196 316 1195
f 1195 308 1197
f 1196 1195 1197
f 309 1198 1172
f 1198 317 1197
f 1197 308 1172
f 1198 1197 1172
f 318 1199 1200
f 1199 317 1198
f 1198 309 1200
f 1199 1198 1200
f 310 1201 1175
f 1201 318 1200
f 1200 309 1175
f 1201 1200 1175
f 319 1202 1203
f 1202 318 1201
f 1201 310 1203
f 1202 1201 1203
f 311 1204 1178
f 1204 319 1203
f 1203 310 1178
f 1204 1203 1178
f 320 1205 1206
f 1205 319 1204
f 1204 311 1206
f 1205 1204 1206
f 312 1207 1181
f 1207 320 1206
f 1206 311 1181
f 1207 1206 1181
f 314 1208 1209
f 1208 320 1207
f 1207 312 1209
f 1208 1207 1209
f 306 1187 1184
f 1187 314 1209
f 1209 312 1184
f 1187 1209 1184
f 321 1210 1212
f 1210 322 1211
f 1211 314 1212
f 1210 1211 1212
f 313 1213 1186
f 1213 321 1212
f 1212 314 1186
f 1213 1212 1186
f 323 1214 1215
f 1214 321 1213
f 1213 313 1215
f 1214 1213 1215
f 315 1216 1190
f 1216 323 1215
f 1215 313 1190
f 1216 1215 1190
f 324 1217 1218
f 1217 323 1216
f 1216 315 1218
f 1217 1216 1218
f 316 1219 1193
f 1219 324 1218
f 1218 315 1193
f 1219 1218 1193
f 325 1220 1221
f 1220 324 1219
f 1219 316 1221
f 1220 1219 1221
f 317 1222 1196
f 1222 325 1221
f 1221 316 1196
f 1222 1221 1196
f 326 1223 1224
f 1223 325 1222
f 1222 317 1224
f 1223 1222 1224
f 318 1225 1199
f 1225 326 1224
f 1224 317 1199
f 1225 1224 1199
f 327 1226 1227
f 1226 326 1225
f 1225 318 1227
f 1226 1225 1227
f 319 1228 1202
f 1228 327 1227
f 1227 318 1202
f 1228 1227 1202
f 328 1229 1230
f 1229 327 1228
f 1228 319 1230
f 1229 1228 1230
f 320 1231 1205
f 1231 328 1230
f 1230 319 1205
f 1231 1230 1205
f 322 1232 1233
f 1232 328 1231
f 1231 320 1233
f 1232 1231 1233
f 314 1211 1208
f 1211 322 1233
f 1233 320 1208
f 1211 1233 1208
f 329 1234 1236
f 1234 330 1235
f 1235 322 1236
f 1234 1235 1236
f 321 1237 1210
f 1237 329 1236
f 1236 322 1210
f 1237 1236 1210
f 331 1238 1239
f 1238 329 1237
f 1237 321 1239
f 1238 1237 1239
f 323 1240 1214
f 1240 331 1239
f 1239 321 1214
f 1240 1239 1214
f 332 1241 1242
f 1241 331 1240
f 1240 323 1242
f 1241 1240 1242
f 324 1243 1217
f 1243 332 1242
f 1242 323 1217
f 1243 1242 1217
f 333 1244 1245
f 1244 332 1243
f 1243 324 1245
f 1244 1243 1245
f 325 1246 1220
f 1246 333 1245
f 1245 324 1220
f 1246 1245 1220
f 334 1247 1248
f 1247 333 1246
f 1246 325 1248
f 1247 1246 1248
f 326 1249 1223
f 1249 334 1248
f 1248 325 1223
f 1249 1248 1223
f 335 1250 1251
f 1250 334 1249
f 1249 326 1251
f 1250 1249 1251
f 327 1252 1226
f 1252 335 1251
f 1251 326 1226
f 1252 1251 1226
f 336 1253 1254
f 1253 335 1252
f 1252 327 1254
f 1253 1252 1254
f 328 1255 1229
f 1255 336 1254
f 1254 327 1229
f 1255 1254 1229
f 330 1256 1257
f 1256 336 1255
f 1255 328 1257
f 1256 1255 1257
f 322 1235 1232
f 1235 330 1257
f 1257 328 1232
f 1235 1257 1232
f 337 1258 1260
f 1258 338 1259
f 1259 330 1260
f 1258 1259 1260
f 329 1261 1234
f 1261 337 1260
f 1260 330 1234
f 1261 1260 1234
f 339 1262 1263
f 1262 337 1261
f 1261 329 1263
f 1262 1261 1263
f 331 1264 1238
f 1264 339 1263
f 1263 329 1238
f 1264 1263 1238
f 340 1265 1266
f 1265 339 1264
f 1264 331 1266
f 1265 1264 1266
f 332 1267 1241
f 1267 340 1266
f 1266 331 1241
f 1267 1266 1241
f 341 1268 1269
f 1268 340 1267
f 1267 332 1269
f 1268 1267 1269
f 333 1270 1244
f 1270 341 1269
f 1269 332 1244
f 1270 1269 1244
f 342 1271 1272
f 1271 341 1270
f 1270 333 1272
f 1271 1270 1272
f 334 1273 1247
f 1273 342 1272
f 1272 333 1247
f 1273 1272 1247
f 343 1274 1275
f 1274 342 1273
f 1273 334 1275
f 1274 1273 1275
f 335 1276 1250
f 1276 343 1275
f 1275 334 1250
f 1276 1275 1250
f 344 1277 1278
f 1277 343 1276
f 1276 335 1278
f 1277 1276 1278
f 336 1279 1253
f 1279 344 1278
f 1278 335 1253
f 1279 1278 1253
f 338 1280 1281
f 1280 344 1279
f 1279 336 1281
f 1280 1279 1281
f 330 1259 1256
f 1259 338 1281
f 1281 336 1256
f 1259 1281 1256
f 345 1282 1284
f 1282 346 1283
f 1283 338 1284
f 1282 1283 1284
f 337 1285 1258
f 1285 345 1284
f 1284 338 1258
f 1285 1284 1258
f 347 1286 1287
f 1286 345 1285
f 1285 337 1287
f 1286 1285 1287
f 339 1288 1262
f 1288 347 1287
f 1287 337 1262
f 1288 1287 1262
f 348 1289 1290
f 1289 347 1288
f 1288 339 1290
f 1289 1288 1290
f 340 1291 1265
f 1291 348 1290
f 1290 339 1265
f 1291 1290 1265
f 349 1292 1293
f 1292 348 1291
f 1291 340 1293
f 1292 1291 1293
f 341 1294 1268
f 1294 349 1293
f 1293 340 1268
f 1294 1293 1268
f 350 1295 1296
f 1295 349 1294
f 1294 341 1296
f 1295 1294 1296
f 342 1297 1271
f 1297 350 1296
f 1296 341 1271
f 1297 1296 1271
f 351 1298 1299
f 1298 350 1297
f 1297 342 1299
f 1298 1297 1299
f 343 1300 1274
f 1300 351 1299
f 1299 342 1274
f 1300 1299 1274
f 352 1301 1302
f 1301 351 1300
f 1300 343 1302
f 1301 1300 1302
f 344 1303 1277
f 1303 352 1302
f 1302 343 1277
f 1303 1302 1277
f 346 1304 1305
f 1304 352 1303
f 1303 344 1305
f 1304 1303 1305
f 338 1283 1280
f 1283 346 1305
f 1305 344 1280
f 1283 1305 1280
f 353 1306 1308
f 1306 354 1307
f 1307 346 1308
f 1306 1307 1308
f 345 1309 1282
f 1309 353 1308
f 1308 346 1282
f 1309 1308 1282
f 355 1310 1311
f 1310 353 1309
f 1309 345 1311
f 1310 1309 1311
f 347 1312 1286
f 1312 355 1311
f 1311 345 1286
f 1312 1311 1286
f 356 1313 1314
f 1313 355 1312
f 1312 347 1314
f 1313 1312 1314
f 348 1315 1289
f 1315 356 1314
f 1314 347 1289
f 1315 1314 1289
f 357 1316 1317
f 1316 356 1315
f 1315 348 1317
f 1316 1315 1317
f 349 1318 1292
f 1318 357 1317
f 1317 348 1292
f 1318 1317 1292
f 358 1319 1320
f 1319 357 1318
f 1318 349 1320
f 1319 1318 1320
f 350 1321 1295
f 1321 358 1320
f 1320 349 1295
f 1321 1320 1295
f 359 1322 1323
f 1322 358 1321
f 1321 350 1323
f 1322 1321 1323
f 351 1324 1298
f 1324 359 1323
f 1323 350 1298
f 1324 1323 1298
f 360 1325 1326
f 1325 359 1324
f 1324 351 1326
f 1325 1324 1326
f 352 1327 1301
f 1327 360 1326
f 1326 351 1301
f 1327 1326 1301
f 354 1328 1329
f 1328 360 1327
f 1327 352 1329
f 1328 1327 1329
f 346 1307 1304
f 1307 354 1329
f 1329 352 1304
f 1307 1329 1304
f 361 1330 1332
f 1330 362 1331
f 1331 276 1332
f 1330 1331 1332
f 275 1333 1086
f 1333 361 1332
f 1332 276 1086
f 1333 1332 1086
f 362 1334 1336
f 1334 363 1335
f 1335 278 1336
f 1334 1335 1336
f 276 1331 1090
f 1331 362 1336
f 1336 278 1090
f 1331 1336 1090
f 363 1337 1339
f 1337 364 1338
f 1338 280 1339
f 1337 1338 1339
f 278 1335 1094
f 1335 363 1339
f 1339 280 1094
f 1335 1339 1094
f 364 1340 1342
f 1340 365 1341
f 1341 282 1342
f 1340 1341 1342
f 280 1338 1098
f 1338 364 1342
f 1342 282 1098
f 1338 1342 1098
f 365 1343 1345
f 1343 366 1344
f 1344 284 1345
f 1343 1344 1345
f 282 1341 1102
f 1341 365 1345
f 1345 284 1102
f 1341 1345 1102
f 366 1346 1348
f 1346 367 1347
f 1347 286 1348
f 1346 1347 1348
f 284 1344 1106
f 1344 366 1348
f 1348 286 1106
f 1344 1348 1106
f 367 1349 1351
f 1349 368 1350
f 1350 288 1351
f 1349 1350 1351
f 286 1347 1110
f 1347 367 1351
f 1351 288 1110
f 1347 1351 1110
f 368 1352 1353
f 1352 361 1333
f 1333 275 1353
f 1352 1333 1353
f 288 1350 1113
f 1350 368 1353
f 1353 275 1113
f 1350 1353 1113
f 369 1354 1356
f 1354 370 1355
f 1355 354 1356
f 1354 1355 1356
f 353 1357 1306
f 1357 369 1356
f 1356 354 1306
f 1357 1356 1306
f 371 1358 1359
f 1358 369 1357
f 1357 353 1359
f 1358 1357 1359
f 355 1360 1310
f 1360 371 1359
f 1359 353 1310
f 1360 1359 1310
f 372 1361 1362
f 1361 371 1360
f 1360 355 1362
f 1361 1360 1362
f 356 1363 1313
f 1363 372 1362
f 1362 355 1313
f 1363 1362 1313
f 373 1364 1365
f 1364 372 1363
f 1363 356 1365
f 1364 1363 1365
f 357 1366 1316
f 1366 373 1365
f 1365 356 1316
f 1366 1365 1316
f 374 1367 1368
f 1367 373 1366
f 1366 357 1368
f 1367 1366 1368
f 358 1369 1319
f 1369 374 1368
f 1368 357 1319
f 1369 1368 1319
f 375 1370 1371
f 1370 374 1369
f 1369 358 1371
f 1370 1369 1371
f 359 1372 1322
f 1372 375 1371
f 1371 358 1322
f 1372 1371 1322
f 376 1373 1374
f 1373 375 1372
f 1372 359 1374
f 1373 1372 1374
f 360 1375 1325
f 1375 376 1374
f 1374 359 1325
f 1375 1374 1325
f 370 1376 1377
f 1376 376 1375
f 1375 360 1377
f 1376 1375 1377
f 354 1355 1328
f 1355 370 1377
f 1377 360 1328
f 1355 1377 1328
f 377 1378 1380
f 1378 378 1379
f 1379 379 1380
f 1378 1379 1380
f 380 1381 1382
f 1381 377 1380
f 1380 379 1382
f 1381 1380 1382
f 381 1383 1384
f 1383 377 1381
f 1381 380 1384
f 1383 1381 1384
f 382 1385 1386
f 1385 381 1384
f 1384 380 1386
f 1385 1384 1386
f 383 1387 1388
f 1387 381 1385
f 1385 382 1388
f 1387 1385 1388
f 384 1389 1390
f 1389 383 1388
f 1388 382 1390
f 1389 1388 1390
f 385 1391 1392
f 1391 383 1389
f 1389 384 1392
f 1391 1389 1392
f 386 1393 1394
f 1393 385 1392
f 1392 384 1394
f 1393 1392 1394
f 387 1395 1396
f 1395 385 1393
f 1393 386 1396
f 1395 1393 1396
f 388 1397 1398
f 1397 387 1396
f 1396 386 1398
f 1397 1396 1398
f 389 1399 1400
f 1399 387 1397
f 1397 388 1400
f 1399 1397 1400
f 390 1401 1402
f 1401 389 1400
f 1400 388 1402
f 1401 1400 1402
f 391 1403 1404
f 1403 389 1401
f 1401 390 1404
f 1403 1401 1404
f 392 1405 1406
f 1405 391 1404
f 1404 390 1406
f 1405 1404 1406
f 393 1407 1408
f 1407 391 1405
f 1405 392 1408
f 1407 1405 1408
f 394 1409 1410
f 1409 393 1408
f 1408 392 1410
f 1409 1408 1410
f 395 1411 1412
f 1411 393 1409
f 1409 394 1412
f 1411 1409 1412
f 396 1413 1414
f 1413 395 1412
f 1412 394 1414
f 1413 1412 1414
f 397 1415 1416
f 1415 395 1413
f 1413 396 1416
f 1415 1413 1416
f 398 1417 1418
f 1417 397 1416
f 1416 396 1418
f 1417 1416 1418
f 399 1419 1420
f 1419 397 1417
f 1417 398 1420
f 1419 1417 1420
f 400 1421 1422
f 1421 399 1420
f 1420 398 1422
f 1421 1420 1422
f 401 1423 1424
f 1423 399 1421
f 1421 400 1424
f 1423 1421 1424
f 402 1425 1426
f 1425 401 1424
f 1424 400 1426
f 1425 1424 1426
f 403 1427 1428
f 1427 401 1425
f 1425 402 1428
f 1427 1425 1428
f 404 1429 1430
f 1429 403 1428
f 1428 402 1430
f 1429 1428 1430
f 405 1431 1432
f 1431 403 1429
f 1429 404 1432
f 1431 1429 1432
f 406 1433 1434
f 1433 405 1432
f 1432 404 1434
f 1433 1432 1434
f 407 1435 1436
f 1435 405 1433
f 1433 406 1436
f 1435 1433 1436
f 408 1437 1438
f 1437 407 1436
f 1436 406 1438
f 1437 1436 1438
f 378 1439 1440
f 1439 407 1437
f 1437 408 1440
f 1439 1437 1440
f 379 1379 1441
f 1379 378 1440
f 1440 408 1441
f 1379 1440 1441
f 380 1382 1443
f 1382 379 1442
f 1442 409 1443
f 1382 1442 1443
f 382 1386 1444
f 1386 380 1443
f 1443 409 1444
f 1386 1443 1444
f 384 1390 1445
f 1390 382 1444
f 1444 409 1445
f 1390 1444 1445
f 386 1394 1446
f 1394 384 1445
f 1445 409 1446
f 1394 1445 1446
f 388 1398 1447
f 1398 386 1446
f 1446 409 1447
f 1398 1446 1447
f 390 1402 1448
f 1402 388 1447
f 1447 409 1448
f 1402 1447 1448
f 392 1406 1449
f 1406 390 1448
f 1448 409 1449
f 1406 1448 1449
f 394 1410 1450
f 1410 392 1449
f 1449 409 1450
f 1410 1449 1450
f 396 1414 1451
f 1414 394 1450
f 1450 409 1451
f 1414 1450 1451
f 398 1418 1452
f 1418 396 1451
f 1451 409 1452
f 1418 1451 1452
f 400 1422 1453
f 1422 398 1452
f 1452 409 1453
f 1422 1452 1453
f 402 1426 1454
f 1426 400 1453
f 1453 409 1454
f 1426 1453 1454
f 404 1430 1455
f 1430 402 1454
f 1454 409 1455
f 1430 1454 1455
f 406 1434 1456
f 1434 404 1455
f 1455 409 1456
f 1434 1455 1456
f 408 1438 1457
f 1438 406 1456
f 1456 409 1457
f 1438 1456 1457
f 379 1441 1442
f 1441 408 1457
f 1457 409 1442
f 1441 1457 1442
f 410 1458 1460
f 1458 411 1459
f 1459 412 1460
f 1458 1459 1460
f 413 1461 1462
f 1461 410 1460
f 1460 412 1462
f 1461 1460 1462
f 414 1463 1465
f 1463 415 1464
f 1464 416 1465
f 1463 1464 1465
f 417 1466 1467
f 1466 414 1465
f 1465 416 1467
f 1466 1465 1467
f 415 1468 1469
f 1468 410 1461
f 1461 413 1469
f 1468 1461 1469
f 416 1464 1470
f 1464 415 1469
f 1469 413 1470
f 1464 1469 1470
f 413 1462 1472
f 1462 412 1471
f 1471 417 1472
f 1462 1471 1472
f 416 1470 1467
f 1470 413 1472
f 1472 417 1467
f 1470 1472 1467
f 411 1473 1474
f 1473 414 1466
f 1466 417 1474
f 1473 1466 1474
f 412 1459 1471
f 1459 411 1474
f 1474 417 1471
f 1459 1474 1471
f 415 1463 1475
f 1463 414 1473
f 1473 411 1475
f 1463 1473 1475
f 410 1468 1458
f 1468 415 1475
f 1475 411 1458
f 1468 1475 1458
f 418 1476 1478
f 1476 419 1477
f 1477 420 1478
f 1476 1477 1478
f 421 1479 1480
f 1479 418 1478
f 1478 420 1480
f 1479 1478 1480
f 422 1481 1483
f 1481 423 1482
f 1482 424 1483
f 1481 1482 1483
f 425 1484 1485
f 1484 422 1483
f 1483 424 1485
f 1484 1483 1485
f 423 1486 1487
f 1486 418 1479
f 1479 421 1487
f 1486 1479 1487
f 424 1482 1488
f 1482 423 1487
f 1487 421 1488
f 1482 1487 1488
f 419 1489 1490
f 1489 422 1484
f 1484 425 1490
f 1489 1484 1490
f 420 1477 1491
f 1477 419 1490
f 1490 425 1491
f 1477 1490 1491
f 426 1492 1494
f 1492 427 1493
f 1493 428 1494
f 1492 1493 1494
f 429 1495 1496
f 1495 426 1494
f 1494 428 1496
f 1495 1494 1496
f 430 1497 1499
f 1497 431 1498
f 1498 432 1499
f 1497 1498 1499
f 433 1500 1501
f 1500 430 1499
f 1499 432 1501
f 1500 1499 1501
f 431 1502 1503
f 1502 426 1495
f 1495 429 1503
f 1502 1495 1503
f 432 1498 1504
f 1498 431 1503
f 1503 429 1504
f 1498 1503 1504
f 427 1505 1506
f 1505 430 1500
f 1500 433 1506
f 1505 1500 1506
f 428 1493 1507
f 1493 427 1506
f 1506 433 1507
f 1493 1506 1507
f 434 1508 1510
f 1508 435 1509
f 1509 436 1510
f 1508 1509 1510
f 437 1511 1512
f 1511 434 1510
f 1510 436 1512
f 1511 1510 1512
f 438 1513 1515
f 1513 439 1514
f 1514 440 1515
f 1513 1514 1515
f 441 1516 1517
f 1516 438 1515
f 1515 440 1517
f 1516 1515 1517
f 439 1518 1519
f 1518 434 1511
f 1511 437 1519
f 1518 1511 1519
f 440 1514 1520
f 1514 439 1519
f 1519 437 1520
f 1514 1519 1520
f 435 1521 1522
f 1521 438 1516
f 1516 441 1522
f 1521 1516 1522
f 436 1509 1523
f 1509 435 1522
f 1522 441 1523
f 1509 1522 1523
f 442 1524 1526
f 1524 443 1525
f 1525 444 1526
f 1524 1525 1526
f 445 1527 1528
f 1527 442 1526
f 1526 444 1528
f 1527 1526 1528
f 446 1529 1531
f 1529 447 1530
f 1530 448 1531
f 1529 1530 1531
f 449 1532 1533
f 1532 446 1531
f 1531 448 1533
f 1532 1531 1533
f 447 1534 1535
f 1534 442 1527
f 1527 445 1535
f 1534 1527 1535
f 448 1530 1536
f 1530 447 1535
f 1535 445 1536
f 1530 1535 1536
f 443 1537 1538
f 1537 446 1532
f 1532 449 1538
f 1537 1532 1538
f 444 1525 1539
f 1525 443 1538
f 1538 449 1539
f 1525 1538 1539
