# Original shape: D00445.obj
# No processing applied - exact copy of source file
# Generated on 2025-10-13 16:13:16

v 0.039803 0.347400 -0.070391
v -0.027723 0.347367 -0.089767
v 0.056684 -0.245081 -0.128223
v -0.010842 -0.245113 -0.147600
v -0.003502 -0.242407 -0.173186
v -0.020382 0.350074 -0.115353
v 0.064024 -0.242374 -0.153809
v 0.047143 0.350106 -0.095977
v 0.501122 0.243718 0.041339
v 0.031511 0.243492 -0.093418
v 0.511667 -0.126384 0.005214
v 0.042056 -0.126610 -0.129543
v 0.044503 -0.125708 -0.138072
v 0.033958 0.244394 -0.101946
v 0.514114 -0.125482 -0.003315
v 0.503569 0.244620 0.032811
v 0.451155 0.190410 0.030323
v 0.075160 0.190228 -0.077571
v 0.458804 -0.078033 0.004120
v 0.082808 -0.078215 -0.103774
v 0.090149 -0.075508 -0.129360
v 0.082501 0.192935 -0.103157
v 0.466145 -0.075327 -0.021466
v 0.458496 0.193116 0.004737
v 0.507372 -0.119377 0.014379
v 0.039296 -0.119602 -0.119937
v 0.508730 -0.167029 0.009728
v 0.040654 -0.167255 -0.124589
v 0.047995 -0.164548 -0.150175
v 0.046637 -0.116896 -0.145523
v 0.516071 -0.164323 -0.015858
v 0.514713 -0.116670 -0.011207
v 0.495919 0.282623 0.053618
v 0.027843 0.282397 -0.080698
v 0.497276 0.234970 0.048967
v 0.029200 0.234744 -0.085349
v 0.036541 0.237451 -0.110936
v 0.035183 0.285104 -0.106284
v 0.504617 0.237677 0.023381
v 0.503260 0.285329 0.028032
v -0.976247 -0.269961 0.055631
v -0.974225 -0.340944 0.048703
v -0.999016 -0.277173 0.122863
v -0.996993 -0.348155 0.115935
v -0.304220 -0.351284 0.350209
v -0.281452 -0.344073 0.282977
v -0.306243 -0.280302 0.357138
v -0.283474 -0.273091 0.289906
v -0.994254 0.362027 0.117320
v -0.992231 0.291044 0.110391
v -1.017020 0.354815 0.184552
v -1.015000 0.283833 0.177623
v -0.322227 0.280704 0.411898
v -0.299459 0.287915 0.344666
v -0.324249 0.351686 0.418826
v -0.301481 0.358897 0.351594
v -0.144119 -0.244861 -0.174223
v -0.200832 -0.244605 -0.193402
v -0.301433 -0.294686 0.290304
v -0.358146 -0.294430 0.271125
v -0.357388 -0.321048 0.268527
v -0.200074 -0.271223 -0.196000
v -0.300674 -0.321304 0.287706
v -0.143360 -0.271480 -0.176822
v -0.162049 0.384452 -0.112796
v -0.218763 0.384708 -0.131975
v -0.319363 0.334627 0.351732
v -0.376077 0.334883 0.332553
v -0.375318 0.308264 0.329955
v -0.218004 0.358089 -0.134573
v -0.318605 0.308008 0.349133
v -0.161291 0.357833 -0.115394
v -0.499959 0.385978 -0.227067
v -0.556672 0.386234 -0.246245
v -0.657273 0.336153 0.237461
v -0.713986 0.336409 0.218282
v -0.713228 0.309791 0.215684
v -0.555914 0.359616 -0.248844
v -0.656514 0.309535 0.234863
v -0.499200 0.359359 -0.229665
v -0.482028 -0.243335 -0.288494
v -0.538742 -0.243079 -0.307673
v -0.639342 -0.293160 0.176034
v -0.696056 -0.292904 0.156855
v -0.695298 -0.319522 0.154257
v -0.537984 -0.269697 -0.310271
v -0.638584 -0.319778 0.173435
v -0.481270 -0.269953 -0.291092
v -0.709626 -0.279897 0.169125
v -0.766340 -0.279641 0.149946
v -0.725975 0.293915 0.225135
v -0.782689 0.294171 0.205956
v -0.791227 0.291467 0.231168
v -0.774878 -0.282346 0.175158
v -0.734514 0.291210 0.250347
v -0.718165 -0.282602 0.194337
v -0.534895 -0.224556 -0.346835
v -0.591608 -0.224300 -0.366014
v -0.551244 0.349256 -0.290825
v -0.607957 0.349512 -0.310004
v -0.616496 0.346808 -0.284792
v -0.600147 -0.227004 -0.340802
v -0.559782 0.346552 -0.265613
v -0.543433 -0.227260 -0.321623
v -0.152750 -0.298802 -0.080733
v -0.172533 0.395556 -0.012956
v -0.197122 -0.312856 0.050294
v -0.216906 0.381502 0.118071
v -0.173613 0.399369 -0.012913
v -0.172988 0.399052 -0.014766
v -0.172501 0.397800 -0.016223
v -0.172283 0.395947 -0.016892
v -0.152500 -0.298411 -0.084668
v -0.152609 -0.300367 -0.084371
v -0.153017 -0.301902 -0.083187
v -0.153613 -0.302606 -0.081433
v -0.197985 -0.316660 0.049594
v -0.198611 -0.316343 0.051447
v -0.199098 -0.315091 0.052904
v -0.199316 -0.313238 0.053573
v -0.219099 0.381120 0.121349
v -0.218990 0.383076 0.121052
v -0.218582 0.384611 0.119868
v -0.217986 0.385315 0.118114
v -0.176347 0.402169 -0.013538
v -0.175264 0.401620 -0.016749
v -0.174421 0.399451 -0.019271
v -0.174044 0.396243 -0.020430
v -0.154260 -0.298116 -0.088206
v -0.154450 -0.301503 -0.087691
v -0.155155 -0.304163 -0.085640
v -0.156188 -0.305382 -0.082603
v -0.200561 -0.319436 0.048424
v -0.201644 -0.318887 0.051634
v -0.202487 -0.316718 0.054157
v -0.202864 -0.313510 0.055316
v -0.222648 0.380849 0.123092
v -0.222458 0.384236 0.122577
v -0.221753 0.386896 0.120526
v -0.220720 0.388115 0.117488
v -0.180003 0.403205 -0.014665
v -0.178752 0.402572 -0.018372
v -0.177778 0.400067 -0.021284
v -0.177342 0.396363 -0.022623
v -0.157559 -0.297996 -0.090399
v -0.157778 -0.301908 -0.089804
v -0.158592 -0.304979 -0.087436
v -0.159785 -0.306386 -0.083928
v -0.204158 -0.320440 0.047098
v -0.205408 -0.319806 0.050805
v -0.206382 -0.317302 0.053718
v -0.206818 -0.313597 0.055056
v -0.226601 0.380761 0.122832
v -0.226383 0.384673 0.122238
v -0.225568 0.387744 0.119869
v -0.224375 0.389152 0.116362
v -0.185667 0.403231 -0.016581
v -0.184416 0.402597 -0.020287
v -0.183443 0.400093 -0.023200
v -0.183007 0.396388 -0.024538
v -0.163223 -0.297970 -0.092315
v -0.163442 -0.301882 -0.091720
v -0.164257 -0.304953 -0.089351
v -0.165449 -0.306360 -0.085844
v -0.209822 -0.320414 0.045183
v -0.211073 -0.319781 0.048890
v -0.212046 -0.317276 0.051802
v -0.212482 -0.313571 0.053141
v -0.232266 0.380787 0.120917
v -0.232047 0.384699 0.120322
v -0.231232 0.387770 0.117954
v -0.230040 0.389177 0.114446
v -0.189264 0.402227 -0.017906
v -0.188181 0.401678 -0.021117
v -0.187338 0.399509 -0.023639
v -0.186960 0.396301 -0.024798
v -0.167177 -0.298057 -0.092574
v -0.167366 -0.301445 -0.092059
v -0.168072 -0.304105 -0.090008
v -0.169104 -0.305323 -0.086971
v -0.213477 -0.319377 0.044056
v -0.214560 -0.318829 0.047266
v -0.215403 -0.316660 0.049789
v -0.215781 -0.313451 0.050948
v -0.235564 0.380907 0.118724
v -0.235375 0.384295 0.118209
v -0.234669 0.386954 0.116158
v -0.233637 0.388173 0.113120
v -0.191839 0.399451 -0.019076
v -0.191214 0.399134 -0.020930
v -0.190727 0.397882 -0.022386
v -0.190509 0.396030 -0.023055
v -0.170725 -0.298329 -0.090831
v -0.170835 -0.300284 -0.090534
v -0.171242 -0.301820 -0.089350
v -0.171838 -0.302524 -0.087596
v -0.216211 -0.316578 0.043431
v -0.216836 -0.316261 0.045284
v -0.217323 -0.315008 0.046740
v -0.217541 -0.313156 0.047410
v -0.237325 0.381202 0.115186
v -0.237215 0.383158 0.114889
v -0.236808 0.384694 0.113704
v -0.236212 0.385397 0.111951
v -0.192702 0.395647 -0.019777
v -0.172919 -0.298711 -0.087553
v -0.217291 -0.312765 0.043474
v -0.237075 0.381593 0.111250
v -0.203141 -0.314762 0.068065
v -0.222924 0.379596 0.135842
v -0.247513 -0.328816 0.199092
v -0.267297 0.365542 0.266869
v -0.224004 0.383409 0.135885
v -0.223379 0.383092 0.134032
v -0.222892 0.381840 0.132575
v -0.222674 0.379987 0.131906
v -0.202891 -0.314371 0.064130
v -0.203000 -0.316327 0.064427
v -0.203407 -0.317862 0.065611
v -0.204004 -0.318566 0.067365
v -0.248376 -0.332620 0.198392
v -0.249002 -0.332303 0.200245
v -0.249489 -0.331051 0.201702
v -0.249706 -0.329198 0.202371
v -0.269490 0.365160 0.270147
v -0.269381 0.367116 0.269850
v -0.268973 0.368651 0.268666
v -0.268377 0.369355 0.266912
v -0.226738 0.386209 0.135259
v -0.225655 0.385660 0.132049
v -0.224812 0.383491 0.129527
v -0.224435 0.380283 0.128368
v -0.204651 -0.314076 0.060591
v -0.204840 -0.317463 0.061106
v -0.205546 -0.320123 0.063158
v -0.206579 -0.321342 0.066195
v -0.250951 -0.335396 0.197222
v -0.252035 -0.334847 0.200432
v -0.252878 -0.332678 0.202955
v -0.253255 -0.329470 0.204114
v -0.273039 0.364889 0.271890
v -0.272849 0.368276 0.271375
v -0.272144 0.370936 0.269324
v -0.271111 0.372155 0.266286
v -0.230393 0.387245 0.134133
v -0.229143 0.386612 0.130426
v -0.228169 0.384107 0.127513
v -0.227733 0.380403 0.126175
v -0.207950 -0.313956 0.058399
v -0.208169 -0.317867 0.058993
v -0.208983 -0.320938 0.061362
v -0.210176 -0.322346 0.064869
v -0.254549 -0.336400 0.195896
v -0.255799 -0.335766 0.199603
v -0.256773 -0.333262 0.202516
v -0.257209 -0.329557 0.203854
v -0.276992 0.364801 0.271630
v -0.276773 0.368713 0.271035
v -0.275959 0.371784 0.268667
v -0.274766 0.373192 0.265160
v -0.236058 0.387271 0.132217
v -0.234807 0.386637 0.128511
v -0.233833 0.384133 0.125598
v -0.233398 0.380428 0.124260
v -0.213614 -0.313930 0.056483
v -0.213833 -0.317842 0.057078
v -0.214648 -0.320913 0.059446
v -0.215840 -0.322320 0.062954
v -0.260213 -0.336374 0.193981
v -0.261463 -0.335741 0.197687
v -0.262437 -0.333236 0.200600
v -0.262873 -0.329531 0.201938
v -0.282657 0.364827 0.269715
v -0.282438 0.368739 0.269120
v -0.281623 0.371810 0.266752
v -0.280430 0.373217 0.263244
v -0.239655 0.386267 0.130891
v -0.238572 0.385718 0.127681
v -0.237729 0.383549 0.125159
v -0.237351 0.380341 0.124000
v -0.217568 -0.314017 0.056223
v -0.217757 -0.317405 0.056739
v -0.218463 -0.320065 0.058790
v -0.219495 -0.321283 0.061827
v -0.263868 -0.335337 0.192854
v -0.264951 -0.334789 0.196064
v -0.265794 -0.332620 0.198587
v -0.266172 -0.329411 0.199746
v -0.285955 0.364947 0.267522
v -0.285766 0.368335 0.267007
v -0.285060 0.370994 0.264956
v -0.284028 0.372213 0.261918
v -0.242230 0.383491 0.129722
v -0.241605 0.383174 0.127868
v -0.241118 0.381922 0.126412
v -0.240900 0.380070 0.125743
v -0.221116 -0.314288 0.057966
v -0.221226 -0.316244 0.058264
v -0.221633 -0.317780 0.059448
v -0.222229 -0.318484 0.061202
v -0.266602 -0.332537 0.192229
v -0.267227 -0.332221 0.194082
v -0.267714 -0.330968 0.195538
v -0.267932 -0.329116 0.196207
v -0.287716 0.365242 0.263984
v -0.287606 0.367198 0.263686
v -0.287199 0.368734 0.262502
v -0.286603 0.369437 0.260748
v -0.243093 0.379687 0.129021
v -0.223309 -0.314671 0.061245
v -0.267682 -0.328725 0.192272
v -0.287466 0.365633 0.260048
v -0.254114 -0.330907 0.218583
v -0.273898 0.363452 0.286360
v -0.298487 -0.344960 0.349610
v -0.318270 0.349398 0.417387
v -0.274978 0.367264 0.286403
v -0.274353 0.366948 0.284550
v -0.273866 0.365695 0.283093
v -0.273648 0.363843 0.282424
v -0.253864 -0.330515 0.214648
v -0.253974 -0.332471 0.214945
v -0.254381 -0.334007 0.216129
v -0.254977 -0.334710 0.217883
v -0.299350 -0.348764 0.348910
v -0.299975 -0.348447 0.350763
v -0.300462 -0.347195 0.352220
v -0.300680 -0.345343 0.352889
v -0.320464 0.349015 0.420665
v -0.320354 0.350971 0.420368
v -0.319947 0.352507 0.419184
v -0.319351 0.353211 0.417430
v -0.277712 0.370064 0.285778
v -0.276629 0.369516 0.282568
v -0.275785 0.367346 0.280045
v -0.275408 0.364138 0.278886
v -0.255624 -0.330220 0.211110
v -0.255814 -0.333608 0.211625
v -0.256520 -0.336267 0.213676
v -0.257552 -0.337486 0.216713
v -0.301925 -0.351540 0.347740
v -0.303008 -0.350991 0.350950
v -0.303851 -0.348822 0.353473
v -0.304229 -0.345614 0.354632
v -0.324012 0.348744 0.422408
v -0.323823 0.352132 0.421893
v -0.323117 0.354792 0.419842
v -0.322085 0.356010 0.416805
v -0.281367 0.371101 0.284651
v -0.280116 0.370467 0.280944
v -0.279143 0.367963 0.278032
v -0.278707 0.364258 0.276693
v -0.258923 -0.330100 0.208917
v -0.259142 -0.334012 0.209512
v -0.259957 -0.337083 0.211880
v -0.261149 -0.338490 0.215388
v -0.305522 -0.352544 0.346414
v -0.306773 -0.351911 0.350121
v -0.307746 -0.349406 0.353034
v -0.308182 -0.345701 0.354372
v -0.327966 0.348657 0.422149
v -0.327747 0.352569 0.421554
v -0.326932 0.355640 0.419185
v -0.325740 0.357047 0.415678
v -0.287031 0.371127 0.282735
v -0.285781 0.370493 0.279029
v -0.284807 0.367988 0.276116
v -0.284371 0.364284 0.274778
v -0.264588 -0.330074 0.207001
v -0.264806 -0.333986 0.207596
v -0.265621 -0.337057 0.209965
v -0.266814 -0.338465 0.213472
v -0.311186 -0.352519 0.344499
v -0.312437 -0.351885 0.348206
v -0.313411 -0.349380 0.351118
v -0.313846 -0.345676 0.352457
v -0.333630 0.348682 0.420233
v -0.333411 0.352594 0.419638
v -0.332596 0.355665 0.417270
v -0.331404 0.357073 0.413762
v -0.290628 0.370123 0.281410
v -0.289545 0.369574 0.278200
v -0.288702 0.367405 0.275677
v -0.288325 0.364197 0.274518
v -0.268541 -0.330162 0.206742
v -0.268731 -0.333549 0.207257
v -0.269436 -0.336209 0.209308
v -0.270469 -0.337428 0.212345
v -0.314842 -0.351482 0.343372
v -0.315925 -0.350933 0.346582
v -0.316768 -0.348764 0.349105
v -0.317145 -0.345556 0.350264
v -0.336929 0.348802 0.418040
v -0.336739 0.352190 0.417525
v -0.336034 0.354850 0.415474
v -0.335001 0.356069 0.412437
v -0.293203 0.367347 0.280240
v -0.292578 0.367030 0.278386
v -0.292091 0.365778 0.276930
v -0.291873 0.363925 0.276261
v -0.272090 -0.330433 0.208485
v -0.272199 -0.332389 0.208782
v -0.272607 -0.333924 0.209966
v -0.273203 -0.334628 0.211720
v -0.317576 -0.348682 0.342747
v -0.318201 -0.348365 0.344600
v -0.318688 -0.347113 0.346056
v -0.318906 -0.345261 0.346726
v -0.338689 0.349098 0.414502
v -0.338580 0.351054 0.414205
v -0.338172 0.352589 0.413020
v -0.337576 0.353293 0.411267
v -0.294067 0.363543 0.279540
v -0.274283 -0.330815 0.211763
v -0.318656 -0.344869 0.342790
v -0.338439 0.349489 0.410566
v -0.102411 -0.282859 -0.229375
v -0.122195 0.411499 -0.161598
v -0.146784 -0.296913 -0.098348
v -0.166568 0.397445 -0.030571
v -0.123275 0.415312 -0.161555
v -0.122650 0.414995 -0.163408
v -0.122163 0.413743 -0.164865
v -0.121945 0.411891 -0.165534
v -0.102161 -0.282468 -0.233310
v -0.102271 -0.284424 -0.233013
v -0.102678 -0.285959 -0.231829
v -0.103275 -0.286663 -0.230075
v -0.147647 -0.300717 -0.099048
v -0.148273 -0.300400 -0.097195
v -0.148759 -0.299148 -0.095738
v -0.148977 -0.297295 -0.095069
v -0.168761 0.397063 -0.027293
v -0.168652 0.399019 -0.027590
v -0.168244 0.400554 -0.028775
v -0.167648 0.401258 -0.030528
v -0.126009 0.418112 -0.162181
v -0.124926 0.417563 -0.165391
v -0.124083 0.415394 -0.167913
v -0.123705 0.412186 -0.169072
v -0.103922 -0.282172 -0.236849
v -0.104111 -0.285560 -0.236334
v -0.104817 -0.288220 -0.234282
v -0.105850 -0.289439 -0.231245
v -0.150222 -0.303492 -0.100218
v -0.151305 -0.302944 -0.097008
v -0.152149 -0.300775 -0.094485
v -0.152526 -0.297566 -0.093326
v -0.172310 0.396792 -0.025550
v -0.172120 0.400180 -0.026065
v -0.171415 0.402839 -0.028116
v -0.170382 0.404058 -0.031154
v -0.129664 0.419149 -0.163307
v -0.128414 0.418515 -0.167014
v -0.127440 0.416010 -0.169927
v -0.127004 0.412306 -0.171265
v -0.107221 -0.282052 -0.239041
v -0.107439 -0.285964 -0.238447
v -0.108254 -0.289035 -0.236078
v -0.109447 -0.290443 -0.232571
v -0.153819 -0.304496 -0.101544
v -0.155070 -0.303863 -0.097837
v -0.156044 -0.301358 -0.094924
v -0.156480 -0.297654 -0.093586
v -0.176263 0.396704 -0.025810
v -0.176044 0.400616 -0.026405
v -0.175230 0.403687 -0.028773
v -0.174037 0.405095 -0.032280
v -0.135329 0.419174 -0.165223
v -0.134078 0.418541 -0.168930
v -0.133104 0.416036 -0.171842
v -0.132669 0.412331 -0.173180
v -0.112885 -0.282027 -0.240957
v -0.113104 -0.285939 -0.240362
v -0.113919 -0.289010 -0.237994
v -0.115111 -0.290417 -0.234486
v -0.159484 -0.304471 -0.103459
v -0.160734 -0.303837 -0.099753
v -0.161708 -0.301333 -0.096840
v -0.162144 -0.297628 -0.095502
v -0.181927 0.396730 -0.027725
v -0.181709 0.400642 -0.028320
v -0.180894 0.403713 -0.030688
v -0.179701 0.405120 -0.034196
v -0.138926 0.418170 -0.166549
v -0.137843 0.417621 -0.169759
v -0.136999 0.415452 -0.172281
v -0.136622 0.412244 -0.173440
v -0.116838 -0.282114 -0.241217
v -0.117028 -0.285502 -0.240702
v -0.117733 -0.288161 -0.238650
v -0.118766 -0.289380 -0.235613
v -0.163139 -0.303434 -0.104586
v -0.164222 -0.302885 -0.101376
v -0.165065 -0.300716 -0.098853
v -0.165443 -0.297508 -0.097694
v -0.185226 0.396850 -0.029918
v -0.185037 0.400238 -0.030433
v -0.184331 0.402898 -0.032484
v -0.183298 0.404116 -0.035522
v -0.141501 0.415394 -0.167718
v -0.140875 0.415078 -0.169572
v -0.140389 0.413825 -0.171028
v -0.140171 0.411973 -0.171697
v -0.120387 -0.282385 -0.239474
v -0.120497 -0.284341 -0.239176
v -0.120904 -0.285877 -0.237992
v -0.121500 -0.286580 -0.236238
v -0.165873 -0.300634 -0.105211
v -0.166498 -0.300317 -0.103358
v -0.166985 -0.299065 -0.101902
v -0.167203 -0.297213 -0.101233
v -0.186987 0.397145 -0.033456
v -0.186877 0.399101 -0.033754
v -0.186470 0.400637 -0.034938
v -0.185873 0.401340 -0.036692
v -0.142364 0.411590 -0.168419
v -0.122580 -0.282768 -0.236195
v -0.166953 -0.296822 -0.105168
v -0.186737 0.397537 -0.037392
v -0.798645 -0.214030 -0.461775
v -0.111350 -0.217134 -0.229353
v -0.796623 -0.285012 -0.468704
v -0.109328 -0.288116 -0.236282
v -0.821434 -0.221247 -0.394484
v -0.819411 -0.292230 -0.401412
v -0.136845 -0.224340 -0.162977
v -0.134822 -0.295322 -0.169906
v 0.513084 -0.224502 0.028396
v 0.515106 -0.295484 0.021468
v 0.671877 -0.223755 0.067096
v 0.673899 -0.294737 0.060167
v 0.676135 -0.224536 0.076343
v 0.678157 -0.295519 0.069415
v 0.680838 -0.225288 0.085421
v 0.682860 -0.296271 0.078492
v 0.686429 -0.225982 0.094157
v 0.688452 -0.296964 0.087228
v 0.693355 -0.226587 0.102382
v 0.695377 -0.297570 0.095453
v 0.702059 -0.227076 0.109924
v 0.704081 -0.298058 0.102996
v 0.712985 -0.227417 0.116614
v 0.715007 -0.298400 0.109685
v 0.726579 -0.227583 0.122281
v 0.728601 -0.298565 0.115352
v 0.741004 -0.227525 0.125896
v 0.743026 -0.298507 0.118967
v 0.754104 -0.227238 0.126774
v 0.756127 -0.298220 0.119846
v 0.765849 -0.226755 0.125262
v 0.767871 -0.297737 0.118333
v 0.776204 -0.226113 0.121703
v 0.778227 -0.297095 0.114774
v 0.785138 -0.225345 0.116442
v 0.787160 -0.296327 0.109513
v 0.792616 -0.224486 0.109823
v 0.794639 -0.295468 0.102895
v 0.798608 -0.223570 0.102193
v 0.800630 -0.294552 0.095264
v 0.803164 -0.222646 0.094057
v 0.805186 -0.293628 0.087129
v 0.806123 -0.221758 0.085824
v 0.808145 -0.292740 0.078895
v 0.807131 -0.220935 0.077686
v 0.809153 -0.291917 0.070758
v 0.805835 -0.220206 0.069838
v 0.807858 -0.291188 0.062909
v 0.801883 -0.219600 0.062471
v 0.803905 -0.290582 0.055543
v 0.794921 -0.219145 0.055781
v 0.796943 -0.290127 0.048853
v 0.784596 -0.218871 0.049961
v 0.786618 -0.289853 0.043032
v 0.771771 -0.218713 0.044601
v 0.773793 -0.289695 0.037672
v 0.757682 -0.218585 0.039171
v 0.759705 -0.289567 0.032242
v 0.742542 -0.218480 0.033683
v 0.744564 -0.289462 0.026754
v 0.726560 -0.218395 0.028147
v 0.728582 -0.289378 0.021219
v 0.709946 -0.218325 0.022577
v 0.711969 -0.289307 0.015649
v 0.692912 -0.218264 0.016984
v 0.694934 -0.289247 0.010055
v 0.675667 -0.218209 0.011379
v 0.677689 -0.289191 0.004450
v -0.816664 0.418373 -0.400046
v -0.129369 0.415268 -0.167624
v -0.814641 0.347390 -0.406975
v -0.127346 0.344286 -0.174553
v -0.839452 0.411155 -0.332755
v -0.837430 0.340173 -0.339684
v -0.154863 0.408063 -0.101248
v -0.152840 0.337081 -0.108177
v 0.495065 0.407901 0.090125
v 0.497088 0.336918 0.083197
v 0.653859 0.408647 0.128825
v 0.655881 0.337665 0.121896
v 0.658117 0.407866 0.138072
v 0.660139 0.336884 0.131144
v 0.662819 0.407114 0.147150
v 0.664842 0.336132 0.140221
v 0.668411 0.406421 0.155886
v 0.670433 0.335438 0.148957
v 0.675337 0.405815 0.164111
v 0.677359 0.334833 0.157182
v 0.684040 0.405327 0.171653
v 0.686063 0.334345 0.164725
v 0.694967 0.404985 0.178343
v 0.696989 0.334003 0.171414
v 0.708560 0.404819 0.184010
v 0.710583 0.333837 0.177081
v 0.722985 0.404877 0.187625
v 0.725007 0.333895 0.180696
v 0.736086 0.405165 0.188503
v 0.738108 0.334183 0.181575
v 0.747830 0.405647 0.186991
v 0.749853 0.334665 0.180062
v 0.758186 0.406290 0.183432
v 0.760208 0.335307 0.176503
v 0.767119 0.407058 0.178171
v 0.769142 0.336075 0.171242
v 0.774598 0.407917 0.171552
v 0.776620 0.336935 0.164624
v 0.780590 0.408832 0.163922
v 0.782612 0.337850 0.156993
v 0.785146 0.409756 0.155786
v 0.787168 0.338774 0.148858
v 0.788104 0.410644 0.147553
v 0.790127 0.339662 0.140624
v 0.789112 0.411467 0.139415
v 0.791135 0.340485 0.132487
v 0.787817 0.412196 0.131567
v 0.789839 0.341214 0.124638
v 0.783865 0.412803 0.124200
v 0.785887 0.341821 0.117272
v 0.776903 0.413258 0.117510
v 0.778925 0.342275 0.110582
v 0.766578 0.413531 0.111690
v 0.768600 0.342549 0.104761
v 0.753752 0.413689 0.106330
v 0.755775 0.342707 0.099401
v 0.739664 0.413818 0.100900
v 0.741686 0.342836 0.093971
v 0.724524 0.413922 0.095412
v 0.726546 0.342940 0.088483
v 0.708541 0.414007 0.089876
v 0.710564 0.343025 0.082948
v 0.691928 0.414077 0.084306
v 0.693950 0.343095 0.077378
v 0.674893 0.414138 0.078713
v 0.676916 0.343156 0.071784
v 0.657648 0.414194 0.073108
v 0.659671 0.343212 0.066179
v 0.504402 -0.230569 0.001764
v 0.488019 0.344439 0.057891
v 0.511742 -0.227862 -0.023822
v 0.495359 0.347146 0.032305
v 0.544303 -0.230550 0.013214
v 0.551644 -0.227843 -0.012372
v 0.549209 -0.205490 0.017273
v 0.556550 -0.202784 -0.008314
v 0.554304 -0.180957 0.021330
v 0.561645 -0.178250 -0.004256
v 0.559779 -0.157476 0.025384
v 0.567119 -0.154769 -0.000202
v 0.565821 -0.135573 0.029435
v 0.573162 -0.132866 0.003849
v 0.572622 -0.115774 0.033480
v 0.579963 -0.113067 0.007894
v 0.580370 -0.098605 0.037520
v 0.587711 -0.095899 0.011933
v 0.589255 -0.084594 0.041551
v 0.596596 -0.081887 0.015965
v 0.598431 -0.071858 0.045531
v 0.605772 -0.069152 0.019945
v 0.606738 -0.057818 0.049399
v 0.614079 -0.055111 0.023813
v 0.613893 -0.041944 0.053131
v 0.621233 -0.039237 0.027545
v 0.619610 -0.023709 0.056701
v 0.626951 -0.021002 0.031115
v 0.623608 -0.002585 0.060082
v 0.630949 0.000122 0.034496
v 0.625602 0.021956 0.063250
v 0.632943 0.024663 0.037664
v 0.625310 0.050441 0.066180
v 0.632651 0.053148 0.040594
v 0.622445 0.078448 0.068321
v 0.629785 0.081155 0.042734
v 0.617264 0.101981 0.069324
v 0.624605 0.104687 0.043737
v 0.610299 0.122206 0.069465
v 0.617639 0.124912 0.043879
v 0.602078 0.140291 0.069019
v 0.609419 0.142997 0.043433
v 0.593134 0.157403 0.068263
v 0.600475 0.160109 0.042677
v 0.583997 0.174709 0.067473
v 0.591338 0.177416 0.041887
v 0.575196 0.193377 0.066923
v 0.582537 0.196084 0.041336
v 0.567312 0.213492 0.066788
v 0.574653 0.216198 0.041202
v 0.560456 0.234284 0.067021
v 0.567796 0.236991 0.041435
v 0.554456 0.255642 0.067559
v 0.561796 0.258348 0.041973
v 0.549141 0.277451 0.068341
v 0.556481 0.280158 0.042755
v 0.544340 0.299600 0.069306
v 0.551680 0.302307 0.043720
v 0.539881 0.321974 0.070394
v 0.547222 0.324681 0.044808
v 0.535594 0.344462 0.071543
v 0.542934 0.347169 0.045957
f 1 2 3
f 4 3 2
f 5 6 7
f 8 7 6
f 4 2 5
f 6 5 2
f 3 4 7
f 5 7 4
f 1 3 8
f 7 8 3
f 2 1 6
f 8 6 1
f 9 10 11
f 12 11 10
f 13 14 15
f 16 15 14
f 12 10 13
f 14 13 10
f 11 12 15
f 13 15 12
f 9 11 16
f 15 16 11
f 10 9 14
f 16 14 9
f 17 18 19
f 20 19 18
f 21 22 23
f 24 23 22
f 20 18 21
f 22 21 18
f 19 20 23
f 21 23 20
f 17 19 24
f 23 24 19
f 18 17 22
f 24 22 17
f 25 26 27
f 28 27 26
f 29 30 31
f 32 31 30
f 28 26 29
f 30 29 26
f 27 28 31
f 29 31 28
f 25 27 32
f 31 32 27
f 26 25 30
f 32 30 25
f 33 34 35
f 36 35 34
f 37 38 39
f 40 39 38
f 36 34 37
f 38 37 34
f 35 36 39
f 37 39 36
f 33 35 40
f 39 40 35
f 34 33 38
f 40 38 33
f 41 42 43
f 44 43 42
f 45 46 47
f 48 47 46
f 44 42 45
f 46 45 42
f 43 44 47
f 45 47 44
f 41 43 48
f 47 48 43
f 42 41 46
f 48 46 41
f 49 50 51
f 52 51 50
f 53 54 55
f 56 55 54
f 52 50 53
f 54 53 50
f 51 52 55
f 53 55 52
f 49 51 56
f 55 56 51
f 50 49 54
f 56 54 49
f 57 58 59
f 60 59 58
f 61 62 63
f 64 63 62
f 60 58 61
f 62 61 58
f 59 60 63
f 61 63 60
f 57 59 64
f 63 64 59
f 58 57 62
f 64 62 57
f 65 66 67
f 68 67 66
f 69 70 71
f 72 71 70
f 68 66 69
f 70 69 66
f 67 68 71
f 69 71 68
f 65 67 72
f 71 72 67
f 66 65 70
f 72 70 65
f 73 74 75
f 76 75 74
f 77 78 79
f 80 79 78
f 76 74 77
f 78 77 74
f 75 76 79
f 77 79 76
f 73 75 80
f 79 80 75
f 74 73 78
f 80 78 73
f 81 82 83
f 84 83 82
f 85 86 87
f 88 87 86
f 84 82 85
f 86 85 82
f 83 84 87
f 85 87 84
f 81 83 88
f 87 88 83
f 82 81 86
f 88 86 81
f 89 90 91
f 92 91 90
f 93 94 95
f 96 95 94
f 92 90 93
f 94 93 90
f 91 92 95
f 93 95 92
f 89 91 96
f 95 96 91
f 90 89 94
f 96 94 89
f 97 98 99
f 100 99 98
f 101 102 103
f 104 103 102
f 100 98 101
f 102 101 98
f 99 100 103
f 101 103 100
f 97 99 104
f 103 104 99
f 98 97 102
f 104 102 97
f 105 106 107
f 107 106 108
f 109 106 110
f 110 106 111
f 111 106 112
f 112 106 113
f 113 106 105
f 113 105 114
f 114 105 115
f 115 105 116
f 116 105 117
f 117 105 107
f 117 107 118
f 118 107 119
f 119 107 120
f 120 107 121
f 121 107 108
f 121 108 122
f 122 108 123
f 123 108 124
f 124 108 109
f 109 108 106
f 125 109 126
f 126 109 110
f 126 110 127
f 127 110 111
f 127 111 128
f 128 111 112
f 128 112 129
f 129 112 113
f 129 113 130
f 130 113 114
f 130 114 131
f 131 114 115
f 131 115 132
f 132 115 116
f 132 116 133
f 133 116 117
f 133 117 134
f 134 117 118
f 134 118 135
f 135 118 119
f 135 119 136
f 136 119 120
f 136 120 137
f 137 120 121
f 137 121 138
f 138 121 122
f 138 122 139
f 139 122 123
f 139 123 140
f 140 123 124
f 140 124 125
f 125 124 109
f 141 125 142
f 142 125 126
f 142 126 143
f 143 126 127
f 143 127 144
f 144 127 128
f 144 128 145
f 145 128 129
f 145 129 146
f 146 129 130
f 146 130 147
f 147 130 131
f 147 131 148
f 148 131 132
f 148 132 149
f 149 132 133
f 149 133 150
f 150 133 134
f 150 134 151
f 151 134 135
f 151 135 152
f 152 135 136
f 152 136 153
f 153 136 137
f 153 137 154
f 154 137 138
f 154 138 155
f 155 138 139
f 155 139 156
f 156 139 140
f 156 140 141
f 141 140 125
f 157 141 158
f 158 141 142
f 158 142 159
f 159 142 143
f 159 143 160
f 160 143 144
f 160 144 161
f 161 144 145
f 161 145 162
f 162 145 146
f 162 146 163
f 163 146 147
f 163 147 164
f 164 147 148
f 164 148 165
f 165 148 149
f 165 149 166
f 166 149 150
f 166 150 167
f 167 150 151
f 167 151 168
f 168 151 152
f 168 152 169
f 169 152 153
f 169 153 170
f 170 153 154
f 170 154 171
f 171 154 155
f 171 155 172
f 172 155 156
f 172 156 157
f 157 156 141
f 173 157 174
f 174 157 158
f 174 158 175
f 175 158 159
f 175 159 176
f 176 159 160
f 176 160 177
f 177 160 161
f 177 161 178
f 178 161 162
f 178 162 179
f 179 162 163
f 179 163 180
f 180 163 164
f 180 164 181
f 181 164 165
f 181 165 182
f 182 165 166
f 182 166 183
f 183 166 167
f 183 167 184
f 184 167 168
f 184 168 185
f 185 168 169
f 185 169 186
f 186 169 170
f 186 170 187
f 187 170 171
f 187 171 188
f 188 171 172
f 188 172 173
f 173 172 157
f 189 173 190
f 190 173 174
f 190 174 191
f 191 174 175
f 191 175 192
f 192 175 176
f 192 176 193
f 193 176 177
f 193 177 194
f 194 177 178
f 194 178 195
f 195 178 179
f 195 179 196
f 196 179 180
f 196 180 197
f 197 180 181
f 197 181 198
f 198 181 182
f 198 182 199
f 199 182 183
f 199 183 200
f 200 183 184
f 200 184 201
f 201 184 185
f 201 185 202
f 202 185 186
f 202 186 203
f 203 186 187
f 203 187 204
f 204 187 188
f 204 188 189
f 189 188 173
f 205 189 190
f 205 190 191
f 205 191 192
f 205 192 206
f 206 192 193
f 206 193 194
f 206 194 195
f 206 195 196
f 206 196 207
f 207 196 197
f 207 197 198
f 207 198 199
f 207 199 200
f 207 200 208
f 208 200 201
f 208 201 202
f 208 202 203
f 208 203 204
f 208 204 205
f 205 204 189
f 207 208 206
f 206 208 205
f 209 210 211
f 211 210 212
f 213 210 214
f 214 210 215
f 215 210 216
f 216 210 217
f 217 210 209
f 217 209 218
f 218 209 219
f 219 209 220
f 220 209 221
f 221 209 211
f 221 211 222
f 222 211 223
f 223 211 224
f 224 211 225
f 225 211 212
f 225 212 226
f 226 212 227
f 227 212 228
f 228 212 213
f 213 212 210
f 229 213 230
f 230 213 214
f 230 214 231
f 231 214 215
f 231 215 232
f 232 215 216
f 232 216 233
f 233 216 217
f 233 217 234
f 234 217 218
f 234 218 235
f 235 218 219
f 235 219 236
f 236 219 220
f 236 220 237
f 237 220 221
f 237 221 238
f 238 221 222
f 238 222 239
f 239 222 223
f 239 223 240
f 240 223 224
f 240 224 241
f 241 224 225
f 241 225 242
f 242 225 226
f 242 226 243
f 243 226 227
f 243 227 244
f 244 227 228
f 244 228 229
f 229 228 213
f 245 229 246
f 246 229 230
f 246 230 247
f 247 230 231
f 247 231 248
f 248 231 232
f 248 232 249
f 249 232 233
f 249 233 250
f 250 233 234
f 250 234 251
f 251 234 235
f 251 235 252
f 252 235 236
f 252 236 253
f 253 236 237
f 253 237 254
f 254 237 238
f 254 238 255
f 255 238 239
f 255 239 256
f 256 239 240
f 256 240 257
f 257 240 241
f 257 241 258
f 258 241 242
f 258 242 259
f 259 242 243
f 259 243 260
f 260 243 244
f 260 244 245
f 245 244 229
f 261 245 262
f 262 245 246
f 262 246 263
f 263 246 247
f 263 247 264
f 264 247 248
f 264 248 265
f 265 248 249
f 265 249 266
f 266 249 250
f 266 250 267
f 267 250 251
f 267 251 268
f 268 251 252
f 268 252 269
f 269 252 253
f 269 253 270
f 270 253 254
f 270 254 271
f 271 254 255
f 271 255 272
f 272 255 256
f 272 256 273
f 273 256 257
f 273 257 274
f 274 257 258
f 274 258 275
f 275 258 259
f 275 259 276
f 276 259 260
f 276 260 261
f 261 260 245
f 277 261 278
f 278 261 262
f 278 262 279
f 279 262 263
f 279 263 280
f 280 263 264
f 280 264 281
f 281 264 265
f 281 265 282
f 282 265 266
f 282 266 283
f 283 266 267
f 283 267 284
f 284 267 268
f 284 268 285
f 285 268 269
f 285 269 286
f 286 269 270
f 286 270 287
f 287 270 271
f 287 271 288
f 288 271 272
f 288 272 289
f 289 272 273
f 289 273 290
f 290 273 274
f 290 274 291
f 291 274 275
f 291 275 292
f 292 275 276
f 292 276 277
f 277 276 261
f 293 277 294
f 294 277 278
f 294 278 295
f 295 278 279
f 295 279 296
f 296 279 280
f 296 280 297
f 297 280 281
f 297 281 298
f 298 281 282
f 298 282 299
f 299 282 283
f 299 283 300
f 300 283 284
f 300 284 301
f 301 284 285
f 301 285 302
f 302 285 286
f 302 286 303
f 303 286 287
f 303 287 304
f 304 287 288
f 304 288 305
f 305 288 289
f 305 289 306
f 306 289 290
f 306 290 307
f 307 290 291
f 307 291 308
f 308 291 292
f 308 292 293
f 293 292 277
f 309 293 294
f 309 294 295
f 309 295 296
f 309 296 310
f 310 296 297
f 310 297 298
f 310 298 299
f 310 299 300
f 310 300 311
f 311 300 301
f 311 301 302
f 311 302 303
f 311 303 304
f 311 304 312
f 312 304 305
f 312 305 306
f 312 306 307
f 312 307 308
f 312 308 309
f 309 308 293
f 311 312 310
f 310 312 309
f 313 314 315
f 315 314 316
f 317 314 318
f 318 314 319
f 319 314 320
f 320 314 321
f 321 314 313
f 321 313 322
f 322 313 323
f 323 313 324
f 324 313 325
f 325 313 315
f 325 315 326
f 326 315 327
f 327 315 328
f 328 315 329
f 329 315 316
f 329 316 330
f 330 316 331
f 331 316 332
f 332 316 317
f 317 316 314
f 333 317 334
f 334 317 318
f 334 318 335
f 335 318 319
f 335 319 336
f 336 319 320
f 336 320 337
f 337 320 321
f 337 321 338
f 338 321 322
f 338 322 339
f 339 322 323
f 339 323 340
f 340 323 324
f 340 324 341
f 341 324 325
f 341 325 342
f 342 325 326
f 342 326 343
f 343 326 327
f 343 327 344
f 344 327 328
f 344 328 345
f 345 328 329
f 345 329 346
f 346 329 330
f 346 330 347
f 347 330 331
f 347 331 348
f 348 331 332
f 348 332 333
f 333 332 317
f 349 333 350
f 350 333 334
f 350 334 351
f 351 334 335
f 351 335 352
f 352 335 336
f 352 336 353
f 353 336 337
f 353 337 354
f 354 337 338
f 354 338 355
f 355 338 339
f 355 339 356
f 356 339 340
f 356 340 357
f 357 340 341
f 357 341 358
f 358 341 342
f 358 342 359
f 359 342 343
f 359 343 360
f 360 343 344
f 360 344 361
f 361 344 345
f 361 345 362
f 362 345 346
f 362 346 363
f 363 346 347
f 363 347 364
f 364 347 348
f 364 348 349
f 349 348 333
f 365 349 366
f 366 349 350
f 366 350 367
f 367 350 351
f 367 351 368
f 368 351 352
f 368 352 369
f 369 352 353
f 369 353 370
f 370 353 354
f 370 354 371
f 371 354 355
f 371 355 372
f 372 355 356
f 372 356 373
f 373 356 357
f 373 357 374
f 374 357 358
f 374 358 375
f 375 358 359
f 375 359 376
f 376 359 360
f 376 360 377
f 377 360 361
f 377 361 378
f 378 361 362
f 378 362 379
f 379 362 363
f 379 363 380
f 380 363 364
f 380 364 365
f 365 364 349
f 381 365 382
f 382 365 366
f 382 366 383
f 383 366 367
f 383 367 384
f 384 367 368
f 384 368 385
f 385 368 369
f 385 369 386
f 386 369 370
f 386 370 387
f 387 370 371
f 387 371 388
f 388 371 372
f 388 372 389
f 389 372 373
f 389 373 390
f 390 373 374
f 390 374 391
f 391 374 375
f 391 375 392
f 392 375 376
f 392 376 393
f 393 376 377
f 393 377 394
f 394 377 378
f 394 378 395
f 395 378 379
f 395 379 396
f 396 379 380
f 396 380 381
f 381 380 365
f 397 381 398
f 398 381 382
f 398 382 399
f 399 382 383
f 399 383 400
f 400 383 384
f 400 384 401
f 401 384 385
f 401 385 402
f 402 385 386
f 402 386 403
f 403 386 387
f 403 387 404
f 404 387 388
f 404 388 405
f 405 388 389
f 405 389 406
f 406 389 390
f 406 390 407
f 407 390 391
f 407 391 408
f 408 391 392
f 408 392 409
f 409 392 393
f 409 393 410
f 410 393 394
f 410 394 411
f 411 394 395
f 411 395 412
f 412 395 396
f 412 396 397
f 397 396 381
f 413 397 398
f 413 398 399
f 413 399 400
f 413 400 414
f 414 400 401
f 414 401 402
f 414 402 403
f 414 403 404
f 414 404 415
f 415 404 405
f 415 405 406
f 415 406 407
f 415 407 408
f 415 408 416
f 416 408 409
f 416 409 410
f 416 410 411
f 416 411 412
f 416 412 413
f 413 412 397
f 415 416 414
f 414 416 413
f 417 418 419
f 419 418 420
f 421 418 422
f 422 418 423
f 423 418 424
f 424 418 425
f 425 418 417
f 425 417 426
f 426 417 427
f 427 417 428
f 428 417 429
f 429 417 419
f 429 419 430
f 430 419 431
f 431 419 432
f 432 419 433
f 433 419 420
f 433 420 434
f 434 420 435
f 435 420 436
f 436 420 421
f 421 420 418
f 437 421 438
f 438 421 422
f 438 422 439
f 439 422 423
f 439 423 440
f 440 423 424
f 440 424 441
f 441 424 425
f 441 425 442
f 442 425 426
f 442 426 443
f 443 426 427
f 443 427 444
f 444 427 428
f 444 428 445
f 445 428 429
f 445 429 446
f 446 429 430
f 446 430 447
f 447 430 431
f 447 431 448
f 448 431 432
f 448 432 449
f 449 432 433
f 449 433 450
f 450 433 434
f 450 434 451
f 451 434 435
f 451 435 452
f 452 435 436
f 452 436 437
f 437 436 421
f 453 437 454
f 454 437 438
f 454 438 455
f 455 438 439
f 455 439 456
f 456 439 440
f 456 440 457
f 457 440 441
f 457 441 458
f 458 441 442
f 458 442 459
f 459 442 443
f 459 443 460
f 460 443 444
f 460 444 461
f 461 444 445
f 461 445 462
f 462 445 446
f 462 446 463
f 463 446 447
f 463 447 464
f 464 447 448
f 464 448 465
f 465 448 449
f 465 449 466
f 466 449 450
f 466 450 467
f 467 450 451
f 467 451 468
f 468 451 452
f 468 452 453
f 453 452 437
f 469 453 470
f 470 453 454
f 470 454 471
f 471 454 455
f 471 455 472
f 472 455 456
f 472 456 473
f 473 456 457
f 473 457 474
f 474 457 458
f 474 458 475
f 475 458 459
f 475 459 476
f 476 459 460
f 476 460 477
f 477 460 461
f 477 461 478
f 478 461 462
f 478 462 479
f 479 462 463
f 479 463 480
f 480 463 464
f 480 464 481
f 481 464 465
f 481 465 482
f 482 465 466
f 482 466 483
f 483 466 467
f 483 467 484
f 484 467 468
f 484 468 469
f 469 468 453
f 485 469 486
f 486 469 470
f 486 470 487
f 487 470 471
f 487 471 488
f 488 471 472
f 488 472 489
f 489 472 473
f 489 473 490
f 490 473 474
f 490 474 491
f 491 474 475
f 491 475 492
f 492 475 476
f 492 476 493
f 493 476 477
f 493 477 494
f 494 477 478
f 494 478 495
f 495 478 479
f 495 479 496
f 496 479 480
f 496 480 497
f 497 480 481
f 497 481 498
f 498 481 482
f 498 482 499
f 499 482 483
f 499 483 500
f 500 483 484
f 500 484 485
f 485 484 469
f 501 485 502
f 502 485 486
f 502 486 503
f 503 486 487
f 503 487 504
f 504 487 488
f 504 488 505
f 505 488 489
f 505 489 506
f 506 489 490
f 506 490 507
f 507 490 491
f 507 491 508
f 508 491 492
f 508 492 509
f 509 492 493
f 509 493 510
f 510 493 494
f 510 494 511
f 511 494 495
f 511 495 512
f 512 495 496
f 512 496 513
f 513 496 497
f 513 497 514
f 514 497 498
f 514 498 515
f 515 498 499
f 515 499 516
f 516 499 500
f 516 500 501
f 501 500 485
f 517 501 502
f 517 502 503
f 517 503 504
f 517 504 518
f 518 504 505
f 518 505 506
f 518 506 507
f 518 507 508
f 518 508 519
f 519 508 509
f 519 509 510
f 519 510 511
f 519 511 512
f 519 512 520
f 520 512 513
f 520 513 514
f 520 514 515
f 520 515 516
f 520 516 517
f 517 516 501
f 519 520 518
f 518 520 517
f 521 522 523
f 523 522 524
f 525 521 526
f 526 521 523
f 527 525 528
f 528 525 526
f 529 527 530
f 530 527 528
f 531 529 532
f 532 529 530
f 533 531 534
f 534 531 532
f 535 533 536
f 536 533 534
f 537 535 538
f 538 535 536
f 539 537 540
f 540 537 538
f 541 539 542
f 542 539 540
f 543 541 544
f 544 541 542
f 545 543 546
f 546 543 544
f 547 545 548
f 548 545 546
f 549 547 550
f 550 547 548
f 551 549 552
f 552 549 550
f 553 551 554
f 554 551 552
f 555 553 556
f 556 553 554
f 557 555 558
f 558 555 556
f 559 557 560
f 560 557 558
f 561 559 562
f 562 559 560
f 563 561 564
f 564 561 562
f 565 563 566
f 566 563 564
f 567 565 568
f 568 565 566
f 569 567 570
f 570 567 568
f 571 569 572
f 572 569 570
f 573 571 574
f 574 571 572
f 575 573 576
f 576 573 574
f 577 575 578
f 578 575 576
f 579 577 580
f 580 577 578
f 581 579 582
f 582 579 580
f 583 581 584
f 584 581 582
f 585 583 586
f 586 583 584
f 587 585 588
f 588 585 586
f 522 587 524
f 524 587 588
f 527 521 525
f 527 522 521
f 529 522 527
f 529 587 522
f 531 587 529
f 531 585 587
f 531 583 585
f 531 581 583
f 533 581 531
f 535 581 533
f 537 581 535
f 537 579 581
f 539 579 537
f 541 579 539
f 543 579 541
f 543 577 579
f 545 577 543
f 547 577 545
f 547 575 577
f 549 575 547
f 551 575 549
f 553 575 551
f 555 575 553
f 555 573 575
f 557 573 555
f 559 573 557
f 561 573 559
f 561 571 573
f 563 571 561
f 563 569 571
f 565 569 563
f 565 567 569
f 526 523 528
f 523 524 528
f 528 524 530
f 524 588 530
f 530 588 532
f 588 586 532
f 586 584 532
f 584 582 532
f 532 582 534
f 534 582 536
f 536 582 538
f 582 580 538
f 538 580 540
f 540 580 542
f 542 580 544
f 580 578 544
f 544 578 546
f 546 578 548
f 578 576 548
f 548 576 550
f 550 576 552
f 552 576 554
f 554 576 556
f 576 574 556
f 556 574 558
f 558 574 560
f 560 574 562
f 574 572 562
f 562 572 564
f 572 570 564
f 564 570 566
f 570 568 566
f 589 590 591
f 591 590 592
f 593 589 594
f 594 589 591
f 595 593 596
f 596 593 594
f 597 595 598
f 598 595 596
f 599 597 600
f 600 597 598
f 601 599 602
f 602 599 600
f 603 601 604
f 604 601 602
f 605 603 606
f 606 603 604
f 607 605 608
f 608 605 606
f 609 607 610
f 610 607 608
f 611 609 612
f 612 609 610
f 613 611 614
f 614 611 612
f 615 613 616
f 616 613 614
f 617 615 618
f 618 615 616
f 619 617 620
f 620 617 618
f 621 619 622
f 622 619 620
f 623 621 624
f 624 621 622
f 625 623 626
f 626 623 624
f 627 625 628
f 628 625 626
f 629 627 630
f 630 627 628
f 631 629 632
f 632 629 630
f 633 631 634
f 634 631 632
f 635 633 636
f 636 633 634
f 637 635 638
f 638 635 636
f 639 637 640
f 640 637 638
f 641 639 642
f 642 639 640
f 643 641 644
f 644 641 642
f 645 643 646
f 646 643 644
f 647 645 648
f 648 645 646
f 649 647 650
f 650 647 648
f 651 649 652
f 652 649 650
f 653 651 654
f 654 651 652
f 655 653 656
f 656 653 654
f 590 655 592
f 592 655 656
f 595 589 593
f 595 590 589
f 597 590 595
f 597 655 590
f 599 655 597
f 599 653 655
f 599 651 653
f 599 649 651
f 601 649 599
f 603 649 601
f 605 649 603
f 605 647 649
f 607 647 605
f 609 647 607
f 611 647 609
f 611 645 647
f 613 645 611
f 615 645 613
f 615 643 645
f 617 643 615
f 619 643 617
f 621 643 619
f 623 643 621
f 623 641 643
f 625 641 623
f 627 641 625
f 629 641 627
f 629 639 641
f 631 639 629
f 631 637 639
f 633 637 631
f 633 635 637
f 594 591 596
f 591 592 596
f 596 592 598
f 592 656 598
f 598 656 600
f 656 654 600
f 654 652 600
f 652 650 600
f 600 650 602
f 602 650 604
f 604 650 606
f 650 648 606
f 606 648 608
f 608 648 610
f 610 648 612
f 648 646 612
f 612 646 614
f 614 646 616
f 646 644 616
f 616 644 618
f 618 644 620
f 620 644 622
f 622 644 624
f 644 642 624
f 624 642 626
f 626 642 628
f 628 642 630
f 642 640 630
f 630 640 632
f 640 638 632
f 632 638 634
f 638 636 634
f 657 658 659
f 659 658 660
f 661 657 662
f 662 657 659
f 663 661 664
f 664 661 662
f 665 663 666
f 666 663 664
f 667 665 668
f 668 665 666
f 669 667 670
f 670 667 668
f 671 669 672
f 672 669 670
f 673 671 674
f 674 671 672
f 675 673 676
f 676 673 674
f 677 675 678
f 678 675 676
f 679 677 680
f 680 677 678
f 681 679 682
f 682 679 680
f 683 681 684
f 684 681 682
f 685 683 686
f 686 683 684
f 687 685 688
f 688 685 686
f 689 687 690
f 690 687 688
f 691 689 692
f 692 689 690
f 693 691 694
f 694 691 692
f 695 693 696
f 696 693 694
f 697 695 698
f 698 695 696
f 699 697 700
f 700 697 698
f 701 699 702
f 702 699 700
f 703 701 704
f 704 701 702
f 705 703 706
f 706 703 704
f 707 705 708
f 708 705 706
f 709 707 710
f 710 707 708
f 711 709 712
f 712 709 710
f 713 711 714
f 714 711 712
f 715 713 716
f 716 713 714
f 717 715 718
f 718 715 716
f 658 717 660
f 660 717 718
f 661 658 657
f 663 658 661
f 665 658 663
f 667 658 665
f 669 658 667
f 671 658 669
f 673 658 671
f 675 658 673
f 677 658 675
f 679 658 677
f 681 658 679
f 683 658 681
f 685 658 683
f 687 658 685
f 689 658 687
f 691 658 689
f 693 658 691
f 695 658 693
f 697 658 695
f 699 658 697
f 701 658 699
f 703 658 701
f 705 658 703
f 707 658 705
f 709 658 707
f 711 658 709
f 713 658 711
f 715 658 713
f 715 717 658
f 659 660 662
f 662 660 664
f 664 660 666
f 666 660 668
f 668 660 670
f 670 660 672
f 672 660 674
f 674 660 676
f 676 660 678
f 678 660 680
f 680 660 682
f 682 660 684
f 684 660 686
f 686 660 688
f 688 660 690
f 690 660 692
f 692 660 694
f 694 660 696
f 696 660 698
f 698 660 700
f 700 660 702
f 702 660 704
f 704 660 706
f 706 660 708
f 708 660 710
f 710 660 712
f 712 660 714
f 714 660 716
f 660 718 716
