# Original shape: m822.obj
# No processing applied - exact copy of source file
# Generated on 2025-10-03 22:00:33

v 0.456215 0.475461 0.398120
v 0.410695 0.475473 0.466673
v 0.358847 0.475454 0.357789
v 0.336088 0.475460 0.392066
v 0.261480 0.475447 0.317458
v 0.301812 0.475464 0.414825
v 0.261480 0.475466 0.422969
v 0.261480 0.475485 0.528479
v 0.180819 0.475482 0.512192
v 0.342142 0.475482 0.512192
v 0.366991 0.475447 0.317458
v 0.358847 0.475439 0.277128
v 0.456215 0.475432 0.236797
v 0.410695 0.475420 0.168243
v 0.472502 0.475447 0.317458
v 0.112265 0.475473 0.466673
v 0.186873 0.475460 0.392066
v 0.164113 0.475454 0.357789
v 0.155970 0.475447 0.317458
v 0.164113 0.475439 0.277128
v 0.066746 0.475432 0.236797
v 0.112265 0.475420 0.168243
v 0.066746 0.475461 0.398119
v 0.050458 0.475447 0.317458
v 0.221150 0.475464 0.414826
v 0.186873 0.475433 0.242851
v 0.180819 0.475412 0.122724
v 0.221149 0.475429 0.220091
v 0.261480 0.475409 0.106437
v 0.261480 0.475428 0.211947
v 0.301811 0.475429 0.220091
v 0.336088 0.475433 0.242851
v 0.342141 0.475412 0.122724
v 0.410695 0.528229 0.466664
v 0.410696 0.501851 0.466669
v 0.456215 0.528217 0.398111
v 0.456214 0.501839 0.398115
v 0.472502 0.528202 0.317449
v 0.472502 0.501824 0.317454
v 0.456214 0.528187 0.236788
v 0.456214 0.501810 0.236792
v 0.410695 0.528175 0.168234
v 0.410695 0.501797 0.168239
v 0.342142 0.528167 0.122715
v 0.342142 0.501789 0.122720
v 0.261480 0.528164 0.106427
v 0.261480 0.501786 0.106432
v 0.180819 0.528167 0.122715
v 0.180819 0.501789 0.122719
v 0.112265 0.528175 0.168234
v 0.112265 0.501797 0.168239
v 0.066746 0.501810 0.236792
v 0.066746 0.528187 0.236787
v 0.050459 0.501824 0.317454
v 0.050458 0.528202 0.317449
v 0.066746 0.528217 0.398110
v 0.066747 0.501839 0.398115
v 0.112266 0.501851 0.466668
v 0.112265 0.528229 0.466664
v 0.180819 0.501859 0.512188
v 0.180819 0.528237 0.512183
v 0.261480 0.501862 0.528475
v 0.261480 0.528240 0.528471
v 0.342141 0.501859 0.512187
v 0.342142 0.528237 0.512183
v 0.336088 0.528216 0.392056
v 0.358847 0.528209 0.357780
v 0.261480 0.528202 0.317449
v 0.366991 0.528202 0.317449
v 0.358848 0.528195 0.277118
v 0.336088 0.528189 0.242842
v 0.301811 0.528184 0.220082
v 0.261480 0.528183 0.211938
v 0.261480 0.528221 0.422959
v 0.301811 0.528220 0.414816
v 0.221149 0.528220 0.414816
v 0.186873 0.528216 0.392056
v 0.164113 0.528209 0.357780
v 0.155970 0.528202 0.317449
v 0.164113 0.528195 0.277118
v 0.186873 0.528189 0.242842
v 0.221149 0.528184 0.220082
v 0.408706 0.025001 0.464560
v 0.404414 0.025004 0.467394
v 0.411561 0.025000 0.460282
v 0.411586 0.025011 0.450199
v 0.412592 0.025004 0.455243
v 0.408752 0.025019 0.445908
v 0.404475 0.025029 0.443052
v 0.394392 0.025044 0.443026
v 0.399436 0.025039 0.442021
v 0.390100 0.025050 0.445861
v 0.387245 0.025048 0.450138
v 0.387219 0.025037 0.460221
v 0.386214 0.025047 0.455177
v 0.390054 0.025030 0.464512
v 0.394331 0.025020 0.467368
v 0.399370 0.025009 0.468398
v 0.411561 0.498295 0.460197
v 0.412592 0.498299 0.455158
v 0.408706 0.498295 0.464475
v 0.399370 0.498306 0.468313
v 0.404413 0.498299 0.467308
v 0.394331 0.498315 0.467283
v 0.390054 0.498325 0.464427
v 0.386214 0.498341 0.455091
v 0.387219 0.498334 0.460136
v 0.387245 0.498345 0.450052
v 0.390100 0.498345 0.445776
v 0.399436 0.498334 0.441936
v 0.394392 0.498341 0.442941
v 0.404475 0.498325 0.442966
v 0.408752 0.498315 0.445822
v 0.411586 0.498306 0.450114
v 0.390100 0.261697 0.445818
v 0.394393 0.261694 0.442984
v 0.399436 0.261687 0.441978
v 0.404475 0.261678 0.443009
v 0.408753 0.261668 0.445865
v 0.411586 0.261659 0.450156
v 0.412592 0.261652 0.455200
v 0.411561 0.261648 0.460239
v 0.408705 0.261648 0.464516
v 0.404414 0.261651 0.467351
v 0.399370 0.261658 0.468356
v 0.394331 0.261668 0.467325
v 0.387245 0.261697 0.450095
v 0.386214 0.261693 0.455134
v 0.387219 0.261686 0.460178
v 0.390054 0.261677 0.464470
v 0.135741 0.498334 0.460135
v 0.136746 0.498341 0.455091
v 0.132907 0.498325 0.464427
v 0.123591 0.498306 0.468314
v 0.128630 0.498315 0.467283
v 0.118547 0.498299 0.467308
v 0.114255 0.498295 0.464474
v 0.110369 0.498299 0.455158
v 0.111399 0.498295 0.460196
v 0.111374 0.498306 0.450114
v 0.114208 0.498315 0.445823
v 0.123524 0.498334 0.441936
v 0.118486 0.498325 0.442966
v 0.128568 0.498341 0.442941
v 0.132860 0.498345 0.445776
v 0.135716 0.498345 0.450053
v 0.135741 0.025037 0.460221
v 0.132907 0.025030 0.464512
v 0.136746 0.025047 0.455177
v 0.132860 0.025050 0.445861
v 0.135715 0.025048 0.450138
v 0.128568 0.025044 0.443026
v 0.123524 0.025039 0.442021
v 0.114208 0.025019 0.445908
v 0.118486 0.025029 0.443052
v 0.111374 0.025011 0.450199
v 0.110369 0.025004 0.455243
v 0.114255 0.025001 0.464559
v 0.111399 0.025000 0.460282
v 0.118547 0.025004 0.467393
v 0.123591 0.025009 0.468399
v 0.128630 0.025020 0.467368
v 0.135741 0.261686 0.460178
v 0.132907 0.261677 0.464469
v 0.136746 0.261693 0.455134
v 0.128630 0.261668 0.467325
v 0.123591 0.261658 0.468356
v 0.118547 0.261651 0.467351
v 0.114255 0.261648 0.464516
v 0.135716 0.261697 0.450095
v 0.132860 0.261697 0.445818
v 0.128568 0.261694 0.442984
v 0.123524 0.261687 0.441978
v 0.118485 0.261678 0.443009
v 0.114208 0.261668 0.445864
v 0.111375 0.261659 0.450156
v 0.110369 0.261651 0.455200
v 0.111400 0.261648 0.460239
v 0.117929 0.205135 0.113276
v 0.108904 0.206000 0.108838
v 0.116618 0.240264 0.126329
v 0.107561 0.241966 0.122209
v 0.115011 0.267208 0.145065
v 0.105903 0.269770 0.141549
v 0.104041 0.290204 0.166064
v 0.113210 0.286974 0.168782
v 0.102095 0.304298 0.194770
v 0.111317 0.300679 0.196707
v 0.098353 0.318659 0.261599
v 0.107637 0.314790 0.262465
v 0.095386 0.323079 0.337006
v 0.104688 0.319181 0.337420
v 0.115892 0.319788 0.378881
v 0.107451 0.323767 0.382730
v 0.130559 0.319880 0.404939
v 0.122868 0.323863 0.410123
v 0.150138 0.319896 0.428948
v 0.143551 0.323880 0.435479
v 0.173919 0.319900 0.448436
v 0.168790 0.323884 0.456164
v 0.201242 0.319902 0.462941
v 0.197702 0.323887 0.471514
v 0.230861 0.319904 0.471951
v 0.229028 0.323889 0.481042
v 0.261479 0.319905 0.475033
v 0.261477 0.323889 0.484307
v 0.293933 0.323889 0.481042
v 0.292100 0.319904 0.471950
v 0.325258 0.323887 0.471514
v 0.321719 0.319902 0.462941
v 0.354171 0.323884 0.456163
v 0.349041 0.319900 0.448436
v 0.379410 0.323880 0.435478
v 0.372823 0.319896 0.428949
v 0.400092 0.323863 0.410123
v 0.392401 0.319880 0.404939
v 0.415509 0.323767 0.382730
v 0.407069 0.319788 0.378880
v 0.427574 0.323079 0.337006
v 0.418272 0.319181 0.337420
v 0.415324 0.314790 0.262465
v 0.121120 0.202874 0.122581
v 0.119885 0.235993 0.134871
v 0.118400 0.260903 0.152183
v 0.116740 0.279117 0.174044
v 0.114968 0.291937 0.200192
v 0.111419 0.305506 0.263652
v 0.108502 0.309844 0.337855
v 0.119320 0.310415 0.377366
v 0.133670 0.310505 0.402859
v 0.152797 0.310521 0.426317
v 0.175991 0.310524 0.445322
v 0.202673 0.310527 0.459486
v 0.231603 0.310528 0.468284
v 0.261483 0.310529 0.471293
v 0.291358 0.310528 0.468284
v 0.320288 0.310527 0.459485
v 0.346969 0.310524 0.445322
v 0.370163 0.310521 0.426317
v 0.116607 0.200536 0.131303
v 0.115448 0.231656 0.142833
v 0.114084 0.254550 0.158733
v 0.112562 0.271235 0.178769
v 0.110909 0.283193 0.203186
v 0.107484 0.296246 0.264463
v 0.104593 0.300540 0.338058
v 0.115726 0.301138 0.379074
v 0.130378 0.301230 0.405101
v 0.149972 0.301246 0.429126
v 0.173792 0.301249 0.448645
v 0.201156 0.301252 0.463170
v 0.230820 0.301254 0.472191
v 0.261486 0.301254 0.475277
v 0.292141 0.301254 0.472191
v 0.321804 0.301252 0.463170
v 0.349169 0.301249 0.448645
v 0.372989 0.301246 0.429126
v 0.392583 0.301230 0.405101
v 0.389291 0.310505 0.402858
v 0.407235 0.301138 0.379074
v 0.403641 0.310415 0.377366
v 0.418368 0.300540 0.338058
v 0.414458 0.309844 0.337855
v 0.415476 0.296246 0.264463
v 0.411542 0.305506 0.263652
v 0.412052 0.283193 0.203186
v 0.407992 0.291937 0.200192
v 0.410398 0.271235 0.178769
v 0.406221 0.279117 0.174044
v 0.408877 0.254550 0.158733
v 0.404561 0.260904 0.152183
v 0.407513 0.231656 0.142833
v 0.403076 0.235993 0.134871
v 0.406354 0.200536 0.131303
v 0.401841 0.202874 0.122581
v 0.107034 0.199497 0.134333
v 0.105906 0.229791 0.145550
v 0.104591 0.251869 0.160878
v 0.103125 0.267946 0.180189
v 0.101517 0.279570 0.203933
v 0.098138 0.292433 0.264424
v 0.095252 0.296717 0.337908
v 0.107217 0.297392 0.383005
v 0.122612 0.297487 0.410352
v 0.143317 0.297505 0.435730
v 0.168611 0.297509 0.456458
v 0.197582 0.297511 0.471837
v 0.228971 0.297513 0.481383
v 0.261488 0.297514 0.484652
v 0.293990 0.297513 0.481382
v 0.325379 0.297511 0.471837
v 0.354350 0.297509 0.456458
v 0.379644 0.297505 0.435730
v 0.400349 0.297487 0.410352
v 0.415744 0.297392 0.383005
v 0.427708 0.296717 0.337907
v 0.424823 0.292433 0.264424
v 0.098009 0.200361 0.129895
v 0.096849 0.231494 0.141431
v 0.095483 0.254432 0.157362
v 0.093956 0.271176 0.177470
v 0.092294 0.283188 0.201997
v 0.088855 0.296302 0.263558
v 0.085950 0.300616 0.337494
v 0.098775 0.301370 0.386854
v 0.114921 0.301471 0.415536
v 0.136730 0.301489 0.442260
v 0.163481 0.301493 0.464185
v 0.194042 0.301496 0.480410
v 0.227138 0.301498 0.490474
v 0.261486 0.301498 0.493927
v 0.295823 0.301498 0.490474
v 0.328918 0.301496 0.480410
v 0.359480 0.301493 0.464185
v 0.386230 0.301489 0.442260
v 0.408040 0.301470 0.415537
v 0.424184 0.301370 0.386854
v 0.437011 0.300616 0.337494
v 0.434106 0.296302 0.263558
v 0.094818 0.202623 0.120589
v 0.093583 0.235763 0.132888
v 0.092094 0.260736 0.150244
v 0.090426 0.279034 0.172208
v 0.088644 0.291930 0.198511
v 0.085072 0.305585 0.262372
v 0.082136 0.309952 0.337059
v 0.095348 0.310743 0.388369
v 0.111811 0.310846 0.417617
v 0.134071 0.310864 0.444891
v 0.161409 0.310869 0.467300
v 0.192612 0.310872 0.483866
v 0.226395 0.310873 0.494141
v 0.261483 0.310874 0.497668
v 0.296565 0.310873 0.494141
v 0.330349 0.310872 0.483866
v 0.361551 0.310869 0.467300
v 0.388890 0.310864 0.444891
v 0.411151 0.310845 0.417617
v 0.099331 0.204961 0.111867
v 0.098019 0.240102 0.124926
v 0.096410 0.267090 0.143694
v 0.094603 0.286915 0.167483
v 0.092703 0.300674 0.195518
v 0.089007 0.314846 0.261560
v 0.086045 0.319256 0.336856
v 0.098942 0.320020 0.386660
v 0.115103 0.320121 0.415375
v 0.136896 0.320139 0.442082
v 0.163608 0.320143 0.463977
v 0.194128 0.320146 0.480182
v 0.227179 0.320148 0.490234
v 0.261479 0.320148 0.493683
v 0.295782 0.320148 0.490234
v 0.328833 0.320146 0.480181
v 0.359352 0.320143 0.463977
v 0.386064 0.320139 0.442082
v 0.407858 0.320121 0.415376
v 0.424019 0.320020 0.386660
v 0.436915 0.319256 0.336857
v 0.424607 0.318659 0.261599
v 0.433954 0.314846 0.261560
v 0.420865 0.304298 0.194770
v 0.430257 0.300674 0.195518
v 0.428357 0.286915 0.167483
v 0.418920 0.290204 0.166064
v 0.426551 0.267090 0.143694
v 0.417058 0.269770 0.141549
v 0.415400 0.241966 0.122209
v 0.424941 0.240102 0.124926
v 0.414057 0.206000 0.108838
v 0.423629 0.204961 0.111867
v 0.427612 0.310743 0.388368
v 0.440824 0.309952 0.337059
v 0.437888 0.305585 0.262372
v 0.434317 0.291930 0.198512
v 0.432535 0.279034 0.172208
v 0.430867 0.260736 0.150244
v 0.429378 0.235763 0.132887
v 0.428142 0.202623 0.120589
v 0.430666 0.283188 0.201997
v 0.429005 0.271176 0.177470
v 0.427478 0.254432 0.157362
v 0.426112 0.231494 0.141431
v 0.424951 0.200361 0.129895
v 0.421444 0.279570 0.203933
v 0.419836 0.267946 0.180189
v 0.418369 0.251869 0.160878
v 0.417054 0.229791 0.145550
v 0.415926 0.199497 0.134333
v 0.411643 0.300679 0.196707
v 0.409751 0.286974 0.168781
v 0.407949 0.267208 0.145065
v 0.406343 0.240264 0.126328
v 0.405032 0.205135 0.113276
v 0.050878 0.025631 0.028732
v 0.045655 0.025632 0.037812
v 0.073324 0.111662 0.061127
v 0.068352 0.109651 0.069679
v 0.081839 0.164431 0.078298
v 0.076881 0.162486 0.086874
v 0.088450 0.223961 0.095697
v 0.083487 0.222018 0.104270
v 0.092705 0.287338 0.112481
v 0.087740 0.285384 0.121050
v 0.094375 0.352139 0.128070
v 0.089410 0.350171 0.136634
v 0.093281 0.416066 0.141941
v 0.088319 0.414084 0.150504
v 0.089249 0.476819 0.153575
v 0.084289 0.474829 0.162139
v 0.082297 0.532568 0.162548
v 0.077336 0.530593 0.171116
v 0.073230 0.583363 0.168808
v 0.068249 0.581488 0.177385
v 0.052754 0.672128 0.173355
v 0.047614 0.670934 0.181959
v 0.030377 0.747457 0.175986
v 0.035860 0.747100 0.167518
v 0.025000 0.815400 0.159223
v 0.030666 0.812402 0.151425
v 0.040251 0.876657 0.132726
v 0.045214 0.870821 0.126154
v 0.082306 0.926859 0.103353
v 0.085582 0.918969 0.097975
v 0.156278 0.951262 0.075215
v 0.154923 0.960075 0.079947
v 0.204525 0.959918 0.068429
v 0.204095 0.968874 0.073049
v 0.261541 0.962906 0.065967
v 0.261541 0.971894 0.070560
v 0.317034 0.968874 0.073049
v 0.316433 0.959918 0.068430
v 0.368038 0.960075 0.079947
v 0.366682 0.951262 0.075215
v 0.440654 0.926859 0.103353
v 0.437379 0.918969 0.097975
v 0.482709 0.876657 0.132727
v 0.477746 0.870821 0.126154
v 0.497961 0.815400 0.159223
v 0.492295 0.812402 0.151425
v 0.492583 0.747457 0.175987
v 0.487102 0.747100 0.167518
v 0.475347 0.670934 0.181959
v 0.470206 0.672128 0.173355
v 0.449731 0.583363 0.168808
v 0.060509 0.025630 0.025000
v 0.082916 0.110852 0.058088
v 0.091541 0.164127 0.075445
v 0.098145 0.223892 0.092889
v 0.102399 0.287529 0.109729
v 0.104078 0.352668 0.125399
v 0.102989 0.416990 0.139363
v 0.098937 0.478180 0.151088
v 0.091930 0.534375 0.160134
v 0.082799 0.585535 0.166438
v 0.062290 0.674459 0.171001
v 0.045599 0.748485 0.165256
v 0.040567 0.811288 0.149807
v 0.054247 0.866319 0.126011
v 0.092055 0.911402 0.099624
v 0.159241 0.942030 0.078028
v 0.205496 0.950385 0.071477
v 0.261541 0.953300 0.069075
v 0.315087 0.950385 0.071477
v 0.363719 0.942030 0.078028
v 0.430906 0.911402 0.099624
v 0.468714 0.866319 0.126011
v 0.482393 0.811288 0.149807
v 0.477362 0.748485 0.165257
v 0.460671 0.674458 0.171001
v 0.068289 0.025631 0.028721
v 0.091509 0.107695 0.062343
v 0.100303 0.161751 0.079985
v 0.106894 0.221848 0.097490
v 0.111141 0.285845 0.114403
v 0.112836 0.351446 0.130186
v 0.111757 0.416315 0.144282
v 0.107679 0.478116 0.156135
v 0.100593 0.534957 0.165286
v 0.091351 0.586731 0.171666
v 0.070635 0.676560 0.176277
v 0.053892 0.750799 0.170527
v 0.048904 0.812714 0.155317
v 0.062059 0.865787 0.132382
v 0.097934 0.908588 0.107332
v 0.162077 0.937790 0.086738
v 0.206440 0.945863 0.080406
v 0.261541 0.948706 0.078064
v 0.313784 0.945863 0.080406
v 0.360884 0.937790 0.086738
v 0.425027 0.908588 0.107332
v 0.069811 0.025632 0.037120
v 0.094069 0.104041 0.071398
v 0.102994 0.158696 0.089258
v 0.109572 0.219030 0.106806
v 0.113812 0.283273 0.123767
v 0.115518 0.349191 0.139627
v 0.114447 0.414437 0.153816
v 0.110353 0.476664 0.165760
v 0.103211 0.533971 0.174988
v 0.093876 0.586252 0.181427
v 0.072901 0.677201 0.186093
v 0.055879 0.752688 0.180242
v 0.050793 0.815841 0.164728
v 0.064073 0.869537 0.141535
v 0.099774 0.912177 0.116586
v 0.163122 0.941023 0.096244
v 0.206804 0.949001 0.089986
v 0.261541 0.951815 0.087668
v 0.313288 0.949001 0.089986
v 0.359838 0.941023 0.096244
v 0.423186 0.912177 0.116586
v 0.064741 0.025634 0.045292
v 0.089096 0.102032 0.079950
v 0.098036 0.156751 0.097834
v 0.104610 0.217088 0.115379
v 0.108846 0.281319 0.132334
v 0.110553 0.347222 0.148192
v 0.109485 0.412455 0.162379
v 0.105394 0.474674 0.174324
v 0.098251 0.531997 0.183555
v 0.088896 0.584377 0.190005
v 0.067761 0.676006 0.194698
v 0.050397 0.753045 0.188710
v 0.045127 0.818839 0.172526
v 0.059110 0.875373 0.148108
v 0.096499 0.920068 0.121963
v 0.161767 0.949834 0.100976
v 0.206374 0.957957 0.094606
v 0.261541 0.960803 0.092261
v 0.313889 0.957957 0.094605
v 0.361194 0.949834 0.100976
v 0.426462 0.920068 0.121962
v 0.458887 0.869537 0.141535
v 0.463850 0.875373 0.148107
v 0.472168 0.815841 0.164727
v 0.477833 0.818839 0.172525
v 0.467082 0.752688 0.180242
v 0.472564 0.753045 0.188710
v 0.450059 0.677201 0.186093
v 0.455200 0.676006 0.194698
v 0.434065 0.584377 0.190005
v 0.055932 0.025634 0.048996
v 0.079504 0.102843 0.082989
v 0.088334 0.157055 0.100687
v 0.094914 0.217159 0.118187
v 0.099153 0.281127 0.135087
v 0.100850 0.346693 0.150863
v 0.099777 0.411530 0.164956
v 0.095706 0.473313 0.176811
v 0.088618 0.530189 0.185970
v 0.079327 0.582205 0.192374
v 0.058225 0.673676 0.197051
v 0.040657 0.751660 0.190972
v 0.035226 0.819950 0.174143
v 0.050078 0.879878 0.148250
v 0.090025 0.927635 0.120315
v 0.158804 0.959066 0.098163
v 0.205403 0.967490 0.091558
v 0.261541 0.970409 0.089153
v 0.315236 0.967490 0.091558
v 0.364156 0.959066 0.098162
v 0.432935 0.927635 0.120315
v 0.472883 0.879878 0.148250
v 0.487735 0.819950 0.174144
v 0.482303 0.751660 0.190972
v 0.048002 0.025634 0.046109
v 0.070912 0.105999 0.078734
v 0.079572 0.159428 0.096148
v 0.086165 0.219200 0.113585
v 0.090410 0.282811 0.130413
v 0.092091 0.347915 0.146075
v 0.091009 0.412206 0.160037
v 0.086964 0.473378 0.171764
v 0.079955 0.529608 0.180817
v 0.070775 0.581008 0.187147
v 0.049880 0.671575 0.191775
v 0.032365 0.749346 0.185701
v 0.026889 0.818527 0.168633
v 0.042266 0.880410 0.141879
v 0.084147 0.930448 0.112606
v 0.155969 0.963306 0.089452
v 0.204459 0.972012 0.082629
v 0.261541 0.975000 0.080164
v 0.316539 0.972012 0.082629
v 0.366992 0.963306 0.089452
v 0.438813 0.930448 0.112606
v 0.474958 0.025634 0.046110
v 0.477306 0.025632 0.037812
v 0.452049 0.105999 0.078734
v 0.454609 0.109651 0.069679
v 0.443389 0.159430 0.096148
v 0.446080 0.162486 0.086874
v 0.436796 0.219200 0.113585
v 0.439473 0.222018 0.104270
v 0.432550 0.282811 0.130413
v 0.435221 0.285384 0.121049
v 0.430869 0.347915 0.146075
v 0.433551 0.350171 0.136634
v 0.431952 0.412206 0.160037
v 0.434642 0.414084 0.150504
v 0.435997 0.473378 0.171764
v 0.438671 0.474829 0.162139
v 0.443006 0.529608 0.180817
v 0.445624 0.530593 0.171115
v 0.452186 0.581008 0.187147
v 0.454712 0.581488 0.177385
v 0.473081 0.671575 0.191775
v 0.490596 0.749346 0.185701
v 0.496072 0.818527 0.168633
v 0.480694 0.880410 0.141879
v 0.467028 0.025634 0.048996
v 0.443457 0.102843 0.082989
v 0.434626 0.157055 0.100687
v 0.428046 0.217159 0.118187
v 0.423808 0.281127 0.135087
v 0.422111 0.346694 0.150863
v 0.423184 0.411530 0.164956
v 0.427254 0.473313 0.176811
v 0.434342 0.530189 0.185970
v 0.443633 0.582205 0.192374
v 0.464735 0.673676 0.197052
v 0.458221 0.025634 0.045293
v 0.433864 0.102032 0.079950
v 0.424925 0.156751 0.097834
v 0.418351 0.217088 0.115379
v 0.414115 0.281319 0.132334
v 0.412408 0.347222 0.148192
v 0.413476 0.412455 0.162380
v 0.417567 0.474674 0.174324
v 0.424709 0.531997 0.183555
v 0.453150 0.025632 0.037120
v 0.428892 0.104041 0.071398
v 0.419966 0.158696 0.089258
v 0.413388 0.219030 0.106806
v 0.409149 0.283273 0.123767
v 0.407442 0.349191 0.139628
v 0.408514 0.414437 0.153816
v 0.412607 0.476664 0.165760
v 0.419749 0.533971 0.174988
v 0.429084 0.586252 0.181427
v 0.454671 0.025631 0.028721
v 0.431452 0.107695 0.062343
v 0.422657 0.161751 0.079984
v 0.416066 0.221848 0.097490
v 0.411820 0.285845 0.114403
v 0.410125 0.351446 0.130186
v 0.411204 0.416315 0.144282
v 0.415282 0.478116 0.156135
v 0.422368 0.534957 0.165286
v 0.431610 0.586731 0.171666
v 0.452326 0.676560 0.176277
v 0.469070 0.750799 0.170527
v 0.474056 0.812714 0.155318
v 0.460902 0.865787 0.132382
v 0.462452 0.025630 0.025000
v 0.440045 0.110852 0.058089
v 0.431420 0.164127 0.075444
v 0.424815 0.223892 0.092888
v 0.420562 0.287529 0.109729
v 0.418882 0.352668 0.125399
v 0.419971 0.416990 0.139364
v 0.424024 0.478180 0.151088
v 0.431031 0.534375 0.160134
v 0.440162 0.585535 0.166439
v 0.472083 0.025631 0.028732
v 0.449637 0.111662 0.061127
v 0.441122 0.164431 0.078298
v 0.434511 0.223961 0.095697
v 0.430256 0.287338 0.112482
v 0.428586 0.352139 0.128070
v 0.429679 0.416066 0.141940
v 0.433712 0.476819 0.153576
v 0.440664 0.532568 0.162548
v 0.373725 0.477953 0.118442
v 0.377004 0.479581 0.109035
v 0.377730 0.523249 0.126343
v 0.380976 0.524529 0.116879
v 0.382660 0.567699 0.132054
v 0.385841 0.568340 0.122495
v 0.388016 0.610950 0.135786
v 0.391146 0.611142 0.126183
v 0.396397 0.652651 0.128161
v 0.393309 0.652755 0.137771
v 0.401102 0.692513 0.128633
v 0.398045 0.692886 0.138243
v 0.404759 0.730502 0.127822
v 0.401724 0.731102 0.137431
v 0.406861 0.766421 0.125955
v 0.403837 0.767164 0.135557
v 0.406899 0.800065 0.123248
v 0.403873 0.800858 0.132845
v 0.404312 0.831238 0.119910
v 0.401286 0.831976 0.129513
v 0.398387 0.859796 0.116139
v 0.395411 0.860331 0.125770
v 0.388396 0.885503 0.112144
v 0.385575 0.885666 0.121833
v 0.371210 0.907416 0.117983
v 0.373720 0.907721 0.108210
v 0.351803 0.924957 0.114517
v 0.353806 0.925739 0.104650
v 0.326971 0.937779 0.111738
v 0.328249 0.938932 0.101791
v 0.296590 0.945486 0.109929
v 0.297019 0.946822 0.099941
v 0.261452 0.948042 0.109288
v 0.261452 0.949420 0.099289
v 0.226757 0.946822 0.099941
v 0.227348 0.945486 0.109929
v 0.194712 0.938932 0.101791
v 0.195990 0.937779 0.111738
v 0.169154 0.925739 0.104650
v 0.171157 0.924957 0.114517
v 0.149241 0.907721 0.108210
v 0.151750 0.907416 0.117983
v 0.134565 0.885503 0.112144
v 0.137386 0.885666 0.121833
v 0.124574 0.859796 0.116139
v 0.127550 0.860331 0.125770
v 0.118649 0.831238 0.119911
v 0.121674 0.831976 0.129513
v 0.116062 0.800065 0.123248
v 0.119087 0.800858 0.132845
v 0.116099 0.766421 0.125955
v 0.119124 0.767164 0.135557
v 0.118203 0.730502 0.127822
v 0.121237 0.731102 0.137431
v 0.121859 0.692513 0.128633
v 0.124915 0.692886 0.138244
v 0.129652 0.652755 0.137771
v 0.364676 0.477734 0.122908
v 0.368708 0.523319 0.130858
v 0.373689 0.568276 0.136644
v 0.379080 0.611820 0.140407
v 0.384387 0.653728 0.142391
v 0.389125 0.693875 0.142862
v 0.392794 0.731989 0.142054
v 0.394896 0.767774 0.140196
v 0.394930 0.800970 0.137524
v 0.392393 0.831325 0.134273
v 0.386770 0.858562 0.130679
v 0.377552 0.882396 0.126979
v 0.364263 0.902506 0.123418
v 0.346444 0.918569 0.120244
v 0.323671 0.930328 0.117694
v 0.295508 0.937542 0.115999
v 0.261452 0.939995 0.115385
v 0.228849 0.937542 0.115999
v 0.199290 0.930328 0.117694
v 0.176516 0.918569 0.120244
v 0.355157 0.479052 0.119819
v 0.359195 0.524699 0.127778
v 0.364182 0.569733 0.133578
v 0.369568 0.613242 0.137340
v 0.374857 0.655000 0.139314
v 0.379565 0.694900 0.139782
v 0.383201 0.732644 0.138984
v 0.385275 0.767892 0.137155
v 0.385306 0.800334 0.134543
v 0.382839 0.829665 0.131401
v 0.377526 0.855525 0.127991
v 0.367237 0.875696 0.124661
v 0.356950 0.895869 0.121331
v 0.338615 0.908406 0.118750
v 0.320282 0.920943 0.116170
v 0.294407 0.927648 0.114594
v 0.261452 0.929998 0.114007
v 0.230381 0.927648 0.114594
v 0.202679 0.920943 0.116170
v 0.182091 0.910315 0.118477
v 0.350744 0.481135 0.110982
v 0.354763 0.526579 0.118908
v 0.359710 0.571217 0.124651
v 0.365055 0.614383 0.128380
v 0.370302 0.655826 0.130344
v 0.374966 0.695362 0.130808
v 0.378562 0.732683 0.130018
v 0.380611 0.767448 0.128214
v 0.380641 0.799325 0.125649
v 0.378225 0.827973 0.122579
v 0.373094 0.852999 0.119281
v 0.353552 0.891394 0.112945
v 0.318789 0.915120 0.108060
v 0.293932 0.921592 0.106537
v 0.261452 0.923900 0.105961
v 0.231047 0.921592 0.106537
v 0.204171 0.915120 0.108060
v 0.354024 0.482763 0.101575
v 0.358010 0.527860 0.109444
v 0.362891 0.571858 0.115093
v 0.368183 0.614575 0.118777
v 0.373391 0.655722 0.120735
v 0.378023 0.694990 0.121198
v 0.381597 0.732083 0.120409
v 0.383635 0.766705 0.118612
v 0.383666 0.798532 0.116051
v 0.381250 0.827235 0.112977
v 0.376070 0.852465 0.109650
v 0.367813 0.873944 0.106319
v 0.356063 0.891698 0.103173
v 0.340348 0.905817 0.100383
v 0.320067 0.916273 0.098113
v 0.294361 0.922928 0.096548
v 0.261452 0.925278 0.095962
v 0.230455 0.922928 0.096548
v 0.202894 0.916273 0.098113
v 0.169408 0.891394 0.112945
v 0.166898 0.891698 0.103173
v 0.149867 0.852999 0.119281
v 0.146890 0.852465 0.109650
v 0.144736 0.827973 0.122580
v 0.141710 0.827235 0.112977
v 0.142320 0.799325 0.125649
v 0.139295 0.798532 0.116051
v 0.142350 0.767448 0.128214
v 0.139325 0.766705 0.118612
v 0.144398 0.732683 0.130018
v 0.141364 0.732083 0.120409
v 0.147995 0.695362 0.130808
v 0.144938 0.694990 0.121198
v 0.152658 0.655826 0.130344
v 0.149570 0.655722 0.120734
v 0.157906 0.614383 0.128380
v 0.154778 0.614575 0.118777
v 0.160070 0.571858 0.115093
v 0.363073 0.482983 0.097109
v 0.367031 0.527789 0.104930
v 0.371863 0.571281 0.110502
v 0.377120 0.613705 0.114156
v 0.382313 0.654749 0.116115
v 0.386944 0.694001 0.116580
v 0.390526 0.731196 0.115786
v 0.392577 0.766095 0.113973
v 0.392611 0.798420 0.111373
v 0.390145 0.827886 0.108217
v 0.384711 0.854234 0.104740
v 0.375835 0.877211 0.101174
v 0.363009 0.896609 0.097738
v 0.345706 0.912205 0.094655
v 0.323367 0.923726 0.092157
v 0.295442 0.930869 0.090479
v 0.261452 0.933322 0.089865
v 0.228954 0.930869 0.090479
v 0.199594 0.923726 0.092157
v 0.177254 0.912205 0.094656
v 0.372591 0.481665 0.100198
v 0.376544 0.526410 0.108009
v 0.381369 0.569824 0.113568
v 0.386631 0.612283 0.117224
v 0.391842 0.653477 0.119191
v 0.396503 0.692975 0.119660
v 0.400120 0.730541 0.118857
v 0.402197 0.765976 0.117014
v 0.402233 0.799054 0.114353
v 0.399697 0.829546 0.111089
v 0.393955 0.857271 0.107429
v 0.384362 0.881999 0.103587
v 0.370323 0.903246 0.099825
v 0.351281 0.920459 0.096423
v 0.326756 0.933112 0.093681
v 0.296544 0.940766 0.091884
v 0.261452 0.943322 0.091243
v 0.227423 0.940766 0.091884
v 0.196204 0.933112 0.093681
v 0.171680 0.920459 0.096423
v 0.152638 0.903246 0.099825
v 0.138599 0.881999 0.103586
v 0.129006 0.857271 0.107429
v 0.123264 0.829546 0.111089
v 0.120727 0.799054 0.114353
v 0.120763 0.765976 0.117014
v 0.122841 0.730541 0.118857
v 0.126457 0.692975 0.119660
v 0.126563 0.652651 0.128161
v 0.150369 0.481665 0.100198
v 0.145956 0.479581 0.109034
v 0.146417 0.526410 0.108010
v 0.141985 0.524529 0.116879
v 0.141592 0.569824 0.113568
v 0.137120 0.568340 0.122495
v 0.136330 0.612283 0.117224
v 0.131816 0.611142 0.126183
v 0.131118 0.653477 0.119191
v 0.159888 0.482983 0.097109
v 0.155929 0.527789 0.104930
v 0.151098 0.571281 0.110502
v 0.145841 0.613705 0.114156
v 0.140647 0.654749 0.116115
v 0.136017 0.694001 0.116580
v 0.132435 0.731196 0.115786
v 0.130384 0.766095 0.113973
v 0.130351 0.798420 0.111373
v 0.132816 0.827886 0.108217
v 0.138250 0.854234 0.104740
v 0.147125 0.877211 0.101174
v 0.159952 0.896609 0.097738
v 0.168938 0.482763 0.101576
v 0.164951 0.527860 0.109444
v 0.156894 0.872081 0.106411
v 0.184896 0.903987 0.100643
v 0.172216 0.481135 0.110982
v 0.168197 0.526579 0.118908
v 0.163251 0.571217 0.124651
v 0.167803 0.479051 0.119819
v 0.163766 0.524699 0.127778
v 0.158779 0.569733 0.133578
v 0.153393 0.613242 0.137339
v 0.148104 0.655000 0.139314
v 0.143396 0.694900 0.139782
v 0.139760 0.732644 0.138984
v 0.137685 0.767892 0.137155
v 0.137654 0.800334 0.134543
v 0.140121 0.829665 0.131401
v 0.145435 0.855525 0.127991
v 0.153934 0.877608 0.124566
v 0.166011 0.895869 0.121331
v 0.158284 0.477734 0.122909
v 0.154253 0.523319 0.130858
v 0.149273 0.568276 0.136644
v 0.143881 0.611821 0.140407
v 0.138574 0.653728 0.142391
v 0.133836 0.693875 0.142862
v 0.130166 0.731989 0.142054
v 0.128065 0.767774 0.140196
v 0.128031 0.800970 0.137524
v 0.130568 0.831325 0.134273
v 0.136190 0.858562 0.130679
v 0.145408 0.882396 0.126979
v 0.158698 0.902506 0.123418
v 0.149235 0.477953 0.118442
v 0.145230 0.523249 0.126343
v 0.140301 0.567699 0.132054
v 0.134944 0.610951 0.135786
v 0.261416 0.528237 0.512645
v 0.186784 0.528234 0.497552
v 0.336058 0.528234 0.497597
v 0.081263 0.528216 0.391967
v 0.186893 0.528170 0.137173
v 0.081309 0.528189 0.242693
v 0.123447 0.528177 0.179273
v 0.123364 0.528227 0.455414
v 0.066214 0.528202 0.317326
v 0.261535 0.528167 0.122124
v 0.336168 0.528170 0.137218
v 0.441688 0.528189 0.242803
v 0.441642 0.528216 0.392076
v 0.399504 0.528227 0.455497
v 0.399587 0.528177 0.179357
v 0.456736 0.528202 0.317444
v 0.330345 0.542104 0.386294
v 0.351370 0.542098 0.354650
v 0.261475 0.544969 0.317382
v 0.358902 0.542092 0.317412
v 0.351393 0.542085 0.280169
v 0.330387 0.542079 0.248512
v 0.298744 0.542075 0.227487
v 0.261504 0.542074 0.219955
v 0.261446 0.542109 0.414809
v 0.298689 0.542108 0.407301
v 0.224207 0.542108 0.407278
v 0.192563 0.542104 0.386252
v 0.171557 0.542098 0.354596
v 0.164049 0.542092 0.317353
v 0.171579 0.542085 0.280114
v 0.192605 0.542079 0.248470
v 0.224262 0.542075 0.227464
f 1 2 3
f 4 3 2
f 4 5 3
f 4 6 5
f 7 5 6
f 7 6 8
f 7 8 9
f 8 6 10
f 4 10 6
f 4 2 10
f 3 5 11
f 12 11 5
f 12 13 11
f 12 14 13
f 3 11 1
f 15 1 11
f 13 15 11
f 9 16 17
f 18 17 16
f 18 5 17
f 18 19 5
f 20 5 19
f 20 19 21
f 20 21 22
f 16 23 18
f 19 18 23
f 23 24 19
f 21 19 24
f 9 17 25
f 5 25 17
f 5 7 25
f 25 7 9
f 20 22 26
f 27 26 22
f 27 28 26
f 27 29 28
f 30 28 29
f 30 29 31
f 30 31 5
f 32 5 31
f 32 12 5
f 32 14 12
f 20 26 5
f 28 5 26
f 28 30 5
f 14 32 33
f 31 33 32
f 31 29 33
f 34 35 36
f 37 36 35
f 37 38 36
f 37 39 38
f 40 38 39
f 40 39 41
f 40 41 42
f 43 42 41
f 43 44 42
f 43 45 44
f 46 44 45
f 46 45 47
f 46 47 48
f 49 48 47
f 49 50 48
f 49 51 50
f 52 50 51
f 52 51 22
f 52 22 21
f 50 52 53
f 54 53 52
f 54 55 53
f 54 56 55
f 21 24 52
f 54 52 24
f 24 23 54
f 57 54 23
f 57 56 54
f 57 58 56
f 59 56 58
f 59 58 60
f 59 60 61
f 62 61 60
f 62 63 61
f 62 64 63
f 65 63 64
f 65 64 34
f 34 64 35
f 2 35 64
f 2 37 35
f 2 1 37
f 39 37 1
f 39 1 15
f 39 15 41
f 13 41 15
f 13 43 41
f 13 14 43
f 45 43 14
f 45 14 33
f 45 33 47
f 29 47 33
f 29 27 47
f 2 64 10
f 8 10 64
f 64 62 8
f 60 8 62
f 60 9 8
f 60 58 9
f 16 9 58
f 16 58 57
f 16 57 23
f 47 27 49
f 51 49 27
f 22 51 27
f 34 36 66
f 67 66 36
f 67 68 66
f 67 69 68
f 70 68 69
f 70 69 40
f 70 40 71
f 42 71 40
f 42 72 71
f 42 44 72
f 73 72 44
f 73 44 46
f 73 46 48
f 36 38 67
f 69 67 38
f 69 38 40
f 70 71 68
f 72 68 71
f 72 73 68
f 63 65 74
f 75 74 65
f 75 68 74
f 75 66 68
f 66 75 34
f 65 34 75
f 63 74 61
f 76 61 74
f 76 59 61
f 76 77 59
f 56 59 77
f 56 77 78
f 56 78 55
f 79 55 78
f 79 80 55
f 79 68 80
f 81 80 68
f 81 68 82
f 81 82 50
f 48 50 82
f 74 68 76
f 77 76 68
f 79 78 68
f 77 68 78
f 50 53 81
f 80 81 53
f 53 55 80
f 68 73 82
f 48 82 73
f 83 84 85
f 86 85 84
f 86 87 85
f 88 86 89
f 90 89 86
f 90 91 89
f 92 90 93
f 94 93 90
f 94 95 93
f 96 94 97
f 84 97 94
f 84 98 97
f 86 84 90
f 94 90 84
f 99 100 101
f 102 101 100
f 102 103 101
f 104 102 105
f 106 105 102
f 106 107 105
f 108 106 109
f 110 109 106
f 110 111 109
f 112 110 113
f 100 113 110
f 100 114 113
f 102 100 106
f 110 106 100
f 108 109 115
f 111 115 109
f 111 116 115
f 111 110 116
f 117 116 110
f 117 110 112
f 117 112 118
f 113 118 112
f 113 119 118
f 113 114 119
f 120 119 114
f 120 114 100
f 120 100 121
f 99 121 100
f 99 122 121
f 99 101 122
f 123 122 101
f 123 101 103
f 123 103 124
f 125 124 103
f 125 84 124
f 125 98 84
f 103 102 125
f 126 125 102
f 126 98 125
f 126 97 98
f 124 84 123
f 83 123 84
f 83 85 123
f 123 85 122
f 87 122 85
f 87 121 122
f 87 86 121
f 120 121 86
f 120 86 88
f 120 88 119
f 89 119 88
f 89 118 119
f 89 91 118
f 117 118 91
f 117 91 90
f 117 90 116
f 92 116 90
f 92 115 116
f 92 93 115
f 127 115 93
f 127 93 128
f 127 128 108
f 106 108 128
f 115 127 108
f 93 95 128
f 129 128 95
f 129 106 128
f 129 107 106
f 102 104 126
f 105 126 104
f 105 130 126
f 105 107 130
f 129 130 107
f 126 130 97
f 96 97 130
f 130 129 96
f 94 96 129
f 95 94 129
f 131 132 133
f 134 133 132
f 134 135 133
f 136 134 137
f 138 137 134
f 138 139 137
f 140 138 141
f 142 141 138
f 142 143 141
f 144 142 145
f 132 145 142
f 132 146 145
f 134 132 138
f 142 138 132
f 147 148 149
f 150 149 148
f 150 151 149
f 152 150 153
f 154 153 150
f 154 155 153
f 156 154 157
f 158 157 154
f 158 159 157
f 160 158 161
f 148 161 158
f 148 162 161
f 150 148 154
f 158 154 148
f 131 133 163
f 164 163 133
f 164 147 163
f 164 148 147
f 147 149 163
f 165 163 149
f 165 131 163
f 165 132 131
f 133 135 164
f 166 164 135
f 166 162 164
f 166 161 162
f 135 134 166
f 167 166 134
f 167 161 166
f 167 160 161
f 162 148 164
f 134 136 167
f 168 167 136
f 168 160 167
f 168 169 160
f 158 160 169
f 158 169 159
f 168 136 169
f 137 169 136
f 137 139 169
f 149 151 165
f 170 165 151
f 170 132 165
f 170 146 132
f 151 150 170
f 171 170 150
f 171 146 170
f 171 145 146
f 145 171 144
f 172 144 171
f 172 142 144
f 172 173 142
f 143 142 173
f 143 173 174
f 143 174 141
f 175 141 174
f 175 176 141
f 175 156 176
f 177 176 156
f 177 156 157
f 177 157 159
f 141 176 140
f 177 140 176
f 177 138 140
f 177 139 138
f 156 175 154
f 155 154 175
f 175 174 155
f 153 155 174
f 174 173 153
f 152 153 173
f 173 172 152
f 150 152 172
f 172 171 150
f 139 177 178
f 159 178 177
f 159 169 178
f 178 169 139
f 179 180 181
f 182 181 180
f 182 183 181
f 182 184 183
f 185 183 184
f 183 185 186
f 187 186 185
f 187 188 186
f 187 189 188
f 190 188 189
f 190 189 191
f 190 191 192
f 193 192 191
f 191 194 193
f 195 193 194
f 194 196 195
f 197 195 196
f 196 198 197
f 199 197 198
f 198 200 199
f 201 199 200
f 200 202 201
f 203 201 202
f 202 204 203
f 205 203 204
f 204 206 205
f 207 205 206
f 207 208 205
f 207 209 208
f 210 208 209
f 210 209 211
f 210 211 212
f 213 212 211
f 213 214 212
f 213 215 214
f 216 214 215
f 216 215 217
f 216 217 218
f 219 218 217
f 219 220 218
f 219 221 220
f 222 179 223
f 181 223 179
f 181 224 223
f 181 183 224
f 225 224 183
f 225 183 186
f 225 186 226
f 188 226 186
f 188 227 226
f 188 190 227
f 228 227 190
f 228 190 192
f 228 192 229
f 193 229 192
f 193 230 229
f 193 195 230
f 231 230 195
f 231 195 197
f 231 197 232
f 199 232 197
f 199 233 232
f 199 201 233
f 234 233 201
f 234 201 203
f 234 203 235
f 205 235 203
f 205 236 235
f 205 208 236
f 237 236 208
f 237 208 210
f 237 210 238
f 212 238 210
f 212 239 238
f 212 214 239
f 216 239 214
f 240 222 241
f 223 241 222
f 223 242 241
f 223 224 242
f 243 242 224
f 243 224 225
f 243 225 244
f 226 244 225
f 226 245 244
f 226 227 245
f 246 245 227
f 246 227 228
f 246 228 247
f 229 247 228
f 229 248 247
f 229 230 248
f 249 248 230
f 249 230 231
f 249 231 250
f 232 250 231
f 232 251 250
f 232 233 251
f 252 251 233
f 252 233 234
f 252 234 253
f 235 253 234
f 235 254 253
f 235 236 254
f 255 254 236
f 255 236 237
f 255 237 256
f 238 256 237
f 238 257 256
f 238 239 257
f 258 257 239
f 258 239 259
f 258 259 260
f 261 260 259
f 261 262 260
f 261 263 262
f 264 262 263
f 264 263 265
f 264 265 266
f 267 266 265
f 267 268 266
f 267 269 268
f 270 268 269
f 270 269 271
f 270 271 272
f 273 272 271
f 273 274 272
f 273 275 274
f 240 241 276
f 277 276 241
f 241 242 277
f 278 277 242
f 242 243 278
f 279 278 243
f 243 244 279
f 280 279 244
f 244 245 280
f 281 280 245
f 245 246 281
f 282 281 246
f 282 246 283
f 247 283 246
f 247 284 283
f 247 248 284
f 285 284 248
f 285 248 249
f 285 249 286
f 250 286 249
f 250 287 286
f 250 251 287
f 288 287 251
f 288 251 252
f 288 252 253
f 288 253 289
f 254 289 253
f 254 290 289
f 254 255 290
f 291 290 255
f 291 255 256
f 291 256 292
f 257 292 256
f 257 293 292
f 257 258 293
f 294 293 258
f 294 258 260
f 294 260 295
f 262 295 260
f 262 296 295
f 262 297 296
f 276 277 298
f 299 298 277
f 277 278 299
f 300 299 278
f 278 279 300
f 301 300 279
f 279 280 301
f 302 301 280
f 280 281 302
f 303 302 281
f 281 282 303
f 304 303 282
f 304 282 305
f 283 305 282
f 283 306 305
f 283 284 306
f 307 306 284
f 307 284 285
f 307 285 308
f 286 308 285
f 286 309 308
f 286 287 309
f 310 309 287
f 310 287 288
f 310 288 311
f 289 311 288
f 289 290 311
f 311 290 312
f 291 312 290
f 291 313 312
f 291 292 313
f 314 313 292
f 314 292 293
f 314 293 315
f 294 315 293
f 294 316 315
f 294 295 316
f 317 316 295
f 317 295 296
f 317 296 318
f 319 318 296
f 320 298 321
f 299 321 298
f 299 322 321
f 299 300 322
f 323 322 300
f 323 300 301
f 323 301 324
f 302 324 301
f 302 325 324
f 302 303 325
f 326 325 303
f 326 303 304
f 326 304 305
f 326 305 327
f 306 327 305
f 306 328 327
f 306 307 328
f 329 328 307
f 329 307 330
f 307 308 330
f 331 330 308
f 308 309 331
f 332 331 309
f 309 310 332
f 333 332 310
f 310 311 333
f 312 333 311
f 312 334 333
f 312 313 334
f 335 334 313
f 335 313 314
f 335 314 336
f 315 336 314
f 315 337 336
f 315 338 337
f 339 320 340
f 321 340 320
f 321 341 340
f 321 322 341
f 342 341 322
f 342 322 323
f 342 323 343
f 324 343 323
f 324 344 343
f 324 325 344
f 345 344 325
f 345 325 326
f 345 326 346
f 327 346 326
f 327 347 346
f 327 328 347
f 348 347 328
f 348 328 329
f 348 329 330
f 348 330 349
f 331 349 330
f 331 350 349
f 331 332 350
f 351 350 332
f 351 332 352
f 332 333 352
f 353 352 333
f 333 334 353
f 354 353 334
f 339 340 180
f 182 180 340
f 340 341 182
f 184 182 341
f 184 341 185
f 342 185 341
f 342 187 185
f 342 343 187
f 344 187 343
f 187 344 189
f 345 189 344
f 345 191 189
f 345 194 191
f 345 346 194
f 196 194 346
f 346 347 196
f 198 196 347
f 347 348 198
f 200 198 348
f 348 349 200
f 202 200 349
f 349 350 202
f 204 202 350
f 350 351 204
f 206 204 351
f 351 352 206
f 353 206 352
f 353 207 206
f 353 354 207
f 209 207 354
f 209 354 355
f 209 355 211
f 356 211 355
f 356 213 211
f 356 357 213
f 215 213 357
f 215 357 358
f 215 358 217
f 359 217 358
f 359 219 217
f 359 360 219
f 359 361 360
f 362 360 361
f 361 363 362
f 364 362 363
f 364 365 362
f 364 366 365
f 367 365 366
f 367 366 368
f 366 369 368
f 370 368 369
f 370 369 371
f 334 335 354
f 355 354 335
f 335 336 355
f 356 355 336
f 336 337 356
f 357 356 337
f 337 338 357
f 358 357 338
f 338 372 358
f 359 358 372
f 372 373 359
f 361 359 373
f 373 374 361
f 363 361 374
f 374 375 363
f 364 363 375
f 375 376 364
f 366 364 376
f 376 377 366
f 369 366 377
f 377 378 369
f 371 369 378
f 371 378 379
f 315 316 338
f 372 338 316
f 316 317 372
f 373 372 317
f 317 318 373
f 374 373 318
f 318 319 374
f 375 374 319
f 319 380 375
f 376 375 380
f 380 381 376
f 377 376 381
f 381 382 377
f 378 377 382
f 382 383 378
f 379 378 383
f 379 383 384
f 296 297 319
f 380 319 297
f 297 385 380
f 381 380 385
f 385 386 381
f 382 381 386
f 386 387 382
f 383 382 387
f 387 388 383
f 384 383 388
f 389 384 388
f 262 264 297
f 385 297 264
f 264 266 385
f 386 385 266
f 266 268 386
f 387 386 268
f 268 270 387
f 388 387 270
f 270 272 388
f 389 388 272
f 274 389 272
f 239 216 259
f 218 259 216
f 218 261 259
f 218 220 261
f 263 261 220
f 263 220 265
f 220 221 265
f 267 265 221
f 221 390 267
f 269 267 390
f 390 391 269
f 271 269 391
f 391 392 271
f 273 271 392
f 392 393 273
f 275 273 393
f 275 393 394
f 219 360 221
f 390 221 360
f 360 362 390
f 391 390 362
f 362 365 391
f 392 391 365
f 365 367 392
f 368 392 367
f 368 393 392
f 368 370 393
f 394 393 370
f 222 240 179
f 298 179 240
f 298 339 179
f 298 320 339
f 298 240 276
f 180 179 339
f 379 384 371
f 274 371 384
f 274 394 371
f 274 275 394
f 274 384 389
f 370 371 394
f 395 396 397
f 398 397 396
f 398 399 397
f 398 400 399
f 401 399 400
f 401 400 402
f 401 402 403
f 404 403 402
f 404 405 403
f 404 406 405
f 407 405 406
f 407 406 408
f 407 408 409
f 410 409 408
f 410 411 409
f 410 412 411
f 413 411 412
f 413 412 414
f 413 414 415
f 416 415 414
f 416 417 415
f 415 417 418
f 419 418 417
f 419 420 418
f 419 421 420
f 422 420 421
f 422 421 423
f 422 423 424
f 425 424 423
f 423 426 425
f 427 425 426
f 426 428 427
f 429 427 428
f 428 430 429
f 431 429 430
f 431 432 429
f 431 433 432
f 434 432 433
f 434 433 435
f 434 435 436
f 437 436 435
f 437 438 436
f 437 439 438
f 440 438 439
f 440 439 441
f 440 441 442
f 443 442 441
f 443 444 442
f 443 445 444
f 446 395 447
f 397 447 395
f 397 448 447
f 397 399 448
f 449 448 399
f 449 399 401
f 449 401 403
f 449 403 450
f 405 450 403
f 405 451 450
f 405 407 451
f 452 451 407
f 452 407 409
f 452 409 453
f 411 453 409
f 411 454 453
f 411 413 454
f 455 454 413
f 455 413 415
f 455 415 456
f 418 456 415
f 418 457 456
f 418 458 457
f 418 420 458
f 459 458 420
f 420 422 459
f 460 459 422
f 422 424 460
f 461 460 424
f 424 425 461
f 462 461 425
f 425 427 462
f 463 462 427
f 427 429 463
f 432 463 429
f 432 464 463
f 432 434 464
f 465 464 434
f 465 434 436
f 465 436 466
f 438 466 436
f 438 467 466
f 438 440 467
f 468 467 440
f 468 440 442
f 468 442 469
f 470 469 442
f 471 446 472
f 447 472 446
f 447 473 472
f 447 448 473
f 474 473 448
f 474 448 449
f 474 449 475
f 450 475 449
f 450 476 475
f 450 451 476
f 477 476 451
f 477 451 452
f 477 452 478
f 453 478 452
f 453 454 478
f 478 454 479
f 455 479 454
f 455 480 479
f 455 456 480
f 481 480 456
f 481 456 457
f 481 457 482
f 458 482 457
f 458 483 482
f 458 484 483
f 458 459 484
f 460 484 459
f 460 485 484
f 460 461 485
f 486 485 461
f 486 461 462
f 486 462 487
f 488 487 462
f 462 463 488
f 489 488 463
f 463 464 489
f 490 489 464
f 464 465 490
f 491 490 465
f 492 471 493
f 472 493 471
f 472 494 493
f 472 473 494
f 495 494 473
f 495 473 474
f 495 474 496
f 475 496 474
f 475 497 496
f 475 476 497
f 498 497 476
f 498 476 477
f 498 477 499
f 478 499 477
f 478 500 499
f 478 479 500
f 501 500 479
f 501 479 480
f 501 480 481
f 501 481 502
f 482 502 481
f 482 503 502
f 482 483 503
f 504 503 483
f 504 483 484
f 504 484 505
f 485 505 484
f 485 506 505
f 485 486 506
f 507 506 486
f 507 486 487
f 507 487 508
f 488 508 487
f 488 509 508
f 488 510 509
f 488 489 510
f 511 510 489
f 489 490 511
f 512 511 490
f 513 492 514
f 493 514 492
f 493 515 514
f 493 494 515
f 516 515 494
f 516 494 495
f 516 495 517
f 496 517 495
f 496 518 517
f 496 497 518
f 519 518 497
f 519 497 498
f 519 498 520
f 499 520 498
f 499 521 520
f 499 500 521
f 522 521 500
f 522 500 501
f 522 501 523
f 502 523 501
f 502 503 523
f 523 503 524
f 504 524 503
f 504 525 524
f 504 505 525
f 526 525 505
f 526 505 506
f 526 506 527
f 528 527 506
f 506 507 528
f 529 528 507
f 507 508 529
f 509 529 508
f 509 530 529
f 509 510 530
f 531 530 510
f 531 510 511
f 531 511 532
f 512 532 511
f 512 533 532
f 512 534 533
f 535 533 534
f 535 534 536
f 535 536 537
f 538 537 536
f 538 539 537
f 538 540 539
f 541 539 540
f 541 540 542
f 543 513 544
f 514 544 513
f 514 545 544
f 514 515 545
f 546 545 515
f 546 515 516
f 546 516 547
f 517 547 516
f 517 548 547
f 517 518 548
f 519 548 518
f 548 519 549
f 520 549 519
f 520 550 549
f 520 521 550
f 551 550 521
f 551 521 522
f 551 522 552
f 523 552 522
f 523 553 552
f 523 524 553
f 554 553 524
f 554 524 525
f 554 525 555
f 556 555 525
f 525 526 556
f 557 556 526
f 526 527 557
f 558 557 527
f 527 528 558
f 559 558 528
f 528 529 559
f 560 559 529
f 529 530 560
f 531 560 530
f 531 561 560
f 531 532 561
f 562 561 532
f 562 532 533
f 562 533 563
f 535 563 533
f 535 564 563
f 535 537 564
f 565 564 537
f 565 537 566
f 567 543 568
f 544 568 543
f 544 569 568
f 544 545 569
f 570 569 545
f 570 545 546
f 570 546 571
f 547 571 546
f 547 572 571
f 547 548 572
f 549 572 548
f 572 549 573
f 550 573 549
f 550 574 573
f 550 551 574
f 575 574 551
f 575 551 552
f 575 552 576
f 553 576 552
f 553 577 576
f 553 554 577
f 578 577 554
f 578 554 555
f 578 555 579
f 580 579 555
f 555 556 580
f 557 580 556
f 557 581 580
f 557 558 581
f 582 581 558
f 582 558 559
f 582 559 583
f 560 583 559
f 560 584 583
f 560 585 584
f 560 561 585
f 586 585 561
f 561 562 586
f 587 586 562
f 396 567 398
f 568 398 567
f 568 400 398
f 568 569 400
f 402 400 569
f 402 569 570
f 402 570 404
f 571 404 570
f 571 406 404
f 571 572 406
f 408 406 572
f 408 572 573
f 408 573 410
f 574 410 573
f 574 412 410
f 574 575 412
f 414 412 575
f 414 575 576
f 414 576 416
f 577 416 576
f 577 578 416
f 416 578 417
f 579 417 578
f 579 419 417
f 579 580 419
f 421 419 580
f 421 580 581
f 421 581 423
f 582 423 581
f 582 426 423
f 582 583 426
f 428 426 583
f 428 583 584
f 428 584 430
f 431 430 584
f 584 585 431
f 433 431 585
f 585 586 433
f 435 433 586
f 588 589 590
f 591 590 589
f 591 592 590
f 591 593 592
f 594 592 593
f 594 593 595
f 594 595 596
f 597 596 595
f 597 598 596
f 597 599 598
f 600 598 599
f 600 599 601
f 600 601 602
f 603 602 601
f 603 604 602
f 603 605 604
f 606 604 605
f 606 605 607
f 606 607 443
f 606 443 608
f 441 608 443
f 441 609 608
f 441 439 609
f 610 609 439
f 610 439 437
f 610 437 611
f 435 611 437
f 435 587 611
f 435 586 587
f 588 590 612
f 613 612 590
f 590 592 613
f 614 613 592
f 592 594 614
f 615 614 594
f 594 596 615
f 616 615 596
f 596 598 616
f 617 616 598
f 617 598 618
f 600 618 598
f 600 619 618
f 600 602 619
f 620 619 602
f 620 602 604
f 620 604 621
f 606 621 604
f 606 622 621
f 606 608 622
f 566 622 608
f 566 608 609
f 566 609 565
f 610 565 609
f 610 611 565
f 565 611 564
f 563 564 611
f 611 587 563
f 562 563 587
f 612 613 623
f 624 623 613
f 613 614 624
f 625 624 614
f 614 615 625
f 626 625 615
f 615 616 626
f 627 626 616
f 616 617 627
f 628 627 617
f 628 617 629
f 618 629 617
f 618 630 629
f 618 619 630
f 631 630 619
f 631 619 620
f 631 620 542
f 621 542 620
f 621 541 542
f 621 622 541
f 539 541 622
f 539 622 566
f 539 566 537
f 632 623 633
f 624 633 623
f 624 634 633
f 624 625 634
f 635 634 625
f 635 625 626
f 635 626 636
f 627 636 626
f 627 637 636
f 627 628 637
f 638 637 628
f 638 628 629
f 638 629 639
f 630 639 629
f 630 640 639
f 630 631 640
f 641 640 631
f 641 631 542
f 641 542 540
f 642 632 643
f 633 643 632
f 633 644 643
f 633 634 644
f 645 644 634
f 645 634 635
f 645 635 646
f 636 646 635
f 636 647 646
f 636 637 647
f 648 647 637
f 648 637 638
f 648 638 649
f 639 649 638
f 639 650 649
f 639 640 650
f 651 650 640
f 651 640 641
f 651 641 652
f 540 652 641
f 540 538 652
f 652 538 653
f 536 653 538
f 536 654 653
f 536 534 654
f 655 654 534
f 655 534 512
f 655 512 491
f 490 491 512
f 642 643 656
f 657 656 643
f 643 644 657
f 658 657 644
f 644 645 658
f 659 658 645
f 645 646 659
f 660 659 646
f 646 647 660
f 661 660 647
f 647 648 661
f 662 661 648
f 648 649 662
f 663 662 649
f 663 649 664
f 650 664 649
f 650 665 664
f 650 651 665
f 470 665 651
f 470 651 652
f 470 652 469
f 653 469 652
f 653 468 469
f 653 654 468
f 655 468 654
f 468 655 467
f 466 467 655
f 655 491 466
f 465 466 491
f 656 657 666
f 667 666 657
f 657 658 667
f 668 667 658
f 658 659 668
f 669 668 659
f 669 659 670
f 660 670 659
f 660 671 670
f 660 661 671
f 672 671 661
f 672 661 662
f 672 662 673
f 663 673 662
f 663 674 673
f 663 664 674
f 445 674 664
f 445 664 665
f 445 665 444
f 470 444 665
f 470 442 444
f 589 666 591
f 667 591 666
f 667 593 591
f 667 668 593
f 595 593 668
f 595 668 669
f 595 669 597
f 670 597 669
f 670 599 597
f 670 671 599
f 601 599 671
f 601 671 672
f 601 672 603
f 673 603 672
f 673 605 603
f 673 674 605
f 607 605 674
f 607 674 445
f 607 445 443
f 513 543 492
f 446 492 543
f 446 471 492
f 395 446 396
f 543 396 446
f 543 567 396
f 588 612 589
f 656 589 612
f 656 666 589
f 642 656 632
f 612 632 656
f 612 623 632
f 675 676 677
f 678 677 676
f 678 679 677
f 678 680 679
f 681 679 680
f 681 680 682
f 681 682 683
f 681 683 684
f 685 684 683
f 685 686 684
f 685 687 686
f 688 686 687
f 688 687 689
f 688 689 690
f 691 690 689
f 691 692 690
f 691 693 692
f 694 692 693
f 694 693 695
f 694 695 696
f 697 696 695
f 697 698 696
f 697 699 698
f 697 700 699
f 701 699 700
f 700 702 701
f 703 701 702
f 702 704 703
f 705 703 704
f 704 706 705
f 707 705 706
f 706 708 707
f 709 707 708
f 709 710 707
f 709 711 710
f 712 710 711
f 712 711 713
f 712 713 714
f 715 714 713
f 715 716 714
f 715 717 716
f 718 716 717
f 718 717 719
f 718 719 720
f 721 720 719
f 721 722 720
f 721 723 722
f 724 722 723
f 724 723 725
f 724 725 726
f 727 726 725
f 727 728 726
f 727 729 728
f 730 728 729
f 730 729 731
f 732 675 733
f 677 733 675
f 677 734 733
f 677 679 734
f 735 734 679
f 735 679 681
f 735 681 736
f 684 736 681
f 684 737 736
f 684 686 737
f 738 737 686
f 738 686 688
f 738 688 739
f 690 739 688
f 690 740 739
f 690 692 740
f 694 740 692
f 740 694 741
f 696 741 694
f 696 742 741
f 696 698 742
f 743 742 698
f 743 698 699
f 743 699 744
f 701 744 699
f 701 745 744
f 701 703 745
f 746 745 703
f 746 703 705
f 746 705 747
f 707 747 705
f 707 748 747
f 707 710 748
f 749 748 710
f 749 710 750
f 710 712 750
f 751 750 712
f 752 732 753
f 733 753 732
f 733 754 753
f 733 734 754
f 755 754 734
f 755 734 735
f 755 735 756
f 736 756 735
f 736 757 756
f 736 737 757
f 758 757 737
f 758 737 738
f 758 738 759
f 739 759 738
f 739 760 759
f 739 740 760
f 741 760 740
f 760 741 761
f 742 761 741
f 742 762 761
f 742 743 762
f 763 762 743
f 763 743 744
f 763 744 764
f 745 764 744
f 745 765 764
f 745 746 765
f 766 765 746
f 766 746 747
f 766 747 767
f 748 767 747
f 748 768 767
f 748 749 768
f 769 768 749
f 769 749 770
f 749 750 770
f 771 770 750
f 772 752 773
f 753 773 752
f 753 774 773
f 753 754 774
f 775 774 754
f 775 754 755
f 775 755 776
f 756 776 755
f 756 777 776
f 756 757 777
f 758 777 757
f 777 758 778
f 759 778 758
f 759 779 778
f 759 760 779
f 780 779 760
f 780 760 761
f 780 761 781
f 762 781 761
f 762 782 781
f 762 763 782
f 764 782 763
f 782 764 783
f 765 783 764
f 765 766 783
f 783 766 784
f 767 784 766
f 767 785 784
f 767 768 785
f 786 785 768
f 786 768 769
f 786 769 787
f 788 787 769
f 769 770 788
f 771 788 770
f 789 772 790
f 773 790 772
f 773 791 790
f 773 774 791
f 792 791 774
f 792 774 775
f 792 775 793
f 776 793 775
f 776 794 793
f 776 777 794
f 778 794 777
f 794 778 795
f 779 795 778
f 779 796 795
f 779 780 796
f 797 796 780
f 797 780 781
f 797 781 798
f 782 798 781
f 782 799 798
f 782 783 799
f 800 799 783
f 800 783 801
f 802 784 803
f 804 803 784
f 784 785 804
f 805 804 785
f 785 786 805
f 787 805 786
f 787 806 805
f 787 788 806
f 807 806 788
f 807 788 808
f 807 808 809
f 810 809 808
f 810 811 809
f 810 812 811
f 813 811 812
f 813 812 814
f 813 814 815
f 816 815 814
f 816 817 815
f 816 818 817
f 819 817 818
f 819 818 820
f 819 820 821
f 822 821 820
f 822 823 821
f 822 824 823
f 825 823 824
f 825 824 826
f 784 801 783
f 802 801 784
f 827 789 828
f 790 828 789
f 790 829 828
f 790 791 829
f 830 829 791
f 830 791 792
f 830 792 831
f 793 831 792
f 793 832 831
f 793 794 832
f 833 832 794
f 833 794 795
f 833 795 834
f 796 834 795
f 796 835 834
f 796 797 835
f 798 835 797
f 835 798 836
f 799 836 798
f 799 837 836
f 799 800 837
f 838 837 800
f 838 800 801
f 838 801 839
f 802 839 801
f 802 840 839
f 802 803 840
f 841 840 803
f 841 803 804
f 841 804 842
f 805 842 804
f 805 843 842
f 805 844 843
f 805 806 844
f 845 844 806
f 806 807 845
f 846 845 807
f 847 827 848
f 828 848 827
f 828 849 848
f 828 829 849
f 850 849 829
f 850 829 830
f 850 830 851
f 831 851 830
f 831 852 851
f 831 832 852
f 853 852 832
f 853 832 833
f 853 833 854
f 834 854 833
f 834 835 854
f 854 835 855
f 836 855 835
f 836 856 855
f 836 837 856
f 857 856 837
f 857 837 838
f 857 838 858
f 839 858 838
f 839 859 858
f 839 840 859
f 860 859 840
f 860 840 841
f 860 841 861
f 842 861 841
f 842 862 861
f 842 843 862
f 863 862 843
f 863 843 864
f 843 844 864
f 865 864 844
f 844 845 865
f 866 865 845
f 676 847 678
f 848 678 847
f 848 680 678
f 848 849 680
f 682 680 849
f 682 849 850
f 682 850 683
f 851 683 850
f 851 685 683
f 851 852 685
f 687 685 852
f 687 852 853
f 687 853 854
f 687 854 689
f 855 689 854
f 855 691 689
f 855 856 691
f 693 691 856
f 693 856 857
f 693 857 695
f 858 695 857
f 858 697 695
f 858 859 697
f 700 697 859
f 700 859 860
f 700 860 702
f 704 702 860
f 860 861 704
f 706 704 861
f 861 862 706
f 708 706 862
f 862 863 708
f 864 708 863
f 864 709 708
f 864 865 709
f 711 709 865
f 711 865 866
f 711 866 713
f 867 713 866
f 867 715 713
f 867 868 715
f 717 715 868
f 717 868 869
f 717 869 719
f 870 719 869
f 870 721 719
f 870 871 721
f 723 721 871
f 723 871 872
f 723 872 725
f 873 725 872
f 873 727 725
f 873 874 727
f 729 727 874
f 729 874 875
f 876 877 878
f 879 878 877
f 879 880 878
f 879 881 880
f 882 880 881
f 882 881 883
f 882 883 884
f 875 884 883
f 875 874 884
f 876 878 885
f 886 885 878
f 878 880 886
f 887 886 880
f 880 882 887
f 888 887 882
f 882 884 888
f 889 888 884
f 884 874 889
f 890 889 874
f 874 873 890
f 891 890 873
f 873 872 891
f 892 891 872
f 892 872 893
f 871 893 872
f 871 894 893
f 871 870 894
f 895 894 870
f 895 870 869
f 895 869 896
f 868 896 869
f 868 897 896
f 868 867 897
f 846 897 867
f 846 867 866
f 846 866 845
f 885 886 898
f 899 898 886
f 886 887 899
f 826 899 887
f 887 888 826
f 825 826 888
f 888 889 825
f 823 825 889
f 889 890 823
f 821 823 890
f 890 891 821
f 819 821 891
f 891 892 819
f 817 819 892
f 892 893 817
f 815 817 893
f 815 893 813
f 894 813 893
f 894 811 813
f 894 895 811
f 900 811 895
f 900 895 896
f 900 896 809
f 897 809 896
f 897 901 809
f 897 846 901
f 807 901 846
f 902 898 903
f 899 903 898
f 899 904 903
f 899 826 904
f 824 904 826
f 900 811 809
f 901 807 809
f 905 902 906
f 903 906 902
f 903 907 906
f 903 904 907
f 908 907 904
f 908 904 824
f 908 824 909
f 822 909 824
f 822 910 909
f 822 820 910
f 911 910 820
f 911 820 818
f 911 818 816
f 911 816 912
f 814 912 816
f 814 913 912
f 814 812 913
f 914 913 812
f 914 812 810
f 914 810 915
f 808 915 810
f 808 916 915
f 808 917 916
f 808 788 917
f 917 788 771
f 905 906 918
f 919 918 906
f 906 907 919
f 920 919 907
f 907 908 920
f 921 920 908
f 908 909 921
f 922 921 909
f 909 910 922
f 923 922 910
f 910 911 923
f 924 923 911
f 911 912 924
f 925 924 912
f 912 913 925
f 926 925 913
f 926 913 927
f 914 927 913
f 914 928 927
f 914 915 928
f 929 928 915
f 929 915 916
f 929 916 930
f 917 930 916
f 917 751 930
f 917 771 751
f 750 751 771
f 918 919 931
f 932 931 919
f 919 920 932
f 933 932 920
f 920 921 933
f 934 933 921
f 921 922 934
f 731 934 922
f 922 923 731
f 730 731 923
f 923 924 730
f 728 730 924
f 924 925 728
f 726 728 925
f 925 926 726
f 724 726 926
f 724 926 722
f 927 722 926
f 927 720 722
f 927 928 720
f 718 720 928
f 718 928 929
f 718 929 716
f 930 716 929
f 930 714 716
f 930 751 714
f 712 714 751
f 877 931 879
f 932 879 931
f 932 881 879
f 932 933 881
f 883 881 933
f 883 933 934
f 883 934 875
f 731 875 934
f 731 729 875
f 675 732 676
f 827 676 732
f 827 847 676
f 789 827 772
f 732 772 827
f 732 752 772
f 905 918 902
f 885 902 918
f 885 898 902
f 876 885 877
f 918 877 885
f 918 931 877
f 935 936 937
f 938 937 936
f 938 939 937
f 938 940 939
f 941 939 940
f 938 936 942
f 943 940 938
f 944 945 939
f 946 939 945
f 946 937 939
f 946 947 937
f 948 937 947
f 949 946 945
f 946 950 947
f 948 947 951
f 952 951 947
f 952 953 951
f 952 954 953
f 955 953 954
f 955 954 946
f 955 946 956
f 949 956 946
f 949 957 956
f 949 945 957
f 958 957 945
f 958 945 944
f 958 944 939
f 947 950 952
f 954 952 950
f 954 950 946
f 955 956 953
f 957 953 956
f 957 958 953
f 935 937 959
f 960 959 937
f 960 953 959
f 960 951 953
f 951 960 948
f 937 948 960
f 935 959 936
f 961 936 959
f 961 942 936
f 961 962 942
f 938 942 962
f 938 962 963
f 938 963 943
f 964 943 963
f 964 965 943
f 964 953 965
f 966 965 953
f 966 953 967
f 966 967 941
f 939 941 967
f 959 953 961
f 962 961 953
f 964 963 953
f 962 953 963
f 941 940 966
f 965 966 940
f 940 943 965
f 953 958 967
f 939 967 958
