# Unified Preprocessed OBJ file from m392.obj
# Applied remeshing: Yes
# Applied 4-step normalization: centering, PCA alignment, flipping, scaling
# Generated on 2025-09-29 15:04:13

v -0.113494 -0.121905 -0.000000
v -0.123006 -0.112727 0.040679
v 0.078729 0.077309 -0.000000
v 0.069217 0.086488 0.040679
v 0.028925 0.125365 -0.000000
v -0.163297 -0.073849 0.000000
v -0.147907 -0.088699 0.065821
v 0.044315 0.110515 0.065821
v -0.178688 -0.058999 0.065821
v 0.013535 0.140215 0.065821
v -0.203589 -0.034971 0.040680
v -0.011367 0.164243 0.040679
v -0.213101 -0.025793 0.000000
v -0.020879 0.173421 -0.000000
v -0.203589 -0.034971 -0.040679
v -0.011367 0.164243 -0.040680
v -0.178688 -0.058999 -0.065821
v 0.013534 0.140215 -0.065821
v -0.147907 -0.088699 -0.065821
v 0.044315 0.110515 -0.065821
v -0.123006 -0.112727 -0.040679
v 0.069217 0.086488 -0.040680
v -0.355520 -0.273064 0.000000
v 0.146442 0.396664 -0.138416
v -0.045781 0.197449 -0.138416
v 0.644479 -0.083893 -0.138416
v 0.452257 -0.283108 -0.138416
v 0.644480 -0.083893 0.138416
v 0.146442 0.396664 0.138416
v -0.045781 0.197449 0.138417
v 0.452257 -0.283108 0.138416
v 0.260034 -0.482323 -0.000000
v -0.238003 -0.001766 0.000000
v -0.118250 -0.117316 0.020340
v -0.022138 -0.017709 0.020340
v -0.017382 -0.022298 -0.000000
v -0.026894 -0.013120 0.040679
v 0.073973 0.081898 0.020340
v 0.053827 0.101337 -0.000000
v 0.049071 0.105926 0.020340
v -0.143152 -0.093288 0.020340
v -0.138396 -0.097877 0.000000
v -0.135456 -0.100713 0.053250
v -0.039345 -0.001106 0.053250
v -0.051796 0.010908 0.065821
v 0.056766 0.098501 0.053250
v 0.036620 0.117940 0.032910
v -0.155602 -0.081274 0.032910
v -0.163297 -0.073849 0.065821
v -0.067186 0.025758 0.065821
v -0.082577 0.040608 0.065821
v 0.028925 0.125365 0.065821
v 0.021230 0.132790 0.032910
v -0.170993 -0.066424 0.032910
v -0.191139 -0.046985 0.053250
v -0.095027 0.052622 0.053250
v -0.107478 0.064636 0.040679
v 0.001084 0.152229 0.053250
v 0.008779 0.144804 0.020340
v -0.183443 -0.054410 0.020340
v -0.208345 -0.030382 0.020340
v -0.112234 0.069225 0.020340
v -0.116990 0.073814 -0.000000
v -0.016123 0.168832 0.020340
v 0.004023 0.149393 -0.000000
v -0.188199 -0.049821 0.000000
v -0.208345 -0.030382 -0.020340
v -0.112234 0.069225 -0.020340
v -0.107478 0.064636 -0.040680
v -0.016123 0.168832 -0.020340
v 0.008779 0.144804 -0.020340
v -0.183443 -0.054410 -0.020340
v -0.191139 -0.046985 -0.053250
v -0.095028 0.052622 -0.053250
v -0.082577 0.040608 -0.065821
v 0.001084 0.152229 -0.053250
v 0.021230 0.132790 -0.032911
v -0.170993 -0.066424 -0.032910
v -0.163298 -0.073849 -0.065821
v -0.067186 0.025758 -0.065821
v -0.051796 0.010908 -0.065821
v 0.028925 0.125365 -0.065821
v 0.036620 0.117940 -0.032911
v -0.155602 -0.081274 -0.032910
v -0.135456 -0.100713 -0.053250
v -0.039345 -0.001106 -0.053250
v -0.026894 -0.013120 -0.040680
v 0.056766 0.098501 -0.053250
v 0.049071 0.105926 -0.020340
v -0.143152 -0.093288 -0.020340
v -0.118250 -0.117316 -0.020340
v -0.022138 -0.017709 -0.020340
v 0.073973 0.081898 -0.020340
v -0.239263 -0.192896 0.020340
v -0.234507 -0.197485 0.000000
v -0.251714 -0.180882 0.032911
v -0.267104 -0.166032 0.032911
v -0.279555 -0.154018 0.020340
v -0.284311 -0.149429 0.000000
v -0.279555 -0.154018 -0.020340
v -0.267104 -0.166032 -0.032910
v -0.251714 -0.180882 -0.032910
v -0.239263 -0.192896 -0.020340
v 0.050331 0.297056 -0.138416
v 0.299349 0.056778 -0.138416
v 0.395461 0.156385 -0.138416
v 0.203238 -0.042830 -0.138416
v 0.548368 -0.183501 -0.138416
v 0.395461 0.156385 0.000000
v 0.395461 0.156385 0.138416
v 0.146442 0.396664 0.000000
v 0.644480 -0.083893 -0.000000
v 0.050331 0.297056 0.000000
v 0.050331 0.297056 0.138417
v -0.045781 0.197449 0.000000
v 0.203238 -0.042830 0.138417
v 0.203238 -0.042830 0.000000
v 0.452257 -0.283108 0.000000
v 0.548368 -0.183501 0.000000
v 0.548368 -0.183501 0.138416
v 0.299349 0.056778 0.138416
v 0.356145 -0.382715 -0.069208
v 0.107127 -0.142437 -0.069208
v 0.356146 -0.382715 0.069208
v 0.107127 -0.142437 0.069208
v -0.141892 0.097842 0.069208
v -0.141892 0.097842 -0.069208
v 0.011016 -0.242044 -0.000000
f 1 34 36
f 34 2 35
f 35 3 36
f 34 35 36
f 2 37 35
f 37 4 38
f 38 3 35
f 37 38 35
f 5 39 40
f 39 3 38
f 38 4 40
f 39 38 40
f 2 43 37
f 43 7 44
f 44 4 37
f 43 44 37
f 7 45 44
f 45 8 46
f 46 4 44
f 45 46 44
f 5 40 47
f 40 4 46
f 46 8 47
f 40 46 47
f 48 43 41
f 7 49 45
f 49 9 50
f 50 8 45
f 49 50 45
f 9 51 50
f 51 10 52
f 52 8 50
f 51 52 50
f 5 47 53
f 47 8 52
f 52 10 53
f 47 52 53
f 9 55 51
f 55 11 56
f 56 10 51
f 55 56 51
f 11 57 56
f 57 12 58
f 58 10 56
f 57 58 56
f 5 53 59
f 53 10 58
f 58 12 59
f 53 58 59
f 11 61 57
f 61 13 62
f 62 12 57
f 61 62 57
f 13 63 62
f 63 14 64
f 64 12 62
f 63 64 62
f 5 59 65
f 59 12 64
f 64 14 65
f 59 64 65
f 13 67 63
f 67 15 68
f 68 14 63
f 67 68 63
f 15 69 68
f 69 16 70
f 70 14 68
f 69 70 68
f 5 65 71
f 65 14 70
f 70 16 71
f 65 70 71
f 72 67 66
f 15 73 69
f 73 17 74
f 74 16 69
f 73 74 69
f 17 75 74
f 75 18 76
f 76 16 74
f 75 76 74
f 5 71 77
f 71 16 76
f 76 18 77
f 71 76 77
f 17 79 75
f 79 19 80
f 80 18 75
f 79 80 75
f 19 81 80
f 81 20 82
f 82 18 80
f 81 82 80
f 5 77 83
f 77 18 82
f 82 20 83
f 77 82 83
f 19 85 81
f 85 21 86
f 86 20 81
f 85 86 81
f 21 87 86
f 87 22 88
f 88 20 86
f 87 88 86
f 5 83 89
f 83 20 88
f 88 22 89
f 83 88 89
f 21 91 87
f 91 1 92
f 92 22 87
f 91 92 87
f 1 36 92
f 36 3 93
f 93 22 92
f 36 93 92
f 5 89 39
f 89 22 93
f 93 3 39
f 89 93 39
f 23 94 95
f 94 2 34
f 34 1 95
f 94 34 95
f 6 42 41
f 42 34 41
f 23 96 94
f 96 7 43
f 43 2 94
f 96 43 94
f 41 43 48
f 23 97 96
f 97 9 49
f 49 7 96
f 97 49 96
f 6 48 54
f 48 49 54
f 23 98 97
f 98 11 55
f 55 9 97
f 98 55 97
f 54 55 60
f 23 99 98
f 99 13 61
f 61 11 98
f 99 61 98
f 6 60 66
f 60 61 66
f 23 100 99
f 100 15 67
f 67 13 99
f 100 67 99
f 66 67 72
f 23 101 100
f 101 17 73
f 73 15 100
f 101 73 100
f 6 72 78
f 72 73 78
f 23 102 101
f 102 19 79
f 79 17 101
f 102 79 101
f 6 78 84
f 78 79 84
f 23 103 102
f 103 21 85
f 85 19 102
f 103 85 102
f 6 84 90
f 84 85 90
f 23 95 103
f 95 1 91
f 91 21 103
f 95 91 103
f 6 90 42
f 90 91 42
f 24 104 106
f 104 25 105
f 105 26 106
f 104 105 106
f 26 105 108
f 105 107 108
f 24 109 111
f 109 28 110
f 110 29 111
f 109 110 111
f 24 106 109
f 106 26 112
f 112 28 109
f 106 112 109
f 24 111 104
f 111 29 113
f 113 25 104
f 111 113 104
f 25 113 115
f 113 29 114
f 114 30 115
f 113 114 115
f 26 119 112
f 119 31 120
f 120 28 112
f 119 120 112
f 26 108 119
f 108 118 119
f 28 121 110
f 121 30 114
f 114 29 110
f 121 114 110
f 28 120 121
f 120 116 121
f 25 107 117
f 107 27 118
f 118 31 117
f 107 118 117
f 25 107 123
f 107 27 122
f 122 32 123
f 107 122 123
f 30 116 125
f 116 31 124
f 124 32 125
f 116 124 125
f 126 33 127
f 115 126 127
f 124 32 122
f 118 124 122
f 25 117 115
f 117 31 116
f 116 30 115
f 117 116 115
f 25 123 127
f 123 32 128
f 128 33 127
f 123 128 127
f 30 125 126
f 125 32 128
f 128 33 126
f 125 128 126
