# Unified Preprocessed OBJ file from m474.obj
# Applied remeshing: Yes
# Applied 4-step normalization: centering, PCA alignment, flipping, scaling
# Generated on 2025-09-29 15:04:25

v 0.447201 0.491401 -0.147792
v 0.448132 0.489788 -0.147494
v 0.448600 0.490137 -0.147791
v 0.447551 0.489634 -0.147232
v 0.446929 0.489693 -0.147038
v 0.446338 0.489958 -0.146935
v 0.445852 0.490397 -0.146936
v 0.445529 0.490957 -0.147039
v 0.445406 0.491570 -0.147234
v 0.445502 0.492164 -0.147495
v 0.445800 0.492665 -0.147792
v 0.446269 0.493013 -0.148089
v 0.446850 0.493168 -0.148350
v 0.447473 0.493109 -0.148544
v 0.448062 0.492843 -0.148648
v 0.448549 0.492405 -0.148648
v 0.448873 0.491845 -0.148544
v 0.448994 0.491231 -0.148349
v 0.448900 0.490638 -0.148088
v 0.448867 0.490602 -0.145381
v 0.449334 0.490952 -0.145679
v 0.448286 0.490449 -0.145120
v 0.447663 0.490508 -0.144927
v 0.447073 0.490773 -0.144823
v 0.446587 0.491212 -0.144823
v 0.446263 0.491771 -0.144928
v 0.446141 0.492385 -0.145121
v 0.446236 0.492979 -0.145383
v 0.446535 0.493480 -0.145680
v 0.447003 0.493828 -0.145978
v 0.447584 0.493982 -0.146239
v 0.448207 0.493924 -0.146433
v 0.448796 0.493658 -0.146536
v 0.449283 0.493219 -0.146536
v 0.449607 0.492659 -0.146432
v 0.449728 0.492045 -0.146238
v 0.449635 0.491453 -0.145976
v 0.449601 0.491417 -0.143269
v 0.450069 0.491766 -0.143566
v 0.449020 0.491263 -0.143008
v 0.448397 0.491323 -0.142815
v 0.447807 0.491587 -0.142712
v 0.447320 0.492026 -0.142712
v 0.446998 0.492587 -0.142815
v 0.446875 0.493199 -0.143009
v 0.446970 0.493793 -0.143270
v 0.447269 0.494294 -0.143569
v 0.447738 0.494642 -0.143866
v 0.448318 0.494798 -0.144128
v 0.448941 0.494737 -0.144321
v 0.449531 0.494473 -0.144424
v 0.450018 0.494034 -0.144423
v 0.450341 0.493473 -0.144320
v 0.450463 0.492860 -0.144126
v 0.450369 0.492267 -0.143865
v 0.450336 0.492232 -0.141158
v 0.450803 0.492580 -0.141455
v 0.449756 0.492077 -0.140897
v 0.449132 0.492137 -0.140702
v 0.448542 0.492401 -0.140600
v 0.448056 0.492840 -0.140600
v 0.447732 0.493401 -0.140703
v 0.447610 0.494014 -0.140898
v 0.447704 0.494607 -0.141159
v 0.448004 0.495108 -0.141457
v 0.448472 0.495457 -0.141753
v 0.449052 0.495611 -0.142015
v 0.449675 0.495552 -0.142208
v 0.450265 0.495287 -0.142312
v 0.450752 0.494849 -0.142312
v 0.451076 0.494288 -0.142208
v 0.451197 0.493674 -0.142014
v 0.451104 0.493081 -0.141752
v 0.451070 0.493047 -0.139046
v 0.451538 0.493395 -0.139343
v 0.450490 0.492892 -0.138784
v 0.449866 0.492951 -0.138591
v 0.449276 0.493216 -0.138487
v 0.448790 0.493655 -0.138488
v 0.448467 0.494215 -0.138592
v 0.448344 0.494829 -0.138785
v 0.448439 0.495422 -0.139047
v 0.448738 0.495923 -0.139344
v 0.449207 0.496272 -0.139642
v 0.449787 0.496426 -0.139903
v 0.450410 0.496366 -0.140097
v 0.451000 0.496102 -0.140200
v 0.451487 0.495663 -0.140200
v 0.451810 0.495102 -0.140096
v 0.451932 0.494489 -0.139902
v 0.451838 0.493896 -0.139640
v 0.451804 0.493861 -0.136933
v 0.452272 0.494209 -0.137232
v 0.451224 0.493707 -0.136672
v 0.450600 0.493766 -0.136479
v 0.450011 0.494030 -0.136376
v 0.449525 0.494470 -0.136376
v 0.449201 0.495030 -0.136480
v 0.449079 0.495643 -0.136673
v 0.449173 0.496236 -0.136935
v 0.449472 0.496737 -0.137233
v 0.449941 0.497086 -0.137530
v 0.450521 0.497240 -0.137792
v 0.451144 0.497181 -0.137985
v 0.451734 0.496916 -0.138088
v 0.452220 0.496478 -0.138087
v 0.452545 0.495918 -0.137984
v 0.452666 0.495304 -0.137791
v 0.452572 0.494710 -0.137529
v 0.450872 0.495473 -0.137232
v 0.446971 0.490813 -0.146975
v 0.447823 0.489213 -0.147045
v 0.448317 0.489596 -0.146974
v 0.447226 0.489021 -0.147108
v 0.446598 0.489047 -0.147153
v 0.446016 0.489284 -0.147179
v 0.445548 0.489706 -0.147179
v 0.445252 0.490262 -0.147154
v 0.445164 0.490883 -0.147109
v 0.445292 0.491498 -0.147046
v 0.445625 0.492028 -0.146975
v 0.446119 0.492412 -0.146904
v 0.446715 0.492603 -0.146842
v 0.447344 0.492579 -0.146796
v 0.447926 0.492341 -0.146770
v 0.448394 0.491919 -0.146770
v 0.448690 0.491362 -0.146795
v 0.448778 0.490741 -0.146841
v 0.448648 0.490128 -0.146903
v 0.441615 0.482383 -0.066764
v 0.442110 0.482768 -0.066693
v 0.441018 0.482192 -0.066827
v 0.440391 0.482217 -0.066873
v 0.439808 0.482455 -0.066898
v 0.439340 0.482877 -0.066899
v 0.439045 0.483433 -0.066873
v 0.438956 0.484055 -0.066828
v 0.439085 0.484667 -0.066765
v 0.439417 0.485199 -0.066695
v 0.439910 0.485584 -0.066624
v 0.440509 0.485774 -0.066562
v 0.441136 0.485749 -0.066515
v 0.441718 0.485511 -0.066491
v 0.442186 0.485089 -0.066490
v 0.442483 0.484534 -0.066514
v 0.442571 0.483912 -0.066561
v 0.442441 0.483298 -0.066622
v 0.435408 0.475554 0.013515
v 0.435902 0.475938 0.013587
v 0.434810 0.475363 0.013453
v 0.434183 0.475388 0.013407
v 0.433600 0.475625 0.013382
v 0.433133 0.476048 0.013382
v 0.432836 0.476603 0.013406
v 0.432748 0.477225 0.013452
v 0.432877 0.477839 0.013514
v 0.433210 0.478369 0.013586
v 0.433704 0.478753 0.013657
v 0.434301 0.478944 0.013719
v 0.434928 0.478919 0.013765
v 0.435511 0.478682 0.013790
v 0.435978 0.478259 0.013790
v 0.436274 0.477704 0.013766
v 0.436363 0.477082 0.013720
v 0.436233 0.476469 0.013658
v 0.429200 0.468724 0.093796
v 0.429694 0.469108 0.093867
v 0.428603 0.468533 0.093734
v 0.427975 0.468558 0.093687
v 0.427392 0.468796 0.093663
v 0.426925 0.469218 0.093663
v 0.426629 0.469773 0.093687
v 0.426541 0.470395 0.093733
v 0.426670 0.471009 0.093795
v 0.427002 0.471539 0.093865
v 0.427496 0.471924 0.093936
v 0.428093 0.472115 0.093999
v 0.428721 0.472091 0.094045
v 0.429303 0.471852 0.094069
v 0.429770 0.471430 0.094070
v 0.430067 0.470874 0.094046
v 0.430155 0.470252 0.094000
v 0.430027 0.469639 0.093938
v 0.422992 0.461895 0.174076
v 0.423487 0.462279 0.174147
v 0.422395 0.461704 0.174015
v 0.421767 0.461728 0.173968
v 0.421186 0.461966 0.173942
v 0.420718 0.462388 0.173942
v 0.420421 0.462944 0.173967
v 0.420333 0.463566 0.174014
v 0.420463 0.464179 0.174075
v 0.420794 0.464711 0.174146
v 0.421289 0.465094 0.174217
v 0.421885 0.465286 0.174280
v 0.422513 0.465260 0.174326
v 0.423096 0.465023 0.174350
v 0.423563 0.464601 0.174350
v 0.423859 0.464045 0.174326
v 0.423947 0.463424 0.174281
v 0.423819 0.462810 0.174218
v 0.416785 0.455066 0.254357
v 0.417278 0.455449 0.254428
v 0.416188 0.454873 0.254294
v 0.415560 0.454899 0.254247
v 0.414978 0.455137 0.254223
v 0.414510 0.455559 0.254223
v 0.414214 0.456114 0.254247
v 0.414125 0.456736 0.254293
v 0.414255 0.457350 0.254356
v 0.414586 0.457880 0.254427
v 0.415081 0.458264 0.254497
v 0.415678 0.458456 0.254559
v 0.416305 0.458431 0.254606
v 0.416888 0.458193 0.254631
v 0.417356 0.457771 0.254631
v 0.417652 0.457216 0.254607
v 0.417740 0.456593 0.254560
v 0.417611 0.455980 0.254499
v 0.415933 0.456665 0.254427
v 0.414369 0.454850 -0.147024
v 0.417836 0.453785 -0.147021
v 0.417991 0.455034 -0.147020
v 0.417262 0.452662 -0.147022
v 0.416340 0.451804 -0.147023
v 0.415179 0.451314 -0.147025
v 0.413921 0.451250 -0.147026
v 0.412717 0.451620 -0.147027
v 0.411712 0.452379 -0.147028
v 0.411028 0.453437 -0.147028
v 0.410745 0.454665 -0.147027
v 0.410901 0.455916 -0.147027
v 0.411474 0.457037 -0.147025
v 0.412397 0.457895 -0.147024
v 0.413557 0.458386 -0.147023
v 0.414815 0.458450 -0.147021
v 0.416019 0.458080 -0.147021
v 0.417025 0.457320 -0.147020
v 0.417710 0.456263 -0.147020
v 0.417759 0.453744 -0.066211
v 0.417914 0.454995 -0.066212
v 0.417185 0.452623 -0.066212
v 0.416262 0.451765 -0.066214
v 0.415102 0.451274 -0.066215
v 0.413844 0.451209 -0.066216
v 0.412640 0.451580 -0.066217
v 0.411634 0.452340 -0.066219
v 0.410949 0.453397 -0.066219
v 0.410668 0.454625 -0.066219
v 0.410824 0.455875 -0.066218
v 0.411397 0.456997 -0.066217
v 0.412319 0.457855 -0.066216
v 0.413480 0.458346 -0.066214
v 0.414738 0.458410 -0.066213
v 0.415942 0.458040 -0.066212
v 0.416947 0.457281 -0.066211
v 0.417632 0.456222 -0.066211
v 0.417681 0.453704 0.014597
v 0.417837 0.454954 0.014598
v 0.417108 0.452582 0.014596
v 0.416185 0.451724 0.014595
v 0.415024 0.451234 0.014593
v 0.413767 0.451170 0.014592
v 0.412562 0.451540 0.014591
v 0.411557 0.452299 0.014591
v 0.410872 0.453357 0.014591
v 0.410590 0.454585 0.014591
v 0.410746 0.455835 0.014592
v 0.411319 0.456957 0.014593
v 0.412242 0.457815 0.014594
v 0.413403 0.458305 0.014595
v 0.414660 0.458369 0.014597
v 0.415865 0.458000 0.014598
v 0.416870 0.457240 0.014598
v 0.417555 0.456182 0.014598
v 0.417604 0.453664 0.095407
v 0.417759 0.454914 0.095408
v 0.417030 0.452542 0.095406
v 0.416108 0.451684 0.095404
v 0.414947 0.451194 0.095403
v 0.413689 0.451130 0.095402
v 0.412485 0.451499 0.095401
v 0.411480 0.452259 0.095399
v 0.410795 0.453317 0.095399
v 0.410513 0.454544 0.095399
v 0.410668 0.455795 0.095400
v 0.411242 0.456916 0.095401
v 0.412165 0.457774 0.095403
v 0.413325 0.458266 0.095404
v 0.414583 0.458330 0.095405
v 0.415787 0.457959 0.095406
v 0.416793 0.457200 0.095407
v 0.417478 0.456142 0.095407
v 0.417527 0.453624 0.176214
v 0.417681 0.454873 0.176215
v 0.416952 0.452501 0.176213
v 0.416030 0.451644 0.176212
v 0.414870 0.451153 0.176211
v 0.413611 0.451089 0.176209
v 0.412408 0.451460 0.176208
v 0.411402 0.452219 0.176208
v 0.410717 0.453276 0.176208
v 0.410436 0.454505 0.176208
v 0.410591 0.455754 0.176209
v 0.411165 0.456876 0.176210
v 0.412087 0.457735 0.176211
v 0.413248 0.458225 0.176213
v 0.414506 0.458289 0.176214
v 0.415710 0.457919 0.176215
v 0.416714 0.457159 0.176215
v 0.417400 0.456102 0.176215
v 0.417449 0.453583 0.257024
v 0.417604 0.454834 0.257025
v 0.416875 0.452462 0.257023
v 0.415953 0.451604 0.257022
v 0.414792 0.451113 0.257020
v 0.413534 0.451048 0.257019
v 0.412329 0.451419 0.257018
v 0.411325 0.452179 0.257017
v 0.410640 0.453236 0.257017
v 0.410358 0.454464 0.257018
v 0.410514 0.455714 0.257018
v 0.411087 0.456836 0.257019
v 0.412009 0.457694 0.257021
v 0.413170 0.458184 0.257022
v 0.414428 0.458249 0.257023
v 0.415633 0.457879 0.257024
v 0.416637 0.457120 0.257025
v 0.417323 0.456061 0.257025
v 0.413981 0.454649 0.257021
v -0.493472 0.443511 -0.148717
v -0.491860 0.444444 -0.148417
v -0.492208 0.444912 -0.148715
v -0.491706 0.443863 -0.148155
v -0.491766 0.443240 -0.147961
v -0.492030 0.442650 -0.147859
v -0.492469 0.442164 -0.147859
v -0.493029 0.441841 -0.147963
v -0.493643 0.441718 -0.148158
v -0.494235 0.441813 -0.148420
v -0.494737 0.442112 -0.148719
v -0.495085 0.442580 -0.149017
v -0.495239 0.443160 -0.149279
v -0.495179 0.443783 -0.149473
v -0.494914 0.444374 -0.149576
v -0.494475 0.444860 -0.149575
v -0.493915 0.445183 -0.149471
v -0.493301 0.445306 -0.149276
v -0.492709 0.445211 -0.149013
v -0.492677 0.445178 -0.146307
v -0.493025 0.445647 -0.146604
v -0.492524 0.444598 -0.146045
v -0.492583 0.443975 -0.145851
v -0.492848 0.443386 -0.145748
v -0.493288 0.442900 -0.145749
v -0.493847 0.442576 -0.145853
v -0.494460 0.442454 -0.146048
v -0.495054 0.442548 -0.146311
v -0.495554 0.442847 -0.146608
v -0.495902 0.443315 -0.146906
v -0.496056 0.443895 -0.147168
v -0.495997 0.444518 -0.147362
v -0.495732 0.445109 -0.147466
v -0.495292 0.445594 -0.147465
v -0.494732 0.445919 -0.147360
v -0.494119 0.446041 -0.147165
v -0.493526 0.445946 -0.146902
v -0.493495 0.445914 -0.144196
v -0.493843 0.446383 -0.144494
v -0.493341 0.445333 -0.143935
v -0.493400 0.444710 -0.143740
v -0.493666 0.444121 -0.143637
v -0.494105 0.443635 -0.143638
v -0.494664 0.443311 -0.143742
v -0.495277 0.443189 -0.143937
v -0.495871 0.443283 -0.144200
v -0.496372 0.443583 -0.144498
v -0.496719 0.444051 -0.144796
v -0.496873 0.444631 -0.145058
v -0.496814 0.445253 -0.145252
v -0.496549 0.445845 -0.145354
v -0.496109 0.446330 -0.145353
v -0.495549 0.446654 -0.145250
v -0.494937 0.446777 -0.145055
v -0.494345 0.446681 -0.144793
v -0.494312 0.446649 -0.142086
v -0.494661 0.447118 -0.142384
v -0.494159 0.446069 -0.141824
v -0.494218 0.445446 -0.141629
v -0.494483 0.444856 -0.141527
v -0.494922 0.444370 -0.141527
v -0.495482 0.444047 -0.141631
v -0.496096 0.443925 -0.141827
v -0.496688 0.444018 -0.142089
v -0.497189 0.444318 -0.142387
v -0.497537 0.444785 -0.142686
v -0.497691 0.445366 -0.142947
v -0.497631 0.445989 -0.143142
v -0.497366 0.446580 -0.143244
v -0.496928 0.447065 -0.143244
v -0.496368 0.447390 -0.143140
v -0.495754 0.447512 -0.142944
v -0.495161 0.447417 -0.142682
v -0.495130 0.447385 -0.139976
v -0.495479 0.447853 -0.140273
v -0.494977 0.446804 -0.139714
v -0.495036 0.446181 -0.139520
v -0.495301 0.445591 -0.139417
v -0.495740 0.445106 -0.139418
v -0.496299 0.444782 -0.139522
v -0.496913 0.444660 -0.139717
v -0.497506 0.444754 -0.139979
v -0.498007 0.445054 -0.140277
v -0.498355 0.445521 -0.140575
v -0.498509 0.446101 -0.140838
v -0.498450 0.446724 -0.141031
v -0.498184 0.447315 -0.141135
v -0.497745 0.447801 -0.141133
v -0.497185 0.448124 -0.141029
v -0.496571 0.448247 -0.140835
v -0.495979 0.448152 -0.140571
v -0.495948 0.448120 -0.137865
v -0.496296 0.448588 -0.138163
v -0.495794 0.447539 -0.137603
v -0.495854 0.446917 -0.137409
v -0.496118 0.446327 -0.137306
v -0.496557 0.445841 -0.137307
v -0.497118 0.445518 -0.137411
v -0.497730 0.445395 -0.137606
v -0.498323 0.445489 -0.137869
v -0.498824 0.445789 -0.138167
v -0.499172 0.446256 -0.138464
v -0.499327 0.446837 -0.138727
v -0.499267 0.447460 -0.138921
v -0.499002 0.448051 -0.139024
v -0.498563 0.448536 -0.139023
v -0.498003 0.448860 -0.138919
v -0.497390 0.448982 -0.138724
v -0.496796 0.448887 -0.138461
v -0.497560 0.447188 -0.138165
v -0.492885 0.443283 -0.147899
v -0.491285 0.444134 -0.147968
v -0.491670 0.444629 -0.147897
v -0.491093 0.443537 -0.148029
v -0.491119 0.442910 -0.148076
v -0.491357 0.442327 -0.148100
v -0.491779 0.441859 -0.148101
v -0.492334 0.441564 -0.148078
v -0.492956 0.441475 -0.148032
v -0.493570 0.441604 -0.147971
v -0.494100 0.441936 -0.147900
v -0.494484 0.442431 -0.147830
v -0.494677 0.443028 -0.147769
v -0.494651 0.443655 -0.147722
v -0.494414 0.444239 -0.147698
v -0.493992 0.444706 -0.147697
v -0.493436 0.445002 -0.147721
v -0.492814 0.445090 -0.147766
v -0.492200 0.444960 -0.147827
v -0.484572 0.437964 -0.067675
v -0.484956 0.438458 -0.067605
v -0.484381 0.437367 -0.067736
v -0.484406 0.436738 -0.067782
v -0.484644 0.436157 -0.067807
v -0.485066 0.435689 -0.067808
v -0.485622 0.435393 -0.067784
v -0.486243 0.435304 -0.067739
v -0.486857 0.435434 -0.067678
v -0.487388 0.435765 -0.067608
v -0.487772 0.436260 -0.067537
v -0.487963 0.436856 -0.067476
v -0.487939 0.437484 -0.067429
v -0.487702 0.438067 -0.067405
v -0.487279 0.438535 -0.067404
v -0.486723 0.438831 -0.067427
v -0.486101 0.438919 -0.067473
v -0.485488 0.438790 -0.067534
v -0.477860 0.431792 0.012619
v -0.478244 0.432287 0.012689
v -0.477669 0.431196 0.012557
v -0.477693 0.430568 0.012511
v -0.477932 0.429985 0.012485
v -0.478354 0.429518 0.012485
v -0.478909 0.429222 0.012509
v -0.479532 0.429134 0.012554
v -0.480144 0.429263 0.012615
v -0.480676 0.429595 0.012685
v -0.481060 0.430090 0.012755
v -0.481251 0.430686 0.012818
v -0.481226 0.431314 0.012863
v -0.480988 0.431897 0.012889
v -0.480566 0.432365 0.012889
v -0.480011 0.432660 0.012865
v -0.479388 0.432748 0.012820
v -0.478776 0.432620 0.012759
v -0.471148 0.425622 0.092912
v -0.471532 0.426117 0.092982
v -0.470957 0.425026 0.092850
v -0.470981 0.424398 0.092804
v -0.471218 0.423815 0.092778
v -0.471641 0.423348 0.092778
v -0.472197 0.423052 0.092802
v -0.472819 0.422963 0.092847
v -0.473432 0.423092 0.092908
v -0.473964 0.423425 0.092978
v -0.474348 0.423919 0.093048
v -0.474539 0.424516 0.093111
v -0.474514 0.425144 0.093156
v -0.474275 0.425726 0.093181
v -0.473854 0.426193 0.093181
v -0.473298 0.426489 0.093158
v -0.472676 0.426578 0.093114
v -0.472062 0.426449 0.093052
v -0.464435 0.419452 0.173205
v -0.464819 0.419947 0.173275
v -0.464243 0.418855 0.173143
v -0.464269 0.418228 0.173097
v -0.464506 0.417644 0.173072
v -0.464928 0.417176 0.173071
v -0.465484 0.416881 0.173095
v -0.466105 0.416793 0.173140
v -0.466720 0.416922 0.173202
v -0.467250 0.417254 0.173272
v -0.467634 0.417747 0.173341
v -0.467825 0.418345 0.173403
v -0.467800 0.418973 0.173449
v -0.467563 0.419555 0.173474
v -0.467141 0.420023 0.173475
v -0.466585 0.420319 0.173451
v -0.465963 0.420408 0.173406
v -0.465350 0.420278 0.173344
v -0.457722 0.413282 0.253497
v -0.458106 0.413775 0.253567
v -0.457531 0.412685 0.253436
v -0.457556 0.412056 0.253389
v -0.457794 0.411474 0.253365
v -0.458216 0.411007 0.253364
v -0.458772 0.410710 0.253388
v -0.459393 0.410621 0.253433
v -0.460007 0.410752 0.253494
v -0.460538 0.411083 0.253564
v -0.460922 0.411577 0.253634
v -0.461113 0.412174 0.253696
v -0.461089 0.412802 0.253743
v -0.460850 0.413385 0.253767
v -0.460428 0.413853 0.253768
v -0.459873 0.414148 0.253745
v -0.459251 0.414237 0.253699
v -0.458637 0.414107 0.253637
v -0.459323 0.412429 0.253566
v -0.456923 0.410680 -0.147881
v -0.455857 0.414147 -0.147878
v -0.457108 0.414303 -0.147879
v -0.454736 0.413574 -0.147877
v -0.453877 0.412652 -0.147877
v -0.453387 0.411491 -0.147877
v -0.453322 0.410233 -0.147877
v -0.453692 0.409029 -0.147878
v -0.454453 0.408024 -0.147879
v -0.455510 0.407339 -0.147881
v -0.456738 0.407057 -0.147882
v -0.457988 0.407212 -0.147883
v -0.459109 0.407786 -0.147884
v -0.459968 0.408709 -0.147884
v -0.460458 0.409869 -0.147884
v -0.460523 0.411127 -0.147884
v -0.460153 0.412331 -0.147883
v -0.459392 0.413337 -0.147882
v -0.458335 0.414021 -0.147880
v -0.455934 0.414108 -0.067069
v -0.457185 0.414263 -0.067070
v -0.454813 0.413534 -0.067068
v -0.453954 0.412611 -0.067068
v -0.453464 0.411451 -0.067068
v -0.453400 0.410193 -0.067069
v -0.453770 0.408988 -0.067070
v -0.454530 0.407983 -0.067071
v -0.455587 0.407298 -0.067072
v -0.456815 0.407017 -0.067074
v -0.458066 0.407172 -0.067075
v -0.459187 0.407746 -0.067075
v -0.460046 0.408668 -0.067076
v -0.460537 0.409829 -0.067076
v -0.460601 0.411086 -0.067075
v -0.460230 0.412291 -0.067074
v -0.459470 0.413296 -0.067073
v -0.458414 0.413981 -0.067072
v -0.456012 0.414067 0.013740
v -0.457262 0.414222 0.013739
v -0.454890 0.413493 0.013741
v -0.454032 0.412572 0.013742
v -0.453541 0.411410 0.013741
v -0.453478 0.410152 0.013741
v -0.453848 0.408948 0.013740
v -0.454607 0.407944 0.013739
v -0.455664 0.407258 0.013737
v -0.456893 0.406977 0.013736
v -0.458143 0.407131 0.013735
v -0.459265 0.407706 0.013734
v -0.460123 0.408628 0.013734
v -0.460614 0.409788 0.013734
v -0.460678 0.411047 0.013734
v -0.460308 0.412251 0.013735
v -0.459547 0.413256 0.013737
v -0.458491 0.413941 0.013738
v -0.456089 0.414027 0.094549
v -0.457340 0.414183 0.094548
v -0.454968 0.413454 0.094550
v -0.454110 0.412531 0.094550
v -0.453620 0.411371 0.094550
v -0.453554 0.410113 0.094549
v -0.453925 0.408908 0.094548
v -0.454685 0.407903 0.094547
v -0.455742 0.407217 0.094546
v -0.456970 0.406937 0.094545
v -0.458221 0.407092 0.094543
v -0.459342 0.407666 0.094543
v -0.460200 0.408588 0.094542
v -0.460691 0.409749 0.094542
v -0.460756 0.411007 0.094543
v -0.460385 0.412211 0.094544
v -0.459625 0.413216 0.094545
v -0.458568 0.413900 0.094547
v -0.456166 0.413986 0.175358
v -0.457417 0.414142 0.175356
v -0.455045 0.413413 0.175358
v -0.454187 0.412491 0.175359
v -0.453696 0.411330 0.175359
v -0.453633 0.410072 0.175358
v -0.454002 0.408868 0.175357
v -0.454763 0.407863 0.175356
v -0.455819 0.407178 0.175354
v -0.457048 0.406896 0.175353
v -0.458298 0.407051 0.175352
v -0.459420 0.407625 0.175351
v -0.460278 0.408548 0.175351
v -0.460769 0.409708 0.175351
v -0.460833 0.410966 0.175352
v -0.460462 0.412170 0.175353
v -0.459703 0.413176 0.175354
v -0.458646 0.413860 0.175355
v -0.456244 0.413947 0.256167
v -0.457495 0.414102 0.256166
v -0.455123 0.413373 0.256168
v -0.454264 0.412450 0.256168
v -0.453774 0.411290 0.256168
v -0.453710 0.410032 0.256168
v -0.454080 0.408828 0.256167
v -0.454840 0.407822 0.256165
v -0.455896 0.407137 0.256164
v -0.457126 0.406856 0.256163
v -0.458376 0.407011 0.256162
v -0.459497 0.407585 0.256161
v -0.460356 0.408507 0.256160
v -0.460846 0.409668 0.256161
v -0.460910 0.410926 0.256161
v -0.460540 0.412130 0.256162
v -0.459780 0.413135 0.256163
v -0.458723 0.413820 0.256165
v -0.457311 0.410479 0.256164
v -0.445830 -0.490635 -0.149136
v -0.446762 -0.489022 -0.148838
v -0.447230 -0.489370 -0.149137
v -0.446183 -0.488868 -0.148576
v -0.445561 -0.488928 -0.148381
v -0.444970 -0.489193 -0.148277
v -0.444483 -0.489631 -0.148277
v -0.444160 -0.490192 -0.148380
v -0.444037 -0.490805 -0.148575
v -0.444131 -0.491398 -0.148837
v -0.444430 -0.491899 -0.149136
v -0.444898 -0.492247 -0.149433
v -0.445478 -0.492401 -0.149697
v -0.446101 -0.492342 -0.149891
v -0.446691 -0.492077 -0.149996
v -0.447177 -0.491638 -0.149996
v -0.447501 -0.491078 -0.149892
v -0.447623 -0.490464 -0.149698
v -0.447529 -0.489872 -0.149436
v -0.447501 -0.489838 -0.146729
v -0.447969 -0.490187 -0.147027
v -0.446921 -0.489685 -0.146467
v -0.446298 -0.489744 -0.146272
v -0.445709 -0.490008 -0.146167
v -0.445222 -0.490449 -0.146167
v -0.444898 -0.491009 -0.146271
v -0.444776 -0.491622 -0.146466
v -0.444870 -0.492214 -0.146728
v -0.445169 -0.492715 -0.147026
v -0.445636 -0.493064 -0.147324
v -0.446217 -0.493218 -0.147587
v -0.446839 -0.493159 -0.147782
v -0.447429 -0.492894 -0.147886
v -0.447915 -0.492454 -0.147886
v -0.448239 -0.491894 -0.147783
v -0.448361 -0.491280 -0.147588
v -0.448268 -0.490688 -0.147326
v -0.448239 -0.490656 -0.144618
v -0.448708 -0.491004 -0.144918
v -0.447659 -0.490502 -0.144356
v -0.447037 -0.490560 -0.144162
v -0.446447 -0.490826 -0.144058
v -0.445960 -0.491265 -0.144057
v -0.445637 -0.491824 -0.144161
v -0.445514 -0.492438 -0.144355
v -0.445608 -0.493031 -0.144617
v -0.445907 -0.493533 -0.144916
v -0.446375 -0.493881 -0.145215
v -0.446955 -0.494034 -0.145478
v -0.447578 -0.493975 -0.145673
v -0.448168 -0.493710 -0.145776
v -0.448653 -0.493270 -0.145776
v -0.448977 -0.492710 -0.145674
v -0.449100 -0.492097 -0.145479
v -0.449006 -0.491505 -0.145216
v -0.448978 -0.491472 -0.142509
v -0.449446 -0.491820 -0.142808
v -0.448398 -0.491318 -0.142247
v -0.447775 -0.491378 -0.142051
v -0.447186 -0.491642 -0.141949
v -0.446699 -0.492081 -0.141948
v -0.446375 -0.492641 -0.142051
v -0.446253 -0.493255 -0.142246
v -0.446346 -0.493847 -0.142508
v -0.446646 -0.494349 -0.142806
v -0.447113 -0.494697 -0.143105
v -0.447693 -0.494851 -0.143368
v -0.448316 -0.494791 -0.143562
v -0.448906 -0.494526 -0.143667
v -0.449392 -0.494088 -0.143667
v -0.449717 -0.493528 -0.143563
v -0.449838 -0.492914 -0.143369
v -0.449744 -0.492322 -0.143106
v -0.449716 -0.492288 -0.140400
v -0.450185 -0.492638 -0.140698
v -0.449136 -0.492135 -0.140137
v -0.448514 -0.492194 -0.139942
v -0.447924 -0.492459 -0.139838
v -0.447437 -0.492899 -0.139837
v -0.447114 -0.493458 -0.139942
v -0.446991 -0.494071 -0.140136
v -0.447086 -0.494665 -0.140399
v -0.447384 -0.495165 -0.140696
v -0.447851 -0.495513 -0.140995
v -0.448432 -0.495667 -0.141258
v -0.449055 -0.495609 -0.141453
v -0.449645 -0.495342 -0.141557
v -0.450131 -0.494904 -0.141557
v -0.450455 -0.494344 -0.141453
v -0.450577 -0.493730 -0.141259
v -0.450482 -0.493138 -0.140996
v -0.450455 -0.493105 -0.138289
v -0.450922 -0.493454 -0.138589
v -0.449875 -0.492951 -0.138027
v -0.449252 -0.493010 -0.137832
v -0.448662 -0.493276 -0.137729
v -0.448176 -0.493715 -0.137728
v -0.447852 -0.494274 -0.137832
v -0.447731 -0.494888 -0.138025
v -0.447824 -0.495481 -0.138288
v -0.448122 -0.495982 -0.138587
v -0.448590 -0.496330 -0.138886
v -0.449170 -0.496485 -0.139148
v -0.449793 -0.496425 -0.139344
v -0.450383 -0.496160 -0.139446
v -0.450869 -0.495721 -0.139447
v -0.451193 -0.495160 -0.139344
v -0.451316 -0.494548 -0.139150
v -0.451221 -0.493954 -0.138887
v -0.449522 -0.494718 -0.138588
v -0.445602 -0.490047 -0.148318
v -0.446454 -0.488448 -0.148388
v -0.446948 -0.488832 -0.148319
v -0.445857 -0.488256 -0.148450
v -0.445229 -0.488281 -0.148494
v -0.444646 -0.488518 -0.148519
v -0.444179 -0.488941 -0.148519
v -0.443883 -0.489496 -0.148494
v -0.443795 -0.490119 -0.148449
v -0.443924 -0.490732 -0.148387
v -0.444256 -0.491263 -0.148317
v -0.444750 -0.491647 -0.148248
v -0.445347 -0.491839 -0.148187
v -0.445976 -0.491814 -0.148142
v -0.446558 -0.491575 -0.148118
v -0.447026 -0.491154 -0.148118
v -0.447322 -0.490598 -0.148142
v -0.447409 -0.489976 -0.148188
v -0.447280 -0.489362 -0.148249
v -0.440400 -0.481698 -0.068090
v -0.440894 -0.482082 -0.068020
v -0.439803 -0.481507 -0.068151
v -0.439175 -0.481531 -0.068196
v -0.438593 -0.481769 -0.068220
v -0.438125 -0.482191 -0.068220
v -0.437830 -0.482747 -0.068196
v -0.437741 -0.483369 -0.068150
v -0.437870 -0.483982 -0.068089
v -0.438202 -0.484514 -0.068018
v -0.438697 -0.484898 -0.067949
v -0.439293 -0.485089 -0.067888
v -0.439921 -0.485064 -0.067843
v -0.440504 -0.484826 -0.067819
v -0.440972 -0.484404 -0.067819
v -0.441267 -0.483848 -0.067843
v -0.441356 -0.483227 -0.067889
v -0.441227 -0.482612 -0.067950
v -0.434346 -0.474948 0.012209
v -0.434841 -0.475333 0.012278
v -0.433750 -0.474757 0.012148
v -0.433122 -0.474781 0.012103
v -0.432539 -0.475020 0.012079
v -0.432071 -0.475442 0.012079
v -0.431776 -0.475997 0.012103
v -0.431688 -0.476620 0.012149
v -0.431816 -0.477233 0.012210
v -0.432149 -0.477764 0.012280
v -0.432644 -0.478148 0.012349
v -0.433240 -0.478339 0.012411
v -0.433868 -0.478314 0.012457
v -0.434451 -0.478076 0.012479
v -0.434919 -0.477654 0.012479
v -0.435214 -0.477099 0.012456
v -0.435302 -0.476477 0.012410
v -0.435174 -0.475863 0.012348
v -0.428293 -0.468198 0.092508
v -0.428787 -0.468583 0.092578
v -0.427696 -0.468008 0.092447
v -0.427067 -0.468032 0.092402
v -0.426486 -0.468270 0.092377
v -0.426018 -0.468692 0.092377
v -0.425722 -0.469248 0.092403
v -0.425633 -0.469870 0.092448
v -0.425763 -0.470483 0.092509
v -0.426095 -0.471014 0.092579
v -0.426590 -0.471399 0.092648
v -0.427186 -0.471589 0.092710
v -0.427814 -0.471565 0.092755
v -0.428397 -0.471327 0.092778
v -0.428864 -0.470905 0.092778
v -0.429160 -0.470349 0.092754
v -0.429249 -0.469727 0.092709
v -0.429119 -0.469114 0.092647
v -0.422239 -0.461449 0.172807
v -0.422734 -0.461833 0.172877
v -0.421643 -0.461257 0.172746
v -0.421014 -0.461282 0.172700
v -0.420431 -0.461521 0.172676
v -0.419964 -0.461943 0.172677
v -0.419668 -0.462498 0.172701
v -0.419580 -0.463120 0.172747
v -0.419709 -0.463734 0.172808
v -0.420041 -0.464264 0.172878
v -0.420536 -0.464649 0.172947
v -0.421132 -0.464840 0.173008
v -0.421761 -0.464815 0.173054
v -0.422344 -0.464577 0.173077
v -0.422811 -0.464155 0.173077
v -0.423107 -0.463600 0.173053
v -0.423195 -0.462977 0.173007
v -0.423066 -0.462364 0.172945
v -0.416185 -0.454699 0.253105
v -0.416679 -0.455083 0.253175
v -0.415589 -0.454508 0.253045
v -0.414961 -0.454533 0.252999
v -0.414378 -0.454771 0.252975
v -0.413911 -0.455193 0.252976
v -0.413615 -0.455749 0.253000
v -0.413526 -0.456370 0.253046
v -0.413656 -0.456984 0.253106
v -0.413987 -0.457515 0.253176
v -0.414482 -0.457899 0.253246
v -0.415078 -0.458090 0.253307
v -0.415707 -0.458066 0.253353
v -0.416289 -0.457828 0.253376
v -0.416757 -0.457405 0.253376
v -0.417053 -0.456850 0.253352
v -0.417142 -0.456228 0.253306
v -0.417012 -0.455614 0.253244
v -0.415333 -0.456300 0.253175
v -0.413000 -0.454085 -0.148269
v -0.416468 -0.453019 -0.148272
v -0.416623 -0.454270 -0.148272
v -0.415894 -0.451898 -0.148270
v -0.414971 -0.451040 -0.148269
v -0.413811 -0.450550 -0.148268
v -0.412553 -0.450486 -0.148267
v -0.411349 -0.450854 -0.148266
v -0.410343 -0.451615 -0.148265
v -0.409659 -0.452673 -0.148265
v -0.409377 -0.453900 -0.148265
v -0.409533 -0.455151 -0.148266
v -0.410106 -0.456272 -0.148267
v -0.411028 -0.457130 -0.148268
v -0.412189 -0.457621 -0.148270
v -0.413447 -0.457685 -0.148271
v -0.414651 -0.457315 -0.148272
v -0.415656 -0.456556 -0.148273
v -0.416341 -0.455497 -0.148273
v -0.416545 -0.453060 -0.067463
v -0.416700 -0.454310 -0.067464
v -0.415971 -0.451938 -0.067462
v -0.415049 -0.451079 -0.067461
v -0.413888 -0.450589 -0.067459
v -0.412630 -0.450525 -0.067458
v -0.411426 -0.450895 -0.067457
v -0.410421 -0.451655 -0.067456
v -0.409736 -0.452712 -0.067456
v -0.409454 -0.453941 -0.067457
v -0.409610 -0.455191 -0.067457
v -0.410183 -0.456313 -0.067459
v -0.411106 -0.457171 -0.067460
v -0.412266 -0.457661 -0.067461
v -0.413524 -0.457725 -0.067462
v -0.414728 -0.457356 -0.067463
v -0.415734 -0.456596 -0.067464
v -0.416419 -0.455538 -0.067464
v -0.416622 -0.453099 0.013347
v -0.416778 -0.454350 0.013346
v -0.416049 -0.451978 0.013348
v -0.415126 -0.451120 0.013349
v -0.413965 -0.450630 0.013350
v -0.412708 -0.450566 0.013352
v -0.411503 -0.450936 0.013353
v -0.410498 -0.451696 0.013353
v -0.409813 -0.452752 0.013353
v -0.409531 -0.453980 0.013353
v -0.409687 -0.455231 0.013352
v -0.410261 -0.456352 0.013351
v -0.411183 -0.457210 0.013350
v -0.412344 -0.457702 0.013348
v -0.413602 -0.457766 0.013347
v -0.414807 -0.457395 0.013346
v -0.415811 -0.456636 0.013346
v -0.416496 -0.455578 0.013345
v -0.416700 -0.453141 0.094155
v -0.416855 -0.454390 0.094154
v -0.416126 -0.452018 0.094156
v -0.415204 -0.451160 0.094158
v -0.414044 -0.450670 0.094159
v -0.412785 -0.450606 0.094160
v -0.411581 -0.450976 0.094161
v -0.410576 -0.451735 0.094162
v -0.409891 -0.452793 0.094162
v -0.409610 -0.454021 0.094161
v -0.409765 -0.455272 0.094161
v -0.410339 -0.456393 0.094160
v -0.411260 -0.457251 0.094158
v -0.412421 -0.457741 0.094157
v -0.413680 -0.457805 0.094156
v -0.414884 -0.457436 0.094155
v -0.415888 -0.456676 0.094154
v -0.416573 -0.455618 0.094154
v -0.416777 -0.453180 0.174964
v -0.416932 -0.454431 0.174963
v -0.416203 -0.452059 0.174965
v -0.415281 -0.451201 0.174966
v -0.414121 -0.450711 0.174967
v -0.412862 -0.450646 0.174969
v -0.411658 -0.451015 0.174970
v -0.410654 -0.451776 0.174970
v -0.409968 -0.452833 0.174970
v -0.409687 -0.454061 0.174970
v -0.409842 -0.455311 0.174969
v -0.410416 -0.456433 0.174968
v -0.411338 -0.457291 0.174967
v -0.412498 -0.457782 0.174965
v -0.413757 -0.457846 0.174964
v -0.414961 -0.457476 0.174963
v -0.415966 -0.456717 0.174963
v -0.416651 -0.455658 0.174963
v -0.416854 -0.453220 0.255773
v -0.417011 -0.454470 0.255773
v -0.416282 -0.452099 0.255774
v -0.415359 -0.451240 0.255776
v -0.414198 -0.450750 0.255777
v -0.412941 -0.450686 0.255778
v -0.411735 -0.451056 0.255779
v -0.410731 -0.451816 0.255780
v -0.410045 -0.452872 0.255780
v -0.409764 -0.454102 0.255780
v -0.409920 -0.455352 0.255779
v -0.410493 -0.456474 0.255778
v -0.411416 -0.457331 0.255776
v -0.412577 -0.457822 0.255775
v -0.413834 -0.457886 0.255774
v -0.415039 -0.457516 0.255773
v -0.416044 -0.456757 0.255772
v -0.416728 -0.455699 0.255772
v -0.413387 -0.454287 0.255776
v 0.494838 -0.442661 -0.148211
v 0.493226 -0.443592 -0.147915
v 0.493573 -0.444061 -0.148213
v 0.493070 -0.443013 -0.147652
v 0.493130 -0.442391 -0.147458
v 0.493395 -0.441800 -0.147354
v 0.493833 -0.441314 -0.147354
v 0.494394 -0.440990 -0.147456
v 0.495007 -0.440867 -0.147649
v 0.495600 -0.440961 -0.147912
v 0.496102 -0.441260 -0.148209
v 0.496451 -0.441729 -0.148506
v 0.496605 -0.442308 -0.148768
v 0.496546 -0.442932 -0.148963
v 0.496282 -0.443521 -0.149067
v 0.495842 -0.444008 -0.149068
v 0.495282 -0.444332 -0.148965
v 0.494668 -0.444454 -0.148771
v 0.494075 -0.444359 -0.148510
v 0.494038 -0.444330 -0.145804
v 0.494387 -0.444798 -0.146102
v 0.493885 -0.443751 -0.145542
v 0.493943 -0.443127 -0.145347
v 0.494208 -0.442538 -0.145243
v 0.494648 -0.442051 -0.145242
v 0.495208 -0.441727 -0.145345
v 0.495822 -0.441605 -0.145539
v 0.496414 -0.441699 -0.145800
v 0.496915 -0.441998 -0.146098
v 0.497265 -0.442467 -0.146396
v 0.497418 -0.443045 -0.146658
v 0.497360 -0.443668 -0.146853
v 0.497095 -0.444258 -0.146957
v 0.496655 -0.444745 -0.146957
v 0.496096 -0.445069 -0.146855
v 0.495482 -0.445191 -0.146661
v 0.494888 -0.445098 -0.146399
v 0.494852 -0.445068 -0.143692
v 0.495201 -0.445536 -0.143990
v 0.494698 -0.444488 -0.143430
v 0.494756 -0.443865 -0.143235
v 0.495021 -0.443275 -0.143131
v 0.495461 -0.442788 -0.143130
v 0.496021 -0.442465 -0.143233
v 0.496635 -0.442342 -0.143427
v 0.497228 -0.442437 -0.143688
v 0.497730 -0.442735 -0.143986
v 0.498078 -0.443204 -0.144284
v 0.498233 -0.443783 -0.144546
v 0.498173 -0.444406 -0.144741
v 0.497909 -0.444996 -0.144845
v 0.497470 -0.445482 -0.144846
v 0.496909 -0.445806 -0.144743
v 0.496295 -0.445929 -0.144549
v 0.495703 -0.445835 -0.144288
v 0.495665 -0.445806 -0.141581
v 0.496014 -0.446273 -0.141879
v 0.495511 -0.445225 -0.141319
v 0.495570 -0.444602 -0.141124
v 0.495835 -0.444013 -0.141020
v 0.496275 -0.443526 -0.141019
v 0.496835 -0.443202 -0.141123
v 0.497448 -0.443080 -0.141317
v 0.498041 -0.443174 -0.141578
v 0.498543 -0.443473 -0.141876
v 0.498891 -0.443941 -0.142172
v 0.499046 -0.444521 -0.142435
v 0.498987 -0.445143 -0.142630
v 0.498722 -0.445734 -0.142733
v 0.498283 -0.446220 -0.142734
v 0.497723 -0.446544 -0.142631
v 0.497109 -0.446666 -0.142437
v 0.496516 -0.446572 -0.142176
v 0.496480 -0.446543 -0.139470
v 0.496828 -0.447011 -0.139768
v 0.496325 -0.445962 -0.139208
v 0.496384 -0.445340 -0.139013
v 0.496649 -0.444750 -0.138909
v 0.497088 -0.444263 -0.138908
v 0.497647 -0.443940 -0.139011
v 0.498262 -0.443818 -0.139205
v 0.498855 -0.443912 -0.139466
v 0.499356 -0.444211 -0.139764
v 0.499706 -0.444678 -0.140062
v 0.499859 -0.445259 -0.140324
v 0.499801 -0.445882 -0.140519
v 0.499535 -0.446472 -0.140623
v 0.499096 -0.446957 -0.140624
v 0.498536 -0.447281 -0.140521
v 0.497922 -0.447404 -0.140327
v 0.497329 -0.447309 -0.140066
v 0.497293 -0.447280 -0.137358
v 0.497641 -0.447748 -0.137656
v 0.497138 -0.446700 -0.137096
v 0.497198 -0.446077 -0.136901
v 0.497462 -0.445488 -0.136798
v 0.497901 -0.445002 -0.136798
v 0.498462 -0.444677 -0.136899
v 0.499075 -0.444556 -0.137093
v 0.499668 -0.444649 -0.137355
v 0.500170 -0.444948 -0.137652
v 0.500518 -0.445415 -0.137950
v 0.500673 -0.445996 -0.138213
v 0.500614 -0.446619 -0.138407
v 0.500349 -0.447209 -0.138511
v 0.499910 -0.447694 -0.138512
v 0.499350 -0.448019 -0.138409
v 0.498736 -0.448141 -0.138216
v 0.498143 -0.448047 -0.137954
v 0.498905 -0.446347 -0.137654
v 0.494250 -0.442432 -0.147394
v 0.492650 -0.443284 -0.147466
v 0.493034 -0.443778 -0.147396
v 0.492458 -0.442687 -0.147527
v 0.492483 -0.442059 -0.147573
v 0.492722 -0.441476 -0.147598
v 0.493144 -0.441008 -0.147597
v 0.493698 -0.440713 -0.147571
v 0.494321 -0.440625 -0.147524
v 0.494934 -0.440753 -0.147463
v 0.495464 -0.441086 -0.147392
v 0.495848 -0.441581 -0.147322
v 0.496040 -0.442177 -0.147260
v 0.496015 -0.442805 -0.147215
v 0.495778 -0.443388 -0.147190
v 0.495355 -0.443856 -0.147191
v 0.494800 -0.444151 -0.147217
v 0.494177 -0.444239 -0.147262
v 0.493564 -0.444110 -0.147325
v 0.485783 -0.437194 -0.067180
v 0.486167 -0.437687 -0.067109
v 0.485592 -0.436596 -0.067242
v 0.485617 -0.435968 -0.067287
v 0.485855 -0.435386 -0.067311
v 0.486277 -0.434919 -0.067311
v 0.486832 -0.434622 -0.067285
v 0.487454 -0.434533 -0.067239
v 0.488068 -0.434664 -0.067176
v 0.488598 -0.434995 -0.067106
v 0.488982 -0.435489 -0.067035
v 0.489173 -0.436086 -0.066973
v 0.489148 -0.436715 -0.066928
v 0.488911 -0.437297 -0.066904
v 0.488489 -0.437765 -0.066904
v 0.487933 -0.438061 -0.066930
v 0.487311 -0.438149 -0.066976
v 0.486698 -0.438019 -0.067039
v 0.478917 -0.431103 0.013107
v 0.479301 -0.431598 0.013177
v 0.478725 -0.430506 0.013045
v 0.478750 -0.429878 0.013000
v 0.478988 -0.429295 0.012975
v 0.479410 -0.428827 0.012976
v 0.479965 -0.428531 0.013002
v 0.480588 -0.428443 0.013047
v 0.481201 -0.428573 0.013110
v 0.481732 -0.428905 0.013181
v 0.482115 -0.429399 0.013251
v 0.482307 -0.429995 0.013312
v 0.482282 -0.430624 0.013358
v 0.482045 -0.431206 0.013382
v 0.481622 -0.431674 0.013381
v 0.481067 -0.431970 0.013356
v 0.480444 -0.432059 0.013309
v 0.479831 -0.431929 0.013248
v 0.472050 -0.425012 0.093392
v 0.472434 -0.425506 0.093462
v 0.471859 -0.424415 0.093331
v 0.471884 -0.423787 0.093285
v 0.472122 -0.423205 0.093262
v 0.472544 -0.422737 0.093262
v 0.473100 -0.422442 0.093287
v 0.473721 -0.422353 0.093334
v 0.474334 -0.422482 0.093396
v 0.474866 -0.422814 0.093466
v 0.475249 -0.423308 0.093537
v 0.475440 -0.423905 0.093599
v 0.475416 -0.424533 0.093644
v 0.475178 -0.425116 0.093667
v 0.474755 -0.425583 0.093666
v 0.474200 -0.425880 0.093643
v 0.473579 -0.425968 0.093596
v 0.472965 -0.425837 0.093534
v 0.465184 -0.418921 0.173678
v 0.465568 -0.419416 0.173749
v 0.464992 -0.418324 0.173617
v 0.465017 -0.417697 0.173572
v 0.465256 -0.417113 0.173547
v 0.465677 -0.416646 0.173548
v 0.466233 -0.416351 0.173572
v 0.466855 -0.416262 0.173620
v 0.467468 -0.416391 0.173682
v 0.467999 -0.416723 0.173752
v 0.468382 -0.417218 0.173823
v 0.468575 -0.417815 0.173885
v 0.468549 -0.418442 0.173930
v 0.468311 -0.419025 0.173953
v 0.467888 -0.419493 0.173953
v 0.467334 -0.419788 0.173928
v 0.466712 -0.419877 0.173882
v 0.466098 -0.419748 0.173819
v 0.458317 -0.412830 0.253965
v 0.458701 -0.413325 0.254035
v 0.458126 -0.412234 0.253903
v 0.458150 -0.411606 0.253857
v 0.458389 -0.411023 0.253833
v 0.458811 -0.410556 0.253834
v 0.459367 -0.410260 0.253859
v 0.459988 -0.410171 0.253906
v 0.460602 -0.410300 0.253968
v 0.461133 -0.410633 0.254039
v 0.461516 -0.411127 0.254109
v 0.461708 -0.411724 0.254170
v 0.461682 -0.412352 0.254216
v 0.461445 -0.412934 0.254240
v 0.461022 -0.413402 0.254239
v 0.460467 -0.413698 0.254214
v 0.459846 -0.413786 0.254168
v 0.459232 -0.413657 0.254105
v 0.459916 -0.411979 0.254037
v 0.458287 -0.409830 -0.147412
v 0.457222 -0.413297 -0.147415
v 0.458472 -0.413453 -0.147414
v 0.456100 -0.412724 -0.147416
v 0.455242 -0.411801 -0.147416
v 0.454752 -0.410640 -0.147416
v 0.454687 -0.409383 -0.147415
v 0.455057 -0.408178 -0.147414
v 0.455816 -0.407173 -0.147413
v 0.456875 -0.406489 -0.147412
v 0.458102 -0.406206 -0.147410
v 0.459353 -0.406363 -0.147409
v 0.460474 -0.406935 -0.147408
v 0.461332 -0.407858 -0.147408
v 0.461822 -0.409019 -0.147408
v 0.461887 -0.410276 -0.147409
v 0.461517 -0.411481 -0.147410
v 0.460757 -0.412486 -0.147411
v 0.459699 -0.413171 -0.147412
v 0.457144 -0.413337 -0.066606
v 0.458394 -0.413493 -0.066604
v 0.456022 -0.412764 -0.066607
v 0.455164 -0.411841 -0.066607
v 0.454674 -0.410681 -0.066607
v 0.454610 -0.409423 -0.066607
v 0.454980 -0.408219 -0.066606
v 0.455739 -0.407214 -0.066604
v 0.456796 -0.406529 -0.066603
v 0.458025 -0.406247 -0.066602
v 0.459275 -0.406402 -0.066601
v 0.460397 -0.406976 -0.066600
v 0.461255 -0.407899 -0.066600
v 0.461745 -0.409059 -0.066600
v 0.461809 -0.410317 -0.066600
v 0.461440 -0.411521 -0.066600
v 0.460680 -0.412527 -0.066601
v 0.459622 -0.413211 -0.066603
v 0.457066 -0.413377 0.014203
v 0.458317 -0.413533 0.014205
v 0.455945 -0.412804 0.014203
v 0.455087 -0.411882 0.014202
v 0.454596 -0.410721 0.014202
v 0.454532 -0.409463 0.014203
v 0.454902 -0.408258 0.014204
v 0.455662 -0.407254 0.014205
v 0.456719 -0.406569 0.014206
v 0.457948 -0.406287 0.014208
v 0.459197 -0.406443 0.014209
v 0.460320 -0.407016 0.014210
v 0.461178 -0.407939 0.014210
v 0.461668 -0.409099 0.014210
v 0.461732 -0.410357 0.014209
v 0.461362 -0.411562 0.014208
v 0.460603 -0.412566 0.014207
v 0.459545 -0.413251 0.014206
v 0.456989 -0.413418 0.095012
v 0.458240 -0.413573 0.095013
v 0.455868 -0.412844 0.095011
v 0.455010 -0.411921 0.095011
v 0.454519 -0.410761 0.095011
v 0.454454 -0.409503 0.095012
v 0.454825 -0.408299 0.095012
v 0.455584 -0.407294 0.095014
v 0.456642 -0.406610 0.095015
v 0.457870 -0.406328 0.095016
v 0.459120 -0.406483 0.095018
v 0.460242 -0.407057 0.095018
v 0.461100 -0.407979 0.095019
v 0.461590 -0.409139 0.095019
v 0.461655 -0.410397 0.095018
v 0.461285 -0.411601 0.095017
v 0.460525 -0.412607 0.095016
v 0.459467 -0.413292 0.095014
v 0.456912 -0.413457 0.175821
v 0.458161 -0.413614 0.175822
v 0.455790 -0.412885 0.175820
v 0.454932 -0.411962 0.175819
v 0.454441 -0.410801 0.175820
v 0.454377 -0.409544 0.175820
v 0.454748 -0.408339 0.175821
v 0.455507 -0.407334 0.175822
v 0.456564 -0.406649 0.175824
v 0.457793 -0.406367 0.175825
v 0.459043 -0.406524 0.175826
v 0.460165 -0.407096 0.175827
v 0.461023 -0.408019 0.175827
v 0.461513 -0.409180 0.175827
v 0.461577 -0.410437 0.175827
v 0.461207 -0.411642 0.175826
v 0.460448 -0.412647 0.175824
v 0.459390 -0.413331 0.175823
v 0.456834 -0.413498 0.256630
v 0.458084 -0.413654 0.256631
v 0.455713 -0.412925 0.256629
v 0.454855 -0.412002 0.256629
v 0.454364 -0.410842 0.256629
v 0.454300 -0.409584 0.256630
v 0.454670 -0.408380 0.256631
v 0.455430 -0.407375 0.256632
v 0.456487 -0.406690 0.256633
v 0.457715 -0.406408 0.256635
v 0.458965 -0.406563 0.256636
v 0.460087 -0.407137 0.256636
v 0.460945 -0.408060 0.256637
v 0.461436 -0.409220 0.256637
v 0.461500 -0.410478 0.256636
v 0.461129 -0.411682 0.256635
v 0.460370 -0.412688 0.256634
v 0.459313 -0.413372 0.256633
v 0.457899 -0.410031 0.256633
v 0.454197 -0.400799 0.252115
v 0.489598 -0.444513 0.252127
v 0.441856 0.491344 0.252550
v 0.409736 0.470739 0.252509
v 0.454980 -0.416164 0.252108
v -0.431922 -0.461408 0.251236
v -0.446258 -0.492255 0.251207
v -0.416557 -0.460624 0.251252
v 0.365693 0.407213 0.308340
v 0.405271 -0.368620 0.307989
v -0.322710 -0.355178 0.352794
v 0.352186 -0.320749 0.353457
v -0.370560 -0.408198 0.307227
v -0.494000 0.443602 0.251631
v -0.410139 0.367634 0.307578
v 0.317757 0.354147 0.353762
v 0.226961 -0.208084 0.454794
v 0.204651 0.229232 0.454992
v -0.210355 -0.230393 0.454365
v -0.232665 0.206923 0.454562
v -0.357140 0.319719 0.353099
v 0.114271 -0.106353 0.556137
v 0.102903 0.116469 0.556238
v -0.108553 -0.117720 0.555918
v -0.119920 0.105102 0.556019
v -0.002590 -0.000658 0.657478
v -0.461802 0.426278 0.251653
v -0.477166 0.425495 0.251638
v 0.286629 0.333842 0.316889
v 0.180144 0.215861 0.416344
v 0.201218 -0.197241 0.416158
v 0.319152 -0.303683 0.316601
v -0.211883 -0.218315 0.415752
v -0.318374 -0.336206 0.315974
v -0.232957 0.194787 0.415939
v -0.350897 0.301319 0.316263
v 0.083785 0.109328 0.515815
v 0.094523 -0.101156 0.515720
v -0.115962 -0.111894 0.515514
v -0.126700 0.098591 0.515609
v -0.016517 -0.001350 0.615281
f 1 2 3
f 1 4 2
f 1 5 4
f 1 6 5
f 1 7 6
f 1 8 7
f 1 9 8
f 1 10 9
f 1 11 10
f 1 12 11
f 1 13 12
f 1 14 13
f 1 15 14
f 1 16 15
f 1 17 16
f 1 18 17
f 1 19 18
f 1 3 19
f 3 20 21
f 3 2 20
f 2 22 20
f 2 4 22
f 4 23 22
f 4 5 23
f 5 24 23
f 5 6 24
f 6 25 24
f 6 7 25
f 7 26 25
f 7 8 26
f 8 27 26
f 8 9 27
f 9 28 27
f 9 10 28
f 10 29 28
f 10 11 29
f 11 30 29
f 11 12 30
f 12 31 30
f 12 13 31
f 13 32 31
f 13 14 32
f 14 33 32
f 14 15 33
f 15 34 33
f 15 16 34
f 16 35 34
f 16 17 35
f 17 36 35
f 17 18 36
f 18 37 36
f 18 19 37
f 19 21 37
f 19 3 21
f 21 38 39
f 21 20 38
f 20 40 38
f 20 22 40
f 22 41 40
f 22 23 41
f 23 42 41
f 23 24 42
f 24 43 42
f 24 25 43
f 25 44 43
f 25 26 44
f 26 45 44
f 26 27 45
f 27 46 45
f 27 28 46
f 28 47 46
f 28 29 47
f 29 48 47
f 29 30 48
f 30 49 48
f 30 31 49
f 31 50 49
f 31 32 50
f 32 51 50
f 32 33 51
f 33 52 51
f 33 34 52
f 34 53 52
f 34 35 53
f 35 54 53
f 35 36 54
f 36 55 54
f 36 37 55
f 37 39 55
f 37 21 39
f 39 56 57
f 39 38 56
f 38 58 56
f 38 40 58
f 40 59 58
f 40 41 59
f 41 60 59
f 41 42 60
f 42 61 60
f 42 43 61
f 43 62 61
f 43 44 62
f 44 63 62
f 44 45 63
f 45 64 63
f 45 46 64
f 46 65 64
f 46 47 65
f 47 66 65
f 47 48 66
f 48 67 66
f 48 49 67
f 49 68 67
f 49 50 68
f 50 69 68
f 50 51 69
f 51 70 69
f 51 52 70
f 52 71 70
f 52 53 71
f 53 72 71
f 53 54 72
f 54 73 72
f 54 55 73
f 55 57 73
f 55 39 57
f 57 74 75
f 57 56 74
f 56 76 74
f 56 58 76
f 58 77 76
f 58 59 77
f 59 78 77
f 59 60 78
f 60 79 78
f 60 61 79
f 61 80 79
f 61 62 80
f 62 81 80
f 62 63 81
f 63 82 81
f 63 64 82
f 64 83 82
f 64 65 83
f 65 84 83
f 65 66 84
f 66 85 84
f 66 67 85
f 67 86 85
f 67 68 86
f 68 87 86
f 68 69 87
f 69 88 87
f 69 70 88
f 70 89 88
f 70 71 89
f 71 90 89
f 71 72 90
f 72 91 90
f 72 73 91
f 73 75 91
f 73 57 75
f 75 92 93
f 75 74 92
f 74 94 92
f 74 76 94
f 76 95 94
f 76 77 95
f 77 96 95
f 77 78 96
f 78 97 96
f 78 79 97
f 79 98 97
f 79 80 98
f 80 99 98
f 80 81 99
f 81 100 99
f 81 82 100
f 82 101 100
f 82 83 101
f 83 102 101
f 83 84 102
f 84 103 102
f 84 85 103
f 85 104 103
f 85 86 104
f 86 105 104
f 86 87 105
f 87 106 105
f 87 88 106
f 88 107 106
f 88 89 107
f 89 108 107
f 89 90 108
f 90 109 108
f 90 91 109
f 91 93 109
f 91 75 93
f 110 93 92
f 110 92 94
f 110 94 95
f 110 95 96
f 110 96 97
f 110 97 98
f 110 98 99
f 110 99 100
f 110 100 101
f 110 101 102
f 110 102 103
f 110 103 104
f 110 104 105
f 110 105 106
f 110 106 107
f 110 107 108
f 110 108 109
f 110 109 93
f 111 112 113
f 111 114 112
f 111 115 114
f 111 116 115
f 111 117 116
f 111 118 117
f 111 119 118
f 111 120 119
f 111 121 120
f 111 122 121
f 111 123 122
f 111 124 123
f 111 125 124
f 111 126 125
f 111 127 126
f 111 128 127
f 111 129 128
f 111 113 129
f 113 130 131
f 113 112 130
f 112 132 130
f 112 114 132
f 114 133 132
f 114 115 133
f 115 134 133
f 115 116 134
f 116 135 134
f 116 117 135
f 117 136 135
f 117 118 136
f 118 137 136
f 118 119 137
f 119 138 137
f 119 120 138
f 120 139 138
f 120 121 139
f 121 140 139
f 121 122 140
f 122 141 140
f 122 123 141
f 123 142 141
f 123 124 142
f 124 143 142
f 124 125 143
f 125 144 143
f 125 126 144
f 126 145 144
f 126 127 145
f 127 146 145
f 127 128 146
f 128 147 146
f 128 129 147
f 129 131 147
f 129 113 131
f 131 148 149
f 131 130 148
f 130 150 148
f 130 132 150
f 132 151 150
f 132 133 151
f 133 152 151
f 133 134 152
f 134 153 152
f 134 135 153
f 135 154 153
f 135 136 154
f 136 155 154
f 136 137 155
f 137 156 155
f 137 138 156
f 138 157 156
f 138 139 157
f 139 158 157
f 139 140 158
f 140 159 158
f 140 141 159
f 141 160 159
f 141 142 160
f 142 161 160
f 142 143 161
f 143 162 161
f 143 144 162
f 144 163 162
f 144 145 163
f 145 164 163
f 145 146 164
f 146 165 164
f 146 147 165
f 147 149 165
f 147 131 149
f 149 166 167
f 149 148 166
f 148 168 166
f 148 150 168
f 150 169 168
f 150 151 169
f 151 170 169
f 151 152 170
f 152 171 170
f 152 153 171
f 153 172 171
f 153 154 172
f 154 173 172
f 154 155 173
f 155 174 173
f 155 156 174
f 156 175 174
f 156 157 175
f 157 176 175
f 157 158 176
f 158 177 176
f 158 159 177
f 159 178 177
f 159 160 178
f 160 179 178
f 160 161 179
f 161 180 179
f 161 162 180
f 162 181 180
f 162 163 181
f 163 182 181
f 163 164 182
f 164 183 182
f 164 165 183
f 165 167 183
f 165 149 167
f 167 184 185
f 167 166 184
f 166 186 184
f 166 168 186
f 168 187 186
f 168 169 187
f 169 188 187
f 169 170 188
f 170 189 188
f 170 171 189
f 171 190 189
f 171 172 190
f 172 191 190
f 172 173 191
f 173 192 191
f 173 174 192
f 174 193 192
f 174 175 193
f 175 194 193
f 175 176 194
f 176 195 194
f 176 177 195
f 177 196 195
f 177 178 196
f 178 197 196
f 178 179 197
f 179 198 197
f 179 180 198
f 180 199 198
f 180 181 199
f 181 200 199
f 181 182 200
f 182 201 200
f 182 183 201
f 183 185 201
f 183 167 185
f 185 202 203
f 185 184 202
f 184 204 202
f 184 186 204
f 186 205 204
f 186 187 205
f 187 206 205
f 187 188 206
f 188 207 206
f 188 189 207
f 189 208 207
f 189 190 208
f 190 209 208
f 190 191 209
f 191 210 209
f 191 192 210
f 192 211 210
f 192 193 211
f 193 212 211
f 193 194 212
f 194 213 212
f 194 195 213
f 195 214 213
f 195 196 214
f 196 215 214
f 196 197 215
f 197 216 215
f 197 198 216
f 198 217 216
f 198 199 217
f 199 218 217
f 199 200 218
f 200 219 218
f 200 201 219
f 201 203 219
f 201 185 203
f 220 203 202
f 220 202 204
f 220 204 205
f 220 205 206
f 220 206 207
f 220 207 208
f 220 208 209
f 220 209 210
f 220 210 211
f 220 211 212
f 220 212 213
f 220 213 214
f 220 214 215
f 220 215 216
f 220 216 217
f 220 217 218
f 220 218 219
f 220 219 203
f 221 222 223
f 221 224 222
f 221 225 224
f 221 226 225
f 221 227 226
f 221 228 227
f 221 229 228
f 221 230 229
f 221 231 230
f 221 232 231
f 221 233 232
f 221 234 233
f 221 235 234
f 221 236 235
f 221 237 236
f 221 238 237
f 221 239 238
f 221 223 239
f 223 240 241
f 223 222 240
f 222 242 240
f 222 224 242
f 224 243 242
f 224 225 243
f 225 244 243
f 225 226 244
f 226 245 244
f 226 227 245
f 227 246 245
f 227 228 246
f 228 247 246
f 228 229 247
f 229 248 247
f 229 230 248
f 230 249 248
f 230 231 249
f 231 250 249
f 231 232 250
f 232 251 250
f 232 233 251
f 233 252 251
f 233 234 252
f 234 253 252
f 234 235 253
f 235 254 253
f 235 236 254
f 236 255 254
f 236 237 255
f 237 256 255
f 237 238 256
f 238 257 256
f 238 239 257
f 239 241 257
f 239 223 241
f 241 258 259
f 241 240 258
f 240 260 258
f 240 242 260
f 242 261 260
f 242 243 261
f 243 262 261
f 243 244 262
f 244 263 262
f 244 245 263
f 245 264 263
f 245 246 264
f 246 265 264
f 246 247 265
f 247 266 265
f 247 248 266
f 248 267 266
f 248 249 267
f 249 268 267
f 249 250 268
f 250 269 268
f 250 251 269
f 251 270 269
f 251 252 270
f 252 271 270
f 252 253 271
f 253 272 271
f 253 254 272
f 254 273 272
f 254 255 273
f 255 274 273
f 255 256 274
f 256 275 274
f 256 257 275
f 257 259 275
f 257 241 259
f 259 276 277
f 259 258 276
f 258 278 276
f 258 260 278
f 260 279 278
f 260 261 279
f 261 280 279
f 261 262 280
f 262 281 280
f 262 263 281
f 263 282 281
f 263 264 282
f 264 283 282
f 264 265 283
f 265 284 283
f 265 266 284
f 266 285 284
f 266 267 285
f 267 286 285
f 267 268 286
f 268 287 286
f 268 269 287
f 269 288 287
f 269 270 288
f 270 289 288
f 270 271 289
f 271 290 289
f 271 272 290
f 272 291 290
f 272 273 291
f 273 292 291
f 273 274 292
f 274 293 292
f 274 275 293
f 275 277 293
f 275 259 277
f 277 294 295
f 277 276 294
f 276 296 294
f 276 278 296
f 278 297 296
f 278 279 297
f 279 298 297
f 279 280 298
f 280 299 298
f 280 281 299
f 281 300 299
f 281 282 300
f 282 301 300
f 282 283 301
f 283 302 301
f 283 284 302
f 284 303 302
f 284 285 303
f 285 304 303
f 285 286 304
f 286 305 304
f 286 287 305
f 287 306 305
f 287 288 306
f 288 307 306
f 288 289 307
f 289 308 307
f 289 290 308
f 290 309 308
f 290 291 309
f 291 310 309
f 291 292 310
f 292 311 310
f 292 293 311
f 293 295 311
f 293 277 295
f 295 312 313
f 295 294 312
f 294 314 312
f 294 296 314
f 296 315 314
f 296 297 315
f 297 316 315
f 297 298 316
f 298 317 316
f 298 299 317
f 299 318 317
f 299 300 318
f 300 319 318
f 300 301 319
f 301 320 319
f 301 302 320
f 302 321 320
f 302 303 321
f 303 322 321
f 303 304 322
f 304 323 322
f 304 305 323
f 305 324 323
f 305 306 324
f 306 325 324
f 306 307 325
f 307 326 325
f 307 308 326
f 308 327 326
f 308 309 327
f 309 328 327
f 309 310 328
f 310 329 328
f 310 311 329
f 311 313 329
f 311 295 313
f 330 313 312
f 330 312 314
f 330 314 315
f 330 315 316
f 330 316 317
f 330 317 318
f 330 318 319
f 330 319 320
f 330 320 321
f 330 321 322
f 330 322 323
f 330 323 324
f 330 324 325
f 330 325 326
f 330 326 327
f 330 327 328
f 330 328 329
f 330 329 313
f 331 332 333
f 331 334 332
f 331 335 334
f 331 336 335
f 331 337 336
f 331 338 337
f 331 339 338
f 331 340 339
f 331 341 340
f 331 342 341
f 331 343 342
f 331 344 343
f 331 345 344
f 331 346 345
f 331 347 346
f 331 348 347
f 331 349 348
f 331 333 349
f 333 350 351
f 333 332 350
f 332 352 350
f 332 334 352
f 334 353 352
f 334 335 353
f 335 354 353
f 335 336 354
f 336 355 354
f 336 337 355
f 337 356 355
f 337 338 356
f 338 357 356
f 338 339 357
f 339 358 357
f 339 340 358
f 340 359 358
f 340 341 359
f 341 360 359
f 341 342 360
f 342 361 360
f 342 343 361
f 343 362 361
f 343 344 362
f 344 363 362
f 344 345 363
f 345 364 363
f 345 346 364
f 346 365 364
f 346 347 365
f 347 366 365
f 347 348 366
f 348 367 366
f 348 349 367
f 349 351 367
f 349 333 351
f 351 368 369
f 351 350 368
f 350 370 368
f 350 352 370
f 352 371 370
f 352 353 371
f 353 372 371
f 353 354 372
f 354 373 372
f 354 355 373
f 355 374 373
f 355 356 374
f 356 375 374
f 356 357 375
f 357 376 375
f 357 358 376
f 358 377 376
f 358 359 377
f 359 378 377
f 359 360 378
f 360 379 378
f 360 361 379
f 361 380 379
f 361 362 380
f 362 381 380
f 362 363 381
f 363 382 381
f 363 364 382
f 364 383 382
f 364 365 383
f 365 384 383
f 365 366 384
f 366 385 384
f 366 367 385
f 367 369 385
f 367 351 369
f 369 386 387
f 369 368 386
f 368 388 386
f 368 370 388
f 370 389 388
f 370 371 389
f 371 390 389
f 371 372 390
f 372 391 390
f 372 373 391
f 373 392 391
f 373 374 392
f 374 393 392
f 374 375 393
f 375 394 393
f 375 376 394
f 376 395 394
f 376 377 395
f 377 396 395
f 377 378 396
f 378 397 396
f 378 379 397
f 379 398 397
f 379 380 398
f 380 399 398
f 380 381 399
f 381 400 399
f 381 382 400
f 382 401 400
f 382 383 401
f 383 402 401
f 383 384 402
f 384 403 402
f 384 385 403
f 385 387 403
f 385 369 387
f 387 404 405
f 387 386 404
f 386 406 404
f 386 388 406
f 388 407 406
f 388 389 407
f 389 408 407
f 389 390 408
f 390 409 408
f 390 391 409
f 391 410 409
f 391 392 410
f 392 411 410
f 392 393 411
f 393 412 411
f 393 394 412
f 394 413 412
f 394 395 413
f 395 414 413
f 395 396 414
f 396 415 414
f 396 397 415
f 397 416 415
f 397 398 416
f 398 417 416
f 398 399 417
f 399 418 417
f 399 400 418
f 400 419 418
f 400 401 419
f 401 420 419
f 401 402 420
f 402 421 420
f 402 403 421
f 403 405 421
f 403 387 405
f 405 422 423
f 405 404 422
f 404 424 422
f 404 406 424
f 406 425 424
f 406 407 425
f 407 426 425
f 407 408 426
f 408 427 426
f 408 409 427
f 409 428 427
f 409 410 428
f 410 429 428
f 410 411 429
f 411 430 429
f 411 412 430
f 412 431 430
f 412 413 431
f 413 432 431
f 413 414 432
f 414 433 432
f 414 415 433
f 415 434 433
f 415 416 434
f 416 435 434
f 416 417 435
f 417 436 435
f 417 418 436
f 418 437 436
f 418 419 437
f 419 438 437
f 419 420 438
f 420 439 438
f 420 421 439
f 421 423 439
f 421 405 423
f 440 423 422
f 440 422 424
f 440 424 425
f 440 425 426
f 440 426 427
f 440 427 428
f 440 428 429
f 440 429 430
f 440 430 431
f 440 431 432
f 440 432 433
f 440 433 434
f 440 434 435
f 440 435 436
f 440 436 437
f 440 437 438
f 440 438 439
f 440 439 423
f 441 442 443
f 441 444 442
f 441 445 444
f 441 446 445
f 441 447 446
f 441 448 447
f 441 449 448
f 441 450 449
f 441 451 450
f 441 452 451
f 441 453 452
f 441 454 453
f 441 455 454
f 441 456 455
f 441 457 456
f 441 458 457
f 441 459 458
f 441 443 459
f 443 460 461
f 443 442 460
f 442 462 460
f 442 444 462
f 444 463 462
f 444 445 463
f 445 464 463
f 445 446 464
f 446 465 464
f 446 447 465
f 447 466 465
f 447 448 466
f 448 467 466
f 448 449 467
f 449 468 467
f 449 450 468
f 450 469 468
f 450 451 469
f 451 470 469
f 451 452 470
f 452 471 470
f 452 453 471
f 453 472 471
f 453 454 472
f 454 473 472
f 454 455 473
f 455 474 473
f 455 456 474
f 456 475 474
f 456 457 475
f 457 476 475
f 457 458 476
f 458 477 476
f 458 459 477
f 459 461 477
f 459 443 461
f 461 478 479
f 461 460 478
f 460 480 478
f 460 462 480
f 462 481 480
f 462 463 481
f 463 482 481
f 463 464 482
f 464 483 482
f 464 465 483
f 465 484 483
f 465 466 484
f 466 485 484
f 466 467 485
f 467 486 485
f 467 468 486
f 468 487 486
f 468 469 487
f 469 488 487
f 469 470 488
f 470 489 488
f 470 471 489
f 471 490 489
f 471 472 490
f 472 491 490
f 472 473 491
f 473 492 491
f 473 474 492
f 474 493 492
f 474 475 493
f 475 494 493
f 475 476 494
f 476 495 494
f 476 477 495
f 477 479 495
f 477 461 479
f 479 496 497
f 479 478 496
f 478 498 496
f 478 480 498
f 480 499 498
f 480 481 499
f 481 500 499
f 481 482 500
f 482 501 500
f 482 483 501
f 483 502 501
f 483 484 502
f 484 503 502
f 484 485 503
f 485 504 503
f 485 486 504
f 486 505 504
f 486 487 505
f 487 506 505
f 487 488 506
f 488 507 506
f 488 489 507
f 489 508 507
f 489 490 508
f 490 509 508
f 490 491 509
f 491 510 509
f 491 492 510
f 492 511 510
f 492 493 511
f 493 512 511
f 493 494 512
f 494 513 512
f 494 495 513
f 495 497 513
f 495 479 497
f 497 514 515
f 497 496 514
f 496 516 514
f 496 498 516
f 498 517 516
f 498 499 517
f 499 518 517
f 499 500 518
f 500 519 518
f 500 501 519
f 501 520 519
f 501 502 520
f 502 521 520
f 502 503 521
f 503 522 521
f 503 504 522
f 504 523 522
f 504 505 523
f 505 524 523
f 505 506 524
f 506 525 524
f 506 507 525
f 507 526 525
f 507 508 526
f 508 527 526
f 508 509 527
f 509 528 527
f 509 510 528
f 510 529 528
f 510 511 529
f 511 530 529
f 511 512 530
f 512 531 530
f 512 513 531
f 513 515 531
f 513 497 515
f 515 532 533
f 515 514 532
f 514 534 532
f 514 516 534
f 516 535 534
f 516 517 535
f 517 536 535
f 517 518 536
f 518 537 536
f 518 519 537
f 519 538 537
f 519 520 538
f 520 539 538
f 520 521 539
f 521 540 539
f 521 522 540
f 522 541 540
f 522 523 541
f 523 542 541
f 523 524 542
f 524 543 542
f 524 525 543
f 525 544 543
f 525 526 544
f 526 545 544
f 526 527 545
f 527 546 545
f 527 528 546
f 528 547 546
f 528 529 547
f 529 548 547
f 529 530 548
f 530 549 548
f 530 531 549
f 531 533 549
f 531 515 533
f 550 533 532
f 550 532 534
f 550 534 535
f 550 535 536
f 550 536 537
f 550 537 538
f 550 538 539
f 550 539 540
f 550 540 541
f 550 541 542
f 550 542 543
f 550 543 544
f 550 544 545
f 550 545 546
f 550 546 547
f 550 547 548
f 550 548 549
f 550 549 533
f 551 552 553
f 551 554 552
f 551 555 554
f 551 556 555
f 551 557 556
f 551 558 557
f 551 559 558
f 551 560 559
f 551 561 560
f 551 562 561
f 551 563 562
f 551 564 563
f 551 565 564
f 551 566 565
f 551 567 566
f 551 568 567
f 551 569 568
f 551 553 569
f 553 570 571
f 553 552 570
f 552 572 570
f 552 554 572
f 554 573 572
f 554 555 573
f 555 574 573
f 555 556 574
f 556 575 574
f 556 557 575
f 557 576 575
f 557 558 576
f 558 577 576
f 558 559 577
f 559 578 577
f 559 560 578
f 560 579 578
f 560 561 579
f 561 580 579
f 561 562 580
f 562 581 580
f 562 563 581
f 563 582 581
f 563 564 582
f 564 583 582
f 564 565 583
f 565 584 583
f 565 566 584
f 566 585 584
f 566 567 585
f 567 586 585
f 567 568 586
f 568 587 586
f 568 569 587
f 569 571 587
f 569 553 571
f 571 588 589
f 571 570 588
f 570 590 588
f 570 572 590
f 572 591 590
f 572 573 591
f 573 592 591
f 573 574 592
f 574 593 592
f 574 575 593
f 575 594 593
f 575 576 594
f 576 595 594
f 576 577 595
f 577 596 595
f 577 578 596
f 578 597 596
f 578 579 597
f 579 598 597
f 579 580 598
f 580 599 598
f 580 581 599
f 581 600 599
f 581 582 600
f 582 601 600
f 582 583 601
f 583 602 601
f 583 584 602
f 584 603 602
f 584 585 603
f 585 604 603
f 585 586 604
f 586 605 604
f 586 587 605
f 587 589 605
f 587 571 589
f 589 606 607
f 589 588 606
f 588 608 606
f 588 590 608
f 590 609 608
f 590 591 609
f 591 610 609
f 591 592 610
f 592 611 610
f 592 593 611
f 593 612 611
f 593 594 612
f 594 613 612
f 594 595 613
f 595 614 613
f 595 596 614
f 596 615 614
f 596 597 615
f 597 616 615
f 597 598 616
f 598 617 616
f 598 599 617
f 599 618 617
f 599 600 618
f 600 619 618
f 600 601 619
f 601 620 619
f 601 602 620
f 602 621 620
f 602 603 621
f 603 622 621
f 603 604 622
f 604 623 622
f 604 605 623
f 605 607 623
f 605 589 607
f 607 624 625
f 607 606 624
f 606 626 624
f 606 608 626
f 608 627 626
f 608 609 627
f 609 628 627
f 609 610 628
f 610 629 628
f 610 611 629
f 611 630 629
f 611 612 630
f 612 631 630
f 612 613 631
f 613 632 631
f 613 614 632
f 614 633 632
f 614 615 633
f 615 634 633
f 615 616 634
f 616 635 634
f 616 617 635
f 617 636 635
f 617 618 636
f 618 637 636
f 618 619 637
f 619 638 637
f 619 620 638
f 620 639 638
f 620 621 639
f 621 640 639
f 621 622 640
f 622 641 640
f 622 623 641
f 623 625 641
f 623 607 625
f 625 642 643
f 625 624 642
f 624 644 642
f 624 626 644
f 626 645 644
f 626 627 645
f 627 646 645
f 627 628 646
f 628 647 646
f 628 629 647
f 629 648 647
f 629 630 648
f 630 649 648
f 630 631 649
f 631 650 649
f 631 632 650
f 632 651 650
f 632 633 651
f 633 652 651
f 633 634 652
f 634 653 652
f 634 635 653
f 635 654 653
f 635 636 654
f 636 655 654
f 636 637 655
f 637 656 655
f 637 638 656
f 638 657 656
f 638 639 657
f 639 658 657
f 639 640 658
f 640 659 658
f 640 641 659
f 641 643 659
f 641 625 643
f 660 643 642
f 660 642 644
f 660 644 645
f 660 645 646
f 660 646 647
f 660 647 648
f 660 648 649
f 660 649 650
f 660 650 651
f 660 651 652
f 660 652 653
f 660 653 654
f 660 654 655
f 660 655 656
f 660 656 657
f 660 657 658
f 660 658 659
f 660 659 643
f 661 662 663
f 661 664 662
f 661 665 664
f 661 666 665
f 661 667 666
f 661 668 667
f 661 669 668
f 661 670 669
f 661 671 670
f 661 672 671
f 661 673 672
f 661 674 673
f 661 675 674
f 661 676 675
f 661 677 676
f 661 678 677
f 661 679 678
f 661 663 679
f 663 680 681
f 663 662 680
f 662 682 680
f 662 664 682
f 664 683 682
f 664 665 683
f 665 684 683
f 665 666 684
f 666 685 684
f 666 667 685
f 667 686 685
f 667 668 686
f 668 687 686
f 668 669 687
f 669 688 687
f 669 670 688
f 670 689 688
f 670 671 689
f 671 690 689
f 671 672 690
f 672 691 690
f 672 673 691
f 673 692 691
f 673 674 692
f 674 693 692
f 674 675 693
f 675 694 693
f 675 676 694
f 676 695 694
f 676 677 695
f 677 696 695
f 677 678 696
f 678 697 696
f 678 679 697
f 679 681 697
f 679 663 681
f 681 698 699
f 681 680 698
f 680 700 698
f 680 682 700
f 682 701 700
f 682 683 701
f 683 702 701
f 683 684 702
f 684 703 702
f 684 685 703
f 685 704 703
f 685 686 704
f 686 705 704
f 686 687 705
f 687 706 705
f 687 688 706
f 688 707 706
f 688 689 707
f 689 708 707
f 689 690 708
f 690 709 708
f 690 691 709
f 691 710 709
f 691 692 710
f 692 711 710
f 692 693 711
f 693 712 711
f 693 694 712
f 694 713 712
f 694 695 713
f 695 714 713
f 695 696 714
f 696 715 714
f 696 697 715
f 697 699 715
f 697 681 699
f 699 716 717
f 699 698 716
f 698 718 716
f 698 700 718
f 700 719 718
f 700 701 719
f 701 720 719
f 701 702 720
f 702 721 720
f 702 703 721
f 703 722 721
f 703 704 722
f 704 723 722
f 704 705 723
f 705 724 723
f 705 706 724
f 706 725 724
f 706 707 725
f 707 726 725
f 707 708 726
f 708 727 726
f 708 709 727
f 709 728 727
f 709 710 728
f 710 729 728
f 710 711 729
f 711 730 729
f 711 712 730
f 712 731 730
f 712 713 731
f 713 732 731
f 713 714 732
f 714 733 732
f 714 715 733
f 715 717 733
f 715 699 717
f 717 734 735
f 717 716 734
f 716 736 734
f 716 718 736
f 718 737 736
f 718 719 737
f 719 738 737
f 719 720 738
f 720 739 738
f 720 721 739
f 721 740 739
f 721 722 740
f 722 741 740
f 722 723 741
f 723 742 741
f 723 724 742
f 724 743 742
f 724 725 743
f 725 744 743
f 725 726 744
f 726 745 744
f 726 727 745
f 727 746 745
f 727 728 746
f 728 747 746
f 728 729 747
f 729 748 747
f 729 730 748
f 730 749 748
f 730 731 749
f 731 750 749
f 731 732 750
f 732 751 750
f 732 733 751
f 733 735 751
f 733 717 735
f 735 752 753
f 735 734 752
f 734 754 752
f 734 736 754
f 736 755 754
f 736 737 755
f 737 756 755
f 737 738 756
f 738 757 756
f 738 739 757
f 739 758 757
f 739 740 758
f 740 759 758
f 740 741 759
f 741 760 759
f 741 742 760
f 742 761 760
f 742 743 761
f 743 762 761
f 743 744 762
f 744 763 762
f 744 745 763
f 745 764 763
f 745 746 764
f 746 765 764
f 746 747 765
f 747 766 765
f 747 748 766
f 748 767 766
f 748 749 767
f 749 768 767
f 749 750 768
f 750 769 768
f 750 751 769
f 751 753 769
f 751 735 753
f 770 753 752
f 770 752 754
f 770 754 755
f 770 755 756
f 770 756 757
f 770 757 758
f 770 758 759
f 770 759 760
f 770 760 761
f 770 761 762
f 770 762 763
f 770 763 764
f 770 764 765
f 770 765 766
f 770 766 767
f 770 767 768
f 770 768 769
f 770 769 753
f 771 772 773
f 771 774 772
f 771 775 774
f 771 776 775
f 771 777 776
f 771 778 777
f 771 779 778
f 771 780 779
f 771 781 780
f 771 782 781
f 771 783 782
f 771 784 783
f 771 785 784
f 771 786 785
f 771 787 786
f 771 788 787
f 771 789 788
f 771 773 789
f 773 790 791
f 773 772 790
f 772 792 790
f 772 774 792
f 774 793 792
f 774 775 793
f 775 794 793
f 775 776 794
f 776 795 794
f 776 777 795
f 777 796 795
f 777 778 796
f 778 797 796
f 778 779 797
f 779 798 797
f 779 780 798
f 780 799 798
f 780 781 799
f 781 800 799
f 781 782 800
f 782 801 800
f 782 783 801
f 783 802 801
f 783 784 802
f 784 803 802
f 784 785 803
f 785 804 803
f 785 786 804
f 786 805 804
f 786 787 805
f 787 806 805
f 787 788 806
f 788 807 806
f 788 789 807
f 789 791 807
f 789 773 791
f 791 808 809
f 791 790 808
f 790 810 808
f 790 792 810
f 792 811 810
f 792 793 811
f 793 812 811
f 793 794 812
f 794 813 812
f 794 795 813
f 795 814 813
f 795 796 814
f 796 815 814
f 796 797 815
f 797 816 815
f 797 798 816
f 798 817 816
f 798 799 817
f 799 818 817
f 799 800 818
f 800 819 818
f 800 801 819
f 801 820 819
f 801 802 820
f 802 821 820
f 802 803 821
f 803 822 821
f 803 804 822
f 804 823 822
f 804 805 823
f 805 824 823
f 805 806 824
f 806 825 824
f 806 807 825
f 807 809 825
f 807 791 809
f 809 826 827
f 809 808 826
f 808 828 826
f 808 810 828
f 810 829 828
f 810 811 829
f 811 830 829
f 811 812 830
f 812 831 830
f 812 813 831
f 813 832 831
f 813 814 832
f 814 833 832
f 814 815 833
f 815 834 833
f 815 816 834
f 816 835 834
f 816 817 835
f 817 836 835
f 817 818 836
f 818 837 836
f 818 819 837
f 819 838 837
f 819 820 838
f 820 839 838
f 820 821 839
f 821 840 839
f 821 822 840
f 822 841 840
f 822 823 841
f 823 842 841
f 823 824 842
f 824 843 842
f 824 825 843
f 825 827 843
f 825 809 827
f 827 844 845
f 827 826 844
f 826 846 844
f 826 828 846
f 828 847 846
f 828 829 847
f 829 848 847
f 829 830 848
f 830 849 848
f 830 831 849
f 831 850 849
f 831 832 850
f 832 851 850
f 832 833 851
f 833 852 851
f 833 834 852
f 834 853 852
f 834 835 853
f 835 854 853
f 835 836 854
f 836 855 854
f 836 837 855
f 837 856 855
f 837 838 856
f 838 857 856
f 838 839 857
f 839 858 857
f 839 840 858
f 840 859 858
f 840 841 859
f 841 860 859
f 841 842 860
f 842 861 860
f 842 843 861
f 843 845 861
f 843 827 845
f 845 862 863
f 845 844 862
f 844 864 862
f 844 846 864
f 846 865 864
f 846 847 865
f 847 866 865
f 847 848 866
f 848 867 866
f 848 849 867
f 849 868 867
f 849 850 868
f 850 869 868
f 850 851 869
f 851 870 869
f 851 852 870
f 852 871 870
f 852 853 871
f 853 872 871
f 853 854 872
f 854 873 872
f 854 855 873
f 855 874 873
f 855 856 874
f 856 875 874
f 856 857 875
f 857 876 875
f 857 858 876
f 858 877 876
f 858 859 877
f 859 878 877
f 859 860 878
f 860 879 878
f 860 861 879
f 861 863 879
f 861 845 863
f 880 863 862
f 880 862 864
f 880 864 865
f 880 865 866
f 880 866 867
f 880 867 868
f 880 868 869
f 880 869 870
f 880 870 871
f 880 871 872
f 880 872 873
f 880 873 874
f 880 874 875
f 880 875 876
f 880 876 877
f 880 877 878
f 880 878 879
f 880 879 863
f 881 882 883
f 881 884 882
f 881 885 884
f 881 886 885
f 881 887 886
f 881 888 887
f 881 889 888
f 881 890 889
f 881 891 890
f 881 892 891
f 881 893 892
f 881 894 893
f 881 895 894
f 881 896 895
f 881 897 896
f 881 898 897
f 881 899 898
f 881 883 899
f 883 900 901
f 883 882 900
f 882 902 900
f 882 884 902
f 884 903 902
f 884 885 903
f 885 904 903
f 885 886 904
f 886 905 904
f 886 887 905
f 887 906 905
f 887 888 906
f 888 907 906
f 888 889 907
f 889 908 907
f 889 890 908
f 890 909 908
f 890 891 909
f 891 910 909
f 891 892 910
f 892 911 910
f 892 893 911
f 893 912 911
f 893 894 912
f 894 913 912
f 894 895 913
f 895 914 913
f 895 896 914
f 896 915 914
f 896 897 915
f 897 916 915
f 897 898 916
f 898 917 916
f 898 899 917
f 899 901 917
f 899 883 901
f 901 918 919
f 901 900 918
f 900 920 918
f 900 902 920
f 902 921 920
f 902 903 921
f 903 922 921
f 903 904 922
f 904 923 922
f 904 905 923
f 905 924 923
f 905 906 924
f 906 925 924
f 906 907 925
f 907 926 925
f 907 908 926
f 908 927 926
f 908 909 927
f 909 928 927
f 909 910 928
f 910 929 928
f 910 911 929
f 911 930 929
f 911 912 930
f 912 931 930
f 912 913 931
f 913 932 931
f 913 914 932
f 914 933 932
f 914 915 933
f 915 934 933
f 915 916 934
f 916 935 934
f 916 917 935
f 917 919 935
f 917 901 919
f 919 936 937
f 919 918 936
f 918 938 936
f 918 920 938
f 920 939 938
f 920 921 939
f 921 940 939
f 921 922 940
f 922 941 940
f 922 923 941
f 923 942 941
f 923 924 942
f 924 943 942
f 924 925 943
f 925 944 943
f 925 926 944
f 926 945 944
f 926 927 945
f 927 946 945
f 927 928 946
f 928 947 946
f 928 929 947
f 929 948 947
f 929 930 948
f 930 949 948
f 930 931 949
f 931 950 949
f 931 932 950
f 932 951 950
f 932 933 951
f 933 952 951
f 933 934 952
f 934 953 952
f 934 935 953
f 935 937 953
f 935 919 937
f 937 954 955
f 937 936 954
f 936 956 954
f 936 938 956
f 938 957 956
f 938 939 957
f 939 958 957
f 939 940 958
f 940 959 958
f 940 941 959
f 941 960 959
f 941 942 960
f 942 961 960
f 942 943 961
f 943 962 961
f 943 944 962
f 944 963 962
f 944 945 963
f 945 964 963
f 945 946 964
f 946 965 964
f 946 947 965
f 947 966 965
f 947 948 966
f 948 967 966
f 948 949 967
f 949 968 967
f 949 950 968
f 950 969 968
f 950 951 969
f 951 970 969
f 951 952 970
f 952 971 970
f 952 953 971
f 953 955 971
f 953 937 955
f 955 972 973
f 955 954 972
f 954 974 972
f 954 956 974
f 956 975 974
f 956 957 975
f 957 976 975
f 957 958 976
f 958 977 976
f 958 959 977
f 959 978 977
f 959 960 978
f 960 979 978
f 960 961 979
f 961 980 979
f 961 962 980
f 962 981 980
f 962 963 981
f 963 982 981
f 963 964 982
f 964 983 982
f 964 965 983
f 965 984 983
f 965 966 984
f 966 985 984
f 966 967 985
f 967 986 985
f 967 968 986
f 968 987 986
f 968 969 987
f 969 988 987
f 969 970 988
f 970 989 988
f 970 971 989
f 971 973 989
f 971 955 973
f 990 973 972
f 990 972 974
f 990 974 975
f 990 975 976
f 990 976 977
f 990 977 978
f 990 978 979
f 990 979 980
f 990 980 981
f 990 981 982
f 990 982 983
f 990 983 984
f 990 984 985
f 990 985 986
f 990 986 987
f 990 987 988
f 990 988 989
f 990 989 973
f 991 992 993
f 991 994 992
f 991 995 994
f 991 996 995
f 991 997 996
f 991 998 997
f 991 999 998
f 991 1000 999
f 991 1001 1000
f 991 1002 1001
f 991 1003 1002
f 991 1004 1003
f 991 1005 1004
f 991 1006 1005
f 991 1007 1006
f 991 1008 1007
f 991 1009 1008
f 991 993 1009
f 993 1010 1011
f 993 992 1010
f 992 1012 1010
f 992 994 1012
f 994 1013 1012
f 994 995 1013
f 995 1014 1013
f 995 996 1014
f 996 1015 1014
f 996 997 1015
f 997 1016 1015
f 997 998 1016
f 998 1017 1016
f 998 999 1017
f 999 1018 1017
f 999 1000 1018
f 1000 1019 1018
f 1000 1001 1019
f 1001 1020 1019
f 1001 1002 1020
f 1002 1021 1020
f 1002 1003 1021
f 1003 1022 1021
f 1003 1004 1022
f 1004 1023 1022
f 1004 1005 1023
f 1005 1024 1023
f 1005 1006 1024
f 1006 1025 1024
f 1006 1007 1025
f 1007 1026 1025
f 1007 1008 1026
f 1008 1027 1026
f 1008 1009 1027
f 1009 1011 1027
f 1009 993 1011
f 1011 1028 1029
f 1011 1010 1028
f 1010 1030 1028
f 1010 1012 1030
f 1012 1031 1030
f 1012 1013 1031
f 1013 1032 1031
f 1013 1014 1032
f 1014 1033 1032
f 1014 1015 1033
f 1015 1034 1033
f 1015 1016 1034
f 1016 1035 1034
f 1016 1017 1035
f 1017 1036 1035
f 1017 1018 1036
f 1018 1037 1036
f 1018 1019 1037
f 1019 1038 1037
f 1019 1020 1038
f 1020 1039 1038
f 1020 1021 1039
f 1021 1040 1039
f 1021 1022 1040
f 1022 1041 1040
f 1022 1023 1041
f 1023 1042 1041
f 1023 1024 1042
f 1024 1043 1042
f 1024 1025 1043
f 1025 1044 1043
f 1025 1026 1044
f 1026 1045 1044
f 1026 1027 1045
f 1027 1029 1045
f 1027 1011 1029
f 1029 1046 1047
f 1029 1028 1046
f 1028 1048 1046
f 1028 1030 1048
f 1030 1049 1048
f 1030 1031 1049
f 1031 1050 1049
f 1031 1032 1050
f 1032 1051 1050
f 1032 1033 1051
f 1033 1052 1051
f 1033 1034 1052
f 1034 1053 1052
f 1034 1035 1053
f 1035 1054 1053
f 1035 1036 1054
f 1036 1055 1054
f 1036 1037 1055
f 1037 1056 1055
f 1037 1038 1056
f 1038 1057 1056
f 1038 1039 1057
f 1039 1058 1057
f 1039 1040 1058
f 1040 1059 1058
f 1040 1041 1059
f 1041 1060 1059
f 1041 1042 1060
f 1042 1061 1060
f 1042 1043 1061
f 1043 1062 1061
f 1043 1044 1062
f 1044 1063 1062
f 1044 1045 1063
f 1045 1047 1063
f 1045 1029 1047
f 1047 1064 1065
f 1047 1046 1064
f 1046 1066 1064
f 1046 1048 1066
f 1048 1067 1066
f 1048 1049 1067
f 1049 1068 1067
f 1049 1050 1068
f 1050 1069 1068
f 1050 1051 1069
f 1051 1070 1069
f 1051 1052 1070
f 1052 1071 1070
f 1052 1053 1071
f 1053 1072 1071
f 1053 1054 1072
f 1054 1073 1072
f 1054 1055 1073
f 1055 1074 1073
f 1055 1056 1074
f 1056 1075 1074
f 1056 1057 1075
f 1057 1076 1075
f 1057 1058 1076
f 1058 1077 1076
f 1058 1059 1077
f 1059 1078 1077
f 1059 1060 1078
f 1060 1079 1078
f 1060 1061 1079
f 1061 1080 1079
f 1061 1062 1080
f 1062 1081 1080
f 1062 1063 1081
f 1063 1065 1081
f 1063 1047 1065
f 1065 1082 1083
f 1065 1064 1082
f 1064 1084 1082
f 1064 1066 1084
f 1066 1085 1084
f 1066 1067 1085
f 1067 1086 1085
f 1067 1068 1086
f 1068 1087 1086
f 1068 1069 1087
f 1069 1088 1087
f 1069 1070 1088
f 1070 1089 1088
f 1070 1071 1089
f 1071 1090 1089
f 1071 1072 1090
f 1072 1091 1090
f 1072 1073 1091
f 1073 1092 1091
f 1073 1074 1092
f 1074 1093 1092
f 1074 1075 1093
f 1075 1094 1093
f 1075 1076 1094
f 1076 1095 1094
f 1076 1077 1095
f 1077 1096 1095
f 1077 1078 1096
f 1078 1097 1096
f 1078 1079 1097
f 1079 1098 1097
f 1079 1080 1098
f 1080 1099 1098
f 1080 1081 1099
f 1081 1083 1099
f 1081 1065 1083
f 1100 1083 1082
f 1100 1082 1084
f 1100 1084 1085
f 1100 1085 1086
f 1100 1086 1087
f 1100 1087 1088
f 1100 1088 1089
f 1100 1089 1090
f 1100 1090 1091
f 1100 1091 1092
f 1100 1092 1093
f 1100 1093 1094
f 1100 1094 1095
f 1100 1095 1096
f 1100 1096 1097
f 1100 1097 1098
f 1100 1098 1099
f 1100 1099 1083
f 1101 1102 1103
f 1101 1104 1102
f 1101 1105 1104
f 1101 1106 1105
f 1101 1107 1106
f 1101 1108 1107
f 1101 1109 1108
f 1101 1110 1109
f 1101 1111 1110
f 1101 1112 1111
f 1101 1113 1112
f 1101 1114 1113
f 1101 1115 1114
f 1101 1116 1115
f 1101 1117 1116
f 1101 1118 1117
f 1101 1119 1118
f 1101 1103 1119
f 1103 1120 1121
f 1103 1102 1120
f 1102 1122 1120
f 1102 1104 1122
f 1104 1123 1122
f 1104 1105 1123
f 1105 1124 1123
f 1105 1106 1124
f 1106 1125 1124
f 1106 1107 1125
f 1107 1126 1125
f 1107 1108 1126
f 1108 1127 1126
f 1108 1109 1127
f 1109 1128 1127
f 1109 1110 1128
f 1110 1129 1128
f 1110 1111 1129
f 1111 1130 1129
f 1111 1112 1130
f 1112 1131 1130
f 1112 1113 1131
f 1113 1132 1131
f 1113 1114 1132
f 1114 1133 1132
f 1114 1115 1133
f 1115 1134 1133
f 1115 1116 1134
f 1116 1135 1134
f 1116 1117 1135
f 1117 1136 1135
f 1117 1118 1136
f 1118 1137 1136
f 1118 1119 1137
f 1119 1121 1137
f 1119 1103 1121
f 1121 1138 1139
f 1121 1120 1138
f 1120 1140 1138
f 1120 1122 1140
f 1122 1141 1140
f 1122 1123 1141
f 1123 1142 1141
f 1123 1124 1142
f 1124 1143 1142
f 1124 1125 1143
f 1125 1144 1143
f 1125 1126 1144
f 1126 1145 1144
f 1126 1127 1145
f 1127 1146 1145
f 1127 1128 1146
f 1128 1147 1146
f 1128 1129 1147
f 1129 1148 1147
f 1129 1130 1148
f 1130 1149 1148
f 1130 1131 1149
f 1131 1150 1149
f 1131 1132 1150
f 1132 1151 1150
f 1132 1133 1151
f 1133 1152 1151
f 1133 1134 1152
f 1134 1153 1152
f 1134 1135 1153
f 1135 1154 1153
f 1135 1136 1154
f 1136 1155 1154
f 1136 1137 1155
f 1137 1139 1155
f 1137 1121 1139
f 1139 1156 1157
f 1139 1138 1156
f 1138 1158 1156
f 1138 1140 1158
f 1140 1159 1158
f 1140 1141 1159
f 1141 1160 1159
f 1141 1142 1160
f 1142 1161 1160
f 1142 1143 1161
f 1143 1162 1161
f 1143 1144 1162
f 1144 1163 1162
f 1144 1145 1163
f 1145 1164 1163
f 1145 1146 1164
f 1146 1165 1164
f 1146 1147 1165
f 1147 1166 1165
f 1147 1148 1166
f 1148 1167 1166
f 1148 1149 1167
f 1149 1168 1167
f 1149 1150 1168
f 1150 1169 1168
f 1150 1151 1169
f 1151 1170 1169
f 1151 1152 1170
f 1152 1171 1170
f 1152 1153 1171
f 1153 1172 1171
f 1153 1154 1172
f 1154 1173 1172
f 1154 1155 1173
f 1155 1157 1173
f 1155 1139 1157
f 1157 1174 1175
f 1157 1156 1174
f 1156 1176 1174
f 1156 1158 1176
f 1158 1177 1176
f 1158 1159 1177
f 1159 1178 1177
f 1159 1160 1178
f 1160 1179 1178
f 1160 1161 1179
f 1161 1180 1179
f 1161 1162 1180
f 1162 1181 1180
f 1162 1163 1181
f 1163 1182 1181
f 1163 1164 1182
f 1164 1183 1182
f 1164 1165 1183
f 1165 1184 1183
f 1165 1166 1184
f 1166 1185 1184
f 1166 1167 1185
f 1167 1186 1185
f 1167 1168 1186
f 1168 1187 1186
f 1168 1169 1187
f 1169 1188 1187
f 1169 1170 1188
f 1170 1189 1188
f 1170 1171 1189
f 1171 1190 1189
f 1171 1172 1190
f 1172 1191 1190
f 1172 1173 1191
f 1173 1175 1191
f 1173 1157 1175
f 1175 1192 1193
f 1175 1174 1192
f 1174 1194 1192
f 1174 1176 1194
f 1176 1195 1194
f 1176 1177 1195
f 1177 1196 1195
f 1177 1178 1196
f 1178 1197 1196
f 1178 1179 1197
f 1179 1198 1197
f 1179 1180 1198
f 1180 1199 1198
f 1180 1181 1199
f 1181 1200 1199
f 1181 1182 1200
f 1182 1201 1200
f 1182 1183 1201
f 1183 1202 1201
f 1183 1184 1202
f 1184 1203 1202
f 1184 1185 1203
f 1185 1204 1203
f 1185 1186 1204
f 1186 1205 1204
f 1186 1187 1205
f 1187 1206 1205
f 1187 1188 1206
f 1188 1207 1206
f 1188 1189 1207
f 1189 1208 1207
f 1189 1190 1208
f 1190 1209 1208
f 1190 1191 1209
f 1191 1193 1209
f 1191 1175 1193
f 1210 1193 1192
f 1210 1192 1194
f 1210 1194 1195
f 1210 1195 1196
f 1210 1196 1197
f 1210 1197 1198
f 1210 1198 1199
f 1210 1199 1200
f 1210 1200 1201
f 1210 1201 1202
f 1210 1202 1203
f 1210 1203 1204
f 1210 1204 1205
f 1210 1205 1206
f 1210 1206 1207
f 1210 1207 1208
f 1210 1208 1209
f 1210 1209 1193
f 1211 1212 1213
f 1211 1214 1212
f 1211 1215 1214
f 1211 1216 1215
f 1211 1217 1216
f 1211 1218 1217
f 1211 1219 1218
f 1211 1220 1219
f 1211 1221 1220
f 1211 1222 1221
f 1211 1223 1222
f 1211 1224 1223
f 1211 1225 1224
f 1211 1226 1225
f 1211 1227 1226
f 1211 1228 1227
f 1211 1229 1228
f 1211 1213 1229
f 1213 1230 1231
f 1213 1212 1230
f 1212 1232 1230
f 1212 1214 1232
f 1214 1233 1232
f 1214 1215 1233
f 1215 1234 1233
f 1215 1216 1234
f 1216 1235 1234
f 1216 1217 1235
f 1217 1236 1235
f 1217 1218 1236
f 1218 1237 1236
f 1218 1219 1237
f 1219 1238 1237
f 1219 1220 1238
f 1220 1239 1238
f 1220 1221 1239
f 1221 1240 1239
f 1221 1222 1240
f 1222 1241 1240
f 1222 1223 1241
f 1223 1242 1241
f 1223 1224 1242
f 1224 1243 1242
f 1224 1225 1243
f 1225 1244 1243
f 1225 1226 1244
f 1226 1245 1244
f 1226 1227 1245
f 1227 1246 1245
f 1227 1228 1246
f 1228 1247 1246
f 1228 1229 1247
f 1229 1231 1247
f 1229 1213 1231
f 1231 1248 1249
f 1231 1230 1248
f 1230 1250 1248
f 1230 1232 1250
f 1232 1251 1250
f 1232 1233 1251
f 1233 1252 1251
f 1233 1234 1252
f 1234 1253 1252
f 1234 1235 1253
f 1235 1254 1253
f 1235 1236 1254
f 1236 1255 1254
f 1236 1237 1255
f 1237 1256 1255
f 1237 1238 1256
f 1238 1257 1256
f 1238 1239 1257
f 1239 1258 1257
f 1239 1240 1258
f 1240 1259 1258
f 1240 1241 1259
f 1241 1260 1259
f 1241 1242 1260
f 1242 1261 1260
f 1242 1243 1261
f 1243 1262 1261
f 1243 1244 1262
f 1244 1263 1262
f 1244 1245 1263
f 1245 1264 1263
f 1245 1246 1264
f 1246 1265 1264
f 1246 1247 1265
f 1247 1249 1265
f 1247 1231 1249
f 1249 1266 1267
f 1249 1248 1266
f 1248 1268 1266
f 1248 1250 1268
f 1250 1269 1268
f 1250 1251 1269
f 1251 1270 1269
f 1251 1252 1270
f 1252 1271 1270
f 1252 1253 1271
f 1253 1272 1271
f 1253 1254 1272
f 1254 1273 1272
f 1254 1255 1273
f 1255 1274 1273
f 1255 1256 1274
f 1256 1275 1274
f 1256 1257 1275
f 1257 1276 1275
f 1257 1258 1276
f 1258 1277 1276
f 1258 1259 1277
f 1259 1278 1277
f 1259 1260 1278
f 1260 1279 1278
f 1260 1261 1279
f 1261 1280 1279
f 1261 1262 1280
f 1262 1281 1280
f 1262 1263 1281
f 1263 1282 1281
f 1263 1264 1282
f 1264 1283 1282
f 1264 1265 1283
f 1265 1267 1283
f 1265 1249 1267
f 1267 1284 1285
f 1267 1266 1284
f 1266 1286 1284
f 1266 1268 1286
f 1268 1287 1286
f 1268 1269 1287
f 1269 1288 1287
f 1269 1270 1288
f 1270 1289 1288
f 1270 1271 1289
f 1271 1290 1289
f 1271 1272 1290
f 1272 1291 1290
f 1272 1273 1291
f 1273 1292 1291
f 1273 1274 1292
f 1274 1293 1292
f 1274 1275 1293
f 1275 1294 1293
f 1275 1276 1294
f 1276 1295 1294
f 1276 1277 1295
f 1277 1296 1295
f 1277 1278 1296
f 1278 1297 1296
f 1278 1279 1297
f 1279 1298 1297
f 1279 1280 1298
f 1280 1299 1298
f 1280 1281 1299
f 1281 1300 1299
f 1281 1282 1300
f 1282 1301 1300
f 1282 1283 1301
f 1283 1285 1301
f 1283 1267 1285
f 1285 1302 1303
f 1285 1284 1302
f 1284 1304 1302
f 1284 1286 1304
f 1286 1305 1304
f 1286 1287 1305
f 1287 1306 1305
f 1287 1288 1306
f 1288 1307 1306
f 1288 1289 1307
f 1289 1308 1307
f 1289 1290 1308
f 1290 1309 1308
f 1290 1291 1309
f 1291 1310 1309
f 1291 1292 1310
f 1292 1311 1310
f 1292 1293 1311
f 1293 1312 1311
f 1293 1294 1312
f 1294 1313 1312
f 1294 1295 1313
f 1295 1314 1313
f 1295 1296 1314
f 1296 1315 1314
f 1296 1297 1315
f 1297 1316 1315
f 1297 1298 1316
f 1298 1317 1316
f 1298 1299 1317
f 1299 1318 1317
f 1299 1300 1318
f 1300 1319 1318
f 1300 1301 1319
f 1301 1303 1319
f 1301 1285 1303
f 1320 1303 1302
f 1320 1302 1304
f 1320 1304 1305
f 1320 1305 1306
f 1320 1306 1307
f 1320 1307 1308
f 1320 1308 1309
f 1320 1309 1310
f 1320 1310 1311
f 1320 1311 1312
f 1320 1312 1313
f 1320 1313 1314
f 1320 1314 1315
f 1320 1315 1316
f 1320 1316 1317
f 1320 1317 1318
f 1320 1318 1319
f 1320 1319 1303
f 1321 1322 1323
f 1323 1324 1321
f 1325 1322 1321
f 1326 1327 1328
f 1323 1322 1329
f 1330 1329 1322
f 1330 1331 1332
f 1331 1330 1333
f 1327 1334 1333
f 1335 1333 1334
f 1334 1323 1335
f 1329 1335 1323
f 1336 1337 1338
f 1336 1332 1337
f 1332 1339 1337
f 1332 1331 1339
f 1331 1340 1339
f 1331 1341 1340
f 1341 1338 1340
f 1341 1336 1338
f 1338 1342 1343
f 1338 1337 1342
f 1337 1344 1342
f 1337 1339 1344
f 1339 1345 1344
f 1339 1340 1345
f 1340 1343 1345
f 1340 1338 1343
f 1343 1342 1346
f 1342 1344 1346
f 1344 1345 1346
f 1345 1343 1346
f 1322 1327 1333
f 1333 1330 1322
f 1329 1336 1341
f 1341 1335 1329
f 1330 1332 1329
f 1336 1329 1332
f 1341 1331 1335
f 1331 1333 1335
f 1323 1334 1324
f 1324 1334 1347
f 1327 1322 1325
f 1328 1327 1325
f 1334 1327 1326
f 1348 1334 1326
f 1348 1347 1334
f 1349 1350 1351
f 1349 1351 1352
f 1352 1351 1353
f 1352 1353 1354
f 1354 1353 1355
f 1354 1355 1356
f 1356 1355 1350
f 1356 1350 1349
f 1350 1357 1358
f 1350 1358 1351
f 1351 1358 1359
f 1351 1359 1353
f 1353 1359 1360
f 1353 1360 1355
f 1355 1360 1357
f 1355 1357 1350
f 1357 1361 1358
f 1358 1361 1359
f 1359 1361 1360
f 1360 1361 1357
f 1321 1349 1352
f 1349 1321 1324
f 1356 1347 1348
f 1324 1347 1349
f 1356 1349 1347
f 1321 1352 1325
f 1328 1352 1354
f 1352 1328 1325
f 1328 1354 1326
f 1348 1326 1356
f 1354 1356 1326
