# After PCA alignment: m1674.obj
# Applied principal component analysis alignment
# Major eigenvector -> X-axis, Medium eigenvector -> Y-axis
# Generated on 2025-10-13 17:20:45

v 0.083703 0.149054 0.002566
v 0.083705 0.149057 -0.001495
v 0.086133 0.146512 -0.003526
v 0.086128 0.146506 0.004596
v 0.088555 0.143961 0.002566
v 0.088557 0.143964 -0.001495
v 0.109767 0.169029 0.004627
v 0.112194 0.166484 0.002596
v 0.112197 0.166487 -0.001465
v 0.107342 0.171577 0.002596
v 0.107344 0.171580 -0.001465
v 0.109772 0.169035 -0.003495
v 0.299117 -0.077035 0.002526
v 0.299120 -0.077032 -0.001535
v 0.301547 -0.079577 -0.003565
v 0.301542 -0.079583 0.004557
v 0.303969 -0.082127 0.002526
v 0.303972 -0.082125 -0.001535
v 0.325181 -0.057060 0.004587
v 0.327608 -0.059604 0.002556
v 0.327611 -0.059602 -0.001505
v 0.322756 -0.054512 0.002556
v 0.322759 -0.054509 -0.001505
v 0.325186 -0.057054 -0.003535
v 0.336723 -0.084284 -0.029681
v -0.040137 0.311220 -0.029626
v 0.001231 0.350637 -0.029573
v 0.378091 -0.044868 -0.029628
v 0.378056 -0.044908 0.027511
v 0.001197 0.350596 0.027566
v -0.040171 0.311179 0.027513
v 0.336689 -0.084325 0.027458
v 0.374702 -0.082766 -0.001088
v 0.107537 0.319541 0.029242
v 0.146953 0.278172 0.029236
v 0.145431 0.316190 0.000692
v 0.146987 0.278213 -0.027904
v 0.107572 0.319582 -0.027897
v 0.106346 -0.294213 -0.005898
v -0.136903 -0.038911 -0.005853
v 0.075850 0.163797 -0.005580
v 0.319099 -0.091506 -0.005625
v -0.136910 -0.038920 0.006391
v 0.106339 -0.294222 0.006346
v 0.319092 -0.091515 0.006619
v 0.075843 0.163788 0.006664
v -0.522635 -0.359792 -0.028762
v -0.562050 -0.318424 -0.028755
v -0.562085 -0.318465 0.028384
v -0.522669 -0.359834 0.028378
v 0.083704 0.149055 0.000535
v 0.084919 0.147784 -0.002510
v 0.084918 0.147783 -0.000480
v 0.084915 0.147780 0.003581
v 0.086130 0.146509 0.000535
v 0.087341 0.145234 0.003581
v 0.087344 0.145237 -0.000480
v 0.088556 0.143963 0.000535
v 0.087345 0.145238 -0.002510
v 0.110981 0.167756 0.003611
v 0.112195 0.166486 0.000566
v 0.110982 0.167758 0.001581
v 0.108554 0.170303 0.003611
v 0.109769 0.169032 0.000566
v 0.107343 0.171578 0.000566
v 0.109770 0.169033 -0.001465
v 0.108558 0.170307 -0.002480
v 0.110984 0.167761 -0.002480
v 0.097952 0.157773 -0.003511
v 0.096739 0.159046 -0.002495
v 0.095525 0.160318 -0.001480
v 0.095524 0.160317 0.000550
v 0.095523 0.160315 0.002581
v 0.096735 0.159041 0.003596
v 0.097947 0.157767 0.004611
v 0.099161 0.156495 0.003596
v 0.100375 0.155223 0.002581
v 0.100376 0.155224 0.000550
v 0.100377 0.155226 -0.001480
v 0.099165 0.156500 -0.002495
v 0.299118 -0.077034 0.000496
v 0.300333 -0.078304 -0.002550
v 0.300332 -0.078306 -0.000520
v 0.300330 -0.078309 0.003541
v 0.301544 -0.079580 0.000496
v 0.302755 -0.080855 0.003541
v 0.302758 -0.080852 -0.000520
v 0.303971 -0.082126 0.000496
v 0.302760 -0.080851 -0.002550
v 0.326394 -0.058332 0.003572
v 0.327610 -0.059603 0.000526
v 0.326396 -0.058331 0.001541
v 0.323969 -0.055786 0.003572
v 0.325184 -0.057057 0.000526
v 0.322757 -0.054511 0.000526
v 0.325185 -0.057056 -0.001505
v 0.323972 -0.055782 -0.002520
v 0.326399 -0.058328 -0.002520
v 0.313366 -0.068315 -0.003550
v 0.312153 -0.067043 -0.002535
v 0.310939 -0.065771 -0.001520
v 0.310938 -0.065772 0.000511
v 0.310937 -0.065774 0.002541
v 0.312149 -0.067047 0.003556
v 0.313362 -0.068321 0.004572
v 0.314575 -0.069593 0.003556
v 0.315788 -0.070865 0.002541
v 0.315790 -0.070865 0.000511
v 0.315792 -0.070864 -0.001520
v 0.314579 -0.069590 -0.002535
v 0.148293 0.113468 -0.029654
v -0.019453 0.330929 -0.029600
v 0.168977 0.133176 -0.029627
v 0.357407 -0.064576 -0.029655
v 0.189661 0.152885 -0.029601
v 0.189626 0.152844 0.027538
v -0.019487 0.330888 0.027539
v 0.168943 0.133136 0.027512
v 0.357373 -0.064617 0.027484
v 0.148259 0.113427 0.027485
v 0.355696 -0.083546 0.013185
v 0.376379 -0.063837 0.013211
v 0.376397 -0.063817 -0.015358
v 0.355712 -0.083525 -0.015385
v 0.127245 0.298857 0.029239
v 0.146192 0.297181 0.014964
v 0.126484 0.317865 0.014967
v 0.127279 0.298898 -0.027900
v 0.126502 0.317886 -0.013602
v 0.146209 0.297202 -0.013606
v 0.001214 0.350617 -0.001004
v 0.189644 0.152864 -0.001031
v 0.378074 -0.044888 -0.001059
v -0.040154 0.311200 -0.001057
v 0.148276 0.113448 -0.001084
v 0.336706 -0.084305 -0.001112
v -0.015278 -0.166562 -0.005875
v -0.030526 0.062443 -0.005716
v 0.091098 -0.065208 -0.005739
v 0.212722 -0.192859 -0.005761
v 0.197474 0.036146 -0.005603
v -0.015286 -0.166571 0.006369
v 0.212715 -0.192868 0.006483
v 0.091091 -0.065217 0.006505
v -0.030534 0.062434 0.006528
v 0.197467 0.036137 0.006641
v 0.106342 -0.294218 0.000224
v 0.212719 -0.192864 0.000361
v 0.319095 -0.091510 0.000497
v 0.075846 0.163792 0.000542
v 0.197471 0.036141 0.000519
v -0.136906 -0.038915 0.000269
v -0.030530 0.062439 0.000406
v -0.015282 -0.166567 0.000247
v -0.187824 -0.040790 -0.028333
v -0.542343 -0.339108 -0.028759
v -0.207532 -0.020105 -0.028329
v -0.227239 0.000579 -0.028326
v -0.227274 0.000538 0.028813
v -0.542377 -0.339149 0.028381
v -0.207566 -0.020146 0.028810
v -0.187858 -0.040831 0.028807
v -0.019470 0.330908 -0.001030
v -0.562067 -0.318445 -0.000186
v -0.227257 0.000558 0.000243
v 0.107554 0.319561 0.000672
v -0.522652 -0.359813 -0.000192
v -0.187841 -0.040810 0.000237
v 0.146970 0.278193 0.000666
v 0.083704 0.149054 0.001550
v 0.084311 0.148419 0.000028
v 0.084310 0.148418 0.001043
v 0.083705 0.149056 -0.000480
v 0.084312 0.148421 -0.002003
v 0.084312 0.148420 -0.000988
v 0.085526 0.147148 -0.003018
v 0.085525 0.147147 -0.002003
v 0.084918 0.147784 -0.001495
v 0.085522 0.147143 0.004089
v 0.085523 0.147144 0.002058
v 0.086129 0.146507 0.002566
v 0.084309 0.148417 0.003073
v 0.084917 0.147781 0.001550
v 0.086131 0.146510 -0.001495
v 0.085524 0.147146 0.000028
v 0.087948 0.144597 0.003073
v 0.087343 0.145235 0.001551
v 0.087949 0.144599 0.001043
v 0.086735 0.145870 0.004089
v 0.086736 0.145871 0.002058
v 0.086738 0.145874 -0.002003
v 0.086737 0.145873 0.000028
v 0.088557 0.143963 -0.000480
v 0.087951 0.144600 -0.000988
v 0.087951 0.144601 -0.002003
v 0.088556 0.143962 0.001551
v 0.087950 0.144600 0.000028
v 0.086739 0.145875 -0.003018
v 0.087344 0.145237 -0.001495
v 0.110374 0.168393 0.004119
v 0.110981 0.167757 0.002596
v 0.110374 0.168393 0.003104
v 0.111587 0.167120 0.003104
v 0.112195 0.166485 0.001581
v 0.111588 0.167121 0.002088
v 0.112196 0.166486 -0.000450
v 0.111589 0.167123 0.000058
v 0.111589 0.167122 0.001073
v 0.107948 0.170940 0.003104
v 0.109162 0.169667 0.002088
v 0.108556 0.170304 0.001581
v 0.109161 0.169666 0.004119
v 0.109768 0.169030 0.002596
v 0.110983 0.167759 -0.000450
v 0.110376 0.168395 0.001073
v 0.107344 0.171579 -0.000450
v 0.108557 0.170306 -0.000450
v 0.108557 0.170307 -0.001465
v 0.107343 0.171577 0.001581
v 0.108556 0.170305 0.000566
v 0.110983 0.167760 -0.001465
v 0.109770 0.169033 -0.000450
v 0.109165 0.169671 -0.002988
v 0.109771 0.169034 -0.002480
v 0.110378 0.168398 -0.002988
v 0.107951 0.170943 -0.001973
v 0.109164 0.169670 -0.001973
v 0.111590 0.167124 -0.001973
v 0.110377 0.168397 -0.001973
v 0.102648 0.164677 -0.002488
v 0.102041 0.165313 -0.001980
v 0.103862 0.163404 -0.003503
v 0.103255 0.164040 -0.002995
v 0.092042 0.152143 -0.003518
v 0.091436 0.152779 -0.003011
v 0.097345 0.158410 -0.003003
v 0.089615 0.154687 -0.001488
v 0.090222 0.154051 -0.001995
v 0.101435 0.165949 -0.001473
v 0.096132 0.159682 -0.001988
v 0.090829 0.153415 -0.002503
v 0.101433 0.165947 0.000558
v 0.101433 0.165947 0.001573
v 0.101434 0.165948 -0.000457
v 0.089615 0.154687 -0.000472
v 0.095524 0.160317 -0.000465
v 0.089613 0.154684 0.002573
v 0.089613 0.154685 0.001558
v 0.101432 0.165946 0.002588
v 0.095523 0.160316 0.001566
v 0.089614 0.154686 0.000543
v 0.102645 0.164672 0.003604
v 0.103251 0.164035 0.004111
v 0.102039 0.165309 0.003096
v 0.090219 0.154048 0.003081
v 0.096129 0.159678 0.003089
v 0.092038 0.152137 0.004604
v 0.091431 0.152774 0.004096
v 0.103857 0.163398 0.004619
v 0.097341 0.158404 0.004104
v 0.090825 0.153411 0.003589
v 0.105071 0.162126 0.003604
v 0.105678 0.161490 0.003096
v 0.104464 0.162762 0.004111
v 0.092644 0.151500 0.004096
v 0.098554 0.157131 0.004104
v 0.094465 0.149592 0.002573
v 0.093858 0.150228 0.003081
v 0.106284 0.160853 0.002589
v 0.099768 0.155859 0.003089
v 0.093251 0.150864 0.003589
v 0.106286 0.160855 0.000558
v 0.106286 0.160856 -0.000457
v 0.106285 0.160854 0.001573
v 0.094465 0.149593 0.001558
v 0.100375 0.155223 0.001566
v 0.094467 0.149595 -0.001488
v 0.094467 0.149594 -0.000472
v 0.106287 0.160856 -0.001472
v 0.100376 0.155225 -0.000465
v 0.094466 0.149593 0.000543
v 0.105074 0.162130 -0.002488
v 0.104468 0.162767 -0.002995
v 0.105681 0.161493 -0.001980
v 0.093861 0.150232 -0.001995
v 0.099771 0.155863 -0.001988
v 0.092649 0.151506 -0.003011
v 0.098558 0.157136 -0.003003
v 0.093255 0.150869 -0.002503
v 0.299118 -0.077034 0.001511
v 0.299725 -0.077670 -0.000012
v 0.299725 -0.077671 0.001003
v 0.299119 -0.077033 -0.000520
v 0.299726 -0.077668 -0.002043
v 0.299726 -0.077669 -0.001027
v 0.300940 -0.078941 -0.003058
v 0.300939 -0.078941 -0.002043
v 0.300333 -0.078305 -0.001535
v 0.300936 -0.078946 0.004049
v 0.300937 -0.078944 0.002018
v 0.301543 -0.079581 0.002526
v 0.299723 -0.077672 0.003034
v 0.300331 -0.078307 0.001511
v 0.301546 -0.079578 -0.001535
v 0.300938 -0.078943 -0.000012
v 0.303362 -0.081491 0.003034
v 0.302757 -0.080853 0.001511
v 0.303363 -0.081489 0.001003
v 0.302149 -0.080219 0.004049
v 0.302150 -0.080217 0.002018
v 0.302152 -0.080214 -0.002043
v 0.302151 -0.080216 -0.000012
v 0.303971 -0.082126 -0.000520
v 0.303365 -0.081489 -0.001027
v 0.303366 -0.081488 -0.002043
v 0.303970 -0.082127 0.001511
v 0.303364 -0.081489 -0.000012
v 0.302153 -0.080214 -0.003058
v 0.302759 -0.080852 -0.001535
v 0.325788 -0.057696 0.004079
v 0.326395 -0.058332 0.002556
v 0.325789 -0.057696 0.003064
v 0.327001 -0.058968 0.003064
v 0.327609 -0.059604 0.001541
v 0.327002 -0.058968 0.002049
v 0.327610 -0.059603 -0.000489
v 0.327004 -0.058967 0.000018
v 0.327003 -0.058967 0.001034
v 0.323362 -0.055149 0.003064
v 0.324576 -0.056422 0.002049
v 0.323970 -0.055785 0.001541
v 0.324575 -0.056423 0.004079
v 0.325182 -0.057059 0.002556
v 0.326398 -0.058330 -0.000489
v 0.325790 -0.057694 0.001033
v 0.322758 -0.054510 -0.000489
v 0.323971 -0.055783 -0.000489
v 0.323972 -0.055782 -0.001505
v 0.322757 -0.054511 0.001541
v 0.323971 -0.055784 0.000526
v 0.326398 -0.058329 -0.001505
v 0.325184 -0.057057 -0.000489
v 0.324579 -0.056418 -0.003028
v 0.325185 -0.057055 -0.002520
v 0.325792 -0.057691 -0.003028
v 0.323365 -0.055145 -0.002012
v 0.324579 -0.056419 -0.002012
v 0.327005 -0.058965 -0.002012
v 0.325792 -0.057692 -0.002012
v 0.318062 -0.061412 -0.002527
v 0.317456 -0.060776 -0.002020
v 0.319276 -0.062685 -0.003543
v 0.318669 -0.062048 -0.003035
v 0.307457 -0.073946 -0.003558
v 0.306850 -0.073310 -0.003050
v 0.312760 -0.067679 -0.003043
v 0.305029 -0.071401 -0.001527
v 0.305636 -0.072038 -0.002035
v 0.316849 -0.060140 -0.001512
v 0.311546 -0.066407 -0.002027
v 0.306243 -0.072674 -0.002543
v 0.316848 -0.060141 0.000518
v 0.316847 -0.060142 0.001533
v 0.316848 -0.060141 -0.000497
v 0.305029 -0.071402 -0.000512
v 0.310939 -0.065771 -0.000505
v 0.305027 -0.071404 0.002534
v 0.305028 -0.071404 0.001518
v 0.316846 -0.060143 0.002549
v 0.310937 -0.065773 0.001526
v 0.305028 -0.071403 0.000503
v 0.318059 -0.061417 0.003564
v 0.318665 -0.062054 0.004072
v 0.317453 -0.060780 0.003056
v 0.305633 -0.072041 0.003041
v 0.311543 -0.066411 0.003049
v 0.307452 -0.073952 0.004564
v 0.306846 -0.073315 0.004057
v 0.319271 -0.062691 0.004579
v 0.312755 -0.067684 0.004064
v 0.306239 -0.072678 0.003549
v 0.320485 -0.063963 0.003564
v 0.321091 -0.064599 0.003056
v 0.319878 -0.063327 0.004072
v 0.308058 -0.074588 0.004057
v 0.313968 -0.068957 0.004064
v 0.309878 -0.076496 0.002534
v 0.309272 -0.075860 0.003041
v 0.321698 -0.065235 0.002549
v 0.315182 -0.070229 0.003049
v 0.308665 -0.075224 0.003549
v 0.321700 -0.065234 0.000518
v 0.321701 -0.065234 -0.000497
v 0.321699 -0.065234 0.001534
v 0.309879 -0.076496 0.001518
v 0.315789 -0.070865 0.001526
v 0.309882 -0.076495 -0.001527
v 0.309881 -0.076495 -0.000512
v 0.321702 -0.065233 -0.001512
v 0.315791 -0.070864 -0.000504
v 0.309880 -0.076495 0.000503
v 0.320489 -0.063959 -0.002527
v 0.319882 -0.063322 -0.003035
v 0.321095 -0.064596 -0.002020
v 0.309276 -0.075858 -0.002035
v 0.315186 -0.070227 -0.002027
v 0.308063 -0.074583 -0.003050
v 0.313973 -0.068953 -0.003043
v 0.308669 -0.075220 -0.002543
v 0.242508 0.014592 -0.029668
v 0.158635 0.123322 -0.029641
v 0.252850 0.024446 -0.029654
v 0.054078 0.212344 -0.029640
v -0.029795 0.321074 -0.029613
v 0.064420 0.222198 -0.029627
v -0.009111 0.340783 -0.029586
v 0.085104 0.241907 -0.029600
v 0.074762 0.232053 -0.029614
v 0.367749 -0.054722 -0.029642
v 0.273534 0.044154 -0.029628
v 0.283876 0.054009 -0.029615
v 0.347065 -0.074430 -0.029668
v 0.263192 0.034300 -0.029641
v 0.095446 0.251761 -0.029587
v 0.179319 0.143031 -0.029614
v 0.283841 0.053968 0.027524
v 0.179285 0.142990 0.027525
v 0.273500 0.044114 0.027511
v 0.095412 0.251720 0.027552
v -0.009145 0.340742 0.027552
v 0.085070 0.241866 0.027539
v -0.029829 0.321033 0.027526
v 0.064386 0.222157 0.027512
v 0.074728 0.232012 0.027525
v 0.347031 -0.074471 0.027471
v 0.252816 0.024405 0.027485
v 0.242474 0.014551 0.027471
v 0.367715 -0.054762 0.027497
v 0.263158 0.034259 0.027498
v 0.054044 0.212303 0.027499
v 0.158601 0.123281 0.027498
v 0.366876 -0.064227 0.020348
v 0.377218 -0.054373 0.020361
v 0.346192 -0.083935 0.020321
v 0.356534 -0.074081 0.020334
v 0.365199 -0.083156 0.006048
v 0.375541 -0.073302 0.006061
v 0.366037 -0.073691 0.013198
v 0.356560 -0.074050 -0.022520
v 0.346218 -0.083904 -0.022533
v 0.377244 -0.054342 -0.022493
v 0.366902 -0.064196 -0.022507
v 0.375549 -0.073292 -0.008223
v 0.365207 -0.083146 -0.008237
v 0.366055 -0.073671 -0.015372
v 0.117391 0.309199 0.029240
v 0.126865 0.308361 0.022103
v 0.117011 0.318703 0.022104
v 0.137099 0.288514 0.029238
v 0.146572 0.287677 0.022100
v 0.136718 0.298019 0.022102
v 0.145812 0.306685 0.007828
v 0.135958 0.317028 0.007830
v 0.136338 0.307523 0.014966
v 0.137133 0.288556 -0.027902
v 0.136744 0.298050 -0.020753
v 0.146598 0.287708 -0.020755
v 0.117425 0.309240 -0.027899
v 0.117037 0.318734 -0.020750
v 0.126890 0.308392 -0.020751
v 0.135966 0.317038 -0.006455
v 0.145820 0.306696 -0.006457
v 0.136355 0.307544 -0.013604
v 0.189652 0.152874 -0.015316
v 0.283867 0.053998 -0.015330
v 0.001223 0.350627 -0.015288
v 0.095437 0.251751 -0.015302
v 0.001205 0.350606 0.013281
v 0.095420 0.251730 0.013267
v 0.095429 0.251740 -0.001018
v 0.378065 -0.044898 0.013226
v 0.283850 0.053978 0.013240
v 0.378082 -0.044878 -0.015344
v 0.283859 0.053988 -0.001045
v 0.189635 0.152854 0.013253
v 0.148267 0.113437 0.013200
v 0.242482 0.014561 0.013187
v -0.040162 0.311189 0.013228
v 0.054053 0.212313 0.013214
v -0.040145 0.311210 -0.015342
v 0.054070 0.212334 -0.015355
v 0.054061 0.212324 -0.001071
v 0.336714 -0.084294 -0.015397
v 0.242499 0.014582 -0.015383
v 0.336697 -0.084315 0.013173
v 0.242491 0.014572 -0.001098
v 0.148284 0.113458 -0.015369
v 0.377235 -0.054352 -0.008209
v 0.377226 -0.054362 0.006076
v 0.376388 -0.063827 -0.001074
v 0.346201 -0.083925 0.006036
v 0.346209 -0.083915 -0.008248
v 0.355704 -0.083535 -0.001100
v 0.045534 -0.230388 -0.005886
v 0.037910 -0.115885 -0.005807
v 0.098722 -0.179711 -0.005818
v -0.076091 -0.102736 -0.005864
v -0.083715 0.011766 -0.005785
v -0.022902 -0.052060 -0.005796
v 0.022662 0.113120 -0.005648
v 0.083474 0.049294 -0.005659
v 0.030286 -0.001383 -0.005728
v 0.265910 -0.142183 -0.005693
v 0.205098 -0.078357 -0.005682
v 0.258287 -0.027680 -0.005614
v 0.159534 -0.243536 -0.005829
v 0.151910 -0.129034 -0.005750
v 0.136662 0.099971 -0.005591
v 0.144286 -0.014531 -0.005671
v -0.076098 -0.102745 0.006380
v 0.037903 -0.115894 0.006437
v -0.022910 -0.052069 0.006448
v 0.045527 -0.230397 0.006358
v 0.159527 -0.243545 0.006415
v 0.098715 -0.179720 0.006426
v 0.265903 -0.142192 0.006551
v 0.205091 -0.078366 0.006562
v 0.151903 -0.129043 0.006494
v 0.022655 0.113111 0.006596
v 0.083467 0.049285 0.006585
v 0.136655 0.099962 0.006653
v -0.083722 0.011757 0.006459
v 0.030279 -0.001392 0.006516
v 0.258279 -0.027689 0.006630
v 0.144279 -0.014540 0.006573
v 0.106341 -0.294220 0.003285
v 0.159531 -0.243541 0.000293
v 0.159529 -0.243543 0.003354
v 0.106344 -0.294216 -0.002837
v 0.159532 -0.243539 -0.002768
v 0.265909 -0.142185 -0.002632
v 0.212721 -0.192862 -0.002700
v 0.265905 -0.142189 0.003490
v 0.319093 -0.091512 0.003558
v 0.212717 -0.192866 0.003422
v 0.319097 -0.091508 -0.002564
v 0.265907 -0.142187 0.000429
v 0.197473 0.036143 -0.002542
v 0.258285 -0.027682 -0.002553
v 0.075848 0.163795 -0.002519
v 0.136660 0.099969 -0.002530
v 0.075845 0.163790 0.003603
v 0.136657 0.099965 0.003592
v 0.136659 0.099967 0.000531
v 0.258281 -0.027687 0.003569
v 0.258283 -0.027684 0.000508
v 0.197469 0.036139 0.003580
v -0.136905 -0.038913 -0.002792
v -0.083718 0.011762 0.000337
v -0.083716 0.011764 -0.002724
v -0.136908 -0.038918 0.003330
v -0.083720 0.011759 0.003398
v 0.022656 0.113113 0.003535
v -0.030532 0.062436 0.003467
v 0.022660 0.113118 -0.002587
v -0.030528 0.062441 -0.002655
v 0.022658 0.113116 0.000474
v -0.015284 -0.166569 0.003308
v 0.045528 -0.230394 0.003297
v -0.076096 -0.102743 0.003319
v -0.076092 -0.102739 -0.002803
v -0.076094 -0.102741 0.000258
v 0.045532 -0.230390 -0.002825
v 0.045530 -0.230392 0.000236
v -0.015280 -0.166564 -0.002814
v -0.020419 0.118712 -0.028118
v -0.197678 -0.030447 -0.028331
v -0.030273 0.129054 -0.028117
v -0.355230 -0.200291 -0.028547
v -0.532489 -0.349450 -0.028760
v -0.365083 -0.189949 -0.028546
v -0.552196 -0.328766 -0.028757
v -0.384791 -0.169265 -0.028542
v -0.374937 -0.179607 -0.028544
v -0.049980 0.149738 -0.028113
v -0.059834 0.160080 -0.028112
v -0.040126 0.139396 -0.028115
v -0.394645 -0.158923 -0.028541
v -0.217385 -0.009763 -0.028328
v -0.059868 0.160040 0.029027
v -0.217420 -0.009804 0.028811
v -0.050015 0.149697 0.029026
v -0.394679 -0.158963 0.028598
v -0.552231 -0.328807 0.028382
v -0.384825 -0.169306 0.028597
v -0.532523 -0.349492 0.028380
v -0.365118 -0.189990 0.028594
v -0.374971 -0.179648 0.028595
v -0.030307 0.129013 0.029023
v -0.020453 0.118671 0.029022
v -0.040161 0.139355 0.029025
v -0.355264 -0.200332 0.028593
v -0.197712 -0.030489 0.028809
v -0.019461 0.330918 -0.015315
v -0.009119 0.340772 -0.015302
v -0.029803 0.321064 -0.015328
v -0.029820 0.321044 0.013241
v -0.029812 0.321054 -0.001044
v -0.009137 0.340752 0.013268
v -0.009128 0.340762 -0.001017
v -0.019479 0.330898 0.013254
v -0.227248 0.000569 -0.014042
v -0.059842 0.160070 -0.013827
v -0.562059 -0.318434 -0.014471
v -0.394653 -0.158933 -0.014256
v -0.562076 -0.318455 0.014099
v -0.394671 -0.158953 0.014313
v -0.394662 -0.158943 0.000029
v 0.107546 0.319551 0.014957
v -0.059860 0.160050 0.014743
v 0.107563 0.319571 -0.013612
v -0.059851 0.160060 0.000458
v -0.227265 0.000548 0.014528
v -0.187850 -0.040820 0.014522
v -0.020444 0.118681 0.014737
v -0.522661 -0.359823 0.014093
v -0.355255 -0.200322 0.014308
v -0.522644 -0.359803 -0.014477
v -0.355238 -0.200301 -0.014262
v -0.355247 -0.200312 0.000023
v 0.146978 0.278203 -0.013619
v -0.020427 0.118702 -0.013833
v 0.146961 0.278183 0.014951
v -0.020436 0.118691 0.000452
v -0.187833 -0.040800 -0.014048
v 0.117028 0.318724 -0.006465
v 0.117019 0.318713 0.007820
v 0.126493 0.317876 0.000682
v 0.146581 0.287687 0.007815
v 0.146589 0.287697 -0.006470
v 0.146201 0.297191 0.000679
f 1 170 172
f 170 51 171
f 171 53 172
f 170 171 172
f 51 173 175
f 173 2 174
f 174 52 175
f 173 174 175
f 52 176 178
f 176 3 177
f 177 53 178
f 176 177 178
f 51 175 171
f 175 52 178
f 178 53 171
f 175 178 171
f 4 179 181
f 179 54 180
f 180 55 181
f 179 180 181
f 54 182 183
f 182 1 172
f 172 53 183
f 182 172 183
f 53 177 185
f 177 3 184
f 184 55 185
f 177 184 185
f 54 183 180
f 183 53 185
f 185 55 180
f 183 185 180
f 5 186 188
f 186 56 187
f 187 57 188
f 186 187 188
f 56 189 190
f 189 4 181
f 181 55 190
f 189 181 190
f 55 184 192
f 184 3 191
f 191 57 192
f 184 191 192
f 56 190 187
f 190 55 192
f 192 57 187
f 190 192 187
f 6 193 195
f 193 58 194
f 194 59 195
f 193 194 195
f 58 196 197
f 196 5 188
f 188 57 197
f 196 188 197
f 57 191 199
f 191 3 198
f 198 59 199
f 191 198 199
f 58 197 194
f 197 57 199
f 199 59 194
f 197 199 194
f 7 200 202
f 200 60 201
f 201 62 202
f 200 201 202
f 60 203 205
f 203 8 204
f 204 61 205
f 203 204 205
f 61 206 208
f 206 9 207
f 207 62 208
f 206 207 208
f 60 205 201
f 205 61 208
f 208 62 201
f 205 208 201
f 10 209 211
f 209 63 210
f 210 64 211
f 209 210 211
f 63 212 213
f 212 7 202
f 202 62 213
f 212 202 213
f 62 207 215
f 207 9 214
f 214 64 215
f 207 214 215
f 63 213 210
f 213 62 215
f 215 64 210
f 213 215 210
f 11 216 218
f 216 65 217
f 217 66 218
f 216 217 218
f 65 219 220
f 219 10 211
f 211 64 220
f 219 211 220
f 64 214 222
f 214 9 221
f 221 66 222
f 214 221 222
f 65 220 217
f 220 64 222
f 222 66 217
f 220 222 217
f 12 223 225
f 223 67 224
f 224 68 225
f 223 224 225
f 67 226 227
f 226 11 218
f 218 66 227
f 226 218 227
f 66 221 229
f 221 9 228
f 228 68 229
f 221 228 229
f 67 227 224
f 227 66 229
f 229 68 224
f 227 229 224
f 11 226 231
f 226 67 230
f 230 70 231
f 226 230 231
f 67 223 233
f 223 12 232
f 232 69 233
f 223 232 233
f 69 234 236
f 234 3 235
f 235 70 236
f 234 235 236
f 67 233 230
f 233 69 236
f 236 70 230
f 233 236 230
f 2 237 174
f 237 71 238
f 238 52 174
f 237 238 174
f 71 239 240
f 239 11 231
f 231 70 240
f 239 231 240
f 70 235 241
f 235 3 176
f 176 52 241
f 235 176 241
f 71 240 238
f 240 70 241
f 241 52 238
f 240 241 238
f 10 219 243
f 219 65 242
f 242 72 243
f 219 242 243
f 65 216 244
f 216 11 239
f 239 71 244
f 216 239 244
f 71 237 246
f 237 2 245
f 245 72 246
f 237 245 246
f 65 244 242
f 244 71 246
f 246 72 242
f 244 246 242
f 1 247 170
f 247 73 248
f 248 51 170
f 247 248 170
f 73 249 250
f 249 10 243
f 243 72 250
f 249 243 250
f 72 245 251
f 245 2 173
f 173 51 251
f 245 173 251
f 73 250 248
f 250 72 251
f 251 51 248
f 250 251 248
f 7 212 253
f 212 63 252
f 252 74 253
f 212 252 253
f 63 209 254
f 209 10 249
f 249 73 254
f 209 249 254
f 73 247 256
f 247 1 255
f 255 74 256
f 247 255 256
f 63 254 252
f 254 73 256
f 256 74 252
f 254 256 252
f 4 257 179
f 257 75 258
f 258 54 179
f 257 258 179
f 75 259 260
f 259 7 253
f 253 74 260
f 259 253 260
f 74 255 261
f 255 1 182
f 182 54 261
f 255 182 261
f 75 260 258
f 260 74 261
f 261 54 258
f 260 261 258
f 8 203 263
f 203 60 262
f 262 76 263
f 203 262 263
f 60 200 264
f 200 7 259
f 259 75 264
f 200 259 264
f 75 257 266
f 257 4 265
f 265 76 266
f 257 265 266
f 60 264 262
f 264 75 266
f 266 76 262
f 264 266 262
f 5 267 186
f 267 77 268
f 268 56 186
f 267 268 186
f 77 269 270
f 269 8 263
f 263 76 270
f 269 263 270
f 76 265 271
f 265 4 189
f 189 56 271
f 265 189 271
f 77 270 268
f 270 76 271
f 271 56 268
f 270 271 268
f 9 206 273
f 206 61 272
f 272 78 273
f 206 272 273
f 61 204 274
f 204 8 269
f 269 77 274
f 204 269 274
f 77 267 276
f 267 5 275
f 275 78 276
f 267 275 276
f 61 274 272
f 274 77 276
f 276 78 272
f 274 276 272
f 6 277 193
f 277 79 278
f 278 58 193
f 277 278 193
f 79 279 280
f 279 9 273
f 273 78 280
f 279 273 280
f 78 275 281
f 275 5 196
f 196 58 281
f 275 196 281
f 79 280 278
f 280 78 281
f 281 58 278
f 280 281 278
f 12 225 283
f 225 68 282
f 282 80 283
f 225 282 283
f 68 228 284
f 228 9 279
f 279 79 284
f 228 279 284
f 79 277 286
f 277 6 285
f 285 80 286
f 277 285 286
f 68 284 282
f 284 79 286
f 286 80 282
f 284 286 282
f 3 234 198
f 234 69 287
f 287 59 198
f 234 287 198
f 69 232 288
f 232 12 283
f 283 80 288
f 232 283 288
f 80 285 289
f 285 6 195
f 195 59 289
f 285 195 289
f 69 288 287
f 288 80 289
f 289 59 287
f 288 289 287
f 13 290 292
f 290 81 291
f 291 83 292
f 290 291 292
f 81 293 295
f 293 14 294
f 294 82 295
f 293 294 295
f 82 296 298
f 296 15 297
f 297 83 298
f 296 297 298
f 81 295 291
f 295 82 298
f 298 83 291
f 295 298 291
f 16 299 301
f 299 84 300
f 300 85 301
f 299 300 301
f 84 302 303
f 302 13 292
f 292 83 303
f 302 292 303
f 83 297 305
f 297 15 304
f 304 85 305
f 297 304 305
f 84 303 300
f 303 83 305
f 305 85 300
f 303 305 300
f 17 306 308
f 306 86 307
f 307 87 308
f 306 307 308
f 86 309 310
f 309 16 301
f 301 85 310
f 309 301 310
f 85 304 312
f 304 15 311
f 311 87 312
f 304 311 312
f 86 310 307
f 310 85 312
f 312 87 307
f 310 312 307
f 18 313 315
f 313 88 314
f 314 89 315
f 313 314 315
f 88 316 317
f 316 17 308
f 308 87 317
f 316 308 317
f 87 311 319
f 311 15 318
f 318 89 319
f 311 318 319
f 88 317 314
f 317 87 319
f 319 89 314
f 317 319 314
f 19 320 322
f 320 90 321
f 321 92 322
f 320 321 322
f 90 323 325
f 323 20 324
f 324 91 325
f 323 324 325
f 91 326 328
f 326 21 327
f 327 92 328
f 326 327 328
f 90 325 321
f 325 91 328
f 328 92 321
f 325 328 321
f 22 329 331
f 329 93 330
f 330 94 331
f 329 330 331
f 93 332 333
f 332 19 322
f 322 92 333
f 332 322 333
f 92 327 335
f 327 21 334
f 334 94 335
f 327 334 335
f 93 333 330
f 333 92 335
f 335 94 330
f 333 335 330
f 23 336 338
f 336 95 337
f 337 96 338
f 336 337 338
f 95 339 340
f 339 22 331
f 331 94 340
f 339 331 340
f 94 334 342
f 334 21 341
f 341 96 342
f 334 341 342
f 95 340 337
f 340 94 342
f 342 96 337
f 340 342 337
f 24 343 345
f 343 97 344
f 344 98 345
f 343 344 345
f 97 346 347
f 346 23 338
f 338 96 347
f 346 338 347
f 96 341 349
f 341 21 348
f 348 98 349
f 341 348 349
f 97 347 344
f 347 96 349
f 349 98 344
f 347 349 344
f 23 346 351
f 346 97 350
f 350 100 351
f 346 350 351
f 97 343 353
f 343 24 352
f 352 99 353
f 343 352 353
f 99 354 356
f 354 15 355
f 355 100 356
f 354 355 356
f 97 353 350
f 353 99 356
f 356 100 350
f 353 356 350
f 14 357 294
f 357 101 358
f 358 82 294
f 357 358 294
f 101 359 360
f 359 23 351
f 351 100 360
f 359 351 360
f 100 355 361
f 355 15 296
f 296 82 361
f 355 296 361
f 101 360 358
f 360 100 361
f 361 82 358
f 360 361 358
f 22 339 363
f 339 95 362
f 362 102 363
f 339 362 363
f 95 336 364
f 336 23 359
f 359 101 364
f 336 359 364
f 101 357 366
f 357 14 365
f 365 102 366
f 357 365 366
f 95 364 362
f 364 101 366
f 366 102 362
f 364 366 362
f 13 367 290
f 367 103 368
f 368 81 290
f 367 368 290
f 103 369 370
f 369 22 363
f 363 102 370
f 369 363 370
f 102 365 371
f 365 14 293
f 293 81 371
f 365 293 371
f 103 370 368
f 370 102 371
f 371 81 368
f 370 371 368
f 19 332 373
f 332 93 372
f 372 104 373
f 332 372 373
f 93 329 374
f 329 22 369
f 369 103 374
f 329 369 374
f 103 367 376
f 367 13 375
f 375 104 376
f 367 375 376
f 93 374 372
f 374 103 376
f 376 104 372
f 374 376 372
f 16 377 299
f 377 105 378
f 378 84 299
f 377 378 299
f 105 379 380
f 379 19 373
f 373 104 380
f 379 373 380
f 104 375 381
f 375 13 302
f 302 84 381
f 375 302 381
f 105 380 378
f 380 104 381
f 381 84 378
f 380 381 378
f 20 323 383
f 323 90 382
f 382 106 383
f 323 382 383
f 90 320 384
f 320 19 379
f 379 105 384
f 320 379 384
f 105 377 386
f 377 16 385
f 385 106 386
f 377 385 386
f 90 384 382
f 384 105 386
f 386 106 382
f 384 386 382
f 17 387 306
f 387 107 388
f 388 86 306
f 387 388 306
f 107 389 390
f 389 20 383
f 383 106 390
f 389 383 390
f 106 385 391
f 385 16 309
f 309 86 391
f 385 309 391
f 107 390 388
f 390 106 391
f 391 86 388
f 390 391 388
f 21 326 393
f 326 91 392
f 392 108 393
f 326 392 393
f 91 324 394
f 324 20 389
f 389 107 394
f 324 389 394
f 107 387 396
f 387 17 395
f 395 108 396
f 387 395 396
f 91 394 392
f 394 107 396
f 396 108 392
f 394 396 392
f 18 397 313
f 397 109 398
f 398 88 313
f 397 398 313
f 109 399 400
f 399 21 393
f 393 108 400
f 399 393 400
f 108 395 401
f 395 17 316
f 316 88 401
f 395 316 401
f 109 400 398
f 400 108 401
f 401 88 398
f 400 401 398
f 24 345 403
f 345 98 402
f 402 110 403
f 345 402 403
f 98 348 404
f 348 21 399
f 399 109 404
f 348 399 404
f 109 397 406
f 397 18 405
f 405 110 406
f 397 405 406
f 98 404 402
f 404 109 406
f 406 110 402
f 404 406 402
f 15 354 318
f 354 99 407
f 407 89 318
f 354 407 318
f 99 352 408
f 352 24 403
f 403 110 408
f 352 403 408
f 110 405 409
f 405 18 315
f 315 89 409
f 405 315 409
f 99 408 407
f 408 110 409
f 409 89 407
f 408 409 407
f 25 410 412
f 410 111 411
f 411 113 412
f 410 411 412
f 111 413 415
f 413 26 414
f 414 112 415
f 413 414 415
f 112 416 418
f 416 27 417
f 417 113 418
f 416 417 418
f 111 415 411
f 415 112 418
f 418 113 411
f 415 418 411
f 28 419 421
f 419 114 420
f 420 115 421
f 419 420 421
f 114 422 423
f 422 25 412
f 412 113 423
f 422 412 423
f 113 417 425
f 417 27 424
f 424 115 425
f 417 424 425
f 114 423 420
f 423 113 425
f 425 115 420
f 423 425 420
f 29 426 428
f 426 116 427
f 427 118 428
f 426 427 428
f 116 429 431
f 429 30 430
f 430 117 431
f 429 430 431
f 117 432 434
f 432 31 433
f 433 118 434
f 432 433 434
f 116 431 427
f 431 117 434
f 434 118 427
f 431 434 427
f 32 435 437
f 435 119 436
f 436 120 437
f 435 436 437
f 119 438 439
f 438 29 428
f 428 118 439
f 438 428 439
f 118 433 441
f 433 31 440
f 440 120 441
f 433 440 441
f 119 439 436
f 439 118 441
f 441 120 436
f 439 441 436
f 29 438 443
f 438 119 442
f 442 122 443
f 438 442 443
f 119 435 445
f 435 32 444
f 444 121 445
f 435 444 445
f 121 446 448
f 446 33 447
f 447 122 448
f 446 447 448
f 119 445 442
f 445 121 448
f 448 122 442
f 445 448 442
f 25 422 450
f 422 114 449
f 449 124 450
f 422 449 450
f 114 419 452
f 419 28 451
f 451 123 452
f 419 451 452
f 123 453 455
f 453 33 454
f 454 124 455
f 453 454 455
f 114 452 449
f 452 123 455
f 455 124 449
f 452 455 449
f 34 456 458
f 456 125 457
f 457 127 458
f 456 457 458
f 125 459 461
f 459 35 460
f 460 126 461
f 459 460 461
f 126 462 464
f 462 36 463
f 463 127 464
f 462 463 464
f 125 461 457
f 461 126 464
f 464 127 457
f 461 464 457
f 37 465 467
f 465 128 466
f 466 130 467
f 465 466 467
f 128 468 470
f 468 38 469
f 469 129 470
f 468 469 470
f 129 471 473
f 471 36 472
f 472 130 473
f 471 472 473
f 128 470 466
f 470 129 473
f 473 130 466
f 470 473 466
f 28 421 475
f 421 115 474
f 474 132 475
f 421 474 475
f 115 424 477
f 424 27 476
f 476 131 477
f 424 476 477
f 131 478 480
f 478 30 479
f 479 132 480
f 478 479 480
f 115 477 474
f 477 131 480
f 480 132 474
f 477 480 474
f 29 481 426
f 481 133 482
f 482 116 426
f 481 482 426
f 133 483 484
f 483 28 475
f 475 132 484
f 483 475 484
f 132 479 485
f 479 30 429
f 429 116 485
f 479 429 485
f 133 484 482
f 484 132 485
f 485 116 482
f 484 485 482
f 32 437 487
f 437 120 486
f 486 135 487
f 437 486 487
f 120 440 489
f 440 31 488
f 488 134 489
f 440 488 489
f 134 490 492
f 490 26 491
f 491 135 492
f 490 491 492
f 120 489 486
f 489 134 492
f 492 135 486
f 489 492 486
f 25 493 410
f 493 136 494
f 494 111 410
f 493 494 410
f 136 495 496
f 495 32 487
f 487 135 496
f 495 487 496
f 135 491 497
f 491 26 413
f 413 111 497
f 491 413 497
f 136 496 494
f 496 135 497
f 497 111 494
f 496 497 494
f 28 483 451
f 483 133 498
f 498 123 451
f 483 498 451
f 133 481 499
f 481 29 443
f 443 122 499
f 481 443 499
f 122 447 500
f 447 33 453
f 453 123 500
f 447 453 500
f 133 499 498
f 499 122 500
f 500 123 498
f 499 500 498
f 32 495 444
f 495 136 501
f 501 121 444
f 495 501 444
f 136 493 502
f 493 25 450
f 450 124 502
f 493 450 502
f 124 454 503
f 454 33 446
f 446 121 503
f 454 446 503
f 136 502 501
f 502 124 503
f 503 121 501
f 502 503 501
f 39 504 506
f 504 137 505
f 505 139 506
f 504 505 506
f 137 507 509
f 507 40 508
f 508 138 509
f 507 508 509
f 138 510 512
f 510 41 511
f 511 139 512
f 510 511 512
f 137 509 505
f 509 138 512
f 512 139 505
f 509 512 505
f 42 513 515
f 513 140 514
f 514 141 515
f 513 514 515
f 140 516 517
f 516 39 506
f 506 139 517
f 516 506 517
f 139 511 519
f 511 41 518
f 518 141 519
f 511 518 519
f 140 517 514
f 517 139 519
f 519 141 514
f 517 519 514
f 43 520 522
f 520 142 521
f 521 144 522
f 520 521 522
f 142 523 525
f 523 44 524
f 524 143 525
f 523 524 525
f 143 526 528
f 526 45 527
f 527 144 528
f 526 527 528
f 142 525 521
f 525 143 528
f 528 144 521
f 525 528 521
f 46 529 531
f 529 145 530
f 530 146 531
f 529 530 531
f 145 532 533
f 532 43 522
f 522 144 533
f 532 522 533
f 144 527 535
f 527 45 534
f 534 146 535
f 527 534 535
f 145 533 530
f 533 144 535
f 535 146 530
f 533 535 530
f 44 536 538
f 536 147 537
f 537 148 538
f 536 537 538
f 147 539 540
f 539 39 516
f 516 140 540
f 539 516 540
f 140 513 542
f 513 42 541
f 541 148 542
f 513 541 542
f 147 540 537
f 540 140 542
f 542 148 537
f 540 542 537
f 45 526 544
f 526 143 543
f 543 149 544
f 526 543 544
f 143 524 545
f 524 44 538
f 538 148 545
f 524 538 545
f 148 541 547
f 541 42 546
f 546 149 547
f 541 546 547
f 143 545 543
f 545 148 547
f 547 149 543
f 545 547 543
f 42 515 549
f 515 141 548
f 548 151 549
f 515 548 549
f 141 518 551
f 518 41 550
f 550 150 551
f 518 550 551
f 150 552 554
f 552 46 553
f 553 151 554
f 552 553 554
f 141 551 548
f 551 150 554
f 554 151 548
f 551 554 548
f 45 544 534
f 544 149 555
f 555 146 534
f 544 555 534
f 149 546 556
f 546 42 549
f 549 151 556
f 546 549 556
f 151 553 557
f 553 46 531
f 531 146 557
f 553 531 557
f 149 556 555
f 556 151 557
f 557 146 555
f 556 557 555
f 40 558 560
f 558 152 559
f 559 153 560
f 558 559 560
f 152 561 562
f 561 43 532
f 532 145 562
f 561 532 562
f 145 529 564
f 529 46 563
f 563 153 564
f 529 563 564
f 152 562 559
f 562 145 564
f 564 153 559
f 562 564 559
f 41 510 550
f 510 138 565
f 565 150 550
f 510 565 550
f 138 508 566
f 508 40 560
f 560 153 566
f 508 560 566
f 153 563 567
f 563 46 552
f 552 150 567
f 563 552 567
f 138 566 565
f 566 153 567
f 567 150 565
f 566 567 565
f 44 523 569
f 523 142 568
f 568 154 569
f 523 568 569
f 142 520 570
f 520 43 561
f 561 152 570
f 520 561 570
f 152 558 572
f 558 40 571
f 571 154 572
f 558 571 572
f 142 570 568
f 570 152 572
f 572 154 568
f 570 572 568
f 39 539 504
f 539 147 573
f 573 137 504
f 539 573 504
f 147 536 574
f 536 44 569
f 569 154 574
f 536 569 574
f 154 571 575
f 571 40 507
f 507 137 575
f 571 507 575
f 147 574 573
f 574 154 575
f 575 137 573
f 574 575 573
f 37 576 578
f 576 155 577
f 577 157 578
f 576 577 578
f 155 579 581
f 579 47 580
f 580 156 581
f 579 580 581
f 156 582 584
f 582 48 583
f 583 157 584
f 582 583 584
f 155 581 577
f 581 156 584
f 584 157 577
f 581 584 577
f 38 468 586
f 468 128 585
f 585 158 586
f 468 585 586
f 128 465 587
f 465 37 578
f 578 157 587
f 465 578 587
f 157 583 589
f 583 48 588
f 588 158 589
f 583 588 589
f 128 587 585
f 587 157 589
f 589 158 585
f 587 589 585
f 34 590 592
f 590 159 591
f 591 161 592
f 590 591 592
f 159 593 595
f 593 49 594
f 594 160 595
f 593 594 595
f 160 596 598
f 596 50 597
f 597 161 598
f 596 597 598
f 159 595 591
f 595 160 598
f 598 161 591
f 595 598 591
f 35 459 600
f 459 125 599
f 599 162 600
f 459 599 600
f 125 456 601
f 456 34 592
f 592 161 601
f 456 592 601
f 161 597 603
f 597 50 602
f 602 162 603
f 597 602 603
f 125 601 599
f 601 161 603
f 603 162 599
f 601 603 599
f 27 416 605
f 416 112 604
f 604 163 605
f 416 604 605
f 112 414 606
f 414 26 490
f 490 134 606
f 414 490 606
f 134 488 608
f 488 31 607
f 607 163 608
f 488 607 608
f 112 606 604
f 606 134 608
f 608 163 604
f 606 608 604
f 30 478 430
f 478 131 609
f 609 117 430
f 478 609 430
f 131 476 610
f 476 27 605
f 605 163 610
f 476 605 610
f 163 607 611
f 607 31 432
f 432 117 611
f 607 432 611
f 131 610 609
f 610 163 611
f 611 117 609
f 610 611 609
f 38 586 613
f 586 158 612
f 612 165 613
f 586 612 613
f 158 588 615
f 588 48 614
f 614 164 615
f 588 614 615
f 164 616 618
f 616 49 617
f 617 165 618
f 616 617 618
f 158 615 612
f 615 164 618
f 618 165 612
f 615 618 612
f 34 619 590
f 619 166 620
f 620 159 590
f 619 620 590
f 166 621 622
f 621 38 613
f 613 165 622
f 621 613 622
f 165 617 623
f 617 49 593
f 593 159 623
f 617 593 623
f 166 622 620
f 622 165 623
f 623 159 620
f 622 623 620
f 35 600 625
f 600 162 624
f 624 168 625
f 600 624 625
f 162 602 627
f 602 50 626
f 626 167 627
f 602 626 627
f 167 628 630
f 628 47 629
f 629 168 630
f 628 629 630
f 162 627 624
f 627 167 630
f 630 168 624
f 627 630 624
f 37 631 576
f 631 169 632
f 632 155 576
f 631 632 576
f 169 633 634
f 633 35 625
f 625 168 634
f 633 625 634
f 168 629 635
f 629 47 579
f 579 155 635
f 629 579 635
f 169 634 632
f 634 168 635
f 635 155 632
f 634 635 632
f 38 621 469
f 621 166 636
f 636 129 469
f 621 636 469
f 166 619 637
f 619 34 458
f 458 127 637
f 619 458 637
f 127 463 638
f 463 36 471
f 471 129 638
f 463 471 638
f 166 637 636
f 637 127 638
f 638 129 636
f 637 638 636
f 35 633 460
f 633 169 639
f 639 126 460
f 633 639 460
f 169 631 640
f 631 37 467
f 467 130 640
f 631 467 640
f 130 472 641
f 472 36 462
f 462 126 641
f 472 462 641
f 169 640 639
f 640 130 641
f 641 126 639
f 640 641 639
