# Unified Preprocessed OBJ file from m1359.obj
# Applied remeshing: Yes
# Applied 4-step normalization: centering, PCA alignment, flipping, scaling
# Generated on 2025-09-29 15:19:06

v 0.103016 -0.027221 0.116285
v 0.163125 -0.157232 -0.108232
v 0.102786 -0.057222 0.115545
v 0.073331 -0.156385 -0.114712
v 0.043095 -0.034156 0.111780
v 0.073101 -0.186385 -0.115453
v 0.162895 -0.187233 -0.108973
v 0.042865 -0.064157 0.111040
v 0.016545 -0.177237 -0.164473
v 0.539983 -0.202343 -0.124322
v 0.540343 -0.182182 -0.126674
v 0.016185 -0.197398 -0.162121
v 0.539265 -0.219571 -0.116635
v 0.015467 -0.214626 -0.154433
v 0.538300 -0.231244 -0.104780
v 0.014502 -0.226300 -0.142579
v 0.537233 -0.235585 -0.090565
v 0.013435 -0.230640 -0.128364
v 0.536227 -0.231935 -0.076153
v 0.012429 -0.226990 -0.113951
v 0.535436 -0.220847 -0.063736
v 0.011638 -0.215902 -0.101535
v 0.534979 -0.204010 -0.055208
v 0.011182 -0.199065 -0.093007
v 0.534927 -0.183986 -0.051865
v 0.011129 -0.179042 -0.089664
v 0.535287 -0.163827 -0.054216
v 0.011489 -0.158882 -0.092015
v 0.536005 -0.146599 -0.061904
v 0.012207 -0.141654 -0.099702
v 0.536970 -0.134925 -0.073758
v 0.013172 -0.129980 -0.111557
v 0.538037 -0.130584 -0.087974
v 0.014239 -0.125639 -0.125773
v 0.539043 -0.134234 -0.102386
v 0.015245 -0.129290 -0.140184
v 0.539834 -0.145323 -0.114802
v 0.016036 -0.140378 -0.152601
v 0.540290 -0.162159 -0.123330
v 0.016493 -0.157215 -0.161129
v 0.019360 0.190268 -0.155403
v 0.542819 0.168032 -0.115181
v 0.543158 0.185323 -0.117604
v 0.019022 0.172977 -0.152980
v 0.542121 0.153239 -0.107434
v 0.018323 0.158184 -0.145233
v 0.541167 0.143192 -0.095539
v 0.017370 0.148137 -0.133338
v 0.540105 0.139420 -0.081310
v 0.016307 0.144365 -0.119109
v 0.539095 0.142501 -0.066912
v 0.015297 0.147446 -0.104710
v 0.538291 0.151963 -0.054535
v 0.014493 0.156907 -0.092334
v 0.537816 0.166365 -0.046067
v 0.014018 0.171310 -0.083866
v 0.537742 0.183519 -0.042795
v 0.013944 0.188463 -0.080594
v 0.538080 0.200807 -0.045217
v 0.014282 0.205752 -0.083016
v 0.538779 0.215603 -0.052965
v 0.014981 0.220548 -0.090763
v 0.539732 0.225650 -0.064860
v 0.015934 0.230595 -0.102658
v 0.540794 0.229422 -0.079089
v 0.016997 0.234366 -0.116888
v 0.541804 0.226341 -0.093487
v 0.018006 0.231285 -0.131286
v 0.542608 0.216879 -0.105863
v 0.018810 0.221824 -0.143662
v 0.543083 0.202475 -0.114331
v 0.019285 0.207419 -0.152130
v 0.082856 -0.032134 0.186516
v 0.324434 -0.027959 0.175152
v 0.084984 -0.025698 0.157873
v -0.156198 0.021790 0.170511
v 0.083252 0.019529 0.187791
v 0.085292 0.014484 0.158864
v 0.324423 -0.007923 0.177925
v 0.089305 -0.004218 0.100799
v 0.328437 -0.026625 0.119861
v 0.328756 -0.006479 0.118078
v 0.088986 -0.024364 0.102582
v 0.327837 -0.043814 0.125927
v 0.088386 -0.041553 0.108647
v 0.327047 -0.055429 0.135354
v 0.087596 -0.053169 0.118075
v 0.326187 -0.059702 0.146706
v 0.086737 -0.057441 0.129427
v 0.325389 -0.055981 0.158256
v 0.085939 -0.053721 0.140977
v 0.324773 -0.044835 0.168245
v 0.085323 -0.042574 0.150965
v 0.084973 -0.005662 0.160646
v 0.324742 0.012223 0.176144
v 0.325342 0.029412 0.170077
v 0.085892 0.031673 0.152798
v 0.326132 0.041027 0.160651
v 0.086682 0.043288 0.143371
v 0.326992 0.045300 0.149298
v 0.087541 0.047561 0.132018
v 0.327790 0.041580 0.137748
v 0.088340 0.043840 0.120469
v 0.328406 0.030433 0.127759
v 0.088955 0.032694 0.110480
v 0.328745 0.013557 0.120853
v 0.089294 0.015818 0.103573
v -0.150145 -0.001958 0.083519
v 0.088860 -0.030133 0.103578
v -0.150590 -0.027872 0.086299
v 0.087988 -0.052266 0.112768
v -0.151462 -0.050005 0.095488
v 0.086822 -0.067249 0.126968
v -0.152629 -0.064989 0.109689
v 0.085539 -0.072803 0.144018
v -0.153911 -0.070542 0.126739
v 0.084335 -0.068078 0.161322
v -0.155115 -0.065818 0.144043
v 0.083393 -0.053797 0.176245
v -0.156058 -0.051537 0.158965
v -0.156594 -0.029873 0.169236
v 0.082807 -0.006384 0.190570
v -0.156644 -0.004124 0.173290
v 0.084124 0.041663 0.178601
v -0.155326 0.043924 0.161321
v 0.085290 0.056647 0.164400
v -0.154160 0.058907 0.147121
v 0.086573 0.062200 0.147350
v -0.152877 0.064460 0.130071
v 0.087777 0.057476 0.130046
v -0.151673 0.059736 0.112767
v 0.088719 0.043195 0.115124
v -0.150731 0.045455 0.097844
v 0.089256 0.021530 0.104853
v -0.150195 0.023791 0.087574
v 0.014764 0.033989 0.096325
v -0.055224 -0.038502 0.014266
v 0.014189 -0.041013 0.094474
v -0.119926 0.035260 0.086605
v -0.054649 0.036500 0.016117
v -0.120501 -0.039741 0.084754
v -0.145017 -0.037654 0.007786
v -0.144442 0.037347 0.009637
v -0.212619 -0.153104 -0.008709
v -0.176336 -0.076703 0.002285
v -0.145709 -0.142028 -0.003598
v -0.212277 -0.200020 -0.019581
v -0.124857 -0.185547 -0.012903
v -0.211575 -0.216299 -0.031440
v -0.116950 -0.200636 -0.024212
v -0.210619 -0.199467 -0.042483
v -0.123199 -0.184994 -0.035805
v -0.209556 -0.152083 -0.051027
v -0.142645 -0.141007 -0.045916
v -0.208545 -0.081364 -0.055772
v -0.172333 -0.075369 -0.053006
v -0.214242 -0.000239 0.033775
v -0.212548 -0.082698 -0.000481
v -0.176729 0.002005 -0.068797
v -0.145541 -0.058949 0.004943
v -0.088807 -0.109223 0.001313
v -0.050510 -0.142686 -0.006487
v -0.036479 -0.154242 -0.017267
v -0.048852 -0.142133 -0.029389
v -0.085744 -0.108202 -0.041005
v -0.141538 -0.057615 -0.050349
v -0.124851 -0.032139 0.007087
v -0.050575 -0.059685 0.005276
v -0.000556 -0.077961 -0.001309
v 0.017589 -0.084184 -0.011663
v 0.001102 -0.077408 -0.024212
v -0.047512 -0.058664 -0.037042
v -0.120849 -0.030805 -0.048204
v -0.117413 -0.000355 0.008392
v -0.036833 -0.000954 0.007687
v 0.017398 -0.001225 0.001842
v 0.037024 -0.001127 -0.008253
v 0.019056 -0.000673 -0.021061
v -0.033769 0.000067 -0.034631
v -0.113410 0.000979 -0.046899
v -0.049674 0.058027 0.008181
v 0.000622 0.075838 0.002486
v 0.018864 0.082286 -0.007555
v 0.002279 0.076390 -0.020416
v -0.046610 0.059048 -0.034137
v -0.120361 0.032900 -0.046632
v -0.124363 0.031566 0.008659
v -0.087141 0.108280 0.006681
v -0.048333 0.141496 0.000526
v -0.034123 0.153353 -0.009676
v -0.046675 0.142049 -0.022376
v -0.084078 0.109301 -0.035637
v -0.140636 0.060096 -0.047444
v -0.144639 0.058763 0.007848
v -0.143532 0.142154 0.003416
v -0.122013 0.185755 -0.003740
v -0.113872 0.201259 -0.014293
v -0.120355 0.186307 -0.026642
v -0.140469 0.143175 -0.038902
v -0.171155 0.078429 -0.049211
v -0.175158 0.077095 0.006081
v -0.210263 0.154492 -0.001117
v -0.209199 0.201875 -0.009662
v -0.208243 0.218708 -0.020704
v -0.207541 0.202428 -0.032564
v -0.207200 0.155513 -0.043435
v -0.207270 0.085107 -0.051664
v -0.211273 0.083773 0.003627
v -0.247485 0.077778 0.000861
v -0.277172 0.143416 -0.006228
v -0.296619 0.187403 -0.016340
v -0.302868 0.203043 -0.027932
v -0.294961 0.187956 -0.039242
v -0.274109 0.144437 -0.048546
v -0.243482 0.079112 -0.054430
v -0.278279 0.060024 -0.001796
v -0.334075 0.110611 -0.011139
v -0.370966 0.144542 -0.022756
v -0.383340 0.156650 -0.034877
v -0.369309 0.145095 -0.045658
v -0.331011 0.111632 -0.053457
v -0.274277 0.061358 -0.057087
v -0.298970 0.033214 -0.003941
v -0.372307 0.061073 -0.015101
v -0.420919 0.079817 -0.027933
v -0.437408 0.086593 -0.040481
v -0.419261 0.080370 -0.050835
v -0.369243 0.062094 -0.057419
v -0.294967 0.034548 -0.059232
v -0.306408 0.001430 -0.005246
v -0.386049 0.002342 -0.017513
v -0.438874 0.003082 -0.031084
v -0.456842 0.003536 -0.043891
v -0.437216 0.003634 -0.053986
v -0.382986 0.003363 -0.059831
v -0.302406 0.002763 -0.060537
v -0.373208 -0.056639 -0.018006
v -0.422097 -0.073981 -0.031729
v -0.438683 -0.079877 -0.044589
v -0.420439 -0.073429 -0.054631
v -0.370145 -0.055618 -0.060324
v -0.295455 -0.029157 -0.060804
v -0.299458 -0.030491 -0.005513
v -0.335741 -0.106892 -0.016507
v -0.373143 -0.139640 -0.029769
v -0.385696 -0.150946 -0.042468
v -0.371485 -0.139088 -0.052671
v -0.332677 -0.105871 -0.058825
v -0.275178 -0.056354 -0.059993
v -0.279181 -0.057688 -0.004701
v -0.279349 -0.140766 -0.013242
v -0.299463 -0.183898 -0.025503
v -0.305946 -0.198851 -0.037850
v -0.297805 -0.183346 -0.048405
v -0.276285 -0.139745 -0.055560
v -0.244660 -0.074686 -0.058226
v -0.248663 -0.076020 -0.002934
v 0.103360 0.017780 0.117396
v 0.137887 0.173777 -0.132172
v 0.043497 0.018345 0.113076
v 0.043727 0.048345 0.113816
v 0.138117 0.203777 -0.131431
v 0.227910 0.202929 -0.124952
v 0.227681 0.172929 -0.125692
v 0.103590 0.047780 0.118136
v 0.133070 -0.092227 0.004026
v 0.132955 -0.107227 0.003656
v 0.102901 -0.042221 0.115915
v 0.088173 -0.091803 0.000787
v 0.118228 -0.156808 -0.111472
v 0.072941 -0.045689 0.113663
v 0.073055 -0.030689 0.114033
v 0.118113 -0.171809 -0.111843
v 0.117998 -0.186809 -0.112213
v 0.163010 -0.172232 -0.108603
v 0.042980 -0.049156 0.111410
v 0.058098 -0.110271 -0.001836
v 0.058213 -0.095270 -0.001466
v 0.087943 -0.121803 0.000046
v 0.057983 -0.125271 -0.002206
v 0.072826 -0.060689 0.113292
v 0.278264 -0.189790 -0.144397
v 0.540163 -0.192262 -0.125498
v 0.278444 -0.179709 -0.145574
v 0.277725 -0.208484 -0.139378
v 0.539624 -0.210957 -0.120478
v 0.278084 -0.199870 -0.143221
v 0.276883 -0.222935 -0.129607
v 0.538782 -0.225407 -0.110707
v 0.277366 -0.217098 -0.135534
v 0.275867 -0.230942 -0.116572
v 0.537766 -0.233415 -0.097673
v 0.276401 -0.228772 -0.123679
v 0.274831 -0.231288 -0.102258
v 0.536730 -0.233760 -0.083359
v 0.275334 -0.233113 -0.109465
v 0.273933 -0.223918 -0.088844
v 0.535832 -0.226391 -0.069944
v 0.274328 -0.229463 -0.095052
v 0.273309 -0.209956 -0.078371
v 0.535208 -0.212428 -0.059472
v 0.273537 -0.218374 -0.082635
v 0.273054 -0.191526 -0.072436
v 0.534953 -0.193998 -0.053537
v 0.273081 -0.201538 -0.074107
v 0.273208 -0.171434 -0.071940
v 0.535107 -0.173907 -0.053041
v 0.273028 -0.181514 -0.070764
v 0.273747 -0.152740 -0.076959
v 0.535646 -0.155213 -0.058060
v 0.273388 -0.161354 -0.073116
v 0.274588 -0.138289 -0.086730
v 0.536487 -0.140762 -0.067831
v 0.274106 -0.144126 -0.080803
v 0.275605 -0.130282 -0.099766
v 0.537504 -0.132755 -0.080866
v 0.275071 -0.132453 -0.092658
v 0.276641 -0.129937 -0.114079
v 0.538540 -0.132409 -0.095180
v 0.276138 -0.128112 -0.106873
v 0.277539 -0.137306 -0.127493
v 0.539438 -0.139778 -0.108594
v 0.277144 -0.131762 -0.121285
v 0.278163 -0.151269 -0.137966
v 0.540062 -0.153741 -0.119066
v 0.277935 -0.142850 -0.133702
v 0.278418 -0.169698 -0.143902
v 0.540317 -0.172171 -0.125002
v 0.278391 -0.159687 -0.142230
v 0.011335 -0.178974 -0.092511
v 0.013863 -0.188151 -0.128740
v 0.014017 -0.168059 -0.128244
v 0.535182 -0.202417 -0.057801
v 0.537609 -0.173073 -0.087598
v 0.537863 -0.191503 -0.093533
v 0.281090 0.179150 -0.135292
v 0.542988 0.176678 -0.116393
v 0.281259 0.187796 -0.136504
v 0.280571 0.163108 -0.130207
v 0.542470 0.160636 -0.111308
v 0.280920 0.170505 -0.134081
v 0.279745 0.150688 -0.120386
v 0.541644 0.148215 -0.101487
v 0.280222 0.155711 -0.126333
v 0.278737 0.143778 -0.107324
v 0.540636 0.141306 -0.088425
v 0.279269 0.145664 -0.114438
v 0.277701 0.143433 -0.093010
v 0.539600 0.140961 -0.074111
v 0.278206 0.141892 -0.100210
v 0.276794 0.149704 -0.079623
v 0.538693 0.147232 -0.060724
v 0.277196 0.144974 -0.085811
v 0.276155 0.161636 -0.069201
v 0.538054 0.159164 -0.050301
v 0.276392 0.154435 -0.073435
v 0.275880 0.177414 -0.063331
v 0.537779 0.174942 -0.044431
v 0.275917 0.168837 -0.064967
v 0.276012 0.194635 -0.062906
v 0.537911 0.192163 -0.044006
v 0.275843 0.185991 -0.061695
v 0.276530 0.210677 -0.067990
v 0.538429 0.208205 -0.049091
v 0.276181 0.203280 -0.064117
v 0.277356 0.223099 -0.077812
v 0.539255 0.220626 -0.058912
v 0.276880 0.218075 -0.071864
v 0.278364 0.230008 -0.090874
v 0.540263 0.227536 -0.071974
v 0.277833 0.228122 -0.083759
v 0.279400 0.230354 -0.105187
v 0.541299 0.227881 -0.086288
v 0.278895 0.231894 -0.097989
v 0.280307 0.224082 -0.118575
v 0.542206 0.221610 -0.099675
v 0.279905 0.228813 -0.112386
v 0.280947 0.212149 -0.128997
v 0.542846 0.209677 -0.110097
v 0.280709 0.219351 -0.124763
v 0.281221 0.196371 -0.134867
v 0.543120 0.193899 -0.115968
v 0.281184 0.204947 -0.133231
v 0.014150 0.188531 -0.083441
v 0.016689 0.180789 -0.119635
v 0.016821 0.198010 -0.119210
v 0.538017 0.167741 -0.048665
v 0.540413 0.192997 -0.078563
v 0.540687 0.177219 -0.084433
v 0.203645 -0.030046 0.180834
v 0.204709 -0.026829 0.166513
v 0.083920 -0.028916 0.172194
v -0.036473 0.020660 0.179151
v 0.084272 0.017007 0.173328
v -0.035453 0.018137 0.164688
v 0.324429 -0.017941 0.176539
v 0.203838 0.005803 0.182858
v 0.203843 -0.004215 0.181471
v 0.208871 -0.015422 0.110330
v 0.328596 -0.016552 0.118970
v 0.209030 -0.005349 0.109439
v 0.208412 -0.034089 0.114254
v 0.328137 -0.035219 0.122894
v 0.208712 -0.025495 0.111221
v 0.207717 -0.048491 0.122001
v 0.327442 -0.049621 0.130640
v 0.208112 -0.042684 0.117287
v 0.206892 -0.056435 0.132391
v 0.326617 -0.057565 0.141030
v 0.207322 -0.054299 0.126715
v 0.206063 -0.056711 0.143842
v 0.325788 -0.057842 0.152481
v 0.206462 -0.058572 0.138066
v 0.205356 -0.049278 0.154611
v 0.325081 -0.050408 0.163251
v 0.205664 -0.054851 0.149617
v 0.204879 -0.035266 0.163059
v 0.324604 -0.036397 0.171698
v 0.205048 -0.043704 0.159605
v 0.204704 -0.016810 0.167899
v 0.204857 0.003281 0.168395
v 0.324583 0.002150 0.177035
v 0.204698 -0.006792 0.169286
v 0.205317 0.021948 0.164471
v 0.325042 0.020818 0.173110
v 0.205017 0.013354 0.167504
v 0.206012 0.036350 0.156724
v 0.325737 0.035220 0.165364
v 0.205617 0.030542 0.161437
v 0.206837 0.044294 0.146334
v 0.326562 0.043164 0.154974
v 0.206407 0.042158 0.152011
v 0.207666 0.044570 0.134883
v 0.327391 0.043440 0.143523
v 0.207266 0.046430 0.140658
v 0.208373 0.037137 0.124114
v 0.328098 0.036007 0.132754
v 0.208065 0.042710 0.129109
v 0.208850 0.023125 0.115666
v 0.328575 0.021995 0.124306
v 0.208680 0.031563 0.119119
v 0.209025 0.004669 0.110826
v 0.328750 0.003539 0.119465
v 0.209019 0.014687 0.112213
v 0.085138 -0.005607 0.158369
v 0.087145 -0.014958 0.129336
v 0.087298 0.005133 0.129832
v 0.324598 -0.026379 0.173085
v 0.326584 0.002817 0.149389
v 0.326759 -0.015639 0.144549
v -0.030643 -0.016045 0.093549
v 0.089083 -0.017176 0.102188
v -0.030420 -0.003088 0.092159
v -0.031301 -0.040069 0.099533
v 0.088424 -0.041199 0.108173
v -0.030865 -0.029003 0.094938
v -0.032320 -0.058627 0.111228
v 0.087405 -0.059758 0.119868
v -0.031737 -0.051136 0.104128
v -0.033545 -0.068896 0.126854
v 0.086180 -0.070026 0.135493
v -0.032903 -0.066119 0.118329
v -0.034788 -0.069310 0.144031
v 0.084937 -0.070440 0.152670
v -0.034186 -0.071672 0.135379
v -0.035861 -0.059807 0.160144
v 0.083864 -0.060938 0.168783
v -0.035390 -0.066948 0.152682
v -0.036601 -0.041835 0.172740
v 0.083125 -0.042965 0.181380
v -0.036332 -0.052667 0.167605
v -0.036894 -0.018129 0.179903
v 0.082831 -0.019259 0.188543
v -0.036869 -0.031004 0.177876
v -0.036696 0.007703 0.180540
v 0.083029 0.006573 0.189180
v -0.036918 -0.005254 0.181930
v -0.036037 0.031727 0.174556
v 0.083688 0.030596 0.183196
v -0.035018 0.050285 0.162861
v 0.084707 0.049155 0.171500
v -0.035601 0.042793 0.169961
v -0.033794 0.060554 0.147236
v 0.085932 0.059423 0.155875
v -0.034435 0.057777 0.155761
v -0.032550 0.060968 0.130059
v 0.087175 0.059838 0.138698
v -0.033152 0.063330 0.138710
v -0.031477 0.051465 0.113945
v 0.088248 0.050335 0.122585
v -0.031948 0.058606 0.121407
v -0.030738 0.033493 0.101349
v 0.088987 0.032362 0.109988
v -0.031006 0.044325 0.106484
v -0.030445 0.009786 0.094186
v 0.089281 0.008656 0.102826
v -0.030469 0.022660 0.096213
v -0.156396 -0.004042 0.169874
v -0.153370 -0.015916 0.126378
v -0.153172 0.009916 0.127015
v 0.083100 -0.030091 0.183407
v 0.086031 0.007573 0.147711
v 0.086324 -0.016133 0.140549
v -0.020230 -0.002256 0.055295
v -0.020517 -0.039757 0.054370
v 0.014477 -0.003512 0.095399
v -0.052581 0.034624 0.091465
v -0.087288 0.035880 0.051361
v -0.019943 0.035244 0.056221
v -0.052868 -0.002876 0.090539
v -0.120214 -0.002241 0.085679
v -0.099833 -0.000577 0.011951
v -0.100120 -0.038078 0.011026
v -0.054936 -0.001001 0.015191
v -0.132472 -0.001197 0.047195
v -0.144730 -0.000153 0.008712
v -0.132184 0.036304 0.048121
v -0.087862 -0.039121 0.049510
v -0.053156 -0.040377 0.089614
v -0.194477 -0.114904 -0.003212
v -0.161022 -0.109365 -0.000656
v -0.179164 -0.147566 -0.006153
v -0.178993 -0.171024 -0.011589
v -0.135283 -0.163787 -0.008250
v -0.168567 -0.192783 -0.016242
v -0.168216 -0.200923 -0.022171
v -0.120904 -0.193091 -0.018558
v -0.164263 -0.208467 -0.027826
v -0.211097 -0.207883 -0.036961
v -0.167387 -0.200646 -0.033622
v -0.166909 -0.192231 -0.039144
v -0.210087 -0.175775 -0.046755
v -0.176632 -0.170237 -0.044199
v -0.176100 -0.146545 -0.048471
v -0.209050 -0.116724 -0.053399
v -0.190944 -0.113726 -0.052016
v -0.190439 -0.078366 -0.054389
v -0.195289 -0.038471 0.018030
v -0.194442 -0.079700 0.000902
v -0.213395 -0.041469 0.016647
v -0.192637 -0.039680 -0.062285
v -0.174531 -0.036682 -0.060902
v -0.145625 -0.100489 0.000672
v -0.117174 -0.084086 0.003128
v -0.117258 -0.125626 -0.001142
v -0.106832 -0.147385 -0.005795
v -0.069659 -0.125954 -0.002587
v -0.087683 -0.164116 -0.009695
v -0.083730 -0.171661 -0.015350
v -0.043494 -0.148464 -0.011877
v -0.076715 -0.177439 -0.020740
v -0.120075 -0.192815 -0.030009
v -0.082901 -0.171384 -0.026801
v -0.086026 -0.163564 -0.032597
v -0.132922 -0.163001 -0.040860
v -0.104471 -0.146598 -0.038405
v -0.114195 -0.124605 -0.043460
v -0.157489 -0.108188 -0.049461
v -0.142092 -0.099311 -0.048132
v -0.156936 -0.066492 -0.051677
v -0.179891 -0.029594 0.019359
v -0.160938 -0.067826 0.003614
v -0.159133 -0.027805 -0.059573
v -0.106829 -0.070681 0.004200
v -0.087713 -0.045912 0.006181
v -0.069691 -0.084454 0.003294
v -0.050543 -0.101185 -0.000606
v -0.025566 -0.068823 0.001983
v -0.025533 -0.110323 -0.003898
v -0.018518 -0.116101 -0.009288
v 0.008516 -0.081073 -0.006486
v -0.009445 -0.119213 -0.014465
v -0.042665 -0.148188 -0.023328
v -0.017689 -0.115825 -0.020739
v -0.023875 -0.109771 -0.026800
v -0.067298 -0.125168 -0.035197
v -0.048182 -0.100399 -0.033216
v -0.066628 -0.083433 -0.039024
v -0.113641 -0.082909 -0.045677
v -0.103296 -0.069504 -0.044605
v -0.131193 -0.044210 -0.049276
v -0.169546 -0.016189 0.020431
v -0.135196 -0.045544 0.006015
v -0.148789 -0.014400 -0.058501
v -0.083994 -0.030020 0.006834
v -0.077123 -0.000654 0.008040
v -0.043704 -0.030320 0.006481
v -0.018695 -0.039458 0.003189
v -0.009717 -0.001090 0.004764
v 0.008421 -0.039593 0.000266
v 0.017494 -0.042705 -0.004911
v 0.027211 -0.001176 -0.003205
v 0.027307 -0.042656 -0.009958
v 0.009345 -0.080796 -0.017937
v 0.018323 -0.042429 -0.016362
v 0.010079 -0.039041 -0.022636
v -0.023205 -0.068036 -0.030627
v -0.016334 -0.038671 -0.029421
v -0.040641 -0.029299 -0.035837
v -0.084180 -0.044735 -0.042623
v -0.080461 -0.028842 -0.041971
v -0.117129 -0.014913 -0.047552
v -0.165827 -0.000297 0.021084
v -0.121132 -0.016247 0.007740
v -0.145069 0.001492 -0.057848
v -0.083543 0.028836 0.008287
v -0.043253 0.028536 0.007934
v -0.018106 0.037442 0.005087
v 0.009010 0.037306 0.002164
v 0.018131 0.040530 -0.002857
v 0.027944 0.040580 -0.007904
v 0.018960 0.040807 -0.014308
v 0.010572 0.079338 -0.013985
v 0.010668 0.037859 -0.020738
v -0.015745 0.038228 -0.027523
v -0.022165 0.067719 -0.027277
v -0.040190 0.029557 -0.034384
v -0.080010 0.030014 -0.040518
v -0.083486 0.045974 -0.040385
v -0.116885 0.016939 -0.046765
v -0.169303 0.015663 0.021217
v -0.120888 0.015606 0.008526
v -0.148545 0.017452 -0.057715
v -0.087019 0.044796 0.008420
v -0.105752 0.069923 0.007670
v -0.068408 0.083153 0.007431
v -0.024526 0.066932 0.005333
v -0.049003 0.099762 0.004354
v -0.023856 0.108667 0.001506
v 0.009743 0.079062 -0.002534
v -0.016751 0.114595 -0.003595
v -0.007629 0.117820 -0.008615
v -0.015922 0.114872 -0.015046
v -0.040399 0.147701 -0.016026
v -0.022198 0.109220 -0.021396
v -0.046643 0.100548 -0.028257
v -0.065377 0.125675 -0.029007
v -0.065344 0.084174 -0.034887
v -0.102219 0.071100 -0.041135
v -0.112357 0.084699 -0.041540
v -0.130499 0.046498 -0.047038
v -0.179440 0.029262 0.020811
v -0.134501 0.045164 0.008254
v -0.158683 0.031051 -0.058121
v -0.115890 0.083521 0.007264
v -0.144086 0.100458 0.005632
v -0.115337 0.125217 0.005048
v -0.067737 0.124888 0.003604
v -0.104577 0.147017 0.001471
v -0.085173 0.163626 -0.001607
v -0.041228 0.147425 -0.004575
v -0.081103 0.171378 -0.006884
v -0.073998 0.177306 -0.011985
v -0.080274 0.171654 -0.018335
v -0.117114 0.193783 -0.020468
v -0.083515 0.164178 -0.024509
v -0.102217 0.147804 -0.031140
v -0.130412 0.164741 -0.032772
v -0.112273 0.126238 -0.037270
v -0.140553 0.101636 -0.043173
v -0.155812 0.110802 -0.044056
v -0.155896 0.069263 -0.048327
v -0.194700 0.038428 0.019928
v -0.159899 0.067929 0.006964
v -0.173942 0.040217 -0.059004
v -0.159345 0.109625 0.004748
v -0.192711 0.115794 0.002482
v -0.176897 0.148323 0.001149
v -0.132773 0.163955 -0.000162
v -0.176366 0.172015 -0.003123
v -0.165606 0.193815 -0.006701
v -0.117943 0.193507 -0.009017
v -0.165128 0.202231 -0.012222
v -0.161058 0.209983 -0.017499
v -0.164299 0.202507 -0.023673
v -0.207892 0.210568 -0.026634
v -0.163948 0.194367 -0.029603
v -0.174005 0.172801 -0.035733
v -0.207370 0.178970 -0.038000
v -0.173834 0.149344 -0.041169
v -0.189178 0.116971 -0.046323
v -0.207235 0.120310 -0.047550
v -0.189213 0.081768 -0.050437
v -0.212757 0.041767 0.018701
v -0.193215 0.080434 0.004854
v -0.191999 0.043556 -0.060231
v -0.228874 0.116135 -0.000128
v -0.262329 0.110597 -0.002683
v -0.243718 0.148954 -0.003673
v -0.243186 0.172645 -0.007945
v -0.286896 0.165409 -0.011284
v -0.252909 0.194639 -0.013001
v -0.252431 0.203055 -0.018522
v -0.299744 0.195223 -0.022136
v -0.255556 0.210876 -0.024318
v -0.251602 0.203332 -0.029973
v -0.251251 0.195192 -0.035903
v -0.240825 0.173432 -0.040555
v -0.240654 0.149975 -0.045991
v -0.225341 0.117313 -0.048933
v -0.225376 0.082109 -0.053047
v -0.230863 0.038769 0.017318
v -0.229379 0.080775 0.002244
v -0.210106 0.040558 -0.061614
v -0.277726 0.101720 -0.004012
v -0.306177 0.085318 -0.006467
v -0.305623 0.127013 -0.008683
v -0.315347 0.149007 -0.013739
v -0.352521 0.127577 -0.016947
v -0.333793 0.165973 -0.019548
v -0.336917 0.173793 -0.025344
v -0.377153 0.150596 -0.028816
v -0.343104 0.179847 -0.031404
v -0.298915 0.195500 -0.033587
v -0.336088 0.174069 -0.036795
v -0.332135 0.166525 -0.042450
v -0.284535 0.166196 -0.043894
v -0.312986 0.149794 -0.046349
v -0.302560 0.128034 -0.051001
v -0.258796 0.111774 -0.051488
v -0.274193 0.102897 -0.052817
v -0.258880 0.070235 -0.055759
v -0.246260 0.029892 0.015990
v -0.262882 0.068901 -0.000467
v -0.225503 0.031681 -0.062942
v -0.316522 0.071913 -0.007540
v -0.335638 0.047143 -0.009521
v -0.353191 0.085842 -0.013120
v -0.371637 0.102807 -0.018929
v -0.396613 0.070445 -0.021517
v -0.395943 0.112180 -0.025344
v -0.402129 0.118234 -0.031405
v -0.429163 0.083205 -0.034207
v -0.410374 0.121622 -0.037679
v -0.376324 0.150872 -0.040267
v -0.401300 0.118510 -0.042856
v -0.394285 0.112732 -0.048247
v -0.350160 0.128363 -0.049557
v -0.369276 0.103594 -0.051539
v -0.350127 0.086863 -0.055438
v -0.302644 0.086495 -0.055272
v -0.312989 0.073090 -0.056344
v -0.284622 0.047953 -0.058160
v -0.256606 0.016487 0.014917
v -0.288624 0.046619 -0.002868
v -0.235848 0.018276 -0.064015
v -0.339358 0.031251 -0.010174
v -0.346229 0.001886 -0.011380
v -0.379178 0.031707 -0.016307
v -0.403484 0.041080 -0.022723
v -0.412462 0.002712 -0.024299
v -0.429897 0.041449 -0.029509
v -0.438141 0.044838 -0.035782
v -0.447858 0.003309 -0.037488
v -0.447125 0.045064 -0.042186
v -0.428334 0.083481 -0.045658
v -0.437312 0.045114 -0.047234
v -0.428239 0.042002 -0.052411
v -0.394252 0.071232 -0.054127
v -0.401123 0.041866 -0.055333
v -0.376115 0.032728 -0.058625
v -0.332105 0.048321 -0.058326
v -0.335825 0.032429 -0.058978
v -0.298686 0.018656 -0.059885
v -0.260325 0.000595 0.014265
v -0.302689 0.017322 -0.004593
v -0.239567 0.002384 -0.064667
v -0.339808 -0.027605 -0.011626
v -0.379629 -0.027148 -0.017760
v -0.404073 -0.035819 -0.024621
v -0.430486 -0.035450 -0.031407
v -0.438779 -0.038398 -0.037837
v -0.447763 -0.038171 -0.044240
v -0.437950 -0.038121 -0.049288
v -0.429561 -0.076653 -0.049610
v -0.428828 -0.034897 -0.054309
v -0.401712 -0.035033 -0.057231
v -0.395292 -0.064523 -0.057478
v -0.376565 -0.026127 -0.060078
v -0.336275 -0.026427 -0.060431
v -0.332800 -0.042388 -0.060564
v -0.298930 -0.013197 -0.060671
v -0.256850 -0.015365 0.014131
v -0.302933 -0.014531 -0.005379
v -0.236092 -0.013576 -0.064801
v -0.336333 -0.043565 -0.011760
v -0.317599 -0.068691 -0.011010
v -0.354474 -0.081766 -0.017257
v -0.397653 -0.065310 -0.024868
v -0.373176 -0.098140 -0.023888
v -0.397620 -0.106811 -0.030749
v -0.430390 -0.076929 -0.038159
v -0.403896 -0.112463 -0.037098
v -0.412189 -0.115411 -0.043528
v -0.403067 -0.112187 -0.048549
v -0.378590 -0.145017 -0.047570
v -0.395962 -0.106258 -0.053651
v -0.370815 -0.097353 -0.056498
v -0.352081 -0.122479 -0.055748
v -0.351411 -0.080745 -0.059574
v -0.314066 -0.067514 -0.059814
v -0.303928 -0.081112 -0.059409
v -0.285317 -0.042755 -0.060398
v -0.246711 -0.028963 0.014537
v -0.289319 -0.044089 -0.005107
v -0.225953 -0.027174 -0.064395
v -0.307461 -0.082290 -0.010604
v -0.279265 -0.099227 -0.008971
v -0.307545 -0.123829 -0.014874
v -0.354442 -0.123266 -0.023138
v -0.317602 -0.145395 -0.021005
v -0.336303 -0.161769 -0.027636
v -0.379419 -0.145293 -0.036118
v -0.339545 -0.169246 -0.033810
v -0.345821 -0.174899 -0.040159
v -0.338716 -0.168970 -0.045261
v -0.301876 -0.191099 -0.043128
v -0.334645 -0.161217 -0.050538
v -0.315241 -0.144608 -0.053615
v -0.287045 -0.161546 -0.051982
v -0.304481 -0.122808 -0.057192
v -0.275732 -0.098050 -0.057776
v -0.260473 -0.107216 -0.056893
v -0.259919 -0.065520 -0.059109
v -0.231452 -0.038130 0.015421
v -0.263922 -0.066854 -0.003818
v -0.210694 -0.036341 -0.063511
v -0.264006 -0.108393 -0.008088
v -0.230641 -0.114562 -0.005821
v -0.245984 -0.146935 -0.010975
v -0.289406 -0.162332 -0.019372
v -0.245813 -0.170393 -0.016411
v -0.255870 -0.191959 -0.022542
v -0.302705 -0.191375 -0.031677
v -0.255519 -0.200099 -0.028471
v -0.258761 -0.207575 -0.034645
v -0.254690 -0.199822 -0.039923
v -0.254212 -0.191407 -0.045444
v -0.243452 -0.169606 -0.049021
v -0.242920 -0.145914 -0.053293
v -0.227108 -0.113385 -0.054626
v -0.226603 -0.078025 -0.056999
v -0.230606 -0.079359 -0.001708
v 0.120624 0.095778 -0.007388
v 0.090692 0.096061 -0.009548
v 0.073429 0.018062 0.115236
v 0.090807 0.111061 -0.009178
v 0.138002 0.188777 -0.131802
v 0.090922 0.126061 -0.008807
v 0.182899 0.188353 -0.128562
v 0.182784 0.173353 -0.128932
v 0.227795 0.187929 -0.125322
v 0.073544 0.033063 0.115606
v 0.043612 0.033345 0.113446
v 0.073659 0.048063 0.115976
v 0.120854 0.125779 -0.006647
v 0.183014 0.203353 -0.128191
v 0.165750 0.125355 -0.003408
v 0.165635 0.110355 -0.003778
v 0.165520 0.095354 -0.004148
v 0.103475 0.032780 0.117766
v 0.132840 -0.122227 0.003286
v 0.073216 -0.171385 -0.115082
v 0.016365 -0.187317 -0.163297
v 0.015826 -0.206012 -0.158277
v 0.014985 -0.220463 -0.148506
v 0.013968 -0.228470 -0.135471
v 0.012932 -0.228815 -0.121158
v 0.012034 -0.221446 -0.107743
v 0.011410 -0.207484 -0.097271
v 0.011155 -0.189053 -0.091335
v 0.011309 -0.168962 -0.090839
v 0.011848 -0.150268 -0.095859
v 0.012690 -0.135817 -0.105630
v 0.013706 -0.127810 -0.118665
v 0.014742 -0.127464 -0.132979
v 0.015640 -0.134834 -0.146393
v 0.016264 -0.148796 -0.156865
v 0.016519 -0.167226 -0.162801
v 0.015869 -0.143252 -0.150657
v 0.013223 -0.133647 -0.112738
v 0.012536 -0.223271 -0.114949
v 0.015343 -0.211849 -0.152350
v 0.015895 -0.153263 -0.152329
v 0.012864 -0.142261 -0.108894
v 0.012308 -0.214853 -0.110685
v 0.015523 -0.201768 -0.153526
v 0.013367 -0.144086 -0.116100
v 0.012842 -0.212682 -0.117793
v 0.539804 -0.200876 -0.121654
v 0.537263 -0.231590 -0.090466
v 0.536129 -0.149376 -0.063987
v 0.538936 -0.137953 -0.101388
v 0.539778 -0.190865 -0.119982
v 0.536868 -0.226045 -0.084258
v 0.535949 -0.159456 -0.062812
v 0.539164 -0.146372 -0.105652
v 0.537351 -0.220209 -0.090185
v 0.536482 -0.157285 -0.069920
v 0.019191 0.181623 -0.154192
v 0.018672 0.165580 -0.149106
v 0.017846 0.153160 -0.139285
v 0.016838 0.146251 -0.126223
v 0.015802 0.145905 -0.111910
v 0.014895 0.152177 -0.098522
v 0.014256 0.164109 -0.088100
v 0.013981 0.179887 -0.082230
v 0.014113 0.197108 -0.081805
v 0.014631 0.213150 -0.086890
v 0.015457 0.225571 -0.096711
v 0.016465 0.232481 -0.109773
v 0.017501 0.232826 -0.124087
v 0.018408 0.226555 -0.137474
v 0.019048 0.214622 -0.147896
v 0.019322 0.198844 -0.153767
v 0.018646 0.219352 -0.141708
v 0.015989 0.227457 -0.103826
v 0.015400 0.150636 -0.105722
v 0.018196 0.160557 -0.143159
v 0.018683 0.210777 -0.143344
v 0.015639 0.220059 -0.099952
v 0.015163 0.157837 -0.101488
v 0.018365 0.169202 -0.144370
v 0.016144 0.218519 -0.107151
v 0.015694 0.159723 -0.108602
v 0.542639 0.169281 -0.112519
v 0.540131 0.142846 -0.081225
v 0.538906 0.213229 -0.055039
v 0.541701 0.223150 -0.092476
v 0.542602 0.177857 -0.110883
v 0.539729 0.147577 -0.075037
v 0.538737 0.204584 -0.053827
v 0.541939 0.215948 -0.096710
v 0.540206 0.152601 -0.080985
v 0.539268 0.206470 -0.060942
v 0.203997 0.015876 0.181967
v 0.203615 -0.007153 0.184248
v 0.203799 -0.009955 0.181330
v 0.324588 -0.007868 0.175648
v 0.083054 -0.006302 0.187153
v 0.089146 -0.014291 0.101690
v 0.088686 -0.032959 0.105614
v 0.087991 -0.047361 0.113361
v 0.087167 -0.055305 0.123751
v 0.086338 -0.055581 0.135202
v 0.085631 -0.048148 0.145971
v 0.085153 -0.034136 0.154419
v 0.084978 -0.015680 0.159259
v 0.085132 0.004411 0.159755
v 0.085592 0.023078 0.155831
v 0.086287 0.037480 0.148084
v 0.087111 0.045424 0.137695
v 0.087940 0.045701 0.126244
v 0.088647 0.038267 0.115474
v 0.089125 0.024256 0.107026
v 0.089300 0.005800 0.102186
v 0.088817 0.029829 0.112021
v 0.086716 0.039617 0.142408
v 0.086030 -0.050008 0.140196
v 0.088291 -0.038766 0.110328
v 0.088822 0.019811 0.110634
v 0.086416 0.031022 0.145441
v 0.085860 -0.041570 0.143650
v 0.088451 -0.028693 0.109437
v 0.086816 0.029162 0.139667
v 0.086290 -0.039433 0.137974
v 0.328296 -0.025146 0.122002
v 0.326218 -0.055705 0.146805
v 0.325437 0.026625 0.168397
v 0.327699 0.037867 0.138528
v 0.328291 -0.015128 0.123390
v 0.325910 -0.050132 0.151799
v 0.325278 0.016552 0.169288
v 0.327868 0.029429 0.135075
v 0.326305 -0.044324 0.147086
v 0.325707 0.018689 0.163612
v -0.150368 -0.014915 0.084909
v -0.151026 -0.038939 0.090894
v -0.152045 -0.057497 0.102589
v -0.153270 -0.067766 0.118214
v -0.154513 -0.068180 0.135391
v -0.155586 -0.058677 0.151504
v -0.156326 -0.040705 0.164101
v -0.156619 -0.016999 0.171263
v -0.156421 0.008833 0.171901
v -0.155762 0.032857 0.165916
v -0.154743 0.051416 0.154221
v -0.153519 0.061684 0.138596
v -0.152275 0.062098 0.121419
v -0.151202 0.052596 0.105306
v -0.150463 0.034623 0.092709
v -0.150170 0.010916 0.085547
v -0.150934 0.041763 0.100170
v -0.154102 0.054192 0.145696
v -0.154984 -0.061039 0.142852
v -0.151609 -0.046431 0.097994
v -0.150909 0.028889 0.098143
v -0.154538 0.043125 0.150291
v -0.155253 -0.050208 0.147988
v -0.151387 -0.033473 0.096604
v -0.153936 0.040763 0.141639
v -0.154611 -0.047431 0.139463
v 0.088647 -0.028242 0.106783
v 0.085578 -0.067664 0.144145
v 0.084271 0.038088 0.176095
v 0.087646 0.052697 0.131237
v 0.088622 -0.015368 0.108810
v 0.085107 -0.060523 0.151607
v 0.084048 0.025131 0.177485
v 0.087914 0.041865 0.126102
v 0.085690 -0.053031 0.144506
v 0.084690 0.027908 0.168960
v -0.099546 0.036924 0.012877
v -0.132759 -0.038698 0.046270
v -0.212583 -0.117901 -0.004595
v -0.212448 -0.176562 -0.014145
v -0.211926 -0.208159 -0.025510
v 0.028040 -0.000900 -0.014657
v -0.007357 -0.000303 -0.027846
v -0.073590 0.000523 -0.040765
v -0.210768 0.119132 0.001255
v -0.209731 0.178184 -0.005390
v -0.208721 0.210291 -0.015183
v -0.447029 0.003585 -0.048939
v -0.410101 0.003499 -0.056909
v -0.342696 0.003063 -0.060184
f 1 266 268
f 266 2 267
f 267 3 268
f 266 267 268
f 1 269 266
f 269 4 270
f 270 2 266
f 269 270 266
f 1 268 272
f 268 3 271
f 271 5 272
f 268 271 272
f 2 273 275
f 273 6 274
f 274 7 275
f 273 274 275
f 5 276 278
f 276 8 277
f 277 4 278
f 276 277 278
f 3 279 281
f 279 6 280
f 280 8 281
f 279 280 281
f 9 282 284
f 282 10 283
f 283 11 284
f 282 283 284
f 12 285 287
f 285 13 286
f 286 10 287
f 285 286 287
f 14 288 290
f 288 15 289
f 289 13 290
f 288 289 290
f 16 291 293
f 291 17 292
f 292 15 293
f 291 292 293
f 18 294 296
f 294 19 295
f 295 17 296
f 294 295 296
f 20 297 299
f 297 21 298
f 298 19 299
f 297 298 299
f 22 300 302
f 300 23 301
f 301 21 302
f 300 301 302
f 24 303 305
f 303 25 304
f 304 23 305
f 303 304 305
f 26 306 308
f 306 27 307
f 307 25 308
f 306 307 308
f 28 309 311
f 309 29 310
f 310 27 311
f 309 310 311
f 30 312 314
f 312 31 313
f 313 29 314
f 312 313 314
f 32 315 317
f 315 33 316
f 316 31 317
f 315 316 317
f 34 318 320
f 318 35 319
f 319 33 320
f 318 319 320
f 36 321 323
f 321 37 322
f 322 35 323
f 321 322 323
f 38 324 326
f 324 39 325
f 325 37 326
f 324 325 326
f 40 327 329
f 327 11 328
f 328 39 329
f 327 328 329
f 28 330 332
f 330 24 331
f 331 9 332
f 330 331 332
f 21 333 335
f 333 25 334
f 334 39 335
f 333 334 335
f 41 336 338
f 336 42 337
f 337 43 338
f 336 337 338
f 44 339 341
f 339 45 340
f 340 42 341
f 339 340 341
f 46 342 344
f 342 47 343
f 343 45 344
f 342 343 344
f 48 345 347
f 345 49 346
f 346 47 347
f 345 346 347
f 50 348 350
f 348 51 349
f 349 49 350
f 348 349 350
f 52 351 353
f 351 53 352
f 352 51 353
f 351 352 353
f 54 354 356
f 354 55 355
f 355 53 356
f 354 355 356
f 56 357 359
f 357 57 358
f 358 55 359
f 357 358 359
f 58 360 362
f 360 59 361
f 361 57 362
f 360 361 362
f 60 363 365
f 363 61 364
f 364 59 365
f 363 364 365
f 62 366 368
f 366 63 367
f 367 61 368
f 366 367 368
f 64 369 371
f 369 65 370
f 370 63 371
f 369 370 371
f 66 372 374
f 372 67 373
f 373 65 374
f 372 373 374
f 68 375 377
f 375 69 376
f 376 67 377
f 375 376 377
f 70 378 380
f 378 71 379
f 379 69 380
f 378 379 380
f 72 381 383
f 381 43 382
f 382 71 383
f 381 382 383
f 60 384 386
f 384 56 385
f 385 41 386
f 384 385 386
f 53 387 389
f 387 57 388
f 388 71 389
f 387 388 389
f 391 75 392
f 76 393 395
f 393 77 394
f 394 78 395
f 393 394 395
f 74 396 398
f 396 79 397
f 397 77 398
f 396 397 398
f 80 399 401
f 399 81 400
f 400 82 401
f 399 400 401
f 83 402 404
f 402 84 403
f 403 81 404
f 402 403 404
f 85 405 407
f 405 86 406
f 406 84 407
f 405 406 407
f 87 408 410
f 408 88 409
f 409 86 410
f 408 409 410
f 89 411 413
f 411 90 412
f 412 88 413
f 411 412 413
f 91 414 416
f 414 92 415
f 415 90 416
f 414 415 416
f 93 417 419
f 417 74 418
f 418 92 419
f 417 418 419
f 75 420 391
f 420 79 396
f 396 74 391
f 420 396 391
f 94 421 423
f 421 95 422
f 422 79 423
f 421 422 423
f 424 96 425
f 424 425 426
f 97 427 429
f 427 98 428
f 428 96 429
f 427 428 429
f 99 430 432
f 430 100 431
f 431 98 432
f 430 431 432
f 101 433 435
f 433 102 434
f 434 100 435
f 433 434 435
f 103 436 438
f 436 104 437
f 437 102 438
f 436 437 438
f 105 439 441
f 439 106 440
f 440 104 441
f 439 440 441
f 107 442 444
f 442 82 443
f 443 106 444
f 442 443 444
f 78 445 447
f 445 75 446
f 446 80 447
f 445 446 447
f 92 448 450
f 448 79 449
f 449 106 450
f 448 449 450
f 108 451 453
f 451 109 452
f 452 80 453
f 451 452 453
f 110 454 456
f 454 111 455
f 455 109 456
f 454 455 456
f 112 457 459
f 457 113 458
f 458 111 459
f 457 458 459
f 114 460 462
f 460 115 461
f 461 113 462
f 460 461 462
f 116 463 465
f 463 117 464
f 464 115 465
f 463 464 465
f 118 466 468
f 466 119 467
f 467 117 468
f 466 467 468
f 120 469 471
f 469 73 470
f 470 119 471
f 469 470 471
f 121 472 474
f 472 122 473
f 473 73 474
f 472 473 474
f 123 475 477
f 475 77 476
f 476 122 477
f 475 476 477
f 478 124 479
f 478 479 393
f 125 480 482
f 480 126 481
f 481 124 482
f 480 481 482
f 127 483 485
f 483 128 484
f 484 126 485
f 483 484 485
f 129 486 488
f 486 130 487
f 487 128 488
f 486 487 488
f 131 489 491
f 489 132 490
f 490 130 491
f 489 490 491
f 133 492 494
f 492 134 493
f 493 132 494
f 492 493 494
f 135 495 497
f 495 80 496
f 496 134 497
f 495 496 497
f 76 498 500
f 498 121 499
f 499 108 500
f 498 499 500
f 119 501 503
f 501 122 502
f 502 134 503
f 501 502 503
f 136 504 506
f 504 137 505
f 505 138 506
f 504 505 506
f 136 507 509
f 507 139 508
f 508 140 509
f 507 508 509
f 136 510 507
f 510 141 511
f 511 139 507
f 510 511 507
f 140 512 514
f 512 142 513
f 513 137 514
f 512 513 514
f 139 515 517
f 515 142 516
f 516 143 517
f 515 516 517
f 138 505 519
f 505 137 518
f 518 141 519
f 505 518 519
f 144 520 522
f 520 145 521
f 521 146 522
f 520 521 522
f 147 523 525
f 523 146 524
f 524 148 525
f 523 524 525
f 149 526 528
f 526 148 527
f 527 150 528
f 526 527 528
f 151 529 531
f 529 149 530
f 530 152 531
f 529 530 531
f 153 532 534
f 532 151 533
f 533 154 534
f 532 533 534
f 155 535 537
f 535 153 536
f 536 156 537
f 535 536 537
f 157 538 540
f 538 145 539
f 539 158 540
f 538 539 540
f 159 541 542
f 541 155 537
f 537 156 542
f 541 537 542
f 146 543 545
f 543 160 544
f 544 161 545
f 543 544 545
f 148 546 548
f 546 161 547
f 547 162 548
f 546 547 548
f 150 549 551
f 549 162 550
f 550 163 551
f 549 550 551
f 152 552 554
f 552 150 553
f 553 164 554
f 552 553 554
f 154 555 557
f 555 152 556
f 556 165 557
f 555 556 557
f 156 558 560
f 558 154 559
f 559 166 560
f 558 559 560
f 157 561 538
f 561 160 562
f 562 145 538
f 561 562 538
f 159 542 563
f 542 156 560
f 560 166 563
f 542 560 563
f 161 564 566
f 564 167 565
f 565 168 566
f 564 565 566
f 162 567 569
f 567 168 568
f 568 169 569
f 567 568 569
f 163 570 572
f 570 169 571
f 571 170 572
f 570 571 572
f 164 573 575
f 573 163 574
f 574 171 575
f 573 574 575
f 165 576 578
f 576 164 577
f 577 172 578
f 576 577 578
f 166 579 581
f 579 165 580
f 580 173 581
f 579 580 581
f 157 582 561
f 582 167 583
f 583 160 561
f 582 583 561
f 159 563 584
f 563 166 581
f 581 173 584
f 563 581 584
f 168 585 587
f 585 174 586
f 586 175 587
f 585 586 587
f 169 588 590
f 588 175 589
f 589 176 590
f 588 589 590
f 170 591 593
f 591 176 592
f 592 177 593
f 591 592 593
f 171 594 596
f 594 170 595
f 595 178 596
f 594 595 596
f 172 597 599
f 597 171 598
f 598 179 599
f 597 598 599
f 173 600 602
f 600 172 601
f 601 180 602
f 600 601 602
f 157 603 582
f 603 174 604
f 604 167 582
f 603 604 582
f 159 584 605
f 584 173 602
f 602 180 605
f 584 602 605
f 175 586 607
f 586 174 606
f 606 181 607
f 586 606 607
f 176 589 609
f 589 175 608
f 608 182 609
f 589 608 609
f 177 592 611
f 592 176 610
f 610 183 611
f 592 610 611
f 178 612 614
f 612 183 613
f 613 184 614
f 612 613 614
f 179 615 617
f 615 184 616
f 616 185 617
f 615 616 617
f 180 618 620
f 618 185 619
f 619 186 620
f 618 619 620
f 157 621 603
f 621 187 622
f 622 174 603
f 621 622 603
f 159 605 623
f 605 180 620
f 620 186 623
f 605 620 623
f 181 624 626
f 624 187 625
f 625 188 626
f 624 625 626
f 182 627 629
f 627 181 628
f 628 189 629
f 627 628 629
f 183 630 632
f 630 182 631
f 631 190 632
f 630 631 632
f 184 633 635
f 633 190 634
f 634 191 635
f 633 634 635
f 185 636 638
f 636 191 637
f 637 192 638
f 636 637 638
f 186 639 641
f 639 192 640
f 640 193 641
f 639 640 641
f 157 642 621
f 642 194 643
f 643 187 621
f 642 643 621
f 159 623 644
f 623 186 641
f 641 193 644
f 623 641 644
f 188 645 647
f 645 194 646
f 646 195 647
f 645 646 647
f 189 648 650
f 648 188 649
f 649 196 650
f 648 649 650
f 190 651 653
f 651 189 652
f 652 197 653
f 651 652 653
f 191 654 656
f 654 197 655
f 655 198 656
f 654 655 656
f 192 657 659
f 657 198 658
f 658 199 659
f 657 658 659
f 193 660 662
f 660 199 661
f 661 200 662
f 660 661 662
f 157 663 642
f 663 201 664
f 664 194 642
f 663 664 642
f 159 644 665
f 644 193 662
f 662 200 665
f 644 662 665
f 195 666 668
f 666 201 667
f 667 202 668
f 666 667 668
f 196 669 671
f 669 195 670
f 670 203 671
f 669 670 671
f 197 672 674
f 672 196 673
f 673 204 674
f 672 673 674
f 198 675 677
f 675 204 676
f 676 205 677
f 675 676 677
f 199 678 680
f 678 205 679
f 679 206 680
f 678 679 680
f 200 681 683
f 681 206 682
f 682 207 683
f 681 682 683
f 157 684 663
f 684 208 685
f 685 201 663
f 684 685 663
f 159 665 686
f 665 200 683
f 683 207 686
f 665 683 686
f 202 687 689
f 687 209 688
f 688 210 689
f 687 688 689
f 203 690 692
f 690 210 691
f 691 211 692
f 690 691 692
f 204 693 695
f 693 211 694
f 694 212 695
f 693 694 695
f 205 676 697
f 676 204 696
f 696 213 697
f 676 696 697
f 206 679 699
f 679 205 698
f 698 214 699
f 679 698 699
f 207 682 701
f 682 206 700
f 700 215 701
f 682 700 701
f 157 702 684
f 702 209 703
f 703 208 684
f 702 703 684
f 159 686 704
f 686 207 701
f 701 215 704
f 686 701 704
f 210 705 707
f 705 216 706
f 706 217 707
f 705 706 707
f 211 708 710
f 708 217 709
f 709 218 710
f 708 709 710
f 212 711 713
f 711 218 712
f 712 219 713
f 711 712 713
f 213 714 716
f 714 212 715
f 715 220 716
f 714 715 716
f 214 717 719
f 717 213 718
f 718 221 719
f 717 718 719
f 215 720 722
f 720 214 721
f 721 222 722
f 720 721 722
f 157 723 702
f 723 216 724
f 724 209 702
f 723 724 702
f 159 704 725
f 704 215 722
f 722 222 725
f 704 722 725
f 217 726 728
f 726 223 727
f 727 224 728
f 726 727 728
f 218 729 731
f 729 224 730
f 730 225 731
f 729 730 731
f 219 732 734
f 732 225 733
f 733 226 734
f 732 733 734
f 220 735 737
f 735 219 736
f 736 227 737
f 735 736 737
f 221 738 740
f 738 220 739
f 739 228 740
f 738 739 740
f 222 741 743
f 741 221 742
f 742 229 743
f 741 742 743
f 157 744 723
f 744 223 745
f 745 216 723
f 744 745 723
f 159 725 746
f 725 222 743
f 743 229 746
f 725 743 746
f 224 747 749
f 747 230 748
f 748 231 749
f 747 748 749
f 225 750 752
f 750 231 751
f 751 232 752
f 750 751 752
f 226 753 755
f 753 232 754
f 754 233 755
f 753 754 755
f 227 756 758
f 756 226 757
f 757 234 758
f 756 757 758
f 228 759 761
f 759 227 760
f 760 235 761
f 759 760 761
f 229 762 764
f 762 228 763
f 763 236 764
f 762 763 764
f 157 765 744
f 765 230 766
f 766 223 744
f 765 766 744
f 159 746 767
f 746 229 764
f 764 236 767
f 746 764 767
f 231 748 769
f 748 230 768
f 768 237 769
f 748 768 769
f 232 751 771
f 751 231 770
f 770 238 771
f 751 770 771
f 233 754 773
f 754 232 772
f 772 239 773
f 754 772 773
f 234 774 776
f 774 239 775
f 775 240 776
f 774 775 776
f 235 777 779
f 777 240 778
f 778 241 779
f 777 778 779
f 236 780 782
f 780 241 781
f 781 242 782
f 780 781 782
f 157 783 765
f 783 243 784
f 784 230 765
f 783 784 765
f 159 767 785
f 767 236 782
f 782 242 785
f 767 782 785
f 237 786 788
f 786 243 787
f 787 244 788
f 786 787 788
f 238 789 791
f 789 237 790
f 790 245 791
f 789 790 791
f 239 792 794
f 792 238 793
f 793 246 794
f 792 793 794
f 240 795 797
f 795 246 796
f 796 247 797
f 795 796 797
f 241 798 800
f 798 247 799
f 799 248 800
f 798 799 800
f 242 801 803
f 801 248 802
f 802 249 803
f 801 802 803
f 157 804 783
f 804 250 805
f 805 243 783
f 804 805 783
f 159 785 806
f 785 242 803
f 803 249 806
f 785 803 806
f 244 807 809
f 807 250 808
f 808 251 809
f 807 808 809
f 245 810 812
f 810 244 811
f 811 252 812
f 810 811 812
f 246 813 815
f 813 245 814
f 814 253 815
f 813 814 815
f 247 816 818
f 816 253 817
f 817 254 818
f 816 817 818
f 248 819 821
f 819 254 820
f 820 255 821
f 819 820 821
f 249 822 824
f 822 255 823
f 823 256 824
f 822 823 824
f 157 825 804
f 825 257 826
f 826 250 804
f 825 826 804
f 159 806 827
f 806 249 824
f 824 256 827
f 806 824 827
f 251 828 830
f 828 257 829
f 829 144 830
f 828 829 830
f 252 831 833
f 831 251 832
f 832 147 833
f 831 832 833
f 253 834 836
f 834 252 835
f 835 149 836
f 834 835 836
f 254 837 838
f 837 149 529
f 529 151 838
f 837 529 838
f 255 839 840
f 839 151 532
f 532 153 840
f 839 532 840
f 256 841 842
f 841 153 535
f 535 155 842
f 841 535 842
f 157 540 825
f 540 158 843
f 843 257 825
f 540 843 825
f 159 827 541
f 827 256 842
f 842 155 541
f 827 842 541
f 258 844 846
f 844 259 845
f 845 260 846
f 844 845 846
f 261 847 849
f 847 259 848
f 848 262 849
f 847 848 849
f 263 850 852
f 850 259 851
f 851 264 852
f 850 851 852
f 265 853 855
f 853 260 854
f 854 261 855
f 853 854 855
f 265 856 858
f 856 262 857
f 857 263 858
f 856 857 858
f 265 859 861
f 859 264 860
f 860 258 861
f 859 860 861
f 3 267 862
f 267 2 275
f 275 7 862
f 267 275 862
f 4 269 278
f 269 1 272
f 272 5 278
f 269 272 278
f 5 271 276
f 271 3 281
f 281 8 276
f 271 281 276
f 6 273 863
f 273 2 270
f 270 4 863
f 273 270 863
f 4 277 863
f 277 8 280
f 280 6 863
f 277 280 863
f 6 279 274
f 279 3 862
f 862 7 274
f 279 862 274
f 10 282 287
f 282 9 864
f 864 12 287
f 282 864 287
f 13 285 290
f 285 12 865
f 865 14 290
f 285 865 290
f 15 288 293
f 288 14 866
f 866 16 293
f 288 866 293
f 17 291 296
f 291 16 867
f 867 18 296
f 291 867 296
f 19 294 299
f 294 18 868
f 868 20 299
f 294 868 299
f 21 297 302
f 297 20 869
f 869 22 302
f 297 869 302
f 23 300 305
f 300 22 870
f 870 24 305
f 300 870 305
f 25 303 308
f 303 24 871
f 871 26 308
f 303 871 308
f 27 306 311
f 306 26 872
f 872 28 311
f 306 872 311
f 29 309 314
f 309 28 873
f 873 30 314
f 309 873 314
f 31 312 317
f 312 30 874
f 874 32 317
f 312 874 317
f 33 315 320
f 315 32 875
f 875 34 320
f 315 875 320
f 35 318 323
f 318 34 876
f 876 36 323
f 318 876 323
f 37 321 326
f 321 36 877
f 877 38 326
f 321 877 326
f 39 324 329
f 324 38 878
f 878 40 329
f 324 878 329
f 11 327 284
f 327 40 879
f 879 9 284
f 327 879 284
f 36 880 877
f 880 40 878
f 878 38 877
f 880 878 877
f 30 881 874
f 881 34 875
f 875 32 874
f 881 875 874
f 24 330 871
f 330 28 872
f 872 26 871
f 330 872 871
f 18 882 868
f 882 22 869
f 869 20 868
f 882 869 868
f 12 883 865
f 883 16 866
f 866 14 865
f 883 866 865
f 36 884 880
f 884 9 879
f 879 40 880
f 884 879 880
f 28 885 873
f 885 34 881
f 881 30 873
f 885 881 873
f 18 886 882
f 886 24 870
f 870 22 882
f 886 870 882
f 9 887 864
f 887 16 883
f 883 12 864
f 887 883 864
f 28 888 885
f 888 36 876
f 876 34 885
f 888 876 885
f 16 889 867
f 889 24 886
f 886 18 867
f 889 886 867
f 28 332 888
f 332 9 884
f 884 36 888
f 332 884 888
f 9 331 887
f 331 24 889
f 889 16 887
f 331 889 887
f 13 890 286
f 890 11 283
f 283 10 286
f 890 283 286
f 19 891 295
f 891 15 292
f 292 17 295
f 891 292 295
f 25 333 304
f 333 21 301
f 301 23 304
f 333 301 304
f 31 892 313
f 892 27 310
f 310 29 313
f 892 310 313
f 37 893 322
f 893 33 319
f 319 35 322
f 893 319 322
f 13 894 890
f 894 39 328
f 328 11 890
f 894 328 890
f 21 895 298
f 895 15 891
f 891 19 298
f 895 891 298
f 31 896 892
f 896 25 307
f 307 27 892
f 896 307 892
f 39 897 325
f 897 33 893
f 893 37 325
f 897 893 325
f 21 898 895
f 898 13 289
f 289 15 895
f 898 289 895
f 33 899 316
f 899 25 896
f 896 31 316
f 899 896 316
f 21 335 898
f 335 39 894
f 894 13 898
f 335 894 898
f 39 334 897
f 334 25 899
f 899 33 897
f 334 899 897
f 42 336 341
f 336 41 900
f 900 44 341
f 336 900 341
f 45 339 344
f 339 44 901
f 901 46 344
f 339 901 344
f 47 342 347
f 342 46 902
f 902 48 347
f 342 902 347
f 49 345 350
f 345 48 903
f 903 50 350
f 345 903 350
f 51 348 353
f 348 50 904
f 904 52 353
f 348 904 353
f 53 351 356
f 351 52 905
f 905 54 356
f 351 905 356
f 55 354 359
f 354 54 906
f 906 56 359
f 354 906 359
f 57 357 362
f 357 56 907
f 907 58 362
f 357 907 362
f 59 360 365
f 360 58 908
f 908 60 365
f 360 908 365
f 61 363 368
f 363 60 909
f 909 62 368
f 363 909 368
f 63 366 371
f 366 62 910
f 910 64 371
f 366 910 371
f 65 369 374
f 369 64 911
f 911 66 374
f 369 911 374
f 67 372 377
f 372 66 912
f 912 68 377
f 372 912 377
f 69 375 380
f 375 68 913
f 913 70 380
f 375 913 380
f 71 378 383
f 378 70 914
f 914 72 383
f 378 914 383
f 43 381 338
f 381 72 915
f 915 41 338
f 381 915 338
f 68 916 913
f 916 72 914
f 914 70 913
f 916 914 913
f 62 917 910
f 917 66 911
f 911 64 910
f 917 911 910
f 56 384 907
f 384 60 908
f 908 58 907
f 384 908 907
f 50 918 904
f 918 54 905
f 905 52 904
f 918 905 904
f 44 919 901
f 919 48 902
f 902 46 901
f 919 902 901
f 68 920 916
f 920 41 915
f 915 72 916
f 920 915 916
f 60 921 909
f 921 66 917
f 917 62 909
f 921 917 909
f 50 922 918
f 922 56 906
f 906 54 918
f 922 906 918
f 41 923 900
f 923 48 919
f 919 44 900
f 923 919 900
f 60 924 921
f 924 68 912
f 912 66 921
f 924 912 921
f 48 925 903
f 925 56 922
f 922 50 903
f 925 922 903
f 60 386 924
f 386 41 920
f 920 68 924
f 386 920 924
f 41 385 923
f 385 56 925
f 925 48 923
f 385 925 923
f 45 926 340
f 926 43 337
f 337 42 340
f 926 337 340
f 51 927 349
f 927 47 346
f 346 49 349
f 927 346 349
f 57 387 358
f 387 53 355
f 355 55 358
f 387 355 358
f 63 928 367
f 928 59 364
f 364 61 367
f 928 364 367
f 69 929 376
f 929 65 373
f 373 67 376
f 929 373 376
f 45 930 926
f 930 71 382
f 382 43 926
f 930 382 926
f 53 931 352
f 931 47 927
f 927 51 352
f 931 927 352
f 63 932 928
f 932 57 361
f 361 59 928
f 932 361 928
f 71 933 379
f 933 65 929
f 929 69 379
f 933 929 379
f 53 934 931
f 934 45 343
f 343 47 931
f 934 343 931
f 65 935 370
f 935 57 932
f 932 63 370
f 935 932 370
f 53 389 934
f 389 71 930
f 930 45 934
f 389 930 934
f 71 388 933
f 388 57 935
f 935 65 933
f 388 935 933
f 474 121 392
f 390 474 392
f 78 394 426
f 394 77 936
f 936 95 426
f 394 936 426
f 77 397 476
f 397 79 937
f 937 122 476
f 397 937 476
f 74 390 939
f 390 73 938
f 938 95 939
f 390 938 939
f 74 398 390
f 398 77 940
f 940 73 390
f 398 940 390
f 81 399 404
f 399 80 941
f 941 83 404
f 399 941 404
f 84 402 407
f 402 83 942
f 942 85 407
f 402 942 407
f 86 405 410
f 405 85 943
f 943 87 410
f 405 943 410
f 88 408 413
f 408 87 944
f 944 89 413
f 408 944 413
f 90 411 416
f 411 89 945
f 945 91 416
f 411 945 416
f 92 414 419
f 414 91 946
f 946 93 419
f 414 946 419
f 74 417 391
f 417 93 947
f 417 947 391
f 79 420 423
f 420 75 948
f 948 94 423
f 420 948 423
f 95 421 426
f 421 94 949
f 949 78 426
f 421 949 426
f 96 424 429
f 424 78 950
f 950 97 429
f 424 950 429
f 98 427 432
f 427 97 951
f 951 99 432
f 427 951 432
f 100 430 435
f 430 99 952
f 952 101 435
f 430 952 435
f 102 433 438
f 433 101 953
f 953 103 438
f 433 953 438
f 104 436 441
f 436 103 954
f 954 105 441
f 436 954 441
f 106 439 444
f 439 105 955
f 955 107 444
f 439 955 444
f 82 442 401
f 442 107 956
f 956 80 401
f 442 956 401
f 103 957 954
f 957 107 955
f 955 105 954
f 957 955 954
f 97 958 951
f 958 101 952
f 952 99 951
f 958 952 951
f 75 445 948
f 445 78 949
f 949 94 948
f 445 949 948
f 89 959 945
f 959 93 946
f 946 91 945
f 959 946 945
f 83 960 942
f 960 87 943
f 943 85 942
f 960 943 942
f 103 961 957
f 961 80 956
f 956 107 957
f 961 956 957
f 78 962 950
f 962 101 958
f 958 97 950
f 962 958 950
f 89 963 959
f 963 75 947
f 947 93 959
f 963 947 959
f 80 964 941
f 964 87 960
f 960 83 941
f 964 960 941
f 78 965 962
f 965 103 953
f 953 101 962
f 965 953 962
f 87 966 944
f 966 75 963
f 963 89 944
f 966 963 944
f 78 447 965
f 447 80 961
f 961 103 965
f 447 961 965
f 80 446 964
f 446 75 966
f 966 87 964
f 446 966 964
f 84 967 403
f 967 82 400
f 400 81 403
f 967 400 403
f 90 968 412
f 968 86 409
f 409 88 412
f 968 409 412
f 448 92 418
f 448 418 396
f 98 969 428
f 969 95 425
f 425 96 428
f 969 425 428
f 104 970 437
f 970 100 434
f 434 102 437
f 970 434 437
f 84 971 967
f 971 106 443
f 443 82 967
f 971 443 967
f 92 972 415
f 972 86 968
f 968 90 415
f 972 968 415
f 98 973 969
f 973 79 422
f 422 95 969
f 973 422 969
f 106 974 440
f 974 100 970
f 970 104 440
f 974 970 440
f 92 975 972
f 975 84 406
f 406 86 972
f 975 406 972
f 100 976 431
f 976 79 973
f 973 98 431
f 976 973 431
f 92 450 975
f 450 106 971
f 971 84 975
f 450 971 975
f 106 449 974
f 449 79 976
f 976 100 974
f 449 976 974
f 109 451 456
f 451 108 977
f 977 110 456
f 451 977 456
f 111 454 459
f 454 110 978
f 978 112 459
f 454 978 459
f 113 457 462
f 457 112 979
f 979 114 462
f 457 979 462
f 115 460 465
f 460 114 980
f 980 116 465
f 460 980 465
f 117 463 468
f 463 116 981
f 981 118 468
f 463 981 468
f 119 466 471
f 466 118 982
f 982 120 471
f 466 982 471
f 469 120 983
f 469 983 474
f 122 472 477
f 472 121 984
f 984 123 477
f 472 984 477
f 77 475 393
f 475 123 985
f 985 76 393
f 475 985 393
f 124 478 482
f 478 76 986
f 986 125 482
f 478 986 482
f 126 480 485
f 480 125 987
f 987 127 485
f 480 987 485
f 128 483 488
f 483 127 988
f 988 129 488
f 483 988 488
f 130 486 491
f 486 129 989
f 989 131 491
f 486 989 491
f 132 489 494
f 489 131 990
f 990 133 494
f 489 990 494
f 134 492 497
f 492 133 991
f 991 135 497
f 492 991 497
f 80 495 453
f 495 135 992
f 992 108 453
f 495 992 453
f 131 993 990
f 993 135 991
f 991 133 990
f 993 991 990
f 125 994 987
f 994 129 988
f 988 127 987
f 994 988 987
f 121 498 984
f 498 76 985
f 985 123 984
f 498 985 984
f 116 995 981
f 995 120 982
f 982 118 981
f 995 982 981
f 110 996 978
f 996 114 979
f 979 112 978
f 996 979 978
f 131 997 993
f 997 108 992
f 992 135 993
f 997 992 993
f 76 998 986
f 998 129 994
f 994 125 986
f 998 994 986
f 116 999 995
f 999 121 983
f 983 120 995
f 999 983 995
f 108 1000 977
f 1000 114 996
f 996 110 977
f 1000 996 977
f 76 1001 998
f 1001 131 989
f 989 129 998
f 1001 989 998
f 114 1002 980
f 1002 121 999
f 999 116 980
f 1002 999 980
f 76 500 1001
f 500 108 997
f 997 131 1001
f 500 997 1001
f 108 499 1000
f 499 121 1002
f 1002 114 1000
f 499 1002 1000
f 111 1003 455
f 1003 80 452
f 452 109 455
f 1003 452 455
f 117 1004 464
f 1004 113 461
f 461 115 464
f 1004 461 464
f 122 501 473
f 501 119 470
f 470 73 473
f 501 470 473
f 126 1005 481
f 1005 77 479
f 479 124 481
f 1005 479 481
f 132 1006 490
f 1006 128 487
f 487 130 490
f 1006 487 490
f 111 1007 1003
f 1007 134 496
f 496 80 1003
f 1007 496 1003
f 119 1008 467
f 1008 113 1004
f 1004 117 467
f 1008 1004 467
f 126 1009 1005
f 1009 476 1005
f 134 1010 493
f 1010 128 1006
f 1006 132 493
f 1010 1006 493
f 119 1011 1008
f 1011 111 458
f 458 113 1008
f 1011 458 1008
f 128 1012 484
f 1012 122 1009
f 1009 126 484
f 1012 1009 484
f 119 503 1011
f 503 134 1007
f 1007 111 1011
f 503 1007 1011
f 134 502 1010
f 502 122 1012
f 1012 128 1010
f 502 1012 1010
f 137 504 514
f 504 136 509
f 509 140 514
f 504 509 514
f 140 508 1013
f 508 139 517
f 517 143 1013
f 508 517 1013
f 141 510 519
f 510 136 506
f 506 138 519
f 510 506 519
f 142 512 516
f 512 140 1013
f 1013 143 516
f 512 1013 516
f 142 515 1014
f 515 139 511
f 511 141 1014
f 515 511 1014
f 141 518 1014
f 518 137 513
f 513 142 1014
f 518 513 1014
f 145 520 539
f 520 144 1015
f 1015 158 539
f 520 1015 539
f 146 523 522
f 523 147 1016
f 1016 144 522
f 523 1016 522
f 148 526 525
f 526 149 1017
f 1017 147 525
f 526 1017 525
f 152 530 552
f 530 149 528
f 528 150 552
f 530 528 552
f 154 533 555
f 533 151 531
f 531 152 555
f 533 531 555
f 156 536 558
f 536 153 534
f 534 154 558
f 536 534 558
f 160 543 562
f 543 146 521
f 521 145 562
f 543 521 562
f 161 546 545
f 546 148 524
f 524 146 545
f 546 524 545
f 162 549 548
f 549 150 527
f 527 148 548
f 549 527 548
f 164 553 573
f 553 150 551
f 551 163 573
f 553 551 573
f 165 556 576
f 556 152 554
f 554 164 576
f 556 554 576
f 166 559 579
f 559 154 557
f 557 165 579
f 559 557 579
f 167 564 583
f 564 161 544
f 544 160 583
f 564 544 583
f 168 567 566
f 567 162 547
f 547 161 566
f 567 547 566
f 169 570 569
f 570 163 550
f 550 162 569
f 570 550 569
f 171 574 594
f 574 163 572
f 572 170 594
f 574 572 594
f 172 577 597
f 577 164 575
f 575 171 597
f 577 575 597
f 173 580 600
f 580 165 578
f 578 172 600
f 580 578 600
f 174 585 604
f 585 168 565
f 565 167 604
f 585 565 604
f 175 588 587
f 588 169 568
f 568 168 587
f 588 568 587
f 176 591 590
f 591 170 571
f 571 169 590
f 591 571 590
f 178 595 1018
f 595 170 593
f 593 177 1018
f 595 593 1018
f 179 598 1019
f 598 171 596
f 596 178 1019
f 598 596 1019
f 180 601 1020
f 601 172 599
f 599 179 1020
f 601 599 1020
f 181 606 624
f 606 174 622
f 622 187 624
f 606 622 624
f 182 608 627
f 608 175 607
f 607 181 627
f 608 607 627
f 183 610 630
f 610 176 609
f 609 182 630
f 610 609 630
f 183 612 611
f 612 178 1018
f 1018 177 611
f 612 1018 611
f 184 615 614
f 615 179 1019
f 1019 178 614
f 615 1019 614
f 185 618 617
f 618 180 1020
f 1020 179 617
f 618 1020 617
f 188 625 645
f 625 187 643
f 643 194 645
f 625 643 645
f 189 628 648
f 628 181 626
f 626 188 648
f 628 626 648
f 190 631 651
f 631 182 629
f 629 189 651
f 631 629 651
f 190 633 632
f 633 184 613
f 613 183 632
f 633 613 632
f 191 636 635
f 636 185 616
f 616 184 635
f 636 616 635
f 192 639 638
f 639 186 619
f 619 185 638
f 639 619 638
f 195 646 666
f 646 194 664
f 664 201 666
f 646 664 666
f 196 649 669
f 649 188 647
f 647 195 669
f 649 647 669
f 197 652 672
f 652 189 650
f 650 196 672
f 652 650 672
f 197 654 653
f 654 191 634
f 634 190 653
f 654 634 653
f 198 657 656
f 657 192 637
f 637 191 656
f 657 637 656
f 199 660 659
f 660 193 640
f 640 192 659
f 660 640 659
f 202 667 1021
f 667 201 685
f 685 208 1021
f 667 685 1021
f 203 670 1022
f 670 195 668
f 668 202 1022
f 670 668 1022
f 204 673 1023
f 673 196 671
f 671 203 1023
f 673 671 1023
f 204 675 674
f 675 198 655
f 655 197 674
f 675 655 674
f 205 678 677
f 678 199 658
f 658 198 677
f 678 658 677
f 206 681 680
f 681 200 661
f 661 199 680
f 681 661 680
f 209 687 703
f 687 202 1021
f 1021 208 703
f 687 1021 703
f 210 690 689
f 690 203 1022
f 1022 202 689
f 690 1022 689
f 211 693 692
f 693 204 1023
f 1023 203 692
f 693 1023 692
f 213 696 714
f 696 204 695
f 695 212 714
f 696 695 714
f 214 698 717
f 698 205 697
f 697 213 717
f 698 697 717
f 215 700 720
f 700 206 699
f 699 214 720
f 700 699 720
f 216 705 724
f 705 210 688
f 688 209 724
f 705 688 724
f 217 708 707
f 708 211 691
f 691 210 707
f 708 691 707
f 218 711 710
f 711 212 694
f 694 211 710
f 711 694 710
f 220 715 735
f 715 212 713
f 713 219 735
f 715 713 735
f 221 718 738
f 718 213 716
f 716 220 738
f 718 716 738
f 222 721 741
f 721 214 719
f 719 221 741
f 721 719 741
f 223 726 745
f 726 217 706
f 706 216 745
f 726 706 745
f 224 729 728
f 729 218 709
f 709 217 728
f 729 709 728
f 225 732 731
f 732 219 712
f 712 218 731
f 732 712 731
f 227 736 756
f 736 219 734
f 734 226 756
f 736 734 756
f 228 739 759
f 739 220 737
f 737 227 759
f 739 737 759
f 229 742 762
f 742 221 740
f 740 228 762
f 742 740 762
f 230 747 766
f 747 224 727
f 727 223 766
f 747 727 766
f 231 750 749
f 750 225 730
f 730 224 749
f 750 730 749
f 232 753 752
f 753 226 733
f 733 225 752
f 753 733 752
f 234 757 1024
f 757 226 755
f 755 233 1024
f 757 755 1024
f 235 760 1025
f 760 227 758
f 758 234 1025
f 760 758 1025
f 236 763 1026
f 763 228 761
f 761 235 1026
f 763 761 1026
f 237 768 786
f 768 230 784
f 784 243 786
f 768 784 786
f 238 770 789
f 770 231 769
f 769 237 789
f 770 769 789
f 239 772 792
f 772 232 771
f 771 238 792
f 772 771 792
f 239 774 773
f 774 234 1024
f 1024 233 773
f 774 1024 773
f 240 777 776
f 777 235 1025
f 1025 234 776
f 777 1025 776
f 241 780 779
f 780 236 1026
f 1026 235 779
f 780 1026 779
f 244 787 807
f 787 243 805
f 805 250 807
f 787 805 807
f 245 790 810
f 790 237 788
f 788 244 810
f 790 788 810
f 246 793 813
f 793 238 791
f 791 245 813
f 793 791 813
f 246 795 794
f 795 240 775
f 775 239 794
f 795 775 794
f 247 798 797
f 798 241 778
f 778 240 797
f 798 778 797
f 248 801 800
f 801 242 781
f 781 241 800
f 801 781 800
f 251 808 828
f 808 250 826
f 826 257 828
f 808 826 828
f 252 811 831
f 811 244 809
f 809 251 831
f 811 809 831
f 253 814 834
f 814 245 812
f 812 252 834
f 814 812 834
f 253 816 815
f 816 247 796
f 796 246 815
f 816 796 815
f 254 819 818
f 819 248 799
f 799 247 818
f 819 799 818
f 255 822 821
f 822 249 802
f 802 248 821
f 822 802 821
f 144 829 1015
f 829 257 843
f 843 158 1015
f 829 843 1015
f 147 832 1016
f 832 251 830
f 830 144 1016
f 832 830 1016
f 149 835 1017
f 835 252 833
f 833 147 1017
f 835 833 1017
f 149 837 836
f 837 254 817
f 817 253 836
f 837 817 836
f 151 839 838
f 839 255 820
f 820 254 838
f 839 820 838
f 153 841 840
f 841 256 823
f 823 255 840
f 841 823 840
f 259 844 851
f 844 258 860
f 860 264 851
f 844 860 851
f 259 847 845
f 847 261 854
f 854 260 845
f 847 854 845
f 259 850 848
f 850 263 857
f 857 262 848
f 850 857 848
f 260 853 846
f 853 265 861
f 861 258 846
f 853 861 846
f 262 856 849
f 856 265 855
f 855 261 849
f 856 855 849
f 264 859 852
f 859 265 858
f 858 263 852
f 859 858 852
