# Unified Preprocessed OBJ file from m1371.obj
# Applied remeshing: Yes
# Applied 4-step normalization: centering, PCA alignment, flipping, scaling
# Generated on 2025-09-29 15:19:11

v 0.037250 -0.056790 -0.037971
v 0.067091 -0.054181 -0.021683
v 0.071645 -0.056514 -0.040475
v 0.033011 -0.051538 -0.020772
v 0.063149 -0.044518 -0.006146
v 0.029383 -0.038954 -0.006828
v 0.059870 -0.031998 0.006347
v 0.026769 -0.023581 0.002623
v 0.057920 -0.013770 0.012755
v 0.025516 -0.005483 0.006128
v 0.057366 0.004198 0.013358
v 0.025660 0.012357 0.003830
v 0.058207 0.021909 0.008157
v 0.027201 0.029938 -0.004273
v 0.060479 0.036376 -0.002707
v 0.030205 0.041291 -0.017899
v 0.063833 0.047665 -0.017782
v 0.033942 0.049532 -0.034284
v 0.067970 0.051365 -0.035406
v 0.038462 0.050183 -0.053217
v 0.072525 0.049031 -0.054199
v 0.042702 0.044929 -0.070417
v 0.076467 0.039367 -0.069736
v 0.046329 0.032346 -0.084362
v 0.079746 0.026848 -0.082229
v 0.048944 0.016973 -0.093812
v 0.081696 0.008620 -0.088636
v 0.050196 -0.001126 -0.097317
v 0.082250 -0.009349 -0.089239
v 0.050053 -0.018965 -0.095018
v 0.081409 -0.027059 -0.084039
v 0.048513 -0.036546 -0.086915
v 0.079137 -0.041526 -0.073175
v 0.045509 -0.047900 -0.073291
v 0.075783 -0.052816 -0.058099
v 0.041772 -0.056139 -0.056906
v 0.039694 -0.057243 -0.048129
v 0.035139 -0.054910 -0.029337
v 0.027399 -0.054104 -0.041999
v 0.023159 -0.048850 -0.024799
v 0.031197 -0.045246 -0.013800
v 0.019549 -0.037759 -0.010783
v 0.027919 -0.032727 -0.001305
v 0.016951 -0.023877 -0.001263
v 0.025968 -0.014499 0.005102
v 0.015699 -0.005779 0.002242
v 0.025414 0.003470 0.005704
v 0.015843 0.012061 -0.000057
v 0.026255 0.021180 0.000503
v 0.017400 0.028149 -0.008089
v 0.028528 0.035647 -0.010361
v 0.020405 0.039503 -0.021714
v 0.031882 0.046936 -0.025436
v 0.024158 0.046251 -0.038028
v 0.036019 0.050636 -0.043060
v 0.028330 0.046966 -0.055511
v 0.040574 0.048302 -0.061852
v 0.032221 0.041779 -0.071260
v 0.044516 0.038638 -0.077390
v 0.035831 0.030687 -0.085275
v 0.047794 0.026119 -0.089883
v 0.038429 0.016806 -0.094797
v 0.049745 0.007891 -0.096290
v 0.039681 -0.001293 -0.098301
v 0.050299 -0.010078 -0.096893
v 0.039537 -0.019132 -0.096002
v 0.049457 -0.027788 -0.091692
v 0.037980 -0.035221 -0.087970
v 0.047185 -0.042255 -0.080829
v 0.034975 -0.046575 -0.074345
v 0.043831 -0.053544 -0.065753
v 0.031570 -0.053388 -0.059482
v 0.029494 -0.054492 -0.050705
v 0.025287 -0.052223 -0.033364
v 0.017216 -0.052843 -0.044505
v 0.013325 -0.047654 -0.028756
v 0.021362 -0.044051 -0.017757
v 0.009715 -0.036564 -0.014740
v 0.018085 -0.031531 -0.005262
v 0.007466 -0.022746 -0.006670
v 0.016151 -0.014795 0.001215
v 0.006231 -0.006141 -0.003095
v 0.015596 0.003173 0.001818
v 0.006375 0.011699 -0.005394
v 0.016438 0.020883 -0.003383
v 0.007948 0.026296 -0.013356
v 0.018728 0.033858 -0.014175
v 0.010604 0.037715 -0.025529
v 0.022099 0.043656 -0.029180
v 0.014009 0.044528 -0.040392
v 0.026235 0.047355 -0.046805
v 0.017831 0.045307 -0.056424
v 0.030441 0.045086 -0.064146
v 0.022072 0.040055 -0.073625
v 0.034017 0.036978 -0.078303
v 0.025332 0.029027 -0.086189
v 0.037296 0.024460 -0.090796
v 0.027930 0.015146 -0.095710
v 0.039229 0.007724 -0.097274
v 0.029166 -0.001460 -0.099285
v 0.039784 -0.010245 -0.097877
v 0.029022 -0.019299 -0.096987
v 0.038942 -0.027955 -0.092677
v 0.027447 -0.033896 -0.089024
v 0.036652 -0.040931 -0.081883
v 0.024792 -0.045315 -0.076851
v 0.033282 -0.050727 -0.066878
v 0.021038 -0.052063 -0.060537
v 0.018960 -0.053167 -0.051760
v 0.015104 -0.050963 -0.035870
v 0.006998 -0.048598 -0.047152
v 0.003456 -0.043475 -0.032854
v 0.011528 -0.042855 -0.021713
v 0.000211 -0.033941 -0.020220
v 0.008598 -0.030401 -0.010671
v -0.001670 -0.021681 -0.013530
v 0.006683 -0.015157 -0.004122
v -0.002888 -0.006567 -0.009884
v 0.006128 0.002812 -0.003519
v -0.002728 0.009781 -0.012112
v 0.006987 0.019030 -0.008649
v -0.001485 0.022951 -0.018552
v 0.008928 0.032070 -0.017991
v 0.000838 0.032941 -0.029203
v 0.012298 0.041867 -0.032996
v 0.004243 0.039754 -0.044067
v 0.016087 0.045630 -0.049169
v 0.007717 0.040599 -0.058647
v 0.019943 0.043427 -0.065060
v 0.011258 0.035476 -0.072945
v 0.023869 0.035255 -0.080667
v 0.014502 0.025942 -0.085581
v 0.026797 0.022801 -0.091710
v 0.016734 0.013616 -0.093721
v 0.028714 0.007557 -0.098259
v 0.017603 -0.001433 -0.095917
v 0.029268 -0.010413 -0.098861
v 0.017441 -0.017781 -0.093688
v 0.028409 -0.026630 -0.093731
v 0.016200 -0.030950 -0.087248
v 0.026119 -0.039606 -0.082938
v 0.013875 -0.040942 -0.076596
v 0.023098 -0.049467 -0.069384
v 0.010471 -0.047754 -0.061733
v 0.008743 -0.048922 -0.054407
v 0.005235 -0.046784 -0.039968
v -0.004689 -0.042895 -0.050218
v -0.007516 -0.039394 -0.038752
v 0.001659 -0.038676 -0.025811
v -0.010394 -0.031415 -0.027497
v -0.000904 -0.027779 -0.016150
v -0.012276 -0.019156 -0.020807
v -0.002454 -0.014092 -0.010981
v -0.013128 -0.005599 -0.018541
v -0.002991 0.002386 -0.010308
v -0.013282 0.007829 -0.019177
v -0.002115 0.017112 -0.015367
v -0.012023 0.019507 -0.025547
v -0.000507 0.028725 -0.023188
v -0.009682 0.028007 -0.036127
v 0.002532 0.037095 -0.036670
v -0.006958 0.033457 -0.048019
v 0.005971 0.040923 -0.051392
v -0.003834 0.034366 -0.061148
v 0.009479 0.038783 -0.065832
v -0.000658 0.030799 -0.074065
v 0.013054 0.030676 -0.079988
v 0.001871 0.022886 -0.083870
v 0.015619 0.019780 -0.089651
v 0.003753 0.010627 -0.090559
v 0.017168 0.006092 -0.094819
v 0.004954 -0.002996 -0.094276
v 0.017705 -0.010386 -0.095493
v 0.004759 -0.016360 -0.092189
v 0.017179 -0.025176 -0.091883
v 0.003500 -0.028036 -0.085819
v 0.015221 -0.036724 -0.082613
v 0.001508 -0.036600 -0.076690
v 0.012182 -0.045094 -0.069129
v -0.001565 -0.041986 -0.063348
v -0.000518 -0.042180 -0.067701
v -0.003642 -0.043090 -0.054571
v -0.006801 -0.041015 -0.041583
v -0.002979 -0.040236 -0.057615
v -0.006137 -0.038161 -0.044626
v -0.024759 -0.035964 -0.056893
v -0.027219 -0.034019 -0.046807
v -0.008631 -0.033231 -0.034681
v -0.029748 -0.026105 -0.037004
v -0.010829 -0.023890 -0.026399
v -0.031247 -0.016894 -0.031623
v -0.012361 -0.011696 -0.021160
v -0.032064 -0.006321 -0.029216
v -0.012847 0.000305 -0.020275
v -0.031853 0.005551 -0.031233
v -0.011937 0.012047 -0.025194
v -0.030908 0.014309 -0.036009
v -0.010661 0.022233 -0.031492
v -0.029266 0.022937 -0.043688
v -0.008303 0.029240 -0.042003
v -0.026874 0.026960 -0.054058
v -0.005544 0.031706 -0.053752
v -0.024430 0.026507 -0.064214
v -0.002386 0.029631 -0.066740
v -0.021621 0.024497 -0.075752
v 0.000458 0.024637 -0.078136
v -0.019441 0.016649 -0.084105
v 0.002305 0.015361 -0.084968
v -0.017942 0.007437 -0.089485
v 0.003838 0.003167 -0.090206
v -0.017124 -0.003137 -0.091892
v 0.004324 -0.008835 -0.091092
v -0.017336 -0.015008 -0.089876
v 0.003763 -0.020641 -0.087624
v -0.018281 -0.023766 -0.085098
v 0.002138 -0.030762 -0.079874
v -0.019924 -0.032394 -0.077419
v -0.000220 -0.037769 -0.069363
v -0.022315 -0.036417 -0.067051
v -0.021634 -0.035054 -0.070023
v -0.024044 -0.037586 -0.059725
v -0.026870 -0.034083 -0.048258
v -0.023763 -0.031682 -0.061458
v -0.025874 -0.029802 -0.052823
v -0.029167 -0.031588 -0.058149
v -0.028002 -0.026429 -0.044258
v -0.031296 -0.028215 -0.049584
v -0.033092 -0.023416 -0.042541
v -0.029484 -0.018710 -0.038807
v -0.034574 -0.015697 -0.037090
v -0.030617 -0.011056 -0.034808
v -0.035026 -0.006680 -0.036063
v -0.030736 -0.000612 -0.035302
v -0.035146 0.003765 -0.036558
v -0.030491 0.008275 -0.037178
v -0.034184 0.011031 -0.041265
v -0.029180 0.015477 -0.043335
v -0.032873 0.018232 -0.047422
v -0.027486 0.019630 -0.050802
v -0.025426 0.022225 -0.059649
v -0.030813 0.020828 -0.056270
v -0.028736 0.021931 -0.065045
v -0.023315 0.020345 -0.068285
v -0.021186 0.016972 -0.076850
v -0.026607 0.018559 -0.073610
v -0.024811 0.013759 -0.080653
v -0.019704 0.009253 -0.082300
v -0.023328 0.006040 -0.086105
v -0.018571 0.001599 -0.086299
v -0.022878 -0.002977 -0.087131
v -0.018452 -0.008846 -0.085805
v -0.022758 -0.013421 -0.086636
v -0.018698 -0.017733 -0.083929
v -0.023719 -0.020686 -0.081930
v -0.020009 -0.024934 -0.077772
v -0.025030 -0.027888 -0.075773
v -0.021702 -0.029086 -0.070305
v -0.027090 -0.030484 -0.066926
v 0.069202 -0.056061 -0.030318
v 0.171941 -0.045892 0.001632
v 0.175797 -0.048097 -0.014259
v 0.064962 -0.050809 -0.013118
v 0.168364 -0.037785 0.015788
v 0.061335 -0.038225 0.000826
v 0.165453 -0.026823 0.026902
v 0.058720 -0.022852 0.010277
v 0.163519 -0.010088 0.033380
v 0.057468 -0.004754 0.013782
v 0.162981 0.006390 0.034054
v 0.057612 0.013086 0.011482
v 0.163840 0.022608 0.028923
v 0.059152 0.030667 0.003379
v 0.166129 0.035583 0.018130
v 0.062157 0.042020 -0.010245
v 0.169169 0.043953 0.004646
v 0.065894 0.050261 -0.026630
v 0.172957 0.047717 -0.011526
v 0.070414 0.050911 -0.045563
v 0.176814 0.045513 -0.027416
v 0.074654 0.045658 -0.062763
v 0.180390 0.037406 -0.041574
v 0.078281 0.033075 -0.076708
v 0.183302 0.026443 -0.052687
v 0.080896 0.017702 -0.086159
v 0.185235 0.009707 -0.059164
v 0.082148 -0.000397 -0.089663
v 0.185772 -0.006770 -0.059838
v 0.082004 -0.018236 -0.087364
v 0.184913 -0.022987 -0.054707
v 0.080464 -0.035817 -0.079261
v 0.182624 -0.035963 -0.043915
v 0.077459 -0.047171 -0.065637
v 0.179585 -0.044333 -0.030431
v 0.073722 -0.055411 -0.049252
v 0.268610 -0.034041 0.007442
v 0.177874 -0.046993 -0.023035
v 0.174052 -0.047773 -0.007003
v 0.271351 -0.030082 -0.004379
v 0.181279 -0.040180 -0.037899
v 0.273377 -0.024502 -0.013368
v 0.183952 -0.030253 -0.050001
v 0.275003 -0.014381 -0.021117
v 0.185509 -0.014165 -0.058034
v 0.275564 -0.002575 -0.024585
v 0.185670 0.002182 -0.060262
v 0.275078 0.009427 -0.023699
v 0.184434 0.018789 -0.056686
v 0.273894 0.021557 -0.019911
v 0.181837 0.032670 -0.047166
v 0.271714 0.029405 -0.011558
v 0.178593 0.042205 -0.034530
v 0.269203 0.035826 -0.001684
v 0.174702 0.047394 -0.018782
v 0.266393 0.037836 0.009854
v 0.170880 0.046613 -0.002750
v 0.263651 0.033878 0.021673
v 0.167475 0.039800 0.012113
v 0.261277 0.028363 0.032113
v 0.164803 0.029874 0.024217
v 0.259652 0.018242 0.039863
v 0.163245 0.013785 0.032249
v 0.259090 0.006435 0.043330
v 0.163084 -0.002563 0.034478
v 0.259576 -0.005565 0.042445
v 0.164319 -0.019168 0.030901
v 0.260760 -0.017695 0.038656
v 0.166916 -0.033051 0.021381
v 0.262940 -0.025544 0.030304
v 0.170161 -0.042585 0.008745
v 0.265452 -0.031966 0.020430
v 0.267913 -0.033911 0.010343
v 0.269989 -0.032807 0.001566
v 0.330890 -0.017695 0.021694
v 0.321124 -0.022468 0.018020
v 0.272032 -0.028719 -0.007352
v 0.310906 -0.018223 0.015373
v 0.301387 -0.014109 0.009823
v 0.274688 -0.017301 -0.019525
v 0.285286 -0.008798 -0.000438
v 0.275632 -0.008543 -0.024302
v 0.278232 -0.001860 -0.010133
v 0.275530 0.000410 -0.024726
v 0.278163 0.004108 -0.010416
v 0.285047 0.012090 -0.001428
v 0.274277 0.018508 -0.021221
v 0.301010 0.018716 0.008269
v 0.272795 0.026227 -0.015770
v 0.310427 0.023553 0.013394
v 0.270982 0.032519 -0.008798
v 0.320542 0.028261 0.015618
v 0.330062 0.024146 0.021166
v 0.267091 0.037707 0.006951
v 0.330113 0.019670 0.021378
v 0.330199 0.012210 0.021731
v 0.330267 0.006241 0.022014
v 0.330387 -0.004202 0.022509
v 0.330490 -0.013154 0.022933
v 0.330524 -0.016139 0.023074
v 0.329494 -0.017436 0.027499
v 0.265800 -0.032031 0.018979
v 0.312803 -0.016180 0.026502
v 0.263672 -0.028658 0.027544
v 0.316833 -0.012739 0.035008
v 0.261858 -0.022366 0.034516
v 0.325918 -0.009328 0.041655
v 0.260377 -0.014647 0.039967
v 0.325168 -0.004723 0.044344
v 0.324751 0.001309 0.045513
v 0.259124 0.003452 0.043471
v 0.324683 0.007277 0.045230
v 0.259371 0.012339 0.041597
v 0.324980 0.011689 0.043567
v 0.259967 0.021162 0.038270
v 0.325610 0.017527 0.040383
v 0.316456 0.020086 0.033453
v 0.262971 0.032515 0.024646
v 0.312359 0.022613 0.024665
v 0.264665 0.036667 0.017179
v 0.329015 0.024340 0.025520
v 0.330541 -0.017630 0.023145
v 0.272612 0.002160 0.012941
v 0.325151 -0.003231 0.044274
v 0.311704 -0.011509 0.030644
v 0.316005 -0.011701 0.025535
v 0.310213 -0.013326 0.024214
v 0.316044 -0.009917 0.031617
v 0.320328 -0.008619 0.026438
v 0.320350 -0.005342 0.032448
v 0.324634 -0.004043 0.027269
v 0.323203 -0.000800 0.032933
v 0.326035 0.000466 0.027405
v 0.323101 0.008152 0.032509
v 0.325967 0.006434 0.027123
v 0.324463 0.010878 0.026562
v 0.320145 0.012563 0.031600
v 0.315737 0.016939 0.030345
v 0.320054 0.015254 0.025307
v 0.315663 0.018139 0.024122
v 0.311362 0.018332 0.029230
v 0.309837 0.019499 0.022660
v 0.312058 -0.006806 0.035133
v 0.314946 -0.005247 0.035757
v 0.317816 -0.002197 0.036312
v 0.319217 0.002312 0.036447
v 0.319183 0.005297 0.036306
v 0.317679 0.009739 0.035747
v 0.314741 0.012657 0.034909
v 0.311819 0.014082 0.034143
v 0.307445 0.015475 0.033029
v 0.309857 -0.002233 0.037475
v 0.311292 -0.000709 0.037752
v 0.312710 0.002309 0.037958
v 0.312675 0.005294 0.037817
v 0.311189 0.008244 0.037328
v 0.309720 0.009703 0.036910
v 0.308267 0.009670 0.036561
v 0.308404 -0.002266 0.037127
v 0.307719 -0.008397 0.034160
v 0.306534 0.003733 0.037947
v -0.154237 -0.204949 0.037913
v -0.157591 -0.216237 0.052988
v -0.211413 -0.210003 0.039763
v -0.205138 -0.200141 0.025454
v -0.261050 -0.188749 0.026874
v -0.253304 -0.180345 0.012984
v -0.304996 -0.156918 0.014883
v -0.294347 -0.148448 0.001688
v -0.338914 -0.112919 0.004761
v -0.326778 -0.107400 -0.007945
v -0.359845 -0.061162 -0.002583
v -0.346222 -0.058593 -0.014799
v -0.367740 -0.006123 -0.006937
v -0.354083 -0.006538 -0.019011
v -0.361111 0.049248 -0.007813
v -0.347420 0.045848 -0.019746
v -0.341377 0.101932 -0.005416
v -0.329104 0.095516 -0.017556
v -0.308486 0.147455 0.000466
v -0.297631 0.138021 -0.011881
v -0.265292 0.181274 0.009348
v -0.257341 0.171774 -0.003695
v -0.216168 0.204781 0.020117
v -0.209654 0.193755 0.006797
v -0.162518 0.213466 0.032635
v -0.158890 0.200883 0.018690
v -0.108695 0.207232 0.045860
v -0.106537 0.196107 0.031497
v -0.057607 0.186011 0.059097
v -0.058371 0.176312 0.043967
v -0.013659 0.154180 0.071089
v -0.017328 0.144415 0.055263
v 0.020257 0.110182 0.081210
v 0.013650 0.103335 0.064547
v 0.041190 0.058425 0.088554
v 0.034547 0.054561 0.071750
v 0.049084 0.003385 0.092908
v 0.042408 0.002506 0.075963
v 0.042455 -0.051986 0.093783
v 0.035745 -0.049880 0.076697
v 0.022721 -0.104670 0.091386
v 0.015977 -0.099582 0.074158
v -0.010170 -0.150193 0.085505
v -0.014044 -0.142055 0.068832
v -0.053365 -0.184012 0.076623
v -0.054334 -0.175806 0.060645
v -0.103940 -0.207551 0.065507
v -0.102021 -0.197788 0.050154
v 0.047282 0.003417 0.094011
v -0.057230 0.001323 0.075115
v -0.059810 -0.027091 0.075762
v 0.040653 -0.051954 0.094887
v -0.071138 -0.052721 0.074180
v 0.020903 -0.103146 0.092419
v -0.086857 -0.075466 0.071413
v -0.011989 -0.148670 0.086538
v -0.108454 -0.092375 0.066972
v -0.053730 -0.182455 0.078003
v -0.133025 -0.103383 0.061553
v -0.104306 -0.205996 0.066887
v -0.160567 -0.108488 0.055155
v -0.157974 -0.213189 0.054298
v -0.186762 -0.104608 0.048681
v -0.211779 -0.208447 0.041144
v -0.261416 -0.187192 0.028254
v -0.213023 -0.094760 0.041925
v -0.303910 -0.155329 0.016611
v -0.233545 -0.078812 0.036277
v -0.337828 -0.111329 0.006490
v -0.251229 -0.056829 0.031042
v -0.261686 -0.031696 0.027405
v -0.366636 -0.006025 -0.005138
v -0.358742 -0.061065 -0.000784
v -0.264915 -0.003414 0.025366
v -0.360008 0.049346 -0.006013
v -0.262336 0.025000 0.024720
v -0.340257 0.100538 -0.003546
v -0.252460 0.050597 0.025953
v -0.235290 0.073375 0.029068
v -0.307365 0.146061 0.002335
v -0.215144 0.090251 0.033162
v -0.265624 0.179846 0.010870
v -0.189122 0.101291 0.038929
v -0.216500 0.203353 0.021639
v -0.163031 0.106364 0.044978
v -0.162832 0.210547 0.034227
v -0.135385 0.102517 0.051800
v -0.109028 0.205805 0.047382
v -0.110575 0.092637 0.058209
v -0.057938 0.184584 0.060619
v -0.088602 0.076721 0.064205
v -0.015444 0.152720 0.072262
v -0.072370 0.054705 0.069092
v 0.018474 0.108721 0.082384
v -0.060460 0.029605 0.073077
v 0.039388 0.058456 0.089658
v -0.215131 -0.002060 0.041896
v -0.212380 0.011434 0.041955
v -0.208177 0.024961 0.042364
v -0.199583 0.035605 0.043956
v -0.176517 0.051055 0.048815
v -0.189519 0.044789 0.045967
v -0.163462 0.052845 0.051876
v -0.148921 0.051684 0.055425
v -0.137235 0.045982 0.058491
v -0.125513 0.037294 0.061699
v -0.118131 0.027015 0.063932
v -0.112168 0.013720 0.065960
v -0.110562 0.000325 0.066944
v -0.111860 -0.013136 0.067232
v -0.117515 -0.026698 0.066476
v -0.124658 -0.037307 0.065232
v -0.136174 -0.046524 0.062873
v -0.147724 -0.052757 0.060372
v -0.162230 -0.054581 0.056964
v -0.175319 -0.053387 0.053762
v -0.188459 -0.047717 0.050348
v -0.198728 -0.038996 0.047489
v -0.207561 -0.028752 0.044908
v -0.212072 -0.015422 0.043227
v -0.133640 -0.008865 0.067953
v -0.132292 0.000120 0.067877
v -0.136460 -0.016392 0.067611
v -0.140748 -0.022459 0.066851
v -0.147941 -0.028593 0.065393
v -0.155169 -0.031743 0.063795
v -0.163866 -0.033434 0.061778
v -0.171145 -0.032107 0.059969
v -0.178441 -0.029288 0.058088
v -0.185771 -0.023486 0.056065
v -0.190197 -0.017618 0.054739
v -0.193187 -0.010224 0.053690
v -0.194742 -0.001304 0.052918
v -0.193392 0.007681 0.052842
v -0.190573 0.015207 0.053184
v -0.186284 0.021275 0.053945
v -0.179091 0.027408 0.055402
v -0.171863 0.030558 0.057001
v -0.164619 0.032216 0.058669
v -0.155887 0.030923 0.060827
v -0.148592 0.028104 0.062708
v -0.141262 0.022302 0.064730
v -0.136836 0.016433 0.066057
v -0.133846 0.009039 0.067105
v -0.151967 -0.018378 -0.002159
v -0.149045 -0.019804 -0.001392
v -0.144706 -0.018213 -0.000419
v -0.067134 0.053734 0.047327
v -0.055225 0.028635 0.051312
v -0.051994 0.000353 0.053350
v -0.101836 -0.001293 0.030669
v -0.103134 -0.014754 0.030957
v -0.054575 -0.028062 0.053997
v -0.108789 -0.028316 0.030201
v -0.065902 -0.053692 0.052415
v -0.115931 -0.038925 0.028956
v -0.081621 -0.076436 0.049648
v -0.127448 -0.048142 0.026598
v -0.103218 -0.093346 0.045207
v -0.138998 -0.054375 0.024097
v -0.127789 -0.104354 0.039788
v -0.153504 -0.056199 0.020689
v -0.155332 -0.109459 0.033390
v -0.166593 -0.055005 0.017487
v -0.181525 -0.105579 0.026915
v -0.179732 -0.049335 0.014074
v -0.207787 -0.095731 0.020159
v -0.190002 -0.040615 0.011214
v -0.228309 -0.079782 0.014511
v -0.198835 -0.030370 0.008632
v -0.245993 -0.057800 0.009277
v -0.203346 -0.017040 0.006952
v -0.256450 -0.032667 0.005640
v -0.206404 -0.003678 0.005621
v -0.259680 -0.004385 0.003601
v -0.203654 0.009816 0.005680
v -0.257100 0.024030 0.002955
v -0.199450 0.023343 0.006088
v -0.247224 0.049626 0.004189
v -0.190857 0.033987 0.007681
v -0.230053 0.072404 0.007302
v -0.180793 0.043171 0.009692
v -0.209908 0.089280 0.011396
v -0.167790 0.049437 0.012540
v -0.183886 0.100320 0.017163
v -0.154736 0.051227 0.015601
v -0.157795 0.105393 0.023213
v -0.140195 0.050066 0.019150
v -0.130149 0.101546 0.030035
v -0.128509 0.044363 0.022216
v -0.105339 0.091666 0.036444
v -0.116786 0.035676 0.025423
v -0.083366 0.075750 0.042440
v -0.109405 0.025397 0.027657
v -0.103442 0.012102 0.029685
v -0.119726 -0.002210 0.015641
v -0.121075 -0.011195 0.015717
v -0.123894 -0.018722 0.015375
v -0.128182 -0.024789 0.014615
v -0.135376 -0.030923 0.013157
v -0.142604 -0.034073 0.011559
v -0.151300 -0.035764 0.009542
v -0.158579 -0.034437 0.007732
v -0.165875 -0.031618 0.005852
v -0.173205 -0.025816 0.003829
v -0.177631 -0.019948 0.002503
v -0.180622 -0.012554 0.001454
v -0.182176 -0.003635 0.000682
v -0.180827 0.005351 0.000606
v -0.178007 0.012877 0.000948
v -0.173718 0.018945 0.001709
v -0.166525 0.025078 0.003166
v -0.159297 0.028228 0.004764
v -0.152053 0.029886 0.006433
v -0.143323 0.028593 0.008590
v -0.136026 0.025774 0.010472
v -0.128696 0.019972 0.012494
v -0.124271 0.014103 0.013820
v -0.121280 0.006709 0.014869
v -0.133257 -0.003028 0.001657
v -0.133206 -0.007504 0.001869
v -0.134624 -0.010521 0.001663
v -0.137478 -0.015064 0.001179
v -0.140365 -0.016621 0.000554
v -0.156341 -0.016986 -0.003273
v -0.159263 -0.015561 -0.004040
v -0.162220 -0.011150 -0.004947
v -0.163705 -0.008200 -0.005436
v -0.163757 -0.003723 -0.005649
v -0.163808 0.000752 -0.005860
v -0.162391 0.003770 -0.005654
v -0.159537 0.008312 -0.005170
v -0.156649 0.009870 -0.004545
v -0.152309 0.011462 -0.003572
v -0.149421 0.013021 -0.002947
v -0.145048 0.011628 -0.001832
v -0.140673 0.010235 -0.000718
v -0.137752 0.008809 0.000048
v -0.134795 0.004399 0.000957
v -0.133309 0.001448 0.001445
v -0.176721 -0.017092 0.062571
v -0.172747 -0.013943 0.064925
v -0.175669 -0.012519 0.064158
v -0.172329 -0.019977 0.063756
v -0.167955 -0.021369 0.064870
v -0.168373 -0.015336 0.066039
v -0.165450 -0.016762 0.066805
v -0.162146 -0.021236 0.066262
v -0.161111 -0.015171 0.067779
v -0.156354 -0.019613 0.067583
v -0.156771 -0.013579 0.068752
v -0.152030 -0.016529 0.068485
v -0.153884 -0.012022 0.069376
v -0.147708 -0.013445 0.069387
v -0.151030 -0.007479 0.069861
v -0.144871 -0.007411 0.069801
v -0.149611 -0.004462 0.070066
v -0.143470 -0.002902 0.069936
v -0.143538 0.003066 0.069654
v -0.149714 0.004490 0.069642
v -0.145042 0.007509 0.069094
v -0.148016 0.013411 0.068115
v -0.151201 0.007442 0.069154
v -0.154157 0.011851 0.068245
v -0.152407 0.016296 0.066930
v -0.157079 0.013277 0.067480
v -0.156799 0.019180 0.065745
v -0.161453 0.014670 0.066365
v -0.162625 0.020540 0.064283
v -0.165827 0.016063 0.065250
v -0.168434 0.020407 0.062892
v -0.168715 0.014504 0.064625
v -0.172773 0.018816 0.061919
v -0.173054 0.012912 0.063653
v -0.177097 0.015733 0.061016
v -0.175942 0.011354 0.063027
v -0.181419 0.012649 0.060114
v -0.178795 0.006812 0.062544
v -0.184256 0.006615 0.059701
v -0.180213 0.003794 0.062337
v -0.185657 0.002105 0.059564
v -0.185589 -0.003863 0.059847
v -0.180111 -0.005158 0.062761
v -0.184085 -0.008305 0.060407
v -0.181111 -0.014207 0.061386
v -0.178624 -0.008108 0.063250
v -0.178458 -0.027797 0.058017
v -0.171162 -0.030615 0.059898
v -0.155186 -0.030250 0.063724
v -0.147959 -0.027101 0.065323
v -0.142218 -0.021000 0.066432
v -0.137930 -0.014933 0.067192
v -0.135110 -0.007406 0.067536
v -0.133743 0.000087 0.067529
v -0.135281 0.007514 0.066829
v -0.138272 0.014908 0.065779
v -0.142697 0.020776 0.064453
v -0.148574 0.026612 0.062779
v -0.155870 0.029430 0.060897
v -0.171846 0.029066 0.057071
v -0.179074 0.025916 0.055473
v -0.184815 0.019816 0.054364
v -0.189104 0.013748 0.053603
v -0.191923 0.006222 0.053260
v -0.193289 -0.001271 0.053266
v -0.191752 -0.008698 0.053967
v -0.188762 -0.016092 0.055016
v -0.184337 -0.021961 0.056342
v -0.169476 -0.015434 0.064239
v -0.165101 -0.016827 0.065355
v -0.156422 -0.013644 0.067300
v -0.161481 -0.018382 0.063218
v -0.155689 -0.016758 0.064539
v -0.162998 -0.007679 0.068528
v -0.160111 -0.006120 0.069153
v -0.149931 -0.012150 0.065719
v -0.158675 -0.004596 0.069430
v -0.147095 -0.006114 0.066133
v -0.157257 -0.001579 0.069636
v -0.147232 0.005821 0.065567
v -0.157291 0.001406 0.069495
v -0.150205 0.011723 0.064588
v -0.158778 0.004356 0.069006
v -0.160247 0.005815 0.068588
v -0.156066 0.016067 0.062985
v -0.163169 0.007241 0.067822
v -0.161892 0.017427 0.061522
v -0.167702 0.017294 0.060130
v -0.168978 0.007109 0.066430
v -0.173494 0.015670 0.058810
v -0.177799 0.011094 0.057978
v -0.171848 0.004058 0.065875
v -0.180636 0.005059 0.057565
v -0.173267 0.001041 0.065669
v -0.182020 -0.000942 0.057500
v -0.173233 -0.001943 0.065810
v -0.180499 -0.006876 0.058131
v -0.177526 -0.012779 0.059109
v -0.171746 -0.004894 0.066299
v -0.173118 -0.017155 0.060365
v -0.168807 -0.007811 0.067137
v -0.167291 -0.018515 0.061826
v -0.166337 -0.000220 0.068930
v -0.151972 0.017657 0.000846
v -0.144711 0.017823 0.002586
v -0.147837 -0.003651 -0.007974
v -0.137415 0.015005 0.004466
v -0.132990 0.009136 0.005793
v -0.130016 0.003234 0.006772
v -0.128478 -0.004193 0.007473
v -0.131298 -0.011719 0.007130
v -0.135586 -0.017787 0.006369
v -0.141345 -0.022396 0.005189
v -0.147137 -0.024020 0.003868
v -0.154399 -0.024185 0.002130
v -0.161694 -0.021367 0.000248
v -0.170545 -0.009629 -0.002404
v -0.170631 -0.002169 -0.002757
v -0.169264 0.005324 -0.002763
v -0.164976 0.011391 -0.002002
v -0.159217 0.015999 -0.000822
v 0.063980 -0.008869 0.083198
v 0.060142 -0.008157 0.099159
v 0.025285 -0.008952 0.090809
v 0.029124 -0.009664 0.074848
v -0.091674 -0.010273 0.059657
v -0.091418 -0.032653 0.060717
v 0.028700 -0.033407 0.078881
v 0.063556 -0.032612 0.087230
v 0.061462 -0.032224 0.095937
v 0.026605 -0.033019 0.087587
v 0.063706 0.015003 0.082068
v 0.059868 0.015715 0.098028
v 0.025011 0.014920 0.089679
v 0.028851 0.014208 0.073717
v -0.091914 0.010615 0.058668
v 0.062735 0.039005 0.083838
v 0.060641 0.039394 0.092545
v 0.025784 0.038599 0.084195
v 0.027879 0.038210 0.075489
v -0.092170 0.032996 0.057608
v 0.072350 0.009492 -0.004803
v 0.067464 0.010398 0.015510
v -0.005086 0.002774 -0.001602
v 0.032121 0.012718 0.073033
v -0.072379 0.004364 0.048267
v -0.004966 -0.007670 -0.001107
v -0.000079 -0.008576 -0.021421
v -0.000199 0.001868 -0.021916
v -0.072260 -0.006079 0.048762
v 0.032361 -0.008171 0.074023
v 0.067703 -0.010490 0.016500
v 0.072590 -0.011396 -0.003814
v -0.028284 0.004028 -0.001086
v -0.030727 0.004481 0.009070
v -0.014752 0.004846 0.012897
v -0.012308 0.004393 0.002741
v 0.038963 0.002795 0.019759
v 0.038895 0.008764 0.019476
v -0.012776 0.014902 0.003696
v -0.028752 0.014537 -0.000130
v -0.030498 0.014861 0.007125
v -0.014522 0.015225 0.010952
v -0.028147 -0.007908 -0.000521
v -0.030591 -0.007455 0.009635
v -0.014615 -0.007090 0.013462
v -0.012172 -0.007543 0.003306
v 0.039032 -0.003173 0.020041
v -0.028376 -0.018288 0.001425
v -0.030122 -0.017964 0.008680
v -0.014146 -0.017599 0.012507
v -0.012400 -0.017923 0.005251
v 0.039100 -0.009141 0.020324
v 0.167572 0.026080 0.006597
v 0.147240 0.025617 0.001727
v 0.144796 0.026070 0.011884
v 0.165129 0.026534 0.016755
v 0.167836 0.172009 0.087810
v 0.230288 0.173433 0.102769
v 0.165393 0.172462 0.097967
v 0.147120 0.036060 0.001232
v 0.144677 0.036513 0.011390
v 0.167453 0.036524 0.006103
v 0.165009 0.036977 0.016260
v 0.167717 0.182453 0.087315
v 0.230168 0.183878 0.102274
v 0.165273 0.182906 0.097472
v 0.227725 0.184331 0.112432
v 0.227844 0.173886 0.112927
v 0.625301 0.190521 0.241628
v 0.562807 0.186988 0.182154
v 0.103865 0.176519 0.072220
v 0.103745 0.186964 0.071726
v 0.056392 0.186974 0.083402
v 0.625181 0.200966 0.241133
v 0.562687 0.197432 0.181660
v 0.056512 0.176529 0.083896
v 0.053949 0.187427 0.093558
v 0.054069 0.176982 0.094053
v 0.061671 0.188112 0.106150
v 0.061791 0.177667 0.106645
v 0.534988 0.176304 0.215924
v 0.483470 0.173457 0.168286
v 0.083325 0.164509 0.107799
v 0.117496 0.163616 0.080688
v 0.079903 0.163631 0.090098
v 0.078158 0.163955 0.097353
v 0.534612 0.209129 0.214369
v 0.483093 0.206282 0.166731
v 0.082949 0.197334 0.106244
v 0.117119 0.196441 0.079133
v 0.079527 0.196456 0.088543
v 0.077781 0.196780 0.095798
v 0.169641 -0.027599 0.009490
v 0.147856 -0.028096 0.004271
v 0.145412 -0.027643 0.014429
v 0.167197 -0.027146 0.019647
v 0.173258 -0.174109 0.104553
v 0.235709 -0.172684 0.119513
v 0.170814 -0.173655 0.114711
v 0.147736 -0.017653 0.003776
v 0.145292 -0.017200 0.013934
v 0.169521 -0.017156 0.008995
v 0.167077 -0.016703 0.019152
v 0.173121 -0.162173 0.103988
v 0.235572 -0.160748 0.118947
v 0.170677 -0.161720 0.114145
v 0.233128 -0.160295 0.129105
v 0.233265 -0.172231 0.129670
v 0.632260 -0.163023 0.259073
v 0.569765 -0.166557 0.199598
v 0.110825 -0.177025 0.089665
v 0.110705 -0.166581 0.089170
v 0.063350 -0.166571 0.100846
v 0.632141 -0.152578 0.258578
v 0.569645 -0.156112 0.199104
v 0.063470 -0.177015 0.101340
v 0.060907 -0.166118 0.111003
v 0.061027 -0.176562 0.111498
v 0.070083 -0.165399 0.123943
v 0.070203 -0.175844 0.124438
v 0.541946 -0.177240 0.233368
v 0.491881 -0.180054 0.186079
v 0.091736 -0.189002 0.125591
v 0.124455 -0.189928 0.098133
v 0.086861 -0.189913 0.107543
v 0.085117 -0.189589 0.114798
v 0.091360 -0.156177 0.124037
v 0.491505 -0.147229 0.184525
v 0.541570 -0.144415 0.231813
v 0.124078 -0.157103 0.096578
v 0.086485 -0.157088 0.105988
v 0.084740 -0.156765 0.113244
v -0.024185 -0.030418 -0.066230
v -0.027327 -0.029835 -0.053171
v -0.028757 -0.026592 -0.047508
v -0.149943 0.010228 0.008800
v -0.149901 0.010365 0.008803
v -0.149727 0.010235 0.008888
v -0.149791 0.010451 0.008826
v -0.149652 0.010454 0.008859
v -0.149539 0.010373 0.008890
v -0.149495 0.010239 0.008907
v -0.149535 0.010102 0.008903
v -0.149647 0.010016 0.008880
v -0.149785 0.010013 0.008847
v -0.149898 0.010094 0.008816
v -0.150121 0.010219 0.008648
v -0.150042 0.010479 0.008655
v -0.149830 0.010643 0.008699
v -0.149566 0.010649 0.008762
v -0.149352 0.010495 0.008821
v -0.149267 0.010239 0.008852
v -0.149346 0.009979 0.008845
v -0.149557 0.009815 0.008801
v -0.149821 0.009809 0.008738
v -0.150037 0.009963 0.008679
v -0.150243 0.010208 0.008449
v -0.150135 0.010566 0.008459
v -0.149843 0.010792 0.008519
v -0.149480 0.010800 0.008606
v -0.149184 0.010588 0.008687
v -0.149067 0.010235 0.008731
v -0.149176 0.009878 0.008721
v -0.149467 0.009653 0.008661
v -0.149830 0.009644 0.008574
v -0.150127 0.009857 0.008493
v -0.150297 0.010197 0.008222
v -0.150170 0.010617 0.008234
v -0.149828 0.010883 0.008304
v -0.149401 0.010893 0.008407
v -0.149053 0.010643 0.008502
v -0.148916 0.010229 0.008553
v -0.149043 0.009808 0.008541
v -0.149385 0.009544 0.008471
v -0.149813 0.009534 0.008368
v -0.150161 0.009783 0.008273
v -0.150279 0.010186 0.007989
v -0.150145 0.010628 0.008001
v -0.149785 0.010908 0.008076
v -0.149337 0.010918 0.008183
v -0.148970 0.010655 0.008283
v -0.148826 0.010219 0.008337
v -0.148960 0.009778 0.008325
v -0.149320 0.009498 0.008250
v -0.149769 0.009488 0.008143
v -0.150135 0.009752 0.008043
v -0.150189 0.010177 0.007773
v -0.150062 0.010597 0.007785
v -0.149720 0.010863 0.007855
v -0.149293 0.010873 0.007958
v -0.148945 0.010623 0.008053
v -0.148808 0.010209 0.008104
v -0.148935 0.009788 0.008092
v -0.149277 0.009524 0.008022
v -0.149705 0.009514 0.007919
v -0.150052 0.009763 0.007824
v -0.150037 0.010170 0.007595
v -0.149929 0.010528 0.007605
v -0.149637 0.010754 0.007666
v -0.149275 0.010762 0.007753
v -0.148979 0.010550 0.007833
v -0.148862 0.010197 0.007877
v -0.148971 0.009840 0.007867
v -0.149261 0.009615 0.007807
v -0.149624 0.009606 0.007720
v -0.149921 0.009819 0.007639
v -0.149838 0.010167 0.007474
v -0.149760 0.010427 0.007481
v -0.149547 0.010591 0.007525
v -0.149284 0.010597 0.007588
v -0.149069 0.010442 0.007647
v -0.148985 0.010186 0.007678
v -0.149063 0.009927 0.007671
v -0.149274 0.009762 0.007628
v -0.149538 0.009756 0.007564
v -0.149754 0.009911 0.007505
v -0.149611 0.010167 0.007419
v -0.149569 0.010303 0.007423
v -0.149458 0.010389 0.007446
v -0.149320 0.010392 0.007479
v -0.149206 0.010312 0.007510
v -0.149162 0.010177 0.007526
v -0.149203 0.010041 0.007523
v -0.149315 0.009955 0.007500
v -0.149453 0.009952 0.007467
v -0.149566 0.010032 0.007436
v -0.149378 0.010170 0.007438
v -0.151018 0.010425 0.010412
v -0.150854 0.010971 0.010427
v -0.150155 0.010452 0.010769
v -0.150408 0.011316 0.010519
v -0.149853 0.011329 0.010652
v -0.149401 0.011004 0.010775
v -0.149223 0.010466 0.010842
v -0.149389 0.009920 0.010827
v -0.149833 0.009575 0.010735
v -0.150388 0.009562 0.010602
v -0.150841 0.009887 0.010478
v -0.151729 0.010388 0.009806
v -0.151415 0.011426 0.009835
v -0.150568 0.012083 0.010010
v -0.149513 0.012107 0.010262
v -0.148652 0.011489 0.010497
v -0.148315 0.010466 0.010624
v -0.148629 0.009428 0.010595
v -0.149475 0.008771 0.010420
v -0.150530 0.008747 0.010168
v -0.151391 0.009365 0.009933
v -0.152217 0.010345 0.009010
v -0.151784 0.011774 0.009050
v -0.150620 0.012678 0.009290
v -0.149167 0.012711 0.009638
v -0.147982 0.011860 0.009962
v -0.147517 0.010452 0.010137
v -0.147950 0.009023 0.010096
v -0.149115 0.008119 0.009856
v -0.150567 0.008086 0.009508
v -0.151751 0.008937 0.009185
v -0.152435 0.010299 0.008102
v -0.151926 0.011979 0.008149
v -0.150556 0.013042 0.008431
v -0.148850 0.013081 0.008841
v -0.147456 0.012081 0.009221
v -0.146909 0.010425 0.009426
v -0.147418 0.008746 0.009379
v -0.148788 0.007682 0.009096
v -0.150494 0.007643 0.008687
v -0.151888 0.008644 0.008307
v -0.152361 0.010256 0.007171
v -0.151826 0.012023 0.007221
v -0.150386 0.013140 0.007517
v -0.148591 0.013181 0.007948
v -0.147126 0.012131 0.008347
v -0.146551 0.010389 0.008564
v -0.147086 0.008623 0.008514
v -0.148526 0.007505 0.008217
v -0.150321 0.007464 0.007786
v -0.151786 0.008515 0.007387
v -0.152003 0.010219 0.006309
v -0.151495 0.011899 0.006356
v -0.150125 0.012962 0.006639
v -0.148418 0.013001 0.007048
v -0.147024 0.012001 0.007428
v -0.146478 0.010346 0.007634
v -0.146986 0.008666 0.007586
v -0.148356 0.007602 0.007304
v -0.150063 0.007564 0.006895
v -0.151456 0.008564 0.006514
v -0.151396 0.010193 0.005599
v -0.150963 0.011622 0.005639
v -0.149799 0.012526 0.005879
v -0.148346 0.012559 0.006227
v -0.147161 0.011708 0.006550
v -0.146695 0.010300 0.006725
v -0.147128 0.008871 0.006685
v -0.148293 0.007967 0.006445
v -0.149746 0.007933 0.006096
v -0.150930 0.008784 0.005773
v -0.150599 0.010179 0.005111
v -0.150285 0.011217 0.005140
v -0.149437 0.011874 0.005315
v -0.148383 0.011898 0.005568
v -0.147522 0.011280 0.005802
v -0.147184 0.010257 0.005929
v -0.147498 0.009219 0.005900
v -0.148344 0.008562 0.005726
v -0.149399 0.008538 0.005473
v -0.150261 0.009156 0.005238
v -0.149689 0.010179 0.004893
v -0.149525 0.010725 0.004908
v -0.149079 0.011070 0.005000
v -0.148524 0.011082 0.005133
v -0.148072 0.010758 0.005256
v -0.147894 0.010220 0.005323
v -0.148060 0.009674 0.005308
v -0.148504 0.009329 0.005216
v -0.149059 0.009316 0.005083
v -0.149512 0.009641 0.004960
v -0.148758 0.010193 0.004966
v -0.001596 -0.003609 -0.042490
v -0.000770 -0.000879 -0.042412
v 0.002721 -0.003475 -0.040703
v 0.001455 0.000846 -0.041954
v 0.004228 0.000910 -0.041289
v 0.006491 -0.000713 -0.040671
v 0.007379 -0.003404 -0.040338
v 0.006554 -0.006134 -0.040415
v 0.004328 -0.007861 -0.040874
v 0.001555 -0.007924 -0.041538
v -0.000708 -0.006300 -0.042156
v -0.005149 -0.003793 -0.045521
v -0.003578 0.001399 -0.045374
v 0.000654 0.004681 -0.044501
v 0.005929 0.004802 -0.043237
v 0.010235 0.001714 -0.042062
v 0.011923 -0.003404 -0.041427
v 0.010353 -0.008596 -0.041574
v 0.006121 -0.011880 -0.042446
v 0.000845 -0.012000 -0.043711
v -0.003460 -0.008911 -0.044886
v -0.007589 -0.004010 -0.049501
v -0.005427 0.003136 -0.049299
v 0.000399 0.007655 -0.048098
v 0.007660 0.007821 -0.046357
v 0.013584 0.003570 -0.044741
v 0.015909 -0.003474 -0.043867
v 0.013747 -0.010620 -0.044069
v 0.007923 -0.015139 -0.045270
v 0.000662 -0.015305 -0.047010
v -0.005264 -0.011054 -0.048627
v -0.008678 -0.004237 -0.054040
v -0.006136 0.004163 -0.053803
v 0.000711 0.009476 -0.052391
v 0.009248 0.009670 -0.050344
v 0.016213 0.004673 -0.048445
v 0.018946 -0.003607 -0.047417
v 0.016404 -0.012008 -0.047654
v 0.009557 -0.017321 -0.049066
v 0.001021 -0.017516 -0.051113
v -0.005944 -0.012518 -0.053013
v -0.008309 -0.004454 -0.058695
v -0.005636 0.004379 -0.058445
v 0.001563 0.009965 -0.056961
v 0.010539 0.010170 -0.054809
v 0.017862 0.004915 -0.052811
v 0.020737 -0.003791 -0.051731
v 0.018063 -0.012624 -0.051980
v 0.010864 -0.018210 -0.053465
v 0.001889 -0.018414 -0.055617
v -0.005435 -0.013161 -0.057614
v -0.006519 -0.004637 -0.063007
v -0.003977 0.003763 -0.062770
v 0.002870 0.009076 -0.061358
v 0.011407 0.009270 -0.059312
v 0.018372 0.004273 -0.057412
v 0.021105 -0.004007 -0.056384
v 0.018563 -0.012408 -0.056622
v 0.011716 -0.017721 -0.058033
v 0.003180 -0.017916 -0.060080
v -0.003785 -0.012918 -0.061980
v -0.003482 -0.004771 -0.066557
v -0.001320 0.002375 -0.066355
v 0.004505 0.006894 -0.065154
v 0.011767 0.007060 -0.063413
v 0.017691 0.002809 -0.061797
v 0.020016 -0.004234 -0.060923
v 0.017854 -0.011381 -0.061125
v 0.012030 -0.015900 -0.062326
v 0.004768 -0.016066 -0.064067
v -0.001157 -0.011814 -0.065683
v 0.000504 -0.004841 -0.068997
v 0.002074 0.000352 -0.068850
v 0.006307 0.003634 -0.067978
v 0.011582 0.003755 -0.066713
v 0.015887 0.000667 -0.065539
v 0.017576 -0.004451 -0.064904
v 0.016005 -0.009643 -0.065050
v 0.011773 -0.012927 -0.065923
v 0.006498 -0.013047 -0.067188
v 0.002193 -0.009958 -0.068362
v 0.005048 -0.004840 -0.070088
v 0.005875 -0.002110 -0.070010
v 0.008099 -0.000385 -0.069552
v 0.010872 -0.000321 -0.068887
v 0.013136 -0.001944 -0.068269
v 0.014024 -0.004635 -0.067936
v 0.013198 -0.007365 -0.068013
v 0.010973 -0.009092 -0.068471
v 0.008200 -0.009155 -0.069136
v 0.005937 -0.007531 -0.069754
v 0.009708 -0.004769 -0.069722
v 0.098110 -0.001351 -0.018949
v 0.098936 0.001379 -0.018872
v 0.102427 -0.001217 -0.017163
v 0.101160 0.003104 -0.018413
v 0.103935 0.003168 -0.017748
v 0.106197 0.001545 -0.017131
v 0.107085 -0.001146 -0.016797
v 0.106260 -0.003876 -0.016874
v 0.104035 -0.005603 -0.017333
v 0.101261 -0.005666 -0.017998
v 0.098998 -0.004042 -0.018615
v 0.094557 -0.001535 -0.021981
v 0.096129 0.003657 -0.021834
v 0.100360 0.006939 -0.020962
v 0.105637 0.007060 -0.019697
v 0.109941 0.003972 -0.018523
v 0.111630 -0.001146 -0.017888
v 0.110059 -0.006338 -0.018035
v 0.105828 -0.009621 -0.018907
v 0.100552 -0.009742 -0.020172
v 0.096247 -0.006653 -0.021346
v 0.092117 -0.001752 -0.025961
v 0.094280 0.005394 -0.025760
v 0.100105 0.009913 -0.024559
v 0.107366 0.010079 -0.022818
v 0.113291 0.005828 -0.021202
v 0.115616 -0.001216 -0.020328
v 0.113453 -0.008362 -0.020530
v 0.107629 -0.012881 -0.021730
v 0.100368 -0.013047 -0.023471
v 0.094442 -0.008796 -0.025087
v 0.091029 -0.001979 -0.030501
v 0.093570 0.006421 -0.030263
v 0.100417 0.011734 -0.028852
v 0.108954 0.011928 -0.026805
v 0.115919 0.006931 -0.024905
v 0.118653 -0.001349 -0.023878
v 0.116110 -0.009750 -0.024115
v 0.109263 -0.015063 -0.025527
v 0.100727 -0.015258 -0.027573
v 0.093762 -0.010260 -0.029473
v 0.091398 -0.002195 -0.035154
v 0.094070 0.006637 -0.034904
v 0.101269 0.012223 -0.033420
v 0.110245 0.012428 -0.031268
v 0.117568 0.007173 -0.029271
v 0.120443 -0.001533 -0.028190
v 0.117769 -0.010366 -0.028440
v 0.110570 -0.015951 -0.029924
v 0.101595 -0.016156 -0.032076
v 0.094271 -0.010902 -0.034074
v 0.093188 -0.002379 -0.039468
v 0.095730 0.006021 -0.039230
v 0.102576 0.011334 -0.037819
v 0.111113 0.011529 -0.035772
v 0.118078 0.006531 -0.033872
v 0.120812 -0.001749 -0.032845
v 0.118269 -0.010150 -0.033082
v 0.111422 -0.015463 -0.034494
v 0.102886 -0.015658 -0.036540
v 0.095921 -0.010660 -0.038440
v 0.096224 -0.002513 -0.043018
v 0.098386 0.004634 -0.042816
v 0.104211 0.009152 -0.041615
v 0.111473 0.009318 -0.039874
v 0.117397 0.005067 -0.038258
v 0.119722 -0.001976 -0.037384
v 0.117560 -0.009122 -0.037586
v 0.111736 -0.013642 -0.038787
v 0.104475 -0.013808 -0.040528
v 0.098549 -0.009556 -0.042144
v 0.100210 -0.002582 -0.045458
v 0.101782 0.002610 -0.045311
v 0.106013 0.005892 -0.044438
v 0.111289 0.006013 -0.043173
v 0.115593 0.002925 -0.041999
v 0.117282 -0.002193 -0.041364
v 0.115712 -0.007385 -0.041511
v 0.111480 -0.010669 -0.042383
v 0.106204 -0.010789 -0.043648
v 0.101900 -0.007700 -0.044822
v 0.104755 -0.002582 -0.046548
v 0.105581 0.000148 -0.046471
v 0.107806 0.001873 -0.046012
v 0.110580 0.001937 -0.045347
v 0.112842 0.000314 -0.044730
v 0.113730 -0.002377 -0.044396
v 0.112905 -0.005107 -0.044473
v 0.110680 -0.006834 -0.044932
v 0.107906 -0.006897 -0.045597
v 0.105643 -0.005273 -0.046214
v 0.109414 -0.002511 -0.046181
v 0.177070 0.000584 0.002788
v 0.177897 0.003314 0.002865
v 0.181388 0.000718 0.004573
v 0.180121 0.005039 0.003323
v 0.182894 0.005103 0.003988
v 0.185158 0.003479 0.004606
v 0.186046 0.000789 0.004939
v 0.185220 -0.001941 0.004863
v 0.182995 -0.003668 0.004404
v 0.180222 -0.003731 0.003739
v 0.177959 -0.002107 0.003122
v 0.173518 0.000400 -0.000244
v 0.175089 0.005592 -0.000098
v 0.179321 0.008874 0.000775
v 0.184596 0.008995 0.002040
v 0.188902 0.005907 0.003214
v 0.190590 0.000789 0.003849
v 0.189020 -0.004403 0.003702
v 0.184788 -0.007687 0.002830
v 0.179512 -0.007807 0.001565
v 0.175207 -0.004718 0.000391
v 0.171078 0.000183 -0.004225
v 0.173240 0.007329 -0.004023
v 0.179065 0.011848 -0.002822
v 0.186327 0.012014 -0.001081
v 0.192251 0.007763 0.000535
v 0.194576 0.000719 0.001409
v 0.192414 -0.006427 0.001207
v 0.186590 -0.010947 0.000007
v 0.179329 -0.011112 -0.001734
v 0.173403 -0.006861 -0.003351
v 0.169989 -0.000044 -0.008764
v 0.172531 0.008356 -0.008526
v 0.179378 0.013669 -0.007115
v 0.187915 0.013863 -0.005068
v 0.194880 0.008866 -0.003168
v 0.197613 0.000586 -0.002141
v 0.195071 -0.007815 -0.002378
v 0.188224 -0.013128 -0.003790
v 0.179688 -0.013323 -0.005836
v 0.172723 -0.008325 -0.007736
v 0.170357 -0.000261 -0.013418
v 0.173031 0.008572 -0.013169
v 0.180230 0.014158 -0.011685
v 0.189206 0.014363 -0.009533
v 0.196529 0.009108 -0.007535
v 0.199404 0.000402 -0.006454
v 0.196730 -0.008431 -0.006704
v 0.189531 -0.014017 -0.008188
v 0.180556 -0.014221 -0.010340
v 0.173232 -0.008968 -0.012338
v 0.172148 -0.000444 -0.017731
v 0.174690 0.007956 -0.017494
v 0.181537 0.013269 -0.016082
v 0.190074 0.013463 -0.014035
v 0.197039 0.008466 -0.012135
v 0.199772 0.000186 -0.011108
v 0.197230 -0.008215 -0.011345
v 0.190383 -0.013528 -0.012757
v 0.181847 -0.013723 -0.014804
v 0.174882 -0.008725 -0.016703
v 0.175185 -0.000578 -0.021281
v 0.177347 0.006568 -0.021079
v 0.183172 0.011087 -0.019878
v 0.190434 0.011253 -0.018137
v 0.196358 0.007002 -0.016521
v 0.198683 -0.000042 -0.015647
v 0.196521 -0.007188 -0.015849
v 0.190697 -0.011707 -0.017050
v 0.183435 -0.011873 -0.018791
v 0.177510 -0.007621 -0.020407
v 0.179171 -0.000648 -0.023721
v 0.180741 0.004545 -0.023574
v 0.184974 0.007827 -0.022702
v 0.190249 0.007947 -0.021437
v 0.194554 0.004860 -0.020262
v 0.196243 -0.000258 -0.019628
v 0.194672 -0.005450 -0.019774
v 0.190440 -0.008734 -0.020647
v 0.185165 -0.008854 -0.021911
v 0.180860 -0.005766 -0.023086
v 0.183715 -0.000647 -0.024811
v 0.184542 0.002083 -0.024734
v 0.186766 0.003808 -0.024276
v 0.189539 0.003871 -0.023611
v 0.191803 0.002248 -0.022993
v 0.192691 -0.000442 -0.022659
v 0.191865 -0.003172 -0.022736
v 0.189640 -0.004899 -0.023195
v 0.186867 -0.004962 -0.023860
v 0.184604 -0.003338 -0.024477
v 0.188375 -0.000576 -0.024446
v -0.147634 -0.002964 0.009544
v -0.159640 -0.004468 0.000658
v -0.159074 -0.004752 -0.000013
v -0.159098 -0.003258 -0.000030
v -0.160001 -0.003723 0.001065
v -0.160016 -0.002799 0.001055
v -0.159680 -0.002052 0.000630
v -0.159121 -0.001765 -0.000047
v -0.158555 -0.002048 -0.000717
v -0.158194 -0.002795 -0.001126
v -0.158179 -0.003717 -0.001115
v -0.158515 -0.004466 -0.000689
v 0.047981 -0.002473 -0.035425
v 0.048393 -0.001108 -0.035386
v 0.050139 -0.002405 -0.034532
v 0.049506 -0.000245 -0.035157
v 0.050892 -0.000213 -0.034824
v 0.052024 -0.001025 -0.034516
v 0.052468 -0.002370 -0.034349
v 0.052055 -0.003736 -0.034387
v 0.050942 -0.004599 -0.034617
v 0.049556 -0.004630 -0.034949
v 0.048424 -0.003818 -0.035258
v 0.046205 -0.002565 -0.036941
v 0.046990 0.000031 -0.036867
v 0.049106 0.001673 -0.036431
v 0.051744 0.001733 -0.035799
v 0.053896 0.000189 -0.035211
v 0.054740 -0.002370 -0.034894
v 0.053955 -0.004967 -0.034967
v 0.051840 -0.006608 -0.035403
v 0.049202 -0.006668 -0.036036
v 0.047050 -0.005124 -0.036623
v 0.044985 -0.002673 -0.038931
v 0.046065 0.000900 -0.038830
v 0.048978 0.003159 -0.038229
v 0.052608 0.003242 -0.037359
v 0.055571 0.001117 -0.036551
v 0.056733 -0.002405 -0.036114
v 0.055652 -0.005978 -0.036215
v 0.052740 -0.008238 -0.036815
v 0.049109 -0.008321 -0.037686
v 0.046146 -0.006195 -0.038494
v 0.044440 -0.002787 -0.041200
v 0.045711 0.001413 -0.041082
v 0.049134 0.004069 -0.040376
v 0.053402 0.004167 -0.039353
v 0.056885 0.001668 -0.038403
v 0.058252 -0.002471 -0.037889
v 0.056981 -0.006673 -0.038008
v 0.053557 -0.009328 -0.038713
v 0.049289 -0.009426 -0.039737
v 0.045806 -0.006928 -0.040687
v 0.044624 -0.002895 -0.043527
v 0.045961 0.001521 -0.043402
v 0.049560 0.004315 -0.042660
v 0.054048 0.004417 -0.041584
v 0.057709 0.001790 -0.040586
v 0.059147 -0.002563 -0.040045
v 0.057810 -0.006981 -0.040170
v 0.054210 -0.009774 -0.040912
v 0.049723 -0.009876 -0.041988
v 0.046061 -0.007249 -0.042987
v 0.045520 -0.002987 -0.045685
v 0.046790 0.001213 -0.045566
v 0.050214 0.003869 -0.044860
v 0.054482 0.003967 -0.043837
v 0.057965 0.001468 -0.042887
v 0.059331 -0.002671 -0.042373
v 0.058061 -0.006873 -0.042492
v 0.054637 -0.009528 -0.043198
v 0.050369 -0.009626 -0.044221
v 0.046886 -0.007128 -0.045171
v 0.047038 -0.003053 -0.047460
v 0.048119 0.000519 -0.047359
v 0.051031 0.002778 -0.046758
v 0.054662 0.002861 -0.045888
v 0.057625 0.000736 -0.045080
v 0.058787 -0.002785 -0.044643
v 0.057706 -0.006359 -0.044744
v 0.054793 -0.008618 -0.045344
v 0.051163 -0.008701 -0.046214
v 0.048200 -0.006576 -0.047023
v 0.049031 -0.003088 -0.048679
v 0.049817 -0.000493 -0.048606
v 0.051932 0.001149 -0.048170
v 0.054570 0.001209 -0.047537
v 0.056723 -0.000335 -0.046950
v 0.057567 -0.002893 -0.046633
v 0.056782 -0.005490 -0.046706
v 0.054666 -0.007132 -0.047142
v 0.052028 -0.007192 -0.047775
v 0.049876 -0.005648 -0.048362
v 0.051303 -0.003088 -0.049224
v 0.051716 -0.001724 -0.049185
v 0.052828 -0.000860 -0.048956
v 0.054215 -0.000829 -0.048623
v 0.055346 -0.001641 -0.048315
v 0.055790 -0.002986 -0.048148
v 0.055378 -0.004351 -0.048186
v 0.054265 -0.005214 -0.048416
v 0.052879 -0.005246 -0.048748
v 0.051747 -0.004434 -0.049057
v 0.053632 -0.003053 -0.049041
v -0.009678 -0.033037 -0.030328
v -0.011893 -0.022205 -0.022117
v -0.013077 -0.010074 -0.018329
v -0.013248 0.004846 -0.019036
v -0.012338 0.016588 -0.023955
v -0.010362 0.026644 -0.033155
v -0.007657 0.033586 -0.045116
v -0.004532 0.034496 -0.058246
v -0.001374 0.032421 -0.071235
v 0.001155 0.024508 -0.081038
v 0.003370 0.013675 -0.089249
v 0.004554 0.001545 -0.093038
v 0.004725 -0.013375 -0.092331
v 0.003815 -0.025118 -0.087412
v 0.001839 -0.035173 -0.078211
v -0.029016 -0.029219 -0.039764
v -0.030864 -0.019943 -0.032933
v -0.032030 -0.009305 -0.029075
v -0.032167 0.002631 -0.029640
v -0.031240 0.012882 -0.034487
v -0.029598 0.021510 -0.042166
v -0.027554 0.025598 -0.051085
v -0.024797 0.028064 -0.062835
v -0.022318 0.024627 -0.072849
v -0.020173 0.019763 -0.081344
v -0.018326 0.010487 -0.088175
v -0.017158 -0.000152 -0.092033
v -0.017021 -0.012088 -0.091468
v -0.017949 -0.022338 -0.086620
v -0.019591 -0.030967 -0.078941
v 0.033095 0.054528 0.071403
v -0.018781 0.144382 0.054915
v -0.059823 0.176279 0.043619
v -0.107972 0.194583 0.031221
v -0.209637 0.192264 0.006867
v -0.327651 0.095549 -0.017208
v -0.352630 -0.006505 -0.018664
v -0.325325 -0.107367 -0.007597
v -0.205155 -0.198648 0.025383
v -0.103491 -0.196329 0.049736
v -0.055786 -0.175839 0.060297
v -0.015496 -0.142088 0.068483
v 0.034292 -0.049914 0.076349
v 0.040955 0.002473 0.075615
v -0.153534 -0.012086 0.067925
v -0.150681 -0.007543 0.068409
v -0.149263 -0.004527 0.068615
v -0.149366 0.004425 0.068191
v -0.150852 0.007377 0.067703
v -0.153808 0.011786 0.066794
v -0.156730 0.013212 0.066028
v -0.165478 0.015998 0.063800
v -0.169818 0.014406 0.062826
v -0.175593 0.011289 0.061577
v -0.178447 0.006747 0.061092
v -0.179864 0.003730 0.060886
v -0.181265 -0.000779 0.060750
v -0.179761 -0.005223 0.061310
v -0.178276 -0.008173 0.061799
v -0.175319 -0.012583 0.062707
v -0.030205 -0.021857 -0.041916
v -0.030954 -0.017251 -0.039226
v -0.031738 -0.009661 -0.036677
v -0.032155 -0.003629 -0.035509
v -0.031875 0.002274 -0.037242
v -0.031262 0.009605 -0.040498
v -0.030615 0.013952 -0.043613
v -0.029271 0.018169 -0.049628
v -0.027908 0.020895 -0.055573
v -0.024766 0.020312 -0.068633
v -0.023337 0.017069 -0.074296
v -0.021889 0.012334 -0.079887
v -0.020791 0.007663 -0.084028
v -0.020356 0.000138 -0.085126
v -0.019938 -0.005894 -0.086294
v -0.020219 -0.011797 -0.084560
v -0.020483 -0.019193 -0.082756
v -0.021479 -0.023475 -0.078191
v -0.022824 -0.027692 -0.072176
f 1 2 3
f 1 4 2
f 4 5 2
f 4 6 5
f 6 7 5
f 6 8 7
f 8 9 7
f 8 10 9
f 10 11 9
f 10 12 11
f 12 13 11
f 12 14 13
f 14 15 13
f 14 16 15
f 16 17 15
f 16 18 17
f 18 19 17
f 18 20 19
f 20 21 19
f 20 22 21
f 22 23 21
f 22 24 23
f 24 25 23
f 24 26 25
f 26 27 25
f 26 28 27
f 28 29 27
f 28 30 29
f 30 31 29
f 30 32 31
f 32 33 31
f 32 34 33
f 34 35 33
f 34 36 35
f 36 3 35
f 36 1 3
f 37 38 39
f 38 40 39
f 38 41 40
f 41 42 40
f 41 43 42
f 43 44 42
f 43 45 44
f 45 46 44
f 45 47 46
f 47 48 46
f 47 49 48
f 49 50 48
f 49 51 50
f 51 52 50
f 51 53 52
f 53 54 52
f 53 55 54
f 55 56 54
f 55 57 56
f 57 58 56
f 57 59 58
f 59 60 58
f 59 61 60
f 61 62 60
f 61 63 62
f 63 64 62
f 63 65 64
f 65 66 64
f 65 67 66
f 67 68 66
f 67 69 68
f 69 70 68
f 69 71 70
f 71 72 70
f 71 37 72
f 37 39 72
f 73 74 75
f 74 76 75
f 74 77 76
f 77 78 76
f 77 79 78
f 79 80 78
f 79 81 80
f 81 82 80
f 81 83 82
f 83 84 82
f 83 85 84
f 85 86 84
f 85 87 86
f 87 88 86
f 87 89 88
f 89 90 88
f 89 91 90
f 91 92 90
f 91 93 92
f 93 94 92
f 93 95 94
f 95 96 94
f 95 97 96
f 97 98 96
f 97 99 98
f 99 100 98
f 99 101 100
f 101 102 100
f 101 103 102
f 103 104 102
f 103 105 104
f 105 106 104
f 105 107 106
f 107 108 106
f 107 73 108
f 73 75 108
f 109 110 111
f 110 112 111
f 110 113 112
f 113 114 112
f 113 115 114
f 115 116 114
f 115 117 116
f 117 118 116
f 117 119 118
f 119 120 118
f 119 121 120
f 121 122 120
f 121 123 122
f 123 124 122
f 123 125 124
f 125 126 124
f 125 127 126
f 127 128 126
f 127 129 128
f 129 130 128
f 129 131 130
f 131 132 130
f 131 133 132
f 133 134 132
f 133 135 134
f 135 136 134
f 135 137 136
f 137 138 136
f 137 139 138
f 139 140 138
f 139 141 140
f 141 142 140
f 141 143 142
f 143 144 142
f 143 109 144
f 109 111 144
f 145 146 147
f 146 148 147
f 146 149 148
f 149 150 148
f 149 151 150
f 151 152 150
f 151 153 152
f 153 154 152
f 153 155 154
f 155 156 154
f 155 157 156
f 157 158 156
f 157 159 158
f 159 160 158
f 159 161 160
f 161 162 160
f 161 163 162
f 163 164 162
f 163 165 164
f 165 166 164
f 165 167 166
f 167 168 166
f 167 169 168
f 169 170 168
f 169 171 170
f 171 172 170
f 171 173 172
f 173 174 172
f 173 175 174
f 175 176 174
f 175 177 176
f 177 178 176
f 177 179 178
f 179 180 178
f 179 145 180
f 145 147 180
f 181 182 183
f 184 185 186
f 185 187 186
f 185 188 187
f 188 189 187
f 188 190 189
f 190 191 189
f 190 192 191
f 192 193 191
f 192 194 193
f 194 195 193
f 194 196 195
f 196 197 195
f 196 198 197
f 198 199 197
f 198 200 199
f 200 201 199
f 200 202 201
f 202 203 201
f 202 204 203
f 204 205 203
f 204 206 205
f 206 207 205
f 206 208 207
f 208 209 207
f 208 210 209
f 210 211 209
f 210 212 211
f 212 213 211
f 212 214 213
f 214 215 213
f 214 216 215
f 216 217 215
f 216 218 217
f 218 219 217
f 218 184 219
f 184 186 219
f 220 221 222
f 223 224 225
f 224 226 227
f 226 228 227
f 226 229 230
f 229 231 230
f 231 232 230
f 231 233 234
f 233 235 234
f 235 236 234
f 235 237 238
f 237 239 238
f 239 240 241
f 240 242 241
f 240 243 242
f 243 244 245
f 244 246 245
f 244 247 248
f 247 249 248
f 249 250 248
f 249 251 252
f 251 253 252
f 253 254 252
f 253 255 256
f 255 257 256
f 257 223 258
f 223 225 258
f 259 260 261
f 259 262 260
f 262 263 260
f 262 264 263
f 264 265 263
f 264 266 265
f 266 267 265
f 266 268 267
f 268 269 267
f 268 270 269
f 270 271 269
f 270 272 271
f 272 273 271
f 272 274 273
f 274 275 273
f 274 276 275
f 276 277 275
f 276 278 277
f 278 279 277
f 278 280 279
f 280 281 279
f 280 282 281
f 282 283 281
f 282 284 283
f 284 285 283
f 284 286 285
f 286 287 285
f 286 288 287
f 288 289 287
f 288 290 289
f 290 291 289
f 290 292 291
f 292 293 291
f 292 294 293
f 294 261 293
f 294 259 261
f 295 296 297
f 295 298 296
f 298 299 296
f 298 300 299
f 300 301 299
f 300 302 301
f 302 303 301
f 302 304 303
f 304 305 303
f 304 306 305
f 306 307 305
f 306 308 307
f 308 309 307
f 308 310 309
f 310 311 309
f 310 312 311
f 312 313 311
f 312 314 313
f 314 315 313
f 314 316 315
f 316 317 315
f 316 318 317
f 318 319 317
f 318 320 319
f 320 321 319
f 320 322 321
f 322 323 321
f 322 324 323
f 324 325 323
f 324 326 325
f 326 327 325
f 326 328 327
f 328 329 327
f 328 330 329
f 330 297 329
f 330 295 297
f 331 332 333
f 332 334 333
f 332 335 334
f 335 336 334
f 335 300 336
f 300 337 336
f 300 338 337
f 338 339 337
f 338 340 339
f 340 341 339
f 340 342 343
f 342 306 343
f 306 344 343
f 306 345 344
f 345 346 344
f 345 347 346
f 347 348 346
f 347 349 348
f 349 350 348
f 349 312 350
f 312 351 350
f 312 352 351
f 351 353 350
f 348 350 353
f 346 348 353
f 354 346 353
f 346 354 344
f 355 344 354
f 355 343 344
f 341 343 355
f 339 341 356
f 337 339 356
f 356 357 337
f 336 337 357
f 334 336 357
f 357 358 334
f 333 334 358
f 333 359 331
f 359 360 331
f 359 361 360
f 361 362 360
f 361 363 362
f 363 364 362
f 363 365 364
f 365 366 364
f 365 367 366
f 367 324 366
f 367 368 324
f 368 369 324
f 368 370 369
f 370 371 369
f 370 372 373
f 372 374 373
f 374 318 373
f 374 375 318
f 375 376 318
f 375 377 376
f 377 378 376
f 377 379 378
f 379 352 378
f 379 351 352
f 361 359 381
f 363 361 381
f 365 363 381
f 382 365 381
f 368 382 381
f 370 368 381
f 372 370 381
f 374 372 381
f 375 374 381
f 377 375 381
f 379 377 381
f 359 333 351
f 381 359 379
f 383 384 385
f 383 386 384
f 386 387 384
f 386 388 389
f 388 390 389
f 390 391 389
f 390 392 393
f 392 394 393
f 392 395 394
f 395 396 397
f 396 398 397
f 396 399 398
f 399 400 398
f 401 386 383
f 401 402 386
f 402 403 388
f 403 390 388
f 403 404 390
f 404 405 392
f 405 406 392
f 406 395 392
f 406 407 396
f 407 408 396
f 408 409 399
f 410 402 401
f 410 411 403
f 411 412 403
f 412 404 403
f 412 413 405
f 413 406 405
f 413 414 406
f 414 415 407
f 415 408 407
f 415 416 408
f 416 409 408
f 417 401 418
f 417 410 401
f 419 411 410
f 419 412 411
f 419 413 412
f 419 414 413
f 419 415 414
f 419 416 415
f 419 410 417
f 420 421 422
f 420 422 423
f 423 422 424
f 423 424 425
f 425 424 426
f 425 426 427
f 427 426 428
f 427 428 429
f 429 428 430
f 429 430 431
f 431 430 432
f 431 432 433
f 433 432 434
f 433 434 435
f 435 434 436
f 435 436 437
f 437 436 438
f 437 438 439
f 439 438 440
f 439 440 441
f 441 440 442
f 441 442 443
f 443 442 444
f 443 444 445
f 445 444 446
f 445 446 447
f 447 446 448
f 447 448 449
f 449 448 450
f 449 450 451
f 451 450 452
f 451 452 453
f 453 452 454
f 453 454 455
f 455 454 456
f 455 456 457
f 457 456 458
f 457 458 459
f 459 458 460
f 459 460 461
f 461 460 462
f 461 462 463
f 463 462 464
f 463 464 465
f 465 464 466
f 465 466 467
f 467 466 421
f 467 421 420
f 468 469 470
f 471 468 470
f 472 471 470
f 473 471 472
f 473 472 474
f 475 473 474
f 476 475 474
f 477 475 476
f 477 476 478
f 479 477 478
f 480 479 478
f 481 479 480
f 481 480 482
f 483 481 482
f 484 483 482
f 485 484 482
f 484 485 486
f 486 485 487
f 488 486 487
f 488 487 489
f 488 489 490
f 491 492 490
f 491 490 493
f 491 493 494
f 494 493 495
f 496 494 495
f 496 497 498
f 499 496 498
f 500 499 498
f 501 499 500
f 501 500 502
f 503 501 502
f 504 503 502
f 505 503 504
f 505 504 506
f 507 505 506
f 508 507 506
f 509 507 508
f 509 508 510
f 511 509 510
f 512 511 510
f 513 511 512
f 513 512 514
f 515 513 514
f 469 515 514
f 468 515 469
f 493 516 495
f 495 516 517
f 495 517 497
f 497 517 518
f 498 497 518
f 498 518 519
f 498 519 500
f 520 500 521
f 500 520 502
f 502 520 522
f 504 502 522
f 523 504 522
f 506 504 523
f 506 523 524
f 508 506 524
f 525 508 524
f 510 508 525
f 510 525 526
f 512 510 526
f 527 512 526
f 514 512 527
f 514 527 528
f 469 514 528
f 529 469 528
f 469 529 470
f 470 529 530
f 472 470 530
f 531 472 530
f 474 472 531
f 474 531 532
f 476 474 532
f 476 532 533
f 478 476 533
f 534 478 533
f 480 478 534
f 480 534 535
f 482 480 535
f 536 482 535
f 485 482 536
f 485 537 487
f 485 536 537
f 538 487 537
f 489 487 538
f 489 538 539
f 490 489 539
f 493 490 539
f 539 516 493
f 500 519 521
f 540 528 541
f 529 528 540
f 529 540 542
f 530 529 542
f 543 530 542
f 531 530 543
f 531 543 544
f 532 531 544
f 545 532 544
f 533 532 545
f 533 545 546
f 534 533 546
f 547 534 546
f 535 534 547
f 535 547 548
f 536 535 548
f 536 548 549
f 537 536 549
f 537 549 550
f 538 537 550
f 538 550 551
f 539 538 551
f 539 551 552
f 516 539 552
f 516 552 553
f 517 516 553
f 554 517 553
f 518 517 554
f 518 554 555
f 519 518 555
f 556 519 555
f 521 519 556
f 521 556 557
f 520 521 557
f 558 520 557
f 522 520 558
f 522 558 559
f 523 522 559
f 560 523 559
f 524 523 560
f 561 524 560
f 525 524 561
f 525 561 562
f 526 525 562
f 563 526 562
f 527 526 563
f 527 563 541
f 528 527 541
f 564 565 566
f 569 570 571
f 572 569 571
f 573 572 571
f 574 572 573
f 574 573 575
f 576 574 575
f 577 576 575
f 578 576 577
f 578 577 579
f 580 578 579
f 581 580 579
f 582 580 581
f 582 581 583
f 584 582 583
f 585 584 583
f 586 584 585
f 586 585 587
f 588 586 587
f 588 587 589
f 590 588 589
f 591 590 589
f 592 590 591
f 592 591 593
f 594 592 593
f 595 594 593
f 595 596 594
f 595 597 596
f 597 598 596
f 597 599 598
f 599 600 598
f 600 599 601
f 600 601 602
f 603 602 601
f 604 602 603
f 604 603 605
f 606 604 605
f 607 606 605
f 608 606 607
f 608 607 609
f 610 608 609
f 611 610 609
f 612 610 611
f 612 611 613
f 567 612 613
f 614 567 613
f 568 567 614
f 568 614 570
f 568 570 569
f 570 615 616
f 571 570 616
f 571 616 617
f 573 571 617
f 573 617 618
f 575 573 618
f 575 618 619
f 577 575 619
f 577 619 620
f 579 577 620
f 579 620 621
f 581 579 621
f 622 581 621
f 583 581 622
f 583 622 623
f 585 583 623
f 624 585 623
f 587 585 624
f 587 624 625
f 589 587 625
f 626 589 625
f 591 589 626
f 591 626 627
f 593 591 627
f 628 593 627
f 595 593 628
f 595 628 629
f 597 595 629
f 630 597 629
f 599 597 630
f 599 630 631
f 601 599 631
f 632 601 631
f 603 601 632
f 633 603 632
f 605 603 633
f 605 633 634
f 607 605 634
f 635 607 634
f 609 607 635
f 609 635 636
f 611 609 636
f 637 611 636
f 613 611 637
f 613 637 638
f 614 613 638
f 615 614 638
f 570 614 615
f 615 639 640
f 616 615 640
f 641 616 640
f 617 616 641
f 617 641 642
f 618 617 642
f 643 618 642
f 619 618 643
f 619 643 566
f 620 619 566
f 565 620 566
f 621 620 565
f 621 565 564
f 622 621 564
f 564 644 622
f 623 622 644
f 623 644 645
f 623 645 624
f 646 624 645
f 625 624 646
f 625 646 647
f 626 625 647
f 648 626 647
f 627 626 648
f 627 648 649
f 628 627 649
f 650 628 649
f 629 628 650
f 629 650 651
f 630 629 651
f 652 630 651
f 631 630 652
f 631 652 653
f 632 631 653
f 654 632 653
f 633 632 654
f 633 654 655
f 634 633 655
f 656 634 655
f 635 634 656
f 635 656 657
f 636 635 657
f 658 636 657
f 637 636 658
f 637 658 659
f 638 637 659
f 639 638 659
f 615 638 639
f 660 661 662
f 660 663 661
f 663 664 665
f 664 666 665
f 664 667 666
f 667 668 666
f 667 669 668
f 669 670 668
f 669 671 670
f 671 672 670
f 671 673 672
f 673 674 672
f 673 675 676
f 675 677 676
f 677 678 679
f 678 680 679
f 680 681 682
f 681 683 682
f 681 684 683
f 684 685 683
f 684 686 685
f 686 687 685
f 686 688 687
f 688 689 687
f 688 690 689
f 690 691 689
f 690 692 693
f 692 694 693
f 694 695 693
f 694 696 695
f 696 697 695
f 696 698 699
f 698 700 699
f 700 701 702
f 701 703 702
f 703 704 705
f 704 662 705
f 704 660 662
f 706 663 660
f 706 707 663
f 707 664 663
f 707 708 667
f 708 669 667
f 708 709 669
f 709 671 669
f 709 710 671
f 710 673 671
f 710 711 673
f 711 675 673
f 711 712 675
f 712 677 675
f 712 713 677
f 713 678 677
f 713 714 678
f 714 680 678
f 714 715 680
f 715 681 680
f 715 716 681
f 716 684 681
f 716 717 684
f 717 686 684
f 717 718 686
f 718 688 686
f 718 719 690
f 719 692 690
f 719 720 692
f 720 694 692
f 720 721 694
f 721 696 694
f 721 722 696
f 722 698 696
f 722 723 698
f 723 700 698
f 723 724 700
f 724 701 700
f 724 725 701
f 725 703 701
f 725 726 703
f 726 704 703
f 726 727 704
f 727 660 704
f 727 706 660
f 547 546 545
f 728 729 730
f 731 732 733
f 732 734 733
f 732 735 734
f 735 736 734
f 735 737 738
f 737 739 740
f 739 741 742
f 741 743 742
f 741 744 743
f 744 745 743
f 744 746 745
f 746 747 748
f 747 749 748
f 749 750 751
f 750 752 753
f 752 754 753
f 754 755 753
f 754 756 755
f 756 757 758
f 757 759 760
f 759 761 760
f 761 731 733
f 733 734 762
f 734 736 762
f 736 738 762
f 738 740 762
f 740 742 762
f 742 743 762
f 743 745 762
f 745 748 762
f 748 751 762
f 751 753 762
f 753 755 762
f 755 758 762
f 758 760 762
f 760 733 762
f 763 764 765
f 764 766 765
f 766 767 765
f 767 768 765
f 768 769 765
f 769 770 765
f 770 771 765
f 771 772 765
f 772 773 765
f 773 774 765
f 774 775 765
f 775 776 765
f 776 777 765
f 777 778 765
f 778 779 765
f 779 780 765
f 780 763 765
f 785 786 787
f 785 787 784
f 784 787 788
f 781 788 789
f 782 789 790
f 783 790 786
f 783 786 785
f 790 789 788
f 786 790 787
f 795 785 784
f 794 784 781
f 792 782 783
f 793 783 785
f 796 797 798
f 799 798 800
f 800 794 799
f 799 794 791
f 797 792 793
f 798 793 795
f 798 795 800
f 801 802 803
f 804 803 802
f 803 804 805
f 806 807 808
f 809 806 803
f 810 809 805
f 811 810 804
f 812 811 802
f 807 812 801
f 807 806 811
f 811 806 810
f 809 810 806
f 817 818 819
f 817 819 816
f 816 819 820
f 813 820 821
f 814 821 822
f 815 822 818
f 822 821 820
f 818 822 819
f 826 816 813
f 824 814 815
f 817 815 816
f 825 815 817
f 828 829 830
f 831 830 832
f 832 826 831
f 831 826 823
f 829 824 825
f 830 825 827
f 830 827 832
f 833 834 835
f 836 835 837
f 838 837 839
f 840 841 835
f 842 840 834
f 843 842 833
f 841 844 837
f 845 843 836
f 839 846 847
f 848 847 845
f 844 846 839
f 841 840 842
f 844 841 843
f 846 844 845
f 849 850 851
f 861 862 863
f 862 864 863
f 863 864 865
f 864 856 865
f 861 850 862
f 862 851 864
f 865 856 858
f 866 858 860
f 866 860 863
f 863 860 849
f 863 849 861
f 867 868 869
f 869 870 871
f 854 855 852
f 855 868 870
f 853 871 872
f 857 872 869
f 857 869 859
f 859 867 854
f 869 868 867
f 871 870 869
f 873 874 875
f 876 875 877
f 878 877 879
f 880 881 875
f 882 880 874
f 883 882 873
f 881 884 877
f 885 883 876
f 879 886 887
f 888 887 885
f 884 886 879
f 881 880 882
f 884 881 883
f 886 884 885
f 889 890 891
f 901 902 903
f 902 904 903
f 903 904 905
f 904 896 905
f 901 890 902
f 902 891 904
f 905 896 898
f 906 898 900
f 906 900 903
f 903 900 889
f 903 889 901
f 907 908 909
f 907 910 908
f 911 910 907
f 894 895 892
f 892 910 911
f 894 909 908
f 895 908 910
f 893 911 912
f 897 912 907
f 897 907 899
f 899 907 909
f 899 909 894
f 913 914 915
f 916 917 918
f 917 919 918
f 919 920 918
f 920 921 918
f 921 922 918
f 922 923 918
f 923 924 918
f 924 925 918
f 925 926 918
f 926 916 918
f 916 927 917
f 927 928 917
f 917 928 919
f 928 929 919
f 919 929 920
f 929 930 920
f 920 930 921
f 930 931 921
f 921 931 922
f 931 932 922
f 922 932 923
f 932 933 923
f 923 933 924
f 933 934 924
f 924 934 925
f 934 935 925
f 925 935 926
f 935 936 926
f 926 936 916
f 936 927 916
f 927 937 928
f 937 938 928
f 928 938 929
f 938 939 929
f 929 939 930
f 939 940 930
f 930 940 931
f 940 941 931
f 931 941 932
f 941 942 932
f 932 942 933
f 942 943 933
f 933 943 934
f 943 944 934
f 934 944 935
f 944 945 935
f 935 945 936
f 945 946 936
f 936 946 927
f 946 937 927
f 937 947 938
f 947 948 938
f 938 948 939
f 948 949 939
f 939 949 940
f 949 950 940
f 940 950 941
f 950 951 941
f 941 951 942
f 951 952 942
f 942 952 943
f 952 953 943
f 943 953 944
f 953 954 944
f 944 954 945
f 954 955 945
f 945 955 946
f 955 956 946
f 946 956 937
f 956 947 937
f 947 957 948
f 957 958 948
f 948 958 949
f 958 959 949
f 949 959 950
f 959 960 950
f 950 960 951
f 960 961 951
f 951 961 952
f 961 962 952
f 952 962 953
f 962 963 953
f 953 963 954
f 963 964 954
f 954 964 955
f 964 965 955
f 955 965 956
f 965 966 956
f 956 966 947
f 966 957 947
f 957 967 958
f 967 968 958
f 958 968 959
f 968 969 959
f 959 969 960
f 969 970 960
f 960 970 961
f 970 971 961
f 961 971 962
f 971 972 962
f 962 972 963
f 972 973 963
f 963 973 964
f 973 974 964
f 964 974 965
f 974 975 965
f 965 975 966
f 975 976 966
f 966 976 957
f 976 967 957
f 967 977 968
f 977 978 968
f 968 978 969
f 978 979 969
f 969 979 970
f 979 980 970
f 970 980 971
f 980 981 971
f 971 981 972
f 981 982 972
f 972 982 973
f 982 983 973
f 973 983 974
f 983 984 974
f 974 984 975
f 984 985 975
f 975 985 976
f 985 986 976
f 976 986 967
f 986 977 967
f 977 987 978
f 987 988 978
f 978 988 979
f 988 989 979
f 979 989 980
f 989 990 980
f 980 990 981
f 990 991 981
f 981 991 982
f 991 992 982
f 982 992 983
f 992 993 983
f 983 993 984
f 993 994 984
f 984 994 985
f 994 995 985
f 985 995 986
f 995 996 986
f 986 996 977
f 996 987 977
f 987 997 988
f 997 998 988
f 988 998 989
f 998 999 989
f 989 999 990
f 999 1000 990
f 990 1000 991
f 1000 1001 991
f 991 1001 992
f 1001 1002 992
f 992 1002 993
f 1002 1003 993
f 993 1003 994
f 1003 1004 994
f 994 1004 995
f 1004 1005 995
f 995 1005 996
f 1005 1006 996
f 996 1006 987
f 1006 997 987
f 997 1007 998
f 998 1007 999
f 999 1007 1000
f 1000 1007 1001
f 1001 1007 1002
f 1002 1007 1003
f 1003 1007 1004
f 1004 1007 1005
f 1005 1007 1006
f 1006 1007 997
f 1008 1009 1010
f 1009 1011 1010
f 1011 1012 1010
f 1012 1013 1010
f 1013 1014 1010
f 1014 1015 1010
f 1015 1016 1010
f 1016 1017 1010
f 1017 1018 1010
f 1018 1008 1010
f 1008 1019 1009
f 1019 1020 1009
f 1009 1020 1011
f 1020 1021 1011
f 1011 1021 1012
f 1021 1022 1012
f 1012 1022 1013
f 1022 1023 1013
f 1013 1023 1014
f 1023 1024 1014
f 1014 1024 1015
f 1024 1025 1015
f 1015 1025 1016
f 1025 1026 1016
f 1016 1026 1017
f 1026 1027 1017
f 1017 1027 1018
f 1027 1028 1018
f 1018 1028 1008
f 1028 1019 1008
f 1019 1029 1020
f 1029 1030 1020
f 1020 1030 1021
f 1030 1031 1021
f 1021 1031 1022
f 1031 1032 1022
f 1022 1032 1023
f 1032 1033 1023
f 1023 1033 1024
f 1033 1034 1024
f 1024 1034 1025
f 1034 1035 1025
f 1025 1035 1026
f 1035 1036 1026
f 1026 1036 1027
f 1036 1037 1027
f 1027 1037 1028
f 1037 1038 1028
f 1028 1038 1019
f 1038 1029 1019
f 1029 1039 1030
f 1039 1040 1030
f 1030 1040 1031
f 1040 1041 1031
f 1031 1041 1032
f 1041 1042 1032
f 1032 1042 1033
f 1042 1043 1033
f 1033 1043 1034
f 1043 1044 1034
f 1034 1044 1035
f 1044 1045 1035
f 1035 1045 1036
f 1045 1046 1036
f 1036 1046 1037
f 1046 1047 1037
f 1037 1047 1038
f 1047 1048 1038
f 1038 1048 1029
f 1048 1039 1029
f 1039 1049 1040
f 1049 1050 1040
f 1040 1050 1041
f 1050 1051 1041
f 1041 1051 1042
f 1051 1052 1042
f 1042 1052 1043
f 1052 1053 1043
f 1043 1053 1044
f 1053 1054 1044
f 1044 1054 1045
f 1054 1055 1045
f 1045 1055 1046
f 1055 1056 1046
f 1046 1056 1047
f 1056 1057 1047
f 1047 1057 1048
f 1057 1058 1048
f 1048 1058 1039
f 1058 1049 1039
f 1049 1059 1050
f 1059 1060 1050
f 1050 1060 1051
f 1060 1061 1051
f 1051 1061 1052
f 1061 1062 1052
f 1052 1062 1053
f 1062 1063 1053
f 1053 1063 1054
f 1063 1064 1054
f 1054 1064 1055
f 1064 1065 1055
f 1055 1065 1056
f 1065 1066 1056
f 1056 1066 1057
f 1066 1067 1057
f 1057 1067 1058
f 1067 1068 1058
f 1058 1068 1049
f 1068 1059 1049
f 1059 1069 1060
f 1069 1070 1060
f 1060 1070 1061
f 1070 1071 1061
f 1061 1071 1062
f 1071 1072 1062
f 1062 1072 1063
f 1072 1073 1063
f 1063 1073 1064
f 1073 1074 1064
f 1064 1074 1065
f 1074 1075 1065
f 1065 1075 1066
f 1075 1076 1066
f 1066 1076 1067
f 1076 1077 1067
f 1067 1077 1068
f 1077 1078 1068
f 1068 1078 1059
f 1078 1069 1059
f 1069 1079 1070
f 1079 1080 1070
f 1070 1080 1071
f 1080 1081 1071
f 1071 1081 1072
f 1081 1082 1072
f 1072 1082 1073
f 1082 1083 1073
f 1073 1083 1074
f 1083 1084 1074
f 1074 1084 1075
f 1084 1085 1075
f 1075 1085 1076
f 1085 1086 1076
f 1076 1086 1077
f 1086 1087 1077
f 1077 1087 1078
f 1087 1088 1078
f 1078 1088 1069
f 1088 1079 1069
f 1079 1089 1080
f 1089 1090 1080
f 1080 1090 1081
f 1090 1091 1081
f 1081 1091 1082
f 1091 1092 1082
f 1082 1092 1083
f 1092 1093 1083
f 1083 1093 1084
f 1093 1094 1084
f 1084 1094 1085
f 1094 1095 1085
f 1085 1095 1086
f 1095 1096 1086
f 1086 1096 1087
f 1096 1097 1087
f 1087 1097 1088
f 1097 1098 1088
f 1088 1098 1079
f 1098 1089 1079
f 1089 1099 1090
f 1090 1099 1091
f 1091 1099 1092
f 1092 1099 1093
f 1093 1099 1094
f 1094 1099 1095
f 1095 1099 1096
f 1096 1099 1097
f 1097 1099 1098
f 1098 1099 1089
f 1100 1101 1102
f 1101 1103 1102
f 1103 1104 1102
f 1104 1105 1102
f 1105 1106 1102
f 1106 1107 1102
f 1107 1108 1102
f 1108 1109 1102
f 1109 1110 1102
f 1110 1100 1102
f 1100 1111 1101
f 1111 1112 1101
f 1101 1112 1103
f 1112 1113 1103
f 1103 1113 1104
f 1113 1114 1104
f 1104 1114 1105
f 1114 1115 1105
f 1105 1115 1106
f 1115 1116 1106
f 1106 1116 1107
f 1116 1117 1107
f 1107 1117 1108
f 1117 1118 1108
f 1108 1118 1109
f 1118 1119 1109
f 1109 1119 1110
f 1119 1120 1110
f 1110 1120 1100
f 1120 1111 1100
f 1111 1121 1112
f 1121 1122 1112
f 1112 1122 1113
f 1122 1123 1113
f 1113 1123 1114
f 1123 1124 1114
f 1114 1124 1115
f 1124 1125 1115
f 1115 1125 1116
f 1125 1126 1116
f 1116 1126 1117
f 1126 1127 1117
f 1117 1127 1118
f 1127 1128 1118
f 1118 1128 1119
f 1128 1129 1119
f 1119 1129 1120
f 1129 1130 1120
f 1120 1130 1111
f 1130 1121 1111
f 1121 1131 1122
f 1131 1132 1122
f 1122 1132 1123
f 1132 1133 1123
f 1123 1133 1124
f 1133 1134 1124
f 1124 1134 1125
f 1134 1135 1125
f 1125 1135 1126
f 1135 1136 1126
f 1126 1136 1127
f 1136 1137 1127
f 1127 1137 1128
f 1137 1138 1128
f 1128 1138 1129
f 1138 1139 1129
f 1129 1139 1130
f 1139 1140 1130
f 1130 1140 1121
f 1140 1131 1121
f 1131 1141 1132
f 1141 1142 1132
f 1132 1142 1133
f 1142 1143 1133
f 1133 1143 1134
f 1143 1144 1134
f 1134 1144 1135
f 1144 1145 1135
f 1135 1145 1136
f 1145 1146 1136
f 1136 1146 1137
f 1146 1147 1137
f 1137 1147 1138
f 1147 1148 1138
f 1138 1148 1139
f 1148 1149 1139
f 1139 1149 1140
f 1149 1150 1140
f 1140 1150 1131
f 1150 1141 1131
f 1141 1151 1142
f 1151 1152 1142
f 1142 1152 1143
f 1152 1153 1143
f 1143 1153 1144
f 1153 1154 1144
f 1144 1154 1145
f 1154 1155 1145
f 1145 1155 1146
f 1155 1156 1146
f 1146 1156 1147
f 1156 1157 1147
f 1147 1157 1148
f 1157 1158 1148
f 1148 1158 1149
f 1158 1159 1149
f 1149 1159 1150
f 1159 1160 1150
f 1150 1160 1141
f 1160 1151 1141
f 1151 1161 1152
f 1161 1162 1152
f 1152 1162 1153
f 1162 1163 1153
f 1153 1163 1154
f 1163 1164 1154
f 1154 1164 1155
f 1164 1165 1155
f 1155 1165 1156
f 1165 1166 1156
f 1156 1166 1157
f 1166 1167 1157
f 1157 1167 1158
f 1167 1168 1158
f 1158 1168 1159
f 1168 1169 1159
f 1159 1169 1160
f 1169 1170 1160
f 1160 1170 1151
f 1170 1161 1151
f 1161 1171 1162
f 1171 1172 1162
f 1162 1172 1163
f 1172 1173 1163
f 1163 1173 1164
f 1173 1174 1164
f 1164 1174 1165
f 1174 1175 1165
f 1165 1175 1166
f 1175 1176 1166
f 1166 1176 1167
f 1176 1177 1167
f 1167 1177 1168
f 1177 1178 1168
f 1168 1178 1169
f 1178 1179 1169
f 1169 1179 1170
f 1179 1180 1170
f 1170 1180 1161
f 1180 1171 1161
f 1171 1181 1172
f 1181 1182 1172
f 1172 1182 1173
f 1182 1183 1173
f 1173 1183 1174
f 1183 1184 1174
f 1174 1184 1175
f 1184 1185 1175
f 1175 1185 1176
f 1185 1186 1176
f 1176 1186 1177
f 1186 1187 1177
f 1177 1187 1178
f 1187 1188 1178
f 1178 1188 1179
f 1188 1189 1179
f 1179 1189 1180
f 1189 1190 1180
f 1180 1190 1171
f 1190 1181 1171
f 1181 1191 1182
f 1182 1191 1183
f 1183 1191 1184
f 1184 1191 1185
f 1185 1191 1186
f 1186 1191 1187
f 1187 1191 1188
f 1188 1191 1189
f 1189 1191 1190
f 1190 1191 1181
f 1192 1193 1194
f 1193 1195 1194
f 1195 1196 1194
f 1196 1197 1194
f 1197 1198 1194
f 1198 1199 1194
f 1199 1200 1194
f 1200 1201 1194
f 1201 1202 1194
f 1202 1192 1194
f 1192 1203 1193
f 1203 1204 1193
f 1193 1204 1195
f 1204 1205 1195
f 1195 1205 1196
f 1205 1206 1196
f 1196 1206 1197
f 1206 1207 1197
f 1197 1207 1198
f 1207 1208 1198
f 1198 1208 1199
f 1208 1209 1199
f 1199 1209 1200
f 1209 1210 1200
f 1200 1210 1201
f 1210 1211 1201
f 1201 1211 1202
f 1211 1212 1202
f 1202 1212 1192
f 1212 1203 1192
f 1203 1213 1204
f 1213 1214 1204
f 1204 1214 1205
f 1214 1215 1205
f 1205 1215 1206
f 1215 1216 1206
f 1206 1216 1207
f 1216 1217 1207
f 1207 1217 1208
f 1217 1218 1208
f 1208 1218 1209
f 1218 1219 1209
f 1209 1219 1210
f 1219 1220 1210
f 1210 1220 1211
f 1220 1221 1211
f 1211 1221 1212
f 1221 1222 1212
f 1212 1222 1203
f 1222 1213 1203
f 1213 1223 1214
f 1223 1224 1214
f 1214 1224 1215
f 1224 1225 1215
f 1215 1225 1216
f 1225 1226 1216
f 1216 1226 1217
f 1226 1227 1217
f 1217 1227 1218
f 1227 1228 1218
f 1218 1228 1219
f 1228 1229 1219
f 1219 1229 1220
f 1229 1230 1220
f 1220 1230 1221
f 1230 1231 1221
f 1221 1231 1222
f 1231 1232 1222
f 1222 1232 1213
f 1232 1223 1213
f 1223 1233 1224
f 1233 1234 1224
f 1224 1234 1225
f 1234 1235 1225
f 1225 1235 1226
f 1235 1236 1226
f 1226 1236 1227
f 1236 1237 1227
f 1227 1237 1228
f 1237 1238 1228
f 1228 1238 1229
f 1238 1239 1229
f 1229 1239 1230
f 1239 1240 1230
f 1230 1240 1231
f 1240 1241 1231
f 1231 1241 1232
f 1241 1242 1232
f 1232 1242 1223
f 1242 1233 1223
f 1233 1243 1234
f 1243 1244 1234
f 1234 1244 1235
f 1244 1245 1235
f 1235 1245 1236
f 1245 1246 1236
f 1236 1246 1237
f 1246 1247 1237
f 1237 1247 1238
f 1247 1248 1238
f 1238 1248 1239
f 1248 1249 1239
f 1239 1249 1240
f 1249 1250 1240
f 1240 1250 1241
f 1250 1251 1241
f 1241 1251 1242
f 1251 1252 1242
f 1242 1252 1233
f 1252 1243 1233
f 1243 1253 1244
f 1253 1254 1244
f 1244 1254 1245
f 1254 1255 1245
f 1245 1255 1246
f 1255 1256 1246
f 1246 1256 1247
f 1256 1257 1247
f 1247 1257 1248
f 1257 1258 1248
f 1248 1258 1249
f 1258 1259 1249
f 1249 1259 1250
f 1259 1260 1250
f 1250 1260 1251
f 1260 1261 1251
f 1251 1261 1252
f 1261 1262 1252
f 1252 1262 1243
f 1262 1253 1243
f 1253 1263 1254
f 1263 1264 1254
f 1254 1264 1255
f 1264 1265 1255
f 1255 1265 1256
f 1265 1266 1256
f 1256 1266 1257
f 1266 1267 1257
f 1257 1267 1258
f 1267 1268 1258
f 1258 1268 1259
f 1268 1269 1259
f 1259 1269 1260
f 1269 1270 1260
f 1260 1270 1261
f 1270 1271 1261
f 1261 1271 1262
f 1271 1272 1262
f 1262 1272 1253
f 1272 1263 1253
f 1263 1273 1264
f 1273 1274 1264
f 1264 1274 1265
f 1274 1275 1265
f 1265 1275 1266
f 1275 1276 1266
f 1266 1276 1267
f 1276 1277 1267
f 1267 1277 1268
f 1277 1278 1268
f 1268 1278 1269
f 1278 1279 1269
f 1269 1279 1270
f 1279 1280 1270
f 1270 1280 1271
f 1280 1281 1271
f 1271 1281 1272
f 1281 1282 1272
f 1272 1282 1263
f 1282 1273 1263
f 1273 1283 1274
f 1274 1283 1275
f 1275 1283 1276
f 1276 1283 1277
f 1277 1283 1278
f 1278 1283 1279
f 1279 1283 1280
f 1280 1283 1281
f 1281 1283 1282
f 1282 1283 1273
f 1284 1285 1286
f 1285 1287 1286
f 1287 1288 1286
f 1288 1289 1286
f 1289 1290 1286
f 1290 1291 1286
f 1291 1292 1286
f 1292 1293 1286
f 1293 1294 1286
f 1294 1284 1286
f 1284 1295 1285
f 1295 1296 1285
f 1285 1296 1287
f 1296 1297 1287
f 1287 1297 1288
f 1297 1298 1288
f 1288 1298 1289
f 1298 1299 1289
f 1289 1299 1290
f 1299 1300 1290
f 1290 1300 1291
f 1300 1301 1291
f 1291 1301 1292
f 1301 1302 1292
f 1292 1302 1293
f 1302 1303 1293
f 1293 1303 1294
f 1303 1304 1294
f 1294 1304 1284
f 1304 1295 1284
f 1295 1305 1296
f 1305 1306 1296
f 1296 1306 1297
f 1306 1307 1297
f 1297 1307 1298
f 1307 1308 1298
f 1298 1308 1299
f 1308 1309 1299
f 1299 1309 1300
f 1309 1310 1300
f 1300 1310 1301
f 1310 1311 1301
f 1301 1311 1302
f 1311 1312 1302
f 1302 1312 1303
f 1312 1313 1303
f 1303 1313 1304
f 1313 1314 1304
f 1304 1314 1295
f 1314 1305 1295
f 1305 1315 1306
f 1315 1316 1306
f 1306 1316 1307
f 1316 1317 1307
f 1307 1317 1308
f 1317 1318 1308
f 1308 1318 1309
f 1318 1319 1309
f 1309 1319 1310
f 1319 1320 1310
f 1310 1320 1311
f 1320 1321 1311
f 1311 1321 1312
f 1321 1322 1312
f 1312 1322 1313
f 1322 1323 1313
f 1313 1323 1314
f 1323 1324 1314
f 1314 1324 1305
f 1324 1315 1305
f 1315 1325 1316
f 1325 1326 1316
f 1316 1326 1317
f 1326 1327 1317
f 1317 1327 1318
f 1327 1328 1318
f 1318 1328 1319
f 1328 1329 1319
f 1319 1329 1320
f 1329 1330 1320
f 1320 1330 1321
f 1330 1331 1321
f 1321 1331 1322
f 1331 1332 1322
f 1322 1332 1323
f 1332 1333 1323
f 1323 1333 1324
f 1333 1334 1324
f 1324 1334 1315
f 1334 1325 1315
f 1325 1335 1326
f 1335 1336 1326
f 1326 1336 1327
f 1336 1337 1327
f 1327 1337 1328
f 1337 1338 1328
f 1328 1338 1329
f 1338 1339 1329
f 1329 1339 1330
f 1339 1340 1330
f 1330 1340 1331
f 1340 1341 1331
f 1331 1341 1332
f 1341 1342 1332
f 1332 1342 1333
f 1342 1343 1333
f 1333 1343 1334
f 1343 1344 1334
f 1334 1344 1325
f 1344 1335 1325
f 1335 1345 1336
f 1345 1346 1336
f 1336 1346 1337
f 1346 1347 1337
f 1337 1347 1338
f 1347 1348 1338
f 1338 1348 1339
f 1348 1349 1339
f 1339 1349 1340
f 1349 1350 1340
f 1340 1350 1341
f 1350 1351 1341
f 1341 1351 1342
f 1351 1352 1342
f 1342 1352 1343
f 1352 1353 1343
f 1343 1353 1344
f 1353 1354 1344
f 1344 1354 1335
f 1354 1345 1335
f 1345 1355 1346
f 1355 1356 1346
f 1346 1356 1347
f 1356 1357 1347
f 1347 1357 1348
f 1357 1358 1348
f 1348 1358 1349
f 1358 1359 1349
f 1349 1359 1350
f 1359 1360 1350
f 1350 1360 1351
f 1360 1361 1351
f 1351 1361 1352
f 1361 1362 1352
f 1352 1362 1353
f 1362 1363 1353
f 1353 1363 1354
f 1363 1364 1354
f 1354 1364 1345
f 1364 1355 1345
f 1355 1365 1356
f 1365 1366 1356
f 1356 1366 1357
f 1366 1367 1357
f 1357 1367 1358
f 1367 1368 1358
f 1358 1368 1359
f 1368 1369 1359
f 1359 1369 1360
f 1369 1370 1360
f 1360 1370 1361
f 1370 1371 1361
f 1361 1371 1362
f 1371 1372 1362
f 1362 1372 1363
f 1372 1373 1363
f 1363 1373 1364
f 1373 1374 1364
f 1364 1374 1355
f 1374 1365 1355
f 1365 1375 1366
f 1366 1375 1367
f 1367 1375 1368
f 1368 1375 1369
f 1369 1375 1370
f 1370 1375 1371
f 1371 1375 1372
f 1372 1375 1373
f 1373 1375 1374
f 1374 1375 1365
f 1376 1377 1378
f 1379 1378 1377
f 1376 1380 1377
f 1379 1377 1380
f 1376 1381 1380
f 1379 1380 1381
f 1376 1382 1381
f 1379 1381 1382
f 1376 1383 1382
f 1379 1382 1383
f 1376 1384 1383
f 1379 1383 1384
f 1376 1385 1384
f 1379 1384 1385
f 1376 1386 1385
f 1379 1385 1386
f 1376 1387 1386
f 1379 1386 1387
f 1376 1378 1387
f 1379 1387 1378
f 1388 1389 1390
f 1389 1391 1390
f 1391 1392 1390
f 1392 1393 1390
f 1393 1394 1390
f 1394 1395 1390
f 1395 1396 1390
f 1396 1397 1390
f 1397 1398 1390
f 1398 1388 1390
f 1388 1399 1389
f 1399 1400 1389
f 1389 1400 1391
f 1400 1401 1391
f 1391 1401 1392
f 1401 1402 1392
f 1392 1402 1393
f 1402 1403 1393
f 1393 1403 1394
f 1403 1404 1394
f 1394 1404 1395
f 1404 1405 1395
f 1395 1405 1396
f 1405 1406 1396
f 1396 1406 1397
f 1406 1407 1397
f 1397 1407 1398
f 1407 1408 1398
f 1398 1408 1388
f 1408 1399 1388
f 1399 1409 1400
f 1409 1410 1400
f 1400 1410 1401
f 1410 1411 1401
f 1401 1411 1402
f 1411 1412 1402
f 1402 1412 1403
f 1412 1413 1403
f 1403 1413 1404
f 1413 1414 1404
f 1404 1414 1405
f 1414 1415 1405
f 1405 1415 1406
f 1415 1416 1406
f 1406 1416 1407
f 1416 1417 1407
f 1407 1417 1408
f 1417 1418 1408
f 1408 1418 1399
f 1418 1409 1399
f 1409 1419 1410
f 1419 1420 1410
f 1410 1420 1411
f 1420 1421 1411
f 1411 1421 1412
f 1421 1422 1412
f 1412 1422 1413
f 1422 1423 1413
f 1413 1423 1414
f 1423 1424 1414
f 1414 1424 1415
f 1424 1425 1415
f 1415 1425 1416
f 1425 1426 1416
f 1416 1426 1417
f 1426 1427 1417
f 1417 1427 1418
f 1427 1428 1418
f 1418 1428 1409
f 1428 1419 1409
f 1419 1429 1420
f 1429 1430 1420
f 1420 1430 1421
f 1430 1431 1421
f 1421 1431 1422
f 1431 1432 1422
f 1422 1432 1423
f 1432 1433 1423
f 1423 1433 1424
f 1433 1434 1424
f 1424 1434 1425
f 1434 1435 1425
f 1425 1435 1426
f 1435 1436 1426
f 1426 1436 1427
f 1436 1437 1427
f 1427 1437 1428
f 1437 1438 1428
f 1428 1438 1419
f 1438 1429 1419
f 1429 1439 1430
f 1439 1440 1430
f 1430 1440 1431
f 1440 1441 1431
f 1431 1441 1432
f 1441 1442 1432
f 1432 1442 1433
f 1442 1443 1433
f 1433 1443 1434
f 1443 1444 1434
f 1434 1444 1435
f 1444 1445 1435
f 1435 1445 1436
f 1445 1446 1436
f 1436 1446 1437
f 1446 1447 1437
f 1437 1447 1438
f 1447 1448 1438
f 1438 1448 1429
f 1448 1439 1429
f 1439 1449 1440
f 1449 1450 1440
f 1440 1450 1441
f 1450 1451 1441
f 1441 1451 1442
f 1451 1452 1442
f 1442 1452 1443
f 1452 1453 1443
f 1443 1453 1444
f 1453 1454 1444
f 1444 1454 1445
f 1454 1455 1445
f 1445 1455 1446
f 1455 1456 1446
f 1446 1456 1447
f 1456 1457 1447
f 1447 1457 1448
f 1457 1458 1448
f 1448 1458 1439
f 1458 1449 1439
f 1449 1459 1450
f 1459 1460 1450
f 1450 1460 1451
f 1460 1461 1451
f 1451 1461 1452
f 1461 1462 1452
f 1452 1462 1453
f 1462 1463 1453
f 1453 1463 1454
f 1463 1464 1454
f 1454 1464 1455
f 1464 1465 1455
f 1455 1465 1456
f 1465 1466 1456
f 1456 1466 1457
f 1466 1467 1457
f 1457 1467 1458
f 1467 1468 1458
f 1458 1468 1449
f 1468 1459 1449
f 1459 1469 1460
f 1469 1470 1460
f 1460 1470 1461
f 1470 1471 1461
f 1461 1471 1462
f 1471 1472 1462
f 1462 1472 1463
f 1472 1473 1463
f 1463 1473 1464
f 1473 1474 1464
f 1464 1474 1465
f 1474 1475 1465
f 1465 1475 1466
f 1475 1476 1466
f 1466 1476 1467
f 1476 1477 1467
f 1467 1477 1468
f 1477 1478 1468
f 1468 1478 1459
f 1478 1469 1459
f 1469 1479 1470
f 1470 1479 1471
f 1471 1479 1472
f 1472 1479 1473
f 1473 1479 1474
f 1474 1479 1475
f 1475 1479 1476
f 1476 1479 1477
f 1477 1479 1478
f 1478 1479 1469
f 181 183 1480
f 181 1480 1481
f 181 1481 1482
f 181 1482 1483
f 181 1483 1484
f 181 1484 1485
f 181 1485 1486
f 181 1486 1487
f 181 1487 1488
f 181 1488 1489
f 181 1489 1490
f 181 1490 1491
f 181 1491 1492
f 181 1492 1493
f 181 1493 1494
f 220 222 1495
f 220 1495 1496
f 220 1496 1497
f 220 1497 1498
f 220 1498 1499
f 220 1499 1500
f 220 1500 1501
f 220 1501 1502
f 220 1502 1503
f 220 1503 1504
f 220 1504 1505
f 220 1505 1506
f 220 1506 1507
f 220 1507 1508
f 220 1508 1509
f 224 227 225
f 226 230 228
f 231 234 232
f 235 238 236
f 239 241 238
f 243 245 242
f 244 248 246
f 249 252 250
f 253 256 254
f 257 258 256
f 340 343 341
f 341 355 356
f 370 373 371
f 386 389 387
f 390 393 391
f 395 397 394
f 401 383 418
f 402 388 386
f 404 392 390
f 406 396 395
f 408 399 396
f 410 403 402
f 412 405 404
f 414 407 406
f 488 490 492
f 496 495 497
f 564 566 643
f 564 643 642
f 564 642 641
f 564 641 640
f 564 640 639
f 564 639 659
f 564 659 658
f 564 658 657
f 564 657 656
f 564 656 655
f 564 655 654
f 564 654 653
f 564 653 652
f 564 652 651
f 564 651 650
f 564 650 649
f 564 649 648
f 564 648 647
f 564 647 646
f 564 646 645
f 564 645 644
f 567 569 1510
f 567 453 1511
f 567 1511 1512
f 567 1512 1513
f 567 1513 445
f 567 445 1514
f 567 1514 441
f 567 441 439
f 567 439 1515
f 567 1515 435
f 567 435 1516
f 567 1516 431
f 567 431 1517
f 567 1517 427
f 567 427 425
f 567 425 1518
f 567 1518 420
f 567 420 1519
f 567 1519 1520
f 567 1520 1521
f 567 1521 461
f 567 461 1522
f 567 1522 1523
f 567 1510 569
f 567 572 574
f 567 574 576
f 567 576 578
f 567 578 580
f 567 580 582
f 567 582 584
f 567 584 586
f 567 586 588
f 567 588 590
f 567 590 592
f 567 592 594
f 567 594 596
f 567 596 598
f 567 598 600
f 567 600 602
f 567 602 604
f 567 604 606
f 567 606 608
f 567 608 610
f 567 610 612
f 663 665 661
f 673 676 674
f 677 679 676
f 680 682 679
f 690 693 691
f 696 699 697
f 700 702 699
f 703 705 702
f 707 667 664
f 718 690 688
f 547 545 544
f 547 544 543
f 547 543 542
f 547 542 540
f 547 540 541
f 547 541 563
f 547 563 562
f 547 562 561
f 547 561 560
f 547 560 559
f 547 559 558
f 547 558 557
f 547 557 556
f 547 556 555
f 547 555 554
f 547 554 553
f 547 553 552
f 547 552 551
f 547 551 550
f 547 550 549
f 547 549 548
f 728 730 1524
f 728 1524 1525
f 728 1525 1526
f 728 1526 1527
f 728 1527 1528
f 728 1528 1529
f 728 1529 1530
f 728 1530 1531
f 728 1531 1532
f 728 1532 1533
f 728 1533 1534
f 728 1534 1535
f 728 1535 1536
f 728 1536 1537
f 728 1537 1538
f 728 1538 1539
f 735 738 736
f 737 740 738
f 739 742 740
f 746 748 745
f 749 751 748
f 750 753 751
f 756 758 755
f 757 760 758
f 761 733 760
f 784 788 781
f 781 792 797
f 781 797 796
f 782 790 783
f 783 795 793
f 790 788 787
f 795 784 794
f 795 794 800
f 794 781 791
f 796 798 799
f 799 791 796
f 797 793 798
f 801 803 808
f 806 808 803
f 809 803 805
f 810 805 804
f 811 804 802
f 812 802 801
f 807 801 808
f 807 811 812
f 816 820 813
f 813 824 829
f 813 829 828
f 813 828 823
f 814 822 815
f 815 827 825
f 822 820 819
f 827 816 826
f 826 813 823
f 828 830 831
f 831 823 828
f 829 825 830
f 833 835 836
f 836 837 838
f 838 839 848
f 840 835 834
f 842 834 833
f 843 833 836
f 841 837 835
f 845 836 838
f 839 847 848
f 848 845 838
f 844 839 837
f 841 842 843
f 844 843 845
f 846 845 847
f 849 851 856
f 849 856 858
f 859 853 852
f 859 852 855
f 859 855 854
f 863 865 866
f 865 858 866
f 860 856 851
f 860 851 850
f 860 850 849
f 854 852 853
f 854 853 857
f 853 872 857
f 873 875 876
f 876 877 878
f 878 879 888
f 880 875 874
f 882 874 873
f 883 873 876
f 881 877 875
f 885 876 878
f 879 887 888
f 888 885 878
f 884 879 877
f 881 882 883
f 884 883 885
f 886 885 887
f 889 891 896
f 889 896 898
f 898 899 900
f 899 893 892
f 899 892 895
f 899 895 894
f 903 905 906
f 905 898 906
f 900 896 891
f 900 891 890
f 900 890 889
f 911 907 912
f 894 892 893
f 894 893 897
f 893 912 897
f 913 915 1540
f 913 1540 1541
f 913 1541 1542
f 913 1542 1543
f 913 1543 1544
f 913 1544 1545
f 913 1545 1546
f 913 1546 1547
f 913 1547 1548
f 913 1548 1549
f 913 1549 1550
f 913 1550 1551
f 913 1551 1552
f 913 1552 1553
f 913 1553 1554
f 913 1554 1555
f 913 1555 1556
f 913 1556 1557
f 913 1557 1558
