# Original shape: m1116.obj
# No processing applied - exact copy of source file
# Generated on 2025-10-03 23:26:24

v 0.063880 0.908774 0.066582
v 0.063993 0.952757 0.068011
v 0.063993 0.908774 0.068011
v 0.063880 0.952757 0.066582
v 0.054970 0.952757 0.069440
v 0.054746 0.952757 0.066582
v 0.054970 0.957587 0.069440
v 0.054746 0.957587 0.066582
v 0.058632 0.959341 0.068860
v 0.058453 0.959341 0.066582
v 0.062588 0.960375 0.068233
v 0.062459 0.960375 0.066582
v 0.066244 0.960773 0.067654
v 0.066159 0.960773 0.066582
v 0.070759 0.961012 0.066939
v 0.070731 0.961012 0.066582
v 0.071041 0.957873 0.066894
v 0.071016 0.957873 0.066582
v 0.073014 0.955874 0.066582
v 0.064327 0.952757 0.069404
v 0.064327 0.908774 0.069404
v 0.055640 0.952757 0.072227
v 0.055640 0.957587 0.072227
v 0.059166 0.959341 0.071082
v 0.062975 0.960375 0.069844
v 0.066495 0.960773 0.068700
v 0.070843 0.961012 0.067287
v 0.071114 0.957873 0.067199
v 0.064876 0.952757 0.070729
v 0.064876 0.908774 0.070729
v 0.056737 0.952757 0.074876
v 0.056737 0.957587 0.074876
v 0.060040 0.959341 0.073193
v 0.063609 0.960375 0.071374
v 0.066907 0.960773 0.069694
v 0.070980 0.961012 0.067618
v 0.071234 0.957873 0.067489
v 0.065625 0.952757 0.071951
v 0.065625 0.908774 0.071951
v 0.058235 0.952757 0.077320
v 0.058235 0.957587 0.077320
v 0.061234 0.959341 0.075141
v 0.064475 0.960375 0.072787
v 0.067469 0.960773 0.070611
v 0.071167 0.961012 0.067924
v 0.071398 0.957873 0.067756
v 0.066556 0.952757 0.073041
v 0.066556 0.908774 0.073041
v 0.060096 0.952757 0.079500
v 0.060096 0.957587 0.079500
v 0.062718 0.959341 0.076879
v 0.065550 0.960375 0.074046
v 0.068167 0.960773 0.071429
v 0.071400 0.961012 0.068197
v 0.071602 0.957873 0.067995
v 0.067646 0.952757 0.073972
v 0.067646 0.908774 0.073972
v 0.062276 0.952757 0.081362
v 0.062276 0.957587 0.081362
v 0.064455 0.959341 0.078362
v 0.066810 0.960375 0.075122
v 0.068985 0.960773 0.072128
v 0.071672 0.961012 0.068429
v 0.071840 0.957873 0.068198
v 0.068868 0.952757 0.074721
v 0.068868 0.908774 0.074721
v 0.064721 0.952757 0.082860
v 0.064721 0.957587 0.082860
v 0.066404 0.959341 0.079556
v 0.068222 0.960375 0.075987
v 0.069903 0.960773 0.072690
v 0.071978 0.961012 0.068616
v 0.072108 0.957873 0.068362
v 0.070192 0.952757 0.075269
v 0.070192 0.908774 0.075269
v 0.067369 0.952757 0.083957
v 0.067369 0.957587 0.083957
v 0.068515 0.959341 0.080431
v 0.069753 0.960375 0.076621
v 0.070896 0.960773 0.073101
v 0.072309 0.961012 0.068754
v 0.072397 0.957873 0.068482
v 0.071586 0.952757 0.075604
v 0.071586 0.908774 0.075604
v 0.070157 0.952757 0.084626
v 0.070157 0.957587 0.084626
v 0.070737 0.959341 0.080964
v 0.071363 0.960375 0.077008
v 0.071942 0.960773 0.073353
v 0.072657 0.961012 0.068837
v 0.072702 0.957873 0.068555
v 0.073014 0.952757 0.075716
v 0.073014 0.908774 0.075716
v 0.073014 0.952757 0.084851
v 0.073014 0.957587 0.084851
v 0.073014 0.959341 0.081143
v 0.073014 0.960375 0.077138
v 0.073014 0.960773 0.073437
v 0.073014 0.961012 0.068865
v 0.073014 0.957873 0.068580
v 0.074443 0.952757 0.075604
v 0.074443 0.908774 0.075604
v 0.075872 0.952757 0.084626
v 0.075872 0.957587 0.084626
v 0.075292 0.959341 0.080964
v 0.074666 0.960375 0.077008
v 0.074087 0.960773 0.073353
v 0.073372 0.961012 0.068837
v 0.073327 0.957873 0.068555
v 0.075837 0.952757 0.075269
v 0.075837 0.908774 0.075269
v 0.078660 0.952757 0.083957
v 0.078660 0.957587 0.083957
v 0.077514 0.959341 0.080431
v 0.076276 0.960375 0.076621
v 0.075133 0.960773 0.073101
v 0.073720 0.961012 0.068754
v 0.073632 0.957873 0.068482
v 0.077161 0.952757 0.074721
v 0.077161 0.908774 0.074721
v 0.081309 0.952757 0.082860
v 0.081309 0.957587 0.082860
v 0.079625 0.959341 0.079556
v 0.077807 0.960375 0.075987
v 0.076127 0.960773 0.072690
v 0.074051 0.961012 0.068616
v 0.073922 0.957873 0.068362
v 0.078383 0.952757 0.073972
v 0.078383 0.908774 0.073972
v 0.083753 0.952757 0.081362
v 0.083753 0.957587 0.081362
v 0.081574 0.959341 0.078362
v 0.079219 0.960375 0.075122
v 0.077044 0.960773 0.072128
v 0.074357 0.961012 0.068429
v 0.074189 0.957873 0.068198
v 0.079474 0.952757 0.073041
v 0.079474 0.908774 0.073041
v 0.085933 0.952757 0.079500
v 0.085933 0.957587 0.079500
v 0.083311 0.959341 0.076879
v 0.080479 0.960375 0.074046
v 0.077862 0.960773 0.071429
v 0.074629 0.961012 0.068197
v 0.074427 0.957873 0.067995
v 0.080404 0.952757 0.071951
v 0.080404 0.908774 0.071951
v 0.087794 0.952757 0.077320
v 0.087794 0.957587 0.077320
v 0.084795 0.959341 0.075141
v 0.081555 0.960375 0.072787
v 0.078560 0.960773 0.070611
v 0.074862 0.961012 0.067924
v 0.074631 0.957873 0.067756
v 0.081153 0.952757 0.070729
v 0.081153 0.908774 0.070729
v 0.089292 0.952757 0.074876
v 0.089292 0.957587 0.074876
v 0.085989 0.959341 0.073193
v 0.082420 0.960375 0.071374
v 0.079122 0.960773 0.069694
v 0.075049 0.961012 0.067618
v 0.074795 0.957873 0.067489
v 0.081702 0.952757 0.069404
v 0.081702 0.908774 0.069404
v 0.090389 0.952757 0.072227
v 0.090389 0.957587 0.072227
v 0.086863 0.959341 0.071082
v 0.083054 0.960375 0.069844
v 0.079534 0.960773 0.068700
v 0.075186 0.961012 0.067287
v 0.074915 0.957873 0.067199
v 0.082036 0.952757 0.068011
v 0.082036 0.908774 0.068011
v 0.091059 0.952757 0.069440
v 0.091059 0.957587 0.069440
v 0.087397 0.959341 0.068860
v 0.083441 0.960375 0.068233
v 0.079785 0.960773 0.067654
v 0.075270 0.961012 0.066939
v 0.074988 0.957873 0.066894
v 0.082149 0.952757 0.066582
v 0.082149 0.908774 0.066582
v 0.091284 0.952757 0.066582
v 0.091284 0.957587 0.066582
v 0.087576 0.959341 0.066582
v 0.083571 0.960375 0.066582
v 0.079870 0.960773 0.066582
v 0.075298 0.961012 0.066582
v 0.075013 0.957873 0.066582
v 0.082036 0.952757 0.065153
v 0.082036 0.908774 0.065153
v 0.091059 0.952757 0.063724
v 0.091059 0.957587 0.063724
v 0.087397 0.959341 0.064304
v 0.083441 0.960375 0.064931
v 0.079785 0.960773 0.065510
v 0.075270 0.961012 0.066225
v 0.074988 0.957873 0.066269
v 0.081702 0.952757 0.063759
v 0.081702 0.908774 0.063759
v 0.090389 0.952757 0.060936
v 0.090389 0.957587 0.060936
v 0.086863 0.959341 0.062082
v 0.083054 0.960375 0.063320
v 0.079534 0.960773 0.064464
v 0.075186 0.961012 0.065876
v 0.074915 0.957873 0.065964
v 0.081153 0.952757 0.062435
v 0.081153 0.908774 0.062435
v 0.089292 0.952757 0.058288
v 0.089292 0.957587 0.058288
v 0.085989 0.959341 0.059971
v 0.082420 0.960375 0.061790
v 0.079122 0.960773 0.063470
v 0.075049 0.961012 0.065545
v 0.074795 0.957873 0.065675
v 0.080404 0.952757 0.061213
v 0.080404 0.908774 0.061213
v 0.087794 0.952757 0.055844
v 0.087794 0.957587 0.055844
v 0.084795 0.959341 0.058023
v 0.081555 0.960375 0.060377
v 0.078560 0.960773 0.062553
v 0.074862 0.961012 0.065240
v 0.074631 0.957873 0.065407
v 0.079474 0.952757 0.060123
v 0.079474 0.908774 0.060123
v 0.085933 0.952757 0.053664
v 0.085933 0.957587 0.053664
v 0.083311 0.959341 0.056285
v 0.080479 0.960375 0.059118
v 0.077862 0.960773 0.061735
v 0.074629 0.961012 0.064967
v 0.074427 0.957873 0.065169
v 0.078383 0.952757 0.059192
v 0.078383 0.908774 0.059192
v 0.083753 0.952757 0.051802
v 0.083753 0.957587 0.051802
v 0.081574 0.959341 0.054801
v 0.079219 0.960375 0.058042
v 0.077044 0.960773 0.061036
v 0.074357 0.961012 0.064734
v 0.074189 0.957873 0.064965
v 0.077161 0.952757 0.058443
v 0.077161 0.908774 0.058443
v 0.081309 0.952757 0.050304
v 0.081309 0.957587 0.050304
v 0.079625 0.959341 0.053607
v 0.077807 0.960375 0.057176
v 0.076127 0.960773 0.060474
v 0.074051 0.961012 0.064547
v 0.073922 0.957873 0.064801
v 0.075837 0.952757 0.057895
v 0.075837 0.908774 0.057895
v 0.078660 0.952757 0.049207
v 0.078660 0.957587 0.049207
v 0.077514 0.959341 0.052733
v 0.076276 0.960375 0.056542
v 0.075133 0.960773 0.060062
v 0.073720 0.961012 0.064410
v 0.073632 0.957873 0.064682
v 0.074443 0.952757 0.057560
v 0.074443 0.908774 0.057560
v 0.075872 0.952757 0.048538
v 0.075872 0.957587 0.048538
v 0.075292 0.959341 0.052200
v 0.074666 0.960375 0.056156
v 0.074087 0.960773 0.059811
v 0.073372 0.961012 0.064326
v 0.073327 0.957873 0.064608
v 0.073014 0.952757 0.057447
v 0.073014 0.908774 0.057447
v 0.073014 0.952757 0.048313
v 0.073014 0.957587 0.048313
v 0.073014 0.959341 0.052020
v 0.073014 0.960375 0.056026
v 0.073014 0.960773 0.059727
v 0.073014 0.961012 0.064298
v 0.073014 0.957873 0.064584
v 0.071586 0.952757 0.057560
v 0.071586 0.908774 0.057560
v 0.070157 0.952757 0.048538
v 0.070157 0.957587 0.048538
v 0.070737 0.959341 0.052200
v 0.071363 0.960375 0.056156
v 0.071942 0.960773 0.059811
v 0.072657 0.961012 0.064326
v 0.072702 0.957873 0.064608
v 0.070192 0.952757 0.057895
v 0.070192 0.908774 0.057895
v 0.067369 0.952757 0.049207
v 0.067369 0.957587 0.049207
v 0.068515 0.959341 0.052733
v 0.069753 0.960375 0.056542
v 0.070896 0.960773 0.060062
v 0.072309 0.961012 0.064410
v 0.072397 0.957873 0.064682
v 0.068868 0.952757 0.058443
v 0.068868 0.908774 0.058443
v 0.064721 0.952757 0.050304
v 0.064721 0.957587 0.050304
v 0.066404 0.959341 0.053607
v 0.068222 0.960375 0.057176
v 0.069903 0.960773 0.060474
v 0.071978 0.961012 0.064547
v 0.072108 0.957873 0.064801
v 0.067646 0.952757 0.059192
v 0.067646 0.908774 0.059192
v 0.062276 0.952757 0.051802
v 0.062276 0.957587 0.051802
v 0.064455 0.959341 0.054801
v 0.066810 0.960375 0.058042
v 0.068985 0.960773 0.061036
v 0.071672 0.961012 0.064734
v 0.071840 0.957873 0.064965
v 0.066556 0.952757 0.060123
v 0.066556 0.908774 0.060123
v 0.060096 0.952757 0.053664
v 0.060096 0.957587 0.053664
v 0.062718 0.959341 0.056285
v 0.065550 0.960375 0.059118
v 0.068167 0.960773 0.061735
v 0.071400 0.961012 0.064967
v 0.071602 0.957873 0.065169
v 0.065625 0.952757 0.061213
v 0.065625 0.908774 0.061213
v 0.058235 0.952757 0.055844
v 0.058235 0.957587 0.055844
v 0.061234 0.959341 0.058023
v 0.064475 0.960375 0.060377
v 0.067469 0.960773 0.062553
v 0.071167 0.961012 0.065240
v 0.071398 0.957873 0.065407
v 0.064876 0.952757 0.062435
v 0.064876 0.908774 0.062435
v 0.056737 0.952757 0.058288
v 0.056737 0.957587 0.058288
v 0.060040 0.959341 0.059971
v 0.063609 0.960375 0.061790
v 0.066907 0.960773 0.063470
v 0.070980 0.961012 0.065545
v 0.071234 0.957873 0.065675
v 0.064327 0.952757 0.063759
v 0.064327 0.908774 0.063759
v 0.055640 0.952757 0.060936
v 0.055640 0.957587 0.060936
v 0.059166 0.959341 0.062082
v 0.062975 0.960375 0.063320
v 0.066495 0.960773 0.064464
v 0.070843 0.961012 0.065876
v 0.071114 0.957873 0.065964
v 0.063993 0.952757 0.065153
v 0.063993 0.908774 0.065153
v 0.054970 0.952757 0.063724
v 0.054970 0.957587 0.063724
v 0.058632 0.959341 0.064304
v 0.062588 0.960375 0.064931
v 0.066244 0.960773 0.065510
v 0.070759 0.961012 0.066225
v 0.071041 0.957873 0.066269
v 0.100081 0.931611 0.070869
v 0.111426 0.949880 0.066582
v 0.100418 0.931611 0.066582
v 0.110953 0.949880 0.072591
v 0.099077 0.931611 0.075050
v 0.109546 0.949880 0.078451
v 0.097431 0.931611 0.079023
v 0.107240 0.949880 0.084020
v 0.095185 0.931611 0.082689
v 0.104090 0.949880 0.089160
v 0.092392 0.931611 0.085959
v 0.100176 0.949880 0.093743
v 0.089122 0.931611 0.088752
v 0.095592 0.949880 0.097657
v 0.085455 0.931611 0.090999
v 0.090453 0.949880 0.100807
v 0.081483 0.931611 0.092644
v 0.084884 0.949880 0.103113
v 0.077301 0.931611 0.093648
v 0.079023 0.949880 0.104521
v 0.073014 0.931611 0.093985
v 0.073014 0.949880 0.104993
v 0.068728 0.931611 0.093648
v 0.067006 0.949880 0.104521
v 0.064547 0.931611 0.092644
v 0.061145 0.949880 0.103113
v 0.060574 0.931611 0.090999
v 0.055576 0.949880 0.100807
v 0.056907 0.931611 0.088752
v 0.050437 0.949880 0.097657
v 0.053637 0.931611 0.085959
v 0.045853 0.949880 0.093743
v 0.050845 0.931611 0.082689
v 0.041939 0.949880 0.089160
v 0.048598 0.931611 0.079023
v 0.038790 0.949880 0.084020
v 0.046952 0.931611 0.075050
v 0.036483 0.949880 0.078451
v 0.045948 0.931611 0.070869
v 0.035076 0.949880 0.072591
v 0.045611 0.931611 0.066582
v 0.034603 0.949880 0.066582
v 0.045948 0.931611 0.062295
v 0.035076 0.949880 0.060573
v 0.046952 0.931611 0.058114
v 0.036483 0.949880 0.054712
v 0.048598 0.931611 0.054141
v 0.038790 0.949880 0.049143
v 0.050845 0.931611 0.050474
v 0.041939 0.949880 0.044004
v 0.053637 0.931611 0.047205
v 0.045853 0.949880 0.039421
v 0.056907 0.931611 0.044412
v 0.050437 0.949880 0.035506
v 0.060574 0.931611 0.042165
v 0.055576 0.949880 0.032357
v 0.064547 0.931611 0.040519
v 0.061145 0.949880 0.030050
v 0.068728 0.931611 0.039516
v 0.067006 0.949880 0.028643
v 0.073014 0.931611 0.039178
v 0.073014 0.949880 0.028170
v 0.077301 0.931611 0.039516
v 0.079023 0.949880 0.028643
v 0.081483 0.931611 0.040519
v 0.084884 0.949880 0.030050
v 0.085455 0.931611 0.042165
v 0.090453 0.949880 0.032357
v 0.089122 0.931611 0.044412
v 0.095592 0.949880 0.035506
v 0.092392 0.931611 0.047205
v 0.100176 0.949880 0.039421
v 0.095185 0.931611 0.050474
v 0.104090 0.949880 0.044004
v 0.097431 0.931611 0.054141
v 0.107240 0.949880 0.049143
v 0.099077 0.931611 0.058114
v 0.109546 0.949880 0.054712
v 0.100081 0.931611 0.062295
v 0.110953 0.949880 0.060573
v 0.113828 0.954447 0.066582
v 0.113325 0.954447 0.072966
v 0.111830 0.954447 0.079194
v 0.109379 0.954447 0.085111
v 0.106033 0.954447 0.090571
v 0.101874 0.954447 0.095441
v 0.097004 0.954447 0.099600
v 0.091543 0.954447 0.102947
v 0.085626 0.954447 0.105397
v 0.079399 0.954447 0.106892
v 0.073014 0.954447 0.107395
v 0.066630 0.954447 0.106892
v 0.060403 0.954447 0.105397
v 0.054486 0.954447 0.102947
v 0.049025 0.954447 0.099600
v 0.044155 0.954447 0.095441
v 0.039996 0.954447 0.090571
v 0.036650 0.954447 0.085111
v 0.034199 0.954447 0.079194
v 0.032704 0.954447 0.072966
v 0.032201 0.954447 0.066582
v 0.032704 0.954447 0.060197
v 0.034199 0.954447 0.053970
v 0.036650 0.954447 0.048053
v 0.039996 0.954447 0.042593
v 0.044155 0.954447 0.037723
v 0.049025 0.954447 0.033563
v 0.054486 0.954447 0.030217
v 0.060403 0.954447 0.027766
v 0.066630 0.954447 0.026271
v 0.073014 0.954447 0.025769
v 0.079399 0.954447 0.026271
v 0.085626 0.954447 0.027766
v 0.091543 0.954447 0.030217
v 0.097004 0.954447 0.033563
v 0.101874 0.954447 0.037723
v 0.106033 0.954447 0.042593
v 0.109379 0.954447 0.048053
v 0.111830 0.954447 0.053970
v 0.113325 0.954447 0.060197
v 0.097022 0.956160 0.108164
v 0.121029 0.975000 0.066582
v 0.121029 0.956160 0.066582
v 0.097022 0.975000 0.108164
v 0.049007 0.956160 0.108164
v 0.049007 0.975000 0.108164
v 0.025000 0.956160 0.066582
v 0.025000 0.975000 0.066582
v 0.049007 0.956160 0.025000
v 0.049007 0.975000 0.025000
v 0.097022 0.956160 0.025000
v 0.097022 0.975000 0.025000
v 0.103052 0.975000 0.071339
v 0.103426 0.952163 0.066582
v 0.103426 0.975000 0.066582
v 0.103052 0.952163 0.071339
v 0.101938 0.975000 0.075979
v 0.101938 0.952163 0.075979
v 0.100112 0.975000 0.080388
v 0.100112 0.952163 0.080388
v 0.097618 0.975000 0.084457
v 0.097618 0.952163 0.084457
v 0.094519 0.975000 0.088086
v 0.094519 0.952163 0.088086
v 0.090890 0.975000 0.091185
v 0.090890 0.952163 0.091185
v 0.086821 0.975000 0.093679
v 0.086821 0.952163 0.093679
v 0.082412 0.975000 0.095505
v 0.082412 0.952163 0.095505
v 0.077772 0.975000 0.096619
v 0.077772 0.952163 0.096619
v 0.073014 0.975000 0.096993
v 0.073014 0.952163 0.096993
v 0.068257 0.975000 0.096619
v 0.068257 0.952163 0.096619
v 0.063617 0.975000 0.095505
v 0.063617 0.952163 0.095505
v 0.059208 0.975000 0.093679
v 0.059208 0.952163 0.093679
v 0.055139 0.975000 0.091185
v 0.055139 0.952163 0.091185
v 0.051510 0.975000 0.088086
v 0.051510 0.952163 0.088086
v 0.048411 0.975000 0.084457
v 0.048411 0.952163 0.084457
v 0.045918 0.975000 0.080388
v 0.045918 0.952163 0.080388
v 0.044091 0.975000 0.075979
v 0.044091 0.952163 0.075979
v 0.042977 0.975000 0.071339
v 0.042977 0.952163 0.071339
v 0.042603 0.975000 0.066582
v 0.042603 0.952163 0.066582
v 0.042977 0.975000 0.061824
v 0.042977 0.952163 0.061824
v 0.044091 0.975000 0.057184
v 0.044091 0.952163 0.057184
v 0.045918 0.975000 0.052775
v 0.045918 0.952163 0.052775
v 0.048411 0.975000 0.048706
v 0.048411 0.952163 0.048706
v 0.051510 0.975000 0.045078
v 0.051510 0.952163 0.045078
v 0.055139 0.975000 0.041978
v 0.055139 0.952163 0.041978
v 0.059208 0.975000 0.039485
v 0.059208 0.952163 0.039485
v 0.063617 0.975000 0.037658
v 0.063617 0.952163 0.037658
v 0.068257 0.975000 0.036545
v 0.068257 0.952163 0.036545
v 0.073014 0.975000 0.036170
v 0.073014 0.952163 0.036170
v 0.077772 0.975000 0.036545
v 0.077772 0.952163 0.036545
v 0.082412 0.975000 0.037658
v 0.082412 0.952163 0.037658
v 0.086821 0.975000 0.039485
v 0.086821 0.952163 0.039485
v 0.090890 0.975000 0.041978
v 0.090890 0.952163 0.041978
v 0.094519 0.975000 0.045078
v 0.094519 0.952163 0.045078
v 0.097618 0.975000 0.048706
v 0.097618 0.952163 0.048706
v 0.100112 0.975000 0.052775
v 0.100112 0.952163 0.052775
v 0.101938 0.975000 0.057184
v 0.101938 0.952163 0.057184
v 0.103052 0.975000 0.061824
v 0.103052 0.952163 0.061824
v 0.073014 0.931611 0.066582
v 0.073014 0.952163 0.066582
v 0.062288 0.080952 0.066582
v 0.062387 0.080293 0.065837
v 0.062557 0.079145 0.068624
v 0.062654 0.078496 0.063806
v 0.062927 0.076658 0.063146
v 0.070436 0.026194 0.056195
v 0.062654 0.078496 0.069358
v 0.067991 0.042628 0.057152
v 0.063466 0.073036 0.071319
v 0.067652 0.044906 0.057293
v 0.070239 0.027518 0.056221
v 0.063726 0.071293 0.071945
v 0.065839 0.057093 0.058684
v 0.065085 0.062154 0.073717
v 0.065430 0.059837 0.058997
v 0.065430 0.059837 0.074166
v 0.064111 0.068703 0.060717
v 0.067324 0.047106 0.075620
v 0.063726 0.071293 0.061219
v 0.067652 0.044906 0.075871
v 0.070029 0.028927 0.076856
v 0.070239 0.027518 0.076943
v 0.070614 0.025000 0.076992
v 0.070613 0.025000 0.056172
v 0.071987 0.025000 0.077173
v 0.070811 0.025000 0.056146
v 0.073014 0.025000 0.055856
v 0.072830 0.025000 0.077284
v 0.073014 0.025000 0.077308
v 0.073199 0.025000 0.055880
v 0.075416 0.025000 0.056172
v 0.075416 0.025000 0.076992
v 0.075791 0.027518 0.056221
v 0.075593 0.026194 0.076968
v 0.078039 0.042629 0.076011
v 0.075791 0.027518 0.076943
v 0.080191 0.057093 0.074479
v 0.078378 0.044906 0.075871
v 0.081918 0.068703 0.072447
v 0.080599 0.059837 0.074166
v 0.083102 0.076658 0.070018
v 0.082304 0.071293 0.071945
v 0.083643 0.080293 0.067326
v 0.083375 0.078496 0.069358
v 0.083741 0.080952 0.066582
v 0.076000 0.028927 0.056308
v 0.078378 0.044906 0.057293
v 0.078705 0.047107 0.057544
v 0.080599 0.059837 0.058997
v 0.080944 0.062154 0.059446
v 0.082304 0.071293 0.061219
v 0.082563 0.073036 0.061845
v 0.083472 0.079145 0.064539
v 0.083375 0.078496 0.063806
v 0.091284 0.280769 0.066582
v 0.095570 0.372115 0.063010
v 0.091059 0.280769 0.063724
v 0.095851 0.372115 0.066582
v 0.091059 0.280769 0.069439
v 0.095570 0.372115 0.070154
v 0.090389 0.280769 0.072227
v 0.094733 0.372115 0.073638
v 0.089292 0.280769 0.074876
v 0.093362 0.372115 0.076949
v 0.087794 0.280769 0.077320
v 0.091490 0.372115 0.080005
v 0.085933 0.280769 0.079500
v 0.089162 0.372115 0.082729
v 0.083753 0.280769 0.081362
v 0.086437 0.372115 0.085057
v 0.081309 0.280769 0.082860
v 0.083382 0.372115 0.086929
v 0.078660 0.280769 0.083957
v 0.080071 0.372115 0.088300
v 0.075872 0.280769 0.084626
v 0.076587 0.372115 0.089137
v 0.073014 0.280769 0.084851
v 0.073014 0.372115 0.089418
v 0.070157 0.280769 0.084626
v 0.069443 0.372115 0.089137
v 0.067369 0.280769 0.083957
v 0.065958 0.372115 0.088300
v 0.064721 0.280769 0.082860
v 0.062647 0.372115 0.086929
v 0.062276 0.280769 0.081362
v 0.059592 0.372115 0.085057
v 0.060097 0.280769 0.079500
v 0.056867 0.372115 0.082729
v 0.058235 0.280769 0.077320
v 0.054540 0.372115 0.080005
v 0.056737 0.280769 0.074876
v 0.052667 0.372115 0.076949
v 0.055640 0.280769 0.072227
v 0.051296 0.372115 0.073638
v 0.054970 0.280769 0.069439
v 0.050459 0.372115 0.070154
v 0.054746 0.280769 0.066582
v 0.050178 0.372115 0.066582
v 0.054970 0.280769 0.063724
v 0.050459 0.372115 0.063010
v 0.055640 0.280769 0.060936
v 0.051296 0.372115 0.059525
v 0.056737 0.280769 0.058288
v 0.052667 0.372115 0.056215
v 0.058235 0.280769 0.055844
v 0.054540 0.372115 0.053159
v 0.060097 0.280769 0.053664
v 0.056867 0.372115 0.050434
v 0.062276 0.280769 0.051802
v 0.059592 0.372115 0.048107
v 0.064721 0.280769 0.050304
v 0.062647 0.372115 0.046234
v 0.067369 0.280769 0.049207
v 0.065958 0.372115 0.044863
v 0.070157 0.280769 0.048538
v 0.069443 0.372115 0.044027
v 0.073014 0.280769 0.048313
v 0.073014 0.372115 0.043745
v 0.075872 0.280769 0.048538
v 0.076587 0.372115 0.044027
v 0.078660 0.280769 0.049207
v 0.080071 0.372115 0.044863
v 0.081309 0.280769 0.050304
v 0.083382 0.372115 0.046234
v 0.083753 0.280769 0.051802
v 0.086437 0.372115 0.048107
v 0.085933 0.280769 0.053664
v 0.089162 0.372115 0.050434
v 0.087794 0.280769 0.055844
v 0.091490 0.372115 0.053159
v 0.089292 0.280769 0.058288
v 0.093362 0.372115 0.056215
v 0.090389 0.280769 0.060936
v 0.094733 0.372115 0.059525
v 0.073014 0.285336 0.066582
v 0.100418 0.408653 0.066582
v 0.096021 0.783173 0.062938
v 0.096021 0.408653 0.062938
v 0.100435 0.792307 0.066582
v 0.096021 0.408653 0.070226
v 0.096021 0.783173 0.070226
v 0.099077 0.408653 0.075050
v 0.099093 0.792307 0.075055
v 0.093769 0.408653 0.077157
v 0.093769 0.783173 0.077157
v 0.095185 0.408653 0.082689
v 0.095198 0.792307 0.082699
v 0.089485 0.408653 0.083053
v 0.089485 0.783173 0.083053
v 0.089122 0.408653 0.088752
v 0.089132 0.792307 0.088765
v 0.083589 0.408653 0.087336
v 0.083589 0.783173 0.087336
v 0.081483 0.408653 0.092644
v 0.081488 0.792307 0.092660
v 0.076658 0.408653 0.089589
v 0.076658 0.783173 0.089589
v 0.073014 0.408653 0.093985
v 0.073014 0.792307 0.094002
v 0.069371 0.408653 0.089589
v 0.069371 0.783173 0.089589
v 0.064547 0.408653 0.092644
v 0.064542 0.792307 0.092660
v 0.062440 0.408653 0.087336
v 0.062440 0.783173 0.087336
v 0.056907 0.408653 0.088752
v 0.056897 0.792307 0.088765
v 0.056544 0.408653 0.083053
v 0.056544 0.783173 0.083053
v 0.050845 0.408653 0.082689
v 0.050831 0.792307 0.082699
v 0.052260 0.408653 0.077157
v 0.052260 0.783173 0.077157
v 0.046952 0.408653 0.075050
v 0.046936 0.792307 0.075055
v 0.050008 0.408653 0.070226
v 0.050008 0.783173 0.070226
v 0.045611 0.408653 0.066582
v 0.045595 0.792307 0.066582
v 0.050008 0.408653 0.062938
v 0.050008 0.783173 0.062938
v 0.046952 0.408653 0.058114
v 0.046936 0.792307 0.058109
v 0.052260 0.408653 0.056007
v 0.052260 0.783173 0.056007
v 0.050845 0.408653 0.050474
v 0.050831 0.792307 0.050465
v 0.056544 0.408653 0.050111
v 0.056544 0.783173 0.050111
v 0.056907 0.408653 0.044412
v 0.056897 0.792307 0.044399
v 0.062440 0.408653 0.045827
v 0.062440 0.783173 0.045827
v 0.064547 0.408653 0.040519
v 0.064542 0.792307 0.040504
v 0.069371 0.408653 0.043575
v 0.069371 0.783173 0.043575
v 0.073014 0.408653 0.039178
v 0.073014 0.792307 0.039162
v 0.076658 0.408653 0.043575
v 0.076658 0.783173 0.043575
v 0.081483 0.408653 0.040519
v 0.081488 0.792307 0.040504
v 0.083589 0.408653 0.045827
v 0.083589 0.783173 0.045827
v 0.089122 0.408653 0.044412
v 0.089132 0.792307 0.044399
v 0.089485 0.408653 0.050111
v 0.089485 0.783173 0.050111
v 0.095185 0.408653 0.050474
v 0.095198 0.792307 0.050465
v 0.093769 0.408653 0.056007
v 0.093769 0.783173 0.056007
v 0.099077 0.408653 0.058114
v 0.099093 0.792307 0.058109
v 0.100081 0.792307 0.062295
v 0.100081 0.792307 0.070869
v 0.097432 0.792307 0.079023
v 0.092392 0.792307 0.085959
v 0.085456 0.792307 0.090999
v 0.077302 0.792307 0.093648
v 0.068728 0.792307 0.093648
v 0.060574 0.792307 0.090999
v 0.053638 0.792307 0.085959
v 0.048598 0.792307 0.079023
v 0.045949 0.792307 0.070869
v 0.045949 0.792307 0.062295
v 0.048598 0.792307 0.054141
v 0.053638 0.792307 0.047205
v 0.060574 0.792307 0.042165
v 0.068728 0.792307 0.039516
v 0.077302 0.792307 0.039516
v 0.085456 0.792307 0.042165
v 0.092392 0.792307 0.047205
v 0.097432 0.792307 0.054141
v 0.048751 0.406084 0.066582
v 0.052701 0.401522 0.069799
v 0.049050 0.406084 0.070377
v 0.052448 0.401522 0.066582
v 0.054989 0.397219 0.069436
v 0.054765 0.397219 0.066582
v 0.056080 0.392403 0.069264
v 0.055869 0.392403 0.066582
v 0.056102 0.386945 0.069260
v 0.055891 0.386945 0.066582
v 0.054972 0.380112 0.069439
v 0.054747 0.380112 0.066582
v 0.052715 0.375540 0.069797
v 0.052462 0.375540 0.066582
v 0.053454 0.401522 0.072937
v 0.049939 0.406084 0.074080
v 0.055658 0.397219 0.072221
v 0.056708 0.392403 0.071880
v 0.056730 0.386945 0.071873
v 0.055641 0.380112 0.072227
v 0.053468 0.375540 0.072933
v 0.054689 0.401522 0.075919
v 0.051396 0.406084 0.077597
v 0.056754 0.397219 0.074867
v 0.057738 0.392403 0.074366
v 0.057758 0.386945 0.074356
v 0.056738 0.380112 0.074875
v 0.054702 0.375540 0.075912
v 0.056376 0.401522 0.078671
v 0.053385 0.406084 0.080843
v 0.058250 0.397219 0.077309
v 0.059144 0.392403 0.076660
v 0.059162 0.386945 0.076646
v 0.058236 0.380112 0.077319
v 0.056387 0.375540 0.078662
v 0.058472 0.401522 0.081125
v 0.055858 0.406084 0.083739
v 0.060110 0.397219 0.079487
v 0.060891 0.392403 0.078706
v 0.060907 0.386945 0.078690
v 0.060097 0.380112 0.079499
v 0.058482 0.375540 0.081115
v 0.060926 0.401522 0.083221
v 0.058753 0.406084 0.086212
v 0.062288 0.397219 0.081346
v 0.062937 0.392403 0.080453
v 0.062950 0.386945 0.080435
v 0.062277 0.380112 0.081361
v 0.060934 0.375540 0.083209
v 0.063677 0.401522 0.084907
v 0.061999 0.406084 0.088201
v 0.064729 0.397219 0.082843
v 0.065231 0.392403 0.081859
v 0.065241 0.386945 0.081839
v 0.064721 0.380112 0.082859
v 0.063684 0.375540 0.084894
v 0.066659 0.401522 0.086142
v 0.065517 0.406084 0.089658
v 0.067375 0.397219 0.083939
v 0.067716 0.392403 0.082888
v 0.067724 0.386945 0.082867
v 0.067370 0.380112 0.083956
v 0.066664 0.375540 0.086129
v 0.069797 0.401522 0.086896
v 0.069219 0.406084 0.090547
v 0.070160 0.397219 0.084607
v 0.070333 0.392403 0.083516
v 0.070336 0.386945 0.083494
v 0.070157 0.380112 0.084625
v 0.069800 0.375540 0.086882
v 0.073014 0.401522 0.087149
v 0.073014 0.406084 0.090845
v 0.073014 0.397219 0.084832
v 0.073014 0.392403 0.083728
v 0.073014 0.386945 0.083705
v 0.073014 0.380112 0.084850
v 0.073014 0.375540 0.087135
v 0.076232 0.401522 0.086896
v 0.076810 0.406084 0.090547
v 0.075870 0.397219 0.084607
v 0.075697 0.392403 0.083516
v 0.075693 0.386945 0.083494
v 0.075872 0.380112 0.084625
v 0.076230 0.375540 0.086882
v 0.079370 0.401522 0.086142
v 0.080513 0.406084 0.089658
v 0.078654 0.397219 0.083939
v 0.078313 0.392403 0.082888
v 0.078306 0.386945 0.082867
v 0.078660 0.380112 0.083956
v 0.079366 0.375540 0.086129
v 0.082352 0.401522 0.084907
v 0.084030 0.406084 0.088201
v 0.081300 0.397219 0.082843
v 0.080799 0.392403 0.081859
v 0.080788 0.386945 0.081839
v 0.081308 0.380112 0.082859
v 0.082345 0.375540 0.084894
v 0.085104 0.401522 0.083221
v 0.087277 0.406084 0.086212
v 0.083742 0.397219 0.081346
v 0.083093 0.392403 0.080453
v 0.083079 0.386945 0.080435
v 0.083752 0.380112 0.081361
v 0.085095 0.375540 0.083209
v 0.087558 0.401522 0.081125
v 0.090172 0.406084 0.083739
v 0.085919 0.397219 0.079487
v 0.085139 0.392403 0.078706
v 0.085123 0.386945 0.078690
v 0.085932 0.380112 0.079499
v 0.087548 0.375540 0.081115
v 0.089654 0.401522 0.078671
v 0.092644 0.406084 0.080844
v 0.087779 0.397219 0.077309
v 0.086886 0.392403 0.076660
v 0.086868 0.386945 0.076646
v 0.087794 0.380112 0.077319
v 0.089642 0.375540 0.078662
v 0.091340 0.401522 0.075919
v 0.094634 0.406084 0.077597
v 0.089276 0.397219 0.074867
v 0.088292 0.392403 0.074366
v 0.088272 0.386945 0.074356
v 0.089292 0.380112 0.074875
v 0.091327 0.375540 0.075912
v 0.092575 0.401522 0.072937
v 0.096091 0.406084 0.074080
v 0.090372 0.397219 0.072221
v 0.089321 0.392403 0.071880
v 0.089300 0.386945 0.071873
v 0.090389 0.380112 0.072227
v 0.092562 0.375540 0.072933
v 0.093329 0.401522 0.069799
v 0.096980 0.406084 0.070377
v 0.091040 0.397219 0.069436
v 0.089949 0.392403 0.069264
v 0.089927 0.386945 0.069260
v 0.091058 0.380112 0.069439
v 0.093315 0.375540 0.069797
v 0.093582 0.401522 0.066582
v 0.097278 0.406084 0.066582
v 0.091265 0.397219 0.066582
v 0.090160 0.392403 0.066582
v 0.090138 0.386945 0.066582
v 0.091283 0.380112 0.066582
v 0.093567 0.375540 0.066582
v 0.093329 0.401522 0.063365
v 0.096980 0.406084 0.062786
v 0.091040 0.397219 0.063727
v 0.089949 0.392403 0.063900
v 0.089927 0.386945 0.063903
v 0.091058 0.380112 0.063724
v 0.093315 0.375540 0.063367
v 0.092575 0.401522 0.060226
v 0.096091 0.406084 0.059084
v 0.090372 0.397219 0.060942
v 0.089321 0.392403 0.061284
v 0.089300 0.386945 0.061291
v 0.090389 0.380112 0.060937
v 0.092562 0.375540 0.060231
v 0.091340 0.401522 0.057245
v 0.094634 0.406084 0.055566
v 0.089276 0.397219 0.058297
v 0.088292 0.392403 0.058798
v 0.088272 0.386945 0.058808
v 0.089292 0.380112 0.058288
v 0.091327 0.375540 0.057251
v 0.089654 0.401522 0.054493
v 0.092645 0.406084 0.052320
v 0.087779 0.397219 0.055855
v 0.086886 0.392403 0.056504
v 0.086868 0.386945 0.056517
v 0.087794 0.380112 0.055844
v 0.089642 0.375540 0.054501
v 0.087558 0.401522 0.052039
v 0.090172 0.406084 0.049425
v 0.085919 0.397219 0.053677
v 0.085139 0.392403 0.054458
v 0.085123 0.386945 0.054474
v 0.085932 0.380112 0.053664
v 0.087548 0.375540 0.052049
v 0.085104 0.401522 0.049943
v 0.087277 0.406084 0.046952
v 0.083742 0.397219 0.051817
v 0.083093 0.392403 0.052711
v 0.083079 0.386945 0.052729
v 0.083752 0.380112 0.051803
v 0.085095 0.375540 0.049954
v 0.082352 0.401522 0.048256
v 0.084030 0.406084 0.044963
v 0.081300 0.397219 0.050321
v 0.080799 0.392403 0.051305
v 0.080788 0.386945 0.051325
v 0.081308 0.380112 0.050305
v 0.082345 0.375540 0.048269
v 0.079370 0.401522 0.047022
v 0.080513 0.406084 0.043506
v 0.078654 0.397219 0.049225
v 0.078313 0.392403 0.050275
v 0.078306 0.386945 0.050297
v 0.078660 0.380112 0.049208
v 0.079366 0.375540 0.047035
v 0.076232 0.401522 0.046268
v 0.076810 0.406084 0.042617
v 0.075870 0.397219 0.048557
v 0.075697 0.392403 0.049647
v 0.075693 0.386945 0.049669
v 0.075872 0.380112 0.048539
v 0.076230 0.375540 0.046282
v 0.073014 0.401522 0.046015
v 0.073014 0.406084 0.042318
v 0.073014 0.397219 0.048332
v 0.073014 0.392403 0.049436
v 0.073014 0.386945 0.049459
v 0.073014 0.380112 0.048314
v 0.073014 0.375540 0.046029
v 0.069797 0.401522 0.046268
v 0.069219 0.406084 0.042617
v 0.070160 0.397219 0.048557
v 0.070333 0.392403 0.049647
v 0.070336 0.386945 0.049669
v 0.070157 0.380112 0.048539
v 0.069800 0.375540 0.046282
v 0.066659 0.401522 0.047022
v 0.065517 0.406084 0.043506
v 0.067375 0.397219 0.049225
v 0.067716 0.392403 0.050275
v 0.067724 0.386945 0.050297
v 0.067370 0.380112 0.049208
v 0.066664 0.375540 0.047035
v 0.063677 0.401522 0.048256
v 0.061999 0.406084 0.044963
v 0.064729 0.397219 0.050321
v 0.065231 0.392403 0.051305
v 0.065241 0.386945 0.051325
v 0.064721 0.380112 0.050305
v 0.063684 0.375540 0.048269
v 0.060926 0.401522 0.049943
v 0.058753 0.406084 0.046952
v 0.062288 0.397219 0.051817
v 0.062937 0.392403 0.052711
v 0.062950 0.386945 0.052729
v 0.062277 0.380112 0.051803
v 0.060934 0.375540 0.049954
v 0.058472 0.401522 0.052039
v 0.055858 0.406084 0.049425
v 0.060110 0.397219 0.053677
v 0.060891 0.392403 0.054458
v 0.060907 0.386945 0.054474
v 0.060097 0.380112 0.053664
v 0.058482 0.375540 0.052049
v 0.056376 0.401522 0.054493
v 0.053385 0.406084 0.052320
v 0.058250 0.397219 0.055855
v 0.059144 0.392403 0.056504
v 0.059162 0.386945 0.056517
v 0.058236 0.380112 0.055844
v 0.056387 0.375540 0.054501
v 0.054689 0.401522 0.057245
v 0.051396 0.406084 0.055566
v 0.056754 0.397219 0.058297
v 0.057738 0.392403 0.058798
v 0.057758 0.386945 0.058808
v 0.056738 0.380112 0.058288
v 0.054702 0.375540 0.057251
v 0.053454 0.401522 0.060226
v 0.049939 0.406084 0.059084
v 0.055658 0.397219 0.060942
v 0.056708 0.392403 0.061284
v 0.056730 0.386945 0.061291
v 0.055641 0.380112 0.060937
v 0.053468 0.375540 0.060231
v 0.052701 0.401522 0.063365
v 0.049050 0.406084 0.062786
v 0.054989 0.397219 0.063727
v 0.056080 0.392403 0.063900
v 0.056102 0.386945 0.063903
v 0.054972 0.380112 0.063724
v 0.052715 0.375540 0.063367
v 0.046952 0.929327 0.075050
v 0.073014 0.929327 0.066582
v 0.045948 0.929327 0.070869
v 0.048598 0.929327 0.079023
v 0.050845 0.929327 0.082689
v 0.053637 0.929327 0.085959
v 0.056907 0.929327 0.088752
v 0.060574 0.929327 0.090999
v 0.064547 0.929327 0.092644
v 0.068728 0.929327 0.093648
v 0.073014 0.929327 0.093985
v 0.077301 0.929327 0.093648
v 0.081483 0.929327 0.092644
v 0.085455 0.929327 0.090999
v 0.089122 0.929327 0.088752
v 0.092392 0.929327 0.085959
v 0.095185 0.929327 0.082689
v 0.097431 0.929327 0.079023
v 0.099077 0.929327 0.075050
v 0.100081 0.929327 0.070869
v 0.100418 0.929327 0.066582
v 0.100081 0.929327 0.062295
v 0.099077 0.929327 0.058114
v 0.097431 0.929327 0.054141
v 0.095185 0.929327 0.050474
v 0.092392 0.929327 0.047205
v 0.089122 0.929327 0.044412
v 0.085455 0.929327 0.042165
v 0.081483 0.929327 0.040519
v 0.077301 0.929327 0.039516
v 0.073014 0.929327 0.039178
v 0.068728 0.929327 0.039516
v 0.064547 0.929327 0.040519
v 0.060574 0.929327 0.042165
v 0.056907 0.929327 0.044412
v 0.053637 0.929327 0.047205
v 0.050845 0.929327 0.050474
v 0.048598 0.929327 0.054141
v 0.046952 0.929327 0.058114
v 0.045948 0.929327 0.062295
v 0.045611 0.929327 0.066582
v 0.062288 0.285336 0.066582
v 0.062654 0.285336 0.063806
v 0.062654 0.285336 0.069358
v 0.063725 0.285336 0.061219
v 0.063725 0.285336 0.071945
v 0.065430 0.285336 0.058997
v 0.065430 0.285336 0.074166
v 0.067652 0.285336 0.057293
v 0.067652 0.285336 0.075871
v 0.070239 0.285336 0.056221
v 0.070239 0.285336 0.076943
v 0.073014 0.285336 0.055856
v 0.073014 0.285336 0.077308
v 0.075791 0.285336 0.056221
v 0.075791 0.285336 0.076943
v 0.078378 0.285336 0.057293
v 0.078378 0.285336 0.075871
v 0.080599 0.285336 0.058997
v 0.080599 0.285336 0.074166
v 0.082304 0.285336 0.061219
v 0.082304 0.285336 0.071945
v 0.083375 0.285336 0.063806
v 0.083375 0.285336 0.069358
v 0.083741 0.285336 0.066582
f 1 2 3
f 1 2 4
f 4 5 2
f 4 5 6
f 6 7 5
f 6 7 8
f 8 9 7
f 8 9 10
f 10 11 9
f 10 11 12
f 12 13 11
f 12 13 14
f 14 15 13
f 14 15 16
f 16 17 15
f 16 17 18
f 18 19 17
f 3 20 21
f 3 20 2
f 2 22 20
f 2 22 5
f 5 23 22
f 5 23 7
f 7 24 23
f 7 24 9
f 9 25 24
f 9 25 11
f 11 26 25
f 11 26 13
f 13 27 26
f 13 27 15
f 15 28 27
f 15 28 17
f 17 19 28
f 21 29 30
f 21 29 20
f 20 31 29
f 20 31 22
f 22 32 31
f 22 32 23
f 23 33 32
f 23 33 24
f 24 34 33
f 24 34 25
f 25 35 34
f 25 35 26
f 26 36 35
f 26 36 27
f 27 37 36
f 27 37 28
f 28 19 37
f 30 38 39
f 30 38 29
f 29 40 38
f 29 40 31
f 31 41 40
f 31 41 32
f 32 42 41
f 32 42 33
f 33 43 42
f 33 43 34
f 34 44 43
f 34 44 35
f 35 45 44
f 35 45 36
f 36 46 45
f 36 46 37
f 37 19 46
f 39 47 48
f 39 47 38
f 38 49 47
f 38 49 40
f 40 50 49
f 40 50 41
f 41 51 50
f 41 51 42
f 42 52 51
f 42 52 43
f 43 53 52
f 43 53 44
f 44 54 53
f 44 54 45
f 45 55 54
f 45 55 46
f 46 19 55
f 48 56 57
f 48 56 47
f 47 58 56
f 47 58 49
f 49 59 58
f 49 59 50
f 50 60 59
f 50 60 51
f 51 61 60
f 51 61 52
f 52 62 61
f 52 62 53
f 53 63 62
f 53 63 54
f 54 64 63
f 54 64 55
f 55 19 64
f 57 65 66
f 57 65 56
f 56 67 65
f 56 67 58
f 58 68 67
f 58 68 59
f 59 69 68
f 59 69 60
f 60 70 69
f 60 70 61
f 61 71 70
f 61 71 62
f 62 72 71
f 62 72 63
f 63 73 72
f 63 73 64
f 64 19 73
f 66 74 75
f 66 74 65
f 65 76 74
f 65 76 67
f 67 77 76
f 67 77 68
f 68 78 77
f 68 78 69
f 69 79 78
f 69 79 70
f 70 80 79
f 70 80 71
f 71 81 80
f 71 81 72
f 72 82 81
f 72 82 73
f 73 19 82
f 75 83 84
f 75 83 74
f 74 85 83
f 74 85 76
f 76 86 85
f 76 86 77
f 77 87 86
f 77 87 78
f 78 88 87
f 78 88 79
f 79 89 88
f 79 89 80
f 80 90 89
f 80 90 81
f 81 91 90
f 81 91 82
f 82 19 91
f 84 92 93
f 84 92 83
f 83 94 92
f 83 94 85
f 85 95 94
f 85 95 86
f 86 96 95
f 86 96 87
f 87 97 96
f 87 97 88
f 88 98 97
f 88 98 89
f 89 99 98
f 89 99 90
f 90 100 99
f 90 100 91
f 91 19 100
f 93 101 102
f 93 101 92
f 92 103 101
f 92 103 94
f 94 104 103
f 94 104 95
f 95 105 104
f 95 105 96
f 96 106 105
f 96 106 97
f 97 107 106
f 97 107 98
f 98 108 107
f 98 108 99
f 99 109 108
f 99 109 100
f 100 19 109
f 102 110 111
f 102 110 101
f 101 112 110
f 101 112 103
f 103 113 112
f 103 113 104
f 104 114 113
f 104 114 105
f 105 115 114
f 105 115 106
f 106 116 115
f 106 116 107
f 107 117 116
f 107 117 108
f 108 118 117
f 108 118 109
f 109 19 118
f 111 119 120
f 111 119 110
f 110 121 119
f 110 121 112
f 112 122 121
f 112 122 113
f 113 123 122
f 113 123 114
f 114 124 123
f 114 124 115
f 115 125 124
f 115 125 116
f 116 126 125
f 116 126 117
f 117 127 126
f 117 127 118
f 118 19 127
f 120 128 129
f 120 128 119
f 119 130 128
f 119 130 121
f 121 131 130
f 121 131 122
f 122 132 131
f 122 132 123
f 123 133 132
f 123 133 124
f 124 134 133
f 124 134 125
f 125 135 134
f 125 135 126
f 126 136 135
f 126 136 127
f 127 19 136
f 129 137 138
f 129 137 128
f 128 139 137
f 128 139 130
f 130 140 139
f 130 140 131
f 131 141 140
f 131 141 132
f 132 142 141
f 132 142 133
f 133 143 142
f 133 143 134
f 134 144 143
f 134 144 135
f 135 145 144
f 135 145 136
f 136 19 145
f 138 146 147
f 138 146 137
f 137 148 146
f 137 148 139
f 139 149 148
f 139 149 140
f 140 150 149
f 140 150 141
f 141 151 150
f 141 151 142
f 142 152 151
f 142 152 143
f 143 153 152
f 143 153 144
f 144 154 153
f 144 154 145
f 145 19 154
f 147 155 156
f 147 155 146
f 146 157 155
f 146 157 148
f 148 158 157
f 148 158 149
f 149 159 158
f 149 159 150
f 150 160 159
f 150 160 151
f 151 161 160
f 151 161 152
f 152 162 161
f 152 162 153
f 153 163 162
f 153 163 154
f 154 19 163
f 156 164 165
f 156 164 155
f 155 166 164
f 155 166 157
f 157 167 166
f 157 167 158
f 158 168 167
f 158 168 159
f 159 169 168
f 159 169 160
f 160 170 169
f 160 170 161
f 161 171 170
f 161 171 162
f 162 172 171
f 162 172 163
f 163 19 172
f 165 173 174
f 165 173 164
f 164 175 173
f 164 175 166
f 166 176 175
f 166 176 167
f 167 177 176
f 167 177 168
f 168 178 177
f 168 178 169
f 169 179 178
f 169 179 170
f 170 180 179
f 170 180 171
f 171 181 180
f 171 181 172
f 172 19 181
f 174 182 183
f 174 182 173
f 173 184 182
f 173 184 175
f 175 185 184
f 175 185 176
f 176 186 185
f 176 186 177
f 177 187 186
f 177 187 178
f 178 188 187
f 178 188 179
f 179 189 188
f 179 189 180
f 180 190 189
f 180 190 181
f 181 19 190
f 183 191 192
f 183 191 182
f 182 193 191
f 182 193 184
f 184 194 193
f 184 194 185
f 185 195 194
f 185 195 186
f 186 196 195
f 186 196 187
f 187 197 196
f 187 197 188
f 188 198 197
f 188 198 189
f 189 199 198
f 189 199 190
f 190 19 199
f 192 200 201
f 192 200 191
f 191 202 200
f 191 202 193
f 193 203 202
f 193 203 194
f 194 204 203
f 194 204 195
f 195 205 204
f 195 205 196
f 196 206 205
f 196 206 197
f 197 207 206
f 197 207 198
f 198 208 207
f 198 208 199
f 199 19 208
f 201 209 210
f 201 209 200
f 200 211 209
f 200 211 202
f 202 212 211
f 202 212 203
f 203 213 212
f 203 213 204
f 204 214 213
f 204 214 205
f 205 215 214
f 205 215 206
f 206 216 215
f 206 216 207
f 207 217 216
f 207 217 208
f 208 19 217
f 210 218 219
f 210 218 209
f 209 220 218
f 209 220 211
f 211 221 220
f 211 221 212
f 212 222 221
f 212 222 213
f 213 223 222
f 213 223 214
f 214 224 223
f 214 224 215
f 215 225 224
f 215 225 216
f 216 226 225
f 216 226 217
f 217 19 226
f 219 227 228
f 219 227 218
f 218 229 227
f 218 229 220
f 220 230 229
f 220 230 221
f 221 231 230
f 221 231 222
f 222 232 231
f 222 232 223
f 223 233 232
f 223 233 224
f 224 234 233
f 224 234 225
f 225 235 234
f 225 235 226
f 226 19 235
f 228 236 237
f 228 236 227
f 227 238 236
f 227 238 229
f 229 239 238
f 229 239 230
f 230 240 239
f 230 240 231
f 231 241 240
f 231 241 232
f 232 242 241
f 232 242 233
f 233 243 242
f 233 243 234
f 234 244 243
f 234 244 235
f 235 19 244
f 237 245 246
f 237 245 236
f 236 247 245
f 236 247 238
f 238 248 247
f 238 248 239
f 239 249 248
f 239 249 240
f 240 250 249
f 240 250 241
f 241 251 250
f 241 251 242
f 242 252 251
f 242 252 243
f 243 253 252
f 243 253 244
f 244 19 253
f 246 254 255
f 246 254 245
f 245 256 254
f 245 256 247
f 247 257 256
f 247 257 248
f 248 258 257
f 248 258 249
f 249 259 258
f 249 259 250
f 250 260 259
f 250 260 251
f 251 261 260
f 251 261 252
f 252 262 261
f 252 262 253
f 253 19 262
f 255 263 264
f 255 263 254
f 254 265 263
f 254 265 256
f 256 266 265
f 256 266 257
f 257 267 266
f 257 267 258
f 258 268 267
f 258 268 259
f 259 269 268
f 259 269 260
f 260 270 269
f 260 270 261
f 261 271 270
f 261 271 262
f 262 19 271
f 264 272 273
f 264 272 263
f 263 274 272
f 263 274 265
f 265 275 274
f 265 275 266
f 266 276 275
f 266 276 267
f 267 277 276
f 267 277 268
f 268 278 277
f 268 278 269
f 269 279 278
f 269 279 270
f 270 280 279
f 270 280 271
f 271 19 280
f 273 281 282
f 273 281 272
f 272 283 281
f 272 283 274
f 274 284 283
f 274 284 275
f 275 285 284
f 275 285 276
f 276 286 285
f 276 286 277
f 277 287 286
f 277 287 278
f 278 288 287
f 278 288 279
f 279 289 288
f 279 289 280
f 280 19 289
f 282 290 291
f 282 290 281
f 281 292 290
f 281 292 283
f 283 293 292
f 283 293 284
f 284 294 293
f 284 294 285
f 285 295 294
f 285 295 286
f 286 296 295
f 286 296 287
f 287 297 296
f 287 297 288
f 288 298 297
f 288 298 289
f 289 19 298
f 291 299 300
f 291 299 290
f 290 301 299
f 290 301 292
f 292 302 301
f 292 302 293
f 293 303 302
f 293 303 294
f 294 304 303
f 294 304 295
f 295 305 304
f 295 305 296
f 296 306 305
f 296 306 297
f 297 307 306
f 297 307 298
f 298 19 307
f 300 308 309
f 300 308 299
f 299 310 308
f 299 310 301
f 301 311 310
f 301 311 302
f 302 312 311
f 302 312 303
f 303 313 312
f 303 313 304
f 304 314 313
f 304 314 305
f 305 315 314
f 305 315 306
f 306 316 315
f 306 316 307
f 307 19 316
f 309 317 318
f 309 317 308
f 308 319 317
f 308 319 310
f 310 320 319
f 310 320 311
f 311 321 320
f 311 321 312
f 312 322 321
f 312 322 313
f 313 323 322
f 313 323 314
f 314 324 323
f 314 324 315
f 315 325 324
f 315 325 316
f 316 19 325
f 318 326 327
f 318 326 317
f 317 328 326
f 317 328 319
f 319 329 328
f 319 329 320
f 320 330 329
f 320 330 321
f 321 331 330
f 321 331 322
f 322 332 331
f 322 332 323
f 323 333 332
f 323 333 324
f 324 334 333
f 324 334 325
f 325 19 334
f 327 335 336
f 327 335 326
f 326 337 335
f 326 337 328
f 328 338 337
f 328 338 329
f 329 339 338
f 329 339 330
f 330 340 339
f 330 340 331
f 331 341 340
f 331 341 332
f 332 342 341
f 332 342 333
f 333 343 342
f 333 343 334
f 334 19 343
f 336 344 345
f 336 344 335
f 335 346 344
f 335 346 337
f 337 347 346
f 337 347 338
f 338 348 347
f 338 348 339
f 339 349 348
f 339 349 340
f 340 350 349
f 340 350 341
f 341 351 350
f 341 351 342
f 342 352 351
f 342 352 343
f 343 19 352
f 345 353 354
f 345 353 344
f 344 355 353
f 344 355 346
f 346 356 355
f 346 356 347
f 347 357 356
f 347 357 348
f 348 358 357
f 348 358 349
f 349 359 358
f 349 359 350
f 350 360 359
f 350 360 351
f 351 361 360
f 351 361 352
f 352 19 361
f 354 4 1
f 354 4 353
f 353 6 4
f 353 6 355
f 355 8 6
f 355 8 356
f 356 10 8
f 356 10 357
f 357 12 10
f 357 12 358
f 358 14 12
f 358 14 359
f 359 16 14
f 359 16 360
f 360 18 16
f 360 18 361
f 361 19 18
f 362 363 364
f 365 362 363
f 366 365 362
f 367 366 365
f 368 367 366
f 369 368 367
f 370 369 368
f 371 370 369
f 372 371 370
f 373 372 371
f 374 373 372
f 375 374 373
f 376 375 374
f 377 376 375
f 378 377 376
f 379 378 377
f 380 379 378
f 381 380 379
f 382 381 380
f 383 382 381
f 384 383 382
f 385 384 383
f 386 385 384
f 387 386 385
f 388 387 386
f 389 388 387
f 390 389 388
f 391 390 389
f 392 391 390
f 393 392 391
f 394 393 392
f 395 394 393
f 396 395 394
f 397 396 395
f 398 397 396
f 399 398 397
f 400 399 398
f 401 400 399
f 402 401 400
f 403 402 401
f 404 403 402
f 405 404 403
f 406 405 404
f 407 406 405
f 408 407 406
f 409 408 407
f 410 409 408
f 411 410 409
f 412 411 410
f 413 412 411
f 414 413 412
f 415 414 413
f 416 415 414
f 417 416 415
f 418 417 416
f 419 418 417
f 420 419 418
f 421 420 419
f 422 421 420
f 423 422 421
f 424 423 422
f 425 424 423
f 426 425 424
f 427 426 425
f 428 427 426
f 429 428 427
f 430 429 428
f 431 430 429
f 432 431 430
f 433 432 431
f 434 433 432
f 435 434 433
f 436 435 434
f 437 436 435
f 438 437 436
f 439 438 437
f 440 439 438
f 441 440 439
f 364 441 440
f 363 364 441
f 365 442 363
f 443 365 442
f 367 443 365
f 444 367 443
f 369 444 367
f 445 369 444
f 371 445 369
f 446 371 445
f 373 446 371
f 447 373 446
f 375 447 373
f 448 375 447
f 377 448 375
f 449 377 448
f 379 449 377
f 450 379 449
f 381 450 379
f 451 381 450
f 383 451 381
f 452 383 451
f 385 452 383
f 453 385 452
f 387 453 385
f 454 387 453
f 389 454 387
f 455 389 454
f 391 455 389
f 456 391 455
f 393 456 391
f 457 393 456
f 395 457 393
f 458 395 457
f 397 458 395
f 459 397 458
f 399 459 397
f 460 399 459
f 401 460 399
f 461 401 460
f 403 461 401
f 462 403 461
f 405 462 403
f 463 405 462
f 407 463 405
f 464 407 463
f 409 464 407
f 465 409 464
f 411 465 409
f 466 411 465
f 413 466 411
f 467 413 466
f 415 467 413
f 468 415 467
f 417 468 415
f 469 417 468
f 419 469 417
f 470 419 469
f 421 470 419
f 471 421 470
f 423 471 421
f 472 423 471
f 425 472 423
f 473 425 472
f 427 473 425
f 474 427 473
f 429 474 427
f 475 429 474
f 431 475 429
f 476 431 475
f 433 476 431
f 477 433 476
f 435 477 433
f 478 435 477
f 437 478 435
f 479 437 478
f 439 479 437
f 480 439 479
f 441 480 439
f 481 441 480
f 363 481 441
f 442 363 481
f 482 483 484
f 485 482 483
f 486 485 482
f 487 486 485
f 488 487 486
f 489 488 487
f 490 489 488
f 491 490 489
f 492 491 490
f 493 492 491
f 484 493 492
f 483 484 493
f 494 495 496
f 497 494 495
f 498 497 494
f 499 498 497
f 500 499 498
f 501 500 499
f 502 501 500
f 503 502 501
f 504 503 502
f 505 504 503
f 506 505 504
f 507 506 505
f 508 507 506
f 509 508 507
f 510 509 508
f 511 510 509
f 512 511 510
f 513 512 511
f 514 513 512
f 515 514 513
f 516 515 514
f 517 516 515
f 518 517 516
f 519 518 517
f 520 519 518
f 521 520 519
f 522 521 520
f 523 522 521
f 524 523 522
f 525 524 523
f 526 525 524
f 527 526 525
f 528 527 526
f 529 528 527
f 530 529 528
f 531 530 529
f 532 531 530
f 533 532 531
f 534 533 532
f 535 534 533
f 536 535 534
f 537 536 535
f 538 537 536
f 539 538 537
f 540 539 538
f 541 540 539
f 542 541 540
f 543 542 541
f 544 543 542
f 545 544 543
f 546 545 544
f 547 546 545
f 548 547 546
f 549 548 547
f 550 549 548
f 551 550 549
f 552 551 550
f 553 552 551
f 554 553 552
f 555 554 553
f 556 555 554
f 557 556 555
f 558 557 556
f 559 558 557
f 560 559 558
f 561 560 559
f 562 561 560
f 563 562 561
f 564 563 562
f 565 564 563
f 566 565 564
f 567 566 565
f 568 567 566
f 569 568 567
f 570 569 568
f 571 570 569
f 572 571 570
f 573 572 571
f 496 573 572
f 495 496 573
f 463 488 462
f 464 488 463
f 465 488 464
f 490 488 465
f 466 490 465
f 467 490 466
f 468 490 467
f 469 490 468
f 470 490 469
f 471 490 470
f 472 490 471
f 492 490 472
f 473 492 472
f 474 492 473
f 475 492 474
f 476 492 475
f 477 492 476
f 478 492 477
f 479 492 478
f 484 492 479
f 480 484 479
f 481 484 480
f 442 484 481
f 443 484 442
f 444 484 443
f 445 484 444
f 482 484 445
f 446 482 445
f 447 482 446
f 448 482 447
f 449 482 448
f 450 482 449
f 451 482 450
f 452 482 451
f 486 482 452
f 453 486 452
f 454 486 453
f 455 486 454
f 456 486 455
f 457 486 456
f 458 486 457
f 459 486 458
f 488 486 459
f 460 488 459
f 461 488 460
f 462 488 461
f 536 534 489
f 538 536 489
f 540 538 489
f 491 540 489
f 542 540 491
f 544 542 491
f 546 544 491
f 548 546 491
f 550 548 491
f 552 550 491
f 554 552 491
f 493 554 491
f 556 554 493
f 558 556 493
f 560 558 493
f 562 560 493
f 564 562 493
f 566 564 493
f 568 566 493
f 483 568 493
f 570 568 483
f 572 570 483
f 496 572 483
f 494 496 483
f 498 494 483
f 500 498 483
f 485 500 483
f 502 500 485
f 504 502 485
f 506 504 485
f 508 506 485
f 510 508 485
f 512 510 485
f 514 512 485
f 487 514 485
f 516 514 487
f 518 516 487
f 520 518 487
f 522 520 487
f 524 522 487
f 526 524 487
f 528 526 487
f 489 528 487
f 530 528 489
f 532 530 489
f 534 532 489
f 404 574 402
f 406 574 404
f 408 574 406
f 410 574 408
f 412 574 410
f 414 574 412
f 416 574 414
f 418 574 416
f 420 574 418
f 422 574 420
f 424 574 422
f 426 574 424
f 428 574 426
f 430 574 428
f 432 574 430
f 434 574 432
f 436 574 434
f 438 574 436
f 440 574 438
f 364 574 440
f 362 364 574
f 366 574 362
f 368 574 366
f 370 574 368
f 372 574 370
f 374 574 372
f 376 574 374
f 378 574 376
f 380 574 378
f 382 574 380
f 384 574 382
f 386 574 384
f 388 574 386
f 390 574 388
f 392 574 390
f 394 574 392
f 396 574 394
f 398 574 396
f 400 574 398
f 402 574 400
f 537 575 535
f 539 575 537
f 541 575 539
f 543 575 541
f 545 575 543
f 547 575 545
f 549 575 547
f 551 575 549
f 553 575 551
f 555 575 553
f 557 575 555
f 559 575 557
f 561 575 559
f 563 575 561
f 565 575 563
f 567 575 565
f 569 575 567
f 571 575 569
f 573 575 571
f 495 575 573
f 497 495 575
f 499 575 497
f 501 575 499
f 503 575 501
f 505 575 503
f 507 575 505
f 509 575 507
f 511 575 509
f 513 575 511
f 515 575 513
f 517 575 515
f 519 575 517
f 521 575 519
f 523 575 521
f 525 575 523
f 527 575 525
f 529 575 527
f 531 575 529
f 533 575 531
f 535 575 533
f 576 577 578
f 577 579 578
f 579 580 578
f 581 580 578
f 581 582 578
f 581 583 580
f 581 582 584
f 585 583 580
f 586 581 583
f 581 587 584
f 588 585 580
f 581 587 589
f 590 588 580
f 581 591 589
f 592 590 580
f 581 591 593
f 594 592 580
f 581 595 593
f 581 595 596
f 581 597 596
f 581 598 597
f 581 599 598
f 600 599 598
f 600 599 601
f 602 601 600
f 602 600 603
f 602 604 603
f 602 604 605
f 604 606 605
f 604 606 607
f 608 606 607
f 608 607 609
f 608 609 610
f 609 611 610
f 608 610 612
f 610 613 612
f 608 612 614
f 612 615 614
f 608 614 616
f 614 617 616
f 608 616 618
f 616 619 618
f 620 608 618
f 620 608 621
f 620 622 621
f 620 622 623
f 620 624 623
f 620 624 625
f 620 626 625
f 620 626 627
f 620 628 627
f 629 628 627
f 630 631 632
f 633 630 631
f 634 633 630
f 635 634 633
f 636 635 634
f 637 636 635
f 638 637 636
f 639 638 637
f 640 639 638
f 641 640 639
f 642 641 640
f 643 642 641
f 644 643 642
f 645 644 643
f 646 645 644
f 647 646 645
f 648 647 646
f 649 648 647
f 650 649 648
f 651 650 649
f 652 651 650
f 653 652 651
f 654 653 652
f 655 654 653
f 656 655 654
f 657 656 655
f 658 657 656
f 659 658 657
f 660 659 658
f 661 660 659
f 662 661 660
f 663 662 661
f 664 663 662
f 665 664 663
f 666 665 664
f 667 666 665
f 668 667 666
f 669 668 667
f 670 669 668
f 671 670 669
f 672 671 670
f 673 672 671
f 674 673 672
f 675 674 673
f 676 675 674
f 677 676 675
f 678 677 676
f 679 678 677
f 680 679 678
f 681 680 679
f 682 681 680
f 683 682 681
f 684 683 682
f 685 684 683
f 686 685 684
f 687 686 685
f 688 687 686
f 689 688 687
f 690 689 688
f 691 690 689
f 692 691 690
f 693 692 691
f 694 693 692
f 695 694 693
f 696 695 694
f 697 696 695
f 698 697 696
f 699 698 697
f 700 699 698
f 701 700 699
f 702 701 700
f 703 702 701
f 704 703 702
f 705 704 703
f 706 705 704
f 707 706 705
f 708 707 706
f 709 708 707
f 632 709 708
f 631 632 709
f 668 710 670
f 666 710 668
f 664 710 666
f 662 710 664
f 660 710 662
f 658 710 660
f 656 710 658
f 654 710 656
f 652 710 654
f 650 710 652
f 648 710 650
f 646 710 648
f 644 710 646
f 642 710 644
f 640 710 642
f 638 710 640
f 636 710 638
f 634 710 636
f 630 710 634
f 632 710 630
f 708 632 710
f 706 710 708
f 704 710 706
f 702 710 704
f 700 710 702
f 698 710 700
f 696 710 698
f 694 710 696
f 692 710 694
f 690 710 692
f 688 710 690
f 686 710 688
f 684 710 686
f 682 710 684
f 680 710 682
f 678 710 680
f 676 710 678
f 674 710 676
f 672 710 674
f 670 710 672
f 711 712 713
f 714 711 712
f 715 714 711
f 716 715 714
f 717 716 715
f 718 717 716
f 719 718 717
f 720 719 718
f 721 720 719
f 722 721 720
f 723 722 721
f 724 723 722
f 725 724 723
f 726 725 724
f 727 726 725
f 728 727 726
f 729 728 727
f 730 729 728
f 731 730 729
f 732 731 730
f 733 732 731
f 734 733 732
f 735 734 733
f 736 735 734
f 737 736 735
f 738 737 736
f 739 738 737
f 740 739 738
f 741 740 739
f 742 741 740
f 743 742 741
f 744 743 742
f 745 744 743
f 746 745 744
f 747 746 745
f 748 747 746
f 749 748 747
f 750 749 748
f 751 750 749
f 752 751 750
f 753 752 751
f 754 753 752
f 755 754 753
f 756 755 754
f 757 756 755
f 758 757 756
f 759 758 757
f 760 759 758
f 761 760 759
f 762 761 760
f 763 762 761
f 764 763 762
f 765 764 763
f 766 765 764
f 767 766 765
f 768 767 766
f 769 768 767
f 770 769 768
f 771 770 769
f 772 771 770
f 773 772 771
f 774 773 772
f 775 774 773
f 776 775 774
f 777 776 775
f 778 777 776
f 779 778 777
f 780 779 778
f 781 780 779
f 782 781 780
f 783 782 781
f 784 783 782
f 785 784 783
f 786 785 784
f 787 786 785
f 788 787 786
f 789 788 787
f 790 789 788
f 713 790 789
f 712 713 790
f 714 791 712
f 718 792 716
f 722 793 720
f 726 794 724
f 730 795 728
f 734 796 732
f 738 797 736
f 742 798 740
f 746 799 744
f 750 800 748
f 754 801 752
f 758 802 756
f 762 803 760
f 766 804 764
f 770 805 768
f 774 806 772
f 778 807 776
f 782 808 780
f 786 809 784
f 790 810 788
f 811 812 813
f 811 812 814
f 814 815 812
f 814 815 816
f 816 817 815
f 816 817 818
f 818 819 817
f 818 819 820
f 820 821 819
f 820 821 822
f 822 823 821
f 822 823 824
f 813 825 826
f 813 825 812
f 812 827 825
f 812 827 815
f 815 828 827
f 815 828 817
f 817 829 828
f 817 829 819
f 819 830 829
f 819 830 821
f 821 831 830
f 821 831 823
f 826 832 833
f 826 832 825
f 825 834 832
f 825 834 827
f 827 835 834
f 827 835 828
f 828 836 835
f 828 836 829
f 829 837 836
f 829 837 830
f 830 838 837
f 830 838 831
f 833 839 840
f 833 839 832
f 832 841 839
f 832 841 834
f 834 842 841
f 834 842 835
f 835 843 842
f 835 843 836
f 836 844 843
f 836 844 837
f 837 845 844
f 837 845 838
f 840 846 847
f 840 846 839
f 839 848 846
f 839 848 841
f 841 849 848
f 841 849 842
f 842 850 849
f 842 850 843
f 843 851 850
f 843 851 844
f 844 852 851
f 844 852 845
f 847 853 854
f 847 853 846
f 846 855 853
f 846 855 848
f 848 856 855
f 848 856 849
f 849 857 856
f 849 857 850
f 850 858 857
f 850 858 851
f 851 859 858
f 851 859 852
f 854 860 861
f 854 860 853
f 853 862 860
f 853 862 855
f 855 863 862
f 855 863 856
f 856 864 863
f 856 864 857
f 857 865 864
f 857 865 858
f 858 866 865
f 858 866 859
f 861 867 868
f 861 867 860
f 860 869 867
f 860 869 862
f 862 870 869
f 862 870 863
f 863 871 870
f 863 871 864
f 864 872 871
f 864 872 865
f 865 873 872
f 865 873 866
f 868 874 875
f 868 874 867
f 867 876 874
f 867 876 869
f 869 877 876
f 869 877 870
f 870 878 877
f 870 878 871
f 871 879 878
f 871 879 872
f 872 880 879
f 872 880 873
f 875 881 882
f 875 881 874
f 874 883 881
f 874 883 876
f 876 884 883
f 876 884 877
f 877 885 884
f 877 885 878
f 878 886 885
f 878 886 879
f 879 887 886
f 879 887 880
f 882 888 889
f 882 888 881
f 881 890 888
f 881 890 883
f 883 891 890
f 883 891 884
f 884 892 891
f 884 892 885
f 885 893 892
f 885 893 886
f 886 894 893
f 886 894 887
f 889 895 896
f 889 895 888
f 888 897 895
f 888 897 890
f 890 898 897
f 890 898 891
f 891 899 898
f 891 899 892
f 892 900 899
f 892 900 893
f 893 901 900
f 893 901 894
f 896 902 903
f 896 902 895
f 895 904 902
f 895 904 897
f 897 905 904
f 897 905 898
f 898 906 905
f 898 906 899
f 899 907 906
f 899 907 900
f 900 908 907
f 900 908 901
f 903 909 910
f 903 909 902
f 902 911 909
f 902 911 904
f 904 912 911
f 904 912 905
f 905 913 912
f 905 913 906
f 906 914 913
f 906 914 907
f 907 915 914
f 907 915 908
f 910 916 917
f 910 916 909
f 909 918 916
f 909 918 911
f 911 919 918
f 911 919 912
f 912 920 919
f 912 920 913
f 913 921 920
f 913 921 914
f 914 922 921
f 914 922 915
f 917 923 924
f 917 923 916
f 916 925 923
f 916 925 918
f 918 926 925
f 918 926 919
f 919 927 926
f 919 927 920
f 920 928 927
f 920 928 921
f 921 929 928
f 921 929 922
f 924 930 931
f 924 930 923
f 923 932 930
f 923 932 925
f 925 933 932
f 925 933 926
f 926 934 933
f 926 934 927
f 927 935 934
f 927 935 928
f 928 936 935
f 928 936 929
f 931 937 938
f 931 937 930
f 930 939 937
f 930 939 932
f 932 940 939
f 932 940 933
f 933 941 940
f 933 941 934
f 934 942 941
f 934 942 935
f 935 943 942
f 935 943 936
f 938 944 945
f 938 944 937
f 937 946 944
f 937 946 939
f 939 947 946
f 939 947 940
f 940 948 947
f 940 948 941
f 941 949 948
f 941 949 942
f 942 950 949
f 942 950 943
f 945 951 952
f 945 951 944
f 944 953 951
f 944 953 946
f 946 954 953
f 946 954 947
f 947 955 954
f 947 955 948
f 948 956 955
f 948 956 949
f 949 957 956
f 949 957 950
f 952 958 959
f 952 958 951
f 951 960 958
f 951 960 953
f 953 961 960
f 953 961 954
f 954 962 961
f 954 962 955
f 955 963 962
f 955 963 956
f 956 964 963
f 956 964 957
f 959 965 966
f 959 965 958
f 958 967 965
f 958 967 960
f 960 968 967
f 960 968 961
f 961 969 968
f 961 969 962
f 962 970 969
f 962 970 963
f 963 971 970
f 963 971 964
f 966 972 973
f 966 972 965
f 965 974 972
f 965 974 967
f 967 975 974
f 967 975 968
f 968 976 975
f 968 976 969
f 969 977 976
f 969 977 970
f 970 978 977
f 970 978 971
f 973 979 980
f 973 979 972
f 972 981 979
f 972 981 974
f 974 982 981
f 974 982 975
f 975 983 982
f 975 983 976
f 976 984 983
f 976 984 977
f 977 985 984
f 977 985 978
f 980 986 987
f 980 986 979
f 979 988 986
f 979 988 981
f 981 989 988
f 981 989 982
f 982 990 989
f 982 990 983
f 983 991 990
f 983 991 984
f 984 992 991
f 984 992 985
f 987 993 994
f 987 993 986
f 986 995 993
f 986 995 988
f 988 996 995
f 988 996 989
f 989 997 996
f 989 997 990
f 990 998 997
f 990 998 991
f 991 999 998
f 991 999 992
f 994 1000 1001
f 994 1000 993
f 993 1002 1000
f 993 1002 995
f 995 1003 1002
f 995 1003 996
f 996 1004 1003
f 996 1004 997
f 997 1005 1004
f 997 1005 998
f 998 1006 1005
f 998 1006 999
f 1001 1007 1008
f 1001 1007 1000
f 1000 1009 1007
f 1000 1009 1002
f 1002 1010 1009
f 1002 1010 1003
f 1003 1011 1010
f 1003 1011 1004
f 1004 1012 1011
f 1004 1012 1005
f 1005 1013 1012
f 1005 1013 1006
f 1008 1014 1015
f 1008 1014 1007
f 1007 1016 1014
f 1007 1016 1009
f 1009 1017 1016
f 1009 1017 1010
f 1010 1018 1017
f 1010 1018 1011
f 1011 1019 1018
f 1011 1019 1012
f 1012 1020 1019
f 1012 1020 1013
f 1015 1021 1022
f 1015 1021 1014
f 1014 1023 1021
f 1014 1023 1016
f 1016 1024 1023
f 1016 1024 1017
f 1017 1025 1024
f 1017 1025 1018
f 1018 1026 1025
f 1018 1026 1019
f 1019 1027 1026
f 1019 1027 1020
f 1022 1028 1029
f 1022 1028 1021
f 1021 1030 1028
f 1021 1030 1023
f 1023 1031 1030
f 1023 1031 1024
f 1024 1032 1031
f 1024 1032 1025
f 1025 1033 1032
f 1025 1033 1026
f 1026 1034 1033
f 1026 1034 1027
f 1029 1035 1036
f 1029 1035 1028
f 1028 1037 1035
f 1028 1037 1030
f 1030 1038 1037
f 1030 1038 1031
f 1031 1039 1038
f 1031 1039 1032
f 1032 1040 1039
f 1032 1040 1033
f 1033 1041 1040
f 1033 1041 1034
f 1036 1042 1043
f 1036 1042 1035
f 1035 1044 1042
f 1035 1044 1037
f 1037 1045 1044
f 1037 1045 1038
f 1038 1046 1045
f 1038 1046 1039
f 1039 1047 1046
f 1039 1047 1040
f 1040 1048 1047
f 1040 1048 1041
f 1043 1049 1050
f 1043 1049 1042
f 1042 1051 1049
f 1042 1051 1044
f 1044 1052 1051
f 1044 1052 1045
f 1045 1053 1052
f 1045 1053 1046
f 1046 1054 1053
f 1046 1054 1047
f 1047 1055 1054
f 1047 1055 1048
f 1050 1056 1057
f 1050 1056 1049
f 1049 1058 1056
f 1049 1058 1051
f 1051 1059 1058
f 1051 1059 1052
f 1052 1060 1059
f 1052 1060 1053
f 1053 1061 1060
f 1053 1061 1054
f 1054 1062 1061
f 1054 1062 1055
f 1057 1063 1064
f 1057 1063 1056
f 1056 1065 1063
f 1056 1065 1058
f 1058 1066 1065
f 1058 1066 1059
f 1059 1067 1066
f 1059 1067 1060
f 1060 1068 1067
f 1060 1068 1061
f 1061 1069 1068
f 1061 1069 1062
f 1064 1070 1071
f 1064 1070 1063
f 1063 1072 1070
f 1063 1072 1065
f 1065 1073 1072
f 1065 1073 1066
f 1066 1074 1073
f 1066 1074 1067
f 1067 1075 1074
f 1067 1075 1068
f 1068 1076 1075
f 1068 1076 1069
f 1071 1077 1078
f 1071 1077 1070
f 1070 1079 1077
f 1070 1079 1072
f 1072 1080 1079
f 1072 1080 1073
f 1073 1081 1080
f 1073 1081 1074
f 1074 1082 1081
f 1074 1082 1075
f 1075 1083 1082
f 1075 1083 1076
f 1078 1084 1085
f 1078 1084 1077
f 1077 1086 1084
f 1077 1086 1079
f 1079 1087 1086
f 1079 1087 1080
f 1080 1088 1087
f 1080 1088 1081
f 1081 1089 1088
f 1081 1089 1082
f 1082 1090 1089
f 1082 1090 1083
f 1085 814 811
f 1085 814 1084
f 1084 816 814
f 1084 816 1086
f 1086 818 816
f 1086 818 1087
f 1087 820 818
f 1087 820 1088
f 1088 822 820
f 1088 822 1089
f 1089 824 822
f 1089 824 1090
f 957 964 631
f 633 957 631
f 950 957 633
f 635 950 633
f 943 950 635
f 637 943 635
f 936 943 637
f 639 936 637
f 929 936 639
f 641 929 639
f 922 929 641
f 643 922 641
f 915 922 643
f 645 915 643
f 908 915 645
f 647 908 645
f 901 908 647
f 649 901 647
f 894 901 649
f 651 894 649
f 887 894 651
f 653 887 651
f 880 887 653
f 655 880 653
f 873 880 655
f 657 873 655
f 866 873 657
f 659 866 657
f 859 866 659
f 661 859 659
f 852 859 661
f 663 852 661
f 845 852 663
f 665 845 663
f 838 845 665
f 667 838 665
f 831 838 667
f 669 831 667
f 823 831 669
f 671 823 669
f 824 823 671
f 673 824 671
f 1090 824 673
f 675 1090 673
f 1083 1090 675
f 677 1083 675
f 1076 1083 677
f 679 1076 677
f 1069 1076 679
f 681 1069 679
f 1062 1069 681
f 683 1062 681
f 1055 1062 683
f 685 1055 683
f 1048 1055 685
f 687 1048 685
f 1041 1048 687
f 689 1041 687
f 1034 1041 689
f 691 1034 689
f 1027 1034 691
f 693 1027 691
f 1020 1027 693
f 695 1020 693
f 1013 1020 695
f 697 1013 695
f 1006 1013 697
f 699 1006 697
f 999 1006 699
f 701 999 699
f 992 999 701
f 703 992 701
f 985 992 703
f 705 985 703
f 978 985 705
f 707 978 705
f 971 978 707
f 709 971 707
f 964 971 709
f 631 964 709
f 1078 755 1085
f 757 755 1078
f 759 757 1078
f 1071 759 1078
f 1064 759 1071
f 761 759 1064
f 763 761 1064
f 1057 763 1064
f 1050 763 1057
f 765 763 1050
f 767 765 1050
f 1043 767 1050
f 1036 767 1043
f 769 767 1036
f 771 769 1036
f 1029 771 1036
f 1022 771 1029
f 773 771 1022
f 775 773 1022
f 1015 775 1022
f 1008 775 1015
f 777 775 1008
f 779 777 1008
f 1001 779 1008
f 994 779 1001
f 781 779 994
f 783 781 994
f 987 783 994
f 980 783 987
f 785 783 980
f 787 785 980
f 973 787 980
f 966 787 973
f 789 787 966
f 713 789 966
f 959 713 966
f 952 713 959
f 711 713 952
f 715 711 952
f 945 715 952
f 938 715 945
f 717 715 938
f 719 717 938
f 931 719 938
f 924 719 931
f 721 719 924
f 723 721 924
f 917 723 924
f 910 723 917
f 725 723 910
f 727 725 910
f 903 727 910
f 896 727 903
f 729 727 896
f 731 729 896
f 889 731 896
f 882 731 889
f 733 731 882
f 735 733 882
f 875 735 882
f 868 735 875
f 737 735 868
f 739 737 868
f 861 739 868
f 854 739 861
f 741 739 854
f 743 741 854
f 847 743 854
f 840 743 847
f 745 743 840
f 747 745 840
f 833 747 840
f 826 747 833
f 749 747 826
f 751 749 826
f 813 751 826
f 811 751 813
f 753 751 811
f 755 753 811
f 1085 755 811
f 782 809 784
f 810 788 786
f 791 712 790
f 792 716 714
f 793 720 718
f 794 724 722
f 795 728 726
f 796 732 730
f 797 736 734
f 798 740 738
f 799 744 742
f 800 748 746
f 801 752 750
f 802 756 754
f 803 760 758
f 804 764 762
f 805 768 766
f 806 772 770
f 807 776 774
f 808 780 778
f 1091 1092 1093
f 1094 1092 1091
f 1095 1092 1094
f 1096 1092 1095
f 1097 1092 1096
f 1098 1092 1097
f 1099 1092 1098
f 1100 1092 1099
f 1101 1092 1100
f 1102 1092 1101
f 1103 1092 1102
f 1104 1092 1103
f 1105 1092 1104
f 1106 1092 1105
f 1107 1092 1106
f 1108 1092 1107
f 1109 1092 1108
f 1110 1092 1109
f 1111 1092 1110
f 1112 1092 1111
f 1113 1112 1092
f 1114 1092 1113
f 1115 1092 1114
f 1116 1092 1115
f 1117 1092 1116
f 1118 1092 1117
f 1119 1092 1118
f 1120 1092 1119
f 1121 1092 1120
f 1122 1092 1121
f 1123 1092 1122
f 1124 1092 1123
f 1125 1092 1124
f 1126 1092 1125
f 1127 1092 1126
f 1128 1092 1127
f 1129 1092 1128
f 1130 1092 1129
f 1131 1092 1130
f 1093 1092 1131
f 714 791 1112
f 1111 714 1112
f 792 714 1111
f 1110 792 1111
f 718 792 1110
f 1109 718 1110
f 793 718 1109
f 1108 793 1109
f 722 793 1108
f 1107 722 1108
f 794 722 1107
f 1106 794 1107
f 726 794 1106
f 1105 726 1106
f 795 726 1105
f 1104 795 1105
f 730 795 1104
f 1103 730 1104
f 796 730 1103
f 1102 796 1103
f 734 796 1102
f 1101 734 1102
f 797 734 1101
f 1100 797 1101
f 738 797 1100
f 1099 738 1100
f 798 738 1099
f 1098 798 1099
f 742 798 1098
f 1097 742 1098
f 799 742 1097
f 1096 799 1097
f 746 799 1096
f 1095 746 1096
f 800 746 1095
f 1094 800 1095
f 750 800 1094
f 1091 750 1094
f 801 750 1091
f 1093 801 1091
f 754 801 1093
f 1131 754 1093
f 802 754 1131
f 1130 802 1131
f 758 802 1130
f 1129 758 1130
f 803 758 1129
f 1128 803 1129
f 762 803 1128
f 1127 762 1128
f 804 762 1127
f 1126 804 1127
f 766 804 1126
f 1125 766 1126
f 805 766 1125
f 1124 805 1125
f 770 805 1124
f 1123 770 1124
f 806 770 1123
f 1122 806 1123
f 774 806 1122
f 1121 774 1122
f 807 774 1121
f 1120 807 1121
f 778 807 1120
f 1119 778 1120
f 808 778 1119
f 1118 808 1119
f 782 808 1118
f 1117 782 1118
f 809 782 1117
f 1116 809 1117
f 786 809 1116
f 1115 786 1116
f 810 786 1115
f 1114 810 1115
f 790 810 1114
f 1113 790 1114
f 791 790 1113
f 1112 791 1113
f 1132 577 1133
f 1134 578 1132
f 1133 580 1135
f 577 579 1133
f 1132 576 577
f 1136 584 1134
f 578 1132 576
f 1134 582 578
f 1135 592 1137
f 580 594 1135
f 1133 579 580
f 1138 589 1136
f 584 582 1134
f 1136 587 584
f 1137 588 1139
f 592 590 1137
f 1135 594 592
f 1140 593 1138
f 589 587 1136
f 1138 591 589
f 1139 583 1141
f 588 585 1139
f 1137 590 588
f 1142 596 1140
f 593 591 1138
f 1140 595 593
f 1141 581 1143
f 583 586 1141
f 1139 585 583
f 1144 603 1142
f 596 595 1140
f 1142 597 596
f 1143 605 1145
f 601 581 1143
f 1141 586 581
f 1146 609 1144
f 600 603 1142
f 1144 604 603
f 598 597 1142
f 1145 621 1147
f 606 605 1145
f 1143 602 605
f 601 602 1143
f 601 599 581
f 1148 610 1146
f 607 609 1144
f 1146 611 609
f 598 600 1142
f 607 604 1144
f 1147 623 1149
f 621 622 1147
f 1145 608 621
f 606 608 1145
f 1150 612 1148
f 610 611 1146
f 1148 613 610
f 1149 625 1151
f 623 624 1149
f 1147 622 623
f 1152 614 1150
f 612 613 1148
f 1150 615 612
f 1151 627 1153
f 625 626 1151
f 1149 624 625
f 1154 616 1152
f 614 615 1150
f 1152 617 614
f 1153 628 1155
f 627 629 1153
f 1151 626 627
f 1155 618 1154
f 616 617 1152
f 1154 619 616
f 628 620 1155
f 1153 629 628
f 618 619 1154
f 1155 620 618
