# Original shape: m1178.obj
# No processing applied - exact copy of source file
# Generated on 2025-10-13 11:20:18

v 0.238222 0.138472 0.236111
v 0.236111 0.144278 0.288889
v 0.246667 0.145861 0.288889
v 0.222917 0.108917 0.236111
v 0.222917 0.119472 0.288889
v 0.255111 0.138472 0.236111
v 0.270417 0.108917 0.236111
v 0.257750 0.108917 0.192306
v 0.246667 0.140583 0.236111
v 0.246667 0.108917 0.183333
v 0.257222 0.144278 0.288889
v 0.270417 0.119472 0.288889
v 0.235583 0.108917 0.192306
v 0.220278 0.071972 0.236111
v 0.220278 0.071972 0.288889
v 0.219222 0.095722 0.288889
v 0.278333 0.049278 0.697917
v 0.281500 0.049278 0.697917
v 0.282028 0.049806 0.761250
v 0.278333 0.049806 0.761250
v 0.282556 0.050333 0.814028
v 0.263028 0.047694 0.761250
v 0.258806 0.122111 0.815611
v 0.254583 0.114194 0.895833
v 0.264083 0.108917 0.817194
v 0.246667 0.121583 0.820361
v 0.246667 0.114194 0.895833
v 0.283083 0.127389 0.620861
v 0.295750 0.115250 0.583389
v 0.296806 0.116306 0.548028
v 0.300500 0.118417 0.435611
v 0.302083 0.119472 0.405000
v 0.294167 0.124750 0.443528
v 0.246667 0.130028 0.658333
v 0.230306 0.130556 0.657806
v 0.230306 0.130028 0.726944
v 0.228194 0.124750 0.658333
v 0.228194 0.124750 0.726944
v 0.222917 0.130028 0.378611
v 0.218694 0.102056 0.378611
v 0.215000 0.119472 0.405000
v 0.220278 0.071972 0.378611
v 0.215000 0.082528 0.405000
v 0.191250 0.082528 0.405000
v 0.199167 0.071972 0.523750
v 0.194417 0.078306 0.455667
v 0.192833 0.118417 0.435611
v 0.270417 0.130028 0.378611
v 0.274639 0.102056 0.378611
v 0.274111 0.099417 0.344833
v 0.210250 0.127389 0.620861
v 0.211306 0.126861 0.699500
v 0.197583 0.115250 0.583389
v 0.199167 0.114194 0.671528
v 0.222917 0.130028 0.500000
v 0.208139 0.131083 0.483111
v 0.274111 0.095722 0.288889
v 0.273583 0.089389 0.236111
v 0.271472 0.100472 0.236111
v 0.270944 0.089389 0.209722
v 0.273056 0.071972 0.236111
v 0.273056 0.071972 0.288889
v 0.273056 0.071972 0.304722
v 0.273056 0.071972 0.321083
v 0.246667 0.108917 0.975000
v 0.236639 0.083056 0.814028
v 0.242972 0.069333 0.814028
v 0.246667 0.069333 0.814028
v 0.280972 0.048750 0.639861
v 0.236639 0.055083 0.814028
v 0.246667 0.045583 0.639861
v 0.201806 0.071972 0.639861
v 0.202861 0.069333 0.814028
v 0.208667 0.083056 0.814028
v 0.238750 0.114194 0.895833
v 0.282556 0.046639 0.523750
v 0.234000 0.099417 0.894250
v 0.222917 0.089389 0.814028
v 0.229250 0.108917 0.817194
v 0.294167 0.071972 0.523750
v 0.291528 0.071972 0.639861
v 0.265667 0.054556 0.379139
v 0.246667 0.042944 0.523750
v 0.230833 0.060361 0.183333
v 0.226611 0.058778 0.236639
v 0.246667 0.059833 0.183333
v 0.246667 0.058250 0.236639
v 0.226611 0.057194 0.288889
v 0.246667 0.056139 0.288889
v 0.246667 0.052972 0.379139
v 0.227667 0.054556 0.379139
v 0.210778 0.046639 0.523750
v 0.212361 0.048750 0.639861
v 0.238750 0.046639 0.697917
v 0.215000 0.049278 0.697917
v 0.273056 0.071972 0.378611
v 0.266722 0.057194 0.288889
v 0.266722 0.058778 0.236639
v 0.262500 0.060361 0.183333
v 0.220278 0.071972 0.304722
v 0.267778 0.071972 0.183333
v 0.259333 0.099417 0.894250
v 0.270417 0.089389 0.814028
v 0.256694 0.083056 0.814028
v 0.246667 0.111028 0.945972
v 0.284667 0.083056 0.814028
v 0.290472 0.069333 0.814028
v 0.250361 0.069333 0.814028
v 0.256694 0.055083 0.814028
v 0.225556 0.071972 0.183333
v 0.219750 0.089389 0.236111
v 0.222389 0.089389 0.209722
v 0.221861 0.100472 0.236111
v 0.220278 0.107333 0.342194
v 0.219222 0.099417 0.344833
v 0.270417 0.130028 0.500000
v 0.285194 0.131083 0.483111
v 0.278333 0.119472 0.405000
v 0.282028 0.126861 0.699500
v 0.294167 0.114194 0.671528
v 0.265139 0.124750 0.658333
v 0.265139 0.124750 0.726944
v 0.199167 0.124750 0.443528
v 0.191250 0.119472 0.405000
v 0.196528 0.116306 0.548028
v 0.234528 0.122111 0.815611
v 0.298917 0.078306 0.455667
v 0.278333 0.082528 0.405000
v 0.302083 0.082528 0.405000
v 0.230306 0.047694 0.761250
v 0.215000 0.049806 0.761250
v 0.222917 0.049278 0.814028
v 0.210778 0.050333 0.814028
v 0.211306 0.049806 0.761250
v 0.211833 0.049278 0.697917
v 0.246667 0.145861 0.378611
v 0.246667 0.140583 0.500000
v 0.265139 0.139528 0.500000
v 0.262500 0.144278 0.378611
v 0.263028 0.130028 0.726944
v 0.246667 0.130028 0.726944
v 0.263028 0.130556 0.657806
v 0.230833 0.144278 0.378611
v 0.228194 0.139528 0.500000
v 0.220278 0.071972 0.321083
v 0.219750 0.086750 0.340611
v 0.219750 0.080944 0.327417
v 0.254583 0.046639 0.697917
v 0.270417 0.049278 0.814028
v 0.273583 0.080944 0.327417
v 0.273583 0.086750 0.340611
v 0.298389 0.117361 0.463056
v 0.262500 0.071972 0.120000
v 0.258278 0.061417 0.120000
v 0.194944 0.117361 0.463056
v 0.246667 0.061417 0.120000
v 0.235056 0.061417 0.120000
v 0.272528 0.106278 0.313167
v 0.272000 0.113139 0.328472
v 0.273056 0.107333 0.342194
v 0.274111 0.096778 0.310528
v 0.273583 0.085694 0.314750
v 0.220806 0.106278 0.313167
v 0.221333 0.113139 0.328472
v 0.219222 0.096778 0.310528
v 0.219750 0.085694 0.314750
v 0.228722 0.108917 0.183333
v 0.264611 0.108917 0.183333
v 0.230833 0.071972 0.120000
v 0.225028 0.089389 0.183333
v 0.246667 0.093083 0.120000
v 0.234528 0.093611 0.120000
v 0.268306 0.089389 0.183333
v 0.258806 0.093611 0.120000
v 0.257750 0.082000 0.824583
v 0.270417 0.087806 0.824583
v 0.283611 0.082000 0.824583
v 0.241389 0.069333 0.824583
v 0.235583 0.056139 0.824583
v 0.251944 0.069333 0.824583
v 0.257750 0.056139 0.824583
v 0.204444 0.069333 0.824583
v 0.288889 0.069333 0.824583
v 0.281500 0.051389 0.824583
v 0.211833 0.051389 0.824583
v 0.270417 0.050861 0.824583
v 0.222917 0.087806 0.824583
v 0.209722 0.082000 0.824583
v 0.235583 0.082000 0.824583
v 0.222917 0.050861 0.824583
v 0.025000 0.085167 0.719028
v 0.025000 0.085167 0.595000
v 0.025000 0.077250 0.595000
v 0.032917 0.085167 0.595000
v 0.032917 0.077250 0.595000
v 0.032917 0.085167 0.719028
v 0.032917 0.077250 0.719028
v 0.025000 0.077250 0.719028
v 0.468333 0.085167 0.719028
v 0.468333 0.085167 0.595000
v 0.460417 0.085167 0.595000
v 0.460417 0.077250 0.719028
v 0.460417 0.077250 0.595000
v 0.468333 0.077250 0.595000
v 0.460417 0.085167 0.719028
v 0.468333 0.077250 0.719028
v 0.246667 0.071972 0.025000
v 0.280972 0.035028 0.758611
v 0.279917 0.025000 0.708472
v 0.326361 0.110500 0.524806
v 0.358028 0.102056 0.645139
v 0.333750 0.106806 0.681556
v 0.215000 0.119472 0.373333
v 0.215000 0.082528 0.378611
v 0.246667 0.172250 0.893194
v 0.127917 0.071972 0.975000
v 0.127389 0.071972 0.934889
v 0.230306 0.106278 0.840417
v 0.243500 0.108389 0.949139
v 0.365417 0.071972 0.975000
v 0.365944 0.071972 0.934889
v 0.263028 0.106278 0.840417
v 0.249833 0.108389 0.949139
v 0.166972 0.110500 0.524806
v 0.135306 0.102056 0.645139
v 0.159583 0.106806 0.681556
v 0.212361 0.035028 0.758611
v 0.213417 0.025000 0.708472
v 0.278333 0.119472 0.373333
v 0.278333 0.082528 0.378611
v 0.120528 0.099417 0.691583
v 0.101000 0.095194 0.662028
v 0.032917 0.082528 0.650417
v 0.032917 0.082528 0.713750
v 0.094139 0.094139 0.647778
v 0.088333 0.094139 0.612944
v 0.088333 0.094139 0.602389
v 0.115778 0.098361 0.667306
v 0.099417 0.094667 0.632472
v 0.113667 0.097833 0.626139
v 0.111028 0.098889 0.587611
v 0.372806 0.099417 0.691583
v 0.392333 0.095194 0.662028
v 0.460417 0.082528 0.650417
v 0.460417 0.082528 0.713750
v 0.399194 0.094139 0.647778
v 0.405000 0.094139 0.612944
v 0.405000 0.094139 0.602389
v 0.377556 0.098361 0.667306
v 0.393917 0.094667 0.632472
v 0.379667 0.097833 0.626139
v 0.382306 0.098889 0.587611
v 0.246667 0.214472 0.880000
v 0.246667 0.214472 0.938056
v 0.364361 0.100472 0.630889
v 0.362778 0.101000 0.660444
v 0.128972 0.100472 0.630889
v 0.130556 0.101000 0.660444
f 1 2 3
f 4 5 2
f 6 7 8
f 9 6 8
f 9 8 10
f 6 11 12
f 9 3 11
f 13 4 1
f 13 1 9
f 10 13 9
f 14 15 16
f 17 18 19
f 20 19 21
f 17 20 22
f 23 24 25
f 26 27 24
f 28 29 30
f 31 32 33
f 34 35 36
f 35 37 38
f 39 40 41
f 42 43 40
f 40 43 41
f 41 43 44
f 45 46 44
f 43 42 45
f 44 46 47
f 48 49 50
f 51 52 38
f 53 54 52
f 39 41 55
f 41 56 55
f 57 58 59
f 59 58 60
f 60 58 61
f 62 63 64
f 57 63 62
f 65 66 67
f 65 67 68
f 57 63 62
f 69 18 17
f 67 70 71
f 68 67 71
f 72 73 74
f 27 75 65
f 76 69 71
f 65 77 78
f 79 78 77
f 75 77 65
f 80 81 69
f 82 76 83
f 84 85 14
f 86 87 85
f 85 88 15
f 87 89 88
f 89 90 91
f 91 92 45
f 90 83 92
f 92 93 72
f 83 71 93
f 71 94 95
f 96 80 76
f 97 82 90
f 98 97 89
f 61 62 97
f 99 98 87
f 15 100 16
f 101 61 98
f 15 100 16
f 88 91 42
f 65 102 24
f 24 102 103
f 104 103 102
f 105 65 24
f 106 107 81
f 71 108 68
f 71 109 108
f 68 108 65
f 110 14 111
f 112 111 113
f 113 111 16
f 108 104 65
f 114 115 40
f 116 117 118
f 116 118 48
f 28 119 120
f 121 122 119
f 123 124 47
f 125 53 51
f 126 75 27
f 79 75 126
f 32 31 127
f 80 96 128
f 128 129 127
f 32 129 128
f 118 128 49
f 94 130 131
f 130 132 133
f 131 134 135
f 49 128 96
f 118 49 48
f 136 137 138
f 139 138 116
f 140 122 121
f 141 140 142
f 143 144 137
f 58 57 62
f 39 55 144
f 145 146 147
f 145 42 146
f 42 40 115
f 145 146 147
f 145 42 146
f 42 40 115
f 71 148 22
f 22 149 109
f 93 135 72
f 135 134 73
f 134 133 73
f 81 18 69
f 81 107 19
f 107 21 19
f 70 130 94
f 70 132 130
f 150 151 64
f 151 96 64
f 151 50 49
f 150 151 64
f 151 96 64
f 151 50 49
f 31 152 80
f 23 25 122
f 56 51 37
f 5 39 143
f 153 101 99
f 154 99 86
f 155 125 51
f 123 47 155
f 156 86 84
f 157 84 110
f 36 38 79
f 72 74 78
f 45 53 125
f 141 36 126
f 11 139 48
f 53 45 72
f 12 158 57
f 12 159 158
f 12 48 159
f 48 160 159
f 158 161 57
f 57 161 162
f 162 64 63
f 162 150 64
f 57 161 162
f 162 64 63
f 162 150 64
f 16 163 5
f 163 164 5
f 164 39 5
f 164 114 39
f 16 165 163
f 100 166 165
f 100 145 166
f 145 147 166
f 100 166 165
f 100 145 166
f 145 147 166
f 167 13 10
f 167 4 13
f 10 8 168
f 8 7 168
f 103 106 81
f 144 55 37
f 137 144 35
f 169 110 170
f 152 30 29
f 81 80 29
f 29 120 81
f 103 81 120
f 25 103 122
f 103 119 122
f 103 120 119
f 171 172 167
f 172 169 170
f 26 23 140
f 117 152 31
f 46 45 155
f 117 28 30
f 116 121 28
f 72 54 53
f 54 72 78
f 38 78 79
f 38 52 78
f 52 54 78
f 110 112 170
f 170 112 113
f 3 136 139
f 168 7 59
f 173 60 101
f 142 121 116
f 34 142 138
f 113 16 5
f 173 101 153
f 10 168 174
f 168 173 153
f 2 143 136
f 7 12 57
f 165 115 114
f 165 166 147
f 50 151 150
f 158 159 160
f 175 176 103
f 176 177 106
f 70 67 178
f 132 70 179
f 180 175 104
f 181 180 108
f 74 73 182
f 107 183 184
f 133 185 182
f 186 181 109
f 177 183 107
f 66 78 187
f 78 74 188
f 21 184 186
f 67 66 189
f 132 190 185
f 191 192 193
f 192 194 195
f 194 196 197
f 198 193 195
f 196 194 192
f 199 200 201
f 202 203 204
f 203 202 205
f 204 203 201
f 206 204 200
f 207 157 169
f 156 157 207
f 207 154 156
f 207 169 172
f 207 172 171
f 174 153 207
f 171 174 207
f 153 154 207
f 187 188 182
f 175 180 181
f 17 20 208
f 209 208 20
f 30 29 120
f 210 211 212
f 213 41 43
f 214 43 41
f 27 215 26
f 26 215 27
f 56 123 124
f 41 124 123
f 216 217 218
f 219 218 217
f 220 221 222
f 223 222 221
f 117 33 32
f 118 32 33
f 27 215 26
f 26 215 27
f 125 53 54
f 224 225 226
f 95 131 227
f 228 227 131
f 229 118 128
f 230 128 118
f 231 232 233
f 234 233 232
f 232 235 233
f 233 235 232
f 235 236 233
f 233 236 235
f 236 237 233
f 233 237 236
f 231 238 232
f 232 238 231
f 235 239 236
f 236 239 235
f 239 240 241
f 236 241 240
f 242 243 244
f 245 244 243
f 243 246 244
f 244 246 243
f 246 247 244
f 244 247 246
f 247 248 244
f 244 248 247
f 242 249 243
f 243 249 242
f 246 250 247
f 247 250 246
f 250 251 252
f 247 252 251
f 155 125 224
f 224 125 155
f 152 30 210
f 210 30 152
f 141 26 215
f 253 215 26
f 215 254 253
f 253 254 215
f 215 27 105
f 254 105 27
f 211 255 252
f 210 252 255
f 255 251 252
f 252 251 255
f 212 256 211
f 211 256 212
f 212 242 256
f 256 242 212
f 242 249 256
f 256 249 242
f 141 26 215
f 253 215 26
f 215 254 253
f 253 254 215
f 215 27 105
f 254 105 27
f 225 257 241
f 224 241 257
f 257 240 241
f 241 240 257
f 226 258 225
f 225 258 226
f 226 231 258
f 258 231 226
f 231 238 258
f 258 238 231
f 249 243 246
f 256 211 255
f 238 232 235
f 258 225 257
f 1 3 9
f 4 2 1
f 6 12 7
f 9 11 6
f 14 16 111
f 17 19 20
f 20 21 149
f 20 149 22
f 17 22 148
f 26 24 23
f 34 36 141
f 35 38 36
f 41 44 124
f 45 44 43
f 44 47 124
f 48 50 160
f 51 38 37
f 53 52 51
f 60 61 101
f 62 64 96
f 62 96 82
f 62 82 97
f 69 17 148
f 69 148 71
f 27 65 105
f 76 71 83
f 65 78 66
f 79 77 75
f 80 69 76
f 82 83 90
f 84 14 110
f 86 85 84
f 85 15 14
f 87 88 85
f 89 91 88
f 91 45 42
f 90 92 91
f 92 72 45
f 83 93 92
f 71 95 135
f 71 135 93
f 96 76 82
f 97 90 89
f 98 89 87
f 61 97 98
f 99 87 86
f 101 98 99
f 88 42 145
f 88 145 100
f 88 100 15
f 24 103 25
f 104 102 65
f 105 24 27
f 110 111 112
f 114 40 39
f 28 120 29
f 121 119 28
f 126 27 26
f 32 127 129
f 128 127 80
f 32 128 118
f 94 131 95
f 130 133 134
f 130 134 131
f 131 135 95
f 136 138 139
f 139 116 48
f 140 121 142
f 141 142 34
f 143 137 136
f 58 62 61
f 39 144 143
f 42 115 146
f 42 115 146
f 71 22 109
f 135 73 72
f 81 19 18
f 70 94 71
f 151 49 96
f 151 49 96
f 31 80 127
f 23 122 140
f 56 37 55
f 5 143 2
f 153 99 154
f 154 86 156
f 155 51 56
f 123 155 56
f 156 84 157
f 157 110 169
f 36 79 126
f 45 125 155
f 141 126 26
f 11 48 12
f 57 162 63
f 57 162 63
f 100 165 16
f 100 165 16
f 144 37 35
f 137 35 34
f 152 29 80
f 171 167 10
f 172 170 167
f 26 140 141
f 117 31 33
f 46 155 47
f 117 30 152
f 116 28 117
f 170 113 4
f 170 4 167
f 3 139 11
f 168 59 60
f 168 60 173
f 142 116 138
f 34 138 137
f 113 5 4
f 10 174 171
f 168 153 174
f 2 136 3
f 7 57 59
f 165 114 164
f 165 164 163
f 165 147 146
f 165 146 115
f 50 150 162
f 50 162 161
f 158 160 50
f 158 50 161
f 175 103 104
f 176 106 103
f 70 178 179
f 132 179 190
f 180 104 108
f 181 108 109
f 74 182 188
f 107 184 21
f 133 182 73
f 186 109 149
f 177 107 106
f 66 187 189
f 78 188 187
f 21 186 149
f 67 189 178
f 132 185 133
f 191 193 198
f 192 195 193
f 194 197 195
f 198 195 197
f 196 192 191
f 199 201 205
f 202 204 206
f 203 205 201
f 204 201 200
f 206 200 199
f 187 182 185
f 187 185 190
f 187 190 179
f 187 179 178
f 187 178 189
f 175 181 186
f 175 186 184
f 175 184 183
f 175 183 177
f 175 177 176
f 17 208 209
f 209 20 17
f 30 120 212
f 30 212 211
f 30 211 210
f 210 212 120
f 210 120 29
f 210 29 30
f 213 43 214
f 214 41 213
f 56 124 41
f 41 123 56
f 216 218 219
f 219 217 216
f 220 222 223
f 223 221 220
f 117 32 118
f 118 33 117
f 125 54 226
f 125 226 225
f 125 225 224
f 224 226 54
f 224 54 53
f 224 53 125
f 95 227 228
f 228 131 95
f 229 128 230
f 230 118 229
f 231 233 234
f 234 232 231
f 239 241 236
f 236 240 239
f 242 244 245
f 245 243 242
f 250 252 247
f 247 251 250
f 141 215 253
f 253 26 141
f 215 105 254
f 254 27 215
f 211 252 210
f 210 255 211
f 141 215 253
f 253 26 141
f 215 105 254
f 254 27 215
f 225 241 224
f 224 257 225
f 249 246 250
f 249 250 251
f 249 251 255
f 249 255 211
f 249 211 256
f 256 255 251
f 256 251 250
f 256 250 246
f 256 246 243
f 256 243 249
f 238 235 239
f 238 239 240
f 238 240 257
f 238 257 225
f 238 225 258
f 258 257 240
f 258 240 239
f 258 239 235
f 258 235 232
f 258 232 238
