# Original shape: m606.obj
# No processing applied - exact copy of source file
# Generated on 2025-10-03 19:27:16

v 0.498121 0.900434 0.252759
v 0.520767 0.937588 0.260136
v 0.490009 0.910421 0.260136
v 0.528835 0.927910 0.252759
v 0.498121 0.900434 0.238315
v 0.490009 0.910425 0.245693
v 0.520767 0.937588 0.245693
v 0.512656 0.947059 0.252759
v 0.481899 0.920099 0.252759
v 0.512656 0.947059 0.238315
v 0.481899 0.920099 0.238315
v 0.520767 0.937588 0.231125
v 0.490009 0.910421 0.231125
v 0.528835 0.927910 0.238315
v 0.494770 0.911495 0.161859
v 0.456951 0.956327 0.303794
v 0.441048 0.975000 0.244799
v 0.494770 0.911495 0.328180
v 0.532314 0.866241 0.303794
v 0.547985 0.847721 0.244799
v 0.532314 0.866241 0.186235
v 0.380770 0.739040 0.186235
v 0.456951 0.956327 0.186235
v 0.305133 0.829240 0.186235
v 0.342951 0.784294 0.161859
v 0.289547 0.847760 0.244799
v 0.305133 0.829240 0.303794
v 0.342951 0.784294 0.328180
v 0.380770 0.739040 0.303794
v 0.396359 0.720516 0.244799
v 0.403353 0.712319 0.151342
v 0.342951 0.784294 0.112512
v 0.428093 0.682670 0.244799
v 0.403353 0.712319 0.338606
v 0.342951 0.784294 0.377608
v 0.282548 0.855961 0.338606
v 0.257809 0.885606 0.244799
v 0.282548 0.855961 0.151342
v 0.050053 0.660739 0.151342
v 0.110452 0.589072 0.112512
v 0.025000 0.690383 0.244799
v 0.050053 0.660739 0.338606
v 0.110452 0.589072 0.377608
v 0.170542 0.517092 0.338606
v 0.195599 0.487448 0.244799
v 0.170542 0.517092 0.151342
v 0.709268 0.046712 0.025000
v 0.838636 0.046712 0.329538
v 0.837070 0.046712 0.150595
v 0.530099 0.046712 0.026566
v 0.404708 0.046712 0.154368
v 0.406267 0.046712 0.333267
v 0.533872 0.046712 0.458987
v 0.713041 0.046712 0.457428
v 0.837867 0.025000 0.331395
v 0.711162 0.025000 0.458193
v 0.837867 0.025000 0.152474
v 0.621570 0.025000 0.241878
v 0.531977 0.025000 0.458193
v 0.405502 0.025000 0.331395
v 0.405502 0.025000 0.152474
v 0.531977 0.025000 0.025769
v 0.711162 0.025000 0.025769
v 0.579450 0.681428 0.257687
v 0.475149 0.819620 0.245048
v 0.586519 0.683288 0.245048
v 0.469506 0.814638 0.257687
v 0.458215 0.805296 0.257687
v 0.565313 0.677712 0.257687
v 0.452884 0.800627 0.245048
v 0.558243 0.675544 0.245048
v 0.458215 0.805296 0.232408
v 0.565313 0.677712 0.232408
v 0.469506 0.814638 0.232408
v 0.579450 0.681428 0.232408
v 0.628589 0.494606 0.232408
v 0.635910 0.494606 0.245048
v 0.613954 0.494606 0.232408
v 0.606635 0.494606 0.245048
v 0.613954 0.494606 0.257687
v 0.628589 0.494606 0.257687
v 0.628595 0.042598 0.257687
v 0.635916 0.042593 0.245048
v 0.613954 0.042603 0.257687
v 0.606632 0.042593 0.245048
v 0.613954 0.042603 0.232408
v 0.628595 0.042598 0.232408
f 1 2 3
f 2 1 4
f 1 4 5
f 1 5 6
f 4 2 7
f 3 1 6
f 2 3 8
f 8 3 9
f 2 8 7
f 9 3 6
f 8 9 10
f 10 9 11
f 8 10 7
f 11 9 6
f 10 11 12
f 12 11 13
f 10 12 7
f 13 11 6
f 12 13 14
f 14 13 5
f 12 14 7
f 5 13 6
f 14 5 4
f 14 4 7
f 15 16 17
f 15 16 18
f 18 15 19
f 19 15 20
f 20 15 21
f 20 15 22
f 17 15 23
f 24 15 25
f 24 15 23
f 26 23 24
f 26 23 17
f 27 17 26
f 27 17 16
f 28 16 27
f 28 16 18
f 29 18 28
f 29 18 19
f 30 19 29
f 30 19 20
f 22 20 30
f 22 20 21
f 15 22 25
f 15 22 21
f 31 25 32
f 31 25 22
f 31 30 33
f 31 30 22
f 33 29 34
f 33 29 30
f 34 28 35
f 34 28 29
f 35 27 36
f 35 27 28
f 36 26 37
f 36 26 27
f 37 24 38
f 37 24 26
f 38 25 32
f 38 25 24
f 39 32 40
f 39 32 38
f 41 38 39
f 41 38 37
f 42 37 41
f 42 37 36
f 43 36 42
f 43 36 35
f 44 35 43
f 44 35 34
f 45 34 44
f 45 34 33
f 46 33 45
f 46 33 31
f 46 32 40
f 46 32 31
f 47 48 49
f 47 48 50
f 50 48 51
f 51 48 52
f 52 48 53
f 53 48 54
f 55 54 56
f 55 54 48
f 55 48 57
f 55 57 58
f 56 55 58
f 54 56 53
f 53 56 59
f 59 56 58
f 53 59 52
f 52 59 60
f 60 59 58
f 52 60 51
f 51 60 61
f 61 60 58
f 51 61 50
f 50 61 62
f 62 61 58
f 50 62 47
f 47 62 63
f 63 62 58
f 47 63 49
f 49 63 57
f 57 63 58
f 49 57 48
f 64 65 66
f 64 65 67
f 64 68 69
f 64 68 67
f 69 70 71
f 69 70 68
f 71 72 73
f 71 72 70
f 73 74 75
f 73 74 72
f 75 65 66
f 75 65 74
f 76 66 77
f 76 66 75
f 78 75 76
f 78 75 73
f 79 73 78
f 79 73 71
f 80 71 79
f 80 71 69
f 81 69 80
f 81 69 64
f 81 66 77
f 81 66 64
f 82 77 83
f 82 77 81
f 82 80 84
f 82 80 81
f 84 79 85
f 84 79 80
f 85 78 86
f 85 78 79
f 86 76 87
f 86 76 78
f 87 77 83
f 87 77 76
