# Unified Preprocessed OBJ file from m614.obj
# Applied remeshing: Yes
# Applied 4-step normalization: centering, PCA alignment, flipping, scaling
# Generated on 2025-09-29 15:08:07

v -0.461560 0.406472 -0.108011
v -0.445036 0.410288 -0.108011
v -0.444682 0.410359 -0.092437
v -0.440806 0.391963 -0.108010
v -0.440454 0.392056 -0.092436
v -0.457329 0.388147 -0.108010
v -0.457683 0.388080 -0.092436
v -0.461913 0.406383 -0.092437
v -0.461356 0.406339 0.107926
v -0.457209 0.388391 0.107927
v -0.458138 0.387722 0.092353
v -0.441025 0.392129 0.107927
v -0.440159 0.391870 0.092353
v -0.445167 0.410077 0.107926
v -0.444242 0.410743 0.092352
v -0.462221 0.406594 0.092352
v -0.136657 -0.176119 0.107976
v -0.136652 -0.176135 -0.107961
v -0.151353 -0.183871 -0.107961
v -0.233637 -0.227165 0.112537
v -0.233632 -0.227181 -0.112518
v -0.242661 -0.256265 -0.112516
v -0.252689 -0.237209 -0.112518
v -0.256253 -0.263418 -0.112516
v -0.266282 -0.244362 -0.112518
v -0.285338 -0.254390 -0.112517
v -0.256258 -0.263402 0.112539
v -0.285302 -0.208207 0.112535
v -0.275275 -0.227263 0.112536
v -0.294331 -0.237291 0.112537
v -0.294326 -0.237308 -0.112519
v -0.275270 -0.227280 -0.112519
v -0.285297 -0.208224 -0.112521
v -0.271704 -0.201071 -0.112521
v -0.261677 -0.220128 -0.112519
v -0.242621 -0.210100 -0.112520
v -0.271709 -0.201054 0.112534
v -0.261682 -0.220111 0.112536
v -0.242626 -0.210083 0.112536
v -0.252694 -0.237192 0.112537
v -0.242666 -0.256248 0.112539
v -0.266287 -0.244346 0.112538
v -0.285343 -0.254373 0.112538
v -0.057570 -0.326416 0.098371
v -0.057566 -0.326430 -0.098331
v -0.028750 -0.335375 -0.098329
v -0.047631 -0.345310 -0.098329
v -0.081212 -0.362980 -0.098328
v -0.062332 -0.353046 -0.098329
v -0.072268 -0.334166 -0.098330
v -0.072272 -0.334152 0.098371
v -0.062336 -0.353031 0.098373
v -0.081216 -0.362966 0.098373
v -0.028538 -0.381595 -0.098326
v -0.028542 -0.381580 0.098376
v -0.019597 -0.352765 0.098374
v -0.019592 -0.352780 -0.098328
v -0.038473 -0.362715 -0.098327
v -0.043239 -0.389331 -0.098326
v -0.053174 -0.370451 -0.098327
v -0.072053 -0.380386 -0.098327
v -0.043243 -0.389316 0.098376
v -0.047635 -0.345295 0.098373
v -0.028755 -0.335361 0.098372
v -0.038477 -0.362701 0.098374
v -0.053178 -0.370437 0.098374
v -0.072058 -0.380371 0.098375
v 0.395674 0.131413 -0.131589
v 0.364981 0.113307 -0.131589
v 0.379798 0.085148 -0.131586
v 0.417441 0.096856 -0.105329
v 0.417441 0.096856 -0.110199
v 0.378381 0.081033 -0.110199
v 0.396882 0.135926 -0.105332
v 0.396882 0.135926 -0.110202
v 0.360721 0.114595 -0.105331
v 0.360721 0.114595 -0.110202
v 0.378381 0.081034 -0.105329
v 0.408682 0.100061 -0.110200
v 0.381282 0.088962 -0.110199
v 0.394402 0.127197 -0.110202
v 0.369036 0.112234 -0.110201
v 0.408682 0.100060 -0.119186
v 0.381282 0.088961 -0.119185
v 0.394403 0.127197 -0.119188
v 0.369036 0.112233 -0.119187
v 0.412952 0.098579 -0.122781
v 0.379798 0.085149 -0.122780
v 0.395674 0.131414 -0.122783
v 0.364981 0.113308 -0.122783
v 0.412953 0.098578 -0.131587
v -0.268905 -0.252815 -0.122770
v -0.268905 -0.252816 -0.131576
v -0.283723 -0.224657 -0.131578
v -0.142536 -0.150362 -0.122775
v -0.142536 -0.150363 -0.131581
v -0.127718 -0.178522 -0.122772
v -0.127718 -0.178523 -0.131578
v -0.169264 -0.164427 -0.122774
v -0.169264 -0.164428 -0.131580
v -0.154446 -0.192587 -0.131578
v -0.154446 -0.192586 -0.122772
v -0.259052 -0.211674 -0.122773
v -0.259052 -0.211674 -0.131579
v -0.244235 -0.239834 -0.122770
v -0.244235 -0.239834 -0.131576
v -0.283723 -0.224657 -0.122772
v -0.145160 -0.158816 -0.122774
v -0.160810 -0.167051 -0.122774
v -0.136172 -0.175898 -0.122773
v -0.151821 -0.184134 -0.122772
v -0.261676 -0.220128 -0.122772
v -0.275270 -0.227281 -0.122772
v -0.252688 -0.237210 -0.122771
v -0.266282 -0.244363 -0.122770
v -0.145160 -0.158816 -0.117207
v -0.160810 -0.167051 -0.117207
v -0.136172 -0.175898 -0.117206
v -0.151821 -0.184133 -0.117206
v -0.143004 -0.150624 -0.116094
v -0.168784 -0.164188 -0.116094
v -0.128198 -0.178760 -0.116092
v -0.153978 -0.192325 -0.116092
v -0.442476 0.418489 -0.116143
v -0.442477 0.418490 -0.108012
v -0.468254 0.404925 -0.108011
v -0.128198 -0.178759 -0.107961
v -0.143004 -0.150623 -0.107963
v -0.055797 -0.378906 -0.116076
v -0.055798 -0.378905 -0.107945
v -0.030019 -0.365340 -0.107945
v -0.168784 -0.164187 -0.107963
v -0.153978 -0.192324 -0.107960
v -0.453849 0.377544 -0.116140
v -0.453849 0.377545 -0.108009
v -0.428071 0.391109 -0.116141
v -0.428071 0.391109 -0.108010
v -0.045007 -0.336859 -0.116079
v -0.045007 -0.336858 -0.107947
v -0.070785 -0.350423 -0.116078
v -0.070785 -0.350422 -0.107947
v -0.030019 -0.365341 -0.116076
v -0.062332 -0.353046 -0.107947
v -0.053174 -0.370452 -0.107945
v -0.047631 -0.345311 -0.107947
v -0.038473 -0.362716 -0.107945
v -0.145629 -0.159076 -0.107963
v -0.160329 -0.166811 -0.107962
v -0.468254 0.404924 -0.116143
v -0.428076 0.391126 0.116059
v -0.442482 0.418506 0.116057
v -0.442481 0.418506 0.107926
v -0.453854 0.377562 0.116059
v -0.468259 0.404941 0.116057
v -0.453854 0.377561 0.107928
v -0.468259 0.404940 0.107926
v -0.151358 -0.183855 0.107976
v -0.145634 -0.159060 0.107975
v -0.160334 -0.166795 0.107975
v -0.153983 -0.192308 0.107977
v -0.128203 -0.178743 0.107976
v -0.143009 -0.150607 0.107974
v -0.168789 -0.164171 0.107974
v -0.038477 -0.362700 0.107992
v -0.047636 -0.345295 0.107990
v -0.062337 -0.353030 0.107991
v -0.053178 -0.370436 0.107992
v -0.030024 -0.365324 0.107992
v -0.045012 -0.336842 0.107990
v -0.070790 -0.350407 0.107990
v -0.055802 -0.378889 0.107993
v -0.070790 -0.350406 0.116122
v -0.055803 -0.378889 0.116124
v -0.045012 -0.336842 0.116121
v -0.030024 -0.365323 0.116124
v -0.153983 -0.192308 0.116108
v -0.128203 -0.178742 0.116108
v -0.428076 0.391125 0.107928
v -0.143009 -0.150607 0.116105
v -0.168789 -0.164171 0.116106
v -0.151827 -0.184116 0.117221
v -0.136178 -0.175881 0.117221
v -0.145166 -0.158798 0.117219
v -0.160816 -0.167034 0.117220
v -0.266287 -0.244345 0.122790
v -0.252694 -0.237192 0.122789
v -0.261682 -0.220110 0.122788
v -0.275275 -0.227263 0.122788
v -0.151827 -0.184115 0.122788
v -0.136178 -0.175880 0.122787
v -0.145166 -0.158798 0.122786
v -0.160816 -0.167033 0.122786
v -0.268910 -0.252797 0.122790
v -0.244240 -0.239816 0.122790
v -0.259058 -0.211656 0.122787
v -0.283729 -0.224639 0.122788
v -0.154452 -0.192568 0.122788
v -0.127723 -0.178504 0.122788
v -0.142542 -0.150344 0.122785
v -0.169269 -0.164409 0.122786
v -0.244241 -0.239815 0.131596
v -0.268911 -0.252797 0.131596
v -0.283729 -0.224638 0.131594
v -0.259058 -0.211655 0.131593
v -0.154452 -0.192567 0.131594
v -0.169269 -0.164408 0.131592
v -0.127723 -0.178504 0.131594
v -0.142542 -0.150344 0.131591
v 0.379792 0.085168 0.131586
v 0.379793 0.085167 0.122780
v 0.364975 0.113326 0.122777
v 0.364975 0.113326 0.131583
v 0.395668 0.131432 0.122777
v 0.395668 0.131432 0.131583
v 0.412947 0.098597 0.122779
v 0.412947 0.098598 0.131585
v 0.369031 0.112251 0.119182
v 0.394397 0.127214 0.119182
v 0.408677 0.100078 0.119184
v 0.381277 0.088978 0.119184
v 0.369031 0.112250 0.110196
v 0.394398 0.127213 0.110196
v 0.408677 0.100077 0.110198
v 0.381277 0.088978 0.110198
v 0.360716 0.114611 0.110196
v 0.396877 0.135942 0.110195
v 0.417436 0.096872 0.110198
v 0.378376 0.081049 0.110199
v 0.360716 0.114611 0.105326
v 0.396877 0.135942 0.105325
v 0.417436 0.096872 0.105328
v 0.378377 0.081049 0.105328
v 0.475468 -0.012566 0.056054
v 0.478329 -0.067985 0.065899
v 0.478929 -0.079593 0.000014
v 0.475470 -0.012575 -0.056036
v 0.462527 0.238145 -0.056054
v 0.459666 0.293563 -0.065899
v 0.459066 0.305170 -0.000015
v 0.462524 0.238153 0.056035
v 0.473889 0.294297 -0.065899
v 0.461392 0.260152 -0.123836
v 0.475615 0.260886 -0.123836
v 0.464035 0.208967 -0.166837
v 0.478258 0.209701 -0.166837
v 0.467277 0.146182 -0.189713
v 0.481500 0.146916 -0.189713
v 0.470726 0.079368 -0.189708
v 0.484949 0.080102 -0.189708
v 0.473967 0.016586 -0.166823
v 0.488190 0.017320 -0.166822
v 0.476608 -0.034593 -0.123814
v 0.490831 -0.033859 -0.123814
v 0.478332 -0.067995 -0.065872
v 0.492554 -0.067261 -0.065872
v 0.493152 -0.078858 0.000014
v 0.475471 -0.012578 -0.105320
v 0.473224 0.030958 -0.105323
v 0.470467 0.084364 -0.105327
v 0.467533 0.141197 -0.105331
v 0.464776 0.194603 -0.105335
v 0.462528 0.238140 -0.105338
v 0.459663 0.293572 0.065872
v 0.461387 0.260170 0.123814
v 0.462523 0.238155 0.105319
v 0.464028 0.208991 0.166822
v 0.464771 0.194619 0.105322
v 0.467269 0.146210 0.189708
v 0.467528 0.141213 0.105326
v 0.470718 0.079396 0.189713
v 0.470462 0.084380 0.105330
v 0.473960 0.016610 0.166836
v 0.473219 0.030974 0.105334
v 0.476603 -0.034575 0.123836
v 0.475467 -0.012563 0.105337
v 0.473289 0.305904 -0.000014
v 0.492551 -0.067251 0.065899
v 0.490826 -0.033840 0.123836
v 0.488182 0.017345 0.166837
v 0.484941 0.080130 0.189713
v 0.481491 0.146944 0.189708
v 0.478251 0.209726 0.166822
v 0.475609 0.260904 0.123814
v 0.473886 0.294307 0.065872
v 0.337472 -0.019702 -0.105322
v 0.307278 0.029015 -0.105326
v 0.307277 0.029020 -0.052662
v 0.337471 -0.019699 -0.056038
v 0.291443 0.067668 -0.105330
v 0.299512 0.179447 -0.105338
v 0.287852 0.137221 -0.105335
v 0.324529 0.231016 -0.105341
v 0.324527 0.231019 -0.056057
v 0.299511 0.179451 -0.052673
v 0.287851 0.137222 -0.052670
v 0.291441 0.067672 -0.052665
v 0.287847 0.137237 0.105322
v 0.291438 0.067684 0.105327
v 0.337468 -0.019690 0.056051
v 0.307274 0.029028 0.052666
v 0.291439 0.067680 0.052663
v 0.287849 0.137230 0.052658
v 0.299508 0.179459 0.052655
v 0.307273 0.029030 0.105331
v 0.299507 0.179463 0.105319
v 0.324525 0.231028 0.056032
v 0.324524 0.231031 0.105316
v 0.337467 -0.019687 0.105335
v -0.438824 0.366075 -0.092434
v -0.482839 0.387229 -0.092436
v -0.374803 0.386550 -0.092434
v -0.506844 0.450011 -0.092441
v -0.482843 0.387243 0.092353
v -0.506848 0.450025 0.092348
v -0.374808 0.386563 0.092355
v -0.377599 0.395185 -0.086176
v -0.424431 0.417699 -0.048201
v -0.451519 0.430718 -0.048202
v -0.377603 0.395197 0.086096
v -0.424433 0.417706 0.048115
v -0.498359 0.453237 0.086089
v -0.451521 0.430725 0.048114
v -0.498355 0.453224 -0.086183
v -0.354413 0.443423 -0.086179
v -0.354417 0.443436 0.086093
v -0.475173 0.501475 0.086086
v -0.475169 0.501462 -0.086186
v -0.348772 0.440712 -0.092437
v -0.348776 0.440726 0.092352
v -0.480815 0.504186 0.092344
v -0.480811 0.504172 -0.092445
v -0.438828 0.366089 0.092355
v -0.412524 0.442476 -0.048202
v -0.439612 0.455494 -0.048204
v -0.412526 0.442483 0.048114
v -0.439614 0.455501 0.048112
v -0.453298 0.408380 -0.108011
v -0.444859 0.410324 -0.100224
v -0.453121 0.408416 -0.100224
v -0.442921 0.401126 -0.108011
v -0.440630 0.392010 -0.100223
v -0.442745 0.401172 -0.100224
v -0.449068 0.390055 -0.108010
v -0.457506 0.388113 -0.100223
v -0.449245 0.390021 -0.100223
v -0.459445 0.397310 -0.108011
v -0.461736 0.406428 -0.100224
v -0.459621 0.397265 -0.100224
v -0.459282 0.397365 0.107927
v -0.457673 0.388056 0.100140
v -0.459747 0.397031 0.100140
v -0.449117 0.390260 0.107927
v -0.440592 0.391999 0.100140
v -0.448684 0.390130 0.100140
v -0.443096 0.401103 0.107927
v -0.444704 0.410410 0.100139
v -0.442634 0.401436 0.100140
v -0.453262 0.408208 0.107926
v -0.461789 0.406467 0.100139
v -0.453694 0.408335 0.100139
v -0.136654 -0.176127 0.000007
v -0.144002 -0.180003 -0.107961
v -0.144005 -0.179995 0.000008
v -0.233634 -0.227173 0.000010
v -0.238146 -0.241723 -0.112517
v -0.238149 -0.241715 0.000010
v -0.243160 -0.232195 -0.112518
v -0.247675 -0.246737 -0.112517
v -0.261268 -0.253890 -0.112517
v -0.275810 -0.249376 -0.112517
v -0.270796 -0.258904 -0.112517
v -0.256256 -0.263410 0.000012
v -0.270798 -0.258896 0.000011
v -0.280289 -0.217735 0.112535
v -0.284803 -0.232277 0.112536
v -0.289817 -0.222749 0.112536
v -0.284798 -0.232294 -0.112519
v -0.280284 -0.217752 -0.112520
v -0.289812 -0.222766 -0.112520
v -0.266691 -0.210599 -0.112520
v -0.252149 -0.215114 -0.112519
v -0.257163 -0.205585 -0.112520
v -0.271707 -0.201062 0.000007
v -0.257165 -0.205577 0.000007
v -0.278501 -0.204647 -0.112521
v -0.273487 -0.214176 -0.112520
v -0.278506 -0.204631 0.112534
v -0.273492 -0.214159 0.112535
v -0.266696 -0.210583 0.112535
v -0.257168 -0.205569 0.112535
v -0.252154 -0.215097 0.112536
v -0.238126 -0.218640 -0.112519
v -0.247655 -0.223654 -0.112519
v -0.238131 -0.218624 0.112536
v -0.247659 -0.223638 0.112537
v -0.243165 -0.232178 0.112537
v -0.238151 -0.241706 0.112538
v -0.247680 -0.246720 0.112538
v -0.249457 -0.259842 -0.112516
v -0.254472 -0.250314 -0.112517
v -0.249462 -0.259825 0.112539
v -0.254476 -0.250297 0.112538
v -0.261273 -0.253874 0.112538
v -0.270801 -0.258887 0.112539
v -0.275815 -0.249360 0.112538
v -0.289832 -0.245849 -0.112518
v -0.280304 -0.240835 -0.112518
v -0.285299 -0.208215 0.000007
v -0.289814 -0.222757 0.000008
v -0.289837 -0.245832 0.112537
v -0.280309 -0.240818 0.112537
v -0.057568 -0.326423 0.000020
v -0.043158 -0.330903 -0.098330
v -0.043160 -0.330896 0.000021
v -0.052598 -0.335870 -0.098330
v -0.038191 -0.340343 -0.098329
v -0.071772 -0.358013 -0.098329
v -0.067300 -0.343606 -0.098330
v -0.076740 -0.348573 -0.098329
v -0.067304 -0.343591 0.098372
v -0.071776 -0.357999 0.098373
v -0.076744 -0.348559 0.098372
v -0.028540 -0.381588 0.000025
v -0.024070 -0.367173 0.098375
v -0.024067 -0.367180 0.000024
v -0.029033 -0.357747 -0.098328
v -0.033505 -0.372155 -0.098327
v -0.024065 -0.367187 -0.098327
v -0.048206 -0.379891 -0.098326
v -0.062614 -0.375418 -0.098327
v -0.057646 -0.384858 -0.098326
v -0.043241 -0.389323 0.000025
v -0.057648 -0.384851 0.000025
v -0.064917 -0.330298 -0.098330
v -0.059949 -0.339738 -0.098330
v -0.064921 -0.330284 0.098371
v -0.059953 -0.339724 0.098372
v -0.052603 -0.335856 0.098372
v -0.043163 -0.330888 0.098372
v -0.038195 -0.340328 0.098372
v -0.024171 -0.344077 -0.098329
v -0.033612 -0.349045 -0.098328
v -0.024176 -0.344063 0.098373
v -0.033616 -0.349030 0.098373
v -0.029037 -0.357733 0.098374
v -0.033510 -0.372141 0.098375
v -0.035889 -0.385463 -0.098326
v -0.040856 -0.376023 -0.098327
v -0.035893 -0.385448 0.098376
v -0.040860 -0.376008 0.098375
v -0.048211 -0.379876 0.098375
v -0.057651 -0.384844 0.098375
v -0.062618 -0.375404 0.098374
v -0.076632 -0.371683 -0.098328
v -0.067193 -0.366716 -0.098328
v -0.072270 -0.334159 0.000020
v -0.076742 -0.348566 0.000021
v -0.076637 -0.371669 0.098374
v -0.067197 -0.366701 0.098374
v -0.242663 -0.256257 0.000011
v -0.249460 -0.259833 0.000012
v -0.285341 -0.254382 0.000010
v -0.289835 -0.245840 0.000010
v -0.278503 -0.204639 0.000007
v -0.242623 -0.210092 0.000008
v -0.238129 -0.218632 0.000009
v -0.028753 -0.335368 0.000022
v -0.024174 -0.344070 0.000022
v -0.035891 -0.385456 0.000025
v -0.072056 -0.380378 0.000024
v -0.076635 -0.371676 0.000023
v -0.064919 -0.330291 0.000020
v 0.380327 0.122360 -0.131589
v 0.372390 0.099228 -0.131588
v 0.387736 0.108281 -0.131588
v 0.417441 0.096856 -0.107764
v 0.397911 0.088945 -0.110199
v 0.397911 0.088945 -0.107764
v 0.396882 0.135926 -0.107767
v 0.407162 0.116391 -0.110201
v 0.407161 0.116391 -0.107766
v 0.360721 0.114595 -0.107767
v 0.378802 0.125260 -0.110202
v 0.378802 0.125261 -0.107767
v 0.378381 0.081033 -0.107764
v 0.369551 0.097814 -0.110200
v 0.369551 0.097814 -0.107765
v 0.413061 0.098458 -0.110199
v 0.394982 0.094511 -0.110199
v 0.399362 0.092909 -0.110199
v 0.395642 0.131562 -0.110202
v 0.401542 0.113629 -0.110201
v 0.402782 0.117993 -0.110201
v 0.364879 0.113414 -0.110202
v 0.381719 0.119716 -0.110202
v 0.377562 0.120896 -0.110202
v 0.379832 0.084997 -0.110199
v 0.375159 0.100598 -0.110200
v 0.373709 0.096634 -0.110200
v 0.408682 0.100061 -0.114693
v 0.394982 0.094511 -0.119185
v 0.394982 0.094511 -0.114692
v 0.394403 0.127197 -0.114695
v 0.401542 0.113628 -0.119187
v 0.401542 0.113629 -0.114694
v 0.369036 0.112234 -0.114694
v 0.381720 0.119715 -0.119188
v 0.381719 0.119715 -0.114695
v 0.381282 0.088961 -0.114692
v 0.375159 0.100597 -0.119186
v 0.375159 0.100597 -0.114693
v 0.410817 0.099320 -0.120983
v 0.396375 0.091864 -0.122780
v 0.394240 0.092605 -0.120983
v 0.395038 0.129305 -0.120986
v 0.404313 0.114996 -0.122782
v 0.403678 0.112888 -0.120984
v 0.367008 0.112771 -0.120985
v 0.380327 0.122361 -0.122783
v 0.382355 0.121824 -0.120985
v 0.380540 0.087055 -0.120983
v 0.372389 0.099228 -0.122782
v 0.373132 0.101134 -0.120984
v 0.412953 0.098578 -0.127184
v 0.396375 0.091863 -0.131586
v 0.396375 0.091864 -0.127183
v 0.395674 0.131413 -0.127186
v 0.404313 0.114996 -0.131588
v 0.404313 0.114996 -0.127185
v 0.364981 0.113307 -0.127186
v 0.380327 0.122360 -0.127186
v -0.268905 -0.252816 -0.127173
v -0.276314 -0.238737 -0.131577
v -0.276314 -0.238736 -0.127174
v 0.111222 -0.018527 -0.122779
v -0.142536 -0.150363 -0.127178
v 0.111222 -0.018528 -0.127182
v 0.126040 -0.046687 -0.122776
v -0.135127 -0.164442 -0.122773
v 0.118631 -0.032607 -0.122777
v 0.126040 -0.046687 -0.131582
v -0.127718 -0.178523 -0.127175
v 0.126040 -0.046687 -0.127179
v 0.111222 -0.018528 -0.131585
v -0.135127 -0.164443 -0.131579
v 0.118632 -0.032608 -0.131583
v -0.155900 -0.157395 -0.122774
v -0.169264 -0.164428 -0.127177
v -0.155900 -0.157395 -0.127177
v -0.141082 -0.185555 -0.131578
v -0.154446 -0.192586 -0.127175
v -0.141082 -0.185555 -0.127175
v -0.155900 -0.157395 -0.131580
v -0.161855 -0.178507 -0.131579
v -0.148491 -0.171475 -0.131579
v -0.214158 -0.188050 -0.122773
v -0.259052 -0.211674 -0.127176
v -0.214158 -0.188051 -0.127176
v -0.199341 -0.216210 -0.122771
v -0.251644 -0.225754 -0.122772
v -0.206749 -0.202130 -0.122772
v -0.199340 -0.216211 -0.131577
v -0.244235 -0.239834 -0.127173
v -0.199340 -0.216210 -0.127174
v -0.214158 -0.188051 -0.131579
v -0.251644 -0.225754 -0.131577
v -0.206749 -0.202131 -0.131578
v -0.271388 -0.218165 -0.122773
v -0.283723 -0.224657 -0.127175
v -0.271388 -0.218166 -0.127175
v -0.256570 -0.246325 -0.131576
v -0.256570 -0.246325 -0.127173
v -0.271388 -0.218166 -0.131578
v -0.263979 -0.232245 -0.131577
v -0.143848 -0.154589 -0.122774
v -0.152985 -0.162934 -0.122774
v -0.151673 -0.158707 -0.122774
v -0.131945 -0.177210 -0.122772
v -0.140666 -0.167357 -0.122773
v -0.136439 -0.168669 -0.122773
v -0.153134 -0.188360 -0.122772
v -0.143997 -0.180016 -0.122772
v -0.145309 -0.184242 -0.122772
v -0.165037 -0.165739 -0.122774
v -0.156316 -0.175592 -0.122773
v -0.160542 -0.174280 -0.122773
v -0.260364 -0.215901 -0.122772
v -0.268473 -0.223704 -0.122772
v -0.267161 -0.219477 -0.122772
v -0.248462 -0.238522 -0.122770
v -0.257182 -0.228669 -0.122771
v -0.252956 -0.229981 -0.122771
v -0.267593 -0.248589 -0.122770
v -0.259485 -0.240786 -0.122771
v -0.260797 -0.245013 -0.122770
v -0.279497 -0.225969 -0.122772
v -0.270776 -0.235822 -0.122771
v -0.275003 -0.234510 -0.122771
v -0.145160 -0.158816 -0.119991
v -0.152985 -0.162933 -0.117207
v -0.152985 -0.162933 -0.119991
v -0.136172 -0.175898 -0.119989
v -0.140666 -0.167357 -0.117207
v -0.140666 -0.167357 -0.119990
v -0.151821 -0.184133 -0.119989
v -0.143997 -0.180016 -0.117206
v -0.143997 -0.180016 -0.119989
v -0.160810 -0.167051 -0.119990
v -0.156316 -0.175592 -0.117206
v -0.156316 -0.175592 -0.119990
v -0.261677 -0.220128 -0.117646
v -0.268473 -0.223704 -0.112519
v -0.268473 -0.223704 -0.117646
v -0.252689 -0.237209 -0.117644
v -0.257183 -0.228668 -0.112519
v -0.257183 -0.228669 -0.117645
v -0.266282 -0.244363 -0.117644
v -0.259485 -0.240786 -0.112518
v -0.259485 -0.240786 -0.117644
v -0.275270 -0.227280 -0.117645
v -0.270776 -0.235821 -0.112518
v -0.270776 -0.235821 -0.117645
v -0.144082 -0.154720 -0.116651
v -0.155894 -0.157406 -0.116094
v -0.156972 -0.161502 -0.116651
v -0.132185 -0.177329 -0.116649
v -0.135601 -0.164692 -0.116093
v -0.139588 -0.163261 -0.116650
v -0.152899 -0.188229 -0.116649
v -0.141088 -0.185542 -0.116092
v -0.140010 -0.181446 -0.116649
v -0.164797 -0.165619 -0.116651
v -0.161381 -0.178256 -0.116093
v -0.157394 -0.179688 -0.116649
v -0.442476 0.418490 -0.112077
v -0.455365 0.411707 -0.108012
v -0.455365 0.411707 -0.112077
v -0.128198 -0.178759 -0.112026
v -0.135601 -0.164691 -0.107962
v -0.135601 -0.164691 -0.112028
v -0.055797 -0.378906 -0.112010
v -0.042908 -0.372123 -0.107945
v -0.042908 -0.372123 -0.112010
v -0.168784 -0.164188 -0.112028
v -0.161381 -0.178256 -0.107962
v -0.161381 -0.178256 -0.112027
v -0.311316 0.106678 -0.116117
v -0.453849 0.377545 -0.112075
v -0.311317 0.106679 -0.112052
v -0.285537 0.120243 -0.116118
v -0.440960 0.384327 -0.116140
v -0.298427 0.113460 -0.116117
v -0.285538 0.120243 -0.107986
v -0.428071 0.391109 -0.112075
v -0.285538 0.120243 -0.112052
v -0.311317 0.106679 -0.107986
v -0.440960 0.384327 -0.108009
v -0.298427 0.113461 -0.107986
v -0.086602 -0.257809 -0.116085
v -0.045007 -0.336858 -0.112013
v -0.086602 -0.257809 -0.112020
v -0.112381 -0.271374 -0.116085
v -0.057896 -0.343641 -0.116078
v -0.099492 -0.264592 -0.116085
v -0.112382 -0.271373 -0.107954
v -0.070785 -0.350423 -0.112013
v -0.112381 -0.271374 -0.112019
v -0.086603 -0.257809 -0.107954
v -0.057896 -0.343640 -0.107947
v -0.099492 -0.264591 -0.107954
v -0.037513 -0.351100 -0.116077
v -0.030019 -0.365340 -0.112011
v -0.037513 -0.351099 -0.112012
v -0.063291 -0.364664 -0.116077
v -0.042908 -0.372123 -0.116076
v -0.050402 -0.357882 -0.116077
v -0.063291 -0.364664 -0.107946
v -0.063291 -0.364664 -0.112011
v -0.066559 -0.351734 -0.107947
v -0.057753 -0.361749 -0.107946
v -0.061979 -0.360437 -0.107946
v -0.046319 -0.341084 -0.107947
v -0.054981 -0.349179 -0.107947
v -0.053669 -0.344952 -0.107947
v -0.034246 -0.364028 -0.107945
v -0.043052 -0.354013 -0.107946
v -0.038825 -0.355325 -0.107946
v -0.054486 -0.374678 -0.107945
v -0.045823 -0.366584 -0.107945
v -0.047135 -0.370811 -0.107945
v -0.062332 -0.353046 -0.103138
v -0.057753 -0.361748 -0.098328
v -0.057753 -0.361749 -0.103137
v -0.047631 -0.345310 -0.103138
v -0.054982 -0.349178 -0.098329
v -0.054981 -0.349178 -0.103138
v -0.038473 -0.362716 -0.103136
v -0.043052 -0.354013 -0.098328
v -0.043052 -0.354013 -0.103137
v -0.053174 -0.370451 -0.103136
v -0.045823 -0.366583 -0.098327
v -0.045823 -0.366583 -0.103136
v -0.144317 -0.154849 -0.107963
v -0.152979 -0.162943 -0.107963
v -0.151667 -0.158717 -0.107963
v -0.132425 -0.177447 -0.107961
v -0.141141 -0.167605 -0.107962
v -0.136914 -0.168917 -0.107962
v -0.152665 -0.188097 -0.107961
v -0.145315 -0.184230 -0.107961
v -0.164557 -0.165499 -0.107963
v -0.155841 -0.175341 -0.107962
v -0.160068 -0.174029 -0.107962
v -0.461052 0.391234 -0.116141
v -0.468254 0.404924 -0.112077
v -0.461052 0.391235 -0.112076
v -0.435274 0.404799 -0.116142
v -0.455365 0.411707 -0.116143
v -0.448162 0.398016 -0.116142
v -0.435274 0.404800 -0.108011
v -0.435274 0.404799 -0.112076
v -0.435279 0.404816 0.116058
v -0.442481 0.418506 0.111991
v -0.435279 0.404816 0.111992
v -0.461057 0.391251 0.116058
v -0.455370 0.411724 0.116057
v -0.448168 0.398034 0.116058
v -0.461057 0.391251 0.107927
v -0.468259 0.404941 0.111992
v -0.461057 0.391251 0.111993
v -0.151355 -0.183863 0.000008
v -0.155843 -0.175333 0.000007
v -0.145632 -0.159068 0.000006
v -0.141143 -0.167597 0.000007
v -0.160332 -0.166803 0.000006
v -0.152982 -0.162935 0.000006
v -0.152670 -0.188082 0.107977
v -0.155846 -0.175325 0.107976
v -0.157158 -0.179552 0.107976
v -0.132430 -0.177431 0.107976
v -0.144007 -0.179987 0.107976
v -0.139780 -0.181299 0.107976
v -0.144322 -0.154833 0.107974
v -0.141145 -0.167589 0.107975
v -0.139833 -0.163363 0.107975
v -0.164561 -0.165483 0.107975
v -0.152984 -0.162928 0.107975
v -0.157211 -0.161616 0.107975
v -0.038477 -0.362700 0.103183
v -0.045828 -0.366569 0.098374
v -0.045828 -0.366568 0.103183
v -0.047636 -0.345295 0.103182
v -0.043056 -0.353998 0.098373
v -0.043056 -0.353998 0.103182
v -0.062337 -0.353031 0.103182
v -0.054986 -0.349163 0.098373
v -0.054986 -0.349163 0.103182
v -0.053178 -0.370436 0.103183
v -0.057757 -0.361734 0.098374
v -0.057757 -0.361734 0.103183
v -0.034251 -0.364012 0.107992
v -0.045828 -0.366568 0.107992
v -0.041601 -0.367880 0.107992
v -0.046324 -0.341069 0.107990
v -0.043057 -0.353997 0.107991
v -0.041745 -0.349771 0.107991
v -0.066563 -0.351718 0.107991
v -0.054986 -0.349163 0.107991
v -0.059213 -0.347851 0.107990
v -0.054490 -0.374663 0.107993
v -0.057758 -0.361733 0.107991
v -0.059070 -0.365960 0.107992
v -0.063296 -0.364647 0.116123
v -0.055802 -0.378889 0.112058
v -0.063296 -0.364648 0.112057
v -0.037518 -0.351083 0.116122
v -0.042913 -0.372106 0.116124
v -0.050407 -0.357865 0.116123
v -0.037518 -0.351083 0.107991
v -0.030024 -0.365324 0.112058
v -0.037518 -0.351083 0.112057
v -0.112386 -0.271357 0.107984
v -0.057901 -0.343624 0.107990
v -0.099497 -0.264575 0.107983
v -0.112387 -0.271357 0.116115
v -0.070790 -0.350406 0.112056
v -0.112386 -0.271357 0.112049
v -0.086608 -0.257792 0.116114
v -0.057901 -0.343624 0.116121
v -0.099497 -0.264574 0.116115
v -0.086607 -0.257793 0.107983
v -0.045012 -0.336842 0.112056
v -0.086607 -0.257792 0.112049
v -0.285542 0.120259 0.107951
v -0.440965 0.384343 0.107928
v -0.298432 0.113477 0.107951
v -0.285543 0.120260 0.116082
v -0.428076 0.391126 0.111993
v -0.285543 0.120259 0.112017
v -0.311322 0.106695 0.116083
v -0.440965 0.384344 0.116059
v -0.298432 0.113477 0.116082
v -0.311321 0.106695 0.107951
v -0.453854 0.377561 0.111994
v -0.311322 0.106695 0.112017
v -0.153983 -0.192308 0.112042
v -0.161386 -0.178240 0.107976
v -0.161386 -0.178240 0.112041
v -0.042913 -0.372107 0.107993
v -0.042913 -0.372106 0.112058
v -0.143009 -0.150607 0.112040
v -0.135606 -0.164675 0.107975
v -0.135606 -0.164675 0.112041
v -0.455370 0.411723 0.107926
v -0.455370 0.411723 0.111991
v -0.152905 -0.188212 0.116665
v -0.161386 -0.178239 0.116107
v -0.160308 -0.174143 0.116663
v -0.132190 -0.177312 0.116664
v -0.141093 -0.185525 0.116108
v -0.145080 -0.184094 0.116664
v -0.144087 -0.154702 0.116662
v -0.135606 -0.164675 0.116106
v -0.136684 -0.168770 0.116663
v -0.164802 -0.165602 0.116663
v -0.155899 -0.157389 0.116105
v -0.151912 -0.158820 0.116662
v -0.266287 -0.244345 0.117664
v -0.270781 -0.235804 0.112537
v -0.270781 -0.235804 0.117663
v -0.252694 -0.237192 0.117663
v -0.259490 -0.240769 0.112538
v -0.259491 -0.240769 0.117663
v -0.261682 -0.220111 0.117662
v -0.257188 -0.228652 0.112537
v -0.257188 -0.228651 0.117663
v -0.275275 -0.227263 0.117662
v -0.268478 -0.223687 0.112536
v -0.268479 -0.223687 0.117662
v -0.151827 -0.184116 0.120004
v -0.156321 -0.175575 0.117220
v -0.156321 -0.175575 0.120004
v -0.136178 -0.175881 0.120004
v -0.144002 -0.179998 0.117221
v -0.144002 -0.179998 0.120004
v -0.145166 -0.158798 0.120003
v -0.140672 -0.167340 0.117220
v -0.140672 -0.167339 0.120003
v -0.160816 -0.167033 0.120003
v -0.152991 -0.162916 0.117219
v -0.152991 -0.162916 0.120003
v -0.267599 -0.248571 0.122790
v -0.270781 -0.235804 0.122789
v -0.272093 -0.240030 0.122789
v -0.248467 -0.238504 0.122789
v -0.259491 -0.240768 0.122789
v -0.255264 -0.242080 0.122790
v -0.260370 -0.215883 0.122788
v -0.257188 -0.228651 0.122789
v -0.255876 -0.224424 0.122788
v -0.279502 -0.225951 0.122788
v -0.268479 -0.223686 0.122788
v -0.272705 -0.222374 0.122788
v -0.153139 -0.188342 0.122788
v -0.156321 -0.175574 0.122787
v -0.157634 -0.179801 0.122787
v -0.131950 -0.177192 0.122788
v -0.144002 -0.179998 0.122788
v -0.139775 -0.181310 0.122788
v -0.143854 -0.154571 0.122786
v -0.140672 -0.167339 0.122787
v -0.139360 -0.163112 0.122786
v -0.165042 -0.165721 0.122786
v -0.152991 -0.162916 0.122786
v -0.157217 -0.161604 0.122786
v -0.256576 -0.246306 0.131596
v -0.276320 -0.238717 0.131595
v -0.263985 -0.232226 0.131595
v -0.256575 -0.246306 0.122790
v -0.268911 -0.252797 0.127193
v -0.256576 -0.246306 0.127193
v -0.271394 -0.218146 0.131593
v -0.283729 -0.224638 0.127191
v -0.271394 -0.218147 0.127190
v -0.199346 -0.216191 0.131595
v -0.251649 -0.225735 0.131594
v -0.206755 -0.202111 0.131594
v -0.199346 -0.216192 0.122789
v -0.244241 -0.239815 0.127193
v -0.199346 -0.216191 0.127192
v -0.214164 -0.188032 0.122787
v -0.251649 -0.225736 0.122788
v -0.206755 -0.202112 0.122788
v -0.214164 -0.188032 0.131593
v -0.259058 -0.211655 0.127190
v -0.214164 -0.188032 0.127190
v -0.141088 -0.185535 0.131594
v -0.161861 -0.178488 0.131593
v -0.148496 -0.171456 0.131593
v -0.141087 -0.185536 0.122788
v -0.154452 -0.192568 0.127191
v -0.141088 -0.185536 0.127191
v -0.155906 -0.157376 0.131592
v -0.169269 -0.164409 0.127189
v -0.155906 -0.157376 0.127189
v 0.126035 -0.046668 0.131590
v -0.135133 -0.164424 0.131593
v 0.118625 -0.032588 0.131589
v 0.126035 -0.046669 0.122784
v -0.127723 -0.178504 0.127191
v 0.126035 -0.046668 0.127187
v 0.111217 -0.018509 0.122781
v -0.135132 -0.164424 0.122787
v 0.118626 -0.032589 0.122783
v 0.111216 -0.018509 0.131587
v -0.142542 -0.150344 0.127188
v 0.111217 -0.018509 0.127184
v -0.276320 -0.238718 0.127192
v 0.395668 0.131432 0.127180
v 0.380322 0.122379 0.131583
v 0.380322 0.122379 0.127180
v 0.412947 0.098597 0.127182
v 0.404307 0.115015 0.131584
v 0.404308 0.115015 0.127181
v 0.379793 0.085167 0.127183
v 0.396370 0.091883 0.131586
v 0.396370 0.091882 0.127183
v 0.367003 0.112788 0.120980
v 0.372384 0.099246 0.122778
v 0.374412 0.098709 0.120981
v 0.395033 0.129323 0.120979
v 0.380322 0.122379 0.122777
v 0.379686 0.120270 0.120979
v 0.410812 0.099337 0.120982
v 0.404308 0.115014 0.122778
v 0.402173 0.115755 0.120980
v 0.380535 0.087073 0.120982
v 0.396370 0.091882 0.122780
v 0.397112 0.093788 0.120982
v 0.369031 0.112251 0.114689
v 0.375154 0.100615 0.119183
v 0.375154 0.100614 0.114690
v 0.394397 0.127214 0.114689
v 0.381714 0.119732 0.119182
v 0.381714 0.119732 0.114689
v 0.408677 0.100078 0.114691
v 0.401537 0.113646 0.119183
v 0.401537 0.113646 0.114690
v 0.381277 0.088978 0.114691
v 0.394977 0.094528 0.119184
v 0.394977 0.094528 0.114691
v 0.364874 0.113431 0.110196
v 0.375154 0.100614 0.110197
v 0.370997 0.101794 0.110197
v 0.395637 0.131578 0.110195
v 0.381714 0.119732 0.110196
v 0.382954 0.124096 0.110196
v 0.413056 0.098475 0.110198
v 0.401537 0.113645 0.110197
v 0.405917 0.112043 0.110197
v 0.379827 0.085014 0.110198
v 0.394977 0.094527 0.110198
v 0.393527 0.090563 0.110198
v 0.360716 0.114611 0.107761
v 0.369546 0.097830 0.110197
v 0.369546 0.097830 0.107762
v 0.396877 0.135942 0.107760
v 0.378797 0.125277 0.110196
v 0.378797 0.125276 0.107760
v 0.417436 0.096872 0.107763
v 0.407157 0.116407 0.110197
v 0.407157 0.116407 0.107762
v 0.378376 0.081049 0.107764
v 0.397906 0.088961 0.110199
v 0.397906 0.088961 0.107763
v 0.372384 0.099247 0.131584
v 0.388961 0.105962 0.131584
v -0.464907 0.405698 -0.108011
v -0.462792 0.396536 -0.108011
v -0.455589 0.382846 -0.108010
v -0.447328 0.384754 -0.108009
v -0.434438 0.391536 -0.108010
v -0.436553 0.400699 -0.108010
v -0.443756 0.414389 -0.108012
v -0.452018 0.412481 -0.108012
v -0.443824 0.414291 0.107926
v -0.441753 0.405317 0.107927
v -0.434551 0.391627 0.107928
v -0.442642 0.389758 0.107928
v -0.455531 0.382976 0.107928
v -0.457605 0.391950 0.107927
v -0.464808 0.405640 0.107926
v -0.456713 0.407509 0.107926
v 0.476898 -0.040276 0.060976
v 0.478629 -0.073789 0.032956
v 0.477198 -0.046079 0.028034
v 0.475469 -0.012570 0.000009
v 0.477200 -0.046084 -0.028011
v 0.461097 0.265854 -0.060977
v 0.459366 0.299366 -0.032957
v 0.460796 0.271657 -0.028035
v 0.462526 0.238149 -0.000010
v 0.460795 0.271661 0.028010
v 0.466778 0.293930 -0.065899
v 0.466477 0.299733 -0.032957
v 0.460529 0.276857 -0.094868
v 0.468503 0.260519 -0.123836
v 0.467641 0.277224 -0.094868
v 0.462714 0.234559 -0.145337
v 0.471147 0.209334 -0.166837
v 0.469825 0.234926 -0.145337
v 0.465656 0.177574 -0.178275
v 0.474388 0.146549 -0.189713
v 0.472768 0.177941 -0.178275
v 0.469002 0.112775 -0.189711
v 0.477838 0.079735 -0.189708
v 0.476113 0.113142 -0.189711
v 0.472347 0.047977 -0.178266
v 0.481078 0.016953 -0.166823
v 0.479458 0.048344 -0.178265
v 0.475288 -0.009003 -0.145318
v 0.483720 -0.034226 -0.123814
v 0.482399 -0.008636 -0.145318
v 0.477470 -0.051294 -0.094843
v 0.485443 -0.067628 -0.065872
v 0.484581 -0.050927 -0.094843
v 0.478630 -0.073794 -0.032929
v 0.486041 -0.079226 0.000014
v 0.485742 -0.073427 -0.032929
v 0.476040 -0.023585 -0.114567
v 0.475471 -0.012576 -0.080678
v 0.476039 -0.023584 -0.089925
v 0.473595 0.023772 -0.136073
v 0.474348 0.009190 -0.105321
v 0.474719 0.002004 -0.136071
v 0.470597 0.081866 -0.147518
v 0.471845 0.057661 -0.105325
v 0.471975 0.055163 -0.147516
v 0.467405 0.143690 -0.147522
v 0.469000 0.112781 -0.105329
v 0.468872 0.115273 -0.147520
v 0.464405 0.201785 -0.136086
v 0.466154 0.167900 -0.105333
v 0.465784 0.175082 -0.136084
v 0.461960 0.249146 -0.114587
v 0.463652 0.216372 -0.105337
v 0.463084 0.227378 -0.114586
v 0.462528 0.238142 -0.080696
v 0.461097 0.265851 -0.085619
v 0.461094 0.265863 0.060953
v 0.459364 0.299371 0.032928
v 0.461955 0.249163 0.114566
v 0.462524 0.238154 0.080677
v 0.461956 0.249161 0.089924
v 0.464399 0.201805 0.136072
v 0.463647 0.216387 0.105320
v 0.463276 0.223573 0.136070
v 0.467398 0.143711 0.147517
v 0.466150 0.167916 0.105324
v 0.466020 0.170414 0.147515
v 0.470590 0.081888 0.147521
v 0.468995 0.112796 0.105328
v 0.469123 0.110304 0.147519
v 0.473589 0.023792 0.136085
v 0.471841 0.057677 0.105332
v 0.472211 0.050495 0.136083
v 0.476035 -0.023569 0.114587
v 0.474343 0.009206 0.105336
v 0.474911 -0.001800 0.114585
v 0.475467 -0.012564 0.080696
v 0.476898 -0.040274 0.085618
v 0.476901 -0.040285 -0.060954
v 0.473589 0.300101 -0.032957
v 0.474752 0.277592 -0.094868
v 0.474452 0.283395 -0.061925
v 0.492852 -0.073055 0.032957
v 0.485740 -0.073422 0.032956
v 0.491689 -0.050546 0.094867
v 0.485440 -0.067618 0.065899
v 0.484577 -0.050913 0.094867
v 0.489504 -0.008248 0.145336
v 0.483714 -0.034207 0.123836
v 0.482393 -0.008615 0.145336
v 0.486562 0.048737 0.178275
v 0.481071 0.016978 0.166836
v 0.479450 0.048370 0.178275
v 0.483216 0.113537 0.189710
v 0.477829 0.079763 0.189713
v 0.476105 0.113170 0.189710
v 0.479871 0.178335 0.178265
v 0.474380 0.146577 0.189708
v 0.472760 0.177968 0.178265
v 0.476930 0.235315 0.145318
v 0.471139 0.209358 0.166822
v 0.469819 0.234948 0.145318
v 0.474748 0.277605 0.094843
v 0.468498 0.260537 0.123814
v 0.467636 0.277238 0.094843
v 0.473587 0.300105 0.032929
v 0.466775 0.293939 0.065872
v 0.466476 0.299738 0.032929
v 0.322375 0.004656 -0.105324
v 0.307277 0.029017 -0.078994
v 0.322374 0.004659 -0.078992
v 0.406472 -0.016140 -0.105321
v 0.337471 -0.019701 -0.080680
v 0.406471 -0.016138 -0.080679
v 0.390251 0.029987 -0.105325
v 0.405348 0.005628 -0.105322
v 0.380955 0.076016 -0.105328
v 0.299360 0.048342 -0.105328
v 0.388872 0.056690 -0.105327
v 0.382144 0.187025 -0.105336
v 0.293682 0.158334 -0.105336
v 0.376314 0.165912 -0.105335
v 0.393528 0.234578 -0.105340
v 0.312020 0.205231 -0.105339
v 0.381020 0.208794 -0.105338
v 0.393527 0.234582 -0.056056
v 0.324528 0.231018 -0.080699
v 0.393528 0.234580 -0.080698
v 0.299511 0.179449 -0.079005
v 0.312020 0.205233 -0.079007
v 0.287851 0.137221 -0.079003
v 0.293681 0.158335 -0.079004
v 0.291442 0.067670 -0.078997
v 0.289647 0.102445 -0.105332
v 0.289647 0.102447 -0.079000
v 0.299360 0.048344 -0.078996
v 0.443954 0.090610 -0.105328
v 0.397911 0.088945 -0.105329
v 0.424424 0.082699 -0.105328
v 0.432207 0.138562 -0.105332
v 0.407161 0.116391 -0.105331
v 0.442487 0.119027 -0.105330
v 0.342367 0.136574 -0.105333
v 0.377692 0.139209 -0.105333
v 0.334912 0.074351 -0.105329
v 0.369551 0.097814 -0.105330
v 0.326082 0.091132 -0.105330
v 0.324282 0.125924 0.105324
v 0.369546 0.097830 0.105327
v 0.333112 0.109143 0.105325
v 0.432203 0.138577 0.105325
v 0.342362 0.136589 0.105324
v 0.377688 0.139225 0.105324
v 0.443949 0.090626 0.105329
v 0.407157 0.116407 0.105326
v 0.433670 0.110161 0.105328
v 0.334907 0.074366 0.105328
v 0.424419 0.082714 0.105329
v 0.380950 0.076032 0.105329
v 0.337470 -0.019695 0.000006
v 0.322374 0.004661 -0.054350
v 0.322373 0.004665 0.001695
v 0.307276 0.029024 0.000002
v 0.299359 0.048346 -0.052664
v 0.299358 0.048350 0.000001
v 0.291440 0.067676 -0.000001
v 0.289646 0.102447 -0.052668
v 0.289645 0.102451 -0.000004
v 0.287850 0.137226 -0.000006
v 0.293681 0.158336 -0.052672
v 0.293680 0.158340 -0.000008
v 0.299510 0.179455 -0.000009
v 0.312019 0.205235 -0.054365
v 0.312018 0.205239 -0.001701
v 0.291439 0.067682 0.078995
v 0.299356 0.048357 0.105329
v 0.299356 0.048355 0.078997
v 0.287848 0.137233 0.078990
v 0.289643 0.102460 0.105325
v 0.289643 0.102457 0.078993
v 0.299508 0.179461 0.078987
v 0.293677 0.158350 0.105321
v 0.293678 0.158348 0.078989
v 0.324524 0.231029 0.080674
v 0.312016 0.205247 0.105318
v 0.312016 0.205245 0.080676
v 0.393525 0.234590 0.056034
v 0.324526 0.231023 -0.000012
v 0.393526 0.234586 -0.000011
v 0.393524 0.234593 0.105317
v 0.393524 0.234591 0.080676
v 0.382139 0.187041 0.105321
v 0.394647 0.212825 0.105319
v 0.383518 0.160338 0.105323
v 0.390246 0.030002 0.105332
v 0.382329 0.049329 0.105331
v 0.406467 -0.016125 0.105336
v 0.322370 0.004672 0.105333
v 0.391370 0.008234 0.105334
v 0.406468 -0.016128 0.056052
v 0.337468 -0.019689 0.080693
v 0.406468 -0.016127 0.080694
v 0.406471 -0.016137 -0.056037
v 0.406469 -0.016133 0.000008
v 0.322371 0.004669 0.054359
v 0.307274 0.029029 0.078999
v 0.322371 0.004670 0.080691
v 0.378797 0.125276 0.105325
v 0.397906 0.088960 0.105328
v 0.324286 0.125908 -0.105333
v 0.378802 0.125261 -0.105332
v -0.448254 0.377077 -0.092435
v -0.470261 0.387655 -0.092436
v -0.460832 0.376652 -0.092435
v -0.407629 0.389303 -0.092435
v -0.439639 0.379066 -0.092435
v -0.406814 0.376313 -0.092434
v -0.475763 0.430185 -0.092439
v -0.409743 0.398454 -0.092436
v -0.440824 0.418280 -0.092438
v -0.459798 0.397232 -0.092437
v -0.472376 0.396806 -0.092437
v -0.470491 0.387482 0.092353
v -0.449149 0.389796 0.092353
v -0.461501 0.389557 0.092353
v -0.484535 0.428309 0.092350
v -0.460180 0.397158 0.092353
v -0.482493 0.418873 0.092350
v -0.453231 0.408669 0.092352
v -0.475545 0.430384 0.092350
v -0.442200 0.401306 0.092353
v -0.409525 0.398653 0.092354
v -0.407483 0.389217 0.092354
v -0.401015 0.406442 -0.067188
v -0.437975 0.424208 -0.048201
v -0.414559 0.412951 -0.067189
v -0.401018 0.406452 0.067105
v -0.424432 0.417702 -0.000043
v -0.401017 0.406448 0.018948
v -0.474940 0.441981 0.067101
v -0.437977 0.424215 0.048115
v -0.461396 0.435471 0.067102
v -0.474937 0.441971 -0.067192
v -0.451520 0.430721 -0.000044
v -0.474938 0.441975 -0.019034
v -0.366006 0.419304 -0.086177
v -0.437977 0.424205 -0.086179
v -0.426384 0.448324 -0.086181
v -0.366010 0.419317 0.086094
v -0.377601 0.395191 -0.000040
v -0.366008 0.419310 -0.000042
v -0.486766 0.477356 0.086087
v -0.437981 0.424217 0.086092
v -0.426388 0.448336 0.086091
v -0.486762 0.477343 -0.086184
v -0.498357 0.453231 -0.000047
v -0.486764 0.477349 -0.000048
v -0.351593 0.442068 -0.089308
v -0.414791 0.472443 -0.086182
v -0.411971 0.471087 -0.089311
v -0.351597 0.442081 0.089222
v -0.354415 0.443430 -0.000043
v -0.351595 0.442074 0.003087
v -0.477994 0.502830 0.089215
v -0.414795 0.472455 0.086089
v -0.417616 0.473811 0.089218
v -0.477990 0.502817 -0.089315
v -0.475171 0.501468 -0.000050
v -0.477992 0.502823 -0.003180
v -0.460836 0.376666 0.092354
v -0.438826 0.366082 -0.000039
v -0.460834 0.376659 -0.000040
v -0.406818 0.376326 0.092355
v -0.374806 0.386557 -0.000039
v -0.406816 0.376319 -0.000039
v -0.414796 0.472456 0.092348
v -0.361792 0.413645 0.092354
v -0.427812 0.445375 0.092350
v -0.414792 0.472442 -0.092441
v -0.493828 0.477092 -0.092443
v -0.427808 0.445362 -0.092439
v -0.494842 0.418620 -0.092439
v -0.506846 0.450018 -0.000047
v -0.494844 0.418627 -0.000044
v -0.480813 0.504179 -0.000050
v -0.493832 0.477105 0.092346
v -0.493830 0.477098 -0.000049
v -0.348774 0.440719 -0.000043
v -0.361788 0.413631 -0.092436
v -0.361790 0.413638 -0.000041
v -0.439493 0.378979 0.092354
v -0.440828 0.418294 0.092351
v -0.484378 0.428197 -0.092439
v -0.453298 0.408371 -0.092437
v -0.442568 0.401208 -0.092436
v -0.449069 0.390068 -0.092436
v -0.418477 0.430087 -0.048201
v -0.426068 0.448985 -0.048203
v -0.432021 0.436596 -0.048202
v -0.418480 0.430094 0.048115
v -0.412525 0.442480 -0.000044
v -0.418479 0.430091 -0.000043
v -0.445567 0.443113 0.048113
v -0.426070 0.448992 0.048113
v -0.432024 0.436604 0.048114
v -0.445565 0.443106 -0.048203
v -0.439613 0.455498 -0.000046
v -0.445566 0.443109 -0.000045
v -0.426069 0.448989 -0.000045
v -0.294329 -0.237299 0.000009
v -0.019594 -0.352772 0.000023
v -0.081214 -0.362973 0.000022
v 0.379798 0.085149 -0.127183
v -0.276314 -0.238736 -0.122771
v -0.141082 -0.185554 -0.122772
v -0.161855 -0.178507 -0.122773
v -0.256570 -0.246325 -0.122770
v -0.143004 -0.150623 -0.112029
v -0.153978 -0.192325 -0.112026
v -0.155894 -0.157405 -0.107963
v -0.141088 -0.185542 -0.107961
v -0.037513 -0.351099 -0.107946
v -0.461052 0.391235 -0.108010
v -0.435279 0.404815 0.107927
v -0.141093 -0.185526 0.107977
v -0.155899 -0.157389 0.107974
v -0.063296 -0.364648 0.107992
v -0.128203 -0.178743 0.112042
v -0.168789 -0.164171 0.112040
v -0.276320 -0.238718 0.122789
v -0.271393 -0.218147 0.122787
v -0.161860 -0.178489 0.122787
v -0.155905 -0.157377 0.122786
v 0.364975 0.113326 0.127180
v 0.466177 0.305537 -0.000015
v 0.476937 0.235294 -0.145336
v 0.479879 0.178308 -0.178275
v 0.483224 0.113509 -0.189711
v 0.486569 0.048711 -0.178265
v 0.489510 -0.008269 -0.145318
v 0.491693 -0.050560 -0.094843
v 0.492853 -0.073060 -0.032929
v 0.460525 0.276871 0.094843
v 0.462707 0.234581 0.145318
v 0.465648 0.177600 0.178265
v 0.468993 0.112803 0.189710
v 0.472339 0.048003 0.178274
v 0.475281 -0.008982 0.145336
v 0.477466 -0.051280 0.094867
v 0.475773 0.257803 -0.083426
v 0.477394 0.226410 -0.094864
v 0.479119 0.193003 -0.094861
v 0.480739 0.161612 -0.083418
v 0.482060 0.136023 -0.061914
v 0.482921 0.119322 -0.032943
v 0.483220 0.113523 -0.000000
v 0.482920 0.119327 0.032942
v 0.482057 0.136032 0.061911
v 0.480735 0.161624 0.083411
v 0.479115 0.193017 0.094849
v 0.477390 0.226424 0.094847
v 0.475770 0.257815 0.083404
v 0.474449 0.283404 0.061900
v 0.299357 0.048354 0.052665
v 0.289644 0.102455 0.052661
v 0.293679 0.158344 0.052657
v 0.312017 0.205243 0.054344
v -0.494846 0.418634 0.092350
v -0.482841 0.387236 -0.000042
f 1 337 339
f 337 2 338
f 338 3 339
f 337 338 339
f 2 340 342
f 340 4 341
f 341 5 342
f 340 341 342
f 4 343 345
f 343 6 344
f 344 7 345
f 343 344 345
f 6 346 348
f 346 1 347
f 347 8 348
f 346 347 348
f 9 349 351
f 349 10 350
f 350 11 351
f 349 350 351
f 10 352 354
f 352 12 353
f 353 13 354
f 352 353 354
f 12 355 357
f 355 14 356
f 356 15 357
f 355 356 357
f 14 358 360
f 358 9 359
f 359 16 360
f 358 359 360
f 17 361 363
f 361 18 362
f 362 19 363
f 361 362 363
f 20 364 366
f 364 21 365
f 365 22 366
f 364 365 366
f 21 367 365
f 367 23 368
f 368 22 365
f 367 368 365
f 24 369 371
f 369 25 370
f 370 26 371
f 369 370 371
f 27 372 373
f 372 24 371
f 371 26 373
f 372 371 373
f 28 374 376
f 374 29 375
f 375 30 376
f 374 375 376
f 31 377 379
f 377 32 378
f 378 33 379
f 377 378 379
f 34 380 382
f 380 35 381
f 381 36 382
f 380 381 382
f 37 383 384
f 383 34 382
f 382 36 384
f 383 382 384
f 35 380 386
f 380 34 385
f 385 33 386
f 380 385 386
f 29 374 388
f 374 28 387
f 387 37 388
f 374 387 388
f 38 389 391
f 389 37 390
f 390 39 391
f 389 390 391
f 23 367 393
f 367 21 392
f 392 36 393
f 367 392 393
f 38 391 395
f 391 39 394
f 394 20 395
f 391 394 395
f 40 396 398
f 396 20 397
f 397 41 398
f 396 397 398
f 25 369 400
f 369 24 399
f 399 22 400
f 369 399 400
f 40 398 402
f 398 41 401
f 401 27 402
f 398 401 402
f 42 403 405
f 403 27 404
f 404 43 405
f 403 404 405
f 32 377 407
f 377 31 406
f 406 26 407
f 377 406 407
f 33 408 409
f 408 28 376
f 376 30 409
f 408 376 409
f 42 405 411
f 405 43 410
f 410 30 411
f 405 410 411
f 44 412 414
f 412 45 413
f 413 46 414
f 412 413 414
f 45 415 413
f 415 47 416
f 416 46 413
f 415 416 413
f 48 417 419
f 417 49 418
f 418 50 419
f 417 418 419
f 51 420 422
f 420 52 421
f 421 53 422
f 420 421 422
f 54 423 425
f 423 55 424
f 424 56 425
f 423 424 425
f 57 426 428
f 426 58 427
f 427 54 428
f 426 427 428
f 59 429 431
f 429 60 430
f 430 61 431
f 429 430 431
f 62 432 433
f 432 59 431
f 431 61 433
f 432 431 433
f 47 415 435
f 415 45 434
f 434 50 435
f 415 434 435
f 52 420 437
f 420 51 436
f 436 44 437
f 420 436 437
f 63 438 440
f 438 44 439
f 439 64 440
f 438 439 440
f 58 426 442
f 426 57 441
f 441 46 442
f 426 441 442
f 63 440 444
f 440 64 443
f 443 56 444
f 440 443 444
f 65 445 446
f 445 56 424
f 424 55 446
f 445 424 446
f 60 429 448
f 429 59 447
f 447 54 448
f 429 447 448
f 65 446 450
f 446 55 449
f 449 62 450
f 446 449 450
f 66 451 453
f 451 62 452
f 452 67 453
f 451 452 453
f 49 417 455
f 417 48 454
f 454 61 455
f 417 454 455
f 50 456 457
f 456 51 422
f 422 53 457
f 456 422 457
f 66 453 459
f 453 67 458
f 458 53 459
f 453 458 459
f 27 401 461
f 401 41 460
f 460 22 461
f 401 460 461
f 30 410 463
f 410 43 462
f 462 26 463
f 410 462 463
f 37 387 464
f 387 28 408
f 408 33 464
f 387 408 464
f 20 394 466
f 394 39 465
f 465 36 466
f 394 465 466
f 56 443 468
f 443 64 467
f 467 46 468
f 443 467 468
f 62 449 469
f 449 55 423
f 423 54 469
f 449 423 469
f 53 458 471
f 458 67 470
f 470 61 471
f 458 470 471
f 44 436 472
f 436 51 456
f 456 50 472
f 436 456 472
f 68 473 475
f 473 69 474
f 474 70 475
f 473 474 475
f 71 476 478
f 476 72 477
f 477 73 478
f 476 477 478
f 74 479 481
f 479 75 480
f 480 72 481
f 479 480 481
f 76 482 484
f 482 77 483
f 483 75 484
f 482 483 484
f 78 485 487
f 485 73 486
f 486 77 487
f 485 486 487
f 72 488 490
f 488 79 489
f 489 80 490
f 488 489 490
f 75 491 493
f 491 81 492
f 492 79 493
f 491 492 493
f 77 494 496
f 494 82 495
f 495 81 496
f 494 495 496
f 73 497 499
f 497 80 498
f 498 82 499
f 497 498 499
f 79 500 502
f 500 83 501
f 501 84 502
f 500 501 502
f 81 503 505
f 503 85 504
f 504 83 505
f 503 504 505
f 82 506 508
f 506 86 507
f 507 85 508
f 506 507 508
f 80 509 511
f 509 84 510
f 510 86 511
f 509 510 511
f 83 512 514
f 512 87 513
f 513 88 514
f 512 513 514
f 85 515 517
f 515 89 516
f 516 87 517
f 515 516 517
f 86 518 520
f 518 90 519
f 519 89 520
f 518 519 520
f 84 521 523
f 521 88 522
f 522 90 523
f 521 522 523
f 87 524 526
f 524 91 525
f 525 70 526
f 524 525 526
f 89 527 529
f 527 68 528
f 528 91 529
f 527 528 529
f 90 530 531
f 530 69 473
f 473 68 531
f 530 473 531
f 92 532 534
f 532 93 533
f 533 94 534
f 532 533 534
f 90 535 537
f 535 95 536
f 536 96 537
f 535 536 537
f 88 538 540
f 538 97 539
f 539 95 540
f 538 539 540
f 70 541 543
f 541 98 542
f 542 97 543
f 541 542 543
f 69 544 546
f 544 96 545
f 545 98 546
f 544 545 546
f 95 547 549
f 547 99 548
f 548 100 549
f 547 548 549
f 98 550 552
f 550 101 551
f 551 102 552
f 550 551 552
f 96 553 555
f 553 100 554
f 554 101 555
f 553 554 555
f 99 556 558
f 556 103 557
f 557 104 558
f 556 557 558
f 102 559 561
f 559 105 560
f 560 103 561
f 559 560 561
f 101 562 564
f 562 106 563
f 563 105 564
f 562 563 564
f 100 565 567
f 565 104 566
f 566 106 567
f 565 566 567
f 103 568 570
f 568 107 569
f 569 94 570
f 568 569 570
f 106 571 572
f 571 93 532
f 532 92 572
f 571 532 572
f 104 573 574
f 573 94 533
f 533 93 574
f 573 533 574
f 95 575 577
f 575 108 576
f 576 109 577
f 575 576 577
f 97 578 580
f 578 110 579
f 579 108 580
f 578 579 580
f 102 581 583
f 581 111 582
f 582 110 583
f 581 582 583
f 99 584 586
f 584 109 585
f 585 111 586
f 584 585 586
f 103 587 589
f 587 112 588
f 588 113 589
f 587 588 589
f 105 590 592
f 590 114 591
f 591 112 592
f 590 591 592
f 92 593 595
f 593 115 594
f 594 114 595
f 593 594 595
f 107 596 598
f 596 113 597
f 597 115 598
f 596 597 598
f 108 599 601
f 599 116 600
f 600 117 601
f 599 600 601
f 110 602 604
f 602 118 603
f 603 116 604
f 602 603 604
f 111 605 607
f 605 119 606
f 606 118 607
f 605 606 607
f 109 608 610
f 608 117 609
f 609 119 610
f 608 609 610
f 112 611 613
f 611 35 612
f 612 32 613
f 611 612 613
f 114 614 616
f 614 23 615
f 615 35 616
f 614 615 616
f 115 617 619
f 617 25 618
f 618 23 619
f 617 618 619
f 113 620 622
f 620 32 621
f 621 25 622
f 620 621 622
f 116 623 625
f 623 120 624
f 624 121 625
f 623 624 625
f 118 626 628
f 626 122 627
f 627 120 628
f 626 627 628
f 119 629 631
f 629 123 630
f 630 122 631
f 629 630 631
f 117 632 634
f 632 121 633
f 633 123 634
f 632 633 634
f 124 635 637
f 635 125 636
f 636 126 637
f 635 636 637
f 122 638 640
f 638 127 639
f 639 128 640
f 638 639 640
f 129 641 643
f 641 130 642
f 642 131 643
f 641 642 643
f 121 644 646
f 644 132 645
f 645 133 646
f 644 645 646
f 121 647 649
f 647 134 648
f 648 135 649
f 647 648 649
f 120 650 652
f 650 136 651
f 651 134 652
f 650 651 652
f 128 653 655
f 653 137 654
f 654 136 655
f 653 654 655
f 132 656 658
f 656 135 657
f 657 137 658
f 656 657 658
f 122 659 661
f 659 138 660
f 660 139 661
f 659 660 661
f 123 662 664
f 662 140 663
f 663 138 664
f 662 663 664
f 133 665 667
f 665 141 666
f 666 140 667
f 665 666 667
f 127 668 670
f 668 139 669
f 669 141 670
f 668 669 670
f 138 671 673
f 671 142 672
f 672 131 673
f 671 672 673
f 140 674 676
f 674 129 675
f 675 142 676
f 674 675 676
f 141 677 678
f 677 130 641
f 641 129 678
f 677 641 678
f 141 679 681
f 679 143 680
f 680 144 681
f 679 680 681
f 139 682 684
f 682 145 683
f 683 143 684
f 682 683 684
f 131 685 687
f 685 146 686
f 686 145 687
f 685 686 687
f 130 688 690
f 688 144 689
f 689 146 690
f 688 689 690
f 143 691 693
f 691 49 692
f 692 60 693
f 691 692 693
f 145 694 696
f 694 47 695
f 695 49 696
f 694 695 696
f 146 697 699
f 697 58 698
f 698 47 699
f 697 698 699
f 144 700 702
f 700 60 701
f 701 58 702
f 700 701 702
f 128 703 705
f 703 147 704
f 704 148 705
f 703 704 705
f 127 706 708
f 706 18 707
f 707 147 708
f 706 707 708
f 133 709 710
f 709 19 362
f 362 18 710
f 709 362 710
f 132 711 713
f 711 148 712
f 712 19 713
f 711 712 713
f 134 714 716
f 714 149 715
f 715 126 716
f 714 715 716
f 136 717 719
f 717 124 718
f 718 149 719
f 717 718 719
f 137 720 721
f 720 125 635
f 635 124 721
f 720 635 721
f 150 722 724
f 722 151 723
f 723 152 724
f 722 723 724
f 153 725 727
f 725 154 726
f 726 151 727
f 725 726 727
f 155 728 730
f 728 156 729
f 729 154 730
f 728 729 730
f 157 731 732
f 731 19 712
f 712 148 732
f 731 712 732
f 158 733 734
f 733 147 707
f 707 18 734
f 733 707 734
f 159 735 736
f 735 148 704
f 704 147 736
f 735 704 736
f 160 737 739
f 737 157 738
f 738 159 739
f 737 738 739
f 161 740 742
f 740 17 741
f 741 157 742
f 740 741 742
f 162 743 745
f 743 158 744
f 744 17 745
f 743 744 745
f 163 746 748
f 746 159 747
f 747 158 748
f 746 747 748
f 164 749 751
f 749 65 750
f 750 66 751
f 749 750 751
f 165 752 754
f 752 63 753
f 753 65 754
f 752 753 754
f 166 755 757
f 755 52 756
f 756 63 757
f 755 756 757
f 167 758 760
f 758 66 759
f 759 52 760
f 758 759 760
f 168 761 763
f 761 164 762
f 762 167 763
f 761 762 763
f 169 764 766
f 764 165 765
f 765 164 766
f 764 765 766
f 170 767 769
f 767 166 768
f 768 165 769
f 767 768 769
f 171 770 772
f 770 167 771
f 771 166 772
f 770 771 772
f 172 773 775
f 773 173 774
f 774 171 775
f 773 774 775
f 174 776 778
f 776 175 777
f 777 173 778
f 776 777 778
f 169 779 781
f 779 168 780
f 780 175 781
f 779 780 781
f 160 782 784
f 782 170 783
f 783 169 784
f 782 783 784
f 176 785 787
f 785 172 786
f 786 170 787
f 785 786 787
f 177 788 790
f 788 174 789
f 789 172 790
f 788 789 790
f 161 791 793
f 791 169 792
f 792 174 793
f 791 792 793
f 162 794 796
f 794 178 795
f 795 155 796
f 794 795 796
f 179 797 799
f 797 150 798
f 798 178 799
f 797 798 799
f 180 800 802
f 800 153 801
f 801 150 802
f 800 801 802
f 163 803 805
f 803 155 804
f 804 153 805
f 803 804 805
f 176 806 808
f 806 160 807
f 807 163 808
f 806 807 808
f 175 780 810
f 780 168 809
f 809 171 810
f 780 809 810
f 179 811 813
f 811 162 812
f 812 161 813
f 811 812 813
f 154 729 815
f 729 156 814
f 814 152 815
f 729 814 815
f 181 816 818
f 816 176 817
f 817 180 818
f 816 817 818
f 182 819 821
f 819 177 820
f 820 176 821
f 819 820 821
f 183 822 824
f 822 179 823
f 823 177 824
f 822 823 824
f 184 825 827
f 825 180 826
f 826 179 827
f 825 826 827
f 185 828 830
f 828 42 829
f 829 29 830
f 828 829 830
f 186 831 833
f 831 40 832
f 832 42 833
f 831 832 833
f 187 834 836
f 834 38 835
f 835 40 836
f 834 835 836
f 188 837 839
f 837 29 838
f 838 38 839
f 837 838 839
f 189 840 842
f 840 181 841
f 841 184 842
f 840 841 842
f 190 843 845
f 843 182 844
f 844 181 845
f 843 844 845
f 191 846 848
f 846 183 847
f 847 182 848
f 846 847 848
f 192 849 851
f 849 184 850
f 850 183 851
f 849 850 851
f 193 852 854
f 852 185 853
f 853 188 854
f 852 853 854
f 194 855 857
f 855 186 856
f 856 185 857
f 855 856 857
f 195 858 860
f 858 187 859
f 859 186 860
f 858 859 860
f 196 861 863
f 861 188 862
f 862 187 863
f 861 862 863
f 197 864 866
f 864 189 865
f 865 192 866
f 864 865 866
f 198 867 869
f 867 190 868
f 868 189 869
f 867 868 869
f 199 870 872
f 870 191 871
f 871 190 872
f 870 871 872
f 200 873 875
f 873 192 874
f 874 191 875
f 873 874 875
f 201 876 878
f 876 202 877
f 877 203 878
f 876 877 878
f 194 879 881
f 879 193 880
f 880 202 881
f 879 880 881
f 204 882 884
f 882 203 883
f 883 196 884
f 882 883 884
f 205 885 887
f 885 201 886
f 886 204 887
f 885 886 887
f 197 888 890
f 888 194 889
f 889 201 890
f 888 889 890
f 200 891 893
f 891 195 892
f 892 194 893
f 891 892 893
f 206 894 896
f 894 204 895
f 895 195 896
f 894 895 896
f 207 897 899
f 897 205 898
f 898 206 899
f 897 898 899
f 198 900 902
f 900 197 901
f 901 205 902
f 900 901 902
f 208 903 905
f 903 206 904
f 904 200 905
f 903 904 905
f 209 906 908
f 906 207 907
f 907 208 908
f 906 907 908
f 210 909 911
f 909 198 910
f 910 207 911
f 909 910 911
f 211 912 914
f 912 199 913
f 913 198 914
f 912 913 914
f 212 915 917
f 915 208 916
f 916 199 917
f 915 916 917
f 196 883 918
f 883 203 877
f 877 202 918
f 883 877 918
f 213 919 921
f 919 214 920
f 920 212 921
f 919 920 921
f 215 922 924
f 922 216 923
f 923 214 924
f 922 923 924
f 210 925 927
f 925 209 926
f 926 216 927
f 925 926 927
f 217 928 930
f 928 211 929
f 929 210 930
f 928 929 930
f 218 931 933
f 931 213 932
f 932 211 933
f 931 932 933
f 219 934 936
f 934 215 935
f 935 213 936
f 934 935 936
f 220 937 939
f 937 210 938
f 938 215 939
f 937 938 939
f 221 940 942
f 940 217 941
f 941 220 942
f 940 941 942
f 222 943 945
f 943 218 944
f 944 217 945
f 943 944 945
f 223 946 948
f 946 219 947
f 947 218 948
f 946 947 948
f 224 949 951
f 949 220 950
f 950 219 951
f 949 950 951
f 225 952 954
f 952 221 953
f 953 224 954
f 952 953 954
f 226 955 957
f 955 222 956
f 956 221 957
f 955 956 957
f 227 958 960
f 958 223 959
f 959 222 960
f 958 959 960
f 228 961 963
f 961 224 962
f 962 223 963
f 961 962 963
f 229 964 966
f 964 225 965
f 965 228 966
f 964 965 966
f 230 967 969
f 967 226 968
f 968 225 969
f 967 968 969
f 231 970 972
f 970 227 971
f 971 226 972
f 970 971 972
f 232 973 975
f 973 228 974
f 974 227 975
f 973 974 975
f 216 926 977
f 926 209 976
f 976 212 977
f 926 976 977
f 126 978 979
f 978 1 346
f 346 6 979
f 978 346 979
f 135 980 981
f 980 6 343
f 343 4 981
f 980 343 981
f 137 982 983
f 982 4 340
f 340 2 983
f 982 340 983
f 125 984 985
f 984 2 337
f 337 1 985
f 984 337 985
f 152 986 987
f 986 14 355
f 355 12 987
f 986 355 987
f 178 988 989
f 988 12 352
f 352 10 989
f 988 352 989
f 155 990 991
f 990 10 349
f 349 9 991
f 990 349 991
f 156 992 993
f 992 9 358
f 358 14 993
f 992 358 993
f 233 994 996
f 994 234 995
f 995 235 996
f 994 995 996
f 236 997 998
f 997 233 996
f 996 235 998
f 997 996 998
f 237 999 1001
f 999 238 1000
f 1000 239 1001
f 999 1000 1001
f 240 1002 1003
f 1002 237 1001
f 1001 239 1003
f 1002 1001 1003
f 239 1000 1005
f 1000 238 1004
f 1004 241 1005
f 1000 1004 1005
f 238 1006 1008
f 1006 242 1007
f 1007 243 1008
f 1006 1007 1008
f 242 1009 1011
f 1009 244 1010
f 1010 245 1011
f 1009 1010 1011
f 244 1012 1014
f 1012 246 1013
f 1013 247 1014
f 1012 1013 1014
f 246 1015 1017
f 1015 248 1016
f 1016 249 1017
f 1015 1016 1017
f 248 1018 1020
f 1018 250 1019
f 1019 251 1020
f 1018 1019 1020
f 250 1021 1023
f 1021 252 1022
f 1022 253 1023
f 1021 1022 1023
f 252 1024 1026
f 1024 254 1025
f 1025 255 1026
f 1024 1025 1026
f 254 1027 1029
f 1027 235 1028
f 1028 256 1029
f 1027 1028 1029
f 252 1030 1032
f 1030 257 1031
f 1031 236 1032
f 1030 1031 1032
f 250 1033 1035
f 1033 258 1034
f 1034 257 1035
f 1033 1034 1035
f 248 1036 1038
f 1036 259 1037
f 1037 258 1038
f 1036 1037 1038
f 246 1039 1041
f 1039 260 1040
f 1040 259 1041
f 1039 1040 1041
f 244 1042 1044
f 1042 261 1043
f 1043 260 1044
f 1042 1043 1044
f 242 1045 1047
f 1045 262 1046
f 1046 261 1047
f 1045 1046 1047
f 238 999 1049
f 999 237 1048
f 1048 262 1049
f 999 1048 1049
f 263 1050 1051
f 1050 240 1003
f 1003 239 1051
f 1050 1003 1051
f 264 1052 1054
f 1052 265 1053
f 1053 240 1054
f 1052 1053 1054
f 266 1055 1057
f 1055 267 1056
f 1056 265 1057
f 1055 1056 1057
f 268 1058 1060
f 1058 269 1059
f 1059 267 1060
f 1058 1059 1060
f 270 1061 1063
f 1061 271 1062
f 1062 269 1063
f 1061 1062 1063
f 272 1064 1066
f 1064 273 1065
f 1065 271 1066
f 1064 1065 1066
f 274 1067 1069
f 1067 275 1068
f 1068 273 1069
f 1067 1068 1069
f 234 994 1071
f 994 233 1070
f 1070 275 1071
f 994 1070 1071
f 235 1027 998
f 1027 254 1072
f 1072 236 998
f 1027 1072 998
f 276 1073 1075
f 1073 241 1074
f 1074 243 1075
f 1073 1074 1075
f 277 1076 1077
f 1076 256 1028
f 1028 235 1077
f 1076 1028 1077
f 278 1078 1080
f 1078 277 1079
f 1079 234 1080
f 1078 1079 1080
f 279 1081 1083
f 1081 278 1082
f 1082 274 1083
f 1081 1082 1083
f 280 1084 1086
f 1084 279 1085
f 1085 272 1086
f 1084 1085 1086
f 281 1087 1089
f 1087 280 1088
f 1088 270 1089
f 1087 1088 1089
f 282 1090 1092
f 1090 281 1091
f 1091 268 1092
f 1090 1091 1092
f 283 1093 1095
f 1093 282 1094
f 1094 266 1095
f 1093 1094 1095
f 284 1096 1098
f 1096 283 1097
f 1097 264 1098
f 1096 1097 1098
f 276 1099 1101
f 1099 284 1100
f 1100 263 1101
f 1099 1100 1101
f 285 1102 1104
f 1102 286 1103
f 1103 287 1104
f 1102 1103 1104
f 257 1105 1107
f 1105 285 1106
f 1106 288 1107
f 1105 1106 1107
f 258 1108 1109
f 1108 286 1102
f 1102 285 1109
f 1108 1102 1109
f 259 1110 1112
f 1110 289 1111
f 1111 286 1112
f 1110 1111 1112
f 261 1113 1115
f 1113 290 1114
f 1114 291 1115
f 1113 1114 1115
f 262 1116 1118
f 1116 292 1117
f 1117 290 1118
f 1116 1117 1118
f 237 1119 1121
f 1119 293 1120
f 1120 292 1121
f 1119 1120 1121
f 294 1122 1123
f 1122 290 1117
f 1117 292 1123
f 1122 1117 1123
f 295 1124 1125
f 1124 291 1114
f 1114 290 1125
f 1124 1114 1125
f 296 1126 1128
f 1126 289 1127
f 1127 291 1128
f 1126 1127 1128
f 287 1103 1129
f 1103 286 1111
f 1111 289 1129
f 1103 1111 1129
f 259 1130 1132
f 1130 71 1131
f 1131 78 1132
f 1130 1131 1132
f 260 1133 1135
f 1133 74 1134
f 1134 71 1135
f 1133 1134 1135
f 291 1136 1137
f 1136 74 1133
f 1133 260 1137
f 1136 1133 1137
f 289 1138 1140
f 1138 78 1139
f 1139 76 1140
f 1138 1139 1140
f 297 1141 1143
f 1141 229 1142
f 1142 232 1143
f 1141 1142 1143
f 269 1144 1146
f 1144 230 1145
f 1145 297 1146
f 1144 1145 1146
f 271 1147 1149
f 1147 231 1148
f 1148 230 1149
f 1147 1148 1149
f 298 1150 1152
f 1150 232 1151
f 1151 271 1152
f 1150 1151 1152
f 299 1153 1155
f 1153 288 1154
f 1154 287 1155
f 1153 1154 1155
f 300 1156 1158
f 1156 287 1157
f 1157 296 1158
f 1156 1157 1158
f 301 1159 1161
f 1159 296 1160
f 1160 295 1161
f 1159 1160 1161
f 302 1162 1164
f 1162 295 1163
f 1163 294 1164
f 1162 1163 1164
f 303 1165 1167
f 1165 294 1166
f 1166 293 1167
f 1165 1166 1167
f 301 1168 1170
f 1168 298 1169
f 1169 304 1170
f 1168 1169 1170
f 302 1171 1173
f 1171 297 1172
f 1172 298 1173
f 1171 1172 1173
f 303 1174 1176
f 1174 305 1175
f 1175 297 1176
f 1174 1175 1176
f 306 1177 1179
f 1177 307 1178
f 1178 305 1179
f 1177 1178 1179
f 240 1180 1182
f 1180 306 1181
f 1181 293 1182
f 1180 1181 1182
f 265 1183 1184
f 1183 307 1177
f 1177 306 1184
f 1183 1177 1184
f 267 1185 1186
f 1185 305 1178
f 1178 307 1186
f 1185 1178 1186
f 269 1146 1187
f 1146 297 1175
f 1175 305 1187
f 1146 1175 1187
f 273 1188 1189
f 1188 304 1169
f 1169 298 1189
f 1188 1169 1189
f 275 1190 1192
f 1190 308 1191
f 1191 304 1192
f 1190 1191 1192
f 233 1193 1195
f 1193 299 1194
f 1194 308 1195
f 1193 1194 1195
f 236 1196 1197
f 1196 288 1153
f 1153 299 1197
f 1196 1153 1197
f 299 1198 1200
f 1198 300 1199
f 1199 304 1200
f 1198 1199 1200
f 230 1201 1145
f 1201 229 1141
f 1141 297 1145
f 1201 1141 1145
f 232 1202 1151
f 1202 231 1147
f 1147 271 1151
f 1202 1147 1151
f 291 1203 1136
f 1203 76 1204
f 1204 74 1136
f 1203 1204 1136
f 309 1205 1207
f 1205 7 1206
f 1206 310 1207
f 1205 1206 1207
f 311 1208 1210
f 1208 5 1209
f 1209 309 1210
f 1208 1209 1210
f 312 1211 1213
f 1211 3 1212
f 1212 311 1213
f 1211 1212 1213
f 310 1206 1215
f 1206 7 1214
f 1214 8 1215
f 1206 1214 1215
f 313 1216 1218
f 1216 11 1217
f 1217 13 1218
f 1216 1217 1218
f 314 1219 1221
f 1219 16 1220
f 1220 11 1221
f 1219 1220 1221
f 15 1222 1223
f 1222 16 1219
f 1219 314 1223
f 1222 1219 1223
f 13 1224 1226
f 1224 15 1225
f 1225 315 1226
f 1224 1225 1226
f 316 1227 1229
f 1227 317 1228
f 1228 318 1229
f 1227 1228 1229
f 319 1230 1232
f 1230 320 1231
f 1231 317 1232
f 1230 1231 1232
f 321 1233 1235
f 1233 322 1234
f 1234 320 1235
f 1233 1234 1235
f 323 1236 1238
f 1236 318 1237
f 1237 322 1238
f 1236 1237 1238
f 324 1239 1241
f 1239 316 1240
f 1240 323 1241
f 1239 1240 1241
f 325 1242 1244
f 1242 319 1243
f 1243 316 1244
f 1242 1243 1244
f 326 1245 1247
f 1245 321 1246
f 1246 319 1247
f 1245 1246 1247
f 327 1248 1250
f 1248 323 1249
f 1249 321 1250
f 1248 1249 1250
f 328 1251 1253
f 1251 324 1252
f 1252 327 1253
f 1251 1252 1253
f 329 1254 1256
f 1254 325 1255
f 1255 324 1256
f 1254 1255 1256
f 330 1257 1259
f 1257 326 1258
f 1258 325 1259
f 1257 1258 1259
f 331 1260 1262
f 1260 327 1261
f 1261 326 1262
f 1260 1261 1262
f 313 1263 1265
f 1263 332 1264
f 1264 309 1265
f 1263 1264 1265
f 332 1266 1268
f 1266 315 1267
f 1267 311 1268
f 1266 1267 1268
f 330 1269 1271
f 1269 329 1270
f 1270 315 1271
f 1269 1270 1271
f 328 1272 1274
f 1272 331 1273
f 1273 312 1274
f 1272 1273 1274
f 310 1275 1277
f 1275 312 1276
f 1276 314 1277
f 1275 1276 1277
f 331 1278 1280
f 1278 330 1279
f 1279 314 1280
f 1278 1279 1280
f 329 1281 1283
f 1281 328 1282
f 1282 311 1283
f 1281 1282 1283
f 315 1266 1226
f 1266 332 1284
f 1284 13 1226
f 1266 1284 1226
f 314 1285 1223
f 1285 315 1225
f 1225 15 1223
f 1285 1225 1223
f 312 1286 1211
f 1286 8 1287
f 1287 3 1211
f 1286 1287 1211
f 311 1212 1208
f 1212 3 1288
f 1288 5 1208
f 1212 1288 1208
f 309 1209 1205
f 1209 5 1289
f 1289 7 1205
f 1209 1289 1205
f 317 1290 1292
f 1290 333 1291
f 1291 334 1292
f 1290 1291 1292
f 320 1293 1295
f 1293 335 1294
f 1294 333 1295
f 1293 1294 1295
f 322 1296 1298
f 1296 336 1297
f 1297 335 1298
f 1296 1297 1298
f 318 1299 1301
f 1299 334 1300
f 1300 336 1301
f 1299 1300 1301
f 336 1300 1302
f 1300 334 1291
f 1291 333 1302
f 1300 1291 1302
f 1 339 347
f 339 3 1287
f 1287 8 347
f 339 1287 347
f 2 342 338
f 342 5 1288
f 1288 3 338
f 342 1288 338
f 4 345 341
f 345 7 1289
f 1289 5 341
f 345 1289 341
f 6 348 344
f 348 8 1214
f 1214 7 344
f 348 1214 344
f 9 351 359
f 351 11 1220
f 1220 16 359
f 351 1220 359
f 10 354 350
f 354 13 1217
f 1217 11 350
f 354 1217 350
f 12 357 353
f 357 15 1224
f 1224 13 353
f 357 1224 353
f 14 360 356
f 360 16 1222
f 1222 15 356
f 360 1222 356
f 17 363 741
f 363 19 731
f 731 157 741
f 363 731 741
f 20 366 397
f 366 22 460
f 460 41 397
f 366 460 397
f 27 373 404
f 373 26 462
f 462 43 404
f 373 462 404
f 37 384 390
f 384 36 465
f 465 39 390
f 384 465 390
f 35 386 612
f 386 33 378
f 378 32 612
f 386 378 612
f 29 388 838
f 388 37 389
f 389 38 838
f 388 389 838
f 23 393 615
f 393 36 381
f 381 35 615
f 393 381 615
f 38 395 835
f 395 20 396
f 396 40 835
f 395 396 835
f 25 400 618
f 400 22 368
f 368 23 618
f 400 368 618
f 40 402 832
f 402 27 403
f 403 42 832
f 402 403 832
f 32 407 621
f 407 26 370
f 370 25 621
f 407 370 621
f 33 409 379
f 409 30 1303
f 1303 31 379
f 409 1303 379
f 42 411 829
f 411 30 375
f 375 29 829
f 411 375 829
f 44 414 439
f 414 46 467
f 467 64 439
f 414 467 439
f 54 425 428
f 425 56 1304
f 1304 57 428
f 425 1304 428
f 62 433 452
f 433 61 470
f 470 67 452
f 433 470 452
f 47 435 695
f 435 50 418
f 418 49 695
f 435 418 695
f 52 437 756
f 437 44 438
f 438 63 756
f 437 438 756
f 58 442 698
f 442 46 416
f 416 47 698
f 442 416 698
f 63 444 753
f 444 56 445
f 445 65 753
f 444 445 753
f 60 448 701
f 448 54 427
f 427 58 701
f 448 427 701
f 65 450 750
f 450 62 451
f 451 66 750
f 450 451 750
f 49 455 692
f 455 61 430
f 430 60 692
f 455 430 692
f 50 457 419
f 457 53 1305
f 1305 48 419
f 457 1305 419
f 66 459 759
f 459 53 421
f 421 52 759
f 459 421 759
f 27 461 372
f 461 22 399
f 399 24 372
f 461 399 372
f 30 463 1303
f 463 26 406
f 406 31 1303
f 463 406 1303
f 37 464 383
f 464 33 385
f 385 34 383
f 464 385 383
f 20 466 364
f 466 36 392
f 392 21 364
f 466 392 364
f 56 468 1304
f 468 46 441
f 441 57 1304
f 468 441 1304
f 62 469 432
f 469 54 447
f 447 59 432
f 469 447 432
f 53 471 1305
f 471 61 454
f 454 48 1305
f 471 454 1305
f 44 472 412
f 472 50 434
f 434 45 412
f 472 434 412
f 68 475 528
f 475 70 525
f 525 91 528
f 475 525 528
f 71 478 1131
f 478 73 485
f 485 78 1131
f 478 485 1131
f 74 481 1134
f 481 72 476
f 476 71 1134
f 481 476 1134
f 76 484 1204
f 484 75 479
f 479 74 1204
f 484 479 1204
f 78 487 1139
f 487 77 482
f 482 76 1139
f 487 482 1139
f 72 490 477
f 490 80 497
f 497 73 477
f 490 497 477
f 75 493 480
f 493 79 488
f 488 72 480
f 493 488 480
f 77 496 483
f 496 81 491
f 491 75 483
f 496 491 483
f 73 499 486
f 499 82 494
f 494 77 486
f 499 494 486
f 79 502 489
f 502 84 509
f 509 80 489
f 502 509 489
f 81 505 492
f 505 83 500
f 500 79 492
f 505 500 492
f 82 508 495
f 508 85 503
f 503 81 495
f 508 503 495
f 80 511 498
f 511 86 506
f 506 82 498
f 511 506 498
f 83 514 501
f 514 88 521
f 521 84 501
f 514 521 501
f 85 517 504
f 517 87 512
f 512 83 504
f 517 512 504
f 86 520 507
f 520 89 515
f 515 85 507
f 520 515 507
f 84 523 510
f 523 90 518
f 518 86 510
f 523 518 510
f 87 526 513
f 526 70 1306
f 1306 88 513
f 526 1306 513
f 89 529 516
f 529 91 524
f 524 87 516
f 529 524 516
f 90 531 519
f 531 68 527
f 527 89 519
f 531 527 519
f 92 534 1307
f 534 94 569
f 569 107 1307
f 534 569 1307
f 90 537 530
f 537 96 544
f 544 69 530
f 537 544 530
f 88 540 522
f 540 95 535
f 535 90 522
f 540 535 522
f 70 543 1306
f 543 97 538
f 538 88 1306
f 543 538 1306
f 69 546 474
f 546 98 541
f 541 70 474
f 546 541 474
f 95 549 536
f 549 100 553
f 553 96 536
f 549 553 536
f 98 552 542
f 552 102 1308
f 1308 97 542
f 552 1308 542
f 96 555 545
f 555 101 550
f 550 98 545
f 555 550 545
f 99 558 548
f 558 104 565
f 565 100 548
f 558 565 548
f 102 561 1309
f 561 103 556
f 556 99 1309
f 561 556 1309
f 101 564 551
f 564 105 559
f 559 102 551
f 564 559 551
f 100 567 554
f 567 106 562
f 562 101 554
f 567 562 554
f 103 570 557
f 570 94 573
f 573 104 557
f 570 573 557
f 106 572 563
f 572 92 1310
f 1310 105 563
f 572 1310 563
f 104 574 566
f 574 93 571
f 571 106 566
f 574 571 566
f 95 577 547
f 577 109 584
f 584 99 547
f 577 584 547
f 97 580 539
f 580 108 575
f 575 95 539
f 580 575 539
f 102 583 1308
f 583 110 578
f 578 97 1308
f 583 578 1308
f 99 586 1309
f 586 111 581
f 581 102 1309
f 586 581 1309
f 103 589 568
f 589 113 596
f 596 107 568
f 589 596 568
f 105 592 560
f 592 112 587
f 587 103 560
f 592 587 560
f 92 595 1310
f 595 114 590
f 590 105 1310
f 595 590 1310
f 107 598 1307
f 598 115 593
f 593 92 1307
f 598 593 1307
f 108 601 576
f 601 117 608
f 608 109 576
f 601 608 576
f 110 604 579
f 604 116 599
f 599 108 579
f 604 599 579
f 111 607 582
f 607 118 602
f 602 110 582
f 607 602 582
f 109 610 585
f 610 119 605
f 605 111 585
f 610 605 585
f 112 613 588
f 613 32 620
f 620 113 588
f 613 620 588
f 114 616 591
f 616 35 611
f 611 112 591
f 616 611 591
f 115 619 594
f 619 23 614
f 614 114 594
f 619 614 594
f 113 622 597
f 622 25 617
f 617 115 597
f 622 617 597
f 116 625 600
f 625 121 632
f 632 117 600
f 625 632 600
f 118 628 603
f 628 120 623
f 623 116 603
f 628 623 603
f 119 631 606
f 631 122 626
f 626 118 606
f 631 626 606
f 117 634 609
f 634 123 629
f 629 119 609
f 634 629 609
f 124 637 718
f 637 126 715
f 715 149 718
f 637 715 718
f 122 640 627
f 640 128 1311
f 1311 120 627
f 640 1311 627
f 129 643 675
f 643 131 672
f 672 142 675
f 643 672 675
f 121 646 633
f 646 133 1312
f 1312 123 633
f 646 1312 633
f 121 649 644
f 649 135 656
f 656 132 644
f 649 656 644
f 120 652 624
f 652 134 647
f 647 121 624
f 652 647 624
f 128 655 1311
f 655 136 650
f 650 120 1311
f 655 650 1311
f 132 658 1313
f 658 137 653
f 653 128 1313
f 658 653 1313
f 122 661 638
f 661 139 668
f 668 127 638
f 661 668 638
f 123 664 630
f 664 138 659
f 659 122 630
f 664 659 630
f 133 667 1312
f 667 140 662
f 662 123 1312
f 667 662 1312
f 127 670 1314
f 670 141 665
f 665 133 1314
f 670 665 1314
f 138 673 660
f 673 131 1315
f 1315 139 660
f 673 1315 660
f 140 676 663
f 676 142 671
f 671 138 663
f 676 671 663
f 141 678 666
f 678 129 674
f 674 140 666
f 678 674 666
f 141 681 677
f 681 144 688
f 688 130 677
f 681 688 677
f 139 684 669
f 684 143 679
f 679 141 669
f 684 679 669
f 131 687 1315
f 687 145 682
f 682 139 1315
f 687 682 1315
f 130 690 642
f 690 146 685
f 685 131 642
f 690 685 642
f 143 693 680
f 693 60 700
f 700 144 680
f 693 700 680
f 145 696 683
f 696 49 691
f 691 143 683
f 696 691 683
f 146 699 686
f 699 47 694
f 694 145 686
f 699 694 686
f 144 702 689
f 702 58 697
f 697 146 689
f 702 697 689
f 128 705 1313
f 705 148 711
f 711 132 1313
f 705 711 1313
f 127 708 639
f 708 147 703
f 703 128 639
f 708 703 639
f 133 710 1314
f 710 18 706
f 706 127 1314
f 710 706 1314
f 132 713 645
f 713 19 709
f 709 133 645
f 713 709 645
f 134 716 648
f 716 126 1316
f 1316 135 648
f 716 1316 648
f 136 719 651
f 719 149 714
f 714 134 651
f 719 714 651
f 137 721 654
f 721 124 717
f 717 136 654
f 721 717 654
f 150 724 798
f 724 152 1317
f 1317 178 798
f 724 1317 798
f 153 727 801
f 727 151 722
f 722 150 801
f 727 722 801
f 155 730 804
f 730 154 725
f 725 153 804
f 730 725 804
f 157 732 738
f 732 148 735
f 735 159 738
f 732 735 738
f 158 734 744
f 734 18 361
f 361 17 744
f 734 361 744
f 159 736 747
f 736 147 733
f 733 158 747
f 736 733 747
f 160 739 807
f 739 159 746
f 746 163 807
f 739 746 807
f 161 742 1318
f 742 157 737
f 737 160 1318
f 742 737 1318
f 162 745 812
f 745 17 740
f 740 161 812
f 745 740 812
f 163 748 1319
f 748 158 743
f 743 162 1319
f 748 743 1319
f 164 751 762
f 751 66 758
f 758 167 762
f 751 758 762
f 165 754 765
f 754 65 749
f 749 164 765
f 754 749 765
f 166 757 768
f 757 63 752
f 752 165 768
f 757 752 768
f 167 760 771
f 760 52 755
f 755 166 771
f 760 755 771
f 168 763 809
f 763 167 770
f 770 171 809
f 763 770 809
f 169 766 779
f 766 164 761
f 761 168 779
f 766 761 779
f 170 769 783
f 769 165 764
f 764 169 783
f 769 764 783
f 171 772 1320
f 772 166 767
f 767 170 1320
f 772 767 1320
f 172 775 786
f 775 171 1320
f 1320 170 786
f 775 1320 786
f 174 778 789
f 778 173 773
f 773 172 789
f 778 773 789
f 169 781 792
f 781 175 776
f 776 174 792
f 781 776 792
f 160 784 1318
f 784 169 791
f 791 161 1318
f 784 791 1318
f 176 787 806
f 787 170 782
f 782 160 806
f 787 782 806
f 177 790 820
f 790 172 785
f 785 176 820
f 790 785 820
f 161 793 1321
f 793 174 788
f 788 177 1321
f 793 788 1321
f 162 796 1319
f 796 155 803
f 803 163 1319
f 796 803 1319
f 179 799 811
f 799 178 794
f 794 162 811
f 799 794 811
f 180 802 826
f 802 150 797
f 797 179 826
f 802 797 826
f 163 805 1322
f 805 153 800
f 800 180 1322
f 805 800 1322
f 176 808 817
f 808 163 1322
f 1322 180 817
f 808 1322 817
f 175 810 777
f 810 171 774
f 774 173 777
f 810 774 777
f 179 813 823
f 813 161 1321
f 1321 177 823
f 813 1321 823
f 154 815 726
f 815 152 723
f 723 151 726
f 815 723 726
f 181 818 841
f 818 180 825
f 825 184 841
f 818 825 841
f 182 821 844
f 821 176 816
f 816 181 844
f 821 816 844
f 183 824 847
f 824 177 819
f 819 182 847
f 824 819 847
f 184 827 850
f 827 179 822
f 822 183 850
f 827 822 850
f 185 830 853
f 830 29 837
f 837 188 853
f 830 837 853
f 186 833 856
f 833 42 828
f 828 185 856
f 833 828 856
f 187 836 859
f 836 40 831
f 831 186 859
f 836 831 859
f 188 839 862
f 839 38 834
f 834 187 862
f 839 834 862
f 189 842 865
f 842 184 849
f 849 192 865
f 842 849 865
f 190 845 868
f 845 181 840
f 840 189 868
f 845 840 868
f 191 848 871
f 848 182 843
f 843 190 871
f 848 843 871
f 192 851 874
f 851 183 846
f 846 191 874
f 851 846 874
f 193 854 1323
f 854 188 861
f 861 196 1323
f 854 861 1323
f 194 857 879
f 857 185 852
f 852 193 879
f 857 852 879
f 195 860 892
f 860 186 855
f 855 194 892
f 860 855 892
f 196 863 1324
f 863 187 858
f 858 195 1324
f 863 858 1324
f 197 866 1325
f 866 192 873
f 873 200 1325
f 866 873 1325
f 198 869 900
f 869 189 864
f 864 197 900
f 869 864 900
f 199 872 913
f 872 190 867
f 867 198 913
f 872 867 913
f 200 875 1326
f 875 191 870
f 870 199 1326
f 875 870 1326
f 201 878 886
f 878 203 882
f 882 204 886
f 878 882 886
f 194 881 889
f 881 202 876
f 876 201 889
f 881 876 889
f 204 884 895
f 884 196 1324
f 1324 195 895
f 884 1324 895
f 205 887 898
f 887 204 894
f 894 206 898
f 887 894 898
f 197 890 901
f 890 201 885
f 885 205 901
f 890 885 901
f 200 893 1325
f 893 194 888
f 888 197 1325
f 893 888 1325
f 206 896 904
f 896 195 891
f 891 200 904
f 896 891 904
f 207 899 907
f 899 206 903
f 903 208 907
f 899 903 907
f 198 902 910
f 902 205 897
f 897 207 910
f 902 897 910
f 208 905 916
f 905 200 1326
f 1326 199 916
f 905 1326 916
f 209 908 976
f 908 208 915
f 915 212 976
f 908 915 976
f 210 911 925
f 911 207 906
f 906 209 925
f 911 906 925
f 211 914 929
f 914 198 909
f 909 210 929
f 914 909 929
f 212 917 1327
f 917 199 912
f 912 211 1327
f 917 912 1327
f 196 918 1323
f 918 202 880
f 880 193 1323
f 918 880 1323
f 213 921 932
f 921 212 1327
f 1327 211 932
f 921 1327 932
f 215 924 935
f 924 214 919
f 919 213 935
f 924 919 935
f 210 927 938
f 927 216 922
f 922 215 938
f 927 922 938
f 217 930 941
f 930 210 937
f 937 220 941
f 930 937 941
f 218 933 944
f 933 211 928
f 928 217 944
f 933 928 944
f 219 936 947
f 936 213 931
f 931 218 947
f 936 931 947
f 220 939 950
f 939 215 934
f 934 219 950
f 939 934 950
f 221 942 953
f 942 220 949
f 949 224 953
f 942 949 953
f 222 945 956
f 945 217 940
f 940 221 956
f 945 940 956
f 223 948 959
f 948 218 943
f 943 222 959
f 948 943 959
f 224 951 962
f 951 219 946
f 946 223 962
f 951 946 962
f 225 954 965
f 954 224 961
f 961 228 965
f 954 961 965
f 226 957 968
f 957 221 952
f 952 225 968
f 957 952 968
f 227 960 971
f 960 222 955
f 955 226 971
f 960 955 971
f 228 963 974
f 963 223 958
f 958 227 974
f 963 958 974
f 229 966 1142
f 966 228 973
f 973 232 1142
f 966 973 1142
f 230 969 1201
f 969 225 964
f 964 229 1201
f 969 964 1201
f 231 972 1148
f 972 226 967
f 967 230 1148
f 972 967 1148
f 232 975 1202
f 975 227 970
f 970 231 1202
f 975 970 1202
f 216 977 923
f 977 212 920
f 920 214 923
f 977 920 923
f 126 979 1316
f 979 6 980
f 980 135 1316
f 979 980 1316
f 135 981 657
f 981 4 982
f 982 137 657
f 981 982 657
f 137 983 720
f 983 2 984
f 984 125 720
f 983 984 720
f 125 985 636
f 985 1 978
f 978 126 636
f 985 978 636
f 152 987 1317
f 987 12 988
f 988 178 1317
f 987 988 1317
f 178 989 795
f 989 10 990
f 990 155 795
f 989 990 795
f 155 991 728
f 991 9 992
f 992 156 728
f 991 992 728
f 156 993 814
f 993 14 986
f 986 152 814
f 993 986 814
f 239 1005 1328
f 1005 241 1073
f 1073 276 1328
f 1005 1073 1328
f 238 1008 1004
f 1008 243 1074
f 1074 241 1004
f 1008 1074 1004
f 242 1011 1007
f 1011 245 1329
f 1329 243 1007
f 1011 1329 1007
f 244 1014 1010
f 1014 247 1330
f 1330 245 1010
f 1014 1330 1010
f 246 1017 1013
f 1017 249 1331
f 1331 247 1013
f 1017 1331 1013
f 248 1020 1016
f 1020 251 1332
f 1332 249 1016
f 1020 1332 1016
f 250 1023 1019
f 1023 253 1333
f 1333 251 1019
f 1023 1333 1019
f 252 1026 1022
f 1026 255 1334
f 1334 253 1022
f 1026 1334 1022
f 254 1029 1025
f 1029 256 1335
f 1335 255 1025
f 1029 1335 1025
f 252 1032 1024
f 1032 236 1072
f 1072 254 1024
f 1032 1072 1024
f 250 1035 1021
f 1035 257 1030
f 1030 252 1021
f 1035 1030 1021
f 248 1038 1018
f 1038 258 1033
f 1033 250 1018
f 1038 1033 1018
f 246 1041 1015
f 1041 259 1036
f 1036 248 1015
f 1041 1036 1015
f 244 1044 1012
f 1044 260 1039
f 1039 246 1012
f 1044 1039 1012
f 242 1047 1009
f 1047 261 1042
f 1042 244 1009
f 1047 1042 1009
f 238 1049 1006
f 1049 262 1045
f 1045 242 1006
f 1049 1045 1006
f 264 1054 1336
f 1054 240 1050
f 1050 263 1336
f 1054 1050 1336
f 266 1057 1337
f 1057 265 1052
f 1052 264 1337
f 1057 1052 1337
f 268 1060 1338
f 1060 267 1055
f 1055 266 1338
f 1060 1055 1338
f 270 1063 1339
f 1063 269 1058
f 1058 268 1339
f 1063 1058 1339
f 272 1066 1340
f 1066 271 1061
f 1061 270 1340
f 1066 1061 1340
f 274 1069 1341
f 1069 273 1064
f 1064 272 1341
f 1069 1064 1341
f 234 1071 1342
f 1071 275 1067
f 1067 274 1342
f 1071 1067 1342
f 276 1075 1343
f 1075 243 1329
f 1329 245 1343
f 1075 1329 1343
f 276 1343 1344
f 1343 245 1330
f 1330 247 1344
f 1343 1330 1344
f 276 1344 1345
f 1344 247 1331
f 1331 249 1345
f 1344 1331 1345
f 276 1345 1346
f 1345 249 1332
f 1332 251 1346
f 1345 1332 1346
f 276 1346 1347
f 1346 251 1333
f 1333 253 1347
f 1346 1333 1347
f 276 1347 1348
f 1347 253 1334
f 1334 255 1348
f 1347 1334 1348
f 276 1348 1349
f 1348 255 1335
f 1335 256 1349
f 1348 1335 1349
f 276 1349 1350
f 1349 256 1076
f 1076 277 1350
f 1349 1076 1350
f 276 1350 1351
f 1350 277 1078
f 1078 278 1351
f 1350 1078 1351
f 276 1351 1352
f 1351 278 1081
f 1081 279 1352
f 1351 1081 1352
f 276 1352 1353
f 1352 279 1084
f 1084 280 1353
f 1352 1084 1353
f 276 1353 1354
f 1353 280 1087
f 1087 281 1354
f 1353 1087 1354
f 276 1354 1355
f 1354 281 1090
f 1090 282 1355
f 1354 1090 1355
f 276 1355 1356
f 1355 282 1093
f 1093 283 1356
f 1355 1093 1356
f 276 1356 1099
f 1356 283 1096
f 1096 284 1099
f 1356 1096 1099
f 277 1077 1079
f 1077 235 995
f 995 234 1079
f 1077 995 1079
f 278 1080 1082
f 1080 234 1342
f 1342 274 1082
f 1080 1342 1082
f 279 1083 1085
f 1083 274 1341
f 1341 272 1085
f 1083 1341 1085
f 280 1086 1088
f 1086 272 1340
f 1340 270 1088
f 1086 1340 1088
f 281 1089 1091
f 1089 270 1339
f 1339 268 1091
f 1089 1339 1091
f 282 1092 1094
f 1092 268 1338
f 1338 266 1094
f 1092 1338 1094
f 283 1095 1097
f 1095 266 1337
f 1337 264 1097
f 1095 1337 1097
f 284 1098 1100
f 1098 264 1336
f 1336 263 1100
f 1098 1336 1100
f 276 1101 1328
f 1101 263 1051
f 1051 239 1328
f 1101 1051 1328
f 285 1104 1106
f 1104 287 1154
f 1154 288 1106
f 1104 1154 1106
f 257 1107 1031
f 1107 288 1196
f 1196 236 1031
f 1107 1196 1031
f 258 1109 1034
f 1109 285 1105
f 1105 257 1034
f 1109 1105 1034
f 259 1112 1037
f 1112 286 1108
f 1108 258 1037
f 1112 1108 1037
f 261 1115 1043
f 1115 291 1137
f 1137 260 1043
f 1115 1137 1043
f 262 1118 1046
f 1118 290 1113
f 1113 261 1046
f 1118 1113 1046
f 237 1121 1048
f 1121 292 1116
f 1116 262 1048
f 1121 1116 1048
f 294 1123 1166
f 1123 292 1120
f 1120 293 1166
f 1123 1120 1166
f 295 1125 1163
f 1125 290 1122
f 1122 294 1163
f 1125 1122 1163
f 296 1128 1160
f 1128 291 1124
f 1124 295 1160
f 1128 1124 1160
f 287 1129 1157
f 1129 289 1126
f 1126 296 1157
f 1129 1126 1157
f 259 1132 1110
f 1132 78 1138
f 1138 289 1110
f 1132 1138 1110
f 260 1135 1040
f 1135 71 1130
f 1130 259 1040
f 1135 1130 1040
f 289 1140 1127
f 1140 76 1203
f 1203 291 1127
f 1140 1203 1127
f 297 1143 1172
f 1143 232 1150
f 1150 298 1172
f 1143 1150 1172
f 271 1149 1062
f 1149 230 1144
f 1144 269 1062
f 1149 1144 1062
f 299 1155 1198
f 1155 287 1156
f 1156 300 1198
f 1155 1156 1198
f 300 1158 1357
f 1158 296 1159
f 1159 301 1357
f 1158 1159 1357
f 301 1161 1358
f 1161 295 1162
f 1162 302 1358
f 1161 1162 1358
f 302 1164 1359
f 1164 294 1165
f 1165 303 1359
f 1164 1165 1359
f 303 1167 1360
f 1167 293 1181
f 1181 306 1360
f 1167 1181 1360
f 301 1170 1357
f 1170 304 1199
f 1199 300 1357
f 1170 1199 1357
f 302 1173 1358
f 1173 298 1168
f 1168 301 1358
f 1173 1168 1358
f 303 1176 1359
f 1176 297 1171
f 1171 302 1359
f 1176 1171 1359
f 306 1179 1360
f 1179 305 1174
f 1174 303 1360
f 1179 1174 1360
f 240 1182 1002
f 1182 293 1119
f 1119 237 1002
f 1182 1119 1002
f 265 1184 1053
f 1184 306 1180
f 1180 240 1053
f 1184 1180 1053
f 267 1186 1056
f 1186 307 1183
f 1183 265 1056
f 1186 1183 1056
f 269 1187 1059
f 1187 305 1185
f 1185 267 1059
f 1187 1185 1059
f 273 1189 1065
f 1189 298 1152
f 1152 271 1065
f 1189 1152 1065
f 275 1192 1068
f 1192 304 1188
f 1188 273 1068
f 1192 1188 1068
f 233 1195 1070
f 1195 308 1190
f 1190 275 1070
f 1195 1190 1070
f 236 1197 997
f 1197 299 1193
f 1193 233 997
f 1197 1193 997
f 299 1200 1194
f 1200 304 1191
f 1191 308 1194
f 1200 1191 1194
f 310 1215 1275
f 1215 8 1286
f 1286 312 1275
f 1215 1286 1275
f 313 1218 1263
f 1218 13 1284
f 1284 332 1263
f 1218 1284 1263
f 314 1221 1361
f 1221 11 1216
f 1216 313 1361
f 1221 1216 1361
f 316 1229 1240
f 1229 318 1236
f 1236 323 1240
f 1229 1236 1240
f 319 1232 1243
f 1232 317 1227
f 1227 316 1243
f 1232 1227 1243
f 321 1235 1246
f 1235 320 1230
f 1230 319 1246
f 1235 1230 1246
f 323 1238 1249
f 1238 322 1233
f 1233 321 1249
f 1238 1233 1249
f 324 1241 1252
f 1241 323 1248
f 1248 327 1252
f 1241 1248 1252
f 325 1244 1255
f 1244 316 1239
f 1239 324 1255
f 1244 1239 1255
f 326 1247 1258
f 1247 319 1242
f 1242 325 1258
f 1247 1242 1258
f 327 1250 1261
f 1250 321 1245
f 1245 326 1261
f 1250 1245 1261
f 328 1253 1272
f 1253 327 1260
f 1260 331 1272
f 1253 1260 1272
f 329 1256 1281
f 1256 324 1251
f 1251 328 1281
f 1256 1251 1281
f 330 1259 1269
f 1259 325 1254
f 1254 329 1269
f 1259 1254 1269
f 331 1262 1278
f 1262 326 1257
f 1257 330 1278
f 1262 1257 1278
f 313 1265 1362
f 1265 309 1207
f 1207 310 1362
f 1265 1207 1362
f 332 1268 1264
f 1268 311 1210
f 1210 309 1264
f 1268 1210 1264
f 330 1271 1279
f 1271 315 1285
f 1285 314 1279
f 1271 1285 1279
f 328 1274 1282
f 1274 312 1213
f 1213 311 1282
f 1274 1213 1282
f 310 1277 1362
f 1277 314 1361
f 1361 313 1362
f 1277 1361 1362
f 331 1280 1273
f 1280 314 1276
f 1276 312 1273
f 1280 1276 1273
f 329 1283 1270
f 1283 311 1267
f 1267 315 1270
f 1283 1267 1270
f 317 1292 1228
f 1292 334 1299
f 1299 318 1228
f 1292 1299 1228
f 320 1295 1231
f 1295 333 1290
f 1290 317 1231
f 1295 1290 1231
f 322 1298 1234
f 1298 335 1293
f 1293 320 1234
f 1298 1293 1234
f 318 1301 1237
f 1301 336 1296
f 1296 322 1237
f 1301 1296 1237
f 336 1302 1297
f 1302 333 1294
f 1294 335 1297
f 1302 1294 1297
