# Original shape: m1640.obj
# No processing applied - exact copy of source file
# Generated on 2025-10-13 14:18:52

v 0.376464 0.244723 0.025140
v 0.376464 0.168090 0.038240
v 0.339388 0.164269 0.040030
v 0.376464 0.114680 0.047373
v 0.315041 0.277152 0.965327
v 0.315410 0.273073 0.963625
v 0.376464 0.278352 0.975000
v 0.376464 0.274481 0.972743
v 0.253747 0.271837 0.941263
v 0.254744 0.267643 0.939671
v 0.194796 0.260819 0.902129
v 0.196695 0.256621 0.900730
v 0.166967 0.252822 0.877197
v 0.169410 0.248762 0.875928
v 0.140624 0.242095 0.848809
v 0.143713 0.238422 0.847706
v 0.113878 0.224241 0.810979
v 0.117715 0.221295 0.810086
v 0.086261 0.192385 0.751285
v 0.096014 0.198443 0.766204
v 0.064894 0.150590 0.675483
v 0.057634 0.146847 0.665265
v 0.028387 0.088533 0.536997
v 0.037223 0.097029 0.556246
v 0.030720 0.075159 0.503290
v 0.025000 0.042858 0.407237
v 0.030872 0.037648 0.382823
v 0.043283 0.027096 0.290489
v 0.060058 0.025000 0.254863
v 0.063423 0.025608 0.230581
v 0.084691 0.025713 0.203742
v 0.090842 0.027693 0.186355
v 0.116259 0.029127 0.158037
v 0.120945 0.027517 0.161145
v 0.151237 0.027662 0.135439
v 0.178635 0.029383 0.109541
v 0.212031 0.029286 0.094393
v 0.240771 0.030631 0.075015
v 0.243088 0.029863 0.079081
v 0.275373 0.029935 0.067202
v 0.307309 0.030220 0.054373
v 0.308571 0.029890 0.058726
v 0.376464 0.030008 0.046235
v 0.376464 0.030326 0.050978
v 0.060981 0.481800 0.371095
v 0.063938 0.494348 0.502153
v 0.089326 0.538474 0.374194
v 0.079862 0.511291 0.316974
v 0.109256 0.569323 0.381605
v 0.113479 0.553848 0.295515
v 0.098972 0.520299 0.262483
v 0.081961 0.499375 0.277737
v 0.114306 0.526249 0.238386
v 0.147887 0.572346 0.259664
v 0.133779 0.532908 0.217572
v 0.134564 0.593455 0.354838
v 0.136715 0.579042 0.297413
v 0.168179 0.615847 0.333460
v 0.126415 0.596501 0.418976
v 0.153847 0.626502 0.438785
v 0.175710 0.638816 0.413978
v 0.077680 0.526458 0.516870
v 0.081510 0.535358 0.474449
v 0.110389 0.583709 0.513647
v 0.131145 0.596638 0.581779
v 0.144208 0.621491 0.513877
v 0.119550 0.592548 0.546084
v 0.153510 0.620409 0.572649
v 0.169651 0.641167 0.469157
v 0.320277 0.666858 0.305237
v 0.321579 0.689735 0.400078
v 0.376464 0.692248 0.386261
v 0.268268 0.672668 0.372144
v 0.312348 0.631003 0.221440
v 0.376464 0.649396 0.241764
v 0.287181 0.651162 0.280030
v 0.241199 0.656906 0.344505
v 0.255144 0.630276 0.254165
v 0.376464 0.612360 0.176637
v 0.309852 0.614993 0.195127
v 0.339724 0.581050 0.144940
v 0.304814 0.554318 0.126998
v 0.247963 0.597870 0.200663
v 0.227329 0.618133 0.252575
v 0.274780 0.587714 0.171937
v 0.269027 0.563593 0.148058
v 0.218748 0.655765 0.378775
v 0.239695 0.676716 0.470119
v 0.212942 0.637332 0.319242
v 0.183951 0.614312 0.298038
v 0.195070 0.654096 0.440709
v 0.170353 0.582171 0.246407
v 0.208078 0.562466 0.181578
v 0.211816 0.540917 0.156277
v 0.156547 0.541016 0.201155
v 0.376464 0.704653 0.533749
v 0.315663 0.694714 0.563921
v 0.376464 0.690178 0.626194
v 0.314144 0.689005 0.595504
v 0.347177 0.700906 0.467153
v 0.260291 0.683259 0.533294
v 0.283325 0.673562 0.624133
v 0.254264 0.661060 0.629759
v 0.290530 0.693123 0.500212
v 0.209393 0.662260 0.535547
v 0.200846 0.647380 0.589048
v 0.172026 0.622567 0.609091
v 0.184584 0.649444 0.526083
v 0.210105 0.664625 0.502173
v 0.310886 0.659853 0.679259
v 0.340800 0.651632 0.707154
v 0.278651 0.649527 0.679232
v 0.238745 0.636599 0.667425
v 0.376464 0.647080 0.720149
v 0.310575 0.632662 0.726511
v 0.344507 0.635915 0.733753
v 0.247727 0.623415 0.699967
v 0.277814 0.620809 0.725793
v 0.191033 0.609107 0.664153
v 0.146435 0.596034 0.619698
v 0.166029 0.594322 0.654811
v 0.188216 0.559315 0.726237
v 0.246246 0.591130 0.743035
v 0.136931 0.542940 0.678349
v 0.158665 0.539094 0.712636
v 0.376464 0.604263 0.778254
v 0.313222 0.597685 0.772685
v 0.280442 0.586120 0.770659
v 0.340602 0.558918 0.815827
v 0.376464 0.550455 0.827867
v 0.307998 0.553400 0.811938
v 0.275141 0.541531 0.807345
v 0.243222 0.526606 0.800198
v 0.213314 0.532749 0.773828
v 0.183867 0.514547 0.761511
v 0.154884 0.473236 0.759312
v 0.130685 0.499442 0.709838
v 0.128380 0.430752 0.749728
v 0.107638 0.462111 0.701494
v 0.095579 0.492066 0.653591
v 0.084927 0.395555 0.695265
v 0.114382 0.509383 0.675544
v 0.070117 0.403633 0.656078
v 0.078727 0.476030 0.623202
v 0.059373 0.411084 0.615315
v 0.060490 0.466902 0.557402
v 0.122402 0.565955 0.622943
v 0.104933 0.551161 0.602562
v 0.079347 0.521340 0.555853
v 0.046157 0.368901 0.588964
v 0.044048 0.404092 0.540059
v 0.030081 0.296609 0.530383
v 0.047355 0.440841 0.490733
v 0.026916 0.315292 0.432008
v 0.041130 0.418983 0.418111
v 0.049249 0.452452 0.451255
v 0.036498 0.386800 0.380879
v 0.027126 0.268374 0.356789
v 0.043176 0.406951 0.337341
v 0.048667 0.404084 0.297014
v 0.040148 0.266240 0.275017
v 0.059118 0.453552 0.300048
v 0.054641 0.376488 0.255942
v 0.063174 0.290735 0.212379
v 0.062089 0.428846 0.260742
v 0.071467 0.403939 0.220785
v 0.085563 0.350645 0.178816
v 0.082721 0.291153 0.174764
v 0.110654 0.352504 0.145549
v 0.107338 0.293019 0.141604
v 0.093379 0.432829 0.192665
v 0.116051 0.439606 0.165649
v 0.085853 0.479226 0.238997
v 0.102330 0.482557 0.210288
v 0.123483 0.489184 0.186635
v 0.134801 0.297452 0.114270
v 0.137918 0.357993 0.119104
v 0.165322 0.337029 0.094031
v 0.164594 0.264973 0.090080
v 0.139387 0.412072 0.131356
v 0.167510 0.399954 0.105706
v 0.196440 0.273443 0.069937
v 0.197051 0.347083 0.075203
v 0.230054 0.282738 0.053434
v 0.230650 0.357926 0.060197
v 0.199139 0.437918 0.098913
v 0.232054 0.450320 0.087479
v 0.144193 0.465793 0.150364
v 0.170682 0.456096 0.124724
v 0.202589 0.515358 0.140181
v 0.233823 0.505043 0.115975
v 0.272461 0.541231 0.126182
v 0.282185 0.294314 0.034426
v 0.265714 0.368369 0.048809
v 0.301917 0.377245 0.040884
v 0.266119 0.432185 0.067025
v 0.302065 0.441922 0.060742
v 0.376464 0.343156 0.025000
v 0.337784 0.380694 0.035856
v 0.376464 0.446134 0.052000
v 0.338191 0.505754 0.085700
v 0.267243 0.490668 0.093628
v 0.302744 0.500969 0.089213
v 0.376464 0.543697 0.107093
v 0.309020 0.448608 0.863660
v 0.312156 0.319726 0.902614
v 0.344259 0.320305 0.909236
v 0.376464 0.297962 0.928850
v 0.313765 0.288834 0.935060
v 0.249126 0.315963 0.877267
v 0.244428 0.431265 0.843903
v 0.190674 0.325464 0.834348
v 0.341274 0.450785 0.869395
v 0.376464 0.348548 0.901742
v 0.281059 0.303563 0.900349
v 0.251208 0.288639 0.900956
v 0.278531 0.371091 0.875152
v 0.276289 0.441082 0.855415
v 0.376464 0.497593 0.855919
v 0.308458 0.486715 0.849588
v 0.308330 0.522567 0.832142
v 0.275350 0.511611 0.826246
v 0.243320 0.497762 0.817547
v 0.250552 0.294625 0.892466
v 0.219738 0.298461 0.866894
v 0.213627 0.419573 0.829150
v 0.194193 0.270540 0.879449
v 0.184082 0.406422 0.811175
v 0.136312 0.275129 0.791725
v 0.162118 0.275938 0.827105
v 0.157298 0.365226 0.796175
v 0.110656 0.388096 0.741884
v 0.212415 0.481884 0.805791
v 0.182820 0.464846 0.790737
v 0.155013 0.420252 0.782293
v 0.109136 0.288084 0.747523
v 0.111383 0.250142 0.764257
v 0.089857 0.235142 0.719179
v 0.088360 0.265906 0.711568
v 0.084291 0.368010 0.701450
v 0.072930 0.209080 0.677737
v 0.067790 0.318421 0.670808
v 0.043863 0.273747 0.595331
v 0.053968 0.327061 0.633153
v 0.035086 0.141816 0.499462
v 0.031390 0.105471 0.495864
v 0.048927 0.155064 0.587956
v 0.029651 0.106010 0.451610
v 0.030781 0.182260 0.465967
v 0.025502 0.242803 0.431002
v 0.034767 0.121551 0.336138
v 0.040019 0.090362 0.296362
v 0.050103 0.086492 0.259648
v 0.052325 0.141312 0.257259
v 0.066770 0.138166 0.220060
v 0.084106 0.082486 0.192732
v 0.062647 0.253497 0.212288
v 0.083711 0.213249 0.176978
v 0.111759 0.053612 0.164210
v 0.108370 0.213958 0.144245
v 0.173678 0.067588 0.115921
v 0.170736 0.104758 0.111933
v 0.135767 0.216820 0.116911
v 0.234492 0.111182 0.076172
v 0.166912 0.179460 0.098682
v 0.237219 0.070427 0.080643
v 0.200020 0.143306 0.085652
v 0.303815 0.117545 0.054091
v 0.231618 0.193189 0.061421
v 0.271539 0.057361 0.067508
v 0.305362 0.071883 0.059338
v 0.267383 0.155370 0.055565
v 0.302214 0.206707 0.038387
v 0.376464 0.064878 0.051751
v 0.137029 0.267308 0.799157
v 0.112331 0.237446 0.781341
v 0.073244 0.195438 0.688635
v 0.098258 0.527320 0.303182
v 0.082243 0.521869 0.425909
v 0.079739 0.507064 0.346311
v 0.086572 0.497375 0.279008
v 0.109999 0.534795 0.279479
v 0.090408 0.477466 0.240819
v 0.118173 0.523570 0.240413
v 0.127199 0.487004 0.189461
v 0.143801 0.550429 0.239954
v 0.132650 0.560010 0.277764
v 0.158367 0.585435 0.284761
v 0.119122 0.568081 0.351289
v 0.147282 0.589517 0.321144
v 0.143009 0.599198 0.376629
v 0.186554 0.610409 0.299690
v 0.171087 0.612038 0.334754
v 0.142820 0.609878 0.440832
v 0.162218 0.623308 0.415886
v 0.221016 0.657246 0.410179
v 0.172538 0.637232 0.469541
v 0.122834 0.590865 0.476115
v 0.151996 0.622020 0.489846
v 0.165256 0.631542 0.521285
v 0.110811 0.574801 0.530308
v 0.089758 0.541094 0.504953
v 0.143007 0.611767 0.537211
v 0.134767 0.593533 0.580842
v 0.156590 0.616759 0.571833
v 0.194132 0.650504 0.470970
v 0.321034 0.662263 0.306849
v 0.376464 0.644954 0.243979
v 0.376464 0.687164 0.381141
v 0.313327 0.626781 0.223858
v 0.242977 0.652515 0.345843
v 0.295565 0.674190 0.370820
v 0.288417 0.646739 0.281847
v 0.256839 0.626107 0.256251
v 0.376464 0.608356 0.179632
v 0.310882 0.610975 0.197880
v 0.340290 0.577488 0.148405
v 0.305908 0.551118 0.130707
v 0.224398 0.597510 0.227849
v 0.276292 0.584064 0.175010
v 0.270617 0.560279 0.151480
v 0.196199 0.633182 0.355137
v 0.215127 0.633166 0.320758
v 0.203613 0.606544 0.266975
v 0.173142 0.578591 0.248554
v 0.210448 0.559170 0.184568
v 0.214081 0.537814 0.159556
v 0.159567 0.537951 0.203849
v 0.315072 0.684319 0.594601
v 0.376464 0.698662 0.556419
v 0.376464 0.680903 0.637751
v 0.316539 0.689950 0.563417
v 0.347553 0.696048 0.467628
v 0.261817 0.678645 0.533072
v 0.284709 0.669109 0.622807
v 0.256024 0.656801 0.628290
v 0.291659 0.688377 0.500356
v 0.321733 0.689781 0.433653
v 0.238519 0.671670 0.501288
v 0.268847 0.678562 0.437192
v 0.211593 0.657947 0.535193
v 0.203193 0.643282 0.588038
v 0.174814 0.618861 0.607757
v 0.311989 0.655580 0.677243
v 0.341414 0.647423 0.704808
v 0.280211 0.645426 0.677188
v 0.240931 0.632664 0.665693
v 0.376464 0.642898 0.717665
v 0.311700 0.628724 0.723911
v 0.345098 0.631921 0.731040
v 0.249695 0.619663 0.697655
v 0.193666 0.605610 0.662145
v 0.149729 0.592837 0.618182
v 0.169032 0.591090 0.652866
v 0.191059 0.556467 0.723580
v 0.248272 0.587749 0.740235
v 0.140492 0.540490 0.676182
v 0.161935 0.536579 0.710131
v 0.376464 0.592558 0.784336
v 0.314282 0.594155 0.769502
v 0.282015 0.582765 0.767518
v 0.341223 0.555955 0.812005
v 0.309189 0.550541 0.808183
v 0.276846 0.538834 0.803687
v 0.245394 0.524110 0.796666
v 0.215906 0.530165 0.770675
v 0.134392 0.497424 0.707466
v 0.118352 0.507400 0.673551
v 0.186854 0.512215 0.758525
v 0.158257 0.471422 0.756383
v 0.132110 0.429515 0.746937
v 0.111754 0.460538 0.699426
v 0.089372 0.394758 0.693386
v 0.099906 0.490400 0.651975
v 0.074798 0.402710 0.654742
v 0.083327 0.474610 0.622013
v 0.064201 0.410145 0.614386
v 0.056883 0.418054 0.573077
v 0.074846 0.479133 0.586010
v 0.109140 0.548907 0.601425
v 0.126231 0.563362 0.621449
v 0.100982 0.551749 0.563084
v 0.075292 0.505650 0.529639
v 0.051115 0.368270 0.588289
v 0.040196 0.364915 0.510592
v 0.057642 0.451093 0.526609
v 0.046227 0.418049 0.418354
v 0.054249 0.451228 0.451407
v 0.032083 0.314865 0.432205
v 0.044314 0.380739 0.339222
v 0.047266 0.350540 0.297587
v 0.033994 0.267684 0.338453
v 0.058359 0.428291 0.299058
v 0.053291 0.430602 0.337151
v 0.057586 0.257627 0.235340
v 0.059690 0.375844 0.257329
v 0.068069 0.290339 0.214212
v 0.067057 0.427818 0.262138
v 0.076293 0.403048 0.222677
v 0.087321 0.290718 0.177152
v 0.090136 0.349947 0.181237
v 0.114772 0.351689 0.148558
v 0.111526 0.292574 0.144553
v 0.097794 0.431538 0.195129
v 0.119999 0.438090 0.168633
v 0.106516 0.480614 0.212645
v 0.138544 0.296899 0.117668
v 0.141567 0.357059 0.122572
v 0.168595 0.336124 0.097786
v 0.142966 0.410751 0.134797
v 0.170680 0.398596 0.109458
v 0.199235 0.273086 0.073984
v 0.199846 0.346039 0.079245
v 0.232331 0.282307 0.057739
v 0.232939 0.356737 0.064473
v 0.201754 0.436098 0.102861
v 0.234194 0.448313 0.091588
v 0.147584 0.463874 0.153708
v 0.173691 0.454177 0.128377
v 0.205008 0.512607 0.143686
v 0.235866 0.502432 0.119794
v 0.273979 0.538179 0.129885
v 0.283647 0.293759 0.039029
v 0.267473 0.367046 0.053267
v 0.303117 0.375820 0.045473
v 0.268221 0.460023 0.083504
v 0.303222 0.439915 0.065176
v 0.376464 0.342067 0.029788
v 0.338395 0.379212 0.040532
v 0.376464 0.444056 0.056566
v 0.338765 0.503079 0.089906
v 0.303863 0.498371 0.093365
v 0.376464 0.540576 0.111042
v 0.376464 0.297167 0.919915
v 0.345107 0.296198 0.921362
v 0.344465 0.343387 0.895969
v 0.313827 0.295415 0.914767
v 0.282561 0.300742 0.896726
v 0.376464 0.436136 0.872240
v 0.376464 0.349877 0.893277
v 0.342212 0.377291 0.885985
v 0.280222 0.369765 0.870855
v 0.310915 0.408993 0.870751
v 0.281171 0.339992 0.879503
v 0.251369 0.314173 0.873416
v 0.218993 0.358055 0.841010
v 0.247690 0.396360 0.849475
v 0.341506 0.488266 0.850339
v 0.376464 0.526547 0.836128
v 0.309576 0.484814 0.845251
v 0.309477 0.520205 0.828047
v 0.277203 0.475498 0.838200
v 0.245457 0.495708 0.813728
v 0.277013 0.509383 0.822271
v 0.193534 0.291368 0.841933
v 0.221476 0.310882 0.855444
v 0.194031 0.282999 0.849644
v 0.216188 0.418379 0.825269
v 0.165789 0.315238 0.807646
v 0.186123 0.434713 0.798639
v 0.159280 0.391580 0.786706
v 0.137804 0.304730 0.777012
v 0.133276 0.376633 0.762549
v 0.214988 0.480029 0.802163
v 0.140204 0.273453 0.789417
v 0.113325 0.287716 0.745191
v 0.115246 0.256599 0.755637
v 0.093945 0.247511 0.712864
v 0.090096 0.313021 0.705685
v 0.110442 0.333671 0.738427
v 0.056635 0.309460 0.631116
v 0.076134 0.240446 0.671263
v 0.064207 0.194399 0.630592
v 0.109093 0.412649 0.721662
v 0.054249 0.167505 0.586331
v 0.077866 0.201188 0.681745
v 0.036267 0.233729 0.513279
v 0.035859 0.182470 0.465885
v 0.046023 0.162715 0.543521
v 0.034477 0.106330 0.451637
v 0.041139 0.321339 0.555810
v 0.031959 0.291611 0.476336
v 0.030652 0.242800 0.431128
v 0.039724 0.121918 0.336778
v 0.044977 0.090671 0.297333
v 0.042934 0.219840 0.297984
v 0.055135 0.086661 0.261011
v 0.069610 0.083803 0.226746
v 0.089103 0.082213 0.195113
v 0.071701 0.138354 0.221837
v 0.057323 0.141550 0.258586
v 0.088268 0.213323 0.179332
v 0.115208 0.134473 0.158378
v 0.112516 0.214010 0.147149
v 0.273285 0.057143 0.071765
v 0.306474 0.072297 0.063785
v 0.144310 0.081811 0.140919
v 0.141134 0.175011 0.125674
v 0.173986 0.104902 0.115561
v 0.170126 0.179705 0.102335
v 0.236658 0.111532 0.080308
v 0.209046 0.055193 0.099664
v 0.239397 0.070523 0.084798
v 0.202716 0.143695 0.089551
v 0.233825 0.193401 0.065629
v 0.167877 0.264683 0.093819
v 0.304909 0.118039 0.058520
v 0.376464 0.097113 0.055055
v 0.269032 0.155730 0.059910
v 0.303329 0.206867 0.042939
v 0.339935 0.164627 0.044595
v 0.376464 0.244548 0.029885
v 0.283977 0.278787 0.931555
v 0.253272 0.279708 0.907907
v 0.282851 0.293826 0.904061
v 0.223184 0.280983 0.880268
v 0.168745 0.253534 0.862122
v 0.142585 0.246930 0.825397
v 0.116074 0.241247 0.771077
v 0.094739 0.226428 0.723992
v 0.413540 0.164269 0.040030
v 0.437518 0.273073 0.963625
v 0.437887 0.277152 0.965327
v 0.498184 0.267643 0.939671
v 0.499181 0.271837 0.941263
v 0.556232 0.256621 0.900730
v 0.558132 0.260819 0.902129
v 0.583518 0.248762 0.875928
v 0.585961 0.252822 0.877197
v 0.609215 0.238422 0.847706
v 0.612303 0.242095 0.848809
v 0.635213 0.221295 0.810086
v 0.639050 0.224241 0.810979
v 0.656914 0.198443 0.766204
v 0.666667 0.192385 0.751285
v 0.688034 0.150590 0.675483
v 0.695294 0.146847 0.665265
v 0.724541 0.088533 0.536997
v 0.715705 0.097029 0.556246
v 0.722208 0.075159 0.503290
v 0.727928 0.042858 0.407237
v 0.722055 0.037648 0.382823
v 0.709645 0.027096 0.290489
v 0.692870 0.025000 0.254863
v 0.689505 0.025608 0.230581
v 0.668237 0.025713 0.203742
v 0.662085 0.027693 0.186355
v 0.636668 0.029127 0.158037
v 0.631982 0.027517 0.161145
v 0.601691 0.027662 0.135439
v 0.574292 0.029383 0.109541
v 0.540897 0.029286 0.094393
v 0.512157 0.030631 0.075015
v 0.509839 0.029863 0.079081
v 0.477554 0.029935 0.067202
v 0.445619 0.030220 0.054373
v 0.444357 0.029890 0.058726
v 0.688989 0.494348 0.502153
v 0.691947 0.481800 0.371095
v 0.663602 0.538474 0.374194
v 0.673065 0.511291 0.316974
v 0.643672 0.569323 0.381605
v 0.639449 0.553848 0.295515
v 0.670967 0.499375 0.277737
v 0.653956 0.520299 0.262483
v 0.638622 0.526249 0.238386
v 0.619149 0.532908 0.217572
v 0.605041 0.572346 0.259664
v 0.618364 0.593455 0.354838
v 0.616213 0.579042 0.297413
v 0.584748 0.615847 0.333460
v 0.599080 0.626502 0.438785
v 0.626513 0.596501 0.418976
v 0.577218 0.638816 0.413978
v 0.675247 0.526458 0.516870
v 0.671418 0.535358 0.474449
v 0.642538 0.583709 0.513647
v 0.608720 0.621491 0.513877
v 0.621783 0.596638 0.581779
v 0.633377 0.592548 0.546084
v 0.599418 0.620409 0.572649
v 0.583277 0.641167 0.469157
v 0.431349 0.689735 0.400078
v 0.432651 0.666858 0.305237
v 0.484660 0.672668 0.372144
v 0.440579 0.631003 0.221440
v 0.465747 0.651162 0.280030
v 0.511729 0.656906 0.344505
v 0.497784 0.630276 0.254165
v 0.443076 0.614993 0.195127
v 0.413203 0.581050 0.144940
v 0.448114 0.554318 0.126998
v 0.525599 0.618133 0.252575
v 0.504965 0.597870 0.200663
v 0.478148 0.587714 0.171937
v 0.483901 0.563593 0.148058
v 0.513232 0.676716 0.470119
v 0.534180 0.655765 0.378775
v 0.539986 0.637332 0.319242
v 0.568977 0.614312 0.298038
v 0.557858 0.654096 0.440709
v 0.582574 0.582171 0.246407
v 0.544849 0.562466 0.181578
v 0.541112 0.540917 0.156277
v 0.596381 0.541016 0.201155
v 0.437265 0.694714 0.563921
v 0.438784 0.689005 0.595504
v 0.405750 0.700906 0.467153
v 0.492636 0.683259 0.533294
v 0.469603 0.673562 0.624133
v 0.498664 0.661060 0.629759
v 0.462397 0.693123 0.500212
v 0.543535 0.662260 0.535547
v 0.552081 0.647380 0.589048
v 0.580901 0.622567 0.609091
v 0.568344 0.649444 0.526083
v 0.542823 0.664625 0.502173
v 0.442042 0.659853 0.679259
v 0.412128 0.651632 0.707154
v 0.474276 0.649527 0.679232
v 0.514182 0.636599 0.667425
v 0.442352 0.632662 0.726511
v 0.408421 0.635915 0.733753
v 0.505201 0.623415 0.699967
v 0.475113 0.620809 0.725793
v 0.561895 0.609107 0.664153
v 0.606493 0.596034 0.619698
v 0.586899 0.594322 0.654811
v 0.564712 0.559315 0.726237
v 0.506682 0.591130 0.743035
v 0.615996 0.542940 0.678349
v 0.594263 0.539094 0.712636
v 0.439706 0.597685 0.772685
v 0.472486 0.586120 0.770659
v 0.412325 0.558918 0.815827
v 0.444930 0.553400 0.811938
v 0.477787 0.541531 0.807345
v 0.509705 0.526606 0.800198
v 0.539614 0.532749 0.773828
v 0.569061 0.514547 0.761511
v 0.598044 0.473236 0.759312
v 0.622243 0.499442 0.709838
v 0.624548 0.430752 0.749728
v 0.645289 0.462111 0.701494
v 0.668001 0.395555 0.695265
v 0.657348 0.492066 0.653591
v 0.638546 0.509383 0.675544
v 0.682811 0.403633 0.656078
v 0.674201 0.476030 0.623202
v 0.693555 0.411084 0.615315
v 0.692438 0.466902 0.557402
v 0.630525 0.565955 0.622943
v 0.647995 0.551161 0.602562
v 0.673581 0.521340 0.555853
v 0.708880 0.404092 0.540059
v 0.706770 0.368901 0.588964
v 0.722847 0.296609 0.530383
v 0.705573 0.440841 0.490733
v 0.726011 0.315292 0.432008
v 0.711797 0.418983 0.418111
v 0.703678 0.452452 0.451255
v 0.716430 0.386800 0.380879
v 0.725802 0.268374 0.356789
v 0.709752 0.406951 0.337341
v 0.712780 0.266240 0.275017
v 0.704261 0.404084 0.297014
v 0.693810 0.453552 0.300048
v 0.689754 0.290735 0.212379
v 0.698286 0.376488 0.255942
v 0.690838 0.428846 0.260742
v 0.681461 0.403939 0.220785
v 0.670207 0.291153 0.174764
v 0.667365 0.350645 0.178816
v 0.642274 0.352504 0.145549
v 0.645590 0.293019 0.141604
v 0.659549 0.432829 0.192665
v 0.636877 0.439606 0.165649
v 0.667075 0.479226 0.238997
v 0.650598 0.482557 0.210288
v 0.629444 0.489184 0.186635
v 0.618127 0.297452 0.114270
v 0.615010 0.357993 0.119104
v 0.588334 0.264973 0.090080
v 0.587606 0.337029 0.094031
v 0.613541 0.412072 0.131356
v 0.585418 0.399954 0.105706
v 0.556488 0.273443 0.069937
v 0.555877 0.347083 0.075203
v 0.522874 0.282738 0.053434
v 0.522278 0.357926 0.060197
v 0.553789 0.437918 0.098913
v 0.520874 0.450320 0.087479
v 0.608735 0.465793 0.150364
v 0.582245 0.456096 0.124724
v 0.550339 0.515358 0.140181
v 0.519105 0.505043 0.115975
v 0.480467 0.541231 0.126182
v 0.470742 0.294314 0.034426
v 0.487214 0.368369 0.048809
v 0.451011 0.377245 0.040884
v 0.486808 0.432185 0.067025
v 0.450862 0.441922 0.060742
v 0.415144 0.380694 0.035856
v 0.414737 0.505754 0.085700
v 0.485685 0.490668 0.093628
v 0.450184 0.500969 0.089213
v 0.440772 0.319726 0.902614
v 0.443907 0.448608 0.863660
v 0.408668 0.320305 0.909236
v 0.439162 0.288834 0.935060
v 0.508500 0.431265 0.843903
v 0.503802 0.315963 0.877267
v 0.562254 0.325464 0.834348
v 0.411653 0.450785 0.869395
v 0.501720 0.288639 0.900956
v 0.471869 0.303563 0.900349
v 0.474397 0.371091 0.875152
v 0.476638 0.441082 0.855415
v 0.444469 0.486715 0.849588
v 0.444597 0.522567 0.832142
v 0.477578 0.511611 0.826246
v 0.509608 0.497762 0.817547
v 0.502376 0.294625 0.892466
v 0.533190 0.298461 0.866894
v 0.539301 0.419573 0.829150
v 0.558735 0.270540 0.879449
v 0.568845 0.406422 0.811175
v 0.590810 0.275938 0.827105
v 0.616616 0.275129 0.791725
v 0.595630 0.365226 0.796175
v 0.642272 0.388096 0.741884
v 0.540512 0.481884 0.805791
v 0.570107 0.464846 0.790737
v 0.597915 0.420252 0.782293
v 0.643792 0.288084 0.747523
v 0.641545 0.250142 0.764257
v 0.663070 0.235142 0.719179
v 0.664568 0.265906 0.711568
v 0.668637 0.368010 0.701450
v 0.679998 0.209080 0.677737
v 0.685138 0.318421 0.670808
v 0.709065 0.273747 0.595331
v 0.698960 0.327061 0.633153
v 0.721537 0.105471 0.495864
v 0.717842 0.141816 0.499462
v 0.704000 0.155064 0.587956
v 0.723276 0.106010 0.451610
v 0.722147 0.182260 0.465967
v 0.727426 0.242803 0.431002
v 0.718161 0.121551 0.336138
v 0.712908 0.090362 0.296362
v 0.702825 0.086492 0.259648
v 0.686158 0.138166 0.220060
v 0.700603 0.141312 0.257259
v 0.668822 0.082486 0.192732
v 0.690280 0.253497 0.212288
v 0.669217 0.213249 0.176978
v 0.641169 0.053612 0.164210
v 0.644557 0.213958 0.144245
v 0.579250 0.067588 0.115921
v 0.582192 0.104758 0.111933
v 0.617161 0.216820 0.116911
v 0.518436 0.111182 0.076172
v 0.586016 0.179460 0.098682
v 0.515708 0.070427 0.080643
v 0.552908 0.143306 0.085652
v 0.449113 0.117545 0.054091
v 0.521310 0.193189 0.061421
v 0.481388 0.057361 0.067508
v 0.447566 0.071883 0.059338
v 0.485545 0.155370 0.055565
v 0.450714 0.206707 0.038387
v 0.615898 0.267308 0.799157
v 0.640597 0.237446 0.781341
v 0.679684 0.195438 0.688635
v 0.670685 0.521869 0.425909
v 0.654670 0.527320 0.303182
v 0.673189 0.507064 0.346311
v 0.666356 0.497375 0.279008
v 0.642929 0.534795 0.279479
v 0.662520 0.477466 0.240819
v 0.634755 0.523570 0.240413
v 0.609127 0.550429 0.239954
v 0.625729 0.487004 0.189461
v 0.620278 0.560010 0.277764
v 0.594561 0.585435 0.284761
v 0.633806 0.568081 0.351289
v 0.605646 0.589517 0.321144
v 0.609919 0.599198 0.376629
v 0.566374 0.610409 0.299690
v 0.581841 0.612038 0.334754
v 0.610107 0.609878 0.440832
v 0.531912 0.657246 0.410179
v 0.590710 0.623308 0.415886
v 0.580390 0.637232 0.469541
v 0.600932 0.622020 0.489846
v 0.630094 0.590865 0.476115
v 0.587672 0.631542 0.521285
v 0.642117 0.574801 0.530308
v 0.663170 0.541094 0.504953
v 0.609921 0.611767 0.537211
v 0.618161 0.593533 0.580842
v 0.596338 0.616759 0.571833
v 0.558796 0.650504 0.470970
v 0.431893 0.662263 0.306849
v 0.439600 0.626781 0.223858
v 0.509951 0.652515 0.345843
v 0.457362 0.674190 0.370820
v 0.464511 0.646739 0.281847
v 0.496089 0.626107 0.256251
v 0.442046 0.610975 0.197880
v 0.412638 0.577488 0.148405
v 0.447020 0.551118 0.130707
v 0.528530 0.597510 0.227849
v 0.476636 0.584064 0.175010
v 0.482311 0.560279 0.151480
v 0.537800 0.633166 0.320758
v 0.556728 0.633182 0.355137
v 0.549315 0.606544 0.266975
v 0.579786 0.578591 0.248554
v 0.542479 0.559170 0.184568
v 0.538846 0.537814 0.159556
v 0.593360 0.537951 0.203849
v 0.437856 0.684319 0.594601
v 0.436389 0.689950 0.563417
v 0.405375 0.696048 0.467628
v 0.491110 0.678645 0.533072
v 0.468219 0.669109 0.622807
v 0.496903 0.656801 0.628290
v 0.461269 0.688377 0.500356
v 0.431194 0.689781 0.433653
v 0.484081 0.678562 0.437192
v 0.514409 0.671670 0.501288
v 0.541334 0.657947 0.535193
v 0.549734 0.643282 0.588038
v 0.578113 0.618861 0.607757
v 0.440939 0.655580 0.677243
v 0.411514 0.647423 0.704808
v 0.472717 0.645426 0.677188
v 0.511997 0.632664 0.665693
v 0.441227 0.628724 0.723911
v 0.407830 0.631921 0.731040
v 0.503233 0.619663 0.697655
v 0.559262 0.605610 0.662145
v 0.603199 0.592837 0.618182
v 0.583896 0.591090 0.652866
v 0.561869 0.556467 0.723580
v 0.504656 0.587749 0.740235
v 0.612436 0.540490 0.676182
v 0.590992 0.536579 0.710131
v 0.438646 0.594155 0.769502
v 0.470913 0.582765 0.767518
v 0.411704 0.555955 0.812005
v 0.443739 0.550541 0.808183
v 0.476082 0.538834 0.803687
v 0.507533 0.524110 0.796666
v 0.537022 0.530165 0.770675
v 0.634576 0.507400 0.673551
v 0.618536 0.497424 0.707466
v 0.566074 0.512215 0.758525
v 0.594671 0.471422 0.756383
v 0.620817 0.429515 0.746937
v 0.641173 0.460538 0.699426
v 0.653022 0.490400 0.651975
v 0.663556 0.394758 0.693386
v 0.669600 0.474610 0.622013
v 0.678130 0.402710 0.654742
v 0.688726 0.410145 0.614386
v 0.678082 0.479133 0.586010
v 0.696045 0.418054 0.573077
v 0.643788 0.548907 0.601425
v 0.626697 0.563362 0.621449
v 0.651946 0.551749 0.563084
v 0.677636 0.505650 0.529639
v 0.701813 0.368270 0.588289
v 0.712731 0.364915 0.510592
v 0.695286 0.451093 0.526609
v 0.698678 0.451228 0.451407
v 0.706701 0.418049 0.418354
v 0.720845 0.314865 0.432205
v 0.708614 0.380739 0.339222
v 0.705662 0.350540 0.297587
v 0.718934 0.267684 0.338453
v 0.694569 0.428291 0.299058
v 0.699636 0.430602 0.337151
v 0.695342 0.257627 0.235340
v 0.693238 0.375844 0.257329
v 0.684859 0.290339 0.214212
v 0.685871 0.427818 0.262138
v 0.676635 0.403048 0.222677
v 0.662791 0.349947 0.181237
v 0.665607 0.290718 0.177152
v 0.638155 0.351689 0.148558
v 0.641402 0.292574 0.144553
v 0.655134 0.431538 0.195129
v 0.632929 0.438090 0.168633
v 0.646411 0.480614 0.212645
v 0.614384 0.296899 0.117668
v 0.611361 0.357059 0.122572
v 0.584333 0.336124 0.097786
v 0.609961 0.410751 0.134797
v 0.582248 0.398596 0.109458
v 0.553082 0.346039 0.079245
v 0.553693 0.273086 0.073984
v 0.520597 0.282307 0.057739
v 0.519988 0.356737 0.064473
v 0.551174 0.436098 0.102861
v 0.518734 0.448313 0.091588
v 0.605344 0.463874 0.153708
v 0.579237 0.454177 0.128377
v 0.547920 0.512607 0.143686
v 0.517062 0.502432 0.119794
v 0.478949 0.538179 0.129885
v 0.469281 0.293759 0.039029
v 0.485455 0.367046 0.053267
v 0.449810 0.375820 0.045473
v 0.484707 0.460023 0.083504
v 0.449706 0.439915 0.065176
v 0.414533 0.379212 0.040532
v 0.414163 0.503079 0.089906
v 0.449065 0.498371 0.093365
v 0.407821 0.296198 0.921362
v 0.408463 0.343387 0.895969
v 0.439101 0.295415 0.914767
v 0.470367 0.300742 0.896726
v 0.410716 0.377291 0.885985
v 0.442013 0.408993 0.870751
v 0.472705 0.369765 0.870855
v 0.471756 0.339992 0.879503
v 0.501559 0.314173 0.873416
v 0.505238 0.396360 0.849475
v 0.533935 0.358055 0.841010
v 0.411421 0.488266 0.850339
v 0.443352 0.484814 0.845251
v 0.443451 0.520205 0.828047
v 0.475724 0.475498 0.838200
v 0.507471 0.495708 0.813728
v 0.475915 0.509383 0.822271
v 0.531452 0.310882 0.855444
v 0.559394 0.291368 0.841933
v 0.558897 0.282999 0.849644
v 0.536740 0.418379 0.825269
v 0.587138 0.315238 0.807646
v 0.566805 0.434713 0.798639
v 0.593648 0.391580 0.786706
v 0.619652 0.376633 0.762549
v 0.615124 0.304730 0.777012
v 0.537940 0.480029 0.802163
v 0.612723 0.273453 0.789417
v 0.639602 0.287716 0.745191
v 0.637682 0.256599 0.755637
v 0.658983 0.247511 0.712864
v 0.662832 0.313021 0.705685
v 0.642486 0.333671 0.738427
v 0.696292 0.309460 0.631116
v 0.676793 0.240446 0.671263
v 0.688721 0.194399 0.630592
v 0.643835 0.412649 0.721662
v 0.698678 0.167505 0.586331
v 0.675062 0.201188 0.681745
v 0.716661 0.233729 0.513279
v 0.706904 0.162715 0.543521
v 0.717069 0.182470 0.465885
v 0.718451 0.106330 0.451637
v 0.711789 0.321339 0.555810
v 0.720968 0.291611 0.476336
v 0.722275 0.242800 0.431128
v 0.713204 0.121918 0.336778
v 0.707951 0.090671 0.297333
v 0.709994 0.219840 0.297984
v 0.697793 0.086661 0.261011
v 0.683318 0.083803 0.226746
v 0.663825 0.082213 0.195113
v 0.695605 0.141550 0.258586
v 0.681227 0.138354 0.221837
v 0.664659 0.213323 0.179332
v 0.637720 0.134473 0.158378
v 0.640412 0.214010 0.147149
v 0.479642 0.057143 0.071765
v 0.446454 0.072297 0.063785
v 0.608617 0.081811 0.140919
v 0.611794 0.175011 0.125674
v 0.578941 0.104902 0.115561
v 0.582802 0.179705 0.102335
v 0.516270 0.111532 0.080308
v 0.543881 0.055193 0.099664
v 0.513530 0.070523 0.084798
v 0.550212 0.143695 0.089551
v 0.519103 0.193401 0.065629
v 0.585051 0.264683 0.093819
v 0.448019 0.118039 0.058520
v 0.483896 0.155730 0.059910
v 0.449599 0.206867 0.042939
v 0.412993 0.164627 0.044595
v 0.468951 0.278787 0.931555
v 0.499656 0.279708 0.907907
v 0.470077 0.293826 0.904061
v 0.529743 0.280983 0.880268
v 0.584183 0.253534 0.862122
v 0.610342 0.246930 0.825397
v 0.636853 0.241247 0.771077
v 0.658188 0.226428 0.723992
f 1 2 3
f 2 4 3
f 5 6 7
f 6 8 7
f 9 10 5
f 10 6 5
f 11 12 9
f 12 10 9
f 13 14 11
f 14 12 11
f 15 16 13
f 16 14 13
f 17 18 15
f 18 16 15
f 19 20 17
f 20 18 17
f 21 20 19
f 22 21 19
f 23 21 22
f 24 21 23
f 25 24 23
f 26 25 23
f 27 25 26
f 28 27 26
f 29 27 28
f 28 30 29
f 31 29 30
f 30 32 31
f 32 33 31
f 34 31 33
f 35 34 33
f 33 36 35
f 37 35 36
f 36 38 37
f 39 37 38
f 40 39 38
f 38 41 40
f 42 40 41
f 41 43 42
f 44 42 43
f 45 46 47
f 48 45 47
f 48 49 50
f 51 52 48
f 50 51 48
f 50 53 51
f 54 55 53
f 50 56 57
f 47 49 48
f 57 53 50
f 57 54 53
f 49 56 50
f 58 54 57
f 57 56 58
f 59 60 56
f 49 59 56
f 61 58 56
f 46 62 63
f 63 62 64
f 65 66 67
f 68 66 65
f 67 66 64
f 46 63 47
f 59 49 64
f 64 49 47
f 63 64 47
f 66 59 64
f 66 60 59
f 60 66 69
f 60 61 56
f 70 71 72
f 73 71 70
f 74 70 75
f 70 76 77
f 73 70 77
f 70 74 76
f 78 77 76
f 75 79 74
f 80 74 79
f 79 81 80
f 82 80 81
f 74 78 76
f 74 80 78
f 83 84 78
f 80 82 85
f 86 85 82
f 80 85 83
f 87 88 73
f 77 87 73
f 78 89 77
f 84 89 78
f 84 90 89
f 61 91 87
f 89 87 77
f 89 90 58
f 87 89 58
f 92 54 90
f 54 58 90
f 80 83 78
f 93 84 83
f 92 90 84
f 93 92 84
f 83 85 93
f 86 94 85
f 94 93 85
f 95 92 93
f 94 95 93
f 95 55 92
f 55 54 92
f 96 97 98
f 97 99 98
f 100 97 96
f 97 101 99
f 101 102 99
f 101 103 102
f 100 104 97
f 104 101 97
f 72 71 100
f 71 104 100
f 71 88 104
f 73 88 71
f 101 105 103
f 105 106 103
f 103 106 107
f 108 68 106
f 104 109 101
f 105 108 106
f 109 105 101
f 68 107 106
f 66 68 108
f 105 109 108
f 69 66 108
f 88 109 104
f 91 109 88
f 87 91 88
f 91 108 109
f 108 91 69
f 91 60 69
f 61 60 91
f 58 61 87
f 110 98 99
f 98 110 111
f 99 102 110
f 112 110 102
f 102 103 112
f 113 112 103
f 98 111 114
f 115 111 110
f 116 114 111
f 115 116 111
f 112 115 110
f 113 117 112
f 112 118 115
f 117 118 112
f 107 119 103
f 119 113 103
f 68 120 107
f 107 121 119
f 120 121 107
f 119 117 113
f 119 122 117
f 122 123 117
f 120 124 121
f 119 121 122
f 125 122 121
f 124 125 121
f 114 116 126
f 115 127 116
f 127 126 116
f 118 128 115
f 128 127 115
f 117 123 118
f 123 128 118
f 129 130 126
f 126 127 129
f 131 129 127
f 127 128 131
f 132 131 128
f 128 123 132
f 133 132 123
f 123 122 134
f 122 135 134
f 125 135 122
f 123 134 133
f 136 135 125
f 125 137 136
f 138 136 137
f 137 139 138
f 140 141 139
f 142 137 124
f 142 139 137
f 124 137 125
f 140 139 142
f 140 143 141
f 144 143 140
f 145 143 144
f 146 145 144
f 147 142 124
f 124 120 147
f 142 147 140
f 148 140 147
f 120 68 147
f 65 147 68
f 147 65 148
f 67 148 65
f 148 144 140
f 144 149 146
f 64 148 67
f 62 149 148
f 148 64 62
f 150 151 152
f 150 145 146
f 146 151 150
f 153 151 146
f 151 154 152
f 153 155 151
f 155 154 151
f 148 149 144
f 46 153 146
f 62 46 146
f 149 62 146
f 153 46 156
f 156 155 153
f 154 157 158
f 157 154 155
f 157 155 159
f 157 159 158
f 160 161 159
f 45 156 46
f 45 155 156
f 45 159 155
f 45 162 159
f 162 160 159
f 48 162 45
f 159 161 158
f 163 164 161
f 160 163 161
f 165 163 160
f 166 164 163
f 165 166 163
f 167 168 164
f 167 169 168
f 169 170 168
f 166 167 164
f 171 167 166
f 171 172 167
f 172 169 167
f 162 165 160
f 173 166 165
f 52 165 162
f 48 52 162
f 52 173 165
f 51 173 52
f 173 174 166
f 174 171 166
f 174 175 171
f 175 172 171
f 51 53 173
f 53 174 173
f 53 55 174
f 55 175 174
f 170 169 176
f 177 176 169
f 178 179 176
f 176 177 178
f 172 180 169
f 180 177 169
f 181 178 177
f 177 180 181
f 182 179 178
f 183 182 178
f 182 183 184
f 185 184 183
f 178 181 183
f 186 183 181
f 183 186 185
f 187 185 186
f 175 188 172
f 188 180 172
f 189 181 180
f 180 188 189
f 55 95 175
f 95 188 175
f 190 189 188
f 188 95 190
f 94 190 95
f 181 189 186
f 190 186 189
f 191 187 186
f 186 190 191
f 192 191 190
f 190 94 192
f 86 192 94
f 184 185 193
f 194 193 185
f 195 193 194
f 185 187 194
f 196 194 187
f 194 196 195
f 197 195 196
f 193 195 198
f 199 198 195
f 200 199 195
f 199 200 198
f 195 197 200
f 201 200 197
f 187 191 196
f 202 196 191
f 192 202 191
f 196 202 197
f 203 197 202
f 202 192 203
f 82 203 192
f 192 86 82
f 197 203 201
f 204 201 203
f 204 200 201
f 203 82 204
f 81 204 82
f 79 204 81
f 205 206 207
f 208 206 209
f 210 211 212
f 213 205 207
f 214 213 207
f 215 216 206
f 217 211 210
f 215 217 210
f 218 217 205
f 206 205 217
f 215 206 217
f 218 211 217
f 219 213 214
f 219 220 213
f 220 205 213
f 130 221 219
f 221 220 219
f 129 131 130
f 131 221 130
f 220 218 205
f 221 222 220
f 222 218 220
f 131 132 221
f 132 222 221
f 222 223 218
f 223 211 218
f 132 133 222
f 133 223 222
f 224 215 210
f 225 224 210
f 211 226 212
f 212 225 210
f 225 212 227
f 228 212 226
f 229 230 231
f 232 229 231
f 212 228 231
f 230 212 231
f 223 233 211
f 233 226 211
f 133 134 223
f 134 233 223
f 233 234 226
f 234 228 226
f 134 135 233
f 135 234 233
f 235 231 228
f 235 232 231
f 234 235 228
f 135 136 234
f 136 235 234
f 138 232 235
f 136 138 235
f 229 236 237
f 236 238 237
f 239 238 236
f 232 236 229
f 240 239 236
f 232 240 236
f 241 238 239
f 242 239 240
f 242 243 241
f 239 242 241
f 139 232 138
f 141 240 232
f 139 141 232
f 244 243 242
f 141 143 240
f 143 242 240
f 143 244 242
f 145 244 143
f 245 246 247
f 245 247 152
f 243 247 241
f 152 247 243
f 248 246 245
f 249 245 152
f 145 150 244
f 244 152 243
f 152 244 150
f 250 249 152
f 23 246 248
f 249 250 251
f 248 245 249
f 26 248 249
f 23 248 26
f 250 158 251
f 251 26 249
f 251 252 26
f 251 158 253
f 158 161 253
f 253 252 251
f 152 154 250
f 154 158 250
f 254 255 253
f 255 30 253
f 255 256 30
f 161 254 253
f 161 257 254
f 257 255 254
f 164 257 161
f 258 256 255
f 257 258 255
f 256 258 259
f 260 259 258
f 164 168 257
f 168 258 257
f 168 170 258
f 170 260 258
f 261 259 262
f 259 263 262
f 262 264 261
f 265 262 263
f 261 264 266
f 267 264 262
f 265 267 262
f 264 268 266
f 269 264 267
f 259 260 263
f 176 263 260
f 260 170 176
f 263 176 265
f 179 265 176
f 182 267 265
f 267 182 269
f 265 179 182
f 184 269 182
f 266 268 270
f 270 268 271
f 272 268 264
f 269 272 264
f 268 4 271
f 273 268 272
f 271 4 274
f 3 4 268
f 273 3 268
f 193 272 269
f 272 193 273
f 269 184 193
f 1 3 273
f 273 193 1
f 198 1 193
f 208 209 5
f 5 209 9
f 206 216 209
f 209 216 9
f 207 206 208
f 216 215 224
f 227 9 216
f 227 11 9
f 13 11 227
f 13 230 15
f 216 224 227
f 224 225 227
f 212 230 227
f 227 230 13
f 275 15 230
f 230 229 275
f 276 17 15
f 15 275 276
f 17 276 19
f 237 276 275
f 275 229 237
f 276 237 19
f 238 19 237
f 277 22 19
f 241 247 277
f 238 241 277
f 19 238 277
f 247 22 277
f 22 247 23
f 23 247 246
f 28 26 252
f 253 28 252
f 30 28 253
f 259 33 32
f 256 32 30
f 256 259 32
f 261 266 36
f 259 261 33
f 33 261 36
f 36 266 38
f 266 270 38
f 271 274 43
f 38 270 41
f 270 271 41
f 41 271 43
f 75 70 72
f 96 72 100
f 7 208 5
f 207 208 214
f 278 279 280
f 281 278 280
f 282 278 281
f 283 282 281
f 284 282 283
f 285 286 284
f 284 287 282
f 286 287 284
f 282 287 278
f 286 288 287
f 279 278 289
f 289 290 291
f 287 289 278
f 287 290 289
f 290 292 293
f 290 287 288
f 293 291 290
f 294 289 291
f 295 296 297
f 298 299 300
f 279 301 302
f 298 301 279
f 298 303 301
f 303 304 301
f 303 305 304
f 300 305 303
f 303 298 300
f 298 294 299
f 289 298 279
f 298 289 294
f 306 300 299
f 294 295 297
f 299 294 297
f 296 306 297
f 295 294 291
f 293 295 291
f 307 308 309
f 307 310 308
f 311 307 312
f 310 307 313
f 313 307 311
f 311 314 313
f 313 314 310
f 315 308 310
f 310 316 315
f 317 315 316
f 316 318 317
f 316 310 314
f 319 316 314
f 318 316 320
f 320 321 318
f 320 316 319
f 322 323 311
f 323 314 311
f 323 292 324
f 324 314 323
f 292 325 324
f 295 293 322
f 293 292 322
f 288 325 292
f 288 292 290
f 324 325 319
f 325 326 319
f 320 319 326
f 327 321 320
f 326 327 320
f 325 328 326
f 328 327 326
f 314 324 319
f 288 286 325
f 286 328 325
f 286 285 328
f 329 330 331
f 329 332 330
f 332 333 330
f 334 332 329
f 335 334 329
f 336 334 335
f 334 337 332
f 337 333 332
f 333 309 330
f 333 337 338
f 312 307 309
f 339 340 337
f 340 338 337
f 312 309 338
f 333 338 309
f 340 311 312
f 341 334 336
f 342 341 336
f 342 336 343
f 341 339 334
f 339 337 334
f 343 305 342
f 305 341 342
f 305 300 341
f 306 339 341
f 300 306 341
f 306 296 339
f 296 340 339
f 296 311 340
f 340 312 338
f 292 323 322
f 296 322 311
f 297 306 299
f 295 322 296
f 331 344 329
f 344 331 345
f 335 329 344
f 344 346 335
f 336 335 346
f 346 347 336
f 345 331 348
f 345 349 344
f 348 350 345
f 350 349 345
f 349 346 344
f 351 347 346
f 351 346 349
f 352 343 336
f 347 352 336
f 353 305 343
f 354 343 352
f 354 353 343
f 351 352 347
f 355 352 351
f 356 355 351
f 357 353 354
f 354 352 355
f 355 358 354
f 358 357 354
f 350 348 359
f 360 349 350
f 359 360 350
f 361 351 349
f 360 361 349
f 361 356 351
f 360 359 362
f 362 363 360
f 361 360 363
f 363 364 361
f 356 361 364
f 364 365 356
f 355 356 366
f 367 368 357
f 358 367 357
f 366 356 365
f 369 358 355
f 366 369 355
f 369 370 358
f 367 358 370
f 370 371 367
f 372 367 371
f 372 368 367
f 373 374 372
f 374 368 372
f 375 376 374
f 373 375 374
f 377 376 375
f 378 379 377
f 379 380 374
f 376 379 374
f 368 381 357
f 353 357 381
f 381 368 374
f 374 380 381
f 381 304 353
f 305 353 304
f 304 381 380
f 380 301 304
f 379 382 380
f 383 382 379
f 301 380 382
f 383 302 382
f 302 301 382
f 384 378 377
f 377 379 376
f 385 378 384
f 385 386 378
f 386 379 378
f 387 388 385
f 385 388 386
f 379 386 383
f 383 279 302
f 388 383 386
f 388 279 383
f 387 385 389
f 390 387 389
f 391 390 392
f 391 393 390
f 280 279 388
f 394 280 388
f 394 388 387
f 390 394 387
f 393 394 390
f 393 281 280
f 394 393 280
f 395 391 392
f 396 391 395
f 397 396 395
f 398 393 391
f 396 398 391
f 397 399 396
f 399 398 396
f 400 401 397
f 402 401 400
f 403 402 400
f 401 399 397
f 401 404 399
f 405 404 401
f 402 405 401
f 399 283 398
f 398 281 393
f 283 281 398
f 406 283 399
f 404 406 399
f 285 406 404
f 405 285 404
f 406 284 283
f 285 284 406
f 402 403 407
f 407 408 402
f 408 407 409
f 410 405 402
f 408 410 402
f 409 411 408
f 410 408 411
f 412 413 409
f 413 412 414
f 414 415 413
f 411 409 413
f 413 416 411
f 416 413 415
f 415 417 416
f 418 285 405
f 410 418 405
f 411 419 410
f 418 410 419
f 418 328 285
f 419 420 418
f 328 418 420
f 420 327 328
f 419 411 416
f 416 420 419
f 417 421 416
f 420 416 421
f 421 422 420
f 327 420 422
f 422 321 327
f 415 414 423
f 423 424 415
f 423 425 424
f 417 415 424
f 424 426 417
f 426 424 425
f 425 427 426
f 425 423 428
f 428 429 425
f 429 430 425
f 430 429 428
f 427 425 430
f 430 431 427
f 421 417 426
f 426 422 421
f 427 432 426
f 422 426 432
f 432 318 422
f 321 422 318
f 432 427 431
f 431 433 432
f 430 433 431
f 318 432 433
f 433 317 318
f 433 315 317
f 434 435 436
f 435 437 438
f 439 440 441
f 436 435 438
f 442 443 441
f 444 442 441
f 436 444 441
f 445 444 438
f 438 444 436
f 446 447 442
f 444 446 442
f 441 448 439
f 448 449 439
f 443 448 441
f 443 450 448
f 362 359 449
f 451 449 448
f 450 451 448
f 363 362 449
f 451 363 449
f 442 452 443
f 452 450 443
f 447 452 442
f 447 453 452
f 454 451 450
f 452 454 450
f 364 363 451
f 454 364 451
f 453 454 452
f 365 364 454
f 453 365 454
f 455 456 457
f 458 447 446
f 456 446 445
f 459 446 456
f 445 446 444
f 459 460 446
f 460 458 446
f 456 455 459
f 461 460 459
f 462 463 459
f 463 461 459
f 458 453 447
f 458 464 453
f 366 365 453
f 464 366 453
f 460 464 458
f 369 366 464
f 460 369 464
f 461 370 460
f 370 369 460
f 371 370 461
f 463 371 461
f 462 459 465
f 466 462 465
f 467 466 465
f 468 466 467
f 468 469 466
f 470 463 462
f 466 470 462
f 469 470 466
f 471 469 468
f 472 471 468
f 472 473 471
f 470 474 463
f 469 373 470
f 373 474 470
f 474 371 463
f 474 372 371
f 373 372 474
f 471 373 469
f 471 375 373
f 471 377 375
f 21 24 475
f 476 473 472
f 473 475 471
f 471 475 477
f 478 479 480
f 477 475 479
f 477 479 478
f 477 481 471
f 384 377 471
f 481 384 471
f 384 481 385
f 477 482 481
f 482 385 481
f 389 385 482
f 483 478 480
f 480 27 484
f 485 484 27
f 483 477 478
f 483 482 477
f 392 483 484
f 484 483 480
f 483 389 482
f 392 390 389
f 486 392 487
f 487 392 484
f 483 392 389
f 488 31 489
f 484 485 487
f 490 491 487
f 488 490 487
f 489 490 488
f 491 486 487
f 491 395 486
f 490 395 491
f 395 392 486
f 489 492 490
f 492 395 490
f 492 489 493
f 493 494 492
f 400 397 395
f 492 400 395
f 403 400 492
f 494 403 492
f 495 40 496
f 493 489 497
f 497 498 493
f 499 498 497
f 499 500 498
f 501 499 497
f 501 502 503
f 501 504 499
f 497 502 501
f 504 500 499
f 501 505 504
f 494 493 498
f 498 407 494
f 403 494 407
f 407 498 500
f 500 506 407
f 506 409 407
f 504 412 500
f 412 504 505
f 506 500 412
f 412 409 506
f 505 414 412
f 507 501 503
f 496 44 508
f 507 495 496
f 507 509 501
f 503 495 507
f 509 505 501
f 507 510 509
f 42 44 496
f 508 511 507
f 496 508 507
f 507 511 510
f 508 512 511
f 509 423 505
f 423 509 510
f 414 505 423
f 511 512 510
f 423 510 512
f 512 428 423
f 8 6 434
f 434 6 513
f 6 10 513
f 513 435 434
f 440 434 436
f 513 437 435
f 10 514 513
f 515 513 514
f 437 513 515
f 514 12 516
f 438 515 516
f 438 516 445
f 10 12 514
f 517 516 14
f 517 14 16
f 515 514 516
f 14 516 12
f 456 445 516
f 457 456 516
f 517 457 516
f 16 518 517
f 455 457 517
f 519 518 18
f 465 459 518
f 518 16 18
f 459 517 518
f 459 455 517
f 519 18 20
f 465 518 519
f 519 467 465
f 20 520 519
f 467 519 520
f 473 21 475
f 520 20 21
f 21 476 520
f 520 476 468
f 467 520 468
f 468 476 472
f 476 21 473
f 479 24 480
f 475 24 479
f 24 25 480
f 485 29 487
f 27 29 485
f 27 480 25
f 34 35 489
f 29 31 487
f 487 31 488
f 34 489 31
f 489 35 497
f 35 37 497
f 497 37 502
f 502 37 503
f 37 39 503
f 495 39 40
f 503 39 495
f 40 42 496
f 515 438 437
f 441 440 436
f 2 1 521
f 4 2 521
f 522 523 7
f 8 522 7
f 524 525 523
f 522 524 523
f 526 527 525
f 524 526 525
f 528 529 527
f 526 528 527
f 530 531 529
f 528 530 529
f 532 533 531
f 530 532 531
f 534 535 533
f 532 534 533
f 534 536 535
f 536 537 535
f 536 538 537
f 536 539 538
f 539 540 538
f 540 541 538
f 540 542 541
f 542 543 541
f 542 544 543
f 545 543 544
f 544 546 545
f 547 545 546
f 548 547 546
f 546 549 548
f 549 550 548
f 551 548 550
f 550 552 551
f 553 551 552
f 552 554 553
f 554 555 553
f 556 553 555
f 555 557 556
f 43 556 557
f 557 44 43
f 558 559 560
f 559 561 560
f 562 561 563
f 564 565 561
f 565 563 561
f 566 563 565
f 567 568 566
f 569 563 570
f 562 560 561
f 566 570 563
f 568 570 566
f 569 562 563
f 568 571 570
f 569 570 571
f 572 573 569
f 573 562 569
f 571 574 569
f 575 558 576
f 575 576 577
f 578 579 580
f 578 581 579
f 578 580 577
f 576 558 560
f 562 573 577
f 562 577 560
f 577 576 560
f 573 578 577
f 572 578 573
f 578 572 582
f 574 572 569
f 583 584 72
f 583 585 584
f 584 586 75
f 587 584 588
f 584 585 588
f 586 584 587
f 588 589 587
f 79 75 586
f 586 590 79
f 591 79 590
f 590 592 591
f 589 586 587
f 590 586 589
f 593 594 589
f 592 590 595
f 595 596 592
f 595 590 594
f 597 598 585
f 598 588 585
f 599 589 588
f 599 593 589
f 600 593 599
f 601 574 598
f 598 599 588
f 600 599 571
f 599 598 571
f 568 602 600
f 571 568 600
f 594 590 589
f 593 603 594
f 600 602 593
f 602 603 593
f 595 594 603
f 604 596 595
f 603 604 595
f 602 605 603
f 605 604 603
f 567 605 602
f 568 567 602
f 606 96 98
f 607 606 98
f 606 608 96
f 609 606 607
f 610 609 607
f 611 609 610
f 612 608 606
f 609 612 606
f 583 72 608
f 612 583 608
f 597 583 612
f 597 585 583
f 613 609 611
f 614 613 611
f 614 611 615
f 581 616 614
f 617 612 609
f 616 613 614
f 613 617 609
f 615 581 614
f 581 578 616
f 617 613 616
f 578 582 616
f 617 597 612
f 617 601 597
f 601 598 597
f 616 601 617
f 601 616 582
f 572 601 582
f 572 574 601
f 574 571 598
f 98 618 607
f 618 98 619
f 610 607 618
f 618 620 610
f 611 610 620
f 620 621 611
f 619 98 114
f 619 622 618
f 114 623 619
f 623 622 619
f 622 620 618
f 624 621 620
f 625 620 622
f 625 624 620
f 626 615 611
f 621 626 611
f 627 581 615
f 628 615 626
f 628 627 615
f 624 626 621
f 629 626 624
f 630 629 624
f 631 627 628
f 628 626 629
f 629 632 628
f 632 631 628
f 623 114 126
f 633 622 623
f 126 633 623
f 634 625 622
f 633 634 622
f 630 624 625
f 634 630 625
f 130 635 126
f 633 126 635
f 635 636 633
f 634 633 636
f 636 637 634
f 630 634 637
f 637 638 630
f 629 630 639
f 640 629 639
f 640 632 629
f 639 630 638
f 640 641 632
f 642 632 641
f 641 643 642
f 644 642 643
f 645 646 644
f 642 647 631
f 644 647 642
f 642 631 632
f 644 646 647
f 648 646 645
f 648 649 646
f 648 650 649
f 650 651 649
f 647 652 631
f 627 631 652
f 652 647 646
f 646 653 652
f 581 627 652
f 652 579 581
f 579 652 653
f 653 580 579
f 649 653 646
f 654 649 651
f 653 577 580
f 654 575 653
f 577 653 575
f 655 656 657
f 650 656 651
f 655 651 656
f 655 658 651
f 659 655 657
f 660 658 655
f 659 660 655
f 654 653 649
f 658 558 651
f 558 575 651
f 575 654 651
f 558 658 661
f 660 661 658
f 662 659 663
f 659 662 660
f 660 662 664
f 664 662 663
f 665 666 664
f 661 559 558
f 660 559 661
f 664 559 660
f 667 559 664
f 666 667 664
f 667 561 559
f 665 664 663
f 668 669 665
f 669 666 665
f 669 670 666
f 668 671 669
f 671 670 669
f 672 673 668
f 674 673 672
f 675 674 672
f 673 671 668
f 673 676 671
f 677 676 673
f 674 677 673
f 670 667 666
f 671 678 670
f 670 564 667
f 564 561 667
f 678 564 670
f 678 565 564
f 679 678 671
f 676 679 671
f 680 679 676
f 677 680 676
f 566 565 678
f 679 566 678
f 567 566 679
f 680 567 679
f 674 675 681
f 681 682 674
f 683 684 681
f 682 681 684
f 685 677 674
f 682 685 674
f 684 686 682
f 685 682 686
f 683 687 684
f 687 688 684
f 688 687 689
f 689 690 688
f 686 684 688
f 688 691 686
f 691 688 690
f 690 692 691
f 693 680 677
f 685 693 677
f 686 694 685
f 693 685 694
f 605 567 680
f 693 605 680
f 694 695 693
f 605 693 695
f 695 604 605
f 694 686 691
f 691 695 694
f 692 696 691
f 695 691 696
f 696 697 695
f 604 695 697
f 697 596 604
f 690 689 698
f 698 699 690
f 698 700 699
f 692 690 699
f 699 701 692
f 701 699 700
f 700 702 701
f 700 698 198
f 198 703 700
f 703 200 700
f 200 703 198
f 702 700 200
f 200 704 702
f 696 692 701
f 701 705 696
f 705 697 696
f 705 701 702
f 702 706 705
f 697 705 706
f 706 592 697
f 596 697 592
f 706 702 704
f 704 204 706
f 200 204 704
f 592 706 204
f 204 591 592
f 204 79 591
f 707 708 709
f 707 208 710
f 711 712 713
f 708 714 709
f 714 214 709
f 715 716 707
f 711 717 712
f 717 716 712
f 717 718 708
f 708 707 717
f 707 716 717
f 711 718 717
f 714 219 214
f 719 219 714
f 708 719 714
f 720 130 219
f 719 720 219
f 636 635 130
f 720 636 130
f 718 719 708
f 721 720 719
f 718 721 719
f 637 636 720
f 721 637 720
f 722 721 718
f 711 722 718
f 638 637 721
f 722 638 721
f 716 723 712
f 723 724 712
f 725 711 713
f 724 713 712
f 713 724 726
f 713 727 725
f 728 729 730
f 729 731 730
f 727 713 730
f 713 728 730
f 732 722 711
f 725 732 711
f 639 638 722
f 732 639 722
f 733 732 725
f 727 733 725
f 640 639 732
f 733 640 732
f 730 734 727
f 731 734 730
f 734 733 727
f 641 640 733
f 734 641 733
f 731 643 734
f 643 641 734
f 735 729 736
f 737 735 736
f 737 738 735
f 735 731 729
f 738 739 735
f 739 731 735
f 737 740 738
f 738 741 739
f 742 741 740
f 741 738 740
f 731 644 643
f 739 645 731
f 645 644 731
f 742 743 741
f 648 645 739
f 741 648 739
f 743 648 741
f 743 650 648
f 744 745 746
f 746 745 657
f 746 742 740
f 746 657 742
f 744 747 745
f 745 748 657
f 656 650 743
f 657 743 742
f 743 657 656
f 748 749 657
f 744 538 747
f 749 748 750
f 745 747 748
f 747 541 748
f 747 538 541
f 663 749 750
f 541 750 748
f 751 750 541
f 663 750 752
f 665 663 752
f 751 752 750
f 659 657 749
f 663 659 749
f 753 754 752
f 545 753 752
f 755 753 545
f 754 665 752
f 756 665 754
f 753 756 754
f 756 668 665
f 755 757 753
f 757 756 753
f 757 755 758
f 758 759 757
f 672 668 756
f 757 672 756
f 675 672 757
f 759 675 757
f 758 760 761
f 762 758 761
f 763 761 760
f 761 764 762
f 763 760 765
f 763 766 761
f 766 764 761
f 767 763 765
f 763 768 766
f 759 758 762
f 762 681 759
f 675 759 681
f 681 762 764
f 764 683 681
f 766 687 764
f 687 766 768
f 683 764 687
f 768 689 687
f 767 765 769
f 767 769 770
f 767 771 763
f 771 768 763
f 4 767 770
f 767 772 771
f 4 770 274
f 4 521 767
f 521 772 767
f 771 698 768
f 698 771 772
f 689 768 698
f 521 1 772
f 698 772 1
f 1 198 698
f 710 208 523
f 710 523 525
f 715 707 710
f 715 710 525
f 707 709 208
f 716 715 723
f 525 726 715
f 527 726 525
f 527 529 726
f 728 529 531
f 723 715 726
f 724 723 726
f 728 713 726
f 728 726 529
f 531 773 728
f 729 728 773
f 533 774 531
f 773 531 774
f 774 533 535
f 774 736 773
f 729 773 736
f 736 774 535
f 535 737 736
f 537 775 535
f 746 740 775
f 740 737 775
f 737 535 775
f 537 746 775
f 746 537 538
f 746 538 744
f 541 543 751
f 543 752 751
f 543 545 752
f 548 758 547
f 547 755 545
f 758 755 547
f 765 760 551
f 760 758 548
f 760 548 551
f 765 551 553
f 769 765 553
f 274 770 43
f 769 553 556
f 770 769 556
f 770 556 43
f 584 75 72
f 72 96 608
f 208 7 523
f 208 709 214
f 776 777 778
f 777 779 778
f 777 780 779
f 780 781 779
f 780 782 781
f 783 784 782
f 785 782 780
f 785 783 782
f 785 780 777
f 786 783 785
f 777 776 787
f 788 787 789
f 787 785 777
f 788 785 787
f 790 788 791
f 785 788 786
f 789 791 788
f 787 792 789
f 793 794 795
f 796 797 798
f 799 776 800
f 799 797 776
f 801 797 799
f 802 801 799
f 803 801 802
f 803 798 801
f 797 801 798
f 792 797 796
f 797 787 776
f 787 797 792
f 798 804 796
f 794 792 795
f 792 796 795
f 804 793 795
f 792 794 789
f 794 791 789
f 308 805 309
f 806 805 308
f 805 807 808
f 805 806 809
f 805 809 807
f 810 807 809
f 810 809 806
f 308 315 806
f 811 806 315
f 315 812 811
f 813 811 812
f 806 811 810
f 811 814 810
f 811 813 815
f 816 815 813
f 811 815 814
f 817 818 807
f 810 817 807
f 790 817 819
f 810 819 817
f 820 790 819
f 791 794 818
f 790 791 818
f 820 786 790
f 790 786 788
f 820 819 814
f 821 820 814
f 814 815 821
f 816 822 815
f 822 821 815
f 823 820 821
f 822 823 821
f 819 810 814
f 783 786 820
f 823 783 820
f 784 783 823
f 330 824 331
f 825 824 330
f 826 825 330
f 825 827 824
f 827 828 824
f 827 829 828
f 830 827 825
f 826 830 825
f 309 826 330
f 830 826 831
f 805 808 309
f 832 833 830
f 831 832 830
f 309 808 831
f 831 826 309
f 807 832 808
f 827 834 829
f 834 835 829
f 829 835 836
f 833 834 827
f 830 833 827
f 803 836 835
f 834 803 835
f 798 803 834
f 833 804 834
f 804 798 834
f 793 804 833
f 832 793 833
f 807 793 832
f 808 832 831
f 817 790 818
f 818 793 807
f 804 795 796
f 818 794 793
f 837 331 824
f 331 837 838
f 824 828 837
f 839 837 828
f 828 829 839
f 840 839 829
f 331 838 348
f 841 838 837
f 842 348 838
f 841 842 838
f 839 841 837
f 840 843 839
f 839 843 841
f 836 844 829
f 844 840 829
f 803 845 836
f 836 846 844
f 845 846 836
f 844 843 840
f 844 847 843
f 847 848 843
f 845 849 846
f 844 846 847
f 850 847 846
f 849 850 846
f 348 842 359
f 841 851 842
f 851 359 842
f 843 852 841
f 852 851 841
f 848 852 843
f 359 851 853
f 854 853 851
f 851 852 854
f 855 854 852
f 852 848 855
f 856 855 848
f 848 847 857
f 858 859 849
f 859 850 849
f 848 857 856
f 850 860 847
f 860 857 847
f 861 860 850
f 850 859 861
f 862 861 859
f 859 863 862
f 858 863 859
f 864 865 863
f 858 864 863
f 866 867 864
f 867 865 864
f 866 868 867
f 869 870 868
f 871 869 864
f 869 866 864
f 872 858 849
f 849 845 872
f 858 872 864
f 871 864 872
f 802 872 845
f 845 803 802
f 872 802 871
f 799 871 802
f 873 869 871
f 873 874 869
f 871 799 873
f 800 874 873
f 799 800 873
f 870 875 868
f 869 868 866
f 870 876 875
f 877 876 870
f 869 877 870
f 878 879 876
f 878 876 877
f 877 869 874
f 776 874 800
f 874 878 877
f 776 878 874
f 876 879 880
f 879 881 880
f 881 882 883
f 884 882 881
f 776 778 878
f 778 885 878
f 878 885 879
f 885 881 879
f 885 884 881
f 779 884 778
f 884 885 778
f 882 886 883
f 882 887 886
f 887 888 886
f 884 889 882
f 889 887 882
f 890 888 887
f 889 890 887
f 891 892 888
f 891 893 892
f 893 894 892
f 890 891 888
f 895 891 890
f 895 896 891
f 896 893 891
f 781 890 889
f 779 889 884
f 779 781 889
f 781 897 890
f 897 895 890
f 897 784 895
f 784 896 895
f 782 897 781
f 782 784 897
f 894 893 898
f 899 898 893
f 898 899 900
f 896 901 893
f 901 899 893
f 902 900 899
f 899 901 902
f 903 904 900
f 904 903 905
f 906 905 903
f 900 902 903
f 907 903 902
f 903 907 906
f 908 906 907
f 784 909 896
f 909 901 896
f 910 902 901
f 901 909 910
f 823 909 784
f 911 910 909
f 909 823 911
f 822 911 823
f 902 910 907
f 911 907 910
f 912 908 907
f 907 911 912
f 913 912 911
f 911 822 913
f 816 913 822
f 905 906 914
f 915 914 906
f 916 914 915
f 906 908 915
f 917 915 908
f 915 917 916
f 918 916 917
f 914 916 428
f 919 428 916
f 430 919 916
f 919 430 428
f 916 918 430
f 920 430 918
f 908 912 917
f 913 917 912
f 921 918 917
f 917 913 921
f 813 921 913
f 913 816 813
f 918 921 920
f 433 920 921
f 433 430 920
f 921 813 433
f 812 433 813
f 315 433 812
f 922 434 923
f 924 922 925
f 440 439 926
f 922 923 925
f 927 928 926
f 928 929 926
f 929 923 926
f 929 930 925
f 929 925 923
f 931 932 928
f 932 929 928
f 933 926 439
f 449 933 439
f 933 927 926
f 934 927 933
f 359 853 449
f 449 935 933
f 935 934 933
f 853 854 449
f 854 935 449
f 936 928 927
f 934 936 927
f 936 931 928
f 937 931 936
f 935 938 934
f 938 936 934
f 854 855 935
f 855 938 935
f 938 937 936
f 855 856 938
f 856 937 938
f 939 940 941
f 931 942 932
f 932 939 930
f 932 943 939
f 932 930 929
f 944 943 932
f 942 944 932
f 940 939 943
f 944 945 943
f 946 947 943
f 945 946 943
f 937 942 931
f 948 942 937
f 856 857 937
f 857 948 937
f 948 944 942
f 857 860 948
f 860 944 948
f 861 945 944
f 860 861 944
f 861 862 945
f 862 946 945
f 943 947 949
f 947 950 949
f 950 951 949
f 950 952 951
f 953 952 950
f 946 954 947
f 954 950 947
f 954 953 950
f 953 955 952
f 955 956 952
f 957 956 955
f 958 954 946
f 865 953 954
f 958 865 954
f 862 958 946
f 863 958 862
f 863 865 958
f 865 955 953
f 867 955 865
f 868 955 867
f 539 536 959
f 957 960 956
f 959 957 955
f 959 955 961
f 962 963 964
f 959 961 962
f 962 961 963
f 965 961 955
f 868 875 955
f 875 965 955
f 965 875 876
f 966 961 965
f 876 966 965
f 876 880 966
f 963 967 964
f 542 964 968
f 968 969 542
f 961 967 963
f 966 967 961
f 967 883 968
f 967 968 964
f 880 967 966
f 881 883 880
f 883 970 971
f 883 971 968
f 883 967 880
f 546 972 973
f 969 968 971
f 974 975 971
f 975 972 971
f 975 973 972
f 970 974 971
f 886 974 970
f 886 975 974
f 883 886 970
f 976 973 975
f 886 976 975
f 973 976 977
f 978 977 976
f 888 892 886
f 892 976 886
f 892 894 976
f 894 978 976
f 555 979 980
f 973 977 981
f 982 981 977
f 982 983 981
f 984 983 982
f 983 985 981
f 986 985 987
f 988 985 983
f 986 981 985
f 984 988 983
f 989 985 988
f 977 978 982
f 898 982 978
f 978 894 898
f 982 898 984
f 990 984 898
f 900 990 898
f 904 988 984
f 988 904 989
f 984 990 904
f 900 904 990
f 905 989 904
f 985 991 987
f 44 980 508
f 979 991 980
f 992 991 985
f 979 987 991
f 989 992 985
f 993 991 992
f 44 557 980
f 994 508 991
f 508 980 991
f 994 991 993
f 512 508 994
f 914 992 989
f 992 914 993
f 989 905 914
f 512 994 993
f 993 914 512
f 428 512 914
f 522 8 434
f 522 434 995
f 524 522 995
f 922 995 434
f 434 440 923
f 924 995 922
f 996 524 995
f 995 997 996
f 995 924 997
f 526 996 998
f 997 925 998
f 998 925 930
f 526 524 996
f 998 999 528
f 528 999 530
f 996 997 998
f 998 528 526
f 930 939 998
f 939 941 998
f 941 999 998
f 1000 530 999
f 941 940 999
f 1000 1001 532
f 943 949 1000
f 530 1000 532
f 999 943 1000
f 940 943 999
f 532 1001 534
f 1000 949 1001
f 951 1001 949
f 1002 534 1001
f 1001 951 1002
f 536 957 959
f 534 1002 536
f 960 536 1002
f 960 1002 952
f 1002 951 952
f 960 952 956
f 536 960 957
f 539 962 964
f 539 959 962
f 540 539 964
f 544 969 971
f 544 542 969
f 964 542 540
f 550 549 973
f 546 544 971
f 546 971 972
f 973 549 546
f 550 973 981
f 552 550 981
f 552 981 986
f 552 986 987
f 554 552 987
f 554 979 555
f 554 987 979
f 557 555 980
f 925 997 924
f 440 926 923
