# Original shape: m1311.obj
# No processing applied - exact copy of source file
# Generated on 2025-10-13 14:23:39

v 0.474436 0.125666 0.693618
v 0.470025 0.097688 0.715052
v 0.474150 0.099643 0.711294
v 0.407344 0.099643 0.711292
v 0.407059 0.125666 0.693616
v 0.403501 0.125666 0.687482
v 0.411468 0.097688 0.715051
v 0.477993 0.125666 0.687484
v 0.440746 0.096580 0.716116
v 0.440747 0.125666 0.695840
v 0.418816 0.125666 0.694877
v 0.462678 0.125666 0.694878
v 0.461177 0.097781 0.715445
v 0.482947 0.090922 0.694213
v 0.483208 0.089856 0.661706
v 0.398547 0.090922 0.694210
v 0.403101 0.125666 0.662437
v 0.420316 0.097781 0.715443
v 0.497548 0.187661 0.474896
v 0.489910 0.187661 0.469346
v 0.487500 0.187661 0.472664
v 0.436166 0.199119 0.530924
v 0.445336 0.199119 0.530924
v 0.445336 0.194373 0.530924
v 0.433554 0.183421 0.519570
v 0.433554 0.187863 0.519570
v 0.433753 0.188553 0.525557
v 0.509842 0.185109 0.483964
v 0.509842 0.186176 0.483964
v 0.419959 0.187863 0.561405
v 0.419959 0.183421 0.561405
v 0.423640 0.182732 0.556680
v 0.428747 0.194373 0.553756
v 0.425913 0.194373 0.545035
v 0.422022 0.188553 0.545035
v 0.445469 0.187661 0.631063
v 0.445469 0.183624 0.631063
v 0.445470 0.183624 0.584302
v 0.360392 0.187661 0.576106
v 0.360392 0.183624 0.576106
v 0.404864 0.183624 0.561658
v 0.455589 0.194373 0.545035
v 0.452755 0.194373 0.553757
v 0.455903 0.188553 0.556044
v 0.449895 0.187863 0.569868
v 0.449895 0.183421 0.569868
v 0.446538 0.182732 0.564907
v 0.520184 0.185109 0.591873
v 0.520184 0.186176 0.591873
v 0.525009 0.187661 0.577378
v 0.461542 0.183421 0.561406
v 0.461542 0.187863 0.561406
v 0.457861 0.188553 0.556681
v 0.452755 0.199119 0.553757
v 0.445336 0.199119 0.559146
v 0.445336 0.194373 0.559146
v 0.527926 0.187661 0.568399
v 0.524026 0.187661 0.567132
v 0.495137 0.183624 0.478214
v 0.495137 0.187661 0.478214
v 0.467651 0.187661 0.516043
v 0.434963 0.188553 0.562847
v 0.425599 0.188553 0.556043
v 0.425599 0.182732 0.556043
v 0.426975 0.187863 0.510514
v 0.412178 0.187863 0.521264
v 0.418757 0.187863 0.530320
v 0.206245 0.186176 0.184084
v 0.206245 0.185109 0.184084
v 0.193822 0.183624 0.192974
v 0.420063 0.188553 0.545671
v 0.423640 0.188553 0.556680
v 0.449062 0.200534 0.519458
v 0.462509 0.200534 0.529228
v 0.452755 0.199119 0.536314
v 0.445469 0.183624 0.635164
v 0.436028 0.183624 0.635163
v 0.436028 0.183624 0.631062
v 0.401947 0.187661 0.552679
v 0.404864 0.187661 0.561658
v 0.409314 0.187863 0.564864
v 0.434963 0.154155 0.562847
v 0.434963 0.182732 0.562847
v 0.449895 0.183421 0.581061
v 0.431605 0.183421 0.581060
v 0.431606 0.183421 0.569867
v 0.029617 0.187661 0.671086
v 0.034037 0.187661 0.684696
v 0.356492 0.187661 0.577374
v 0.461438 0.182732 0.545672
v 0.457861 0.182732 0.556681
v 0.455903 0.182732 0.556044
v 0.413857 0.203560 0.545034
v 0.418994 0.203560 0.529227
v 0.418994 0.200534 0.529227
v 0.851879 0.187661 0.671108
v 0.851879 0.183624 0.671108
v 0.527926 0.183624 0.568399
v 0.436029 0.183624 0.584302
v 0.455903 0.188553 0.534027
v 0.459480 0.188553 0.545035
v 0.459480 0.182732 0.545035
v 0.403663 0.187863 0.547469
v 0.447895 0.183624 0.975000
v 0.433585 0.183624 0.975000
v 0.424389 0.188553 0.532360
v 0.425599 0.188553 0.534026
v 0.462509 0.203560 0.529228
v 0.467645 0.203560 0.545036
v 0.467645 0.200534 0.545036
v 0.711569 0.185109 0.210467
v 0.711569 0.186176 0.210467
v 0.421490 0.187661 0.510492
v 0.413852 0.187661 0.516041
v 0.434964 0.154155 0.527223
v 0.434964 0.182732 0.527223
v 0.446539 0.182732 0.527223
v 0.467651 0.183624 0.516043
v 0.469325 0.187863 0.521266
v 0.193822 0.187661 0.192974
v 0.182245 0.187661 0.201385
v 0.383958 0.187661 0.474893
v 0.447750 0.182732 0.525557
v 0.457114 0.182732 0.532361
v 0.455903 0.182732 0.534027
v 0.457114 0.188553 0.532361
v 0.182245 0.183624 0.201385
v 0.383958 0.183624 0.474893
v 0.449895 0.187863 0.581061
v 0.446538 0.154155 0.562847
v 0.446538 0.182732 0.562847
v 0.409314 0.183421 0.564864
v 0.445469 0.187661 0.635164
v 0.449062 0.203560 0.519458
v 0.404019 0.185109 0.460453
v 0.391596 0.183624 0.469344
v 0.426975 0.183421 0.510514
v 0.029617 0.183624 0.671086
v 0.034037 0.183624 0.684696
v 0.460014 0.187661 0.510493
v 0.391596 0.187661 0.469344
v 0.394006 0.187661 0.472662
v 0.462508 0.200534 0.560843
v 0.449061 0.200534 0.570612
v 0.462746 0.187863 0.530321
v 0.447950 0.187863 0.519570
v 0.447750 0.188553 0.525557
v 0.420752 0.186176 0.635054
v 0.418309 0.186176 0.974891
v 0.433585 0.187661 0.975000
v 0.455903 0.154155 0.556044
v 0.445470 0.187661 0.584302
v 0.356492 0.183624 0.577374
v 0.432441 0.200534 0.519458
v 0.446538 0.188553 0.564907
v 0.025000 0.185109 0.656524
v 0.348958 0.185109 0.553832
v 0.353574 0.183624 0.568395
v 0.472187 0.183421 0.564865
v 0.472187 0.187863 0.564865
v 0.699275 0.187661 0.201399
v 0.699275 0.183624 0.201399
v 0.687698 0.183624 0.192986
v 0.521108 0.187661 0.576111
v 0.479555 0.187661 0.552681
v 0.525009 0.183624 0.577378
v 0.455589 0.199119 0.545035
v 0.467194 0.187863 0.544012
v 0.461438 0.188553 0.545672
v 0.842633 0.186176 0.699211
v 0.847457 0.187661 0.684717
v 0.414308 0.187863 0.544011
v 0.428747 0.194373 0.536313
v 0.357475 0.187661 0.567127
v 0.436166 0.194373 0.559146
v 0.434963 0.182732 0.564907
v 0.842633 0.185109 0.699211
v 0.467194 0.183421 0.544012
v 0.436166 0.199119 0.559146
v 0.524026 0.183624 0.567132
v 0.521108 0.183624 0.576111
v 0.476637 0.183624 0.561660
v 0.477839 0.187863 0.547471
v 0.477839 0.183421 0.547471
v 0.428747 0.199119 0.536313
v 0.436166 0.194373 0.530924
v 0.497548 0.183624 0.474896
v 0.386368 0.187661 0.478211
v 0.452755 0.194373 0.536314
v 0.469325 0.183421 0.521266
v 0.418309 0.185109 0.974891
v 0.420752 0.185109 0.635054
v 0.447950 0.183421 0.519570
v 0.462746 0.183421 0.530321
v 0.432440 0.200534 0.570612
v 0.418993 0.200534 0.560842
v 0.428747 0.199119 0.553756
v 0.386368 0.183624 0.478211
v 0.487500 0.183624 0.472664
v 0.412178 0.183421 0.521264
v 0.418757 0.183421 0.530320
v 0.447895 0.187661 0.975000
v 0.433753 0.182732 0.525557
v 0.434964 0.188553 0.527223
v 0.462508 0.203560 0.560843
v 0.687698 0.187661 0.192986
v 0.421490 0.183624 0.510492
v 0.425599 0.154155 0.556043
v 0.422022 0.182732 0.545035
v 0.454529 0.187863 0.510515
v 0.446539 0.188553 0.527223
v 0.460014 0.183624 0.510493
v 0.454529 0.183421 0.510515
v 0.422022 0.154155 0.545035
v 0.425599 0.182732 0.534026
v 0.413852 0.183624 0.516041
v 0.418993 0.203560 0.560842
v 0.413857 0.200534 0.545034
v 0.476637 0.187661 0.561660
v 0.446539 0.154155 0.527223
v 0.432440 0.203560 0.570612
v 0.431605 0.187863 0.581060
v 0.401947 0.183624 0.552679
v 0.403663 0.183421 0.547469
v 0.353574 0.187661 0.568395
v 0.348958 0.186176 0.553832
v 0.479555 0.183624 0.552681
v 0.847457 0.183624 0.684717
v 0.431606 0.187863 0.569867
v 0.434963 0.188553 0.564907
v 0.357475 0.183624 0.567127
v 0.436028 0.187661 0.635163
v 0.489910 0.183624 0.469346
v 0.425913 0.199119 0.545035
v 0.424389 0.182732 0.532360
v 0.414308 0.183421 0.544011
v 0.436028 0.187661 0.631062
v 0.436029 0.187661 0.584302
v 0.394006 0.183624 0.472662
v 0.446538 0.188553 0.562847
v 0.404019 0.186176 0.460453
v 0.420063 0.182732 0.545671
v 0.432441 0.203560 0.519458
v 0.025000 0.186176 0.656524
v 0.449061 0.203560 0.570612
v 0.455903 0.154155 0.534027
v 0.459480 0.154155 0.545035
v 0.425599 0.154155 0.534026
v 0.466466 0.159328 0.063988
v 0.466466 0.158316 0.063252
v 0.466466 0.154672 0.068268
v 0.467890 0.152727 0.070976
v 0.467890 0.151511 0.070976
v 0.467119 0.151352 0.070485
v 0.467028 0.150293 0.068270
v 0.466439 0.150293 0.068270
v 0.466439 0.151165 0.069471
v 0.466661 0.155092 0.129826
v 0.466662 0.154770 0.084778
v 0.466465 0.152745 0.084794
v 0.466439 0.149204 0.070896
v 0.466347 0.149950 0.071166
v 0.468707 0.153221 0.076237
v 0.468707 0.155003 0.074941
v 0.468520 0.153710 0.074003
v 0.467001 0.159648 0.063549
v 0.466466 0.159648 0.063549
v 0.467001 0.144910 0.063988
v 0.467001 0.145922 0.063252
v 0.467001 0.149566 0.068268
v 0.467000 0.206618 0.089556
v 0.466465 0.206618 0.089556
v 0.466465 0.206031 0.091360
v 0.466439 0.153945 0.068270
v 0.467028 0.153945 0.068270
v 0.467028 0.153073 0.069471
v 0.466804 0.156988 0.061635
v 0.466805 0.183206 0.025000
v 0.467002 0.184852 0.026180
v 0.466347 0.154861 0.072930
v 0.467119 0.154861 0.072930
v 0.467119 0.154602 0.072847
v 0.468707 0.149235 0.070751
v 0.468707 0.148554 0.072847
v 0.468520 0.150152 0.072847
v 0.467000 0.152745 0.084794
v 0.467000 0.152745 0.084251
v 0.467001 0.151493 0.078050
v 0.466465 0.151493 0.078050
v 0.466438 0.150907 0.077621
v 0.462559 0.150111 0.074304
v 0.462559 0.151352 0.075206
v 0.462559 0.152886 0.075206
v 0.467027 0.156286 0.075475
v 0.466439 0.156286 0.075475
v 0.466439 0.154875 0.075016
v 0.466802 0.155092 0.129826
v 0.467119 0.154288 0.071166
v 0.466347 0.154288 0.071166
v 0.466347 0.154128 0.071387
v 0.469108 0.151017 0.076237
v 0.469108 0.153221 0.076237
v 0.466467 0.119386 0.026180
v 0.466467 0.117851 0.027293
v 0.466466 0.144590 0.063549
v 0.467001 0.154672 0.068268
v 0.462559 0.154128 0.074304
v 0.466347 0.154128 0.074304
v 0.466347 0.154602 0.072847
v 0.467001 0.148553 0.069003
v 0.467002 0.186387 0.027293
v 0.466467 0.186387 0.027293
v 0.467119 0.149950 0.071166
v 0.467119 0.150111 0.071387
v 0.466347 0.151191 0.070264
v 0.466347 0.150111 0.071387
v 0.467028 0.155907 0.069694
v 0.467028 0.155035 0.070896
v 0.467119 0.152886 0.075206
v 0.467119 0.154128 0.074304
v 0.466466 0.144910 0.063988
v 0.466466 0.158635 0.062813
v 0.468707 0.149235 0.074941
v 0.468520 0.150528 0.074003
v 0.467028 0.151165 0.069471
v 0.466464 0.153067 0.129840
v 0.466439 0.148331 0.069694
v 0.467890 0.153710 0.071691
v 0.467119 0.152886 0.070485
v 0.467001 0.159328 0.063988
v 0.466466 0.155685 0.069003
v 0.467001 0.144590 0.063549
v 0.467001 0.145603 0.062813
v 0.468520 0.152727 0.070976
v 0.468520 0.151511 0.070976
v 0.466439 0.153073 0.069471
v 0.467119 0.153047 0.070264
v 0.466662 0.142961 0.064750
v 0.466804 0.142961 0.064750
v 0.466439 0.153331 0.076137
v 0.467027 0.153331 0.076137
v 0.467119 0.152886 0.075479
v 0.467890 0.151511 0.074717
v 0.467890 0.152727 0.074717
v 0.466465 0.163158 0.075774
v 0.467001 0.163158 0.075774
v 0.467001 0.157263 0.073860
v 0.467000 0.151493 0.084251
v 0.466465 0.151493 0.084248
v 0.467890 0.153710 0.074003
v 0.467890 0.154086 0.072847
v 0.467027 0.154875 0.075016
v 0.466347 0.154387 0.074390
v 0.466805 0.116221 0.028497
v 0.466663 0.116221 0.028497
v 0.466439 0.155035 0.070896
v 0.468520 0.154086 0.072847
v 0.468520 0.153710 0.071691
v 0.466466 0.145603 0.062813
v 0.467001 0.158316 0.063252
v 0.467890 0.150528 0.071691
v 0.467028 0.148331 0.069694
v 0.466999 0.153067 0.129840
v 0.466999 0.151171 0.129840
v 0.467000 0.151493 0.084794
v 0.466347 0.153047 0.070264
v 0.466347 0.152886 0.070485
v 0.469108 0.149235 0.074941
v 0.468707 0.151017 0.076237
v 0.467002 0.119386 0.026180
v 0.467001 0.155685 0.069003
v 0.462559 0.152886 0.070485
v 0.466347 0.151352 0.070485
v 0.466466 0.148553 0.069003
v 0.466467 0.184852 0.026180
v 0.467119 0.151191 0.070264
v 0.466663 0.156988 0.061635
v 0.466664 0.183206 0.025000
v 0.466466 0.149566 0.068268
v 0.462559 0.154128 0.071387
v 0.466439 0.155907 0.069694
v 0.467000 0.098207 0.091360
v 0.467000 0.097621 0.089556
v 0.467001 0.140563 0.075942
v 0.469108 0.155003 0.074941
v 0.469108 0.155684 0.072847
v 0.468707 0.155684 0.072847
v 0.466347 0.149851 0.074390
v 0.467119 0.149851 0.074390
v 0.467119 0.150111 0.074304
v 0.467000 0.206031 0.091360
v 0.466465 0.163288 0.077134
v 0.466438 0.153331 0.077621
v 0.467027 0.153331 0.077621
v 0.462559 0.149637 0.072847
v 0.466347 0.149637 0.072847
v 0.466347 0.150111 0.074304
v 0.466465 0.157263 0.073860
v 0.467027 0.157035 0.073170
v 0.466465 0.151493 0.084794
v 0.469108 0.151017 0.069455
v 0.469108 0.149235 0.070751
v 0.467119 0.154387 0.074390
v 0.466464 0.151171 0.129840
v 0.466466 0.145922 0.063252
v 0.466465 0.152745 0.084248
v 0.466465 0.152745 0.078050
v 0.467119 0.154128 0.071387
v 0.467027 0.155624 0.072709
v 0.468520 0.150528 0.071691
v 0.467890 0.150152 0.072847
v 0.467119 0.149637 0.072847
v 0.467028 0.149204 0.070896
v 0.466803 0.154770 0.084778
v 0.468519 0.151511 0.074717
v 0.467001 0.158635 0.062813
v 0.466465 0.141080 0.075774
v 0.466465 0.141467 0.076965
v 0.466465 0.147362 0.075050
v 0.467027 0.147203 0.073170
v 0.466439 0.147203 0.073170
v 0.466439 0.148614 0.072709
v 0.466662 0.207230 0.087626
v 0.466662 0.164287 0.074012
v 0.466465 0.163675 0.075942
v 0.467119 0.151352 0.075479
v 0.466347 0.151352 0.075479
v 0.466347 0.151352 0.075206
v 0.468707 0.153221 0.069455
v 0.468707 0.151017 0.069455
v 0.467001 0.163288 0.077134
v 0.466465 0.162771 0.076965
v 0.467001 0.152745 0.078050
v 0.466465 0.098207 0.091360
v 0.466465 0.097621 0.089556
v 0.466439 0.157035 0.073170
v 0.469108 0.148554 0.072847
v 0.467002 0.117851 0.027293
v 0.467027 0.150907 0.077621
v 0.467027 0.150907 0.076137
v 0.466465 0.156876 0.075050
v 0.467119 0.151352 0.075206
v 0.468519 0.152727 0.074717
v 0.467027 0.147952 0.075475
v 0.467027 0.148614 0.072709
v 0.467001 0.141467 0.076965
v 0.467001 0.147362 0.075050
v 0.466465 0.140563 0.075942
v 0.466465 0.140950 0.077134
v 0.466347 0.149377 0.072930
v 0.466803 0.098846 0.093281
v 0.466662 0.098846 0.093281
v 0.466439 0.150907 0.076137
v 0.467890 0.150528 0.074003
v 0.467001 0.162771 0.076965
v 0.466439 0.155624 0.072709
v 0.466804 0.164287 0.074012
v 0.467001 0.163675 0.075942
v 0.466347 0.152886 0.075479
v 0.466347 0.152886 0.075206
v 0.468707 0.155003 0.070751
v 0.462559 0.154602 0.072847
v 0.469108 0.155003 0.070751
v 0.467001 0.146975 0.073860
v 0.462559 0.151352 0.070485
v 0.469108 0.153221 0.069455
v 0.467119 0.149377 0.072930
v 0.466803 0.207230 0.087626
v 0.467001 0.156876 0.075050
v 0.467001 0.140950 0.077134
v 0.467027 0.149363 0.075016
v 0.466803 0.141589 0.079054
v 0.466662 0.141589 0.079054
v 0.466439 0.149363 0.075016
v 0.467001 0.141080 0.075774
v 0.466439 0.147952 0.075475
v 0.466465 0.146975 0.073860
v 0.462559 0.150111 0.071387
v 0.514088 0.053778 0.619543
v 0.514089 0.053375 0.591158
v 0.514089 0.048807 0.580583
v 0.462202 0.156241 0.637241
v 0.464014 0.152704 0.637241
v 0.465468 0.153039 0.637241
v 0.440757 0.032107 0.313119
v 0.440756 0.031204 0.350073
v 0.419466 0.035648 0.348674
v 0.431605 0.031168 0.553638
v 0.400175 0.038752 0.560256
v 0.428691 0.032158 0.550665
v 0.486532 0.107261 0.598306
v 0.485262 0.116738 0.597190
v 0.478593 0.119727 0.599427
v 0.463715 0.166508 0.551057
v 0.460640 0.162825 0.559839
v 0.465739 0.159890 0.552840
v 0.461033 0.078998 0.733570
v 0.460908 0.087482 0.727397
v 0.456937 0.083308 0.731026
v 0.453711 0.175273 0.565862
v 0.459704 0.176027 0.560582
v 0.417083 0.178264 0.539648
v 0.524457 0.061757 0.564220
v 0.515537 0.061757 0.564220
v 0.516193 0.066303 0.569594
v 0.433976 0.137220 0.425638
v 0.433907 0.140479 0.433183
v 0.434259 0.130377 0.313982
v 0.409839 0.071247 0.727515
v 0.446068 0.163188 0.065065
v 0.435459 0.163188 0.065063
v 0.435459 0.163188 0.076429
v 0.447367 0.027262 0.535833
v 0.448901 0.031090 0.529157
v 0.452111 0.031868 0.531943
v 0.416497 0.152856 0.637240
v 0.412829 0.153564 0.615002
v 0.416648 0.146555 0.637240
v 0.401388 0.107672 0.579549
v 0.402416 0.121267 0.522111
v 0.399620 0.039638 0.520475
v 0.514090 0.049263 0.559985
v 0.514089 0.047796 0.571752
v 0.482620 0.047796 0.571751
v 0.474346 0.131295 0.662160
v 0.478395 0.125666 0.662439
v 0.473824 0.128936 0.625933
v 0.478445 0.121580 0.617958
v 0.481071 0.037263 0.662603
v 0.465695 0.153886 0.503858
v 0.463008 0.153663 0.491430
v 0.456859 0.164600 0.486409
v 0.367410 0.053778 0.619539
v 0.365963 0.055119 0.620126
v 0.365963 0.052509 0.620986
v 0.411464 0.132777 0.427338
v 0.409317 0.131743 0.460349
v 0.423916 0.138271 0.457662
v 0.440753 0.025000 0.450088
v 0.433091 0.025000 0.451108
v 0.431591 0.032147 0.445607
v 0.375753 0.156414 0.063347
v 0.435459 0.157979 0.053699
v 0.435310 0.153157 0.060873
v 0.412408 0.025000 0.480587
v 0.416156 0.025000 0.493100
v 0.411340 0.036568 0.495823
v 0.429793 0.154215 0.468396
v 0.428175 0.153746 0.452807
v 0.367410 0.065950 0.604776
v 0.367410 0.066521 0.609894
v 0.367410 0.061473 0.602276
v 0.461083 0.033850 0.505987
v 0.481883 0.039638 0.520477
v 0.440752 0.030348 0.520171
v 0.481003 0.040054 0.499156
v 0.478174 0.121752 0.500072
v 0.481678 0.040108 0.460832
v 0.478100 0.121723 0.461776
v 0.471378 0.037041 0.463459
v 0.462756 0.035641 0.452317
v 0.480974 0.039980 0.424010
v 0.352449 0.042958 0.543253
v 0.352754 0.046265 0.546711
v 0.354065 0.045130 0.542946
v 0.440754 0.144092 0.440974
v 0.424176 0.140208 0.436426
v 0.450204 0.031190 0.511194
v 0.448656 0.025000 0.505954
v 0.457754 0.025000 0.501599
v 0.462443 0.160546 0.074981
v 0.462443 0.160546 0.068417
v 0.465348 0.025000 0.493101
v 0.469097 0.025000 0.480588
v 0.474648 0.038435 0.480861
v 0.433185 0.157950 0.463585
v 0.432794 0.156413 0.452430
v 0.352751 0.055061 0.618378
v 0.466443 0.154952 0.524512
v 0.460063 0.167827 0.498254
v 0.476451 0.057730 0.379485
v 0.471223 0.038154 0.380121
v 0.462046 0.035648 0.348675
v 0.440752 0.028965 0.512243
v 0.467530 0.154935 0.551736
v 0.365307 0.066303 0.569590
v 0.357850 0.070610 0.605580
v 0.365307 0.070610 0.605580
v 0.426976 0.162614 0.479787
v 0.425445 0.168944 0.474148
v 0.447774 0.027262 0.546736
v 0.449428 0.027262 0.542342
v 0.455650 0.032800 0.543121
v 0.440764 0.154345 0.052897
v 0.440762 0.094234 0.140560
v 0.419195 0.134880 0.662158
v 0.407150 0.131295 0.662158
v 0.409821 0.131295 0.687334
v 0.428805 0.164149 0.566148
v 0.420861 0.162825 0.559838
v 0.416129 0.158528 0.614664
v 0.526057 0.061292 0.565937
v 0.528748 0.046265 0.546715
v 0.527437 0.045130 0.542950
v 0.451713 0.154215 0.468397
v 0.448322 0.157950 0.463586
v 0.454530 0.162614 0.479788
v 0.440746 0.084689 0.730206
v 0.451781 0.089926 0.725000
v 0.464420 0.178264 0.539650
v 0.421748 0.177758 0.530043
v 0.527306 0.055119 0.620130
v 0.515535 0.055119 0.620130
v 0.515535 0.052509 0.620990
v 0.433541 0.121807 0.169056
v 0.440747 0.034193 0.709749
v 0.440746 0.058216 0.737705
v 0.421931 0.056223 0.730181
v 0.462527 0.156075 0.084588
v 0.462514 0.153572 0.077727
v 0.462501 0.153577 0.070869
v 0.452810 0.032158 0.550665
v 0.449897 0.031168 0.553638
v 0.440436 0.151599 0.637240
v 0.440749 0.162341 0.625379
v 0.435134 0.158334 0.637240
v 0.367411 0.060880 0.579668
v 0.367411 0.062590 0.588571
v 0.394850 0.062590 0.588572
v 0.478112 0.122997 0.427204
v 0.484787 0.058739 0.601877
v 0.480271 0.107204 0.600901
v 0.415143 0.025000 0.466035
v 0.422353 0.025000 0.456717
v 0.352447 0.040340 0.620026
v 0.352449 0.036525 0.543262
v 0.353896 0.036453 0.541806
v 0.403406 0.121723 0.461774
v 0.466363 0.025000 0.466036
v 0.375603 0.154681 0.067287
v 0.446077 0.027262 0.548467
v 0.440751 0.029838 0.556649
v 0.422567 0.173923 0.480939
v 0.424646 0.164600 0.486408
v 0.421441 0.167827 0.498253
v 0.367411 0.061402 0.566091
v 0.526056 0.066552 0.609885
v 0.528747 0.055061 0.618383
v 0.470165 0.036568 0.495825
v 0.440761 0.128291 0.168802
v 0.420965 0.140669 0.637240
v 0.407673 0.128936 0.625931
v 0.434136 0.027262 0.535832
v 0.432227 0.027262 0.539663
v 0.426113 0.032377 0.538521
v 0.446068 0.157979 0.053699
v 0.446146 0.155469 0.057433
v 0.440761 0.087275 0.158611
v 0.440758 0.058771 0.291967
v 0.437785 0.057910 0.299112
v 0.514088 0.054509 0.618781
v 0.417191 0.176131 0.551489
v 0.421797 0.176027 0.560581
v 0.427790 0.175273 0.565862
v 0.461386 0.041848 0.713096
v 0.468670 0.153564 0.615003
v 0.465369 0.158528 0.614666
v 0.514089 0.058739 0.601877
v 0.514089 0.061473 0.602280
v 0.485156 0.061473 0.602279
v 0.401876 0.119002 0.587561
v 0.415843 0.056629 0.347459
v 0.405060 0.057730 0.379484
v 0.413263 0.061258 0.346875
v 0.434213 0.157165 0.637240
v 0.438972 0.151118 0.637240
v 0.448889 0.141542 0.631134
v 0.441774 0.148219 0.631134
v 0.441774 0.148219 0.637240
v 0.355443 0.066552 0.609880
v 0.355444 0.061292 0.565932
v 0.420421 0.033850 0.505985
v 0.515537 0.045130 0.542950
v 0.473877 0.129380 0.554496
v 0.473250 0.129813 0.520632
v 0.471653 0.071247 0.727516
v 0.464310 0.176131 0.551491
v 0.514088 0.040340 0.620030
v 0.514090 0.036525 0.543266
v 0.515537 0.036453 0.541810
v 0.418496 0.153663 0.491429
v 0.409323 0.046893 0.715103
v 0.399979 0.042444 0.701191
v 0.458133 0.159266 0.631134
v 0.462203 0.156241 0.631134
v 0.418467 0.156873 0.637240
v 0.422954 0.160376 0.637240
v 0.432789 0.057459 0.312881
v 0.406858 0.038435 0.480859
v 0.399828 0.040108 0.460830
v 0.410129 0.037041 0.463457
v 0.479624 0.119002 0.587563
v 0.480112 0.107672 0.579552
v 0.479088 0.121267 0.522113
v 0.482611 0.057823 0.423436
v 0.463583 0.177254 0.492698
v 0.353894 0.040412 0.621482
v 0.365963 0.040412 0.621482
v 0.403396 0.122997 0.427202
v 0.440752 0.025000 0.506832
v 0.440751 0.027262 0.550220
v 0.417922 0.177254 0.492697
v 0.419297 0.168396 0.516613
v 0.417786 0.166508 0.551056
v 0.367411 0.048807 0.580579
v 0.367411 0.053375 0.591154
v 0.367410 0.058739 0.601874
v 0.455389 0.032377 0.538522
v 0.481326 0.038752 0.560258
v 0.474102 0.128200 0.613376
v 0.457591 0.138271 0.457663
v 0.457949 0.137083 0.427379
v 0.457332 0.140208 0.436427
v 0.356947 0.066894 0.611417
v 0.354192 0.055119 0.620125
v 0.375752 0.156414 0.082079
v 0.435458 0.157979 0.087792
v 0.432848 0.025000 0.505954
v 0.403330 0.121752 0.500070
v 0.367412 0.044416 0.543253
v 0.367412 0.036525 0.543262
v 0.365965 0.036453 0.541806
v 0.440750 0.173411 0.569416
v 0.459561 0.056223 0.730182
v 0.464653 0.054640 0.725433
v 0.469614 0.059227 0.728426
v 0.514090 0.056363 0.569068
v 0.483498 0.049263 0.559985
v 0.418750 0.035641 0.452316
v 0.407396 0.128200 0.613374
v 0.403053 0.121580 0.617956
v 0.452902 0.159881 0.631134
v 0.458133 0.159266 0.637241
v 0.428844 0.161230 0.637240
v 0.415762 0.159890 0.552839
v 0.367411 0.047796 0.571748
v 0.468249 0.061258 0.346876
v 0.465669 0.056629 0.347461
v 0.448725 0.057459 0.312882
v 0.440757 0.038503 0.300381
v 0.443730 0.057910 0.299112
v 0.516192 0.070309 0.603071
v 0.516193 0.068874 0.591074
v 0.423559 0.137083 0.427379
v 0.434002 0.135166 0.384241
v 0.420459 0.078998 0.733569
v 0.424556 0.083308 0.731025
v 0.420584 0.087482 0.727396
v 0.462443 0.157538 0.081545
v 0.446068 0.157979 0.087795
v 0.423750 0.025000 0.501599
v 0.421165 0.167235 0.560093
v 0.395088 0.107615 0.582145
v 0.395458 0.116190 0.588208
v 0.486650 0.062590 0.588574
v 0.473124 0.130239 0.500032
v 0.460384 0.153389 0.480476
v 0.357851 0.066303 0.569590
v 0.357044 0.061757 0.564216
v 0.440753 0.174270 0.480225
v 0.440753 0.169594 0.472565
v 0.446212 0.155446 0.093065
v 0.449276 0.027262 0.539664
v 0.487042 0.056363 0.569067
v 0.367412 0.045243 0.545441
v 0.367411 0.056363 0.569064
v 0.415060 0.154952 0.524511
v 0.433605 0.098089 0.142789
v 0.433605 0.125564 0.155249
v 0.435176 0.153032 0.098088
v 0.429711 0.089926 0.724999
v 0.440753 0.159029 0.462462
v 0.365307 0.068874 0.591070
v 0.454768 0.128639 0.314312
v 0.447981 0.121807 0.169056
v 0.447255 0.130377 0.313982
v 0.440746 0.077703 0.734993
v 0.465331 0.146445 0.637241
v 0.486417 0.060880 0.579671
v 0.367411 0.049263 0.559982
v 0.398003 0.049263 0.559982
v 0.432715 0.141637 0.637240
v 0.427183 0.140135 0.637240
v 0.427141 0.138624 0.637240
v 0.428628 0.159736 0.631133
v 0.434213 0.157165 0.631133
v 0.440750 0.028754 0.597515
v 0.440749 0.028887 0.619656
v 0.400652 0.038148 0.621403
v 0.523649 0.070610 0.605584
v 0.524552 0.066894 0.611422
v 0.456060 0.168944 0.474149
v 0.461734 0.070114 0.735257
v 0.459755 0.177758 0.530044
v 0.429686 0.178332 0.523613
v 0.523649 0.066303 0.569594
v 0.427517 0.166484 0.565495
v 0.419758 0.070114 0.735256
v 0.427183 0.140135 0.631133
v 0.421859 0.141898 0.631133
v 0.421859 0.141898 0.637240
v 0.440748 0.135886 0.662238
v 0.433490 0.140347 0.637240
v 0.428710 0.062195 0.312237
v 0.429391 0.031868 0.531943
v 0.462207 0.168396 0.516614
v 0.440747 0.030645 0.693386
v 0.440748 0.028106 0.660824
v 0.353894 0.052509 0.620986
v 0.405762 0.121656 0.383742
v 0.462444 0.157538 0.061854
v 0.432602 0.031090 0.529156
v 0.407625 0.129380 0.554495
v 0.408253 0.129813 0.520630
v 0.367410 0.054509 0.618778
v 0.469416 0.065773 0.347072
v 0.481515 0.042444 0.701193
v 0.413814 0.132074 0.385420
v 0.411878 0.059227 0.728425
v 0.419849 0.060520 0.734735
v 0.440763 0.157979 0.090819
v 0.367410 0.040340 0.620026
v 0.449917 0.032147 0.445608
v 0.440754 0.030769 0.422233
v 0.462301 0.134880 0.662159
v 0.454599 0.138442 0.637241
v 0.440761 0.090079 0.148460
v 0.446299 0.093986 0.150661
v 0.446855 0.090604 0.158547
v 0.352447 0.052320 0.619539
v 0.440753 0.158133 0.452820
v 0.462489 0.156088 0.064009
v 0.446168 0.151120 0.069310
v 0.405320 0.055716 0.720576
v 0.416839 0.054640 0.725432
v 0.514089 0.065950 0.604780
v 0.472189 0.131743 0.460350
v 0.472170 0.046893 0.715105
v 0.433995 0.123718 0.161084
v 0.435223 0.093986 0.150661
v 0.434667 0.090604 0.158547
v 0.419620 0.155937 0.631133
v 0.423542 0.158999 0.631133
v 0.423542 0.158999 0.637240
v 0.448157 0.140244 0.637240
v 0.440307 0.147611 0.637240
v 0.440749 0.138746 0.637240
v 0.514089 0.062590 0.588575
v 0.460806 0.140415 0.637241
v 0.452696 0.164149 0.566149
v 0.440750 0.164005 0.568101
v 0.440749 0.162851 0.615159
v 0.424803 0.121463 0.313079
v 0.413975 0.123193 0.347340
v 0.426746 0.128639 0.314312
v 0.436005 0.027262 0.534209
v 0.402906 0.119727 0.599425
v 0.397874 0.048807 0.580580
v 0.483627 0.048807 0.580582
v 0.483722 0.053375 0.591157
v 0.482272 0.037919 0.601427
v 0.456712 0.121463 0.313080
v 0.467537 0.123193 0.347342
v 0.483092 0.072072 0.701268
v 0.398880 0.047796 0.571749
v 0.433115 0.132950 0.347234
v 0.419632 0.130828 0.348761
v 0.527606 0.042791 0.541810
v 0.515537 0.042791 0.541810
v 0.452804 0.062195 0.312237
v 0.479294 0.050356 0.714983
v 0.413972 0.154935 0.551734
v 0.463336 0.157201 0.637241
v 0.417953 0.152536 0.631133
v 0.419620 0.155937 0.637240
v 0.398402 0.072072 0.701266
v 0.415809 0.153886 0.503857
v 0.514090 0.045243 0.545445
v 0.470044 0.132777 0.427339
v 0.467642 0.052068 0.722231
v 0.476172 0.055716 0.720577
v 0.451817 0.178332 0.523613
v 0.440752 0.177860 0.520925
v 0.400535 0.039980 0.424008
v 0.401228 0.107204 0.600899
v 0.446623 0.156456 0.637240
v 0.452902 0.159881 0.637241
v 0.452613 0.161372 0.637241
v 0.428628 0.159736 0.637240
v 0.396343 0.061473 0.602277
v 0.421121 0.153389 0.480475
v 0.514090 0.061402 0.566095
v 0.445705 0.157604 0.637240
v 0.433728 0.027262 0.546735
v 0.435425 0.027262 0.548467
v 0.395083 0.060880 0.579668
v 0.462918 0.131295 0.689171
v 0.471673 0.131295 0.687336
v 0.460336 0.167235 0.560094
v 0.453984 0.166484 0.565495
v 0.365965 0.042791 0.541806
v 0.365965 0.045130 0.542946
v 0.447918 0.098089 0.142789
v 0.365963 0.066894 0.611418
v 0.441865 0.151034 0.637240
v 0.417953 0.152536 0.637240
v 0.467696 0.132074 0.385422
v 0.475748 0.121656 0.383744
v 0.440761 0.130549 0.156356
v 0.447918 0.125564 0.155252
v 0.445497 0.027262 0.534210
v 0.399226 0.037919 0.601425
v 0.397777 0.053375 0.591155
v 0.486042 0.116190 0.588211
v 0.447527 0.123718 0.161084
v 0.365964 0.061757 0.564216
v 0.424296 0.072141 0.311834
v 0.440746 0.067152 0.737435
v 0.447600 0.140479 0.433183
v 0.353896 0.042791 0.541806
v 0.408380 0.130239 0.500031
v 0.446190 0.151112 0.081188
v 0.448416 0.025000 0.451108
v 0.440754 0.031703 0.444388
v 0.486412 0.107615 0.582148
v 0.464014 0.152704 0.631134
v 0.418577 0.131295 0.689169
v 0.514089 0.064243 0.590179
v 0.514089 0.060880 0.579672
v 0.463894 0.146941 0.631134
v 0.459926 0.141654 0.631134
v 0.459926 0.141654 0.637241
v 0.438878 0.148203 0.637240
v 0.396712 0.058739 0.601874
v 0.527606 0.036453 0.541810
v 0.448398 0.132950 0.347235
v 0.461880 0.130828 0.348762
v 0.514090 0.044416 0.543257
v 0.412097 0.065773 0.347071
v 0.440747 0.131296 0.690130
v 0.394967 0.107261 0.598303
v 0.365307 0.070309 0.603067
v 0.438878 0.148203 0.631133
v 0.432716 0.141637 0.631133
v 0.394459 0.056363 0.569065
v 0.447532 0.137220 0.425638
v 0.367411 0.064243 0.590175
v 0.375469 0.154636 0.087733
v 0.447509 0.135166 0.384241
v 0.453331 0.153746 0.452807
v 0.448712 0.156413 0.452430
v 0.441865 0.151034 0.631134
v 0.431300 0.031190 0.511194
v 0.440752 0.178022 0.492921
v 0.516192 0.070610 0.605584
v 0.458938 0.173923 0.480940
v 0.457218 0.072141 0.311835
v 0.420107 0.041848 0.713095
v 0.458686 0.160658 0.637241
v 0.440761 0.128706 0.162162
v 0.427270 0.145599 0.442021
v 0.459153 0.025000 0.456718
v 0.440755 0.030842 0.381744
v 0.440751 0.027262 0.532861
v 0.440751 0.029881 0.526841
v 0.413851 0.052068 0.722229
v 0.514088 0.066521 0.609898
v 0.454573 0.139952 0.631134
v 0.448889 0.141542 0.637241
v 0.400424 0.037263 0.662601
v 0.418084 0.147045 0.631133
v 0.418084 0.147045 0.637240
v 0.461643 0.060520 0.734736
v 0.396237 0.116738 0.597187
v 0.463894 0.146941 0.637241
v 0.400501 0.040054 0.499154
v 0.515535 0.040412 0.621486
v 0.527604 0.040412 0.621486
v 0.527604 0.052509 0.620990
v 0.438972 0.151118 0.631133
v 0.454237 0.145599 0.442022
v 0.410288 0.038154 0.380120
v 0.425852 0.032800 0.543120
v 0.402200 0.050356 0.714981
v 0.446068 0.163188 0.076429
v 0.398288 0.089856 0.661704
v 0.529053 0.042958 0.543257
v 0.529051 0.040340 0.620030
v 0.529053 0.036525 0.543267
v 0.515535 0.066894 0.611422
v 0.454572 0.139952 0.637241
v 0.480846 0.038148 0.621405
v 0.529051 0.052320 0.619543
v 0.446624 0.156456 0.631134
v 0.432075 0.027262 0.542341
v 0.398898 0.057823 0.423434
f 1 2 3
f 4 5 6
f 5 4 7
f 1 3 8
f 9 10 11
f 1 12 13
f 10 9 13
f 8 14 15
f 3 14 8
f 16 6 17
f 7 18 11
f 19 20 21
f 22 23 24
f 25 26 27
f 28 29 19
f 30 31 32
f 33 34 35
f 36 37 38
f 39 40 41
f 42 43 44
f 45 46 47
f 48 49 50
f 51 52 53
f 54 55 56
f 50 57 58
f 59 60 61
f 62 63 64
f 65 66 67
f 68 69 70
f 71 72 63
f 73 74 75
f 76 77 78
f 79 80 81
f 82 83 64
f 84 85 86
f 87 88 89
f 90 91 92
f 93 94 95
f 96 97 98
f 38 99 85
f 100 101 102
f 103 81 30
f 104 105 77
f 27 106 107
f 108 109 110
f 28 111 112
f 113 114 66
f 115 116 117
f 118 61 119
f 120 121 122
f 123 124 125
f 124 126 100
f 121 127 128
f 129 84 46
f 130 131 83
f 80 41 132
f 133 76 37
f 134 108 74
f 72 32 64
f 69 135 136
f 137 65 26
f 87 138 139
f 60 21 140
f 136 141 142
f 143 144 55
f 145 146 147
f 148 149 150
f 81 132 31
f 151 130 82
f 152 38 84
f 89 153 40
f 154 73 23
f 155 47 131
f 156 157 158
f 159 160 52
f 161 162 163
f 164 58 165
f 166 50 164
f 167 54 43
f 52 168 169
f 49 170 171
f 172 30 72
f 34 173 107
f 37 78 99
f 174 39 80
f 175 33 63
f 46 86 176
f 177 48 166
f 178 51 91
f 55 179 175
f 57 98 180
f 180 181 182
f 120 70 127
f 183 184 178
f 29 112 161
f 26 67 106
f 185 22 186
f 187 19 60
f 142 188 114
f 189 42 101
f 190 119 145
f 191 192 77
f 193 194 124
f 195 196 197
f 122 128 198
f 199 59 118
f 150 105 104
f 66 200 201
f 202 104 76
f 203 27 204
f 109 205 143
f 161 206 20
f 207 113 65
f 208 64 209
f 61 140 210
f 135 69 68
f 147 123 117
f 126 147 211
f 127 70 136
f 140 212 213
f 214 209 215
f 216 207 137
f 88 139 153
f 91 53 44
f 217 93 218
f 171 96 57
f 182 219 160
f 220 117 125
f 219 165 183
f 48 177 170
f 221 217 196
f 53 169 101
f 139 138 158
f 222 129 45
f 151 92 131
f 41 223 224
f 225 89 39
f 95 154 22
f 47 176 83
f 157 226 225
f 184 159 51
f 35 107 215
f 58 180 227
f 98 166 181
f 75 167 42
f 168 178 90
f 170 177 228
f 86 229 230
f 56 175 62
f 231 174 79
f 141 122 188
f 144 195 179
f 194 145 126
f 192 148 232
f 213 190 194
f 173 186 204
f 188 198 216
f 233 187 59
f 234 185 173
f 67 201 235
f 112 111 162
f 236 172 71
f 179 197 33
f 78 237 238
f 239 142 113
f 24 189 100
f 119 210 146
f 149 191 105
f 146 193 123
f 110 143 54
f 128 136 239
f 21 199 212
f 44 240 131
f 200 137 25
f 135 241 141
f 32 242 209
f 243 134 73
f 232 133 36
f 181 164 219
f 204 211 117
f 160 183 168
f 244 156 138
f 230 155 240
f 196 218 234
f 153 158 231
f 238 152 129
f 217 221 245
f 132 224 236
f 150 202 133
f 235 203 116
f 205 245 144
f 206 163 233
f 227 182 159
f 246 125 102
f 165 227 184
f 97 228 166
f 94 243 154
f 169 90 102
f 157 156 244
f 85 222 229
f 247 102 92
f 223 79 103
f 77 232 237
f 74 110 167
f 242 71 35
f 241 68 120
f 212 118 190
f 248 215 116
f 114 216 200
f 163 162 187
f 245 221 195
f 106 235 215
f 192 191 149
f 224 103 172
f 171 228 97
f 99 238 222
f 158 225 174
f 218 95 185
f 176 230 62
f 226 244 87
f 210 213 193
f 186 24 211
f 198 239 207
f 20 233 199
f 23 75 189
f 201 25 203
f 111 28 187
f 31 236 242
f 197 234 34
f 237 36 152
f 40 231 223
f 43 56 240
f 229 45 155
f 249 250 251
f 252 253 254
f 255 256 257
f 258 259 260
f 257 261 262
f 263 264 265
f 266 267 249
f 268 269 270
f 271 272 273
f 274 275 276
f 277 278 279
f 280 281 282
f 283 284 285
f 260 286 287
f 288 289 290
f 291 292 293
f 294 295 296
f 259 258 297
f 298 299 300
f 301 302 263
f 303 304 305
f 251 306 275
f 307 308 309
f 310 270 255
f 311 312 267
f 262 313 314
f 315 262 316
f 279 311 266
f 275 317 318
f 319 320 308
f 321 268 310
f 267 322 250
f 284 323 324
f 325 257 315
f 297 258 326
f 256 327 261
f 328 252 329
f 330 249 331
f 332 333 269
f 334 335 253
f 336 276 337
f 338 339 332
f 340 341 342
f 343 344 319
f 345 346 347
f 348 349 289
f 350 351 282
f 352 296 353
f 354 355 304
f 318 356 299
f 357 358 328
f 359 305 321
f 250 360 306
f 253 361 314
f 362 255 325
f 363 364 365
f 299 366 367
f 368 301 369
f 370 303 359
f 306 371 317
f 372 367 373
f 374 310 362
f 312 375 322
f 313 376 254
f 376 315 373
f 377 378 278
f 379 374 327
f 380 300 367
f 371 331 381
f 382 383 384
f 385 386 387
f 388 389 390
f 391 273 392
f 393 394 341
f 395 396 397
f 398 347 399
f 365 400 349
f 401 402 283
f 403 353 308
f 378 377 322
f 317 381 356
f 363 326 404
f 405 321 374
f 349 406 407
f 351 328 408
f 409 352 403
f 355 338 305
f 356 336 366
f 335 410 361
f 333 359 405
f 360 330 371
f 361 411 412
f 327 362 413
f 414 297 363
f 413 325 376
f 323 369 415
f 322 416 360
f 417 418 419
f 279 375 312
f 420 421 422
f 423 424 425
f 426 427 428
f 429 430 335
f 431 392 432
f 407 433 394
f 382 434 435
f 436 399 409
f 364 404 400
f 366 337 329
f 437 368 323
f 438 370 333
f 394 439 440
f 291 397 428
f 441 398 436
f 400 260 406
f 430 283 410
f 281 403 320
f 278 378 375
f 381 274 336
f 390 442 428
f 269 405 379
f 416 266 330
f 369 263 443
f 261 413 313
f 259 414 286
f 444 420 445
f 329 254 373
f 418 446 447
f 448 449 418
f 410 285 411
f 445 422 450
f 451 452 434
f 440 453 427
f 411 454 390
f 455 432 441
f 406 287 433
f 443 265 350
f 456 409 281
f 424 457 458
f 427 459 460
f 461 429 334
f 458 431 455
f 433 288 439
f 385 302 301
f 295 436 456
f 404 326 260
f 337 298 408
f 402 437 284
f 338 355 354
f 331 251 274
f 462 309 300
f 270 379 256
f 271 391 431
f 450 388 397
f 386 463 461
f 383 435 448
f 447 464 420
f 465 373 316
f 419 447 444
f 435 434 449
f 463 466 429
f 467 450 396
f 424 423 468
f 439 290 453
f 292 428 460
f 469 441 295
f 449 470 446
f 285 324 454
f 471 445 467
f 472 451 382
f 453 340 459
f 344 350 320
f 346 455 469
f 287 348 288
f 265 357 351
f 296 456 280
f 339 354 438
f 276 318 298
f 358 334 252
f 305 332 268
f 432 345 398
f 454 343 442
f 341 440 426
f 452 473 449
f 422 474 388
f 415 443 344
f 384 448 417
f 446 475 464
f 438 304 303
f 476 444 471
f 457 468 271
f 459 342 319
f 387 461 358
f 425 458 346
f 464 477 421
f 478 316 396
f 477 419 476
f 473 452 451
f 302 385 264
f 389 467 412
f 273 272 425
f 290 393 340
f 293 460 308
f 347 469 294
f 286 365 348
f 466 401 430
f 353 280 309
f 377 277 416
f 399 294 352
f 314 412 396
f 289 407 393
f 392 425 345
f 264 387 357
f 342 426 442
f 468 423 272
f 421 476 474
f 282 408 300
f 475 417 477
f 470 384 475
f 324 415 343
f 474 471 389
f 473 472 470
f 479 480 481
f 482 483 484
f 485 486 487
f 488 489 490
f 491 492 493
f 494 495 496
f 497 498 499
f 500 501 502
f 503 504 505
f 506 507 508
f 509 7 4
f 510 511 512
f 513 514 515
f 516 517 518
f 519 520 521
f 522 523 524
f 525 526 527
f 528 15 529
f 530 531 532
f 533 534 535
f 536 537 538
f 539 540 541
f 542 543 544
f 545 546 547
f 538 548 549
f 550 551 552
f 553 554 555
f 554 556 557
f 556 558 559
f 560 561 562
f 563 564 565
f 566 507 567
f 568 569 570
f 571 572 510
f 573 574 575
f 576 577 549
f 578 564 563
f 579 530 580
f 581 582 583
f 584 568 555
f 496 585 579
f 586 587 588
f 589 590 576
f 591 592 593
f 544 594 595
f 596 597 598
f 599 600 601
f 602 603 604
f 605 606 607
f 608 609 9
f 610 611 502
f 612 613 614
f 508 507 615
f 616 617 618
f 619 620 621
f 591 622 623
f 624 625 626
f 627 628 629
f 515 514 554
f 630 559 558
f 493 631 632
f 545 633 634
f 635 636 637
f 536 638 537
f 574 639 560
f 544 640 542
f 641 623 642
f 643 644 645
f 628 627 646
f 568 553 555
f 486 583 582
f 602 647 648
f 553 649 556
f 566 650 507
f 651 652 597
f 653 654 655
f 594 656 657
f 598 597 6
f 658 659 660
f 661 479 613
f 662 663 664
f 617 616 665
f 666 496 667
f 668 669 670
f 671 520 519
f 672 673 674
f 675 676 624
f 677 678 679
f 680 681 564
f 547 682 521
f 503 604 683
f 684 685 579
f 498 497 686
f 687 610 502
f 688 689 690
f 691 645 644
f 692 693 616
f 694 695 482
f 696 697 601
f 487 672 698
f 699 700 701
f 702 703 704
f 558 562 705
f 631 670 632
f 610 687 706
f 707 708 535
f 536 709 638
f 710 569 584
f 512 511 543
f 711 641 642
f 712 713 714
f 715 716 717
f 718 515 719
f 705 562 582
f 720 527 528
f 721 722 723
f 724 725 534
f 590 589 644
f 540 634 541
f 542 726 727
f 728 710 584
f 537 638 729
f 730 731 732
f 664 733 500
f 734 735 736
f 666 585 496
f 737 522 738
f 739 701 700
f 740 741 652
f 742 694 743
f 744 626 625
f 517 601 745
f 717 730 746
f 649 575 556
f 747 748 749
f 642 623 719
f 750 659 751
f 491 752 753
f 754 506 755
f 756 757 758
f 619 759 760
f 546 761 682
f 762 663 662
f 763 764 671
f 670 765 632
f 748 747 581
f 528 493 720
f 766 721 767
f 681 768 769
f 643 770 771
f 569 568 584
f 620 619 772
f 773 513 515
f 712 714 662
f 746 715 717
f 575 560 558
f 738 703 774
f 485 583 486
f 623 622 719
f 775 646 776
f 777 745 714
f 634 739 541
f 778 779 780
f 9 18 781
f 590 771 782
f 783 763 519
f 784 785 786
f 497 499 787
f 666 788 527
f 632 765 789
f 746 790 791
f 517 740 652
f 792 793 794
f 795 796 675
f 797 798 799
f 611 712 502
f 647 800 801
f 606 802 607
f 803 686 497
f 610 804 805
f 602 503 806
f 733 664 807
f 787 756 808
f 809 810 811
f 812 813 794
f 672 674 814
f 655 489 815
f 479 661 668
f 496 579 816
f 817 818 529
f 658 751 659
f 534 725 819
f 820 709 536
f 781 18 758
f 572 821 656
f 653 815 822
f 823 824 520
f 730 717 825
f 650 566 785
f 581 747 826
f 616 817 827
f 532 531 767
f 564 681 769
f 755 828 536
f 829 830 808
f 831 760 727
f 592 773 718
f 823 740 517
f 832 731 730
f 833 834 562
f 812 835 836
f 528 631 493
f 837 838 839
f 840 635 707
f 576 782 841
f 570 573 649
f 842 621 843
f 844 845 829
f 485 698 660
f 846 752 491
f 630 847 559
f 848 735 665
f 771 802 606
f 479 614 613
f 849 850 851
f 597 17 6
f 852 853 854
f 855 856 857
f 814 698 672
f 650 615 507
f 669 858 765
f 859 527 788
f 528 526 15
f 860 861 862
f 533 825 534
f 863 864 865
f 758 757 781
f 656 543 511
f 866 653 822
f 671 867 740
f 716 715 868
f 869 870 871
f 872 873 826
f 14 874 827
f 721 605 767
f 715 746 875
f 662 714 762
f 641 591 623
f 821 842 657
f 845 618 830
f 876 877 828
f 878 879 683
f 749 751 880
f 881 848 827
f 859 835 525
f 515 554 719
f 746 730 775
f 745 882 517
f 667 883 484
f 884 852 885
f 693 886 16
f 887 777 713
f 888 683 879
f 847 889 722
f 735 890 891
f 804 892 893
f 668 480 479
f 739 894 541
f 867 895 741
f 896 897 898
f 899 675 626
f 895 900 741
f 901 589 548
f 504 902 505
f 624 903 625
f 797 642 719
f 500 733 861
f 681 680 587
f 864 877 865
f 618 617 830
f 831 727 780
f 904 905 488
f 744 862 601
f 776 627 906
f 704 703 738
f 853 852 884
f 835 907 908
f 909 910 860
f 730 911 912
f 577 841 566
f 18 7 758
f 657 843 913
f 633 545 699
f 713 712 645
f 551 588 914
f 751 658 880
f 891 881 874
f 525 527 859
f 622 593 719
f 900 895 629
f 700 638 709
f 915 896 903
f 916 885 696
f 597 652 17
f 628 552 900
f 738 524 719
f 527 720 666
f 8 908 1
f 917 918 873
f 647 602 806
f 863 865 615
f 4 16 509
f 772 919 920
f 513 921 514
f 596 651 597
f 868 922 923
f 492 924 702
f 501 909 494
f 665 616 827
f 838 925 785
f 926 769 768
f 851 927 863
f 617 928 808
f 779 919 831
f 904 488 490
f 794 651 596
f 717 716 923
f 566 929 785
f 705 582 581
f 798 797 871
f 654 653 866
f 563 565 930
f 931 538 537
f 570 553 568
f 621 620 932
f 933 539 934
f 576 549 548
f 680 578 725
f 913 920 925
f 492 491 935
f 880 747 749
f 561 833 562
f 627 776 646
f 600 762 714
f 936 695 694
f 523 888 689
f 523 522 888
f 772 920 932
f 598 937 596
f 664 663 762
f 505 902 938
f 630 889 847
f 735 734 665
f 559 847 766
f 902 737 939
f 538 931 691
f 17 652 741
f 940 941 942
f 943 792 813
f 922 944 923
f 931 824 777
f 945 690 879
f 766 847 721
f 3 686 874
f 946 947 784
f 689 948 879
f 660 659 750
f 845 692 618
f 544 543 594
f 859 836 835
f 674 949 927
f 875 489 922
f 523 481 869
f 702 704 685
f 950 10 12
f 595 913 838
f 895 951 952
f 506 876 755
f 950 812 596
f 953 954 792
f 857 856 813
f 673 949 674
f 790 776 955
f 789 774 703
f 495 667 496
f 665 827 848
f 956 946 786
f 957 519 895
f 698 814 658
f 808 756 509
f 958 780 727
f 756 758 7
f 820 828 877
f 914 534 825
f 947 946 959
f 812 950 907
f 960 961 606
f 480 668 631
f 691 887 645
f 642 797 922
f 678 962 915
f 857 813 812
f 584 555 963
f 611 805 964
f 965 800 806
f 607 802 966
f 497 787 928
f 880 839 967
f 911 930 565
f 778 595 837
f 692 968 618
f 594 543 656
f 862 898 969
f 927 814 674
f 875 922 868
f 924 935 703
f 493 702 684
f 848 881 891
f 970 650 785
f 636 635 840
f 567 971 566
f 639 972 561
f 958 640 544
f 728 584 963
f 754 567 507
f 535 708 832
f 495 860 862
f 973 582 562
f 748 583 485
f 685 766 530
f 586 768 587
f 824 823 882
f 921 974 975
f 913 843 932
f 845 976 692
f 750 485 660
f 977 965 752
f 722 959 956
f 1 908 907
f 606 605 960
f 939 737 774
f 629 895 519
f 487 486 973
f 696 601 516
f 978 677 979
f 798 818 980
f 851 850 837
f 504 683 888
f 566 723 929
f 908 8 526
f 946 956 959
f 952 951 763
f 650 970 849
f 829 509 844
f 810 981 982
f 625 862 744
f 820 864 949
f 906 519 955
f 902 888 522
f 816 706 687
f 983 736 686
f 751 485 750
f 588 587 724
f 877 876 508
f 16 886 509
f 958 726 542
f 974 866 975
f 651 518 652
f 551 825 717
f 501 500 910
f 719 554 738
f 918 630 705
f 892 804 706
f 764 984 867
f 518 517 652
f 857 812 855
f 936 940 985
f 700 986 729
f 815 521 822
f 661 977 669
f 494 909 495
f 9 609 13
f 501 687 502
f 987 988 989
f 599 862 861
f 818 817 693
f 796 990 676
f 794 596 812
f 709 820 673
f 682 963 555
f 939 858 938
f 566 991 723
f 526 525 908
f 929 956 786
f 935 753 938
f 807 762 600
f 509 886 844
f 990 953 943
f 676 943 856
f 992 673 672
f 993 489 655
f 858 939 789
f 969 883 667
f 835 908 525
f 767 607 532
f 646 586 783
f 755 536 754
f 994 692 976
f 919 772 760
f 866 822 975
f 517 516 601
f 565 769 926
f 766 531 530
f 873 918 581
f 871 870 631
f 767 605 607
f 732 637 930
f 576 548 589
f 761 728 963
f 759 571 995
f 844 976 845
f 660 698 658
f 491 632 846
f 786 785 929
f 881 827 874
f 816 580 706
f 719 524 869
f 815 489 521
f 791 955 519
f 885 854 697
f 743 482 883
f 741 799 996
f 970 919 779
f 945 878 997
f 872 784 947
f 928 617 983
f 782 606 961
f 879 948 888
f 901 644 589
f 6 5 598
f 695 936 483
f 811 982 518
f 992 973 834
f 975 822 521
f 998 999 997
f 605 721 723
f 13 498 2
f 947 873 872
f 613 1000 977
f 837 658 851
f 996 799 980
f 942 1001 836
f 793 811 651
f 986 521 520
f 490 489 993
f 481 480 870
f 723 722 956
f 686 3 2
f 770 966 802
f 800 965 1000
f 779 778 850
f 10 950 937
f 727 760 995
f 634 633 701
f 549 577 971
f 578 840 819
f 880 658 839
f 528 529 1002
f 484 788 666
f 514 975 555
f 547 986 699
f 944 922 900
f 1001 979 855
f 679 915 624
f 741 740 867
f 807 599 861
f 998 1003 989
f 991 566 841
f 686 736 891
f 722 917 959
f 987 614 479
f 901 691 644
f 756 787 757
f 962 1004 896
f 854 899 744
f 489 791 521
f 699 986 700
f 604 603 997
f 960 723 991
f 609 499 498
f 967 839 785
f 730 912 775
f 712 964 770
f 757 787 608
f 619 571 759
f 905 711 642
f 600 745 601
f 680 724 587
f 833 934 834
f 967 826 880
f 631 528 1002
f 919 970 925
f 926 586 646
f 520 824 931
f 972 933 833
f 727 726 958
f 608 9 781
f 865 508 615
f 912 926 646
f 872 785 784
f 818 798 1002
f 720 684 585
f 593 718 719
f 984 951 895
f 864 863 927
f 1005 904 490
f 981 884 916
f 598 5 11
f 508 876 506
f 588 551 550
f 964 706 966
f 891 874 686
f 722 889 917
f 603 648 1003
f 538 901 548
f 844 886 994
f 941 978 1001
f 979 679 856
f 951 984 764
f 541 894 834
f 997 878 604
f 685 704 557
f 734 983 617
f 630 918 917
f 703 938 846
f 658 814 851
f 968 692 616
f 1004 742 897
f 625 898 862
f 894 673 992
f 791 489 875
f 804 610 706
f 826 747 880
f 1002 871 631
f 910 861 860
f 552 628 957
f 714 745 600
f 654 1005 993
f 954 809 793
f 616 693 817
f 931 887 691
f 977 1000 965
f 961 960 991
f 891 736 735
f 804 893 805
f 858 669 977
f 502 712 662
f 900 799 741
f 483 985 788
f 982 916 516
f 922 799 900
f 745 777 882
f 1003 648 612
f 841 961 991
f 890 735 848
f 893 892 964
f 648 647 801
f 538 567 754
f 994 693 692
f 985 942 859
f 897 743 969
f 642 489 488
f 934 541 834
f 612 801 1000
f 532 966 706
f 787 499 609
f 751 749 485
f 550 895 952
f 814 927 851
f 994 886 693
f 853 795 899
f 898 625 903
f 894 1006 673
f 552 717 944
f 575 558 556
f 855 812 836
f 528 527 526
f 837 839 658
f 930 637 636
f 893 964 805
f 7 509 756
f 888 948 689
f 4 6 16
f 9 11 18
f 1 13 2
f 10 13 12
f 8 15 526
f 16 17 996
f 7 11 5
f 19 21 60
f 22 24 186
f 25 27 203
f 28 19 187
f 30 32 72
f 33 35 63
f 36 38 152
f 39 41 80
f 42 44 101
f 45 47 155
f 48 50 166
f 51 53 91
f 54 56 43
f 50 58 164
f 59 61 118
f 62 64 83
f 65 67 26
f 68 70 120
f 71 63 35
f 73 75 23
f 76 78 37
f 79 81 103
f 82 64 208
f 84 86 46
f 87 89 225
f 90 92 102
f 93 95 218
f 96 98 57
f 38 85 84
f 100 102 125
f 103 30 172
f 104 77 76
f 27 107 204
f 108 110 74
f 28 112 29
f 113 66 65
f 115 117 220
f 118 119 190
f 120 122 141
f 123 125 117
f 124 100 125
f 121 128 122
f 129 46 45
f 130 83 82
f 80 132 81
f 133 37 36
f 134 74 73
f 72 64 63
f 69 136 70
f 137 26 25
f 87 139 88
f 60 140 61
f 136 142 239
f 143 55 54
f 145 147 126
f 148 150 232
f 81 31 30
f 151 82 208
f 151 208 214
f 151 214 248
f 151 248 115
f 151 115 220
f 151 220 246
f 151 246 247
f 152 84 129
f 89 40 39
f 154 23 22
f 155 131 240
f 156 158 138
f 159 52 51
f 161 163 206
f 164 165 219
f 166 164 181
f 167 43 42
f 52 169 53
f 49 171 50
f 172 72 71
f 34 107 35
f 37 99 38
f 174 80 79
f 175 63 62
f 46 176 47
f 177 166 228
f 178 91 90
f 55 175 56
f 57 180 58
f 180 182 227
f 120 127 121
f 183 178 168
f 29 161 19
f 26 106 27
f 185 186 173
f 187 60 59
f 142 114 113
f 189 101 100
f 190 145 194
f 191 77 105
f 193 124 123
f 195 197 179
f 122 198 188
f 199 118 212
f 150 104 202
f 66 201 67
f 202 76 133
f 203 204 116
f 109 143 110
f 161 20 19
f 207 65 137
f 208 209 214
f 61 210 119
f 135 68 241
f 147 117 211
f 126 211 100
f 127 136 128
f 140 213 210
f 214 215 248
f 216 137 200
f 88 153 89
f 91 44 92
f 217 218 196
f 171 57 50
f 182 160 159
f 220 125 246
f 219 183 160
f 48 170 49
f 221 196 195
f 53 101 44
f 139 158 153
f 222 45 229
f 151 131 130
f 41 224 132
f 225 39 174
f 95 22 185
f 47 83 131
f 157 225 158
f 184 51 178
f 35 215 209
f 58 227 165
f 98 181 180
f 75 42 189
f 168 90 169
f 170 228 171
f 86 230 176
f 56 62 240
f 231 79 223
f 141 188 142
f 144 179 55
f 194 126 124
f 192 232 77
f 213 194 193
f 173 204 107
f 188 216 114
f 233 59 199
f 234 173 34
f 67 235 106
f 112 162 161
f 236 71 242
f 179 33 175
f 78 238 99
f 239 113 207
f 24 100 211
f 119 146 145
f 149 105 150
f 146 123 147
f 110 54 167
f 128 239 198
f 21 212 140
f 44 131 92
f 200 25 201
f 135 141 136
f 32 209 64
f 243 73 154
f 232 36 237
f 181 219 182
f 204 117 116
f 160 168 52
f 244 138 87
f 230 240 62
f 196 234 197
f 153 231 40
f 238 129 222
f 217 245 205
f 217 205 109
f 217 109 108
f 217 108 134
f 217 134 243
f 217 243 94
f 217 94 93
f 132 236 31
f 150 133 232
f 235 116 215
f 205 144 143
f 206 233 20
f 227 159 184
f 246 102 247
f 165 184 183
f 97 166 98
f 94 154 95
f 169 102 101
f 157 244 226
f 85 229 86
f 247 92 151
f 223 103 224
f 77 237 78
f 74 167 75
f 242 35 209
f 241 120 141
f 212 190 213
f 248 116 115
f 114 200 66
f 163 187 233
f 245 195 144
f 106 215 107
f 192 149 148
f 224 172 236
f 171 97 96
f 99 222 85
f 158 174 231
f 218 185 234
f 176 62 83
f 226 87 225
f 210 193 146
f 186 211 204
f 198 207 216
f 20 199 21
f 23 189 24
f 201 203 235
f 111 187 162
f 31 242 32
f 197 34 33
f 237 152 238
f 40 223 41
f 43 240 44
f 229 155 230
f 249 251 331
f 252 254 329
f 255 257 325
f 258 260 326
f 257 262 315
f 263 265 443
f 266 249 330
f 268 270 310
f 271 273 391
f 274 276 336
f 277 279 416
f 280 282 309
f 283 285 410
f 260 287 406
f 288 290 439
f 291 293 307
f 291 307 462
f 291 462 380
f 291 380 372
f 291 372 465
f 291 465 478
f 291 478 395
f 294 296 352
f 259 297 414
f 298 300 408
f 301 263 369
f 303 305 359
f 251 275 274
f 307 309 462
f 310 255 362
f 311 267 266
f 262 314 316
f 315 316 373
f 279 266 416
f 275 318 276
f 319 308 460
f 321 310 374
f 267 250 249
f 284 324 285
f 325 315 376
f 297 326 363
f 256 261 257
f 328 329 408
f 330 331 371
f 332 269 268
f 334 253 252
f 336 337 366
f 338 332 305
f 340 342 459
f 343 319 442
f 345 347 398
f 348 289 288
f 350 282 320
f 352 353 403
f 354 304 438
f 318 299 298
f 357 328 351
f 359 321 405
f 250 306 251
f 253 314 254
f 362 325 413
f 363 365 286
f 299 367 300
f 368 369 323
f 370 359 333
f 306 317 275
f 372 373 465
f 374 362 327
f 312 322 267
f 313 254 314
f 376 373 254
f 377 278 277
f 379 327 256
f 380 367 372
f 371 381 317
f 382 384 470
f 385 387 264
f 388 390 397
f 391 392 431
f 393 341 340
f 395 397 291
f 398 399 436
f 365 349 348
f 401 283 430
f 403 308 320
f 378 322 375
f 317 356 318
f 363 404 364
f 405 374 379
f 349 407 289
f 351 408 282
f 409 403 281
f 355 305 304
f 356 366 299
f 335 361 253
f 333 405 269
f 360 371 306
f 361 412 314
f 327 413 261
f 414 363 286
f 413 376 313
f 323 415 324
f 322 360 250
f 417 419 477
f 279 312 311
f 420 422 445
f 423 425 272
f 426 428 442
f 429 335 334
f 431 432 455
f 407 394 393
f 382 435 383
f 436 409 456
f 364 400 365
f 366 329 367
f 437 323 284
f 438 333 332
f 394 440 341
f 291 428 292
f 441 436 295
f 400 406 349
f 430 410 335
f 281 320 282
f 278 375 279
f 381 336 356
f 390 428 397
f 269 379 270
f 416 330 360
f 369 443 415
f 261 313 262
f 259 286 260
f 444 445 471
f 329 373 367
f 418 447 419
f 448 418 417
f 410 411 361
f 445 450 467
f 451 434 382
f 440 427 426
f 411 390 412
f 455 441 469
f 406 433 407
f 443 350 344
f 456 281 280
f 424 458 425
f 427 460 428
f 461 334 358
f 458 455 346
f 433 439 394
f 385 301 368
f 385 368 437
f 385 437 402
f 385 402 401
f 385 401 466
f 385 466 463
f 385 463 386
f 295 456 296
f 404 260 400
f 337 408 329
f 402 284 283
f 338 354 339
f 331 274 381
f 462 300 380
f 270 256 255
f 271 431 458
f 450 397 396
f 386 461 387
f 383 448 384
f 447 420 444
f 465 316 478
f 419 444 476
f 435 449 448
f 463 429 461
f 467 396 412
f 424 468 457
f 439 453 440
f 292 460 293
f 469 295 294
f 449 446 418
f 285 454 411
f 471 467 389
f 472 382 470
f 453 459 427
f 344 320 319
f 346 469 347
f 287 288 433
f 265 351 350
f 296 280 353
f 339 438 332
f 276 298 337
f 358 252 328
f 305 268 321
f 432 398 441
f 454 442 390
f 341 426 342
f 452 449 434
f 422 388 450
f 415 344 343
f 384 417 475
f 446 464 447
f 438 303 370
f 476 471 474
f 457 271 458
f 459 319 460
f 387 358 357
f 425 346 345
f 464 421 420
f 478 396 395
f 477 476 421
f 473 451 472
f 302 264 263
f 389 412 390
f 273 425 392
f 290 340 453
f 293 308 307
f 347 294 399
f 286 348 287
f 466 430 429
f 353 309 308
f 377 416 322
f 399 352 409
f 314 396 316
f 289 393 290
f 392 345 432
f 264 357 265
f 342 442 319
f 468 272 271
f 421 474 422
f 282 300 309
f 475 477 464
f 470 475 446
f 324 343 454
f 474 389 388
f 473 470 449
f 482 484 883
f 491 493 632
f 500 502 662
f 503 505 806
f 510 512 995
f 519 521 791
f 522 524 738
f 530 532 580
f 536 538 754
f 539 541 934
f 545 547 699
f 538 549 567
f 554 557 704
f 556 559 557
f 560 562 558
f 571 510 995
f 573 575 649
f 578 563 840
f 579 580 816
f 581 583 748
f 586 588 952
f 586 952 783
f 591 593 622
f 544 595 778
f 599 601 862
f 602 604 503
f 612 614 989
f 616 618 968
f 619 621 842
f 619 842 821
f 619 821 572
f 619 572 571
f 627 629 906
f 630 558 705
f 545 634 540
f 545 540 539
f 545 539 933
f 545 933 972
f 545 972 639
f 545 639 574
f 545 574 573
f 545 573 570
f 545 570 569
f 545 569 710
f 545 710 728
f 545 728 761
f 545 761 546
f 635 637 732
f 635 732 731
f 635 731 832
f 635 832 708
f 635 708 707
f 574 560 575
f 643 645 712
f 628 646 957
f 486 582 973
f 602 648 603
f 553 556 554
f 653 655 815
f 594 657 913
f 594 913 595
f 662 664 500
f 617 665 734
f 668 670 631
f 675 624 626
f 677 679 979
f 680 564 578
f 547 521 986
f 503 683 504
f 684 579 585
f 498 686 2
f 688 690 945
f 688 945 999
f 688 999 998
f 688 998 988
f 688 988 987
f 694 482 743
f 487 698 485
f 707 535 819
f 512 543 727
f 724 534 914
f 590 644 643
f 542 727 543
f 537 729 931
f 730 732 911
f 734 736 983
f 737 738 774
f 739 700 894
f 742 743 897
f 491 753 935
f 619 760 772
f 546 682 547
f 763 671 519
f 766 767 531
f 643 771 590
f 620 772 932
f 773 515 718
f 775 776 790
f 777 714 713
f 778 780 544
f 590 782 576
f 783 519 957
f 632 789 703
f 746 791 875
f 792 794 813
f 795 675 899
f 797 799 922
f 610 805 611
f 733 807 861
f 787 808 928
f 809 811 793
f 496 816 494
f 817 529 827
f 534 819 535
f 820 536 828
f 572 656 510
f 823 520 671
f 730 825 533
f 564 769 565
f 829 808 509
f 592 718 593
f 823 517 882
f 832 730 533
f 840 707 819
f 576 841 577
f 570 649 553
f 842 843 657
f 771 606 782
f 849 851 615
f 852 854 885
f 669 765 670
f 656 511 510
f 671 740 823
f 716 868 923
f 872 826 967
f 14 827 529
f 14 529 15
f 715 875 868
f 821 657 656
f 845 830 829
f 876 828 755
f 878 683 604
f 746 775 790
f 667 484 666
f 884 885 916
f 693 16 996
f 693 996 980
f 887 713 645
f 847 722 721
f 896 898 903
f 899 626 744
f 797 719 871
f 500 861 910
f 681 587 768
f 831 780 779
f 744 601 697
f 776 906 955
f 704 738 554
f 853 884 981
f 853 981 810
f 853 810 809
f 853 809 954
f 853 954 953
f 853 953 990
f 853 990 796
f 853 796 795
f 909 860 495
f 577 566 971
f 633 699 701
f 700 709 1006
f 700 1006 894
f 915 903 624
f 916 696 516
f 628 900 629
f 917 873 947
f 647 806 800
f 492 702 493
f 501 494 687
f 838 785 839
f 926 768 586
f 851 863 615
f 617 808 830
f 717 923 944
f 798 871 1002
f 654 866 974
f 654 974 921
f 654 921 513
f 654 513 773
f 654 773 592
f 654 592 591
f 654 591 641
f 654 641 711
f 654 711 905
f 654 905 904
f 654 904 1005
f 621 932 843
f 933 934 833
f 680 725 724
f 913 925 838
f 492 935 924
f 936 694 742
f 936 742 1004
f 936 1004 962
f 936 962 678
f 936 678 677
f 936 677 978
f 936 978 941
f 936 941 940
f 523 689 688
f 523 688 479
f 523 479 481
f 664 762 807
f 505 938 753
f 559 766 557
f 538 691 901
f 940 942 985
f 943 813 856
f 931 777 887
f 945 879 878
f 3 874 14
f 946 784 786
f 689 879 690
f 523 869 524
f 702 685 684
f 950 12 907
f 595 838 837
f 950 596 937
f 953 792 943
f 790 955 791
f 957 895 550
f 820 877 864
f 914 825 551
f 947 959 917
f 812 907 835
f 480 631 870
f 642 922 489
f 678 915 679
f 611 964 712
f 965 806 505
f 965 505 753
f 965 753 752
f 607 966 532
f 497 928 803
f 911 565 912
f 778 837 850
f 862 969 667
f 924 703 702
f 493 684 720
f 848 891 890
f 970 785 925
f 636 840 563
f 639 561 560
f 958 544 780
f 754 507 506
f 535 832 533
f 495 862 667
f 973 562 834
f 748 485 749
f 685 530 579
f 824 882 777
f 921 975 514
f 913 932 920
f 977 752 846
f 1 907 12
f 939 774 789
f 629 519 906
f 487 973 992
f 978 979 1001
f 798 980 799
f 504 888 902
f 952 763 783
f 650 849 615
f 810 982 811
f 820 949 673
f 902 522 737
f 816 687 494
f 983 686 803
f 588 724 914
f 877 508 865
f 958 542 640
f 551 717 552
f 501 910 909
f 918 705 581
f 892 706 964
f 764 867 671
f 936 985 483
f 700 729 638
f 661 669 668
f 987 989 614
f 818 693 980
f 796 676 675
f 709 673 1006
f 682 555 521
f 939 938 902
f 935 938 703
f 807 600 599
f 990 943 676
f 676 856 624
f 992 672 487
f 858 789 765
f 646 783 957
f 994 976 844
f 919 760 831
f 565 926 912
f 873 581 826
f 732 930 911
f 761 963 682
f 759 995 760
f 719 869 871
f 885 697 696
f 743 883 969
f 741 996 17
f 970 779 849
f 945 997 999
f 928 983 803
f 782 961 841
f 695 483 482
f 811 518 651
f 992 834 894
f 975 521 555
f 998 997 1003
f 605 723 960
f 613 977 661
f 942 836 859
f 793 651 794
f 986 520 729
f 481 870 869
f 723 956 929
f 770 802 771
f 800 1000 801
f 779 850 849
f 10 937 11
f 727 995 512
f 634 701 739
f 549 971 567
f 578 819 725
f 514 555 554
f 1001 855 836
f 679 624 856
f 998 989 988
f 987 479 688
f 962 896 915
f 854 744 697
f 609 498 13
f 967 785 872
f 712 770 643
f 757 608 781
f 905 642 488
f 919 925 920
f 520 931 729
f 972 833 561
f 912 646 775
f 818 1002 529
f 720 585 666
f 984 895 867
f 864 927 949
f 1005 490 993
f 981 916 982
f 598 11 937
f 588 550 952
f 964 966 770
f 603 1003 997
f 941 1001 942
f 979 856 855
f 951 764 763
f 685 557 766
f 630 917 889
f 703 846 632
f 1004 897 896
f 552 957 550
f 654 993 655
f 954 793 792
f 858 977 846
f 858 846 938
f 483 788 484
f 982 516 518
f 1003 612 989
f 648 801 612
f 985 859 788
f 897 969 898
f 612 1000 613
f 532 706 580
f 787 609 608
f 853 899 854
f 552 944 900
f 930 636 563
