# Unified Preprocessed OBJ file from m1312.obj
# Applied remeshing: Yes
# Applied 4-step normalization: centering, PCA alignment, flipping, scaling
# Generated on 2025-09-29 15:10:54

v 0.461702 -0.013318 -0.014102
v 0.398113 -0.029078 -0.005331
v 0.399908 -0.024097 0.006733
v 0.400471 0.000241 0.006774
v 0.398911 0.005340 -0.005273
v 0.397116 0.000359 -0.017337
v 0.396552 -0.023978 -0.017378
v -0.057295 -0.100937 0.024947
v -0.218154 -0.096719 0.047354
v -0.188417 -0.068508 0.114050
v -0.046917 -0.072128 0.094718
v -0.174171 0.001154 0.141693
v -0.041267 -0.001895 0.123716
v -0.185173 0.071495 0.114286
v -0.043656 0.068622 0.094955
v -0.213566 0.101276 0.047686
v -0.052683 0.098115 0.025282
v -0.247938 0.073172 -0.018364
v -0.063061 0.069306 -0.044488
v -0.251456 0.003237 -0.032106
v -0.066609 -0.001002 -0.058384
v -0.251182 -0.066831 -0.018599
v -0.066322 -0.071444 -0.044724
v -0.309123 0.074475 0.049857
v -0.314921 0.054160 0.011571
v -0.317994 0.004728 -0.002352
v -0.317215 -0.044839 0.011404
v -0.312367 -0.065528 0.049622
v -0.369945 0.005843 0.050972
v 0.065962 -0.047990 0.040800
v 0.070521 -0.035334 0.071454
v 0.073003 -0.004477 0.084193
v 0.071954 0.026505 0.071558
v 0.067988 0.039462 0.040947
v 0.063428 0.026806 0.010293
v 0.060946 -0.004052 -0.002448
v 0.061996 -0.035034 0.010189
v 0.400884 -0.011952 0.011746
v 0.396139 -0.011785 -0.022351
v -0.305067 -0.045267 0.098695
v -0.301094 0.004133 0.119091
v -0.302774 0.053732 0.098862
v 0.498908 -0.014334 0.077719
v 0.467536 -0.019725 0.095214
v 0.468421 -0.013666 0.100569
v 0.467818 -0.007556 0.095234
v 0.472430 -0.013401 -0.112550
v 0.437748 -0.006496 -0.120845
v 0.436863 -0.012554 -0.126201
v 0.437466 -0.018665 -0.120866
v -0.218020 -0.048593 -0.021258
v -0.225920 -0.050756 -0.015549
v -0.231672 -0.085894 -0.051067
v -0.223459 -0.081894 -0.054826
v -0.224707 -0.055245 -0.006106
v -0.231137 -0.094195 -0.045859
v -0.215596 -0.057573 -0.002373
v -0.222390 -0.098493 -0.044422
v -0.207753 -0.055634 -0.008467
v -0.214183 -0.094584 -0.048220
v -0.208966 -0.051145 -0.017910
v -0.214718 -0.086283 -0.053429
v -0.236794 -0.099118 -0.085662
v -0.228203 -0.094370 -0.086834
v -0.237023 -0.109000 -0.085679
v -0.228661 -0.114136 -0.086868
v -0.220069 -0.109389 -0.088040
v -0.219840 -0.099506 -0.088023
v -0.095660 -0.051400 -0.038300
v -0.103561 -0.053563 -0.032591
v -0.109314 -0.088701 -0.068109
v -0.101099 -0.084699 -0.071868
v -0.102349 -0.058052 -0.023147
v -0.108779 -0.097001 -0.062900
v -0.093236 -0.060380 -0.019414
v -0.100031 -0.101299 -0.061463
v -0.085395 -0.058440 -0.025508
v -0.091825 -0.097390 -0.065262
v -0.086607 -0.053951 -0.034952
v -0.092360 -0.089089 -0.070470
v -0.114436 -0.101924 -0.102704
v -0.105843 -0.097176 -0.103876
v -0.114665 -0.111807 -0.102720
v -0.106301 -0.116942 -0.103909
v -0.097711 -0.112195 -0.105082
v -0.097482 -0.102313 -0.105065
v -0.093288 0.050982 -0.038128
v -0.084127 0.053100 -0.034772
v -0.088243 0.088586 -0.070172
v -0.097176 0.084610 -0.071583
v -0.082709 0.057498 -0.025314
v -0.087325 0.096836 -0.064935
v -0.090452 0.059777 -0.019212
v -0.095341 0.101109 -0.061123
v -0.099663 0.057886 -0.022952
v -0.104279 0.097225 -0.062574
v -0.101081 0.053489 -0.032411
v -0.105197 0.088975 -0.067811
v -0.092811 0.099273 -0.104726
v -0.101402 0.094526 -0.103554
v -0.092582 0.109156 -0.104710
v -0.100944 0.114292 -0.103521
v -0.109536 0.109544 -0.102349
v -0.109765 0.099662 -0.102365
v -0.215648 0.053789 -0.021086
v -0.206485 0.055907 -0.017731
v -0.210602 0.091393 -0.053130
v -0.219536 0.087417 -0.054542
v -0.205067 0.060304 -0.008272
v -0.209683 0.099642 -0.047894
v -0.212811 0.062583 -0.002171
v -0.217701 0.103915 -0.044082
v -0.222021 0.060693 -0.005911
v -0.226637 0.100031 -0.045533
v -0.223439 0.056296 -0.015369
v -0.227556 0.091781 -0.050769
v -0.215169 0.102080 -0.087685
v -0.223761 0.097333 -0.086513
v -0.214940 0.111962 -0.087668
v -0.223303 0.117099 -0.086479
v -0.231894 0.112351 -0.085307
v -0.232123 0.102469 -0.085324
v -0.045337 0.117561 -0.117855
v -0.043675 0.109787 -0.104640
v -0.283499 0.115288 -0.071239
v -0.285161 0.123062 -0.084454
v -0.044032 0.094369 -0.104666
v -0.283856 0.099870 -0.071265
v -0.046052 0.086726 -0.117907
v -0.285876 0.092227 -0.084506
v -0.047714 0.094499 -0.131122
v -0.287538 0.100000 -0.097721
v -0.047357 0.109917 -0.131096
v -0.287181 0.115418 -0.097695
v -0.039699 0.102006 -0.118716
v -0.291516 0.107782 -0.083645
v -0.290615 -0.117601 -0.084875
v -0.288595 -0.109956 -0.071634
v -0.048771 -0.115457 -0.105036
v -0.050791 -0.123102 -0.118277
v -0.288238 -0.094539 -0.071608
v -0.048414 -0.100039 -0.105010
v -0.289900 -0.086765 -0.084823
v -0.050076 -0.092266 -0.118225
v -0.291920 -0.094409 -0.098064
v -0.052096 -0.099910 -0.131466
v -0.292277 -0.109827 -0.098090
v -0.052453 -0.115327 -0.131492
v -0.296252 -0.102045 -0.084014
v -0.044436 -0.107820 -0.119086
v 0.454235 0.011462 -0.013298
v 0.443985 0.011722 -0.026456
v 0.443825 0.004803 -0.026468
v 0.454075 0.004544 -0.013309
v 0.427468 0.012101 -0.024156
v 0.421199 0.012220 -0.008697
v 0.421039 0.005302 -0.008708
v 0.427307 0.005182 -0.024167
v 0.431450 0.011961 0.004463
v 0.431290 0.005042 0.004451
v 0.447968 0.011582 0.002162
v 0.447807 0.004663 0.002151
v 0.437752 0.013324 -0.010995
v 0.437523 0.003441 -0.011011
v 0.430566 0.012195 -0.122881
v 0.414049 0.012574 -0.120581
v 0.413888 0.005655 -0.120592
v 0.430406 0.005276 -0.122893
v 0.444869 0.011488 0.100888
v 0.461386 0.011109 0.098587
v 0.461226 0.004190 0.098576
v 0.444709 0.004569 0.100876
v 0.436863 0.005537 -0.016463
v 0.432564 0.005631 -0.013113
v 0.432259 -0.007536 -0.013135
v 0.436558 -0.007630 -0.016486
v 0.433315 0.005605 -0.007714
v 0.433010 -0.007562 -0.007736
v 0.438365 0.005484 -0.005666
v 0.438060 -0.007683 -0.005688
v 0.442664 0.005390 -0.009016
v 0.442359 -0.007777 -0.009038
v 0.441912 0.005417 -0.014415
v 0.441607 -0.007750 -0.014437
v 0.437614 0.005511 -0.011065
v 0.437309 -0.007656 -0.011087
v -0.133498 0.000157 0.174355
v -0.117649 -0.029109 0.172006
v -0.119557 -0.029042 0.158299
v -0.135406 0.000224 0.160648
v -0.084614 -0.029867 0.167405
v -0.067425 -0.001359 0.165153
v -0.069333 -0.001292 0.151446
v -0.086522 -0.029799 0.153698
v -0.083275 0.027907 0.167502
v -0.085183 0.027974 0.153795
v -0.116310 0.028665 0.172103
v -0.118218 0.028732 0.158396
v -0.100053 -0.000615 0.172692
v -0.102779 -0.000519 0.153109
v -0.128556 -0.499810 0.171216
v -0.095521 -0.500567 0.166615
v -0.097428 -0.500500 0.152907
v -0.130463 -0.499742 0.157508
v -0.072369 0.498608 0.168293
v -0.105404 0.499365 0.172894
v -0.107311 0.499433 0.159186
v -0.074276 0.498675 0.154585
v -0.102563 -0.011537 0.157207
v -0.093088 -0.006303 0.155915
v -0.096719 -0.006175 0.129825
v -0.106193 -0.011409 0.131118
v -0.092835 0.004596 0.155933
v -0.096466 0.004724 0.129843
v -0.102057 0.010260 0.157244
v -0.105688 0.010388 0.131155
v -0.111531 0.005024 0.158537
v -0.115162 0.005152 0.132447
v -0.111784 -0.005874 0.158518
v -0.115414 -0.005746 0.132429
v -0.102310 -0.000639 0.157226
v -0.105941 -0.000511 0.131136
v 0.429907 -0.021198 -0.009717
v 0.399010 -0.026587 0.000701
v 0.430805 -0.018707 -0.003685
v 0.431087 -0.006538 -0.003664
v 0.399691 0.002791 0.000750
v 0.430306 -0.003989 -0.009688
v 0.398013 0.002850 -0.011305
v 0.429409 -0.006479 -0.015720
v 0.429127 -0.018648 -0.015740
v 0.397333 -0.026528 -0.011354
v -0.137724 -0.098828 0.036150
v -0.203285 -0.082614 0.080702
v -0.122856 -0.084723 0.069499
v -0.117667 -0.070318 0.104384
v -0.052106 -0.086533 0.059833
v -0.181294 -0.033677 0.127872
v -0.110544 -0.035487 0.118206
v -0.107719 -0.000371 0.132705
v -0.044092 -0.037012 0.109217
v -0.179672 0.036325 0.127989
v -0.113220 0.034800 0.119001
v -0.114414 0.070058 0.104620
v -0.042461 0.033363 0.109335
v -0.199370 0.086386 0.080986
v -0.128611 0.084949 0.071320
v -0.133124 0.099695 0.036484
v -0.048169 0.083368 0.060118
v -0.230752 0.087224 0.014661
v -0.150310 0.085643 0.003459
v -0.155499 0.071239 -0.031426
v -0.057872 0.083710 -0.009603
v -0.249697 0.038204 -0.025235
v -0.157258 0.036271 -0.038297
v -0.159032 0.001117 -0.045245
v -0.064835 0.034152 -0.051436
v -0.251319 -0.031797 -0.025352
v -0.158895 -0.033917 -0.038491
v -0.158752 -0.069138 -0.031662
v -0.066465 -0.036223 -0.051554
v -0.234668 -0.081775 0.014377
v -0.142238 -0.084082 0.001315
v -0.061809 -0.086191 -0.009889
v -0.261344 0.087876 0.048771
v -0.312022 0.064317 0.030714
v -0.264244 0.077718 0.029628
v -0.281430 0.063666 -0.003397
v -0.316458 0.029444 0.004609
v -0.282966 0.038950 -0.010358
v -0.284725 0.003983 -0.017229
v -0.317605 -0.020055 0.004526
v -0.284336 -0.020801 -0.010351
v -0.284199 -0.055835 -0.003597
v -0.314791 -0.055183 0.030513
v -0.281774 -0.066180 0.015511
v -0.265260 -0.081124 0.048488
v -0.343580 -0.019498 0.031188
v -0.343969 0.005286 0.024310
v -0.342433 0.030001 0.031271
v -0.339534 0.040159 0.050414
v -0.341156 -0.029843 0.050297
v 0.004333 -0.074464 0.032874
v 0.009522 -0.060059 0.067759
v 0.011802 -0.053731 0.083086
v 0.068242 -0.041662 0.056127
v 0.014627 -0.018615 0.097585
v 0.015868 -0.003186 0.103955
v 0.071762 -0.019905 0.077823
v 0.014674 0.032073 0.089574
v 0.014149 0.047564 0.083256
v 0.072479 0.011014 0.077875
v 0.009636 0.062310 0.048420
v 0.007653 0.068788 0.033114
v 0.069971 0.032984 0.056252
v 0.002464 0.054384 -0.001771
v 0.000184 0.048056 -0.017098
v 0.065708 0.033134 0.025620
v -0.001590 0.012902 -0.024045
v -0.002831 -0.002527 -0.030416
v 0.062187 0.011377 0.003922
v -0.002688 -0.037748 -0.023586
v -0.002163 -0.053239 -0.017268
v 0.061471 -0.019543 0.003870
v 0.002350 -0.067985 0.017568
v 0.063979 -0.041512 0.025494
v 0.232037 -0.038534 0.017735
v 0.234317 -0.032206 0.033062
v 0.235214 -0.029715 0.039093
v 0.236455 -0.014287 0.045463
v 0.236944 -0.008214 0.047970
v 0.400396 -0.018024 0.009239
v 0.236419 0.007277 0.041652
v 0.236213 0.013373 0.039166
v 0.400678 -0.005856 0.009260
v 0.234230 0.019851 0.023860
v 0.233449 0.022401 0.017837
v 0.231170 0.016073 0.002510
v 0.230272 0.013583 -0.003522
v 0.229031 -0.001846 -0.009892
v 0.228543 -0.007918 -0.012399
v 0.396628 -0.005713 -0.019844
v 0.229067 -0.023409 -0.006081
v 0.229274 -0.029506 -0.003595
v 0.396346 -0.017882 -0.019864
v 0.231257 -0.035984 0.011711
v -0.308717 -0.055397 0.074158
v -0.261611 -0.070993 0.073024
v -0.246742 -0.056887 0.106373
v -0.303081 -0.020567 0.108893
v -0.244755 -0.032188 0.116571
v -0.237632 0.002643 0.130392
v -0.301934 0.028932 0.108976
v -0.238472 0.027443 0.120277
v -0.243973 0.062613 0.106574
v -0.305948 0.064103 0.074359
v -0.247148 0.072985 0.082071
v -0.336359 0.029787 0.074917
v -0.335519 0.004988 0.085031
v -0.337506 -0.019712 0.074834
v 0.483222 -0.017029 0.086466
v 0.467979 -0.016695 0.097891
v 0.483664 -0.014000 0.089144
v 0.468120 -0.010611 0.097902
v 0.483363 -0.010945 0.086477
v 0.455089 -0.009949 -0.116698
v 0.437306 -0.009525 -0.123523
v 0.454646 -0.012978 -0.119375
v 0.437165 -0.015610 -0.123533
v 0.454948 -0.016033 -0.116708
v 0.480305 -0.013826 0.031808
v 0.449408 -0.019215 0.042226
v 0.433722 -0.021911 0.050973
v 0.434210 -0.015838 0.053480
v 0.434653 -0.012809 0.056158
v 0.434446 -0.006713 0.053671
v 0.434145 -0.003657 0.051004
v 0.464760 -0.010437 0.040566
v 0.467066 -0.013360 -0.063326
v 0.434773 -0.006521 -0.064944
v 0.417432 -0.003068 -0.069091
v 0.416944 -0.009141 -0.071598
v 0.416501 -0.012170 -0.074276
v 0.416708 -0.018266 -0.071789
v 0.417009 -0.021322 -0.069122
v 0.449584 -0.015991 -0.067484
v -0.221970 -0.049675 -0.018404
v -0.228796 -0.068325 -0.033308
v -0.224846 -0.067244 -0.036163
v -0.227566 -0.083894 -0.052947
v -0.220739 -0.065244 -0.038042
v -0.225314 -0.053001 -0.010827
v -0.227922 -0.074720 -0.025982
v -0.228529 -0.072475 -0.030704
v -0.231405 -0.090044 -0.048463
v -0.220151 -0.056409 -0.004239
v -0.218993 -0.078033 -0.023397
v -0.223549 -0.076869 -0.025264
v -0.226764 -0.096344 -0.045140
v -0.211674 -0.056604 -0.005420
v -0.210968 -0.075109 -0.028344
v -0.214889 -0.076079 -0.025296
v -0.218287 -0.096538 -0.046321
v -0.208360 -0.053389 -0.013189
v -0.211842 -0.068714 -0.035670
v -0.211236 -0.070958 -0.030948
v -0.214451 -0.090433 -0.050824
v -0.213493 -0.049869 -0.019584
v -0.216212 -0.066519 -0.036368
v -0.219089 -0.084088 -0.054127
v -0.234233 -0.092506 -0.068365
v -0.230126 -0.090506 -0.070244
v -0.232498 -0.096744 -0.086248
v -0.225831 -0.088132 -0.070830
v -0.234080 -0.101597 -0.065769
v -0.234348 -0.097447 -0.068373
v -0.236908 -0.104059 -0.085671
v -0.225526 -0.106314 -0.065645
v -0.229899 -0.104165 -0.066363
v -0.232842 -0.111568 -0.086273
v -0.217126 -0.101986 -0.068130
v -0.221230 -0.103941 -0.066231
v -0.224365 -0.111762 -0.087454
v -0.217279 -0.092895 -0.070726
v -0.217012 -0.097045 -0.068122
v -0.219954 -0.104448 -0.088032
v -0.221461 -0.090326 -0.070132
v -0.224021 -0.096938 -0.087429
v -0.099611 -0.052481 -0.035445
v -0.106438 -0.071132 -0.050350
v -0.102487 -0.070050 -0.053204
v -0.105207 -0.086700 -0.069988
v -0.098380 -0.068050 -0.055084
v -0.102955 -0.055807 -0.027869
v -0.105564 -0.077526 -0.043024
v -0.106170 -0.075282 -0.047745
v -0.109047 -0.092851 -0.065505
v -0.097793 -0.059216 -0.021281
v -0.096634 -0.080840 -0.040439
v -0.101190 -0.079675 -0.042305
v -0.104405 -0.099150 -0.062182
v -0.089316 -0.059410 -0.022461
v -0.088610 -0.077915 -0.045385
v -0.092531 -0.078885 -0.042338
v -0.095928 -0.099345 -0.063362
v -0.086001 -0.056196 -0.030230
v -0.089484 -0.071520 -0.052711
v -0.088878 -0.073765 -0.047989
v -0.092093 -0.093240 -0.067866
v -0.091134 -0.052676 -0.036626
v -0.093853 -0.069325 -0.053410
v -0.096730 -0.086894 -0.071169
v -0.111875 -0.095312 -0.085406
v -0.107767 -0.093312 -0.087286
v -0.110140 -0.099550 -0.103290
v -0.103471 -0.090938 -0.087872
v -0.111722 -0.104404 -0.082810
v -0.111989 -0.100254 -0.085415
v -0.114550 -0.106865 -0.102712
v -0.103166 -0.109121 -0.082686
v -0.107540 -0.106972 -0.083405
v -0.110483 -0.114374 -0.103315
v -0.094768 -0.104793 -0.085172
v -0.098871 -0.106747 -0.083272
v -0.102006 -0.114569 -0.104495
v -0.094921 -0.095701 -0.087768
v -0.094653 -0.099852 -0.085163
v -0.097596 -0.107254 -0.105073
v -0.099102 -0.093133 -0.087173
v -0.101663 -0.099745 -0.104471
v -0.088707 0.052041 -0.036450
v -0.086185 0.070843 -0.052472
v -0.090766 0.069784 -0.054150
v -0.092710 0.086598 -0.070878
v -0.095232 0.067796 -0.054856
v -0.083418 0.055299 -0.030043
v -0.085017 0.077167 -0.045125
v -0.085726 0.074968 -0.049854
v -0.087784 0.092711 -0.067554
v -0.086580 0.058637 -0.022263
v -0.092896 0.080443 -0.040168
v -0.089025 0.079303 -0.043218
v -0.091333 0.098972 -0.063029
v -0.095057 0.058832 -0.021082
v -0.101971 0.077555 -0.042763
v -0.097365 0.078501 -0.040893
v -0.099810 0.099167 -0.061849
v -0.100372 0.055688 -0.027682
v -0.103139 0.071232 -0.050111
v -0.102430 0.073431 -0.045381
v -0.104738 0.093100 -0.065192
v -0.097184 0.052236 -0.035269
v -0.099129 0.069050 -0.051997
v -0.101187 0.086793 -0.069697
v -0.090527 0.093930 -0.087449
v -0.094993 0.091942 -0.088155
v -0.097106 0.096900 -0.104140
v -0.099289 0.089568 -0.087569
v -0.089953 0.102996 -0.084823
v -0.090412 0.098871 -0.087441
v -0.092696 0.104214 -0.104718
v -0.098142 0.107700 -0.082322
v -0.094134 0.105564 -0.084228
v -0.096763 0.111724 -0.104115
v -0.106907 0.103384 -0.082461
v -0.102438 0.105326 -0.081736
v -0.105240 0.111918 -0.102935
v -0.107481 0.094318 -0.085088
v -0.107022 0.098443 -0.082470
v -0.109650 0.104603 -0.102357
v -0.103299 0.091751 -0.085682
v -0.105583 0.097094 -0.102960
v -0.211066 0.054848 -0.019409
v -0.208543 0.073650 -0.035430
v -0.213125 0.072591 -0.037108
v -0.215069 0.089405 -0.053836
v -0.217592 0.070603 -0.037814
v -0.205776 0.058105 -0.013001
v -0.207375 0.079973 -0.028083
v -0.208084 0.077774 -0.032812
v -0.210142 0.095517 -0.050512
v -0.208939 0.061444 -0.005222
v -0.215256 0.083249 -0.023126
v -0.211384 0.082110 -0.026177
v -0.213692 0.101779 -0.045988
v -0.217416 0.061638 -0.004041
v -0.224329 0.080362 -0.025722
v -0.219724 0.081307 -0.023852
v -0.222169 0.101973 -0.044807
v -0.222730 0.058494 -0.010640
v -0.225497 0.074039 -0.033069
v -0.224788 0.076237 -0.028340
v -0.227096 0.095906 -0.048151
v -0.219543 0.055042 -0.018228
v -0.221487 0.071856 -0.034956
v -0.223546 0.089599 -0.052655
v -0.212885 0.096736 -0.070408
v -0.217352 0.094748 -0.071113
v -0.219465 0.099706 -0.087099
v -0.221648 0.092375 -0.070527
v -0.212312 0.105802 -0.067781
v -0.212771 0.101677 -0.070399
v -0.215055 0.107021 -0.087677
v -0.220502 0.110507 -0.065280
v -0.216493 0.108370 -0.067187
v -0.219122 0.114530 -0.087074
v -0.229266 0.106191 -0.065420
v -0.224797 0.108133 -0.064694
v -0.227599 0.114725 -0.085893
v -0.229839 0.097125 -0.068046
v -0.229380 0.101250 -0.065428
v -0.232009 0.107410 -0.085315
v -0.225658 0.094557 -0.068641
v -0.227942 0.099901 -0.085918
v -0.044506 0.113674 -0.111248
v -0.163587 0.112537 -0.087940
v -0.164418 0.116425 -0.094547
v -0.284330 0.119175 -0.077846
v -0.165249 0.120312 -0.101155
v -0.043854 0.102078 -0.104653
v -0.163944 0.097120 -0.087965
v -0.163766 0.104828 -0.087952
v -0.283678 0.107579 -0.071252
v -0.045042 0.090547 -0.111287
v -0.165964 0.089476 -0.101206
v -0.164954 0.093298 -0.094586
v -0.284866 0.096048 -0.077885
v -0.046883 0.090612 -0.124515
v -0.167626 0.097249 -0.114422
v -0.166795 0.093363 -0.107814
v -0.286707 0.096113 -0.091113
v -0.047535 0.102208 -0.131109
v -0.167269 0.112667 -0.114396
v -0.167447 0.104958 -0.114409
v -0.287359 0.107709 -0.097708
v -0.046347 0.113739 -0.124476
v -0.166259 0.116489 -0.107775
v -0.286171 0.119240 -0.091074
v -0.042518 0.109784 -0.118286
v -0.041687 0.105896 -0.111678
v -0.041866 0.098188 -0.111691
v -0.042876 0.094366 -0.118312
v -0.043707 0.098252 -0.124919
v -0.043528 0.105961 -0.124906
v -0.287507 0.111535 -0.077442
v -0.288338 0.115422 -0.084049
v -0.287686 0.103826 -0.077455
v -0.288696 0.100004 -0.084075
v -0.289527 0.103891 -0.090683
v -0.289348 0.111600 -0.090670
v -0.289605 -0.113779 -0.078255
v -0.168683 -0.112707 -0.088335
v -0.169693 -0.116529 -0.094955
v -0.049781 -0.119280 -0.111656
v -0.170703 -0.120351 -0.101576
v -0.288416 -0.102248 -0.071621
v -0.168326 -0.097289 -0.088309
v -0.168505 -0.104998 -0.088322
v -0.048593 -0.107748 -0.105023
v -0.289069 -0.090652 -0.078216
v -0.169988 -0.089516 -0.101524
v -0.169157 -0.093402 -0.094917
v -0.049245 -0.096153 -0.111617
v -0.290910 -0.090587 -0.091444
v -0.172008 -0.097159 -0.114765
v -0.170998 -0.093338 -0.108145
v -0.051086 -0.096088 -0.124845
v -0.292098 -0.102118 -0.098077
v -0.172365 -0.112577 -0.114791
v -0.172186 -0.104868 -0.114778
v -0.052274 -0.107619 -0.131479
v -0.291446 -0.113714 -0.091483
v -0.171534 -0.116464 -0.108184
v -0.051622 -0.119215 -0.124884
v -0.293434 -0.109823 -0.084445
v -0.292424 -0.106000 -0.077824
v -0.292245 -0.098292 -0.077811
v -0.293076 -0.094405 -0.084419
v -0.294086 -0.098227 -0.091039
v -0.294265 -0.105936 -0.091052
v -0.046604 -0.111639 -0.112061
v -0.047613 -0.115461 -0.118681
v -0.046425 -0.103930 -0.112048
v -0.047256 -0.100043 -0.118656
v -0.048266 -0.103865 -0.125276
v -0.048445 -0.111574 -0.125289
v 0.449110 0.011592 -0.019877
v 0.443905 0.008263 -0.026462
v 0.449030 0.008133 -0.019883
v 0.448950 0.004674 -0.019889
v 0.454155 0.008003 -0.013304
v 0.424333 0.012160 -0.016426
v 0.421119 0.008761 -0.008702
v 0.424253 0.008701 -0.016432
v 0.424173 0.005242 -0.016438
v 0.427387 0.008642 -0.024161
v 0.426325 0.012090 -0.002117
v 0.431370 0.008501 0.004457
v 0.426244 0.008631 -0.002123
v 0.426164 0.005172 -0.002129
v 0.451101 0.011522 -0.005568
v 0.451021 0.008063 -0.005574
v 0.450941 0.004604 -0.005579
v 0.447888 0.008122 0.002156
v 0.445993 0.012393 -0.012146
v 0.440868 0.012523 -0.018725
v 0.435726 0.011911 -0.025306
v 0.432610 0.012713 -0.017575
v 0.429475 0.012772 -0.009846
v 0.434601 0.012642 -0.003266
v 0.439709 0.011771 0.003312
v 0.442860 0.012453 -0.004416
v 0.440674 0.004122 -0.018740
v 0.445799 0.003992 -0.012160
v 0.435566 0.004993 -0.025318
v 0.432415 0.004312 -0.017589
v 0.429281 0.004371 -0.009860
v 0.434406 0.004241 -0.003280
v 0.439549 0.004853 0.003301
v 0.442665 0.004052 -0.004430
v 0.422308 0.012384 -0.121731
v 0.413969 0.009114 -0.120586
v 0.422227 0.008925 -0.121737
v 0.422147 0.005466 -0.121743
v 0.430486 0.008736 -0.122887
v 0.453128 0.011298 0.099737
v 0.461306 0.007650 0.098581
v 0.453047 0.007839 0.099732
v 0.452967 0.004380 0.099726
v 0.444789 0.008028 0.100882
v 0.437276 0.011958 -0.074669
v 0.429017 0.012148 -0.073518
v 0.420758 0.012337 -0.072368
v 0.420678 0.008878 -0.072374
v 0.420598 0.005419 -0.072380
v 0.428857 0.005229 -0.073530
v 0.437115 0.005040 -0.074680
v 0.437196 0.008499 -0.074674
v 0.438159 0.011724 0.052675
v 0.446418 0.011535 0.051525
v 0.454677 0.011345 0.050375
v 0.454597 0.007886 0.050369
v 0.454517 0.004427 0.050363
v 0.446258 0.004616 0.051513
v 0.437999 0.004806 0.052664
v 0.438079 0.008265 0.052669
v 0.434713 0.005584 -0.014788
v 0.432412 -0.000952 -0.013124
v 0.434561 -0.000999 -0.014799
v 0.434408 -0.007583 -0.014810
v 0.436710 -0.001046 -0.016474
v 0.432940 0.005618 -0.010413
v 0.433163 -0.000979 -0.007725
v 0.432787 -0.000965 -0.010424
v 0.432635 -0.007549 -0.010435
v 0.435840 0.005545 -0.006690
v 0.438213 -0.001099 -0.005677
v 0.435688 -0.001039 -0.006701
v 0.435535 -0.007622 -0.006712
v 0.440514 0.005437 -0.007341
v 0.442511 -0.001193 -0.009027
v 0.440362 -0.001146 -0.007352
v 0.440209 -0.007730 -0.007363
v 0.442288 0.005404 -0.011715
v 0.441760 -0.001167 -0.014426
v 0.442136 -0.001180 -0.011726
v 0.441983 -0.007763 -0.011737
v 0.439388 0.005477 -0.015439
v 0.439235 -0.001106 -0.015450
v 0.439082 -0.007690 -0.015461
v 0.437238 0.005524 -0.013764
v 0.435089 0.005571 -0.012089
v 0.435465 0.005558 -0.009389
v 0.437990 0.005498 -0.008366
v 0.440139 0.005451 -0.010040
v 0.439763 0.005464 -0.012740
v 0.434784 -0.007596 -0.012111
v 0.436933 -0.007643 -0.013786
v 0.435160 -0.007609 -0.009412
v 0.437684 -0.007669 -0.008388
v 0.439834 -0.007716 -0.010063
v 0.439458 -0.007703 -0.012762
v -0.125574 -0.014476 0.173181
v -0.118603 -0.029075 0.165153
v -0.126527 -0.014442 0.166327
v -0.127481 -0.014409 0.159473
v -0.134452 0.000190 0.167502
v -0.076020 -0.015613 0.166279
v -0.068379 -0.001325 0.158299
v -0.076973 -0.015579 0.159426
v -0.077927 -0.015545 0.152572
v -0.085568 -0.029833 0.160552
v -0.075350 0.013274 0.166328
v -0.084229 0.027940 0.160649
v -0.076304 0.013308 0.159474
v -0.077258 0.013341 0.152620
v -0.124904 0.014411 0.173229
v -0.125858 0.014444 0.166376
v -0.126812 0.014478 0.159522
v -0.117264 0.028698 0.165250
v -0.116776 -0.000229 0.173524
v -0.108851 -0.014862 0.172349
v -0.101132 -0.029488 0.169706
v -0.092334 -0.015241 0.170049
v -0.083739 -0.000987 0.168922
v -0.091664 0.013646 0.170097
v -0.099793 0.028286 0.169803
v -0.108182 0.014025 0.172398
v -0.111168 -0.014780 0.155704
v -0.119092 -0.000148 0.156878
v -0.103039 -0.029420 0.155998
v -0.094650 -0.015159 0.153403
v -0.086056 -0.000905 0.152277
v -0.093981 0.013727 0.153452
v -0.101700 0.028353 0.156095
v -0.110498 0.014106 0.155752
v -0.112038 -0.500189 0.168915
v -0.096474 -0.500534 0.159761
v -0.112992 -0.500155 0.162062
v -0.113946 -0.500121 0.155208
v -0.129509 -0.499776 0.164362
v -0.088886 0.498987 0.170593
v -0.106358 0.499399 0.166040
v -0.089840 0.499020 0.163740
v -0.090794 0.499054 0.156886
v -0.073323 0.498641 0.161439
v -0.123102 -0.264459 0.171611
v -0.106585 -0.264838 0.169311
v -0.090067 -0.265217 0.167010
v -0.091021 -0.265183 0.160156
v -0.091975 -0.265150 0.153303
v -0.108492 -0.264771 0.155603
v -0.125010 -0.264392 0.157904
v -0.124056 -0.264426 0.164757
v -0.077822 0.263257 0.167898
v -0.094340 0.263636 0.170198
v -0.110857 0.264015 0.172499
v -0.111811 0.264049 0.165645
v -0.112765 0.264082 0.158791
v -0.096247 0.263703 0.156491
v -0.079730 0.263324 0.154190
v -0.078776 0.263291 0.161044
v -0.097825 -0.008920 0.156561
v -0.094903 -0.006239 0.142870
v -0.099641 -0.008856 0.143516
v -0.101456 -0.008792 0.130472
v -0.104378 -0.011473 0.144163
v -0.092962 -0.000854 0.155924
v -0.094651 0.004660 0.142888
v -0.094777 -0.000790 0.142879
v -0.096592 -0.000726 0.129834
v -0.097446 0.007428 0.156588
v -0.103873 0.010324 0.144199
v -0.099262 0.007492 0.143544
v -0.101077 0.007556 0.130499
v -0.106794 0.007642 0.157890
v -0.113346 0.005088 0.145492
v -0.108610 0.007706 0.144846
v -0.110425 0.007770 0.131801
v -0.111657 -0.000425 0.158528
v -0.113599 -0.005810 0.145474
v -0.113473 -0.000361 0.145483
v -0.115288 -0.000297 0.132438
v -0.107173 -0.008705 0.157863
v -0.108988 -0.008641 0.144818
v -0.110804 -0.008577 0.131773
v -0.102436 -0.006088 0.157217
v -0.097699 -0.003471 0.156570
v -0.097573 0.001978 0.156579
v -0.102184 0.004811 0.157235
v -0.106921 0.002193 0.157881
v -0.107047 -0.003257 0.157872
v -0.101330 -0.003343 0.130481
v -0.106067 -0.005960 0.131127
v -0.101203 0.002106 0.130490
v -0.105814 0.004938 0.131145
v -0.110551 0.002321 0.131792
v -0.110677 -0.003129 0.131783
f 1 223 225
f 223 2 224
f 224 3 225
f 223 224 225
f 1 226 228
f 226 4 227
f 227 5 228
f 226 227 228
f 1 228 230
f 228 5 229
f 229 6 230
f 228 229 230
f 1 231 223
f 231 7 232
f 232 2 223
f 231 232 223
f 8 233 235
f 233 9 234
f 234 10 235
f 233 234 235
f 8 235 237
f 235 10 236
f 236 11 237
f 235 236 237
f 11 236 239
f 236 10 238
f 238 12 239
f 236 238 239
f 11 239 241
f 239 12 240
f 240 13 241
f 239 240 241
f 13 240 243
f 240 12 242
f 242 14 243
f 240 242 243
f 13 243 245
f 243 14 244
f 244 15 245
f 243 244 245
f 15 244 247
f 244 14 246
f 246 16 247
f 244 246 247
f 15 247 249
f 247 16 248
f 248 17 249
f 247 248 249
f 17 248 251
f 248 16 250
f 250 18 251
f 248 250 251
f 17 251 253
f 251 18 252
f 252 19 253
f 251 252 253
f 19 252 255
f 252 18 254
f 254 20 255
f 252 254 255
f 19 255 257
f 255 20 256
f 256 21 257
f 255 256 257
f 21 256 259
f 256 20 258
f 258 22 259
f 256 258 259
f 21 259 261
f 259 22 260
f 260 23 261
f 259 260 261
f 23 260 263
f 260 22 262
f 262 9 263
f 260 262 263
f 23 263 264
f 263 9 233
f 233 8 264
f 263 233 264
f 16 265 267
f 265 24 266
f 266 25 267
f 265 266 267
f 16 267 250
f 267 25 268
f 268 18 250
f 267 268 250
f 18 268 270
f 268 25 269
f 269 26 270
f 268 269 270
f 18 270 254
f 270 26 271
f 271 20 254
f 270 271 254
f 20 271 273
f 271 26 272
f 272 27 273
f 271 272 273
f 20 273 258
f 273 27 274
f 274 22 258
f 273 274 258
f 22 274 276
f 274 27 275
f 275 28 276
f 274 275 276
f 22 276 262
f 276 28 277
f 277 9 262
f 276 277 262
f 29 278 279
f 278 27 272
f 272 26 279
f 278 272 279
f 29 279 280
f 279 26 269
f 269 25 280
f 279 269 280
f 29 280 281
f 280 25 266
f 266 24 281
f 280 266 281
f 29 282 278
f 282 28 275
f 275 27 278
f 282 275 278
f 30 283 284
f 283 8 237
f 237 11 284
f 283 237 284
f 11 285 284
f 285 31 286
f 286 30 284
f 285 286 284
f 31 285 287
f 285 11 241
f 241 13 287
f 285 241 287
f 13 288 287
f 288 32 289
f 289 31 287
f 288 289 287
f 32 288 290
f 288 13 245
f 245 15 290
f 288 245 290
f 15 291 290
f 291 33 292
f 292 32 290
f 291 292 290
f 33 291 293
f 291 15 249
f 249 17 293
f 291 249 293
f 17 294 293
f 294 34 295
f 295 33 293
f 294 295 293
f 34 294 296
f 294 17 253
f 253 19 296
f 294 253 296
f 19 297 296
f 297 35 298
f 298 34 296
f 297 298 296
f 35 297 299
f 297 19 257
f 257 21 299
f 297 257 299
f 21 300 299
f 300 36 301
f 301 35 299
f 300 301 299
f 36 300 302
f 300 21 261
f 261 23 302
f 300 261 302
f 23 303 302
f 303 37 304
f 304 36 302
f 303 304 302
f 37 303 305
f 303 23 264
f 264 8 305
f 303 264 305
f 8 283 305
f 283 30 306
f 306 37 305
f 283 306 305
f 2 307 308
f 307 30 286
f 286 31 308
f 307 286 308
f 31 309 308
f 309 3 224
f 224 2 308
f 309 224 308
f 3 309 310
f 309 31 289
f 289 32 310
f 309 289 310
f 32 311 310
f 311 38 312
f 312 3 310
f 311 312 310
f 38 311 313
f 311 32 292
f 292 33 313
f 311 292 313
f 33 314 313
f 314 4 315
f 315 38 313
f 314 315 313
f 4 314 316
f 314 33 295
f 295 34 316
f 314 295 316
f 34 317 316
f 317 5 227
f 227 4 316
f 317 227 316
f 5 317 318
f 317 34 298
f 298 35 318
f 317 298 318
f 35 319 318
f 319 6 229
f 229 5 318
f 319 229 318
f 6 319 320
f 319 35 301
f 301 36 320
f 319 301 320
f 36 321 320
f 321 39 322
f 322 6 320
f 321 322 320
f 39 321 323
f 321 36 304
f 304 37 323
f 321 304 323
f 37 324 323
f 324 7 325
f 325 39 323
f 324 325 323
f 7 324 326
f 324 37 306
f 306 30 326
f 324 306 326
f 30 307 326
f 307 2 232
f 232 7 326
f 307 232 326
f 9 277 328
f 277 28 327
f 327 40 328
f 277 327 328
f 9 328 234
f 328 40 329
f 329 10 234
f 328 329 234
f 10 329 331
f 329 40 330
f 330 41 331
f 329 330 331
f 10 331 238
f 331 41 332
f 332 12 238
f 331 332 238
f 12 332 334
f 332 41 333
f 333 42 334
f 332 333 334
f 12 334 242
f 334 42 335
f 335 14 242
f 334 335 242
f 14 335 337
f 335 42 336
f 336 24 337
f 335 336 337
f 14 337 246
f 337 24 265
f 265 16 246
f 337 265 246
f 29 281 338
f 281 24 336
f 336 42 338
f 281 336 338
f 29 338 339
f 338 42 333
f 333 41 339
f 338 333 339
f 29 339 340
f 339 41 330
f 330 40 340
f 339 330 340
f 29 340 282
f 340 40 327
f 327 28 282
f 340 327 282
f 43 341 343
f 341 44 342
f 342 45 343
f 341 342 343
f 43 343 345
f 343 45 344
f 344 46 345
f 343 344 345
f 47 346 348
f 346 48 347
f 347 49 348
f 346 347 348
f 47 348 350
f 348 49 349
f 349 50 350
f 348 349 350
f 43 351 352
f 351 1 225
f 225 3 352
f 351 225 352
f 3 353 352
f 353 44 341
f 341 43 352
f 353 341 352
f 44 353 354
f 353 3 312
f 312 38 354
f 353 312 354
f 38 355 354
f 355 45 342
f 342 44 354
f 355 342 354
f 45 355 356
f 355 38 315
f 315 4 356
f 355 315 356
f 4 357 356
f 357 46 344
f 344 45 356
f 357 344 356
f 46 357 358
f 357 4 226
f 226 1 358
f 357 226 358
f 1 351 358
f 351 43 345
f 345 46 358
f 351 345 358
f 47 359 360
f 359 1 230
f 230 6 360
f 359 230 360
f 6 361 360
f 361 48 346
f 346 47 360
f 361 346 360
f 48 361 362
f 361 6 322
f 322 39 362
f 361 322 362
f 39 363 362
f 363 49 347
f 347 48 362
f 363 347 362
f 49 363 364
f 363 39 325
f 325 7 364
f 363 325 364
f 7 365 364
f 365 50 349
f 349 49 364
f 365 349 364
f 50 365 366
f 365 7 231
f 231 1 366
f 365 231 366
f 1 359 366
f 359 47 350
f 350 50 366
f 359 350 366
f 51 367 369
f 367 52 368
f 368 53 369
f 367 368 369
f 51 369 371
f 369 53 370
f 370 54 371
f 369 370 371
f 52 372 374
f 372 55 373
f 373 56 374
f 372 373 374
f 52 374 368
f 374 56 375
f 375 53 368
f 374 375 368
f 55 376 378
f 376 57 377
f 377 58 378
f 376 377 378
f 55 378 373
f 378 58 379
f 379 56 373
f 378 379 373
f 57 380 382
f 380 59 381
f 381 60 382
f 380 381 382
f 57 382 377
f 382 60 383
f 383 58 377
f 382 383 377
f 59 384 386
f 384 61 385
f 385 62 386
f 384 385 386
f 59 386 381
f 386 62 387
f 387 60 381
f 386 387 381
f 61 388 389
f 388 51 371
f 371 54 389
f 388 371 389
f 61 389 385
f 389 54 390
f 390 62 385
f 389 390 385
f 54 370 392
f 370 53 391
f 391 63 392
f 370 391 392
f 54 392 394
f 392 63 393
f 393 64 394
f 392 393 394
f 53 375 396
f 375 56 395
f 395 65 396
f 375 395 396
f 53 396 391
f 396 65 397
f 397 63 391
f 396 397 391
f 56 379 399
f 379 58 398
f 398 66 399
f 379 398 399
f 56 399 395
f 399 66 400
f 400 65 395
f 399 400 395
f 58 383 402
f 383 60 401
f 401 67 402
f 383 401 402
f 58 402 398
f 402 67 403
f 403 66 398
f 402 403 398
f 60 387 405
f 387 62 404
f 404 68 405
f 387 404 405
f 60 405 401
f 405 68 406
f 406 67 401
f 405 406 401
f 62 390 407
f 390 54 394
f 394 64 407
f 390 394 407
f 62 407 404
f 407 64 408
f 408 68 404
f 407 408 404
f 69 409 411
f 409 70 410
f 410 71 411
f 409 410 411
f 69 411 413
f 411 71 412
f 412 72 413
f 411 412 413
f 70 414 416
f 414 73 415
f 415 74 416
f 414 415 416
f 70 416 410
f 416 74 417
f 417 71 410
f 416 417 410
f 73 418 420
f 418 75 419
f 419 76 420
f 418 419 420
f 73 420 415
f 420 76 421
f 421 74 415
f 420 421 415
f 75 422 424
f 422 77 423
f 423 78 424
f 422 423 424
f 75 424 419
f 424 78 425
f 425 76 419
f 424 425 419
f 77 426 428
f 426 79 427
f 427 80 428
f 426 427 428
f 77 428 423
f 428 80 429
f 429 78 423
f 428 429 423
f 79 430 431
f 430 69 413
f 413 72 431
f 430 413 431
f 79 431 427
f 431 72 432
f 432 80 427
f 431 432 427
f 72 412 434
f 412 71 433
f 433 81 434
f 412 433 434
f 72 434 436
f 434 81 435
f 435 82 436
f 434 435 436
f 71 417 438
f 417 74 437
f 437 83 438
f 417 437 438
f 71 438 433
f 438 83 439
f 439 81 433
f 438 439 433
f 74 421 441
f 421 76 440
f 440 84 441
f 421 440 441
f 74 441 437
f 441 84 442
f 442 83 437
f 441 442 437
f 76 425 444
f 425 78 443
f 443 85 444
f 425 443 444
f 76 444 440
f 444 85 445
f 445 84 440
f 444 445 440
f 78 429 447
f 429 80 446
f 446 86 447
f 429 446 447
f 78 447 443
f 447 86 448
f 448 85 443
f 447 448 443
f 80 432 449
f 432 72 436
f 436 82 449
f 432 436 449
f 80 449 446
f 449 82 450
f 450 86 446
f 449 450 446
f 87 451 453
f 451 88 452
f 452 89 453
f 451 452 453
f 87 453 455
f 453 89 454
f 454 90 455
f 453 454 455
f 88 456 458
f 456 91 457
f 457 92 458
f 456 457 458
f 88 458 452
f 458 92 459
f 459 89 452
f 458 459 452
f 91 460 462
f 460 93 461
f 461 94 462
f 460 461 462
f 91 462 457
f 462 94 463
f 463 92 457
f 462 463 457
f 93 464 466
f 464 95 465
f 465 96 466
f 464 465 466
f 93 466 461
f 466 96 467
f 467 94 461
f 466 467 461
f 95 468 470
f 468 97 469
f 469 98 470
f 468 469 470
f 95 470 465
f 470 98 471
f 471 96 465
f 470 471 465
f 97 472 473
f 472 87 455
f 455 90 473
f 472 455 473
f 97 473 469
f 473 90 474
f 474 98 469
f 473 474 469
f 90 454 476
f 454 89 475
f 475 99 476
f 454 475 476
f 90 476 478
f 476 99 477
f 477 100 478
f 476 477 478
f 89 459 480
f 459 92 479
f 479 101 480
f 459 479 480
f 89 480 475
f 480 101 481
f 481 99 475
f 480 481 475
f 92 463 483
f 463 94 482
f 482 102 483
f 463 482 483
f 92 483 479
f 483 102 484
f 484 101 479
f 483 484 479
f 94 467 486
f 467 96 485
f 485 103 486
f 467 485 486
f 94 486 482
f 486 103 487
f 487 102 482
f 486 487 482
f 96 471 489
f 471 98 488
f 488 104 489
f 471 488 489
f 96 489 485
f 489 104 490
f 490 103 485
f 489 490 485
f 98 474 491
f 474 90 478
f 478 100 491
f 474 478 491
f 98 491 488
f 491 100 492
f 492 104 488
f 491 492 488
f 105 493 495
f 493 106 494
f 494 107 495
f 493 494 495
f 105 495 497
f 495 107 496
f 496 108 497
f 495 496 497
f 106 498 500
f 498 109 499
f 499 110 500
f 498 499 500
f 106 500 494
f 500 110 501
f 501 107 494
f 500 501 494
f 109 502 504
f 502 111 503
f 503 112 504
f 502 503 504
f 109 504 499
f 504 112 505
f 505 110 499
f 504 505 499
f 111 506 508
f 506 113 507
f 507 114 508
f 506 507 508
f 111 508 503
f 508 114 509
f 509 112 503
f 508 509 503
f 113 510 512
f 510 115 511
f 511 116 512
f 510 511 512
f 113 512 507
f 512 116 513
f 513 114 507
f 512 513 507
f 115 514 515
f 514 105 497
f 497 108 515
f 514 497 515
f 115 515 511
f 515 108 516
f 516 116 511
f 515 516 511
f 108 496 518
f 496 107 517
f 517 117 518
f 496 517 518
f 108 518 520
f 518 117 519
f 519 118 520
f 518 519 520
f 107 501 522
f 501 110 521
f 521 119 522
f 501 521 522
f 107 522 517
f 522 119 523
f 523 117 517
f 522 523 517
f 110 505 525
f 505 112 524
f 524 120 525
f 505 524 525
f 110 525 521
f 525 120 526
f 526 119 521
f 525 526 521
f 112 509 528
f 509 114 527
f 527 121 528
f 509 527 528
f 112 528 524
f 528 121 529
f 529 120 524
f 528 529 524
f 114 513 531
f 513 116 530
f 530 122 531
f 513 530 531
f 114 531 527
f 531 122 532
f 532 121 527
f 531 532 527
f 116 516 533
f 516 108 520
f 520 118 533
f 516 520 533
f 116 533 530
f 533 118 534
f 534 122 530
f 533 534 530
f 123 535 537
f 535 124 536
f 536 125 537
f 535 536 537
f 123 537 539
f 537 125 538
f 538 126 539
f 537 538 539
f 124 540 542
f 540 127 541
f 541 128 542
f 540 541 542
f 124 542 536
f 542 128 543
f 543 125 536
f 542 543 536
f 127 544 546
f 544 129 545
f 545 130 546
f 544 545 546
f 127 546 541
f 546 130 547
f 547 128 541
f 546 547 541
f 129 548 550
f 548 131 549
f 549 132 550
f 548 549 550
f 129 550 545
f 550 132 551
f 551 130 545
f 550 551 545
f 131 552 554
f 552 133 553
f 553 134 554
f 552 553 554
f 131 554 549
f 554 134 555
f 555 132 549
f 554 555 549
f 133 556 557
f 556 123 539
f 539 126 557
f 556 539 557
f 133 557 553
f 557 126 558
f 558 134 553
f 557 558 553
f 124 535 560
f 535 123 559
f 559 135 560
f 535 559 560
f 127 540 561
f 540 124 560
f 560 135 561
f 540 560 561
f 129 544 562
f 544 127 561
f 561 135 562
f 544 561 562
f 131 548 563
f 548 129 562
f 562 135 563
f 548 562 563
f 133 552 564
f 552 131 563
f 563 135 564
f 552 563 564
f 123 556 559
f 556 133 564
f 564 135 559
f 556 564 559
f 126 538 566
f 538 125 565
f 565 136 566
f 538 565 566
f 125 543 565
f 543 128 567
f 567 136 565
f 543 567 565
f 128 547 567
f 547 130 568
f 568 136 567
f 547 568 567
f 130 551 568
f 551 132 569
f 569 136 568
f 551 569 568
f 132 555 569
f 555 134 570
f 570 136 569
f 555 570 569
f 134 558 570
f 558 126 566
f 566 136 570
f 558 566 570
f 137 571 573
f 571 138 572
f 572 139 573
f 571 572 573
f 137 573 575
f 573 139 574
f 574 140 575
f 573 574 575
f 138 576 578
f 576 141 577
f 577 142 578
f 576 577 578
f 138 578 572
f 578 142 579
f 579 139 572
f 578 579 572
f 141 580 582
f 580 143 581
f 581 144 582
f 580 581 582
f 141 582 577
f 582 144 583
f 583 142 577
f 582 583 577
f 143 584 586
f 584 145 585
f 585 146 586
f 584 585 586
f 143 586 581
f 586 146 587
f 587 144 581
f 586 587 581
f 145 588 590
f 588 147 589
f 589 148 590
f 588 589 590
f 145 590 585
f 590 148 591
f 591 146 585
f 590 591 585
f 147 592 593
f 592 137 575
f 575 140 593
f 592 575 593
f 147 593 589
f 593 140 594
f 594 148 589
f 593 594 589
f 138 571 596
f 571 137 595
f 595 149 596
f 571 595 596
f 141 576 597
f 576 138 596
f 596 149 597
f 576 596 597
f 143 580 598
f 580 141 597
f 597 149 598
f 580 597 598
f 145 584 599
f 584 143 598
f 598 149 599
f 584 598 599
f 147 588 600
f 588 145 599
f 599 149 600
f 588 599 600
f 137 592 595
f 592 147 600
f 600 149 595
f 592 600 595
f 140 574 602
f 574 139 601
f 601 150 602
f 574 601 602
f 139 579 601
f 579 142 603
f 603 150 601
f 579 603 601
f 142 583 603
f 583 144 604
f 604 150 603
f 583 604 603
f 144 587 604
f 587 146 605
f 605 150 604
f 587 605 604
f 146 591 605
f 591 148 606
f 606 150 605
f 591 606 605
f 148 594 606
f 594 140 602
f 602 150 606
f 594 602 606
f 151 607 609
f 607 152 608
f 608 153 609
f 607 608 609
f 151 609 611
f 609 153 610
f 610 154 611
f 609 610 611
f 155 612 614
f 612 156 613
f 613 157 614
f 612 613 614
f 155 614 616
f 614 157 615
f 615 158 616
f 614 615 616
f 156 617 619
f 617 159 618
f 618 160 619
f 617 618 619
f 156 619 613
f 619 160 620
f 620 157 613
f 619 620 613
f 161 621 622
f 621 151 611
f 611 154 622
f 621 611 622
f 161 622 624
f 622 154 623
f 623 162 624
f 622 623 624
f 152 607 626
f 607 151 625
f 625 163 626
f 607 625 626
f 155 627 628
f 627 152 626
f 626 163 628
f 627 626 628
f 156 612 629
f 612 155 628
f 628 163 629
f 612 628 629
f 159 617 630
f 617 156 629
f 629 163 630
f 617 629 630
f 161 631 632
f 631 159 630
f 630 163 632
f 631 630 632
f 151 621 625
f 621 161 632
f 632 163 625
f 621 632 625
f 154 610 634
f 610 153 633
f 633 164 634
f 610 633 634
f 153 635 633
f 635 158 636
f 636 164 633
f 635 636 633
f 158 615 636
f 615 157 637
f 637 164 636
f 615 637 636
f 157 620 637
f 620 160 638
f 638 164 637
f 620 638 637
f 160 639 638
f 639 162 640
f 640 164 638
f 639 640 638
f 162 623 640
f 623 154 634
f 634 164 640
f 623 634 640
f 165 641 643
f 641 166 642
f 642 167 643
f 641 642 643
f 165 643 645
f 643 167 644
f 644 168 645
f 643 644 645
f 169 646 648
f 646 170 647
f 647 171 648
f 646 647 648
f 169 648 650
f 648 171 649
f 649 172 650
f 648 649 650
f 165 651 652
f 651 152 627
f 627 155 652
f 651 627 652
f 155 653 652
f 653 166 641
f 641 165 652
f 653 641 652
f 166 653 654
f 653 155 616
f 616 158 654
f 653 616 654
f 158 655 654
f 655 167 642
f 642 166 654
f 655 642 654
f 167 655 656
f 655 158 635
f 635 153 656
f 655 635 656
f 153 657 656
f 657 168 644
f 644 167 656
f 657 644 656
f 168 657 658
f 657 153 608
f 608 152 658
f 657 608 658
f 152 651 658
f 651 165 645
f 645 168 658
f 651 645 658
f 169 659 660
f 659 159 631
f 631 161 660
f 659 631 660
f 161 661 660
f 661 170 646
f 646 169 660
f 661 646 660
f 170 661 662
f 661 161 624
f 624 162 662
f 661 624 662
f 162 663 662
f 663 171 647
f 647 170 662
f 663 647 662
f 171 663 664
f 663 162 639
f 639 160 664
f 663 639 664
f 160 665 664
f 665 172 649
f 649 171 664
f 665 649 664
f 172 665 666
f 665 160 618
f 618 159 666
f 665 618 666
f 159 659 666
f 659 169 650
f 650 172 666
f 659 650 666
f 173 667 669
f 667 174 668
f 668 175 669
f 667 668 669
f 173 669 671
f 669 175 670
f 670 176 671
f 669 670 671
f 174 672 674
f 672 177 673
f 673 178 674
f 672 673 674
f 174 674 668
f 674 178 675
f 675 175 668
f 674 675 668
f 177 676 678
f 676 179 677
f 677 180 678
f 676 677 678
f 177 678 673
f 678 180 679
f 679 178 673
f 678 679 673
f 179 680 682
f 680 181 681
f 681 182 682
f 680 681 682
f 179 682 677
f 682 182 683
f 683 180 677
f 682 683 677
f 181 684 686
f 684 183 685
f 685 184 686
f 684 685 686
f 181 686 681
f 686 184 687
f 687 182 681
f 686 687 681
f 183 688 689
f 688 173 671
f 671 176 689
f 688 671 689
f 183 689 685
f 689 176 690
f 690 184 685
f 689 690 685
f 174 667 692
f 667 173 691
f 691 185 692
f 667 691 692
f 177 672 693
f 672 174 692
f 692 185 693
f 672 692 693
f 179 676 694
f 676 177 693
f 693 185 694
f 676 693 694
f 181 680 695
f 680 179 694
f 694 185 695
f 680 694 695
f 183 684 696
f 684 181 695
f 695 185 696
f 684 695 696
f 173 688 691
f 688 183 696
f 696 185 691
f 688 696 691
f 176 670 698
f 670 175 697
f 697 186 698
f 670 697 698
f 175 675 697
f 675 178 699
f 699 186 697
f 675 699 697
f 178 679 699
f 679 180 700
f 700 186 699
f 679 700 699
f 180 683 700
f 683 182 701
f 701 186 700
f 683 701 700
f 182 687 701
f 687 184 702
f 702 186 701
f 687 702 701
f 184 690 702
f 690 176 698
f 698 186 702
f 690 698 702
f 187 703 705
f 703 188 704
f 704 189 705
f 703 704 705
f 187 705 707
f 705 189 706
f 706 190 707
f 705 706 707
f 191 708 710
f 708 192 709
f 709 193 710
f 708 709 710
f 191 710 712
f 710 193 711
f 711 194 712
f 710 711 712
f 192 713 715
f 713 195 714
f 714 196 715
f 713 714 715
f 192 715 709
f 715 196 716
f 716 193 709
f 715 716 709
f 197 717 718
f 717 187 707
f 707 190 718
f 717 707 718
f 197 718 720
f 718 190 719
f 719 198 720
f 718 719 720
f 188 703 722
f 703 187 721
f 721 199 722
f 703 721 722
f 191 723 724
f 723 188 722
f 722 199 724
f 723 722 724
f 192 708 725
f 708 191 724
f 724 199 725
f 708 724 725
f 195 713 726
f 713 192 725
f 725 199 726
f 713 725 726
f 197 727 728
f 727 195 726
f 726 199 728
f 727 726 728
f 187 717 721
f 717 197 728
f 728 199 721
f 717 728 721
f 190 706 730
f 706 189 729
f 729 200 730
f 706 729 730
f 189 731 729
f 731 194 732
f 732 200 729
f 731 732 729
f 194 711 732
f 711 193 733
f 733 200 732
f 711 733 732
f 193 716 733
f 716 196 734
f 734 200 733
f 716 734 733
f 196 735 734
f 735 198 736
f 736 200 734
f 735 736 734
f 198 719 736
f 719 190 730
f 730 200 736
f 719 730 736
f 201 737 739
f 737 202 738
f 738 203 739
f 737 738 739
f 201 739 741
f 739 203 740
f 740 204 741
f 739 740 741
f 205 742 744
f 742 206 743
f 743 207 744
f 742 743 744
f 205 744 746
f 744 207 745
f 745 208 746
f 744 745 746
f 201 747 748
f 747 188 723
f 723 191 748
f 747 723 748
f 191 749 748
f 749 202 737
f 737 201 748
f 749 737 748
f 202 749 750
f 749 191 712
f 712 194 750
f 749 712 750
f 194 751 750
f 751 203 738
f 738 202 750
f 751 738 750
f 203 751 752
f 751 194 731
f 731 189 752
f 751 731 752
f 189 753 752
f 753 204 740
f 740 203 752
f 753 740 752
f 204 753 754
f 753 189 704
f 704 188 754
f 753 704 754
f 188 747 754
f 747 201 741
f 741 204 754
f 747 741 754
f 205 755 756
f 755 195 727
f 727 197 756
f 755 727 756
f 197 757 756
f 757 206 742
f 742 205 756
f 757 742 756
f 206 757 758
f 757 197 720
f 720 198 758
f 757 720 758
f 198 759 758
f 759 207 743
f 743 206 758
f 759 743 758
f 207 759 760
f 759 198 735
f 735 196 760
f 759 735 760
f 196 761 760
f 761 208 745
f 745 207 760
f 761 745 760
f 208 761 762
f 761 196 714
f 714 195 762
f 761 714 762
f 195 755 762
f 755 205 746
f 746 208 762
f 755 746 762
f 209 763 765
f 763 210 764
f 764 211 765
f 763 764 765
f 209 765 767
f 765 211 766
f 766 212 767
f 765 766 767
f 210 768 770
f 768 213 769
f 769 214 770
f 768 769 770
f 210 770 764
f 770 214 771
f 771 211 764
f 770 771 764
f 213 772 774
f 772 215 773
f 773 216 774
f 772 773 774
f 213 774 769
f 774 216 775
f 775 214 769
f 774 775 769
f 215 776 778
f 776 217 777
f 777 218 778
f 776 777 778
f 215 778 773
f 778 218 779
f 779 216 773
f 778 779 773
f 217 780 782
f 780 219 781
f 781 220 782
f 780 781 782
f 217 782 777
f 782 220 783
f 783 218 777
f 782 783 777
f 219 784 785
f 784 209 767
f 767 212 785
f 784 767 785
f 219 785 781
f 785 212 786
f 786 220 781
f 785 786 781
f 210 763 788
f 763 209 787
f 787 221 788
f 763 787 788
f 213 768 789
f 768 210 788
f 788 221 789
f 768 788 789
f 215 772 790
f 772 213 789
f 789 221 790
f 772 789 790
f 217 776 791
f 776 215 790
f 790 221 791
f 776 790 791
f 219 780 792
f 780 217 791
f 791 221 792
f 780 791 792
f 209 784 787
f 784 219 792
f 792 221 787
f 784 792 787
f 212 766 794
f 766 211 793
f 793 222 794
f 766 793 794
f 211 771 793
f 771 214 795
f 795 222 793
f 771 795 793
f 214 775 795
f 775 216 796
f 796 222 795
f 775 796 795
f 216 779 796
f 779 218 797
f 797 222 796
f 779 797 796
f 218 783 797
f 783 220 798
f 798 222 797
f 783 798 797
f 220 786 798
f 786 212 794
f 794 222 798
f 786 794 798
