# Original shape: m1310.obj
# No processing applied - exact copy of source file
# Generated on 2025-10-13 14:23:30

v 0.410056 0.069746 0.926683
v 0.410057 0.069746 0.893144
v 0.410375 0.069194 0.893144
v 0.410375 0.070298 0.926683
v 0.410375 0.070298 0.893144
v 0.411012 0.069194 0.926683
v 0.411013 0.069194 0.893144
v 0.411331 0.069746 0.893144
v 0.410375 0.069194 0.926683
v 0.411012 0.070298 0.926683
v 0.411013 0.070298 0.893144
v 0.411330 0.069746 0.926683
v 0.408119 0.069746 0.926683
v 0.408120 0.069746 0.893144
v 0.408438 0.069194 0.893144
v 0.408437 0.070298 0.926683
v 0.408438 0.070298 0.893144
v 0.409075 0.069194 0.926683
v 0.409076 0.069194 0.893144
v 0.409394 0.069746 0.893144
v 0.408437 0.069194 0.926683
v 0.409075 0.070298 0.926683
v 0.409076 0.070298 0.893144
v 0.409393 0.069746 0.926683
v 0.411525 0.068883 0.899216
v 0.411525 0.068883 0.881465
v 0.412271 0.070682 0.881466
v 0.409725 0.073228 0.899216
v 0.409726 0.073228 0.881465
v 0.407926 0.072482 0.881465
v 0.411525 0.072482 0.899216
v 0.411525 0.072482 0.881465
v 0.407926 0.072482 0.899216
v 0.407181 0.070682 0.881465
v 0.407180 0.070682 0.899216
v 0.407926 0.068883 0.881465
v 0.409725 0.068137 0.899216
v 0.409726 0.068137 0.881465
v 0.407926 0.068883 0.899216
v 0.412270 0.070682 0.899216
v 0.361627 0.058801 0.742767
v 0.362368 0.057518 0.742767
v 0.362364 0.057518 0.864286
v 0.361795 0.056533 0.901203
v 0.360485 0.058801 0.901203
v 0.361624 0.058801 0.864286
v 0.364414 0.061069 0.901203
v 0.361795 0.061069 0.901203
v 0.363849 0.057518 0.742767
v 0.362364 0.060084 0.864286
v 0.362368 0.060084 0.742767
v 0.364590 0.058801 0.742767
v 0.364587 0.058801 0.864286
v 0.365723 0.058801 0.901204
v 0.364414 0.056533 0.901203
v 0.363846 0.057518 0.864286
v 0.363849 0.060084 0.742767
v 0.363846 0.060084 0.864286
v 0.364414 0.063248 0.901203
v 0.361795 0.063248 0.901203
v 0.362364 0.064233 0.864286
v 0.362368 0.064233 0.742767
v 0.363849 0.064233 0.742767
v 0.363846 0.064233 0.864286
v 0.364414 0.067785 0.901203
v 0.365723 0.065517 0.901204
v 0.364587 0.065517 0.864286
v 0.364590 0.065517 0.742767
v 0.363849 0.066800 0.742767
v 0.363846 0.066800 0.864286
v 0.362368 0.066800 0.742767
v 0.362364 0.066800 0.864286
v 0.361795 0.067785 0.901203
v 0.360485 0.065517 0.901203
v 0.361627 0.065517 0.742767
v 0.361624 0.065517 0.864286
v 0.403982 0.064798 0.873636
v 0.403983 0.064798 0.836547
v 0.403983 0.056278 0.841839
v 0.403983 0.053160 0.853477
v 0.403982 0.056278 0.865116
v 0.403982 0.070744 0.883457
v 0.403982 0.074624 0.882560
v 0.403982 0.076437 0.876755
v 0.415728 0.076437 0.876755
v 0.403983 0.076437 0.833429
v 0.415729 0.076437 0.833429
v 0.415729 0.064798 0.836548
v 0.415728 0.070744 0.883458
v 0.415728 0.074624 0.882560
v 0.415729 0.056278 0.841839
v 0.415729 0.053160 0.853478
v 0.415728 0.056278 0.865116
v 0.415728 0.064798 0.873636
v 0.409393 0.071716 0.926683
v 0.409394 0.071716 0.893144
v 0.409076 0.072267 0.893144
v 0.409075 0.072267 0.926683
v 0.408438 0.072267 0.893144
v 0.410375 0.071164 0.926683
v 0.410375 0.071164 0.893144
v 0.411013 0.071164 0.893144
v 0.411012 0.071164 0.926683
v 0.411331 0.071716 0.893144
v 0.410375 0.072267 0.926683
v 0.410375 0.072267 0.893144
v 0.410057 0.071716 0.893144
v 0.410056 0.071716 0.926683
v 0.408437 0.072267 0.926683
v 0.408119 0.071716 0.926683
v 0.409076 0.071164 0.893144
v 0.408438 0.071164 0.893144
v 0.408120 0.071716 0.893144
v 0.408437 0.071164 0.926683
v 0.409075 0.071164 0.926683
v 0.411330 0.071716 0.926683
v 0.411013 0.072267 0.893144
v 0.411012 0.072267 0.926683
v 0.401721 0.031945 0.809036
v 0.404785 0.031945 0.811352
v 0.403253 0.029291 0.811352
v 0.394934 0.031945 0.846007
v 0.394934 0.031945 0.821779
v 0.398327 0.026068 0.821779
v 0.401720 0.031945 0.851002
v 0.398327 0.026068 0.846008
v 0.405113 0.026068 0.846008
v 0.401720 0.047927 0.833893
v 0.398327 0.047927 0.821779
v 0.398327 0.037822 0.821779
v 0.400189 0.029291 0.811352
v 0.405114 0.026068 0.821779
v 0.408507 0.031945 0.821779
v 0.405114 0.047927 0.821779
v 0.401720 0.037822 0.833893
v 0.403253 0.034598 0.811352
v 0.401721 0.034598 0.811352
v 0.405114 0.037822 0.821779
v 0.408506 0.031945 0.846008
v 0.401721 0.047926 0.811352
v 0.405113 0.037822 0.846008
v 0.398656 0.031945 0.811352
v 0.400189 0.034598 0.811352
v 0.398327 0.037822 0.846008
v 0.426590 0.077011 0.876086
v 0.426590 0.077011 0.844042
v 0.415981 0.077011 0.838177
v 0.386996 0.077011 0.854199
v 0.386996 0.077011 0.865928
v 0.393121 0.077011 0.876086
v 0.415980 0.077011 0.881951
v 0.403731 0.077011 0.838177
v 0.432715 0.077011 0.865929
v 0.432715 0.077011 0.854200
v 0.393122 0.077011 0.844041
v 0.403730 0.077011 0.881950
v 0.432715 0.074045 0.854986
v 0.432715 0.074045 0.865143
v 0.432715 0.071874 0.862997
v 0.432715 0.071080 0.860064
v 0.432715 0.071874 0.857132
v 0.393121 0.062978 0.868075
v 0.403730 0.057842 0.871007
v 0.403730 0.065943 0.879018
v 0.386996 0.071874 0.857131
v 0.393122 0.062978 0.852052
v 0.393121 0.060807 0.860063
v 0.415981 0.065943 0.841110
v 0.386996 0.071080 0.860063
v 0.426590 0.068909 0.846189
v 0.426590 0.062978 0.852053
v 0.426590 0.060807 0.860064
v 0.426590 0.062978 0.868075
v 0.415981 0.057842 0.849121
v 0.415981 0.054876 0.860064
v 0.415981 0.057842 0.871007
v 0.393122 0.068909 0.846188
v 0.403730 0.054876 0.860064
v 0.415980 0.065943 0.879018
v 0.426590 0.068909 0.873940
v 0.415980 0.075721 0.881609
v 0.386996 0.074045 0.854984
v 0.403731 0.065943 0.841109
v 0.403731 0.057842 0.849120
v 0.386996 0.071874 0.862996
v 0.393121 0.068909 0.873939
v 0.403730 0.075721 0.881609
v 0.386996 0.074045 0.865142
v 0.446938 0.292409 0.180492
v 0.446204 0.293769 0.179043
v 0.445868 0.232722 0.122773
v 0.445869 0.224098 0.112333
v 0.448010 0.224098 0.112333
v 0.448010 0.220797 0.118051
v 0.447671 0.293769 0.179043
v 0.445868 0.230257 0.118051
v 0.448010 0.230257 0.118051
v 0.448010 0.226955 0.112333
v 0.445869 0.224098 0.107836
v 0.448010 0.224098 0.107836
v 0.445869 0.226955 0.112333
v 0.448010 0.226955 0.107836
v 0.445868 0.218332 0.122773
v 0.448010 0.218332 0.122773
v 0.448010 0.222226 0.120525
v 0.446939 0.231609 0.125709
v 0.448010 0.232722 0.122773
v 0.447672 0.137644 0.145023
v 0.446939 0.137070 0.143121
v 0.446939 0.214916 0.117868
v 0.447671 0.295074 0.177654
v 0.446204 0.295074 0.177654
v 0.446940 0.230054 0.107332
v 0.445869 0.226955 0.107836
v 0.446938 0.299270 0.173183
v 0.446942 0.247106 0.027288
v 0.446208 0.245171 0.026835
v 0.445868 0.228828 0.120525
v 0.445868 0.222226 0.120525
v 0.448010 0.228828 0.120525
v 0.445868 0.234150 0.120298
v 0.446205 0.137644 0.145023
v 0.445868 0.216903 0.120298
v 0.445868 0.220797 0.118051
v 0.448010 0.216903 0.120298
v 0.446939 0.242102 0.115484
v 0.448010 0.234150 0.120298
v 0.447675 0.245171 0.026835
v 0.446939 0.218523 0.132067
v 0.446940 0.215954 0.103356
v 0.447675 0.243317 0.026400
v 0.446942 0.237347 0.025000
v 0.446208 0.243317 0.026400
v 0.446205 0.138195 0.146847
v 0.446938 0.139967 0.152716
v 0.447672 0.138195 0.146847
v 0.377005 0.044699 0.845100
v 0.385590 0.044699 0.837752
v 0.394174 0.044699 0.845100
v 0.394175 0.044699 0.829736
v 0.377005 0.044699 0.829735
v 0.388451 0.049512 0.850444
v 0.382728 0.049512 0.850444
v 0.394177 0.029291 0.786811
v 0.388453 0.025000 0.786811
v 0.388453 0.030344 0.776122
v 0.394174 0.076831 0.845100
v 0.388451 0.076831 0.850444
v 0.403146 0.076831 0.778775
v 0.398661 0.076831 0.783338
v 0.394177 0.044699 0.784781
v 0.382728 0.076831 0.850444
v 0.382729 0.025000 0.786811
v 0.382730 0.030344 0.776123
v 0.382730 0.038708 0.773444
v 0.389322 0.038707 0.773444
v 0.394175 0.076831 0.801119
v 0.377005 0.029291 0.829735
v 0.382728 0.025000 0.829735
v 0.382728 0.029290 0.835079
v 0.394175 0.029291 0.829736
v 0.388451 0.029290 0.835080
v 0.388451 0.025000 0.829736
v 0.377005 0.076831 0.845100
v 0.377005 0.052716 0.845100
v 0.373825 0.076831 0.829735
v 0.373139 0.076831 0.815427
v 0.373139 0.052716 0.815427
v 0.373826 0.076831 0.801119
v 0.373826 0.052716 0.801119
v 0.380194 0.029291 0.786811
v 0.380194 0.044699 0.783606
v 0.380194 0.076831 0.778775
v 0.380194 0.052716 0.781104
v 0.377006 0.052716 0.801119
v 0.385520 0.076831 0.764636
v 0.384450 0.052716 0.770860
v 0.383302 0.044699 0.773165
v 0.377005 0.052716 0.829735
v 0.377006 0.029291 0.801119
v 0.377006 0.044699 0.801119
v 0.373825 0.052716 0.829735
v 0.385590 0.031913 0.837752
v 0.394175 0.029291 0.801119
v 0.394175 0.044699 0.801119
v 0.394175 0.076831 0.829736
v 0.392201 0.052716 0.770860
v 0.390280 0.044699 0.773165
v 0.393990 0.076831 0.764636
v 0.388452 0.025000 0.801119
v 0.382729 0.025000 0.801119
v 0.397754 0.044699 0.783606
v 0.342828 0.220753 0.634534
v 0.345983 0.216144 0.621965
v 0.361025 0.216144 0.625740
v 0.385732 0.224100 0.631780
v 0.385732 0.217407 0.631780
v 0.393235 0.214437 0.640251
v 0.428678 0.217407 0.624972
v 0.430891 0.217407 0.631781
v 0.423388 0.214437 0.640252
v 0.423388 0.230882 0.640252
v 0.408311 0.230882 0.651205
v 0.408311 0.224128 0.651205
v 0.366236 0.220753 0.611729
v 0.364407 0.225363 0.615333
v 0.364407 0.216144 0.615333
v 0.456237 0.220753 0.629733
v 0.455598 0.225363 0.625743
v 0.455598 0.216144 0.625743
v 0.360382 0.220753 0.629771
v 0.361025 0.225363 0.625740
v 0.461770 0.220753 0.597525
v 0.450368 0.220753 0.611696
v 0.452217 0.225363 0.615335
v 0.393235 0.230882 0.640251
v 0.398994 0.230882 0.622528
v 0.398994 0.224128 0.622528
v 0.387945 0.217407 0.624971
v 0.387945 0.224100 0.624971
v 0.388855 0.220753 0.572821
v 0.402841 0.216144 0.587411
v 0.398809 0.220753 0.588045
v 0.400773 0.173003 0.637802
v 0.408311 0.173003 0.643279
v 0.408311 0.214437 0.643279
v 0.393235 0.224128 0.640251
v 0.411892 0.217407 0.612775
v 0.411892 0.224100 0.612775
v 0.417630 0.224128 0.622528
v 0.450866 0.225363 0.682821
v 0.443806 0.220753 0.668042
v 0.440916 0.225363 0.670924
v 0.402841 0.225363 0.587411
v 0.415850 0.173003 0.637803
v 0.412971 0.173003 0.628941
v 0.412971 0.214437 0.628941
v 0.372843 0.220753 0.668069
v 0.375705 0.225363 0.670922
v 0.375705 0.216144 0.670922
v 0.417630 0.230882 0.622528
v 0.423388 0.224128 0.640252
v 0.404732 0.217407 0.612775
v 0.417630 0.214437 0.622528
v 0.424478 0.224100 0.651515
v 0.424478 0.217407 0.651515
v 0.397936 0.224100 0.655723
v 0.397936 0.217407 0.655723
v 0.408311 0.214437 0.651205
v 0.388192 0.220753 0.679212
v 0.384558 0.216144 0.677355
v 0.384558 0.225363 0.677355
v 0.404732 0.224100 0.612775
v 0.398994 0.214437 0.622528
v 0.418686 0.217407 0.655723
v 0.392144 0.217407 0.651514
v 0.417777 0.220753 0.588037
v 0.413784 0.225363 0.587411
v 0.413784 0.216144 0.587411
v 0.452217 0.216144 0.615335
v 0.403653 0.173003 0.628940
v 0.400773 0.214437 0.637802
v 0.387298 0.220753 0.697379
v 0.418686 0.224100 0.655723
v 0.392144 0.224100 0.651514
v 0.440916 0.216144 0.670924
v 0.460807 0.220753 0.674507
v 0.430891 0.224100 0.631781
v 0.025000 0.220753 0.554758
v 0.028155 0.216144 0.542188
v 0.415850 0.214437 0.637803
v 0.428465 0.220753 0.679196
v 0.432063 0.225363 0.677356
v 0.432063 0.216144 0.677356
v 0.428678 0.224100 0.624972
v 0.403653 0.214437 0.628940
v 0.372920 0.216144 0.629606
v 0.372920 0.225363 0.629606
v 0.661094 0.225363 0.934183
v 0.671035 0.220753 0.925870
v 0.366513 0.220753 0.245896
v 0.379441 0.225363 0.245013
v 0.379441 0.216144 0.245013
v 0.385869 0.225363 0.244573
v 0.385869 0.216144 0.244573
v 0.389853 0.220753 0.244301
v 0.653089 0.220753 0.940879
v 0.656153 0.216144 0.938316
v 0.656153 0.225363 0.938316
v 0.661094 0.216144 0.934183
v 0.401784 0.216144 0.571938
v 0.408211 0.216144 0.571499
v 0.413784 0.216144 0.599918
v 0.402841 0.216144 0.599918
v 0.408211 0.225363 0.571499
v 0.412196 0.220753 0.571226
v 0.202234 0.225363 0.968115
v 0.213214 0.220753 0.975000
v 0.376319 0.225363 0.690494
v 0.376302 0.216144 0.619198
v 0.347551 0.216144 0.615716
v 0.029723 0.216144 0.535940
v 0.348524 0.220753 0.611842
v 0.347551 0.225363 0.615716
v 0.030696 0.220753 0.532066
v 0.029723 0.225363 0.535940
v 0.770626 0.225363 0.487275
v 0.765790 0.220753 0.475252
v 0.466606 0.225363 0.609548
v 0.450866 0.216144 0.682821
v 0.445925 0.216144 0.686954
v 0.424712 0.216144 0.667237
v 0.433565 0.216144 0.660805
v 0.442861 0.220753 0.689516
v 0.445925 0.225363 0.686954
v 0.370861 0.216144 0.687072
v 0.367477 0.220753 0.684950
v 0.196776 0.216144 0.964693
v 0.193393 0.220753 0.962571
v 0.469009 0.216144 0.615525
v 0.470500 0.220753 0.619231
v 0.773030 0.216144 0.493252
v 0.774520 0.220753 0.496958
v 0.391909 0.225363 0.667236
v 0.196776 0.225363 0.964693
v 0.370861 0.225363 0.687072
v 0.383056 0.225363 0.660804
v 0.028155 0.225363 0.542188
v 0.345983 0.225363 0.621965
v 0.376302 0.225363 0.619198
v 0.402841 0.225363 0.599918
v 0.401784 0.225363 0.571938
v 0.413784 0.225363 0.599918
v 0.443703 0.225363 0.629608
v 0.440322 0.225363 0.619200
v 0.469009 0.225363 0.615525
v 0.773030 0.225363 0.493252
v 0.433565 0.225363 0.660805
v 0.424712 0.225363 0.667237
v 0.408312 0.231831 0.635353
v 0.202234 0.216144 0.968115
v 0.770626 0.216144 0.487275
v 0.440322 0.216144 0.619200
v 0.391909 0.216144 0.667236
v 0.376319 0.216144 0.690494
v 0.466606 0.216144 0.609548
v 0.383056 0.216144 0.660804
v 0.443703 0.216144 0.629608
v 0.360501 0.070624 0.774266
v 0.360505 0.070624 0.642375
v 0.358035 0.068163 0.642375
v 0.427539 0.147541 0.648362
v 0.427453 0.147541 0.659188
v 0.452744 0.147541 0.633360
v 0.379953 0.112533 0.787900
v 0.379710 0.108569 0.791471
v 0.382606 0.111927 0.791471
v 0.395837 0.176254 0.726380
v 0.388307 0.176277 0.726376
v 0.389047 0.173934 0.728761
v 0.394732 0.171508 0.721785
v 0.389378 0.171525 0.721783
v 0.389464 0.171746 0.724952
v 0.219375 0.107758 0.576187
v 0.219945 0.106366 0.582116
v 0.365471 0.141936 0.590220
v 0.410969 0.136431 0.154570
v 0.418016 0.097913 0.416002
v 0.401468 0.097913 0.416002
v 0.431239 0.148693 0.728841
v 0.438598 0.154112 0.727928
v 0.438368 0.154644 0.730021
v 0.428572 0.055532 0.860661
v 0.427863 0.050946 0.854200
v 0.434651 0.058787 0.864420
v 0.430313 0.065293 0.868013
v 0.423550 0.148890 0.728808
v 0.431160 0.149337 0.730915
v 0.424736 0.152505 0.724987
v 0.430090 0.152368 0.725010
v 0.430003 0.153204 0.728077
v 0.600101 0.107758 0.576197
v 0.599849 0.105784 0.566816
v 0.454166 0.141500 0.564514
v 0.443614 0.226534 0.110351
v 0.439606 0.220369 0.097672
v 0.409751 0.218948 0.090821
v 0.396828 0.041225 0.836134
v 0.409731 0.041225 0.836134
v 0.397699 0.043035 0.842363
v 0.399717 0.156142 0.724374
v 0.401751 0.162099 0.723370
v 0.401440 0.162623 0.726489
v 0.409738 0.158011 0.720264
v 0.409734 0.157997 0.720266
v 0.409734 0.164244 0.721519
v 0.403075 0.154112 0.727927
v 0.405996 0.162667 0.726487
v 0.405707 0.163022 0.728609
v 0.423503 0.163661 0.668206
v 0.421578 0.171721 0.659169
v 0.446869 0.171721 0.633340
v 0.396909 0.163660 0.640485
v 0.398959 0.171720 0.650113
v 0.372593 0.171720 0.623121
v 0.392115 0.147540 0.650112
v 0.392115 0.147541 0.659740
v 0.395465 0.154427 0.669367
v 0.404838 0.240654 0.090022
v 0.404720 0.242520 0.099467
v 0.378307 0.163021 0.728609
v 0.381100 0.154644 0.730020
v 0.383277 0.156614 0.731678
v 0.221143 0.102582 0.577707
v 0.364181 0.131305 0.577546
v 0.414306 0.196582 0.621131
v 0.414309 0.192602 0.621790
v 0.416339 0.192602 0.612910
v 0.435212 0.079978 0.864486
v 0.434626 0.081436 0.864371
v 0.426571 0.079254 0.872252
v 0.420782 0.147153 0.721758
v 0.438368 0.171101 0.727249
v 0.431160 0.176277 0.726377
v 0.430420 0.173934 0.728762
v 0.430090 0.171525 0.721784
v 0.435215 0.167844 0.722404
v 0.438324 0.170847 0.718571
v 0.429918 0.101932 0.416002
v 0.448794 0.163661 0.642378
v 0.446862 0.165157 0.642378
v 0.450726 0.155601 0.642378
v 0.436191 0.156614 0.731679
v 0.431913 0.147050 0.721775
v 0.435215 0.156142 0.724375
v 0.442647 0.225350 0.126483
v 0.443796 0.227652 0.119362
v 0.414201 0.228556 0.119361
v 0.391092 0.184774 0.642376
v 0.398740 0.186301 0.657060
v 0.399785 0.188534 0.657060
v 0.395837 0.149529 0.730882
v 0.402847 0.154644 0.730020
v 0.400688 0.156615 0.731678
v 0.395918 0.176178 0.724211
v 0.388229 0.176201 0.724206
v 0.376369 0.059295 0.791471
v 0.394706 0.050437 0.774267
v 0.380128 0.052834 0.791471
v 0.370543 0.163660 0.613493
v 0.372584 0.165157 0.613493
v 0.368850 0.154417 0.613493
v 0.397044 0.163660 0.669368
v 0.369099 0.154427 0.642376
v 0.423602 0.163661 0.639305
v 0.425614 0.155601 0.639325
v 0.450906 0.155601 0.613497
v 0.408528 0.136431 0.154570
v 0.389567 0.101932 0.416001
v 0.381100 0.171101 0.727247
v 0.381041 0.163322 0.730548
v 0.224102 0.096697 0.549667
v 0.219627 0.105784 0.566806
v 0.365310 0.141500 0.564512
v 0.409738 0.192602 0.582800
v 0.409738 0.200168 0.587747
v 0.413036 0.198661 0.589903
v 0.421873 0.188263 0.489399
v 0.419954 0.166436 0.454250
v 0.399528 0.166436 0.454250
v 0.416393 0.170916 0.725097
v 0.413472 0.162667 0.726487
v 0.413760 0.163022 0.728610
v 0.441449 0.162666 0.726488
v 0.438598 0.170917 0.725098
v 0.443096 0.059295 0.791473
v 0.439336 0.052834 0.791473
v 0.424759 0.050437 0.774267
v 0.415979 0.139669 0.163482
v 0.419759 0.144397 0.182673
v 0.421889 0.142149 0.205992
v 0.423550 0.176178 0.724211
v 0.416621 0.171101 0.727248
v 0.423631 0.149529 0.730882
v 0.430420 0.152365 0.732395
v 0.424736 0.171508 0.721786
v 0.419751 0.167844 0.722403
v 0.419996 0.168184 0.725553
v 0.595375 0.096697 0.549677
v 0.598333 0.102582 0.577717
v 0.455295 0.131305 0.577549
v 0.443796 0.221903 0.120236
v 0.413052 0.225350 0.128732
v 0.361126 0.118326 0.530746
v 0.398436 0.183255 0.657060
v 0.402978 0.163323 0.730549
v 0.380870 0.170917 0.725096
v 0.425435 0.155601 0.668206
v 0.414998 0.192602 0.585815
v 0.452831 0.147541 0.622534
v 0.384253 0.167844 0.722402
v 0.388621 0.175544 0.718488
v 0.383277 0.169791 0.729458
v 0.384834 0.081436 0.864370
v 0.384249 0.079978 0.864485
v 0.392890 0.079254 0.872251
v 0.405142 0.196582 0.621130
v 0.403135 0.192602 0.612910
v 0.405139 0.192602 0.621790
v 0.399926 0.151965 0.188019
v 0.408176 0.161137 0.205992
v 0.440500 0.150378 0.714783
v 0.434564 0.144057 0.718540
v 0.445086 0.143193 0.712093
v 0.419686 0.188534 0.657061
v 0.413162 0.190767 0.660093
v 0.415757 0.188813 0.660093
v 0.431494 0.101019 0.862678
v 0.432550 0.103955 0.858884
v 0.425953 0.104999 0.860841
v 0.430003 0.171746 0.724953
v 0.416621 0.154644 0.730020
v 0.418780 0.156615 0.731678
v 0.431239 0.176201 0.724208
v 0.432806 0.104436 0.857430
v 0.416489 0.163323 0.730549
v 0.417717 0.162099 0.723371
v 0.418027 0.162623 0.726490
v 0.420732 0.186301 0.657061
v 0.428381 0.184774 0.642377
v 0.599530 0.106366 0.582126
v 0.453713 0.144521 0.578950
v 0.409751 0.236419 0.076154
v 0.384253 0.156142 0.724373
v 0.389378 0.152368 0.725009
v 0.389464 0.153204 0.728076
v 0.395917 0.148890 0.728807
v 0.390889 0.055532 0.860660
v 0.384810 0.058787 0.864419
v 0.391598 0.050946 0.854199
v 0.421584 0.171721 0.648323
v 0.446876 0.171721 0.622495
v 0.398967 0.171720 0.659740
v 0.372601 0.171720 0.632748
v 0.391856 0.111152 0.851824
v 0.392286 0.110099 0.854056
v 0.396175 0.107249 0.859777
v 0.386689 0.125733 0.785522
v 0.387460 0.126403 0.785479
v 0.391328 0.134646 0.780460
v 0.388307 0.149337 0.730914
v 0.389047 0.152365 0.732394
v 0.384105 0.076997 0.868578
v 0.384131 0.075931 0.870042
v 0.378969 0.150378 0.714781
v 0.374383 0.143193 0.712091
v 0.384905 0.144057 0.718539
v 0.424314 0.043656 0.791483
v 0.395150 0.043656 0.791483
v 0.419751 0.156142 0.724374
v 0.424821 0.153336 0.728054
v 0.424392 0.152520 0.732368
v 0.423631 0.176254 0.726381
v 0.448894 0.163661 0.613477
v 0.446882 0.165157 0.613458
v 0.418780 0.169790 0.729459
v 0.409734 0.158011 0.720264
v 0.409730 0.158011 0.720264
v 0.421035 0.183255 0.657061
v 0.493457 0.144397 0.192634
v 0.494934 0.142149 0.209146
v 0.387555 0.147050 0.721774
v 0.405814 0.180613 0.660093
v 0.403763 0.182931 0.660093
v 0.324561 0.142149 0.209142
v 0.326039 0.144397 0.192629
v 0.399737 0.144397 0.182672
v 0.378019 0.162666 0.726486
v 0.380870 0.154112 0.727927
v 0.389147 0.065293 0.868012
v 0.365749 0.147541 0.632748
v 0.395216 0.154417 0.640485
v 0.390964 0.099784 0.864710
v 0.388563 0.092658 0.866764
v 0.389345 0.092850 0.867628
v 0.402847 0.171101 0.727248
v 0.395076 0.173916 0.728764
v 0.384504 0.168184 0.725552
v 0.360506 0.054064 0.642375
v 0.360501 0.054064 0.774266
v 0.358031 0.068163 0.774266
v 0.403136 0.192602 0.592058
v 0.406439 0.198661 0.589903
v 0.405116 0.192602 0.585815
v 0.415709 0.182931 0.660093
v 0.413657 0.180613 0.660093
v 0.433761 0.091955 0.863600
v 0.429460 0.100181 0.863891
v 0.416393 0.154112 0.727928
v 0.409734 0.151750 0.718110
v 0.409734 0.141429 0.714523
v 0.409730 0.151764 0.718107
v 0.423681 0.141429 0.714524
v 0.439512 0.112533 0.787902
v 0.436858 0.111927 0.791473
v 0.439755 0.108569 0.791473
v 0.424392 0.173916 0.728765
v 0.434964 0.156857 0.727461
v 0.458352 0.118326 0.530748
v 0.399717 0.167844 0.722403
v 0.399471 0.168184 0.725553
v 0.388229 0.148693 0.728840
v 0.409731 0.065288 0.836134
v 0.395787 0.141429 0.714523
v 0.391164 0.134951 0.779678
v 0.400688 0.169790 0.729459
v 0.394732 0.152505 0.724986
v 0.399471 0.156857 0.727461
v 0.326038 0.146831 0.222672
v 0.397606 0.142149 0.205991
v 0.493456 0.146831 0.222676
v 0.422091 0.146831 0.227589
v 0.424821 0.171731 0.724956
v 0.428137 0.134646 0.780461
v 0.432005 0.126403 0.785480
v 0.432776 0.125733 0.785523
v 0.441160 0.163021 0.728610
v 0.419997 0.156857 0.727461
v 0.411321 0.242497 0.115858
v 0.409750 0.242497 0.115858
v 0.408179 0.242497 0.115858
v 0.454004 0.141936 0.590222
v 0.403714 0.188813 0.660093
v 0.406309 0.190767 0.660093
v 0.394647 0.153336 0.728054
v 0.370678 0.163660 0.642376
v 0.372610 0.165157 0.642376
v 0.403075 0.170916 0.725097
v 0.395076 0.152520 0.732368
v 0.394647 0.171731 0.724955
v 0.365762 0.144521 0.578948
v 0.416339 0.192602 0.592058
v 0.422634 0.041225 0.836135
v 0.421763 0.043035 0.842363
v 0.438426 0.163322 0.730550
v 0.428301 0.134951 0.779679
v 0.436191 0.169791 0.729460
v 0.415919 0.220999 0.120511
v 0.415352 0.226365 0.103149
v 0.414663 0.240654 0.090022
v 0.414781 0.242520 0.099467
v 0.365749 0.147540 0.623120
v 0.373103 0.051779 0.642376
v 0.373103 0.060926 0.642376
v 0.394711 0.050437 0.642376
v 0.363304 0.070624 0.642375
v 0.364672 0.070624 0.774266
v 0.363969 0.070624 0.761709
v 0.363301 0.070624 0.746074
v 0.394714 0.050437 0.530746
v 0.424765 0.050437 0.530747
v 0.421360 0.078545 0.454250
v 0.423543 0.062249 0.489399
v 0.395937 0.062249 0.489399
v 0.398122 0.078545 0.454250
v 0.373099 0.051779 0.774266
v 0.424358 0.054666 0.511058
v 0.395121 0.054666 0.511058
v 0.422947 0.192602 0.530747
v 0.397380 0.192602 0.624660
v 0.409736 0.192602 0.642377
v 0.397607 0.188263 0.489399
v 0.396890 0.192255 0.511058
v 0.396529 0.192602 0.610476
v 0.409737 0.192602 0.624213
v 0.422094 0.192602 0.624661
v 0.409737 0.192602 0.619536
v 0.419421 0.192524 0.642377
v 0.396532 0.192602 0.530746
v 0.422944 0.192602 0.610476
v 0.400051 0.192524 0.642376
v 0.409736 0.191803 0.660093
v 0.422589 0.192255 0.511058
v 0.409738 0.192602 0.587747
v 0.373642 0.165157 0.511057
v 0.375763 0.165156 0.489398
v 0.369330 0.145671 0.489398
v 0.363605 0.093571 0.761709
v 0.361921 0.075931 0.761709
v 0.364918 0.091552 0.774266
v 0.362612 0.078139 0.511057
v 0.361300 0.075931 0.530746
v 0.374907 0.165152 0.693525
v 0.372139 0.153496 0.696186
v 0.376370 0.164645 0.709065
v 0.361091 0.102453 0.714522
v 0.366528 0.127888 0.708729
v 0.366751 0.130042 0.703849
v 0.362264 0.096251 0.746074
v 0.361295 0.075931 0.746074
v 0.384633 0.165154 0.466642
v 0.386575 0.156609 0.454249
v 0.379485 0.176923 0.530746
v 0.372535 0.165157 0.530746
v 0.364910 0.075931 0.791471
v 0.369130 0.075931 0.817958
v 0.371700 0.085004 0.817958
v 0.381619 0.173555 0.489398
v 0.370158 0.145625 0.698579
v 0.367881 0.149707 0.660092
v 0.366814 0.147541 0.642375
v 0.361104 0.118324 0.642375
v 0.373812 0.155461 0.709234
v 0.377295 0.164131 0.714411
v 0.380205 0.176654 0.511057
v 0.365082 0.118509 0.489398
v 0.365242 0.082485 0.489398
v 0.385742 0.184762 0.530746
v 0.379592 0.176923 0.610475
v 0.372132 0.122491 0.454249
v 0.372282 0.093307 0.454249
v 0.375552 0.157254 0.714728
v 0.378786 0.163604 0.718751
v 0.379764 0.175363 0.692751
v 0.379604 0.176889 0.660092
v 0.373616 0.165157 0.660092
v 0.375491 0.141548 0.454249
v 0.365751 0.147541 0.530746
v 0.379612 0.176923 0.624660
v 0.362442 0.118208 0.511057
v 0.366942 0.147420 0.511057
v 0.371051 0.149707 0.697199
v 0.362869 0.075931 0.774266
v 0.367131 0.088972 0.791471
v 0.381145 0.170847 0.718570
v 0.383064 0.108987 0.416001
v 0.382957 0.127780 0.416001
v 0.386339 0.184455 0.511057
v 0.371691 0.149707 0.704260
v 0.370785 0.144684 0.705067
v 0.387521 0.180909 0.489398
v 0.385515 0.141924 0.416001
v 0.397403 0.146831 0.227588
v 0.390964 0.184586 0.489398
v 0.385808 0.184765 0.610476
v 0.379966 0.173720 0.709105
v 0.361297 0.075931 0.642375
v 0.380490 0.172399 0.714479
v 0.389432 0.188684 0.610476
v 0.409736 0.179552 0.660093
v 0.416653 0.186301 0.660093
v 0.402819 0.186301 0.660093
v 0.432907 0.156609 0.454251
v 0.426915 0.156068 0.416002
v 0.415437 0.165740 0.416002
v 0.444049 0.141548 0.454251
v 0.433969 0.141924 0.416003
v 0.417824 0.152638 0.205992
v 0.419570 0.151965 0.188019
v 0.411320 0.161137 0.205992
v 0.420729 0.147394 0.205992
v 0.401671 0.152638 0.205992
v 0.392570 0.156068 0.416001
v 0.404047 0.165740 0.416002
v 0.398766 0.147394 0.205992
v 0.434654 0.165155 0.466643
v 0.443718 0.165156 0.489400
v 0.452658 0.147541 0.642378
v 0.451591 0.149707 0.660094
v 0.458369 0.118324 0.642378
v 0.433736 0.184762 0.530747
v 0.433140 0.184455 0.511059
v 0.429556 0.188355 0.511058
v 0.439274 0.176654 0.511059
v 0.437861 0.173555 0.489400
v 0.431959 0.180909 0.489399
v 0.452718 0.130042 0.703852
v 0.458377 0.102453 0.714525
v 0.436527 0.127780 0.416003
v 0.436420 0.108987 0.416003
v 0.458175 0.075931 0.642378
v 0.428516 0.184586 0.489399
v 0.453727 0.147541 0.530748
v 0.432125 0.184766 0.624661
v 0.428734 0.188685 0.624661
v 0.457203 0.096251 0.746076
v 0.458172 0.075931 0.746076
v 0.425125 0.188684 0.642377
v 0.439861 0.176923 0.624661
v 0.439862 0.176889 0.642377
v 0.445837 0.165157 0.511059
v 0.454238 0.082485 0.489400
v 0.454399 0.118509 0.489400
v 0.457037 0.118208 0.511059
v 0.439881 0.176924 0.610486
v 0.433666 0.184765 0.610477
v 0.452537 0.147420 0.511059
v 0.439993 0.176923 0.530748
v 0.450150 0.145671 0.489400
v 0.447350 0.122491 0.454251
v 0.446944 0.165157 0.530748
v 0.430042 0.188684 0.610477
v 0.441299 0.174487 0.638739
v 0.458178 0.075931 0.530748
v 0.456867 0.078139 0.511059
v 0.430079 0.188682 0.530747
v 0.447200 0.093307 0.454251
v 0.452940 0.127888 0.708731
v 0.378118 0.174394 0.638597
v 0.409737 0.196147 0.623080
v 0.390839 0.144798 0.746074
v 0.389615 0.144499 0.746074
v 0.390917 0.144171 0.759937
v 0.421358 0.145906 0.761711
v 0.419653 0.143242 0.771943
v 0.432666 0.143045 0.761711
v 0.384848 0.143336 0.746074
v 0.389172 0.141247 0.723209
v 0.383712 0.140051 0.723209
v 0.390005 0.143022 0.734642
v 0.399813 0.143242 0.771942
v 0.398108 0.145906 0.761710
v 0.392454 0.144476 0.761710
v 0.422637 0.146259 0.746075
v 0.409733 0.146744 0.746075
v 0.409733 0.144026 0.771942
v 0.387914 0.139899 0.714523
v 0.396830 0.146259 0.746075
v 0.409733 0.146356 0.761711
v 0.382270 0.139736 0.723209
v 0.381546 0.139291 0.720388
v 0.396074 0.142759 0.723209
v 0.423394 0.142759 0.723210
v 0.409734 0.142892 0.723209
v 0.388657 0.142712 0.734642
v 0.380041 0.138368 0.714523
v 0.434619 0.143336 0.746076
v 0.437198 0.139736 0.723210
v 0.386800 0.143045 0.761710
v 0.391084 0.144129 0.761710
v 0.439427 0.138368 0.714524
v 0.393306 0.143144 0.766826
v 0.391788 0.143121 0.765632
v 0.368329 0.125838 0.713039
v 0.370390 0.125150 0.714522
v 0.376561 0.135306 0.714522
v 0.367439 0.126316 0.712128
v 0.377651 0.136265 0.714523
v 0.375557 0.136031 0.723208
v 0.373215 0.132463 0.723208
v 0.372468 0.124979 0.746074
v 0.370765 0.122467 0.723208
v 0.372417 0.114199 0.746074
v 0.372424 0.115775 0.746074
v 0.373681 0.111226 0.761710
v 0.374854 0.107633 0.774299
v 0.373003 0.119800 0.761710
v 0.373803 0.109691 0.761710
v 0.374918 0.106061 0.774299
v 0.372953 0.120283 0.760249
v 0.385505 0.130767 0.779039
v 0.382341 0.137890 0.761710
v 0.379846 0.124209 0.777496
v 0.376544 0.133445 0.746074
v 0.377758 0.130246 0.760266
v 0.382181 0.138094 0.760187
v 0.377882 0.129920 0.761710
v 0.374697 0.115229 0.775758
v 0.373563 0.111654 0.760240
v 0.380696 0.139989 0.746074
v 0.395488 0.137442 0.778323
v 0.429187 0.117557 0.790977
v 0.430971 0.126257 0.785859
v 0.422500 0.119515 0.790327
v 0.430318 0.117212 0.790979
v 0.431251 0.114843 0.792376
v 0.431072 0.116923 0.790703
v 0.419653 0.139932 0.776968
v 0.393306 0.141489 0.769339
v 0.409733 0.140789 0.777070
v 0.399813 0.139325 0.777745
v 0.399632 0.138074 0.778452
v 0.419653 0.139325 0.777745
v 0.389146 0.117212 0.790978
v 0.388213 0.114843 0.792375
v 0.390277 0.117557 0.790976
v 0.399813 0.139932 0.776968
v 0.397003 0.138315 0.777848
v 0.391871 0.133873 0.781158
v 0.422876 0.116907 0.791736
v 0.409733 0.139467 0.777855
v 0.396965 0.119515 0.790326
v 0.409732 0.120710 0.789518
v 0.395570 0.136986 0.779103
v 0.396588 0.116907 0.791736
v 0.409733 0.141397 0.776334
v 0.439557 0.113674 0.786695
v 0.419833 0.138074 0.778453
v 0.427594 0.133873 0.781159
v 0.409732 0.118356 0.790898
v 0.394924 0.141102 0.771236
v 0.432677 0.114373 0.795151
v 0.436515 0.114483 0.817960
v 0.436922 0.111443 0.795151
v 0.423108 0.117435 0.795151
v 0.424549 0.120170 0.817960
v 0.409732 0.119053 0.795150
v 0.393249 0.106602 0.859056
v 0.391092 0.110166 0.852646
v 0.383538 0.111075 0.836134
v 0.389533 0.113486 0.841999
v 0.389110 0.115000 0.836134
v 0.389735 0.117709 0.817959
v 0.394914 0.120170 0.817959
v 0.396356 0.117435 0.795150
v 0.389659 0.117023 0.828354
v 0.392085 0.105968 0.858768
v 0.392396 0.103434 0.862377
v 0.382948 0.114483 0.817958
v 0.391052 0.103271 0.862468
v 0.394682 0.118924 0.836134
v 0.389950 0.115591 0.836134
v 0.390486 0.113869 0.842931
v 0.391571 0.115904 0.795150
v 0.388931 0.117326 0.817959
v 0.395529 0.115896 0.847865
v 0.435924 0.111075 0.836135
v 0.424780 0.118924 0.836135
v 0.409731 0.117599 0.847865
v 0.386654 0.104436 0.857428
v 0.409732 0.122148 0.817959
v 0.423932 0.115896 0.847865
v 0.388815 0.116703 0.827046
v 0.392817 0.116303 0.795150
v 0.386787 0.114373 0.795150
v 0.409731 0.120903 0.836134
v 0.389506 0.075864 0.874499
v 0.396497 0.075797 0.877162
v 0.409730 0.075796 0.879596
v 0.403116 0.075796 0.878754
v 0.416344 0.075796 0.878755
v 0.435329 0.075931 0.870043
v 0.435355 0.076997 0.868579
v 0.429954 0.075864 0.874500
v 0.422962 0.075797 0.877163
v 0.426898 0.080509 0.871903
v 0.425164 0.080547 0.871884
v 0.397516 0.106965 0.862030
v 0.395996 0.105143 0.862772
v 0.398347 0.106051 0.862359
v 0.394296 0.080547 0.871883
v 0.392558 0.099229 0.865108
v 0.430115 0.092850 0.867629
v 0.409730 0.109744 0.860624
v 0.421113 0.106051 0.862360
v 0.409730 0.111004 0.860205
v 0.392562 0.080509 0.871902
v 0.428516 0.093054 0.867525
v 0.421944 0.106965 0.862031
v 0.426903 0.099229 0.865108
v 0.390944 0.093054 0.867524
v 0.428497 0.099784 0.864969
v 0.396236 0.106082 0.862117
v 0.397516 0.107957 0.860108
v 0.409730 0.112068 0.858284
v 0.403518 0.139669 0.163481
v 0.406087 0.137606 0.158444
v 0.374908 0.090436 0.817958
v 0.376440 0.101109 0.791471
v 0.370390 0.120793 0.723208
v 0.370771 0.126134 0.715691
v 0.375202 0.082282 0.836133
v 0.372632 0.075931 0.836133
v 0.379611 0.176889 0.642376
v 0.375804 0.170861 0.642376
v 0.382497 0.052680 0.847864
v 0.381328 0.049263 0.836134
v 0.390582 0.043173 0.836134
v 0.393526 0.046869 0.848281
v 0.383246 0.055734 0.856142
v 0.365827 0.070624 0.791471
v 0.376336 0.065317 0.847864
v 0.373705 0.065317 0.836133
v 0.375633 0.057290 0.836133
v 0.369368 0.070624 0.817958
v 0.371199 0.063897 0.817958
v 0.372689 0.070624 0.836133
v 0.373098 0.060926 0.791471
v 0.385831 0.070609 0.872466
v 0.381399 0.070615 0.864419
v 0.381327 0.065299 0.864419
v 0.375817 0.075931 0.847864
v 0.375811 0.070637 0.847864
v 0.378814 0.065308 0.856141
v 0.381414 0.075931 0.864419
v 0.382060 0.062043 0.864419
v 0.363307 0.070624 0.530746
v 0.377640 0.058999 0.847864
v 0.379562 0.060521 0.856141
v 0.375306 0.092090 0.817958
v 0.377092 0.084873 0.836134
v 0.376369 0.098942 0.817958
v 0.379465 0.107260 0.795150
v 0.376809 0.101562 0.795150
v 0.382334 0.094946 0.852779
v 0.379451 0.101022 0.836133
v 0.378518 0.083200 0.847223
v 0.378163 0.106712 0.817958
v 0.376484 0.083462 0.836134
v 0.377748 0.081684 0.847864
v 0.382543 0.111443 0.795150
v 0.385699 0.091955 0.863599
v 0.387966 0.101019 0.862677
v 0.379908 0.113674 0.786693
v 0.374595 0.056253 0.817958
v 0.380628 0.047953 0.817958
v 0.373099 0.060926 0.774266
v 0.428292 0.070581 0.876660
v 0.416340 0.070344 0.880854
v 0.422955 0.070553 0.879242
v 0.409730 0.070344 0.881647
v 0.391168 0.070581 0.876659
v 0.396505 0.070553 0.879242
v 0.403119 0.070344 0.880854
v 0.385140 0.048747 0.791471
v 0.391329 0.044952 0.791471
v 0.390047 0.042903 0.817959
v 0.395755 0.040957 0.817959
v 0.391461 0.080641 0.870829
v 0.390000 0.100181 0.864148
v 0.402852 0.174798 0.718798
v 0.400752 0.179169 0.714418
v 0.394724 0.176441 0.718489
v 0.409734 0.164258 0.721516
v 0.394709 0.179557 0.714418
v 0.409734 0.170503 0.719928
v 0.388503 0.178367 0.714449
v 0.428292 0.065287 0.876660
v 0.422954 0.065287 0.879093
v 0.423450 0.065289 0.873488
v 0.416340 0.065291 0.880854
v 0.416588 0.065292 0.875370
v 0.438133 0.065299 0.864420
v 0.433437 0.065287 0.872807
v 0.396010 0.065289 0.873488
v 0.391168 0.065287 0.876659
v 0.386023 0.065287 0.872806
v 0.402872 0.065292 0.875370
v 0.409730 0.065295 0.881646
v 0.403120 0.065291 0.880854
v 0.396506 0.065287 0.879092
v 0.392019 0.163582 0.732717
v 0.387648 0.160172 0.732634
v 0.390534 0.158047 0.732991
v 0.396354 0.160172 0.732634
v 0.393548 0.158124 0.732978
v 0.393548 0.168822 0.731177
v 0.386530 0.163526 0.732069
v 0.396354 0.166760 0.731524
v 0.390534 0.168832 0.731175
v 0.387648 0.166760 0.731524
v 0.397499 0.163526 0.732069
v 0.398686 0.147153 0.721757
v 0.402323 0.149347 0.720802
v 0.405306 0.145944 0.717963
v 0.409738 0.151764 0.718107
v 0.402210 0.144126 0.718528
v 0.374604 0.149707 0.710303
v 0.381094 0.153824 0.719927
v 0.378166 0.158714 0.719339
v 0.383260 0.159120 0.723872
v 0.382267 0.162099 0.723370
v 0.384504 0.156857 0.727460
v 0.382582 0.162623 0.726489
v 0.383260 0.164972 0.722886
v 0.406020 0.177749 0.714419
v 0.409734 0.176715 0.714419
v 0.404729 0.181336 0.692751
v 0.394709 0.182499 0.692751
v 0.387345 0.181782 0.660092
v 0.388013 0.181006 0.692751
v 0.404729 0.179701 0.709016
v 0.394709 0.181114 0.709145
v 0.409734 0.178413 0.708952
v 0.388299 0.179870 0.709125
v 0.409735 0.180303 0.692751
v 0.387346 0.182681 0.642376
v 0.387348 0.184766 0.624660
v 0.390739 0.188685 0.624660
v 0.389923 0.188355 0.511057
v 0.389399 0.188682 0.530746
v 0.394347 0.188684 0.642376
v 0.373280 0.143737 0.710484
v 0.386608 0.143074 0.760172
v 0.433629 0.070609 0.872467
v 0.221143 0.071867 0.577707
v 0.224102 0.071867 0.549667
v 0.219945 0.071867 0.582116
v 0.219375 0.071867 0.576187
v 0.219627 0.071867 0.566806
v 0.416616 0.174798 0.718798
v 0.438374 0.153824 0.719929
v 0.437200 0.162099 0.723371
v 0.436208 0.159120 0.723873
v 0.441302 0.158714 0.719341
v 0.443916 0.157254 0.714730
v 0.444865 0.149707 0.710305
v 0.444547 0.106061 0.774301
v 0.442978 0.083462 0.836135
v 0.444555 0.090436 0.817960
v 0.442370 0.084873 0.836135
v 0.447762 0.085004 0.817960
v 0.443024 0.101109 0.791473
v 0.437127 0.094946 0.852780
v 0.440943 0.083200 0.847225
v 0.440011 0.101022 0.836135
v 0.452333 0.088972 0.791473
v 0.454547 0.091552 0.774268
v 0.436939 0.094497 0.854031
v 0.444157 0.092090 0.817960
v 0.439999 0.107260 0.795151
v 0.443094 0.098942 0.817960
v 0.442655 0.101562 0.795151
v 0.441300 0.106712 0.817960
v 0.444260 0.082282 0.836135
v 0.440748 0.083021 0.848412
v 0.450333 0.075931 0.817960
v 0.443645 0.075931 0.847866
v 0.446830 0.075931 0.836135
v 0.441713 0.081684 0.847866
v 0.438046 0.075931 0.864420
v 0.445663 0.109691 0.761711
v 0.445785 0.111226 0.761711
v 0.444612 0.107633 0.774301
v 0.442923 0.133445 0.746076
v 0.441584 0.129920 0.761711
v 0.446463 0.119800 0.761711
v 0.449078 0.120793 0.723210
v 0.447043 0.115775 0.746076
v 0.447050 0.114199 0.746076
v 0.455861 0.093571 0.761712
v 0.446253 0.132463 0.723210
v 0.443911 0.136031 0.723210
v 0.448698 0.126134 0.715693
v 0.448703 0.122467 0.723210
v 0.446998 0.124979 0.746076
v 0.449078 0.125150 0.714524
v 0.444768 0.115229 0.775759
v 0.438771 0.139989 0.746076
v 0.433960 0.130767 0.779040
v 0.439620 0.124209 0.777498
v 0.437125 0.137890 0.761711
v 0.413411 0.137606 0.158445
v 0.599530 0.071867 0.582126
v 0.598333 0.071867 0.577717
v 0.600101 0.071867 0.576197
v 0.595375 0.071867 0.549677
v 0.599849 0.071867 0.566816
v 0.456171 0.070624 0.530748
v 0.457545 0.075931 0.761712
v 0.454794 0.070624 0.774268
v 0.455497 0.070624 0.761712
v 0.456168 0.070624 0.642378
v 0.445380 0.063846 0.511059
v 0.446372 0.060926 0.530748
v 0.438070 0.083902 0.454251
v 0.443393 0.069593 0.489400
v 0.446367 0.060926 0.774268
v 0.446366 0.060926 0.761711
v 0.424762 0.050437 0.642377
v 0.446369 0.060926 0.642378
v 0.425936 0.046869 0.848282
v 0.445855 0.165157 0.660094
v 0.443668 0.170861 0.642377
v 0.439867 0.176889 0.660093
v 0.432126 0.182681 0.642377
v 0.439705 0.175363 0.692752
v 0.444562 0.165152 0.693527
v 0.447331 0.153496 0.696188
v 0.432126 0.181782 0.660093
v 0.430897 0.092658 0.866765
v 0.428000 0.080641 0.870830
v 0.454555 0.075931 0.791473
v 0.456596 0.075931 0.774268
v 0.453637 0.070624 0.791473
v 0.450095 0.070624 0.817960
v 0.446366 0.060926 0.791473
v 0.423708 0.040957 0.817960
v 0.436965 0.052680 0.847866
v 0.436215 0.055734 0.856143
v 0.438134 0.049263 0.836135
v 0.428880 0.043173 0.836135
v 0.438062 0.070615 0.864420
v 0.443650 0.070637 0.847866
v 0.448264 0.063897 0.817960
v 0.443829 0.057290 0.836135
v 0.444868 0.056253 0.817960
v 0.446773 0.070624 0.836135
v 0.443125 0.065317 0.847866
v 0.440647 0.065308 0.856143
v 0.445757 0.065317 0.836135
v 0.441821 0.058999 0.847866
v 0.437400 0.062043 0.864420
v 0.439899 0.060521 0.856143
v 0.442907 0.135306 0.714524
v 0.452029 0.126316 0.712130
v 0.446188 0.143737 0.710486
v 0.451140 0.125838 0.713041
v 0.445657 0.155461 0.709236
v 0.448684 0.144684 0.705069
v 0.447778 0.149707 0.704262
v 0.434964 0.168184 0.725554
v 0.436208 0.164972 0.722888
v 0.436886 0.162623 0.726490
v 0.448419 0.149707 0.697201
v 0.449311 0.145625 0.698582
v 0.439503 0.173720 0.709106
v 0.438978 0.172399 0.714480
v 0.442173 0.164131 0.714412
v 0.443098 0.164645 0.709067
v 0.440683 0.163604 0.718753
v 0.424760 0.182499 0.692752
v 0.424760 0.181114 0.709145
v 0.431169 0.179870 0.709126
v 0.414741 0.181336 0.692752
v 0.414740 0.179701 0.709016
v 0.413449 0.177749 0.714419
v 0.418717 0.179169 0.714419
v 0.431456 0.181006 0.692752
v 0.424760 0.179557 0.714419
v 0.430965 0.178367 0.714450
v 0.428934 0.168832 0.731176
v 0.431819 0.166760 0.731525
v 0.427448 0.163582 0.732718
v 0.421969 0.163526 0.732070
v 0.423114 0.160172 0.732635
v 0.425920 0.158124 0.732979
v 0.428934 0.158047 0.732992
v 0.423114 0.166760 0.731525
v 0.431819 0.160172 0.732635
v 0.432937 0.163526 0.732070
v 0.425920 0.168822 0.731177
v 0.424744 0.176441 0.718490
v 0.430847 0.175544 0.718489
v 0.417258 0.144126 0.718528
v 0.414162 0.145944 0.717964
v 0.417145 0.149347 0.720802
v 0.421944 0.107957 0.860109
v 0.438835 0.047953 0.817960
v 0.428135 0.044952 0.791472
v 0.429416 0.042903 0.817960
v 0.434324 0.048747 0.791473
v 0.494934 0.147394 0.209146
v 0.456165 0.070624 0.746076
v 0.425398 0.104610 0.862265
v 0.388493 0.126257 0.785858
v 0.388392 0.116923 0.790702
v 0.324561 0.147394 0.209142
v 0.381412 0.083902 0.454249
v 0.376088 0.069593 0.489398
v 0.374099 0.063846 0.511057
v 0.373106 0.060926 0.530746
f 1 2 3
f 4 5 2
f 6 7 8
f 9 3 7
f 7 3 2
f 10 4 1
f 10 11 5
f 12 8 11
f 13 14 15
f 16 17 14
f 18 19 20
f 21 15 19
f 19 15 14
f 22 16 13
f 22 23 17
f 24 20 23
f 25 26 27
f 28 29 30
f 31 32 29
f 31 28 33
f 33 30 34
f 35 34 36
f 37 38 26
f 39 36 38
f 40 27 32
f 26 38 36
f 41 42 43
f 44 45 46
f 47 48 45
f 49 42 41
f 45 48 50
f 51 41 46
f 49 52 53
f 54 55 56
f 57 51 50
f 48 47 58
f 47 54 53
f 52 57 58
f 55 44 43
f 42 49 56
f 59 60 61
f 62 63 64
f 65 66 67
f 68 69 70
f 69 71 72
f 73 65 70
f 63 68 67
f 66 59 64
f 74 73 72
f 71 75 76
f 65 73 74
f 63 62 75
f 75 62 61
f 60 74 76
f 77 78 79
f 80 81 79
f 82 83 84
f 85 84 83
f 86 87 88
f 82 89 90
f 78 88 91
f 79 91 92
f 86 84 85
f 80 92 93
f 81 93 94
f 77 94 89
f 88 94 93
f 87 85 90
f 92 91 93
f 95 96 97
f 98 97 99
f 100 101 102
f 103 102 104
f 105 106 107
f 108 107 101
f 98 109 110
f 111 112 113
f 114 112 111
f 115 111 96
f 116 104 117
f 118 117 106
f 118 105 108
f 102 101 107
f 109 99 113
f 110 113 112
f 119 120 121
f 122 123 124
f 125 126 127
f 128 129 130
f 131 121 132
f 121 120 133
f 134 128 135
f 136 137 138
f 125 127 139
f 140 134 138
f 125 139 141
f 126 124 132
f 125 122 126
f 129 140 137
f 119 142 143
f 120 136 138
f 143 142 123
f 143 130 137
f 125 144 122
f 127 132 133
f 125 141 144
f 119 121 131
f 144 130 123
f 119 136 120
f 119 131 142
f 139 133 138
f 142 131 124
f 135 141 138
f 135 144 141
f 135 130 144
f 143 137 119
f 136 119 137
f 129 134 140
f 128 134 129
f 145 146 147
f 148 149 150
f 151 147 152
f 153 154 146
f 155 150 156
f 157 158 159
f 160 161 159
f 154 153 158
f 162 163 164
f 165 166 167
f 152 147 168
f 169 167 162
f 146 154 157
f 168 170 171
f 172 160 159
f 173 159 158
f 174 175 176
f 148 155 177
f 164 163 178
f 179 180 145
f 171 161 160
f 167 178 163
f 151 181 145
f 182 177 166
f 177 183 184
f 175 172 173
f 185 162 186
f 170 157 161
f 147 146 170
f 168 181 187
f 180 158 153
f 174 171 172
f 188 186 150
f 176 173 180
f 166 184 178
f 155 152 183
f 151 156 187
f 188 182 165
f 169 185 165
f 149 148 182
f 156 150 187
f 186 164 187
f 189 190 191
f 192 193 194
f 189 195 190
f 196 197 198
f 199 200 193
f 201 198 202
f 203 204 205
f 206 191 207
f 208 209 210
f 195 211 212
f 213 214 202
f 215 212 211
f 216 217 214
f 207 191 218
f 219 205 220
f 197 196 221
f 195 189 206
f 209 222 223
f 224 194 225
f 226 227 221
f 228 216 213
f 229 204 203
f 210 223 225
f 230 200 199
f 217 228 231
f 216 228 217
f 232 233 231
f 234 235 229
f 191 221 196
f 190 212 221
f 233 232 230
f 217 233 199
f 223 203 219
f 222 234 203
f 212 215 226
f 214 199 192
f 219 218 196
f 235 236 204
f 227 207 220
f 211 195 207
f 204 225 194
f 236 208 225
f 215 211 227
f 193 198 197
f 231 228 202
f 200 202 198
f 232 231 200
f 235 234 236
f 209 208 222
f 236 234 222
f 237 238 239
f 240 239 238
f 237 241 238
f 242 243 237
f 244 245 246
f 239 247 248
f 249 250 251
f 242 248 252
f 246 245 253
f 254 255 256
f 250 257 251
f 258 259 260
f 261 262 263
f 264 265 237
f 266 267 268
f 267 269 270
f 255 271 272
f 269 273 274
f 275 274 272
f 273 276 277
f 255 272 278
f 271 255 254
f 237 265 279
f 280 258 241
f 279 275 281
f 280 281 272
f 264 266 282
f 274 277 278
f 261 240 238
f 283 262 238
f 284 244 251
f 257 285 251
f 257 286 240
f 247 239 240
f 284 285 240
f 279 282 268
f 270 275 268
f 279 265 282
f 270 274 275
f 277 287 288
f 278 288 256
f 276 289 287
f 244 284 290
f 284 261 263
f 290 263 259
f 245 290 291
f 258 260 238
f 283 238 260
f 249 289 276
f 267 266 286
f 248 247 252
f 286 264 252
f 266 264 286
f 276 273 250
f 257 250 273
f 269 267 286
f 254 253 271
f 271 253 291
f 288 244 256
f 287 292 288
f 246 256 244
f 288 292 244
f 287 249 292
f 289 249 287
f 292 251 244
f 251 292 249
f 260 259 263
f 283 260 262
f 291 280 271
f 258 280 291
f 293 294 295
f 296 297 298
f 299 300 301
f 302 303 304
f 305 306 307
f 308 309 310
f 293 311 312
f 313 314 315
f 316 317 318
f 319 320 318
f 321 322 323
f 324 325 326
f 293 295 311
f 303 316 327
f 328 329 330
f 331 332 333
f 323 322 334
f 335 336 337
f 338 339 340
f 341 302 342
f 343 328 344
f 345 346 301
f 347 348 349
f 350 351 352
f 353 343 354
f 346 355 349
f 348 356 298
f 357 358 359
f 314 360 315
f 361 324 362
f 363 350 352
f 355 364 304
f 356 365 327
f 313 360 314
f 332 366 333
f 363 351 350
f 367 366 332
f 300 368 342
f 311 295 312
f 321 323 334
f 369 370 294
f 325 335 371
f 372 373 374
f 297 319 354
f 375 299 344
f 317 341 330
f 336 361 376
f 361 336 335
f 325 324 335
f 344 301 371
f 301 349 326
f 354 344 337
f 349 298 362
f 298 354 376
f 377 378 312
f 378 377 297
f 379 380 367
f 367 332 331
f 381 382 383
f 382 384 385
f 386 385 384
f 387 388 389
f 389 388 390
f 380 379 390
f 391 392 359
f 322 359 393
f 383 385 392
f 394 393 328
f 386 384 395
f 396 395 358
f 397 398 363
f 352 399 363
f 295 307 400
f 294 401 307
f 377 400 319
f 370 402 401
f 403 404 306
f 405 406 404
f 407 408 313
f 315 409 313
f 410 411 374
f 366 374 412
f 390 388 411
f 413 412 355
f 414 415 373
f 387 389 415
f 416 417 338
f 418 419 417
f 402 405 403
f 401 403 305
f 392 396 357
f 385 386 396
f 420 421 308
f 422 423 421
f 411 414 372
f 388 387 414
f 339 352 424
f 425 397 399
f 426 399 352
f 365 347 304
f 427 424 347
f 306 312 378
f 406 428 429
f 404 429 312
f 430 378 296
f 320 296 327
f 358 334 431
f 384 382 432
f 395 432 334
f 329 353 318
f 433 431 353
f 368 375 330
f 434 435 375
f 436 409 315
f 309 315 435
f 437 407 409
f 373 333 438
f 389 379 331
f 415 331 333
f 364 345 342
f 439 438 345
f 440 317 316
f 440 316 303
f 440 302 341
f 440 341 317
f 440 303 302
f 425 418 441
f 398 397 441
f 419 418 425
f 408 407 442
f 407 437 422
f 423 422 437
f 438 413 346
f 333 366 413
f 435 443 299
f 315 360 443
f 431 394 343
f 334 322 394
f 352 351 444
f 424 444 348
f 421 436 309
f 423 437 436
f 417 426 339
f 419 425 426
f 367 410 366
f 380 390 410
f 381 383 391
f 321 391 322
f 369 428 370
f 405 402 406
f 428 406 402
f 393 433 329
f 433 393 359
f 439 412 374
f 412 439 364
f 363 445 351
f 398 441 445
f 408 442 446
f 313 446 360
f 444 447 356
f 351 340 447
f 441 418 416
f 445 416 340
f 428 369 293
f 312 429 293
f 382 381 321
f 334 432 321
f 360 310 448
f 443 448 300
f 446 420 310
f 442 422 420
f 310 309 434
f 448 434 368
f 447 427 365
f 427 447 340
f 430 400 307
f 400 430 320
f 449 450 451
f 452 453 454
f 455 456 457
f 458 459 460
f 461 462 463
f 464 465 466
f 467 468 469
f 470 471 472
f 473 474 475
f 473 475 476
f 477 470 478
f 479 480 481
f 482 483 484
f 485 486 487
f 488 489 490
f 491 492 493
f 494 495 496
f 497 498 499
f 500 501 502
f 503 504 505
f 506 507 508
f 509 487 510
f 511 512 513
f 465 514 515
f 516 517 518
f 519 520 521
f 480 479 522
f 523 524 525
f 526 527 528
f 467 529 468
f 530 531 532
f 478 472 533
f 480 534 535
f 536 537 538
f 539 540 541
f 542 543 544
f 545 546 459
f 547 548 549
f 550 551 552
f 553 508 554
f 555 556 557
f 558 469 559
f 560 511 561
f 562 563 564
f 565 566 567
f 568 569 570
f 571 572 573
f 574 575 523
f 576 577 578
f 579 580 581
f 582 571 583
f 584 478 585
f 586 587 588
f 589 590 591
f 592 536 593
f 514 562 594
f 540 539 595
f 543 499 596
f 546 597 560
f 453 598 532
f 565 567 599
f 556 452 600
f 601 462 602
f 459 560 603
f 604 605 606
f 607 608 609
f 510 610 611
f 612 613 614
f 615 616 617
f 618 619 620
f 527 526 621
f 573 622 623
f 575 624 524
f 625 620 619
f 583 573 626
f 587 627 628
f 629 630 615
f 631 482 632
f 613 612 534
f 487 509 633
f 634 635 636
f 637 497 543
f 638 639 640
f 501 641 642
f 504 643 644
f 645 646 647
f 648 649 650
f 512 651 652
f 605 653 654
f 655 656 657
f 538 537 485
f 578 658 659
f 660 479 661
f 622 584 662
f 624 582 663
f 664 557 665
f 663 583 666
f 667 495 668
f 629 669 630
f 670 671 581
f 486 485 592
f 657 672 655
f 595 673 674
f 675 676 677
f 667 496 495
f 678 679 512
f 638 680 639
f 508 507 681
f 506 682 552
f 683 684 685
f 686 458 687
f 462 601 688
f 689 690 691
f 692 693 694
f 669 695 696
f 697 618 698
f 668 496 667
f 572 699 622
f 700 701 702
f 703 614 613
f 704 705 706
f 524 663 707
f 480 535 708
f 483 589 709
f 467 558 487
f 492 710 711
f 679 712 651
f 490 489 713
f 682 503 550
f 598 500 530
f 714 657 656
f 650 715 648
f 499 686 716
f 717 491 718
f 719 675 720
f 671 721 722
f 526 586 723
f 699 477 584
f 724 725 726
f 660 495 700
f 471 574 727
f 627 660 728
f 729 730 731
f 590 631 732
f 541 733 734
f 635 717 735
f 712 637 542
f 641 555 664
f 643 553 736
f 736 554 737
f 738 545 458
f 651 542 739
f 710 461 740
f 717 635 672
f 563 464 741
f 742 599 567
f 743 744 489
f 472 727 745
f 700 702 660
f 744 713 489
f 724 726 746
f 727 523 747
f 486 592 748
f 635 634 672
f 498 738 686
f 597 678 511
f 749 750 751
f 507 506 752
f 753 689 451
f 754 755 753
f 450 756 754
f 757 758 449
f 450 449 759
f 759 449 758
f 755 760 761
f 762 763 764
f 468 762 765
f 548 766 753
f 767 768 764
f 690 689 753
f 761 760 768
f 578 548 755
f 565 694 693
f 565 693 566
f 742 769 599
f 770 771 609
f 568 772 773
f 608 770 609
f 774 770 608
f 775 771 776
f 777 518 608
f 778 776 771
f 608 518 742
f 609 771 775
f 692 694 779
f 780 518 776
f 518 517 776
f 692 774 608
f 780 769 742
f 565 779 694
f 771 781 782
f 783 773 779
f 781 771 770
f 784 692 742
f 742 518 780
f 565 599 769
f 771 782 778
f 774 692 779
f 779 565 769
f 785 786 787
f 788 789 790
f 791 792 594
f 793 794 795
f 796 797 798
f 799 796 800
f 801 570 802
f 803 804 551
f 805 806 807
f 808 801 786
f 809 810 798
f 811 812 810
f 594 812 515
f 795 813 814
f 815 808 786
f 816 817 791
f 737 554 810
f 818 803 819
f 820 821 817
f 814 822 823
f 799 800 788
f 824 825 826
f 827 820 816
f 466 752 741
f 828 741 752
f 819 551 829
f 796 798 810
f 816 830 831
f 794 810 832
f 790 833 834
f 741 828 564
f 811 554 681
f 789 833 790
f 814 813 822
f 814 823 835
f 800 789 788
f 752 812 681
f 836 837 720
f 808 815 838
f 794 832 839
f 840 809 798
f 808 841 801
f 837 842 843
f 772 570 844
f 813 794 839
f 787 786 827
f 837 820 827
f 819 829 845
f 802 827 801
f 786 801 827
f 828 831 830
f 846 824 793
f 839 832 809
f 466 515 812
f 811 810 554
f 792 847 812
f 552 828 752
f 805 834 833
f 848 846 795
f 793 826 810
f 834 805 807
f 828 594 564
f 813 795 794
f 818 845 849
f 804 785 831
f 815 803 818
f 551 804 828
f 811 681 812
f 837 836 821
f 803 815 785
f 812 847 800
f 826 737 810
f 832 810 809
f 570 801 844
f 695 616 782
f 850 696 782
f 851 617 616
f 734 674 673
f 733 852 674
f 673 850 782
f 853 854 855
f 853 856 857
f 858 855 854
f 854 853 857
f 859 860 858
f 858 860 855
f 854 857 722
f 858 861 859
f 861 858 854
f 611 862 863
f 610 862 611
f 802 570 864
f 611 863 864
f 862 610 865
f 842 863 862
f 863 842 802
f 862 865 843
f 827 802 842
f 866 867 856
f 868 532 869
f 870 454 868
f 871 872 873
f 874 875 876
f 877 878 870
f 581 879 880
f 875 867 866
f 881 870 878
f 569 882 866
f 883 484 709
f 630 884 885
f 886 887 878
f 630 888 615
f 709 591 870
f 853 866 856
f 889 884 890
f 875 874 891
f 892 893 894
f 895 896 889
f 867 891 897
f 872 876 882
f 898 871 896
f 883 600 632
f 883 557 600
f 569 568 882
f 897 883 709
f 889 665 895
f 591 732 600
f 868 454 532
f 867 899 856
f 900 879 857
f 632 484 883
f 869 532 531
f 853 569 866
f 732 632 600
f 874 898 901
f 900 856 899
f 880 879 900
f 891 901 883
f 884 896 902
f 901 898 895
f 889 890 903
f 884 889 896
f 876 866 882
f 898 874 872
f 868 869 870
f 454 870 600
f 904 905 894
f 896 871 906
f 894 893 899
f 881 904 709
f 907 900 893
f 878 877 908
f 875 866 876
f 857 879 581
f 901 665 557
f 505 909 829
f 644 909 505
f 910 607 775
f 775 607 609
f 889 903 642
f 502 642 903
f 665 889 642
f 665 642 664
f 911 912 913
f 914 915 916
f 913 912 917
f 918 919 920
f 921 922 923
f 914 924 925
f 922 921 926
f 918 927 919
f 922 928 911
f 915 914 929
f 930 919 931
f 912 911 920
f 932 928 925
f 924 933 934
f 932 714 927
f 912 935 917
f 917 935 930
f 714 932 934
f 933 703 701
f 918 920 932
f 936 931 927
f 924 937 938
f 920 919 930
f 911 928 932
f 939 940 913
f 941 703 933
f 928 922 929
f 940 923 913
f 942 923 940
f 924 914 916
f 940 939 943
f 927 931 919
f 944 945 946
f 947 796 944
f 936 927 656
f 945 944 796
f 714 656 927
f 944 946 656
f 948 656 946
f 936 656 948
f 949 950 951
f 952 953 954
f 955 956 957
f 955 958 959
f 955 957 960
f 961 962 963
f 964 965 966
f 957 967 965
f 954 953 958
f 963 967 968
f 968 957 956
f 955 969 958
f 965 964 951
f 954 951 952
f 967 963 962
f 967 957 968
f 951 954 969
f 950 952 951
f 964 970 949
f 967 962 966
f 650 971 715
f 972 973 974
f 975 976 977
f 916 978 746
f 979 939 715
f 980 981 982
f 972 975 725
f 983 724 978
f 984 985 986
f 987 988 981
f 989 982 981
f 974 990 976
f 983 980 991
f 992 993 991
f 994 981 988
f 986 985 995
f 982 989 992
f 973 725 724
f 978 996 980
f 724 746 978
f 704 997 977
f 981 994 650
f 983 998 999
f 705 704 976
f 998 974 999
f 977 997 726
f 992 995 1000
f 994 971 650
f 988 1001 979
f 915 978 916
f 725 975 977
f 983 999 724
f 996 987 981
f 1001 942 943
f 975 972 976
f 993 974 998
f 973 999 974
f 987 1001 988
f 943 939 979
f 990 974 993
f 915 926 996
f 926 921 987
f 987 921 942
f 1002 1003 1004
f 1002 976 1005
f 1006 1005 1007
f 990 1005 976
f 1008 647 646
f 645 1009 646
f 1010 1011 1012
f 1013 1014 1015
f 976 1002 705
f 1014 1013 1016
f 1017 1008 646
f 647 1008 1018
f 1019 1010 1012
f 1008 1017 1020
f 1006 1003 1002
f 1021 1022 1023
f 1024 1025 1013
f 1026 1023 645
f 1027 1003 1028
f 1021 1026 1029
f 1010 1030 1009
f 1012 1011 1023
f 1015 1014 1031
f 1022 1021 1016
f 1032 625 1027
f 1019 1033 1025
f 1033 1012 1022
f 990 1000 1007
f 1028 1006 1031
f 1034 1015 985
f 1025 1033 1016
f 1035 1024 985
f 1028 1032 1027
f 985 457 1035
f 1000 995 1015
f 1014 1021 1036
f 1034 985 1024
f 1011 1009 645
f 1015 995 985
f 1004 705 1002
f 1006 1028 1003
f 1032 1028 1036
f 1035 1019 1025
f 1037 1038 606
f 606 1039 521
f 1040 1039 606
f 1041 521 1039
f 1042 1043 519
f 654 1037 606
f 1038 1040 606
f 1044 521 1045
f 1045 521 1041
f 1046 1047 521
f 1048 1049 1050
f 521 1047 1051
f 683 1052 1050
f 1047 1046 1053
f 1054 1050 1055
f 1056 1048 1050
f 1057 606 1051
f 1051 1047 1058
f 1059 1056 1054
f 1060 1052 1061
f 685 1057 1051
f 1053 1062 1060
f 683 685 1061
f 1055 1050 1052
f 1062 1059 1055
f 683 1050 1049
f 1048 647 1063
f 647 1064 645
f 1064 647 1048
f 1018 1063 647
f 1064 1048 1056
f 1026 645 1064
f 1026 1064 1065
f 1066 487 1067
f 558 1067 487
f 610 510 1066
f 487 1066 510
f 510 751 750
f 633 509 750
f 751 510 731
f 1068 1069 807
f 945 796 1070
f 1071 952 950
f 959 958 790
f 1071 945 1070
f 958 953 788
f 958 788 790
f 834 807 1069
f 1069 959 834
f 959 790 834
f 1070 796 799
f 1072 1068 807
f 807 806 1072
f 1073 1072 806
f 952 1070 953
f 799 788 953
f 737 826 825
f 825 1074 1075
f 737 1075 1074
f 829 909 1074
f 1076 1077 1078
f 488 490 1078
f 1076 1079 640
f 1080 640 639
f 1079 1078 490
f 677 1066 836
f 720 677 836
f 833 757 1081
f 847 756 759
f 1082 1083 1084
f 1085 1086 1087
f 1086 1085 1088
f 1084 1083 1086
f 1089 1090 1091
f 833 789 757
f 805 833 1081
f 1092 1073 1087
f 1093 1082 1094
f 1095 1092 1093
f 1093 1087 1083
f 1083 1087 1086
f 1096 1091 1094
f 792 1097 756
f 806 805 1085
f 1095 1090 654
f 792 791 1097
f 789 800 759
f 1082 1098 1099
f 1091 1090 1094
f 1073 806 1085
f 789 758 757
f 654 1090 1089
f 1081 1085 805
f 1100 1101 1102
f 1103 1104 1102
f 1105 1106 1107
f 1108 1102 1106
f 1106 1101 1107
f 1101 1109 1110
f 1111 1103 1108
f 1102 1108 1103
f 1010 1019 1108
f 1069 456 959
f 1068 1109 1100
f 1105 1112 1113
f 605 1110 1095
f 959 455 1114
f 1103 1111 457
f 1108 1019 1111
f 456 1069 1104
f 1107 1110 605
f 1068 1100 1104
f 1010 1106 1105
f 1101 1106 1102
f 1112 1107 604
f 1109 1101 1100
f 1107 605 604
f 1100 1102 1104
f 455 959 456
f 1106 1010 1108
f 1105 1107 1112
f 1086 1115 1084
f 1084 1115 1116
f 1098 1076 1080
f 1096 1099 1080
f 1116 1115 549
f 1086 547 549
f 1098 1084 1077
f 1088 547 1086
f 1088 1117 548
f 1044 1045 1118
f 1119 1120 1045
f 1121 1039 1040
f 1118 1045 1120
f 1039 1121 1119
f 1037 1122 1038
f 1123 1124 1040
f 1122 1123 1038
f 1125 549 548
f 1126 1125 548
f 1127 1078 1077
f 659 1126 548
f 549 1125 1116
f 488 1078 1127
f 1126 1127 1116
f 1126 659 1128
f 606 1129 604
f 1112 604 684
f 604 1129 684
f 1113 1112 684
f 685 684 1129
f 606 1057 1129
f 959 1114 956
f 956 1114 968
f 1020 1018 1008
f 683 1130 684
f 1020 1130 683
f 1113 1130 1020
f 1113 684 1130
f 1018 1020 683
f 710 1131 461
f 1132 1133 1131
f 710 492 1134
f 1135 1133 1132
f 602 1133 1135
f 710 1136 1131
f 496 1134 492
f 710 1134 1136
f 462 461 1133
f 1135 1137 602
f 461 1131 1133
f 1138 1139 1140
f 1141 1142 1140
f 476 1143 1144
f 1145 680 713
f 1145 1146 1147
f 1148 713 1142
f 1142 1141 1149
f 1138 1140 476
f 1148 1150 1151
f 476 1140 1142
f 1146 1145 1151
f 680 1147 1091
f 1152 1153 1154
f 1154 1153 513
f 1155 1156 739
f 716 687 1157
f 1153 1158 561
f 1152 1159 1157
f 1152 1158 1153
f 1160 1157 687
f 1152 1157 1160
f 1161 1160 460
f 1152 1162 1159
f 1152 1160 1161
f 1158 1161 603
f 1152 1156 1155
f 1162 1155 544
f 1152 1161 1158
f 1152 1155 1162
f 1159 1162 596
f 1152 1154 1156
f 1156 1154 652
f 1163 1164 717
f 1165 701 1166
f 491 1164 1166
f 1165 1166 1164
f 1164 1163 1165
f 491 1166 495
f 491 717 1164
f 1167 1165 1163
f 1167 701 1165
f 655 822 1168
f 672 1169 655
f 1169 672 634
f 655 1169 1170
f 634 1171 1170
f 822 655 1170
f 1172 1170 1171
f 1169 634 1170
f 738 498 493
f 712 679 1173
f 498 497 718
f 678 597 688
f 637 712 636
f 679 678 1174
f 546 545 740
f 597 546 463
f 497 637 735
f 545 738 711
f 601 1175 688
f 688 1175 1174
f 1172 1174 1175
f 1176 1132 1131
f 1177 1176 1136
f 1136 1176 1131
f 673 595 1178
f 1179 1180 1181
f 595 1179 1178
f 595 1180 1179
f 1180 595 539
f 1176 1182 1132
f 1183 1179 1181
f 1178 1182 1184
f 1135 1132 1183
f 1179 1183 1182
f 1135 1183 1185
f 673 1178 850
f 1182 1176 1177
f 1182 1183 1132
f 1178 1186 850
f 1187 1188 1074
f 539 1188 1187
f 1074 825 1180
f 1137 848 835
f 846 848 1137
f 1188 845 829
f 835 602 1137
f 845 1188 1189
f 841 844 801
f 841 838 1190
f 824 846 1185
f 838 818 1191
f 829 1074 1188
f 539 1187 1180
f 1188 539 1192
f 539 541 1192
f 825 824 1181
f 779 773 1190
f 1192 541 781
f 781 770 1189
f 734 781 541
f 774 779 1191
f 781 734 782
f 773 772 844
f 770 774 849
f 813 1168 822
f 1168 813 839
f 1168 839 840
f 1193 947 656
f 797 947 1193
f 947 944 656
f 656 1168 1193
f 947 797 796
f 1168 656 655
f 949 970 930
f 715 939 961
f 946 949 930
f 917 930 970
f 1194 917 970
f 939 962 961
f 962 939 1194
f 1042 1044 1195
f 1122 1146 1151
f 1138 1118 1120
f 1121 1149 1141
f 1195 1118 1138
f 1149 1121 1124
f 1150 1124 1123
f 1119 1141 1139
f 1089 1122 1037
f 1122 1089 1147
f 1195 1044 1118
f 654 1089 1037
f 653 605 1095
f 1095 654 653
f 1109 1068 1072
f 1109 1072 1110
f 490 713 1079
f 640 713 638
f 638 713 680
f 1079 713 640
f 1196 1197 562
f 1198 1196 514
f 1198 1199 1196
f 1199 1200 1196
f 1197 1196 1200
f 852 540 595
f 852 595 674
f 541 540 852
f 715 961 648
f 648 961 963
f 963 968 1114
f 1114 648 963
f 494 492 491
f 492 494 496
f 587 1134 627
f 587 1201 1136
f 587 1136 1134
f 627 1134 496
f 1202 535 534
f 1203 1204 1205
f 1206 1205 612
f 535 1205 1204
f 612 1205 1202
f 534 612 1202
f 1202 1205 535
f 612 1207 1206
f 704 706 1208
f 1209 1210 1211
f 1210 1212 1213
f 1214 1215 1216
f 1208 1217 1218
f 1219 1214 625
f 1210 1220 1211
f 1217 1213 1212
f 1221 1222 1223
f 1003 1027 1224
f 1219 619 618
f 1225 1212 1210
f 520 1226 697
f 1212 1225 1227
f 1224 1004 1003
f 1228 1229 1225
f 1216 1224 1027
f 1213 1217 1208
f 1209 1211 1215
f 997 704 1208
f 1229 1227 1225
f 1228 1230 1231
f 1004 1224 1221
f 1214 1216 1027
f 1213 706 1221
f 1220 1222 1211
f 1211 1222 1216
f 1219 697 1226
f 1004 1221 706
f 1226 1215 1214
f 1216 1215 1211
f 1213 1208 706
f 1220 1210 1213
f 1220 1223 1222
f 1224 1216 1222
f 1222 1221 1224
f 1232 1233 1234
f 1235 1236 1237
f 1238 1239 1240
f 1232 1241 1240
f 1242 1243 1235
f 1244 1242 1245
f 1242 1246 1245
f 1239 1245 1246
f 1240 1239 1233
f 878 1238 1240
f 1247 1244 1245
f 1248 1234 1237
f 1208 1218 1232
f 1238 1245 1239
f 1232 1218 1241
f 1233 1237 1234
f 886 1240 1241
f 1247 1238 878
f 1235 1243 1249
f 1246 1237 1233
f 1236 1248 1237
f 746 1250 916
f 1236 1235 1249
f 1250 1251 1252
f 726 1251 1250
f 916 1252 1249
f 1251 997 1248
f 937 1249 938
f 937 916 1249
f 997 1251 726
f 916 1250 1252
f 1236 1252 1251
f 1251 1248 1236
f 746 726 1250
f 1234 1248 997
f 1208 1234 997
f 467 487 1253
f 579 1253 487
f 859 579 748
f 487 748 579
f 861 580 859
f 579 859 580
f 629 615 617
f 851 695 669
f 669 629 851
f 566 784 567
f 742 567 784
f 1254 1255 1256
f 1257 1258 1255
f 1256 1255 1258
f 1257 1255 590
f 1255 1254 631
f 904 1259 905
f 1260 1261 1262
f 1259 904 881
f 887 1260 1262
f 1263 881 887
f 767 1264 1265
f 762 1266 1267
f 468 529 1266
f 763 1267 1264
f 1268 578 1269
f 1270 1271 1269
f 1270 761 1265
f 473 476 713
f 1272 474 713
f 474 473 713
f 744 1272 713
f 1273 531 1274
f 890 1275 1273
f 1276 890 884
f 890 1274 531
f 630 1276 884
f 1273 869 531
f 1275 1277 1278
f 630 669 1276
f 1273 1278 1279
f 1277 1275 1280
f 1275 890 1276
f 1281 1053 1046
f 520 1281 1282
f 520 1282 521
f 521 1282 1046
f 697 1281 520
f 1209 1230 1225
f 1209 1225 1210
f 1241 1218 1260
f 1217 1212 1283
f 1218 1217 1284
f 1283 1212 1227
f 1260 1218 1284
f 1283 1284 1217
f 1285 1286 1287
f 1287 1268 1285
f 1261 1285 1268
f 1268 1269 1261
f 1288 1128 659
f 743 489 488
f 1272 1289 1290
f 1290 475 474
f 1291 1289 1272
f 743 1292 744
f 1272 744 1292
f 1284 1285 1261
f 1042 1195 1293
f 1229 1228 1294
f 1295 1296 1297
f 1286 1298 1295
f 1231 1042 1293
f 1227 1286 1283
f 1297 1296 1291
f 1298 1294 1299
f 1143 1300 1293
f 1293 1195 1144
f 1299 1294 1293
f 1228 1231 1293
f 1295 1301 1296
f 1295 1287 1286
f 1301 1295 1298
f 576 1295 1297
f 1285 1283 1286
f 1302 1299 1300
f 1227 1229 1298
f 1301 1299 1302
f 1284 1261 1260
f 1143 1303 1304
f 1283 1285 1284
f 1226 1230 1215
f 1231 519 1043
f 519 1231 1230
f 519 1230 1226
f 1242 1244 1305
f 1305 1243 1242
f 1305 1244 1247
f 1243 938 1249
f 1305 941 1243
f 941 938 1243
f 1207 612 614
f 1306 1307 1308
f 1306 878 908
f 614 1307 1207
f 1306 1308 878
f 1307 614 1308
f 1309 1206 1207
f 1247 1308 614
f 1306 908 1310
f 1207 1311 1309
f 1247 878 1308
f 1247 614 1305
f 1311 1207 1307
f 703 941 614
f 941 1305 614
f 527 1312 1313
f 1312 1314 1313
f 1203 1313 1314
f 1315 1316 869
f 1317 1318 1319
f 886 1241 887
f 1279 1315 869
f 887 1241 1260
f 1320 1319 1309
f 1278 1320 1279
f 1309 1279 1320
f 1316 1310 908
f 1319 1321 1206
f 1315 1311 1310
f 1319 1206 1309
f 1277 1317 1320
f 1321 1319 1318
f 1316 877 869
f 1309 1311 1279
f 1279 1311 1315
f 669 1322 1280
f 1322 1323 1324
f 669 1325 1322
f 696 1325 669
f 1326 1325 1186
f 1323 1322 1325
f 1327 1326 1184
f 1327 1328 1326
f 669 1280 1276
f 1326 1328 1323
f 1322 1329 1280
f 1330 1323 1328
f 1325 850 1186
f 1323 1330 1331
f 696 850 1325
f 776 778 888
f 783 769 906
f 568 783 873
f 769 780 902
f 780 776 885
f 1332 1333 747
f 1334 1335 1336
f 1334 1337 1338
f 1336 1335 626
f 1334 1339 1335
f 1334 1338 1340
f 1340 1338 585
f 1334 1340 1341
f 1335 1339 666
f 1334 1336 1337
f 1338 1337 662
f 1337 1336 623
f 1334 1333 1332
f 1334 1342 1339
f 1334 1332 1342
f 1341 1340 533
f 1342 1332 525
f 707 666 1339
f 1333 1341 745
f 1334 1341 1333
f 1177 1136 1327
f 586 1343 1201
f 1136 1201 1327
f 1344 1330 1343
f 1328 1201 1343
f 1327 1201 1328
f 1330 1328 1343
f 1330 1344 1331
f 587 586 1201
f 586 526 1344
f 477 699 728
f 575 574 1314
f 574 471 708
f 572 571 588
f 699 572 628
f 582 624 621
f 571 582 723
f 470 477 661
f 471 470 481
f 624 575 1312
f 1313 1321 528
f 1321 1205 1206
f 527 1313 528
f 1321 1203 1205
f 1203 1321 1313
f 1345 522 1346
f 522 479 1347
f 1346 702 701
f 1345 1346 701
f 660 1347 479
f 660 702 1347
f 1346 1347 702
f 1347 1346 522
f 859 748 593
f 593 538 729
f 538 751 729
f 729 860 593
f 625 1032 1348
f 625 1348 620
f 1348 1032 1029
f 1059 1348 1065
f 577 1297 1349
f 658 578 1350
f 658 1350 1351
f 1351 1350 1352
f 1292 1351 1349
f 1292 743 1288
f 577 1349 1352
f 1350 578 1352
f 1352 578 577
f 1268 1287 576
f 1287 1295 576
f 721 671 1353
f 670 1353 671
f 1266 907 892
f 1264 1267 892
f 1262 1269 1354
f 1269 1271 1263
f 1265 1264 905
f 1266 529 880
f 1262 1261 1269
f 1259 1263 1271
f 1304 1303 475
f 1296 1302 1289
f 1289 1302 1304
f 1053 1281 698
f 698 1062 1053
f 698 1281 697
f 1059 1355 620
f 1059 620 1348
f 618 620 1355
f 703 613 1345
f 534 522 1345
f 1314 708 1204
f 1203 1314 1204
f 535 1204 708
f 528 1331 1344
f 1317 1277 1329
f 528 1318 1331
f 1318 1317 1324
f 888 778 615
f 616 615 778
f 778 782 616
f 855 864 570
f 860 611 864
f 1258 1257 589
f 1256 1258 483
f 1254 1256 482
f 1353 670 580
f 721 1353 861
f 518 777 516
f 910 516 777
f 750 749 633
f 633 749 487
f 668 627 496
f 627 668 495
f 986 992 1356
f 1356 992 989
f 984 1357 985
f 649 1356 989
f 1114 455 985
f 1357 648 1114
f 457 985 455
f 984 986 1356
f 984 649 648
f 1358 719 843
f 676 1358 865
f 865 610 677
f 1066 677 610
f 1200 1199 464
f 1197 1200 563
f 1199 1198 465
f 1030 1017 1009
f 1030 1113 1020
f 1020 1017 1030
f 757 1117 1081
f 1088 1081 1117
f 1081 1088 1085
f 1172 1171 1174
f 634 1173 1171
f 1174 1171 1173
f 1166 700 495
f 700 1166 701
f 1175 601 835
f 823 822 1170
f 1172 1175 823
f 823 1170 1172
f 821 1359 1360
f 1360 1361 791
f 559 1359 821
f 1361 1362 1097
f 756 1097 1362
f 1092 1095 1110
f 1073 1092 1110
f 1067 558 559
f 1066 1067 559
f 760 755 754
f 1360 764 768
f 1359 765 764
f 559 469 765
f 1361 768 760
f 1018 683 1049
f 1048 1063 1049
f 936 948 931
f 931 948 946
f 903 531 502
f 530 502 531
f 775 517 516
f 910 775 516
f 551 550 505
f 505 829 551
f 1117 766 548
f 690 766 1117
f 757 449 1117
f 449 691 1117
f 553 643 504
f 553 503 682
f 910 777 607
f 608 607 777
f 453 452 556
f 641 501 500
f 500 598 556
f 676 675 1358
f 719 1358 675
f 1096 639 680
f 1091 1096 680
f 1111 1035 457
f 1035 1111 1019
f 1163 672 657
f 657 714 701
f 946 945 1071
f 950 946 1071
f 946 950 949
f 1303 476 475
f 1143 476 1303
f 592 537 536
f 537 592 485
f 467 1253 529
f 1253 579 880
f 618 1355 698
f 1355 1059 1062
f 566 693 784
f 692 784 693
f 737 909 644
f 737 644 736
f 1 3 9
f 4 2 1
f 6 8 12
f 9 7 6
f 7 2 5
f 7 5 11
f 7 11 8
f 10 1 9
f 10 9 6
f 10 6 12
f 10 5 4
f 12 11 10
f 13 15 21
f 16 14 13
f 18 20 24
f 21 19 18
f 19 14 17
f 19 17 23
f 19 23 20
f 22 13 21
f 22 21 18
f 22 18 24
f 22 17 16
f 24 23 22
f 25 27 40
f 28 30 33
f 31 29 28
f 31 33 35
f 31 35 39
f 31 39 37
f 31 37 25
f 31 25 40
f 33 34 35
f 35 36 39
f 37 26 25
f 39 38 37
f 40 32 31
f 26 36 34
f 26 34 30
f 26 30 29
f 26 29 32
f 26 32 27
f 41 43 46
f 44 46 43
f 47 45 44
f 47 44 55
f 47 55 54
f 49 41 51
f 49 51 57
f 49 57 52
f 45 50 46
f 51 46 50
f 49 53 56
f 54 56 53
f 57 50 58
f 48 58 50
f 47 53 58
f 52 58 53
f 55 43 56
f 42 56 43
f 59 61 64
f 62 64 61
f 65 67 70
f 68 70 67
f 69 72 70
f 73 70 72
f 63 67 64
f 66 64 67
f 74 72 76
f 71 76 72
f 65 74 60
f 65 60 59
f 65 59 66
f 63 75 71
f 63 71 69
f 63 69 68
f 75 61 76
f 60 76 61
f 77 79 81
f 82 84 86
f 82 86 78
f 82 78 77
f 85 83 90
f 86 88 78
f 82 90 83
f 78 91 79
f 79 92 80
f 86 85 87
f 80 93 81
f 81 94 77
f 77 89 82
f 88 93 91
f 87 90 89
f 87 89 94
f 87 94 88
f 95 97 98
f 98 99 109
f 100 102 103
f 103 104 116
f 105 107 108
f 108 101 100
f 98 110 114
f 98 114 115
f 98 115 95
f 111 113 99
f 111 99 97
f 111 97 96
f 114 111 115
f 115 96 95
f 116 117 118
f 118 106 105
f 118 108 100
f 118 100 103
f 118 103 116
f 102 107 106
f 102 106 117
f 102 117 104
f 109 113 110
f 110 112 114
f 122 124 126
f 128 130 135
f 131 132 124
f 121 133 132
f 134 135 138
f 140 138 137
f 126 132 127
f 129 137 130
f 120 138 133
f 143 123 130
f 127 133 139
f 144 123 122
f 139 138 141
f 142 124 123
f 145 147 151
f 148 150 155
f 151 152 156
f 153 146 145
f 155 156 152
f 157 159 161
f 154 158 157
f 162 164 186
f 165 167 169
f 152 168 183
f 169 162 185
f 146 157 170
f 168 171 174
f 172 159 173
f 173 158 180
f 174 176 179
f 174 179 181
f 174 181 168
f 148 177 182
f 164 178 184
f 164 184 183
f 164 183 187
f 179 145 181
f 171 160 172
f 167 163 162
f 182 166 165
f 177 184 166
f 175 173 176
f 185 186 188
f 170 161 171
f 147 170 168
f 168 187 183
f 180 153 145
f 174 172 175
f 188 150 149
f 176 180 179
f 166 178 167
f 155 183 177
f 151 187 181
f 188 165 185
f 149 182 188
f 186 187 150
f 189 191 206
f 192 194 224
f 196 198 201
f 199 193 192
f 201 202 214
f 203 205 219
f 208 210 225
f 195 212 190
f 216 214 213
f 207 218 220
f 219 220 218
f 197 221 227
f 195 206 207
f 209 223 210
f 224 225 223
f 228 213 202
f 217 231 233
f 234 229 203
f 191 196 218
f 190 221 191
f 233 230 199
f 217 199 214
f 223 219 224
f 222 203 223
f 212 226 221
f 214 192 201
f 219 196 201
f 219 201 192
f 219 192 224
f 235 204 229
f 227 220 197
f 211 207 227
f 204 194 205
f 236 225 204
f 215 227 226
f 193 197 220
f 193 220 205
f 193 205 194
f 231 202 200
f 200 198 193
f 232 200 230
f 236 222 208
f 242 237 239
f 239 248 242
f 242 252 243
f 246 253 254
f 254 256 246
f 264 237 243
f 264 243 252
f 266 268 282
f 267 270 268
f 269 274 270
f 275 272 281
f 273 277 274
f 237 279 241
f 280 241 281
f 279 281 241
f 280 272 271
f 264 282 265
f 274 278 272
f 261 238 262
f 284 251 285
f 257 240 285
f 247 240 286
f 284 240 261
f 279 268 275
f 277 288 278
f 278 256 255
f 276 287 277
f 244 290 245
f 284 263 290
f 290 259 291
f 245 291 253
f 258 238 241
f 249 276 250
f 286 252 247
f 257 273 269
f 269 286 257
f 260 263 262
f 258 291 259
f 296 298 327
f 299 301 344
f 302 304 342
f 316 318 327
f 319 318 354
f 324 326 362
f 303 327 304
f 328 330 344
f 335 337 371
f 341 342 330
f 343 344 354
f 345 301 342
f 347 349 304
f 353 354 318
f 346 349 301
f 348 298 349
f 361 362 376
f 355 304 349
f 356 327 298
f 300 342 301
f 369 294 293
f 325 371 326
f 297 354 298
f 375 344 330
f 317 330 318
f 336 376 337
f 361 335 324
f 344 371 337
f 301 326 371
f 354 337 376
f 349 362 326
f 298 376 362
f 377 312 295
f 378 297 296
f 379 367 331
f 382 385 383
f 389 390 379
f 391 359 322
f 322 393 394
f 383 392 391
f 394 328 343
f 386 395 396
f 396 358 357
f 397 363 399
f 295 400 377
f 294 307 295
f 377 319 297
f 370 401 294
f 403 306 305
f 405 404 403
f 407 313 409
f 410 374 366
f 366 412 413
f 390 411 410
f 413 355 346
f 414 373 372
f 387 415 414
f 416 338 340
f 418 417 416
f 402 403 401
f 401 305 307
f 392 357 359
f 385 396 392
f 420 308 310
f 422 421 420
f 411 372 374
f 388 414 411
f 339 424 427
f 425 399 426
f 426 352 339
f 365 304 327
f 427 347 365
f 306 378 430
f 406 429 404
f 404 312 306
f 430 296 320
f 320 327 318
f 358 431 433
f 384 432 395
f 395 334 358
f 329 318 330
f 433 353 329
f 368 330 342
f 434 375 368
f 436 315 309
f 309 435 434
f 437 409 436
f 373 438 439
f 389 331 415
f 415 333 373
f 364 342 304
f 439 345 364
f 425 441 397
f 407 422 442
f 438 346 345
f 333 413 438
f 435 299 375
f 315 443 435
f 431 343 353
f 334 394 431
f 352 444 424
f 424 348 347
f 421 309 308
f 423 436 421
f 417 339 338
f 419 426 417
f 380 410 367
f 381 391 321
f 428 402 370
f 393 329 328
f 433 359 358
f 439 374 373
f 412 364 355
f 398 445 363
f 408 446 313
f 444 356 348
f 351 447 444
f 441 416 445
f 445 340 351
f 428 293 429
f 382 321 432
f 360 448 443
f 443 300 299
f 446 310 360
f 442 420 446
f 310 434 448
f 448 368 300
f 447 365 356
f 427 340 339
f 430 307 306
f 400 320 319
f 449 451 691
f 452 454 600
f 458 460 687
f 461 463 740
f 464 466 741
f 467 469 558
f 470 472 478
f 477 478 584
f 479 481 661
f 482 484 632
f 485 487 749
f 491 493 718
f 497 499 543
f 500 502 530
f 503 505 550
f 506 508 682
f 511 513 561
f 465 515 466
f 480 522 534
f 523 525 747
f 526 528 1344
f 478 533 585
f 536 538 593
f 542 544 739
f 545 459 458
f 553 554 736
f 555 557 664
f 560 561 603
f 562 564 594
f 568 570 772
f 571 573 583
f 574 523 727
f 579 581 880
f 582 583 663
f 584 585 662
f 586 588 723
f 589 591 709
f 592 593 748
f 514 594 515
f 543 596 544
f 546 560 459
f 453 532 454
f 556 600 557
f 601 602 835
f 459 603 460
f 510 611 731
f 527 621 1312
f 573 623 626
f 575 524 523
f 583 626 666
f 587 628 588
f 631 632 732
f 634 636 1173
f 637 543 542
f 501 642 502
f 504 644 505
f 512 652 513
f 538 485 749
f 578 659 548
f 660 661 728
f 622 662 623
f 624 663 524
f 663 666 707
f 670 581 580
f 675 677 720
f 678 512 511
f 508 681 554
f 506 552 752
f 686 687 716
f 462 688 463
f 689 691 451
f 572 622 573
f 524 707 525
f 480 708 481
f 483 709 484
f 492 711 493
f 679 651 512
f 682 550 552
f 598 530 532
f 499 716 596
f 717 718 735
f 719 720 843
f 671 722 581
f 526 723 621
f 699 584 622
f 471 727 472
f 627 728 628
f 729 731 611
f 729 611 860
f 590 732 591
f 635 735 636
f 712 542 651
f 641 664 642
f 643 736 644
f 738 458 686
f 651 739 652
f 710 740 711
f 717 672 1163
f 563 741 564
f 472 745 533
f 727 747 745
f 486 748 487
f 498 686 499
f 597 511 560
f 749 751 538
f 507 752 681
f 753 451 754
f 450 754 451
f 450 759 756
f 755 761 1270
f 762 764 765
f 468 765 469
f 548 753 755
f 767 764 763
f 690 753 766
f 761 768 767
f 578 755 1270
f 568 773 783
f 775 776 517
f 608 742 692
f 783 779 769
f 785 787 831
f 791 594 830
f 803 551 819
f 815 786 785
f 816 791 830
f 818 819 845
f 820 817 816
f 824 826 793
f 827 816 787
f 796 810 812
f 816 831 787
f 814 835 848
f 808 838 841
f 840 798 797
f 837 843 720
f 837 827 842
f 828 830 594
f 846 793 795
f 839 809 840
f 466 812 752
f 792 812 594
f 848 795 814
f 793 810 794
f 818 849 1191
f 804 831 828
f 815 818 838
f 551 828 552
f 837 821 820
f 803 785 804
f 812 800 796
f 695 782 696
f 851 616 695
f 734 673 782
f 733 674 734
f 853 855 569
f 854 722 861
f 802 864 863
f 862 843 842
f 871 873 906
f 874 876 872
f 877 870 869
f 881 878 887
f 630 885 888
f 875 891 867
f 892 894 905
f 867 897 899
f 872 882 873
f 898 896 895
f 897 709 894
f 591 600 870
f 900 857 856
f 874 901 891
f 900 899 893
f 880 900 907
f 891 883 897
f 884 902 885
f 901 895 665
f 898 872 871
f 904 894 709
f 896 906 902
f 894 899 897
f 881 709 870
f 907 893 892
f 857 581 722
f 901 557 883
f 911 913 923
f 913 917 1194
f 921 923 942
f 914 925 929
f 922 926 929
f 922 911 923
f 915 929 926
f 912 920 935
f 932 925 934
f 924 934 925
f 932 927 918
f 714 934 701
f 933 701 934
f 924 938 933
f 920 930 935
f 911 932 920
f 939 913 1194
f 941 933 938
f 928 929 925
f 942 940 943
f 924 916 937
f 949 951 964
f 955 959 956
f 955 960 969
f 964 966 970
f 957 965 960
f 954 958 969
f 965 951 960
f 951 969 960
f 967 966 965
f 979 715 971
f 980 982 991
f 972 725 973
f 974 976 972
f 983 991 998
f 992 991 982
f 994 988 971
f 986 995 992
f 973 724 999
f 978 980 983
f 704 977 976
f 981 650 989
f 992 1000 993
f 988 979 971
f 725 977 726
f 996 981 980
f 1001 943 979
f 993 998 991
f 990 993 1000
f 915 996 978
f 926 987 996
f 987 942 1001
f 1006 1007 1031
f 1013 1015 1034
f 1014 1016 1021
f 1017 646 1009
f 1019 1012 1033
f 1006 1002 1005
f 1021 1023 1026
f 1024 1013 1034
f 1021 1029 1036
f 1010 1009 1011
f 1012 1023 1022
f 1015 1031 1007
f 1033 1022 1016
f 990 1007 1005
f 1028 1031 1036
f 1025 1016 1013
f 1000 1015 1007
f 1014 1036 1031
f 1011 645 1023
f 1032 1036 1029
f 1035 1025 1024
f 1042 519 521
f 1042 521 1044
f 654 606 605
f 521 1051 606
f 1047 1053 1058
f 1056 1050 1054
f 1051 1058 1061
f 1059 1054 1055
f 1060 1061 1058
f 685 1051 1061
f 1053 1060 1058
f 683 1061 1052
f 1055 1052 1060
f 1062 1055 1060
f 1064 1056 1065
f 1026 1065 1029
f 510 750 509
f 751 731 730
f 751 730 729
f 1071 1070 952
f 1070 799 953
f 825 1075 737
f 737 1074 909
f 1076 1078 1079
f 1076 640 1080
f 847 759 800
f 1082 1084 1098
f 1089 1091 1147
f 1092 1087 1093
f 1093 1094 1090
f 1095 1093 1090
f 1093 1083 1082
f 1096 1094 1099
f 792 756 847
f 789 759 758
f 1082 1099 1094
f 1073 1085 1087
f 1101 1110 1107
f 1105 1113 1030
f 1103 457 456
f 456 1104 1103
f 1068 1104 1069
f 1010 1105 1030
f 1084 1116 1077
f 1098 1080 1099
f 1096 1080 639
f 1086 549 1115
f 1098 1077 1076
f 1088 548 547
f 1119 1045 1041
f 1121 1040 1124
f 1039 1119 1041
f 1123 1040 1038
f 1127 1077 1116
f 488 1127 1128
f 1126 1116 1125
f 1126 1128 1127
f 685 1129 1057
f 462 1133 602
f 1141 1140 1139
f 1145 713 1148
f 1145 1147 680
f 1142 1149 1150
f 1142 1150 1148
f 1138 476 1144
f 1148 1151 1145
f 476 1142 713
f 1154 513 652
f 1155 739 544
f 716 1157 1159
f 1153 561 513
f 1160 687 460
f 1161 460 603
f 1158 603 561
f 1162 544 596
f 1159 596 716
f 1156 652 739
f 738 493 711
f 712 1173 636
f 498 718 493
f 678 688 1174
f 637 636 735
f 679 1174 1173
f 546 740 463
f 597 463 688
f 497 735 718
f 545 711 740
f 1183 1181 1185
f 1178 1184 1186
f 1179 1182 1178
f 1135 1185 1137
f 1182 1177 1184
f 1074 1180 1187
f 846 1137 1185
f 845 1189 849
f 841 1190 844
f 824 1185 1181
f 838 1191 1190
f 1188 1192 1189
f 825 1181 1180
f 779 1190 1191
f 781 1189 1192
f 774 1191 849
f 773 844 1190
f 770 849 1189
f 1168 840 1193
f 797 1193 840
f 1194 970 966
f 962 1194 966
f 1122 1151 1123
f 1138 1120 1139
f 1121 1141 1119
f 1195 1138 1144
f 1149 1124 1150
f 1150 1123 1151
f 1119 1139 1120
f 1122 1147 1146
f 1196 562 514
f 1198 514 465
f 541 852 733
f 494 491 495
f 1219 625 619
f 1219 618 697
f 1228 1225 1230
f 1209 1215 1230
f 1214 1027 625
f 1213 1221 1223
f 1004 706 705
f 1226 1214 1219
f 1220 1213 1223
f 1232 1234 1208
f 1235 1237 1246
f 1242 1235 1246
f 1240 1233 1232
f 878 1240 886
f 1247 1245 1238
f 1246 1233 1239
f 1236 1249 1252
f 629 617 851
f 1257 590 589
f 1255 631 590
f 1259 881 1263
f 887 1262 1354
f 1263 887 1354
f 767 1265 761
f 762 1267 763
f 468 1266 762
f 763 1264 767
f 1270 1269 578
f 1270 1265 1271
f 1273 1274 890
f 890 531 903
f 1275 1278 1273
f 1273 1279 869
f 1277 1280 1329
f 1275 1276 1280
f 1281 1046 1282
f 1288 659 658
f 743 488 1128
f 743 1128 1288
f 1272 1290 474
f 1291 1272 1292
f 1229 1294 1298
f 1297 1291 1349
f 1298 1299 1301
f 1293 1144 1143
f 1299 1293 1300
f 1228 1293 1294
f 576 1297 577
f 1302 1300 1304
f 1227 1298 1286
f 1301 1302 1296
f 1143 1304 1300
f 1231 1043 1042
f 519 1226 520
f 1306 1310 1307
f 1311 1307 1310
f 1317 1319 1320
f 1316 908 877
f 1315 1310 1316
f 1277 1320 1278
f 1321 1318 528
f 1322 1324 1329
f 1326 1186 1184
f 1323 1325 1326
f 1327 1184 1177
f 1323 1331 1324
f 776 888 885
f 783 906 873
f 568 873 882
f 769 902 906
f 780 885 902
f 1332 747 525
f 1336 626 623
f 1340 585 533
f 1335 666 626
f 1338 662 585
f 1337 623 662
f 1341 533 745
f 1342 525 707
f 707 1339 1342
f 1333 745 747
f 586 1344 1343
f 477 728 661
f 575 1314 1312
f 574 708 1314
f 572 588 628
f 699 628 728
f 582 621 723
f 571 723 588
f 470 661 481
f 471 481 708
f 624 1312 621
f 859 593 860
f 1348 1029 1065
f 1059 1065 1056
f 658 1351 1288
f 1351 1352 1349
f 1292 1349 1291
f 1292 1288 1351
f 1268 576 578
f 1266 892 1267
f 1264 892 905
f 1269 1263 1354
f 1265 905 1259
f 1266 880 907
f 1259 1271 1265
f 1304 475 1290
f 1296 1289 1291
f 1289 1304 1290
f 703 1345 701
f 534 1345 613
f 1317 1329 1324
f 1318 1324 1331
f 855 570 569
f 860 864 855
f 1258 589 483
f 1256 483 482
f 1254 482 631
f 1353 580 861
f 721 861 722
f 627 495 660
f 649 989 650
f 1114 985 1357
f 984 1356 649
f 984 648 1357
f 1358 843 865
f 676 865 677
f 1200 464 563
f 1197 563 562
f 1199 465 464
f 1175 835 823
f 821 1360 817
f 1360 791 817
f 559 821 836
f 1361 1097 791
f 756 1362 754
f 1073 1110 1072
f 1066 559 836
f 760 754 1362
f 1360 768 1361
f 1359 764 1360
f 559 765 1359
f 1361 760 1362
f 1018 1049 1063
f 931 946 930
f 690 1117 691
f 553 504 503
f 553 682 508
f 453 556 598
f 641 500 555
f 500 556 555
f 1163 657 1167
f 657 701 1167
f 1253 880 529
f 1355 1062 698
