# Original shape: m1330.obj
# No processing applied - exact copy of source file
# Generated on 2025-10-03 20:15:47

v 0.134165 0.102600 0.156022
v 0.144544 0.102600 0.191311
v 0.141918 0.083368 0.191311
v 0.132882 0.095151 0.155045
v 0.123785 0.077873 0.191311
v 0.145521 0.102600 0.200347
v 0.149733 0.102600 0.239055
v 0.145765 0.072744 0.339978
v 0.145032 0.067005 0.339916
v 0.145032 0.067005 0.239910
v 0.123785 0.060228 0.240704
v 0.149733 0.102600 0.366231
v 0.145948 0.073904 0.453843
v 0.145032 0.067005 0.453843
v 0.145032 0.067005 0.366963
v 0.123785 0.060228 0.367757
v 0.123785 0.113162 0.156022
v 0.123785 0.127326 0.191311
v 0.141979 0.122076 0.188075
v 0.133127 0.110659 0.154862
v 0.142040 0.125190 0.192105
v 0.122625 0.071889 0.119695
v 0.123907 0.071279 0.119695
v 0.123785 0.071340 0.191311
v 0.122503 0.073294 0.191311
v 0.122503 0.072012 0.191311
v 0.105652 0.083429 0.191311
v 0.123785 0.176719 0.367757
v 0.123785 0.175864 0.386501
v 0.141918 0.172201 0.399200
v 0.141796 0.173666 0.367757
v 0.146620 0.130623 0.379479
v 0.123785 0.130807 0.554765
v 0.123785 0.120244 0.805331
v 0.131906 0.117741 0.805514
v 0.146620 0.123846 0.554582
v 0.134165 0.102111 0.805270
v 0.144544 0.067860 0.538464
v 0.131478 0.087275 0.805636
v 0.123785 0.084955 0.805331
v 0.123785 0.060228 0.523017
v 0.145032 0.067005 0.522468
v 0.149733 0.102600 0.521857
v 0.149733 0.102111 0.554033
v 0.123785 0.169637 0.523017
v 0.123785 0.162616 0.551285
v 0.142590 0.166462 0.523139
v 0.134653 0.159685 0.551468
v 0.140392 0.146192 0.551468
v 0.134653 0.134775 0.551468
v 0.146864 0.127998 0.522407
v 0.123785 0.060045 0.191311
v 0.102539 0.067005 0.239910
v 0.106690 0.063708 0.191311
v 0.123785 0.073721 0.191311
v 0.032510 0.097044 0.436199
v 0.025061 0.097105 0.435954
v 0.025061 0.097105 0.406893
v 0.032510 0.097044 0.405794
v 0.032449 0.103088 0.405916
v 0.032449 0.103088 0.436321
v 0.025000 0.103149 0.436076
v 0.025000 0.103149 0.407015
v 0.123785 0.212008 0.932384
v 0.123785 0.212008 0.967674
v 0.123785 0.095517 0.890013
v 0.149001 0.109132 0.398162
v 0.142285 0.169332 0.461170
v 0.133615 0.192898 0.465321
v 0.123785 0.193936 0.491269
v 0.133615 0.200652 0.428506
v 0.123785 0.202728 0.409274
v 0.126411 0.201019 0.425575
v 0.123785 0.200713 0.428201
v 0.145032 0.067005 0.464222
v 0.149733 0.102600 0.396636
v 0.032449 0.107850 0.407137
v 0.025549 0.107728 0.408053
v 0.115665 0.117741 0.805514
v 0.121771 0.188442 0.912542
v 0.145948 0.073904 0.463856
v 0.175071 0.062976 0.464406
v 0.145032 0.067005 0.349929
v 0.145765 0.072744 0.349929
v 0.121954 0.190639 0.910466
v 0.175071 0.063037 0.349929
v 0.121587 0.186244 0.910283
v 0.121710 0.188258 0.907780
v 0.121221 0.201019 0.425575
v 0.123785 0.201324 0.422828
v 0.098570 0.109132 0.398162
v 0.105652 0.172201 0.399200
v 0.100951 0.130623 0.379479
v 0.102050 0.102600 0.200347
v 0.097837 0.102600 0.239055
v 0.098509 0.108705 0.239177
v 0.175864 0.068776 0.349929
v 0.181359 0.064197 0.350112
v 0.097837 0.102600 0.366231
v 0.100768 0.128670 0.366780
v 0.181359 0.064197 0.464772
v 0.175986 0.069875 0.463978
v 0.058030 0.094296 0.745132
v 0.055405 0.096555 0.709049
v 0.055527 0.093564 0.703066
v 0.108583 0.093441 0.702821
v 0.111086 0.094174 0.744949
v 0.108461 0.096433 0.708866
v 0.116093 0.087275 0.805636
v 0.113406 0.102111 0.805270
v 0.097837 0.102050 0.554033
v 0.103027 0.067860 0.538464
v 0.099608 0.143139 0.477715
v 0.101501 0.159868 0.476677
v 0.103760 0.162127 0.465627
v 0.105286 0.169332 0.461170
v 0.104553 0.162616 0.461597
v 0.102233 0.141735 0.462879
v 0.100707 0.127998 0.522407
v 0.107179 0.146192 0.551468
v 0.099181 0.139171 0.507265
v 0.101317 0.158403 0.507632
v 0.104981 0.166462 0.523139
v 0.101623 0.142529 0.466420
v 0.101562 0.135874 0.463246
v 0.123785 0.102600 0.145643
v 0.123785 0.092037 0.156022
v 0.145337 0.141735 0.462879
v 0.146009 0.135874 0.463246
v 0.149733 0.102600 0.438152
v 0.215122 0.103088 0.436321
v 0.215122 0.103088 0.405916
v 0.215122 0.107850 0.407137
v 0.222021 0.107728 0.408053
v 0.222571 0.103149 0.436076
v 0.222571 0.103149 0.407015
v 0.147963 0.143139 0.477715
v 0.145948 0.142529 0.466420
v 0.146253 0.158403 0.507632
v 0.148390 0.139171 0.507265
v 0.146070 0.159868 0.476677
v 0.143017 0.162616 0.461597
v 0.097837 0.102600 0.521918
v 0.143811 0.162127 0.465627
v 0.139110 0.096433 0.708866
v 0.138988 0.093441 0.702821
v 0.136485 0.094174 0.744949
v 0.192166 0.096555 0.709049
v 0.189540 0.094296 0.745132
v 0.192044 0.093564 0.703066
v 0.146803 0.128670 0.366780
v 0.149062 0.108705 0.239177
v 0.097837 0.102600 0.396636
v 0.097837 0.102600 0.438152
v 0.101623 0.073904 0.463856
v 0.222510 0.097105 0.406893
v 0.222510 0.097105 0.435954
v 0.215061 0.097044 0.436199
v 0.215061 0.097044 0.405794
v 0.125067 0.073294 0.191311
v 0.140880 0.063708 0.191311
v 0.125067 0.072012 0.191311
v 0.101623 0.073904 0.453843
v 0.123663 0.071279 0.119695
v 0.114688 0.095151 0.155045
v 0.103027 0.102600 0.191311
v 0.102539 0.067005 0.339916
v 0.101806 0.072744 0.339978
v 0.102539 0.067005 0.366963
v 0.102539 0.067005 0.453843
v 0.114444 0.110659 0.154862
v 0.105591 0.122076 0.188075
v 0.113406 0.102600 0.156022
v 0.105530 0.125190 0.192105
v 0.105774 0.173666 0.367757
v 0.100951 0.123907 0.554582
v 0.102539 0.067005 0.522468
v 0.112918 0.159685 0.551468
v 0.112918 0.134775 0.551468
v 0.071584 0.069875 0.463978
v 0.066211 0.064197 0.464833
v 0.072500 0.062976 0.464406
v 0.066211 0.064197 0.350112
v 0.072500 0.063037 0.349929
v 0.071706 0.068776 0.349929
v 0.102539 0.067005 0.349929
v 0.101806 0.072744 0.349929
v 0.102539 0.067005 0.464222
v 0.113956 0.192898 0.465321
v 0.113956 0.200652 0.428445
v 0.123785 0.160784 0.560810
v 0.114627 0.156999 0.561054
v 0.110842 0.147841 0.561665
v 0.123785 0.134287 0.553361
v 0.132943 0.138072 0.553117
v 0.114627 0.156388 0.551896
v 0.123785 0.160174 0.551652
v 0.110842 0.147230 0.552506
v 0.114627 0.138072 0.553117
v 0.136729 0.147230 0.552506
v 0.132943 0.156388 0.551896
v 0.123785 0.134897 0.562519
v 0.132943 0.138744 0.562275
v 0.136729 0.147841 0.561665
v 0.114627 0.138744 0.562275
v 0.060167 0.034708 0.464894
v 0.066761 0.034708 0.464467
v 0.066761 0.034708 0.454087
v 0.072500 0.062976 0.454026
v 0.060167 0.034708 0.455003
v 0.066211 0.064197 0.454942
v 0.060900 0.034646 0.339733
v 0.060900 0.034646 0.350112
v 0.067433 0.034646 0.349929
v 0.067433 0.034646 0.339916
v 0.072500 0.063037 0.339916
v 0.066211 0.064197 0.339733
v 0.068348 0.025183 0.490231
v 0.058824 0.025183 0.490231
v 0.058824 0.025061 0.267079
v 0.058824 0.034708 0.490231
v 0.058824 0.034585 0.270071
v 0.068348 0.034708 0.490231
v 0.068348 0.034585 0.270071
v 0.068409 0.034585 0.270071
v 0.059007 0.043255 0.242719
v 0.058946 0.033731 0.239727
v 0.068531 0.033731 0.239727
v 0.068348 0.025000 0.267079
v 0.068531 0.043255 0.242719
v 0.124945 0.073172 0.119695
v 0.124945 0.071889 0.119695
v 0.123969 0.251327 0.422645
v 0.123969 0.250717 0.428017
v 0.126533 0.251022 0.425392
v 0.071584 0.069875 0.454026
v 0.188564 0.043255 0.242719
v 0.188625 0.033731 0.239727
v 0.179039 0.033731 0.239727
v 0.179161 0.034585 0.270071
v 0.188747 0.034585 0.270071
v 0.179222 0.025000 0.267079
v 0.179039 0.043255 0.242719
v 0.188747 0.025061 0.267079
v 0.179222 0.025183 0.490231
v 0.179222 0.034708 0.490231
v 0.180810 0.034708 0.464467
v 0.180810 0.034708 0.454087
v 0.188747 0.034708 0.490231
v 0.187404 0.034708 0.464894
v 0.187404 0.034708 0.455003
v 0.188625 0.034585 0.270071
v 0.179222 0.034585 0.270071
v 0.180138 0.034646 0.339916
v 0.186671 0.034646 0.350112
v 0.180138 0.034646 0.349929
v 0.188747 0.025183 0.490231
v 0.175071 0.063037 0.339916
v 0.181359 0.064197 0.339733
v 0.186671 0.034646 0.339733
v 0.181359 0.064197 0.454942
v 0.175071 0.062976 0.454026
v 0.089778 0.190945 0.910466
v 0.089595 0.188564 0.907780
v 0.089412 0.186549 0.910344
v 0.089595 0.188747 0.912542
v 0.175986 0.069875 0.454026
v 0.175864 0.068776 0.339916
v 0.123602 0.250717 0.428017
v 0.121038 0.251022 0.425392
v 0.123602 0.251327 0.422645
v 0.071706 0.068776 0.339916
v 0.132943 0.156999 0.561054
v 0.122625 0.073172 0.119695
v 0.123907 0.073660 0.119695
v 0.123785 0.166096 0.240704
v 0.143017 0.162799 0.240093
v 0.104553 0.162799 0.240093
v 0.087153 0.188686 0.910283
v 0.087153 0.180138 0.898683
v 0.087153 0.180138 0.838850
v 0.087153 0.188686 0.838850
v 0.087153 0.195402 0.923715
v 0.087153 0.195402 0.974389
v 0.087153 0.188686 0.975000
v 0.123663 0.073660 0.119695
v 0.123785 0.246687 0.424904
v 0.087153 0.246687 0.461536
v 0.087153 0.246687 0.824807
v 0.123785 0.246687 0.824807
v 0.160418 0.246687 0.388271
v 0.160418 0.246687 0.025000
v 0.123785 0.246687 0.025000
v 0.058946 0.034585 0.270071
f 1 2 3
f 4 3 5
f 2 6 3
f 7 8 9
f 10 9 11
f 12 13 14
f 15 14 16
f 17 18 19
f 20 19 2
f 18 21 19
f 19 21 6
f 22 23 24
f 25 26 27
f 28 29 30
f 31 30 32
f 33 34 35
f 36 35 37
f 38 39 40
f 41 42 38
f 43 38 42
f 43 44 38
f 45 46 47
f 47 46 48
f 48 49 47
f 44 43 36
f 50 33 51
f 33 36 51
f 36 43 51
f 51 49 50
f 26 52 27
f 25 27 5
f 26 24 52
f 53 27 54
f 11 54 52
f 11 53 54
f 52 54 27
f 55 25 5
f 56 57 58
f 56 59 60
f 57 56 61
f 58 57 62
f 59 58 63
f 34 64 35
f 65 66 37
f 37 35 65
f 66 39 37
f 66 40 39
f 12 32 67
f 45 47 68
f 69 70 45
f 68 69 45
f 68 71 69
f 30 71 68
f 29 72 30
f 72 71 30
f 70 69 71
f 71 73 74
f 43 42 75
f 12 76 13
f 77 78 62
f 60 63 78
f 79 65 80
f 81 75 82
f 75 42 41
f 14 75 41
f 83 15 16
f 9 83 16
f 12 15 83
f 7 12 84
f 65 64 85
f 84 83 86
f 79 87 88
f 89 90 72
f 91 92 93
f 94 95 96
f 97 86 98
f 96 95 99
f 100 99 93
f 82 101 102
f 27 53 95
f 103 104 105
f 103 105 106
f 104 103 107
f 105 104 108
f 109 110 107
f 109 107 106
f 106 111 112
f 108 107 110
f 108 107 110
f 108 110 111
f 111 106 108
f 106 108 111
f 113 114 115
f 114 116 117
f 118 117 92
f 117 116 92
f 119 120 121
f 121 120 122
f 120 123 122
f 122 114 113
f 114 122 123
f 113 124 118
f 121 113 125
f 17 20 126
f 126 20 1
f 126 1 4
f 4 127 126
f 30 128 129
f 30 129 43
f 76 130 81
f 130 43 81
f 67 130 131
f 130 76 132
f 76 67 133
f 134 135 136
f 51 43 129
f 51 129 137
f 129 128 138
f 68 47 139
f 140 137 141
f 139 47 49
f 139 49 140
f 140 49 51
f 30 68 142
f 30 142 128
f 125 143 119
f 144 142 68
f 138 144 141
f 44 145 146
f 145 146 44
f 44 37 145
f 37 147 145
f 37 147 145
f 38 44 146
f 38 146 147
f 147 37 39
f 146 145 148
f 145 147 149
f 147 146 150
f 150 148 149
f 63 62 78
f 60 77 91
f 6 7 10
f 32 12 151
f 151 12 7
f 152 7 6
f 32 30 67
f 71 72 90
f 61 60 153
f 77 61 154
f 155 143 154
f 65 35 64
f 133 134 136
f 131 135 134
f 132 136 156
f 136 135 157
f 135 131 158
f 131 132 159
f 159 156 157
f 5 160 55
f 3 161 52
f 161 10 11
f 52 161 11
f 161 3 10
f 52 24 162
f 5 3 160
f 3 52 162
f 3 162 160
f 163 155 154
f 162 24 164
f 91 154 143
f 125 118 92
f 165 27 166
f 127 5 27
f 27 94 166
f 53 167 168
f 11 167 53
f 169 170 163
f 16 170 169
f 171 172 18
f 173 166 172
f 172 174 18
f 166 94 174
f 126 127 165
f 165 173 126
f 175 92 29
f 100 93 92
f 176 79 34
f 111 110 79
f 41 40 109
f 112 177 41
f 177 112 143
f 112 111 143
f 123 46 45
f 178 46 123
f 123 120 178
f 176 143 111
f 119 33 179
f 119 176 33
f 119 143 176
f 179 120 119
f 173 171 126
f 126 171 17
f 180 181 182
f 183 184 185
f 185 184 186
f 168 187 99
f 187 186 169
f 11 16 186
f 16 169 186
f 16 41 188
f 41 177 188
f 180 182 188
f 163 153 99
f 79 64 34
f 79 88 85
f 110 66 65
f 65 79 110
f 110 109 66
f 109 40 66
f 153 91 93
f 116 123 45
f 45 70 189
f 45 189 116
f 189 190 116
f 116 190 92
f 92 72 29
f 92 190 72
f 190 189 70
f 70 74 89
f 155 188 177
f 191 192 193
f 50 194 33
f 50 195 194
f 50 49 195
f 196 197 46
f 196 46 178
f 198 196 178
f 198 178 120
f 199 198 120
f 199 120 179
f 194 199 179
f 49 200 195
f 33 194 179
f 49 48 200
f 48 201 200
f 48 46 201
f 46 197 201
f 202 203 204
f 124 115 117
f 128 142 144
f 202 205 199
f 206 207 182
f 207 208 209
f 208 210 211
f 210 206 181
f 212 213 183
f 213 214 184
f 214 215 216
f 215 212 217
f 218 219 220
f 219 221 222
f 219 218 223
f 223 207 206
f 208 214 213
f 212 215 224
f 221 206 210
f 223 207 208
f 225 223 218
f 226 227 220
f 227 228 229
f 228 230 225
f 230 226 222
f 230 228 227
f 192 191 197
f 193 192 196
f 55 160 231
f 160 162 232
f 233 234 235
f 233 235 73
f 235 234 74
f 236 209 211
f 237 238 239
f 240 241 237
f 242 240 243
f 244 242 239
f 241 244 238
f 242 245 246
f 246 247 248
f 211 181 180
f 249 250 251
f 252 253 254
f 251 255 256
f 249 250 247
f 249 246 245
f 244 241 249
f 242 244 257
f 258 259 260
f 86 258 254
f 98 86 256
f 259 98 255
f 261 101 250
f 262 261 251
f 82 262 248
f 263 264 265
f 263 266 80
f 101 82 247
f 261 262 267
f 267 102 101
f 258 268 259
f 268 97 98
f 9 8 268
f 89 74 269
f 90 89 270
f 270 269 271
f 83 9 258
f 8 84 97
f 13 81 102
f 14 13 267
f 75 14 262
f 205 193 198
f 217 272 216
f 217 183 185
f 216 272 168
f 184 216 167
f 272 185 187
f 236 180 155
f 209 236 163
f 182 209 170
f 195 200 204
f 194 195 203
f 201 197 191
f 200 201 273
f 264 263 85
f 274 22 26
f 265 264 88
f 275 274 25
f 275 23 22
f 266 265 87
f 276 28 31
f 277 31 151
f 94 96 278
f 174 278 276
f 18 276 277
f 21 277 152
f 278 175 28
f 96 100 175
f 222 225 224
f 224 225 222
f 279 280 281
f 282 281 280
f 279 283 284
f 285 284 283
f 231 232 164
f 286 164 232
f 287 288 289
f 290 289 288
f 287 291 292
f 293 292 291
f 241 240 253
f 253 240 241
f 1 3 4
f 4 5 127
f 7 9 10
f 12 14 15
f 17 19 20
f 20 2 1
f 19 6 2
f 22 24 26
f 28 30 31
f 31 32 151
f 33 35 36
f 36 37 44
f 38 40 41
f 56 58 59
f 56 60 61
f 57 61 62
f 58 62 63
f 59 63 60
f 12 67 76
f 71 74 70
f 43 75 81
f 77 62 61
f 60 78 77
f 79 80 87
f 81 82 102
f 14 41 16
f 9 16 11
f 12 83 84
f 7 84 8
f 65 85 80
f 84 86 97
f 89 72 190
f 96 99 100
f 27 95 94
f 103 106 107
f 104 107 108
f 105 108 106
f 109 106 112
f 113 115 124
f 114 117 115
f 122 113 121
f 114 123 116
f 113 118 125
f 121 125 119
f 30 43 130
f 30 130 67
f 76 81 13
f 67 131 133
f 130 132 131
f 76 133 132
f 51 137 140
f 129 138 137
f 68 139 141
f 140 141 139
f 144 68 141
f 138 141 137
f 38 147 39
f 146 148 150
f 145 149 148
f 147 150 149
f 60 91 153
f 6 10 3
f 151 7 152
f 71 90 73
f 61 153 154
f 77 154 91
f 133 136 132
f 131 134 133
f 132 156 159
f 136 157 156
f 135 158 157
f 131 159 158
f 159 157 158
f 163 154 153
f 162 164 232
f 91 143 125
f 91 125 92
f 165 166 173
f 127 27 165
f 53 168 95
f 169 163 99
f 171 18 17
f 173 172 171
f 166 174 172
f 175 29 28
f 100 92 175
f 176 34 33
f 111 79 176
f 41 109 112
f 185 186 187
f 168 99 95
f 187 169 99
f 11 186 167
f 16 188 170
f 180 188 155
f 79 85 64
f 153 93 99
f 70 89 190
f 155 177 143
f 191 193 205
f 191 205 202
f 202 204 273
f 202 273 191
f 124 117 118
f 128 144 138
f 202 199 194
f 206 182 181
f 207 209 182
f 208 211 209
f 210 181 211
f 212 183 217
f 213 184 183
f 214 216 184
f 215 217 216
f 218 220 229
f 219 222 220
f 219 223 221
f 223 206 221
f 208 213 210
f 212 224 294
f 221 210 213
f 221 213 212
f 221 212 294
f 221 294 222
f 223 208 214
f 223 214 215
f 223 215 224
f 223 224 225
f 225 218 229
f 226 220 222
f 227 229 220
f 228 225 229
f 230 222 225
f 230 227 226
f 192 197 196
f 193 196 198
f 55 231 286
f 160 232 231
f 233 73 90
f 235 74 73
f 237 239 243
f 240 237 243
f 242 243 239
f 244 239 238
f 241 238 237
f 242 246 240
f 246 248 256
f 246 256 254
f 246 254 253
f 246 253 240
f 211 180 236
f 249 251 255
f 249 255 260
f 249 260 252
f 249 252 241
f 252 254 260
f 251 256 248
f 249 247 246
f 249 245 257
f 244 249 257
f 242 257 245
f 258 260 254
f 86 254 256
f 98 256 255
f 259 255 260
f 261 250 251
f 262 251 248
f 82 248 247
f 263 265 266
f 263 80 85
f 101 247 250
f 267 101 261
f 268 98 259
f 9 268 258
f 89 269 270
f 90 270 271
f 83 258 86
f 8 97 268
f 13 102 267
f 14 267 262
f 75 262 82
f 205 198 199
f 217 185 272
f 216 168 167
f 184 167 186
f 272 187 168
f 236 155 163
f 209 163 170
f 182 170 188
f 195 204 203
f 194 203 202
f 201 191 273
f 200 273 204
f 264 85 88
f 274 26 25
f 265 88 87
f 275 25 55
f 275 22 274
f 266 87 80
f 276 31 277
f 277 151 152
f 94 278 174
f 174 276 18
f 18 277 21
f 21 152 6
f 278 28 276
f 96 175 278
f 279 281 282
f 282 280 279
f 279 284 285
f 285 283 279
f 231 164 286
f 286 232 231
f 287 289 290
f 290 288 287
f 287 292 293
f 293 291 287
