# After PCA alignment: D01143.obj
# Applied principal component analysis alignment
# Major eigenvector -> X-axis, Medium eigenvector -> Y-axis
# Generated on 2025-10-13 11:08:32

v -0.256293 0.003828 0.040097
v -0.256341 0.014883 0.047409
v -0.256359 0.025766 0.006928
v -0.256407 0.036821 0.014240
v -0.251940 0.025783 0.006930
v -0.251875 0.003845 0.040099
v -0.251923 0.014901 0.047412
v -0.251988 0.036839 0.014243
v -0.242953 -0.017421 0.002175
v -0.243301 0.070950 0.002168
v -0.242967 -0.017419 0.024268
v -0.243314 0.070952 0.024261
v -0.265060 -0.017506 0.024254
v -0.265046 -0.017508 0.002161
v -0.265393 0.070863 0.002154
v -0.265407 0.070865 0.024247
v -0.265565 0.009621 0.035236
v -0.265582 0.014039 0.035236
v 0.264664 0.011707 0.035564
v 0.264646 0.016125 0.035564
v 0.264661 0.011707 0.039983
v -0.265568 0.009621 0.039655
v -0.265585 0.014039 0.039655
v 0.264644 0.016125 0.039983
v 0.251825 0.003520 0.039505
v 0.251777 0.014576 0.046818
v 0.251759 0.025457 0.006336
v 0.251711 0.036514 0.013649
v 0.256178 0.025475 0.006339
v 0.256243 0.003538 0.039508
v 0.256195 0.014593 0.046821
v 0.256130 0.036531 0.013652
v 0.265181 -0.016297 0.002594
v 0.264834 0.072075 0.002587
v 0.265168 -0.016296 0.024687
v 0.264820 0.072077 0.024680
v 0.243075 -0.016383 0.024673
v 0.243089 -0.016384 0.002580
v 0.242741 0.071988 0.002573
v 0.242727 0.071990 0.024666
v -0.263237 -0.476680 -0.005193
v -0.266974 0.473313 -0.005272
v 0.266992 -0.474594 -0.004865
v 0.263255 0.475398 -0.004944
v 0.266986 -0.474594 0.003972
v -0.263242 -0.476679 0.003644
v -0.266979 0.473313 0.003566
v 0.263250 0.475399 0.003894
v -0.256317 0.009356 0.043753
v -0.256350 0.020325 0.027168
v -0.256326 0.014797 0.023512
v -0.256374 0.025852 0.030825
v -0.256383 0.031294 0.010584
v -0.254117 0.014806 0.023514
v -0.251908 0.014814 0.023515
v -0.254084 0.003837 0.040098
v -0.254150 0.025775 0.006929
v -0.254108 0.009364 0.043754
v -0.251899 0.009373 0.043756
v -0.254132 0.014892 0.047411
v -0.251956 0.025870 0.030828
v -0.254165 0.025861 0.030826
v -0.254198 0.036830 0.014242
v -0.254174 0.031302 0.010585
v -0.251964 0.031311 0.010587
v -0.251932 0.020342 0.027171
v -0.243127 0.026765 0.002171
v -0.243134 0.026766 0.013218
v -0.242960 -0.017420 0.013221
v -0.243307 0.070951 0.013214
v -0.243140 0.026766 0.024264
v -0.254006 -0.017464 0.013215
v -0.265053 -0.017507 0.013208
v -0.253999 -0.017464 0.002168
v -0.254013 -0.017463 0.024261
v -0.254173 0.026721 0.002164
v -0.265220 0.026678 0.002158
v -0.254347 0.070907 0.002161
v -0.265400 0.070864 0.013200
v -0.254354 0.070908 0.013207
v -0.254361 0.070909 0.024254
v -0.254187 0.026723 0.024257
v -0.265233 0.026680 0.024251
v -0.265227 0.026679 0.013204
v -0.265574 0.011830 0.035236
v -0.000459 0.012873 0.035400
v -0.000451 0.010664 0.035400
v -0.000468 0.015082 0.035400
v 0.264655 0.013916 0.035564
v -0.000452 0.010664 0.037610
v -0.000453 0.010664 0.039819
v -0.265566 0.009621 0.037446
v 0.264662 0.011707 0.037774
v -0.265575 0.011830 0.037446
v -0.265576 0.011830 0.039655
v -0.265584 0.014039 0.037445
v -0.000471 0.015082 0.039819
v -0.000469 0.015082 0.037609
v 0.264645 0.016125 0.037773
v 0.264654 0.013916 0.037774
v 0.264652 0.013916 0.039983
v -0.000462 0.012873 0.039819
v 0.251801 0.009048 0.043161
v 0.251768 0.020017 0.026577
v 0.251792 0.014489 0.022921
v 0.251744 0.025545 0.030233
v 0.251735 0.030986 0.009993
v 0.254001 0.014498 0.022922
v 0.256211 0.014506 0.022923
v 0.254034 0.003529 0.039506
v 0.253968 0.025466 0.006338
v 0.254010 0.009057 0.043163
v 0.256219 0.009065 0.043164
v 0.253986 0.014585 0.046819
v 0.256163 0.025562 0.030236
v 0.253953 0.025554 0.030235
v 0.253920 0.036523 0.013650
v 0.253944 0.030994 0.009994
v 0.256154 0.031003 0.009995
v 0.256187 0.020034 0.026580
v 0.265008 0.027889 0.002590
v 0.265001 0.027890 0.013637
v 0.265175 -0.016296 0.013640
v 0.264827 0.072076 0.013633
v 0.264994 0.027891 0.024683
v 0.254128 -0.016340 0.013634
v 0.243082 -0.016383 0.013627
v 0.254135 -0.016341 0.002587
v 0.254121 -0.016339 0.024680
v 0.253961 0.027845 0.002583
v 0.242915 0.027802 0.002577
v 0.253787 0.072031 0.002580
v 0.242734 0.071989 0.013619
v 0.253781 0.072032 0.013626
v 0.253774 0.072033 0.024673
v 0.253948 0.027847 0.024676
v 0.242901 0.027804 0.024670
v 0.242908 0.027803 0.013623
v -0.265105 -0.001684 -0.005232
v 0.000009 -0.000641 -0.005068
v 0.001877 -0.475637 -0.005029
v -0.001859 0.474355 -0.005108
v 0.265123 0.000402 -0.004904
v 0.001875 -0.475637 -0.000610
v 0.001872 -0.475636 0.003808
v -0.263240 -0.476680 -0.000775
v 0.266989 -0.474594 -0.000446
v -0.265108 -0.001683 -0.000814
v -0.265111 -0.001683 0.003605
v -0.266976 0.473313 -0.000853
v -0.001865 0.474356 0.003730
v -0.001862 0.474356 -0.000689
v 0.263252 0.475399 -0.000525
v 0.265121 0.000402 -0.000486
v 0.265118 0.000403 0.003933
v 0.000004 -0.000640 0.003769
v -0.256305 0.006592 0.041925
v -0.256322 0.012076 0.033633
v -0.256310 0.009312 0.031804
v -0.256329 0.012119 0.045581
v -0.256346 0.017604 0.037289
v -0.256334 0.014840 0.035461
v -0.256355 0.023045 0.017048
v -0.256343 0.020281 0.015220
v -0.256338 0.017561 0.025340
v -0.256367 0.025809 0.018876
v -0.256371 0.028530 0.008756
v -0.256358 0.020368 0.039117
v -0.256362 0.023089 0.028997
v -0.256391 0.031337 0.022533
v -0.256395 0.034058 0.012412
v -0.256379 0.028573 0.020704
v -0.255205 0.009317 0.031805
v -0.254100 0.009321 0.031806
v -0.255189 0.003832 0.040097
v -0.253029 0.020294 0.015222
v -0.251924 0.020299 0.015223
v -0.253012 0.014810 0.023514
v -0.251891 0.009330 0.031807
v -0.252979 0.003841 0.040099
v -0.252996 0.009325 0.031806
v -0.255221 0.014801 0.023513
v -0.255254 0.025770 0.006928
v -0.255238 0.020286 0.015221
v -0.253045 0.025779 0.006930
v -0.254133 0.020290 0.015221
v -0.255201 0.006596 0.041925
v -0.252991 0.006605 0.041927
v -0.254096 0.006600 0.041926
v -0.255225 0.012124 0.045582
v -0.255213 0.009360 0.043754
v -0.254120 0.012128 0.045582
v -0.255237 0.014888 0.047410
v -0.251887 0.006609 0.041927
v -0.253003 0.009369 0.043755
v -0.251911 0.012137 0.045584
v -0.253027 0.014896 0.047411
v -0.253015 0.012132 0.045583
v -0.254148 0.020377 0.039118
v -0.255253 0.020372 0.039118
v -0.251939 0.020385 0.039120
v -0.253044 0.020381 0.039119
v -0.251972 0.031354 0.022535
v -0.253077 0.031350 0.022535
v -0.253060 0.025865 0.030827
v -0.255269 0.025857 0.030826
v -0.253093 0.036835 0.014242
v -0.254181 0.031346 0.022534
v -0.255302 0.036826 0.014241
v -0.255286 0.031341 0.022533
v -0.255266 0.028534 0.008757
v -0.254162 0.028539 0.008757
v -0.253081 0.034071 0.012414
v -0.251976 0.034075 0.012415
v -0.253069 0.031307 0.010586
v -0.251952 0.028547 0.008759
v -0.253057 0.028543 0.008758
v -0.255278 0.031298 0.010585
v -0.255290 0.034062 0.012413
v -0.254186 0.034066 0.012414
v -0.251936 0.023063 0.017051
v -0.251920 0.017578 0.025343
v -0.251927 0.017621 0.037292
v -0.251915 0.014857 0.035463
v -0.251903 0.012094 0.033635
v -0.251948 0.025827 0.018879
v -0.251960 0.028590 0.020707
v -0.251944 0.023106 0.028999
v -0.243040 0.004672 0.002173
v -0.243043 0.004672 0.007696
v -0.242956 -0.017421 0.007698
v -0.243214 0.048857 0.002169
v -0.243217 0.048858 0.007693
v -0.243130 0.026765 0.007695
v -0.243050 0.004673 0.018743
v -0.242963 -0.017420 0.018745
v -0.243047 0.004673 0.013220
v -0.243137 0.026766 0.018741
v -0.243054 0.004674 0.024266
v -0.243304 0.070951 0.007691
v -0.243221 0.048858 0.013216
v -0.243311 0.070952 0.018737
v -0.243227 0.048859 0.024262
v -0.243224 0.048859 0.018739
v -0.248480 -0.017442 0.007695
v -0.254003 -0.017464 0.007691
v -0.248476 -0.017443 0.002171
v -0.259533 -0.017485 0.018734
v -0.265056 -0.017507 0.018731
v -0.259530 -0.017485 0.013211
v -0.265049 -0.017507 0.007685
v -0.259523 -0.017486 0.002165
v -0.259526 -0.017486 0.007688
v -0.248483 -0.017442 0.013218
v -0.248490 -0.017441 0.024265
v -0.248486 -0.017441 0.018741
v -0.259536 -0.017484 0.024258
v -0.254010 -0.017463 0.018738
v -0.248563 0.004650 0.002170
v -0.259610 0.004607 0.002163
v -0.254086 0.004628 0.002166
v -0.248737 0.048836 0.002166
v -0.248650 0.026743 0.002168
v -0.254260 0.048814 0.002163
v -0.248824 0.070929 0.002164
v -0.265133 0.004585 0.002159
v -0.259696 0.026699 0.002161
v -0.265307 0.048771 0.002156
v -0.259870 0.070885 0.002157
v -0.259783 0.048792 0.002159
v -0.254350 0.070907 0.007684
v -0.248827 0.070929 0.007687
v -0.265397 0.070864 0.007677
v -0.259874 0.070886 0.007681
v -0.265404 0.070865 0.018724
v -0.259881 0.070886 0.018727
v -0.259877 0.070886 0.013204
v -0.248831 0.070929 0.013211
v -0.259884 0.070887 0.024250
v -0.254357 0.070908 0.018731
v -0.248837 0.070930 0.024257
v -0.248834 0.070930 0.018734
v -0.248577 0.004652 0.024263
v -0.254100 0.004630 0.024259
v -0.259797 0.048794 0.024252
v -0.265320 0.048772 0.024249
v -0.259710 0.026701 0.024254
v -0.265146 0.004587 0.024253
v -0.259623 0.004608 0.024256
v -0.248664 0.026745 0.024261
v -0.248751 0.048838 0.024259
v -0.254274 0.048816 0.024256
v -0.265143 0.004586 0.018729
v -0.265140 0.004586 0.013206
v -0.265310 0.048771 0.007679
v -0.265223 0.026678 0.007681
v -0.265136 0.004585 0.007683
v -0.265230 0.026679 0.018727
v -0.265317 0.048772 0.018726
v -0.265313 0.048771 0.013202
v -0.265569 0.010725 0.035236
v -0.133012 0.011247 0.035318
v -0.133008 0.010142 0.035318
v -0.265578 0.012934 0.035236
v -0.133021 0.013456 0.035318
v -0.133016 0.012351 0.035318
v 0.132102 0.012290 0.035482
v 0.132107 0.011185 0.035482
v -0.000455 0.011768 0.035400
v 0.132098 0.013394 0.035482
v 0.264660 0.012811 0.035564
v -0.133025 0.014560 0.035318
v -0.000464 0.013977 0.035400
v 0.132089 0.015603 0.035482
v 0.264651 0.015020 0.035564
v 0.132094 0.014499 0.035482
v -0.133008 0.010142 0.036423
v -0.133009 0.010143 0.037528
v -0.265566 0.009621 0.036341
v 0.132105 0.011185 0.038796
v 0.132104 0.011186 0.039901
v -0.000453 0.010664 0.038714
v -0.133010 0.010143 0.039737
v -0.265567 0.009621 0.038550
v -0.133010 0.010143 0.038632
v -0.000451 0.010664 0.036505
v 0.264663 0.011707 0.036669
v 0.132106 0.011185 0.036587
v 0.264662 0.011707 0.038878
v 0.132105 0.011185 0.037692
v -0.265570 0.010726 0.036341
v -0.265571 0.010726 0.038550
v -0.265571 0.010726 0.037446
v -0.265579 0.012935 0.036341
v -0.265574 0.011830 0.036341
v -0.265579 0.012935 0.037445
v -0.265583 0.014039 0.036341
v -0.265572 0.010726 0.039655
v -0.265576 0.011830 0.038550
v -0.265581 0.012935 0.039655
v -0.265584 0.014039 0.038550
v -0.265580 0.012935 0.038550
v -0.133026 0.014561 0.037527
v -0.133026 0.014560 0.036423
v -0.133028 0.014561 0.039737
v -0.133027 0.014561 0.038632
v 0.132087 0.015603 0.039901
v 0.132087 0.015603 0.038796
v -0.000470 0.015082 0.038714
v -0.000469 0.015082 0.036505
v 0.264644 0.016125 0.038878
v 0.132088 0.015603 0.037691
v 0.264646 0.016125 0.036669
v 0.132089 0.015603 0.036587
v 0.264659 0.012811 0.036669
v 0.264658 0.012811 0.037774
v 0.264649 0.015020 0.038878
v 0.264648 0.015020 0.039983
v 0.264653 0.013916 0.038878
v 0.264657 0.012811 0.039983
v 0.264657 0.012811 0.038878
v 0.264654 0.013916 0.036669
v 0.264650 0.015020 0.036669
v 0.264649 0.015020 0.037774
v 0.132100 0.012290 0.039901
v -0.000458 0.011769 0.039819
v -0.133024 0.013456 0.039737
v -0.133019 0.012352 0.039737
v -0.133015 0.011247 0.039737
v 0.132095 0.013394 0.039901
v 0.132091 0.014499 0.039901
v -0.000466 0.013978 0.039819
v 0.251813 0.006284 0.041333
v 0.251796 0.011768 0.033041
v 0.251808 0.009005 0.031213
v 0.251789 0.011812 0.044990
v 0.251772 0.017296 0.036697
v 0.251784 0.014532 0.034869
v 0.251763 0.022737 0.016457
v 0.251775 0.019973 0.014629
v 0.251780 0.017253 0.024749
v 0.251751 0.025501 0.018285
v 0.251747 0.028222 0.008164
v 0.251760 0.020060 0.038526
v 0.251756 0.022781 0.028405
v 0.251727 0.031029 0.021941
v 0.251723 0.033750 0.011821
v 0.251739 0.028265 0.020113
v 0.252913 0.009009 0.031214
v 0.254018 0.009013 0.031214
v 0.252929 0.003525 0.039506
v 0.255089 0.019986 0.014631
v 0.256194 0.019991 0.014631
v 0.255106 0.014502 0.022923
v 0.256227 0.009022 0.031216
v 0.255139 0.003533 0.039507
v 0.255122 0.009018 0.031215
v 0.252896 0.014493 0.022921
v 0.252863 0.025462 0.006337
v 0.252880 0.019978 0.014629
v 0.255073 0.025471 0.006338
v 0.253985 0.019982 0.014630
v 0.252917 0.006288 0.041334
v 0.255127 0.006297 0.041335
v 0.254022 0.006293 0.041335
v 0.252893 0.011816 0.044990
v 0.252905 0.009052 0.043162
v 0.253998 0.011821 0.044991
v 0.252881 0.014580 0.046818
v 0.256231 0.006302 0.041336
v 0.255115 0.009061 0.043164
v 0.256207 0.011829 0.044992
v 0.255091 0.014589 0.046820
v 0.255103 0.011825 0.044992
v 0.253970 0.020069 0.038527
v 0.252865 0.020065 0.038526
v 0.256179 0.020078 0.038528
v 0.255074 0.020073 0.038528
v 0.256146 0.031047 0.021944
v 0.255041 0.031042 0.021943
v 0.255058 0.025558 0.030235
v 0.252848 0.025549 0.030234
v 0.255025 0.036527 0.013651
v 0.253937 0.031038 0.021943
v 0.252815 0.036518 0.013650
v 0.252832 0.031034 0.021942
v 0.252851 0.028226 0.008165
v 0.253956 0.028230 0.008166
v 0.255037 0.033763 0.011823
v 0.256142 0.033767 0.011824
v 0.255049 0.030999 0.009995
v 0.256166 0.028239 0.008167
v 0.255061 0.028235 0.008167
v 0.252839 0.030990 0.009993
v 0.252827 0.033754 0.011821
v 0.253932 0.033759 0.011822
v 0.256182 0.022754 0.016459
v 0.256199 0.017270 0.024752
v 0.256191 0.017314 0.036700
v 0.256203 0.014550 0.034872
v 0.256215 0.011786 0.033044
v 0.256170 0.025519 0.018288
v 0.256158 0.028283 0.020116
v 0.256175 0.022798 0.028408
v 0.265095 0.005796 0.002592
v 0.265091 0.005796 0.008115
v 0.265178 -0.016297 0.008117
v 0.264921 0.049982 0.002588
v 0.264917 0.049982 0.008112
v 0.265004 0.027889 0.008113
v 0.265084 0.005797 0.019162
v 0.265171 -0.016296 0.019164
v 0.265088 0.005797 0.013639
v 0.264997 0.027890 0.019160
v 0.265081 0.005797 0.024685
v 0.264830 0.072075 0.008110
v 0.264914 0.049983 0.013635
v 0.264824 0.072076 0.019156
v 0.264907 0.049984 0.024681
v 0.264910 0.049983 0.019158
v 0.259655 -0.016319 0.008114
v 0.254132 -0.016340 0.008110
v 0.259658 -0.016319 0.002590
v 0.248602 -0.016361 0.019153
v 0.243078 -0.016383 0.019150
v 0.248605 -0.016362 0.013630
v 0.243085 -0.016384 0.008103
v 0.248612 -0.016363 0.002584
v 0.248608 -0.016362 0.008107
v 0.259651 -0.016318 0.013637
v 0.259645 -0.016317 0.024683
v 0.259648 -0.016318 0.019160
v 0.248598 -0.016361 0.024677
v 0.254125 -0.016339 0.019157
v 0.259571 0.005774 0.002589
v 0.248525 0.005731 0.002582
v 0.254048 0.005752 0.002585
v 0.259398 0.049960 0.002585
v 0.259484 0.027867 0.002587
v 0.253874 0.049938 0.002582
v 0.259311 0.072053 0.002583
v 0.243002 0.005709 0.002578
v 0.248438 0.027824 0.002580
v 0.242828 0.049895 0.002575
v 0.248264 0.072010 0.002576
v 0.248351 0.049917 0.002578
v 0.253784 0.072032 0.008103
v 0.259307 0.072054 0.008106
v 0.242738 0.071988 0.008096
v 0.248261 0.072010 0.008100
v 0.242731 0.071989 0.019143
v 0.248254 0.072011 0.019146
v 0.248257 0.072011 0.013623
v 0.259304 0.072054 0.013630
v 0.248251 0.072012 0.024669
v 0.253777 0.072033 0.019150
v 0.259297 0.072055 0.024676
v 0.259300 0.072055 0.019153
v 0.259558 0.005776 0.024682
v 0.254034 0.005754 0.024678
v 0.248337 0.049918 0.024671
v 0.242814 0.049897 0.024668
v 0.248424 0.027825 0.024673
v 0.242988 0.005711 0.024671
v 0.248511 0.005732 0.024675
v 0.259471 0.027869 0.024680
v 0.259384 0.049962 0.024678
v 0.253861 0.049940 0.024675
v 0.242991 0.005710 0.019148
v 0.242995 0.005710 0.013625
v 0.242824 0.049895 0.008098
v 0.242911 0.027802 0.008100
v 0.242998 0.005709 0.008102
v 0.242905 0.027803 0.019146
v 0.242818 0.049896 0.019145
v 0.242821 0.049896 0.013621
v -0.264171 -0.239182 -0.005213
v -0.131614 -0.238660 -0.005131
v -0.130680 -0.476159 -0.005111
v -0.266039 0.235815 -0.005252
v -0.133482 0.236336 -0.005170
v -0.132548 -0.001162 -0.005150
v 0.133500 -0.237618 -0.004967
v 0.134434 -0.475116 -0.004947
v 0.000943 -0.238139 -0.005049
v 0.132566 -0.000119 -0.004986
v 0.266057 -0.237096 -0.004885
v -0.134416 0.473834 -0.005190
v -0.000925 0.236857 -0.005088
v 0.130698 0.474877 -0.005026
v 0.264189 0.237900 -0.004924
v 0.131632 0.237379 -0.005006
v -0.130681 -0.476158 -0.002902
v -0.130683 -0.476158 -0.000693
v -0.263238 -0.476680 -0.002984
v 0.134430 -0.475115 0.001681
v 0.134429 -0.475115 0.003890
v 0.001873 -0.475637 0.001599
v -0.130685 -0.476158 0.003726
v -0.263241 -0.476679 0.001435
v -0.130684 -0.476158 0.001517
v 0.001876 -0.475637 -0.002820
v 0.266990 -0.474594 -0.002656
v 0.134433 -0.475116 -0.002738
v 0.266988 -0.474594 0.001763
v 0.134432 -0.475115 -0.000528
v -0.264172 -0.239182 -0.003003
v -0.264175 -0.239181 0.001415
v -0.264174 -0.239181 -0.000794
v -0.266041 0.235815 -0.003043
v -0.265107 -0.001683 -0.003023
v -0.266042 0.235815 -0.000833
v -0.266975 0.473313 -0.003062
v -0.264177 -0.239181 0.003624
v -0.265109 -0.001683 0.001396
v -0.266045 0.235815 0.003585
v -0.266978 0.473313 0.001356
v -0.266043 0.235815 0.001376
v -0.134419 0.473834 -0.000771
v -0.134418 0.473834 -0.002980
v -0.134422 0.473835 0.003648
v -0.134420 0.473835 0.001438
v 0.130692 0.474878 0.003812
v 0.130694 0.474877 0.001602
v -0.001863 0.474356 0.001520
v -0.001861 0.474356 -0.002898
v 0.263251 0.475399 0.001684
v 0.130695 0.474877 -0.000607
v 0.263254 0.475398 -0.002734
v 0.130697 0.474877 -0.002816
v 0.266056 -0.237096 -0.002675
v 0.266055 -0.237096 -0.000466
v 0.264185 0.237901 0.001704
v 0.264184 0.237901 0.003913
v 0.265119 0.000402 0.001724
v 0.266052 -0.237096 0.003953
v 0.266053 -0.237096 0.001743
v 0.265122 0.000402 -0.002695
v 0.264188 0.237900 -0.002715
v 0.264186 0.237900 -0.000505
v 0.133495 -0.237617 0.003870
v 0.000938 -0.238138 0.003788
v -0.133488 0.236337 0.003667
v -0.132554 -0.001162 0.003687
v -0.131619 -0.238660 0.003706
v 0.132561 -0.000119 0.003851
v 0.131627 0.237379 0.003831
v -0.000931 0.236858 0.003749
f 1 157 159
f 157 49 158
f 158 51 159
f 157 158 159
f 49 160 162
f 160 2 161
f 161 50 162
f 160 161 162
f 50 163 165
f 163 3 164
f 164 51 165
f 163 164 165
f 49 162 158
f 162 50 165
f 165 51 158
f 162 165 158
f 3 163 167
f 163 50 166
f 166 53 167
f 163 166 167
f 50 161 169
f 161 2 168
f 168 52 169
f 161 168 169
f 52 170 172
f 170 4 171
f 171 53 172
f 170 171 172
f 50 169 166
f 169 52 172
f 172 53 166
f 169 172 166
f 1 173 175
f 173 54 174
f 174 56 175
f 173 174 175
f 54 176 178
f 176 5 177
f 177 55 178
f 176 177 178
f 55 179 181
f 179 6 180
f 180 56 181
f 179 180 181
f 54 178 174
f 178 55 181
f 181 56 174
f 178 181 174
f 1 159 173
f 159 51 182
f 182 54 173
f 159 182 173
f 51 164 184
f 164 3 183
f 183 57 184
f 164 183 184
f 57 185 186
f 185 5 176
f 176 54 186
f 185 176 186
f 51 184 182
f 184 57 186
f 186 54 182
f 184 186 182
f 1 175 157
f 175 56 187
f 187 49 157
f 175 187 157
f 56 180 189
f 180 6 188
f 188 58 189
f 180 188 189
f 58 190 191
f 190 2 160
f 160 49 191
f 190 160 191
f 56 189 187
f 189 58 191
f 191 49 187
f 189 191 187
f 2 190 193
f 190 58 192
f 192 60 193
f 190 192 193
f 58 188 195
f 188 6 194
f 194 59 195
f 188 194 195
f 59 196 198
f 196 7 197
f 197 60 198
f 196 197 198
f 58 195 192
f 195 59 198
f 198 60 192
f 195 198 192
f 2 193 200
f 193 60 199
f 199 62 200
f 193 199 200
f 60 197 202
f 197 7 201
f 201 61 202
f 197 201 202
f 61 203 205
f 203 8 204
f 204 62 205
f 203 204 205
f 60 202 199
f 202 61 205
f 205 62 199
f 202 205 199
f 2 200 168
f 200 62 206
f 206 52 168
f 200 206 168
f 62 204 208
f 204 8 207
f 207 63 208
f 204 207 208
f 63 209 210
f 209 4 170
f 170 52 210
f 209 170 210
f 62 208 206
f 208 63 210
f 210 52 206
f 208 210 206
f 3 211 183
f 211 64 212
f 212 57 183
f 211 212 183
f 64 213 215
f 213 8 214
f 214 65 215
f 213 214 215
f 65 216 217
f 216 5 185
f 185 57 217
f 216 185 217
f 64 215 212
f 215 65 217
f 217 57 212
f 215 217 212
f 3 167 211
f 167 53 218
f 218 64 211
f 167 218 211
f 53 171 219
f 171 4 209
f 209 63 219
f 171 209 219
f 63 207 220
f 207 8 213
f 213 64 220
f 207 213 220
f 53 219 218
f 219 63 220
f 220 64 218
f 219 220 218
f 5 221 177
f 221 66 222
f 222 55 177
f 221 222 177
f 66 223 224
f 223 7 196
f 196 59 224
f 223 196 224
f 59 194 225
f 194 6 179
f 179 55 225
f 194 179 225
f 66 224 222
f 224 59 225
f 225 55 222
f 224 225 222
f 5 216 221
f 216 65 226
f 226 66 221
f 216 226 221
f 65 214 227
f 214 8 203
f 203 61 227
f 214 203 227
f 61 201 228
f 201 7 223
f 223 66 228
f 201 223 228
f 65 227 226
f 227 61 228
f 228 66 226
f 227 228 226
f 9 229 231
f 229 67 230
f 230 69 231
f 229 230 231
f 67 232 234
f 232 10 233
f 233 68 234
f 232 233 234
f 68 235 237
f 235 11 236
f 236 69 237
f 235 236 237
f 67 234 230
f 234 68 237
f 237 69 230
f 234 237 230
f 11 235 239
f 235 68 238
f 238 71 239
f 235 238 239
f 68 233 241
f 233 10 240
f 240 70 241
f 233 240 241
f 70 242 244
f 242 12 243
f 243 71 244
f 242 243 244
f 68 241 238
f 241 70 244
f 244 71 238
f 241 244 238
f 9 245 247
f 245 72 246
f 246 74 247
f 245 246 247
f 72 248 250
f 248 13 249
f 249 73 250
f 248 249 250
f 73 251 253
f 251 14 252
f 252 74 253
f 251 252 253
f 72 250 246
f 250 73 253
f 253 74 246
f 250 253 246
f 9 231 245
f 231 69 254
f 254 72 245
f 231 254 245
f 69 236 256
f 236 11 255
f 255 75 256
f 236 255 256
f 75 257 258
f 257 13 248
f 248 72 258
f 257 248 258
f 69 256 254
f 256 75 258
f 258 72 254
f 256 258 254
f 9 247 229
f 247 74 259
f 259 67 229
f 247 259 229
f 74 252 261
f 252 14 260
f 260 76 261
f 252 260 261
f 76 262 263
f 262 10 232
f 232 67 263
f 262 232 263
f 74 261 259
f 261 76 263
f 263 67 259
f 261 263 259
f 10 262 265
f 262 76 264
f 264 78 265
f 262 264 265
f 76 260 267
f 260 14 266
f 266 77 267
f 260 266 267
f 77 268 270
f 268 15 269
f 269 78 270
f 268 269 270
f 76 267 264
f 267 77 270
f 270 78 264
f 267 270 264
f 10 265 272
f 265 78 271
f 271 80 272
f 265 271 272
f 78 269 274
f 269 15 273
f 273 79 274
f 269 273 274
f 79 275 277
f 275 16 276
f 276 80 277
f 275 276 277
f 78 274 271
f 274 79 277
f 277 80 271
f 274 277 271
f 10 272 240
f 272 80 278
f 278 70 240
f 272 278 240
f 80 276 280
f 276 16 279
f 279 81 280
f 276 279 280
f 81 281 282
f 281 12 242
f 242 70 282
f 281 242 282
f 80 280 278
f 280 81 282
f 282 70 278
f 280 282 278
f 11 283 255
f 283 82 284
f 284 75 255
f 283 284 255
f 82 285 287
f 285 16 286
f 286 83 287
f 285 286 287
f 83 288 289
f 288 13 257
f 257 75 289
f 288 257 289
f 82 287 284
f 287 83 289
f 289 75 284
f 287 289 284
f 11 239 283
f 239 71 290
f 290 82 283
f 239 290 283
f 71 243 291
f 243 12 281
f 281 81 291
f 243 281 291
f 81 279 292
f 279 16 285
f 285 82 292
f 279 285 292
f 71 291 290
f 291 81 292
f 292 82 290
f 291 292 290
f 13 293 249
f 293 84 294
f 294 73 249
f 293 294 249
f 84 295 296
f 295 15 268
f 268 77 296
f 295 268 296
f 77 266 297
f 266 14 251
f 251 73 297
f 266 251 297
f 84 296 294
f 296 77 297
f 297 73 294
f 296 297 294
f 13 288 293
f 288 83 298
f 298 84 293
f 288 298 293
f 83 286 299
f 286 16 275
f 275 79 299
f 286 275 299
f 79 273 300
f 273 15 295
f 295 84 300
f 273 295 300
f 83 299 298
f 299 79 300
f 300 84 298
f 299 300 298
f 17 301 303
f 301 85 302
f 302 87 303
f 301 302 303
f 85 304 306
f 304 18 305
f 305 86 306
f 304 305 306
f 86 307 309
f 307 19 308
f 308 87 309
f 307 308 309
f 85 306 302
f 306 86 309
f 309 87 302
f 306 309 302
f 19 307 311
f 307 86 310
f 310 89 311
f 307 310 311
f 86 305 313
f 305 18 312
f 312 88 313
f 305 312 313
f 88 314 316
f 314 20 315
f 315 89 316
f 314 315 316
f 86 313 310
f 313 88 316
f 316 89 310
f 313 316 310
f 17 317 319
f 317 90 318
f 318 92 319
f 317 318 319
f 90 320 322
f 320 21 321
f 321 91 322
f 320 321 322
f 91 323 325
f 323 22 324
f 324 92 325
f 323 324 325
f 90 322 318
f 322 91 325
f 325 92 318
f 322 325 318
f 17 303 317
f 303 87 326
f 326 90 317
f 303 326 317
f 87 308 328
f 308 19 327
f 327 93 328
f 308 327 328
f 93 329 330
f 329 21 320
f 320 90 330
f 329 320 330
f 87 328 326
f 328 93 330
f 330 90 326
f 328 330 326
f 17 319 301
f 319 92 331
f 331 85 301
f 319 331 301
f 92 324 333
f 324 22 332
f 332 94 333
f 324 332 333
f 94 334 335
f 334 18 304
f 304 85 335
f 334 304 335
f 92 333 331
f 333 94 335
f 335 85 331
f 333 335 331
f 18 334 337
f 334 94 336
f 336 96 337
f 334 336 337
f 94 332 339
f 332 22 338
f 338 95 339
f 332 338 339
f 95 340 342
f 340 23 341
f 341 96 342
f 340 341 342
f 94 339 336
f 339 95 342
f 342 96 336
f 339 342 336
f 18 337 344
f 337 96 343
f 343 98 344
f 337 343 344
f 96 341 346
f 341 23 345
f 345 97 346
f 341 345 346
f 97 347 349
f 347 24 348
f 348 98 349
f 347 348 349
f 96 346 343
f 346 97 349
f 349 98 343
f 346 349 343
f 18 344 312
f 344 98 350
f 350 88 312
f 344 350 312
f 98 348 352
f 348 24 351
f 351 99 352
f 348 351 352
f 99 353 354
f 353 20 314
f 314 88 354
f 353 314 354
f 98 352 350
f 352 99 354
f 354 88 350
f 352 354 350
f 19 355 327
f 355 100 356
f 356 93 327
f 355 356 327
f 100 357 359
f 357 24 358
f 358 101 359
f 357 358 359
f 101 360 361
f 360 21 329
f 329 93 361
f 360 329 361
f 100 359 356
f 359 101 361
f 361 93 356
f 359 361 356
f 19 311 355
f 311 89 362
f 362 100 355
f 311 362 355
f 89 315 363
f 315 20 353
f 353 99 363
f 315 353 363
f 99 351 364
f 351 24 357
f 357 100 364
f 351 357 364
f 89 363 362
f 363 99 364
f 364 100 362
f 363 364 362
f 21 365 321
f 365 102 366
f 366 91 321
f 365 366 321
f 102 367 368
f 367 23 340
f 340 95 368
f 367 340 368
f 95 338 369
f 338 22 323
f 323 91 369
f 338 323 369
f 102 368 366
f 368 95 369
f 369 91 366
f 368 369 366
f 21 360 365
f 360 101 370
f 370 102 365
f 360 370 365
f 101 358 371
f 358 24 347
f 347 97 371
f 358 347 371
f 97 345 372
f 345 23 367
f 367 102 372
f 345 367 372
f 101 371 370
f 371 97 372
f 372 102 370
f 371 372 370
f 25 373 375
f 373 103 374
f 374 105 375
f 373 374 375
f 103 376 378
f 376 26 377
f 377 104 378
f 376 377 378
f 104 379 381
f 379 27 380
f 380 105 381
f 379 380 381
f 103 378 374
f 378 104 381
f 381 105 374
f 378 381 374
f 27 379 383
f 379 104 382
f 382 107 383
f 379 382 383
f 104 377 385
f 377 26 384
f 384 106 385
f 377 384 385
f 106 386 388
f 386 28 387
f 387 107 388
f 386 387 388
f 104 385 382
f 385 106 388
f 388 107 382
f 385 388 382
f 25 389 391
f 389 108 390
f 390 110 391
f 389 390 391
f 108 392 394
f 392 29 393
f 393 109 394
f 392 393 394
f 109 395 397
f 395 30 396
f 396 110 397
f 395 396 397
f 108 394 390
f 394 109 397
f 397 110 390
f 394 397 390
f 25 375 389
f 375 105 398
f 398 108 389
f 375 398 389
f 105 380 400
f 380 27 399
f 399 111 400
f 380 399 400
f 111 401 402
f 401 29 392
f 392 108 402
f 401 392 402
f 105 400 398
f 400 111 402
f 402 108 398
f 400 402 398
f 25 391 373
f 391 110 403
f 403 103 373
f 391 403 373
f 110 396 405
f 396 30 404
f 404 112 405
f 396 404 405
f 112 406 407
f 406 26 376
f 376 103 407
f 406 376 407
f 110 405 403
f 405 112 407
f 407 103 403
f 405 407 403
f 26 406 409
f 406 112 408
f 408 114 409
f 406 408 409
f 112 404 411
f 404 30 410
f 410 113 411
f 404 410 411
f 113 412 414
f 412 31 413
f 413 114 414
f 412 413 414
f 112 411 408
f 411 113 414
f 414 114 408
f 411 414 408
f 26 409 416
f 409 114 415
f 415 116 416
f 409 415 416
f 114 413 418
f 413 31 417
f 417 115 418
f 413 417 418
f 115 419 421
f 419 32 420
f 420 116 421
f 419 420 421
f 114 418 415
f 418 115 421
f 421 116 415
f 418 421 415
f 26 416 384
f 416 116 422
f 422 106 384
f 416 422 384
f 116 420 424
f 420 32 423
f 423 117 424
f 420 423 424
f 117 425 426
f 425 28 386
f 386 106 426
f 425 386 426
f 116 424 422
f 424 117 426
f 426 106 422
f 424 426 422
f 27 427 399
f 427 118 428
f 428 111 399
f 427 428 399
f 118 429 431
f 429 32 430
f 430 119 431
f 429 430 431
f 119 432 433
f 432 29 401
f 401 111 433
f 432 401 433
f 118 431 428
f 431 119 433
f 433 111 428
f 431 433 428
f 27 383 427
f 383 107 434
f 434 118 427
f 383 434 427
f 107 387 435
f 387 28 425
f 425 117 435
f 387 425 435
f 117 423 436
f 423 32 429
f 429 118 436
f 423 429 436
f 107 435 434
f 435 117 436
f 436 118 434
f 435 436 434
f 29 437 393
f 437 120 438
f 438 109 393
f 437 438 393
f 120 439 440
f 439 31 412
f 412 113 440
f 439 412 440
f 113 410 441
f 410 30 395
f 395 109 441
f 410 395 441
f 120 440 438
f 440 113 441
f 441 109 438
f 440 441 438
f 29 432 437
f 432 119 442
f 442 120 437
f 432 442 437
f 119 430 443
f 430 32 419
f 419 115 443
f 430 419 443
f 115 417 444
f 417 31 439
f 439 120 444
f 417 439 444
f 119 443 442
f 443 115 444
f 444 120 442
f 443 444 442
f 33 445 447
f 445 121 446
f 446 123 447
f 445 446 447
f 121 448 450
f 448 34 449
f 449 122 450
f 448 449 450
f 122 451 453
f 451 35 452
f 452 123 453
f 451 452 453
f 121 450 446
f 450 122 453
f 453 123 446
f 450 453 446
f 35 451 455
f 451 122 454
f 454 125 455
f 451 454 455
f 122 449 457
f 449 34 456
f 456 124 457
f 449 456 457
f 124 458 460
f 458 36 459
f 459 125 460
f 458 459 460
f 122 457 454
f 457 124 460
f 460 125 454
f 457 460 454
f 33 461 463
f 461 126 462
f 462 128 463
f 461 462 463
f 126 464 466
f 464 37 465
f 465 127 466
f 464 465 466
f 127 467 469
f 467 38 468
f 468 128 469
f 467 468 469
f 126 466 462
f 466 127 469
f 469 128 462
f 466 469 462
f 33 447 461
f 447 123 470
f 470 126 461
f 447 470 461
f 123 452 472
f 452 35 471
f 471 129 472
f 452 471 472
f 129 473 474
f 473 37 464
f 464 126 474
f 473 464 474
f 123 472 470
f 472 129 474
f 474 126 470
f 472 474 470
f 33 463 445
f 463 128 475
f 475 121 445
f 463 475 445
f 128 468 477
f 468 38 476
f 476 130 477
f 468 476 477
f 130 478 479
f 478 34 448
f 448 121 479
f 478 448 479
f 128 477 475
f 477 130 479
f 479 121 475
f 477 479 475
f 34 478 481
f 478 130 480
f 480 132 481
f 478 480 481
f 130 476 483
f 476 38 482
f 482 131 483
f 476 482 483
f 131 484 486
f 484 39 485
f 485 132 486
f 484 485 486
f 130 483 480
f 483 131 486
f 486 132 480
f 483 486 480
f 34 481 488
f 481 132 487
f 487 134 488
f 481 487 488
f 132 485 490
f 485 39 489
f 489 133 490
f 485 489 490
f 133 491 493
f 491 40 492
f 492 134 493
f 491 492 493
f 132 490 487
f 490 133 493
f 493 134 487
f 490 493 487
f 34 488 456
f 488 134 494
f 494 124 456
f 488 494 456
f 134 492 496
f 492 40 495
f 495 135 496
f 492 495 496
f 135 497 498
f 497 36 458
f 458 124 498
f 497 458 498
f 134 496 494
f 496 135 498
f 498 124 494
f 496 498 494
f 35 499 471
f 499 136 500
f 500 129 471
f 499 500 471
f 136 501 503
f 501 40 502
f 502 137 503
f 501 502 503
f 137 504 505
f 504 37 473
f 473 129 505
f 504 473 505
f 136 503 500
f 503 137 505
f 505 129 500
f 503 505 500
f 35 455 499
f 455 125 506
f 506 136 499
f 455 506 499
f 125 459 507
f 459 36 497
f 497 135 507
f 459 497 507
f 135 495 508
f 495 40 501
f 501 136 508
f 495 501 508
f 125 507 506
f 507 135 508
f 508 136 506
f 507 508 506
f 37 509 465
f 509 138 510
f 510 127 465
f 509 510 465
f 138 511 512
f 511 39 484
f 484 131 512
f 511 484 512
f 131 482 513
f 482 38 467
f 467 127 513
f 482 467 513
f 138 512 510
f 512 131 513
f 513 127 510
f 512 513 510
f 37 504 509
f 504 137 514
f 514 138 509
f 504 514 509
f 137 502 515
f 502 40 491
f 491 133 515
f 502 491 515
f 133 489 516
f 489 39 511
f 511 138 516
f 489 511 516
f 137 515 514
f 515 133 516
f 516 138 514
f 515 516 514
f 41 517 519
f 517 139 518
f 518 141 519
f 517 518 519
f 139 520 522
f 520 42 521
f 521 140 522
f 520 521 522
f 140 523 525
f 523 43 524
f 524 141 525
f 523 524 525
f 139 522 518
f 522 140 525
f 525 141 518
f 522 525 518
f 43 523 527
f 523 140 526
f 526 143 527
f 523 526 527
f 140 521 529
f 521 42 528
f 528 142 529
f 521 528 529
f 142 530 532
f 530 44 531
f 531 143 532
f 530 531 532
f 140 529 526
f 529 142 532
f 532 143 526
f 529 532 526
f 41 533 535
f 533 144 534
f 534 146 535
f 533 534 535
f 144 536 538
f 536 45 537
f 537 145 538
f 536 537 538
f 145 539 541
f 539 46 540
f 540 146 541
f 539 540 541
f 144 538 534
f 538 145 541
f 541 146 534
f 538 541 534
f 41 519 533
f 519 141 542
f 542 144 533
f 519 542 533
f 141 524 544
f 524 43 543
f 543 147 544
f 524 543 544
f 147 545 546
f 545 45 536
f 536 144 546
f 545 536 546
f 141 544 542
f 544 147 546
f 546 144 542
f 544 546 542
f 41 535 517
f 535 146 547
f 547 139 517
f 535 547 517
f 146 540 549
f 540 46 548
f 548 148 549
f 540 548 549
f 148 550 551
f 550 42 520
f 520 139 551
f 550 520 551
f 146 549 547
f 549 148 551
f 551 139 547
f 549 551 547
f 42 550 553
f 550 148 552
f 552 150 553
f 550 552 553
f 148 548 555
f 548 46 554
f 554 149 555
f 548 554 555
f 149 556 558
f 556 47 557
f 557 150 558
f 556 557 558
f 148 555 552
f 555 149 558
f 558 150 552
f 555 558 552
f 42 553 560
f 553 150 559
f 559 152 560
f 553 559 560
f 150 557 562
f 557 47 561
f 561 151 562
f 557 561 562
f 151 563 565
f 563 48 564
f 564 152 565
f 563 564 565
f 150 562 559
f 562 151 565
f 565 152 559
f 562 565 559
f 42 560 528
f 560 152 566
f 566 142 528
f 560 566 528
f 152 564 568
f 564 48 567
f 567 153 568
f 564 567 568
f 153 569 570
f 569 44 530
f 530 142 570
f 569 530 570
f 152 568 566
f 568 153 570
f 570 142 566
f 568 570 566
f 43 571 543
f 571 154 572
f 572 147 543
f 571 572 543
f 154 573 575
f 573 48 574
f 574 155 575
f 573 574 575
f 155 576 577
f 576 45 545
f 545 147 577
f 576 545 577
f 154 575 572
f 575 155 577
f 577 147 572
f 575 577 572
f 43 527 571
f 527 143 578
f 578 154 571
f 527 578 571
f 143 531 579
f 531 44 569
f 569 153 579
f 531 569 579
f 153 567 580
f 567 48 573
f 573 154 580
f 567 573 580
f 143 579 578
f 579 153 580
f 580 154 578
f 579 580 578
f 45 581 537
f 581 156 582
f 582 145 537
f 581 582 537
f 156 583 584
f 583 47 556
f 556 149 584
f 583 556 584
f 149 554 585
f 554 46 539
f 539 145 585
f 554 539 585
f 156 584 582
f 584 149 585
f 585 145 582
f 584 585 582
f 45 576 581
f 576 155 586
f 586 156 581
f 576 586 581
f 155 574 587
f 574 48 563
f 563 151 587
f 574 563 587
f 151 561 588
f 561 47 583
f 583 156 588
f 561 583 588
f 155 587 586
f 587 151 588
f 588 156 586
f 587 588 586
