# Unified Preprocessed OBJ file from D01031.obj
# Applied remeshing: Yes
# Applied 4-step normalization: centering, PCA alignment, flipping, scaling
# Generated on 2025-09-29 15:20:27

v -0.320307 -0.110212 0.062123
v -0.318966 -0.110353 0.061900
v -0.317965 -0.110198 0.062122
v 0.220006 -0.094960 0.070481
v 0.206121 -0.095724 0.069446
v 0.218720 -0.095969 0.068950
v 0.162415 -0.095312 0.070503
v 0.201646 -0.100635 0.061971
v 0.167416 -0.100844 0.061984
v 0.164106 -0.097893 0.066535
v -0.505151 -0.052011 0.079510
v -0.254228 -0.050417 0.070995
v -0.254224 -0.050477 0.079416
v -0.505155 -0.051951 0.071089
v -0.489645 -0.040341 0.046150
v 0.456946 -0.034790 0.079228
v 0.456932 -0.034554 0.045794
v -0.489631 -0.040577 0.079584
v -0.423011 0.076171 0.052698
v 0.413812 0.081327 0.046630
v 0.413815 0.081287 0.052383
v -0.423013 0.076212 0.046945
v -0.423723 0.102649 0.058386
v 0.413440 0.106357 0.060531
v 0.413430 0.107767 0.058071
v -0.423713 0.101240 0.060846
v -0.423728 0.102728 0.047133
v 0.413425 0.107846 0.046817
v 0.413396 0.112682 0.046852
v -0.423757 0.107564 0.047167
v -0.423758 0.107578 0.045249
v 0.413395 0.112695 0.044934
v 0.413381 0.115019 0.044950
v -0.423777 0.110746 0.045271
v 0.413336 0.115644 0.044955
v 0.413290 0.115863 0.044956
v -0.423778 0.110759 0.043437
v 0.413290 0.115876 0.043122
v 0.413394 0.112708 0.043100
v -0.423759 0.107591 0.043415
v 0.413380 0.115032 0.043116
v 0.413335 0.115657 0.043120
v -0.423759 0.107599 0.042248
v 0.413394 0.112716 0.041932
v 0.413402 0.111299 0.041922
v -0.423750 0.106182 0.042238
v -0.423752 0.106203 0.039236
v 0.413401 0.111320 0.038921
v 0.413392 0.112738 0.038931
v -0.423760 0.107620 0.039246
v -0.423764 0.107680 0.030742
v 0.413389 0.112798 0.030426
v -0.132063 0.118294 0.020247
v -0.123470 0.117831 0.025366
v -0.123475 0.118347 0.020244
v -0.132058 0.117779 0.025369
v -0.132067 0.118703 0.015116
v -0.123480 0.118756 0.015112
v -0.132071 0.119006 0.009977
v -0.123484 0.119059 0.009974
v -0.132074 0.119202 0.004833
v -0.123487 0.119255 0.004829
v -0.132077 0.119292 -0.000314
v -0.123489 0.119345 -0.000318
v -0.132079 0.119275 -0.005462
v -0.123491 0.119328 -0.005465
v 0.028669 0.119567 -0.020949
v 0.178262 0.120818 -0.015868
v 0.178262 0.120482 -0.021005
v -0.123493 0.118974 -0.015755
v -0.123493 0.118637 -0.020891
v 0.028670 0.119124 -0.026077
v 0.178263 0.120038 -0.026134
v 0.028672 0.118575 -0.031196
v 0.178264 0.119489 -0.031252
v -0.423812 0.111569 -0.032806
v 0.413202 0.116673 -0.031371
v 0.413201 0.116685 -0.033122
v -0.423811 0.111556 -0.031055
v 0.413358 0.114018 -0.033140
v -0.423795 0.108901 -0.032825
v 0.413348 0.115571 -0.033129
v 0.413303 0.116195 -0.033125
v -0.423795 0.108888 -0.031074
v 0.413358 0.114006 -0.031390
v 0.413369 0.112172 -0.031403
v -0.423783 0.107054 -0.031087
v -0.423779 0.106280 -0.031961
v 0.413374 0.111397 -0.032276
v -0.423782 0.106327 -0.038631
v 0.413371 0.111444 -0.038946
v 0.413346 0.115611 -0.038917
v -0.423814 0.111609 -0.038594
v 0.413301 0.116236 -0.038912
v 0.413199 0.116726 -0.038909
v -0.423815 0.111632 -0.041845
v 0.413198 0.116749 -0.042160
v 0.413354 0.114082 -0.042179
v -0.423799 0.108964 -0.041864
v 0.413344 0.115634 -0.042168
v 0.413299 0.116259 -0.042164
v -0.423800 0.108975 -0.043365
v 0.413353 0.114093 -0.043680
v 0.413369 0.111478 -0.043699
v -0.423784 0.106360 -0.043383
v -0.423784 0.106372 -0.044968
v 0.413368 0.111489 -0.045283
v 0.413384 0.108988 -0.045300
v -0.423769 0.103870 -0.044985
v -0.423774 0.103948 -0.055991
v 0.413379 0.109066 -0.056306
v -0.419223 0.077800 -0.043587
v 0.414205 0.082945 -0.051029
v 0.414208 0.082895 -0.043901
v -0.423060 0.077827 -0.050714
v -0.423057 0.077777 -0.043585
v -0.505219 -0.050188 -0.071136
v -0.254295 -0.048613 -0.076983
v -0.254292 -0.048654 -0.071230
v -0.505221 -0.050147 -0.076889
v 0.220298 -0.093687 -0.070470
v 0.206062 -0.094747 -0.069036
v 0.162177 -0.094042 -0.070448
v 0.218662 -0.094998 -0.068559
v 0.201594 -0.099762 -0.061711
v 0.167364 -0.099971 -0.061698
v 0.164050 -0.096956 -0.066153
v -0.418356 -0.109865 -0.061098
v -0.427140 -0.109525 -0.061516
v -0.416961 -0.109463 -0.061520
v -0.425318 -0.109984 -0.061013
v 0.032515 0.119906 0.011714
v 0.032514 0.120012 0.009915
v 0.028680 0.119883 0.011715
v 0.028682 0.119686 0.015055
v -0.123490 0.117644 -0.031139
v -0.123457 0.115986 0.030500
v -0.123483 0.116421 -0.031147
v -0.123492 0.118194 -0.026020
v -0.123492 0.119204 -0.010612
v -0.123464 0.117210 0.030476
v -0.318481 0.117867 0.010047
v -0.254394 0.117956 0.015162
v -0.254398 0.118258 0.010023
v -0.318670 0.117563 0.015186
v 0.032511 0.120209 0.004771
v -0.318368 0.118064 0.004903
v -0.254401 0.118455 0.004879
v -0.318332 0.118153 -0.000244
v -0.254403 0.118544 -0.000268
v 0.032508 0.120298 -0.000376
v -0.419538 0.117518 -0.005354
v -0.410698 0.117589 -0.000209
v -0.410700 0.117572 -0.005357
v -0.419536 0.117535 -0.000206
v -0.248399 0.118295 0.010021
v -0.184834 0.118662 0.010368
v -0.184835 0.118684 0.009997
v -0.248542 0.117991 0.015160
v -0.184496 0.118383 0.015135
v -0.254406 0.117393 -0.025971
v -0.254382 0.116728 0.027908
v -0.254405 0.117125 -0.028468
v -0.254407 0.117837 -0.020842
v -0.254407 0.118173 -0.015705
v -0.254406 0.118404 -0.010563
v -0.254405 0.118527 -0.005416
v -0.254390 0.117546 0.020293
v -0.254385 0.117031 0.025415
v -0.419530 0.117249 0.010085
v -0.410689 0.117000 0.015221
v -0.410693 0.117303 0.010082
v -0.419527 0.116946 0.015224
v -0.248313 0.118492 0.004876
v -0.184838 0.118880 0.004853
v -0.419534 0.117445 0.004941
v -0.410696 0.117499 0.004938
v -0.248286 0.118582 -0.000271
v -0.184840 0.118970 -0.000295
v -0.410699 0.115889 -0.031030
v -0.394602 0.115117 -0.031043
v -0.410694 0.115019 -0.031037
v -0.394608 0.115987 -0.031036
v -0.422420 0.114296 -0.031037
v -0.422055 0.113992 0.030616
v -0.422081 0.114427 -0.031036
v -0.422394 0.113860 0.030619
v -0.319694 0.116010 0.030550
v -0.323135 0.114676 0.030577
v -0.320634 0.114692 0.030576
v -0.324438 0.115981 0.030552
v -0.421700 0.114073 0.030615
v -0.421726 0.114508 -0.031036
v -0.324464 0.116416 -0.031063
v -0.320660 0.115127 -0.031074
v -0.323161 0.115111 -0.031073
v -0.319719 0.116445 -0.031065
v 0.394610 0.120377 0.030281
v 0.376772 0.119559 0.030302
v 0.394614 0.119668 0.030295
v 0.376768 0.120268 0.030288
v -0.421338 0.114101 0.030614
v -0.421364 0.114537 -0.031035
v 0.028687 0.119277 0.020187
v 0.178284 0.119676 0.025252
v 0.178279 0.120191 0.020130
v 0.028692 0.118761 0.025309
v -0.419522 0.116537 0.020356
v -0.410679 0.116075 0.025474
v -0.410684 0.116591 0.020352
v -0.419517 0.116021 0.025477
v 0.178275 0.120600 0.014999
v 0.036100 0.119928 0.011712
v 0.036099 0.120034 0.009913
v 0.038684 0.120050 0.009912
v 0.178271 0.120903 0.009860
v 0.038685 0.119944 0.011711
v -0.394582 0.115552 0.030578
v -0.410668 0.114584 0.030602
v -0.394577 0.114682 0.030596
v -0.410674 0.115454 0.030584
v 0.376742 0.120702 -0.031327
v 0.394589 0.120103 -0.031339
v 0.376746 0.119994 -0.031332
v 0.394584 0.120811 -0.031334
v -0.182562 0.117283 -0.031116
v -0.132071 0.116452 -0.031143
v -0.181013 0.116152 -0.031125
v -0.132078 0.117592 -0.031135
v -0.423675 0.095010 0.060802
v -0.423724 0.095835 -0.056048
v -0.423811 0.111584 -0.031055
v -0.423785 0.111148 0.030673
v 0.375589 0.121397 0.020056
v 0.240491 0.120056 0.025229
v 0.376665 0.120888 0.025178
v 0.240868 0.120574 0.020107
v 0.240029 0.119432 0.030339
v 0.178297 0.117958 0.030384
v 0.239161 0.118330 0.030361
v 0.178290 0.119054 0.030363
v -0.249323 0.116440 0.030524
v -0.251785 0.114974 0.030553
v -0.250118 0.114984 0.030553
v -0.251794 0.116425 0.030525
v 0.241490 0.121559 -0.005603
v 0.178265 0.121189 -0.000431
v 0.241535 0.121576 -0.000455
v 0.178263 0.121172 -0.005579
v 0.178271 0.118393 -0.031260
v 0.178262 0.121049 -0.010725
v 0.178268 0.121100 0.004716
v 0.241362 0.121434 -0.010749
v 0.036096 0.120230 0.004769
v 0.036093 0.120320 -0.000378
v -0.132080 0.118921 -0.015751
v -0.132080 0.119151 -0.010609
v 0.028697 0.118140 0.030419
v 0.374751 0.121802 0.014925
v 0.241161 0.120985 0.014975
v -0.251820 0.116860 -0.031090
v -0.250144 0.115419 -0.031101
v -0.251811 0.115409 -0.031100
v -0.249349 0.116875 -0.031091
v 0.028705 0.116916 0.030443
v -0.419504 0.114113 0.030613
v -0.419529 0.114548 -0.031036
v -0.192022 -0.094617 0.070657
v -0.252077 -0.097846 0.070659
v -0.193871 -0.097490 0.070637
v -0.256074 -0.094991 0.070681
v -0.189882 -0.087943 0.070703
v -0.281253 -0.095144 0.070690
v -0.343882 -0.094418 0.070722
v -0.382819 -0.094656 0.070736
v -0.446698 -0.095036 0.070760
v -0.448614 -0.088341 0.070809
v -0.189544 -0.080943 0.070752
v -0.482114 -0.089643 0.070813
v -0.496229 -0.099339 0.070751
v -0.482055 -0.099252 0.070746
v -0.496364 -0.077140 0.070908
v -0.480547 -0.088536 0.070821
v -0.191028 -0.074093 0.070801
v -0.498699 -0.077154 0.070908
v -0.501700 -0.077173 0.070910
v -0.501712 -0.075237 0.070923
v -0.192000 -0.072205 0.070815
v -0.506131 -0.075264 0.070925
v -0.512522 -0.077239 0.070914
v -0.508937 -0.077217 0.070912
v -0.515463 -0.074026 0.070938
v -0.191904 -0.072048 0.070816
v -0.444306 -0.099021 0.070731
v -0.387822 -0.098676 0.070710
v -0.341833 -0.098395 0.070693
v -0.284675 -0.098045 0.070671
v -0.342466 -0.097612 0.070699
v -0.506191 -0.074265 -0.070664
v -0.508997 -0.076218 -0.070625
v -0.342525 -0.096617 -0.070268
v -0.284406 -0.096772 -0.070280
v -0.342114 -0.097125 -0.070258
v -0.281312 -0.094149 -0.070332
v -0.343941 -0.093423 -0.070330
v -0.256133 -0.093995 -0.070342
v -0.444530 -0.097751 -0.070220
v -0.382878 -0.093661 -0.070316
v -0.387535 -0.097403 -0.070241
v -0.446757 -0.094040 -0.070292
v -0.501772 -0.074238 -0.070665
v -0.498758 -0.076155 -0.070629
v -0.501760 -0.076174 -0.070628
v -0.496424 -0.076141 -0.070630
v -0.191088 -0.073094 -0.070768
v -0.192059 -0.071206 -0.070804
v -0.482116 -0.097981 -0.070205
v -0.496290 -0.098067 -0.070200
v -0.482173 -0.088646 -0.070388
v -0.480606 -0.087540 -0.070410
v -0.448673 -0.087344 -0.070422
v -0.189603 -0.079945 -0.070634
v -0.193752 -0.096218 -0.070314
v -0.252520 -0.096577 -0.070292
v -0.192081 -0.093622 -0.070365
v -0.189942 -0.086946 -0.070497
v -0.516072 -0.072426 -0.070697
v -0.512582 -0.076240 -0.070624
v -0.188823 -0.065907 -0.070909
v -0.516158 -0.058416 -0.070972
v -0.252640 -0.059789 -0.071013
v -0.252658 -0.056787 -0.071071
v -0.254243 -0.056797 -0.071071
v -0.514603 -0.056351 -0.071013
v -0.505182 -0.056294 -0.071016
v -0.250907 -0.056776 -0.071072
v -0.193627 -0.057514 -0.071072
v -0.250889 -0.059778 -0.071013
v -0.235233 -0.056681 -0.071078
v -0.228572 -0.052710 -0.071157
v -0.208994 -0.052868 -0.071159
v -0.223820 -0.052681 -0.071159
v -0.211676 -0.050885 -0.071197
v -0.222015 -0.050948 -0.071194
v -0.201991 -0.052825 -0.071162
v -0.190125 -0.057493 -0.071074
v -0.188883 -0.056067 -0.071102
v -0.190133 -0.056075 -0.071101
v -0.516013 -0.073426 0.070942
v 0.141040 -0.048001 0.070846
v -0.171886 -0.071926 0.070808
v 0.141175 -0.070012 0.070690
v -0.172020 -0.049915 0.070964
v -0.505122 -0.057296 0.071051
v -0.254183 -0.057799 0.070942
v -0.188763 -0.066908 0.070851
v -0.516098 -0.059419 0.071041
v -0.252580 -0.060791 0.070921
v -0.250830 -0.060780 0.070920
v -0.252599 -0.057789 0.070942
v -0.514544 -0.057354 0.071055
v -0.190065 -0.058495 0.070911
v -0.188823 -0.057070 0.070920
v -0.193567 -0.058516 0.070912
v -0.190074 -0.057077 0.070921
v -0.201931 -0.053828 0.070949
v -0.235173 -0.057683 0.070935
v -0.208935 -0.053871 0.070951
v -0.228512 -0.053713 0.070961
v -0.223760 -0.053684 0.070959
v -0.211617 -0.051889 0.070966
v -0.221955 -0.051952 0.070970
v -0.250848 -0.057779 0.070941
v -0.505234 -0.048164 -0.076875
v -0.505168 -0.049268 0.079529
v -0.260556 -0.047372 -0.076972
v -0.254298 -0.048084 -0.076979
v -0.260551 -0.048122 -0.076977
v -0.277576 -0.045558 -0.076952
v -0.277565 -0.047476 -0.076965
v -0.172101 -0.045885 -0.076998
v -0.173856 -0.044924 -0.076991
v -0.172087 -0.048111 -0.077014
v 0.169421 -0.047887 0.079256
v 0.472467 -0.045975 0.070721
v 0.472471 -0.046034 0.079142
v 0.169417 -0.047828 0.070835
v -0.172035 -0.046989 0.079406
v -0.172017 -0.049974 0.079385
v -0.254232 -0.049188 0.079425
v -0.260486 -0.049226 0.079427
v -0.260490 -0.048475 0.079432
v -0.277499 -0.048579 0.079439
v -0.277511 -0.046662 0.079452
v -0.173791 -0.046028 0.079413
v -0.501107 -0.049244 0.079528
v -0.501172 -0.048140 -0.076876
v 0.244408 -0.043791 0.079253
v 0.227741 -0.045227 0.079250
v 0.244416 -0.045125 0.079244
v 0.170804 -0.046993 0.079262
v 0.141044 -0.048061 0.079267
v 0.141022 -0.044423 0.079292
v 0.227750 -0.046644 0.079240
v -0.489145 -0.039962 0.046153
v -0.489196 -0.039095 -0.076817
v 0.472452 -0.042970 0.079164
v 0.468366 -0.042995 0.079165
v -0.493562 0.022358 -0.043947
v -0.489421 -0.027643 -0.044302
v -0.493257 -0.027667 -0.044300
v -0.489727 0.022381 -0.043948
v -0.437374 0.037542 -0.043863
v -0.433382 0.025644 -0.043949
v -0.437283 0.022702 -0.043968
v -0.433455 0.037566 -0.043865
v -0.429997 0.031084 -0.043912
v -0.422757 0.028609 -0.043933
v -0.429964 0.025665 -0.043950
v -0.424828 0.031116 -0.043914
v -0.498880 -0.031425 -0.044324
v -0.418510 -0.038840 -0.044410
v -0.489245 -0.039273 -0.044384
v -0.453820 -0.027426 -0.044315
v -0.505334 -0.029742 -0.044310
v -0.505346 -0.027741 -0.044296
v -0.454125 0.022599 -0.043962
v -0.498842 -0.032064 0.046213
v -0.489258 -0.039044 -0.076817
v -0.505296 -0.030381 0.046227
v -0.505308 -0.028380 0.046241
v -0.493255 -0.027691 -0.040873
v -0.493220 -0.028281 0.042753
v -0.493219 -0.028306 0.046237
v -0.489420 -0.027668 -0.040874
v -0.482214 -0.028214 0.042749
v -0.482249 -0.027624 -0.040877
v -0.489385 -0.028258 0.042752
v -0.453782 -0.028065 0.046222
v -0.489383 -0.028282 0.046235
v -0.454087 0.021960 0.046575
v -0.437245 0.022063 0.046569
v -0.437336 0.036903 0.046674
v -0.433417 0.036927 0.046672
v -0.433344 0.025005 0.046588
v -0.429926 0.025026 0.046587
v -0.429959 0.030445 0.046625
v -0.424790 0.030477 0.046623
v -0.422719 0.027970 0.046605
v -0.428780 0.090911 -0.056081
v -0.425640 0.082123 -0.052478
v -0.428725 0.082104 -0.052477
v 0.418817 0.086058 -0.052293
v -0.423072 0.079773 -0.051511
v -0.425630 0.080534 -0.051828
v 0.418754 0.096092 -0.056400
v -0.423028 0.079027 0.054299
v 0.413811 0.081919 0.052737
v 0.418862 0.085303 0.054615
v -0.425586 0.079782 0.054732
v -0.425595 0.081360 0.055617
v 0.418800 0.095718 0.060453
v -0.428680 0.081341 0.055618
v -0.428734 0.090537 0.060773
v -0.428797 0.093636 -0.056061
v 0.418750 0.096843 -0.056395
v -0.426462 0.093650 -0.056062
v 0.413435 0.099976 -0.056370
v -0.426476 0.095818 -0.056047
v -0.426413 0.092825 0.060788
v -0.426427 0.094993 0.060803
v 0.413484 0.099151 0.060480
v 0.418799 0.096018 0.060456
v -0.428748 0.092811 0.060789
v -0.132052 0.117157 0.030479
v -0.180987 0.115717 0.030520
v -0.132045 0.116016 0.030502
v -0.182537 0.116848 0.030498
v -0.325961 -0.108813 -0.051493
v -0.319017 -0.109487 -0.060890
v -0.319014 -0.109553 -0.051501
v -0.324505 -0.108898 -0.061554
v -0.325965 -0.108742 -0.061553
v -0.418304 -0.110735 0.062160
v -0.432022 -0.109165 0.062177
v -0.425267 -0.110854 0.062162
v -0.411609 -0.108819 0.062171
v -0.438111 -0.105786 0.062204
v -0.405638 -0.105235 0.062194
v -0.439387 -0.104553 0.062213
v -0.404775 -0.104342 0.062200
v -0.219397 -0.109595 0.062085
v -0.214090 -0.109849 0.061657
v -0.212717 -0.109554 0.062082
v 0.388004 -0.105882 0.061856
v 0.388157 -0.105914 0.061808
v 0.388798 -0.105877 0.061856
v -0.432074 -0.108292 -0.061505
v -0.411661 -0.107946 -0.061511
v -0.438163 -0.104913 -0.061479
v -0.405690 -0.104362 -0.061488
v -0.439439 -0.103680 -0.061469
v -0.404827 -0.103469 -0.061482
v -0.214141 -0.108985 -0.060780
v -0.222289 -0.108273 -0.061593
v -0.210552 -0.108201 -0.061597
v -0.221142 -0.108643 -0.061189
v -0.314922 -0.108839 -0.061558
v 0.161913 -0.094429 0.053463
v 0.164101 -0.097800 0.053438
v 0.160281 -0.091119 -0.070505
v 0.161869 -0.093688 -0.051591
v 0.160340 -0.092115 0.070526
v 0.164057 -0.097059 -0.051615
v 0.161891 -0.094054 0.000269
v -0.285509 -0.097718 -0.068901
v -0.297869 -0.097794 -0.068896
v -0.300294 -0.101159 -0.063975
v -0.302356 -0.102842 -0.061521
v -0.336844 -0.103053 -0.061508
v -0.338132 -0.102105 -0.062912
v -0.171136 -0.097351 0.070628
v 0.135579 -0.097212 0.067855
v 0.139397 -0.095453 0.070512
v -0.163909 -0.099043 0.067968
v -0.227765 -0.107374 0.062104
v -0.221094 -0.109453 0.053518
v -0.221090 -0.109513 0.062086
v -0.227768 -0.107314 0.053536
v 0.189095 -0.106719 0.061934
v 0.175413 -0.105638 0.061947
v 0.182183 -0.107079 0.061934
v 0.195678 -0.104582 0.061946
v 0.169247 -0.102494 0.061972
v 0.201484 -0.100814 0.061970
v -0.207240 -0.108367 0.062088
v -0.201008 -0.105161 0.062108
v -0.233658 -0.103581 0.062133
v -0.198718 -0.103082 0.062122
v -0.233915 -0.103297 0.062135
v 0.175361 -0.104765 -0.061735
v 0.189318 -0.105757 -0.061748
v 0.180280 -0.105812 -0.061744
v 0.195626 -0.103709 -0.061736
v 0.169195 -0.101621 -0.061710
v 0.201433 -0.099941 -0.061712
v -0.227816 -0.106501 -0.061578
v -0.207292 -0.107494 -0.061594
v -0.201060 -0.104288 -0.061574
v -0.233710 -0.102708 -0.061549
v -0.198770 -0.102209 -0.061560
v -0.233967 -0.102424 -0.061547
v 0.189043 -0.105846 -0.061653
v 0.182131 -0.106209 -0.061308
v 0.307855 -0.095358 -0.067263
v 0.250030 -0.093505 -0.070481
v 0.309142 -0.093144 -0.070503
v 0.265918 -0.095029 -0.068107
v 0.304061 -0.099135 -0.061749
v 0.270125 -0.099343 -0.061737
v 0.251577 -0.095116 -0.068102
v -0.285451 -0.098696 0.069682
v -0.297811 -0.098772 0.069687
v -0.300240 -0.102067 0.064665
v -0.302304 -0.103715 0.062161
v -0.336792 -0.103926 0.062174
v -0.338079 -0.102998 0.063608
v 0.415235 -0.088207 0.070447
v 0.352934 -0.094148 0.070431
v 0.412427 -0.093784 0.070409
v 0.349792 -0.091307 0.070452
v 0.331199 -0.091420 0.070459
v 0.325807 -0.082894 0.070522
v 0.416361 -0.082781 0.070485
v 0.449247 -0.082507 0.070473
v 0.449179 -0.071501 0.070551
v 0.325755 -0.074326 0.070582
v 0.312669 -0.074406 0.070587
v 0.483842 -0.068648 0.070556
v 0.477520 -0.071328 0.070540
v 0.481689 -0.071303 0.070538
v 0.475095 -0.069038 0.070557
v 0.470426 -0.069067 0.070559
v 0.470440 -0.071371 0.070543
v 0.159284 -0.071849 0.070670
v 0.160071 -0.070305 0.070680
v 0.483838 -0.067917 0.070561
v 0.159745 -0.069898 0.070683
v 0.311409 -0.090381 0.070475
v 0.250355 -0.094775 0.070470
v 0.309038 -0.094416 0.070448
v 0.247514 -0.091845 0.070492
v 0.223751 -0.091991 0.070501
v 0.158203 -0.085531 0.070574
v 0.313246 -0.083731 0.070521
v 0.157843 -0.078619 0.070623
v 0.313299 -0.076831 0.070570
v -0.312063 -0.109271 0.062126
v -0.325913 -0.109615 0.062129
v -0.332433 -0.107102 0.062150
v -0.305677 -0.106439 0.062143
v -0.405642 -0.105175 0.053625
v -0.411613 -0.108758 0.053603
v -0.312115 -0.108398 -0.061556
v -0.332485 -0.106229 -0.061532
v -0.305729 -0.105566 -0.061539
v -0.342456 -0.097512 0.053653
v -0.338083 -0.102927 0.053613
v -0.342500 -0.096771 -0.051401
v -0.338127 -0.102186 -0.051441
v -0.342478 -0.097137 0.000459
v -0.195872 -0.099550 -0.065440
v -0.238423 -0.097466 -0.068865
v -0.251180 -0.097544 -0.068860
v -0.389182 -0.098741 -0.068290
v -0.400578 -0.098810 -0.068286
v -0.400853 -0.099313 -0.067551
v -0.443172 -0.100035 -0.066854
v -0.482031 -0.103521 0.064209
v -0.496205 -0.103607 0.064215
v 0.395089 -0.105517 0.061856
v 0.381358 -0.104503 0.061869
v 0.401682 -0.103340 0.061868
v 0.375157 -0.101380 0.061893
v 0.407487 -0.099531 0.061893
v 0.373145 -0.099586 0.061907
v 0.407626 -0.099375 0.061894
v -0.207244 -0.108307 0.053520
v -0.214093 -0.109791 0.053512
v 0.290261 -0.105378 -0.061531
v 0.282861 -0.105185 -0.061783
v 0.291194 -0.105134 -0.061786
v 0.283361 -0.105324 -0.061631
v 0.159225 -0.070850 -0.070902
v 0.160012 -0.069306 -0.070932
v 0.141325 -0.094555 0.070517
v -0.172670 -0.096988 0.070632
v -0.172689 -0.093903 0.070653
v -0.171756 -0.093202 0.070658
v -0.172730 -0.095993 -0.070324
v 0.139939 -0.094178 -0.070440
v -0.172333 -0.096087 -0.070322
v 0.141266 -0.093560 -0.070452
v -0.172748 -0.092908 -0.070384
v 0.140976 -0.046238 -0.071379
v -0.171815 -0.092206 -0.070398
v -0.172085 -0.048151 -0.071261
v -0.170352 -0.048141 -0.071262
v -0.332481 -0.106300 -0.051472
v 0.472437 -0.049828 -0.071394
v 0.483733 -0.050762 0.070682
v 0.483673 -0.049759 -0.071398
v 0.472497 -0.050831 0.070687
v 0.156682 -0.066077 0.070712
v 0.159984 -0.056051 0.070781
v 0.167460 -0.052358 0.070804
v 0.167440 -0.049107 0.070827
v 0.156621 -0.056072 0.070782
v 0.483783 -0.067648 -0.071048
v -0.233705 -0.102779 -0.051489
v -0.227812 -0.106572 -0.051518
v 0.206070 -0.094870 -0.051617
v 0.201437 -0.100012 -0.051652
v 0.296991 -0.104515 0.061904
v 0.283413 -0.106196 0.061898
v 0.290313 -0.106249 0.061895
v 0.276763 -0.104359 0.061914
v 0.302993 -0.101111 0.061926
v 0.270814 -0.100863 0.061941
v 0.304113 -0.100008 0.061933
v 0.270176 -0.100216 0.061946
v -0.489689 0.021742 0.046589
v -0.493524 0.021719 0.046590
v 0.481630 -0.070304 -0.070995
v 0.175409 -0.105577 0.053379
v 0.169243 -0.102433 0.053404
v 0.157784 -0.077621 -0.070769
v 0.251584 -0.095232 -0.051639
v 0.265925 -0.095145 -0.051645
v 0.307912 -0.096310 0.067559
v 0.265975 -0.095992 0.068453
v 0.251635 -0.096080 0.068458
v -0.238372 -0.098331 0.053604
v -0.233661 -0.103520 0.053565
v -0.238365 -0.098444 0.069610
v -0.195817 -0.100478 0.066081
v -0.251122 -0.098522 0.069615
v -0.300244 -0.101989 0.053604
v -0.305680 -0.106378 0.053575
v 0.158144 -0.084535 -0.070633
v 0.135523 -0.096257 -0.067425
v -0.163965 -0.098088 -0.067312
v -0.432026 -0.109105 0.053609
v -0.438115 -0.105726 0.053635
v -0.312067 -0.109211 0.053558
v -0.318969 -0.110294 0.053553
v 0.395037 -0.104645 -0.061669
v 0.385767 -0.104556 -0.061822
v 0.395486 -0.104496 -0.061826
v 0.388105 -0.105045 -0.061284
v -0.496259 -0.102707 -0.063388
v -0.482085 -0.102620 -0.063393
v -0.400520 -0.099780 0.069143
v -0.400802 -0.100168 0.053659
v -0.400526 -0.099671 0.053662
v -0.400796 -0.100272 0.068392
v -0.389125 -0.099711 0.069138
v -0.443116 -0.100985 0.067712
v -0.132080 0.118584 -0.020888
v -0.132080 0.118141 -0.026017
v 0.240469 0.120419 -0.026157
v 0.375572 0.121688 -0.021079
v 0.376644 0.121251 -0.026208
v 0.240851 0.120864 -0.021029
v 0.028679 0.117351 -0.031204
v 0.304386 0.120260 -0.031300
v 0.310167 0.118880 -0.031312
v 0.304914 0.118848 -0.031310
v 0.310158 0.120295 -0.031302
v 0.038680 0.120246 0.004768
v 0.038678 0.120336 -0.000379
v 0.218669 -0.095118 -0.051624
v 0.353681 -0.094709 0.053381
v 0.353688 -0.094822 0.069391
v 0.352086 -0.093267 0.053391
v 0.352063 -0.092891 0.000198
v 0.352042 -0.092525 -0.051662
v 0.353630 -0.093845 -0.069091
v 0.353637 -0.093968 -0.051673
v 0.352571 -0.092878 -0.070520
v 0.349733 -0.090311 -0.070569
v 0.412053 -0.093423 -0.069208
v 0.412507 -0.092512 -0.070542
v 0.368554 -0.093754 -0.069097
v 0.407574 -0.098503 -0.061788
v 0.373093 -0.098713 -0.061775
v 0.369921 -0.095856 -0.065998
v 0.412112 -0.094402 0.069465
v 0.368612 -0.094731 0.069385
v 0.369977 -0.096790 0.066220
v -0.386869 -0.097784 0.053670
v -0.389131 -0.099601 0.053658
v -0.386913 -0.097042 -0.051384
v -0.386891 -0.097409 0.000476
v -0.389175 -0.098860 -0.051396
v -0.400570 -0.098930 -0.051391
v -0.482111 -0.097624 -0.051348
v -0.482089 -0.097990 0.000512
v -0.482067 -0.098366 0.053706
v -0.482036 -0.103446 0.053670
v -0.482080 -0.102705 -0.051384
v -0.496254 -0.102791 -0.051379
v -0.496241 -0.098453 0.053711
v -0.496210 -0.103533 0.053675
v -0.496285 -0.097711 -0.051343
v -0.496263 -0.098077 0.000517
v 0.241370 0.121289 0.009836
v 0.374391 0.121981 0.011840
v 0.374389 0.122102 0.009786
v 0.241495 0.121486 0.004692
v 0.374386 0.122298 0.004642
v -0.419511 0.115400 0.030588
v -0.248407 0.118440 -0.010565
v -0.184842 0.118953 -0.005442
v -0.184843 0.118829 -0.010589
v -0.248317 0.118564 -0.005418
v -0.248555 0.118209 -0.015707
v -0.184843 0.118812 -0.010960
v -0.184509 0.118601 -0.015732
v -0.248762 0.117871 -0.020844
v -0.184005 0.118267 -0.020869
v -0.249026 0.117426 -0.025973
v -0.183356 0.117828 -0.025998
v 0.239135 0.118765 -0.031283
v 0.240004 0.119866 -0.031275
v -0.419537 0.115835 -0.031027
v 0.413177 0.116795 -0.031370
v -0.423850 0.111945 -0.031053
v 0.412970 0.117386 -0.031366
v -0.423837 0.112309 -0.031050
v 0.412688 0.117944 -0.031361
v -0.423770 0.112666 -0.031048
v -0.423653 0.113011 -0.031045
v 0.412334 0.118461 -0.031358
v -0.423487 0.113334 -0.031043
v -0.423276 0.113631 -0.031041
v 0.411916 0.118926 -0.031354
v -0.423024 0.113893 -0.031039
v 0.411440 0.119332 -0.031351
v -0.422737 0.114116 -0.031038
v 0.410915 0.119673 -0.031349
v 0.410349 0.119940 -0.031346
v 0.409753 0.120132 -0.031345
v 0.409137 0.120243 -0.031344
v 0.407261 0.120264 -0.031343
v 0.407257 0.120889 -0.031338
v 0.408512 0.120272 -0.031343
v -0.423824 0.111510 0.030666
v -0.423811 0.111873 0.030659
v -0.423745 0.112231 0.030652
v -0.423627 0.112575 0.030645
v -0.423461 0.112899 0.030638
v -0.423250 0.113195 0.030632
v -0.422998 0.113458 0.030627
v -0.422711 0.113681 0.030623
v 0.241148 0.121203 -0.015892
v 0.392748 0.122130 -0.015949
v 0.407256 0.122448 -0.010812
v 0.407255 0.122218 -0.015954
v 0.392748 0.122360 -0.010806
v 0.374738 0.122019 -0.015942
v 0.376740 0.121211 -0.026586
v -0.419539 0.116384 -0.025909
v -0.419539 0.116827 -0.020780
v -0.419540 0.117164 -0.015643
v -0.419539 0.117394 -0.010500
v -0.183334 0.117465 0.025389
v -0.249005 0.117064 0.025413
v -0.183987 0.117977 0.020267
v -0.248744 0.117581 0.020291
v -0.394601 0.117401 0.010076
v -0.391596 0.117117 0.015213
v -0.391599 0.117420 0.010074
v -0.394597 0.117098 0.015215
v -0.394604 0.117598 0.004932
v -0.391602 0.117616 0.004930
v -0.394607 0.117687 -0.000216
v -0.391605 0.117706 -0.000217
v -0.318372 0.118136 -0.005392
v -0.410701 0.117448 -0.010504
v -0.410702 0.117218 -0.015646
v -0.319276 0.116634 0.025440
v -0.251797 0.116743 0.027908
v -0.394593 0.116689 0.020346
v -0.391586 0.116192 0.025467
v -0.391591 0.116708 0.020345
v -0.394588 0.116174 0.025468
v -0.410702 0.116881 -0.020783
v -0.410701 0.116438 -0.025912
v -0.318489 0.118012 -0.010538
v -0.318683 0.117780 -0.015681
v -0.318952 0.117442 -0.020818
v -0.319298 0.116997 -0.025946
v -0.251821 0.117141 -0.028469
v -0.394608 0.117670 -0.005363
v -0.391607 0.117689 -0.005364
v -0.394610 0.117547 -0.010510
v -0.391608 0.117565 -0.010511
v -0.394610 0.117316 -0.015652
v -0.391609 0.117335 -0.015654
v -0.394610 0.116980 -0.020789
v -0.391608 0.116998 -0.020790
v -0.394609 0.116536 -0.025918
v -0.391608 0.116555 -0.025919
v -0.325043 0.116962 -0.025944
v -0.389439 0.116376 -0.027711
v -0.391607 0.116363 -0.027710
v -0.389440 0.116568 -0.025920
v -0.391584 0.115975 0.027255
v -0.325022 0.116599 0.025442
v -0.389416 0.115988 0.027254
v -0.389418 0.116205 0.025466
v 0.407278 0.121076 0.025166
v 0.394605 0.120952 0.025548
v 0.407283 0.120454 0.030276
v 0.392770 0.120987 0.025172
v 0.392770 0.120941 0.025549
v 0.394583 0.121320 -0.026593
v 0.392749 0.121309 -0.026592
v 0.392749 0.121350 -0.026215
v 0.392765 0.121502 0.020050
v 0.407272 0.121591 0.020044
v 0.407255 0.121881 -0.021091
v 0.407256 0.121438 -0.026220
v 0.392748 0.121793 -0.021086
v 0.392761 0.121912 0.014918
v 0.407268 0.122000 0.014913
v 0.392757 0.122214 0.009779
v 0.407264 0.122303 0.009774
v 0.392754 0.122411 0.004635
v 0.407261 0.122499 0.004630
v 0.392751 0.122500 -0.000512
v 0.407259 0.122589 -0.000517
v 0.392749 0.122483 -0.005660
v 0.407257 0.122572 -0.005665
v 0.374380 0.122155 -0.012854
v 0.374381 0.122248 -0.010799
v 0.374382 0.122371 -0.005653
v 0.374384 0.122388 -0.000505
v 0.376762 0.120843 0.025555
v 0.407287 0.119829 0.030289
v 0.408538 0.119837 0.030288
v 0.409163 0.119808 0.030289
v 0.409779 0.119697 0.030291
v 0.410375 0.119505 0.030294
v 0.410940 0.119237 0.030300
v 0.411466 0.118897 0.030306
v 0.411942 0.118491 0.030314
v 0.412360 0.118026 0.030323
v 0.412714 0.117509 0.030333
v 0.412996 0.116951 0.030344
v 0.413203 0.116360 0.030356
v 0.413330 0.115747 0.030368
v 0.413375 0.115122 0.030380
v 0.415689 0.027834 -0.044290
v 0.416172 0.027205 0.046247
v 0.416134 0.027844 -0.044290
v 0.415727 0.027195 0.046247
v 0.416614 0.027155 0.046247
v 0.416576 0.027794 -0.044291
v 0.417045 0.027044 0.046246
v 0.417007 0.027683 -0.044292
v 0.417457 0.026875 0.046244
v 0.417419 0.027514 -0.044293
v 0.417841 0.026650 0.046242
v 0.417803 0.027289 -0.044295
v 0.418191 0.026375 0.046240
v 0.418153 0.027014 -0.044297
v 0.418461 0.026694 -0.044299
v 0.418499 0.026055 0.046238
v 0.418723 0.026334 -0.044302
v 0.418761 0.025694 0.046235
v 0.418932 0.025941 -0.044305
v 0.418970 0.025302 0.046232
v 0.419123 0.024884 0.046229
v 0.419085 0.025523 -0.044308
v 0.419180 0.025088 -0.044311
v 0.419218 0.024449 0.046226
v 0.419213 0.024645 -0.044314
v 0.419251 0.024006 0.046223
v 0.459510 -0.020383 -0.044649
v 0.472305 -0.020944 0.045884
v 0.472267 -0.020305 -0.044653
v 0.459548 -0.021022 0.045888
v 0.472288 -0.023723 -0.044678
v 0.472326 -0.024362 0.045860
v 0.467490 -0.024392 0.045861
v 0.467452 -0.023753 -0.044676
v 0.456841 -0.034488 0.045795
v 0.457185 -0.033487 -0.044740
v 0.457171 -0.033258 -0.077173
v 0.456789 -0.033620 -0.077176
v 0.468301 -0.041891 -0.077239
v 0.472386 -0.041866 -0.077241
v 0.472401 -0.044171 -0.077257
v 0.472403 -0.044212 -0.071504
v 0.477461 -0.070329 -0.070994
v 0.475036 -0.068039 -0.071038
v 0.470367 -0.068067 -0.071036
v 0.470381 -0.070372 -0.070991
v 0.449120 -0.070502 -0.070983
v 0.449187 -0.081510 -0.070767
v 0.416302 -0.081784 -0.070753
v 0.325695 -0.073327 -0.070896
v 0.312610 -0.073407 -0.070891
v 0.156622 -0.065076 -0.071014
v 0.156561 -0.055069 -0.071210
v 0.159925 -0.055049 -0.071211
v 0.167400 -0.051355 -0.071286
v 0.167380 -0.048103 -0.071349
v 0.170543 -0.046057 -0.071390
v 0.170541 -0.046016 -0.077143
v 0.170738 -0.045889 -0.077142
v 0.227684 -0.045541 -0.077164
v 0.227676 -0.044123 -0.077154
v 0.244351 -0.044021 -0.077160
v 0.244343 -0.042687 -0.077151
v 0.140956 -0.043319 -0.077112
v 0.141056 -0.094557 0.053471
v 0.135573 -0.097110 0.053455
v 0.141012 -0.093815 -0.051583
v 0.141034 -0.094181 0.000277
v 0.135529 -0.096369 -0.051598
v -0.163959 -0.098200 -0.051486
v -0.172722 -0.096126 -0.051467
v -0.172680 -0.096475 0.053589
v -0.172678 -0.096868 0.053586
v -0.172724 -0.095733 -0.051465
v -0.172702 -0.096099 0.000395
v -0.251173 -0.097667 -0.051445
v -0.238416 -0.097589 -0.051450
v -0.251129 -0.098409 0.053608
v -0.253147 -0.096966 0.053619
v -0.253169 -0.096591 0.000426
v -0.253191 -0.096225 -0.051434
v -0.283772 -0.097154 0.053631
v -0.285458 -0.098583 0.053622
v -0.283816 -0.096412 -0.051423
v -0.283794 -0.096778 0.000437
v -0.285502 -0.097841 -0.051432
v -0.297862 -0.097917 -0.051427
v 0.415175 -0.087211 -0.070647
v 0.412762 -0.092154 -0.051685
v 0.412784 -0.092520 0.000175
v 0.412806 -0.092895 0.053369
v 0.412105 -0.094288 0.053359
v 0.412061 -0.093547 -0.051695
v 0.407435 -0.098658 -0.061789
v 0.407439 -0.098729 -0.051729
v 0.381307 -0.103630 -0.061813
v 0.401630 -0.102467 -0.061814
v 0.375105 -0.100507 -0.061789
v 0.401634 -0.102538 -0.051754
v 0.395041 -0.104715 -0.051766
v 0.388109 -0.105112 -0.051766
v 0.388153 -0.105853 0.053287
v 0.381355 -0.104442 0.053300
v 0.276711 -0.103486 -0.061769
v 0.296939 -0.103642 -0.061778
v 0.302941 -0.100238 -0.061757
v 0.270762 -0.099990 -0.061741
v 0.375153 -0.101320 0.053325
v 0.369971 -0.096699 0.053360
v 0.368606 -0.094618 0.053375
v 0.331140 -0.090425 -0.070562
v 0.325748 -0.081897 -0.070728
v 0.368561 -0.093876 -0.051679
v 0.313240 -0.075833 -0.070844
v 0.313187 -0.082734 -0.070708
v 0.311350 -0.089386 -0.070578
v 0.309438 -0.092786 -0.051646
v 0.309460 -0.093152 0.000214
v 0.309482 -0.093527 0.053408
v 0.307906 -0.096210 0.053389
v 0.307862 -0.095468 -0.051664
v 0.302945 -0.100309 -0.051696
v 0.302989 -0.101051 0.053357
v 0.296988 -0.104454 0.053336
v 0.290309 -0.106189 0.053326
v 0.283366 -0.105394 -0.051724
v 0.290265 -0.105447 -0.051727
v 0.283410 -0.106135 0.053329
v 0.276759 -0.104298 0.053345
v 0.270810 -0.100803 0.053372
v 0.270766 -0.100061 -0.051681
v 0.175365 -0.104836 -0.051675
v 0.182135 -0.106277 -0.051688
v 0.195675 -0.104521 0.053378
v 0.189091 -0.106658 0.053365
v 0.201481 -0.100753 0.053402
v 0.189047 -0.105917 -0.051688
v -0.201056 -0.104359 -0.051514
v -0.195866 -0.099648 -0.051482
v -0.201012 -0.105100 0.053540
v -0.193428 -0.095860 -0.051457
v -0.193406 -0.096226 0.000403
v -0.193383 -0.096601 0.053597
v -0.195822 -0.100390 0.053571
v -0.297818 -0.098658 0.053626
v -0.312111 -0.108469 -0.051496
v -0.305724 -0.105637 -0.051479
v -0.400846 -0.099427 -0.051395
v -0.405686 -0.104433 -0.051428
v -0.418352 -0.109933 -0.051462
v -0.411657 -0.108017 -0.051451
v -0.443166 -0.100145 -0.051382
v -0.438159 -0.104984 -0.051418
v 0.448189 -0.020327 -0.044643
v 0.448566 -0.020443 -0.018279
v 0.448555 -0.020257 -0.044643
v 0.448567 -0.020462 -0.015618
v 0.448581 -0.020691 0.016802
v 0.448582 -0.020713 0.019855
v 0.448593 -0.020896 0.045894
v 0.448222 -0.020967 0.045894
v 0.447504 -0.020456 -0.044644
v 0.447542 -0.021095 0.045893
v -0.325500 0.117112 0.020320
v -0.389423 0.116721 0.020344
v -0.325872 0.117519 0.015189
v -0.389428 0.117130 0.015213
v -0.326139 0.117820 0.010050
v -0.389432 0.117433 0.010074
v -0.389435 0.117629 0.004930
v -0.326149 0.117832 0.009719
v -0.326152 0.118016 0.004906
v -0.389437 0.117719 -0.000217
v -0.326155 0.118106 -0.000241
v -0.389439 0.117702 -0.005365
v -0.326156 0.118089 -0.005389
v -0.389440 0.117578 -0.010512
v -0.326157 0.117973 -0.010205
v -0.326147 0.117965 -0.010536
v -0.389441 0.117348 -0.015654
v -0.325885 0.117736 -0.015678
v -0.389441 0.117011 -0.020791
v -0.325517 0.117402 -0.020815
v -0.318935 0.117152 0.020318
v 0.140973 -0.046197 -0.077132
v 0.141275 -0.095135 -0.071724
v -0.170053 -0.097038 -0.071607
v 0.414921 -0.033746 -0.044724
v 0.415108 -0.057965 -0.044895
v 0.415069 -0.057966 -0.044895
v 0.414960 -0.033745 -0.044724
v 0.414667 -0.058602 0.044901
v 0.415146 -0.058599 0.044901
v 0.414629 -0.057968 -0.044895
v 0.414210 0.082604 -0.043903
v 0.414287 0.081970 0.045893
v 0.414249 0.082604 -0.043903
v 0.413808 0.081967 0.045893
v 0.413771 0.082601 -0.043903
v 0.414143 0.027190 0.045506
v 0.414584 0.027827 -0.044290
v 0.414481 -0.033748 -0.044724
v 0.414105 0.027824 -0.044289
v 0.414544 0.027827 -0.044290
v 0.414143 0.027185 0.046248
v 0.415125 -0.067179 -0.044960
v -0.418306 -0.072274 -0.044646
v 0.220972 -0.094068 0.053441
v 0.220950 -0.093693 0.000247
v 0.381311 -0.103701 -0.051753
v 0.375109 -0.100578 -0.051729
v 0.369927 -0.095957 -0.051694
v 0.395085 -0.105457 0.053287
v -0.221138 -0.108711 -0.051536
v 0.206114 -0.095611 0.053436
v 0.218714 -0.095859 0.053429
v 0.182179 -0.107018 0.053366
v -0.325917 -0.109555 0.053561
v -0.332436 -0.107042 0.053582
v 0.195631 -0.103780 -0.051676
v 0.265969 -0.095886 0.053409
v 0.251628 -0.095974 0.053415
v 0.249610 -0.093893 0.053430
v -0.163915 -0.098941 0.053568
v 0.401678 -0.103280 0.053300
v 0.407484 -0.099470 0.053324
v -0.418308 -0.110674 0.053592
v -0.425270 -0.110793 0.053594
v -0.443122 -0.100886 0.053671
v -0.444771 -0.098138 0.053692
v -0.300289 -0.101247 -0.051450
v -0.432070 -0.108363 -0.051445
v -0.425314 -0.110051 -0.051460
v -0.444815 -0.097396 -0.051362
v 0.169199 -0.101692 -0.051650
v 0.220928 -0.093327 -0.051613
v -0.207288 -0.107565 -0.051534
v -0.214138 -0.109050 -0.051541
v 0.249566 -0.093152 -0.051624
v 0.296943 -0.103713 -0.051718
v 0.276715 -0.103557 -0.051708
v -0.444793 -0.097762 0.000498
v 0.249587 -0.093518 0.000236
v 0.223692 -0.090995 -0.070524
v 0.247454 -0.090850 -0.070533
v 0.451102 -0.020354 -0.044645
v 0.451140 -0.020993 0.045892
v 0.451103 -0.020371 -0.042230
v 0.451113 -0.020540 -0.018280
v 0.451114 -0.020559 -0.015620
v 0.451128 -0.020787 0.016800
v 0.451129 -0.020809 0.019854
v 0.451381 0.008141 -0.015417
v 0.448392 0.008169 -0.015416
v 0.451401 0.010283 -0.014725
v 0.448379 0.010311 -0.014723
v 0.451416 0.011896 -0.014203
v 0.448370 0.011924 -0.014202
v 0.448370 0.011917 -0.013201
v 0.451417 0.011889 -0.013203
v 0.451424 0.012716 -0.013116
v 0.448365 0.012744 -0.013114
v 0.448385 0.011289 0.015813
v 0.451437 0.012512 0.015816
v 0.451425 0.011261 0.015812
v 0.448377 0.012540 0.015817
v 0.451420 0.010700 0.017022
v 0.448389 0.010728 0.017024
v 0.448201 -0.020532 -0.015619
v 0.448214 -0.020760 0.016802
v 0.451472 0.014753 0.046144
v 0.451446 0.013306 0.020608
v 0.451465 0.015316 0.020622
v 0.451456 0.013144 0.043632
v 0.451457 0.013126 0.046133
v 0.451438 0.015775 -0.044390
v 0.451424 0.014173 -0.041987
v 0.451449 0.015594 -0.018685
v 0.451434 0.014008 -0.018696
v 0.448581 -0.020785 0.019855
v 0.448591 -0.020952 0.043393
v 0.448592 -0.020969 0.045893
v 0.448880 0.011320 0.020595
v 0.451428 0.011296 0.020594
v 0.448899 0.013330 0.020609
v 0.448909 0.013150 0.046134
v 0.451410 0.009401 0.019725
v 0.448862 0.009425 0.019727
v 0.448590 -0.019881 0.020375
v 0.448601 -0.020061 0.045900
v 0.448554 -0.020330 -0.044644
v 0.448555 -0.020347 -0.042229
v 0.448565 -0.020516 -0.018279
v 0.448863 0.011597 -0.018712
v 0.451411 0.011574 -0.018714
v 0.448886 0.014032 -0.018695
v 0.448830 0.007914 -0.018079
v 0.451377 0.007890 -0.018080
v 0.419528 -0.021267 0.045904
v 0.419490 -0.020628 -0.044634
v 0.448385 0.013147 0.046134
v 0.448374 0.013327 0.020609
v 0.448384 0.013164 0.043634
v 0.448577 -0.019881 0.020375
v 0.448588 -0.020062 0.045900
v 0.448375 0.014734 0.046146
v 0.448024 -0.020325 -0.044643
v 0.448344 0.014218 -0.044400
v 0.448543 -0.018226 -0.044629
v 0.448574 -0.018226 -0.044629
v 0.448335 0.015756 -0.044389
v 0.451476 0.015136 0.046147
v 0.448373 0.015117 0.046148
v 0.451229 -0.020969 0.043392
v 0.451230 -0.020987 0.045892
v 0.448157 -0.020949 0.043393
v 0.448158 -0.020966 0.045894
v 0.448876 0.014196 -0.041985
v 0.448355 0.014037 -0.018695
v 0.448345 0.014201 -0.041985
v 0.448025 -0.020342 -0.042229
v -0.493513 0.019659 0.043092
v -0.493548 0.020249 -0.040534
v -0.489678 0.019682 0.043090
v -0.489713 0.020273 -0.040536
v 0.448585 -0.018407 -0.018924
v 0.448553 -0.018407 -0.018924
v 0.448375 0.011287 -0.010978
v 0.448383 0.010068 -0.008698
v 0.448390 0.009101 -0.006300
v 0.448395 0.008396 -0.003812
v 0.448399 0.007963 -0.001263
v 0.448401 0.007806 0.001318
v 0.448401 0.007927 0.003900
v 0.448400 0.008324 0.006455
v 0.448396 0.008993 0.008953
v 0.448392 0.009926 0.011364
v 0.448385 0.011113 0.013661
v 0.451412 0.011259 -0.010979
v 0.451402 0.010040 -0.008699
v 0.451394 0.009073 -0.006301
v 0.451389 0.008368 -0.003814
v 0.451386 0.007935 -0.001265
v 0.451386 0.007778 0.001316
v 0.451388 0.007899 0.003899
v 0.451393 0.008296 0.006454
v 0.451400 0.008965 0.008951
v 0.451410 0.009898 0.011362
v 0.451422 0.011085 0.013659
v 0.310192 0.118445 0.030341
v 0.310184 0.119860 0.030313
v 0.304940 0.118413 0.030343
v 0.304411 0.119825 0.030315
f 1 2 3
f 4 5 6
f 5 4 7
f 5 7 8
f 8 7 9
f 9 7 10
f 11 12 13
f 12 11 14
f 15 16 17
f 16 15 18
f 19 20 21
f 20 19 22
f 23 24 25
f 24 23 26
f 27 25 28
f 25 27 23
f 29 27 28
f 27 29 30
f 31 29 32
f 29 31 30
f 33 31 32
f 31 33 34
f 34 33 35
f 34 35 36
f 37 36 38
f 36 37 34
f 37 39 40
f 39 37 41
f 41 37 42
f 42 37 38
f 43 39 44
f 39 43 40
f 43 45 46
f 45 43 44
f 47 45 48
f 45 47 46
f 49 47 48
f 47 49 50
f 51 49 52
f 49 51 50
f 53 54 55
f 54 53 56
f 57 55 58
f 55 57 53
f 59 58 60
f 58 59 57
f 61 60 62
f 60 61 59
f 63 62 64
f 62 63 61
f 65 64 66
f 64 65 63
f 67 68 69
f 68 67 70
f 70 67 71
f 72 69 73
f 69 72 67
f 74 73 75
f 73 74 72
f 76 77 78
f 77 76 79
f 76 80 81
f 80 76 82
f 82 76 83
f 83 76 78
f 84 80 85
f 80 84 81
f 84 86 87
f 86 84 85
f 88 86 89
f 86 88 87
f 90 89 91
f 89 90 88
f 92 90 91
f 90 92 93
f 93 92 94
f 93 94 95
f 96 95 97
f 95 96 93
f 96 98 99
f 98 96 100
f 100 96 101
f 101 96 97
f 102 98 103
f 98 102 99
f 102 104 105
f 104 102 103
f 106 104 107
f 104 106 105
f 106 108 109
f 108 106 107
f 110 108 111
f 108 110 109
f 112 113 114
f 113 112 115
f 115 112 116
f 117 118 119
f 118 117 120
f 121 122 123
f 122 121 124
f 123 122 125
f 123 125 126
f 123 126 127
f 128 129 130
f 129 128 131
f 60 132 133
f 132 60 134
f 134 60 135
f 135 60 58
f 136 137 138
f 142 143 144
f 143 142 145
f 62 133 146
f 133 62 60
f 147 144 148
f 144 147 142
f 149 148 150
f 148 149 147
f 64 146 151
f 146 64 62
f 152 153 154
f 153 152 155
f 156 157 158
f 157 159 160
f 159 157 156
f 161 162 163
f 144 159 156
f 159 144 143
f 170 171 172
f 171 170 173
f 174 158 175
f 158 174 156
f 148 156 174
f 156 148 144
f 176 172 177
f 172 176 170
f 178 175 179
f 175 178 174
f 150 174 178
f 174 150 148
f 155 177 153
f 177 155 176
f 180 181 182
f 184 185 186
f 185 184 187
f 186 192 193
f 192 186 185
f 198 199 200
f 199 198 201
f 193 202 203
f 202 193 192
f 204 205 206
f 205 204 207
f 208 209 210
f 209 208 211
f 55 207 204
f 207 55 54
f 135 206 212
f 206 135 204
f 58 204 135
f 204 58 55
f 173 210 171
f 210 173 208
f 133 213 214
f 215 212 216
f 212 215 217
f 212 217 135
f 135 217 213
f 135 213 132
f 132 213 133
f 135 132 134
f 218 219 220
f 219 218 221
f 182 220 181
f 220 182 219
f 222 223 224
f 223 222 225
f 227 226 229
f 84 76 81
f 76 84 79
f 230 110 231
f 110 230 109
f 109 230 106
f 106 230 105
f 105 230 90
f 105 90 102
f 102 90 99
f 99 90 96
f 90 230 88
f 88 230 87
f 87 230 84
f 84 230 79
f 79 230 232
f 232 230 51
f 232 51 233
f 51 230 47
f 47 230 27
f 47 27 46
f 46 27 43
f 43 27 40
f 40 27 37
f 37 27 31
f 27 230 23
f 23 230 26
f 30 31 27
f 34 37 31
f 50 51 47
f 93 96 90
f 234 235 236
f 235 234 237
f 238 239 240
f 239 238 241
f 242 243 244
f 246 247 248
f 247 246 249
f 75 239 250
f 253 249 246
f 249 253 251
f 146 214 254
f 214 146 133
f 151 254 255
f 254 151 146
f 256 140 70
f 140 256 257
f 207 241 205
f 241 207 258
f 206 235 237
f 235 206 205
f 259 237 234
f 237 259 260
f 212 237 260
f 237 212 206
f 258 137 265
f 137 258 141
f 203 266 267
f 266 203 202
f 268 269 270
f 269 268 271
f 271 268 272
f 271 272 273
f 273 272 274
f 274 272 275
f 275 272 276
f 276 272 277
f 277 272 278
f 279 280 281
f 280 279 282
f 282 279 283
f 282 283 277
f 282 277 278
f 282 278 284
f 282 284 285
f 285 284 286
f 286 284 287
f 287 284 288
f 287 288 289
f 289 290 291
f 290 289 292
f 292 289 288
f 292 288 293
f 275 294 295
f 294 275 276
f 273 296 297
f 296 273 298
f 298 273 274
f 291 299 289
f 299 291 300
f 301 302 303
f 302 301 304
f 304 301 305
f 304 305 306
f 307 308 309
f 308 307 310
f 308 310 305
f 311 312 313
f 312 311 314
f 314 311 315
f 315 311 316
f 314 317 318
f 317 314 319
f 319 314 320
f 320 314 321
f 321 314 322
f 322 314 315
f 306 323 324
f 323 306 325
f 325 306 326
f 326 306 305
f 326 305 310
f 326 310 321
f 326 321 322
f 327 300 328
f 300 327 299
f 299 327 311
f 311 327 316
f 316 327 329
f 329 327 330
f 329 330 331
f 331 330 332
f 332 330 333
f 333 330 334
f 333 334 335
f 333 335 119
f 119 335 117
f 336 337 338
f 337 336 339
f 340 341 339
f 341 340 342
f 341 342 343
f 343 342 344
f 339 345 337
f 345 339 341
f 329 346 347
f 346 329 338
f 338 329 331
f 346 338 337
f 347 346 348
f 290 300 291
f 300 290 328
f 328 349 327
f 349 328 290
f 349 290 292
f 350 351 352
f 351 350 353
f 12 354 355
f 354 12 14
f 356 292 293
f 292 356 349
f 349 356 357
f 357 356 358
f 358 356 359
f 357 358 360
f 357 360 355
f 357 355 361
f 361 355 354
f 356 362 359
f 362 356 363
f 359 362 364
f 362 363 365
f 366 367 364
f 367 366 368
f 367 368 369
f 369 368 370
f 370 368 371
f 370 371 372
f 364 373 359
f 373 364 367
f 327 357 330
f 357 327 349
f 330 361 334
f 361 330 357
f 334 354 335
f 354 334 361
f 117 374 120
f 374 117 375
f 375 117 335
f 375 335 14
f 14 335 354
f 375 14 11
f 376 379 381
f 377 383 118
f 383 377 381
f 381 377 376
f 384 385 386
f 385 384 387
f 388 13 389
f 13 388 390
f 390 388 391
f 391 388 392
f 392 388 393
f 374 396 397
f 396 374 375
f 401 402 384
f 402 401 403
f 403 401 404
f 403 404 399
f 397 405 406
f 405 397 15
f 15 397 18
f 18 397 396
f 407 384 386
f 384 407 404
f 404 407 400
f 400 407 408
f 400 408 398
f 398 408 16
f 398 16 403
f 403 16 395
f 394 396 393
f 396 394 18
f 18 394 395
f 18 395 16
f 403 389 402
f 389 403 388
f 388 403 395
f 390 11 13
f 11 391 375
f 375 391 393
f 375 393 396
f 409 410 411
f 410 409 412
f 413 414 415
f 414 413 416
f 417 418 419
f 418 417 420
f 421 422 423
f 422 421 424
f 422 424 418
f 422 418 112
f 424 421 425
f 424 425 426
f 418 424 419
f 419 424 415
f 415 424 427
f 419 415 414
f 112 418 116
f 405 423 406
f 423 405 428
f 423 428 421
f 429 406 423
f 430 421 428
f 421 430 425
f 430 426 425
f 426 430 431
f 426 432 411
f 432 426 433
f 433 426 434
f 434 426 431
f 435 436 437
f 436 435 438
f 438 435 432
f 438 432 433
f 439 436 440
f 436 439 437
f 440 436 438
f 424 437 439
f 437 424 410
f 437 410 435
f 439 427 424
f 427 439 441
f 427 442 415
f 442 427 441
f 442 413 415
f 413 442 443
f 413 444 416
f 444 413 443
f 444 414 416
f 414 444 445
f 414 446 419
f 446 414 445
f 446 417 419
f 417 446 447
f 417 448 420
f 448 417 447
f 448 418 420
f 418 448 449
f 450 451 452
f 115 453 113
f 453 115 454
f 453 454 455
f 453 455 451
f 453 451 456
f 456 451 450
f 449 116 418
f 115 457 454
f 457 115 116
f 457 116 22
f 22 116 449
f 457 22 19
f 458 19 21
f 19 458 457
f 457 458 459
f 457 459 460
f 460 459 461
f 461 459 462
f 461 462 463
f 463 462 464
f 460 454 457
f 454 460 455
f 455 461 451
f 461 455 460
f 463 451 461
f 451 463 452
f 465 456 450
f 456 465 466
f 466 465 467
f 466 467 468
f 468 467 469
f 468 469 231
f 468 231 111
f 111 231 110
f 470 469 467
f 469 470 471
f 24 230 472
f 230 24 26
f 472 470 473
f 470 472 471
f 471 472 230
f 473 464 462
f 464 473 474
f 474 473 470
f 469 230 231
f 230 469 471
f 475 476 477
f 479 480 481
f 480 479 482
f 482 479 483
f 484 485 486
f 485 484 487
f 485 487 488
f 488 487 489
f 488 489 490
f 490 489 491
f 492 493 494
f 495 496 497
f 498 130 129
f 130 498 499
f 499 498 500
f 499 500 501
f 501 500 502
f 501 502 503
f 504 505 506
f 505 504 507
f 482 508 480
f 10 509 510
f 511 512 513
f 512 511 123
f 512 123 127
f 512 127 514
f 513 509 10
f 513 10 7
f 516 303 302
f 303 516 517
f 303 517 518
f 303 518 519
f 303 519 520
f 303 520 521
f 522 523 524
f 523 522 525
f 526 527 528
f 527 526 529
f 530 531 532
f 531 530 533
f 531 533 534
f 534 533 535
f 534 535 9
f 9 535 8
f 536 492 494
f 492 536 528
f 528 536 526
f 526 536 537
f 526 537 538
f 538 537 539
f 538 539 540
f 541 542 543
f 542 541 544
f 544 541 545
f 544 545 546
f 546 545 126
f 546 126 125
f 547 506 505
f 506 547 548
f 548 547 549
f 549 547 550
f 549 550 551
f 551 550 552
f 553 543 542
f 543 553 554
f 555 556 557
f 556 555 558
f 558 555 559
f 558 559 560
f 556 558 561
f 296 562 297
f 562 296 563
f 563 296 564
f 564 296 565
f 565 296 566
f 566 296 567
f 568 569 570
f 569 568 571
f 571 568 572
f 572 568 573
f 573 568 574
f 573 574 575
f 573 575 576
f 573 576 577
f 577 576 578
f 579 580 581
f 580 579 582
f 582 579 583
f 583 576 584
f 576 583 585
f 585 583 586
f 586 583 579
f 586 579 587
f 586 587 588
f 589 590 591
f 590 589 592
f 592 589 593
f 593 589 513
f 513 589 594
f 594 589 595
f 594 595 596
f 596 595 597
f 596 597 585
f 585 597 578
f 585 578 576
f 593 7 4
f 7 593 513
f 598 1 3
f 1 598 599
f 599 598 600
f 600 598 601
f 600 601 566
f 566 601 565
f 487 602 489
f 602 487 603
f 483 508 482
f 508 483 604
f 604 483 605
f 604 605 606
f 606 605 520
f 606 520 519
f 567 607 608
f 301 609 298
f 609 301 303
f 609 303 521
f 609 521 610
f 298 607 567
f 298 567 296
f 612 324 323
f 324 612 613
f 613 612 551
f 613 551 552
f 324 613 614
f 615 307 309
f 307 615 616
f 307 616 617
f 307 617 503
f 307 503 502
f 307 502 618
f 280 619 281
f 619 280 620
f 621 495 497
f 495 621 622
f 622 621 623
f 622 623 624
f 624 623 625
f 624 625 626
f 626 625 627
f 494 628 536
f 628 494 629
f 629 494 493
f 630 631 632
f 631 630 633
f 634 586 635
f 586 634 585
f 310 277 321
f 277 310 276
f 636 522 524
f 522 636 637
f 637 636 638
f 638 636 352
f 638 352 639
f 639 352 351
f 284 322 315
f 322 284 278
f 640 641 642
f 641 640 643
f 643 640 644
f 643 644 645
f 645 644 646
f 645 646 647
f 610 605 649
f 605 610 520
f 520 610 521
f 650 651 652
f 651 650 653
f 651 588 587
f 588 651 654
f 654 651 655
f 655 651 653
f 655 653 656
f 656 653 385
f 656 385 657
f 657 385 387
f 658 654 655
f 651 659 652
f 659 651 579
f 660 547 661
f 547 660 550
f 662 125 122
f 125 662 546
f 546 662 663
f 664 665 666
f 665 664 667
f 667 664 668
f 667 668 669
f 669 668 670
f 669 670 671
f 409 672 412
f 672 409 673
f 278 326 322
f 326 278 272
f 579 674 659
f 674 579 581
f 534 675 531
f 675 534 676
f 677 585 634
f 585 677 596
f 678 558 679
f 558 678 561
f 590 680 591
f 680 590 681
f 680 681 670
f 670 681 671
f 681 590 682
f 538 683 684
f 683 538 540
f 685 683 540
f 270 685 686
f 685 270 269
f 686 685 539
f 539 685 540
f 685 269 687
f 565 688 564
f 688 565 689
f 689 565 601
f 690 596 677
f 596 690 594
f 9 676 534
f 676 9 510
f 510 9 10
f 691 642 641
f 642 691 692
f 488 693 485
f 693 488 694
f 3 695 598
f 695 3 696
f 696 3 2
f 697 698 699
f 698 697 700
f 701 317 702
f 317 701 318
f 703 704 705
f 704 703 706
f 294 707 295
f 707 294 703
f 703 294 706
f 706 294 491
f 491 294 490
f 490 294 708
f 649 483 479
f 483 649 605
f 214 217 215
f 217 214 213
f 70 251 68
f 251 70 140
f 709 70 71
f 70 709 256
f 710 71 139
f 71 710 709
f 711 712 713
f 712 711 714
f 139 67 72
f 67 139 71
f 229 139 136
f 139 229 710
f 136 72 74
f 72 136 139
f 136 715 138
f 715 136 74
f 716 717 718
f 717 716 719
f 720 216 252
f 216 720 215
f 721 252 247
f 252 721 720
f 66 247 249
f 247 66 721
f 721 66 255
f 255 66 151
f 151 66 64
f 257 66 140
f 66 257 65
f 140 249 251
f 249 140 66
f 254 215 720
f 215 254 214
f 255 720 721
f 720 255 254
f 662 124 722
f 124 662 122
f 569 723 724
f 723 569 725
f 725 569 571
f 727 728 729
f 728 727 730
f 730 727 731
f 731 727 571
f 732 730 733
f 730 732 734
f 734 732 735
f 734 735 736
f 734 736 737
f 730 734 728
f 569 738 570
f 738 569 739
f 738 739 627
f 627 739 626
f 626 739 740
f 739 569 724
f 275 305 274
f 305 275 308
f 275 741 308
f 741 275 295
f 741 295 742
f 742 295 707
f 308 743 309
f 743 308 741
f 309 743 745
f 309 745 615
f 746 615 745
f 615 746 616
f 283 321 277
f 321 283 320
f 279 320 283
f 320 279 319
f 279 317 319
f 317 279 747
f 317 747 702
f 749 279 750
f 750 279 619
f 619 279 281
f 751 702 747
f 752 702 751
f 702 752 701
f 620 753 754
f 318 282 314
f 282 318 755
f 755 318 701
f 755 701 752
f 282 755 756
f 282 756 753
f 282 753 620
f 282 620 280
f 285 314 282
f 314 285 312
f 286 312 285
f 312 286 313
f 313 287 311
f 287 313 286
f 289 311 287
f 311 289 299
f 757 758 759
f 758 260 259
f 260 758 757
f 760 759 761
f 759 760 757
f 205 238 235
f 238 205 241
f 211 221 209
f 221 211 762
f 216 260 757
f 260 216 212
f 252 757 760
f 757 252 216
f 247 760 248
f 760 247 252
f 763 764 765
f 764 763 766
f 767 768 769
f 768 767 765
f 765 767 763
f 770 769 771
f 769 770 767
f 772 771 773
f 771 772 770
f 264 773 226
f 773 264 772
f 138 265 715
f 265 138 137
f 776 182 267
f 182 776 180
f 203 196 193
f 196 203 267
f 196 267 194
f 194 267 181
f 194 181 183
f 186 263 184
f 263 186 195
f 263 195 261
f 195 186 193
f 195 193 196
f 261 195 197
f 262 138 718
f 138 262 228
f 228 262 264
f 228 264 226
f 232 77 79
f 77 232 777
f 777 232 778
f 777 778 779
f 779 778 780
f 779 780 781
f 781 780 782
f 781 782 783
f 781 783 784
f 784 783 785
f 784 785 786
f 784 786 787
f 787 786 788
f 787 788 789
f 789 788 790
f 789 790 184
f 789 184 717
f 789 717 791
f 717 184 262
f 791 717 719
f 791 719 224
f 791 224 792
f 792 224 793
f 224 719 222
f 793 223 794
f 794 223 795
f 795 225 796
f 797 794 795
f 227 138 228
f 74 250 715
f 250 74 75
f 718 774 716
f 774 718 715
f 716 774 775
f 54 258 207
f 258 54 141
f 452 465 450
f 465 452 474
f 474 452 463
f 474 463 464
f 465 470 467
f 470 465 474
f 233 778 232
f 778 233 798
f 798 780 778
f 780 798 799
f 799 782 780
f 782 799 800
f 800 783 782
f 783 800 801
f 801 785 783
f 785 801 802
f 802 786 785
f 786 802 803
f 803 788 786
f 788 803 804
f 788 805 790
f 805 788 804
f 790 187 184
f 187 790 805
f 806 251 253
f 251 806 68
f 714 68 806
f 68 714 69
f 711 69 714
f 69 711 73
f 775 73 711
f 73 775 75
f 240 775 774
f 807 808 809
f 808 807 810
f 714 811 712
f 811 714 806
f 719 812 222
f 812 719 713
f 713 719 711
f 711 719 716
f 711 716 775
f 250 240 774
f 240 250 239
f 266 776 267
f 776 266 813
f 813 266 814
f 814 266 815
f 815 266 816
f 816 266 152
f 152 266 155
f 155 266 176
f 176 266 170
f 170 266 173
f 173 266 208
f 208 266 211
f 211 266 762
f 817 242 478
f 242 817 818
f 819 818 817
f 818 819 820
f 160 820 819
f 820 160 159
f 821 822 823
f 822 821 824
f 825 823 826
f 823 825 821
f 827 826 828
f 826 827 825
f 766 179 764
f 179 766 178
f 175 59 61
f 59 175 158
f 765 157 768
f 179 61 63
f 61 179 175
f 764 63 65
f 63 764 179
f 829 150 167
f 150 829 149
f 765 65 257
f 65 765 764
f 816 154 830
f 154 816 152
f 769 257 256
f 257 769 765
f 815 830 831
f 830 815 816
f 226 476 228
f 476 226 478
f 160 769 768
f 160 768 157
f 56 141 54
f 141 56 475
f 832 162 169
f 162 245 833
f 245 162 188
f 188 162 832
f 817 475 56
f 475 817 478
f 819 56 53
f 56 819 817
f 834 835 836
f 835 834 837
f 160 53 57
f 53 160 819
f 824 836 822
f 836 824 834
f 158 57 59
f 57 158 160
f 771 256 709
f 256 771 769
f 814 831 838
f 831 814 815
f 773 709 710
f 709 773 771
f 813 838 839
f 838 813 814
f 226 710 229
f 710 226 773
f 776 839 180
f 839 776 813
f 228 477 227
f 477 228 476
f 477 229 227
f 840 167 166
f 167 840 829
f 841 166 165
f 166 841 840
f 842 165 164
f 165 842 841
f 843 164 161
f 164 843 842
f 197 844 261
f 844 197 163
f 163 197 161
f 161 197 843
f 182 839 219
f 209 218 837
f 218 209 221
f 210 837 834
f 837 210 209
f 171 834 824
f 834 171 210
f 172 824 821
f 824 172 171
f 177 821 825
f 821 177 172
f 153 825 827
f 825 153 177
f 154 827 845
f 827 154 153
f 766 150 178
f 150 766 167
f 845 828 846
f 763 167 766
f 167 763 166
f 847 846 848
f 166 767 165
f 849 848 850
f 165 770 164
f 851 850 852
f 164 772 161
f 853 852 854
f 772 844 161
f 183 855 194
f 855 183 856
f 856 183 857
f 857 183 854
f 858 855 856
f 818 833 242
f 833 818 169
f 245 242 833
f 837 859 835
f 860 218 191
f 218 860 861
f 861 860 862
f 218 861 859
f 218 859 837
f 163 833 844
f 833 163 162
f 261 243 263
f 243 261 844
f 243 844 833
f 263 244 262
f 244 263 243
f 244 264 262
f 264 244 772
f 772 244 770
f 770 244 767
f 767 244 763
f 168 818 820
f 818 168 169
f 143 820 159
f 820 143 168
f 830 845 847
f 845 830 154
f 831 847 849
f 847 831 830
f 838 849 851
f 849 838 831
f 839 851 853
f 851 839 838
f 180 853 183
f 853 180 839
f 863 864 865
f 864 863 866
f 198 865 864
f 222 868 225
f 868 222 869
f 869 222 870
f 870 222 812
f 870 812 713
f 871 863 872
f 863 871 866
f 870 873 874
f 873 870 875
f 876 872 877
f 872 876 871
f 878 877 879
f 877 878 876
f 880 879 881
f 879 880 878
f 882 881 883
f 881 882 880
f 884 883 885
f 883 884 882
f 810 885 808
f 885 810 884
f 806 886 811
f 886 806 887
f 887 806 253
f 875 809 873
f 809 875 807
f 887 758 886
f 759 876 878
f 876 759 259
f 761 878 880
f 878 761 759
f 889 880 882
f 880 889 761
f 888 882 884
f 882 888 889
f 887 884 810
f 884 887 888
f 811 810 807
f 810 811 887
f 890 713 236
f 259 811 886
f 259 886 758
f 236 867 866
f 867 236 890
f 867 198 864
f 198 867 201
f 201 867 890
f 234 866 871
f 866 234 236
f 259 871 876
f 871 259 234
f 712 807 875
f 807 712 811
f 713 875 870
f 875 713 712
f 225 874 796
f 874 225 868
f 874 868 870
f 224 812 199
f 199 812 890
f 224 200 223
f 200 224 199
f 200 225 223
f 868 200 864
f 867 868 864
f 868 867 869
f 867 870 869
f 874 795 796
f 795 874 891
f 891 874 873
f 891 873 809
f 891 809 808
f 891 808 885
f 891 885 883
f 891 883 881
f 891 881 879
f 891 879 877
f 891 877 872
f 891 872 863
f 891 863 865
f 795 892 797
f 892 795 891
f 797 893 794
f 893 797 892
f 794 894 793
f 894 794 893
f 793 895 792
f 895 793 894
f 792 896 791
f 896 792 895
f 791 897 789
f 897 791 896
f 789 898 787
f 898 789 897
f 787 899 784
f 899 787 898
f 899 781 784
f 781 899 900
f 900 779 781
f 779 900 901
f 779 902 777
f 902 779 901
f 95 101 97
f 101 95 94
f 902 77 777
f 77 83 78
f 83 77 903
f 903 77 902
f 36 42 38
f 42 36 35
f 94 100 101
f 100 94 92
f 903 82 83
f 82 903 904
f 35 41 42
f 41 35 33
f 104 108 107
f 98 104 103
f 92 98 100
f 904 80 82
f 80 904 85
f 85 904 86
f 39 45 44
f 33 39 41
f 108 468 111
f 468 108 472
f 472 108 104
f 472 104 91
f 91 104 98
f 91 98 92
f 472 91 89
f 472 89 86
f 472 86 52
f 52 86 904
f 472 52 48
f 48 52 49
f 472 48 28
f 28 48 45
f 28 45 39
f 28 39 32
f 32 39 33
f 28 32 29
f 472 28 25
f 472 25 24
f 468 473 466
f 473 468 472
f 473 456 466
f 456 473 453
f 453 473 459
f 459 473 462
f 905 906 907
f 906 905 908
f 907 909 910
f 909 907 906
f 910 911 912
f 911 910 909
f 912 913 914
f 913 912 911
f 914 915 916
f 915 914 913
f 916 917 918
f 917 916 915
f 917 919 918
f 919 917 920
f 920 921 919
f 921 920 922
f 922 923 921
f 923 922 924
f 923 925 926
f 925 923 924
f 925 927 926
f 927 925 928
f 928 929 927
f 929 928 930
f 931 932 933
f 932 931 934
f 932 935 933
f 935 932 936
f 937 935 936
f 935 937 938
f 939 938 937
f 938 939 940
f 940 939 941
f 941 939 942
f 942 408 943
f 408 942 17
f 17 942 939
f 16 408 17
f 943 407 944
f 407 943 408
f 407 945 944
f 945 407 946
f 946 407 650
f 650 407 385
f 385 407 386
f 653 650 385
f 389 350 402
f 350 389 353
f 580 674 581
f 674 580 947
f 582 947 580
f 947 582 948
f 583 948 582
f 948 583 949
f 583 950 949
f 950 583 584
f 576 950 584
f 950 576 951
f 576 952 951
f 952 576 575
f 574 952 575
f 952 574 953
f 578 954 577
f 954 578 955
f 635 654 956
f 654 635 586
f 654 586 588
f 956 658 957
f 658 956 654
f 957 655 958
f 655 957 658
f 958 656 959
f 656 958 655
f 959 657 960
f 657 959 656
f 960 387 961
f 387 960 657
f 962 401 963
f 401 961 384
f 402 387 384
f 387 402 350
f 963 404 964
f 404 963 401
f 404 965 964
f 965 404 399
f 965 400 966
f 400 965 399
f 400 967 966
f 967 400 398
f 403 967 398
f 967 403 968
f 119 383 647
f 383 119 118
f 13 353 389
f 353 13 12
f 636 969 643
f 969 636 524
f 969 524 970
f 970 524 523
f 643 971 641
f 971 643 969
f 641 973 691
f 974 691 973
f 691 974 692
f 975 692 974
f 692 975 642
f 642 975 640
f 637 976 977
f 640 638 644
f 638 640 978
f 638 976 637
f 644 639 646
f 639 644 638
f 381 647 388
f 388 647 646
f 388 646 353
f 353 646 639
f 395 381 388
f 381 395 382
f 394 382 395
f 382 394 379
f 394 380 379
f 380 394 393
f 380 392 376
f 392 380 393
f 392 378 376
f 378 392 391
f 378 390 377
f 390 378 391
f 390 118 377
f 119 390 333
f 333 390 12
f 355 333 12
f 333 360 332
f 360 333 355
f 360 331 332
f 331 360 358
f 331 359 338
f 359 331 358
f 338 373 336
f 373 338 359
f 336 367 339
f 367 336 373
f 339 369 340
f 369 339 367
f 340 370 342
f 370 340 369
f 342 372 344
f 372 342 370
f 344 371 343
f 371 344 372
f 343 368 341
f 368 343 371
f 341 366 345
f 366 341 368
f 345 364 337
f 364 345 366
f 337 362 346
f 362 337 364
f 346 365 348
f 365 346 362
f 348 363 347
f 363 348 365
f 363 329 347
f 329 363 356
f 356 316 329
f 316 356 288
f 288 356 293
f 980 613 981
f 613 980 614
f 269 982 687
f 982 269 983
f 983 269 271
f 985 614 980
f 614 985 324
f 324 985 306
f 306 985 271
f 273 306 271
f 306 273 304
f 273 986 304
f 986 273 297
f 986 297 987
f 987 297 562
f 304 988 302
f 988 304 986
f 302 988 990
f 302 990 516
f 991 516 990
f 516 991 517
f 574 992 953
f 992 574 568
f 568 733 992
f 733 568 993
f 733 993 732
f 993 568 994
f 994 568 995
f 995 568 996
f 996 568 738
f 738 568 570
f 997 732 993
f 997 735 732
f 735 997 998
f 998 997 999
f 1000 699 698
f 699 1000 1001
f 1001 1000 1002
f 1001 1002 998
f 998 1002 736
f 998 736 735
f 1003 998 999
f 998 1003 1001
f 1004 1001 1003
f 1001 1004 699
f 699 1004 697
f 1005 697 1004
f 697 1005 700
f 495 1006 496
f 1006 495 1007
f 1007 495 622
f 1008 632 631
f 632 1008 1009
f 1009 1008 1010
f 1010 1008 1011
f 1010 1011 559
f 559 1011 560
f 624 1007 622
f 1007 624 1012
f 626 1012 624
f 1012 626 1013
f 1013 626 740
f 740 1014 1013
f 1014 740 739
f 572 731 571
f 731 572 1015
f 1015 573 1016
f 573 1015 572
f 1016 577 954
f 577 1016 573
f 729 734 1017
f 734 729 728
f 578 1018 955
f 1018 578 597
f 511 594 690
f 594 511 513
f 597 1019 1018
f 1019 597 595
f 595 1020 1019
f 1020 595 589
f 589 557 1020
f 557 589 1021
f 557 1021 555
f 1023 589 1024
f 1024 589 680
f 680 589 591
f 1025 555 1021
f 1026 555 1025
f 555 1026 559
f 559 1026 1010
f 664 1027 668
f 1027 664 1028
f 666 1028 664
f 1028 666 1029
f 1030 630 1031
f 630 1030 633
f 667 1032 665
f 1032 667 1033
f 669 1033 667
f 1033 669 1034
f 1035 560 1011
f 560 679 558
f 679 560 1035
f 1036 554 1037
f 554 1036 543
f 543 1036 541
f 530 1038 533
f 1038 530 1039
f 533 1040 535
f 1040 533 1038
f 1037 553 1041
f 553 1037 554
f 288 315 316
f 315 288 284
f 1042 612 1043
f 612 1042 551
f 551 1042 549
f 536 1044 537
f 1044 536 628
f 325 1045 323
f 1045 325 268
f 323 1045 612
f 1047 268 686
f 686 268 270
f 686 1048 1047
f 1043 612 1045
f 492 629 493
f 629 492 527
f 527 492 528
f 272 325 326
f 325 272 268
f 563 688 1049
f 688 563 564
f 301 274 305
f 274 301 298
f 1050 606 1051
f 606 1050 604
f 1052 503 617
f 503 1052 501
f 501 1052 1053
f 1054 499 1055
f 499 1054 130
f 130 1054 128
f 1056 500 1057
f 500 1056 502
f 502 1056 618
f 1059 1058 1061
f 1061 1058 1062
f 1062 1058 1063
f 1064 1058 1065
f 1065 1058 1066
f 1065 1066 1067
f 220 183 181
f 183 220 853
f 853 220 851
f 851 220 849
f 849 220 847
f 847 220 845
f 845 220 827
f 860 188 832
f 188 860 191
f 1068 862 860
f 862 1068 1069
f 1070 1069 1068
f 1069 1070 1071
f 1072 1071 1070
f 1071 1072 1073
f 1074 1075 1076
f 1075 1073 1072
f 1073 1075 1074
f 1077 1076 1078
f 1076 1077 1074
f 1079 1078 1080
f 1078 1079 1077
f 1081 1082 1083
f 1082 1081 1080
f 1080 1081 1079
f 1084 1083 1085
f 1083 1084 1081
f 1086 1085 1087
f 1085 1086 1084
f 858 1087 855
f 1087 858 1086
f 854 859 857
f 859 854 852
f 859 852 850
f 859 850 848
f 859 848 846
f 835 861 862
f 836 862 1069
f 862 836 835
f 822 1069 1071
f 1069 822 836
f 823 1071 1073
f 1071 823 822
f 826 1073 1074
f 1073 826 823
f 828 1074 1077
f 1074 828 826
f 846 1077 1079
f 1077 846 828
f 855 197 194
f 857 861 856
f 861 857 859
f 861 858 856
f 858 861 1086
f 1086 861 1084
f 1084 861 1081
f 1081 861 1079
f 1088 169 168
f 169 1088 832
f 145 168 143
f 168 145 1088
f 1072 145 142
f 145 1072 1070
f 1076 142 147
f 142 1076 1072
f 1078 147 149
f 147 1078 1076
f 829 1078 149
f 1078 829 1080
f 840 1080 829
f 1080 840 1083
f 841 1083 840
f 1080 1075 1082
f 196 855 189
f 189 855 1087
f 189 1087 1085
f 189 1085 1083
f 189 1083 1082
f 189 1082 1075
f 189 1075 1072
f 1068 832 1088
f 832 1068 860
f 1070 1088 145
f 1088 1070 1068
f 196 190 195
f 190 196 189
f 190 197 195
f 197 190 843
f 843 190 842
f 842 190 841
f 648 1089 645
f 1089 648 383
f 383 648 647
f 645 962 961
f 962 645 1089
f 403 1089 968
f 645 403 643
f 643 403 350
f 350 636 643
f 963 968 964
f 964 968 965
f 965 968 966
f 648 1090 1091
f 1090 648 645
f 1092 1093 1094
f 1096 1093 1097
f 1093 1096 1094
f 1094 1096 1098
f 1099 1100 1101
f 1100 1099 1102
f 1102 1099 1103
f 1100 1096 1097
f 1096 1100 1104
f 1100 1105 1101
f 1105 1100 1095
f 1095 1100 1093
f 1093 1100 1097
f 1096 1106 1098
f 1106 1096 1107
f 1107 1096 1104
f 1094 1106 1092
f 1108 1095 1092
f 1092 1107 1108
f 112 1106 422
f 1106 112 1107
f 1107 112 1103
f 1103 112 114
f 1102 1107 1103
f 1107 1102 1104
f 1099 1105 1108
f 1105 1099 1101
f 458 453 459
f 453 458 114
f 114 458 1103
f 113 453 114
f 1102 20 1104
f 20 1102 458
f 20 458 21
f 1109 1104 20
f 1105 908 905
f 908 1105 1109
f 1109 1105 1108
f 1109 1108 1107
f 1108 1103 1099
f 422 1110 1111
f 1110 422 1098
f 1094 1110 1098
f 515 1112 1113
f 1112 515 509
f 628 527 629
f 527 628 529
f 529 628 1044
f 529 1044 684
f 684 1044 1048
f 684 1048 683
f 683 1048 1047
f 683 1047 982
f 982 1047 983
f 727 1017 729
f 1017 727 997
f 997 727 993
f 1114 1004 1005
f 1004 1114 1003
f 1003 1114 1115
f 1003 1115 999
f 999 1115 1116
f 999 1116 997
f 997 1116 1017
f 609 989 988
f 989 609 611
f 497 1117 621
f 1117 497 1006
f 1006 497 496
f 973 975 971
f 971 975 978
f 755 751 752
f 751 755 747
f 661 507 1118
f 507 661 505
f 505 661 547
f 1112 1119 1120
f 1039 675 1121
f 675 1039 1038
f 675 1038 676
f 676 1038 1040
f 676 1040 510
f 510 1040 1119
f 510 1119 509
f 509 1119 1112
f 986 1049 987
f 695 1122 696
f 1122 695 1123
f 1123 695 689
f 1123 689 608
f 608 689 688
f 608 688 607
f 607 688 1049
f 607 1049 986
f 1041 544 1124
f 544 1041 542
f 542 1041 553
f 1028 1032 1029
f 1032 1028 1033
f 1033 1028 1027
f 1033 1027 1034
f 1034 1027 1024
f 1034 1024 1125
f 1125 1024 1023
f 1125 1023 1126
f 1126 1023 1127
f 1128 969 977
f 977 969 976
f 755 748 747
f 748 755 756
f 727 994 993
f 994 727 726
f 743 611 609
f 611 743 744
f 746 617 616
f 617 746 1052
f 1117 1007 1006
f 1007 1117 1129
f 1007 1129 1012
f 1012 1129 1130
f 1012 1130 1013
f 1013 1130 996
f 1013 996 1014
f 1014 996 723
f 723 996 725
f 725 996 995
f 741 705 742
f 1131 693 1132
f 693 1131 603
f 693 603 694
f 694 603 602
f 694 602 1133
f 1133 602 704
f 1133 704 1134
f 1134 704 705
f 1134 705 741
f 971 970 973
f 750 753 754
f 753 750 749
f 991 518 517
f 518 991 1135
f 5 1120 6
f 1120 5 1119
f 1136 1054 1137
f 1054 1136 1055
f 1055 1136 1057
f 1055 1057 1053
f 1053 1057 1056
f 1053 1056 1052
f 1052 1056 1138
f 1052 1138 746
f 746 1138 743
f 743 745 746
f 1036 1041 1037
f 1041 1036 1124
f 1124 1036 1139
f 1124 1139 663
f 663 1139 514
f 663 514 662
f 662 514 512
f 662 512 1140
f 1140 722 662
f 479 1050 481
f 1050 479 649
f 1050 649 1051
f 1051 649 610
f 1051 610 1135
f 1135 610 609
f 1135 609 991
f 991 609 990
f 990 609 988
f 566 1123 600
f 1123 566 608
f 608 566 567
f 985 981 980
f 1118 1141 1142
f 1141 1118 661
f 1141 661 1042
f 1042 661 660
f 1042 660 1043
f 1043 660 981
f 1043 981 1045
f 1045 981 985
f 1141 549 1042
f 549 1141 548
f 1139 541 1036
f 541 1139 545
f 621 1129 623
f 1129 621 1117
f 1143 679 678
f 679 1143 1021
f 1030 1144 1031
f 1144 1030 1145
f 1144 1145 1026
f 1026 1145 1035
f 1026 1035 1025
f 1025 1035 679
f 1025 679 1021
f 682 1125 681
f 1125 682 1126
f 1138 744 743
f 744 1138 1146
f 623 1130 625
f 1130 623 1129
f 984 1047 1046
f 1047 984 983
f 972 509 515
f 509 972 969
f 538 529 526
f 529 538 684
f 1118 504 1142
f 504 1118 507
f 1124 546 663
f 546 1124 544
f 1114 700 1005
f 700 1114 698
f 698 1114 1000
f 539 1048 686
f 1048 539 1044
f 1044 539 537
f 738 627 996
f 996 625 1130
f 625 996 627
f 1143 1022 1021
f 1022 1143 1147
f 726 995 994
f 995 726 725
f 484 603 487
f 603 484 1131
f 532 1039 530
f 1039 532 1121
f 1115 1000 1114
f 1000 1115 1002
f 985 1046 1045
f 1046 985 984
f 1140 1147 1143
f 1147 1140 1113
f 1021 726 727
f 726 1021 1022
f 1116 1002 1115
f 1002 1116 736
f 736 1116 737
f 1140 515 1113
f 515 1140 512
f 1045 979 978
f 979 1045 1046
f 988 984 985
f 984 988 989
f 977 978 975
f 979 969 972
f 969 979 976
f 1046 976 979
f 976 1046 1047
f 756 749 748
f 749 756 753
f 1022 725 726
f 725 1022 1023
f 660 552 550
f 552 981 613
f 981 552 660
f 1057 498 1136
f 498 1057 500
f 1051 518 1135
f 518 1051 519
f 519 1051 606
f 687 683 685
f 683 687 982
f 1031 1009 1144
f 1009 1031 632
f 632 1031 630
f 978 972 971
f 972 978 979
f 1144 1010 1026
f 1010 1144 1009
f 1146 741 744
f 741 1146 1134
f 563 987 562
f 987 563 1049
f 1142 548 1141
f 548 1142 506
f 506 1142 504
f 600 1122 599
f 1122 600 1123
f 5 1040 1119
f 1040 5 8
f 535 1040 8
f 514 545 1139
f 545 514 126
f 126 514 127
f 1 696 2
f 696 1 1122
f 1122 1 599
f 706 602 704
f 602 706 491
f 489 602 491
f 1055 501 1053
f 501 1055 499
f 737 1017 734
f 1017 737 1116
f 611 986 989
f 986 611 607
f 744 607 611
f 607 744 741
f 748 1134 1146
f 1134 748 749
f 669 1125 1034
f 1125 669 671
f 1125 671 681
f 620 750 619
f 750 620 754
f 703 742 707
f 742 703 705
f 1035 1008 1145
f 1008 1035 1011
f 1145 633 1030
f 633 1145 631
f 631 1145 1008
f 665 1029 666
f 1029 665 1032
f 531 1121 532
f 1121 531 675
f 522 1128 525
f 977 522 637
f 977 974 1128
f 974 977 975
f 490 694 488
f 694 490 1133
f 1133 490 708
f 481 604 1050
f 604 481 508
f 508 481 480
f 525 970 523
f 970 525 1128
f 1128 973 970
f 973 1128 974
f 989 983 984
f 983 989 986
f 670 1024 680
f 1024 670 1027
f 1027 670 668
f 971 515 512
f 515 971 972
f 724 1014 739
f 1014 724 723
f 598 689 601
f 689 598 695
f 593 1112 1148
f 1112 593 4
f 1112 4 1120
f 1120 4 6
f 1148 1140 121
f 121 1140 722
f 121 722 124
f 1147 1023 1022
f 1023 1147 1127
f 1113 1127 1147
f 1127 1113 1112
f 593 1149 592
f 1149 593 1148
f 682 1127 1126
f 1149 1143 592
f 1143 1149 556
f 1143 556 561
f 1143 561 678
f 592 1127 682
f 592 682 590
f 747 1146 1138
f 1146 747 748
f 708 1134 1133
f 307 276 310
f 276 307 1138
f 1138 307 618
f 1138 618 1056
f 276 1134 708
f 276 708 294
f 1150 934 931
f 934 1150 1151
f 1157 1061 1154
f 1061 1157 1158
f 1159 1158 1157
f 1158 1159 1160
f 1161 1160 1159
f 1160 1161 1162
f 1163 1161 1164
f 1161 1163 1162
f 1165 1163 1164
f 1163 1165 1166
f 1167 1168 1169
f 1168 1167 1170
f 1171 1167 1169
f 1167 1171 1172
f 1062 1171 1155
f 1171 1062 1172
f 1136 131 1137
f 131 1136 129
f 129 1136 498
f 486 1131 484
f 1131 486 1132
f 1137 128 1054
f 128 1137 131
f 485 1132 486
f 1132 485 693
f 429 940 941
f 940 429 1095
f 1095 429 1092
f 1092 429 1106
f 1106 429 422
f 422 429 423
f 381 1089 383
f 1089 381 968
f 968 381 382
f 968 382 967
f 374 118 120
f 118 374 378
f 378 374 380
f 380 374 397
f 380 397 379
f 379 397 406
f 379 406 382
f 382 406 942
f 942 406 941
f 941 406 429
f 967 943 966
f 943 967 942
f 942 967 382
f 963 945 962
f 945 964 944
f 944 964 966
f 944 966 943
f 961 945 946
f 945 961 962
f 511 121 123
f 121 511 1148
f 1148 511 1149
f 959 650 958
f 650 959 946
f 946 959 960
f 946 960 961
f 556 1020 557
f 1020 556 1149
f 1020 1149 511
f 1020 511 690
f 1020 690 1019
f 1019 690 677
f 1019 677 1018
f 1018 677 634
f 1018 634 955
f 955 634 954
f 954 634 951
f 951 634 950
f 950 634 949
f 949 634 635
f 949 635 659
f 659 635 652
f 652 635 956
f 652 956 958
f 958 956 957
f 652 958 650
f 948 674 947
f 674 948 659
f 659 948 949
f 1016 731 1015
f 731 1016 992
f 992 1016 953
f 953 1016 952
f 952 1016 951
f 951 1016 954
f 731 733 730
f 733 731 992
f 1061 1155 1154
f 1062 1155 1061
f 1175 1176 1177
f 1176 1175 1178
f 1180 1181 1150
f 1181 1180 1182
f 1181 1182 1183
f 1152 1150 1181
f 1184 1064 1185
f 1176 1187 1188
f 1187 1176 1189
f 1178 1190 1176
f 1176 1190 1189
f 1184 1151 1156
f 1151 1184 1186
f 1191 1184 1156
f 1184 1191 1063
f 1063 1191 1192
f 1188 1192 1191
f 1192 1188 1187
f 1187 1063 1192
f 1063 1187 1193
f 1063 1193 1064
f 1064 1193 1194
f 1196 1059 1197
f 1198 1183 1199
f 1183 1198 1200
f 1201 1199 1202
f 1199 1201 1198
f 1197 1202 1153
f 1202 1197 1059
f 1202 1059 1201
f 1196 1153 1152
f 1153 1196 1197
f 1151 1067 934
f 1067 1151 1065
f 906 908 909
f 932 937 936
f 937 932 439
f 439 932 1203
f 439 1203 441
f 441 1203 930
f 441 930 928
f 441 928 925
f 441 925 924
f 441 924 922
f 441 922 920
f 441 920 917
f 441 917 915
f 441 915 913
f 441 913 911
f 441 911 909
f 441 909 1109
f 1109 909 908
f 441 1109 442
f 20 442 1109
f 442 20 446
f 446 20 449
f 449 20 22
f 449 447 446
f 447 449 448
f 442 445 443
f 445 442 446
f 443 445 444
f 672 434 440
f 434 672 673
f 939 15 17
f 15 939 405
f 405 939 937
f 405 937 428
f 428 937 430
f 430 937 431
f 431 937 439
f 1095 1204 940
f 1204 1095 1105
f 940 1204 938
f 938 1204 935
f 1204 1105 929
f 929 1105 927
f 927 1105 926
f 926 1105 923
f 923 1105 921
f 921 1105 919
f 919 1105 918
f 918 1105 916
f 916 1105 914
f 914 1105 912
f 912 1105 910
f 910 1105 905
f 910 905 907
f 1066 1150 931
f 1195 1066 1058
f 1204 933 935
f 930 1204 929
f 1204 930 1203
f 1204 1067 1066
f 1067 1204 1203
f 1205 1189 1190
f 1189 1205 1206
f 1208 1194 1193
f 1194 1208 1209
f 1187 1208 1193
f 1208 1187 1206
f 1206 1187 1189
f 1175 1190 1179
f 1190 1175 1205
f 1205 1175 1210
f 1211 1060 1058
f 1060 1211 1212
f 1213 1212 1214
f 1195 1180 1150
f 1180 1195 1060
f 1180 1060 1214
f 1180 1214 1212
f 1180 1212 1215
f 1216 1210 1175
f 1210 1216 1217
f 1175 1177 1216
f 1215 1182 1180
f 1182 1215 1177
f 1177 1215 1216
f 1216 1215 1217
f 1207 1179 1178
f 1179 1207 1205
f 1186 1218 1219
f 1218 1186 1185
f 1185 1178 1218
f 1178 1185 1220
f 1178 1220 1207
f 1179 1218 1178
f 1218 1179 1219
f 1221 1207 1220
f 1207 1221 1205
f 1064 1065 1186
f 1065 1185 1186
f 1185 1065 1220
f 1220 1065 1221
f 1179 1186 1219
f 1186 1179 1064
f 1064 1179 1194
f 1194 1179 1209
f 1221 1064 1205
f 1205 1209 1179
f 1200 1181 1183
f 1181 1200 1222
f 1223 1222 1200
f 1222 1223 1224
f 1225 1195 1196
f 1195 1225 1058
f 1058 1225 1211
f 1181 1196 1152
f 1196 1181 1222
f 1222 1225 1196
f 1225 1222 1224
f 1225 1212 1211
f 1212 1225 1224
f 1195 1152 1150
f 434 1226 433
f 432 409 411
f 409 432 1227
f 409 1227 673
f 673 1227 1226
f 673 1226 434
f 1226 438 433
f 438 1226 1228
f 1226 1229 1228
f 1229 1226 1227
f 1229 432 435
f 432 1229 1227
f 412 1229 410
f 1229 412 672
f 1229 672 1228
f 1228 672 438
f 438 672 440
f 435 410 1229
f 1223 1230 1231
f 1230 1223 1198
f 1198 1223 1200
f 1059 1213 1060
f 1213 1059 1231
f 1231 1059 1223
f 1063 1172 1062
f 1064 1208 1063
f 1208 1064 1209
f 1224 1215 1212
f 1215 1224 1217
f 1217 1224 1223
f 1217 1223 1166
f 1166 1223 1162
f 1162 1223 1160
f 1160 1223 1158
f 1158 1223 1059
f 1158 1059 1061
f 1166 1162 1163
f 1217 1166 1232
f 1217 1232 1206
f 1206 1232 1233
f 1206 1233 1234
f 1206 1234 1170
f 1170 1234 1235
f 1170 1235 1236
f 1170 1236 1237
f 1170 1237 1238
f 1170 1238 1239
f 1170 1239 1240
f 1170 1240 1241
f 1170 1241 1242
f 1206 1170 1167
f 1206 1167 1172
f 1206 1172 1063
f 1206 1063 1208
f 1217 1206 1207
f 1213 1230 1214
f 1230 1213 1231
f 1201 1230 1198
f 1230 1060 1214
f 1060 1230 1059
f 1059 1230 1201
f 1177 1183 1182
f 1183 1177 1165
f 1183 1165 1199
f 1199 1165 1161
f 1199 1161 1202
f 1202 1161 1159
f 1202 1159 1157
f 1202 1157 1153
f 1161 1165 1164
f 1165 1177 1243
f 1243 1177 1244
f 1244 1177 1245
f 1245 1177 1246
f 1246 1177 1247
f 1247 1177 1248
f 1248 1177 1249
f 1249 1177 1250
f 1250 1177 1251
f 1251 1177 1168
f 1251 1168 1252
f 1252 1168 1253
f 1168 1177 1169
f 1169 1177 1171
f 1171 1177 1191
f 1171 1191 1155
f 1191 1177 1188
f 1188 1177 1176
f 1156 1155 1191
f 1154 1153 1157
f 1244 1232 1243
f 1232 1244 1233
f 1239 1249 1250
f 1249 1239 1238
f 1247 1235 1246
f 1235 1247 1236
f 1243 1166 1165
f 1166 1243 1232
f 1245 1233 1244
f 1233 1245 1234
f 1238 1248 1249
f 1248 1238 1237
f 1242 1252 1253
f 1252 1242 1241
f 1240 1250 1251
f 1250 1240 1239
f 1241 1251 1252
f 1251 1241 1240
f 1248 1236 1247
f 1236 1248 1237
f 1246 1234 1245
f 1234 1246 1235
f 1170 1253 1168
f 1253 1170 1242
f 253 888 887
f 888 253 246
f 893 200 894
f 200 893 891
f 200 891 198
f 891 893 892
f 198 891 865
f 904 51 52
f 51 904 233
f 233 904 903
f 233 903 902
f 233 902 798
f 798 902 901
f 798 901 799
f 799 901 900
f 799 900 800
f 800 900 801
f 801 900 899
f 801 899 802
f 802 899 803
f 803 899 898
f 803 898 804
f 804 898 897
f 804 897 805
f 805 897 187
f 187 897 1254
f 1254 897 896
f 187 1254 244
f 1254 896 1255
f 1255 896 199
f 199 896 895
f 199 895 894
f 1255 199 201
f 187 243 185
f 185 243 190
f 190 243 245
f 185 190 192
f 190 245 188
f 1256 240 265
f 240 1256 1257
f 240 1257 238
f 192 189 202
f 189 192 190
f 202 189 266
f 266 189 191
f 266 191 220
f 220 191 218
f 266 219 762
f 762 219 221
f 265 239 258
f 258 239 241
f 141 477 137
f 477 141 475
f 244 476 242
f 476 244 137
f 137 244 1256
f 242 476 478
f 718 1254 717
f 1254 718 1256
f 1255 1256 1254
f 1256 1255 1257
f 201 236 1255
f 1255 236 235
f 1255 235 1257
f 1257 235 238
f 248 761 889
f 761 248 760
f 246 889 888
f 889 246 248
