# Unified Preprocessed OBJ file from m1583.obj
# Applied remeshing: Yes
# Applied 4-step normalization: centering, PCA alignment, flipping, scaling
# Generated on 2025-09-29 15:20:44

v -0.307524 -0.009212 -0.049109
v -0.309650 0.005309 -0.044196
v -0.278468 -0.004969 -0.049079
v -0.311779 0.019824 -0.034390
v -0.280594 0.009552 -0.044166
v -0.313206 0.029488 -0.019695
v -0.282723 0.024067 -0.034360
v -0.313929 0.034303 -0.000113
v -0.284150 0.033731 -0.019665
v -0.313237 0.029433 0.019457
v -0.284873 0.038547 -0.000083
v -0.311834 0.019727 0.034127
v -0.284181 0.033676 0.019486
v -0.309720 0.005186 0.043896
v -0.282779 0.023970 0.034157
v -0.307603 -0.009348 0.048772
v -0.280665 0.009429 0.043926
v -0.305477 -0.023870 0.043859
v -0.278547 -0.005105 0.048801
v -0.303348 -0.038384 0.034053
v -0.276422 -0.019627 0.043889
v -0.301921 -0.048049 0.019358
v -0.274293 -0.034141 0.034083
v -0.301199 -0.052865 -0.000224
v -0.272866 -0.043806 0.019388
v -0.301890 -0.047995 -0.019794
v -0.272143 -0.048622 -0.000194
v -0.303293 -0.038289 -0.034464
v -0.272834 -0.043752 -0.019764
v -0.305406 -0.023748 -0.044233
v -0.274237 -0.034046 -0.034435
v -0.276350 -0.019504 -0.044203
v 0.586628 -0.002364 0.015249
v 0.582385 0.026692 0.015286
v 0.484932 -0.017215 0.015146
v 0.480689 0.011841 0.015183
v 0.480713 0.011882 -0.014181
v 0.484956 -0.017174 -0.014218
v 0.586652 -0.002323 -0.014115
v 0.582409 0.026733 -0.014077
v -0.277705 -0.009716 -0.117601
v -0.283370 0.029011 -0.107765
v -0.258334 -0.006887 -0.117583
v -0.288341 0.062876 -0.083251
v -0.264000 0.031840 -0.107745
v -0.291202 0.082192 -0.044074
v -0.268971 0.065705 -0.083232
v -0.292652 0.091816 -0.000015
v -0.271831 0.085020 -0.044054
v -0.291274 0.082069 0.044018
v -0.273281 0.094645 0.000004
v -0.288476 0.062644 0.083146
v -0.271902 0.084898 0.044038
v -0.283545 0.028711 0.107573
v -0.269105 0.065473 0.083166
v -0.277895 -0.010044 0.117311
v -0.264175 0.031540 0.107593
v -0.272230 -0.048772 0.107474
v -0.258525 -0.007215 0.117331
v -0.267259 -0.082636 0.082961
v -0.252859 -0.045943 0.107494
v -0.264399 -0.101953 0.043784
v -0.247889 -0.079807 0.082981
v -0.262949 -0.111576 -0.000275
v -0.245028 -0.099124 0.043803
v -0.264328 -0.101829 -0.044308
v -0.243578 -0.108747 -0.000255
v -0.267125 -0.082404 -0.083437
v -0.244957 -0.099000 -0.044289
v -0.272055 -0.048472 -0.107863
v -0.247754 -0.079575 -0.083417
v -0.252685 -0.045643 -0.107844
v -0.285159 -0.129845 0.146503
v -0.413348 -0.267080 -0.000614
v -0.268186 -0.246069 0.146355
v -0.284921 -0.129435 -0.147139
v -0.267948 -0.245660 -0.147287
v -0.241576 -0.123480 0.146547
v -0.241337 -0.123070 -0.147094
v -0.224603 -0.239704 0.146399
v -0.224364 -0.239295 -0.147243
v 0.305045 -0.003749 -0.117120
v 0.370661 -0.182113 -0.117316
v 0.429372 -0.143863 -0.117215
v 0.343104 0.006793 -0.146439
v 0.403876 -0.172279 -0.146640
v 0.331236 -0.182887 -0.146713
v 0.343080 0.006752 -0.117075
v 0.305069 -0.003708 -0.146484
v 0.279526 -0.032205 -0.117181
v 0.279549 -0.032164 -0.146545
v 0.259556 -0.064797 -0.117242
v 0.259579 -0.064757 -0.146607
v 0.260371 -0.104245 -0.117297
v 0.260395 -0.104204 -0.146661
v 0.270164 -0.137437 -0.117335
v 0.270187 -0.137396 -0.146699
v 0.298621 -0.162957 -0.117348
v 0.298644 -0.162917 -0.146712
v 0.331212 -0.182928 -0.117350
v 0.370685 -0.182072 -0.146681
v 0.403853 -0.172319 -0.117276
v 0.429396 -0.143822 -0.146579
v 0.449342 -0.111271 -0.117153
v 0.449366 -0.111230 -0.146518
v 0.449235 -0.076664 -0.117105
v 0.449258 -0.076624 -0.146470
v 0.438734 -0.038631 -0.117061
v 0.438758 -0.038590 -0.146425
v 0.410277 -0.013111 -0.117048
v 0.410301 -0.013070 -0.146413
v 0.377686 0.006859 -0.117047
v 0.377709 0.006900 -0.146411
v -0.129872 -0.141452 -0.117666
v -0.089393 -0.249297 -0.117783
v -0.053481 -0.224268 -0.117719
v -0.106342 -0.133032 -0.146999
v -0.065863 -0.240878 -0.147116
v -0.114289 -0.247950 -0.147166
v -0.106366 -0.133073 -0.117635
v -0.129848 -0.141411 -0.147030
v -0.142278 -0.158102 -0.117699
v -0.142255 -0.158061 -0.147063
v -0.154685 -0.174751 -0.117732
v -0.154661 -0.174710 -0.147097
v -0.155992 -0.199672 -0.117768
v -0.155968 -0.199631 -0.147132
v -0.147613 -0.223178 -0.117794
v -0.147589 -0.223137 -0.147158
v -0.130962 -0.235583 -0.117798
v -0.130940 -0.235543 -0.147162
v -0.114313 -0.247990 -0.117801
v -0.089369 -0.249256 -0.147147
v -0.065887 -0.240918 -0.117752
v -0.053457 -0.224227 -0.147083
v -0.041074 -0.207619 -0.117685
v -0.041050 -0.207578 -0.147050
v -0.039767 -0.182698 -0.117650
v -0.039743 -0.182658 -0.147014
v -0.048146 -0.159192 -0.117624
v -0.048122 -0.159151 -0.146988
v -0.064796 -0.146787 -0.117620
v -0.064772 -0.146746 -0.146984
v -0.081445 -0.134380 -0.117616
v -0.081421 -0.134339 -0.146981
v 0.377495 0.006532 0.117867
v 0.370471 -0.182440 0.117598
v 0.298429 -0.163285 0.117566
v 0.279311 -0.032573 0.147097
v 0.403638 -0.172688 0.147003
v 0.449128 -0.111639 0.147125
v 0.342865 0.006384 0.147203
v 0.342889 0.006425 0.117838
v 0.304831 -0.004117 0.147157
v 0.304855 -0.004076 0.117793
v 0.279335 -0.032533 0.117732
v 0.259341 -0.065166 0.147035
v 0.259365 -0.065125 0.117672
v 0.260157 -0.104615 0.146981
v 0.260181 -0.104574 0.117617
v 0.269949 -0.137806 0.146942
v 0.269973 -0.137765 0.117578
v 0.298405 -0.163326 0.146930
v 0.330998 -0.183296 0.146929
v 0.331022 -0.183255 0.117564
v 0.370447 -0.182481 0.146962
v 0.403662 -0.172647 0.117638
v 0.429158 -0.144231 0.147063
v 0.429182 -0.144190 0.117699
v 0.449152 -0.111598 0.117760
v 0.449020 -0.077034 0.147173
v 0.449044 -0.076993 0.117809
v 0.438520 -0.038999 0.147217
v 0.438544 -0.038958 0.117853
v 0.410063 -0.013479 0.147230
v 0.410087 -0.013438 0.117865
v 0.377471 0.006491 0.147231
v -0.081636 -0.134707 0.117298
v -0.089583 -0.249625 0.117131
v -0.131154 -0.235912 0.117116
v -0.142493 -0.158470 0.146579
v -0.066101 -0.241287 0.146525
v -0.041288 -0.207987 0.146592
v -0.106580 -0.133442 0.146643
v -0.106556 -0.133401 0.117279
v -0.130086 -0.141820 0.146613
v -0.130062 -0.141779 0.117248
v -0.142469 -0.158429 0.117215
v -0.154899 -0.175119 0.146546
v -0.154875 -0.175078 0.117182
v -0.156206 -0.200040 0.146510
v -0.156182 -0.199999 0.117146
v -0.147827 -0.223546 0.146484
v -0.147803 -0.223505 0.117120
v -0.131178 -0.235953 0.146480
v -0.114528 -0.248359 0.146477
v -0.114504 -0.248318 0.117112
v -0.089607 -0.249666 0.146495
v -0.066077 -0.241246 0.117162
v -0.053695 -0.224638 0.146558
v -0.053671 -0.224597 0.117195
v -0.041264 -0.207946 0.117228
v -0.039981 -0.183067 0.146628
v -0.039957 -0.183026 0.117264
v -0.048360 -0.159561 0.146653
v -0.048336 -0.159520 0.117290
v -0.065010 -0.147155 0.146657
v -0.064986 -0.147114 0.117294
v -0.081660 -0.134748 0.146662
v 0.469561 0.292335 -0.141044
v 0.465207 0.321200 -0.003974
v 0.466561 0.311413 0.069424
v 0.205736 0.268333 0.103410
v 0.203734 0.283065 -0.043392
v 0.205912 0.268633 -0.111927
v 0.471702 0.277841 -0.165533
v 0.210199 0.239652 -0.165799
v 0.208057 0.254146 -0.141310
v 0.467415 0.306822 -0.111662
v 0.466681 0.311617 -0.077397
v 0.205176 0.273428 -0.077663
v 0.465239 0.321254 -0.043127
v 0.203702 0.283010 -0.004240
v 0.465175 0.321145 0.035178
v 0.203670 0.282956 0.034912
v 0.205057 0.273223 0.069158
v 0.467241 0.306522 0.103676
v 0.469338 0.291952 0.133021
v 0.207835 0.253763 0.132756
v 0.471440 0.277391 0.157473
v 0.209936 0.239202 0.157207
v 0.306784 -0.117252 -0.117278
v 0.274959 0.100669 -0.116999
v 0.306593 -0.117579 0.117636
v -0.262578 0.022169 -0.117546
v -0.230753 -0.195752 -0.117824
v 0.274768 0.100341 0.117915
v -0.262768 0.021841 0.117368
v -0.230944 -0.196079 0.117090
v 0.510176 -0.087549 -0.117071
v 0.457135 0.275651 -0.116608
v 0.509985 -0.087877 0.117843
v 0.253743 0.245948 -0.116814
v 0.456944 0.275324 0.118306
v 0.253552 0.245621 0.118100
v -0.121072 0.339459 -0.014213
v -0.217938 0.325294 0.000371
v -0.203433 0.327375 0.029750
v -0.078664 0.048858 0.014781
v -0.175505 0.034735 0.000001
v -0.160953 0.036897 -0.029349
v -0.095991 0.268845 0.054225
v -0.121096 0.339418 0.015151
v -0.130793 0.337983 0.029824
v -0.125060 0.264581 0.068878
v -0.145330 0.335848 0.039597
v -0.158963 0.259624 0.073738
v -0.164704 0.333012 0.044471
v -0.188014 0.255388 0.068814
v -0.188913 0.329483 0.039552
v -0.217058 0.251165 0.054103
v -0.236410 0.248370 0.029613
v -0.213107 0.325981 0.015057
v -0.241228 0.247704 0.000244
v -0.236362 0.248452 -0.029116
v -0.213083 0.326022 -0.014307
v -0.216971 0.251315 -0.053566
v -0.203386 0.327457 -0.028979
v -0.187903 0.255579 -0.068219
v -0.188850 0.329592 -0.038752
v -0.158843 0.259829 -0.073083
v -0.164632 0.333135 -0.043622
v -0.124948 0.264772 -0.068155
v -0.145266 0.335957 -0.038708
v -0.095904 0.268995 -0.053443
v -0.130745 0.338065 -0.028905
v -0.076553 0.271790 -0.028953
v -0.071734 0.272456 0.000415
v -0.116241 0.340146 0.000475
v -0.076601 0.271708 0.029775
v -0.109577 0.192703 0.029638
v -0.099880 0.194138 0.014966
v -0.124113 0.190568 0.039411
v -0.143488 0.187732 0.044286
v -0.167697 0.184203 0.039367
v -0.182217 0.182095 0.029565
v -0.191890 0.180701 0.014872
v -0.196721 0.180015 0.000186
v -0.191866 0.180742 -0.014492
v -0.182170 0.182177 -0.029164
v -0.167633 0.184312 -0.038938
v -0.143416 0.187855 -0.043807
v -0.124049 0.190677 -0.038893
v -0.109529 0.192785 -0.029090
v -0.099856 0.194179 -0.014398
v -0.095025 0.194866 0.000288
v -0.088360 0.047424 0.029453
v -0.102897 0.045288 0.039226
v -0.122271 0.042453 0.044101
v -0.146481 0.038923 0.039182
v -0.161000 0.036816 0.029379
v -0.170674 0.035422 0.014687
v -0.170650 0.035462 -0.014677
v -0.146417 0.039033 -0.039123
v -0.122200 0.042575 -0.043992
v -0.102833 0.045397 -0.039078
v -0.088312 0.047505 -0.029275
v -0.078640 0.048899 -0.014583
v -0.073809 0.049586 0.000103
v -0.308587 -0.001952 -0.046652
v -0.294059 0.000170 -0.046638
v -0.292996 -0.007091 -0.049094
v -0.310715 0.012566 -0.039293
v -0.296186 0.014688 -0.039278
v -0.295122 0.007430 -0.044181
v -0.312493 0.024656 -0.027043
v -0.297964 0.026777 -0.027028
v -0.297251 0.021945 -0.034375
v -0.313567 0.031896 -0.009904
v -0.299039 0.034017 -0.009889
v -0.298678 0.031609 -0.019680
v -0.313583 0.031868 0.009672
v -0.299055 0.033990 0.009687
v -0.299401 0.036425 -0.000098
v -0.312535 0.024580 0.026792
v -0.298008 0.026702 0.026807
v -0.298709 0.031555 0.019472
v -0.310777 0.012457 0.039012
v -0.296250 0.014578 0.039026
v -0.297307 0.021849 0.034142
v -0.308662 -0.002081 0.046334
v -0.294134 0.000040 0.046349
v -0.295193 0.007307 0.043911
v -0.306540 -0.016609 0.046315
v -0.292012 -0.014488 0.046330
v -0.293075 -0.007227 0.048787
v -0.304412 -0.031127 0.038956
v -0.289885 -0.029006 0.038971
v -0.290950 -0.021749 0.043874
v -0.302634 -0.043217 0.026706
v -0.288107 -0.041095 0.026720
v -0.288820 -0.036263 0.034068
v -0.301560 -0.050457 0.009567
v -0.287033 -0.048336 0.009582
v -0.287394 -0.045928 0.019373
v -0.301545 -0.050430 -0.010009
v -0.287017 -0.048308 -0.009994
v -0.286671 -0.050744 -0.000209
v -0.302592 -0.043142 -0.027129
v -0.288063 -0.041020 -0.027114
v -0.287362 -0.045873 -0.019779
v -0.304350 -0.031018 -0.039349
v -0.289822 -0.028897 -0.039334
v -0.288765 -0.036167 -0.034449
v -0.306465 -0.016480 -0.046671
v -0.291937 -0.014358 -0.046656
v -0.290878 -0.021626 -0.044218
v -0.279567 0.002230 -0.002577
v -0.278544 -0.005099 0.043907
v -0.277445 -0.012298 -0.002595
v -0.306505 -0.016548 0.002269
v -0.309718 0.005189 0.041449
v -0.308620 -0.002010 -0.005053
v 0.584507 0.012164 0.015267
v 0.533659 0.004738 0.015216
v 0.535780 -0.009790 0.015197
v 0.480701 0.011861 0.000501
v 0.482823 -0.002667 0.000483
v 0.482811 -0.002687 0.015165
v 0.535804 -0.009749 -0.014166
v 0.535792 -0.009769 0.000516
v 0.484944 -0.017195 0.000464
v 0.582397 0.026713 0.000604
v 0.531549 0.019287 0.000553
v 0.531537 0.019267 0.015235
v 0.531561 0.019308 -0.014129
v 0.533683 0.004779 -0.014148
v 0.482835 -0.002646 -0.014200
v 0.584531 0.012205 -0.014096
v 0.584519 0.012185 0.000586
v 0.586640 -0.002343 0.000567
v -0.280538 0.009647 -0.112683
v -0.270852 0.011062 -0.112674
v -0.268020 -0.008302 -0.117592
v -0.285856 0.045943 -0.095508
v -0.276170 0.047358 -0.095498
v -0.273685 0.030425 -0.107755
v -0.289771 0.072534 -0.063663
v -0.280086 0.073948 -0.063653
v -0.278656 0.064290 -0.083241
v -0.291927 0.087004 -0.022045
v -0.282242 0.088418 -0.022035
v -0.281516 0.083606 -0.044064
v -0.291963 0.086942 0.022001
v -0.282277 0.088357 0.022011
v -0.282966 0.093231 -0.000006
v -0.289875 0.072357 0.063582
v -0.280189 0.073771 0.063592
v -0.281588 0.083483 0.044028
v -0.286010 0.045678 0.095360
v -0.276325 0.047092 0.095370
v -0.278790 0.064058 0.083156
v -0.280720 0.009334 0.112442
v -0.271035 0.010748 0.112452
v -0.273860 0.030125 0.107583
v -0.275062 -0.029408 0.112393
v -0.265377 -0.027993 0.112403
v -0.268210 -0.008629 0.117321
v -0.269744 -0.065704 0.095218
v -0.260059 -0.064289 0.095228
v -0.262544 -0.047357 0.107484
v -0.265829 -0.092294 0.063372
v -0.256144 -0.090880 0.063382
v -0.257574 -0.081221 0.082971
v -0.263674 -0.106764 0.021754
v -0.253989 -0.105350 0.021764
v -0.254714 -0.100538 0.043793
v -0.263638 -0.106702 -0.022292
v -0.253953 -0.105288 -0.022282
v -0.253263 -0.110162 -0.000265
v -0.265726 -0.092116 -0.063872
v -0.256041 -0.090702 -0.063863
v -0.254643 -0.100415 -0.044298
v -0.269590 -0.065438 -0.095650
v -0.259905 -0.064023 -0.095640
v -0.257439 -0.080990 -0.083427
v -0.274880 -0.029094 -0.112732
v -0.265195 -0.027680 -0.112723
v -0.262370 -0.047057 -0.107854
v -0.261254 0.012326 -0.004995
v -0.258517 -0.007202 0.107544
v -0.255597 -0.026415 -0.005044
v -0.274975 -0.029258 0.004724
v -0.283185 0.026300 0.100229
v -0.280265 0.007086 -0.012359
v -0.349254 -0.198463 0.072944
v -0.340767 -0.256575 0.072870
v -0.276673 -0.187957 0.146429
v -0.276435 -0.187547 -0.147213
v -0.340648 -0.256370 -0.073950
v -0.349134 -0.198258 -0.073876
v -0.285040 -0.129640 -0.000318
v -0.263368 -0.126663 0.146525
v -0.263248 -0.126458 -0.000296
v -0.263129 -0.126253 -0.147116
v -0.254643 -0.184365 -0.147190
v -0.233089 -0.181592 0.146473
v -0.254881 -0.184775 0.146451
v -0.246395 -0.242886 0.146377
v -0.232851 -0.181183 -0.147169
v -0.232970 -0.181387 -0.000348
v -0.224483 -0.239499 -0.000422
v -0.318856 -0.253188 -0.073929
v -0.246275 -0.242682 -0.000444
v 0.337853 -0.092931 -0.117218
v 0.400017 -0.162988 -0.117266
v 0.367209 -0.073806 -0.117168
v 0.373490 -0.082743 -0.146539
v 0.367556 -0.177583 -0.146676
v 0.337170 -0.088047 -0.146576
v 0.324063 0.001502 -0.117098
v 0.324075 0.001522 -0.131780
v 0.305057 -0.003728 -0.131802
v 0.292286 -0.017977 -0.117150
v 0.292297 -0.017957 -0.131832
v 0.279538 -0.032185 -0.131863
v 0.269541 -0.048501 -0.117211
v 0.269553 -0.048481 -0.131894
v 0.259568 -0.064777 -0.131924
v 0.259964 -0.084521 -0.117269
v 0.259976 -0.084501 -0.131952
v 0.260383 -0.104225 -0.131979
v 0.265268 -0.120841 -0.117316
v 0.265279 -0.120821 -0.131998
v 0.270176 -0.137417 -0.132017
v 0.284393 -0.150197 -0.117342
v 0.284404 -0.150177 -0.132023
v 0.298632 -0.162937 -0.132030
v 0.314917 -0.172942 -0.117349
v 0.314928 -0.172922 -0.132031
v 0.331224 -0.182907 -0.132031
v 0.350937 -0.182520 -0.117333
v 0.350949 -0.182500 -0.132015
v 0.370673 -0.182092 -0.131998
v 0.387257 -0.177216 -0.117296
v 0.387269 -0.177196 -0.131978
v 0.403865 -0.172299 -0.131958
v 0.416613 -0.158091 -0.117245
v 0.416625 -0.158071 -0.131927
v 0.429384 -0.143842 -0.131897
v 0.439357 -0.127567 -0.117184
v 0.439369 -0.127546 -0.131866
v 0.449354 -0.111250 -0.131836
v 0.449288 -0.093968 -0.117129
v 0.449300 -0.093947 -0.131811
v 0.449246 -0.076644 -0.131787
v 0.443984 -0.057648 -0.117083
v 0.443996 -0.057627 -0.131765
v 0.438746 -0.038610 -0.131743
v 0.424506 -0.025871 -0.117055
v 0.424518 -0.025850 -0.131737
v 0.410289 -0.013090 -0.131731
v 0.393982 -0.003126 -0.117048
v 0.393993 -0.003105 -0.131730
v 0.377698 0.006880 -0.131729
v 0.360383 0.006806 -0.117061
v 0.360395 0.006826 -0.131743
v 0.343092 0.006772 -0.131757
v -0.109632 -0.195374 -0.117724
v -0.071437 -0.236783 -0.117751
v -0.091676 -0.182860 -0.117692
v -0.086102 -0.186955 -0.147058
v -0.090076 -0.244414 -0.147141
v -0.110316 -0.190491 -0.147082
v -0.118119 -0.137262 -0.117650
v -0.118107 -0.137242 -0.132332
v -0.129860 -0.141431 -0.132348
v -0.136075 -0.149777 -0.117682
v -0.136063 -0.149756 -0.132364
v -0.142266 -0.158081 -0.132381
v -0.148481 -0.166426 -0.117716
v -0.148469 -0.166406 -0.132398
v -0.154673 -0.174731 -0.132414
v -0.155338 -0.187211 -0.117750
v -0.155326 -0.187191 -0.132432
v -0.155980 -0.199651 -0.132450
v -0.151802 -0.211425 -0.117781
v -0.151790 -0.211404 -0.132463
v -0.147601 -0.223157 -0.132476
v -0.139288 -0.229381 -0.117796
v -0.139276 -0.229360 -0.132478
v -0.130951 -0.235563 -0.132480
v -0.122638 -0.241787 -0.117800
v -0.122626 -0.241766 -0.132482
v -0.114301 -0.247970 -0.132484
v -0.101853 -0.248644 -0.117792
v -0.101841 -0.248623 -0.132474
v -0.089381 -0.249277 -0.132465
v -0.077640 -0.245108 -0.117767
v -0.077628 -0.245087 -0.132450
v -0.065875 -0.240898 -0.132434
v -0.059684 -0.232593 -0.117735
v -0.059672 -0.232573 -0.132418
v -0.053469 -0.224248 -0.132401
v -0.047277 -0.215944 -0.117702
v -0.047265 -0.215923 -0.132384
v -0.041062 -0.207599 -0.132368
v -0.040420 -0.195159 -0.117667
v -0.040408 -0.195138 -0.132350
v -0.039755 -0.182678 -0.132332
v -0.043956 -0.170945 -0.117637
v -0.043944 -0.170925 -0.132319
v -0.048134 -0.159172 -0.132306
v -0.056471 -0.152990 -0.117622
v -0.056459 -0.152969 -0.132304
v -0.064784 -0.146766 -0.132302
v -0.073121 -0.140583 -0.117618
v -0.073109 -0.140563 -0.132300
v -0.081433 -0.134359 -0.132298
v -0.093906 -0.133726 -0.117625
v -0.093894 -0.133706 -0.132308
v -0.106354 -0.133052 -0.132317
v 0.373983 -0.087954 0.117732
v 0.334450 -0.172862 0.117582
v 0.337962 -0.078376 0.117716
v 0.341474 -0.102631 0.147050
v 0.426383 -0.142163 0.147064
v 0.364219 -0.072106 0.147111
v 0.342877 0.006404 0.132520
v 0.323860 0.001154 0.132498
v 0.323848 0.001133 0.147180
v 0.304843 -0.004096 0.132475
v 0.292083 -0.018325 0.132445
v 0.292071 -0.018345 0.147127
v 0.279323 -0.032553 0.132414
v 0.269338 -0.048849 0.132384
v 0.269326 -0.048870 0.147066
v 0.259353 -0.065145 0.132353
v 0.259761 -0.084870 0.132326
v 0.259749 -0.084890 0.147008
v 0.260169 -0.104594 0.132299
v 0.265065 -0.121190 0.132280
v 0.265053 -0.121210 0.146961
v 0.269961 -0.137785 0.132260
v 0.284189 -0.150545 0.132254
v 0.284177 -0.150566 0.146936
v 0.298417 -0.163305 0.132248
v 0.314714 -0.173290 0.132247
v 0.314702 -0.173311 0.146929
v 0.331010 -0.183275 0.132246
v 0.350734 -0.182868 0.132263
v 0.350722 -0.182888 0.146945
v 0.370459 -0.182460 0.132280
v 0.387054 -0.177564 0.132300
v 0.387042 -0.177584 0.146982
v 0.403650 -0.172667 0.132320
v 0.416410 -0.158439 0.132351
v 0.416398 -0.158459 0.147033
v 0.429170 -0.144211 0.132381
v 0.439155 -0.127915 0.132412
v 0.439143 -0.127935 0.147094
v 0.449140 -0.111618 0.132443
v 0.449086 -0.094316 0.132467
v 0.449074 -0.094336 0.147149
v 0.449032 -0.077013 0.132491
v 0.443782 -0.057996 0.132513
v 0.443770 -0.058016 0.147195
v 0.438532 -0.038979 0.132535
v 0.424303 -0.026219 0.132541
v 0.424291 -0.026239 0.147224
v 0.410075 -0.013458 0.132548
v 0.393779 -0.003473 0.132548
v 0.393767 -0.003494 0.147230
v 0.377483 0.006512 0.132549
v 0.360180 0.006458 0.132535
v 0.360168 0.006437 0.147217
v -0.085609 -0.192166 0.117214
v -0.110368 -0.242768 0.117124
v -0.106395 -0.185309 0.117207
v -0.104297 -0.199878 0.146552
v -0.053695 -0.224637 0.146558
v -0.091891 -0.183229 0.146585
v -0.106568 -0.133421 0.131961
v -0.118321 -0.137610 0.131946
v -0.118333 -0.137631 0.146628
v -0.130074 -0.141799 0.131930
v -0.136278 -0.150124 0.131914
v -0.136290 -0.150145 0.146596
v -0.142481 -0.158450 0.131897
v -0.148684 -0.166774 0.131880
v -0.148696 -0.166795 0.146563
v -0.154887 -0.175099 0.131864
v -0.155541 -0.187559 0.131846
v -0.155553 -0.187579 0.146528
v -0.156194 -0.200019 0.131828
v -0.152005 -0.211772 0.131815
v -0.152017 -0.211793 0.146497
v -0.147815 -0.223525 0.131802
v -0.139490 -0.229729 0.131800
v -0.139502 -0.229749 0.146482
v -0.131166 -0.235932 0.131798
v -0.122841 -0.242135 0.131796
v -0.122853 -0.242156 0.146479
v -0.114516 -0.248338 0.131795
v -0.102055 -0.248992 0.131804
v -0.102067 -0.249012 0.146486
v -0.089595 -0.249645 0.131813
v -0.077842 -0.245456 0.131828
v -0.077854 -0.245476 0.146510
v -0.066089 -0.241266 0.131843
v -0.059886 -0.232942 0.131860
v -0.059898 -0.232962 0.146542
v -0.053683 -0.224617 0.131877
v -0.047480 -0.216292 0.131893
v -0.047492 -0.216312 0.146575
v -0.041276 -0.207967 0.131910
v -0.040623 -0.195506 0.131928
v -0.040635 -0.195527 0.146610
v -0.039969 -0.183046 0.131946
v -0.044159 -0.171293 0.131959
v -0.044171 -0.171314 0.146640
v -0.048348 -0.159540 0.131972
v -0.056673 -0.153337 0.131974
v -0.056685 -0.153358 0.146655
v -0.064998 -0.147134 0.131975
v -0.073323 -0.140931 0.131978
v -0.073335 -0.140951 0.146660
v -0.081648 -0.134727 0.131980
v -0.094108 -0.134074 0.131970
v -0.094120 -0.134095 0.146653
v 0.467384 0.306767 -0.072509
v 0.465884 0.316306 0.032725
v 0.468061 0.301874 -0.035810
v 0.204735 0.275699 0.030009
v 0.204823 0.275849 -0.077660
v 0.205824 0.268483 -0.004259
v 0.340951 0.258746 -0.165666
v 0.339880 0.265994 -0.153422
v 0.470631 0.285088 -0.153289
v 0.338809 0.273241 -0.141177
v 0.337736 0.280484 -0.126486
v 0.468488 0.299579 -0.126353
v 0.336663 0.287727 -0.111794
v 0.336296 0.290125 -0.094662
v 0.467048 0.309220 -0.094529
v 0.335929 0.292523 -0.077530
v 0.335208 0.297341 -0.060395
v 0.465960 0.316436 -0.060262
v 0.334486 0.302160 -0.043260
v 0.334471 0.302132 -0.023683
v 0.465223 0.321227 -0.023551
v 0.334455 0.302105 -0.004107
v 0.334439 0.302078 0.015469
v 0.465191 0.321172 0.015602
v 0.334423 0.302050 0.035045
v 0.335116 0.297184 0.052168
v 0.465868 0.316279 0.052301
v 0.335809 0.292318 0.069291
v 0.336149 0.289873 0.086417
v 0.466901 0.308967 0.086550
v 0.336488 0.287427 0.103543
v 0.337537 0.280143 0.118215
v 0.468289 0.299237 0.118349
v 0.338587 0.272858 0.132888
v 0.339637 0.265577 0.145114
v 0.470389 0.284672 0.145247
v 0.340688 0.258296 0.157340
v 0.340819 0.258521 -0.004163
v 0.471571 0.277616 -0.004030
v 0.290871 -0.008292 -0.117138
v 0.290776 -0.008455 0.000318
v 0.306688 -0.117416 0.000179
v 0.006191 0.061419 -0.117272
v 0.022103 -0.047542 -0.117411
v -0.246665 -0.086792 -0.117685
v 0.274864 0.100505 0.000458
v 0.006095 0.061255 0.000184
v 0.006000 0.061091 0.117641
v 0.038015 -0.156502 -0.117551
v 0.037920 -0.156666 -0.000094
v -0.230848 -0.195916 -0.000367
v -0.262673 0.022005 -0.000089
v -0.246761 -0.086955 -0.000228
v -0.246856 -0.087119 0.117229
v 0.290681 -0.008619 0.117775
v 0.021912 -0.047869 0.117503
v 0.037825 -0.156829 0.117363
v 0.483655 0.094051 -0.116839
v 0.483560 0.093887 0.000618
v 0.510081 -0.087713 0.000386
v 0.355439 0.260800 -0.116711
v 0.381959 0.079199 -0.116943
v 0.280263 0.064348 -0.117046
v 0.457040 0.275487 0.000849
v 0.355344 0.260636 0.000746
v 0.355248 0.260472 0.118203
v 0.408480 -0.102401 -0.117174
v 0.408384 -0.102564 0.000283
v 0.253647 0.245785 0.000643
v 0.280168 0.064185 0.000411
v 0.280073 0.064021 0.117868
v 0.483465 0.093724 0.118075
v 0.381769 0.078872 0.117971
v 0.408289 -0.102728 0.117740
v -0.169505 0.332377 -0.006921
v -0.210685 0.326335 0.015060
v -0.162253 0.333417 0.007768
v -0.127084 0.041797 0.007391
v -0.168229 0.035816 -0.014674
v -0.119809 0.042878 -0.007284
v -0.108544 0.304132 0.034688
v -0.125945 0.338701 0.022488
v -0.113392 0.303414 0.042025
v -0.127926 0.301282 0.049351
v -0.138061 0.336916 0.034710
v -0.135195 0.300215 0.054237
v -0.152146 0.297736 0.056667
v -0.155017 0.334430 0.042034
v -0.161833 0.296318 0.059105
v -0.173488 0.257506 0.071276
v -0.173938 0.294554 0.056645
v -0.188464 0.292435 0.054183
v -0.202536 0.253276 0.061459
v -0.195723 0.291381 0.049282
v -0.210245 0.289270 0.041926
v -0.226734 0.249768 0.041858
v -0.215082 0.288573 0.034580
v -0.224758 0.287176 0.022335
v -0.238819 0.248037 0.014928
v -0.227174 0.286832 0.014992
v -0.229583 0.286499 0.000307
v -0.227150 0.286873 -0.014372
v -0.215510 0.325658 -0.006968
v -0.224722 0.287237 -0.021711
v -0.215027 0.288669 -0.033936
v -0.208234 0.326739 -0.021643
v -0.210179 0.289386 -0.041272
v -0.195645 0.291518 -0.048599
v -0.196118 0.328524 -0.033866
v -0.188376 0.292585 -0.053486
v -0.173846 0.294710 -0.055918
v -0.176741 0.331364 -0.041187
v -0.161738 0.296482 -0.058352
v -0.141895 0.262301 -0.070619
v -0.152054 0.297893 -0.055895
v -0.135107 0.300365 -0.053431
v -0.110426 0.266884 -0.060799
v -0.127847 0.301419 -0.048530
v -0.113324 0.303530 -0.041174
v -0.086228 0.270393 -0.041198
v -0.108488 0.304227 -0.033828
v -0.098813 0.305624 -0.021583
v -0.074144 0.272123 -0.014269
v -0.096397 0.305968 -0.014239
v -0.093988 0.306301 0.000445
v -0.096421 0.305927 0.015125
v -0.118669 0.339782 0.007813
v -0.098849 0.305563 0.022463
v -0.104728 0.193421 0.022302
v -0.097936 0.231492 0.034596
v -0.102784 0.230774 0.041932
v -0.116845 0.191636 0.034525
v -0.117318 0.228642 0.049258
v -0.124586 0.227575 0.054145
v -0.133800 0.189150 0.041849
v -0.141538 0.225096 0.056575
v -0.151225 0.223678 0.059012
v -0.163330 0.221914 0.056553
v -0.177855 0.219796 0.054091
v -0.185115 0.218742 0.049190
v -0.199637 0.216630 0.041834
v -0.204474 0.215933 0.034488
v -0.214150 0.214536 0.022243
v -0.216565 0.214192 0.014899
v -0.218975 0.213859 0.000215
v -0.194294 0.180378 -0.007153
v -0.216541 0.214233 -0.014465
v -0.214114 0.214597 -0.021804
v -0.187018 0.181460 -0.021828
v -0.204419 0.216029 -0.034029
v -0.199571 0.216746 -0.041365
v -0.174901 0.183245 -0.034051
v -0.185036 0.218878 -0.048692
v -0.177768 0.219946 -0.053578
v -0.155525 0.186084 -0.041372
v -0.163238 0.222071 -0.056010
v -0.151129 0.223842 -0.058445
v -0.141446 0.225253 -0.055988
v -0.124499 0.227725 -0.053524
v -0.117238 0.228779 -0.048622
v -0.102716 0.230890 -0.041266
v -0.097880 0.231587 -0.033920
v -0.088205 0.232985 -0.021676
v -0.085789 0.233328 -0.014332
v -0.083380 0.233661 0.000352
v -0.097453 0.194502 0.007627
v -0.085813 0.233287 0.015032
v -0.088241 0.232923 0.022370
v -0.083512 0.048141 0.022117
v -0.094120 0.120781 0.022209
v -0.098969 0.120064 0.029545
v -0.095629 0.046356 0.034339
v -0.106237 0.118996 0.034432
v -0.113505 0.117928 0.039319
v -0.112584 0.043870 0.041664
v -0.123192 0.116510 0.041756
v -0.132880 0.115093 0.044193
v -0.134376 0.040688 0.041641
v -0.144984 0.113328 0.041734
v -0.157089 0.111563 0.039274
v -0.153740 0.037869 0.034280
v -0.164349 0.110509 0.034373
v -0.171608 0.109455 0.029472
v -0.165837 0.036119 0.022033
v -0.176445 0.108758 0.022125
v -0.181282 0.108061 0.014780
v -0.173090 0.035078 0.007344
v -0.183698 0.107718 0.007436
v -0.186113 0.107375 0.000093
v -0.173078 0.035099 -0.007338
v -0.183686 0.107738 -0.007246
v -0.181258 0.108102 -0.014585
v -0.165802 0.036180 -0.022013
v -0.176410 0.108820 -0.021921
v -0.171562 0.109537 -0.029256
v -0.153685 0.037965 -0.034236
v -0.164293 0.110605 -0.034143
v -0.157025 0.111672 -0.039030
v -0.134308 0.040804 -0.041557
v -0.144916 0.113444 -0.041465
v -0.132808 0.115215 -0.043900
v -0.112516 0.043986 -0.041535
v -0.123124 0.116626 -0.041443
v -0.113441 0.118037 -0.038986
v -0.095573 0.046451 -0.034177
v -0.106181 0.119091 -0.034084
v -0.098921 0.120145 -0.029182
v -0.083476 0.048202 -0.021929
v -0.094084 0.120842 -0.021837
v -0.089248 0.121539 -0.014491
v -0.076224 0.049243 -0.007240
v -0.086832 0.121883 -0.007148
v -0.084417 0.122226 0.000196
v -0.076236 0.049222 0.007442
v -0.086844 0.121862 0.007535
v -0.089272 0.121498 0.014873
v -0.279531 0.002291 -0.046623
v -0.281658 0.016809 -0.039263
v -0.283436 0.028899 -0.027013
v -0.284511 0.036139 -0.009874
v -0.284527 0.036112 0.009701
v -0.283480 0.028823 0.026822
v -0.281722 0.016700 0.039041
v -0.279606 0.002162 0.046363
v -0.277484 -0.012366 0.046345
v -0.275357 -0.026884 0.038986
v -0.273579 -0.038974 0.026735
v -0.272504 -0.046214 0.009597
v -0.272489 -0.046187 -0.009979
v -0.273535 -0.038899 -0.027099
v -0.275293 -0.026775 -0.039319
v -0.277409 -0.012237 -0.046641
v -0.274592 -0.031628 -0.031984
v -0.273218 -0.041381 0.016944
v -0.283826 0.031258 0.017037
v -0.282372 0.021641 -0.031916
v -0.275651 -0.024360 -0.034422
v -0.274282 -0.034125 0.021847
v -0.282769 0.023988 0.021921
v -0.281309 0.014381 -0.034372
v -0.274628 -0.031689 0.012062
v -0.282407 0.021580 0.012130
v -0.309652 0.005306 -0.041749
v -0.313221 0.029461 -0.000119
v -0.303699 -0.035960 0.031608
v -0.302246 -0.045577 -0.017344
v -0.308593 -0.001962 -0.039312
v -0.312520 0.024607 0.007216
v -0.304762 -0.028699 0.034065
v -0.303303 -0.038306 -0.022229
v -0.311807 0.019775 -0.000131
v -0.304401 -0.031107 0.024274
v -0.261167 0.012476 -0.112664
v -0.266485 0.048772 -0.095488
v -0.270401 0.075363 -0.063643
v -0.272556 0.089833 -0.022025
v -0.272591 0.089771 0.022021
v -0.270504 0.075185 0.063602
v -0.266640 0.048506 0.095380
v -0.261350 0.012163 0.112462
v -0.255692 -0.026579 0.112413
v -0.250374 -0.062875 0.095238
v -0.246458 -0.089465 0.063392
v -0.244303 -0.103935 0.021774
v -0.244267 -0.103874 -0.022272
v -0.246356 -0.089288 -0.063853
v -0.250219 -0.062609 -0.095630
v -0.255510 -0.026265 -0.112713
v -0.248821 -0.072322 -0.076066
v -0.245733 -0.094277 0.041363
v -0.271193 0.080059 0.041585
v -0.267916 0.058430 -0.075899
v -0.251646 -0.052944 -0.080936
v -0.248218 -0.077345 0.053620
v -0.268728 0.063092 0.053799
v -0.265083 0.039067 -0.080818
v -0.248908 -0.072472 0.031603
v -0.268003 0.058280 0.031769
v -0.283023 0.026580 -0.100426
v -0.291238 0.082130 -0.000028
v -0.268315 -0.075362 0.075629
v -0.265037 -0.096990 -0.041856
v -0.280198 0.007202 -0.095557
v -0.289839 0.072418 0.019536
v -0.271147 -0.055998 0.080547
v -0.267502 -0.080024 -0.054069
v -0.288408 0.062760 -0.000052
v -0.270422 -0.060810 0.058518
v -0.241457 -0.123275 -0.000273
v -0.246156 -0.242477 -0.147265
v 0.376679 -0.003179 -0.117062
v 0.444038 -0.074951 -0.117107
v 0.300688 -0.160182 -0.117342
v 0.269949 -0.068225 -0.117239
v 0.357661 -0.008430 -0.117084
v 0.434053 -0.091247 -0.117138
v 0.320413 -0.159775 -0.117326
v 0.282708 -0.053997 -0.117208
v 0.419825 -0.078487 -0.117132
v 0.315516 -0.143179 -0.117306
v 0.292309 -0.017936 -0.146515
v 0.282324 -0.034232 -0.146546
v 0.269564 -0.048460 -0.146576
v 0.265291 -0.120800 -0.146680
v 0.279519 -0.133561 -0.146686
v 0.284416 -0.150157 -0.146705
v 0.350961 -0.182479 -0.146697
v 0.387281 -0.177175 -0.146660
v 0.439381 -0.127526 -0.146549
v 0.439327 -0.110223 -0.146524
v 0.449312 -0.093927 -0.146494
v 0.424530 -0.025830 -0.146419
v 0.408234 -0.015845 -0.146418
v 0.394005 -0.003085 -0.146412
v 0.324087 0.001542 -0.146462
v 0.301341 -0.028982 -0.146523
v 0.295815 -0.143546 -0.146687
v 0.314940 -0.172902 -0.146712
v 0.416636 -0.158050 -0.146610
v 0.426567 -0.124451 -0.146555
v 0.390931 -0.015899 -0.146432
v 0.360407 0.006847 -0.146425
v 0.259987 -0.084481 -0.146634
v 0.295408 -0.123822 -0.146660
v 0.421317 -0.105434 -0.146532
v 0.444008 -0.057607 -0.146447
v -0.085581 -0.139930 -0.117627
v -0.044610 -0.183406 -0.117655
v -0.149135 -0.178887 -0.117733
v -0.097334 -0.144119 -0.117643
v -0.050813 -0.191730 -0.117671
v -0.118503 -0.236237 -0.117788
v -0.130963 -0.235584 -0.117798
v -0.142932 -0.170562 -0.117717
v -0.059138 -0.185527 -0.117669
v -0.122692 -0.224484 -0.117775
v -0.136051 -0.149736 -0.147047
v -0.142254 -0.158060 -0.147063
v -0.148458 -0.166386 -0.147080
v -0.151778 -0.211384 -0.147145
v -0.143454 -0.217587 -0.147147
v -0.139264 -0.229340 -0.147160
v -0.101829 -0.248603 -0.147156
v -0.077616 -0.245067 -0.147132
v -0.047253 -0.215903 -0.147066
v -0.046600 -0.203442 -0.147049
v -0.040396 -0.195118 -0.147032
v -0.056447 -0.152949 -0.146986
v -0.064772 -0.146745 -0.146984
v -0.073097 -0.140542 -0.146982
v -0.118095 -0.137221 -0.147015
v -0.130501 -0.153871 -0.147048
v -0.135128 -0.223790 -0.147149
v -0.122614 -0.241746 -0.147164
v -0.059660 -0.232552 -0.147100
v -0.052803 -0.211768 -0.147065
v -0.077232 -0.146092 -0.146994
v -0.093882 -0.133685 -0.146990
v -0.155314 -0.187170 -0.147114
v -0.134475 -0.211330 -0.147131
v -0.056992 -0.200015 -0.147052
v -0.043932 -0.170905 -0.147001
v 0.323872 0.001174 0.117815
v 0.311112 -0.013054 0.117785
v 0.292095 -0.018304 0.117762
v 0.259773 -0.084849 0.117644
v 0.264669 -0.101445 0.117625
v 0.265077 -0.121169 0.117598
v 0.314725 -0.173270 0.117565
v 0.350746 -0.182847 0.117581
v 0.416422 -0.158418 0.117669
v 0.426407 -0.142122 0.117699
v 0.439167 -0.127894 0.117730
v 0.443794 -0.057975 0.117831
v 0.429566 -0.045215 0.117837
v 0.424315 -0.026198 0.117859
v 0.360192 0.006478 0.117852
v 0.328415 -0.013000 0.117799
v 0.278897 -0.114205 0.117619
v 0.284201 -0.150525 0.117572
v 0.387066 -0.177543 0.117618
v 0.409811 -0.147019 0.117679
v 0.413269 -0.035230 0.117838
v 0.393791 -0.003453 0.117866
v 0.269350 -0.048829 0.117702
v 0.288882 -0.097909 0.117649
v 0.409757 -0.129716 0.117703
v 0.449098 -0.094295 0.117785
v 0.341151 0.001187 0.147194
v 0.429542 -0.045256 0.147201
v 0.334426 -0.172903 0.146946
v 0.264645 -0.101486 0.146989
v 0.328391 -0.013041 0.147164
v 0.429595 -0.062559 0.147177
v 0.351022 -0.168007 0.146966
v 0.274630 -0.085190 0.147019
v 0.413299 -0.052574 0.147178
v 0.336793 -0.155247 0.146972
v -0.118309 -0.137590 0.117264
v -0.124513 -0.145915 0.117247
v -0.136266 -0.150104 0.117232
v -0.155529 -0.187539 0.117164
v -0.151339 -0.199292 0.117151
v -0.151993 -0.211752 0.117133
v -0.122829 -0.242115 0.117114
v -0.102043 -0.248971 0.117122
v -0.059874 -0.232921 0.117178
v -0.053671 -0.224596 0.117195
v -0.047468 -0.216271 0.117212
v -0.044147 -0.171273 0.117277
v -0.052472 -0.165070 0.117279
v -0.056661 -0.153317 0.117292
v -0.094096 -0.134054 0.117288
v -0.112053 -0.146568 0.117256
v -0.143015 -0.205495 0.117149
v -0.139478 -0.229708 0.117118
v -0.077830 -0.245435 0.117146
v -0.065424 -0.228785 0.117180
v -0.060797 -0.158866 0.117281
v -0.073311 -0.140910 0.117296
v -0.148672 -0.166754 0.117198
v -0.136812 -0.197171 0.117166
v -0.064770 -0.216325 0.117198
v -0.040611 -0.195486 0.117246
v -0.105873 -0.138284 0.146637
v -0.052496 -0.165111 0.146642
v -0.110392 -0.242809 0.146488
v -0.151363 -0.199332 0.146515
v -0.112076 -0.146609 0.146621
v -0.053149 -0.177571 0.146624
v -0.098639 -0.238620 0.146503
v -0.145160 -0.191008 0.146532
v -0.061474 -0.171367 0.146627
v -0.106964 -0.232416 0.146505
v 0.469340 0.291956 0.130574
v 0.466327 0.314038 -0.077394
v 0.470500 0.284863 0.008214
v 0.469001 0.294402 0.113448
v 0.466311 0.314011 -0.057818
v 0.210068 0.239427 -0.004296
v 0.208997 0.246674 0.007949
v 0.209128 0.246899 -0.153554
v 0.205544 0.271030 -0.094795
v 0.204455 0.278247 -0.060528
v 0.203686 0.282983 0.015336
v 0.204379 0.278117 0.032459
v 0.204364 0.278090 0.052035
v 0.206785 0.261048 0.118083
v 0.207836 0.253767 0.130309
v 0.208886 0.246483 0.144981
v 0.207924 0.253917 0.022640
v 0.206984 0.261390 -0.126618
v 0.203718 0.283038 -0.023816
v 0.204395 0.278144 0.012883
v 0.205396 0.270778 0.086284
v -0.123517 0.339064 0.015149
v -0.167121 0.332665 0.039574
v -0.176809 0.331248 0.042012
v -0.208270 0.326678 0.022404
v -0.215522 0.325638 0.007714
v -0.200966 0.327807 -0.026530
v -0.154949 0.334546 -0.041165
v -0.147689 0.335600 -0.036263
v -0.138005 0.337011 -0.033806
v -0.118657 0.339802 -0.006869
v -0.125933 0.338721 0.007805
v -0.174381 0.331611 0.034673
v -0.196173 0.328429 0.034651
v -0.203394 0.327443 -0.019191
v -0.142852 0.336297 -0.028918
v -0.125909 0.338762 -0.021559
v -0.167113 0.332679 0.029787
v -0.191285 0.329215 -0.021626
v -0.081061 0.048546 -0.014586
v -0.124625 0.042215 -0.039101
v -0.158577 0.037172 0.026934
v -0.105316 0.044938 0.036777
v -0.083488 0.048182 -0.007247
v -0.131893 0.041147 -0.034214
v -0.160993 0.036829 0.019591
v -0.100468 0.045656 0.029441
v -0.124633 0.042201 -0.029312
v -0.148888 0.038594 0.022051
v -0.086296 0.270277 0.042000
v -0.110526 0.266713 0.061552
v -0.142011 0.262103 0.071308
v -0.238795 0.248078 -0.014436
v -0.226666 0.249884 -0.041341
v -0.202437 0.253447 -0.060893
v -0.173373 0.257704 -0.070651
v -0.074168 0.272082 0.015095
v -0.155592 0.185968 0.041827
v -0.174957 0.183149 0.034466
v -0.187054 0.181398 0.022219
v -0.194306 0.180358 0.007529
v -0.133733 0.189266 -0.041350
v -0.116789 0.191731 -0.033991
v -0.104692 0.193482 -0.021744
v -0.097441 0.194522 -0.007055
f 1 310 312
f 310 2 311
f 311 3 312
f 310 311 312
f 2 313 315
f 313 4 314
f 314 5 315
f 313 314 315
f 4 316 318
f 316 6 317
f 317 7 318
f 316 317 318
f 6 319 321
f 319 8 320
f 320 9 321
f 319 320 321
f 8 322 324
f 322 10 323
f 323 11 324
f 322 323 324
f 10 325 327
f 325 12 326
f 326 13 327
f 325 326 327
f 12 328 330
f 328 14 329
f 329 15 330
f 328 329 330
f 14 331 333
f 331 16 332
f 332 17 333
f 331 332 333
f 16 334 336
f 334 18 335
f 335 19 336
f 334 335 336
f 18 337 339
f 337 20 338
f 338 21 339
f 337 338 339
f 20 340 342
f 340 22 341
f 341 23 342
f 340 341 342
f 22 343 345
f 343 24 344
f 344 25 345
f 343 344 345
f 24 346 348
f 346 26 347
f 347 27 348
f 346 347 348
f 26 349 351
f 349 28 350
f 350 29 351
f 349 350 351
f 28 352 354
f 352 30 353
f 353 31 354
f 352 353 354
f 30 355 357
f 355 1 356
f 356 32 357
f 355 356 357
f 3 358 360
f 358 17 359
f 359 21 360
f 358 359 360
f 30 361 363
f 361 16 362
f 362 12 363
f 361 362 363
f 33 364 366
f 364 34 365
f 365 35 366
f 364 365 366
f 36 367 369
f 367 37 368
f 368 35 369
f 367 368 369
f 38 370 372
f 370 39 371
f 371 35 372
f 370 371 372
f 34 373 375
f 373 40 374
f 374 36 375
f 373 374 375
f 37 376 378
f 376 40 377
f 377 38 378
f 376 377 378
f 39 379 381
f 379 40 380
f 380 33 381
f 379 380 381
f 41 382 384
f 382 42 383
f 383 43 384
f 382 383 384
f 42 385 387
f 385 44 386
f 386 45 387
f 385 386 387
f 44 388 390
f 388 46 389
f 389 47 390
f 388 389 390
f 46 391 393
f 391 48 392
f 392 49 393
f 391 392 393
f 48 394 396
f 394 50 395
f 395 51 396
f 394 395 396
f 50 397 399
f 397 52 398
f 398 53 399
f 397 398 399
f 52 400 402
f 400 54 401
f 401 55 402
f 400 401 402
f 54 403 405
f 403 56 404
f 404 57 405
f 403 404 405
f 56 406 408
f 406 58 407
f 407 59 408
f 406 407 408
f 58 409 411
f 409 60 410
f 410 61 411
f 409 410 411
f 60 412 414
f 412 62 413
f 413 63 414
f 412 413 414
f 62 415 417
f 415 64 416
f 416 65 417
f 415 416 417
f 64 418 420
f 418 66 419
f 419 67 420
f 418 419 420
f 66 421 423
f 421 68 422
f 422 69 423
f 421 422 423
f 68 424 426
f 424 70 425
f 425 71 426
f 424 425 426
f 70 427 429
f 427 41 428
f 428 72 429
f 427 428 429
f 43 430 432
f 430 57 431
f 431 61 432
f 430 431 432
f 70 433 435
f 433 56 434
f 434 52 435
f 433 434 435
f 73 436 438
f 436 74 437
f 437 75 438
f 436 437 438
f 76 439 441
f 439 77 440
f 440 74 441
f 439 440 441
f 73 442 436
f 442 76 441
f 441 74 436
f 442 441 436
f 73 443 442
f 443 78 444
f 444 76 442
f 443 444 442
f 76 445 439
f 445 79 446
f 446 77 439
f 445 446 439
f 80 447 449
f 447 78 448
f 448 75 449
f 447 448 449
f 81 450 452
f 450 79 451
f 451 80 452
f 450 451 452
f 75 437 454
f 437 74 453
f 453 81 454
f 437 453 454
f 82 455 457
f 455 83 456
f 456 84 457
f 455 456 457
f 85 458 460
f 458 86 459
f 459 87 460
f 458 459 460
f 82 461 463
f 461 88 462
f 462 89 463
f 461 462 463
f 90 464 466
f 464 82 465
f 465 91 466
f 464 465 466
f 92 467 469
f 467 90 468
f 468 93 469
f 467 468 469
f 94 470 472
f 470 92 471
f 471 95 472
f 470 471 472
f 96 473 475
f 473 94 474
f 474 97 475
f 473 474 475
f 98 476 478
f 476 96 477
f 477 99 478
f 476 477 478
f 100 479 481
f 479 98 480
f 480 87 481
f 479 480 481
f 83 482 484
f 482 100 483
f 483 101 484
f 482 483 484
f 102 485 487
f 485 83 486
f 486 86 487
f 485 486 487
f 84 488 490
f 488 102 489
f 489 103 490
f 488 489 490
f 104 491 493
f 491 84 492
f 492 105 493
f 491 492 493
f 106 494 496
f 494 104 495
f 495 107 496
f 494 495 496
f 108 497 499
f 497 106 498
f 498 109 499
f 497 498 499
f 110 500 502
f 500 108 501
f 501 111 502
f 500 501 502
f 112 503 505
f 503 110 504
f 504 113 505
f 503 504 505
f 88 506 508
f 506 112 507
f 507 85 508
f 506 507 508
f 114 509 511
f 509 115 510
f 510 116 511
f 509 510 511
f 117 512 514
f 512 118 513
f 513 119 514
f 512 513 514
f 114 515 517
f 515 120 516
f 516 121 517
f 515 516 517
f 122 518 520
f 518 114 519
f 519 123 520
f 518 519 520
f 124 521 523
f 521 122 522
f 522 125 523
f 521 522 523
f 126 524 526
f 524 124 525
f 525 127 526
f 524 525 526
f 128 527 529
f 527 126 528
f 528 129 529
f 527 528 529
f 130 530 532
f 530 128 531
f 531 131 532
f 530 531 532
f 132 533 535
f 533 130 534
f 534 119 535
f 533 534 535
f 115 536 538
f 536 132 537
f 537 133 538
f 536 537 538
f 134 539 541
f 539 115 540
f 540 118 541
f 539 540 541
f 116 542 544
f 542 134 543
f 543 135 544
f 542 543 544
f 136 545 547
f 545 116 546
f 546 137 547
f 545 546 547
f 138 548 550
f 548 136 549
f 549 139 550
f 548 549 550
f 140 551 553
f 551 138 552
f 552 141 553
f 551 552 553
f 142 554 556
f 554 140 555
f 555 143 556
f 554 555 556
f 144 557 559
f 557 142 558
f 558 145 559
f 557 558 559
f 120 560 562
f 560 144 561
f 561 117 562
f 560 561 562
f 146 563 565
f 563 147 564
f 564 148 565
f 563 564 565
f 149 566 568
f 566 150 567
f 567 151 568
f 566 567 568
f 152 569 571
f 569 153 570
f 570 154 571
f 569 570 571
f 154 572 574
f 572 155 573
f 573 149 574
f 572 573 574
f 149 575 577
f 575 156 576
f 576 157 577
f 575 576 577
f 157 578 580
f 578 158 579
f 579 159 580
f 578 579 580
f 159 581 583
f 581 160 582
f 582 161 583
f 581 582 583
f 161 584 586
f 584 162 585
f 585 163 586
f 584 585 586
f 163 587 589
f 587 148 588
f 588 164 589
f 587 588 589
f 164 590 592
f 590 165 591
f 591 166 592
f 590 591 592
f 166 593 595
f 593 147 594
f 594 150 595
f 593 594 595
f 150 596 598
f 596 167 597
f 597 168 598
f 596 597 598
f 168 599 601
f 599 169 600
f 600 151 601
f 599 600 601
f 151 602 604
f 602 170 603
f 603 171 604
f 602 603 604
f 171 605 607
f 605 172 606
f 606 173 607
f 605 606 607
f 173 608 610
f 608 174 609
f 609 175 610
f 608 609 610
f 175 611 613
f 611 176 612
f 612 177 613
f 611 612 613
f 177 614 616
f 614 146 615
f 615 152 616
f 614 615 616
f 178 617 619
f 617 179 618
f 618 180 619
f 617 618 619
f 181 620 622
f 620 182 621
f 621 183 622
f 620 621 622
f 184 623 625
f 623 185 624
f 624 186 625
f 623 624 625
f 186 626 628
f 626 187 627
f 627 181 628
f 626 627 628
f 181 629 631
f 629 188 630
f 630 189 631
f 629 630 631
f 189 632 634
f 632 190 633
f 633 191 634
f 632 633 634
f 191 635 637
f 635 192 636
f 636 193 637
f 635 636 637
f 193 638 640
f 638 194 639
f 639 195 640
f 638 639 640
f 195 641 643
f 641 180 642
f 642 196 643
f 641 642 643
f 196 644 646
f 644 197 645
f 645 198 646
f 644 645 646
f 198 647 649
f 647 179 648
f 648 182 649
f 647 648 649
f 182 650 652
f 650 199 651
f 651 200 652
f 650 651 652
f 200 653 655
f 653 201 654
f 654 183 655
f 653 654 655
f 183 656 658
f 656 202 657
f 657 203 658
f 656 657 658
f 203 659 661
f 659 204 660
f 660 205 661
f 659 660 661
f 205 662 664
f 662 206 663
f 663 207 664
f 662 663 664
f 207 665 667
f 665 208 666
f 666 209 667
f 665 666 667
f 209 668 670
f 668 178 669
f 669 184 670
f 668 669 670
f 210 671 673
f 671 211 672
f 672 212 673
f 671 672 673
f 213 674 676
f 674 214 675
f 675 215 676
f 674 675 676
f 216 677 679
f 677 217 678
f 678 210 679
f 677 678 679
f 210 680 682
f 680 218 681
f 681 219 682
f 680 681 682
f 219 683 685
f 683 215 684
f 684 220 685
f 683 684 685
f 220 686 688
f 686 221 687
f 687 222 688
f 686 687 688
f 222 689 691
f 689 214 690
f 690 211 691
f 689 690 691
f 211 692 694
f 692 223 693
f 693 224 694
f 692 693 694
f 224 695 697
f 695 225 696
f 696 212 697
f 695 696 697
f 212 698 700
f 698 226 699
f 699 227 700
f 698 699 700
f 227 701 703
f 701 213 702
f 702 228 703
f 701 702 703
f 228 704 706
f 704 229 705
f 705 230 706
f 704 705 706
f 230 707 709
f 707 231 708
f 708 216 709
f 707 708 709
f 710 233 711
f 710 711 712
f 235 713 715
f 713 233 714
f 714 236 715
f 713 714 715
f 237 716 718
f 716 233 717
f 717 238 718
f 716 717 718
f 236 719 721
f 719 232 720
f 720 239 721
f 719 720 721
f 238 722 724
f 722 235 723
f 723 239 724
f 722 723 724
f 234 725 727
f 725 237 726
f 726 239 727
f 725 726 727
f 240 728 730
f 728 241 729
f 729 242 730
f 728 729 730
f 243 731 733
f 731 241 732
f 732 232 733
f 731 732 733
f 244 734 736
f 734 241 735
f 735 245 736
f 734 735 736
f 737 240 738
f 737 738 712
f 245 739 741
f 739 243 740
f 740 234 741
f 739 740 741
f 242 742 744
f 742 244 743
f 743 234 744
f 742 743 744
f 246 745 747
f 745 247 746
f 746 248 747
f 745 746 747
f 249 748 750
f 748 250 749
f 749 251 750
f 748 749 750
f 252 751 753
f 751 253 752
f 752 254 753
f 751 752 753
f 255 754 756
f 754 254 755
f 755 256 756
f 754 755 756
f 257 757 759
f 757 256 758
f 758 258 759
f 757 758 759
f 259 760 762
f 760 257 761
f 761 260 762
f 760 761 762
f 261 763 765
f 763 259 764
f 764 248 765
f 763 764 765
f 262 766 768
f 766 261 767
f 767 263 768
f 766 767 768
f 264 769 771
f 769 262 770
f 770 247 771
f 769 770 771
f 265 772 774
f 772 247 773
f 773 266 774
f 772 773 774
f 267 775 777
f 775 266 776
f 776 268 777
f 775 776 777
f 269 778 780
f 778 268 779
f 779 270 780
f 778 779 780
f 271 781 783
f 781 270 782
f 782 272 783
f 781 782 783
f 273 784 786
f 784 271 785
f 785 274 786
f 784 785 786
f 275 787 789
f 787 273 788
f 788 276 789
f 787 788 789
f 277 790 792
f 790 275 791
f 791 246 792
f 790 791 792
f 278 793 795
f 793 277 794
f 794 279 795
f 793 794 795
f 280 796 798
f 796 279 797
f 797 253 798
f 796 797 798
f 281 799 801
f 799 282 800
f 800 252 801
f 799 800 801
f 283 802 804
f 802 281 803
f 803 255 804
f 802 803 804
f 284 805 807
f 805 283 806
f 806 257 807
f 805 806 807
f 285 808 809
f 808 257 760
f 760 259 809
f 808 760 809
f 286 810 811
f 810 259 763
f 763 261 811
f 810 763 811
f 287 812 813
f 812 261 766
f 766 262 813
f 812 766 813
f 288 814 815
f 814 262 769
f 769 264 815
f 814 769 815
f 289 816 818
f 816 288 817
f 817 265 818
f 816 817 818
f 290 819 821
f 819 289 820
f 820 267 821
f 819 820 821
f 291 822 824
f 822 290 823
f 823 269 824
f 822 823 824
f 292 825 827
f 825 291 826
f 826 271 827
f 825 826 827
f 293 828 829
f 828 271 784
f 784 273 829
f 828 784 829
f 294 830 831
f 830 273 787
f 787 275 831
f 830 787 831
f 295 832 833
f 832 275 790
f 790 277 833
f 832 790 833
f 296 834 835
f 834 277 793
f 793 278 835
f 834 793 835
f 282 836 838
f 836 296 837
f 837 280 838
f 836 837 838
f 297 839 841
f 839 249 840
f 840 281 841
f 839 840 841
f 298 842 844
f 842 297 843
f 843 283 844
f 842 843 844
f 299 845 847
f 845 298 846
f 846 284 847
f 845 846 847
f 300 848 850
f 848 299 849
f 849 285 850
f 848 849 850
f 301 851 853
f 851 300 852
f 852 286 853
f 851 852 853
f 302 854 856
f 854 301 855
f 855 287 856
f 854 855 856
f 250 857 859
f 857 302 858
f 858 288 859
f 857 858 859
f 303 860 862
f 860 250 861
f 861 289 862
f 860 861 862
f 251 863 865
f 863 303 864
f 864 290 865
f 863 864 865
f 304 866 868
f 866 251 867
f 867 291 868
f 866 867 868
f 305 869 871
f 869 304 870
f 870 292 871
f 869 870 871
f 306 872 874
f 872 305 873
f 873 293 874
f 872 873 874
f 307 875 877
f 875 306 876
f 876 294 877
f 875 876 877
f 308 878 880
f 878 307 879
f 879 295 880
f 878 879 880
f 309 881 883
f 881 308 882
f 882 296 883
f 881 882 883
f 249 884 886
f 884 309 885
f 885 282 886
f 884 885 886
f 5 887 315
f 887 3 311
f 311 2 315
f 887 311 315
f 7 888 318
f 888 5 314
f 314 4 318
f 888 314 318
f 9 889 321
f 889 7 317
f 317 6 321
f 889 317 321
f 11 890 324
f 890 9 320
f 320 8 324
f 890 320 324
f 13 891 327
f 891 11 323
f 323 10 327
f 891 323 327
f 15 892 330
f 892 13 326
f 326 12 330
f 892 326 330
f 17 893 333
f 893 15 329
f 329 14 333
f 893 329 333
f 19 894 336
f 894 17 332
f 332 16 336
f 894 332 336
f 21 895 339
f 895 19 335
f 335 18 339
f 895 335 339
f 23 896 342
f 896 21 338
f 338 20 342
f 896 338 342
f 25 897 345
f 897 23 341
f 341 22 345
f 897 341 345
f 27 898 348
f 898 25 344
f 344 24 348
f 898 344 348
f 29 899 351
f 899 27 347
f 347 26 351
f 899 347 351
f 31 900 354
f 900 29 350
f 350 28 354
f 900 350 354
f 32 901 357
f 901 31 353
f 353 30 357
f 901 353 357
f 3 902 312
f 902 32 356
f 356 1 312
f 902 356 312
f 31 901 900
f 901 32 903
f 903 29 900
f 901 903 900
f 25 898 897
f 898 27 904
f 904 23 897
f 898 904 897
f 19 895 894
f 895 21 359
f 359 17 894
f 895 359 894
f 13 892 891
f 892 15 905
f 905 11 891
f 892 905 891
f 7 889 888
f 889 9 906
f 906 5 888
f 889 906 888
f 32 902 903
f 902 3 907
f 907 29 903
f 902 907 903
f 23 904 896
f 904 27 908
f 908 21 896
f 904 908 896
f 15 893 905
f 893 17 909
f 909 11 905
f 893 909 905
f 5 906 887
f 906 9 910
f 910 3 887
f 906 910 887
f 27 899 908
f 899 29 911
f 911 21 908
f 899 911 908
f 11 909 890
f 909 17 912
f 912 9 890
f 909 912 890
f 29 907 911
f 907 3 360
f 360 21 911
f 907 360 911
f 9 912 910
f 912 17 358
f 358 3 910
f 912 358 910
f 2 310 313
f 310 1 913
f 913 4 313
f 310 913 313
f 8 319 322
f 319 6 914
f 914 10 322
f 319 914 322
f 14 328 331
f 328 12 362
f 362 16 331
f 328 362 331
f 20 337 340
f 337 18 915
f 915 22 340
f 337 915 340
f 26 346 349
f 346 24 916
f 916 28 349
f 346 916 349
f 1 355 913
f 355 30 917
f 917 4 913
f 355 917 913
f 10 914 325
f 914 6 918
f 918 12 325
f 914 918 325
f 18 334 915
f 334 16 919
f 919 22 915
f 334 919 915
f 28 916 352
f 916 24 920
f 920 30 352
f 916 920 352
f 6 316 918
f 316 4 921
f 921 12 918
f 316 921 918
f 22 919 343
f 919 16 922
f 922 24 343
f 919 922 343
f 4 917 921
f 917 30 363
f 363 12 921
f 917 363 921
f 24 922 920
f 922 16 361
f 361 30 920
f 922 361 920
f 36 369 375
f 369 35 365
f 365 34 375
f 369 365 375
f 38 372 378
f 372 35 368
f 368 37 378
f 372 368 378
f 33 366 381
f 366 35 371
f 371 39 381
f 366 371 381
f 37 367 376
f 367 36 374
f 374 40 376
f 367 374 376
f 39 370 379
f 370 38 377
f 377 40 379
f 370 377 379
f 34 364 373
f 364 33 380
f 380 40 373
f 364 380 373
f 45 923 387
f 923 43 383
f 383 42 387
f 923 383 387
f 47 924 390
f 924 45 386
f 386 44 390
f 924 386 390
f 49 925 393
f 925 47 389
f 389 46 393
f 925 389 393
f 51 926 396
f 926 49 392
f 392 48 396
f 926 392 396
f 53 927 399
f 927 51 395
f 395 50 399
f 927 395 399
f 55 928 402
f 928 53 398
f 398 52 402
f 928 398 402
f 57 929 405
f 929 55 401
f 401 54 405
f 929 401 405
f 59 930 408
f 930 57 404
f 404 56 408
f 930 404 408
f 61 931 411
f 931 59 407
f 407 58 411
f 931 407 411
f 63 932 414
f 932 61 410
f 410 60 414
f 932 410 414
f 65 933 417
f 933 63 413
f 413 62 417
f 933 413 417
f 67 934 420
f 934 65 416
f 416 64 420
f 934 416 420
f 69 935 423
f 935 67 419
f 419 66 423
f 935 419 423
f 71 936 426
f 936 69 422
f 422 68 426
f 936 422 426
f 72 937 429
f 937 71 425
f 425 70 429
f 937 425 429
f 43 938 384
f 938 72 428
f 428 41 384
f 938 428 384
f 71 937 936
f 937 72 939
f 939 69 936
f 937 939 936
f 65 934 933
f 934 67 940
f 940 63 933
f 934 940 933
f 59 931 930
f 931 61 431
f 431 57 930
f 931 431 930
f 53 928 927
f 928 55 941
f 941 51 927
f 928 941 927
f 47 925 924
f 925 49 942
f 942 45 924
f 925 942 924
f 72 938 939
f 938 43 943
f 943 69 939
f 938 943 939
f 63 940 932
f 940 67 944
f 944 61 932
f 940 944 932
f 55 929 941
f 929 57 945
f 945 51 941
f 929 945 941
f 45 942 923
f 942 49 946
f 946 43 923
f 942 946 923
f 67 935 944
f 935 69 947
f 947 61 944
f 935 947 944
f 51 945 926
f 945 57 948
f 948 49 926
f 945 948 926
f 69 943 947
f 943 43 432
f 432 61 947
f 943 432 947
f 49 948 946
f 948 57 430
f 430 43 946
f 948 430 946
f 42 382 385
f 382 41 949
f 949 44 385
f 382 949 385
f 48 391 394
f 391 46 950
f 950 50 394
f 391 950 394
f 54 400 403
f 400 52 434
f 434 56 403
f 400 434 403
f 60 409 412
f 409 58 951
f 951 62 412
f 409 951 412
f 66 418 421
f 418 64 952
f 952 68 421
f 418 952 421
f 41 427 949
f 427 70 953
f 953 44 949
f 427 953 949
f 50 950 397
f 950 46 954
f 954 52 397
f 950 954 397
f 58 406 951
f 406 56 955
f 955 62 951
f 406 955 951
f 68 952 424
f 952 64 956
f 956 70 424
f 952 956 424
f 46 388 954
f 388 44 957
f 957 52 954
f 388 957 954
f 62 955 415
f 955 56 958
f 958 64 415
f 955 958 415
f 44 953 957
f 953 70 435
f 435 52 957
f 953 435 957
f 64 958 956
f 958 56 433
f 433 70 956
f 958 433 956
f 79 445 959
f 445 76 444
f 444 78 959
f 445 444 959
f 81 960 450
f 960 77 446
f 446 79 450
f 960 446 450
f 73 438 443
f 438 75 448
f 448 78 443
f 438 448 443
f 78 447 959
f 447 80 451
f 451 79 959
f 447 451 959
f 77 960 440
f 960 81 453
f 453 74 440
f 960 453 440
f 80 449 452
f 449 75 454
f 454 81 452
f 449 454 452
f 112 506 503
f 506 88 961
f 961 110 503
f 506 961 503
f 106 497 494
f 497 108 962
f 962 104 494
f 497 962 494
f 102 488 485
f 488 84 456
f 456 83 485
f 488 456 485
f 98 479 476
f 479 100 963
f 963 96 476
f 479 963 476
f 92 470 467
f 470 94 964
f 964 90 467
f 470 964 467
f 88 461 961
f 461 82 965
f 965 110 961
f 461 965 961
f 104 962 491
f 962 108 966
f 966 84 491
f 962 966 491
f 100 482 963
f 482 83 967
f 967 96 963
f 482 967 963
f 90 964 464
f 964 94 968
f 968 82 464
f 964 968 464
f 108 500 966
f 500 110 969
f 969 84 966
f 500 969 966
f 96 967 473
f 967 83 970
f 970 94 473
f 967 970 473
f 110 965 969
f 965 82 457
f 457 84 969
f 965 457 969
f 94 970 968
f 970 83 455
f 455 82 968
f 970 455 968
f 91 971 973
f 971 89 972
f 972 93 973
f 971 972 973
f 97 974 976
f 974 95 975
f 975 99 976
f 974 975 976
f 101 977 978
f 977 87 459
f 459 86 978
f 977 459 978
f 105 979 981
f 979 103 980
f 980 107 981
f 979 980 981
f 111 982 984
f 982 109 983
f 983 113 984
f 982 983 984
f 89 985 972
f 985 85 986
f 986 93 972
f 985 986 972
f 99 975 988
f 975 95 987
f 987 87 988
f 975 987 988
f 103 989 980
f 989 86 990
f 990 107 980
f 989 990 980
f 113 983 992
f 983 109 991
f 991 85 992
f 983 991 992
f 95 993 987
f 993 93 994
f 994 87 987
f 993 994 987
f 107 990 996
f 990 86 995
f 995 109 996
f 990 995 996
f 93 986 994
f 986 85 460
f 460 87 994
f 986 460 994
f 109 995 991
f 995 86 458
f 458 85 991
f 995 458 991
f 85 985 508
f 985 89 462
f 462 88 508
f 985 462 508
f 89 971 463
f 971 91 465
f 465 82 463
f 971 465 463
f 91 973 466
f 973 93 468
f 468 90 466
f 973 468 466
f 93 993 469
f 993 95 471
f 471 92 469
f 993 471 469
f 95 974 472
f 974 97 474
f 474 94 472
f 974 474 472
f 97 976 475
f 976 99 477
f 477 96 475
f 976 477 475
f 99 988 478
f 988 87 480
f 480 98 478
f 988 480 478
f 87 977 481
f 977 101 483
f 483 100 481
f 977 483 481
f 101 978 484
f 978 86 486
f 486 83 484
f 978 486 484
f 86 989 487
f 989 103 489
f 489 102 487
f 989 489 487
f 103 979 490
f 979 105 492
f 492 84 490
f 979 492 490
f 105 981 493
f 981 107 495
f 495 104 493
f 981 495 493
f 107 996 496
f 996 109 498
f 498 106 496
f 996 498 496
f 109 982 499
f 982 111 501
f 501 108 499
f 982 501 499
f 111 984 502
f 984 113 504
f 504 110 502
f 984 504 502
f 113 992 505
f 992 85 507
f 507 112 505
f 992 507 505
f 144 560 557
f 560 120 997
f 997 142 557
f 560 997 557
f 138 551 548
f 551 140 998
f 998 136 548
f 551 998 548
f 134 542 539
f 542 116 510
f 510 115 539
f 542 510 539
f 124 524 521
f 524 126 999
f 999 122 521
f 524 999 521
f 120 515 997
f 515 114 1000
f 1000 142 997
f 515 1000 997
f 136 998 545
f 998 140 1001
f 1001 116 545
f 998 1001 545
f 132 536 1003
f 536 115 1002
f 1002 128 1003
f 536 1002 1003
f 122 999 518
f 999 126 1004
f 1004 114 518
f 999 1004 518
f 140 554 1001
f 554 142 1005
f 1005 116 1001
f 554 1005 1001
f 128 1002 527
f 1002 115 1006
f 1006 126 527
f 1002 1006 527
f 142 1000 1005
f 1000 114 511
f 511 116 1005
f 1000 511 1005
f 126 1006 1004
f 1006 115 509
f 509 114 1004
f 1006 509 1004
f 123 1007 1009
f 1007 121 1008
f 1008 125 1009
f 1007 1008 1009
f 129 1010 1012
f 1010 127 1011
f 1011 131 1012
f 1010 1011 1012
f 133 1013 1014
f 1013 119 513
f 513 118 1014
f 1013 513 1014
f 137 1015 1017
f 1015 135 1016
f 1016 139 1017
f 1015 1016 1017
f 143 1018 1020
f 1018 141 1019
f 1019 145 1020
f 1018 1019 1020
f 121 1021 1008
f 1021 117 1022
f 1022 125 1008
f 1021 1022 1008
f 131 1011 1024
f 1011 127 1023
f 1023 119 1024
f 1011 1023 1024
f 135 1025 1016
f 1025 118 1026
f 1026 139 1016
f 1025 1026 1016
f 145 1019 1028
f 1019 141 1027
f 1027 117 1028
f 1019 1027 1028
f 127 1029 1023
f 1029 125 1030
f 1030 119 1023
f 1029 1030 1023
f 139 1026 1032
f 1026 118 1031
f 1031 141 1032
f 1026 1031 1032
f 125 1022 1030
f 1022 117 514
f 514 119 1030
f 1022 514 1030
f 141 1031 1027
f 1031 118 512
f 512 117 1027
f 1031 512 1027
f 117 1021 562
f 1021 121 516
f 516 120 562
f 1021 516 562
f 121 1007 517
f 1007 123 519
f 519 114 517
f 1007 519 517
f 123 1009 520
f 1009 125 522
f 522 122 520
f 1009 522 520
f 125 1029 523
f 1029 127 525
f 525 124 523
f 1029 525 523
f 127 1010 526
f 1010 129 528
f 528 126 526
f 1010 528 526
f 129 1012 529
f 1012 131 531
f 531 128 529
f 1012 531 529
f 131 1024 532
f 1024 119 534
f 534 130 532
f 1024 534 532
f 119 1013 535
f 1013 133 537
f 537 132 535
f 1013 537 535
f 133 1014 538
f 1014 118 540
f 540 115 538
f 1014 540 538
f 118 1025 541
f 1025 135 543
f 543 134 541
f 1025 543 541
f 135 1015 544
f 1015 137 546
f 546 116 544
f 1015 546 544
f 137 1017 547
f 1017 139 549
f 549 136 547
f 1017 549 547
f 139 1032 550
f 1032 141 552
f 552 138 550
f 1032 552 550
f 141 1018 553
f 1018 143 555
f 555 140 553
f 1018 555 553
f 143 1020 556
f 1020 145 558
f 558 142 556
f 1020 558 556
f 145 1028 559
f 1028 117 561
f 561 144 559
f 1028 561 559
f 155 1033 1035
f 1033 153 1034
f 1034 156 1035
f 1033 1034 1035
f 160 1036 1038
f 1036 158 1037
f 1037 162 1038
f 1036 1037 1038
f 165 1039 1040
f 1039 148 564
f 564 147 1040
f 1039 564 1040
f 169 1041 1043
f 1041 167 1042
f 1042 170 1043
f 1041 1042 1043
f 174 1044 1046
f 1044 172 1045
f 1045 176 1046
f 1044 1045 1046
f 153 1047 1034
f 1047 146 1048
f 1048 156 1034
f 1047 1048 1034
f 162 1037 1050
f 1037 158 1049
f 1049 148 1050
f 1037 1049 1050
f 167 1051 1042
f 1051 147 1052
f 1052 170 1042
f 1051 1052 1042
f 176 1045 1054
f 1045 172 1053
f 1053 146 1054
f 1045 1053 1054
f 158 1055 1049
f 1055 156 1056
f 1056 148 1049
f 1055 1056 1049
f 170 1052 1058
f 1052 147 1057
f 1057 172 1058
f 1052 1057 1058
f 156 1048 1056
f 1048 146 565
f 565 148 1056
f 1048 565 1056
f 172 1057 1053
f 1057 147 563
f 563 146 1053
f 1057 563 1053
f 152 571 616
f 571 154 1059
f 1059 177 616
f 571 1059 616
f 173 610 607
f 610 175 1060
f 1060 171 607
f 610 1060 607
f 168 601 598
f 601 151 567
f 567 150 598
f 601 567 598
f 164 592 589
f 592 166 1061
f 1061 163 589
f 592 1061 589
f 159 583 580
f 583 161 1062
f 1062 157 580
f 583 1062 580
f 154 574 1059
f 574 149 1063
f 1063 177 1059
f 574 1063 1059
f 171 1060 604
f 1060 175 1064
f 1064 151 604
f 1060 1064 604
f 166 595 1061
f 595 150 1065
f 1065 163 1061
f 595 1065 1061
f 157 1062 577
f 1062 161 1066
f 1066 149 577
f 1062 1066 577
f 175 613 1064
f 613 177 1067
f 1067 151 1064
f 613 1067 1064
f 163 1065 586
f 1065 150 1068
f 1068 161 586
f 1065 1068 586
f 177 1063 1067
f 1063 149 568
f 568 151 1067
f 1063 568 1067
f 161 1068 1066
f 1068 150 566
f 566 149 1066
f 1068 566 1066
f 155 572 1033
f 572 154 570
f 570 153 1033
f 572 570 1033
f 156 575 1035
f 575 149 573
f 573 155 1035
f 575 573 1035
f 158 578 1055
f 578 157 576
f 576 156 1055
f 578 576 1055
f 160 581 1036
f 581 159 579
f 579 158 1036
f 581 579 1036
f 162 584 1038
f 584 161 582
f 582 160 1038
f 584 582 1038
f 148 587 1050
f 587 163 585
f 585 162 1050
f 587 585 1050
f 165 590 1039
f 590 164 588
f 588 148 1039
f 590 588 1039
f 147 593 1040
f 593 166 591
f 591 165 1040
f 593 591 1040
f 167 596 1051
f 596 150 594
f 594 147 1051
f 596 594 1051
f 169 599 1041
f 599 168 597
f 597 167 1041
f 599 597 1041
f 170 602 1043
f 602 151 600
f 600 169 1043
f 602 600 1043
f 172 605 1058
f 605 171 603
f 603 170 1058
f 605 603 1058
f 174 608 1044
f 608 173 606
f 606 172 1044
f 608 606 1044
f 176 611 1046
f 611 175 609
f 609 174 1046
f 611 609 1046
f 146 614 1054
f 614 177 612
f 612 176 1054
f 614 612 1054
f 153 569 1047
f 569 152 615
f 615 146 1047
f 569 615 1047
f 187 1069 1071
f 1069 185 1070
f 1070 188 1071
f 1069 1070 1071
f 192 1072 1074
f 1072 190 1073
f 1073 194 1074
f 1072 1073 1074
f 197 1075 1076
f 1075 180 618
f 618 179 1076
f 1075 618 1076
f 201 1077 1079
f 1077 199 1078
f 1078 202 1079
f 1077 1078 1079
f 206 1080 1082
f 1080 204 1081
f 1081 208 1082
f 1080 1081 1082
f 185 1083 1070
f 1083 178 1084
f 1084 188 1070
f 1083 1084 1070
f 194 1073 1086
f 1073 190 1085
f 1085 180 1086
f 1073 1085 1086
f 199 1087 1078
f 1087 179 1088
f 1088 202 1078
f 1087 1088 1078
f 208 1081 1090
f 1081 204 1089
f 1089 178 1090
f 1081 1089 1090
f 190 1091 1085
f 1091 188 1092
f 1092 180 1085
f 1091 1092 1085
f 202 1088 1094
f 1088 179 1093
f 1093 204 1094
f 1088 1093 1094
f 188 1084 1092
f 1084 178 619
f 619 180 1092
f 1084 619 1092
f 204 1093 1089
f 1093 179 617
f 617 178 1089
f 1093 617 1089
f 184 625 670
f 625 186 1095
f 1095 209 670
f 625 1095 670
f 205 664 661
f 664 207 1096
f 1096 203 661
f 664 1096 661
f 200 655 652
f 655 183 621
f 621 182 652
f 655 621 652
f 196 646 643
f 646 198 1097
f 1097 195 643
f 646 1097 643
f 191 637 634
f 637 193 1098
f 1098 189 634
f 637 1098 634
f 186 628 1095
f 628 181 1099
f 1099 209 1095
f 628 1099 1095
f 203 1096 658
f 1096 207 1100
f 1100 183 658
f 1096 1100 658
f 198 649 1097
f 649 182 1101
f 1101 195 1097
f 649 1101 1097
f 189 1098 631
f 1098 193 1102
f 1102 181 631
f 1098 1102 631
f 207 667 1100
f 667 209 1103
f 1103 183 1100
f 667 1103 1100
f 195 1101 640
f 1101 182 1104
f 1104 193 640
f 1101 1104 640
f 209 1099 1103
f 1099 181 622
f 622 183 1103
f 1099 622 1103
f 193 1104 1102
f 1104 182 620
f 620 181 1102
f 1104 620 1102
f 187 626 1069
f 626 186 624
f 624 185 1069
f 626 624 1069
f 188 629 1071
f 629 181 627
f 627 187 1071
f 629 627 1071
f 190 632 1091
f 632 189 630
f 630 188 1091
f 632 630 1091
f 192 635 1072
f 635 191 633
f 633 190 1072
f 635 633 1072
f 194 638 1074
f 638 193 636
f 636 192 1074
f 638 636 1074
f 180 641 1086
f 641 195 639
f 639 194 1086
f 641 639 1086
f 197 644 1075
f 644 196 642
f 642 180 1075
f 644 642 1075
f 179 647 1076
f 647 198 645
f 645 197 1076
f 647 645 1076
f 199 650 1087
f 650 182 648
f 648 179 1087
f 650 648 1087
f 201 653 1077
f 653 200 651
f 651 199 1077
f 653 651 1077
f 202 656 1079
f 656 183 654
f 654 201 1079
f 656 654 1079
f 204 659 1094
f 659 203 657
f 657 202 1094
f 659 657 1094
f 206 662 1080
f 662 205 660
f 660 204 1080
f 662 660 1080
f 208 665 1082
f 665 207 663
f 663 206 1082
f 665 663 1082
f 178 668 1090
f 668 209 666
f 666 208 1090
f 668 666 1090
f 185 623 1083
f 623 184 669
f 669 178 1083
f 623 669 1083
f 228 706 703
f 706 230 1105
f 1105 227 703
f 706 1105 703
f 224 697 694
f 697 212 672
f 672 211 694
f 697 672 694
f 220 688 685
f 688 222 1106
f 1106 219 685
f 688 1106 685
f 216 679 709
f 679 210 1107
f 1107 230 709
f 679 1107 709
f 227 1105 700
f 1105 230 1108
f 1108 212 700
f 1105 1108 700
f 222 691 1106
f 691 211 1109
f 1109 219 1106
f 691 1109 1106
f 230 1107 1108
f 1107 210 673
f 673 212 1108
f 1107 673 1108
f 219 1109 682
f 1109 211 671
f 671 210 682
f 1109 671 682
f 217 1110 1112
f 1110 231 1111
f 1111 218 1112
f 1110 1111 1112
f 221 1113 1114
f 1113 215 675
f 675 214 1114
f 1113 675 1114
f 225 1115 1117
f 1115 223 1116
f 1116 226 1117
f 1115 1116 1117
f 229 1118 1120
f 1118 213 1119
f 1119 231 1120
f 1118 1119 1120
f 218 1111 1122
f 1111 231 1121
f 1121 215 1122
f 1111 1121 1122
f 223 1123 1116
f 1123 214 1124
f 1124 226 1116
f 1123 1124 1116
f 231 1119 1121
f 1119 213 676
f 676 215 1121
f 1119 676 1121
f 226 1124 1125
f 1124 214 674
f 674 213 1125
f 1124 674 1125
f 218 680 1112
f 680 210 678
f 678 217 1112
f 680 678 1112
f 215 683 1122
f 683 219 681
f 681 218 1122
f 683 681 1122
f 221 686 1113
f 686 220 684
f 684 215 1113
f 686 684 1113
f 214 689 1114
f 689 222 687
f 687 221 1114
f 689 687 1114
f 223 692 1123
f 692 211 690
f 690 214 1123
f 692 690 1123
f 225 695 1115
f 695 224 693
f 693 223 1115
f 695 693 1115
f 226 698 1117
f 698 212 696
f 696 225 1117
f 698 696 1117
f 213 701 1125
f 701 227 699
f 699 226 1125
f 701 699 1125
f 229 704 1118
f 704 228 702
f 702 213 1118
f 704 702 1118
f 231 707 1120
f 707 230 705
f 705 229 1120
f 707 705 1120
f 217 677 1110
f 677 216 708
f 708 231 1110
f 677 708 1110
f 237 725 716
f 725 234 711
f 711 233 716
f 725 711 716
f 232 719 710
f 719 236 714
f 714 233 710
f 719 714 710
f 235 722 713
f 722 238 717
f 717 233 713
f 722 717 713
f 234 727 712
f 727 239 720
f 720 232 712
f 727 720 712
f 236 721 715
f 721 239 723
f 723 235 715
f 721 723 715
f 238 724 718
f 724 239 726
f 726 237 718
f 724 726 718
f 244 742 734
f 742 242 729
f 729 241 734
f 742 729 734
f 240 737 728
f 737 232 732
f 732 241 728
f 737 732 728
f 243 739 731
f 739 245 735
f 735 241 731
f 739 735 731
f 242 744 730
f 744 234 738
f 738 240 730
f 744 738 730
f 232 712 733
f 712 234 740
f 740 243 733
f 712 740 733
f 245 741 736
f 741 234 743
f 743 244 736
f 741 743 736
f 253 797 752
f 797 279 1126
f 1126 254 752
f 797 1126 752
f 258 758 1128
f 758 256 1127
f 1127 260 1128
f 758 1127 1128
f 263 1129 1130
f 1129 248 746
f 746 247 1130
f 1129 746 1130
f 268 776 779
f 776 266 1131
f 1131 270 779
f 776 1131 779
f 274 1132 1134
f 1132 272 1133
f 1133 276 1134
f 1132 1133 1134
f 279 1135 1126
f 1135 246 1136
f 1136 254 1126
f 1135 1136 1126
f 260 1127 1138
f 1127 256 1137
f 1137 248 1138
f 1127 1137 1138
f 266 773 1131
f 773 247 1139
f 1139 270 1131
f 773 1139 1131
f 276 1133 1141
f 1133 272 1140
f 1140 246 1141
f 1133 1140 1141
f 256 755 1137
f 755 254 1142
f 1142 248 1137
f 755 1142 1137
f 270 1139 782
f 1139 247 1143
f 1143 272 782
f 1139 1143 782
f 254 1136 1142
f 1136 246 747
f 747 248 1142
f 1136 747 1142
f 272 1143 1140
f 1143 247 745
f 745 246 1140
f 1143 745 1140
f 308 881 878
f 881 309 1144
f 1144 307 878
f 881 1144 878
f 305 872 869
f 872 306 1145
f 1145 304 869
f 872 1145 869
f 303 863 860
f 863 251 749
f 749 250 860
f 863 749 860
f 301 854 851
f 854 302 1146
f 1146 300 851
f 854 1146 851
f 298 845 842
f 845 299 1147
f 1147 297 842
f 845 1147 842
f 309 884 1144
f 884 249 1148
f 1148 307 1144
f 884 1148 1144
f 304 1145 866
f 1145 306 1149
f 1149 251 866
f 1145 1149 866
f 302 857 1146
f 857 250 1150
f 1150 300 1146
f 857 1150 1146
f 297 1147 839
f 1147 299 1151
f 1151 249 839
f 1147 1151 839
f 306 875 1149
f 875 307 1152
f 1152 251 1149
f 875 1152 1149
f 300 1150 848
f 1150 250 1153
f 1153 299 848
f 1150 1153 848
f 307 1148 1152
f 1148 249 750
f 750 251 1152
f 1148 750 1152
f 299 1153 1151
f 1153 250 748
f 748 249 1151
f 1153 748 1151
f 280 798 1154
f 798 253 751
f 751 252 1154
f 798 751 1154
f 252 753 1155
f 753 254 754
f 754 255 1155
f 753 754 1155
f 255 756 1156
f 756 256 757
f 757 257 1156
f 756 757 1156
f 258 1128 759
f 1128 260 761
f 761 257 759
f 1128 761 759
f 260 1138 762
f 1138 248 764
f 764 259 762
f 1138 764 762
f 248 1129 765
f 1129 263 767
f 767 261 765
f 1129 767 765
f 263 1130 768
f 1130 247 770
f 770 262 768
f 1130 770 768
f 264 771 1157
f 771 247 772
f 772 265 1157
f 771 772 1157
f 265 774 1158
f 774 266 775
f 775 267 1158
f 774 775 1158
f 267 777 1159
f 777 268 778
f 778 269 1159
f 777 778 1159
f 269 780 1160
f 780 270 781
f 781 271 1160
f 780 781 1160
f 272 1132 783
f 1132 274 785
f 785 271 783
f 1132 785 783
f 274 1134 786
f 1134 276 788
f 788 273 786
f 1134 788 786
f 276 1141 789
f 1141 246 791
f 791 275 789
f 1141 791 789
f 246 1135 792
f 1135 279 794
f 794 277 792
f 1135 794 792
f 278 795 1161
f 795 279 796
f 796 280 1161
f 795 796 1161
f 280 1154 838
f 1154 252 800
f 800 282 838
f 1154 800 838
f 252 1155 801
f 1155 255 803
f 803 281 801
f 1155 803 801
f 255 1156 804
f 1156 257 806
f 806 283 804
f 1156 806 804
f 284 807 1162
f 807 257 808
f 808 285 1162
f 807 808 1162
f 285 809 1163
f 809 259 810
f 810 286 1163
f 809 810 1163
f 286 811 1164
f 811 261 812
f 812 287 1164
f 811 812 1164
f 287 813 1165
f 813 262 814
f 814 288 1165
f 813 814 1165
f 264 1157 815
f 1157 265 817
f 817 288 815
f 1157 817 815
f 265 1158 818
f 1158 267 820
f 820 289 818
f 1158 820 818
f 267 1159 821
f 1159 269 823
f 823 290 821
f 1159 823 821
f 269 1160 824
f 1160 271 826
f 826 291 824
f 1160 826 824
f 292 827 1166
f 827 271 828
f 828 293 1166
f 827 828 1166
f 293 829 1167
f 829 273 830
f 830 294 1167
f 829 830 1167
f 294 831 1168
f 831 275 832
f 832 295 1168
f 831 832 1168
f 295 833 1169
f 833 277 834
f 834 296 1169
f 833 834 1169
f 278 1161 835
f 1161 280 837
f 837 296 835
f 1161 837 835
f 282 799 886
f 799 281 840
f 840 249 886
f 799 840 886
f 281 802 841
f 802 283 843
f 843 297 841
f 802 843 841
f 283 805 844
f 805 284 846
f 846 298 844
f 805 846 844
f 284 1162 847
f 1162 285 849
f 849 299 847
f 1162 849 847
f 285 1163 850
f 1163 286 852
f 852 300 850
f 1163 852 850
f 286 1164 853
f 1164 287 855
f 855 301 853
f 1164 855 853
f 287 1165 856
f 1165 288 858
f 858 302 856
f 1165 858 856
f 288 816 859
f 816 289 861
f 861 250 859
f 816 861 859
f 289 819 862
f 819 290 864
f 864 303 862
f 819 864 862
f 290 822 865
f 822 291 867
f 867 251 865
f 822 867 865
f 291 825 868
f 825 292 870
f 870 304 868
f 825 870 868
f 292 1166 871
f 1166 293 873
f 873 305 871
f 1166 873 871
f 293 1167 874
f 1167 294 876
f 876 306 874
f 1167 876 874
f 294 1168 877
f 1168 295 879
f 879 307 877
f 1168 879 877
f 295 1169 880
f 1169 296 882
f 882 308 880
f 1169 882 880
f 296 836 883
f 836 282 885
f 885 309 883
f 836 885 883
