# Unified Preprocessed OBJ file from D00811.obj
# Applied remeshing: Yes
# Applied 4-step normalization: centering, PCA alignment, flipping, scaling
# Generated on 2025-09-29 15:07:10

v -0.200385 0.146191 -0.029068
v -0.247308 0.127886 -0.009033
v -0.197991 0.138762 -0.026991
v -0.249702 0.135314 -0.011111
v -0.204549 0.151640 -0.037203
v -0.252175 0.142984 -0.013255
v -0.253866 0.140764 -0.019245
v -0.202858 0.153860 -0.031213
v -0.205252 0.161289 -0.033290
v -0.254569 0.150413 -0.015332
v -0.256261 0.148193 -0.021322
v -0.206944 0.159069 -0.039280
v -0.210180 0.176578 -0.037565
v -0.261189 0.163481 -0.025597
v -0.259498 0.165701 -0.019607
v -0.211872 0.174357 -0.043555
v -0.257103 0.158273 -0.017530
v -0.258794 0.156053 -0.023520
v -0.207786 0.169149 -0.035488
v -0.176382 0.064259 -0.012769
v -0.224007 0.055603 0.011178
v -0.225699 0.053382 0.005188
v -0.174690 0.066479 -0.006780
v -0.115104 -0.269143 0.074868
v -0.113838 -0.326586 0.043554
v -0.127226 -0.285054 0.031940
v -0.101716 -0.310676 0.086481
v -0.177085 0.073907 -0.008857
v -0.228093 0.060811 0.003111
v -0.226402 0.063031 0.009101
v -0.178776 0.071687 -0.014847
v -0.199682 0.136542 -0.032981
v -0.248999 0.125666 -0.015023
v -0.191092 0.117360 -0.021007
v -0.242100 0.104264 -0.009039
v -0.240409 0.106484 -0.003049
v -0.192783 0.115140 -0.026997
v -0.209477 0.166929 -0.041478
v -0.251394 0.133094 -0.017100
v -0.094373 0.168252 -0.093103
v -0.119883 0.193874 -0.147643
v -0.106495 0.152341 -0.136030
v -0.107761 0.209785 -0.104716
v -0.190389 0.107711 -0.024919
v -0.238014 0.099055 -0.000972
v -0.239706 0.096835 -0.006962
v -0.188697 0.109931 -0.018930
v -0.185460 0.092423 -0.020645
v -0.233086 0.083767 0.003303
v -0.234777 0.081547 -0.002687
v -0.183769 0.094643 -0.014655
v -0.186163 0.102071 -0.016732
v -0.235481 0.091195 0.001226
v -0.237172 0.088975 -0.004764
v -0.187855 0.099851 -0.022722
v -0.202077 0.143971 -0.035058
v 0.459582 0.103795 -0.085099
v 0.406007 0.096314 -0.117015
v 0.417565 0.111485 -0.076084
v 0.448024 0.088624 -0.126029
v 0.370964 0.159389 0.138399
v 0.350074 0.158017 0.172724
v 0.341246 0.162048 0.150923
v 0.379791 0.155358 0.160200
v 0.159285 0.301686 0.276541
v 0.138011 0.318655 0.262172
v 0.150457 0.305717 0.254740
v 0.146838 0.314624 0.283973
v 0.124247 0.330021 0.269847
v 0.133074 0.325990 0.291647
v 0.041521 0.359462 0.308787
v 0.032335 0.355375 0.337871
v 0.023507 0.359406 0.316070
v 0.050348 0.355431 0.330587
v 0.014298 0.353285 0.344788
v 0.005471 0.357316 0.322987
v 0.524963 -0.194401 0.010624
v 0.074866 -0.300256 0.173297
v 0.481021 -0.210684 0.025406
v -0.001124 0.268880 0.309305
v 0.564201 -0.166422 -0.000090
v 0.596060 -0.128653 -0.006006
v 0.618370 -0.083668 -0.006721
v 0.629610 -0.034532 -0.002186
v 0.629014 0.015406 0.007289
v 0.616622 0.062742 0.021060
v 0.312178 0.168372 0.163863
v 0.593279 0.104251 0.038187
v 0.560577 0.137104 0.057503
v 0.520743 0.159062 0.077692
v 0.400955 0.160429 0.126447
v 0.476492 0.168629 0.097379
v 0.430840 0.165153 0.115220
v 0.284127 0.178281 0.177053
v 0.257447 0.191649 0.190327
v 0.232477 0.208307 0.203518
v 0.209532 0.228045 0.216458
v 0.188902 0.250613 0.228984
v 0.170849 0.275725 0.240937
v 0.161445 0.291353 0.247635
v -0.005032 0.298146 0.316298
v -0.012385 0.353218 0.329459
v 0.109320 0.339685 0.277678
v 0.093400 0.347540 0.285576
v 0.076666 0.353495 0.293453
v 0.059308 0.357484 0.301219
v 0.170272 0.287322 0.269436
v 0.489849 -0.214715 0.047207
v 0.533791 -0.198432 0.032425
v 0.409782 0.156397 0.148248
v 0.439667 0.161122 0.137021
v 0.007703 0.264848 0.331106
v 0.083694 -0.304287 0.195098
v 0.573029 -0.170453 0.021711
v 0.604888 -0.132684 0.015795
v 0.627198 -0.087699 0.015080
v 0.638437 -0.038563 0.019615
v 0.637841 0.011374 0.029090
v 0.625449 0.058711 0.042861
v 0.321005 0.164341 0.185663
v 0.602107 0.100220 0.059987
v 0.569404 0.133073 0.079304
v 0.529570 0.155031 0.099493
v 0.485319 0.164598 0.119179
v 0.292954 0.174250 0.198853
v 0.266275 0.187618 0.212128
v 0.241304 0.204276 0.225319
v 0.218359 0.224014 0.238259
v 0.197729 0.246582 0.250785
v 0.179676 0.271694 0.262738
v 0.003795 0.294115 0.338099
v -0.003558 0.349187 0.351260
v 0.118147 0.335654 0.299478
v 0.102227 0.343509 0.307377
v 0.085493 0.349464 0.315254
v 0.068135 0.353453 0.323020
v -0.120275 -0.374178 0.133889
v -0.310233 0.208062 -0.035156
v -0.121872 -0.376275 0.128232
v -0.308635 0.210158 -0.029499
v -0.249318 0.026142 0.021954
v -0.252801 0.036948 0.018933
v -0.166586 0.033872 -0.004273
v -0.214212 0.025216 0.019675
v -0.215904 0.022995 0.013685
v -0.164895 0.036092 0.001717
v -0.091549 -0.191443 0.065339
v -0.138472 -0.209748 0.085374
v -0.089154 -0.198872 0.067416
v -0.140866 -0.202319 0.083297
v -0.119896 -0.103503 0.040750
v -0.170905 -0.116600 0.052718
v -0.169214 -0.114380 0.058707
v -0.121588 -0.105724 0.034760
v -0.167289 0.043520 -0.000360
v -0.218298 0.030424 0.011608
v -0.216607 0.032644 0.017597
v -0.168981 0.041300 -0.006350
v -0.149240 -0.382040 0.139164
v -0.164247 -0.385620 0.143662
v -0.133956 -0.377863 0.136483
v -0.118615 -0.373149 0.135658
v -0.040708 -0.356631 0.104917
v -0.103440 -0.367965 0.136701
v -0.088650 -0.362388 0.139597
v -0.074458 -0.356497 0.144304
v -0.061071 -0.350378 0.150754
v -0.048682 -0.344120 0.158853
v -0.037471 -0.337813 0.168484
v -0.027599 -0.331548 0.179509
v -0.019209 -0.325416 0.191767
v -0.012423 -0.319506 0.205081
v -0.023042 -0.333443 0.167478
v -0.017028 -0.325550 0.188775
v -0.157559 0.013334 0.008080
v -0.204481 -0.004971 0.028115
v -0.155164 0.005905 0.010158
v -0.206876 0.002457 0.026038
v -0.156856 0.003685 0.004168
v -0.206173 -0.007191 0.022125
v -0.208567 0.000237 0.020048
v -0.159250 0.011114 0.002091
v -0.142558 -0.204539 0.077307
v -0.140163 -0.211968 0.079384
v -0.090846 -0.201092 0.061426
v -0.085918 -0.216380 0.065701
v -0.133543 -0.225037 0.089649
v -0.135235 -0.227257 0.083659
v -0.084226 -0.214160 0.071691
v -0.137629 -0.219828 0.081582
v -0.135938 -0.217608 0.087571
v -0.093241 -0.193663 0.059349
v 0.403486 0.002846 -0.172384
v 0.410592 -0.157253 -0.115052
v 0.452140 -0.148090 -0.130181
v 0.386265 -0.081785 -0.136154
v 0.361938 -0.006317 -0.157256
v 0.035888 -0.235844 0.019888
v 0.049276 -0.277377 0.031501
v -0.086621 -0.206732 0.069614
v -0.088312 -0.208952 0.063624
v 0.560844 -0.155725 -0.067322
v 0.548750 -0.172825 -0.007752
v 0.537192 -0.187996 -0.048683
v 0.572403 -0.140554 -0.026392
v 0.586234 -0.102128 -0.044540
v 0.574676 -0.117298 -0.085471
v 0.589233 -0.060156 -0.060943
v 0.577674 -0.075327 -0.101874
v 0.505381 -0.211967 -0.030815
v 0.477870 -0.211379 0.026553
v 0.466311 -0.226550 -0.014377
v 0.516940 -0.196797 0.010116
v 0.055378 0.259263 -0.028580
v 0.007676 0.228696 -0.144323
v 0.022771 0.216464 -0.144052
v 0.040283 0.271494 -0.028851
v 0.069201 0.245656 -0.027440
v 0.036593 0.202857 -0.142912
v 0.081595 0.230825 -0.025443
v 0.048988 0.188027 -0.140915
v -0.008521 0.239412 -0.143721
v 0.024087 0.282211 -0.028249
v 0.156906 0.167059 -0.023076
v 0.097165 0.142881 -0.137786
v 0.124298 0.124261 -0.138547
v 0.129772 0.185679 -0.022315
v 0.213712 0.086918 -0.149956
v 0.215550 0.138900 -0.029199
v 0.182943 0.096101 -0.144670
v 0.246320 0.129716 -0.034484
v 0.071955 0.164226 -0.138579
v 0.104563 0.207025 -0.023108
v 0.185619 0.151400 -0.025380
v 0.153012 0.108602 -0.140851
v 0.384104 0.088797 -0.198768
v 0.369945 0.127822 -0.068692
v 0.337338 0.085024 -0.184164
v 0.416711 0.131595 -0.083296
v 0.431618 0.080101 -0.208962
v 0.464226 0.122900 -0.093491
v 0.339745 0.123013 -0.058382
v 0.307138 0.080215 -0.173853
v 0.308813 0.121723 -0.049168
v 0.276205 0.078924 -0.164640
v 0.476645 0.059528 -0.214052
v 0.509253 0.102327 -0.098581
v -0.099301 0.266704 -0.128201
v -0.085368 0.309270 -0.007370
v -0.117976 0.266471 -0.122842
v -0.066693 0.309502 -0.012730
v -0.119193 -0.113152 0.036837
v -0.166819 -0.121808 0.060785
v -0.168510 -0.124028 0.054795
v -0.117502 -0.110932 0.042827
v -0.061839 0.261356 -0.136798
v -0.047910 0.307791 -0.017400
v -0.080518 0.264992 -0.132871
v -0.029232 0.304154 -0.021326
v 0.362757 0.092824 -0.103508
v 0.374315 0.107995 -0.062577
v 0.523085 0.042747 -0.130222
v 0.562507 0.022752 -0.084125
v 0.550949 0.007581 -0.125056
v 0.534644 0.057918 -0.089291
v 0.569583 -0.032710 -0.115384
v 0.581141 -0.017540 -0.074454
v 0.499519 0.085548 -0.089613
v 0.487960 0.070377 -0.130544
v 0.310431 0.101735 -0.042217
v 0.265224 0.088978 -0.074541
v 0.276782 0.104149 -0.033610
v 0.298873 0.086564 -0.083148
v 0.485475 -0.230575 0.031521
v -0.006141 -0.338994 0.210530
v 0.528304 -0.214590 0.013502
v 0.564277 -0.187482 -0.006704
v 0.590944 -0.151098 -0.027720
v 0.606487 -0.107919 -0.048113
v 0.609846 -0.060886 -0.066493
v 0.600793 -0.013206 -0.081609
v 0.579945 0.031874 -0.092430
v 0.548722 0.071280 -0.098219
v 0.343726 0.103124 -0.052134
v 0.243209 0.110332 -0.026421
v 0.277539 0.123966 -0.041169
v 0.210142 0.120201 -0.020741
v 0.177999 0.133625 -0.016640
v 0.147189 0.150428 -0.014167
v 0.118097 0.170392 -0.013352
v 0.091088 0.193260 -0.014201
v 0.066734 0.218499 -0.016678
v 0.054531 0.233101 -0.018644
v 0.042313 0.245128 -0.019652
v 0.028970 0.255939 -0.019891
v 0.014655 0.265411 -0.019359
v -0.000473 0.273438 -0.018062
v -0.016241 0.279927 -0.016015
v 0.006971 0.291292 -0.026782
v -0.032472 0.284807 -0.013240
v -0.010869 0.298634 -0.024466
v -0.048982 0.288021 -0.009770
v -0.065584 0.289534 -0.005642
v -0.082090 0.289328 -0.000905
v -0.090202 0.288367 0.001742
v -0.095828 0.287977 0.003476
v -0.200784 0.264831 0.041692
v -0.207014 0.284157 0.036289
v -0.121553 0.303004 0.005170
v -0.103724 0.307095 -0.001381
v 0.332167 0.087953 -0.093065
v 0.244932 0.081168 -0.156640
v -0.101025 -0.162047 0.057119
v -0.147947 -0.180352 0.077154
v -0.098630 -0.169476 0.059197
v -0.150342 -0.172923 0.075077
v -0.152630 -0.001955 0.012355
v -0.199553 -0.020260 0.032390
v -0.150236 -0.009384 0.014433
v -0.201948 -0.012831 0.030313
v -0.203639 -0.015051 0.024323
v -0.154322 -0.004175 0.006366
v -0.100322 -0.171696 0.053207
v -0.149639 -0.182572 0.071164
v -0.105892 -0.146948 0.052898
v -0.156901 -0.160045 0.064865
v -0.155209 -0.157824 0.070855
v -0.107583 -0.149168 0.046908
v -0.151927 -0.011604 0.008443
v -0.201245 -0.022480 0.026400
v -0.152034 -0.175143 0.069087
v -0.102716 -0.164267 0.051129
v 0.424180 -0.114869 -0.186846
v 0.313377 -0.214932 -0.416969
v 0.382632 -0.124032 -0.171717
v 0.354925 -0.205770 -0.432098
v 0.339153 -0.156841 -0.445779
v 0.366860 -0.075103 -0.185398
v 0.297605 -0.166004 -0.430650
v 0.408408 -0.065941 -0.200527
v 0.398470 -0.173164 -0.157979
v 0.440018 -0.164001 -0.173108
v -0.257486 0.119042 -0.081050
v -0.245364 0.134953 -0.038123
v -0.208337 0.129882 -0.098947
v -0.159390 0.140676 -0.116770
v -0.277592 0.038981 -0.344199
v -0.228646 0.049776 -0.362022
v -0.172778 0.182209 -0.128383
v -0.134708 -0.164519 -0.262408
v -0.182247 -0.064889 -0.332625
v -0.145546 -0.178745 -0.300789
v -0.171409 -0.050664 -0.294244
v 0.516115 0.028481 -0.213691
v 0.547337 -0.010925 -0.207902
v 0.568186 -0.056004 -0.197081
v 0.577239 -0.103685 -0.181965
v 0.573879 -0.150717 -0.163584
v 0.558337 -0.193896 -0.143191
v 0.531670 -0.230280 -0.122176
v 0.495696 -0.257388 -0.101970
v 0.452867 -0.273374 -0.083951
v -0.010746 -0.345037 0.194224
v -0.016760 -0.352931 0.172927
v -0.038749 -0.381792 0.095059
v -0.136332 0.264297 -0.116852
v -0.154160 0.260205 -0.110301
v -0.190757 -0.047548 0.040020
v -0.194843 -0.042340 0.031953
v -0.192448 -0.049768 0.034031
v -0.193151 -0.040120 0.037943
v -0.205388 0.258787 0.025387
v -0.119928 0.277634 -0.005732
v -0.125942 0.269740 -0.027029
v -0.126881 0.268507 -0.030357
v -0.107386 0.272806 -0.037455
v 0.062419 -0.314596 0.136360
v 0.061479 -0.315829 0.133032
v 0.068433 -0.306702 0.157657
v 0.030755 0.229958 -0.060583
v 0.017412 0.240769 -0.060822
v 0.003096 0.250241 -0.060290
v -0.012031 0.258267 -0.058993
v -0.212934 -0.059822 -0.279124
v -0.223773 -0.074047 -0.317504
v 0.231651 0.095162 -0.067352
v 0.198583 0.105030 -0.061672
v 0.166441 0.118454 -0.057571
v 0.135630 0.135257 -0.055098
v 0.106539 0.155221 -0.054283
v 0.079530 0.178090 -0.055132
v 0.055176 0.203328 -0.057609
v 0.042972 0.217930 -0.059575
v -0.027799 0.264756 -0.056946
v -0.044030 0.269636 -0.054171
v -0.098385 -0.354320 -0.249031
v -0.078076 -0.274214 0.014044
v -0.147332 -0.365115 -0.231208
v -0.029130 -0.263420 -0.003779
v 0.023766 -0.251755 -0.023039
v -0.133944 -0.406648 -0.219595
v -0.084997 -0.395853 -0.237418
v -0.060540 0.272851 -0.050700
v -0.077142 0.274363 -0.046573
v -0.093648 0.274158 -0.041836
v -0.101761 0.273197 -0.039189
v -0.073006 0.293010 -0.004834
v 0.037856 0.234380 0.292030
v 0.024451 0.231957 0.294746
v -0.048583 0.297425 -0.009784
v -0.134039 -0.059631 0.028482
v -0.180961 -0.077935 0.048517
v -0.131644 -0.067059 0.030559
v -0.183356 -0.070507 0.046440
v -0.185047 -0.072727 0.040450
v -0.135730 -0.061851 0.022492
v -0.182653 -0.080155 0.042527
v -0.133336 -0.069279 0.024570
v -0.143834 -0.029244 0.019986
v -0.145526 -0.031464 0.013996
v -0.143131 -0.038892 0.016073
v -0.141439 -0.036672 0.022063
v -0.124825 -0.088215 0.036475
v -0.171747 -0.106520 0.056510
v -0.122430 -0.095643 0.038552
v -0.174142 -0.099091 0.054432
v -0.175833 -0.101311 0.048443
v -0.173439 -0.108740 0.050520
v -0.124122 -0.097863 0.032562
v -0.138906 -0.044532 0.024261
v -0.189914 -0.057629 0.036228
v -0.188223 -0.055408 0.042218
v -0.140597 -0.046752 0.018271
v -0.126516 -0.090435 0.030485
v -0.185828 -0.062837 0.044295
v -0.136511 -0.051961 0.026338
v -0.138203 -0.054181 0.020348
v -0.187520 -0.065057 0.038305
v -0.110117 -0.141309 0.044710
v -0.157743 -0.149965 0.068658
v -0.159434 -0.152185 0.062668
v -0.108426 -0.139089 0.050700
v -0.152815 -0.165253 0.072932
v -0.154506 -0.167473 0.066942
v -0.099026 -0.043036 -0.013477
v -0.164214 -0.152226 -0.258633
v -0.169566 -0.135622 -0.263276
v -0.093674 -0.059640 -0.008834
v -0.077064 -0.055977 -0.014882
v -0.152956 -0.131959 -0.269324
v -0.147604 -0.148563 -0.264681
v -0.082417 -0.039373 -0.019525
v -0.097097 0.006169 -0.032259
v -0.184246 -0.090080 -0.276010
v -0.113707 0.002506 -0.026211
v -0.167637 -0.086417 -0.282058
v -0.119059 0.019110 -0.030854
v -0.189599 -0.073476 -0.280653
v -0.221725 0.171414 -0.110560
v -0.290980 0.080514 -0.355812
v -0.105189 -0.156597 0.048985
v -0.103497 -0.154377 0.054975
v -0.239621 0.241358 -0.079183
v -0.110820 -0.131660 0.048623
v -0.160137 -0.142536 0.066580
v -0.211402 0.250893 0.004089
v -0.058317 -0.294537 0.094165
v -0.109325 -0.307633 0.106133
v -0.107634 -0.305413 0.112123
v -0.060008 -0.296757 0.088176
v -0.057614 -0.304186 0.090253
v -0.105239 -0.312842 0.114200
v -0.106931 -0.315062 0.108210
v -0.055922 -0.301966 0.096243
v -0.072468 -0.250638 0.081891
v -0.123476 -0.263734 0.093858
v -0.121785 -0.261514 0.099848
v -0.074159 -0.252858 0.075901
v -0.071765 -0.260286 0.077978
v -0.119390 -0.268942 0.101925
v -0.121082 -0.271162 0.095935
v -0.070073 -0.258066 0.083968
v -0.077396 -0.235349 0.077616
v -0.128405 -0.248446 0.089583
v -0.126713 -0.246225 0.095573
v -0.079087 -0.237569 0.071626
v -0.076693 -0.244998 0.073703
v -0.124318 -0.253654 0.097650
v -0.126010 -0.255874 0.091661
v -0.075001 -0.242778 0.079693
v -0.258752 0.176486 -0.049736
v -0.067601 -0.265736 0.086112
v -0.114523 -0.284041 0.106147
v -0.065206 -0.273165 0.088190
v -0.116918 -0.276612 0.104070
v -0.118609 -0.278833 0.098080
v -0.116215 -0.286261 0.100157
v -0.066897 -0.275385 0.082200
v -0.270874 0.160575 -0.092664
v -0.069292 -0.267956 0.080122
v -0.015742 -0.304953 0.007834
v 0.037154 -0.293287 -0.011426
v -0.064688 -0.315747 0.025657
v -0.044123 -0.338569 0.106477
v -0.095132 -0.351665 0.118445
v -0.093440 -0.349445 0.124435
v -0.045814 -0.340789 0.100488
v -0.043420 -0.348218 0.102565
v -0.091046 -0.356874 0.126512
v -0.092737 -0.359094 0.120522
v -0.041728 -0.345998 0.108555
v -0.053645 -0.309030 0.098218
v -0.104654 -0.322126 0.110185
v -0.102962 -0.319906 0.116175
v -0.055337 -0.311250 0.092228
v -0.052942 -0.318678 0.094305
v -0.100568 -0.327334 0.118253
v -0.102259 -0.329554 0.112263
v -0.051250 -0.316458 0.100295
v 0.391364 -0.013065 -0.215312
v 0.349816 -0.022227 -0.200183
v -0.172989 -0.069813 -0.286701
v -0.102449 0.022773 -0.036902
v -0.225867 0.217775 -0.055695
v -0.229069 0.227706 -0.058472
v -0.224176 0.219995 -0.049705
v -0.221781 0.212566 -0.047628
v -0.219248 0.204706 -0.045430
v -0.216853 0.197278 -0.043353
v -0.172156 0.058619 -0.004582
v -0.169762 0.051190 -0.002505
v -0.112512 -0.133880 0.042633
v -0.171453 0.048970 -0.008495
v -0.173848 0.056399 -0.010572
v -0.218545 0.195058 -0.049343
v -0.220939 0.202486 -0.051420
v -0.223473 0.210346 -0.053618
v -0.242034 0.091308 -0.373635
v -0.161829 -0.144756 0.060590
v -0.187071 -0.187902 -0.285669
v -0.176233 -0.173677 -0.247288
v -0.220770 0.038094 0.009463
v -0.223165 0.045522 0.007386
v -0.267862 0.184182 -0.031385
v -0.270256 0.191610 -0.033462
v -0.272790 0.199470 -0.035660
v -0.275185 0.206898 -0.037737
v -0.160690 -0.408685 0.139461
v -0.166972 -0.389197 0.134012
v -0.157965 -0.405108 0.149111
v -0.358838 0.218042 -0.025130
v -0.361563 0.214466 -0.034781
v -0.352608 0.198716 -0.019727
v -0.343831 0.221622 -0.029628
v -0.328547 0.225799 -0.032309
v -0.313206 0.230514 -0.033135
v -0.298030 0.235697 -0.032091
v -0.283240 0.241275 -0.029196
v -0.269049 0.247165 -0.024489
v -0.255662 0.253284 -0.018039
v -0.243273 0.259542 -0.009940
v -0.232062 0.265849 -0.000308
v -0.222189 0.272114 0.010716
v -0.213800 0.278246 0.022975
v -0.043476 0.255835 -0.139937
v -0.025636 0.248493 -0.142254
v -0.142958 -0.401528 0.144613
v -0.127674 -0.397351 0.141932
v -0.112333 -0.392637 0.141107
v -0.097158 -0.387453 0.142150
v -0.082368 -0.381876 0.145046
v -0.068177 -0.375985 0.149753
v -0.054789 -0.369866 0.156203
v -0.042400 -0.363608 0.164302
v -0.031189 -0.357301 0.173933
v -0.021317 -0.351036 0.184958
v -0.012927 -0.344904 0.197216
v -0.237043 0.240216 -0.004536
v -0.225832 0.246523 0.005096
v -0.337601 0.202296 -0.024225
v -0.249432 0.233958 -0.012635
v -0.262819 0.227839 -0.019085
v -0.277010 0.221949 -0.023792
v -0.291801 0.216371 -0.026688
v -0.271099 0.201690 -0.029670
v -0.273493 0.209118 -0.031747
v -0.207570 0.258920 0.028378
v -0.215959 0.252788 0.016120
v -0.306976 0.211188 -0.027731
v -0.322317 0.206473 -0.026906
v -0.302176 -0.112895 -0.273114
v -0.209317 -0.094188 -0.289195
v -0.290185 -0.115865 -0.273494
v -0.214210 -0.079007 -0.293439
v -0.302787 -0.110997 -0.273644
v -0.305846 -0.101509 -0.276297
v -0.297525 -0.093094 -0.279861
v -0.291165 -0.147051 -0.263563
v -0.198306 -0.128344 -0.279644
v -0.279175 -0.150022 -0.263943
v -0.203200 -0.113163 -0.283889
v -0.291777 -0.145154 -0.264093
v -0.294835 -0.135666 -0.266746
v -0.286515 -0.127251 -0.270310
v -0.266170 0.186402 -0.025395
v -0.268565 0.193830 -0.027472
v -0.219079 0.040314 0.015453
v -0.221474 0.047742 0.013376
v -0.280155 -0.181208 -0.254012
v -0.187296 -0.162501 -0.270093
v -0.268164 -0.184179 -0.254392
v -0.192190 -0.147320 -0.274338
v -0.280767 -0.179310 -0.254543
v -0.283825 -0.169822 -0.257196
v -0.275504 -0.161407 -0.260760
f 1 2 3
f 2 1 4
f 5 6 7
f 6 5 8
f 9 6 8
f 6 9 10
f 6 11 7
f 11 6 10
f 9 11 10
f 11 9 12
f 13 14 15
f 14 13 16
f 17 14 18
f 14 17 15
f 13 17 19
f 17 13 15
f 20 21 22
f 21 20 23
f 24 25 26
f 28 29 30
f 29 28 31
f 32 2 33
f 2 32 3
f 34 35 36
f 35 34 37
f 38 17 18
f 17 38 19
f 2 39 33
f 39 2 4
f 40 41 42
f 21 29 22
f 29 21 30
f 28 21 23
f 21 28 30
f 44 45 46
f 45 44 47
f 48 49 50
f 49 48 51
f 52 49 51
f 49 52 53
f 49 54 50
f 54 49 53
f 52 54 53
f 54 52 55
f 45 35 46
f 35 45 36
f 34 45 47
f 45 34 36
f 1 39 4
f 39 1 56
f 57 58 59
f 58 57 60
f 61 62 63
f 62 61 64
f 65 66 67
f 66 65 68
f 68 69 66
f 69 68 70
f 71 72 73
f 72 71 74
f 73 75 76
f 75 73 72
f 77 78 79
f 78 77 80
f 80 77 81
f 80 81 82
f 80 82 83
f 80 83 84
f 80 84 85
f 80 85 86
f 80 86 87
f 87 86 88
f 87 88 63
f 63 88 89
f 63 89 61
f 61 89 90
f 61 90 91
f 91 90 92
f 91 92 93
f 80 87 94
f 80 94 95
f 80 95 96
f 80 96 97
f 80 97 98
f 80 98 99
f 80 99 100
f 80 100 67
f 80 67 101
f 101 67 66
f 101 66 69
f 101 69 102
f 102 69 103
f 102 103 104
f 102 104 105
f 102 105 106
f 102 106 71
f 102 71 73
f 102 73 76
f 107 67 100
f 67 107 65
f 108 77 79
f 77 108 109
f 93 110 91
f 110 93 111
f 112 108 113
f 108 112 109
f 109 112 114
f 114 112 115
f 115 112 116
f 116 112 117
f 117 112 118
f 118 112 119
f 119 112 120
f 119 120 121
f 121 120 62
f 121 62 122
f 122 62 64
f 122 64 123
f 123 64 110
f 123 110 124
f 124 110 111
f 120 112 125
f 125 112 126
f 126 112 127
f 127 112 128
f 128 112 129
f 129 112 130
f 130 112 107
f 107 112 65
f 65 112 131
f 65 131 68
f 68 131 70
f 70 131 132
f 70 132 133
f 133 132 134
f 134 132 135
f 135 132 136
f 136 132 74
f 74 132 72
f 72 132 75
f 106 74 71
f 74 106 136
f 132 101 102
f 101 132 131
f 76 132 102
f 132 76 75
f 103 134 104
f 134 103 133
f 104 135 105
f 135 104 134
f 105 136 106
f 136 105 135
f 69 133 103
f 133 69 70
f 131 80 101
f 80 131 112
f 91 64 61
f 64 91 110
f 109 81 77
f 81 109 114
f 113 79 78
f 79 113 108
f 82 116 83
f 116 82 115
f 114 82 81
f 82 114 115
f 112 78 80
f 78 112 113
f 83 117 84
f 117 83 116
f 84 118 85
f 118 84 117
f 118 86 85
f 86 118 119
f 63 120 87
f 120 63 62
f 87 125 94
f 125 87 120
f 92 111 93
f 111 92 124
f 130 100 99
f 100 130 107
f 129 99 98
f 99 129 130
f 121 89 88
f 89 121 122
f 89 123 90
f 123 89 122
f 90 124 92
f 124 90 123
f 119 88 86
f 88 119 121
f 94 126 95
f 126 94 125
f 95 127 96
f 127 95 126
f 127 97 96
f 97 127 128
f 128 98 97
f 98 128 129
f 137 138 139
f 138 137 140
f 143 144 145
f 144 143 146
f 147 148 149
f 148 147 150
f 151 152 153
f 152 151 154
f 155 156 157
f 156 155 158
f 155 144 146
f 144 155 157
f 144 156 145
f 156 144 157
f 139 159 160
f 159 139 161
f 161 139 137
f 161 137 162
f 162 137 163
f 162 163 164
f 164 163 165
f 165 163 166
f 166 163 167
f 167 163 168
f 168 163 169
f 169 163 170
f 170 163 171
f 171 163 172
f 175 176 177
f 176 175 178
f 179 176 180
f 176 179 177
f 175 181 178
f 181 175 182
f 148 183 184
f 183 148 150
f 185 148 184
f 148 185 149
f 186 187 188
f 187 186 189
f 187 190 188
f 190 187 191
f 147 183 150
f 183 147 192
f 194 193 196
f 196 193 197
f 198 27 199
f 200 190 191
f 190 200 201
f 200 187 189
f 187 200 191
f 202 203 204
f 203 202 205
f 206 202 207
f 202 206 205
f 208 207 209
f 207 208 206
f 210 211 212
f 211 210 213
f 214 215 216
f 215 214 217
f 218 216 219
f 216 218 214
f 220 219 221
f 219 220 218
f 217 222 215
f 222 217 223
f 224 225 226
f 225 224 227
f 228 229 230
f 229 228 231
f 227 232 225
f 232 227 233
f 230 234 235
f 234 230 229
f 236 237 238
f 237 236 239
f 240 239 236
f 239 240 241
f 238 242 243
f 242 238 237
f 243 244 245
f 244 243 242
f 246 241 240
f 241 246 247
f 248 249 250
f 249 248 251
f 252 253 254
f 253 252 255
f 256 257 258
f 257 256 259
f 258 251 248
f 251 258 257
f 59 260 261
f 260 59 58
f 262 263 264
f 263 262 265
f 263 266 264
f 266 263 267
f 268 60 57
f 60 268 269
f 267 209 266
f 209 267 208
f 268 262 269
f 262 268 265
f 270 271 272
f 271 270 273
f 172 274 275
f 274 172 276
f 276 172 211
f 276 211 277
f 277 211 213
f 277 213 278
f 278 213 203
f 278 203 205
f 278 205 279
f 279 205 206
f 279 206 280
f 280 206 208
f 280 208 281
f 281 208 267
f 281 267 263
f 281 263 282
f 282 263 265
f 282 265 283
f 283 265 268
f 283 268 247
f 247 268 57
f 247 57 241
f 241 57 59
f 241 59 261
f 241 261 239
f 239 261 284
f 239 284 270
f 239 270 272
f 239 272 237
f 237 272 242
f 242 272 285
f 242 285 244
f 244 285 286
f 286 285 287
f 286 287 231
f 231 287 288
f 231 288 229
f 229 288 234
f 234 288 289
f 234 289 224
f 224 289 290
f 224 290 227
f 227 290 291
f 227 291 233
f 233 291 292
f 233 292 220
f 220 292 293
f 220 293 218
f 218 293 294
f 218 294 214
f 214 294 295
f 214 295 217
f 217 295 296
f 217 296 297
f 217 297 223
f 223 297 298
f 223 298 299
f 299 298 300
f 299 300 301
f 301 300 302
f 301 302 303
f 301 303 259
f 259 303 304
f 259 304 305
f 259 305 306
f 259 306 307
f 259 307 308
f 259 308 257
f 257 308 251
f 251 308 249
f 249 308 309
f 249 309 310
f 284 273 270
f 273 284 311
f 261 311 284
f 311 261 260
f 233 221 232
f 221 233 220
f 312 231 228
f 231 312 286
f 245 286 312
f 286 245 244
f 235 224 226
f 224 235 234
f 313 314 315
f 314 313 316
f 176 181 180
f 181 176 178
f 317 318 319
f 318 317 320
f 317 321 320
f 321 317 322
f 323 314 324
f 314 323 315
f 325 326 327
f 326 325 328
f 329 318 330
f 318 329 319
f 318 321 330
f 321 318 320
f 313 331 316
f 331 313 332
f 314 331 324
f 331 314 316
f 333 334 335
f 334 333 336
f 337 338 339
f 338 337 340
f 333 341 342
f 341 333 335
f 40 343 344
f 343 40 345
f 345 40 346
f 345 346 347
f 346 40 42
f 348 347 346
f 41 346 42
f 346 41 349
f 350 351 352
f 351 350 353
f 283 246 354
f 246 283 247
f 282 354 355
f 354 282 283
f 281 355 356
f 355 281 282
f 280 356 357
f 356 280 281
f 358 280 357
f 280 358 279
f 278 358 359
f 358 278 279
f 277 359 360
f 359 277 278
f 277 361 276
f 361 277 360
f 276 362 274
f 362 276 361
f 274 363 275
f 363 274 364
f 364 274 365
f 365 274 362
f 366 309 367
f 309 366 310
f 250 310 366
f 310 250 249
f 368 369 370
f 369 368 371
f 306 372 307
f 374 306 375
f 375 306 376
f 212 377 378
f 377 212 379
f 172 379 211
f 211 379 212
f 295 380 381
f 380 295 294
f 296 381 382
f 381 296 295
f 296 383 297
f 383 296 382
f 351 384 385
f 384 351 353
f 272 386 285
f 386 272 271
f 285 387 287
f 387 285 386
f 287 388 288
f 388 287 387
f 288 389 289
f 389 288 388
f 290 389 390
f 389 290 289
f 391 290 390
f 290 391 291
f 292 391 392
f 391 292 291
f 293 392 393
f 392 293 292
f 294 393 380
f 393 294 293
f 297 394 298
f 394 297 383
f 298 395 300
f 395 298 394
f 396 397 398
f 397 24 26
f 24 397 198
f 198 397 399
f 399 397 396
f 198 399 400
f 396 401 402
f 401 396 398
f 300 403 302
f 403 300 395
f 302 404 303
f 404 302 403
f 303 405 304
f 405 303 404
f 304 406 305
f 406 304 405
f 305 376 306
f 376 305 406
f 407 408 409
f 408 407 410
f 411 412 413
f 412 411 414
f 411 415 414
f 415 411 416
f 412 415 417
f 415 412 414
f 418 412 417
f 412 418 413
f 419 369 371
f 369 419 420
f 421 368 370
f 368 421 422
f 423 424 425
f 424 423 426
f 253 152 254
f 152 253 153
f 424 427 428
f 427 424 426
f 429 424 428
f 424 429 425
f 430 431 432
f 431 430 433
f 423 427 426
f 427 423 434
f 419 368 422
f 368 419 371
f 430 435 436
f 435 430 432
f 437 435 438
f 435 437 436
f 151 253 255
f 253 151 153
f 439 440 441
f 440 439 442
f 443 326 444
f 326 443 327
f 445 446 447
f 446 445 448
f 435 431 438
f 431 435 432
f 449 450 451
f 450 449 452
f 453 454 455
f 454 453 456
f 457 454 458
f 454 457 455
f 449 446 448
f 446 449 451
f 450 445 447
f 445 450 452
f 459 347 460
f 347 459 345
f 461 443 444
f 443 461 462
f 367 308 463
f 308 367 309
f 464 440 442
f 440 464 465
f 374 173 377
f 173 374 466
f 373 174 379
f 174 373 372
f 467 468 469
f 468 467 470
f 471 472 473
f 472 471 474
f 472 468 473
f 468 472 469
f 475 476 477
f 476 475 478
f 479 480 481
f 480 479 482
f 480 476 481
f 476 480 477
f 475 480 482
f 480 475 477
f 483 484 485
f 484 483 486
f 487 488 489
f 488 487 490
f 488 484 489
f 484 488 485
f 483 488 490
f 488 483 485
f 467 472 474
f 472 467 469
f 43 344 40
f 344 43 491
f 492 493 494
f 493 492 495
f 493 496 497
f 496 493 495
f 498 493 497
f 493 498 494
f 459 343 345
f 343 459 499
f 377 174 173
f 373 377 374
f 377 373 379
f 373 466 372
f 466 373 374
f 466 174 372
f 492 496 495
f 496 492 500
f 400 501 502
f 501 400 399
f 397 401 398
f 401 397 503
f 199 400 502
f 374 378 375
f 504 505 506
f 505 504 507
f 508 509 510
f 509 508 511
f 509 505 510
f 505 509 506
f 512 513 514
f 513 512 515
f 516 517 518
f 517 516 519
f 517 513 518
f 513 517 514
f 512 517 519
f 517 512 514
f 504 509 511
f 509 504 506
f 520 338 340
f 338 520 521
f 453 522 456
f 522 453 523
f 522 457 458
f 457 522 523
f 462 332 461
f 332 462 313
f 466 524 525
f 524 466 526
f 526 466 527
f 527 466 528
f 528 466 529
f 529 466 13
f 13 466 19
f 19 466 9
f 9 466 8
f 8 466 1
f 1 466 3
f 3 466 34
f 34 466 47
f 47 466 52
f 52 466 51
f 51 466 28
f 28 466 23
f 23 466 530
f 530 466 531
f 531 466 155
f 155 466 146
f 146 466 175
f 175 466 177
f 177 466 317
f 317 466 319
f 319 466 419
f 419 466 422
f 422 466 430
f 430 466 436
f 436 466 411
f 411 466 413
f 413 466 423
f 423 466 425
f 425 466 151
f 151 466 255
f 255 466 464
f 464 466 442
f 442 466 325
f 325 466 462
f 511 163 508
f 163 511 173
f 173 511 462
f 173 462 466
f 442 328 439
f 328 442 325
f 519 507 516
f 507 519 504
f 474 515 471
f 515 474 512
f 494 470 498
f 470 494 467
f 482 500 479
f 500 482 492
f 490 478 487
f 478 490 475
f 189 486 186
f 486 189 483
f 149 201 185
f 201 149 200
f 315 192 323
f 192 315 147
f 255 532 252
f 532 255 464
f 425 154 429
f 154 425 151
f 413 434 418
f 434 413 423
f 436 416 437
f 416 436 411
f 422 433 421
f 433 422 430
f 319 420 329
f 420 319 419
f 177 322 179
f 322 177 317
f 146 182 143
f 182 146 175
f 531 158 533
f 158 531 155
f 23 534 20
f 534 23 530
f 51 31 48
f 31 51 28
f 47 55 44
f 55 47 52
f 3 37 32
f 37 3 34
f 8 56 5
f 56 8 1
f 19 12 38
f 12 19 9
f 535 13 16
f 13 535 529
f 527 536 537
f 536 527 528
f 538 459 460
f 459 491 499
f 491 459 43
f 43 459 349
f 349 459 538
f 43 349 41
f 538 347 348
f 347 538 460
f 346 538 348
f 538 346 349
f 325 443 462
f 443 325 327
f 464 539 465
f 539 464 532
f 440 539 441
f 539 440 465
f 337 334 336
f 334 337 339
f 384 540 385
f 540 384 541
f 351 540 352
f 540 351 385
f 350 540 541
f 540 350 352
f 350 451 541
f 451 350 353
f 450 353 456
f 450 456 447
f 522 353 458
f 541 446 384
f 446 541 451
f 384 446 447
f 384 447 454
f 454 447 456
f 384 454 458
f 384 458 353
f 197 338 521
f 338 334 339
f 334 338 335
f 341 338 194
f 194 338 197
f 520 197 521
f 197 520 193
f 137 510 163
f 510 137 141
f 510 141 505
f 505 141 518
f 505 518 507
f 518 141 513
f 513 141 473
f 513 473 515
f 473 141 468
f 468 141 497
f 468 497 470
f 497 141 496
f 496 141 481
f 496 481 500
f 481 141 476
f 476 141 489
f 476 489 478
f 489 141 484
f 484 141 188
f 484 188 486
f 188 141 190
f 190 141 184
f 190 184 201
f 184 141 183
f 183 141 324
f 183 324 192
f 324 141 331
f 331 141 444
f 331 444 332
f 444 141 326
f 326 141 441
f 326 441 328
f 441 141 539
f 539 141 254
f 539 254 532
f 254 141 152
f 152 141 428
f 152 428 154
f 428 141 427
f 427 141 417
f 427 417 434
f 417 141 415
f 415 141 438
f 415 438 416
f 438 141 431
f 431 141 370
f 431 370 433
f 370 141 369
f 369 141 330
f 369 330 420
f 330 141 321
f 321 141 180
f 321 180 322
f 180 141 181
f 181 141 182
f 182 141 145
f 145 141 156
f 156 141 158
f 158 141 533
f 533 141 542
f 142 542 141
f 542 142 543
f 543 142 140
f 543 140 22
f 543 22 534
f 22 140 29
f 29 140 50
f 29 50 31
f 50 140 54
f 54 140 46
f 54 46 55
f 46 140 35
f 35 140 33
f 35 33 37
f 33 140 39
f 39 140 7
f 39 7 56
f 7 140 11
f 11 140 18
f 11 18 12
f 18 140 14
f 14 140 544
f 14 544 16
f 544 140 545
f 545 140 546
f 545 546 536
f 546 140 547
f 547 140 524
f 524 140 525
f 537 536 546
f 535 16 544
f 38 12 18
f 5 56 7
f 32 37 33
f 44 55 46
f 48 31 50
f 20 534 22
f 143 182 145
f 179 322 180
f 329 420 330
f 421 433 370
f 437 416 438
f 418 434 417
f 429 154 428
f 252 532 254
f 439 328 441
f 461 332 444
f 323 192 324
f 185 201 184
f 186 486 188
f 487 478 489
f 479 500 481
f 498 470 497
f 471 515 473
f 516 507 518
f 508 163 510
f 160 548 549
f 548 160 550
f 551 549 552
f 549 551 160
f 463 551 552
f 551 463 554
f 554 463 555
f 555 463 556
f 556 463 557
f 557 463 558
f 558 463 559
f 559 463 560
f 560 463 561
f 561 463 562
f 562 463 563
f 563 463 564
f 564 463 308
f 138 160 139
f 160 138 553
f 565 259 256
f 259 565 301
f 566 301 565
f 301 566 299
f 222 299 566
f 299 222 223
f 204 213 210
f 213 204 203
f 173 363 364
f 567 548 550
f 548 567 365
f 365 567 568
f 365 568 569
f 365 569 570
f 365 570 571
f 365 571 572
f 365 572 573
f 365 573 574
f 365 574 575
f 365 575 576
f 365 576 577
f 365 577 275
f 358 199 359
f 199 358 198
f 198 358 194
f 198 194 196
f 198 196 24
f 357 195 358
f 195 357 193
f 193 357 356
f 193 356 355
f 193 355 354
f 219 40 221
f 40 219 43
f 43 219 216
f 43 216 215
f 43 215 222
f 366 367 250
f 361 365 362
f 365 361 548
f 548 361 549
f 549 361 360
f 549 360 27
f 549 27 552
f 27 360 359
f 552 27 24
f 552 24 344
f 344 24 196
f 344 196 197
f 344 197 354
f 344 354 312
f 312 354 246
f 312 246 245
f 245 246 240
f 245 240 243
f 243 240 236
f 243 236 238
f 344 312 228
f 344 228 230
f 344 230 235
f 344 235 226
f 344 226 225
f 344 225 232
f 344 232 221
f 552 344 491
f 552 491 222
f 552 222 566
f 552 566 565
f 552 565 256
f 552 256 258
f 552 258 248
f 552 248 250
f 552 250 367
f 562 578 561
f 578 562 579
f 551 580 553
f 580 551 554
f 559 581 582
f 581 559 560
f 558 582 583
f 582 558 559
f 557 583 584
f 583 557 558
f 585 547 546
f 547 585 586
f 166 573 572
f 573 166 167
f 160 567 550
f 567 160 159
f 159 568 567
f 568 159 161
f 161 569 568
f 569 161 162
f 308 587 564
f 587 308 307
f 564 588 563
f 588 564 587
f 589 140 590
f 140 589 525
f 525 589 584
f 525 584 583
f 525 583 582
f 525 582 581
f 525 581 578
f 525 578 579
f 525 579 588
f 525 588 587
f 525 587 307
f 580 138 553
f 138 580 590
f 138 590 140
f 555 589 590
f 589 555 556
f 556 584 589
f 584 556 557
f 554 590 580
f 590 554 555
f 397 25 503
f 25 397 26
f 526 547 586
f 547 526 524
f 591 592 593
f 592 591 594
f 594 591 595
f 594 595 596
f 594 596 597
f 598 599 600
f 599 598 601
f 601 598 602
f 601 602 603
f 601 603 604
f 535 605 544
f 605 535 529
f 528 545 606
f 545 528 536
f 526 585 527
f 585 526 586
f 195 333 342
f 333 195 340
f 340 195 520
f 520 195 193
f 333 337 336
f 337 333 340
f 195 341 194
f 341 195 342
f 533 607 542
f 607 533 531
f 607 543 542
f 543 607 608
f 199 25 27
f 25 199 503
f 503 199 501
f 503 501 401
f 501 199 502
f 402 401 501
f 605 545 544
f 545 605 606
f 537 585 546
f 585 537 527
f 609 610 611
f 610 609 612
f 612 609 613
f 612 613 614
f 612 614 615
f 501 396 402
f 396 501 399
f 210 378 212
f 378 210 375
f 375 210 204
f 375 204 202
f 375 202 207
f 375 207 388
f 388 207 209
f 388 209 387
f 387 209 266
f 387 266 386
f 386 266 264
f 386 264 271
f 271 264 262
f 271 262 269
f 271 269 273
f 273 269 60
f 273 60 311
f 311 60 58
f 311 58 260
f 375 388 389
f 375 389 390
f 375 390 391
f 375 391 392
f 375 392 393
f 375 393 380
f 375 380 381
f 375 381 382
f 375 382 383
f 375 383 394
f 375 394 395
f 375 395 403
f 375 403 404
f 375 404 405
f 375 405 406
f 375 406 376
f 172 577 171
f 528 605 529
f 605 528 606
f 530 607 531
f 607 530 608
f 530 543 608
f 543 530 534
f 169 574 168
f 574 169 575
f 561 581 560
f 581 561 578
f 491 343 499
f 170 575 169
f 575 170 576
f 171 576 170
f 576 171 577
f 172 363 174
f 363 172 275
f 563 579 562
f 579 563 588
f 164 571 570
f 571 164 165
f 165 572 571
f 572 165 166
f 162 570 569
f 570 162 164
f 168 573 167
f 573 168 574
