# Unified Preprocessed OBJ file from D01199.obj
# Applied remeshing: Yes
# Applied 4-step normalization: centering, PCA alignment, flipping, scaling
# Generated on 2025-09-29 15:03:55

v -0.407603 0.170126 -0.165956
v -0.323996 -0.284312 -0.034561
v -0.310588 -0.282444 -0.038124
v -0.421011 0.168258 -0.162393
v -0.447521 0.293429 0.300875
v -0.467381 0.288940 0.300055
v -0.401151 0.172747 -0.161573
v -0.182533 -0.240709 -0.031755
v -0.277628 0.187998 -0.153167
v -0.185581 -0.241398 -0.031880
v -0.274581 0.188687 -0.153041
v -0.175929 -0.252007 -0.032564
v -0.285815 0.196697 -0.164314
v -0.188800 -0.255873 -0.036482
v -0.272944 0.200562 -0.160396
v -0.201916 -0.259584 -0.039668
v -0.312250 0.189439 -0.169945
v -0.215235 -0.263130 -0.042113
v -0.298931 0.192985 -0.167500
v -0.366714 0.177129 -0.172193
v -0.283397 -0.278001 -0.043032
v -0.269699 -0.275441 -0.044362
v -0.380412 0.174568 -0.170864
v -0.325731 0.186070 -0.171641
v -0.228716 -0.266499 -0.043809
v -0.398561 0.160664 -0.158160
v -0.306513 -0.268732 -0.036873
v -0.353006 0.179905 -0.172767
v -0.255991 -0.272664 -0.044935
v -0.183203 -0.252489 -0.028748
v -0.304136 -0.279823 -0.033741
v -0.163343 -0.248000 -0.027928
v -0.260358 0.204570 -0.155760
v -0.310588 -0.282444 -0.038126
v -0.297041 -0.280339 -0.040954
v -0.297041 -0.280338 -0.040951
v -0.283397 -0.278003 -0.043037
v -0.269699 -0.275442 -0.044367
v -0.255990 -0.272666 -0.044941
v -0.242315 -0.269682 -0.044757
v -0.242315 -0.269680 -0.044751
v -0.228715 -0.266501 -0.043815
v -0.215234 -0.263132 -0.042118
v -0.201915 -0.259586 -0.039672
v -0.188799 -0.255874 -0.036485
v -0.175928 -0.252008 -0.032566
v -0.350506 -0.159141 0.428707
v -0.370366 -0.163630 0.427887
v -0.227510 -0.123655 0.416794
v -0.351490 -0.151677 0.411676
v -0.443537 0.277719 0.290389
v -0.319557 0.305742 0.295508
v -0.394056 0.172231 -0.168783
v -0.180156 -0.251800 -0.028622
v -0.280218 0.200081 -0.156580
v -0.306728 0.325251 0.306688
v -0.326589 0.320762 0.305868
v -0.229574 -0.131807 0.433700
v -0.339330 0.182889 -0.172583
v -0.209714 -0.127318 0.434520
v -0.109169 0.237399 -0.154273
v -0.135679 0.362570 0.308994
v -0.155539 0.358081 0.308174
v -0.089309 0.241888 -0.153453
v -0.168281 0.220207 -0.170276
v -0.084941 -0.235346 -0.042629
v -0.071266 -0.232362 -0.042444
v -0.181956 0.217224 -0.170460
v -0.133086 -0.242504 -0.031434
v -0.180441 -0.114359 0.413982
v -0.135464 -0.231414 -0.034567
v -0.179457 -0.121822 0.431013
v -0.276472 0.330747 0.303181
v -0.227511 0.197983 -0.155853
v -0.230101 0.210065 -0.159266
v -0.272488 0.315037 0.292696
v 0.007706 -0.210681 -0.025621
v -0.101894 0.237881 -0.158090
v -0.004879 -0.214689 -0.030258
v -0.249961 0.205576 -0.160086
v -0.152947 -0.246993 -0.032254
v -0.139539 -0.245125 -0.035817
v -0.139539 -0.245126 -0.035819
v -0.125992 -0.243021 -0.038648
v -0.125992 -0.243020 -0.038644
v -0.112347 -0.240684 -0.040730
v -0.112347 -0.240683 -0.040726
v -0.098650 -0.238124 -0.042061
v -0.098650 -0.238122 -0.042055
v -0.084941 -0.235347 -0.042635
v -0.071265 -0.232364 -0.042450
v -0.057666 -0.229181 -0.041503
v -0.057666 -0.229182 -0.041508
v -0.044186 -0.225812 -0.039807
v -0.044185 -0.225813 -0.039812
v -0.030866 -0.222266 -0.037362
v -0.030865 -0.222267 -0.037366
v -0.017751 -0.218555 -0.034175
v -0.017750 -0.218555 -0.034179
v -0.004879 -0.214689 -0.030260
v -0.296332 0.326258 0.302361
v -0.199317 -0.126311 0.430193
v -0.056461 -0.086336 0.419101
v -0.014531 -0.204080 -0.029574
v -0.011484 -0.203391 -0.029448
v -0.038664 -0.090000 0.436826
v -0.058524 -0.094489 0.436006
v -0.236554 0.207444 -0.163649
v -0.106579 0.225316 -0.150860
v -0.103531 0.226005 -0.150735
v -0.114765 0.234015 -0.162007
v -0.141200 0.226758 -0.167638
v -0.127881 0.230303 -0.165193
v -0.195664 0.214447 -0.169887
v -0.209362 0.211887 -0.168557
v -0.154681 0.223389 -0.169334
v -0.012154 -0.215170 -0.026441
v -0.148508 0.343060 0.297814
v -0.223006 0.209550 -0.166476
v -0.009107 -0.214482 -0.026316
v -0.058123 0.234938 -0.153569
v 0.020880 0.380016 0.300098
v -0.103100 0.351993 0.294980
v 0.062809 0.262272 -0.148576
v 0.065857 0.262961 -0.148450
v 0.154857 -0.167124 -0.027290
v 0.160281 -0.177526 -0.024031
v 0.157234 -0.178214 -0.024157
v 0.157904 -0.166435 -0.027164
v 0.177094 -0.173726 -0.023337
v 0.033709 0.399526 0.311278
v 0.080079 0.278844 -0.151169
v 0.130724 -0.053044 0.439110
v -0.067166 0.244400 -0.161365
v -0.060713 0.247021 -0.156982
v -0.080573 0.242532 -0.157802
v -0.053618 0.246506 -0.164192
v 0.060219 0.274355 -0.151989
v -0.039974 0.248842 -0.166273
v -0.026276 0.251403 -0.167603
v -0.012568 0.254180 -0.168176
v 0.001107 0.257163 -0.167992
v 0.014707 0.260345 -0.167050
v 0.028188 0.263713 -0.165354
v 0.041507 0.267259 -0.162909
v 0.054623 0.270971 -0.159723
v 0.067494 0.274836 -0.155806
v 0.084447 -0.198390 -0.040345
v 0.098122 -0.195406 -0.040160
v 0.112927 -0.049380 0.421385
v -0.011053 -0.077403 0.416266
v 0.029849 -0.208170 -0.033533
v 0.043396 -0.206064 -0.036360
v 0.036301 -0.205548 -0.029150
v 0.016441 -0.210037 -0.029970
v 0.057041 -0.203727 -0.038442
v 0.070738 -0.201166 -0.039771
v 0.111722 -0.192225 -0.039219
v 0.125202 -0.188856 -0.037523
v 0.138522 -0.185310 -0.035077
v 0.151637 -0.181599 -0.031891
v 0.164508 -0.177733 -0.027974
v -0.107084 0.367703 0.305465
v -0.126944 0.363214 0.304645
v 0.033924 -0.194458 -0.032283
v 0.029849 -0.208170 -0.033535
v 0.043396 -0.206065 -0.036363
v 0.057041 -0.203728 -0.038446
v 0.070738 -0.201168 -0.039777
v 0.084447 -0.198391 -0.040350
v 0.098123 -0.195408 -0.040166
v 0.111722 -0.192226 -0.039224
v 0.125203 -0.188857 -0.037528
v 0.138523 -0.185311 -0.035082
v 0.151638 -0.181599 -0.031895
v 0.164509 -0.177733 -0.027976
v -0.010069 -0.084867 0.433297
v -0.029929 -0.089356 0.432477
v 0.013849 0.395037 0.310458
v 0.110864 -0.057533 0.438290
v 0.470891 -0.091288 -0.041106
v 0.153628 0.250884 -0.155256
v 0.460160 -0.100134 -0.039513
v 0.164359 0.259730 -0.156849
v 0.422197 -0.127568 -0.022173
v 0.372459 -0.007390 0.425200
v 0.414685 -0.118966 -0.025009
v 0.378663 -0.012535 0.441987
v 0.072131 0.338483 0.326243
v 0.123848 0.214078 -0.134826
v 0.115665 0.223449 -0.137916
v 0.081623 0.325654 0.315384
v 0.512769 -0.054307 -0.039861
v 0.195991 0.287284 -0.157058
v 0.502523 -0.063733 -0.041315
v 0.206237 0.296711 -0.155604
v 0.210510 0.302730 -0.148669
v 0.182553 0.430783 0.313725
v 0.166976 0.417763 0.315491
v 0.226086 0.315750 -0.150435
v 0.178859 0.406932 0.304360
v 0.218694 0.293358 -0.145579
v 0.221084 0.295356 -0.145850
v 0.489085 0.079765 0.429468
v 0.473509 0.066746 0.431234
v 0.056554 0.325463 0.328009
v 0.406621 -0.140588 -0.020407
v 0.100088 0.210430 -0.136150
v 0.363087 -0.025555 0.443752
v 0.532619 -0.035268 -0.034691
v 0.511921 -0.037688 -0.036033
v 0.519433 -0.046290 -0.033196
v 0.417200 -0.133088 -0.025678
v 0.110667 0.217930 -0.141421
v 0.509531 -0.039686 -0.035762
v 0.522812 -0.044808 -0.037651
v 0.216279 0.306210 -0.153394
v 0.185574 0.277959 -0.157751
v 0.492106 -0.073059 -0.042008
v 0.449391 -0.108764 -0.037165
v 0.132086 0.233867 -0.149813
v 0.438619 -0.117150 -0.034070
v 0.142859 0.242254 -0.152909
v 0.175019 0.268765 -0.157681
v 0.481551 -0.082253 -0.041938
v 0.517043 -0.048288 -0.032925
v 0.417200 -0.133088 -0.025679
v 0.427877 -0.125268 -0.030240
v 0.427877 -0.125267 -0.030237
v 0.438619 -0.117152 -0.034074
v 0.449391 -0.108765 -0.037171
v 0.460160 -0.100136 -0.039519
v 0.470892 -0.091289 -0.041112
v 0.481552 -0.082254 -0.041944
v 0.492107 -0.073060 -0.042013
v 0.502524 -0.063734 -0.041319
v 0.512770 -0.054307 -0.039864
v 0.522812 -0.044808 -0.037652
v 0.469695 0.073888 0.414177
v 0.121345 0.225751 -0.145980
v -0.365800 -0.057093 -0.100258
v -0.317292 -0.283378 -0.036342
v -0.359096 -0.056159 -0.102040
v -0.414307 0.169192 -0.164174
v -0.372503 -0.058027 -0.098477
v -0.434266 0.230843 0.069241
v -0.457451 0.291184 0.300465
v -0.444196 0.228599 0.068831
v -0.411081 0.170502 -0.161983
v -0.424336 0.233088 0.069651
v -0.230081 -0.026356 -0.092461
v -0.231604 -0.026700 -0.092524
v -0.184057 -0.241054 -0.031818
v -0.228557 -0.026011 -0.092398
v -0.276104 0.188342 -0.153104
v -0.230872 -0.027655 -0.098439
v -0.237307 -0.029588 -0.100398
v -0.182364 -0.253940 -0.034523
v -0.224436 -0.025723 -0.096480
v -0.279379 0.198629 -0.162355
v -0.257083 -0.035073 -0.104806
v -0.263742 -0.036846 -0.106029
v -0.208575 -0.261357 -0.040891
v -0.250423 -0.033300 -0.103584
v -0.305590 0.191212 -0.168722
v -0.325055 -0.050436 -0.107613
v -0.276548 -0.276721 -0.043697
v -0.318206 -0.049156 -0.108278
v -0.373563 0.175849 -0.171529
v -0.331904 -0.051717 -0.106948
v -0.270483 -0.038530 -0.106877
v -0.277223 -0.040214 -0.107725
v -0.221975 -0.264815 -0.042961
v -0.318990 0.187755 -0.170793
v -0.292071 -0.040367 -0.095020
v -0.246047 -0.255065 -0.034377
v -0.352537 -0.054034 -0.097517
v -0.338094 0.174331 -0.155663
v -0.311352 -0.047768 -0.108564
v -0.262845 -0.274052 -0.044648
v -0.304498 -0.046379 -0.108851
v -0.359860 0.178517 -0.172480
v -0.244858 -0.260610 -0.032811
v -0.305325 -0.274277 -0.035307
v -0.243670 -0.266156 -0.031244
v -0.184392 -0.246943 -0.030314
v -0.218143 -0.023719 -0.094162
v -0.169636 -0.250004 -0.030246
v -0.211851 -0.021715 -0.091844
v -0.266651 0.202566 -0.158078
v -0.362573 -0.055782 -0.098067
v -0.314066 -0.282067 -0.034151
v -0.363762 -0.050237 -0.099633
v -0.409786 0.164461 -0.160276
v -0.399856 0.166706 -0.159866
v -0.310588 -0.282444 -0.038125
v -0.317292 -0.283378 -0.036343
v -0.303815 -0.281392 -0.039539
v -0.303815 -0.281392 -0.039540
v -0.303815 -0.281391 -0.039537
v -0.297041 -0.280339 -0.040952
v -0.290219 -0.279170 -0.041994
v -0.290219 -0.279171 -0.041995
v -0.290219 -0.279170 -0.041991
v -0.283397 -0.278002 -0.043034
v -0.276548 -0.276722 -0.043700
v -0.276548 -0.276722 -0.043702
v -0.269699 -0.275441 -0.044364
v -0.262845 -0.274053 -0.044651
v -0.262845 -0.274054 -0.044654
v -0.255991 -0.272665 -0.044938
v -0.249153 -0.271173 -0.044846
v -0.249153 -0.271174 -0.044849
v -0.249153 -0.271172 -0.044843
v -0.242315 -0.269681 -0.044754
v -0.235516 -0.268090 -0.044280
v -0.235515 -0.268091 -0.044283
v -0.228715 -0.266500 -0.043812
v -0.235515 -0.268091 -0.044286
v -0.221975 -0.264815 -0.042964
v -0.215235 -0.263131 -0.042116
v -0.221975 -0.264816 -0.042967
v -0.208575 -0.261358 -0.040893
v -0.201915 -0.259585 -0.039670
v -0.208574 -0.261359 -0.040895
v -0.195358 -0.257729 -0.038075
v -0.195357 -0.257729 -0.038077
v -0.188799 -0.255873 -0.036483
v -0.195357 -0.257730 -0.038079
v -0.182364 -0.253940 -0.034525
v -0.175929 -0.252007 -0.032565
v -0.182364 -0.253941 -0.034526
v -0.169636 -0.250004 -0.030247
v -0.408944 0.064899 0.364381
v -0.360436 -0.161385 0.428297
v -0.418874 0.062655 0.363971
v -0.399014 0.067144 0.364791
v -0.267012 -0.196193 0.189960
v -0.329002 -0.210205 0.187401
v -0.289500 -0.137666 0.414235
v -0.206545 -0.182526 0.192457
v -0.205022 -0.182182 0.192520
v -0.335524 0.077032 0.353592
v -0.397514 0.063021 0.351032
v -0.381547 0.291730 0.292949
v -0.273534 0.091044 0.356151
v -0.251045 0.032516 0.131877
v -0.297069 0.247214 0.071233
v -0.352322 -0.055106 -0.103453
v -0.345548 -0.054053 -0.104867
v -0.400829 0.171178 -0.167369
v -0.307362 -0.281133 -0.035932
v -0.300588 -0.280080 -0.037346
v -0.240122 -0.266413 -0.034849
v -0.233300 -0.265245 -0.035890
v -0.226451 -0.263965 -0.036555
v -0.219597 -0.262576 -0.036841
v -0.212759 -0.261085 -0.036749
v -0.205960 -0.259494 -0.036278
v -0.199219 -0.257809 -0.035430
v -0.192560 -0.256037 -0.034208
v -0.186002 -0.254181 -0.032615
v -0.179566 -0.252248 -0.030656
v -0.181680 -0.252144 -0.028685
v -0.178042 -0.251904 -0.030593
v -0.171750 -0.249900 -0.028275
v -0.338726 -0.052885 -0.105907
v -0.387234 0.173400 -0.169823
v -0.359059 0.233203 0.068674
v -0.421049 0.219192 0.066115
v -0.298593 0.246870 0.071171
v -0.293473 0.262666 0.075054
v -0.316658 0.323007 0.306278
v -0.303403 0.260422 0.074644
v -0.270288 0.202325 -0.156170
v -0.283543 0.264911 0.075464
v -0.302108 0.254380 0.076350
v -0.278923 0.194039 -0.154873
v -0.256085 0.039682 0.136994
v -0.254896 0.034137 0.138560
v -0.278081 0.094478 0.369784
v -0.206389 -0.192148 0.202476
v -0.297660 -0.044887 -0.108759
v -0.290823 -0.043396 -0.108667
v -0.346168 0.181397 -0.172675
v -0.327813 -0.215750 0.188967
v -0.327321 -0.219482 0.197483
v -0.350998 -0.155409 0.420191
v -0.399506 0.070876 0.356275
v -0.423041 0.227046 0.071358
v -0.445529 0.285574 0.295632
v -0.243865 -0.031444 -0.101991
v -0.292373 0.194841 -0.165907
v -0.172938 -0.244355 -0.029841
v -0.181345 -0.246255 -0.030188
v -0.221446 -0.018070 -0.093757
v -0.267469 0.196628 -0.154400
v -0.277399 0.194384 -0.154810
v -0.337251 -0.221726 0.197073
v -0.347181 -0.223971 0.196663
v -0.196458 -0.189903 0.202886
v -0.219644 -0.129562 0.434110
v -0.194935 -0.189559 0.202949
v -0.186528 -0.187659 0.203296
v -0.182868 -0.246599 -0.030251
v -0.284023 -0.041805 -0.108196
v -0.332530 0.184480 -0.172112
v -0.235036 0.038626 0.139380
v -0.258221 0.098967 0.370604
v -0.404377 0.171436 -0.163764
v -0.397603 0.172489 -0.165178
v -0.337137 0.186156 -0.162681
v -0.340684 0.186414 -0.159076
v -0.330315 0.187324 -0.163722
v -0.323466 0.188605 -0.164387
v -0.316612 0.189993 -0.164673
v -0.309774 0.191485 -0.164581
v -0.302974 0.193076 -0.164110
v -0.296234 0.194760 -0.163262
v -0.289574 0.196533 -0.162040
v -0.283016 0.198389 -0.160447
v -0.276581 0.200321 -0.158488
v -0.268151 0.096722 0.370194
v -0.395689 0.002314 0.132747
v -0.122424 0.299984 0.077361
v -0.145609 0.360325 0.308584
v -0.132354 0.297740 0.076951
v -0.099239 0.239644 -0.153863
v -0.112494 0.302229 0.077770
v -0.126611 -0.007569 -0.106452
v -0.078104 -0.233854 -0.042536
v -0.119773 -0.006077 -0.106360
v -0.175118 0.218716 -0.170368
v -0.133449 -0.009061 -0.106545
v -0.156764 -0.178432 0.191274
v -0.157952 -0.172886 0.189708
v -0.134275 -0.236959 -0.033001
v -0.156272 -0.182163 0.199789
v -0.179949 -0.118091 0.422498
v -0.227964 0.104462 0.367097
v -0.228456 0.108194 0.358582
v -0.251991 0.264365 0.073664
v -0.253286 0.270406 0.071958
v -0.228806 0.204024 -0.157560
v -0.250000 0.256510 0.068421
v -0.274480 0.322892 0.297938
v -0.226464 0.100339 0.353339
v -0.047094 0.013600 -0.091856
v -0.053387 0.011596 -0.094174
v 0.001413 -0.212685 -0.027940
v -0.040801 0.015603 -0.089537
v -0.095601 0.239884 -0.155771
v -0.191524 -0.018464 -0.095760
v -0.201454 -0.020708 -0.096170
v -0.143017 -0.244749 -0.031844
v -0.192713 -0.012919 -0.097327
v -0.181488 -0.016716 -0.095210
v -0.238736 0.201779 -0.157970
v -0.240031 0.207821 -0.159676
v -0.139539 -0.245126 -0.035818
v -0.146243 -0.246060 -0.034037
v -0.146243 -0.246059 -0.034036
v -0.132765 -0.244073 -0.037233
v -0.132765 -0.244073 -0.037233
v -0.132765 -0.244073 -0.037231
v -0.125992 -0.243020 -0.038646
v -0.119169 -0.241852 -0.039687
v -0.119170 -0.241853 -0.039689
v -0.119169 -0.241851 -0.039685
v -0.112347 -0.240684 -0.040728
v -0.105498 -0.239403 -0.041393
v -0.105498 -0.239404 -0.041395
v -0.105499 -0.239403 -0.041390
v -0.098650 -0.238123 -0.042058
v -0.091795 -0.236735 -0.042345
v -0.091795 -0.236735 -0.042348
v -0.091795 -0.236734 -0.042342
v -0.084941 -0.235346 -0.042632
v -0.078103 -0.233855 -0.042540
v -0.078103 -0.233855 -0.042542
v -0.071266 -0.232363 -0.042447
v -0.064466 -0.230771 -0.041973
v -0.064466 -0.230772 -0.041976
v -0.057666 -0.229181 -0.041506
v -0.064465 -0.230773 -0.041979
v -0.050926 -0.227496 -0.040655
v -0.050926 -0.227497 -0.040658
v -0.044185 -0.225813 -0.039809
v -0.050925 -0.227498 -0.040660
v -0.037526 -0.224039 -0.038584
v -0.037526 -0.224040 -0.038587
v -0.030866 -0.222267 -0.037364
v -0.037525 -0.224040 -0.038589
v -0.024308 -0.220410 -0.035768
v -0.024308 -0.220411 -0.035771
v -0.017750 -0.218555 -0.034177
v -0.024308 -0.220411 -0.035772
v -0.011315 -0.216622 -0.032217
v -0.011315 -0.216622 -0.032218
v -0.004879 -0.214689 -0.030259
v -0.011314 -0.216622 -0.032219
v 0.001414 -0.212685 -0.027941
v -0.237894 0.102218 0.366687
v -0.189387 -0.124067 0.430603
v -0.247824 0.099973 0.366277
v -0.286402 0.328502 0.302771
v -0.095962 -0.158875 0.192267
v -0.118451 -0.100348 0.416541
v -0.035496 -0.145208 0.194763
v -0.074998 -0.217747 -0.032070
v -0.033972 -0.144864 0.194826
v -0.013008 -0.203735 -0.029511
v -0.097102 0.134041 0.372500
v -0.048594 -0.092244 0.436416
v -0.107032 0.131796 0.372090
v -0.087172 0.136285 0.372910
v -0.224639 0.039632 0.135053
v -0.273147 0.265917 0.071138
v -0.176132 -0.186652 0.198969
v -0.194750 -0.019775 -0.097952
v -0.188046 -0.018841 -0.099733
v -0.243258 0.206510 -0.161868
v -0.263217 0.268162 0.071548
v -0.059031 0.010963 -0.090154
v -0.060555 0.010618 -0.090217
v -0.057508 0.011307 -0.090091
v -0.105055 0.225661 -0.150797
v -0.059822 0.009663 -0.096132
v -0.066258 0.007730 -0.098091
v -0.108330 0.235948 -0.160048
v -0.086033 0.002246 -0.102500
v -0.092693 0.000473 -0.103722
v -0.079374 0.004019 -0.101277
v -0.134541 0.228530 -0.166416
v -0.154006 -0.013118 -0.105306
v -0.147157 -0.011837 -0.105971
v -0.202513 0.213167 -0.169222
v -0.160855 -0.014398 -0.104642
v -0.099433 -0.001212 -0.104570
v -0.106174 -0.002896 -0.105418
v -0.147941 0.225073 -0.168486
v -0.121021 -0.003049 -0.092714
v -0.167045 0.211650 -0.153357
v -0.140303 -0.010449 -0.106258
v -0.188810 0.215836 -0.170174
v -0.073809 -0.223292 -0.030504
v -0.072620 -0.228837 -0.028938
v -0.013343 -0.209625 -0.028008
v -0.164474 0.114351 0.355898
v -0.210498 0.329049 0.295255
v -0.102484 0.128362 0.358458
v -0.079996 0.069835 0.134183
v -0.126020 0.284533 0.073540
v -0.181273 -0.017788 -0.101147
v -0.174499 -0.016735 -0.102560
v -0.229780 0.208497 -0.165063
v -0.136313 -0.243815 -0.033626
v -0.129539 -0.242762 -0.035039
v -0.069073 -0.229095 -0.032543
v -0.062251 -0.227927 -0.033584
v -0.055402 -0.226646 -0.034248
v -0.048548 -0.225258 -0.034535
v -0.041710 -0.223766 -0.034443
v -0.034910 -0.222176 -0.033972
v -0.028170 -0.220491 -0.033124
v -0.021510 -0.218718 -0.031901
v -0.014952 -0.216862 -0.030308
v -0.008517 -0.214930 -0.028350
v -0.010630 -0.214826 -0.026378
v -0.006993 -0.214585 -0.028287
v -0.000700 -0.212581 -0.025968
v -0.167677 -0.015567 -0.103601
v -0.216184 0.210718 -0.167517
v -0.025409 -0.152585 0.205192
v -0.035339 -0.154829 0.204782
v -0.023885 -0.152241 0.205255
v -0.015479 -0.150341 0.205602
v -0.011819 -0.209281 -0.027945
v -0.010295 -0.208936 -0.027882
v -0.112974 -0.004487 -0.105889
v -0.161481 0.221798 -0.169805
v -0.072816 0.005874 -0.099684
v -0.121323 0.232159 -0.163600
v -0.001889 -0.207036 -0.027535
v -0.050396 0.019249 -0.091451
v -0.096420 0.233947 -0.152094
v -0.106350 0.231702 -0.152504
v -0.107874 0.231358 -0.152567
v -0.166202 -0.184408 0.199379
v -0.131059 0.291699 0.078657
v -0.085035 0.077001 0.139300
v -0.083847 0.071455 0.140866
v -0.063986 0.075944 0.141686
v -0.233327 0.208755 -0.161458
v -0.226554 0.209807 -0.162871
v -0.166088 0.223474 -0.160375
v -0.169635 0.223732 -0.156770
v -0.159265 0.224643 -0.161415
v -0.152417 0.225923 -0.162080
v -0.145562 0.227311 -0.162367
v -0.138725 0.228803 -0.162275
v -0.131925 0.230394 -0.161804
v -0.125185 0.232078 -0.160956
v -0.118525 0.233851 -0.159733
v -0.111967 0.235707 -0.158140
v -0.105531 0.237640 -0.156181
v -0.188010 0.270521 0.070981
v -0.127543 0.284188 0.073477
v -0.018622 0.307477 0.073265
v -0.041110 0.366005 0.297539
v -0.080612 0.293466 0.070705
v 0.002343 0.248605 -0.151073
v 0.041845 0.321144 0.075761
v 0.064333 0.262617 -0.148513
v 0.043368 0.321489 0.075824
v 0.157569 -0.172325 -0.025661
v 0.158758 -0.177870 -0.024094
v 0.156045 -0.172669 -0.025724
v 0.156380 -0.166779 -0.027227
v 0.159093 -0.171980 -0.025598
v 0.105402 0.112900 0.143970
v 0.056894 0.339185 0.080055
v 0.128587 0.052559 -0.087253
v 0.153909 -0.113385 0.207886
v 0.082216 0.173241 0.375194
v -0.063939 0.245710 -0.159174
v -0.070643 0.244777 -0.157392
v -0.073870 0.243466 -0.159584
v -0.060392 0.245453 -0.162779
v -0.057166 0.246763 -0.160587
v 0.003300 0.260430 -0.158091
v -0.000247 0.260688 -0.154486
v -0.046796 0.247674 -0.165233
v 0.010122 0.261599 -0.159131
v -0.033125 0.250123 -0.166938
v 0.016971 0.262879 -0.159796
v -0.019422 0.252791 -0.167890
v 0.023825 0.264267 -0.160083
v -0.005730 0.255672 -0.168084
v 0.030663 0.265759 -0.159991
v 0.007907 0.258754 -0.167521
v 0.037463 0.267350 -0.159520
v 0.021447 0.262029 -0.166202
v 0.044203 0.269034 -0.158672
v 0.034847 0.265486 -0.164132
v 0.050863 0.270807 -0.157449
v 0.048065 0.269115 -0.161316
v 0.057421 0.272663 -0.155856
v 0.061058 0.272904 -0.157764
v 0.063856 0.274596 -0.153897
v 0.073787 0.276840 -0.153487
v 0.070149 0.276599 -0.151579
v 0.042777 0.029387 -0.104168
v 0.091284 -0.196898 -0.040252
v 0.049615 0.030879 -0.104076
v 0.035939 0.027895 -0.104261
v 0.004914 0.151306 0.358182
v 0.050937 -0.063392 0.418825
v -0.057076 0.137295 0.355623
v 0.066904 0.165318 0.360742
v 0.089392 0.106790 0.136467
v 0.111880 0.048263 -0.087807
v 0.135416 -0.107908 0.197110
v -0.011885 0.019168 -0.098863
v 0.036623 -0.207117 -0.034947
v -0.005111 0.020221 -0.100276
v -0.018658 0.018115 -0.097449
v 0.033075 -0.206859 -0.031342
v 0.023145 -0.209103 -0.031752
v 0.026371 -0.207793 -0.029560
v 0.039849 -0.205806 -0.032755
v 0.096768 -0.191881 -0.026654
v 0.100315 -0.192139 -0.030259
v 0.107137 -0.190971 -0.031299
v 0.050218 -0.204895 -0.037401
v 0.113986 -0.189690 -0.031964
v 0.063889 -0.202447 -0.039106
v 0.120840 -0.188302 -0.032251
v 0.077592 -0.199778 -0.040058
v 0.127678 -0.186810 -0.032159
v 0.134478 -0.185220 -0.031688
v 0.104922 -0.193815 -0.039689
v 0.141218 -0.183535 -0.030840
v 0.118462 -0.190540 -0.038371
v 0.147878 -0.181762 -0.029617
v 0.131862 -0.187083 -0.036300
v 0.154436 -0.179907 -0.028024
v 0.145079 -0.183454 -0.033484
v 0.160871 -0.177974 -0.026066
v 0.158073 -0.179666 -0.029932
v 0.162395 -0.177629 -0.026003
v 0.168688 -0.175626 -0.023684
v 0.170801 -0.175729 -0.025656
v 0.001711 0.021389 -0.101317
v 0.008533 0.022558 -0.102358
v -0.025362 0.017181 -0.095668
v -0.032066 0.016247 -0.093886
v -0.093829 0.305117 0.073832
v -0.117014 0.365458 0.305055
v -0.103759 0.302873 0.073422
v -0.083898 0.307362 0.074242
v 0.110357 0.047919 -0.087870
v 0.108833 0.047574 -0.087933
v 0.109566 0.046619 -0.093848
v 0.103130 0.044686 -0.095807
v 0.116001 0.048552 -0.091890
v 0.083355 0.039202 -0.100216
v 0.076695 0.037429 -0.101438
v 0.090014 0.040975 -0.098993
v 0.015382 0.023838 -0.103022
v 0.022231 0.025118 -0.103687
v 0.069955 0.035744 -0.102286
v 0.063214 0.034060 -0.103134
v 0.048367 0.033907 -0.090430
v 0.094390 -0.180791 -0.029786
v -0.012100 0.020240 -0.092926
v 0.029085 0.026507 -0.103974
v 0.095579 -0.186336 -0.028220
v 0.035113 -0.200003 -0.030717
v 0.073426 -0.121919 0.194551
v 0.011436 -0.135930 0.191992
v 0.133892 -0.108252 0.197047
v 0.122294 0.050555 -0.089571
v -0.022136 0.018492 -0.093476
v -0.023325 0.024037 -0.095042
v -0.069348 0.238735 -0.155686
v -0.059418 0.240980 -0.155276
v 0.029849 -0.208170 -0.033534
v 0.023145 -0.209104 -0.031753
v 0.036623 -0.207117 -0.034948
v 0.036623 -0.207117 -0.034949
v 0.043396 -0.206064 -0.036362
v 0.050218 -0.204896 -0.037403
v 0.050218 -0.204897 -0.037405
v 0.057041 -0.203728 -0.038444
v 0.063889 -0.202447 -0.039109
v 0.063889 -0.202448 -0.039111
v 0.070738 -0.201167 -0.039774
v 0.077593 -0.199779 -0.040061
v 0.077593 -0.199780 -0.040064
v 0.084447 -0.198390 -0.040348
v 0.091285 -0.196899 -0.040255
v 0.091285 -0.196899 -0.040258
v 0.098122 -0.195407 -0.040163
v 0.104922 -0.193816 -0.039692
v 0.111722 -0.192226 -0.039221
v 0.104922 -0.193817 -0.039695
v 0.118462 -0.190541 -0.038373
v 0.125203 -0.188857 -0.037525
v 0.118463 -0.190542 -0.038376
v 0.131862 -0.187084 -0.036303
v 0.138522 -0.185311 -0.035080
v 0.131863 -0.187084 -0.036305
v 0.145080 -0.183455 -0.033487
v 0.151638 -0.181599 -0.031893
v 0.145080 -0.183455 -0.033488
v 0.158073 -0.179666 -0.029934
v 0.164509 -0.177733 -0.027975
v 0.158074 -0.179666 -0.029935
v 0.170802 -0.175729 -0.025656
v -0.068506 0.139174 0.368971
v -0.019999 -0.087111 0.432887
v -0.078436 0.136929 0.368561
v -0.058576 0.141418 0.369381
v 0.012624 -0.141476 0.193558
v 0.013116 -0.145207 0.202073
v -0.010561 -0.081135 0.424782
v -0.059068 0.145150 0.360866
v -0.082603 0.301321 0.075948
v -0.105092 0.359848 0.300222
v 0.046964 0.336940 0.079645
v 0.023779 0.397281 0.310868
v 0.037034 0.334696 0.079235
v 0.072286 0.170996 0.374784
v 0.120794 -0.055288 0.438700
v 0.062356 0.168752 0.374374
v -0.055251 0.076588 0.137338
v -0.006744 -0.149696 0.201253
v 0.096572 0.042830 -0.097400
v 0.167499 -0.170080 -0.025251
v 0.118992 0.056204 -0.089167
v 0.072968 0.270903 -0.149810
v 0.063038 0.268658 -0.150220
v 0.061514 0.268314 -0.150283
v 0.038329 0.328655 0.080941
v 0.084353 0.113956 0.141584
v 0.085541 0.108411 0.143150
v 0.134049 -0.117874 0.207066
v 0.003186 -0.147452 0.201663
v 0.143979 -0.115629 0.207476
v 0.145503 -0.115285 0.207539
v 0.056414 0.032469 -0.103605
v 0.312259 0.079798 -0.098181
v 0.306894 0.075375 -0.097385
v 0.465525 -0.095711 -0.040309
v 0.317625 0.084221 -0.098977
v 0.158993 0.255307 -0.156053
v 0.397328 -0.067479 0.201514
v 0.393572 -0.063178 0.200095
v 0.418441 -0.123267 -0.023591
v 0.400430 -0.070051 0.209907
v 0.375561 -0.009962 0.433593
v 0.225397 0.162974 0.384115
v 0.222295 0.165546 0.375722
v 0.097989 0.276281 0.095709
v 0.093898 0.280966 0.094164
v 0.119756 0.218764 -0.136371
v 0.102735 0.269866 0.090279
v 0.076877 0.332069 0.320813
v 0.227041 0.159132 0.370292
v 0.354380 0.116489 -0.098459
v 0.349257 0.111775 -0.099186
v 0.507646 -0.059020 -0.040588
v 0.359503 0.121202 -0.097732
v 0.201114 0.291998 -0.156331
v 0.196531 0.366756 0.082528
v 0.174765 0.424273 0.314608
v 0.188743 0.360247 0.083411
v 0.218298 0.309240 -0.149552
v 0.204320 0.373266 0.081645
v 0.151353 0.310505 0.084767
v 0.130241 0.366293 0.309872
v 0.171271 0.253718 -0.140202
v 0.198776 0.350145 0.079391
v 0.219889 0.294357 -0.145714
v 0.199971 0.351144 0.079255
v 0.328031 0.248764 0.372480
v 0.481297 0.073256 0.430351
v 0.320243 0.242254 0.373362
v 0.335819 0.255274 0.371597
v 0.231588 0.092438 0.153801
v 0.253354 0.034921 -0.078279
v 0.078321 0.267946 0.095929
v 0.209821 0.149954 0.385881
v 0.384854 -0.083071 0.211673
v 0.522270 -0.036478 -0.035362
v 0.515677 -0.041989 -0.034615
v 0.526026 -0.040779 -0.033944
v 0.379353 0.140241 -0.092563
v 0.369004 0.139031 -0.093234
v 0.223585 0.305553 -0.148142
v 0.366502 0.128834 -0.090941
v 0.215797 0.299043 -0.147259
v 0.214602 0.298044 -0.147124
v 0.258644 0.038671 -0.080914
v 0.411910 -0.136838 -0.023042
v 0.263934 0.042421 -0.083549
v 0.105378 0.214180 -0.138786
v 0.086109 0.274456 0.095047
v 0.064342 0.331973 0.327126
v 0.107876 0.216940 -0.137033
v 0.365307 0.127835 -0.090806
v 0.364112 0.126836 -0.090670
v 0.510726 -0.038687 -0.035897
v 0.364524 0.125951 -0.096627
v 0.517790 -0.049557 -0.038756
v 0.369545 0.130701 -0.095522
v 0.211258 0.301460 -0.154499
v 0.344049 0.107113 -0.099533
v 0.338840 0.102450 -0.099879
v 0.497315 -0.068396 -0.041661
v 0.190783 0.282622 -0.157405
v 0.290739 0.062552 -0.093489
v 0.285353 0.058359 -0.091942
v 0.444005 -0.112957 -0.035618
v 0.296125 0.066745 -0.095037
v 0.137473 0.238061 -0.151361
v 0.333563 0.097853 -0.099845
v 0.328285 0.093256 -0.099810
v 0.486829 -0.077656 -0.041973
v 0.180297 0.273362 -0.157716
v 0.316690 0.087196 -0.085294
v 0.462108 -0.079326 -0.030386
v 0.269267 0.047556 -0.079918
v 0.465864 -0.083627 -0.028967
v 0.469620 -0.087928 -0.027549
v 0.513287 -0.043987 -0.034344
v 0.374449 0.135471 -0.094043
v 0.527715 -0.040038 -0.036171
v 0.221183 0.310980 -0.151914
v 0.261143 0.041431 -0.079162
v 0.414409 -0.134078 -0.021290
v 0.257387 0.045732 -0.080580
v 0.111968 0.212254 -0.135488
v 0.417200 -0.133088 -0.025678
v 0.411910 -0.136838 -0.023043
v 0.422538 -0.129178 -0.027959
v 0.422538 -0.129178 -0.027960
v 0.422538 -0.129177 -0.027957
v 0.427877 -0.125267 -0.030238
v 0.433248 -0.121209 -0.032156
v 0.433248 -0.121210 -0.032157
v 0.433248 -0.121209 -0.032153
v 0.438619 -0.117151 -0.034072
v 0.444005 -0.112958 -0.035620
v 0.444005 -0.112959 -0.035622
v 0.449391 -0.108765 -0.037168
v 0.454776 -0.104450 -0.038342
v 0.454776 -0.104451 -0.038345
v 0.454775 -0.104449 -0.038339
v 0.460160 -0.100135 -0.039516
v 0.465526 -0.095712 -0.040312
v 0.465526 -0.095712 -0.040315
v 0.470891 -0.091289 -0.041109
v 0.476221 -0.086770 -0.041522
v 0.476221 -0.086771 -0.041525
v 0.481552 -0.082254 -0.041941
v 0.476222 -0.086772 -0.041528
v 0.486829 -0.077657 -0.041976
v 0.492107 -0.073059 -0.042011
v 0.486830 -0.077657 -0.041979
v 0.497315 -0.068397 -0.041664
v 0.502524 -0.063734 -0.041317
v 0.497316 -0.068397 -0.041666
v 0.507647 -0.059020 -0.040590
v 0.512770 -0.054307 -0.039862
v 0.507647 -0.059021 -0.040592
v 0.517791 -0.049558 -0.038757
v 0.522812 -0.044808 -0.037652
v 0.517791 -0.049558 -0.038758
v 0.527715 -0.040038 -0.036172
v 0.217609 0.156464 0.384998
v 0.370875 -0.019045 0.442870
v 0.442190 -0.022539 0.194584
v 0.421077 0.033249 0.419689
v 0.489613 0.017101 0.189208
v 0.490808 0.018100 0.189072
v 0.275659 0.199771 0.364780
v 0.324277 0.240410 0.359268
v 0.345390 0.184622 0.134164
v 0.269272 0.046332 -0.085829
v 0.274611 0.050242 -0.088108
v 0.116006 0.221841 -0.143700
v 0.419698 -0.130328 -0.023925
v 0.425037 -0.126417 -0.026205
v 0.472460 -0.086777 -0.031581
v 0.477831 -0.082719 -0.033498
v 0.483217 -0.078526 -0.035045
v 0.488601 -0.074211 -0.036219
v 0.493967 -0.069788 -0.037016
v 0.499297 -0.065270 -0.037432
v 0.504575 -0.060673 -0.037467
v 0.509783 -0.056011 -0.037120
v 0.514906 -0.051297 -0.036393
v 0.519927 -0.046548 -0.035288
v 0.518238 -0.047289 -0.033061
v 0.521122 -0.045549 -0.035424
v 0.279982 0.054300 -0.090025
v 0.126716 0.229809 -0.147897
v 0.192835 0.355561 0.084956
v 0.338254 0.189039 0.139865
v 0.342010 0.184738 0.141283
v 0.495276 0.009229 0.199154
v 0.392642 -0.076561 0.210790
v 0.503064 0.015739 0.198271
v 0.504259 0.016738 0.198136
v 0.510852 0.022249 0.197388
v 0.322955 0.088738 -0.099393
v 0.169689 0.264247 -0.157265
v 0.514482 -0.042988 -0.034479
v 0.301509 0.071060 -0.096211
v 0.148243 0.246569 -0.154082
v 0.357586 0.197758 0.139517
v 0.113166 0.220690 -0.139668
v 0.118505 0.224600 -0.141948
v 0.165928 0.264240 -0.147324
v 0.163087 0.263090 -0.143292
v 0.171298 0.268299 -0.149241
v 0.176685 0.272492 -0.150789
v 0.182069 0.276807 -0.151962
v 0.187435 0.281230 -0.152759
v 0.192765 0.285747 -0.153175
v 0.198042 0.290344 -0.153210
v 0.203251 0.295007 -0.152863
v 0.208374 0.299720 -0.152136
v 0.213395 0.304470 -0.151031
f 1 241 243
f 241 2 242
f 242 3 243
f 241 242 243
f 241 1 244
f 241 244 245
f 4 246 248
f 246 5 247
f 247 6 248
f 246 247 248
f 5 246 250
f 246 4 249
f 249 7 250
f 246 249 250
f 8 251 253
f 251 252 253
f 9 251 255
f 251 254 255
f 12 256 258
f 256 13 257
f 257 14 258
f 256 257 258
f 13 256 260
f 256 12 259
f 259 15 260
f 256 259 260
f 16 261 263
f 261 17 262
f 262 18 263
f 261 262 263
f 17 261 265
f 261 16 264
f 264 19 265
f 261 264 265
f 20 266 268
f 266 21 267
f 267 22 268
f 266 267 268
f 21 266 270
f 266 20 269
f 269 23 270
f 266 269 270
f 18 271 273
f 271 24 272
f 272 25 273
f 271 272 273
f 24 271 274
f 271 18 262
f 262 17 274
f 271 262 274
f 26 275 277
f 275 10 276
f 276 27 277
f 275 276 277
f 10 275 252
f 275 26 278
f 278 9 252
f 275 278 252
f 28 279 281
f 279 22 280
f 280 29 281
f 279 280 281
f 22 279 268
f 279 28 282
f 282 20 268
f 279 282 268
f 30 283 285
f 283 27 284
f 284 31 285
f 283 284 285
f 283 30 286
f 283 286 276
f 32 287 288
f 287 15 259
f 259 12 288
f 287 259 288
f 15 287 290
f 287 289 290
f 31 291 292
f 291 4 245
f 245 2 292
f 291 245 292
f 4 291 293
f 291 284 293
f 4 293 294
f 293 27 277
f 277 26 294
f 293 277 294
f 4 294 249
f 294 26 295
f 295 7 249
f 294 295 249
f 296 34 297
f 296 297 242
f 34 296 299
f 296 3 298
f 298 35 299
f 296 298 299
f 35 298 301
f 298 300 301
f 35 301 303
f 301 36 302
f 302 37 303
f 301 302 303
f 37 302 305
f 302 304 305
f 37 305 307
f 305 21 306
f 306 38 307
f 305 306 307
f 38 306 308
f 306 267 308
f 38 308 310
f 308 22 309
f 309 39 310
f 308 309 310
f 39 309 311
f 309 280 311
f 39 311 313
f 311 29 312
f 312 40 313
f 311 312 313
f 40 312 315
f 312 314 315
f 40 315 317
f 315 316 317
f 40 317 319
f 317 25 318
f 318 42 319
f 317 318 319
f 42 318 320
f 318 273 320
f 42 320 322
f 320 18 321
f 321 43 322
f 320 321 322
f 43 321 323
f 321 263 323
f 43 323 325
f 323 16 324
f 324 44 325
f 323 324 325
f 44 324 327
f 324 326 327
f 44 327 329
f 327 14 328
f 328 45 329
f 327 328 329
f 45 328 330
f 328 258 330
f 45 330 332
f 330 12 331
f 331 46 332
f 330 331 332
f 46 331 333
f 331 288 333
f 6 334 336
f 334 47 335
f 335 48 336
f 334 335 336
f 47 334 337
f 334 6 247
f 247 5 337
f 334 247 337
f 49 338 340
f 338 27 339
f 339 50 340
f 338 339 340
f 27 338 276
f 338 49 341
f 341 10 276
f 338 341 276
f 10 341 253
f 341 49 342
f 342 8 253
f 341 342 253
f 51 343 344
f 343 49 340
f 340 50 344
f 343 340 344
f 49 343 346
f 343 51 345
f 345 52 346
f 343 345 346
f 8 347 254
f 347 52 348
f 348 11 254
f 347 348 254
f 52 347 346
f 347 8 342
f 342 49 346
f 347 342 346
f 53 349 350
f 349 3 300
f 300 36 350
f 349 300 350
f 3 349 243
f 349 53 351
f 351 1 243
f 349 351 243
f 352 3 242
f 352 242 292
f 3 352 300
f 352 31 353
f 353 36 300
f 352 353 300
f 36 353 354
f 353 31 285
f 285 30 354
f 353 285 354
f 36 354 304
f 354 30 355
f 355 21 304
f 354 355 304
f 21 355 267
f 355 30 356
f 356 22 267
f 355 356 267
f 22 356 280
f 356 30 357
f 357 29 280
f 356 357 280
f 29 357 314
f 357 30 358
f 358 41 314
f 357 358 314
f 41 358 316
f 358 30 359
f 359 25 316
f 358 359 316
f 25 359 273
f 359 30 360
f 360 18 273
f 359 360 273
f 18 360 263
f 360 30 361
f 361 16 263
f 360 361 263
f 16 361 326
f 361 30 362
f 362 14 326
f 361 362 326
f 14 362 258
f 362 30 363
f 363 12 258
f 362 363 258
f 12 363 365
f 363 30 364
f 363 364 365
f 12 365 288
f 365 366 288
f 23 367 270
f 367 36 304
f 304 21 270
f 367 304 270
f 36 367 350
f 367 23 368
f 368 53 350
f 367 368 350
f 26 369 370
f 369 52 345
f 345 51 370
f 369 345 370
f 52 369 371
f 369 26 278
f 278 9 371
f 369 278 371
f 52 371 348
f 371 9 255
f 255 11 348
f 371 255 348
f 55 372 374
f 372 56 373
f 373 57 374
f 372 373 374
f 56 372 376
f 372 55 375
f 375 33 376
f 372 375 376
f 57 377 374
f 377 9 378
f 378 55 374
f 377 378 374
f 9 377 252
f 377 57 379
f 379 10 252
f 377 379 252
f 10 379 286
f 379 57 380
f 380 30 286
f 379 380 286
f 30 380 382
f 380 57 381
f 381 58 382
f 380 381 382
f 59 383 384
f 383 29 314
f 314 41 384
f 383 314 384
f 29 383 281
f 383 59 385
f 385 28 281
f 383 385 281
f 31 386 284
f 386 50 339
f 339 27 284
f 386 339 284
f 50 386 388
f 386 31 387
f 387 47 388
f 386 387 388
f 50 388 389
f 388 47 337
f 337 5 389
f 388 337 389
f 26 390 295
f 390 5 250
f 250 7 295
f 390 250 295
f 5 390 391
f 390 26 370
f 370 51 391
f 390 370 391
f 5 391 389
f 391 51 344
f 344 50 389
f 391 344 389
f 14 392 326
f 392 19 264
f 264 16 326
f 392 264 326
f 19 392 393
f 392 14 257
f 257 13 393
f 392 257 393
f 32 394 366
f 394 8 395
f 395 54 366
f 394 395 366
f 8 394 396
f 394 32 289
f 289 33 396
f 394 289 396
f 8 396 254
f 396 33 397
f 397 11 254
f 396 397 254
f 11 397 398
f 397 33 375
f 375 55 398
f 397 375 398
f 55 378 398
f 255 11 398
f 378 255 398
f 47 399 335
f 399 2 400
f 400 48 335
f 399 400 335
f 2 399 292
f 399 47 387
f 387 31 292
f 399 387 292
f 60 401 402
f 401 30 382
f 382 58 402
f 401 382 402
f 30 401 364
f 401 60 403
f 403 54 364
f 401 403 364
f 54 403 366
f 403 60 404
f 404 32 366
f 403 404 366
f 405 54 364
f 405 364 286
f 54 405 395
f 405 10 253
f 405 253 395
f 25 406 316
f 406 59 384
f 384 41 316
f 406 384 316
f 59 406 407
f 406 25 272
f 272 24 407
f 406 272 407
f 32 408 289
f 408 56 376
f 376 33 289
f 408 376 289
f 56 408 409
f 408 32 404
f 404 60 409
f 408 404 409
f 1 410 244
f 410 249 244
f 7 410 411
f 410 1 351
f 351 53 411
f 410 351 411
f 7 411 413
f 411 53 412
f 412 55 413
f 411 412 413
f 55 412 414
f 412 53 368
f 368 23 414
f 412 368 414
f 55 414 415
f 414 23 269
f 269 20 415
f 414 269 415
f 55 415 416
f 415 20 282
f 282 28 416
f 415 282 416
f 55 416 417
f 416 28 385
f 385 59 417
f 416 385 417
f 55 417 418
f 417 59 407
f 407 24 418
f 417 407 418
f 55 418 419
f 418 24 274
f 274 17 419
f 418 274 419
f 55 419 420
f 419 17 265
f 265 19 420
f 419 265 420
f 55 420 421
f 420 19 393
f 393 13 421
f 420 393 421
f 55 421 422
f 421 13 260
f 260 15 422
f 421 260 422
f 422 15 290
f 422 290 375
f 57 423 381
f 423 60 402
f 402 58 381
f 423 402 381
f 60 423 409
f 423 57 373
f 373 56 409
f 423 373 409
f 6 424 248
f 424 2 245
f 245 4 248
f 424 245 248
f 2 424 400
f 424 6 336
f 336 48 400
f 424 336 400
f 61 425 427
f 425 62 426
f 426 63 427
f 425 426 427
f 62 425 429
f 425 61 428
f 428 64 429
f 425 428 429
f 65 430 432
f 430 66 431
f 431 67 432
f 430 431 432
f 66 430 434
f 430 65 433
f 433 68 434
f 430 433 434
f 69 435 437
f 435 70 436
f 436 71 437
f 435 436 437
f 70 435 439
f 435 69 438
f 438 72 439
f 435 438 439
f 70 439 441
f 439 72 440
f 440 73 441
f 439 440 441
f 74 442 444
f 442 73 443
f 443 75 444
f 442 443 444
f 73 442 446
f 442 74 445
f 445 76 446
f 442 445 446
f 73 446 441
f 446 76 447
f 447 70 441
f 446 447 441
f 77 448 450
f 448 78 449
f 449 79 450
f 448 449 450
f 78 448 452
f 448 451 452
f 69 453 455
f 453 80 454
f 454 81 455
f 453 454 455
f 80 453 456
f 453 437 456
f 80 456 458
f 456 71 457
f 457 74 458
f 456 457 458
f 80 458 459
f 458 74 444
f 444 75 459
f 458 444 459
f 460 83 461
f 460 461 462
f 83 460 464
f 460 82 463
f 463 84 464
f 460 463 464
f 84 463 466
f 463 465 466
f 84 466 468
f 466 85 467
f 467 86 468
f 466 467 468
f 86 467 470
f 467 469 470
f 86 470 472
f 470 87 471
f 471 88 472
f 470 471 472
f 88 471 474
f 471 473 474
f 88 474 476
f 474 89 475
f 475 90 476
f 474 475 476
f 90 475 478
f 475 477 478
f 90 478 480
f 478 66 479
f 479 91 480
f 478 479 480
f 91 479 481
f 479 431 481
f 91 481 483
f 481 482 483
f 91 483 485
f 483 92 484
f 484 93 485
f 483 484 485
f 93 484 487
f 484 486 487
f 93 487 489
f 487 94 488
f 488 95 489
f 487 488 489
f 95 488 491
f 488 490 491
f 95 491 493
f 491 96 492
f 492 97 493
f 491 492 493
f 97 492 495
f 492 494 495
f 97 495 497
f 495 98 496
f 496 99 497
f 495 496 497
f 99 496 499
f 496 498 499
f 99 499 501
f 499 79 500
f 500 100 501
f 499 500 501
f 100 500 502
f 450 77 502
f 500 450 502
f 101 503 505
f 503 72 504
f 504 102 505
f 503 504 505
f 72 503 440
f 503 101 506
f 506 73 440
f 503 506 440
f 103 507 508
f 507 71 436
f 436 70 508
f 507 436 508
f 71 507 510
f 507 103 509
f 509 104 510
f 507 509 510
f 104 509 512
f 509 103 511
f 511 105 512
f 509 511 512
f 63 513 515
f 513 106 514
f 514 107 515
f 513 514 515
f 106 513 516
f 513 63 426
f 426 62 516
f 513 426 516
f 101 517 518
f 517 81 454
f 454 80 518
f 517 454 518
f 81 517 519
f 517 101 505
f 505 102 519
f 517 505 519
f 108 520 521
f 520 81 462
f 462 82 521
f 520 462 521
f 520 108 522
f 520 522 454
f 80 523 518
f 523 73 506
f 506 101 518
f 523 506 518
f 73 523 443
f 523 80 459
f 459 75 443
f 523 459 443
f 105 524 512
f 524 525 512
f 109 524 527
f 524 526 527
f 79 528 498
f 528 111 529
f 529 98 498
f 528 529 498
f 111 528 530
f 528 79 449
f 449 78 530
f 528 449 530
f 96 531 490
f 531 112 532
f 532 94 490
f 531 532 490
f 112 531 534
f 531 96 533
f 533 113 534
f 531 533 534
f 114 535 536
f 535 87 473
f 473 89 536
f 535 473 536
f 87 535 538
f 535 114 537
f 537 115 538
f 535 537 538
f 94 539 486
f 539 116 540
f 540 92 486
f 539 540 486
f 116 539 541
f 539 94 532
f 532 112 541
f 539 532 541
f 74 542 457
f 542 104 510
f 510 71 457
f 542 510 457
f 104 542 525
f 542 74 543
f 543 109 525
f 542 543 525
f 68 544 434
f 544 89 477
f 477 66 434
f 544 477 434
f 89 544 536
f 544 68 545
f 545 114 536
f 544 545 536
f 117 546 547
f 546 71 437
f 437 69 547
f 546 437 547
f 546 117 548
f 546 548 510
f 76 549 447
f 549 103 508
f 508 70 447
f 549 508 447
f 103 549 551
f 549 76 550
f 550 118 551
f 549 550 551
f 105 552 526
f 552 118 553
f 553 110 526
f 552 553 526
f 118 552 551
f 552 105 511
f 511 103 551
f 552 511 551
f 119 554 555
f 554 82 465
f 465 85 555
f 554 465 555
f 82 554 521
f 554 119 556
f 556 108 521
f 554 556 521
f 557 82 462
f 557 462 455
f 82 557 465
f 557 69 558
f 558 85 465
f 557 558 465
f 85 558 559
f 558 69 547
f 547 117 559
f 558 547 559
f 85 559 469
f 559 117 560
f 560 87 469
f 559 560 469
f 87 560 473
f 560 117 561
f 561 89 473
f 560 561 473
f 89 561 477
f 561 117 562
f 562 66 477
f 561 562 477
f 66 562 431
f 562 117 563
f 563 67 431
f 562 563 431
f 67 563 482
f 563 117 564
f 564 92 482
f 563 564 482
f 92 564 486
f 564 117 565
f 565 94 486
f 564 565 486
f 94 565 490
f 565 117 566
f 566 96 490
f 565 566 490
f 96 566 494
f 566 117 567
f 567 98 494
f 566 567 494
f 98 567 498
f 567 117 568
f 568 79 498
f 567 568 498
f 79 568 570
f 568 117 569
f 568 569 570
f 79 570 450
f 570 571 450
f 115 572 538
f 572 85 469
f 469 87 538
f 572 469 538
f 85 572 555
f 572 115 573
f 573 119 555
f 572 573 555
f 106 574 514
f 574 117 575
f 575 107 514
f 574 575 514
f 117 574 569
f 574 106 576
f 576 120 569
f 574 576 569
f 120 576 571
f 576 106 577
f 577 77 571
f 576 577 571
f 104 578 548
f 578 120 569
f 578 569 548
f 120 578 579
f 578 104 512
f 578 512 579
f 92 580 482
f 580 65 432
f 432 67 482
f 580 432 482
f 65 580 581
f 580 92 540
f 540 116 581
f 580 540 581
f 98 582 494
f 582 113 533
f 533 96 494
f 582 533 494
f 113 582 583
f 582 98 529
f 529 111 583
f 582 529 583
f 77 584 571
f 584 105 579
f 579 120 571
f 584 579 571
f 105 584 585
f 584 77 451
f 451 64 585
f 584 451 585
f 105 585 526
f 585 64 586
f 586 110 526
f 585 586 526
f 110 586 587
f 586 64 428
f 428 61 587
f 586 428 587
f 61 588 587
f 588 527 587
f 72 589 504
f 589 81 519
f 519 102 504
f 589 519 504
f 81 589 455
f 589 72 438
f 438 69 455
f 589 438 455
f 63 590 427
f 590 109 588
f 588 61 427
f 590 588 427
f 109 590 525
f 590 63 591
f 591 104 525
f 590 591 525
f 104 591 548
f 591 63 592
f 592 117 548
f 591 592 548
f 117 592 575
f 592 63 515
f 515 107 575
f 592 515 575
f 77 593 451
f 593 62 429
f 429 64 451
f 593 429 451
f 62 593 516
f 593 77 577
f 577 106 516
f 593 577 516
f 108 594 522
f 594 459 522
f 75 594 595
f 594 108 556
f 556 119 595
f 594 556 595
f 75 595 597
f 595 119 596
f 596 61 597
f 595 596 597
f 61 596 598
f 596 119 573
f 573 115 598
f 596 573 598
f 61 598 599
f 598 115 537
f 537 114 599
f 598 537 599
f 61 599 600
f 599 114 545
f 545 68 600
f 599 545 600
f 61 600 601
f 600 68 433
f 433 65 601
f 600 433 601
f 61 601 602
f 601 65 581
f 581 116 602
f 601 581 602
f 61 602 603
f 602 116 541
f 541 112 603
f 602 541 603
f 61 603 604
f 603 112 534
f 534 113 604
f 603 534 604
f 61 604 605
f 604 113 583
f 583 111 605
f 604 583 605
f 61 605 606
f 605 111 530
f 530 78 606
f 605 530 606
f 606 78 452
f 606 452 428
f 74 607 445
f 607 118 550
f 550 76 445
f 607 550 445
f 118 607 608
f 607 74 543
f 543 109 608
f 607 543 608
f 118 608 553
f 608 109 527
f 527 110 553
f 608 527 553
f 121 609 611
f 609 122 610
f 610 123 611
f 609 610 611
f 122 609 613
f 609 121 612
f 612 124 613
f 609 612 613
f 122 613 615
f 613 124 614
f 614 125 615
f 613 614 615
f 126 616 618
f 616 127 617
f 616 617 618
f 127 616 620
f 616 619 620
f 130 621 623
f 621 131 622
f 622 132 623
f 621 622 623
f 131 621 625
f 621 130 624
f 624 133 625
f 621 624 625
f 134 626 628
f 626 627 628
f 135 626 630
f 626 134 629
f 629 137 630
f 626 629 630
f 135 630 632
f 630 137 631
f 631 138 632
f 630 631 632
f 138 631 634
f 631 137 633
f 633 139 634
f 631 633 634
f 138 634 636
f 634 139 635
f 635 140 636
f 634 635 636
f 138 636 638
f 636 140 637
f 637 141 638
f 636 637 638
f 138 638 640
f 638 141 639
f 639 142 640
f 638 639 640
f 138 640 642
f 640 142 641
f 641 143 642
f 640 641 642
f 138 642 644
f 642 143 643
f 643 144 644
f 642 643 644
f 138 644 646
f 644 144 645
f 645 145 646
f 644 645 646
f 138 646 648
f 646 145 647
f 647 146 648
f 646 647 648
f 138 648 650
f 648 146 649
f 649 147 650
f 648 649 650
f 650 147 651
f 650 651 652
f 142 653 655
f 653 148 654
f 654 149 655
f 653 654 655
f 148 653 656
f 653 142 639
f 639 141 656
f 653 639 656
f 123 657 659
f 657 150 658
f 658 151 659
f 657 658 659
f 150 657 660
f 657 123 610
f 610 122 660
f 657 610 660
f 129 661 662
f 661 122 615
f 615 125 662
f 661 615 662
f 122 661 660
f 661 129 663
f 663 150 660
f 661 663 660
f 137 664 666
f 664 152 665
f 665 153 666
f 664 665 666
f 152 664 667
f 664 137 629
f 629 134 667
f 664 629 667
f 668 152 669
f 668 669 670
f 152 668 665
f 668 154 671
f 671 153 665
f 668 671 665
f 153 671 673
f 671 154 672
f 672 128 673
f 671 672 673
f 153 673 675
f 673 128 674
f 674 156 675
f 673 674 675
f 156 674 677
f 674 128 676
f 676 157 677
f 674 676 677
f 157 676 679
f 676 128 678
f 678 148 679
f 676 678 679
f 148 678 654
f 678 128 680
f 680 149 654
f 678 680 654
f 149 680 682
f 680 128 681
f 681 158 682
f 680 681 682
f 158 681 684
f 681 128 683
f 683 159 684
f 681 683 684
f 159 683 686
f 683 128 685
f 685 160 686
f 683 685 686
f 160 685 688
f 685 128 687
f 687 161 688
f 685 687 688
f 161 687 690
f 687 128 689
f 689 162 690
f 687 689 690
f 162 689 691
f 689 128 617
f 689 617 691
f 162 691 693
f 691 692 693
f 139 694 695
f 694 153 675
f 675 156 695
f 694 675 695
f 153 694 666
f 694 139 633
f 633 137 666
f 694 633 666
f 134 696 667
f 696 155 669
f 669 152 667
f 696 669 667
f 696 134 628
f 696 628 697
f 136 698 700
f 698 163 699
f 699 164 700
f 698 699 700
f 163 698 701
f 698 136 627
f 627 135 701
f 698 627 701
f 129 702 619
f 702 703 619
f 124 702 614
f 702 662 614
f 162 704 690
f 704 146 705
f 705 161 690
f 704 705 690
f 146 704 649
f 704 162 706
f 706 147 649
f 704 706 649
f 160 707 686
f 707 144 708
f 708 159 686
f 707 708 686
f 144 707 645
f 707 160 709
f 709 145 645
f 707 709 645
f 140 710 711
f 710 156 677
f 677 157 711
f 710 677 711
f 156 710 695
f 710 140 635
f 635 139 695
f 710 635 695
f 159 712 684
f 712 143 713
f 713 158 684
f 712 713 684
f 143 712 643
f 712 159 708
f 708 144 643
f 712 708 643
f 121 714 716
f 714 126 715
f 715 165 716
f 714 715 716
f 126 714 703
f 714 121 612
f 612 124 703
f 714 612 703
f 141 717 656
f 717 157 679
f 679 148 656
f 717 679 656
f 157 717 711
f 717 141 637
f 637 140 711
f 717 637 711
f 128 718 672
f 718 165 719
f 719 154 672
f 718 719 672
f 718 128 618
f 718 618 715
f 150 720 658
f 720 165 721
f 721 151 658
f 720 721 658
f 165 720 715
f 720 150 722
f 722 126 715
f 720 722 715
f 126 722 619
f 722 150 663
f 663 129 619
f 722 663 619
f 130 723 693
f 723 147 706
f 706 162 693
f 723 706 693
f 147 723 651
f 723 623 651
f 154 724 670
f 724 136 697
f 697 155 670
f 724 697 670
f 136 724 725
f 724 719 725
f 136 725 726
f 725 165 716
f 716 121 726
f 725 716 726
f 136 726 627
f 726 121 727
f 727 135 627
f 726 727 627
f 728 166 729
f 728 729 669
f 166 728 731
f 728 152 730
f 730 167 731
f 728 730 731
f 167 730 732
f 730 665 732
f 167 732 734
f 732 153 733
f 733 168 734
f 732 733 734
f 168 733 735
f 733 675 735
f 168 735 737
f 735 156 736
f 736 169 737
f 735 736 737
f 169 736 738
f 736 677 738
f 169 738 740
f 738 157 739
f 739 170 740
f 738 739 740
f 170 739 741
f 739 679 741
f 170 741 743
f 741 148 742
f 742 171 743
f 741 742 743
f 171 742 744
f 742 654 744
f 171 744 745
f 744 682 745
f 171 745 747
f 745 158 746
f 746 172 747
f 745 746 747
f 172 746 748
f 746 684 748
f 172 748 750
f 748 159 749
f 749 173 750
f 748 749 750
f 173 749 751
f 749 686 751
f 173 751 753
f 751 160 752
f 752 174 753
f 751 752 753
f 174 752 754
f 752 688 754
f 174 754 756
f 754 161 755
f 755 175 756
f 754 755 756
f 175 755 757
f 755 690 757
f 175 757 759
f 757 162 758
f 758 176 759
f 757 758 759
f 176 758 760
f 758 693 760
f 164 761 763
f 761 177 762
f 762 178 763
f 761 762 763
f 177 761 764
f 761 164 699
f 699 163 764
f 761 699 764
f 154 765 719
f 765 151 721
f 721 165 719
f 765 721 719
f 151 765 767
f 765 154 766
f 766 177 767
f 765 766 767
f 151 767 768
f 767 177 764
f 764 163 768
f 767 764 768
f 121 769 727
f 769 163 701
f 701 135 727
f 769 701 727
f 163 769 770
f 769 121 611
f 611 123 770
f 769 611 770
f 163 770 768
f 770 123 659
f 659 151 768
f 770 659 768
f 138 771 773
f 771 131 772
f 772 179 773
f 771 772 773
f 131 771 622
f 771 138 652
f 652 132 622
f 771 652 622
f 179 774 776
f 774 133 775
f 775 180 776
f 774 775 776
f 133 774 625
f 774 179 772
f 772 131 625
f 774 772 625
f 164 777 700
f 777 155 697
f 697 136 700
f 777 697 700
f 155 777 778
f 777 164 763
f 763 178 778
f 777 763 778
f 161 779 688
f 779 145 709
f 709 160 688
f 779 709 688
f 145 779 647
f 779 161 705
f 705 146 647
f 779 705 647
f 130 780 692
f 780 129 620
f 620 127 692
f 780 620 692
f 129 780 781
f 780 130 623
f 623 132 781
f 780 623 781
f 129 781 662
f 781 132 782
f 782 125 662
f 781 782 662
f 125 782 783
f 782 132 652
f 652 138 783
f 782 652 783
f 138 784 783
f 614 125 783
f 784 614 783
f 179 785 773
f 785 124 784
f 784 138 773
f 785 784 773
f 124 785 703
f 785 179 786
f 786 126 703
f 785 786 703
f 126 786 618
f 786 179 787
f 787 128 618
f 786 787 618
f 128 787 788
f 787 179 776
f 776 180 788
f 787 776 788
f 177 789 762
f 789 155 778
f 778 178 762
f 789 778 762
f 155 789 670
f 789 177 766
f 766 154 670
f 789 766 670
f 133 790 775
f 790 128 788
f 788 180 775
f 790 788 775
f 128 790 617
f 790 133 791
f 791 127 617
f 790 791 617
f 127 791 692
f 791 133 624
f 624 130 692
f 791 624 692
f 158 792 682
f 792 142 655
f 655 149 682
f 792 655 682
f 142 792 641
f 792 158 713
f 713 143 641
f 792 713 641
f 181 793 795
f 793 182 794
f 794 183 795
f 793 794 795
f 182 793 797
f 793 181 796
f 796 184 797
f 793 796 797
f 185 798 800
f 798 186 799
f 799 187 800
f 798 799 800
f 186 798 802
f 798 185 801
f 801 188 802
f 798 801 802
f 186 802 804
f 802 188 803
f 803 189 804
f 802 803 804
f 190 805 807
f 805 189 806
f 806 191 807
f 805 806 807
f 189 805 809
f 805 190 808
f 808 192 809
f 805 808 809
f 189 809 804
f 809 192 810
f 810 186 804
f 809 810 804
f 193 811 813
f 811 194 812
f 812 195 813
f 811 812 813
f 194 811 815
f 811 193 814
f 814 196 815
f 811 814 815
f 197 816 818
f 816 198 817
f 817 199 818
f 816 817 818
f 198 816 820
f 816 197 819
f 819 200 820
f 816 819 820
f 190 821 808
f 821 201 822
f 822 192 808
f 821 822 808
f 201 821 824
f 821 190 823
f 823 202 824
f 821 823 824
f 201 824 826
f 824 202 825
f 825 203 826
f 824 825 826
f 199 827 829
f 827 204 828
f 828 205 829
f 827 828 829
f 204 827 830
f 827 199 817
f 817 198 830
f 827 817 830
f 206 831 833
f 831 207 832
f 832 208 833
f 831 832 833
f 207 831 835
f 831 206 834
f 834 209 835
f 831 834 835
f 210 836 838
f 836 211 837
f 837 212 838
f 836 837 838
f 211 836 840
f 836 210 839
f 839 200 840
f 836 839 840
f 211 840 842
f 840 200 841
f 841 203 842
f 840 841 842
f 203 841 843
f 841 200 819
f 819 197 843
f 841 819 843
f 197 844 843
f 825 203 843
f 844 825 843
f 213 845 846
f 845 832 846
f 208 845 848
f 845 213 847
f 847 214 848
f 845 847 848
f 208 849 833
f 849 189 850
f 850 206 833
f 849 850 833
f 189 849 806
f 849 208 851
f 851 191 806
f 849 851 806
f 211 852 854
f 852 853 854
f 202 852 825
f 852 842 825
f 216 855 856
f 855 196 814
f 814 193 856
f 855 814 856
f 196 855 858
f 855 216 857
f 857 217 858
f 855 857 858
f 195 859 861
f 859 218 860
f 860 219 861
f 859 860 861
f 218 859 862
f 859 195 812
f 812 194 862
f 859 812 862
f 220 863 865
f 863 221 864
f 864 222 865
f 863 864 865
f 221 863 867
f 863 220 866
f 866 223 867
f 863 866 867
f 219 868 870
f 868 224 869
f 869 225 870
f 868 869 870
f 224 868 871
f 868 219 860
f 860 218 871
f 868 860 871
f 190 872 874
f 872 215 873
f 873 187 874
f 872 873 874
f 215 872 853
f 872 190 823
f 823 202 853
f 872 823 853
f 226 875 876
f 875 187 800
f 800 185 876
f 875 800 876
f 875 226 877
f 875 877 873
f 210 878 879
f 878 217 857
f 857 216 879
f 878 857 879
f 217 878 880
f 878 839 880
f 185 881 882
f 881 208 832
f 832 207 882
f 881 832 882
f 208 881 883
f 881 800 883
f 208 883 884
f 883 187 874
f 874 190 884
f 883 874 884
f 208 884 851
f 884 190 807
f 807 191 851
f 884 807 851
f 885 227 886
f 885 886 846
f 227 885 888
f 885 213 887
f 887 228 888
f 885 887 888
f 228 887 890
f 887 889 890
f 228 890 892
f 890 229 891
f 891 230 892
f 890 891 892
f 230 891 894
f 891 893 894
f 230 894 896
f 894 222 895
f 895 231 896
f 894 895 896
f 231 895 897
f 895 865 897
f 231 897 899
f 897 220 898
f 898 232 899
f 897 898 899
f 232 898 901
f 898 900 901
f 232 901 903
f 901 183 902
f 902 233 903
f 901 902 903
f 233 902 904
f 902 795 904
f 233 904 906
f 904 905 906
f 233 906 908
f 906 225 907
f 907 234 908
f 906 907 908
f 234 907 909
f 907 870 909
f 234 909 911
f 909 219 910
f 910 235 911
f 909 910 911
f 235 910 912
f 910 861 912
f 235 912 914
f 912 195 913
f 913 236 914
f 912 913 914
f 236 913 915
f 913 813 915
f 236 915 917
f 915 193 916
f 916 237 917
f 915 916 917
f 237 916 918
f 916 856 918
f 237 918 920
f 918 216 919
f 919 238 920
f 918 919 920
f 238 919 921
f 879 210 921
f 919 879 921
f 206 922 834
f 922 188 923
f 923 209 834
f 922 923 834
f 188 922 803
f 922 206 850
f 850 189 803
f 922 850 803
f 239 924 925
f 924 187 799
f 799 186 925
f 924 799 925
f 187 924 873
f 924 239 926
f 926 215 873
f 924 926 873
f 215 926 854
f 926 239 927
f 927 211 854
f 926 927 854
f 192 928 810
f 928 239 925
f 925 186 810
f 928 925 810
f 239 928 929
f 928 192 822
f 822 201 929
f 928 822 929
f 211 930 842
f 930 201 826
f 826 203 842
f 930 826 842
f 201 930 929
f 930 211 927
f 927 239 929
f 930 927 929
f 229 931 889
f 931 214 847
f 847 213 889
f 931 847 889
f 214 931 933
f 931 229 932
f 932 240 933
f 931 932 933
f 934 213 846
f 934 846 882
f 213 934 889
f 934 185 935
f 935 229 889
f 934 935 889
f 229 935 936
f 935 185 876
f 876 226 936
f 935 876 936
f 229 936 893
f 936 226 937
f 937 222 893
f 936 937 893
f 222 937 865
f 937 226 938
f 938 220 865
f 937 938 865
f 220 938 900
f 938 226 939
f 939 183 900
f 938 939 900
f 183 939 795
f 939 226 940
f 940 181 795
f 939 940 795
f 181 940 905
f 940 226 941
f 941 225 905
f 940 941 905
f 225 941 870
f 941 226 942
f 942 219 870
f 941 942 870
f 219 942 861
f 942 226 943
f 943 195 861
f 942 943 861
f 195 943 813
f 943 226 944
f 944 193 813
f 943 944 813
f 193 944 856
f 944 226 945
f 945 216 856
f 944 945 856
f 216 945 947
f 945 226 946
f 945 946 947
f 216 947 879
f 947 838 879
f 222 948 893
f 948 240 932
f 932 229 893
f 948 932 893
f 240 948 949
f 948 222 864
f 864 221 949
f 948 864 949
f 199 950 818
f 950 202 844
f 844 197 818
f 950 844 818
f 202 950 853
f 950 199 951
f 951 215 853
f 950 951 853
f 215 951 877
f 951 199 952
f 952 226 877
f 951 952 877
f 226 952 953
f 952 199 829
f 829 205 953
f 952 829 953
f 188 954 923
f 954 207 835
f 835 209 923
f 954 835 923
f 207 954 882
f 954 188 801
f 801 185 882
f 954 801 882
f 204 955 828
f 955 226 953
f 953 205 828
f 955 953 828
f 226 955 946
f 955 204 956
f 956 212 946
f 955 956 946
f 212 956 838
f 956 204 957
f 957 210 838
f 956 957 838
f 225 958 905
f 958 184 796
f 796 181 905
f 958 796 905
f 184 958 959
f 958 225 869
f 869 224 959
f 958 869 959
f 960 212 946
f 960 946 877
f 212 960 837
f 960 854 837
f 183 961 900
f 961 223 866
f 866 220 900
f 961 866 900
f 223 961 962
f 961 183 794
f 794 182 962
f 961 794 962
f 210 963 839
f 963 198 820
f 820 200 839
f 963 820 839
f 198 963 830
f 963 210 957
f 957 204 830
f 963 957 830
f 214 964 848
f 964 851 848
f 191 964 965
f 964 214 933
f 933 240 965
f 964 933 965
f 191 965 967
f 965 240 966
f 966 197 967
f 965 966 967
f 197 966 968
f 966 240 949
f 949 221 968
f 966 949 968
f 197 968 969
f 968 221 867
f 867 223 969
f 968 867 969
f 197 969 970
f 969 223 962
f 962 182 970
f 969 962 970
f 197 970 971
f 970 182 797
f 797 184 971
f 970 797 971
f 197 971 972
f 971 184 959
f 959 224 972
f 971 959 972
f 197 972 973
f 972 224 871
f 871 218 973
f 972 871 973
f 197 973 974
f 973 218 862
f 862 194 974
f 973 862 974
f 197 974 975
f 974 194 815
f 815 196 975
f 974 815 975
f 197 975 976
f 975 196 858
f 858 217 976
f 975 858 976
f 976 217 880
f 976 880 819
