# Original shape: m1196.obj
# No processing applied - exact copy of source file
# Generated on 2025-10-03 21:06:58

v 0.172884 0.350714 0.086027
v 0.492191 0.439893 0.077105
v 0.476510 0.439893 0.071316
v 0.208797 0.350714 0.101497
v 0.507872 0.439893 0.078553
v 0.244710 0.350714 0.105364
v 0.523553 0.439893 0.080000
v 0.280623 0.350714 0.109232
v 0.539234 0.439893 0.080362
v 0.316536 0.350714 0.110199
v 0.570596 0.439893 0.080724
v 0.388363 0.350714 0.111166
v 0.664681 0.439893 0.080000
v 0.603842 0.350714 0.109232
v 0.790129 0.439893 0.071316
v 0.891148 0.350714 0.086027
v 0.664681 0.439893 0.062631
v 0.603842 0.350714 0.062821
v 0.570596 0.439893 0.061907
v 0.388363 0.350714 0.060887
v 0.539234 0.439893 0.062269
v 0.316536 0.350714 0.061854
v 0.523553 0.439893 0.062631
v 0.280623 0.350714 0.062821
v 0.507872 0.439893 0.064078
v 0.244710 0.350714 0.066689
v 0.492191 0.439893 0.065526
v 0.208797 0.350714 0.070556
v 0.492191 0.261535 0.077105
v 0.476510 0.261535 0.071316
v 0.507872 0.261535 0.078553
v 0.523553 0.261535 0.080000
v 0.539234 0.261535 0.080362
v 0.570596 0.261535 0.080724
v 0.664681 0.261535 0.080000
v 0.790129 0.261535 0.071316
v 0.664681 0.261535 0.062631
v 0.570596 0.261535 0.061907
v 0.539234 0.261535 0.062269
v 0.523553 0.261535 0.062631
v 0.507872 0.261535 0.064078
v 0.492191 0.261535 0.065526
v 0.476222 0.439854 0.071316
v 0.709026 0.659854 0.068313
v 0.705383 0.659854 0.065623
v 0.488571 0.439854 0.078155
v 0.712669 0.659854 0.068986
v 0.500920 0.439854 0.079865
v 0.716312 0.659854 0.069659
v 0.513269 0.439854 0.081574
v 0.719955 0.659854 0.069827
v 0.525617 0.439854 0.082002
v 0.727241 0.659854 0.069995
v 0.550315 0.439854 0.082429
v 0.749099 0.659854 0.069659
v 0.624408 0.439854 0.081574
v 0.778243 0.659854 0.065623
v 0.723198 0.439854 0.071316
v 0.749099 0.659854 0.061588
v 0.624408 0.439854 0.061056
v 0.727241 0.659854 0.061252
v 0.550315 0.439854 0.060202
v 0.719955 0.659854 0.061420
v 0.525617 0.439854 0.060629
v 0.716312 0.659854 0.061588
v 0.513269 0.439854 0.061056
v 0.712669 0.659854 0.062261
v 0.500920 0.439854 0.062766
v 0.709026 0.659854 0.062933
v 0.488571 0.439854 0.064476
v 0.476222 0.261574 0.071316
v 0.709026 0.041574 0.068313
v 0.705383 0.041574 0.065623
v 0.488571 0.261574 0.078155
v 0.712669 0.041574 0.068986
v 0.500920 0.261574 0.079865
v 0.716312 0.041574 0.069659
v 0.513269 0.261574 0.081574
v 0.719955 0.041574 0.069827
v 0.525617 0.261574 0.082002
v 0.727241 0.041574 0.069995
v 0.550315 0.261574 0.082429
v 0.749099 0.041574 0.069659
v 0.624408 0.261574 0.081574
v 0.778243 0.041574 0.065623
v 0.723198 0.261574 0.071316
v 0.749099 0.041574 0.061588
v 0.624408 0.261574 0.061056
v 0.727241 0.041574 0.061252
v 0.550315 0.261574 0.060202
v 0.719955 0.041574 0.061420
v 0.525617 0.261574 0.060629
v 0.716312 0.041574 0.061588
v 0.513269 0.261574 0.061056
v 0.712669 0.041574 0.062261
v 0.500920 0.261574 0.062766
v 0.709026 0.041574 0.062933
v 0.488571 0.261574 0.064476
v 0.741637 0.426639 0.054917
v 0.884950 0.551261 0.056175
v 0.883247 0.551261 0.054917
v 0.749311 0.426639 0.060585
v 0.886653 0.551261 0.056489
v 0.756986 0.426639 0.062001
v 0.888355 0.551261 0.056804
v 0.764660 0.426639 0.063418
v 0.890058 0.551261 0.056882
v 0.772334 0.426639 0.063772
v 0.893464 0.551261 0.056961
v 0.787683 0.426639 0.064127
v 0.903681 0.551261 0.056804
v 0.833728 0.426639 0.063418
v 0.917303 0.551261 0.054917
v 0.895122 0.426639 0.054917
v 0.903681 0.551261 0.053031
v 0.833728 0.426639 0.046417
v 0.893464 0.551261 0.052874
v 0.787683 0.426639 0.045708
v 0.890058 0.551261 0.052953
v 0.772334 0.426639 0.046062
v 0.888355 0.551261 0.053031
v 0.764660 0.426639 0.046417
v 0.886653 0.551261 0.053346
v 0.756986 0.426639 0.047834
v 0.884950 0.551261 0.053660
v 0.749311 0.426639 0.049250
v 0.741637 0.274789 0.054917
v 0.884950 0.150167 0.056175
v 0.883247 0.150167 0.054917
v 0.749311 0.274789 0.060585
v 0.886653 0.150167 0.056489
v 0.756986 0.274789 0.062001
v 0.888355 0.150167 0.056804
v 0.764660 0.274789 0.063418
v 0.890058 0.150167 0.056882
v 0.772334 0.274789 0.063772
v 0.893464 0.150167 0.056961
v 0.787683 0.274789 0.064127
v 0.903681 0.150167 0.056804
v 0.833728 0.274789 0.063418
v 0.917303 0.150167 0.054917
v 0.895122 0.274789 0.054917
v 0.903681 0.150167 0.053031
v 0.833728 0.274789 0.046417
v 0.893464 0.150167 0.052874
v 0.787683 0.274789 0.045708
v 0.890058 0.150167 0.052953
v 0.772334 0.274789 0.046062
v 0.888355 0.150167 0.053031
v 0.764660 0.274789 0.046417
v 0.886653 0.150167 0.053346
v 0.756986 0.274789 0.047834
v 0.884950 0.150167 0.053660
v 0.749311 0.274789 0.049250
v 0.025000 0.350714 0.064381
v 0.058829 0.352459 0.067331
v 0.058829 0.353182 0.065516
v 0.058829 0.350714 0.068082
v 0.058829 0.348969 0.067331
v 0.058829 0.348247 0.065516
v 0.058829 0.348969 0.063841
v 0.058829 0.350714 0.063147
v 0.058829 0.352459 0.063841
v 0.085914 0.361346 0.081031
v 0.085914 0.365750 0.068335
v 0.085914 0.350714 0.086290
v 0.085914 0.340082 0.081031
v 0.085914 0.335678 0.068335
v 0.085914 0.340082 0.056615
v 0.085914 0.350714 0.051760
v 0.085914 0.361346 0.056615
v 0.126718 0.368244 0.090135
v 0.126718 0.375505 0.072361
v 0.126718 0.350714 0.097497
v 0.126718 0.333184 0.090135
v 0.126718 0.325923 0.072361
v 0.126718 0.333184 0.055955
v 0.126718 0.350714 0.049159
v 0.126718 0.368244 0.055955
v 0.164416 0.374227 0.093861
v 0.164416 0.383966 0.073764
v 0.164416 0.350714 0.102186
v 0.164416 0.327202 0.093861
v 0.164416 0.317462 0.073764
v 0.164416 0.327202 0.055212
v 0.164416 0.350714 0.047528
v 0.164416 0.374227 0.055212
v 0.192052 0.374576 0.100412
v 0.192052 0.384460 0.076997
v 0.192052 0.350714 0.110111
v 0.192052 0.326852 0.100412
v 0.192052 0.316968 0.076997
v 0.192052 0.326852 0.055384
v 0.192052 0.350714 0.046432
v 0.192052 0.374576 0.055384
v 0.206364 0.374290 0.102896
v 0.206364 0.384056 0.077985
v 0.206364 0.350714 0.113214
v 0.206364 0.327138 0.102896
v 0.206364 0.317373 0.077985
v 0.206364 0.327138 0.054990
v 0.206364 0.350714 0.045466
v 0.206364 0.374290 0.054990
v 0.248172 0.374007 0.122194
v 0.248172 0.383655 0.088944
v 0.248172 0.350714 0.135966
v 0.248172 0.327422 0.122194
v 0.248172 0.317773 0.088944
v 0.248172 0.327422 0.058253
v 0.248172 0.350714 0.045540
v 0.248172 0.374007 0.058253
v 0.279121 0.374478 0.123970
v 0.279121 0.384321 0.090051
v 0.279121 0.350714 0.138019
v 0.279121 0.326950 0.123970
v 0.279121 0.317107 0.090051
v 0.279121 0.326950 0.058742
v 0.279121 0.350714 0.045773
v 0.279121 0.374478 0.058742
v 0.305458 0.373946 0.122845
v 0.305458 0.383569 0.089565
v 0.305458 0.350714 0.136630
v 0.305458 0.327482 0.122845
v 0.305458 0.317859 0.089565
v 0.305458 0.327482 0.058845
v 0.305458 0.350714 0.046121
v 0.305458 0.373946 0.058845
v 0.331534 0.374480 0.119201
v 0.331534 0.384323 0.089927
v 0.331534 0.350714 0.131327
v 0.331534 0.326949 0.119201
v 0.331534 0.317105 0.089927
v 0.331534 0.326949 0.062905
v 0.331534 0.350714 0.051712
v 0.331534 0.374480 0.062905
v 0.444568 0.370118 0.118119
v 0.444568 0.378156 0.091569
v 0.444568 0.350714 0.129117
v 0.444568 0.331310 0.118119
v 0.444568 0.323273 0.091569
v 0.444568 0.331310 0.067060
v 0.444568 0.350714 0.056909
v 0.444568 0.370118 0.067060
v 0.687456 0.357697 0.099487
v 0.687456 0.360590 0.084698
v 0.687456 0.350714 0.105613
v 0.687456 0.343731 0.099487
v 0.687456 0.340839 0.084698
v 0.687456 0.343731 0.071047
v 0.687456 0.350714 0.065393
v 0.687456 0.357697 0.071047
v 0.709121 0.357290 0.099115
v 0.709121 0.360013 0.084777
v 0.709121 0.350714 0.105054
v 0.709121 0.344139 0.099115
v 0.709121 0.341415 0.084777
v 0.709121 0.344139 0.071541
v 0.709121 0.350714 0.066059
v 0.709121 0.357290 0.071541
v 0.868176 0.362515 0.094703
v 0.868176 0.367404 0.088198
v 0.868176 0.350714 0.097398
v 0.868176 0.338913 0.094703
v 0.868176 0.334025 0.088198
v 0.868176 0.338913 0.082193
v 0.868176 0.350714 0.079706
v 0.868176 0.362515 0.082193
v 0.946701 0.358733 0.093814
v 0.946701 0.362054 0.087968
v 0.946701 0.350714 0.096235
v 0.946701 0.342696 0.093814
v 0.946701 0.339374 0.087968
v 0.946701 0.342696 0.082572
v 0.946701 0.350714 0.080337
v 0.946701 0.358733 0.082572
v 0.975000 0.350714 0.077952
v 0.214377 0.358063 0.114751
v 0.214377 0.361107 0.106420
v 0.214377 0.350714 0.118203
v 0.214377 0.343366 0.114751
v 0.214377 0.340322 0.106420
v 0.214377 0.343366 0.102316
v 0.214377 0.350714 0.100616
v 0.214377 0.358063 0.102316
v 0.170584 0.358185 0.114034
v 0.170584 0.361280 0.106280
v 0.170584 0.350714 0.117246
v 0.170584 0.343243 0.114034
v 0.170584 0.340149 0.106280
v 0.170584 0.343243 0.102460
v 0.170584 0.350714 0.100878
v 0.170584 0.358185 0.102460
v 0.160714 0.350714 0.110030
v 0.444481 0.415366 0.062768
v 0.514805 0.422861 0.071188
v 0.514805 0.424421 0.052818
v 0.444481 0.414838 0.065359
v 0.514805 0.416831 0.073837
v 0.444481 0.412632 0.065539
v 0.514805 0.377837 0.073837
v 0.444481 0.382036 0.065539
v 0.514805 0.371807 0.071188
v 0.444481 0.379829 0.065359
v 0.514805 0.370246 0.052818
v 0.444481 0.379302 0.062768
v 0.514805 0.371807 0.034449
v 0.444481 0.379829 0.060177
v 0.514805 0.377837 0.031799
v 0.444481 0.382036 0.059996
v 0.514805 0.416831 0.031799
v 0.444481 0.412632 0.059996
v 0.514805 0.422861 0.034449
v 0.444481 0.414838 0.060177
v 0.516039 0.424913 0.070008
v 0.516039 0.427416 0.049717
v 0.516039 0.415921 0.074434
v 0.516039 0.378747 0.074434
v 0.516039 0.369755 0.070008
v 0.516039 0.367251 0.049717
v 0.516039 0.369755 0.029426
v 0.516039 0.378747 0.025000
v 0.516039 0.415921 0.025000
v 0.516039 0.424913 0.029426
v 0.628593 0.425202 0.076806
v 0.628593 0.431781 0.058034
v 0.628593 0.407979 0.088407
v 0.628593 0.386689 0.088407
v 0.628593 0.369465 0.076806
v 0.628593 0.362887 0.058034
v 0.628593 0.369465 0.039263
v 0.628593 0.386689 0.027662
v 0.628593 0.407979 0.027662
v 0.628593 0.425202 0.039263
v 0.788390 0.426829 0.087724
v 0.788390 0.433792 0.069213
v 0.788390 0.408600 0.099164
v 0.788390 0.386068 0.099164
v 0.788390 0.367838 0.087724
v 0.788390 0.360875 0.069213
v 0.788390 0.367838 0.050703
v 0.788390 0.386068 0.039263
v 0.788390 0.408600 0.039263
v 0.788390 0.426829 0.050703
v 0.847196 0.425134 0.088635
v 0.847196 0.431697 0.070692
v 0.847196 0.407952 0.099724
v 0.847196 0.386715 0.099724
v 0.847196 0.369534 0.088635
v 0.847196 0.362971 0.070692
v 0.847196 0.369534 0.052749
v 0.847196 0.386715 0.041660
v 0.847196 0.407952 0.041660
v 0.847196 0.425134 0.052749
v 0.900039 0.413678 0.083741
v 0.900039 0.417536 0.070063
v 0.900039 0.403577 0.092195
v 0.900039 0.391091 0.092195
v 0.900039 0.380990 0.083741
v 0.900039 0.377132 0.070063
v 0.900039 0.380990 0.056384
v 0.900039 0.391091 0.047930
v 0.900039 0.403577 0.047930
v 0.900039 0.413678 0.056384
v 0.851623 0.397334 0.070550
v 0.444481 0.322127 0.062768
v 0.514805 0.329622 0.071188
v 0.514805 0.331182 0.052818
v 0.444481 0.321600 0.065359
v 0.514805 0.323592 0.073837
v 0.444481 0.319393 0.065539
v 0.514805 0.284598 0.073837
v 0.444481 0.288797 0.065539
v 0.514805 0.278568 0.071188
v 0.444481 0.286590 0.065359
v 0.514805 0.277007 0.052818
v 0.444481 0.286063 0.062768
v 0.514805 0.278568 0.034449
v 0.444481 0.286590 0.060177
v 0.514805 0.284598 0.031799
v 0.444481 0.288797 0.059996
v 0.514805 0.323592 0.031799
v 0.444481 0.319393 0.059996
v 0.514805 0.329622 0.034449
v 0.444481 0.321600 0.060177
v 0.516039 0.331674 0.070008
v 0.516039 0.334177 0.049717
v 0.516039 0.322682 0.074434
v 0.516039 0.285508 0.074434
v 0.516039 0.276516 0.070008
v 0.516039 0.274012 0.049717
v 0.516039 0.276516 0.029426
v 0.516039 0.285508 0.025000
v 0.516039 0.322682 0.025000
v 0.516039 0.331674 0.029426
v 0.628593 0.331963 0.076806
v 0.628593 0.338542 0.058034
v 0.628593 0.314740 0.088407
v 0.628593 0.293450 0.088407
v 0.628593 0.276226 0.076806
v 0.628593 0.269648 0.058034
v 0.628593 0.276226 0.039263
v 0.628593 0.293450 0.027662
v 0.628593 0.314740 0.027662
v 0.628593 0.331963 0.039263
v 0.788390 0.333590 0.087724
v 0.788390 0.340553 0.069213
v 0.788390 0.315361 0.099164
v 0.788390 0.292829 0.099164
v 0.788390 0.274599 0.087724
v 0.788390 0.267637 0.069213
v 0.788390 0.274599 0.050703
v 0.788390 0.292829 0.039263
v 0.788390 0.315361 0.039263
v 0.788390 0.333590 0.050703
v 0.847196 0.331895 0.088635
v 0.847196 0.338458 0.070692
v 0.847196 0.314714 0.099724
v 0.847196 0.293476 0.099724
v 0.847196 0.276295 0.088635
v 0.847196 0.269732 0.070692
v 0.847196 0.276295 0.052749
v 0.847196 0.293476 0.041660
v 0.847196 0.314714 0.041660
v 0.847196 0.331895 0.052749
v 0.900039 0.320439 0.083741
v 0.900039 0.324297 0.070063
v 0.900039 0.310338 0.092195
v 0.900039 0.297852 0.092195
v 0.900039 0.287751 0.083741
v 0.900039 0.283893 0.070063
v 0.900039 0.287751 0.056384
v 0.900039 0.297852 0.047930
v 0.900039 0.310338 0.047930
v 0.900039 0.320439 0.056384
v 0.851623 0.304095 0.070550
v 0.690558 0.435259 0.082421
v 0.793412 0.436382 0.228142
v 0.791586 0.435259 0.228142
v 0.697221 0.439359 0.082421
v 0.795237 0.436663 0.228142
v 0.703883 0.440384 0.082421
v 0.797063 0.436944 0.228142
v 0.710545 0.441409 0.082421
v 0.798888 0.437014 0.228142
v 0.717208 0.441665 0.082421
v 0.802540 0.437084 0.228142
v 0.730532 0.441921 0.082421
v 0.813493 0.436944 0.228142
v 0.770506 0.441409 0.082421
v 0.828098 0.435259 0.228142
v 0.823805 0.435259 0.082421
v 0.813493 0.433574 0.228142
v 0.770506 0.429109 0.082421
v 0.802540 0.433433 0.228142
v 0.730532 0.428597 0.082421
v 0.798888 0.433503 0.228142
v 0.717208 0.428853 0.082421
v 0.797063 0.433574 0.228142
v 0.710545 0.429109 0.082421
v 0.795237 0.433855 0.228142
v 0.703883 0.430134 0.082421
v 0.793412 0.434135 0.228142
v 0.697221 0.431159 0.082421
v 0.690558 0.266170 0.082421
v 0.793412 0.267293 0.228142
v 0.791586 0.266170 0.228142
v 0.697221 0.270270 0.082421
v 0.795237 0.267574 0.228142
v 0.703883 0.271295 0.082421
v 0.797063 0.267855 0.228142
v 0.710545 0.272320 0.082421
v 0.798888 0.267925 0.228142
v 0.717208 0.272576 0.082421
v 0.802540 0.267995 0.228142
v 0.730532 0.272832 0.082421
v 0.813493 0.267855 0.228142
v 0.770506 0.272320 0.082421
v 0.828098 0.266170 0.228142
v 0.823805 0.266170 0.082421
v 0.813493 0.264485 0.228142
v 0.770506 0.260020 0.082421
v 0.802540 0.264344 0.228142
v 0.730532 0.259507 0.082421
v 0.798888 0.264414 0.228142
v 0.717208 0.259764 0.082421
v 0.797063 0.264485 0.228142
v 0.710545 0.260020 0.082421
v 0.795237 0.264765 0.228142
v 0.703883 0.261045 0.082421
v 0.793412 0.265046 0.228142
v 0.697221 0.262070 0.082421
v 0.604870 0.666558 0.058212
v 0.604870 0.676429 0.058212
v 0.777597 0.666558 0.058212
v 0.777597 0.676429 0.058212
v 0.777597 0.666558 0.070550
v 0.604870 0.666558 0.070550
v 0.604870 0.676429 0.070550
v 0.777597 0.676429 0.070550
v 0.604870 0.025000 0.058212
v 0.604870 0.034870 0.058212
v 0.777597 0.025000 0.058212
v 0.777597 0.034870 0.058212
v 0.777597 0.025000 0.070550
v 0.604870 0.025000 0.070550
v 0.604870 0.034870 0.070550
v 0.777597 0.034870 0.070550
v 0.580195 0.504935 0.040939
v 0.580195 0.517273 0.040939
v 0.703571 0.504935 0.040939
v 0.703571 0.517273 0.040939
v 0.703571 0.504935 0.065615
v 0.580195 0.504935 0.065615
v 0.580195 0.517273 0.065615
v 0.703571 0.517273 0.065615
v 0.580195 0.184156 0.040939
v 0.580195 0.196494 0.040939
v 0.703571 0.184156 0.040939
v 0.703571 0.196494 0.040939
v 0.703571 0.184156 0.065615
v 0.580195 0.184156 0.065615
v 0.580195 0.196494 0.065615
v 0.703571 0.196494 0.065615
f 1 2 3
f 4 5 2
f 6 7 5
f 8 9 7
f 10 11 9
f 12 13 11
f 14 15 13
f 16 17 15
f 18 19 17
f 20 21 19
f 22 23 21
f 24 25 23
f 26 27 25
f 28 3 27
f 1 4 2
f 4 6 5
f 6 8 7
f 8 10 9
f 10 12 11
f 12 14 13
f 14 16 15
f 16 18 17
f 18 20 19
f 20 22 21
f 22 24 23
f 24 26 25
f 26 28 27
f 28 1 3
f 1 29 30
f 4 31 29
f 6 32 31
f 8 33 32
f 10 34 33
f 12 35 34
f 14 36 35
f 16 37 36
f 18 38 37
f 20 39 38
f 22 40 39
f 24 41 40
f 26 42 41
f 28 30 42
f 1 4 29
f 4 6 31
f 6 8 32
f 8 10 33
f 10 12 34
f 12 14 35
f 14 16 36
f 16 18 37
f 18 20 38
f 20 22 39
f 22 24 40
f 24 26 41
f 26 28 42
f 28 1 30
f 43 44 45
f 46 47 44
f 48 49 47
f 50 51 49
f 52 53 51
f 54 55 53
f 56 57 55
f 58 59 57
f 60 61 59
f 62 63 61
f 64 65 63
f 66 67 65
f 68 69 67
f 70 45 69
f 43 46 44
f 46 48 47
f 48 50 49
f 50 52 51
f 52 54 53
f 54 56 55
f 56 58 57
f 58 60 59
f 60 62 61
f 62 64 63
f 64 66 65
f 66 68 67
f 68 70 69
f 70 43 45
f 71 72 73
f 74 75 72
f 76 77 75
f 78 79 77
f 80 81 79
f 82 83 81
f 84 85 83
f 86 87 85
f 88 89 87
f 90 91 89
f 92 93 91
f 94 95 93
f 96 97 95
f 98 73 97
f 71 74 72
f 74 76 75
f 76 78 77
f 78 80 79
f 80 82 81
f 82 84 83
f 84 86 85
f 86 88 87
f 88 90 89
f 90 92 91
f 92 94 93
f 94 96 95
f 96 98 97
f 98 71 73
f 99 100 101
f 102 103 100
f 104 105 103
f 106 107 105
f 108 109 107
f 110 111 109
f 112 113 111
f 114 115 113
f 116 117 115
f 118 119 117
f 120 121 119
f 122 123 121
f 124 125 123
f 126 101 125
f 99 102 100
f 102 104 103
f 104 106 105
f 106 108 107
f 108 110 109
f 110 112 111
f 112 114 113
f 114 116 115
f 116 118 117
f 118 120 119
f 120 122 121
f 122 124 123
f 124 126 125
f 126 99 101
f 127 128 129
f 130 131 128
f 132 133 131
f 134 135 133
f 136 137 135
f 138 139 137
f 140 141 139
f 142 143 141
f 144 145 143
f 146 147 145
f 148 149 147
f 150 151 149
f 152 153 151
f 154 129 153
f 127 130 128
f 130 132 131
f 132 134 133
f 134 136 135
f 136 138 137
f 138 140 139
f 140 142 141
f 142 144 143
f 144 146 145
f 146 148 147
f 148 150 149
f 150 152 151
f 152 154 153
f 154 127 129
f 155 156 157
f 155 158 156
f 155 159 158
f 155 160 159
f 155 161 160
f 155 162 161
f 155 163 162
f 155 157 163
f 157 164 165
f 156 166 164
f 158 167 166
f 159 168 167
f 160 169 168
f 161 170 169
f 162 171 170
f 163 165 171
f 165 172 173
f 164 174 172
f 166 175 174
f 167 176 175
f 168 177 176
f 169 178 177
f 170 179 178
f 171 173 179
f 173 180 181
f 172 182 180
f 174 183 182
f 175 184 183
f 176 185 184
f 177 186 185
f 178 187 186
f 179 181 187
f 181 188 189
f 180 190 188
f 182 191 190
f 183 192 191
f 184 193 192
f 185 194 193
f 186 195 194
f 187 189 195
f 189 196 197
f 188 198 196
f 190 199 198
f 191 200 199
f 192 201 200
f 193 202 201
f 194 203 202
f 195 197 203
f 197 204 205
f 196 206 204
f 198 207 206
f 199 208 207
f 200 209 208
f 201 210 209
f 202 211 210
f 203 205 211
f 205 212 213
f 204 214 212
f 206 215 214
f 207 216 215
f 208 217 216
f 209 218 217
f 210 219 218
f 211 213 219
f 213 220 221
f 212 222 220
f 214 223 222
f 215 224 223
f 216 225 224
f 217 226 225
f 218 227 226
f 219 221 227
f 221 228 229
f 220 230 228
f 222 231 230
f 223 232 231
f 224 233 232
f 225 234 233
f 226 235 234
f 227 229 235
f 229 236 237
f 228 238 236
f 230 239 238
f 231 240 239
f 232 241 240
f 233 242 241
f 234 243 242
f 235 237 243
f 237 244 245
f 236 246 244
f 238 247 246
f 239 248 247
f 240 249 248
f 241 250 249
f 242 251 250
f 243 245 251
f 245 252 253
f 244 254 252
f 246 255 254
f 247 256 255
f 248 257 256
f 249 258 257
f 250 259 258
f 251 253 259
f 253 260 261
f 252 262 260
f 254 263 262
f 255 264 263
f 256 265 264
f 257 266 265
f 258 267 266
f 259 261 267
f 261 268 269
f 260 270 268
f 262 271 270
f 263 272 271
f 264 273 272
f 265 274 273
f 266 275 274
f 267 269 275
f 276 277 278
f 276 279 277
f 276 280 279
f 276 281 280
f 276 282 281
f 276 283 282
f 276 284 283
f 276 278 284
f 278 285 286
f 277 287 285
f 279 288 287
f 280 289 288
f 281 290 289
f 282 291 290
f 283 292 291
f 284 286 292
f 157 156 164
f 156 158 166
f 158 159 167
f 159 160 168
f 160 161 169
f 161 162 170
f 162 163 171
f 163 157 165
f 165 164 172
f 164 166 174
f 166 167 175
f 167 168 176
f 168 169 177
f 169 170 178
f 170 171 179
f 171 165 173
f 173 172 180
f 172 174 182
f 174 175 183
f 175 176 184
f 176 177 185
f 177 178 186
f 178 179 187
f 179 173 181
f 181 180 188
f 180 182 190
f 182 183 191
f 183 184 192
f 184 185 193
f 185 186 194
f 186 187 195
f 187 181 189
f 189 188 196
f 188 190 198
f 190 191 199
f 191 192 200
f 192 193 201
f 193 194 202
f 194 195 203
f 195 189 197
f 197 196 204
f 196 198 206
f 198 199 207
f 199 200 208
f 200 201 209
f 201 202 210
f 202 203 211
f 203 197 205
f 205 204 212
f 204 206 214
f 206 207 215
f 207 208 216
f 208 209 217
f 209 210 218
f 210 211 219
f 211 205 213
f 213 212 220
f 212 214 222
f 214 215 223
f 215 216 224
f 216 217 225
f 217 218 226
f 218 219 227
f 219 213 221
f 221 220 228
f 220 222 230
f 222 223 231
f 223 224 232
f 224 225 233
f 225 226 234
f 226 227 235
f 227 221 229
f 229 228 236
f 228 230 238
f 230 231 239
f 231 232 240
f 232 233 241
f 233 234 242
f 234 235 243
f 235 229 237
f 237 236 244
f 236 238 246
f 238 239 247
f 239 240 248
f 240 241 249
f 241 242 250
f 242 243 251
f 243 237 245
f 245 244 252
f 244 246 254
f 246 247 255
f 247 248 256
f 248 249 257
f 249 250 258
f 250 251 259
f 251 245 253
f 253 252 260
f 252 254 262
f 254 255 263
f 255 256 264
f 256 257 265
f 257 258 266
f 258 259 267
f 259 253 261
f 261 260 268
f 260 262 270
f 262 263 271
f 263 264 272
f 264 265 273
f 265 266 274
f 266 267 275
f 267 261 269
f 269 268 276
f 268 270 276
f 270 271 276
f 271 272 276
f 272 273 276
f 273 274 276
f 274 275 276
f 275 269 276
f 278 277 285
f 277 279 287
f 279 280 288
f 280 281 289
f 281 282 290
f 282 283 291
f 283 284 292
f 284 278 286
f 286 285 293
f 285 287 293
f 287 288 293
f 288 289 293
f 289 290 293
f 290 291 293
f 291 292 293
f 292 286 293
f 294 295 296
f 297 298 295
f 299 300 298
f 301 302 300
f 303 304 302
f 305 306 304
f 307 308 306
f 309 310 308
f 311 312 310
f 313 296 312
f 296 314 315
f 295 316 314
f 298 317 316
f 300 318 317
f 302 319 318
f 304 320 319
f 306 321 320
f 308 322 321
f 310 323 322
f 312 315 323
f 315 324 325
f 314 326 324
f 316 327 326
f 317 328 327
f 318 329 328
f 319 330 329
f 320 331 330
f 321 332 331
f 322 333 332
f 323 325 333
f 325 334 335
f 324 336 334
f 326 337 336
f 327 338 337
f 328 339 338
f 329 340 339
f 330 341 340
f 331 342 341
f 332 343 342
f 333 335 343
f 335 344 345
f 334 346 344
f 336 347 346
f 337 348 347
f 338 349 348
f 339 350 349
f 340 351 350
f 341 352 351
f 342 353 352
f 343 345 353
f 345 354 355
f 344 356 354
f 346 357 356
f 347 358 357
f 348 359 358
f 349 360 359
f 350 361 360
f 351 362 361
f 352 363 362
f 353 355 363
f 294 297 295
f 297 299 298
f 299 301 300
f 301 303 302
f 303 305 304
f 305 307 306
f 307 309 308
f 309 311 310
f 311 313 312
f 313 294 296
f 296 295 314
f 295 298 316
f 298 300 317
f 300 302 318
f 302 304 319
f 304 306 320
f 306 308 321
f 308 310 322
f 310 312 323
f 312 296 315
f 315 314 324
f 314 316 326
f 316 317 327
f 317 318 328
f 318 319 329
f 319 320 330
f 320 321 331
f 321 322 332
f 322 323 333
f 323 315 325
f 325 324 334
f 324 326 336
f 326 327 337
f 327 328 338
f 328 329 339
f 329 330 340
f 330 331 341
f 331 332 342
f 332 333 343
f 333 325 335
f 335 334 344
f 334 336 346
f 336 337 347
f 337 338 348
f 338 339 349
f 339 340 350
f 340 341 351
f 341 342 352
f 342 343 353
f 343 335 345
f 345 344 354
f 344 346 356
f 346 347 357
f 347 348 358
f 348 349 359
f 349 350 360
f 350 351 361
f 351 352 362
f 352 353 363
f 353 345 355
f 355 354 364
f 354 356 364
f 356 357 364
f 357 358 364
f 358 359 364
f 359 360 364
f 360 361 364
f 361 362 364
f 362 363 364
f 363 355 364
f 365 366 367
f 368 369 366
f 370 371 369
f 372 373 371
f 374 375 373
f 376 377 375
f 378 379 377
f 380 381 379
f 382 383 381
f 384 367 383
f 367 385 386
f 366 387 385
f 369 388 387
f 371 389 388
f 373 390 389
f 375 391 390
f 377 392 391
f 379 393 392
f 381 394 393
f 383 386 394
f 386 395 396
f 385 397 395
f 387 398 397
f 388 399 398
f 389 400 399
f 390 401 400
f 391 402 401
f 392 403 402
f 393 404 403
f 394 396 404
f 396 405 406
f 395 407 405
f 397 408 407
f 398 409 408
f 399 410 409
f 400 411 410
f 401 412 411
f 402 413 412
f 403 414 413
f 404 406 414
f 406 415 416
f 405 417 415
f 407 418 417
f 408 419 418
f 409 420 419
f 410 421 420
f 411 422 421
f 412 423 422
f 413 424 423
f 414 416 424
f 416 425 426
f 415 427 425
f 417 428 427
f 418 429 428
f 419 430 429
f 420 431 430
f 421 432 431
f 422 433 432
f 423 434 433
f 424 426 434
f 365 368 366
f 368 370 369
f 370 372 371
f 372 374 373
f 374 376 375
f 376 378 377
f 378 380 379
f 380 382 381
f 382 384 383
f 384 365 367
f 367 366 385
f 366 369 387
f 369 371 388
f 371 373 389
f 373 375 390
f 375 377 391
f 377 379 392
f 379 381 393
f 381 383 394
f 383 367 386
f 386 385 395
f 385 387 397
f 387 388 398
f 388 389 399
f 389 390 400
f 390 391 401
f 391 392 402
f 392 393 403
f 393 394 404
f 394 386 396
f 396 395 405
f 395 397 407
f 397 398 408
f 398 399 409
f 399 400 410
f 400 401 411
f 401 402 412
f 402 403 413
f 403 404 414
f 404 396 406
f 406 405 415
f 405 407 417
f 407 408 418
f 408 409 419
f 409 410 420
f 410 411 421
f 411 412 422
f 412 413 423
f 413 414 424
f 414 406 416
f 416 415 425
f 415 417 427
f 417 418 428
f 418 419 429
f 419 420 430
f 420 421 431
f 421 422 432
f 422 423 433
f 423 424 434
f 424 416 426
f 426 425 435
f 425 427 435
f 427 428 435
f 428 429 435
f 429 430 435
f 430 431 435
f 431 432 435
f 432 433 435
f 433 434 435
f 434 426 435
f 436 437 438
f 439 440 437
f 441 442 440
f 443 444 442
f 445 446 444
f 447 448 446
f 449 450 448
f 451 452 450
f 453 454 452
f 455 456 454
f 457 458 456
f 459 460 458
f 461 462 460
f 463 438 462
f 436 439 437
f 439 441 440
f 441 443 442
f 443 445 444
f 445 447 446
f 447 449 448
f 449 451 450
f 451 453 452
f 453 455 454
f 455 457 456
f 457 459 458
f 459 461 460
f 461 463 462
f 463 436 438
f 464 465 466
f 467 468 465
f 469 470 468
f 471 472 470
f 473 474 472
f 475 476 474
f 477 478 476
f 479 480 478
f 481 482 480
f 483 484 482
f 485 486 484
f 487 488 486
f 489 490 488
f 491 466 490
f 464 467 465
f 467 469 468
f 469 471 470
f 471 473 472
f 473 475 474
f 475 477 476
f 477 479 478
f 479 481 480
f 481 483 482
f 483 485 484
f 485 487 486
f 487 489 488
f 489 491 490
f 491 464 466
f 492 493 494
f 494 493 495
f 492 496 497
f 492 494 496
f 492 497 493
f 493 497 498
f 493 498 499
f 493 499 495
f 494 499 496
f 494 495 499
f 496 498 497
f 496 499 498
f 500 501 502
f 502 501 503
f 500 504 505
f 500 502 504
f 500 505 501
f 501 505 506
f 501 506 507
f 501 507 503
f 502 507 504
f 502 503 507
f 504 506 505
f 504 507 506
f 508 509 510
f 510 509 511
f 508 512 513
f 508 510 512
f 508 513 509
f 509 513 514
f 509 514 515
f 509 515 511
f 510 515 512
f 510 511 515
f 512 514 513
f 512 515 514
f 516 517 518
f 518 517 519
f 516 520 521
f 516 518 520
f 516 521 517
f 517 521 522
f 517 522 523
f 517 523 519
f 518 523 520
f 518 519 523
f 520 522 521
f 520 523 522
