# Unified Preprocessed OBJ file from m1190.obj
# Applied remeshing: Yes
# Applied 4-step normalization: centering, PCA alignment, flipping, scaling
# Generated on 2025-09-29 15:13:41

v -0.363689 0.016935 -0.006575
v -0.272671 0.023484 0.007421
v -0.269613 -0.000145 0.025154
v -0.363978 0.020196 -0.020446
v -0.273315 0.030007 -0.021133
v -0.420166 -0.004266 -0.028230
v -0.421110 -0.000193 -0.029789
v -0.427836 -0.000197 -0.021896
v -0.417275 -0.006710 -0.022739
v -0.365465 0.013681 -0.039127
v -0.275060 0.021863 -0.043063
v -0.365848 -0.000169 -0.044002
v -0.275699 -0.000134 -0.051188
v -0.414127 -0.005896 -0.014000
v -0.412993 -0.000193 -0.010003
v -0.365454 -0.014021 -0.039131
v -0.363963 -0.020541 -0.020453
v -0.361899 -0.000177 0.005539
v -0.363676 -0.017284 -0.006581
v -0.077139 -0.017186 0.050674
v -0.086668 -0.000083 0.064513
v -0.032026 -0.009841 0.073233
v -0.031771 -0.000065 0.076484
v -0.034157 -0.023687 0.046429
v 0.045693 -0.023657 0.043334
v 0.047012 -0.009810 0.070202
v 0.048079 -0.000034 0.073387
v 0.216265 0.000035 0.040365
v -0.275043 -0.022132 -0.043070
v -0.273292 -0.030283 -0.021143
v -0.272654 -0.023770 0.007412
v -0.420169 0.003882 -0.028228
v -0.417280 0.006326 -0.022737
v -0.414132 0.005510 -0.013998
v -0.032033 0.009713 0.073236
v -0.077152 0.017033 0.050680
v -0.034175 0.023567 0.046438
v 0.047004 0.009744 0.070205
v 0.045675 0.023597 0.043342
v 0.039584 0.036644 -0.032998
v -0.039986 0.059424 -0.016027
v -0.040006 0.036613 -0.026653
v 0.042619 0.059451 0.005177
v -0.036845 0.066752 0.013147
v -0.101517 0.017023 0.052623
v -0.097523 0.023542 0.051488
v -0.099662 -0.000088 0.065549
v 0.215424 0.000037 0.029807
v -0.036457 0.051268 0.038450
v 0.045701 0.047226 0.033535
v 0.037128 0.026057 -0.063862
v 0.036426 -0.000013 -0.072800
v 0.205929 0.017162 -0.078954
v 0.206166 0.000053 -0.086331
v 0.210127 0.044040 -0.026159
v 0.215188 0.030999 0.016753
v 0.518720 0.000159 -0.020524
v 0.518131 0.016455 -0.027832
v 0.516834 0.023790 -0.044072
v 0.515542 0.016460 -0.060317
v 0.514965 0.000166 -0.067629
v -0.040968 0.025213 -0.059271
v -0.106197 0.021114 -0.057341
v -0.106772 -0.000068 -0.064654
v -0.103353 0.033330 -0.021604
v -0.115832 0.039841 -0.014070
v -0.111815 0.033317 0.036282
v -0.112321 -0.017199 0.050209
v -0.101504 -0.017195 0.052617
v -0.103328 -0.033478 -0.021616
v -0.111819 0.043093 0.036284
v 0.215211 -0.030921 0.016743
v 0.042663 -0.059499 0.005156
v 0.045736 -0.047282 0.033518
v -0.116412 0.033325 -0.021381
v -0.113185 0.060205 0.019232
v -0.098993 0.051244 0.043436
v -0.100193 0.066728 0.018197
v -0.256295 -0.000141 0.028180
v -0.254373 -0.010730 0.021486
v -0.116387 -0.033483 -0.021392
v -0.106181 -0.021252 -0.057349
v 0.210161 -0.043951 -0.026175
v -0.112334 0.017019 0.050215
v -0.041671 -0.000043 -0.068209
v -0.097505 -0.023712 0.051479
v -0.036418 -0.051387 0.038433
v -0.098954 -0.051411 0.043418
v -0.036795 -0.066863 0.013124
v -0.113140 -0.060375 0.019211
v -0.100143 -0.066888 0.018174
v -0.103159 -0.059551 -0.009374
v -0.116091 -0.053039 -0.007524
v -0.039941 -0.059526 -0.016047
v -0.039979 -0.036712 -0.026666
v -0.111787 -0.043268 0.036269
v -0.111790 -0.033491 0.036270
v -0.115802 -0.040002 -0.014084
v -0.040949 -0.025301 -0.059280
v 0.037148 -0.026085 -0.063871
v 0.039612 -0.036681 -0.033011
v 0.205942 -0.017057 -0.078960
v -0.103204 0.059399 -0.009353
v -0.116131 0.052875 -0.007506
v 0.340465 0.000087 0.009214
v 0.518144 -0.016134 -0.027837
v 0.516852 -0.023464 -0.044081
v 0.515554 -0.016130 -0.060323
v -0.207155 -0.000128 0.060223
v -0.207417 0.009650 0.056976
v -0.254381 0.010453 0.021489
v -0.172586 -0.010707 0.063188
v -0.207410 -0.009904 0.056973
v -0.208126 0.016987 0.027611
v -0.172594 0.010476 0.063191
v -0.155701 -0.000110 0.070016
v -0.208113 -0.017231 0.027605
v 0.344479 0.000080 0.059568
v 0.341889 0.000085 0.027081
v 0.476112 0.000112 0.162680
v 0.535359 0.000129 0.188198
v 0.395490 0.000106 0.022808
v 0.545739 0.000164 0.010831
v 0.543049 0.000167 -0.012656
v 0.491277 0.126426 0.015191
v 0.544874 0.140297 0.010920
v 0.524572 0.137031 0.012538
v -0.005146 0.057817 -0.071113
v 0.262203 0.000075 -0.090798
v 0.262075 0.339816 -0.090738
v 0.158942 0.312890 -0.082521
v 0.202791 0.333276 -0.086014
v 0.059854 0.158054 -0.075462
v 0.059973 -0.158060 -0.075517
v -0.005102 -0.057874 -0.071133
v 0.159178 -0.312820 -0.082630
v 0.262331 -0.339665 -0.090857
v 0.203042 -0.333171 -0.086130
v 0.491372 -0.126139 0.015147
v 0.544979 -0.139969 0.010872
v 0.524675 -0.136718 0.012491
v 0.572164 0.000143 0.188533
v -0.318180 0.020209 0.000423
v -0.271142 0.011669 0.016287
v -0.316651 0.008395 0.009290
v -0.318646 0.025101 -0.020789
v -0.272993 0.026745 -0.006856
v -0.318325 0.021840 -0.006513
v -0.420638 -0.002229 -0.029009
v -0.424473 -0.000195 -0.025843
v -0.424001 -0.002231 -0.025063
v -0.418721 -0.005488 -0.025484
v -0.422556 -0.003453 -0.022318
v -0.320262 0.017772 -0.041095
v -0.274187 0.025935 -0.032098
v -0.319390 0.021844 -0.030130
v -0.320773 -0.000152 -0.047595
v -0.275379 0.010864 -0.047125
v -0.320454 0.010847 -0.043532
v -0.415701 -0.006303 -0.018370
v -0.420982 -0.003046 -0.017948
v -0.413560 -0.003045 -0.012001
v -0.420415 -0.000195 -0.015949
v -0.365651 -0.007095 -0.041567
v -0.393479 -0.000181 -0.036895
v -0.393282 -0.007107 -0.034460
v -0.364708 -0.017281 -0.029792
v -0.392810 -0.009143 -0.033681
v -0.392064 -0.012403 -0.024341
v -0.390619 -0.013625 -0.021596
v -0.389045 -0.013218 -0.017227
v -0.362787 -0.008730 -0.000521
v -0.388902 -0.011590 -0.010290
v -0.388013 -0.003036 -0.004230
v -0.081903 -0.008635 0.057594
v -0.059347 -0.004962 0.068873
v -0.054582 -0.013513 0.061954
v -0.031898 -0.004953 0.074858
v -0.059219 -0.000074 0.070498
v -0.055648 -0.020437 0.048552
v -0.033091 -0.016764 0.059831
v 0.005768 -0.023672 0.044882
v 0.006833 -0.016749 0.058283
v 0.007493 -0.009825 0.071718
v 0.007621 -0.004937 0.073343
v 0.047545 -0.004922 0.071794
v 0.132172 0.000000 0.056876
v 0.131638 -0.004888 0.055283
v 0.130979 -0.011811 0.041849
v 0.046352 -0.016733 0.056768
v -0.320249 -0.018076 -0.041101
v -0.275371 -0.011133 -0.047129
v -0.320577 -0.007077 -0.045160
v -0.318627 -0.025412 -0.020798
v -0.274168 -0.026208 -0.032107
v -0.319503 -0.021336 -0.031762
v -0.318165 -0.020527 0.000416
v -0.272973 -0.027027 -0.006865
v -0.318484 -0.023783 -0.013862
v -0.315756 -0.000161 0.015347
v -0.271133 -0.011958 0.016283
v -0.317276 -0.011973 0.006476
v -0.420639 0.001844 -0.029009
v -0.424002 0.001843 -0.025062
v -0.418725 0.005104 -0.025483
v -0.422558 0.003065 -0.022317
v -0.415706 0.005918 -0.018367
v -0.420984 0.002657 -0.017947
v -0.413562 0.002659 -0.012000
v -0.393008 0.001856 -0.036115
v -0.392817 0.008781 -0.033677
v -0.391372 0.010003 -0.030932
v -0.388910 0.011223 -0.010287
v -0.390484 0.011630 -0.014656
v -0.388341 0.008371 -0.008289
v -0.059350 0.004815 0.068875
v -0.081910 0.008475 0.057597
v -0.054593 0.013373 0.061958
v -0.031902 0.004824 0.074860
v -0.055663 0.020300 0.048559
v -0.033104 0.016640 0.059837
v 0.007486 0.009728 0.071721
v 0.006415 0.016655 0.058322
v 0.008154 -0.000049 0.074935
v 0.008023 0.004840 0.073312
v 0.047542 0.004855 0.071796
v 0.131635 0.004889 0.055285
v 0.046340 0.016670 0.056774
v 0.130970 0.011816 0.041853
v -0.000201 0.048034 -0.024512
v -0.039996 0.048018 -0.021340
v -0.000211 0.036628 -0.029826
v 0.041102 0.048048 -0.013911
v 0.001316 0.059438 -0.005425
v 0.002887 0.063102 0.009162
v -0.038416 0.063088 -0.001440
v -0.089334 0.017028 0.051651
v -0.099520 0.020282 0.052055
v -0.087337 0.020287 0.051084
v -0.093165 -0.000086 0.065031
v -0.100589 0.008467 0.059086
v -0.094092 0.008470 0.058568
v 0.130549 0.011817 0.036574
v 0.215844 0.000036 0.035086
v 0.003081 0.055360 0.021814
v -0.036651 0.059010 0.025799
v 0.044160 0.053339 0.019356
v 0.004622 0.049247 0.035993
v 0.005763 0.035396 0.039986
v 0.045688 0.035412 0.038438
v 0.005750 0.023582 0.044890
v -0.035316 0.037418 0.042444
v 0.036777 0.013022 -0.068331
v 0.121178 0.008574 -0.075877
v 0.121529 0.021609 -0.071408
v 0.121296 0.000020 -0.079565
v 0.206048 0.008607 -0.082642
v 0.122757 0.026903 -0.055976
v 0.038356 0.031350 -0.048430
v 0.124856 0.040342 -0.029579
v 0.126373 0.051746 -0.010491
v 0.208028 0.030601 -0.052556
v 0.215306 0.015518 0.023280
v 0.366954 0.015579 -0.001885
v 0.367072 0.000098 0.004641
v 0.366659 0.023727 -0.005539
v 0.518426 0.008307 -0.024178
v 0.366011 0.027394 -0.013660
v 0.517482 0.020122 -0.035952
v 0.212658 0.037520 -0.004703
v 0.363481 0.033915 -0.035116
v 0.362835 0.030250 -0.043238
v 0.516188 0.020125 -0.052195
v 0.360736 0.016811 -0.069635
v 0.360447 0.008664 -0.073291
v 0.515253 0.008313 -0.063973
v 0.360565 0.000110 -0.076980
v -0.073582 0.023163 -0.058306
v -0.106484 0.010523 -0.060998
v -0.073870 0.012572 -0.061963
v 0.130444 0.039113 0.025144
v 0.130562 0.023631 0.031671
v -0.001920 0.025635 -0.061567
v -0.002271 0.012600 -0.066035
v -0.040487 0.030913 -0.042962
v -0.000692 0.030928 -0.046134
v -0.071680 0.034971 -0.024129
v -0.104775 0.027222 -0.039473
v -0.073102 0.028863 -0.041997
v -0.100438 0.028436 0.014942
v -0.102435 0.025176 0.015509
v -0.109592 0.036586 -0.017837
v -0.113824 0.036579 0.011106
v -0.107584 0.033323 0.007339
v -0.106912 -0.017197 0.051413
v -0.102416 -0.025337 0.015501
v -0.107824 -0.025338 0.014297
v -0.111817 0.038205 0.036283
v -0.104671 0.033318 0.043886
v -0.104669 0.028429 0.043885
v 0.128903 0.045225 0.010965
v 0.128937 -0.045210 0.010949
v 0.044200 -0.053390 0.019337
v 0.130474 -0.039101 0.025130
v -0.109882 0.033327 -0.021492
v -0.108964 0.025174 0.015621
v -0.106089 0.055725 0.031334
v -0.105406 0.047169 0.039860
v -0.112502 0.051649 0.027758
v -0.099593 0.058986 0.030816
v -0.106689 0.063466 0.018715
v -0.262954 -0.000143 0.026667
v -0.255334 -0.005435 0.024833
v -0.261993 -0.005438 0.023320
v -0.192487 -0.020485 0.028811
v -0.114354 -0.025341 0.014409
v -0.194520 -0.028627 -0.006990
v -0.098258 0.037393 0.047462
v -0.071669 0.046377 -0.018815
v -0.194840 -0.031883 -0.021268
v -0.109857 -0.033480 -0.021504
v -0.188310 -0.031880 -0.021379
v -0.190612 -0.021692 -0.050209
v -0.106476 -0.010660 -0.061001
v -0.190907 -0.011100 -0.053862
v 0.212686 -0.037436 -0.004716
v 0.126412 -0.051725 -0.010509
v -0.192503 0.020252 0.028818
v -0.106925 0.017021 0.051419
v -0.187094 0.020253 0.030022
v -0.194863 0.031666 -0.021257
v -0.114373 0.025172 0.014417
v -0.192824 0.023513 0.014541
v -0.190628 0.021488 -0.050202
v -0.189206 0.027596 -0.032333
v -0.191235 -0.000101 -0.057921
v -0.190948 0.010490 -0.054265
v -0.074221 -0.000056 -0.066432
v -0.073926 -0.010648 -0.062779
v -0.065831 -0.023700 0.048954
v -0.035288 -0.037537 0.042431
v -0.066961 -0.037549 0.044956
v -0.067686 -0.051399 0.040925
v -0.036607 -0.059125 0.025778
v -0.067875 -0.059137 0.028271
v -0.106641 -0.063631 0.018692
v -0.101651 -0.063220 0.004400
v -0.108150 -0.059963 0.004919
v -0.109625 -0.056295 -0.008449
v -0.103244 -0.046514 -0.015495
v -0.109710 -0.043258 -0.014570
v -0.068469 -0.066876 0.015649
v -0.038368 -0.063195 -0.001462
v -0.070042 -0.063207 0.001063
v -0.071550 -0.059539 -0.012710
v -0.039960 -0.048119 -0.021357
v -0.071569 -0.048132 -0.018020
v -0.105370 -0.047339 0.039843
v -0.104646 -0.033490 0.043874
v -0.098230 -0.037562 0.047448
v -0.106047 -0.055893 0.031314
v -0.099549 -0.059150 0.030796
v -0.112463 -0.051821 0.027740
v -0.111788 -0.038379 0.036269
v -0.104648 -0.028602 0.043875
v -0.113796 -0.036747 0.011093
v -0.106653 -0.031857 0.018698
v -0.099504 -0.020454 0.052048
v -0.100416 -0.028595 0.014932
v -0.073565 -0.023276 -0.058314
v -0.104754 -0.027365 -0.039482
v -0.072138 -0.029389 -0.040448
v -0.001901 -0.025693 -0.061575
v -0.040464 -0.031006 -0.042973
v -0.001416 -0.031399 -0.045269
v -0.041310 -0.012672 -0.063745
v -0.002261 -0.013064 -0.066040
v 0.130558 -0.011810 0.036570
v 0.215317 -0.015442 0.023275
v 0.130452 -0.027289 0.030038
v 0.038380 -0.031383 -0.048441
v 0.122777 -0.026869 -0.055985
v 0.121545 -0.021571 -0.071415
v 0.206054 -0.008502 -0.082645
v 0.121184 -0.008535 -0.075880
v 0.036787 -0.013049 -0.068335
v 0.004659 -0.049334 0.035975
v 0.005790 -0.035485 0.039974
v 0.045714 -0.035469 0.038426
v 0.003123 -0.055443 0.021794
v 0.002934 -0.063181 0.009140
v -0.000165 -0.048104 -0.024529
v -0.000183 -0.036697 -0.029838
v 0.001361 -0.059512 -0.005446
v 0.041138 -0.048090 -0.013927
v -0.067830 -0.020441 0.049523
v -0.089321 -0.017191 0.051646
v -0.100583 -0.008642 0.059083
v -0.088400 -0.008637 0.058112
v -0.071595 0.059411 -0.012690
v -0.070025 0.063076 0.001897
v -0.103279 0.046364 -0.015478
v -0.109518 0.049620 -0.011712
v -0.109668 0.056137 -0.008429
v -0.101699 0.063063 0.004422
v -0.108162 0.059802 0.005346
v -0.068519 0.066740 0.015672
v -0.068325 0.058998 0.028324
v -0.067725 0.051256 0.040943
v -0.066584 0.037405 0.044937
v 0.124886 -0.040316 -0.029593
v 0.208051 -0.030504 -0.052567
v 0.429593 0.000123 -0.005655
v 0.366966 -0.015381 -0.001891
v 0.277838 -0.015417 0.012978
v 0.518432 -0.007987 -0.024181
v 0.366677 -0.023527 -0.005547
v 0.366031 -0.027192 -0.013669
v 0.517498 -0.019799 -0.035959
v 0.363506 -0.033707 -0.035128
v 0.516203 -0.019797 -0.052202
v 0.362857 -0.030040 -0.043249
v 0.360748 -0.016593 -0.069641
v 0.515260 -0.007982 -0.063976
v 0.360454 -0.008445 -0.073294
v -0.231725 -0.000134 0.044201
v -0.231856 0.004755 0.042578
v -0.207286 0.004761 0.058600
v -0.255338 0.005156 0.024835
v -0.230899 0.010051 0.039233
v -0.137045 -0.013951 0.057902
v -0.136124 -0.005398 0.064368
v -0.231853 -0.005022 0.042576
v -0.230891 -0.010317 0.039229
v -0.231253 0.013720 0.024550
v -0.207771 0.013319 0.042293
v -0.190006 0.010063 0.060084
v -0.189874 0.005174 0.061707
v -0.137055 0.013750 0.057907
v -0.154467 0.013337 0.054799
v -0.164147 0.005183 0.066604
v -0.128609 0.008456 0.061319
v -0.207282 -0.005016 0.058598
v -0.231243 -0.013981 0.024545
v -0.207761 -0.013567 0.042289
v -0.164143 -0.005408 0.066602
v -0.189998 -0.010305 0.060080
v -0.181555 -0.005007 0.063495
v -0.190349 -0.013969 0.045396
v -0.112465 -0.046933 0.027741
v -0.115982 0.046358 -0.010788
v -0.114658 0.056540 0.005863
v -0.114508 0.050023 0.002581
v 0.515908 -0.011649 -0.055855
v 0.517777 0.011975 -0.032298
v 0.280372 0.000057 0.049966
v 0.279951 0.000058 0.044687
v 0.341177 0.000086 0.018148
v 0.343184 0.000082 0.043324
v 0.342472 0.000084 0.034391
v 0.410295 0.000096 0.111124
v 0.505735 0.000120 0.175439
v 0.439919 0.000105 0.123883
v 0.368690 0.000095 0.024945
v 0.470615 0.000135 0.016820
v 0.443814 0.000124 0.018956
v 0.544394 0.000166 -0.000913
v 0.530885 0.000163 -0.016590
v 0.532230 0.000162 -0.004847
v 0.367978 0.000096 0.016011
v 0.443384 0.063266 0.019000
v 0.518508 0.063295 0.013011
v 0.534723 0.138664 0.011729
v 0.507924 0.131728 0.013865
v 0.518076 0.133361 0.013056
v -0.002622 -0.000028 -0.070505
v 0.015640 0.028902 -0.071956
v -0.023408 0.028887 -0.069661
v 0.234184 0.000064 -0.088564
v 0.262139 0.169946 -0.090768
v 0.234121 0.169935 -0.088535
v 0.180867 0.323083 -0.084267
v 0.232433 0.336546 -0.088376
v 0.210509 0.326353 -0.086630
v 0.182554 0.156472 -0.084426
v 0.097684 0.156439 -0.077660
v 0.109398 0.235472 -0.078992
v 0.133010 0.079054 -0.080896
v 0.048140 0.079021 -0.074131
v 0.027354 0.107935 -0.073287
v 0.048199 -0.079037 -0.074158
v 0.027435 -0.107967 -0.073325
v 0.015662 -0.028944 -0.071966
v 0.182672 -0.156384 -0.084480
v 0.097802 -0.156417 -0.077715
v 0.109575 -0.235440 -0.079074
v 0.133069 -0.079004 -0.080924
v 0.262267 -0.169795 -0.090827
v 0.234248 -0.169806 -0.088594
v 0.181110 -0.322996 -0.084380
v 0.232687 -0.336418 -0.088493
v 0.210754 -0.326243 -0.086743
v 0.443431 -0.063017 0.018978
v 0.518556 -0.062988 0.012989
v 0.534827 -0.138343 0.011681
v 0.508023 -0.131429 0.013819
v 0.518176 -0.133054 0.013009
v -0.023386 -0.028959 -0.069671
v -0.362794 0.008379 -0.000518
v -0.363833 0.018565 -0.013510
v -0.364721 0.016938 -0.029786
v -0.365656 0.006756 -0.041564
v -0.363819 -0.018912 -0.013517
v -0.387446 -0.000185 -0.002232
v -0.390629 0.013261 -0.021591
v -0.065849 0.023554 0.048963
v 0.277944 0.000062 0.019511
v -0.041319 0.012585 -0.063740
v -0.238863 -0.008688 0.026379
v -0.154808 -0.017213 0.040111
v -0.185559 -0.008670 0.038885
v -0.190967 -0.008672 0.037682
v -0.189737 -0.025768 -0.039246
v -0.154821 0.017005 0.040117
v -0.240399 0.020235 0.017516
v -0.263526 0.016968 0.014455
v -0.264483 0.011672 0.017800
v -0.195736 0.027594 -0.032222
v -0.114616 -0.056707 0.005843
v -0.109565 -0.036740 -0.017850
v -0.115947 -0.046521 -0.010804
v -0.071653 -0.035095 -0.024141
v -0.127681 -0.000099 0.067783
v -0.181428 -0.000119 0.065120
v -0.113941 -0.043265 0.014373
v -0.113825 0.041467 0.011107
v 0.516554 -0.007984 -0.047733
v 0.516843 0.000163 -0.044077
v 0.517131 0.008310 -0.040421
v 0.278656 0.000061 0.028444
v 0.278365 0.000061 0.024790
v 0.553761 0.000136 0.188366
v 0.458322 0.000112 0.124050
v 0.558952 0.000154 0.099682
v 0.445109 0.000122 0.035199
v 0.369985 0.000093 0.041188
v 0.457027 0.000114 0.107807
v 0.438624 0.000107 0.107640
v 0.409001 0.000098 0.094881
v 0.443102 0.000126 0.010023
v 0.457105 0.000132 0.001142
v 0.469270 0.000136 0.005076
v 0.535156 0.068597 0.011685
v 0.545307 0.070230 0.010876
v 0.470182 0.070201 0.016864
v 0.204479 0.166665 -0.086172
v 0.210573 0.156483 -0.086659
v 0.204604 -0.166559 -0.086230
v 0.210691 -0.156373 -0.086714
v 0.535207 -0.068277 0.011661
v 0.545359 -0.069902 0.010851
v 0.470235 -0.069932 0.016840
f 1 143 145
f 143 2 144
f 144 3 145
f 143 144 145
f 4 146 148
f 146 5 147
f 147 2 148
f 146 147 148
f 6 149 151
f 149 7 150
f 150 8 151
f 149 150 151
f 9 152 153
f 152 6 151
f 151 8 153
f 152 151 153
f 10 154 156
f 154 11 155
f 155 5 156
f 154 155 156
f 12 157 159
f 157 13 158
f 158 11 159
f 157 158 159
f 14 160 161
f 160 9 153
f 153 8 161
f 160 153 161
f 15 162 163
f 162 14 161
f 161 8 163
f 162 161 163
f 16 164 166
f 164 12 165
f 165 7 166
f 164 165 166
f 17 167 169
f 167 16 168
f 168 6 169
f 167 168 169
f 17 170 171
f 170 9 160
f 160 14 171
f 170 160 171
f 18 172 174
f 172 19 173
f 173 14 174
f 172 173 174
f 20 175 177
f 175 21 176
f 176 22 177
f 175 176 177
f 23 178 179
f 178 22 176
f 176 21 179
f 178 176 179
f 24 180 181
f 180 20 177
f 177 22 181
f 180 177 181
f 25 182 183
f 182 24 181
f 181 22 183
f 182 181 183
f 26 184 185
f 184 22 178
f 178 23 185
f 184 178 185
f 26 186 188
f 186 27 187
f 187 28 188
f 186 187 188
f 28 189 188
f 189 25 190
f 190 26 188
f 189 190 188
f 16 191 193
f 191 29 192
f 192 13 193
f 191 192 193
f 17 194 196
f 194 30 195
f 195 29 196
f 194 195 196
f 19 197 199
f 197 31 198
f 198 30 199
f 197 198 199
f 18 200 202
f 200 3 201
f 201 31 202
f 200 201 202
f 8 150 204
f 150 7 203
f 203 32 204
f 150 203 204
f 8 204 206
f 204 32 205
f 205 33 206
f 204 205 206
f 8 206 208
f 206 33 207
f 207 34 208
f 206 207 208
f 8 208 163
f 208 34 209
f 209 15 163
f 208 209 163
f 32 203 210
f 203 7 165
f 165 12 210
f 203 165 210
f 33 205 212
f 205 32 211
f 211 10 212
f 205 211 212
f 1 213 214
f 213 34 207
f 207 33 214
f 213 207 214
f 15 209 215
f 209 34 213
f 213 1 215
f 209 213 215
f 35 216 218
f 216 21 217
f 217 36 218
f 216 217 218
f 21 216 179
f 216 35 219
f 219 23 179
f 216 219 179
f 35 218 221
f 218 36 220
f 220 37 221
f 218 220 221
f 38 222 223
f 222 35 221
f 221 37 223
f 222 221 223
f 27 224 225
f 224 23 219
f 219 35 225
f 224 219 225
f 28 187 227
f 187 27 226
f 226 38 227
f 187 226 227
f 38 228 227
f 228 39 229
f 229 28 227
f 228 229 227
f 40 230 232
f 230 41 231
f 231 42 232
f 230 231 232
f 40 233 230
f 233 43 234
f 234 41 230
f 233 234 230
f 43 235 234
f 235 44 236
f 236 41 234
f 235 236 234
f 36 237 239
f 237 45 238
f 238 46 239
f 237 238 239
f 21 240 242
f 240 47 241
f 241 45 242
f 240 241 242
f 39 243 229
f 243 48 244
f 244 28 229
f 243 244 229
f 43 245 235
f 245 49 246
f 246 44 235
f 245 246 235
f 49 245 248
f 245 43 247
f 247 50 248
f 245 247 248
f 37 249 251
f 249 50 250
f 250 39 251
f 249 250 251
f 37 252 249
f 252 49 248
f 248 50 249
f 252 248 249
f 51 253 255
f 253 52 254
f 254 53 255
f 253 254 255
f 257 53 254
f 256 257 254
f 53 258 255
f 258 40 259
f 259 51 255
f 258 259 255
f 43 233 261
f 233 40 260
f 260 55 261
f 233 260 261
f 55 260 262
f 260 40 258
f 258 53 262
f 260 258 262
f 48 263 265
f 263 56 264
f 264 57 265
f 263 264 265
f 56 266 264
f 266 58 267
f 267 57 264
f 266 267 264
f 58 266 269
f 266 56 268
f 268 59 269
f 266 268 269
f 56 270 268
f 270 55 271
f 271 59 268
f 270 271 268
f 55 272 271
f 272 60 273
f 273 59 271
f 272 273 271
f 55 262 272
f 262 53 274
f 274 60 272
f 262 274 272
f 53 275 274
f 275 61 276
f 276 60 274
f 275 276 274
f 53 257 275
f 257 54 277
f 277 61 275
f 257 277 275
f 62 278 280
f 278 63 279
f 279 64 280
f 278 279 280
f 50 281 282
f 281 56 263
f 263 48 282
f 281 263 282
f 52 253 284
f 253 51 283
f 283 62 284
f 253 283 284
f 40 232 286
f 232 42 285
f 285 62 286
f 232 285 286
f 42 287 289
f 287 65 288
f 288 63 289
f 287 288 289
f 65 290 291
f 290 46 238
f 238 45 291
f 290 238 291
f 65 292 294
f 292 66 293
f 293 67 294
f 292 293 294
f 68 295 297
f 295 69 296
f 296 70 297
f 295 296 297
f 67 298 300
f 298 71 299
f 299 46 300
f 298 299 300
f 55 270 261
f 270 56 301
f 301 43 261
f 270 301 261
f 50 247 281
f 247 43 301
f 301 56 281
f 247 301 281
f 72 302 304
f 302 73 303
f 303 74 304
f 302 303 304
f 75 305 306
f 305 65 291
f 291 45 306
f 305 291 306
f 76 307 309
f 307 77 308
f 308 71 309
f 307 308 309
f 78 310 311
f 310 77 307
f 307 76 311
f 310 307 311
f 3 312 314
f 312 79 313
f 313 80 314
f 312 313 314
f 31 315 317
f 315 68 316
f 316 81 317
f 315 316 317
f 46 299 318
f 299 71 308
f 308 77 318
f 299 308 318
f 65 287 319
f 287 42 231
f 231 41 319
f 287 231 319
f 30 320 322
f 320 81 321
f 321 70 322
f 320 321 322
f 29 323 325
f 323 82 324
f 324 64 325
f 323 324 325
f 73 302 327
f 302 72 326
f 326 83 327
f 302 326 327
f 2 328 330
f 328 84 329
f 329 45 330
f 328 329 330
f 5 331 333
f 331 75 332
f 332 84 333
f 331 332 333
f 11 334 335
f 334 63 288
f 288 65 335
f 334 288 335
f 13 336 337
f 336 64 279
f 279 63 337
f 336 279 337
f 85 338 339
f 338 64 324
f 324 82 339
f 338 324 339
f 86 340 342
f 340 24 341
f 341 87 342
f 340 341 342
f 88 343 345
f 343 87 344
f 344 89 345
f 343 344 345
f 90 346 348
f 346 91 347
f 347 92 348
f 346 347 348
f 93 349 351
f 349 92 350
f 350 70 351
f 349 350 351
f 91 352 354
f 352 89 353
f 353 94 354
f 352 353 354
f 92 355 357
f 355 94 356
f 356 95 357
f 355 356 357
f 88 358 360
f 358 96 359
f 359 86 360
f 358 359 360
f 90 361 346
f 361 88 362
f 362 91 346
f 361 362 346
f 96 358 363
f 358 88 361
f 361 90 363
f 358 361 363
f 86 359 365
f 359 96 364
f 364 97 365
f 359 364 365
f 86 365 367
f 365 97 366
f 366 98 367
f 365 366 367
f 69 368 296
f 368 86 369
f 369 70 296
f 368 369 296
f 99 370 372
f 370 82 371
f 371 70 372
f 370 371 372
f 100 373 375
f 373 99 374
f 374 95 375
f 373 374 375
f 85 376 377
f 376 99 373
f 373 100 377
f 376 373 377
f 25 378 380
f 378 48 379
f 379 72 380
f 378 379 380
f 100 381 383
f 381 101 382
f 382 102 383
f 381 382 383
f 102 384 385
f 384 256 385
f 102 385 383
f 385 52 386
f 386 100 383
f 385 386 383
f 74 387 388
f 387 87 341
f 341 24 388
f 387 341 388
f 25 389 182
f 389 74 388
f 388 24 182
f 389 388 182
f 74 303 387
f 303 73 390
f 390 87 387
f 303 390 387
f 89 344 391
f 344 87 390
f 390 73 391
f 344 390 391
f 95 356 393
f 356 94 392
f 392 101 393
f 356 392 393
f 94 394 392
f 394 73 395
f 395 101 392
f 394 395 392
f 94 353 394
f 353 89 391
f 391 73 394
f 353 391 394
f 24 340 396
f 340 86 368
f 368 69 396
f 340 368 396
f 20 397 399
f 397 69 398
f 398 47 399
f 397 398 399
f 28 244 189
f 244 48 378
f 378 25 189
f 244 378 189
f 103 400 401
f 400 41 236
f 236 44 401
f 400 236 401
f 66 292 403
f 292 65 402
f 402 103 403
f 292 402 403
f 104 404 406
f 404 103 405
f 405 78 406
f 404 405 406
f 78 407 408
f 407 44 246
f 246 49 408
f 407 246 408
f 77 409 410
f 409 49 252
f 252 37 410
f 409 252 410
f 83 411 327
f 411 101 395
f 395 73 327
f 411 395 327
f 102 382 412
f 382 101 411
f 411 83 412
f 382 411 412
f 105 413 415
f 413 57 414
f 414 72 415
f 413 414 415
f 57 416 414
f 416 106 417
f 417 72 414
f 416 417 414
f 107 418 419
f 418 72 417
f 417 106 419
f 418 417 419
f 107 420 418
f 420 83 326
f 326 72 418
f 420 326 418
f 107 421 420
f 421 108 422
f 422 83 420
f 421 422 420
f 108 423 422
f 423 102 412
f 412 83 422
f 423 412 422
f 108 424 423
f 424 61 425
f 425 102 423
f 424 425 423
f 61 277 425
f 277 54 384
f 384 102 425
f 277 384 425
f 109 426 428
f 426 79 427
f 427 110 428
f 426 427 428
f 110 427 430
f 427 79 429
f 429 111 430
f 427 429 430
f 47 398 432
f 398 69 431
f 431 112 432
f 398 431 432
f 80 313 434
f 313 79 433
f 433 113 434
f 313 433 434
f 110 430 436
f 430 111 435
f 435 114 436
f 430 435 436
f 109 428 438
f 428 110 437
f 437 115 438
f 428 437 438
f 45 439 440
f 439 115 437
f 437 110 440
f 439 437 440
f 116 441 442
f 441 115 439
f 439 45 442
f 441 439 442
f 113 433 443
f 433 79 426
f 426 109 443
f 433 426 443
f 117 444 445
f 444 80 434
f 434 113 445
f 444 434 445
f 116 446 448
f 446 112 447
f 447 113 448
f 446 447 448
f 117 445 449
f 445 113 447
f 447 112 449
f 445 447 449
f 97 364 450
f 364 96 363
f 363 90 450
f 364 363 450
f 66 451 453
f 451 104 452
f 452 76 453
f 451 452 453
f 61 424 454
f 424 108 421
f 421 107 454
f 424 421 454
f 57 267 455
f 267 58 269
f 269 59 455
f 267 269 455
f 456 118 457
f 244 456 457
f 118 461 463
f 461 120 462
f 462 121 463
f 461 462 463
f 123 467 469
f 467 124 468
f 468 57 469
f 467 468 469
f 122 464 470
f 464 458 470
f 471 125 472
f 465 471 472
f 126 473 475
f 473 127 474
f 474 125 475
f 473 474 475
f 477 52 476
f 477 476 478
f 54 479 481
f 479 129 480
f 480 130 481
f 479 480 481
f 131 482 484
f 482 132 483
f 483 130 484
f 482 483 484
f 52 256 486
f 256 54 485
f 485 131 486
f 256 485 486
f 133 487 488
f 487 131 485
f 485 54 488
f 487 485 488
f 128 490 477
f 489 52 477
f 490 489 477
f 135 492 493
f 491 52 493
f 492 491 493
f 52 256 495
f 256 54 494
f 494 136 495
f 256 494 495
f 134 496 497
f 496 136 494
f 494 54 497
f 496 494 497
f 54 479 499
f 479 129 498
f 498 137 499
f 479 498 499
f 136 500 502
f 500 138 501
f 501 137 502
f 500 501 502
f 503 139 504
f 465 503 504
f 140 505 507
f 505 141 506
f 506 139 507
f 505 506 507
f 476 85 508
f 493 476 508
f 1 145 509
f 145 3 200
f 200 18 509
f 145 200 509
f 4 148 510
f 148 2 143
f 143 1 510
f 148 143 510
f 10 156 511
f 156 5 146
f 146 4 511
f 156 146 511
f 12 159 512
f 159 11 154
f 154 10 512
f 159 154 512
f 16 166 168
f 166 7 149
f 149 6 168
f 166 149 168
f 17 169 170
f 169 6 152
f 152 9 170
f 169 152 170
f 17 171 513
f 171 14 173
f 173 19 513
f 171 173 513
f 18 174 514
f 174 14 162
f 162 15 514
f 174 162 514
f 25 183 190
f 183 22 184
f 184 26 190
f 183 184 190
f 26 185 186
f 185 23 224
f 224 27 186
f 185 224 186
f 16 193 164
f 193 13 157
f 157 12 164
f 193 157 164
f 17 196 167
f 196 29 191
f 191 16 167
f 196 191 167
f 19 199 513
f 199 30 194
f 194 17 513
f 199 194 513
f 18 202 172
f 202 31 197
f 197 19 172
f 202 197 172
f 32 210 211
f 210 12 512
f 512 10 211
f 210 512 211
f 33 212 515
f 212 10 511
f 511 4 515
f 212 511 515
f 1 214 510
f 214 33 515
f 515 4 510
f 214 515 510
f 15 215 514
f 215 1 509
f 509 18 514
f 215 509 514
f 38 223 228
f 223 37 251
f 251 39 228
f 223 251 228
f 27 225 226
f 225 35 222
f 222 38 226
f 225 222 226
f 36 239 220
f 239 46 516
f 516 37 220
f 239 516 220
f 21 242 217
f 242 45 237
f 237 36 217
f 242 237 217
f 265 413 517
f 62 280 518
f 280 64 338
f 338 85 518
f 280 338 518
f 50 282 250
f 282 48 243
f 243 39 250
f 282 243 250
f 284 62 518
f 284 518 476
f 40 286 259
f 286 62 283
f 283 51 259
f 286 283 259
f 42 289 285
f 289 63 278
f 278 62 285
f 289 278 285
f 65 294 290
f 294 67 300
f 300 46 290
f 294 300 290
f 68 297 316
f 297 70 321
f 321 81 316
f 297 321 316
f 75 306 332
f 306 45 329
f 329 84 332
f 306 329 332
f 3 314 519
f 314 80 444
f 444 117 519
f 314 444 519
f 3 519 521
f 519 117 520
f 520 69 521
f 519 520 521
f 3 521 522
f 521 69 295
f 295 68 522
f 521 295 522
f 3 522 201
f 522 68 315
f 315 31 201
f 522 315 201
f 31 317 198
f 317 81 320
f 320 30 198
f 317 320 198
f 65 319 402
f 319 41 400
f 400 103 402
f 319 400 402
f 30 322 523
f 322 70 371
f 371 82 523
f 322 371 523
f 30 523 195
f 523 82 323
f 323 29 195
f 523 323 195
f 29 325 192
f 325 64 336
f 336 13 192
f 325 336 192
f 2 330 525
f 330 45 524
f 524 114 525
f 330 524 525
f 2 525 526
f 525 114 435
f 435 111 526
f 525 435 526
f 2 526 527
f 526 111 429
f 429 79 527
f 526 429 527
f 2 527 144
f 527 79 312
f 312 3 144
f 527 312 144
f 5 333 147
f 333 84 328
f 328 2 147
f 333 328 147
f 11 335 528
f 335 65 305
f 305 75 528
f 335 305 528
f 11 528 155
f 528 75 331
f 331 5 155
f 528 331 155
f 13 337 158
f 337 63 334
f 334 11 158
f 337 334 158
f 85 339 376
f 339 82 370
f 370 99 376
f 339 370 376
f 86 342 360
f 342 87 343
f 343 88 360
f 342 343 360
f 88 345 362
f 345 89 352
f 352 91 362
f 345 352 362
f 90 348 529
f 348 92 349
f 349 93 529
f 348 349 529
f 93 351 531
f 351 70 530
f 530 98 531
f 351 530 531
f 91 354 347
f 354 94 355
f 355 92 347
f 354 355 347
f 92 357 350
f 357 95 532
f 532 70 350
f 357 532 350
f 86 367 369
f 367 98 530
f 530 70 369
f 367 530 369
f 99 372 374
f 372 70 532
f 532 95 374
f 372 532 374
f 100 375 381
f 375 95 393
f 393 101 381
f 375 393 381
f 377 100 386
f 377 386 476
f 25 380 389
f 380 72 304
f 304 74 389
f 380 304 389
f 24 396 180
f 396 69 397
f 397 20 180
f 396 397 180
f 20 399 175
f 399 47 240
f 240 21 175
f 399 240 175
f 103 401 405
f 401 44 407
f 407 78 405
f 401 407 405
f 66 403 451
f 403 103 404
f 404 104 451
f 403 404 451
f 104 406 452
f 406 78 311
f 311 76 452
f 406 311 452
f 78 408 310
f 408 49 409
f 409 77 310
f 408 409 310
f 77 410 318
f 410 37 516
f 516 46 318
f 410 516 318
f 105 415 517
f 415 72 379
f 379 48 517
f 415 379 517
f 47 432 533
f 432 112 446
f 446 116 533
f 432 446 533
f 109 438 534
f 438 115 441
f 441 116 534
f 438 441 534
f 45 440 524
f 440 110 436
f 436 114 524
f 440 436 524
f 116 442 533
f 442 45 241
f 241 47 533
f 442 241 533
f 116 448 534
f 448 113 443
f 443 109 534
f 448 443 534
f 117 449 520
f 449 112 431
f 431 69 520
f 449 431 520
f 97 450 535
f 450 90 529
f 529 93 535
f 450 529 535
f 97 535 366
f 535 93 531
f 531 98 366
f 535 531 366
f 66 453 536
f 453 76 309
f 309 71 536
f 453 309 536
f 66 536 293
f 536 71 298
f 298 67 293
f 536 298 293
f 61 454 537
f 454 107 419
f 419 106 537
f 454 419 537
f 61 537 538
f 537 106 416
f 416 57 538
f 537 416 538
f 57 455 539
f 455 59 273
f 273 60 539
f 455 273 539
f 57 539 538
f 539 60 276
f 276 61 538
f 539 276 538
f 48 457 540
f 457 118 459
f 459 119 540
f 457 459 540
f 48 540 517
f 540 119 458
f 458 105 517
f 540 458 517
f 105 460 541
f 460 118 456
f 456 28 541
f 460 456 541
f 541 244 517
f 118 463 543
f 463 121 542
f 542 142 543
f 463 542 543
f 118 543 545
f 543 142 544
f 544 123 545
f 543 544 545
f 118 545 546
f 545 465 546
f 546 122 464
f 546 464 459
f 119 466 547
f 466 123 544
f 544 142 547
f 466 544 547
f 119 547 548
f 547 142 542
f 542 121 548
f 547 542 548
f 119 548 549
f 548 121 462
f 462 120 549
f 548 462 549
f 119 549 459
f 549 120 461
f 461 118 459
f 549 461 459
f 123 469 550
f 469 57 413
f 413 105 550
f 469 413 550
f 123 550 466
f 550 105 458
f 458 119 466
f 550 458 466
f 122 470 551
f 470 413 551
f 122 551 552
f 551 57 468
f 468 124 552
f 551 468 552
f 552 124 467
f 552 467 465
f 123 472 553
f 472 125 474
f 474 127 553
f 472 474 553
f 123 553 554
f 553 127 473
f 473 126 554
f 553 473 554
f 126 475 555
f 475 125 471
f 471 122 555
f 475 471 555
f 126 555 554
f 555 122 465
f 465 123 554
f 555 465 554
f 54 481 556
f 481 130 483
f 483 132 556
f 481 483 556
f 556 132 482
f 556 482 485
f 131 484 557
f 484 130 480
f 480 129 557
f 484 480 557
f 557 479 485
f 52 486 489
f 486 131 487
f 487 133 489
f 486 487 489
f 133 488 489
f 488 256 489
f 52 495 491
f 495 136 496
f 496 134 491
f 495 496 491
f 134 497 491
f 497 256 491
f 54 499 558
f 499 137 501
f 501 138 558
f 499 501 558
f 558 138 500
f 558 500 494
f 136 502 559
f 502 137 498
f 498 129 559
f 502 498 559
f 559 479 494
f 123 504 560
f 504 139 506
f 506 141 560
f 504 506 560
f 123 560 561
f 560 141 505
f 505 140 561
f 560 505 561
f 140 507 562
f 507 139 503
f 503 122 562
f 507 503 562
f 140 562 561
f 562 122 465
f 465 123 561
f 562 465 561
