# Original shape: m1236.obj
# No processing applied - exact copy of source file
# Generated on 2025-10-13 15:29:06

v 0.329336 0.060870 0.060870
v 0.315324 0.068156 0.121962
v 0.317566 0.083850 0.121401
v 0.315324 0.072080 0.200988
v 0.317566 0.090015 0.200428
v 0.315324 0.082729 0.412286
v 0.316445 0.096740 0.411726
v 0.331578 0.050782 0.060870
v 0.319808 0.049100 0.121962
v 0.343909 0.046858 0.060870
v 0.343909 0.039572 0.121962
v 0.320369 0.047419 0.200988
v 0.343909 0.039572 0.153348
v 0.331018 0.043496 0.200988
v 0.323171 0.044056 0.412286
v 0.237979 0.071519 0.647124
v 0.225649 0.070959 0.649366
v 0.223968 0.070959 0.568658
v 0.343909 0.057507 0.025000
v 0.331018 0.070959 0.060310
v 0.343909 0.075442 0.060870
v 0.174646 0.069277 0.666180
v 0.166239 0.069277 0.667301
v 0.173525 0.069277 0.599484
v 0.163437 0.068717 0.655531
v 0.159513 0.068717 0.593319
v 0.172965 0.069277 0.588835
v 0.130929 0.068156 0.604528
v 0.153348 0.068717 0.596121
v 0.158392 0.068717 0.668422
v 0.124764 0.067596 0.671224
v 0.127006 0.067596 0.641519
v 0.134853 0.068156 0.639838
v 0.110192 0.067596 0.612935
v 0.125324 0.067596 0.606770
v 0.117478 0.067596 0.672345
v 0.087212 0.066475 0.623024
v 0.102345 0.067035 0.615737
v 0.098422 0.067035 0.663378
v 0.095619 0.067035 0.675147
v 0.076003 0.066475 0.677950
v 0.074321 0.066475 0.649366
v 0.069838 0.065915 0.648245
v 0.064794 0.065915 0.631431
v 0.069838 0.065915 0.629189
v 0.046298 0.065354 0.732316
v 0.069838 0.065915 0.678510
v 0.264882 0.072080 0.628068
v 0.264882 0.072080 0.727832
v 0.264882 0.072080 0.741844
v 0.046298 0.065354 0.619661
v 0.060310 0.065915 0.632552
v 0.065915 0.065915 0.651047
v 0.264882 0.072080 0.527183
v 0.244145 0.071519 0.560251
v 0.234617 0.070959 0.564735
v 0.611254 0.066475 0.626947
v 0.619661 0.065915 0.629749
v 0.618540 0.065915 0.672906
v 0.287861 0.096740 0.781637
v 0.281696 0.078805 0.781637
v 0.279454 0.072080 0.781637
v 0.287861 0.096740 0.727832
v 0.281696 0.078805 0.727832
v 0.279454 0.072080 0.727832
v 0.548481 0.068156 0.671785
v 0.562493 0.067596 0.620221
v 0.562493 0.067596 0.672906
v 0.287861 0.097861 0.677389
v 0.287861 0.097861 0.662257
v 0.281696 0.078805 0.629749
v 0.323171 0.044056 0.484027
v 0.315324 0.082729 0.484027
v 0.337743 0.038451 0.412286
v 0.282817 0.045177 0.616858
v 0.282817 0.045177 0.727832
v 0.300752 0.025000 0.616858
v 0.300752 0.025000 0.727832
v 0.282257 0.049100 0.781637
v 0.280015 0.064794 0.781637
v 0.300752 0.028923 0.781637
v 0.281696 0.064794 0.802935
v 0.283938 0.064794 0.864027
v 0.300752 0.036209 0.864027
v 0.285059 0.053024 0.864027
v 0.318687 0.025000 0.616858
v 0.318687 0.025000 0.727832
v 0.318687 0.028923 0.781637
v 0.318687 0.036209 0.864027
v 0.323171 0.044056 0.526062
v 0.315324 0.082729 0.527183
v 0.339985 0.037330 0.484027
v 0.332699 0.040133 0.781637
v 0.343909 0.036209 0.864027
v 0.343909 0.036209 0.781637
v 0.335501 0.039572 0.727832
v 0.343909 0.036209 0.727832
v 0.335501 0.039572 0.617419
v 0.315324 0.096740 0.484027
v 0.279454 0.072080 0.527183
v 0.280575 0.057507 0.527183
v 0.300752 0.036209 0.527183
v 0.313643 0.036209 0.527183
v 0.341106 0.036770 0.527183
v 0.341667 0.036770 0.549041
v 0.343909 0.036209 0.616858
v 0.325973 0.100664 0.616858
v 0.318687 0.098422 0.527183
v 0.281696 0.078805 0.527183
v 0.279454 0.072080 0.616858
v 0.560811 0.067596 0.606770
v 0.546239 0.068156 0.658333
v 0.546799 0.068156 0.601165
v 0.528864 0.068717 0.594440
v 0.541195 0.068717 0.598923
v 0.540074 0.068717 0.671224
v 0.515413 0.069277 0.667861
v 0.519897 0.069277 0.634794
v 0.523820 0.068717 0.635914
v 0.513171 0.069277 0.587714
v 0.520457 0.069277 0.590516
v 0.507566 0.069277 0.666740
v 0.491313 0.069838 0.666180
v 0.464410 0.070959 0.662817
v 0.464970 0.070959 0.618540
v 0.496357 0.069838 0.648805
v 0.493555 0.069838 0.580428
v 0.505885 0.069277 0.584912
v 0.460487 0.070959 0.605088
v 0.450959 0.070959 0.563614
v 0.471696 0.070398 0.570900
v 0.422935 0.072080 0.741844
v 0.456003 0.070959 0.662257
v 0.293466 0.042935 0.913909
v 0.290103 0.072080 0.913909
v 0.282817 0.072080 0.864027
v 0.290103 0.093378 0.864027
v 0.641519 0.065354 0.732316
v 0.625265 0.065915 0.680752
v 0.626386 0.065915 0.632552
v 0.422935 0.072080 0.527183
v 0.442552 0.071519 0.560251
v 0.455442 0.070959 0.615177
v 0.641519 0.065354 0.619661
v 0.356799 0.043496 0.200988
v 0.367448 0.047419 0.200988
v 0.364646 0.044056 0.412286
v 0.354558 0.100103 0.727832
v 0.398274 0.096740 0.727832
v 0.399956 0.097861 0.677389
v 0.351195 0.100103 0.781637
v 0.397153 0.096740 0.781637
v 0.346711 0.096740 0.864027
v 0.393230 0.093378 0.864027
v 0.394351 0.093938 0.846091
v 0.363525 0.100664 0.199867
v 0.351755 0.104587 0.200428
v 0.365206 0.105708 0.250870
v 0.369690 0.098422 0.199307
v 0.370251 0.083850 0.121401
v 0.359041 0.088333 0.121401
v 0.399956 0.096740 0.781637
v 0.399956 0.096740 0.727832
v 0.289543 0.096740 0.727832
v 0.397153 0.064794 0.913909
v 0.394351 0.042935 0.913909
v 0.402758 0.053024 0.864027
v 0.619941 0.066027 0.610525
v 0.328776 0.088333 0.121401
v 0.318127 0.098422 0.199307
v 0.322611 0.105708 0.250870
v 0.336062 0.104587 0.200428
v 0.324292 0.100664 0.199867
v 0.390988 0.090575 0.913909
v 0.397714 0.072080 0.913909
v 0.405000 0.072080 0.864027
v 0.336622 0.100103 0.781637
v 0.290664 0.096740 0.781637
v 0.293466 0.093938 0.846091
v 0.333260 0.100103 0.727832
v 0.403879 0.064794 0.864027
v 0.343909 0.042935 0.913909
v 0.369130 0.036209 0.864027
v 0.387065 0.036209 0.864027
v 0.406121 0.078805 0.527183
v 0.399956 0.097861 0.662257
v 0.406121 0.078805 0.629749
v 0.356799 0.070959 0.060310
v 0.372493 0.068156 0.121962
v 0.370251 0.090015 0.200428
v 0.370251 0.090575 0.211637
v 0.371372 0.096740 0.411726
v 0.358481 0.060870 0.060870
v 0.368009 0.049100 0.121962
v 0.356239 0.050782 0.060870
v 0.372493 0.072080 0.200988
v 0.372493 0.082729 0.412286
v 0.406121 0.078805 0.727832
v 0.408363 0.072080 0.727832
v 0.408363 0.072080 0.616858
v 0.369130 0.098422 0.527183
v 0.372493 0.082729 0.527183
v 0.372493 0.082729 0.484027
v 0.372493 0.096740 0.484027
v 0.408363 0.072080 0.527183
v 0.361844 0.100664 0.616858
v 0.352316 0.039572 0.617419
v 0.346150 0.036770 0.549041
v 0.346711 0.036770 0.527183
v 0.397714 0.093378 0.864027
v 0.408363 0.072080 0.781637
v 0.369130 0.025000 0.616858
v 0.364646 0.044056 0.526062
v 0.406121 0.078805 0.781637
v 0.387065 0.025000 0.616858
v 0.374174 0.036209 0.527183
v 0.364646 0.044056 0.484027
v 0.347832 0.037330 0.484027
v 0.350074 0.038451 0.412286
v 0.405000 0.045177 0.727832
v 0.405000 0.045177 0.616858
v 0.387065 0.025000 0.727832
v 0.407802 0.064794 0.781637
v 0.405560 0.049100 0.781637
v 0.387065 0.028923 0.781637
v 0.369130 0.025000 0.727832
v 0.369130 0.028923 0.781637
v 0.355118 0.040133 0.781637
v 0.352316 0.039572 0.727832
v 0.407242 0.057507 0.527183
v 0.387065 0.036209 0.527183
v 0.474779 0.070510 0.549097
v 0.422935 0.072080 0.628068
v 0.526566 0.068885 0.571012
v 0.468333 0.070679 0.739882
v 0.559466 0.067876 0.584968
v 0.513732 0.069277 0.737864
v 0.592646 0.066867 0.598979
v 0.554198 0.068044 0.736127
v 0.590348 0.066923 0.734558
v 0.499159 0.069838 0.666740
v 0.528304 0.068717 0.669543
v 0.535029 0.068717 0.670664
v 0.569218 0.067596 0.673466
v 0.578186 0.067035 0.674027
v 0.596681 0.066475 0.677950
v 0.604528 0.066475 0.678510
v 0.621118 0.065971 0.733212
v 0.602847 0.066475 0.623584
v 0.595560 0.067035 0.620221
v 0.578186 0.067035 0.613496
v 0.568097 0.067596 0.609572
v 0.485708 0.070398 0.577065
v 0.479543 0.070398 0.574823
v 0.209788 0.070398 0.550499
v 0.154749 0.068717 0.573758
v 0.189611 0.069782 0.738537
v 0.117926 0.067540 0.589339
v 0.148136 0.068493 0.736743
v 0.090968 0.066755 0.600773
v 0.116245 0.067484 0.735342
v 0.064569 0.065915 0.611926
v 0.085363 0.066531 0.733997
v 0.216121 0.070398 0.572021
v 0.205472 0.070398 0.575944
v 0.188097 0.069838 0.582670
v 0.179130 0.069277 0.586032
v 0.079926 0.066475 0.625826
v 0.074882 0.066475 0.626947
v 0.216121 0.070398 0.661696
v 0.246947 0.071519 0.657773
v 0.210516 0.070398 0.662257
v 0.191460 0.069838 0.663938
v 0.227218 0.070903 0.740218
v 0.181932 0.069277 0.665059
v 0.151667 0.068717 0.668982
v 0.143820 0.068156 0.669543
v 0.104027 0.067035 0.674027
v 0.343909 0.093378 0.121962
v 0.343909 0.107950 0.200988
v 0.341106 0.096740 0.864027
v 0.294587 0.093378 0.864027
v 0.296829 0.090575 0.913909
v 0.406121 0.064794 0.802935
v 0.343909 0.093378 0.913909
v 0.317566 0.090575 0.211637
v 0.577625 0.067596 0.621903
v 0.578186 0.067035 0.647124
v 0.588274 0.067035 0.638717
v 0.588835 0.067035 0.626386
v 0.596121 0.067035 0.669543
v 0.583791 0.067035 0.656652
v 0.594440 0.067035 0.648805
v 0.583791 0.067035 0.668422
v 0.188658 0.069838 0.592198
v 0.200428 0.069838 0.605649
v 0.189218 0.069838 0.623584
v 0.199867 0.069838 0.587153
v 0.206593 0.070398 0.610693
v 0.196504 0.069838 0.628628
v 0.209956 0.070398 0.651608
v 0.197065 0.069838 0.653850
v 0.343909 0.096740 0.864027
v 0.025000 0.060870 0.731195
v 0.028363 0.064794 0.731195
v 0.025000 0.068156 0.731195
v 0.025000 0.060870 0.627507
v 0.028363 0.064794 0.627507
v 0.025000 0.064794 0.577065
v 0.025000 0.068156 0.627507
v 0.338304 0.100664 0.727832
v 0.343909 0.100664 0.781637
v 0.343909 0.039012 0.200988
v 0.343909 0.036209 0.412286
v 0.343909 0.036209 0.484027
v 0.343909 0.036209 0.527183
v 0.662817 0.068156 0.731195
v 0.659454 0.064794 0.731195
v 0.662817 0.060870 0.731195
v 0.659454 0.064794 0.627507
v 0.662817 0.060870 0.627507
v 0.662817 0.068156 0.627507
v 0.662817 0.064794 0.577065
v 0.350634 0.127006 0.412286
v 0.368009 0.120841 0.411165
v 0.368569 0.114115 0.347832
v 0.343909 0.121962 0.616858
v 0.328215 0.116357 0.616858
v 0.343909 0.129248 0.484027
v 0.318127 0.119720 0.483466
v 0.319808 0.120841 0.411165
v 0.322611 0.115796 0.347832
v 0.319248 0.114115 0.347832
v 0.369690 0.119720 0.483466
v 0.359602 0.116357 0.616858
v 0.349513 0.100664 0.727832
v 0.369130 0.104027 0.251991
v 0.318687 0.104027 0.251991
v 0.343909 0.129248 0.412286
v 0.337183 0.127006 0.412286
v 0.610133 0.066475 0.671224
v 0.300752 0.072080 0.957065
v 0.290664 0.064794 0.913909
v 0.315324 0.057507 0.957065
v 0.329336 0.072080 0.957065
v 0.325973 0.060870 0.957065
v 0.304676 0.060870 0.957065
v 0.304676 0.082729 0.957065
v 0.315324 0.086091 0.957065
v 0.325973 0.082729 0.957065
v 0.358481 0.072080 0.957065
v 0.372493 0.086091 0.957065
v 0.361844 0.082729 0.957065
v 0.383142 0.082729 0.957065
v 0.387065 0.072080 0.957065
v 0.383142 0.060870 0.957065
v 0.372493 0.057507 0.957065
v 0.361844 0.060870 0.957065
v 0.343909 0.147183 0.315324
v 0.361844 0.141578 0.327094
v 0.361844 0.136534 0.265442
v 0.365206 0.115796 0.347832
v 0.343909 0.143260 0.272729
v 0.325973 0.136534 0.265442
v 0.325973 0.141578 0.327094
v 0.268805 0.077124 0.484027
v 0.275531 0.078805 0.419572
v 0.422935 0.072080 0.727832
v 0.419012 0.077124 0.484027
v 0.412286 0.078805 0.419572
v 0.387065 0.084971 0.264882
v 0.397714 0.083289 0.355118
v 0.381460 0.086091 0.236858
v 0.246386 0.208274 0.791726
v 0.248068 0.208274 0.862345
v 0.182493 0.064794 0.906062
v 0.286740 0.064794 0.925118
v 0.182493 0.064794 0.975000
v 0.505324 0.064794 0.906062
v 0.401077 0.064794 0.925118
v 0.505324 0.064794 0.975000
v 0.441431 0.208274 0.791726
v 0.439749 0.208274 0.862345
v 0.300752 0.084971 0.264882
v 0.290103 0.083289 0.355118
v 0.306357 0.086091 0.236858
v 0.168481 0.064794 0.975000
v 0.161195 0.064794 0.964351
v 0.161195 0.064794 0.928481
v 0.243584 0.218923 0.864027
v 0.241903 0.218923 0.802935
v 0.444233 0.218923 0.864027
v 0.445914 0.218923 0.802935
v 0.519336 0.064794 0.975000
v 0.526622 0.064794 0.964351
v 0.526622 0.064794 0.928481
f 1 2 3
f 2 4 5
f 4 6 7
f 8 9 2
f 10 11 9
f 9 12 4
f 11 13 14
f 12 15 6
f 16 17 18
f 19 20 21
f 19 1 20
f 19 8 1
f 19 10 8
f 22 23 24
f 25 26 27
f 28 29 30
f 31 32 33
f 34 35 36
f 37 38 39
f 40 41 42
f 43 44 45
f 46 47 41
f 48 49 50
f 51 52 53
f 54 55 56
f 57 58 59
f 60 61 62
f 63 64 65
f 66 67 68
f 69 70 71
f 15 72 73
f 72 15 74
f 75 76 65
f 77 78 76
f 76 79 80
f 78 81 79
f 80 82 83
f 81 84 85
f 77 86 87
f 78 87 88
f 81 88 89
f 72 90 91
f 90 72 92
f 88 93 89
f 93 94 89
f 93 95 94
f 96 97 95
f 93 88 87
f 97 96 98
f 96 87 86
f 7 6 99
f 100 101 75
f 101 102 77
f 102 103 86
f 103 90 98
f 90 104 105
f 105 106 98
f 70 107 108
f 109 70 108
f 109 100 110
f 71 109 110
f 6 73 99
f 99 73 108
f 108 73 91
f 91 109 108
f 71 110 65
f 71 70 109
f 111 112 113
f 114 115 116
f 117 118 119
f 120 121 122
f 123 124 125
f 126 127 128
f 129 130 131
f 132 133 124
f 85 84 134
f 134 84 89
f 135 136 83
f 137 136 135
f 138 139 140
f 141 142 143
f 144 140 58
f 145 146 147
f 148 149 150
f 151 152 149
f 153 154 155
f 156 157 158
f 159 160 161
f 152 162 163
f 149 163 150
f 50 49 48
f 83 85 134
f 69 63 164
f 164 63 60
f 165 166 167
f 138 144 168
f 169 3 170
f 171 172 173
f 174 175 176
f 177 178 179
f 180 164 178
f 107 70 69
f 165 181 176
f 74 15 12
f 182 94 183
f 166 184 167
f 185 186 187
f 188 160 189
f 160 159 190
f 190 191 192
f 193 189 194
f 195 194 11
f 189 196 146
f 194 146 145
f 196 197 147
f 198 199 200
f 21 188 19
f 188 193 19
f 193 195 19
f 195 10 19
f 201 185 202
f 202 203 201
f 201 203 204
f 204 203 197
f 200 185 187
f 200 205 185
f 201 186 185
f 201 206 186
f 207 106 208
f 207 208 209
f 210 176 211
f 212 207 213
f 162 214 211
f 215 212 216
f 163 198 187
f 197 203 217
f 218 219 147
f 200 199 220
f 221 220 222
f 199 211 223
f 220 224 225
f 211 176 181
f 224 167 184
f 222 226 212
f 225 227 226
f 184 183 227
f 203 202 213
f 209 218 217
f 183 228 227
f 183 94 228
f 94 95 228
f 228 95 97
f 229 226 227
f 106 207 229
f 207 212 226
f 204 197 192
f 200 221 230
f 221 215 231
f 232 141 233
f 234 232 235
f 236 234 237
f 238 236 239
f 168 238 240
f 124 123 235
f 123 241 235
f 241 122 237
f 122 117 237
f 117 242 237
f 242 243 237
f 243 116 239
f 116 66 239
f 66 68 239
f 68 244 239
f 244 245 239
f 245 246 240
f 246 247 248
f 247 139 138
f 58 57 168
f 57 249 168
f 249 250 238
f 250 251 238
f 251 252 236
f 252 111 236
f 111 113 236
f 113 115 236
f 115 114 234
f 114 121 234
f 121 120 234
f 120 128 234
f 128 127 234
f 127 253 232
f 253 254 232
f 254 131 232
f 131 130 232
f 130 142 141
f 255 256 257
f 256 258 259
f 258 260 261
f 260 262 263
f 262 51 46
f 56 18 255
f 18 264 255
f 264 265 255
f 265 266 255
f 266 267 255
f 267 27 256
f 27 26 256
f 26 29 256
f 29 28 256
f 28 35 258
f 35 34 258
f 34 38 260
f 38 37 260
f 37 268 260
f 268 269 262
f 269 45 262
f 45 44 262
f 44 52 51
f 270 271 50
f 272 270 50
f 273 272 274
f 275 273 274
f 22 275 274
f 23 22 274
f 30 23 257
f 276 30 257
f 277 276 259
f 31 277 259
f 36 31 259
f 278 36 261
f 40 278 261
f 41 40 263
f 191 159 192
f 191 190 159
f 279 157 156
f 279 280 157
f 21 279 161
f 161 160 188
f 281 282 283
f 282 137 283
f 181 167 224
f 224 223 284
f 178 60 137
f 137 282 179
f 82 79 85
f 82 80 79
f 155 210 162
f 155 154 210
f 285 174 154
f 174 210 154
f 7 170 286
f 170 5 286
f 252 287 288
f 287 289 288
f 287 290 289
f 252 251 287
f 249 247 291
f 291 292 293
f 291 294 292
f 247 246 291
f 295 267 266
f 295 296 267
f 296 297 267
f 297 273 275
f 295 298 296
f 265 264 299
f 264 270 299
f 270 300 299
f 270 301 300
f 301 302 300
f 270 272 301
f 169 173 172
f 172 280 279
f 20 169 279
f 20 3 169
f 303 281 285
f 304 305 306
f 305 304 307
f 306 305 308
f 309 308 307
f 310 308 309
f 309 307 310
f 304 306 310
f 107 180 311
f 180 177 312
f 285 153 303
f 13 313 14
f 74 314 315
f 92 315 316
f 312 177 281
f 317 318 319
f 320 321 319
f 322 320 318
f 321 320 323
f 323 320 322
f 322 321 323
f 321 322 317
f 104 316 105
f 105 316 106
f 145 219 314
f 324 325 326
f 327 328 312
f 329 330 328
f 331 7 99
f 332 333 331
f 313 314 74
f 334 204 192
f 327 335 334
f 312 335 327
f 303 153 151
f 336 312 151
f 336 148 206
f 169 170 173
f 156 159 161
f 326 337 158
f 337 159 156
f 332 171 338
f 145 313 13
f 171 173 170
f 218 315 314
f 209 316 315
f 208 316 209
f 106 316 208
f 312 336 335
f 336 206 335
f 335 206 201
f 201 204 334
f 329 324 339
f 329 334 325
f 339 340 329
f 340 331 330
f 330 108 107
f 330 99 108
f 328 311 312
f 328 107 311
f 7 333 338
f 7 331 333
f 125 129 131
f 125 143 129
f 143 142 130
f 125 124 133
f 241 126 128
f 241 123 126
f 123 253 127
f 243 119 114
f 119 118 114
f 118 122 121
f 243 242 119
f 118 117 122
f 67 252 244
f 67 111 252
f 67 66 112
f 66 116 112
f 116 115 113
f 250 290 287
f 250 293 289
f 293 292 288
f 292 294 245
f 294 291 246
f 139 59 58
f 139 247 341
f 247 249 57
f 42 43 45
f 42 41 47
f 53 52 44
f 278 39 38
f 278 40 39
f 40 268 37
f 276 33 35
f 270 264 18
f 271 270 17
f 271 16 56
f 326 325 192
f 159 337 326
f 302 301 272
f 300 302 273
f 299 300 297
f 265 299 296
f 266 265 298
f 30 29 26
f 23 30 25
f 24 23 25
f 24 27 267
f 275 22 24
f 32 31 36
f 276 277 33
f 32 36 35
f 33 32 35
f 135 342 283
f 342 135 343
f 182 344 134
f 182 345 346
f 182 346 344
f 344 347 134
f 134 347 342
f 283 342 348
f 283 348 349
f 285 349 350
f 285 350 345
f 285 182 351
f 352 174 285
f 351 353 285
f 353 352 285
f 352 354 174
f 285 283 349
f 345 182 285
f 354 355 174
f 174 355 175
f 355 356 166
f 166 356 357
f 357 358 182
f 358 351 182
f 166 357 182
f 166 165 175
f 91 90 103
f 185 205 230
f 349 348 342
f 353 351 358
f 359 360 361
f 360 362 158
f 339 360 359
f 360 339 324
f 324 362 360
f 363 361 280
f 364 172 171
f 364 280 172
f 280 364 363
f 365 332 340
f 340 339 365
f 359 365 339
f 364 171 332
f 363 364 365
f 157 280 361
f 158 157 361
f 366 99 7
f 367 7 99
f 99 109 366
f 366 109 99
f 109 108 99
f 99 108 109
f 109 54 366
f 366 54 109
f 64 49 48
f 71 48 49
f 71 48 54
f 109 54 48
f 50 49 64
f 64 49 50
f 132 368 198
f 198 368 132
f 187 233 141
f 185 141 233
f 198 368 233
f 187 233 368
f 185 141 369
f 369 141 185
f 185 201 204
f 204 201 185
f 204 185 369
f 369 185 204
f 369 204 192
f 370 192 204
f 191 371 372
f 192 372 371
f 372 370 192
f 192 370 372
f 191 373 371
f 371 373 191
f 374 178 179
f 375 179 178
f 374 69 178
f 178 69 374
f 69 164 178
f 178 164 69
f 82 83 376
f 376 83 82
f 83 377 376
f 376 377 83
f 377 378 376
f 376 378 377
f 83 343 377
f 377 343 83
f 284 181 379
f 379 181 284
f 181 380 379
f 379 380 181
f 380 381 379
f 379 381 380
f 181 165 380
f 380 165 181
f 382 152 155
f 383 155 152
f 382 150 152
f 152 150 382
f 150 149 152
f 152 149 150
f 286 384 385
f 7 385 384
f 385 367 7
f 7 367 385
f 286 386 384
f 384 386 286
f 51 308 305
f 46 305 308
f 378 387 388
f 376 389 388
f 390 391 374
f 375 374 391
f 392 393 382
f 383 382 393
f 381 394 395
f 379 396 395
f 144 320 318
f 138 318 320
f 1 3 20
f 2 5 170
f 2 170 3
f 4 7 286
f 4 286 5
f 8 2 1
f 10 9 8
f 9 4 2
f 11 14 12
f 11 12 9
f 12 6 4
f 16 18 56
f 28 30 276
f 31 33 277
f 34 36 278
f 40 42 269
f 40 269 268
f 46 41 263
f 48 50 271
f 48 271 55
f 48 55 54
f 51 53 47
f 51 47 46
f 54 56 255
f 57 59 341
f 60 62 136
f 60 136 137
f 63 65 62
f 63 62 61
f 63 61 60
f 69 71 64
f 69 64 63
f 15 73 6
f 72 74 92
f 75 65 110
f 77 76 75
f 76 80 62
f 76 62 65
f 78 79 76
f 80 83 136
f 80 136 62
f 81 85 79
f 77 87 78
f 78 88 81
f 81 89 84
f 72 91 73
f 90 92 104
f 96 95 93
f 93 87 96
f 97 98 106
f 96 86 98
f 100 75 110
f 101 77 75
f 102 86 77
f 103 98 86
f 90 105 98
f 71 65 64
f 114 116 243
f 117 119 242
f 120 122 241
f 123 125 254
f 123 254 253
f 132 124 235
f 134 89 94
f 134 94 182
f 135 83 343
f 137 135 283
f 138 140 144
f 141 143 133
f 141 133 132
f 141 132 368
f 141 368 233
f 144 58 168
f 145 147 219
f 148 150 186
f 148 186 206
f 151 149 148
f 153 155 152
f 153 152 151
f 152 163 149
f 50 48 54
f 50 54 255
f 50 255 274
f 83 134 343
f 164 60 178
f 165 167 181
f 138 168 248
f 174 176 210
f 177 179 282
f 177 282 281
f 180 178 177
f 107 69 164
f 107 164 180
f 165 176 175
f 74 12 14
f 182 183 184
f 182 184 166
f 188 189 193
f 160 190 196
f 160 196 189
f 190 192 197
f 190 197 196
f 193 194 195
f 195 11 10
f 189 146 194
f 194 145 13
f 194 13 11
f 196 147 146
f 198 200 187
f 207 209 213
f 210 211 214
f 210 214 162
f 212 213 216
f 162 211 199
f 162 199 198
f 162 198 163
f 215 216 231
f 163 187 186
f 163 186 150
f 197 217 147
f 218 147 217
f 200 220 221
f 221 222 215
f 199 223 224
f 199 224 220
f 220 225 222
f 211 181 284
f 211 284 223
f 224 184 225
f 222 212 215
f 225 226 222
f 184 227 225
f 203 213 217
f 209 217 213
f 228 97 229
f 229 227 228
f 106 229 97
f 207 226 229
f 200 230 205
f 221 231 230
f 232 233 368
f 232 368 132
f 232 132 235
f 234 235 237
f 236 237 239
f 238 239 240
f 168 240 248
f 241 237 235
f 243 239 237
f 245 240 239
f 246 248 240
f 247 138 248
f 249 238 168
f 251 236 238
f 115 234 236
f 127 232 234
f 130 141 232
f 255 257 274
f 256 259 257
f 258 261 259
f 260 263 261
f 262 46 263
f 267 256 255
f 28 258 256
f 34 260 258
f 268 262 260
f 44 51 262
f 272 50 274
f 23 274 257
f 276 257 259
f 36 259 261
f 40 261 263
f 279 156 161
f 21 161 188
f 281 283 285
f 181 224 284
f 178 137 179
f 82 85 83
f 155 162 152
f 285 154 153
f 252 288 245
f 252 245 244
f 249 291 293
f 249 293 250
f 297 275 267
f 169 172 279
f 20 279 21
f 305 307 308
f 306 308 310
f 304 310 307
f 180 312 311
f 74 315 92
f 92 316 104
f 312 281 303
f 320 319 318
f 322 318 317
f 321 317 319
f 145 314 313
f 324 326 362
f 329 328 327
f 331 99 330
f 332 331 340
f 313 74 14
f 334 192 325
f 327 334 329
f 303 151 312
f 336 151 148
f 326 158 362
f 337 156 158
f 332 338 333
f 171 170 338
f 218 314 219
f 209 315 218
f 335 201 334
f 329 325 324
f 340 330 329
f 330 107 328
f 7 338 170
f 125 131 254
f 143 130 129
f 125 133 143
f 241 128 120
f 123 127 126
f 118 121 114
f 67 244 68
f 67 112 111
f 116 113 112
f 250 287 251
f 250 289 290
f 293 288 289
f 292 245 288
f 294 246 245
f 139 58 140
f 139 341 59
f 247 57 341
f 42 45 269
f 42 47 53
f 42 53 43
f 53 44 43
f 278 38 34
f 40 37 39
f 276 35 28
f 270 18 17
f 271 17 16
f 271 56 55
f 159 326 192
f 302 272 273
f 300 273 297
f 299 297 296
f 265 296 298
f 266 298 295
f 30 26 25
f 24 25 27
f 275 24 267
f 342 343 134
f 166 175 355
f 91 103 102
f 91 102 101
f 91 101 100
f 91 100 109
f 185 230 231
f 185 231 216
f 185 216 213
f 185 213 202
f 349 342 347
f 349 347 344
f 349 344 346
f 349 346 345
f 349 345 350
f 353 358 357
f 353 357 356
f 353 356 355
f 353 355 354
f 353 354 352
f 359 361 363
f 360 158 361
f 364 332 365
f 363 365 359
f 366 7 367
f 367 99 366
f 64 48 71
f 71 49 64
f 71 54 109
f 109 48 71
f 187 141 185
f 185 233 187
f 198 233 187
f 187 368 198
f 369 192 370
f 370 204 369
f 191 372 192
f 192 371 191
f 374 179 375
f 375 178 374
f 382 155 383
f 383 152 382
f 286 385 7
f 7 384 286
f 51 305 46
f 46 308 51
f 378 388 389
f 378 389 376
f 376 388 387
f 376 387 378
f 390 374 375
f 375 391 390
f 392 382 383
f 383 393 392
f 381 395 396
f 381 396 379
f 379 395 394
f 379 394 381
f 144 318 138
f 138 320 144
