# Original shape: m1249.obj
# No processing applied - exact copy of source file
# Generated on 2025-10-03 21:14:27

v 0.176951 0.318151 0.164826
v 0.173736 0.297267 0.148987
v 0.196346 0.295960 0.164449
v 0.196364 0.283640 0.149193
v 0.202362 0.287617 0.156774
v 0.159606 0.320008 0.149157
v 0.176951 0.337278 0.164826
v 0.159606 0.335421 0.149157
v 0.173736 0.358162 0.148987
v 0.196346 0.359469 0.164449
v 0.202362 0.367812 0.156774
v 0.196364 0.371790 0.149193
v 0.718100 0.335455 0.176813
v 0.719574 0.330353 0.194906
v 0.842752 0.336178 0.189527
v 0.718100 0.319974 0.176813
v 0.719574 0.325077 0.194906
v 0.947219 0.331815 0.381167
v 0.947219 0.323614 0.381167
v 0.975000 0.327715 0.381167
v 0.903772 0.326938 0.381167
v 0.842752 0.319252 0.189527
v 0.903772 0.328492 0.381167
v 0.891946 0.327715 0.220005
v 0.842886 0.292866 0.197415
v 0.842886 0.271206 0.202847
v 0.842886 0.253426 0.193859
v 0.853941 0.412435 0.044119
v 0.842886 0.411954 0.030929
v 0.842886 0.405945 0.123579
v 0.842723 0.360341 0.153615
v 0.842886 0.425344 0.160885
v 0.842770 0.344027 0.181869
v 0.842886 0.235387 0.140972
v 0.842675 0.311404 0.125356
v 0.842722 0.295088 0.153613
v 0.844823 0.347785 0.109842
v 0.844823 0.380411 0.109843
v 0.844823 0.275018 0.109843
v 0.844823 0.307645 0.109842
v 0.842886 0.249484 0.123579
v 0.842886 0.230086 0.160885
v 0.842886 0.420042 0.140972
v 0.848746 0.396725 0.081863
v 0.853941 0.242994 0.044119
v 0.852668 0.275015 0.053880
v 0.848746 0.258704 0.081863
v 0.842770 0.311401 0.181868
v 0.852668 0.380414 0.053880
v 0.842886 0.243476 0.030929
v 0.915946 0.256594 0.040821
v 0.915946 0.398835 0.040821
v 0.842886 0.402003 0.193859
v 0.842886 0.384223 0.202847
v 0.842886 0.362564 0.197415
v 0.842675 0.344030 0.125358
v 0.852669 0.347788 0.053877
v 0.852669 0.307642 0.053877
v 0.848746 0.331472 0.081861
v 0.848746 0.323957 0.081861
v 0.218978 0.369906 0.161109
v 0.597751 0.367899 0.167649
v 0.597751 0.384297 0.156739
v 0.218997 0.383342 0.144522
v 0.099352 0.312198 0.119475
v 0.099352 0.293901 0.109234
v 0.173753 0.375379 0.133335
v 0.718100 0.298676 0.172480
v 0.062176 0.347373 0.095293
v 0.025000 0.327715 0.072304
v 0.062176 0.336736 0.101438
v 0.099352 0.361528 0.109234
v 0.196375 0.379587 0.139294
v 0.597751 0.395869 0.138966
v 0.718100 0.395836 0.141477
v 0.718100 0.395836 0.122945
v 0.062176 0.304786 0.090793
v 0.062176 0.308056 0.095293
v 0.196337 0.263060 0.051357
v 0.219018 0.260501 0.125932
v 0.196337 0.262250 0.118501
v 0.712477 0.257887 0.055453
v 0.718100 0.259594 0.122945
v 0.597751 0.259135 0.125567
v 0.718100 0.265711 0.154430
v 0.718100 0.271691 0.159631
v 0.597751 0.259560 0.138966
v 0.597751 0.265771 0.151851
v 0.219002 0.268082 0.140336
v 0.173753 0.280050 0.133335
v 0.196375 0.275842 0.139294
v 0.718100 0.383739 0.159631
v 0.718100 0.366814 0.168797
v 0.218969 0.360990 0.169617
v 0.099352 0.367153 0.101734
v 0.173780 0.388384 0.110438
v 0.099352 0.371420 0.084362
v 0.196334 0.317324 0.175794
v 0.218962 0.317322 0.176687
v 0.218962 0.338108 0.176687
v 0.173759 0.380354 0.128366
v 0.597751 0.357931 0.172018
v 0.712477 0.397542 0.055453
v 0.099352 0.288276 0.101734
v 0.173759 0.275075 0.128366
v 0.597751 0.271132 0.156739
v 0.218978 0.285523 0.161109
v 0.218997 0.272087 0.144522
v 0.718100 0.259594 0.141477
v 0.718100 0.356753 0.172480
v 0.196380 0.383980 0.134849
v 0.219002 0.387348 0.140336
v 0.219018 0.394928 0.125932
v 0.099352 0.343231 0.119475
v 0.099352 0.334104 0.121016
v 0.062176 0.350643 0.090793
v 0.099355 0.282847 0.063994
v 0.099352 0.284009 0.084362
v 0.062176 0.302305 0.080370
v 0.062177 0.353799 0.068149
v 0.062176 0.353124 0.080370
v 0.099355 0.372582 0.063994
v 0.196337 0.392370 0.051357
v 0.718100 0.389718 0.154430
v 0.173780 0.267045 0.110438
v 0.597751 0.287531 0.167649
v 0.218969 0.294439 0.169617
v 0.718100 0.288615 0.168797
v 0.597780 0.257887 0.071243
v 0.196380 0.271449 0.134849
v 0.597751 0.396295 0.125567
v 0.196337 0.393179 0.118501
v 0.597751 0.319298 0.176789
v 0.597751 0.389659 0.151851
v 0.597751 0.297498 0.172018
v 0.196334 0.338106 0.175794
v 0.099352 0.321325 0.121016
v 0.062176 0.331429 0.102362
v 0.062176 0.324000 0.102362
v 0.597751 0.336131 0.176789
v 0.597780 0.397542 0.071243
v 0.062177 0.301630 0.068149
v 0.062176 0.318694 0.101438
v 0.761357 0.607930 0.055690
v 0.761357 0.047500 0.055690
v 0.765558 0.025000 0.051682
v 0.716033 0.047500 0.059934
v 0.530539 0.456378 0.043644
v 0.573922 0.488059 0.044483
v 0.716033 0.607930 0.059934
v 0.765558 0.630429 0.051682
v 0.573922 0.167370 0.044483
v 0.530539 0.199051 0.043644
v 0.694180 0.607930 0.051101
v 0.725214 0.621894 0.052782
v 0.694180 0.047500 0.051101
v 0.804093 0.025000 0.050778
v 0.804093 0.630429 0.050778
v 0.725214 0.033535 0.052782
v 0.597780 0.257887 0.026942
v 0.712477 0.257887 0.025000
v 0.712477 0.397542 0.025000
v 0.597780 0.397542 0.026942
v 0.881475 0.334043 0.142589
v 0.899266 0.338055 0.135610
v 0.899296 0.348394 0.153519
v 0.899326 0.317375 0.171426
v 0.918153 0.316305 0.173248
v 0.918120 0.304895 0.153486
v 0.877370 0.364099 0.085874
v 0.888663 0.357772 0.076390
v 0.888663 0.370427 0.076391
v 0.885620 0.370425 0.098097
v 0.902286 0.374437 0.107450
v 0.902286 0.353759 0.107450
v 0.926157 0.302739 0.072756
v 0.907259 0.301669 0.071979
v 0.907259 0.280990 0.071981
v 0.885620 0.285004 0.098097
v 0.887142 0.278676 0.087244
v 0.877370 0.291331 0.085874
v 0.885620 0.297658 0.098096
v 0.926157 0.279920 0.072758
v 0.904772 0.270652 0.089716
v 0.885620 0.357771 0.098096
v 0.904772 0.343420 0.089715
v 0.887142 0.376753 0.087244
v 0.923413 0.341279 0.092328
v 0.926157 0.352691 0.072756
v 0.881493 0.340369 0.153548
v 0.899326 0.338054 0.171427
v 0.881475 0.321388 0.142588
v 0.899266 0.317377 0.135608
v 0.871626 0.327715 0.153564
v 0.881493 0.315060 0.153548
v 0.918153 0.339124 0.173249
v 0.887142 0.351444 0.087243
v 0.904772 0.384778 0.089716
v 0.923413 0.314150 0.092328
v 0.904772 0.312010 0.089715
v 0.888663 0.285003 0.076391
v 0.902286 0.301671 0.107450
v 0.887142 0.303985 0.087243
v 0.902286 0.280992 0.107450
v 0.888663 0.297657 0.076390
v 0.920670 0.352688 0.111899
v 0.907259 0.374439 0.071981
v 0.881512 0.321387 0.164507
v 0.918120 0.350534 0.153488
v 0.899296 0.307036 0.153518
v 0.881512 0.334042 0.164507
v 0.907259 0.353761 0.071979
v 0.926157 0.375510 0.072758
v 0.923413 0.268511 0.092329
v 0.920670 0.279922 0.111899
v 0.923413 0.386918 0.092329
v 0.918086 0.316307 0.133723
v 0.918086 0.339126 0.133725
v 0.920670 0.375508 0.111899
v 0.920670 0.302741 0.111899
v 0.871625 0.317785 0.136361
v 0.854747 0.322124 0.143908
v 0.854747 0.333306 0.143909
v 0.918177 0.355860 0.153488
v 0.892849 0.352980 0.153530
v 0.892885 0.340347 0.175409
v 0.898386 0.338833 0.088820
v 0.877397 0.344235 0.085877
v 0.879785 0.354169 0.068841
v 0.877397 0.383962 0.085878
v 0.860670 0.375281 0.083533
v 0.859326 0.369689 0.093123
v 0.920086 0.350025 0.116475
v 0.895349 0.351466 0.110488
v 0.879785 0.281398 0.068843
v 0.901424 0.278697 0.067152
v 0.898386 0.266065 0.088821
v 0.859326 0.296922 0.093122
v 0.875009 0.301263 0.102913
v 0.877397 0.311194 0.085877
v 0.877397 0.271468 0.085878
v 0.895349 0.278699 0.110489
v 0.898386 0.316596 0.088820
v 0.923470 0.319476 0.092336
v 0.926854 0.305401 0.068196
v 0.875009 0.374029 0.102913
v 0.859326 0.358507 0.093122
v 0.901424 0.351468 0.067150
v 0.879785 0.374031 0.068843
v 0.918217 0.341787 0.177862
v 0.892885 0.315082 0.175409
v 0.871625 0.337647 0.136363
v 0.854763 0.338897 0.153593
v 0.871654 0.307851 0.153564
v 0.854763 0.316533 0.153593
v 0.918136 0.341789 0.129112
v 0.892812 0.340349 0.131649
v 0.871683 0.317783 0.170766
v 0.862014 0.369690 0.073942
v 0.920086 0.378170 0.116475
v 0.895349 0.376730 0.110489
v 0.879785 0.301261 0.068841
v 0.901424 0.303961 0.067150
v 0.859326 0.285740 0.093123
v 0.875009 0.281400 0.102913
v 0.895349 0.303964 0.110488
v 0.920086 0.305404 0.116475
v 0.860670 0.280149 0.083533
v 0.923469 0.392244 0.092338
v 0.898386 0.389364 0.088821
v 0.862014 0.358508 0.073942
v 0.871683 0.337646 0.170767
v 0.918136 0.313644 0.129110
v 0.892812 0.315084 0.131647
v 0.892849 0.302449 0.153529
v 0.871654 0.347578 0.153565
v 0.854779 0.333305 0.163277
v 0.918217 0.313641 0.177861
v 0.901424 0.376733 0.067152
v 0.875009 0.354167 0.102913
v 0.860670 0.352916 0.083532
v 0.926854 0.277256 0.068198
v 0.923469 0.263185 0.092338
v 0.860670 0.302513 0.083532
v 0.923470 0.335953 0.092336
v 0.854779 0.322123 0.163276
v 0.918177 0.299569 0.153486
v 0.926854 0.378173 0.068198
v 0.862014 0.285739 0.073942
v 0.920086 0.277259 0.116475
v 0.862014 0.296921 0.073942
v 0.926854 0.350028 0.068196
v 0.853576 0.348306 0.153596
v 0.861970 0.353804 0.065707
v 0.857019 0.353802 0.101028
v 0.859494 0.270739 0.083369
v 0.857019 0.281036 0.101028
v 0.857019 0.301627 0.101028
v 0.861970 0.301625 0.065707
v 0.859494 0.384690 0.083369
v 0.857019 0.374394 0.101028
v 0.853606 0.317419 0.171427
v 0.853576 0.307123 0.153595
v 0.853546 0.317420 0.135761
v 0.853546 0.338012 0.135762
v 0.859494 0.343507 0.083367
v 0.861970 0.281034 0.065708
v 0.859494 0.311922 0.083367
v 0.861970 0.374396 0.065708
v 0.853606 0.338010 0.171428
f 1 2 3
f 4 5 3
f 6 1 7
f 2 1 6
f 8 7 9
f 10 11 12
f 9 10 12
f 4 3 2
f 9 7 10
f 7 8 6
f 13 14 15
f 16 17 14
f 18 19 20
f 21 17 22
f 14 23 18
f 21 19 18
f 17 21 23
f 15 18 20
f 22 17 16
f 19 22 24
f 14 13 16
f 22 19 21
f 18 15 14
f 18 23 21
f 23 14 17
f 20 24 15
f 24 20 19
f 25 26 27
f 28 29 30
f 31 32 33
f 34 35 36
f 30 37 38
f 22 15 24
f 39 40 41
f 34 36 42
f 33 32 15
f 31 43 32
f 34 41 35
f 30 38 44
f 45 46 47
f 47 39 41
f 42 36 48
f 49 28 44
f 50 51 45
f 51 52 28
f 22 25 27
f 53 54 55
f 41 50 45
f 22 27 42
f 56 43 31
f 30 56 35
f 30 44 28
f 28 57 58
f 41 40 37
f 42 48 22
f 57 28 49
f 56 30 43
f 59 60 58
f 45 47 41
f 45 58 46
f 60 59 37
f 48 33 15
f 15 32 53
f 28 52 29
f 15 53 55
f 28 45 51
f 35 41 30
f 58 45 28
f 37 30 41
f 58 57 59
f 37 40 60
f 15 22 48
f 61 62 63
f 12 11 64
f 2 65 66
f 67 9 12
f 68 25 22
f 69 70 71
f 72 69 71
f 12 64 73
f 74 75 76
f 70 77 78
f 79 80 81
f 82 83 84
f 85 27 86
f 87 88 89
f 4 90 91
f 92 93 54
f 61 94 62
f 95 96 97
f 98 99 100
f 95 101 96
f 62 94 102
f 103 76 30
f 104 105 90
f 106 107 108
f 27 85 42
f 109 42 85
f 80 84 87
f 91 90 105
f 110 54 93
f 111 112 113
f 114 115 9
f 116 70 69
f 117 118 119
f 104 66 78
f 120 70 121
f 122 97 123
f 64 61 63
f 124 53 32
f 125 105 104
f 3 98 1
f 126 127 107
f 128 86 27
f 129 84 80
f 130 105 125
f 75 32 43
f 74 131 113
f 96 132 123
f 133 16 13
f 72 9 67
f 112 111 73
f 75 74 134
f 15 110 13
f 3 127 98
f 68 135 126
f 16 68 22
f 86 126 106
f 5 107 127
f 55 54 110
f 102 110 93
f 94 136 100
f 137 6 8
f 138 70 139
f 109 83 41
f 115 8 9
f 97 96 123
f 11 61 64
f 108 107 5
f 127 99 98
f 72 114 9
f 4 2 90
f 118 104 77
f 121 70 116
f 101 95 72
f 100 140 102
f 30 76 43
f 90 2 66
f 89 88 106
f 83 82 50
f 34 109 41
f 106 126 107
f 79 118 117
f 75 124 32
f 134 112 64
f 67 73 111
f 115 138 139
f 114 71 138
f 132 113 123
f 76 103 141
f 70 119 77
f 133 99 127
f 26 68 128
f 126 86 128
f 126 135 127
f 125 104 118
f 70 142 119
f 63 92 124
f 136 94 10
f 97 121 116
f 71 70 138
f 65 137 139
f 65 143 78
f 1 98 136
f 73 67 12
f 131 141 123
f 70 143 139
f 130 89 108
f 87 109 85
f 68 26 25
f 86 106 88
f 91 108 4
f 15 55 110
f 62 93 92
f 61 11 10
f 122 120 121
f 95 116 69
f 7 136 10
f 140 13 110
f 2 137 65
f 89 130 81
f 109 87 84
f 42 109 34
f 16 133 135
f 79 81 125
f 124 92 53
f 134 74 113
f 101 111 132
f 99 133 140
f 78 143 70
f 76 75 43
f 2 6 137
f 79 125 118
f 108 5 4
f 71 114 72
f 76 131 74
f 84 129 82
f 89 80 87
f 54 53 92
f 100 136 98
f 30 29 103
f 90 66 104
f 105 130 91
f 113 132 111
f 119 142 117
f 78 77 104
f 27 26 128
f 80 79 129
f 125 81 130
f 13 140 133
f 73 64 112
f 134 124 75
f 126 128 68
f 127 3 5
f 93 62 102
f 8 115 137
f 77 119 118
f 72 67 101
f 102 94 100
f 106 108 89
f 50 41 83
f 64 63 134
f 111 101 67
f 139 137 115
f 138 115 114
f 141 131 76
f 127 135 133
f 124 134 63
f 116 95 97
f 139 143 65
f 78 66 65
f 136 7 1
f 123 113 131
f 108 91 130
f 85 88 87
f 88 85 86
f 92 63 62
f 10 94 61
f 121 97 122
f 69 72 95
f 110 102 140
f 81 80 89
f 84 83 109
f 135 68 16
f 113 112 134
f 132 96 101
f 140 100 99
f 144 103 29
f 145 82 129
f 146 145 147
f 148 141 149
f 149 141 150
f 150 144 151
f 152 129 153
f 153 129 79
f 154 150 155
f 156 147 129
f 103 144 150
f 82 145 157
f 157 145 146
f 155 150 151
f 149 150 154
f 151 144 158
f 146 147 159
f 156 129 152
f 159 147 156
f 123 141 148
f 29 158 144
f 129 147 145
f 150 141 103
f 157 50 82
f 152 160 161
f 162 163 149
f 162 154 155
f 155 151 162
f 162 149 154
f 151 29 162
f 142 120 122
f 156 152 161
f 117 122 123
f 161 50 146
f 142 70 120
f 50 157 146
f 162 29 50
f 161 146 159
f 29 52 51
f 163 148 149
f 162 161 160
f 159 156 161
f 153 148 163
f 152 153 160
f 148 153 79
f 151 158 29
f 122 117 142
f 123 79 117
f 50 161 162
f 51 50 29
f 160 163 162
f 163 160 153
f 79 123 148
f 164 165 166
f 167 168 169
f 170 171 172
f 173 174 175
f 176 177 178
f 179 180 181
f 182 179 181
f 183 178 184
f 185 175 186
f 170 172 187
f 186 188 189
f 190 166 191
f 192 193 165
f 194 195 192
f 191 196 168
f 170 197 171
f 187 198 174
f 199 200 177
f 180 201 181
f 202 182 203
f 204 179 182
f 201 205 181
f 175 206 188
f 172 207 198
f 194 208 195
f 166 209 196
f 195 210 193
f 194 192 164
f 211 191 167
f 212 189 213
f 170 187 173
f 200 203 205
f 214 184 204
f 203 182 181
f 215 204 202
f 177 205 201
f 170 173 185
f 207 213 216
f 208 167 210
f 194 164 190
f 210 169 217
f 165 218 209
f 194 211 208
f 171 212 207
f 174 219 206
f 205 203 181
f 184 180 179
f 220 202 200
f 178 201 180
f 170 185 197
f 198 216 219
f 197 186 212
f 194 190 211
f 193 217 218
f 166 190 164
f 169 210 167
f 175 185 173
f 178 183 176
f 184 214 183
f 186 197 185
f 189 212 186
f 191 211 190
f 165 164 192
f 168 167 191
f 174 173 187
f 177 176 199
f 203 200 202
f 182 202 204
f 188 186 175
f 198 187 172
f 196 191 166
f 193 192 195
f 167 208 211
f 213 207 212
f 205 177 200
f 204 215 214
f 202 220 215
f 201 178 177
f 216 198 207
f 210 195 208
f 217 193 210
f 209 166 165
f 207 172 171
f 206 175 174
f 179 204 184
f 200 199 220
f 180 184 178
f 219 174 198
f 212 171 197
f 218 165 193
f 221 222 223
f 224 225 226
f 227 228 229
f 230 231 232
f 233 234 227
f 235 236 237
f 238 239 240
f 241 237 242
f 243 244 245
f 246 232 247
f 248 229 249
f 250 226 251
f 252 223 253
f 254 255 222
f 256 257 225
f 251 258 254
f 249 259 231
f 260 261 234
f 262 263 236
f 264 265 239
f 266 267 244
f 268 241 265
f 240 243 263
f 269 270 261
f 229 271 259
f 226 272 258
f 273 274 257
f 275 254 221
f 276 253 277
f 278 251 275
f 279 249 230
f 280 247 281
f 263 245 282
f 265 242 266
f 239 266 243
f 236 282 283
f 284 240 262
f 270 230 246
f 285 227 248
f 272 277 286
f 274 221 252
f 287 275 274
f 225 276 272
f 228 281 271
f 288 279 270
f 234 280 228
f 289 235 241
f 242 290 267
f 237 283 290
f 291 262 235
f 261 246 280
f 292 248 279
f 258 286 255
f 257 252 276
f 223 252 221
f 226 250 224
f 229 248 227
f 232 246 230
f 227 285 233
f 237 241 235
f 240 284 238
f 242 265 241
f 245 263 243
f 247 280 246
f 249 279 248
f 251 278 250
f 253 276 252
f 222 221 254
f 225 224 256
f 254 275 251
f 231 230 249
f 234 233 260
f 236 235 262
f 239 238 264
f 244 243 266
f 265 264 268
f 263 262 240
f 261 260 269
f 259 249 229
f 258 251 226
f 257 256 273
f 221 274 275
f 277 272 276
f 275 287 278
f 230 270 279
f 281 228 280
f 282 236 263
f 266 239 265
f 243 240 239
f 283 237 236
f 262 291 284
f 246 261 270
f 248 292 285
f 286 258 272
f 252 257 274
f 274 273 287
f 272 226 225
f 271 229 228
f 270 269 288
f 228 227 234
f 241 268 289
f 267 266 242
f 290 242 237
f 235 289 291
f 280 234 261
f 279 288 292
f 255 254 258
f 276 225 257
f 293 31 33
f 294 57 49
f 295 37 59
f 47 296 297
f 298 238 284
f 299 291 289
f 231 300 301
f 286 302 303
f 222 304 305
f 305 56 31
f 306 59 57
f 301 38 37
f 46 307 296
f 40 298 308
f 58 299 307
f 300 44 38
f 302 48 36
f 304 35 56
f 223 305 293
f 281 306 294
f 232 301 295
f 307 289 268
f 296 268 264
f 247 295 306
f 271 294 309
f 253 293 310
f 303 36 35
f 310 33 48
f 309 49 44
f 60 308 299
f 39 297 298
f 297 264 238
f 308 284 291
f 259 309 300
f 277 310 302
f 255 303 304
f 33 310 293
f 49 309 294
f 59 306 295
f 297 39 47
f 284 308 298
f 289 307 299
f 301 232 231
f 303 255 286
f 305 223 222
f 31 293 305
f 57 294 306
f 37 295 301
f 296 47 46
f 308 60 40
f 307 46 58
f 38 301 300
f 36 303 302
f 56 305 304
f 293 253 223
f 294 271 281
f 295 247 232
f 268 296 307
f 264 297 296
f 306 281 247
f 309 259 271
f 310 277 253
f 35 304 303
f 48 302 310
f 44 300 309
f 299 58 60
f 298 40 39
f 238 298 297
f 291 299 308
f 300 231 259
f 302 286 277
f 304 222 255
f 169 287 273
f 213 288 269
f 290 215 220
f 245 176 183
f 168 278 287
f 209 224 250
f 206 233 285
f 282 183 214
f 188 285 292
f 218 256 224
f 219 260 233
f 283 214 215
f 189 292 288
f 217 273 256
f 216 269 260
f 267 220 199
f 244 199 176
f 196 250 278
f 273 217 169
f 269 216 213
f 220 267 290
f 183 282 245
f 287 169 168
f 250 196 209
f 285 188 206
f 214 283 282
f 292 189 188
f 224 209 218
f 233 206 219
f 215 290 283
f 288 213 189
f 256 218 217
f 260 219 216
f 199 244 267
f 176 245 244
f 278 168 196
