# Original shape: m1251.obj
# No processing applied - exact copy of source file
# Generated on 2025-10-13 15:31:24

v 0.336868 0.167467 0.804593
v 0.336870 0.167444 0.799945
v 0.349571 0.167536 0.799945
v 0.349569 0.167559 0.804593
v 0.364193 0.163518 0.814429
v 0.366902 0.157809 0.739613
v 0.343237 0.166937 0.815298
v 0.318798 0.157577 0.739613
v 0.322295 0.163236 0.814429
v 0.331669 0.103475 0.814711
v 0.334308 0.102003 0.632824
v 0.332284 0.101717 0.632824
v 0.331815 0.081984 0.632754
v 0.333670 0.103759 0.814711
v 0.331798 0.083656 0.814852
v 0.333837 0.082293 0.632754
v 0.333822 0.083942 0.814852
v 0.322691 0.105668 0.814429
v 0.314909 0.113398 0.632918
v 0.353058 0.102714 0.814687
v 0.354661 0.100720 0.632918
v 0.364589 0.105950 0.814429
v 0.359034 0.150251 0.374690
v 0.332053 0.150058 0.374690
v 0.345702 0.131636 0.374596
v 0.345502 0.149962 0.345111
v 0.338848 0.142778 0.097492
v 0.338759 0.158190 0.097492
v 0.339086 0.150487 0.119277
v 0.397184 0.158502 0.097304
v 0.397299 0.143068 0.097304
v 0.397528 0.150871 0.119089
v 0.367636 0.138826 0.374690
v 0.367260 0.126340 0.374690
v 0.380154 0.134868 0.635172
v 0.347318 0.150463 0.119089
v 0.423303 0.128147 0.118995
v 0.382276 0.101185 0.569441
v 0.348490 0.126593 0.119089
v 0.422927 0.101938 0.569722
v 0.382216 0.150721 0.569253
v 0.423146 0.150770 0.569722
v 0.268456 0.126125 0.118995
v 0.340107 0.126721 0.118901
v 0.268293 0.149054 0.118995
v 0.269278 0.100972 0.570286
v 0.306480 0.101047 0.569816
v 0.306150 0.150180 0.569722
v 0.377271 0.145655 0.814429
v 0.377410 0.123975 0.814429
v 0.379422 0.134870 0.632918
v 0.372524 0.113798 0.632918
v 0.309592 0.123506 0.814429
v 0.307927 0.134384 0.632918
v 0.309459 0.145117 0.814429
v 0.314651 0.155298 0.632918
v 0.332584 0.168383 0.632918
v 0.354193 0.168539 0.632918
v 0.372219 0.155694 0.632918
v 0.392632 0.165499 0.119089
v 0.387983 0.171026 0.097304
v 0.379988 0.174538 0.119089
v 0.373227 0.175714 0.097304
v 0.364483 0.174416 0.119089
v 0.358505 0.170810 0.097304
v 0.351984 0.165218 0.119089
v 0.349584 0.158176 0.097304
v 0.349675 0.142740 0.097304
v 0.352170 0.135807 0.119089
v 0.358780 0.130231 0.097304
v 0.364812 0.126792 0.119089
v 0.373562 0.125521 0.097304
v 0.380318 0.126890 0.119089
v 0.388261 0.130423 0.097304
v 0.392842 0.136092 0.119089
v 0.334393 0.135778 0.119277
v 0.329835 0.130112 0.097492
v 0.321891 0.126602 0.119277
v 0.315135 0.125232 0.097492
v 0.306387 0.126481 0.119277
v 0.300355 0.129919 0.097492
v 0.293745 0.135496 0.119277
v 0.291257 0.142358 0.097492
v 0.288846 0.150147 0.119277
v 0.291158 0.157864 0.097492
v 0.293533 0.164927 0.119277
v 0.300080 0.170498 0.097492
v 0.306059 0.174105 0.119277
v 0.314778 0.175401 0.097492
v 0.321562 0.174226 0.119277
v 0.329558 0.170714 0.097492
v 0.334228 0.165213 0.119277
v 0.373265 0.155605 0.635172
v 0.355229 0.168543 0.635172
v 0.333526 0.168401 0.635172
v 0.315767 0.155215 0.635172
v 0.323593 0.138529 0.374690
v 0.309058 0.134397 0.635172
v 0.323675 0.124436 0.374690
v 0.316046 0.113599 0.635172
v 0.332305 0.112967 0.374690
v 0.333986 0.100676 0.635172
v 0.345857 0.108542 0.374690
v 0.355713 0.100819 0.635172
v 0.359288 0.113136 0.374690
v 0.373544 0.113988 0.635172
v 0.381563 0.150140 0.683531
v 0.306617 0.149988 0.683437
v 0.313918 0.150324 0.349806
v 0.291392 0.150152 0.349806
v 0.408501 0.151036 0.349806
v 0.385977 0.150840 0.349806
v 0.352635 0.150589 0.165946
v 0.333830 0.150462 0.166134
v 0.289228 0.149854 0.166134
v 0.250464 0.149585 0.165852
v 0.289132 0.149868 0.119089
v 0.399856 0.150690 0.165946
v 0.438172 0.150964 0.166227
v 0.396861 0.150690 0.118995
v 0.417981 0.081428 0.212403
v 0.418292 0.124538 0.212474
v 0.417631 0.126291 0.394362
v 0.417964 0.083101 0.394503
v 0.420003 0.081737 0.212403
v 0.419656 0.126577 0.394362
v 0.419989 0.083386 0.394503
v 0.420316 0.124823 0.212474
v 0.269525 0.125543 0.395465
v 0.270140 0.123785 0.213577
v 0.267501 0.125257 0.395465
v 0.267805 0.080390 0.213507
v 0.269829 0.080675 0.213507
v 0.267788 0.082062 0.395606
v 0.269813 0.082348 0.395606
v 0.268115 0.123500 0.213577
v 0.328258 0.149298 0.650642
v 0.328043 0.179508 0.636933
v 0.328258 0.149298 0.654961
v 0.356346 0.179684 0.636533
v 0.356560 0.149474 0.654961
v 0.328043 0.179508 0.641252
v 0.356560 0.149474 0.650642
v 0.356346 0.179684 0.640853
v 0.327300 0.150198 0.670549
v 0.356537 0.149472 0.670549
v 0.337137 0.179589 0.647684
v 0.340575 0.177391 0.648811
v 0.339041 0.180146 0.650853
v 0.344747 0.177408 0.648811
v 0.342629 0.179613 0.651722
v 0.346253 0.180191 0.650853
v 0.348189 0.179667 0.647684
v 0.344714 0.183253 0.652426
v 0.340541 0.183236 0.652426
v 0.342586 0.186306 0.652051
v 0.337077 0.183215 0.649914
v 0.348154 0.183272 0.649914
v 0.339164 0.186831 0.650618
v 0.336788 0.186276 0.647778
v 0.346023 0.186867 0.650618
v 0.348428 0.186363 0.647778
v 0.344707 0.185068 0.710035
v 0.346016 0.188681 0.708227
v 0.348148 0.185086 0.707522
v 0.337073 0.185007 0.707522
v 0.339157 0.188646 0.708227
v 0.340514 0.185025 0.710035
v 0.342623 0.181428 0.709330
v 0.344741 0.179223 0.706419
v 0.340571 0.179183 0.706419
v 0.342556 0.188119 0.709659
v 0.346223 0.182004 0.708462
v 0.348400 0.188152 0.705387
v 0.336735 0.188087 0.705387
v 0.339037 0.181938 0.708462
v 0.348184 0.181459 0.705292
v 0.337107 0.181402 0.705292
v 0.327294 0.152013 0.728157
v 0.356554 0.151289 0.712570
v 0.356531 0.151287 0.728157
v 0.328036 0.181323 0.698860
v 0.356339 0.181499 0.698461
v 0.328253 0.151090 0.712570
v 0.328253 0.151090 0.708250
v 0.356339 0.181499 0.694142
v 0.356554 0.151289 0.708250
v 0.328036 0.181323 0.694541
v 0.339232 0.177382 0.644773
v 0.336827 0.180126 0.643999
v 0.342653 0.176361 0.645877
v 0.342650 0.177399 0.642261
v 0.339211 0.179596 0.641135
v 0.342627 0.180132 0.639726
v 0.346067 0.177415 0.644773
v 0.346044 0.179653 0.641135
v 0.348467 0.180213 0.643999
v 0.335760 0.183185 0.645877
v 0.337101 0.183217 0.641839
v 0.340541 0.183236 0.639327
v 0.339003 0.186297 0.640900
v 0.344714 0.183253 0.639327
v 0.348154 0.183272 0.641839
v 0.346190 0.186340 0.640900
v 0.349474 0.183278 0.645877
v 0.337067 0.186822 0.644069
v 0.342582 0.186848 0.640031
v 0.348141 0.186901 0.644069
v 0.342557 0.189109 0.649491
v 0.339162 0.189094 0.646980
v 0.342553 0.190146 0.645877
v 0.340435 0.189097 0.642965
v 0.344678 0.189121 0.642965
v 0.345974 0.189125 0.646980
v 0.345968 0.190941 0.704588
v 0.342550 0.190924 0.707100
v 0.344648 0.190934 0.700574
v 0.348114 0.188691 0.701677
v 0.340431 0.190889 0.700574
v 0.342552 0.188661 0.697640
v 0.339158 0.190886 0.704588
v 0.337037 0.188634 0.701677
v 0.349468 0.185093 0.703485
v 0.348148 0.185086 0.699447
v 0.344707 0.185068 0.696935
v 0.340514 0.185025 0.696935
v 0.337094 0.185032 0.699447
v 0.335753 0.185000 0.703485
v 0.346040 0.181445 0.698743
v 0.339207 0.181388 0.698743
v 0.346061 0.179230 0.702382
v 0.342620 0.179211 0.699870
v 0.339228 0.179174 0.702382
v 0.342548 0.191938 0.703485
v 0.346184 0.188155 0.698508
v 0.338998 0.188089 0.698508
v 0.348463 0.182004 0.701607
v 0.342618 0.181970 0.697334
v 0.336797 0.181939 0.701607
v 0.342626 0.178151 0.703485
v 0.268960 0.149729 0.570286
v 0.268960 0.149729 0.682310
v 0.065387 0.148312 0.292055
v 0.091097 0.148479 0.316469
v 0.100121 0.148554 0.203788
v 0.137873 0.148798 0.213366
v 0.550573 0.151756 0.212896
v 0.587947 0.152011 0.204163
v 0.597512 0.152090 0.316563
v 0.626262 0.152285 0.288299
v 0.408974 0.150774 0.034578
v 0.400139 0.150693 0.090919
v 0.550666 0.151765 0.062936
v 0.278529 0.149785 0.034860
v 0.287835 0.149863 0.091012
v 0.138156 0.148801 0.062936
v 0.522225 0.151552 0.025000
v 0.166312 0.149034 0.025469
v 0.422018 0.150475 0.683343
v 0.423324 0.127183 0.118995
v 0.423248 0.150685 0.118995
v 0.336750 0.147012 0.690174
v 0.342216 0.145312 0.684188
v 0.342219 0.146280 0.690151
v 0.335191 0.146299 0.684235
v 0.333355 0.149003 0.690104
v 0.330835 0.148976 0.684188
v 0.333327 0.151546 0.690080
v 0.330798 0.152109 0.684165
v 0.335153 0.154926 0.684235
v 0.336703 0.153752 0.690104
v 0.342205 0.148424 0.683906
v 0.342225 0.146964 0.689916
v 0.347544 0.153809 0.690104
v 0.349080 0.155016 0.684235
v 0.350952 0.151680 0.690080
v 0.353469 0.152248 0.684165
v 0.353527 0.149140 0.684188
v 0.350959 0.149110 0.690104
v 0.349137 0.146438 0.684235
v 0.347589 0.147094 0.690174
v 0.342234 0.144135 0.676887
v 0.333721 0.145382 0.676747
v 0.328428 0.148489 0.676864
v 0.328389 0.152400 0.676817
v 0.333656 0.155798 0.676934
v 0.342199 0.149484 0.676676
v 0.350552 0.155910 0.676934
v 0.355844 0.152566 0.676817
v 0.355858 0.148677 0.676864
v 0.350592 0.145514 0.676747
v 0.342220 0.144275 0.661041
v 0.333717 0.145428 0.661088
v 0.328423 0.148795 0.661135
v 0.328405 0.152731 0.661018
v 0.333657 0.156034 0.660924
v 0.342205 0.149674 0.660713
v 0.350554 0.156146 0.660924
v 0.355836 0.152896 0.661018
v 0.355876 0.148985 0.661135
v 0.350634 0.145566 0.661088
v 0.350481 0.167645 0.658060
v 0.342037 0.168168 0.659257
v 0.348961 0.173987 0.654093
v 0.342179 0.153444 0.665925
v 0.355752 0.166258 0.655055
v 0.353335 0.172867 0.651652
v 0.350572 0.152964 0.664751
v 0.355748 0.164559 0.651605
v 0.355841 0.151599 0.661652
v 0.350498 0.163214 0.648529
v 0.353349 0.171477 0.648764
v 0.355862 0.149880 0.658083
v 0.342088 0.162632 0.647332
v 0.348983 0.170263 0.646205
v 0.350622 0.148441 0.655102
v 0.333602 0.163103 0.648529
v 0.335033 0.170171 0.646205
v 0.333702 0.148327 0.655102
v 0.328318 0.164372 0.651605
v 0.330655 0.171337 0.648764
v 0.328409 0.149690 0.658083
v 0.328297 0.166091 0.655055
v 0.330641 0.172727 0.651652
v 0.328411 0.151411 0.661652
v 0.333584 0.167534 0.658060
v 0.333675 0.152852 0.664751
v 0.335011 0.173894 0.654093
v 0.341944 0.174384 0.655102
v 0.347375 0.179048 0.650970
v 0.350755 0.178212 0.649163
v 0.350763 0.177128 0.646815
v 0.342024 0.169794 0.645266
v 0.347392 0.176125 0.644867
v 0.336550 0.176068 0.644867
v 0.333161 0.176997 0.646815
v 0.333153 0.178081 0.649163
v 0.336536 0.178966 0.650970
v 0.341922 0.179358 0.651675
v 0.341950 0.175823 0.644069
v 0.342214 0.147835 0.653976
v 0.336506 0.180779 0.708579
v 0.341938 0.176199 0.712711
v 0.341916 0.181173 0.709283
v 0.335004 0.175709 0.711701
v 0.333147 0.179896 0.706771
v 0.330637 0.174518 0.709260
v 0.333155 0.178812 0.704424
v 0.330650 0.173128 0.706372
v 0.335029 0.171962 0.703814
v 0.336520 0.177880 0.702475
v 0.341973 0.171581 0.702874
v 0.341945 0.177615 0.701677
v 0.347385 0.177941 0.702475
v 0.348979 0.172055 0.703814
v 0.350782 0.178922 0.704424
v 0.353342 0.173292 0.706372
v 0.353305 0.174680 0.709260
v 0.350751 0.180004 0.706771
v 0.348934 0.175776 0.711701
v 0.347345 0.180860 0.708579
v 0.342030 0.169983 0.716866
v 0.333556 0.169324 0.715668
v 0.328293 0.167883 0.712664
v 0.328314 0.166163 0.709213
v 0.333596 0.164918 0.706138
v 0.342080 0.164470 0.704940
v 0.350516 0.165032 0.706138
v 0.355743 0.166351 0.709213
v 0.355722 0.168070 0.712664
v 0.350476 0.169437 0.715668
v 0.342149 0.155257 0.723533
v 0.333669 0.154667 0.722359
v 0.328384 0.153201 0.719260
v 0.328403 0.151505 0.715692
v 0.333697 0.150119 0.712711
v 0.342207 0.149650 0.711584
v 0.350594 0.150231 0.712711
v 0.355855 0.151695 0.715692
v 0.355837 0.153391 0.719260
v 0.350565 0.154779 0.722359
v 0.350613 0.147285 0.734355
v 0.342227 0.145950 0.734496
v 0.349137 0.148183 0.741844
v 0.342213 0.146090 0.718650
v 0.355851 0.150492 0.734472
v 0.353476 0.150928 0.741797
v 0.350609 0.147332 0.718697
v 0.355837 0.154381 0.734425
v 0.355846 0.150798 0.718744
v 0.350546 0.157725 0.734543
v 0.353462 0.154062 0.741773
v 0.355830 0.154711 0.718626
v 0.342193 0.151300 0.734284
v 0.349074 0.156831 0.741844
v 0.350547 0.157961 0.718533
v 0.333649 0.157613 0.734543
v 0.335123 0.156738 0.741844
v 0.333651 0.157849 0.718533
v 0.328384 0.154191 0.734425
v 0.330794 0.153900 0.741773
v 0.328377 0.154521 0.718626
v 0.328422 0.150304 0.734472
v 0.330805 0.150789 0.741797
v 0.328416 0.150611 0.718744
v 0.333719 0.147150 0.734355
v 0.333715 0.147197 0.718697
v 0.335186 0.148091 0.741844
v 0.342242 0.147036 0.741797
v 0.347585 0.148885 0.747783
v 0.350953 0.150925 0.747712
v 0.350922 0.153493 0.747689
v 0.342199 0.150239 0.741515
v 0.347537 0.155625 0.747712
v 0.336698 0.155543 0.747712
v 0.333321 0.153361 0.747689
v 0.333349 0.150817 0.747712
v 0.336746 0.148804 0.747783
v 0.342217 0.148048 0.747759
v 0.342196 0.148777 0.747525
v 0.342175 0.151487 0.718321
v 0.362134 0.182306 0.735951
v 0.365592 0.169923 0.659234
v 0.366911 0.157715 0.735951
v 0.356719 0.190707 0.659234
v 0.349906 0.197420 0.735951
v 0.342486 0.198582 0.659234
v 0.335131 0.197320 0.735951
v 0.328535 0.190519 0.659234
v 0.323231 0.182024 0.735951
v 0.319853 0.169608 0.659234
v 0.366807 0.157823 0.659046
v 0.318806 0.157483 0.659046
v 0.318984 0.157595 0.735669
v 0.352691 0.162219 0.561483
v 0.342492 0.198771 0.655290
v 0.335865 0.162114 0.561483
v 0.328535 0.190519 0.655290
v 0.319862 0.169514 0.655290
v 0.318984 0.157595 0.655290
v 0.356719 0.190707 0.655290
v 0.365607 0.170019 0.655008
v 0.366807 0.157823 0.655290
v 0.323243 0.181648 0.739613
v 0.335140 0.197227 0.739613
v 0.349647 0.197419 0.739613
v 0.362134 0.182306 0.739613
v 0.338698 0.162076 0.561741
v 0.328807 0.160952 0.637754
v 0.337356 0.176521 0.637754
v 0.347787 0.176682 0.637754
v 0.351401 0.162144 0.561741
v 0.356836 0.161526 0.637754
v 0.360322 0.137121 0.637754
v 0.325626 0.136977 0.637754
v 0.328775 0.165523 0.695269
v 0.325597 0.141525 0.676488
v 0.328775 0.165523 0.676488
v 0.325597 0.141525 0.695269
v 0.337327 0.181069 0.695269
v 0.337327 0.181069 0.676488
v 0.347758 0.181230 0.695269
v 0.347758 0.181230 0.676488
v 0.356809 0.166051 0.695269
v 0.356809 0.166051 0.676488
v 0.360293 0.141668 0.695269
v 0.360293 0.141668 0.676488
v 0.347759 0.179226 0.740411
v 0.360317 0.139666 0.740411
v 0.356806 0.164094 0.740411
v 0.337352 0.179067 0.740411
v 0.328800 0.163521 0.740411
v 0.325621 0.139523 0.740411
v 0.341892 0.045468 0.706701
v 0.341892 0.045468 0.704541
v 0.341907 0.044314 0.706278
v 0.341886 0.046529 0.706278
v 0.354187 0.046111 0.706584
v 0.354177 0.045473 0.704541
v 0.354187 0.044862 0.706584
v 0.354156 0.047193 0.705786
v 0.341867 0.047234 0.705175
v 0.354184 0.047644 0.704541
v 0.341867 0.047234 0.703907
v 0.354156 0.047193 0.703297
v 0.341886 0.046529 0.702804
v 0.354187 0.046111 0.702499
v 0.341892 0.045468 0.702382
v 0.354187 0.044862 0.702499
v 0.341907 0.044314 0.702804
v 0.354194 0.043801 0.703297
v 0.341844 0.043483 0.703907
v 0.354214 0.043332 0.704541
v 0.341844 0.043483 0.705175
v 0.354194 0.043801 0.705786
v 0.342451 0.067002 0.708063
v 0.341099 0.121957 0.707264
v 0.340685 0.066976 0.706795
v 0.343101 0.121981 0.707945
v 0.344548 0.067012 0.708063
v 0.343488 0.067006 0.704776
v 0.343101 0.121981 0.704471
v 0.339826 0.121955 0.705527
v 0.340024 0.066985 0.704776
v 0.339826 0.121955 0.703415
v 0.340685 0.066976 0.702757
v 0.341099 0.121957 0.701677
v 0.342451 0.067002 0.701490
v 0.343101 0.121981 0.700996
v 0.344548 0.067012 0.701490
v 0.345129 0.121984 0.701677
v 0.346293 0.067012 0.702757
v 0.346400 0.122010 0.703415
v 0.346976 0.067029 0.704776
v 0.346400 0.122010 0.705527
v 0.346293 0.067012 0.706795
v 0.345129 0.121984 0.707264
v 0.351681 0.045191 0.706912
v 0.350897 0.070442 0.706607
v 0.350573 0.045180 0.706114
v 0.352101 0.070437 0.707030
v 0.352952 0.045216 0.706912
v 0.352316 0.045203 0.704870
v 0.352101 0.070437 0.704870
v 0.350098 0.070413 0.705504
v 0.350148 0.045187 0.704870
v 0.350098 0.070413 0.704236
v 0.350573 0.045180 0.703626
v 0.350897 0.070442 0.703133
v 0.351681 0.045191 0.702828
v 0.352101 0.070437 0.702710
v 0.352952 0.045216 0.702828
v 0.353326 0.070435 0.703133
v 0.354010 0.045246 0.703626
v 0.354128 0.070441 0.704236
v 0.354414 0.045213 0.704870
v 0.354128 0.070441 0.705504
v 0.354010 0.045246 0.706114
v 0.353326 0.070435 0.706607
v 0.354329 0.068809 0.706912
v 0.342025 0.068258 0.706607
v 0.354335 0.067748 0.706114
v 0.342034 0.069415 0.707030
v 0.354329 0.070059 0.706912
v 0.354295 0.069418 0.704870
v 0.342034 0.069415 0.704870
v 0.341962 0.067427 0.705504
v 0.354332 0.067276 0.704870
v 0.341962 0.067427 0.704236
v 0.354335 0.067748 0.703626
v 0.342025 0.068258 0.703133
v 0.354329 0.068809 0.702828
v 0.342034 0.069415 0.702710
v 0.354329 0.070059 0.702828
v 0.342028 0.070476 0.703133
v 0.354297 0.071140 0.703626
v 0.342008 0.071181 0.704236
v 0.354279 0.071586 0.704870
v 0.342008 0.071181 0.705504
v 0.354297 0.071140 0.706114
v 0.342028 0.070476 0.706607
v 0.343483 0.045099 0.713720
v 0.343483 0.045099 0.704635
v 0.343537 0.039799 0.711983
v 0.343473 0.050451 0.711983
v 0.343446 0.053726 0.707429
v 0.343446 0.053726 0.701865
v 0.343473 0.050451 0.697287
v 0.343483 0.045099 0.695550
v 0.343537 0.039799 0.697287
v 0.343568 0.036477 0.701865
v 0.343568 0.036477 0.707429
v 0.286372 0.038121 0.276092
v 0.286296 0.043420 0.274355
v 0.286343 0.043424 0.283393
v 0.286404 0.034799 0.280646
v 0.286404 0.034799 0.286116
v 0.286326 0.038117 0.290670
v 0.286343 0.043424 0.292431
v 0.286260 0.048792 0.290670
v 0.286280 0.052071 0.286116
v 0.286280 0.052071 0.280646
v 0.286285 0.048771 0.276092
v 0.287439 0.067744 0.281092
v 0.287439 0.067744 0.283111
v 0.287475 0.066615 0.281468
v 0.287478 0.068832 0.281468
v 0.275132 0.068231 0.281139
v 0.275121 0.067593 0.283134
v 0.275132 0.066981 0.281139
v 0.275147 0.069317 0.281937
v 0.287458 0.069538 0.282501
v 0.275126 0.069787 0.283134
v 0.287435 0.069536 0.283745
v 0.275168 0.069343 0.284402
v 0.287431 0.068828 0.284848
v 0.275132 0.068231 0.285153
v 0.287439 0.067744 0.285271
v 0.275132 0.066981 0.285153
v 0.287428 0.066611 0.284848
v 0.275135 0.065945 0.284355
v 0.287483 0.065791 0.283745
v 0.275156 0.065475 0.283134
v 0.287529 0.065796 0.282524
v 0.275135 0.065945 0.281937
v 0.277355 0.068654 0.281045
v 0.277379 0.068656 0.283158
v 0.278605 0.068654 0.281444
v 0.276108 0.068630 0.281444
v 0.276889 0.043402 0.281139
v 0.277548 0.043418 0.283158
v 0.278160 0.043428 0.281116
v 0.275805 0.043394 0.281937
v 0.275307 0.068625 0.282477
v 0.275403 0.043404 0.283158
v 0.275307 0.068625 0.283745
v 0.275805 0.043394 0.284402
v 0.276108 0.068630 0.284872
v 0.276889 0.043402 0.285153
v 0.277379 0.068656 0.285318
v 0.278160 0.043428 0.285153
v 0.278605 0.068654 0.284872
v 0.279270 0.043415 0.284379
v 0.279406 0.068659 0.283745
v 0.279693 0.043432 0.283158
v 0.279406 0.068659 0.282477
v 0.279270 0.043415 0.281937
v 0.285600 0.123620 0.279496
v 0.285624 0.123622 0.282900
v 0.287604 0.123621 0.280177
v 0.283645 0.123600 0.280130
v 0.284980 0.065319 0.280012
v 0.286041 0.065325 0.283228
v 0.287055 0.065326 0.280012
v 0.283235 0.065319 0.281256
v 0.282348 0.123595 0.281890
v 0.282577 0.065304 0.283228
v 0.282348 0.123595 0.283956
v 0.283235 0.065319 0.285271
v 0.283621 0.123598 0.285717
v 0.284934 0.065314 0.286491
v 0.285624 0.123622 0.286327
v 0.287078 0.065328 0.286491
v 0.287651 0.123625 0.285670
v 0.288772 0.065370 0.285224
v 0.288875 0.123646 0.283933
v 0.289433 0.065363 0.283205
v 0.288826 0.123665 0.281890
v 0.288772 0.065370 0.281280
v 0.275626 0.043047 0.281444
v 0.287971 0.042658 0.281773
v 0.275609 0.041985 0.282195
v 0.287954 0.043835 0.281397
v 0.275626 0.044297 0.281444
v 0.275592 0.043657 0.283463
v 0.287954 0.043835 0.283440
v 0.287978 0.041834 0.282806
v 0.275629 0.041515 0.283463
v 0.288002 0.041836 0.284050
v 0.275609 0.041985 0.284707
v 0.287899 0.042675 0.285177
v 0.275603 0.043045 0.285482
v 0.287954 0.043835 0.285599
v 0.275602 0.044295 0.285482
v 0.287925 0.044894 0.285177
v 0.275666 0.045362 0.284707
v 0.287929 0.045602 0.284073
v 0.275597 0.045851 0.283463
v 0.287929 0.045602 0.282806
v 0.275666 0.045362 0.282195
v 0.287948 0.044896 0.281773
v 0.400933 0.044753 0.284026
v 0.400939 0.043693 0.284449
v 0.400939 0.043693 0.282289
v 0.413281 0.044340 0.284332
v 0.413250 0.045422 0.283533
v 0.413294 0.043705 0.282289
v 0.400914 0.045459 0.282923
v 0.413278 0.045873 0.282289
v 0.400914 0.045459 0.281655
v 0.413250 0.045422 0.281045
v 0.400933 0.044753 0.280552
v 0.413281 0.044340 0.280247
v 0.400939 0.043693 0.280130
v 0.413305 0.043093 0.280247
v 0.400978 0.042541 0.280552
v 0.413311 0.042032 0.281045
v 0.400915 0.041709 0.281655
v 0.413308 0.041560 0.282289
v 0.400915 0.041709 0.282923
v 0.413311 0.042032 0.283533
v 0.400978 0.042541 0.284026
v 0.413305 0.043093 0.284332
v 0.400115 0.123503 0.285646
v 0.402143 0.123506 0.286327
v 0.401502 0.065180 0.285811
v 0.399755 0.065203 0.284543
v 0.398868 0.123480 0.283909
v 0.399073 0.065186 0.282524
v 0.402535 0.065230 0.282524
v 0.398868 0.123480 0.281796
v 0.402143 0.123506 0.282853
v 0.399755 0.065203 0.280505
v 0.400115 0.123503 0.280059
v 0.401502 0.065180 0.279238
v 0.402143 0.123506 0.279378
v 0.403595 0.065236 0.279238
v 0.404168 0.123533 0.280059
v 0.405340 0.065236 0.280505
v 0.405441 0.123535 0.281796
v 0.406023 0.065254 0.282524
v 0.405441 0.123535 0.283909
v 0.405340 0.065236 0.284543
v 0.404168 0.123533 0.285646
v 0.403595 0.065236 0.285811
v 0.409946 0.068642 0.284355
v 0.411194 0.068666 0.284778
v 0.410728 0.043415 0.284660
v 0.409597 0.043402 0.283862
v 0.409145 0.068638 0.283252
v 0.409195 0.043412 0.282618
v 0.411363 0.043428 0.282618
v 0.409145 0.068638 0.281984
v 0.411194 0.068666 0.282618
v 0.409597 0.043402 0.281374
v 0.409946 0.068642 0.280881
v 0.410728 0.043415 0.280576
v 0.411194 0.068666 0.280458
v 0.411999 0.043441 0.280576
v 0.412443 0.068666 0.280881
v 0.413108 0.043428 0.281374
v 0.413222 0.068669 0.281984
v 0.413531 0.043445 0.282618
v 0.413222 0.068669 0.283252
v 0.413108 0.043428 0.283862
v 0.412443 0.068666 0.284355
v 0.411999 0.043441 0.284660
v 0.401119 0.066488 0.284355
v 0.401081 0.067640 0.284778
v 0.413423 0.067038 0.284660
v 0.413429 0.065977 0.283862
v 0.401056 0.065657 0.283252
v 0.413449 0.065508 0.282618
v 0.413436 0.067652 0.282618
v 0.401056 0.065657 0.281984
v 0.401081 0.067640 0.282618
v 0.413429 0.065977 0.281374
v 0.401119 0.066488 0.280881
v 0.413423 0.067038 0.280576
v 0.401081 0.067640 0.280458
v 0.413423 0.068287 0.280576
v 0.401075 0.068700 0.280881
v 0.413391 0.069369 0.281374
v 0.401079 0.069408 0.281984
v 0.413419 0.069820 0.282618
v 0.401079 0.069408 0.283252
v 0.413391 0.069369 0.283862
v 0.401075 0.068700 0.284355
v 0.413423 0.068287 0.284660
v 0.402520 0.048676 0.289731
v 0.402554 0.043327 0.291468
v 0.402554 0.043327 0.282383
v 0.402493 0.051951 0.285177
v 0.402493 0.051951 0.279613
v 0.402520 0.048676 0.275035
v 0.402554 0.043327 0.273298
v 0.402609 0.038002 0.275035
v 0.402617 0.034679 0.279613
v 0.402617 0.034679 0.285177
v 0.402609 0.038002 0.289731
v 0.347773 0.055102 0.704447
v 0.347782 0.053759 0.699518
v 0.345046 0.052015 0.700503
v 0.348839 0.056547 0.697898
v 0.347818 0.050131 0.695855
v 0.345086 0.049094 0.697569
v 0.348869 0.051739 0.693085
v 0.347817 0.045156 0.694541
v 0.345107 0.045135 0.696536
v 0.348901 0.045164 0.691324
v 0.347884 0.040210 0.695855
v 0.345128 0.041175 0.697569
v 0.348954 0.038614 0.693085
v 0.347922 0.036559 0.699518
v 0.345121 0.038251 0.700503
v 0.348986 0.033783 0.697898
v 0.347929 0.035239 0.704447
v 0.345172 0.037218 0.704447
v 0.349010 0.032040 0.704447
v 0.347922 0.036559 0.709424
v 0.345121 0.038251 0.708415
v 0.348986 0.033783 0.711020
v 0.347884 0.040210 0.713063
v 0.345128 0.041175 0.711326
v 0.348954 0.038614 0.715833
v 0.347817 0.045156 0.714401
v 0.345107 0.045135 0.712406
v 0.348901 0.045164 0.717593
v 0.347818 0.050131 0.713063
v 0.345086 0.049094 0.711326
v 0.348869 0.051739 0.715833
v 0.347782 0.053759 0.709424
v 0.345046 0.052015 0.708415
v 0.348839 0.056547 0.711020
v 0.345040 0.053075 0.704447
v 0.348813 0.058313 0.704447
v 0.341771 0.051988 0.700503
v 0.341788 0.049066 0.697569
v 0.341809 0.045107 0.696536
v 0.341850 0.041172 0.697569
v 0.341870 0.038227 0.700503
v 0.341873 0.037190 0.704447
v 0.341870 0.038227 0.708415
v 0.341850 0.041172 0.711326
v 0.341809 0.045107 0.712406
v 0.341788 0.049066 0.711326
v 0.341771 0.051988 0.708415
v 0.341763 0.053072 0.704447
v 0.338992 0.053706 0.699518
v 0.339030 0.050055 0.695855
v 0.339075 0.045084 0.694541
v 0.339116 0.040160 0.695855
v 0.339132 0.036506 0.699518
v 0.339139 0.035186 0.704447
v 0.339132 0.036506 0.709424
v 0.339116 0.040160 0.713063
v 0.339075 0.045084 0.714401
v 0.339030 0.050055 0.713063
v 0.338992 0.053706 0.709424
v 0.339006 0.055051 0.704447
v 0.337929 0.056459 0.697898
v 0.337960 0.051652 0.693085
v 0.338015 0.045078 0.691324
v 0.338068 0.038528 0.693085
v 0.338098 0.033720 0.697898
v 0.338100 0.031952 0.704447
v 0.338098 0.033720 0.711020
v 0.338068 0.038528 0.715833
v 0.338015 0.045078 0.717593
v 0.337960 0.051652 0.715833
v 0.337929 0.056459 0.711020
v 0.337927 0.058227 0.704447
v 0.338963 0.059245 0.696301
v 0.339008 0.053283 0.690315
v 0.339075 0.045084 0.688132
v 0.339139 0.036931 0.690315
v 0.339162 0.030944 0.696301
v 0.339179 0.028776 0.704447
v 0.339162 0.030944 0.712640
v 0.339139 0.036931 0.718603
v 0.339075 0.045084 0.720810
v 0.339008 0.053283 0.718603
v 0.338963 0.059245 0.712640
v 0.338966 0.061461 0.704447
v 0.341699 0.060989 0.695292
v 0.341767 0.054275 0.688578
v 0.341809 0.045107 0.686113
v 0.341873 0.035940 0.688578
v 0.341940 0.029250 0.695292
v 0.341936 0.026797 0.704447
v 0.341940 0.029250 0.713626
v 0.341873 0.035940 0.720340
v 0.341809 0.045107 0.722829
v 0.341767 0.054275 0.720340
v 0.341699 0.060989 0.713626
v 0.341698 0.063488 0.704447
v 0.344997 0.061018 0.695292
v 0.345042 0.054302 0.688578
v 0.345107 0.045135 0.686113
v 0.345172 0.035969 0.688578
v 0.345217 0.029253 0.695292
v 0.345237 0.026802 0.704447
v 0.345217 0.029253 0.713626
v 0.345172 0.035969 0.720340
v 0.345107 0.045135 0.722829
v 0.345042 0.054302 0.720340
v 0.344997 0.061018 0.713626
v 0.344971 0.063538 0.704447
v 0.347753 0.059298 0.696301
v 0.347798 0.053336 0.690315
v 0.347817 0.045156 0.688132
v 0.347903 0.037005 0.690315
v 0.347950 0.031020 0.696301
v 0.347969 0.028829 0.704447
v 0.347950 0.031020 0.712640
v 0.347903 0.037005 0.718603
v 0.347817 0.045156 0.720810
v 0.347798 0.053336 0.718603
v 0.347753 0.059298 0.712640
v 0.347733 0.061512 0.704447
v 0.281892 0.057576 0.275434
v 0.280834 0.056556 0.283557
v 0.281872 0.059790 0.283557
v 0.280882 0.054792 0.277007
v 0.281937 0.051614 0.269495
v 0.280819 0.049975 0.272242
v 0.281958 0.043410 0.267265
v 0.280898 0.043404 0.270505
v 0.282042 0.035283 0.269495
v 0.280928 0.036852 0.272242
v 0.282087 0.029322 0.275434
v 0.281027 0.032051 0.277007
v 0.282108 0.027107 0.283557
v 0.281030 0.030283 0.283557
v 0.282066 0.029296 0.291679
v 0.280957 0.032045 0.290060
v 0.282042 0.035283 0.297666
v 0.280928 0.036852 0.294872
v 0.281958 0.043410 0.299849
v 0.280898 0.043404 0.296633
v 0.281937 0.051614 0.297666
v 0.280819 0.049975 0.294872
v 0.281869 0.057573 0.291679
v 0.280810 0.054809 0.290060
v 0.284579 0.059339 0.274472
v 0.284627 0.061819 0.283533
v 0.284648 0.052625 0.267735
v 0.284715 0.043435 0.265246
v 0.284777 0.034292 0.267735
v 0.284799 0.027574 0.274472
v 0.284891 0.025106 0.283533
v 0.284799 0.027574 0.292665
v 0.284801 0.034294 0.299403
v 0.284691 0.043433 0.301868
v 0.284671 0.052627 0.299403
v 0.284579 0.059339 0.292665
v 0.287854 0.059365 0.274472
v 0.287900 0.061869 0.283533
v 0.287946 0.052653 0.267735
v 0.287990 0.043462 0.265246
v 0.288052 0.034319 0.267735
v 0.288098 0.027602 0.274472
v 0.288142 0.025131 0.283533
v 0.288098 0.027602 0.292665
v 0.288078 0.034297 0.299403
v 0.287966 0.043459 0.301868
v 0.287972 0.052632 0.299403
v 0.287854 0.059365 0.292665
v 0.290634 0.057647 0.275458
v 0.290543 0.059855 0.283533
v 0.290653 0.051707 0.269472
v 0.290720 0.043507 0.267289
v 0.290786 0.035331 0.269472
v 0.290833 0.029347 0.275458
v 0.290733 0.027168 0.283533
v 0.290833 0.029347 0.291679
v 0.290786 0.035331 0.297642
v 0.290720 0.043507 0.299825
v 0.290653 0.051707 0.297642
v 0.290634 0.057647 0.291679
v 0.291675 0.054869 0.277054
v 0.291649 0.056635 0.283557
v 0.291705 0.050061 0.272242
v 0.291760 0.043488 0.270481
v 0.291813 0.036937 0.272242
v 0.291843 0.032130 0.277054
v 0.291822 0.030360 0.283557
v 0.291843 0.032130 0.290036
v 0.291813 0.036937 0.294849
v 0.291760 0.043488 0.296609
v 0.291705 0.050061 0.294849
v 0.291675 0.054869 0.290036
v 0.290616 0.052104 0.278651
v 0.290583 0.053445 0.283533
v 0.290677 0.048455 0.275035
v 0.290720 0.043507 0.273697
v 0.290764 0.038560 0.275035
v 0.290735 0.034879 0.278651
v 0.290716 0.033580 0.283533
v 0.290781 0.034883 0.288440
v 0.290717 0.038556 0.292125
v 0.290720 0.043507 0.293417
v 0.290631 0.048451 0.292125
v 0.290662 0.052109 0.288440
v 0.287929 0.050341 0.279684
v 0.287968 0.051429 0.283533
v 0.287946 0.047419 0.276749
v 0.287990 0.043462 0.275669
v 0.288008 0.039525 0.276749
v 0.288004 0.036577 0.279684
v 0.288078 0.035547 0.283533
v 0.288004 0.036577 0.287454
v 0.288008 0.039525 0.290412
v 0.287966 0.043459 0.291445
v 0.287946 0.047419 0.290412
v 0.287929 0.050341 0.287454
v 0.284700 0.050319 0.279613
v 0.284716 0.051405 0.283533
v 0.284668 0.047416 0.276749
v 0.284715 0.043435 0.275669
v 0.284710 0.039497 0.276749
v 0.284775 0.036555 0.279613
v 0.284826 0.035522 0.283533
v 0.284729 0.036551 0.287454
v 0.284710 0.039497 0.290412
v 0.284691 0.043433 0.291445
v 0.284668 0.047416 0.290412
v 0.284654 0.050314 0.287454
v 0.281897 0.052035 0.278627
v 0.281912 0.053380 0.283557
v 0.281934 0.048407 0.275012
v 0.281982 0.043413 0.273674
v 0.281999 0.038486 0.275012
v 0.282061 0.034837 0.278627
v 0.282068 0.033517 0.283557
v 0.282061 0.034837 0.288463
v 0.281999 0.038486 0.292125
v 0.281958 0.043410 0.293440
v 0.281934 0.048407 0.292125
v 0.281897 0.052035 0.288463
v 0.406843 0.053329 0.282195
v 0.407886 0.054772 0.275646
v 0.407865 0.056491 0.282195
v 0.406829 0.051983 0.277266
v 0.407918 0.049941 0.270833
v 0.406865 0.048356 0.273603
v 0.407971 0.043390 0.269073
v 0.406913 0.043361 0.272289
v 0.408001 0.036838 0.270833
v 0.406930 0.038435 0.273603
v 0.408033 0.032007 0.275646
v 0.406969 0.034783 0.277266
v 0.408057 0.030264 0.282195
v 0.406976 0.033464 0.282195
v 0.408033 0.032007 0.288768
v 0.406969 0.034783 0.287172
v 0.408001 0.036838 0.293581
v 0.406930 0.038435 0.290811
v 0.407971 0.043390 0.295342
v 0.406913 0.043361 0.292149
v 0.407918 0.049941 0.293581
v 0.406865 0.048356 0.290811
v 0.407886 0.054772 0.288768
v 0.406829 0.051983 0.287172
v 0.404119 0.050218 0.278252
v 0.404111 0.051302 0.282195
v 0.404134 0.047319 0.275317
v 0.404154 0.043360 0.274284
v 0.404198 0.039403 0.275317
v 0.404215 0.036480 0.278252
v 0.404218 0.035443 0.282195
v 0.404215 0.036480 0.286163
v 0.404198 0.039403 0.289074
v 0.404154 0.043360 0.290154
v 0.404134 0.047319 0.289074
v 0.404119 0.050218 0.286163
v 0.400818 0.050213 0.278252
v 0.400810 0.051297 0.282195
v 0.400835 0.047290 0.275317
v 0.400879 0.043333 0.274284
v 0.400897 0.039397 0.275317
v 0.400916 0.036451 0.278252
v 0.400920 0.035414 0.282195
v 0.400916 0.036451 0.286163
v 0.400897 0.039397 0.289074
v 0.400879 0.043333 0.290154
v 0.400835 0.047290 0.289074
v 0.400818 0.050213 0.286163
v 0.398062 0.051933 0.277266
v 0.398055 0.053253 0.282195
v 0.398100 0.048282 0.273603
v 0.398122 0.043308 0.272289
v 0.398164 0.038384 0.273603
v 0.398181 0.034707 0.277266
v 0.398186 0.033411 0.282195
v 0.398181 0.034707 0.287172
v 0.398164 0.038384 0.290811
v 0.398122 0.043308 0.292149
v 0.398100 0.048282 0.290811
v 0.398062 0.051933 0.287172
v 0.397000 0.054686 0.275646
v 0.396975 0.056452 0.282195
v 0.397030 0.049878 0.270833
v 0.397062 0.043303 0.269073
v 0.397115 0.036752 0.270833
v 0.397148 0.031921 0.275646
v 0.397171 0.030179 0.282195
v 0.397148 0.031921 0.288768
v 0.397115 0.036752 0.293581
v 0.397062 0.043303 0.295342
v 0.397030 0.049878 0.293581
v 0.397000 0.054686 0.288768
v 0.398033 0.057472 0.274049
v 0.398015 0.059663 0.282195
v 0.398078 0.051510 0.268063
v 0.398122 0.043308 0.265880
v 0.398186 0.035156 0.268063
v 0.398233 0.029171 0.274049
v 0.398249 0.027003 0.282195
v 0.398233 0.029171 0.290388
v 0.398186 0.035156 0.296351
v 0.398122 0.043308 0.298558
v 0.398078 0.051510 0.296351
v 0.398033 0.057472 0.290388
v 0.400769 0.059216 0.273040
v 0.400745 0.061713 0.282195
v 0.400816 0.052476 0.266326
v 0.400879 0.043333 0.263861
v 0.400944 0.034167 0.266326
v 0.400989 0.027450 0.273040
v 0.401009 0.025000 0.282195
v 0.400989 0.027450 0.291374
v 0.400944 0.034167 0.298088
v 0.400879 0.043333 0.300577
v 0.400816 0.052476 0.298088
v 0.400769 0.059216 0.291374
v 0.404044 0.059242 0.273040
v 0.404020 0.061740 0.282195
v 0.404089 0.052526 0.266326
v 0.404154 0.043360 0.263861
v 0.404219 0.034193 0.266326
v 0.404264 0.027477 0.273040
v 0.404283 0.025027 0.282195
v 0.404264 0.027477 0.291374
v 0.404219 0.034193 0.298088
v 0.404154 0.043360 0.300577
v 0.404089 0.052526 0.298088
v 0.404044 0.059242 0.291374
v 0.406800 0.057522 0.274049
v 0.406803 0.059739 0.282195
v 0.406845 0.051561 0.268063
v 0.406913 0.043361 0.265880
v 0.406974 0.035232 0.268063
v 0.406998 0.029245 0.274049
v 0.407016 0.027054 0.282195
v 0.406998 0.029245 0.290388
v 0.406974 0.035232 0.296351
v 0.406913 0.043361 0.298558
v 0.406845 0.051561 0.296351
v 0.406800 0.057522 0.290388
v 0.250086 0.149596 0.466713
v 0.025039 0.144357 0.250926
v 0.025000 0.148009 0.250926
v 0.250103 0.145919 0.466713
v 0.137889 0.145145 0.213366
v 0.091136 0.144828 0.316469
v 0.250197 0.145928 0.213178
v 0.250179 0.149605 0.213178
v 0.100139 0.144878 0.203788
v 0.062749 0.148276 0.194492
v 0.065405 0.144636 0.292055
v 0.062765 0.144622 0.194492
v 0.663446 0.152546 0.251114
v 0.437989 0.149650 0.466995
v 0.437982 0.150969 0.466995
v 0.663453 0.151226 0.251114
v 0.626269 0.150965 0.194304
v 0.626262 0.152285 0.194304
v 0.626269 0.150965 0.288299
v 0.587955 0.150668 0.204163
v 0.597543 0.150773 0.316563
v 0.438172 0.150964 0.213178
v 0.550579 0.150436 0.212896
v 0.438178 0.149644 0.213178
v 0.138190 0.143452 0.062936
v 0.166348 0.143662 0.025469
v 0.278563 0.144435 0.034860
v 0.287870 0.144514 0.091012
v 0.250498 0.144235 0.165852
v 0.550702 0.146392 0.063500
v 0.522259 0.146203 0.025563
v 0.409010 0.145401 0.035141
v 0.400196 0.145346 0.091482
v 0.438205 0.145614 0.166791
v 0.409743 0.309021 0.100684
v 0.413664 0.150793 0.214023
v 0.408804 0.309475 0.034860
v 0.409917 0.150769 0.212990
v 0.413513 0.309047 0.101717
v 0.412574 0.309501 0.035893
v 0.412723 0.150775 0.035611
v 0.277149 0.308560 0.100778
v 0.282652 0.149821 0.213178
v 0.277336 0.308578 0.035141
v 0.277491 0.149782 0.213178
v 0.282310 0.308600 0.100778
v 0.282496 0.308618 0.035141
v 0.283689 0.149825 0.034860
v 0.357899 0.109373 0.897719
v 0.368131 0.122862 0.897719
v 0.343291 0.127210 0.975000
v 0.342216 0.104660 0.897719
v 0.326497 0.110296 0.897719
v 0.316927 0.124482 0.897719
v 0.317382 0.140371 0.897719
v 0.327630 0.153696 0.897719
v 0.343318 0.158598 0.897719
v 0.359011 0.152984 0.897719
v 0.368577 0.138844 0.897719
v 0.437923 0.148346 0.494695
v 0.250205 0.146589 0.494508
v 0.653980 0.149670 0.288299
v 0.034222 0.144989 0.288487
v 0.372357 0.151746 0.107070
v 0.313929 0.151457 0.107351
v 0.343777 0.098866 0.814429
v 0.325940 0.150117 0.467183
v 0.365325 0.150043 0.466619
f 1 2 3
f 3 1 4
f 4 5 6
f 4 5 7
f 8 9 1
f 9 1 7
f 7 1 4
f 10 11 12
f 10 11 13
f 10 11 14
f 13 14 10
f 13 14 15
f 13 14 16
f 13 14 11
f 11 13 12
f 11 13 16
f 15 16 13
f 15 16 17
f 15 16 14
f 14 15 10
f 14 15 17
f 11 14 16
f 14 16 17
f 10 15 13
f 12 13 10
f 12 18 19
f 12 18 10
f 20 21 22
f 23 24 25
f 23 24 26
f 27 28 29
f 30 31 32
f 33 34 25
f 33 34 35
f 32 36 37
f 36 37 38
f 36 37 39
f 39 37 38
f 38 40 37
f 36 39 38
f 36 41 38
f 40 37 42
f 42 32 37
f 29 43 44
f 29 43 45
f 43 44 46
f 47 46 44
f 29 48 44
f 48 44 47
f 49 50 51
f 50 52 22
f 50 52 51
f 52 22 21
f 19 18 53
f 53 19 54
f 53 54 55
f 55 54 56
f 55 56 9
f 9 56 57
f 58 5 59
f 5 59 49
f 49 59 51
f 60 32 30
f 30 60 61
f 62 60 61
f 61 62 63
f 62 64 63
f 63 64 65
f 66 64 65
f 65 66 67
f 36 66 67
f 67 36 68
f 69 36 68
f 68 69 70
f 71 69 70
f 70 71 72
f 73 71 72
f 72 73 74
f 75 73 74
f 74 75 31
f 32 75 31
f 27 76 77
f 27 76 29
f 76 77 78
f 77 78 79
f 79 78 80
f 79 80 81
f 81 80 82
f 81 82 83
f 83 82 84
f 83 84 85
f 85 84 86
f 85 86 87
f 88 87 89
f 89 88 90
f 89 90 91
f 91 90 92
f 91 92 28
f 28 92 29
f 93 33 35
f 23 33 25
f 93 23 33
f 94 23 93
f 26 23 25
f 94 26 23
f 95 26 94
f 24 26 25
f 95 24 26
f 96 24 95
f 97 24 25
f 96 97 24
f 98 97 96
f 99 97 25
f 98 99 97
f 100 99 98
f 101 99 25
f 100 101 99
f 102 101 100
f 103 101 25
f 102 103 101
f 104 103 102
f 105 103 25
f 104 105 103
f 106 105 104
f 34 105 25
f 34 106 35
f 34 106 105
f 107 38 41
f 108 47 48
f 109 90 110
f 109 92 90
f 109 29 92
f 110 88 90
f 88 86 110
f 88 86 87
f 110 84 86
f 111 62 64
f 112 64 66
f 112 111 64
f 111 60 62
f 111 32 60
f 112 36 66
f 29 36 113
f 114 29 113
f 115 116 117
f 118 119 120
f 121 122 123
f 124 123 121
f 125 126 127
f 126 128 125
f 124 126 127
f 124 126 123
f 124 125 126
f 124 125 127
f 124 125 121
f 121 128 125
f 121 128 122
f 121 126 128
f 121 126 125
f 121 126 124
f 121 126 123
f 123 128 126
f 123 128 121
f 123 128 122
f 129 130 131
f 129 130 132
f 133 129 132
f 133 129 134
f 133 130 129
f 133 130 132
f 135 133 134
f 135 129 133
f 135 129 134
f 134 131 129
f 134 132 129
f 134 132 133
f 132 136 130
f 132 131 134
f 132 131 130
f 132 131 129
f 131 136 132
f 131 136 130
f 137 138 139
f 137 140 139
f 137 140 141
f 138 140 137
f 138 140 142
f 138 140 139
f 143 137 141
f 143 140 137
f 143 140 141
f 141 144 140
f 141 139 140
f 141 139 137
f 142 144 140
f 139 144 141
f 139 144 140
f 139 142 144
f 139 142 140
f 139 142 138
f 145 141 139
f 146 141 145
f 147 148 149
f 150 151 152
f 151 148 149
f 148 150 151
f 150 153 152
f 154 155 156
f 155 151 149
f 151 154 155
f 151 154 152
f 147 157 149
f 158 153 152
f 157 159 160
f 159 155 156
f 155 157 159
f 155 157 149
f 154 161 156
f 161 158 162
f 158 154 161
f 158 154 152
f 163 164 165
f 166 167 168
f 163 168 169
f 170 169 171
f 172 163 164
f 165 173 163
f 174 165 164
f 175 166 167
f 168 176 166
f 172 168 163
f 172 168 167
f 173 177 165
f 178 176 166
f 169 173 163
f 176 169 168
f 173 170 169
f 173 170 177
f 176 171 169
f 176 171 178
f 179 180 181
f 182 183 184
f 180 184 179
f 180 183 184
f 185 186 187
f 185 188 186
f 180 186 187
f 180 186 183
f 180 185 186
f 180 185 187
f 180 185 184
f 182 186 188
f 182 186 183
f 184 186 185
f 184 186 180
f 184 186 183
f 184 186 182
f 184 188 186
f 184 188 185
f 184 188 182
f 189 147 190
f 148 189 147
f 148 189 191
f 148 150 191
f 192 193 194
f 193 189 190
f 189 192 193
f 189 192 191
f 195 196 197
f 196 192 194
f 192 195 196
f 192 195 191
f 153 195 197
f 195 150 153
f 195 150 191
f 157 198 160
f 198 147 190
f 147 157 198
f 199 200 201
f 200 193 194
f 193 199 200
f 193 199 190
f 202 203 204
f 203 196 197
f 196 202 203
f 196 202 194
f 205 158 162
f 153 205 158
f 153 205 197
f 199 206 201
f 206 198 160
f 198 199 206
f 198 199 190
f 202 207 204
f 207 200 201
f 200 202 207
f 200 202 194
f 205 208 162
f 208 203 204
f 203 205 208
f 203 205 197
f 209 210 211
f 210 159 160
f 159 209 210
f 159 209 156
f 210 212 211
f 212 206 201
f 206 210 212
f 206 210 160
f 212 213 211
f 213 207 204
f 207 212 213
f 207 212 201
f 213 214 211
f 214 208 162
f 208 213 214
f 208 213 204
f 214 209 211
f 209 161 156
f 161 214 209
f 161 214 162
f 215 216 164
f 217 215 218
f 219 217 220
f 221 219 222
f 216 221 167
f 223 218 224
f 225 220 226
f 227 222 228
f 223 165 177
f 225 224 229
f 227 226 230
f 166 228 178
f 170 177 231
f 231 229 232
f 232 230 233
f 233 178 171
f 234 215 216
f 234 217 215
f 234 219 217
f 234 221 219
f 234 221 216
f 164 174 215
f 172 164 216
f 218 235 217
f 174 218 215
f 220 236 219
f 235 220 217
f 222 175 221
f 236 222 219
f 167 172 216
f 175 167 221
f 174 223 165
f 174 223 218
f 224 237 223
f 235 224 218
f 235 225 224
f 235 225 220
f 226 238 225
f 236 226 220
f 236 227 226
f 236 227 222
f 228 239 227
f 175 228 222
f 175 166 228
f 177 237 223
f 229 238 225
f 237 229 224
f 230 239 227
f 238 230 226
f 239 178 228
f 231 240 170
f 237 231 229
f 237 231 177
f 232 240 231
f 238 232 230
f 238 232 229
f 233 240 232
f 239 233 178
f 239 233 230
f 171 240 233
f 171 240 170
f 43 45 241
f 46 242 241
f 243 244 245
f 245 246 244
f 247 248 249
f 249 250 248
f 251 252 253
f 254 255 256
f 257 253 251
f 258 256 254
f 40 42 259
f 260 42 40
f 261 42 260
f 43 241 46
f 262 263 264
f 262 265 263
f 266 265 262
f 266 267 265
f 268 267 266
f 268 269 267
f 268 270 269
f 271 270 268
f 271 272 270
f 273 272 271
f 274 272 273
f 274 275 272
f 276 275 274
f 276 277 275
f 276 278 277
f 279 278 276
f 279 280 278
f 281 280 279
f 281 263 280
f 281 263 264
f 265 282 263
f 265 283 282
f 267 283 265
f 267 284 283
f 267 285 284
f 269 285 267
f 269 286 285
f 270 286 269
f 270 287 286
f 272 287 270
f 275 287 272
f 275 288 287
f 277 288 275
f 277 289 288
f 278 289 277
f 278 290 289
f 278 291 290
f 280 291 278
f 280 282 291
f 280 282 263
f 283 292 282
f 283 293 292
f 284 293 283
f 284 294 293
f 285 294 284
f 285 295 294
f 286 295 285
f 286 296 295
f 287 296 286
f 287 297 296
f 287 298 297
f 288 298 287
f 288 299 298
f 289 299 288
f 289 300 299
f 290 300 289
f 290 301 300
f 291 301 290
f 291 292 301
f 291 292 282
f 279 264 281
f 266 264 262
f 264 268 266
f 264 271 268
f 264 273 271
f 264 274 273
f 264 276 274
f 264 276 279
f 302 303 304
f 302 303 305
f 306 302 307
f 306 302 308
f 309 306 307
f 309 306 310
f 311 309 312
f 311 309 313
f 314 311 315
f 314 311 316
f 317 314 318
f 317 314 319
f 320 317 321
f 320 317 322
f 323 320 324
f 323 320 325
f 326 323 324
f 326 323 327
f 326 303 328
f 326 303 305
f 304 329 330
f 304 329 303
f 307 304 331
f 307 304 302
f 312 307 332
f 312 307 309
f 315 312 332
f 315 312 311
f 333 315 334
f 333 315 314
f 318 333 335
f 318 333 314
f 321 318 336
f 321 318 317
f 324 321 336
f 324 321 320
f 328 324 337
f 328 324 326
f 328 329 338
f 328 329 303
f 330 339 329
f 331 330 304
f 331 330 339
f 332 331 307
f 332 331 339
f 334 332 315
f 334 332 339
f 340 334 333
f 340 334 339
f 335 340 333
f 335 340 339
f 336 335 318
f 336 335 339
f 337 336 324
f 337 336 339
f 338 337 328
f 338 339 337
f 338 339 329
f 327 305 326
f 327 325 323
f 325 322 320
f 322 319 317
f 319 341 314
f 341 316 314
f 316 313 311
f 313 310 309
f 310 308 306
f 308 305 302
f 342 343 344
f 342 345 343
f 346 345 342
f 346 347 345
f 348 347 346
f 348 349 347
f 348 350 349
f 351 350 348
f 351 352 350
f 353 352 351
f 354 352 353
f 354 355 352
f 356 355 354
f 356 357 355
f 356 358 357
f 359 358 356
f 359 360 358
f 361 360 359
f 361 343 360
f 361 343 344
f 345 362 343
f 345 363 362
f 347 363 345
f 347 364 363
f 347 365 364
f 349 365 347
f 349 366 365
f 350 366 349
f 350 367 366
f 352 367 350
f 355 367 352
f 355 368 367
f 357 368 355
f 357 369 368
f 358 369 357
f 358 370 369
f 358 371 370
f 360 371 358
f 360 362 371
f 360 362 343
f 363 372 362
f 363 373 372
f 364 373 363
f 364 374 373
f 365 374 364
f 365 375 374
f 366 375 365
f 366 376 375
f 367 376 366
f 367 377 376
f 367 378 377
f 368 378 367
f 368 379 378
f 369 379 368
f 369 380 379
f 370 380 369
f 370 381 380
f 371 381 370
f 371 372 381
f 371 372 362
f 359 344 361
f 346 344 342
f 344 348 346
f 344 351 348
f 344 353 351
f 344 354 353
f 344 356 354
f 344 356 359
f 382 383 384
f 382 383 385
f 386 382 387
f 386 382 388
f 389 386 387
f 389 386 390
f 391 389 392
f 391 389 393
f 394 391 395
f 394 391 396
f 397 394 398
f 397 394 399
f 400 397 401
f 400 397 402
f 403 400 404
f 403 400 405
f 406 403 404
f 406 403 407
f 406 383 408
f 406 383 385
f 384 409 410
f 384 409 383
f 387 384 411
f 387 384 382
f 392 387 412
f 392 387 389
f 395 392 412
f 395 392 391
f 413 395 414
f 413 395 394
f 398 413 415
f 398 413 394
f 401 398 416
f 401 398 397
f 404 401 416
f 404 401 400
f 408 404 417
f 408 404 406
f 408 409 418
f 408 409 383
f 410 419 409
f 411 410 384
f 411 410 419
f 412 411 387
f 412 411 419
f 414 412 395
f 414 412 419
f 420 414 413
f 420 414 419
f 415 420 413
f 415 420 419
f 416 415 398
f 416 415 419
f 417 416 404
f 417 416 419
f 418 417 408
f 418 419 417
f 418 419 409
f 407 385 406
f 407 405 403
f 405 402 400
f 402 399 397
f 399 421 394
f 421 396 394
f 396 393 391
f 393 390 389
f 390 388 386
f 388 385 382
f 422 423 424
f 422 425 423
f 426 425 422
f 426 427 425
f 428 427 426
f 428 429 427
f 430 429 428
f 430 431 429
f 432 424 423
f 433 431 434
f 434 430 431
f 435 436 437
f 437 438 436
f 437 439 438
f 437 440 439
f 435 441 436
f 435 442 441
f 435 443 442
f 1 444 445
f 1 446 445
f 4 447 446
f 4 6 447
f 1 8 444
f 1 4 446
f 434 430 8
f 444 430 8
f 444 428 430
f 445 428 444
f 445 426 428
f 446 426 445
f 446 422 426
f 447 422 446
f 447 424 422
f 6 424 447
f 440 431 433
f 439 431 440
f 439 429 431
f 438 429 439
f 438 427 429
f 436 427 438
f 436 425 427
f 441 425 436
f 441 423 425
f 442 423 441
f 442 432 423
f 443 432 442
f 448 449 450
f 448 451 450
f 452 453 451
f 452 454 453
f 448 455 449
f 448 452 451
f 456 457 458
f 456 457 459
f 460 458 461
f 460 458 456
f 462 461 463
f 462 461 460
f 464 463 465
f 464 463 462
f 466 465 467
f 466 465 464
f 2 468 3
f 469 470 3
f 470 468 3
f 468 471 2
f 471 472 2
f 472 473 2
f 465 457 467
f 457 463 465
f 457 461 463
f 457 461 458
f 453 455 454
f 455 451 453
f 455 451 448
f 455 450 451
f 455 450 448
f 455 450 449
f 2 468 473
f 2 471 473
f 469 470 473
f 470 468 473
f 468 471 473
f 472 473 471
f 474 475 476
f 474 475 477
f 478 479 480
f 478 479 481
f 475 477 482
f 477 474 478
f 479 481 483
f 474 478 480
f 478 477 481
f 475 482 484
f 482 477 481
f 479 483 485
f 481 482 483
f 475 484 486
f 484 482 483
f 479 485 487
f 483 484 485
f 475 486 488
f 486 484 485
f 479 487 489
f 485 486 487
f 475 488 490
f 488 486 487
f 479 489 491
f 487 488 489
f 475 490 492
f 490 488 489
f 479 491 493
f 489 490 491
f 475 492 494
f 492 490 491
f 479 493 495
f 491 492 493
f 475 494 476
f 494 492 493
f 479 495 480
f 493 494 495
f 476 494 495
f 495 476 480
f 476 474 480
f 496 497 498
f 496 497 499
f 499 496 500
f 500 496 501
f 497 499 502
f 498 496 501
f 497 498 503
f 498 503 504
f 503 497 502
f 498 504 501
f 504 503 505
f 504 505 506
f 505 503 502
f 504 506 501
f 506 505 507
f 506 507 508
f 507 505 502
f 506 508 501
f 508 507 509
f 508 509 510
f 509 507 502
f 508 510 501
f 510 509 511
f 510 511 512
f 511 509 502
f 510 512 501
f 512 511 513
f 512 513 514
f 513 511 502
f 512 514 501
f 514 513 515
f 514 515 516
f 515 513 502
f 514 516 501
f 516 515 517
f 516 517 500
f 517 515 502
f 516 500 501
f 500 517 499
f 499 517 502
f 518 519 520
f 518 519 521
f 521 518 522
f 522 518 523
f 519 521 524
f 520 518 523
f 519 520 525
f 520 525 526
f 525 519 524
f 520 526 523
f 526 525 527
f 526 527 528
f 527 525 524
f 526 528 523
f 528 527 529
f 528 529 530
f 529 527 524
f 528 530 523
f 530 529 531
f 530 531 532
f 531 529 524
f 530 532 523
f 532 531 533
f 532 533 534
f 533 531 524
f 532 534 523
f 534 533 535
f 534 535 536
f 535 533 524
f 534 536 523
f 536 535 537
f 536 537 538
f 537 535 524
f 536 538 523
f 538 537 539
f 538 539 522
f 539 537 524
f 538 522 523
f 522 539 521
f 521 539 524
f 540 541 542
f 540 541 543
f 543 540 544
f 544 540 545
f 541 543 546
f 542 540 545
f 541 542 547
f 542 547 548
f 547 541 546
f 542 548 545
f 548 547 549
f 548 549 550
f 549 547 546
f 548 550 545
f 550 549 551
f 550 551 552
f 551 549 546
f 550 552 545
f 552 551 553
f 552 553 554
f 553 551 546
f 552 554 545
f 554 553 555
f 554 555 556
f 555 553 546
f 554 556 545
f 556 555 557
f 556 557 558
f 557 555 546
f 556 558 545
f 558 557 559
f 558 559 560
f 559 557 546
f 558 560 545
f 560 559 561
f 560 561 544
f 561 559 546
f 560 544 545
f 544 561 543
f 543 561 546
f 562 563 564
f 562 563 565
f 563 565 566
f 563 566 567
f 563 567 568
f 563 568 569
f 563 569 570
f 563 570 571
f 563 571 572
f 563 572 564
f 573 574 575
f 573 576 575
f 576 577 575
f 577 578 575
f 578 579 575
f 579 580 575
f 580 581 575
f 581 582 575
f 582 583 575
f 583 574 575
f 584 585 586
f 584 585 587
f 588 589 590
f 588 589 591
f 585 587 592
f 587 584 588
f 589 591 593
f 584 588 590
f 588 587 591
f 585 592 594
f 592 587 591
f 589 593 595
f 591 592 593
f 585 594 596
f 594 592 593
f 589 595 597
f 593 594 595
f 585 596 598
f 596 594 595
f 589 597 599
f 595 596 597
f 585 598 600
f 598 596 597
f 589 599 601
f 597 598 599
f 585 600 602
f 600 598 599
f 589 601 603
f 599 600 601
f 585 602 604
f 602 600 601
f 589 603 605
f 601 602 603
f 585 604 586
f 604 602 603
f 589 605 590
f 603 604 605
f 586 604 605
f 605 586 590
f 586 584 590
f 606 607 608
f 606 607 609
f 610 611 612
f 610 611 613
f 607 609 614
f 609 606 610
f 611 613 615
f 606 610 612
f 610 609 613
f 607 614 616
f 614 609 613
f 611 615 617
f 613 614 615
f 607 616 618
f 616 614 615
f 611 617 619
f 615 616 617
f 607 618 620
f 618 616 617
f 611 619 621
f 617 618 619
f 607 620 622
f 620 618 619
f 611 621 623
f 619 620 621
f 607 622 624
f 622 620 621
f 611 623 625
f 621 622 623
f 607 624 626
f 624 622 623
f 611 625 627
f 623 624 625
f 607 626 608
f 626 624 625
f 611 627 612
f 625 626 627
f 608 626 627
f 627 608 612
f 608 606 612
f 628 629 630
f 628 629 631
f 632 633 634
f 632 633 635
f 629 631 636
f 631 628 632
f 633 635 637
f 628 632 634
f 632 631 635
f 629 636 638
f 636 631 635
f 633 637 639
f 635 636 637
f 629 638 640
f 638 636 637
f 633 639 641
f 637 638 639
f 629 640 642
f 640 638 639
f 633 641 643
f 639 640 641
f 629 642 644
f 642 640 641
f 633 643 645
f 641 642 643
f 629 644 646
f 644 642 643
f 633 645 647
f 643 644 645
f 629 646 648
f 646 644 645
f 633 647 649
f 645 646 647
f 629 648 630
f 648 646 647
f 633 649 634
f 647 648 649
f 630 648 649
f 649 630 634
f 630 628 634
f 650 651 652
f 650 651 653
f 653 650 654
f 654 650 655
f 651 653 656
f 652 650 655
f 651 652 657
f 652 657 658
f 657 651 656
f 652 658 655
f 658 657 659
f 658 659 660
f 659 657 656
f 658 660 655
f 660 659 661
f 660 661 662
f 661 659 656
f 660 662 655
f 662 661 663
f 662 663 664
f 663 661 656
f 662 664 655
f 664 663 665
f 664 665 666
f 665 663 656
f 664 666 655
f 666 665 667
f 666 667 668
f 667 665 656
f 666 668 655
f 668 667 669
f 668 669 670
f 669 667 656
f 668 670 655
f 670 669 671
f 670 671 654
f 671 669 656
f 670 654 655
f 654 671 653
f 653 671 656
f 672 673 674
f 672 675 673
f 676 675 677
f 678 672 674
f 672 676 675
f 678 676 672
f 679 676 677
f 680 678 674
f 678 679 676
f 680 679 678
f 681 679 677
f 682 680 674
f 680 681 679
f 682 681 680
f 683 681 677
f 684 682 674
f 682 683 681
f 684 683 682
f 685 683 677
f 686 684 674
f 684 685 683
f 686 685 684
f 687 685 677
f 688 686 674
f 686 687 685
f 688 687 686
f 689 687 677
f 690 688 674
f 688 689 687
f 690 689 688
f 691 689 677
f 692 690 674
f 690 691 689
f 692 691 690
f 693 691 677
f 692 673 674
f 693 675 677
f 693 673 675
f 693 692 673
f 693 692 691
f 694 695 696
f 694 697 696
f 694 698 697
f 698 699 697
f 697 700 696
f 698 701 699
f 698 702 694
f 701 703 699
f 699 700 697
f 701 704 703
f 701 702 698
f 704 705 703
f 703 700 699
f 704 706 705
f 704 702 701
f 706 707 705
f 705 700 703
f 706 708 707
f 706 702 704
f 708 709 707
f 707 700 705
f 708 710 709
f 708 702 706
f 710 711 709
f 709 700 707
f 710 712 711
f 710 702 708
f 712 713 711
f 711 700 709
f 712 714 713
f 712 702 710
f 714 715 713
f 695 715 696
f 713 700 711
f 714 695 715
f 714 702 712
f 715 700 713
f 715 700 696
f 695 702 714
f 695 702 694
f 716 717 718
f 716 719 718
f 716 720 719
f 720 721 719
f 719 722 718
f 720 723 721
f 720 724 716
f 723 725 721
f 721 722 719
f 723 726 725
f 723 724 720
f 726 727 725
f 725 722 721
f 726 728 727
f 726 724 723
f 728 729 727
f 727 722 725
f 728 730 729
f 728 724 726
f 730 731 729
f 729 722 727
f 730 732 731
f 730 724 728
f 732 733 731
f 731 722 729
f 732 734 733
f 732 724 730
f 734 735 733
f 733 722 731
f 734 736 735
f 734 724 732
f 736 737 735
f 717 737 718
f 735 722 733
f 736 717 737
f 736 724 734
f 737 722 735
f 737 722 718
f 717 724 736
f 717 724 716
f 738 739 740
f 738 741 740
f 738 742 741
f 742 743 741
f 741 744 740
f 742 745 743
f 742 746 738
f 745 747 743
f 743 744 741
f 745 748 747
f 745 746 742
f 748 749 747
f 747 744 743
f 748 750 749
f 748 746 745
f 750 751 749
f 749 744 747
f 750 752 751
f 750 746 748
f 752 753 751
f 751 744 749
f 752 754 753
f 752 746 750
f 754 755 753
f 753 744 751
f 754 756 755
f 754 746 752
f 756 757 755
f 755 744 753
f 756 758 757
f 756 746 754
f 758 759 757
f 739 759 740
f 757 744 755
f 758 739 759
f 758 746 756
f 759 744 757
f 759 744 740
f 739 746 758
f 739 746 738
f 760 761 762
f 763 760 762
f 764 763 762
f 765 764 762
f 766 765 762
f 767 766 762
f 768 767 762
f 769 768 762
f 770 769 762
f 770 761 762
f 771 772 773
f 771 772 774
f 772 775 776
f 772 775 777
f 775 778 779
f 775 778 780
f 778 781 782
f 778 781 783
f 781 784 785
f 781 784 786
f 784 787 788
f 784 787 789
f 787 790 791
f 787 790 792
f 790 793 794
f 790 793 795
f 793 796 797
f 793 796 798
f 796 799 800
f 796 799 801
f 799 802 803
f 799 802 804
f 802 771 805
f 802 771 806
f 805 773 807
f 805 773 771
f 773 776 808
f 773 776 772
f 776 779 809
f 776 779 775
f 779 782 810
f 779 782 778
f 782 785 811
f 782 785 781
f 785 788 812
f 785 788 784
f 788 791 813
f 788 791 787
f 791 794 814
f 791 794 790
f 794 797 815
f 794 797 793
f 797 800 816
f 797 800 796
f 800 803 817
f 800 803 799
f 803 805 818
f 803 805 802
f 818 807 819
f 818 807 805
f 807 808 820
f 807 808 773
f 808 809 821
f 808 809 776
f 809 810 822
f 809 810 779
f 810 811 823
f 810 811 782
f 811 812 824
f 811 812 785
f 812 813 825
f 812 813 788
f 813 814 826
f 813 814 791
f 814 815 827
f 814 815 794
f 815 816 828
f 815 816 797
f 816 817 829
f 816 817 800
f 817 818 830
f 817 818 803
f 830 819 831
f 830 819 818
f 819 820 832
f 819 820 807
f 820 821 833
f 820 821 808
f 821 822 834
f 821 822 809
f 822 823 835
f 822 823 810
f 823 824 836
f 823 824 811
f 824 825 837
f 824 825 812
f 825 826 838
f 825 826 813
f 826 827 839
f 826 827 814
f 827 828 840
f 827 828 815
f 828 829 841
f 828 829 816
f 829 830 842
f 829 830 817
f 842 831 843
f 842 831 830
f 831 832 844
f 831 832 819
f 832 833 845
f 832 833 820
f 833 834 846
f 833 834 821
f 834 835 847
f 834 835 822
f 835 836 848
f 835 836 823
f 836 837 849
f 836 837 824
f 837 838 850
f 837 838 825
f 838 839 851
f 838 839 826
f 839 840 852
f 839 840 827
f 840 841 853
f 840 841 828
f 841 842 854
f 841 842 829
f 854 843 855
f 854 843 842
f 843 844 856
f 843 844 831
f 844 845 857
f 844 845 832
f 845 846 858
f 845 846 833
f 846 847 859
f 846 847 834
f 847 848 860
f 847 848 835
f 848 849 861
f 848 849 836
f 849 850 862
f 849 850 837
f 850 851 863
f 850 851 838
f 851 852 864
f 851 852 839
f 852 853 865
f 852 853 840
f 853 854 866
f 853 854 841
f 866 855 867
f 866 855 854
f 855 856 868
f 855 856 843
f 856 857 869
f 856 857 844
f 857 858 870
f 857 858 845
f 858 859 871
f 858 859 846
f 859 860 872
f 859 860 847
f 860 861 873
f 860 861 848
f 861 862 874
f 861 862 849
f 862 863 875
f 862 863 850
f 863 864 876
f 863 864 851
f 864 865 877
f 864 865 852
f 865 866 878
f 865 866 853
f 878 867 879
f 878 867 866
f 867 868 880
f 867 868 855
f 868 869 881
f 868 869 856
f 869 870 882
f 869 870 857
f 870 871 883
f 870 871 858
f 871 872 884
f 871 872 859
f 872 873 885
f 872 873 860
f 873 874 886
f 873 874 861
f 874 875 887
f 874 875 862
f 875 876 888
f 875 876 863
f 876 877 889
f 876 877 864
f 877 878 890
f 877 878 865
f 890 879 774
f 890 879 878
f 879 880 777
f 879 880 867
f 880 881 780
f 880 881 868
f 881 882 783
f 881 882 869
f 882 883 786
f 882 883 870
f 883 884 789
f 883 884 871
f 884 885 792
f 884 885 872
f 885 886 795
f 885 886 873
f 886 887 798
f 886 887 874
f 887 888 801
f 887 888 875
f 888 889 804
f 888 889 876
f 889 890 806
f 889 890 877
f 806 774 890
f 806 774 771
f 774 777 879
f 774 777 772
f 777 780 880
f 777 780 775
f 780 783 881
f 780 783 778
f 783 786 882
f 783 786 781
f 786 789 883
f 786 789 784
f 789 792 884
f 789 792 787
f 792 795 885
f 792 795 790
f 795 798 886
f 795 798 793
f 798 801 887
f 798 801 796
f 801 804 888
f 801 804 799
f 804 806 889
f 804 806 802
f 891 892 893
f 891 892 894
f 894 891 895
f 894 895 896
f 896 895 897
f 896 897 898
f 898 897 899
f 898 899 900
f 900 899 901
f 900 901 902
f 902 901 903
f 902 903 904
f 904 903 905
f 904 905 906
f 906 905 907
f 906 907 908
f 908 907 909
f 908 909 910
f 910 909 911
f 910 911 912
f 912 911 913
f 912 913 914
f 914 913 893
f 914 893 892
f 915 893 916
f 915 893 891
f 891 915 917
f 891 917 895
f 895 917 918
f 895 918 897
f 897 918 919
f 897 919 899
f 899 919 920
f 899 920 901
f 901 920 921
f 901 921 903
f 903 921 922
f 903 922 905
f 905 922 923
f 905 923 907
f 907 923 924
f 907 924 909
f 909 924 925
f 909 925 911
f 911 925 926
f 911 926 913
f 913 926 916
f 913 916 893
f 927 916 928
f 927 916 915
f 915 927 929
f 915 929 917
f 917 929 930
f 917 930 918
f 918 930 931
f 918 931 919
f 919 931 932
f 919 932 920
f 920 932 933
f 920 933 921
f 921 933 934
f 921 934 922
f 922 934 935
f 922 935 923
f 923 935 936
f 923 936 924
f 924 936 937
f 924 937 925
f 925 937 938
f 925 938 926
f 926 938 928
f 926 928 916
f 939 928 940
f 939 928 927
f 927 939 941
f 927 941 929
f 929 941 942
f 929 942 930
f 930 942 943
f 930 943 931
f 931 943 944
f 931 944 932
f 932 944 945
f 932 945 933
f 933 945 946
f 933 946 934
f 934 946 947
f 934 947 935
f 935 947 948
f 935 948 936
f 936 948 949
f 936 949 937
f 937 949 950
f 937 950 938
f 938 950 940
f 938 940 928
f 951 940 952
f 951 940 939
f 939 951 953
f 939 953 941
f 941 953 954
f 941 954 942
f 942 954 955
f 942 955 943
f 943 955 956
f 943 956 944
f 944 956 957
f 944 957 945
f 945 957 958
f 945 958 946
f 946 958 959
f 946 959 947
f 947 959 960
f 947 960 948
f 948 960 961
f 948 961 949
f 949 961 962
f 949 962 950
f 950 962 952
f 950 952 940
f 963 952 964
f 963 952 951
f 951 963 965
f 951 965 953
f 953 965 966
f 953 966 954
f 954 966 967
f 954 967 955
f 955 967 968
f 955 968 956
f 956 968 969
f 956 969 957
f 957 969 970
f 957 970 958
f 958 970 971
f 958 971 959
f 959 971 972
f 959 972 960
f 960 972 973
f 960 973 961
f 961 973 974
f 961 974 962
f 962 974 964
f 962 964 952
f 975 964 976
f 975 964 963
f 963 975 977
f 963 977 965
f 965 977 978
f 965 978 966
f 966 978 979
f 966 979 967
f 967 979 980
f 967 980 968
f 968 980 981
f 968 981 969
f 969 981 982
f 969 982 970
f 970 982 983
f 970 983 971
f 971 983 984
f 971 984 972
f 972 984 985
f 972 985 973
f 973 985 986
f 973 986 974
f 974 986 976
f 974 976 964
f 987 976 988
f 987 976 975
f 975 987 989
f 975 989 977
f 977 989 990
f 977 990 978
f 978 990 991
f 978 991 979
f 979 991 992
f 979 992 980
f 980 992 993
f 980 993 981
f 981 993 994
f 981 994 982
f 982 994 995
f 982 995 983
f 983 995 996
f 983 996 984
f 984 996 997
f 984 997 985
f 985 997 998
f 985 998 986
f 986 998 988
f 986 988 976
f 999 988 1000
f 999 988 987
f 987 999 1001
f 987 1001 989
f 989 1001 1002
f 989 1002 990
f 990 1002 1003
f 990 1003 991
f 991 1003 1004
f 991 1004 992
f 992 1004 1005
f 992 1005 993
f 993 1005 1006
f 993 1006 994
f 994 1006 1007
f 994 1007 995
f 995 1007 1008
f 995 1008 996
f 996 1008 1009
f 996 1009 997
f 997 1009 1010
f 997 1010 998
f 998 1010 1000
f 998 1000 988
f 999 892 1000
f 999 892 894
f 894 999 1001
f 894 1001 896
f 896 1001 1002
f 896 1002 898
f 898 1002 1003
f 898 1003 900
f 900 1003 1004
f 900 1004 902
f 902 1004 1005
f 902 1005 904
f 904 1005 1006
f 904 1006 906
f 906 1006 1007
f 906 1007 908
f 908 1007 1008
f 908 1008 910
f 910 1008 1009
f 910 1009 912
f 912 1009 1010
f 912 1010 914
f 914 1010 1000
f 914 1000 892
f 1011 1012 1013
f 1014 1012 1011
f 1014 1015 1012
f 1016 1015 1014
f 1016 1017 1015
f 1018 1017 1016
f 1018 1019 1017
f 1020 1019 1018
f 1020 1021 1019
f 1022 1021 1020
f 1022 1023 1021
f 1024 1023 1022
f 1024 1025 1023
f 1026 1025 1024
f 1026 1027 1025
f 1028 1027 1026
f 1028 1029 1027
f 1030 1029 1028
f 1030 1031 1029
f 1032 1031 1030
f 1032 1033 1031
f 1034 1033 1032
f 1034 1013 1033
f 1034 1013 1011
f 1011 1035 1036
f 1014 1035 1011
f 1014 1037 1035
f 1016 1037 1014
f 1016 1038 1037
f 1018 1038 1016
f 1018 1039 1038
f 1020 1039 1018
f 1020 1040 1039
f 1022 1040 1020
f 1022 1041 1040
f 1024 1041 1022
f 1024 1042 1041
f 1026 1042 1024
f 1026 1043 1042
f 1028 1043 1026
f 1028 1044 1043
f 1030 1044 1028
f 1030 1045 1044
f 1032 1045 1030
f 1032 1046 1045
f 1034 1046 1032
f 1034 1036 1046
f 1034 1036 1011
f 1036 1047 1048
f 1035 1047 1036
f 1035 1049 1047
f 1037 1049 1035
f 1037 1050 1049
f 1038 1050 1037
f 1038 1051 1050
f 1039 1051 1038
f 1039 1052 1051
f 1040 1052 1039
f 1040 1053 1052
f 1041 1053 1040
f 1041 1054 1053
f 1042 1054 1041
f 1042 1055 1054
f 1043 1055 1042
f 1043 1056 1055
f 1044 1056 1043
f 1044 1057 1056
f 1045 1057 1044
f 1045 1058 1057
f 1046 1058 1045
f 1046 1048 1058
f 1046 1048 1036
f 1048 1059 1060
f 1047 1059 1048
f 1047 1061 1059
f 1049 1061 1047
f 1049 1062 1061
f 1050 1062 1049
f 1050 1063 1062
f 1051 1063 1050
f 1051 1064 1063
f 1052 1064 1051
f 1052 1065 1064
f 1053 1065 1052
f 1053 1066 1065
f 1054 1066 1053
f 1054 1067 1066
f 1055 1067 1054
f 1055 1068 1067
f 1056 1068 1055
f 1056 1069 1068
f 1057 1069 1056
f 1057 1070 1069
f 1058 1070 1057
f 1058 1060 1070
f 1058 1060 1048
f 1060 1071 1072
f 1059 1071 1060
f 1059 1073 1071
f 1061 1073 1059
f 1061 1074 1073
f 1062 1074 1061
f 1062 1075 1074
f 1063 1075 1062
f 1063 1076 1075
f 1064 1076 1063
f 1064 1077 1076
f 1065 1077 1064
f 1065 1078 1077
f 1066 1078 1065
f 1066 1079 1078
f 1067 1079 1066
f 1067 1080 1079
f 1068 1080 1067
f 1068 1081 1080
f 1069 1081 1068
f 1069 1082 1081
f 1070 1082 1069
f 1070 1072 1082
f 1070 1072 1060
f 1072 1083 1084
f 1071 1083 1072
f 1071 1085 1083
f 1073 1085 1071
f 1073 1086 1085
f 1074 1086 1073
f 1074 1087 1086
f 1075 1087 1074
f 1075 1088 1087
f 1076 1088 1075
f 1076 1089 1088
f 1077 1089 1076
f 1077 1090 1089
f 1078 1090 1077
f 1078 1091 1090
f 1079 1091 1078
f 1079 1092 1091
f 1080 1092 1079
f 1080 1093 1092
f 1081 1093 1080
f 1081 1094 1093
f 1082 1094 1081
f 1082 1084 1094
f 1082 1084 1072
f 1084 1095 1096
f 1083 1095 1084
f 1083 1097 1095
f 1085 1097 1083
f 1085 1098 1097
f 1086 1098 1085
f 1086 1099 1098
f 1087 1099 1086
f 1087 1100 1099
f 1088 1100 1087
f 1088 1101 1100
f 1089 1101 1088
f 1089 1102 1101
f 1090 1102 1089
f 1090 1103 1102
f 1091 1103 1090
f 1091 1104 1103
f 1092 1104 1091
f 1092 1105 1104
f 1093 1105 1092
f 1093 1106 1105
f 1094 1106 1093
f 1094 1096 1106
f 1094 1096 1084
f 1096 1107 1108
f 1095 1107 1096
f 1095 1109 1107
f 1097 1109 1095
f 1097 1110 1109
f 1098 1110 1097
f 1098 1111 1110
f 1099 1111 1098
f 1099 1112 1111
f 1100 1112 1099
f 1100 1113 1112
f 1101 1113 1100
f 1101 1114 1113
f 1102 1114 1101
f 1102 1115 1114
f 1103 1115 1102
f 1103 1116 1115
f 1104 1116 1103
f 1104 1117 1116
f 1105 1117 1104
f 1105 1118 1117
f 1106 1118 1105
f 1106 1108 1118
f 1106 1108 1096
f 1108 1119 1120
f 1107 1119 1108
f 1107 1121 1119
f 1109 1121 1107
f 1109 1122 1121
f 1110 1122 1109
f 1110 1123 1122
f 1111 1123 1110
f 1111 1124 1123
f 1112 1124 1111
f 1112 1125 1124
f 1113 1125 1112
f 1113 1126 1125
f 1114 1126 1113
f 1114 1127 1126
f 1115 1127 1114
f 1115 1128 1127
f 1116 1128 1115
f 1116 1129 1128
f 1117 1129 1116
f 1117 1130 1129
f 1118 1130 1117
f 1118 1120 1130
f 1118 1120 1108
f 1120 1012 1013
f 1119 1012 1120
f 1119 1015 1012
f 1121 1015 1119
f 1121 1017 1015
f 1122 1017 1121
f 1122 1019 1017
f 1123 1019 1122
f 1123 1021 1019
f 1124 1021 1123
f 1124 1023 1021
f 1125 1023 1124
f 1125 1025 1023
f 1126 1025 1125
f 1126 1027 1025
f 1127 1027 1126
f 1127 1029 1027
f 1128 1029 1127
f 1128 1031 1029
f 1129 1031 1128
f 1129 1033 1031
f 1130 1033 1129
f 1130 1013 1033
f 1130 1013 1120
f 1131 1132 1133
f 1131 1132 1134
f 244 1135 245
f 244 1135 246
f 244 1135 1136
f 244 1135 1137
f 246 1137 1138
f 246 1137 244
f 246 1137 1135
f 1131 1137 244
f 1131 1137 1138
f 1131 1137 1134
f 1137 244 1138
f 1137 244 1136
f 1137 244 1134
f 1134 244 1131
f 1134 244 1136
f 245 1136 243
f 245 1136 244
f 245 1136 1139
f 245 1136 1135
f 1135 245 246
f 1135 245 1139
f 243 1139 1140
f 243 1139 245
f 243 1139 1141
f 243 1139 1136
f 1136 243 244
f 1136 243 1141
f 1140 1141 1133
f 1140 1141 243
f 1140 1141 1142
f 1140 1141 1139
f 1139 1140 245
f 1139 1140 1142
f 1133 1142 1140
f 1133 1142 1132
f 1133 1142 1141
f 1141 1133 243
f 1141 1133 1132
f 1135 1136 1139
f 1135 1136 1137
f 1137 1134 1136
f 1136 1139 1141
f 1139 1141 1142
f 1141 1142 1132
f 1143 1144 1145
f 1143 1144 1146
f 250 1147 248
f 250 1147 1148
f 250 1147 1149
f 250 1147 1146
f 1146 250 1143
f 1146 250 1148
f 1146 250 1149
f 1146 1148 1143
f 1146 1148 1147
f 248 1149 249
f 248 1149 250
f 248 1149 1150
f 248 1149 1147
f 1147 248 1148
f 1147 248 1150
f 249 1150 247
f 249 1150 248
f 249 1150 1151
f 249 1150 1149
f 1149 249 250
f 1149 249 1151
f 247 1151 1152
f 247 1151 249
f 247 1151 1153
f 247 1151 1150
f 1150 247 248
f 1150 247 1153
f 1152 1153 247
f 1152 1153 1154
f 1152 1153 1151
f 1151 1152 1145
f 1151 1152 249
f 1151 1152 1154
f 1145 1154 1152
f 1145 1154 1144
f 1145 1154 1151
f 1151 1145 249
f 1151 1145 1144
f 1147 1149 1150
f 1147 1149 1146
f 1149 1150 1151
f 1150 1151 1153
f 1151 1153 1154
f 1151 1154 1144
f 258 1155 254
f 258 1155 256
f 258 1155 1156
f 258 1155 1157
f 1157 258 254
f 1157 258 1156
f 254 1158 256
f 254 1158 255
f 254 1158 1157
f 254 1158 1155
f 1155 254 256
f 1155 254 1157
f 255 1159 256
f 255 1159 116
f 255 1159 1158
f 1159 256 116
f 1159 256 1155
f 1159 256 1158
f 1158 256 255
f 1158 256 1155
f 1155 1156 1157
f 1158 1157 1155
f 1159 1158 1155
f 257 1160 251
f 257 1160 253
f 257 1160 1161
f 257 1160 1162
f 1162 257 251
f 1162 257 1161
f 251 1163 253
f 251 1163 252
f 251 1163 1162
f 251 1163 1160
f 1160 251 253
f 1160 251 1162
f 252 1164 253
f 252 1164 119
f 252 1164 1163
f 1164 253 119
f 1164 253 1160
f 1164 253 1163
f 1163 253 252
f 1163 253 1160
f 1160 1161 1162
f 1163 1162 1160
f 1164 1163 1160
f 1165 1166 1167
f 1165 1166 1168
f 1165 1166 1169
f 1165 1166 1170
f 1170 1165 1167
f 1170 1165 1169
f 1168 1171 1167
f 1168 1171 251
f 1168 1171 1166
f 1171 1167 251
f 1171 1167 1170
f 1171 1167 1166
f 1166 1167 1168
f 1166 1167 1170
f 1166 1169 1170
f 1171 1166 1170
f 1172 1173 1174
f 1172 1173 1175
f 1172 1173 1176
f 1172 1173 1177
f 1177 1172 1174
f 1177 1172 1176
f 1175 1178 1174
f 1175 1178 254
f 1175 1178 1173
f 1178 1174 254
f 1178 1174 1177
f 1178 1174 1173
f 1173 1174 1175
f 1173 1174 1177
f 1173 1176 1177
f 1178 1173 1177
f 1179 1180 1181
f 1181 1179 1182
f 1181 1182 1183
f 1181 1183 1184
f 1181 1184 1185
f 1181 1185 1186
f 1181 1186 1187
f 1181 1187 1188
f 1181 1188 1189
f 1181 1189 1180
f 1133 243 1140
f 1140 245 243
f 248 1148 250
f 1148 1143 250
f 1143 1145 1190
f 1131 1133 1191
f 1192 1143 1190
f 1193 1133 1191
f 252 119 253
f 255 116 256
f 1168 251 1167
f 1165 1168 1167
f 1175 254 1174
f 1172 1175 1174
f 1194 62 64
f 1194 62 60
f 60 1194 32
f 32 1194 36
f 32 1194 73
f 32 1194 75
f 75 1194 73
f 73 1194 71
f 71 1194 69
f 69 1194 36
f 36 1194 66
f 66 1194 64
f 1195 76 78
f 1195 76 29
f 29 1195 92
f 92 1195 90
f 90 1195 88
f 88 1195 86
f 86 1195 84
f 84 1195 80
f 84 1195 82
f 82 1195 80
f 80 1195 78
f 32 73 75
f 84 80 82
f 1188 7 1187
f 1188 7 5
f 5 1188 49
f 49 1188 1189
f 49 1189 1180
f 49 1180 50
f 50 1180 1179
f 1179 22 1196
f 1179 22 50
f 1182 1196 1179
f 1182 1196 18
f 18 1182 1183
f 18 1183 1184
f 18 1184 53
f 53 1184 1185
f 53 1185 55
f 55 1185 9
f 9 1185 1186
f 9 1186 7
f 7 1187 1186
f 1197 1131 108
f 1198 1145 107
f 119 1138 1152
f 116 1138 119
f 120 119 252
f 117 116 255
f 242 1131 108
f 1145 107 259
f 244 1131 1138
f 1138 244 246
f 1145 249 1152
f 249 1152 247
f 1131 1145 1138
f 1138 1152 1145
f 261 37 42
f 120 37 261
