# Unified Preprocessed OBJ file from m1261.obj
# Applied remeshing: Yes
# Applied 4-step normalization: centering, PCA alignment, flipping, scaling
# Generated on 2025-09-29 15:13:59

v 0.430769 -0.037698 0.009680
v 0.089789 -0.120036 0.007702
v 0.101379 -0.120027 0.003732
v 0.402106 -0.037719 0.019496
v 0.078274 -0.120042 0.008489
v 0.373630 -0.037735 0.021444
v 0.066759 -0.120049 0.009277
v 0.345154 -0.037752 0.023391
v 0.055263 -0.120056 0.009269
v 0.316724 -0.037768 0.023372
v 0.032278 -0.120068 0.008988
v 0.259881 -0.037799 0.022676
v -0.036648 -0.120105 0.006819
v 0.089430 -0.037891 0.017313
v -0.128413 -0.120152 -0.001730
v -0.137506 -0.038006 -0.003827
v -0.036346 -0.120099 -0.005908
v 0.090178 -0.037875 -0.014161
v 0.032606 -0.120061 -0.004800
v 0.260692 -0.037782 -0.011420
v 0.055578 -0.120049 -0.003989
v 0.317504 -0.037751 -0.009413
v 0.067062 -0.120043 -0.003450
v 0.345902 -0.037736 -0.008083
v 0.078526 -0.120037 -0.002116
v 0.374253 -0.037722 -0.004785
v 0.089990 -0.120031 -0.000783
v 0.402604 -0.037708 -0.001487
v 0.430726 0.038511 0.009718
v 0.089655 0.120471 0.007823
v 0.101246 0.120479 0.003853
v 0.402063 0.038490 0.019535
v 0.078140 0.120464 0.008609
v 0.373587 0.038473 0.021482
v 0.066626 0.120457 0.009397
v 0.345111 0.038456 0.023429
v 0.055130 0.120451 0.009389
v 0.316682 0.038441 0.023410
v 0.032144 0.120438 0.009108
v 0.259839 0.038409 0.022714
v -0.036782 0.120401 0.006940
v 0.089388 0.038317 0.017351
v -0.128547 0.120354 -0.001609
v -0.137548 0.038202 -0.003789
v -0.036479 0.120408 -0.005788
v 0.090136 0.038334 -0.014123
v 0.032472 0.120445 -0.004679
v 0.260649 0.038427 -0.011382
v 0.055445 0.120458 -0.003868
v 0.317461 0.038457 -0.009375
v 0.066928 0.120464 -0.003330
v 0.345859 0.038473 -0.008045
v 0.078392 0.120470 -0.001996
v 0.374211 0.038487 -0.004747
v 0.089857 0.120475 -0.000663
v 0.402562 0.038501 -0.001449
v -0.021416 -0.365359 0.003900
v -0.017120 -0.365355 0.002428
v -0.025684 -0.365361 0.004191
v -0.029954 -0.365364 0.004483
v -0.034215 -0.365366 0.004481
v -0.042735 -0.365371 0.004376
v -0.068285 -0.365384 0.003572
v -0.102301 -0.365402 0.000404
v -0.068173 -0.365382 -0.001145
v -0.042614 -0.365368 -0.000734
v -0.034098 -0.365363 -0.000433
v -0.029842 -0.365361 -0.000234
v -0.025591 -0.365359 0.000261
v -0.021341 -0.365357 0.000755
v -0.021822 0.365674 0.004267
v -0.017526 0.365677 0.002795
v -0.026090 0.365671 0.004558
v -0.030360 0.365669 0.004850
v -0.034621 0.365666 0.004848
v -0.043141 0.365662 0.004743
v -0.068691 0.365648 0.003939
v -0.102707 0.365631 0.000770
v -0.068579 0.365650 -0.000779
v -0.043019 0.365664 -0.000368
v -0.034504 0.365669 -0.000067
v -0.030247 0.365671 0.000133
v -0.025997 0.365673 0.000627
v -0.021747 0.365675 0.001122
v -0.129745 -0.059703 -0.016768
v -0.315273 -0.178852 -0.017472
v -0.312319 -0.178849 -0.019547
v -0.139638 -0.059712 -0.009820
v -0.318189 -0.178854 -0.017005
v -0.149403 -0.059718 -0.008256
v -0.321105 -0.178856 -0.016538
v -0.159167 -0.059725 -0.006692
v -0.324012 -0.178858 -0.016472
v -0.168901 -0.059730 -0.006474
v -0.329822 -0.178861 -0.016477
v -0.188355 -0.059741 -0.006489
v -0.347235 -0.178870 -0.017159
v -0.246667 -0.059772 -0.008772
v -0.370386 -0.178881 -0.020927
v -0.324188 -0.059809 -0.021390
v -0.347082 -0.178867 -0.023591
v -0.246155 -0.059761 -0.030311
v -0.329657 -0.178857 -0.023445
v -0.187801 -0.059729 -0.029821
v -0.323853 -0.178854 -0.023173
v -0.168368 -0.059719 -0.028911
v -0.320953 -0.178853 -0.022969
v -0.158655 -0.059714 -0.028231
v -0.318062 -0.178851 -0.022365
v -0.148976 -0.059709 -0.026205
v -0.315171 -0.178850 -0.021760
v -0.139297 -0.059705 -0.024178
v -0.129811 0.059920 -0.016708
v -0.315472 0.178863 -0.017292
v -0.312517 0.178865 -0.019367
v -0.139705 0.059911 -0.009760
v -0.318388 0.178861 -0.016826
v -0.149469 0.059905 -0.008196
v -0.321304 0.178859 -0.016359
v -0.159234 0.059899 -0.006632
v -0.324211 0.178857 -0.016293
v -0.168967 0.059893 -0.006414
v -0.330021 0.178854 -0.016298
v -0.188422 0.059883 -0.006429
v -0.347434 0.178845 -0.016980
v -0.246734 0.059851 -0.008712
v -0.370585 0.178834 -0.020748
v -0.324255 0.059815 -0.021330
v -0.347281 0.178848 -0.023411
v -0.246222 0.059863 -0.030251
v -0.329855 0.178858 -0.023265
v -0.187867 0.059895 -0.029761
v -0.324051 0.178861 -0.022994
v -0.168434 0.059905 -0.028851
v -0.321151 0.178862 -0.022790
v -0.158722 0.059910 -0.028171
v -0.318261 0.178864 -0.022186
v -0.149043 0.059914 -0.026145
v -0.315370 0.178865 -0.021581
v -0.139363 0.059919 -0.024119
v 0.629415 0.000539 -0.034939
v 0.564143 -0.022208 -0.014531
v 0.564411 -0.024072 -0.025766
v 0.563914 -0.016886 -0.005005
v 0.563758 -0.008918 0.001362
v 0.563700 0.000483 0.003601
v 0.563748 0.009887 0.001372
v 0.563895 0.017862 -0.004988
v 0.564118 0.023192 -0.014508
v 0.564384 0.025068 -0.025741
v 0.564652 0.023204 -0.036976
v 0.564882 0.017883 -0.046502
v 0.565037 0.009915 -0.052869
v 0.565096 0.000514 -0.055108
v 0.565048 -0.008890 -0.052878
v 0.564901 -0.016865 -0.046519
v 0.564677 -0.022196 -0.036999
v 0.469518 -0.032156 0.001389
v 0.469867 -0.034834 -0.013251
v 0.469218 -0.024516 0.013804
v 0.469015 -0.013077 0.022101
v 0.468938 0.000420 0.025020
v 0.469000 0.013919 0.022115
v 0.469191 0.025367 0.013829
v 0.469481 0.033020 0.001422
v 0.469828 0.035712 -0.013216
v 0.470177 0.033035 -0.027856
v 0.470477 0.025395 -0.040271
v 0.470680 0.013956 -0.048569
v 0.470757 0.000459 -0.051488
v 0.470695 -0.013041 -0.048583
v 0.470504 -0.024488 -0.040296
v 0.470214 -0.032141 -0.027889
v 0.408878 -0.038026 0.027279
v 0.409410 -0.041179 0.004964
v 0.408423 -0.029023 0.046200
v 0.408115 -0.015541 0.058846
v 0.408001 0.000367 0.063292
v 0.408098 0.016279 0.058862
v 0.408391 0.029774 0.046229
v 0.408835 0.038796 0.027318
v 0.409364 0.041972 0.005006
v 0.409896 0.038819 -0.017309
v 0.410351 0.029816 -0.036231
v 0.410658 0.016334 -0.048876
v 0.410773 0.000427 -0.053323
v 0.410676 -0.015486 -0.048892
v 0.410383 -0.028981 -0.036260
v 0.409939 -0.038003 -0.017348
v 0.345724 -0.045690 0.039759
v 0.346341 -0.049470 0.013908
v 0.345197 -0.034901 0.061677
v 0.344840 -0.018743 0.076327
v 0.344708 0.000323 0.081478
v 0.344819 0.019393 0.076346
v 0.345158 0.035566 0.061712
v 0.345673 0.046379 0.039805
v 0.346285 0.050184 0.013958
v 0.346902 0.046405 -0.011892
v 0.347429 0.035615 -0.033811
v 0.347786 0.019457 -0.048460
v 0.347919 0.000392 -0.053612
v 0.347807 -0.018679 -0.048480
v 0.347468 -0.034852 -0.033847
v 0.346953 -0.045664 -0.011938
v 0.224602 -0.051300 0.038251
v 0.225223 -0.055536 0.012212
v 0.224071 -0.039210 0.060330
v 0.223710 -0.021106 0.075087
v 0.223575 0.000256 0.080277
v 0.223686 0.021622 0.075109
v 0.224027 0.039742 0.060369
v 0.224545 0.051855 0.038303
v 0.225161 0.056118 0.012268
v 0.225783 0.051882 -0.013771
v 0.226314 0.039792 -0.035849
v 0.226675 0.021687 -0.050607
v 0.226809 0.000326 -0.055797
v 0.226698 -0.021041 -0.050628
v 0.226358 -0.039160 -0.035889
v 0.225840 -0.051273 -0.013822
v 0.156231 -0.061655 0.025859
v 0.156777 -0.066744 0.002997
v 0.155762 -0.047142 0.045247
v 0.155442 -0.025411 0.058207
v 0.155320 0.000227 0.062767
v 0.155414 0.025869 0.058233
v 0.155710 0.047613 0.045294
v 0.156162 0.062147 0.025921
v 0.156703 0.067258 0.003064
v 0.157249 0.062170 -0.019799
v 0.157718 0.047656 -0.039187
v 0.158038 0.025926 -0.052147
v 0.158160 0.000288 -0.056706
v 0.158066 -0.025354 -0.052172
v 0.157770 -0.047098 -0.039234
v 0.157318 -0.061631 -0.019861
v -0.100080 -0.050193 0.011853
v -0.099589 -0.054327 -0.008708
v -0.100501 -0.038399 0.029287
v -0.100788 -0.020741 0.040941
v -0.100896 0.000094 0.045041
v -0.100811 0.020931 0.040961
v -0.100544 0.038601 0.029325
v -0.100136 0.050414 0.011903
v -0.099650 0.054569 -0.008653
v -0.099159 0.050435 -0.029214
v -0.098738 0.038641 -0.046648
v -0.098451 0.020982 -0.058302
v -0.098343 0.000149 -0.062402
v -0.098428 -0.020690 -0.058323
v -0.098695 -0.038360 -0.046687
v -0.099103 -0.050172 -0.029264
v -0.226883 -0.023073 -0.010235
v -0.226605 -0.024972 -0.021886
v -0.227121 -0.017653 -0.000355
v -0.227282 -0.009535 0.006249
v -0.227343 0.000042 0.008571
v -0.227293 0.009621 0.006259
v -0.227141 0.017744 -0.000337
v -0.226909 0.023175 -0.010212
v -0.226633 0.025087 -0.021861
v -0.226355 0.023187 -0.033512
v -0.226117 0.017766 -0.043392
v -0.225956 0.009650 -0.049995
v -0.225895 0.000073 -0.052318
v -0.225945 -0.009507 -0.050005
v -0.226098 -0.017630 -0.043409
v -0.226329 -0.023061 -0.033536
v -0.222644 -0.004300 -0.051642
v -0.222592 -0.004659 -0.053820
v -0.222689 -0.003275 -0.049796
v -0.222719 -0.001739 -0.048562
v -0.222730 0.000073 -0.048128
v -0.222721 0.001884 -0.048560
v -0.222692 0.003421 -0.049793
v -0.222649 0.004448 -0.051638
v -0.222597 0.004810 -0.053815
v -0.222546 0.004450 -0.055992
v -0.222501 0.003425 -0.057838
v -0.222471 0.001890 -0.059073
v -0.222460 0.000079 -0.059507
v -0.222469 -0.001734 -0.059074
v -0.222497 -0.003270 -0.057842
v -0.222541 -0.004298 -0.055997
v -0.312568 -0.004661 -0.046064
v -0.312519 -0.005046 -0.048126
v -0.312610 -0.003564 -0.044316
v -0.312639 -0.001919 -0.043148
v -0.312650 0.000020 -0.042737
v -0.312641 0.001960 -0.043146
v -0.312614 0.003605 -0.044312
v -0.312573 0.004704 -0.046059
v -0.312524 0.005091 -0.048121
v -0.312475 0.004706 -0.050183
v -0.312433 0.003609 -0.051931
v -0.312404 0.001965 -0.053100
v -0.312394 0.000026 -0.053511
v -0.312402 -0.001914 -0.053102
v -0.312429 -0.003560 -0.051934
v -0.312470 -0.004659 -0.050187
v 0.068218 -0.086704 -0.024710
v -0.171520 -0.072015 0.022398
v -0.170680 -0.086842 -0.012590
v 0.067681 -0.071870 -0.002465
v -0.171884 -0.036184 0.036905
v 0.067442 -0.036036 0.006764
v -0.171559 -0.000337 0.022434
v 0.067641 -0.000192 -0.002429
v -0.170736 0.014526 -0.012539
v 0.068162 0.014665 -0.024659
v -0.169897 -0.000301 -0.047528
v 0.068699 -0.000169 -0.046905
v -0.169532 -0.036133 -0.062035
v 0.068937 -0.036004 -0.056134
v -0.169857 -0.071979 -0.047563
v 0.068738 -0.071847 -0.046941
v -0.305148 -0.065337 0.012567
v -0.304452 -0.077371 -0.016460
v -0.305450 -0.036252 0.024602
v -0.305181 -0.007155 0.012596
v -0.304498 0.004910 -0.016419
v -0.303801 -0.007125 -0.045447
v -0.303499 -0.036210 -0.057483
v -0.303769 -0.065307 -0.045476
v -0.335172 -0.054772 0.006582
v -0.334694 -0.062430 -0.013355
v -0.335379 -0.036264 0.014849
v -0.335193 -0.017747 0.006601
v -0.334723 -0.010068 -0.013329
v -0.334245 -0.017726 -0.033266
v -0.334039 -0.036235 -0.041532
v -0.334225 -0.054751 -0.033284
v -0.292290 -0.036227 -0.011559
v 0.068178 -0.014220 -0.024674
v -0.171560 0.000469 0.022435
v -0.170720 -0.014359 -0.012554
v 0.067641 0.000614 -0.002429
v -0.171924 0.036300 0.036941
v 0.067402 0.036448 0.006800
v -0.171600 0.072147 0.022470
v 0.067601 0.072292 -0.002393
v -0.170777 0.087010 -0.012503
v 0.068121 0.087149 -0.024623
v -0.169937 0.072183 -0.047491
v 0.068658 0.072315 -0.046868
v -0.169573 0.036351 -0.061999
v 0.068897 0.036480 -0.056098
v -0.169897 0.000505 -0.047527
v 0.068698 0.000637 -0.046904
v -0.305189 0.007147 0.012604
v -0.304492 -0.004888 -0.016424
v -0.305490 0.036232 0.024639
v -0.305221 0.065329 0.012633
v -0.304538 0.077394 -0.016383
v -0.303841 0.065358 -0.045410
v -0.303539 0.036274 -0.057447
v -0.303809 0.007177 -0.045439
v -0.335213 0.017712 0.006619
v -0.334735 0.010054 -0.013319
v -0.335419 0.036220 0.014885
v -0.335233 0.054737 0.006637
v -0.334764 0.062415 -0.013293
v -0.334286 0.054758 -0.033229
v -0.334079 0.036249 -0.041495
v -0.334265 0.017733 -0.033248
v -0.292330 0.036257 -0.011523
v -0.042835 -0.059249 0.002005
v -0.220554 -0.122134 0.162004
v -0.217489 -0.120246 0.162077
v -0.052479 -0.065193 0.001773
v -0.223619 -0.122607 0.161931
v -0.062126 -0.066683 0.001543
v -0.226685 -0.123081 0.161857
v -0.071773 -0.068173 0.001313
v -0.229751 -0.123201 0.161784
v -0.081420 -0.068550 0.001083
v -0.235882 -0.123322 0.161639
v -0.100715 -0.068930 0.000624
v -0.254278 -0.123096 0.161202
v -0.158600 -0.068220 -0.000751
v -0.278806 -0.120279 0.160620
v -0.235786 -0.059354 -0.002581
v -0.254281 -0.117435 0.161204
v -0.158610 -0.050405 -0.000742
v -0.235886 -0.117188 0.161642
v -0.100726 -0.049630 0.000634
v -0.229754 -0.117303 0.161787
v -0.081431 -0.049991 0.001093
v -0.226688 -0.117420 0.161860
v -0.071783 -0.050357 0.001322
v -0.223622 -0.117890 0.161933
v -0.062134 -0.051836 0.001550
v -0.220556 -0.118360 0.162006
v -0.052486 -0.053315 0.001779
v -0.042901 0.059543 0.002065
v -0.220688 0.118296 0.162124
v -0.217622 0.120185 0.162198
v -0.052545 0.053600 0.001832
v -0.223753 0.117822 0.162051
v -0.062192 0.052109 0.001602
v -0.226819 0.117349 0.161978
v -0.071839 0.050620 0.001372
v -0.229884 0.117230 0.161905
v -0.081486 0.050243 0.001143
v -0.236016 0.117109 0.161759
v -0.100781 0.049861 0.000684
v -0.254411 0.117334 0.161322
v -0.158666 0.050573 -0.000691
v -0.278940 0.120152 0.160741
v -0.235852 0.059438 -0.002522
v -0.254414 0.122996 0.161325
v -0.158676 0.068388 -0.000683
v -0.236019 0.123242 0.161762
v -0.100792 0.069162 0.000694
v -0.229887 0.123127 0.161908
v -0.081496 0.068801 0.001152
v -0.226822 0.123011 0.161981
v -0.071849 0.068435 0.001381
v -0.223755 0.122541 0.162053
v -0.062200 0.066956 0.001610
v -0.220690 0.122070 0.162126
v -0.052552 0.065476 0.001838
v 0.229399 0.005288 -0.000734
v 0.229416 -0.024643 -0.000749
v 0.169553 0.005255 -0.002157
v 0.169570 -0.024676 -0.002172
v 0.168368 0.005230 0.047715
v 0.228214 0.005262 0.049137
v 0.228231 -0.024669 0.049122
v 0.168384 -0.024701 0.047700
v 0.260279 -0.078867 0.008691
v 0.095584 -0.120031 0.005717
v 0.266074 -0.078862 0.006706
v 0.240190 -0.078880 0.013993
v 0.084031 -0.120039 0.008095
v 0.245947 -0.078877 0.013599
v 0.220194 -0.078892 0.015360
v 0.072517 -0.120046 0.008883
v 0.225952 -0.078889 0.014966
v 0.200208 -0.078904 0.016330
v 0.061011 -0.120052 0.009273
v 0.205956 -0.078901 0.016334
v 0.174501 -0.078918 0.016180
v 0.043771 -0.120062 0.009128
v 0.185994 -0.078912 0.016320
v 0.111617 -0.078952 0.014748
v -0.002185 -0.120087 0.007903
v 0.146080 -0.078934 0.015832
v -0.019491 -0.079022 0.007791
v -0.082531 -0.120129 0.002544
v 0.026391 -0.078998 0.012066
v -0.086926 -0.079053 -0.004868
v -0.082379 -0.120125 -0.003819
v -0.132960 -0.079079 -0.002779
v 0.061392 -0.078968 -0.009480
v -0.001870 -0.120080 -0.005354
v 0.026916 -0.078987 -0.010035
v 0.158135 -0.078915 -0.007704
v 0.044092 -0.120055 -0.004394
v 0.146649 -0.078921 -0.008110
v 0.192283 -0.078897 -0.006432
v 0.061320 -0.120046 -0.003719
v 0.186541 -0.078900 -0.006701
v 0.212214 -0.078886 -0.005100
v 0.072794 -0.120040 -0.002783
v 0.206482 -0.078889 -0.005767
v 0.232122 -0.078877 -0.002784
v 0.084258 -0.120034 -0.001450
v 0.226390 -0.078879 -0.003451
v 0.251992 -0.078867 0.001123
v 0.095685 -0.120029 0.001474
v 0.246297 -0.078869 -0.001135
v 0.416437 -0.037708 0.014588
v 0.387868 -0.037727 0.020470
v 0.359392 -0.037744 0.022417
v 0.330939 -0.037760 0.023381
v 0.288303 -0.037783 0.023024
v 0.174656 -0.037845 0.019994
v -0.024038 -0.037949 0.006743
v -0.023664 -0.037941 -0.008994
v 0.175435 -0.037828 -0.012791
v 0.289098 -0.037766 -0.010417
v 0.331703 -0.037743 -0.008748
v 0.360077 -0.037729 -0.006434
v 0.388429 -0.037715 -0.003136
v 0.416687 -0.037703 0.004097
v 0.260191 0.079491 0.008771
v 0.095450 0.120475 0.005838
v 0.265986 0.079495 0.006786
v 0.240102 0.079477 0.014072
v 0.083898 0.120467 0.008216
v 0.245859 0.079480 0.013679
v 0.220106 0.079465 0.015440
v 0.072383 0.120461 0.009003
v 0.225864 0.079469 0.015046
v 0.200120 0.079454 0.016409
v 0.060878 0.120454 0.009393
v 0.205868 0.079457 0.016413
v 0.174413 0.079439 0.016259
v 0.043637 0.120445 0.009249
v 0.185906 0.079446 0.016400
v 0.111529 0.079405 0.014827
v -0.002319 0.120420 0.008024
v 0.145992 0.079424 0.015911
v -0.019579 0.079336 0.007871
v -0.082664 0.120378 0.002665
v 0.026303 0.079359 0.012145
v -0.087014 0.079305 -0.004788
v -0.082513 0.120381 -0.003699
v -0.133048 0.079278 -0.002699
v 0.061304 0.079389 -0.009401
v -0.002004 0.120426 -0.005233
v 0.026829 0.079371 -0.009955
v 0.158047 0.079442 -0.007625
v 0.043958 0.120452 -0.004274
v 0.146561 0.079436 -0.008031
v 0.192195 0.079461 -0.006352
v 0.061186 0.120461 -0.003599
v 0.186453 0.079458 -0.006622
v 0.212126 0.079471 -0.005020
v 0.072660 0.120467 -0.002663
v 0.206394 0.079468 -0.005687
v 0.232034 0.079481 -0.002705
v 0.084125 0.120472 -0.001329
v 0.226302 0.079478 -0.003371
v 0.251904 0.079490 0.001202
v 0.095551 0.120477 0.001595
v 0.246209 0.079488 -0.001056
v 0.416395 0.038500 0.014627
v 0.387825 0.038482 0.020508
v 0.359349 0.038465 0.022456
v 0.330897 0.038448 0.023420
v 0.288261 0.038425 0.023062
v 0.174614 0.038363 0.020033
v -0.024080 0.038260 0.006781
v -0.023706 0.038268 -0.008956
v 0.175393 0.038380 -0.012752
v 0.289055 0.038442 -0.010379
v 0.331660 0.038465 -0.008710
v 0.360035 0.038480 -0.006396
v 0.388386 0.038494 -0.003098
v 0.416644 0.038506 0.004135
v 0.039981 -0.242693 0.003816
v -0.019268 -0.365357 0.003164
v 0.042130 -0.242691 0.003080
v 0.032052 -0.242698 0.005947
v -0.023550 -0.365360 0.004046
v 0.034186 -0.242697 0.005801
v 0.024160 -0.242703 0.006486
v -0.027819 -0.365362 0.004337
v 0.026295 -0.242702 0.006340
v 0.016272 -0.242708 0.006879
v -0.032084 -0.365365 0.004482
v 0.018403 -0.242706 0.006880
v 0.006264 -0.242713 0.006823
v -0.038475 -0.365368 0.004429
v 0.010524 -0.242711 0.006875
v -0.018003 -0.242726 0.006280
v -0.055510 -0.365378 0.003974
v -0.005229 -0.242719 0.006682
v -0.069475 -0.242754 0.003611
v -0.085293 -0.365393 0.001988
v -0.052466 -0.242745 0.005196
v -0.098293 -0.242767 -0.001438
v -0.085237 -0.365392 -0.000371
v -0.115357 -0.242777 -0.000663
v -0.039480 -0.242733 -0.003321
v -0.055393 -0.365375 -0.000940
v -0.052259 -0.242740 -0.003527
v -0.000746 -0.242712 -0.002616
v -0.038356 -0.365366 -0.000584
v -0.005004 -0.242715 -0.002767
v 0.012868 -0.242705 -0.002111
v -0.031970 -0.365362 -0.000333
v 0.010740 -0.242706 -0.002211
v 0.020735 -0.242701 -0.001595
v -0.027716 -0.365360 0.000013
v 0.018610 -0.242702 -0.001842
v 0.028592 -0.242697 -0.000681
v -0.023466 -0.365358 0.000508
v 0.026468 -0.242698 -0.000928
v 0.036435 -0.242693 0.000823
v -0.019231 -0.365356 0.001592
v 0.034324 -0.242694 -0.000014
v 0.039712 0.243077 0.004060
v -0.019674 0.365675 0.003531
v 0.041860 0.243078 0.003324
v 0.031782 0.243071 0.006190
v -0.023956 0.365673 0.004412
v 0.033917 0.243072 0.006045
v 0.023890 0.243066 0.006730
v -0.028225 0.365670 0.004704
v 0.026025 0.243068 0.006584
v 0.016002 0.243062 0.007122
v -0.032490 0.365668 0.004849
v 0.018133 0.243063 0.007124
v 0.005994 0.243056 0.007066
v -0.038881 0.365664 0.004795
v 0.010254 0.243059 0.007118
v -0.018273 0.243043 0.006523
v -0.055916 0.365655 0.004341
v -0.005498 0.243050 0.006925
v -0.069744 0.243016 0.003855
v -0.085699 0.365639 0.002355
v -0.052736 0.243025 0.005439
v -0.098563 0.243002 -0.001194
v -0.085643 0.365641 -0.000004
v -0.115627 0.242993 -0.000420
v -0.039749 0.243036 -0.003078
v -0.055799 0.365657 -0.000573
v -0.052529 0.243029 -0.003283
v -0.001016 0.243057 -0.002373
v -0.038762 0.365667 -0.000217
v -0.005274 0.243055 -0.002523
v 0.012599 0.243064 -0.001868
v -0.032376 0.365670 0.000033
v 0.010470 0.243063 -0.001967
v 0.020466 0.243069 -0.001351
v -0.028122 0.365672 0.000380
v 0.018340 0.243068 -0.001599
v 0.028323 0.243072 -0.000437
v -0.023872 0.365674 0.000874
v 0.026198 0.243071 -0.000684
v 0.036166 0.243076 0.001066
v -0.019636 0.365676 0.001958
v 0.034055 0.243075 0.000229
v -0.222509 -0.119278 -0.017120
v -0.313796 -0.178851 -0.018509
v -0.221032 -0.119276 -0.018157
v -0.228914 -0.119283 -0.013413
v -0.316731 -0.178853 -0.017238
v -0.227456 -0.119282 -0.013646
v -0.235254 -0.119287 -0.012397
v -0.319647 -0.178855 -0.016772
v -0.233796 -0.119286 -0.012631
v -0.241590 -0.119291 -0.011582
v -0.322559 -0.178857 -0.016505
v -0.240136 -0.119290 -0.011615
v -0.249362 -0.119295 -0.011476
v -0.326917 -0.178859 -0.016475
v -0.246457 -0.119294 -0.011473
v -0.267795 -0.119306 -0.011824
v -0.338529 -0.178865 -0.016818
v -0.259089 -0.119301 -0.011483
v -0.308527 -0.119327 -0.014849
v -0.358811 -0.178876 -0.019043
v -0.296951 -0.119321 -0.012966
v -0.335635 -0.119338 -0.022490
v -0.358734 -0.178874 -0.022259
v -0.347287 -0.119345 -0.021158
v -0.287906 -0.119309 -0.026878
v -0.338369 -0.178862 -0.023518
v -0.296619 -0.119314 -0.026951
v -0.255827 -0.119292 -0.026497
v -0.326755 -0.178856 -0.023309
v -0.258729 -0.119293 -0.026633
v -0.244660 -0.119286 -0.025940
v -0.322403 -0.178853 -0.023071
v -0.246110 -0.119286 -0.026042
v -0.238359 -0.119282 -0.025298
v -0.319507 -0.178852 -0.022667
v -0.239804 -0.119283 -0.025600
v -0.232074 -0.119280 -0.023982
v -0.316617 -0.178851 -0.022063
v -0.233519 -0.119280 -0.024285
v -0.225808 -0.119277 -0.021863
v -0.313745 -0.178850 -0.020653
v -0.227234 -0.119277 -0.022969
v -0.134692 -0.059708 -0.013294
v -0.144521 -0.059715 -0.009038
v -0.154285 -0.059722 -0.007474
v -0.164034 -0.059727 -0.006583
v -0.178628 -0.059736 -0.006481
v -0.217511 -0.059757 -0.007630
v -0.285428 -0.059791 -0.015081
v -0.285172 -0.059785 -0.025850
v -0.216978 -0.059745 -0.030066
v -0.178084 -0.059724 -0.029366
v -0.163512 -0.059716 -0.028571
v -0.153816 -0.059711 -0.027218
v -0.144137 -0.059707 -0.025192
v -0.134521 -0.059704 -0.020473
v -0.222642 0.119392 -0.017000
v -0.313995 0.178864 -0.018330
v -0.221164 0.119393 -0.018038
v -0.229046 0.119386 -0.013293
v -0.316930 0.178862 -0.017059
v -0.227588 0.119387 -0.013526
v -0.235387 0.119382 -0.012277
v -0.319846 0.178860 -0.016592
v -0.233929 0.119383 -0.012511
v -0.241722 0.119378 -0.011463
v -0.322757 0.178858 -0.016326
v -0.240269 0.119379 -0.011495
v -0.249494 0.119374 -0.011356
v -0.327116 0.178856 -0.016295
v -0.246589 0.119375 -0.011354
v -0.267928 0.119364 -0.011704
v -0.338727 0.178850 -0.016639
v -0.259221 0.119368 -0.011363
v -0.308659 0.119343 -0.014730
v -0.359009 0.178839 -0.018864
v -0.297084 0.119348 -0.012846
v -0.335768 0.119331 -0.022371
v -0.358933 0.178841 -0.022079
v -0.347420 0.119324 -0.021039
v -0.288038 0.119360 -0.026758
v -0.338568 0.178853 -0.023338
v -0.296751 0.119355 -0.026831
v -0.255959 0.119378 -0.026377
v -0.326953 0.178859 -0.023130
v -0.258861 0.119376 -0.026513
v -0.244793 0.119384 -0.025821
v -0.322601 0.178862 -0.022892
v -0.246243 0.119383 -0.025922
v -0.238491 0.119387 -0.025178
v -0.319706 0.178863 -0.022488
v -0.239937 0.119386 -0.025480
v -0.232206 0.119390 -0.023863
v -0.316815 0.178864 -0.021883
v -0.233652 0.119389 -0.024165
v -0.225940 0.119392 -0.021743
v -0.313944 0.178865 -0.020474
v -0.227367 0.119392 -0.022850
v -0.134758 0.059916 -0.013234
v -0.144587 0.059908 -0.008978
v -0.154352 0.059902 -0.007414
v -0.164101 0.059896 -0.006523
v -0.178695 0.059888 -0.006421
v -0.217578 0.059867 -0.007570
v -0.285494 0.059833 -0.015021
v -0.285238 0.059839 -0.025790
v -0.217044 0.059879 -0.030006
v -0.178151 0.059900 -0.029306
v -0.163578 0.059908 -0.028511
v -0.153882 0.059912 -0.027158
v -0.144203 0.059917 -0.025132
v -0.134587 0.059920 -0.020413
v 0.596779 -0.010834 -0.024735
v 0.564277 -0.023140 -0.020148
v 0.596913 -0.011767 -0.030352
v 0.596665 -0.008173 -0.019972
v 0.564029 -0.019547 -0.009768
v 0.596587 -0.004189 -0.016788
v 0.563836 -0.012902 -0.001821
v 0.596558 0.000511 -0.015669
v 0.563729 -0.004217 0.002482
v 0.596582 0.005213 -0.016784
v 0.563724 0.005185 0.002486
v 0.596655 0.009200 -0.019963
v 0.563821 0.013874 -0.001808
v 0.596767 0.011866 -0.024724
v 0.564006 0.020527 -0.009748
v 0.596900 0.012804 -0.030340
v 0.564251 0.024130 -0.020125
v 0.597034 0.011872 -0.035958
v 0.564518 0.024136 -0.031359
v 0.597148 0.009211 -0.040720
v 0.564767 0.020543 -0.041739
v 0.597226 0.005227 -0.043904
v 0.564959 0.013899 -0.049685
v 0.597255 0.000526 -0.045024
v 0.565066 0.005214 -0.053989
v 0.597231 -0.004176 -0.043909
v 0.565072 -0.004188 -0.053993
v 0.597158 -0.008163 -0.040729
v 0.564974 -0.012877 -0.049699
v 0.597046 -0.010829 -0.035969
v 0.564789 -0.019530 -0.041759
v 0.564544 -0.023134 -0.031382
v 0.516965 -0.028114 -0.012188
v 0.469692 -0.033495 -0.005931
v 0.517139 -0.029453 -0.019508
v 0.516681 -0.023362 -0.000364
v 0.469368 -0.028336 0.007596
v 0.516831 -0.027182 -0.006571
v 0.516465 -0.014982 0.008548
v 0.469117 -0.018797 0.017952
v 0.516566 -0.020701 0.004399
v 0.516348 -0.004249 0.013191
v 0.468977 -0.006329 0.023560
v 0.516387 -0.010998 0.011732
v 0.516350 0.007201 0.012858
v 0.468969 0.007170 0.023567
v 0.516319 0.000452 0.014311
v 0.516469 0.017627 0.007600
v 0.469095 0.019643 0.017972
v 0.516374 0.011903 0.011743
v 0.516688 0.025441 -0.001783
v 0.469336 0.029194 0.007625
v 0.516543 0.021614 0.004421
v 0.516973 0.029452 -0.013862
v 0.469655 0.034366 -0.005897
v 0.516800 0.028106 -0.006543
v 0.517281 0.029052 -0.026799
v 0.470003 0.034374 -0.020536
v 0.517106 0.030390 -0.019478
v 0.517564 0.024299 -0.038623
v 0.470327 0.029215 -0.034064
v 0.517415 0.028120 -0.032416
v 0.517781 0.015919 -0.047536
v 0.470578 0.019675 -0.044420
v 0.517679 0.021639 -0.043386
v 0.517897 0.005187 -0.052178
v 0.470718 0.007208 -0.050029
v 0.517859 0.011935 -0.050719
v 0.517895 -0.006264 -0.051846
v 0.470726 -0.006291 -0.050035
v 0.517926 0.000487 -0.053298
v 0.517776 -0.016689 -0.046587
v 0.470600 -0.018765 -0.044439
v 0.517871 -0.010966 -0.050731
v 0.517557 -0.024503 -0.037204
v 0.470359 -0.028315 -0.034092
v 0.517703 -0.020677 -0.043408
v 0.517272 -0.028515 -0.025125
v 0.470040 -0.033487 -0.020570
v 0.517445 -0.027169 -0.032444
v 0.439372 -0.036430 0.007014
v 0.409144 -0.039603 0.016122
v 0.439639 -0.038007 -0.004144
v 0.438970 -0.030590 0.023794
v 0.408651 -0.033524 0.036739
v 0.439198 -0.035091 0.014334
v 0.438667 -0.020029 0.036325
v 0.408269 -0.022282 0.052523
v 0.438821 -0.026770 0.030002
v 0.438508 -0.006355 0.042697
v 0.408058 -0.007587 0.061069
v 0.438565 -0.014309 0.040474
v 0.438518 0.008350 0.041941
v 0.408049 0.008323 0.061077
v 0.438470 0.000394 0.044156
v 0.438695 0.021846 0.034172
v 0.408244 0.023026 0.052546
v 0.438549 0.015099 0.040489
v 0.439013 0.032081 0.020573
v 0.408613 0.034285 0.036773
v 0.438791 0.027570 0.030029
v 0.439423 0.037496 0.003214
v 0.409099 0.040384 0.016162
v 0.439158 0.035908 0.014370
v 0.439862 0.037266 -0.015263
v 0.409630 0.040396 -0.006152
v 0.439596 0.038842 -0.004105
v 0.440264 0.031426 -0.032043
v 0.410123 0.034317 -0.026770
v 0.440037 0.035927 -0.022583
v 0.440568 0.020865 -0.044574
v 0.410504 0.023075 -0.042553
v 0.440414 0.027605 -0.038251
v 0.440726 0.007191 -0.050946
v 0.410716 0.008381 -0.051100
v 0.440669 0.015145 -0.048723
v 0.440716 -0.007513 -0.050190
v 0.410724 -0.007529 -0.051108
v 0.440765 0.000443 -0.052405
v 0.440539 -0.021011 -0.042421
v 0.410530 -0.022233 -0.042576
v 0.440686 -0.014263 -0.048738
v 0.440221 -0.031246 -0.028822
v 0.410161 -0.033492 -0.026804
v 0.440444 -0.026735 -0.038278
v 0.439812 -0.036660 -0.011462
v 0.409674 -0.039591 -0.006192
v 0.440076 -0.035072 -0.022618
v 0.377567 -0.043435 0.022361
v 0.346033 -0.047580 0.026833
v 0.377875 -0.045325 0.009436
v 0.377038 -0.036463 0.044478
v 0.345461 -0.040295 0.050718
v 0.377301 -0.041858 0.033519
v 0.376632 -0.023883 0.061263
v 0.345019 -0.026822 0.069002
v 0.376810 -0.031962 0.053938
v 0.376411 -0.007609 0.070162
v 0.344774 -0.009210 0.078903
v 0.376478 -0.017142 0.067587
v 0.376410 0.009880 0.069819
v 0.344763 0.009858 0.078912
v 0.376354 0.000345 0.072385
v 0.376628 0.025922 0.060287
v 0.344989 0.027479 0.069029
v 0.376458 0.017836 0.067604
v 0.377032 0.038076 0.043017
v 0.345416 0.040972 0.050759
v 0.376774 0.032670 0.053971
v 0.377560 0.044490 0.020638
v 0.345979 0.048281 0.026881
v 0.377254 0.042587 0.033561
v 0.378133 0.044189 -0.003443
v 0.346594 0.048295 0.001033
v 0.377825 0.046078 0.009482
v 0.378662 0.037217 -0.025560
v 0.347165 0.041010 -0.022852
v 0.378399 0.042612 -0.014601
v 0.379068 0.024637 -0.042346
v 0.347607 0.027536 -0.041136
v 0.378890 0.032715 -0.035021
v 0.379289 0.008363 -0.051244
v 0.347852 0.009925 -0.051036
v 0.379222 0.017896 -0.048668
v 0.379290 -0.009126 -0.050901
v 0.347863 -0.009143 -0.051046
v 0.379346 0.000410 -0.053468
v 0.379072 -0.025169 -0.041369
v 0.347637 -0.026765 -0.041163
v 0.379242 -0.017082 -0.048686
v 0.378668 -0.037322 -0.024099
v 0.347210 -0.040258 -0.022892
v 0.378926 -0.031916 -0.035053
v 0.378140 -0.043736 -0.001720
v 0.346647 -0.047567 0.000985
v 0.378446 -0.041833 -0.014643
v 0.285471 -0.050385 0.026079
v 0.224913 -0.053418 0.025231
v 0.285782 -0.052503 0.013060
v 0.284897 -0.042450 0.050044
v 0.224336 -0.045255 0.049290
v 0.285163 -0.048495 0.039005
v 0.284454 -0.028003 0.068382
v 0.223890 -0.030158 0.067708
v 0.284634 -0.037055 0.061003
v 0.284208 -0.009243 0.078302
v 0.223643 -0.010425 0.077682
v 0.284275 -0.019924 0.075707
v 0.284197 0.010973 0.078293
v 0.223631 0.010939 0.077693
v 0.284141 0.000289 0.080877
v 0.284423 0.029568 0.068358
v 0.223857 0.030682 0.067739
v 0.284253 0.020508 0.075727
v 0.284852 0.043711 0.050007
v 0.224286 0.045799 0.049336
v 0.284593 0.037654 0.061041
v 0.285417 0.051249 0.026036
v 0.224853 0.053987 0.025285
v 0.285109 0.049117 0.039054
v 0.286034 0.051033 0.000094
v 0.225472 0.054000 -0.000751
v 0.285723 0.053151 0.013113
v 0.286608 0.043098 -0.023871
v 0.226048 0.045837 -0.024810
v 0.286342 0.049144 -0.012831
v 0.287052 0.028651 -0.042209
v 0.226494 0.030739 -0.043228
v 0.286871 0.037703 -0.034830
v 0.287298 0.009892 -0.052128
v 0.226742 0.011007 -0.053202
v 0.287230 0.020572 -0.049534
v 0.287308 -0.010324 -0.052120
v 0.226754 -0.010358 -0.053212
v 0.287364 0.000359 -0.054704
v 0.287082 -0.028919 -0.042184
v 0.226528 -0.030101 -0.043259
v 0.287253 -0.019860 -0.049554
v 0.286654 -0.043062 -0.023834
v 0.226099 -0.045217 -0.024856
v 0.286913 -0.037006 -0.034868
v 0.286088 -0.050600 0.000137
v 0.225532 -0.053405 -0.000805
v 0.286396 -0.048468 -0.012880
v 0.190727 -0.058596 0.019035
v 0.156504 -0.064199 0.014428
v 0.191000 -0.061140 0.007604
v 0.190182 -0.049221 0.041749
v 0.155997 -0.054398 0.035553
v 0.190417 -0.056477 0.032055
v 0.189757 -0.032310 0.059268
v 0.155602 -0.036276 0.051727
v 0.189917 -0.043176 0.052788
v 0.189515 -0.010439 0.068927
v 0.155381 -0.012592 0.060487
v 0.189576 -0.023259 0.066647
v 0.189495 0.013062 0.069255
v 0.155367 0.013048 0.060500
v 0.189448 0.000242 0.071522
v 0.189698 0.034617 0.060201
v 0.155562 0.036741 0.051763
v 0.189550 0.023746 0.066671
v 0.190095 0.050945 0.043145
v 0.155936 0.054880 0.035608
v 0.189868 0.043677 0.052832
v 0.190624 0.059557 0.020683
v 0.156433 0.064702 0.014493
v 0.190354 0.057001 0.032112
v 0.191205 0.059144 -0.003765
v 0.156976 0.064714 -0.008367
v 0.190932 0.061688 0.007666
v 0.191750 0.049769 -0.026479
v 0.157483 0.054913 -0.029493
v 0.191516 0.057026 -0.016785
v 0.192176 0.032859 -0.043998
v 0.157878 0.036791 -0.045667
v 0.192016 0.043724 -0.037518
v 0.192417 0.010988 -0.053657
v 0.158099 0.013107 -0.054427
v 0.192356 0.023806 -0.051377
v 0.192438 -0.012514 -0.053984
v 0.158113 -0.012533 -0.054439
v 0.192485 0.000307 -0.056251
v 0.192234 -0.034070 -0.044931
v 0.157918 -0.036226 -0.045703
v 0.192382 -0.023198 -0.051400
v 0.191838 -0.050396 -0.027875
v 0.157544 -0.054365 -0.029547
v 0.192064 -0.043129 -0.037561
v 0.191309 -0.059008 -0.005413
v 0.157047 -0.064188 -0.008432
v 0.191579 -0.056452 -0.016841
v 0.028348 -0.058468 0.007425
v -0.099835 -0.052260 0.001573
v 0.028594 -0.060535 -0.002855
v 0.027865 -0.050027 0.027573
v -0.100291 -0.044296 0.020570
v 0.028075 -0.055924 0.018856
v 0.027487 -0.033941 0.043094
v -0.100644 -0.029570 0.035114
v 0.027631 -0.042770 0.037267
v 0.027273 -0.012659 0.051624
v -0.100842 -0.010324 0.042991
v 0.027327 -0.023076 0.049574
v 0.027255 0.010579 0.051864
v -0.100854 0.010512 0.043001
v 0.027212 0.000160 0.053904
v 0.027435 0.032235 0.043779
v -0.100677 0.029766 0.035143
v 0.027302 0.023400 0.049597
v 0.027787 0.049013 0.028599
v -0.100340 0.044508 0.020614
v 0.027583 0.043107 0.037310
v 0.028256 0.058358 0.008634
v -0.099893 0.052491 0.001625
v 0.028013 0.056280 0.018912
v 0.028772 0.058846 -0.013075
v -0.099404 0.052502 -0.018933
v 0.028527 0.060913 -0.002794
v 0.029256 0.050405 -0.033223
v -0.098948 0.044538 -0.037931
v 0.029045 0.056303 -0.024506
v 0.029633 0.034319 -0.048744
v -0.098595 0.029811 -0.052475
v 0.029490 0.043148 -0.042917
v 0.029847 0.013037 -0.057275
v -0.098397 0.010566 -0.060352
v 0.029793 0.023454 -0.055224
v 0.029866 -0.010201 -0.057515
v -0.098385 -0.010270 -0.060363
v 0.029909 0.000219 -0.059554
v 0.029685 -0.031857 -0.049430
v -0.098562 -0.029525 -0.052505
v 0.029819 -0.023022 -0.055248
v 0.029334 -0.048635 -0.034249
v -0.098899 -0.044266 -0.037975
v 0.029538 -0.042729 -0.042960
v 0.028864 -0.057979 -0.014284
v -0.099346 -0.052250 -0.018986
v 0.029107 -0.055902 -0.024562
v -0.163236 -0.038700 -0.009471
v -0.226744 -0.024023 -0.016060
v -0.163097 -0.039650 -0.015297
v -0.163601 -0.033923 0.005749
v -0.227002 -0.020363 -0.005295
v -0.163482 -0.036633 0.000809
v -0.163892 -0.023967 0.017768
v -0.227202 -0.013594 0.002947
v -0.163811 -0.028026 0.014466
v -0.164065 -0.010350 0.024756
v -0.227312 -0.004747 0.007410
v -0.164035 -0.015138 0.023595
v -0.164095 0.004857 0.025650
v -0.227318 0.004831 0.007415
v -0.164120 0.000068 0.026806
v -0.163976 0.019338 0.020312
v -0.227217 0.013683 0.002961
v -0.164052 0.015276 0.023610
v -0.163726 0.030888 0.009557
v -0.227025 0.020459 -0.005274
v -0.163842 0.028173 0.014494
v -0.163385 0.037750 -0.004979
v -0.226771 0.024131 -0.016036
v -0.163522 0.036794 0.000846
v -0.163002 0.038878 -0.021083
v -0.226494 0.024137 -0.027687
v -0.163141 0.039828 -0.015257
v -0.162638 0.034100 -0.036303
v -0.226236 0.020477 -0.038452
v -0.162757 0.036811 -0.031363
v -0.162347 0.024145 -0.048322
v -0.226036 0.013708 -0.046694
v -0.162428 0.028203 -0.045020
v -0.162173 0.010528 -0.055310
v -0.225926 0.004862 -0.051157
v -0.162204 0.015316 -0.054149
v -0.162144 -0.004679 -0.056204
v -0.225920 -0.004717 -0.051161
v -0.162119 0.000111 -0.057360
v -0.162263 -0.019160 -0.050866
v -0.226021 -0.013568 -0.046707
v -0.162187 -0.015098 -0.054164
v -0.162512 -0.030711 -0.040111
v -0.226213 -0.020346 -0.038473
v -0.162396 -0.027995 -0.045048
v -0.162854 -0.037572 -0.025575
v -0.226467 -0.024017 -0.027711
v -0.162716 -0.036617 -0.031400
v -0.224625 -0.014636 -0.036764
v -0.222618 -0.004480 -0.052731
v -0.224599 -0.014815 -0.037853
v -0.224786 -0.013174 -0.030015
v -0.222666 -0.003787 -0.050719
v -0.224764 -0.013687 -0.030938
v -0.224920 -0.009696 -0.024458
v -0.222704 -0.002507 -0.049179
v -0.224905 -0.010464 -0.025075
v -0.225006 -0.004731 -0.020939
v -0.222724 -0.000833 -0.048345
v -0.225001 -0.005637 -0.021156
v -0.225032 0.000963 -0.019995
v -0.222725 0.000978 -0.048344
v -0.225036 0.000057 -0.019778
v -0.224993 0.006521 -0.021767
v -0.222707 0.002652 -0.049176
v -0.225007 0.005753 -0.021151
v -0.224895 0.011096 -0.025987
v -0.222671 0.003934 -0.050715
v -0.224916 0.010582 -0.025065
v -0.224753 0.013992 -0.032013
v -0.222623 0.004629 -0.052727
v -0.224779 0.013811 -0.030925
v -0.224589 0.014769 -0.038927
v -0.222571 0.004630 -0.054904
v -0.224615 0.014948 -0.037838
v -0.224428 0.013306 -0.045675
v -0.222523 0.003938 -0.056915
v -0.224450 0.013819 -0.044752
v -0.224294 0.009828 -0.051232
v -0.222486 0.002657 -0.058455
v -0.224309 0.010595 -0.050615
v -0.224208 0.004864 -0.054751
v -0.222465 0.000984 -0.059290
v -0.224213 0.005770 -0.054534
v -0.224182 -0.000831 -0.055696
v -0.222464 -0.000828 -0.059291
v -0.224177 0.000076 -0.055912
v -0.224221 -0.006388 -0.053923
v -0.222483 -0.002502 -0.058458
v -0.224207 -0.005620 -0.054540
v -0.224319 -0.010964 -0.049703
v -0.222519 -0.003784 -0.056919
v -0.224297 -0.010450 -0.050626
v -0.224461 -0.013860 -0.043678
v -0.222566 -0.004478 -0.054908
v -0.224435 -0.013680 -0.044766
v -0.267580 -0.004660 -0.049942
v -0.312543 -0.004854 -0.047095
v -0.267556 -0.004853 -0.050973
v -0.267627 -0.003932 -0.047979
v -0.312589 -0.004113 -0.045190
v -0.267606 -0.004481 -0.048853
v -0.267664 -0.002597 -0.046472
v -0.312625 -0.002742 -0.043732
v -0.267649 -0.003419 -0.047056
v -0.267684 -0.000860 -0.045649
v -0.312644 -0.000950 -0.042942
v -0.267679 -0.001829 -0.045855
v -0.267686 0.001016 -0.045637
v -0.312645 0.000990 -0.042941
v -0.267690 0.000046 -0.045432
v -0.267667 0.002744 -0.046436
v -0.312628 0.002782 -0.043729
v -0.267681 0.001922 -0.045853
v -0.267633 0.004062 -0.047926
v -0.312594 0.004154 -0.045186
v -0.267653 0.003513 -0.047052
v -0.267587 0.004769 -0.049880
v -0.312549 0.004897 -0.047090
v -0.267611 0.004576 -0.048849
v -0.267536 0.004758 -0.051999
v -0.312500 0.004898 -0.049152
v -0.267561 0.004950 -0.050968
v -0.267489 0.004029 -0.053962
v -0.312454 0.004157 -0.051057
v -0.267510 0.004578 -0.053087
v -0.267453 0.002695 -0.055469
v -0.312419 0.002787 -0.052515
v -0.267467 0.003517 -0.054885
v -0.267432 0.000958 -0.056292
v -0.312399 0.000995 -0.053306
v -0.267438 0.001927 -0.056086
v -0.267431 -0.000918 -0.056304
v -0.312398 -0.000944 -0.053307
v -0.267427 0.000052 -0.056509
v -0.267449 -0.002647 -0.055504
v -0.312416 -0.002737 -0.052518
v -0.267436 -0.001824 -0.056088
v -0.267484 -0.003965 -0.054014
v -0.312450 -0.004110 -0.051061
v -0.267463 -0.003415 -0.054888
v -0.267530 -0.004672 -0.052062
v -0.312494 -0.004853 -0.049157
v -0.267505 -0.004479 -0.053092
v -0.051651 -0.079359 -0.001156
v -0.171100 -0.079429 0.004904
v -0.051231 -0.086773 -0.018650
v -0.052101 -0.054027 0.017220
v -0.171702 -0.054100 0.029652
v -0.051919 -0.071943 0.009967
v -0.052059 -0.018187 0.014599
v -0.171722 -0.018261 0.029669
v -0.052221 -0.036110 0.021834
v -0.051547 0.007167 -0.007484
v -0.171148 0.007094 0.004947
v -0.051959 -0.000265 0.010003
v -0.050867 0.007182 -0.036093
v -0.170316 0.007112 -0.030033
v -0.051287 0.014595 -0.018599
v -0.050417 -0.018151 -0.054470
v -0.169714 -0.018217 -0.054781
v -0.050599 -0.000235 -0.047216
v -0.050460 -0.053992 -0.051849
v -0.169695 -0.054056 -0.054799
v -0.050297 -0.036069 -0.059085
v -0.050971 -0.079345 -0.029765
v -0.170268 -0.079411 -0.030077
v -0.050559 -0.071913 -0.047252
v -0.237914 -0.076090 -0.000011
v -0.304800 -0.071354 -0.001947
v -0.237566 -0.082107 -0.014525
v -0.238485 -0.054134 0.023500
v -0.305299 -0.050794 0.018585
v -0.238334 -0.068676 0.017483
v -0.238532 -0.021670 0.024751
v -0.305315 -0.021704 0.018599
v -0.238667 -0.036218 0.030754
v -0.238029 0.002286 0.003008
v -0.304839 -0.001123 -0.001911
v -0.238370 -0.003746 0.017515
v -0.237269 0.003700 -0.028993
v -0.304149 -0.001108 -0.030933
v -0.237617 0.009718 -0.014479
v -0.236698 -0.018256 -0.052505
v -0.303650 -0.021668 -0.051465
v -0.236849 -0.003713 -0.046487
v -0.236650 -0.050720 -0.053755
v -0.303634 -0.050758 -0.051479
v -0.236516 -0.036172 -0.059759
v -0.237154 -0.074675 -0.032012
v -0.304110 -0.071339 -0.030968
v -0.236813 -0.068643 -0.046520
v -0.319812 -0.066071 -0.004939
v -0.334933 -0.058601 -0.003386
v -0.319573 -0.069900 -0.014908
v -0.320264 -0.050800 0.013708
v -0.335276 -0.045518 0.010716
v -0.320160 -0.060054 0.009575
v -0.320322 -0.026999 0.015602
v -0.335286 -0.027005 0.010725
v -0.320415 -0.036258 0.019726
v -0.319952 -0.008612 -0.000366
v -0.334958 -0.013907 -0.003364
v -0.320187 -0.012451 0.009599
v -0.319371 -0.006408 -0.024842
v -0.334484 -0.013897 -0.023297
v -0.319610 -0.002579 -0.014874
v -0.318920 -0.021680 -0.043489
v -0.334142 -0.026980 -0.037399
v -0.319023 -0.012426 -0.039356
v -0.318862 -0.045481 -0.045383
v -0.334132 -0.045493 -0.037408
v -0.318769 -0.036222 -0.049507
v -0.319232 -0.063868 -0.029415
v -0.334460 -0.058590 -0.023320
v -0.318997 -0.060029 -0.039380
v 0.067950 -0.079287 -0.013588
v 0.067562 -0.053953 0.002149
v 0.067542 -0.018114 0.002167
v 0.067902 0.007236 -0.013544
v 0.068430 0.007248 -0.035782
v 0.068818 -0.018086 -0.051520
v 0.068838 -0.053925 -0.051537
v 0.068478 -0.079275 -0.035825
v -0.313731 -0.045499 -0.002489
v -0.313492 -0.049328 -0.012457
v -0.313834 -0.036245 0.001645
v -0.313741 -0.026987 -0.002479
v -0.313507 -0.023147 -0.012444
v -0.313268 -0.026976 -0.022412
v -0.313164 -0.036231 -0.026546
v -0.313257 -0.045489 -0.022422
v -0.051691 -0.006876 -0.001120
v -0.171140 -0.006945 0.004940
v -0.051271 -0.014289 -0.018614
v -0.052142 0.018457 0.017256
v -0.171742 0.018384 0.029688
v -0.051959 0.000541 0.010003
v -0.052099 0.054297 0.014635
v -0.171762 0.054223 0.029706
v -0.052261 0.036374 0.021871
v -0.051588 0.079651 -0.007448
v -0.171188 0.079578 0.004984
v -0.051999 0.072219 0.010039
v -0.050908 0.079666 -0.036057
v -0.170357 0.079596 -0.029997
v -0.051328 0.087079 -0.018563
v -0.050457 0.054333 -0.054434
v -0.169755 0.054267 -0.054745
v -0.050639 0.072249 -0.047180
v -0.050500 0.018492 -0.051813
v -0.169735 0.018428 -0.054763
v -0.050338 0.036415 -0.059048
v -0.051011 -0.006861 -0.029729
v -0.170309 -0.006927 -0.030040
v -0.050599 0.000571 -0.047216
v -0.237954 -0.003606 0.000025
v -0.304840 0.001129 -0.001910
v -0.237606 -0.009623 -0.014489
v -0.238525 0.018350 0.023537
v -0.305340 0.021689 0.018621
v -0.238374 0.003808 0.017519
v -0.238573 0.050814 0.024787
v -0.305356 0.050780 0.018636
v -0.238707 0.036266 0.030790
v -0.238069 0.074770 0.003044
v -0.304879 0.071361 -0.001875
v -0.238410 0.068738 0.017552
v -0.237309 0.076184 -0.028957
v -0.304190 0.071376 -0.030896
v -0.237657 0.082202 -0.014443
v -0.236738 0.054228 -0.052469
v -0.303690 0.050816 -0.051428
v -0.236889 0.068771 -0.046451
v -0.236691 0.021764 -0.053719
v -0.303674 0.021725 -0.051443
v -0.236556 0.036312 -0.059723
v -0.237195 -0.002192 -0.031976
v -0.304151 0.001144 -0.030932
v -0.236853 0.003841 -0.046483
v -0.319852 0.006412 -0.004903
v -0.334974 0.013883 -0.003350
v -0.319613 0.002583 -0.014871
v -0.320304 0.021684 0.013744
v -0.335316 0.026966 0.010752
v -0.320201 0.012430 0.009611
v -0.320362 0.045484 0.015638
v -0.335326 0.045479 0.010761
v -0.320455 0.036226 0.019762
v -0.319992 0.063872 -0.000330
v -0.334998 0.058576 -0.003328
v -0.320227 0.060033 0.009635
v -0.319412 0.066076 -0.024806
v -0.334525 0.058586 -0.023261
v -0.319651 0.069904 -0.014838
v -0.318960 0.050804 -0.043453
v -0.334182 0.045503 -0.037362
v -0.319063 0.060058 -0.039320
v -0.318902 0.027003 -0.045347
v -0.334172 0.026991 -0.037372
v -0.318809 0.036261 -0.049471
v -0.319272 0.008616 -0.029379
v -0.334500 0.013893 -0.023283
v -0.319037 0.012455 -0.039344
v 0.067909 -0.006803 -0.013551
v 0.067522 0.018531 0.002186
v 0.067502 0.054370 0.002204
v 0.067861 0.079720 -0.013508
v 0.068390 0.079732 -0.035746
v 0.068778 0.054397 -0.051483
v 0.068798 0.018558 -0.051501
v 0.068438 -0.006792 -0.035789
v -0.313771 0.026985 -0.002452
v -0.313532 0.023156 -0.012421
v -0.313875 0.036239 0.001681
v -0.313782 0.045497 -0.002443
v -0.313547 0.049336 -0.012408
v -0.313308 0.045507 -0.022376
v -0.313205 0.036253 -0.026509
v -0.313298 0.026995 -0.022385
v -0.131695 -0.090692 0.082004
v -0.219021 -0.121190 0.162041
v -0.130162 -0.089747 0.082041
v -0.138049 -0.093900 0.081852
v -0.222087 -0.122371 0.161967
v -0.136517 -0.093664 0.081888
v -0.144406 -0.094882 0.081700
v -0.225152 -0.122844 0.161894
v -0.142872 -0.094645 0.081737
v -0.150762 -0.095687 0.081549
v -0.228218 -0.123141 0.161821
v -0.149229 -0.095627 0.081585
v -0.158651 -0.095936 0.081361
v -0.232816 -0.123261 0.161712
v -0.155585 -0.095875 0.081434
v -0.177497 -0.096013 0.080913
v -0.245080 -0.123209 0.161420
v -0.168299 -0.096126 0.081132
v -0.218703 -0.094250 0.079934
v -0.266542 -0.121688 0.160911
v -0.206439 -0.095658 0.080225
v -0.245033 -0.088394 0.079312
v -0.266544 -0.118857 0.160912
v -0.257296 -0.089816 0.079019
v -0.197248 -0.083796 0.080450
v -0.245083 -0.117312 0.161423
v -0.206445 -0.083920 0.080231
v -0.165240 -0.083467 0.081211
v -0.232820 -0.117246 0.161715
v -0.168306 -0.083409 0.081138
v -0.154060 -0.083706 0.081476
v -0.228221 -0.117362 0.161824
v -0.155592 -0.083647 0.081440
v -0.147702 -0.084124 0.081627
v -0.225155 -0.117655 0.161897
v -0.149236 -0.083889 0.081591
v -0.141345 -0.085098 0.081778
v -0.222089 -0.118125 0.161969
v -0.142878 -0.084863 0.081742
v -0.134987 -0.086780 0.081928
v -0.219022 -0.119303 0.162041
v -0.136521 -0.085838 0.081892
v -0.047657 -0.062221 0.001889
v -0.057303 -0.065938 0.001658
v -0.066950 -0.067428 0.001428
v -0.076597 -0.068361 0.001198
v -0.091068 -0.068740 0.000854
v -0.129658 -0.068575 -0.000063
v -0.197193 -0.063787 -0.001666
v -0.197198 -0.054879 -0.001662
v -0.129668 -0.050018 -0.000054
v -0.091078 -0.049811 0.000863
v -0.076607 -0.050174 0.001207
v -0.066959 -0.051097 0.001436
v -0.057310 -0.052576 0.001665
v -0.047661 -0.056282 0.001892
v -0.131795 0.088919 0.082094
v -0.219155 0.119241 0.162161
v -0.130262 0.089864 0.082131
v -0.138149 0.085711 0.081942
v -0.222220 0.118059 0.162088
v -0.136616 0.085948 0.081978
v -0.144505 0.084729 0.081790
v -0.225286 0.117586 0.162015
v -0.142972 0.084966 0.081827
v -0.150862 0.083925 0.081639
v -0.228351 0.117290 0.161941
v -0.149329 0.083985 0.081675
v -0.158751 0.083676 0.081451
v -0.232950 0.117169 0.161832
v -0.155685 0.083737 0.081524
v -0.177596 0.083598 0.081003
v -0.245214 0.117222 0.161541
v -0.168399 0.083485 0.081222
v -0.218803 0.085362 0.080025
v -0.266676 0.118743 0.161031
v -0.206539 0.083953 0.080315
v -0.245133 0.091217 0.079402
v -0.266677 0.121574 0.161033
v -0.257396 0.089795 0.079109
v -0.197348 0.095815 0.080540
v -0.245217 0.123119 0.161544
v -0.206545 0.095692 0.080321
v -0.165340 0.096144 0.081301
v -0.232953 0.123184 0.161835
v -0.168406 0.096202 0.081228
v -0.154159 0.095906 0.081566
v -0.228355 0.123069 0.161944
v -0.155692 0.095964 0.081530
v -0.147802 0.095488 0.081717
v -0.225289 0.122776 0.162017
v -0.149336 0.095723 0.081681
v -0.141445 0.094513 0.081868
v -0.222222 0.122306 0.162090
v -0.142978 0.094749 0.081832
v -0.135087 0.092831 0.082018
v -0.219156 0.121128 0.162162
v -0.136621 0.093773 0.081982
v -0.047723 0.056571 0.001949
v -0.057369 0.052854 0.001717
v -0.067015 0.051364 0.001487
v -0.076663 0.050431 0.001258
v -0.091134 0.050052 0.000913
v -0.129724 0.050217 -0.000004
v -0.197259 0.055005 -0.001606
v -0.197264 0.063913 -0.001602
v -0.129734 0.068775 0.000006
v -0.091144 0.068982 0.000923
v -0.076673 0.068618 0.001267
v -0.067025 0.067696 0.001496
v -0.057376 0.066216 0.001724
v -0.047727 0.062510 0.001952
v 0.229408 -0.009678 -0.000742
v 0.199485 -0.009694 -0.001453
v 0.199476 0.005272 -0.001445
v 0.199493 -0.024659 -0.001460
v 0.169561 -0.009710 -0.002164
v 0.198884 0.005259 0.023490
v 0.198291 0.005246 0.048426
v 0.228807 0.005275 0.024201
v 0.168960 0.005243 0.022779
v 0.228815 -0.009690 0.024194
v 0.228222 -0.009703 0.049130
v 0.228823 -0.024656 0.024186
v 0.198307 -0.024685 0.048411
v 0.198900 -0.024672 0.023475
v 0.168977 -0.024689 0.022764
v 0.168969 -0.009723 0.022771
v 0.168376 -0.009736 0.047707
v 0.198299 -0.009720 0.048418
f 1 432 434
f 432 2 433
f 433 3 434
f 432 433 434
f 4 435 437
f 435 5 436
f 436 2 437
f 435 436 437
f 6 438 440
f 438 7 439
f 439 5 440
f 438 439 440
f 8 441 443
f 441 9 442
f 442 7 443
f 441 442 443
f 10 444 446
f 444 11 445
f 445 9 446
f 444 445 446
f 12 447 449
f 447 13 448
f 448 11 449
f 447 448 449
f 14 450 452
f 450 15 451
f 451 13 452
f 450 451 452
f 16 453 455
f 453 17 454
f 454 15 455
f 453 454 455
f 18 456 458
f 456 19 457
f 457 17 458
f 456 457 458
f 20 459 461
f 459 21 460
f 460 19 461
f 459 460 461
f 22 462 464
f 462 23 463
f 463 21 464
f 462 463 464
f 24 465 467
f 465 25 466
f 466 23 467
f 465 466 467
f 26 468 470
f 468 27 469
f 469 25 470
f 468 469 470
f 28 471 473
f 471 3 472
f 472 27 473
f 471 472 473
f 1 474 432
f 474 4 437
f 437 2 432
f 474 437 432
f 4 475 435
f 475 6 440
f 440 5 435
f 475 440 435
f 6 476 438
f 476 8 443
f 443 7 438
f 476 443 438
f 8 477 441
f 477 10 446
f 446 9 441
f 477 446 441
f 10 478 444
f 478 12 449
f 449 11 444
f 478 449 444
f 12 479 447
f 479 14 452
f 452 13 447
f 479 452 447
f 14 480 450
f 480 16 455
f 455 15 450
f 480 455 450
f 16 481 453
f 481 18 458
f 458 17 453
f 481 458 453
f 18 482 456
f 482 20 461
f 461 19 456
f 482 461 456
f 20 483 459
f 483 22 464
f 464 21 459
f 483 464 459
f 22 484 462
f 484 24 467
f 467 23 462
f 484 467 462
f 24 485 465
f 485 26 470
f 470 25 465
f 485 470 465
f 26 486 468
f 486 28 473
f 473 27 468
f 486 473 468
f 28 487 471
f 487 1 434
f 434 3 471
f 487 434 471
f 29 488 490
f 488 30 489
f 489 31 490
f 488 489 490
f 32 491 493
f 491 33 492
f 492 30 493
f 491 492 493
f 34 494 496
f 494 35 495
f 495 33 496
f 494 495 496
f 36 497 499
f 497 37 498
f 498 35 499
f 497 498 499
f 38 500 502
f 500 39 501
f 501 37 502
f 500 501 502
f 40 503 505
f 503 41 504
f 504 39 505
f 503 504 505
f 42 506 508
f 506 43 507
f 507 41 508
f 506 507 508
f 44 509 511
f 509 45 510
f 510 43 511
f 509 510 511
f 46 512 514
f 512 47 513
f 513 45 514
f 512 513 514
f 48 515 517
f 515 49 516
f 516 47 517
f 515 516 517
f 50 518 520
f 518 51 519
f 519 49 520
f 518 519 520
f 52 521 523
f 521 53 522
f 522 51 523
f 521 522 523
f 54 524 526
f 524 55 525
f 525 53 526
f 524 525 526
f 56 527 529
f 527 31 528
f 528 55 529
f 527 528 529
f 29 530 488
f 530 32 493
f 493 30 488
f 530 493 488
f 32 531 491
f 531 34 496
f 496 33 491
f 531 496 491
f 34 532 494
f 532 36 499
f 499 35 494
f 532 499 494
f 36 533 497
f 533 38 502
f 502 37 497
f 533 502 497
f 38 534 500
f 534 40 505
f 505 39 500
f 534 505 500
f 40 535 503
f 535 42 508
f 508 41 503
f 535 508 503
f 42 536 506
f 536 44 511
f 511 43 506
f 536 511 506
f 44 537 509
f 537 46 514
f 514 45 509
f 537 514 509
f 46 538 512
f 538 48 517
f 517 47 512
f 538 517 512
f 48 539 515
f 539 50 520
f 520 49 515
f 539 520 515
f 50 540 518
f 540 52 523
f 523 51 518
f 540 523 518
f 52 541 521
f 541 54 526
f 526 53 521
f 541 526 521
f 54 542 524
f 542 56 529
f 529 55 524
f 542 529 524
f 56 543 527
f 543 29 490
f 490 31 527
f 543 490 527
f 3 544 546
f 544 57 545
f 545 58 546
f 544 545 546
f 2 547 549
f 547 59 548
f 548 57 549
f 547 548 549
f 5 550 552
f 550 60 551
f 551 59 552
f 550 551 552
f 7 553 555
f 553 61 554
f 554 60 555
f 553 554 555
f 9 556 558
f 556 62 557
f 557 61 558
f 556 557 558
f 11 559 561
f 559 63 560
f 560 62 561
f 559 560 561
f 13 562 564
f 562 64 563
f 563 63 564
f 562 563 564
f 15 565 567
f 565 65 566
f 566 64 567
f 565 566 567
f 17 568 570
f 568 66 569
f 569 65 570
f 568 569 570
f 19 571 573
f 571 67 572
f 572 66 573
f 571 572 573
f 21 574 576
f 574 68 575
f 575 67 576
f 574 575 576
f 23 577 579
f 577 69 578
f 578 68 579
f 577 578 579
f 25 580 582
f 580 70 581
f 581 69 582
f 580 581 582
f 27 583 585
f 583 58 584
f 584 70 585
f 583 584 585
f 3 433 544
f 433 2 549
f 549 57 544
f 433 549 544
f 2 436 547
f 436 5 552
f 552 59 547
f 436 552 547
f 5 439 550
f 439 7 555
f 555 60 550
f 439 555 550
f 7 442 553
f 442 9 558
f 558 61 553
f 442 558 553
f 9 445 556
f 445 11 561
f 561 62 556
f 445 561 556
f 11 448 559
f 448 13 564
f 564 63 559
f 448 564 559
f 13 451 562
f 451 15 567
f 567 64 562
f 451 567 562
f 15 454 565
f 454 17 570
f 570 65 565
f 454 570 565
f 17 457 568
f 457 19 573
f 573 66 568
f 457 573 568
f 19 460 571
f 460 21 576
f 576 67 571
f 460 576 571
f 21 463 574
f 463 23 579
f 579 68 574
f 463 579 574
f 23 466 577
f 466 25 582
f 582 69 577
f 466 582 577
f 25 469 580
f 469 27 585
f 585 70 580
f 469 585 580
f 27 472 583
f 472 3 546
f 546 58 583
f 472 546 583
f 31 586 588
f 586 71 587
f 587 72 588
f 586 587 588
f 30 589 591
f 589 73 590
f 590 71 591
f 589 590 591
f 33 592 594
f 592 74 593
f 593 73 594
f 592 593 594
f 35 595 597
f 595 75 596
f 596 74 597
f 595 596 597
f 37 598 600
f 598 76 599
f 599 75 600
f 598 599 600
f 39 601 603
f 601 77 602
f 602 76 603
f 601 602 603
f 41 604 606
f 604 78 605
f 605 77 606
f 604 605 606
f 43 607 609
f 607 79 608
f 608 78 609
f 607 608 609
f 45 610 612
f 610 80 611
f 611 79 612
f 610 611 612
f 47 613 615
f 613 81 614
f 614 80 615
f 613 614 615
f 49 616 618
f 616 82 617
f 617 81 618
f 616 617 618
f 51 619 621
f 619 83 620
f 620 82 621
f 619 620 621
f 53 622 624
f 622 84 623
f 623 83 624
f 622 623 624
f 55 625 627
f 625 72 626
f 626 84 627
f 625 626 627
f 31 489 586
f 489 30 591
f 591 71 586
f 489 591 586
f 30 492 589
f 492 33 594
f 594 73 589
f 492 594 589
f 33 495 592
f 495 35 597
f 597 74 592
f 495 597 592
f 35 498 595
f 498 37 600
f 600 75 595
f 498 600 595
f 37 501 598
f 501 39 603
f 603 76 598
f 501 603 598
f 39 504 601
f 504 41 606
f 606 77 601
f 504 606 601
f 41 507 604
f 507 43 609
f 609 78 604
f 507 609 604
f 43 510 607
f 510 45 612
f 612 79 607
f 510 612 607
f 45 513 610
f 513 47 615
f 615 80 610
f 513 615 610
f 47 516 613
f 516 49 618
f 618 81 613
f 516 618 613
f 49 519 616
f 519 51 621
f 621 82 616
f 519 621 616
f 51 522 619
f 522 53 624
f 624 83 619
f 522 624 619
f 53 525 622
f 525 55 627
f 627 84 622
f 525 627 622
f 55 528 625
f 528 31 588
f 588 72 625
f 528 588 625
f 85 628 630
f 628 86 629
f 629 87 630
f 628 629 630
f 88 631 633
f 631 89 632
f 632 86 633
f 631 632 633
f 90 634 636
f 634 91 635
f 635 89 636
f 634 635 636
f 92 637 639
f 637 93 638
f 638 91 639
f 637 638 639
f 94 640 642
f 640 95 641
f 641 93 642
f 640 641 642
f 96 643 645
f 643 97 644
f 644 95 645
f 643 644 645
f 98 646 648
f 646 99 647
f 647 97 648
f 646 647 648
f 100 649 651
f 649 101 650
f 650 99 651
f 649 650 651
f 102 652 654
f 652 103 653
f 653 101 654
f 652 653 654
f 104 655 657
f 655 105 656
f 656 103 657
f 655 656 657
f 106 658 660
f 658 107 659
f 659 105 660
f 658 659 660
f 108 661 663
f 661 109 662
f 662 107 663
f 661 662 663
f 110 664 666
f 664 111 665
f 665 109 666
f 664 665 666
f 112 667 669
f 667 87 668
f 668 111 669
f 667 668 669
f 85 670 628
f 670 88 633
f 633 86 628
f 670 633 628
f 88 671 631
f 671 90 636
f 636 89 631
f 671 636 631
f 90 672 634
f 672 92 639
f 639 91 634
f 672 639 634
f 92 673 637
f 673 94 642
f 642 93 637
f 673 642 637
f 94 674 640
f 674 96 645
f 645 95 640
f 674 645 640
f 96 675 643
f 675 98 648
f 648 97 643
f 675 648 643
f 98 676 646
f 676 100 651
f 651 99 646
f 676 651 646
f 100 677 649
f 677 102 654
f 654 101 649
f 677 654 649
f 102 678 652
f 678 104 657
f 657 103 652
f 678 657 652
f 104 679 655
f 679 106 660
f 660 105 655
f 679 660 655
f 106 680 658
f 680 108 663
f 663 107 658
f 680 663 658
f 108 681 661
f 681 110 666
f 666 109 661
f 681 666 661
f 110 682 664
f 682 112 669
f 669 111 664
f 682 669 664
f 112 683 667
f 683 85 630
f 630 87 667
f 683 630 667
f 113 684 686
f 684 114 685
f 685 115 686
f 684 685 686
f 116 687 689
f 687 117 688
f 688 114 689
f 687 688 689
f 118 690 692
f 690 119 691
f 691 117 692
f 690 691 692
f 120 693 695
f 693 121 694
f 694 119 695
f 693 694 695
f 122 696 698
f 696 123 697
f 697 121 698
f 696 697 698
f 124 699 701
f 699 125 700
f 700 123 701
f 699 700 701
f 126 702 704
f 702 127 703
f 703 125 704
f 702 703 704
f 128 705 707
f 705 129 706
f 706 127 707
f 705 706 707
f 130 708 710
f 708 131 709
f 709 129 710
f 708 709 710
f 132 711 713
f 711 133 712
f 712 131 713
f 711 712 713
f 134 714 716
f 714 135 715
f 715 133 716
f 714 715 716
f 136 717 719
f 717 137 718
f 718 135 719
f 717 718 719
f 138 720 722
f 720 139 721
f 721 137 722
f 720 721 722
f 140 723 725
f 723 115 724
f 724 139 725
f 723 724 725
f 113 726 684
f 726 116 689
f 689 114 684
f 726 689 684
f 116 727 687
f 727 118 692
f 692 117 687
f 727 692 687
f 118 728 690
f 728 120 695
f 695 119 690
f 728 695 690
f 120 729 693
f 729 122 698
f 698 121 693
f 729 698 693
f 122 730 696
f 730 124 701
f 701 123 696
f 730 701 696
f 124 731 699
f 731 126 704
f 704 125 699
f 731 704 699
f 126 732 702
f 732 128 707
f 707 127 702
f 732 707 702
f 128 733 705
f 733 130 710
f 710 129 705
f 733 710 705
f 130 734 708
f 734 132 713
f 713 131 708
f 734 713 708
f 132 735 711
f 735 134 716
f 716 133 711
f 735 716 711
f 134 736 714
f 736 136 719
f 719 135 714
f 736 719 714
f 136 737 717
f 737 138 722
f 722 137 717
f 737 722 717
f 138 738 720
f 738 140 725
f 725 139 720
f 738 725 720
f 140 739 723
f 739 113 686
f 686 115 723
f 739 686 723
f 141 740 742
f 740 142 741
f 741 143 742
f 740 741 742
f 141 743 740
f 743 144 744
f 744 142 740
f 743 744 740
f 141 745 743
f 745 145 746
f 746 144 743
f 745 746 743
f 141 747 745
f 747 146 748
f 748 145 745
f 747 748 745
f 141 749 747
f 749 147 750
f 750 146 747
f 749 750 747
f 141 751 749
f 751 148 752
f 752 147 749
f 751 752 749
f 141 753 751
f 753 149 754
f 754 148 751
f 753 754 751
f 141 755 753
f 755 150 756
f 756 149 753
f 755 756 753
f 141 757 755
f 757 151 758
f 758 150 755
f 757 758 755
f 141 759 757
f 759 152 760
f 760 151 757
f 759 760 757
f 141 761 759
f 761 153 762
f 762 152 759
f 761 762 759
f 141 763 761
f 763 154 764
f 764 153 761
f 763 764 761
f 141 765 763
f 765 155 766
f 766 154 763
f 765 766 763
f 141 767 765
f 767 156 768
f 768 155 765
f 767 768 765
f 141 769 767
f 769 157 770
f 770 156 767
f 769 770 767
f 141 742 769
f 742 143 771
f 771 157 769
f 742 771 769
f 143 772 774
f 772 158 773
f 773 159 774
f 772 773 774
f 142 775 777
f 775 160 776
f 776 158 777
f 775 776 777
f 144 778 780
f 778 161 779
f 779 160 780
f 778 779 780
f 145 781 783
f 781 162 782
f 782 161 783
f 781 782 783
f 146 784 786
f 784 163 785
f 785 162 786
f 784 785 786
f 147 787 789
f 787 164 788
f 788 163 789
f 787 788 789
f 148 790 792
f 790 165 791
f 791 164 792
f 790 791 792
f 149 793 795
f 793 166 794
f 794 165 795
f 793 794 795
f 150 796 798
f 796 167 797
f 797 166 798
f 796 797 798
f 151 799 801
f 799 168 800
f 800 167 801
f 799 800 801
f 152 802 804
f 802 169 803
f 803 168 804
f 802 803 804
f 153 805 807
f 805 170 806
f 806 169 807
f 805 806 807
f 154 808 810
f 808 171 809
f 809 170 810
f 808 809 810
f 155 811 813
f 811 172 812
f 812 171 813
f 811 812 813
f 156 814 816
f 814 173 815
f 815 172 816
f 814 815 816
f 157 817 819
f 817 159 818
f 818 173 819
f 817 818 819
f 159 820 822
f 820 174 821
f 821 175 822
f 820 821 822
f 158 823 825
f 823 176 824
f 824 174 825
f 823 824 825
f 160 826 828
f 826 177 827
f 827 176 828
f 826 827 828
f 161 829 831
f 829 178 830
f 830 177 831
f 829 830 831
f 162 832 834
f 832 179 833
f 833 178 834
f 832 833 834
f 163 835 837
f 835 180 836
f 836 179 837
f 835 836 837
f 164 838 840
f 838 181 839
f 839 180 840
f 838 839 840
f 165 841 843
f 841 182 842
f 842 181 843
f 841 842 843
f 166 844 846
f 844 183 845
f 845 182 846
f 844 845 846
f 167 847 849
f 847 184 848
f 848 183 849
f 847 848 849
f 168 850 852
f 850 185 851
f 851 184 852
f 850 851 852
f 169 853 855
f 853 186 854
f 854 185 855
f 853 854 855
f 170 856 858
f 856 187 857
f 857 186 858
f 856 857 858
f 171 859 861
f 859 188 860
f 860 187 861
f 859 860 861
f 172 862 864
f 862 189 863
f 863 188 864
f 862 863 864
f 173 865 867
f 865 175 866
f 866 189 867
f 865 866 867
f 175 868 870
f 868 190 869
f 869 191 870
f 868 869 870
f 174 871 873
f 871 192 872
f 872 190 873
f 871 872 873
f 176 874 876
f 874 193 875
f 875 192 876
f 874 875 876
f 177 877 879
f 877 194 878
f 878 193 879
f 877 878 879
f 178 880 882
f 880 195 881
f 881 194 882
f 880 881 882
f 179 883 885
f 883 196 884
f 884 195 885
f 883 884 885
f 180 886 888
f 886 197 887
f 887 196 888
f 886 887 888
f 181 889 891
f 889 198 890
f 890 197 891
f 889 890 891
f 182 892 894
f 892 199 893
f 893 198 894
f 892 893 894
f 183 895 897
f 895 200 896
f 896 199 897
f 895 896 897
f 184 898 900
f 898 201 899
f 899 200 900
f 898 899 900
f 185 901 903
f 901 202 902
f 902 201 903
f 901 902 903
f 186 904 906
f 904 203 905
f 905 202 906
f 904 905 906
f 187 907 909
f 907 204 908
f 908 203 909
f 907 908 909
f 188 910 912
f 910 205 911
f 911 204 912
f 910 911 912
f 189 913 915
f 913 191 914
f 914 205 915
f 913 914 915
f 191 916 918
f 916 206 917
f 917 207 918
f 916 917 918
f 190 919 921
f 919 208 920
f 920 206 921
f 919 920 921
f 192 922 924
f 922 209 923
f 923 208 924
f 922 923 924
f 193 925 927
f 925 210 926
f 926 209 927
f 925 926 927
f 194 928 930
f 928 211 929
f 929 210 930
f 928 929 930
f 195 931 933
f 931 212 932
f 932 211 933
f 931 932 933
f 196 934 936
f 934 213 935
f 935 212 936
f 934 935 936
f 197 937 939
f 937 214 938
f 938 213 939
f 937 938 939
f 198 940 942
f 940 215 941
f 941 214 942
f 940 941 942
f 199 943 945
f 943 216 944
f 944 215 945
f 943 944 945
f 200 946 948
f 946 217 947
f 947 216 948
f 946 947 948
f 201 949 951
f 949 218 950
f 950 217 951
f 949 950 951
f 202 952 954
f 952 219 953
f 953 218 954
f 952 953 954
f 203 955 957
f 955 220 956
f 956 219 957
f 955 956 957
f 204 958 960
f 958 221 959
f 959 220 960
f 958 959 960
f 205 961 963
f 961 207 962
f 962 221 963
f 961 962 963
f 207 964 966
f 964 222 965
f 965 223 966
f 964 965 966
f 206 967 969
f 967 224 968
f 968 222 969
f 967 968 969
f 208 970 972
f 970 225 971
f 971 224 972
f 970 971 972
f 209 973 975
f 973 226 974
f 974 225 975
f 973 974 975
f 210 976 978
f 976 227 977
f 977 226 978
f 976 977 978
f 211 979 981
f 979 228 980
f 980 227 981
f 979 980 981
f 212 982 984
f 982 229 983
f 983 228 984
f 982 983 984
f 213 985 987
f 985 230 986
f 986 229 987
f 985 986 987
f 214 988 990
f 988 231 989
f 989 230 990
f 988 989 990
f 215 991 993
f 991 232 992
f 992 231 993
f 991 992 993
f 216 994 996
f 994 233 995
f 995 232 996
f 994 995 996
f 217 997 999
f 997 234 998
f 998 233 999
f 997 998 999
f 218 1000 1002
f 1000 235 1001
f 1001 234 1002
f 1000 1001 1002
f 219 1003 1005
f 1003 236 1004
f 1004 235 1005
f 1003 1004 1005
f 220 1006 1008
f 1006 237 1007
f 1007 236 1008
f 1006 1007 1008
f 221 1009 1011
f 1009 223 1010
f 1010 237 1011
f 1009 1010 1011
f 223 1012 1014
f 1012 238 1013
f 1013 239 1014
f 1012 1013 1014
f 222 1015 1017
f 1015 240 1016
f 1016 238 1017
f 1015 1016 1017
f 224 1018 1020
f 1018 241 1019
f 1019 240 1020
f 1018 1019 1020
f 225 1021 1023
f 1021 242 1022
f 1022 241 1023
f 1021 1022 1023
f 226 1024 1026
f 1024 243 1025
f 1025 242 1026
f 1024 1025 1026
f 227 1027 1029
f 1027 244 1028
f 1028 243 1029
f 1027 1028 1029
f 228 1030 1032
f 1030 245 1031
f 1031 244 1032
f 1030 1031 1032
f 229 1033 1035
f 1033 246 1034
f 1034 245 1035
f 1033 1034 1035
f 230 1036 1038
f 1036 247 1037
f 1037 246 1038
f 1036 1037 1038
f 231 1039 1041
f 1039 248 1040
f 1040 247 1041
f 1039 1040 1041
f 232 1042 1044
f 1042 249 1043
f 1043 248 1044
f 1042 1043 1044
f 233 1045 1047
f 1045 250 1046
f 1046 249 1047
f 1045 1046 1047
f 234 1048 1050
f 1048 251 1049
f 1049 250 1050
f 1048 1049 1050
f 235 1051 1053
f 1051 252 1052
f 1052 251 1053
f 1051 1052 1053
f 236 1054 1056
f 1054 253 1055
f 1055 252 1056
f 1054 1055 1056
f 237 1057 1059
f 1057 239 1058
f 1058 253 1059
f 1057 1058 1059
f 239 1060 1062
f 1060 254 1061
f 1061 255 1062
f 1060 1061 1062
f 238 1063 1065
f 1063 256 1064
f 1064 254 1065
f 1063 1064 1065
f 240 1066 1068
f 1066 257 1067
f 1067 256 1068
f 1066 1067 1068
f 241 1069 1071
f 1069 258 1070
f 1070 257 1071
f 1069 1070 1071
f 242 1072 1074
f 1072 259 1073
f 1073 258 1074
f 1072 1073 1074
f 243 1075 1077
f 1075 260 1076
f 1076 259 1077
f 1075 1076 1077
f 244 1078 1080
f 1078 261 1079
f 1079 260 1080
f 1078 1079 1080
f 245 1081 1083
f 1081 262 1082
f 1082 261 1083
f 1081 1082 1083
f 246 1084 1086
f 1084 263 1085
f 1085 262 1086
f 1084 1085 1086
f 247 1087 1089
f 1087 264 1088
f 1088 263 1089
f 1087 1088 1089
f 248 1090 1092
f 1090 265 1091
f 1091 264 1092
f 1090 1091 1092
f 249 1093 1095
f 1093 266 1094
f 1094 265 1095
f 1093 1094 1095
f 250 1096 1098
f 1096 267 1097
f 1097 266 1098
f 1096 1097 1098
f 251 1099 1101
f 1099 268 1100
f 1100 267 1101
f 1099 1100 1101
f 252 1102 1104
f 1102 269 1103
f 1103 268 1104
f 1102 1103 1104
f 253 1105 1107
f 1105 255 1106
f 1106 269 1107
f 1105 1106 1107
f 255 1108 1110
f 1108 270 1109
f 1109 271 1110
f 1108 1109 1110
f 254 1111 1113
f 1111 272 1112
f 1112 270 1113
f 1111 1112 1113
f 256 1114 1116
f 1114 273 1115
f 1115 272 1116
f 1114 1115 1116
f 257 1117 1119
f 1117 274 1118
f 1118 273 1119
f 1117 1118 1119
f 258 1120 1122
f 1120 275 1121
f 1121 274 1122
f 1120 1121 1122
f 259 1123 1125
f 1123 276 1124
f 1124 275 1125
f 1123 1124 1125
f 260 1126 1128
f 1126 277 1127
f 1127 276 1128
f 1126 1127 1128
f 261 1129 1131
f 1129 278 1130
f 1130 277 1131
f 1129 1130 1131
f 262 1132 1134
f 1132 279 1133
f 1133 278 1134
f 1132 1133 1134
f 263 1135 1137
f 1135 280 1136
f 1136 279 1137
f 1135 1136 1137
f 264 1138 1140
f 1138 281 1139
f 1139 280 1140
f 1138 1139 1140
f 265 1141 1143
f 1141 282 1142
f 1142 281 1143
f 1141 1142 1143
f 266 1144 1146
f 1144 283 1145
f 1145 282 1146
f 1144 1145 1146
f 267 1147 1149
f 1147 284 1148
f 1148 283 1149
f 1147 1148 1149
f 268 1150 1152
f 1150 285 1151
f 1151 284 1152
f 1150 1151 1152
f 269 1153 1155
f 1153 271 1154
f 1154 285 1155
f 1153 1154 1155
f 271 1156 1158
f 1156 286 1157
f 1157 287 1158
f 1156 1157 1158
f 270 1159 1161
f 1159 288 1160
f 1160 286 1161
f 1159 1160 1161
f 272 1162 1164
f 1162 289 1163
f 1163 288 1164
f 1162 1163 1164
f 273 1165 1167
f 1165 290 1166
f 1166 289 1167
f 1165 1166 1167
f 274 1168 1170
f 1168 291 1169
f 1169 290 1170
f 1168 1169 1170
f 275 1171 1173
f 1171 292 1172
f 1172 291 1173
f 1171 1172 1173
f 276 1174 1176
f 1174 293 1175
f 1175 292 1176
f 1174 1175 1176
f 277 1177 1179
f 1177 294 1178
f 1178 293 1179
f 1177 1178 1179
f 278 1180 1182
f 1180 295 1181
f 1181 294 1182
f 1180 1181 1182
f 279 1183 1185
f 1183 296 1184
f 1184 295 1185
f 1183 1184 1185
f 280 1186 1188
f 1186 297 1187
f 1187 296 1188
f 1186 1187 1188
f 281 1189 1191
f 1189 298 1190
f 1190 297 1191
f 1189 1190 1191
f 282 1192 1194
f 1192 299 1193
f 1193 298 1194
f 1192 1193 1194
f 283 1195 1197
f 1195 300 1196
f 1196 299 1197
f 1195 1196 1197
f 284 1198 1200
f 1198 301 1199
f 1199 300 1200
f 1198 1199 1200
f 285 1201 1203
f 1201 287 1202
f 1202 301 1203
f 1201 1202 1203
f 143 741 772
f 741 142 777
f 777 158 772
f 741 777 772
f 142 744 775
f 744 144 780
f 780 160 775
f 744 780 775
f 144 746 778
f 746 145 783
f 783 161 778
f 746 783 778
f 145 748 781
f 748 146 786
f 786 162 781
f 748 786 781
f 146 750 784
f 750 147 789
f 789 163 784
f 750 789 784
f 147 752 787
f 752 148 792
f 792 164 787
f 752 792 787
f 148 754 790
f 754 149 795
f 795 165 790
f 754 795 790
f 149 756 793
f 756 150 798
f 798 166 793
f 756 798 793
f 150 758 796
f 758 151 801
f 801 167 796
f 758 801 796
f 151 760 799
f 760 152 804
f 804 168 799
f 760 804 799
f 152 762 802
f 762 153 807
f 807 169 802
f 762 807 802
f 153 764 805
f 764 154 810
f 810 170 805
f 764 810 805
f 154 766 808
f 766 155 813
f 813 171 808
f 766 813 808
f 155 768 811
f 768 156 816
f 816 172 811
f 768 816 811
f 156 770 814
f 770 157 819
f 819 173 814
f 770 819 814
f 157 771 817
f 771 143 774
f 774 159 817
f 771 774 817
f 159 773 820
f 773 158 825
f 825 174 820
f 773 825 820
f 158 776 823
f 776 160 828
f 828 176 823
f 776 828 823
f 160 779 826
f 779 161 831
f 831 177 826
f 779 831 826
f 161 782 829
f 782 162 834
f 834 178 829
f 782 834 829
f 162 785 832
f 785 163 837
f 837 179 832
f 785 837 832
f 163 788 835
f 788 164 840
f 840 180 835
f 788 840 835
f 164 791 838
f 791 165 843
f 843 181 838
f 791 843 838
f 165 794 841
f 794 166 846
f 846 182 841
f 794 846 841
f 166 797 844
f 797 167 849
f 849 183 844
f 797 849 844
f 167 800 847
f 800 168 852
f 852 184 847
f 800 852 847
f 168 803 850
f 803 169 855
f 855 185 850
f 803 855 850
f 169 806 853
f 806 170 858
f 858 186 853
f 806 858 853
f 170 809 856
f 809 171 861
f 861 187 856
f 809 861 856
f 171 812 859
f 812 172 864
f 864 188 859
f 812 864 859
f 172 815 862
f 815 173 867
f 867 189 862
f 815 867 862
f 173 818 865
f 818 159 822
f 822 175 865
f 818 822 865
f 175 821 868
f 821 174 873
f 873 190 868
f 821 873 868
f 174 824 871
f 824 176 876
f 876 192 871
f 824 876 871
f 176 827 874
f 827 177 879
f 879 193 874
f 827 879 874
f 177 830 877
f 830 178 882
f 882 194 877
f 830 882 877
f 178 833 880
f 833 179 885
f 885 195 880
f 833 885 880
f 179 836 883
f 836 180 888
f 888 196 883
f 836 888 883
f 180 839 886
f 839 181 891
f 891 197 886
f 839 891 886
f 181 842 889
f 842 182 894
f 894 198 889
f 842 894 889
f 182 845 892
f 845 183 897
f 897 199 892
f 845 897 892
f 183 848 895
f 848 184 900
f 900 200 895
f 848 900 895
f 184 851 898
f 851 185 903
f 903 201 898
f 851 903 898
f 185 854 901
f 854 186 906
f 906 202 901
f 854 906 901
f 186 857 904
f 857 187 909
f 909 203 904
f 857 909 904
f 187 860 907
f 860 188 912
f 912 204 907
f 860 912 907
f 188 863 910
f 863 189 915
f 915 205 910
f 863 915 910
f 189 866 913
f 866 175 870
f 870 191 913
f 866 870 913
f 191 869 916
f 869 190 921
f 921 206 916
f 869 921 916
f 190 872 919
f 872 192 924
f 924 208 919
f 872 924 919
f 192 875 922
f 875 193 927
f 927 209 922
f 875 927 922
f 193 878 925
f 878 194 930
f 930 210 925
f 878 930 925
f 194 881 928
f 881 195 933
f 933 211 928
f 881 933 928
f 195 884 931
f 884 196 936
f 936 212 931
f 884 936 931
f 196 887 934
f 887 197 939
f 939 213 934
f 887 939 934
f 197 890 937
f 890 198 942
f 942 214 937
f 890 942 937
f 198 893 940
f 893 199 945
f 945 215 940
f 893 945 940
f 199 896 943
f 896 200 948
f 948 216 943
f 896 948 943
f 200 899 946
f 899 201 951
f 951 217 946
f 899 951 946
f 201 902 949
f 902 202 954
f 954 218 949
f 902 954 949
f 202 905 952
f 905 203 957
f 957 219 952
f 905 957 952
f 203 908 955
f 908 204 960
f 960 220 955
f 908 960 955
f 204 911 958
f 911 205 963
f 963 221 958
f 911 963 958
f 205 914 961
f 914 191 918
f 918 207 961
f 914 918 961
f 207 917 964
f 917 206 969
f 969 222 964
f 917 969 964
f 206 920 967
f 920 208 972
f 972 224 967
f 920 972 967
f 208 923 970
f 923 209 975
f 975 225 970
f 923 975 970
f 209 926 973
f 926 210 978
f 978 226 973
f 926 978 973
f 210 929 976
f 929 211 981
f 981 227 976
f 929 981 976
f 211 932 979
f 932 212 984
f 984 228 979
f 932 984 979
f 212 935 982
f 935 213 987
f 987 229 982
f 935 987 982
f 213 938 985
f 938 214 990
f 990 230 985
f 938 990 985
f 214 941 988
f 941 215 993
f 993 231 988
f 941 993 988
f 215 944 991
f 944 216 996
f 996 232 991
f 944 996 991
f 216 947 994
f 947 217 999
f 999 233 994
f 947 999 994
f 217 950 997
f 950 218 1002
f 1002 234 997
f 950 1002 997
f 218 953 1000
f 953 219 1005
f 1005 235 1000
f 953 1005 1000
f 219 956 1003
f 956 220 1008
f 1008 236 1003
f 956 1008 1003
f 220 959 1006
f 959 221 1011
f 1011 237 1006
f 959 1011 1006
f 221 962 1009
f 962 207 966
f 966 223 1009
f 962 966 1009
f 223 965 1012
f 965 222 1017
f 1017 238 1012
f 965 1017 1012
f 222 968 1015
f 968 224 1020
f 1020 240 1015
f 968 1020 1015
f 224 971 1018
f 971 225 1023
f 1023 241 1018
f 971 1023 1018
f 225 974 1021
f 974 226 1026
f 1026 242 1021
f 974 1026 1021
f 226 977 1024
f 977 227 1029
f 1029 243 1024
f 977 1029 1024
f 227 980 1027
f 980 228 1032
f 1032 244 1027
f 980 1032 1027
f 228 983 1030
f 983 229 1035
f 1035 245 1030
f 983 1035 1030
f 229 986 1033
f 986 230 1038
f 1038 246 1033
f 986 1038 1033
f 230 989 1036
f 989 231 1041
f 1041 247 1036
f 989 1041 1036
f 231 992 1039
f 992 232 1044
f 1044 248 1039
f 992 1044 1039
f 232 995 1042
f 995 233 1047
f 1047 249 1042
f 995 1047 1042
f 233 998 1045
f 998 234 1050
f 1050 250 1045
f 998 1050 1045
f 234 1001 1048
f 1001 235 1053
f 1053 251 1048
f 1001 1053 1048
f 235 1004 1051
f 1004 236 1056
f 1056 252 1051
f 1004 1056 1051
f 236 1007 1054
f 1007 237 1059
f 1059 253 1054
f 1007 1059 1054
f 237 1010 1057
f 1010 223 1014
f 1014 239 1057
f 1010 1014 1057
f 239 1013 1060
f 1013 238 1065
f 1065 254 1060
f 1013 1065 1060
f 238 1016 1063
f 1016 240 1068
f 1068 256 1063
f 1016 1068 1063
f 240 1019 1066
f 1019 241 1071
f 1071 257 1066
f 1019 1071 1066
f 241 1022 1069
f 1022 242 1074
f 1074 258 1069
f 1022 1074 1069
f 242 1025 1072
f 1025 243 1077
f 1077 259 1072
f 1025 1077 1072
f 243 1028 1075
f 1028 244 1080
f 1080 260 1075
f 1028 1080 1075
f 244 1031 1078
f 1031 245 1083
f 1083 261 1078
f 1031 1083 1078
f 245 1034 1081
f 1034 246 1086
f 1086 262 1081
f 1034 1086 1081
f 246 1037 1084
f 1037 247 1089
f 1089 263 1084
f 1037 1089 1084
f 247 1040 1087
f 1040 248 1092
f 1092 264 1087
f 1040 1092 1087
f 248 1043 1090
f 1043 249 1095
f 1095 265 1090
f 1043 1095 1090
f 249 1046 1093
f 1046 250 1098
f 1098 266 1093
f 1046 1098 1093
f 250 1049 1096
f 1049 251 1101
f 1101 267 1096
f 1049 1101 1096
f 251 1052 1099
f 1052 252 1104
f 1104 268 1099
f 1052 1104 1099
f 252 1055 1102
f 1055 253 1107
f 1107 269 1102
f 1055 1107 1102
f 253 1058 1105
f 1058 239 1062
f 1062 255 1105
f 1058 1062 1105
f 255 1061 1108
f 1061 254 1113
f 1113 270 1108
f 1061 1113 1108
f 254 1064 1111
f 1064 256 1116
f 1116 272 1111
f 1064 1116 1111
f 256 1067 1114
f 1067 257 1119
f 1119 273 1114
f 1067 1119 1114
f 257 1070 1117
f 1070 258 1122
f 1122 274 1117
f 1070 1122 1117
f 258 1073 1120
f 1073 259 1125
f 1125 275 1120
f 1073 1125 1120
f 259 1076 1123
f 1076 260 1128
f 1128 276 1123
f 1076 1128 1123
f 260 1079 1126
f 1079 261 1131
f 1131 277 1126
f 1079 1131 1126
f 261 1082 1129
f 1082 262 1134
f 1134 278 1129
f 1082 1134 1129
f 262 1085 1132
f 1085 263 1137
f 1137 279 1132
f 1085 1137 1132
f 263 1088 1135
f 1088 264 1140
f 1140 280 1135
f 1088 1140 1135
f 264 1091 1138
f 1091 265 1143
f 1143 281 1138
f 1091 1143 1138
f 265 1094 1141
f 1094 266 1146
f 1146 282 1141
f 1094 1146 1141
f 266 1097 1144
f 1097 267 1149
f 1149 283 1144
f 1097 1149 1144
f 267 1100 1147
f 1100 268 1152
f 1152 284 1147
f 1100 1152 1147
f 268 1103 1150
f 1103 269 1155
f 1155 285 1150
f 1103 1155 1150
f 269 1106 1153
f 1106 255 1110
f 1110 271 1153
f 1106 1110 1153
f 271 1109 1156
f 1109 270 1161
f 1161 286 1156
f 1109 1161 1156
f 270 1112 1159
f 1112 272 1164
f 1164 288 1159
f 1112 1164 1159
f 272 1115 1162
f 1115 273 1167
f 1167 289 1162
f 1115 1167 1162
f 273 1118 1165
f 1118 274 1170
f 1170 290 1165
f 1118 1170 1165
f 274 1121 1168
f 1121 275 1173
f 1173 291 1168
f 1121 1173 1168
f 275 1124 1171
f 1124 276 1176
f 1176 292 1171
f 1124 1176 1171
f 276 1127 1174
f 1127 277 1179
f 1179 293 1174
f 1127 1179 1174
f 277 1130 1177
f 1130 278 1182
f 1182 294 1177
f 1130 1182 1177
f 278 1133 1180
f 1133 279 1185
f 1185 295 1180
f 1133 1185 1180
f 279 1136 1183
f 1136 280 1188
f 1188 296 1183
f 1136 1188 1183
f 280 1139 1186
f 1139 281 1191
f 1191 297 1186
f 1139 1191 1186
f 281 1142 1189
f 1142 282 1194
f 1194 298 1189
f 1142 1194 1189
f 282 1145 1192
f 1145 283 1197
f 1197 299 1192
f 1145 1197 1192
f 283 1148 1195
f 1148 284 1200
f 1200 300 1195
f 1148 1200 1195
f 284 1151 1198
f 1151 285 1203
f 1203 301 1198
f 1151 1203 1198
f 285 1154 1201
f 1154 271 1158
f 1158 287 1201
f 1154 1158 1201
f 302 1204 1206
f 1204 303 1205
f 1205 304 1206
f 1204 1205 1206
f 305 1207 1209
f 1207 306 1208
f 1208 303 1209
f 1207 1208 1209
f 307 1210 1212
f 1210 308 1211
f 1211 306 1212
f 1210 1211 1212
f 309 1213 1215
f 1213 310 1214
f 1214 308 1215
f 1213 1214 1215
f 311 1216 1218
f 1216 312 1217
f 1217 310 1218
f 1216 1217 1218
f 313 1219 1221
f 1219 314 1220
f 1220 312 1221
f 1219 1220 1221
f 315 1222 1224
f 1222 316 1223
f 1223 314 1224
f 1222 1223 1224
f 317 1225 1227
f 1225 304 1226
f 1226 316 1227
f 1225 1226 1227
f 304 1228 1230
f 1228 318 1229
f 1229 319 1230
f 1228 1229 1230
f 303 1231 1233
f 1231 320 1232
f 1232 318 1233
f 1231 1232 1233
f 306 1234 1236
f 1234 321 1235
f 1235 320 1236
f 1234 1235 1236
f 308 1237 1239
f 1237 322 1238
f 1238 321 1239
f 1237 1238 1239
f 310 1240 1242
f 1240 323 1241
f 1241 322 1242
f 1240 1241 1242
f 312 1243 1245
f 1243 324 1244
f 1244 323 1245
f 1243 1244 1245
f 314 1246 1248
f 1246 325 1247
f 1247 324 1248
f 1246 1247 1248
f 316 1249 1251
f 1249 319 1250
f 1250 325 1251
f 1249 1250 1251
f 319 1252 1254
f 1252 326 1253
f 1253 327 1254
f 1252 1253 1254
f 318 1255 1257
f 1255 328 1256
f 1256 326 1257
f 1255 1256 1257
f 320 1258 1260
f 1258 329 1259
f 1259 328 1260
f 1258 1259 1260
f 321 1261 1263
f 1261 330 1262
f 1262 329 1263
f 1261 1262 1263
f 322 1264 1266
f 1264 331 1265
f 1265 330 1266
f 1264 1265 1266
f 323 1267 1269
f 1267 332 1268
f 1268 331 1269
f 1267 1268 1269
f 324 1270 1272
f 1270 333 1271
f 1271 332 1272
f 1270 1271 1272
f 325 1273 1275
f 1273 327 1274
f 1274 333 1275
f 1273 1274 1275
f 302 1276 1204
f 1276 305 1209
f 1209 303 1204
f 1276 1209 1204
f 305 1277 1207
f 1277 307 1212
f 1212 306 1207
f 1277 1212 1207
f 307 1278 1210
f 1278 309 1215
f 1215 308 1210
f 1278 1215 1210
f 309 1279 1213
f 1279 311 1218
f 1218 310 1213
f 1279 1218 1213
f 311 1280 1216
f 1280 313 1221
f 1221 312 1216
f 1280 1221 1216
f 313 1281 1219
f 1281 315 1224
f 1224 314 1219
f 1281 1224 1219
f 315 1282 1222
f 1282 317 1227
f 1227 316 1222
f 1282 1227 1222
f 317 1283 1225
f 1283 302 1206
f 1206 304 1225
f 1283 1206 1225
f 304 1205 1228
f 1205 303 1233
f 1233 318 1228
f 1205 1233 1228
f 303 1208 1231
f 1208 306 1236
f 1236 320 1231
f 1208 1236 1231
f 306 1211 1234
f 1211 308 1239
f 1239 321 1234
f 1211 1239 1234
f 308 1214 1237
f 1214 310 1242
f 1242 322 1237
f 1214 1242 1237
f 310 1217 1240
f 1217 312 1245
f 1245 323 1240
f 1217 1245 1240
f 312 1220 1243
f 1220 314 1248
f 1248 324 1243
f 1220 1248 1243
f 314 1223 1246
f 1223 316 1251
f 1251 325 1246
f 1223 1251 1246
f 316 1226 1249
f 1226 304 1230
f 1230 319 1249
f 1226 1230 1249
f 319 1229 1252
f 1229 318 1257
f 1257 326 1252
f 1229 1257 1252
f 318 1232 1255
f 1232 320 1260
f 1260 328 1255
f 1232 1260 1255
f 320 1235 1258
f 1235 321 1263
f 1263 329 1258
f 1235 1263 1258
f 321 1238 1261
f 1238 322 1266
f 1266 330 1261
f 1238 1266 1261
f 322 1241 1264
f 1241 323 1269
f 1269 331 1264
f 1241 1269 1264
f 323 1244 1267
f 1244 324 1272
f 1272 332 1267
f 1244 1272 1267
f 324 1247 1270
f 1247 325 1275
f 1275 333 1270
f 1247 1275 1270
f 325 1250 1273
f 1250 319 1254
f 1254 327 1273
f 1250 1254 1273
f 327 1253 1285
f 1253 326 1284
f 1284 334 1285
f 1253 1284 1285
f 326 1256 1284
f 1256 328 1286
f 1286 334 1284
f 1256 1286 1284
f 328 1259 1286
f 1259 329 1287
f 1287 334 1286
f 1259 1287 1286
f 329 1262 1287
f 1262 330 1288
f 1288 334 1287
f 1262 1288 1287
f 330 1265 1288
f 1265 331 1289
f 1289 334 1288
f 1265 1289 1288
f 331 1268 1289
f 1268 332 1290
f 1290 334 1289
f 1268 1290 1289
f 332 1271 1290
f 1271 333 1291
f 1291 334 1290
f 1271 1291 1290
f 333 1274 1291
f 1274 327 1285
f 1285 334 1291
f 1274 1285 1291
f 335 1292 1294
f 1292 336 1293
f 1293 337 1294
f 1292 1293 1294
f 338 1295 1297
f 1295 339 1296
f 1296 336 1297
f 1295 1296 1297
f 340 1298 1300
f 1298 341 1299
f 1299 339 1300
f 1298 1299 1300
f 342 1301 1303
f 1301 343 1302
f 1302 341 1303
f 1301 1302 1303
f 344 1304 1306
f 1304 345 1305
f 1305 343 1306
f 1304 1305 1306
f 346 1307 1309
f 1307 347 1308
f 1308 345 1309
f 1307 1308 1309
f 348 1310 1312
f 1310 349 1311
f 1311 347 1312
f 1310 1311 1312
f 350 1313 1315
f 1313 337 1314
f 1314 349 1315
f 1313 1314 1315
f 337 1316 1318
f 1316 351 1317
f 1317 352 1318
f 1316 1317 1318
f 336 1319 1321
f 1319 353 1320
f 1320 351 1321
f 1319 1320 1321
f 339 1322 1324
f 1322 354 1323
f 1323 353 1324
f 1322 1323 1324
f 341 1325 1327
f 1325 355 1326
f 1326 354 1327
f 1325 1326 1327
f 343 1328 1330
f 1328 356 1329
f 1329 355 1330
f 1328 1329 1330
f 345 1331 1333
f 1331 357 1332
f 1332 356 1333
f 1331 1332 1333
f 347 1334 1336
f 1334 358 1335
f 1335 357 1336
f 1334 1335 1336
f 349 1337 1339
f 1337 352 1338
f 1338 358 1339
f 1337 1338 1339
f 352 1340 1342
f 1340 359 1341
f 1341 360 1342
f 1340 1341 1342
f 351 1343 1345
f 1343 361 1344
f 1344 359 1345
f 1343 1344 1345
f 353 1346 1348
f 1346 362 1347
f 1347 361 1348
f 1346 1347 1348
f 354 1349 1351
f 1349 363 1350
f 1350 362 1351
f 1349 1350 1351
f 355 1352 1354
f 1352 364 1353
f 1353 363 1354
f 1352 1353 1354
f 356 1355 1357
f 1355 365 1356
f 1356 364 1357
f 1355 1356 1357
f 357 1358 1360
f 1358 366 1359
f 1359 365 1360
f 1358 1359 1360
f 358 1361 1363
f 1361 360 1362
f 1362 366 1363
f 1361 1362 1363
f 335 1364 1292
f 1364 338 1297
f 1297 336 1292
f 1364 1297 1292
f 338 1365 1295
f 1365 340 1300
f 1300 339 1295
f 1365 1300 1295
f 340 1366 1298
f 1366 342 1303
f 1303 341 1298
f 1366 1303 1298
f 342 1367 1301
f 1367 344 1306
f 1306 343 1301
f 1367 1306 1301
f 344 1368 1304
f 1368 346 1309
f 1309 345 1304
f 1368 1309 1304
f 346 1369 1307
f 1369 348 1312
f 1312 347 1307
f 1369 1312 1307
f 348 1370 1310
f 1370 350 1315
f 1315 349 1310
f 1370 1315 1310
f 350 1371 1313
f 1371 335 1294
f 1294 337 1313
f 1371 1294 1313
f 337 1293 1316
f 1293 336 1321
f 1321 351 1316
f 1293 1321 1316
f 336 1296 1319
f 1296 339 1324
f 1324 353 1319
f 1296 1324 1319
f 339 1299 1322
f 1299 341 1327
f 1327 354 1322
f 1299 1327 1322
f 341 1302 1325
f 1302 343 1330
f 1330 355 1325
f 1302 1330 1325
f 343 1305 1328
f 1305 345 1333
f 1333 356 1328
f 1305 1333 1328
f 345 1308 1331
f 1308 347 1336
f 1336 357 1331
f 1308 1336 1331
f 347 1311 1334
f 1311 349 1339
f 1339 358 1334
f 1311 1339 1334
f 349 1314 1337
f 1314 337 1318
f 1318 352 1337
f 1314 1318 1337
f 352 1317 1340
f 1317 351 1345
f 1345 359 1340
f 1317 1345 1340
f 351 1320 1343
f 1320 353 1348
f 1348 361 1343
f 1320 1348 1343
f 353 1323 1346
f 1323 354 1351
f 1351 362 1346
f 1323 1351 1346
f 354 1326 1349
f 1326 355 1354
f 1354 363 1349
f 1326 1354 1349
f 355 1329 1352
f 1329 356 1357
f 1357 364 1352
f 1329 1357 1352
f 356 1332 1355
f 1332 357 1360
f 1360 365 1355
f 1332 1360 1355
f 357 1335 1358
f 1335 358 1363
f 1363 366 1358
f 1335 1363 1358
f 358 1338 1361
f 1338 352 1342
f 1342 360 1361
f 1338 1342 1361
f 360 1341 1373
f 1341 359 1372
f 1372 367 1373
f 1341 1372 1373
f 359 1344 1372
f 1344 361 1374
f 1374 367 1372
f 1344 1374 1372
f 361 1347 1374
f 1347 362 1375
f 1375 367 1374
f 1347 1375 1374
f 362 1350 1375
f 1350 363 1376
f 1376 367 1375
f 1350 1376 1375
f 363 1353 1376
f 1353 364 1377
f 1377 367 1376
f 1353 1377 1376
f 364 1356 1377
f 1356 365 1378
f 1378 367 1377
f 1356 1378 1377
f 365 1359 1378
f 1359 366 1379
f 1379 367 1378
f 1359 1379 1378
f 366 1362 1379
f 1362 360 1373
f 1373 367 1379
f 1362 1373 1379
f 368 1380 1382
f 1380 369 1381
f 1381 370 1382
f 1380 1381 1382
f 371 1383 1385
f 1383 372 1384
f 1384 369 1385
f 1383 1384 1385
f 373 1386 1388
f 1386 374 1387
f 1387 372 1388
f 1386 1387 1388
f 375 1389 1391
f 1389 376 1390
f 1390 374 1391
f 1389 1390 1391
f 377 1392 1394
f 1392 378 1393
f 1393 376 1394
f 1392 1393 1394
f 379 1395 1397
f 1395 380 1396
f 1396 378 1397
f 1395 1396 1397
f 381 1398 1400
f 1398 382 1399
f 1399 380 1400
f 1398 1399 1400
f 383 1401 1403
f 1401 384 1402
f 1402 382 1403
f 1401 1402 1403
f 385 1404 1406
f 1404 386 1405
f 1405 384 1406
f 1404 1405 1406
f 387 1407 1409
f 1407 388 1408
f 1408 386 1409
f 1407 1408 1409
f 389 1410 1412
f 1410 390 1411
f 1411 388 1412
f 1410 1411 1412
f 391 1413 1415
f 1413 392 1414
f 1414 390 1415
f 1413 1414 1415
f 393 1416 1418
f 1416 394 1417
f 1417 392 1418
f 1416 1417 1418
f 395 1419 1421
f 1419 370 1420
f 1420 394 1421
f 1419 1420 1421
f 368 1422 1380
f 1422 371 1385
f 1385 369 1380
f 1422 1385 1380
f 371 1423 1383
f 1423 373 1388
f 1388 372 1383
f 1423 1388 1383
f 373 1424 1386
f 1424 375 1391
f 1391 374 1386
f 1424 1391 1386
f 375 1425 1389
f 1425 377 1394
f 1394 376 1389
f 1425 1394 1389
f 377 1426 1392
f 1426 379 1397
f 1397 378 1392
f 1426 1397 1392
f 379 1427 1395
f 1427 381 1400
f 1400 380 1395
f 1427 1400 1395
f 381 1428 1398
f 1428 383 1403
f 1403 382 1398
f 1428 1403 1398
f 383 1429 1401
f 1429 385 1406
f 1406 384 1401
f 1429 1406 1401
f 385 1430 1404
f 1430 387 1409
f 1409 386 1404
f 1430 1409 1404
f 387 1431 1407
f 1431 389 1412
f 1412 388 1407
f 1431 1412 1407
f 389 1432 1410
f 1432 391 1415
f 1415 390 1410
f 1432 1415 1410
f 391 1433 1413
f 1433 393 1418
f 1418 392 1413
f 1433 1418 1413
f 393 1434 1416
f 1434 395 1421
f 1421 394 1416
f 1434 1421 1416
f 395 1435 1419
f 1435 368 1382
f 1382 370 1419
f 1435 1382 1419
f 396 1436 1438
f 1436 397 1437
f 1437 398 1438
f 1436 1437 1438
f 399 1439 1441
f 1439 400 1440
f 1440 397 1441
f 1439 1440 1441
f 401 1442 1444
f 1442 402 1443
f 1443 400 1444
f 1442 1443 1444
f 403 1445 1447
f 1445 404 1446
f 1446 402 1447
f 1445 1446 1447
f 405 1448 1450
f 1448 406 1449
f 1449 404 1450
f 1448 1449 1450
f 407 1451 1453
f 1451 408 1452
f 1452 406 1453
f 1451 1452 1453
f 409 1454 1456
f 1454 410 1455
f 1455 408 1456
f 1454 1455 1456
f 411 1457 1459
f 1457 412 1458
f 1458 410 1459
f 1457 1458 1459
f 413 1460 1462
f 1460 414 1461
f 1461 412 1462
f 1460 1461 1462
f 415 1463 1465
f 1463 416 1464
f 1464 414 1465
f 1463 1464 1465
f 417 1466 1468
f 1466 418 1467
f 1467 416 1468
f 1466 1467 1468
f 419 1469 1471
f 1469 420 1470
f 1470 418 1471
f 1469 1470 1471
f 421 1472 1474
f 1472 422 1473
f 1473 420 1474
f 1472 1473 1474
f 423 1475 1477
f 1475 398 1476
f 1476 422 1477
f 1475 1476 1477
f 396 1478 1436
f 1478 399 1441
f 1441 397 1436
f 1478 1441 1436
f 399 1479 1439
f 1479 401 1444
f 1444 400 1439
f 1479 1444 1439
f 401 1480 1442
f 1480 403 1447
f 1447 402 1442
f 1480 1447 1442
f 403 1481 1445
f 1481 405 1450
f 1450 404 1445
f 1481 1450 1445
f 405 1482 1448
f 1482 407 1453
f 1453 406 1448
f 1482 1453 1448
f 407 1483 1451
f 1483 409 1456
f 1456 408 1451
f 1483 1456 1451
f 409 1484 1454
f 1484 411 1459
f 1459 410 1454
f 1484 1459 1454
f 411 1485 1457
f 1485 413 1462
f 1462 412 1457
f 1485 1462 1457
f 413 1486 1460
f 1486 415 1465
f 1465 414 1460
f 1486 1465 1460
f 415 1487 1463
f 1487 417 1468
f 1468 416 1463
f 1487 1468 1463
f 417 1488 1466
f 1488 419 1471
f 1471 418 1466
f 1488 1471 1466
f 419 1489 1469
f 1489 421 1474
f 1474 420 1469
f 1489 1474 1469
f 421 1490 1472
f 1490 423 1477
f 1477 422 1472
f 1490 1477 1472
f 423 1491 1475
f 1491 396 1438
f 1438 398 1475
f 1491 1438 1475
f 424 1492 1494
f 1492 425 1493
f 1493 426 1494
f 1492 1493 1494
f 426 1493 1496
f 1493 425 1495
f 1495 427 1496
f 1493 1495 1496
f 424 1497 1499
f 1497 428 1498
f 1498 429 1499
f 1497 1498 1499
f 424 1494 1497
f 1494 426 1500
f 1500 428 1497
f 1494 1500 1497
f 424 1499 1492
f 1499 429 1501
f 1501 425 1492
f 1499 1501 1492
f 425 1501 1503
f 1501 429 1502
f 1502 430 1503
f 1501 1502 1503
f 425 1503 1505
f 1503 430 1504
f 1504 431 1505
f 1503 1504 1505
f 425 1505 1495
f 1505 431 1506
f 1506 427 1495
f 1505 1506 1495
f 426 1507 1500
f 1507 431 1508
f 1508 428 1500
f 1507 1508 1500
f 426 1496 1507
f 1496 427 1506
f 1506 431 1507
f 1496 1506 1507
f 428 1509 1498
f 1509 430 1502
f 1502 429 1498
f 1509 1502 1498
f 428 1508 1509
f 1508 431 1504
f 1504 430 1509
f 1508 1504 1509
