# Unified Preprocessed OBJ file from m1275.obj
# Applied remeshing: Yes
# Applied 4-step normalization: centering, PCA alignment, flipping, scaling
# Generated on 2025-09-29 15:14:03

v 0.006991 -0.000595 -0.029424
v 0.499875 -0.058116 -0.057571
v 0.499469 -0.009488 -0.064890
v 0.007538 -0.066114 -0.019563
v 0.500179 -0.094590 -0.056944
v 0.007948 -0.115257 -0.018719
v 0.500255 -0.103709 -0.057244
v 0.008050 -0.127542 -0.019122
v 0.500331 -0.112827 -0.057543
v 0.008153 -0.139828 -0.019526
v 0.500382 -0.118907 -0.058755
v 0.008221 -0.148019 -0.021159
v 0.500433 -0.124986 -0.059968
v 0.008290 -0.156210 -0.022793
v 0.500483 -0.131068 -0.064221
v 0.008358 -0.164403 -0.028522
v 0.500483 -0.131068 -0.065436
v 0.008358 -0.164404 -0.030161
v 0.500433 -0.124991 -0.069694
v 0.008289 -0.156216 -0.035898
v 0.500382 -0.118913 -0.070914
v 0.008221 -0.148028 -0.037541
v 0.500331 -0.112834 -0.072133
v 0.008153 -0.139838 -0.039183
v 0.500280 -0.106755 -0.072440
v 0.008084 -0.131647 -0.039596
v 0.500179 -0.094598 -0.072750
v 0.007947 -0.115267 -0.040015
v 0.499874 -0.058124 -0.072160
v 0.007537 -0.066124 -0.039220
v -0.007254 -0.000714 -0.029424
v -0.499110 -0.066455 -0.057545
v -0.499517 -0.017827 -0.064865
v -0.006707 -0.066233 -0.019563
v -0.498806 -0.102929 -0.056919
v -0.006297 -0.115376 -0.018718
v -0.498730 -0.112047 -0.057218
v -0.006194 -0.127661 -0.019121
v -0.498654 -0.121165 -0.057518
v -0.006091 -0.139947 -0.019525
v -0.498603 -0.127245 -0.058730
v -0.006023 -0.148138 -0.021158
v -0.498552 -0.133325 -0.059943
v -0.005955 -0.156329 -0.022793
v -0.498502 -0.139406 -0.064196
v -0.005887 -0.164522 -0.028522
v -0.498502 -0.139407 -0.065411
v -0.005887 -0.164523 -0.030160
v -0.498553 -0.133330 -0.069669
v -0.005955 -0.156335 -0.035898
v -0.498603 -0.127251 -0.070889
v -0.006023 -0.148147 -0.037540
v -0.498654 -0.121173 -0.072108
v -0.006092 -0.139957 -0.039183
v -0.498705 -0.115094 -0.072415
v -0.006160 -0.131766 -0.039596
v -0.498806 -0.102937 -0.072725
v -0.006297 -0.115386 -0.040014
v -0.499111 -0.066462 -0.072135
v -0.006707 -0.066243 -0.039220
v -0.002211 0.248641 0.015703
v 0.176090 0.220216 0.019133
v 0.175900 0.243005 0.015702
v -0.001902 0.211609 0.021278
v 0.176233 0.203123 0.019426
v -0.001670 0.183833 0.021754
v 0.176268 0.198850 0.019286
v -0.001612 0.176889 0.021526
v 0.176304 0.194576 0.019146
v -0.001554 0.169944 0.021299
v 0.176328 0.191727 0.018577
v -0.001516 0.165314 0.020376
v 0.176352 0.188878 0.018010
v -0.001477 0.160685 0.019451
v 0.176375 0.186028 0.016016
v -0.001439 0.156053 0.016213
v 0.176375 0.186028 0.015446
v -0.001439 0.156053 0.015287
v 0.176352 0.188876 0.013451
v -0.001477 0.160681 0.012044
v 0.176328 0.191724 0.012879
v -0.001516 0.165310 0.011116
v 0.176304 0.194573 0.012308
v -0.001555 0.169938 0.010187
v 0.176280 0.197421 0.012165
v -0.001593 0.174568 0.009954
v 0.176233 0.203120 0.012019
v -0.001671 0.183827 0.009718
v 0.176090 0.220213 0.012295
v -0.001902 0.211603 0.010166
v -0.180013 0.217244 0.019142
v -0.180204 0.240033 0.015711
v -0.179871 0.200151 0.019435
v -0.179835 0.195877 0.019295
v -0.179799 0.191604 0.019155
v -0.179776 0.188755 0.018586
v -0.179752 0.185906 0.018019
v -0.179728 0.183056 0.016025
v -0.179728 0.183056 0.015455
v -0.179752 0.185903 0.013460
v -0.179776 0.188752 0.012888
v -0.179800 0.191600 0.012317
v -0.179823 0.194449 0.012174
v -0.179871 0.200147 0.012028
v -0.180014 0.217240 0.012304
v 0.009260 -0.272250 0.037334
v 0.024394 -0.225114 0.020828
v 0.033777 -0.225025 0.042655
v 0.007173 -0.272270 0.032298
v 0.001745 -0.225308 0.011788
v 0.002137 -0.272313 0.030212
v -0.020905 -0.225492 0.020829
v -0.002898 -0.272354 0.032298
v -0.030286 -0.225560 0.042657
v -0.004985 -0.272369 0.037334
v -0.020904 -0.225470 0.064483
v -0.002898 -0.272349 0.042371
v 0.001746 -0.225277 0.073524
v 0.002138 -0.272306 0.044457
v 0.024395 -0.225092 0.064482
v 0.007174 -0.272265 0.042370
v 0.029936 -0.203722 0.014342
v 0.041687 -0.203611 0.039941
v 0.001566 -0.203964 0.003739
v -0.026803 -0.204196 0.014343
v -0.038553 -0.204281 0.039943
v -0.026802 -0.204170 0.065542
v 0.001568 -0.203927 0.076146
v 0.029937 -0.203696 0.065541
v 0.038570 -0.164142 -0.011033
v 0.054035 -0.163994 0.027087
v 0.001236 -0.164462 -0.026822
v -0.036098 -0.164765 -0.011031
v -0.051561 -0.164875 0.027090
v -0.036096 -0.164727 0.065209
v 0.001238 -0.164407 0.080998
v 0.038571 -0.164104 0.065207
v 0.037786 -0.063380 -0.014616
v 0.053276 -0.063230 0.025863
v 0.000395 -0.063700 -0.031382
v -0.036997 -0.064004 -0.014614
v -0.052484 -0.064113 0.025865
v -0.036995 -0.063963 0.066343
v 0.000397 -0.063642 0.083109
v 0.037788 -0.063339 0.066341
v 0.033272 -0.023550 -0.008191
v 0.047028 -0.023416 0.028699
v 0.000062 -0.023835 -0.023470
v -0.033147 -0.024104 -0.008189
v -0.046902 -0.024200 0.028701
v -0.033146 -0.024067 0.065590
v 0.000064 -0.023782 0.080869
v 0.033273 -0.023512 0.065588
v 0.030418 0.001632 0.005183
v 0.043078 0.001753 0.035945
v -0.000148 0.001370 -0.007559
v -0.030714 0.001121 0.005185
v -0.043373 0.001031 0.035948
v -0.030712 0.001152 0.066711
v -0.000146 0.001414 0.079453
v 0.030419 0.001663 0.066709
v 0.000188 0.262910 0.023862
v 0.001231 0.262920 0.026379
v -0.002330 0.262888 0.022818
v -0.004849 0.262868 0.023862
v -0.005891 0.262860 0.026379
v -0.004849 0.262870 0.028898
v -0.002330 0.262892 0.029941
v 0.000188 0.262912 0.028898
v -0.001438 0.156060 0.029995
v -0.000306 0.230091 -0.076878
v -0.002035 0.227228 -0.076876
v 0.001804 0.161430 0.029992
v 0.000109 0.232943 -0.076879
v 0.002581 0.166778 0.029990
v 0.000524 0.235796 -0.076881
v 0.003359 0.172126 0.029987
v 0.000609 0.238646 -0.076882
v 0.003519 0.177470 0.029984
v 0.000671 0.244344 -0.076885
v 0.003636 0.188154 0.029979
v 0.000310 0.261436 -0.076894
v 0.002957 0.220201 0.029962
v -0.002511 0.284204 -0.076905
v -0.004950 0.261392 -0.076893
v -0.006904 0.220118 0.029963
v -0.005026 0.244297 -0.076885
v -0.007048 0.188065 0.029979
v -0.004869 0.238600 -0.076882
v -0.006752 0.177384 0.029984
v -0.004736 0.235752 -0.076880
v -0.006503 0.172044 0.029987
v -0.004274 0.232907 -0.076879
v -0.005636 0.166710 0.029990
v -0.003812 0.230062 -0.076878
v -0.004770 0.161375 0.029992
v -0.000544 -0.164455 0.015912
v 0.010139 -0.164366 0.015912
v -0.000722 -0.143089 0.015901
v 0.009961 -0.143000 0.015901
v -0.000722 -0.143098 -0.001904
v -0.000544 -0.164464 -0.001893
v 0.010139 -0.164375 -0.001894
v 0.009960 -0.143009 -0.001904
v 0.253433 -0.029356 -0.043497
v 0.499672 -0.033802 -0.061230
v 0.253230 -0.005042 -0.047157
v 0.253858 -0.080352 -0.038254
v 0.500027 -0.076353 -0.057257
v 0.253706 -0.062115 -0.038567
v 0.254102 -0.109483 -0.037981
v 0.500217 -0.099149 -0.057094
v 0.254064 -0.104923 -0.037832
v 0.254191 -0.120185 -0.038332
v 0.500293 -0.108268 -0.057393
v 0.254153 -0.115625 -0.038183
v 0.254268 -0.129367 -0.039141
v 0.500357 -0.115867 -0.058149
v 0.254242 -0.126327 -0.038534
v 0.254327 -0.136503 -0.040563
v 0.500407 -0.121946 -0.059362
v 0.254302 -0.133463 -0.039957
v 0.254387 -0.143639 -0.043507
v 0.500458 -0.128027 -0.062094
v 0.254361 -0.140598 -0.041381
v 0.254421 -0.147736 -0.046979
v 0.500483 -0.131068 -0.064829
v 0.254421 -0.147735 -0.046372
v 0.254395 -0.144698 -0.049927
v 0.500458 -0.128030 -0.067565
v 0.254421 -0.147736 -0.047799
v 0.254336 -0.137565 -0.053406
v 0.500407 -0.121952 -0.070304
v 0.254361 -0.140604 -0.052796
v 0.254276 -0.130431 -0.054837
v 0.500356 -0.115873 -0.071523
v 0.254301 -0.133470 -0.054227
v 0.254216 -0.123297 -0.055811
v 0.500306 -0.109795 -0.072286
v 0.254242 -0.126336 -0.055658
v 0.254132 -0.113123 -0.056173
v 0.500230 -0.100677 -0.072595
v 0.254182 -0.119201 -0.056018
v 0.253911 -0.086695 -0.056088
v 0.500027 -0.076361 -0.072455
v 0.254063 -0.104933 -0.056382
v 0.253503 -0.037806 -0.052055
v 0.499671 -0.033806 -0.068525
v 0.253706 -0.062124 -0.055690
v 0.007264 -0.033355 -0.024494
v 0.007743 -0.090685 -0.019141
v 0.007999 -0.121399 -0.018920
v 0.008102 -0.133685 -0.019324
v 0.008187 -0.143924 -0.020342
v 0.008256 -0.152115 -0.021976
v 0.008324 -0.160306 -0.025658
v 0.008358 -0.164404 -0.029341
v 0.008324 -0.160310 -0.033029
v 0.008255 -0.152122 -0.036719
v 0.008187 -0.143933 -0.038362
v 0.008118 -0.135743 -0.039390
v 0.008016 -0.123457 -0.039806
v 0.007742 -0.090696 -0.039618
v 0.007264 -0.033360 -0.034322
v -0.253182 -0.033584 -0.043485
v -0.499314 -0.042141 -0.061205
v -0.253385 -0.009271 -0.047144
v -0.252756 -0.084581 -0.038241
v -0.498958 -0.084692 -0.057232
v -0.252909 -0.066344 -0.038554
v -0.252513 -0.113711 -0.037968
v -0.498768 -0.107488 -0.057069
v -0.252551 -0.109152 -0.037819
v -0.252424 -0.124413 -0.038319
v -0.498692 -0.116606 -0.057368
v -0.252462 -0.119854 -0.038170
v -0.252347 -0.133596 -0.039128
v -0.498628 -0.124205 -0.058124
v -0.252373 -0.130556 -0.038521
v -0.252288 -0.140732 -0.040551
v -0.498578 -0.130285 -0.059336
v -0.252313 -0.137692 -0.039944
v -0.252228 -0.147867 -0.043494
v -0.498527 -0.136365 -0.062069
v -0.252254 -0.144827 -0.041368
v -0.252194 -0.151964 -0.046967
v -0.498502 -0.139406 -0.064803
v -0.252194 -0.151964 -0.046359
v -0.252220 -0.148926 -0.049915
v -0.498527 -0.136368 -0.067540
v -0.252194 -0.151965 -0.047786
v -0.252279 -0.141793 -0.053393
v -0.498578 -0.130291 -0.070279
v -0.252254 -0.144833 -0.052783
v -0.252339 -0.134660 -0.054824
v -0.498629 -0.124212 -0.071498
v -0.252313 -0.137699 -0.054215
v -0.252398 -0.127525 -0.055799
v -0.498680 -0.118133 -0.072261
v -0.252373 -0.130565 -0.055645
v -0.252483 -0.117352 -0.056160
v -0.498756 -0.109015 -0.072570
v -0.252433 -0.123430 -0.056005
v -0.252704 -0.090924 -0.056075
v -0.498959 -0.084700 -0.072430
v -0.252552 -0.109162 -0.056370
v -0.253112 -0.042035 -0.052042
v -0.499314 -0.042144 -0.068500
v -0.252909 -0.066353 -0.055678
v -0.006980 -0.033474 -0.024493
v -0.006502 -0.090804 -0.019141
v -0.006245 -0.121518 -0.018920
v -0.006143 -0.133804 -0.019323
v -0.006057 -0.144042 -0.020342
v -0.005989 -0.152233 -0.021976
v -0.005921 -0.160425 -0.025657
v -0.005887 -0.164523 -0.029341
v -0.005921 -0.160429 -0.033029
v -0.005989 -0.152241 -0.036719
v -0.006058 -0.144052 -0.038362
v -0.006126 -0.135862 -0.039389
v -0.006229 -0.123576 -0.039805
v -0.006502 -0.090815 -0.039617
v -0.006981 -0.033479 -0.034322
v 0.086939 0.234429 0.017418
v 0.175995 0.231611 0.017417
v 0.086844 0.245823 0.015703
v 0.087165 0.207366 0.020352
v 0.176161 0.211670 0.019279
v 0.087094 0.215913 0.020205
v 0.087299 0.191341 0.020520
v 0.176251 0.200986 0.019356
v 0.087281 0.193478 0.020590
v 0.087346 0.185732 0.020336
v 0.176286 0.196713 0.019216
v 0.087328 0.187869 0.020406
v 0.087387 0.180835 0.019938
v 0.176316 0.193152 0.018861
v 0.087375 0.182260 0.020222
v 0.087418 0.177096 0.019193
v 0.176340 0.190303 0.018293
v 0.087406 0.178521 0.019476
v 0.087449 0.173357 0.017734
v 0.176364 0.187453 0.017013
v 0.087437 0.174782 0.018731
v 0.087468 0.171041 0.015829
v 0.176375 0.186028 0.015731
v 0.087468 0.171041 0.016114
v 0.087457 0.172464 0.014369
v 0.176363 0.187452 0.014449
v 0.087468 0.171040 0.015367
v 0.087425 0.176203 0.012462
v 0.176340 0.190300 0.013165
v 0.087437 0.174779 0.012747
v 0.087394 0.179941 0.011712
v 0.176316 0.193148 0.012594
v 0.087406 0.178517 0.011998
v 0.087363 0.183680 0.011176
v 0.176292 0.195997 0.012236
v 0.087375 0.182255 0.011248
v 0.087320 0.188844 0.010986
v 0.176256 0.200270 0.012092
v 0.087343 0.185995 0.011059
v 0.087210 0.202020 0.011006
v 0.176161 0.211666 0.012157
v 0.087281 0.193473 0.010868
v 0.086999 0.227304 0.012934
v 0.175995 0.231609 0.013999
v 0.087094 0.215908 0.011231
v -0.002057 0.230125 0.018490
v -0.001786 0.197721 0.021516
v -0.001641 0.180361 0.021640
v -0.001583 0.173416 0.021413
v -0.001535 0.167629 0.020837
v -0.001496 0.163000 0.019914
v -0.001458 0.158369 0.017832
v -0.001439 0.156053 0.015750
v -0.001458 0.158367 0.013666
v -0.001497 0.162996 0.011580
v -0.001535 0.167624 0.010652
v -0.001574 0.172253 0.010071
v -0.001632 0.179198 0.009836
v -0.001786 0.197715 0.009942
v -0.002057 0.230122 0.012935
v -0.091112 0.232943 0.017422
v -0.180109 0.228638 0.017426
v -0.091208 0.244337 0.015707
v -0.090886 0.205880 0.020356
v -0.179942 0.208697 0.019288
v -0.090958 0.214426 0.020210
v -0.090753 0.189855 0.020525
v -0.179853 0.198014 0.019365
v -0.090770 0.191992 0.020595
v -0.090706 0.184246 0.020341
v -0.179817 0.193740 0.019225
v -0.090724 0.186383 0.020411
v -0.090665 0.179349 0.019942
v -0.179787 0.190179 0.018870
v -0.090677 0.180774 0.020227
v -0.090634 0.175610 0.019197
v -0.179764 0.187330 0.018302
v -0.090646 0.177035 0.019481
v -0.090603 0.171870 0.017738
v -0.179740 0.184481 0.017022
v -0.090614 0.173295 0.018735
v -0.090583 0.169555 0.015834
v -0.179728 0.183056 0.015740
v -0.090583 0.169555 0.016119
v -0.090595 0.170978 0.014374
v -0.179740 0.184480 0.014458
v -0.090583 0.169554 0.015371
v -0.090626 0.174717 0.012466
v -0.179764 0.187328 0.013174
v -0.090615 0.173292 0.012752
v -0.090658 0.178455 0.011717
v -0.179788 0.190176 0.012603
v -0.090646 0.177031 0.012002
v -0.090689 0.182194 0.011181
v -0.179811 0.193024 0.012245
v -0.090677 0.180769 0.011252
v -0.090732 0.187358 0.010991
v -0.179847 0.197298 0.012101
v -0.090708 0.184508 0.011064
v -0.090842 0.200534 0.011011
v -0.179942 0.208694 0.012166
v -0.090771 0.191987 0.010873
v -0.091053 0.225818 0.012939
v -0.180109 0.228637 0.014008
v -0.090958 0.214422 0.011235
v 0.016827 -0.248682 0.029081
v 0.029086 -0.225070 0.031742
v 0.021518 -0.248637 0.039995
v 0.004459 -0.248789 0.022043
v 0.013069 -0.225211 0.016308
v 0.015784 -0.248692 0.026563
v -0.009384 -0.248903 0.025521
v -0.009580 -0.225400 0.016309
v 0.001941 -0.248810 0.021000
v -0.016592 -0.248957 0.037477
v -0.025596 -0.225526 0.031743
v -0.011902 -0.248923 0.026564
v -0.012944 -0.248919 0.050909
v -0.025595 -0.225515 0.053570
v -0.017636 -0.248964 0.039996
v -0.000576 -0.248813 0.057947
v -0.009579 -0.225373 0.069004
v -0.011901 -0.248909 0.053427
v 0.013266 -0.248699 0.054469
v 0.013071 -0.225184 0.069003
v 0.001942 -0.248791 0.058991
v 0.020475 -0.248645 0.042513
v 0.029086 -0.225058 0.053569
v 0.015784 -0.248678 0.053426
v 0.031856 -0.214373 0.028498
v 0.035811 -0.203666 0.027141
v 0.037732 -0.214318 0.041298
v 0.012980 -0.214539 0.012284
v 0.015751 -0.203843 0.009040
v 0.027165 -0.214418 0.017585
v -0.012529 -0.214752 0.013066
v -0.012618 -0.204080 0.009041
v 0.001655 -0.214636 0.007764
v -0.029729 -0.214887 0.030386
v -0.032678 -0.204238 0.027143
v -0.023854 -0.214844 0.017586
v -0.028544 -0.214865 0.054099
v -0.032677 -0.204225 0.052743
v -0.034420 -0.214920 0.041300
v -0.009668 -0.214699 0.070315
v -0.012617 -0.204049 0.070844
v -0.023853 -0.214820 0.065013
v 0.015841 -0.214486 0.069533
v 0.015752 -0.203812 0.070843
v 0.001657 -0.214602 0.074835
v 0.033041 -0.214352 0.052212
v 0.035812 -0.203653 0.052741
v 0.027166 -0.214394 0.065011
v 0.040128 -0.183877 0.014454
v 0.046302 -0.164068 0.008027
v 0.047861 -0.183802 0.033514
v 0.015586 -0.184092 -0.006240
v 0.019903 -0.164302 -0.018927
v 0.034253 -0.183932 0.001654
v -0.017266 -0.184365 -0.003646
v -0.017431 -0.164614 -0.018926
v 0.001401 -0.184213 -0.011541
v -0.039182 -0.184535 0.020716
v -0.043829 -0.164820 0.008030
v -0.031450 -0.184481 0.001656
v -0.037325 -0.184504 0.052576
v -0.043829 -0.164801 0.046150
v -0.045057 -0.184578 0.033517
v -0.012782 -0.184288 0.073270
v -0.017429 -0.164567 0.073103
v -0.031449 -0.184448 0.065376
v 0.020070 -0.184016 0.070676
v 0.019905 -0.164255 0.073103
v 0.001403 -0.184167 0.078572
v 0.041986 -0.183845 0.046314
v 0.046303 -0.164049 0.046147
v 0.034254 -0.183900 0.065374
v 0.045911 -0.113687 0.006236
v 0.045531 -0.063305 0.005623
v 0.053655 -0.113612 0.026475
v 0.019482 -0.113921 -0.021207
v 0.019090 -0.063540 -0.022999
v 0.038178 -0.113761 -0.012824
v -0.017880 -0.114233 -0.020718
v -0.018301 -0.063852 -0.022998
v 0.000815 -0.114081 -0.029102
v -0.044291 -0.114439 0.007417
v -0.044740 -0.064058 0.005626
v -0.036547 -0.114385 -0.012823
v -0.044278 -0.114419 0.046717
v -0.044740 -0.064038 0.046104
v -0.052023 -0.114494 0.026478
v -0.017850 -0.114185 0.074159
v -0.018299 -0.063803 0.074726
v -0.036545 -0.114345 0.065776
v 0.019513 -0.113873 0.073670
v 0.019093 -0.063490 0.074725
v 0.000817 -0.114025 0.082053
v 0.045924 -0.113667 0.045535
v 0.045532 -0.063284 0.046102
v 0.038180 -0.113721 0.065774
v 0.043274 -0.043390 0.008836
v 0.040150 -0.023483 0.010254
v 0.050152 -0.043323 0.027281
v 0.018924 -0.043607 -0.019043
v 0.016667 -0.023692 -0.015830
v 0.035529 -0.043465 -0.011404
v -0.016376 -0.043902 -0.019786
v -0.016543 -0.023969 -0.015830
v 0.000228 -0.043767 -0.027426
v -0.041949 -0.044102 0.007044
v -0.040024 -0.024152 0.010256
v -0.035072 -0.044054 -0.011402
v -0.042815 -0.044090 0.045728
v -0.040024 -0.024133 0.047146
v -0.049693 -0.044156 0.027283
v -0.018465 -0.043872 0.073606
v -0.016541 -0.023924 0.073229
v -0.035070 -0.044015 0.065967
v 0.016835 -0.043577 0.074349
v 0.016669 -0.023647 0.073229
v 0.000231 -0.043712 0.081989
v 0.042408 -0.043377 0.047520
v 0.040151 -0.023464 0.047144
v 0.035531 -0.043425 0.065965
v 0.038723 -0.010892 0.016941
v 0.036748 0.001692 0.020564
v 0.045053 -0.010832 0.032322
v 0.016562 -0.011090 -0.007875
v 0.015135 0.001501 -0.001188
v 0.031845 -0.010959 -0.001504
v -0.015326 -0.011357 -0.009143
v -0.015431 0.001246 -0.001187
v -0.000043 -0.011232 -0.015515
v -0.038260 -0.011536 0.013879
v -0.037043 0.001076 0.020566
v -0.031930 -0.011491 -0.001502
v -0.038807 -0.011524 0.047706
v -0.037042 0.001092 0.051329
v -0.045137 -0.011584 0.032324
v -0.016646 -0.011326 0.072522
v -0.015429 0.001283 0.073082
v -0.031929 -0.011457 0.066150
v 0.015242 -0.011060 0.073789
v 0.015137 0.001538 0.073081
v -0.000041 -0.011184 0.080161
v 0.038176 -0.010880 0.050767
v 0.036749 0.001708 0.051327
v 0.031846 -0.010925 0.066149
v 0.021633 0.132331 0.029904
v 0.000709 0.262915 0.025120
v 0.022155 0.132336 0.031162
v 0.014044 0.132260 0.014001
v -0.001071 0.262899 0.023340
v 0.015303 0.132271 0.014522
v -0.002498 0.132119 0.008151
v -0.003589 0.262878 0.023340
v -0.001239 0.132129 0.007630
v -0.018302 0.131991 0.015782
v -0.005370 0.262864 0.025121
v -0.017781 0.131994 0.014523
v -0.024111 0.131951 0.032423
v -0.005370 0.262865 0.027639
v -0.024632 0.131946 0.031163
v -0.016521 0.132022 0.048326
v -0.003589 0.262881 0.029419
v -0.017780 0.132011 0.047804
v 0.000021 0.132163 0.054175
v -0.001071 0.262902 0.029419
v -0.001238 0.132153 0.054697
v 0.015825 0.132291 0.046544
v 0.000710 0.262916 0.027638
v 0.015304 0.132287 0.047803
v 0.008217 -0.272260 0.034816
v 0.004655 -0.272291 0.031255
v -0.000381 -0.272333 0.031255
v -0.003942 -0.272361 0.034816
v -0.003941 -0.272359 0.039853
v -0.000380 -0.272327 0.043414
v 0.004656 -0.272285 0.043414
v 0.008217 -0.272257 0.039852
v -0.000872 0.193076 -0.023441
v -0.001170 0.228659 -0.076877
v -0.001737 0.191644 -0.023441
v 0.000957 0.197186 -0.023443
v -0.000098 0.231517 -0.076878
v 0.000749 0.195760 -0.023443
v 0.001552 0.201287 -0.023446
v 0.000316 0.234369 -0.076880
v 0.001345 0.199861 -0.023445
v 0.001984 0.205386 -0.023448
v 0.000566 0.237221 -0.076881
v 0.001941 0.203961 -0.023447
v 0.002095 0.210907 -0.023450
v 0.000640 0.241495 -0.076883
v 0.002064 0.208058 -0.023449
v 0.001973 0.224795 -0.023457
v 0.000490 0.252890 -0.076889
v 0.002154 0.216249 -0.023453
v 0.000223 0.252202 -0.023471
v -0.001100 0.272820 -0.076899
v 0.001634 0.240818 -0.023466
v -0.003640 0.262142 -0.023476
v -0.003730 0.272798 -0.076899
v -0.002420 0.273548 -0.023482
v -0.005965 0.232208 -0.023461
v -0.004988 0.252844 -0.076889
v -0.005927 0.240755 -0.023465
v -0.005959 0.213333 -0.023451
v -0.004948 0.241449 -0.076883
v -0.006037 0.216181 -0.023453
v -0.005744 0.206568 -0.023448
v -0.004803 0.237176 -0.076881
v -0.005811 0.207992 -0.023449
v -0.005388 0.202475 -0.023446
v -0.004505 0.234329 -0.076880
v -0.005620 0.203898 -0.023447
v -0.004724 0.198386 -0.023444
v -0.004043 0.231484 -0.076878
v -0.004955 0.199808 -0.023445
v -0.003403 0.194301 -0.023442
v -0.002923 0.228645 -0.076877
v -0.004291 0.195718 -0.023443
v 0.000183 0.158745 0.029994
v 0.002193 0.164104 0.029991
v 0.002970 0.169452 0.029988
v 0.003439 0.174798 0.029985
v 0.003578 0.182812 0.029981
v 0.003297 0.204178 0.029971
v 0.000314 0.241546 0.029952
v -0.004617 0.241505 0.029952
v -0.006976 0.204092 0.029971
v -0.006900 0.182725 0.029982
v -0.006628 0.174714 0.029986
v -0.006069 0.169377 0.029988
v -0.005203 0.164042 0.029991
v -0.003104 0.158718 0.029994
v 0.004798 -0.164410 0.015912
v 0.004709 -0.153728 0.015907
v -0.000633 -0.153772 0.015907
v 0.010050 -0.153683 0.015907
v 0.004619 -0.143045 0.015901
v -0.000633 -0.153777 0.007004
v -0.000633 -0.153781 -0.001899
v -0.000544 -0.164460 0.007009
v -0.000722 -0.143094 0.006999
v 0.004798 -0.164415 0.007009
v 0.004797 -0.164420 -0.001894
v 0.010139 -0.164370 0.007009
v 0.010050 -0.153692 -0.001899
v 0.010050 -0.153688 0.007004
v 0.009961 -0.143005 0.006998
v 0.004619 -0.143049 0.006999
v 0.004619 -0.143054 -0.001904
v 0.004708 -0.153737 -0.001899
f 1 205 207
f 205 2 206
f 206 3 207
f 205 206 207
f 4 208 210
f 208 5 209
f 209 2 210
f 208 209 210
f 6 211 213
f 211 7 212
f 212 5 213
f 211 212 213
f 8 214 216
f 214 9 215
f 215 7 216
f 214 215 216
f 10 217 219
f 217 11 218
f 218 9 219
f 217 218 219
f 12 220 222
f 220 13 221
f 221 11 222
f 220 221 222
f 14 223 225
f 223 15 224
f 224 13 225
f 223 224 225
f 16 226 228
f 226 17 227
f 227 15 228
f 226 227 228
f 18 229 231
f 229 19 230
f 230 17 231
f 229 230 231
f 20 232 234
f 232 21 233
f 233 19 234
f 232 233 234
f 22 235 237
f 235 23 236
f 236 21 237
f 235 236 237
f 24 238 240
f 238 25 239
f 239 23 240
f 238 239 240
f 26 241 243
f 241 27 242
f 242 25 243
f 241 242 243
f 28 244 246
f 244 29 245
f 245 27 246
f 244 245 246
f 30 247 249
f 247 3 248
f 248 29 249
f 247 248 249
f 1 250 205
f 250 4 210
f 210 2 205
f 250 210 205
f 4 251 208
f 251 6 213
f 213 5 208
f 251 213 208
f 6 252 211
f 252 8 216
f 216 7 211
f 252 216 211
f 8 253 214
f 253 10 219
f 219 9 214
f 253 219 214
f 10 254 217
f 254 12 222
f 222 11 217
f 254 222 217
f 12 255 220
f 255 14 225
f 225 13 220
f 255 225 220
f 14 256 223
f 256 16 228
f 228 15 223
f 256 228 223
f 16 257 226
f 257 18 231
f 231 17 226
f 257 231 226
f 18 258 229
f 258 20 234
f 234 19 229
f 258 234 229
f 20 259 232
f 259 22 237
f 237 21 232
f 259 237 232
f 22 260 235
f 260 24 240
f 240 23 235
f 260 240 235
f 24 261 238
f 261 26 243
f 243 25 238
f 261 243 238
f 26 262 241
f 262 28 246
f 246 27 241
f 262 246 241
f 28 263 244
f 263 30 249
f 249 29 244
f 263 249 244
f 30 264 247
f 264 1 207
f 207 3 247
f 264 207 247
f 31 265 267
f 265 32 266
f 266 33 267
f 265 266 267
f 34 268 270
f 268 35 269
f 269 32 270
f 268 269 270
f 36 271 273
f 271 37 272
f 272 35 273
f 271 272 273
f 38 274 276
f 274 39 275
f 275 37 276
f 274 275 276
f 40 277 279
f 277 41 278
f 278 39 279
f 277 278 279
f 42 280 282
f 280 43 281
f 281 41 282
f 280 281 282
f 44 283 285
f 283 45 284
f 284 43 285
f 283 284 285
f 46 286 288
f 286 47 287
f 287 45 288
f 286 287 288
f 48 289 291
f 289 49 290
f 290 47 291
f 289 290 291
f 50 292 294
f 292 51 293
f 293 49 294
f 292 293 294
f 52 295 297
f 295 53 296
f 296 51 297
f 295 296 297
f 54 298 300
f 298 55 299
f 299 53 300
f 298 299 300
f 56 301 303
f 301 57 302
f 302 55 303
f 301 302 303
f 58 304 306
f 304 59 305
f 305 57 306
f 304 305 306
f 60 307 309
f 307 33 308
f 308 59 309
f 307 308 309
f 31 310 265
f 310 34 270
f 270 32 265
f 310 270 265
f 34 311 268
f 311 36 273
f 273 35 268
f 311 273 268
f 36 312 271
f 312 38 276
f 276 37 271
f 312 276 271
f 38 313 274
f 313 40 279
f 279 39 274
f 313 279 274
f 40 314 277
f 314 42 282
f 282 41 277
f 314 282 277
f 42 315 280
f 315 44 285
f 285 43 280
f 315 285 280
f 44 316 283
f 316 46 288
f 288 45 283
f 316 288 283
f 46 317 286
f 317 48 291
f 291 47 286
f 317 291 286
f 48 318 289
f 318 50 294
f 294 49 289
f 318 294 289
f 50 319 292
f 319 52 297
f 297 51 292
f 319 297 292
f 52 320 295
f 320 54 300
f 300 53 295
f 320 300 295
f 54 321 298
f 321 56 303
f 303 55 298
f 321 303 298
f 56 322 301
f 322 58 306
f 306 57 301
f 322 306 301
f 58 323 304
f 323 60 309
f 309 59 304
f 323 309 304
f 60 324 307
f 324 31 267
f 267 33 307
f 324 267 307
f 61 325 327
f 325 62 326
f 326 63 327
f 325 326 327
f 64 328 330
f 328 65 329
f 329 62 330
f 328 329 330
f 66 331 333
f 331 67 332
f 332 65 333
f 331 332 333
f 68 334 336
f 334 69 335
f 335 67 336
f 334 335 336
f 70 337 339
f 337 71 338
f 338 69 339
f 337 338 339
f 72 340 342
f 340 73 341
f 341 71 342
f 340 341 342
f 74 343 345
f 343 75 344
f 344 73 345
f 343 344 345
f 76 346 348
f 346 77 347
f 347 75 348
f 346 347 348
f 78 349 351
f 349 79 350
f 350 77 351
f 349 350 351
f 80 352 354
f 352 81 353
f 353 79 354
f 352 353 354
f 82 355 357
f 355 83 356
f 356 81 357
f 355 356 357
f 84 358 360
f 358 85 359
f 359 83 360
f 358 359 360
f 86 361 363
f 361 87 362
f 362 85 363
f 361 362 363
f 88 364 366
f 364 89 365
f 365 87 366
f 364 365 366
f 90 367 369
f 367 63 368
f 368 89 369
f 367 368 369
f 61 370 325
f 370 64 330
f 330 62 325
f 370 330 325
f 64 371 328
f 371 66 333
f 333 65 328
f 371 333 328
f 66 372 331
f 372 68 336
f 336 67 331
f 372 336 331
f 68 373 334
f 373 70 339
f 339 69 334
f 373 339 334
f 70 374 337
f 374 72 342
f 342 71 337
f 374 342 337
f 72 375 340
f 375 74 345
f 345 73 340
f 375 345 340
f 74 376 343
f 376 76 348
f 348 75 343
f 376 348 343
f 76 377 346
f 377 78 351
f 351 77 346
f 377 351 346
f 78 378 349
f 378 80 354
f 354 79 349
f 378 354 349
f 80 379 352
f 379 82 357
f 357 81 352
f 379 357 352
f 82 380 355
f 380 84 360
f 360 83 355
f 380 360 355
f 84 381 358
f 381 86 363
f 363 85 358
f 381 363 358
f 86 382 361
f 382 88 366
f 366 87 361
f 382 366 361
f 88 383 364
f 383 90 369
f 369 89 364
f 383 369 364
f 90 384 367
f 384 61 327
f 327 63 367
f 384 327 367
f 61 385 387
f 385 91 386
f 386 92 387
f 385 386 387
f 64 388 390
f 388 93 389
f 389 91 390
f 388 389 390
f 66 391 393
f 391 94 392
f 392 93 393
f 391 392 393
f 68 394 396
f 394 95 395
f 395 94 396
f 394 395 396
f 70 397 399
f 397 96 398
f 398 95 399
f 397 398 399
f 72 400 402
f 400 97 401
f 401 96 402
f 400 401 402
f 74 403 405
f 403 98 404
f 404 97 405
f 403 404 405
f 76 406 408
f 406 99 407
f 407 98 408
f 406 407 408
f 78 409 411
f 409 100 410
f 410 99 411
f 409 410 411
f 80 412 414
f 412 101 413
f 413 100 414
f 412 413 414
f 82 415 417
f 415 102 416
f 416 101 417
f 415 416 417
f 84 418 420
f 418 103 419
f 419 102 420
f 418 419 420
f 86 421 423
f 421 104 422
f 422 103 423
f 421 422 423
f 88 424 426
f 424 105 425
f 425 104 426
f 424 425 426
f 90 427 429
f 427 92 428
f 428 105 429
f 427 428 429
f 61 370 385
f 370 64 390
f 390 91 385
f 370 390 385
f 64 371 388
f 371 66 393
f 393 93 388
f 371 393 388
f 66 372 391
f 372 68 396
f 396 94 391
f 372 396 391
f 68 373 394
f 373 70 399
f 399 95 394
f 373 399 394
f 70 374 397
f 374 72 402
f 402 96 397
f 374 402 397
f 72 375 400
f 375 74 405
f 405 97 400
f 375 405 400
f 74 376 403
f 376 76 408
f 408 98 403
f 376 408 403
f 76 377 406
f 377 78 411
f 411 99 406
f 377 411 406
f 78 378 409
f 378 80 414
f 414 100 409
f 378 414 409
f 80 379 412
f 379 82 417
f 417 101 412
f 379 417 412
f 82 380 415
f 380 84 420
f 420 102 415
f 380 420 415
f 84 381 418
f 381 86 423
f 423 103 418
f 381 423 418
f 86 382 421
f 382 88 426
f 426 104 421
f 382 426 421
f 88 383 424
f 383 90 429
f 429 105 424
f 383 429 424
f 90 384 427
f 384 61 387
f 387 92 427
f 384 387 427
f 106 430 432
f 430 107 431
f 431 108 432
f 430 431 432
f 109 433 435
f 433 110 434
f 434 107 435
f 433 434 435
f 111 436 438
f 436 112 437
f 437 110 438
f 436 437 438
f 113 439 441
f 439 114 440
f 440 112 441
f 439 440 441
f 115 442 444
f 442 116 443
f 443 114 444
f 442 443 444
f 117 445 447
f 445 118 446
f 446 116 447
f 445 446 447
f 119 448 450
f 448 120 449
f 449 118 450
f 448 449 450
f 121 451 453
f 451 108 452
f 452 120 453
f 451 452 453
f 108 454 456
f 454 122 455
f 455 123 456
f 454 455 456
f 107 457 459
f 457 124 458
f 458 122 459
f 457 458 459
f 110 460 462
f 460 125 461
f 461 124 462
f 460 461 462
f 112 463 465
f 463 126 464
f 464 125 465
f 463 464 465
f 114 466 468
f 466 127 467
f 467 126 468
f 466 467 468
f 116 469 471
f 469 128 470
f 470 127 471
f 469 470 471
f 118 472 474
f 472 129 473
f 473 128 474
f 472 473 474
f 120 475 477
f 475 123 476
f 476 129 477
f 475 476 477
f 123 478 480
f 478 130 479
f 479 131 480
f 478 479 480
f 122 481 483
f 481 132 482
f 482 130 483
f 481 482 483
f 124 484 486
f 484 133 485
f 485 132 486
f 484 485 486
f 125 487 489
f 487 134 488
f 488 133 489
f 487 488 489
f 126 490 492
f 490 135 491
f 491 134 492
f 490 491 492
f 127 493 495
f 493 136 494
f 494 135 495
f 493 494 495
f 128 496 498
f 496 137 497
f 497 136 498
f 496 497 498
f 129 499 501
f 499 131 500
f 500 137 501
f 499 500 501
f 131 502 504
f 502 138 503
f 503 139 504
f 502 503 504
f 130 505 507
f 505 140 506
f 506 138 507
f 505 506 507
f 132 508 510
f 508 141 509
f 509 140 510
f 508 509 510
f 133 511 513
f 511 142 512
f 512 141 513
f 511 512 513
f 134 514 516
f 514 143 515
f 515 142 516
f 514 515 516
f 135 517 519
f 517 144 518
f 518 143 519
f 517 518 519
f 136 520 522
f 520 145 521
f 521 144 522
f 520 521 522
f 137 523 525
f 523 139 524
f 524 145 525
f 523 524 525
f 139 526 528
f 526 146 527
f 527 147 528
f 526 527 528
f 138 529 531
f 529 148 530
f 530 146 531
f 529 530 531
f 140 532 534
f 532 149 533
f 533 148 534
f 532 533 534
f 141 535 537
f 535 150 536
f 536 149 537
f 535 536 537
f 142 538 540
f 538 151 539
f 539 150 540
f 538 539 540
f 143 541 543
f 541 152 542
f 542 151 543
f 541 542 543
f 144 544 546
f 544 153 545
f 545 152 546
f 544 545 546
f 145 547 549
f 547 147 548
f 548 153 549
f 547 548 549
f 147 550 552
f 550 154 551
f 551 155 552
f 550 551 552
f 146 553 555
f 553 156 554
f 554 154 555
f 553 554 555
f 148 556 558
f 556 157 557
f 557 156 558
f 556 557 558
f 149 559 561
f 559 158 560
f 560 157 561
f 559 560 561
f 150 562 564
f 562 159 563
f 563 158 564
f 562 563 564
f 151 565 567
f 565 160 566
f 566 159 567
f 565 566 567
f 152 568 570
f 568 161 569
f 569 160 570
f 568 569 570
f 153 571 573
f 571 155 572
f 572 161 573
f 571 572 573
f 155 574 576
f 574 162 575
f 575 163 576
f 574 575 576
f 154 577 579
f 577 164 578
f 578 162 579
f 577 578 579
f 156 580 582
f 580 165 581
f 581 164 582
f 580 581 582
f 157 583 585
f 583 166 584
f 584 165 585
f 583 584 585
f 158 586 588
f 586 167 587
f 587 166 588
f 586 587 588
f 159 589 591
f 589 168 590
f 590 167 591
f 589 590 591
f 160 592 594
f 592 169 593
f 593 168 594
f 592 593 594
f 161 595 597
f 595 163 596
f 596 169 597
f 595 596 597
f 106 598 430
f 598 109 435
f 435 107 430
f 598 435 430
f 109 599 433
f 599 111 438
f 438 110 433
f 599 438 433
f 111 600 436
f 600 113 441
f 441 112 436
f 600 441 436
f 113 601 439
f 601 115 444
f 444 114 439
f 601 444 439
f 115 602 442
f 602 117 447
f 447 116 442
f 602 447 442
f 117 603 445
f 603 119 450
f 450 118 445
f 603 450 445
f 119 604 448
f 604 121 453
f 453 120 448
f 604 453 448
f 121 605 451
f 605 106 432
f 432 108 451
f 605 432 451
f 108 431 454
f 431 107 459
f 459 122 454
f 431 459 454
f 107 434 457
f 434 110 462
f 462 124 457
f 434 462 457
f 110 437 460
f 437 112 465
f 465 125 460
f 437 465 460
f 112 440 463
f 440 114 468
f 468 126 463
f 440 468 463
f 114 443 466
f 443 116 471
f 471 127 466
f 443 471 466
f 116 446 469
f 446 118 474
f 474 128 469
f 446 474 469
f 118 449 472
f 449 120 477
f 477 129 472
f 449 477 472
f 120 452 475
f 452 108 456
f 456 123 475
f 452 456 475
f 123 455 478
f 455 122 483
f 483 130 478
f 455 483 478
f 122 458 481
f 458 124 486
f 486 132 481
f 458 486 481
f 124 461 484
f 461 125 489
f 489 133 484
f 461 489 484
f 125 464 487
f 464 126 492
f 492 134 487
f 464 492 487
f 126 467 490
f 467 127 495
f 495 135 490
f 467 495 490
f 127 470 493
f 470 128 498
f 498 136 493
f 470 498 493
f 128 473 496
f 473 129 501
f 501 137 496
f 473 501 496
f 129 476 499
f 476 123 480
f 480 131 499
f 476 480 499
f 131 479 502
f 479 130 507
f 507 138 502
f 479 507 502
f 130 482 505
f 482 132 510
f 510 140 505
f 482 510 505
f 132 485 508
f 485 133 513
f 513 141 508
f 485 513 508
f 133 488 511
f 488 134 516
f 516 142 511
f 488 516 511
f 134 491 514
f 491 135 519
f 519 143 514
f 491 519 514
f 135 494 517
f 494 136 522
f 522 144 517
f 494 522 517
f 136 497 520
f 497 137 525
f 525 145 520
f 497 525 520
f 137 500 523
f 500 131 504
f 504 139 523
f 500 504 523
f 139 503 526
f 503 138 531
f 531 146 526
f 503 531 526
f 138 506 529
f 506 140 534
f 534 148 529
f 506 534 529
f 140 509 532
f 509 141 537
f 537 149 532
f 509 537 532
f 141 512 535
f 512 142 540
f 540 150 535
f 512 540 535
f 142 515 538
f 515 143 543
f 543 151 538
f 515 543 538
f 143 518 541
f 518 144 546
f 546 152 541
f 518 546 541
f 144 521 544
f 521 145 549
f 549 153 544
f 521 549 544
f 145 524 547
f 524 139 528
f 528 147 547
f 524 528 547
f 147 527 550
f 527 146 555
f 555 154 550
f 527 555 550
f 146 530 553
f 530 148 558
f 558 156 553
f 530 558 553
f 148 533 556
f 533 149 561
f 561 157 556
f 533 561 556
f 149 536 559
f 536 150 564
f 564 158 559
f 536 564 559
f 150 539 562
f 539 151 567
f 567 159 562
f 539 567 562
f 151 542 565
f 542 152 570
f 570 160 565
f 542 570 565
f 152 545 568
f 545 153 573
f 573 161 568
f 545 573 568
f 153 548 571
f 548 147 552
f 552 155 571
f 548 552 571
f 155 551 574
f 551 154 579
f 579 162 574
f 551 579 574
f 154 554 577
f 554 156 582
f 582 164 577
f 554 582 577
f 156 557 580
f 557 157 585
f 585 165 580
f 557 585 580
f 157 560 583
f 560 158 588
f 588 166 583
f 560 588 583
f 158 563 586
f 563 159 591
f 591 167 586
f 563 591 586
f 159 566 589
f 566 160 594
f 594 168 589
f 566 594 589
f 160 569 592
f 569 161 597
f 597 169 592
f 569 597 592
f 161 572 595
f 572 155 576
f 576 163 595
f 572 576 595
f 170 606 608
f 606 171 607
f 607 172 608
f 606 607 608
f 173 609 611
f 609 174 610
f 610 171 611
f 609 610 611
f 175 612 614
f 612 176 613
f 613 174 614
f 612 613 614
f 177 615 617
f 615 178 616
f 616 176 617
f 615 616 617
f 179 618 620
f 618 180 619
f 619 178 620
f 618 619 620
f 181 621 623
f 621 182 622
f 622 180 623
f 621 622 623
f 183 624 626
f 624 184 625
f 625 182 626
f 624 625 626
f 168 627 629
f 627 185 628
f 628 184 629
f 627 628 629
f 186 630 632
f 630 187 631
f 631 185 632
f 630 631 632
f 188 633 635
f 633 189 634
f 634 187 635
f 633 634 635
f 190 636 638
f 636 191 637
f 637 189 638
f 636 637 638
f 192 639 641
f 639 193 640
f 640 191 641
f 639 640 641
f 194 642 644
f 642 195 643
f 643 193 644
f 642 643 644
f 196 645 647
f 645 172 646
f 646 195 647
f 645 646 647
f 170 648 606
f 648 173 611
f 611 171 606
f 648 611 606
f 173 649 609
f 649 175 614
f 614 174 609
f 649 614 609
f 175 650 612
f 650 177 617
f 617 176 612
f 650 617 612
f 177 651 615
f 651 179 620
f 620 178 615
f 651 620 615
f 179 652 618
f 652 181 623
f 623 180 618
f 652 623 618
f 181 653 621
f 653 183 626
f 626 182 621
f 653 626 621
f 183 654 624
f 654 168 629
f 629 184 624
f 654 629 624
f 168 655 627
f 655 186 632
f 632 185 627
f 655 632 627
f 186 656 630
f 656 188 635
f 635 187 630
f 656 635 630
f 188 657 633
f 657 190 638
f 638 189 633
f 657 638 633
f 190 658 636
f 658 192 641
f 641 191 636
f 658 641 636
f 192 659 639
f 659 194 644
f 644 193 639
f 659 644 639
f 194 660 642
f 660 196 647
f 647 195 642
f 660 647 642
f 196 661 645
f 661 170 608
f 608 172 645
f 661 608 645
f 197 662 664
f 662 198 663
f 663 199 664
f 662 663 664
f 199 663 666
f 663 198 665
f 665 200 666
f 663 665 666
f 197 667 669
f 667 201 668
f 668 202 669
f 667 668 669
f 197 664 667
f 664 199 670
f 670 201 667
f 664 670 667
f 197 669 662
f 669 202 671
f 671 198 662
f 669 671 662
f 198 671 673
f 671 202 672
f 672 203 673
f 671 672 673
f 198 673 675
f 673 203 674
f 674 204 675
f 673 674 675
f 198 675 665
f 675 204 676
f 676 200 665
f 675 676 665
f 199 677 670
f 677 204 678
f 678 201 670
f 677 678 670
f 199 666 677
f 666 200 676
f 676 204 677
f 666 676 677
f 201 679 668
f 679 203 672
f 672 202 668
f 679 672 668
f 201 678 679
f 678 204 674
f 674 203 679
f 678 674 679
