# Original shape: m1279.obj
# No processing applied - exact copy of source file
# Generated on 2025-10-03 21:18:33

v 0.283763 0.505681 0.064065
v 0.317012 0.679571 0.077332
v 0.312751 0.679571 0.074186
v 0.289548 0.505681 0.068336
v 0.321273 0.679571 0.078119
v 0.295332 0.505681 0.069404
v 0.325534 0.679571 0.078905
v 0.301116 0.505681 0.070472
v 0.329794 0.679571 0.079102
v 0.306900 0.505681 0.070739
v 0.338316 0.679571 0.079299
v 0.318469 0.505681 0.071006
v 0.363881 0.679571 0.078905
v 0.353174 0.505681 0.070472
v 0.397969 0.679571 0.074186
v 0.399448 0.505681 0.064065
v 0.363881 0.679571 0.069466
v 0.353174 0.505681 0.057658
v 0.338316 0.679571 0.069072
v 0.318469 0.505681 0.057124
v 0.329794 0.679571 0.069269
v 0.306900 0.505681 0.057391
v 0.325534 0.679571 0.069466
v 0.301116 0.505681 0.057658
v 0.321273 0.679571 0.070252
v 0.295332 0.505681 0.058726
v 0.317012 0.679571 0.071039
v 0.289548 0.505681 0.059794
v 0.283763 0.494319 0.064065
v 0.317012 0.320429 0.077332
v 0.312751 0.320429 0.074186
v 0.289548 0.494319 0.068336
v 0.321273 0.320429 0.078119
v 0.295332 0.494319 0.069404
v 0.325534 0.320429 0.078905
v 0.301116 0.494319 0.070472
v 0.329794 0.320429 0.079102
v 0.306900 0.494319 0.070739
v 0.338316 0.320429 0.079299
v 0.318469 0.494319 0.071006
v 0.363881 0.320429 0.078905
v 0.353174 0.494319 0.070472
v 0.397969 0.320429 0.074186
v 0.399448 0.494319 0.064065
v 0.363881 0.320429 0.069466
v 0.353174 0.494319 0.057658
v 0.338316 0.320429 0.069072
v 0.318469 0.494319 0.057124
v 0.329794 0.320429 0.069269
v 0.306900 0.494319 0.057391
v 0.325534 0.320429 0.069466
v 0.301116 0.494319 0.057658
v 0.321273 0.320429 0.070252
v 0.295332 0.494319 0.058726
v 0.317012 0.320429 0.071039
v 0.289548 0.494319 0.059794
v 0.346887 0.974401 0.100296
v 0.344111 0.974401 0.098246
v 0.349664 0.974401 0.100809
v 0.352440 0.974401 0.101321
v 0.355216 0.974401 0.101449
v 0.360768 0.974401 0.101577
v 0.377425 0.974401 0.101321
v 0.399633 0.974401 0.098246
v 0.377425 0.974401 0.095171
v 0.360768 0.974401 0.094915
v 0.355216 0.974401 0.095043
v 0.352440 0.974401 0.095171
v 0.349664 0.974401 0.095684
v 0.346887 0.974401 0.096196
v 0.346887 0.025599 0.100296
v 0.344111 0.025599 0.098246
v 0.349664 0.025599 0.100809
v 0.352440 0.025599 0.101321
v 0.355216 0.025599 0.101449
v 0.360768 0.025599 0.101577
v 0.377425 0.025599 0.101321
v 0.399633 0.025599 0.098246
v 0.377425 0.025599 0.095171
v 0.360768 0.025599 0.094915
v 0.355216 0.025599 0.095043
v 0.352440 0.025599 0.095171
v 0.349664 0.025599 0.095684
v 0.346887 0.025599 0.096196
v 0.072402 0.500000 0.052258
v 0.097399 0.642030 0.053936
v 0.095127 0.642030 0.052258
v 0.076095 0.500000 0.054985
v 0.099671 0.642030 0.054355
v 0.079787 0.500000 0.055667
v 0.101944 0.642030 0.054775
v 0.083480 0.500000 0.056348
v 0.104216 0.642030 0.054880
v 0.087173 0.500000 0.056519
v 0.108761 0.642030 0.054985
v 0.094558 0.500000 0.056689
v 0.122396 0.642030 0.054775
v 0.116715 0.500000 0.056348
v 0.140576 0.642030 0.052258
v 0.146257 0.500000 0.052258
v 0.122396 0.642030 0.049740
v 0.116715 0.500000 0.048167
v 0.108761 0.642030 0.049531
v 0.094558 0.500000 0.047826
v 0.104216 0.642030 0.049636
v 0.087173 0.500000 0.047997
v 0.101944 0.642030 0.049740
v 0.083480 0.500000 0.048167
v 0.099671 0.642030 0.050160
v 0.079787 0.500000 0.048849
v 0.097399 0.642030 0.050580
v 0.076095 0.500000 0.049531
v 0.097399 0.357970 0.053936
v 0.095127 0.357970 0.052258
v 0.099671 0.357970 0.054355
v 0.101944 0.357970 0.054775
v 0.104216 0.357970 0.054880
v 0.108761 0.357970 0.054985
v 0.122396 0.357970 0.054775
v 0.140576 0.357970 0.052258
v 0.122396 0.357970 0.049740
v 0.108761 0.357970 0.049531
v 0.104216 0.357970 0.049636
v 0.101944 0.357970 0.049740
v 0.099671 0.357970 0.050160
v 0.097399 0.357970 0.050580
v 0.025000 0.500309 0.053849
v 0.119264 0.513900 0.059483
v 0.119264 0.515046 0.053215
v 0.025000 0.500285 0.054006
v 0.119264 0.510639 0.064797
v 0.025000 0.500218 0.054139
v 0.119264 0.505758 0.068348
v 0.025000 0.500118 0.054228
v 0.119264 0.500000 0.069595
v 0.025000 0.500000 0.054259
v 0.119264 0.494242 0.068348
v 0.025000 0.499882 0.054228
v 0.119264 0.489361 0.064797
v 0.025000 0.499782 0.054139
v 0.119264 0.486100 0.059483
v 0.025000 0.499715 0.054006
v 0.119264 0.484954 0.053215
v 0.025000 0.499691 0.053849
v 0.119264 0.486100 0.046946
v 0.025000 0.499715 0.053692
v 0.119264 0.489361 0.041632
v 0.025000 0.499782 0.053559
v 0.119264 0.494242 0.038081
v 0.025000 0.499882 0.053470
v 0.119264 0.500000 0.036835
v 0.025000 0.500000 0.053438
v 0.119264 0.505758 0.038081
v 0.025000 0.500118 0.053470
v 0.119264 0.510639 0.041632
v 0.025000 0.500218 0.053559
v 0.119264 0.513900 0.046946
v 0.025000 0.500285 0.053692
v 0.200250 0.518319 0.060420
v 0.200250 0.519828 0.052653
v 0.200250 0.514020 0.067005
v 0.200250 0.507588 0.071405
v 0.200250 0.500000 0.072950
v 0.200250 0.492412 0.071405
v 0.200250 0.485980 0.067005
v 0.200250 0.481681 0.060420
v 0.200250 0.480172 0.052653
v 0.200250 0.481681 0.044886
v 0.200250 0.485980 0.038301
v 0.200250 0.492412 0.033901
v 0.200250 0.500000 0.032356
v 0.200250 0.507588 0.033901
v 0.200250 0.514020 0.038301
v 0.200250 0.518319 0.044886
v 0.266032 0.518665 0.060426
v 0.266032 0.520203 0.052699
v 0.266032 0.514286 0.066977
v 0.266032 0.507731 0.071354
v 0.266032 0.500000 0.072891
v 0.266032 0.492269 0.071354
v 0.266032 0.485714 0.066977
v 0.266032 0.481335 0.060426
v 0.266032 0.479797 0.052699
v 0.266032 0.481335 0.044971
v 0.266032 0.485714 0.038420
v 0.266032 0.492269 0.034043
v 0.266032 0.500000 0.032506
v 0.266032 0.507731 0.034043
v 0.266032 0.514286 0.038420
v 0.266032 0.518665 0.044971
v 0.270086 0.518645 0.071051
v 0.270086 0.520181 0.060455
v 0.270086 0.514270 0.080034
v 0.270086 0.507723 0.086036
v 0.270086 0.500000 0.088144
v 0.270086 0.492277 0.086036
v 0.270086 0.485730 0.080034
v 0.270086 0.481355 0.071051
v 0.270086 0.479819 0.060455
v 0.270086 0.481355 0.049858
v 0.270086 0.485730 0.040875
v 0.270086 0.492277 0.034873
v 0.270086 0.500000 0.032765
v 0.270086 0.507723 0.034873
v 0.270086 0.514270 0.040875
v 0.270086 0.518645 0.049858
v 0.371322 0.516226 0.069104
v 0.371322 0.517563 0.060621
v 0.371322 0.512419 0.076297
v 0.371322 0.506721 0.081102
v 0.371322 0.500000 0.082790
v 0.371322 0.493279 0.081102
v 0.371322 0.487581 0.076297
v 0.371322 0.483774 0.069104
v 0.371322 0.482437 0.060621
v 0.371322 0.483774 0.052137
v 0.371322 0.487581 0.044945
v 0.371322 0.493279 0.040140
v 0.371322 0.500000 0.038452
v 0.371322 0.506721 0.040140
v 0.371322 0.512419 0.044945
v 0.371322 0.516226 0.052137
v 0.438748 0.514615 0.065156
v 0.438748 0.515819 0.058814
v 0.438748 0.511186 0.070533
v 0.438748 0.506054 0.074126
v 0.438748 0.500000 0.075387
v 0.438748 0.493946 0.074126
v 0.438748 0.488814 0.070533
v 0.438748 0.485385 0.065156
v 0.438748 0.484181 0.058814
v 0.438748 0.485385 0.052471
v 0.438748 0.488814 0.047094
v 0.438748 0.493946 0.043502
v 0.438748 0.500000 0.042240
v 0.438748 0.506054 0.043502
v 0.438748 0.511186 0.047094
v 0.438748 0.514615 0.052471
v 0.436315 0.512061 0.064145
v 0.436315 0.513055 0.058844
v 0.436315 0.509231 0.068639
v 0.436315 0.504996 0.071642
v 0.436315 0.500000 0.072697
v 0.436315 0.495004 0.071642
v 0.436315 0.490769 0.068639
v 0.436315 0.487939 0.064145
v 0.436315 0.486945 0.058844
v 0.436315 0.487939 0.053543
v 0.436315 0.490769 0.049049
v 0.436315 0.495004 0.046046
v 0.436315 0.500000 0.044991
v 0.436315 0.504996 0.046046
v 0.436315 0.509231 0.049049
v 0.436315 0.512061 0.053543
v 0.433883 0.505009 0.060939
v 0.433883 0.505422 0.059367
v 0.433883 0.503834 0.062272
v 0.433883 0.502075 0.063163
v 0.433883 0.500000 0.063476
v 0.433883 0.497925 0.063163
v 0.433883 0.496166 0.062272
v 0.433883 0.494991 0.060939
v 0.433883 0.494578 0.059367
v 0.433883 0.494991 0.057794
v 0.433883 0.496166 0.056461
v 0.433883 0.497925 0.055571
v 0.433883 0.500000 0.055258
v 0.433883 0.502075 0.055571
v 0.433883 0.503834 0.056461
v 0.433883 0.505009 0.057794
v 0.442802 0.503549 0.059735
v 0.442802 0.503842 0.058586
v 0.442802 0.502717 0.060709
v 0.442802 0.501470 0.061360
v 0.442802 0.500000 0.061588
v 0.442802 0.498530 0.061360
v 0.442802 0.497283 0.060709
v 0.442802 0.496451 0.059735
v 0.442802 0.496158 0.058586
v 0.442802 0.496451 0.057438
v 0.442802 0.497283 0.056464
v 0.442802 0.498530 0.055813
v 0.442802 0.500000 0.055585
v 0.442802 0.501470 0.055813
v 0.442802 0.502717 0.056464
v 0.442802 0.503549 0.057438
v 0.455168 0.500333 0.058349
v 0.455168 0.500361 0.058211
v 0.455168 0.500255 0.058466
v 0.455168 0.500138 0.058544
v 0.455168 0.500000 0.058572
v 0.455168 0.499862 0.058544
v 0.455168 0.499745 0.058466
v 0.455168 0.499667 0.058349
v 0.455168 0.499639 0.058211
v 0.455168 0.499667 0.058073
v 0.455168 0.499745 0.057956
v 0.455168 0.499862 0.057878
v 0.455168 0.500000 0.057850
v 0.455168 0.500138 0.057878
v 0.455168 0.500255 0.057956
v 0.455168 0.500333 0.058073
v 0.147442 0.505681 0.063985
v 0.172782 0.510091 0.069760
v 0.172782 0.510289 0.067856
v 0.147442 0.505572 0.065093
v 0.172782 0.509506 0.071591
v 0.147442 0.505249 0.066159
v 0.172782 0.508555 0.073279
v 0.147442 0.504724 0.067141
v 0.172782 0.507275 0.074758
v 0.147442 0.504017 0.068002
v 0.172782 0.505716 0.075972
v 0.147442 0.503156 0.068709
v 0.172782 0.503937 0.076874
v 0.147442 0.502174 0.069234
v 0.172782 0.502007 0.077430
v 0.147442 0.501108 0.069557
v 0.172782 0.500000 0.077617
v 0.147442 0.500000 0.069666
v 0.172782 0.497993 0.077430
v 0.147442 0.498892 0.069557
v 0.172782 0.496063 0.076874
v 0.147442 0.497826 0.069234
v 0.172782 0.494284 0.075972
v 0.147442 0.496844 0.068709
v 0.172782 0.492725 0.074758
v 0.147442 0.495983 0.068002
v 0.172782 0.491445 0.073279
v 0.147442 0.495276 0.067141
v 0.172782 0.490494 0.071591
v 0.147442 0.494751 0.066159
v 0.172782 0.489909 0.069760
v 0.147442 0.494428 0.065093
v 0.172782 0.489711 0.067856
v 0.147442 0.494319 0.063985
v 0.172782 0.489909 0.065951
v 0.147442 0.494428 0.062877
v 0.172782 0.490494 0.064120
v 0.147442 0.494751 0.061811
v 0.172782 0.491445 0.062433
v 0.147442 0.495276 0.060829
v 0.172782 0.492725 0.060954
v 0.147442 0.495983 0.059968
v 0.172782 0.494284 0.059740
v 0.147442 0.496844 0.059261
v 0.172782 0.496063 0.058838
v 0.147442 0.497826 0.058736
v 0.172782 0.497993 0.058282
v 0.147442 0.498892 0.058413
v 0.172782 0.500000 0.058095
v 0.147442 0.500000 0.058304
v 0.172782 0.502007 0.058282
v 0.147442 0.501108 0.058413
v 0.172782 0.503937 0.058838
v 0.147442 0.502174 0.058736
v 0.172782 0.505716 0.059740
v 0.147442 0.503156 0.059261
v 0.172782 0.507275 0.060954
v 0.147442 0.504017 0.059968
v 0.172782 0.508555 0.062433
v 0.147442 0.504724 0.060829
v 0.172782 0.509506 0.064120
v 0.147442 0.505249 0.061811
v 0.172782 0.510091 0.065951
v 0.147442 0.505572 0.062877
v 0.219153 0.515297 0.071400
v 0.219153 0.515597 0.068579
v 0.219153 0.514410 0.074113
v 0.219153 0.512968 0.076613
v 0.219153 0.511029 0.078805
v 0.219153 0.508665 0.080603
v 0.219153 0.505969 0.081940
v 0.219153 0.503043 0.082763
v 0.219153 0.500000 0.083040
v 0.219153 0.496957 0.082763
v 0.219153 0.494031 0.081940
v 0.219153 0.491335 0.080603
v 0.219153 0.488971 0.078805
v 0.219153 0.487032 0.076613
v 0.219153 0.485590 0.074113
v 0.219153 0.484703 0.071400
v 0.219153 0.484403 0.068579
v 0.219153 0.484703 0.065757
v 0.219153 0.485590 0.063045
v 0.219153 0.487032 0.060544
v 0.219153 0.488971 0.058353
v 0.219153 0.491335 0.056554
v 0.219153 0.494031 0.055218
v 0.219153 0.496957 0.054395
v 0.219153 0.500000 0.054117
v 0.219153 0.503043 0.054395
v 0.219153 0.505969 0.055218
v 0.219153 0.508665 0.056554
v 0.219153 0.511029 0.058353
v 0.219153 0.512968 0.060544
v 0.219153 0.514410 0.063045
v 0.219153 0.515297 0.065757
v 0.272418 0.517982 0.073928
v 0.272418 0.518335 0.070628
v 0.272418 0.516939 0.077102
v 0.272418 0.515245 0.080027
v 0.272418 0.512965 0.082591
v 0.272418 0.510186 0.084695
v 0.272418 0.507016 0.086258
v 0.272418 0.503577 0.087221
v 0.272418 0.500000 0.087546
v 0.272418 0.496423 0.087221
v 0.272418 0.492984 0.086258
v 0.272418 0.489814 0.084695
v 0.272418 0.487035 0.082591
v 0.272418 0.484755 0.080027
v 0.272418 0.483061 0.077102
v 0.272418 0.482018 0.073928
v 0.272418 0.481665 0.070628
v 0.272418 0.482018 0.067327
v 0.272418 0.483061 0.064154
v 0.272418 0.484755 0.061229
v 0.272418 0.487035 0.058665
v 0.272418 0.489814 0.056561
v 0.272418 0.492984 0.054998
v 0.272418 0.496423 0.054035
v 0.272418 0.500000 0.053710
v 0.272418 0.503577 0.054035
v 0.272418 0.507016 0.054998
v 0.272418 0.510186 0.056561
v 0.272418 0.512965 0.058665
v 0.272418 0.515245 0.061229
v 0.272418 0.516939 0.064154
v 0.272418 0.517982 0.067327
v 0.417893 0.502901 0.060310
v 0.417893 0.502958 0.059727
v 0.417893 0.502733 0.060871
v 0.417893 0.502460 0.061387
v 0.417893 0.502092 0.061840
v 0.417893 0.501643 0.062212
v 0.417893 0.501132 0.062488
v 0.417893 0.500577 0.062658
v 0.417893 0.500000 0.062715
v 0.417893 0.499423 0.062658
v 0.417893 0.498868 0.062488
v 0.417893 0.498357 0.062212
v 0.417893 0.497908 0.061840
v 0.417893 0.497540 0.061387
v 0.417893 0.497267 0.060871
v 0.417893 0.497099 0.060310
v 0.417893 0.497042 0.059727
v 0.417893 0.497099 0.059145
v 0.417893 0.497267 0.058584
v 0.417893 0.497540 0.058067
v 0.417893 0.497908 0.057615
v 0.417893 0.498357 0.057243
v 0.417893 0.498868 0.056967
v 0.417893 0.499423 0.056797
v 0.417893 0.500000 0.056739
v 0.417893 0.500577 0.056797
v 0.417893 0.501132 0.056967
v 0.417893 0.501643 0.057243
v 0.417893 0.502092 0.057615
v 0.417893 0.502460 0.058067
v 0.417893 0.502733 0.058584
v 0.417893 0.502901 0.059145
v 0.447627 0.501061 0.058694
v 0.447627 0.501082 0.058476
v 0.447627 0.501000 0.058904
v 0.447627 0.500900 0.059097
v 0.447627 0.500765 0.059266
v 0.447627 0.500601 0.059405
v 0.447627 0.500414 0.059508
v 0.447627 0.500211 0.059572
v 0.447627 0.500000 0.059594
v 0.447627 0.499789 0.059572
v 0.447627 0.499586 0.059508
v 0.447627 0.499399 0.059405
v 0.447627 0.499235 0.059266
v 0.447627 0.499100 0.059097
v 0.447627 0.499000 0.058904
v 0.447627 0.498939 0.058694
v 0.447627 0.498918 0.058476
v 0.447627 0.498939 0.058258
v 0.447627 0.499000 0.058048
v 0.447627 0.499100 0.057855
v 0.447627 0.499235 0.057686
v 0.447627 0.499399 0.057547
v 0.447627 0.499586 0.057444
v 0.447627 0.499789 0.057380
v 0.447627 0.500000 0.057359
v 0.447627 0.500211 0.057380
v 0.447627 0.500414 0.057444
v 0.447627 0.500601 0.057547
v 0.447627 0.500765 0.057686
v 0.447627 0.500900 0.057855
v 0.447627 0.501000 0.058048
v 0.447627 0.501061 0.058258
v 0.446006 0.528306 0.063223
v 0.446006 0.528860 0.057595
v 0.446006 0.526664 0.068634
v 0.446006 0.523997 0.073621
v 0.446006 0.520407 0.077992
v 0.446006 0.516034 0.081579
v 0.446006 0.511044 0.084245
v 0.446006 0.505630 0.085887
v 0.446006 0.500000 0.086441
v 0.446006 0.494370 0.085887
v 0.446006 0.488956 0.084245
v 0.446006 0.483966 0.081579
v 0.446006 0.479593 0.077992
v 0.446006 0.476003 0.073621
v 0.446006 0.473336 0.068634
v 0.446006 0.471694 0.063223
v 0.446006 0.471140 0.057595
v 0.446006 0.471694 0.051968
v 0.446006 0.473336 0.046557
v 0.446006 0.476003 0.041570
v 0.446006 0.479593 0.037198
v 0.446006 0.483966 0.033611
v 0.446006 0.488956 0.030946
v 0.446006 0.494370 0.029304
v 0.446006 0.500000 0.028750
v 0.446006 0.505630 0.029304
v 0.446006 0.511044 0.030946
v 0.446006 0.516034 0.033611
v 0.446006 0.520407 0.037198
v 0.446006 0.523997 0.041570
v 0.446006 0.526664 0.046557
v 0.446006 0.528306 0.051968
v 0.449249 0.532269 0.064284
v 0.449249 0.532901 0.057871
v 0.449249 0.530396 0.070451
v 0.449249 0.527356 0.076134
v 0.449249 0.523264 0.081115
v 0.449249 0.518279 0.085203
v 0.449249 0.512591 0.088241
v 0.449249 0.506419 0.090111
v 0.449249 0.500000 0.090743
v 0.449249 0.493581 0.090111
v 0.449249 0.487409 0.088241
v 0.449249 0.481721 0.085203
v 0.449249 0.476736 0.081115
v 0.449249 0.472644 0.076134
v 0.449249 0.469604 0.070451
v 0.449249 0.467731 0.064284
v 0.449249 0.467099 0.057871
v 0.449249 0.467731 0.051458
v 0.449249 0.469604 0.045292
v 0.449249 0.472644 0.039609
v 0.449249 0.476736 0.034628
v 0.449249 0.481721 0.030540
v 0.449249 0.487409 0.027502
v 0.449249 0.493581 0.025632
v 0.449249 0.500000 0.025000
v 0.449249 0.506419 0.025632
v 0.449249 0.512591 0.027502
v 0.449249 0.518279 0.030540
v 0.449249 0.523264 0.034628
v 0.449249 0.527356 0.039609
v 0.449249 0.530396 0.045292
v 0.449249 0.532269 0.051458
v 0.452493 0.528518 0.063592
v 0.452493 0.529077 0.057915
v 0.452493 0.526864 0.069051
v 0.452493 0.524177 0.074082
v 0.452493 0.520560 0.078492
v 0.452493 0.516154 0.082111
v 0.452493 0.511127 0.084801
v 0.452493 0.505673 0.086457
v 0.452493 0.500000 0.087016
v 0.452493 0.494327 0.086457
v 0.452493 0.488873 0.084801
v 0.452493 0.483846 0.082111
v 0.452493 0.479440 0.078492
v 0.452493 0.475823 0.074082
v 0.452493 0.473136 0.069051
v 0.452493 0.471482 0.063592
v 0.452493 0.470923 0.057915
v 0.452493 0.471482 0.052238
v 0.452493 0.473136 0.046779
v 0.452493 0.475823 0.041747
v 0.452493 0.479440 0.037338
v 0.452493 0.483846 0.033718
v 0.452493 0.488873 0.031029
v 0.452493 0.494327 0.029373
v 0.452493 0.500000 0.028814
v 0.452493 0.505673 0.029373
v 0.452493 0.511127 0.031029
v 0.452493 0.516154 0.033718
v 0.452493 0.520560 0.037338
v 0.452493 0.524177 0.041747
v 0.452493 0.526864 0.046779
v 0.452493 0.528518 0.052238
v 0.450466 0.502786 0.059171
v 0.450466 0.502841 0.058722
v 0.450466 0.502624 0.059602
v 0.450466 0.502362 0.060000
v 0.450466 0.502009 0.060348
v 0.450466 0.501578 0.060635
v 0.450466 0.501087 0.060847
v 0.450466 0.500554 0.060978
v 0.450466 0.500000 0.061022
v 0.450466 0.499446 0.060978
v 0.450466 0.498913 0.060847
v 0.450466 0.498422 0.060635
v 0.450466 0.497991 0.060348
v 0.450466 0.497638 0.060000
v 0.450466 0.497376 0.059602
v 0.450466 0.497214 0.059171
v 0.450466 0.497159 0.058722
v 0.450466 0.497214 0.058273
v 0.450466 0.497376 0.057842
v 0.450466 0.497638 0.057444
v 0.450466 0.497991 0.057096
v 0.450466 0.498422 0.056810
v 0.450466 0.498913 0.056597
v 0.450466 0.499446 0.056466
v 0.450466 0.500000 0.056422
v 0.450466 0.500554 0.056466
v 0.450466 0.501087 0.056597
v 0.450466 0.501578 0.056810
v 0.450466 0.502009 0.057096
v 0.450466 0.502362 0.057444
v 0.450466 0.502624 0.057842
v 0.450466 0.502786 0.058273
v 0.343624 0.972274 0.095840
v 0.387266 0.973194 0.160655
v 0.385771 0.972274 0.160655
v 0.346350 0.973952 0.095840
v 0.388761 0.973424 0.160655
v 0.349075 0.974371 0.095840
v 0.390256 0.973654 0.160655
v 0.351801 0.974790 0.095840
v 0.391751 0.973712 0.160655
v 0.354527 0.974895 0.095840
v 0.394741 0.973769 0.160655
v 0.359979 0.975000 0.095840
v 0.403712 0.973654 0.160655
v 0.376335 0.974790 0.095840
v 0.415672 0.972274 0.160655
v 0.398142 0.972274 0.095840
v 0.403712 0.970894 0.160655
v 0.376335 0.969758 0.095840
v 0.394741 0.970779 0.160655
v 0.359979 0.969548 0.095840
v 0.391751 0.970837 0.160655
v 0.354527 0.969653 0.095840
v 0.390256 0.970894 0.160655
v 0.351801 0.969758 0.095840
v 0.388761 0.971124 0.160655
v 0.349075 0.970177 0.095840
v 0.387266 0.971354 0.160655
v 0.346350 0.970597 0.095840
v 0.343624 0.027726 0.095840
v 0.387266 0.028646 0.160655
v 0.385771 0.027726 0.160655
v 0.346350 0.029403 0.095840
v 0.388761 0.028876 0.160655
v 0.349075 0.029823 0.095840
v 0.390256 0.029106 0.160655
v 0.351801 0.030242 0.095840
v 0.391751 0.029163 0.160655
v 0.354527 0.030347 0.095840
v 0.394741 0.029221 0.160655
v 0.359979 0.030452 0.095840
v 0.403712 0.029106 0.160655
v 0.376335 0.030242 0.095840
v 0.415672 0.027726 0.160655
v 0.398142 0.027726 0.095840
v 0.403712 0.026346 0.160655
v 0.376335 0.025210 0.095840
v 0.394741 0.026231 0.160655
v 0.359979 0.025000 0.095840
v 0.391751 0.026288 0.160655
v 0.354527 0.025105 0.095840
v 0.390256 0.026346 0.160655
v 0.351801 0.025210 0.095840
v 0.388761 0.026576 0.160655
v 0.349075 0.025629 0.095840
v 0.387266 0.026806 0.160655
v 0.346350 0.026048 0.095840
v 0.305165 0.489909 0.057006
v 0.305165 0.495818 0.057006
v 0.316982 0.489909 0.057006
v 0.316982 0.495818 0.057006
v 0.316982 0.489909 0.067914
v 0.305165 0.489909 0.067914
v 0.305165 0.495818 0.067914
v 0.316982 0.495818 0.067914
v 0.092107 0.497329 0.047487
v 0.092107 0.504146 0.047487
v 0.105742 0.497329 0.047487
v 0.105742 0.504146 0.047487
v 0.105742 0.497329 0.058850
v 0.092107 0.497329 0.058850
v 0.092107 0.504146 0.058850
v 0.105742 0.504146 0.058850
v 0.336931 0.499318 0.056697
v 0.336931 0.505227 0.056697
v 0.348748 0.499318 0.056697
v 0.348748 0.505227 0.056697
v 0.348748 0.499318 0.067605
v 0.336931 0.499318 0.067605
v 0.336931 0.505227 0.067605
v 0.348748 0.505227 0.067605
v 0.304697 0.508528 0.056697
v 0.304697 0.514436 0.056697
v 0.316514 0.508528 0.056697
v 0.316514 0.514436 0.056697
v 0.316514 0.508528 0.067605
v 0.304697 0.508528 0.067605
v 0.304697 0.514436 0.067605
v 0.316514 0.514436 0.067605
v 0.351513 0.498864 0.056697
v 0.351513 0.505681 0.056697
v 0.365148 0.498864 0.056697
v 0.365148 0.505681 0.056697
v 0.365148 0.498864 0.068059
v 0.351513 0.498864 0.068059
v 0.351513 0.505681 0.068059
v 0.365148 0.505681 0.068059
v 0.157342 0.492955 0.045953
v 0.157342 0.511590 0.045953
v 0.189157 0.492955 0.045953
v 0.189157 0.511590 0.045953
v 0.189157 0.492955 0.057315
v 0.157342 0.492955 0.057315
v 0.157342 0.511590 0.057315
v 0.189157 0.511590 0.057315
v 0.200321 0.491819 0.052092
v 0.200321 0.512726 0.052092
v 0.269404 0.491819 0.052092
v 0.269404 0.512726 0.052092
v 0.269404 0.491819 0.062546
v 0.200321 0.491819 0.062546
v 0.200321 0.512726 0.062546
v 0.269404 0.512726 0.062546
f 1 2 3
f 4 5 2
f 6 7 5
f 8 9 7
f 10 11 9
f 12 13 11
f 14 15 13
f 16 17 15
f 18 19 17
f 20 21 19
f 22 23 21
f 24 25 23
f 26 27 25
f 28 3 27
f 1 4 2
f 4 6 5
f 6 8 7
f 8 10 9
f 10 12 11
f 12 14 13
f 14 16 15
f 16 18 17
f 18 20 19
f 20 22 21
f 22 24 23
f 24 26 25
f 26 28 27
f 28 1 3
f 29 30 31
f 32 33 30
f 34 35 33
f 36 37 35
f 38 39 37
f 40 41 39
f 42 43 41
f 44 45 43
f 46 47 45
f 48 49 47
f 50 51 49
f 52 53 51
f 54 55 53
f 56 31 55
f 29 32 30
f 32 34 33
f 34 36 35
f 36 38 37
f 38 40 39
f 40 42 41
f 42 44 43
f 44 46 45
f 46 48 47
f 48 50 49
f 50 52 51
f 52 54 53
f 54 56 55
f 56 29 31
f 3 57 58
f 2 59 57
f 5 60 59
f 7 61 60
f 9 62 61
f 11 63 62
f 13 64 63
f 15 65 64
f 17 66 65
f 19 67 66
f 21 68 67
f 23 69 68
f 25 70 69
f 27 58 70
f 3 2 57
f 2 5 59
f 5 7 60
f 7 9 61
f 9 11 62
f 11 13 63
f 13 15 64
f 15 17 65
f 17 19 66
f 19 21 67
f 21 23 68
f 23 25 69
f 25 27 70
f 27 3 58
f 31 71 72
f 30 73 71
f 33 74 73
f 35 75 74
f 37 76 75
f 39 77 76
f 41 78 77
f 43 79 78
f 45 80 79
f 47 81 80
f 49 82 81
f 51 83 82
f 53 84 83
f 55 72 84
f 31 30 71
f 30 33 73
f 33 35 74
f 35 37 75
f 37 39 76
f 39 41 77
f 41 43 78
f 43 45 79
f 45 47 80
f 47 49 81
f 49 51 82
f 51 53 83
f 53 55 84
f 55 31 72
f 85 86 87
f 88 89 86
f 90 91 89
f 92 93 91
f 94 95 93
f 96 97 95
f 98 99 97
f 100 101 99
f 102 103 101
f 104 105 103
f 106 107 105
f 108 109 107
f 110 111 109
f 112 87 111
f 85 88 86
f 88 90 89
f 90 92 91
f 92 94 93
f 94 96 95
f 96 98 97
f 98 100 99
f 100 102 101
f 102 104 103
f 104 106 105
f 106 108 107
f 108 110 109
f 110 112 111
f 112 85 87
f 85 113 114
f 88 115 113
f 90 116 115
f 92 117 116
f 94 118 117
f 96 119 118
f 98 120 119
f 100 121 120
f 102 122 121
f 104 123 122
f 106 124 123
f 108 125 124
f 110 126 125
f 112 114 126
f 85 88 113
f 88 90 115
f 90 92 116
f 92 94 117
f 94 96 118
f 96 98 119
f 98 100 120
f 100 102 121
f 102 104 122
f 104 106 123
f 106 108 124
f 108 110 125
f 110 112 126
f 112 85 114
f 127 128 129
f 130 131 128
f 132 133 131
f 134 135 133
f 136 137 135
f 138 139 137
f 140 141 139
f 142 143 141
f 144 145 143
f 146 147 145
f 148 149 147
f 150 151 149
f 152 153 151
f 154 155 153
f 156 157 155
f 158 129 157
f 129 159 160
f 128 161 159
f 131 162 161
f 133 163 162
f 135 164 163
f 137 165 164
f 139 166 165
f 141 167 166
f 143 168 167
f 145 169 168
f 147 170 169
f 149 171 170
f 151 172 171
f 153 173 172
f 155 174 173
f 157 160 174
f 160 175 176
f 159 177 175
f 161 178 177
f 162 179 178
f 163 180 179
f 164 181 180
f 165 182 181
f 166 183 182
f 167 184 183
f 168 185 184
f 169 186 185
f 170 187 186
f 171 188 187
f 172 189 188
f 173 190 189
f 174 176 190
f 176 191 192
f 175 193 191
f 177 194 193
f 178 195 194
f 179 196 195
f 180 197 196
f 181 198 197
f 182 199 198
f 183 200 199
f 184 201 200
f 185 202 201
f 186 203 202
f 187 204 203
f 188 205 204
f 189 206 205
f 190 192 206
f 192 207 208
f 191 209 207
f 193 210 209
f 194 211 210
f 195 212 211
f 196 213 212
f 197 214 213
f 198 215 214
f 199 216 215
f 200 217 216
f 201 218 217
f 202 219 218
f 203 220 219
f 204 221 220
f 205 222 221
f 206 208 222
f 208 223 224
f 207 225 223
f 209 226 225
f 210 227 226
f 211 228 227
f 212 229 228
f 213 230 229
f 214 231 230
f 215 232 231
f 216 233 232
f 217 234 233
f 218 235 234
f 219 236 235
f 220 237 236
f 221 238 237
f 222 224 238
f 224 239 240
f 223 241 239
f 225 242 241
f 226 243 242
f 227 244 243
f 228 245 244
f 229 246 245
f 230 247 246
f 231 248 247
f 232 249 248
f 233 250 249
f 234 251 250
f 235 252 251
f 236 253 252
f 237 254 253
f 238 240 254
f 240 255 256
f 239 257 255
f 241 258 257
f 242 259 258
f 243 260 259
f 244 261 260
f 245 262 261
f 246 263 262
f 247 264 263
f 248 265 264
f 249 266 265
f 250 267 266
f 251 268 267
f 252 269 268
f 253 270 269
f 254 256 270
f 256 271 272
f 255 273 271
f 257 274 273
f 258 275 274
f 259 276 275
f 260 277 276
f 261 278 277
f 262 279 278
f 263 280 279
f 264 281 280
f 265 282 281
f 266 283 282
f 267 284 283
f 268 285 284
f 269 286 285
f 270 272 286
f 272 287 288
f 271 289 287
f 273 290 289
f 274 291 290
f 275 292 291
f 276 293 292
f 277 294 293
f 278 295 294
f 279 296 295
f 280 297 296
f 281 298 297
f 282 299 298
f 283 300 299
f 284 301 300
f 285 302 301
f 286 288 302
f 127 130 128
f 130 132 131
f 132 134 133
f 134 136 135
f 136 138 137
f 138 140 139
f 140 142 141
f 142 144 143
f 144 146 145
f 146 148 147
f 148 150 149
f 150 152 151
f 152 154 153
f 154 156 155
f 156 158 157
f 158 127 129
f 129 128 159
f 128 131 161
f 131 133 162
f 133 135 163
f 135 137 164
f 137 139 165
f 139 141 166
f 141 143 167
f 143 145 168
f 145 147 169
f 147 149 170
f 149 151 171
f 151 153 172
f 153 155 173
f 155 157 174
f 157 129 160
f 160 159 175
f 159 161 177
f 161 162 178
f 162 163 179
f 163 164 180
f 164 165 181
f 165 166 182
f 166 167 183
f 167 168 184
f 168 169 185
f 169 170 186
f 170 171 187
f 171 172 188
f 172 173 189
f 173 174 190
f 174 160 176
f 176 175 191
f 175 177 193
f 177 178 194
f 178 179 195
f 179 180 196
f 180 181 197
f 181 182 198
f 182 183 199
f 183 184 200
f 184 185 201
f 185 186 202
f 186 187 203
f 187 188 204
f 188 189 205
f 189 190 206
f 190 176 192
f 192 191 207
f 191 193 209
f 193 194 210
f 194 195 211
f 195 196 212
f 196 197 213
f 197 198 214
f 198 199 215
f 199 200 216
f 200 201 217
f 201 202 218
f 202 203 219
f 203 204 220
f 204 205 221
f 205 206 222
f 206 192 208
f 208 207 223
f 207 209 225
f 209 210 226
f 210 211 227
f 211 212 228
f 212 213 229
f 213 214 230
f 214 215 231
f 215 216 232
f 216 217 233
f 217 218 234
f 218 219 235
f 219 220 236
f 220 221 237
f 221 222 238
f 222 208 224
f 224 223 239
f 223 225 241
f 225 226 242
f 226 227 243
f 227 228 244
f 228 229 245
f 229 230 246
f 230 231 247
f 231 232 248
f 232 233 249
f 233 234 250
f 234 235 251
f 235 236 252
f 236 237 253
f 237 238 254
f 238 224 240
f 240 239 255
f 239 241 257
f 241 242 258
f 242 243 259
f 243 244 260
f 244 245 261
f 245 246 262
f 246 247 263
f 247 248 264
f 248 249 265
f 249 250 266
f 250 251 267
f 251 252 268
f 252 253 269
f 253 254 270
f 254 240 256
f 256 255 271
f 255 257 273
f 257 258 274
f 258 259 275
f 259 260 276
f 260 261 277
f 261 262 278
f 262 263 279
f 263 264 280
f 264 265 281
f 265 266 282
f 266 267 283
f 267 268 284
f 268 269 285
f 269 270 286
f 270 256 272
f 272 271 287
f 271 273 289
f 273 274 290
f 274 275 291
f 275 276 292
f 276 277 293
f 277 278 294
f 278 279 295
f 279 280 296
f 280 281 297
f 281 282 298
f 282 283 299
f 283 284 300
f 284 285 301
f 285 286 302
f 286 272 288
f 303 304 305
f 306 307 304
f 308 309 307
f 310 311 309
f 312 313 311
f 314 315 313
f 316 317 315
f 318 319 317
f 320 321 319
f 322 323 321
f 324 325 323
f 326 327 325
f 328 329 327
f 330 331 329
f 332 333 331
f 334 335 333
f 336 337 335
f 338 339 337
f 340 341 339
f 342 343 341
f 344 345 343
f 346 347 345
f 348 349 347
f 350 351 349
f 352 353 351
f 354 355 353
f 356 357 355
f 358 359 357
f 360 361 359
f 362 363 361
f 364 365 363
f 366 305 365
f 305 367 368
f 304 369 367
f 307 370 369
f 309 371 370
f 311 372 371
f 313 373 372
f 315 374 373
f 317 375 374
f 319 376 375
f 321 377 376
f 323 378 377
f 325 379 378
f 327 380 379
f 329 381 380
f 331 382 381
f 333 383 382
f 335 384 383
f 337 385 384
f 339 386 385
f 341 387 386
f 343 388 387
f 345 389 388
f 347 390 389
f 349 391 390
f 351 392 391
f 353 393 392
f 355 394 393
f 357 395 394
f 359 396 395
f 361 397 396
f 363 398 397
f 365 368 398
f 368 399 400
f 367 401 399
f 369 402 401
f 370 403 402
f 371 404 403
f 372 405 404
f 373 406 405
f 374 407 406
f 375 408 407
f 376 409 408
f 377 410 409
f 378 411 410
f 379 412 411
f 380 413 412
f 381 414 413
f 382 415 414
f 383 416 415
f 384 417 416
f 385 418 417
f 386 419 418
f 387 420 419
f 388 421 420
f 389 422 421
f 390 423 422
f 391 424 423
f 392 425 424
f 393 426 425
f 394 427 426
f 395 428 427
f 396 429 428
f 397 430 429
f 398 400 430
f 400 431 432
f 399 433 431
f 401 434 433
f 402 435 434
f 403 436 435
f 404 437 436
f 405 438 437
f 406 439 438
f 407 440 439
f 408 441 440
f 409 442 441
f 410 443 442
f 411 444 443
f 412 445 444
f 413 446 445
f 414 447 446
f 415 448 447
f 416 449 448
f 417 450 449
f 418 451 450
f 419 452 451
f 420 453 452
f 421 454 453
f 422 455 454
f 423 456 455
f 424 457 456
f 425 458 457
f 426 459 458
f 427 460 459
f 428 461 460
f 429 462 461
f 430 432 462
f 432 463 464
f 431 465 463
f 433 466 465
f 434 467 466
f 435 468 467
f 436 469 468
f 437 470 469
f 438 471 470
f 439 472 471
f 440 473 472
f 441 474 473
f 442 475 474
f 443 476 475
f 444 477 476
f 445 478 477
f 446 479 478
f 447 480 479
f 448 481 480
f 449 482 481
f 450 483 482
f 451 484 483
f 452 485 484
f 453 486 485
f 454 487 486
f 455 488 487
f 456 489 488
f 457 490 489
f 458 491 490
f 459 492 491
f 460 493 492
f 461 494 493
f 462 464 494
f 464 495 496
f 463 497 495
f 465 498 497
f 466 499 498
f 467 500 499
f 468 501 500
f 469 502 501
f 470 503 502
f 471 504 503
f 472 505 504
f 473 506 505
f 474 507 506
f 475 508 507
f 476 509 508
f 477 510 509
f 478 511 510
f 479 512 511
f 480 513 512
f 481 514 513
f 482 515 514
f 483 516 515
f 484 517 516
f 485 518 517
f 486 519 518
f 487 520 519
f 488 521 520
f 489 522 521
f 490 523 522
f 491 524 523
f 492 525 524
f 493 526 525
f 494 496 526
f 496 527 528
f 495 529 527
f 497 530 529
f 498 531 530
f 499 532 531
f 500 533 532
f 501 534 533
f 502 535 534
f 503 536 535
f 504 537 536
f 505 538 537
f 506 539 538
f 507 540 539
f 508 541 540
f 509 542 541
f 510 543 542
f 511 544 543
f 512 545 544
f 513 546 545
f 514 547 546
f 515 548 547
f 516 549 548
f 517 550 549
f 518 551 550
f 519 552 551
f 520 553 552
f 521 554 553
f 522 555 554
f 523 556 555
f 524 557 556
f 525 558 557
f 526 528 558
f 528 559 560
f 527 561 559
f 529 562 561
f 530 563 562
f 531 564 563
f 532 565 564
f 533 566 565
f 534 567 566
f 535 568 567
f 536 569 568
f 537 570 569
f 538 571 570
f 539 572 571
f 540 573 572
f 541 574 573
f 542 575 574
f 543 576 575
f 544 577 576
f 545 578 577
f 546 579 578
f 547 580 579
f 548 581 580
f 549 582 581
f 550 583 582
f 551 584 583
f 552 585 584
f 553 586 585
f 554 587 586
f 555 588 587
f 556 589 588
f 557 590 589
f 558 560 590
f 560 591 592
f 559 593 591
f 561 594 593
f 562 595 594
f 563 596 595
f 564 597 596
f 565 598 597
f 566 599 598
f 567 600 599
f 568 601 600
f 569 602 601
f 570 603 602
f 571 604 603
f 572 605 604
f 573 606 605
f 574 607 606
f 575 608 607
f 576 609 608
f 577 610 609
f 578 611 610
f 579 612 611
f 580 613 612
f 581 614 613
f 582 615 614
f 583 616 615
f 584 617 616
f 585 618 617
f 586 619 618
f 587 620 619
f 588 621 620
f 589 622 621
f 590 592 622
f 303 306 304
f 306 308 307
f 308 310 309
f 310 312 311
f 312 314 313
f 314 316 315
f 316 318 317
f 318 320 319
f 320 322 321
f 322 324 323
f 324 326 325
f 326 328 327
f 328 330 329
f 330 332 331
f 332 334 333
f 334 336 335
f 336 338 337
f 338 340 339
f 340 342 341
f 342 344 343
f 344 346 345
f 346 348 347
f 348 350 349
f 350 352 351
f 352 354 353
f 354 356 355
f 356 358 357
f 358 360 359
f 360 362 361
f 362 364 363
f 364 366 365
f 366 303 305
f 305 304 367
f 304 307 369
f 307 309 370
f 309 311 371
f 311 313 372
f 313 315 373
f 315 317 374
f 317 319 375
f 319 321 376
f 321 323 377
f 323 325 378
f 325 327 379
f 327 329 380
f 329 331 381
f 331 333 382
f 333 335 383
f 335 337 384
f 337 339 385
f 339 341 386
f 341 343 387
f 343 345 388
f 345 347 389
f 347 349 390
f 349 351 391
f 351 353 392
f 353 355 393
f 355 357 394
f 357 359 395
f 359 361 396
f 361 363 397
f 363 365 398
f 365 305 368
f 368 367 399
f 367 369 401
f 369 370 402
f 370 371 403
f 371 372 404
f 372 373 405
f 373 374 406
f 374 375 407
f 375 376 408
f 376 377 409
f 377 378 410
f 378 379 411
f 379 380 412
f 380 381 413
f 381 382 414
f 382 383 415
f 383 384 416
f 384 385 417
f 385 386 418
f 386 387 419
f 387 388 420
f 388 389 421
f 389 390 422
f 390 391 423
f 391 392 424
f 392 393 425
f 393 394 426
f 394 395 427
f 395 396 428
f 396 397 429
f 397 398 430
f 398 368 400
f 400 399 431
f 399 401 433
f 401 402 434
f 402 403 435
f 403 404 436
f 404 405 437
f 405 406 438
f 406 407 439
f 407 408 440
f 408 409 441
f 409 410 442
f 410 411 443
f 411 412 444
f 412 413 445
f 413 414 446
f 414 415 447
f 415 416 448
f 416 417 449
f 417 418 450
f 418 419 451
f 419 420 452
f 420 421 453
f 421 422 454
f 422 423 455
f 423 424 456
f 424 425 457
f 425 426 458
f 426 427 459
f 427 428 460
f 428 429 461
f 429 430 462
f 430 400 432
f 432 431 463
f 431 433 465
f 433 434 466
f 434 435 467
f 435 436 468
f 436 437 469
f 437 438 470
f 438 439 471
f 439 440 472
f 440 441 473
f 441 442 474
f 442 443 475
f 443 444 476
f 444 445 477
f 445 446 478
f 446 447 479
f 447 448 480
f 448 449 481
f 449 450 482
f 450 451 483
f 451 452 484
f 452 453 485
f 453 454 486
f 454 455 487
f 455 456 488
f 456 457 489
f 457 458 490
f 458 459 491
f 459 460 492
f 460 461 493
f 461 462 494
f 462 432 464
f 464 463 495
f 463 465 497
f 465 466 498
f 466 467 499
f 467 468 500
f 468 469 501
f 469 470 502
f 470 471 503
f 471 472 504
f 472 473 505
f 473 474 506
f 474 475 507
f 475 476 508
f 476 477 509
f 477 478 510
f 478 479 511
f 479 480 512
f 480 481 513
f 481 482 514
f 482 483 515
f 483 484 516
f 484 485 517
f 485 486 518
f 486 487 519
f 487 488 520
f 488 489 521
f 489 490 522
f 490 491 523
f 491 492 524
f 492 493 525
f 493 494 526
f 494 464 496
f 496 495 527
f 495 497 529
f 497 498 530
f 498 499 531
f 499 500 532
f 500 501 533
f 501 502 534
f 502 503 535
f 503 504 536
f 504 505 537
f 505 506 538
f 506 507 539
f 507 508 540
f 508 509 541
f 509 510 542
f 510 511 543
f 511 512 544
f 512 513 545
f 513 514 546
f 514 515 547
f 515 516 548
f 516 517 549
f 517 518 550
f 518 519 551
f 519 520 552
f 520 521 553
f 521 522 554
f 522 523 555
f 523 524 556
f 524 525 557
f 525 526 558
f 526 496 528
f 528 527 559
f 527 529 561
f 529 530 562
f 530 531 563
f 531 532 564
f 532 533 565
f 533 534 566
f 534 535 567
f 535 536 568
f 536 537 569
f 537 538 570
f 538 539 571
f 539 540 572
f 540 541 573
f 541 542 574
f 542 543 575
f 543 544 576
f 544 545 577
f 545 546 578
f 546 547 579
f 547 548 580
f 548 549 581
f 549 550 582
f 550 551 583
f 551 552 584
f 552 553 585
f 553 554 586
f 554 555 587
f 555 556 588
f 556 557 589
f 557 558 590
f 558 528 560
f 560 559 591
f 559 561 593
f 561 562 594
f 562 563 595
f 563 564 596
f 564 565 597
f 565 566 598
f 566 567 599
f 567 568 600
f 568 569 601
f 569 570 602
f 570 571 603
f 571 572 604
f 572 573 605
f 573 574 606
f 574 575 607
f 575 576 608
f 576 577 609
f 577 578 610
f 578 579 611
f 579 580 612
f 580 581 613
f 581 582 614
f 582 583 615
f 583 584 616
f 584 585 617
f 585 586 618
f 586 587 619
f 587 588 620
f 588 589 621
f 589 590 622
f 590 560 592
f 623 624 625
f 626 627 624
f 628 629 627
f 630 631 629
f 632 633 631
f 634 635 633
f 636 637 635
f 638 639 637
f 640 641 639
f 642 643 641
f 644 645 643
f 646 647 645
f 648 649 647
f 650 625 649
f 623 626 624
f 626 628 627
f 628 630 629
f 630 632 631
f 632 634 633
f 634 636 635
f 636 638 637
f 638 640 639
f 640 642 641
f 642 644 643
f 644 646 645
f 646 648 647
f 648 650 649
f 650 623 625
f 651 652 653
f 654 655 652
f 656 657 655
f 658 659 657
f 660 661 659
f 662 663 661
f 664 665 663
f 666 667 665
f 668 669 667
f 670 671 669
f 672 673 671
f 674 675 673
f 676 677 675
f 678 653 677
f 651 654 652
f 654 656 655
f 656 658 657
f 658 660 659
f 660 662 661
f 662 664 663
f 664 666 665
f 666 668 667
f 668 670 669
f 670 672 671
f 672 674 673
f 674 676 675
f 676 678 677
f 678 651 653
f 679 680 681
f 681 680 682
f 679 683 684
f 679 681 683
f 679 684 680
f 680 684 685
f 680 685 686
f 680 686 682
f 681 686 683
f 681 682 686
f 683 685 684
f 683 686 685
f 687 688 689
f 689 688 690
f 687 691 692
f 687 689 691
f 687 692 688
f 688 692 693
f 688 693 694
f 688 694 690
f 689 694 691
f 689 690 694
f 691 693 692
f 691 694 693
f 695 696 697
f 697 696 698
f 695 699 700
f 695 697 699
f 695 700 696
f 696 700 701
f 696 701 702
f 696 702 698
f 697 702 699
f 697 698 702
f 699 701 700
f 699 702 701
f 703 704 705
f 705 704 706
f 703 707 708
f 703 705 707
f 703 708 704
f 704 708 709
f 704 709 710
f 704 710 706
f 705 710 707
f 705 706 710
f 707 709 708
f 707 710 709
f 711 712 713
f 713 712 714
f 711 715 716
f 711 713 715
f 711 716 712
f 712 716 717
f 712 717 718
f 712 718 714
f 713 718 715
f 713 714 718
f 715 717 716
f 715 718 717
f 719 720 721
f 721 720 722
f 719 723 724
f 719 721 723
f 719 724 720
f 720 724 725
f 720 725 726
f 720 726 722
f 721 726 723
f 721 722 726
f 723 725 724
f 723 726 725
f 727 728 729
f 729 728 730
f 727 731 732
f 727 729 731
f 727 732 728
f 728 732 733
f 728 733 734
f 728 734 730
f 729 734 731
f 729 730 734
f 731 733 732
f 731 734 733
