# Original shape: m1282.obj
# No processing applied - exact copy of source file
# Generated on 2025-10-13 15:35:56

v 0.289146 0.500000 0.057381
v 0.240289 0.816667 0.052360
v 0.283808 0.816667 0.057381
v 0.240590 0.500000 0.051779
v 0.207649 0.816667 0.051941
v 0.204173 0.500000 0.051312
v 0.199489 0.816667 0.052150
v 0.195069 0.500000 0.051545
v 0.191330 0.816667 0.052360
v 0.185965 0.500000 0.051779
v 0.185890 0.816667 0.053197
v 0.179896 0.500000 0.052712
v 0.180450 0.816667 0.054033
v 0.173826 0.500000 0.053646
v 0.175010 0.816667 0.056963
v 0.167757 0.500000 0.056914
v 0.175010 0.816667 0.057800
v 0.167757 0.500000 0.057848
v 0.180450 0.816667 0.060729
v 0.173826 0.500000 0.061116
v 0.185890 0.816667 0.061566
v 0.179896 0.500000 0.062050
v 0.191330 0.816667 0.062403
v 0.185965 0.500000 0.062984
v 0.196770 0.816667 0.062612
v 0.192034 0.500000 0.063217
v 0.207649 0.816667 0.062821
v 0.204173 0.500000 0.063451
v 0.240289 0.816667 0.062403
v 0.240590 0.500000 0.062984
v 0.240289 0.183333 0.052360
v 0.283808 0.183333 0.057381
v 0.207649 0.183333 0.051941
v 0.199489 0.183333 0.052150
v 0.191330 0.183333 0.052360
v 0.185890 0.183333 0.053197
v 0.180450 0.183333 0.054033
v 0.175010 0.183333 0.056963
v 0.175010 0.183333 0.057800
v 0.180450 0.183333 0.060729
v 0.185890 0.183333 0.061566
v 0.191330 0.183333 0.062403
v 0.196770 0.183333 0.062612
v 0.207649 0.183333 0.062821
v 0.240289 0.183333 0.062403
v 0.214761 0.975000 0.108722
v 0.241262 0.975000 0.111780
v 0.194885 0.975000 0.108468
v 0.189917 0.975000 0.108595
v 0.184948 0.975000 0.108722
v 0.181635 0.975000 0.109232
v 0.178322 0.975000 0.109742
v 0.175010 0.975000 0.111525
v 0.175010 0.975000 0.112035
v 0.178322 0.975000 0.113819
v 0.181635 0.975000 0.114328
v 0.184948 0.975000 0.114838
v 0.188260 0.975000 0.114965
v 0.194885 0.975000 0.115093
v 0.214761 0.975000 0.114838
v 0.214761 0.025000 0.108722
v 0.241262 0.025000 0.111780
v 0.194885 0.025000 0.108468
v 0.189917 0.025000 0.108595
v 0.184948 0.025000 0.108722
v 0.181635 0.025000 0.109232
v 0.178322 0.025000 0.109742
v 0.175010 0.025000 0.111525
v 0.175010 0.025000 0.112035
v 0.178322 0.025000 0.113819
v 0.181635 0.025000 0.114328
v 0.184948 0.025000 0.114838
v 0.188260 0.025000 0.114965
v 0.194885 0.025000 0.115093
v 0.214761 0.025000 0.114838
v 0.671784 0.500000 0.070576
v 0.665451 0.631944 0.068627
v 0.682340 0.631944 0.070576
v 0.650673 0.500000 0.068140
v 0.652784 0.631944 0.068464
v 0.634840 0.500000 0.067937
v 0.649618 0.631944 0.068546
v 0.630882 0.500000 0.068038
v 0.646451 0.631944 0.068627
v 0.626923 0.500000 0.068140
v 0.644340 0.631944 0.068952
v 0.624284 0.500000 0.068546
v 0.642229 0.631944 0.069276
v 0.621646 0.500000 0.068952
v 0.640118 0.631944 0.070413
v 0.619007 0.500000 0.070373
v 0.640118 0.631944 0.070738
v 0.619007 0.500000 0.070779
v 0.642229 0.631944 0.071875
v 0.621646 0.500000 0.072199
v 0.644340 0.631944 0.072199
v 0.624284 0.500000 0.072606
v 0.646451 0.631944 0.072524
v 0.626923 0.500000 0.073011
v 0.648562 0.631944 0.072606
v 0.629562 0.500000 0.073113
v 0.652784 0.631944 0.072687
v 0.634840 0.500000 0.073215
v 0.665451 0.631944 0.072524
v 0.650673 0.500000 0.073011
v 0.665451 0.368056 0.068627
v 0.682340 0.368056 0.070576
v 0.652784 0.368056 0.068464
v 0.649618 0.368056 0.068546
v 0.646451 0.368056 0.068627
v 0.644340 0.368056 0.068952
v 0.642229 0.368056 0.069276
v 0.640118 0.368056 0.070413
v 0.640118 0.368056 0.070738
v 0.642229 0.368056 0.071875
v 0.644340 0.368056 0.072199
v 0.646451 0.368056 0.072524
v 0.648562 0.368056 0.072606
v 0.652784 0.368056 0.072687
v 0.665451 0.368056 0.072524
v 0.025000 0.503281 0.041646
v 0.032461 0.507778 0.044538
v 0.032461 0.508178 0.041494
v 0.025000 0.503120 0.042308
v 0.032461 0.506616 0.047283
v 0.025000 0.502654 0.042905
v 0.032461 0.504807 0.049462
v 0.025000 0.501928 0.043378
v 0.032461 0.502527 0.050861
v 0.025000 0.501014 0.043682
v 0.032461 0.500000 0.051343
v 0.025000 0.500000 0.043787
v 0.032461 0.497473 0.050861
v 0.025000 0.498986 0.043682
v 0.032461 0.495193 0.049462
v 0.025000 0.498072 0.043378
v 0.032461 0.493384 0.047283
v 0.025000 0.497346 0.042905
v 0.032461 0.492222 0.044538
v 0.025000 0.496880 0.042308
v 0.032461 0.491822 0.041494
v 0.025000 0.496719 0.041646
v 0.032461 0.492222 0.038450
v 0.025000 0.496880 0.040984
v 0.032461 0.493384 0.035704
v 0.025000 0.497346 0.040387
v 0.032461 0.495193 0.033525
v 0.025000 0.498072 0.039913
v 0.032461 0.497473 0.032126
v 0.025000 0.498986 0.039609
v 0.032461 0.500000 0.031644
v 0.025000 0.500000 0.039504
v 0.032461 0.502527 0.032126
v 0.025000 0.501014 0.039609
v 0.032461 0.504807 0.033525
v 0.025000 0.501928 0.039913
v 0.032461 0.506616 0.035704
v 0.025000 0.502654 0.040387
v 0.032461 0.507778 0.038450
v 0.025000 0.503120 0.040984
v 0.048357 0.512426 0.046536
v 0.048357 0.513066 0.042127
v 0.048357 0.510571 0.050514
v 0.048357 0.507680 0.053671
v 0.048357 0.504038 0.055698
v 0.048357 0.500000 0.056397
v 0.048357 0.495962 0.055698
v 0.048357 0.492320 0.053671
v 0.048357 0.489429 0.050514
v 0.048357 0.487574 0.046536
v 0.048357 0.486934 0.042127
v 0.048357 0.487574 0.037717
v 0.048357 0.489429 0.033739
v 0.048357 0.492320 0.030582
v 0.048357 0.495962 0.028555
v 0.048357 0.500000 0.027857
v 0.048357 0.504038 0.028555
v 0.048357 0.507680 0.030582
v 0.048357 0.510571 0.033739
v 0.048357 0.512426 0.037717
v 0.059223 0.514862 0.047255
v 0.059223 0.515627 0.042381
v 0.059223 0.512643 0.051652
v 0.059223 0.509185 0.055141
v 0.059223 0.504829 0.057381
v 0.059223 0.500000 0.058153
v 0.059223 0.495171 0.057381
v 0.059223 0.490815 0.055141
v 0.059223 0.487357 0.051652
v 0.059223 0.485138 0.047255
v 0.059223 0.484373 0.042381
v 0.059223 0.485138 0.037508
v 0.059223 0.487357 0.033111
v 0.059223 0.490815 0.029622
v 0.059223 0.495171 0.027381
v 0.059223 0.500000 0.026610
v 0.059223 0.504829 0.027381
v 0.059223 0.509185 0.029622
v 0.059223 0.512643 0.033111
v 0.059223 0.514862 0.037508
v 0.072144 0.515085 0.046997
v 0.072144 0.515862 0.041804
v 0.072144 0.512832 0.051681
v 0.072144 0.509323 0.055399
v 0.072144 0.504901 0.057786
v 0.072144 0.500000 0.058608
v 0.072144 0.495099 0.057786
v 0.072144 0.490677 0.055399
v 0.072144 0.487168 0.051681
v 0.072144 0.484915 0.046997
v 0.072144 0.484138 0.041804
v 0.072144 0.484915 0.036611
v 0.072144 0.487168 0.031927
v 0.072144 0.490677 0.028209
v 0.072144 0.495099 0.025822
v 0.072144 0.500000 0.025000
v 0.072144 0.504901 0.025822
v 0.072144 0.509323 0.028209
v 0.072144 0.512832 0.031927
v 0.072144 0.515085 0.036611
v 0.170396 0.514792 0.047520
v 0.170396 0.515553 0.042372
v 0.170396 0.512583 0.052164
v 0.170396 0.509142 0.055849
v 0.170396 0.504806 0.058215
v 0.170396 0.500000 0.059030
v 0.170396 0.495194 0.058215
v 0.170396 0.490858 0.055849
v 0.170396 0.487417 0.052164
v 0.170396 0.485208 0.047520
v 0.170396 0.484447 0.042372
v 0.170396 0.485208 0.037225
v 0.170396 0.487417 0.032581
v 0.170396 0.490858 0.028896
v 0.170396 0.495194 0.026530
v 0.170396 0.500000 0.025715
v 0.170396 0.504806 0.026530
v 0.170396 0.509142 0.028896
v 0.170396 0.512583 0.032581
v 0.170396 0.514792 0.037225
v 0.272334 0.515104 0.049206
v 0.272334 0.515881 0.045316
v 0.272334 0.512848 0.052716
v 0.272334 0.509335 0.055502
v 0.272334 0.504907 0.057291
v 0.272334 0.500000 0.057907
v 0.272334 0.495093 0.057291
v 0.272334 0.490665 0.055502
v 0.272334 0.487152 0.052716
v 0.272334 0.484896 0.049206
v 0.272334 0.484119 0.045316
v 0.272334 0.484896 0.041425
v 0.272334 0.487152 0.037915
v 0.272334 0.490665 0.035129
v 0.272334 0.495093 0.033341
v 0.272334 0.500000 0.032724
v 0.272334 0.504907 0.033341
v 0.272334 0.509335 0.035129
v 0.272334 0.512848 0.037915
v 0.272334 0.515104 0.041425
v 0.281224 0.512988 0.048543
v 0.281224 0.513657 0.045391
v 0.281224 0.511049 0.051388
v 0.281224 0.508027 0.053645
v 0.281224 0.504220 0.055094
v 0.281224 0.500000 0.055593
v 0.281224 0.495780 0.055094
v 0.281224 0.491973 0.053645
v 0.281224 0.488951 0.051388
v 0.281224 0.487012 0.048543
v 0.281224 0.486343 0.045391
v 0.281224 0.487012 0.042238
v 0.281224 0.488951 0.039394
v 0.281224 0.491973 0.037136
v 0.281224 0.495780 0.035687
v 0.281224 0.500000 0.035188
v 0.281224 0.504220 0.035687
v 0.281224 0.508027 0.037136
v 0.281224 0.511049 0.039394
v 0.281224 0.512988 0.042238
v 0.286059 0.510763 0.048982
v 0.286059 0.511317 0.046489
v 0.286059 0.509156 0.051232
v 0.286059 0.506652 0.053017
v 0.286059 0.503497 0.054163
v 0.286059 0.500000 0.054558
v 0.286059 0.496503 0.054163
v 0.286059 0.493348 0.053017
v 0.286059 0.490844 0.051232
v 0.286059 0.489237 0.048982
v 0.286059 0.488683 0.046489
v 0.286059 0.489237 0.043996
v 0.286059 0.490844 0.041747
v 0.286059 0.493348 0.039962
v 0.286059 0.496503 0.038816
v 0.286059 0.500000 0.038421
v 0.286059 0.503497 0.038816
v 0.286059 0.506652 0.039962
v 0.286059 0.509156 0.041747
v 0.286059 0.510763 0.043996
v 0.292897 0.508070 0.048538
v 0.292897 0.508486 0.046989
v 0.292897 0.506865 0.049935
v 0.292897 0.504988 0.051043
v 0.292897 0.502622 0.051755
v 0.292897 0.500000 0.052001
v 0.292897 0.497378 0.051755
v 0.292897 0.495012 0.051043
v 0.292897 0.493135 0.049935
v 0.292897 0.491930 0.048538
v 0.292897 0.491514 0.046989
v 0.292897 0.491930 0.045440
v 0.292897 0.493135 0.044043
v 0.292897 0.495012 0.042935
v 0.292897 0.497378 0.042223
v 0.292897 0.500000 0.041977
v 0.292897 0.502622 0.042223
v 0.292897 0.504988 0.042935
v 0.292897 0.506865 0.044043
v 0.292897 0.508070 0.045440
v 0.667632 0.502598 0.048116
v 0.667632 0.502732 0.046653
v 0.667632 0.502210 0.049435
v 0.667632 0.501606 0.050483
v 0.667632 0.500844 0.051155
v 0.667632 0.500000 0.051387
v 0.667632 0.499156 0.051155
v 0.667632 0.498394 0.050483
v 0.667632 0.497790 0.049435
v 0.667632 0.497402 0.048116
v 0.667632 0.497268 0.046653
v 0.667632 0.497402 0.045190
v 0.667632 0.497790 0.043871
v 0.667632 0.498394 0.042823
v 0.667632 0.499156 0.042151
v 0.667632 0.500000 0.041919
v 0.667632 0.500844 0.042151
v 0.667632 0.501606 0.042823
v 0.667632 0.502210 0.043871
v 0.667632 0.502598 0.045190
v 0.610729 0.500000 0.047299
v 0.641939 0.501299 0.126465
v 0.639828 0.500000 0.126465
v 0.614687 0.502436 0.047299
v 0.644051 0.501624 0.126465
v 0.618646 0.503045 0.047299
v 0.646162 0.501949 0.126465
v 0.622604 0.503654 0.047299
v 0.648273 0.502030 0.126465
v 0.626562 0.503806 0.047299
v 0.652495 0.502111 0.126465
v 0.634479 0.503958 0.047299
v 0.665162 0.501949 0.126465
v 0.658229 0.503654 0.047299
v 0.682051 0.500000 0.126465
v 0.689896 0.500000 0.047299
v 0.665162 0.498051 0.126465
v 0.658229 0.496346 0.047299
v 0.652495 0.497889 0.126465
v 0.634479 0.496042 0.047299
v 0.648273 0.497970 0.126465
v 0.626562 0.496194 0.047299
v 0.646162 0.498051 0.126465
v 0.622604 0.496346 0.047299
v 0.644051 0.498376 0.126465
v 0.618646 0.496955 0.047299
v 0.641939 0.498701 0.126465
v 0.614687 0.497564 0.047299
f 1 2 3
f 4 5 2
f 6 7 5
f 8 9 7
f 10 11 9
f 12 13 11
f 14 15 13
f 16 17 15
f 18 19 17
f 20 21 19
f 22 23 21
f 24 25 23
f 26 27 25
f 28 29 27
f 30 3 29
f 1 4 2
f 4 6 5
f 6 8 7
f 8 10 9
f 10 12 11
f 12 14 13
f 14 16 15
f 16 18 17
f 18 20 19
f 20 22 21
f 22 24 23
f 24 26 25
f 26 28 27
f 28 30 29
f 30 1 3
f 1 31 32
f 4 33 31
f 6 34 33
f 8 35 34
f 10 36 35
f 12 37 36
f 14 38 37
f 16 39 38
f 18 40 39
f 20 41 40
f 22 42 41
f 24 43 42
f 26 44 43
f 28 45 44
f 30 32 45
f 1 4 31
f 4 6 33
f 6 8 34
f 8 10 35
f 10 12 36
f 12 14 37
f 14 16 38
f 16 18 39
f 18 20 40
f 20 22 41
f 22 24 42
f 24 26 43
f 26 28 44
f 28 30 45
f 30 1 32
f 3 46 47
f 2 48 46
f 5 49 48
f 7 50 49
f 9 51 50
f 11 52 51
f 13 53 52
f 15 54 53
f 17 55 54
f 19 56 55
f 21 57 56
f 23 58 57
f 25 59 58
f 27 60 59
f 29 47 60
f 3 2 46
f 2 5 48
f 5 7 49
f 7 9 50
f 9 11 51
f 11 13 52
f 13 15 53
f 15 17 54
f 17 19 55
f 19 21 56
f 21 23 57
f 23 25 58
f 25 27 59
f 27 29 60
f 29 3 47
f 32 61 62
f 31 63 61
f 33 64 63
f 34 65 64
f 35 66 65
f 36 67 66
f 37 68 67
f 38 69 68
f 39 70 69
f 40 71 70
f 41 72 71
f 42 73 72
f 43 74 73
f 44 75 74
f 45 62 75
f 32 31 61
f 31 33 63
f 33 34 64
f 34 35 65
f 35 36 66
f 36 37 67
f 37 38 68
f 38 39 69
f 39 40 70
f 40 41 71
f 41 42 72
f 42 43 73
f 43 44 74
f 44 45 75
f 45 32 62
f 76 77 78
f 79 80 77
f 81 82 80
f 83 84 82
f 85 86 84
f 87 88 86
f 89 90 88
f 91 92 90
f 93 94 92
f 95 96 94
f 97 98 96
f 99 100 98
f 101 102 100
f 103 104 102
f 105 78 104
f 76 79 77
f 79 81 80
f 81 83 82
f 83 85 84
f 85 87 86
f 87 89 88
f 89 91 90
f 91 93 92
f 93 95 94
f 95 97 96
f 97 99 98
f 99 101 100
f 101 103 102
f 103 105 104
f 105 76 78
f 76 106 107
f 79 108 106
f 81 109 108
f 83 110 109
f 85 111 110
f 87 112 111
f 89 113 112
f 91 114 113
f 93 115 114
f 95 116 115
f 97 117 116
f 99 118 117
f 101 119 118
f 103 120 119
f 105 107 120
f 76 79 106
f 79 81 108
f 81 83 109
f 83 85 110
f 85 87 111
f 87 89 112
f 89 91 113
f 91 93 114
f 93 95 115
f 95 97 116
f 97 99 117
f 99 101 118
f 101 103 119
f 103 105 120
f 105 76 107
f 121 122 123
f 124 125 122
f 126 127 125
f 128 129 127
f 130 131 129
f 132 133 131
f 134 135 133
f 136 137 135
f 138 139 137
f 140 141 139
f 142 143 141
f 144 145 143
f 146 147 145
f 148 149 147
f 150 151 149
f 152 153 151
f 154 155 153
f 156 157 155
f 158 159 157
f 160 123 159
f 123 161 162
f 122 163 161
f 125 164 163
f 127 165 164
f 129 166 165
f 131 167 166
f 133 168 167
f 135 169 168
f 137 170 169
f 139 171 170
f 141 172 171
f 143 173 172
f 145 174 173
f 147 175 174
f 149 176 175
f 151 177 176
f 153 178 177
f 155 179 178
f 157 180 179
f 159 162 180
f 162 181 182
f 161 183 181
f 163 184 183
f 164 185 184
f 165 186 185
f 166 187 186
f 167 188 187
f 168 189 188
f 169 190 189
f 170 191 190
f 171 192 191
f 172 193 192
f 173 194 193
f 174 195 194
f 175 196 195
f 176 197 196
f 177 198 197
f 178 199 198
f 179 200 199
f 180 182 200
f 182 201 202
f 181 203 201
f 183 204 203
f 184 205 204
f 185 206 205
f 186 207 206
f 187 208 207
f 188 209 208
f 189 210 209
f 190 211 210
f 191 212 211
f 192 213 212
f 193 214 213
f 194 215 214
f 195 216 215
f 196 217 216
f 197 218 217
f 198 219 218
f 199 220 219
f 200 202 220
f 202 221 222
f 201 223 221
f 203 224 223
f 204 225 224
f 205 226 225
f 206 227 226
f 207 228 227
f 208 229 228
f 209 230 229
f 210 231 230
f 211 232 231
f 212 233 232
f 213 234 233
f 214 235 234
f 215 236 235
f 216 237 236
f 217 238 237
f 218 239 238
f 219 240 239
f 220 222 240
f 222 241 242
f 221 243 241
f 223 244 243
f 224 245 244
f 225 246 245
f 226 247 246
f 227 248 247
f 228 249 248
f 229 250 249
f 230 251 250
f 231 252 251
f 232 253 252
f 233 254 253
f 234 255 254
f 235 256 255
f 236 257 256
f 237 258 257
f 238 259 258
f 239 260 259
f 240 242 260
f 242 261 262
f 241 263 261
f 243 264 263
f 244 265 264
f 245 266 265
f 246 267 266
f 247 268 267
f 248 269 268
f 249 270 269
f 250 271 270
f 251 272 271
f 252 273 272
f 253 274 273
f 254 275 274
f 255 276 275
f 256 277 276
f 257 278 277
f 258 279 278
f 259 280 279
f 260 262 280
f 262 281 282
f 261 283 281
f 263 284 283
f 264 285 284
f 265 286 285
f 266 287 286
f 267 288 287
f 268 289 288
f 269 290 289
f 270 291 290
f 271 292 291
f 272 293 292
f 273 294 293
f 274 295 294
f 275 296 295
f 276 297 296
f 277 298 297
f 278 299 298
f 279 300 299
f 280 282 300
f 282 301 302
f 281 303 301
f 283 304 303
f 284 305 304
f 285 306 305
f 286 307 306
f 287 308 307
f 288 309 308
f 289 310 309
f 290 311 310
f 291 312 311
f 292 313 312
f 293 314 313
f 294 315 314
f 295 316 315
f 296 317 316
f 297 318 317
f 298 319 318
f 299 320 319
f 300 302 320
f 302 321 322
f 301 323 321
f 303 324 323
f 304 325 324
f 305 326 325
f 306 327 326
f 307 328 327
f 308 329 328
f 309 330 329
f 310 331 330
f 311 332 331
f 312 333 332
f 313 334 333
f 314 335 334
f 315 336 335
f 316 337 336
f 317 338 337
f 318 339 338
f 319 340 339
f 320 322 340
f 121 124 122
f 124 126 125
f 126 128 127
f 128 130 129
f 130 132 131
f 132 134 133
f 134 136 135
f 136 138 137
f 138 140 139
f 140 142 141
f 142 144 143
f 144 146 145
f 146 148 147
f 148 150 149
f 150 152 151
f 152 154 153
f 154 156 155
f 156 158 157
f 158 160 159
f 160 121 123
f 123 122 161
f 122 125 163
f 125 127 164
f 127 129 165
f 129 131 166
f 131 133 167
f 133 135 168
f 135 137 169
f 137 139 170
f 139 141 171
f 141 143 172
f 143 145 173
f 145 147 174
f 147 149 175
f 149 151 176
f 151 153 177
f 153 155 178
f 155 157 179
f 157 159 180
f 159 123 162
f 162 161 181
f 161 163 183
f 163 164 184
f 164 165 185
f 165 166 186
f 166 167 187
f 167 168 188
f 168 169 189
f 169 170 190
f 170 171 191
f 171 172 192
f 172 173 193
f 173 174 194
f 174 175 195
f 175 176 196
f 176 177 197
f 177 178 198
f 178 179 199
f 179 180 200
f 180 162 182
f 182 181 201
f 181 183 203
f 183 184 204
f 184 185 205
f 185 186 206
f 186 187 207
f 187 188 208
f 188 189 209
f 189 190 210
f 190 191 211
f 191 192 212
f 192 193 213
f 193 194 214
f 194 195 215
f 195 196 216
f 196 197 217
f 197 198 218
f 198 199 219
f 199 200 220
f 200 182 202
f 202 201 221
f 201 203 223
f 203 204 224
f 204 205 225
f 205 206 226
f 206 207 227
f 207 208 228
f 208 209 229
f 209 210 230
f 210 211 231
f 211 212 232
f 212 213 233
f 213 214 234
f 214 215 235
f 215 216 236
f 216 217 237
f 217 218 238
f 218 219 239
f 219 220 240
f 220 202 222
f 222 221 241
f 221 223 243
f 223 224 244
f 224 225 245
f 225 226 246
f 226 227 247
f 227 228 248
f 228 229 249
f 229 230 250
f 230 231 251
f 231 232 252
f 232 233 253
f 233 234 254
f 234 235 255
f 235 236 256
f 236 237 257
f 237 238 258
f 238 239 259
f 239 240 260
f 240 222 242
f 242 241 261
f 241 243 263
f 243 244 264
f 244 245 265
f 245 246 266
f 246 247 267
f 247 248 268
f 248 249 269
f 249 250 270
f 250 251 271
f 251 252 272
f 252 253 273
f 253 254 274
f 254 255 275
f 255 256 276
f 256 257 277
f 257 258 278
f 258 259 279
f 259 260 280
f 260 242 262
f 262 261 281
f 261 263 283
f 263 264 284
f 264 265 285
f 265 266 286
f 266 267 287
f 267 268 288
f 268 269 289
f 269 270 290
f 270 271 291
f 271 272 292
f 272 273 293
f 273 274 294
f 274 275 295
f 275 276 296
f 276 277 297
f 277 278 298
f 278 279 299
f 279 280 300
f 280 262 282
f 282 281 301
f 281 283 303
f 283 284 304
f 284 285 305
f 285 286 306
f 286 287 307
f 287 288 308
f 288 289 309
f 289 290 310
f 290 291 311
f 291 292 312
f 292 293 313
f 293 294 314
f 294 295 315
f 295 296 316
f 296 297 317
f 297 298 318
f 298 299 319
f 299 300 320
f 300 282 302
f 302 301 321
f 301 303 323
f 303 304 324
f 304 305 325
f 305 306 326
f 306 307 327
f 307 308 328
f 308 309 329
f 309 310 330
f 310 311 331
f 311 312 332
f 312 313 333
f 313 314 334
f 314 315 335
f 315 316 336
f 316 317 337
f 317 318 338
f 318 319 339
f 319 320 340
f 320 302 322
f 341 342 343
f 344 345 342
f 346 347 345
f 348 349 347
f 350 351 349
f 352 353 351
f 354 355 353
f 356 357 355
f 358 359 357
f 360 361 359
f 362 363 361
f 364 365 363
f 366 367 365
f 368 343 367
f 341 344 342
f 344 346 345
f 346 348 347
f 348 350 349
f 350 352 351
f 352 354 353
f 354 356 355
f 356 358 357
f 358 360 359
f 360 362 361
f 362 364 363
f 364 366 365
f 366 368 367
f 368 341 343
