# Original shape: m1291.obj
# No processing applied - exact copy of source file
# Generated on 2025-10-13 15:37:28

v 0.168223 0.500000 0.109580
v 0.181011 0.975000 0.181248
v 0.175530 0.975000 0.177200
v 0.176627 0.500000 0.115786
v 0.186492 0.975000 0.182260
v 0.185030 0.500000 0.117337
v 0.191973 0.975000 0.183271
v 0.193434 0.500000 0.118888
v 0.197454 0.975000 0.183524
v 0.201838 0.500000 0.119276
v 0.208415 0.975000 0.183777
v 0.218646 0.500000 0.119664
v 0.241300 0.975000 0.183271
v 0.269069 0.500000 0.118888
v 0.285146 0.975000 0.177200
v 0.336300 0.500000 0.109580
v 0.241300 0.975000 0.171129
v 0.269069 0.500000 0.100271
v 0.208415 0.975000 0.170623
v 0.218646 0.500000 0.099495
v 0.197454 0.975000 0.170876
v 0.201838 0.500000 0.099883
v 0.191973 0.975000 0.171129
v 0.193434 0.500000 0.100271
v 0.186492 0.975000 0.172141
v 0.185030 0.500000 0.101822
v 0.181011 0.975000 0.173153
v 0.176627 0.500000 0.103374
v 0.181011 0.025000 0.181248
v 0.175530 0.025000 0.177200
v 0.186492 0.025000 0.182260
v 0.191973 0.025000 0.183271
v 0.197454 0.025000 0.183524
v 0.208415 0.025000 0.183777
v 0.241300 0.025000 0.183271
v 0.285146 0.025000 0.177200
v 0.241300 0.025000 0.171129
v 0.208415 0.025000 0.170623
v 0.197454 0.025000 0.170876
v 0.191973 0.025000 0.171129
v 0.186492 0.025000 0.172141
v 0.181011 0.025000 0.173153
v 0.508595 0.500000 0.075376
v 0.540749 0.682692 0.077534
v 0.537826 0.682692 0.075376
v 0.513345 0.500000 0.078883
v 0.543672 0.682692 0.078074
v 0.518095 0.500000 0.079760
v 0.546595 0.682692 0.078614
v 0.522845 0.500000 0.080637
v 0.549518 0.682692 0.078748
v 0.527595 0.500000 0.080856
v 0.555364 0.682692 0.078883
v 0.537095 0.500000 0.081076
v 0.572903 0.682692 0.078614
v 0.565595 0.500000 0.080637
v 0.596287 0.682692 0.075376
v 0.603595 0.500000 0.075376
v 0.572903 0.682692 0.072138
v 0.565595 0.500000 0.070114
v 0.555364 0.682692 0.071868
v 0.537095 0.500000 0.069676
v 0.549518 0.682692 0.072003
v 0.527595 0.500000 0.069895
v 0.546595 0.682692 0.072138
v 0.522845 0.500000 0.070114
v 0.543672 0.682692 0.072677
v 0.518095 0.500000 0.070991
v 0.540749 0.682692 0.073217
v 0.513345 0.500000 0.071868
v 0.540749 0.317308 0.077534
v 0.537826 0.317308 0.075376
v 0.543672 0.317308 0.078074
v 0.546595 0.317308 0.078614
v 0.549518 0.317308 0.078748
v 0.555364 0.317308 0.078883
v 0.572903 0.317308 0.078614
v 0.596287 0.317308 0.075376
v 0.572903 0.317308 0.072138
v 0.555364 0.317308 0.071868
v 0.549518 0.317308 0.072003
v 0.546595 0.317308 0.072138
v 0.543672 0.317308 0.072677
v 0.540749 0.317308 0.073217
v 0.025000 0.377669 0.055921
v 0.076878 0.371201 0.079828
v 0.076878 0.385183 0.057118
v 0.025000 0.365888 0.077786
v 0.076878 0.337446 0.089235
v 0.025000 0.337446 0.086843
v 0.076878 0.303690 0.079828
v 0.025000 0.309003 0.077786
v 0.076878 0.289709 0.057118
v 0.025000 0.297222 0.055921
v 0.076878 0.303690 0.034407
v 0.025000 0.309003 0.034057
v 0.076878 0.337446 0.025000
v 0.025000 0.337446 0.025000
v 0.076878 0.371201 0.034407
v 0.025000 0.365888 0.034057
v 0.118381 0.373022 0.088206
v 0.118381 0.387759 0.062025
v 0.118381 0.337446 0.099050
v 0.118381 0.301869 0.088206
v 0.118381 0.287133 0.062025
v 0.118381 0.301869 0.035844
v 0.118381 0.337446 0.025000
v 0.118381 0.373022 0.035844
v 0.171154 0.376438 0.117439
v 0.171154 0.392589 0.079250
v 0.171154 0.337446 0.133257
v 0.171154 0.298454 0.117439
v 0.171154 0.282302 0.079250
v 0.171154 0.298454 0.041060
v 0.171154 0.337446 0.025242
v 0.171154 0.376438 0.041060
v 0.235733 0.378073 0.121359
v 0.235733 0.394901 0.082337
v 0.235733 0.337446 0.137522
v 0.235733 0.296819 0.121359
v 0.235733 0.279990 0.082337
v 0.235733 0.296819 0.043316
v 0.235733 0.337446 0.027153
v 0.235733 0.378073 0.043316
v 0.304428 0.373418 0.112613
v 0.304428 0.388318 0.078163
v 0.304428 0.337446 0.126883
v 0.304428 0.301474 0.112613
v 0.304428 0.286573 0.078163
v 0.304428 0.301474 0.043712
v 0.304428 0.337446 0.029442
v 0.304428 0.373418 0.043712
v 0.363104 0.365246 0.090762
v 0.363104 0.376761 0.066173
v 0.363104 0.337446 0.100947
v 0.363104 0.309645 0.090762
v 0.363104 0.298130 0.066173
v 0.363104 0.309645 0.041584
v 0.363104 0.337446 0.031398
v 0.363104 0.365246 0.041584
v 0.444678 0.358925 0.080752
v 0.444678 0.367823 0.061435
v 0.444678 0.337446 0.088753
v 0.444678 0.315966 0.080752
v 0.444678 0.307069 0.061435
v 0.444678 0.315966 0.042119
v 0.444678 0.337446 0.034118
v 0.444678 0.358925 0.042119
v 0.609615 0.347113 0.060511
v 0.609615 0.351117 0.051856
v 0.609615 0.337446 0.064097
v 0.609615 0.327778 0.060511
v 0.609615 0.323774 0.051856
v 0.609615 0.327778 0.043201
v 0.609615 0.337446 0.039615
v 0.609615 0.347113 0.043201
v 0.025000 0.702778 0.055921
v 0.076878 0.696310 0.079828
v 0.076878 0.710291 0.057118
v 0.025000 0.690997 0.077786
v 0.076878 0.662554 0.089235
v 0.025000 0.662554 0.086843
v 0.076878 0.628799 0.079828
v 0.025000 0.634112 0.077786
v 0.076878 0.614817 0.057118
v 0.025000 0.622331 0.055921
v 0.076878 0.628799 0.034407
v 0.025000 0.634112 0.034057
v 0.076878 0.662554 0.025000
v 0.025000 0.662554 0.025000
v 0.076878 0.696310 0.034407
v 0.025000 0.690997 0.034057
v 0.118381 0.698131 0.088206
v 0.118381 0.712867 0.062025
v 0.118381 0.662554 0.099050
v 0.118381 0.626978 0.088206
v 0.118381 0.612241 0.062025
v 0.118381 0.626978 0.035844
v 0.118381 0.662554 0.025000
v 0.118381 0.698131 0.035844
v 0.171154 0.701546 0.117439
v 0.171154 0.717698 0.079250
v 0.171154 0.662554 0.133257
v 0.171154 0.623562 0.117439
v 0.171154 0.607411 0.079250
v 0.171154 0.623562 0.041060
v 0.171154 0.662554 0.025242
v 0.171154 0.701546 0.041060
v 0.235733 0.703181 0.121359
v 0.235733 0.720010 0.082337
v 0.235733 0.662554 0.137522
v 0.235733 0.621927 0.121359
v 0.235733 0.605099 0.082337
v 0.235733 0.621927 0.043316
v 0.235733 0.662554 0.027153
v 0.235733 0.703181 0.043316
v 0.304428 0.698526 0.112613
v 0.304428 0.713427 0.078163
v 0.304428 0.662554 0.126883
v 0.304428 0.626582 0.112613
v 0.304428 0.611682 0.078163
v 0.304428 0.626582 0.043712
v 0.304428 0.662554 0.029442
v 0.304428 0.698526 0.043712
v 0.363104 0.690355 0.090762
v 0.363104 0.701870 0.066173
v 0.363104 0.662554 0.100947
v 0.363104 0.634754 0.090762
v 0.363104 0.623239 0.066173
v 0.363104 0.634754 0.041584
v 0.363104 0.662554 0.031398
v 0.363104 0.690355 0.041584
v 0.444678 0.684034 0.080752
v 0.444678 0.692931 0.061435
v 0.444678 0.662554 0.088753
v 0.444678 0.641075 0.080752
v 0.444678 0.632177 0.061435
v 0.444678 0.641075 0.042119
v 0.444678 0.662554 0.034118
v 0.444678 0.684034 0.042119
v 0.609615 0.672222 0.060511
v 0.609615 0.676226 0.051856
v 0.609615 0.662554 0.064097
v 0.609615 0.652887 0.060511
v 0.609615 0.648883 0.051856
v 0.609615 0.652887 0.043201
v 0.609615 0.662554 0.039615
v 0.609615 0.672222 0.043201
v 0.030590 0.500000 0.076154
v 0.581868 0.501006 0.185769
v 0.580233 0.500000 0.185769
v 0.059255 0.517640 0.076154
v 0.583503 0.501258 0.185769
v 0.087920 0.522050 0.076154
v 0.585138 0.501509 0.185769
v 0.116585 0.526460 0.076154
v 0.586773 0.501572 0.185769
v 0.145250 0.527562 0.076154
v 0.590043 0.501635 0.185769
v 0.202580 0.528665 0.076154
v 0.599853 0.501509 0.185769
v 0.374571 0.526460 0.076154
v 0.612934 0.500000 0.185769
v 0.603891 0.500000 0.076154
v 0.599853 0.498491 0.185769
v 0.374571 0.473540 0.076154
v 0.590043 0.498365 0.185769
v 0.202580 0.471335 0.076154
v 0.586773 0.498428 0.185769
v 0.145250 0.472437 0.076154
v 0.585138 0.498491 0.185769
v 0.116585 0.473540 0.076154
v 0.583503 0.498742 0.185769
v 0.087920 0.477950 0.076154
v 0.581868 0.498994 0.185769
v 0.059255 0.482360 0.076154
v 0.171154 0.496346 0.054231
v 0.171154 0.510962 0.054231
v 0.244231 0.496346 0.054231
v 0.244231 0.510962 0.054231
v 0.244231 0.496346 0.068846
v 0.171154 0.496346 0.068846
v 0.171154 0.510962 0.068846
v 0.244231 0.510962 0.068846
v 0.171154 0.498173 0.054231
v 0.171154 0.509135 0.054231
v 0.193077 0.498173 0.054231
v 0.193077 0.509135 0.054231
v 0.193077 0.498173 0.072500
v 0.171154 0.498173 0.072500
v 0.171154 0.509135 0.072500
v 0.193077 0.509135 0.072500
f 1 2 3
f 4 5 2
f 6 7 5
f 8 9 7
f 10 11 9
f 12 13 11
f 14 15 13
f 16 17 15
f 18 19 17
f 20 21 19
f 22 23 21
f 24 25 23
f 26 27 25
f 28 3 27
f 1 4 2
f 4 6 5
f 6 8 7
f 8 10 9
f 10 12 11
f 12 14 13
f 14 16 15
f 16 18 17
f 18 20 19
f 20 22 21
f 22 24 23
f 24 26 25
f 26 28 27
f 28 1 3
f 1 29 30
f 4 31 29
f 6 32 31
f 8 33 32
f 10 34 33
f 12 35 34
f 14 36 35
f 16 37 36
f 18 38 37
f 20 39 38
f 22 40 39
f 24 41 40
f 26 42 41
f 28 30 42
f 1 4 29
f 4 6 31
f 6 8 32
f 8 10 33
f 10 12 34
f 12 14 35
f 14 16 36
f 16 18 37
f 18 20 38
f 20 22 39
f 22 24 40
f 24 26 41
f 26 28 42
f 28 1 30
f 43 44 45
f 46 47 44
f 48 49 47
f 50 51 49
f 52 53 51
f 54 55 53
f 56 57 55
f 58 59 57
f 60 61 59
f 62 63 61
f 64 65 63
f 66 67 65
f 68 69 67
f 70 45 69
f 43 46 44
f 46 48 47
f 48 50 49
f 50 52 51
f 52 54 53
f 54 56 55
f 56 58 57
f 58 60 59
f 60 62 61
f 62 64 63
f 64 66 65
f 66 68 67
f 68 70 69
f 70 43 45
f 43 71 72
f 46 73 71
f 48 74 73
f 50 75 74
f 52 76 75
f 54 77 76
f 56 78 77
f 58 79 78
f 60 80 79
f 62 81 80
f 64 82 81
f 66 83 82
f 68 84 83
f 70 72 84
f 43 46 71
f 46 48 73
f 48 50 74
f 50 52 75
f 52 54 76
f 54 56 77
f 56 58 78
f 58 60 79
f 60 62 80
f 62 64 81
f 64 66 82
f 66 68 83
f 68 70 84
f 70 43 72
f 85 86 87
f 88 89 86
f 90 91 89
f 92 93 91
f 94 95 93
f 96 97 95
f 98 99 97
f 100 87 99
f 87 101 102
f 86 103 101
f 89 104 103
f 91 105 104
f 93 106 105
f 95 107 106
f 97 108 107
f 99 102 108
f 102 109 110
f 101 111 109
f 103 112 111
f 104 113 112
f 105 114 113
f 106 115 114
f 107 116 115
f 108 110 116
f 110 117 118
f 109 119 117
f 111 120 119
f 112 121 120
f 113 122 121
f 114 123 122
f 115 124 123
f 116 118 124
f 118 125 126
f 117 127 125
f 119 128 127
f 120 129 128
f 121 130 129
f 122 131 130
f 123 132 131
f 124 126 132
f 126 133 134
f 125 135 133
f 127 136 135
f 128 137 136
f 129 138 137
f 130 139 138
f 131 140 139
f 132 134 140
f 134 141 142
f 133 143 141
f 135 144 143
f 136 145 144
f 137 146 145
f 138 147 146
f 139 148 147
f 140 142 148
f 142 149 150
f 141 151 149
f 143 152 151
f 144 153 152
f 145 154 153
f 146 155 154
f 147 156 155
f 148 150 156
f 85 88 86
f 88 90 89
f 90 92 91
f 92 94 93
f 94 96 95
f 96 98 97
f 98 100 99
f 100 85 87
f 87 86 101
f 86 89 103
f 89 91 104
f 91 93 105
f 93 95 106
f 95 97 107
f 97 99 108
f 99 87 102
f 102 101 109
f 101 103 111
f 103 104 112
f 104 105 113
f 105 106 114
f 106 107 115
f 107 108 116
f 108 102 110
f 110 109 117
f 109 111 119
f 111 112 120
f 112 113 121
f 113 114 122
f 114 115 123
f 115 116 124
f 116 110 118
f 118 117 125
f 117 119 127
f 119 120 128
f 120 121 129
f 121 122 130
f 122 123 131
f 123 124 132
f 124 118 126
f 126 125 133
f 125 127 135
f 127 128 136
f 128 129 137
f 129 130 138
f 130 131 139
f 131 132 140
f 132 126 134
f 134 133 141
f 133 135 143
f 135 136 144
f 136 137 145
f 137 138 146
f 138 139 147
f 139 140 148
f 140 134 142
f 142 141 149
f 141 143 151
f 143 144 152
f 144 145 153
f 145 146 154
f 146 147 155
f 147 148 156
f 148 142 150
f 157 158 159
f 160 161 158
f 162 163 161
f 164 165 163
f 166 167 165
f 168 169 167
f 170 171 169
f 172 159 171
f 159 173 174
f 158 175 173
f 161 176 175
f 163 177 176
f 165 178 177
f 167 179 178
f 169 180 179
f 171 174 180
f 174 181 182
f 173 183 181
f 175 184 183
f 176 185 184
f 177 186 185
f 178 187 186
f 179 188 187
f 180 182 188
f 182 189 190
f 181 191 189
f 183 192 191
f 184 193 192
f 185 194 193
f 186 195 194
f 187 196 195
f 188 190 196
f 190 197 198
f 189 199 197
f 191 200 199
f 192 201 200
f 193 202 201
f 194 203 202
f 195 204 203
f 196 198 204
f 198 205 206
f 197 207 205
f 199 208 207
f 200 209 208
f 201 210 209
f 202 211 210
f 203 212 211
f 204 206 212
f 206 213 214
f 205 215 213
f 207 216 215
f 208 217 216
f 209 218 217
f 210 219 218
f 211 220 219
f 212 214 220
f 214 221 222
f 213 223 221
f 215 224 223
f 216 225 224
f 217 226 225
f 218 227 226
f 219 228 227
f 220 222 228
f 157 160 158
f 160 162 161
f 162 164 163
f 164 166 165
f 166 168 167
f 168 170 169
f 170 172 171
f 172 157 159
f 159 158 173
f 158 161 175
f 161 163 176
f 163 165 177
f 165 167 178
f 167 169 179
f 169 171 180
f 171 159 174
f 174 173 181
f 173 175 183
f 175 176 184
f 176 177 185
f 177 178 186
f 178 179 187
f 179 180 188
f 180 174 182
f 182 181 189
f 181 183 191
f 183 184 192
f 184 185 193
f 185 186 194
f 186 187 195
f 187 188 196
f 188 182 190
f 190 189 197
f 189 191 199
f 191 192 200
f 192 193 201
f 193 194 202
f 194 195 203
f 195 196 204
f 196 190 198
f 198 197 205
f 197 199 207
f 199 200 208
f 200 201 209
f 201 202 210
f 202 203 211
f 203 204 212
f 204 198 206
f 206 205 213
f 205 207 215
f 207 208 216
f 208 209 217
f 209 210 218
f 210 211 219
f 211 212 220
f 212 206 214
f 214 213 221
f 213 215 223
f 215 216 224
f 216 217 225
f 217 218 226
f 218 219 227
f 219 220 228
f 220 214 222
f 229 230 231
f 232 233 230
f 234 235 233
f 236 237 235
f 238 239 237
f 240 241 239
f 242 243 241
f 244 245 243
f 246 247 245
f 248 249 247
f 250 251 249
f 252 253 251
f 254 255 253
f 256 231 255
f 229 232 230
f 232 234 233
f 234 236 235
f 236 238 237
f 238 240 239
f 240 242 241
f 242 244 243
f 244 246 245
f 246 248 247
f 248 250 249
f 250 252 251
f 252 254 253
f 254 256 255
f 256 229 231
f 257 258 259
f 259 258 260
f 257 261 262
f 257 259 261
f 257 262 258
f 258 262 263
f 258 263 264
f 258 264 260
f 259 264 261
f 259 260 264
f 261 263 262
f 261 264 263
f 265 266 267
f 267 266 268
f 265 269 270
f 265 267 269
f 265 270 266
f 266 270 271
f 266 271 272
f 266 272 268
f 267 272 269
f 267 268 272
f 269 271 270
f 269 272 271
f 265 266 267
f 267 266 268
f 265 269 270
f 265 267 269
f 265 270 266
f 266 270 271
f 266 271 272
f 266 272 268
f 267 272 269
f 267 268 272
f 269 271 270
f 269 272 271
f 265 266 267
f 267 266 268
f 265 269 270
f 265 267 269
f 265 270 266
f 266 270 271
f 266 271 272
f 266 272 268
f 267 272 269
f 267 268 272
f 269 271 270
f 269 272 271
