# Unified Preprocessed OBJ file from D00474.obj
# Applied remeshing: Yes
# Applied 4-step normalization: centering, PCA alignment, flipping, scaling
# Generated on 2025-09-29 15:18:59

v -0.496838 0.040649 -0.002918
v -0.425131 0.062541 0.003560
v -0.450938 0.023897 0.015663
v -0.425132 -0.062532 0.003566
v -0.359282 -0.042470 0.018999
v -0.341003 -0.072256 0.005714
v -0.383546 -0.084943 -0.011305
v -0.271173 -0.068723 -0.007220
v -0.257586 -0.042471 0.011463
v -0.219620 -0.026245 -0.005346
v -0.450938 -0.023879 0.015665
v -0.531510 0.023895 -0.026255
v -0.475032 0.062540 -0.019349
v -0.531510 -0.023881 -0.026252
v -0.496839 -0.040633 -0.002914
v -0.475033 -0.062533 -0.019343
v -0.257585 0.042479 0.011458
v -0.219620 0.026258 -0.005349
v -0.228224 0.000007 0.009810
v -0.516796 0.000008 0.000230
v -0.359281 0.042480 0.018995
v -0.281047 0.000008 0.021839
v -0.384804 0.000009 0.023235
v -0.201957 0.000006 -0.008249
v -0.184047 0.000006 -0.011189
v -0.184047 -0.022569 -0.011188
v -0.144731 -0.020543 -0.009310
v -0.061822 0.000006 0.000889
v -0.061823 -0.020543 0.000891
v -0.144730 0.000006 -0.009311
v -0.061822 0.020548 0.000888
v -0.144730 0.020547 -0.009312
v -0.184047 0.022581 -0.011190
v -0.383545 0.084950 -0.011313
v -0.271173 0.068729 -0.007227
v -0.341002 0.072264 0.005707
v 0.468490 0.014424 0.023107
v 0.454033 -0.014416 0.023138
v 0.468490 -0.014416 0.023108
v 0.454033 0.014424 0.023136
v 0.453985 -0.028837 -0.000157
v 0.468395 -0.014418 -0.023482
v 0.468442 -0.028837 -0.000186
v 0.453938 -0.014418 -0.023452
v 0.468443 0.028835 -0.000189
v 0.453986 0.028835 -0.000159
v 0.468395 0.014421 -0.023483
v 0.453938 0.014421 -0.023454
v -0.061775 -0.014413 0.024185
v -0.061870 -0.014415 -0.022405
v -0.061823 -0.028834 0.000891
v -0.061870 0.014424 -0.022406
v -0.061775 0.014427 0.024184
v -0.061822 0.028838 0.000888
v 0.429880 0.028835 -0.000111
v 0.429833 0.014421 -0.023405
v 0.429927 -0.014416 0.023187
v 0.429880 -0.028837 -0.000108
v 0.429833 -0.014418 -0.023403
v 0.429927 0.014424 0.023185
v 0.415423 -0.028837 -0.000078
v 0.415375 -0.014418 -0.023374
v 0.415470 -0.014416 0.023216
v 0.415470 0.014424 0.023215
v 0.415423 0.028835 -0.000081
v 0.415376 0.014421 -0.023375
v -0.018389 -0.014413 0.024097
v -0.018388 0.014426 0.024096
v -0.018436 0.028837 0.000800
v -0.018483 0.014424 -0.022494
v -0.018436 -0.028834 0.000803
v -0.018483 -0.014415 -0.022493
v -0.460985 0.051595 0.000321
v -0.438035 0.043219 0.009611
v -0.473888 0.032273 0.006372
v -0.392207 -0.052501 0.011283
v -0.350142 -0.057363 0.012356
v -0.383067 -0.067394 0.004640
v -0.362274 -0.078600 -0.002795
v -0.404339 -0.073738 -0.003869
v -0.264380 -0.055597 0.002121
v -0.238603 -0.034358 0.003058
v -0.245397 -0.047484 -0.006283
v -0.405110 -0.033175 0.017332
v -0.438035 -0.043206 0.009616
v -0.503271 0.043218 -0.022802
v -0.485935 0.051595 -0.011134
v -0.514174 0.032272 -0.014587
v -0.514174 -0.032257 -0.014583
v -0.485936 -0.051583 -0.011128
v -0.503271 -0.043207 -0.022797
v -0.238602 0.034368 0.003055
v -0.223922 0.013132 0.002231
v -0.242905 0.021243 0.010634
v -0.483867 -0.011935 0.007948
v -0.473889 -0.032256 0.006376
v -0.506818 -0.020312 -0.001342
v -0.306088 -0.070490 -0.000753
v -0.327360 -0.076833 -0.009262
v -0.299294 -0.057364 0.008588
v -0.450082 0.062541 -0.007895
v -0.242905 -0.021232 0.010636
v -0.223922 -0.013119 0.002232
v -0.308433 0.042479 0.015226
v -0.269316 0.021244 0.016649
v -0.320164 0.021244 0.020417
v -0.320164 -0.021231 0.020419
v -0.269317 -0.021232 0.016651
v -0.308434 -0.042471 0.015231
v -0.372042 0.021244 0.021115
v -0.332925 0.000008 0.022537
v -0.506817 0.020329 -0.001344
v -0.524153 0.011952 -0.013012
v -0.210789 -0.013119 -0.006798
v -0.193002 0.000006 -0.009719
v -0.201834 -0.013119 -0.008267
v -0.184047 -0.011282 -0.011188
v -0.201834 -0.024407 -0.008267
v -0.215091 0.000007 0.000781
v -0.103277 -0.010269 -0.004210
v -0.061823 -0.010269 0.000890
v -0.103277 -0.020543 -0.004210
v -0.144731 -0.010269 -0.009310
v -0.103276 0.000006 -0.004211
v -0.103276 0.010277 -0.004211
v -0.061822 0.010277 0.000889
v -0.144730 0.010277 -0.009311
v -0.103276 0.020548 -0.004212
v -0.164389 -0.011282 -0.010249
v -0.164389 -0.021556 -0.010249
v -0.164389 0.000006 -0.010250
v -0.164389 0.010277 -0.010250
v -0.184047 0.011293 -0.011189
v -0.164389 0.021564 -0.010251
v -0.201833 0.013132 -0.008269
v -0.210788 0.013132 -0.006799
v -0.201833 0.024419 -0.008269
v -0.254636 0.000008 0.015825
v -0.372043 -0.021231 0.021117
v -0.327359 0.076840 -0.009270
v -0.306087 0.070496 -0.000760
v -0.362274 0.078607 -0.002803
v -0.350141 0.057372 0.012351
v -0.299294 0.057371 0.008582
v -0.404338 0.073745 -0.003877
v -0.383067 0.067402 0.004633
v -0.417871 -0.011935 0.019450
v -0.460986 -0.051583 0.000326
v -0.264379 0.055604 0.002116
v -0.417871 0.011953 0.019449
v -0.450938 0.000009 0.015664
v -0.483867 0.011953 0.007947
v -0.524153 -0.011936 -0.013011
v -0.392206 0.052510 0.011277
v -0.405110 0.033188 0.017329
v -0.450082 -0.062533 -0.007888
v -0.429289 0.073745 -0.015331
v -0.245396 0.047493 -0.006288
v -0.531510 0.000007 -0.026254
v -0.429289 -0.073738 -0.015324
v 0.461261 0.000004 0.023122
v 0.461261 -0.014416 0.023123
v 0.468490 0.000004 0.023108
v 0.461261 0.014424 0.023122
v 0.454033 0.000004 0.023137
v 0.461190 -0.021628 -0.011819
v 0.468419 -0.021628 -0.011834
v 0.461214 -0.028837 -0.000171
v 0.453962 -0.021628 -0.011804
v 0.461167 -0.014418 -0.023467
v 0.461238 -0.021626 0.011476
v 0.468466 -0.021626 0.011461
v 0.454009 -0.021626 0.011491
v 0.461238 0.021629 0.011474
v 0.468466 0.021629 0.011459
v 0.461214 0.028835 -0.000174
v 0.454009 0.021629 0.011488
v 0.461191 0.021628 -0.011821
v 0.468419 0.021628 -0.011836
v 0.461167 0.014421 -0.023468
v 0.453962 0.021628 -0.011807
v 0.468443 -0.014417 -0.000187
v 0.468395 0.000001 -0.023482
v 0.468443 0.000003 -0.000187
v 0.468443 0.014422 -0.000188
v 0.461167 0.000001 -0.023468
v 0.453938 0.000001 -0.023453
v -0.061823 -0.014414 0.000890
v -0.061846 -0.021624 -0.010757
v -0.061799 -0.021623 0.012538
v -0.061870 0.000005 -0.022406
v -0.061775 0.000007 0.024185
v -0.061822 0.014426 0.000889
v -0.061799 0.021632 0.012536
v -0.061846 0.021631 -0.010759
v 0.441909 0.021628 -0.011782
v 0.441933 0.028835 -0.000135
v 0.441886 0.014421 -0.023429
v 0.429857 0.021628 -0.011758
v 0.441956 -0.021626 0.011515
v 0.441980 -0.014416 0.023162
v 0.429904 -0.021626 0.011540
v 0.441933 -0.028837 -0.000132
v 0.441885 0.000002 -0.023429
v 0.441885 -0.014418 -0.023428
v 0.429833 0.000002 -0.023404
v 0.441957 0.021629 0.011513
v 0.441980 0.014424 0.023161
v 0.429904 0.021629 0.011537
v 0.441980 0.000004 0.023162
v 0.429927 0.000004 0.023186
v 0.441909 -0.021627 -0.011780
v 0.429856 -0.021627 -0.011755
v 0.422628 -0.021627 -0.011741
v 0.422651 -0.028837 -0.000093
v 0.415399 -0.021627 -0.011726
v 0.422604 -0.014418 -0.023389
v 0.422699 0.000004 0.023201
v 0.422699 -0.014416 0.023201
v 0.422699 0.014424 0.023200
v 0.415470 0.000004 0.023215
v 0.422628 0.021628 -0.011743
v 0.422652 0.028835 -0.000096
v 0.422604 0.014421 -0.023390
v 0.415399 0.021628 -0.011728
v 0.422604 0.000002 -0.023389
v 0.415376 0.000002 -0.023375
v 0.422675 -0.021626 0.011554
v 0.415446 -0.021626 0.011569
v 0.422675 0.021629 0.011552
v 0.415447 0.021629 0.011567
v 0.198541 0.000005 0.023656
v 0.198541 -0.014414 0.023657
v 0.198541 0.014425 0.023655
v -0.018389 0.000007 0.024096
v 0.198470 0.021629 -0.011288
v 0.198494 0.028836 0.000359
v 0.198446 0.014423 -0.022935
v -0.018459 0.021631 -0.010847
v 0.198517 -0.021625 0.012009
v -0.018412 -0.021623 0.012450
v 0.198493 -0.028835 0.000362
v 0.198517 0.021631 0.012007
v -0.018412 0.021632 0.012448
v 0.198470 -0.021626 -0.011286
v -0.018460 -0.021625 -0.010845
v 0.198446 -0.014417 -0.022934
v 0.198446 0.000003 -0.022934
v -0.018483 0.000004 -0.022494
v -0.040176 0.000004 -0.022450
v -0.040177 -0.014415 -0.022449
v -0.040176 0.014424 -0.022450
v -0.040105 0.021632 0.012492
v -0.040082 0.014427 0.024140
v -0.040129 0.028838 0.000844
v -0.040153 -0.021625 -0.010801
v -0.040129 -0.028834 0.000847
v -0.040106 -0.021623 0.012494
v -0.040082 -0.014413 0.024141
v -0.040153 0.021631 -0.010803
v -0.040082 0.000007 0.024140
f 1 73 75
f 73 2 74
f 74 3 75
f 73 74 75
f 4 76 78
f 76 5 77
f 77 6 78
f 76 77 78
f 4 78 80
f 78 6 79
f 79 7 80
f 78 79 80
f 8 81 83
f 81 9 82
f 82 10 83
f 81 82 83
f 11 84 85
f 84 5 76
f 76 4 85
f 84 76 85
f 12 86 88
f 86 13 87
f 87 1 88
f 86 87 88
f 14 89 91
f 89 15 90
f 90 16 91
f 89 90 91
f 17 92 94
f 92 18 93
f 93 19 94
f 92 93 94
f 20 95 97
f 95 11 96
f 96 15 97
f 95 96 97
f 7 79 99
f 79 6 98
f 98 8 99
f 79 98 99
f 6 100 98
f 100 9 81
f 81 8 98
f 100 81 98
f 13 101 87
f 101 2 73
f 73 1 87
f 101 73 87
f 9 102 82
f 102 19 103
f 103 10 82
f 102 103 82
f 21 104 106
f 104 17 105
f 105 22 106
f 104 105 106
f 5 107 109
f 107 22 108
f 108 9 109
f 107 108 109
f 23 110 111
f 110 21 106
f 106 22 111
f 110 106 111
f 1 112 88
f 112 20 113
f 113 12 88
f 112 113 88
f 10 114 116
f 114 24 115
f 115 25 116
f 114 115 116
f 10 116 118
f 116 25 117
f 117 26 118
f 116 117 118
f 19 119 103
f 119 24 114
f 114 10 103
f 119 114 103
f 27 120 122
f 120 28 121
f 121 29 122
f 120 121 122
f 28 120 124
f 120 27 123
f 123 30 124
f 120 123 124
f 30 125 124
f 125 31 126
f 126 28 124
f 125 126 124
f 31 125 128
f 125 30 127
f 127 32 128
f 125 127 128
f 26 129 130
f 129 30 123
f 123 27 130
f 129 123 130
f 30 129 131
f 129 26 117
f 117 25 131
f 129 117 131
f 25 132 131
f 132 32 127
f 127 30 131
f 132 127 131
f 32 132 134
f 132 25 133
f 133 33 134
f 132 133 134
f 18 135 136
f 135 25 115
f 115 24 136
f 135 115 136
f 18 137 135
f 137 33 133
f 133 25 135
f 137 133 135
f 5 109 77
f 109 9 100
f 100 6 77
f 109 100 77
f 22 105 138
f 105 17 94
f 94 19 138
f 105 94 138
f 23 111 139
f 111 22 107
f 107 5 139
f 111 107 139
f 34 140 142
f 140 35 141
f 141 36 142
f 140 141 142
f 21 143 104
f 143 36 144
f 144 17 104
f 143 144 104
f 2 145 146
f 145 34 142
f 142 36 146
f 145 142 146
f 11 147 84
f 147 23 139
f 139 5 84
f 147 139 84
f 15 96 148
f 96 11 85
f 85 4 148
f 96 85 148
f 19 93 119
f 93 18 136
f 136 24 119
f 93 136 119
f 36 141 144
f 141 35 149
f 149 17 144
f 141 149 144
f 3 150 151
f 150 23 147
f 147 11 151
f 150 147 151
f 20 112 152
f 112 1 75
f 75 3 152
f 112 75 152
f 20 97 153
f 97 15 89
f 89 14 153
f 97 89 153
f 2 146 154
f 146 36 143
f 143 21 154
f 146 143 154
f 3 74 155
f 74 2 154
f 154 21 155
f 74 154 155
f 16 90 156
f 90 15 148
f 148 4 156
f 90 148 156
f 22 138 108
f 138 19 102
f 102 9 108
f 138 102 108
f 13 157 101
f 157 34 145
f 145 2 101
f 157 145 101
f 35 158 149
f 158 18 92
f 92 17 149
f 158 92 149
f 12 113 159
f 113 20 153
f 153 14 159
f 113 153 159
f 20 152 95
f 152 3 151
f 151 11 95
f 152 151 95
f 3 155 150
f 155 21 110
f 110 23 150
f 155 110 150
f 16 156 160
f 156 4 80
f 80 7 160
f 156 80 160
f 37 161 163
f 161 38 162
f 162 39 163
f 161 162 163
f 38 161 165
f 161 37 164
f 164 40 165
f 161 164 165
f 41 166 168
f 166 42 167
f 167 43 168
f 166 167 168
f 42 166 170
f 166 41 169
f 169 44 170
f 166 169 170
f 38 171 162
f 171 43 172
f 172 39 162
f 171 172 162
f 43 171 168
f 171 38 173
f 173 41 168
f 171 173 168
f 45 174 175
f 174 40 164
f 164 37 175
f 174 164 175
f 40 174 177
f 174 45 176
f 176 46 177
f 174 176 177
f 47 178 179
f 178 46 176
f 176 45 179
f 178 176 179
f 46 178 181
f 178 47 180
f 180 48 181
f 178 180 181
f 42 182 167
f 182 39 172
f 172 43 167
f 182 172 167
f 39 182 184
f 182 42 183
f 183 47 184
f 182 183 184
f 39 184 163
f 184 47 185
f 185 37 163
f 184 185 163
f 37 185 175
f 185 47 179
f 179 45 175
f 185 179 175
f 44 186 170
f 186 47 183
f 183 42 170
f 186 183 170
f 47 186 180
f 186 44 187
f 187 48 180
f 186 187 180
f 49 188 190
f 188 50 189
f 189 51 190
f 188 189 190
f 50 188 191
f 188 49 28
f 28 52 191
f 188 28 191
f 52 28 193
f 28 49 192
f 192 53 193
f 28 192 193
f 52 193 195
f 193 53 194
f 194 54 195
f 193 194 195
f 48 196 181
f 196 55 197
f 197 46 181
f 196 197 181
f 55 196 199
f 196 48 198
f 198 56 199
f 196 198 199
f 57 200 201
f 200 41 173
f 173 38 201
f 200 173 201
f 41 200 203
f 200 57 202
f 202 58 203
f 200 202 203
f 59 204 205
f 204 48 187
f 187 44 205
f 204 187 205
f 48 204 198
f 204 59 206
f 206 56 198
f 204 206 198
f 46 207 177
f 207 60 208
f 208 40 177
f 207 208 177
f 60 207 209
f 207 46 197
f 197 55 209
f 207 197 209
f 40 210 165
f 210 57 201
f 201 38 165
f 210 201 165
f 57 210 211
f 210 40 208
f 208 60 211
f 210 208 211
f 58 212 203
f 212 44 169
f 169 41 203
f 212 169 203
f 44 212 205
f 212 58 213
f 213 59 205
f 212 213 205
f 61 214 215
f 214 59 213
f 213 58 215
f 214 213 215
f 59 214 217
f 214 61 216
f 216 62 217
f 214 216 217
f 60 218 211
f 218 63 219
f 219 57 211
f 218 219 211
f 63 218 221
f 218 60 220
f 220 64 221
f 218 220 221
f 56 222 199
f 222 65 223
f 223 55 199
f 222 223 199
f 65 222 225
f 222 56 224
f 224 66 225
f 222 224 225
f 62 226 217
f 226 56 206
f 206 59 217
f 226 206 217
f 56 226 224
f 226 62 227
f 227 66 224
f 226 227 224
f 63 228 219
f 228 58 202
f 202 57 219
f 228 202 219
f 58 228 215
f 228 63 229
f 229 61 215
f 228 229 215
f 55 230 209
f 230 64 220
f 220 60 209
f 230 220 209
f 64 230 231
f 230 55 223
f 223 65 231
f 230 223 231
f 64 232 221
f 232 67 233
f 233 63 221
f 232 233 221
f 67 232 235
f 232 64 234
f 234 68 235
f 232 234 235
f 66 236 225
f 236 69 237
f 237 65 225
f 236 237 225
f 69 236 239
f 236 66 238
f 238 70 239
f 236 238 239
f 67 240 233
f 240 61 229
f 229 63 233
f 240 229 233
f 61 240 242
f 240 67 241
f 241 71 242
f 240 241 242
f 65 243 231
f 243 68 234
f 234 64 231
f 243 234 231
f 68 243 244
f 243 65 237
f 237 69 244
f 243 237 244
f 71 245 242
f 245 62 216
f 216 61 242
f 245 216 242
f 62 245 247
f 245 71 246
f 246 72 247
f 245 246 247
f 72 248 247
f 248 66 227
f 227 62 247
f 248 227 247
f 66 248 238
f 248 72 249
f 249 70 238
f 248 249 238
f 50 250 251
f 250 70 249
f 249 72 251
f 250 249 251
f 70 250 252
f 250 50 191
f 191 52 252
f 250 191 252
f 69 253 244
f 253 53 254
f 254 68 244
f 253 254 244
f 53 253 194
f 253 69 255
f 255 54 194
f 253 255 194
f 51 256 257
f 256 72 246
f 246 71 257
f 256 246 257
f 72 256 251
f 256 51 189
f 189 50 251
f 256 189 251
f 49 258 259
f 258 71 241
f 241 67 259
f 258 241 259
f 71 258 257
f 258 49 190
f 190 51 257
f 258 190 257
f 70 260 239
f 260 54 255
f 255 69 239
f 260 255 239
f 54 260 195
f 260 70 252
f 252 52 195
f 260 252 195
f 53 261 254
f 261 67 235
f 235 68 254
f 261 235 254
f 67 261 259
f 261 53 192
f 192 49 259
f 261 192 259
