# Unified Preprocessed OBJ file from D00790.obj
# Applied remeshing: Yes
# Applied 4-step normalization: centering, PCA alignment, flipping, scaling
# Generated on 2025-09-29 15:19:01

v -0.432613 0.008453 -0.034461
v -0.409486 0.006218 -0.021535
v -0.409065 0.009443 -0.021488
v -0.433085 0.004842 -0.034513
v 0.565898 -0.002764 -0.012622
v 0.566393 -0.002677 -0.012602
v 0.565220 -0.003713 0.004456
v -0.362299 0.009793 0.010450
v -0.361976 0.012260 0.010486
v 0.564318 -0.002590 0.004431
v 0.565725 -0.003485 0.004478
v 0.565015 -0.002329 -0.012652
v 0.153615 -0.019709 -0.028906
v 0.213046 -0.022822 -0.026610
v 0.205204 -0.056021 -0.010113
v -0.362486 0.002337 0.010374
v -0.409472 -0.006771 -0.021655
v -0.362288 -0.000143 0.010358
v -0.409731 -0.003528 -0.021635
v -0.407719 0.015804 -0.021376
v -0.361525 0.014707 0.010526
v -0.360947 0.017127 0.010571
v -0.408475 0.012641 -0.021435
v -0.072142 0.054293 -0.007892
v -0.088026 0.010282 0.021183
v -0.050959 0.006856 -0.007505
v -0.104231 0.046571 0.020887
v -0.391030 0.054066 -0.020367
v -0.360484 0.018693 0.010604
v -0.348180 0.046397 0.011344
v -0.407114 0.017852 -0.021333
v -0.409044 -0.009995 -0.021668
v -0.361960 -0.002610 0.010348
v -0.249686 -0.011705 0.040007
v -0.309745 -0.079007 0.011679
v -0.247857 -0.013350 0.040063
v -0.331266 -0.059658 0.011017
v -0.252207 -0.007270 0.039950
v -0.360454 -0.009040 0.010347
v -0.252167 -0.007403 0.039950
v -0.360920 -0.007475 0.010343
v -0.255557 0.113831 0.015595
v -0.245630 0.002266 0.040296
v -0.243251 0.003041 0.040396
v -0.283548 0.104709 0.014415
v -0.240763 0.003305 0.040496
v -0.226281 0.116930 0.016769
v -0.238497 -0.015333 0.040411
v -0.228385 -0.105385 0.014615
v -0.199621 -0.102340 0.015769
v -0.240941 -0.015592 0.040313
v -0.229011 -0.005760 0.040871
v -0.230388 -0.002676 0.040846
v -0.309032 0.089964 0.013281
v -0.249655 -0.000664 0.040111
v -0.247796 0.001013 0.040200
v -0.330894 0.070240 0.012242
v -0.409738 0.002975 -0.021575
v -0.362554 0.004825 0.010394
v -0.362491 0.007312 0.010420
v -0.409819 -0.000277 -0.021608
v 0.266312 -0.059378 -0.007754
v 0.327492 -0.057861 -0.005347
v 0.319531 -0.060094 0.002877
v -0.251124 -0.002691 0.040035
v -0.276836 0.157134 -0.026983
v -0.306545 0.130291 -0.016352
v -0.269955 0.142215 -0.014810
v -0.317809 0.143782 -0.028710
v -0.196998 0.113872 0.017886
v -0.235893 0.002273 0.040677
v -0.168988 0.104791 0.018897
v -0.238274 0.003045 0.040591
v -0.257156 -0.102381 0.013518
v -0.243387 -0.015337 0.040220
v -0.143473 0.090082 0.019758
v -0.231862 -0.000651 0.040807
v -0.121568 0.070389 0.020431
v -0.233724 0.001023 0.040750
v -0.232205 -0.011693 0.040691
v -0.147082 -0.078891 0.018042
v -0.125602 -0.059511 0.019063
v -0.234031 -0.013340 0.040604
v -0.433367 0.001211 -0.034558
v -0.433459 -0.002431 -0.034595
v 0.256413 -0.061493 0.000395
v -0.348301 -0.036257 0.010569
v -0.251134 -0.009716 0.039969
v -0.252340 -0.006436 0.039952
v -0.252323 -0.006646 0.039951
v -0.231685 0.146266 -0.013275
v 0.563945 -0.005856 0.012942
v 0.563591 -0.005260 0.020857
v 0.565395 -0.006698 0.012991
v -0.339856 0.111017 -0.017835
v -0.368434 0.085233 -0.019193
v -0.284677 -0.093458 0.012525
v -0.272045 -0.140415 -0.017525
v -0.308019 -0.128751 -0.018823
v 0.330163 0.073966 -0.004015
v 0.258743 0.070368 0.001715
v 0.322528 0.066433 0.004173
v -0.193407 0.142269 -0.011815
v -0.156792 0.130398 -0.010494
v -0.123439 0.111171 -0.009368
v -0.128157 -0.109709 -0.011611
v -0.100079 -0.084376 -0.010276
v -0.058045 0.003706 -0.003375
v -0.053727 0.000623 -0.007671
v -0.052232 0.003990 -0.007582
v -0.060536 -0.001904 -0.003525
v -0.061904 0.000872 -0.001523
v -0.062618 -0.001300 -0.001767
v -0.077202 -0.002846 0.008491
v -0.078216 -0.005128 0.008430
v -0.391188 -0.053978 -0.021380
v -0.407075 -0.018401 -0.021670
v -0.407684 -0.016355 -0.021674
v -0.172120 -0.093378 0.016928
v -0.196835 -0.140361 -0.014582
v -0.160886 -0.128646 -0.013067
v -0.234436 -0.144342 -0.016090
v -0.340789 -0.109861 -0.019929
v -0.368921 -0.084568 -0.020794
v -0.356157 -0.125145 -0.032715
v -0.387660 -0.096821 -0.033683
v -0.408447 -0.013193 -0.021675
v -0.361504 -0.005056 0.010343
v 0.506884 0.020391 0.010955
v -0.094806 0.085428 -0.008488
v -0.230761 -0.009702 0.040766
v -0.236159 -0.014571 0.040510
v -0.245726 -0.014578 0.040135
v -0.252170 -0.005045 0.039972
v -0.252209 -0.005179 0.039969
v -0.252257 -0.007064 0.039950
v -0.252258 -0.005384 0.039965
v -0.252295 -0.006856 0.039950
v -0.252297 -0.005592 0.039962
v -0.252324 -0.005802 0.039959
v -0.252341 -0.006013 0.039956
v -0.252346 -0.006224 0.039954
v -0.108619 -0.036086 0.019945
v -0.077878 -0.053755 -0.009123
v 0.379915 0.041254 0.014106
v 0.447225 0.041319 0.008816
v 0.385567 0.056718 0.006548
v -0.233980 0.161671 -0.025264
v -0.191116 0.157195 -0.023629
v -0.431922 -0.016894 -0.034670
v -0.432590 -0.013313 -0.034663
v -0.412418 0.058424 -0.033205
v -0.430429 0.017870 -0.034288
v 0.206400 0.075829 -0.008838
v 0.145004 0.067461 -0.011318
v 0.194851 0.068482 -0.000802
v -0.279176 -0.159360 -0.030022
v -0.319461 -0.146299 -0.031477
v 0.268327 0.078004 -0.006396
v 0.026162 -0.017076 -0.016754
v 0.084747 -0.034803 -0.014627
v 0.069143 -0.036880 -0.006701
v 0.564873 -0.006922 0.012969
v 0.507597 -0.024321 0.002010
v -0.431106 0.015577 -0.034335
v -0.431953 0.012035 -0.034402
v -0.086605 -0.096607 -0.021906
v -0.061744 -0.062317 -0.020614
v -0.031599 0.005557 -0.018802
v 0.008733 -0.019246 -0.008899
v 0.388356 -0.051481 -0.002907
v 0.448518 -0.040277 -0.000450
v 0.444416 -0.042900 0.007922
v -0.045869 0.005323 -0.010806
v -0.047372 0.001938 -0.010897
v -0.047285 0.004551 -0.010220
v -0.048133 0.002067 -0.010431
v -0.433070 -0.009703 -0.034648
v -0.433359 -0.006072 -0.034625
v 0.069311 0.047382 -0.005909
v 0.118448 0.043792 0.003902
v 0.131496 0.060794 -0.003352
v -0.080700 0.093543 -0.019903
v -0.055321 0.058678 -0.019235
v -0.355112 0.122198 -0.030370
v -0.387114 0.093325 -0.031890
v 0.249379 0.051223 0.009093
v -0.237061 -0.163758 -0.028416
v 0.391286 0.063755 -0.001719
v 0.008924 0.028380 -0.008448
v 0.054478 0.033618 0.001305
v 0.508955 0.025284 0.002525
v 0.026259 0.032547 -0.016288
v 0.084755 0.052985 -0.013809
v 0.144555 -0.047812 -0.012409
v 0.130821 -0.049849 -0.004409
v 0.451084 0.047473 0.000468
v 0.193376 -0.058071 -0.002039
v 0.443394 0.029843 0.016482
v 0.505392 -0.027213 0.010453
v -0.150113 0.143902 -0.022149
v -0.112764 0.122371 -0.020889
v -0.007632 0.019260 -0.001258
v 0.183633 0.049680 0.006507
v -0.118048 -0.124975 -0.023400
v -0.154698 -0.146182 -0.025031
v -0.194955 -0.159300 -0.026728
v 0.315027 0.048405 0.011634
v -0.412595 -0.062566 -0.034339
v 0.504825 0.014287 0.018740
v 0.382332 -0.053883 0.005391
v 0.332887 -0.023486 -0.021929
v 0.392537 -0.021034 -0.019573
v 0.037611 -0.008023 -0.033334
v -0.018979 0.000591 -0.035468
v 0.454077 0.017105 -0.016810
v 0.512069 0.000099 -0.018503
v 0.456533 0.002143 -0.020657
v 0.510776 0.008495 -0.014673
v 0.095013 -0.014766 -0.031152
v 0.104774 -0.005794 -0.034490
v 0.565192 -0.002479 -0.016450
v 0.509413 -0.010640 -0.014905
v 0.510719 -0.004551 -0.018600
v 0.335591 0.027365 -0.021349
v 0.399143 0.003632 -0.022888
v 0.340473 0.004551 -0.025174
v 0.162715 0.003828 -0.032134
v 0.214304 0.028037 -0.026087
v 0.221663 0.004650 -0.029820
v 0.154131 0.024755 -0.028472
v 0.566056 -0.002584 -0.016417
v 0.566541 -0.002562 -0.016398
v 0.453988 -0.006083 -0.020833
v 0.396222 -0.007170 -0.023102
v 0.337787 -0.007806 -0.025394
v 0.281115 0.004892 -0.027492
v 0.279053 -0.007985 -0.027693
v 0.220392 -0.007709 -0.029985
v 0.162176 -0.006977 -0.032255
v 0.104863 0.002434 -0.034409
v 0.048687 0.000482 -0.036625
v 0.048548 -0.004169 -0.036674
v -0.006882 -0.002083 -0.038822
v 0.037739 0.011118 -0.033151
v 0.095078 0.019097 -0.030834
v 0.274994 0.028910 -0.023705
v 0.272930 -0.024083 -0.024280
v 0.370914 -0.020739 0.025852
v 0.376759 -0.039615 0.013229
v 0.436603 -0.017400 0.028453
v 0.451504 -0.016743 -0.017226
v 0.395486 0.023417 -0.019043
v -0.430386 -0.022727 -0.034664
v -0.431067 -0.020435 -0.034669
v 0.565084 -0.005888 0.020909
v 0.564590 -0.006478 0.033560
v 0.564038 -0.006546 0.033538
v 0.054437 -0.027989 0.000730
v 0.104759 -0.019795 0.015450
v 0.039479 -0.015991 0.012932
v 0.117926 -0.037103 0.003128
v 0.170964 -0.022183 0.018018
v 0.304464 -0.022656 0.023235
v 0.312140 -0.044108 0.010659
v -0.007755 -0.015564 -0.001587
v -0.024464 -0.010794 0.010480
v 0.237673 -0.023138 0.020618
v 0.247188 -0.045188 0.008109
v 0.503364 -0.020524 0.018359
v 0.501114 -0.012658 0.031020
v 0.440635 -0.031737 0.015801
v 0.182313 -0.042848 0.005593
v 0.307492 0.016239 0.023716
v 0.563055 -0.006215 0.033503
v 0.502638 0.001978 0.031216
v 0.439480 0.008491 0.028806
v 0.374212 0.013261 0.026298
v 0.239989 0.017396 0.021086
v 0.172382 0.016719 0.018436
v 0.105348 0.014215 0.015790
v 0.039562 0.009910 0.013177
v -0.024315 0.003847 0.010622
v 0.564548 -0.006048 0.020887
v -0.421050 0.007335 -0.027998
v -0.409275 0.007830 -0.021511
v -0.420839 0.008948 -0.027974
v -0.432849 0.006648 -0.034487
v -0.421286 0.005530 -0.028024
v 0.566145 -0.002720 -0.012612
v 0.565807 -0.003195 -0.004073
v 0.565559 -0.003238 -0.004083
v -0.385682 0.009618 -0.005519
v -0.362137 0.011027 0.010468
v -0.385520 0.010851 -0.005501
v -0.385892 0.008005 -0.005542
v 0.565356 -0.002633 -0.004085
v 0.565022 -0.003038 0.004454
v 0.566059 -0.003081 -0.004062
v 0.564667 -0.002460 -0.004111
v 0.565704 -0.002503 -0.012627
v 0.183330 -0.021265 -0.027758
v 0.209125 -0.039421 -0.018362
v 0.179409 -0.037865 -0.019510
v -0.385979 -0.002217 -0.005641
v -0.385880 -0.003457 -0.005648
v -0.362387 0.001097 0.010366
v -0.386108 -0.000595 -0.005631
v -0.409601 -0.005149 -0.021645
v -0.384622 0.015256 -0.005425
v -0.361236 0.015917 0.010549
v -0.384333 0.016465 -0.005402
v -0.408097 0.014223 -0.021406
v -0.385000 0.013674 -0.005454
v -0.080084 0.032288 0.006646
v -0.069492 0.008569 0.006839
v -0.061551 0.030575 -0.007698
v -0.088187 0.050432 0.006498
v -0.096128 0.028426 0.021035
v -0.375757 0.036380 -0.004881
v -0.354332 0.032545 0.010974
v -0.369605 0.050232 -0.004512
v -0.399072 0.035959 -0.020850
v -0.383799 0.018272 -0.005365
v -0.385666 -0.005069 -0.005655
v -0.385502 -0.006302 -0.005660
v -0.362124 -0.001376 0.010353
v -0.409258 -0.008383 -0.021662
v -0.279716 -0.045356 0.025843
v -0.278801 -0.046178 0.025871
v -0.248772 -0.012528 0.040035
v -0.290476 -0.035681 0.025512
v -0.320506 -0.069332 0.011348
v -0.306331 -0.008155 0.025148
v -0.306311 -0.008222 0.025149
v -0.252187 -0.007336 0.039950
v -0.306564 -0.007372 0.025147
v -0.360687 -0.008258 0.010345
v -0.250594 0.058048 0.027945
v -0.244441 0.002654 0.040346
v -0.249404 0.058436 0.027995
v -0.269553 0.109270 0.015005
v -0.264589 0.053488 0.027355
v -0.248160 0.058568 0.028045
v -0.233522 0.060118 0.028632
v -0.240919 0.115381 0.016182
v -0.242007 0.003173 0.040446
v -0.233441 -0.060359 0.027513
v -0.214003 -0.103863 0.015192
v -0.219059 -0.058837 0.028090
v -0.239719 -0.015463 0.040362
v -0.234663 -0.060489 0.027464
v -0.166621 0.020405 0.030879
v -0.158518 0.002261 0.031027
v -0.167310 0.021948 0.030867
v -0.229700 -0.004218 0.040859
v -0.279343 0.044650 0.026696
v -0.248726 0.000174 0.040155
v -0.278414 0.045489 0.026740
v -0.319963 0.080102 0.012761
v -0.290274 0.034788 0.026177
v -0.386146 0.003900 -0.005590
v -0.362522 0.006069 0.010407
v -0.386114 0.005144 -0.005578
v -0.409779 0.001349 -0.021591
v -0.386187 0.002274 -0.005607
v 0.296902 -0.058620 -0.006551
v 0.323512 -0.058978 -0.001235
v 0.292922 -0.059736 -0.002439
v -0.265672 0.052861 0.027307
v -0.246713 0.001639 0.040248
v -0.296290 0.097337 0.013848
v -0.291009 0.033775 0.026138
v -0.250389 -0.001677 0.040073
v -0.339537 0.058319 0.011793
v -0.299652 0.021853 0.025689
v -0.291690 0.143713 -0.021667
v -0.288250 0.136253 -0.015581
v -0.273395 0.149674 -0.020896
v -0.297323 0.150458 -0.027846
v -0.312177 0.137037 -0.022531
v -0.216445 0.058073 0.029281
v -0.202440 0.053532 0.029787
v -0.182993 0.109332 0.018391
v -0.217636 0.058459 0.029238
v -0.237083 0.002659 0.040634
v -0.249049 -0.058986 0.026915
v -0.242771 -0.103883 0.014067
v -0.242164 -0.015464 0.040266
v -0.250272 -0.058859 0.026869
v -0.187667 0.044716 0.030282
v -0.176715 0.034869 0.030619
v -0.132521 0.080236 0.020094
v -0.188598 0.045552 0.030254
v -0.232793 0.000186 0.040779
v -0.189644 -0.045292 0.029367
v -0.136342 -0.069201 0.018553
v -0.178904 -0.035602 0.029877
v -0.233118 -0.012516 0.040648
v -0.190556 -0.046115 0.029323
v -0.421593 0.000467 -0.028083
v -0.421552 0.002093 -0.028066
v -0.433413 -0.000610 -0.034577
v -0.421639 -0.001354 -0.028102
v 0.261363 -0.060436 -0.003680
v 0.230809 -0.058757 -0.004859
v 0.235758 -0.057700 -0.008934
v -0.300234 -0.021830 0.025259
v -0.299718 -0.022986 0.025269
v -0.251651 -0.008559 0.039960
v -0.354378 -0.022648 0.010458
v -0.307314 -0.003289 0.025155
v -0.307306 -0.003395 0.025155
v -0.252332 -0.006541 0.039952
v -0.307413 -0.002049 0.025163
v -0.248118 0.129572 0.000979
v -0.262756 0.128023 0.000392
v -0.228983 0.131598 0.001747
v -0.250820 0.144240 -0.014043
v 0.563768 -0.005558 0.016899
v 0.564493 -0.005979 0.016924
v 0.564670 -0.006277 0.012967
v -0.335375 0.090628 -0.002796
v -0.324444 0.100491 -0.002277
v -0.354145 0.098125 -0.018514
v -0.349664 0.077736 -0.003475
v -0.278361 -0.116936 -0.002500
v -0.264600 -0.121398 -0.002003
v -0.270916 -0.097919 0.013021
v -0.296348 -0.111105 -0.003149
v -0.290032 -0.134583 -0.018174
v 0.294453 0.072167 -0.001150
v 0.290636 0.068400 0.002944
v 0.326345 0.070200 0.000079
v -0.209844 0.129600 0.002477
v -0.211640 0.115401 0.017327
v -0.195203 0.128071 0.003035
v -0.212546 0.144268 -0.012545
v -0.150132 0.110240 0.004632
v -0.133456 0.100627 0.005195
v -0.140116 0.120784 -0.009931
v -0.162890 0.117594 0.004201
v -0.156230 0.097437 0.019327
v -0.126880 -0.084610 0.003726
v -0.114118 -0.097043 -0.010943
v -0.112841 -0.071944 0.004393
v -0.137620 -0.094300 0.003216
v -0.358307 0.065815 -0.003925
v -0.379732 0.069650 -0.019780
v -0.055886 0.002165 -0.005523
v -0.052980 0.002306 -0.007626
v -0.055138 0.003848 -0.005478
v -0.059290 0.000901 -0.003450
v -0.057132 -0.000640 -0.005598
v -0.059975 0.002289 -0.002449
v -0.061220 -0.000516 -0.002524
v -0.062261 -0.000214 -0.001645
v -0.061577 -0.001602 -0.002646
v -0.069553 -0.000987 0.003484
v -0.069910 -0.002073 0.003362
v -0.077709 -0.003987 0.008460
v -0.070417 -0.003214 0.003331
v -0.375821 -0.031509 -0.005516
v -0.369744 -0.045117 -0.005405
v -0.383765 -0.013721 -0.005661
v -0.399132 -0.036190 -0.021525
v -0.385989 0.006765 -0.005558
v -0.362395 0.008553 0.010435
v -0.409612 0.004596 -0.021555
v -0.383998 -0.012938 -0.005663
v -0.384302 -0.011915 -0.005666
v -0.407380 -0.017378 -0.021672
v -0.184478 -0.116870 0.001173
v -0.178861 -0.134504 -0.013825
v -0.166503 -0.111012 0.001930
v -0.185870 -0.097859 0.016348
v -0.198228 -0.121351 0.000593
v -0.217028 -0.123341 -0.000161
v -0.215636 -0.142352 -0.015336
v -0.231411 -0.124864 -0.000737
v -0.336028 -0.084759 -0.004456
v -0.325267 -0.094434 -0.004125
v -0.350094 -0.072113 -0.004888
v -0.354855 -0.097214 -0.020361
v -0.362539 -0.104856 -0.026754
v -0.348473 -0.117503 -0.026322
v -0.378291 -0.090695 -0.027238
v -0.371908 -0.110983 -0.033199
v -0.153984 -0.103769 0.002488
v -0.144522 -0.119178 -0.012339
v -0.159601 -0.086134 0.017485
v -0.385204 -0.007901 -0.005663
v -0.384976 -0.009124 -0.005666
v -0.361732 -0.003833 0.010346
v -0.408745 -0.011594 -0.021672
v 0.535601 0.008900 0.007693
v 0.535415 0.007268 0.011949
v 0.564132 -0.004223 0.008687
v -0.181197 0.123530 0.003541
v -0.175099 0.136333 -0.011155
v -0.384594 -0.010705 -0.005666
v -0.361212 -0.006265 0.010343
v -0.408066 -0.014774 -0.021675
v -0.276752 0.123462 -0.000198
v -0.295046 0.117500 -0.000969
v -0.384030 0.017489 -0.005381
v -0.360715 0.017910 0.010588
v -0.407416 0.016828 -0.021355
v -0.122504 0.090780 0.005531
v -0.108187 0.077908 0.005971
v -0.109123 0.098299 -0.008928
v -0.099518 0.065999 0.006199
v -0.083474 0.069861 -0.008190
v -0.112900 0.058480 0.020659
v -0.358611 -0.060412 -0.005112
v -0.339784 -0.047957 0.010793
v -0.380055 -0.069273 -0.021087
v -0.245796 -0.123361 -0.001286
v -0.253240 -0.142379 -0.016807
v -0.386142 0.000648 -0.005620
v -0.362520 0.003581 0.010384
v -0.409775 -0.001903 -0.021622
v -0.230575 -0.006189 0.040806
v -0.229886 -0.007731 0.040819
v -0.231125 -0.001663 0.040827
v -0.231312 -0.005176 0.040787
v -0.232034 -0.006172 0.040749
v -0.231483 -0.010697 0.040729
v -0.232964 -0.005335 0.040721
v -0.233877 -0.006159 0.040677
v -0.234808 0.001648 0.040713
v -0.234962 -0.005534 0.040641
v -0.236026 -0.006149 0.040593
v -0.235095 -0.013956 0.040557
v -0.237216 -0.005763 0.040550
v -0.238385 -0.006144 0.040501
v -0.237328 -0.014952 0.040460
v -0.239518 0.003175 0.040543
v -0.239630 -0.006014 0.040454
v -0.240852 -0.006144 0.040404
v -0.242096 -0.006275 0.040355
v -0.243319 -0.006148 0.040308
v -0.244509 -0.006535 0.040258
v -0.245678 -0.006156 0.040216
v -0.244557 -0.014957 0.040178
v -0.246761 -0.006783 0.040167
v -0.247827 -0.006169 0.040131
v -0.246792 -0.013964 0.040099
v -0.248756 -0.007007 0.040087
v -0.249671 -0.006185 0.040059
v -0.250405 -0.007198 0.040021
v -0.251129 -0.006203 0.040002
v -0.250410 -0.010711 0.039988
v -0.251647 -0.003868 0.040003
v -0.251652 -0.007381 0.039971
v -0.252169 -0.006224 0.039961
v -0.252188 -0.006158 0.039961
v -0.252190 -0.005112 0.039971
v -0.252208 -0.006224 0.039960
v -0.252233 -0.006121 0.039960
v -0.252232 -0.007167 0.039950
v -0.252234 -0.005281 0.039967
v -0.252257 -0.006224 0.039958
v -0.252277 -0.006120 0.039958
v -0.252276 -0.006960 0.039950
v -0.252278 -0.005488 0.039964
v -0.252296 -0.006224 0.039956
v -0.252310 -0.005697 0.039960
v -0.252310 -0.006329 0.039955
v -0.252324 -0.006224 0.039955
v -0.252309 -0.006751 0.039951
v -0.252332 -0.006119 0.039956
v -0.252332 -0.005907 0.039958
v -0.252340 -0.006224 0.039954
v -0.252343 -0.006118 0.039955
v -0.252343 -0.006330 0.039953
v -0.308882 -0.103879 -0.003572
v -0.297211 -0.086232 0.012102
v -0.324404 -0.119306 -0.019376
v -0.104349 -0.060231 0.004835
v -0.088979 -0.069066 -0.009699
v -0.093248 -0.044920 0.005411
v -0.117111 -0.047799 0.019504
v -0.385226 0.012451 -0.005475
v -0.361751 0.013484 0.010506
v -0.408770 0.011042 -0.021462
v 0.413570 0.041286 0.011461
v 0.416396 0.049018 0.007682
v 0.382741 0.048986 0.010327
v -0.213694 0.151970 -0.018540
v -0.192261 0.149732 -0.017722
v -0.212548 0.159433 -0.024446
v -0.232833 0.153969 -0.019270
v -0.420483 -0.013445 -0.028169
v -0.420185 -0.015043 -0.028172
v -0.420817 -0.011654 -0.028166
v -0.432256 -0.015104 -0.034666
v -0.409766 0.038138 -0.027269
v -0.401724 0.056245 -0.026786
v -0.421424 0.038147 -0.033747
v -0.418772 0.017861 -0.027811
v 0.175702 0.071645 -0.010078
v 0.169927 0.067971 -0.006060
v 0.200626 0.072155 -0.004820
v -0.293598 -0.144056 -0.024423
v -0.275610 -0.149888 -0.023774
v -0.313740 -0.137525 -0.025150
v -0.299318 -0.152830 -0.030750
v 0.299245 0.075985 -0.005205
v 0.263535 0.074186 -0.002341
v 0.055455 -0.025940 -0.015691
v 0.076945 -0.035842 -0.010664
v 0.047652 -0.026978 -0.011727
v 0.565047 -0.005317 0.008712
v 0.536235 -0.015621 0.007489
v 0.536409 -0.014017 0.003233
v -0.419791 0.014109 -0.027885
v -0.419412 0.015691 -0.027856
v -0.431530 0.013806 -0.034369
v -0.420214 0.012338 -0.027918
v -0.082242 -0.075181 -0.015514
v -0.074175 -0.079462 -0.021260
v -0.069811 -0.058036 -0.014868
v -0.093342 -0.090492 -0.016091
v -0.002719 -0.005760 -0.017778
v 0.017447 -0.018161 -0.012827
v -0.011433 -0.006845 -0.013851
v 0.418437 -0.045879 -0.001678
v 0.446467 -0.041588 0.003736
v 0.416386 -0.047190 0.002507
v -0.046621 0.003631 -0.010851
v -0.039486 0.003748 -0.014849
v -0.038734 0.005440 -0.014804
v -0.046577 0.004937 -0.010513
v -0.047329 0.003245 -0.010559
v -0.049759 0.004270 -0.008901
v -0.049802 0.002964 -0.009239
v -0.050183 0.003028 -0.009006
v -0.047753 0.002003 -0.010664
v -0.050930 0.001345 -0.009051
v -0.421400 -0.006615 -0.028141
v -0.421271 -0.008237 -0.028151
v -0.421545 -0.004800 -0.028130
v -0.433215 -0.007887 -0.034637
v 0.093880 0.045587 -0.001004
v 0.124972 0.052293 0.000275
v 0.100403 0.054088 -0.004631
v -0.421589 -0.003174 -0.028117
v -0.433409 -0.004251 -0.034610
v -0.419074 0.016837 -0.027832
v -0.430768 0.016724 -0.034312
v -0.076421 0.073918 -0.013897
v -0.063732 0.056486 -0.013563
v -0.068011 0.076111 -0.019569
v -0.087753 0.089486 -0.014196
v -0.361773 0.103716 -0.024781
v -0.347484 0.116607 -0.024102
v -0.371113 0.107762 -0.031130
v -0.377774 0.089279 -0.025542
v 0.285954 0.058828 0.006633
v 0.254061 0.060795 0.005404
v -0.421411 0.003908 -0.028044
v -0.433226 0.003026 -0.034535
v 0.222115 0.059852 0.004145
v 0.226797 0.069425 0.000456
v -0.254553 -0.152086 -0.022970
v -0.235748 -0.154050 -0.022253
v -0.258118 -0.161559 -0.029219
v 0.356907 0.065094 0.001227
v 0.354047 0.061575 0.005360
v 0.388427 0.060236 0.002414
v 0.138250 0.064127 -0.007335
v 0.163174 0.064638 -0.002077
v -0.306347 0.006757 0.025287
v -0.306327 0.006824 0.025288
v -0.306578 0.005974 0.025270
v -0.201356 0.052907 0.029823
v 0.360725 0.068861 -0.002867
v -0.306900 -0.005956 0.025147
v -0.306880 -0.006060 0.025146
v -0.307128 -0.004733 0.025149
v -0.178182 -0.034606 0.029915
v -0.169690 -0.022894 0.030356
v 0.031701 0.030999 -0.003572
v 0.061895 0.040500 -0.002302
v 0.039118 0.037881 -0.007179
v -0.307788 0.110128 -0.001536
v -0.323200 0.120654 -0.017094
v -0.306602 0.005871 0.025268
v -0.306892 0.004661 0.025246
v 0.507920 0.022837 0.006740
v 0.536637 0.011347 0.003478
v -0.002670 0.019052 -0.017545
v -0.011338 0.016969 -0.013625
v 0.017591 0.030464 -0.012368
v -0.018473 0.016852 -0.009627
v 0.565473 -0.003599 0.004467
v 0.565299 -0.005204 0.008723
v 0.055507 0.042766 -0.015049
v 0.047785 0.039964 -0.011098
v 0.077033 0.050184 -0.009859
v 0.564835 -0.004670 0.008710
v 0.565560 -0.005091 0.008734
v 0.114651 -0.041308 -0.013518
v 0.137688 -0.048831 -0.008409
v 0.107784 -0.042326 -0.009518
v 0.418325 0.052095 0.003508
v 0.421185 0.055614 -0.000625
v 0.449155 0.044396 0.004642
v 0.232571 0.073098 -0.003562
v 0.237363 0.076917 -0.007617
v 0.478090 0.033301 0.005671
v 0.480020 0.036378 0.001497
v 0.477055 0.030855 0.009886
v 0.114879 0.060223 -0.012564
v 0.108125 0.056890 -0.008581
v 0.199290 -0.057046 -0.006076
v 0.168965 -0.052942 -0.007224
v 0.174879 -0.051917 -0.011261
v 0.475139 0.025117 0.013719
v 0.445309 0.035581 0.012649
v 0.478058 -0.032299 0.000780
v 0.506495 -0.025767 0.006231
v 0.476955 -0.033745 0.005002
v -0.307320 0.001890 0.025203
v -0.307311 0.001996 0.025205
v -0.307416 0.000650 0.025188
v -0.136776 0.127536 -0.015759
v -0.118102 0.116771 -0.015129
v -0.131439 0.133136 -0.021519
v -0.153453 0.137150 -0.016321
v -0.389072 0.073696 -0.026129
v -0.399766 0.075875 -0.032548
v -0.307418 0.000544 0.025187
v -0.307450 -0.000700 0.025174
v -0.019181 0.016465 -0.009334
v -0.027459 0.011905 -0.005739
v 0.000646 0.023820 -0.004853
v -0.103785 0.103899 -0.014688
v -0.096732 0.107957 -0.020396
v -0.251968 0.151943 -0.020037
v -0.255408 0.159403 -0.026123
v -0.173954 0.143797 -0.017061
v -0.170614 0.150548 -0.022889
v 0.157564 0.055237 0.001577
v 0.189242 0.059081 0.002852
v -0.109064 -0.104676 -0.016838
v -0.102327 -0.110791 -0.022653
v -0.123103 -0.117342 -0.017505
v -0.168815 -0.020923 0.030408
v -0.098322 -0.012902 0.020564
v -0.141428 -0.127945 -0.018321
v -0.136373 -0.135578 -0.024215
v -0.157792 -0.137414 -0.019049
v -0.420509 0.010739 -0.027945
v -0.432283 0.010244 -0.034431
v -0.177920 -0.143973 -0.019897
v -0.174826 -0.152741 -0.025879
v -0.195895 -0.149831 -0.020655
v -0.175978 0.033857 0.030638
v 0.350297 0.052561 0.009091
v 0.318777 0.057419 0.007903
v -0.251441 -0.058480 0.026827
v -0.265201 -0.054018 0.026330
v -0.389424 -0.075400 -0.027531
v -0.401892 -0.058272 -0.027860
v -0.400128 -0.079694 -0.034011
v -0.266267 -0.053404 0.026294
v -0.307150 0.003229 0.025222
v -0.307136 0.003334 0.025224
v -0.216948 -0.152060 -0.021499
v -0.216008 -0.161529 -0.027572
v -0.307142 -0.004628 0.025150
v -0.306588 -0.007269 0.025147
v -0.307416 -0.001943 0.025164
v -0.203075 -0.053359 0.028766
v -0.204139 -0.053975 0.028719
v -0.232277 0.059988 0.028680
v 0.505854 0.017339 0.014848
v 0.534385 0.004215 0.015841
v 0.385344 -0.052682 0.001242
v 0.354912 -0.055872 0.000022
v 0.357924 -0.054671 -0.004127
v -0.328833 0.127399 -0.023272
v -0.336461 0.132990 -0.029540
v -0.330125 -0.128080 -0.025703
v -0.337809 -0.135722 -0.032096
v -0.291200 -0.034687 0.025493
v -0.217890 -0.058456 0.028139
v -0.300175 0.020676 0.025658
v 0.362712 -0.022260 -0.020751
v 0.390447 -0.036258 -0.011240
v 0.360621 -0.037484 -0.012418
v 0.031886 -0.012550 -0.025044
v 0.003591 -0.008243 -0.026111
v 0.009316 -0.003716 -0.034401
v -0.306911 0.004557 0.025244
v 0.536985 0.011477 -0.005064
v 0.483073 0.008602 -0.017657
v 0.484301 0.001121 -0.019580
v 0.455305 0.009624 -0.018734
v 0.330189 -0.040674 -0.013638
v 0.509866 0.016889 -0.006074
v 0.537896 0.003083 -0.013663
v 0.099893 -0.010280 -0.032821
v 0.129194 -0.012752 -0.031698
v 0.124314 -0.017238 -0.030029
v 0.537984 0.003008 -0.015561
v 0.538630 -0.001190 -0.017476
v 0.511423 0.004297 -0.016588
v 0.510066 -0.007596 -0.016752
v 0.538308 -0.003657 -0.015611
v 0.537655 -0.006702 -0.013763
v 0.367367 0.015498 -0.022119
v 0.369808 0.004092 -0.024031
v 0.338032 0.015958 -0.023262
v 0.188510 0.015932 -0.029110
v 0.217984 0.016343 -0.027954
v 0.192189 0.004239 -0.030977
v 0.184218 0.026396 -0.027279
v 0.158423 0.014291 -0.030303
v 0.565624 -0.002532 -0.016433
v 0.565866 -0.002521 -0.016424
v 0.566299 -0.002573 -0.016407
v 0.538388 -0.003567 -0.017508
v 0.537955 -0.003515 -0.017525
v 0.511394 -0.002226 -0.018551
v 0.483626 -0.001204 -0.019628
v 0.482354 -0.005317 -0.019716
v 0.455261 -0.001970 -0.020745
v 0.426565 -0.001225 -0.021860
v 0.427838 0.002887 -0.021772
v 0.425105 -0.006626 -0.021968
v 0.397682 -0.001769 -0.022995
v 0.368348 -0.001309 -0.024138
v 0.367004 -0.007488 -0.024248
v 0.339130 -0.001627 -0.025284
v 0.309451 -0.001457 -0.026443
v 0.310794 0.004722 -0.026333
v 0.308420 -0.007896 -0.026544
v 0.280084 -0.001547 -0.027593
v 0.250358 -0.001668 -0.028757
v 0.251389 0.004771 -0.028656
v 0.249723 -0.007847 -0.028839
v 0.221028 -0.001529 -0.029903
v 0.191554 -0.001941 -0.031059
v 0.191284 -0.007343 -0.031120
v 0.162446 -0.001575 -0.032194
v 0.133519 -0.002271 -0.033332
v 0.133789 0.003131 -0.033271
v 0.133475 -0.006385 -0.033372
v 0.104818 -0.001680 -0.034449
v 0.076731 -0.002656 -0.035557
v 0.076775 0.001458 -0.035517
v 0.076661 -0.004982 -0.035582
v 0.048618 -0.001843 -0.036649
v 0.020833 -0.003126 -0.037748
v 0.020903 -0.000801 -0.037724
v 0.565103 -0.002404 -0.014551
v -0.070129 0.007136 0.006801
v -0.051596 0.005423 -0.007543
v -0.073035 0.006994 0.008904
v -0.074965 0.005577 0.009830
v -0.082614 0.003718 0.014837
v -0.083121 0.002577 0.014806
v -0.082952 -0.021737 0.006030
v -0.078047 -0.029441 -0.000346
v -0.069207 -0.027829 -0.006324
v -0.065803 -0.026566 -0.008397
v -0.070248 -0.027528 -0.005445
v 0.066408 0.015107 -0.031993
v 0.071883 0.009789 -0.033729
v 0.043213 0.005800 -0.034888
v 0.305292 0.028137 -0.022527
v 0.307734 0.016731 -0.024440
v 0.275991 -0.016034 -0.025986
v 0.246661 -0.015896 -0.027132
v 0.373837 -0.030177 0.019540
v 0.406681 -0.028507 0.020841
v 0.403758 -0.019069 0.027152
v 0.015429 0.004518 -0.035987
v 0.009380 0.005855 -0.034309
v -0.012931 -0.000746 -0.037145
v 0.216719 -0.015265 -0.028298
v 0.187611 -0.014899 -0.029433
v 0.157896 -0.013343 -0.030581
v 0.565778 -0.002446 -0.014525
v 0.180265 0.050292 -0.018655
v 0.149567 0.046108 -0.019895
v 0.452746 -0.011413 -0.019030
v 0.423863 -0.011957 -0.020164
v 0.566467 -0.002620 -0.014500
v 0.335337 -0.015646 -0.023661
v 0.305970 -0.015736 -0.024811
v 0.043080 -0.006096 -0.035004
v 0.015365 -0.005053 -0.036078
v 0.248329 0.016780 -0.026763
v 0.278054 0.016901 -0.025599
v 0.301959 0.052685 -0.013873
v 0.271660 0.053457 -0.015051
v 0.482427 0.012800 -0.015742
v 0.566219 -0.002663 -0.014510
v 0.565977 -0.002674 -0.014519
v 0.394380 -0.014102 -0.021338
v 0.422021 -0.018889 -0.018400
v 0.481701 -0.008362 -0.017869
v 0.480459 -0.013692 -0.016065
v -0.025289 0.003074 -0.027135
v 0.129497 0.013594 -0.031440
v 0.120041 0.043279 -0.021076
v 0.124604 0.021926 -0.029653
v 0.450011 -0.028510 -0.008838
v 0.479551 -0.020532 -0.007608
v 0.508505 -0.017480 -0.006447
v 0.422682 0.040430 -0.009265
v 0.424781 0.020261 -0.017927
v 0.393386 0.043586 -0.010381
v -0.419035 -0.019541 -0.028169
v -0.418730 -0.020564 -0.028167
v -0.419376 -0.018395 -0.028172
v -0.430727 -0.021581 -0.034667
v -0.421031 -0.010042 -0.028159
v -0.432830 -0.011508 -0.034655
v -0.053140 0.032767 -0.013370
v -0.041279 0.006207 -0.013154
v -0.043460 0.032118 -0.019019
v -0.409835 -0.040484 -0.028005
v -0.421490 -0.042647 -0.034502
v -0.419757 -0.016814 -0.028172
v -0.431495 -0.018665 -0.034670
v 0.564837 -0.006183 0.027235
v 0.564314 -0.006512 0.033549
v 0.564561 -0.006217 0.027224
v 0.079598 -0.023892 0.008090
v 0.072119 -0.017893 0.014191
v 0.046958 -0.021990 0.006831
v 0.111343 -0.028449 0.009289
v 0.144445 -0.029643 0.010573
v 0.137861 -0.020989 0.016734
v 0.149085 -0.033761 -0.020658
v 0.308302 -0.033382 0.016947
v 0.341527 -0.032424 0.018256
v 0.337689 -0.021698 0.024544
v 0.003640 0.016569 -0.025878
v 0.031999 0.021833 -0.024719
v 0.015862 -0.015777 0.005673
v 0.007508 -0.013392 0.011706
v -0.016109 -0.013179 0.004446
v 0.244649 0.028474 -0.024896
v 0.099970 0.010765 -0.032622
v 0.365162 -0.014420 -0.022483
v 0.071780 -0.009467 -0.033913
v 0.365538 0.025391 -0.020196
v 0.397314 0.013524 -0.020966
v 0.089916 0.036041 -0.022322
v 0.242988 -0.023452 -0.025445
v 0.061179 -0.021413 -0.023981
v 0.066312 -0.011395 -0.032243
v 0.089880 -0.024785 -0.022890
v 0.426009 0.012780 -0.019850
v 0.302908 -0.023785 -0.023104
v 0.420528 -0.030656 -0.010011
v 0.537317 -0.007176 -0.005224
v 0.480930 0.027984 -0.007102
v 0.452581 0.032289 -0.008171
v 0.269621 -0.041731 -0.016017
v 0.239679 -0.041100 -0.017182
v 0.300211 -0.040972 -0.014813
v 0.362824 0.048691 -0.011529
v 0.332877 0.050666 -0.012682
v 0.242430 -0.034163 0.014363
v 0.275826 -0.033922 0.015672
v 0.271068 -0.022897 0.021927
v 0.241316 0.053021 -0.016242
v 0.210352 0.051933 -0.017463
v 0.533701 -0.013535 0.025949
v 0.532576 -0.009602 0.032279
v 0.502239 -0.016591 0.024689
v 0.438619 -0.024568 0.022127
v 0.470874 -0.022198 0.023410
v 0.468858 -0.015029 0.029736
v 0.061247 0.032052 -0.023480
v 0.176638 -0.032515 0.011805
v 0.209993 -0.032993 0.013106
v 0.204318 -0.022661 0.019318
v 0.119784 -0.031289 -0.021781
v -0.043541 -0.006047 0.004356
v -0.051340 -0.007961 0.009455
v 0.347471 0.044830 0.012870
v 0.343704 0.028747 0.018911
v 0.311259 0.032322 0.017675
v 0.563546 -0.006380 0.033521
v 0.563822 -0.006346 0.033532
v 0.532084 -0.009437 0.032262
v 0.532846 -0.002119 0.032360
v 0.501876 -0.005340 0.031118
v 0.471059 0.005234 0.030011
v 0.470297 -0.002083 0.029913
v 0.438041 -0.004454 0.028629
v 0.406846 0.010876 0.027552
v 0.405407 -0.002069 0.027375
v 0.372563 -0.003739 0.026075
v 0.340852 0.014750 0.025007
v 0.339203 -0.002250 0.024784
v 0.305978 -0.003208 0.023475
v 0.273741 0.016817 0.022401
v 0.272226 -0.002630 0.022161
v 0.238831 -0.002871 0.020852
v 0.206185 0.017057 0.019761
v 0.205027 -0.003210 0.019527
v 0.171673 -0.002732 0.018227
v 0.138865 0.015467 0.017113
v 0.138156 -0.003984 0.016904
v 0.105054 -0.002790 0.015620
v 0.072455 0.012062 0.014484
v 0.072161 -0.004943 0.014314
v 0.039521 -0.003040 0.013055
v 0.007623 0.006878 0.011899
v 0.007582 -0.006072 0.011777
v -0.024390 -0.003474 0.010551
v -0.050759 0.000501 0.009556
v -0.050833 -0.006820 0.009485
v 0.211811 0.033538 0.013796
v 0.178007 0.033199 0.012471
v 0.472152 0.011389 0.023773
v 0.503732 0.008132 0.024978
v 0.442526 -0.037318 0.011861
v 0.473890 -0.031712 0.013140
v 0.472000 -0.026131 0.017080
v 0.282203 0.049814 0.010363
v 0.277508 0.032900 0.016360
v 0.244684 0.034309 0.015089
v 0.038938 -0.028063 -0.007800
v 0.061790 -0.032435 -0.002986
v 0.031585 -0.023618 -0.004085
v 0.413374 -0.048391 0.006657
v 0.411484 -0.042810 0.010596
v 0.162099 -0.053960 -0.003224
v 0.187845 -0.050459 0.001777
v 0.156567 -0.046349 0.000592
v 0.377064 0.027258 0.020202
v 0.315836 -0.052101 0.006768
v 0.348145 -0.049855 0.008053
v 0.344450 -0.041862 0.011944
v 0.379546 -0.046749 0.009310
v 0.408697 -0.035676 0.014515
v 0.474904 -0.035056 0.009188
v 0.504378 -0.023868 0.014406
v 0.535133 -0.017067 0.011711
v 0.564710 -0.006485 0.016928
v 0.534970 -0.016630 0.015670
v 0.350932 -0.056989 0.004134
v 0.565134 -0.006810 0.012980
v 0.564971 -0.006373 0.016939
v 0.099982 -0.043365 -0.005555
v 0.124374 -0.043476 -0.000640
v 0.093535 -0.036992 -0.001786
v 0.474109 0.022065 0.017611
v 0.441437 0.019167 0.022644
v 0.287972 -0.060793 0.001636
v 0.284277 -0.052801 0.005527
v 0.534208 0.004513 0.019798
v 0.533115 -0.001641 0.026036
v 0.015965 0.014585 0.005959
v -0.015974 0.011553 0.004682
v 0.224895 -0.059782 -0.000822
v 0.251800 -0.053341 0.004252
v 0.220282 -0.051629 0.003035
v 0.533956 -0.013286 0.019623
v 0.564293 -0.006297 0.027213
v 0.564338 -0.005574 0.020883
v 0.565239 -0.006293 0.016950
v 0.563323 -0.005737 0.027180
v 0.564069 -0.006051 0.027206
v 0.408803 0.021552 0.021390
v -0.019320 -0.008654 -0.009898
v -0.019700 -0.008590 -0.009665
v 0.000489 -0.017405 -0.005243
v -0.027944 -0.006748 -0.006009
v 0.564816 -0.005968 0.020898
v 0.411655 0.035549 0.015294
v 0.079913 0.023916 0.008548
v 0.047020 0.021764 0.007241
v 0.145415 0.030255 0.011169
v 0.111898 0.029003 0.009846
v -0.048414 0.006090 -0.009156
v -0.049122 0.005704 -0.008863
v -0.054558 -0.030189 -0.015755
v -0.046672 -0.028380 -0.019708
v -0.054938 -0.030125 -0.015522
v -0.057736 -0.030847 -0.014143
v -0.029932 0.011625 -0.004420
v -0.032839 0.011483 -0.002317
v -0.034768 0.010066 -0.001391
v -0.043110 0.002359 0.004549
v -0.030741 -0.007470 -0.004629
v -0.034145 -0.008734 -0.002556
v 0.023423 0.026439 0.000023
v 0.216506 0.050451 0.007800
v 0.279664 -0.044648 0.009384
v 0.150120 -0.039976 0.004360
v 0.086182 -0.032546 0.001929
v 0.023341 -0.021776 -0.000429
v 0.151040 0.046736 0.005204
v 0.086463 0.038705 0.002604
v 0.214750 -0.044018 0.006851
v -0.035186 -0.008432 -0.001677
f 1 285 287
f 285 2 286
f 286 3 287
f 285 286 287
f 2 285 289
f 285 1 288
f 288 4 289
f 285 288 289
f 5 290 292
f 290 6 291
f 291 7 292
f 290 291 292
f 3 293 295
f 293 8 294
f 294 9 295
f 293 294 295
f 8 293 296
f 293 3 286
f 286 2 296
f 293 286 296
f 6 297 299
f 297 10 298
f 298 11 299
f 297 298 299
f 12 300 301
f 300 10 297
f 297 6 301
f 300 297 301
f 13 302 304
f 302 14 303
f 303 15 304
f 302 303 304
f 16 305 307
f 305 17 306
f 306 18 307
f 305 306 307
f 17 305 309
f 305 16 308
f 308 19 309
f 305 308 309
f 20 310 312
f 310 21 311
f 311 22 312
f 310 311 312
f 21 310 314
f 310 20 313
f 313 23 314
f 310 313 314
f 24 315 317
f 315 25 316
f 316 26 317
f 315 316 317
f 25 315 319
f 315 24 318
f 318 27 319
f 315 318 319
f 28 320 322
f 320 29 321
f 321 30 322
f 320 321 322
f 29 320 324
f 320 28 323
f 323 31 324
f 320 323 324
f 18 325 327
f 325 32 326
f 326 33 327
f 325 326 327
f 32 325 328
f 325 18 306
f 306 17 328
f 325 306 328
f 34 329 331
f 329 35 330
f 330 36 331
f 329 330 331
f 35 329 333
f 329 34 332
f 332 37 333
f 329 332 333
f 38 334 336
f 334 39 335
f 335 40 336
f 334 335 336
f 39 334 338
f 334 38 337
f 337 41 338
f 334 337 338
f 42 339 341
f 339 43 340
f 340 44 341
f 339 340 341
f 43 339 343
f 339 42 342
f 342 45 343
f 339 342 343
f 42 344 346
f 344 46 345
f 345 47 346
f 344 345 346
f 46 344 347
f 344 42 341
f 341 44 347
f 344 341 347
f 48 348 350
f 348 49 349
f 349 50 350
f 348 349 350
f 49 348 352
f 348 48 351
f 351 51 352
f 348 351 352
f 27 353 319
f 353 52 354
f 354 25 319
f 353 354 319
f 52 353 356
f 353 27 355
f 355 53 356
f 353 355 356
f 54 357 359
f 357 55 358
f 358 56 359
f 357 358 359
f 55 357 361
f 357 54 360
f 360 57 361
f 357 360 361
f 58 362 364
f 362 59 363
f 363 60 364
f 362 363 364
f 59 362 366
f 362 58 365
f 365 61 366
f 362 365 366
f 62 367 369
f 367 63 368
f 368 64 369
f 367 368 369
f 45 370 343
f 370 56 371
f 371 43 343
f 370 371 343
f 56 370 359
f 370 45 372
f 372 54 359
f 370 372 359
f 57 373 361
f 373 65 374
f 374 55 361
f 373 374 361
f 65 373 376
f 373 57 375
f 375 30 376
f 373 375 376
f 66 377 379
f 377 67 378
f 378 68 379
f 377 378 379
f 67 377 381
f 377 66 380
f 380 69 381
f 377 380 381
f 70 382 384
f 382 71 383
f 383 72 384
f 382 383 384
f 71 382 386
f 382 70 385
f 385 73 386
f 382 385 386
f 51 387 352
f 387 74 388
f 388 49 352
f 387 388 352
f 74 387 390
f 387 51 389
f 389 75 390
f 387 389 390
f 76 391 393
f 391 77 392
f 392 78 393
f 391 392 393
f 77 391 395
f 391 76 394
f 394 79 395
f 391 394 395
f 80 396 398
f 396 81 397
f 397 82 398
f 396 397 398
f 81 396 400
f 396 80 399
f 399 83 400
f 396 399 400
f 84 401 402
f 401 61 365
f 365 58 402
f 401 365 402
f 61 401 404
f 401 84 403
f 403 85 404
f 401 403 404
f 62 405 407
f 405 86 406
f 406 15 407
f 405 406 407
f 40 408 410
f 408 87 409
f 409 88 410
f 408 409 410
f 87 408 411
f 408 40 335
f 335 39 411
f 408 335 411
f 89 412 414
f 412 18 413
f 413 90 414
f 412 413 414
f 18 412 307
f 412 89 415
f 415 16 307
f 412 415 307
f 47 416 346
f 416 68 417
f 417 42 346
f 416 417 346
f 68 416 419
f 416 47 418
f 418 91 419
f 416 418 419
f 92 420 422
f 420 93 421
f 421 94 422
f 420 421 422
f 95 423 424
f 423 57 360
f 360 54 424
f 423 360 424
f 57 423 426
f 423 95 425
f 425 96 426
f 423 425 426
f 97 427 429
f 427 98 428
f 428 74 429
f 427 428 429
f 98 427 431
f 427 97 430
f 430 99 431
f 427 430 431
f 100 432 434
f 432 101 433
f 433 102 434
f 432 433 434
f 103 435 437
f 435 47 436
f 436 70 437
f 435 436 437
f 47 435 418
f 435 103 438
f 438 91 418
f 435 438 418
f 104 439 441
f 439 76 440
f 440 105 441
f 439 440 441
f 76 439 443
f 439 104 442
f 442 72 443
f 439 442 443
f 82 444 446
f 444 106 445
f 445 107 446
f 444 445 446
f 106 444 447
f 444 82 397
f 397 81 447
f 444 397 447
f 96 448 426
f 448 30 375
f 375 57 426
f 448 375 426
f 30 448 322
f 448 96 449
f 449 28 322
f 448 449 322
f 450 109 451
f 450 451 452
f 450 108 453
f 450 453 454
f 111 453 456
f 453 455 456
f 456 112 457
f 456 457 458
f 113 457 460
f 457 459 460
f 460 461 462
f 39 463 411
f 463 116 464
f 464 87 411
f 463 464 411
f 116 463 466
f 463 39 465
f 465 117 466
f 463 465 466
f 2 467 296
f 467 60 468
f 468 8 296
f 467 468 296
f 60 467 364
f 467 2 469
f 469 58 364
f 467 469 364
f 41 470 338
f 470 117 465
f 465 39 338
f 470 465 338
f 117 470 472
f 470 41 471
f 471 118 472
f 470 471 472
f 119 473 475
f 473 120 474
f 474 121 475
f 473 474 475
f 120 473 477
f 473 119 476
f 476 50 477
f 473 476 477
f 50 478 477
f 478 122 479
f 479 120 477
f 478 479 477
f 122 478 480
f 478 50 349
f 349 49 480
f 478 349 480
f 37 481 333
f 481 123 482
f 482 35 333
f 481 482 333
f 123 481 484
f 481 37 483
f 483 124 484
f 481 483 484
f 124 485 484
f 485 125 486
f 486 123 484
f 485 486 484
f 125 485 488
f 485 124 487
f 487 126 488
f 485 487 488
f 81 489 447
f 489 121 490
f 490 106 447
f 489 490 447
f 121 489 475
f 489 81 491
f 491 119 475
f 489 491 475
f 33 492 494
f 492 127 493
f 493 128 494
f 492 493 494
f 127 492 495
f 492 33 326
f 326 32 495
f 492 326 495
f 10 496 498
f 496 129 497
f 497 92 498
f 496 497 498
f 72 499 384
f 499 103 437
f 437 70 384
f 499 437 384
f 103 499 500
f 499 72 442
f 442 104 500
f 499 442 500
f 128 501 502
f 501 118 471
f 471 41 502
f 501 471 502
f 118 501 503
f 501 128 493
f 493 127 503
f 501 493 503
f 68 504 417
f 504 45 342
f 342 42 417
f 504 342 417
f 45 504 505
f 504 68 378
f 378 67 505
f 504 378 505
f 31 506 324
f 506 22 507
f 507 29 324
f 506 507 324
f 22 506 312
f 506 31 508
f 508 20 312
f 506 508 312
f 105 509 511
f 509 78 510
f 510 130 511
f 509 510 511
f 78 509 393
f 509 105 440
f 440 76 393
f 509 440 393
f 130 512 513
f 512 27 318
f 318 24 513
f 512 318 513
f 27 512 514
f 512 130 510
f 510 78 514
f 512 510 514
f 87 515 516
f 515 124 483
f 483 37 516
f 515 483 516
f 124 515 517
f 515 87 464
f 464 116 517
f 515 464 517
f 74 518 388
f 518 122 480
f 480 49 388
f 518 480 388
f 122 518 519
f 518 74 428
f 428 98 519
f 518 428 519
f 59 520 521
f 520 19 308
f 308 16 521
f 520 308 521
f 19 520 522
f 520 59 366
f 366 61 522
f 520 366 522
f 53 523 356
f 523 131 524
f 524 52 356
f 523 524 356
f 131 523 526
f 523 53 525
f 525 77 526
f 523 525 526
f 131 526 528
f 526 77 527
f 527 80 528
f 526 527 528
f 80 527 529
f 527 77 395
f 395 79 529
f 527 395 529
f 80 529 399
f 529 79 530
f 530 83 399
f 529 530 399
f 83 530 532
f 530 79 531
f 531 71 532
f 530 531 532
f 83 532 534
f 532 71 533
f 533 132 534
f 532 533 534
f 132 533 535
f 533 71 386
f 386 73 535
f 533 386 535
f 132 535 537
f 535 73 536
f 536 48 537
f 535 536 537
f 48 536 539
f 536 73 538
f 538 46 539
f 536 538 539
f 48 539 351
f 539 46 540
f 540 51 351
f 539 540 351
f 51 540 541
f 540 46 347
f 347 44 541
f 540 347 541
f 51 541 389
f 541 44 542
f 542 75 389
f 541 542 389
f 75 542 543
f 542 44 340
f 340 43 543
f 542 340 543
f 75 543 545
f 543 43 544
f 544 133 545
f 543 544 545
f 133 544 546
f 544 43 371
f 371 56 546
f 544 371 546
f 133 546 548
f 546 56 547
f 547 36 548
f 546 547 548
f 36 547 549
f 547 56 358
f 358 55 549
f 547 358 549
f 36 549 331
f 549 55 550
f 550 34 331
f 549 550 331
f 34 550 551
f 550 55 374
f 374 65 551
f 550 374 551
f 34 551 553
f 551 65 552
f 552 88 553
f 551 552 553
f 88 552 555
f 552 65 554
f 554 134 555
f 552 554 555
f 88 555 410
f 555 134 556
f 556 40 410
f 555 556 410
f 40 556 336
f 556 134 557
f 557 38 336
f 556 557 336
f 38 557 559
f 557 134 558
f 558 135 559
f 557 558 559
f 38 559 561
f 559 135 560
f 560 136 561
f 559 560 561
f 136 560 563
f 560 135 562
f 562 137 563
f 560 562 563
f 136 563 565
f 563 137 564
f 564 138 565
f 563 564 565
f 138 564 567
f 564 137 566
f 566 139 567
f 564 566 567
f 138 567 569
f 567 139 568
f 568 140 569
f 567 568 569
f 138 569 571
f 569 140 570
f 570 90 571
f 569 570 571
f 90 570 414
f 570 140 572
f 572 89 414
f 570 572 414
f 89 572 574
f 572 140 573
f 573 141 574
f 572 573 574
f 89 574 576
f 574 141 575
f 575 142 576
f 574 575 576
f 35 577 578
f 577 99 430
f 430 97 578
f 577 430 578
f 99 577 579
f 577 35 482
f 482 123 579
f 577 482 579
f 143 580 582
f 580 107 581
f 581 144 582
f 580 581 582
f 107 580 446
f 580 143 583
f 583 82 446
f 580 583 446
f 23 584 314
f 584 9 585
f 585 21 314
f 584 585 314
f 9 584 295
f 584 23 586
f 586 3 295
f 584 586 295
f 145 587 589
f 587 146 588
f 588 147 589
f 587 588 589
f 148 590 592
f 590 103 591
f 591 149 592
f 590 591 592
f 103 590 438
f 590 148 593
f 593 91 438
f 590 593 438
f 32 594 495
f 594 150 595
f 595 127 495
f 594 595 495
f 150 594 597
f 594 32 596
f 596 151 597
f 594 596 597
f 152 598 599
f 598 31 323
f 323 28 599
f 598 323 599
f 31 598 601
f 598 152 600
f 600 153 601
f 598 600 601
f 154 602 604
f 602 155 603
f 603 156 604
f 602 603 604
f 99 605 431
f 605 157 606
f 606 98 431
f 605 606 431
f 157 605 608
f 605 99 607
f 607 158 608
f 605 607 608
f 100 609 432
f 609 159 610
f 610 101 432
f 609 610 432
f 160 611 613
f 611 161 612
f 612 162 613
f 611 612 613
f 7 614 616
f 614 163 615
f 615 164 616
f 614 615 616
f 165 617 618
f 617 23 313
f 313 20 618
f 617 313 618
f 23 617 620
f 617 165 619
f 619 166 620
f 617 619 620
f 144 621 623
f 621 167 622
f 622 168 623
f 621 622 623
f 167 621 624
f 621 144 581
f 581 107 624
f 621 581 624
f 169 625 627
f 625 160 626
f 626 170 627
f 625 626 627
f 171 628 630
f 628 172 629
f 629 173 630
f 628 629 630
f 174 631 633
f 631 632 633
f 175 631 635
f 631 634 635
f 175 635 637
f 635 636 637
f 637 110 638
f 637 638 639
f 638 110 451
f 638 451 640
f 19 641 309
f 641 178 642
f 642 17 309
f 641 642 309
f 178 641 644
f 641 19 643
f 643 179 644
f 641 643 644
f 180 645 647
f 645 181 646
f 646 182 647
f 645 646 647
f 61 648 522
f 648 179 643
f 643 19 522
f 648 643 522
f 179 648 649
f 648 61 404
f 404 85 649
f 648 404 649
f 153 650 601
f 650 20 508
f 508 31 601
f 650 508 601
f 20 650 618
f 650 153 651
f 651 165 618
f 650 651 618
f 183 652 654
f 652 24 653
f 653 184 654
f 652 653 654
f 24 652 513
f 652 183 655
f 655 130 513
f 652 655 513
f 185 656 657
f 656 96 425
f 425 95 657
f 656 425 657
f 96 656 659
f 656 185 658
f 658 186 659
f 656 658 659
f 187 660 661
f 660 102 433
f 433 101 661
f 660 433 661
f 4 662 289
f 662 58 469
f 469 2 289
f 662 469 289
f 58 662 402
f 662 4 663
f 663 84 402
f 662 663 402
f 156 664 665
f 664 187 661
f 661 101 665
f 664 661 665
f 98 666 519
f 666 188 667
f 667 122 519
f 666 667 519
f 188 666 668
f 666 98 606
f 606 157 668
f 666 606 668
f 189 669 671
f 669 102 670
f 670 147 671
f 669 670 671
f 155 672 603
f 672 182 673
f 673 156 603
f 672 673 603
f 29 674 675
f 674 135 558
f 558 134 675
f 674 558 675
f 135 674 676
f 674 29 507
f 507 22 676
f 674 507 676
f 72 677 443
f 677 79 394
f 394 76 443
f 677 394 443
f 79 677 531
f 677 72 383
f 383 71 531
f 677 383 531
f 102 669 434
f 669 189 678
f 678 100 434
f 669 678 434
f 138 679 565
f 679 128 680
f 680 136 565
f 679 680 565
f 128 679 494
f 679 138 681
f 681 33 494
f 679 681 494
f 131 682 683
f 682 82 583
f 583 143 683
f 682 583 683
f 82 682 398
f 682 131 528
f 528 80 398
f 682 528 398
f 190 684 686
f 684 191 685
f 685 180 686
f 684 685 686
f 67 687 505
f 687 54 372
f 372 45 505
f 687 372 505
f 54 687 424
f 687 67 688
f 688 95 424
f 687 688 424
f 22 689 676
f 689 137 562
f 562 135 676
f 689 562 676
f 137 689 690
f 689 22 311
f 311 21 690
f 689 311 690
f 192 691 692
f 691 129 496
f 496 10 692
f 691 496 692
f 193 693 695
f 693 169 694
f 694 190 695
f 693 694 695
f 169 633 694
f 633 174 696
f 696 190 694
f 633 696 694
f 7 697 614
f 697 11 698
f 698 163 614
f 697 698 614
f 194 699 701
f 699 193 700
f 700 180 701
f 699 700 701
f 193 695 700
f 695 190 686
f 686 180 700
f 695 686 700
f 10 498 298
f 498 92 702
f 702 11 298
f 498 702 298
f 11 702 703
f 702 92 422
f 422 94 703
f 702 422 703
f 161 704 706
f 704 195 705
f 705 196 706
f 704 705 706
f 189 671 708
f 671 147 707
f 707 197 708
f 671 707 708
f 197 707 709
f 707 147 588
f 588 146 709
f 707 588 709
f 154 710 711
f 710 101 610
f 610 159 711
f 710 610 711
f 154 604 710
f 604 156 665
f 665 101 710
f 604 665 710
f 197 709 713
f 709 146 712
f 712 192 713
f 709 712 713
f 192 712 691
f 712 146 714
f 714 129 691
f 712 714 691
f 155 715 672
f 715 194 716
f 716 182 672
f 715 716 672
f 194 701 716
f 701 180 647
f 647 182 716
f 701 647 716
f 15 717 719
f 717 198 718
f 718 195 719
f 717 718 719
f 199 720 721
f 720 129 714
f 714 146 721
f 720 714 721
f 172 722 724
f 722 164 723
f 723 200 724
f 722 723 724
f 8 725 726
f 725 141 573
f 573 140 726
f 725 573 726
f 141 725 727
f 725 8 468
f 468 60 727
f 725 468 727
f 201 728 730
f 728 105 729
f 729 202 730
f 728 729 730
f 105 728 441
f 728 201 731
f 731 104 441
f 728 731 441
f 186 732 659
f 732 28 449
f 449 96 659
f 732 449 659
f 28 732 599
f 732 186 733
f 733 152 599
f 732 733 599
f 60 734 727
f 734 142 575
f 575 141 727
f 734 575 727
f 142 734 735
f 734 60 363
f 363 59 735
f 734 363 735
f 190 736 738
f 736 176 737
f 737 203 738
f 736 737 738
f 176 736 634
f 736 190 696
f 696 174 634
f 736 696 634
f 202 739 740
f 739 130 655
f 655 183 740
f 739 655 740
f 130 739 511
f 739 202 729
f 729 105 511
f 739 729 511
f 148 741 593
f 741 68 419
f 419 91 593
f 741 419 593
f 68 741 379
f 741 148 742
f 742 66 379
f 741 742 379
f 149 743 744
f 743 104 731
f 731 201 744
f 743 731 744
f 104 743 500
f 743 149 591
f 591 103 500
f 743 591 500
f 182 745 673
f 745 204 746
f 746 156 673
f 745 746 673
f 107 747 624
f 747 205 748
f 748 167 624
f 747 748 624
f 205 747 749
f 747 107 445
f 445 106 749
f 747 445 749
f 52 750 354
f 750 143 751
f 751 25 354
f 750 751 354
f 143 750 683
f 750 52 524
f 524 131 683
f 750 524 683
f 106 752 749
f 752 206 753
f 753 205 749
f 752 753 749
f 206 752 754
f 752 106 490
f 490 121 754
f 752 490 754
f 166 755 620
f 755 3 586
f 586 23 620
f 755 586 620
f 3 755 287
f 755 166 756
f 756 1 287
f 755 756 287
f 121 757 754
f 757 207 758
f 758 206 754
f 757 758 754
f 207 757 759
f 757 121 474
f 474 120 759
f 757 474 759
f 78 760 514
f 760 53 355
f 355 27 514
f 760 355 514
f 53 760 525
f 760 78 392
f 392 77 525
f 760 392 525
f 208 761 762
f 761 147 670
f 670 102 762
f 761 670 762
f 133 763 545
f 763 74 390
f 390 75 545
f 763 390 545
f 74 763 429
f 763 133 764
f 764 97 429
f 763 764 429
f 116 765 517
f 765 126 487
f 487 124 517
f 765 487 517
f 126 765 767
f 765 116 766
f 766 209 767
f 765 766 767
f 36 768 548
f 768 97 764
f 764 133 548
f 768 764 548
f 97 768 578
f 768 36 330
f 330 35 578
f 768 330 578
f 9 769 770
f 769 140 568
f 568 139 770
f 769 568 770
f 140 769 726
f 769 9 294
f 294 8 726
f 769 294 726
f 120 771 759
f 771 188 772
f 772 207 759
f 771 772 759
f 188 771 667
f 771 120 479
f 479 122 667
f 771 479 667
f 90 773 571
f 773 33 681
f 681 138 571
f 773 681 571
f 33 773 327
f 773 90 413
f 413 18 327
f 773 413 327
f 136 774 561
f 774 41 337
f 337 38 561
f 774 337 561
f 41 774 502
f 774 136 680
f 680 128 502
f 774 680 502
f 142 775 576
f 775 16 415
f 415 89 576
f 775 415 576
f 16 775 521
f 775 142 735
f 735 59 521
f 775 735 521
f 83 776 400
f 776 119 491
f 491 81 400
f 776 491 400
f 119 776 777
f 776 83 534
f 534 132 777
f 776 534 777
f 47 778 436
f 778 73 385
f 385 70 436
f 778 385 436
f 73 778 538
f 778 47 345
f 345 46 538
f 778 345 538
f 129 779 497
f 779 210 780
f 780 92 497
f 779 780 497
f 171 781 783
f 781 211 782
f 782 63 783
f 781 782 783
f 69 784 381
f 784 95 688
f 688 67 381
f 784 688 381
f 95 784 657
f 784 69 785
f 785 185 657
f 784 785 657
f 123 786 579
f 786 158 607
f 607 99 579
f 786 607 579
f 158 786 787
f 786 123 486
f 486 125 787
f 786 486 787
f 88 788 553
f 788 37 332
f 332 34 553
f 788 332 553
f 37 788 516
f 788 88 409
f 409 87 516
f 788 409 516
f 132 789 777
f 789 50 476
f 476 119 777
f 789 476 777
f 50 789 350
f 789 132 537
f 537 48 350
f 789 537 350
f 30 790 376
f 790 134 554
f 554 65 376
f 790 554 376
f 134 790 675
f 790 30 321
f 321 29 675
f 790 321 675
f 212 791 793
f 791 213 792
f 792 171 793
f 791 792 793
f 214 794 796
f 794 160 795
f 795 215 796
f 794 795 796
f 21 797 690
f 797 139 566
f 566 137 690
f 797 566 690
f 139 797 770
f 797 21 585
f 585 9 770
f 797 585 770
f 12 798 300
f 798 192 692
f 692 10 300
f 798 692 300
f 216 799 801
f 799 217 800
f 800 218 801
f 799 800 801
f 63 802 783
f 802 212 793
f 793 171 783
f 802 793 783
f 219 803 804
f 803 192 798
f 798 12 804
f 803 798 804
f 220 805 807
f 805 221 806
f 806 13 807
f 805 806 807
f 219 808 810
f 808 222 809
f 809 217 810
f 808 809 810
f 223 811 813
f 811 224 812
f 812 5 813
f 811 812 813
f 225 814 816
f 814 226 815
f 815 227 816
f 814 815 816
f 228 817 819
f 817 229 818
f 818 230 819
f 817 818 819
f 231 820 821
f 820 229 817
f 817 228 821
f 820 817 821
f 232 822 824
f 822 222 823
f 823 233 824
f 822 823 824
f 222 822 826
f 822 232 825
f 825 224 826
f 822 825 826
f 222 826 809
f 826 224 827
f 827 217 809
f 826 827 809
f 217 827 800
f 827 224 828
f 828 218 800
f 827 828 800
f 218 828 830
f 828 224 829
f 829 234 830
f 828 829 830
f 218 830 832
f 830 234 831
f 831 226 832
f 830 831 832
f 226 831 834
f 831 234 833
f 833 235 834
f 831 833 834
f 226 834 815
f 834 235 835
f 835 227 815
f 834 835 815
f 227 835 837
f 835 235 836
f 836 236 837
f 835 836 837
f 227 837 839
f 837 236 838
f 838 237 839
f 837 838 839
f 237 838 841
f 838 236 840
f 840 238 841
f 838 840 841
f 237 841 843
f 841 238 842
f 842 230 843
f 841 842 843
f 230 842 845
f 842 238 844
f 844 239 845
f 842 844 845
f 230 845 819
f 845 239 846
f 846 228 819
f 845 846 819
f 228 846 848
f 846 239 847
f 847 240 848
f 846 847 848
f 228 848 850
f 848 240 849
f 849 241 850
f 848 849 850
f 241 849 852
f 849 240 851
f 851 221 852
f 849 851 852
f 241 852 854
f 852 221 853
f 853 242 854
f 852 853 854
f 242 853 856
f 853 221 855
f 855 243 856
f 853 855 856
f 242 856 858
f 856 243 857
f 857 244 858
f 856 857 858
f 222 808 859
f 808 219 804
f 804 12 859
f 808 804 859
f 25 860 316
f 860 110 861
f 861 26 316
f 860 861 316
f 110 860 452
f 860 25 862
f 862 108 452
f 860 862 452
f 108 862 455
f 862 25 863
f 863 112 455
f 862 863 455
f 112 863 459
f 863 25 864
f 864 114 459
f 863 864 459
f 114 864 461
f 864 25 865
f 865 115 461
f 864 865 461
f 115 865 867
f 865 25 866
f 866 144 867
f 865 866 867
f 144 866 582
f 866 25 751
f 751 143 582
f 866 751 582
f 111 868 454
f 868 144 869
f 869 109 454
f 868 869 454
f 144 868 870
f 868 111 458
f 458 113 870
f 868 458 870
f 144 870 867
f 870 113 462
f 462 115 867
f 870 462 867
f 245 871 873
f 871 246 872
f 872 242 873
f 871 872 873
f 247 874 875
f 874 225 816
f 816 227 875
f 874 816 875
f 239 844 877
f 844 238 876
f 876 248 877
f 844 876 877
f 249 878 880
f 878 250 879
f 879 251 880
f 878 879 880
f 244 881 858
f 881 245 873
f 873 242 858
f 881 873 858
f 215 882 883
f 882 245 881
f 881 244 883
f 882 881 883
f 240 847 885
f 847 239 884
f 884 14 885
f 847 884 885
f 221 851 806
f 851 240 886
f 886 13 806
f 851 886 806
f 222 859 823
f 859 12 887
f 887 233 823
f 859 887 823
f 155 602 889
f 602 154 888
f 888 231 889
f 602 888 889
f 235 833 891
f 833 234 890
f 890 252 891
f 833 890 891
f 233 887 892
f 887 12 301
f 301 6 892
f 887 301 892
f 238 840 894
f 840 236 893
f 893 212 894
f 840 893 894
f 244 857 896
f 857 243 895
f 895 214 896
f 857 895 896
f 230 897 843
f 897 247 898
f 898 237 843
f 897 898 843
f 159 899 900
f 899 225 874
f 874 247 900
f 899 874 900
f 216 901 799
f 901 219 810
f 810 217 799
f 901 810 799
f 233 902 824
f 902 5 903
f 903 232 824
f 902 903 824
f 233 892 902
f 892 6 290
f 290 5 902
f 892 290 902
f 213 904 905
f 904 235 891
f 891 252 905
f 904 891 905
f 252 890 907
f 890 234 906
f 906 223 907
f 890 906 907
f 215 795 908
f 795 160 625
f 625 169 908
f 795 625 908
f 241 909 850
f 909 231 821
f 821 228 850
f 909 821 850
f 246 910 911
f 910 155 889
f 889 231 911
f 910 889 911
f 172 912 722
f 912 252 913
f 913 164 722
f 912 913 722
f 223 914 907
f 914 164 913
f 913 252 907
f 914 913 907
f 189 915 917
f 915 216 916
f 916 253 917
f 915 916 917
f 118 918 472
f 918 254 919
f 919 117 472
f 918 919 472
f 254 918 921
f 918 118 920
f 920 255 921
f 918 920 921
f 17 922 328
f 922 151 596
f 596 32 328
f 922 596 328
f 151 922 923
f 922 17 642
f 642 178 923
f 922 642 923
f 184 924 926
f 924 26 925
f 925 169 926
f 924 925 926
f 26 924 317
f 924 184 653
f 653 24 317
f 924 653 317
f 117 927 466
f 927 209 766
f 766 116 466
f 927 766 466
f 209 927 928
f 927 117 919
f 919 254 928
f 927 919 928
f 127 929 503
f 929 255 920
f 920 118 503
f 929 920 503
f 255 929 930
f 929 127 595
f 595 150 930
f 929 595 930
f 256 931 933
f 931 257 932
f 932 258 933
f 931 932 933
f 259 934 936
f 934 260 935
f 935 261 936
f 934 935 936
f 260 937 939
f 937 262 938
f 938 263 939
f 937 938 939
f 195 940 719
f 940 13 304
f 304 15 719
f 940 304 719
f 264 941 943
f 941 265 942
f 942 249 943
f 941 942 943
f 215 908 944
f 908 169 693
f 693 193 944
f 908 693 944
f 215 944 882
f 944 193 945
f 945 245 882
f 944 945 882
f 266 946 948
f 946 261 947
f 947 267 948
f 946 947 948
f 229 949 818
f 949 247 897
f 897 230 818
f 949 897 818
f 242 872 854
f 872 246 950
f 950 241 854
f 872 950 854
f 236 836 951
f 836 235 904
f 904 213 951
f 836 904 951
f 243 855 952
f 855 221 805
f 805 220 952
f 855 805 952
f 246 911 950
f 911 231 909
f 909 241 950
f 911 909 950
f 225 953 814
f 953 253 954
f 954 226 814
f 953 954 814
f 244 896 883
f 896 214 796
f 796 215 883
f 896 796 883
f 194 715 955
f 715 155 910
f 910 246 955
f 715 910 955
f 14 884 956
f 884 239 877
f 877 248 956
f 884 877 956
f 214 957 794
f 957 161 611
f 611 160 794
f 957 611 794
f 214 958 957
f 958 220 959
f 959 161 957
f 958 959 957
f 253 916 960
f 916 216 801
f 801 218 960
f 916 801 960
f 232 903 825
f 903 5 812
f 812 224 825
f 903 812 825
f 13 886 302
f 886 240 885
f 885 14 302
f 886 885 302
f 234 829 906
f 829 224 811
f 811 223 906
f 829 811 906
f 214 895 958
f 895 243 952
f 952 220 958
f 895 952 958
f 248 876 961
f 876 238 894
f 894 212 961
f 876 894 961
f 247 875 898
f 875 227 839
f 839 237 898
f 875 839 898
f 253 960 954
f 960 218 832
f 832 226 954
f 960 832 954
f 212 893 791
f 893 236 951
f 951 213 791
f 893 951 791
f 171 792 628
f 792 213 962
f 962 172 628
f 792 962 628
f 213 905 962
f 905 252 912
f 912 172 962
f 905 912 962
f 5 292 813
f 292 7 963
f 963 223 813
f 292 963 813
f 6 299 291
f 299 11 697
f 697 7 291
f 299 697 291
f 219 964 803
f 964 197 713
f 713 192 803
f 964 713 803
f 197 964 965
f 964 219 901
f 901 216 965
f 964 901 965
f 189 708 915
f 708 197 965
f 965 216 915
f 708 965 915
f 14 956 967
f 956 248 966
f 966 62 967
f 956 966 967
f 248 961 968
f 961 212 802
f 802 63 968
f 961 802 968
f 100 678 969
f 678 189 917
f 917 253 969
f 678 917 969
f 100 969 970
f 969 253 953
f 953 225 970
f 969 953 970
f 62 966 367
f 966 248 968
f 968 63 367
f 966 968 367
f 268 971 973
f 971 269 972
f 972 264 973
f 971 972 973
f 159 609 899
f 609 100 970
f 970 225 899
f 609 970 899
f 223 963 914
f 963 7 616
f 616 164 914
f 963 616 914
f 154 711 975
f 711 159 974
f 974 229 975
f 711 974 975
f 15 303 407
f 303 14 967
f 967 62 407
f 303 967 407
f 270 976 978
f 976 258 977
f 977 271 978
f 976 977 978
f 251 979 981
f 979 272 980
f 980 271 981
f 979 980 981
f 193 699 945
f 699 194 982
f 982 245 945
f 699 982 945
f 231 888 820
f 888 154 975
f 975 229 820
f 888 975 820
f 245 982 871
f 982 194 955
f 955 246 871
f 982 955 871
f 263 983 985
f 983 273 984
f 984 268 985
f 983 984 985
f 161 959 704
f 959 220 986
f 986 195 704
f 959 986 704
f 220 807 986
f 807 13 940
f 940 195 986
f 807 940 986
f 229 974 949
f 974 159 900
f 900 247 949
f 974 900 949
f 113 987 462
f 987 267 988
f 988 115 462
f 987 988 462
f 208 989 761
f 989 145 589
f 589 147 761
f 989 589 761
f 274 990 991
f 990 145 989
f 989 208 991
f 990 989 991
f 275 992 993
f 992 258 932
f 932 257 993
f 992 932 993
f 258 992 977
f 992 275 994
f 994 271 977
f 992 994 977
f 271 994 996
f 994 275 995
f 995 276 996
f 994 995 996
f 271 996 998
f 996 276 997
f 997 277 998
f 996 997 998
f 271 998 981
f 998 277 999
f 999 251 981
f 998 999 981
f 251 999 1001
f 999 277 1000
f 1000 278 1001
f 999 1000 1001
f 251 1001 880
f 1001 278 1002
f 1002 249 880
f 1001 1002 880
f 249 1002 1004
f 1002 278 1003
f 1003 274 1004
f 1002 1003 1004
f 249 1004 943
f 1004 274 1005
f 1005 264 943
f 1004 1005 943
f 264 1005 1007
f 1005 274 1006
f 1006 279 1007
f 1005 1006 1007
f 264 1007 973
f 1007 279 1008
f 1008 268 973
f 1007 1008 973
f 268 1008 1010
f 1008 279 1009
f 1009 280 1010
f 1008 1009 1010
f 268 1010 985
f 1010 280 1011
f 1011 263 985
f 1010 1011 985
f 263 1011 1013
f 1011 280 1012
f 1012 281 1013
f 1011 1012 1013
f 263 1013 939
f 1013 281 1014
f 1014 260 939
f 1013 1014 939
f 260 1014 1016
f 1014 281 1015
f 1015 282 1016
f 1014 1015 1016
f 260 1016 935
f 1016 282 1017
f 1017 261 935
f 1016 1017 935
f 261 1017 1019
f 1017 282 1018
f 1018 283 1019
f 1017 1018 1019
f 261 1019 947
f 1019 283 1020
f 1020 267 947
f 1019 1020 947
f 267 1020 1022
f 1020 283 1021
f 1021 114 1022
f 1020 1021 1022
f 267 1022 988
f 1022 114 461
f 461 115 988
f 1022 461 988
f 280 1009 1024
f 1009 279 1023
f 1023 204 1024
f 1009 1023 1024
f 210 1025 1026
f 1025 277 997
f 997 276 1026
f 1025 997 1026
f 272 1027 1029
f 1027 173 1028
f 1028 270 1029
f 1027 1028 1029
f 272 1029 980
f 1029 270 978
f 978 271 980
f 1029 978 980
f 187 1030 660
f 1030 208 762
f 762 102 660
f 1030 762 660
f 279 1031 1032
f 1031 208 1030
f 1030 187 1032
f 1031 1030 1032
f 160 613 626
f 613 162 1033
f 1033 170 626
f 613 1033 626
f 162 1034 1033
f 1034 259 1035
f 1035 170 1033
f 1034 1035 1033
f 171 630 781
f 630 173 1036
f 1036 211 781
f 630 1036 781
f 211 1036 1037
f 1036 173 1027
f 1027 272 1037
f 1036 1027 1037
f 195 718 705
f 718 198 1038
f 1038 196 705
f 718 1038 705
f 196 1038 1040
f 1038 198 1039
f 1039 273 1040
f 1038 1039 1040
f 274 1003 990
f 1003 278 1041
f 1041 145 990
f 1003 1041 990
f 265 1042 1044
f 1042 64 1043
f 1043 250 1044
f 1042 1043 1044
f 265 1044 942
f 1044 250 878
f 878 249 942
f 1044 878 942
f 250 1045 1046
f 1045 211 1037
f 1037 272 1046
f 1045 1037 1046
f 250 1046 879
f 1046 272 979
f 979 251 879
f 1046 979 879
f 172 724 629
f 724 200 1047
f 1047 173 629
f 724 1047 629
f 200 1048 1047
f 1048 270 1028
f 1028 173 1047
f 1048 1028 1047
f 164 615 723
f 615 163 1049
f 1049 200 723
f 615 1049 723
f 163 1050 1049
f 1050 284 1051
f 1051 200 1049
f 1050 1051 1049
f 63 782 368
f 782 211 1052
f 1052 64 368
f 782 1052 368
f 64 1052 1043
f 1052 211 1045
f 1045 250 1043
f 1052 1045 1043
f 11 703 698
f 703 94 1053
f 1053 163 698
f 703 1053 698
f 163 1053 1050
f 1053 94 1054
f 1054 284 1050
f 1053 1054 1050
f 161 706 612
f 706 196 1055
f 1055 162 612
f 706 1055 612
f 162 1055 1057
f 1055 196 1056
f 1056 262 1057
f 1055 1056 1057
f 129 720 779
f 720 199 1058
f 1058 210 779
f 720 1058 779
f 277 1025 1059
f 1025 210 1058
f 1058 199 1059
f 1025 1058 1059
f 62 369 405
f 369 64 1060
f 1060 86 405
f 369 1060 405
f 86 1060 1061
f 1060 64 1042
f 1042 265 1061
f 1060 1042 1061
f 92 780 420
f 780 210 1062
f 1062 93 420
f 780 1062 420
f 276 1063 1026
f 1063 93 1062
f 1062 210 1026
f 1063 1062 1026
f 283 1018 1065
f 1018 282 1064
f 1064 203 1065
f 1018 1064 1065
f 15 406 717
f 406 86 1066
f 1066 198 717
f 406 1066 717
f 198 1066 1068
f 1066 86 1067
f 1067 269 1068
f 1066 1067 1068
f 200 1051 1048
f 1051 284 1069
f 1069 270 1048
f 1051 1069 1048
f 284 1070 1069
f 1070 258 976
f 976 270 1069
f 1070 976 1069
f 94 421 1072
f 421 93 1071
f 1071 256 1072
f 421 1071 1072
f 93 1073 1071
f 1073 275 1074
f 1074 256 1071
f 1073 1074 1071
f 278 1000 1075
f 1000 277 1059
f 1059 199 1075
f 1000 1059 1075
f 175 632 1076
f 632 169 627
f 627 170 1076
f 632 627 1076
f 177 1077 1079
f 1077 170 1078
f 1078 266 1079
f 1077 1078 1079
f 170 1077 1076
f 1077 177 639
f 639 175 1076
f 1077 639 1076
f 94 1072 1054
f 1072 256 1080
f 1080 284 1054
f 1072 1080 1054
f 284 1080 1070
f 1080 256 933
f 933 258 1070
f 1080 933 1070
f 145 1081 587
f 1081 199 721
f 721 146 587
f 1081 721 587
f 278 1075 1041
f 1075 199 1081
f 1081 145 1041
f 1075 1081 1041
f 282 1015 1083
f 1015 281 1082
f 1082 191 1083
f 1015 1082 1083
f 281 1012 1085
f 1012 280 1084
f 1084 181 1085
f 1012 1084 1085
f 26 1086 925
f 633 169 925
f 1086 633 925
f 174 1086 634
f 1086 26 1087
f 1087 176 634
f 1086 1087 634
f 176 1087 636
f 1087 26 861
f 861 110 636
f 1087 861 636
f 175 1088 632
f 1088 168 1089
f 1089 169 632
f 1088 1089 632
f 168 1088 1090
f 1088 175 639
f 639 177 1090
f 1088 639 1090
f 168 1090 1091
f 1090 177 640
f 640 109 1091
f 1090 640 1091
f 168 1091 623
f 1091 109 869
f 869 144 623
f 1091 869 623
f 203 1092 1093
f 1092 110 452
f 452 108 1093
f 1092 452 1093
f 110 1092 636
f 1092 203 737
f 737 176 636
f 1092 737 636
f 203 1094 1065
f 1094 112 1095
f 1095 283 1065
f 1094 1095 1065
f 112 1094 455
f 1094 203 1093
f 1093 108 455
f 1094 1093 455
f 109 1096 454
f 1096 266 1097
f 1097 111 454
f 1096 1097 454
f 266 1096 1079
f 1096 109 640
f 640 177 1079
f 1096 640 1079
f 112 459 1095
f 459 114 1021
f 1021 283 1095
f 459 1021 1095
f 190 738 684
f 738 203 1098
f 1098 191 684
f 738 1098 684
f 203 1064 1098
f 1064 282 1083
f 1083 191 1098
f 1064 1083 1098
f 204 1099 746
f 1099 187 664
f 664 156 746
f 1099 664 746
f 204 1023 1099
f 1023 279 1032
f 1032 187 1099
f 1023 1032 1099
f 269 1067 1100
f 1067 86 1061
f 1061 265 1100
f 1067 1061 1100
f 269 1100 972
f 1100 265 941
f 941 264 972
f 1100 941 972
f 262 1056 1101
f 1056 196 1040
f 1040 273 1101
f 1056 1040 1101
f 262 1101 938
f 1101 273 983
f 983 263 938
f 1101 983 938
f 279 1006 1031
f 1006 274 991
f 991 208 1031
f 1006 991 1031
f 162 1057 1034
f 1057 262 1102
f 1102 259 1034
f 1057 1102 1034
f 259 1102 934
f 1102 262 937
f 937 260 934
f 1102 937 934
f 256 1074 931
f 1074 275 993
f 993 257 931
f 1074 993 931
f 93 1063 1073
f 1063 276 995
f 995 275 1073
f 1063 995 1073
f 170 1035 1078
f 1035 259 1103
f 1103 266 1078
f 1035 1103 1078
f 266 1103 946
f 1103 259 936
f 936 261 946
f 1103 936 946
f 181 1104 646
f 1104 204 745
f 745 182 646
f 1104 745 646
f 181 1084 1104
f 1084 280 1024
f 1024 204 1104
f 1084 1024 1104
f 191 1105 685
f 1105 181 645
f 645 180 685
f 1105 645 685
f 191 1082 1105
f 1082 281 1085
f 1085 181 1105
f 1082 1085 1105
f 273 1039 1106
f 1039 198 1068
f 1068 269 1106
f 1039 1068 1106
f 273 1106 984
f 1106 269 971
f 971 268 984
f 1106 971 984
f 113 1107 987
f 1107 266 948
f 948 267 987
f 1107 948 987
f 266 1107 1097
f 1107 113 458
f 458 111 1097
f 1107 458 1097
