# Unified Preprocessed OBJ file from D00964.obj
# Applied remeshing: Yes
# Applied 4-step normalization: centering, PCA alignment, flipping, scaling
# Generated on 2025-09-29 15:19:02

v -0.119720 -0.000251 -0.022277
v -0.119660 -0.028789 -0.020872
v -0.134366 -0.027779 -0.019485
v -0.147763 -0.053425 -0.014227
v -0.119353 -0.055375 -0.016906
v -0.158998 -0.075440 -0.006861
v -0.118819 -0.078199 -0.010650
v -0.167306 -0.092325 0.002110
v -0.118097 -0.095703 -0.002530
v -0.172119 -0.102928 0.012075
v -0.117234 -0.106697 0.006900
v -0.116290 -0.110429 0.016997
v -0.173111 -0.106527 0.022356
v -0.148066 -0.024893 -0.018198
v -0.174230 -0.047849 -0.011740
v -0.196427 -0.067555 -0.003345
v -0.213146 -0.082668 0.006417
v -0.223248 -0.092157 0.016879
v -0.226043 -0.095376 0.027328
v -0.159826 -0.020327 -0.017098
v -0.196947 -0.039029 -0.009616
v -0.228555 -0.055082 -0.000341
v -0.252495 -0.067391 0.010096
v -0.267135 -0.075118 0.020982
v -0.271479 -0.077736 0.031576
v -0.168844 -0.014393 -0.016261
v -0.214369 -0.027565 -0.007999
v -0.253192 -0.038870 0.001946
v -0.282669 -0.047535 0.012896
v -0.300791 -0.052972 0.024106
v -0.306321 -0.054809 0.034810
v -0.174505 -0.007495 -0.015744
v -0.225306 -0.014239 -0.006999
v -0.268660 -0.020024 0.003360
v -0.301614 -0.024454 0.014628
v -0.321920 -0.027228 0.026038
v -0.328196 -0.028157 0.036810
v -0.176425 -0.000103 -0.015581
v -0.229014 0.000041 -0.006685
v -0.273905 0.000172 0.003805
v -0.308037 0.000280 0.015173
v -0.329084 0.000359 0.026645
v -0.335613 0.000404 0.037439
v -0.174472 0.007279 -0.015784
v -0.225241 0.014302 -0.007077
v -0.268568 0.020340 0.003250
v -0.301501 0.024981 0.014494
v -0.321795 0.027910 0.025888
v -0.328066 0.028926 0.036655
v -0.168779 0.014148 -0.016339
v -0.214243 0.027572 -0.008149
v -0.253015 0.039107 0.001734
v -0.282452 0.047967 0.012637
v -0.300548 0.053547 0.023816
v -0.306070 0.055467 0.034510
v -0.159734 0.020036 -0.017208
v -0.196770 0.038948 -0.009828
v -0.228304 0.055194 -0.000641
v -0.252187 0.067669 0.009728
v -0.266792 0.075522 0.020572
v -0.271124 0.078217 0.031152
v -0.147954 0.024542 -0.018332
v -0.174012 0.047653 -0.012000
v -0.196120 0.067505 -0.003712
v -0.212770 0.082746 0.005967
v -0.222828 0.092338 0.016377
v -0.225608 0.095627 0.026809
v -0.134241 0.027359 -0.019635
v -0.147521 0.053094 -0.014516
v -0.158655 0.075200 -0.007271
v -0.166886 0.092171 0.001608
v -0.171651 0.102850 0.011516
v -0.172626 0.106509 0.021776
v -0.119530 0.028294 -0.021027
v -0.119101 0.054900 -0.017206
v -0.118464 0.077755 -0.011074
v -0.117662 0.095300 -0.003050
v -0.116749 0.106340 0.006320
v -0.115787 0.110123 0.016397
v -0.112178 0.027303 -0.021719
v -0.105331 0.024434 -0.022359
v -0.091671 0.047444 -0.019778
v -0.104898 0.052986 -0.018543
v -0.079672 0.067210 -0.014712
v -0.098378 0.075047 -0.012965
v -0.070152 0.082385 -0.007506
v -0.093061 0.091983 -0.005365
v -0.063758 0.091935 0.001350
v -0.089310 0.102641 0.003737
v -0.087381 0.106293 0.013723
v -0.060927 0.095210 0.011252
v -0.099456 0.019884 -0.022902
v -0.080322 0.038652 -0.020828
v -0.063623 0.054777 -0.016197
v -0.050495 0.067158 -0.009325
v -0.041833 0.074952 -0.000678
v -0.038229 0.077627 0.009152
v -0.094954 0.013961 -0.023313
v -0.071625 0.027211 -0.021621
v -0.051322 0.038596 -0.017319
v -0.035430 0.047340 -0.010698
v -0.025031 0.052848 -0.002210
v -0.020834 0.054744 0.007566
v -0.092131 0.007070 -0.023562
v -0.066171 0.013899 -0.022103
v -0.043610 0.019770 -0.018000
v -0.025984 0.024283 -0.011533
v -0.014495 0.027131 -0.003141
v -0.009927 0.028120 0.006602
v -0.015380 0.041432 0.007084
v -0.091180 -0.000319 -0.023633
v -0.064333 -0.000377 -0.022241
v -0.041010 -0.000419 -0.018195
v -0.022801 -0.000443 -0.011771
v -0.010945 -0.000447 -0.003408
v -0.006251 -0.000431 0.006326
v -0.092165 -0.007704 -0.023522
v -0.066236 -0.014643 -0.022026
v -0.043702 -0.020594 -0.017890
v -0.026097 -0.025152 -0.011398
v -0.014621 -0.028007 -0.002991
v -0.010057 -0.028963 0.006757
v -0.095019 -0.014580 -0.023235
v -0.071750 -0.027927 -0.021471
v -0.051500 -0.039381 -0.017107
v -0.035647 -0.048161 -0.010438
v -0.025274 -0.053670 -0.001921
v -0.021085 -0.055532 0.007866
v -0.015571 -0.042248 0.007312
v -0.099548 -0.020480 -0.022792
v -0.080500 -0.039324 -0.020616
v -0.063874 -0.055499 -0.015897
v -0.050802 -0.067902 -0.008957
v -0.042177 -0.075688 -0.000269
v -0.038584 -0.078327 0.009576
v -0.105444 -0.025001 -0.022224
v -0.091889 -0.048058 -0.019518
v -0.079980 -0.067850 -0.014345
v -0.070528 -0.083029 -0.007056
v -0.064178 -0.092560 0.001852
v -0.061362 -0.095794 0.011772
v -0.112303 -0.027835 -0.021569
v -0.105141 -0.053533 -0.018253
v -0.098721 -0.075593 -0.012555
v -0.093481 -0.092512 -0.004864
v -0.089779 -0.103137 0.004297
v -0.087866 -0.106743 0.014303
v 0.278905 0.040820 0.028605
v 0.305539 -0.042926 0.026646
v 0.278715 -0.042859 0.028832
v 0.305730 0.040753 0.026418
v 0.252033 0.040885 0.030100
v 0.251843 -0.042794 0.030328
v 0.225132 0.040949 0.030904
v 0.224941 -0.042731 0.031132
v 0.198218 0.041010 0.031017
v 0.198028 -0.042669 0.031244
v 0.171311 0.041070 0.030436
v 0.171120 -0.042609 0.030664
v 0.144428 0.041128 0.029164
v 0.144237 -0.042552 0.029392
v 0.117395 -0.042496 0.027429
v 0.117586 0.041184 0.027202
v 0.090803 0.041237 0.024549
v 0.090612 -0.042442 0.024777
v 0.064097 0.041289 0.021208
v 0.063907 -0.042390 0.021436
v 0.037487 0.041339 0.017182
v 0.037296 -0.042341 0.017410
v 0.010798 -0.042293 0.012701
v 0.010988 0.041386 0.012473
v -0.009899 -0.028959 0.008428
v -0.005985 -0.000424 0.009137
v -0.009769 0.028124 0.008273
v 0.619859 -0.043723 -0.003046
v 0.631173 -0.042935 -0.004117
v 0.641858 -0.039117 -0.005136
v 0.588975 -0.022004 -0.000183
v 0.599584 -0.023830 -0.001180
v 0.651124 -0.032550 -0.006028
v 0.610724 -0.024159 -0.002232
v 0.579621 -0.018805 0.000693
v 0.572159 -0.014450 0.001387
v 0.567097 -0.009236 0.001852
v 0.564781 -0.003520 0.002056
v 0.565367 0.002311 0.001986
v 0.568817 0.007857 0.001647
v 0.574895 0.012742 0.001060
v 0.583187 0.016633 0.000267
v 0.593128 0.019264 -0.000679
v 0.604040 0.020455 -0.001712
v 0.651263 0.028625 -0.006194
v 0.642027 0.035238 -0.005338
v 0.631360 0.039111 -0.004340
v 0.620049 0.039956 -0.003274
v 0.658288 -0.023720 -0.006727
v 0.621636 -0.022967 -0.003266
v 0.662820 -0.013279 -0.007181
v 0.631576 -0.020336 -0.004212
v 0.639868 -0.016446 -0.005005
v 0.645946 -0.011561 -0.005591
v 0.664387 -0.001996 -0.007357
v 0.649396 -0.006014 -0.005931
v 0.649983 -0.000184 -0.006001
v 0.662872 0.009294 -0.007242
v 0.647666 0.005533 -0.005796
v 0.642604 0.010746 -0.005331
v 0.658387 0.019759 -0.006845
v 0.635142 0.015101 -0.004637
v 0.625788 0.018301 -0.003762
v 0.615180 0.020127 -0.002764
v -0.119690 -0.014520 -0.021574
v -0.127013 -0.028284 -0.020178
v -0.127043 -0.014015 -0.020881
v -0.133712 -0.041107 -0.017549
v -0.119506 -0.042082 -0.018889
v -0.133558 -0.054400 -0.015566
v -0.141065 -0.040602 -0.016856
v -0.139176 -0.065408 -0.011883
v -0.119086 -0.066787 -0.013778
v -0.138909 -0.076819 -0.008755
v -0.153381 -0.064432 -0.010544
v -0.143063 -0.085262 -0.004270
v -0.118458 -0.086951 -0.006590
v -0.142701 -0.094014 -0.000210
v -0.163152 -0.083882 -0.002375
v -0.145108 -0.099316 0.004773
v -0.117665 -0.101200 0.002185
v -0.144677 -0.104812 0.009488
v -0.169713 -0.097626 0.007093
v -0.144204 -0.106678 0.014536
v -0.144700 -0.108478 0.019676
v -0.172615 -0.104728 0.017215
v -0.116762 -0.108563 0.011949
v -0.141216 -0.026336 -0.018841
v -0.133893 -0.012572 -0.020237
v -0.154298 -0.037814 -0.015612
v -0.160996 -0.050637 -0.012983
v -0.161148 -0.036371 -0.014969
v -0.172095 -0.060490 -0.008786
v -0.177713 -0.071498 -0.005103
v -0.185328 -0.057702 -0.007542
v -0.186072 -0.079054 -0.000222
v -0.190226 -0.087496 0.004263
v -0.204787 -0.075111 0.001536
v -0.195277 -0.092241 0.009494
v -0.197684 -0.097542 0.014477
v -0.218197 -0.087412 0.011648
v -0.198180 -0.099342 0.019617
v -0.199577 -0.100952 0.024842
v -0.224646 -0.093767 0.022103
v -0.153946 -0.022610 -0.017648
v -0.139773 -0.010289 -0.019688
v -0.172507 -0.031961 -0.013907
v -0.185588 -0.043439 -0.010678
v -0.178387 -0.029678 -0.013357
v -0.201392 -0.051465 -0.006040
v -0.212491 -0.061318 -0.001843
v -0.212751 -0.047055 -0.004978
v -0.224461 -0.067473 0.003375
v -0.232821 -0.075029 0.008256
v -0.240525 -0.061236 0.004877
v -0.240141 -0.078893 0.013699
v -0.245192 -0.083637 0.018930
v -0.259815 -0.071254 0.015539
v -0.246589 -0.085247 0.024155
v -0.248761 -0.086556 0.029452
v -0.269307 -0.076427 0.026279
v -0.164335 -0.017360 -0.016680
v -0.144282 -0.007322 -0.019269
v -0.187097 -0.023946 -0.012549
v -0.205658 -0.033297 -0.008808
v -0.191606 -0.020979 -0.012130
v -0.225070 -0.038949 -0.003835
v -0.240874 -0.046976 0.000803
v -0.233780 -0.033218 -0.003026
v -0.255612 -0.051308 0.006278
v -0.267582 -0.057463 0.011496
v -0.267931 -0.043202 0.007421
v -0.276643 -0.060181 0.017101
v -0.283963 -0.064045 0.022544
v -0.291730 -0.050253 0.018501
v -0.286135 -0.065354 0.027841
v -0.288900 -0.066273 0.033193
v -0.303556 -0.053890 0.029458
v -0.171675 -0.010944 -0.016002
v -0.147113 -0.003873 -0.019010
v -0.197075 -0.014316 -0.011630
v -0.219837 -0.020902 -0.007499
v -0.199906 -0.010867 -0.011371
v -0.241514 -0.023795 -0.002319
v -0.260926 -0.029447 0.002653
v -0.246983 -0.017132 -0.001820
v -0.277403 -0.031662 0.008287
v -0.292141 -0.035995 0.013762
v -0.285137 -0.022239 0.008994
v -0.302295 -0.037382 0.019467
v -0.311355 -0.040100 0.025072
v -0.311767 -0.025841 0.020333
v -0.314121 -0.041018 0.030424
v -0.317259 -0.041483 0.035810
v -0.325058 -0.027692 0.031424
v -0.148073 -0.000177 -0.018929
v -0.175465 -0.003799 -0.015662
v -0.201760 -0.003727 -0.011214
v -0.227160 -0.007099 -0.006842
v -0.202720 -0.000031 -0.011133
v -0.249605 -0.007034 -0.001597
v -0.271283 -0.009926 0.003583
v -0.251460 0.000106 -0.001440
v -0.288349 -0.009872 0.009267
v -0.304825 -0.012087 0.014901
v -0.290971 0.000226 0.009489
v -0.315349 -0.012047 0.020637
v -0.325502 -0.013434 0.026341
v -0.318561 0.000320 0.020909
v -0.328640 -0.013899 0.031728
v -0.331905 -0.013877 0.037125
v -0.332349 0.000382 0.032042
v -0.147096 0.003514 -0.019030
v -0.175448 0.003588 -0.015682
v -0.200833 0.007099 -0.011329
v -0.227128 0.007171 -0.006881
v -0.199856 0.010791 -0.011430
v -0.248791 0.010190 -0.001717
v -0.271237 0.010256 0.003528
v -0.246905 0.017321 -0.001913
v -0.287703 0.012577 0.009149
v -0.304769 0.012631 0.014834
v -0.285035 0.022661 0.008872
v -0.314916 0.014095 0.020530
v -0.325440 0.014135 0.026266
v -0.311648 0.026446 0.020191
v -0.328704 0.014157 0.031663
v -0.331840 0.014665 0.037047
v -0.324931 0.028418 0.031271
v -0.144249 0.006949 -0.019308
v -0.171625 0.010714 -0.016061
v -0.197010 0.014225 -0.011708
v -0.219742 0.020937 -0.007613
v -0.191511 0.020860 -0.012244
v -0.241406 0.023956 -0.002449
v -0.260792 0.029724 0.002492
v -0.233629 0.033340 -0.003208
v -0.277258 0.032044 0.008114
v -0.291976 0.036474 0.013565
v -0.267733 0.043537 0.007185
v -0.302123 0.037938 0.019262
v -0.311171 0.040728 0.024852
v -0.291500 0.050757 0.018226
v -0.314307 0.041236 0.030236
v -0.317068 0.042197 0.035583
v -0.303309 0.054507 0.029163
v -0.139727 0.009893 -0.019743
v -0.164256 0.017092 -0.016773
v -0.186988 0.023804 -0.012679
v -0.205506 0.033260 -0.008989
v -0.178252 0.029492 -0.013518
v -0.224892 0.039027 -0.004047
v -0.240659 0.047151 0.000547
v -0.212537 0.047071 -0.005235
v -0.255378 0.051580 0.005998
v -0.267319 0.057818 0.011182
v -0.240245 0.061432 0.004544
v -0.276368 0.060608 0.016772
v -0.283670 0.064534 0.022194
v -0.259490 0.071595 0.015150
v -0.285836 0.065882 0.027484
v -0.288597 0.066842 0.032831
v -0.268958 0.076870 0.025862
v -0.133837 0.012146 -0.020305
v -0.153844 0.022289 -0.017770
v -0.172362 0.031745 -0.014080
v -0.185391 0.043300 -0.010914
v -0.160983 0.036097 -0.015166
v -0.201158 0.051423 -0.006320
v -0.212212 0.061349 -0.002176
v -0.185066 0.057579 -0.007856
v -0.224153 0.067587 0.003008
v -0.232478 0.075208 0.007847
v -0.204445 0.075125 0.001127
v -0.239781 0.079134 0.013269
v -0.244810 0.083930 0.018474
v -0.217799 0.087542 0.011172
v -0.246200 0.085574 0.023690
v -0.248366 0.086922 0.028980
v -0.224218 0.093983 0.021593
v -0.126981 0.013554 -0.020956
v -0.141097 0.025951 -0.018983
v -0.154126 0.037506 -0.015817
v -0.160766 0.050373 -0.013258
v -0.140881 0.040226 -0.017075
v -0.171820 0.060299 -0.009114
v -0.177387 0.071352 -0.005491
v -0.153088 0.064147 -0.010893
v -0.185712 0.078973 -0.000652
v -0.189828 0.087458 0.003787
v -0.162770 0.083685 -0.002831
v -0.194857 0.092254 0.008992
v -0.197239 0.097594 0.013946
v -0.169268 0.097510 0.006562
v -0.197727 0.099424 0.019076
v -0.199117 0.101068 0.024292
v -0.172138 0.104680 0.016646
v -0.119625 0.014022 -0.021652
v -0.126885 0.027827 -0.020331
v -0.133525 0.040694 -0.017772
v -0.133311 0.053997 -0.015861
v -0.119316 0.041597 -0.019116
v -0.138878 0.065050 -0.012238
v -0.138560 0.076477 -0.009172
v -0.118783 0.066328 -0.014140
v -0.142675 0.084963 -0.004733
v -0.142274 0.093735 -0.000721
v -0.118063 0.086527 -0.007062
v -0.144656 0.099075 0.004233
v -0.144200 0.104595 0.008918
v -0.117205 0.100820 0.001635
v -0.143719 0.106486 0.013956
v -0.144206 0.108316 0.019087
v -0.116268 0.108232 0.011359
v -0.115854 0.027799 -0.021373
v -0.115949 0.013526 -0.021998
v -0.108754 0.025869 -0.022039
v -0.112526 0.012092 -0.022318
v -0.101925 0.037373 -0.020749
v -0.098501 0.035939 -0.021068
v -0.108538 0.040144 -0.020131
v -0.098285 0.050215 -0.019160
v -0.092285 0.060098 -0.016627
v -0.085672 0.057327 -0.017245
v -0.101638 0.064016 -0.015754
v -0.089025 0.071128 -0.013838
v -0.084265 0.078716 -0.010235
v -0.074912 0.074797 -0.011109
v -0.095719 0.083515 -0.009165
v -0.081606 0.087184 -0.006436
v -0.078409 0.091959 -0.002008
v -0.066955 0.087160 -0.003078
v -0.091186 0.097312 -0.000814
v -0.076534 0.097288 0.002544
v -0.075569 0.099114 0.007537
v -0.088345 0.104467 0.008730
v -0.074154 0.100751 0.012488
v -0.062342 0.093572 0.006301
v -0.102394 0.022159 -0.022630
v -0.109588 0.009817 -0.022590
v -0.092827 0.031543 -0.021593
v -0.089889 0.029268 -0.021865
v -0.085997 0.043048 -0.020303
v -0.077647 0.051110 -0.017988
v -0.071972 0.046715 -0.018513
v -0.071647 0.060993 -0.015455
v -0.065083 0.067184 -0.012018
v -0.057059 0.060967 -0.012761
v -0.060323 0.074771 -0.008415
v -0.055992 0.078668 -0.004092
v -0.046164 0.071055 -0.005002
v -0.052796 0.083443 0.000336
v -0.051380 0.085081 0.005287
v -0.049578 0.086418 0.010202
v -0.040031 0.076289 0.004237
v -0.097205 0.016922 -0.023107
v -0.107337 0.006855 -0.022795
v -0.085541 0.023547 -0.022262
v -0.083289 0.020586 -0.022467
v -0.075974 0.032932 -0.021225
v -0.065822 0.038624 -0.019074
v -0.061474 0.032903 -0.019470
v -0.057472 0.046686 -0.016758
v -0.049526 0.051059 -0.013448
v -0.043376 0.042968 -0.014008
v -0.042962 0.057249 -0.010011
v -0.037763 0.060003 -0.005767
v -0.030230 0.050094 -0.006454
v -0.033432 0.063900 -0.001444
v -0.031630 0.065238 0.003471
v -0.029532 0.066186 0.008359
v -0.022932 0.053796 0.002678
v -0.093543 0.010516 -0.023437
v -0.105926 0.003410 -0.022920
v -0.080563 0.013930 -0.022708
v -0.079151 0.010485 -0.022833
v -0.068898 0.020555 -0.021862
v -0.057617 0.023490 -0.019811
v -0.054890 0.016834 -0.020052
v -0.047466 0.029183 -0.017660
v -0.038653 0.031440 -0.014426
v -0.034797 0.022026 -0.014766
v -0.030707 0.035812 -0.011115
v -0.024963 0.037236 -0.006920
v -0.020240 0.025707 -0.007337
v -0.019763 0.039990 -0.002676
v -0.017665 0.040938 0.002212
v -0.015380 0.041432 0.007084
v -0.012211 0.027625 0.001730
v -0.018107 0.048088 0.007325
v -0.012654 0.034776 0.006843
v -0.091655 0.003375 -0.023598
v -0.105450 -0.000285 -0.022955
v -0.078232 0.003347 -0.022902
v -0.077756 -0.000348 -0.022937
v -0.065252 0.006761 -0.022172
v -0.053971 0.009697 -0.020121
v -0.042310 0.009676 -0.018098
v -0.052672 -0.000398 -0.020218
v -0.033205 0.009664 -0.014886
v -0.031905 -0.000431 -0.014983
v -0.024392 0.011920 -0.011652
v -0.018464 0.011918 -0.007470
v -0.016873 -0.000445 -0.007590
v -0.012720 0.013342 -0.003274
v -0.010436 0.013836 0.001597
v -0.008089 0.013844 0.006464
v -0.008598 -0.000439 0.001459
v -0.091672 -0.004012 -0.023578
v -0.105943 -0.003977 -0.022900
v -0.078249 -0.004040 -0.022881
v -0.065285 -0.007510 -0.022133
v -0.079200 -0.011173 -0.022774
v -0.053623 -0.007531 -0.020110
v -0.042356 -0.010506 -0.018043
v -0.054969 -0.017618 -0.019958
v -0.033251 -0.010518 -0.014831
v -0.024449 -0.012798 -0.011585
v -0.034899 -0.022873 -0.014644
v -0.018521 -0.012800 -0.007403
v -0.012783 -0.014227 -0.003199
v -0.020359 -0.026580 -0.007195
v -0.010436 -0.014219 0.001668
v -0.008154 -0.014697 0.006542
v -0.012339 -0.028485 0.001883
v -0.093592 -0.011142 -0.023378
v -0.107370 -0.007416 -0.022756
v -0.080628 -0.014612 -0.022630
v -0.068993 -0.021285 -0.021748
v -0.083385 -0.021254 -0.022353
v -0.057726 -0.024260 -0.019681
v -0.047601 -0.029987 -0.017499
v -0.061625 -0.033654 -0.019289
v -0.038798 -0.032267 -0.014252
v -0.030872 -0.036657 -0.010918
v -0.043574 -0.043771 -0.013772
v -0.025134 -0.038084 -0.006715
v -0.019947 -0.040839 -0.002456
v -0.030461 -0.050916 -0.006179
v -0.017665 -0.041317 0.002418
v -0.015571 -0.042248 0.007312
v -0.023179 -0.054601 0.002973
v -0.012814 -0.035605 0.007034
v -0.018328 -0.048890 0.007589
v -0.097284 -0.017530 -0.023014
v -0.109634 -0.010365 -0.022535
v -0.085649 -0.024204 -0.022132
v -0.076125 -0.033626 -0.021044
v -0.090024 -0.029902 -0.021704
v -0.066000 -0.039353 -0.018861
v -0.057687 -0.047440 -0.016502
v -0.072187 -0.047412 -0.018257
v -0.049761 -0.051830 -0.013168
v -0.043225 -0.058032 -0.009698
v -0.057338 -0.061701 -0.012427
v -0.038038 -0.060786 -0.005439
v -0.033725 -0.064679 -0.001095
v -0.046489 -0.071795 -0.004613
v -0.031631 -0.065610 0.003799
v -0.029835 -0.066929 0.008721
v -0.040381 -0.077007 0.004654
v -0.102496 -0.022741 -0.022508
v -0.112582 -0.012626 -0.022251
v -0.092972 -0.032163 -0.021420
v -0.086194 -0.043691 -0.020067
v -0.098666 -0.036529 -0.020871
v -0.077881 -0.051779 -0.017708
v -0.071927 -0.061675 -0.015121
v -0.085934 -0.057954 -0.016932
v -0.065391 -0.067876 -0.011651
v -0.060665 -0.075466 -0.008006
v -0.075254 -0.075440 -0.010700
v -0.056352 -0.079359 -0.003662
v -0.053177 -0.084124 0.000792
v -0.067353 -0.087795 -0.002602
v -0.051769 -0.085741 0.005752
v -0.062770 -0.094177 0.006812
v -0.049973 -0.087060 0.010674
v -0.108873 -0.026418 -0.021896
v -0.116012 -0.014043 -0.021923
v -0.102096 -0.037946 -0.020544
v -0.098515 -0.050795 -0.018886
v -0.108722 -0.040684 -0.019911
v -0.092560 -0.060692 -0.016299
v -0.089350 -0.071722 -0.013450
v -0.101931 -0.064563 -0.015404
v -0.084625 -0.079311 -0.009805
v -0.082005 -0.087770 -0.005960
v -0.096101 -0.084052 -0.008709
v -0.078830 -0.092536 -0.001506
v -0.076978 -0.097848 0.003075
v -0.091630 -0.097824 -0.000283
v -0.076022 -0.099652 0.008078
v -0.088822 -0.104940 0.009300
v -0.074614 -0.101269 0.013037
v -0.115982 -0.028312 -0.021220
v -0.112214 0.040640 -0.019785
v -0.112000 0.053943 -0.017874
v -0.108740 0.064974 -0.015085
v -0.108421 0.076401 -0.012019
v -0.105763 0.084869 -0.008220
v -0.105361 0.093642 -0.004208
v -0.103486 0.098970 0.000344
v -0.103029 0.104491 0.005029
v -0.102065 0.106317 0.010022
v -0.101584 0.108208 0.015060
v -0.112400 -0.041161 -0.019562
v -0.112247 -0.054454 -0.017579
v -0.109037 -0.065484 -0.014730
v -0.108770 -0.076896 -0.011602
v -0.106150 -0.085355 -0.007757
v -0.105789 -0.094108 -0.003697
v -0.103938 -0.099420 0.000884
v -0.103506 -0.104917 0.005598
v -0.103034 -0.106783 0.010647
v -0.102078 -0.108586 0.015650
v 0.292222 -0.001053 0.027625
v 0.292127 -0.042893 0.027739
v 0.278810 -0.001020 0.028718
v 0.292318 0.040787 0.027511
v 0.305635 -0.001087 0.026532
v 0.265374 -0.000987 0.029466
v 0.265279 -0.042827 0.029580
v 0.251938 -0.000954 0.030214
v 0.265469 0.040853 0.029352
v 0.238487 -0.000923 0.030616
v 0.238392 -0.042762 0.030730
v 0.225037 -0.000891 0.031018
v 0.238583 0.040917 0.030502
v 0.211580 -0.000860 0.031074
v 0.211485 -0.042700 0.031188
v 0.198123 -0.000829 0.031130
v 0.211675 0.040980 0.030961
v 0.184669 -0.000799 0.030840
v 0.184574 -0.042639 0.030954
v 0.171216 -0.000770 0.030550
v 0.184765 0.041040 0.030726
v 0.157774 -0.000741 0.029914
v 0.157679 -0.042580 0.030028
v 0.144332 -0.000712 0.029278
v 0.157869 0.041099 0.029800
v 0.130911 -0.000684 0.028297
v 0.130816 -0.042524 0.028411
v 0.117490 -0.000656 0.027315
v 0.131007 0.041156 0.028183
v 0.104099 -0.000629 0.025989
v 0.104004 -0.042469 0.026103
v 0.090708 -0.000602 0.024663
v 0.104194 0.041211 0.025875
v 0.077355 -0.000576 0.022993
v 0.077260 -0.042416 0.023106
v 0.064002 -0.000550 0.021322
v 0.077450 0.041263 0.022879
v 0.050697 -0.000526 0.019309
v 0.050601 -0.042365 0.019423
v 0.037391 -0.000501 0.017296
v 0.050792 0.041314 0.019195
v 0.024142 -0.000477 0.014942
v 0.024047 -0.042317 0.015055
v 0.010893 -0.000453 0.012587
v 0.024237 0.041363 0.014828
v 0.000449 -0.035626 0.010565
v 0.000545 0.006214 0.010451
v -0.002387 -0.042270 0.010006
v -0.012735 -0.035603 0.007870
v -0.007942 -0.014692 0.008783
v 0.002501 0.020481 0.010805
v -0.007877 0.013850 0.008705
v 0.000610 0.034755 0.010373
v -0.012575 0.034778 0.007679
v -0.002196 0.041409 0.009779
v -0.009978 -0.028961 0.007593
v -0.008075 -0.014695 0.007377
v -0.006118 -0.000428 0.007732
v -0.007956 0.013848 0.007870
v -0.009848 0.028122 0.007438
v 0.462794 -0.001485 0.011686
v 0.462699 -0.043325 0.011800
v 0.468451 -0.001091 0.011151
v 0.625516 -0.043329 -0.003581
v 0.473794 0.000818 0.010641
v 0.636515 -0.041026 -0.004626
v 0.447353 0.009374 0.013118
v 0.615417 -0.030561 -0.002659
v 0.594280 -0.022917 -0.000682
v 0.620721 -0.031474 -0.003158
v 0.625354 -0.028190 -0.003604
v 0.646491 -0.035834 -0.005582
v 0.605154 -0.023995 -0.001706
v 0.630924 -0.028355 -0.004130
v 0.442676 0.010974 0.013556
v 0.584298 -0.020404 0.000255
v 0.438945 0.013152 0.013903
v 0.575890 -0.016627 0.001040
v 0.436414 0.015758 0.014135
v 0.569628 -0.011843 0.001619
v 0.435255 0.018617 0.014237
v 0.565939 -0.006378 0.001954
v 0.435549 0.021532 0.014202
v 0.565074 -0.000604 0.002021
v 0.437274 0.024305 0.014032
v 0.567092 0.005084 0.001817
v 0.440313 0.026748 0.013739
v 0.571856 0.010300 0.001353
v 0.444459 0.028693 0.013343
v 0.579041 0.014688 0.000664
v 0.449429 0.030008 0.012870
v 0.588158 0.017948 -0.000206
v 0.454885 0.030604 0.012353
v 0.598584 0.019860 -0.001195
v 0.478497 0.034689 0.010112
v 0.627652 0.024540 -0.003953
v 0.473879 0.037996 0.010540
v 0.646645 0.031932 -0.005766
v 0.468545 0.039932 0.011039
v 0.636693 0.037175 -0.004839
v 0.462890 0.040355 0.011572
v 0.625705 0.039534 -0.003807
v 0.634506 -0.023940 -0.004479
v 0.654706 -0.028135 -0.006377
v 0.616180 -0.023563 -0.002749
v 0.639962 -0.023344 -0.004996
v 0.642228 -0.018123 -0.005223
v 0.660554 -0.018499 -0.006954
v 0.626606 -0.021652 -0.003739
v 0.647198 -0.016807 -0.005696
v 0.635722 -0.018391 -0.004608
v 0.651344 -0.014862 -0.006093
v 0.642907 -0.014003 -0.005298
v 0.654383 -0.012420 -0.006386
v 0.655166 -0.006778 -0.006474
v 0.663603 -0.007637 -0.007269
v 0.647671 -0.008787 -0.005761
v 0.656891 -0.004005 -0.006644
v 0.649689 -0.003099 -0.005966
v 0.657185 -0.001090 -0.006679
v 0.656427 0.004555 -0.006622
v 0.663629 0.003649 -0.007300
v 0.648824 0.002675 -0.005899
v 0.655269 0.007414 -0.006519
v 0.645135 0.008140 -0.005564
v 0.652738 0.010020 -0.006287
v 0.650496 0.015253 -0.006088
v 0.660629 0.014526 -0.007044
v 0.638873 0.012924 -0.004984
v 0.646764 0.017430 -0.005741
v 0.630465 0.016701 -0.004199
v 0.642087 0.019030 -0.005303
v 0.620484 0.019214 -0.003263
v 0.636783 0.019943 -0.004804
v 0.633221 0.024376 -0.004479
v 0.654825 0.024192 -0.006519
v 0.609610 0.020291 -0.002238
f 1 212 214
f 212 2 213
f 213 3 214
f 212 213 214
f 4 215 217
f 215 2 216
f 216 5 217
f 215 216 217
f 2 215 213
f 215 4 218
f 218 3 213
f 215 218 213
f 6 219 221
f 219 5 220
f 220 7 221
f 219 220 221
f 5 219 217
f 219 6 222
f 222 4 217
f 219 222 217
f 8 223 225
f 223 7 224
f 224 9 225
f 223 224 225
f 7 223 221
f 223 8 226
f 226 6 221
f 223 226 221
f 10 227 229
f 227 9 228
f 228 11 229
f 227 228 229
f 9 227 225
f 227 10 230
f 230 8 225
f 227 230 225
f 10 231 233
f 231 12 232
f 232 13 233
f 231 232 233
f 12 231 234
f 231 10 229
f 229 11 234
f 231 229 234
f 1 214 236
f 214 3 235
f 235 14 236
f 214 235 236
f 15 237 238
f 237 3 218
f 218 4 238
f 237 218 238
f 3 237 235
f 237 15 239
f 239 14 235
f 237 239 235
f 16 240 241
f 240 4 222
f 222 6 241
f 240 222 241
f 4 240 238
f 240 16 242
f 242 15 238
f 240 242 238
f 17 243 244
f 243 6 226
f 226 8 244
f 243 226 244
f 6 243 241
f 243 17 245
f 245 16 241
f 243 245 241
f 18 246 247
f 246 8 230
f 230 10 247
f 246 230 247
f 8 246 244
f 246 18 248
f 248 17 244
f 246 248 244
f 18 249 251
f 249 13 250
f 250 19 251
f 249 250 251
f 13 249 233
f 249 18 247
f 247 10 233
f 249 247 233
f 1 236 253
f 236 14 252
f 252 20 253
f 236 252 253
f 21 254 255
f 254 14 239
f 239 15 255
f 254 239 255
f 14 254 252
f 254 21 256
f 256 20 252
f 254 256 252
f 22 257 258
f 257 15 242
f 242 16 258
f 257 242 258
f 15 257 255
f 257 22 259
f 259 21 255
f 257 259 255
f 23 260 261
f 260 16 245
f 245 17 261
f 260 245 261
f 16 260 258
f 260 23 262
f 262 22 258
f 260 262 258
f 24 263 264
f 263 17 248
f 248 18 264
f 263 248 264
f 17 263 261
f 263 24 265
f 265 23 261
f 263 265 261
f 24 266 268
f 266 19 267
f 267 25 268
f 266 267 268
f 19 266 251
f 266 24 264
f 264 18 251
f 266 264 251
f 1 253 270
f 253 20 269
f 269 26 270
f 253 269 270
f 27 271 272
f 271 20 256
f 256 21 272
f 271 256 272
f 20 271 269
f 271 27 273
f 273 26 269
f 271 273 269
f 28 274 275
f 274 21 259
f 259 22 275
f 274 259 275
f 21 274 272
f 274 28 276
f 276 27 272
f 274 276 272
f 29 277 278
f 277 22 262
f 262 23 278
f 277 262 278
f 22 277 275
f 277 29 279
f 279 28 275
f 277 279 275
f 30 280 281
f 280 23 265
f 265 24 281
f 280 265 281
f 23 280 278
f 280 30 282
f 282 29 278
f 280 282 278
f 30 283 285
f 283 25 284
f 284 31 285
f 283 284 285
f 25 283 268
f 283 30 281
f 281 24 268
f 283 281 268
f 1 270 287
f 270 26 286
f 286 32 287
f 270 286 287
f 33 288 289
f 288 26 273
f 273 27 289
f 288 273 289
f 26 288 286
f 288 33 290
f 290 32 286
f 288 290 286
f 34 291 292
f 291 27 276
f 276 28 292
f 291 276 292
f 27 291 289
f 291 34 293
f 293 33 289
f 291 293 289
f 35 294 295
f 294 28 279
f 279 29 295
f 294 279 295
f 28 294 292
f 294 35 296
f 296 34 292
f 294 296 292
f 36 297 298
f 297 29 282
f 282 30 298
f 297 282 298
f 29 297 295
f 297 36 299
f 299 35 295
f 297 299 295
f 31 300 285
f 300 36 298
f 298 30 285
f 300 298 285
f 36 300 302
f 300 31 301
f 301 37 302
f 300 301 302
f 38 303 304
f 303 1 287
f 287 32 304
f 303 287 304
f 39 305 306
f 305 32 290
f 290 33 306
f 305 290 306
f 32 305 304
f 305 39 307
f 307 38 304
f 305 307 304
f 40 308 309
f 308 33 293
f 293 34 309
f 308 293 309
f 33 308 306
f 308 40 310
f 310 39 306
f 308 310 306
f 41 311 312
f 311 34 296
f 296 35 312
f 311 296 312
f 34 311 309
f 311 41 313
f 313 40 309
f 311 313 309
f 42 314 315
f 314 35 299
f 299 36 315
f 314 299 315
f 35 314 312
f 314 42 316
f 316 41 312
f 314 316 312
f 37 317 302
f 317 42 315
f 315 36 302
f 317 315 302
f 42 317 319
f 317 37 318
f 318 43 319
f 317 318 319
f 44 320 321
f 320 1 303
f 303 38 321
f 320 303 321
f 45 322 323
f 322 38 307
f 307 39 323
f 322 307 323
f 38 322 321
f 322 45 324
f 324 44 321
f 322 324 321
f 46 325 326
f 325 39 310
f 310 40 326
f 325 310 326
f 39 325 323
f 325 46 327
f 327 45 323
f 325 327 323
f 47 328 329
f 328 40 313
f 313 41 329
f 328 313 329
f 40 328 326
f 328 47 330
f 330 46 326
f 328 330 326
f 48 331 332
f 331 41 316
f 316 42 332
f 331 316 332
f 41 331 329
f 331 48 333
f 333 47 329
f 331 333 329
f 43 334 319
f 334 48 332
f 332 42 319
f 334 332 319
f 48 334 336
f 334 43 335
f 335 49 336
f 334 335 336
f 50 337 338
f 337 1 320
f 320 44 338
f 337 320 338
f 45 339 324
f 339 50 338
f 338 44 324
f 339 338 324
f 50 339 341
f 339 45 340
f 340 51 341
f 339 340 341
f 46 342 327
f 342 51 340
f 340 45 327
f 342 340 327
f 51 342 344
f 342 46 343
f 343 52 344
f 342 343 344
f 47 345 330
f 345 52 343
f 343 46 330
f 345 343 330
f 52 345 347
f 345 47 346
f 346 53 347
f 345 346 347
f 48 348 333
f 348 53 346
f 346 47 333
f 348 346 333
f 53 348 350
f 348 48 349
f 349 54 350
f 348 349 350
f 49 351 336
f 351 54 349
f 349 48 336
f 351 349 336
f 54 351 353
f 351 49 352
f 352 55 353
f 351 352 353
f 56 354 355
f 354 1 337
f 337 50 355
f 354 337 355
f 51 356 341
f 356 56 355
f 355 50 341
f 356 355 341
f 56 356 358
f 356 51 357
f 357 57 358
f 356 357 358
f 52 359 344
f 359 57 357
f 357 51 344
f 359 357 344
f 57 359 361
f 359 52 360
f 360 58 361
f 359 360 361
f 53 362 347
f 362 58 360
f 360 52 347
f 362 360 347
f 58 362 364
f 362 53 363
f 363 59 364
f 362 363 364
f 54 365 350
f 365 59 363
f 363 53 350
f 365 363 350
f 59 365 367
f 365 54 366
f 366 60 367
f 365 366 367
f 61 368 369
f 368 54 353
f 353 55 369
f 368 353 369
f 54 368 366
f 368 61 370
f 370 60 366
f 368 370 366
f 62 371 372
f 371 1 354
f 354 56 372
f 371 354 372
f 57 373 358
f 373 62 372
f 372 56 358
f 373 372 358
f 62 373 375
f 373 57 374
f 374 63 375
f 373 374 375
f 58 376 361
f 376 63 374
f 374 57 361
f 376 374 361
f 63 376 378
f 376 58 377
f 377 64 378
f 376 377 378
f 59 379 364
f 379 64 377
f 377 58 364
f 379 377 364
f 64 379 381
f 379 59 380
f 380 65 381
f 379 380 381
f 60 382 367
f 382 65 380
f 380 59 367
f 382 380 367
f 65 382 384
f 382 60 383
f 383 66 384
f 382 383 384
f 67 385 386
f 385 60 370
f 370 61 386
f 385 370 386
f 60 385 383
f 385 67 387
f 387 66 383
f 385 387 383
f 68 388 389
f 388 1 371
f 371 62 389
f 388 371 389
f 63 390 375
f 390 68 389
f 389 62 375
f 390 389 375
f 68 390 392
f 390 63 391
f 391 69 392
f 390 391 392
f 64 393 378
f 393 69 391
f 391 63 378
f 393 391 378
f 69 393 395
f 393 64 394
f 394 70 395
f 393 394 395
f 65 396 381
f 396 70 394
f 394 64 381
f 396 394 381
f 70 396 398
f 396 65 397
f 397 71 398
f 396 397 398
f 66 399 384
f 399 71 397
f 397 65 384
f 399 397 384
f 71 399 401
f 399 66 400
f 400 72 401
f 399 400 401
f 73 402 403
f 402 66 387
f 387 67 403
f 402 387 403
f 66 402 400
f 402 73 404
f 404 72 400
f 402 404 400
f 74 405 406
f 405 1 388
f 388 68 406
f 405 388 406
f 69 407 392
f 407 74 406
f 406 68 392
f 407 406 392
f 74 407 409
f 407 69 408
f 408 75 409
f 407 408 409
f 70 410 395
f 410 75 408
f 408 69 395
f 410 408 395
f 75 410 412
f 410 70 411
f 411 76 412
f 410 411 412
f 71 413 398
f 413 76 411
f 411 70 398
f 413 411 398
f 76 413 415
f 413 71 414
f 414 77 415
f 413 414 415
f 72 416 401
f 416 77 414
f 414 71 401
f 416 414 401
f 77 416 418
f 416 72 417
f 417 78 418
f 416 417 418
f 79 419 420
f 419 72 404
f 404 73 420
f 419 404 420
f 72 419 417
f 419 79 421
f 421 78 417
f 419 421 417
f 74 422 405
f 422 80 423
f 423 1 405
f 422 423 405
f 80 424 423
f 424 81 425
f 425 1 423
f 424 425 423
f 80 426 424
f 426 82 427
f 427 81 424
f 426 427 424
f 82 426 429
f 426 80 428
f 428 83 429
f 426 428 429
f 83 430 429
f 430 84 431
f 431 82 429
f 430 431 429
f 84 430 433
f 430 83 432
f 432 85 433
f 430 432 433
f 85 434 433
f 434 86 435
f 435 84 433
f 434 435 433
f 86 434 437
f 434 85 436
f 436 87 437
f 434 436 437
f 87 438 437
f 438 88 439
f 439 86 437
f 438 439 437
f 88 438 441
f 438 87 440
f 440 89 441
f 438 440 441
f 90 442 443
f 442 88 441
f 441 89 443
f 442 441 443
f 88 442 445
f 442 90 444
f 444 91 445
f 442 444 445
f 81 446 425
f 446 92 447
f 447 1 425
f 446 447 425
f 81 448 446
f 448 93 449
f 449 92 446
f 448 449 446
f 93 448 450
f 448 81 427
f 427 82 450
f 448 427 450
f 82 451 450
f 451 94 452
f 452 93 450
f 451 452 450
f 94 451 453
f 451 82 431
f 431 84 453
f 451 431 453
f 84 454 453
f 454 95 455
f 455 94 453
f 454 455 453
f 95 454 456
f 454 84 435
f 435 86 456
f 454 435 456
f 86 457 456
f 457 96 458
f 458 95 456
f 457 458 456
f 96 457 459
f 457 86 439
f 439 88 459
f 457 439 459
f 91 460 445
f 460 96 459
f 459 88 445
f 460 459 445
f 96 460 462
f 460 91 461
f 461 97 462
f 460 461 462
f 92 463 447
f 463 98 464
f 464 1 447
f 463 464 447
f 92 465 463
f 465 99 466
f 466 98 463
f 465 466 463
f 99 465 467
f 465 92 449
f 449 93 467
f 465 449 467
f 93 468 467
f 468 100 469
f 469 99 467
f 468 469 467
f 100 468 470
f 468 93 452
f 452 94 470
f 468 452 470
f 94 471 470
f 471 101 472
f 472 100 470
f 471 472 470
f 101 471 473
f 471 94 455
f 455 95 473
f 471 455 473
f 95 474 473
f 474 102 475
f 475 101 473
f 474 475 473
f 102 474 476
f 474 95 458
f 458 96 476
f 474 458 476
f 97 477 462
f 477 102 476
f 476 96 462
f 477 476 462
f 102 477 479
f 477 97 478
f 478 103 479
f 477 478 479
f 98 480 464
f 480 104 481
f 481 1 464
f 480 481 464
f 98 482 480
f 482 105 483
f 483 104 480
f 482 483 480
f 105 482 484
f 482 98 466
f 466 99 484
f 482 466 484
f 99 485 484
f 485 106 486
f 486 105 484
f 485 486 484
f 106 485 487
f 485 99 469
f 469 100 487
f 485 469 487
f 100 488 487
f 488 107 489
f 489 106 487
f 488 489 487
f 107 488 490
f 488 100 472
f 472 101 490
f 488 472 490
f 101 491 490
f 491 108 492
f 492 107 490
f 491 492 490
f 108 491 493
f 491 101 475
f 475 102 493
f 491 475 493
f 103 494 479
f 494 108 493
f 493 102 479
f 494 493 479
f 108 494 496
f 494 103 495
f 495 109 496
f 494 495 496
f 109 495 498
f 495 103 497
f 497 110 498
f 495 497 498
f 104 499 481
f 499 111 500
f 500 1 481
f 499 500 481
f 104 501 499
f 501 112 502
f 502 111 499
f 501 502 499
f 112 501 503
f 501 104 483
f 483 105 503
f 501 483 503
f 112 504 506
f 504 106 505
f 505 113 506
f 504 505 506
f 106 504 486
f 504 112 503
f 503 105 486
f 504 503 486
f 106 507 505
f 507 114 508
f 508 113 505
f 507 508 505
f 114 507 509
f 507 106 489
f 489 107 509
f 507 489 509
f 107 510 509
f 510 115 511
f 511 114 509
f 510 511 509
f 115 510 512
f 510 107 492
f 492 108 512
f 510 492 512
f 109 513 496
f 513 115 512
f 512 108 496
f 513 512 496
f 115 513 515
f 513 109 514
f 514 116 515
f 513 514 515
f 111 516 500
f 516 117 517
f 517 1 500
f 516 517 500
f 117 518 520
f 518 112 519
f 519 118 520
f 518 519 520
f 112 518 502
f 518 117 516
f 516 111 502
f 518 516 502
f 118 521 523
f 521 113 522
f 522 119 523
f 521 522 523
f 113 521 506
f 521 118 519
f 519 112 506
f 521 519 506
f 119 524 526
f 524 114 525
f 525 120 526
f 524 525 526
f 114 524 508
f 524 119 522
f 522 113 508
f 524 522 508
f 120 527 529
f 527 115 528
f 528 121 529
f 527 528 529
f 115 527 511
f 527 120 525
f 525 114 511
f 527 525 511
f 116 530 515
f 530 121 528
f 528 115 515
f 530 528 515
f 121 530 532
f 530 116 531
f 531 122 532
f 530 531 532
f 1 517 534
f 517 117 533
f 533 123 534
f 517 533 534
f 123 535 537
f 535 118 536
f 536 124 537
f 535 536 537
f 118 535 520
f 535 123 533
f 533 117 520
f 535 533 520
f 124 538 540
f 538 119 539
f 539 125 540
f 538 539 540
f 119 538 523
f 538 124 536
f 536 118 523
f 538 536 523
f 125 541 543
f 541 120 542
f 542 126 543
f 541 542 543
f 120 541 526
f 541 125 539
f 539 119 526
f 541 539 526
f 126 544 546
f 544 121 545
f 545 127 546
f 544 545 546
f 121 544 529
f 544 126 542
f 542 120 529
f 544 542 529
f 122 547 532
f 547 127 545
f 545 121 532
f 547 545 532
f 127 547 549
f 547 122 548
f 548 128 549
f 547 548 549
f 128 548 551
f 548 122 550
f 550 129 551
f 548 550 551
f 1 534 553
f 534 123 552
f 552 130 553
f 534 552 553
f 130 554 556
f 554 124 555
f 555 131 556
f 554 555 556
f 124 554 537
f 554 130 552
f 552 123 537
f 554 552 537
f 131 557 559
f 557 125 558
f 558 132 559
f 557 558 559
f 125 557 540
f 557 131 555
f 555 124 540
f 557 555 540
f 132 560 562
f 560 126 561
f 561 133 562
f 560 561 562
f 126 560 543
f 560 132 558
f 558 125 543
f 560 558 543
f 133 563 565
f 563 127 564
f 564 134 565
f 563 564 565
f 127 563 546
f 563 133 561
f 561 126 546
f 563 561 546
f 128 566 549
f 566 134 564
f 564 127 549
f 566 564 549
f 134 566 568
f 566 128 567
f 567 135 568
f 566 567 568
f 1 553 570
f 553 130 569
f 569 136 570
f 553 569 570
f 136 571 573
f 571 131 572
f 572 137 573
f 571 572 573
f 131 571 556
f 571 136 569
f 569 130 556
f 571 569 556
f 137 574 576
f 574 132 575
f 575 138 576
f 574 575 576
f 132 574 559
f 574 137 572
f 572 131 559
f 574 572 559
f 138 577 579
f 577 133 578
f 578 139 579
f 577 578 579
f 133 577 562
f 577 138 575
f 575 132 562
f 577 575 562
f 139 580 582
f 580 134 581
f 581 140 582
f 580 581 582
f 134 580 565
f 580 139 578
f 578 133 565
f 580 578 565
f 134 583 581
f 583 141 584
f 584 140 581
f 583 584 581
f 141 583 585
f 583 134 568
f 568 135 585
f 583 568 585
f 1 570 587
f 570 136 586
f 586 142 587
f 570 586 587
f 142 588 590
f 588 137 589
f 589 143 590
f 588 589 590
f 137 588 573
f 588 142 586
f 586 136 573
f 588 586 573
f 143 591 593
f 591 138 592
f 592 144 593
f 591 592 593
f 138 591 576
f 591 143 589
f 589 137 576
f 591 589 576
f 144 594 596
f 594 139 595
f 595 145 596
f 594 595 596
f 139 594 579
f 594 144 592
f 592 138 579
f 594 592 579
f 145 597 599
f 597 140 598
f 598 146 599
f 597 598 599
f 140 597 582
f 597 145 595
f 595 139 582
f 597 595 582
f 140 600 598
f 600 147 601
f 601 146 598
f 600 601 598
f 147 600 602
f 600 140 584
f 584 141 602
f 600 584 602
f 1 587 212
f 587 142 603
f 603 2 212
f 587 603 212
f 74 604 422
f 604 83 428
f 428 80 422
f 604 428 422
f 83 604 605
f 604 74 409
f 409 75 605
f 604 409 605
f 75 606 605
f 606 85 432
f 432 83 605
f 606 432 605
f 85 606 607
f 606 75 412
f 412 76 607
f 606 412 607
f 76 608 607
f 608 87 436
f 436 85 607
f 608 436 607
f 87 608 609
f 608 76 415
f 415 77 609
f 608 415 609
f 77 610 609
f 610 89 440
f 440 87 609
f 610 440 609
f 89 610 611
f 610 77 418
f 418 78 611
f 610 418 611
f 90 612 613
f 612 78 421
f 421 79 613
f 612 421 613
f 78 612 611
f 612 90 443
f 443 89 611
f 612 443 611
f 2 614 216
f 614 143 615
f 615 5 216
f 614 615 216
f 143 614 590
f 614 2 603
f 603 142 590
f 614 603 590
f 5 616 220
f 616 144 617
f 617 7 220
f 616 617 220
f 144 616 593
f 616 5 615
f 615 143 593
f 616 615 593
f 7 618 224
f 618 145 619
f 619 9 224
f 618 619 224
f 145 618 596
f 618 7 617
f 617 144 596
f 618 617 596
f 9 620 228
f 620 146 621
f 621 11 228
f 620 621 228
f 146 620 599
f 620 9 619
f 619 145 599
f 620 619 599
f 146 622 621
f 622 12 234
f 234 11 621
f 622 234 621
f 12 622 623
f 622 146 601
f 601 147 623
f 622 601 623
f 148 624 626
f 624 149 625
f 625 150 626
f 624 625 626
f 149 624 628
f 624 148 627
f 627 151 628
f 624 627 628
f 152 629 631
f 629 150 630
f 630 153 631
f 629 630 631
f 150 629 626
f 629 152 632
f 632 148 626
f 629 632 626
f 154 633 635
f 633 153 634
f 634 155 635
f 633 634 635
f 153 633 631
f 633 154 636
f 636 152 631
f 633 636 631
f 156 637 639
f 637 155 638
f 638 157 639
f 637 638 639
f 155 637 635
f 637 156 640
f 640 154 635
f 637 640 635
f 158 641 643
f 641 157 642
f 642 159 643
f 641 642 643
f 157 641 639
f 641 158 644
f 644 156 639
f 641 644 639
f 160 645 647
f 645 159 646
f 646 161 647
f 645 646 647
f 159 645 643
f 645 160 648
f 648 158 643
f 645 648 643
f 162 649 650
f 649 160 647
f 647 161 650
f 649 647 650
f 160 649 652
f 649 162 651
f 651 163 652
f 649 651 652
f 164 653 655
f 653 162 654
f 654 165 655
f 653 654 655
f 162 653 651
f 653 164 656
f 656 163 651
f 653 656 651
f 166 657 659
f 657 165 658
f 658 167 659
f 657 658 659
f 165 657 655
f 657 166 660
f 660 164 655
f 657 660 655
f 168 661 663
f 661 167 662
f 662 169 663
f 661 662 663
f 167 661 659
f 661 168 664
f 664 166 659
f 661 664 659
f 170 665 666
f 665 168 663
f 663 169 666
f 665 663 666
f 168 665 668
f 665 170 667
f 667 171 668
f 665 667 668
f 170 669 667
f 669 172 670
f 670 171 667
f 669 670 667
f 172 669 672
f 669 170 671
f 671 129 672
f 669 671 672
f 171 670 674
f 670 172 673
f 673 173 674
f 670 673 674
f 171 674 676
f 674 173 675
f 675 174 676
f 674 675 676
f 171 676 678
f 676 174 677
f 677 110 678
f 676 677 678
f 172 679 672
f 679 122 550
f 550 129 672
f 679 550 672
f 172 680 679
f 680 116 531
f 531 122 679
f 680 531 679
f 116 680 681
f 680 172 673
f 673 173 681
f 680 673 681
f 173 682 681
f 682 109 514
f 514 116 681
f 682 514 681
f 109 682 683
f 682 173 675
f 675 174 683
f 682 675 683
f 174 677 683
f 677 110 498
f 498 109 683
f 677 498 683
f 151 684 628
f 684 175 685
f 685 149 628
f 684 685 628
f 175 684 687
f 684 151 686
f 686 176 687
f 684 686 687
f 176 686 689
f 686 151 688
f 688 177 689
f 686 688 689
f 177 688 691
f 688 151 690
f 690 178 691
f 688 690 691
f 177 691 693
f 691 178 692
f 692 179 693
f 691 692 693
f 177 693 695
f 693 179 694
f 694 180 695
f 693 694 695
f 180 694 697
f 694 179 696
f 696 181 697
f 694 696 697
f 178 690 699
f 690 151 698
f 698 182 699
f 690 698 699
f 182 698 701
f 698 151 700
f 700 183 701
f 698 700 701
f 183 700 703
f 700 151 702
f 702 184 703
f 700 702 703
f 184 702 705
f 702 151 704
f 704 185 705
f 702 704 705
f 185 704 707
f 704 151 706
f 706 186 707
f 704 706 707
f 186 706 709
f 706 151 708
f 708 187 709
f 706 708 709
f 187 708 711
f 708 151 710
f 710 188 711
f 708 710 711
f 188 710 713
f 710 151 712
f 712 189 713
f 710 712 713
f 189 712 715
f 712 151 714
f 714 190 715
f 712 714 715
f 190 714 717
f 714 151 716
f 716 191 717
f 714 716 717
f 191 716 719
f 716 151 718
f 718 192 719
f 716 718 719
f 192 718 721
f 718 151 720
f 720 193 721
f 718 720 721
f 193 720 723
f 720 151 722
f 722 194 723
f 720 722 723
f 194 722 725
f 722 151 724
f 724 195 725
f 722 724 725
f 181 726 697
f 726 196 727
f 727 180 697
f 726 727 697
f 196 726 729
f 726 181 728
f 728 197 729
f 726 728 729
f 196 729 731
f 729 197 730
f 730 198 731
f 729 730 731
f 198 730 733
f 730 197 732
f 732 199 733
f 730 732 733
f 198 733 735
f 733 199 734
f 734 200 735
f 733 734 735
f 198 735 737
f 735 200 736
f 736 201 737
f 735 736 737
f 198 737 739
f 737 201 738
f 738 202 739
f 737 738 739
f 202 738 741
f 738 201 740
f 740 203 741
f 738 740 741
f 202 741 743
f 741 203 742
f 742 204 743
f 741 742 743
f 202 743 745
f 743 204 744
f 744 205 745
f 743 744 745
f 205 744 747
f 744 204 746
f 746 206 747
f 744 746 747
f 205 747 749
f 747 206 748
f 748 207 749
f 747 748 749
f 205 749 751
f 749 207 750
f 750 208 751
f 749 750 751
f 208 750 753
f 750 207 752
f 752 209 753
f 750 752 753
f 208 753 755
f 753 209 754
f 754 210 755
f 753 754 755
f 208 755 757
f 755 210 756
f 756 211 757
f 755 756 757
f 208 757 759
f 757 211 758
f 758 192 759
f 757 758 759
f 192 758 719
f 758 211 760
f 760 191 719
f 758 760 719
