# Unified Preprocessed OBJ file from m747.obj
# Applied remeshing: Yes
# Applied 4-step normalization: centering, PCA alignment, flipping, scaling
# Generated on 2025-09-29 15:22:10

v -0.022878 0.381090 0.069503
v -0.040197 0.495846 0.070101
v -0.039858 0.496600 -0.064757
v -0.022540 0.381844 -0.065354
v 0.052561 0.377295 0.069672
v 0.052900 0.378048 -0.065186
v 0.081306 0.489733 0.070372
v 0.081645 0.490486 -0.064486
v 0.153726 0.471503 0.070452
v 0.154065 0.472256 -0.064405
v 0.125810 0.358856 0.069753
v 0.126149 0.359609 -0.065105
v 0.194055 0.326481 0.069743
v 0.194394 0.327234 -0.065114
v 0.263641 0.419361 0.070437
v 0.263980 0.420115 -0.064421
v 0.323572 0.374803 0.070339
v 0.323911 0.375556 -0.064519
v 0.254674 0.281414 0.069644
v 0.255012 0.282167 -0.065214
v 0.305335 0.225387 0.069458
v 0.305673 0.226140 -0.065400
v 0.405168 0.284566 0.070039
v 0.405507 0.285319 -0.064818
v 0.443486 0.220467 0.069778
v 0.443824 0.221220 -0.065080
v 0.344091 0.160553 0.069193
v 0.344430 0.161307 -0.065665
v 0.369455 0.089405 0.068859
v 0.369794 0.090159 -0.065998
v 0.484336 0.105875 0.069240
v 0.484675 0.106629 -0.065618
v 0.495209 0.031993 0.068854
v 0.495548 0.032746 -0.066003
v 0.380451 0.014676 0.068469
v 0.380790 0.015429 -0.066388
v 0.376657 -0.060763 0.068038
v 0.376996 -0.060009 -0.066819
v 0.489097 -0.089509 0.068160
v 0.489436 -0.088756 -0.066698
v 0.470868 -0.161928 0.067710
v 0.471206 -0.161174 -0.067148
v 0.358219 -0.134010 0.067583
v 0.358557 -0.133257 -0.067275
v 0.325844 -0.202254 0.067120
v 0.326183 -0.201501 -0.067738
v 0.418727 -0.271841 0.066965
v 0.419066 -0.271087 -0.067893
v 0.374169 -0.331771 0.066518
v 0.374508 -0.331017 -0.068340
v 0.280778 -0.262871 0.066668
v 0.281116 -0.262118 -0.068190
v 0.224750 -0.313530 0.066244
v 0.225089 -0.312776 -0.068613
v 0.283932 -0.413364 0.065835
v 0.284271 -0.412611 -0.069023
v 0.219833 -0.451680 0.065460
v 0.220171 -0.450927 -0.069398
v 0.159917 -0.352286 0.065865
v 0.160256 -0.351532 -0.068993
v 0.088768 -0.377648 0.065544
v 0.089107 -0.376895 -0.069313
v 0.105240 -0.492529 0.064944
v 0.105579 -0.491775 -0.069914
v 0.031357 -0.503400 0.064697
v 0.031696 -0.502646 -0.070160
v 0.014038 -0.388644 0.065295
v 0.014377 -0.387890 -0.069563
v -0.061401 -0.384848 0.065127
v -0.061063 -0.384095 -0.069731
v -0.090147 -0.497286 0.064426
v -0.089808 -0.496533 -0.070431
v -0.162567 -0.479056 0.064346
v -0.162228 -0.478303 -0.070512
v -0.134650 -0.366409 0.065046
v -0.134312 -0.365656 -0.069812
v -0.202896 -0.334033 0.065055
v -0.202557 -0.333280 -0.069803
v -0.272482 -0.426915 0.064361
v -0.272143 -0.426161 -0.070496
v -0.332413 -0.382356 0.064460
v -0.332074 -0.381603 -0.070398
v -0.263514 -0.288967 0.065155
v -0.263175 -0.288214 -0.069703
v -0.314174 -0.232940 0.065340
v -0.313835 -0.232187 -0.069517
v -0.414009 -0.292119 0.064759
v -0.413670 -0.291366 -0.070099
v -0.452326 -0.228021 0.065021
v -0.451987 -0.227268 -0.069837
v -0.352931 -0.168107 0.065605
v -0.352593 -0.167353 -0.069252
v -0.378295 -0.096959 0.065939
v -0.377956 -0.096205 -0.068919
v -0.493177 -0.113429 0.065558
v -0.492838 -0.112675 -0.069299
v -0.504049 -0.039546 0.065944
v -0.503710 -0.038793 -0.068914
v -0.389292 -0.022229 0.066329
v -0.388953 -0.021476 -0.068529
v -0.385497 0.053209 0.066760
v -0.385158 0.053963 -0.068098
v -0.497937 0.081956 0.066638
v -0.497598 0.082709 -0.068219
v -0.479708 0.154374 0.067089
v -0.479369 0.155128 -0.067769
v -0.367059 0.126457 0.067216
v -0.366720 0.127210 -0.067642
v -0.334684 0.194701 0.067678
v -0.334345 0.195454 -0.067179
v -0.427567 0.264287 0.067834
v -0.427229 0.265041 -0.067024
v -0.383009 0.324217 0.068281
v -0.382670 0.324971 -0.066577
v -0.289618 0.255318 0.068130
v -0.289279 0.256071 -0.066727
v -0.233591 0.305977 0.068554
v -0.233252 0.306731 -0.066304
v -0.292772 0.405811 0.068963
v -0.292433 0.406564 -0.065894
v -0.228674 0.444126 0.069338
v -0.228335 0.444880 -0.065519
v -0.168757 0.344732 0.068934
v -0.168418 0.345486 -0.065924
v -0.097609 0.370095 0.069254
v -0.097270 0.370848 -0.065604
v -0.114080 0.484975 0.069855
v -0.113742 0.485729 -0.065003
v -0.031538 0.438468 0.069802
v -0.040028 0.496223 0.002672
v -0.031368 0.438845 0.002373
v -0.031199 0.439222 -0.065056
v -0.022709 0.381467 0.002074
v 0.014841 0.379193 0.069587
v 0.015011 0.379569 0.002159
v 0.015180 0.379946 -0.065270
v 0.052731 0.377672 0.002243
v 0.066934 0.433514 0.070022
v 0.067103 0.433891 0.002593
v 0.067273 0.434267 -0.064836
v 0.081476 0.490109 0.002943
v 0.117516 0.480618 0.070412
v 0.117686 0.480995 0.002983
v 0.117855 0.481371 -0.064446
v 0.153896 0.471880 0.003023
v 0.139768 0.415179 0.070102
v 0.139938 0.415556 0.002674
v 0.140107 0.415933 -0.064755
v 0.125979 0.359232 0.002324
v 0.159933 0.342668 0.069748
v 0.160102 0.343045 0.002319
v 0.160272 0.343422 -0.065110
v 0.194225 0.326858 0.002314
v 0.228848 0.372921 0.070090
v 0.229018 0.373298 0.002661
v 0.229187 0.373675 -0.064768
v 0.263811 0.419738 0.003008
v 0.293607 0.397082 0.070388
v 0.293776 0.397459 0.002959
v 0.293946 0.397836 -0.064470
v 0.323742 0.375180 0.002910
v 0.289123 0.328108 0.069991
v 0.289292 0.328485 0.002562
v 0.289462 0.328862 -0.064866
v 0.254843 0.281791 0.002215
v 0.280004 0.253400 0.069551
v 0.280173 0.253777 0.002122
v 0.280343 0.254154 -0.065307
v 0.305504 0.225763 0.002029
v 0.355251 0.254976 0.069749
v 0.355421 0.255353 0.002320
v 0.355590 0.255730 -0.065109
v 0.405338 0.284943 0.002611
v 0.424327 0.252516 0.069909
v 0.424496 0.252893 0.002480
v 0.424666 0.253270 -0.064949
v 0.443655 0.220844 0.002349
v 0.393788 0.190510 0.069485
v 0.393958 0.190887 0.002056
v 0.394127 0.191264 -0.065372
v 0.344261 0.160930 0.001764
v 0.356773 0.124979 0.069026
v 0.356942 0.125356 0.001597
v 0.357112 0.125733 -0.065832
v 0.369624 0.089782 0.001430
v 0.426896 0.097640 0.069050
v 0.427065 0.098017 0.001621
v 0.427234 0.098394 -0.065808
v 0.484506 0.106252 0.001811
v 0.489773 0.068934 0.069047
v 0.489942 0.069311 0.001618
v 0.490111 0.069688 -0.065811
v 0.495378 0.032369 0.001426
v 0.437830 0.023334 0.068662
v 0.438000 0.023711 0.001233
v 0.438169 0.024088 -0.066196
v 0.380621 0.015053 0.001040
v 0.378554 -0.023043 0.068254
v 0.378724 -0.022667 0.000825
v 0.378893 -0.022290 -0.066604
v 0.376826 -0.060386 0.000609
v 0.432877 -0.075136 0.068099
v 0.433046 -0.074759 0.000670
v 0.433216 -0.074382 -0.066758
v 0.489266 -0.089132 0.000731
v 0.479982 -0.125719 0.067935
v 0.480152 -0.125342 0.000506
v 0.480321 -0.124965 -0.066923
v 0.471037 -0.161551 0.000281
v 0.414543 -0.147969 0.067646
v 0.414712 -0.147592 0.000217
v 0.414882 -0.147216 -0.067212
v 0.358388 -0.133634 0.000154
v 0.342031 -0.168132 0.067351
v 0.342201 -0.167756 -0.000078
v 0.342370 -0.167379 -0.067506
v 0.326014 -0.201878 -0.000309
v 0.372286 -0.237048 0.067042
v 0.372455 -0.236671 -0.000387
v 0.372625 -0.236294 -0.067815
v 0.418897 -0.271464 -0.000464
v 0.396448 -0.301806 0.066741
v 0.396617 -0.301429 -0.000688
v 0.396787 -0.301052 -0.068117
v 0.374338 -0.331394 -0.000911
v 0.327473 -0.297321 0.066593
v 0.327643 -0.296944 -0.000836
v 0.327812 -0.296567 -0.068265
v 0.280947 -0.262494 -0.000761
v 0.252764 -0.288200 0.066456
v 0.252933 -0.287824 -0.000973
v 0.253103 -0.287447 -0.068402
v 0.224920 -0.313153 -0.001185
v 0.254341 -0.363447 0.066040
v 0.254511 -0.363070 -0.001389
v 0.254680 -0.362693 -0.068818
v 0.284101 -0.412988 -0.001594
v 0.251882 -0.432522 0.065647
v 0.252052 -0.432145 -0.001781
v 0.252221 -0.431769 -0.069210
v 0.220002 -0.451303 -0.001969
v 0.189875 -0.401983 0.065662
v 0.190044 -0.401606 -0.001767
v 0.190213 -0.401229 -0.069195
v 0.160086 -0.351909 -0.001564
v 0.124343 -0.364967 0.065704
v 0.124512 -0.364590 -0.001724
v 0.124681 -0.364214 -0.069153
v 0.088938 -0.377272 -0.001885
v 0.097004 -0.435089 0.065244
v 0.097174 -0.434712 -0.002185
v 0.097343 -0.434335 -0.069614
v 0.105410 -0.492152 -0.002485
v 0.068299 -0.497964 0.064821
v 0.068468 -0.497588 -0.002608
v 0.068637 -0.497211 -0.070037
v 0.031526 -0.503023 -0.002732
v 0.022698 -0.446022 0.064996
v 0.022867 -0.445645 -0.002433
v 0.023036 -0.445268 -0.069861
v 0.014208 -0.388267 -0.002134
v -0.023682 -0.386746 0.065211
v -0.023512 -0.386369 -0.002218
v -0.023343 -0.385993 -0.069647
v -0.061232 -0.384472 -0.002302
v -0.075774 -0.441067 0.064776
v -0.075605 -0.440691 -0.002652
v -0.075435 -0.440314 -0.070081
v -0.089977 -0.496909 -0.003003
v -0.126357 -0.488171 0.064386
v -0.126187 -0.487794 -0.003043
v -0.126018 -0.487418 -0.070472
v -0.162397 -0.478680 -0.003083
v -0.148608 -0.422733 0.064696
v -0.148439 -0.422356 -0.002733
v -0.148270 -0.421979 -0.070162
v -0.134481 -0.366032 -0.002383
v -0.168773 -0.350221 0.065050
v -0.168604 -0.349844 -0.002378
v -0.168434 -0.349468 -0.069807
v -0.202726 -0.333657 -0.002374
v -0.237689 -0.380474 0.064708
v -0.237519 -0.380097 -0.002721
v -0.237350 -0.379721 -0.070149
v -0.272312 -0.426538 -0.003068
v -0.302447 -0.404636 0.064410
v -0.302278 -0.404259 -0.003018
v -0.302108 -0.403882 -0.070447
v -0.332243 -0.381980 -0.002969
v -0.297963 -0.335662 0.064807
v -0.297794 -0.335285 -0.002622
v -0.297624 -0.334908 -0.070051
v -0.263344 -0.288591 -0.002274
v -0.288844 -0.260954 0.065247
v -0.288674 -0.260577 -0.002181
v -0.288505 -0.260200 -0.069610
v -0.314004 -0.232563 -0.002088
v -0.364091 -0.262530 0.065050
v -0.363922 -0.262153 -0.002379
v -0.363752 -0.261776 -0.069808
v -0.413839 -0.291743 -0.002670
v -0.433167 -0.260070 0.064890
v -0.432998 -0.259694 -0.002539
v -0.432828 -0.259317 -0.069968
v -0.452156 -0.227645 -0.002408
v -0.402629 -0.198064 0.065313
v -0.402459 -0.197687 -0.002116
v -0.402290 -0.197311 -0.069545
v -0.352762 -0.167730 -0.001824
v -0.365613 -0.132533 0.065772
v -0.365444 -0.132156 -0.001657
v -0.365274 -0.131779 -0.069085
v -0.378126 -0.096582 -0.001490
v -0.435736 -0.105194 0.065749
v -0.435566 -0.104817 -0.001680
v -0.435397 -0.104440 -0.069109
v -0.493007 -0.113052 -0.001870
v -0.498613 -0.076488 0.065751
v -0.498443 -0.076111 -0.001678
v -0.498274 -0.075734 -0.069107
v -0.503880 -0.039169 -0.001485
v -0.446670 -0.030888 0.066136
v -0.446501 -0.030511 -0.001292
v -0.446332 -0.030134 -0.068721
v -0.389122 -0.021853 -0.001100
v -0.387395 0.015490 0.066545
v -0.387225 0.015867 -0.000884
v -0.387056 0.016243 -0.068313
v -0.385328 0.053586 -0.000669
v -0.441717 0.067582 0.066699
v -0.441548 0.067959 -0.000730
v -0.441378 0.068336 -0.068159
v -0.497768 0.082332 -0.000791
v -0.488822 0.118165 0.066863
v -0.488653 0.118542 -0.000565
v -0.488484 0.118919 -0.067994
v -0.479538 0.154751 -0.000340
v -0.423383 0.140416 0.067152
v -0.423214 0.140792 -0.000277
v -0.423044 0.141169 -0.067706
v -0.366889 0.126834 -0.000213
v -0.350871 0.160579 0.067447
v -0.350702 0.160956 0.000018
v -0.350532 0.161332 -0.067411
v -0.334514 0.195078 0.000250
v -0.381125 0.229494 0.067756
v -0.380956 0.229871 0.000327
v -0.380787 0.230248 -0.067102
v -0.427398 0.264664 0.000405
v -0.405288 0.294252 0.068057
v -0.405119 0.294629 0.000628
v -0.404949 0.295006 -0.066800
v -0.382840 0.324594 0.000852
v -0.336314 0.289767 0.068205
v -0.336144 0.290144 0.000777
v -0.335975 0.290521 -0.066652
v -0.289448 0.255694 0.000701
v -0.261604 0.280647 0.068342
v -0.261435 0.281024 0.000913
v -0.261265 0.281401 -0.066515
v -0.233421 0.306354 0.001125
v -0.263181 0.355894 0.068759
v -0.263012 0.356271 0.001330
v -0.262843 0.356648 -0.066099
v -0.292603 0.406188 0.001534
v -0.260723 0.424969 0.069151
v -0.260554 0.425345 0.001722
v -0.260384 0.425722 -0.065707
v -0.228505 0.444503 0.001910
v -0.198715 0.394429 0.069136
v -0.198546 0.394806 0.001707
v -0.198377 0.395183 -0.065722
v -0.168588 0.345109 0.001505
v -0.133183 0.357414 0.069094
v -0.133013 0.357790 0.001665
v -0.132844 0.358167 -0.065764
v -0.097439 0.370472 0.001825
v -0.105845 0.427535 0.069554
v -0.105675 0.427912 0.002125
v -0.105506 0.428289 -0.065303
v -0.113911 0.485352 0.002426
v -0.077139 0.490411 0.069978
v -0.076969 0.490788 0.002549
v -0.076800 0.491164 -0.064880
v 0.432671 0.061453 -0.066001
v -0.432159 0.104960 -0.067931
v -0.112060 -0.431094 -0.070122
v 0.060401 -0.439771 -0.069737
v -0.440833 -0.067499 -0.068916
v 0.424101 -0.110592 -0.066984
v -0.068564 0.433724 -0.065180
v -0.267659 -0.357188 -0.070100
v 0.350091 -0.266603 -0.068041
v 0.259496 0.351141 -0.064817
v -0.230794 0.375805 -0.065911
v -0.382911 -0.229727 -0.069677
v 0.103483 0.425152 -0.064796
v -0.358254 0.260556 -0.066876
v 0.222630 -0.381851 -0.069006
v 0.374749 0.223680 -0.065240
v 0.367777 -0.096633 -0.067047
v -0.059905 0.376346 -0.065479
v 0.375292 0.052794 -0.066193
v 0.051742 -0.382393 -0.069438
v -0.383455 -0.058841 -0.068724
v 0.089524 0.368829 -0.065146
v -0.375939 0.090587 -0.067870
v -0.097687 -0.374875 -0.069771
v -0.200835 0.326108 -0.066114
v -0.333214 -0.199770 -0.069385
v 0.192672 -0.332154 -0.068803
v 0.325052 0.193723 -0.065532
v -0.311812 0.225763 -0.066953
v -0.232866 -0.310747 -0.069753
v 0.303650 -0.231809 -0.067964
v 0.224703 0.304701 -0.065164
v 0.369674 -0.058914 -0.066832
v 0.364176 -0.021549 -0.066637
v 0.351494 0.014025 -0.066470
v 0.335307 -0.020097 -0.066701
v 0.312773 -0.050406 -0.066927
v 0.293395 -0.017989 -0.066795
v 0.268064 0.010025 -0.066702
v 0.240051 -0.015304 -0.066914
v 0.207634 -0.034683 -0.067103
v 0.172060 -0.047364 -0.067264
v 0.134695 -0.052861 -0.067388
v 0.096975 -0.050964 -0.067472
v 0.060350 -0.041744 -0.067513
v 0.026228 -0.025556 -0.067508
v -0.004081 -0.003023 -0.067459
v -0.029411 0.024990 -0.067366
v -0.048790 0.057407 -0.067233
v -0.061472 0.092981 -0.067066
v -0.066970 0.130346 -0.066871
v -0.065073 0.168065 -0.066656
v -0.055854 0.204689 -0.066428
v -0.039666 0.238811 -0.066197
v -0.069975 0.261344 -0.066147
v -0.104098 0.277532 -0.066142
v -0.140722 0.286751 -0.066183
v -0.178442 0.288649 -0.066267
v -0.155909 0.318958 -0.066041
v -0.193274 0.313460 -0.066165
v -0.228849 0.300779 -0.066326
v 0.432332 0.060699 0.068857
v -0.112399 -0.431848 0.064736
v -0.432498 0.104206 0.066927
v 0.060063 -0.440524 0.065121
v -0.441172 -0.068253 0.065941
v 0.423762 -0.111345 0.067874
v -0.068903 0.432971 0.069678
v 0.259157 0.350388 0.070040
v 0.349752 -0.267356 0.066816
v -0.267998 -0.357941 0.064758
v -0.383250 -0.230481 0.065181
v -0.231132 0.375052 0.068946
v 0.103144 0.424399 0.070062
v -0.358593 0.259803 0.067982
v 0.374410 0.222927 0.069618
v 0.222292 -0.382605 0.065852
v 0.367438 -0.097387 0.067810
v -0.060244 0.375593 0.069379
v 0.374953 0.052041 0.068664
v 0.051403 -0.383146 0.065420
v -0.383793 -0.059594 0.066134
v 0.089186 0.368075 0.069712
v -0.098026 -0.375629 0.065086
v -0.376278 0.089833 0.066988
v 0.324713 0.192970 0.069325
v 0.192334 -0.332908 0.066054
v -0.333553 -0.200523 0.065473
v -0.201174 0.325355 0.068744
v 0.224364 0.303947 0.069693
v 0.303311 -0.232563 0.066894
v -0.233205 -0.311500 0.065105
v -0.312151 0.225009 0.067904
v 0.369335 -0.059667 0.068026
v 0.363837 -0.022303 0.068221
v 0.351155 0.013271 0.068388
v 0.331777 0.045688 0.068520
v 0.306446 0.073702 0.068613
v 0.290259 0.039580 0.068382
v 0.267726 0.009271 0.068156
v 0.237416 0.031805 0.068206
v 0.203294 0.047992 0.068210
v 0.166669 0.057212 0.068170
v 0.128950 0.059110 0.068086
v 0.091584 0.053612 0.067961
v 0.056010 0.040931 0.067801
v 0.023593 0.021553 0.067611
v -0.004420 -0.003777 0.067399
v -0.032434 -0.029106 0.067187
v -0.064851 -0.048484 0.066998
v -0.100425 -0.061165 0.066837
v -0.137790 -0.066663 0.066713
v -0.175510 -0.064765 0.066628
v -0.212134 -0.055546 0.066588
v -0.246257 -0.039358 0.066593
v -0.268790 -0.069666 0.066367
v -0.284977 -0.103788 0.066135
v -0.294196 -0.140412 0.065908
v -0.296094 -0.178131 0.065692
v -0.326403 -0.155598 0.065742
v -0.320904 -0.192963 0.065547
v -0.308223 -0.228537 0.065380
f 1 129 131
f 129 2 130
f 130 3 131
f 129 130 131
f 3 132 131
f 132 4 133
f 133 1 131
f 132 133 131
f 5 134 135
f 134 1 133
f 133 4 135
f 134 133 135
f 4 136 135
f 136 6 137
f 137 5 135
f 136 137 135
f 7 138 139
f 138 5 137
f 137 6 139
f 138 137 139
f 6 140 139
f 140 8 141
f 141 7 139
f 140 141 139
f 9 142 143
f 142 7 141
f 141 8 143
f 142 141 143
f 8 144 143
f 144 10 145
f 145 9 143
f 144 145 143
f 11 146 147
f 146 9 145
f 145 10 147
f 146 145 147
f 10 148 147
f 148 12 149
f 149 11 147
f 148 149 147
f 13 150 151
f 150 11 149
f 149 12 151
f 150 149 151
f 12 152 151
f 152 14 153
f 153 13 151
f 152 153 151
f 15 154 155
f 154 13 153
f 153 14 155
f 154 153 155
f 14 156 155
f 156 16 157
f 157 15 155
f 156 157 155
f 17 158 159
f 158 15 157
f 157 16 159
f 158 157 159
f 16 160 159
f 160 18 161
f 161 17 159
f 160 161 159
f 19 162 163
f 162 17 161
f 161 18 163
f 162 161 163
f 18 164 163
f 164 20 165
f 165 19 163
f 164 165 163
f 21 166 167
f 166 19 165
f 165 20 167
f 166 165 167
f 20 168 167
f 168 22 169
f 169 21 167
f 168 169 167
f 23 170 171
f 170 21 169
f 169 22 171
f 170 169 171
f 22 172 171
f 172 24 173
f 173 23 171
f 172 173 171
f 25 174 175
f 174 23 173
f 173 24 175
f 174 173 175
f 24 176 175
f 176 26 177
f 177 25 175
f 176 177 175
f 27 178 179
f 178 25 177
f 177 26 179
f 178 177 179
f 26 180 179
f 180 28 181
f 181 27 179
f 180 181 179
f 29 182 183
f 182 27 181
f 181 28 183
f 182 181 183
f 28 184 183
f 184 30 185
f 185 29 183
f 184 185 183
f 31 186 187
f 186 29 185
f 185 30 187
f 186 185 187
f 30 188 187
f 188 32 189
f 189 31 187
f 188 189 187
f 33 190 191
f 190 31 189
f 189 32 191
f 190 189 191
f 32 192 191
f 192 34 193
f 193 33 191
f 192 193 191
f 35 194 195
f 194 33 193
f 193 34 195
f 194 193 195
f 34 196 195
f 196 36 197
f 197 35 195
f 196 197 195
f 37 198 199
f 198 35 197
f 197 36 199
f 198 197 199
f 36 200 199
f 200 38 201
f 201 37 199
f 200 201 199
f 39 202 203
f 202 37 201
f 201 38 203
f 202 201 203
f 38 204 203
f 204 40 205
f 205 39 203
f 204 205 203
f 41 206 207
f 206 39 205
f 205 40 207
f 206 205 207
f 40 208 207
f 208 42 209
f 209 41 207
f 208 209 207
f 43 210 211
f 210 41 209
f 209 42 211
f 210 209 211
f 42 212 211
f 212 44 213
f 213 43 211
f 212 213 211
f 45 214 215
f 214 43 213
f 213 44 215
f 214 213 215
f 44 216 215
f 216 46 217
f 217 45 215
f 216 217 215
f 47 218 219
f 218 45 217
f 217 46 219
f 218 217 219
f 46 220 219
f 220 48 221
f 221 47 219
f 220 221 219
f 49 222 223
f 222 47 221
f 221 48 223
f 222 221 223
f 48 224 223
f 224 50 225
f 225 49 223
f 224 225 223
f 51 226 227
f 226 49 225
f 225 50 227
f 226 225 227
f 50 228 227
f 228 52 229
f 229 51 227
f 228 229 227
f 53 230 231
f 230 51 229
f 229 52 231
f 230 229 231
f 52 232 231
f 232 54 233
f 233 53 231
f 232 233 231
f 55 234 235
f 234 53 233
f 233 54 235
f 234 233 235
f 54 236 235
f 236 56 237
f 237 55 235
f 236 237 235
f 57 238 239
f 238 55 237
f 237 56 239
f 238 237 239
f 56 240 239
f 240 58 241
f 241 57 239
f 240 241 239
f 59 242 243
f 242 57 241
f 241 58 243
f 242 241 243
f 58 244 243
f 244 60 245
f 245 59 243
f 244 245 243
f 61 246 247
f 246 59 245
f 245 60 247
f 246 245 247
f 60 248 247
f 248 62 249
f 249 61 247
f 248 249 247
f 63 250 251
f 250 61 249
f 249 62 251
f 250 249 251
f 62 252 251
f 252 64 253
f 253 63 251
f 252 253 251
f 65 254 255
f 254 63 253
f 253 64 255
f 254 253 255
f 64 256 255
f 256 66 257
f 257 65 255
f 256 257 255
f 67 258 259
f 258 65 257
f 257 66 259
f 258 257 259
f 66 260 259
f 260 68 261
f 261 67 259
f 260 261 259
f 69 262 263
f 262 67 261
f 261 68 263
f 262 261 263
f 68 264 263
f 264 70 265
f 265 69 263
f 264 265 263
f 71 266 267
f 266 69 265
f 265 70 267
f 266 265 267
f 70 268 267
f 268 72 269
f 269 71 267
f 268 269 267
f 73 270 271
f 270 71 269
f 269 72 271
f 270 269 271
f 72 272 271
f 272 74 273
f 273 73 271
f 272 273 271
f 75 274 275
f 274 73 273
f 273 74 275
f 274 273 275
f 74 276 275
f 276 76 277
f 277 75 275
f 276 277 275
f 77 278 279
f 278 75 277
f 277 76 279
f 278 277 279
f 76 280 279
f 280 78 281
f 281 77 279
f 280 281 279
f 79 282 283
f 282 77 281
f 281 78 283
f 282 281 283
f 78 284 283
f 284 80 285
f 285 79 283
f 284 285 283
f 81 286 287
f 286 79 285
f 285 80 287
f 286 285 287
f 80 288 287
f 288 82 289
f 289 81 287
f 288 289 287
f 83 290 291
f 290 81 289
f 289 82 291
f 290 289 291
f 82 292 291
f 292 84 293
f 293 83 291
f 292 293 291
f 85 294 295
f 294 83 293
f 293 84 295
f 294 293 295
f 84 296 295
f 296 86 297
f 297 85 295
f 296 297 295
f 87 298 299
f 298 85 297
f 297 86 299
f 298 297 299
f 86 300 299
f 300 88 301
f 301 87 299
f 300 301 299
f 89 302 303
f 302 87 301
f 301 88 303
f 302 301 303
f 88 304 303
f 304 90 305
f 305 89 303
f 304 305 303
f 91 306 307
f 306 89 305
f 305 90 307
f 306 305 307
f 90 308 307
f 308 92 309
f 309 91 307
f 308 309 307
f 93 310 311
f 310 91 309
f 309 92 311
f 310 309 311
f 92 312 311
f 312 94 313
f 313 93 311
f 312 313 311
f 95 314 315
f 314 93 313
f 313 94 315
f 314 313 315
f 94 316 315
f 316 96 317
f 317 95 315
f 316 317 315
f 97 318 319
f 318 95 317
f 317 96 319
f 318 317 319
f 96 320 319
f 320 98 321
f 321 97 319
f 320 321 319
f 99 322 323
f 322 97 321
f 321 98 323
f 322 321 323
f 98 324 323
f 324 100 325
f 325 99 323
f 324 325 323
f 101 326 327
f 326 99 325
f 325 100 327
f 326 325 327
f 100 328 327
f 328 102 329
f 329 101 327
f 328 329 327
f 103 330 331
f 330 101 329
f 329 102 331
f 330 329 331
f 102 332 331
f 332 104 333
f 333 103 331
f 332 333 331
f 105 334 335
f 334 103 333
f 333 104 335
f 334 333 335
f 104 336 335
f 336 106 337
f 337 105 335
f 336 337 335
f 107 338 339
f 338 105 337
f 337 106 339
f 338 337 339
f 106 340 339
f 340 108 341
f 341 107 339
f 340 341 339
f 109 342 343
f 342 107 341
f 341 108 343
f 342 341 343
f 108 344 343
f 344 110 345
f 345 109 343
f 344 345 343
f 111 346 347
f 346 109 345
f 345 110 347
f 346 345 347
f 110 348 347
f 348 112 349
f 349 111 347
f 348 349 347
f 113 350 351
f 350 111 349
f 349 112 351
f 350 349 351
f 112 352 351
f 352 114 353
f 353 113 351
f 352 353 351
f 115 354 355
f 354 113 353
f 353 114 355
f 354 353 355
f 114 356 355
f 356 116 357
f 357 115 355
f 356 357 355
f 117 358 359
f 358 115 357
f 357 116 359
f 358 357 359
f 116 360 359
f 360 118 361
f 361 117 359
f 360 361 359
f 119 362 363
f 362 117 361
f 361 118 363
f 362 361 363
f 118 364 363
f 364 120 365
f 365 119 363
f 364 365 363
f 121 366 367
f 366 119 365
f 365 120 367
f 366 365 367
f 120 368 367
f 368 122 369
f 369 121 367
f 368 369 367
f 123 370 371
f 370 121 369
f 369 122 371
f 370 369 371
f 122 372 371
f 372 124 373
f 373 123 371
f 372 373 371
f 125 374 375
f 374 123 373
f 373 124 375
f 374 373 375
f 124 376 375
f 376 126 377
f 377 125 375
f 376 377 375
f 127 378 379
f 378 125 377
f 377 126 379
f 378 377 379
f 126 380 379
f 380 128 381
f 381 127 379
f 380 381 379
f 2 382 383
f 382 127 381
f 381 128 383
f 382 381 383
f 128 384 383
f 384 3 130
f 130 2 383
f 384 130 383
f 32 188 192
f 188 30 385
f 385 34 192
f 188 385 192
f 106 336 340
f 336 104 386
f 386 108 340
f 336 386 340
f 74 272 276
f 272 72 387
f 387 76 276
f 272 387 276
f 64 252 256
f 252 62 388
f 388 66 256
f 252 388 256
f 96 316 320
f 316 94 389
f 389 98 320
f 316 389 320
f 40 204 208
f 204 38 390
f 390 42 208
f 204 390 208
f 128 380 384
f 380 126 391
f 391 3 384
f 380 391 384
f 82 288 292
f 288 80 392
f 392 84 292
f 288 392 292
f 50 224 228
f 224 48 393
f 393 52 228
f 224 393 228
f 18 160 164
f 160 16 394
f 394 20 164
f 160 394 164
f 120 364 368
f 364 118 395
f 395 122 368
f 364 395 368
f 88 300 304
f 300 86 396
f 396 90 304
f 300 396 304
f 8 140 144
f 140 6 397
f 397 10 144
f 140 397 144
f 114 352 356
f 352 112 398
f 398 116 356
f 352 398 356
f 56 236 240
f 236 54 399
f 399 58 240
f 236 399 240
f 24 172 176
f 172 22 400
f 400 26 176
f 172 400 176
f 42 390 212
f 390 38 401
f 401 44 212
f 390 401 212
f 3 391 132
f 391 126 402
f 402 4 132
f 391 402 132
f 34 385 196
f 385 30 403
f 403 36 196
f 385 403 196
f 66 388 260
f 388 62 404
f 404 68 260
f 388 404 260
f 98 389 324
f 389 94 405
f 405 100 324
f 389 405 324
f 10 397 148
f 397 6 406
f 406 12 148
f 397 406 148
f 104 332 386
f 332 102 407
f 407 108 386
f 332 407 386
f 72 268 387
f 268 70 408
f 408 76 387
f 268 408 387
f 122 395 372
f 395 118 409
f 409 124 372
f 395 409 372
f 90 396 308
f 396 86 410
f 410 92 308
f 396 410 308
f 58 399 244
f 399 54 411
f 411 60 244
f 399 411 244
f 26 400 180
f 400 22 412
f 412 28 180
f 400 412 180
f 112 348 398
f 348 110 413
f 413 116 398
f 348 413 398
f 80 284 392
f 284 78 414
f 414 84 392
f 284 414 392
f 48 220 393
f 220 46 415
f 415 52 393
f 220 415 393
f 16 156 394
f 156 14 416
f 416 20 394
f 156 416 394
f 38 200 401
f 200 36 417
f 417 44 401
f 200 417 401
f 36 403 417
f 403 30 418
f 418 44 417
f 403 418 417
f 30 184 418
f 184 28 419
f 419 44 418
f 184 419 418
f 44 419 216
f 419 28 420
f 420 46 216
f 419 420 216
f 46 420 415
f 420 28 421
f 421 52 415
f 420 421 415
f 28 412 421
f 412 22 422
f 422 52 421
f 412 422 421
f 22 168 422
f 168 20 423
f 423 52 422
f 168 423 422
f 52 423 232
f 423 20 424
f 424 54 232
f 423 424 232
f 54 424 411
f 424 20 425
f 425 60 411
f 424 425 411
f 60 425 248
f 425 20 426
f 426 62 248
f 425 426 248
f 62 426 404
f 426 20 427
f 427 68 404
f 426 427 404
f 68 427 264
f 427 20 428
f 428 70 264
f 427 428 264
f 70 428 408
f 428 20 429
f 429 76 408
f 428 429 408
f 76 429 280
f 429 20 430
f 430 78 280
f 429 430 280
f 78 430 414
f 430 20 431
f 431 84 414
f 430 431 414
f 84 431 296
f 431 20 432
f 432 86 296
f 431 432 296
f 86 432 410
f 432 20 433
f 433 92 410
f 432 433 410
f 92 433 312
f 433 20 434
f 434 94 312
f 433 434 312
f 94 434 405
f 434 20 435
f 435 100 405
f 434 435 405
f 100 435 328
f 435 20 436
f 436 102 328
f 435 436 328
f 102 436 407
f 436 20 437
f 437 108 407
f 436 437 407
f 108 437 344
f 437 20 438
f 438 110 344
f 437 438 344
f 20 416 438
f 416 14 439
f 439 110 438
f 416 439 438
f 14 152 439
f 152 12 440
f 440 110 439
f 152 440 439
f 12 406 440
f 406 6 441
f 441 110 440
f 406 441 440
f 6 136 441
f 136 4 442
f 442 110 441
f 136 442 441
f 110 442 413
f 442 4 443
f 443 116 413
f 442 443 413
f 4 402 443
f 402 126 444
f 444 116 443
f 402 444 443
f 126 376 444
f 376 124 445
f 445 116 444
f 376 445 444
f 118 360 409
f 360 116 445
f 445 124 409
f 360 445 409
f 31 190 186
f 190 33 446
f 446 29 186
f 190 446 186
f 73 274 270
f 274 75 447
f 447 71 270
f 274 447 270
f 105 338 334
f 338 107 448
f 448 103 334
f 338 448 334
f 63 254 250
f 254 65 449
f 449 61 250
f 254 449 250
f 95 318 314
f 318 97 450
f 450 93 314
f 318 450 314
f 39 206 202
f 206 41 451
f 451 37 202
f 206 451 202
f 127 382 378
f 382 2 452
f 452 125 378
f 382 452 378
f 17 162 158
f 162 19 453
f 453 15 158
f 162 453 158
f 49 226 222
f 226 51 454
f 454 47 222
f 226 454 222
f 81 290 286
f 290 83 455
f 455 79 286
f 290 455 286
f 87 302 298
f 302 89 456
f 456 85 298
f 302 456 298
f 119 366 362
f 366 121 457
f 457 117 362
f 366 457 362
f 7 142 138
f 142 9 458
f 458 5 138
f 142 458 138
f 113 354 350
f 354 115 459
f 459 111 350
f 354 459 350
f 23 174 170
f 174 25 460
f 460 21 170
f 174 460 170
f 55 238 234
f 238 57 461
f 461 53 234
f 238 461 234
f 41 210 451
f 210 43 462
f 462 37 451
f 210 462 451
f 2 129 452
f 129 1 463
f 463 125 452
f 129 463 452
f 33 194 446
f 194 35 464
f 464 29 446
f 194 464 446
f 65 258 449
f 258 67 465
f 465 61 449
f 258 465 449
f 97 322 450
f 322 99 466
f 466 93 450
f 322 466 450
f 9 146 458
f 146 11 467
f 467 5 458
f 146 467 458
f 71 447 266
f 447 75 468
f 468 69 266
f 447 468 266
f 103 448 330
f 448 107 469
f 469 101 330
f 448 469 330
f 25 178 460
f 178 27 470
f 470 21 460
f 178 470 460
f 57 242 461
f 242 59 471
f 471 53 461
f 242 471 461
f 89 306 456
f 306 91 472
f 472 85 456
f 306 472 456
f 121 370 457
f 370 123 473
f 473 117 457
f 370 473 457
f 15 453 154
f 453 19 474
f 474 13 154
f 453 474 154
f 47 454 218
f 454 51 475
f 475 45 218
f 454 475 218
f 79 455 282
f 455 83 476
f 476 77 282
f 455 476 282
f 111 459 346
f 459 115 477
f 477 109 346
f 459 477 346
f 37 462 198
f 462 43 478
f 478 35 198
f 462 478 198
f 35 478 464
f 478 43 479
f 479 29 464
f 478 479 464
f 29 479 182
f 479 43 480
f 480 27 182
f 479 480 182
f 27 480 470
f 480 43 481
f 481 21 470
f 480 481 470
f 21 481 166
f 481 43 482
f 482 19 166
f 481 482 166
f 43 214 482
f 214 45 483
f 483 19 482
f 214 483 482
f 45 475 483
f 475 51 484
f 484 19 483
f 475 484 483
f 19 484 474
f 484 51 485
f 485 13 474
f 484 485 474
f 13 485 150
f 485 51 486
f 486 11 150
f 485 486 150
f 11 486 467
f 486 51 487
f 487 5 467
f 486 487 467
f 5 487 134
f 487 51 488
f 488 1 134
f 487 488 134
f 1 488 463
f 488 51 489
f 489 125 463
f 488 489 463
f 125 489 374
f 489 51 490
f 490 123 374
f 489 490 374
f 123 490 473
f 490 51 491
f 491 117 473
f 490 491 473
f 117 491 358
f 491 51 492
f 492 115 358
f 491 492 358
f 51 230 492
f 230 53 493
f 493 115 492
f 230 493 492
f 53 471 493
f 471 59 494
f 494 115 493
f 471 494 493
f 59 246 494
f 246 61 495
f 495 115 494
f 246 495 494
f 61 465 495
f 465 67 496
f 496 115 495
f 465 496 495
f 67 262 496
f 262 69 497
f 497 115 496
f 262 497 496
f 69 468 497
f 468 75 498
f 498 115 497
f 468 498 497
f 75 278 498
f 278 77 499
f 499 115 498
f 278 499 498
f 115 499 477
f 499 77 500
f 500 109 477
f 499 500 477
f 109 500 342
f 500 77 501
f 501 107 342
f 500 501 342
f 107 501 469
f 501 77 502
f 502 101 469
f 501 502 469
f 101 502 326
f 502 77 503
f 503 99 326
f 502 503 326
f 77 476 503
f 476 83 504
f 504 99 503
f 476 504 503
f 99 504 466
f 504 83 505
f 505 93 466
f 504 505 466
f 85 472 294
f 472 91 506
f 506 83 294
f 472 506 294
f 91 310 506
f 310 93 505
f 505 83 506
f 310 505 506
