# Original shape: D00851.obj
# No processing applied - exact copy of source file
# Generated on 2025-10-13 16:58:10

v 0.780549 0.103510 0.005522
v 0.888826 0.071056 -0.001396
v 0.780815 0.104548 -0.007481
v 0.781235 0.101079 -0.020051
v 0.781759 0.093520 -0.030672
v 0.782322 0.082784 -0.038063
v 0.782858 0.070165 -0.041333
v 0.783300 0.057185 -0.040087
v 0.783597 0.045411 -0.034476
v 0.783712 0.036261 -0.025176
v 0.783632 0.030840 -0.013309
v 0.783365 0.029802 -0.000306
v 0.782945 0.033271 0.012264
v 0.782421 0.040830 0.022885
v 0.781858 0.051566 0.030276
v 0.781323 0.064185 0.033546
v 0.780880 0.077165 0.032300
v 0.780583 0.088939 0.026689
v 0.780468 0.098089 0.017389
v 0.653220 0.130482 -0.039243
v 0.654269 0.115337 -0.060524
v 0.655398 0.093826 -0.075333
v 0.656470 0.068542 -0.081885
v 0.657358 0.042535 -0.079389
v 0.657952 0.018943 -0.068145
v 0.658183 0.000611 -0.049512
v 0.658021 -0.010251 -0.025734
v 0.656645 -0.005380 0.025504
v 0.655596 0.009765 0.046785
v 0.654468 0.031277 0.061594
v 0.653395 0.056561 0.068146
v 0.652508 0.082568 0.065650
v 0.651913 0.106160 0.054407
v 0.651683 0.124492 0.035773
v 0.651844 0.135354 0.011996
v 0.437491 0.154273 -0.059334
v 0.439028 0.132081 -0.090516
v 0.440682 0.100561 -0.112216
v 0.442254 0.063514 -0.121816
v 0.443554 0.025408 -0.118158
v 0.444425 -0.009161 -0.101684
v 0.444763 -0.036023 -0.074381
v 0.444526 -0.051937 -0.039541
v 0.442510 -0.044800 0.035536
v 0.440973 -0.022609 0.066718
v 0.439319 0.008912 0.088418
v 0.437747 0.045959 0.098018
v 0.436447 0.084065 0.094360
v 0.435576 0.118634 0.077886
v 0.435238 0.145495 0.050583
v 0.435475 0.161410 0.015743
v 0.008552 0.168459 0.011615
v 0.009500 0.172152 -0.034624
v 0.010994 0.159814 -0.079324
v 0.012856 0.132934 -0.117094
v 0.014859 0.094754 -0.143379
v 0.016763 0.049880 -0.155007
v 0.018337 0.003723 -0.150577
v 0.019393 -0.038149 -0.130622
v 0.019802 -0.070686 -0.097550
v 0.019515 -0.089964 -0.055349
v 0.018568 -0.093656 -0.009110
v 0.017073 -0.081318 0.035590
v 0.015212 -0.054438 0.073360
v 0.013208 -0.016258 0.099644
v 0.011305 0.028616 0.111273
v 0.009730 0.074773 0.106842
v 0.008674 0.116645 0.086888
v 0.008265 0.149182 0.053816
v -0.443851 0.157012 -0.045361
v -0.442341 0.144549 -0.090513
v -0.440461 0.117398 -0.128664
v -0.438437 0.078833 -0.155214
v -0.436514 0.033505 -0.166960
v -0.434924 -0.013119 -0.162485
v -0.433858 -0.055414 -0.142329
v -0.433444 -0.088279 -0.108922
v -0.433734 -0.107751 -0.066296
v -0.434691 -0.111481 -0.019590
v -0.436201 -0.099018 0.025562
v -0.438081 -0.071867 0.063714
v -0.440105 -0.033302 0.090264
v -0.442028 0.012026 0.102010
v -0.443618 0.058650 0.097534
v -0.444684 0.100945 0.077378
v -0.445098 0.133810 0.043972
v -0.869265 0.125331 -0.053775
v -0.444808 0.153282 0.001345
v -0.867937 0.114372 -0.093481
v -0.866284 0.090496 -0.127031
v -0.864505 0.056582 -0.150378
v -0.862813 0.016721 -0.160707
v -0.861415 -0.024279 -0.156772
v -0.860477 -0.061473 -0.139047
v -0.860114 -0.090374 -0.109670
v -0.860368 -0.107497 -0.072185
v -0.861210 -0.110777 -0.031112
v -0.862518 -0.099869 0.007832
v -0.864191 -0.075941 0.042144
v -0.865971 -0.042027 0.065491
v -0.869998 0.076027 0.054160
v -0.870362 0.104928 0.024783
v -0.975182 0.098073 -0.054025
v -0.974117 0.089283 -0.085871
v -0.972791 0.070133 -0.112780
v -0.971364 0.042933 -0.131505
v -0.970008 0.010963 -0.139790
v -0.968886 -0.021921 -0.136633
v -0.968134 -0.051752 -0.122417
v -0.967842 -0.074932 -0.098856
v -0.968046 -0.088666 -0.068791
v -0.968722 -0.091296 -0.035849
v -0.971113 -0.063357 0.022906
v -0.972540 -0.036156 0.041632
v -0.973896 -0.004186 0.049916
v -0.975770 0.058529 0.032543
v -0.976061 0.081709 0.008982
v -1.041330 0.048702 -0.034142
v -0.975857 0.095442 -0.021083
v -1.040980 0.050067 -0.051231
v -1.040430 0.045507 -0.067752
v -1.039740 0.035573 -0.081711
v -1.039000 0.021462 -0.091426
v -1.038300 0.004877 -0.095723
v -1.037720 -0.012182 -0.094086
v -1.037330 -0.027657 -0.086711
v -1.037170 -0.039682 -0.074488
v -1.037280 -0.046807 -0.058891
v -1.037630 -0.048171 -0.041802
v -1.038180 -0.043611 -0.025282
v -0.969787 -0.082507 -0.004003
v -1.038870 -0.033677 -0.011322
v -1.039610 -0.019566 -0.001608
v -1.040320 -0.002981 0.002690
v -1.040900 0.014077 0.001052
v -0.975018 0.028698 0.046760
v -1.041290 0.029553 -0.006323
v -1.041440 0.041578 -0.018546
v -1.060530 0.000176 -0.047013
v 0.659376 0.135642 -0.013699
v 0.659208 0.134984 -0.005458
v 0.652208 0.136771 -0.005759
v 0.652452 0.136821 -0.016276
v 0.659453 0.135014 -0.015973
v 0.663899 0.052757 -0.078152
v 0.657022 0.052368 -0.080332
v 0.663542 0.063199 -0.079154
v 0.656666 0.062810 -0.081335
v 0.664346 -0.010035 0.000284
v 0.664506 -0.009414 -0.007491
v 0.657648 -0.011706 -0.007513
v 0.657398 -0.011593 0.002992
v 0.664255 -0.009282 0.003013
v 0.659765 0.074584 0.064571
v 0.652784 0.074469 0.066427
v 0.660121 0.064142 0.065573
v 0.653140 0.064026 0.067430
v 0.436068 0.163719 -0.013169
v 0.436300 0.164105 -0.023709
v 0.442980 0.042228 -0.119773
v 0.442624 0.052670 -0.120775
v 0.443924 -0.054283 -0.010163
v 0.443686 -0.054507 0.000366
v 0.436962 0.068979 0.095808
v 0.437318 0.058537 0.096811
v 0.373930 0.165582 -0.024211
v 0.372281 0.164861 -0.014896
v 0.373708 0.165259 -0.025406
v 0.378624 0.039650 -0.124745
v 0.378515 0.050103 -0.125728
v 0.379965 -0.060626 -0.004587
v 0.379240 -0.060159 -0.011438
v 0.380242 -0.060761 -0.002524
v 0.379835 -0.060341 -0.000891
v 0.379874 -0.060389 -0.001074
v 0.371987 0.066855 0.097778
v 0.372591 0.056421 0.098773
v 0.411898 -0.068677 0.000502
v 0.419828 -0.073444 0.001029
v 0.665411 -0.042553 0.005292
v 0.422922 -0.075261 0.001232
v 0.461528 -0.089092 0.003164
v 0.463520 -0.089428 0.003239
v 0.468650 -0.090300 0.003430
v 0.475652 -0.091496 0.003692
v 0.483258 -0.092807 0.003977
v 0.490198 -0.094025 0.004239
v 0.495206 -0.094940 0.004431
v 0.500169 -0.095711 0.004611
v 0.507241 -0.096614 0.004855
v 0.515078 -0.097530 0.005119
v 0.522338 -0.098334 0.005362
v 0.527678 -0.098907 0.005538
v 0.666370 -0.096877 0.008988
v 0.657554 -0.097426 0.008797
v 0.647655 -0.098204 0.008593
v 0.637719 -0.099045 0.008393
v 0.628790 -0.099780 0.008212
v 0.621913 -0.100243 0.008065
v 0.618134 -0.100263 0.007969
v 0.613818 -0.100206 0.007854
v 0.605277 -0.100367 0.007644
v 0.594743 -0.100654 0.007391
v 0.584452 -0.100974 0.007146
v 0.529757 -0.099124 0.005607
v 0.576639 -0.101234 0.006962
v 0.573538 -0.101341 0.006889
v 0.389655 -0.054399 -0.001039
v 0.379869 -0.060376 -0.000888
v 0.389926 -0.055106 -0.011504
v 0.401164 -0.061986 -0.000228
v 0.401435 -0.062693 -0.010693
v 0.412169 -0.069384 -0.009963
v 0.420098 -0.074151 -0.009436
v 0.423193 -0.075969 -0.009233
v 0.461798 -0.089799 -0.007301
v 0.463790 -0.090136 -0.007226
v 0.468921 -0.091007 -0.007035
v 0.475923 -0.092203 -0.006773
v 0.483528 -0.093514 -0.006488
v 0.490469 -0.094732 -0.006226
v 0.495477 -0.095647 -0.006034
v 0.500440 -0.096418 -0.005854
v 0.507511 -0.097322 -0.005610
v 0.515348 -0.098237 -0.005346
v 0.522608 -0.099041 -0.005103
v 0.527949 -0.099614 -0.004927
v 0.530027 -0.099832 -0.004858
v 0.573808 -0.102048 -0.003576
v 0.576909 -0.101941 -0.003503
v 0.584723 -0.101681 -0.003319
v 0.595013 -0.101361 -0.003074
v 0.605547 -0.101074 -0.002821
v 0.614089 -0.100913 -0.002611
v 0.618405 -0.100971 -0.002496
v 0.622184 -0.100950 -0.002400
v 0.629061 -0.100488 -0.002253
v 0.637990 -0.099752 -0.002072
v 0.647926 -0.098911 -0.001872
v 0.657824 -0.098133 -0.001668
v 0.666640 -0.097585 -0.001477
v 0.665682 -0.043260 -0.005173
v 0.411170 0.039933 -0.137140
v 0.419058 0.039865 -0.142140
v 0.664752 0.050525 -0.111169
v 0.422137 0.039841 -0.144046
v 0.460617 0.040171 -0.158766
v 0.462606 0.040214 -0.159140
v 0.467728 0.040326 -0.160104
v 0.474718 0.040479 -0.161428
v 0.482310 0.040643 -0.162879
v 0.489238 0.040792 -0.164224
v 0.494238 0.040897 -0.165232
v 0.499193 0.041010 -0.166091
v 0.506255 0.041185 -0.167116
v 0.514082 0.041385 -0.168164
v 0.521333 0.041574 -0.169090
v 0.526667 0.041714 -0.169751
v 0.665189 0.046924 -0.163989
v 0.656516 0.046208 -0.170036
v 0.646614 0.045819 -0.170697
v 0.636674 0.045423 -0.171421
v 0.627741 0.045070 -0.172052
v 0.620863 0.044805 -0.172430
v 0.617085 0.044676 -0.172399
v 0.612771 0.044534 -0.172280
v 0.604230 0.044234 -0.172326
v 0.593697 0.043858 -0.172474
v 0.583407 0.043487 -0.172659
v 0.528743 0.041769 -0.170003
v 0.575594 0.043205 -0.172817
v 0.572493 0.043093 -0.172884
v 0.389051 0.040188 -0.122189
v 0.379144 0.039631 -0.125291
v 0.388688 0.050649 -0.122905
v 0.378781 0.050093 -0.126007
v 0.400494 0.040042 -0.130129
v 0.400131 0.050503 -0.130846
v 0.410807 0.050394 -0.137856
v 0.418695 0.050326 -0.142856
v 0.421773 0.050303 -0.144763
v 0.460253 0.050632 -0.159483
v 0.462242 0.050676 -0.159856
v 0.467364 0.050788 -0.160820
v 0.474354 0.050940 -0.162144
v 0.481946 0.051105 -0.163595
v 0.488875 0.051253 -0.164941
v 0.493874 0.051358 -0.165948
v 0.498829 0.051471 -0.166808
v 0.505891 0.051647 -0.167833
v 0.513718 0.051847 -0.168880
v 0.520969 0.052036 -0.169806
v 0.526304 0.052176 -0.170467
v 0.528380 0.052231 -0.170719
v 0.572129 0.053554 -0.173601
v 0.575230 0.053666 -0.173534
v 0.583043 0.053949 -0.173376
v 0.593334 0.054319 -0.173191
v 0.603867 0.054695 -0.173043
v 0.612407 0.054995 -0.172996
v 0.616721 0.055137 -0.173115
v 0.620500 0.055266 -0.173146
v 0.627378 0.055531 -0.172768
v 0.636310 0.055885 -0.172138
v 0.646251 0.056280 -0.171413
v 0.656153 0.056670 -0.170752
v 0.664825 0.057385 -0.164705
v 0.664389 0.060987 -0.111885
v 0.403659 0.174507 -0.025256
v 0.411237 0.179838 -0.025421
v 0.658346 0.166862 -0.018154
v 0.414198 0.181876 -0.025482
v 0.451745 0.198475 -0.025633
v 0.453709 0.198956 -0.025614
v 0.458766 0.200197 -0.025567
v 0.465668 0.201899 -0.025504
v 0.473162 0.203760 -0.025436
v 0.480001 0.205479 -0.025375
v 0.484933 0.206755 -0.025334
v 0.489830 0.207884 -0.025284
v 0.496821 0.209299 -0.025198
v 0.504574 0.210781 -0.025098
v 0.511760 0.212111 -0.025002
v 0.517047 0.213070 -0.024930
v 0.655530 0.221119 -0.021893
v 0.646698 0.221026 -0.022115
v 0.636770 0.221083 -0.022376
v 0.626801 0.221200 -0.022642
v 0.617843 0.221285 -0.022879
v 0.610952 0.221247 -0.023055
v 0.607181 0.220993 -0.023135
v 0.602880 0.220622 -0.023221
v 0.594349 0.220162 -0.023411
v 0.583821 0.219684 -0.023651
v 0.573534 0.219255 -0.023888
v 0.519106 0.213438 -0.024902
v 0.565723 0.218947 -0.024069
v 0.562622 0.218829 -0.024141
v 0.393416 0.167054 -0.025017
v 0.382463 0.158650 -0.024733
v 0.393145 0.167761 -0.014553
v 0.382193 0.159357 -0.014268
v 0.403388 0.175214 -0.014791
v 0.410967 0.180546 -0.014956
v 0.413927 0.182583 -0.015017
v 0.451475 0.199182 -0.015168
v 0.453438 0.199663 -0.015149
v 0.458496 0.200905 -0.015102
v 0.465397 0.202606 -0.015039
v 0.472892 0.204467 -0.014971
v 0.479730 0.206186 -0.014910
v 0.484662 0.207462 -0.014869
v 0.489559 0.208591 -0.014819
v 0.496550 0.210006 -0.014733
v 0.504304 0.211488 -0.014633
v 0.511490 0.212818 -0.014537
v 0.516777 0.213777 -0.014465
v 0.518835 0.214145 -0.014437
v 0.562352 0.219536 -0.013676
v 0.565452 0.219654 -0.013604
v 0.573264 0.219962 -0.013423
v 0.583551 0.220391 -0.013186
v 0.594078 0.220870 -0.012946
v 0.602609 0.221329 -0.012756
v 0.606910 0.221700 -0.012670
v 0.610681 0.221954 -0.012590
v 0.617573 0.221993 -0.012414
v 0.626530 0.221908 -0.012177
v 0.636500 0.221790 -0.011911
v 0.646427 0.221733 -0.011650
v 0.655259 0.221826 -0.011428
v 0.658075 0.167569 -0.007689
v 0.404280 0.068964 0.112175
v 0.411900 0.069596 0.117538
v 0.658898 0.076850 0.098097
v 0.414876 0.069839 0.119586
v 0.452549 0.072279 0.136088
v 0.454516 0.072379 0.136554
v 0.459582 0.072637 0.137757
v 0.466496 0.072991 0.139406
v 0.474004 0.073375 0.141210
v 0.480854 0.073728 0.142878
v 0.485795 0.073984 0.144119
v 0.490700 0.074229 0.145209
v 0.497700 0.074565 0.146563
v 0.505464 0.074932 0.147975
v 0.512658 0.075269 0.149239
v 0.517952 0.075515 0.150149
v 0.656604 0.080384 0.150873
v 0.647629 0.080458 0.156507
v 0.637705 0.080126 0.156704
v 0.627739 0.079798 0.156963
v 0.618785 0.079501 0.157175
v 0.611896 0.079265 0.157231
v 0.608123 0.079120 0.157023
v 0.603821 0.078948 0.156702
v 0.595288 0.078628 0.156349
v 0.584760 0.078238 0.156004
v 0.574473 0.077860 0.155708
v 0.520013 0.075610 0.150498
v 0.566661 0.077574 0.155500
v 0.563560 0.077461 0.155422
v 0.382961 0.067129 0.096208
v 0.372905 0.066960 0.098842
v 0.383324 0.056668 0.096924
v 0.373269 0.056498 0.099559
v 0.393979 0.068092 0.104674
v 0.394343 0.057630 0.105390
v 0.404644 0.058502 0.112892
v 0.412264 0.059134 0.118254
v 0.415240 0.059378 0.120303
v 0.452913 0.061817 0.136805
v 0.454880 0.061917 0.137270
v 0.459946 0.062176 0.138473
v 0.466859 0.062529 0.140123
v 0.474367 0.062914 0.141927
v 0.481218 0.063266 0.143595
v 0.486159 0.063523 0.144835
v 0.491064 0.063768 0.145925
v 0.498064 0.064104 0.147279
v 0.505827 0.064470 0.148692
v 0.513022 0.064807 0.149956
v 0.518316 0.065053 0.150865
v 0.520376 0.065149 0.151215
v 0.563924 0.067000 0.156139
v 0.567025 0.067113 0.156217
v 0.574836 0.067399 0.156424
v 0.585124 0.067776 0.156721
v 0.595652 0.068166 0.157066
v 0.604184 0.068487 0.157418
v 0.608487 0.068658 0.157739
v 0.612259 0.068804 0.157947
v 0.619149 0.069039 0.157891
v 0.628103 0.069336 0.157679
v 0.638069 0.069665 0.157421
v 0.647993 0.069996 0.157224
v 0.656968 0.069922 0.151589
v 0.659262 0.066388 0.098813
v 0.380140 -0.061083 -0.011353
v -0.680483 -0.029200 0.075980
v -0.689525 -0.029553 0.075411
v -0.708536 -0.030296 0.074212
v -0.800694 -0.033712 0.071112
v -0.824107 -0.034626 0.069637
v -0.841953 -0.035324 0.068512
v -0.849053 -0.035601 0.068065
v -0.851383 -0.035692 0.067918
v -0.861253 -0.035188 0.067528
v -0.866311 -0.034003 0.067571
v -0.679467 0.000516 0.083801
v -0.679166 -0.020670 0.078280
v -0.679647 0.004309 0.084783
v -0.681597 0.046866 0.080666
v -0.680554 0.027455 0.082553
v -0.869922 0.073004 0.055601
v -0.864955 0.074513 0.055294
v -0.855145 0.075744 0.055518
v -0.681925 0.054105 0.077204
v -0.683001 0.074225 0.067569
v -0.683470 0.082272 0.063712
v -0.870734 -0.033004 0.067017
v -0.879629 -0.029248 0.066370
v -0.887756 -0.023980 0.066269
v -0.894918 -0.017303 0.066723
v -0.894991 -0.017205 0.066736
v -0.892616 -0.004351 0.071662
v -0.878064 -0.027725 0.068120
v -0.878685 -0.028134 0.067896
v -0.894872 -0.017262 0.066743
v -0.909396 0.018361 0.065900
v -0.908239 0.008807 0.066978
v -0.908124 0.008430 0.067034
v -0.902917 0.012038 0.068201
v -0.908893 0.027994 0.065137
v -0.908693 0.028867 0.065097
v -0.894917 0.038826 0.067454
v -0.901940 0.025535 0.067281
v -0.904840 0.041672 0.062502
v -0.902779 0.046343 0.060766
v -0.886476 0.054156 0.062133
v -0.874264 0.071640 0.055267
v -0.882880 0.067240 0.055401
v -0.897328 0.054474 0.058163
v -0.890632 0.061479 0.056371
v -0.684132 0.084001 0.089305
v -0.855915 0.077755 0.085284
v -0.683578 0.075733 0.089878
v -0.682289 0.055058 0.091308
v -0.681025 -0.027784 0.096939
v -0.679635 -0.019444 0.096411
v -0.690076 -0.028113 0.096727
v -0.680829 0.028172 0.093163
v -0.679757 0.001273 0.095008
v -0.709107 -0.028805 0.096282
v -0.801289 -0.032157 0.094125
v -0.824726 -0.033009 0.093576
v -0.842591 -0.033658 0.093158
v -0.849698 -0.033917 0.092992
v -0.865727 0.076528 0.085114
v -0.875035 0.073653 0.085067
v -0.883649 0.069250 0.085142
v -0.891381 0.063436 0.085335
v -0.898038 0.056331 0.085643
v -0.903433 0.048053 0.086063
v -0.907289 0.038961 0.086578
v -0.909463 0.029482 0.087162
v -0.909962 0.019841 0.087801
v -0.908795 0.010260 0.088478
v -0.905968 0.000964 0.089179
v -0.901491 -0.007825 0.089889
v -0.895535 -0.015691 0.090575
v -0.888401 -0.022294 0.091205
v -0.880285 -0.027532 0.091769
v -0.871387 -0.031299 0.092254
v -0.861902 -0.033490 0.092647
v -0.852030 -0.034002 0.092937
v -0.909116 0.029972 0.081435
v -0.907142 0.038577 0.080905
v -0.903286 0.047669 0.080390
v -0.897892 0.055947 0.079970
v -0.891234 0.063053 0.079662
v -0.883503 0.068866 0.079469
v -0.883114 0.069065 0.079466
v -0.882645 0.067838 0.061308
v -0.902317 0.026519 0.081844
v -0.880358 0.067752 0.079626
v -0.897422 0.054720 0.061812
v -0.902817 0.046442 0.062232
v -0.879888 0.066525 0.061468
v -0.890764 0.061826 0.061504
v -0.883033 0.067639 0.061311
v -0.880254 -0.027841 0.086088
v -0.888254 -0.022678 0.085533
v -0.895388 -0.016074 0.084902
v -0.901344 -0.008209 0.084216
v -0.905822 0.000580 0.083507
v -0.908532 0.009498 0.082834
v -0.903293 0.013020 0.082731
v -0.878527 -0.026514 0.086043
v -0.879785 -0.029068 0.067931
v -0.887784 -0.023905 0.067375
v -0.894919 -0.017301 0.066744
v -0.261975 0.139872 0.048098
v -0.259380 0.140107 0.048005
v -0.264667 0.139928 0.047890
v -0.231223 0.144301 0.041522
v -0.238744 0.141758 0.046370
v -0.233428 0.146380 0.036754
v -0.238662 0.147238 0.034373
v -0.241497 0.141434 0.046815
v -0.261863 0.147709 0.031114
v -0.284461 0.140027 0.045773
v -0.285183 0.140059 0.045633
v -0.285099 0.145748 0.033179
v -0.293259 0.142221 0.040123
v -0.290986 0.144412 0.035540
v -0.222317 0.160485 0.042916
v -0.222396 0.160382 0.046445
v -0.215892 0.154078 0.044640
v -0.222399 0.158530 0.049451
v -0.222325 0.155424 0.051129
v -0.222194 0.151896 0.051029
v -0.222042 0.148893 0.049178
v -0.221908 0.147218 0.046072
v -0.221830 0.147321 0.042543
v -0.221827 0.149174 0.039537
v -0.221900 0.152280 0.037859
v -0.222031 0.155807 0.037959
v -0.222183 0.158811 0.039810
v -0.239462 0.164723 0.041363
v -0.239598 0.164545 0.047475
v -0.239603 0.161336 0.052682
v -0.239476 0.155956 0.055588
v -0.239250 0.149847 0.055415
v -0.238985 0.144645 0.052209
v -0.238754 0.141744 0.046829
v -0.238740 0.150512 0.032605
v -0.238966 0.156621 0.032778
v -0.239230 0.161823 0.035983
v -0.262732 0.165657 0.040397
v -0.262890 0.165451 0.047455
v -0.262896 0.161745 0.053467
v -0.262749 0.155533 0.056822
v -0.262487 0.148479 0.056622
v -0.262182 0.142472 0.052921
v -0.261899 0.149246 0.030284
v -0.262160 0.156301 0.030483
v -0.262465 0.162308 0.034185
v -0.285893 0.163035 0.040277
v -0.286030 0.162857 0.046389
v -0.286035 0.159648 0.051595
v -0.285908 0.154268 0.054501
v -0.285681 0.148158 0.054328
v -0.285417 0.142957 0.051122
v -0.285185 0.140056 0.045743
v -0.285172 0.148823 0.031518
v -0.285398 0.154933 0.031691
v -0.285662 0.160135 0.034897
v -0.302739 0.157561 0.041034
v -0.302818 0.157458 0.044563
v -0.302821 0.155606 0.047569
v -0.302747 0.152499 0.049247
v -0.302617 0.148972 0.049147
v -0.302464 0.145969 0.047296
v -0.302330 0.144294 0.044190
v -0.302252 0.144397 0.040661
v -0.302323 0.149356 0.035977
v -0.302453 0.152883 0.036077
v -0.302606 0.155887 0.037928
v -0.308755 0.150701 0.042466
v -0.302249 0.146250 0.037655
v 0.140993 0.154233 0.075821
v 0.140914 0.154130 0.079350
v 0.147418 0.147825 0.077545
v 0.140911 0.152277 0.082356
v 0.140985 0.149171 0.084034
v 0.141115 0.145644 0.083934
v 0.141268 0.142640 0.082083
v 0.141401 0.140966 0.078977
v 0.141480 0.141069 0.075449
v 0.141483 0.142921 0.072443
v 0.141409 0.146027 0.070765
v 0.141279 0.149555 0.070865
v 0.141126 0.152558 0.072715
v 0.123848 0.158471 0.074269
v 0.123711 0.158293 0.080381
v 0.123706 0.155083 0.085587
v 0.123834 0.149703 0.088493
v 0.124060 0.143594 0.088320
v 0.124324 0.138392 0.085114
v 0.124556 0.135492 0.079735
v 0.124692 0.135670 0.073623
v 0.124697 0.138879 0.068416
v 0.124570 0.144259 0.065510
v 0.124344 0.150368 0.065683
v 0.124079 0.155570 0.068889
v 0.100577 0.159404 0.073302
v 0.100420 0.159198 0.080360
v 0.100414 0.155493 0.086372
v 0.100561 0.149280 0.089728
v 0.100822 0.142226 0.089528
v 0.101127 0.136219 0.085826
v 0.101394 0.132870 0.079614
v 0.101552 0.133076 0.072557
v 0.101558 0.136781 0.066545
v 0.101411 0.142994 0.063189
v 0.101150 0.150048 0.063389
v 0.100845 0.156055 0.067090
v 0.077416 0.156782 0.073182
v 0.077280 0.156604 0.079294
v 0.077275 0.153395 0.084501
v 0.077402 0.148015 0.087407
v 0.077628 0.141906 0.087234
v 0.077892 0.136704 0.084028
v 0.078124 0.133803 0.078648
v 0.078260 0.133982 0.072536
v 0.078266 0.137191 0.067330
v 0.078138 0.142571 0.064423
v 0.077912 0.148680 0.064597
v 0.077648 0.153882 0.067802
v 0.060571 0.151308 0.073939
v 0.060492 0.151206 0.077468
v 0.060489 0.149353 0.080474
v 0.060562 0.146247 0.082152
v 0.060693 0.142719 0.082052
v 0.060845 0.139716 0.080201
v 0.060979 0.138042 0.077095
v 0.061058 0.138144 0.073567
v 0.061061 0.139997 0.070561
v 0.060987 0.143103 0.068883
v 0.060857 0.146631 0.068983
v 0.060704 0.149634 0.070833
v 0.054554 0.144449 0.075372
v -0.277302 -0.078749 0.048809
v -0.253964 -0.079621 0.046822
v -0.283003 -0.074637 0.054763
v -0.281452 -0.077720 0.050388
v -0.254671 -0.069407 0.061174
v -0.257660 -0.069679 0.060890
v -0.277739 -0.072422 0.057698
v -0.213672 -0.088227 0.059947
v -0.207714 -0.081217 0.060752
v -0.213775 -0.087651 0.063429
v -0.213920 -0.085411 0.066155
v -0.214069 -0.082107 0.067394
v -0.214182 -0.078626 0.066814
v -0.214229 -0.075899 0.064571
v -0.214196 -0.074658 0.061265
v -0.214094 -0.075235 0.057783
v -0.213949 -0.077475 0.055057
v -0.213800 -0.080778 0.053818
v -0.213687 -0.084259 0.054398
v -0.213640 -0.086986 0.056641
v -0.230475 -0.093812 0.059067
v -0.230653 -0.092813 0.065098
v -0.230905 -0.088933 0.069819
v -0.231163 -0.083212 0.071965
v -0.231359 -0.077182 0.070961
v -0.231439 -0.072459 0.067075
v -0.231383 -0.070309 0.061350
v -0.230696 -0.080909 0.048451
v -0.230500 -0.086939 0.049456
v -0.230420 -0.091662 0.053341
v -0.253621 -0.096474 0.058347
v -0.253826 -0.095321 0.065311
v -0.254116 -0.090841 0.070763
v -0.254415 -0.084234 0.073241
v -0.254641 -0.077271 0.072081
v -0.254734 -0.071818 0.067594
v -0.253876 -0.081576 0.046089
v -0.253650 -0.088538 0.047249
v -0.253557 -0.093991 0.051736
v -0.276907 -0.095500 0.057980
v -0.277084 -0.094501 0.064012
v -0.277336 -0.090622 0.068733
v -0.277595 -0.084900 0.070879
v -0.277790 -0.078870 0.069874
v -0.277871 -0.074148 0.065989
v -0.277815 -0.071998 0.060263
v -0.277128 -0.082598 0.047365
v -0.276932 -0.088628 0.048369
v -0.276852 -0.093350 0.052255
v -0.294094 -0.091152 0.058065
v -0.294196 -0.090575 0.061547
v -0.294342 -0.088335 0.064273
v -0.294491 -0.085032 0.065512
v -0.294604 -0.081550 0.064932
v -0.294650 -0.078824 0.062689
v -0.294618 -0.077582 0.059383
v -0.294516 -0.078159 0.055901
v -0.294222 -0.083702 0.051936
v -0.294109 -0.087184 0.052516
v -0.294062 -0.089910 0.054759
v -0.300577 -0.084593 0.058578
v -0.294371 -0.080399 0.053175
v 0.148177 -0.052460 0.089975
v 0.154136 -0.045449 0.090780
v 0.148075 -0.051883 0.093457
v 0.147929 -0.049643 0.096183
v 0.147780 -0.046340 0.097422
v 0.147667 -0.042859 0.096842
v 0.147621 -0.040132 0.094599
v 0.147653 -0.038891 0.091293
v 0.147755 -0.039467 0.087811
v 0.147901 -0.041707 0.085085
v 0.148050 -0.045011 0.083846
v 0.148163 -0.048492 0.084426
v 0.148209 -0.051219 0.086669
v 0.131374 -0.058045 0.089095
v 0.131196 -0.057046 0.095126
v 0.130945 -0.053166 0.099847
v 0.130686 -0.047445 0.101993
v 0.130491 -0.041415 0.100989
v 0.130410 -0.036692 0.097103
v 0.130466 -0.034542 0.091378
v 0.130643 -0.035541 0.085347
v 0.130895 -0.039421 0.080625
v 0.131153 -0.045142 0.078480
v 0.131349 -0.051172 0.079484
v 0.131429 -0.055895 0.083369
v 0.108228 -0.060707 0.088375
v 0.108023 -0.059553 0.095339
v 0.107733 -0.055073 0.100791
v 0.107434 -0.048467 0.103269
v 0.107208 -0.041504 0.102109
v 0.107115 -0.036051 0.097622
v 0.107180 -0.033568 0.091011
v 0.107384 -0.034722 0.084047
v 0.107675 -0.039202 0.078595
v 0.107973 -0.045808 0.076117
v 0.108199 -0.052771 0.077277
v 0.108292 -0.058224 0.081763
v 0.084942 -0.059733 0.088008
v 0.084764 -0.058734 0.094040
v 0.084513 -0.054854 0.098761
v 0.084255 -0.049133 0.100907
v 0.084059 -0.043103 0.099902
v 0.083978 -0.038380 0.096017
v 0.084034 -0.036230 0.090291
v 0.084211 -0.037229 0.084260
v 0.084463 -0.041109 0.079539
v 0.084721 -0.046830 0.077393
v 0.084917 -0.052860 0.078397
v 0.084998 -0.057583 0.082283
v 0.067755 -0.055384 0.088093
v 0.067652 -0.054808 0.091575
v 0.067507 -0.052568 0.094301
v 0.067358 -0.049264 0.095540
v 0.067245 -0.045783 0.094960
v 0.067198 -0.043056 0.092717
v 0.067231 -0.041815 0.089411
v 0.067333 -0.042392 0.085929
v 0.067478 -0.044632 0.083203
v 0.067627 -0.047935 0.081964
v 0.067740 -0.051416 0.082544
v 0.067787 -0.054143 0.084787
v 0.061272 -0.048826 0.088607
v -0.227454 -0.075659 0.051515
v -0.230880 -0.076833 0.049981
v -0.226346 -0.072423 0.056018
v -0.231299 -0.070785 0.058479
v -0.251944 -0.069450 0.061026
v -0.852898 0.077311 0.077265
v -0.805860 0.079021 0.078365
v -0.852560 0.076426 0.064169
v -0.805521 0.078136 0.065270
v -0.805599 0.071521 0.078879
v -0.852638 0.069810 0.077778
v -0.805261 0.070636 0.065784
v -0.852299 0.068925 0.064683
v -0.715774 0.082297 0.080473
v -0.762812 0.080586 0.079373
v -0.762473 0.079701 0.066277
v -0.715435 0.081412 0.067378
v -0.715513 0.074796 0.080987
v -0.715174 0.073911 0.067892
v -0.762551 0.073086 0.079886
v -0.762213 0.072201 0.066791
v -0.801976 -0.032736 0.086018
v -0.849014 -0.034446 0.084917
v -0.801637 -0.033620 0.072923
v -0.848675 -0.035331 0.071822
v -0.849260 -0.027353 0.084432
v -0.802222 -0.025643 0.085532
v -0.801883 -0.026528 0.072437
v -0.848922 -0.028238 0.071336
v -0.711889 -0.029460 0.088126
v -0.758927 -0.031170 0.087025
v -0.758589 -0.032055 0.073930
v -0.711550 -0.030345 0.075031
v -0.712136 -0.022367 0.087640
v -0.759174 -0.024078 0.086540
v -0.758835 -0.024963 0.073444
v -0.711797 -0.023252 0.074545
v -0.870100 0.122033 -0.012972
v -0.853876 0.124607 -0.020369
v -0.854010 0.123214 -0.012457
v -0.775314 0.130451 -0.018732
v -0.723208 0.134327 -0.017647
v -0.775466 0.128976 -0.009939
v -0.723372 0.132798 -0.008269
v -0.700818 0.135993 -0.017180
v -0.700986 0.134440 -0.007552
v -0.854036 0.120733 -0.007508
v -0.775487 0.126950 -0.005897
v -0.723389 0.131073 -0.004828
v -0.701003 0.132845 -0.004369
v -0.949550 0.102821 -0.021371
v -0.949532 0.102177 -0.013464
v -0.872544 0.122883 -0.020735
v -0.872409 0.121571 -0.013115
v -0.948749 0.097672 -0.008399
v -0.872018 0.119033 -0.007858
v -0.853783 0.113441 -0.007009
v -0.853458 0.112594 -0.019546
v -0.774793 0.115454 -0.017705
v -0.775117 0.116302 -0.005168
v -0.723105 0.122892 -0.004268
v -0.722781 0.122044 -0.016806
v -0.700361 0.122859 -0.016281
v -0.700685 0.123707 -0.003743
v -0.947874 0.093004 -0.008061
v -0.947550 0.092157 -0.020598
v -0.870222 0.110052 -0.019808
v -0.870546 0.110900 -0.007270
v -0.845908 -0.104643 -0.004671
v -0.846361 -0.100089 0.007613
v -0.767137 -0.104795 -0.002624
v -0.767590 -0.100241 0.009660
v -0.714893 -0.104896 -0.001266
v -0.692443 -0.104940 -0.000682
v -0.692896 -0.100385 0.011602
v -0.715346 -0.100342 0.011018
v -0.942290 -0.089813 -0.008165
v -0.864098 -0.104342 -0.005161
v -0.864022 -0.099857 0.007141
v -0.874006 -0.098545 0.006794
v -0.942203 -0.086545 0.000359
v -0.942023 -0.083882 0.004044
v -0.846191 -0.096480 -0.005230
v -0.846516 -0.095633 0.007308
v -0.767525 -0.093620 -0.003389
v -0.767850 -0.092772 0.009149
v -0.715188 -0.096416 -0.001846
v -0.715512 -0.095568 0.010691
v -0.692768 -0.095600 -0.001322
v -0.693092 -0.094753 0.011216
v -0.941470 -0.082763 -0.008620
v -0.941794 -0.081916 0.003917
v -0.863089 -0.095162 -0.005756
v -0.863413 -0.094315 0.006782
v -0.045281 0.166645 0.010392
v -0.015172 0.167665 0.011078
v -0.014868 0.168850 -0.003757
v -0.003910 0.168028 0.011329
v -0.095779 0.166138 -0.005550
v -0.096082 0.164957 0.009245
v -0.056942 0.167440 -0.004689
v -0.084118 0.165345 0.009513
v -0.057245 0.166257 0.010125
v -0.044977 0.167829 -0.004429
v -0.003606 0.169213 -0.003513
v -0.083814 0.166527 -0.005290
v -0.057482 0.149723 0.045906
v -0.045517 0.150114 0.046167
v -0.004146 0.151506 0.047086
v -0.015408 0.151140 0.046841
v -0.096319 0.148415 0.045043
v -0.084354 0.148807 0.045304
v -0.057170 0.143040 0.042981
v -0.056810 0.164603 -0.005928
v -0.044847 0.165038 -0.005648
v -0.045208 0.143475 0.043261
v -0.015102 0.144570 0.043965
v -0.014741 0.166133 -0.004944
v -0.003482 0.166542 -0.004680
v -0.003842 0.144979 0.044229
v -0.096002 0.141629 0.042072
v -0.095642 0.163191 -0.006837
v -0.083679 0.163626 -0.006557
v -0.084040 0.142063 0.042352
v -0.046451 -0.089515 0.013554
v -0.034489 -0.089037 0.013813
v -0.035178 -0.083347 0.034429
v -0.004385 -0.087874 0.014483
v -0.005075 -0.082183 0.035100
v 0.006874 -0.087421 0.014724
v 0.006184 -0.081730 0.035343
v 0.004863 -0.062555 0.061999
v -0.036500 -0.064170 0.061087
v -0.048461 -0.064648 0.060829
v -0.006396 -0.063007 0.061757
v -0.046517 -0.086805 0.012193
v -0.048509 -0.062719 0.059858
v -0.047140 -0.083826 0.034169
v -0.034555 -0.086370 0.012473
v -0.036546 -0.062284 0.060138
v -0.004449 -0.085275 0.013178
v -0.006440 -0.061189 0.060843
v 0.006811 -0.084866 0.013441
v 0.004819 -0.060780 0.061106
v -0.176711 -0.063479 0.066672
v -0.174963 -0.088817 0.031342
v -0.153739 -0.062510 0.067201
v -0.174828 -0.089936 0.027288
v -0.151854 -0.088985 0.027818
v -0.151989 -0.087877 0.031830
v -0.174994 -0.085148 0.026960
v -0.176846 -0.059598 0.066406
v -0.153869 -0.058762 0.066944
v -0.152017 -0.084312 0.027498
v 0.249969 0.040255 0.103667
v 0.249135 0.064721 0.101319
v 0.291955 0.041628 0.102395
v 0.291121 0.066093 0.100046
v 0.257543 0.026038 0.141290
v 0.270836 0.025102 0.135668
v 0.263996 0.026455 0.144107
v 0.254659 0.025598 0.136334
v 0.256103 0.025286 0.131041
v 0.261473 0.025228 0.127458
v 0.269327 0.025445 0.126644
v 0.277573 0.025846 0.128320
v 0.284017 0.026287 0.131485
v 0.286934 0.026643 0.135212
v 0.285530 0.026849 0.138927
v 0.280169 0.026884 0.142165
v 0.272284 0.026750 0.144207
v 0.247577 0.032736 0.146122
v 0.258761 0.033439 0.150706
v 0.242603 0.031916 0.136668
v 0.245134 0.031298 0.126359
v 0.254440 0.031183 0.119953
v 0.268022 0.031617 0.119409
v 0.282281 0.032377 0.123267
v 0.293438 0.033151 0.128899
v 0.298507 0.033721 0.134660
v 0.296098 0.034019 0.140229
v 0.286819 0.034064 0.145600
v 0.273142 0.033879 0.149836
v 0.243271 0.053941 0.146865
v 0.256189 0.054743 0.152020
v 0.237538 0.052968 0.135567
v 0.240474 0.052221 0.123157
v 0.302091 0.055051 0.133210
v 0.296230 0.054411 0.126839
v 0.299319 0.055371 0.139294
v 0.288607 0.055416 0.145394
v 0.272807 0.055221 0.150568
v 0.246105 0.075094 0.143221
v 0.257289 0.075797 0.147805
v 0.241131 0.074274 0.133767
v 0.243662 0.073656 0.123458
v 0.252968 0.073541 0.117052
v 0.297035 0.076080 0.131759
v 0.291965 0.075509 0.125999
v 0.294626 0.076377 0.137329
v 0.285347 0.076423 0.142700
v 0.271670 0.076237 0.146936
v 0.255607 0.081745 0.137476
v 0.262060 0.082162 0.140293
v 0.252722 0.081305 0.132519
v 0.254167 0.080993 0.127227
v 0.259536 0.080934 0.123643
v 0.267391 0.081151 0.122830
v 0.266549 0.073976 0.116508
v 0.275637 0.081553 0.124505
v 0.280808 0.074736 0.120367
v 0.282081 0.081993 0.127670
v 0.284997 0.082350 0.131397
v 0.283594 0.082556 0.135113
v 0.278233 0.082591 0.138350
v 0.270347 0.082457 0.140393
v 0.268829 0.082823 0.131715
v 0.249542 0.041371 0.120173
v 0.249225 0.052108 0.117068
v 0.252878 0.041330 0.117877
v 0.260487 0.041586 0.117757
v 0.267474 0.041809 0.117477
v 0.275463 0.042248 0.119833
v 0.282799 0.042639 0.121819
v 0.291341 0.043233 0.126156
v 0.290994 0.054046 0.124174
v 0.248674 0.065923 0.119115
v 0.252344 0.065876 0.116561
v 0.261075 0.066156 0.116212
v 0.266673 0.066344 0.116123
v 0.275838 0.066833 0.118603
v 0.281716 0.067156 0.120337
v 0.290481 0.067764 0.124768
f 1 2 3
f 3 2 4
f 4 2 5
f 5 2 6
f 6 2 7
f 7 2 8
f 8 2 9
f 9 2 10
f 10 2 11
f 11 2 12
f 12 2 13
f 13 2 14
f 14 2 15
f 15 2 16
f 16 2 17
f 17 2 18
f 18 2 19
f 19 2 1
f 20 3 4
f 20 4 21
f 21 4 5
f 21 5 22
f 22 5 6
f 22 6 23
f 23 6 7
f 24 7 8
f 24 8 25
f 25 8 9
f 25 9 26
f 26 9 10
f 26 10 27
f 27 10 11
f 28 12 13
f 28 13 29
f 29 13 14
f 29 14 30
f 30 14 15
f 30 15 31
f 31 15 16
f 32 16 17
f 32 17 33
f 33 17 18
f 33 18 34
f 34 18 19
f 34 19 35
f 35 19 1
f 36 20 37
f 37 20 21
f 37 21 38
f 38 21 22
f 38 22 39
f 39 22 23
f 40 24 41
f 41 24 25
f 41 25 42
f 42 25 26
f 42 26 43
f 43 26 27
f 44 28 45
f 45 28 29
f 45 29 46
f 46 29 30
f 46 30 47
f 47 30 31
f 48 32 49
f 49 32 33
f 49 33 50
f 50 33 34
f 50 34 51
f 51 34 35
f 52 51 53
f 54 36 55
f 55 36 37
f 55 37 56
f 56 37 38
f 56 38 57
f 57 38 39
f 57 39 58
f 58 40 59
f 59 40 41
f 59 41 60
f 60 41 42
f 60 42 61
f 61 42 43
f 61 43 62
f 63 44 64
f 64 44 45
f 64 45 65
f 65 45 46
f 65 46 66
f 66 46 47
f 67 48 68
f 68 48 49
f 68 49 69
f 69 49 50
f 69 50 52
f 52 50 51
f 70 53 71
f 71 53 54
f 71 54 72
f 72 54 55
f 72 55 73
f 73 55 56
f 73 56 74
f 74 56 57
f 74 57 75
f 75 57 58
f 75 58 76
f 76 58 59
f 76 59 77
f 77 59 60
f 77 60 78
f 78 60 61
f 78 61 79
f 79 61 62
f 79 62 80
f 81 64 82
f 82 64 65
f 82 65 83
f 83 65 66
f 83 66 84
f 84 66 67
f 84 67 85
f 85 67 68
f 85 68 86
f 87 88 70
f 87 70 89
f 89 70 71
f 89 71 90
f 90 71 72
f 90 72 91
f 91 72 73
f 91 73 92
f 92 73 74
f 92 74 93
f 93 74 75
f 93 75 94
f 94 75 76
f 94 76 95
f 95 76 77
f 95 77 96
f 96 77 78
f 96 78 97
f 97 78 79
f 98 80 99
f 99 80 81
f 99 81 100
f 100 81 82
f 101 85 102
f 102 85 86
f 103 87 104
f 104 87 89
f 104 89 105
f 105 89 90
f 105 90 106
f 106 90 91
f 106 91 107
f 107 91 92
f 107 92 108
f 108 92 93
f 108 93 109
f 109 93 94
f 109 94 110
f 110 94 95
f 110 95 111
f 111 95 96
f 111 96 112
f 112 96 97
f 113 98 99
f 113 99 114
f 114 99 100
f 114 100 115
f 116 101 117
f 117 101 102
f 118 119 120
f 120 119 103
f 120 103 121
f 121 103 104
f 121 104 122
f 122 104 105
f 122 105 123
f 123 105 106
f 123 106 124
f 124 106 107
f 124 107 125
f 125 107 108
f 125 108 126
f 126 108 109
f 126 109 127
f 127 109 110
f 127 110 128
f 128 110 111
f 128 111 129
f 129 111 112
f 129 112 130
f 130 112 131
f 130 131 132
f 132 131 113
f 132 113 133
f 133 113 114
f 133 114 134
f 134 114 115
f 134 115 135
f 135 115 136
f 135 136 137
f 137 136 116
f 137 116 138
f 138 116 117
f 138 117 118
f 118 117 119
f 138 139 137
f 137 139 135
f 135 139 134
f 134 139 133
f 133 139 132
f 132 139 130
f 130 139 129
f 129 139 128
f 128 139 127
f 127 139 126
f 126 139 125
f 125 139 124
f 124 139 123
f 123 139 122
f 122 139 121
f 121 139 120
f 120 139 118
f 118 139 138
f 1 140 141
f 140 1 3
f 35 1 141
f 142 35 141
f 143 20 36
f 144 20 143
f 3 20 144
f 140 3 144
f 7 24 145
f 24 146 145
f 146 24 40
f 7 145 147
f 23 7 147
f 148 23 147
f 11 149 150
f 149 11 12
f 27 11 150
f 151 27 150
f 152 28 44
f 153 28 152
f 12 28 153
f 149 12 153
f 16 32 154
f 32 155 154
f 155 32 48
f 16 154 156
f 31 16 156
f 157 31 156
f 35 158 51
f 142 158 35
f 36 159 143
f 159 36 54
f 40 160 146
f 160 40 58
f 161 39 23
f 161 23 148
f 27 162 43
f 151 162 27
f 44 163 152
f 163 44 63
f 164 48 67
f 155 48 164
f 47 31 165
f 165 31 157
f 166 53 167
f 53 166 54
f 51 158 167
f 53 51 167
f 54 166 168
f 54 168 159
f 169 160 58
f 58 170 169
f 58 39 170
f 39 161 170
f 171 62 172
f 62 43 172
f 173 62 171
f 62 173 63
f 172 43 162
f 63 174 163
f 63 173 175
f 175 174 63
f 176 164 67
f 47 165 177
f 178 179 180
f 179 181 180
f 181 182 180
f 182 183 180
f 183 184 180
f 184 185 180
f 185 186 180
f 186 187 180
f 187 188 180
f 188 189 180
f 189 190 180
f 190 191 180
f 191 192 180
f 192 193 180
f 180 193 194
f 194 193 195
f 195 193 196
f 196 193 197
f 197 193 198
f 198 193 199
f 199 193 200
f 200 193 201
f 201 193 202
f 202 193 203
f 203 193 204
f 193 205 204
f 204 205 206
f 205 207 206
f 208 209 210
f 211 208 212
f 212 208 210
f 178 211 213
f 213 211 212
f 179 178 214
f 214 178 213
f 181 179 215
f 215 179 214
f 182 181 216
f 216 181 215
f 183 182 217
f 217 182 216
f 184 183 218
f 218 183 217
f 185 184 219
f 219 184 218
f 186 185 220
f 220 185 219
f 187 186 221
f 221 186 220
f 188 187 222
f 222 187 221
f 189 188 223
f 223 188 222
f 190 189 224
f 224 189 223
f 191 190 225
f 225 190 224
f 192 191 226
f 226 191 225
f 193 192 227
f 227 192 226
f 205 193 228
f 228 193 227
f 207 205 229
f 229 205 228
f 206 207 230
f 230 207 229
f 204 206 231
f 231 206 230
f 203 204 232
f 232 204 231
f 202 203 233
f 233 203 232
f 201 202 234
f 234 202 233
f 200 201 235
f 235 201 234
f 199 200 236
f 236 200 235
f 198 199 237
f 237 199 236
f 197 198 238
f 238 198 237
f 196 197 239
f 239 197 238
f 195 196 240
f 240 196 239
f 194 195 241
f 241 195 240
f 180 194 242
f 242 194 241
f 213 242 214
f 214 242 215
f 215 242 216
f 216 242 217
f 217 242 218
f 218 242 219
f 219 242 220
f 220 242 221
f 221 242 222
f 222 242 223
f 223 242 224
f 224 242 225
f 225 242 226
f 226 242 227
f 242 241 227
f 241 240 227
f 240 239 227
f 239 238 227
f 238 237 227
f 237 236 227
f 236 235 227
f 235 234 227
f 234 233 227
f 233 232 227
f 232 231 227
f 227 231 228
f 231 230 228
f 228 230 229
f 243 244 245
f 244 246 245
f 246 247 245
f 247 248 245
f 248 249 245
f 249 250 245
f 250 251 245
f 251 252 245
f 252 253 245
f 253 254 245
f 254 255 245
f 255 256 245
f 256 257 245
f 257 258 245
f 245 258 259
f 259 258 260
f 260 258 261
f 261 258 262
f 262 258 263
f 263 258 264
f 264 258 265
f 265 258 266
f 266 258 267
f 267 258 268
f 268 258 269
f 258 270 269
f 269 270 271
f 270 272 271
f 273 274 275
f 275 274 276
f 277 273 278
f 278 273 275
f 243 277 279
f 279 277 278
f 244 243 280
f 280 243 279
f 246 244 281
f 281 244 280
f 247 246 282
f 282 246 281
f 248 247 283
f 283 247 282
f 249 248 284
f 284 248 283
f 250 249 285
f 285 249 284
f 251 250 286
f 286 250 285
f 252 251 287
f 287 251 286
f 253 252 288
f 288 252 287
f 254 253 289
f 289 253 288
f 255 254 290
f 290 254 289
f 256 255 291
f 291 255 290
f 257 256 292
f 292 256 291
f 258 257 293
f 293 257 292
f 270 258 294
f 294 258 293
f 272 270 295
f 295 270 294
f 271 272 296
f 296 272 295
f 269 271 297
f 297 271 296
f 268 269 298
f 298 269 297
f 267 268 299
f 299 268 298
f 266 267 300
f 300 267 299
f 265 266 301
f 301 266 300
f 264 265 302
f 302 265 301
f 263 264 303
f 303 264 302
f 262 263 304
f 304 263 303
f 261 262 305
f 305 262 304
f 260 261 306
f 306 261 305
f 259 260 307
f 307 260 306
f 245 259 308
f 308 259 307
f 279 308 280
f 280 308 281
f 281 308 282
f 282 308 283
f 283 308 284
f 284 308 285
f 285 308 286
f 286 308 287
f 287 308 288
f 288 308 289
f 289 308 290
f 290 308 291
f 291 308 292
f 292 308 293
f 308 307 293
f 307 306 293
f 306 305 293
f 305 304 293
f 304 303 293
f 303 302 293
f 302 301 293
f 301 300 293
f 300 299 293
f 299 298 293
f 298 297 293
f 293 297 294
f 297 296 294
f 294 296 295
f 309 310 311
f 310 312 311
f 312 313 311
f 313 314 311
f 314 315 311
f 315 316 311
f 316 317 311
f 317 318 311
f 318 319 311
f 319 320 311
f 320 321 311
f 321 322 311
f 322 323 311
f 323 324 311
f 311 324 325
f 325 324 326
f 326 324 327
f 327 324 328
f 328 324 329
f 329 324 330
f 330 324 331
f 331 324 332
f 332 324 333
f 333 324 334
f 334 324 335
f 324 336 335
f 335 336 337
f 336 338 337
f 339 340 341
f 341 340 342
f 309 339 343
f 343 339 341
f 310 309 344
f 344 309 343
f 312 310 345
f 345 310 344
f 313 312 346
f 346 312 345
f 314 313 347
f 347 313 346
f 315 314 348
f 348 314 347
f 316 315 349
f 349 315 348
f 317 316 350
f 350 316 349
f 318 317 351
f 351 317 350
f 319 318 352
f 352 318 351
f 320 319 353
f 353 319 352
f 321 320 354
f 354 320 353
f 322 321 355
f 355 321 354
f 323 322 356
f 356 322 355
f 324 323 357
f 357 323 356
f 336 324 358
f 358 324 357
f 338 336 359
f 359 336 358
f 337 338 360
f 360 338 359
f 335 337 361
f 361 337 360
f 334 335 362
f 362 335 361
f 333 334 363
f 363 334 362
f 332 333 364
f 364 333 363
f 331 332 365
f 365 332 364
f 330 331 366
f 366 331 365
f 329 330 367
f 367 330 366
f 328 329 368
f 368 329 367
f 327 328 369
f 369 328 368
f 326 327 370
f 370 327 369
f 325 326 371
f 371 326 370
f 311 325 372
f 372 325 371
f 343 372 344
f 344 372 345
f 345 372 346
f 346 372 347
f 347 372 348
f 348 372 349
f 349 372 350
f 350 372 351
f 351 372 352
f 352 372 353
f 353 372 354
f 354 372 355
f 355 372 356
f 356 372 357
f 372 371 357
f 371 370 357
f 370 369 357
f 369 368 357
f 368 367 357
f 367 366 357
f 366 365 357
f 365 364 357
f 364 363 357
f 363 362 357
f 362 361 357
f 357 361 358
f 361 360 358
f 358 360 359
f 373 374 375
f 374 376 375
f 376 377 375
f 377 378 375
f 378 379 375
f 379 380 375
f 380 381 375
f 381 382 375
f 382 383 375
f 383 384 375
f 384 385 375
f 385 386 375
f 386 387 375
f 387 388 375
f 375 388 389
f 389 388 390
f 390 388 391
f 391 388 392
f 392 388 393
f 393 388 394
f 394 388 395
f 395 388 396
f 396 388 397
f 397 388 398
f 398 388 399
f 388 400 399
f 399 400 401
f 400 402 401
f 403 404 405
f 405 404 406
f 407 403 408
f 408 403 405
f 373 407 409
f 409 407 408
f 374 373 410
f 410 373 409
f 376 374 411
f 411 374 410
f 377 376 412
f 412 376 411
f 378 377 413
f 413 377 412
f 379 378 414
f 414 378 413
f 380 379 415
f 415 379 414
f 381 380 416
f 416 380 415
f 382 381 417
f 417 381 416
f 383 382 418
f 418 382 417
f 384 383 419
f 419 383 418
f 385 384 420
f 420 384 419
f 386 385 421
f 421 385 420
f 387 386 422
f 422 386 421
f 388 387 423
f 423 387 422
f 400 388 424
f 424 388 423
f 402 400 425
f 425 400 424
f 401 402 426
f 426 402 425
f 399 401 427
f 427 401 426
f 398 399 428
f 428 399 427
f 397 398 429
f 429 398 428
f 396 397 430
f 430 397 429
f 395 396 431
f 431 396 430
f 394 395 432
f 432 395 431
f 393 394 433
f 433 394 432
f 392 393 434
f 434 393 433
f 391 392 435
f 435 392 434
f 390 391 436
f 436 391 435
f 389 390 437
f 437 390 436
f 375 389 438
f 438 389 437
f 409 438 410
f 410 438 411
f 411 438 412
f 412 438 413
f 413 438 414
f 414 438 415
f 415 438 416
f 416 438 417
f 417 438 418
f 418 438 419
f 419 438 420
f 420 438 421
f 421 438 422
f 422 438 423
f 438 437 423
f 437 436 423
f 436 435 423
f 435 434 423
f 434 433 423
f 433 432 423
f 432 431 423
f 431 430 423
f 430 429 423
f 429 428 423
f 428 427 423
f 423 427 424
f 427 426 424
f 424 426 425
f 311 141 140
f 141 311 372
f 141 372 142
f 372 343 142
f 309 311 143
f 143 311 144
f 140 144 311
f 243 245 146
f 245 145 146
f 245 147 145
f 147 245 308
f 308 279 148
f 148 147 308
f 180 150 149
f 150 180 242
f 150 242 151
f 242 213 151
f 178 180 152
f 152 180 153
f 149 153 180
f 373 375 155
f 375 154 155
f 375 156 154
f 156 375 438
f 438 409 157
f 157 156 438
f 342 158 341
f 341 158 343
f 343 158 142
f 340 143 159
f 143 340 339
f 143 339 309
f 274 273 160
f 273 146 160
f 146 273 277
f 275 276 161
f 275 161 278
f 278 161 279
f 161 148 279
f 146 277 243
f 210 439 162
f 210 162 212
f 212 162 213
f 213 162 151
f 209 208 163
f 208 152 163
f 152 208 211
f 152 211 178
f 404 403 164
f 164 403 155
f 405 406 165
f 405 165 408
f 165 157 408
f 155 403 407
f 155 407 373
f 408 157 409
f 342 340 166
f 167 342 166
f 342 167 158
f 340 159 168
f 340 168 166
f 274 169 276
f 274 160 169
f 276 169 170
f 276 170 161
f 172 439 171
f 171 439 210
f 210 209 173
f 171 210 173
f 439 172 162
f 209 163 174
f 209 175 173
f 209 174 175
f 404 176 406
f 404 164 176
f 406 176 177
f 406 177 165
f 100 82 440
f 100 440 441
f 100 441 442
f 100 442 443
f 100 443 444
f 100 444 445
f 100 445 446
f 100 446 447
f 100 447 448
f 449 100 448
f 82 450 451
f 450 82 83
f 451 440 82
f 83 452 450
f 83 453 454
f 453 83 84
f 454 452 83
f 101 455 456
f 455 101 116
f 457 101 456
f 453 84 458
f 459 84 85
f 458 84 459
f 85 101 457
f 460 85 457
f 85 460 459
f 100 449 461
f 115 100 461
f 462 115 461
f 115 462 463
f 115 463 464
f 115 464 465
f 465 466 115
f 115 466 136
f 467 466 468
f 468 466 469
f 465 469 466
f 470 136 471
f 471 136 472
f 136 466 472
f 473 472 466
f 136 470 474
f 136 474 475
f 475 476 136
f 136 476 116
f 477 476 475
f 116 476 478
f 479 116 478
f 476 480 478
f 455 116 481
f 116 482 481
f 116 479 483
f 116 483 484
f 116 484 482
f 485 486 487
f 487 486 488
f 489 490 491
f 488 486 492
f 492 486 493
f 493 486 490
f 490 486 491
f 491 486 494
f 494 486 495
f 495 486 496
f 496 486 497
f 497 486 498
f 486 499 498
f 499 500 498
f 500 501 498
f 501 502 498
f 502 503 498
f 503 504 498
f 504 505 498
f 505 506 498
f 506 507 498
f 507 508 498
f 508 509 498
f 509 510 498
f 510 511 498
f 511 512 498
f 512 513 498
f 513 514 498
f 514 515 498
f 515 516 498
f 505 517 506
f 505 518 517
f 518 505 504
f 519 504 503
f 504 519 518
f 520 503 502
f 519 503 520
f 521 502 501
f 502 521 520
f 522 501 500
f 501 522 521
f 522 500 523
f 523 500 524
f 525 517 518
f 518 519 525
f 526 525 520
f 527 528 529
f 520 525 519
f 529 530 527
f 520 521 526
f 530 529 531
f 521 522 526
f 523 526 522
f 524 526 523
f 526 524 529
f 524 531 529
f 512 532 513
f 512 533 532
f 533 512 511
f 534 511 510
f 511 534 533
f 535 510 509
f 510 535 534
f 509 536 535
f 536 509 508
f 508 537 536
f 538 539 532
f 538 532 533
f 539 540 532
f 533 534 538
f 534 535 538
f 538 535 536
f 536 537 538
f 491 440 489
f 491 441 440
f 441 491 494
f 494 442 441
f 446 498 516
f 516 447 446
f 447 516 515
f 515 448 447
f 448 515 514
f 448 514 449
f 490 450 493
f 490 451 450
f 451 490 489
f 451 489 440
f 493 450 452
f 492 454 453
f 454 492 493
f 454 493 452
f 492 453 488
f 499 456 455
f 456 499 486
f 457 456 486
f 488 458 487
f 458 488 453
f 458 459 487
f 460 485 487
f 487 459 460
f 514 461 449
f 461 514 513
f 462 513 532
f 462 461 513
f 463 540 541
f 540 463 532
f 532 463 462
f 541 464 463
f 464 541 542
f 542 465 464
f 539 467 540
f 541 540 468
f 468 540 467
f 468 469 541
f 541 469 542
f 465 542 469
f 508 507 470
f 471 508 470
f 508 471 537
f 472 537 471
f 470 507 506
f 506 474 470
f 506 475 474
f 475 506 517
f 525 477 517
f 477 475 517
f 473 538 537
f 537 472 473
f 478 528 479
f 528 478 529
f 529 478 480
f 500 482 524
f 500 481 482
f 481 500 499
f 481 499 455
f 483 528 527
f 528 483 479
f 484 527 530
f 527 484 483
f 484 530 531
f 531 482 484
f 482 531 524
f 529 480 476
f 86 68 543
f 68 69 543
f 69 544 543
f 545 86 543
f 69 546 547
f 546 69 548
f 548 69 549
f 544 69 550
f 547 550 69
f 551 549 88
f 86 545 552
f 88 86 553
f 86 552 553
f 551 88 554
f 555 88 553
f 556 88 555
f 554 88 556
f 557 558 559
f 558 560 559
f 560 561 559
f 561 562 559
f 562 563 559
f 563 564 559
f 564 565 559
f 565 566 559
f 566 567 559
f 567 568 559
f 568 569 559
f 569 557 559
f 570 571 557
f 571 558 557
f 571 572 558
f 572 560 558
f 572 573 560
f 573 561 560
f 573 574 561
f 574 562 561
f 574 575 562
f 575 563 562
f 575 576 563
f 576 564 563
f 577 567 566
f 577 578 567
f 578 568 567
f 578 579 568
f 579 569 568
f 579 570 569
f 570 557 569
f 580 581 570
f 581 571 570
f 581 582 571
f 582 572 571
f 582 583 572
f 583 573 572
f 583 584 573
f 584 574 573
f 584 585 574
f 585 575 574
f 586 587 577
f 587 578 577
f 587 588 578
f 588 579 578
f 588 580 579
f 580 570 579
f 589 590 580
f 590 581 580
f 590 591 581
f 591 582 581
f 591 592 582
f 592 583 582
f 592 593 583
f 593 584 583
f 593 594 584
f 594 585 584
f 594 595 585
f 596 597 586
f 597 587 586
f 597 598 587
f 598 588 587
f 598 589 588
f 589 580 588
f 599 600 589
f 600 590 589
f 600 601 590
f 601 591 590
f 601 602 591
f 602 592 591
f 602 603 592
f 603 593 592
f 603 604 593
f 604 594 593
f 604 605 594
f 605 595 594
f 605 606 595
f 607 608 596
f 608 597 596
f 608 609 597
f 609 598 597
f 609 599 598
f 599 589 598
f 609 608 610
f 608 607 610
f 607 611 610
f 611 606 610
f 606 605 610
f 605 604 610
f 604 603 610
f 603 602 610
f 602 601 610
f 601 600 610
f 600 599 610
f 599 609 610
f 612 613 614
f 613 615 614
f 615 616 614
f 616 617 614
f 617 618 614
f 618 619 614
f 619 620 614
f 620 621 614
f 621 622 614
f 622 623 614
f 623 624 614
f 624 612 614
f 625 626 612
f 626 613 612
f 626 627 613
f 627 615 613
f 627 628 615
f 628 616 615
f 628 629 616
f 629 617 616
f 629 630 617
f 630 618 617
f 630 631 618
f 631 619 618
f 631 632 619
f 632 620 619
f 632 633 620
f 633 621 620
f 633 634 621
f 634 622 621
f 634 635 622
f 635 623 622
f 635 636 623
f 636 624 623
f 636 625 624
f 625 612 624
f 637 638 625
f 638 626 625
f 638 639 626
f 639 627 626
f 639 640 627
f 640 628 627
f 640 641 628
f 641 629 628
f 641 642 629
f 642 630 629
f 642 643 630
f 643 631 630
f 643 644 631
f 644 632 631
f 644 645 632
f 645 633 632
f 645 646 633
f 646 634 633
f 646 647 634
f 647 635 634
f 647 648 635
f 648 636 635
f 648 637 636
f 637 625 636
f 649 650 637
f 650 638 637
f 650 651 638
f 651 639 638
f 651 652 639
f 652 640 639
f 652 653 640
f 653 641 640
f 653 654 641
f 654 642 641
f 654 655 642
f 655 643 642
f 655 656 643
f 656 644 643
f 656 657 644
f 657 645 644
f 657 658 645
f 658 646 645
f 658 659 646
f 659 647 646
f 659 660 647
f 660 648 647
f 660 649 648
f 649 637 648
f 661 662 649
f 662 650 649
f 662 663 650
f 663 651 650
f 663 664 651
f 664 652 651
f 664 665 652
f 665 653 652
f 665 666 653
f 666 654 653
f 666 667 654
f 667 655 654
f 667 668 655
f 668 656 655
f 668 669 656
f 669 657 656
f 669 670 657
f 670 658 657
f 670 671 658
f 671 659 658
f 671 672 659
f 672 660 659
f 672 661 660
f 661 649 660
f 672 671 673
f 671 670 673
f 670 669 673
f 669 668 673
f 668 667 673
f 667 666 673
f 666 665 673
f 665 664 673
f 664 663 673
f 663 662 673
f 662 661 673
f 661 672 673
f 575 585 544
f 585 543 544
f 543 585 545
f 585 595 545
f 546 564 576
f 564 546 565
f 576 547 546
f 548 565 546
f 565 548 566
f 566 548 577
f 549 577 548
f 577 549 586
f 550 575 544
f 575 550 576
f 547 576 550
f 586 551 596
f 586 549 551
f 595 552 545
f 595 553 552
f 553 595 606
f 554 596 551
f 596 554 607
f 555 553 606
f 555 606 611
f 555 611 556
f 556 611 607
f 607 554 556
f 81 80 674
f 674 80 675
f 676 81 677
f 677 81 674
f 678 81 679
f 81 680 679
f 680 81 676
f 681 682 683
f 683 682 684
f 684 682 685
f 685 682 686
f 686 682 687
f 687 682 688
f 688 682 689
f 689 682 690
f 690 682 691
f 691 682 692
f 692 682 693
f 693 682 681
f 694 681 695
f 695 681 683
f 695 683 696
f 696 683 684
f 696 684 697
f 697 684 685
f 697 685 698
f 698 685 686
f 698 686 699
f 699 686 687
f 699 687 700
f 700 687 688
f 701 690 691
f 701 691 702
f 702 691 692
f 702 692 703
f 703 692 693
f 703 693 694
f 694 693 681
f 704 694 705
f 705 694 695
f 705 695 706
f 706 695 696
f 706 696 707
f 707 696 697
f 707 697 708
f 708 697 698
f 708 698 709
f 709 698 699
f 710 701 711
f 711 701 702
f 711 702 712
f 712 702 703
f 712 703 704
f 704 703 694
f 713 704 714
f 714 704 705
f 714 705 715
f 715 705 706
f 715 706 716
f 716 706 707
f 716 707 717
f 717 707 708
f 717 708 718
f 718 708 709
f 718 709 719
f 720 710 721
f 721 710 711
f 721 711 722
f 722 711 712
f 722 712 713
f 713 712 704
f 723 713 724
f 724 713 714
f 724 714 725
f 725 714 715
f 725 715 726
f 726 715 716
f 726 716 727
f 727 716 717
f 727 717 728
f 728 717 718
f 728 718 729
f 729 718 719
f 729 719 730
f 731 720 732
f 732 720 721
f 732 721 733
f 733 721 722
f 733 722 723
f 723 722 713
f 733 734 732
f 732 734 731
f 731 734 735
f 735 734 730
f 730 734 729
f 729 734 728
f 728 734 727
f 727 734 726
f 726 734 725
f 725 734 724
f 724 734 723
f 723 734 733
f 736 737 738
f 738 737 739
f 739 737 740
f 740 737 741
f 741 737 742
f 742 737 743
f 743 737 744
f 744 737 745
f 745 737 746
f 746 737 747
f 747 737 748
f 748 737 736
f 749 736 750
f 750 736 738
f 750 738 751
f 751 738 739
f 751 739 752
f 752 739 740
f 752 740 753
f 753 740 741
f 753 741 754
f 754 741 742
f 754 742 755
f 755 742 743
f 755 743 756
f 756 743 744
f 756 744 757
f 757 744 745
f 757 745 758
f 758 745 746
f 758 746 759
f 759 746 747
f 759 747 760
f 760 747 748
f 760 748 749
f 749 748 736
f 761 749 762
f 762 749 750
f 762 750 763
f 763 750 751
f 763 751 764
f 764 751 752
f 764 752 765
f 765 752 753
f 765 753 766
f 766 753 754
f 766 754 767
f 767 754 755
f 767 755 768
f 768 755 756
f 768 756 769
f 769 756 757
f 769 757 770
f 770 757 758
f 770 758 771
f 771 758 759
f 771 759 772
f 772 759 760
f 772 760 761
f 761 760 749
f 773 761 774
f 774 761 762
f 774 762 775
f 775 762 763
f 775 763 776
f 776 763 764
f 776 764 777
f 777 764 765
f 777 765 778
f 778 765 766
f 778 766 779
f 779 766 767
f 779 767 780
f 780 767 768
f 780 768 781
f 781 768 769
f 781 769 782
f 782 769 770
f 782 770 783
f 783 770 771
f 783 771 784
f 784 771 772
f 784 772 773
f 773 772 761
f 785 773 786
f 786 773 774
f 786 774 787
f 787 774 775
f 787 775 788
f 788 775 776
f 788 776 789
f 789 776 777
f 789 777 790
f 790 777 778
f 790 778 791
f 791 778 779
f 791 779 792
f 792 779 780
f 792 780 793
f 793 780 781
f 793 781 794
f 794 781 782
f 794 782 795
f 795 782 783
f 795 783 796
f 796 783 784
f 796 784 785
f 785 784 773
f 796 797 795
f 795 797 794
f 794 797 793
f 793 797 792
f 792 797 791
f 791 797 790
f 790 797 789
f 789 797 788
f 788 797 787
f 787 797 786
f 786 797 785
f 785 797 796
f 690 701 798
f 701 799 798
f 799 701 710
f 710 675 799
f 675 710 720
f 674 720 731
f 674 675 720
f 735 730 676
f 677 735 676
f 735 677 731
f 677 674 731
f 700 688 800
f 801 700 800
f 800 688 689
f 689 798 800
f 798 689 690
f 678 709 699
f 709 678 719
f 699 802 678
f 802 699 700
f 700 801 802
f 679 719 678
f 719 679 680
f 719 680 730
f 676 730 680
f 486 485 803
f 803 485 804
f 457 486 803
f 457 803 805
f 457 805 806
f 803 807 808
f 804 807 803
f 807 804 809
f 808 805 803
f 805 808 810
f 805 810 809
f 806 805 809
f 804 806 809
f 485 460 811
f 812 485 811
f 813 457 806
f 460 457 813
f 460 813 814
f 814 811 460
f 813 806 804
f 812 804 485
f 812 813 804
f 811 815 812
f 815 811 816
f 817 818 813
f 818 814 813
f 814 818 816
f 816 811 814
f 812 815 817
f 817 813 812
f 443 495 819
f 495 496 819
f 496 820 819
f 443 821 444
f 819 821 443
f 820 496 497
f 444 821 445
f 820 497 498
f 445 821 446
f 498 446 820
f 820 446 822
f 446 821 822
f 823 824 820
f 824 819 820
f 825 821 824
f 819 824 821
f 825 826 821
f 823 820 826
f 822 826 820
f 822 821 826
f 442 494 827
f 494 495 827
f 827 495 828
f 495 829 828
f 829 495 443
f 829 442 830
f 442 829 443
f 827 830 442
f 831 827 832
f 828 832 827
f 832 828 833
f 833 828 829
f 834 833 829
f 830 834 829
f 834 830 831
f 827 831 830
f 87 835 836
f 835 837 836
f 87 836 838
f 839 838 840
f 840 841 839
f 838 839 87
f 87 839 842
f 88 87 842
f 88 843 86
f 88 842 843
f 102 86 844
f 86 845 844
f 835 102 844
f 835 844 837
f 86 840 845
f 846 86 847
f 840 86 846
f 840 846 841
f 86 843 847
f 103 119 848
f 119 849 848
f 850 103 848
f 103 850 87
f 835 850 851
f 850 835 87
f 117 102 852
f 119 117 852
f 849 119 852
f 102 853 852
f 102 835 853
f 835 851 853
f 854 855 837
f 855 836 837
f 836 855 856
f 856 838 836
f 838 856 857
f 840 838 857
f 858 859 839
f 858 839 841
f 839 859 860
f 860 842 839
f 842 860 861
f 843 842 861
f 857 854 845
f 854 844 845
f 837 844 854
f 857 845 840
f 858 846 861
f 847 861 846
f 841 846 858
f 847 843 861
f 862 863 849
f 863 848 849
f 848 863 864
f 848 864 850
f 864 865 851
f 864 851 850
f 852 862 849
f 865 862 853
f 862 852 853
f 853 851 865
f 98 97 866
f 867 98 866
f 97 79 866
f 79 868 866
f 869 868 870
f 868 79 870
f 870 79 871
f 79 872 871
f 872 79 80
f 80 867 869
f 867 80 98
f 873 872 80
f 869 873 80
f 869 870 873
f 131 112 874
f 112 97 874
f 97 875 874
f 97 98 876
f 98 877 876
f 877 98 113
f 131 878 113
f 131 874 878
f 876 875 97
f 877 113 879
f 113 878 879
f 880 881 867
f 866 880 867
f 880 866 882
f 882 866 868
f 882 868 883
f 883 868 869
f 884 885 870
f 884 870 886
f 871 886 870
f 886 871 887
f 887 871 872
f 881 883 867
f 883 869 867
f 887 872 885
f 873 885 872
f 873 870 885
f 888 889 874
f 888 874 890
f 890 874 875
f 889 891 877
f 891 876 877
f 878 874 889
f 890 875 891
f 876 891 875
f 879 889 877
f 889 879 878
f 892 893 894
f 52 895 69
f 895 52 53
f 896 70 88
f 88 897 896
f 898 899 900
f 53 899 898
f 53 898 901
f 901 892 53
f 53 892 894
f 53 894 902
f 902 895 53
f 53 70 896
f 53 896 903
f 903 899 53
f 904 69 905
f 69 906 907
f 892 907 893
f 69 895 906
f 908 88 549
f 88 908 897
f 899 904 900
f 908 69 909
f 549 69 908
f 910 911 898
f 910 898 900
f 912 913 892
f 914 915 894
f 914 894 893
f 916 917 895
f 918 919 896
f 918 896 897
f 920 921 899
f 911 901 898
f 901 911 912
f 912 892 901
f 915 902 894
f 902 915 916
f 916 895 902
f 919 903 896
f 903 919 920
f 920 899 903
f 904 913 910
f 905 913 904
f 904 910 900
f 905 892 913
f 906 917 914
f 914 907 906
f 893 907 914
f 906 895 917
f 897 908 918
f 909 899 921
f 908 921 918
f 909 921 908
f 909 904 899
f 904 909 69
f 907 905 69
f 905 907 892
f 80 62 922
f 62 923 922
f 924 925 926
f 925 924 923
f 923 62 925
f 62 927 925
f 62 63 927
f 63 928 927
f 929 63 64
f 930 64 931
f 64 932 929
f 64 930 932
f 930 926 932
f 926 930 924
f 63 929 928
f 933 934 935
f 922 933 935
f 933 922 936
f 936 922 923
f 936 923 937
f 923 924 937
f 938 939 926
f 938 926 925
f 938 925 940
f 940 925 927
f 940 927 941
f 927 928 941
f 937 930 934
f 931 934 930
f 931 935 934
f 939 941 932
f 941 929 932
f 932 926 939
f 924 930 937
f 928 929 941
f 942 801 800
f 801 942 802
f 800 943 942
f 943 800 798
f 64 944 931
f 64 81 944
f 944 81 942
f 81 678 942
f 942 678 802
f 80 922 945
f 943 80 945
f 80 943 675
f 945 922 946
f 922 935 946
f 935 947 946
f 675 943 799
f 935 944 947
f 943 798 799
f 944 935 931
f 948 949 942
f 948 942 943
f 950 951 944
f 950 944 949
f 942 949 944
f 945 948 943
f 948 945 951
f 946 951 945
f 951 946 944
f 944 946 947
f 67 66 952
f 953 67 952
f 66 47 952
f 952 47 954
f 954 47 177
f 67 953 955
f 176 67 955
f 176 954 177
f 954 176 955
f 956 957 958
f 959 957 956
f 960 957 959
f 961 957 960
f 962 957 961
f 963 957 962
f 964 957 963
f 965 957 964
f 966 957 965
f 967 957 966
f 968 957 967
f 958 957 968
f 969 958 970
f 956 958 969
f 971 956 969
f 959 956 971
f 972 959 971
f 960 959 972
f 973 960 972
f 961 960 973
f 974 961 973
f 962 961 974
f 975 962 974
f 963 962 975
f 976 963 975
f 964 963 976
f 977 964 976
f 965 964 977
f 978 965 977
f 966 965 978
f 979 966 978
f 967 966 979
f 980 967 979
f 968 967 980
f 970 968 980
f 958 968 970
f 981 970 982
f 969 970 981
f 983 969 981
f 971 969 983
f 984 971 983
f 972 971 984
f 985 976 986
f 977 976 985
f 987 977 985
f 978 977 987
f 988 978 987
f 979 978 988
f 989 979 988
f 980 979 989
f 982 980 989
f 970 980 982
f 990 982 991
f 981 982 990
f 992 981 990
f 983 981 992
f 993 983 992
f 984 983 993
f 994 984 993
f 995 986 996
f 985 986 995
f 997 985 995
f 987 985 997
f 998 987 997
f 988 987 998
f 999 988 998
f 989 988 999
f 991 989 999
f 982 989 991
f 1000 991 1001
f 990 991 1000
f 1002 990 1000
f 992 990 1002
f 1003 992 1002
f 993 992 1003
f 1004 993 1003
f 994 993 1004
f 1005 994 1004
f 1006 994 1005
f 1007 1006 1005
f 1008 1006 1007
f 1009 1008 1007
f 996 1008 1009
f 1010 996 1009
f 995 996 1010
f 1011 995 1010
f 997 995 1011
f 1012 997 1011
f 998 997 1012
f 1013 998 1012
f 999 998 1013
f 1001 999 1013
f 991 999 1001
f 1012 1014 1013
f 1011 1014 1012
f 1010 1014 1011
f 1009 1014 1010
f 1007 1014 1009
f 1005 1014 1007
f 1004 1014 1005
f 1003 1014 1004
f 1002 1014 1003
f 1000 1014 1002
f 1001 1014 1000
f 1013 1014 1001
f 972 984 1015
f 984 1016 1015
f 973 972 1015
f 1017 973 1015
f 1018 973 1017
f 973 1018 974
f 1019 974 1018
f 1020 974 1019
f 974 1020 975
f 975 1020 1021
f 1022 975 1021
f 975 1022 976
f 1022 986 976
f 1023 986 1022
f 986 1023 996
f 1016 984 1024
f 984 994 1024
f 1025 994 1006
f 1024 994 1025
f 1006 1026 1025
f 1006 1027 1026
f 1027 1006 1008
f 1008 1028 1027
f 1008 1029 1028
f 1029 1008 996
f 996 1030 1029
f 996 1023 1030
f 1015 1016 953
f 952 1015 953
f 1015 952 1017
f 954 1017 952
f 1017 954 1018
f 1018 954 1019
f 1019 954 1020
f 1020 954 1021
f 1021 954 1022
f 1022 954 1023
f 1023 954 1030
f 1016 1024 953
f 953 1024 1025
f 1025 955 953
f 955 1025 1026
f 955 1026 1027
f 955 1027 1028
f 955 1028 1029
f 955 1029 1030
f 954 955 1030
f 525 526 529
f 467 539 538
f 538 466 467
f 466 538 473
f 477 525 476
f 525 529 476
f 807 810 808
f 807 809 810
f 815 818 817
f 815 816 818
f 824 826 825
f 824 823 826
f 831 833 834
f 831 832 833
f 864 863 865
f 863 862 865
f 856 855 857
f 855 854 857
f 860 859 861
f 859 858 861
f 891 888 890
f 891 889 888
f 883 880 882
f 883 881 880
f 887 884 886
f 887 885 884
f 913 911 910
f 913 912 911
f 917 915 914
f 917 916 915
f 921 919 918
f 921 920 919
f 937 933 936
f 937 934 933
f 941 938 940
f 941 939 938
f 950 948 951
f 950 949 948
