# Original shape: D01024.obj
# No processing applied - exact copy of source file
# Generated on 2025-10-03 20:02:34

v 0.320022 0.498077 0.134997
v 0.615042 0.469195 0.134997
v 0.542364 0.469195 0.025000
v 0.097678 0.469195 0.025000
v 0.025000 0.469195 0.134997
v 0.097678 0.469195 0.244995
v 0.542364 0.469195 0.244995
v 0.599747 0.089243 0.134997
v 0.542364 0.089243 0.042519
v 0.097678 0.089243 0.042516
v 0.040298 0.089243 0.134997
v 0.097678 0.089243 0.227478
v 0.542364 0.089243 0.227478
v 0.320022 0.025000 0.134997
v 0.170923 0.463892 0.134997
v 0.137032 0.463892 0.076300
v 0.137032 0.662826 0.107864
v 0.170923 0.644656 0.163679
v 0.069253 0.463892 0.076300
v 0.069253 0.662826 0.107864
v 0.035365 0.463892 0.134997
v 0.035365 0.644656 0.163679
v 0.069253 0.463892 0.193695
v 0.069253 0.626483 0.219495
v 0.137032 0.463892 0.193695
v 0.137032 0.626483 0.219495
v 0.103144 0.463892 0.134997
v 0.170920 0.848145 0.279240
v 0.137032 0.886772 0.235042
v 0.103144 0.865580 0.295108
v 0.069253 0.886772 0.235042
v 0.035365 0.848145 0.279240
v 0.069253 0.809521 0.323438
v 0.137032 0.809521 0.323438
v 0.315320 0.463892 0.134997
v 0.281429 0.463892 0.076300
v 0.281429 0.738240 0.137804
v 0.315320 0.713181 0.190883
v 0.213651 0.463892 0.076300
v 0.213651 0.738240 0.137804
v 0.179762 0.463892 0.134997
v 0.179762 0.713181 0.190883
v 0.213651 0.463892 0.193695
v 0.213651 0.688122 0.243963
v 0.281429 0.463892 0.193695
v 0.281429 0.688122 0.243963
v 0.247541 0.463892 0.134997
v 0.315320 0.900487 0.331164
v 0.281429 0.944375 0.292186
v 0.247541 0.915782 0.349101
v 0.213651 0.944375 0.292186
v 0.179762 0.900487 0.331164
v 0.213651 0.856601 0.370143
v 0.281429 0.856601 0.370143
v 0.456980 0.463892 0.134997
v 0.423091 0.463892 0.076300
v 0.423091 0.781012 0.159993
v 0.456980 0.752046 0.211049
v 0.355312 0.463892 0.076300
v 0.355312 0.781012 0.159993
v 0.321422 0.463892 0.134997
v 0.321422 0.752046 0.211049
v 0.355312 0.463892 0.193695
v 0.355312 0.723081 0.262101
v 0.423091 0.463892 0.193695
v 0.423091 0.723081 0.262101
v 0.389201 0.463892 0.134997
v 0.456980 0.928316 0.364969
v 0.423091 0.975000 0.329387
v 0.389201 0.942225 0.384002
v 0.355312 0.975000 0.329387
v 0.321422 0.928316 0.364969
v 0.355312 0.881632 0.400550
v 0.423091 0.881632 0.400550
v 0.600750 0.463892 0.134997
v 0.566859 0.463892 0.076300
v 0.566859 0.730041 0.134002
v 0.600750 0.705730 0.187431
v 0.499082 0.463892 0.076300
v 0.499082 0.730041 0.134002
v 0.465192 0.463892 0.134997
v 0.465192 0.705730 0.187431
v 0.499082 0.463892 0.193695
v 0.499082 0.681422 0.240857
v 0.566859 0.463892 0.193695
v 0.566859 0.681422 0.240857
v 0.532971 0.463892 0.134997
v 0.600750 0.894992 0.325063
v 0.566859 0.938326 0.285470
v 0.532971 0.910537 0.342784
v 0.499082 0.938326 0.285470
v 0.465192 0.894992 0.325063
v 0.499082 0.851658 0.364656
v 0.566859 0.851658 0.364656
v 0.683047 0.173564 0.137200
v 0.643719 0.153590 0.067880
v 0.760639 0.387029 0.106239
v 0.795743 0.373706 0.165570
v 0.565063 0.110794 0.066562
v 0.690442 0.387029 0.106239
v 0.525735 0.089382 0.134514
v 0.655344 0.373706 0.165570
v 0.565063 0.108678 0.202782
v 0.690442 0.360731 0.224950
v 0.643719 0.147242 0.203968
v 0.760639 0.360731 0.224950
v 0.604391 0.112624 0.134719
v 0.778970 0.565459 0.224044
v 0.752257 0.582241 0.180949
v 0.696722 0.602235 0.239172
v 0.698830 0.582241 0.180949
v 0.672117 0.565459 0.224044
v 0.698830 0.549009 0.267221
v 0.752257 0.549009 0.267221
f 1 2 3
f 1 3 4
f 1 4 5
f 1 5 6
f 1 6 7
f 1 7 2
f 2 8 9
f 2 9 3
f 3 9 10
f 3 10 4
f 4 10 11
f 4 11 5
f 5 11 12
f 5 12 6
f 6 12 13
f 6 13 7
f 7 13 8
f 7 8 2
f 14 13 12
f 14 12 11
f 14 11 10
f 14 10 9
f 14 9 8
f 14 8 13
f 15 16 17
f 15 17 18
f 16 19 20
f 16 20 17
f 19 21 22
f 19 22 20
f 21 23 24
f 21 24 22
f 23 25 26
f 23 26 24
f 25 15 18
f 25 18 26
f 16 15 27
f 19 16 27
f 21 19 27
f 23 21 27
f 25 23 27
f 15 25 27
f 28 29 30
f 29 31 30
f 31 32 30
f 32 33 30
f 33 34 30
f 34 28 30
f 28 18 17
f 17 29 28
f 29 17 20
f 20 31 29
f 31 20 22
f 22 32 31
f 32 22 24
f 24 33 32
f 33 24 26
f 26 34 33
f 34 26 18
f 18 28 34
f 35 36 37
f 35 37 38
f 36 39 40
f 36 40 37
f 39 41 42
f 39 42 40
f 41 43 44
f 41 44 42
f 43 45 46
f 43 46 44
f 45 35 38
f 45 38 46
f 36 35 47
f 39 36 47
f 41 39 47
f 43 41 47
f 45 43 47
f 35 45 47
f 48 49 50
f 49 51 50
f 51 52 50
f 52 53 50
f 53 54 50
f 54 48 50
f 48 38 37
f 37 49 48
f 49 37 40
f 40 51 49
f 51 40 42
f 42 52 51
f 52 42 44
f 44 53 52
f 53 44 46
f 46 54 53
f 54 46 38
f 38 48 54
f 55 56 57
f 55 57 58
f 56 59 60
f 56 60 57
f 59 61 62
f 59 62 60
f 61 63 64
f 61 64 62
f 63 65 66
f 63 66 64
f 65 55 58
f 65 58 66
f 56 55 67
f 59 56 67
f 61 59 67
f 63 61 67
f 65 63 67
f 55 65 67
f 68 69 70
f 69 71 70
f 71 72 70
f 72 73 70
f 73 74 70
f 74 68 70
f 68 58 57
f 57 69 68
f 69 57 60
f 60 71 69
f 71 60 62
f 62 72 71
f 72 62 64
f 64 73 72
f 73 64 66
f 66 74 73
f 74 66 58
f 58 68 74
f 75 76 77
f 75 77 78
f 76 79 80
f 76 80 77
f 79 81 82
f 79 82 80
f 81 83 84
f 81 84 82
f 83 85 86
f 83 86 84
f 85 75 78
f 85 78 86
f 76 75 87
f 79 76 87
f 81 79 87
f 83 81 87
f 85 83 87
f 75 85 87
f 88 89 90
f 89 91 90
f 91 92 90
f 92 93 90
f 93 94 90
f 94 88 90
f 88 78 77
f 77 89 88
f 89 77 80
f 80 91 89
f 91 80 82
f 82 92 91
f 92 82 84
f 84 93 92
f 93 84 86
f 86 94 93
f 94 86 78
f 78 88 94
f 95 96 97
f 95 97 98
f 96 99 100
f 96 100 97
f 99 101 102
f 99 102 100
f 101 103 104
f 101 104 102
f 103 105 106
f 103 106 104
f 105 95 98
f 105 98 106
f 96 95 107
f 99 96 107
f 101 99 107
f 103 101 107
f 105 103 107
f 95 105 107
f 108 109 110
f 109 111 110
f 111 112 110
f 112 113 110
f 113 114 110
f 114 108 110
f 108 98 97
f 97 109 108
f 109 97 100
f 100 111 109
f 111 100 102
f 102 112 111
f 112 102 104
f 104 113 112
f 113 104 106
f 106 114 113
f 114 106 98
f 98 108 114
