# Original shape: m333.obj
# No processing applied - exact copy of source file
# Generated on 2025-10-13 14:15:37

v 0.406208 0.025954 0.042312
v 0.349875 0.025512 0.040607
v 0.298338 0.029001 0.035361
v 0.247719 0.046763 0.025000
v 0.467285 0.041243 0.037127
v 0.195131 0.081422 0.025000
v 0.509424 0.071494 0.038832
v 0.129673 0.132844 0.040607
v 0.535657 0.103167 0.049254
v 0.114314 0.164879 0.037127
v 0.121097 0.215304 0.038832
v 0.134858 0.241828 0.037127
v 0.184982 0.285910 0.031951
v 0.258821 0.353399 0.026705
v 0.318997 0.354485 0.030185
v 0.376425 0.358151 0.031951
v 0.466622 0.362505 0.031951
v 0.557853 0.150606 0.050959
v 0.560582 0.245864 0.056134
v 0.562057 0.192843 0.052663
v 0.507039 0.335240 0.045783
v 0.540090 0.290433 0.056134
v 0.364784 0.586743 0.338172
v 0.349848 0.660344 0.419510
v 0.377785 0.656988 0.424686
v 0.394647 0.127554 0.504328
v 0.397093 0.175770 0.540638
v 0.374606 0.179197 0.504328
v 0.391917 0.124771 0.485250
v 0.453435 0.649577 0.471418
v 0.458585 0.637106 0.431637
v 0.433942 0.639349 0.422981
v 0.421789 0.646804 0.471418
v 0.466454 0.402410 0.166911
v 0.529589 0.360863 0.166911
v 0.510749 0.341360 0.113227
v 0.483404 0.438853 0.217044
v 0.502729 0.488986 0.275903
v 0.585224 0.434066 0.277608
v 0.447447 0.457366 0.217044
v 0.372936 0.526126 0.281079
v 0.440469 0.515828 0.275903
v 0.374244 0.420526 0.180734
v 0.458161 0.376019 0.106347
v 0.401456 0.651415 0.426461
v 0.394753 0.658949 0.469722
v 0.369819 0.643218 0.516455
v 0.392739 0.646866 0.507799
v 0.444250 0.579907 0.341643
v 0.480003 0.572320 0.352065
v 0.551043 0.544569 0.364131
v 0.513090 0.556492 0.358946
v 0.591707 0.535356 0.378024
v 0.644578 0.484322 0.383200
v 0.622356 0.471312 0.322636
v 0.666068 0.414087 0.352065
v 0.650938 0.400706 0.319165
v 0.633282 0.379049 0.293206
v 0.590868 0.330673 0.234347
v 0.545416 0.393949 0.223995
v 0.566067 0.309475 0.179029
v 0.550407 0.294407 0.125354
v 0.539057 0.477566 0.789837
v 0.505397 0.462718 0.789837
v 0.509866 0.488527 0.770759
v 0.535100 0.453382 0.817491
v 0.530763 0.451183 0.843450
v 0.509000 0.445310 0.838274
v 0.532980 0.417779 0.855577
v 0.508726 0.363777 0.857281
v 0.510564 0.415756 0.845216
v 0.532115 0.374562 0.872879
v 0.508806 0.329260 0.900534
v 0.529341 0.342800 0.910956
v 0.519140 0.333296 0.955922
v 0.563196 0.537105 0.770759
v 0.546503 0.524210 0.762112
v 0.546114 0.511624 0.743104
v 0.450777 0.329357 0.904014
v 0.442510 0.366445 0.872879
v 0.483572 0.364395 0.857281
v 0.447738 0.411932 0.848625
v 0.451554 0.441582 0.838274
v 0.478908 0.442050 0.829618
v 0.446546 0.448578 0.819266
v 0.447182 0.473803 0.795012
v 0.476170 0.444700 0.814020
v 0.479615 0.467249 0.782885
v 0.452879 0.491936 0.770759
v 0.457489 0.512268 0.751751
v 0.481602 0.508329 0.746575
v 0.480242 0.492404 0.767349
v 0.535763 0.351633 0.955922
v 0.546644 0.386273 0.888477
v 0.543676 0.463407 0.853872
v 0.558365 0.469714 0.831323
v 0.563991 0.493296 0.807139
v 0.544171 0.499523 0.776005
v 0.509601 0.504955 0.737920
v 0.508956 0.508806 0.751751
v 0.481735 0.502862 0.734448
v 0.505679 0.446352 0.817491
v 0.478873 0.413071 0.841745
v 0.478210 0.324376 0.897133
v 0.498030 0.318149 0.952451
v 0.467364 0.318714 0.947266
v 0.451360 0.325533 0.936915
v 0.439136 0.338437 0.923083
v 0.430294 0.373926 0.886711
v 0.431089 0.422592 0.862519
v 0.432909 0.445654 0.848625
v 0.432123 0.460395 0.831323
v 0.432229 0.483925 0.808844
v 0.431761 0.511288 0.779414
v 0.575977 0.560290 0.781181
v 0.578662 0.528599 0.743104
v 0.590727 0.561085 0.755231
v 0.552995 0.620077 0.796717
v 0.577567 0.594216 0.795012
v 0.585631 0.602606 0.760407
v 0.486963 0.640824 0.800188
v 0.523750 0.636550 0.798484
v 0.524651 0.645329 0.772534
v 0.486910 0.646336 0.772534
v 0.461296 0.639818 0.767349
v 0.457542 0.633785 0.798484
v 0.420005 0.589314 0.776005
v 0.432723 0.612525 0.781181
v 0.438579 0.625253 0.755231
v 0.419395 0.437192 0.891887
v 0.424562 0.390222 0.912661
v 0.423220 0.466834 0.872879
v 0.420799 0.482097 0.864223
v 0.418565 0.515430 0.831323
v 0.418600 0.544410 0.800188
v 0.420473 0.561960 0.769054
v 0.421798 0.548905 0.836569
v 0.421895 0.479897 0.891887
v 0.421851 0.450909 0.907485
v 0.433200 0.492696 0.905780
v 0.433306 0.516225 0.890182
v 0.434711 0.561129 0.846921
v 0.433068 0.596132 0.812315
v 0.457958 0.577390 0.859048
v 0.451651 0.499603 0.917836
v 0.429897 0.459238 0.923083
v 0.454910 0.469519 0.933443
v 0.514521 0.347455 0.971520
v 0.528988 0.364616 0.968049
v 0.511509 0.361039 0.968049
v 0.520085 0.371055 0.962873
v 0.539640 0.381265 0.957688
v 0.529085 0.422645 0.949041
v 0.517912 0.404371 0.949041
v 0.504531 0.419501 0.943795
v 0.508029 0.436548 0.945570
v 0.485029 0.438341 0.943795
v 0.465288 0.410059 0.938619
v 0.457357 0.425260 0.942090
v 0.437546 0.396996 0.935139
v 0.454734 0.353532 0.947266
v 0.446740 0.339691 0.950746
v 0.467929 0.349389 0.959393
v 0.463390 0.329030 0.961098
v 0.437325 0.349937 0.938619
v 0.455096 0.395124 0.935139
v 0.449726 0.360536 0.940386
v 0.489516 0.337174 0.975000
v 0.488792 0.346474 0.966344
v 0.457357 0.615705 0.820971
v 0.485842 0.579545 0.864223
v 0.452729 0.531903 0.895358
v 0.478422 0.503904 0.924788
v 0.505644 0.480781 0.936915
v 0.506801 0.507622 0.924788
v 0.507826 0.545434 0.895358
v 0.515978 0.577293 0.867703
v 0.518557 0.620042 0.826147
v 0.547254 0.572965 0.862519
v 0.538077 0.503295 0.916141
v 0.551069 0.608038 0.820971
v 0.564671 0.547492 0.855577
v 0.541212 0.542157 0.888477
v 0.556060 0.508497 0.888477
v 0.555697 0.466905 0.912661
v 0.536920 0.476453 0.929963
v 0.553666 0.391352 0.900534
v 0.544984 0.357806 0.931739
v 0.553843 0.414864 0.928259
v 0.557217 0.442863 0.886711
v 0.577867 0.543350 0.800188
v 0.570730 0.514741 0.826147
v 0.565616 0.492784 0.850401
v 0.552765 0.475040 0.867703
v 0.555229 0.494259 0.897133
v 0.560202 0.521692 0.872879
v 0.572267 0.583237 0.815786
v 0.465006 0.645938 0.715441
v 0.443817 0.636240 0.708490
v 0.450839 0.641319 0.661757
v 0.472540 0.652642 0.665237
v 0.484031 0.654453 0.601202
v 0.453647 0.638652 0.557941
v 0.493190 0.660644 0.509504
v 0.453435 0.649577 0.502553
v 0.490010 0.656219 0.563117
v 0.493588 0.638740 0.435108
v 0.523097 0.640392 0.438588
v 0.493190 0.660644 0.469722
v 0.517294 0.662137 0.518151
v 0.509627 0.660909 0.602969
v 0.487926 0.649586 0.718850
v 0.531205 0.648694 0.725801
v 0.542590 0.656052 0.663533
v 0.544215 0.655539 0.608144
v 0.548623 0.652298 0.559707
v 0.552465 0.652943 0.514680
v 0.552518 0.647431 0.478369
v 0.525552 0.659549 0.473194
v 0.552942 0.625589 0.441988
v 0.576727 0.609045 0.450644
v 0.580808 0.627682 0.518151
v 0.573009 0.637415 0.618505
v 0.563178 0.635013 0.725801
v 0.587768 0.603719 0.722321
v 0.593165 0.609302 0.677364
v 0.596477 0.608268 0.625447
v 0.597572 0.606060 0.594322
v 0.581311 0.629307 0.559707
v 0.598756 0.603905 0.563117
v 0.598826 0.598455 0.526806
v 0.576975 0.627108 0.487025
v 0.602933 0.582672 0.464538
v 0.599409 0.594631 0.500848
v 0.619194 0.559425 0.476603
v 0.633052 0.516941 0.495672
v 0.652377 0.474589 0.471418
v 0.676198 0.429040 0.405678
v 0.658286 0.481805 0.435108
v 0.612932 0.574034 0.530278
v 0.610220 0.571313 0.559707
v 0.606828 0.577805 0.587371
v 0.605928 0.569017 0.611624
v 0.600919 0.570589 0.684245
v 0.590692 0.532106 0.715441
v 0.598764 0.569414 0.718850
v 0.604170 0.575005 0.639279
v 0.595019 0.534314 0.687716
v 0.567171 0.497721 0.651406
v 0.566976 0.508709 0.625447
v 0.591195 0.533731 0.620271
v 0.598482 0.522373 0.597722
v 0.527875 0.493791 0.634103
v 0.546724 0.478793 0.625447
v 0.576030 0.491371 0.611624
v 0.519917 0.445521 0.620271
v 0.553109 0.458655 0.604673
v 0.507879 0.476506 0.635808
v 0.599665 0.520217 0.578715
v 0.576215 0.480383 0.592546
v 0.605318 0.509371 0.557941
v 0.579607 0.473891 0.568363
v 0.550053 0.443260 0.580419
v 0.547996 0.436698 0.549285
v 0.581877 0.469537 0.544109
v 0.619918 0.550124 0.514680
v 0.603746 0.504363 0.526806
v 0.615228 0.569741 0.502553
v 0.626525 0.484570 0.518151
v 0.571181 0.423909 0.552765
v 0.621994 0.429720 0.518151
v 0.603534 0.451872 0.538933
v 0.592326 0.404627 0.540638
v 0.640833 0.449222 0.499152
v 0.657288 0.414988 0.480074
v 0.615590 0.386388 0.528511
v 0.557243 0.373873 0.566588
v 0.585463 0.359582 0.557941
v 0.534402 0.335708 0.577010
v 0.523194 0.288463 0.573539
v 0.561977 0.290768 0.573539
v 0.569494 0.331963 0.568363
v 0.492386 0.484950 0.692892
v 0.487396 0.492015 0.713674
v 0.458284 0.497518 0.711970
v 0.464264 0.499285 0.692892
v 0.563859 0.498763 0.691187
v 0.595629 0.530551 0.639279
v 0.525861 0.481708 0.691187
v 0.553463 0.500238 0.715441
v 0.520200 0.492563 0.711970
v 0.436221 0.537087 0.687716
v 0.431284 0.538642 0.706794
v 0.457030 0.505123 0.737920
v 0.429199 0.532009 0.741400
v 0.423449 0.611872 0.703314
v 0.418662 0.573451 0.701548
v 0.419245 0.569626 0.744809
v 0.420967 0.598075 0.744809
v 0.428828 0.617392 0.666942
v 0.455847 0.639747 0.606378
v 0.477380 0.500583 0.673884
v 0.459759 0.507914 0.640983
v 0.496555 0.498207 0.646230
v 0.502146 0.492802 0.660062
v 0.441741 0.537140 0.668709
v 0.425154 0.576842 0.673884
v 0.441361 0.622515 0.618505
v 0.430851 0.594975 0.628927
v 0.375878 0.610459 0.564892
v 0.400882 0.620740 0.559707
v 0.400176 0.595541 0.597722
v 0.430798 0.600487 0.590842
v 0.422124 0.624926 0.561412
v 0.421276 0.645179 0.500848
v 0.460775 0.447747 0.692892
v 0.438818 0.452861 0.718850
v 0.445009 0.409149 0.736153
v 0.415571 0.529085 0.666942
v 0.442130 0.544295 0.642750
v 0.386132 0.521975 0.677364
v 0.391184 0.451483 0.725801
v 0.407524 0.393719 0.751751
v 0.423917 0.365005 0.739624
v 0.502553 0.153486 0.523335
v 0.493791 0.154457 0.523335
v 0.487317 0.116575 0.511208
v 0.484322 0.130221 0.526806
v 0.491759 0.078904 0.428166
v 0.523415 0.052601 0.379729
v 0.559725 0.075681 0.421285
v 0.567621 0.123968 0.490496
v 0.594860 0.100915 0.450644
v 0.635772 0.138833 0.483545
v 0.541265 0.161240 0.518151
v 0.505414 0.145307 0.493906
v 0.488862 0.121512 0.497377
v 0.508002 0.153556 0.507799
v 0.489772 0.130300 0.478369
v 0.484605 0.460183 0.628927
v 0.477133 0.482529 0.637574
v 0.483916 0.440478 0.660062
v 0.481655 0.410342 0.670413
v 0.467956 0.412859 0.699843
v 0.473291 0.389400 0.691187
v 0.485047 0.403850 0.639279
v 0.479597 0.403779 0.590842
v 0.486522 0.414237 0.596017
v 0.489666 0.389683 0.623681
v 0.490664 0.364025 0.594322
v 0.478308 0.382405 0.542405
v 0.513363 0.413089 0.590842
v 0.494515 0.428077 0.615025
v 0.489251 0.446087 0.621976
v 0.492431 0.421453 0.634103
v 0.484216 0.389612 0.668709
v 0.490028 0.338799 0.621976
v 0.500645 0.199432 0.549285
v 0.508682 0.207761 0.531982
v 0.497863 0.265569 0.557941
v 0.481567 0.259837 0.587371
v 0.492731 0.278111 0.561412
v 0.492015 0.287403 0.564892
v 0.475543 0.321576 0.647935
v 0.457507 0.385293 0.722321
v 0.447615 0.290433 0.656582
v 0.479668 0.271293 0.596017
v 0.458108 0.254502 0.599497
v 0.462603 0.245873 0.596017
v 0.488341 0.246853 0.577010
v 0.475631 0.189151 0.559707
v 0.466181 0.228394 0.589075
v 0.530278 0.385991 0.564892
v 0.503754 0.399752 0.547580
v 0.485594 0.341979 0.563117
v 0.564874 0.155685 0.123650
v 0.540523 0.107062 0.120170
v 0.579616 0.156480 0.187685
v 0.561712 0.116760 0.203212
v 0.542749 0.108219 0.168607
v 0.627629 0.164959 0.258600
v 0.625182 0.116734 0.282854
v 0.590241 0.115073 0.241298
v 0.654621 0.123835 0.324340
v 0.656484 0.175885 0.291510
v 0.684139 0.188904 0.332996
v 0.645214 0.099590 0.360721
v 0.587741 0.066875 0.374553
v 0.610988 0.083135 0.315693
v 0.620722 0.090934 0.410863
v 0.659302 0.138718 0.461067
v 0.552456 0.052540 0.329516
v 0.573292 0.078631 0.272432
v 0.538721 0.084063 0.234347
v 0.502791 0.073578 0.179029
v 0.505600 0.070911 0.120170
v 0.568549 0.196235 0.125354
v 0.567657 0.152947 0.156480
v 0.575173 0.194150 0.153079
v 0.586019 0.199812 0.175558
v 0.596583 0.158432 0.215339
v 0.601299 0.202294 0.204988
v 0.623045 0.208097 0.241298
v 0.649233 0.216222 0.275903
v 0.680738 0.229886 0.320869
v 0.621446 0.272079 0.253425
v 0.585074 0.254520 0.192861
v 0.568248 0.247092 0.139177
v 0.700117 0.309060 0.372777
v 0.596530 0.319827 0.559707
v 0.608162 0.345238 0.538933
v 0.619529 0.318025 0.592546
v 0.648491 0.352489 0.687716
v 0.664990 0.381795 0.679060
v 0.676817 0.361719 0.710195
v 0.705398 0.383588 0.744809
v 0.710972 0.412691 0.729273
v 0.742300 0.402843 0.763878
v 0.799853 0.430100 0.767349
v 0.751098 0.430851 0.744809
v 0.827171 0.465006 0.729273
v 0.854561 0.431045 0.772534
v 0.837841 0.447155 0.758702
v 0.800904 0.398922 0.782885
v 0.648818 0.365093 0.547580
v 0.683229 0.399628 0.661757
v 0.670192 0.363804 0.519855
v 0.715662 0.393074 0.640983
v 0.704347 0.414767 0.684245
v 0.752864 0.424871 0.672189
v 0.731242 0.408107 0.660062
v 0.728681 0.428828 0.699843
v 0.770661 0.441061 0.687716
v 0.749870 0.438526 0.720617
v 0.614415 0.296068 0.608144
v 0.646301 0.322327 0.689491
v 0.706379 0.357859 0.756927
v 0.677806 0.335990 0.715441
v 0.748218 0.375560 0.776005
v 0.687195 0.394735 0.703314
v 0.631153 0.343436 0.578715
v 0.631400 0.361498 0.518151
v 0.704966 0.347446 0.509504
v 0.727471 0.309528 0.428166
v 0.698854 0.351156 0.459300
v 0.745268 0.325718 0.492201
v 0.755682 0.387713 0.644455
v 0.774159 0.365623 0.639279
v 0.760769 0.346192 0.599497
v 0.732894 0.378589 0.620271
v 0.778558 0.396872 0.651406
v 0.688175 0.369006 0.421285
v 0.663736 0.389400 0.473194
v 0.645417 0.406085 0.495672
v 0.677567 0.410474 0.438588
v 0.741788 0.274181 0.421285
v 0.743263 0.221160 0.426461
v 0.710716 0.204184 0.372777
v 0.775404 0.323457 0.597722
v 0.777639 0.290123 0.597722
v 0.757669 0.243841 0.492201
v 0.783795 0.344461 0.639279
v 0.807192 0.320754 0.660062
v 0.794792 0.310155 0.635808
v 0.796841 0.351217 0.654877
v 0.777286 0.248531 0.670413
v 0.764240 0.241775 0.639279
v 0.775334 0.265499 0.613320
v 0.726623 0.202753 0.526806
v 0.713330 0.177943 0.476603
v 0.736498 0.199653 0.440293
v 0.692865 0.158953 0.443764
v 0.678398 0.141783 0.426461
v 0.686956 0.151737 0.372777
v 0.759656 0.284921 0.490496
v 0.662632 0.293630 0.308813
v 0.707766 0.246818 0.369368
v 0.707342 0.176176 0.403982
v 0.747600 0.223368 0.506033
v 0.788777 0.279410 0.646230
v 0.810982 0.292358 0.666942
v 0.654471 0.163802 0.500848
v 0.670448 0.156921 0.474898
v 0.702148 0.194168 0.544109
v 0.759877 0.239505 0.679060
v 0.802158 0.264280 0.689491
v 0.869435 0.328403 0.758702
v 0.813834 0.284179 0.744809
v 0.828072 0.283349 0.718850
v 0.718550 0.223430 0.665237
v 0.646133 0.206339 0.571772
v 0.679148 0.195970 0.557941
v 0.694755 0.239973 0.679060
v 0.742327 0.241377 0.694667
v 0.773762 0.260491 0.725801
v 0.749455 0.275417 0.744809
v 0.582460 0.182792 0.537158
v 0.613382 0.200280 0.547580
v 0.593544 0.241006 0.571772
v 0.634280 0.226344 0.592546
v 0.674679 0.262637 0.687716
v 0.658277 0.291360 0.692892
v 0.706105 0.281750 0.722321
v 0.734307 0.296527 0.756927
v 0.714522 0.331733 0.763878
v 0.827507 0.350643 0.788061
v 0.812739 0.378854 0.789837
v 0.753049 0.350476 0.784661
v 0.771077 0.321249 0.777710
v 0.692017 0.179206 0.516455
v 0.673240 0.188754 0.545814
v 0.742009 0.228764 0.647935
v 0.789174 0.257505 0.711970
v 0.865469 0.338720 0.774239
v 0.851885 0.330276 0.774239
v 0.718541 0.257920 0.715441
v 0.631771 0.178146 0.526806
v 0.590003 0.287465 0.568363
v 0.618920 0.258380 0.606378
v 0.687062 0.307735 0.722321
v 0.870221 0.411561 0.782885
v 0.856221 0.459521 0.744809
v 0.892443 0.424571 0.760407
v 0.876748 0.380515 0.784661
v 0.888575 0.360447 0.765583
v 0.877428 0.342244 0.732744
v 0.879769 0.332440 0.739624
v 0.835341 0.306481 0.703314
v 0.902406 0.386954 0.725801
v 0.908244 0.394187 0.741400
v 0.900604 0.363954 0.744809
v 0.881385 0.429835 0.715441
v 0.900701 0.421974 0.734448
v 0.895375 0.410942 0.717146
v 0.882886 0.440284 0.732744
v 0.840703 0.438977 0.708490
v 0.866167 0.456394 0.722321
v 0.858173 0.442554 0.711970
v 0.838671 0.461393 0.715441
v 0.806424 0.398975 0.684245
v 0.809877 0.387033 0.682540
v 0.793626 0.410280 0.675589
v 0.806177 0.380912 0.663533
v 0.814709 0.361949 0.668709
v 0.830369 0.342465 0.686011
v 0.822835 0.335761 0.680835
v 0.818401 0.368008 0.680835
v 0.788326 0.370243 0.647935
v 0.874628 0.442881 0.755231
v 0.900127 0.391308 0.767349
v 0.896780 0.363371 0.729273
v 0.839943 0.326813 0.701548
v 0.248143 0.400317 0.194565
v 0.306993 0.414458 0.191094
v 0.315543 0.366427 0.111523
v 0.226000 0.479827 0.298382
v 0.296024 0.512233 0.293206
v 0.297410 0.464600 0.243002
v 0.198319 0.559222 0.523335
v 0.209987 0.521136 0.557941
v 0.244151 0.537600 0.556236
v 0.272379 0.581294 0.504328
v 0.260455 0.543332 0.552765
v 0.296236 0.564724 0.552765
v 0.297198 0.602553 0.507799
v 0.318688 0.624794 0.516455
v 0.323263 0.581656 0.561412
v 0.353673 0.597519 0.570068
v 0.342129 0.664628 0.469722
v 0.342597 0.637274 0.518151
v 0.369483 0.665105 0.467947
v 0.318741 0.653844 0.471418
v 0.300042 0.628865 0.466242
v 0.269314 0.600390 0.467947
v 0.227493 0.582751 0.488730
v 0.196500 0.570713 0.493906
v 0.230858 0.576198 0.441988
v 0.204440 0.555512 0.440293
v 0.273598 0.608118 0.428166
v 0.323077 0.656052 0.426461
v 0.220957 0.515828 0.362426
v 0.307497 0.641019 0.424686
v 0.285990 0.555300 0.350299
v 0.375065 0.469254 0.230946
v 0.376558 0.381742 0.102867
v 0.172405 0.540152 0.488730
v 0.174745 0.530348 0.521631
v 0.158679 0.479200 0.545814
v 0.151710 0.503171 0.516455
v 0.188365 0.504363 0.549285
v 0.149882 0.514600 0.480074
v 0.174162 0.534173 0.447235
v 0.115859 0.487228 0.485250
v 0.114950 0.478449 0.514680
v 0.111611 0.416012 0.552765
v 0.131758 0.422389 0.561412
v 0.112697 0.448304 0.540638
v 0.093328 0.461676 0.514680
v 0.090528 0.464343 0.447235
v 0.125266 0.482415 0.447235
v 0.169013 0.483236 0.369368
v 0.109058 0.436742 0.374553
v 0.154307 0.511420 0.448940
v 0.123694 0.413998 0.319165
v 0.137287 0.387952 0.263776
v 0.234196 0.448189 0.249954
v 0.178746 0.300590 0.120170
v 0.261489 0.356208 0.118474
v 0.257602 0.043654 0.263776
v 0.270215 0.043336 0.194565
v 0.313998 0.044069 0.239593
v 0.510935 0.047452 0.279383
v 0.439586 0.057168 0.384904
v 0.419784 0.034389 0.291510
v 0.341864 0.046171 0.268952
v 0.348886 0.051241 0.253425
v 0.386636 0.050234 0.322636
v 0.318944 0.042515 0.225700
v 0.284886 0.049581 0.175558
v 0.346368 0.037542 0.198036
v 0.419651 0.039865 0.210163
v 0.458496 0.042153 0.237827
v 0.460581 0.048777 0.196341
v 0.462718 0.049890 0.173783
v 0.415959 0.033806 0.172087
v 0.349734 0.030988 0.170382
v 0.351500 0.025000 0.121874
v 0.413230 0.031024 0.118474
v 0.463319 0.046136 0.118474
v 0.287809 0.035952 0.108051
v 0.197824 0.147700 0.405678
v 0.163272 0.118642 0.381433
v 0.221010 0.134920 0.393551
v 0.165754 0.386291 0.571772
v 0.122104 0.380082 0.573539
v 0.139274 0.336556 0.602969
v 0.179656 0.407339 0.602969
v 0.165851 0.444311 0.568363
v 0.206586 0.429658 0.611624
v 0.193002 0.363230 0.632328
v 0.233101 0.450388 0.618505
v 0.218713 0.491185 0.578715
v 0.326981 0.558709 0.594322
v 0.353611 0.568469 0.609849
v 0.377388 0.586425 0.604673
v 0.357436 0.505644 0.679060
v 0.295988 0.546662 0.580419
v 0.293321 0.480454 0.653110
v 0.323643 0.496273 0.670413
v 0.249565 0.508700 0.583899
v 0.288021 0.532883 0.568363
v 0.264236 0.514936 0.578715
v 0.260243 0.461782 0.618505
v 0.392280 0.356808 0.741400
v 0.367354 0.439047 0.730977
v 0.337916 0.431946 0.724097
v 0.351332 0.382387 0.744809
v 0.339011 0.337271 0.706794
v 0.362982 0.344231 0.730977
v 0.311030 0.404115 0.708490
v 0.324835 0.367142 0.717146
v 0.164977 0.274066 0.630632
v 0.174613 0.252895 0.639279
v 0.207151 0.269880 0.630632
v 0.234797 0.224914 0.616800
v 0.224136 0.237341 0.625447
v 0.193276 0.219826 0.642750
v 0.218378 0.190158 0.627152
v 0.255315 0.145916 0.585666
v 0.261586 0.194715 0.580419
v 0.269235 0.132473 0.561412
v 0.279109 0.129373 0.525102
v 0.283384 0.166160 0.533758
v 0.273439 0.174710 0.556236
v 0.217379 0.250386 0.628927
v 0.250077 0.227395 0.658286
v 0.260773 0.273024 0.686011
v 0.274702 0.225090 0.672189
v 0.305686 0.237129 0.682540
v 0.323051 0.309652 0.680835
v 0.334983 0.255129 0.679060
v 0.349972 0.273987 0.665237
v 0.308274 0.343286 0.675589
v 0.290645 0.287200 0.692892
v 0.276257 0.327997 0.679060
v 0.245855 0.312134 0.673884
v 0.221487 0.298011 0.661757
v 0.180283 0.340018 0.599497
v 0.222741 0.382873 0.646230
v 0.292446 0.402675 0.653110
v 0.299353 0.384224 0.660062
v 0.281106 0.458867 0.616800
v 0.420543 0.273589 0.658286
v 0.368034 0.273739 0.632328
v 0.393331 0.267645 0.647935
v 0.319120 0.348948 0.668709
v 0.333685 0.326230 0.668709
v 0.475675 0.125655 0.464538
v 0.533519 0.102054 0.466242
v 0.357471 0.251702 0.651406
v 0.316939 0.220886 0.658286
v 0.298311 0.190467 0.599497
v 0.313529 0.163899 0.542405
v 0.258521 0.213820 0.635808
v 0.284718 0.216514 0.653110
v 0.328836 0.195360 0.604673
v 0.352754 0.207840 0.602969
v 0.369880 0.227811 0.599497
v 0.374994 0.249768 0.592546
v 0.406933 0.207098 0.578715
v 0.410960 0.225832 0.589075
v 0.378068 0.230663 0.563117
v 0.432776 0.231609 0.596017
v 0.437996 0.213687 0.587371
v 0.403682 0.237182 0.594322
v 0.429782 0.245263 0.601202
v 0.374712 0.202726 0.537158
v 0.358169 0.178932 0.547580
v 0.370455 0.166001 0.492201
v 0.376814 0.174860 0.490496
v 0.363618 0.179011 0.506033
v 0.382175 0.214880 0.561412
v 0.286167 0.163431 0.511208
v 0.317955 0.160728 0.518151
v 0.336476 0.167617 0.547580
v 0.337563 0.165418 0.523335
v 0.359794 0.178428 0.523335
v 0.340301 0.168200 0.507799
v 0.285124 0.160110 0.492201
v 0.290927 0.143796 0.478369
v 0.318149 0.149741 0.492201
v 0.344408 0.152408 0.493906
v 0.248249 0.140926 0.393551
v 0.249485 0.133259 0.398736
v 0.228296 0.123561 0.421285
v 0.213626 0.117317 0.422981
v 0.236758 0.110048 0.469722
v 0.216037 0.107486 0.450644
v 0.239355 0.118297 0.459300
v 0.232218 0.118756 0.443764
v 0.181785 0.125540 0.448940
v 0.184320 0.104748 0.487025
v 0.167626 0.120920 0.481849
v 0.208574 0.095342 0.500848
v 0.274490 0.143531 0.429932
v 0.274949 0.150677 0.464538
v 0.272353 0.142419 0.410863
v 0.263061 0.141703 0.403982
v 0.262672 0.129108 0.467947
v 0.262814 0.123641 0.478369
v 0.278315 0.144114 0.480074
v 0.258671 0.110445 0.518151
v 0.278200 0.149652 0.393551
v 0.281909 0.126706 0.393551
v 0.327626 0.076069 0.360721
v 0.301561 0.096967 0.371073
v 0.313379 0.111390 0.355475
v 0.351270 0.070416 0.357250
v 0.369651 0.082782 0.350299
v 0.367266 0.063607 0.364131
v 0.337677 0.096472 0.345123
v 0.282139 0.081289 0.339938
v 0.294752 0.080971 0.398736
v 0.283217 0.113581 0.416039
v 0.316965 0.059420 0.383200
v 0.400494 0.134787 0.461067
v 0.411729 0.153035 0.440293
v 0.419996 0.115948 0.461067
v 0.426011 0.146693 0.440293
v 0.404036 0.088329 0.421285
v 0.410730 0.080795 0.416039
v 0.407524 0.110798 0.433342
v 0.390725 0.068941 0.422981
v 0.371170 0.058740 0.421285
v 0.370852 0.046127 0.409158
v 0.406588 0.131016 0.504328
v 0.408690 0.103149 0.502553
v 0.412850 0.116407 0.506033
v 0.430727 0.098080 0.506033
v 0.458090 0.098548 0.506033
v 0.456836 0.106152 0.514680
v 0.430012 0.107371 0.511208
v 0.408125 0.170444 0.531982
v 0.441715 0.190741 0.570068
v 0.448922 0.184832 0.554470
v 0.439171 0.113563 0.461067
v 0.443773 0.133895 0.443764
v 0.463275 0.115056 0.466242
v 0.461376 0.126511 0.455891
v 0.325639 0.127465 0.469722
v 0.334100 0.113943 0.455891
v 0.353646 0.124091 0.464538
v 0.305139 0.079487 0.419510
v 0.321434 0.085220 0.422981
v 0.320587 0.105481 0.440293
v 0.348435 0.044105 0.407383
v 0.347128 0.057230 0.419510
v 0.327812 0.065082 0.412629
v 0.414917 0.122969 0.424686
v 0.417152 0.089636 0.402207
v 0.371382 0.047823 0.381433
v 0.399354 0.073446 0.374553
v 0.395212 0.060250 0.390080
v 0.396024 0.108988 0.431637
v 0.379305 0.125089 0.452420
v 0.392544 0.057450 0.410863
v 0.347340 0.046304 0.381433
v 0.323086 0.055710 0.402207
v 0.305845 0.104686 0.441988
v 0.351297 0.133895 0.474898
v 0.386397 0.130150 0.455891
v 0.472531 0.179276 0.544109
v 0.412002 0.102107 0.483545
v 0.461261 0.102982 0.481849
v 0.185132 0.055507 0.241298
v 0.146402 0.082243 0.239593
v 0.174480 0.073419 0.179029
v 0.112591 0.107363 0.307038
v 0.153406 0.087251 0.308813
v 0.127659 0.120761 0.364131
v 0.147259 0.159951 0.419510
v 0.114314 0.164879 0.402207
v 0.184152 0.081236 0.319165
v 0.232766 0.056885 0.135777
v 0.189663 0.081289 0.134001
v 0.196226 0.079222 0.111523
v 0.207037 0.055905 0.172087
v 0.230566 0.055790 0.153079
v 0.185839 0.080706 0.153079
v 0.241024 0.054297 0.102867
v 0.214898 0.046154 0.249954
v 0.236228 0.044944 0.179029
v 0.285601 0.040280 0.151304
v 0.139230 0.117131 0.125354
v 0.140855 0.116619 0.146128
v 0.118862 0.156162 0.114994
v 0.117308 0.151224 0.137481
v 0.131563 0.115895 0.172087
v 0.116813 0.115100 0.217044
v 0.095933 0.152514 0.198036
v 0.085811 0.137561 0.281079
v 0.068297 0.168412 0.331291
v 0.049254 0.194389 0.317460
v 0.084010 0.177969 0.393551
v 0.096711 0.137702 0.353770
v 0.055163 0.201605 0.379729
v 0.117988 0.205420 0.113227
v 0.109209 0.206330 0.134001
v 0.109129 0.148372 0.159960
v 0.100049 0.200139 0.153079
v 0.086279 0.202682 0.182438
v 0.070567 0.164058 0.260305
v 0.039803 0.233631 0.296686
v 0.039353 0.226495 0.367602
v 0.085564 0.309943 0.223995
v 0.110666 0.280275 0.173783
v 0.094953 0.241651 0.168607
v 0.105366 0.240238 0.151304
v 0.123464 0.268970 0.146128
v 0.129709 0.254299 0.121874
v 0.155888 0.354901 0.204988
v 0.059305 0.214792 0.237827
v 0.029452 0.264094 0.352065
v 0.031439 0.305174 0.341643
v 0.065320 0.338013 0.277608
v 0.086933 0.389276 0.327812
v 0.048768 0.348718 0.339938
v 0.083144 0.417673 0.378024
v 0.068659 0.400450 0.381433
v 0.041994 0.361702 0.388376
v 0.079249 0.422539 0.523335
v 0.068509 0.440408 0.497377
v 0.058139 0.407392 0.474898
v 0.055940 0.377238 0.483545
v 0.048733 0.383147 0.461067
v 0.039256 0.358911 0.443764
v 0.088249 0.468698 0.481849
v 0.067413 0.442616 0.467947
v 0.057548 0.411225 0.447235
v 0.051321 0.391396 0.440293
v 0.027261 0.326407 0.424686
v 0.037630 0.359423 0.419510
v 0.060798 0.410201 0.426461
v 0.056841 0.386026 0.384904
v 0.096560 0.368114 0.557941
v 0.076166 0.343675 0.544109
v 0.086739 0.400264 0.537158
v 0.072333 0.377582 0.519855
v 0.101339 0.441026 0.535462
v 0.064834 0.399867 0.502553
v 0.058501 0.356508 0.502553
v 0.113298 0.317513 0.592546
v 0.088496 0.296315 0.582195
v 0.118862 0.248637 0.604673
v 0.145916 0.236564 0.628927
v 0.142357 0.190485 0.625447
v 0.162892 0.204025 0.632328
v 0.126997 0.222511 0.613320
v 0.180177 0.184028 0.625447
v 0.162972 0.169508 0.611624
v 0.234806 0.127015 0.573539
v 0.172025 0.152170 0.601202
v 0.209916 0.111196 0.563117
v 0.222202 0.098265 0.540638
v 0.250413 0.113042 0.551060
v 0.028374 0.324279 0.397031
v 0.025000 0.296271 0.414334
v 0.031660 0.259758 0.422981
v 0.029248 0.275011 0.438588
v 0.032349 0.284895 0.455891
v 0.044635 0.301032 0.480074
v 0.032728 0.326548 0.448940
v 0.045959 0.351385 0.471418
v 0.060277 0.316038 0.531982
v 0.075239 0.271416 0.568363
v 0.101807 0.223218 0.587371
v 0.113563 0.208600 0.594322
v 0.128781 0.182041 0.590842
v 0.142904 0.157681 0.587371
v 0.149149 0.143001 0.577010
v 0.232615 0.096852 0.512975
v 0.195890 0.101109 0.528511
v 0.044537 0.243002 0.435108
v 0.045429 0.257214 0.450644
v 0.044202 0.264889 0.466242
v 0.060957 0.277758 0.495672
v 0.054898 0.310509 0.497377
v 0.065682 0.287129 0.512975
v 0.070779 0.245608 0.540638
v 0.097983 0.193576 0.559707
v 0.110348 0.175196 0.564892
v 0.128737 0.153062 0.559707
v 0.185874 0.109685 0.547580
v 0.068977 0.222608 0.445468
v 0.075857 0.238586 0.457595
v 0.081113 0.249644 0.500848
v 0.073066 0.241315 0.471418
v 0.081589 0.222290 0.518151
v 0.108449 0.186643 0.531982
v 0.119507 0.181387 0.531982
v 0.128154 0.156886 0.525102
v 0.153256 0.127218 0.509504
v 0.171133 0.108891 0.514680
v 0.163705 0.125716 0.504328
v 0.170868 0.217803 0.467947
v 0.140193 0.218369 0.466242
v 0.140475 0.202002 0.459300
v 0.178870 0.197144 0.473194
v 0.171981 0.215666 0.478369
v 0.171407 0.185000 0.441988
v 0.170506 0.176211 0.455891
v 0.166796 0.199158 0.455891
v 0.176273 0.188895 0.481849
v 0.148336 0.192242 0.502553
v 0.147621 0.201543 0.492201
v 0.151913 0.174772 0.488730
v 0.143664 0.177360 0.497377
v 0.167909 0.167953 0.485250
v 0.122095 0.189637 0.511208
v 0.130857 0.188665 0.512975
v 0.133931 0.169569 0.506033
v 0.152267 0.152947 0.493906
v 0.163307 0.147621 0.490496
v 0.166734 0.170108 0.471418
v 0.174613 0.160428 0.441988
v 0.167662 0.149900 0.455891
v 0.098168 0.211656 0.455891
v 0.108361 0.226592 0.493906
v 0.112008 0.203663 0.502553
v 0.143514 0.217326 0.487025
v 0.105119 0.222184 0.476603
v 0.166505 0.215525 0.485250
v 0.139151 0.215057 0.476603
v 0.106135 0.225426 0.464538
v 0.161170 0.146508 0.476603
v 0.185936 0.138727 0.424686
v 0.179479 0.164323 0.424686
v 0.161717 0.113704 0.528511
v 0.197542 0.164076 0.611624
v 0.207266 0.200933 0.634103
v 0.135618 0.261515 0.615025
v 0.054571 0.390381 0.405678
v 0.070134 0.439904 0.440293
v 0.041649 0.285610 0.282854
v 0.065576 0.263600 0.225700
v 0.136333 0.252215 0.101171
v 0.227501 0.074895 0.331291
v 0.434490 0.098680 0.481849
v 0.412806 0.185335 0.561412
v 0.421135 0.177289 0.545814
v 0.299194 0.043301 0.281079
v 0.316329 0.161232 0.504328
v 0.377874 0.241651 0.577010
v 0.344028 0.237791 0.660062
v 0.356208 0.293807 0.654877
v 0.279321 0.401368 0.654877
v 0.247101 0.397005 0.653110
v 0.234718 0.259431 0.665237
v 0.378103 0.386680 0.753456
v 0.196049 0.471100 0.577010
v 0.478255 0.035943 0.331291
v 0.399275 0.586761 0.336467
v 0.230999 0.570730 0.519855
v 0.559822 0.226177 0.564892
v 0.790649 0.296960 0.769054
v 0.609169 0.158043 0.512975
v 0.670078 0.432750 0.455891
v 0.526904 0.485029 0.665237
v 0.571834 0.639579 0.673884
v 0.558391 0.625659 0.769054
v 0.514052 0.657730 0.559707
v 0.501440 0.658048 0.665237
v 0.565148 0.520138 0.786357
v 0.550778 0.433960 0.872879
v 0.546397 0.368220 0.942090
v 0.490028 0.621720 0.824442
v 0.481054 0.541133 0.897133
v 0.480445 0.481487 0.935139
v 0.484782 0.420287 0.943795
v 0.527548 0.383209 0.955922
v 0.419704 0.576772 0.807139
v 0.423184 0.501263 0.878055
v 0.439215 0.523432 0.758702
f 1 2 3
f 3 4 5
f 4 6 7
f 6 8 9
f 8 10 9
f 10 11 9
f 11 12 13
f 13 14 15
f 15 16 9
f 16 17 9
f 17 18 9
f 17 19 20
f 17 21 19
f 21 22 19
f 23 24 25
f 26 27 28
f 28 29 26
f 30 31 32
f 32 33 30
f 34 35 36
f 37 38 39
f 40 37 34
f 41 42 40
f 43 34 44
f 32 45 46
f 47 48 46
f 31 49 32
f 25 45 49
f 49 50 42
f 38 51 39
f 38 52 51
f 53 54 55
f 54 56 57
f 58 59 39
f 60 59 61
f 36 62 22
f 63 64 65
f 66 67 68
f 69 70 71
f 69 72 70
f 73 74 75
f 76 77 78
f 79 80 81
f 82 83 84
f 85 86 87
f 86 88 87
f 89 90 91
f 91 92 89
f 93 75 74
f 94 72 69
f 95 67 96
f 67 66 96
f 97 63 98
f 99 100 91
f 91 101 99
f 92 64 88
f 92 65 64
f 87 102 68
f 103 71 70
f 104 73 105
f 105 106 104
f 107 108 79
f 80 109 110
f 83 111 85
f 111 112 85
f 86 113 114
f 115 76 116
f 116 117 115
f 118 119 120
f 121 122 123
f 123 124 121
f 125 126 121
f 127 128 129
f 109 130 110
f 109 131 130
f 111 132 133
f 113 134 135
f 127 136 135
f 137 134 133
f 138 130 139
f 138 132 130
f 138 140 141
f 137 142 143
f 126 128 143
f 144 142 141
f 145 146 147
f 145 140 146
f 148 149 150
f 149 151 150
f 152 153 154
f 155 156 157
f 158 159 160
f 161 162 163
f 162 164 163
f 165 166 160
f 165 167 166
f 160 146 139
f 131 108 165
f 165 160 131
f 162 107 106
f 168 105 75
f 167 161 166
f 158 163 169
f 151 154 155
f 121 126 170
f 171 144 172
f 173 145 147
f 157 156 174
f 173 175 176
f 171 177 178
f 118 122 178
f 179 177 176
f 180 175 174
f 119 118 181
f 182 179 183
f 184 183 180
f 185 186 153
f 152 149 93
f 94 187 188
f 189 187 190
f 76 115 191
f 97 192 193
f 95 194 190
f 195 194 184
f 196 193 192
f 191 115 119
f 119 197 191
f 129 198 199
f 129 125 198
f 200 201 202
f 203 204 205
f 203 206 204
f 31 207 50
f 208 207 209
f 210 204 206
f 211 202 201
f 212 198 125
f 212 213 214
f 211 215 216
f 217 218 219
f 219 210 217
f 52 208 220
f 221 220 218
f 222 217 216
f 223 215 214
f 224 213 123
f 224 225 226
f 223 227 228
f 229 230 231
f 232 233 221
f 232 234 233
f 235 236 237
f 238 54 239
f 235 233 234
f 240 230 241
f 240 231 230
f 242 228 243
f 244 226 225
f 117 116 245
f 245 246 117
f 247 244 248
f 247 243 228
f 249 250 251
f 242 251 252
f 242 243 251
f 250 253 254
f 254 255 250
f 256 257 254
f 254 258 256
f 255 259 252
f 255 260 259
f 240 259 261
f 240 241 259
f 262 260 257
f 263 264 265
f 261 266 240
f 261 267 266
f 235 268 266
f 269 267 265
f 270 271 272
f 270 273 271
f 236 269 274
f 275 274 271
f 276 277 278
f 276 273 277
f 279 280 281
f 281 282 279
f 283 284 285
f 285 286 283
f 287 249 288
f 289 287 290
f 290 291 289
f 245 116 290
f 116 78 290
f 291 99 101
f 285 292 286
f 285 293 292
f 285 294 295
f 295 293 285
f 296 297 298
f 299 129 199
f 300 200 301
f 302 303 304
f 302 305 283
f 302 286 306
f 286 292 306
f 306 292 307
f 307 308 309
f 307 300 308
f 48 310 311
f 48 47 310
f 312 313 314
f 314 311 312
f 205 315 314
f 308 313 309
f 308 203 313
f 316 317 318
f 319 303 320
f 320 312 319
f 320 313 312
f 319 321 322
f 318 323 324
f 325 326 327
f 326 328 327
f 329 330 331
f 332 333 334
f 332 335 336
f 337 336 338
f 337 339 336
f 340 341 342
f 341 303 316
f 343 344 345
f 346 347 348
f 349 350 351
f 348 347 352
f 353 348 352
f 352 256 353
f 256 354 353
f 355 343 346
f 355 342 343
f 349 356 357
f 358 359 360
f 361 362 363
f 364 357 356
f 365 324 366
f 367 368 369
f 369 361 367
f 370 371 358
f 370 372 371
f 325 338 359
f 277 270 373
f 277 273 270
f 374 264 263
f 374 351 375
f 363 280 279
f 376 377 9
f 378 379 380
f 381 382 383
f 384 385 386
f 387 388 389
f 387 390 388
f 391 334 333
f 388 330 392
f 388 331 330
f 384 387 389
f 383 393 394
f 380 395 396
f 18 20 397
f 398 399 400
f 401 402 403
f 385 404 405
f 404 403 406
f 402 400 407
f 399 397 408
f 19 22 62
f 61 59 407
f 406 59 58
f 57 56 409
f 410 411 278
f 278 282 410
f 412 413 414
f 415 416 417
f 418 419 420
f 419 421 420
f 422 423 419
f 419 424 422
f 425 426 427
f 426 428 427
f 429 430 431
f 429 432 430
f 433 434 421
f 435 436 413
f 413 412 435
f 415 437 416
f 415 438 437
f 418 439 424
f 420 434 432
f 440 429 426
f 441 425 411
f 425 442 411
f 443 444 445
f 443 446 444
f 447 448 449
f 449 450 447
f 430 451 447
f 428 450 443
f 427 452 453
f 427 445 452
f 276 453 454
f 276 442 453
f 275 453 455
f 455 453 452
f 455 452 238
f 456 457 458
f 459 460 461
f 462 463 464
f 462 465 463
f 466 467 468
f 469 470 471
f 472 473 474
f 448 459 449
f 448 462 459
f 446 475 456
f 476 409 477
f 478 458 457
f 479 460 468
f 479 461 460
f 480 463 481
f 480 464 463
f 482 334 391
f 483 472 470
f 484 469 467
f 485 466 486
f 487 488 489
f 490 491 492
f 490 493 491
f 494 495 496
f 497 498 499
f 500 501 502
f 503 504 505
f 506 507 508
f 508 509 506
f 483 510 511
f 511 510 484
f 490 485 494
f 490 512 485
f 495 513 488
f 487 514 515
f 515 506 509
f 496 504 516
f 504 503 516
f 493 501 500
f 517 498 497
f 518 499 519
f 436 502 520
f 437 505 508
f 424 507 521
f 522 423 422
f 523 521 524
f 525 514 487
f 526 527 528
f 529 530 531
f 532 533 534
f 532 535 533
f 536 537 538
f 536 539 537
f 540 541 542
f 541 543 542
f 544 545 546
f 544 547 545
f 542 543 451
f 543 548 451
f 433 421 539
f 539 542 433
f 537 522 549
f 533 523 550
f 531 525 487
f 489 486 481
f 465 544 546
f 546 463 465
f 540 538 532
f 545 547 534
f 534 529 545
f 529 551 552
f 553 554 555
f 556 557 558
f 559 560 561
f 562 563 564
f 564 565 562
f 566 567 568
f 47 569 570
f 47 571 569
f 566 572 573
f 562 574 575
f 576 575 577
f 577 578 576
f 579 574 573
f 580 572 569
f 569 24 580
f 581 578 577
f 579 582 583
f 23 580 24
f 583 41 557
f 583 23 41
f 558 584 43
f 555 16 15
f 555 585 16
f 576 586 587
f 588 587 589
f 588 590 587
f 591 586 592
f 591 593 594
f 595 596 597
f 598 594 593
f 599 600 601
f 601 602 599
f 603 592 601
f 581 556 601
f 601 556 604
f 605 606 553
f 607 608 14
f 14 13 607
f 609 610 611
f 393 612 394
f 393 392 612
f 330 329 613
f 614 615 616
f 614 617 615
f 618 611 610
f 610 619 618
f 618 620 616
f 616 621 614
f 621 622 614
f 612 622 394
f 621 623 622
f 395 623 624
f 625 621 620
f 626 627 628
f 624 629 396
f 630 3 2
f 628 1 5
f 631 632 633
f 634 635 636
f 634 637 638
f 634 596 595
f 595 635 634
f 590 588 638
f 639 637 640
f 639 641 642
f 567 643 644
f 645 644 646
f 647 648 649
f 560 650 561
f 560 642 650
f 563 651 564
f 563 652 651
f 648 647 651
f 641 653 650
f 650 642 641
f 652 650 653
f 654 324 323
f 655 322 321
f 321 646 655
f 655 656 657
f 658 659 657
f 657 660 661
f 657 656 660
f 662 663 664
f 665 666 667
f 665 668 669
f 669 670 665
f 671 672 673
f 673 674 671
f 675 666 676
f 677 678 679
f 680 681 682
f 680 683 684
f 683 685 684
f 677 686 687
f 688 664 687
f 689 686 685
f 690 691 660
f 660 648 692
f 324 654 693
f 693 366 324
f 694 659 658
f 694 695 659
f 696 697 658
f 339 698 329
f 329 336 339
f 329 699 336
f 700 682 681
f 701 679 678
f 676 666 665
f 670 674 702
f 674 703 702
f 674 673 703
f 704 670 705
f 670 702 705
f 701 706 707
f 700 708 709
f 710 711 712
f 713 714 372
f 715 711 713
f 368 693 716
f 368 366 693
f 715 695 709
f 717 708 718
f 708 707 718
f 28 719 720
f 28 721 719
f 28 27 722
f 673 723 724
f 725 726 727
f 728 726 724
f 729 730 731
f 728 732 719
f 633 733 734
f 735 633 734
f 735 736 633
f 737 738 739
f 738 740 739
f 631 633 736
f 741 742 743
f 741 738 742
f 744 742 738
f 745 746 747
f 746 748 747
f 746 749 748
f 750 737 739
f 723 672 751
f 751 729 723
f 723 673 672
f 672 752 750
f 750 751 672
f 753 754 747
f 755 756 757
f 758 759 760
f 617 759 761
f 762 761 757
f 757 753 762
f 754 756 763
f 763 764 754
f 765 755 758
f 29 28 720
f 720 766 29
f 766 767 768
f 767 769 768
f 770 771 772
f 773 774 775
f 776 26 777
f 777 778 776
f 779 780 781
f 781 782 779
f 783 26 776
f 783 27 26
f 371 784 785
f 786 768 787
f 768 769 787
f 788 789 698
f 790 791 792
f 793 794 795
f 796 797 798
f 698 789 799
f 789 769 799
f 789 787 769
f 769 767 799
f 799 800 698
f 801 802 803
f 801 760 802
f 613 800 802
f 802 759 617
f 617 613 802
f 791 797 774
f 773 804 805
f 773 770 804
f 799 772 771
f 803 806 775
f 807 796 808
f 763 793 809
f 730 809 790
f 732 810 811
f 783 778 782
f 785 328 812
f 785 781 328
f 29 766 813
f 766 768 813
f 784 714 710
f 29 813 777
f 777 26 29
f 786 788 814
f 327 780 814
f 814 337 327
f 815 816 817
f 818 819 820
f 821 822 820
f 823 819 815
f 824 825 826
f 827 817 828
f 817 829 828
f 830 826 6
f 609 831 832
f 828 824 833
f 833 619 828
f 630 830 4
f 834 835 836
f 835 837 836
f 838 839 840
f 841 842 843
f 844 842 845
f 844 846 842
f 818 841 839
f 817 835 829
f 817 838 835
f 825 834 826
f 10 836 847
f 847 11 10
f 848 849 850
f 848 837 849
f 851 840 852
f 853 843 854
f 855 856 857
f 858 859 860
f 856 855 861
f 12 11 847
f 860 848 858
f 848 850 858
f 857 851 862
f 853 863 864
f 865 866 605
f 865 867 866
f 602 604 868
f 869 866 867
f 870 867 864
f 871 872 873
f 874 875 876
f 877 878 872
f 872 598 877
f 873 879 880
f 881 876 882
f 870 882 880
f 883 879 878
f 599 602 868
f 883 869 884
f 636 635 885
f 886 885 887
f 887 888 886
f 595 889 871
f 890 874 891
f 891 888 890
f 892 893 894
f 895 896 897
f 895 898 896
f 663 895 897
f 897 896 899
f 896 900 899
f 901 669 668
f 899 900 902
f 901 903 904
f 672 671 905
f 881 906 907
f 863 854 908
f 909 910 907
f 910 911 912
f 891 874 913
f 888 891 914
f 893 915 916
f 898 917 896
f 917 918 896
f 900 919 920
f 921 904 744
f 904 922 744
f 908 923 924
f 910 925 926
f 927 928 914
f 915 929 930
f 917 930 931
f 919 932 920
f 933 922 904
f 923 934 924
f 934 935 924
f 925 936 926
f 925 937 936
f 928 936 938
f 938 929 928
f 939 940 931
f 931 930 939
f 932 941 942
f 943 944 743
f 743 742 943
f 922 943 742
f 945 946 947
f 948 949 945
f 950 951 952
f 951 948 952
f 947 821 950
f 953 954 948
f 954 955 948
f 953 956 957
f 958 953 948
f 959 954 960
f 959 955 954
f 961 956 962
f 961 957 956
f 963 958 964
f 964 951 965
f 965 966 964
f 935 934 967
f 968 969 938
f 970 968 971
f 972 970 973
f 822 947 967
f 822 821 947
f 974 946 973
f 959 969 955
f 959 960 940
f 940 939 959
f 941 961 962
f 944 963 975
f 975 743 944
f 966 965 976
f 976 741 966
f 965 977 631
f 631 976 965
f 743 975 966
f 942 962 963
f 940 961 941
f 940 960 961
f 939 938 969
f 969 968 970
f 967 947 946
f 945 949 973
f 955 970 972
f 936 937 971
f 974 971 935
f 971 937 935
f 844 822 967
f 975 964 966
f 962 956 958
f 960 957 961
f 960 954 957
f 948 951 964
f 956 953 958
f 953 957 954
f 955 972 948
f 951 977 965
f 951 950 977
f 948 972 949
f 948 945 952
f 945 947 952
f 933 978 943
f 942 944 943
f 943 978 942
f 931 941 932
f 931 940 941
f 929 938 930
f 938 939 930
f 926 936 928
f 924 935 925
f 935 937 925
f 846 844 934
f 920 978 933
f 920 932 978
f 931 932 919
f 919 918 931
f 916 930 917
f 914 928 929
f 926 928 927
f 927 911 926
f 924 925 910
f 910 909 924
f 854 846 923
f 902 920 933
f 896 919 900
f 896 918 919
f 894 917 898
f 894 916 917
f 886 914 915
f 927 914 891
f 891 913 927
f 912 911 927
f 907 910 912
f 907 908 909
f 907 906 864
f 907 912 881
f 905 904 921
f 979 902 903
f 668 980 899
f 905 671 669
f 899 980 667
f 662 981 895
f 981 894 898
f 981 662 636
f 887 871 890
f 887 885 635
f 893 885 886
f 893 892 885
f 982 884 870
f 983 869 883
f 983 868 869
f 983 878 877
f 982 880 879
f 906 882 870
f 875 880 882
f 872 878 879
f 913 876 881
f 890 873 875
f 889 598 872
f 884 867 870
f 868 866 869
f 868 604 866
f 866 604 605
f 984 864 867
f 985 862 853
f 858 850 851
f 986 847 848
f 13 12 986
f 986 860 13
f 860 607 13
f 865 605 861
f 856 859 858
f 865 855 985
f 862 852 843
f 850 849 840
f 847 837 848
f 847 836 837
f 826 834 8
f 829 835 834
f 834 825 829
f 816 839 838
f 845 842 841
f 843 842 846
f 839 841 852
f 835 838 849
f 834 836 10
f 833 824 830
f 610 832 828
f 987 823 831
f 828 829 825
f 828 832 827
f 831 815 827
f 632 820 819
f 845 820 822
f 815 818 816
f 815 819 818
f 814 788 698
f 698 339 337
f 779 988 814
f 777 813 988
f 989 710 27
f 710 722 27
f 371 372 714
f 988 813 768
f 990 782 781
f 776 778 783
f 731 790 810
f 746 745 764
f 764 809 730
f 765 808 793
f 801 775 796
f 800 771 806
f 811 772 799
f 799 719 811
f 799 767 720
f 792 773 805
f 792 774 773
f 795 794 798
f 800 803 802
f 759 802 760
f 800 613 329
f 808 798 794
f 794 793 808
f 809 795 791
f 791 790 809
f 775 774 797
f 787 789 788
f 785 784 989
f 990 989 27
f 781 780 327
f 779 782 777
f 782 778 777
f 811 792 805
f 811 810 792
f 773 771 770
f 773 806 771
f 811 804 772
f 811 805 804
f 720 767 766
f 758 760 801
f 763 756 765
f 756 755 765
f 747 754 764
f 764 745 747
f 991 615 761
f 733 762 753
f 733 633 762
f 633 987 762
f 758 755 761
f 761 759 758
f 753 757 756
f 739 734 748
f 921 737 750
f 746 729 751
f 746 730 729
f 751 750 749
f 740 735 734
f 734 739 740
f 737 921 744
f 736 738 741
f 741 976 736
f 823 987 632
f 987 633 632
f 740 738 736
f 747 748 753
f 748 734 733
f 733 753 748
f 992 731 732
f 724 729 992
f 724 723 729
f 721 726 728
f 721 727 726
f 703 724 726
f 717 718 727
f 721 717 727
f 721 28 717
f 718 707 706
f 712 993 709
f 709 708 717
f 716 693 695
f 716 713 369
f 993 712 711
f 714 713 711
f 722 712 717
f 994 707 708
f 705 702 706
f 702 703 725
f 704 665 670
f 705 678 676
f 994 681 679
f 694 995 682
f 661 691 696
f 661 660 691
f 995 658 697
f 693 659 695
f 693 654 659
f 691 683 696
f 691 690 996
f 997 685 683
f 640 687 686
f 998 687 664
f 664 675 998
f 684 685 686
f 697 696 683
f 684 681 680
f 684 679 681
f 998 676 678
f 697 682 995
f 670 669 671
f 980 668 665
f 664 663 667
f 667 675 664
f 675 667 666
f 649 660 656
f 649 648 660
f 999 657 659
f 646 649 656
f 999 323 322
f 692 653 996
f 692 651 652
f 997 996 653
f 564 651 647
f 561 650 652
f 643 567 564
f 644 649 646
f 644 643 649
f 310 568 644
f 1000 642 560
f 689 997 641
f 1000 638 637
f 597 596 638
f 638 596 634
f 688 640 637
f 662 664 688
f 396 629 5
f 627 2 1
f 627 626 833
f 625 628 629
f 626 620 619
f 619 833 626
f 624 623 621
f 622 623 395
f 394 622 395
f 1001 614 622
f 620 621 616
f 619 620 618
f 616 611 618
f 616 615 611
f 1001 613 617
f 1001 392 330
f 1001 612 392
f 991 611 615
f 991 987 609
f 991 762 987
f 861 553 608
f 604 556 606
f 604 602 601
f 601 592 578
f 601 600 603
f 877 593 600
f 889 597 598
f 597 594 598
f 589 594 597
f 603 600 593
f 589 587 586
f 559 587 590
f 592 586 576
f 576 578 592
f 554 43 585
f 557 41 584
f 582 580 583
f 580 23 583
f 25 1002 23
f 583 577 579
f 24 569 571
f 571 25 24
f 573 572 580
f 580 582 573
f 577 574 579
f 577 575 574
f 1003 575 576
f 565 573 574
f 570 569 572
f 570 310 47
f 570 568 310
f 565 567 566
f 565 564 567
f 1003 563 562
f 1003 561 563
f 556 583 557
f 556 581 583
f 606 558 554
f 608 555 14
f 555 15 14
f 526 552 551
f 541 532 534
f 536 538 540
f 528 481 463
f 527 489 528
f 527 487 489
f 530 550 531
f 550 525 531
f 535 549 523
f 539 421 522
f 451 430 542
f 430 433 542
f 544 465 548
f 541 547 543
f 547 544 543
f 536 540 542
f 537 535 532
f 532 538 537
f 534 533 530
f 551 527 526
f 551 531 527
f 552 528 546
f 550 524 514
f 549 422 521
f 421 423 522
f 439 508 507
f 438 520 505
f 435 502 436
f 435 519 502
f 281 499 518
f 281 1004 499
f 491 500 498
f 516 501 493
f 516 503 501
f 1005 509 504
f 514 524 506
f 1005 488 487
f 487 515 1005
f 494 485 513
f 492 512 490
f 492 484 512
f 491 511 492
f 507 506 524
f 504 509 508
f 501 503 520
f 498 500 519
f 496 495 488
f 490 494 516
f 511 491 517
f 489 513 486
f 489 488 513
f 512 467 466
f 510 470 469
f 391 472 483
f 391 473 472
f 517 1006 334
f 468 460 464
f 471 457 461
f 474 386 458
f 444 456 409
f 456 477 409
f 449 475 446
f 449 459 475
f 548 462 448
f 548 465 462
f 470 472 478
f 467 469 468
f 469 479 468
f 486 466 480
f 464 460 459
f 459 462 464
f 475 461 457
f 477 458 386
f 238 452 409
f 409 56 238
f 1007 455 238
f 454 453 275
f 278 411 442
f 443 445 427
f 431 450 428
f 431 447 450
f 448 447 451
f 451 548 448
f 450 449 446
f 452 445 444
f 444 409 452
f 414 426 425
f 417 429 440
f 417 432 429
f 421 434 420
f 416 437 439
f 413 436 438
f 410 518 435
f 435 412 410
f 432 433 430
f 432 434 433
f 426 429 431
f 425 427 453
f 453 442 425
f 419 423 421
f 418 420 417
f 417 416 418
f 413 440 414
f 413 415 440
f 410 412 441
f 518 410 282
f 476 58 57
f 407 59 406
f 407 408 62
f 408 397 20
f 408 400 399
f 408 407 400
f 407 406 403
f 406 476 405
f 381 403 404
f 378 400 402
f 397 399 398
f 398 376 397
f 377 396 7
f 379 394 395
f 382 389 393
f 474 387 384
f 474 473 387
f 390 333 331
f 390 387 473
f 389 392 393
f 389 388 392
f 385 384 382
f 401 383 379
f 398 380 377
f 279 373 375
f 279 277 373
f 360 359 280
f 280 363 362
f 352 347 351
f 351 374 352
f 373 270 264
f 264 374 373
f 338 335 359
f 338 336 335
f 358 371 325
f 361 369 372
f 364 366 367
f 366 368 367
f 345 365 364
f 367 363 357
f 370 360 362
f 350 357 363
f 363 375 350
f 346 343 349
f 343 356 349
f 354 256 341
f 256 258 341
f 342 355 353
f 351 350 375
f 349 347 346
f 355 348 353
f 342 344 343
f 342 316 344
f 304 303 258
f 303 341 258
f 325 327 337
f 337 338 325
f 1006 497 335
f 699 331 333
f 326 812 328
f 326 325 371
f 317 322 323
f 312 321 319
f 312 645 321
f 319 317 303
f 317 316 303
f 344 318 365
f 314 313 203
f 48 311 314
f 314 315 48
f 310 645 312
f 301 203 308
f 297 296 300
f 309 313 320
f 1008 289 283
f 305 304 253
f 302 306 303
f 306 320 303
f 296 199 200
f 298 136 127
f 293 295 297
f 295 298 297
f 293 297 307
f 284 294 285
f 284 101 294
f 290 78 99
f 290 287 245
f 287 248 245
f 249 287 289
f 289 1008 249
f 284 283 289
f 289 291 284
f 280 359 1004
f 1004 281 280
f 278 277 279
f 271 273 276
f 276 454 271
f 1007 237 274
f 272 271 274
f 265 264 270
f 270 272 265
f 236 266 269
f 266 267 269
f 240 266 268
f 262 265 267
f 263 257 256
f 261 259 262
f 259 260 262
f 242 252 259
f 257 260 255
f 255 254 257
f 254 253 304
f 251 250 255
f 255 252 251
f 250 249 1008
f 1004 359 335
f 335 497 1004
f 288 251 243
f 243 247 288
f 246 245 248
f 246 120 117
f 246 225 120
f 247 227 226
f 241 230 228
f 268 234 231
f 239 54 233
f 239 237 1007
f 221 54 53
f 221 233 54
f 222 231 234
f 228 230 229
f 1009 226 227
f 120 225 224
f 224 1010 120
f 1009 214 213
f 229 216 215
f 232 218 217
f 53 220 221
f 53 51 220
f 219 218 220
f 1011 216 217
f 1012 214 215
f 124 123 213
f 1012 201 198
f 1011 202 211
f 1011 206 202
f 219 209 204
f 52 207 208
f 52 50 207
f 205 204 209
f 301 202 206
f 199 198 201
f 30 209 31
f 209 207 31
f 182 192 191
f 194 193 196
f 196 184 194
f 185 190 194
f 96 194 95
f 96 193 194
f 191 192 97
f 97 1013 191
f 187 94 1014
f 1015 188 187
f 1015 93 188
f 189 153 152
f 152 1015 189
f 195 180 186
f 196 183 184
f 197 181 179
f 174 156 153
f 153 186 174
f 183 176 175
f 181 178 177
f 1016 178 122
f 1017 176 177
f 1018 174 175
f 1018 147 159
f 1017 172 145
f 1016 170 144
f 169 155 1019
f 169 150 155
f 1020 154 151
f 166 161 163
f 148 93 149
f 148 75 93
f 164 106 105
f 165 108 107
f 139 130 131
f 131 160 139
f 159 147 146
f 161 167 165
f 163 168 169
f 163 164 168
f 157 158 1019
f 157 159 158
f 156 155 154
f 152 1020 151
f 168 150 169
f 168 148 150
f 172 141 140
f 170 143 142
f 1021 143 128
f 1022 142 137
f 1022 141 142
f 139 146 140
f 133 132 138
f 138 1022 133
f 1021 135 134
f 1023 114 136
f 114 135 136
f 112 133 134
f 110 130 132
f 108 131 109
f 129 128 126
f 1023 136 295
f 136 298 295
f 123 122 118
f 119 115 117
f 117 120 119
f 90 89 114
f 85 112 113
f 82 111 83
f 82 110 111
f 79 109 80
f 79 108 109
f 90 1023 294
f 1023 295 294
f 70 73 104
f 104 81 70
f 84 71 103
f 84 68 71
f 88 64 102
f 91 100 92
f 100 65 92
f 1013 98 77
f 96 66 63
f 1014 69 67
f 188 74 72
f 91 90 294
f 89 92 88
f 88 86 89
f 83 87 84
f 83 85 87
f 80 82 81
f 82 103 81
f 107 79 104
f 100 78 77
f 100 99 78
f 72 74 73
f 67 69 71
f 63 66 64
f 66 102 64
f 98 100 77
f 98 65 100
f 35 61 62
f 39 59 60
f 55 57 58
f 238 56 54
f 55 39 51
f 51 53 55
f 50 52 38
f 38 42 50
f 42 1002 49
f 32 49 45
f 25 571 46
f 33 46 315
f 46 48 315
f 16 585 44
f 584 40 34
f 23 1002 42
f 42 38 37
f 37 60 35
f 315 205 30
f 44 36 21
f 856 607 859
f 695 694 709
f 631 977 821
f 821 977 950
f 607 860 859
f 3 5 1
f 4 7 5
f 6 9 7
f 11 13 9
f 13 15 9
f 17 20 18
f 34 36 44
f 37 39 60
f 41 40 584
f 43 44 585
f 32 46 33
f 47 46 571
f 25 49 1002
f 54 57 55
f 60 61 35
f 36 22 21
f 63 65 98
f 66 68 102
f 73 75 105
f 76 78 116
f 79 81 104
f 82 84 103
f 93 74 188
f 94 69 1014
f 97 98 1013
f 87 68 84
f 103 70 81
f 80 110 82
f 86 114 89
f 118 120 1010
f 125 121 124
f 127 129 299
f 111 133 112
f 113 135 114
f 127 135 1021
f 137 133 1022
f 138 141 1022
f 137 143 1021
f 126 143 170
f 144 141 172
f 152 154 1020
f 155 157 1019
f 158 160 166
f 162 106 164
f 168 75 148
f 158 169 1019
f 151 155 150
f 121 170 1016
f 171 172 1017
f 173 147 1018
f 157 174 1018
f 173 176 1017
f 171 178 1016
f 118 178 181
f 179 176 183
f 180 174 186
f 119 181 197
f 182 183 196
f 184 180 195
f 185 153 189
f 152 93 1015
f 189 190 185
f 76 191 1013
f 97 193 96
f 95 190 1014
f 196 192 182
f 200 202 301
f 31 50 49
f 208 209 219
f 210 206 1011
f 211 201 1012
f 212 125 124
f 212 214 1012
f 211 216 1011
f 52 220 51
f 221 218 232
f 222 216 229
f 223 214 1009
f 224 123 1010
f 224 226 1009
f 223 228 229
f 229 231 222
f 235 237 239
f 235 234 268
f 244 225 246
f 247 248 288
f 247 228 227
f 249 251 288
f 262 257 263
f 263 265 262
f 235 266 236
f 269 265 272
f 236 274 237
f 275 271 454
f 287 288 248
f 291 101 284
f 296 298 299
f 299 199 296
f 300 301 308
f 302 304 305
f 302 283 286
f 306 307 309
f 205 314 203
f 316 318 344
f 319 322 317
f 318 324 365
f 329 331 699
f 332 334 1006
f 332 336 699
f 341 316 342
f 343 345 356
f 346 348 355
f 349 351 347
f 349 357 350
f 358 360 370
f 361 363 367
f 364 356 345
f 365 366 364
f 325 359 358
f 374 263 352
f 374 375 373
f 363 279 375
f 376 9 18
f 378 380 398
f 381 383 401
f 384 386 474
f 391 333 390
f 384 389 382
f 383 394 379
f 380 396 377
f 18 397 376
f 398 400 378
f 401 403 381
f 385 405 386
f 19 62 408
f 406 58 476
f 57 409 476
f 412 414 441
f 415 417 440
f 418 424 419
f 420 432 417
f 440 426 414
f 430 447 431
f 428 443 427
f 275 455 1007
f 456 458 477
f 459 461 475
f 466 468 480
f 469 471 479
f 472 474 478
f 446 456 444
f 476 477 405
f 478 457 471
f 482 391 483
f 483 470 510
f 484 467 512
f 485 486 513
f 494 496 516
f 497 499 1004
f 500 502 519
f 503 505 520
f 483 511 482
f 511 484 492
f 515 509 1005
f 493 500 491
f 517 497 1006
f 518 519 435
f 436 520 438
f 437 508 439
f 424 521 422
f 522 422 549
f 523 524 550
f 526 528 552
f 529 531 551
f 537 549 535
f 533 550 530
f 531 487 527
f 489 481 528
f 540 532 541
f 529 552 545
f 553 555 608
f 556 558 606
f 559 561 1003
f 566 568 570
f 566 573 565
f 562 575 1003
f 579 573 582
f 581 577 583
f 558 43 554
f 576 587 559
f 591 592 603
f 591 594 589
f 595 597 889
f 598 593 877
f 605 553 861
f 609 611 991
f 330 613 1001
f 625 620 626
f 626 628 625
f 624 396 395
f 630 2 627
f 628 5 629
f 634 636 688
f 590 638 1000
f 639 640 689
f 639 642 1000
f 567 644 568
f 645 646 321
f 647 649 643
f 648 651 692
f 652 653 692
f 654 323 999
f 655 657 999
f 658 657 661
f 665 667 980
f 675 676 998
f 677 679 684
f 680 682 697
f 677 687 998
f 688 687 640
f 689 685 997
f 660 692 690
f 694 658 995
f 696 658 661
f 700 681 994
f 701 678 705
f 676 665 704
f 701 707 994
f 700 709 694
f 710 712 722
f 713 372 369
f 715 713 716
f 715 709 993
f 28 722 717
f 673 724 703
f 725 727 718
f 728 724 992
f 729 731 992
f 728 719 721
f 631 736 976
f 750 739 749
f 755 757 761
f 617 761 615
f 765 758 807
f 770 772 804
f 773 775 806
f 371 785 812
f 790 792 810
f 793 795 809
f 796 798 808
f 791 774 792
f 799 771 800
f 803 775 801
f 807 808 765
f 763 809 764
f 730 790 731
f 732 811 719
f 783 782 990
f 784 710 989
f 786 814 988
f 815 817 827
f 818 820 845
f 821 820 632
f 823 815 831
f 824 826 830
f 830 6 4
f 609 832 610
f 630 4 3
f 838 840 849
f 841 843 852
f 818 839 816
f 851 852 862
f 853 854 863
f 855 857 985
f 856 861 607
f 12 847 986
f 857 862 985
f 853 864 984
f 869 867 884
f 870 864 906
f 871 873 890
f 874 876 913
f 873 880 875
f 881 882 906
f 870 880 982
f 883 878 983
f 599 868 983
f 883 884 982
f 636 885 892
f 595 871 887
f 892 894 981
f 663 897 667
f 901 668 979
f 899 902 979
f 901 904 905
f 672 905 752
f 863 908 907
f 888 914 886
f 893 916 894
f 900 920 902
f 908 924 909
f 910 926 911
f 915 930 916
f 917 931 918
f 933 904 903
f 932 942 978
f 922 742 744
f 947 950 952
f 958 948 964
f 963 964 975
f 935 967 974
f 968 938 936
f 970 971 973
f 972 973 949
f 974 973 971
f 941 962 942
f 743 966 741
f 942 963 944
f 939 969 959
f 969 970 955
f 967 946 974
f 945 973 946
f 936 971 968
f 844 967 934
f 962 958 963
f 933 943 922
f 846 934 923
f 914 929 915
f 854 923 908
f 902 933 903
f 886 915 893
f 912 927 913
f 907 864 863
f 905 921 752
f 979 903 901
f 668 899 979
f 905 669 901
f 899 667 897
f 662 895 663
f 981 898 895
f 981 636 892
f 887 890 888
f 887 635 595
f 983 877 599
f 982 879 883
f 875 882 876
f 872 879 873
f 913 881 912
f 890 875 874
f 889 872 871
f 984 867 865
f 985 853 984
f 858 851 857
f 986 848 860
f 865 861 855
f 856 858 857
f 865 985 984
f 862 843 853
f 850 840 851
f 826 8 6
f 816 838 817
f 845 841 818
f 843 846 854
f 839 852 840
f 835 849 837
f 834 10 8
f 833 830 630
f 610 828 619
f 987 831 609
f 828 825 824
f 831 827 832
f 632 819 823
f 845 822 844
f 698 337 814
f 779 814 780
f 777 988 779
f 371 714 784
f 988 768 786
f 990 781 785
f 731 810 732
f 764 730 746
f 765 793 763
f 801 796 807
f 800 806 803
f 799 720 719
f 795 798 797
f 795 797 791
f 800 329 698
f 775 797 796
f 787 788 786
f 785 989 990
f 990 27 783
f 781 327 328
f 758 801 807
f 991 761 762
f 753 756 754
f 739 748 749
f 921 750 752
f 751 749 746
f 737 744 738
f 740 736 735
f 992 732 728
f 703 726 725
f 718 706 725
f 712 709 717
f 716 695 715
f 716 369 368
f 993 711 715
f 714 711 710
f 994 708 700
f 705 706 701
f 702 725 706
f 705 676 704
f 994 679 701
f 694 682 700
f 691 996 683
f 997 683 996
f 640 686 689
f 684 686 677
f 697 683 680
f 998 678 677
f 670 671 674
f 999 659 654
f 646 656 655
f 999 322 655
f 692 996 690
f 997 653 641
f 561 652 563
f 643 564 647
f 310 644 645
f 1000 560 590
f 689 641 639
f 1000 637 639
f 597 638 588
f 688 637 634
f 662 688 636
f 396 5 7
f 627 1 628
f 627 833 630
f 625 629 624
f 624 621 625
f 1001 622 612
f 1001 617 614
f 861 608 607
f 604 606 605
f 601 578 581
f 877 600 599
f 589 597 588
f 603 593 591
f 589 586 591
f 559 590 560
f 554 585 555
f 557 584 558
f 1003 576 559
f 565 574 562
f 570 572 566
f 606 554 553
f 541 534 547
f 528 463 546
f 535 523 533
f 539 522 537
f 544 548 543
f 536 542 539
f 534 530 529
f 552 546 545
f 550 514 525
f 549 521 523
f 439 507 424
f 438 505 437
f 491 498 517
f 1005 504 496
f 514 506 515
f 494 513 495
f 507 524 521
f 504 508 505
f 501 520 502
f 498 519 499
f 496 488 1005
f 490 516 493
f 511 517 482
f 512 466 485
f 510 469 484
f 517 334 482
f 468 464 480
f 471 461 479
f 474 458 478
f 470 478 471
f 486 480 481
f 475 457 456
f 477 386 405
f 278 442 276
f 450 446 443
f 414 425 441
f 416 439 418
f 413 438 415
f 426 431 428
f 410 441 411
f 518 282 281
f 407 62 61
f 408 20 19
f 407 403 402
f 406 405 404
f 381 404 385
f 378 402 401
f 377 7 9
f 379 395 380
f 382 393 383
f 390 331 388
f 390 473 391
f 385 382 381
f 401 379 378
f 398 377 376
f 280 362 360
f 361 372 370
f 367 357 364
f 370 362 361
f 354 341 340
f 342 353 354
f 342 354 340
f 1006 335 332
f 699 333 332
f 326 371 812
f 317 323 318
f 344 365 345
f 310 312 311
f 297 300 307
f 309 320 306
f 1008 283 305
f 305 253 1008
f 296 200 300
f 298 127 299
f 293 307 292
f 290 99 291
f 278 279 282
f 1007 274 275
f 272 274 269
f 262 267 261
f 263 256 352
f 242 259 241
f 254 304 258
f 250 1008 253
f 246 248 244
f 247 226 244
f 241 228 242
f 268 231 240
f 239 233 235
f 239 1007 238
f 222 234 232
f 1009 227 223
f 1009 213 224
f 229 215 223
f 232 217 222
f 219 220 208
f 1011 217 210
f 1012 215 211
f 124 213 212
f 1012 198 212
f 219 204 210
f 205 209 30
f 301 206 203
f 199 201 200
f 182 191 197
f 185 194 195
f 187 1014 190
f 1015 187 189
f 195 186 185
f 197 179 182
f 183 175 180
f 181 177 179
f 1016 122 121
f 1017 177 171
f 1018 175 173
f 1018 159 157
f 1017 145 173
f 1016 144 171
f 166 163 158
f 164 105 168
f 165 107 162
f 159 146 160
f 161 165 162
f 156 154 153
f 152 151 149
f 172 140 145
f 170 142 144
f 1021 128 127
f 139 140 138
f 1021 134 137
f 112 134 113
f 110 132 111
f 129 126 125
f 123 118 1010
f 90 114 1023
f 85 113 86
f 88 102 87
f 1013 77 76
f 96 63 97
f 1014 67 95
f 188 72 94
f 91 294 101
f 107 104 106
f 72 73 70
f 67 71 68
f 35 62 36
f 55 58 39
f 25 46 45
f 16 44 17
f 584 34 43
f 23 42 41
f 42 37 40
f 37 35 34
f 315 30 33
f 44 21 17
f 631 821 632
