# Final normalized shape: m1673.obj
# Applied unit bounding box scaling
# Maximum dimension = 1.0, centered at origin
# Generated on 2025-10-13 11:33:59

v -0.035286 -0.000668 -0.001325
v -0.398062 -0.219245 -0.004498
v -0.405991 0.204104 -0.007563
v -0.140151 -0.002597 0.003617
v -0.347451 -0.127551 0.001805
v -0.351983 0.114470 0.000054
v -0.296026 -0.073228 0.006285
v -0.323729 -0.082693 0.005993
v -0.323609 -0.089087 0.006039
v -0.301534 -0.070614 0.006196
v -0.277251 -0.072874 0.006525
v -0.277354 -0.067385 0.006487
v -0.296129 -0.067739 0.006246
v -0.324165 -0.059379 0.005824
v -0.324286 -0.052928 0.005777
v -0.277855 -0.040620 0.006293
v -0.324397 -0.046987 0.005734
v -0.277752 -0.046109 0.006332
v -0.324500 -0.041498 0.005694
v -0.299740 -0.003332 0.005748
v -0.304910 -0.025676 0.005837
v -0.299323 -0.025571 0.005909
v -0.305327 -0.003437 0.005676
v -0.324687 -0.031539 0.005622
v -0.283731 -0.025277 0.006109
v -0.319203 -0.025945 0.005654
v -0.319654 -0.001839 0.005479
v -0.325241 -0.001944 0.005408
v -0.278042 -0.030661 0.006221
v -0.278603 -0.000670 0.006003
v -0.284190 -0.000775 0.005932
v -0.325486 0.011127 0.005313
v -0.325383 0.005638 0.005353
v -0.284428 0.011900 0.005840
v -0.278738 0.006516 0.005951
v -0.279227 0.032602 0.005762
v -0.284814 0.032497 0.005691
v -0.320688 0.042973 0.005152
v -0.325978 0.037383 0.005123
v -0.284828 0.043648 0.005613
v -0.320880 0.053216 0.005078
v -0.326286 0.053850 0.005004
v -0.319805 0.058274 0.005057
v -0.324731 0.061011 0.004974
v -0.316564 0.062184 0.005071
v -0.311087 0.064664 0.005125
v -0.320219 0.066474 0.004994
v -0.303438 0.065714 0.005217
v -0.279333 0.038261 0.005721
v -0.285027 0.054287 0.005535
v -0.279637 0.054501 0.005604
v -0.286286 0.059074 0.005486
v -0.282066 0.062777 0.005514
v -0.289864 0.062743 0.005414
v -0.295561 0.065013 0.005324
v -0.287948 0.067987 0.005402
v -0.313071 0.070005 0.005062
v -0.303933 0.071365 0.005171
v 0.593903 -0.015032 0.006928
v 0.593610 -0.009921 0.022292
v -0.034796 -0.026865 -0.001134
v -0.035089 -0.021754 0.014229
v -0.035286 -0.000668 -0.001324
v 0.593412 0.011165 0.006739
v 0.593241 0.003245 0.031715
v -0.035458 -0.008589 0.023652
v 0.592938 0.019435 0.031598
v -0.035761 0.007602 0.023534
v 0.592816 0.032467 0.021985
v -0.035883 0.020634 0.013922
v 0.592922 0.037363 0.006550
v -0.035777 0.025529 -0.001514
v 0.593215 0.032252 -0.008814
v -0.035484 0.020419 -0.016878
v 0.593584 0.019087 -0.018237
v -0.035115 0.007253 -0.026301
v 0.593887 0.002896 -0.018120
v -0.034812 -0.008938 -0.026183
v 0.594009 -0.010136 -0.008507
v -0.034690 -0.021970 -0.016571
v -0.216674 -0.109956 -0.002912
v -0.402027 -0.007571 -0.006031
v -0.220639 0.101718 -0.004444
v -0.243801 -0.065074 0.002711
v -0.349717 -0.006540 0.000929
v -0.246067 0.055937 0.001835
v -0.309877 -0.077960 0.006139
v -0.323669 -0.085890 0.006016
v -0.309817 -0.081157 0.006162
v -0.312631 -0.076653 0.006094
v -0.298780 -0.071921 0.006241
v -0.286638 -0.073051 0.006405
v -0.289392 -0.071744 0.006360
v -0.289444 -0.069000 0.006341
v -0.277302 -0.070130 0.006506
v -0.298831 -0.069176 0.006221
v -0.286741 -0.067562 0.006366
v -0.312850 -0.064997 0.006010
v -0.310147 -0.063559 0.006035
v -0.324226 -0.056154 0.005800
v -0.310207 -0.060334 0.006011
v -0.301126 -0.043803 0.006013
v -0.301075 -0.046548 0.006033
v -0.277804 -0.043364 0.006313
v -0.324449 -0.044242 0.005714
v -0.301178 -0.041059 0.005993
v -0.302325 -0.014504 0.005793
v -0.302117 -0.025623 0.005873
v -0.299531 -0.014451 0.005829
v -0.305118 -0.014557 0.005757
v -0.302533 -0.003385 0.005712
v -0.312005 -0.028555 0.005766
v -0.304209 -0.028408 0.005866
v -0.291527 -0.025424 0.006009
v -0.314798 -0.028607 0.005730
v -0.321945 -0.028742 0.005638
v -0.312056 -0.025810 0.005746
v -0.322170 -0.016689 0.005551
v -0.319428 -0.013892 0.005567
v -0.324964 -0.016742 0.005515
v -0.322448 -0.001892 0.005444
v -0.301364 -0.031100 0.005921
v -0.280886 -0.027969 0.006165
v -0.281167 -0.012974 0.006056
v -0.278322 -0.015665 0.006112
v -0.283961 -0.013026 0.006020
v -0.281397 -0.000723 0.005968
v -0.325435 0.008383 0.005333
v -0.304905 0.008769 0.005596
v -0.304957 0.011514 0.005577
v -0.302061 0.006077 0.005652
v -0.281583 0.009208 0.005896
v -0.281827 0.022251 0.005801
v -0.278982 0.019559 0.005857
v -0.284621 0.022199 0.005765
v -0.282020 0.032550 0.005727
v -0.323333 0.040178 0.005138
v -0.305403 0.040516 0.005368
v -0.302758 0.043311 0.005382
v -0.323429 0.045299 0.005101
v -0.320784 0.048094 0.005115
v -0.326132 0.045616 0.005063
v -0.323583 0.053533 0.005041
v -0.323046 0.056062 0.005030
v -0.320343 0.055745 0.005068
v -0.325508 0.057430 0.004989
v -0.322268 0.059643 0.005015
v -0.320647 0.061598 0.005023
v -0.318185 0.060229 0.005064
v -0.317909 0.062838 0.005049
v -0.313825 0.063424 0.005098
v -0.322475 0.063743 0.004984
v -0.315653 0.065569 0.005060
v -0.307262 0.065189 0.005171
v -0.311828 0.066094 0.005105
v -0.302655 0.037822 0.005422
v -0.282080 0.040955 0.005667
v -0.284927 0.048968 0.005574
v -0.282180 0.046274 0.005628
v -0.282332 0.054394 0.005570
v -0.279485 0.046381 0.005663
v -0.285656 0.056681 0.005511
v -0.282961 0.056788 0.005545
v -0.284176 0.060926 0.005500
v -0.280852 0.058639 0.005559
v -0.288075 0.060909 0.005450
v -0.285965 0.062760 0.005464
v -0.292713 0.063878 0.005369
v -0.288814 0.063895 0.005419
v -0.304083 0.067230 0.005198
v -0.295693 0.066851 0.005309
v -0.299499 0.065364 0.005270
v -0.291754 0.066500 0.005363
v -0.285007 0.065382 0.005458
v -0.316645 0.068239 0.005028
v -0.300510 0.068996 0.005232
v -0.308502 0.070685 0.005116
v -0.295941 0.069676 0.005286
v 0.593756 -0.012476 0.014610
v 0.279407 -0.018393 0.010579
v 0.279554 -0.020949 0.002897
v 0.279260 -0.015837 0.018260
v -0.034942 -0.024310 0.006547
v -0.035041 -0.013767 -0.001229
v -0.035188 -0.011211 0.006452
v 0.593511 0.000622 0.014516
v 0.593658 -0.001933 0.006834
v 0.593425 -0.003338 0.027004
v 0.279076 -0.009255 0.022972
v 0.278892 -0.002672 0.027683
v -0.035273 -0.015171 0.018940
v -0.035372 -0.004628 0.011164
v 0.593327 0.007205 0.019227
v 0.593089 0.011340 0.031657
v 0.278740 0.005423 0.027625
v 0.278588 0.013518 0.027566
v -0.035609 -0.000493 0.023593
v -0.035524 0.003467 0.011105
v 0.593175 0.015300 0.019168
v 0.592877 0.025951 0.026792
v 0.278527 0.020034 0.022760
v 0.278466 0.026550 0.017953
v -0.035822 0.014118 0.018728
v -0.035585 0.009983 0.006299
v 0.593114 0.021816 0.014362
v 0.592869 0.034915 0.014268
v 0.278519 0.028998 0.010236
v 0.278572 0.031446 0.002518
v -0.035830 0.023082 0.006204
v -0.035532 0.012430 -0.001419
v 0.593167 0.024264 0.006644
v 0.593068 0.034807 -0.001132
v 0.278719 0.028891 -0.005164
v 0.278866 0.026335 -0.012846
v -0.035630 0.022974 -0.009196
v -0.035385 0.009875 -0.009101
v 0.593314 0.021709 -0.001038
v 0.593399 0.025669 -0.013525
v 0.279050 0.019753 -0.017557
v 0.279234 0.013170 -0.022269
v -0.035299 0.013836 -0.021589
v -0.035201 0.003293 -0.013812
v 0.593498 0.015126 -0.005749
v 0.593735 0.010991 -0.018178
v 0.279386 0.005075 -0.022210
v 0.279538 -0.003021 -0.022152
v -0.034963 -0.000842 -0.026242
v -0.035049 -0.004803 -0.013754
v 0.593650 0.007031 -0.005691
v 0.593948 -0.003620 -0.013313
v 0.279599 -0.009537 -0.017345
v 0.279660 -0.016053 -0.012539
v -0.034751 -0.015454 -0.021377
v -0.034988 -0.011319 -0.008947
v 0.593711 0.000515 -0.000884
v 0.593956 -0.012584 -0.000789
v 0.279607 -0.018501 -0.004821
v -0.034743 -0.024418 -0.008853
v -0.125980 -0.055312 -0.002118
v -0.218657 -0.004119 -0.003678
v -0.127963 0.050525 -0.002885
v -0.307368 -0.164601 -0.003705
v -0.400045 -0.113408 -0.005265
v -0.309351 -0.058764 -0.004471
v -0.404009 0.098266 -0.006797
v -0.313315 0.152911 -0.006004
v -0.311333 0.047074 -0.005237
v -0.191976 -0.033835 0.003164
v -0.244934 -0.004568 0.002273
v -0.193109 0.026670 0.002726
v -0.295626 -0.096312 0.002258
v -0.348584 -0.067046 0.001367
v -0.296759 -0.035807 0.001820
v -0.350850 0.053965 0.000491
v -0.299025 0.085203 0.000945
v -0.297892 0.024698 0.001382
v -0.302952 -0.075594 0.006212
v -0.309847 -0.079559 0.006151
v -0.302922 -0.077192 0.006224
v -0.316803 -0.080326 0.006066
v -0.323699 -0.084291 0.006004
v -0.316773 -0.081925 0.006077
v -0.323639 -0.087488 0.006027
v -0.316713 -0.085122 0.006101
v -0.316743 -0.083524 0.006089
v -0.307083 -0.073634 0.006145
v -0.305706 -0.074287 0.006167
v -0.300157 -0.071267 0.006218
v -0.318180 -0.079673 0.006043
v -0.311254 -0.077307 0.006117
v -0.297403 -0.072574 0.006263
v -0.304329 -0.074940 0.006190
v -0.294086 -0.071832 0.006301
v -0.295463 -0.071179 0.006278
v -0.291332 -0.073139 0.006345
v -0.292709 -0.072486 0.006323
v -0.281945 -0.072962 0.006465
v -0.283322 -0.072309 0.006443
v -0.288015 -0.072397 0.006383
v -0.283399 -0.068192 0.006414
v -0.283373 -0.069565 0.006424
v -0.277328 -0.068757 0.006496
v -0.295489 -0.069807 0.006268
v -0.289418 -0.070372 0.006351
v -0.277277 -0.071502 0.006516
v -0.283347 -0.070937 0.006433
v -0.297480 -0.068457 0.006233
v -0.292786 -0.068369 0.006293
v -0.291435 -0.067650 0.006306
v -0.300183 -0.069895 0.006208
v -0.294138 -0.069088 0.006281
v -0.282047 -0.067474 0.006426
v -0.288092 -0.068281 0.006354
v -0.318507 -0.062188 0.005917
v -0.311498 -0.064278 0.006022
v -0.317156 -0.061469 0.005929
v -0.307192 -0.067805 0.006103
v -0.305840 -0.067087 0.006115
v -0.303138 -0.065649 0.006140
v -0.304489 -0.066368 0.006128
v -0.324256 -0.054541 0.005789
v -0.317217 -0.058244 0.005906
v -0.317247 -0.056631 0.005894
v -0.324196 -0.057767 0.005812
v -0.317186 -0.059856 0.005918
v -0.303168 -0.064036 0.006129
v -0.310177 -0.061946 0.006023
v -0.289491 -0.042212 0.006153
v -0.289465 -0.043584 0.006163
v -0.277829 -0.041992 0.006303
v -0.312762 -0.045395 0.005874
v -0.312736 -0.046767 0.005884
v -0.301101 -0.045176 0.006023
v -0.289414 -0.046328 0.006183
v -0.277778 -0.044737 0.006323
v -0.289439 -0.044956 0.006173
v -0.324475 -0.042870 0.005704
v -0.312813 -0.042651 0.005854
v -0.312839 -0.041279 0.005844
v -0.324423 -0.045615 0.005724
v -0.312788 -0.044023 0.005864
v -0.289516 -0.040839 0.006143
v -0.301152 -0.042431 0.006003
v -0.301032 -0.008918 0.005770
v -0.300928 -0.014478 0.005811
v -0.299636 -0.008892 0.005788
v -0.303618 -0.020090 0.005815
v -0.303513 -0.025649 0.005855
v -0.302221 -0.020064 0.005833
v -0.300720 -0.025597 0.005891
v -0.299427 -0.020011 0.005869
v -0.300824 -0.020037 0.005851
v -0.305223 -0.008997 0.005717
v -0.303826 -0.008971 0.005735
v -0.303930 -0.003411 0.005694
v -0.305014 -0.020116 0.005797
v -0.303722 -0.014530 0.005775
v -0.301136 -0.003359 0.005730
v -0.302429 -0.008944 0.005752
v -0.305664 -0.027063 0.005837
v -0.301766 -0.026989 0.005887
v -0.295425 -0.025497 0.005959
v -0.318346 -0.030047 0.005694
v -0.314448 -0.029973 0.005744
v -0.308107 -0.028481 0.005816
v -0.293970 -0.026843 0.005987
v -0.287629 -0.025351 0.006059
v -0.297868 -0.026916 0.005937
v -0.309854 -0.027142 0.005784
v -0.308458 -0.027115 0.005802
v -0.319743 -0.030073 0.005676
v -0.313402 -0.028581 0.005748
v -0.307061 -0.027089 0.005819
v -0.320574 -0.027343 0.005646
v -0.317001 -0.027276 0.005692
v -0.315630 -0.025878 0.005700
v -0.323316 -0.030140 0.005630
v -0.318372 -0.028675 0.005684
v -0.308483 -0.025743 0.005792
v -0.313427 -0.027209 0.005738
v -0.320912 -0.009264 0.005515
v -0.320799 -0.015290 0.005559
v -0.319541 -0.007866 0.005523
v -0.323429 -0.024114 0.005586
v -0.322058 -0.022715 0.005594
v -0.319316 -0.019918 0.005610
v -0.320687 -0.021317 0.005602
v -0.325103 -0.009343 0.005461
v -0.323706 -0.009317 0.005479
v -0.323844 -0.001918 0.005426
v -0.324825 -0.024140 0.005569
v -0.323567 -0.016715 0.005533
v -0.321051 -0.001865 0.005462
v -0.322309 -0.009290 0.005497
v -0.292548 -0.028188 0.006015
v -0.282309 -0.026623 0.006137
v -0.313026 -0.031319 0.005772
v -0.302787 -0.029754 0.005893
v -0.289703 -0.030880 0.006071
v -0.279464 -0.029315 0.006193
v -0.291125 -0.029534 0.006043
v -0.279885 -0.006822 0.006030
v -0.279745 -0.014320 0.006084
v -0.278463 -0.008168 0.006058
v -0.282449 -0.019125 0.006083
v -0.281027 -0.020471 0.006111
v -0.278182 -0.023163 0.006166
v -0.279604 -0.021817 0.006138
v -0.284076 -0.006901 0.005976
v -0.282679 -0.006874 0.005994
v -0.282794 -0.000749 0.005950
v -0.283846 -0.019152 0.006065
v -0.282564 -0.013000 0.006038
v -0.280000 -0.000696 0.005985
v -0.281282 -0.006848 0.006012
v -0.325460 0.009755 0.005323
v -0.315196 0.009948 0.005455
v -0.315221 0.011320 0.005445
v -0.325409 0.007010 0.005343
v -0.315144 0.007204 0.005475
v -0.315170 0.008576 0.005465
v -0.294667 0.010335 0.005718
v -0.294692 0.011707 0.005708
v -0.304931 0.010141 0.005586
v -0.293244 0.008989 0.005746
v -0.283005 0.010554 0.005868
v -0.313722 0.005858 0.005503
v -0.303483 0.007423 0.005624
v -0.290399 0.006297 0.005802
v -0.280160 0.007862 0.005923
v -0.291822 0.007643 0.005774
v -0.280527 0.027427 0.005782
v -0.280405 0.020905 0.005829
v -0.279104 0.026081 0.005810
v -0.283127 0.017076 0.005821
v -0.281705 0.015730 0.005848
v -0.278860 0.013038 0.005904
v -0.280283 0.014384 0.005876
v -0.284717 0.027348 0.005728
v -0.283320 0.027374 0.005746
v -0.283417 0.032524 0.005709
v -0.284524 0.017049 0.005803
v -0.283224 0.022225 0.005783
v -0.280623 0.032576 0.005744
v -0.281924 0.027401 0.005764
v -0.322011 0.041576 0.005145
v -0.313046 0.041745 0.005260
v -0.311723 0.043142 0.005267
v -0.324655 0.038781 0.005130
v -0.315690 0.038949 0.005245
v -0.314368 0.040347 0.005253
v -0.295115 0.042082 0.005490
v -0.293793 0.043480 0.005497
v -0.304080 0.041913 0.005375
v -0.322155 0.049257 0.005089
v -0.322107 0.046697 0.005108
v -0.320832 0.050655 0.005097
v -0.324703 0.041341 0.005112
v -0.323381 0.042739 0.005119
v -0.320736 0.045534 0.005134
v -0.322059 0.044136 0.005127
v -0.326209 0.049733 0.005034
v -0.324858 0.049574 0.005052
v -0.324935 0.053691 0.005022
v -0.326055 0.041500 0.005093
v -0.324781 0.045458 0.005082
v -0.322232 0.053374 0.005060
v -0.323506 0.049416 0.005071
v -0.321426 0.057168 0.005044
v -0.321694 0.055903 0.005049
v -0.320074 0.057009 0.005062
v -0.324666 0.054956 0.005017
v -0.323315 0.054797 0.005036
v -0.320612 0.054480 0.005073
v -0.321963 0.054639 0.005054
v -0.325120 0.059221 0.004981
v -0.323888 0.058536 0.005002
v -0.323499 0.060327 0.004995
v -0.325897 0.055640 0.004996
v -0.324277 0.056746 0.005010
v -0.321037 0.058958 0.005036
v -0.322657 0.057852 0.005023
v -0.318606 0.061891 0.005047
v -0.319416 0.060913 0.005043
v -0.317374 0.061206 0.005068
v -0.322689 0.061304 0.004998
v -0.321458 0.060620 0.005019
v -0.318995 0.059251 0.005060
v -0.320226 0.059936 0.005040
v -0.314498 0.063751 0.005087
v -0.315867 0.063131 0.005074
v -0.312456 0.064044 0.005112
v -0.321320 0.061925 0.005012
v -0.319278 0.062218 0.005036
v -0.315195 0.062804 0.005085
v -0.317236 0.062511 0.005060
v -0.321347 0.065108 0.004989
v -0.319064 0.064656 0.005022
v -0.317936 0.066021 0.005027
v -0.323603 0.062377 0.004979
v -0.320192 0.063290 0.005017
v -0.313370 0.065117 0.005092
v -0.316781 0.064204 0.005054
v -0.313740 0.065832 0.005082
v -0.316023 0.066284 0.005050
v -0.309174 0.064927 0.005148
v -0.311457 0.065379 0.005115
v -0.305350 0.065452 0.005194
v -0.307633 0.065904 0.005161
v -0.309545 0.065642 0.005138
v -0.293741 0.040735 0.005517
v -0.283454 0.042302 0.005640
v -0.314316 0.037603 0.005273
v -0.304029 0.039169 0.005395
v -0.290994 0.038042 0.005572
v -0.280706 0.039608 0.005694
v -0.292368 0.039388 0.005545
v -0.284977 0.051627 0.005555
v -0.283553 0.047621 0.005601
v -0.283603 0.050280 0.005582
v -0.284877 0.046308 0.005593
v -0.283504 0.044961 0.005620
v -0.280756 0.042268 0.005675
v -0.282130 0.043614 0.005648
v -0.280984 0.054448 0.005587
v -0.280908 0.050388 0.005616
v -0.279561 0.050441 0.005633
v -0.283679 0.054340 0.005553
v -0.282256 0.050334 0.005599
v -0.279409 0.042321 0.005692
v -0.280832 0.046328 0.005646
v -0.285971 0.057878 0.005498
v -0.284309 0.056734 0.005528
v -0.284624 0.057931 0.005515
v -0.285342 0.055484 0.005523
v -0.283994 0.055537 0.005540
v -0.281299 0.055645 0.005574
v -0.282647 0.055591 0.005557
v -0.283121 0.061851 0.005507
v -0.282514 0.059782 0.005530
v -0.281459 0.060708 0.005537
v -0.285231 0.060000 0.005493
v -0.283569 0.058857 0.005522
v -0.280244 0.056570 0.005581
v -0.281907 0.057713 0.005552
v -0.288970 0.061826 0.005432
v -0.287020 0.061834 0.005457
v -0.287915 0.062752 0.005439
v -0.287181 0.059992 0.005468
v -0.286126 0.060917 0.005475
v -0.284016 0.062768 0.005489
v -0.285071 0.061843 0.005482
v -0.294137 0.064446 0.005346
v -0.290763 0.063887 0.005394
v -0.292187 0.064454 0.005371
v -0.291288 0.063311 0.005391
v -0.289339 0.063319 0.005416
v -0.285440 0.063336 0.005467
v -0.287389 0.063327 0.005442
v -0.296016 0.067609 0.005300
v -0.299888 0.067040 0.005254
v -0.291820 0.067419 0.005355
v -0.312151 0.066852 0.005096
v -0.307956 0.066662 0.005152
v -0.299565 0.066282 0.005263
v -0.303760 0.066472 0.005207
v -0.293724 0.066675 0.005336
v -0.289851 0.067244 0.005382
v -0.301468 0.065539 0.005244
v -0.297596 0.066107 0.005290
v -0.297530 0.065189 0.005297
v -0.293658 0.065757 0.005343
v -0.295627 0.065932 0.005317
v -0.288381 0.065941 0.005410
v -0.286477 0.066684 0.005430
v -0.290284 0.065198 0.005391
v -0.283537 0.064079 0.005486
v -0.286910 0.064638 0.005439
v -0.314858 0.069122 0.005045
v -0.308577 0.068618 0.005130
v -0.306790 0.069500 0.005147
v -0.318432 0.067357 0.005011
v -0.310364 0.067735 0.005113
v -0.294229 0.068491 0.005317
v -0.302296 0.068113 0.005215
v -0.306218 0.071025 0.005144
v -0.302221 0.070181 0.005201
v -0.299937 0.070521 0.005229
v -0.310787 0.070345 0.005089
v -0.304506 0.069840 0.005174
v -0.291944 0.068832 0.005344
v -0.298225 0.069336 0.005259
v 0.593830 -0.013754 0.010769
v 0.436655 -0.016713 0.008754
v 0.436728 -0.017990 0.004913
v 0.593683 -0.011198 0.018451
v 0.436508 -0.014157 0.016436
v 0.436582 -0.015435 0.012595
v 0.122306 -0.022629 0.004722
v 0.122379 -0.023907 0.000881
v 0.279480 -0.019671 0.006738
v 0.436435 -0.012879 0.020276
v 0.279334 -0.017115 0.014420
v 0.122086 -0.018796 0.016245
v -0.035016 -0.023032 0.010388
v 0.122159 -0.020074 0.012404
v -0.034869 -0.025588 0.002706
v 0.122232 -0.021351 0.008563
v -0.035164 -0.007218 -0.001277
v -0.035114 -0.012489 0.002612
v -0.035237 -0.005940 0.002564
v -0.034918 -0.020316 -0.001182
v -0.034992 -0.019038 0.002659
v -0.035138 -0.016483 0.010340
v -0.035065 -0.017760 0.006500
v 0.593462 0.005894 0.010627
v 0.593584 -0.000656 0.010675
v 0.593535 0.004616 0.006786
v 0.593560 -0.004649 0.018404
v 0.593634 -0.005927 0.014563
v 0.593780 -0.008483 0.006881
v 0.593707 -0.007205 0.010722
v 0.593518 -0.006629 0.024648
v 0.436343 -0.009588 0.022632
v 0.593333 -0.000047 0.029360
v 0.436159 -0.003005 0.027344
v 0.436251 -0.006296 0.024988
v 0.121994 -0.015504 0.018600
v 0.279168 -0.012546 0.020616
v 0.436066 0.000286 0.029699
v 0.278984 -0.005963 0.025328
v 0.121717 -0.005630 0.025667
v -0.035366 -0.011880 0.021296
v 0.121809 -0.008922 0.023312
v -0.035181 -0.018463 0.016584
v 0.121901 -0.012213 0.020956
v -0.035280 -0.007920 0.008808
v -0.035329 -0.002648 0.004920
v -0.035231 -0.013191 0.012696
v -0.035415 -0.006609 0.017408
v -0.035323 -0.009900 0.015052
v 0.593370 0.009185 0.012983
v 0.593419 0.003914 0.016871
v 0.593284 0.005225 0.025471
v 0.593376 0.001933 0.023115
v 0.593468 -0.001358 0.020760
v 0.593165 0.007292 0.031686
v 0.435991 0.004334 0.029670
v 0.593014 0.015387 0.031627
v 0.435839 0.012429 0.029611
v 0.435915 0.008381 0.029641
v 0.121641 -0.001583 0.025638
v 0.278816 0.001375 0.027654
v 0.435763 0.016476 0.029582
v 0.278664 0.009471 0.027596
v 0.121414 0.010560 0.025550
v -0.035685 0.003554 0.023564
v 0.121490 0.006513 0.025580
v -0.035534 -0.004541 0.023622
v 0.121565 0.002465 0.025609
v -0.035448 -0.000581 0.011134
v -0.035405 0.001399 0.004891
v -0.035491 -0.002561 0.017378
v -0.035642 0.005535 0.017320
v -0.035567 0.001487 0.017349
v 0.593294 0.013233 0.012954
v 0.593251 0.011252 0.019198
v 0.593056 0.017367 0.025383
v 0.593132 0.013320 0.025413
v 0.593208 0.009272 0.025442
v 0.592907 0.022693 0.029195
v 0.435733 0.019734 0.027179
v 0.592846 0.029209 0.024389
v 0.435672 0.026251 0.022373
v 0.435702 0.022993 0.024776
v 0.121383 0.013818 0.023147
v 0.278558 0.016776 0.025163
v 0.435641 0.029509 0.019969
v 0.278497 0.023292 0.020357
v 0.121292 0.023592 0.015938
v -0.035852 0.017376 0.016325
v 0.121322 0.020334 0.018341
v -0.035791 0.010860 0.021131
v 0.121353 0.017076 0.020744
v -0.035554 0.006725 0.008702
v -0.035436 0.004657 0.002487
v -0.035673 0.008793 0.014917
v -0.035734 0.015309 0.010110
v -0.035703 0.012051 0.012513
v 0.593263 0.016491 0.010550
v 0.593145 0.018558 0.016765
v 0.592965 0.027141 0.018174
v 0.592995 0.023883 0.020577
v 0.593026 0.020625 0.022980
v 0.592842 0.033691 0.018127
v 0.435668 0.030732 0.016111
v 0.592895 0.036139 0.010409
v 0.435720 0.033180 0.008393
v 0.435694 0.031956 0.012252
v 0.121318 0.024816 0.012079
v 0.278493 0.027774 0.014095
v 0.435747 0.034404 0.004534
v 0.278546 0.030222 0.006377
v 0.121398 0.028487 0.000502
v -0.035804 0.024305 0.002345
v 0.121371 0.027264 0.004361
v -0.035856 0.021858 0.010063
v 0.121345 0.026040 0.008220
v -0.035558 0.011207 0.002440
v -0.035409 0.005881 -0.001371
v -0.035707 0.016532 0.006251
v -0.035654 0.018980 -0.001466
v -0.035681 0.017756 0.002392
v 0.593290 0.017715 0.006692
v 0.593141 0.023040 0.010503
v 0.593044 0.030813 0.006597
v 0.593018 0.029589 0.010456
v 0.592991 0.028365 0.014315
v 0.592995 0.036085 0.002709
v 0.435820 0.033127 0.000693
v 0.593142 0.033530 -0.004973
v 0.435967 0.030571 -0.006989
v 0.435894 0.031849 -0.003148
v 0.121471 0.027210 -0.003339
v 0.278646 0.030168 -0.001323
v 0.436040 0.029294 -0.010830
v 0.278792 0.027613 -0.009005
v 0.121691 0.023377 -0.014862
v -0.035557 0.021696 -0.013037
v 0.121618 0.024655 -0.011021
v -0.035704 0.024251 -0.005355
v 0.121544 0.025932 -0.007180
v -0.035458 0.011153 -0.005260
v -0.035336 0.004604 -0.005212
v -0.035581 0.017702 -0.005307
v -0.035434 0.015147 -0.012989
v -0.035508 0.016425 -0.009148
v 0.593363 0.016437 0.002851
v 0.593240 0.022986 0.002803
v 0.593264 0.026980 -0.004926
v 0.593191 0.028258 -0.001085
v 0.593118 0.029536 0.002756
v 0.593307 0.028961 -0.011170
v 0.436132 0.026002 -0.013186
v 0.593491 0.022378 -0.015881
v 0.436317 0.019420 -0.017897
v 0.436225 0.022711 -0.015541
v 0.121783 0.020086 -0.017218
v 0.278958 0.023044 -0.015202
v 0.436409 0.016128 -0.020253
v 0.279142 0.016461 -0.019913
v 0.122060 0.010212 -0.024285
v -0.035207 0.010545 -0.023945
v 0.121967 0.013503 -0.021929
v -0.035392 0.017127 -0.019234
v 0.121875 0.016794 -0.019573
v -0.035293 0.006584 -0.011457
v -0.035244 0.001312 -0.007568
v -0.035342 0.011856 -0.015345
v -0.035158 0.005273 -0.020057
v -0.035250 0.008564 -0.017701
v 0.593455 0.013146 0.000495
v 0.593406 0.018417 -0.003393
v 0.593541 0.017106 -0.011993
v 0.593449 0.020398 -0.009637
v 0.593356 0.023689 -0.007282
v 0.593659 0.015039 -0.018208
v 0.436485 0.012081 -0.020224
v 0.593811 0.006944 -0.018149
v 0.436636 0.003985 -0.020165
v 0.436561 0.008033 -0.020194
v 0.122135 0.006164 -0.024255
v 0.279310 0.009122 -0.022240
v 0.436712 -0.000063 -0.020136
v 0.279462 0.001027 -0.022181
v 0.122363 -0.005979 -0.024168
v -0.034888 -0.004890 -0.026213
v 0.122287 -0.001931 -0.024197
v -0.035039 0.003206 -0.026271
v 0.122211 0.002116 -0.024226
v -0.035125 -0.000755 -0.013783
v -0.035168 -0.002736 -0.007539
v -0.035082 0.001225 -0.020027
v -0.034930 -0.006870 -0.019969
v -0.035006 -0.002822 -0.019998
v 0.593531 0.009098 0.000524
v 0.593574 0.011078 -0.005720
v 0.593768 0.004963 -0.011905
v 0.593692 0.009011 -0.011934
v 0.593617 0.013059 -0.011964
v 0.593917 -0.000362 -0.015717
v 0.436743 -0.003321 -0.017732
v 0.593978 -0.006878 -0.010910
v 0.436804 -0.009837 -0.012926
v 0.436773 -0.006579 -0.015329
v 0.122393 -0.009237 -0.021764
v 0.279568 -0.006279 -0.019748
v 0.436834 -0.013095 -0.010523
v 0.279629 -0.012795 -0.014942
v 0.122485 -0.019011 -0.014555
v -0.034720 -0.018712 -0.018974
v 0.122454 -0.015753 -0.016958
v -0.034781 -0.012196 -0.023780
v 0.122424 -0.012495 -0.019361
v -0.035019 -0.008061 -0.011351
v -0.035137 -0.005994 -0.005136
v -0.034900 -0.010128 -0.017565
v -0.034839 -0.016644 -0.012759
v -0.034869 -0.013386 -0.015162
v 0.593562 0.005840 0.002927
v 0.593680 0.003773 -0.003287
v 0.593860 -0.004811 -0.004696
v 0.593829 -0.001553 -0.007099
v 0.593799 0.001705 -0.009502
v 0.593982 -0.011360 -0.004648
v 0.436808 -0.014319 -0.006664
v 0.593930 -0.013808 0.003070
v 0.436755 -0.016766 0.001054
v 0.436781 -0.015542 -0.002805
v 0.122458 -0.020235 -0.010696
v 0.279633 -0.017277 -0.008680
v 0.279580 -0.019725 -0.000962
v -0.034769 -0.025642 -0.004993
v 0.122405 -0.022683 -0.002978
v -0.034716 -0.023194 -0.012712
v 0.122432 -0.021459 -0.006837
v -0.035015 -0.012543 -0.005088
v -0.034865 -0.017868 -0.008900
v -0.034892 -0.019092 -0.005041
v 0.593684 -0.000709 0.002975
v 0.593807 -0.007259 0.003022
v 0.593833 -0.006035 -0.000837
f 1 239 241
f 239 81 240
f 240 83 241
f 239 240 241
f 81 242 244
f 242 2 243
f 243 82 244
f 242 243 244
f 82 245 247
f 245 3 246
f 246 83 247
f 245 246 247
f 81 244 240
f 244 82 247
f 247 83 240
f 244 247 240
f 4 248 250
f 248 84 249
f 249 86 250
f 248 249 250
f 84 251 253
f 251 5 252
f 252 85 253
f 251 252 253
f 85 254 256
f 254 6 255
f 255 86 256
f 254 255 256
f 84 253 249
f 253 85 256
f 256 86 249
f 253 256 249
f 7 257 259
f 257 87 258
f 258 89 259
f 257 258 259
f 87 260 262
f 260 8 261
f 261 88 262
f 260 261 262
f 88 263 265
f 263 9 264
f 264 89 265
f 263 264 265
f 87 262 258
f 262 88 265
f 265 89 258
f 262 265 258
f 10 266 268
f 266 90 267
f 267 91 268
f 266 267 268
f 90 269 270
f 269 8 260
f 260 87 270
f 269 260 270
f 87 257 272
f 257 7 271
f 271 91 272
f 257 271 272
f 90 270 267
f 270 87 272
f 272 91 267
f 270 272 267
f 10 268 274
f 268 91 273
f 273 93 274
f 268 273 274
f 91 271 276
f 271 7 275
f 275 92 276
f 271 275 276
f 92 277 279
f 277 11 278
f 278 93 279
f 277 278 279
f 91 276 273
f 276 92 279
f 279 93 273
f 276 279 273
f 12 280 282
f 280 94 281
f 281 95 282
f 280 281 282
f 94 283 284
f 283 10 274
f 274 93 284
f 283 274 284
f 93 278 286
f 278 11 285
f 285 95 286
f 278 285 286
f 94 284 281
f 284 93 286
f 286 95 281
f 284 286 281
f 13 287 289
f 287 96 288
f 288 97 289
f 287 288 289
f 96 290 291
f 290 10 283
f 283 94 291
f 290 283 291
f 94 280 293
f 280 12 292
f 292 97 293
f 280 292 293
f 96 291 288
f 291 94 293
f 293 97 288
f 291 293 288
f 14 294 296
f 294 98 295
f 295 99 296
f 294 295 296
f 98 297 298
f 297 10 290
f 290 96 298
f 297 290 298
f 96 287 300
f 287 13 299
f 299 99 300
f 287 299 300
f 98 298 295
f 298 96 300
f 300 99 295
f 298 300 295
f 15 301 303
f 301 100 302
f 302 101 303
f 301 302 303
f 100 304 305
f 304 14 296
f 296 99 305
f 304 296 305
f 99 299 307
f 299 13 306
f 306 101 307
f 299 306 307
f 100 305 302
f 305 99 307
f 307 101 302
f 305 307 302
f 16 308 310
f 308 102 309
f 309 104 310
f 308 309 310
f 102 311 313
f 311 17 312
f 312 103 313
f 311 312 313
f 103 314 316
f 314 18 315
f 315 104 316
f 314 315 316
f 102 313 309
f 313 103 316
f 316 104 309
f 313 316 309
f 19 317 319
f 317 105 318
f 318 106 319
f 317 318 319
f 105 320 321
f 320 17 311
f 311 102 321
f 320 311 321
f 102 308 323
f 308 16 322
f 322 106 323
f 308 322 323
f 105 321 318
f 321 102 323
f 323 106 318
f 321 323 318
f 20 324 326
f 324 107 325
f 325 109 326
f 324 325 326
f 107 327 329
f 327 21 328
f 328 108 329
f 327 328 329
f 108 330 332
f 330 22 331
f 331 109 332
f 330 331 332
f 107 329 325
f 329 108 332
f 332 109 325
f 329 332 325
f 23 333 335
f 333 110 334
f 334 111 335
f 333 334 335
f 110 336 337
f 336 21 327
f 327 107 337
f 336 327 337
f 107 324 339
f 324 20 338
f 338 111 339
f 324 338 339
f 110 337 334
f 337 107 339
f 339 111 334
f 337 339 334
f 22 340 342
f 340 112 341
f 341 114 342
f 340 341 342
f 112 343 345
f 343 24 344
f 344 113 345
f 343 344 345
f 113 346 348
f 346 25 347
f 347 114 348
f 346 347 348
f 112 345 341
f 345 113 348
f 348 114 341
f 345 348 341
f 21 349 328
f 349 115 350
f 350 108 328
f 349 350 328
f 115 351 352
f 351 24 343
f 343 112 352
f 351 343 352
f 112 340 353
f 340 22 330
f 330 108 353
f 340 330 353
f 115 352 350
f 352 112 353
f 353 108 350
f 352 353 350
f 26 354 356
f 354 116 355
f 355 117 356
f 354 355 356
f 116 357 358
f 357 24 351
f 351 115 358
f 357 351 358
f 115 349 360
f 349 21 359
f 359 117 360
f 349 359 360
f 116 358 355
f 358 115 360
f 360 117 355
f 358 360 355
f 27 361 363
f 361 118 362
f 362 119 363
f 361 362 363
f 118 364 365
f 364 24 357
f 357 116 365
f 364 357 365
f 116 354 367
f 354 26 366
f 366 119 367
f 354 366 367
f 118 365 362
f 365 116 367
f 367 119 362
f 365 367 362
f 28 368 370
f 368 120 369
f 369 121 370
f 368 369 370
f 120 371 372
f 371 24 364
f 364 118 372
f 371 364 372
f 118 361 374
f 361 27 373
f 373 121 374
f 361 373 374
f 120 372 369
f 372 118 374
f 374 121 369
f 372 374 369
f 25 346 376
f 346 113 375
f 375 123 376
f 346 375 376
f 113 344 378
f 344 24 377
f 377 122 378
f 344 377 378
f 122 379 381
f 379 29 380
f 380 123 381
f 379 380 381
f 113 378 375
f 378 122 381
f 381 123 375
f 378 381 375
f 30 382 384
f 382 124 383
f 383 125 384
f 382 383 384
f 124 385 386
f 385 25 376
f 376 123 386
f 385 376 386
f 123 380 388
f 380 29 387
f 387 125 388
f 380 387 388
f 124 386 383
f 386 123 388
f 388 125 383
f 386 388 383
f 31 389 391
f 389 126 390
f 390 127 391
f 389 390 391
f 126 392 393
f 392 25 385
f 385 124 393
f 392 385 393
f 124 382 395
f 382 30 394
f 394 127 395
f 382 394 395
f 126 393 390
f 393 124 395
f 395 127 390
f 393 395 390
f 32 396 398
f 396 128 397
f 397 130 398
f 396 397 398
f 128 399 401
f 399 33 400
f 400 129 401
f 399 400 401
f 129 402 404
f 402 34 403
f 403 130 404
f 402 403 404
f 128 401 397
f 401 129 404
f 404 130 397
f 401 404 397
f 34 402 406
f 402 129 405
f 405 132 406
f 402 405 406
f 129 400 408
f 400 33 407
f 407 131 408
f 400 407 408
f 131 409 411
f 409 35 410
f 410 132 411
f 409 410 411
f 129 408 405
f 408 131 411
f 411 132 405
f 408 411 405
f 36 412 414
f 412 133 413
f 413 134 414
f 412 413 414
f 133 415 416
f 415 34 406
f 406 132 416
f 415 406 416
f 132 410 418
f 410 35 417
f 417 134 418
f 410 417 418
f 133 416 413
f 416 132 418
f 418 134 413
f 416 418 413
f 37 419 421
f 419 135 420
f 420 136 421
f 419 420 421
f 135 422 423
f 422 34 415
f 415 133 423
f 422 415 423
f 133 412 425
f 412 36 424
f 424 136 425
f 412 424 425
f 135 423 420
f 423 133 425
f 425 136 420
f 423 425 420
f 38 426 428
f 426 137 427
f 427 139 428
f 426 427 428
f 137 429 431
f 429 39 430
f 430 138 431
f 429 430 431
f 138 432 434
f 432 40 433
f 433 139 434
f 432 433 434
f 137 431 427
f 431 138 434
f 434 139 427
f 431 434 427
f 41 435 437
f 435 140 436
f 436 141 437
f 435 436 437
f 140 438 439
f 438 39 429
f 429 137 439
f 438 429 439
f 137 426 441
f 426 38 440
f 440 141 441
f 426 440 441
f 140 439 436
f 439 137 441
f 441 141 436
f 439 441 436
f 42 442 444
f 442 142 443
f 443 143 444
f 442 443 444
f 142 445 446
f 445 39 438
f 438 140 446
f 445 438 446
f 140 435 448
f 435 41 447
f 447 143 448
f 435 447 448
f 142 446 443
f 446 140 448
f 448 143 443
f 446 448 443
f 43 449 451
f 449 144 450
f 450 145 451
f 449 450 451
f 144 452 453
f 452 42 444
f 444 143 453
f 452 444 453
f 143 447 455
f 447 41 454
f 454 145 455
f 447 454 455
f 144 453 450
f 453 143 455
f 455 145 450
f 453 455 450
f 44 456 458
f 456 146 457
f 457 147 458
f 456 457 458
f 146 459 460
f 459 42 452
f 452 144 460
f 459 452 460
f 144 449 462
f 449 43 461
f 461 147 462
f 449 461 462
f 146 460 457
f 460 144 462
f 462 147 457
f 460 462 457
f 45 463 465
f 463 148 464
f 464 149 465
f 463 464 465
f 148 466 467
f 466 44 458
f 458 147 467
f 466 458 467
f 147 461 469
f 461 43 468
f 468 149 469
f 461 468 469
f 148 467 464
f 467 147 469
f 469 149 464
f 467 469 464
f 46 470 472
f 470 150 471
f 471 151 472
f 470 471 472
f 150 473 474
f 473 44 466
f 466 148 474
f 473 466 474
f 148 463 476
f 463 45 475
f 475 151 476
f 463 475 476
f 150 474 471
f 474 148 476
f 476 151 471
f 474 476 471
f 47 477 479
f 477 152 478
f 478 153 479
f 477 478 479
f 152 480 481
f 480 44 473
f 473 150 481
f 480 473 481
f 150 470 483
f 470 46 482
f 482 153 483
f 470 482 483
f 152 481 478
f 481 150 483
f 483 153 478
f 481 483 478
f 47 479 485
f 479 153 484
f 484 155 485
f 479 484 485
f 153 482 487
f 482 46 486
f 486 154 487
f 482 486 487
f 154 488 490
f 488 48 489
f 489 155 490
f 488 489 490
f 153 487 484
f 487 154 490
f 490 155 484
f 487 490 484
f 40 432 492
f 432 138 491
f 491 157 492
f 432 491 492
f 138 430 494
f 430 39 493
f 493 156 494
f 430 493 494
f 156 495 497
f 495 49 496
f 496 157 497
f 495 496 497
f 138 494 491
f 494 156 497
f 497 157 491
f 494 497 491
f 50 498 500
f 498 158 499
f 499 159 500
f 498 499 500
f 158 501 502
f 501 40 492
f 492 157 502
f 501 492 502
f 157 496 504
f 496 49 503
f 503 159 504
f 496 503 504
f 158 502 499
f 502 157 504
f 504 159 499
f 502 504 499
f 51 505 507
f 505 160 506
f 506 161 507
f 505 506 507
f 160 508 509
f 508 50 500
f 500 159 509
f 508 500 509
f 159 503 511
f 503 49 510
f 510 161 511
f 503 510 511
f 160 509 506
f 509 159 511
f 511 161 506
f 509 511 506
f 52 512 514
f 512 162 513
f 513 163 514
f 512 513 514
f 162 515 516
f 515 50 508
f 508 160 516
f 515 508 516
f 160 505 518
f 505 51 517
f 517 163 518
f 505 517 518
f 162 516 513
f 516 160 518
f 518 163 513
f 516 518 513
f 53 519 521
f 519 164 520
f 520 165 521
f 519 520 521
f 164 522 523
f 522 52 514
f 514 163 523
f 522 514 523
f 163 517 525
f 517 51 524
f 524 165 525
f 517 524 525
f 164 523 520
f 523 163 525
f 525 165 520
f 523 525 520
f 54 526 528
f 526 166 527
f 527 167 528
f 526 527 528
f 166 529 530
f 529 52 522
f 522 164 530
f 529 522 530
f 164 519 532
f 519 53 531
f 531 167 532
f 519 531 532
f 166 530 527
f 530 164 532
f 532 167 527
f 530 532 527
f 55 533 535
f 533 168 534
f 534 169 535
f 533 534 535
f 168 536 537
f 536 54 528
f 528 167 537
f 536 528 537
f 167 531 539
f 531 53 538
f 538 169 539
f 531 538 539
f 168 537 534
f 537 167 539
f 539 169 534
f 537 539 534
f 56 540 542
f 540 170 541
f 541 171 542
f 540 541 542
f 170 543 544
f 543 47 485
f 485 155 544
f 543 485 544
f 155 489 546
f 489 48 545
f 545 171 546
f 489 545 546
f 170 544 541
f 544 155 546
f 546 171 541
f 544 546 541
f 56 542 548
f 542 171 547
f 547 173 548
f 542 547 548
f 171 545 550
f 545 48 549
f 549 172 550
f 545 549 550
f 172 551 553
f 551 55 552
f 552 173 553
f 551 552 553
f 171 550 547
f 550 172 553
f 553 173 547
f 550 553 547
f 56 548 555
f 548 173 554
f 554 174 555
f 548 554 555
f 173 552 556
f 552 55 535
f 535 169 556
f 552 535 556
f 169 538 558
f 538 53 557
f 557 174 558
f 538 557 558
f 173 556 554
f 556 169 558
f 558 174 554
f 556 558 554
f 57 559 561
f 559 175 560
f 560 176 561
f 559 560 561
f 175 562 563
f 562 47 543
f 543 170 563
f 562 543 563
f 170 540 565
f 540 56 564
f 564 176 565
f 540 564 565
f 175 563 560
f 563 170 565
f 565 176 560
f 563 565 560
f 58 566 568
f 566 177 567
f 567 178 568
f 566 567 568
f 177 569 570
f 569 57 561
f 561 176 570
f 569 561 570
f 176 564 572
f 564 56 571
f 571 178 572
f 564 571 572
f 177 570 567
f 570 176 572
f 572 178 567
f 570 572 567
f 59 573 575
f 573 179 574
f 574 181 575
f 573 574 575
f 179 576 578
f 576 60 577
f 577 180 578
f 576 577 578
f 180 579 581
f 579 61 580
f 580 181 581
f 579 580 581
f 179 578 574
f 578 180 581
f 581 181 574
f 578 581 574
f 60 582 577
f 582 182 583
f 583 180 577
f 582 583 577
f 182 584 586
f 584 62 585
f 585 183 586
f 584 585 586
f 183 587 588
f 587 61 579
f 579 180 588
f 587 579 588
f 182 586 583
f 586 183 588
f 588 180 583
f 586 588 583
f 63 589 591
f 589 184 590
f 590 185 591
f 589 590 591
f 184 592 593
f 592 61 587
f 587 183 593
f 592 587 593
f 183 585 595
f 585 62 594
f 594 185 595
f 585 594 595
f 184 593 590
f 593 183 595
f 595 185 590
f 593 595 590
f 64 596 598
f 596 186 597
f 597 187 598
f 596 597 598
f 186 599 600
f 599 60 576
f 576 179 600
f 599 576 600
f 179 573 602
f 573 59 601
f 601 187 602
f 573 601 602
f 186 600 597
f 600 179 602
f 602 187 597
f 600 602 597
f 60 603 582
f 603 188 604
f 604 182 582
f 603 604 582
f 188 605 607
f 605 65 606
f 606 189 607
f 605 606 607
f 189 608 609
f 608 62 584
f 584 182 609
f 608 584 609
f 188 607 604
f 607 189 609
f 609 182 604
f 607 609 604
f 65 610 606
f 610 190 611
f 611 189 606
f 610 611 606
f 190 612 614
f 612 66 613
f 613 191 614
f 612 613 614
f 191 615 616
f 615 62 608
f 608 189 616
f 615 608 616
f 190 614 611
f 614 191 616
f 616 189 611
f 614 616 611
f 63 591 618
f 591 185 617
f 617 192 618
f 591 617 618
f 185 594 619
f 594 62 615
f 615 191 619
f 594 615 619
f 191 613 621
f 613 66 620
f 620 192 621
f 613 620 621
f 185 619 617
f 619 191 621
f 621 192 617
f 619 621 617
f 64 622 596
f 622 193 623
f 623 186 596
f 622 623 596
f 193 624 625
f 624 65 605
f 605 188 625
f 624 605 625
f 188 603 626
f 603 60 599
f 599 186 626
f 603 599 626
f 193 625 623
f 625 188 626
f 626 186 623
f 625 626 623
f 65 627 610
f 627 194 628
f 628 190 610
f 627 628 610
f 194 629 631
f 629 67 630
f 630 195 631
f 629 630 631
f 195 632 633
f 632 66 612
f 612 190 633
f 632 612 633
f 194 631 628
f 631 195 633
f 633 190 628
f 631 633 628
f 67 634 630
f 634 196 635
f 635 195 630
f 634 635 630
f 196 636 638
f 636 68 637
f 637 197 638
f 636 637 638
f 197 639 640
f 639 66 632
f 632 195 640
f 639 632 640
f 196 638 635
f 638 197 640
f 640 195 635
f 638 640 635
f 63 618 642
f 618 192 641
f 641 198 642
f 618 641 642
f 192 620 643
f 620 66 639
f 639 197 643
f 620 639 643
f 197 637 645
f 637 68 644
f 644 198 645
f 637 644 645
f 192 643 641
f 643 197 645
f 645 198 641
f 643 645 641
f 64 646 622
f 646 199 647
f 647 193 622
f 646 647 622
f 199 648 649
f 648 67 629
f 629 194 649
f 648 629 649
f 194 627 650
f 627 65 624
f 624 193 650
f 627 624 650
f 199 649 647
f 649 194 650
f 650 193 647
f 649 650 647
f 67 651 634
f 651 200 652
f 652 196 634
f 651 652 634
f 200 653 655
f 653 69 654
f 654 201 655
f 653 654 655
f 201 656 657
f 656 68 636
f 636 196 657
f 656 636 657
f 200 655 652
f 655 201 657
f 657 196 652
f 655 657 652
f 69 658 654
f 658 202 659
f 659 201 654
f 658 659 654
f 202 660 662
f 660 70 661
f 661 203 662
f 660 661 662
f 203 663 664
f 663 68 656
f 656 201 664
f 663 656 664
f 202 662 659
f 662 203 664
f 664 201 659
f 662 664 659
f 63 642 666
f 642 198 665
f 665 204 666
f 642 665 666
f 198 644 667
f 644 68 663
f 663 203 667
f 644 663 667
f 203 661 669
f 661 70 668
f 668 204 669
f 661 668 669
f 198 667 665
f 667 203 669
f 669 204 665
f 667 669 665
f 64 670 646
f 670 205 671
f 671 199 646
f 670 671 646
f 205 672 673
f 672 69 653
f 653 200 673
f 672 653 673
f 200 651 674
f 651 67 648
f 648 199 674
f 651 648 674
f 205 673 671
f 673 200 674
f 674 199 671
f 673 674 671
f 69 675 658
f 675 206 676
f 676 202 658
f 675 676 658
f 206 677 679
f 677 71 678
f 678 207 679
f 677 678 679
f 207 680 681
f 680 70 660
f 660 202 681
f 680 660 681
f 206 679 676
f 679 207 681
f 681 202 676
f 679 681 676
f 71 682 678
f 682 208 683
f 683 207 678
f 682 683 678
f 208 684 686
f 684 72 685
f 685 209 686
f 684 685 686
f 209 687 688
f 687 70 680
f 680 207 688
f 687 680 688
f 208 686 683
f 686 209 688
f 688 207 683
f 686 688 683
f 63 666 690
f 666 204 689
f 689 210 690
f 666 689 690
f 204 668 691
f 668 70 687
f 687 209 691
f 668 687 691
f 209 685 693
f 685 72 692
f 692 210 693
f 685 692 693
f 204 691 689
f 691 209 693
f 693 210 689
f 691 693 689
f 64 694 670
f 694 211 695
f 695 205 670
f 694 695 670
f 211 696 697
f 696 71 677
f 677 206 697
f 696 677 697
f 206 675 698
f 675 69 672
f 672 205 698
f 675 672 698
f 211 697 695
f 697 206 698
f 698 205 695
f 697 698 695
f 71 699 682
f 699 212 700
f 700 208 682
f 699 700 682
f 212 701 703
f 701 73 702
f 702 213 703
f 701 702 703
f 213 704 705
f 704 72 684
f 684 208 705
f 704 684 705
f 212 703 700
f 703 213 705
f 705 208 700
f 703 705 700
f 73 706 702
f 706 214 707
f 707 213 702
f 706 707 702
f 214 708 710
f 708 74 709
f 709 215 710
f 708 709 710
f 215 711 712
f 711 72 704
f 704 213 712
f 711 704 712
f 214 710 707
f 710 215 712
f 712 213 707
f 710 712 707
f 63 690 714
f 690 210 713
f 713 216 714
f 690 713 714
f 210 692 715
f 692 72 711
f 711 215 715
f 692 711 715
f 215 709 717
f 709 74 716
f 716 216 717
f 709 716 717
f 210 715 713
f 715 215 717
f 717 216 713
f 715 717 713
f 64 718 694
f 718 217 719
f 719 211 694
f 718 719 694
f 217 720 721
f 720 73 701
f 701 212 721
f 720 701 721
f 212 699 722
f 699 71 696
f 696 211 722
f 699 696 722
f 217 721 719
f 721 212 722
f 722 211 719
f 721 722 719
f 73 723 706
f 723 218 724
f 724 214 706
f 723 724 706
f 218 725 727
f 725 75 726
f 726 219 727
f 725 726 727
f 219 728 729
f 728 74 708
f 708 214 729
f 728 708 729
f 218 727 724
f 727 219 729
f 729 214 724
f 727 729 724
f 75 730 726
f 730 220 731
f 731 219 726
f 730 731 726
f 220 732 734
f 732 76 733
f 733 221 734
f 732 733 734
f 221 735 736
f 735 74 728
f 728 219 736
f 735 728 736
f 220 734 731
f 734 221 736
f 736 219 731
f 734 736 731
f 63 714 738
f 714 216 737
f 737 222 738
f 714 737 738
f 216 716 739
f 716 74 735
f 735 221 739
f 716 735 739
f 221 733 741
f 733 76 740
f 740 222 741
f 733 740 741
f 216 739 737
f 739 221 741
f 741 222 737
f 739 741 737
f 64 742 718
f 742 223 743
f 743 217 718
f 742 743 718
f 223 744 745
f 744 75 725
f 725 218 745
f 744 725 745
f 218 723 746
f 723 73 720
f 720 217 746
f 723 720 746
f 223 745 743
f 745 218 746
f 746 217 743
f 745 746 743
f 75 747 730
f 747 224 748
f 748 220 730
f 747 748 730
f 224 749 751
f 749 77 750
f 750 225 751
f 749 750 751
f 225 752 753
f 752 76 732
f 732 220 753
f 752 732 753
f 224 751 748
f 751 225 753
f 753 220 748
f 751 753 748
f 77 754 750
f 754 226 755
f 755 225 750
f 754 755 750
f 226 756 758
f 756 78 757
f 757 227 758
f 756 757 758
f 227 759 760
f 759 76 752
f 752 225 760
f 759 752 760
f 226 758 755
f 758 227 760
f 760 225 755
f 758 760 755
f 63 738 762
f 738 222 761
f 761 228 762
f 738 761 762
f 222 740 763
f 740 76 759
f 759 227 763
f 740 759 763
f 227 757 765
f 757 78 764
f 764 228 765
f 757 764 765
f 222 763 761
f 763 227 765
f 765 228 761
f 763 765 761
f 64 766 742
f 766 229 767
f 767 223 742
f 766 767 742
f 229 768 769
f 768 77 749
f 749 224 769
f 768 749 769
f 224 747 770
f 747 75 744
f 744 223 770
f 747 744 770
f 229 769 767
f 769 224 770
f 770 223 767
f 769 770 767
f 77 771 754
f 771 230 772
f 772 226 754
f 771 772 754
f 230 773 775
f 773 79 774
f 774 231 775
f 773 774 775
f 231 776 777
f 776 78 756
f 756 226 777
f 776 756 777
f 230 775 772
f 775 231 777
f 777 226 772
f 775 777 772
f 79 778 774
f 778 232 779
f 779 231 774
f 778 779 774
f 232 780 782
f 780 80 781
f 781 233 782
f 780 781 782
f 233 783 784
f 783 78 776
f 776 231 784
f 783 776 784
f 232 782 779
f 782 233 784
f 784 231 779
f 782 784 779
f 63 762 786
f 762 228 785
f 785 234 786
f 762 785 786
f 228 764 787
f 764 78 783
f 783 233 787
f 764 783 787
f 233 781 789
f 781 80 788
f 788 234 789
f 781 788 789
f 228 787 785
f 787 233 789
f 789 234 785
f 787 789 785
f 64 790 766
f 790 235 791
f 791 229 766
f 790 791 766
f 235 792 793
f 792 79 773
f 773 230 793
f 792 773 793
f 230 771 794
f 771 77 768
f 768 229 794
f 771 768 794
f 235 793 791
f 793 230 794
f 794 229 791
f 793 794 791
f 79 795 778
f 795 236 796
f 796 232 778
f 795 796 778
f 236 797 799
f 797 59 798
f 798 237 799
f 797 798 799
f 237 800 801
f 800 80 780
f 780 232 801
f 800 780 801
f 236 799 796
f 799 237 801
f 801 232 796
f 799 801 796
f 59 575 798
f 575 181 802
f 802 237 798
f 575 802 798
f 181 580 804
f 580 61 803
f 803 238 804
f 580 803 804
f 238 805 806
f 805 80 800
f 800 237 806
f 805 800 806
f 181 804 802
f 804 238 806
f 806 237 802
f 804 806 802
f 63 786 589
f 786 234 807
f 807 184 589
f 786 807 589
f 234 788 808
f 788 80 805
f 805 238 808
f 788 805 808
f 238 803 809
f 803 61 592
f 592 184 809
f 803 592 809
f 234 808 807
f 808 238 809
f 809 184 807
f 808 809 807
f 64 598 790
f 598 187 810
f 810 235 790
f 598 810 790
f 187 601 811
f 601 59 797
f 797 236 811
f 601 797 811
f 236 795 812
f 795 79 792
f 792 235 812
f 795 792 812
f 187 811 810
f 811 236 812
f 812 235 810
f 811 812 810
