# Unified Preprocessed OBJ file from m125.obj
# Applied remeshing: Yes
# Applied 4-step normalization: centering, PCA alignment, flipping, scaling
# Generated on 2025-09-29 15:12:02

v 0.225768 -0.079114 -0.000592
v 0.154629 -0.096219 0.006481
v 0.193316 -0.087032 -0.011993
v 0.304891 -0.061634 -0.007506
v 0.234738 -0.066561 0.010558
v 0.280257 -0.070353 -0.010048
v 0.169843 -0.086555 0.014463
v 0.147681 0.043997 0.073042
v 0.212782 0.048136 0.076520
v 0.168384 0.056847 0.065131
v 0.191301 0.033572 0.078940
v 0.291217 -0.050026 -0.005323
v 0.232304 0.060541 0.066927
v 0.199644 0.063618 0.058432
v 0.229153 -0.078350 -0.018221
v 0.290578 -0.075967 -0.020813
v 0.314790 -0.074651 -0.048810
v 0.264172 -0.076710 -0.027548
v 0.254375 -0.071199 -0.037399
v 0.295955 -0.066784 -0.055869
v 0.225297 -0.038664 -0.033196
v 0.207321 -0.057863 -0.038681
v 0.160766 -0.045169 -0.039496
v 0.325695 -0.077032 -0.030851
v 0.259966 0.067009 0.050147
v 0.222675 0.067452 0.047073
v 0.175703 -0.036913 -0.031116
v 0.127052 -0.083947 -0.039990
v 0.190902 -0.072181 -0.035142
v 0.171446 -0.085794 -0.027857
v 0.043740 0.048303 0.046261
v 0.031422 0.058901 0.025996
v -0.014587 0.058122 0.018666
v 0.143459 -0.071992 -0.043724
v 0.297567 -0.025363 -0.036600
v 0.260955 -0.034288 -0.011222
v 0.320840 -0.022936 -0.031210
v 0.141322 0.022060 0.074739
v 0.123103 0.010955 0.069178
v 0.182343 0.018003 0.073480
v 0.180839 0.005490 0.062278
v 0.132788 -0.001837 0.059097
v 0.193187 0.005181 0.056956
v 0.100185 -0.055390 -0.048114
v 0.100785 -0.040551 -0.044271
v -0.004772 0.045215 0.036178
v 0.221526 0.016765 0.069570
v 0.255680 0.018586 0.054370
v 0.140891 -0.008471 0.047130
v 0.189903 -0.070309 0.020922
v 0.129908 -0.086071 0.026382
v 0.157490 -0.058812 -0.042865
v 0.165096 0.066328 0.044656
v 0.153761 -0.071820 0.028142
v 0.291702 -0.038220 -0.012431
v 0.301462 -0.045998 -0.063503
v 0.329175 -0.055371 -0.070870
v 0.275359 -0.060794 -0.052742
v 0.129389 -0.034240 -0.027316
v 0.112217 -0.099222 -0.028634
v 0.230115 -0.063824 -0.036304
v -0.139178 -0.110181 -0.038373
v -0.171357 -0.113476 -0.037330
v -0.192107 -0.095054 -0.045748
v 0.324942 0.055515 -0.021628
v 0.290781 0.060935 0.005251
v 0.341481 0.066142 -0.024772
v 0.179182 0.066782 0.032925
v 0.224094 0.012914 0.048134
v 0.236081 0.062989 0.034142
v 0.174658 0.046504 0.006067
v 0.206940 0.063687 0.030157
v 0.142016 -0.099192 -0.016071
v 0.254917 0.055511 0.024797
v 0.303977 0.048500 -0.009015
v 0.280666 0.040648 0.009075
v 0.246011 0.037982 0.079679
v 0.114523 -0.066361 -0.047674
v 0.235766 0.025050 0.076030
v 0.330701 0.072030 -0.008072
v -0.170810 -0.123092 -0.009484
v -0.189851 -0.121794 -0.015414
v -0.141861 -0.129065 -0.028979
v 0.231368 0.050175 0.022680
v 0.138774 0.032422 0.075566
v -0.198848 0.130118 -0.055078
v -0.250332 0.117852 -0.051671
v -0.220473 0.128875 -0.039859
v -0.166338 -0.096214 -0.035680
v 0.427922 0.035241 -0.046270
v 0.404241 0.025114 -0.029417
v 0.375330 0.023302 -0.026182
v 0.391874 0.039024 -0.041215
v 0.121525 0.054620 0.060426
v 0.096393 0.040967 0.065615
v 0.252316 -0.048375 0.003111
v -0.214053 0.118634 -0.059089
v 0.147237 -0.058627 0.023941
v 0.188920 -0.042399 0.010146
v 0.136076 -0.040209 0.010907
v 0.134109 0.066141 0.024477
v 0.112143 0.064060 0.014560
v 0.310510 -0.033978 -0.062954
v 0.261769 -0.039456 -0.044855
v 0.178849 -0.036633 0.002951
v 0.332407 -0.072043 -0.018060
v 0.358143 -0.058240 -0.013256
v 0.339234 -0.044897 -0.009568
v 0.435683 0.029253 -0.012348
v 0.391444 0.019911 -0.012243
v 0.450800 0.029948 -0.037946
v 0.288964 -0.029798 -0.047563
v 0.173278 -0.001496 0.042818
v 0.126433 -0.013498 0.026866
v 0.181843 0.003008 0.031671
v 0.139601 -0.006648 0.014752
v -0.129996 -0.063990 -0.048497
v -0.103445 -0.071859 -0.049051
v -0.148722 -0.058334 -0.042271
v 0.119461 0.063667 0.043062
v 0.196459 0.041826 0.010264
v 0.081033 -0.113177 -0.017794
v 0.065626 -0.113220 0.004732
v 0.033752 -0.109397 -0.014857
v 0.059560 -0.106410 -0.029608
v 0.255304 -0.049470 -0.045771
v 0.205866 0.031465 0.016698
v 0.242079 0.031956 0.028099
v 0.184312 0.010781 0.020107
v 0.027018 0.040336 0.046094
v 0.234851 0.019282 0.036410
v 0.334506 -0.026604 -0.065280
v -0.101555 -0.061579 -0.047911
v -0.129961 -0.049156 -0.047849
v 0.155692 0.058752 0.010434
v 0.121979 0.046326 -0.009598
v 0.142894 -0.100994 -0.001032
v -0.101698 0.067519 0.001967
v -0.148915 0.083290 -0.007893
v -0.124494 0.075723 0.011646
v 0.218005 -0.030713 -0.023860
v -0.129853 0.068552 -0.016824
v 0.144549 0.025378 -0.008768
v 0.227586 -0.032850 -0.002775
v 0.214336 -0.030204 -0.012067
v 0.408049 0.054756 -0.047685
v 0.438071 0.048643 -0.054669
v -0.125628 0.071044 0.032115
v -0.080392 0.063043 0.018677
v -0.094226 0.058113 0.036420
v 0.005686 0.062554 0.011811
v 0.468789 -0.036318 -0.086999
v 0.484374 -0.045709 -0.087434
v 0.439744 -0.045268 -0.073190
v 0.329137 -0.019673 -0.049645
v -0.422149 0.026166 -0.067508
v -0.380562 0.012911 -0.070291
v -0.395361 0.007885 -0.068829
v -0.116918 -0.051951 -0.057156
v -0.122767 -0.062206 -0.054758
v -0.161026 -0.048756 -0.053275
v 0.005831 -0.106727 -0.012965
v -0.018193 -0.098359 -0.021932
v 0.023357 -0.103874 -0.029680
v 0.479475 -0.057120 -0.072032
v -0.008995 -0.097573 -0.030484
v 0.464011 0.070954 -0.040272
v 0.419656 0.071750 -0.019692
v 0.447950 0.070626 -0.018834
v 0.267387 0.067595 0.032575
v -0.384316 0.027252 -0.068845
v 0.424507 0.069350 -0.038554
v -0.129835 -0.123974 -0.038077
v 0.138786 0.062744 0.013011
v 0.097333 0.022522 0.068972
v 0.252361 0.048042 0.079710
v 0.256765 0.058073 0.071716
v 0.480051 0.054657 -0.068488
v 0.461449 0.059526 -0.058687
v 0.495540 -0.029309 -0.016504
v 0.495904 -0.013089 -0.052538
v 0.453767 -0.019434 -0.047036
v 0.137860 -0.031334 -0.005031
v 0.177768 -0.032283 -0.015040
v 0.009674 -0.085985 0.033185
v -0.028177 -0.065278 0.036247
v 0.009026 -0.097340 0.022953
v -0.038552 -0.086964 0.004533
v -0.057635 -0.079278 -0.018778
v 0.299964 0.062599 0.046341
v -0.026992 -0.082740 0.021345
v -0.042686 -0.084699 -0.034146
v 0.493855 0.026807 -0.055851
v 0.490899 0.030864 -0.065629
v 0.097500 -0.109450 -0.007965
v 0.133434 0.002308 0.000142
v 0.173931 0.023224 0.005500
v 0.320153 0.033058 -0.015010
v 0.343302 -0.042520 -0.075021
v -0.152109 -0.061701 0.040509
v -0.132417 -0.064059 0.007261
v -0.112610 -0.063527 0.014559
v 0.080464 0.014287 0.066720
v 0.094008 -0.008612 0.050270
v 0.386601 0.021437 0.004109
v 0.491895 0.078405 -0.023338
v 0.507361 0.081627 -0.032464
v 0.308169 0.027036 -0.002441
v 0.112445 -0.102002 0.013762
v 0.428273 0.063262 -0.047460
v 0.386767 0.064919 -0.036690
v -0.135138 0.146131 -0.043070
v -0.112883 0.147426 -0.050595
v -0.154947 0.137323 -0.052989
v -0.131805 -0.132071 -0.014687
v -0.340606 -0.031379 -0.066855
v -0.304075 -0.057931 -0.073919
v -0.324751 -0.048021 -0.062956
v 0.458136 0.035568 -0.053763
v 0.475002 0.044418 -0.066648
v 0.399382 0.030027 0.011968
v 0.016677 0.064224 -0.017870
v -0.005248 0.057522 -0.038876
v -0.025668 0.069126 -0.017717
v -0.155964 -0.119098 -0.000423
v 0.218124 -0.054294 0.014360
v -0.142270 0.132059 -0.055996
v 0.304015 0.049904 0.051872
v 0.329430 0.034435 0.038747
v 0.348508 0.041687 0.035736
v 0.003514 0.066463 -0.007135
v 0.458950 -0.031329 -0.029412
v 0.284484 0.023528 0.024042
v 0.270514 0.031780 0.022155
v 0.326137 0.018419 0.000201
v 0.320527 0.018223 0.018271
v 0.294195 0.068305 0.014466
v 0.495524 0.066743 -0.060495
v -0.133579 -0.052356 0.043692
v 0.272885 0.048672 0.071409
v 0.256149 -0.030239 -0.023267
v -0.309770 -0.041005 -0.076492
v 0.328429 0.060097 0.038123
v -0.001813 -0.102744 0.004838
v -0.016943 -0.098551 -0.010591
v -0.108761 0.147867 -0.025984
v -0.094416 0.156531 -0.036120
v 0.175745 -0.058101 0.019776
v 0.374245 -0.032146 -0.074754
v 0.362567 -0.017993 -0.040764
v -0.233795 0.126891 -0.028699
v -0.235665 0.120279 -0.007457
v -0.195959 0.135684 -0.029736
v -0.226509 -0.084373 -0.060134
v -0.210804 -0.108883 -0.044375
v -0.246838 -0.091091 -0.046086
v 0.031053 -0.107324 0.015670
v 0.025596 -0.109835 -0.000134
v -0.215887 0.120800 -0.001180
v -0.240541 -0.102459 -0.033222
v 0.341943 -0.025977 -0.020510
v 0.384772 0.074449 -0.022802
v 0.349520 0.014993 -0.002598
v 0.264064 0.022836 0.062225
v -0.021011 -0.002600 0.051361
v 0.014391 -0.041571 0.045944
v 0.015508 -0.002590 0.054124
v -0.420509 0.040755 -0.063451
v -0.405788 0.047773 -0.060260
v -0.154375 -0.057870 -0.053351
v -0.106374 -0.137019 -0.024786
v -0.105113 -0.129181 -0.035908
v 0.359630 -0.019919 -0.061863
v 0.457399 -0.059843 -0.058537
v 0.503949 -0.011923 -0.086295
v 0.472084 -0.026067 -0.088740
v 0.462617 -0.019375 -0.082965
v 0.433378 -0.019260 -0.068363
v 0.422889 -0.016980 -0.052974
v 0.462765 -0.012238 -0.062419
v 0.488165 0.026523 -0.036725
v 0.433652 -0.031508 -0.077573
v 0.469822 -0.012365 -0.076114
v -0.010663 -0.035795 0.047025
v 0.399563 -0.022456 -0.068307
v -0.002519 -0.066130 0.038429
v -0.090620 0.061548 -0.008567
v -0.104330 0.044694 -0.026616
v 0.395197 -0.017098 -0.056813
v 0.298238 0.067844 0.035334
v 0.506069 -0.041072 -0.095966
v 0.507454 -0.022954 -0.096789
v -0.251831 0.108349 -0.060090
v -0.349755 0.008928 -0.068017
v -0.367034 0.034160 -0.061556
v -0.105204 0.132988 -0.054936
v -0.144548 0.028828 -0.050956
v -0.115921 0.019231 -0.045921
v -0.156283 0.002909 -0.059628
v 0.355025 -0.077046 -0.041768
v -0.282479 -0.051059 -0.080599
v -0.275832 -0.065374 -0.076866
v -0.232151 0.103378 -0.064079
v -0.210327 0.091632 -0.065803
v -0.248748 0.082055 -0.069363
v -0.143904 -0.049608 -0.017772
v -0.107280 -0.058708 -0.002319
v -0.227930 0.071001 -0.070105
v 0.091875 -0.083926 0.037085
v 0.092570 -0.100972 0.021779
v 0.326586 0.073113 0.014522
v -0.142359 0.143114 -0.033310
v -0.146593 0.135465 -0.021039
v 0.352359 -0.071772 -0.057911
v -0.353602 -0.001865 -0.067812
v -0.139880 0.121868 -0.057050
v -0.127288 -0.003197 -0.044646
v 0.065011 -0.107997 0.018192
v -0.037366 -0.039710 0.049263
v 0.108294 -0.015233 0.040471
v 0.044416 -0.095042 -0.043566
v 0.079499 -0.104245 -0.034990
v 0.225161 -0.039028 0.005519
v -0.084212 0.131260 -0.046755
v -0.088478 0.144472 -0.049676
v -0.047963 0.147502 -0.023453
v -0.156573 -0.023122 0.079847
v -0.128151 -0.018108 0.069942
v -0.163085 -0.008234 0.087244
v 0.080779 -0.091754 -0.045917
v -0.258238 -0.004943 -0.083419
v -0.252391 -0.028936 -0.074705
v -0.285158 0.003631 -0.076455
v 0.370478 0.057492 -0.039540
v -0.065753 0.152709 -0.034337
v -0.064235 0.063893 0.000892
v -0.253304 -0.058774 -0.076231
v -0.241812 -0.076480 -0.068566
v -0.074784 -0.069343 -0.017849
v -0.065608 -0.068373 -0.037021
v -0.146496 0.017193 0.078087
v 0.119062 -0.075002 0.033487
v -0.276955 -0.026629 -0.066254
v -0.218221 -0.067651 -0.068815
v -0.256892 0.122406 -0.037261
v 0.327283 -0.067617 -0.062358
v -0.121993 0.132680 -0.021219
v 0.367146 -0.058609 -0.071509
v 0.407415 -0.056884 -0.067874
v 0.374979 -0.065870 -0.064149
v 0.342002 0.023587 -0.019799
v -0.271057 0.036082 0.025487
v -0.250006 0.014929 0.047973
v -0.230218 0.058741 0.061744
v 0.291744 0.023832 0.040324
v -0.260786 -0.077183 -0.064610
v -0.185775 -0.116014 0.003328
v -0.188807 -0.108965 0.013374
v 0.058021 -0.055235 -0.053815
v 0.069988 -0.076837 -0.052780
v 0.032930 -0.081464 -0.053354
v 0.353560 0.052812 0.033204
v 0.365809 0.064900 0.024299
v -0.019050 -0.088342 -0.043995
v -0.239234 -0.052963 -0.068837
v 0.473140 -0.040686 -0.013968
v -0.193890 0.056644 -0.066584
v -0.210601 0.042164 -0.073496
v 0.497705 -0.008053 -0.074153
v -0.170388 0.139523 -0.039258
v 0.388697 -0.022056 -0.032784
v -0.255558 0.064660 0.026559
v -0.293811 -0.065674 -0.065549
v -0.282062 -0.069584 -0.072833
v 0.402801 -0.048701 -0.073841
v 0.090410 -0.077397 -0.049523
v 0.091061 -0.101602 -0.031324
v -0.010422 0.008721 0.051738
v 0.352430 0.072790 0.022773
v -0.162063 -0.105943 0.008285
v -0.175662 0.040152 -0.065369
v -0.139608 0.053603 -0.033375
v -0.045895 0.060943 -0.024206
v -0.030861 0.047994 -0.039585
v -0.067329 0.033131 -0.041228
v -0.343572 -0.022046 0.018385
v -0.379205 -0.029454 0.006410
v -0.365943 -0.027498 -0.004489
v 0.247669 0.044652 0.025549
v -0.238806 -0.048126 0.047441
v -0.257962 -0.016189 0.037130
v -0.274602 -0.034462 0.019873
v -0.200596 0.012455 -0.077016
v -0.259186 -0.057128 0.026525
v -0.192485 -0.013153 -0.069503
v -0.171060 -0.025031 -0.054540
v -0.360004 -0.022911 0.033211
v -0.166335 -0.072598 0.026987
v 0.434547 -0.047075 -0.023980
v 0.408350 -0.055378 -0.023589
v 0.445988 -0.057641 -0.031536
v -0.161787 -0.069524 -0.044749
v -0.197618 -0.083696 -0.051564
v -0.175589 -0.074110 -0.051499
v 0.416857 -0.064319 -0.037705
v -0.055329 0.147345 0.012580
v -0.086830 0.137167 -0.007904
v -0.049678 0.140773 0.013745
v -0.160733 -0.070790 0.002548
v -0.194434 -0.079778 -0.044046
v -0.205834 0.071713 -0.061652
v -0.081299 0.015124 -0.047069
v -0.100328 0.005434 -0.045311
v 0.467879 0.028510 -0.019722
v -0.038627 0.029070 -0.052634
v -0.163698 0.136282 -0.024702
v -0.104998 0.124152 -0.045964
v -0.141737 0.113871 -0.043108
v 0.031906 -0.096993 0.029298
v 0.065272 -0.098540 0.030396
v -0.032998 -0.006690 -0.065491
v -0.000329 -0.006879 -0.072942
v -0.020296 -0.033091 -0.069679
v 0.381238 0.049788 0.022660
v 0.378902 0.035268 0.023363
v 0.417154 0.043134 0.006696
v 0.491428 -0.076675 -0.040602
v 0.477523 -0.070627 -0.030872
v -0.216079 -0.117723 -0.028320
v -0.246080 -0.108074 -0.017705
v -0.183450 -0.068941 -0.055437
v -0.187913 -0.057071 -0.058991
v 0.013159 -0.091344 -0.045412
v 0.023723 0.022888 0.052365
v 0.057854 0.034999 0.058895
v 0.398502 -0.038001 -0.076043
v -0.333124 -0.022617 -0.072914
v 0.513443 0.046071 -0.077603
v 0.497110 0.040262 -0.073898
v -0.084335 0.035332 -0.029965
v -0.106866 0.120824 -0.030610
v 0.335082 0.041220 -0.028021
v -0.106057 -0.120885 -0.039940
v 0.398407 -0.042341 -0.017291
v 0.454137 0.037619 -0.003714
v 0.103572 -0.028103 -0.009975
v 0.103727 -0.033783 0.009572
v -0.005457 0.044280 -0.053800
v -0.006665 0.026277 -0.063819
v -0.109373 -0.021025 -0.029612
v 0.064918 0.065679 0.018912
v 0.084292 0.061135 0.045716
v 0.100452 0.066529 0.028736
v 0.032878 -0.084340 0.036505
v 0.513191 0.062370 -0.070351
v -0.270670 -0.067549 -0.060998
v -0.168452 0.014648 -0.065702
v -0.035211 -0.082566 -0.043039
v -0.020917 0.013440 -0.063936
v 0.472581 0.035794 -0.005929
v 0.084578 0.067249 0.010622
v -0.043966 -0.068215 -0.049440
v -0.056060 0.133167 0.002569
v 0.089237 -0.051298 0.035853
v 0.122919 -0.058700 0.030890
v 0.111562 -0.044796 0.023746
v 0.045332 0.011353 0.061242
v -0.341494 0.043250 -0.009952
v -0.366421 0.054501 0.014059
v -0.333739 0.040481 0.019104
v -0.346558 0.045015 0.027712
v -0.075195 0.159603 -0.017843
v -0.082666 0.148261 -0.005776
v -0.131060 -0.034519 -0.025205
v -0.066325 0.160310 -0.025785
v -0.030887 0.160505 -0.006188
v -0.396649 0.035891 0.048209
v -0.398877 0.046965 0.042422
v -0.430514 0.037097 0.044282
v -0.184426 -0.070999 0.058222
v -0.310252 -0.052333 -0.059598
v 0.413056 -0.035879 -0.024600
v 0.442440 0.054454 -0.002699
v 0.091998 -0.067420 0.038675
v -0.170406 -0.056581 0.069182
v 0.050195 -0.062514 0.043041
v -0.057338 -0.069239 0.025407
v -0.001506 -0.087201 -0.046616
v 0.350020 0.016822 0.015181
v 0.031381 0.065892 0.001034
v 0.064323 0.058195 0.037663
v -0.042501 0.163952 -0.003112
v -0.150303 -0.065646 -0.050544
v -0.218506 -0.118794 -0.008255
v -0.232838 0.016589 -0.081127
v -0.419894 0.025151 0.052481
v -0.212984 -0.014180 -0.076537
v -0.389409 -0.015212 0.043243
v -0.363278 -0.012401 0.045109
v -0.068283 -0.075093 0.006159
v -0.369229 -0.003739 -0.064249
v -0.053603 0.003314 -0.056140
v -0.413229 -0.005696 -0.059899
v -0.383082 -0.013598 -0.055509
v -0.400700 -0.021955 -0.047177
v -0.389246 -0.026264 0.034872
v -0.180165 -0.067576 -0.039986
v -0.238564 -0.012736 -0.080481
v -0.221996 -0.042443 -0.074034
v -0.428687 -0.019798 -0.044462
v -0.443403 -0.004892 -0.052552
v -0.430417 0.006732 -0.064285
v 0.461145 0.069329 -0.013648
v 0.395396 0.073750 -0.004421
v 0.358943 0.040775 -0.035531
v -0.051241 0.157257 0.008645
v -0.104777 -0.107934 -0.016676
v -0.399634 -0.031826 0.017267
v -0.411552 -0.034442 -0.010811
v 0.076480 0.044529 0.062811
v -0.384880 -0.030877 -0.028046
v 0.389670 0.067373 0.012703
v 0.326465 0.024725 0.031655
v 0.031424 -0.046352 0.047654
v 0.298429 0.037111 0.053143
v 0.368384 0.023679 0.019526
v 0.061872 0.063188 -0.004400
v -0.121273 0.064057 0.050523
v -0.099726 -0.015333 0.067143
v -0.099614 -0.033257 0.055255
v -0.124263 -0.038534 0.053048
v -0.073089 0.128797 -0.030259
v -0.088337 -0.063567 -0.066450
v -0.102186 -0.068222 -0.062739
v 0.324414 -0.039167 -0.012910
v 0.371751 -0.046928 -0.077008
v 0.479374 0.072393 -0.010890
v 0.000714 0.031814 0.042434
v -0.117264 0.022626 0.069895
v -0.117164 0.042948 0.061379
v -0.146766 0.045747 0.071630
v -0.245583 -0.093288 0.019794
v -0.216198 -0.099920 0.018405
v -0.239002 -0.081307 0.025927
v -0.014956 -0.074571 -0.058295
v -0.077143 0.126259 -0.018522
v 0.442231 -0.036429 -0.027780
v 0.458934 -0.050734 -0.022631
v -0.226045 -0.107529 0.009471
v -0.241041 0.049394 -0.076595
v -0.025609 0.162875 0.020288
v -0.010150 0.165676 0.016230
v 0.421940 -0.025966 -0.035482
v -0.084324 -0.002123 -0.050808
v 0.416774 0.066872 -0.002483
v 0.447211 -0.062328 -0.041280
v 0.423703 -0.061463 -0.057490
v 0.463203 -0.063662 -0.031859
v -0.138513 0.113784 -0.023384
v -0.362030 -0.016131 -0.056632
v -0.369288 0.037085 0.039797
v -0.034080 -0.055500 -0.060775
v -0.389062 0.051310 0.034760
v -0.057142 0.138473 -0.028138
v 0.033092 0.063054 -0.020794
v 0.376832 -0.049744 -0.015519
v 0.384012 -0.067638 -0.025112
v -0.198382 -0.121867 0.001986
v -0.070188 -0.019556 -0.055550
v 0.075868 -0.022317 0.043377
v 0.255162 0.020775 0.042052
v -0.135014 -0.103622 -0.023171
v -0.423355 0.053011 0.029830
v -0.061579 -0.045716 -0.051841
v 0.076670 -0.027875 0.032358
v -0.091588 0.049213 0.050256
v -0.406807 -0.027795 -0.038400
v -0.113621 0.124384 -0.023930
v -0.039111 -0.017168 0.055853
v -0.429299 -0.003160 0.049436
v -0.435171 -0.013696 0.037620
v -0.405420 -0.018023 0.046782
v -0.323587 -0.015403 -0.072822
v -0.120854 -0.001221 0.072602
v -0.090336 0.003839 0.068369
v -0.197061 0.079249 -0.058415
v -0.087808 -0.057500 -0.062123
v -0.419710 0.013424 -0.068749
v 0.267765 0.032042 0.068701
v 0.387944 -0.072153 -0.036584
v -0.297944 -0.035787 -0.077646
v -0.385758 0.040047 -0.063347
v -0.408362 0.058712 -0.047188
v -0.380248 0.051797 -0.050277
v -0.267873 0.026147 -0.080321
v -0.267950 0.067267 -0.069753
v -0.270895 -0.046680 -0.076657
v -0.037907 -0.027022 -0.062627
v -0.253502 -0.104465 0.008092
v -0.244820 -0.108988 -0.005258
v -0.267357 -0.099298 -0.021538
v -0.159048 0.085143 -0.022450
v -0.266352 -0.071911 -0.052232
v -0.274270 -0.087972 -0.031870
v -0.396463 0.060197 0.010708
v -0.161034 -0.094238 -0.015289
v -0.295099 -0.037615 -0.071326
v -0.265168 -0.050453 -0.070075
v -0.163479 0.055120 -0.046082
v -0.386337 0.062161 -0.005801
v -0.416537 -0.025066 0.031040
v -0.390451 0.061416 -0.031955
v -0.099526 -0.053935 -0.052869
v -0.052976 -0.135713 0.079000
v -0.064750 -0.126140 0.071389
v -0.081858 -0.135523 0.040837
v 0.356752 -0.076476 -0.028299
v 0.394324 -0.069362 -0.049893
v 0.078648 0.040598 -0.029074
v 0.055897 0.031114 -0.042233
v 0.048896 0.054170 -0.026368
v -0.372739 -0.018628 -0.046579
v -0.026657 0.145549 0.029261
v -0.436820 0.058629 -0.041627
v -0.411950 0.064998 -0.034978
v -0.067947 0.058028 0.029266
v -0.039710 0.064473 0.005684
v 0.078024 0.058076 -0.014012
v 0.092547 0.052046 0.058569
v 0.363918 -0.069371 -0.022072
v 0.441314 0.065670 -0.010419
v 0.097677 -0.032494 -0.037560
v -0.424962 0.064532 0.005606
v -0.412026 0.058926 0.022266
v -0.199486 -0.092581 0.020120
v -0.105606 -0.140722 -0.007495
v -0.187005 0.135613 -0.015774
v -0.188171 0.127093 -0.002749
v -0.409434 0.067343 -0.012990
v 0.090586 -0.022290 0.018111
v 0.095725 0.057309 0.048877
v -0.200932 -0.077987 -0.060898
v -0.116272 -0.108225 -0.013186
v -0.281368 0.014717 -0.083419
v -0.204686 -0.057360 -0.066850
v -0.194858 -0.082254 0.036723
v -0.186293 -0.080577 0.025629
v 0.410986 0.058359 0.006267
v -0.342819 0.017806 -0.062005
v -0.414958 -0.031563 0.019220
v -0.142723 0.120586 -0.016035
v 0.023944 0.057556 -0.036104
v -0.187352 0.113466 -0.065105
v 0.521599 0.026240 -0.055767
v -0.059467 0.049651 0.040071
v -0.364707 0.045702 -0.045508
v -0.022664 0.155173 0.031873
v 0.349332 -0.059352 -0.073248
v -0.093120 0.031720 0.061534
v -0.104051 0.131602 -0.021274
v -0.007471 -0.057613 -0.069742
v -0.054029 0.063214 -0.013806
v -0.049297 -0.048525 0.042536
v -0.083928 0.155539 -0.041916
v -0.320996 -0.011930 -0.065387
v -0.309569 -0.039599 -0.060949
v -0.151311 -0.040382 0.067216
v 0.369195 -0.037052 -0.015632
v 0.017559 0.046872 -0.053357
v -0.109194 -0.138013 0.004206
v 0.028582 -0.015607 0.054478
v 0.354832 0.078152 0.005977
v 0.347874 0.078480 -0.005492
v 0.354119 0.025977 0.027731
v -0.015459 0.149566 0.003042
v 0.513226 0.026531 -0.024777
v -0.365803 0.052083 -0.017979
v -0.207928 0.104726 -0.062679
v 0.506092 -0.074962 -0.052717
v -0.385685 0.024878 0.047641
v -0.208431 0.108460 0.008262
v -0.150739 -0.021446 -0.043631
v -0.093016 -0.062461 0.019786
v -0.090464 -0.065926 0.001120
v -0.108539 -0.131828 0.013948
v -0.170404 0.122709 -0.061204
v -0.046670 0.134193 -0.008063
v -0.254659 0.015100 -0.084183
v -0.179579 0.063526 -0.057505
v -0.157673 0.111686 -0.056957
v 0.006344 0.012445 0.049900
v -0.170323 0.070892 -0.053578
v -0.186694 0.090644 -0.061602
v -0.075442 -0.069405 0.023250
v -0.029256 0.144252 -0.004649
v -0.197877 -0.125417 -0.029055
v -0.194957 -0.118192 -0.039897
v 0.387293 -0.032296 -0.019479
v 0.519280 0.033103 -0.071941
v -0.065081 -0.012458 0.063243
v -0.059337 -0.034443 0.057225
v -0.014812 0.064985 -0.003360
v -0.140224 -0.114440 -0.000179
v 0.503594 0.085502 0.007837
v 0.478840 0.068665 0.001154
v 0.500397 0.083527 0.027496
v -0.064286 -0.140020 0.043753
v 0.006831 -0.076428 -0.059966
v 0.017876 -0.064030 -0.066043
v -0.099223 -0.122643 0.029235
v -0.232026 -0.034571 0.064010
v -0.004573 0.149409 0.053159
v 0.004034 0.164190 0.055636
v -0.051678 0.038441 0.052269
v -0.044035 0.007726 0.056486
v -0.026281 0.027419 0.043145
v -0.175833 -0.045332 0.085886
v 0.103006 0.053952 -0.015944
v 0.106120 0.035536 -0.025473
v -0.340863 -0.007642 0.042609
v -0.334647 -0.014840 0.030747
v 0.491507 0.072956 0.019594
v -0.150160 0.086576 0.015240
v -0.229888 -0.008400 0.071892
v 0.102777 0.061470 -0.005490
v -0.087058 -0.140961 0.025479
v -0.439477 0.061616 0.004474
v -0.451862 0.047378 0.019883
v -0.218693 -0.083341 0.026590
v -0.169427 0.089275 0.058334
v -0.176672 0.080774 0.076619
v -0.151828 0.080258 0.053008
v -0.155086 0.065855 0.066223
v 0.505891 -0.057309 -0.080435
v -0.181197 -0.098352 0.013880
v 0.085399 0.019475 -0.033583
v -0.072286 0.050571 -0.021699
v 0.040926 0.179719 0.055093
v 0.059847 0.170144 0.058735
v 0.030540 0.172144 0.039430
v -0.342471 0.031943 -0.043493
v -0.208712 -0.095308 -0.050623
v -0.195370 0.101023 0.043619
v -0.181592 0.114723 0.004628
v -0.443627 0.043277 0.037218
v -0.086724 -0.142264 0.013754
v -0.059331 -0.134335 0.034999
v 0.364129 0.067851 -0.028367
v 0.345099 0.055109 -0.032388
v -0.016262 -0.147952 0.106440
v -0.029201 -0.146792 0.125667
v -0.039740 -0.142321 0.096524
v 0.483840 -0.071322 -0.005109
v 0.474794 -0.057210 -0.009577
v -0.141776 -0.100618 -0.012323
v -0.363736 0.047750 0.033129
v 0.363932 -0.026311 -0.022962
v -0.173878 0.134552 -0.056572
v -0.301047 0.009095 0.010262
v -0.292137 0.030991 0.008726
v -0.410160 -0.003351 0.054326
v 0.013078 -0.045821 -0.071153
v -0.274875 0.002004 0.025947
v -0.296204 -0.007411 0.010187
v -0.378879 0.000062 0.047220
v -0.261671 -0.055922 -0.061140
v -0.180532 0.140471 -0.047535
v -0.186720 -0.048424 -0.054456
v -0.078300 -0.082620 -0.052244
v -0.081748 -0.064264 -0.056334
v -0.038437 0.048508 0.033306
v 0.023638 0.176446 0.043289
v 0.016172 0.174619 0.054999
v -0.142064 0.066955 0.057982
v -0.187609 -0.079899 -0.035637
v -0.087376 -0.087079 -0.054910
v 0.034589 0.180522 0.066931
v 0.116229 0.027626 -0.021615
v 0.035342 0.165643 0.041485
v -0.366516 0.012972 0.059020
v -0.366454 0.004258 0.053924
v -0.343981 0.009074 0.050450
v -0.256661 0.091404 0.009976
v -0.230106 0.082601 0.046190
v -0.246833 0.104805 0.010277
v -0.077760 -0.031114 0.057716
v 0.003324 -0.030500 -0.074656
v 0.018803 -0.002281 -0.070986
v 0.029576 -0.028866 -0.067888
v -0.128167 -0.112628 -0.007202
v -0.176692 -0.048399 -0.046458
v -0.101263 -0.076256 -0.057162
v -0.154544 -0.050297 -0.043480
v -0.321098 0.003586 0.044671
v -0.330278 0.021044 0.043293
v -0.169236 0.061579 0.082956
v -0.167323 0.025967 0.086190
v -0.430487 -0.031758 -0.006676
v -0.453773 -0.016540 -0.008832
v -0.441353 -0.022041 -0.030676
v 0.090222 -0.112437 0.002642
v 0.084509 -0.109130 0.019854
v -0.444536 -0.023414 0.015089
v -0.427501 0.066716 -0.018752
v -0.010433 0.161615 0.027934
v 0.071531 -0.081838 0.038738
v 0.373092 -0.073390 -0.046029
v -0.345482 -0.030477 -0.052341
v -0.341062 0.018720 -0.051770
v 0.038722 0.024907 -0.057413
v 0.013354 0.033547 -0.063035
v 0.031970 0.042117 -0.051338
v 0.120673 0.007785 -0.014190
v -0.329666 -0.016878 -0.013681
v -0.349045 -0.019115 -0.014614
v -0.327305 -0.012931 -0.029923
v -0.058028 -0.023949 -0.056717
v 0.073800 -0.067008 0.041674
v -0.288854 -0.044158 0.003041
v -0.074241 0.042648 0.054039
v -0.419749 -0.031558 -0.028036
v 0.064106 -0.053130 0.043302
v -0.276863 -0.062219 0.011485
v -0.254632 -0.073621 0.020614
v -0.288691 -0.053980 -0.062158
v -0.080627 -0.132076 -0.003237
v -0.348184 -0.011472 -0.031051
v -0.019484 0.048172 0.030128
v 0.077095 -0.040116 0.023727
v -0.239449 -0.062709 0.034536
v 0.491197 0.031051 -0.007437
v 0.052970 -0.006247 0.058838
v -0.191388 -0.108762 -0.042790
v -0.146100 0.078883 0.038440
v -0.111822 -0.054873 0.032660
v 0.074771 0.000262 0.060529
v 0.068382 -0.017271 0.053100
v -0.192845 -0.055483 0.083790
v -0.223159 -0.070866 0.035895
v 0.495806 0.041233 0.021650
v 0.481443 0.045976 0.010662
v -0.364795 0.022159 0.055538
v -0.075189 0.001427 0.063764
v -0.337011 0.004295 -0.054341
v -0.266167 -0.100947 -0.004634
v -0.267062 -0.087153 0.009073
v -0.394853 0.001341 0.049956
v -0.035124 -0.139218 0.083858
v 0.031752 0.000124 -0.065114
v 0.465722 0.045476 -0.003183
v -0.231071 0.106157 0.014598
v -0.351848 0.024848 0.047199
v -0.362773 -0.020035 -0.030880
v -0.072270 -0.115767 0.008403
v -0.041568 -0.124457 0.059948
v -0.070577 -0.123567 0.009042
v -0.404234 0.017988 0.053071
v -0.171154 -0.082299 -0.022461
v -0.339866 -0.028838 -0.047650
v -0.251003 0.122430 -0.018991
v -0.341628 0.032145 0.040973
v 0.463821 0.059380 -0.003308
v -0.258437 -0.070798 -0.058352
v -0.245983 -0.078646 -0.058048
v -0.120244 -0.128352 -0.000758
v -0.343789 -0.021941 0.005477
v -0.006141 0.159979 0.011759
v 0.517663 0.090594 0.014851
v 0.350966 0.074342 -0.017620
v -0.213487 0.101429 0.021268
v -0.055443 -0.111685 0.047915
v -0.341832 0.004815 -0.043610
v -0.203650 -0.079215 0.040832
v 0.088861 -0.036742 0.023928
v 0.513418 0.032704 0.020919
v -0.146139 -0.102633 -0.000829
v -0.190136 -0.038114 -0.059405
v 0.371049 0.072573 0.013928
v -0.061457 0.022333 0.061065
v 0.065542 -0.006869 -0.044238
v 0.087063 -0.017114 -0.042531
v 0.062561 -0.030234 -0.048472
v 0.367276 0.076564 -0.011665
v 0.376639 0.076383 -0.000989
v 0.488936 -0.047409 0.003998
v -0.083506 -0.038427 0.049631
v 0.036505 -0.050476 -0.061624
v 0.053930 -0.037298 0.048611
v -0.167551 0.130718 -0.009624
v -0.031964 0.136579 0.013666
v -0.198295 0.081417 0.080394
v -0.188480 0.069319 0.090276
v -0.189671 0.093050 0.064942
v 0.078939 -0.040487 -0.049957
v -0.180014 0.031595 0.093670
v -0.184170 -0.010529 0.099779
v -0.174617 0.141582 -0.024388
v 0.081982 -0.095690 0.034758
v 0.018549 0.158456 0.030043
v 0.004108 0.151588 0.024732
v -0.091573 -0.113057 -0.016697
v -0.096708 -0.107255 0.005875
v -0.074195 -0.108638 0.022459
v -0.173878 -0.028828 0.093257
v -0.013273 0.029294 0.047085
v -0.217986 0.003413 0.088501
v -0.209762 -0.027455 0.093814
v -0.383303 0.013238 0.054137
v 0.061277 0.015417 -0.041693
v -0.091626 -0.138821 -0.009752
v 0.114712 -0.008342 -0.000079
v 0.044263 -0.007733 -0.056648
v -0.438785 0.019911 -0.063350
v 0.477508 0.060062 0.008783
v -0.181441 0.102768 0.030891
v 0.065192 0.023947 0.063593
v -0.225439 0.042243 0.073337
v 0.494834 -0.088794 -0.002379
v -0.451826 -0.004019 0.035034
v -0.440584 0.015135 0.049699
v -0.020372 -0.140933 0.092521
v 0.010544 0.167752 0.029340
v -0.161181 0.116482 -0.005535
v -0.092123 -0.122315 -0.025295
v 0.038324 -0.065311 -0.058395
v -0.087662 -0.108546 0.025423
v 0.357942 -0.039366 -0.010883
v -0.320671 0.023697 -0.045373
v -0.327617 0.030784 -0.034328
v -0.307262 0.031583 -0.042506
v -0.057601 -0.109348 0.062043
v -0.033609 -0.117473 0.078590
v -0.038185 -0.102741 0.098391
v 0.044573 0.175170 0.078923
v 0.054919 0.175373 0.071121
v -0.433423 -0.028008 0.016898
v 0.081612 -0.012360 -0.037684
v -0.327789 -0.026091 -0.055732
v -0.448775 0.012079 -0.056396
v 0.081586 0.031694 0.069083
v -0.097172 -0.054367 0.036646
v -0.202233 -0.128421 -0.016285
v -0.436669 0.049362 -0.056284
v -0.285134 0.040729 -0.077316
v -0.298766 0.029204 -0.078561
v -0.215890 0.094928 0.040256
v -0.299215 0.004309 -0.068208
v -0.192889 -0.031744 0.099504
v -0.188219 -0.041947 0.095515
v -0.168670 0.105159 0.004354
v -0.423467 0.005952 0.054412
v -0.219363 -0.044146 0.075061
v 0.508713 -0.097428 0.024125
v 0.511910 -0.099392 0.008135
v -0.312970 0.035241 -0.027317
v -0.313023 -0.018589 -0.012829
v -0.296981 -0.035822 -0.032420
v -0.298907 -0.029571 -0.009148
v -0.164647 -0.091649 0.000798
v 0.049605 0.164687 0.058289
v -0.062973 -0.055147 0.041976
v -0.274509 0.069233 0.005168
v -0.310648 -0.018110 -0.033184
v -0.085882 -0.082621 -0.063197
v -0.180536 -0.077248 0.010006
v -0.088357 -0.060443 -0.015720
v 0.003374 0.168512 0.036750
v -0.439544 0.035048 -0.061272
v 0.511581 0.041157 0.044682
v -0.447278 0.041978 -0.051171
v -0.456874 0.041652 -0.035171
v -0.323639 -0.009975 0.026720
v -0.256453 0.116415 -0.013310
v -0.329092 -0.012746 0.013561
v 0.085809 -0.059768 -0.054217
v -0.451490 0.021847 0.044720
v -0.283667 -0.069242 -0.014868
v -0.275643 -0.089426 -0.007031
v -0.272559 0.080082 -0.064340
v -0.082786 -0.126079 0.049147
v -0.313242 0.016320 0.002863
v 0.512189 -0.008894 -0.070599
v -0.370096 0.023498 0.048932
v -0.071211 -0.075253 -0.064998
v -0.080046 -0.060409 0.032542
v -0.201141 -0.007017 0.100430
v -0.195636 0.032493 0.096312
v -0.197931 -0.065037 0.068205
v 0.086467 0.003293 -0.036041
v -0.278826 -0.056681 -0.049799
v 0.515543 0.075770 -0.044341
v 0.503512 -0.090317 -0.019747
v -0.163692 -0.044593 -0.037607
v -0.108831 -0.118130 0.008584
v -0.329042 0.032840 0.030615
v 0.103024 0.018699 -0.028642
v -0.300153 0.042023 -0.006837
v 0.006219 0.156811 0.066724
v 0.021809 0.167388 0.081068
v -0.060152 -0.116982 0.081574
v -0.078271 -0.112373 0.051831
v 0.030640 0.175225 0.082799
v -0.158666 0.100786 -0.020158
v -0.153021 0.106325 -0.035544
v -0.155871 0.088136 0.040942
v -0.266905 0.105667 -0.051804
v -0.184313 -0.087037 0.013965
v -0.018417 -0.129982 0.091909
v -0.177219 0.100466 -0.065861
v -0.455717 0.027310 -0.049098
v -0.091011 -0.023251 -0.033772
v -0.163028 0.095612 0.010713
v -0.166892 0.098049 0.026656
v -0.206804 -0.048161 0.085525
v -0.304026 -0.016465 0.001097
v -0.173013 0.086251 -0.062100
v -0.224959 -0.060274 0.052189
v 0.013527 0.143917 0.075006
v 0.021883 0.141421 0.081553
v 0.496973 -0.086962 0.032740
v 0.493789 -0.088485 0.014193
v -0.004623 -0.140790 0.131712
v -0.015914 -0.135218 0.145131
v -0.021455 -0.143200 0.137863
v -0.094819 -0.055891 -0.007880
v -0.013700 -0.147286 0.122349
v 0.489347 -0.067728 0.014052
v 0.502404 -0.051716 0.025496
v -0.159376 0.109003 -0.011698
v -0.011603 0.142457 0.027662
v -0.016686 0.140440 0.008440
v -0.443624 0.059978 -0.022802
v 0.107359 -0.019245 0.019353
v -0.078707 0.021654 0.062155
v -0.324380 0.007894 -0.044420
v -0.355159 -0.020018 -0.032652
v -0.165013 0.097605 -0.059863
v -0.328071 -0.013849 0.001075
v -0.079387 -0.059316 -0.025228
v 0.510885 -0.020674 -0.031850
v 0.072228 -0.030584 0.021274
v -0.322671 -0.010239 -0.003099
v 0.491278 0.057495 0.026042
v -0.075937 -0.042690 -0.041143
v -0.312777 -0.003982 0.002895
v 0.082264 -0.027013 0.010382
v 0.018155 0.134483 0.060165
v 0.007309 0.139057 0.064755
v 0.000928 0.143752 0.044682
v -0.161625 -0.062430 -0.010992
v -0.173774 -0.080141 -0.002373
v -0.069776 -0.108124 0.054607
v -0.326739 0.034857 -0.014621
v -0.307601 0.020156 -0.049653
v -0.310624 -0.001566 -0.044206
v 0.022876 0.131815 0.076492
v -0.457812 0.007034 -0.042297
v -0.211721 0.069782 0.081186
v -0.377864 0.019296 0.056091
v -0.210754 0.029084 0.091352
v 0.512216 -0.036766 0.003655
v 0.503494 0.079967 0.052637
v 0.517054 0.084325 0.056703
v 0.037191 0.163856 0.095702
v 0.515231 0.089505 0.039991
v -0.327985 0.036390 0.007364
v -0.219305 0.083877 0.053230
v -0.299126 -0.024682 -0.046904
v -0.049228 -0.106963 0.096953
v -0.452575 -0.008026 -0.035977
v -0.001120 -0.140759 0.119371
v 0.094812 -0.023485 0.008590
v 0.045571 0.165596 0.085073
v 0.053538 0.154131 0.086188
v 0.060839 0.166970 0.072681
v -0.288621 -0.025676 -0.055783
v -0.285839 -0.059879 -0.036817
v 0.500127 0.053991 0.047400
v -0.463422 0.021999 -0.036373
v -0.084259 -0.117212 0.040225
v 0.022739 0.150446 0.040524
v 0.008879 0.144302 0.039698
v -0.202463 0.069553 0.089093
v -0.163630 0.092552 -0.006291
v -0.271784 0.093067 -0.011441
v 0.061175 -0.033164 0.040340
v 0.494396 -0.070876 0.033753
v -0.089171 -0.043197 -0.030589
v -0.341080 -0.008050 -0.048804
v -0.458336 -0.007492 0.017787
v -0.333936 0.018721 -0.044601
v -0.210514 -0.064515 0.059483
v 0.506938 -0.066322 0.041565
v 0.516911 -0.050029 0.026004
v -0.048389 -0.137579 0.062647
v -0.075011 -0.094571 -0.058858
v -0.175734 -0.063228 -0.019611
v 0.510744 0.052945 0.059089
v 0.524792 0.047942 0.057614
v 0.523761 0.058700 0.065916
v 0.505666 -0.082187 0.041906
v -0.286778 0.058468 -0.002314
v -0.001528 -0.129026 0.133683
v -0.014902 -0.117367 0.144180
v 0.048035 0.042411 -0.040662
v -0.275849 0.090128 -0.047412
v -0.290384 0.060553 -0.044054
v -0.272474 0.099954 -0.030931
v -0.298080 0.039164 -0.064283
v 0.525408 0.038381 0.042256
v 0.026992 0.159549 0.075965
v 0.026933 0.154055 0.059441
v 0.040992 0.159803 0.072400
v -0.287624 0.067269 -0.020536
v -0.320999 0.035744 -0.006528
v -0.290568 -0.051536 -0.021373
v -0.283810 0.058271 -0.063713
v 0.041593 0.169549 0.090063
v -0.464598 0.002478 -0.017093
v 0.509106 -0.091226 0.036205
v 0.512558 0.069373 0.064372
v -0.008654 -0.113656 0.135850
v 0.035501 0.161140 0.087994
v -0.033132 -0.109478 0.094732
v -0.030302 -0.112534 0.112303
v -0.017824 -0.122508 0.104614
v 0.522030 0.050281 -0.070450
v 0.525876 0.038475 -0.057538
v 0.526238 0.058447 -0.042548
v 0.021718 0.151814 0.071598
v 0.523008 0.069604 -0.051262
v -0.169199 0.085141 -0.043164
v -0.165859 0.070024 -0.044752
v -0.168551 0.082938 -0.053577
v -0.040834 -0.139957 0.123756
v -0.166519 0.093947 -0.049887
v -0.031948 -0.140502 0.146051
v -0.032155 -0.106905 0.125004
v -0.029020 -0.119403 0.138925
v 0.518593 -0.017611 -0.057933
v 0.516020 -0.029578 -0.025294
v 0.520187 -0.031923 -0.044567
v 0.530118 0.075620 0.009660
v 0.523344 0.070211 -0.023606
v 0.520364 0.082615 -0.016495
v -0.069657 -0.084502 -0.059034
v -0.028913 -0.104013 0.143794
v -0.035465 -0.101249 0.140103
v -0.032353 -0.119758 0.150333
v -0.177865 -0.070233 -0.022510
v -0.320885 0.027285 0.025148
v -0.320734 0.005964 0.030679
v -0.323373 0.007322 0.017554
v -0.327980 0.009889 0.010614
v -0.455874 0.031839 0.035389
v -0.465021 0.018278 0.014257
v -0.459699 0.014422 0.035054
v 0.527380 0.045355 -0.024691
v -0.175150 -0.059570 -0.038189
v -0.458717 0.042919 0.010321
v -0.462367 0.036666 -0.023707
v -0.467275 0.017121 -0.019307
v -0.462666 0.037255 -0.003100
v 0.521596 -0.086278 0.024569
v 0.519047 -0.095700 0.023232
v 0.515743 -0.094358 -0.010709
v -0.167399 0.091392 -0.034312
v 0.043217 0.157474 0.084872
v 0.532725 0.055928 0.014344
v 0.528249 0.037370 0.022864
v 0.526912 0.039863 0.005716
v 0.530775 0.075780 0.048377
v 0.532212 0.060405 0.053409
v -0.022546 -0.116569 0.150792
v -0.022146 -0.119684 0.157772
v -0.023111 -0.126429 0.150146
v 0.517036 -0.082433 0.041803
v 0.522122 -0.072431 0.037589
v -0.320884 0.015642 0.043871
v -0.028911 -0.102220 0.132983
v -0.023957 -0.131848 0.154998
v 0.527138 0.089681 0.021353
v 0.044896 0.153853 0.095666
v -0.321257 0.026511 0.001056
v 0.531796 0.046495 0.040447
v 0.519309 -0.077082 -0.019514
v 0.519035 -0.053542 -0.048544
v 0.515564 -0.069732 -0.054283
v 0.063182 0.155967 0.064874
v -0.306034 -0.003125 -0.054538
v -0.096928 -0.027506 -0.026356
v 0.019573 0.143295 0.051017
v 0.022936 0.141580 0.070324
v -0.023114 -0.128658 0.143112
v -0.024699 -0.136042 0.144002
v 0.517603 -0.015440 -0.085808
v 0.515378 -0.031684 -0.097565
v 0.517983 -0.029747 -0.086484
v 0.514731 -0.048482 -0.088688
v 0.522687 -0.055013 0.002328
v -0.184838 -0.069769 -0.032101
v -0.175863 -0.067470 -0.031476
v -0.163232 0.098351 -0.003022
v 0.498243 0.070949 0.044503
v 0.521983 -0.047470 0.012505
v 0.086219 -0.014901 -0.021924
v 0.521458 0.031440 -0.015418
v -0.463407 -0.000969 0.001197
v -0.343343 -0.018290 -0.042506
v 0.092386 -0.018956 -0.029877
v 0.527725 0.085751 0.052472
v 0.519215 -0.062775 0.041386
v 0.105928 -0.011121 -0.010287
v 0.109113 0.005348 -0.023283
v 0.089228 -0.033709 -0.048753
v -0.345995 -0.026316 -0.035077
v 0.503569 0.066214 0.060013
v 0.066387 -0.043238 0.031575
v 0.056370 0.149716 0.071264
v -0.005174 -0.130028 0.114913
v -0.116104 -0.121414 -0.000839
v -0.323880 0.008822 0.004722
v 0.095531 -0.003655 -0.022473
v 0.524550 0.072277 0.065723
v -0.022926 -0.116742 0.123667
v 0.101699 -0.020038 -0.000129
v 0.099201 -0.024978 -0.018700
v -0.300200 0.050329 -0.033762
v -0.452405 0.053843 -0.008416
v -0.050650 -0.128699 0.106774
v 0.036070 0.159432 0.052511
v -0.047101 -0.125547 0.124313
v -0.011517 -0.117636 0.120703
v -0.031807 -0.128830 0.155182
v 0.031957 0.135914 0.079962
v -0.312190 0.030694 -0.007928
v -0.019913 -0.117198 0.134891
v -0.304794 0.039669 -0.019075
v -0.053743 -0.114373 0.102129
v 0.047587 0.156174 0.076455
v 0.053041 0.144301 0.084430
v -0.039109 -0.099020 0.115546
v -0.044864 -0.105120 0.123705
v -0.039428 -0.124655 0.141362
v -0.002962 -0.116850 0.126692
v 0.004787 -0.124679 0.124912
v -0.157874 0.098637 -0.044851
v -0.305143 0.013658 -0.059915
v -0.090090 -0.024724 -0.039555
v 0.061038 0.155984 0.073995
f 1 2 3
f 4 5 6
f 7 2 1
f 8 9 10
f 11 9 8
f 5 4 12
f 9 13 10
f 14 10 13
f 1 15 16
f 6 1 16
f 17 18 19
f 17 19 20
f 21 22 23
f 24 18 17
f 14 13 25
f 16 18 24
f 26 14 25
f 27 21 23
f 28 29 30
f 31 32 33
f 28 34 29
f 35 36 37
f 16 15 18
f 38 39 40
f 41 42 43
f 40 39 42
f 23 44 45
f 33 46 31
f 47 43 48
f 42 49 43
f 50 51 7
f 44 23 52
f 53 14 26
f 54 51 50
f 55 37 36
f 56 57 58
f 23 45 59
f 30 60 28
f 61 30 29
f 62 63 64
f 65 66 67
f 68 53 26
f 48 43 69
f 70 71 72
f 60 30 73
f 74 75 76
f 11 77 9
f 52 78 44
f 66 75 74
f 57 20 58
f 11 79 77
f 67 66 80
f 15 30 61
f 81 82 83
f 15 3 30
f 40 79 11
f 7 1 50
f 71 70 84
f 83 82 63
f 11 8 85
f 85 38 11
f 86 87 88
f 89 62 64
f 90 91 92
f 90 92 93
f 8 94 95
f 96 5 12
f 8 95 85
f 86 97 87
f 5 1 6
f 98 99 100
f 101 102 53
f 103 56 104
f 40 47 79
f 99 105 100
f 6 16 106
f 4 107 108
f 109 110 111
f 4 6 106
f 103 104 112
f 111 110 91
f 113 114 115
f 115 114 116
f 117 118 119
f 102 120 53
f 107 4 106
f 121 71 84
f 122 123 124
f 38 40 11
f 122 124 125
f 58 126 56
f 127 128 129
f 130 31 46
f 129 128 131
f 56 126 104
f 103 112 132
f 133 134 119
f 126 58 61
f 135 71 136
f 137 73 3
f 126 22 21
f 126 61 22
f 42 41 40
f 3 73 30
f 138 139 140
f 22 29 52
f 27 141 21
f 3 2 137
f 43 49 113
f 8 10 94
f 22 52 23
f 138 142 139
f 136 71 143
f 105 99 144
f 135 68 72
f 145 105 144
f 146 147 93
f 140 148 149
f 119 118 133
f 149 148 150
f 151 33 32
f 53 94 10
f 131 69 115
f 61 58 19
f 152 153 154
f 131 115 129
f 132 112 155
f 23 59 27
f 71 135 72
f 156 157 158
f 159 160 161
f 162 163 164
f 69 43 113
f 113 115 69
f 120 94 53
f 153 165 154
f 164 163 166
f 167 168 169
f 70 26 170
f 171 157 156
f 172 168 167
f 173 83 63
f 174 101 68
f 175 85 95
f 176 177 9
f 178 147 179
f 180 181 182
f 39 38 175
f 59 183 184
f 9 177 13
f 185 186 187
f 147 90 93
f 170 26 25
f 163 188 189
f 38 85 175
f 25 177 190
f 187 186 191
f 163 189 192
f 184 27 59
f 193 111 194
f 101 53 68
f 73 195 60
f 196 197 129
f 52 29 34
f 195 73 137
f 129 116 196
f 198 76 75
f 199 57 56
f 200 201 202
f 175 203 39
f 111 91 90
f 203 204 39
f 109 205 110
f 50 1 5
f 138 140 149
f 206 207 167
f 114 113 49
f 76 198 208
f 20 19 58
f 62 173 63
f 161 134 159
f 137 209 195
f 210 146 211
f 212 213 214
f 215 81 83
f 216 217 218
f 194 111 219
f 147 178 220
f 205 109 221
f 222 223 224
f 103 199 56
f 215 225 81
f 50 5 226
f 213 227 214
f 228 229 230
f 224 231 222
f 182 232 180
f 208 233 234
f 235 233 208
f 236 233 235
f 80 66 237
f 207 238 167
f 202 239 200
f 234 76 208
f 172 210 211
f 190 177 240
f 112 241 35
f 242 217 216
f 228 230 243
f 244 188 245
f 246 247 212
f 141 145 241
f 248 226 99
f 249 199 132
f 155 37 250
f 244 191 188
f 251 252 253
f 183 100 105
f 145 144 241
f 254 255 256
f 123 257 258
f 252 259 253
f 256 255 260
f 72 68 26
f 247 213 212
f 248 50 226
f 209 2 51
f 37 261 250
f 123 258 124
f 211 262 172
f 209 137 2
f 121 128 127
f 110 263 92
f 264 79 47
f 265 266 267
f 171 268 269
f 161 160 270
f 271 83 272
f 84 128 121
f 47 48 264
f 52 34 78
f 273 249 132
f 165 274 154
f 35 241 36
f 275 276 277
f 278 279 280
f 281 111 193
f 75 66 65
f 268 171 156
f 187 191 244
f 141 27 184
f 9 77 176
f 276 282 277
f 280 182 181
f 277 283 275
f 51 2 7
f 284 266 265
f 285 249 273
f 272 83 173
f 276 152 282
f 186 185 286
f 142 287 288
f 273 289 285
f 35 155 112
f 115 116 129
f 290 25 190
f 106 16 24
f 291 153 152
f 152 292 291
f 141 184 145
f 179 172 167
f 172 262 168
f 184 183 105
f 271 215 83
f 40 41 47
f 98 248 99
f 87 97 293
f 25 290 237
f 142 138 287
f 172 179 210
f 294 171 295
f 74 170 66
f 213 296 227
f 297 298 299
f 276 292 152
f 300 24 17
f 242 301 302
f 42 39 204
f 303 304 305
f 306 307 201
f 305 304 308
f 278 285 289
f 309 310 51
f 237 311 80
f 312 313 246
f 314 300 17
f 294 315 171
f 242 302 217
f 316 227 296
f 298 317 299
f 293 97 303
f 257 123 318
f 220 219 147
f 205 263 110
f 319 286 284
f 253 88 251
f 278 289 279
f 174 68 135
f 42 204 320
f 321 322 125
f 96 12 55
f 282 152 154
f 144 99 323
f 324 325 326
f 327 328 329
f 330 322 321
f 331 332 333
f 146 93 334
f 125 124 164
f 47 41 43
f 325 335 326
f 287 138 336
f 186 286 319
f 138 149 336
f 337 338 302
f 339 340 192
f 329 328 341
f 146 334 211
f 309 51 342
f 332 343 333
f 337 344 338
f 192 189 339
f 88 345 251
f 314 17 346
f 347 246 313
f 348 349 350
f 22 61 29
f 277 278 283
f 351 235 208
f 125 164 321
f 104 126 21
f 88 87 345
f 237 170 25
f 182 280 279
f 352 353 354
f 36 96 55
f 236 355 233
f 338 356 302
f 357 225 358
f 283 278 280
f 359 360 361
f 243 362 363
f 364 166 192
f 365 344 337
f 180 232 366
f 367 368 308
f 276 275 292
f 369 280 181
f 370 212 214
f 289 371 279
f 166 163 192
f 372 352 354
f 356 373 374
f 375 349 348
f 376 28 377
f 361 360 321
f 265 267 378
f 241 21 141
f 379 243 363
f 360 330 321
f 358 225 380
f 367 381 368
f 382 288 298
f 383 384 385
f 386 387 388
f 76 234 389
f 390 391 392
f 381 393 368
f 390 392 394
f 142 288 382
f 99 226 323
f 395 299 396
f 397 387 386
f 201 200 398
f 74 76 389
f 399 400 401
f 402 403 404
f 400 405 401
f 198 351 208
f 104 21 241
f 406 407 408
f 201 398 409
f 402 410 403
f 411 367 308
f 298 412 413
f 281 414 111
f 54 50 248
f 384 415 385
f 171 315 157
f 241 112 104
f 370 416 212
f 417 418 316
f 78 28 376
f 373 218 217
f 419 257 420
f 421 422 423
f 154 349 375
f 424 425 426
f 427 428 274
f 429 430 260
f 431 432 270
f 275 283 369
f 166 433 164
f 434 435 130
f 282 436 285
f 420 257 318
f 437 242 216
f 178 438 439
f 440 412 298
f 283 280 369
f 197 196 143
f 441 418 417
f 442 75 65
f 238 179 167
f 443 173 62
f 444 400 399
f 109 445 426
f 145 184 105
f 446 447 183
f 448 449 415
f 306 450 307
f 451 452 453
f 220 194 219
f 419 420 454
f 455 438 178
f 456 373 356
f 457 299 395
f 458 192 340
f 310 209 51
f 415 449 459
f 18 15 19
f 210 179 147
f 460 445 109
f 461 451 453
f 282 154 375
f 75 442 198
f 462 458 340
f 463 408 407
f 257 187 244
f 132 199 103
f 464 465 466
f 434 467 435
f 364 433 166
f 468 469 470
f 469 471 470
f 342 51 54
f 472 246 473
f 474 450 306
f 289 250 371
f 335 475 476
f 377 28 60
f 477 478 479
f 417 316 296
f 398 200 480
f 53 10 14
f 273 250 289
f 218 373 481
f 482 444 399
f 459 422 421
f 426 445 483
f 484 465 464
f 161 270 432
f 212 312 246
f 485 480 200
f 429 260 255
f 342 54 465
f 454 420 486
f 188 191 487
f 488 433 364
f 489 263 205
f 282 285 278
f 490 32 451
f 451 32 491
f 475 492 476
f 472 247 246
f 493 270 160
f 429 494 430
f 57 346 20
f 368 393 495
f 496 477 479
f 393 497 495
f 425 221 426
f 1 3 15
f 355 48 233
f 447 100 183
f 498 397 499
f 188 487 500
f 501 315 216
f 282 375 436
f 415 459 502
f 503 504 505
f 506 397 498
f 415 384 448
f 410 402 507
f 332 508 509
f 503 510 511
f 511 512 503
f 513 206 167
f 262 514 168
f 93 92 515
f 475 472 492
f 472 516 492
f 509 365 332
f 32 31 491
f 264 48 355
f 62 517 443
f 387 518 519
f 158 504 503
f 258 257 244
f 109 414 460
f 500 189 188
f 31 435 520
f 387 519 521
f 522 424 426
f 520 491 31
f 96 36 323
f 236 523 355
f 117 402 493
f 459 421 502
f 286 185 524
f 238 178 179
f 36 144 323
f 334 93 515
f 355 523 525
f 205 526 489
f 490 451 527
f 346 17 20
f 148 528 150
f 130 435 31
f 529 328 530
f 328 531 530
f 532 441 417
f 225 357 81
f 159 533 534
f 286 524 266
f 55 12 535
f 536 375 348
f 226 5 96
f 537 206 513
f 130 46 538
f 539 540 541
f 542 543 544
f 545 364 462
f 446 183 59
f 546 441 532
f 277 282 278
f 361 321 433
f 547 548 366
f 455 178 238
f 549 543 542
f 495 550 368
f 35 37 155
f 492 551 552
f 371 482 553
f 427 274 165
f 37 55 535
f 515 92 351
f 412 502 554
f 4 108 535
f 341 539 541
f 168 555 169
f 92 263 351
f 274 556 557
f 558 556 428
f 323 226 96
f 279 371 553
f 321 164 433
f 559 418 441
f 216 560 501
f 241 144 36
f 308 368 550
f 237 290 311
f 477 561 478
f 562 545 462
f 478 561 563
f 154 274 557
f 324 326 564
f 49 320 114
f 387 397 506
f 155 250 273
f 565 490 527
f 221 109 426
f 335 476 326
f 516 472 473
f 566 567 400
f 393 457 395
f 494 568 549
f 42 320 49
f 549 568 543
f 136 174 135
f 447 466 100
f 554 502 569
f 204 570 320
f 528 541 540
f 233 571 234
f 337 302 301
f 517 62 572
f 573 479 478
f 574 562 462
f 476 492 552
f 320 570 575
f 487 191 186
f 212 416 312
f 217 302 374
f 540 576 528
f 297 457 381
f 406 516 473
f 505 577 510
f 155 273 132
f 393 381 457
f 503 505 510
f 578 559 441
f 150 528 576
f 579 284 265
f 580 581 582
f 294 583 437
f 566 400 444
f 210 147 146
f 584 585 539
f 547 182 553
f 258 244 162
f 12 4 535
f 586 411 308
f 414 109 111
f 587 533 159
f 465 54 98
f 588 156 158
f 319 284 579
f 366 232 547
f 79 589 77
f 428 556 274
f 385 415 502
f 304 586 308
f 567 590 405
f 591 301 242
f 592 593 594
f 407 406 473
f 170 74 70
f 550 595 596
f 264 355 525
f 407 546 463
f 597 337 301
f 521 519 577
f 598 562 574
f 599 600 549
f 260 601 256
f 142 382 602
f 603 256 604
f 469 605 563
f 589 79 264
f 279 553 182
f 606 572 89
f 584 539 341
f 607 608 597
f 525 589 264
f 596 305 550
f 502 412 385
f 297 381 609
f 260 430 601
f 605 469 610
f 582 581 611
f 256 601 604
f 593 612 594
f 584 529 585
f 467 434 267
f 230 425 424
f 400 567 405
f 613 159 134
f 614 615 616
f 362 230 424
f 583 591 242
f 617 106 24
f 618 350 349
f 219 111 90
f 619 620 621
f 494 600 430
f 622 521 505
f 134 133 613
f 623 516 406
f 624 625 593
f 249 536 199
f 336 626 627
f 619 621 628
f 622 505 504
f 572 62 89
f 258 162 124
f 417 324 532
f 629 95 94
f 106 630 107
f 190 240 228
f 494 549 600
f 228 525 229
f 484 342 465
f 169 555 631
f 45 632 59
f 542 599 549
f 633 634 605
f 543 358 635
f 271 636 215
f 237 66 170
f 382 298 297
f 106 617 630
f 147 219 90
f 253 259 637
f 638 637 259
f 639 633 605
f 328 529 584
f 640 320 575
f 617 24 300
f 94 641 629
f 344 432 642
f 268 624 593
f 229 525 523
f 572 643 517
f 644 331 333
f 645 432 344
f 311 290 190
f 646 647 398
f 543 568 358
f 426 483 648
f 483 555 648
f 398 480 646
f 597 301 591
f 602 139 142
f 649 583 294
f 315 501 157
f 164 124 162
f 506 611 650
f 578 651 559
f 72 26 70
f 587 159 613
f 623 406 408
f 223 222 652
f 632 446 59
f 86 653 97
f 654 281 193
f 78 34 28
f 626 655 627
f 240 525 228
f 594 612 656
f 25 13 177
f 623 657 516
f 658 199 536
f 578 347 651
f 556 405 557
f 539 585 659
f 436 375 536
f 263 236 235
f 546 660 441
f 661 545 562
f 489 236 263
f 401 405 556
f 662 224 383
f 582 611 506
f 663 487 186
f 523 236 489
f 213 247 664
f 201 409 306
f 607 665 666
f 327 667 328
f 668 566 444
f 669 223 652
f 215 636 670
f 671 467 267
f 328 584 341
f 571 48 69
f 270 404 431
f 311 672 673
f 230 674 425
f 476 675 326
f 157 501 158
f 676 281 654
f 364 458 462
f 118 117 160
f 665 607 591
f 557 349 154
f 158 501 504
f 672 311 379
f 440 298 288
f 677 656 612
f 97 653 678
f 224 662 627
f 165 679 427
f 477 680 561
f 551 516 657
f 681 638 259
f 160 117 493
f 325 213 664
f 423 661 562
f 682 299 317
f 500 683 684
f 91 110 92
f 190 243 311
f 616 685 670
f 667 531 328
f 547 553 482
f 214 227 686
f 687 546 532
f 688 644 595
f 98 54 248
f 367 411 689
f 227 690 686
f 484 309 342
f 378 267 691
f 384 223 448
f 197 121 127
f 426 648 522
f 692 689 586
f 586 689 411
f 693 692 586
f 683 500 694
f 389 234 128
f 326 675 695
f 591 583 665
f 687 463 546
f 696 697 63
f 221 526 205
f 531 667 239
f 444 698 668
f 526 221 425
f 399 547 482
f 664 247 475
f 699 194 439
f 331 644 688
f 589 525 240
f 700 701 579
f 247 472 475
f 233 48 571
f 224 702 231
f 225 215 703
f 704 705 706
f 557 618 349
f 234 571 128
f 571 69 131
f 704 537 705
f 591 607 597
f 614 616 707
f 468 677 469
f 82 696 63
f 361 708 709
f 231 151 490
f 616 710 685
f 711 391 390
f 628 621 527
f 150 576 626
f 657 712 713
f 714 715 716
f 717 485 667
f 718 719 619
f 720 397 721
f 699 193 194
f 708 361 433
f 706 705 722
f 140 723 148
f 724 391 711
f 461 453 102
f 503 588 158
f 725 461 102
f 413 317 298
f 726 616 670
f 727 728 573
f 127 129 197
f 544 543 729
f 730 731 732
f 731 733 732
f 734 679 165
f 523 674 229
f 358 380 735
f 656 649 295
f 140 139 723
f 719 736 619
f 413 450 317
f 102 101 174
f 383 737 662
f 738 739 740
f 497 509 508
f 495 497 508
f 337 608 365
f 514 522 555
f 583 242 437
f 407 660 546
f 656 741 649
f 642 742 254
f 344 642 254
f 165 153 734
f 649 294 295
f 681 743 744
f 728 745 573
f 228 243 190
f 231 490 222
f 681 744 638
f 565 527 621
f 269 593 592
f 746 747 707
f 19 15 61
f 748 334 749
f 397 386 721
f 149 150 626
f 307 202 201
f 364 192 458
f 286 266 284
f 490 151 32
f 750 751 752
f 661 709 708
f 270 493 404
f 249 436 536
f 558 753 754
f 383 385 737
f 162 244 163
f 700 579 715
f 434 130 538
f 246 660 473
f 551 492 516
f 572 606 755
f 469 563 756
f 250 757 371
f 758 653 86
f 759 352 760
f 582 761 580
f 762 709 661
f 763 759 764
f 498 499 765
f 353 391 724
f 506 650 518
f 540 659 576
f 343 332 766
f 758 86 767
f 493 402 404
f 161 432 768
f 443 272 173
f 133 769 770
f 384 224 223
f 363 362 424
f 245 188 163
f 608 766 365
f 94 453 641
f 714 716 771
f 563 561 756
f 649 665 583
f 311 243 379
f 489 674 523
f 334 515 749
f 738 772 773
f 405 618 557
f 136 102 174
f 774 541 528
f 763 352 759
f 64 775 89
f 776 769 118
f 550 688 595
f 738 773 777
f 133 118 769
f 171 269 592
f 136 143 778
f 740 739 779
f 495 331 688
f 653 693 304
f 327 717 667
f 780 781 782
f 783 784 785
f 786 529 530
f 787 788 789
f 789 762 787
f 537 704 206
f 790 643 755
f 718 628 725
f 787 661 423
f 791 161 768
f 372 784 783
f 419 187 257
f 792 118 160
f 669 448 223
f 627 33 702
f 119 134 793
f 782 794 795
f 373 217 374
f 794 782 720
f 213 325 296
f 678 304 303
f 287 336 737
f 77 240 176
f 796 797 541
f 798 799 800
f 97 678 303
f 313 651 347
f 123 801 802
f 71 197 143
f 627 771 33
f 431 404 642
f 799 798 803
f 624 804 625
f 713 805 657
f 656 677 468
f 185 187 419
f 539 659 540
f 801 123 122
f 495 508 331
f 612 610 677
f 486 420 806
f 590 618 405
f 642 404 403
f 590 630 807
f 422 787 423
f 749 515 442
f 534 792 160
f 684 202 307
f 808 560 216
f 627 702 224
f 654 193 699
f 665 649 809
f 77 589 240
f 810 811 812
f 572 755 643
f 813 778 143
f 185 419 454
f 444 482 698
f 814 815 816
f 817 598 574
f 486 806 818
f 338 344 254
f 819 392 764
f 304 693 586
f 781 499 782
f 626 576 820
f 577 821 510
f 691 434 538
f 522 648 555
f 211 334 748
f 822 818 464
f 394 823 824
f 698 482 371
f 821 798 800
f 311 673 80
f 373 456 825
f 229 674 230
f 784 372 354
f 747 746 826
f 816 815 827
f 821 800 510
f 33 771 828
f 715 579 265
f 829 822 464
f 468 741 656
f 344 365 509
f 380 225 703
f 486 818 822
f 544 729 830
f 574 462 340
f 442 515 351
f 676 831 281
f 671 832 467
f 697 833 63
f 148 723 834
f 671 524 832
f 399 401 548
f 239 202 835
f 531 835 530
f 399 548 547
f 796 541 733
f 243 230 362
f 796 733 731
f 683 202 684
f 285 436 249
f 836 837 204
f 442 351 198
f 253 86 88
f 812 652 621
f 717 838 485
f 314 346 658
f 565 621 652
f 839 830 729
f 837 570 204
f 631 555 483
f 718 619 628
f 218 808 216
f 460 840 841
f 780 782 842
f 529 786 843
f 844 665 809
f 478 634 573
f 601 430 845
f 336 627 662
f 846 824 823
f 761 498 847
f 750 752 848
f 485 838 480
f 437 216 315
f 600 845 430
f 845 600 599
f 810 849 811
f 483 445 850
f 465 100 466
f 851 681 259
f 842 782 852
f 521 622 853
f 532 324 564
f 585 529 843
f 159 534 160
f 854 855 856
f 853 388 521
f 332 365 766
f 178 439 220
f 500 684 339
f 496 857 477
f 505 521 577
f 610 639 605
f 89 775 858
f 707 616 726
f 726 670 746
f 677 610 469
f 218 859 808
f 449 422 459
f 345 860 251
f 302 356 374
f 628 461 725
f 211 748 262
f 220 439 194
f 833 64 63
f 499 397 720
f 852 861 756
f 852 782 795
f 483 862 631
f 756 861 471
f 863 864 603
f 670 865 215
f 866 388 815
f 263 235 351
f 185 454 524
f 476 552 867
f 603 864 256
f 387 506 518
f 715 265 716
f 294 437 315
f 98 100 465
f 868 207 206
f 864 254 256
f 609 602 382
f 639 610 612
f 531 239 835
f 392 763 764
f 567 630 590
f 748 67 869
f 782 499 720
f 761 582 498
f 746 670 636
f 215 865 703
f 851 870 681
f 669 811 448
f 206 704 868
f 168 514 555
f 871 855 854
f 483 850 862
f 502 421 598
f 653 304 678
f 827 872 816
f 635 873 729
f 666 481 825
f 797 329 341
f 682 317 474
f 464 466 874
f 663 186 319
f 363 424 522
f 707 726 746
f 488 545 708
f 840 831 875
f 714 655 820
f 380 703 876
f 396 877 395
f 668 371 757
f 363 522 878
f 65 749 442
f 308 550 305
f 879 714 820
f 550 495 688
f 667 485 200
f 880 881 882
f 875 831 676
f 862 513 631
f 866 386 388
f 625 639 612
f 883 672 884
f 885 180 366
f 593 625 612
f 861 852 795
f 376 44 78
f 701 663 319
f 701 319 579
f 530 886 786
f 532 564 687
f 297 299 457
f 887 762 789
f 74 84 70
f 353 352 763
f 874 466 447
f 524 486 888
f 322 122 125
f 524 888 832
f 749 67 748
f 313 416 889
f 797 341 541
f 408 463 890
f 661 708 545
f 731 891 892
f 607 666 825
f 731 893 891
f 609 382 297
f 881 894 882
f 709 762 887
f 658 346 57
f 353 763 391
f 67 749 65
f 673 869 80
f 329 895 896
f 74 389 84
f 291 734 153
f 897 253 637
f 460 831 840
f 420 802 898
f 899 900 867
f 901 902 903
f 896 904 329
f 317 450 474
f 378 691 905
f 414 281 831
f 832 837 836
f 453 94 120
f 906 724 907
f 908 680 857
f 909 736 880
f 619 736 909
f 910 272 826
f 114 911 116
f 912 882 887
f 627 655 771
f 793 161 791
f 702 33 151
f 588 913 156
f 588 512 913
f 502 598 817
f 862 841 914
f 558 428 753
f 527 451 461
f 847 908 857
f 672 878 884
f 542 846 599
f 359 887 882
f 915 893 730
f 37 535 261
f 254 864 338
f 313 312 416
f 893 731 730
f 869 67 80
f 832 836 916
f 655 714 771
f 481 373 825
f 834 774 148
f 841 862 850
f 325 664 335
f 508 332 331
f 667 200 239
f 917 353 724
f 428 918 753
f 542 824 846
f 729 543 635
f 919 580 920
f 674 526 425
f 848 855 921
f 890 463 687
f 907 724 711
f 867 922 899
f 889 923 313
f 438 699 439
f 826 272 924
f 250 261 757
f 895 796 892
f 359 361 925
f 902 926 903
f 757 261 927
f 414 831 460
f 855 747 856
f 476 867 675
f 303 305 293
f 802 420 318
f 350 314 348
f 580 919 581
f 928 929 930
f 871 931 932
f 932 931 933
f 148 774 528
f 892 796 731
f 357 82 81
f 195 377 60
f 240 177 176
f 777 934 935
f 581 936 611
f 288 287 440
f 937 881 880
f 767 253 897
f 830 394 824
f 353 917 354
f 833 697 255
f 429 255 696
f 638 744 889
f 658 536 348
f 938 218 481
f 512 511 939
f 806 898 309
f 520 940 95
f 897 638 889
f 941 202 683
f 696 942 429
f 798 519 650
f 742 833 255
f 943 624 268
f 944 644 945
f 811 849 788
f 811 449 448
f 325 324 296
f 133 770 613
f 479 573 745
f 787 762 661
f 527 461 628
f 737 440 287
f 394 830 390
f 911 196 116
f 393 395 497
f 870 946 743
f 691 538 905
f 945 644 947
f 948 904 896
f 948 949 904
f 295 171 592
f 950 923 744
f 920 951 496
f 806 309 484
f 907 711 952
f 953 918 954
f 629 520 95
f 524 454 486
f 452 491 520
f 887 359 925
f 519 798 821
f 891 743 946
f 794 720 721
f 329 797 895
f 836 204 203
f 866 815 814
f 497 395 645
f 738 777 935
f 310 801 209
f 930 929 955
f 350 807 314
f 199 658 57
f 121 197 71
f 169 631 513
f 923 889 744
f 494 942 568
f 956 957 958
f 356 338 864
f 890 623 408
f 939 913 512
f 735 380 959
f 779 739 960
f 195 209 801
f 588 503 512
f 701 786 961
f 123 802 318
f 942 494 429
f 760 352 962
f 296 324 417
f 650 936 798
f 963 957 956
f 350 618 807
f 611 936 650
f 792 534 964
f 894 359 882
f 398 965 409
f 259 252 851
f 938 666 665
f 471 469 756
f 407 473 660
f 598 423 562
f 224 384 383
f 481 666 938
f 740 922 772
f 339 684 966
f 776 118 792
f 758 370 214
f 922 552 967
f 596 595 944
f 552 922 867
f 703 865 790
f 786 701 700
f 594 295 592
f 108 107 927
f 943 268 968
f 909 620 619
f 875 969 840
f 151 231 702
f 970 971 624
f 721 386 972
f 252 973 785
f 689 381 367
f 972 386 974
f 590 807 618
f 913 968 156
f 293 305 596
f 644 333 947
f 421 423 598
f 673 672 883
f 376 330 360
f 498 582 506
f 360 975 376
f 976 920 479
f 935 739 738
f 976 479 745
f 869 673 883
f 925 361 709
f 951 580 761
f 449 811 422
f 748 883 262
f 879 700 715
f 887 925 709
f 714 879 715
f 214 686 758
f 977 978 819
f 635 358 735
f 293 596 979
f 980 710 616
f 860 973 252
f 968 268 156
f 857 680 477
f 759 760 981
f 398 647 965
f 451 491 452
f 369 181 982
f 920 496 479
f 944 595 644
f 299 682 396
f 983 852 561
f 927 107 566
f 737 385 440
f 964 533 984
f 496 951 857
f 985 961 786
f 811 788 422
f 509 497 645
f 725 102 136
f 509 645 344
f 819 978 823
f 986 896 987
f 385 412 440
f 718 725 136
f 646 480 873
f 480 988 873
f 771 716 828
f 807 300 314
f 880 736 989
f 683 694 985
f 990 766 603
f 380 876 959
f 388 853 815
f 880 882 912
f 238 991 455
f 788 787 422
f 923 651 313
f 954 918 992
f 818 806 484
f 754 366 548
f 396 682 993
f 961 694 487
f 643 994 902
f 64 833 742
f 755 606 876
f 755 876 790
f 471 861 995
f 664 475 335
f 876 703 790
f 912 909 880
f 740 899 922
f 750 848 921
f 143 196 813
f 467 832 916
f 467 916 435
f 412 554 413
f 630 567 566
f 855 871 932
f 742 255 254
f 884 522 514
f 719 996 736
f 672 379 878
f 951 761 857
f 537 513 862
f 981 760 997
f 998 999 713
f 746 636 910
f 615 1000 1001
f 471 995 470
f 773 1002 777
f 1003 1004 559
f 754 885 366
f 1005 730 732
f 293 979 1006
f 635 735 1007
f 904 717 327
f 985 941 683
f 189 500 339
f 337 597 608
f 559 651 1003
f 556 558 401
f 855 1008 921
f 844 938 665
f 1009 686 690
f 1010 968 913
f 913 939 1010
f 533 964 534
f 435 916 520
f 218 938 859
f 851 946 870
f 413 554 1011
f 718 136 719
f 723 1012 1013
f 804 633 639
f 907 1014 948
f 682 306 993
f 941 985 886
f 764 1015 819
f 918 428 427
f 580 951 920
f 776 792 964
f 1016 692 693
f 488 364 545
f 1017 830 839
f 998 1018 1019
f 1020 1021 953
f 487 694 500
f 819 1015 958
f 262 883 884
f 558 754 548
f 587 613 770
f 932 1008 855
f 316 690 227
f 616 615 980
f 818 484 464
f 1022 1023 1024
f 391 763 392
f 684 307 1025
f 561 852 756
f 372 783 962
f 558 548 401
f 766 990 343
f 252 251 860
f 1024 1026 1022
f 850 445 460
f 885 1027 1028
f 923 1029 651
f 329 904 327
f 936 803 798
f 352 372 962
f 880 989 937
f 804 639 625
f 388 387 521
f 1021 918 953
f 1017 952 390
f 907 986 906
f 1030 890 1031
f 530 941 886
f 1032 624 971
f 781 780 908
f 723 1013 1005
f 396 791 877
f 894 360 359
f 884 878 522
f 108 927 261
f 347 660 246
f 363 878 379
f 765 499 781
f 266 524 671
f 578 660 347
f 1030 623 890
f 615 1001 980
f 262 884 514
f 956 816 963
f 986 948 896
f 1033 114 320
f 533 587 984
f 983 842 852
f 668 927 566
f 781 908 765
f 1034 820 576
f 952 711 390
f 167 169 513
f 1035 963 816
f 238 207 991
f 999 998 1019
f 803 581 919
f 682 474 306
f 705 537 862
f 767 86 253
f 808 1036 560
f 1009 690 1037
f 956 814 816
f 916 836 203
f 987 896 895
f 293 1006 87
f 866 814 1038
f 340 339 1039
f 316 418 690
f 403 64 742
f 181 180 1040
f 705 862 914
f 640 575 1041
f 131 128 571
f 1042 814 956
f 914 841 1043
f 340 1039 1044
f 982 181 1040
f 764 759 1045
f 705 914 722
f 1043 722 914
f 1026 751 750
f 640 1041 1046
f 1047 1048 1049
f 409 1050 306
f 735 959 1051
f 617 300 807
f 336 149 626
f 698 371 668
f 1052 1001 1000
f 634 478 605
f 320 640 1033
f 929 468 1053
f 823 394 392
f 871 854 903
f 295 594 656
f 1054 1055 1035
f 1056 1018 1048
f 378 716 265
f 987 895 892
f 716 378 905
f 102 453 120
f 511 1057 939
f 697 696 255
f 898 806 420
f 686 1009 653
f 758 686 653
f 712 657 1030
f 518 650 519
f 917 1058 354
f 691 267 434
f 680 983 561
f 908 780 1059
f 453 452 641
f 903 931 871
f 645 877 432
f 906 986 1060
f 847 765 908
f 879 1034 843
f 569 1044 554
f 1040 180 1061
f 879 820 1034
f 989 736 996
f 940 175 95
f 812 811 669
f 928 1054 1035
f 940 916 203
f 841 850 460
f 924 856 826
f 681 870 743
f 695 687 326
f 940 203 175
f 662 737 336
f 1062 1063 706
f 999 1064 1002
f 517 643 902
f 1065 706 1063
f 642 432 431
f 542 544 824
f 569 574 1044
f 974 866 1038
f 986 907 948
f 1061 180 1028
f 847 498 765
f 929 741 468
f 970 968 1010
f 544 830 824
f 468 1066 1053
f 354 1058 1067
f 222 490 565
f 652 222 565
f 773 713 999
f 1039 339 966
f 957 963 1068
f 988 480 838
f 931 1069 933
f 1057 511 1070
f 1024 751 1026
f 921 1071 750
f 1033 640 1072
f 740 772 738
f 753 918 1027
f 599 846 845
f 1073 1074 1075
f 900 1030 675
f 924 901 854
f 911 813 196
f 1015 764 1045
f 708 433 488
f 935 1073 1075
f 984 587 770
f 903 926 1052
f 651 1029 1003
f 552 551 805
f 838 948 1014
f 1032 804 624
f 854 856 924
f 1068 1076 1077
f 891 946 1058
f 1078 840 969
f 585 1034 659
f 840 1043 841
f 340 1044 574
f 901 903 854
f 837 832 888
f 761 847 857
f 107 630 566
f 939 1057 1079
f 1079 1010 939
f 114 1033 911
f 1068 1077 957
f 452 520 629
f 980 1080 710
f 784 851 785
f 950 915 1013
f 333 1076 947
f 510 800 511
f 916 940 520
f 585 843 1034
f 838 1014 988
f 856 747 826
f 1006 345 87
f 658 348 314
f 1001 1052 926
f 961 985 694
f 1035 1055 963
f 1013 915 730
f 1081 1082 900
f 900 899 1081
f 949 838 717
f 232 182 547
f 108 261 535
f 883 748 869
f 1060 987 1083
f 917 906 1060
f 1084 139 602
f 917 1060 1058
f 962 783 1085
f 504 501 622
f 252 785 851
f 1056 1048 1047
f 570 1086 575
f 727 573 633
f 1020 1027 1021
f 1087 1027 1020
f 992 427 679
f 657 623 1030
f 554 1044 1088
f 815 853 827
f 805 551 657
f 1027 1087 1028
f 830 1017 390
f 1065 704 706
f 604 1077 990
f 695 890 687
f 744 915 950
f 1005 1013 730
f 844 1089 938
f 502 817 569
f 803 919 1090
f 741 929 1091
f 1092 952 1017
f 675 867 900
f 1017 839 1092
f 659 1034 576
f 744 743 915
f 1015 956 958
f 941 835 202
f 695 1031 890
f 987 1060 986
f 1047 1049 1082
f 910 636 271
f 1028 1093 1094
f 614 707 1095
f 1096 776 964
f 674 489 526
f 885 754 753
f 851 784 946
f 974 386 866
f 1089 859 938
f 1090 799 803
f 1061 1028 1094
f 864 863 356
f 245 163 244
f 723 139 1084
f 646 635 1007
f 941 530 835
f 84 389 128
f 1059 983 680
f 1032 727 804
f 979 596 944
f 615 614 1000
f 409 1097 1050
f 1098 1099 1100
f 777 1002 934
f 1020 1101 1087
f 1070 800 799
f 267 266 671
f 637 638 897
f 962 1102 760
f 1023 1103 1104
f 969 1099 1098
f 812 1105 810
f 1008 1071 921
f 1044 1039 1088
f 918 1021 1027
f 1106 1107 1108
f 630 617 807
f 1087 1093 1028
f 195 122 377
f 990 603 604
f 944 945 1109
f 821 577 519
f 1103 1023 1022
f 969 1098 1078
f 1110 1099 969
f 1111 1112 1113
f 626 820 655
f 743 893 915
f 1107 1114 1108
f 930 1054 928
f 894 975 360
f 1006 1108 345
f 1086 1041 575
f 604 977 1077
f 690 418 1004
f 1115 955 1053
f 853 1036 827
f 873 1092 729
f 1077 1116 957
f 1109 1117 944
f 812 669 652
f 934 1002 1118
f 1119 1070 799
f 733 774 732
f 1120 1020 953
f 801 122 195
f 929 1053 955
f 33 828 46
f 1080 926 710
f 1009 1016 693
f 740 779 899
f 552 805 967
f 900 1049 1030
f 946 784 1067
f 969 875 1110
f 812 621 1105
f 345 1108 973
f 1028 180 885
f 1063 1062 1121
f 1104 1103 1122
f 1083 987 892
f 804 727 633
f 1083 892 891
f 1123 1064 999
f 810 620 912
f 620 810 1105
f 707 747 1095
f 828 905 46
f 903 1052 931
f 964 984 1096
f 268 593 269
f 46 905 538
f 776 1096 769
f 1124 1125 1126
f 1127 1128 699
f 1129 1128 1127
f 1019 1130 999
f 1131 1129 1127
f 1132 602 1133
f 1134 1016 1132
f 614 752 1135
f 1016 1136 1132
f 1135 751 1137
f 1138 1139 1125
f 271 272 910
f 1140 1141 1142
f 1143 1144 1145
f 766 825 456
f 770 769 1146
f 1108 1085 973
f 1147 1148 1149
f 959 606 858
f 1051 959 858
f 1147 1149 1138
f 1097 1051 1150
f 1149 1139 1138
f 1151 1152 1153
f 1154 1153 974
f 1155 1156 1157
f 1144 1158 1129
f 791 1159 793
f 1159 791 1097
f 1160 1156 1155
f 872 1091 1035
f 928 1035 1091
f 1161 1162 1163
f 1150 1051 858
f 1124 933 1138
f 1125 1124 1138
f 1164 1165 1166
f 868 704 1065
f 602 1167 1084
f 1066 1151 1154
f 1167 1003 1084
f 1133 1134 1132
f 1144 1129 1131
f 517 902 901
f 1073 1118 1168
f 1169 1170 1171
f 1172 1173 1169
f 161 793 134
f 1174 1175 1176
f 1177 1164 1178
f 1164 1177 1165
f 1158 654 1128
f 1179 1152 1151
f 1129 1158 1128
f 844 809 872
f 733 541 774
f 1138 933 1180
f 1091 872 809
f 409 965 1097
f 1176 1175 1181
f 1143 1182 1172
f 1183 1168 1118
f 1050 993 306
f 961 487 663
f 1143 1172 1169
f 1066 1154 1184
f 1185 1170 1169
f 470 1151 1066
f 1164 1166 1186
f 1167 1132 1136
f 1187 1186 1188
f 739 1075 1189
f 712 1048 998
f 1109 1107 1117
f 960 739 1189
f 470 1066 468
f 872 1035 816
f 766 863 603
f 1190 1068 963
f 932 1124 1126
f 823 392 819
f 606 959 876
f 1093 1087 1101
f 413 1191 450
f 470 995 1151
f 1098 1100 1121
f 486 822 888
f 1192 1193 1047
f 1111 1130 1112
f 620 909 912
f 1012 723 1084
f 712 1049 1048
f 1120 1101 1020
f 701 961 663
f 1058 1083 891
f 1163 1156 1160
f 1123 1111 1113
f 1191 1025 307
f 1008 932 1126
f 904 949 717
f 343 1076 333
f 999 1130 1111
f 1130 1019 1193
f 999 1111 1123
f 402 117 119
f 1153 1152 972
f 1095 752 614
f 604 978 977
f 1194 1176 1195
f 1007 647 646
f 1081 899 779
f 1196 982 1140
f 1095 747 855
f 973 1085 783
f 1197 1198 1199
f 1196 1198 1197
f 1193 1112 1130
f 1200 1186 1187
f 1201 1202 1150
f 858 1201 1150
f 1154 974 1038
f 858 775 1201
f 1084 1203 1012
f 1043 1078 1204
f 1178 1200 1205
f 1178 1164 1200
f 1186 1166 1188
f 1205 1200 1142
f 1147 1138 1180
f 766 608 825
f 989 1206 937
f 1171 1207 1158
f 992 918 427
f 602 1132 1167
f 1003 1167 1136
f 1159 1150 1202
f 1097 1150 1159
f 1119 1208 1156
f 1198 1187 1188
f 1140 1142 1196
f 972 1152 794
f 895 797 796
f 1143 1169 1158
f 817 574 569
f 825 608 607
f 752 751 1135
f 1169 1171 1158
f 1081 1112 1192
f 1072 874 447
f 768 877 791
f 507 1159 1202
f 1050 1097 993
f 1202 1201 507
f 1201 410 507
f 1139 1174 1176
f 675 1030 1031
f 1200 1164 1186
f 1162 1156 1163
f 773 999 1002
f 1142 1187 1198
f 1119 1057 1070
f 1196 1142 1198
f 1200 1187 1142
f 1071 1026 750
f 456 863 766
f 568 82 357
f 872 1209 1089
f 713 967 805
f 1159 402 119
f 507 402 1159
f 1176 1181 1195
f 861 795 995
f 937 1206 1210
f 119 793 1159
f 993 1097 791
f 1211 1172 1182
f 794 1152 1179
f 1003 1203 1084
f 1051 1097 965
f 1173 1185 1169
f 1205 1212 1178
f 1144 1143 1158
f 1158 1207 654
f 1162 1119 1156
f 1198 1188 1199
f 699 1128 654
f 275 369 982
f 874 1072 1046
f 911 1213 813
f 1214 813 1213
f 947 1076 1068
f 1215 44 975
f 975 44 376
f 1102 962 1085
f 1085 1114 1102
f 778 719 136
f 1094 1093 1212
f 456 356 863
f 1216 1036 808
f 791 396 993
f 501 560 622
f 1098 1217 1078
f 780 842 1059
f 822 1218 888
f 960 1189 1219
f 983 1059 842
f 1220 1071 1008
f 1192 1082 1081
f 1221 790 865
f 559 1004 418
f 942 82 568
f 1024 1137 751
f 685 865 670
f 1108 1114 1085
f 827 1036 1209
f 928 1091 929
f 1042 1045 1222
f 1222 1045 981
f 82 942 696
f 1223 1214 1213
f 633 573 634
f 837 1086 570
f 358 568 357
f 464 874 829
f 996 1214 1223
f 1224 1063 1121
f 1117 1107 1106
f 1016 1009 1037
f 952 1092 1014
f 1216 1209 1036
f 395 877 645
f 846 823 978
f 1070 511 800
f 443 517 901
f 990 1077 1076
f 450 1191 307
f 343 990 1076
f 1022 1026 1071
f 1014 907 952
f 924 272 443
f 1121 1100 1224
f 1086 888 1218
f 988 1014 1092
f 1092 873 988
f 1182 1065 1211
f 868 1065 1182
f 1196 292 275
f 773 967 713
f 853 622 560
f 772 922 773
f 905 828 716
f 1225 1126 1125
f 849 789 788
f 996 1223 989
f 1206 1226 1227
f 972 794 721
f 786 700 843
f 1145 207 868
f 770 1146 984
f 1145 991 207
f 1045 1042 956
f 1065 1063 1211
f 1110 875 1170
f 1228 997 1114
f 981 1045 759
f 829 874 1046
f 760 1102 997
f 1226 1033 1072
f 919 920 976
f 629 641 452
f 1170 875 1171
f 1052 1000 931
f 1210 1206 1227
f 1218 822 829
f 1142 1141 1205
f 1064 1118 1002
f 865 685 1221
f 727 1032 1229
f 653 1009 693
f 897 889 416
f 848 752 1095
f 1137 1024 1195
f 614 1230 1000
f 1057 1119 1162
f 1221 643 790
f 936 581 803
f 370 897 416
f 1057 1162 1079
f 1119 799 1208
f 1166 954 992
f 960 1231 779
f 1232 1230 1135
f 695 675 1031
f 848 1095 855
f 1046 1072 640
f 1049 712 1030
f 1114 997 1102
f 275 982 1196
f 1223 1226 1206
f 843 700 879
f 789 849 912
f 819 958 1116
f 1056 1019 1018
f 901 924 443
f 902 994 710
f 1166 992 679
f 1093 1177 1212
f 1229 728 727
f 957 1116 958
f 773 922 967
f 1220 1126 1233
f 837 888 1086
f 1230 614 1135
f 795 1179 1151
f 1149 1234 1175
f 1228 1114 1107
f 722 1204 706
f 1120 1177 1101
f 413 1011 1191
f 789 912 887
f 742 642 403
f 1113 1112 1231
f 1088 1039 966
f 1235 1019 1056
f 1231 960 1113
f 1236 981 997
f 1126 1220 1008
f 1237 1122 1233
f 978 845 846
f 902 710 926
f 377 122 322
f 1224 1211 1063
f 1208 799 1090
f 1062 1217 1121
f 840 1078 1043
f 722 1043 1204
f 1015 1045 956
f 996 778 1214
f 719 778 996
f 934 1073 935
f 1091 809 741
f 1238 1236 997
f 89 858 606
f 1233 1126 1225
f 713 712 998
f 927 668 757
f 1215 45 44
f 1000 1230 1239
f 1226 911 1033
f 1155 976 745
f 795 794 1179
f 1237 1233 1225
f 970 1010 971
f 1051 1007 735
f 1007 1051 965
f 330 377 322
f 845 978 601
f 1122 1237 1104
f 978 604 601
f 1067 784 354
f 1101 1177 1093
f 632 45 1215
f 810 912 849
f 1151 995 795
f 1226 1213 911
f 1092 839 729
f 1175 1174 1149
f 1149 1174 1139
f 724 906 917
f 1193 1235 1047
f 1123 1183 1064
f 1193 1019 1235
f 981 1236 1184
f 1184 1222 981
f 767 897 370
f 1240 960 1219
f 1117 979 944
f 1177 1120 1165
f 1069 931 1000
f 1081 779 1231
f 834 1005 732
f 1215 975 894
f 1205 1061 1094
f 979 1117 1106
f 1234 1181 1175
f 1141 1061 1205
f 834 723 1005
f 1115 1236 955
f 937 1210 881
f 1241 1240 1219
f 685 710 994
f 1218 829 1041
f 1165 1120 953
f 881 1215 894
f 943 970 624
f 933 1069 1242
f 1229 1032 971
f 563 605 478
f 1168 1183 1123
f 370 758 767
f 769 1096 1146
f 1243 1244 1148
f 745 728 1155
f 746 910 826
f 968 970 943
f 1074 1073 1240
f 1116 977 819
f 1109 1228 1107
f 446 1072 447
f 774 834 732
f 1056 1047 1235
f 873 635 646
f 778 813 1214
f 1218 1041 1086
f 1000 1239 1069
f 1060 1083 1058
f 1213 1226 1223
f 976 1157 919
f 885 753 1027
f 1157 1090 919
f 381 692 609
f 1194 1237 1139
f 1115 1066 1184
f 743 891 893
f 578 441 660
f 292 1197 291
f 1145 868 1182
f 1220 1245 1246
f 1207 1171 875
f 1109 1054 1228
f 1037 1004 1247
f 1188 679 1199
f 1098 1121 1217
f 1112 1081 1231
f 1048 1018 998
f 926 1080 1001
f 1244 1232 1135
f 1225 1139 1237
f 1234 1244 1135
f 1137 1234 1135
f 1046 1041 829
f 1023 1194 1195
f 1023 1195 1024
f 1199 679 734
f 1234 1137 1181
f 1165 953 954
f 783 785 973
f 1109 1248 1054
f 1199 734 291
f 1242 1148 1180
f 1223 1206 989
f 330 376 377
f 1115 1184 1236
f 1217 1204 1078
f 690 1004 1037
f 859 1209 1216
f 1245 1122 1103
f 1062 1204 1217
f 609 692 1133
f 1207 676 654
f 1113 960 1240
f 1183 1118 1064
f 1239 1232 1243
f 1190 947 1068
f 1077 977 1116
f 1244 1234 1149
f 1233 1122 1245
f 1229 1161 1163
f 955 1236 1238
f 1108 1006 1106
f 687 564 326
f 933 1242 1180
f 1115 1053 1066
f 1221 994 643
f 1140 982 1040
f 1025 966 684
f 685 994 1221
f 1216 808 859
f 1163 1160 1229
f 966 1025 1088
f 1196 1197 292
f 1192 1047 1082
f 1233 1245 1220
f 908 1059 680
f 621 620 1105
f 1232 1239 1230
f 1242 1243 1148
f 1011 1088 1025
f 455 991 1131
f 1082 1049 900
f 979 1106 1006
f 898 802 309
f 1194 1023 1104
f 1245 1103 1246
f 560 1036 853
f 1243 1242 1069
f 446 1226 1072
f 381 689 692
f 438 455 1127
f 1123 1113 1168
f 1232 1244 1243
f 1195 1181 1137
f 955 1238 930
f 455 1131 1127
f 1246 1071 1220
f 1191 1011 1025
f 1241 1074 1240
f 1010 1079 971
f 310 802 801
f 1208 1090 1156
f 309 802 310
f 1188 1166 679
f 945 1248 1109
f 1247 1136 1037
f 950 1203 923
f 291 1197 1199
f 1003 1136 1247
f 971 1161 1229
f 1148 1244 1149
f 1207 875 676
f 554 1249 1011
f 706 1204 1062
f 1074 1241 1250
f 1194 1104 1237
f 1239 1243 1069
f 775 410 1201
f 1074 1250 1075
f 1248 947 1190
f 1156 1090 1157
f 947 1248 945
f 1136 1016 1037
f 410 64 403
f 948 838 949
f 976 1155 1157
f 1141 1140 1040
f 872 1089 844
f 1144 1131 991
f 1103 1071 1246
f 946 1067 1058
f 1100 1173 1224
f 1100 1099 1173
f 1229 1160 728
f 739 935 1075
f 1250 1219 1189
f 1012 1203 950
f 932 933 1124
f 410 775 64
f 1055 1190 963
f 1247 1004 1003
f 827 1209 872
f 985 786 886
f 1248 1190 1055
f 1054 1248 1055
f 1215 1210 632
f 1250 1241 1219
f 965 647 1007
f 1168 1113 1240
f 1125 1139 1225
f 1147 1180 1148
f 1089 1209 859
f 728 1160 1155
f 860 345 973
f 1154 1038 1222
f 1154 1222 1184
f 1003 1029 1203
f 1054 930 1228
f 1079 1161 971
f 1001 1080 980
f 1210 1227 632
f 1088 1249 554
f 814 1042 1038
f 1042 1222 1038
f 1012 950 1013
f 1168 1240 1073
f 934 1118 1073
f 1165 954 1166
f 1193 1192 1112
f 1099 1110 1185
f 1061 1141 1040
f 1194 1139 1176
f 1096 984 1146
f 1151 1153 1154
f 1173 1099 1185
f 930 1238 1228
f 1153 972 974
f 438 1127 699
f 1228 1238 997
f 1224 1173 1172
f 1226 446 1227
f 923 1203 1029
f 1211 1224 1172
f 1103 1022 1071
f 1088 1011 1249
f 1177 1178 1212
f 602 609 1133
f 881 1210 1215
f 809 649 741
f 1205 1094 1212
f 432 877 768
f 1134 692 1016
f 1134 1133 692
f 1079 1162 1161
f 446 632 1227
f 1143 1145 1182
f 1170 1185 1110
f 1250 1189 1075
f 1144 991 1145
