# Original shape: m184.obj
# No processing applied - exact copy of source file
# Generated on 2025-10-03 20:39:33

v 0.134549 0.073230 0.090042
v 0.129208 0.080587 0.060016
v 0.131812 0.106326 0.062711
v 0.138771 0.114812 0.086082
v 0.111986 0.080578 0.060048
v 0.109370 0.106336 0.062739
v 0.106682 0.073215 0.090094
v 0.102460 0.114829 0.086127
v 0.120627 0.068676 0.106576
v 0.120630 0.120067 0.100554
v 0.139231 0.257994 0.052788
v 0.150801 0.257991 0.088415
v 0.101920 0.257994 0.052830
v 0.090430 0.257991 0.088484
v 0.120640 0.257994 0.110477
v 0.135818 0.319903 0.058798
v 0.145267 0.319903 0.094395
v 0.105347 0.319903 0.058840
v 0.095964 0.319903 0.094464
v 0.120636 0.319903 0.116438
v 0.137002 0.336404 0.058208
v 0.147188 0.336404 0.094534
v 0.104157 0.336404 0.058251
v 0.094043 0.336404 0.094604
v 0.120637 0.336404 0.117028
v 0.139587 0.386348 0.053242
v 0.151379 0.386348 0.094223
v 0.101561 0.386348 0.053291
v 0.089852 0.386348 0.094302
v 0.120641 0.386348 0.119599
v 0.100442 0.055329 0.098912
v 0.107062 0.049275 0.121100
v 0.108364 0.074310 0.056348
v 0.141354 0.055446 0.099123
v 0.133562 0.074328 0.056495
v 0.135175 0.049494 0.120786
v 0.119674 0.047769 0.128331
v 0.208387 0.073005 0.090209
v 0.203046 0.080363 0.060183
v 0.205650 0.106102 0.062878
v 0.212609 0.114588 0.086249
v 0.185823 0.080354 0.060215
v 0.183208 0.106112 0.062905
v 0.180520 0.072991 0.090261
v 0.176298 0.114605 0.086294
v 0.194465 0.068452 0.106743
v 0.194468 0.119843 0.100721
v 0.213069 0.257769 0.052954
v 0.224639 0.257768 0.088582
v 0.175757 0.257769 0.052997
v 0.164268 0.257768 0.088651
v 0.194478 0.257770 0.110644
v 0.209656 0.319680 0.058964
v 0.219105 0.319680 0.094562
v 0.179185 0.319680 0.059007
v 0.169802 0.319680 0.094631
v 0.194474 0.319680 0.116605
v 0.210840 0.336179 0.058375
v 0.221026 0.336179 0.094701
v 0.177995 0.336179 0.058418
v 0.167881 0.336179 0.094771
v 0.194475 0.336179 0.117195
v 0.213425 0.386124 0.053409
v 0.225217 0.386124 0.094390
v 0.175399 0.386124 0.053458
v 0.163689 0.386124 0.094469
v 0.194479 0.386124 0.119766
v 0.174459 0.055105 0.099078
v 0.180891 0.049052 0.121253
v 0.182380 0.074086 0.056515
v 0.193690 0.047545 0.128498
v 0.215370 0.055222 0.099290
v 0.207578 0.074104 0.056662
v 0.209378 0.049270 0.120967
v 0.081254 0.483908 0.151867
v 0.067057 0.492471 0.143240
v 0.082632 0.488737 0.150537
v 0.071623 0.497796 0.143535
v 0.081948 0.489626 0.154820
v 0.069915 0.499818 0.149563
v 0.080450 0.484833 0.156595
v 0.064988 0.495180 0.150802
v 0.057160 0.510210 0.131943
v 0.062210 0.513094 0.132369
v 0.062138 0.514080 0.140818
v 0.055717 0.511010 0.142666
v 0.082257 0.485649 0.162759
v 0.064633 0.493848 0.154314
v 0.083897 0.492113 0.159774
v 0.069984 0.499188 0.152048
v 0.083240 0.492642 0.165806
v 0.069719 0.502621 0.159132
v 0.082030 0.487295 0.168203
v 0.064377 0.497365 0.161616
v 0.062028 0.519783 0.150937
v 0.055558 0.517181 0.152777
v 0.075325 0.492551 0.136857
v 0.065885 0.500016 0.128934
v 0.076167 0.496521 0.136468
v 0.068780 0.504572 0.130277
v 0.074858 0.496673 0.139828
v 0.066396 0.505487 0.134964
v 0.073858 0.492647 0.140471
v 0.062869 0.501167 0.134585
v 0.058229 0.511667 0.122730
v 0.062972 0.514188 0.124333
v 0.079169 0.493504 0.171651
v 0.063436 0.500655 0.164107
v 0.079824 0.497823 0.168108
v 0.067702 0.505672 0.161160
v 0.079835 0.500861 0.173241
v 0.067156 0.510240 0.167746
v 0.079174 0.496353 0.176720
v 0.062846 0.505369 0.170867
v 0.060810 0.532219 0.156952
v 0.056424 0.528262 0.156681
v 0.068078 0.524550 0.175650
v 0.064954 0.534955 0.167860
v 0.065502 0.523372 0.177975
v 0.057383 0.534810 0.169619
v 0.063246 0.520469 0.172401
v 0.056699 0.528047 0.162643
v 0.066408 0.522228 0.171923
v 0.063052 0.530732 0.161222
v 0.063162 0.541367 0.158062
v 0.055673 0.543716 0.158371
v 0.050092 0.546320 0.125452
v 0.055740 0.547242 0.124785
v 0.053425 0.560845 0.140851
v 0.059417 0.558761 0.138361
v 0.059625 0.542628 0.116498
v 0.053950 0.540806 0.113769
v 0.046772 0.557109 0.107541
v 0.057957 0.559251 0.106708
v 0.046344 0.570421 0.131621
v 0.057222 0.572687 0.129177
v 0.263903 0.465800 0.084087
v 0.270411 0.478183 0.085718
v 0.267316 0.462528 0.083632
v 0.276758 0.477409 0.086012
v 0.265943 0.461829 0.088120
v 0.275321 0.476593 0.093516
v 0.262591 0.465330 0.087672
v 0.269243 0.477467 0.091738
v 0.274175 0.498754 0.085279
v 0.279624 0.498010 0.086050
v 0.276276 0.494744 0.096240
v 0.270551 0.496090 0.093158
v 0.257952 0.462209 0.092306
v 0.268243 0.475769 0.094768
v 0.261217 0.458553 0.092026
v 0.274626 0.474229 0.097282
v 0.259719 0.457928 0.096728
v 0.271824 0.474100 0.103986
v 0.256466 0.461747 0.096691
v 0.265532 0.475649 0.101257
v 0.271471 0.494691 0.105283
v 0.266292 0.495632 0.101137
v 0.269285 0.479370 0.077817
v 0.273225 0.489939 0.078335
v 0.271990 0.476941 0.076628
v 0.278292 0.489307 0.077215
v 0.271663 0.475839 0.080319
v 0.278749 0.488387 0.083293
v 0.268833 0.478536 0.080837
v 0.273562 0.489101 0.083270
v 0.275725 0.502558 0.079175
v 0.281030 0.502417 0.079529
v 0.255686 0.463401 0.104571
v 0.264763 0.474801 0.104554
v 0.258031 0.459313 0.105347
v 0.270307 0.472863 0.107083
v 0.255733 0.459691 0.109608
v 0.267049 0.473723 0.114454
v 0.253463 0.463854 0.108507
v 0.261583 0.475617 0.111730
v 0.266887 0.501182 0.114330
v 0.262487 0.501540 0.111048
v 0.256944 0.481482 0.119460
v 0.260362 0.498513 0.122407
v 0.255159 0.482990 0.117167
v 0.255504 0.498421 0.118522
v 0.258165 0.483466 0.114643
v 0.260164 0.497596 0.111726
v 0.261188 0.482460 0.115561
v 0.265398 0.498390 0.115074
v 0.259901 0.511325 0.118876
v 0.254908 0.508231 0.114937
v 0.272681 0.529570 0.096230
v 0.268506 0.529166 0.094439
v 0.262410 0.532215 0.111331
v 0.277050 0.530650 0.084596
v 0.269417 0.528934 0.085033
v 0.258737 0.530930 0.106078
v 0.265793 0.547759 0.108159
v 0.258693 0.546881 0.102008
v 0.277032 0.546788 0.084923
v 0.268083 0.545920 0.082594
v 0.154230 0.894945 0.143409
v 0.145743 0.891052 0.132023
v 0.163083 0.890627 0.133565
v 0.135410 0.872679 0.130961
v 0.154181 0.872508 0.132557
v 0.172757 0.872344 0.130672
v 0.126561 0.875625 0.114548
v 0.143917 0.859495 0.128578
v 0.164680 0.859376 0.128812
v 0.180514 0.875369 0.112782
v 0.123842 0.878899 0.100078
v 0.139225 0.858565 0.111186
v 0.154218 0.852785 0.108434
v 0.170579 0.858287 0.111398
v 0.184024 0.878579 0.099719
v 0.122616 0.883823 0.081321
v 0.137231 0.858518 0.087947
v 0.172547 0.857499 0.087747
v 0.185615 0.880917 0.081279
v 0.128891 0.870231 0.067819
v 0.179840 0.873594 0.067736
v 0.154274 0.904003 0.137945
v 0.159922 0.901926 0.133748
v 0.154314 0.917777 0.130778
v 0.182388 0.904377 0.129299
v 0.169847 0.919569 0.127287
v 0.154346 0.933696 0.130657
v 0.189180 0.901570 0.115090
v 0.187299 0.931006 0.120052
v 0.174116 0.934179 0.127094
v 0.153594 0.938164 0.124600
v 0.191019 0.906852 0.088774
v 0.192197 0.921762 0.097752
v 0.188814 0.894298 0.064924
v 0.148956 0.902241 0.133562
v 0.138756 0.919655 0.127833
v 0.126758 0.904278 0.129556
v 0.135642 0.934739 0.127446
v 0.122168 0.931600 0.120266
v 0.118477 0.900431 0.115169
v 0.134385 0.940488 0.120619
v 0.117374 0.922380 0.098238
v 0.118164 0.907158 0.089513
v 0.119902 0.894155 0.065089
v 0.133603 0.875911 0.054579
v 0.153948 0.847802 0.101645
v 0.130193 0.834007 0.085503
v 0.153715 0.820886 0.095856
v 0.177498 0.832461 0.085846
v 0.180608 0.842573 0.065461
v 0.178978 0.847375 0.053565
v 0.175579 0.877072 0.053997
v 0.153898 0.850498 0.050008
v 0.163529 0.877515 0.049395
v 0.127343 0.843170 0.066111
v 0.129685 0.847899 0.054009
v 0.145425 0.877381 0.051004
v 0.125947 0.035025 0.156344
v 0.135478 0.035359 0.130127
v 0.106007 0.035912 0.130200
v 0.112386 0.034873 0.156972
v 0.103370 0.064527 0.054650
v 0.106291 0.052309 0.054238
v 0.100168 0.052400 0.071010
v 0.120768 0.064629 0.049142
v 0.120768 0.052631 0.049142
v 0.135836 0.065058 0.054379
v 0.134985 0.052092 0.053971
v 0.142904 0.052540 0.071245
v 0.138125 0.025554 0.129424
v 0.118429 0.025437 0.161047
v 0.102750 0.025704 0.129058
v 0.117164 0.025224 0.054375
v 0.124250 0.025334 0.054666
v 0.117164 0.025224 0.061118
v 0.124250 0.025334 0.061409
v 0.199963 0.034801 0.156511
v 0.208387 0.035283 0.130214
v 0.180147 0.035607 0.130409
v 0.186402 0.034649 0.157139
v 0.177386 0.064303 0.054817
v 0.180308 0.052085 0.054405
v 0.174185 0.052176 0.071177
v 0.194784 0.064405 0.049309
v 0.194784 0.052407 0.049309
v 0.209852 0.064834 0.054545
v 0.209002 0.051868 0.054137
v 0.216921 0.052317 0.071412
v 0.212855 0.026140 0.129578
v 0.192445 0.025213 0.161214
v 0.176053 0.025479 0.129237
v 0.191180 0.025000 0.054542
v 0.198267 0.025110 0.054833
v 0.191180 0.025000 0.061285
v 0.198267 0.025110 0.061576
v 0.074356 0.773598 0.117704
v 0.073875 0.741706 0.131306
v 0.101439 0.741410 0.157131
v 0.105323 0.782778 0.125748
v 0.081059 0.805665 0.098718
v 0.110007 0.804719 0.108849
v 0.052723 0.818583 0.062388
v 0.075135 0.718547 0.054779
v 0.096690 0.624105 0.065785
v 0.083750 0.624034 0.088320
v 0.071461 0.718277 0.096441
v 0.070728 0.724611 0.043120
v 0.069552 0.739897 0.099905
v 0.084707 0.731427 0.030720
v 0.090304 0.711304 0.035014
v 0.087737 0.798562 0.032440
v 0.056770 0.804598 0.038319
v 0.087291 0.824997 0.041328
v 0.070211 0.820791 0.056225
v 0.222730 0.711301 0.035112
v 0.192489 0.623279 0.054957
v 0.152318 0.620422 0.045347
v 0.153101 0.710086 0.031973
v 0.226438 0.731403 0.030078
v 0.153146 0.731796 0.029593
v 0.220658 0.795523 0.033554
v 0.152898 0.799838 0.031516
v 0.153401 0.826588 0.038621
v 0.226082 0.822996 0.040025
v 0.234804 0.718040 0.053819
v 0.213343 0.623601 0.065519
v 0.234380 0.717844 0.097603
v 0.223805 0.625093 0.088376
v 0.238732 0.820126 0.056464
v 0.202669 0.709736 0.133733
v 0.191206 0.623956 0.135394
v 0.212627 0.623451 0.122272
v 0.226096 0.712289 0.126042
v 0.230099 0.741773 0.131925
v 0.237935 0.740729 0.099892
v 0.207343 0.742487 0.156215
v 0.230931 0.778306 0.120163
v 0.251244 0.792822 0.093269
v 0.225511 0.805063 0.096391
v 0.253619 0.815157 0.062666
v 0.199564 0.804790 0.107515
v 0.201158 0.783020 0.122540
v 0.153579 0.782498 0.120347
v 0.153933 0.745058 0.144766
v 0.250186 0.798971 0.038811
v 0.261724 0.645160 0.057140
v 0.239448 0.634702 0.062384
v 0.237852 0.656395 0.057592
v 0.257633 0.666364 0.055021
v 0.247136 0.642869 0.101989
v 0.244760 0.661302 0.103534
v 0.261854 0.645657 0.104438
v 0.259811 0.660505 0.104022
v 0.277239 0.646589 0.084111
v 0.275427 0.665299 0.082049
v 0.227944 0.729203 0.043040
v 0.056670 0.791114 0.097073
v 0.066314 0.659391 0.051317
v 0.035433 0.661602 0.048356
v 0.062488 0.659130 0.089438
v 0.040336 0.665027 0.094102
v 0.025830 0.664910 0.076039
v 0.061126 0.631696 0.052101
v 0.028982 0.638862 0.057876
v 0.065848 0.650021 0.093071
v 0.043722 0.652687 0.098911
v 0.025000 0.648915 0.081073
v 0.154118 0.706206 0.139074
v 0.156059 0.623945 0.131438
v 0.102329 0.710389 0.133614
v 0.121707 0.623679 0.131976
v 0.094108 0.623735 0.123409
v 0.078789 0.712251 0.126277
v 0.116486 0.621139 0.052060
v 0.239988 0.534159 0.048212
v 0.247944 0.530003 0.091124
v 0.084347 0.535896 0.029635
v 0.153700 0.543398 0.025000
v 0.072183 0.534258 0.047875
v 0.064647 0.530476 0.089698
v 0.101292 0.534023 0.139790
v 0.075247 0.531994 0.130387
v 0.155013 0.535210 0.143642
v 0.205192 0.533032 0.138130
v 0.236480 0.530649 0.128789
v 0.224862 0.536457 0.028671
v 0.082913 0.350248 0.057470
v 0.069039 0.351450 0.083009
v 0.201780 0.351600 0.044317
v 0.153187 0.350860 0.037863
v 0.227952 0.353796 0.053626
v 0.241186 0.352511 0.083024
v 0.200218 0.350777 0.137780
v 0.226804 0.352786 0.121509
v 0.155023 0.350941 0.137747
v 0.110758 0.351898 0.132495
v 0.078107 0.351471 0.122784
v 0.107424 0.350910 0.045046
v 0.068055 0.546514 0.103042
v 0.045410 0.543160 0.113598
v 0.070106 0.559514 0.143090
v 0.057242 0.559117 0.152500
v 0.041967 0.549397 0.136986
v 0.271150 0.528020 0.072965
v 0.252404 0.534539 0.076413
v 0.258041 0.537247 0.111503
v 0.274143 0.535359 0.117726
v 0.283631 0.528491 0.092547
v 0.156303 0.950495 0.128891
v 0.180224 0.946045 0.125431
v 0.154281 0.956766 0.128856
v 0.198252 0.943077 0.116578
v 0.205584 0.926719 0.095496
v 0.197074 0.958698 0.098770
v 0.181144 0.968769 0.101639
v 0.153433 0.970362 0.102957
v 0.205991 0.914344 0.083635
v 0.202934 0.898111 0.059820
v 0.202110 0.914358 0.055743
v 0.197275 0.946747 0.060658
v 0.186664 0.967714 0.067340
v 0.169592 0.974668 0.076080
v 0.132003 0.951559 0.123977
v 0.127821 0.967578 0.100691
v 0.112281 0.958402 0.098897
v 0.113216 0.945208 0.111988
v 0.103764 0.932050 0.094992
v 0.138653 0.975000 0.076264
v 0.121604 0.969232 0.068612
v 0.111367 0.946750 0.060480
v 0.108899 0.914969 0.057572
v 0.102316 0.919460 0.079072
v 0.106698 0.900865 0.059941
v 0.120596 0.874403 0.048352
v 0.121288 0.913289 0.040646
v 0.143970 0.861623 0.044451
v 0.138941 0.946631 0.037502
v 0.153824 0.909596 0.034821
v 0.162574 0.861577 0.043498
v 0.151926 0.965600 0.054205
v 0.165535 0.948420 0.041340
v 0.186194 0.914830 0.043846
v 0.188056 0.871231 0.049594
f 1 2 3
f 1 3 4
f 2 5 6
f 2 6 3
f 5 7 8
f 5 8 6
f 7 9 10
f 7 10 8
f 9 1 4
f 9 4 10
f 4 3 11
f 4 11 12
f 3 6 13
f 3 13 11
f 6 8 14
f 6 14 13
f 8 10 15
f 8 15 14
f 10 4 12
f 10 12 15
f 12 11 16
f 12 16 17
f 11 13 18
f 11 18 16
f 13 14 19
f 13 19 18
f 14 15 20
f 14 20 19
f 15 12 17
f 15 17 20
f 17 16 21
f 17 21 22
f 16 18 23
f 16 23 21
f 18 19 24
f 18 24 23
f 19 20 25
f 19 25 24
f 20 17 22
f 20 22 25
f 22 21 26
f 22 26 27
f 21 23 28
f 21 28 26
f 23 24 29
f 23 29 28
f 24 25 30
f 24 30 29
f 25 22 27
f 25 27 30
f 7 31 32
f 7 32 9
f 5 33 31
f 5 31 7
f 1 34 35
f 2 1 35
f 1 36 34
f 1 9 36
f 9 37 36
f 9 32 37
f 5 2 35
f 5 35 33
f 38 39 40
f 38 40 41
f 39 42 43
f 39 43 40
f 42 44 45
f 42 45 43
f 44 46 47
f 44 47 45
f 46 38 41
f 46 41 47
f 41 40 48
f 41 48 49
f 40 43 50
f 40 50 48
f 43 45 51
f 43 51 50
f 45 47 52
f 45 52 51
f 47 41 49
f 47 49 52
f 49 48 53
f 49 53 54
f 48 50 55
f 48 55 53
f 50 51 56
f 50 56 55
f 51 52 57
f 51 57 56
f 52 49 54
f 52 54 57
f 54 53 58
f 54 58 59
f 53 55 60
f 53 60 58
f 55 56 61
f 55 61 60
f 56 57 62
f 56 62 61
f 57 54 59
f 57 59 62
f 59 58 63
f 59 63 64
f 58 60 65
f 58 65 63
f 60 61 66
f 60 66 65
f 61 62 67
f 61 67 66
f 62 59 64
f 62 64 67
f 44 68 69
f 44 69 46
f 42 70 68
f 42 68 44
f 46 69 71
f 39 38 72
f 39 72 73
f 38 46 74
f 38 74 72
f 46 71 74
f 42 39 73
f 42 73 70
f 75 76 77
f 76 78 77
f 77 78 79
f 78 80 79
f 79 80 81
f 80 82 81
f 81 82 75
f 82 76 75
f 76 83 78
f 83 84 78
f 78 84 80
f 84 85 80
f 80 85 82
f 85 86 82
f 82 86 76
f 86 83 76
f 81 75 77
f 77 79 81
f 87 88 89
f 88 90 89
f 89 90 91
f 90 92 91
f 91 92 93
f 92 94 93
f 93 94 87
f 94 88 87
f 88 86 90
f 86 85 90
f 90 85 92
f 85 95 92
f 92 95 94
f 95 96 94
f 94 96 88
f 96 86 88
f 93 87 89
f 89 91 93
f 97 98 99
f 98 100 99
f 99 100 101
f 100 102 101
f 101 102 103
f 102 104 103
f 103 104 97
f 104 98 97
f 98 105 100
f 105 106 100
f 100 106 102
f 106 84 102
f 102 84 104
f 84 83 104
f 104 83 98
f 83 105 98
f 103 97 99
f 99 101 103
f 107 108 109
f 108 110 109
f 109 110 111
f 110 112 111
f 111 112 113
f 112 114 113
f 113 114 107
f 114 108 107
f 108 96 110
f 96 95 110
f 110 95 112
f 95 115 112
f 112 115 114
f 115 116 114
f 114 116 108
f 116 96 108
f 113 107 109
f 109 111 113
f 117 118 119
f 118 120 119
f 119 120 121
f 120 122 121
f 121 122 123
f 122 124 123
f 123 124 117
f 124 118 117
f 118 125 120
f 125 126 120
f 120 126 122
f 126 116 122
f 122 116 124
f 116 115 124
f 124 115 118
f 115 125 118
f 123 117 119
f 119 121 123
f 127 105 83
f 127 83 86
f 127 86 96
f 127 96 116
f 127 116 126
f 84 106 128
f 85 84 128
f 95 85 128
f 115 95 128
f 125 115 128
f 127 126 129
f 130 125 128
f 131 128 106
f 105 127 132
f 129 126 125
f 130 129 125
f 132 131 106
f 132 106 105
f 131 132 133
f 133 134 131
f 135 129 136
f 129 130 136
f 127 129 135
f 132 127 133
f 127 135 133
f 136 130 128
f 134 128 131
f 136 128 134
f 137 138 139
f 138 140 139
f 139 140 141
f 140 142 141
f 141 142 143
f 142 144 143
f 143 144 137
f 144 138 137
f 138 145 140
f 145 146 140
f 140 146 142
f 146 147 142
f 142 147 144
f 147 148 144
f 144 148 138
f 148 145 138
f 143 137 139
f 139 141 143
f 149 150 151
f 150 152 151
f 151 152 153
f 152 154 153
f 153 154 155
f 154 156 155
f 155 156 149
f 156 150 149
f 150 148 152
f 148 147 152
f 152 147 154
f 147 157 154
f 154 157 156
f 157 158 156
f 156 158 150
f 158 148 150
f 155 149 151
f 151 153 155
f 159 160 161
f 160 162 161
f 161 162 163
f 162 164 163
f 163 164 165
f 164 166 165
f 165 166 159
f 166 160 159
f 160 167 162
f 167 168 162
f 162 168 164
f 168 146 164
f 164 146 166
f 146 145 166
f 166 145 160
f 145 167 160
f 165 159 161
f 161 163 165
f 169 170 171
f 170 172 171
f 171 172 173
f 172 174 173
f 173 174 175
f 174 176 175
f 175 176 169
f 176 170 169
f 170 158 172
f 158 157 172
f 172 157 174
f 157 177 174
f 174 177 176
f 177 178 176
f 176 178 170
f 178 158 170
f 175 169 171
f 171 173 175
f 179 180 181
f 180 182 181
f 181 182 183
f 182 184 183
f 183 184 185
f 184 186 185
f 185 186 179
f 186 180 179
f 180 187 182
f 187 188 182
f 182 188 184
f 188 178 184
f 184 178 186
f 178 177 186
f 186 177 180
f 177 187 180
f 185 179 181
f 181 183 185
f 189 187 177
f 189 177 157
f 189 157 147
f 189 147 146
f 189 146 168
f 158 178 190
f 148 158 190
f 145 148 190
f 167 145 190
f 191 187 189
f 189 168 192
f 190 193 167
f 194 190 188
f 168 167 193
f 192 168 193
f 191 194 188
f 187 191 188
f 178 188 190
f 194 195 196
f 191 195 194
f 197 192 193
f 197 193 198
f 195 191 189
f 189 192 197
f 195 189 197
f 194 196 190
f 190 198 193
f 196 198 190
f 199 200 201
f 200 202 203
f 200 203 201
f 201 203 204
f 202 205 206
f 202 206 203
f 203 206 207
f 203 207 204
f 204 207 208
f 205 209 210
f 205 210 206
f 206 210 211
f 206 211 207
f 207 211 212
f 207 212 208
f 208 212 213
f 209 214 215
f 209 215 210
f 212 216 213
f 213 216 217
f 214 218 215
f 216 219 217
f 199 201 220
f 201 204 221
f 201 221 220
f 220 221 222
f 204 208 223
f 204 223 221
f 221 223 224
f 221 224 222
f 222 224 225
f 208 213 226
f 208 226 223
f 223 226 227
f 223 227 224
f 224 227 228
f 224 228 225
f 225 228 229
f 213 217 230
f 213 230 226
f 226 230 231
f 226 231 227
f 217 232 230
f 199 220 200
f 220 222 233
f 220 233 200
f 200 233 202
f 222 225 234
f 222 234 233
f 233 234 235
f 233 235 202
f 202 235 205
f 225 229 236
f 225 236 234
f 234 236 237
f 234 237 235
f 235 237 238
f 235 238 205
f 205 238 209
f 229 239 236
f 236 239 237
f 237 240 238
f 238 240 241
f 238 241 209
f 209 241 214
f 241 242 214
f 242 243 218
f 232 217 219
f 242 218 214
f 216 212 211
f 215 211 210
f 216 211 244
f 215 244 211
f 244 245 246
f 244 246 247
f 216 244 247
f 216 247 248
f 219 216 248
f 219 248 249
f 250 219 249
f 250 249 251
f 252 250 251
f 244 215 245
f 215 253 245
f 215 218 253
f 218 254 253
f 218 243 254
f 243 251 254
f 243 255 251
f 255 252 251
f 232 219 250
f 36 37 256
f 36 256 257
f 37 32 258
f 37 258 259
f 31 260 261
f 31 261 262
f 260 263 264
f 260 264 261
f 263 265 266
f 263 266 264
f 265 34 267
f 265 267 266
f 34 257 268
f 34 268 267
f 257 256 269
f 257 269 268
f 256 259 269
f 259 258 270
f 259 270 269
f 258 31 262
f 258 262 270
f 34 36 257
f 35 34 265
f 35 265 263
f 33 263 260
f 33 35 263
f 33 260 31
f 32 31 258
f 37 259 256
f 264 271 261
f 266 272 264
f 264 272 271
f 262 261 273
f 261 271 273
f 267 274 266
f 266 274 272
f 262 273 274
f 267 262 274
f 74 71 275
f 74 275 276
f 71 69 277
f 71 277 278
f 68 279 280
f 68 280 281
f 279 282 283
f 279 283 280
f 282 284 285
f 282 285 283
f 284 72 286
f 284 286 285
f 72 276 287
f 72 287 286
f 276 275 288
f 276 288 287
f 275 278 288
f 278 277 289
f 278 289 288
f 277 68 281
f 277 281 289
f 72 74 276
f 73 72 284
f 73 284 282
f 70 282 279
f 70 73 282
f 70 279 68
f 69 68 277
f 71 278 275
f 283 290 280
f 285 291 283
f 283 291 290
f 281 280 292
f 280 290 292
f 286 293 285
f 285 293 291
f 281 292 293
f 286 281 293
f 294 295 296
f 296 297 294
f 298 294 297
f 297 299 298
f 245 298 299
f 253 300 298
f 298 245 253
f 301 302 303
f 303 304 301
f 305 301 304
f 304 306 305
f 307 308 301
f 301 305 307
f 309 307 305
f 305 310 309
f 311 309 310
f 310 312 311
f 254 311 312
f 312 253 254
f 313 314 315
f 315 316 313
f 317 313 316
f 316 318 317
f 319 317 318
f 318 320 319
f 321 320 309
f 309 311 321
f 251 321 311
f 311 254 251
f 251 322 321
f 323 324 314
f 314 313 323
f 325 326 324
f 324 323 325
f 249 327 322
f 322 251 249
f 327 249 248
f 328 329 330
f 330 331 328
f 332 331 325
f 325 333 332
f 334 328 331
f 331 332 334
f 335 332 333
f 333 336 335
f 337 335 336
f 336 338 337
f 248 337 338
f 247 339 337
f 337 248 247
f 339 246 340
f 246 341 340
f 340 341 334
f 341 342 334
f 246 299 297
f 246 297 341
f 341 297 296
f 341 296 342
f 247 246 339
f 245 299 246
f 300 312 310
f 338 343 327
f 344 345 346
f 344 346 347
f 345 348 349
f 345 349 346
f 348 350 351
f 348 351 349
f 350 352 353
f 350 353 351
f 352 344 347
f 352 347 353
f 347 346 354
f 347 354 343
f 346 349 333
f 346 333 354
f 349 351 336
f 349 336 333
f 351 353 338
f 351 338 336
f 353 347 343
f 353 343 338
f 333 336 338
f 333 338 343
f 354 333 343
f 300 355 306
f 310 300 306
f 310 306 305
f 310 305 356
f 310 356 357
f 305 306 358
f 305 358 356
f 306 355 359
f 306 359 358
f 355 300 360
f 355 360 359
f 300 310 357
f 300 357 360
f 357 356 361
f 357 361 362
f 356 358 363
f 356 363 361
f 358 359 364
f 358 364 363
f 359 360 365
f 359 365 364
f 360 357 362
f 360 362 365
f 335 334 332
f 335 340 334
f 339 340 337
f 337 340 335
f 334 366 328
f 334 342 366
f 328 367 329
f 328 366 367
f 368 369 367
f 366 368 367
f 368 370 369
f 368 371 370
f 296 368 366
f 342 296 366
f 296 371 368
f 296 295 371
f 298 355 294
f 298 300 355
f 295 304 371
f 295 306 304
f 294 306 295
f 294 355 306
f 371 304 303
f 308 315 372
f 308 316 315
f 301 372 302
f 301 308 372
f 307 318 316
f 307 316 308
f 309 320 318
f 309 318 307
f 321 319 320
f 321 322 319
f 322 343 319
f 322 327 343
f 317 323 313
f 317 354 323
f 319 354 317
f 319 343 354
f 371 303 370
f 354 325 323
f 333 325 354
f 331 330 326
f 325 331 326
f 373 324 326
f 326 374 373
f 375 372 315
f 315 376 375
f 377 302 372
f 372 375 377
f 378 303 302
f 302 377 378
f 379 369 370
f 370 380 379
f 379 367 369
f 379 381 367
f 382 329 367
f 381 382 367
f 382 330 329
f 382 383 330
f 383 374 326
f 384 315 314
f 384 376 315
f 373 314 324
f 373 384 314
f 383 326 330
f 380 370 303
f 378 380 303
f 377 385 386
f 386 378 377
f 384 387 388
f 388 376 384
f 373 389 387
f 387 384 373
f 374 390 389
f 389 373 374
f 382 391 392
f 392 383 382
f 382 393 391
f 382 381 393
f 379 394 393
f 381 379 393
f 379 395 394
f 379 380 395
f 380 378 386
f 375 388 396
f 375 376 388
f 377 396 385
f 377 375 396
f 380 386 395
f 383 392 390
f 374 383 390
f 253 312 300
f 248 338 327
f 362 361 397
f 362 397 398
f 361 363 399
f 361 399 397
f 363 364 400
f 363 400 399
f 364 365 401
f 364 401 400
f 365 362 398
f 365 398 401
f 402 403 345
f 402 345 344
f 403 404 348
f 403 348 345
f 404 405 350
f 404 350 348
f 405 406 352
f 405 352 350
f 406 402 344
f 406 344 352
f 407 408 409
f 410 411 412
f 410 412 408
f 408 412 413
f 408 413 409
f 409 413 414
f 415 416 417
f 415 417 411
f 411 417 418
f 411 418 412
f 412 418 419
f 412 419 413
f 413 419 420
f 413 420 414
f 407 409 421
f 409 414 422
f 409 422 421
f 421 422 423
f 421 423 424
f 424 423 425
f 414 426 422
f 422 426 427
f 422 427 423
f 423 427 428
f 423 428 425
f 425 428 429
f 425 429 430
f 430 429 431
f 431 429 432
f 429 428 433
f 429 433 432
f 432 433 434
f 428 427 435
f 428 435 433
f 433 435 436
f 433 436 434
f 434 436 437
f 427 426 438
f 427 438 435
f 435 438 439
f 435 439 436
f 436 439 440
f 436 440 437
f 437 440 441
f 426 420 438
f 438 420 419
f 438 419 439
f 439 419 418
f 439 418 440
f 440 418 417
f 440 417 441
f 441 417 416
f 426 414 420
f 421 239 229
f 421 229 407
f 407 229 228
f 407 228 408
f 408 228 227
f 410 408 227
f 410 227 231
f 410 231 411
f 411 231 230
f 411 230 415
f 415 230 232
f 415 232 416
f 416 232 250
f 416 250 441
f 421 424 239
f 424 237 239
f 424 425 240
f 424 240 237
f 425 430 241
f 425 241 240
f 430 431 242
f 430 242 241
f 431 432 243
f 431 243 242
