# Unified Preprocessed OBJ file from m186.obj
# Applied remeshing: Yes
# Applied 4-step normalization: centering, PCA alignment, flipping, scaling
# Generated on 2025-09-29 15:12:30

v 0.635843 0.021404 0.037693
v 0.635840 0.036729 0.048732
v 0.375982 0.008090 0.021251
v 0.376858 0.029797 0.063707
v 0.635737 0.054825 0.045224
v 0.377400 0.065136 0.064666
v 0.631842 0.071009 0.026795
v 0.382924 0.086892 0.010637
v 0.195426 0.000283 0.010280
v 0.192968 0.022525 0.080999
v 0.180668 0.052418 0.068821
v 0.197915 0.089787 0.003961
v 0.169722 -0.001588 0.070735
v 0.147842 0.037229 0.085176
v 0.150411 0.067380 0.068872
v 0.154819 0.082291 0.005159
v 0.150033 0.001410 0.077328
v 0.120296 0.000929 0.084208
v 0.089091 0.037716 0.054357
v 0.086440 0.002213 0.069892
v 0.089730 0.063687 0.045813
v 0.090832 0.089513 0.005521
v 0.633071 -0.038389 0.054818
v 0.631715 -0.027743 0.036361
v 0.368768 -0.013153 0.006680
v 0.370539 -0.038634 0.041856
v 0.632539 -0.057378 0.063926
v 0.374356 -0.067059 0.046206
v 0.632471 -0.076856 0.044776
v 0.379033 -0.093839 0.012482
v 0.185547 -0.037499 0.077000
v 0.171237 -0.065250 0.062132
v 0.196573 -0.096301 0.012906
v 0.169718 -0.001418 0.064491
v 0.139722 -0.043866 0.079605
v 0.139778 -0.040276 0.080828
v 0.147248 -0.094211 0.009870
v 0.150032 0.001441 0.076204
v 0.117540 0.000644 0.082453
v 0.085964 -0.028708 0.067303
v 0.086440 0.002199 0.070392
v 0.084677 -0.062000 0.042029
v 0.081830 -0.090511 0.007263
v 0.618996 -0.035619 -0.062328
v 0.602238 -0.027018 0.035525
v 0.631409 -0.033251 -0.055273
v 0.632538 -0.040545 -0.063470
v 0.623166 -0.056270 -0.072890
v 0.632535 -0.056413 -0.072900
v 0.623154 -0.073612 -0.069486
v 0.632398 -0.073753 -0.069496
v 0.621975 -0.085798 -0.061942
v 0.631095 -0.085937 -0.061952
v 0.631104 -0.086327 -0.047590
v 0.605060 -0.038360 0.032715
v 0.605657 -0.056537 0.034346
v 0.607384 -0.075131 0.046088
v 0.093318 0.002779 -0.051576
v 0.151573 -0.003944 -0.044047
v 0.095077 -0.037828 -0.043932
v 0.211982 -0.041310 -0.036977
v 0.176960 -0.002672 -0.040779
v 0.195372 -0.003214 0.010185
v 0.088106 -0.069721 -0.030045
v 0.205025 -0.064465 -0.018105
v 0.081965 -0.089890 0.007279
v 0.373993 -0.036809 -0.027335
v 0.379290 -0.066282 -0.026639
v 0.622201 0.043027 -0.060444
v 0.608532 0.025832 0.023583
v 0.633948 0.023549 -0.012614
v 0.633767 0.048803 -0.077168
v 0.623650 0.065330 -0.077087
v 0.635267 0.065152 -0.077099
v 0.623507 0.079988 -0.069065
v 0.634500 0.079820 -0.069077
v 0.622200 0.083798 -0.061337
v 0.634666 0.089875 -0.057431
v 0.631275 0.095719 -0.040522
v 0.633361 0.093797 -0.049200
v 0.599394 0.042765 -0.001072
v 0.594898 0.059003 0.001871
v 0.621598 0.087221 0.029366
v 0.090903 0.040349 -0.043681
v 0.207481 0.029161 0.003308
v 0.092256 0.062851 -0.035322
v 0.214346 0.054633 -0.018001
v 0.090809 0.088014 0.005480
v 0.382102 0.007996 0.021244
v 0.382638 0.038179 -0.027304
v 0.380056 0.064885 -0.019704
v -0.204907 0.002455 -0.023024
v -0.086974 -0.052577 -0.069961
v -0.206647 -0.030053 -0.017032
v -0.078284 0.000146 -0.060162
v 0.095139 -0.008492 -0.056382
v 0.090241 -0.060693 -0.032301
v -0.182910 -0.081022 0.009939
v -0.205311 -0.034479 0.011717
v -0.173380 -0.104568 0.029290
v -0.161779 -0.104212 0.005047
v -0.133737 -0.099391 -0.013462
v -0.098927 -0.095422 0.000246
v -0.070370 -0.092477 0.022929
v 0.083433 -0.091508 0.001610
v -0.044538 -0.151153 0.014946
v -0.034171 -0.134422 0.005145
v -0.023525 -0.116079 0.000262
v -0.011934 -0.103245 0.022849
v 0.025917 -0.112383 0.029575
v 0.020205 -0.124387 0.000758
v 0.012723 -0.139974 0.003589
v 0.009126 -0.155834 0.023532
v 0.121822 -0.113341 -0.007755
v 0.123416 -0.122455 -0.022876
v 0.126658 -0.139272 -0.022211
v 0.127329 -0.145475 -0.005882
v -0.085293 0.056935 -0.066988
v -0.205744 0.028920 -0.016681
v 0.092670 0.049697 -0.043678
v -0.185220 0.094321 0.012077
v -0.206130 0.034821 0.005600
v -0.164469 0.119135 0.016361
v -0.142446 0.114249 -0.000283
v -0.116796 0.108708 -0.004073
v -0.090674 0.100882 -0.002177
v -0.059252 0.094959 0.023261
v 0.090216 0.090021 0.005535
v -0.030994 0.152803 0.031313
v -0.026177 0.142629 0.007413
v -0.015651 0.120445 0.003680
v -0.004557 0.108876 0.027604
v 0.020501 0.112532 0.039935
v 0.023586 0.128647 0.006252
v 0.018341 0.144898 0.009196
v 0.008554 0.156894 0.033274
v 0.123880 0.109486 0.010791
v 0.123468 0.116289 -0.004771
v 0.123889 0.135518 -0.004250
v 0.123856 0.140472 0.011258
v -0.364029 0.007240 -0.035666
v -0.359166 -0.017378 -0.043211
v -0.363658 -0.001969 -0.023543
v -0.353631 -0.024970 -0.015300
v -0.361018 -0.001845 -0.011168
v -0.353634 -0.002585 0.011928
v -0.348492 -0.025758 0.010796
v -0.345253 -0.003209 0.030152
v -0.334435 -0.024252 0.048696
v -0.331627 -0.003831 0.045374
v -0.306505 -0.004545 0.062086
v -0.315318 -0.024958 0.059288
v -0.269785 -0.004911 0.054804
v -0.275708 -0.024193 0.050160
v -0.236816 -0.005232 0.043401
v -0.241856 -0.024455 0.045257
v -0.204718 -0.005453 0.033377
v -0.204525 -0.024811 0.023477
v -0.341278 -0.033267 -0.029781
v -0.331356 -0.041972 0.027466
v -0.317474 -0.042443 0.046191
v -0.297348 -0.041701 0.044324
v -0.275771 -0.043891 0.039127
v -0.254142 -0.034635 0.035865
v -0.206043 -0.032512 -0.000477
v -0.291385 -0.050327 0.017965
v -0.283052 -0.053261 0.024630
v -0.273992 -0.048169 0.011514
v -0.238542 -0.033186 -0.003349
v -0.268395 -0.050690 0.022940
v -0.260475 -0.046995 0.015911
v -0.257270 -0.041215 0.008318
v -0.259096 -0.037661 0.002791
v -0.256029 -0.041726 0.008053
v -0.362276 -0.001470 -0.024280
v -0.356921 0.030914 -0.036902
v -0.364157 -0.001126 -0.035893
v -0.352905 0.022356 -0.014016
v -0.347766 0.021569 0.012080
v -0.333793 0.017580 0.049831
v -0.314672 0.017124 0.060430
v -0.275097 0.015641 0.051241
v -0.241248 0.015130 0.046331
v -0.204719 -0.005395 0.031253
v -0.205300 0.014139 0.025660
v -0.337345 0.043643 -0.024195
v -0.330154 0.036322 0.029591
v -0.316280 0.035352 0.048303
v -0.296185 0.034096 0.046382
v -0.274545 0.036027 0.041296
v -0.253126 0.031547 0.037661
v -0.206254 0.026065 0.015111
v -0.310275 0.047763 -0.007104
v -0.286967 0.051256 0.007598
v -0.272612 0.041739 0.013954
v -0.251473 0.043961 0.003003
v -0.277169 0.054394 0.010801
v -0.266333 0.052053 0.012605
v -0.258900 0.047967 0.011615
v -0.255434 0.045996 0.008560
v -0.332795 0.007634 -0.044798
v -0.334068 -0.010437 -0.041414
v -0.298596 0.005818 -0.052493
v -0.302354 -0.011158 -0.051201
v -0.291354 0.005433 -0.051634
v -0.286987 -0.003546 -0.045631
v -0.301402 -0.023206 -0.040782
v -0.330204 -0.027622 -0.036758
v -0.291377 -0.012488 -0.049870
v -0.272761 -0.004178 -0.053406
v -0.269270 0.004540 -0.068044
v -0.264197 -0.007928 -0.053638
v -0.267772 0.004568 -0.069919
v -0.265773 0.004534 -0.069795
v -0.263525 0.004321 -0.067803
v -0.259023 0.004048 -0.060315
v -0.249800 0.002712 -0.062356
v -0.248430 -0.014777 -0.049710
v -0.246052 0.002644 -0.061986
v -0.241681 0.002601 -0.062865
v -0.236063 0.002046 -0.059384
v -0.222720 -0.016868 -0.047033
v -0.223576 0.001466 -0.058908
v -0.221578 0.001436 -0.058910
v -0.220077 0.001355 -0.056789
v -0.217704 0.000913 -0.051053
v -0.217671 0.001974 -0.034902
v -0.205035 0.001599 -0.014424
v -0.204814 -0.016498 -0.015540
v -0.221950 -0.016104 -0.038765
v -0.298467 -0.037164 -0.016292
v -0.290285 -0.023176 -0.043537
v -0.271753 -0.040077 0.002234
v -0.291930 -0.044623 0.010747
v -0.272286 -0.022651 -0.045410
v -0.251067 -0.024304 -0.042593
v -0.228574 -0.024794 -0.032622
v -0.227692 -0.024335 -0.031610
v -0.205239 -0.028046 -0.013479
v -0.205294 -0.032510 -0.000977
v -0.233043 -0.033162 -0.002727
v -0.258690 -0.044413 0.011857
v -0.260600 -0.046994 0.015911
v -0.273195 -0.045190 0.011845
v -0.331889 0.025736 -0.039933
v -0.300455 0.023035 -0.050274
v -0.285977 0.013425 -0.045171
v -0.298021 0.034322 -0.039222
v -0.326675 0.039750 -0.038805
v -0.289332 0.023078 -0.048906
v -0.271749 0.012918 -0.052943
v -0.269270 0.004536 -0.067919
v -0.262838 0.015532 -0.053002
v -0.246391 0.020415 -0.048756
v -0.219796 0.018923 -0.045689
v -0.205131 0.019857 -0.014678
v -0.205035 0.001612 -0.014923
v -0.217672 0.002014 -0.036400
v -0.220539 0.018846 -0.037817
v -0.294484 0.043613 -0.019724
v -0.286921 0.033228 -0.042008
v -0.268362 0.042816 -0.000517
v -0.286515 0.048326 0.004769
v -0.269205 0.031677 -0.045560
v -0.247865 0.029730 -0.041128
v -0.223398 0.027426 -0.029958
v -0.223406 0.026927 -0.029972
v -0.206272 0.027264 -0.019850
v -0.205656 0.032425 0.015284
v -0.228353 0.035660 0.010262
v -0.238795 0.039412 0.006871
v -0.269656 0.047649 0.006365
v -0.204060 -0.027476 0.029279
v -0.110775 -0.002108 0.087273
v -0.204680 -0.002959 0.033568
v -0.113171 -0.052217 0.083539
v 0.085969 -0.004029 0.069848
v 0.084388 -0.056754 0.046921
v -0.207184 -0.034451 0.011719
v -0.182909 -0.081042 0.010688
v -0.173379 -0.104592 0.030165
v -0.138604 -0.104029 0.058902
v -0.109660 -0.098968 0.063271
v -0.080502 -0.094812 0.045618
v -0.069494 -0.092520 0.024052
v 0.083434 -0.091531 0.002485
v -0.044414 -0.151107 0.013197
v -0.034396 -0.135489 0.044609
v -0.024120 -0.117307 0.045847
v -0.012937 -0.103301 0.020848
v 0.023491 -0.115485 0.025493
v 0.017860 -0.125768 0.048339
v 0.010997 -0.141150 0.043301
v 0.007248 -0.155825 0.019660
v 0.123038 -0.124805 0.008680
v 0.125670 -0.140560 0.007375
v -0.204649 0.023990 0.026177
v -0.109952 0.051652 0.086358
v 0.086030 0.049652 0.058432
v -0.180722 0.094232 0.012821
v -0.160471 0.119043 0.017481
v -0.133371 0.107135 0.058633
v -0.104020 0.097351 0.070972
v -0.077460 0.094795 0.058013
v -0.058626 0.094925 0.024136
v 0.090216 0.090008 0.006034
v -0.031494 0.152835 0.030439
v -0.024014 0.133455 0.058654
v -0.016737 0.119095 0.058634
v -0.013594 0.106287 0.026790
v 0.018010 0.113114 0.038328
v 0.023603 0.126079 0.059423
v 0.019232 0.142900 0.054633
v 0.006811 0.157329 0.032037
v 0.124004 0.109359 0.010788
v 0.123715 0.122045 0.027130
v 0.123094 0.130605 0.025238
v 0.143400 0.111318 0.010578
v 0.220055 0.108938 -0.014155
v 0.220736 0.112908 -0.018047
v 0.136682 0.106447 -0.008796
v 0.133990 0.110529 -0.014933
v 0.230706 0.111476 -0.021592
v 0.229047 0.117836 -0.029292
v 0.229373 0.123208 -0.034021
v 0.231211 0.120631 -0.032217
v 0.223536 0.125572 -0.034953
v 0.220957 0.128901 -0.040984
v 0.182486 0.137680 -0.038721
v 0.129871 0.119170 -0.017819
v 0.183305 0.142728 -0.045584
v 0.186621 0.138694 -0.041572
v 0.152416 0.140135 -0.033887
v 0.125899 0.110059 0.020804
v 0.121488 0.109116 -0.001840
v 0.121797 0.114383 -0.021069
v 0.120572 0.139390 -0.006891
v 0.219811 -0.110933 -0.013751
v 0.217605 -0.108357 -0.010681
v 0.141130 -0.118349 0.009219
v 0.135546 -0.114469 -0.010794
v 0.133473 -0.118896 -0.016912
v 0.229220 -0.115919 -0.024141
v 0.229955 -0.109258 -0.016712
v 0.231548 -0.118757 -0.026844
v 0.230006 -0.121437 -0.028541
v 0.224340 -0.124189 -0.029861
v 0.222278 -0.127867 -0.035959
v 0.184261 -0.138158 -0.035964
v 0.129561 -0.121267 -0.019473
v 0.188616 -0.139156 -0.038494
v 0.185796 -0.143504 -0.042484
v 0.154552 -0.144660 -0.032873
v 0.119687 -0.115934 0.019921
v 0.119682 -0.114501 -0.005286
v 0.120667 -0.122203 -0.025992
v 0.123930 -0.138867 -0.007950
v 0.142722 0.107790 0.011983
v 0.144089 0.131994 0.008265
v 0.141323 0.139456 0.001970
v 0.181861 0.137683 -0.038471
v 0.137027 0.136826 -0.004597
v 0.123088 0.130041 0.027597
v 0.122117 0.140931 0.013771
v 0.120696 0.139388 -0.006891
v 0.139340 -0.112990 0.010865
v 0.217855 -0.108361 -0.010681
v 0.142414 -0.132337 0.008088
v 0.140869 -0.143023 0.002050
v 0.183635 -0.138280 -0.035717
v 0.137023 -0.140776 -0.004885
v 0.119693 -0.115563 0.020056
v 0.122365 -0.128682 0.018323
v 0.125605 -0.145242 0.014123
v 0.123932 -0.138742 -0.007946
v 0.635841 0.029067 0.043212
v 0.505911 0.022409 0.034991
v 0.505912 0.014747 0.029472
v 0.506349 0.033263 0.056220
v 0.376420 0.018944 0.042479
v 0.635788 0.045777 0.046978
v 0.506297 0.042311 0.054466
v 0.506569 0.059980 0.054945
v 0.377129 0.047467 0.064187
v 0.633790 0.062917 0.036009
v 0.504621 0.068073 0.045730
v 0.507383 0.078951 0.018716
v 0.380162 0.076014 0.037652
v 0.285704 0.004186 0.015765
v 0.286142 0.015040 0.036994
v 0.284913 0.026161 0.072353
v 0.194197 0.011404 0.045640
v 0.285184 0.043830 0.072832
v 0.279034 0.058777 0.066743
v 0.186818 0.037471 0.074910
v 0.281796 0.069655 0.039729
v 0.290420 0.088340 0.007299
v 0.189292 0.071102 0.036391
v 0.181345 0.010469 0.075867
v 0.182574 -0.000652 0.040508
v 0.170405 0.029877 0.083087
v 0.158782 0.017820 0.077956
v 0.164255 0.044823 0.076998
v 0.165539 0.059899 0.068846
v 0.149126 0.052304 0.077024
v 0.174163 0.078583 0.036416
v 0.176367 0.086039 0.004560
v 0.152615 0.074835 0.037015
v 0.159878 -0.000089 0.074032
v 0.148937 0.019319 0.081252
v 0.135164 0.001170 0.080768
v 0.134069 0.019079 0.084692
v 0.104693 0.019323 0.069283
v 0.087765 0.019965 0.062125
v 0.103368 0.001571 0.077050
v 0.118466 0.037472 0.069767
v 0.118786 0.050458 0.065494
v 0.089410 0.050702 0.050085
v 0.120070 0.065534 0.057342
v 0.120621 0.078446 0.037196
v 0.090281 0.076600 0.025667
v 0.122826 0.085902 0.005340
v 0.632393 -0.033066 0.045589
v 0.500242 -0.020448 0.021520
v 0.500919 -0.025771 0.030749
v 0.501805 -0.038512 0.048337
v 0.369654 -0.025894 0.024268
v 0.632805 -0.047884 0.059372
v 0.501539 -0.048006 0.052891
v 0.503448 -0.062218 0.055066
v 0.372448 -0.052846 0.044031
v 0.503414 -0.071957 0.045491
v 0.632505 -0.067117 0.054351
v 0.505752 -0.085347 0.028629
v 0.376695 -0.080449 0.029344
v 0.282097 -0.006435 0.008480
v 0.282982 -0.019176 0.026068
v 0.190486 -0.018608 0.043640
v 0.278043 -0.038066 0.059428
v 0.279951 -0.052279 0.061603
v 0.178392 -0.051374 0.069566
v 0.272797 -0.066154 0.054169
v 0.275135 -0.079544 0.037307
v 0.287803 -0.095070 0.012694
v 0.183905 -0.080775 0.037519
v 0.182572 -0.000568 0.037385
v 0.177632 -0.019458 0.070745
v 0.162634 -0.040682 0.078302
v 0.154720 -0.022642 0.072048
v 0.155479 -0.054558 0.070869
v 0.155508 -0.052763 0.071480
v 0.139750 -0.042071 0.080216
v 0.168176 -0.068288 0.046867
v 0.143513 -0.067243 0.045349
v 0.171911 -0.095256 0.011388
v 0.159875 0.000011 0.070347
v 0.144877 -0.021213 0.077905
v 0.133786 0.001042 0.079328
v 0.128631 -0.021611 0.081029
v 0.101752 -0.014032 0.074878
v 0.101990 0.001422 0.076422
v 0.086202 -0.013254 0.068847
v 0.112843 -0.036287 0.073454
v 0.112199 -0.052933 0.060817
v 0.085320 -0.045354 0.054666
v 0.112228 -0.051138 0.061428
v 0.110804 -0.065394 0.044045
v 0.083253 -0.076256 0.024646
v 0.114539 -0.092361 0.008566
v 0.625355 -0.031681 -0.012984
v 0.610617 -0.031319 -0.013402
v 0.616976 -0.027381 0.035943
v 0.631562 -0.030497 -0.009456
v 0.625202 -0.034435 -0.058800
v 0.631974 -0.036898 -0.059372
v 0.625767 -0.038082 -0.062899
v 0.627852 -0.048408 -0.068180
v 0.621081 -0.045944 -0.067609
v 0.632537 -0.048479 -0.068185
v 0.627850 -0.056342 -0.072895
v 0.627844 -0.065013 -0.071193
v 0.623160 -0.064941 -0.071188
v 0.632466 -0.065083 -0.071198
v 0.627776 -0.073683 -0.069491
v 0.627187 -0.079776 -0.065719
v 0.622564 -0.079705 -0.065714
v 0.631746 -0.079845 -0.065724
v 0.626535 -0.085868 -0.061947
v 0.631783 -0.081397 -0.008588
v 0.627223 -0.081327 -0.008583
v 0.631099 -0.086132 -0.054771
v 0.631787 -0.081592 -0.001407
v 0.612028 -0.036989 -0.014806
v 0.603649 -0.032689 0.034120
v 0.614113 -0.047315 -0.020087
v 0.614412 -0.056404 -0.019272
v 0.605359 -0.047448 0.033531
v 0.614406 -0.065074 -0.017570
v 0.613816 -0.071168 -0.013798
v 0.614680 -0.080464 -0.007927
v 0.606521 -0.065834 0.040217
v 0.619928 -0.075993 0.045432
v 0.122445 -0.000582 -0.047811
v 0.123325 -0.020886 -0.043989
v 0.094198 -0.017524 -0.047754
v 0.181777 -0.022627 -0.040512
v 0.153530 -0.039569 -0.040454
v 0.194471 -0.021991 -0.038878
v 0.164266 -0.003308 -0.042413
v 0.203677 -0.022262 -0.013396
v 0.186166 -0.002943 -0.015297
v 0.150044 -0.055516 -0.033511
v 0.091592 -0.053775 -0.036988
v 0.208503 -0.052888 -0.027541
v 0.146566 -0.067093 -0.024075
v 0.143495 -0.077177 -0.005413
v 0.085035 -0.079805 -0.011383
v 0.200799 -0.080383 -0.002600
v 0.139269 -0.093095 0.010092
v 0.282070 -0.008183 0.008433
v 0.290375 -0.027232 -0.015149
v 0.371380 -0.024981 -0.010328
v 0.292987 -0.039060 -0.032156
v 0.376641 -0.051546 -0.026987
v 0.295636 -0.053796 -0.031808
v 0.292157 -0.065374 -0.022372
v 0.379162 -0.080061 -0.007078
v 0.292029 -0.079152 -0.002811
v 0.485503 -0.020086 0.021102
v 0.488115 -0.031914 0.004095
v 0.489526 -0.037584 0.002690
v 0.492175 -0.052321 0.003038
v 0.492474 -0.061410 0.003854
v 0.493209 -0.084485 0.029285
v 0.492345 -0.075188 0.023414
v 0.629022 0.032216 -0.011376
v 0.622187 0.023618 0.030638
v 0.615367 0.034429 -0.018430
v 0.628075 0.033288 -0.036529
v 0.634895 0.022477 0.012539
v 0.633858 0.036176 -0.044891
v 0.627984 0.045915 -0.068806
v 0.628709 0.057066 -0.077127
v 0.622926 0.054178 -0.068766
v 0.629458 0.065241 -0.077093
v 0.634517 0.056977 -0.077133
v 0.629387 0.072570 -0.073082
v 0.623579 0.072659 -0.073076
v 0.634883 0.072486 -0.073088
v 0.629004 0.079904 -0.069071
v 0.628350 0.081809 -0.065207
v 0.622854 0.081893 -0.065201
v 0.634583 0.084848 -0.063254
v 0.628433 0.086837 -0.059384
v 0.632971 0.092797 -0.048977
v 0.626738 0.089759 -0.050930
v 0.632318 0.094758 -0.044861
v 0.634014 0.091836 -0.053315
v 0.603963 0.034298 0.011256
v 0.610798 0.042896 -0.030758
v 0.611522 0.054048 -0.039080
v 0.597146 0.050884 0.000400
v 0.609274 0.062166 -0.037608
v 0.609203 0.069496 -0.033597
v 0.608549 0.071401 -0.029733
v 0.608248 0.073112 0.015619
v 0.621899 0.085510 -0.015985
v 0.626437 0.091470 -0.005578
v 0.121238 0.018203 -0.043864
v 0.092110 0.021564 -0.047628
v 0.179527 0.012609 -0.020369
v 0.149192 0.034755 -0.020186
v 0.192220 0.013245 -0.018735
v 0.201427 0.012974 0.006747
v 0.149868 0.046006 -0.016007
v 0.091579 0.051600 -0.039501
v 0.210913 0.041897 -0.007346
v 0.153301 0.058742 -0.026661
v 0.152578 0.071323 -0.006260
v 0.091532 0.075432 -0.014921
v 0.206130 0.072210 -0.007020
v 0.144362 0.088900 0.004720
v 0.294791 0.018579 0.012276
v 0.288737 0.002391 0.015715
v 0.382370 0.023087 -0.003030
v 0.295060 0.033670 -0.011998
v 0.381347 0.051532 -0.023504
v 0.293769 0.047023 -0.008198
v 0.297201 0.059759 -0.018852
v 0.381490 0.075889 -0.004533
v 0.298635 0.070763 -0.003682
v 0.495585 0.032005 -0.001860
v 0.495317 0.016914 0.022414
v 0.491016 0.040472 -0.014188
v 0.489725 0.053825 -0.010388
v 0.487477 0.061944 -0.008916
v 0.502261 0.087057 0.020002
v 0.488911 0.072948 0.006254
v -0.145940 -0.025061 -0.046492
v -0.146811 -0.041315 -0.043496
v -0.205777 -0.013799 -0.020028
v -0.141596 0.001301 -0.041593
v -0.082629 -0.026216 -0.065061
v 0.092690 -0.034593 -0.044342
v 0.001634 -0.056635 -0.051131
v 0.004083 -0.030535 -0.063172
v 0.008427 -0.004173 -0.058272
v -0.194779 -0.055538 -0.003547
v -0.194110 -0.057751 0.010828
v -0.205979 -0.032266 -0.002658
v -0.190013 -0.067311 0.006129
v -0.178145 -0.092795 0.019614
v -0.184213 -0.067133 -0.005993
v -0.167579 -0.104390 0.017168
v -0.170192 -0.064722 -0.015247
v -0.147758 -0.101801 -0.004208
v -0.110355 -0.075984 -0.041712
v -0.092950 -0.074000 -0.034857
v -0.116332 -0.097407 -0.006608
v -0.078672 -0.072527 -0.023516
v -0.084648 -0.093949 0.011588
v 0.009936 -0.076585 -0.004686
v 0.086837 -0.076100 -0.015345
v 0.006532 -0.091992 0.012270
v -0.103159 -0.127683 0.009996
v -0.108959 -0.127860 0.022118
v -0.097975 -0.119317 0.005096
v -0.039354 -0.142787 0.010045
v -0.083954 -0.116906 -0.004159
v -0.066549 -0.114922 0.002695
v -0.061226 -0.105751 0.000254
v -0.028848 -0.125250 0.002703
v -0.046947 -0.104278 0.011596
v -0.041152 -0.097861 0.022889
v -0.017730 -0.109662 0.011555
v 0.006991 -0.107814 0.026212
v 0.001196 -0.114231 0.014919
v 0.023061 -0.118385 0.015167
v -0.001660 -0.120233 0.000510
v -0.006983 -0.129404 0.002951
v 0.016464 -0.132180 0.002174
v -0.010724 -0.137198 0.004367
v 0.010924 -0.147904 0.013561
v -0.012522 -0.145128 0.014338
v -0.017706 -0.153493 0.019239
v 0.073869 -0.112862 0.010910
v 0.071013 -0.118864 -0.003499
v 0.122619 -0.117898 -0.015316
v 0.071810 -0.123421 -0.011059
v 0.125037 -0.130864 -0.022543
v 0.073431 -0.131830 -0.010726
v 0.069690 -0.139623 -0.009311
v 0.126994 -0.142374 -0.014046
v 0.070026 -0.142724 -0.001146
v 0.068228 -0.150654 0.008825
v -0.145100 0.029695 -0.045006
v -0.205325 0.015688 -0.019852
v -0.145519 0.042928 -0.041835
v -0.081789 0.028541 -0.063575
v 0.003689 0.053316 -0.055333
v 0.093905 0.020602 -0.050030
v 0.004923 0.024222 -0.061685
v -0.195482 0.061620 -0.002302
v -0.205937 0.031870 -0.005540
v -0.195675 0.064571 0.008839
v -0.185107 0.074028 -0.000160
v -0.174845 0.106728 0.014219
v -0.153457 0.116692 0.008039
v -0.174095 0.071585 -0.008482
v -0.129621 0.111479 -0.002178
v -0.161270 0.068814 -0.010377
v -0.101045 0.082822 -0.035531
v -0.103735 0.104795 -0.003125
v -0.087984 0.078909 -0.034583
v -0.074963 0.097920 0.010542
v -0.072272 0.075947 -0.021863
v 0.016709 0.072328 -0.010208
v 0.015482 0.092490 0.014398
v 0.091443 0.069859 -0.019071
v -0.086720 0.133526 0.015515
v -0.097732 0.135969 0.023837
v -0.028586 0.147716 0.019363
v -0.084311 0.128439 0.003565
v -0.071487 0.125669 0.001670
v -0.058426 0.121756 0.002618
v -0.020914 0.131537 0.005546
v -0.053163 0.110663 0.000751
v -0.037451 0.107702 0.013471
v -0.010104 0.114660 0.015642
v -0.031904 0.101917 0.025433
v 0.002425 0.116489 0.021807
v 0.007972 0.110704 0.033769
v 0.022044 0.120590 0.023093
v 0.003968 0.124546 0.004966
v -0.001295 0.135638 0.006832
v 0.020963 0.136773 0.007724
v -0.003918 0.143764 0.008305
v 0.013447 0.150896 0.021235
v -0.008812 0.149761 0.020344
v -0.011220 0.154849 0.032293
v 0.072191 0.111009 0.025363
v 0.073733 0.119067 0.008521
v 0.123674 0.112888 0.003010
v 0.073527 0.122468 0.000740
v 0.123678 0.125904 -0.004510
v 0.073737 0.132083 0.001001
v 0.071115 0.140208 0.002473
v 0.123872 0.137995 0.003504
v 0.071098 0.142685 0.010227
v 0.066205 0.148683 0.022266
v -0.361597 -0.005069 -0.039439
v -0.361412 -0.009673 -0.033377
v -0.363843 0.002636 -0.029604
v -0.356398 -0.021174 -0.029256
v -0.358644 -0.013470 -0.019422
v -0.357325 -0.013408 -0.013234
v -0.362338 -0.001907 -0.017356
v -0.353632 -0.013778 -0.001686
v -0.357326 -0.002215 0.000380
v -0.351061 -0.025364 -0.002252
v -0.351063 -0.014172 0.011362
v -0.346873 -0.014483 0.020474
v -0.349443 -0.002897 0.021040
v -0.341464 -0.025005 0.029746
v -0.339844 -0.013730 0.039424
v -0.333031 -0.014041 0.047035
v -0.338440 -0.003520 0.037763
v -0.320470 -0.014398 0.055391
v -0.319066 -0.004188 0.053730
v -0.324876 -0.024605 0.053992
v -0.310912 -0.014751 0.060687
v -0.292551 -0.014934 0.057046
v -0.288145 -0.004728 0.058445
v -0.295513 -0.024575 0.054724
v -0.272746 -0.014552 0.052482
v -0.256262 -0.014712 0.046780
v -0.253300 -0.005071 0.049103
v -0.258782 -0.024324 0.047708
v -0.239336 -0.014843 0.044329
v -0.223287 -0.014954 0.039317
v -0.220767 -0.005342 0.038389
v -0.223190 -0.024633 0.034367
v -0.204622 -0.015132 0.028427
v -0.347455 -0.029118 -0.022540
v -0.350222 -0.025322 -0.036496
v -0.344885 -0.029512 -0.009492
v -0.336317 -0.037619 -0.001157
v -0.339924 -0.033865 0.019131
v -0.332895 -0.033112 0.038081
v -0.324415 -0.042208 0.036829
v -0.325955 -0.033347 0.047444
v -0.316396 -0.033700 0.052740
v -0.307411 -0.042072 0.045258
v -0.306333 -0.033329 0.051806
v -0.286528 -0.032947 0.047242
v -0.286559 -0.042796 0.041725
v -0.275739 -0.034042 0.044643
v -0.258813 -0.034173 0.042192
v -0.264956 -0.039263 0.037496
v -0.247999 -0.029545 0.040561
v -0.229333 -0.029723 0.029671
v -0.230092 -0.033573 0.017694
v -0.205284 -0.028662 0.011500
v -0.311370 -0.046150 0.022716
v -0.316332 -0.041797 -0.005908
v -0.304430 -0.046385 0.032078
v -0.287219 -0.051794 0.021298
v -0.300263 -0.047852 0.035411
v -0.290200 -0.047481 0.034477
v -0.279411 -0.048576 0.031878
v -0.278522 -0.050715 0.018072
v -0.274881 -0.046030 0.025320
v -0.264067 -0.041402 0.023689
v -0.256267 -0.040677 0.004083
v -0.246342 -0.033910 0.016258
v -0.275724 -0.051975 0.023785
v -0.271193 -0.049429 0.017227
v -0.264435 -0.048843 0.019426
v -0.267233 -0.047582 0.013713
v -0.258872 -0.044105 0.012115
v -0.265631 -0.044692 0.009916
v -0.258183 -0.039438 0.005555
v -0.266544 -0.042915 0.007153
v -0.257563 -0.039694 0.005422
v -0.265011 -0.044948 0.009783
v -0.247286 -0.037456 0.002352
v -0.222292 -0.032849 -0.001913
v -0.359599 0.014722 -0.030591
v -0.360539 0.014894 -0.036398
v -0.363217 -0.001298 -0.030087
v -0.357591 0.010443 -0.019148
v -0.354913 0.026635 -0.025459
v -0.361647 -0.001658 -0.017724
v -0.356961 0.010255 -0.012592
v -0.353269 0.009885 -0.001044
v -0.350700 0.009492 0.012004
v -0.350335 0.021962 -0.000968
v -0.346509 0.009180 0.021116
v -0.339523 0.007186 0.039992
v -0.340780 0.019574 0.030956
v -0.332710 0.006875 0.047603
v -0.320149 0.006518 0.055958
v -0.310589 0.006290 0.061258
v -0.324232 0.017352 0.055131
v -0.292228 0.006107 0.057617
v -0.272441 0.005365 0.053022
v -0.294884 0.016383 0.055835
v -0.255956 0.005205 0.047321
v -0.239032 0.004949 0.044866
v -0.258172 0.015386 0.048786
v -0.222984 0.004867 0.038792
v -0.220768 -0.005314 0.037327
v -0.205010 0.004372 0.028456
v -0.223274 0.014635 0.035996
v -0.345125 0.032999 -0.019106
v -0.347133 0.037278 -0.030549
v -0.342556 0.032606 -0.006058
v -0.338960 0.028945 0.020836
v -0.333750 0.039982 0.002698
v -0.331974 0.026951 0.039711
v -0.325037 0.026466 0.049067
v -0.323217 0.035837 0.038947
v -0.315476 0.026238 0.054366
v -0.305428 0.025610 0.053406
v -0.306233 0.034724 0.047342
v -0.285641 0.024869 0.048811
v -0.274821 0.025834 0.046268
v -0.285365 0.035061 0.043839
v -0.257896 0.025578 0.043814
v -0.247187 0.023338 0.041996
v -0.263835 0.033787 0.039478
v -0.229213 0.022843 0.031660
v -0.205777 0.020102 0.020386
v -0.229690 0.028806 0.026386
v -0.320215 0.042043 0.011243
v -0.323810 0.045703 -0.015650
v -0.313278 0.041557 0.020600
v -0.301624 0.043304 0.027950
v -0.298621 0.049509 0.000247
v -0.291576 0.042676 0.026990
v -0.280756 0.043641 0.024447
v -0.273578 0.038883 0.027625
v -0.279789 0.046497 0.010776
v -0.262869 0.036643 0.025808
v -0.252300 0.037754 0.020332
v -0.262043 0.042850 0.008479
v -0.274890 0.048066 0.012378
v -0.282068 0.052825 0.009200
v -0.269472 0.046896 0.013280
v -0.271751 0.053224 0.011703
v -0.265756 0.044853 0.012785
v -0.262616 0.050010 0.012110
v -0.257167 0.046981 0.010087
v -0.264023 0.043868 0.011257
v -0.253454 0.044979 0.005781
v -0.228863 0.035013 0.009057
v -0.345981 -0.004872 -0.044005
v -0.348412 0.007437 -0.040232
v -0.333432 -0.001402 -0.043106
v -0.346617 -0.013908 -0.042312
v -0.315696 0.006726 -0.048646
v -0.316332 -0.002310 -0.046953
v -0.300475 -0.002670 -0.051847
v -0.318211 -0.010798 -0.046308
v -0.294975 0.005626 -0.052063
v -0.296854 -0.002863 -0.051418
v -0.289170 0.000944 -0.048632
v -0.294670 -0.007352 -0.048416
v -0.301878 -0.017182 -0.045991
v -0.317735 -0.016822 -0.041098
v -0.315803 -0.025414 -0.038770
v -0.332136 -0.019030 -0.039086
v -0.344685 -0.022500 -0.039985
v -0.335741 -0.030444 -0.033270
v -0.289182 -0.008017 -0.047750
v -0.296865 -0.011823 -0.050536
v -0.279874 -0.003862 -0.049518
v -0.282069 -0.008333 -0.051638
v -0.280312 0.004986 -0.059839
v -0.278128 0.000497 -0.056837
v -0.271016 0.000181 -0.060725
v -0.266734 -0.001694 -0.060841
v -0.268479 -0.006053 -0.053522
v -0.268521 0.004554 -0.068981
v -0.265985 -0.001680 -0.061778
v -0.266773 0.004551 -0.069857
v -0.264985 -0.001697 -0.061717
v -0.264649 0.004427 -0.068799
v -0.263861 -0.001804 -0.060720
v -0.261274 0.004185 -0.064059
v -0.261610 -0.001940 -0.056976
v -0.254412 0.003380 -0.061336
v -0.256999 -0.002608 -0.057997
v -0.249115 -0.006032 -0.056033
v -0.256314 -0.011353 -0.051674
v -0.247926 0.002678 -0.062171
v -0.247241 -0.006066 -0.055848
v -0.243866 0.002623 -0.062425
v -0.245055 -0.006088 -0.056287
v -0.238872 0.002323 -0.061124
v -0.242246 -0.006365 -0.054547
v -0.229391 -0.007411 -0.053209
v -0.235575 -0.015822 -0.048372
v -0.229819 0.001756 -0.059146
v -0.223148 -0.007701 -0.052971
v -0.222577 0.001451 -0.058909
v -0.222149 -0.007716 -0.052972
v -0.220827 0.001396 -0.057849
v -0.221398 -0.007756 -0.051911
v -0.218891 0.001134 -0.053921
v -0.220212 -0.007978 -0.049043
v -0.211353 0.001786 -0.024663
v -0.204924 -0.007449 -0.014982
v -0.211242 -0.007262 -0.025221
v -0.213382 -0.016301 -0.027153
v -0.219811 -0.007065 -0.036833
v -0.217688 0.001443 -0.042977
v -0.219827 -0.007596 -0.044909
v -0.222335 -0.016486 -0.042899
v -0.299935 -0.030185 -0.028537
v -0.314336 -0.032393 -0.026525
v -0.294376 -0.030170 -0.029914
v -0.295844 -0.023191 -0.042159
v -0.281019 -0.031626 -0.020651
v -0.285110 -0.038620 -0.007029
v -0.281842 -0.042350 0.006491
v -0.295199 -0.040894 -0.002772
v -0.311067 -0.036123 -0.013006
v -0.291658 -0.047475 0.014356
v -0.310795 -0.038975 -0.009396
v -0.296390 -0.017847 -0.045326
v -0.290831 -0.017832 -0.046703
v -0.281831 -0.017570 -0.047640
v -0.281285 -0.022914 -0.044473
v -0.272524 -0.013415 -0.049408
v -0.268242 -0.015290 -0.049524
v -0.257632 -0.016116 -0.048115
v -0.261677 -0.023477 -0.044001
v -0.249749 -0.019540 -0.046151
v -0.236894 -0.020586 -0.044813
v -0.225647 -0.020831 -0.039828
v -0.239821 -0.024549 -0.037607
v -0.225262 -0.020449 -0.035694
v -0.224821 -0.020220 -0.035188
v -0.228133 -0.024565 -0.032116
v -0.205026 -0.022272 -0.014510
v -0.213594 -0.022075 -0.026122
v -0.216465 -0.026191 -0.022545
v -0.205266 -0.030278 -0.007228
v -0.216493 -0.028423 -0.016294
v -0.219169 -0.032836 -0.001852
v -0.230367 -0.028748 -0.017169
v -0.230809 -0.028978 -0.017675
v -0.242055 -0.028733 -0.022660
v -0.235793 -0.033174 -0.003038
v -0.244805 -0.028745 -0.022971
v -0.248819 -0.035423 -0.000279
v -0.255082 -0.030982 -0.019901
v -0.265691 -0.030156 -0.021309
v -0.265424 -0.038869 0.002513
v -0.272019 -0.031364 -0.021588
v -0.264512 -0.040646 0.005276
v -0.257980 -0.042814 0.010087
v -0.265221 -0.042245 0.007045
v -0.259645 -0.045703 0.013884
v -0.266176 -0.043535 0.009073
v -0.266898 -0.046092 0.013878
v -0.264498 -0.048842 0.019426
v -0.270795 -0.047940 0.017392
v -0.272474 -0.042633 0.007039
v -0.278124 -0.049226 0.018237
v -0.282290 -0.047759 0.014905
v -0.282563 -0.044907 0.011296
v -0.344858 0.019274 -0.040850
v -0.360475 0.019077 -0.036284
v -0.344405 0.028325 -0.038418
v -0.332342 0.016685 -0.042366
v -0.315243 0.015777 -0.046213
v -0.316172 0.024386 -0.045104
v -0.299525 0.014427 -0.051384
v -0.295904 0.014234 -0.050954
v -0.293216 0.018230 -0.047722
v -0.288666 0.009429 -0.048402
v -0.299238 0.028679 -0.044748
v -0.314955 0.030029 -0.039577
v -0.312348 0.037036 -0.039014
v -0.329282 0.032743 -0.039369
v -0.341798 0.035332 -0.037854
v -0.332010 0.041696 -0.031500
v -0.287655 0.018251 -0.047038
v -0.294893 0.023056 -0.049590
v -0.280540 0.017998 -0.050924
v -0.278863 0.013172 -0.049057
v -0.277624 0.008981 -0.056545
v -0.280312 0.004985 -0.059776
v -0.270509 0.008727 -0.060431
v -0.266054 0.010034 -0.060460
v -0.267293 0.014225 -0.052972
v -0.265305 0.010050 -0.061460
v -0.268521 0.004552 -0.068919
v -0.264306 0.010033 -0.061399
v -0.263181 0.009926 -0.060402
v -0.260931 0.009790 -0.056658
v -0.256319 0.009122 -0.057679
v -0.248095 0.011563 -0.055556
v -0.254614 0.017973 -0.050879
v -0.246221 0.011530 -0.055371
v -0.244036 0.011508 -0.055810
v -0.241227 0.011230 -0.054070
v -0.233094 0.019669 -0.047222
v -0.227929 0.010485 -0.052536
v -0.221686 0.010195 -0.052298
v -0.220687 0.010180 -0.052299
v -0.219937 0.010139 -0.051239
v -0.218750 0.009918 -0.048371
v -0.205083 0.010734 -0.014801
v -0.211354 0.001813 -0.025662
v -0.211402 0.010936 -0.025539
v -0.212835 0.019352 -0.026248
v -0.219106 0.010430 -0.037109
v -0.217688 0.001464 -0.043727
v -0.219122 0.009880 -0.044435
v -0.220168 0.018885 -0.041753
v -0.296252 0.038968 -0.029473
v -0.310580 0.041682 -0.029265
v -0.290703 0.038420 -0.030866
v -0.292471 0.033775 -0.040615
v -0.281423 0.043215 -0.010121
v -0.277641 0.038022 -0.021262
v -0.277438 0.045571 0.002126
v -0.290500 0.045969 -0.007478
v -0.306595 0.044038 -0.017018
v -0.286741 0.049791 0.006183
v -0.306821 0.045503 -0.015604
v -0.312156 0.047449 -0.008299
v -0.293676 0.028700 -0.044064
v -0.288126 0.028153 -0.045457
v -0.278063 0.032453 -0.043784
v -0.279269 0.027378 -0.047233
v -0.270477 0.022298 -0.049251
v -0.266022 0.023605 -0.049281
v -0.258535 0.030704 -0.043344
v -0.255351 0.022631 -0.047065
v -0.247128 0.025072 -0.044942
v -0.233831 0.024327 -0.043408
v -0.235632 0.028578 -0.035543
v -0.221597 0.023175 -0.037824
v -0.221969 0.023136 -0.033888
v -0.223402 0.027176 -0.029965
v -0.221973 0.022887 -0.033894
v -0.205702 0.023560 -0.017264
v -0.213406 0.023055 -0.028834
v -0.214839 0.027095 -0.024911
v -0.205964 0.029845 -0.002283
v -0.214531 0.029676 -0.007344
v -0.217005 0.034043 0.012773
v -0.225880 0.031293 -0.009855
v -0.225876 0.031543 -0.009848
v -0.238109 0.032695 -0.015433
v -0.233574 0.037536 0.008566
v -0.243330 0.034571 -0.017128
v -0.245134 0.041687 0.004937
v -0.249669 0.036846 -0.019062
v -0.260339 0.037819 -0.021279
v -0.259918 0.043389 0.001243
v -0.268784 0.037247 -0.023038
v -0.261898 0.044406 0.004022
v -0.263631 0.045391 0.005549
v -0.264278 0.047808 0.008990
v -0.267994 0.049851 0.009485
v -0.269009 0.045232 0.002924
v -0.273412 0.051021 0.008583
v -0.278311 0.049452 0.006981
v -0.278085 0.047987 0.005567
v -0.157417 -0.014792 0.058276
v -0.157727 -0.002533 0.060421
v -0.204370 -0.015217 0.031424
v -0.158615 -0.039846 0.056409
v -0.111973 -0.027162 0.085406
v -0.013601 -0.028123 0.076694
v -0.012403 -0.003068 0.078560
v -0.014391 -0.054485 0.065230
v 0.085178 -0.030391 0.058385
v -0.160178 -0.043334 0.047629
v -0.205622 -0.030963 0.020499
v -0.148040 -0.066629 0.047114
v -0.195047 -0.057746 0.011203
v -0.178144 -0.092817 0.020427
v -0.143275 -0.078404 0.056852
v -0.155992 -0.104310 0.044534
v -0.125888 -0.078123 0.071221
v -0.124132 -0.101499 0.061087
v -0.111415 -0.075592 0.073405
v -0.095081 -0.096890 0.054444
v -0.096836 -0.073514 0.064579
v -0.074998 -0.093666 0.034835
v -0.091332 -0.072369 0.053796
v 0.007447 -0.074637 0.035487
v 0.006970 -0.092026 0.013269
v 0.083911 -0.074143 0.024703
v -0.108896 -0.127849 0.021681
v -0.091509 -0.127568 0.036049
v -0.039405 -0.143298 0.028903
v -0.086500 -0.119759 0.051756
v -0.072028 -0.117229 0.053940
v -0.029258 -0.126398 0.045228
v -0.066890 -0.108138 0.054559
v -0.052311 -0.106059 0.045732
v -0.046807 -0.104914 0.034949
v -0.018529 -0.110304 0.033347
v -0.041215 -0.097911 0.022450
v -0.000315 -0.116396 0.035670
v 0.005277 -0.109393 0.023171
v 0.020676 -0.120627 0.036916
v -0.003130 -0.121537 0.047093
v -0.008268 -0.130629 0.046474
v 0.014428 -0.133459 0.045820
v -0.011700 -0.138320 0.043955
v 0.009123 -0.148488 0.031480
v -0.013574 -0.145657 0.032134
v -0.018583 -0.153466 0.016428
v 0.069841 -0.119555 0.020292
v 0.072657 -0.114413 0.008869
v 0.122430 -0.119073 0.000463
v 0.070449 -0.125287 0.028510
v 0.124354 -0.132683 0.008028
v 0.071765 -0.133164 0.027857
v 0.068333 -0.140855 0.025338
v 0.066459 -0.148192 0.013517
v 0.126500 -0.143017 0.000747
v 0.067289 -0.150650 0.006889
v -0.157712 0.010941 0.056725
v -0.204664 0.010515 0.029873
v -0.110364 0.024772 0.086815
v -0.157301 0.037821 0.056267
v -0.011992 0.023812 0.078103
v 0.085999 0.022812 0.064140
v -0.011961 0.050652 0.072395
v -0.158041 0.043236 0.045979
v -0.205389 0.029405 0.015889
v -0.145337 0.072942 0.049589
v -0.193426 0.064526 0.009211
v -0.135212 0.085348 0.051919
v -0.170597 0.106638 0.015151
v -0.121662 0.079394 0.072495
v -0.146921 0.113089 0.038057
v -0.106986 0.074501 0.078665
v -0.118696 0.102243 0.064803
v -0.093706 0.073223 0.072185
v -0.090740 0.096073 0.064493
v -0.084289 0.073289 0.055247
v -0.068043 0.094860 0.041074
v 0.013702 0.072289 0.041284
v 0.088123 0.069830 0.032233
v 0.015795 0.092467 0.015085
v -0.082433 0.129985 0.044536
v -0.095983 0.135939 0.023960
v -0.078693 0.120295 0.058644
v -0.027754 0.143145 0.044547
v -0.064017 0.115403 0.064813
v -0.060379 0.108223 0.064803
v -0.020376 0.126275 0.058644
v -0.047099 0.106945 0.058324
v -0.037682 0.107010 0.041385
v -0.036110 0.100606 0.025463
v -0.015165 0.112691 0.042712
v 0.002208 0.109700 0.032559
v 0.000636 0.116105 0.048481
v 0.020806 0.119596 0.048875
v 0.003433 0.122587 0.059029
v -0.000205 0.129767 0.059039
v 0.021418 0.134490 0.057028
v -0.002391 0.138178 0.056644
v 0.013021 0.150114 0.043335
v -0.008602 0.145392 0.045345
v -0.012342 0.155082 0.031238
v 0.071007 0.111236 0.024558
v 0.073803 0.117719 0.035106
v 0.123859 0.115702 0.018959
v 0.073659 0.124062 0.043276
v 0.123405 0.126325 0.026184
v 0.073349 0.128342 0.042330
v 0.071163 0.136753 0.039935
v 0.064952 0.143967 0.028637
v 0.123475 0.135539 0.018248
v 0.065333 0.148900 0.021647
v 0.181728 0.110128 -0.001789
v 0.220396 0.110923 -0.016101
v 0.182068 0.112113 -0.003735
v 0.140041 0.108882 0.000891
v 0.178709 0.109677 -0.013422
v 0.135336 0.108488 -0.011864
v 0.177363 0.111718 -0.016490
v 0.225721 0.112192 -0.019820
v 0.229876 0.114656 -0.025442
v 0.224891 0.115372 -0.023670
v 0.181518 0.114182 -0.022112
v 0.229210 0.120522 -0.031656
v 0.230129 0.119233 -0.030754
v 0.230292 0.121920 -0.033119
v 0.226292 0.121704 -0.032122
v 0.226455 0.124390 -0.034487
v 0.178763 0.118051 -0.024943
v 0.177473 0.119715 -0.027958
v 0.222247 0.127237 -0.037968
v 0.158238 0.124105 -0.026827
v 0.201721 0.133290 -0.039853
v 0.131930 0.114850 -0.016376
v 0.156178 0.128425 -0.028270
v 0.182895 0.140204 -0.042152
v 0.184553 0.138187 -0.040147
v 0.184963 0.140711 -0.043578
v 0.156588 0.130949 -0.031701
v 0.141143 0.129653 -0.025853
v 0.167860 0.141432 -0.039735
v 0.131291 0.108253 0.006004
v 0.134649 0.110688 0.015691
v 0.123693 0.109588 0.009482
v 0.129085 0.107782 -0.005318
v 0.127739 0.109823 -0.008386
v 0.121642 0.111750 -0.011454
v 0.127894 0.112456 -0.018001
v 0.125834 0.116777 -0.019444
v 0.121185 0.126886 -0.013980
v 0.125221 0.129280 -0.012355
v 0.218708 -0.109645 -0.012216
v 0.179368 -0.113353 -0.000731
v 0.180470 -0.114641 -0.002266
v 0.138338 -0.116409 -0.000788
v 0.177679 -0.112701 -0.012273
v 0.134510 -0.116683 -0.013853
v 0.176642 -0.114915 -0.015332
v 0.229587 -0.112589 -0.020426
v 0.224883 -0.110095 -0.015232
v 0.224515 -0.113426 -0.018946
v 0.181346 -0.117408 -0.020526
v 0.230384 -0.117338 -0.025492
v 0.229613 -0.118678 -0.026341
v 0.230777 -0.120097 -0.027692
v 0.226780 -0.120054 -0.027001
v 0.227173 -0.122813 -0.029201
v 0.178906 -0.121543 -0.023387
v 0.177875 -0.123382 -0.026435
v 0.223309 -0.126028 -0.032910
v 0.158867 -0.128527 -0.026438
v 0.203270 -0.133012 -0.035961
v 0.131517 -0.120082 -0.018193
v 0.156911 -0.129712 -0.027719
v 0.186439 -0.138657 -0.037229
v 0.185029 -0.140831 -0.039224
v 0.187206 -0.141330 -0.040489
v 0.157678 -0.132385 -0.030979
v 0.142056 -0.132963 -0.026173
v 0.170174 -0.144082 -0.037678
v 0.130408 -0.117141 0.014570
v 0.127617 -0.115202 0.004564
v 0.119685 -0.115218 0.007318
v 0.127614 -0.114485 -0.008040
v 0.126578 -0.116699 -0.011099
v 0.120175 -0.118352 -0.015639
v 0.127070 -0.120550 -0.021452
v 0.125114 -0.121735 -0.022733
v 0.122299 -0.130535 -0.016971
v 0.126745 -0.130067 -0.013712
v 0.181389 0.108364 -0.001086
v 0.181729 0.110349 -0.003032
v 0.143406 0.119892 0.010124
v 0.182412 0.122451 -0.004891
v 0.142706 0.135725 0.005118
v 0.181029 0.126182 -0.008038
v 0.185185 0.128646 -0.013661
v 0.182430 0.132514 -0.016491
v 0.181140 0.134179 -0.019507
v 0.161592 0.138569 -0.018251
v 0.201409 0.133292 -0.039728
v 0.139175 0.138141 -0.001313
v 0.159444 0.137254 -0.021534
v 0.184241 0.138188 -0.040022
v 0.182583 0.140205 -0.042028
v 0.160166 0.139777 -0.025090
v 0.144721 0.138481 -0.019242
v 0.134311 0.108925 0.016393
v 0.134994 0.121027 0.014534
v 0.124493 0.120050 0.024200
v 0.133588 0.131018 0.017931
v 0.132205 0.134749 0.014784
v 0.122602 0.135486 0.020684
v 0.131720 0.140193 0.007871
v 0.129572 0.138878 0.004587
v 0.121406 0.140159 0.003440
v 0.128861 0.138107 -0.005744
v 0.179575 -0.111962 -0.001443
v 0.178597 -0.110676 0.000092
v 0.218833 -0.109647 -0.012216
v 0.140877 -0.122664 0.009476
v 0.181112 -0.121635 -0.002832
v 0.141642 -0.137680 0.005069
v 0.180340 -0.126978 -0.005851
v 0.185045 -0.129471 -0.011045
v 0.182605 -0.133606 -0.013905
v 0.181574 -0.135445 -0.016954
v 0.162252 -0.140652 -0.016833
v 0.202956 -0.133074 -0.035838
v 0.138946 -0.141900 -0.001418
v 0.160329 -0.139528 -0.020301
v 0.184715 -0.140892 -0.039100
v 0.186126 -0.138718 -0.037105
v 0.161410 -0.142140 -0.023685
v 0.145788 -0.142718 -0.018879
v 0.131053 -0.123950 0.014072
v 0.129516 -0.114277 0.015460
v 0.121029 -0.122123 0.019190
v 0.132389 -0.130509 0.013206
v 0.131617 -0.135853 0.010187
v 0.123985 -0.136962 0.016223
v 0.133237 -0.144133 0.008086
v 0.131314 -0.143009 0.004619
v 0.124768 -0.141992 0.003088
v 0.130478 -0.139759 -0.006416
f 1 376 378
f 376 2 377
f 377 3 378
f 376 377 378
f 3 377 380
f 377 2 379
f 379 4 380
f 377 379 380
f 2 381 379
f 381 5 382
f 382 4 379
f 381 382 379
f 5 383 382
f 383 6 384
f 384 4 382
f 383 384 382
f 5 385 383
f 385 7 386
f 386 6 383
f 385 386 383
f 7 387 386
f 387 8 388
f 388 6 386
f 387 388 386
f 9 389 390
f 389 3 380
f 380 4 390
f 389 380 390
f 9 390 392
f 390 4 391
f 391 10 392
f 390 391 392
f 10 391 393
f 391 4 384
f 384 6 393
f 391 384 393
f 10 393 395
f 393 6 394
f 394 11 395
f 393 394 395
f 6 388 394
f 388 8 396
f 396 11 394
f 388 396 394
f 11 396 398
f 396 8 397
f 397 12 398
f 396 397 398
f 9 392 400
f 392 10 399
f 399 13 400
f 392 399 400
f 13 399 402
f 399 10 401
f 401 14 402
f 399 401 402
f 10 395 401
f 395 11 403
f 403 14 401
f 395 403 401
f 14 403 405
f 403 11 404
f 404 15 405
f 403 404 405
f 11 398 404
f 398 12 406
f 406 15 404
f 398 406 404
f 15 406 408
f 406 12 407
f 407 16 408
f 406 407 408
f 17 409 410
f 409 13 402
f 402 14 410
f 409 402 410
f 18 411 412
f 411 17 410
f 410 14 412
f 411 410 412
f 18 413 415
f 413 19 414
f 414 20 415
f 413 414 415
f 18 412 413
f 412 14 416
f 416 19 413
f 412 416 413
f 19 416 418
f 416 14 417
f 417 21 418
f 416 417 418
f 14 405 417
f 405 15 419
f 419 21 417
f 405 419 417
f 21 419 421
f 419 15 420
f 420 22 421
f 419 420 421
f 15 408 420
f 408 16 422
f 422 22 420
f 408 422 420
f 23 423 425
f 423 24 424
f 424 25 425
f 423 424 425
f 26 426 427
f 426 23 425
f 425 25 427
f 426 425 427
f 27 428 429
f 428 23 426
f 426 26 429
f 428 426 429
f 28 430 431
f 430 27 429
f 429 26 431
f 430 429 431
f 28 432 430
f 432 29 433
f 433 27 430
f 432 433 430
f 30 434 435
f 434 29 432
f 432 28 435
f 434 432 435
f 26 427 437
f 427 25 436
f 436 9 437
f 427 436 437
f 26 437 439
f 437 9 438
f 438 31 439
f 437 438 439
f 28 431 440
f 431 26 439
f 439 31 440
f 431 439 440
f 28 440 442
f 440 31 441
f 441 32 442
f 440 441 442
f 30 435 443
f 435 28 442
f 442 32 443
f 435 442 443
f 33 444 445
f 444 30 443
f 443 32 445
f 444 443 445
f 31 438 447
f 438 9 446
f 446 34 447
f 438 446 447
f 35 448 449
f 448 31 447
f 447 34 449
f 448 447 449
f 32 441 450
f 441 31 448
f 448 35 450
f 441 448 450
f 36 451 452
f 451 32 450
f 450 35 452
f 451 450 452
f 33 445 453
f 445 32 451
f 451 36 453
f 445 451 453
f 33 453 455
f 453 36 454
f 454 37 455
f 453 454 455
f 35 449 457
f 449 34 456
f 456 38 457
f 449 456 457
f 35 457 459
f 457 38 458
f 458 39 459
f 457 458 459
f 40 460 462
f 460 39 461
f 461 41 462
f 460 461 462
f 35 459 463
f 459 39 460
f 460 40 463
f 459 460 463
f 42 464 465
f 464 35 463
f 463 40 465
f 464 463 465
f 36 452 466
f 452 35 464
f 464 42 466
f 452 464 466
f 43 467 468
f 467 36 466
f 466 42 468
f 467 466 468
f 37 454 469
f 454 36 467
f 467 43 469
f 454 467 469
f 24 470 472
f 470 44 471
f 471 45 472
f 470 471 472
f 24 473 470
f 473 46 474
f 474 44 470
f 473 474 470
f 46 475 474
f 475 47 476
f 476 44 474
f 475 476 474
f 44 476 478
f 476 47 477
f 477 48 478
f 476 477 478
f 47 479 477
f 479 49 480
f 480 48 477
f 479 480 477
f 48 480 482
f 480 49 481
f 481 50 482
f 480 481 482
f 49 483 481
f 483 51 484
f 484 50 481
f 483 484 481
f 50 484 486
f 484 51 485
f 485 52 486
f 484 485 486
f 51 487 485
f 487 53 488
f 488 52 485
f 487 488 485
f 53 489 488
f 489 29 490
f 490 52 488
f 489 490 488
f 53 491 489
f 491 54 492
f 492 29 489
f 491 492 489
f 45 471 494
f 471 44 493
f 493 55 494
f 471 493 494
f 55 493 495
f 493 44 478
f 478 48 495
f 493 478 495
f 55 495 497
f 495 48 496
f 496 56 497
f 495 496 497
f 56 496 498
f 496 48 482
f 482 50 498
f 496 482 498
f 56 498 499
f 498 50 486
f 486 52 499
f 498 486 499
f 56 499 501
f 499 52 500
f 500 57 501
f 499 500 501
f 57 500 502
f 500 52 490
f 490 29 502
f 500 490 502
f 58 503 505
f 503 59 504
f 504 60 505
f 503 504 505
f 59 506 504
f 506 61 507
f 507 60 504
f 506 507 504
f 62 508 509
f 508 61 506
f 506 59 509
f 508 506 509
f 63 510 511
f 510 61 508
f 508 62 511
f 510 508 511
f 61 512 507
f 512 64 513
f 513 60 507
f 512 513 507
f 61 514 512
f 514 65 515
f 515 64 512
f 514 515 512
f 65 516 515
f 516 66 517
f 517 64 515
f 516 517 515
f 65 518 516
f 518 33 519
f 519 66 516
f 518 519 516
f 63 520 510
f 520 25 521
f 521 61 510
f 520 521 510
f 25 522 521
f 522 67 523
f 523 61 521
f 522 523 521
f 67 524 523
f 524 68 525
f 525 61 523
f 524 525 523
f 61 525 514
f 525 68 526
f 526 65 514
f 525 526 514
f 68 527 526
f 527 30 528
f 528 65 526
f 527 528 526
f 65 528 518
f 528 30 444
f 444 33 518
f 528 444 518
f 25 529 522
f 529 45 530
f 530 67 522
f 529 530 522
f 45 494 530
f 494 55 531
f 531 67 530
f 494 531 530
f 55 532 531
f 532 68 524
f 524 67 531
f 532 524 531
f 55 497 532
f 497 56 533
f 533 68 532
f 497 533 532
f 56 501 535
f 501 57 534
f 534 30 535
f 501 534 535
f 56 535 533
f 535 30 527
f 527 68 533
f 535 527 533
f 69 536 538
f 536 1 537
f 537 70 538
f 536 537 538
f 69 539 536
f 539 71 540
f 540 1 536
f 539 540 536
f 72 541 542
f 541 71 539
f 539 69 542
f 541 539 542
f 73 543 544
f 543 72 542
f 542 69 544
f 543 542 544
f 73 545 543
f 545 74 546
f 546 72 543
f 545 546 543
f 75 547 548
f 547 74 545
f 545 73 548
f 547 545 548
f 76 549 550
f 549 74 547
f 547 75 550
f 549 547 550
f 77 551 552
f 551 76 550
f 550 75 552
f 551 550 552
f 78 553 554
f 553 76 551
f 551 77 554
f 553 551 554
f 79 555 556
f 555 78 554
f 554 77 556
f 555 554 556
f 79 557 555
f 557 80 558
f 558 78 555
f 557 558 555
f 69 538 560
f 538 70 559
f 559 81 560
f 538 559 560
f 73 544 561
f 544 69 560
f 560 81 561
f 544 560 561
f 73 561 563
f 561 81 562
f 562 82 563
f 561 562 563
f 75 548 564
f 548 73 563
f 563 82 564
f 548 563 564
f 77 552 565
f 552 75 564
f 564 82 565
f 552 564 565
f 77 565 567
f 565 82 566
f 566 83 567
f 565 566 567
f 79 556 568
f 556 77 567
f 567 83 568
f 556 567 568
f 84 569 570
f 569 59 503
f 503 58 570
f 569 503 570
f 85 571 572
f 571 59 569
f 569 84 572
f 571 569 572
f 85 573 571
f 573 62 509
f 509 59 571
f 573 509 571
f 85 574 573
f 574 63 511
f 511 62 573
f 574 511 573
f 86 575 576
f 575 85 572
f 572 84 576
f 575 572 576
f 87 577 578
f 577 85 575
f 575 86 578
f 577 575 578
f 88 579 580
f 579 87 578
f 578 86 580
f 579 578 580
f 12 581 582
f 581 87 579
f 579 88 582
f 581 579 582
f 85 583 574
f 583 89 584
f 584 63 574
f 583 584 574
f 90 585 586
f 585 89 583
f 583 85 586
f 585 583 586
f 91 587 588
f 587 90 586
f 586 85 588
f 587 586 588
f 87 589 577
f 589 91 588
f 588 85 577
f 589 588 577
f 8 590 591
f 590 91 589
f 589 87 591
f 590 589 591
f 12 397 581
f 397 8 591
f 591 87 581
f 397 591 581
f 90 592 585
f 592 70 593
f 593 89 585
f 592 593 585
f 90 594 592
f 594 81 559
f 559 70 592
f 594 559 592
f 91 595 587
f 595 81 594
f 594 90 587
f 595 594 587
f 91 596 595
f 596 82 562
f 562 81 595
f 596 562 595
f 8 597 598
f 597 83 566
f 566 82 598
f 597 566 598
f 8 598 590
f 598 82 596
f 596 91 590
f 598 596 590
f 92 599 601
f 599 93 600
f 600 94 601
f 599 600 601
f 92 602 599
f 602 95 603
f 603 93 599
f 602 603 599
f 96 604 606
f 604 97 605
f 605 93 606
f 604 605 606
f 95 607 603
f 607 96 606
f 606 93 603
f 607 606 603
f 94 608 610
f 608 98 609
f 609 99 610
f 608 609 610
f 94 611 608
f 611 100 612
f 612 98 608
f 611 612 608
f 94 613 611
f 613 101 614
f 614 100 611
f 613 614 611
f 94 615 613
f 615 102 616
f 616 101 613
f 615 616 613
f 94 600 615
f 600 93 617
f 617 102 615
f 600 617 615
f 93 618 617
f 618 103 619
f 619 102 617
f 618 619 617
f 93 620 618
f 620 104 621
f 621 103 618
f 620 621 618
f 93 605 620
f 605 97 622
f 622 104 620
f 605 622 620
f 97 623 622
f 623 105 624
f 624 104 622
f 623 624 622
f 101 625 614
f 625 106 626
f 626 100 614
f 625 626 614
f 101 627 625
f 627 107 628
f 628 106 625
f 627 628 625
f 102 629 616
f 629 107 627
f 627 101 616
f 629 627 616
f 103 630 619
f 630 107 629
f 629 102 619
f 630 629 619
f 103 631 630
f 631 108 632
f 632 107 630
f 631 632 630
f 104 633 621
f 633 108 631
f 631 103 621
f 633 631 621
f 104 634 633
f 634 109 635
f 635 108 633
f 634 635 633
f 109 636 635
f 636 110 637
f 637 108 635
f 636 637 635
f 108 637 639
f 637 110 638
f 638 111 639
f 637 638 639
f 108 639 632
f 639 111 640
f 640 107 632
f 639 640 632
f 111 641 640
f 641 112 642
f 642 107 640
f 641 642 640
f 107 642 644
f 642 112 643
f 643 113 644
f 642 643 644
f 107 644 628
f 644 113 645
f 645 106 628
f 644 645 628
f 110 646 638
f 646 114 647
f 647 111 638
f 646 647 638
f 111 647 649
f 647 114 648
f 648 115 649
f 647 648 649
f 111 649 651
f 649 115 650
f 650 116 651
f 649 650 651
f 111 651 641
f 651 116 652
f 652 112 641
f 651 652 641
f 112 652 654
f 652 116 653
f 653 117 654
f 652 653 654
f 112 654 643
f 654 117 655
f 655 113 643
f 654 655 643
f 118 656 658
f 656 92 657
f 657 119 658
f 656 657 658
f 118 659 656
f 659 95 602
f 602 92 656
f 659 602 656
f 118 660 662
f 660 120 661
f 661 96 662
f 660 661 662
f 118 662 659
f 662 96 607
f 607 95 659
f 662 607 659
f 121 663 665
f 663 119 664
f 664 122 665
f 663 664 665
f 123 666 667
f 666 119 663
f 663 121 667
f 666 663 667
f 123 668 666
f 668 124 669
f 669 119 666
f 668 669 666
f 124 670 669
f 670 125 671
f 671 119 669
f 670 671 669
f 125 672 671
f 672 118 658
f 658 119 671
f 672 658 671
f 125 673 672
f 673 126 674
f 674 118 672
f 673 674 672
f 126 675 674
f 675 127 676
f 676 118 674
f 675 676 674
f 127 677 676
f 677 120 660
f 660 118 676
f 677 660 676
f 127 678 677
f 678 128 679
f 679 120 677
f 678 679 677
f 129 680 681
f 680 124 668
f 668 123 681
f 680 668 681
f 129 682 680
f 682 130 683
f 683 124 680
f 682 683 680
f 130 684 683
f 684 125 670
f 670 124 683
f 684 670 683
f 130 685 684
f 685 126 673
f 673 125 684
f 685 673 684
f 130 686 685
f 686 131 687
f 687 126 685
f 686 687 685
f 131 688 687
f 688 127 675
f 675 126 687
f 688 675 687
f 131 689 688
f 689 132 690
f 690 127 688
f 689 690 688
f 131 691 689
f 691 133 692
f 692 132 689
f 691 692 689
f 134 693 694
f 693 133 691
f 691 131 694
f 693 691 694
f 130 695 686
f 695 134 694
f 694 131 686
f 695 694 686
f 135 696 697
f 696 134 695
f 695 130 697
f 696 695 697
f 136 698 699
f 698 135 697
f 697 130 699
f 698 697 699
f 136 699 700
f 699 130 682
f 682 129 700
f 699 682 700
f 137 701 702
f 701 133 693
f 693 134 702
f 701 693 702
f 138 703 704
f 703 137 702
f 702 134 704
f 703 702 704
f 139 705 706
f 705 138 704
f 704 134 706
f 705 704 706
f 139 706 707
f 706 134 696
f 696 135 707
f 706 696 707
f 140 708 709
f 708 139 707
f 707 135 709
f 708 707 709
f 140 709 710
f 709 135 698
f 698 136 710
f 709 698 710
f 141 711 713
f 711 142 712
f 712 143 713
f 711 712 713
f 142 714 712
f 714 144 715
f 715 143 712
f 714 715 712
f 144 716 715
f 716 145 717
f 717 143 715
f 716 717 715
f 144 718 716
f 718 146 719
f 719 145 716
f 718 719 716
f 144 720 718
f 720 147 721
f 721 146 718
f 720 721 718
f 147 722 721
f 722 148 723
f 723 146 721
f 722 723 721
f 147 724 722
f 724 149 725
f 725 148 722
f 724 725 722
f 149 726 725
f 726 150 727
f 727 148 725
f 726 727 725
f 149 728 726
f 728 151 729
f 729 150 726
f 728 729 726
f 149 730 728
f 730 152 731
f 731 151 728
f 730 731 728
f 152 732 731
f 732 153 733
f 733 151 731
f 732 733 731
f 152 734 732
f 734 154 735
f 735 153 732
f 734 735 732
f 154 736 735
f 736 155 737
f 737 153 735
f 736 737 735
f 154 738 736
f 738 156 739
f 739 155 736
f 738 739 736
f 155 739 741
f 739 156 740
f 740 157 741
f 739 740 741
f 156 742 740
f 742 158 743
f 743 157 740
f 742 743 740
f 159 744 745
f 744 144 714
f 714 142 745
f 744 714 745
f 159 746 744
f 746 147 720
f 720 144 744
f 746 720 744
f 159 747 746
f 747 160 748
f 748 147 746
f 747 748 746
f 160 749 748
f 749 149 724
f 724 147 748
f 749 724 748
f 160 750 749
f 750 161 751
f 751 149 749
f 750 751 749
f 149 751 730
f 751 161 752
f 752 152 730
f 751 752 730
f 161 753 752
f 753 162 754
f 754 152 752
f 753 754 752
f 162 755 754
f 755 154 734
f 734 152 754
f 755 734 754
f 162 756 755
f 756 163 757
f 757 154 755
f 756 757 755
f 154 757 738
f 757 163 758
f 758 156 738
f 757 758 738
f 163 759 758
f 759 164 760
f 760 156 758
f 759 760 758
f 164 761 760
f 761 158 742
f 742 156 760
f 761 742 760
f 164 762 761
f 762 165 763
f 763 158 761
f 762 763 761
f 166 764 765
f 764 160 747
f 747 159 765
f 764 747 765
f 166 766 764
f 766 161 750
f 750 160 764
f 766 750 764
f 166 767 766
f 767 167 768
f 768 161 766
f 767 768 766
f 167 769 768
f 769 162 753
f 753 161 768
f 769 753 768
f 162 769 756
f 769 167 770
f 770 163 756
f 769 770 756
f 167 771 770
f 771 168 772
f 772 163 770
f 771 772 770
f 163 772 759
f 772 168 773
f 773 164 759
f 772 773 759
f 168 774 773
f 774 169 775
f 775 164 773
f 774 775 773
f 167 776 771
f 776 170 777
f 777 168 771
f 776 777 771
f 170 778 777
f 778 171 779
f 779 168 777
f 778 779 777
f 171 780 779
f 780 172 781
f 781 168 779
f 780 781 779
f 172 782 781
f 782 173 783
f 783 168 781
f 782 783 781
f 168 783 785
f 783 173 784
f 784 174 785
f 783 784 785
f 168 785 774
f 785 174 786
f 786 169 774
f 785 786 774
f 169 787 775
f 787 165 762
f 762 164 775
f 787 762 775
f 175 788 790
f 788 176 789
f 789 177 790
f 788 789 790
f 175 791 788
f 791 178 792
f 792 176 788
f 791 792 788
f 175 793 791
f 793 145 794
f 794 178 791
f 793 794 791
f 145 719 794
f 719 146 795
f 795 178 794
f 719 795 794
f 146 796 795
f 796 179 797
f 797 178 795
f 796 797 795
f 146 723 796
f 723 148 798
f 798 179 796
f 723 798 796
f 148 799 798
f 799 180 800
f 800 179 798
f 799 800 798
f 148 727 799
f 727 150 801
f 801 180 799
f 727 801 799
f 150 729 801
f 729 151 802
f 802 180 801
f 729 802 801
f 151 803 802
f 803 181 804
f 804 180 802
f 803 804 802
f 151 733 803
f 733 153 805
f 805 181 803
f 733 805 803
f 153 806 805
f 806 182 807
f 807 181 805
f 806 807 805
f 153 737 806
f 737 155 808
f 808 182 806
f 737 808 806
f 155 809 808
f 809 183 810
f 810 182 808
f 809 810 808
f 184 811 812
f 811 183 809
f 809 155 812
f 811 809 812
f 184 813 811
f 813 185 814
f 814 183 811
f 813 814 811
f 176 792 816
f 792 178 815
f 815 186 816
f 792 815 816
f 178 797 815
f 797 179 817
f 817 186 815
f 797 817 815
f 179 818 817
f 818 187 819
f 819 186 817
f 818 819 817
f 179 800 818
f 800 180 820
f 820 187 818
f 800 820 818
f 180 821 820
f 821 188 822
f 822 187 820
f 821 822 820
f 181 823 804
f 823 188 821
f 821 180 804
f 823 821 804
f 181 824 823
f 824 189 825
f 825 188 823
f 824 825 823
f 181 807 824
f 807 182 826
f 826 189 824
f 807 826 824
f 182 827 826
f 827 190 828
f 828 189 826
f 827 828 826
f 183 829 810
f 829 190 827
f 827 182 810
f 829 827 810
f 183 830 829
f 830 191 831
f 831 190 829
f 830 831 829
f 183 814 830
f 814 185 832
f 832 191 830
f 814 832 830
f 185 833 832
f 833 192 834
f 834 191 832
f 833 834 832
f 186 819 836
f 819 187 835
f 835 193 836
f 819 835 836
f 187 822 835
f 822 188 837
f 837 193 835
f 822 837 835
f 188 838 837
f 838 194 839
f 839 193 837
f 838 839 837
f 188 825 838
f 825 189 840
f 840 194 838
f 825 840 838
f 190 841 828
f 841 194 840
f 840 189 828
f 841 840 828
f 190 842 841
f 842 195 843
f 843 194 841
f 842 843 841
f 191 844 831
f 844 195 842
f 842 190 831
f 844 842 831
f 191 845 844
f 845 196 846
f 846 195 844
f 845 846 844
f 195 847 843
f 847 197 848
f 848 194 843
f 847 848 843
f 195 849 847
f 849 198 850
f 850 197 847
f 849 850 847
f 195 851 849
f 851 199 852
f 852 198 849
f 851 852 849
f 200 853 854
f 853 199 851
f 851 195 854
f 853 851 854
f 196 855 846
f 855 200 854
f 854 195 846
f 855 854 846
f 191 834 845
f 834 192 856
f 856 196 845
f 834 856 845
f 201 857 858
f 857 142 711
f 711 141 858
f 857 711 858
f 201 859 857
f 859 202 860
f 860 142 857
f 859 860 857
f 201 861 859
f 861 203 862
f 862 202 859
f 861 862 859
f 203 863 862
f 863 204 864
f 864 202 862
f 863 864 862
f 203 865 863
f 865 205 866
f 866 204 863
f 865 866 863
f 205 867 866
f 867 206 868
f 868 204 866
f 867 868 866
f 204 869 864
f 869 207 870
f 870 202 864
f 869 870 864
f 202 870 872
f 870 207 871
f 871 208 872
f 870 871 872
f 202 872 860
f 872 208 873
f 873 142 860
f 872 873 860
f 142 873 745
f 873 208 874
f 874 159 745
f 873 874 745
f 206 875 868
f 875 209 876
f 876 204 868
f 875 876 868
f 206 877 875
f 877 210 878
f 878 209 875
f 877 878 875
f 205 879 867
f 879 211 880
f 880 206 867
f 879 880 867
f 211 881 880
f 881 210 877
f 877 206 880
f 881 877 880
f 211 882 881
f 882 212 883
f 883 210 881
f 882 883 881
f 211 884 882
f 884 213 885
f 885 212 882
f 884 885 882
f 213 886 885
f 886 214 887
f 887 212 885
f 886 887 885
f 214 888 887
f 888 215 889
f 889 212 887
f 888 889 887
f 215 890 889
f 890 216 891
f 891 212 889
f 890 891 889
f 216 892 891
f 892 217 893
f 893 212 891
f 892 893 891
f 217 894 893
f 894 218 895
f 895 212 893
f 894 895 893
f 217 896 894
f 896 219 897
f 897 218 894
f 896 897 894
f 219 898 897
f 898 220 899
f 899 218 897
f 898 899 897
f 220 900 899
f 900 221 901
f 901 218 899
f 900 901 899
f 221 902 901
f 902 222 903
f 903 218 901
f 902 903 901
f 221 904 902
f 904 223 905
f 905 222 902
f 904 905 902
f 223 906 905
f 906 224 907
f 907 222 905
f 906 907 905
f 224 908 907
f 908 225 909
f 909 222 907
f 908 909 907
f 225 910 909
f 910 226 911
f 911 222 909
f 910 911 909
f 227 912 914
f 912 228 913
f 913 229 914
f 912 913 914
f 227 914 916
f 914 229 915
f 915 230 916
f 914 915 916
f 226 917 918
f 917 227 916
f 916 230 918
f 917 916 918
f 226 918 911
f 918 230 919
f 919 222 911
f 918 919 911
f 207 920 871
f 920 231 921
f 921 208 871
f 920 921 871
f 232 922 923
f 922 231 920
f 920 207 923
f 922 920 923
f 232 924 922
f 924 233 925
f 925 231 922
f 924 925 922
f 231 925 927
f 925 233 926
f 926 234 927
f 925 926 927
f 208 921 928
f 921 231 927
f 927 234 928
f 921 927 928
f 208 928 930
f 928 234 929
f 929 166 930
f 928 929 930
f 208 930 874
f 930 166 765
f 765 159 874
f 930 765 874
f 204 876 869
f 876 209 931
f 931 207 869
f 876 931 869
f 209 932 931
f 932 232 923
f 923 207 931
f 932 923 931
f 209 933 932
f 933 235 934
f 934 232 932
f 933 934 932
f 210 935 878
f 935 235 933
f 933 209 878
f 935 933 878
f 210 883 935
f 883 212 936
f 936 235 935
f 883 936 935
f 212 937 936
f 937 236 938
f 938 235 936
f 937 938 936
f 212 895 937
f 895 218 939
f 939 236 937
f 895 939 937
f 218 903 939
f 903 222 940
f 940 236 939
f 903 940 939
f 222 941 940
f 941 237 942
f 942 236 940
f 941 942 940
f 230 943 919
f 943 237 941
f 941 222 919
f 943 941 919
f 230 944 943
f 944 238 945
f 945 237 943
f 944 945 943
f 229 946 915
f 946 239 947
f 947 230 915
f 946 947 915
f 230 947 944
f 947 239 948
f 948 238 944
f 947 948 944
f 238 948 950
f 948 239 949
f 949 240 950
f 948 949 950
f 238 950 952
f 950 240 951
f 951 241 952
f 950 951 952
f 238 952 945
f 952 241 953
f 953 237 945
f 952 953 945
f 237 953 942
f 953 241 954
f 954 236 942
f 953 954 942
f 236 954 956
f 954 241 955
f 955 169 956
f 954 955 956
f 236 956 958
f 956 169 957
f 957 173 958
f 956 957 958
f 236 958 938
f 958 173 959
f 959 235 938
f 958 959 938
f 235 959 961
f 959 173 960
f 960 233 961
f 959 960 961
f 235 961 934
f 961 233 924
f 924 232 934
f 961 924 934
f 173 782 960
f 782 172 962
f 962 233 960
f 782 962 960
f 172 963 962
f 963 242 964
f 964 233 962
f 963 964 962
f 233 964 966
f 964 242 965
f 965 243 966
f 964 965 966
f 244 967 969
f 967 243 968
f 968 170 969
f 967 968 969
f 233 966 970
f 966 243 967
f 967 244 970
f 966 967 970
f 244 969 971
f 969 170 776
f 776 167 971
f 969 776 971
f 244 971 972
f 971 167 767
f 767 166 972
f 971 767 972
f 244 972 973
f 972 166 929
f 929 234 973
f 972 929 973
f 233 970 926
f 970 244 973
f 973 234 926
f 970 973 926
f 176 974 975
f 974 201 858
f 858 141 975
f 974 858 975
f 176 976 974
f 976 245 977
f 977 201 974
f 976 977 974
f 245 978 977
f 978 203 861
f 861 201 977
f 978 861 977
f 245 979 978
f 979 246 980
f 980 203 978
f 979 980 978
f 246 981 980
f 981 205 865
f 865 203 980
f 981 865 980
f 246 982 981
f 982 247 983
f 983 205 981
f 982 983 981
f 248 984 985
f 984 246 979
f 979 245 985
f 984 979 985
f 249 986 987
f 986 248 985
f 985 245 987
f 986 985 987
f 249 987 988
f 987 245 976
f 976 176 988
f 987 976 988
f 186 989 816
f 989 249 988
f 988 176 816
f 989 988 816
f 250 990 991
f 990 247 982
f 982 246 991
f 990 982 991
f 250 992 990
f 992 251 993
f 993 247 990
f 992 993 990
f 247 994 983
f 994 252 995
f 995 205 983
f 994 995 983
f 247 993 994
f 993 251 996
f 996 252 994
f 993 996 994
f 253 997 998
f 997 252 996
f 996 251 998
f 997 996 998
f 253 999 997
f 999 213 1000
f 1000 252 997
f 999 1000 997
f 253 1001 999
f 1001 214 886
f 886 213 999
f 1001 886 999
f 253 1002 1001
f 1002 215 888
f 888 214 1001
f 1002 888 1001
f 253 1003 1002
f 1003 216 890
f 890 215 1002
f 1003 890 1002
f 253 1004 1003
f 1004 217 892
f 892 216 1003
f 1004 892 1003
f 254 1005 1006
f 1005 217 1004
f 1004 253 1006
f 1005 1004 1006
f 254 1007 1005
f 1007 219 896
f 896 217 1005
f 1007 896 1005
f 254 1008 1007
f 1008 220 898
f 898 219 1007
f 1008 898 1007
f 254 1009 1008
f 1009 221 900
f 900 220 1008
f 1009 900 1008
f 254 1010 1009
f 1010 255 1011
f 1011 221 1009
f 1010 1011 1009
f 255 1012 1011
f 1012 223 904
f 904 221 1011
f 1012 904 1011
f 255 1013 1012
f 1013 224 906
f 906 223 1012
f 1013 906 1012
f 255 1014 1013
f 1014 225 908
f 908 224 1013
f 1014 908 1013
f 255 1015 1014
f 1015 226 910
f 910 225 1014
f 1015 910 1014
f 256 1016 1018
f 1016 257 1017
f 1017 258 1018
f 1016 1017 1018
f 259 1019 1020
f 1019 256 1018
f 1018 258 1020
f 1019 1018 1020
f 259 1020 1022
f 1020 258 1021
f 1021 226 1022
f 1020 1021 1022
f 255 1023 1015
f 1023 259 1022
f 1022 226 1015
f 1023 1022 1015
f 260 1024 1025
f 1024 248 986
f 986 249 1025
f 1024 986 1025
f 260 1026 1024
f 1026 261 1027
f 1027 248 1024
f 1026 1027 1024
f 260 1028 1026
f 1028 262 1029
f 1029 261 1026
f 1028 1029 1026
f 263 1030 1031
f 1030 262 1028
f 1028 260 1031
f 1030 1028 1031
f 263 1031 1032
f 1031 260 1025
f 1025 249 1032
f 1031 1025 1032
f 194 1033 1034
f 1033 263 1032
f 1032 249 1034
f 1033 1032 1034
f 194 1034 1035
f 1034 249 989
f 989 186 1035
f 1034 989 1035
f 248 1036 984
f 1036 250 991
f 991 246 984
f 1036 991 984
f 248 1027 1036
f 1027 261 1037
f 1037 250 1036
f 1027 1037 1036
f 261 1038 1037
f 1038 264 1039
f 1039 250 1037
f 1038 1039 1037
f 264 1040 1039
f 1040 251 992
f 992 250 1039
f 1040 992 1039
f 264 1041 1040
f 1041 253 998
f 998 251 1040
f 1041 998 1040
f 264 1042 1041
f 1042 265 1043
f 1043 253 1041
f 1042 1043 1041
f 265 1044 1043
f 1044 254 1006
f 1006 253 1043
f 1044 1006 1043
f 265 1045 1044
f 1045 255 1010
f 1010 254 1044
f 1045 1010 1044
f 265 1046 1045
f 1046 266 1047
f 1047 255 1045
f 1046 1047 1045
f 259 1023 1048
f 1023 255 1047
f 1047 266 1048
f 1023 1047 1048
f 266 1049 1048
f 1049 267 1050
f 1050 259 1048
f 1049 1050 1048
f 268 1051 1052
f 1051 256 1019
f 1019 259 1052
f 1051 1019 1052
f 268 1052 1053
f 1052 259 1050
f 1050 267 1053
f 1052 1050 1053
f 269 1054 1055
f 1054 268 1053
f 1053 267 1055
f 1054 1053 1055
f 270 1056 1057
f 1056 269 1055
f 1055 267 1057
f 1056 1055 1057
f 270 1057 1058
f 1057 267 1049
f 1049 266 1058
f 1057 1049 1058
f 270 1058 1059
f 1058 266 1046
f 1046 265 1059
f 1058 1046 1059
f 271 1060 1061
f 1060 270 1059
f 1059 265 1061
f 1060 1059 1061
f 196 1062 1063
f 1062 271 1061
f 1061 265 1063
f 1062 1061 1063
f 196 1063 1064
f 1063 265 1042
f 1042 264 1064
f 1063 1042 1064
f 262 1065 1066
f 1065 196 1064
f 1064 264 1066
f 1065 1064 1066
f 262 1066 1029
f 1066 264 1038
f 1038 261 1029
f 1066 1038 1029
f 200 855 1067
f 855 196 1065
f 1065 262 1067
f 855 1065 1067
f 199 853 1068
f 853 200 1067
f 1067 262 1068
f 853 1067 1068
f 198 852 1070
f 852 199 1069
f 1069 272 1070
f 852 1069 1070
f 199 1068 1069
f 1068 262 1071
f 1071 272 1069
f 1068 1071 1069
f 197 850 1072
f 850 198 1070
f 1070 272 1072
f 850 1070 1072
f 197 1072 848
f 1072 272 1073
f 1073 194 848
f 1072 1073 848
f 194 1073 1033
f 1073 272 1074
f 1074 263 1033
f 1073 1074 1033
f 263 1074 1030
f 1074 272 1071
f 1071 262 1030
f 1074 1071 1030
f 273 1075 1077
f 1075 274 1076
f 1076 275 1077
f 1075 1076 1077
f 273 1078 1075
f 1078 276 1079
f 1079 274 1075
f 1078 1079 1075
f 276 1080 1079
f 1080 277 1081
f 1081 274 1079
f 1080 1081 1079
f 276 1082 1080
f 1082 278 1083
f 1083 277 1080
f 1082 1083 1080
f 279 1084 1085
f 1084 276 1078
f 1078 273 1085
f 1084 1078 1085
f 280 1086 1087
f 1086 276 1084
f 1084 279 1087
f 1086 1084 1087
f 280 1088 1086
f 1088 281 1089
f 1089 276 1086
f 1088 1089 1086
f 281 1090 1089
f 1090 282 1091
f 1091 276 1089
f 1090 1091 1089
f 282 1092 1091
f 1092 283 1093
f 1093 276 1091
f 1092 1093 1091
f 283 1094 1093
f 1094 284 1095
f 1095 276 1093
f 1094 1095 1093
f 284 1096 1095
f 1096 285 1097
f 1097 276 1095
f 1096 1097 1095
f 285 1098 1097
f 1098 278 1082
f 1082 276 1097
f 1098 1082 1097
f 285 1099 1098
f 1099 286 1100
f 1100 278 1098
f 1099 1100 1098
f 281 1101 1090
f 1101 287 1102
f 1102 282 1090
f 1101 1102 1090
f 287 1103 1102
f 1103 288 1104
f 1104 282 1102
f 1103 1104 1102
f 282 1104 1092
f 1104 288 1105
f 1105 283 1092
f 1104 1105 1092
f 288 1106 1105
f 1106 289 1107
f 1107 283 1105
f 1106 1107 1105
f 283 1107 1094
f 1107 289 1108
f 1108 284 1094
f 1107 1108 1094
f 284 1108 1096
f 1108 289 1109
f 1109 285 1096
f 1108 1109 1096
f 289 1110 1109
f 1110 290 1111
f 1111 285 1109
f 1110 1111 1109
f 289 1112 1110
f 1112 291 1113
f 1113 290 1110
f 1112 1113 1110
f 292 1114 1115
f 1114 291 1112
f 1112 289 1115
f 1114 1112 1115
f 288 1116 1106
f 1116 292 1115
f 1115 289 1106
f 1116 1115 1106
f 293 1117 1118
f 1117 292 1116
f 1116 288 1118
f 1117 1116 1118
f 294 1119 1120
f 1119 293 1118
f 1118 288 1120
f 1119 1118 1120
f 287 1121 1103
f 1121 294 1120
f 1120 288 1103
f 1121 1120 1103
f 292 1122 1114
f 1122 114 1123
f 1123 291 1114
f 1122 1123 1114
f 295 1124 1125
f 1124 114 1122
f 1122 292 1125
f 1124 1122 1125
f 296 1126 1127
f 1126 295 1125
f 1125 292 1127
f 1126 1125 1127
f 293 1128 1117
f 1128 296 1127
f 1127 292 1117
f 1128 1127 1117
f 294 1129 1119
f 1129 296 1128
f 1128 293 1119
f 1129 1128 1119
f 117 1130 1131
f 1130 296 1129
f 1129 294 1131
f 1130 1129 1131
f 275 1076 1133
f 1076 274 1132
f 1132 297 1133
f 1076 1132 1133
f 274 1134 1132
f 1134 298 1135
f 1135 297 1132
f 1134 1135 1132
f 274 1081 1134
f 1081 277 1136
f 1136 298 1134
f 1081 1136 1134
f 277 1137 1136
f 1137 299 1138
f 1138 298 1136
f 1137 1138 1136
f 297 1135 1140
f 1135 298 1139
f 1139 122 1140
f 1135 1139 1140
f 122 1139 1142
f 1139 298 1141
f 1141 300 1142
f 1139 1141 1142
f 298 1143 1141
f 1143 301 1144
f 1144 300 1141
f 1143 1144 1141
f 298 1145 1143
f 1145 302 1146
f 1146 301 1143
f 1145 1146 1143
f 298 1147 1145
f 1147 303 1148
f 1148 302 1145
f 1147 1148 1145
f 298 1149 1147
f 1149 304 1150
f 1150 303 1147
f 1149 1150 1147
f 298 1151 1149
f 1151 305 1152
f 1152 304 1149
f 1151 1152 1149
f 298 1138 1151
f 1138 299 1153
f 1153 305 1151
f 1138 1153 1151
f 299 1154 1153
f 1154 306 1155
f 1155 305 1153
f 1154 1155 1153
f 302 1156 1146
f 1156 307 1157
f 1157 301 1146
f 1156 1157 1146
f 302 1158 1156
f 1158 308 1159
f 1159 307 1156
f 1158 1159 1156
f 303 1160 1148
f 1160 308 1158
f 1158 302 1148
f 1160 1158 1148
f 303 1161 1160
f 1161 309 1162
f 1162 308 1160
f 1161 1162 1160
f 304 1163 1150
f 1163 309 1161
f 1161 303 1150
f 1163 1161 1150
f 305 1164 1152
f 1164 309 1163
f 1163 304 1152
f 1164 1163 1152
f 305 1165 1164
f 1165 310 1166
f 1166 309 1164
f 1165 1166 1164
f 310 1167 1166
f 1167 311 1168
f 1168 309 1166
f 1167 1168 1166
f 309 1168 1170
f 1168 311 1169
f 1169 312 1170
f 1168 1169 1170
f 309 1170 1162
f 1170 312 1171
f 1171 308 1162
f 1170 1171 1162
f 308 1171 1173
f 1171 312 1172
f 1172 313 1173
f 1171 1172 1173
f 308 1173 1175
f 1173 313 1174
f 1174 314 1175
f 1173 1174 1175
f 308 1175 1159
f 1175 314 1176
f 1176 307 1159
f 1175 1176 1159
f 311 1177 1169
f 1177 315 1178
f 1178 312 1169
f 1177 1178 1169
f 312 1178 1180
f 1178 315 1179
f 1179 316 1180
f 1178 1179 1180
f 312 1180 1182
f 1180 316 1181
f 1181 317 1182
f 1180 1181 1182
f 312 1182 1172
f 1182 317 1183
f 1183 313 1172
f 1182 1183 1172
f 313 1183 1174
f 1183 317 1184
f 1184 314 1174
f 1183 1184 1174
f 314 1184 1186
f 1184 317 1185
f 1185 140 1186
f 1184 1185 1186
f 318 1187 1189
f 1187 319 1188
f 1188 320 1189
f 1187 1188 1189
f 321 1190 1191
f 1190 318 1189
f 1189 320 1191
f 1190 1189 1191
f 322 1192 1193
f 1192 321 1191
f 1191 320 1193
f 1192 1191 1193
f 322 1193 1197
f 1193 320 1196
f 1196 324 1197
f 1193 1196 1197
f 327 1203 1201
f 1203 322 1197
f 1197 324 1201
f 1203 1197 1201
f 328 1204 1205
f 1204 322 1203
f 1203 327 1205
f 1204 1203 1205
f 329 1206 1207
f 1206 322 1204
f 1204 328 1207
f 1206 1204 1207
f 330 1208 1209
f 1208 322 1206
f 1206 329 1209
f 1208 1206 1209
f 331 1210 1212
f 1210 329 1211
f 1211 332 1212
f 1210 1211 1212
f 330 1209 1213
f 1209 329 1210
f 1210 331 1213
f 1209 1210 1213
f 333 1214 1215
f 1214 330 1213
f 1213 331 1215
f 1214 1213 1215
f 321 1216 1190
f 1216 334 1217
f 1217 318 1190
f 1216 1217 1190
f 335 1218 1219
f 1218 334 1216
f 1216 321 1219
f 1218 1216 1219
f 335 1219 1220
f 1219 321 1192
f 1192 322 1220
f 1219 1192 1220
f 336 1221 1222
f 1221 335 1220
f 1220 322 1222
f 1221 1220 1222
f 330 1223 1208
f 1223 336 1222
f 1222 322 1208
f 1223 1222 1208
f 337 1224 1225
f 1224 336 1223
f 1223 330 1225
f 1224 1223 1225
f 338 1226 1228
f 1226 339 1227
f 1227 340 1228
f 1226 1227 1228
f 338 1228 1230
f 1228 340 1229
f 1229 341 1230
f 1228 1229 1230
f 338 1230 1232
f 1230 341 1231
f 1231 342 1232
f 1230 1231 1232
f 343 1235 1236
f 1235 338 1232
f 1232 342 1236
f 1235 1232 1236
f 343 1236 1240
f 1236 342 1242
f 1242 347 1240
f 1236 1242 1240
f 347 1242 1244
f 1242 342 1243
f 1243 348 1244
f 1242 1243 1244
f 348 1243 1246
f 1243 342 1245
f 1245 349 1246
f 1243 1245 1246
f 349 1245 1248
f 1245 342 1247
f 1247 350 1248
f 1245 1247 1248
f 351 1249 1251
f 1249 349 1250
f 1250 352 1251
f 1249 1250 1251
f 352 1250 1252
f 1250 349 1248
f 1248 350 1252
f 1250 1248 1252
f 352 1252 1254
f 1252 350 1253
f 1253 353 1254
f 1252 1253 1254
f 340 1255 1229
f 1255 354 1256
f 1256 341 1229
f 1255 1256 1229
f 341 1256 1258
f 1256 354 1257
f 1257 355 1258
f 1256 1257 1258
f 342 1231 1259
f 1231 341 1258
f 1258 355 1259
f 1231 1258 1259
f 342 1259 1261
f 1259 355 1260
f 1260 356 1261
f 1259 1260 1261
f 342 1261 1247
f 1261 356 1262
f 1262 350 1247
f 1261 1262 1247
f 350 1262 1264
f 1262 356 1263
f 1263 357 1264
f 1262 1263 1264
f 319 1265 1188
f 1265 358 1266
f 1266 320 1188
f 1265 1266 1188
f 320 1266 1268
f 1266 358 1267
f 1267 359 1268
f 1266 1267 1268
f 320 1268 1270
f 1268 359 1269
f 1269 360 1270
f 1268 1269 1270
f 1195 323 1194
f 1195 1194 1196
f 324 1196 1271
f 1196 320 1270
f 1270 360 1271
f 1196 1270 1271
f 326 1199 1200
f 1199 324 1198
f 1199 1198 1200
f 325 1198 1202
f 1198 1201 1202
f 324 1271 1201
f 1271 360 1272
f 1272 327 1201
f 1271 1272 1201
f 327 1272 1205
f 1272 360 1273
f 1273 328 1205
f 1272 1273 1205
f 328 1273 1275
f 1273 360 1274
f 1274 361 1275
f 1273 1274 1275
f 361 1274 1277
f 1274 360 1276
f 1276 362 1277
f 1274 1276 1277
f 332 1278 1212
f 1278 361 1279
f 1279 331 1212
f 1278 1279 1212
f 331 1279 1280
f 1279 361 1277
f 1277 362 1280
f 1279 1277 1280
f 331 1280 1215
f 1280 362 1281
f 1281 333 1215
f 1280 1281 1215
f 358 1282 1267
f 1282 334 1283
f 1283 359 1267
f 1282 1283 1267
f 359 1283 1285
f 1283 334 1284
f 1284 363 1285
f 1283 1284 1285
f 359 1285 1269
f 1285 363 1286
f 1286 360 1269
f 1285 1286 1269
f 360 1286 1288
f 1286 363 1287
f 1287 364 1288
f 1286 1287 1288
f 360 1288 1276
f 1288 364 1289
f 1289 362 1276
f 1288 1289 1276
f 362 1289 1291
f 1289 364 1290
f 1290 365 1291
f 1289 1290 1291
f 338 1292 1294
f 1292 366 1293
f 1293 367 1294
f 1292 1293 1294
f 368 1295 1296
f 1295 366 1292
f 1292 338 1296
f 1295 1292 1296
f 369 1297 1298
f 1297 368 1296
f 1296 338 1298
f 1297 1296 1298
f 1234 344 1233
f 1234 1233 1235
f 369 1298 1299
f 1298 338 1235
f 1235 343 1299
f 1298 1235 1299
f 346 1238 1239
f 1238 343 1237
f 1237 345 1239
f 1238 1237 1239
f 1238 346 1241
f 1240 1238 1241
f 347 1300 1240
f 1300 369 1299
f 1299 343 1240
f 1300 1299 1240
f 348 1301 1244
f 1301 369 1300
f 1300 347 1244
f 1301 1300 1244
f 370 1302 1303
f 1302 369 1301
f 1301 348 1303
f 1302 1301 1303
f 371 1304 1305
f 1304 369 1302
f 1302 370 1305
f 1304 1302 1305
f 352 1306 1251
f 1306 370 1307
f 1307 351 1251
f 1306 1307 1251
f 371 1305 1308
f 1305 370 1306
f 1306 352 1308
f 1305 1306 1308
f 353 1309 1254
f 1309 371 1308
f 1308 352 1254
f 1309 1308 1254
f 368 1310 1295
f 1310 372 1311
f 1311 366 1295
f 1310 1311 1295
f 373 1312 1313
f 1312 372 1310
f 1310 368 1313
f 1312 1310 1313
f 369 1314 1297
f 1314 373 1313
f 1313 368 1297
f 1314 1313 1297
f 374 1315 1316
f 1315 373 1314
f 1314 369 1316
f 1315 1314 1316
f 371 1317 1304
f 1317 374 1316
f 1316 369 1304
f 1317 1316 1304
f 375 1318 1319
f 1318 374 1317
f 1317 371 1319
f 1318 1317 1319
