# Unified Preprocessed OBJ file from m255.obj
# Applied remeshing: Yes
# Applied 4-step normalization: centering, PCA alignment, flipping, scaling
# Generated on 2025-09-29 15:12:57

v 0.502056 0.138040 -0.037855
v 0.508500 0.140300 -0.006212
v 0.536659 0.142833 -0.038334
v 0.540703 0.147834 -0.017974
v 0.527158 0.145975 -0.002392
v 0.514446 0.249335 -0.012135
v 0.514411 0.226111 -0.045698
v 0.528145 0.213573 -0.047432
v 0.542234 0.283250 -0.030745
v 0.509447 0.269403 -0.025357
v 0.536092 0.244961 -0.012725
v 0.526435 0.305372 -0.044546
v 0.530974 0.382001 -0.026450
v 0.510857 0.308758 -0.033145
v 0.536561 0.436976 0.001380
v 0.517624 0.310316 -0.003541
v 0.527622 0.390801 0.001711
v 0.532575 0.441827 -0.018616
v 0.526474 0.431832 -0.009084
v 0.514577 0.435198 0.011795
v 0.521616 0.421964 0.011841
v 0.521888 0.481681 0.005282
v 0.519105 0.480690 -0.007171
v 0.520721 0.467340 -0.019680
v 0.537530 -0.145883 -0.006137
v 0.537650 -0.142420 -0.035886
v 0.508617 -0.140437 -0.004406
v 0.503422 -0.134732 -0.038482
v 0.518925 -0.224780 -0.044150
v 0.538714 -0.248051 -0.013233
v 0.529952 -0.252568 -0.044377
v 0.510754 -0.241683 -0.025712
v 0.520397 -0.247887 -0.006684
v 0.518626 -0.313239 0.001692
v 0.540849 -0.267314 -0.028733
v 0.521094 -0.319463 -0.038149
v 0.532447 -0.313362 -0.037745
v 0.511002 -0.311863 -0.032577
v 0.526489 -0.417017 -0.020606
v 0.520922 -0.396106 -0.000474
v 0.530161 -0.386311 0.005638
v 0.520921 -0.463526 -0.014332
v 0.522475 -0.460595 -0.002195
v 0.512537 -0.431814 0.017446
v 0.529022 -0.428010 0.013990
v 0.525356 -0.461817 0.008598
v 0.535068 -0.440344 -0.000860
v 0.523731 -0.001301 0.038382
v 0.524759 -0.001890 0.039412
v 0.526935 0.001309 0.037682
v 0.525667 0.004327 0.037739
v 0.523888 0.005782 0.038207
v 0.522142 0.005479 0.040495
v 0.521071 0.003506 0.042264
v 0.519940 0.001312 0.041335
v 0.521557 -0.000690 0.041915
v 0.524004 0.004148 0.039662
v 0.522301 0.003450 0.041002
v 0.522221 0.000711 0.041085
v 0.524570 0.001099 0.038325
v 0.523477 0.002136 0.038865
v 0.522842 0.000641 0.039683
v 0.523310 0.001889 0.039924
v 0.522715 0.002682 0.039149
v 0.522854 0.003291 0.039654
v 0.523679 0.000582 0.039027
v 0.505107 -0.001857 0.054119
v 0.507734 -0.001852 0.053891
v 0.508304 -0.000669 0.051603
v 0.508253 0.004682 0.053437
v 0.508769 0.003525 0.051208
v 0.505958 0.005823 0.053395
v 0.503789 0.004063 0.056026
v 0.503723 0.000349 0.056104
v 0.507535 -0.000220 0.053886
v 0.505149 0.001217 0.055597
v 0.507639 0.002166 0.053031
v 0.505449 0.003754 0.054428
v 0.506262 0.001440 0.053344
v 0.506067 0.002064 0.054573
v 0.505568 0.002664 0.053724
v 0.506546 0.000839 0.053589
v 0.506437 0.003373 0.053038
v 0.488394 -0.001833 0.065693
v 0.489160 -0.001825 0.066914
v 0.489988 0.003296 0.064658
v 0.491233 0.003562 0.065577
v 0.486927 0.005542 0.067414
v 0.485193 0.003568 0.069367
v 0.484164 0.001374 0.068325
v 0.485650 -0.001067 0.068261
v 0.489111 -0.000142 0.066795
v 0.489765 0.003170 0.066223
v 0.488379 0.004213 0.067085
v 0.486546 0.003513 0.068240
v 0.486460 0.000774 0.068313
v 0.489083 0.001164 0.065813
v 0.487940 0.002201 0.066237
v 0.486847 0.001583 0.066640
v 0.486793 0.000646 0.066680
v 0.487663 0.001953 0.067273
v 0.487152 0.002746 0.066440
v 0.487237 0.003356 0.066956
v 0.467056 -0.001825 0.076486
v 0.471160 -0.000624 0.076043
v 0.470760 -0.000632 0.074658
v 0.471330 0.003563 0.074467
v 0.470336 0.005240 0.076245
v 0.468099 0.005857 0.076137
v 0.465864 0.005228 0.076036
v 0.464878 0.003566 0.077832
v 0.464182 0.001372 0.076546
v 0.469361 -0.000136 0.076437
v 0.470679 0.001948 0.075922
v 0.466728 0.003451 0.076426
v 0.466149 0.001121 0.077358
v 0.469343 0.003364 0.075548
v 0.467528 0.001369 0.075579
v 0.467494 0.000708 0.076099
v 0.467676 0.002066 0.076544
v 0.467875 0.002968 0.075470
v 0.467510 0.003359 0.076078
v 0.469170 0.001313 0.075105
v 0.468806 0.002502 0.075709
v 0.450032 -0.001273 0.075661
v 0.447729 -0.001870 0.076617
v 0.452581 0.001351 0.077710
v 0.452591 0.003529 0.076222
v 0.450856 0.005200 0.077296
v 0.449110 0.005808 0.075416
v 0.445408 0.001844 0.075329
v 0.449544 -0.000511 0.076784
v 0.450719 0.002777 0.077037
v 0.446665 0.001069 0.076239
v 0.449236 0.001357 0.075716
v 0.448118 0.001485 0.075709
v 0.448452 0.000662 0.075789
v 0.448902 0.001893 0.076385
v 0.447824 0.002533 0.075637
v 0.448041 0.003308 0.075184
v 0.448868 0.002928 0.076372
v 0.449862 0.001498 0.075609
v 0.449487 0.002495 0.076515
v 0.429151 -0.001949 0.070154
v 0.432952 -0.000737 0.071757
v 0.433273 -0.000744 0.070351
v 0.431790 0.004600 0.071465
v 0.433851 0.003453 0.070463
v 0.428306 0.005103 0.069188
v 0.426589 0.001771 0.069921
v 0.426436 0.002380 0.068773
v 0.429511 -0.000305 0.070727
v 0.432247 0.000826 0.071347
v 0.431312 0.003710 0.070500
v 0.428364 0.001562 0.070335
v 0.429993 0.001248 0.069592
v 0.429870 0.000748 0.070065
v 0.429040 0.000638 0.069377
v 0.430911 0.001507 0.070299
v 0.430037 0.002629 0.069595
v 0.429730 0.003237 0.070020
v 0.430525 0.002968 0.070702
v 0.567599 0.007343 -0.066314
v 0.556245 0.025352 -0.040707
v 0.557947 -0.007114 -0.058146
v 0.654689 0.040044 0.042995
v 0.589011 0.033176 0.024801
v 0.565315 0.046714 -0.032799
v 0.639899 0.054670 -0.031411
v 0.570481 -0.007442 -0.071259
v 0.597588 -0.007822 -0.071091
v 0.570796 -0.020300 -0.072987
v 0.556615 -0.012053 -0.060212
v 0.582865 0.022321 0.020012
v 0.563553 0.037273 0.030084
v 0.674838 0.046421 0.036034
v 0.691407 0.001780 0.048537
v 0.629387 0.052149 0.020789
v 0.635694 -0.020135 -0.070791
v 0.634243 -0.004458 -0.070286
v 0.687166 -0.016338 0.043668
v 0.593460 0.045396 -0.003245
v 0.567750 0.047685 0.016453
v 0.707376 -0.012818 0.034345
v 0.711702 -0.019566 0.001151
v 0.697653 -0.019310 -0.053049
v 0.620695 0.021608 -0.000759
v 0.591344 0.031893 -0.033525
v 0.706908 0.024110 0.018363
v 0.717266 -0.000469 -0.014658
v 0.646763 0.030197 0.039297
v 0.630559 0.031489 -0.031753
v 0.597992 -0.008727 -0.067306
v 0.616038 -0.005912 -0.066741
v 0.554162 0.037479 -0.016586
v 0.631505 0.059015 -0.008592
v 0.679746 0.047684 -0.023962
v 0.709540 0.019030 -0.031963
v 0.634858 0.040135 -0.053509
v 0.567579 -0.009308 -0.061361
v 0.577655 -0.012160 -0.056182
v 0.625150 -0.008207 -0.063349
v 0.627474 -0.020070 -0.055245
v 0.562530 -0.021655 -0.061227
v 0.558876 -0.032787 -0.039949
v 0.613048 -0.035444 0.006829
v 0.650889 -0.031811 -0.001174
v 0.594402 -0.035801 -0.034450
v 0.640971 -0.043328 -0.023381
v 0.599689 -0.020326 -0.071059
v 0.573450 -0.020575 -0.071242
v 0.573712 -0.015225 -0.073068
v 0.565841 -0.019492 -0.067149
v 0.571621 -0.024027 -0.068709
v 0.568504 -0.040497 0.012914
v 0.679732 -0.039727 0.011060
v 0.684028 -0.030253 0.046849
v 0.693954 -0.020936 -0.053685
v 0.636724 -0.022339 -0.070218
v 0.693929 -0.020047 0.041881
v 0.637271 -0.034471 -0.059409
v 0.711333 -0.018477 0.002696
v 0.703801 -0.027814 -0.030725
v 0.633468 -0.035573 -0.031421
v 0.600078 -0.019918 -0.067281
v 0.619937 -0.021515 -0.066706
v 0.563630 -0.016035 -0.060222
v 0.570636 -0.019730 -0.061361
v 0.628334 -0.020550 -0.063321
v 0.571627 0.031091 -0.026784
v 0.599359 0.019017 -0.023886
v 0.586807 -0.001274 0.019830
v 0.604224 0.027555 0.013257
v 0.564387 0.033788 0.010114
v 0.586440 -0.027168 -0.007082
v 0.602528 -0.023349 0.016763
v 0.572821 -0.016235 0.012201
v 0.560027 -0.016925 -0.043135
v 0.598009 -0.010941 -0.030842
v 0.560746 -0.045962 -0.013459
v 0.548058 -0.035051 0.018707
v 0.641779 0.001192 0.047722
v 0.644044 -0.023588 0.036839
v 0.595971 -0.003217 0.044422
v 0.636811 -0.033244 0.014992
v 0.620634 0.019197 0.040613
v 0.644105 -0.038484 -0.011621
v 0.681819 -0.024874 0.029080
v 0.678592 0.002480 0.040778
v 0.682803 -0.034795 -0.028087
v 0.647555 0.031845 0.030070
v 0.645233 0.041811 -0.010645
v 0.682134 0.029604 0.025508
v 0.683491 0.036222 -0.022876
v 0.704493 -0.015582 0.007081
v 0.704675 0.016796 0.006718
v 0.655537 -0.028076 -0.045730
v 0.688814 -0.013848 -0.047098
v 0.703517 -0.016291 -0.027893
v 0.644653 0.003006 -0.053077
v 0.655401 0.029735 -0.046044
v 0.693009 0.026053 -0.036110
v 0.316434 0.011238 -0.051898
v 0.322222 0.043350 -0.046944
v 0.272445 0.034433 -0.072803
v 0.370082 0.056471 0.001313
v 0.252143 0.014561 -0.068812
v 0.325209 0.072835 -0.011073
v 0.296877 0.023905 0.039766
v 0.231212 0.032112 0.026356
v 0.293885 0.068211 0.025295
v 0.238833 0.001395 0.032358
v 0.231687 0.082586 -0.047649
v 0.251036 0.068944 -0.063116
v 0.312585 0.073377 -0.030817
v 0.195698 0.061527 0.033829
v 0.354884 0.023246 0.033095
v 0.197595 0.008213 -0.022578
v 0.214083 0.028829 -0.067248
v 0.377517 0.051271 0.031612
v 0.411838 0.046460 -0.047926
v 0.371322 0.020699 -0.037683
v 0.365466 0.046516 -0.030337
v 0.419361 0.067735 -0.029751
v 0.420318 0.026291 0.049979
v 0.419265 0.008772 -0.051076
v 0.420121 0.060918 0.039034
v 0.002718 0.022811 -0.047933
v 0.183525 0.071292 -0.043328
v 0.072991 0.044255 -0.047403
v 0.022500 0.047478 -0.043392
v 0.055506 0.060035 -0.015103
v 0.037019 0.006224 -0.023420
v -0.015292 0.061387 -0.020298
v 0.210340 0.089090 -0.023944
v 0.200742 0.013460 0.012547
v 0.188792 0.035537 -0.047632
v 0.230010 0.056604 -0.070584
v 0.148645 0.052132 0.030725
v 0.042927 0.028711 0.008499
v -0.003311 0.052534 -0.005280
v 0.088259 0.055542 0.013559
v 0.038578 0.014477 -0.003771
v 0.144940 0.002177 -0.017477
v 0.211101 0.086312 0.014315
v 0.146901 0.017333 -0.044331
v 0.145336 0.080399 0.001322
v 0.151000 0.012325 0.009249
v 0.162070 0.072980 0.024495
v -0.039987 0.006912 -0.034383
v -0.098833 0.020502 -0.017665
v -0.067917 0.034300 -0.058482
v -0.100589 0.015950 -0.043781
v -0.054923 0.054882 -0.053148
v -0.155766 0.043788 -0.033420
v -0.154892 0.016001 -0.032603
v -0.041198 0.031872 -0.005725
v -0.134848 0.037413 -0.006723
v -0.059625 0.062398 -0.024646
v -0.155075 0.042343 -0.036419
v -0.154960 0.021300 -0.012422
v -0.155324 0.020380 -0.037538
v -0.155542 0.025713 -0.039328
v -0.156154 0.044936 -0.017082
v -0.155689 0.041219 -0.010983
v -0.156381 0.045551 -0.021556
v -0.154933 0.033323 -0.040094
v -0.156390 0.045407 -0.026657
v -0.154716 0.019926 -0.012445
v -0.172332 0.017799 -0.009903
v -0.172293 0.016768 -0.012332
v -0.172610 0.019718 -0.006850
v -0.182806 0.019150 -0.004724
v -0.183061 0.017194 -0.007636
v -0.173897 0.022853 -0.003134
v -0.180315 0.023119 -0.001548
v -0.181264 0.020620 -0.002862
v -0.155085 0.024968 -0.006797
v -0.173023 0.016365 -0.019273
v -0.183154 0.015019 -0.019411
v -0.182582 0.016067 -0.022064
v -0.154751 0.039168 -0.038756
v -0.175615 0.033083 -0.038531
v -0.175959 0.036577 -0.035590
v -0.174862 0.029134 -0.039768
v -0.173235 0.016727 -0.032622
v -0.173875 0.019989 -0.037558
v -0.155042 0.017443 -0.022827
v -0.172866 0.017721 -0.023707
v -0.174509 0.023281 -0.039472
v -0.176135 0.039036 -0.031347
v -0.182317 0.035074 -0.036219
v -0.181995 0.037549 -0.032569
v -0.176198 0.040000 -0.026359
v -0.181933 0.039574 -0.028432
v -0.182321 0.040371 -0.023128
v -0.175957 0.041390 -0.020989
v -0.183229 0.038611 -0.017332
v -0.175594 0.040167 -0.015668
v -0.184742 0.014730 -0.014670
v -0.182478 0.032419 -0.040017
v -0.183313 0.021356 -0.040406
v -0.183292 0.024394 -0.042380
v -0.187917 0.018012 -0.033919
v -0.187451 0.021623 -0.040749
v -0.183760 0.017703 -0.034123
v -0.187424 0.024797 -0.042788
v -0.186638 0.032314 -0.040008
v -0.182428 0.029256 -0.041868
v -0.186585 0.029414 -0.042192
v -0.186090 0.036954 -0.032558
v -0.186087 0.039512 -0.028671
v -0.187350 0.038420 -0.017328
v -0.186447 0.040152 -0.023060
v -0.186390 0.015072 -0.020124
v -0.188527 0.014624 -0.014875
v -0.186172 0.016084 -0.022096
v -0.155303 0.036757 -0.006259
v -0.174546 0.033194 -0.004750
v -0.173757 0.027830 -0.002499
v -0.154935 0.031527 -0.004990
v -0.175193 0.036932 -0.008851
v -0.183052 0.037006 -0.010451
v -0.186288 0.015316 -0.009271
v -0.182718 0.015662 -0.009829
v -0.186854 0.016490 -0.007779
v -0.195521 0.034865 0.000517
v -0.182190 0.034232 -0.005253
v -0.187219 0.037197 -0.010326
v -0.195292 0.028074 0.002927
v -0.181293 0.027861 -0.001745
v -0.195119 0.020426 0.002281
v -0.196100 0.019101 0.001165
v -0.154834 0.017632 -0.018047
v -0.184056 0.017704 -0.025544
v -0.194406 0.023295 0.003055
v -0.188080 0.017629 -0.024867
v -0.186403 0.034508 -0.035943
v -0.188410 0.036417 -0.034876
v -0.190336 0.036097 -0.039423
v -0.193825 0.037892 -0.036737
v -0.193870 0.019109 -0.028992
v -0.191579 0.020852 -0.035196
v -0.190218 0.018773 -0.027380
v -0.194762 0.016725 -0.021914
v -0.189517 0.017302 -0.024687
v -0.192436 0.014415 -0.017077
v -0.201411 0.015118 -0.003567
v -0.221159 0.048028 -0.006353
v -0.217120 0.045907 -0.006084
v -0.214624 0.046070 -0.013190
v -0.188968 0.015443 -0.022330
v -0.189848 0.013844 -0.010818
v -0.204955 0.016038 -0.011793
v -0.210309 0.015671 -0.007664
v -0.259018 0.044158 0.029891
v -0.258547 0.045955 0.030179
v -0.260559 0.045337 0.026975
v -0.258275 0.040959 0.035055
v -0.258524 0.042448 0.033837
v -0.260052 0.040081 0.032489
v -0.255213 0.042983 0.029568
v -0.252605 0.041868 0.028569
v -0.255763 0.041212 0.028019
v -0.260907 0.043006 0.027663
v -0.250452 0.040969 0.023014
v -0.249603 0.042739 0.021365
v -0.249658 0.043459 0.022586
v -0.249477 0.045571 0.020416
v -0.256852 0.053014 0.018415
v -0.258146 0.052073 0.016672
v -0.260540 0.054030 0.016560
v -0.256093 0.027917 0.026195
v -0.257244 0.028656 0.025744
v -0.256778 0.027097 0.020081
v -0.247148 0.022497 0.013848
v -0.247983 0.021812 0.013814
v -0.248379 0.025988 0.016888
v -0.242703 0.021807 0.012994
v -0.240961 0.024964 0.015195
v -0.203170 0.037327 -0.001422
v -0.201515 0.032995 0.003293
v -0.193785 0.036058 -0.008906
v -0.231358 0.038889 0.012361
v -0.222681 0.035285 0.008837
v -0.216302 0.034151 0.008031
v -0.218038 0.015832 0.003785
v -0.238007 0.016404 0.008729
v -0.235240 0.017083 0.004339
v -0.242584 0.046747 0.009203
v -0.247037 0.049636 0.012637
v -0.246938 0.047314 0.013120
v -0.260032 0.036407 0.008777
v -0.257593 0.034931 0.021806
v -0.257485 0.037229 0.020628
v -0.250227 0.036425 0.024371
v -0.247565 0.035138 0.016816
v -0.248658 0.038633 0.023230
v -0.247922 0.055429 0.013367
v -0.248066 0.054037 0.013685
v -0.246249 0.054621 0.011543
v -0.249840 0.051629 0.013683
v -0.247503 0.051136 0.012443
v -0.246504 0.052399 0.011909
v -0.253156 0.051157 0.015372
v -0.250243 0.051569 0.015033
v -0.252277 0.052317 0.017856
v -0.257302 0.049748 0.024692
v -0.260971 0.049295 0.021612
v -0.257513 0.051461 0.023658
v -0.242403 0.044282 0.010248
v -0.248496 0.045157 0.014438
v -0.257303 0.035029 0.039647
v -0.258436 0.036320 0.037836
v -0.259818 0.034449 0.036270
v -0.259163 0.031794 0.036342
v -0.257356 0.033458 0.039114
v -0.242717 0.048665 0.007553
v -0.244905 0.049388 0.009198
v -0.255194 0.036864 0.024774
v -0.256143 0.035725 0.024253
v -0.254651 0.042800 0.032786
v -0.256729 0.043517 0.030551
v -0.256002 0.043349 0.033896
v -0.255037 0.047886 0.028469
v -0.255112 0.048391 0.027338
v -0.256538 0.048196 0.029327
v -0.258881 0.046734 0.015500
v -0.255117 0.047382 0.016203
v -0.257857 0.050231 0.012779
v -0.260312 0.047883 0.023336
v -0.255461 0.049460 0.014641
v -0.253876 0.050873 0.013532
v -0.252499 0.051158 0.014399
v -0.254903 0.052580 0.022117
v -0.254306 0.051871 0.023302
v -0.255616 0.052164 0.023981
v -0.255759 0.052051 0.015906
v -0.253596 0.051122 0.016862
v -0.252463 0.052228 0.013563
v -0.254636 0.046695 0.018977
v -0.257409 0.045049 0.007557
v -0.258190 0.042772 0.018822
v -0.242545 0.026012 -0.005418
v -0.233179 0.020429 -0.002030
v -0.238003 0.019607 0.001358
v -0.254647 0.056282 0.004085
v -0.251959 0.056589 0.010417
v -0.252845 0.056191 0.009820
v -0.252916 0.028307 0.029277
v -0.254259 0.028547 0.032244
v -0.255807 0.028262 0.032123
v -0.256078 0.035352 0.002909
v -0.249804 0.033411 -0.002680
v -0.257155 0.032674 0.003689
v -0.238316 0.048347 0.005072
v -0.235852 0.051428 0.001971
v -0.252901 0.056131 0.017758
v -0.253864 0.056773 0.016999
v -0.254771 0.056161 0.018524
v -0.255657 0.042095 0.022930
v -0.256185 0.044036 0.020660
v -0.253479 0.029980 0.035561
v -0.252443 0.030337 0.035150
v -0.257525 0.046684 0.022628
v -0.255486 0.056389 0.015268
v -0.251858 0.056148 0.013289
v -0.253083 0.057102 0.015880
v -0.253863 0.052294 0.013101
v -0.260762 0.052541 0.010694
v -0.248266 0.020491 0.009426
v -0.237227 0.044279 0.007679
v -0.235112 0.046994 0.003822
v -0.257006 0.054402 0.012270
v -0.253360 0.054147 0.013011
v -0.258763 0.047468 0.029093
v -0.247131 0.040401 0.015934
v -0.247554 0.038084 0.017490
v -0.252356 0.044769 0.026343
v -0.252577 0.043391 0.026703
v -0.256813 0.054269 0.018782
v -0.241093 0.040639 0.011777
v -0.258553 0.038535 0.019946
v -0.250646 0.046512 0.018680
v -0.251508 0.046604 0.017452
v -0.248315 0.052675 0.014258
v -0.259765 0.047474 0.026746
v -0.258883 0.038031 0.033389
v -0.258522 0.038907 0.034805
v -0.256342 0.034134 0.025099
v -0.260970 0.030975 0.023453
v -0.260799 0.032105 0.017419
v -0.258834 0.042266 0.031179
v -0.255578 0.040569 0.024219
v -0.256936 0.038080 0.024720
v -0.248963 0.039746 0.023431
v -0.249541 0.047172 0.016713
v -0.248989 0.048568 0.015659
v -0.253850 0.046873 0.017229
v -0.256549 0.055533 0.018313
v -0.255993 0.056223 0.016351
v -0.241146 0.027500 0.014560
v -0.221708 0.027509 0.010634
v -0.241299 0.030936 0.014427
v -0.193010 0.041131 -0.033723
v -0.188163 0.038412 -0.031752
v -0.194492 0.039388 -0.035528
v -0.215323 0.020728 -0.042600
v -0.214214 0.025430 -0.044369
v -0.212448 0.023596 -0.048124
v -0.230264 0.050545 -0.003623
v -0.245185 0.050817 0.008773
v -0.247016 0.043314 0.015034
v -0.256667 0.037229 0.033801
v -0.255661 0.037943 0.031205
v -0.255204 0.037791 0.033958
v -0.259037 0.036488 0.030770
v -0.258592 0.037054 0.036056
v -0.257167 0.038093 0.035816
v -0.211451 0.036798 -0.048736
v -0.211358 0.031743 -0.049569
v -0.212480 0.032554 -0.047090
v -0.256734 0.049713 0.006190
v -0.250264 0.035666 0.025139
v -0.254230 0.048986 0.015674
v -0.252492 0.051993 0.019677
v -0.254487 0.051289 0.017587
v -0.257086 0.052277 0.021846
v -0.250307 0.040599 0.024143
v -0.246120 0.022359 0.007944
v -0.245920 0.023004 0.004611
v -0.251365 0.030293 0.033210
v -0.250700 0.037671 0.036118
v -0.252675 0.038753 0.034671
v -0.251922 0.037822 0.038072
v -0.256441 0.042128 0.028532
v -0.255105 0.046577 0.023141
v -0.255989 0.047683 0.024849
v -0.254602 0.047708 0.024044
v -0.201610 0.040898 -0.015424
v -0.217944 0.044534 -0.000478
v -0.253378 0.038123 0.031400
v -0.254062 0.036917 0.034810
v -0.251956 0.037385 0.030149
v -0.251572 0.038907 0.029814
v -0.250303 0.032611 0.038245
v -0.199109 0.039914 -0.038120
v -0.202203 0.041953 -0.037256
v -0.199582 0.041601 -0.035063
v -0.215376 0.015913 -0.001590
v -0.252872 0.037207 0.029393
v -0.255641 0.037725 0.028851
v -0.254936 0.049264 0.018099
v -0.255304 0.054528 0.019574
v -0.209954 0.037742 -0.049100
v -0.212456 0.040538 -0.046027
v -0.211119 0.041989 -0.045933
v -0.227212 0.020456 -0.012485
v -0.214678 0.017825 -0.006143
v -0.219379 0.017361 -0.003702
v -0.196240 0.042768 -0.023685
v -0.194521 0.043125 -0.029968
v -0.197677 0.043448 -0.030698
v -0.198281 0.043199 -0.026569
v -0.201268 0.043289 -0.031063
v -0.202126 0.043162 -0.025887
v -0.232165 0.033223 -0.015521
v -0.219780 0.039519 -0.030407
v -0.216900 0.036703 -0.037108
v -0.220362 0.030588 -0.034194
v -0.233628 0.028522 -0.013535
v -0.222109 0.025799 -0.031315
v -0.216074 0.047219 -0.033860
v -0.217449 0.045869 -0.034069
v -0.232053 0.047097 -0.010865
v -0.230238 0.049808 -0.011108
v -0.214868 0.042483 -0.040411
v -0.197305 0.023332 -0.044244
v -0.201459 0.021175 -0.046091
v -0.200659 0.030188 -0.048874
v -0.198404 0.029974 -0.047237
v -0.207632 0.043221 -0.045056
v -0.205989 0.038482 -0.048565
v -0.195418 0.035506 -0.045512
v -0.196461 0.038239 -0.041933
v -0.189811 0.033946 -0.042448
v -0.205089 0.043889 -0.029238
v -0.206403 0.045251 -0.038941
v -0.210036 0.046167 -0.040123
v -0.212469 0.048186 -0.031995
v -0.210464 0.047243 -0.031454
v -0.194561 0.038607 -0.015999
v -0.190598 0.040651 -0.022621
v -0.214351 0.019239 -0.042100
v -0.211048 0.022510 -0.048430
v -0.205630 0.020524 -0.047481
v -0.207881 0.016516 -0.040252
v -0.200357 0.016707 -0.023726
v -0.210536 0.016748 -0.032179
v -0.217772 0.020020 -0.035284
v -0.204785 0.017117 -0.031235
v -0.202932 0.017311 -0.037484
v -0.200875 0.019882 -0.037561
v -0.202738 0.018014 -0.032030
v -0.198304 0.018562 -0.030512
v -0.196227 0.020368 -0.036378
v -0.228575 0.049407 -0.015329
v -0.235662 0.052999 -0.007277
v -0.232400 0.052584 -0.004880
v -0.226497 0.048255 -0.013797
v -0.188673 0.040937 -0.027866
v -0.203255 0.042773 -0.043053
v -0.201071 0.037914 -0.047160
v -0.206154 0.031484 -0.050460
v -0.209807 0.031834 -0.050172
v -0.189851 0.029436 -0.042972
v -0.190144 0.024884 -0.041630
v -0.195139 0.024098 -0.044258
v -0.195668 0.029695 -0.046374
v -0.213096 0.045349 -0.040899
v -0.231488 0.023036 -0.016618
v -0.219631 0.021654 -0.037036
v -0.237769 0.050493 -0.007187
v -0.241583 0.031165 -0.007642
v -0.238016 0.035621 -0.008834
v -0.233762 0.024676 -0.012040
v -0.219596 0.019144 -0.016467
v -0.233211 0.043306 -0.010202
v -0.216335 0.027913 -0.039793
v -0.195795 0.042685 -0.033237
v -0.204664 0.016899 -0.025042
v -0.206078 0.017021 -0.023830
v -0.214351 0.034236 -0.042903
v -0.198031 0.036974 -0.045994
v -0.199965 0.040369 -0.042017
v -0.209011 0.016444 -0.012119
v -0.254175 0.040502 0.033945
v -0.252867 0.054483 0.018382
v -0.251923 0.054516 0.017434
v -0.254934 0.045747 0.029875
v -0.250193 0.033483 0.033071
v -0.250909 0.036572 0.032487
v -0.249483 0.034817 0.038502
v -0.256556 0.046084 0.030846
v -0.250148 0.056617 0.014256
v -0.251140 0.041029 0.029368
v -0.256199 0.038286 0.035223
v -0.252475 0.027809 0.026787
v -0.249319 0.027885 0.026463
v -0.249866 0.029247 0.029718
v -0.252780 0.046898 0.020277
v -0.252010 0.047947 0.021090
v -0.249738 0.050309 0.017165
v -0.251685 0.050992 0.020448
v -0.245833 0.053279 0.008039
v -0.245601 0.056811 0.006999
v -0.248253 0.056981 0.011275
v -0.248828 0.054359 0.015392
v -0.249083 0.055875 0.015086
v -0.251956 0.056134 0.017049
v -0.242197 0.055024 0.000848
v -0.244996 0.055019 -0.000687
v -0.250665 0.028498 -0.000002
v -0.256770 0.028672 0.028707
v -0.258495 0.029353 0.032286
v -0.259939 0.030445 0.032074
v -0.259919 0.029483 0.028020
v -0.257761 0.025980 0.014544
v -0.261057 0.031696 0.012327
v -0.257728 0.026531 0.005888
v -0.254886 0.041914 0.001205
v -0.244549 0.038634 -0.003689
v -0.216611 0.040499 0.003697
v -0.217329 0.025949 0.009924
v -0.201130 0.025189 0.005890
v -0.200679 0.020047 0.006070
v -0.200680 0.017350 0.003929
v -0.217991 0.016652 0.007677
v -0.201193 0.016496 0.001980
v -0.242450 0.033788 0.013044
v -0.251343 0.056037 0.011916
v -0.249115 0.056440 0.012477
v -0.255194 0.052680 0.019029
v -0.258286 0.054232 0.014796
v -0.249633 0.052701 0.015547
v -0.248896 0.050598 0.015260
v -0.249816 0.048922 0.017507
v -0.251714 0.049594 0.020742
v -0.255850 0.049982 0.025316
v -0.255966 0.044197 0.023375
v -0.255340 0.042580 0.024577
v -0.256283 0.038619 0.027839
v -0.255717 0.041163 0.035784
v -0.255914 0.035120 0.027485
v -0.260061 0.032339 0.026830
v -0.260775 0.033828 0.030896
v -0.248692 0.031540 0.029262
v -0.248530 0.034223 0.029224
v -0.252832 0.032810 0.040030
v -0.252185 0.035232 0.040307
v -0.255251 0.035437 0.040380
v -0.255347 0.033057 0.039855
v -0.248872 0.031099 0.026206
v -0.251800 0.032691 0.039547
v -0.221691 0.020080 0.010986
v -0.245611 0.029583 0.014409
v -0.250868 0.035058 0.039640
v -0.250086 0.047638 0.018146
v -0.251824 0.046537 0.018509
v -0.257582 0.030832 0.036545
v -0.245723 0.031809 0.014530
v -0.251339 0.036518 0.028306
v -0.248689 0.033855 0.026099
v -0.256723 0.037453 0.038494
v -0.250494 0.022262 0.014600
v -0.251299 0.023400 0.020448
v -0.251138 0.047277 -0.000623
v -0.255156 0.029868 0.035791
v -0.217369 0.019690 0.010013
v -0.253330 0.038018 0.038461
v -0.237319 0.017804 0.012372
v -0.241244 0.044710 -0.005497
v -0.246645 0.052179 -0.000304
v -0.257501 0.054934 0.004956
v -0.254222 0.049882 0.024400
v -0.252428 0.046525 0.025920
v -0.253088 0.047243 0.024578
v -0.253571 0.041970 0.025810
v -0.260298 0.054341 0.009911
v 0.291353 -0.007581 -0.061544
v 0.317483 -0.037372 -0.050388
v 0.272602 -0.032624 -0.072440
v 0.370340 -0.053397 0.001909
v 0.325545 -0.070105 -0.010298
v 0.296982 -0.020761 0.040008
v 0.213967 -0.020651 0.022794
v 0.294199 -0.065235 0.026019
v 0.251357 -0.067129 -0.062378
v 0.232071 -0.080692 -0.046764
v 0.312924 -0.070920 -0.030035
v 0.195982 -0.058921 0.034483
v 0.354251 -0.011184 0.035958
v 0.225144 -0.006270 -0.056772
v 0.359528 -0.017406 -0.037604
v 0.364131 -0.045208 0.028792
v 0.412050 -0.043724 -0.047437
v 0.365679 -0.043807 -0.029847
v 0.419672 -0.064765 -0.029032
v 0.415424 -0.013223 0.051737
v 0.419300 -0.006037 -0.050996
v 0.420399 -0.057198 0.039674
v 0.011937 -0.013216 -0.036988
v 0.073196 -0.043109 -0.046929
v 0.183856 -0.069578 -0.042564
v 0.022721 -0.046526 -0.042882
v 0.055785 -0.058619 -0.014459
v -0.028238 -0.028088 -0.055036
v 0.034384 -0.008161 -0.013221
v -0.009036 -0.055825 -0.012177
v 0.195706 -0.010211 -0.031172
v 0.210754 -0.087039 -0.022989
v 0.214215 -0.027235 -0.066944
v 0.188956 -0.033848 -0.047256
v 0.230273 -0.054969 -0.069979
v 0.078759 -0.026812 0.013228
v 0.024976 -0.034998 0.004536
v 0.088516 -0.053661 0.014151
v 0.112730 -0.001986 -0.023295
v 0.211502 -0.083843 0.015238
v 0.146979 -0.015806 -0.044151
v 0.145709 -0.078381 0.002183
v -0.063039 -0.063550 -0.038499
v 0.151053 -0.010199 0.009371
v 0.162408 -0.070632 0.025274
v 0.148885 -0.049781 0.031278
v -0.126745 -0.018542 -0.017652
v -0.067757 -0.033937 -0.058112
v -0.127871 -0.017893 -0.040464
v -0.071586 -0.056069 -0.050879
v -0.155527 -0.043632 -0.031064
v -0.037745 -0.052728 -0.054232
v -0.065179 -0.006090 -0.032719
v -0.154817 -0.015769 -0.032431
v -0.043538 -0.031573 -0.004694
v -0.155005 -0.031982 -0.005727
v -0.059667 -0.059759 -0.014951
v -0.155560 -0.043567 -0.032946
v -0.154962 -0.017105 -0.022640
v -0.155422 -0.025556 -0.039050
v -0.155944 -0.044538 -0.016597
v -0.156168 -0.045203 -0.021064
v -0.154776 -0.033170 -0.039733
v -0.154567 -0.038999 -0.038332
v -0.154623 -0.019474 -0.012232
v -0.172249 -0.017402 -0.009712
v -0.172215 -0.016396 -0.012152
v -0.182717 -0.018745 -0.004518
v -0.172519 -0.019288 -0.006639
v -0.182981 -0.016824 -0.007451
v -0.180207 -0.022667 -0.001299
v -0.173790 -0.022390 -0.002889
v -0.181168 -0.020189 -0.002641
v -0.154969 -0.024456 -0.006529
v -0.183084 -0.014777 -0.019249
v -0.172948 -0.016073 -0.019097
v -0.182506 -0.015850 -0.021891
v -0.154876 -0.042149 -0.035961
v -0.175460 -0.033010 -0.038173
v -0.175787 -0.036473 -0.035194
v -0.174725 -0.029071 -0.039452
v -0.173157 -0.016581 -0.032441
v -0.173781 -0.019899 -0.037342
v -0.155228 -0.020203 -0.037318
v -0.172783 -0.017477 -0.023516
v -0.174400 -0.023214 -0.039220
v -0.175952 -0.038887 -0.030925
v -0.182152 -0.035008 -0.035839
v -0.181819 -0.037441 -0.032162
v -0.181748 -0.039421 -0.028004
v -0.176011 -0.039797 -0.025926
v -0.182131 -0.040162 -0.022691
v -0.175762 -0.041129 -0.020541
v -0.183048 -0.038344 -0.016915
v -0.175406 -0.039846 -0.015234
v -0.184673 -0.014444 -0.014512
v -0.182325 -0.032395 -0.039666
v -0.183212 -0.021341 -0.040174
v -0.183179 -0.024400 -0.042115
v -0.187349 -0.021630 -0.040514
v -0.187833 -0.017948 -0.033724
v -0.183677 -0.017621 -0.033932
v -0.187307 -0.024827 -0.042519
v -0.186486 -0.032309 -0.039658
v -0.182290 -0.029252 -0.041550
v -0.186446 -0.029433 -0.041873
v -0.185901 -0.039381 -0.028243
v -0.185917 -0.036866 -0.032158
v -0.187169 -0.038172 -0.016912
v -0.186258 -0.039962 -0.022626
v -0.186320 -0.014852 -0.019962
v -0.188459 -0.014356 -0.014718
v -0.186097 -0.015885 -0.021922
v -0.174391 -0.032750 -0.004393
v -0.155131 -0.036238 -0.005863
v -0.173627 -0.027359 -0.002200
v -0.154788 -0.030994 -0.004651
v -0.175021 -0.036536 -0.008453
v -0.155496 -0.040754 -0.010539
v -0.182878 -0.036664 -0.010052
v -0.182646 -0.015313 -0.009661
v -0.186217 -0.014977 -0.009107
v -0.186777 -0.016139 -0.007602
v -0.182030 -0.033830 -0.004884
v -0.195358 -0.034462 0.000893
v -0.187045 -0.036874 -0.009924
v -0.181163 -0.027416 -0.001446
v -0.195161 -0.027646 0.003229
v -0.196011 -0.018696 0.001370
v -0.195024 -0.020004 0.002499
v -0.156177 -0.045115 -0.026167
v -0.154752 -0.017241 -0.017858
v -0.183974 -0.017532 -0.025353
v -0.194297 -0.022861 0.003306
v -0.187998 -0.017467 -0.024677
v -0.186241 -0.034459 -0.035569
v -0.190168 -0.036104 -0.039032
v -0.188239 -0.036365 -0.034481
v -0.193646 -0.037886 -0.036326
v -0.191481 -0.020820 -0.034970
v -0.193780 -0.019020 -0.028785
v -0.190130 -0.018649 -0.027177
v -0.194684 -0.016565 -0.021733
v -0.189436 -0.017146 -0.024501
v -0.192369 -0.014191 -0.016921
v -0.201340 -0.014789 -0.003404
v -0.216904 -0.045676 -0.005588
v -0.220933 -0.047819 -0.005833
v -0.214408 -0.045906 -0.012691
v -0.188896 -0.015259 -0.022164
v -0.189784 -0.013540 -0.010670
v -0.204880 -0.015816 -0.011621
v -0.210236 -0.015428 -0.007496
v -0.258332 -0.045526 0.030675
v -0.258811 -0.043735 0.030368
v -0.260346 -0.044953 0.027465
v -0.258325 -0.041981 0.034294
v -0.258084 -0.040477 0.035496
v -0.259864 -0.039635 0.032922
v -0.252409 -0.041429 0.029021
v -0.255012 -0.042545 0.030032
v -0.255570 -0.040794 0.028464
v -0.260705 -0.042617 0.028127
v -0.249403 -0.042365 0.021826
v -0.250260 -0.040581 0.023457
v -0.249455 -0.043071 0.023055
v -0.249263 -0.045205 0.020908
v -0.257901 -0.051789 0.017235
v -0.256603 -0.052705 0.018989
v -0.260287 -0.053757 0.017145
v -0.257110 -0.028271 0.026053
v -0.255963 -0.027522 0.026496
v -0.256652 -0.026772 0.020373
v -0.247881 -0.021513 0.014049
v -0.247043 -0.022194 0.014090
v -0.248258 -0.025658 0.017168
v -0.242601 -0.021493 0.013229
v -0.240844 -0.024616 0.015464
v -0.201360 -0.032592 0.003648
v -0.202996 -0.036981 -0.001019
v -0.193616 -0.035750 -0.008517
v -0.222515 -0.034920 0.009217
v -0.231176 -0.038526 0.012781
v -0.216143 -0.033765 0.008399
v -0.237930 -0.016115 0.008906
v -0.217964 -0.015503 0.003955
v -0.235160 -0.016827 0.004523
v -0.246804 -0.049344 0.013174
v -0.242365 -0.046471 0.009709
v -0.246717 -0.047017 0.013632
v -0.257429 -0.034589 0.022183
v -0.259862 -0.036218 0.009171
v -0.257312 -0.036900 0.021030
v -0.247401 -0.034804 0.017196
v -0.250056 -0.036021 0.024764
v -0.248477 -0.038234 0.023647
v -0.247812 -0.053738 0.014269
v -0.247662 -0.055133 0.013966
v -0.245993 -0.054337 0.012133
v -0.247264 -0.050849 0.012996
v -0.249598 -0.051338 0.014241
v -0.246258 -0.052112 0.012476
v -0.250001 -0.051266 0.015591
v -0.252916 -0.050863 0.015925
v -0.252032 -0.051992 0.018421
v -0.260740 -0.048971 0.022145
v -0.257069 -0.049373 0.025229
v -0.257272 -0.051097 0.024215
v -0.242196 -0.043993 0.010727
v -0.248285 -0.044852 0.014926
v -0.258266 -0.035808 0.038227
v -0.257139 -0.034494 0.040024
v -0.259657 -0.033962 0.036641
v -0.259014 -0.031304 0.036684
v -0.257199 -0.032928 0.039474
v -0.242489 -0.048407 0.008079
v -0.244673 -0.049124 0.009733
v -0.255976 -0.035351 0.024638
v -0.255022 -0.036480 0.025172
v -0.256525 -0.043077 0.031020
v -0.254451 -0.042326 0.033247
v -0.255799 -0.042868 0.034364
v -0.254885 -0.047977 0.027860
v -0.254813 -0.047459 0.028986
v -0.256312 -0.047768 0.029847
v -0.254894 -0.047089 0.016714
v -0.258662 -0.046466 0.016005
v -0.257622 -0.049988 0.013323
v -0.260088 -0.047537 0.023852
v -0.253638 -0.050602 0.014082
v -0.255229 -0.049185 0.015176
v -0.252260 -0.050873 0.014952
v -0.254063 -0.051497 0.023862
v -0.254657 -0.052222 0.022685
v -0.255371 -0.051789 0.024545
v -0.253356 -0.050815 0.017415
v -0.255514 -0.051764 0.016469
v -0.252217 -0.051951 0.014128
v -0.254417 -0.046370 0.019482
v -0.257990 -0.042466 0.019285
v -0.257197 -0.044861 0.008045
v -0.233083 -0.020233 -0.001809
v -0.242423 -0.025896 -0.005137
v -0.237911 -0.019397 0.001570
v -0.251693 -0.056344 0.011029
v -0.254382 -0.056117 0.004695
v -0.252581 -0.055956 0.010428
v -0.254127 -0.028078 0.032551
v -0.252784 -0.027864 0.029580
v -0.255675 -0.027802 0.032427
v -0.249647 -0.033299 -0.002318
v -0.255911 -0.035210 0.003291
v -0.257002 -0.032527 0.004042
v -0.235610 -0.051199 0.002528
v -0.238089 -0.048096 0.005595
v -0.253598 -0.056465 0.017613
v -0.252638 -0.055810 0.018365
v -0.254507 -0.055841 0.019131
v -0.255979 -0.043701 0.021136
v -0.255460 -0.041732 0.023385
v -0.253339 -0.029471 0.035883
v -0.252302 -0.029827 0.035475
v -0.257306 -0.046332 0.023132
v -0.251594 -0.055871 0.013896
v -0.255222 -0.056107 0.015878
v -0.252815 -0.056802 0.016498
v -0.253618 -0.052028 0.013666
v -0.260516 -0.052333 0.011263
v -0.248170 -0.020241 0.009647
v -0.237019 -0.043995 0.008158
v -0.234892 -0.046741 0.004330
v -0.253105 -0.053880 0.013597
v -0.256750 -0.054160 0.012859
v -0.258540 -0.047052 0.029606
v -0.246941 -0.040075 0.016371
v -0.247376 -0.037742 0.017901
v -0.252373 -0.042973 0.027171
v -0.252146 -0.044353 0.026826
v -0.256558 -0.053956 0.019369
v -0.240902 -0.040328 0.012216
v -0.258373 -0.038218 0.020362
v -0.251290 -0.046280 0.017956
v -0.250428 -0.046171 0.019182
v -0.248068 -0.052370 0.014827
v -0.259542 -0.047088 0.027259
v -0.258340 -0.038429 0.035224
v -0.258705 -0.037569 0.033799
v -0.256183 -0.033751 0.025467
v -0.260825 -0.030633 0.023787
v -0.260650 -0.031827 0.017766
v -0.258636 -0.041830 0.031635
v -0.255389 -0.040191 0.024657
v -0.256758 -0.037705 0.025130
v -0.248777 -0.039346 0.023860
v -0.249320 -0.046847 0.017223
v -0.248761 -0.048253 0.016184
v -0.253631 -0.046564 0.017735
v -0.256289 -0.055223 0.018914
v -0.255729 -0.055932 0.016960
v -0.221579 -0.027120 0.010931
v -0.241018 -0.027160 0.014857
v -0.241155 -0.030598 0.014761
v -0.187983 -0.038325 -0.031336
v -0.192816 -0.041087 -0.033277
v -0.194306 -0.039372 -0.035101
v -0.214093 -0.025602 -0.044093
v -0.215225 -0.020887 -0.042375
v -0.212337 -0.023801 -0.047867
v -0.230026 -0.050351 -0.003076
v -0.244947 -0.050557 0.009323
v -0.246813 -0.042997 0.015502
v -0.255484 -0.037490 0.031614
v -0.256493 -0.036753 0.034202
v -0.255027 -0.037307 0.034365
v -0.258419 -0.036563 0.036455
v -0.258867 -0.036056 0.031163
v -0.256988 -0.037599 0.036227
v -0.211208 -0.031958 -0.049224
v -0.211277 -0.037005 -0.048336
v -0.212326 -0.032747 -0.046736
v -0.256500 -0.049535 0.006728
v -0.250097 -0.035255 0.025522
v -0.254000 -0.048694 0.016204
v -0.252248 -0.051650 0.020239
v -0.254246 -0.050979 0.018140
v -0.256841 -0.051932 0.022412
v -0.250117 -0.040198 0.024581
v -0.245812 -0.022795 0.004860
v -0.246016 -0.022115 0.008185
v -0.251223 -0.029800 0.033536
v -0.252494 -0.038249 0.035088
v -0.250524 -0.037142 0.036524
v -0.251745 -0.037278 0.038479
v -0.256243 -0.041708 0.028987
v -0.255765 -0.047300 0.025364
v -0.254888 -0.046210 0.023644
v -0.254378 -0.047328 0.024560
v -0.201418 -0.040696 -0.014982
v -0.217736 -0.044248 0.000003
v -0.253889 -0.036419 0.035207
v -0.253200 -0.037657 0.031811
v -0.251781 -0.036927 0.030552
v -0.251390 -0.038450 0.030233
v -0.250151 -0.032057 0.038596
v -0.202005 -0.041990 -0.036801
v -0.198922 -0.039947 -0.037687
v -0.199386 -0.041603 -0.034612
v -0.215301 -0.015629 -0.001419
v -0.252698 -0.036762 0.029794
v -0.255464 -0.037298 0.029258
v -0.254705 -0.048950 0.018631
v -0.255048 -0.054200 0.020163
v -0.209777 -0.037945 -0.048690
v -0.212265 -0.040720 -0.045586
v -0.210921 -0.042164 -0.045476
v -0.214594 -0.017587 -0.005951
v -0.227116 -0.020345 -0.012264
v -0.219298 -0.017118 -0.003515
v -0.194318 -0.043048 -0.029500
v -0.196039 -0.042631 -0.023222
v -0.197472 -0.043394 -0.030227
v -0.198077 -0.043103 -0.026101
v -0.201065 -0.043256 -0.030594
v -0.201923 -0.043077 -0.025419
v -0.219594 -0.039566 -0.029979
v -0.232009 -0.033168 -0.015161
v -0.216727 -0.036810 -0.036710
v -0.220218 -0.030679 -0.033862
v -0.233494 -0.028452 -0.013226
v -0.221988 -0.025868 -0.031034
v -0.217233 -0.045944 -0.033571
v -0.215852 -0.047285 -0.033348
v -0.231831 -0.046990 -0.010355
v -0.230003 -0.049695 -0.010568
v -0.214668 -0.042615 -0.039950
v -0.201359 -0.021308 -0.045861
v -0.197195 -0.023423 -0.043990
v -0.200518 -0.030346 -0.048546
v -0.198263 -0.030103 -0.046911
v -0.207428 -0.043370 -0.044586
v -0.205807 -0.038661 -0.048147
v -0.196281 -0.038302 -0.041518
v -0.195251 -0.035603 -0.045126
v -0.189651 -0.033983 -0.042079
v -0.204883 -0.043854 -0.028762
v -0.209819 -0.046274 -0.039622
v -0.206189 -0.045328 -0.038449
v -0.212242 -0.048215 -0.031472
v -0.210242 -0.047258 -0.030941
v -0.194380 -0.038379 -0.015582
v -0.190407 -0.040476 -0.022181
v -0.210942 -0.022713 -0.048184
v -0.214260 -0.019389 -0.041891
v -0.205534 -0.020690 -0.047257
v -0.207804 -0.016616 -0.040073
v -0.200279 -0.016592 -0.023545
v -0.217678 -0.020111 -0.035067
v -0.210458 -0.016771 -0.031997
v -0.202852 -0.017357 -0.037296
v -0.204705 -0.017104 -0.031049
v -0.200782 -0.019920 -0.037345
v -0.202653 -0.018000 -0.031835
v -0.196131 -0.020370 -0.036157
v -0.198216 -0.018511 -0.030311
v -0.228343 -0.049330 -0.014794
v -0.235413 -0.052870 -0.006703
v -0.232153 -0.052412 -0.004311
v -0.226270 -0.048152 -0.013274
v -0.188482 -0.040810 -0.027423
v -0.203053 -0.042879 -0.042588
v -0.200892 -0.038054 -0.046748
v -0.206005 -0.031684 -0.050117
v -0.209657 -0.032049 -0.049826
v -0.190026 -0.024914 -0.041360
v -0.189712 -0.029480 -0.042652
v -0.195025 -0.024181 -0.043996
v -0.195528 -0.029802 -0.046051
v -0.212883 -0.045478 -0.040406
v -0.231379 -0.022990 -0.016369
v -0.219528 -0.021772 -0.036801
v -0.237531 -0.050372 -0.006640
v -0.241437 -0.031068 -0.007304
v -0.237849 -0.035520 -0.008448
v -0.233646 -0.024590 -0.011773
v -0.219507 -0.019040 -0.016260
v -0.233008 -0.043197 -0.009733
v -0.216203 -0.028046 -0.039490
v -0.195594 -0.042650 -0.032775
v -0.204585 -0.016819 -0.024859
v -0.205998 -0.016933 -0.023646
v -0.214189 -0.034394 -0.042531
v -0.197857 -0.037088 -0.045593
v -0.199775 -0.040449 -0.041579
v -0.208935 -0.016243 -0.011942
v -0.253986 -0.040014 0.034381
v -0.252612 -0.054156 0.018971
v -0.251668 -0.054195 0.018023
v -0.254720 -0.045305 0.030369
v -0.250738 -0.036083 0.032881
v -0.250037 -0.032986 0.033432
v -0.249321 -0.034256 0.038877
v -0.256340 -0.045640 0.031343
v -0.249882 -0.056322 0.014869
v -0.250948 -0.040575 0.029810
v -0.256020 -0.037793 0.035636
v -0.249189 -0.027454 0.026763
v -0.252345 -0.027390 0.027086
v -0.249730 -0.028784 0.030033
v -0.252560 -0.046549 0.020784
v -0.251785 -0.047586 0.021608
v -0.251446 -0.050638 0.020999
v -0.249502 -0.049980 0.017709
v -0.245583 -0.053031 0.008615
v -0.247985 -0.056709 0.011891
v -0.245335 -0.056573 0.007614
v -0.248573 -0.054046 0.015980
v -0.248821 -0.055564 0.015690
v -0.251692 -0.055816 0.017656
v -0.241939 -0.054836 0.001443
v -0.244738 -0.054861 -0.000091
v -0.250532 -0.028362 0.000307
v -0.258358 -0.028903 0.032602
v -0.256636 -0.028252 0.029016
v -0.259797 -0.030004 0.032402
v -0.259781 -0.029085 0.028338
v -0.260909 -0.031474 0.012669
v -0.257639 -0.025719 0.014825
v -0.257603 -0.026363 0.006175
v -0.244368 -0.038508 -0.003270
v -0.254690 -0.041782 0.001659
v -0.216421 -0.040161 0.004134
v -0.217208 -0.025549 0.010203
v -0.201012 -0.024756 0.006161
v -0.200586 -0.019609 0.006285
v -0.217913 -0.016279 0.007855
v -0.200599 -0.016935 0.004115
v -0.201117 -0.016106 0.002157
v -0.242292 -0.033470 0.013409
v -0.251080 -0.055773 0.012522
v -0.248850 -0.056158 0.013087
v -0.254947 -0.052356 0.019598
v -0.258031 -0.053970 0.015383
v -0.249386 -0.052389 0.016117
v -0.248658 -0.050287 0.015807
v -0.251481 -0.049237 0.021278
v -0.249586 -0.048589 0.018035
v -0.255615 -0.049593 0.025856
v -0.255759 -0.043832 0.023853
v -0.255141 -0.042198 0.025037
v -0.256102 -0.038207 0.028256
v -0.255525 -0.040661 0.036228
v -0.259909 -0.031955 0.027179
v -0.255750 -0.034709 0.027864
v -0.260617 -0.033402 0.031261
v -0.248545 -0.031076 0.029602
v -0.248370 -0.033758 0.029592
v -0.252020 -0.034665 0.040685
v -0.252678 -0.032249 0.040383
v -0.255086 -0.034884 0.040761
v -0.255193 -0.032510 0.040210
v -0.248727 -0.030670 0.026540
v -0.251647 -0.032130 0.039898
v -0.221598 -0.019689 0.011202
v -0.245473 -0.029266 0.014728
v -0.250704 -0.034492 0.040017
v -0.249863 -0.047300 0.018661
v -0.251606 -0.046203 0.019012
v -0.257438 -0.030331 0.036876
v -0.245574 -0.031490 0.014874
v -0.251168 -0.036076 0.028700
v -0.248531 -0.033425 0.026463
v -0.256548 -0.036927 0.038898
v -0.250390 -0.021967 0.014840
v -0.251190 -0.023046 0.020699
v -0.250916 -0.047147 -0.000111
v -0.255017 -0.029365 0.036112
v -0.217277 -0.019289 0.010224
v -0.253153 -0.037476 0.038870
v -0.237236 -0.017472 0.012563
v -0.241034 -0.044588 -0.005013
v -0.246400 -0.052024 0.000261
v -0.257243 -0.054774 0.005551
v -0.253988 -0.049496 0.024939
v -0.252210 -0.046115 0.026422
v -0.252867 -0.046850 0.025089
v -0.253375 -0.041566 0.026263
v -0.260043 -0.054140 0.010499
v -0.260601 0.052582 -0.007803
v -0.260035 0.042990 0.042495
v -0.270725 0.019069 0.000436
v -0.261181 0.019612 0.015416
v -0.280772 0.024253 0.027094
v -0.281135 0.053642 -0.000436
v -0.252470 0.020394 -0.005311
v -0.260091 0.052653 -0.004433
v -0.233384 0.033267 -0.020251
v -0.255329 0.019148 0.014133
v -0.249394 0.039850 0.031616
v -0.256424 0.058451 0.006625
v -0.247441 0.038387 0.020872
v -0.265150 0.031704 -0.032650
v -0.228045 0.032788 -0.021115
v -0.215305 0.041431 -0.042006
v -0.212957 0.018366 -0.042615
v -0.218379 0.046823 -0.026308
v -0.189935 0.038537 -0.044938
v -0.219389 0.019196 -0.021183
v -0.187943 0.018658 -0.038046
v -0.182955 0.034936 -0.038531
v -0.184375 0.038903 -0.008383
v -0.184171 0.016370 -0.035345
v -0.181528 0.018251 -0.007918
v -0.281022 0.035168 0.029810
v -0.282166 0.053532 -0.001115
v -0.282700 0.031337 -0.029008
v -0.282734 0.030771 -0.032324
v -0.183032 0.042692 -0.012014
v -0.183396 0.041252 -0.016042
v -0.179850 0.042528 -0.021291
v -0.179891 0.041685 -0.021616
v -0.183716 0.042813 -0.020961
v -0.180981 0.042094 -0.014322
v -0.183716 0.043195 -0.022904
v -0.186718 0.043530 -0.016069
v -0.187348 0.042839 -0.020168
v -0.185359 0.042356 -0.012360
v -0.184698 0.042456 -0.012422
v -0.180703 0.041688 -0.012553
v -0.179476 0.042524 -0.014206
v -0.260354 -0.052575 -0.007233
v -0.259834 -0.042436 0.042959
v -0.261089 -0.019358 0.015627
v -0.270636 -0.019023 0.000642
v -0.280658 -0.023964 0.027356
v -0.280883 -0.053651 0.000146
v -0.252374 -0.020323 -0.005090
v -0.259843 -0.052608 -0.003862
v -0.233228 -0.033268 -0.019890
v -0.255239 -0.018881 0.014339
v -0.249208 -0.039363 0.032045
v -0.256150 -0.058267 0.007258
v -0.247262 -0.038008 0.021286
v -0.281513 -0.031985 -0.029763
v -0.227881 -0.044506 -0.022449
v -0.215110 -0.041583 -0.041555
v -0.212870 -0.018515 -0.042415
v -0.227901 -0.021040 -0.019069
v -0.218159 -0.046819 -0.025800
v -0.189753 -0.038600 -0.044520
v -0.219299 -0.019142 -0.020975
v -0.187149 -0.018491 -0.038010
v -0.184353 -0.033649 -0.038642
v -0.180604 -0.041317 -0.023448
v -0.184314 -0.015339 -0.030599
v -0.181443 -0.017876 -0.007722
v -0.280858 -0.034850 0.030190
v -0.281914 -0.053554 -0.000535
v -0.282551 -0.031666 -0.028666
v -0.282589 -0.031136 -0.031988
v -0.182834 -0.042384 -0.011560
v -0.183287 -0.040989 -0.015578
v -0.179695 -0.041449 -0.021165
v -0.179651 -0.042288 -0.020831
v -0.183473 -0.042655 -0.020570
v -0.180784 -0.041784 -0.013867
v -0.187151 -0.043481 -0.019803
v -0.183514 -0.042991 -0.022436
v -0.187147 -0.042622 -0.019705
v -0.186019 -0.043030 -0.011638
v -0.183797 -0.041771 -0.011004
v -0.183395 -0.041540 -0.011664
v -0.180507 -0.041357 -0.012103
v -0.179277 -0.042205 -0.013746
v 0.374269 -0.059415 -0.002832
v 0.306267 -0.076678 0.014497
v 0.374649 -0.041187 0.036139
v 0.297909 -0.058087 0.034075
v 0.306504 -0.028576 0.046540
v 0.357621 0.007214 0.049121
v 0.357508 0.035306 0.044676
v 0.374369 0.054098 0.030478
v 0.305896 0.081244 0.013641
v 0.356764 0.064141 -0.018013
v 0.339523 0.045169 -0.038966
v 0.339494 0.011261 -0.048819
v 0.339617 -0.025050 -0.045198
v 0.356942 -0.053517 -0.026542
v 0.305853 -0.083699 -0.025284
v 0.272275 0.026248 0.047453
v 0.280619 0.056935 0.036927
v 0.305450 0.087832 -0.026214
v 0.288136 0.074147 -0.052913
v 0.305148 0.035540 -0.065193
v 0.305211 -0.009660 -0.068950
v 0.271119 -0.045764 -0.074699
v 0.220928 -0.092143 0.006161
v 0.254604 -0.091909 -0.034356
v 0.212060 0.091861 0.013782
v 0.220278 0.099438 -0.013283
v 0.237099 0.097739 -0.035452
v 0.270922 0.025444 -0.077808
v 0.254343 -0.078550 -0.055620
v 0.170145 -0.045796 0.051745
v 0.170147 -0.010204 0.059548
v 0.183481 0.060296 0.045284
v 0.236865 0.079796 -0.060904
v 0.236749 0.051257 -0.077652
v 0.236847 -0.011247 -0.081902
v 0.237060 -0.058261 -0.072140
v 0.178038 -0.093155 -0.016978
v 0.170074 -0.065721 0.040984
v 0.168904 0.089565 -0.034164
v 0.185688 0.014103 -0.075420
v 0.177325 -0.035213 -0.070623
v 0.164861 -0.073951 -0.048480
v 0.170047 0.027029 0.058182
v 0.042009 -0.078884 0.025455
v 0.041630 0.082325 0.024581
v 0.024396 0.090255 0.009924
v 0.017423 0.065625 -0.048589
v 0.016204 -0.089177 0.002994
v -0.000497 -0.010117 0.052701
v -0.001832 0.024710 -0.063390
v -0.043176 -0.052288 0.040260
v 0.006867 -0.033735 -0.059954
v 0.015684 -0.071316 -0.041286
v -0.171459 0.061818 0.031552
v -0.022764 0.090453 -0.013469
v -0.034711 0.013321 0.048283
v -0.052493 -0.078007 -0.038116
v -0.068683 -0.031568 0.051868
v -0.069918 0.079105 -0.038783
v -0.070040 0.000960 -0.066675
v -0.069803 -0.053339 -0.056292
v -0.171583 -0.074651 -0.008908
v -0.137194 -0.072798 0.016914
v -0.070059 0.055369 -0.056882
v -0.119894 -0.039978 0.046420
v -0.102931 -0.009501 0.044272
v -0.171202 0.011289 0.044589
v -0.171804 0.076783 0.002827
v -0.171997 0.071522 -0.016185
v -0.172192 0.055322 -0.037637
v -0.172217 -0.019149 -0.055712
v -0.171172 -0.045196 0.035368
v -0.171936 -0.053564 -0.037047
v -0.171152 -0.065420 0.032861
v 0.415530 -0.002707 -0.060860
v 0.413483 -0.043217 -0.056009
v 0.489320 0.099374 -0.058037
v 0.437323 0.041005 -0.058276
v 0.410370 0.074831 -0.024755
v 0.464554 0.049746 0.076118
v 0.471405 0.069017 0.067639
v 0.440798 -0.063479 -0.053393
v 0.498247 -0.092614 -0.065002
v 0.452103 0.082149 0.016655
v 0.484396 0.101677 -0.000931
v 0.411817 -0.074351 -0.024993
v 0.482927 -0.098323 -0.032847
v 0.484586 -0.086626 0.028170
v 0.472238 -0.069417 0.062822
v 0.412199 -0.076361 0.009882
v 0.497557 0.032249 -0.071403
v 0.498765 -0.032814 -0.075546
v 0.412185 0.057516 -0.046532
v 0.416302 0.003282 0.063149
v 0.434429 -0.010913 0.072828
v 0.425034 0.046548 0.067435
v 0.412552 0.064291 0.043422
v 0.465448 -0.056134 0.072968
v 0.477585 -0.049492 0.071308
v 0.414290 -0.047034 0.056301
v 0.484998 0.056491 0.067496
v 0.520804 -0.077586 0.027012
v 0.549838 -0.023729 -0.054986
v 0.557231 -0.072155 -0.054830
v 0.556483 -0.071236 0.000638
v 0.543553 -0.014786 0.016668
v 0.515451 -0.120492 0.018665
v 0.530962 0.027769 0.031174
v 0.517708 0.015959 -0.070699
v 0.562622 -0.082333 -0.028322
v 0.539669 -0.151511 -0.045250
v 0.485422 -0.143413 -0.042233
v 0.506175 -0.152028 -0.004424
v 0.520691 -0.109375 -0.065366
v 0.497819 -0.119690 0.014007
v 0.550520 -0.118061 -0.050577
v 0.538195 -0.155919 -0.002569
v 0.554602 -0.123325 -0.027215
v 0.538975 -0.120090 0.006076
v 0.500122 0.100894 0.028271
v 0.557752 0.059759 -0.001473
v 0.526634 0.080161 0.025014
v 0.509268 0.106593 -0.069632
v 0.547607 0.104587 -0.056768
v 0.553465 0.048432 -0.052990
v 0.555868 0.120387 -0.036548
v 0.550039 0.119398 -0.004793
v 0.539247 0.154361 -0.048983
v 0.510028 0.153039 -0.058700
v 0.540447 0.155858 -0.004015
v 0.504736 0.153911 -0.003052
v 0.487291 0.145531 -0.041442
v 0.530851 0.121798 0.017893
v 0.414897 0.001208 0.000976
v 0.409492 -0.071476 -0.028441
v 0.409388 -0.058264 0.046616
v 0.414257 -0.048858 -0.057269
v 0.411183 0.040439 -0.059782
v 0.409067 0.072017 -0.030689
v 0.406571 0.074367 0.025667
v 0.413706 0.026242 0.061875
v 0.415692 -0.066199 0.041976
v 0.417710 0.049871 -0.060846
v 0.415584 0.066504 0.045305
v 0.424401 0.001609 0.070716
v 0.424025 0.001229 0.000877
v 0.523891 -0.109590 -0.034541
v 0.542907 -0.141937 -0.043995
v 0.503298 -0.149853 -0.060552
v 0.492103 -0.115700 -0.028284
v 0.538250 -0.121308 0.000582
v 0.512125 -0.102266 0.007531
v 0.487103 -0.121442 0.001365
v 0.523210 -0.149812 -0.061704
v 0.485200 -0.149791 -0.041332
v 0.547391 -0.140160 -0.022434
v 0.527356 -0.119291 0.016481
v 0.500451 -0.157693 0.001549
v 0.537237 -0.209743 -0.044106
v 0.490326 -0.205240 -0.019699
v 0.529046 -0.195645 0.001399
v 0.499850 -0.215034 -0.045173
v 0.544352 -0.205869 -0.021541
v 0.502107 -0.230159 -0.005639
v 0.499360 -0.260560 -0.036076
v 0.528885 -0.266530 -0.049490
v 0.544622 -0.297461 -0.029874
v 0.546756 -0.347970 -0.011963
v 0.518528 -0.347933 0.007035
v 0.514307 -0.313888 -0.043930
v 0.530390 -0.349808 -0.038733
v 0.536731 -0.351740 0.003080
v 0.511689 -0.352370 -0.019779
v 0.520926 -0.388169 -0.021610
v 0.538554 -0.387013 -0.013259
v 0.522816 -0.388092 0.004531
v 0.497169 0.133809 -0.041487
v 0.533280 0.132277 -0.038418
v 0.501302 0.156598 -0.057813
v 0.525002 0.121005 -0.001768
v 0.505772 0.129029 0.003778
v 0.486114 0.139496 -0.010152
v 0.530894 0.160530 -0.058570
v 0.547896 0.160695 -0.035588
v 0.537744 0.137662 0.000397
v 0.485647 0.187092 -0.031923
v 0.518408 0.188871 0.001667
v 0.520631 0.222903 -0.055762
v 0.543828 0.241779 -0.030680
v 0.498478 0.237504 -0.010738
v 0.539600 0.249385 -0.010113
v 0.509755 0.281852 -0.049181
v 0.498818 0.279496 -0.033464
v 0.531254 0.294547 -0.050596
v 0.537015 0.350721 0.000080
v 0.519910 0.347464 0.002938
v 0.507258 0.351200 -0.024283
v 0.526043 0.357090 -0.039730
v 0.541942 0.351233 -0.033206
v 0.519092 0.391305 -0.025837
v 0.536725 0.390323 -0.017474
v 0.520982 0.391521 0.000303
f 5 6 2
f 11 6 5
f 9 12 13
f 14 12 7
f 12 8 7
f 8 12 9
f 15 9 13
f 16 6 11
f 6 16 10
f 10 16 17
f 11 15 17
f 21 17 15
f 19 20 21
f 18 15 13
f 17 20 19
f 18 19 23
f 24 19 18
f 22 15 19
f 21 15 22
f 23 19 15
f 13 24 18
f 1 7 3
f 1 2 6
f 1 6 10
f 1 10 7
f 4 3 9
f 11 4 9
f 4 11 5
f 8 3 7
f 3 8 9
f 11 9 15
f 11 17 16
f 7 10 14
f 13 12 14
f 13 14 19
f 19 10 17
f 19 14 10
f 20 17 21
f 18 23 15
f 19 21 22
f 13 19 24
f 30 31 26
f 27 32 33
f 25 27 33
f 31 30 35
f 36 31 37
f 36 29 31
f 29 36 38
f 38 36 39
f 40 38 39
f 40 33 32
f 34 35 30
f 34 40 41
f 43 44 40
f 41 40 44
f 42 43 39
f 42 47 43
f 44 45 41
f 47 45 46
f 43 47 46
f 45 43 46
f 47 42 39
f 47 35 41
f 26 25 30
f 27 28 32
f 28 29 32
f 29 26 31
f 30 25 33
f 31 35 37
f 34 30 33
f 35 34 41
f 29 38 32
f 37 39 36
f 38 40 32
f 35 39 37
f 39 35 47
f 40 34 33
f 40 39 43
f 43 45 44
f 47 41 45
f 26 29 28
f 48 50 49
f 48 51 50
f 52 53 51
f 53 55 54
f 55 56 54
f 55 48 56
f 48 49 56
f 50 51 57
f 57 51 53
f 57 53 54
f 57 54 58
f 58 54 56
f 56 59 58
f 49 59 56
f 50 60 49
f 62 55 61
f 61 48 62
f 63 62 49
f 62 59 49
f 59 55 63
f 63 55 62
f 55 59 48
f 48 59 62
f 53 52 64
f 53 64 65
f 53 65 58
f 53 58 55
f 61 55 64
f 55 58 64
f 57 58 65
f 63 57 65
f 63 58 59
f 65 64 63
f 63 64 58
f 48 61 66
f 66 60 48
f 48 60 51
f 51 66 61
f 66 49 60
f 49 66 63
f 63 51 60
f 63 66 51
f 51 61 52
f 63 60 61
f 61 60 50
f 57 63 61
f 61 50 52
f 57 52 50
f 52 57 64
f 61 64 57
f 67 69 68
f 69 70 68
f 69 71 70
f 71 72 70
f 72 73 70
f 67 68 74
f 68 75 74
f 75 68 70
f 70 73 76
f 76 73 74
f 75 76 74
f 70 77 75
f 76 78 70
f 76 75 79
f 75 80 79
f 80 74 79
f 74 80 67
f 76 67 80
f 67 76 79
f 72 81 78
f 73 72 78
f 79 74 81
f 74 73 81
f 70 78 81
f 80 70 81
f 80 78 76
f 80 81 73
f 73 78 80
f 67 79 82
f 82 69 67
f 71 69 79
f 80 75 82
f 77 80 82
f 75 69 82
f 69 75 77
f 82 79 77
f 77 79 69
f 71 77 72
f 72 77 83
f 71 79 81
f 81 72 83
f 83 71 81
f 77 71 80
f 77 70 83
f 83 70 80
f 80 71 83
f 84 86 85
f 86 87 85
f 86 88 87
f 88 90 89
f 90 91 89
f 91 84 85
f 85 92 91
f 92 85 87
f 92 87 93
f 93 87 88
f 93 88 94
f 94 88 89
f 94 89 95
f 95 89 91
f 91 96 95
f 92 96 91
f 93 97 92
f 90 98 99
f 91 90 100
f 91 100 84
f 98 84 100
f 100 99 98
f 101 100 92
f 100 96 92
f 99 101 90
f 96 90 101
f 100 90 96
f 100 101 99
f 88 86 102
f 88 102 103
f 88 103 95
f 88 95 90
f 98 90 102
f 90 95 102
f 94 95 103
f 101 94 103
f 101 95 96
f 103 102 101
f 101 102 95
f 84 97 86
f 84 98 92
f 92 97 84
f 86 92 98
f 101 86 97
f 101 92 86
f 101 97 98
f 98 97 93
f 94 101 98
f 98 93 86
f 94 86 93
f 86 94 102
f 98 102 94
f 104 106 105
f 106 107 105
f 107 108 105
f 107 109 108
f 110 111 109
f 110 112 111
f 112 104 111
f 104 105 113
f 113 105 114
f 114 105 108
f 109 115 108
f 115 109 111
f 115 111 116
f 116 111 104
f 113 116 104
f 108 117 114
f 104 112 119
f 118 104 119
f 120 119 113
f 119 116 113
f 116 118 120
f 120 118 119
f 118 116 112
f 112 116 119
f 110 109 121
f 110 121 122
f 110 122 115
f 110 115 112
f 118 112 121
f 112 115 121
f 108 115 122
f 120 108 122
f 120 115 116
f 122 121 120
f 120 121 115
f 118 106 104
f 106 123 107
f 118 107 123
f 123 120 113
f 114 120 123
f 106 113 114
f 113 106 118
f 114 123 106
f 113 118 123
f 107 118 124
f 107 124 117
f 107 117 109
f 124 118 121
f 120 114 124
f 124 114 117
f 121 109 117
f 108 120 124
f 117 108 121
f 124 121 108
f 125 127 126
f 125 128 127
f 128 129 127
f 128 130 129
f 130 131 129
f 131 125 126
f 132 126 127
f 127 133 132
f 133 127 129
f 129 131 134
f 134 131 126
f 132 134 126
f 131 135 136
f 137 136 135
f 131 136 125
f 135 125 137
f 138 134 136
f 132 138 136
f 136 137 132
f 137 134 132
f 136 134 125
f 125 134 137
f 130 135 140
f 131 130 140
f 135 131 139
f 131 140 139
f 133 129 141
f 134 138 139
f 138 141 139
f 129 134 139
f 141 135 139
f 141 140 135
f 129 140 141
f 139 140 129
f 128 125 142
f 135 128 142
f 138 132 135
f 133 138 135
f 132 125 135
f 125 132 133
f 135 142 133
f 133 142 125
f 138 133 143
f 138 143 141
f 143 128 135
f 133 128 143
f 128 133 141
f 143 135 130
f 128 141 130
f 143 130 141
f 144 146 145
f 146 147 145
f 146 148 147
f 148 149 147
f 149 150 147
f 149 151 150
f 144 145 152
f 145 153 152
f 153 145 147
f 147 150 155
f 150 152 155
f 152 150 144
f 153 147 154
f 150 151 156
f 150 156 158
f 144 150 158
f 144 158 157
f 156 144 157
f 152 159 157
f 155 157 159
f 155 156 157
f 156 155 158
f 152 158 155
f 158 152 157
f 149 160 161
f 149 161 151
f 156 151 160
f 154 147 161
f 155 154 161
f 161 160 155
f 151 161 147
f 155 160 151
f 151 147 155
f 156 146 144
f 146 159 148
f 156 148 159
f 146 152 153
f 152 146 156
f 153 159 146
f 152 156 159
f 148 156 154
f 148 154 149
f 162 159 153
f 159 162 155
f 149 154 160
f 154 155 162
f 153 156 160
f 156 153 154
f 153 160 162
f 154 162 160
f 163 165 164
f 173 170 172
f 163 171 170
f 179 172 171
f 179 171 180
f 180 171 163
f 166 176 178
f 175 174 167
f 183 175 167
f 183 167 182
f 182 167 178
f 184 181 185
f 187 174 188
f 184 189 177
f 191 166 167
f 191 167 174
f 188 168 169
f 192 188 169
f 192 169 164
f 170 165 163
f 193 171 165
f 171 165 170
f 170 173 193
f 176 166 177
f 184 177 181
f 195 188 174
f 195 174 175
f 191 177 166
f 182 168 183
f 176 197 196
f 189 176 177
f 178 176 196
f 182 178 196
f 182 169 168
f 196 169 182
f 197 169 196
f 176 198 197
f 189 190 198
f 189 198 176
f 184 190 189
f 184 185 190
f 199 163 164
f 199 164 169
f 186 190 185
f 199 169 197
f 199 197 198
f 179 199 198
f 179 198 186
f 180 199 179
f 163 199 180
f 195 175 183
f 183 168 195
f 186 198 190
f 195 168 188
f 187 188 192
f 192 165 201
f 192 201 202
f 193 194 202
f 192 164 165
f 201 165 200
f 201 200 193
f 201 193 202
f 202 181 177
f 202 177 191
f 202 191 187
f 202 187 192
f 166 178 167
f 187 191 174
f 200 172 193
f 193 172 194
f 194 172 202
f 203 202 172
f 181 202 203
f 200 173 172
f 185 179 186
f 172 179 203
f 203 179 185
f 203 185 181
f 210 211 212
f 211 213 212
f 214 204 211
f 212 218 210
f 210 218 219
f 210 219 214
f 221 219 218
f 215 206 207
f 222 220 217
f 216 206 209
f 204 214 205
f 208 224 209
f 209 224 205
f 210 225 204
f 204 210 211
f 213 211 225
f 207 216 217
f 208 206 215
f 208 209 206
f 216 222 217
f 223 216 209
f 223 222 216
f 214 221 205
f 205 221 209
f 218 223 221
f 209 221 223
f 221 214 219
f 223 218 222
f 226 219 225
f 215 207 208
f 208 207 224
f 225 228 213
f 228 227 213
f 205 224 229
f 204 205 229
f 204 229 228
f 228 229 225
f 220 229 217
f 217 229 207
f 207 229 224
f 216 207 206
f 212 213 227
f 225 212 227
f 212 225 226
f 212 226 229
f 218 212 229
f 218 229 220
f 218 220 222
f 236 232 237
f 234 237 232
f 232 233 234
f 231 230 234
f 234 233 231
f 230 231 238
f 238 239 235
f 235 240 238
f 236 237 235
f 235 237 241
f 235 241 240
f 237 234 241
f 243 242 244
f 247 245 236
f 235 247 236
f 243 245 248
f 236 245 243
f 232 236 244
f 244 242 246
f 255 256 249
f 247 250 248
f 248 245 247
f 255 249 248
f 249 242 243
f 243 248 249
f 243 244 236
f 247 235 239
f 247 239 257
f 255 248 250
f 258 259 250
f 239 260 257
f 259 255 250
f 257 260 258
f 257 258 250
f 257 250 247
f 259 256 255
f 252 231 233
f 251 246 242
f 252 233 251
f 244 233 232
f 254 252 253
f 256 253 249
f 251 253 252
f 249 251 242
f 253 251 249
f 233 244 246
f 233 246 251
f 252 261 231
f 256 254 253
f 259 258 262
f 260 231 261
f 256 262 254
f 260 239 231
f 262 258 260
f 260 261 262
f 261 254 262
f 254 261 252
f 256 259 262
f 273 275 274
f 272 269 270
f 275 266 264
f 269 271 270
f 280 271 269
f 265 263 267
f 275 264 274
f 274 264 265
f 264 263 265
f 273 268 275
f 271 276 270
f 268 271 266
f 268 266 275
f 266 283 264
f 277 285 280
f 266 284 283
f 282 283 281
f 284 281 283
f 263 264 282
f 286 282 281
f 277 280 269
f 282 264 283
f 280 266 271
f 287 266 280
f 280 285 287
f 273 295 268
f 274 265 298
f 274 298 273
f 273 289 295
f 289 273 298
f 278 297 279
f 293 304 303
f 271 305 276
f 291 289 290
f 293 288 306
f 304 308 303
f 292 291 294
f 306 290 297
f 297 290 289
f 291 295 289
f 306 278 293
f 304 278 308
f 295 292 307
f 279 289 298
f 278 306 297
f 302 307 292
f 292 301 302
f 301 292 294
f 270 296 272
f 271 268 305
f 289 279 297
f 298 265 267
f 298 267 279
f 295 305 268
f 290 306 288
f 293 303 310
f 302 300 299
f 302 301 300
f 300 303 299
f 299 303 308
f 276 299 270
f 291 292 295
f 296 270 308
f 302 299 309
f 293 278 304
f 270 299 308
f 307 302 309
f 299 276 309
f 295 307 305
f 276 305 309
f 278 296 308
f 305 307 309
f 315 319 314
f 314 291 288
f 288 312 314
f 313 311 321
f 311 310 317
f 291 290 288
f 288 293 310
f 313 288 310
f 321 316 313
f 322 323 312
f 311 317 318
f 310 303 317
f 319 318 301
f 319 324 325
f 325 318 319
f 301 318 317
f 300 301 317
f 291 314 294
f 312 315 314
f 319 294 314
f 311 313 310
f 303 300 317
f 318 321 311
f 319 301 294
f 288 313 312
f 313 316 322
f 322 312 313
f 319 315 326
f 326 324 319
f 323 327 312
f 312 327 315
f 332 335 337
f 343 342 327
f 316 348 349
f 331 360 340
f 343 361 352
f 373 358 356
f 360 376 375
f 378 379 380
f 324 359 382
f 359 358 383
f 390 391 388
f 329 338 332
f 354 328 315
f 329 331 339
f 320 344 351
f 348 394 339
f 338 381 380
f 354 357 326
f 351 353 355
f 391 336 335
f 330 332 334
f 350 363 369
f 346 349 395
f 339 341 395
f 366 362 347
f 396 392 337
f 395 397 364
f 363 367 370
f 352 398 371
f 355 372 374
f 390 396 336
f 385 384 376
f 399 400 401
f 407 413 408
f 416 418 425
f 413 384 386
f 450 451 452
f 456 457 458
f 459 460 461
f 465 466 467
f 471 452 472
f 473 474 475
f 493 490 530
f 462 464 546
f 419 421 549
f 554 543 555
f 556 458 538
f 452 557 558
f 500 462 493
f 560 432 561
f 565 566 567
f 537 542 573
f 544 472 545
f 499 466 500
f 492 494 585
f 405 406 407
f 620 505 618
f 626 624 623
f 629 630 627
f 630 632 631
f 635 636 633
f 644 645 400
f 368 370 646
f 625 609 608
f 648 649 650
f 652 653 621
f 658 405 408
f 654 657 659
f 639 662 657
f 668 669 667
f 671 622 621
f 642 672 673
f 615 643 674
f 674 640 639
f 680 617 616
f 568 570 655
f 632 682 660
f 667 650 633
f 688 628 627
f 630 689 682
f 635 634 628
f 600 626 411
f 661 664 691
f 406 397 377
f 372 671 653
f 643 673 640
f 376 407 412
f 638 641 679
f 666 663 638
f 696 691 658
f 605 697 576
f 539 700 422
f 593 703 701
f 576 575 604
f 575 574 548
f 429 427 537
f 713 714 466
f 464 572 715
f 716 717 461
f 699 718 719
f 722 507 716
f 504 723 514
f 726 727 724
f 728 729 515
f 514 513 731
f 446 733 532
f 446 734 735
f 409 517 516
f 450 532 516
f 508 717 741
f 541 614 430
f 699 467 745
f 747 748 713
f 495 586 496
f 598 491 749
f 559 489 585
f 501 488 503
f 751 750 522
f 426 521 554
f 549 707 753
f 754 755 756
f 710 592 511
f 710 709 763
f 606 764 523
f 564 740 538
f 765 563 562
f 438 437 440
f 710 757 701
f 593 595 767
f 544 429 573
f 769 559 711
f 586 499 467
f 718 745 546
f 743 587 698
f 534 508 535
f 480 455 454
f 447 449 620
f 409 533 601
f 389 373 652
f 730 723 591
f 766 440 562
f 725 512 778
f 779 736 735
f 606 592 701
f 520 519 561
f 781 439 531
f 765 779 734
f 733 441 600
f 683 782 777
f 684 514 732
f 583 784 783
f 475 578 577
f 764 767 760
f 658 665 402
f 698 518 520
f 749 497 785
f 496 714 785
f 539 786 485
f 504 686 618
f 661 692 687
f 517 721 716
f 787 544 501
f 547 486 787
f 423 589 554
f 480 456 611
f 433 435 776
f 728 730 590
f 504 506 591
f 754 577 602
f 456 481 550
f 525 501 469
f 553 420 484
f 702 758 772
f 457 771 562
f 556 706 605
f 788 540 422
f 712 748 768
f 768 557 769
f 705 528 720
f 668 683 783
f 568 654 660
f 730 515 514
f 504 684 631
f 581 570 569
f 629 637 616
f 436 775 590
f 581 675 655
f 633 680 637
f 398 399 566
f 373 374 653
f 674 656 655
f 676 679 644
f 645 607 401
f 608 695 672
f 670 411 647
f 390 387 442
f 564 563 445
f 736 737 392
f 404 403 364
f 692 619 618
f 450 479 463
f 502 488 490
f 502 453 543
f 552 454 453
f 527 705 742
f 719 459 742
f 528 519 518
f 744 498 535
f 529 535 500
f 558 747 746
f 495 497 588
f 597 711 525
f 613 501 585
f 416 483 704
f 612 548 421
f 771 773 763
f 754 772 584
f 702 602 594
f 725 724 510
f 551 552 435
f 782 732 731
f 709 438 766
f 551 434 727
f 770 778 759
f 761 760 780
f 419 753 484
f 424 752 421
f 596 425 751
f 417 704 487
f 597 750 418
f 599 785 712
f 588 469 587
f 451 463 466
f 431 430 587
f 509 789 507
f 448 447 738
f 781 765 440
f 447 415 408
f 408 386 393
f 441 443 652
f 694 641 640
f 607 609 567
f 506 449 531
f 762 761 473
f 595 594 603
f 512 511 523
f 478 517 715
f 581 580 615
f 474 774 579
f 623 690 609
f 693 582 569
f 647 608 648
f 740 445 444
f 678 677 403
f 789 530 784
f 529 530 534
f 526 528 561
f 687 681 660
f 649 642 617
f 398 368 400
f 569 568 682
f 629 693 689
f 475 756 726
f 696 610 620
f 788 426 428
f 539 428 429
f 423 422 482
f 335 332 337
f 342 343 327
f 322 347 316
f 348 316 349
f 327 345 323
f 360 331 340
f 361 343 352
f 358 373 356
f 376 360 375
f 379 378 380
f 359 324 382
f 358 359 383
f 391 390 388
f 338 329 332
f 323 350 322
f 328 354 315
f 331 329 339
f 344 320 351
f 394 348 339
f 381 338 380
f 357 354 326
f 353 351 355
f 336 391 335
f 332 330 334
f 363 350 369
f 349 346 395
f 341 339 395
f 362 366 347
f 392 396 337
f 397 395 364
f 367 363 370
f 398 352 371
f 372 355 374
f 396 390 336
f 384 385 376
f 400 399 401
f 413 407 408
f 418 416 425
f 384 413 386
f 451 450 452
f 457 456 458
f 460 459 461
f 466 465 467
f 452 471 472
f 474 473 475
f 490 493 530
f 464 462 546
f 421 419 549
f 543 554 555
f 458 556 538
f 557 452 558
f 462 500 493
f 432 560 561
f 566 565 567
f 542 537 573
f 472 544 545
f 466 499 500
f 494 492 585
f 406 405 407
f 505 620 618
f 624 626 623
f 630 629 627
f 632 630 631
f 636 635 633
f 645 644 400
f 370 368 646
f 609 625 608
f 649 648 650
f 653 652 621
f 405 658 408
f 657 654 659
f 662 639 657
f 669 668 667
f 622 671 621
f 672 642 673
f 643 615 674
f 640 674 639
f 617 680 616
f 570 568 655
f 682 632 660
f 650 667 633
f 628 688 627
f 689 630 682
f 634 635 628
f 626 600 411
f 664 661 691
f 397 406 377
f 671 372 653
f 673 643 640
f 407 376 412
f 641 638 679
f 663 666 638
f 691 696 658
f 697 605 576
f 700 539 422
f 703 593 701
f 575 576 604
f 574 575 548
f 427 429 537
f 714 713 466
f 572 464 715
f 717 716 461
f 718 699 719
f 507 722 716
f 723 504 514
f 727 726 724
f 729 728 515
f 513 514 731
f 733 446 532
f 734 446 735
f 517 409 516
f 532 450 516
f 717 508 741
f 614 541 430
f 467 699 745
f 748 747 713
f 586 495 496
f 491 598 749
f 489 559 585
f 488 501 503
f 750 751 522
f 521 426 554
f 707 549 753
f 755 754 756
f 592 710 511
f 709 710 763
f 764 606 523
f 740 564 538
f 563 765 562
f 437 438 440
f 757 710 701
f 595 593 767
f 429 544 573
f 559 769 711
f 499 586 467
f 745 718 546
f 587 743 698
f 508 534 535
f 455 480 454
f 449 447 620
f 533 409 601
f 373 389 652
f 723 730 591
f 440 766 562
f 512 725 778
f 736 779 735
f 592 606 701
f 519 520 561
f 439 781 531
f 779 765 734
f 441 733 600
f 782 683 777
f 514 684 732
f 784 583 783
f 578 475 577
f 767 764 760
f 665 658 402
f 518 698 520
f 497 749 785
f 714 496 785
f 786 539 485
f 686 504 618
f 692 661 687
f 721 517 716
f 544 787 501
f 486 547 787
f 589 423 554
f 456 480 611
f 435 433 776
f 730 728 590
f 506 504 591
f 577 754 602
f 481 456 550
f 501 525 469
f 420 553 484
f 758 702 772
f 771 457 562
f 706 556 605
f 540 788 422
f 748 712 768
f 557 768 769
f 528 705 720
f 683 668 783
f 654 568 660
f 515 730 514
f 684 504 631
f 570 581 569
f 637 629 616
f 775 436 590
f 675 581 655
f 680 633 637
f 399 398 566
f 374 373 653
f 656 674 655
f 679 676 644
f 607 645 401
f 695 608 672
f 411 670 647
f 387 390 442
f 563 564 445
f 737 736 392
f 403 404 364
f 619 692 618
f 479 450 463
f 488 502 490
f 453 502 543
f 454 552 453
f 705 527 742
f 459 719 742
f 519 528 518
f 498 744 535
f 535 529 500
f 747 558 746
f 497 495 588
f 711 597 525
f 501 613 585
f 483 416 704
f 548 612 421
f 773 771 763
f 772 754 584
f 602 702 594
f 724 725 510
f 552 551 435
f 732 782 731
f 438 709 766
f 434 551 727
f 778 770 759
f 760 761 780
f 753 419 484
f 752 424 421
f 425 596 751
f 704 417 487
f 750 597 418
f 785 599 712
f 469 588 587
f 463 451 466
f 430 431 587
f 789 509 507
f 447 448 738
f 765 781 440
f 415 447 408
f 386 408 393
f 443 441 652
f 641 694 640
f 609 607 567
f 449 506 531
f 761 762 473
f 594 595 603
f 511 512 523
f 517 478 715
f 580 581 615
f 774 474 579
f 690 623 609
f 582 693 569
f 608 647 648
f 445 740 444
f 677 678 403
f 530 789 784
f 530 529 534
f 528 526 561
f 681 687 660
f 642 649 617
f 368 398 400
f 568 569 682
f 693 629 689
f 756 475 726
f 610 696 620
f 426 788 428
f 428 539 429
f 422 423 482
f 266 287 284
f 800 799 798
f 795 272 796
f 804 791 790
f 790 792 803
f 793 800 791
f 797 795 796
f 797 805 795
f 791 800 798
f 791 798 792
f 790 791 792
f 794 799 800
f 801 797 796
f 797 794 793
f 793 794 800
f 807 793 791
f 805 802 795
f 809 802 805
f 808 793 807
f 807 804 806
f 806 808 807
f 804 810 806
f 791 804 807
f 793 805 797
f 793 811 805
f 809 805 811
f 296 820 796
f 821 799 794
f 792 798 824
f 824 798 799
f 814 799 821
f 799 814 824
f 822 823 803
f 823 820 803
f 278 820 296
f 828 818 825
f 829 797 801
f 814 815 813
f 812 828 830
f 833 828 825
f 832 815 819
f 815 816 819
f 813 830 823
f 813 823 814
f 821 815 814
f 820 830 828
f 820 828 833
f 816 821 831
f 814 822 824
f 803 792 822
f 830 820 823
f 831 827 816
f 819 816 827
f 827 825 826
f 827 835 825
f 835 833 825
f 296 796 272
f 794 797 829
f 822 814 823
f 278 803 820
f 792 824 822
f 829 821 794
f 830 813 812
f 828 812 818
f 819 827 826
f 812 813 817
f 825 818 826
f 835 801 796
f 816 815 821
f 835 827 834
f 835 796 833
f 827 831 834
f 801 835 834
f 831 821 829
f 829 801 834
f 796 820 833
f 831 829 834
f 840 832 846
f 815 841 817
f 837 817 841
f 842 836 844
f 841 832 839
f 813 815 817
f 839 837 841
f 842 812 817
f 832 819 846
f 838 837 839
f 817 838 842
f 836 838 848
f 843 848 838
f 818 812 842
f 844 836 845
f 842 844 818
f 845 846 819
f 850 846 845
f 845 819 844
f 819 826 844
f 839 832 840
f 841 815 832
f 838 836 842
f 826 818 844
f 838 817 837
f 840 846 851
f 850 851 846
f 838 839 849
f 852 849 839
f 852 839 853
f 840 853 839
f 845 836 854
f 861 858 862
f 873 872 843
f 881 882 883
f 886 868 877
f 901 885 900
f 864 866 900
f 903 904 905
f 884 850 907
f 883 884 909
f 913 914 909
f 916 917 913
f 863 854 858
f 849 875 873
f 920 880 847
f 856 854 865
f 869 867 876
f 921 848 865
f 906 863 905
f 882 880 851
f 878 876 879
f 907 903 909
f 860 916 861
f 888 875 894
f 874 871 922
f 866 865 922
f 887 891 872
f 919 923 862
f 924 922 890
f 892 888 895
f 878 897 877
f 896 879 899
f 923 917 860
f 911 910 901
f 940 934 935
f 945 944 952
f 983 984 985
f 992 993 994
f 979 998 999
f 1000 1001 1002
f 1003 1002 1004
f 1015 1016 1017
f 1063 943 945
f 1017 1019 1057
f 991 990 1073
f 948 947 1075
f 1070 1081 1082
f 990 1027 1019
f 959 1087 1088
f 1092 1093 1094
f 1107 1108 1109
f 992 1025 1027
f 1021 1020 1112
f 933 932 934
f 1031 1147 1146
f 1152 1150 1153
f 1157 1156 1155
f 1159 1157 1158
f 1163 1162 1161
f 1144 1142 1169
f 1171 1172 926
f 895 893 1173
f 1174 1134 1152
f 1178 1177 1176
f 1180 1179 1149
f 932 1185 935
f 1186 1187 1182
f 930 929 1193
f 1188 1165 1184
f 1196 1195 1194
f 1148 1198 1149
f 1151 1149 1153
f 1175 1169 1176
f 1199 1169 1200
f 1170 1142 1201
f 1167 1201 1165
f 1203 889 1204
f 1209 1159 1186
f 1177 1194 1161
f 1154 1215 1155
f 1216 1157 1209
f 1160 1162 1154
f 1153 1127 938
f 939 902 933
f 1198 896 1180
f 1143 1220 1108
f 934 901 939
f 1221 1168 1172
f 1168 1166 1206
f 1190 1192 1166
f 1218 1223 1185
f 1224 1132 1103
f 1227 1067 950
f 1230 1121 1229
f 1101 1103 1131
f 1100 1064 956
f 1240 1241 992
f 1099 991 1242
f 1245 1226 1246
f 1035 1249 1244
f 1254 1253 1252
f 1255 1256 1042
f 1260 973 1059
f 1261 973 1262
f 1196 1098 1248
f 1043 937 1044
f 1059 978 1044
f 1266 975 1265
f 979 1084 1071
f 1021 992 990
f 1053 1268 1061
f 957 959 1271
f 994 1226 1272
f 1273 1085 979
f 1274 1275 1241
f 1018 1124 1276
f 1015 1086 1112
f 1016 1028 1029
f 1065 1083 1064
f 1234 1075 1280
f 1281 1282 1283
f 1119 1237 1037
f 1291 1133 1050
f 1267 1091 1065
f 1089 1292 1090
f 1069 1100 998
f 963 965 967
f 1284 1237 1229
f 1122 1121 1294
f 999 1100 1072
f 1086 1296 1238
f 1272 1245 1073
f 957 1026 1025
f 1114 1270 1225
f 1034 1062 1061
f 1007 980 1008
f 976 975 1147
f 1060 937 1128
f 898 915 1179
f 1297 1251 1003
f 1236 961 1038
f 1110 1030 1304
f 1039 1251 1305
f 1263 1306 1262
f 1265 1264 1263
f 1119 1133 1229
f 1129 1307 1106
f 1115 1023 1113
f 1045 1047 1088
f 974 1058 1308
f 969 1260 1127
f 1309 1210 1304
f 1311 1110 1310
f 1141 1047 1225
f 1024 1276 1312
f 1240 1022 1312
f 1313 1067 1013
f 1213 1032 1146
f 1187 1214 1189
f 1248 1043 1244
f 1072 1314 1028
f 1012 1074 1314
f 1116 949 1081
f 984 1008 1138
f 962 961 1303
f 1257 1256 1118
f 1033 1032 1117
f 1105 1282 1130
f 1007 984 1077
f 1008 1082 1139
f 1028 1052 995
f 1009 1011 1080
f 1014 1063 1012
f 1285 1228 1299
f 1091 1090 983
f 1233 1083 1132
f 956 1313 1072
f 1084 1295 1296
f 1055 1232 1247
f 1042 1257 1040
f 1211 1032 1158
f 1097 1107 1095
f 1058 1118 964
f 1207 1161 1164
f 897 1092 925
f 899 898 1180
f 1236 1235 1303
f 1183 1201 1181
f 1206 1204 1172
f 1176 1199 1134
f 938 1197 1174
f 914 917 968
f 1089 1091 971
f 929 931 890
f 1145 1219 1146
f 1006 978 989
f 981 1030 1070
f 980 1079 981
f 1243 1034 1244
f 987 1246 1269
f 1026 1271 1061
f 1238 1125 1052
f 1028 1140 1112
f 1009 944 1231
f 1076 1139 948
f 1300 1298 1290
f 983 1298 1111
f 1077 1111 1282
f 1130 1228 1120
f 1252 1251 1038
f 1079 1078 962
f 965 964 1303
f 1258 1309 1259
f 965 1235 1293
f 960 1078 1254
f 1305 1297 1287
f 1294 1230 1291
f 1286 1288 1307
f 1280 947 1011
f 1279 951 948
f 952 1123 1278
f 1231 943 1014
f 1277 1125 945
f 1312 1126 1239
f 995 1115 1114
f 989 977 992
f 958 957 1114
f 1316 1036 1035
f 975 974 1264
f 1292 1308 967
f 942 975 935
f 912 935 918
f 970 969 1179
f 1200 1167 1221
f 1136 1135 1094
f 976 1033 1058
f 1004 1001 1289
f 1120 1122 1129
f 1037 1039 1050
f 1043 1005 1242
f 1222 1199 1221
f 971 1267 972
f 1203 1205 929
f 1057 1056 1062
f 1208 1214 1186
f 970 915 968
f 893 925 926
f 1096 1095 1209
f 1220 1156 1216
f 1283 1002 1253
f 1222 1171 1134
f 1137 1223 1147
f 954 1315 955
f 955 1067 956
f 950 949 1010
f 858 861 862
f 868 853 852
f 872 873 843
f 843 848 874
f 870 852 849
f 882 881 883
f 868 886 877
f 885 901 900
f 866 864 900
f 904 903 905
f 850 884 907
f 884 883 909
f 914 913 909
f 917 916 913
f 854 863 858
f 875 849 873
f 880 920 847
f 854 856 865
f 867 869 876
f 848 921 865
f 863 906 905
f 880 882 851
f 876 878 879
f 903 907 909
f 916 860 861
f 875 888 894
f 871 874 922
f 865 866 922
f 891 887 872
f 923 919 862
f 922 924 890
f 888 892 895
f 897 878 877
f 879 896 899
f 917 923 860
f 910 911 901
f 934 940 935
f 944 945 952
f 984 983 985
f 993 992 994
f 998 979 999
f 1001 1000 1002
f 1002 1003 1004
f 1016 1015 1017
f 943 1063 945
f 1019 1017 1057
f 990 991 1073
f 947 948 1075
f 1081 1070 1082
f 1027 990 1019
f 1087 959 1088
f 1093 1092 1094
f 1108 1107 1109
f 1025 992 1027
f 1020 1021 1112
f 932 933 934
f 1147 1031 1146
f 1150 1152 1153
f 1156 1157 1155
f 1157 1159 1158
f 1162 1163 1161
f 1142 1144 1169
f 1172 1171 926
f 893 895 1173
f 1134 1174 1152
f 1177 1178 1176
f 1179 1180 1149
f 1185 932 935
f 1187 1186 1182
f 929 930 1193
f 1165 1188 1184
f 1195 1196 1194
f 1198 1148 1149
f 1149 1151 1153
f 1169 1175 1176
f 1169 1199 1200
f 1142 1170 1201
f 1201 1167 1165
f 889 1203 1204
f 1159 1209 1186
f 1194 1177 1161
f 1215 1154 1155
f 1157 1216 1209
f 1162 1160 1154
f 1127 1153 938
f 902 939 933
f 896 1198 1180
f 1220 1143 1108
f 901 934 939
f 1168 1221 1172
f 1166 1168 1206
f 1192 1190 1166
f 1223 1218 1185
f 1132 1224 1103
f 1067 1227 950
f 1121 1230 1229
f 1103 1101 1131
f 1064 1100 956
f 1241 1240 992
f 991 1099 1242
f 1226 1245 1246
f 1249 1035 1244
f 1253 1254 1252
f 1256 1255 1042
f 973 1260 1059
f 973 1261 1262
f 1098 1196 1248
f 937 1043 1044
f 978 1059 1044
f 975 1266 1265
f 1084 979 1071
f 992 1021 990
f 1268 1053 1061
f 959 957 1271
f 1226 994 1272
f 1085 1273 979
f 1275 1274 1241
f 1124 1018 1276
f 1086 1015 1112
f 1028 1016 1029
f 1083 1065 1064
f 1075 1234 1280
f 1282 1281 1283
f 1237 1119 1037
f 1133 1291 1050
f 1091 1267 1065
f 1292 1089 1090
f 1100 1069 998
f 965 963 967
f 1237 1284 1229
f 1121 1122 1294
f 1100 999 1072
f 1296 1086 1238
f 1245 1272 1073
f 1026 957 1025
f 1270 1114 1225
f 1062 1034 1061
f 980 1007 1008
f 975 976 1147
f 937 1060 1128
f 915 898 1179
f 1251 1297 1003
f 961 1236 1038
f 1030 1110 1304
f 1251 1039 1305
f 1306 1263 1262
f 1264 1265 1263
f 1133 1119 1229
f 1307 1129 1106
f 1023 1115 1113
f 1047 1045 1088
f 1058 974 1308
f 1260 969 1127
f 1210 1309 1304
f 1110 1311 1310
f 1047 1141 1225
f 1276 1024 1312
f 1022 1240 1312
f 1067 1313 1013
f 1032 1213 1146
f 1214 1187 1189
f 1043 1248 1244
f 1314 1072 1028
f 1074 1012 1314
f 949 1116 1081
f 1008 984 1138
f 961 962 1303
f 1256 1257 1118
f 1032 1033 1117
f 1282 1105 1130
f 984 1007 1077
f 1082 1008 1139
f 1052 1028 995
f 1011 1009 1080
f 1063 1014 1012
f 1228 1285 1299
f 1090 1091 983
f 1083 1233 1132
f 1313 956 1072
f 1295 1084 1296
f 1232 1055 1247
f 1257 1042 1040
f 1032 1211 1158
f 1107 1097 1095
f 1118 1058 964
f 1161 1207 1164
f 1092 897 925
f 898 899 1180
f 1235 1236 1303
f 1201 1183 1181
f 1204 1206 1172
f 1199 1176 1134
f 1197 938 1174
f 917 914 968
f 1091 1089 971
f 931 929 890
f 1219 1145 1146
f 978 1006 989
f 1030 981 1070
f 1079 980 981
f 1034 1243 1244
f 1246 987 1269
f 1271 1026 1061
f 1125 1238 1052
f 1140 1028 1112
f 944 1009 1231
f 1139 1076 948
f 1298 1300 1290
f 1298 983 1111
f 1111 1077 1282
f 1228 1130 1120
f 1251 1252 1038
f 1078 1079 962
f 964 965 1303
f 1309 1258 1259
f 1235 965 1293
f 1078 960 1254
f 1297 1305 1287
f 1230 1294 1291
f 1288 1286 1307
f 947 1280 1011
f 951 1279 948
f 1123 952 1278
f 943 1231 1014
f 1125 1277 945
f 1126 1312 1239
f 1115 995 1114
f 977 989 992
f 957 958 1114
f 1036 1316 1035
f 974 975 1264
f 1308 1292 967
f 975 942 935
f 935 912 918
f 969 970 1179
f 1167 1200 1221
f 1135 1136 1094
f 1033 976 1058
f 1001 1004 1289
f 1122 1120 1129
f 1039 1037 1050
f 1005 1043 1242
f 1199 1222 1221
f 1267 971 972
f 1205 1203 929
f 1056 1057 1062
f 1214 1208 1186
f 915 970 968
f 925 893 926
f 1095 1096 1209
f 1156 1220 1216
f 1002 1283 1253
f 1171 1222 1134
f 1223 1137 1147
f 1315 954 955
f 1067 955 956
f 949 950 1010
f 811 793 808
f 285 286 287
f 286 284 287
f 284 286 281
f 810 809 811
f 808 810 811
f 810 808 806
f 1320 1321 1319
f 1322 1317 1319
f 1322 1321 1318
f 1321 1322 1319
f 1320 1319 1317
f 1318 1321 1320
f 1322 1318 1317
f 1320 1317 1318
f 1325 1323 1324
f 1324 1323 1325
f 1328 1327 1326
f 1327 1329 1326
f 1327 1328 1329
f 1329 1328 1326
f 1330 1331 1332
f 1330 1332 1333
f 1331 1330 1333
f 1333 1332 1331
f 1351 1348 1350
f 1349 1351 1350
f 1348 1349 1352
f 1349 1350 1352
f 1348 1352 1353
f 1350 1348 1353
f 1352 1350 1354
f 1353 1352 1354
f 1354 1350 1355
f 1353 1354 1355
f 1356 1350 1353
f 1355 1350 1356
f 1351 1353 1355
f 1356 1353 1351
f 1357 1356 1351
f 1355 1356 1357
f 1355 1357 1358
f 1351 1355 1358
f 1357 1351 1349
f 1358 1357 1349
f 1348 1358 1349
f 1351 1358 1348
f 1363 1361 1362
f 1359 1364 1362
f 1363 1364 1360
f 1364 1363 1362
f 1362 1361 1359
f 1363 1360 1361
f 1360 1364 1359
f 1359 1361 1360
f 1365 1367 1366
f 1365 1366 1367
f 1369 1370 1368
f 1371 1369 1368
f 1370 1369 1371
f 1370 1371 1368
f 1373 1372 1374
f 1372 1375 1374
f 1375 1372 1376
f 1374 1375 1376
f 1376 1373 1374
f 1373 1376 1372
f 1392 1394 1393
f 1394 1391 1393
f 1392 1395 1391
f 1392 1393 1395
f 1391 1395 1396
f 1393 1391 1396
f 1393 1396 1397
f 1396 1395 1397
f 1395 1393 1398
f 1393 1397 1398
f 1395 1398 1399
f 1398 1397 1400
f 1397 1399 1400
f 1397 1395 1399
f 1398 1394 1399
f 1398 1400 1394
f 1400 1401 1394
f 1400 1399 1401
f 1401 1399 1402
f 1399 1394 1402
f 1394 1401 1391
f 1401 1402 1391
f 1402 1392 1391
f 1402 1394 1392
f 1403 1405 1404
f 1405 1406 1404
f 1405 1407 1406
f 1405 1408 1407
f 1410 1412 1411
f 1403 1404 1417
f 1408 1409 1418
f 1409 1410 1419
f 1410 1411 1419
f 1411 1412 1420
f 1412 1421 1420
f 1412 1413 1421
f 1413 1422 1421
f 1413 1414 1422
f 1414 1423 1422
f 1414 1415 1423
f 1415 1424 1423
f 1415 1416 1424
f 1416 1417 1424
f 1416 1403 1417
f 1417 1425 1426
f 1417 1404 1425
f 1407 1408 1418
f 1418 1409 1419
f 1411 1428 1427
f 1411 1420 1428
f 1420 1429 1428
f 1420 1421 1429
f 1421 1422 1430
f 1422 1423 1430
f 1423 1424 1430
f 1424 1417 1431
f 1417 1426 1431
f 1406 1407 1432
f 1407 1418 1433
f 1419 1411 1434
f 1429 1421 1435
f 1421 1436 1435
f 1421 1430 1436
f 1430 1437 1436
f 1430 1424 1437
f 1424 1438 1437
f 1424 1431 1438
f 1426 1425 1439
f 1425 1404 1440
f 1404 1406 1440
f 1406 1432 1440
f 1418 1419 1434
f 1434 1411 1427
f 1429 1435 1441
f 1436 1437 1442
f 1437 1438 1443
f 1438 1444 1443
f 1438 1431 1444
f 1431 1426 1439
f 1432 1407 1433
f 1433 1418 1445
f 1428 1429 1441
f 1436 1442 1435
f 1442 1437 1443
f 1431 1439 1444
f 1425 1440 1446
f 1434 1427 1447
f 1427 1448 1447
f 1427 1428 1448
f 1441 1435 1449
f 1439 1425 1450
f 1425 1446 1450
f 1433 1445 1451
f 1442 1443 1452
f 1446 1440 1453
f 1440 1432 1453
f 1432 1451 1453
f 1432 1433 1451
f 1435 1452 1449
f 1435 1442 1452
f 1452 1443 1454
f 1443 1444 1455
f 1444 1439 1455
f 1434 1447 1456
f 1448 1428 1457
f 1428 1441 1457
f 1441 1449 1457
f 1443 1455 1454
f 1451 1445 1458
f 1455 1439 1459
f 1439 1450 1459
f 1453 1451 1460
f 1451 1458 1460
f 1457 1449 1461
f 1452 1454 1462
f 1454 1463 1462
f 1454 1455 1463
f 1455 1459 1463
f 1450 1446 1465
f 1446 1453 1465
f 1461 1449 1466
f 1449 1452 1466
f 1452 1462 1466
f 1459 1450 1464
f 1464 1450 1465
f 1453 1460 1467
f 1460 1468 1467
f 1460 1458 1468
f 1458 1469 1468
f 1447 1448 1456
f 1448 1457 1470
f 1457 1471 1470
f 1457 1461 1471
f 1461 1466 1472
f 1466 1462 1473
f 1465 1453 1474
f 1453 1467 1474
f 1468 1469 1467
f 1456 1448 1470
f 1461 1472 1471
f 1466 1473 1472
f 1462 1475 1473
f 1462 1463 1475
f 1463 1464 1475
f 1463 1459 1464
f 1465 1476 1464
f 1465 1474 1476
f 1467 1469 1474
f 1445 1418 1434
f 1488 1489 1490
f 1478 1480 1493
f 1481 1487 1479
f 1499 1483 1486
f 1498 1483 1499
f 1485 1489 1484
f 1500 1491 1501
f 1497 1502 1500
f 1503 1482 1500
f 1502 1491 1500
f 1490 1504 1491
f 1504 1507 1508
f 1478 1494 1485
f 1493 1511 1494
f 1504 1508 1501
f 1520 1519 1513
f 1507 1521 1520
f 1516 1494 1506
f 1506 1518 1516
f 1520 1512 1507
f 1520 1518 1506
f 1504 1490 1509
f 1521 1509 1519
f 1516 1513 1514
f 1513 1518 1520
f 1504 1521 1507
f 1485 1514 1489
f 1517 1490 1489
f 1503 1524 1483
f 1528 1529 1523
f 1523 1529 1524
f 1511 1527 1505
f 1527 1511 1526
f 1526 1528 1527
f 1528 1523 1527
f 1487 1486 1522
f 1532 1529 1528
f 1479 1487 1534
f 1532 1535 1529
f 1529 1535 1524
f 1522 1524 1535
f 1533 1534 1487
f 1533 1487 1522
f 1495 1481 1479
f 1498 1496 1497
f 1498 1497 1482
f 1480 1495 1479
f 1496 1498 1499
f 1481 1486 1487
f 1482 1503 1483
f 1498 1482 1483
f 1489 1488 1484
f 1480 1479 1525
f 1522 1483 1524
f 1522 1486 1483
f 1480 1525 1493
f 1488 1490 1492
f 1490 1491 1492
f 1501 1491 1504
f 1480 1478 1477
f 1478 1493 1494
f 1484 1478 1485
f 1482 1497 1500
f 1501 1503 1500
f 1503 1501 1510
f 1505 1507 1506
f 1505 1506 1494
f 1504 1509 1521
f 1510 1501 1508
f 1512 1506 1507
f 1505 1494 1511
f 1506 1512 1520
f 1485 1494 1516
f 1514 1485 1516
f 1514 1517 1489
f 1519 1509 1515
f 1515 1509 1517
f 1513 1516 1518
f 1509 1490 1517
f 1520 1521 1519
f 1514 1515 1517
f 1510 1523 1524
f 1510 1524 1503
f 1526 1511 1525
f 1493 1525 1511
f 1525 1479 1534
f 1532 1522 1535
f 1522 1532 1533
f 1532 1528 1530
f 1526 1525 1530
f 1525 1534 1531
f 1531 1530 1525
f 1526 1530 1528
f 1486 1481 1499
f 1478 1484 1488
f 1497 1496 1502
f 1495 1480 1477
f 1492 1491 1502
f 1496 1478 1502
f 1496 1477 1478
f 1496 1495 1477
f 1499 1495 1496
f 1495 1499 1481
f 1478 1488 1492
f 1502 1478 1492
f 1536 1537 1538
f 1536 1539 1537
f 1536 1540 1539
f 1536 1541 1540
f 1536 1542 1541
f 1536 1543 1542
f 1536 1538 1543
f 1540 1545 1539
f 1540 1541 1545
f 1542 1546 1541
f 1542 1543 1546
f 1543 1547 1546
f 1543 1538 1547
f 1538 1544 1547
f 1538 1537 1544
f 1548 1544 1537
f 1548 1537 1539
f 1548 1539 1545
f 1548 1545 1541
f 1548 1541 1546
f 1548 1546 1547
f 1548 1547 1544
f 1550 1549 1553
f 1554 1549 1552
f 1553 1549 1554
f 1554 1552 1555
f 1550 1556 1549
f 1549 1556 1551
f 1549 1551 1552
f 1552 1551 1557
f 1553 1558 1550
f 1559 1553 1554
f 1559 1554 1555
f 1557 1555 1552
f 1560 1559 1555
f 1555 1557 1562
f 1553 1559 1563
f 1563 1559 1560
f 1551 1564 1557
f 1550 1561 1556
f 1565 1558 1553
f 1562 1560 1555
f 1553 1563 1565
f 1551 1556 1564
f 1565 1561 1550
f 1562 1557 1564
f 1550 1558 1565
f 1562 1566 1560
f 1563 1560 1566
f 1562 1564 1567
f 1561 1568 1556
f 1556 1568 1564
f 1561 1569 1568
f 1561 1565 1569
f 1563 1570 1565
f 1571 1563 1566
f 1565 1570 1569
f 1566 1562 1567
f 1572 1564 1568
f 1572 1567 1564
f 1568 1573 1572
f 1574 1570 1563
f 1573 1568 1569
f 1569 1570 1573
f 1575 1567 1572
f 1574 1563 1571
f 1575 1566 1567
f 1572 1573 1575
f 1571 1566 1575
f 1573 1576 1575
f 1573 1570 1577
f 1573 1577 1576
f 1576 1578 1575
f 1577 1570 1574
f 1578 1571 1575
f 1577 1574 1578
f 1578 1574 1571
f 1576 1577 1578
f 1580 1583 1579
f 1580 1582 1583
f 1579 1583 1584
f 1585 1580 1579
f 1585 1579 1581
f 1586 1582 1580
f 1582 1586 1587
f 1582 1587 1583
f 1580 1585 1586
f 1581 1579 1588
f 1579 1584 1588
f 1587 1589 1583
f 1591 1587 1586
f 1583 1592 1584
f 1589 1592 1583
f 1584 1592 1588
f 1591 1593 1587
f 1585 1581 1590
f 1586 1585 1590
f 1587 1593 1589
f 1594 1581 1588
f 1590 1581 1594
f 1588 1595 1594
f 1588 1592 1595
f 1596 1586 1590
f 1591 1586 1596
f 1589 1593 1597
f 1596 1590 1594
f 1595 1592 1599
f 1600 1596 1594
f 1596 1601 1591
f 1595 1599 1594
f 1597 1598 1589
f 1593 1591 1601
f 1598 1592 1589
f 1601 1596 1600
f 1600 1594 1599
f 1597 1593 1601
f 1592 1598 1599
f 1602 1600 1599
f 1601 1600 1603
f 1603 1600 1602
f 1604 1602 1599
f 1601 1603 1597
f 1599 1598 1604
f 1597 1603 1604
f 1597 1604 1598
f 1603 1602 1604
