# Original shape: m259.obj
# No processing applied - exact copy of source file
# Generated on 2025-10-13 15:03:41

v 0.314128 0.713488 0.370159
v 0.286555 0.598373 0.349485
v 0.307618 0.705054 0.360437
v 0.322705 0.730729 0.386298
v 0.306750 0.725888 0.339214
v 0.314524 0.797408 0.362148
v 0.330646 0.792466 0.406895
v 0.309416 0.754885 0.450940
v 0.257997 0.790576 0.332094
v 0.257410 0.831919 0.415456
v 0.249438 0.691018 0.298154
v 0.256157 0.662692 0.314496
v 0.241914 0.551316 0.331370
v 0.239304 0.531474 0.357276
v 0.241520 0.552901 0.389394
v 0.255797 0.753380 0.455217
v 0.152293 0.791332 0.330602
v 0.162391 0.831272 0.411279
v 0.171199 0.691540 0.298555
v 0.170331 0.664449 0.311496
v 0.179446 0.545510 0.329923
v 0.178710 0.531954 0.355074
v 0.175232 0.552824 0.386436
v 0.163036 0.753650 0.455121
v 0.102470 0.798928 0.357377
v 0.085537 0.796628 0.406617
v 0.117862 0.736254 0.336276
v 0.109294 0.706457 0.339255
v 0.111030 0.723723 0.331794
v 0.170962 0.665356 0.310229
v 0.093761 0.735311 0.393286
v 0.115054 0.755542 0.449881
v 0.069767 0.803303 0.418778
v 0.090835 0.811108 0.384268
v 0.068165 0.812977 0.350392
v 0.047890 0.794467 0.407857
v 0.035831 0.793922 0.375216
v 0.081568 0.731132 0.414702
v 0.038246 0.710420 0.403859
v 0.104055 0.715704 0.361694
v 0.070002 0.681172 0.321760
v 0.025000 0.676634 0.349384
v 0.078592 0.613509 0.383039
v 0.042922 0.646028 0.389035
v 0.080556 0.617874 0.353818
v 0.068195 0.608305 0.323652
v 0.032123 0.599530 0.344089
v 0.034524 0.606496 0.331879
v 0.040983 0.587490 0.349514
v 0.062957 0.596159 0.341185
v 0.055401 0.619300 0.324327
v 0.080783 0.606251 0.332805
v 0.033107 0.574546 0.293703
v 0.064196 0.588524 0.284601
v 0.040944 0.545314 0.322583
v 0.072022 0.550295 0.318438
v 0.092678 0.576996 0.299407
v 0.053808 0.504681 0.225975
v 0.072088 0.512975 0.220630
v 0.059197 0.486461 0.244059
v 0.077532 0.490187 0.242998
v 0.088715 0.505540 0.229835
v 0.078091 0.511915 0.193248
v 0.098155 0.510171 0.203975
v 0.094749 0.498298 0.191502
v 0.078444 0.495353 0.178889
v 0.065792 0.504829 0.179523
v 0.066060 0.481532 0.158532
v 0.082520 0.480471 0.168266
v 0.088629 0.469901 0.162512
v 0.105078 0.489455 0.190112
v 0.108595 0.478319 0.182336
v 0.050210 0.494256 0.196585
v 0.067238 0.503302 0.216499
v 0.051797 0.463121 0.165765
v 0.084087 0.447774 0.170408
v 0.111584 0.458800 0.198926
v 0.106413 0.473532 0.210699
v 0.075235 0.461799 0.179157
v 0.068712 0.481501 0.195174
v 0.091664 0.485187 0.213347
v 0.095876 0.500767 0.231861
v 0.040607 0.477110 0.211760
v 0.057281 0.485525 0.232232
v 0.043280 0.447914 0.179224
v 0.076082 0.433482 0.183057
v 0.103140 0.443724 0.212269
v 0.097445 0.457519 0.224871
v 0.066743 0.446636 0.192577
v 0.059524 0.465096 0.209692
v 0.082317 0.468499 0.228116
v 0.085955 0.483055 0.247537
v 0.044690 0.450835 0.223369
v 0.052136 0.454459 0.233209
v 0.045981 0.438223 0.207355
v 0.061934 0.431944 0.208808
v 0.074163 0.436409 0.222625
v 0.071054 0.442338 0.228905
v 0.057136 0.437584 0.213693
v 0.053593 0.445630 0.222090
v 0.063893 0.447080 0.230764
v 0.065031 0.453380 0.240151
v 0.361108 0.779577 0.347084
v 0.333462 0.804891 0.366666
v 0.341932 0.813477 0.405077
v 0.372584 0.804799 0.403749
v 0.387050 0.788640 0.380556
v 0.327934 0.761190 0.441934
v 0.369735 0.739084 0.455550
v 0.313256 0.715321 0.406684
v 0.349254 0.663939 0.404878
v 0.388112 0.678646 0.437870
v 0.322495 0.649988 0.491464
v 0.360199 0.679691 0.483296
v 0.326100 0.634902 0.466253
v 0.342206 0.608657 0.451894
v 0.373011 0.615390 0.480238
v 0.330537 0.652167 0.479881
v 0.338010 0.646255 0.504880
v 0.370012 0.645077 0.484364
v 0.356269 0.650437 0.460395
v 0.330750 0.650977 0.460546
v 0.375931 0.594495 0.482374
v 0.358482 0.596495 0.451787
v 0.347156 0.593537 0.512660
v 0.324557 0.595190 0.490682
v 0.325724 0.597168 0.452365
v 0.362266 0.486537 0.473872
v 0.351996 0.487714 0.455870
v 0.343898 0.485937 0.492606
v 0.330231 0.486911 0.479792
v 0.331616 0.488105 0.456754
v 0.342587 0.451056 0.435422
v 0.338289 0.468054 0.433877
v 0.360513 0.463112 0.437332
v 0.360462 0.441222 0.438459
v 0.374386 0.449282 0.440070
v 0.375097 0.417949 0.441351
v 0.356558 0.422896 0.438843
v 0.350548 0.410913 0.438482
v 0.328173 0.429515 0.434451
v 0.331472 0.443132 0.434297
v 0.376585 0.454081 0.464903
v 0.356610 0.473511 0.462103
v 0.377905 0.410131 0.464341
v 0.343403 0.400207 0.458791
v 0.312205 0.426442 0.454367
v 0.316247 0.445490 0.455304
v 0.352020 0.417121 0.460430
v 0.357316 0.442806 0.461693
v 0.331452 0.456626 0.457879
v 0.325115 0.480508 0.457271
v 0.372433 0.452486 0.489330
v 0.352305 0.471857 0.487430
v 0.374222 0.408716 0.486006
v 0.339942 0.398877 0.479151
v 0.308554 0.425039 0.475845
v 0.312369 0.444000 0.478117
v 0.348348 0.415710 0.482032
v 0.353343 0.441280 0.485065
v 0.327411 0.455073 0.481654
v 0.320826 0.478860 0.482505
v 0.354997 0.441052 0.509670
v 0.345910 0.449988 0.509350
v 0.356312 0.420839 0.506970
v 0.340405 0.416384 0.503013
v 0.325835 0.428379 0.501961
v 0.327590 0.437166 0.503795
v 0.344297 0.424082 0.505139
v 0.346484 0.435872 0.507243
v 0.334543 0.442270 0.505952
v 0.331714 0.453219 0.507148
v 0.250799 0.780449 0.363020
v 0.267223 0.780298 0.367777
v 0.267570 0.780382 0.374914
v 0.251844 0.780717 0.385728
v 0.164102 0.781711 0.375351
v 0.164386 0.781618 0.368211
v 0.180768 0.781348 0.363315
v 0.179921 0.781641 0.386032
v 0.192395 0.780894 0.338660
v 0.239303 0.780291 0.338462
v 0.237318 0.781306 0.418282
v 0.194732 0.781853 0.418462
v 0.207306 0.881293 0.358874
v 0.212982 0.881035 0.343929
v 0.203621 0.881446 0.367407
v 0.203692 0.881557 0.376454
v 0.207467 0.881568 0.381239
v 0.213789 0.881704 0.398721
v 0.222481 0.880943 0.397272
v 0.228665 0.881296 0.381150
v 0.232398 0.881188 0.376333
v 0.232390 0.881076 0.367285
v 0.228599 0.881019 0.358784
v 0.222792 0.880909 0.343887
v 0.238906 0.847920 0.347126
v 0.250566 0.846520 0.374685
v 0.235278 0.850141 0.397214
v 0.208550 0.850746 0.402241
v 0.185605 0.849616 0.388403
v 0.185418 0.850153 0.352722
v 0.217370 0.858977 0.332423
v 0.200348 0.858942 0.334837
v 0.192368 0.862435 0.307687
v 0.220116 0.862664 0.303341
v 0.167324 0.867473 0.331663
v 0.169884 0.887090 0.402302
v 0.201374 0.879886 0.420240
v 0.251790 0.877547 0.409618
v 0.277021 0.883156 0.375312
v 0.248800 0.863370 0.315251
v 0.194480 0.912242 0.305289
v 0.219873 0.912316 0.298202
v 0.162094 0.938233 0.343670
v 0.164287 0.943924 0.398836
v 0.206021 0.936322 0.425410
v 0.255384 0.933995 0.415324
v 0.284227 0.940653 0.374234
v 0.266053 0.937001 0.333065
v 0.198687 0.971597 0.320286
v 0.222541 0.971726 0.316319
v 0.174433 0.972384 0.353154
v 0.182740 0.975000 0.389793
v 0.209848 0.972871 0.405533
v 0.245704 0.972054 0.399973
v 0.264678 0.972617 0.373765
v 0.255118 0.971853 0.338204
v 0.177888 0.446892 0.409663
v 0.131477 0.444807 0.396448
v 0.132798 0.435352 0.358741
v 0.184637 0.417149 0.348555
v 0.222443 0.445909 0.410908
v 0.216385 0.416257 0.337484
v 0.273129 0.432200 0.362313
v 0.269916 0.441709 0.399972
v 0.300215 0.494665 0.354495
v 0.301888 0.495817 0.405388
v 0.226273 0.488500 0.320938
v 0.187282 0.489330 0.320245
v 0.110061 0.498956 0.349613
v 0.100482 0.493823 0.400858
v 0.172017 0.537319 0.439072
v 0.234706 0.536158 0.437916
v 0.240747 0.627203 0.357067
v 0.259714 0.620420 0.374543
v 0.215494 0.625157 0.345519
v 0.202089 0.625552 0.345300
v 0.178375 0.631864 0.355370
v 0.154617 0.621626 0.373114
v 0.196024 0.614796 0.376837
v 0.216708 0.614209 0.378090
v 0.290686 0.478999 0.374681
v 0.270391 0.480443 0.349453
v 0.230264 0.484660 0.336440
v 0.217617 0.456375 0.377031
v 0.274908 0.467020 0.424912
v 0.225688 0.467276 0.420203
v 0.284666 0.362594 0.355734
v 0.221421 0.364728 0.359276
v 0.300810 0.387104 0.319226
v 0.275659 0.416007 0.288547
v 0.226220 0.417324 0.283409
v 0.209124 0.386317 0.328950
v 0.279733 0.244985 0.266275
v 0.231030 0.255398 0.261872
v 0.293054 0.283750 0.249358
v 0.277119 0.299992 0.212823
v 0.230840 0.298943 0.215048
v 0.216947 0.281782 0.256176
v 0.271363 0.077756 0.176297
v 0.263294 0.049252 0.201275
v 0.231301 0.053207 0.206608
v 0.219702 0.077546 0.180856
v 0.256306 0.084298 0.154652
v 0.228077 0.084059 0.157060
v 0.230976 0.209514 0.262756
v 0.278438 0.227136 0.268926
v 0.213321 0.213693 0.224232
v 0.223788 0.244404 0.194705
v 0.261337 0.248630 0.191221
v 0.294006 0.208138 0.224490
v 0.236876 0.288094 0.270795
v 0.290460 0.302294 0.266454
v 0.217302 0.282964 0.239843
v 0.227449 0.291329 0.216282
v 0.274223 0.300523 0.210582
v 0.286835 0.302683 0.230693
v 0.272181 0.036861 0.176096
v 0.281031 0.028393 0.209311
v 0.259518 0.026062 0.216171
v 0.224181 0.037513 0.177736
v 0.219990 0.033662 0.210188
v 0.240994 0.025000 0.220659
v 0.272535 0.052550 0.180427
v 0.224535 0.053163 0.182088
v 0.282065 0.042854 0.214665
v 0.259872 0.041713 0.220523
v 0.240647 0.041780 0.221924
v 0.219607 0.044647 0.213239
v 0.272889 0.068200 0.184778
v 0.224889 0.068813 0.186440
v 0.282595 0.066011 0.221791
v 0.260479 0.067727 0.229812
v 0.241288 0.070161 0.229824
v 0.219490 0.069644 0.214790
v 0.276633 0.031499 0.178207
v 0.219750 0.036784 0.173363
v 0.223786 0.064921 0.069903
v 0.287235 0.056215 0.085547
v 0.246165 0.070868 0.042645
v 0.218811 0.077410 0.057940
v 0.214204 0.043419 0.182784
v 0.245862 0.084577 0.025000
v 0.295573 0.066777 0.076923
v 0.282651 0.036972 0.188722
v 0.232602 0.083429 0.160932
v 0.231642 0.074497 0.193612
v 0.245287 0.084824 0.152653
v 0.270098 0.079019 0.167269
v 0.266074 0.071340 0.196295
v 0.168924 0.450470 0.338060
v 0.130243 0.463932 0.345325
v 0.121526 0.483586 0.371795
v 0.186030 0.465035 0.379443
v 0.138551 0.503927 0.389465
v 0.168785 0.506750 0.397523
v 0.117985 0.394911 0.438099
v 0.175745 0.395535 0.442743
v 0.097499 0.382562 0.399711
v 0.123502 0.367874 0.357475
v 0.174458 0.366259 0.354289
v 0.192894 0.383123 0.406734
v 0.115546 0.251730 0.482279
v 0.164191 0.251648 0.470079
v 0.102927 0.262295 0.440862
v 0.117662 0.242243 0.405672
v 0.163817 0.241005 0.407833
v 0.178802 0.262688 0.446436
v 0.143977 0.078629 0.596097
v 0.111584 0.075084 0.595080
v 0.104027 0.074655 0.557216
v 0.155704 0.073354 0.561174
v 0.118174 0.060830 0.538620
v 0.146420 0.060079 0.540726
v 0.158183 0.221393 0.511889
v 0.112491 0.241570 0.501485
v 0.173875 0.193251 0.484304
v 0.163804 0.190970 0.441770
v 0.126496 0.194276 0.435653
v 0.093148 0.196571 0.487837
v 0.158123 0.278043 0.456963
v 0.105583 0.288604 0.442368
v 0.175661 0.249461 0.441259
v 0.164581 0.237751 0.419536
v 0.118297 0.243175 0.408219
v 0.106872 0.261167 0.419218
v 0.116339 0.065601 0.614353
v 0.094673 0.063732 0.607843
v 0.102138 0.042935 0.580184
v 0.150086 0.040380 0.581458
v 0.155879 0.062389 0.605281
v 0.134977 0.066727 0.618324
v 0.103103 0.056285 0.570917
v 0.151049 0.053721 0.572235
v 0.094936 0.077142 0.600164
v 0.117302 0.078942 0.605129
v 0.136537 0.078365 0.606266
v 0.157184 0.071694 0.598814
v 0.104066 0.069626 0.561693
v 0.152013 0.067062 0.563011
v 0.096395 0.097408 0.586957
v 0.119004 0.102693 0.591116
v 0.138284 0.102565 0.589545
v 0.159089 0.088812 0.580630
v 0.144842 0.028079 0.463777
v 0.147418 0.034589 0.567811
v 0.091122 0.045361 0.572184
v 0.082139 0.040747 0.478960
v 0.123216 0.030251 0.436394
v 0.151991 0.034297 0.449171
v 0.154863 0.042183 0.574461
v 0.125867 0.036903 0.415934
v 0.076189 0.049563 0.467502
v 0.087249 0.055048 0.579778
v 0.145491 0.075676 0.541085
v 0.145961 0.077789 0.573930
v 0.133085 0.077399 0.532633
v 0.108404 0.082905 0.547022
v 0.111979 0.084216 0.576446
v 0.388811 0.043209 0.251718
v 0.389066 0.043353 0.251718
v 0.389069 0.043646 0.251718
v 0.388816 0.043795 0.251718
v 0.388561 0.043650 0.251718
v 0.388558 0.043357 0.251718
v 0.388810 0.043035 0.247163
v 0.389214 0.043266 0.247163
v 0.388410 0.043272 0.247163
v 0.388413 0.043738 0.247163
v 0.388817 0.043969 0.247163
v 0.389217 0.043731 0.247163
f 1 2 3
f 4 1 3
f 4 3 5
f 4 5 6
f 4 6 7
f 4 7 8
f 7 6 9
f 7 9 10
f 6 5 11
f 6 11 9
f 5 3 12
f 5 12 11
f 3 2 13
f 3 13 12
f 2 1 14
f 2 14 13
f 1 4 15
f 1 15 14
f 4 8 16
f 4 16 15
f 8 7 10
f 8 10 16
f 10 9 17
f 10 17 18
f 9 11 19
f 9 19 17
f 11 12 20
f 11 20 19
f 12 13 21
f 12 21 20
f 13 14 22
f 13 22 21
f 14 15 23
f 14 23 22
f 15 16 24
f 15 24 23
f 16 10 18
f 16 18 24
f 18 17 25
f 18 25 26
f 17 19 27
f 17 27 25
f 19 20 28
f 19 28 27
f 20 21 29
f 20 29 28
f 21 22 30
f 21 30 29
f 22 23 31
f 22 31 30
f 23 24 32
f 23 32 31
f 24 18 26
f 24 26 32
f 28 29 30
f 28 30 31
f 27 28 31
f 25 27 31
f 26 25 31
f 32 26 31
f 33 34 35
f 36 33 35
f 36 35 37
f 38 33 36
f 39 38 36
f 40 34 33
f 38 40 33
f 41 35 34
f 40 41 34
f 42 37 35
f 41 42 35
f 39 36 37
f 42 39 37
f 43 38 39
f 44 43 39
f 45 40 38
f 43 45 38
f 46 41 40
f 45 46 40
f 47 42 41
f 46 47 41
f 44 39 42
f 47 44 42
f 46 45 43
f 46 43 44
f 47 46 44
f 48 49 50
f 51 48 50
f 51 50 52
f 53 48 51
f 54 53 51
f 55 49 48
f 53 55 48
f 56 50 49
f 55 56 49
f 57 52 50
f 56 57 50
f 54 51 52
f 57 54 52
f 58 53 54
f 59 58 54
f 60 55 53
f 58 60 53
f 61 56 55
f 60 61 55
f 62 57 56
f 61 62 56
f 59 54 57
f 62 59 57
f 61 60 58
f 61 58 59
f 62 61 59
f 63 64 65
f 63 65 66
f 67 63 66
f 68 67 66
f 68 66 69
f 70 68 69
f 69 71 72
f 69 72 70
f 63 67 73
f 63 73 74
f 67 68 75
f 67 75 73
f 68 70 76
f 68 76 75
f 70 72 77
f 70 77 76
f 72 71 78
f 72 78 77
f 71 69 79
f 71 79 78
f 69 66 80
f 69 80 79
f 66 65 81
f 66 81 80
f 65 64 82
f 65 82 81
f 64 63 74
f 64 74 82
f 74 73 83
f 74 83 84
f 73 75 85
f 73 85 83
f 75 76 86
f 75 86 85
f 76 77 87
f 76 87 86
f 77 78 88
f 77 88 87
f 78 79 89
f 78 89 88
f 79 80 90
f 79 90 89
f 80 81 91
f 80 91 90
f 81 82 92
f 81 92 91
f 82 74 84
f 82 84 92
f 84 83 93
f 84 93 94
f 83 85 95
f 83 95 93
f 85 86 96
f 85 96 95
f 86 87 97
f 86 97 96
f 87 88 98
f 87 98 97
f 88 89 99
f 88 99 98
f 89 90 100
f 89 100 99
f 90 91 101
f 90 101 100
f 91 92 102
f 91 102 101
f 92 84 94
f 92 94 102
f 101 102 94
f 100 101 94
f 100 94 93
f 100 93 95
f 99 100 95
f 99 95 96
f 97 98 99
f 96 97 99
f 103 104 105
f 103 105 106
f 107 103 106
f 106 105 108
f 106 108 109
f 105 104 110
f 105 110 108
f 104 103 111
f 104 111 110
f 103 107 112
f 103 112 111
f 107 106 109
f 107 109 112
f 109 108 113
f 109 113 114
f 108 110 115
f 108 115 113
f 110 111 116
f 110 116 115
f 111 112 117
f 111 117 116
f 112 109 114
f 112 114 117
f 113 115 116
f 114 113 116
f 114 116 117
f 118 119 120
f 118 120 121
f 122 118 121
f 121 120 123
f 121 123 124
f 120 119 125
f 120 125 123
f 119 118 126
f 119 126 125
f 118 122 127
f 118 127 126
f 122 121 124
f 122 124 127
f 124 123 128
f 124 128 129
f 123 125 130
f 123 130 128
f 125 126 131
f 125 131 130
f 126 127 132
f 126 132 131
f 127 124 129
f 127 129 132
f 128 130 131
f 129 128 131
f 129 131 132
f 133 134 135
f 136 133 135
f 136 135 137
f 136 137 138
f 139 136 138
f 139 138 140
f 141 142 139
f 140 141 139
f 143 137 135
f 144 143 135
f 145 138 137
f 143 145 137
f 146 140 138
f 145 146 138
f 147 141 140
f 146 147 140
f 148 142 141
f 147 148 141
f 149 139 142
f 148 149 142
f 150 136 139
f 149 150 139
f 151 133 136
f 150 151 136
f 152 134 133
f 151 152 133
f 144 135 134
f 152 144 134
f 153 143 144
f 154 153 144
f 155 145 143
f 153 155 143
f 156 146 145
f 155 156 145
f 157 147 146
f 156 157 146
f 158 148 147
f 157 158 147
f 159 149 148
f 158 159 148
f 160 150 149
f 159 160 149
f 161 151 150
f 160 161 150
f 162 152 151
f 161 162 151
f 154 144 152
f 162 154 152
f 163 153 154
f 164 163 154
f 165 155 153
f 163 165 153
f 166 156 155
f 165 166 155
f 167 157 156
f 166 167 156
f 168 158 157
f 167 168 157
f 169 159 158
f 168 169 158
f 170 160 159
f 169 170 159
f 171 161 160
f 170 171 160
f 172 162 161
f 171 172 161
f 164 154 162
f 172 164 162
f 164 172 171
f 164 171 170
f 163 164 170
f 165 163 170
f 165 170 169
f 166 165 169
f 169 168 167
f 169 167 166
f 173 174 175
f 173 175 176
f 177 178 179
f 180 177 179
f 179 181 182
f 179 182 173
f 179 173 176
f 179 176 183
f 179 183 184
f 179 184 180
f 181 179 185
f 181 185 186
f 179 178 187
f 179 187 185
f 178 177 188
f 178 188 187
f 177 180 189
f 177 189 188
f 180 184 190
f 180 190 189
f 184 183 191
f 184 191 190
f 183 176 192
f 183 192 191
f 176 175 193
f 176 193 192
f 175 174 194
f 175 194 193
f 174 173 195
f 174 195 194
f 173 182 196
f 173 196 195
f 182 181 186
f 182 186 196
f 192 193 194
f 192 194 195
f 187 188 189
f 185 187 189
f 195 196 186
f 195 186 185
f 192 195 185
f 192 185 189
f 191 192 189
f 190 191 189
f 197 198 199
f 197 199 200
f 197 200 201
f 197 201 202
f 203 197 202
f 203 202 204
f 203 204 205
f 203 205 206
f 204 202 207
f 204 207 205
f 202 201 208
f 202 208 207
f 201 200 209
f 201 209 208
f 200 199 210
f 200 210 209
f 199 198 211
f 199 211 210
f 198 197 212
f 198 212 211
f 197 203 206
f 197 206 212
f 206 205 213
f 206 213 214
f 205 207 215
f 205 215 213
f 207 208 216
f 207 216 215
f 208 209 217
f 208 217 216
f 209 210 218
f 209 218 217
f 210 211 219
f 210 219 218
f 211 212 220
f 211 220 219
f 212 206 214
f 212 214 220
f 214 213 221
f 214 221 222
f 213 215 223
f 213 223 221
f 215 216 224
f 215 224 223
f 216 217 225
f 216 225 224
f 217 218 226
f 217 226 225
f 218 219 227
f 218 227 226
f 219 220 228
f 219 228 227
f 220 214 222
f 220 222 228
f 223 224 225
f 223 225 226
f 223 226 227
f 223 227 228
f 223 228 222
f 221 223 222
f 229 230 231
f 229 231 232
f 233 229 232
f 233 232 234
f 233 234 235
f 233 235 236
f 236 235 237
f 236 237 238
f 235 234 239
f 235 239 237
f 234 232 240
f 234 240 239
f 232 231 241
f 232 241 240
f 231 230 242
f 231 242 241
f 230 229 243
f 230 243 242
f 229 233 244
f 229 244 243
f 233 236 238
f 233 238 244
f 238 237 245
f 238 245 246
f 237 239 247
f 237 247 245
f 239 240 248
f 239 248 247
f 240 241 249
f 240 249 248
f 241 242 250
f 241 250 249
f 242 243 251
f 242 251 250
f 243 244 252
f 243 252 251
f 244 238 246
f 244 246 252
f 249 250 251
f 248 249 251
f 248 251 252
f 247 248 252
f 245 247 252
f 246 245 252
f 253 254 255
f 253 255 256
f 257 253 256
f 258 257 256
f 259 257 258
f 260 259 258
f 261 253 257
f 259 261 257
f 262 254 253
f 261 262 253
f 263 255 254
f 262 263 254
f 264 256 255
f 263 264 255
f 260 258 256
f 264 260 256
f 265 259 260
f 266 265 260
f 267 261 259
f 265 267 259
f 268 262 261
f 267 268 261
f 269 263 262
f 268 269 262
f 270 264 263
f 269 270 263
f 266 260 264
f 270 266 264
f 269 268 267
f 270 269 267
f 270 267 265
f 270 265 266
f 271 272 273
f 271 273 274
f 275 271 274
f 276 275 274
f 277 273 272
f 278 277 272
f 279 274 273
f 277 279 273
f 280 276 274
f 279 280 274
f 281 275 276
f 280 281 276
f 282 271 275
f 281 282 275
f 278 272 271
f 282 278 271
f 283 277 278
f 284 283 278
f 285 279 277
f 283 285 277
f 286 280 279
f 285 286 279
f 287 281 280
f 286 287 280
f 288 282 281
f 287 288 281
f 284 278 282
f 288 284 282
f 283 284 288
f 285 283 288
f 285 288 287
f 285 287 286
f 289 290 291
f 292 289 291
f 293 292 291
f 294 293 291
f 295 289 292
f 296 295 292
f 297 290 289
f 295 297 289
f 298 291 290
f 297 298 290
f 299 294 291
f 298 299 291
f 300 293 294
f 299 300 294
f 296 292 293
f 300 296 293
f 301 295 296
f 302 301 296
f 303 297 295
f 301 303 295
f 304 298 297
f 303 304 297
f 305 299 298
f 304 305 298
f 306 300 299
f 305 306 299
f 302 296 300
f 306 302 300
f 304 303 301
f 304 301 302
f 304 302 306
f 304 306 305
f 307 308 309
f 310 307 309
f 311 310 309
f 312 309 308
f 313 312 308
f 314 311 309
f 312 314 309
f 315 310 311
f 314 315 311
f 316 307 310
f 315 316 310
f 313 308 307
f 316 313 307
f 317 312 313
f 318 317 313
f 319 314 312
f 317 319 312
f 320 315 314
f 319 320 314
f 321 316 315
f 320 321 315
f 318 313 316
f 321 318 316
f 317 318 321
f 319 317 321
f 320 319 321
f 322 323 324
f 325 322 324
f 325 324 326
f 325 326 327
f 327 326 328
f 327 328 329
f 326 324 330
f 326 330 328
f 324 323 331
f 324 331 330
f 323 322 332
f 323 332 331
f 322 325 333
f 322 333 332
f 325 327 329
f 325 329 333
f 329 328 334
f 329 334 335
f 328 330 336
f 328 336 334
f 330 331 337
f 330 337 336
f 331 332 338
f 331 338 337
f 332 333 339
f 332 339 338
f 333 329 335
f 333 335 339
f 336 337 338
f 336 338 339
f 334 336 339
f 335 334 339
f 340 341 342
f 343 340 342
f 343 342 344
f 343 344 345
f 341 340 346
f 341 346 347
f 340 343 348
f 340 348 346
f 343 345 349
f 343 349 348
f 345 344 350
f 345 350 349
f 344 342 351
f 344 351 350
f 342 341 347
f 342 347 351
f 347 346 352
f 347 352 353
f 346 348 354
f 346 354 352
f 348 349 355
f 348 355 354
f 349 350 356
f 349 356 355
f 350 351 357
f 350 357 356
f 351 347 353
f 351 353 357
f 357 353 352
f 357 352 354
f 356 357 354
f 355 356 354
f 358 359 360
f 358 360 361
f 358 361 362
f 358 362 363
f 361 360 364
f 361 364 365
f 360 359 366
f 360 366 364
f 359 358 367
f 359 367 366
f 358 363 368
f 358 368 367
f 363 362 369
f 363 369 368
f 362 361 365
f 362 365 369
f 365 364 370
f 365 370 371
f 364 366 372
f 364 372 370
f 366 367 373
f 366 373 372
f 367 368 374
f 367 374 373
f 368 369 375
f 368 375 374
f 369 365 371
f 369 371 375
f 370 372 373
f 371 370 373
f 375 371 373
f 374 375 373
f 376 377 378
f 376 378 379
f 376 379 380
f 377 376 381
f 377 381 382
f 376 380 383
f 376 383 381
f 380 379 384
f 380 384 383
f 379 378 385
f 379 385 384
f 378 377 382
f 378 382 385
f 382 381 386
f 382 386 387
f 381 383 388
f 381 388 386
f 383 384 389
f 383 389 388
f 384 385 390
f 384 390 389
f 385 382 387
f 385 387 390
f 390 387 386
f 390 386 388
f 390 388 389
f 391 392 393
f 391 393 394
f 391 394 395
f 396 391 395
f 392 391 397
f 392 397 398
f 391 396 399
f 391 399 397
f 396 395 400
f 396 400 399
f 395 394 401
f 395 401 400
f 394 393 402
f 394 402 401
f 393 392 398
f 393 398 402
f 398 397 399
f 402 398 399
f 401 402 399
f 400 401 399
