# Original shape: m1679.obj
# No processing applied - exact copy of source file
# Generated on 2025-10-03 22:58:47

v 0.090673 0.849711 0.070999
v 0.118692 0.863205 0.070999
v 0.121771 0.849711 0.070999
v 0.110063 0.874026 0.070999
v 0.097593 0.880031 0.070999
v 0.083753 0.880031 0.070999
v 0.071283 0.874026 0.070999
v 0.062654 0.863205 0.070999
v 0.059574 0.849711 0.070999
v 0.062654 0.836219 0.070999
v 0.071283 0.825398 0.070999
v 0.083753 0.819393 0.070999
v 0.097593 0.819393 0.070999
v 0.110063 0.825398 0.070999
v 0.118692 0.836219 0.070999
v 0.116378 0.862092 0.074940
v 0.119204 0.849711 0.074940
v 0.108461 0.872018 0.074940
v 0.097022 0.877526 0.074940
v 0.084324 0.877526 0.074940
v 0.072884 0.872018 0.074940
v 0.064968 0.862092 0.074940
v 0.062142 0.849711 0.074940
v 0.064968 0.837332 0.074940
v 0.072884 0.827406 0.074940
v 0.084324 0.821896 0.074940
v 0.097022 0.821896 0.074940
v 0.108461 0.827406 0.074940
v 0.116378 0.837332 0.074940
v 0.090673 0.849711 0.074940
v 0.137100 0.887180 0.029198
v 0.137641 0.899229 0.029198
v 0.144776 0.894464 0.035225
v 0.144153 0.887180 0.035225
v 0.137677 0.905317 0.029198
v 0.144816 0.901464 0.035225
v 0.137428 0.912135 0.029198
v 0.144530 0.909304 0.035225
v 0.137116 0.918324 0.029198
v 0.144171 0.916422 0.035225
v 0.136962 0.922525 0.029198
v 0.143995 0.921254 0.035225
v 0.134596 0.933896 0.029198
v 0.141274 0.934330 0.035225
v 0.127987 0.945716 0.029198
v 0.133674 0.947922 0.035225
v 0.117876 0.956274 0.029198
v 0.122045 0.960066 0.035225
v 0.104998 0.963863 0.029198
v 0.107237 0.968792 0.035225
v 0.090094 0.966772 0.029198
v 0.090097 0.972138 0.035225
v 0.075190 0.963750 0.029198
v 0.072956 0.968662 0.035225
v 0.062312 0.955936 0.029198
v 0.058148 0.959674 0.035225
v 0.052201 0.945206 0.029198
v 0.046519 0.947337 0.035225
v 0.045592 0.933444 0.029198
v 0.038920 0.933809 0.035225
v 0.043226 0.922525 0.029198
v 0.036198 0.921254 0.035225
v 0.043069 0.918386 0.029198
v 0.036017 0.916494 0.035225
v 0.042745 0.912257 0.029198
v 0.035646 0.909445 0.035225
v 0.042478 0.905496 0.029198
v 0.035338 0.901670 0.035225
v 0.042487 0.899464 0.029198
v 0.035348 0.894733 0.035225
v 0.042994 0.887184 0.029198
v 0.035931 0.887184 0.035225
v 0.148581 0.891921 0.043857
v 0.147915 0.887180 0.043857
v 0.148624 0.899410 0.043857
v 0.148318 0.907796 0.043857
v 0.147934 0.915409 0.043857
v 0.147746 0.920577 0.043857
v 0.144835 0.934562 0.043857
v 0.136707 0.949099 0.043857
v 0.124269 0.962087 0.043857
v 0.108430 0.971421 0.043857
v 0.090098 0.975000 0.043857
v 0.071765 0.971282 0.043857
v 0.055927 0.961670 0.043857
v 0.043489 0.948473 0.043857
v 0.035361 0.934005 0.043857
v 0.032450 0.920577 0.043857
v 0.032257 0.915486 0.043857
v 0.031859 0.907946 0.043857
v 0.031530 0.899630 0.043857
v 0.031541 0.892211 0.043857
v 0.032165 0.887184 0.043857
v 0.148581 0.891921 0.053422
v 0.147915 0.887180 0.053422
v 0.148624 0.899410 0.053422
v 0.148318 0.907796 0.053422
v 0.147934 0.915409 0.053422
v 0.147746 0.920577 0.053422
v 0.144835 0.934562 0.053422
v 0.136707 0.949099 0.053422
v 0.124269 0.962087 0.053422
v 0.108430 0.971421 0.053422
v 0.090098 0.975000 0.053422
v 0.071765 0.971282 0.053422
v 0.055927 0.961670 0.053422
v 0.043489 0.948473 0.053422
v 0.035361 0.934005 0.053422
v 0.032450 0.920577 0.053422
v 0.032257 0.915486 0.053422
v 0.031859 0.907946 0.053422
v 0.031530 0.899630 0.053422
v 0.031541 0.892211 0.053422
v 0.032165 0.887184 0.053422
v 0.144776 0.894464 0.062055
v 0.144153 0.887180 0.062055
v 0.144816 0.901464 0.062055
v 0.144530 0.909304 0.062055
v 0.144171 0.916422 0.062055
v 0.143995 0.921254 0.062055
v 0.141274 0.934330 0.062055
v 0.133674 0.947922 0.062055
v 0.122045 0.960066 0.062055
v 0.107237 0.968792 0.062055
v 0.090097 0.972138 0.062055
v 0.072956 0.968662 0.062055
v 0.058148 0.959674 0.062055
v 0.046519 0.947337 0.062055
v 0.038920 0.933809 0.062055
v 0.036198 0.921254 0.062055
v 0.036017 0.916494 0.062055
v 0.035646 0.909445 0.062055
v 0.035338 0.901670 0.062055
v 0.035348 0.894733 0.062055
v 0.035931 0.887184 0.062055
v 0.137641 0.899229 0.068082
v 0.137100 0.887180 0.068082
v 0.137677 0.905317 0.068082
v 0.137428 0.912135 0.068082
v 0.137116 0.918324 0.068082
v 0.136962 0.922525 0.068082
v 0.134596 0.933896 0.068082
v 0.127987 0.945716 0.068082
v 0.117876 0.956274 0.068082
v 0.104998 0.963863 0.068082
v 0.090094 0.966772 0.068082
v 0.075190 0.963750 0.068082
v 0.062312 0.955936 0.068082
v 0.052201 0.945206 0.068082
v 0.045592 0.933444 0.068082
v 0.043226 0.922525 0.068082
v 0.043069 0.918386 0.068082
v 0.042745 0.912257 0.068082
v 0.042478 0.905496 0.068082
v 0.042487 0.899464 0.068082
v 0.042994 0.887184 0.068082
v 0.126559 0.907012 0.029198
v 0.055960 0.906746 0.029198
v 0.055197 0.912889 0.029198
v 0.127261 0.913137 0.029198
v 0.055483 0.918952 0.029198
v 0.126914 0.919200 0.029198
v 0.125566 0.925076 0.029198
v 0.123269 0.930635 0.029198
v 0.056772 0.924822 0.029198
v 0.120073 0.935756 0.029198
v 0.116027 0.940311 0.029198
v 0.111183 0.944174 0.029198
v 0.105750 0.947149 0.029198
v 0.099994 0.949120 0.029198
v 0.066158 0.940072 0.029198
v 0.062158 0.935500 0.029198
v 0.059013 0.930377 0.029198
v 0.094047 0.950092 0.029198
v 0.088040 0.950062 0.029198
v 0.082102 0.949032 0.029198
v 0.076367 0.947002 0.029198
v 0.070964 0.943973 0.029198
v 0.126559 0.907012 0.068082
v 0.055960 0.906746 0.068082
v 0.127261 0.913137 0.068082
v 0.126914 0.919200 0.068082
v 0.055197 0.912889 0.068082
v 0.125566 0.925076 0.068082
v 0.123269 0.930635 0.068082
v 0.056772 0.924822 0.068082
v 0.055483 0.918952 0.068082
v 0.120073 0.935756 0.068082
v 0.116027 0.940311 0.068082
v 0.111183 0.944174 0.068082
v 0.105750 0.947149 0.068082
v 0.099994 0.949120 0.068082
v 0.066158 0.940072 0.068082
v 0.062158 0.935500 0.068082
v 0.059013 0.930377 0.068082
v 0.094047 0.950092 0.068082
v 0.088040 0.950062 0.068082
v 0.082102 0.949032 0.068082
v 0.079828 0.948227 0.068082
v 0.076367 0.947002 0.068082
v 0.070964 0.943973 0.068082
v 0.090270 0.025000 0.048435
v 0.104165 0.025000 0.041744
v 0.105692 0.025000 0.048435
v 0.099886 0.025000 0.036378
v 0.093702 0.025000 0.033400
v 0.086838 0.025000 0.033400
v 0.080655 0.025000 0.036378
v 0.076376 0.025000 0.041744
v 0.074848 0.025000 0.048435
v 0.076376 0.025000 0.055127
v 0.080655 0.025000 0.060493
v 0.086838 0.025000 0.063471
v 0.093702 0.025000 0.063471
v 0.099886 0.025000 0.060493
v 0.104165 0.025000 0.055127
v 0.104165 0.719705 0.041744
v 0.105692 0.719705 0.048435
v 0.099886 0.719705 0.036378
v 0.093702 0.719705 0.033400
v 0.086838 0.719705 0.033400
v 0.080655 0.719705 0.036378
v 0.076376 0.719705 0.041744
v 0.074848 0.719705 0.048435
v 0.076376 0.719705 0.055127
v 0.080655 0.719705 0.060493
v 0.086838 0.719705 0.063471
v 0.093702 0.719705 0.063471
v 0.099886 0.719705 0.060493
v 0.104165 0.719705 0.055127
v 0.090270 0.719705 0.048435
v 0.141480 0.888169 0.025000
v 0.038568 0.888169 0.025000
v 0.034988 0.888169 0.034410
v 0.145104 0.888169 0.034410
v 0.031559 0.878576 0.025000
v 0.027489 0.878576 0.034410
v 0.031565 0.842215 0.025000
v 0.027495 0.842215 0.034410
v 0.041656 0.815663 0.025000
v 0.038293 0.815663 0.034410
v 0.048285 0.720147 0.025000
v 0.045385 0.720147 0.034410
v 0.131136 0.720147 0.025000
v 0.134036 0.720147 0.034410
v 0.137764 0.815722 0.025000
v 0.141128 0.815722 0.034410
v 0.147855 0.842247 0.025000
v 0.151926 0.842247 0.034410
v 0.147850 0.878570 0.025000
v 0.151921 0.878570 0.034410
v 0.032799 0.888169 0.043819
v 0.147320 0.888169 0.043819
v 0.025000 0.878576 0.043819
v 0.025007 0.842215 0.043819
v 0.036236 0.815663 0.043819
v 0.043612 0.720147 0.043819
v 0.135809 0.720147 0.043819
v 0.143185 0.815722 0.043819
v 0.154414 0.842247 0.043819
v 0.154409 0.878570 0.043819
v 0.032799 0.888169 0.053229
v 0.147320 0.888169 0.053229
v 0.025000 0.878576 0.053229
v 0.025007 0.842215 0.053229
v 0.036236 0.815663 0.053229
v 0.043612 0.720147 0.053229
v 0.135809 0.720147 0.053229
v 0.143185 0.815722 0.053229
v 0.154414 0.842247 0.053229
v 0.154409 0.878570 0.053229
v 0.034988 0.888169 0.062639
v 0.145104 0.888169 0.062639
v 0.027489 0.878576 0.062639
v 0.027495 0.842215 0.062639
v 0.038293 0.815663 0.062639
v 0.045385 0.720147 0.062639
v 0.134036 0.720147 0.062639
v 0.141128 0.815722 0.062639
v 0.151926 0.842247 0.062639
v 0.151921 0.878570 0.062639
v 0.038568 0.888169 0.072048
v 0.141480 0.888169 0.072048
v 0.031559 0.878576 0.072048
v 0.031565 0.842215 0.072048
v 0.041656 0.815663 0.072048
v 0.048285 0.720147 0.072048
v 0.131136 0.720147 0.072048
v 0.137764 0.815722 0.072048
v 0.147855 0.842247 0.072048
v 0.147850 0.878570 0.072048
v 0.080616 0.827382 0.074658
v 0.092014 0.873118 0.074658
v 0.098642 0.871467 0.074658
v 0.087245 0.825731 0.074658
v 0.081361 0.829202 0.084022
v 0.087442 0.827686 0.084022
v 0.097898 0.869646 0.084022
v 0.091817 0.871162 0.084022
v 0.087245 0.825731 0.082135
v 0.080616 0.827382 0.082135
v 0.098642 0.871467 0.082135
v 0.092014 0.873118 0.082135
v 0.054447 0.906216 0.047519
v 0.127857 0.906216 0.047519
v 0.127857 0.906216 0.049099
v 0.054447 0.906216 0.049099
v 0.127936 0.929388 0.047519
v 0.127936 0.929388 0.049099
v 0.112368 0.945827 0.047519
v 0.112368 0.945827 0.049099
v 0.090260 0.952560 0.047519
v 0.090260 0.952560 0.049099
v 0.066688 0.943704 0.047519
v 0.066688 0.943704 0.049099
v 0.054474 0.924993 0.047519
v 0.054474 0.924993 0.049099
v 0.105176 0.906190 0.045459
v 0.102856 0.909825 0.045459
v 0.102856 0.909825 0.051049
v 0.105176 0.906190 0.051049
v 0.099727 0.912746 0.045459
v 0.099727 0.912746 0.051049
v 0.095940 0.914807 0.045459
v 0.095940 0.914807 0.051049
v 0.094410 0.915206 0.045459
v 0.094410 0.915206 0.051049
v 0.092747 0.915522 0.045459
v 0.092747 0.915522 0.051049
v 0.091954 0.915755 0.045459
v 0.091954 0.915755 0.051049
v 0.091956 0.934842 0.045459
v 0.091956 0.934842 0.051049
v 0.096363 0.934650 0.045459
v 0.096363 0.934650 0.051049
v 0.090439 0.944667 0.045459
v 0.090439 0.944667 0.051049
v 0.083376 0.935212 0.045459
v 0.083376 0.935212 0.051049
v 0.087475 0.935013 0.045459
v 0.087475 0.935013 0.051049
v 0.087465 0.915836 0.045459
v 0.087465 0.915836 0.051049
v 0.083308 0.914724 0.045459
v 0.083308 0.914724 0.051049
v 0.079548 0.912612 0.045459
v 0.079548 0.912612 0.051049
v 0.076458 0.909654 0.045459
v 0.076458 0.909654 0.051049
v 0.074186 0.905989 0.045459
v 0.074186 0.905989 0.051049
v 0.125634 0.842651 0.072015
v 0.125634 0.879616 0.072015
v 0.143341 0.879616 0.072015
v 0.143341 0.842651 0.072015
v 0.125634 0.842651 0.073344
v 0.143341 0.842651 0.073344
v 0.143341 0.879616 0.073344
v 0.125634 0.879616 0.073344
v 0.090167 0.906229 0.072068
v 0.090167 0.927789 0.070278
v 0.082541 0.926149 0.070278
v 0.076075 0.921476 0.070278
v 0.071755 0.914480 0.070278
v 0.071186 0.906229 0.070278
v 0.109148 0.906229 0.070278
v 0.108580 0.914480 0.070278
v 0.104260 0.921476 0.070278
v 0.097794 0.926149 0.070278
v 0.090167 0.946068 0.065182
v 0.076075 0.943036 0.065182
v 0.064128 0.934400 0.065182
v 0.056145 0.921476 0.065182
v 0.055095 0.906229 0.065182
v 0.125239 0.906229 0.065182
v 0.124190 0.921476 0.065182
v 0.116207 0.934400 0.065182
v 0.104260 0.943036 0.065182
v 0.090167 0.953799 0.061156
v 0.073340 0.950179 0.061156
v 0.059075 0.939867 0.061156
v 0.049543 0.924434 0.061156
v 0.048289 0.906229 0.061156
v 0.132045 0.906229 0.061156
v 0.130792 0.924434 0.061156
v 0.121260 0.939867 0.061156
v 0.106995 0.950179 0.061156
v 0.090167 0.906229 0.061156
v 0.090167 0.927789 0.026839
v 0.090167 0.906229 0.025050
v 0.082541 0.926149 0.026839
v 0.076075 0.921476 0.026839
v 0.071755 0.914480 0.026839
v 0.071186 0.906229 0.026839
v 0.109148 0.906229 0.026839
v 0.108580 0.914480 0.026839
v 0.104260 0.921476 0.026839
v 0.097794 0.926149 0.026839
v 0.090167 0.946068 0.031936
v 0.076075 0.943036 0.031936
v 0.064128 0.934400 0.031936
v 0.056145 0.921476 0.031936
v 0.055095 0.906229 0.031936
v 0.125239 0.906229 0.031936
v 0.124190 0.921476 0.031936
v 0.116207 0.934400 0.031936
v 0.104260 0.943036 0.031936
v 0.090167 0.953799 0.035962
v 0.073340 0.950179 0.035962
v 0.059075 0.939867 0.035962
v 0.049543 0.924434 0.035962
v 0.048289 0.906229 0.035962
v 0.132045 0.906229 0.035962
v 0.130792 0.924434 0.035962
v 0.121260 0.939867 0.035962
v 0.106995 0.950179 0.035962
v 0.090167 0.906229 0.035962
f 1 2 3
f 1 4 2
f 1 5 4
f 1 6 5
f 1 7 6
f 1 8 7
f 1 9 8
f 1 10 9
f 1 11 10
f 1 12 11
f 1 13 12
f 1 14 13
f 1 15 14
f 1 3 15
f 3 16 17
f 3 2 16
f 2 18 16
f 2 4 18
f 4 19 18
f 4 5 19
f 5 20 19
f 5 6 20
f 6 21 20
f 6 7 21
f 7 22 21
f 7 8 22
f 8 23 22
f 8 9 23
f 9 24 23
f 9 10 24
f 10 25 24
f 10 11 25
f 11 26 25
f 11 12 26
f 12 27 26
f 12 13 27
f 13 28 27
f 13 14 28
f 14 29 28
f 14 15 29
f 15 17 29
f 15 3 17
f 30 17 16
f 30 16 18
f 30 18 19
f 30 19 20
f 30 20 21
f 30 21 22
f 30 22 23
f 30 23 24
f 30 24 25
f 30 25 26
f 30 26 27
f 30 27 28
f 30 28 29
f 30 29 17
f 31 32 33
f 31 33 34
f 32 35 36
f 32 36 33
f 35 37 38
f 35 38 36
f 37 39 40
f 37 40 38
f 39 41 42
f 39 42 40
f 41 43 44
f 41 44 42
f 43 45 46
f 43 46 44
f 45 47 48
f 45 48 46
f 47 49 50
f 47 50 48
f 49 51 52
f 49 52 50
f 51 53 54
f 51 54 52
f 53 55 56
f 53 56 54
f 55 57 58
f 55 58 56
f 57 59 60
f 57 60 58
f 59 61 62
f 59 62 60
f 61 63 64
f 61 64 62
f 63 65 66
f 63 66 64
f 65 67 68
f 65 68 66
f 67 69 70
f 67 70 68
f 69 71 72
f 69 72 70
f 71 31 34
f 71 34 72
f 34 33 73
f 34 73 74
f 33 36 75
f 33 75 73
f 36 38 76
f 36 76 75
f 38 40 77
f 38 77 76
f 40 42 78
f 40 78 77
f 42 44 79
f 42 79 78
f 44 46 80
f 44 80 79
f 46 48 81
f 46 81 80
f 48 50 82
f 48 82 81
f 50 52 83
f 50 83 82
f 52 54 84
f 52 84 83
f 54 56 85
f 54 85 84
f 56 58 86
f 56 86 85
f 58 60 87
f 58 87 86
f 60 62 88
f 60 88 87
f 62 64 89
f 62 89 88
f 64 66 90
f 64 90 89
f 66 68 91
f 66 91 90
f 68 70 92
f 68 92 91
f 70 72 93
f 70 93 92
f 72 34 74
f 72 74 93
f 74 73 94
f 74 94 95
f 73 75 96
f 73 96 94
f 75 76 97
f 75 97 96
f 76 77 98
f 76 98 97
f 77 78 99
f 77 99 98
f 78 79 100
f 78 100 99
f 79 80 101
f 79 101 100
f 80 81 102
f 80 102 101
f 81 82 103
f 81 103 102
f 82 83 104
f 82 104 103
f 83 84 105
f 83 105 104
f 84 85 106
f 84 106 105
f 85 86 107
f 85 107 106
f 86 87 108
f 86 108 107
f 87 88 109
f 87 109 108
f 88 89 110
f 88 110 109
f 89 90 111
f 89 111 110
f 90 91 112
f 90 112 111
f 91 92 113
f 91 113 112
f 92 93 114
f 92 114 113
f 93 74 95
f 93 95 114
f 95 94 115
f 95 115 116
f 94 96 117
f 94 117 115
f 96 97 118
f 96 118 117
f 97 98 119
f 97 119 118
f 98 99 120
f 98 120 119
f 99 100 121
f 99 121 120
f 100 101 122
f 100 122 121
f 101 102 123
f 101 123 122
f 102 103 124
f 102 124 123
f 103 104 125
f 103 125 124
f 104 105 126
f 104 126 125
f 105 106 127
f 105 127 126
f 106 107 128
f 106 128 127
f 107 108 129
f 107 129 128
f 108 109 130
f 108 130 129
f 109 110 131
f 109 131 130
f 110 111 132
f 110 132 131
f 111 112 133
f 111 133 132
f 112 113 134
f 112 134 133
f 113 114 135
f 113 135 134
f 114 95 116
f 114 116 135
f 116 115 136
f 116 136 137
f 115 117 138
f 115 138 136
f 117 118 139
f 117 139 138
f 118 119 140
f 118 140 139
f 119 120 141
f 119 141 140
f 120 121 142
f 120 142 141
f 121 122 143
f 121 143 142
f 122 123 144
f 122 144 143
f 123 124 145
f 123 145 144
f 124 125 146
f 124 146 145
f 125 126 147
f 125 147 146
f 126 127 148
f 126 148 147
f 127 128 149
f 127 149 148
f 128 129 150
f 128 150 149
f 129 130 151
f 129 151 150
f 130 131 152
f 130 152 151
f 131 132 153
f 131 153 152
f 132 133 154
f 132 154 153
f 133 134 155
f 133 155 154
f 134 135 156
f 134 156 155
f 135 116 137
f 135 137 156
f 71 32 31
f 71 35 32
f 69 35 71
f 67 35 69
f 55 47 57
f 55 49 47
f 53 49 55
f 51 49 53
f 156 137 136
f 156 136 138
f 155 156 138
f 154 155 138
f 148 149 144
f 148 144 145
f 147 148 145
f 146 147 145
f 35 67 157
f 37 35 157
f 157 67 158
f 67 65 158
f 37 157 39
f 65 159 158
f 39 157 160
f 159 65 63
f 39 160 41
f 63 161 159
f 41 160 162
f 41 162 43
f 43 162 163
f 43 163 164
f 43 164 45
f 63 165 161
f 45 164 166
f 45 166 167
f 45 167 47
f 47 167 168
f 47 168 169
f 165 63 61
f 165 61 59
f 47 169 170
f 59 171 172
f 171 59 57
f 165 59 173
f 59 172 173
f 47 170 174
f 57 47 175
f 47 174 175
f 57 175 176
f 57 176 177
f 57 177 178
f 57 178 171
f 154 138 179
f 138 139 179
f 153 154 180
f 154 179 180
f 179 139 140
f 179 140 181
f 182 181 140
f 153 183 152
f 180 183 153
f 182 140 141
f 182 141 142
f 184 182 142
f 185 184 142
f 185 142 143
f 186 152 187
f 183 187 152
f 188 185 143
f 189 188 143
f 189 143 144
f 190 189 144
f 191 190 144
f 152 186 151
f 151 186 150
f 191 144 192
f 193 150 194
f 150 193 149
f 195 194 150
f 186 195 150
f 196 192 144
f 144 149 197
f 197 196 144
f 198 197 149
f 199 149 200
f 149 199 198
f 201 200 149
f 193 201 149
f 179 157 158
f 158 180 179
f 180 158 159
f 157 179 160
f 181 160 179
f 160 181 182
f 159 183 180
f 160 182 162
f 183 159 161
f 162 184 163
f 162 182 184
f 185 164 163
f 163 184 185
f 165 186 161
f 187 161 186
f 161 187 183
f 164 188 166
f 164 185 188
f 189 167 166
f 166 188 189
f 167 190 168
f 167 189 190
f 191 169 168
f 168 190 191
f 169 191 170
f 192 170 191
f 171 193 172
f 194 172 193
f 195 173 172
f 173 195 165
f 172 194 195
f 165 195 186
f 170 196 174
f 170 192 196
f 197 175 174
f 174 196 197
f 176 175 198
f 175 197 198
f 176 199 177
f 200 177 199
f 198 199 176
f 201 178 177
f 177 200 201
f 193 171 178
f 178 201 193
f 202 203 204
f 202 205 203
f 202 206 205
f 202 207 206
f 202 208 207
f 202 209 208
f 202 210 209
f 202 211 210
f 202 212 211
f 202 213 212
f 202 214 213
f 202 215 214
f 202 216 215
f 202 204 216
f 204 217 218
f 204 203 217
f 203 219 217
f 203 205 219
f 205 220 219
f 205 206 220
f 206 221 220
f 206 207 221
f 207 222 221
f 207 208 222
f 208 223 222
f 208 209 223
f 209 224 223
f 209 210 224
f 210 225 224
f 210 211 225
f 211 226 225
f 211 212 226
f 212 227 226
f 212 213 227
f 213 228 227
f 213 214 228
f 214 229 228
f 214 215 229
f 215 230 229
f 215 216 230
f 216 218 230
f 216 204 218
f 231 218 217
f 231 217 219
f 231 219 220
f 231 220 221
f 231 221 222
f 231 222 223
f 231 223 224
f 231 224 225
f 231 225 226
f 231 226 227
f 231 227 228
f 231 228 229
f 231 229 230
f 231 230 218
f 232 233 234
f 232 234 235
f 233 236 237
f 233 237 234
f 236 238 239
f 236 239 237
f 238 240 241
f 238 241 239
f 240 242 243
f 240 243 241
f 242 244 245
f 242 245 243
f 244 246 247
f 244 247 245
f 246 248 249
f 246 249 247
f 248 250 251
f 248 251 249
f 250 232 235
f 250 235 251
f 235 234 252
f 235 252 253
f 234 237 254
f 234 254 252
f 237 239 255
f 237 255 254
f 239 241 256
f 239 256 255
f 241 243 257
f 241 257 256
f 243 245 258
f 243 258 257
f 245 247 259
f 245 259 258
f 247 249 260
f 247 260 259
f 249 251 261
f 249 261 260
f 251 235 253
f 251 253 261
f 253 252 262
f 253 262 263
f 252 254 264
f 252 264 262
f 254 255 265
f 254 265 264
f 255 256 266
f 255 266 265
f 256 257 267
f 256 267 266
f 257 258 268
f 257 268 267
f 258 259 269
f 258 269 268
f 259 260 270
f 259 270 269
f 260 261 271
f 260 271 270
f 261 253 263
f 261 263 271
f 263 262 272
f 263 272 273
f 262 264 274
f 262 274 272
f 264 265 275
f 264 275 274
f 265 266 276
f 265 276 275
f 266 267 277
f 266 277 276
f 267 268 278
f 267 278 277
f 268 269 279
f 268 279 278
f 269 270 280
f 269 280 279
f 270 271 281
f 270 281 280
f 271 263 273
f 271 273 281
f 273 272 282
f 273 282 283
f 272 274 284
f 272 284 282
f 274 275 285
f 274 285 284
f 275 276 286
f 275 286 285
f 276 277 287
f 276 287 286
f 277 278 288
f 277 288 287
f 278 279 289
f 278 289 288
f 279 280 290
f 279 290 289
f 280 281 291
f 280 291 290
f 281 273 283
f 281 283 291
f 242 246 244
f 240 246 242
f 238 246 240
f 238 248 246
f 236 248 238
f 236 250 248
f 233 250 236
f 232 250 233
f 287 288 289
f 286 287 289
f 285 286 289
f 285 289 290
f 284 285 290
f 284 290 291
f 282 284 291
f 283 282 291
f 292 293 294
f 294 295 292
f 296 297 298
f 298 299 296
f 292 295 300
f 300 301 292
f 301 300 297
f 297 296 301
f 295 294 302
f 302 300 295
f 300 302 298
f 298 297 300
f 294 293 303
f 303 302 294
f 302 303 299
f 299 298 302
f 293 292 301
f 301 303 293
f 303 301 296
f 296 299 303
f 304 305 306
f 304 306 307
f 305 308 309
f 305 309 306
f 308 310 311
f 308 311 309
f 310 312 313
f 310 313 311
f 312 314 315
f 312 315 313
f 314 316 317
f 314 317 315
f 316 304 307
f 316 307 317
f 316 305 304
f 314 305 316
f 312 305 314
f 310 305 312
f 310 308 305
f 317 307 306
f 315 317 306
f 313 315 306
f 311 313 306
f 311 306 309
f 318 319 320
f 318 320 321
f 319 322 323
f 319 323 320
f 322 324 325
f 322 325 323
f 324 326 327
f 324 327 325
f 326 328 329
f 326 329 327
f 328 330 331
f 328 331 329
f 330 332 333
f 330 333 331
f 332 334 335
f 332 335 333
f 334 336 337
f 334 337 335
f 336 338 339
f 336 339 337
f 338 340 341
f 338 341 339
f 340 342 343
f 340 343 341
f 342 344 345
f 342 345 343
f 344 346 347
f 344 347 345
f 346 348 349
f 346 349 347
f 348 350 351
f 348 351 349
f 350 318 321
f 350 321 351
f 336 340 338
f 332 336 334
f 332 340 336
f 350 319 318
f 348 319 350
f 346 319 348
f 344 319 346
f 344 322 319
f 344 324 322
f 342 324 344
f 342 326 324
f 342 328 326
f 342 330 328
f 332 342 340
f 330 342 332
f 337 339 341
f 333 335 337
f 333 337 341
f 351 321 320
f 349 351 320
f 347 349 320
f 345 347 320
f 345 320 323
f 345 323 325
f 343 345 325
f 343 325 327
f 343 327 329
f 343 329 331
f 333 341 343
f 331 333 343
f 352 353 354
f 354 355 352
f 356 357 358
f 358 359 356
f 352 355 357
f 357 356 352
f 355 354 358
f 358 357 355
f 354 353 359
f 359 358 354
f 353 352 356
f 356 359 353
f 360 361 362
f 360 362 363
f 360 363 364
f 360 364 365
f 360 366 367
f 360 367 368
f 360 368 369
f 360 369 361
f 361 370 371
f 361 371 362
f 362 371 372
f 362 372 363
f 363 372 373
f 363 373 364
f 364 373 374
f 364 374 365
f 366 375 376
f 366 376 367
f 367 376 377
f 367 377 368
f 368 377 378
f 368 378 369
f 369 378 370
f 369 370 361
f 370 379 380
f 370 380 371
f 371 380 381
f 371 381 372
f 372 381 382
f 372 382 373
f 373 382 383
f 373 383 374
f 375 384 385
f 375 385 376
f 376 385 386
f 376 386 377
f 377 386 387
f 377 387 378
f 378 387 379
f 378 379 370
f 388 380 379
f 388 381 380
f 388 382 381
f 388 383 382
f 388 385 384
f 388 386 385
f 388 387 386
f 388 379 387
f 389 390 391
f 391 390 392
f 392 390 393
f 393 390 394
f 395 390 396
f 396 390 397
f 397 390 398
f 398 390 389
f 399 389 400
f 400 389 391
f 400 391 401
f 401 391 392
f 401 392 402
f 402 392 393
f 402 393 403
f 403 393 394
f 404 395 405
f 405 395 396
f 405 396 406
f 406 396 397
f 406 397 407
f 407 397 398
f 407 398 399
f 399 398 389
f 408 399 409
f 409 399 400
f 409 400 410
f 410 400 401
f 410 401 411
f 411 401 402
f 411 402 412
f 412 402 403
f 413 404 414
f 414 404 405
f 414 405 415
f 415 405 406
f 415 406 416
f 416 406 407
f 416 407 408
f 408 407 399
f 409 417 408
f 410 417 409
f 411 417 410
f 412 417 411
f 414 417 413
f 415 417 414
f 416 417 415
f 408 417 416
