# Unified Preprocessed OBJ file from m1674.obj
# Applied remeshing: Yes
# Applied 4-step normalization: centering, PCA alignment, flipping, scaling
# Generated on 2025-09-29 15:18:34

v 0.018371 0.121042 -0.002465
v 0.018368 0.121044 0.001694
v 0.016473 0.117981 0.003773
v 0.016478 0.117977 -0.004545
v 0.014584 0.114914 -0.002465
v 0.014581 0.114916 0.001694
v -0.011969 0.135557 -0.004571
v -0.013863 0.132494 -0.002492
v -0.013866 0.132496 0.001668
v -0.010076 0.138622 -0.002492
v -0.010079 0.138625 0.001668
v -0.011973 0.135562 0.003747
v -0.149771 -0.151031 -0.002423
v -0.149773 -0.151028 0.001737
v -0.151668 -0.154091 0.003816
v -0.151663 -0.154096 -0.004502
v -0.153557 -0.157158 -0.002423
v -0.153561 -0.157158 0.001737
v -0.180110 -0.136516 -0.004528
v -0.182004 -0.139578 -0.002449
v -0.182008 -0.139577 0.001710
v -0.178217 -0.133450 -0.002449
v -0.178220 -0.133448 0.001711
v -0.180115 -0.136511 0.003790
v -0.185923 -0.166239 0.030568
v 0.108241 0.309713 0.030507
v 0.058458 0.340479 0.030461
v -0.235706 -0.135472 0.030522
v -0.235670 -0.135501 -0.028000
v 0.058494 0.340450 -0.028060
v 0.108276 0.309683 -0.028014
v -0.185888 -0.166269 -0.027954
v -0.224310 -0.172736 0.001287
v -0.041521 0.286871 -0.029768
v -0.072287 0.237088 -0.029762
v -0.078787 0.275508 -0.000523
v -0.072322 0.237118 0.028761
v -0.041557 0.286900 0.028754
v 0.089285 -0.327976 0.006162
v 0.279153 -0.020748 0.006113
v 0.023129 0.137475 0.005878
v -0.166739 -0.169753 0.005926
v 0.279160 -0.020755 -0.006427
v 0.089293 -0.327983 -0.006378
v -0.166731 -0.169760 -0.006614
v 0.023136 0.137469 -0.006662
v 0.733493 -0.260877 0.029502
v 0.764258 -0.211095 0.029495
v 0.764294 -0.211124 -0.029026
v 0.733528 -0.260907 -0.029020
v 0.018370 0.121043 -0.000386
v 0.017421 0.119513 0.002734
v 0.017422 0.119512 0.000654
v 0.017425 0.119509 -0.003505
v 0.016476 0.117979 -0.000386
v 0.015531 0.116445 -0.003505
v 0.015529 0.116448 0.000654
v 0.014582 0.114915 -0.000386
v 0.015527 0.116449 0.002734
v -0.012916 0.134026 -0.003531
v -0.013865 0.132495 -0.000412
v -0.012917 0.134027 -0.001452
v -0.011022 0.137090 -0.003531
v -0.011971 0.135559 -0.000412
v -0.010077 0.138623 -0.000412
v -0.011972 0.135560 0.001668
v -0.011026 0.137093 0.002707
v -0.012920 0.134029 0.002707
v 0.002250 0.126771 0.003760
v 0.003197 0.128303 0.002721
v 0.004145 0.129834 0.001681
v 0.004146 0.129833 -0.000399
v 0.004147 0.129832 -0.002479
v 0.003201 0.128300 -0.003518
v 0.002255 0.126767 -0.004558
v 0.001307 0.125235 -0.003518
v 0.000360 0.123704 -0.002479
v 0.000359 0.123705 -0.000399
v 0.000358 0.123706 0.001681
v 0.001304 0.125239 0.002721
v -0.149772 -0.151030 -0.000343
v -0.150720 -0.152560 0.002776
v -0.150719 -0.152561 0.000697
v -0.150717 -0.152563 -0.003462
v -0.151665 -0.154094 -0.000343
v -0.152610 -0.155627 -0.003462
v -0.152613 -0.155625 0.000697
v -0.153559 -0.157158 -0.000343
v -0.152614 -0.155625 0.002776
v -0.181057 -0.138047 -0.003489
v -0.182006 -0.139578 -0.000369
v -0.181059 -0.138046 -0.001409
v -0.179164 -0.134983 -0.003489
v -0.180113 -0.136514 -0.000369
v -0.178219 -0.133449 -0.000369
v -0.180114 -0.136513 0.001710
v -0.179167 -0.134980 0.002750
v -0.181061 -0.138044 0.002750
v -0.165891 -0.145301 0.003803
v -0.164944 -0.143770 0.002763
v -0.163996 -0.142238 0.001724
v -0.163995 -0.142239 -0.000356
v -0.163994 -0.142240 -0.002436
v -0.164940 -0.143773 -0.003475
v -0.165886 -0.145306 -0.004515
v -0.166834 -0.146837 -0.003475
v -0.167781 -0.148368 -0.002436
v -0.167783 -0.148368 -0.000356
v -0.167784 -0.148367 0.001724
v -0.166838 -0.146834 0.002763
v -0.038841 0.071737 0.030537
v 0.083349 0.325096 0.030484
v -0.063733 0.087120 0.030515
v -0.210815 -0.150856 0.030545
v -0.088624 0.102504 0.030492
v -0.088588 0.102474 -0.028030
v 0.083385 0.325066 -0.028037
v -0.063697 0.087091 -0.028007
v -0.210779 -0.150885 -0.027977
v -0.038806 0.071707 -0.027984
v -0.205099 -0.169503 -0.013333
v -0.229990 -0.154119 -0.013356
v -0.230008 -0.154104 0.015904
v -0.205117 -0.169488 0.015927
v -0.056904 0.261980 -0.029765
v -0.075537 0.256298 -0.015143
v -0.060154 0.281190 -0.015146
v -0.056940 0.262009 0.028757
v -0.060172 0.281204 0.014115
v -0.075555 0.256313 0.014119
v 0.058476 0.340465 0.001201
v -0.088606 0.102489 0.001231
v -0.235688 -0.135487 0.001261
v 0.108258 0.309698 0.001247
v -0.038824 0.071722 0.001277
v -0.185906 -0.166254 0.001307
v 0.184219 -0.174362 0.006138
v 0.151141 0.058364 0.005996
v 0.056207 -0.095250 0.006020
v -0.038727 -0.248865 0.006044
v -0.071805 -0.016139 0.005902
v 0.184227 -0.174369 -0.006403
v -0.038719 -0.248871 -0.006496
v 0.056215 -0.095257 -0.006520
v 0.151148 0.058357 -0.006545
v -0.071798 -0.016145 -0.006638
v 0.089289 -0.327980 -0.000108
v -0.038723 -0.248868 -0.000226
v -0.166735 -0.169756 -0.000344
v 0.023132 0.137472 -0.000392
v -0.071801 -0.016142 -0.000368
v 0.279157 -0.020751 -0.000157
v 0.151145 0.058360 -0.000274
v 0.184223 -0.174365 -0.000132
v 0.330585 -0.011879 0.029131
v 0.748876 -0.235986 0.029498
v 0.345968 0.013012 0.029128
v 0.361351 0.037903 0.029124
v 0.361387 0.037874 -0.029397
v 0.748911 -0.236015 -0.029023
v 0.346004 0.012982 -0.029394
v 0.330621 -0.011909 -0.029391
v 0.083367 0.325081 0.001224
v 0.764276 -0.211109 0.000234
v 0.361369 0.037888 -0.000136
v -0.041539 0.286886 -0.000507
v 0.733511 -0.260892 0.000241
v 0.330603 -0.011894 -0.000130
v -0.072305 0.237103 -0.000500
f 1 51 53
f 51 2 52
f 52 3 53
f 51 52 53
f 4 54 55
f 54 1 53
f 53 3 55
f 54 53 55
f 5 56 57
f 56 4 55
f 55 3 57
f 56 55 57
f 6 58 59
f 58 5 57
f 57 3 59
f 58 57 59
f 7 60 62
f 60 8 61
f 61 9 62
f 60 61 62
f 10 63 64
f 63 7 62
f 62 9 64
f 63 62 64
f 11 65 66
f 65 10 64
f 64 9 66
f 65 64 66
f 12 67 68
f 67 11 66
f 66 9 68
f 67 66 68
f 11 67 70
f 67 12 69
f 69 3 70
f 67 69 70
f 2 71 52
f 71 11 70
f 70 3 52
f 71 70 52
f 10 65 72
f 65 11 71
f 71 2 72
f 65 71 72
f 1 73 51
f 73 10 72
f 72 2 51
f 73 72 51
f 7 63 74
f 63 10 73
f 73 1 74
f 63 73 74
f 4 75 54
f 75 7 74
f 74 1 54
f 75 74 54
f 8 60 76
f 60 7 75
f 75 4 76
f 60 75 76
f 5 77 56
f 77 8 76
f 76 4 56
f 77 76 56
f 9 61 78
f 61 8 77
f 77 5 78
f 61 77 78
f 6 79 58
f 79 9 78
f 78 5 58
f 79 78 58
f 12 68 80
f 68 9 79
f 79 6 80
f 68 79 80
f 3 69 59
f 69 12 80
f 80 6 59
f 69 80 59
f 13 81 83
f 81 14 82
f 82 15 83
f 81 82 83
f 16 84 85
f 84 13 83
f 83 15 85
f 84 83 85
f 17 86 87
f 86 16 85
f 85 15 87
f 86 85 87
f 18 88 89
f 88 17 87
f 87 15 89
f 88 87 89
f 19 90 92
f 90 20 91
f 91 21 92
f 90 91 92
f 22 93 94
f 93 19 92
f 92 21 94
f 93 92 94
f 23 95 96
f 95 22 94
f 94 21 96
f 95 94 96
f 24 97 98
f 97 23 96
f 96 21 98
f 97 96 98
f 23 97 100
f 97 24 99
f 99 15 100
f 97 99 100
f 14 101 82
f 101 23 100
f 100 15 82
f 101 100 82
f 22 95 102
f 95 23 101
f 101 14 102
f 95 101 102
f 13 103 81
f 103 22 102
f 102 14 81
f 103 102 81
f 19 93 104
f 93 22 103
f 103 13 104
f 93 103 104
f 16 105 84
f 105 19 104
f 104 13 84
f 105 104 84
f 20 90 106
f 90 19 105
f 105 16 106
f 90 105 106
f 17 107 86
f 107 20 106
f 106 16 86
f 107 106 86
f 21 91 108
f 91 20 107
f 107 17 108
f 91 107 108
f 18 109 88
f 109 21 108
f 108 17 88
f 109 108 88
f 24 98 110
f 98 21 109
f 109 18 110
f 98 109 110
f 15 99 89
f 99 24 110
f 110 18 89
f 99 110 89
f 25 111 113
f 111 26 112
f 112 27 113
f 111 112 113
f 28 114 115
f 114 25 113
f 113 27 115
f 114 113 115
f 29 116 118
f 116 30 117
f 117 31 118
f 116 117 118
f 32 119 120
f 119 29 118
f 118 31 120
f 119 118 120
f 29 119 122
f 119 32 121
f 121 33 122
f 119 121 122
f 25 114 124
f 114 28 123
f 123 33 124
f 114 123 124
f 34 125 127
f 125 35 126
f 126 36 127
f 125 126 127
f 37 128 130
f 128 38 129
f 129 36 130
f 128 129 130
f 28 115 132
f 115 27 131
f 131 30 132
f 115 131 132
f 29 133 116
f 133 28 132
f 132 30 116
f 133 132 116
f 32 120 135
f 120 31 134
f 134 26 135
f 120 134 135
f 25 136 111
f 136 32 135
f 135 26 111
f 136 135 111
f 28 133 123
f 133 29 122
f 122 33 123
f 133 122 123
f 32 136 121
f 136 25 124
f 124 33 121
f 136 124 121
f 39 137 139
f 137 40 138
f 138 41 139
f 137 138 139
f 42 140 141
f 140 39 139
f 139 41 141
f 140 139 141
f 43 142 144
f 142 44 143
f 143 45 144
f 142 143 144
f 46 145 146
f 145 43 144
f 144 45 146
f 145 144 146
f 44 147 148
f 147 39 140
f 140 42 148
f 147 140 148
f 45 143 149
f 143 44 148
f 148 42 149
f 143 148 149
f 42 141 151
f 141 41 150
f 150 46 151
f 141 150 151
f 45 149 146
f 149 42 151
f 151 46 146
f 149 151 146
f 40 152 153
f 152 43 145
f 145 46 153
f 152 145 153
f 41 138 150
f 138 40 153
f 153 46 150
f 138 153 150
f 44 142 154
f 142 43 152
f 152 40 154
f 142 152 154
f 39 147 137
f 147 44 154
f 154 40 137
f 147 154 137
f 37 155 157
f 155 47 156
f 156 48 157
f 155 156 157
f 38 128 158
f 128 37 157
f 157 48 158
f 128 157 158
f 34 159 161
f 159 49 160
f 160 50 161
f 159 160 161
f 35 125 162
f 125 34 161
f 161 50 162
f 125 161 162
f 27 112 163
f 112 26 134
f 134 31 163
f 112 134 163
f 30 131 117
f 131 27 163
f 163 31 117
f 131 163 117
f 38 158 165
f 158 48 164
f 164 49 165
f 158 164 165
f 34 166 159
f 166 38 165
f 165 49 159
f 166 165 159
f 35 162 168
f 162 50 167
f 167 47 168
f 162 167 168
f 37 169 155
f 169 35 168
f 168 47 155
f 169 168 155
f 38 166 129
f 166 34 127
f 127 36 129
f 166 127 129
f 35 169 126
f 169 37 130
f 130 36 126
f 169 130 126
