# Unified Preprocessed OBJ file from m1679.obj
# Applied remeshing: Yes
# Applied 4-step normalization: centering, PCA alignment, flipping, scaling
# Generated on 2025-09-29 15:18:35

v 0.015650 0.000014 0.020463
v 0.001437 -0.029472 0.020055
v 0.015640 -0.032717 0.019992
v -0.009950 -0.020387 0.020199
v -0.016267 -0.007260 0.020396
v -0.016263 0.007306 0.020606
v -0.009938 0.020429 0.020787
v 0.001455 0.029508 0.020905
v 0.015660 0.032745 0.020935
v 0.029861 0.029500 0.020871
v 0.041248 0.020414 0.020727
v 0.047565 0.007288 0.020530
v 0.047561 -0.007279 0.020321
v 0.041236 -0.020401 0.020139
v 0.029843 -0.029480 0.020022
v 0.002615 -0.027097 0.024237
v 0.015646 -0.030075 0.024178
v -0.007831 -0.018761 0.024369
v -0.013625 -0.006720 0.024549
v -0.013621 0.006645 0.024742
v -0.007820 0.018683 0.024909
v 0.002631 0.027012 0.025016
v 0.015664 0.029983 0.025044
v 0.028693 0.027005 0.024985
v 0.039139 0.018670 0.024853
v 0.044935 0.006628 0.024673
v 0.044931 -0.006737 0.024480
v 0.039128 -0.018775 0.024314
v 0.028677 -0.027104 0.024206
v 0.015655 -0.000046 0.024611
v -0.023856 -0.048205 -0.024190
v -0.036539 -0.048771 -0.024183
v -0.031519 -0.056374 -0.017953
v -0.023851 -0.055720 -0.017953
v -0.042948 -0.048807 -0.024176
v -0.038887 -0.056414 -0.017945
v -0.050124 -0.048543 -0.024163
v -0.047139 -0.056110 -0.017931
v -0.056639 -0.048213 -0.024151
v -0.054631 -0.055730 -0.017917
v -0.061061 -0.048050 -0.024143
v -0.059718 -0.055544 -0.017908
v -0.073029 -0.045556 -0.024093
v -0.073481 -0.052676 -0.017851
v -0.085469 -0.038597 -0.023979
v -0.087785 -0.044673 -0.017719
v -0.096579 -0.027952 -0.023812
v -0.100564 -0.032430 -0.017527
v -0.104563 -0.014395 -0.023607
v -0.109745 -0.016842 -0.017292
v -0.107620 0.001292 -0.023378
v -0.113261 0.001199 -0.017028
v -0.104435 0.016977 -0.023156
v -0.109597 0.019239 -0.016772
v -0.096206 0.030529 -0.022970
v -0.100131 0.034821 -0.016559
v -0.084908 0.041168 -0.022830
v -0.087142 0.047057 -0.016398
v -0.072525 0.048120 -0.022745
v -0.072900 0.055051 -0.016300
v -0.061031 0.050607 -0.022722
v -0.059683 0.057912 -0.016274
v -0.056674 0.050771 -0.022725
v -0.054673 0.058101 -0.016277
v -0.050223 0.051110 -0.022728
v -0.047253 0.058490 -0.016280
v -0.043106 0.051389 -0.022732
v -0.039069 0.058812 -0.016285
v -0.036757 0.051378 -0.022740
v -0.031767 0.058799 -0.016294
v -0.023831 0.050841 -0.022763
v -0.023821 0.058183 -0.016312
v -0.028832 -0.060510 -0.008929
v -0.023842 -0.059811 -0.008925
v -0.036715 -0.060553 -0.008921
v -0.045542 -0.060229 -0.008905
v -0.053556 -0.059822 -0.008890
v -0.058995 -0.059623 -0.008881
v -0.073715 -0.056555 -0.008819
v -0.089014 -0.047996 -0.008678
v -0.102682 -0.034901 -0.008473
v -0.112502 -0.018227 -0.008222
v -0.116263 0.001068 -0.007939
v -0.112344 0.020362 -0.007666
v -0.102221 0.037029 -0.007438
v -0.088326 0.050116 -0.007265
v -0.073094 0.058666 -0.007160
v -0.058959 0.061726 -0.007133
v -0.053600 0.061928 -0.007136
v -0.045663 0.062344 -0.007139
v -0.036910 0.062688 -0.007145
v -0.029100 0.062674 -0.007154
v -0.023809 0.062016 -0.007170
v -0.028820 -0.060655 0.001138
v -0.023830 -0.059956 0.001142
v -0.036703 -0.060698 0.001147
v -0.045530 -0.060374 0.001162
v -0.053544 -0.059967 0.001177
v -0.058984 -0.059768 0.001186
v -0.073703 -0.056700 0.001248
v -0.089003 -0.048141 0.001389
v -0.102670 -0.035046 0.001594
v -0.112490 -0.018373 0.001846
v -0.116251 0.000923 0.002128
v -0.112332 0.020217 0.002401
v -0.102209 0.036884 0.002630
v -0.088314 0.049971 0.002802
v -0.073082 0.058521 0.002907
v -0.058947 0.061581 0.002934
v -0.053588 0.061783 0.002931
v -0.045651 0.062199 0.002928
v -0.036898 0.062543 0.002922
v -0.029089 0.062529 0.002913
v -0.023797 0.061871 0.002897
v -0.031485 -0.056780 0.010285
v -0.023818 -0.056127 0.010285
v -0.038854 -0.056820 0.010293
v -0.047106 -0.056517 0.010307
v -0.054598 -0.056137 0.010321
v -0.059684 -0.055950 0.010330
v -0.073447 -0.053083 0.010388
v -0.087752 -0.045080 0.010520
v -0.100531 -0.032837 0.010711
v -0.109711 -0.017249 0.010947
v -0.113228 0.000792 0.011211
v -0.109564 0.018832 0.011466
v -0.100098 0.034415 0.011680
v -0.087109 0.046650 0.011841
v -0.072866 0.054644 0.011939
v -0.059650 0.057505 0.011965
v -0.054640 0.057695 0.011961
v -0.047220 0.058083 0.011958
v -0.039036 0.058405 0.011953
v -0.031734 0.058392 0.011945
v -0.023788 0.057776 0.011926
v -0.036491 -0.049361 0.016742
v -0.023808 -0.048795 0.016736
v -0.042900 -0.049397 0.016750
v -0.050076 -0.049133 0.016762
v -0.056591 -0.048803 0.016774
v -0.061012 -0.048639 0.016782
v -0.072981 -0.046146 0.016832
v -0.085421 -0.039186 0.016947
v -0.096531 -0.028541 0.017113
v -0.104515 -0.014985 0.017318
v -0.107572 0.000702 0.017547
v -0.104387 0.016388 0.017770
v -0.096157 0.029940 0.017955
v -0.084860 0.040578 0.018095
v -0.072477 0.047531 0.018181
v -0.060983 0.050018 0.018203
v -0.056626 0.050182 0.018200
v -0.050175 0.050521 0.018198
v -0.043058 0.050800 0.018193
v -0.036708 0.050788 0.018186
v -0.023783 0.050251 0.018163
v -0.044728 -0.037105 -0.024005
v -0.044426 0.037200 -0.022935
v -0.050892 0.038005 -0.022916
v -0.051176 -0.037842 -0.024008
v -0.057274 0.037706 -0.022913
v -0.057558 -0.037475 -0.023995
v -0.063742 -0.036055 -0.023968
v -0.069593 -0.033635 -0.023926
v -0.063453 0.036351 -0.022925
v -0.074982 -0.030270 -0.023871
v -0.079776 -0.026010 -0.023804
v -0.083840 -0.020911 -0.023726
v -0.086970 -0.015192 -0.023640
v -0.089043 -0.009133 -0.023550
v -0.079508 0.026477 -0.023048
v -0.074695 0.030685 -0.022993
v -0.069301 0.033994 -0.022952
v -0.090064 -0.002874 -0.023459
v -0.090031 0.003449 -0.023367
v -0.088945 0.009698 -0.023279
v -0.086806 0.015734 -0.023194
v -0.083616 0.021419 -0.023116
v -0.044680 -0.037695 0.016920
v -0.044378 0.036610 0.017990
v -0.051128 -0.038432 0.016917
v -0.057509 -0.038065 0.016930
v -0.050844 0.037415 0.018010
v -0.063694 -0.036644 0.016958
v -0.069545 -0.034225 0.016999
v -0.063405 0.035761 0.018000
v -0.057226 0.037116 0.018013
v -0.074934 -0.030860 0.017054
v -0.079728 -0.026600 0.017121
v -0.083792 -0.021500 0.017200
v -0.086922 -0.015781 0.017286
v -0.088995 -0.009723 0.017375
v -0.079460 0.025887 0.017877
v -0.074646 0.030096 0.017932
v -0.069253 0.033404 0.017973
v -0.090016 -0.003463 0.017467
v -0.089983 0.002859 0.017558
v -0.088897 0.009109 0.017647
v -0.088048 0.011502 0.017680
v -0.086758 0.015144 0.017731
v -0.083568 0.020830 0.017809
v 0.883717 0.000533 -0.004305
v 0.883704 -0.013990 -0.011558
v 0.883712 -0.015698 -0.004539
v 0.883699 -0.009405 -0.017141
v 0.883697 -0.002851 -0.020181
v 0.883700 0.004373 -0.020077
v 0.883705 0.010836 -0.016849
v 0.883713 0.015258 -0.011136
v 0.883722 0.016765 -0.004071
v 0.883730 0.015055 0.002949
v 0.883735 0.010470 0.008532
v 0.883737 0.003917 0.011573
v 0.883735 -0.003307 0.011468
v 0.883729 -0.009770 0.008240
v 0.883721 -0.014193 0.002528
v 0.152455 -0.013782 -0.010694
v 0.152462 -0.015490 -0.003675
v 0.152449 -0.009197 -0.016277
v 0.152448 -0.002643 -0.019317
v 0.152450 0.004581 -0.019213
v 0.152455 0.011044 -0.015985
v 0.152463 0.015466 -0.010272
v 0.152472 0.016973 -0.003207
v 0.152480 0.015263 0.003813
v 0.152485 0.010678 0.009396
v 0.152487 0.004125 0.012436
v 0.152485 -0.003099 0.012332
v 0.152479 -0.009563 0.009104
v 0.152471 -0.013985 0.003392
v 0.152467 0.000741 -0.003441
v -0.024904 -0.052751 -0.028673
v -0.024871 0.055563 -0.027113
v -0.024859 0.059188 -0.017154
v -0.024894 -0.056708 -0.018824
v -0.014772 0.062937 -0.027018
v -0.014759 0.067078 -0.017053
v 0.023502 0.062920 -0.027064
v 0.023515 0.067061 -0.017098
v 0.051448 0.052291 -0.027250
v 0.051461 0.055688 -0.017295
v 0.151986 0.045286 -0.027469
v 0.151999 0.048195 -0.017521
v 0.151960 -0.041915 -0.028725
v 0.151971 -0.045110 -0.018865
v 0.051355 -0.048862 -0.028707
v 0.051366 -0.052545 -0.018854
v 0.023432 -0.059475 -0.028827
v 0.023442 -0.063902 -0.018985
v -0.014802 -0.059459 -0.028782
v -0.014792 -0.063886 -0.018939
v -0.024846 0.061350 -0.007218
v -0.024883 -0.059183 -0.008955
v -0.014746 0.069555 -0.007112
v 0.023528 0.069537 -0.007157
v 0.051473 0.057710 -0.007361
v 0.152011 0.049919 -0.007591
v 0.151982 -0.047118 -0.008989
v 0.051377 -0.054853 -0.008982
v 0.023453 -0.066664 -0.009119
v -0.014781 -0.066647 -0.009074
v -0.024835 0.061207 0.002686
v -0.024871 -0.059326 0.000949
v -0.014734 0.069412 0.002792
v 0.023539 0.069394 0.002747
v 0.051485 0.057568 0.002543
v 0.152023 0.049776 0.002313
v 0.151994 -0.047261 0.000915
v 0.051388 -0.054996 0.000922
v 0.023465 -0.066806 0.000785
v -0.014769 -0.066790 0.000830
v -0.024824 0.058760 0.012556
v -0.024859 -0.057136 0.010887
v -0.014724 0.066650 0.012658
v 0.023550 0.066633 0.012613
v 0.051496 0.055260 0.012416
v 0.152034 0.047767 0.012190
v 0.152006 -0.045538 0.010846
v 0.051401 -0.052973 0.010857
v 0.023477 -0.064330 0.010726
v -0.014757 -0.064314 0.010772
v -0.024813 0.054850 0.022405
v -0.024846 -0.053465 0.020845
v -0.014713 0.062224 0.022499
v 0.023561 0.062207 0.022454
v 0.051506 0.051578 0.022268
v 0.152045 0.044572 0.022049
v 0.152018 -0.042628 0.020793
v 0.051414 -0.049575 0.020811
v 0.023490 -0.060188 0.020691
v -0.014744 -0.060172 0.020736
v 0.039161 0.010537 0.024439
v -0.008984 -0.001446 0.024323
v -0.007248 -0.008423 0.024220
v 0.040897 0.003559 0.024336
v 0.037257 0.009611 0.034286
v 0.038851 0.003210 0.034191
v -0.005320 -0.007782 0.034085
v -0.006913 -0.001381 0.034179
v 0.040907 0.003446 0.032206
v 0.039171 0.010423 0.032308
v -0.007239 -0.008536 0.032090
v -0.008975 -0.001560 0.032193
v -0.043845 0.038514 -0.003630
v -0.043868 -0.038749 -0.004743
v -0.043866 -0.038773 -0.003080
v -0.043843 0.038490 -0.001967
v -0.068259 -0.038826 -0.004715
v -0.068257 -0.038850 -0.003052
v -0.085558 -0.022435 -0.004459
v -0.085556 -0.022459 -0.002796
v -0.092638 0.000835 -0.004115
v -0.092636 0.000811 -0.002452
v -0.083309 0.025642 -0.003769
v -0.083307 0.025618 -0.002106
v -0.063610 0.038492 -0.003607
v -0.063608 0.038468 -0.001944
v -0.043836 -0.014846 -0.006567
v -0.047662 -0.012404 -0.006528
v -0.047655 -0.012488 -0.000644
v -0.043829 -0.014931 -0.000684
v -0.050735 -0.009109 -0.006476
v -0.050728 -0.009194 -0.000593
v -0.052904 -0.005123 -0.006416
v -0.052897 -0.005208 -0.000533
v -0.053323 -0.003513 -0.006393
v -0.053316 -0.003597 -0.000509
v -0.053655 -0.001762 -0.006367
v -0.053648 -0.001847 -0.000484
v -0.053900 -0.000928 -0.006355
v -0.053893 -0.001012 -0.000471
v -0.073991 -0.000924 -0.006331
v -0.073984 -0.001009 -0.000448
v -0.073791 -0.005562 -0.006398
v -0.073784 -0.005647 -0.000515
v -0.084333 0.000676 -0.006296
v -0.084326 0.000591 -0.000412
v -0.074378 0.008107 -0.006201
v -0.074371 0.008022 -0.000317
v -0.074170 0.003792 -0.006263
v -0.074163 0.003708 -0.000380
v -0.053984 0.003797 -0.006287
v -0.053977 0.003712 -0.000403
v -0.052812 0.008172 -0.006225
v -0.052805 0.008087 -0.000342
v -0.050588 0.012129 -0.006171
v -0.050581 0.012044 -0.000287
v -0.047473 0.015380 -0.006127
v -0.047466 0.015295 -0.000244
v -0.043615 0.017770 -0.006098
v -0.043608 0.017686 -0.000214
v 0.023072 -0.036800 0.020994
v -0.015838 -0.036789 0.021040
v -0.015843 -0.055426 0.020771
v 0.023066 -0.055437 0.020725
v 0.023073 -0.036820 0.022392
v 0.023068 -0.055457 0.022124
v -0.015842 -0.055446 0.022170
v -0.015836 -0.036809 0.022438
v -0.043840 0.000547 0.021666
v -0.066536 0.000581 0.019809
v -0.064807 0.008606 0.019923
v -0.059886 0.015410 0.020015
v -0.052521 0.019955 0.020072
v -0.043836 0.020552 0.020070
v -0.043848 -0.019403 0.019494
v -0.052533 -0.018803 0.019513
v -0.059895 -0.014254 0.019588
v -0.064812 -0.007447 0.019691
v -0.085783 0.000663 0.014468
v -0.082587 0.015494 0.014678
v -0.073493 0.028066 0.014849
v -0.059886 0.036464 0.014954
v -0.043837 0.037565 0.014951
v -0.043859 -0.036262 0.013887
v -0.059908 -0.035153 0.013922
v -0.073509 -0.026747 0.014059
v -0.082596 -0.014170 0.014251
v -0.093925 0.000727 0.010241
v -0.090110 0.018436 0.010491
v -0.079251 0.033447 0.010695
v -0.063003 0.043474 0.010820
v -0.043840 0.044789 0.010816
v -0.043866 -0.043364 0.009546
v -0.063029 -0.042040 0.009588
v -0.079270 -0.032003 0.009752
v -0.090120 -0.016986 0.009981
v -0.043853 0.000712 0.010181
v -0.066590 0.001239 -0.025910
v -0.043898 0.001260 -0.027820
v -0.064861 0.009265 -0.025797
v -0.059940 0.016069 -0.025704
v -0.052575 0.020614 -0.025648
v -0.043890 0.021210 -0.025649
v -0.043902 -0.018745 -0.026225
v -0.052586 -0.018144 -0.026206
v -0.059949 -0.013595 -0.026132
v -0.064866 -0.006789 -0.026028
v -0.085824 0.001167 -0.020523
v -0.082628 0.015998 -0.020313
v -0.073534 0.028570 -0.020143
v -0.059927 0.036968 -0.020038
v -0.043878 0.038069 -0.020041
v -0.043900 -0.035758 -0.021104
v -0.059949 -0.034649 -0.021069
v -0.073550 -0.026243 -0.020932
v -0.082637 -0.013666 -0.020740
v -0.093957 0.001109 -0.016276
v -0.090141 0.018818 -0.016025
v -0.079282 0.033829 -0.015822
v -0.063034 0.043857 -0.015697
v -0.043871 0.045171 -0.015700
v -0.043898 -0.042982 -0.016970
v -0.063060 -0.041658 -0.016928
v -0.079302 -0.031621 -0.016765
v -0.090152 -0.016604 -0.016536
v -0.043884 0.001094 -0.016335
v 0.008544 -0.014729 0.020259
v 0.008539 -0.031094 0.020023
v 0.015645 -0.016352 0.020227
v 0.002850 -0.010187 0.020331
v -0.004256 -0.024930 0.020127
v -0.000308 -0.003623 0.020430
v -0.013109 -0.013824 0.020298
v -0.000306 0.003660 0.020534
v -0.016265 0.000023 0.020501
v 0.002856 0.010221 0.020625
v -0.013100 0.013867 0.020697
v 0.008553 0.014761 0.020684
v -0.004241 0.024968 0.020846
v 0.015655 0.016380 0.020699
v 0.008558 0.031126 0.020920
v 0.022755 0.014757 0.020667
v 0.022760 0.031122 0.020903
v 0.028449 0.010214 0.020595
v 0.035555 0.024957 0.020799
v 0.031608 0.003651 0.020497
v 0.044407 0.013851 0.020629
v 0.031606 -0.003632 0.020392
v 0.047563 0.000005 0.020425
v 0.028443 -0.010194 0.020301
v 0.044398 -0.013840 0.020230
v 0.022747 -0.014733 0.020242
v 0.035539 -0.024941 0.020080
v 0.022742 -0.031099 0.020007
v 0.009127 -0.029907 0.022114
v 0.009130 -0.028586 0.024208
v 0.015643 -0.031396 0.022085
v 0.002026 -0.028284 0.022146
v -0.003197 -0.024117 0.022212
v -0.002608 -0.022929 0.024303
v -0.008891 -0.019574 0.022284
v -0.011788 -0.013553 0.022374
v -0.010728 -0.012741 0.024459
v -0.014946 -0.006990 0.022473
v -0.014944 -0.000308 0.022569
v -0.013623 -0.000038 0.024646
v -0.014942 0.006975 0.022674
v -0.012041 0.012995 0.022757
v -0.010720 0.012664 0.024825
v -0.008879 0.019556 0.022848
v -0.003653 0.023720 0.022902
v -0.002594 0.022848 0.024962
v 0.002043 0.028260 0.022961
v 0.008560 0.029745 0.022974
v 0.009147 0.028497 0.025030
v 0.015662 0.031364 0.022989
v 0.022177 0.029875 0.022960
v 0.022179 0.028494 0.025015
v 0.029277 0.028252 0.022928
v 0.034500 0.024085 0.022862
v 0.033916 0.022837 0.024919
v 0.040194 0.019542 0.022790
v 0.043092 0.013521 0.022700
v 0.042037 0.012649 0.024763
v 0.046250 0.006958 0.022602
v 0.046248 0.000276 0.022505
v 0.044933 -0.000054 0.024576
v 0.046246 -0.007008 0.022400
v 0.043344 -0.013027 0.022317
v 0.042029 -0.012756 0.024397
v 0.040182 -0.019588 0.022226
v 0.034957 -0.023753 0.022172
v 0.033902 -0.022939 0.024260
v 0.029260 -0.028292 0.022114
v 0.022744 -0.029778 0.022100
v 0.022162 -0.028589 0.024192
v 0.015651 -0.015060 0.024395
v 0.009135 -0.013571 0.024424
v 0.003912 -0.009404 0.024490
v 0.001015 -0.003383 0.024580
v 0.001017 0.003299 0.024677
v 0.003918 0.009319 0.024760
v 0.009143 0.013483 0.024814
v 0.015660 0.014968 0.024827
v 0.022174 0.013479 0.024798
v 0.027397 0.009312 0.024732
v 0.030295 0.003291 0.024642
v 0.030293 -0.003391 0.024546
v 0.027391 -0.009410 0.024462
v 0.022166 -0.013575 0.024409
v -0.030198 -0.048488 -0.024186
v -0.034029 -0.052572 -0.021068
v -0.027687 -0.052290 -0.021072
v -0.027685 -0.056047 -0.017953
v -0.023854 -0.051963 -0.021071
v -0.039744 -0.048789 -0.024179
v -0.040917 -0.052611 -0.021061
v -0.037713 -0.052592 -0.021064
v -0.035203 -0.056394 -0.017949
v -0.046536 -0.048675 -0.024170
v -0.048632 -0.052327 -0.021047
v -0.045043 -0.052459 -0.021054
v -0.043013 -0.056262 -0.017938
v -0.053382 -0.048378 -0.024157
v -0.055635 -0.051972 -0.021034
v -0.052378 -0.052137 -0.021040
v -0.050885 -0.055920 -0.017924
v -0.058850 -0.048131 -0.024147
v -0.060389 -0.051797 -0.021026
v -0.058178 -0.051878 -0.021030
v -0.057175 -0.055637 -0.017913
v -0.067045 -0.046803 -0.024118
v -0.073255 -0.049116 -0.020972
v -0.067271 -0.050363 -0.020997
v -0.066599 -0.054110 -0.017880
v -0.079249 -0.042076 -0.024036
v -0.086627 -0.041635 -0.020849
v -0.080407 -0.045114 -0.020906
v -0.080633 -0.048674 -0.017785
v -0.091024 -0.033274 -0.023895
v -0.098572 -0.030191 -0.020670
v -0.093017 -0.035513 -0.020753
v -0.094175 -0.038551 -0.017623
v -0.100571 -0.021173 -0.023710
v -0.107154 -0.015619 -0.020450
v -0.103162 -0.022397 -0.020552
v -0.105155 -0.024636 -0.017410
v -0.106092 -0.006552 -0.023493
v -0.110441 0.001245 -0.020203
v -0.108912 -0.006598 -0.020318
v -0.111503 -0.007821 -0.017160
v -0.106028 0.009135 -0.023267
v -0.107016 0.018108 -0.019964
v -0.108609 0.010265 -0.020075
v -0.111429 0.010219 -0.016900
v -0.100320 0.023753 -0.023063
v -0.098169 0.032675 -0.019764
v -0.102283 0.025899 -0.019857
v -0.104864 0.027030 -0.016666
v -0.090557 0.035848 -0.022900
v -0.086025 0.044113 -0.019614
v -0.091674 0.038793 -0.019684
v -0.093637 0.040939 -0.016478
v -0.078717 0.044644 -0.022787
v -0.072712 0.051586 -0.019522
v -0.078904 0.048109 -0.019565
v -0.080021 0.051054 -0.016349
v -0.066778 0.049364 -0.022733
v -0.060357 0.054260 -0.019498
v -0.066104 0.053016 -0.019509
v -0.066292 0.056482 -0.016287
v -0.058853 0.050689 -0.022724
v -0.055674 0.054436 -0.019501
v -0.057852 0.054354 -0.019500
v -0.057178 0.058007 -0.016275
v -0.053448 0.050941 -0.022726
v -0.048738 0.054800 -0.019504
v -0.051964 0.054630 -0.019503
v -0.050963 0.058296 -0.016279
v -0.046664 0.051250 -0.022730
v -0.041087 0.055100 -0.019509
v -0.044646 0.054961 -0.019506
v -0.043161 0.058651 -0.016283
v -0.039931 0.051384 -0.022736
v -0.034262 0.055089 -0.019517
v -0.037436 0.055094 -0.019513
v -0.035418 0.058805 -0.016290
v -0.030294 0.051109 -0.022751
v -0.023826 0.054512 -0.019537
v -0.030289 0.054781 -0.019526
v -0.027794 0.058491 -0.016303
v -0.023844 0.001318 -0.023476
v -0.023841 -0.002440 -0.020358
v -0.023836 0.001231 -0.017133
v -0.030175 -0.058442 -0.013441
v -0.026342 -0.058115 -0.013441
v -0.026337 -0.060160 -0.008927
v -0.023846 -0.057765 -0.013439
v -0.037801 -0.058483 -0.013433
v -0.034117 -0.058463 -0.013437
v -0.032774 -0.060532 -0.008925
v -0.046341 -0.058169 -0.013418
v -0.042215 -0.058321 -0.013425
v -0.041129 -0.060391 -0.008913
v -0.054094 -0.057776 -0.013404
v -0.050347 -0.057966 -0.013411
v -0.049549 -0.060025 -0.008898
v -0.059357 -0.057583 -0.013395
v -0.056813 -0.057676 -0.013399
v -0.056276 -0.059722 -0.008886
v -0.073598 -0.054615 -0.013335
v -0.066716 -0.056049 -0.013364
v -0.066355 -0.058089 -0.008850
v -0.088400 -0.046334 -0.013198
v -0.081247 -0.050336 -0.013264
v -0.081365 -0.052275 -0.008749
v -0.101623 -0.033665 -0.013000
v -0.095233 -0.039787 -0.013096
v -0.095848 -0.041448 -0.008576
v -0.111123 -0.017535 -0.012757
v -0.106533 -0.025329 -0.012874
v -0.107592 -0.026564 -0.008347
v -0.114762 0.001133 -0.012483
v -0.113004 -0.007887 -0.012615
v -0.114382 -0.008580 -0.008080
v -0.110970 0.019801 -0.012219
v -0.112802 0.010781 -0.012347
v -0.114303 0.010715 -0.007802
v -0.101176 0.035925 -0.011998
v -0.105909 0.028134 -0.012105
v -0.107282 0.028696 -0.007552
v -0.087734 0.048587 -0.011832
v -0.094229 0.042469 -0.011912
v -0.095273 0.043572 -0.007352
v -0.072997 0.056859 -0.011730
v -0.080118 0.052862 -0.011779
v -0.080710 0.054391 -0.007213
v -0.059321 0.059819 -0.011703
v -0.065929 0.058389 -0.011716
v -0.066027 0.060196 -0.007146
v -0.054136 0.060014 -0.011707
v -0.056642 0.059920 -0.011705
v -0.056279 0.061827 -0.007134
v -0.046458 0.060417 -0.011710
v -0.050168 0.060223 -0.011708
v -0.049632 0.062136 -0.007138
v -0.037989 0.060750 -0.011715
v -0.042081 0.060589 -0.011712
v -0.041286 0.062516 -0.007142
v -0.030434 0.060737 -0.011724
v -0.034085 0.060743 -0.011720
v -0.033005 0.062681 -0.007150
v -0.023815 0.060100 -0.011741
v -0.027788 0.060407 -0.011732
v -0.026455 0.062345 -0.007162
v -0.023831 -0.000814 -0.012619
v -0.023825 0.001103 -0.008047
v -0.028826 -0.060583 -0.003896
v -0.026331 -0.060233 -0.003894
v -0.026325 -0.060305 0.001140
v -0.023836 -0.059883 -0.003891
v -0.036709 -0.060626 -0.003887
v -0.032768 -0.060604 -0.003891
v -0.032762 -0.060677 0.001142
v -0.045536 -0.060301 -0.003872
v -0.041123 -0.060463 -0.003879
v -0.041117 -0.060536 0.001154
v -0.053550 -0.059895 -0.003857
v -0.049543 -0.060098 -0.003864
v -0.049537 -0.060170 0.001169
v -0.058990 -0.059695 -0.003847
v -0.056270 -0.059795 -0.003852
v -0.056264 -0.059867 0.001182
v -0.073709 -0.056627 -0.003786
v -0.066349 -0.058161 -0.003817
v -0.066344 -0.058234 0.001217
v -0.089008 -0.048068 -0.003644
v -0.081359 -0.052348 -0.003715
v -0.081353 -0.052420 0.001318
v -0.102676 -0.034973 -0.003440
v -0.095842 -0.041521 -0.003542
v -0.095836 -0.041593 0.001491
v -0.112496 -0.018300 -0.003188
v -0.107586 -0.026637 -0.003314
v -0.107580 -0.026709 0.001720
v -0.116257 0.000995 -0.002906
v -0.114376 -0.008652 -0.003047
v -0.114371 -0.008725 0.001987
v -0.112338 0.020290 -0.002632
v -0.114297 0.010643 -0.002769
v -0.114292 0.010570 0.002265
v -0.102215 0.036956 -0.002404
v -0.107276 0.028623 -0.002518
v -0.107271 0.028550 0.002515
v -0.088320 0.050043 -0.002232
v -0.095268 0.043500 -0.002318
v -0.095262 0.043427 0.002716
v -0.073088 0.058594 -0.002127
v -0.080704 0.054318 -0.002179
v -0.080698 0.054246 0.002854
v -0.058953 0.061653 -0.002099
v -0.066021 0.060124 -0.002113
v -0.066015 0.060051 0.002921
v -0.053594 0.061855 -0.002103
v -0.056274 0.061754 -0.002101
v -0.056268 0.061682 0.002933
v -0.045657 0.062272 -0.002106
v -0.049626 0.062063 -0.002104
v -0.049620 0.061991 0.002929
v -0.036904 0.062615 -0.002111
v -0.041281 0.062444 -0.002109
v -0.041275 0.062371 0.002925
v -0.029095 0.062602 -0.002121
v -0.032999 0.062609 -0.002116
v -0.032993 0.062536 0.002918
v -0.023803 0.061943 -0.002136
v -0.026449 0.062273 -0.002129
v -0.026443 0.062200 0.002905
v -0.023820 0.001030 -0.003014
v -0.023814 0.000958 0.002020
v -0.030153 -0.058718 0.005711
v -0.027658 -0.058368 0.005714
v -0.027652 -0.056454 0.010285
v -0.023824 -0.058041 0.005714
v -0.037778 -0.058759 0.005720
v -0.033837 -0.058738 0.005716
v -0.035169 -0.056800 0.010289
v -0.046318 -0.058445 0.005734
v -0.041905 -0.058608 0.005727
v -0.042980 -0.056669 0.010300
v -0.054071 -0.058052 0.005749
v -0.050064 -0.058255 0.005742
v -0.050852 -0.056327 0.010314
v -0.059334 -0.057859 0.005758
v -0.056614 -0.057959 0.005754
v -0.057141 -0.056044 0.010326
v -0.073575 -0.054891 0.005818
v -0.066215 -0.056425 0.005787
v -0.066566 -0.054517 0.010359
v -0.088377 -0.046610 0.005954
v -0.080728 -0.050890 0.005884
v -0.080600 -0.049081 0.010454
v -0.101600 -0.033941 0.006153
v -0.094767 -0.040489 0.006050
v -0.094142 -0.038958 0.010616
v -0.111101 -0.017811 0.006396
v -0.106191 -0.026147 0.006270
v -0.105121 -0.025043 0.010829
v -0.114740 0.000858 0.006669
v -0.112859 -0.008790 0.006528
v -0.111470 -0.008228 0.011079
v -0.110948 0.019525 0.006934
v -0.112908 0.009877 0.006797
v -0.111396 0.009812 0.011338
v -0.101154 0.035649 0.007155
v -0.106215 0.027316 0.007040
v -0.104831 0.026623 0.011573
v -0.087711 0.048311 0.007321
v -0.094659 0.041767 0.007235
v -0.093603 0.040533 0.011760
v -0.072974 0.056583 0.007423
v -0.080590 0.052308 0.007370
v -0.079987 0.050647 0.011890
v -0.059299 0.059543 0.007449
v -0.066366 0.058013 0.007436
v -0.066258 0.056075 0.011952
v -0.054114 0.059739 0.007446
v -0.056793 0.059638 0.007448
v -0.057145 0.057600 0.011963
v -0.046436 0.060141 0.007443
v -0.050404 0.059933 0.007445
v -0.050930 0.057889 0.011960
v -0.037967 0.060474 0.007438
v -0.042344 0.060302 0.007440
v -0.043128 0.058244 0.011956
v -0.030411 0.060461 0.007429
v -0.034316 0.060468 0.007433
v -0.035385 0.058398 0.011949
v -0.023793 0.059824 0.007412
v -0.026438 0.060153 0.007420
v -0.027761 0.058084 0.011935
v -0.023808 0.002872 0.006591
v -0.023803 0.000825 0.011106
v -0.033988 -0.053071 0.013514
v -0.030155 -0.052744 0.013514
v -0.030150 -0.049078 0.016739
v -0.023813 -0.052461 0.013511
v -0.040877 -0.053109 0.013521
v -0.037192 -0.053089 0.013517
v -0.039695 -0.049379 0.016746
v -0.048591 -0.052825 0.013534
v -0.044465 -0.052977 0.013527
v -0.046488 -0.049265 0.016756
v -0.055594 -0.052470 0.013548
v -0.051848 -0.052660 0.013541
v -0.053333 -0.048968 0.016768
v -0.060348 -0.052295 0.013556
v -0.057805 -0.052388 0.013552
v -0.058802 -0.048721 0.016778
v -0.073214 -0.049614 0.013610
v -0.066333 -0.051048 0.013581
v -0.066997 -0.047392 0.016807
v -0.086586 -0.042133 0.013733
v -0.079434 -0.046134 0.013667
v -0.079201 -0.042666 0.016889
v -0.098531 -0.030689 0.013912
v -0.092141 -0.036810 0.013816
v -0.090976 -0.033864 0.017030
v -0.107113 -0.016117 0.014132
v -0.102523 -0.023911 0.014015
v -0.100523 -0.021763 0.017215
v -0.110400 0.000747 0.014379
v -0.108642 -0.008273 0.014247
v -0.106044 -0.007141 0.017433
v -0.106975 0.017610 0.014618
v -0.108807 0.008590 0.014490
v -0.105979 0.008545 0.017659
v -0.098128 0.032177 0.014817
v -0.102861 0.024386 0.014711
v -0.100272 0.023164 0.017862
v -0.085984 0.043614 0.014968
v -0.092479 0.037496 0.014887
v -0.090509 0.035259 0.018025
v -0.072672 0.051087 0.015060
v -0.079793 0.047091 0.015011
v -0.078668 0.044054 0.018138
v -0.060316 0.053762 0.015084
v -0.066925 0.052331 0.015071
v -0.066730 0.048774 0.018192
v -0.055633 0.053938 0.015081
v -0.058138 0.053844 0.015082
v -0.058804 0.050100 0.018202
v -0.048697 0.054302 0.015078
v -0.052407 0.054108 0.015079
v -0.053400 0.050351 0.018199
v -0.041047 0.054602 0.015073
v -0.045139 0.054441 0.015076
v -0.046616 0.050660 0.018195
v -0.034221 0.054590 0.015065
v -0.037872 0.054597 0.015069
v -0.039883 0.050794 0.018189
v -0.023785 0.054014 0.015044
v -0.027758 0.054322 0.015054
v -0.030246 0.050520 0.018174
v -0.023798 0.004491 0.014331
v -0.023795 0.000728 0.017449
v -0.030185 0.001035 -0.023473
v -0.033389 0.001017 -0.023469
v -0.039852 0.001285 -0.023458
v -0.043027 0.001291 -0.023454
v -0.096392 0.001289 -0.023391
v -0.090743 0.006608 -0.023321
v -0.100384 0.008067 -0.023289
v -0.104499 0.001291 -0.023382
v -0.030137 0.000445 0.017453
v -0.033341 0.000427 0.017456
v -0.039804 0.000696 0.017468
v -0.042979 0.000701 0.017471
v -0.090695 0.006018 0.017604
v -0.096344 0.000699 0.017534
v -0.100336 0.007477 0.017636
v -0.104451 0.000701 0.017544
v -0.043917 0.007142 -0.023369
v -0.043838 -0.042956 -0.024090
v -0.047426 -0.042824 -0.024084
v -0.043766 0.044295 -0.022833
v -0.044577 0.000047 -0.023470
v -0.047324 0.044155 -0.022831
v -0.050684 -0.042659 -0.024078
v -0.050557 0.044558 -0.022822
v -0.047659 0.037602 -0.022925
v -0.047952 -0.037474 -0.024007
v -0.053907 -0.043028 -0.024080
v -0.053783 0.044388 -0.022820
v -0.056118 -0.042946 -0.024076
v -0.056974 0.044238 -0.022819
v -0.054083 0.037855 -0.022914
v -0.054367 -0.037659 -0.024002
v -0.059309 -0.042762 -0.024069
v -0.065293 -0.041516 -0.024044
v -0.060650 -0.036765 -0.023981
v -0.068386 -0.040805 -0.024031
v -0.066668 -0.034845 -0.023947
v -0.071311 -0.039596 -0.024010
v -0.077531 -0.036116 -0.023952
v -0.060064 0.043561 -0.022825
v -0.060363 0.037028 -0.022919
v -0.072288 -0.031953 -0.023898
v -0.080226 -0.034433 -0.023925
v -0.077379 -0.028140 -0.023837
v -0.082622 -0.032303 -0.023891
v -0.088177 -0.026981 -0.023808
v -0.081808 -0.023461 -0.023765
v -0.090210 -0.024431 -0.023769
v -0.085405 -0.018051 -0.023683
v -0.091775 -0.021572 -0.023726
v -0.062242 0.043479 -0.022823
v -0.067989 0.042235 -0.022835
v -0.088007 -0.012162 -0.023595
v -0.092811 -0.018542 -0.023681
v -0.076017 0.037298 -0.022896
v -0.077101 0.028581 -0.023021
v -0.073610 0.039403 -0.022869
v -0.082208 0.033822 -0.022939
v -0.070913 0.041057 -0.022848
v -0.066377 0.035172 -0.022938
v -0.071998 0.032339 -0.022972
v -0.089554 -0.006003 -0.023504
v -0.093322 -0.015413 -0.023635
v -0.093305 -0.012251 -0.023590
v -0.087469 0.022308 -0.023099
v -0.090047 0.000288 -0.023413
v -0.089488 0.006573 -0.023323
v -0.086926 0.025433 -0.023054
v -0.087875 0.012716 -0.023237
v -0.085857 0.028451 -0.023012
v -0.085211 0.018577 -0.023155
v -0.084262 0.031294 -0.022973
v -0.081562 0.023948 -0.023082
v -0.043790 -0.043546 0.016835
v -0.043869 0.006552 0.017557
v -0.047378 -0.043414 0.016841
v -0.043718 0.043705 0.018092
v -0.047276 0.043566 0.018094
v -0.044529 -0.000542 0.017455
v -0.050635 -0.043249 0.016847
v -0.053859 -0.043617 0.016846
v -0.047904 -0.038063 0.016919
v -0.054319 -0.038248 0.016924
v -0.057050 -0.043434 0.016852
v -0.050509 0.043968 0.018104
v -0.053735 0.043798 0.018105
v -0.047611 0.037013 0.018000
v -0.059261 -0.043352 0.016856
v -0.065245 -0.042105 0.016881
v -0.060602 -0.037355 0.016944
v -0.068338 -0.041395 0.016895
v -0.066619 -0.035435 0.016979
v -0.071263 -0.040185 0.016916
v -0.077483 -0.036706 0.016973
v -0.060015 0.042971 0.018100
v -0.056926 0.043649 0.018106
v -0.060315 0.036439 0.018007
v -0.054035 0.037266 0.018011
v -0.072239 -0.032542 0.017027
v -0.080177 -0.035023 0.017000
v -0.077331 -0.028730 0.017088
v -0.082574 -0.032893 0.017034
v -0.088129 -0.027571 0.017117
v -0.081760 -0.024050 0.017160
v -0.090161 -0.025021 0.017156
v -0.085357 -0.018641 0.017243
v -0.091726 -0.022161 0.017199
v -0.062194 0.042889 0.018102
v -0.067941 0.041646 0.018091
v -0.092763 -0.019132 0.017244
v -0.087958 -0.012752 0.017330
v -0.075969 0.036709 0.018029
v -0.073562 0.038813 0.018056
v -0.077053 0.027991 0.017905
v -0.082160 0.033233 0.017986
v -0.071950 0.031750 0.017953
v -0.070865 0.040467 0.018077
v -0.066329 0.034583 0.017987
v -0.089505 -0.006593 0.017421
v -0.093273 -0.016002 0.017290
v -0.087421 0.021719 0.017826
v -0.093257 -0.012841 0.017335
v -0.089999 -0.000302 0.017512
v -0.089440 0.005984 0.017602
v -0.086878 0.024843 0.017871
v -0.086454 0.026040 0.017888
v -0.085809 0.027861 0.017913
v -0.087403 0.013323 0.017705
v -0.088472 0.010305 0.017663
v -0.085163 0.017987 0.017770
v -0.084214 0.030704 0.017952
v -0.081514 0.023358 0.017843
v -0.044704 -0.037400 -0.003542
v -0.044553 -0.000247 -0.003007
v -0.044402 0.036905 -0.002472
v -0.047635 0.037308 -0.002463
v -0.047928 -0.037769 -0.003544
v -0.051152 -0.038137 -0.003545
v -0.054343 -0.037953 -0.003539
v -0.050868 0.037710 -0.002453
v -0.057534 -0.037770 -0.003533
v -0.054059 0.037560 -0.002451
v -0.060626 -0.037060 -0.003519
v -0.063718 -0.036349 -0.003505
v -0.069569 -0.033930 -0.003463
v -0.066644 -0.035140 -0.003484
v -0.063429 0.036056 -0.002462
v -0.060339 0.036733 -0.002456
v -0.057250 0.037411 -0.002450
v -0.072264 -0.032248 -0.003436
v -0.074958 -0.030565 -0.003408
v -0.079752 -0.026305 -0.003341
v -0.077355 -0.028435 -0.003375
v -0.081784 -0.023755 -0.003302
v -0.083816 -0.021206 -0.003263
v -0.086946 -0.015487 -0.003177
v -0.085381 -0.018346 -0.003220
v -0.087982 -0.012457 -0.003132
v -0.089019 -0.009428 -0.003087
v -0.079484 0.026182 -0.002585
v -0.077077 0.028286 -0.002558
v -0.074670 0.030390 -0.002531
v -0.069277 0.033699 -0.002489
v -0.071974 0.032045 -0.002510
v -0.066353 0.034877 -0.002476
v -0.089530 -0.006298 -0.003042
v -0.090040 -0.003168 -0.002996
v -0.090007 0.003154 -0.002905
v -0.090023 -0.000007 -0.002950
v -0.089464 0.006279 -0.002860
v -0.088921 0.009403 -0.002816
v -0.088497 0.010600 -0.002799
v -0.087427 0.013618 -0.002757
v -0.086782 0.015439 -0.002732
v -0.083592 0.021125 -0.002654
v -0.085187 0.018282 -0.002693
v -0.081538 0.023653 -0.002620
v 0.883711 -0.006728 -0.007931
v 0.883708 -0.014844 -0.008048
v 0.883715 -0.007583 -0.004422
v 0.883708 -0.004436 -0.010723
v 0.883702 -0.011697 -0.014349
v 0.883707 -0.001159 -0.012243
v 0.883698 -0.006128 -0.018661
v 0.883708 0.002453 -0.012191
v 0.883699 0.000761 -0.020129
v 0.883711 0.005685 -0.010577
v 0.883702 0.007605 -0.018463
v 0.883715 0.007896 -0.007721
v 0.883709 0.013047 -0.013993
v 0.883720 0.008649 -0.004188
v 0.883718 0.016011 -0.007604
v 0.883723 0.007794 -0.000678
v 0.883726 0.015910 -0.000561
v 0.883726 0.005502 0.002114
v 0.883732 0.012763 0.005741
v 0.883727 0.002225 0.003634
v 0.883736 0.007194 0.010052
v 0.883726 -0.001387 0.003582
v 0.883736 0.000305 0.011521
v 0.883723 -0.004619 0.001968
v 0.883732 -0.006539 0.009854
v 0.883719 -0.006830 -0.000888
v 0.883725 -0.011982 0.005384
v 0.883717 -0.014946 -0.001005
v 0.518083 -0.014740 -0.007616
v 0.152458 -0.014636 -0.007184
v 0.518087 -0.015594 -0.004107
v 0.518080 -0.013886 -0.011126
v 0.518077 -0.011593 -0.013917
v 0.152452 -0.011489 -0.013485
v 0.518074 -0.009301 -0.016709
v 0.518073 -0.006024 -0.018229
v 0.152448 -0.005920 -0.017797
v 0.518072 -0.002747 -0.019749
v 0.518074 0.000865 -0.019697
v 0.152449 0.000969 -0.019265
v 0.518075 0.004477 -0.019645
v 0.518078 0.007709 -0.018031
v 0.152453 0.007812 -0.017599
v 0.518080 0.010940 -0.016417
v 0.518084 0.013151 -0.013561
v 0.152459 0.013255 -0.013129
v 0.518088 0.015362 -0.010704
v 0.518093 0.016115 -0.007172
v 0.152468 0.016219 -0.006740
v 0.518097 0.016869 -0.003639
v 0.518101 0.016014 -0.000129
v 0.152476 0.016118 0.000303
v 0.518105 0.015159 0.003381
v 0.518108 0.012867 0.006173
v 0.152483 0.012971 0.006604
v 0.518110 0.010574 0.008964
v 0.518111 0.007298 0.010484
v 0.152486 0.007402 0.010916
v 0.518112 0.004021 0.012005
v 0.518111 0.000409 0.011952
v 0.152486 0.000513 0.012384
v 0.518110 -0.003203 0.011900
v 0.518107 -0.006435 0.010286
v 0.152482 -0.006331 0.010718
v 0.518104 -0.009666 0.008672
v 0.518100 -0.011878 0.005816
v 0.152475 -0.011774 0.006248
v 0.518096 -0.014089 0.002960
v 0.518092 -0.014842 -0.000573
v 0.152467 -0.014738 -0.000141
v 0.152465 -0.007375 -0.003558
v 0.152461 -0.006520 -0.007067
v 0.152458 -0.004228 -0.009859
v 0.152457 -0.000951 -0.011379
v 0.152459 0.002661 -0.011327
v 0.152461 0.005892 -0.009713
v 0.152465 0.008104 -0.006857
v 0.152470 0.008857 -0.003324
v 0.152474 0.008002 0.000186
v 0.152476 0.005710 0.002978
v 0.152477 0.002433 0.004498
v 0.152476 -0.001179 0.004446
v 0.152473 -0.004411 0.002832
v 0.152469 -0.006622 -0.000025
v -0.024888 0.001406 -0.027893
v -0.024865 0.057376 -0.022134
v -0.024881 0.003218 -0.022914
v -0.024876 0.001240 -0.017989
v -0.024899 -0.054730 -0.023749
v -0.019821 0.059250 -0.027066
v -0.014765 0.065008 -0.022036
v -0.019815 0.061321 -0.022083
v -0.019809 0.063133 -0.017104
v 0.004365 0.062928 -0.027041
v 0.023509 0.064990 -0.022081
v 0.004372 0.064999 -0.022058
v 0.004378 0.067069 -0.017075
v 0.037475 0.057606 -0.027157
v 0.051454 0.053990 -0.022272
v 0.037481 0.059304 -0.022179
v 0.037488 0.061374 -0.017196
v 0.101717 0.048788 -0.027359
v 0.151993 0.046740 -0.022495
v 0.101723 0.050243 -0.022385
v 0.101730 0.051942 -0.017408
v 0.151973 0.001685 -0.028097
v 0.151965 -0.043512 -0.023795
v 0.151979 0.000088 -0.023167
v 0.151985 0.001543 -0.018193
v 0.101658 -0.045388 -0.028716
v 0.051361 -0.050704 -0.023780
v 0.101663 -0.047230 -0.023790
v 0.101668 -0.048828 -0.018860
v 0.037393 -0.054168 -0.028767
v 0.023437 -0.061689 -0.023906
v 0.037399 -0.056382 -0.023846
v 0.037404 -0.058224 -0.018919
v 0.004315 -0.059467 -0.028804
v -0.014797 -0.061672 -0.023860
v 0.004320 -0.061681 -0.023883
v 0.004325 -0.063894 -0.018962
v -0.019853 -0.056105 -0.028727
v -0.019848 -0.058084 -0.023803
v -0.019843 -0.060297 -0.018882
v -0.024852 0.060269 -0.012186
v -0.024870 0.002321 -0.013021
v -0.024864 0.001083 -0.008087
v -0.024888 -0.057946 -0.013889
v -0.014752 0.068317 -0.012082
v -0.019802 0.064372 -0.012133
v -0.019796 0.065452 -0.007165
v 0.023521 0.068299 -0.012128
v 0.004385 0.068307 -0.012105
v 0.004391 0.069546 -0.007135
v 0.051467 0.056699 -0.012328
v 0.037494 0.062386 -0.012229
v 0.037500 0.063624 -0.007259
v 0.152005 0.049057 -0.012556
v 0.101736 0.052803 -0.012443
v 0.101742 0.053815 -0.007476
v 0.151976 -0.046114 -0.013927
v 0.151990 0.000538 -0.013255
v 0.151996 0.001400 -0.008290
v 0.051371 -0.053699 -0.013918
v 0.101674 -0.049981 -0.013924
v 0.101679 -0.050986 -0.008986
v 0.023447 -0.065283 -0.014052
v 0.037409 -0.059604 -0.013987
v 0.037415 -0.060758 -0.009051
v -0.014786 -0.065267 -0.014007
v 0.004331 -0.065275 -0.014029
v 0.004336 -0.066656 -0.009097
v -0.019837 -0.061535 -0.013947
v -0.019832 -0.062915 -0.009014
v -0.024840 0.061278 -0.002266
v -0.024859 0.001012 -0.003135
v -0.024853 0.000940 0.001817
v -0.024877 -0.059255 -0.004003
v -0.014740 0.069484 -0.002160
v -0.019790 0.065381 -0.002213
v -0.019785 0.065310 0.002739
v 0.023533 0.069465 -0.002205
v 0.004397 0.069475 -0.002183
v 0.004402 0.069403 0.002769
v 0.051479 0.057639 -0.002409
v 0.037506 0.063552 -0.002307
v 0.037512 0.063481 0.002645
v 0.152017 0.049847 -0.002639
v 0.101748 0.053743 -0.002524
v 0.101754 0.053672 0.002428
v 0.151988 -0.047190 -0.004037
v 0.152002 0.001329 -0.003338
v 0.152008 0.001257 0.001614
v 0.051383 -0.054924 -0.004030
v 0.101685 -0.051057 -0.004034
v 0.101691 -0.051128 0.000918
v 0.023459 -0.066735 -0.004167
v 0.037421 -0.060830 -0.004099
v 0.037427 -0.060901 0.000853
v -0.014775 -0.066719 -0.004122
v 0.004342 -0.066727 -0.004145
v 0.004348 -0.066798 0.000807
v -0.019826 -0.062987 -0.004062
v -0.019820 -0.063058 0.000890
v -0.024829 0.059984 0.007621
v -0.024847 -0.000283 0.006753
v -0.024841 0.000812 0.011722
v -0.024865 -0.058231 0.005918
v -0.014729 0.068031 0.007725
v -0.019779 0.063928 0.007672
v -0.019774 0.062705 0.012607
v 0.023545 0.068013 0.007680
v 0.004408 0.068023 0.007702
v 0.004413 0.066641 0.012636
v 0.051490 0.056414 0.007480
v 0.037517 0.062327 0.007581
v 0.037523 0.060946 0.012515
v 0.152028 0.048772 0.007251
v 0.101759 0.052667 0.007367
v 0.101765 0.051514 0.012303
v 0.152000 -0.046399 0.005880
v 0.152014 0.002119 0.006579
v 0.152020 0.001115 0.011518
v 0.051395 -0.053985 0.005889
v 0.101697 -0.050117 0.005886
v 0.101703 -0.049256 0.010851
v 0.023471 -0.065568 0.005755
v 0.037433 -0.059663 0.005824
v 0.037439 -0.058652 0.010792
v -0.014763 -0.065552 0.005801
v 0.004354 -0.065560 0.005778
v 0.004360 -0.064322 0.010749
v -0.019814 -0.061963 0.005858
v -0.019808 -0.060725 0.010829
v -0.024818 0.056805 0.017481
v -0.024836 -0.001143 0.016646
v -0.024829 0.000692 0.021625
v -0.024852 -0.055301 0.015866
v -0.014718 0.064437 0.017579
v -0.019768 0.060492 0.017528
v -0.019763 0.058537 0.022452
v 0.023555 0.064420 0.017534
v 0.004418 0.064428 0.017556
v 0.004424 0.062215 0.022477
v 0.051501 0.053419 0.017342
v 0.037528 0.059105 0.017441
v 0.037533 0.056892 0.022361
v 0.152039 0.046170 0.017119
v 0.101770 0.049916 0.017233
v 0.101775 0.048075 0.022158
v 0.152012 -0.044083 0.015819
v 0.152026 0.002570 0.016491
v 0.152031 0.000972 0.021421
v 0.051407 -0.051274 0.015834
v 0.101710 -0.047557 0.015828
v 0.101716 -0.046102 0.020802
v 0.023483 -0.062259 0.015709
v 0.037445 -0.056581 0.015774
v 0.037452 -0.054882 0.020751
v -0.014750 -0.062243 0.015754
v 0.004367 -0.062251 0.015731
v 0.004373 -0.060180 0.020714
v -0.019801 -0.058890 0.015808
v -0.019795 -0.056819 0.020790
v 0.101671 -0.001788 -0.028088
v 0.051402 0.001715 -0.027978
v 0.037429 0.007029 -0.027885
v 0.023467 0.001723 -0.027945
v 0.004330 0.001731 -0.027923
v -0.014787 0.001739 -0.027900
v -0.019837 -0.001948 -0.027947
v 0.101729 -0.002502 0.021430
v 0.051460 0.001001 0.021540
v 0.037487 0.006316 0.021633
v 0.023525 0.001009 0.021573
v 0.004388 0.001018 0.021595
v -0.014729 0.001026 0.021618
v -0.019778 -0.002661 0.021571
v 0.015089 0.004545 0.024381
v -0.008116 -0.004934 0.024272
v 0.015957 0.001057 0.024330
v 0.016824 -0.002432 0.024278
v 0.040029 0.007048 0.024388
v 0.038054 0.006411 0.034238
v 0.016766 -0.002286 0.034138
v 0.015969 0.000914 0.034185
v -0.006117 -0.004582 0.034132
v 0.015172 0.004115 0.034232
v 0.040902 0.003502 0.028271
v 0.040034 0.006991 0.028322
v 0.040039 0.006934 0.032257
v 0.039166 0.010480 0.028374
v 0.039879 0.003328 0.033199
v 0.039011 0.006817 0.033250
v 0.038214 0.010017 0.033297
v -0.007244 -0.008479 0.028155
v 0.016829 -0.002488 0.028213
v 0.016834 -0.002545 0.032148
v -0.006279 -0.008159 0.033088
v 0.017793 -0.002168 0.033146
v -0.008979 -0.001503 0.028258
v -0.008112 -0.004991 0.028207
v -0.008107 -0.005048 0.032141
v -0.007944 -0.001470 0.033186
v -0.007076 -0.004959 0.033135
v 0.015093 0.004488 0.028316
v 0.015098 0.004432 0.032251
v 0.014141 0.004026 0.033239
v -0.043857 -0.000117 -0.004186
v -0.043867 -0.038761 -0.003911
v -0.043856 -0.000129 -0.003355
v -0.043855 -0.000141 -0.002523
v -0.043844 0.038502 -0.002798
v -0.056064 -0.038787 -0.004729
v -0.068258 -0.038838 -0.003884
v -0.056063 -0.038799 -0.003898
v -0.056062 -0.038811 -0.003066
v -0.076909 -0.030631 -0.004587
v -0.085557 -0.022447 -0.003627
v -0.076908 -0.030642 -0.003756
v -0.076907 -0.030654 -0.002924
v -0.089098 -0.010800 -0.004287
v -0.092637 0.000823 -0.003284
v -0.089097 -0.010812 -0.003456
v -0.089096 -0.010824 -0.002624
v -0.087974 0.013239 -0.003942
v -0.083308 0.025630 -0.002937
v -0.087973 0.013227 -0.003111
v -0.087972 0.013215 -0.002279
v -0.073459 0.032067 -0.003688
v -0.063609 0.038480 -0.002775
v -0.073458 0.032055 -0.002856
v -0.073457 0.032043 -0.002025
v -0.053727 0.038503 -0.003618
v -0.053726 0.038491 -0.002787
v -0.053725 0.038479 -0.001955
v -0.053739 -0.000129 -0.004175
v -0.063589 -0.006554 -0.004256
v -0.068253 -0.018957 -0.004429
v -0.064713 -0.030592 -0.004601
v -0.053737 -0.000153 -0.002512
v -0.063587 -0.006578 -0.002593
v -0.068251 -0.018981 -0.002766
v -0.064711 -0.030616 -0.002938
v -0.045749 -0.013625 -0.006547
v -0.047658 -0.012446 -0.003586
v -0.045745 -0.013667 -0.003606
v -0.045742 -0.013710 -0.000664
v -0.043833 -0.014889 -0.003625
v -0.049199 -0.010757 -0.006502
v -0.050732 -0.009152 -0.003535
v -0.049195 -0.010799 -0.003560
v -0.049192 -0.010841 -0.000619
v -0.051819 -0.007116 -0.006446
v -0.052900 -0.005165 -0.003475
v -0.051816 -0.007159 -0.003505
v -0.051813 -0.007201 -0.000563
v -0.053113 -0.004318 -0.006405
v -0.053320 -0.003555 -0.003451
v -0.053110 -0.004360 -0.003463
v -0.053106 -0.004403 -0.000521
v -0.053489 -0.002637 -0.006380
v -0.053652 -0.001805 -0.003425
v -0.053486 -0.002680 -0.003438
v -0.053482 -0.002722 -0.000497
v -0.053778 -0.001345 -0.006361
v -0.053897 -0.000970 -0.003413
v -0.053774 -0.001387 -0.003419
v -0.053771 -0.001430 -0.000478
v -0.063946 -0.000926 -0.006343
v -0.073988 -0.000966 -0.003389
v -0.063942 -0.000968 -0.003401
v -0.063939 -0.001010 -0.000460
v -0.073891 -0.003243 -0.006365
v -0.073787 -0.005605 -0.003456
v -0.073887 -0.003285 -0.003423
v -0.073884 -0.003328 -0.000481
v -0.079062 -0.002443 -0.006347
v -0.084329 0.000633 -0.003354
v -0.079058 -0.002486 -0.003405
v -0.079055 -0.002528 -0.000464
v -0.079355 0.004391 -0.006248
v -0.074375 0.008064 -0.003259
v -0.079352 0.004349 -0.003307
v -0.079348 0.004306 -0.000365
v -0.074274 0.005950 -0.006232
v -0.074166 0.003750 -0.003321
v -0.074270 0.005907 -0.003290
v -0.074267 0.005865 -0.000348
v -0.064077 0.003795 -0.006275
v -0.053980 0.003755 -0.003345
v -0.064073 0.003752 -0.003333
v -0.064070 0.003710 -0.000391
v -0.053398 0.005985 -0.006256
v -0.052809 0.008130 -0.003283
v -0.053395 0.005942 -0.003314
v -0.053391 0.005900 -0.000372
v -0.051700 0.010150 -0.006198
v -0.050584 0.012086 -0.003229
v -0.051697 0.010108 -0.003256
v -0.051693 0.010066 -0.000314
v -0.049031 0.013754 -0.006149
v -0.047470 0.015338 -0.003186
v -0.049027 0.013712 -0.003207
v -0.049024 0.013670 -0.000266
v -0.045544 0.016575 -0.006113
v -0.043611 0.017728 -0.003156
v -0.045541 0.016533 -0.003171
v -0.045537 0.016490 -0.000229
v -0.043725 0.001462 -0.006332
v -0.043722 0.001420 -0.003391
v -0.043719 0.001377 -0.000449
v -0.079251 0.002234 -0.006279
v -0.079162 -0.000124 -0.006314
v -0.074080 0.001434 -0.006297
v -0.045638 0.002683 -0.006313
v -0.047567 0.001488 -0.006328
v -0.049125 -0.000137 -0.006349
v -0.050237 -0.002116 -0.006376
v -0.051774 -0.000469 -0.006351
v -0.052858 0.001525 -0.006321
v -0.053444 -0.000663 -0.006352
v -0.053653 0.000142 -0.006340
v -0.053820 0.001017 -0.006327
v -0.053942 0.001435 -0.006321
v -0.063988 0.001437 -0.006309
v -0.079244 0.002149 -0.000396
v -0.079155 -0.000209 -0.000430
v -0.074074 0.001349 -0.000414
v -0.045631 0.002599 -0.000429
v -0.047561 0.001404 -0.000444
v -0.049118 -0.000222 -0.000466
v -0.050230 -0.002201 -0.000493
v -0.051767 -0.000553 -0.000467
v -0.052851 0.001440 -0.000437
v -0.053437 -0.000748 -0.000468
v -0.053647 0.000058 -0.000456
v -0.053813 0.000933 -0.000443
v -0.053935 0.001350 -0.000437
v -0.063981 0.001352 -0.000425
v 0.003617 -0.036795 0.021017
v -0.015841 -0.046107 0.020905
v 0.003614 -0.046113 0.020882
v 0.003611 -0.055431 0.020748
v 0.023069 -0.046118 0.020859
v 0.023071 -0.046139 0.022258
v 0.003613 -0.055451 0.022147
v 0.003616 -0.046133 0.022281
v -0.015839 -0.046127 0.022304
v 0.003619 -0.036815 0.022415
v 0.023067 -0.055447 0.021425
v 0.023070 -0.046128 0.021559
v 0.023073 -0.036810 0.021693
v -0.015843 -0.055436 0.021471
v 0.003612 -0.055441 0.021448
v -0.015837 -0.036799 0.021739
v -0.015840 -0.046117 0.021605
v 0.003618 -0.036805 0.021716
v -0.055188 0.000564 0.020738
v -0.065672 0.004594 0.019866
v -0.054323 0.004577 0.020794
v -0.062347 0.012008 0.019969
v -0.051863 0.007979 0.020841
v -0.056204 0.017683 0.020043
v -0.048180 0.010251 0.020869
v -0.048178 0.020253 0.020071
v -0.043838 0.010549 0.020868
v -0.043844 -0.009428 0.020580
v -0.048190 -0.019103 0.019504
v -0.048186 -0.009128 0.020590
v -0.056214 -0.016529 0.019550
v -0.051867 -0.006854 0.020627
v -0.062354 -0.010851 0.019639
v -0.054326 -0.003450 0.020679
v -0.065674 -0.003433 0.019750
v -0.076159 0.000622 0.017139
v -0.084185 0.008079 0.014573
v -0.074561 0.008037 0.017244
v -0.073697 0.012050 0.017300
v -0.078040 0.021780 0.014763
v -0.069150 0.018336 0.017386
v -0.066690 0.021738 0.017432
v -0.066690 0.032265 0.014901
v -0.059886 0.025937 0.017484
v -0.056204 0.028210 0.017513
v -0.051862 0.037014 0.014952
v -0.048179 0.028760 0.017511
v -0.043836 0.029058 0.017510
v -0.043853 -0.027833 0.016691
v -0.051884 -0.035707 0.013904
v -0.051878 -0.027278 0.016708
v -0.056220 -0.026978 0.016718
v -0.066709 -0.030950 0.013990
v -0.063021 -0.022775 0.016786
v -0.066702 -0.020501 0.016823
v -0.078052 -0.020459 0.014155
v -0.071245 -0.014212 0.016919
v -0.073704 -0.010809 0.016971
v -0.084189 -0.006754 0.014360
v -0.075297 -0.003392 0.017080
v -0.089854 0.000695 0.012354
v -0.092018 0.009581 0.010366
v -0.087946 0.009550 0.012480
v -0.086348 0.016965 0.012585
v -0.084680 0.025941 0.010593
v -0.080919 0.024470 0.012686
v -0.076372 0.030756 0.012772
v -0.071127 0.038461 0.010757
v -0.068248 0.035770 0.012834
v -0.061445 0.039969 0.012887
v -0.053421 0.044132 0.010818
v -0.051863 0.040626 0.012885
v -0.043838 0.041177 0.012883
v -0.043863 -0.039813 0.011717
v -0.053447 -0.042702 0.009567
v -0.053444 -0.039151 0.011738
v -0.061468 -0.038596 0.011755
v -0.071149 -0.037021 0.009670
v -0.069589 -0.033578 0.011837
v -0.076390 -0.029375 0.011905
v -0.084695 -0.024494 0.009866
v -0.081815 -0.021867 0.012020
v -0.086358 -0.015578 0.012116
v -0.092023 -0.008130 0.010111
v -0.088261 -0.006722 0.012246
v -0.066981 0.009574 0.010336
v -0.068889 0.000720 0.010211
v -0.061552 0.017080 0.010438
v -0.053428 0.022093 0.010501
v -0.043846 0.022751 0.010499
v -0.053441 -0.020664 0.009885
v -0.043860 -0.021326 0.009864
v -0.061562 -0.015645 0.009967
v -0.066987 -0.008137 0.010081
v -0.055244 0.001250 -0.026865
v -0.054379 0.005262 -0.026808
v -0.065725 0.005252 -0.025853
v -0.051919 0.008665 -0.026762
v -0.062401 0.012667 -0.025751
v -0.048236 0.010937 -0.026734
v -0.056257 0.018341 -0.025676
v -0.043894 0.011235 -0.026735
v -0.048232 0.020912 -0.025648
v -0.043900 -0.008742 -0.027022
v -0.048242 -0.008442 -0.027013
v -0.048244 -0.018445 -0.026215
v -0.051923 -0.006168 -0.026976
v -0.056268 -0.015870 -0.026169
v -0.054382 -0.002764 -0.026924
v -0.062407 -0.010192 -0.026080
v -0.065728 -0.002775 -0.025969
v -0.076207 0.001203 -0.023217
v -0.074609 0.008619 -0.023112
v -0.084226 0.008583 -0.020418
v -0.073745 0.012632 -0.023055
v -0.069197 0.018917 -0.022970
v -0.078081 0.022284 -0.020228
v -0.066737 0.022320 -0.022924
v -0.059934 0.026519 -0.022871
v -0.066731 0.032769 -0.020090
v -0.056251 0.028791 -0.022843
v -0.048226 0.029341 -0.022844
v -0.051903 0.037518 -0.020039
v -0.043884 0.029639 -0.022845
v -0.043901 -0.027251 -0.023665
v -0.051925 -0.026697 -0.023647
v -0.051925 -0.035203 -0.021087
v -0.056268 -0.026397 -0.023638
v -0.063068 -0.022194 -0.023569
v -0.066750 -0.030446 -0.021001
v -0.066750 -0.019919 -0.023532
v -0.071293 -0.013631 -0.023436
v -0.078094 -0.019955 -0.020836
v -0.073751 -0.010227 -0.023384
v -0.075345 -0.002811 -0.023275
v -0.084230 -0.006249 -0.020632
v -0.089890 0.001138 -0.018399
v -0.087982 0.009993 -0.018274
v -0.092049 0.009963 -0.016151
v -0.086384 0.017408 -0.018169
v -0.080955 0.024914 -0.018067
v -0.084711 0.026323 -0.015924
v -0.076408 0.031199 -0.017982
v -0.068284 0.036213 -0.017920
v -0.071158 0.038843 -0.015759
v -0.061481 0.040412 -0.017867
v -0.051899 0.041069 -0.017869
v -0.053452 0.044514 -0.015698
v -0.043875 0.041620 -0.017870
v -0.043899 -0.039370 -0.019037
v -0.053480 -0.038708 -0.019016
v -0.053479 -0.042320 -0.016949
v -0.061504 -0.038153 -0.018999
v -0.069625 -0.033135 -0.018917
v -0.071181 -0.036639 -0.016847
v -0.076426 -0.028932 -0.018849
v -0.081851 -0.021423 -0.018734
v -0.084727 -0.024112 -0.016650
v -0.086394 -0.015135 -0.018638
v -0.088297 -0.006279 -0.018508
v -0.092054 -0.007748 -0.016406
v -0.067013 0.009956 -0.016180
v -0.068920 0.001102 -0.016306
v -0.061583 0.017462 -0.016079
v -0.053459 0.022475 -0.016016
v -0.043878 0.023133 -0.016018
v -0.053472 -0.020282 -0.016632
v -0.043891 -0.020944 -0.016653
v -0.061593 -0.015263 -0.016550
v -0.067018 -0.007755 -0.016435
f 1 418 420
f 418 2 419
f 419 3 420
f 418 419 420
f 1 421 418
f 421 4 422
f 422 2 418
f 421 422 418
f 1 423 421
f 423 5 424
f 424 4 421
f 423 424 421
f 1 425 423
f 425 6 426
f 426 5 423
f 425 426 423
f 1 427 425
f 427 7 428
f 428 6 425
f 427 428 425
f 1 429 427
f 429 8 430
f 430 7 427
f 429 430 427
f 1 431 429
f 431 9 432
f 432 8 429
f 431 432 429
f 1 433 431
f 433 10 434
f 434 9 431
f 433 434 431
f 1 435 433
f 435 11 436
f 436 10 433
f 435 436 433
f 1 437 435
f 437 12 438
f 438 11 435
f 437 438 435
f 1 439 437
f 439 13 440
f 440 12 437
f 439 440 437
f 1 441 439
f 441 14 442
f 442 13 439
f 441 442 439
f 1 443 441
f 443 15 444
f 444 14 441
f 443 444 441
f 1 420 443
f 420 3 445
f 445 15 443
f 420 445 443
f 3 446 448
f 446 16 447
f 447 17 448
f 446 447 448
f 3 419 446
f 419 2 449
f 449 16 446
f 419 449 446
f 2 450 449
f 450 18 451
f 451 16 449
f 450 451 449
f 2 422 450
f 422 4 452
f 452 18 450
f 422 452 450
f 4 453 452
f 453 19 454
f 454 18 452
f 453 454 452
f 4 424 453
f 424 5 455
f 455 19 453
f 424 455 453
f 5 456 455
f 456 20 457
f 457 19 455
f 456 457 455
f 5 426 456
f 426 6 458
f 458 20 456
f 426 458 456
f 6 459 458
f 459 21 460
f 460 20 458
f 459 460 458
f 6 428 459
f 428 7 461
f 461 21 459
f 428 461 459
f 7 462 461
f 462 22 463
f 463 21 461
f 462 463 461
f 7 430 462
f 430 8 464
f 464 22 462
f 430 464 462
f 8 465 464
f 465 23 466
f 466 22 464
f 465 466 464
f 8 432 465
f 432 9 467
f 467 23 465
f 432 467 465
f 9 468 467
f 468 24 469
f 469 23 467
f 468 469 467
f 9 434 468
f 434 10 470
f 470 24 468
f 434 470 468
f 10 471 470
f 471 25 472
f 472 24 470
f 471 472 470
f 10 436 471
f 436 11 473
f 473 25 471
f 436 473 471
f 11 474 473
f 474 26 475
f 475 25 473
f 474 475 473
f 11 438 474
f 438 12 476
f 476 26 474
f 438 476 474
f 12 477 476
f 477 27 478
f 478 26 476
f 477 478 476
f 12 440 477
f 440 13 479
f 479 27 477
f 440 479 477
f 13 480 479
f 480 28 481
f 481 27 479
f 480 481 479
f 13 442 480
f 442 14 482
f 482 28 480
f 442 482 480
f 14 483 482
f 483 29 484
f 484 28 482
f 483 484 482
f 14 444 483
f 444 15 485
f 485 29 483
f 444 485 483
f 15 486 485
f 486 17 487
f 487 29 485
f 486 487 485
f 15 445 486
f 445 3 448
f 448 17 486
f 445 448 486
f 30 488 489
f 488 17 447
f 447 16 489
f 488 447 489
f 30 489 490
f 489 16 451
f 451 18 490
f 489 451 490
f 30 490 491
f 490 18 454
f 454 19 491
f 490 454 491
f 30 491 492
f 491 19 457
f 457 20 492
f 491 457 492
f 30 492 493
f 492 20 460
f 460 21 493
f 492 460 493
f 30 493 494
f 493 21 463
f 463 22 494
f 493 463 494
f 30 494 495
f 494 22 466
f 466 23 495
f 494 466 495
f 30 495 496
f 495 23 469
f 469 24 496
f 495 469 496
f 30 496 497
f 496 24 472
f 472 25 497
f 496 472 497
f 30 497 498
f 497 25 475
f 475 26 498
f 497 475 498
f 30 498 499
f 498 26 478
f 478 27 499
f 498 478 499
f 30 499 500
f 499 27 481
f 481 28 500
f 499 481 500
f 30 500 501
f 500 28 484
f 484 29 501
f 500 484 501
f 30 501 488
f 501 29 487
f 487 17 488
f 501 487 488
f 31 502 504
f 502 32 503
f 503 33 504
f 502 503 504
f 31 504 506
f 504 33 505
f 505 34 506
f 504 505 506
f 32 507 509
f 507 35 508
f 508 36 509
f 507 508 509
f 32 509 503
f 509 36 510
f 510 33 503
f 509 510 503
f 35 511 513
f 511 37 512
f 512 38 513
f 511 512 513
f 35 513 508
f 513 38 514
f 514 36 508
f 513 514 508
f 37 515 517
f 515 39 516
f 516 40 517
f 515 516 517
f 37 517 512
f 517 40 518
f 518 38 512
f 517 518 512
f 39 519 521
f 519 41 520
f 520 42 521
f 519 520 521
f 39 521 516
f 521 42 522
f 522 40 516
f 521 522 516
f 41 523 525
f 523 43 524
f 524 44 525
f 523 524 525
f 41 525 520
f 525 44 526
f 526 42 520
f 525 526 520
f 43 527 529
f 527 45 528
f 528 46 529
f 527 528 529
f 43 529 524
f 529 46 530
f 530 44 524
f 529 530 524
f 45 531 533
f 531 47 532
f 532 48 533
f 531 532 533
f 45 533 528
f 533 48 534
f 534 46 528
f 533 534 528
f 47 535 537
f 535 49 536
f 536 50 537
f 535 536 537
f 47 537 532
f 537 50 538
f 538 48 532
f 537 538 532
f 49 539 541
f 539 51 540
f 540 52 541
f 539 540 541
f 49 541 536
f 541 52 542
f 542 50 536
f 541 542 536
f 51 543 545
f 543 53 544
f 544 54 545
f 543 544 545
f 51 545 540
f 545 54 546
f 546 52 540
f 545 546 540
f 53 547 549
f 547 55 548
f 548 56 549
f 547 548 549
f 53 549 544
f 549 56 550
f 550 54 544
f 549 550 544
f 55 551 553
f 551 57 552
f 552 58 553
f 551 552 553
f 55 553 548
f 553 58 554
f 554 56 548
f 553 554 548
f 57 555 557
f 555 59 556
f 556 60 557
f 555 556 557
f 57 557 552
f 557 60 558
f 558 58 552
f 557 558 552
f 59 559 561
f 559 61 560
f 560 62 561
f 559 560 561
f 59 561 556
f 561 62 562
f 562 60 556
f 561 562 556
f 61 563 565
f 563 63 564
f 564 64 565
f 563 564 565
f 61 565 560
f 565 64 566
f 566 62 560
f 565 566 560
f 63 567 569
f 567 65 568
f 568 66 569
f 567 568 569
f 63 569 564
f 569 66 570
f 570 64 564
f 569 570 564
f 65 571 573
f 571 67 572
f 572 68 573
f 571 572 573
f 65 573 568
f 573 68 574
f 574 66 568
f 573 574 568
f 67 575 577
f 575 69 576
f 576 70 577
f 575 576 577
f 67 577 572
f 577 70 578
f 578 68 572
f 577 578 572
f 69 579 581
f 579 71 580
f 580 72 581
f 579 580 581
f 69 581 576
f 581 72 582
f 582 70 576
f 581 582 576
f 71 583 584
f 583 31 506
f 506 34 584
f 583 506 584
f 71 584 580
f 584 34 585
f 585 72 580
f 584 585 580
f 34 505 587
f 505 33 586
f 586 73 587
f 505 586 587
f 34 587 589
f 587 73 588
f 588 74 589
f 587 588 589
f 33 510 591
f 510 36 590
f 590 75 591
f 510 590 591
f 33 591 586
f 591 75 592
f 592 73 586
f 591 592 586
f 36 514 594
f 514 38 593
f 593 76 594
f 514 593 594
f 36 594 590
f 594 76 595
f 595 75 590
f 594 595 590
f 38 518 597
f 518 40 596
f 596 77 597
f 518 596 597
f 38 597 593
f 597 77 598
f 598 76 593
f 597 598 593
f 40 522 600
f 522 42 599
f 599 78 600
f 522 599 600
f 40 600 596
f 600 78 601
f 601 77 596
f 600 601 596
f 42 526 603
f 526 44 602
f 602 79 603
f 526 602 603
f 42 603 599
f 603 79 604
f 604 78 599
f 603 604 599
f 44 530 606
f 530 46 605
f 605 80 606
f 530 605 606
f 44 606 602
f 606 80 607
f 607 79 602
f 606 607 602
f 46 534 609
f 534 48 608
f 608 81 609
f 534 608 609
f 46 609 605
f 609 81 610
f 610 80 605
f 609 610 605
f 48 538 612
f 538 50 611
f 611 82 612
f 538 611 612
f 48 612 608
f 612 82 613
f 613 81 608
f 612 613 608
f 50 542 615
f 542 52 614
f 614 83 615
f 542 614 615
f 50 615 611
f 615 83 616
f 616 82 611
f 615 616 611
f 52 546 618
f 546 54 617
f 617 84 618
f 546 617 618
f 52 618 614
f 618 84 619
f 619 83 614
f 618 619 614
f 54 550 621
f 550 56 620
f 620 85 621
f 550 620 621
f 54 621 617
f 621 85 622
f 622 84 617
f 621 622 617
f 56 554 624
f 554 58 623
f 623 86 624
f 554 623 624
f 56 624 620
f 624 86 625
f 625 85 620
f 624 625 620
f 58 558 627
f 558 60 626
f 626 87 627
f 558 626 627
f 58 627 623
f 627 87 628
f 628 86 623
f 627 628 623
f 60 562 630
f 562 62 629
f 629 88 630
f 562 629 630
f 60 630 626
f 630 88 631
f 631 87 626
f 630 631 626
f 62 566 633
f 566 64 632
f 632 89 633
f 566 632 633
f 62 633 629
f 633 89 634
f 634 88 629
f 633 634 629
f 64 570 636
f 570 66 635
f 635 90 636
f 570 635 636
f 64 636 632
f 636 90 637
f 637 89 632
f 636 637 632
f 66 574 639
f 574 68 638
f 638 91 639
f 574 638 639
f 66 639 635
f 639 91 640
f 640 90 635
f 639 640 635
f 68 578 642
f 578 70 641
f 641 92 642
f 578 641 642
f 68 642 638
f 642 92 643
f 643 91 638
f 642 643 638
f 70 582 645
f 582 72 644
f 644 93 645
f 582 644 645
f 70 645 641
f 645 93 646
f 646 92 641
f 645 646 641
f 72 585 647
f 585 34 589
f 589 74 647
f 585 589 647
f 72 647 644
f 647 74 648
f 648 93 644
f 647 648 644
f 74 588 650
f 588 73 649
f 649 94 650
f 588 649 650
f 74 650 652
f 650 94 651
f 651 95 652
f 650 651 652
f 73 592 654
f 592 75 653
f 653 96 654
f 592 653 654
f 73 654 649
f 654 96 655
f 655 94 649
f 654 655 649
f 75 595 657
f 595 76 656
f 656 97 657
f 595 656 657
f 75 657 653
f 657 97 658
f 658 96 653
f 657 658 653
f 76 598 660
f 598 77 659
f 659 98 660
f 598 659 660
f 76 660 656
f 660 98 661
f 661 97 656
f 660 661 656
f 77 601 663
f 601 78 662
f 662 99 663
f 601 662 663
f 77 663 659
f 663 99 664
f 664 98 659
f 663 664 659
f 78 604 666
f 604 79 665
f 665 100 666
f 604 665 666
f 78 666 662
f 666 100 667
f 667 99 662
f 666 667 662
f 79 607 669
f 607 80 668
f 668 101 669
f 607 668 669
f 79 669 665
f 669 101 670
f 670 100 665
f 669 670 665
f 80 610 672
f 610 81 671
f 671 102 672
f 610 671 672
f 80 672 668
f 672 102 673
f 673 101 668
f 672 673 668
f 81 613 675
f 613 82 674
f 674 103 675
f 613 674 675
f 81 675 671
f 675 103 676
f 676 102 671
f 675 676 671
f 82 616 678
f 616 83 677
f 677 104 678
f 616 677 678
f 82 678 674
f 678 104 679
f 679 103 674
f 678 679 674
f 83 619 681
f 619 84 680
f 680 105 681
f 619 680 681
f 83 681 677
f 681 105 682
f 682 104 677
f 681 682 677
f 84 622 684
f 622 85 683
f 683 106 684
f 622 683 684
f 84 684 680
f 684 106 685
f 685 105 680
f 684 685 680
f 85 625 687
f 625 86 686
f 686 107 687
f 625 686 687
f 85 687 683
f 687 107 688
f 688 106 683
f 687 688 683
f 86 628 690
f 628 87 689
f 689 108 690
f 628 689 690
f 86 690 686
f 690 108 691
f 691 107 686
f 690 691 686
f 87 631 693
f 631 88 692
f 692 109 693
f 631 692 693
f 87 693 689
f 693 109 694
f 694 108 689
f 693 694 689
f 88 634 696
f 634 89 695
f 695 110 696
f 634 695 696
f 88 696 692
f 696 110 697
f 697 109 692
f 696 697 692
f 89 637 699
f 637 90 698
f 698 111 699
f 637 698 699
f 89 699 695
f 699 111 700
f 700 110 695
f 699 700 695
f 90 640 702
f 640 91 701
f 701 112 702
f 640 701 702
f 90 702 698
f 702 112 703
f 703 111 698
f 702 703 698
f 91 643 705
f 643 92 704
f 704 113 705
f 643 704 705
f 91 705 701
f 705 113 706
f 706 112 701
f 705 706 701
f 92 646 708
f 646 93 707
f 707 114 708
f 646 707 708
f 92 708 704
f 708 114 709
f 709 113 704
f 708 709 704
f 93 648 710
f 648 74 652
f 652 95 710
f 648 652 710
f 93 710 707
f 710 95 711
f 711 114 707
f 710 711 707
f 95 651 713
f 651 94 712
f 712 115 713
f 651 712 713
f 95 713 715
f 713 115 714
f 714 116 715
f 713 714 715
f 94 655 717
f 655 96 716
f 716 117 717
f 655 716 717
f 94 717 712
f 717 117 718
f 718 115 712
f 717 718 712
f 96 658 720
f 658 97 719
f 719 118 720
f 658 719 720
f 96 720 716
f 720 118 721
f 721 117 716
f 720 721 716
f 97 661 723
f 661 98 722
f 722 119 723
f 661 722 723
f 97 723 719
f 723 119 724
f 724 118 719
f 723 724 719
f 98 664 726
f 664 99 725
f 725 120 726
f 664 725 726
f 98 726 722
f 726 120 727
f 727 119 722
f 726 727 722
f 99 667 729
f 667 100 728
f 728 121 729
f 667 728 729
f 99 729 725
f 729 121 730
f 730 120 725
f 729 730 725
f 100 670 732
f 670 101 731
f 731 122 732
f 670 731 732
f 100 732 728
f 732 122 733
f 733 121 728
f 732 733 728
f 101 673 735
f 673 102 734
f 734 123 735
f 673 734 735
f 101 735 731
f 735 123 736
f 736 122 731
f 735 736 731
f 102 676 738
f 676 103 737
f 737 124 738
f 676 737 738
f 102 738 734
f 738 124 739
f 739 123 734
f 738 739 734
f 103 679 741
f 679 104 740
f 740 125 741
f 679 740 741
f 103 741 737
f 741 125 742
f 742 124 737
f 741 742 737
f 104 682 744
f 682 105 743
f 743 126 744
f 682 743 744
f 104 744 740
f 744 126 745
f 745 125 740
f 744 745 740
f 105 685 747
f 685 106 746
f 746 127 747
f 685 746 747
f 105 747 743
f 747 127 748
f 748 126 743
f 747 748 743
f 106 688 750
f 688 107 749
f 749 128 750
f 688 749 750
f 106 750 746
f 750 128 751
f 751 127 746
f 750 751 746
f 107 691 753
f 691 108 752
f 752 129 753
f 691 752 753
f 107 753 749
f 753 129 754
f 754 128 749
f 753 754 749
f 108 694 756
f 694 109 755
f 755 130 756
f 694 755 756
f 108 756 752
f 756 130 757
f 757 129 752
f 756 757 752
f 109 697 759
f 697 110 758
f 758 131 759
f 697 758 759
f 109 759 755
f 759 131 760
f 760 130 755
f 759 760 755
f 110 700 762
f 700 111 761
f 761 132 762
f 700 761 762
f 110 762 758
f 762 132 763
f 763 131 758
f 762 763 758
f 111 703 765
f 703 112 764
f 764 133 765
f 703 764 765
f 111 765 761
f 765 133 766
f 766 132 761
f 765 766 761
f 112 706 768
f 706 113 767
f 767 134 768
f 706 767 768
f 112 768 764
f 768 134 769
f 769 133 764
f 768 769 764
f 113 709 771
f 709 114 770
f 770 135 771
f 709 770 771
f 113 771 767
f 771 135 772
f 772 134 767
f 771 772 767
f 114 711 773
f 711 95 715
f 715 116 773
f 711 715 773
f 114 773 770
f 773 116 774
f 774 135 770
f 773 774 770
f 116 714 776
f 714 115 775
f 775 136 776
f 714 775 776
f 116 776 778
f 776 136 777
f 777 137 778
f 776 777 778
f 115 718 780
f 718 117 779
f 779 138 780
f 718 779 780
f 115 780 775
f 780 138 781
f 781 136 775
f 780 781 775
f 117 721 783
f 721 118 782
f 782 139 783
f 721 782 783
f 117 783 779
f 783 139 784
f 784 138 779
f 783 784 779
f 118 724 786
f 724 119 785
f 785 140 786
f 724 785 786
f 118 786 782
f 786 140 787
f 787 139 782
f 786 787 782
f 119 727 789
f 727 120 788
f 788 141 789
f 727 788 789
f 119 789 785
f 789 141 790
f 790 140 785
f 789 790 785
f 120 730 792
f 730 121 791
f 791 142 792
f 730 791 792
f 120 792 788
f 792 142 793
f 793 141 788
f 792 793 788
f 121 733 795
f 733 122 794
f 794 143 795
f 733 794 795
f 121 795 791
f 795 143 796
f 796 142 791
f 795 796 791
f 122 736 798
f 736 123 797
f 797 144 798
f 736 797 798
f 122 798 794
f 798 144 799
f 799 143 794
f 798 799 794
f 123 739 801
f 739 124 800
f 800 145 801
f 739 800 801
f 123 801 797
f 801 145 802
f 802 144 797
f 801 802 797
f 124 742 804
f 742 125 803
f 803 146 804
f 742 803 804
f 124 804 800
f 804 146 805
f 805 145 800
f 804 805 800
f 125 745 807
f 745 126 806
f 806 147 807
f 745 806 807
f 125 807 803
f 807 147 808
f 808 146 803
f 807 808 803
f 126 748 810
f 748 127 809
f 809 148 810
f 748 809 810
f 126 810 806
f 810 148 811
f 811 147 806
f 810 811 806
f 127 751 813
f 751 128 812
f 812 149 813
f 751 812 813
f 127 813 809
f 813 149 814
f 814 148 809
f 813 814 809
f 128 754 816
f 754 129 815
f 815 150 816
f 754 815 816
f 128 816 812
f 816 150 817
f 817 149 812
f 816 817 812
f 129 757 819
f 757 130 818
f 818 151 819
f 757 818 819
f 129 819 815
f 819 151 820
f 820 150 815
f 819 820 815
f 130 760 822
f 760 131 821
f 821 152 822
f 760 821 822
f 130 822 818
f 822 152 823
f 823 151 818
f 822 823 818
f 131 763 825
f 763 132 824
f 824 153 825
f 763 824 825
f 131 825 821
f 825 153 826
f 826 152 821
f 825 826 821
f 132 766 828
f 766 133 827
f 827 154 828
f 766 827 828
f 132 828 824
f 828 154 829
f 829 153 824
f 828 829 824
f 133 769 831
f 769 134 830
f 830 155 831
f 769 830 831
f 133 831 827
f 831 155 832
f 832 154 827
f 831 832 827
f 134 772 834
f 772 135 833
f 833 156 834
f 772 833 834
f 134 834 830
f 834 156 835
f 835 155 830
f 834 835 830
f 135 774 836
f 774 116 778
f 778 137 836
f 774 778 836
f 135 836 833
f 836 137 837
f 837 156 833
f 836 837 833
f 71 838 583
f 838 32 502
f 502 31 583
f 838 502 583
f 71 839 838
f 839 35 507
f 507 32 838
f 839 507 838
f 69 840 579
f 840 35 839
f 839 71 579
f 840 839 579
f 67 841 575
f 841 35 840
f 840 69 575
f 841 840 575
f 55 842 551
f 842 47 843
f 843 57 551
f 842 843 551
f 55 844 842
f 844 49 535
f 535 47 842
f 844 535 842
f 53 845 547
f 845 49 844
f 844 55 547
f 845 844 547
f 51 539 543
f 539 49 845
f 845 53 543
f 539 845 543
f 156 837 846
f 837 137 777
f 777 136 846
f 837 777 846
f 156 846 847
f 846 136 781
f 781 138 847
f 846 781 847
f 155 835 848
f 835 156 847
f 847 138 848
f 835 847 848
f 154 832 849
f 832 155 848
f 848 138 849
f 832 848 849
f 148 814 851
f 814 149 850
f 850 144 851
f 814 850 851
f 148 851 852
f 851 144 802
f 802 145 852
f 851 802 852
f 147 811 853
f 811 148 852
f 852 145 853
f 811 852 853
f 146 808 805
f 808 147 853
f 853 145 805
f 808 853 805
f 35 841 855
f 841 67 854
f 854 157 855
f 841 854 855
f 37 511 856
f 511 35 855
f 855 157 856
f 511 855 856
f 157 854 858
f 854 67 857
f 857 158 858
f 854 857 858
f 67 571 857
f 571 65 859
f 859 158 857
f 571 859 857
f 37 856 515
f 856 157 860
f 860 39 515
f 856 860 515
f 65 861 859
f 861 159 862
f 862 158 859
f 861 862 859
f 39 860 864
f 860 157 863
f 863 160 864
f 860 863 864
f 159 861 865
f 861 65 567
f 567 63 865
f 861 567 865
f 39 864 519
f 864 160 866
f 866 41 519
f 864 866 519
f 63 867 865
f 867 161 868
f 868 159 865
f 867 868 865
f 41 866 870
f 866 160 869
f 869 162 870
f 866 869 870
f 41 870 523
f 870 162 871
f 871 43 523
f 870 871 523
f 43 871 873
f 871 162 872
f 872 163 873
f 871 872 873
f 43 873 875
f 873 163 874
f 874 164 875
f 873 874 875
f 43 875 527
f 875 164 876
f 876 45 527
f 875 876 527
f 63 877 867
f 877 165 878
f 878 161 867
f 877 878 867
f 45 876 880
f 876 164 879
f 879 166 880
f 876 879 880
f 45 880 882
f 880 166 881
f 881 167 882
f 880 881 882
f 45 882 531
f 882 167 883
f 883 47 531
f 882 883 531
f 47 883 885
f 883 167 884
f 884 168 885
f 883 884 885
f 47 885 887
f 885 168 886
f 886 169 887
f 885 886 887
f 165 877 888
f 877 63 563
f 563 61 888
f 877 563 888
f 165 888 889
f 888 61 559
f 559 59 889
f 888 559 889
f 47 887 891
f 887 169 890
f 890 170 891
f 887 890 891
f 59 892 894
f 892 171 893
f 893 172 894
f 892 893 894
f 171 892 895
f 892 59 555
f 555 57 895
f 892 555 895
f 165 889 897
f 889 59 896
f 896 173 897
f 889 896 897
f 59 894 896
f 894 172 898
f 898 173 896
f 894 898 896
f 47 891 900
f 891 170 899
f 899 174 900
f 891 899 900
f 57 843 902
f 843 47 901
f 901 175 902
f 843 901 902
f 47 900 901
f 900 174 903
f 903 175 901
f 900 903 901
f 57 902 905
f 902 175 904
f 904 176 905
f 902 904 905
f 57 905 907
f 905 176 906
f 906 177 907
f 905 906 907
f 57 907 909
f 907 177 908
f 908 178 909
f 907 908 909
f 57 909 895
f 909 178 910
f 910 171 895
f 909 910 895
f 154 849 912
f 849 138 911
f 911 179 912
f 849 911 912
f 138 784 911
f 784 139 913
f 913 179 911
f 784 913 911
f 153 829 915
f 829 154 914
f 914 180 915
f 829 914 915
f 154 912 914
f 912 179 916
f 916 180 914
f 912 916 914
f 179 913 917
f 913 139 787
f 787 140 917
f 913 787 917
f 179 917 919
f 917 140 918
f 918 181 919
f 917 918 919
f 182 920 921
f 920 181 918
f 918 140 921
f 920 918 921
f 153 922 826
f 922 183 923
f 923 152 826
f 922 923 826
f 180 924 915
f 924 183 922
f 922 153 915
f 924 922 915
f 182 921 925
f 921 140 790
f 790 141 925
f 921 790 925
f 182 925 926
f 925 141 793
f 793 142 926
f 925 793 926
f 184 927 928
f 927 182 926
f 926 142 928
f 927 926 928
f 185 929 930
f 929 184 928
f 928 142 930
f 929 928 930
f 185 930 931
f 930 142 796
f 796 143 931
f 930 796 931
f 186 932 934
f 932 152 933
f 933 187 934
f 932 933 934
f 183 935 923
f 935 187 933
f 933 152 923
f 935 933 923
f 188 936 937
f 936 185 931
f 931 143 937
f 936 931 937
f 189 938 939
f 938 188 937
f 937 143 939
f 938 937 939
f 189 939 940
f 939 143 799
f 799 144 940
f 939 799 940
f 190 941 942
f 941 189 940
f 940 144 942
f 941 940 942
f 191 943 944
f 943 190 942
f 942 144 944
f 943 942 944
f 152 932 823
f 932 186 945
f 945 151 823
f 932 945 823
f 151 945 820
f 945 186 946
f 946 150 820
f 945 946 820
f 191 944 948
f 944 144 947
f 947 192 948
f 944 947 948
f 193 949 951
f 949 150 950
f 950 194 951
f 949 950 951
f 150 949 817
f 949 193 952
f 952 149 817
f 949 952 817
f 195 953 954
f 953 194 950
f 950 150 954
f 953 950 954
f 186 955 946
f 955 195 954
f 954 150 946
f 955 954 946
f 196 956 957
f 956 192 947
f 947 144 957
f 956 947 957
f 144 850 959
f 850 149 958
f 958 197 959
f 850 958 959
f 197 960 959
f 960 196 957
f 957 144 959
f 960 957 959
f 198 961 962
f 961 197 958
f 958 149 962
f 961 958 962
f 199 963 965
f 963 149 964
f 964 200 965
f 963 964 965
f 149 963 962
f 963 199 966
f 966 198 962
f 963 966 962
f 201 967 968
f 967 200 964
f 964 149 968
f 967 964 968
f 193 969 952
f 969 201 968
f 968 149 952
f 969 968 952
f 179 970 971
f 970 157 858
f 858 158 971
f 970 858 971
f 158 972 971
f 972 180 916
f 916 179 971
f 972 916 971
f 180 972 973
f 972 158 862
f 862 159 973
f 972 862 973
f 157 970 863
f 970 179 974
f 974 160 863
f 970 974 863
f 181 975 919
f 975 160 974
f 974 179 919
f 975 974 919
f 160 975 976
f 975 181 920
f 920 182 976
f 975 920 976
f 159 977 973
f 977 183 924
f 924 180 973
f 977 924 973
f 160 976 869
f 976 182 978
f 978 162 869
f 976 978 869
f 183 977 979
f 977 159 868
f 868 161 979
f 977 868 979
f 162 980 872
f 980 184 981
f 981 163 872
f 980 981 872
f 162 978 980
f 978 182 927
f 927 184 980
f 978 927 980
f 185 982 983
f 982 164 874
f 874 163 983
f 982 874 983
f 163 981 983
f 981 184 929
f 929 185 983
f 981 929 983
f 165 984 878
f 984 186 985
f 985 161 878
f 984 985 878
f 187 986 934
f 986 161 985
f 985 186 934
f 986 985 934
f 161 986 979
f 986 187 935
f 935 183 979
f 986 935 979
f 164 987 879
f 987 188 988
f 988 166 879
f 987 988 879
f 164 982 987
f 982 185 936
f 936 188 987
f 982 936 987
f 189 989 990
f 989 167 881
f 881 166 990
f 989 881 990
f 166 988 990
f 988 188 938
f 938 189 990
f 988 938 990
f 167 991 884
f 991 190 992
f 992 168 884
f 991 992 884
f 167 989 991
f 989 189 941
f 941 190 991
f 989 941 991
f 191 993 994
f 993 169 886
f 886 168 994
f 993 886 994
f 168 992 994
f 992 190 943
f 943 191 994
f 992 943 994
f 169 993 890
f 993 191 995
f 995 170 890
f 993 995 890
f 192 996 948
f 996 170 995
f 995 191 948
f 996 995 948
f 171 997 893
f 997 193 998
f 998 172 893
f 997 998 893
f 194 999 951
f 999 172 998
f 998 193 951
f 999 998 951
f 195 1000 1001
f 1000 173 898
f 898 172 1001
f 1000 898 1001
f 173 1000 897
f 1000 195 1002
f 1002 165 897
f 1000 1002 897
f 172 999 1001
f 999 194 953
f 953 195 1001
f 999 953 1001
f 165 1002 984
f 1002 195 955
f 955 186 984
f 1002 955 984
f 170 1003 899
f 1003 196 1004
f 1004 174 899
f 1003 1004 899
f 170 996 1003
f 996 192 956
f 956 196 1003
f 996 956 1003
f 197 1005 1006
f 1005 175 903
f 903 174 1006
f 1005 903 1006
f 174 1004 1006
f 1004 196 960
f 960 197 1006
f 1004 960 1006
f 176 904 1008
f 904 175 1007
f 1007 198 1008
f 904 1007 1008
f 175 1005 1007
f 1005 197 961
f 961 198 1007
f 1005 961 1007
f 176 1009 906
f 1009 199 1010
f 1010 177 906
f 1009 1010 906
f 200 1011 965
f 1011 177 1010
f 1010 199 965
f 1011 1010 965
f 198 966 1008
f 966 199 1009
f 1009 176 1008
f 966 1009 1008
f 201 1012 1013
f 1012 178 908
f 908 177 1013
f 1012 908 1013
f 177 1011 1013
f 1011 200 967
f 967 201 1013
f 1011 967 1013
f 193 997 1014
f 997 171 910
f 910 178 1014
f 997 910 1014
f 178 1012 1014
f 1012 201 969
f 969 193 1014
f 1012 969 1014
f 202 1015 1017
f 1015 203 1016
f 1016 204 1017
f 1015 1016 1017
f 202 1018 1015
f 1018 205 1019
f 1019 203 1015
f 1018 1019 1015
f 202 1020 1018
f 1020 206 1021
f 1021 205 1018
f 1020 1021 1018
f 202 1022 1020
f 1022 207 1023
f 1023 206 1020
f 1022 1023 1020
f 202 1024 1022
f 1024 208 1025
f 1025 207 1022
f 1024 1025 1022
f 202 1026 1024
f 1026 209 1027
f 1027 208 1024
f 1026 1027 1024
f 202 1028 1026
f 1028 210 1029
f 1029 209 1026
f 1028 1029 1026
f 202 1030 1028
f 1030 211 1031
f 1031 210 1028
f 1030 1031 1028
f 202 1032 1030
f 1032 212 1033
f 1033 211 1030
f 1032 1033 1030
f 202 1034 1032
f 1034 213 1035
f 1035 212 1032
f 1034 1035 1032
f 202 1036 1034
f 1036 214 1037
f 1037 213 1034
f 1036 1037 1034
f 202 1038 1036
f 1038 215 1039
f 1039 214 1036
f 1038 1039 1036
f 202 1040 1038
f 1040 216 1041
f 1041 215 1038
f 1040 1041 1038
f 202 1017 1040
f 1017 204 1042
f 1042 216 1040
f 1017 1042 1040
f 204 1043 1045
f 1043 217 1044
f 1044 218 1045
f 1043 1044 1045
f 204 1016 1043
f 1016 203 1046
f 1046 217 1043
f 1016 1046 1043
f 203 1047 1046
f 1047 219 1048
f 1048 217 1046
f 1047 1048 1046
f 203 1019 1047
f 1019 205 1049
f 1049 219 1047
f 1019 1049 1047
f 205 1050 1049
f 1050 220 1051
f 1051 219 1049
f 1050 1051 1049
f 205 1021 1050
f 1021 206 1052
f 1052 220 1050
f 1021 1052 1050
f 206 1053 1052
f 1053 221 1054
f 1054 220 1052
f 1053 1054 1052
f 206 1023 1053
f 1023 207 1055
f 1055 221 1053
f 1023 1055 1053
f 207 1056 1055
f 1056 222 1057
f 1057 221 1055
f 1056 1057 1055
f 207 1025 1056
f 1025 208 1058
f 1058 222 1056
f 1025 1058 1056
f 208 1059 1058
f 1059 223 1060
f 1060 222 1058
f 1059 1060 1058
f 208 1027 1059
f 1027 209 1061
f 1061 223 1059
f 1027 1061 1059
f 209 1062 1061
f 1062 224 1063
f 1063 223 1061
f 1062 1063 1061
f 209 1029 1062
f 1029 210 1064
f 1064 224 1062
f 1029 1064 1062
f 210 1065 1064
f 1065 225 1066
f 1066 224 1064
f 1065 1066 1064
f 210 1031 1065
f 1031 211 1067
f 1067 225 1065
f 1031 1067 1065
f 211 1068 1067
f 1068 226 1069
f 1069 225 1067
f 1068 1069 1067
f 211 1033 1068
f 1033 212 1070
f 1070 226 1068
f 1033 1070 1068
f 212 1071 1070
f 1071 227 1072
f 1072 226 1070
f 1071 1072 1070
f 212 1035 1071
f 1035 213 1073
f 1073 227 1071
f 1035 1073 1071
f 213 1074 1073
f 1074 228 1075
f 1075 227 1073
f 1074 1075 1073
f 213 1037 1074
f 1037 214 1076
f 1076 228 1074
f 1037 1076 1074
f 214 1077 1076
f 1077 229 1078
f 1078 228 1076
f 1077 1078 1076
f 214 1039 1077
f 1039 215 1079
f 1079 229 1077
f 1039 1079 1077
f 215 1080 1079
f 1080 230 1081
f 1081 229 1079
f 1080 1081 1079
f 215 1041 1080
f 1041 216 1082
f 1082 230 1080
f 1041 1082 1080
f 216 1083 1082
f 1083 218 1084
f 1084 230 1082
f 1083 1084 1082
f 216 1042 1083
f 1042 204 1045
f 1045 218 1083
f 1042 1045 1083
f 231 1085 1086
f 1085 218 1044
f 1044 217 1086
f 1085 1044 1086
f 231 1086 1087
f 1086 217 1048
f 1048 219 1087
f 1086 1048 1087
f 231 1087 1088
f 1087 219 1051
f 1051 220 1088
f 1087 1051 1088
f 231 1088 1089
f 1088 220 1054
f 1054 221 1089
f 1088 1054 1089
f 231 1089 1090
f 1089 221 1057
f 1057 222 1090
f 1089 1057 1090
f 231 1090 1091
f 1090 222 1060
f 1060 223 1091
f 1090 1060 1091
f 231 1091 1092
f 1091 223 1063
f 1063 224 1092
f 1091 1063 1092
f 231 1092 1093
f 1092 224 1066
f 1066 225 1093
f 1092 1066 1093
f 231 1093 1094
f 1093 225 1069
f 1069 226 1094
f 1093 1069 1094
f 231 1094 1095
f 1094 226 1072
f 1072 227 1095
f 1094 1072 1095
f 231 1095 1096
f 1095 227 1075
f 1075 228 1096
f 1095 1075 1096
f 231 1096 1097
f 1096 228 1078
f 1078 229 1097
f 1096 1078 1097
f 231 1097 1098
f 1097 229 1081
f 1081 230 1098
f 1097 1081 1098
f 231 1098 1085
f 1098 230 1084
f 1084 218 1085
f 1098 1084 1085
f 232 1099 1101
f 1099 233 1100
f 1100 234 1101
f 1099 1100 1101
f 232 1101 1103
f 1101 234 1102
f 1102 235 1103
f 1101 1102 1103
f 233 1104 1106
f 1104 236 1105
f 1105 237 1106
f 1104 1105 1106
f 233 1106 1100
f 1106 237 1107
f 1107 234 1100
f 1106 1107 1100
f 236 1108 1110
f 1108 238 1109
f 1109 239 1110
f 1108 1109 1110
f 236 1110 1105
f 1110 239 1111
f 1111 237 1105
f 1110 1111 1105
f 238 1112 1114
f 1112 240 1113
f 1113 241 1114
f 1112 1113 1114
f 238 1114 1109
f 1114 241 1115
f 1115 239 1109
f 1114 1115 1109
f 240 1116 1118
f 1116 242 1117
f 1117 243 1118
f 1116 1117 1118
f 240 1118 1113
f 1118 243 1119
f 1119 241 1113
f 1118 1119 1113
f 242 1120 1122
f 1120 244 1121
f 1121 245 1122
f 1120 1121 1122
f 242 1122 1117
f 1122 245 1123
f 1123 243 1117
f 1122 1123 1117
f 244 1124 1126
f 1124 246 1125
f 1125 247 1126
f 1124 1125 1126
f 244 1126 1121
f 1126 247 1127
f 1127 245 1121
f 1126 1127 1121
f 246 1128 1130
f 1128 248 1129
f 1129 249 1130
f 1128 1129 1130
f 246 1130 1125
f 1130 249 1131
f 1131 247 1125
f 1130 1131 1125
f 248 1132 1134
f 1132 250 1133
f 1133 251 1134
f 1132 1133 1134
f 248 1134 1129
f 1134 251 1135
f 1135 249 1129
f 1134 1135 1129
f 250 1136 1137
f 1136 232 1103
f 1103 235 1137
f 1136 1103 1137
f 250 1137 1133
f 1137 235 1138
f 1138 251 1133
f 1137 1138 1133
f 235 1102 1140
f 1102 234 1139
f 1139 252 1140
f 1102 1139 1140
f 235 1140 1142
f 1140 252 1141
f 1141 253 1142
f 1140 1141 1142
f 234 1107 1144
f 1107 237 1143
f 1143 254 1144
f 1107 1143 1144
f 234 1144 1139
f 1144 254 1145
f 1145 252 1139
f 1144 1145 1139
f 237 1111 1147
f 1111 239 1146
f 1146 255 1147
f 1111 1146 1147
f 237 1147 1143
f 1147 255 1148
f 1148 254 1143
f 1147 1148 1143
f 239 1115 1150
f 1115 241 1149
f 1149 256 1150
f 1115 1149 1150
f 239 1150 1146
f 1150 256 1151
f 1151 255 1146
f 1150 1151 1146
f 241 1119 1153
f 1119 243 1152
f 1152 257 1153
f 1119 1152 1153
f 241 1153 1149
f 1153 257 1154
f 1154 256 1149
f 1153 1154 1149
f 243 1123 1156
f 1123 245 1155
f 1155 258 1156
f 1123 1155 1156
f 243 1156 1152
f 1156 258 1157
f 1157 257 1152
f 1156 1157 1152
f 245 1127 1159
f 1127 247 1158
f 1158 259 1159
f 1127 1158 1159
f 245 1159 1155
f 1159 259 1160
f 1160 258 1155
f 1159 1160 1155
f 247 1131 1162
f 1131 249 1161
f 1161 260 1162
f 1131 1161 1162
f 247 1162 1158
f 1162 260 1163
f 1163 259 1158
f 1162 1163 1158
f 249 1135 1165
f 1135 251 1164
f 1164 261 1165
f 1135 1164 1165
f 249 1165 1161
f 1165 261 1166
f 1166 260 1161
f 1165 1166 1161
f 251 1138 1167
f 1138 235 1142
f 1142 253 1167
f 1138 1142 1167
f 251 1167 1164
f 1167 253 1168
f 1168 261 1164
f 1167 1168 1164
f 253 1141 1170
f 1141 252 1169
f 1169 262 1170
f 1141 1169 1170
f 253 1170 1172
f 1170 262 1171
f 1171 263 1172
f 1170 1171 1172
f 252 1145 1174
f 1145 254 1173
f 1173 264 1174
f 1145 1173 1174
f 252 1174 1169
f 1174 264 1175
f 1175 262 1169
f 1174 1175 1169
f 254 1148 1177
f 1148 255 1176
f 1176 265 1177
f 1148 1176 1177
f 254 1177 1173
f 1177 265 1178
f 1178 264 1173
f 1177 1178 1173
f 255 1151 1180
f 1151 256 1179
f 1179 266 1180
f 1151 1179 1180
f 255 1180 1176
f 1180 266 1181
f 1181 265 1176
f 1180 1181 1176
f 256 1154 1183
f 1154 257 1182
f 1182 267 1183
f 1154 1182 1183
f 256 1183 1179
f 1183 267 1184
f 1184 266 1179
f 1183 1184 1179
f 257 1157 1186
f 1157 258 1185
f 1185 268 1186
f 1157 1185 1186
f 257 1186 1182
f 1186 268 1187
f 1187 267 1182
f 1186 1187 1182
f 258 1160 1189
f 1160 259 1188
f 1188 269 1189
f 1160 1188 1189
f 258 1189 1185
f 1189 269 1190
f 1190 268 1185
f 1189 1190 1185
f 259 1163 1192
f 1163 260 1191
f 1191 270 1192
f 1163 1191 1192
f 259 1192 1188
f 1192 270 1193
f 1193 269 1188
f 1192 1193 1188
f 260 1166 1195
f 1166 261 1194
f 1194 271 1195
f 1166 1194 1195
f 260 1195 1191
f 1195 271 1196
f 1196 270 1191
f 1195 1196 1191
f 261 1168 1197
f 1168 253 1172
f 1172 263 1197
f 1168 1172 1197
f 261 1197 1194
f 1197 263 1198
f 1198 271 1194
f 1197 1198 1194
f 263 1171 1200
f 1171 262 1199
f 1199 272 1200
f 1171 1199 1200
f 263 1200 1202
f 1200 272 1201
f 1201 273 1202
f 1200 1201 1202
f 262 1175 1204
f 1175 264 1203
f 1203 274 1204
f 1175 1203 1204
f 262 1204 1199
f 1204 274 1205
f 1205 272 1199
f 1204 1205 1199
f 264 1178 1207
f 1178 265 1206
f 1206 275 1207
f 1178 1206 1207
f 264 1207 1203
f 1207 275 1208
f 1208 274 1203
f 1207 1208 1203
f 265 1181 1210
f 1181 266 1209
f 1209 276 1210
f 1181 1209 1210
f 265 1210 1206
f 1210 276 1211
f 1211 275 1206
f 1210 1211 1206
f 266 1184 1213
f 1184 267 1212
f 1212 277 1213
f 1184 1212 1213
f 266 1213 1209
f 1213 277 1214
f 1214 276 1209
f 1213 1214 1209
f 267 1187 1216
f 1187 268 1215
f 1215 278 1216
f 1187 1215 1216
f 267 1216 1212
f 1216 278 1217
f 1217 277 1212
f 1216 1217 1212
f 268 1190 1219
f 1190 269 1218
f 1218 279 1219
f 1190 1218 1219
f 268 1219 1215
f 1219 279 1220
f 1220 278 1215
f 1219 1220 1215
f 269 1193 1222
f 1193 270 1221
f 1221 280 1222
f 1193 1221 1222
f 269 1222 1218
f 1222 280 1223
f 1223 279 1218
f 1222 1223 1218
f 270 1196 1225
f 1196 271 1224
f 1224 281 1225
f 1196 1224 1225
f 270 1225 1221
f 1225 281 1226
f 1226 280 1221
f 1225 1226 1221
f 271 1198 1227
f 1198 263 1202
f 1202 273 1227
f 1198 1202 1227
f 271 1227 1224
f 1227 273 1228
f 1228 281 1224
f 1227 1228 1224
f 273 1201 1230
f 1201 272 1229
f 1229 282 1230
f 1201 1229 1230
f 273 1230 1232
f 1230 282 1231
f 1231 283 1232
f 1230 1231 1232
f 272 1205 1234
f 1205 274 1233
f 1233 284 1234
f 1205 1233 1234
f 272 1234 1229
f 1234 284 1235
f 1235 282 1229
f 1234 1235 1229
f 274 1208 1237
f 1208 275 1236
f 1236 285 1237
f 1208 1236 1237
f 274 1237 1233
f 1237 285 1238
f 1238 284 1233
f 1237 1238 1233
f 275 1211 1240
f 1211 276 1239
f 1239 286 1240
f 1211 1239 1240
f 275 1240 1236
f 1240 286 1241
f 1241 285 1236
f 1240 1241 1236
f 276 1214 1243
f 1214 277 1242
f 1242 287 1243
f 1214 1242 1243
f 276 1243 1239
f 1243 287 1244
f 1244 286 1239
f 1243 1244 1239
f 277 1217 1246
f 1217 278 1245
f 1245 288 1246
f 1217 1245 1246
f 277 1246 1242
f 1246 288 1247
f 1247 287 1242
f 1246 1247 1242
f 278 1220 1249
f 1220 279 1248
f 1248 289 1249
f 1220 1248 1249
f 278 1249 1245
f 1249 289 1250
f 1250 288 1245
f 1249 1250 1245
f 279 1223 1252
f 1223 280 1251
f 1251 290 1252
f 1223 1251 1252
f 279 1252 1248
f 1252 290 1253
f 1253 289 1248
f 1252 1253 1248
f 280 1226 1255
f 1226 281 1254
f 1254 291 1255
f 1226 1254 1255
f 280 1255 1251
f 1255 291 1256
f 1256 290 1251
f 1255 1256 1251
f 281 1228 1257
f 1228 273 1232
f 1232 283 1257
f 1228 1232 1257
f 281 1257 1254
f 1257 283 1258
f 1258 291 1254
f 1257 1258 1254
f 242 1259 1120
f 1259 246 1124
f 1124 244 1120
f 1259 1124 1120
f 240 1260 1116
f 1260 246 1259
f 1259 242 1116
f 1260 1259 1116
f 238 1261 1112
f 1261 246 1260
f 1260 240 1112
f 1261 1260 1112
f 238 1262 1261
f 1262 248 1128
f 1128 246 1261
f 1262 1128 1261
f 236 1263 1108
f 1263 248 1262
f 1262 238 1108
f 1263 1262 1108
f 236 1264 1263
f 1264 250 1132
f 1132 248 1263
f 1264 1132 1263
f 233 1265 1104
f 1265 250 1264
f 1264 236 1104
f 1265 1264 1104
f 232 1136 1099
f 1136 250 1265
f 1265 233 1099
f 1136 1265 1099
f 287 1247 1266
f 1247 288 1250
f 1250 289 1266
f 1247 1250 1266
f 286 1244 1267
f 1244 287 1266
f 1266 289 1267
f 1244 1266 1267
f 285 1241 1268
f 1241 286 1267
f 1267 289 1268
f 1241 1267 1268
f 285 1268 1269
f 1268 289 1253
f 1253 290 1269
f 1268 1253 1269
f 284 1238 1270
f 1238 285 1269
f 1269 290 1270
f 1238 1269 1270
f 284 1270 1271
f 1270 290 1256
f 1256 291 1271
f 1270 1256 1271
f 282 1235 1272
f 1235 284 1271
f 1271 291 1272
f 1235 1271 1272
f 283 1231 1258
f 1231 282 1272
f 1272 291 1258
f 1231 1272 1258
f 292 1273 1275
f 1273 293 1274
f 1274 294 1275
f 1273 1274 1275
f 294 1276 1275
f 1276 295 1277
f 1277 292 1275
f 1276 1277 1275
f 296 1278 1280
f 1278 297 1279
f 1279 298 1280
f 1278 1279 1280
f 298 1281 1280
f 1281 299 1282
f 1282 296 1280
f 1281 1282 1280
f 292 1277 1284
f 1277 295 1283
f 1283 300 1284
f 1277 1283 1284
f 300 1285 1284
f 1285 301 1286
f 1286 292 1284
f 1285 1286 1284
f 301 1285 1288
f 1285 300 1287
f 1287 297 1288
f 1285 1287 1288
f 297 1278 1288
f 1278 296 1289
f 1289 301 1288
f 1278 1289 1288
f 295 1276 1291
f 1276 294 1290
f 1290 302 1291
f 1276 1290 1291
f 302 1292 1291
f 1292 300 1283
f 1283 295 1291
f 1292 1283 1291
f 300 1292 1294
f 1292 302 1293
f 1293 298 1294
f 1292 1293 1294
f 298 1279 1294
f 1279 297 1287
f 1287 300 1294
f 1279 1287 1294
f 294 1274 1296
f 1274 293 1295
f 1295 303 1296
f 1274 1295 1296
f 303 1297 1296
f 1297 302 1290
f 1290 294 1296
f 1297 1290 1296
f 302 1297 1299
f 1297 303 1298
f 1298 299 1299
f 1297 1298 1299
f 299 1281 1299
f 1281 298 1293
f 1293 302 1299
f 1281 1293 1299
f 293 1273 1300
f 1273 292 1286
f 1286 301 1300
f 1273 1286 1300
f 301 1301 1300
f 1301 303 1295
f 1295 293 1300
f 1301 1295 1300
f 303 1301 1302
f 1301 301 1289
f 1289 296 1302
f 1301 1289 1302
f 296 1282 1302
f 1282 299 1298
f 1298 303 1302
f 1282 1298 1302
f 304 1303 1305
f 1303 305 1304
f 1304 306 1305
f 1303 1304 1305
f 304 1305 1307
f 1305 306 1306
f 1306 307 1307
f 1305 1306 1307
f 305 1308 1310
f 1308 308 1309
f 1309 309 1310
f 1308 1309 1310
f 305 1310 1304
f 1310 309 1311
f 1311 306 1304
f 1310 1311 1304
f 308 1312 1314
f 1312 310 1313
f 1313 311 1314
f 1312 1313 1314
f 308 1314 1309
f 1314 311 1315
f 1315 309 1309
f 1314 1315 1309
f 310 1316 1318
f 1316 312 1317
f 1317 313 1318
f 1316 1317 1318
f 310 1318 1313
f 1318 313 1319
f 1319 311 1313
f 1318 1319 1313
f 312 1320 1322
f 1320 314 1321
f 1321 315 1322
f 1320 1321 1322
f 312 1322 1317
f 1322 315 1323
f 1323 313 1317
f 1322 1323 1317
f 314 1324 1326
f 1324 316 1325
f 1325 317 1326
f 1324 1325 1326
f 314 1326 1321
f 1326 317 1327
f 1327 315 1321
f 1326 1327 1321
f 316 1328 1329
f 1328 304 1307
f 1307 307 1329
f 1328 1307 1329
f 316 1329 1325
f 1329 307 1330
f 1330 317 1325
f 1329 1330 1325
f 316 1331 1328
f 1331 305 1303
f 1303 304 1328
f 1331 1303 1328
f 314 1332 1324
f 1332 305 1331
f 1331 316 1324
f 1332 1331 1324
f 312 1333 1320
f 1333 305 1332
f 1332 314 1320
f 1333 1332 1320
f 310 1334 1316
f 1334 305 1333
f 1333 312 1316
f 1334 1333 1316
f 310 1312 1334
f 1312 308 1308
f 1308 305 1334
f 1312 1308 1334
f 317 1330 1335
f 1330 307 1306
f 1306 306 1335
f 1330 1306 1335
f 315 1327 1336
f 1327 317 1335
f 1335 306 1336
f 1327 1335 1336
f 313 1323 1337
f 1323 315 1336
f 1336 306 1337
f 1323 1336 1337
f 311 1319 1338
f 1319 313 1337
f 1337 306 1338
f 1319 1337 1338
f 311 1338 1315
f 1338 306 1311
f 1311 309 1315
f 1338 1311 1315
f 318 1339 1341
f 1339 319 1340
f 1340 320 1341
f 1339 1340 1341
f 318 1341 1343
f 1341 320 1342
f 1342 321 1343
f 1341 1342 1343
f 319 1344 1346
f 1344 322 1345
f 1345 323 1346
f 1344 1345 1346
f 319 1346 1340
f 1346 323 1347
f 1347 320 1340
f 1346 1347 1340
f 322 1348 1350
f 1348 324 1349
f 1349 325 1350
f 1348 1349 1350
f 322 1350 1345
f 1350 325 1351
f 1351 323 1345
f 1350 1351 1345
f 324 1352 1354
f 1352 326 1353
f 1353 327 1354
f 1352 1353 1354
f 324 1354 1349
f 1354 327 1355
f 1355 325 1349
f 1354 1355 1349
f 326 1356 1358
f 1356 328 1357
f 1357 329 1358
f 1356 1357 1358
f 326 1358 1353
f 1358 329 1359
f 1359 327 1353
f 1358 1359 1353
f 328 1360 1362
f 1360 330 1361
f 1361 331 1362
f 1360 1361 1362
f 328 1362 1357
f 1362 331 1363
f 1363 329 1357
f 1362 1363 1357
f 330 1364 1366
f 1364 332 1365
f 1365 333 1366
f 1364 1365 1366
f 330 1366 1361
f 1366 333 1367
f 1367 331 1361
f 1366 1367 1361
f 332 1368 1370
f 1368 334 1369
f 1369 335 1370
f 1368 1369 1370
f 332 1370 1365
f 1370 335 1371
f 1371 333 1365
f 1370 1371 1365
f 334 1372 1374
f 1372 336 1373
f 1373 337 1374
f 1372 1373 1374
f 334 1374 1369
f 1374 337 1375
f 1375 335 1369
f 1374 1375 1369
f 336 1376 1378
f 1376 338 1377
f 1377 339 1378
f 1376 1377 1378
f 336 1378 1373
f 1378 339 1379
f 1379 337 1373
f 1378 1379 1373
f 338 1380 1382
f 1380 340 1381
f 1381 341 1382
f 1380 1381 1382
f 338 1382 1377
f 1382 341 1383
f 1383 339 1377
f 1382 1383 1377
f 340 1384 1386
f 1384 342 1385
f 1385 343 1386
f 1384 1385 1386
f 340 1386 1381
f 1386 343 1387
f 1387 341 1381
f 1386 1387 1381
f 342 1388 1390
f 1388 344 1389
f 1389 345 1390
f 1388 1389 1390
f 342 1390 1385
f 1390 345 1391
f 1391 343 1385
f 1390 1391 1385
f 344 1392 1394
f 1392 346 1393
f 1393 347 1394
f 1392 1393 1394
f 344 1394 1389
f 1394 347 1395
f 1395 345 1389
f 1394 1395 1389
f 346 1396 1398
f 1396 348 1397
f 1397 349 1398
f 1396 1397 1398
f 346 1398 1393
f 1398 349 1399
f 1399 347 1393
f 1398 1399 1393
f 348 1400 1402
f 1400 350 1401
f 1401 351 1402
f 1400 1401 1402
f 348 1402 1397
f 1402 351 1403
f 1403 349 1397
f 1402 1403 1397
f 350 1404 1405
f 1404 318 1343
f 1343 321 1405
f 1404 1343 1405
f 350 1405 1401
f 1405 321 1406
f 1406 351 1401
f 1405 1406 1401
f 336 1407 1376
f 1407 340 1380
f 1380 338 1376
f 1407 1380 1376
f 332 1408 1368
f 1408 336 1372
f 1372 334 1368
f 1408 1372 1368
f 332 1409 1408
f 1409 340 1407
f 1407 336 1408
f 1409 1407 1408
f 350 1410 1404
f 1410 319 1339
f 1339 318 1404
f 1410 1339 1404
f 348 1411 1400
f 1411 319 1410
f 1410 350 1400
f 1411 1410 1400
f 346 1412 1396
f 1412 319 1411
f 1411 348 1396
f 1412 1411 1396
f 344 1413 1392
f 1413 319 1412
f 1412 346 1392
f 1413 1412 1392
f 344 1414 1413
f 1414 322 1344
f 1344 319 1413
f 1414 1344 1413
f 344 1415 1414
f 1415 324 1348
f 1348 322 1414
f 1415 1348 1414
f 342 1416 1388
f 1416 324 1415
f 1415 344 1388
f 1416 1415 1388
f 342 1417 1416
f 1417 326 1352
f 1352 324 1416
f 1417 1352 1416
f 342 1418 1417
f 1418 328 1356
f 1356 326 1417
f 1418 1356 1417
f 342 1419 1418
f 1419 330 1360
f 1360 328 1418
f 1419 1360 1418
f 332 1420 1409
f 1420 342 1384
f 1384 340 1409
f 1420 1384 1409
f 330 1419 1364
f 1419 342 1420
f 1420 332 1364
f 1419 1420 1364
f 337 1379 1421
f 1379 339 1383
f 1383 341 1421
f 1379 1383 1421
f 333 1371 1422
f 1371 335 1375
f 1375 337 1422
f 1371 1375 1422
f 333 1422 1423
f 1422 337 1421
f 1421 341 1423
f 1422 1421 1423
f 351 1406 1424
f 1406 321 1342
f 1342 320 1424
f 1406 1342 1424
f 349 1403 1425
f 1403 351 1424
f 1424 320 1425
f 1403 1424 1425
f 347 1399 1426
f 1399 349 1425
f 1425 320 1426
f 1399 1425 1426
f 345 1395 1427
f 1395 347 1426
f 1426 320 1427
f 1395 1426 1427
f 345 1427 1428
f 1427 320 1347
f 1347 323 1428
f 1427 1347 1428
f 345 1428 1429
f 1428 323 1351
f 1351 325 1429
f 1428 1351 1429
f 343 1391 1430
f 1391 345 1429
f 1429 325 1430
f 1391 1429 1430
f 343 1430 1431
f 1430 325 1355
f 1355 327 1431
f 1430 1355 1431
f 343 1431 1432
f 1431 327 1359
f 1359 329 1432
f 1431 1359 1432
f 343 1432 1433
f 1432 329 1363
f 1363 331 1433
f 1432 1363 1433
f 333 1423 1434
f 1423 341 1387
f 1387 343 1434
f 1423 1387 1434
f 331 1367 1433
f 1367 333 1434
f 1434 343 1433
f 1367 1434 1433
f 352 1435 1437
f 1435 353 1436
f 1436 354 1437
f 1435 1436 1437
f 354 1438 1437
f 1438 355 1439
f 1439 352 1437
f 1438 1439 1437
f 356 1440 1442
f 1440 357 1441
f 1441 358 1442
f 1440 1441 1442
f 358 1443 1442
f 1443 359 1444
f 1444 356 1442
f 1443 1444 1442
f 352 1439 1446
f 1439 355 1445
f 1445 357 1446
f 1439 1445 1446
f 357 1440 1446
f 1440 356 1447
f 1447 352 1446
f 1440 1447 1446
f 355 1438 1449
f 1438 354 1448
f 1448 358 1449
f 1438 1448 1449
f 358 1441 1449
f 1441 357 1445
f 1445 355 1449
f 1441 1445 1449
f 354 1436 1451
f 1436 353 1450
f 1450 359 1451
f 1436 1450 1451
f 359 1443 1451
f 1443 358 1448
f 1448 354 1451
f 1443 1448 1451
f 353 1435 1452
f 1435 352 1447
f 1447 356 1452
f 1435 1447 1452
f 356 1444 1452
f 1444 359 1450
f 1450 353 1452
f 1444 1450 1452
f 360 1453 1455
f 1453 361 1454
f 1454 362 1455
f 1453 1454 1455
f 360 1455 1457
f 1455 362 1456
f 1456 363 1457
f 1455 1456 1457
f 360 1457 1459
f 1457 363 1458
f 1458 364 1459
f 1457 1458 1459
f 360 1459 1461
f 1459 364 1460
f 1460 365 1461
f 1459 1460 1461
f 360 1462 1464
f 1462 366 1463
f 1463 367 1464
f 1462 1463 1464
f 360 1464 1466
f 1464 367 1465
f 1465 368 1466
f 1464 1465 1466
f 360 1466 1468
f 1466 368 1467
f 1467 369 1468
f 1466 1467 1468
f 360 1468 1453
f 1468 369 1469
f 1469 361 1453
f 1468 1469 1453
f 361 1470 1472
f 1470 370 1471
f 1471 371 1472
f 1470 1471 1472
f 361 1472 1454
f 1472 371 1473
f 1473 362 1454
f 1472 1473 1454
f 362 1473 1475
f 1473 371 1474
f 1474 372 1475
f 1473 1474 1475
f 362 1475 1456
f 1475 372 1476
f 1476 363 1456
f 1475 1476 1456
f 363 1476 1478
f 1476 372 1477
f 1477 373 1478
f 1476 1477 1478
f 363 1478 1458
f 1478 373 1479
f 1479 364 1458
f 1478 1479 1458
f 364 1479 1481
f 1479 373 1480
f 1480 374 1481
f 1479 1480 1481
f 364 1481 1460
f 1481 374 1482
f 1482 365 1460
f 1481 1482 1460
f 366 1483 1485
f 1483 375 1484
f 1484 376 1485
f 1483 1484 1485
f 366 1485 1463
f 1485 376 1486
f 1486 367 1463
f 1485 1486 1463
f 367 1486 1488
f 1486 376 1487
f 1487 377 1488
f 1486 1487 1488
f 367 1488 1465
f 1488 377 1489
f 1489 368 1465
f 1488 1489 1465
f 368 1489 1491
f 1489 377 1490
f 1490 378 1491
f 1489 1490 1491
f 368 1491 1467
f 1491 378 1492
f 1492 369 1467
f 1491 1492 1467
f 369 1492 1494
f 1492 378 1493
f 1493 370 1494
f 1492 1493 1494
f 369 1494 1469
f 1494 370 1470
f 1470 361 1469
f 1494 1470 1469
f 370 1495 1497
f 1495 379 1496
f 1496 380 1497
f 1495 1496 1497
f 370 1497 1471
f 1497 380 1498
f 1498 371 1471
f 1497 1498 1471
f 371 1498 1500
f 1498 380 1499
f 1499 381 1500
f 1498 1499 1500
f 371 1500 1474
f 1500 381 1501
f 1501 372 1474
f 1500 1501 1474
f 372 1501 1503
f 1501 381 1502
f 1502 382 1503
f 1501 1502 1503
f 372 1503 1477
f 1503 382 1504
f 1504 373 1477
f 1503 1504 1477
f 373 1504 1506
f 1504 382 1505
f 1505 383 1506
f 1504 1505 1506
f 373 1506 1480
f 1506 383 1507
f 1507 374 1480
f 1506 1507 1480
f 375 1508 1510
f 1508 384 1509
f 1509 385 1510
f 1508 1509 1510
f 375 1510 1484
f 1510 385 1511
f 1511 376 1484
f 1510 1511 1484
f 376 1511 1513
f 1511 385 1512
f 1512 386 1513
f 1511 1512 1513
f 376 1513 1487
f 1513 386 1514
f 1514 377 1487
f 1513 1514 1487
f 377 1514 1516
f 1514 386 1515
f 1515 387 1516
f 1514 1515 1516
f 377 1516 1490
f 1516 387 1517
f 1517 378 1490
f 1516 1517 1490
f 378 1517 1519
f 1517 387 1518
f 1518 379 1519
f 1517 1518 1519
f 378 1519 1493
f 1519 379 1495
f 1495 370 1493
f 1519 1495 1493
f 388 1520 1521
f 1520 380 1496
f 1496 379 1521
f 1520 1496 1521
f 388 1522 1520
f 1522 381 1499
f 1499 380 1520
f 1522 1499 1520
f 388 1523 1522
f 1523 382 1502
f 1502 381 1522
f 1523 1502 1522
f 388 1524 1523
f 1524 383 1505
f 1505 382 1523
f 1524 1505 1523
f 388 1525 1526
f 1525 385 1509
f 1509 384 1526
f 1525 1509 1526
f 388 1527 1525
f 1527 386 1512
f 1512 385 1525
f 1527 1512 1525
f 388 1528 1527
f 1528 387 1515
f 1515 386 1527
f 1528 1515 1527
f 388 1521 1528
f 1521 379 1518
f 1518 387 1528
f 1521 1518 1528
f 389 1529 1531
f 1529 390 1530
f 1530 391 1531
f 1529 1530 1531
f 391 1530 1533
f 1530 390 1532
f 1532 392 1533
f 1530 1532 1533
f 392 1532 1535
f 1532 390 1534
f 1534 393 1535
f 1532 1534 1535
f 393 1534 1537
f 1534 390 1536
f 1536 394 1537
f 1534 1536 1537
f 395 1538 1540
f 1538 390 1539
f 1539 396 1540
f 1538 1539 1540
f 396 1539 1542
f 1539 390 1541
f 1541 397 1542
f 1539 1541 1542
f 397 1541 1544
f 1541 390 1543
f 1543 398 1544
f 1541 1543 1544
f 398 1543 1545
f 1543 390 1529
f 1529 389 1545
f 1543 1529 1545
f 399 1546 1548
f 1546 389 1547
f 1547 400 1548
f 1546 1547 1548
f 400 1547 1549
f 1547 389 1531
f 1531 391 1549
f 1547 1531 1549
f 400 1549 1551
f 1549 391 1550
f 1550 401 1551
f 1549 1550 1551
f 401 1550 1552
f 1550 391 1533
f 1533 392 1552
f 1550 1533 1552
f 401 1552 1554
f 1552 392 1553
f 1553 402 1554
f 1552 1553 1554
f 402 1553 1555
f 1553 392 1535
f 1535 393 1555
f 1553 1535 1555
f 402 1555 1557
f 1555 393 1556
f 1556 403 1557
f 1555 1556 1557
f 403 1556 1558
f 1556 393 1537
f 1537 394 1558
f 1556 1537 1558
f 404 1559 1561
f 1559 395 1560
f 1560 405 1561
f 1559 1560 1561
f 405 1560 1562
f 1560 395 1540
f 1540 396 1562
f 1560 1540 1562
f 405 1562 1564
f 1562 396 1563
f 1563 406 1564
f 1562 1563 1564
f 406 1563 1565
f 1563 396 1542
f 1542 397 1565
f 1563 1542 1565
f 406 1565 1567
f 1565 397 1566
f 1566 407 1567
f 1565 1566 1567
f 407 1566 1568
f 1566 397 1544
f 1544 398 1568
f 1566 1544 1568
f 407 1568 1570
f 1568 398 1569
f 1569 399 1570
f 1568 1569 1570
f 399 1569 1546
f 1569 398 1545
f 1545 389 1546
f 1569 1545 1546
f 408 1571 1573
f 1571 399 1572
f 1572 409 1573
f 1571 1572 1573
f 409 1572 1574
f 1572 399 1548
f 1548 400 1574
f 1572 1548 1574
f 409 1574 1576
f 1574 400 1575
f 1575 410 1576
f 1574 1575 1576
f 410 1575 1577
f 1575 400 1551
f 1551 401 1577
f 1575 1551 1577
f 410 1577 1579
f 1577 401 1578
f 1578 411 1579
f 1577 1578 1579
f 411 1578 1580
f 1578 401 1554
f 1554 402 1580
f 1578 1554 1580
f 411 1580 1582
f 1580 402 1581
f 1581 412 1582
f 1580 1581 1582
f 412 1581 1583
f 1581 402 1557
f 1557 403 1583
f 1581 1557 1583
f 413 1584 1586
f 1584 404 1585
f 1585 414 1586
f 1584 1585 1586
f 414 1585 1587
f 1585 404 1561
f 1561 405 1587
f 1585 1561 1587
f 414 1587 1589
f 1587 405 1588
f 1588 415 1589
f 1587 1588 1589
f 415 1588 1590
f 1588 405 1564
f 1564 406 1590
f 1588 1564 1590
f 415 1590 1592
f 1590 406 1591
f 1591 416 1592
f 1590 1591 1592
f 416 1591 1593
f 1591 406 1567
f 1567 407 1593
f 1591 1567 1593
f 416 1593 1595
f 1593 407 1594
f 1594 408 1595
f 1593 1594 1595
f 408 1594 1571
f 1594 407 1570
f 1570 399 1571
f 1594 1570 1571
f 409 1596 1573
f 1596 417 1597
f 1597 408 1573
f 1596 1597 1573
f 410 1598 1576
f 1598 417 1596
f 1596 409 1576
f 1598 1596 1576
f 411 1599 1579
f 1599 417 1598
f 1598 410 1579
f 1599 1598 1579
f 412 1600 1582
f 1600 417 1599
f 1599 411 1582
f 1600 1599 1582
f 414 1601 1586
f 1601 417 1602
f 1602 413 1586
f 1601 1602 1586
f 415 1603 1589
f 1603 417 1601
f 1601 414 1589
f 1603 1601 1589
f 416 1604 1592
f 1604 417 1603
f 1603 415 1592
f 1604 1603 1592
f 408 1597 1595
f 1597 417 1604
f 1604 416 1595
f 1597 1604 1595
