# After translation (centering): m1675.obj
# Applied area-weighted barycenter centering
# Shape moved to origin
# Generated on 2025-10-13 17:20:45

v 0.146808 0.172497 0.002291
v 0.146814 0.050879 0.002291
v 0.060823 -0.035124 0.002291
v 0.060808 0.258492 0.002291
v -0.060810 0.258491 0.002291
v -0.146820 0.172468 0.002291
v -0.146802 0.050850 0.002291
v -0.060795 -0.035137 0.002291
v -0.060810 0.258491 0.004093
v 0.060808 0.258492 0.004093
v 0.146808 0.172497 0.004093
v 0.146814 0.050879 0.004093
v 0.060823 -0.035124 0.004093
v -0.060795 -0.035137 0.004093
v -0.146802 0.050850 0.004092
v -0.146820 0.172468 0.004092
v -0.009011 -0.691508 0.002118
v 0.009005 -0.691508 0.002118
v 0.009005 0.173288 0.002118
v -0.009011 0.173288 0.002118
v 0.009005 -0.691508 -0.015899
v -0.009011 -0.691508 -0.015899
v -0.009011 0.173288 -0.015899
v 0.009005 0.173288 -0.015899
v 0.140187 0.169754 0.003643
v 0.058066 0.251871 0.003642
v -0.058067 0.251870 0.003642
v 0.140193 0.053621 0.003643
v 0.058080 -0.028504 0.003642
v -0.058053 -0.028515 0.003642
v -0.140182 0.053594 0.003642
v -0.140198 0.169726 0.003642
v 0.060808 0.258492 0.003642
v -0.060810 0.258491 0.003642
v 0.146808 0.172497 0.003643
v 0.146814 0.050879 0.003643
v 0.060823 -0.035124 0.003642
v -0.060795 -0.035137 0.003642
v -0.146802 0.050850 0.003642
v -0.146820 0.172468 0.003642
v 0.146811 0.111688 0.002291
v 0.103819 0.007877 0.002291
v 0.103816 0.068686 0.002291
v 0.103808 0.215494 0.002291
v 0.060816 0.111684 0.002291
v -0.000001 0.258491 0.002291
v 0.000007 0.111683 0.002291
v -0.103815 0.215479 0.002291
v -0.042998 0.068672 0.002291
v -0.146811 0.111659 0.002291
v -0.042989 0.007863 0.002291
v -0.103798 0.007856 0.002291
v 0.000014 -0.035131 0.002291
v -0.060810 0.258491 0.003192
v -0.000001 0.258491 0.003192
v 0.060808 0.258492 0.003192
v -0.000001 0.258491 0.004093
v 0.103808 0.215494 0.003192
v 0.146808 0.172497 0.003192
v 0.103808 0.215494 0.004093
v 0.146811 0.111688 0.003192
v 0.146814 0.050879 0.003192
v 0.146811 0.111688 0.004093
v 0.103819 0.007877 0.003192
v 0.060823 -0.035124 0.003192
v 0.103819 0.007877 0.004093
v 0.000014 -0.035131 0.003192
v -0.060795 -0.035137 0.003192
v 0.000014 -0.035131 0.004093
v -0.103798 0.007856 0.003192
v -0.146802 0.050850 0.003192
v -0.103798 0.007856 0.004093
v -0.146811 0.111659 0.003192
v -0.146820 0.172468 0.003192
v -0.146811 0.111659 0.004092
v -0.103815 0.215479 0.003192
v -0.103815 0.215479 0.004093
v -0.000003 -0.691508 0.002118
v 0.009005 -0.259110 0.002118
v -0.000003 -0.259110 0.002118
v -0.009011 -0.259110 0.002118
v -0.000003 0.173288 0.002118
v -0.000003 -0.691508 -0.015899
v -0.009011 -0.259110 -0.015899
v -0.000003 -0.259110 -0.015899
v 0.009005 -0.259110 -0.015899
v -0.000003 0.173288 -0.015899
v -0.009011 -0.691508 -0.006890
v -0.009011 -0.259110 -0.006890
v -0.009011 0.173288 -0.006890
v 0.009005 -0.691508 -0.006890
v 0.009005 -0.259110 -0.006890
v 0.009005 0.173288 -0.006890
v 0.099127 0.210812 0.003643
v -0.000000 0.251870 0.003642
v 0.041060 0.210812 0.003643
v 0.140190 0.111687 0.003643
v 0.041063 0.152745 0.003643
v 0.099137 0.012558 0.003643
v 0.000007 0.111683 0.003642
v 0.000014 -0.028510 0.003642
v -0.058060 0.111677 0.003642
v -0.099117 0.012539 0.003642
v -0.099124 0.152732 0.003642
v -0.140190 0.111660 0.003642
v -0.099132 0.210798 0.003642
v 0.059437 0.255181 0.003642
v 0.001371 0.255181 0.003642
v -0.059438 0.255180 0.003642
v -0.000001 0.258491 0.003642
v 0.143498 0.171125 0.003643
v 0.102437 0.212184 0.003643
v 0.103808 0.215494 0.003643
v 0.143504 0.052250 0.003643
v 0.143501 0.110316 0.003643
v 0.146811 0.111688 0.003643
v 0.059452 -0.031814 0.003642
v 0.100508 0.009248 0.003643
v 0.103819 0.007877 0.003643
v -0.059424 -0.031826 0.003642
v -0.001357 -0.031821 0.003642
v 0.000014 -0.035131 0.003642
v -0.143492 0.052222 0.003642
v -0.102427 0.011167 0.003642
v -0.103798 0.007856 0.003642
v -0.143509 0.171097 0.003642
v -0.143501 0.113031 0.003642
v -0.146811 0.111659 0.003642
v -0.100504 0.214108 0.003642
v -0.103815 0.215479 0.003642
v 0.146810 0.142092 0.002291
v 0.125314 0.090187 0.002291
v 0.125312 0.120592 0.002291
v 0.146813 0.081283 0.002291
v 0.125317 0.029378 0.002291
v 0.125315 0.059783 0.002291
v 0.082321 -0.013623 0.002291
v 0.082320 0.016781 0.002291
v 0.103817 0.038282 0.002291
v 0.082308 0.236993 0.002291
v 0.082312 0.163589 0.002291
v 0.060812 0.185088 0.002291
v 0.125308 0.193996 0.002291
v 0.103812 0.142090 0.002291
v 0.060820 0.038280 0.002291
v 0.082316 0.090185 0.002291
v -0.030405 0.258491 0.002291
v 0.000003 0.185087 0.002291
v -0.030401 0.185087 0.002291
v 0.030404 0.258492 0.002291
v 0.030408 0.185088 0.002291
v 0.030415 0.038280 0.002291
v 0.030411 0.111684 0.002291
v -0.125317 0.193974 0.002291
v -0.073406 0.142076 0.002291
v -0.094909 0.120570 0.002291
v -0.082312 0.236985 0.002291
v -0.051904 0.163581 0.002291
v 0.008913 0.016774 0.002291
v -0.021496 0.090178 0.002291
v -0.146806 0.081254 0.002291
v -0.094900 0.059761 0.002291
v -0.094895 0.029356 0.002291
v -0.146815 0.142063 0.002291
v -0.094904 0.090165 0.002291
v 0.008917 -0.013631 0.002291
v -0.042994 0.038267 0.002291
v -0.082296 -0.013640 0.002291
v -0.051892 -0.013637 0.002291
v -0.030390 -0.035134 0.002291
v -0.125300 0.029353 0.002291
v -0.073394 0.007860 0.002291
v 0.030419 -0.035127 0.002291
v -0.021487 -0.013634 0.002291
v -0.000001 0.258491 0.002742
v 0.030404 0.258492 0.002742
v -0.060810 0.258491 0.002742
v -0.030405 0.258491 0.002742
v -0.060810 0.258491 0.003643
v -0.030405 0.258491 0.003643
v -0.030405 0.258491 0.003192
v 0.060808 0.258492 0.003643
v 0.030404 0.258492 0.003643
v 0.030404 0.258492 0.004093
v 0.060808 0.258492 0.002742
v 0.030404 0.258492 0.003192
v -0.030405 0.258491 0.004093
v -0.000001 0.258491 0.003643
v 0.103808 0.215494 0.002742
v 0.125308 0.193996 0.002742
v 0.082308 0.236993 0.002742
v 0.082308 0.236993 0.003643
v 0.082308 0.236993 0.003192
v 0.146808 0.172497 0.003643
v 0.125308 0.193996 0.003643
v 0.125308 0.193996 0.004093
v 0.146808 0.172497 0.002742
v 0.125308 0.193996 0.003192
v 0.082308 0.236993 0.004093
v 0.103808 0.215494 0.003643
v 0.146811 0.111688 0.002742
v 0.146813 0.081283 0.002742
v 0.146810 0.142092 0.002742
v 0.146810 0.142092 0.003643
v 0.146810 0.142092 0.003192
v 0.146814 0.050879 0.003643
v 0.146813 0.081283 0.003643
v 0.146813 0.081283 0.004093
v 0.146814 0.050879 0.002742
v 0.146813 0.081283 0.003192
v 0.146810 0.142092 0.004093
v 0.146811 0.111688 0.003643
v 0.103819 0.007877 0.002742
v 0.082321 -0.013623 0.002742
v 0.125317 0.029378 0.002742
v 0.125317 0.029378 0.003643
v 0.125317 0.029378 0.003192
v 0.060823 -0.035124 0.003643
v 0.082321 -0.013623 0.003643
v 0.082321 -0.013623 0.004093
v 0.060823 -0.035124 0.002742
v 0.082321 -0.013623 0.003192
v 0.125317 0.029378 0.004093
v 0.103819 0.007877 0.003643
v 0.000014 -0.035131 0.002742
v -0.030390 -0.035134 0.002742
v 0.030419 -0.035127 0.002742
v 0.030419 -0.035127 0.003643
v 0.030419 -0.035127 0.003192
v -0.060795 -0.035137 0.003643
v -0.030390 -0.035134 0.003643
v -0.030390 -0.035134 0.004093
v -0.060795 -0.035137 0.002742
v -0.030390 -0.035134 0.003192
v 0.030419 -0.035127 0.004093
v 0.000014 -0.035131 0.003643
v -0.103798 0.007856 0.002742
v -0.125300 0.029353 0.002742
v -0.082296 -0.013640 0.002742
v -0.082296 -0.013640 0.003643
v -0.082296 -0.013640 0.003192
v -0.146802 0.050850 0.003642
v -0.125300 0.029353 0.003642
v -0.125300 0.029353 0.004093
v -0.146802 0.050850 0.002742
v -0.125300 0.029353 0.003192
v -0.082296 -0.013640 0.004093
v -0.103798 0.007856 0.003643
v -0.146811 0.111659 0.002742
v -0.146815 0.142063 0.002742
v -0.146806 0.081254 0.002742
v -0.146806 0.081254 0.003642
v -0.146806 0.081254 0.003192
v -0.146820 0.172468 0.003642
v -0.146815 0.142063 0.003642
v -0.146815 0.142063 0.004092
v -0.146820 0.172468 0.002742
v -0.146815 0.142063 0.003192
v -0.146806 0.081254 0.004092
v -0.146811 0.111659 0.003642
v -0.103815 0.215479 0.002742
v -0.082312 0.236985 0.002742
v -0.125317 0.193974 0.002742
v -0.125317 0.193974 0.003642
v -0.125317 0.193974 0.003192
v -0.082312 0.236985 0.003643
v -0.082312 0.236985 0.004093
v -0.082312 0.236985 0.003192
v -0.125317 0.193974 0.004093
v -0.103815 0.215479 0.003642
v -0.004507 -0.691508 0.002118
v -0.000003 -0.475309 0.002118
v -0.004507 -0.475309 0.002118
v 0.004501 -0.691508 0.002118
v 0.009005 -0.475309 0.002118
v 0.004501 -0.475309 0.002118
v 0.009005 -0.042911 0.002118
v 0.004501 -0.042911 0.002118
v 0.004501 -0.259110 0.002118
v -0.009011 -0.042911 0.002118
v -0.004507 -0.042911 0.002118
v -0.004507 0.173288 0.002118
v -0.009011 -0.475309 0.002118
v -0.004507 -0.259110 0.002118
v 0.004501 0.173288 0.002118
v -0.000003 -0.042911 0.002118
v 0.004501 -0.691508 -0.015899
v -0.000003 -0.475309 -0.015899
v 0.004501 -0.475309 -0.015899
v -0.004507 -0.691508 -0.015899
v -0.009011 -0.475309 -0.015899
v -0.004507 -0.475309 -0.015899
v -0.009011 -0.042911 -0.015899
v -0.004507 -0.042911 -0.015899
v -0.004507 -0.259110 -0.015899
v 0.009005 -0.042911 -0.015899
v 0.004501 -0.042911 -0.015899
v 0.004501 0.173288 -0.015899
v 0.009005 -0.475309 -0.015899
v 0.004501 -0.259110 -0.015899
v -0.004507 0.173288 -0.015899
v -0.000003 -0.042911 -0.015899
v -0.009011 -0.691508 -0.011394
v -0.009011 -0.475309 -0.006890
v -0.009011 -0.475309 -0.011394
v -0.009011 -0.691508 -0.002386
v -0.009011 -0.475309 -0.002386
v -0.009011 -0.042911 -0.002386
v -0.009011 -0.259110 -0.002386
v -0.009011 -0.042911 -0.011394
v -0.009011 0.173288 -0.011394
v -0.009011 -0.259110 -0.011394
v -0.009011 0.173288 -0.002386
v -0.009011 -0.042911 -0.006890
v 0.009005 -0.691508 -0.002386
v 0.009005 -0.475309 -0.006890
v 0.009005 -0.475309 -0.002386
v 0.009005 -0.691508 -0.011394
v 0.009005 -0.475309 -0.011394
v 0.009005 -0.042911 -0.011394
v 0.009005 -0.259110 -0.011394
v 0.009005 -0.042911 -0.002386
v 0.009005 0.173288 -0.002386
v 0.009005 -0.259110 -0.002386
v 0.009005 0.173288 -0.011394
v 0.009005 -0.042911 -0.006890
v 0.119657 0.190283 0.003643
v 0.070094 0.210812 0.003643
v 0.090624 0.190283 0.003643
v 0.078597 0.231342 0.003643
v 0.029033 0.251871 0.003642
v 0.049563 0.231341 0.003643
v -0.029033 0.251870 0.003642
v -0.008503 0.231341 0.003643
v 0.020530 0.231341 0.003643
v 0.140192 0.082654 0.003643
v 0.090627 0.132216 0.003643
v 0.090628 0.103183 0.003643
v 0.140189 0.140721 0.003643
v 0.090625 0.161250 0.003643
v -0.008502 0.202308 0.003643
v 0.041062 0.181779 0.003643
v 0.078609 -0.007973 0.003643
v 0.049572 0.062121 0.003643
v 0.029044 0.041589 0.003642
v 0.119665 0.033090 0.003643
v 0.070100 0.082652 0.003643
v -0.029030 0.181776 0.003642
v 0.020535 0.132214 0.003643
v -0.029019 -0.028512 0.003642
v -0.029023 0.041584 0.003642
v -0.058056 0.041581 0.003642
v 0.029047 -0.028507 0.003642
v 0.000010 0.041587 0.003642
v -0.058063 0.181774 0.003642
v -0.029026 0.111680 0.003642
v -0.119649 0.033067 0.003642
v -0.099121 0.082636 0.003642
v -0.119653 0.103163 0.003642
v -0.078585 -0.007988 0.003642
v -0.078588 0.062108 0.003642
v -0.078595 0.202301 0.003642
v -0.078592 0.132205 0.003642
v -0.140194 0.140693 0.003642
v -0.119661 0.161229 0.003642
v -0.119665 0.190262 0.003642
v -0.140186 0.082627 0.003642
v -0.119657 0.132196 0.003642
v -0.078599 0.231334 0.003642
v -0.099128 0.181765 0.003642
v 0.000685 0.253526 0.003642
v -0.028348 0.253525 0.003642
v 0.058752 0.253526 0.003642
v 0.029719 0.253526 0.003642
v 0.060123 0.256837 0.003642
v 0.031090 0.256836 0.003642
v 0.030404 0.255181 0.003642
v -0.060124 0.256836 0.003642
v -0.029719 0.256836 0.003642
v -0.030405 0.258491 0.003642
v -0.058752 0.253525 0.003642
v -0.029034 0.255181 0.003642
v 0.030404 0.258492 0.003642
v 0.000685 0.256836 0.003642
v 0.100782 0.211498 0.003643
v 0.080252 0.232027 0.003643
v 0.141843 0.170440 0.003643
v 0.121312 0.190969 0.003643
v 0.145153 0.171811 0.003643
v 0.124623 0.192340 0.003643
v 0.122968 0.191655 0.003643
v 0.081623 0.235338 0.003643
v 0.082308 0.236993 0.003643
v 0.080937 0.233683 0.003643
v 0.125308 0.193996 0.003643
v 0.103123 0.213839 0.003643
v 0.141846 0.111002 0.003643
v 0.141844 0.140035 0.003643
v 0.141849 0.052935 0.003643
v 0.141847 0.081969 0.003643
v 0.145159 0.051564 0.003643
v 0.145158 0.080598 0.003643
v 0.143502 0.081283 0.003643
v 0.145155 0.141407 0.003643
v 0.146810 0.142092 0.003643
v 0.143499 0.140721 0.003643
v 0.146813 0.081283 0.003643
v 0.145156 0.111002 0.003643
v 0.099823 0.010903 0.003643
v 0.120351 0.031435 0.003643
v 0.058766 -0.030159 0.003642
v 0.079294 -0.009628 0.003643
v 0.060138 -0.033469 0.003642
v 0.080666 -0.012938 0.003643
v 0.079980 -0.011283 0.003643
v 0.123661 0.030064 0.003643
v 0.125317 0.029378 0.003643
v 0.122006 0.030749 0.003643
v 0.082321 -0.013623 0.003643
v 0.102164 0.008563 0.003643
v -0.000672 -0.030165 0.003642
v 0.028362 -0.030162 0.003642
v -0.058738 -0.030171 0.003642
v -0.029705 -0.030168 0.003642
v -0.060109 -0.033482 0.003642
v -0.031076 -0.033479 0.003642
v -0.030390 -0.031823 0.003642
v 0.029733 -0.033472 0.003642
v 0.030419 -0.035127 0.003642
v 0.029047 -0.031817 0.003642
v -0.030390 -0.035134 0.003642
v -0.000671 -0.033476 0.003642
v -0.100772 0.011853 0.003642
v -0.080240 -0.008674 0.003642
v -0.141837 0.052908 0.003642
v -0.121304 0.032381 0.003642
v -0.145147 0.051536 0.003642
v -0.124614 0.031009 0.003642
v -0.122959 0.031695 0.003642
v -0.081611 -0.011985 0.003642
v -0.082296 -0.013640 0.003642
v -0.080925 -0.010329 0.003642
v -0.125300 0.029353 0.003642
v -0.103113 0.009512 0.003642
v -0.141845 0.112345 0.003642
v -0.141841 0.083312 0.003642
v -0.141853 0.170411 0.003642
v -0.141849 0.141378 0.003642
v -0.145164 0.171782 0.003642
v -0.145160 0.142749 0.003642
v -0.143505 0.142064 0.003642
v -0.145151 0.081940 0.003642
v -0.146806 0.081254 0.003642
v -0.143496 0.082626 0.003642
v -0.146815 0.142063 0.003642
v -0.145156 0.112345 0.003642
v -0.099818 0.212453 0.003642
v -0.120351 0.191917 0.003642
v -0.079285 0.232989 0.003642
v -0.080657 0.236300 0.003642
v -0.079971 0.234644 0.003642
v -0.123662 0.193288 0.003642
v -0.125317 0.193974 0.003642
v -0.122006 0.192603 0.003642
v -0.082312 0.236985 0.003642
v -0.102159 0.214794 0.003642
f 1 131 133
f 131 41 132
f 132 43 133
f 131 132 133
f 41 134 136
f 134 2 135
f 135 42 136
f 134 135 136
f 42 137 139
f 137 3 138
f 138 43 139
f 137 138 139
f 41 136 132
f 136 42 139
f 139 43 132
f 136 139 132
f 4 140 142
f 140 44 141
f 141 45 142
f 140 141 142
f 44 143 144
f 143 1 133
f 133 43 144
f 143 133 144
f 43 138 146
f 138 3 145
f 145 45 146
f 138 145 146
f 44 144 141
f 144 43 146
f 146 45 141
f 144 146 141
f 5 147 149
f 147 46 148
f 148 47 149
f 147 148 149
f 46 150 151
f 150 4 142
f 142 45 151
f 150 142 151
f 45 145 153
f 145 3 152
f 152 47 153
f 145 152 153
f 46 151 148
f 151 45 153
f 153 47 148
f 151 153 148
f 6 154 156
f 154 48 155
f 155 49 156
f 154 155 156
f 48 157 158
f 157 5 149
f 149 47 158
f 157 149 158
f 47 152 160
f 152 3 159
f 159 49 160
f 152 159 160
f 48 158 155
f 158 47 160
f 160 49 155
f 158 160 155
f 7 161 163
f 161 50 162
f 162 51 163
f 161 162 163
f 50 164 165
f 164 6 156
f 156 49 165
f 164 156 165
f 49 159 167
f 159 3 166
f 166 51 167
f 159 166 167
f 50 165 162
f 165 49 167
f 167 51 162
f 165 167 162
f 8 168 170
f 168 52 169
f 169 53 170
f 168 169 170
f 52 171 172
f 171 7 163
f 163 51 172
f 171 163 172
f 51 166 174
f 166 3 173
f 173 53 174
f 166 173 174
f 52 172 169
f 172 51 174
f 174 53 169
f 172 174 169
f 4 150 176
f 150 46 175
f 175 55 176
f 150 175 176
f 46 147 178
f 147 5 177
f 177 54 178
f 147 177 178
f 54 179 181
f 179 9 180
f 180 55 181
f 179 180 181
f 46 178 175
f 178 54 181
f 181 55 175
f 178 181 175
f 10 182 184
f 182 56 183
f 183 57 184
f 182 183 184
f 56 185 186
f 185 4 176
f 176 55 186
f 185 176 186
f 55 180 188
f 180 9 187
f 187 57 188
f 180 187 188
f 56 186 183
f 186 55 188
f 188 57 183
f 186 188 183
f 1 143 190
f 143 44 189
f 189 58 190
f 143 189 190
f 44 140 191
f 140 4 185
f 185 56 191
f 140 185 191
f 56 182 193
f 182 10 192
f 192 58 193
f 182 192 193
f 44 191 189
f 191 56 193
f 193 58 189
f 191 193 189
f 11 194 196
f 194 59 195
f 195 60 196
f 194 195 196
f 59 197 198
f 197 1 190
f 190 58 198
f 197 190 198
f 58 192 200
f 192 10 199
f 199 60 200
f 192 199 200
f 59 198 195
f 198 58 200
f 200 60 195
f 198 200 195
f 2 134 202
f 134 41 201
f 201 61 202
f 134 201 202
f 41 131 203
f 131 1 197
f 197 59 203
f 131 197 203
f 59 194 205
f 194 11 204
f 204 61 205
f 194 204 205
f 41 203 201
f 203 59 205
f 205 61 201
f 203 205 201
f 12 206 208
f 206 62 207
f 207 63 208
f 206 207 208
f 62 209 210
f 209 2 202
f 202 61 210
f 209 202 210
f 61 204 212
f 204 11 211
f 211 63 212
f 204 211 212
f 62 210 207
f 210 61 212
f 212 63 207
f 210 212 207
f 3 137 214
f 137 42 213
f 213 64 214
f 137 213 214
f 42 135 215
f 135 2 209
f 209 62 215
f 135 209 215
f 62 206 217
f 206 12 216
f 216 64 217
f 206 216 217
f 42 215 213
f 215 62 217
f 217 64 213
f 215 217 213
f 13 218 220
f 218 65 219
f 219 66 220
f 218 219 220
f 65 221 222
f 221 3 214
f 214 64 222
f 221 214 222
f 64 216 224
f 216 12 223
f 223 66 224
f 216 223 224
f 65 222 219
f 222 64 224
f 224 66 219
f 222 224 219
f 8 170 226
f 170 53 225
f 225 67 226
f 170 225 226
f 53 173 227
f 173 3 221
f 221 65 227
f 173 221 227
f 65 218 229
f 218 13 228
f 228 67 229
f 218 228 229
f 53 227 225
f 227 65 229
f 229 67 225
f 227 229 225
f 14 230 232
f 230 68 231
f 231 69 232
f 230 231 232
f 68 233 234
f 233 8 226
f 226 67 234
f 233 226 234
f 67 228 236
f 228 13 235
f 235 69 236
f 228 235 236
f 68 234 231
f 234 67 236
f 236 69 231
f 234 236 231
f 7 171 238
f 171 52 237
f 237 70 238
f 171 237 238
f 52 168 239
f 168 8 233
f 233 68 239
f 168 233 239
f 68 230 241
f 230 14 240
f 240 70 241
f 230 240 241
f 52 239 237
f 239 68 241
f 241 70 237
f 239 241 237
f 15 242 244
f 242 71 243
f 243 72 244
f 242 243 244
f 71 245 246
f 245 7 238
f 238 70 246
f 245 238 246
f 70 240 248
f 240 14 247
f 247 72 248
f 240 247 248
f 71 246 243
f 246 70 248
f 248 72 243
f 246 248 243
f 6 164 250
f 164 50 249
f 249 73 250
f 164 249 250
f 50 161 251
f 161 7 245
f 245 71 251
f 161 245 251
f 71 242 253
f 242 15 252
f 252 73 253
f 242 252 253
f 50 251 249
f 251 71 253
f 253 73 249
f 251 253 249
f 16 254 256
f 254 74 255
f 255 75 256
f 254 255 256
f 74 257 258
f 257 6 250
f 250 73 258
f 257 250 258
f 73 252 260
f 252 15 259
f 259 75 260
f 252 259 260
f 74 258 255
f 258 73 260
f 260 75 255
f 258 260 255
f 5 157 262
f 157 48 261
f 261 76 262
f 157 261 262
f 48 154 263
f 154 6 257
f 257 74 263
f 154 257 263
f 74 254 265
f 254 16 264
f 264 76 265
f 254 264 265
f 48 263 261
f 263 74 265
f 265 76 261
f 263 265 261
f 9 179 267
f 179 54 266
f 266 77 267
f 179 266 267
f 54 177 268
f 177 5 262
f 262 76 268
f 177 262 268
f 76 264 270
f 264 16 269
f 269 77 270
f 264 269 270
f 54 268 266
f 268 76 270
f 270 77 266
f 268 270 266
f 17 271 273
f 271 78 272
f 272 80 273
f 271 272 273
f 78 274 276
f 274 18 275
f 275 79 276
f 274 275 276
f 79 277 279
f 277 19 278
f 278 80 279
f 277 278 279
f 78 276 272
f 276 79 279
f 279 80 272
f 276 279 272
f 20 280 282
f 280 81 281
f 281 82 282
f 280 281 282
f 81 283 284
f 283 17 273
f 273 80 284
f 283 273 284
f 80 278 286
f 278 19 285
f 285 82 286
f 278 285 286
f 81 284 281
f 284 80 286
f 286 82 281
f 284 286 281
f 21 287 289
f 287 83 288
f 288 85 289
f 287 288 289
f 83 290 292
f 290 22 291
f 291 84 292
f 290 291 292
f 84 293 295
f 293 23 294
f 294 85 295
f 293 294 295
f 83 292 288
f 292 84 295
f 295 85 288
f 292 295 288
f 24 296 298
f 296 86 297
f 297 87 298
f 296 297 298
f 86 299 300
f 299 21 289
f 289 85 300
f 299 289 300
f 85 294 302
f 294 23 301
f 301 87 302
f 294 301 302
f 86 300 297
f 300 85 302
f 302 87 297
f 300 302 297
f 22 303 305
f 303 88 304
f 304 89 305
f 303 304 305
f 88 306 307
f 306 17 283
f 283 81 307
f 306 283 307
f 81 280 309
f 280 20 308
f 308 89 309
f 280 308 309
f 88 307 304
f 307 81 309
f 309 89 304
f 307 309 304
f 23 293 311
f 293 84 310
f 310 90 311
f 293 310 311
f 84 291 312
f 291 22 305
f 305 89 312
f 291 305 312
f 89 308 314
f 308 20 313
f 313 90 314
f 308 313 314
f 84 312 310
f 312 89 314
f 314 90 310
f 312 314 310
f 18 315 317
f 315 91 316
f 316 92 317
f 315 316 317
f 91 318 319
f 318 21 299
f 299 86 319
f 318 299 319
f 86 296 321
f 296 24 320
f 320 92 321
f 296 320 321
f 91 319 316
f 319 86 321
f 321 92 316
f 319 321 316
f 19 277 323
f 277 79 322
f 322 93 323
f 277 322 323
f 79 275 324
f 275 18 317
f 317 92 324
f 275 317 324
f 92 320 326
f 320 24 325
f 325 93 326
f 320 325 326
f 79 324 322
f 324 92 326
f 326 93 322
f 324 326 322
f 25 327 329
f 327 94 328
f 328 96 329
f 327 328 329
f 94 330 332
f 330 26 331
f 331 95 332
f 330 331 332
f 95 333 335
f 333 27 334
f 334 96 335
f 333 334 335
f 94 332 328
f 332 95 335
f 335 96 328
f 332 335 328
f 28 336 338
f 336 97 337
f 337 98 338
f 336 337 338
f 97 339 340
f 339 25 329
f 329 96 340
f 339 329 340
f 96 334 342
f 334 27 341
f 341 98 342
f 334 341 342
f 97 340 337
f 340 96 342
f 342 98 337
f 340 342 337
f 29 343 345
f 343 99 344
f 344 100 345
f 343 344 345
f 99 346 347
f 346 28 338
f 338 98 347
f 346 338 347
f 98 341 349
f 341 27 348
f 348 100 349
f 341 348 349
f 99 347 344
f 347 98 349
f 349 100 344
f 347 349 344
f 30 350 352
f 350 101 351
f 351 102 352
f 350 351 352
f 101 353 354
f 353 29 345
f 345 100 354
f 353 345 354
f 100 348 356
f 348 27 355
f 355 102 356
f 348 355 356
f 101 354 351
f 354 100 356
f 356 102 351
f 354 356 351
f 31 357 359
f 357 103 358
f 358 104 359
f 357 358 359
f 103 360 361
f 360 30 352
f 352 102 361
f 360 352 361
f 102 355 363
f 355 27 362
f 362 104 363
f 355 362 363
f 103 361 358
f 361 102 363
f 363 104 358
f 361 363 358
f 32 364 366
f 364 105 365
f 365 106 366
f 364 365 366
f 105 367 368
f 367 31 359
f 359 104 368
f 367 359 368
f 104 362 370
f 362 27 369
f 369 106 370
f 362 369 370
f 105 368 365
f 368 104 370
f 370 106 365
f 368 370 365
f 27 333 372
f 333 95 371
f 371 108 372
f 333 371 372
f 95 331 374
f 331 26 373
f 373 107 374
f 331 373 374
f 107 375 377
f 375 33 376
f 376 108 377
f 375 376 377
f 95 374 371
f 374 107 377
f 377 108 371
f 374 377 371
f 34 378 380
f 378 109 379
f 379 110 380
f 378 379 380
f 109 381 382
f 381 27 372
f 372 108 382
f 381 372 382
f 108 376 384
f 376 33 383
f 383 110 384
f 376 383 384
f 109 382 379
f 382 108 384
f 384 110 379
f 382 384 379
f 26 330 386
f 330 94 385
f 385 112 386
f 330 385 386
f 94 327 388
f 327 25 387
f 387 111 388
f 327 387 388
f 111 389 391
f 389 35 390
f 390 112 391
f 389 390 391
f 94 388 385
f 388 111 391
f 391 112 385
f 388 391 385
f 33 375 393
f 375 107 392
f 392 113 393
f 375 392 393
f 107 373 394
f 373 26 386
f 386 112 394
f 373 386 394
f 112 390 396
f 390 35 395
f 395 113 396
f 390 395 396
f 107 394 392
f 394 112 396
f 396 113 392
f 394 396 392
f 25 339 398
f 339 97 397
f 397 115 398
f 339 397 398
f 97 336 400
f 336 28 399
f 399 114 400
f 336 399 400
f 114 401 403
f 401 36 402
f 402 115 403
f 401 402 403
f 97 400 397
f 400 114 403
f 403 115 397
f 400 403 397
f 35 389 405
f 389 111 404
f 404 116 405
f 389 404 405
f 111 387 406
f 387 25 398
f 398 115 406
f 387 398 406
f 115 402 408
f 402 36 407
f 407 116 408
f 402 407 408
f 111 406 404
f 406 115 408
f 408 116 404
f 406 408 404
f 28 346 410
f 346 99 409
f 409 118 410
f 346 409 410
f 99 343 412
f 343 29 411
f 411 117 412
f 343 411 412
f 117 413 415
f 413 37 414
f 414 118 415
f 413 414 415
f 99 412 409
f 412 117 415
f 415 118 409
f 412 415 409
f 36 401 417
f 401 114 416
f 416 119 417
f 401 416 417
f 114 399 418
f 399 28 410
f 410 118 418
f 399 410 418
f 118 414 420
f 414 37 419
f 419 119 420
f 414 419 420
f 114 418 416
f 418 118 420
f 420 119 416
f 418 420 416
f 29 353 422
f 353 101 421
f 421 121 422
f 353 421 422
f 101 350 424
f 350 30 423
f 423 120 424
f 350 423 424
f 120 425 427
f 425 38 426
f 426 121 427
f 425 426 427
f 101 424 421
f 424 120 427
f 427 121 421
f 424 427 421
f 37 413 429
f 413 117 428
f 428 122 429
f 413 428 429
f 117 411 430
f 411 29 422
f 422 121 430
f 411 422 430
f 121 426 432
f 426 38 431
f 431 122 432
f 426 431 432
f 117 430 428
f 430 121 432
f 432 122 428
f 430 432 428
f 30 360 434
f 360 103 433
f 433 124 434
f 360 433 434
f 103 357 436
f 357 31 435
f 435 123 436
f 357 435 436
f 123 437 439
f 437 39 438
f 438 124 439
f 437 438 439
f 103 436 433
f 436 123 439
f 439 124 433
f 436 439 433
f 38 425 441
f 425 120 440
f 440 125 441
f 425 440 441
f 120 423 442
f 423 30 434
f 434 124 442
f 423 434 442
f 124 438 444
f 438 39 443
f 443 125 444
f 438 443 444
f 120 442 440
f 442 124 444
f 444 125 440
f 442 444 440
f 31 367 446
f 367 105 445
f 445 127 446
f 367 445 446
f 105 364 448
f 364 32 447
f 447 126 448
f 364 447 448
f 126 449 451
f 449 40 450
f 450 127 451
f 449 450 451
f 105 448 445
f 448 126 451
f 451 127 445
f 448 451 445
f 39 437 453
f 437 123 452
f 452 128 453
f 437 452 453
f 123 435 454
f 435 31 446
f 446 127 454
f 435 446 454
f 127 450 456
f 450 40 455
f 455 128 456
f 450 455 456
f 123 454 452
f 454 127 456
f 456 128 452
f 454 456 452
f 32 366 458
f 366 106 457
f 457 129 458
f 366 457 458
f 106 369 459
f 369 27 381
f 381 109 459
f 369 381 459
f 109 378 461
f 378 34 460
f 460 129 461
f 378 460 461
f 106 459 457
f 459 109 461
f 461 129 457
f 459 461 457
f 40 449 463
f 449 126 462
f 462 130 463
f 449 462 463
f 126 447 464
f 447 32 458
f 458 129 464
f 447 458 464
f 129 460 466
f 460 34 465
f 465 130 466
f 460 465 466
f 126 464 462
f 464 129 466
f 466 130 462
f 464 466 462
