# Unified Preprocessed OBJ file from D00802.obj
# Applied remeshing: Yes
# Applied 4-step normalization: centering, PCA alignment, flipping, scaling
# Generated on 2025-09-29 15:09:44

v -0.015804 0.046729 0.030896
v -0.018801 0.038299 0.030856
v -0.015787 0.047014 -0.031046
v -0.018785 0.038583 -0.031085
v -0.007007 0.048349 0.030905
v -0.006991 0.048634 -0.031036
v -0.001206 0.041539 0.030876
v -0.001190 0.041824 -0.031066
v -0.004201 0.033111 0.030836
v -0.004185 0.033397 -0.031105
v -0.012997 0.031492 0.030826
v -0.012980 0.031776 -0.031115
v -0.056999 0.044419 0.030874
v -0.051196 0.037612 0.030844
v -0.051180 0.037898 -0.031097
v -0.056983 0.044705 -0.031067
v -0.042400 0.039233 0.030854
v -0.042383 0.039517 -0.031087
v -0.039402 0.047660 0.030893
v -0.039386 0.047945 -0.031048
v -0.045207 0.054470 0.030923
v -0.045190 0.054755 -0.031017
v -0.054002 0.052850 0.030913
v -0.053986 0.053135 -0.031027
v -0.058472 0.029922 -0.031524
v -0.061346 0.021836 -0.031562
v -0.061362 0.021550 0.030379
v -0.058488 0.029637 0.030417
v -0.069787 0.020281 -0.031571
v -0.069804 0.019996 0.030370
v -0.075354 0.026812 -0.031543
v -0.075370 0.026528 0.030398
v -0.072479 0.034899 -0.031505
v -0.072496 0.034613 0.030437
v -0.064039 0.036456 -0.031495
v -0.064056 0.036171 0.030446
v 0.117987 -0.031137 0.030573
v 0.122301 -0.019001 0.030630
v 0.118003 -0.030853 -0.031368
v 0.122318 -0.018715 -0.031311
v 0.105319 -0.033471 0.030559
v 0.105336 -0.033186 -0.031383
v 0.096964 -0.023667 0.030602
v 0.096980 -0.023382 -0.031339
v 0.101278 -0.011530 0.030659
v 0.101294 -0.011245 -0.031283
v 0.113946 -0.009197 0.030673
v 0.113962 -0.008912 -0.031268
v -0.177963 0.098368 0.045163
v -0.172246 0.110321 0.045220
v -0.177939 0.098782 -0.044808
v -0.172223 0.110734 -0.044751
v -0.191099 0.100112 0.045168
v -0.191075 0.100526 -0.044803
v -0.193499 0.113142 0.045227
v -0.193475 0.113556 -0.044744
v -0.181846 0.119452 0.045260
v -0.181822 0.119866 -0.044712
v -0.119041 -0.084566 0.050327
v -0.059736 -0.073643 0.050393
v -0.115970 -0.101188 0.041882
v -0.056665 -0.090266 0.041947
v -0.123912 -0.058118 0.050447
v -0.126978 -0.041420 0.042154
v -0.064607 -0.047195 0.050514
v -0.067674 -0.030495 0.042220
v -0.111725 -0.124140 0.028539
v -0.052421 -0.113214 0.028604
v -0.131213 -0.018347 0.029020
v -0.071908 -0.007424 0.029086
v -0.111711 -0.123891 -0.025579
v -0.052406 -0.112965 -0.025513
v -0.131199 -0.018098 -0.025098
v -0.071894 -0.007175 -0.025031
v -0.115948 -0.100818 -0.038713
v -0.056644 -0.089895 -0.038647
v -0.126957 -0.041050 -0.038441
v -0.067652 -0.030125 -0.038374
v -0.119015 -0.084118 -0.047010
v -0.059710 -0.073195 -0.046943
v -0.123886 -0.057670 -0.046889
v -0.064582 -0.046747 -0.046823
v 0.088476 -0.043211 0.018156
v 0.079127 -0.077226 0.026303
v 0.087094 -0.035649 0.008375
v 0.079132 -0.077143 0.008182
v 0.069146 0.001424 0.026662
v 0.069150 0.001508 0.008541
v 0.041437 0.019525 0.026738
v 0.041441 0.019609 0.008617
v -0.138927 -0.012442 0.026543
v -0.138922 -0.012359 0.008422
v -0.117563 -0.126295 0.004147
v -0.117563 -0.126290 0.003265
v -0.127164 -0.128063 0.004137
v -0.127164 -0.128059 0.003254
v -0.146665 -0.151507 0.004024
v -0.146665 -0.151503 0.003142
v -0.149851 -0.171945 0.003929
v -0.149852 -0.171941 0.003047
v -0.156747 -0.172224 0.003925
v -0.156747 -0.172220 0.003044
v -0.156266 -0.153276 0.004013
v -0.156266 -0.153271 0.003131
v -0.145427 -0.120510 0.004167
v -0.145427 -0.120506 0.003284
v -0.157807 -0.091028 0.004299
v -0.157807 -0.091024 0.003417
v -0.156468 -0.065967 0.004415
v -0.156468 -0.065962 0.003533
v -0.151220 -0.035323 0.026434
v -0.151215 -0.035240 0.008313
v -0.172364 -0.028301 0.026461
v -0.172359 -0.028218 0.008340
v -0.191086 -0.012890 0.026527
v -0.191081 -0.012806 0.008406
v -0.219541 0.014989 0.026648
v -0.219536 0.015072 0.008527
v -0.302362 0.194182 0.027450
v -0.302357 0.194265 0.009329
v -0.150678 0.222203 0.027619
v -0.150674 0.222287 0.009498
v -0.118607 0.207402 0.027560
v -0.118603 0.207489 0.009439
v -0.120717 0.141975 0.027258
v -0.120712 0.142058 0.009137
v -0.114548 0.075629 0.026955
v -0.114543 0.075712 0.008834
v -0.060882 0.060084 0.026898
v -0.060877 0.060167 0.008777
v -0.011475 0.067542 0.026945
v -0.011470 0.067625 0.008824
v 0.031270 0.040676 0.026833
v 0.031275 0.040760 0.008712
v 0.046628 0.043504 0.026850
v 0.046633 0.043588 0.008729
v 0.115479 0.000604 0.026671
v 0.115483 0.000687 0.008550
v 0.159967 0.013066 0.026740
v 0.159972 0.013150 0.008619
v 0.176845 0.002279 0.026695
v 0.176850 0.002363 0.008574
v 0.329966 0.030486 0.026865
v 0.329971 0.030570 0.008744
v 0.340098 0.029374 0.026863
v 0.340103 0.029458 0.008742
v 0.361269 0.011437 0.026786
v 0.361274 0.011521 0.008665
v 0.689942 0.063570 0.018807
v 0.688263 0.072746 0.009034
v 0.063326 -0.085348 0.017955
v 0.695952 0.030954 0.018659
v 0.064988 -0.094312 0.008100
v 0.697636 0.021868 0.008802
v 0.087099 -0.035566 -0.009742
v 0.079136 -0.077059 -0.009936
v 0.069155 0.001591 -0.009577
v 0.041446 0.019692 -0.009501
v -0.138917 -0.012275 -0.009695
v -0.117561 -0.126250 -0.005573
v -0.127161 -0.128018 -0.005584
v -0.146663 -0.151463 -0.005697
v -0.149849 -0.171900 -0.005792
v -0.156746 -0.172177 -0.005795
v -0.156263 -0.153231 -0.005708
v -0.145424 -0.120466 -0.005554
v -0.157805 -0.090983 -0.005421
v -0.156466 -0.065922 -0.005306
v -0.151210 -0.035157 -0.009804
v -0.172354 -0.028135 -0.009778
v -0.191077 -0.012723 -0.009712
v -0.219531 0.015155 -0.009591
v -0.302352 0.194349 -0.008789
v -0.150669 0.222370 -0.008619
v -0.118598 0.207569 -0.008679
v -0.120707 0.142142 -0.008980
v -0.114538 0.075795 -0.009284
v -0.060872 0.060250 -0.009341
v -0.011465 0.067708 -0.009294
v 0.031280 0.040843 -0.009406
v 0.046638 0.043671 -0.009389
v 0.115488 0.000771 -0.009568
v 0.159977 0.013233 -0.009499
v 0.176855 0.002446 -0.009544
v 0.329976 0.030653 -0.009373
v 0.340107 0.029541 -0.009376
v 0.361279 0.011604 -0.009453
v 0.688268 0.072830 -0.009084
v 0.064993 -0.094229 -0.010018
v 0.697638 0.021952 -0.009315
v 0.088486 -0.043037 -0.019592
v 0.079141 -0.076976 -0.028054
v 0.069160 0.001674 -0.027694
v 0.041451 0.019775 -0.027619
v -0.138913 -0.012192 -0.027814
v -0.117561 -0.126246 -0.006458
v -0.127161 -0.128014 -0.006469
v -0.146663 -0.151458 -0.006582
v -0.149849 -0.171896 -0.006676
v -0.156745 -0.172175 -0.006680
v -0.156263 -0.153227 -0.006593
v -0.145424 -0.120461 -0.006439
v -0.157804 -0.090979 -0.006306
v -0.156466 -0.065918 -0.006191
v -0.151205 -0.035073 -0.027922
v -0.172349 -0.028051 -0.027895
v -0.191072 -0.012639 -0.027830
v -0.219526 0.015239 -0.027709
v -0.302347 0.194432 -0.026906
v -0.150664 0.222454 -0.026737
v -0.118593 0.207653 -0.026797
v -0.120703 0.142225 -0.027098
v -0.114533 0.075879 -0.027402
v -0.060867 0.060333 -0.027459
v -0.011460 0.067791 -0.027412
v 0.031285 0.040926 -0.027524
v 0.046642 0.043755 -0.027507
v 0.115493 0.000854 -0.027686
v 0.159982 0.013316 -0.027617
v 0.176860 0.002529 -0.027662
v 0.329981 0.030737 -0.027491
v 0.340112 0.029624 -0.027493
v 0.361283 0.011688 -0.027570
v 0.689952 0.063743 -0.018941
v 0.063336 -0.085174 -0.019792
v 0.695964 0.031128 -0.019089
v 0.692925 0.047377 0.016561
v 0.695595 0.032957 0.008004
v 0.695603 0.033032 -0.008974
v 0.690266 0.061878 0.008135
v 0.690271 0.061956 -0.008843
v 0.692935 0.047533 -0.017400
v 0.104120 -0.075998 0.007345
v 0.101464 -0.061421 -0.018058
v 0.104124 -0.075920 -0.009633
v 0.098797 -0.046998 -0.009501
v 0.101454 -0.061577 0.015902
v 0.098793 -0.047076 0.007477
v -0.154902 0.217226 0.038096
v -0.301025 0.190626 0.037935
v -0.154882 0.217576 -0.038004
v -0.301004 0.190976 -0.038166
v -0.125146 0.204441 0.038045
v -0.125125 0.204791 -0.038056
v -0.128401 0.135341 0.037726
v -0.128381 0.135691 -0.038375
v -0.128788 0.090210 0.037518
v -0.128768 0.090561 -0.038582
v -0.149438 0.069815 0.037419
v -0.149417 0.070165 -0.038681
v -0.119968 0.039320 0.037287
v -0.119947 0.039670 -0.038814
v -0.142053 0.035252 0.037262
v -0.142033 0.035602 -0.038838
v -0.192097 0.059673 0.037361
v -0.192076 0.060024 -0.038739
v -0.232813 0.051695 0.037313
v -0.232792 0.052045 -0.038787
v -0.058474 -0.045774 0.050244
v -0.053763 -0.071918 0.050125
v -0.061590 -0.028808 0.042251
v -0.050737 -0.088297 0.041980
v 0.046243 -0.026485 0.050361
v 0.043127 -0.009518 0.042368
v 0.052651 -0.030235 0.050345
v 0.068194 -0.016126 0.042344
v 0.058641 -0.039611 0.050301
v 0.076566 -0.038437 0.042244
v 0.054182 -0.048136 0.050263
v 0.068978 -0.057371 0.042155
v 0.052228 -0.052812 0.050241
v 0.055349 -0.069703 0.042094
v -0.065479 -0.007611 0.029128
v -0.046585 -0.110744 0.028659
v 0.039234 0.011678 0.029245
v 0.065704 -0.002527 0.029187
v 0.082817 -0.039924 0.029019
v 0.071650 -0.071797 0.028870
v 0.059245 -0.090778 0.028779
v -0.065465 -0.007360 -0.025497
v -0.046571 -0.110492 -0.025966
v 0.039249 0.011929 -0.025380
v 0.065718 -0.002276 -0.025439
v 0.082832 -0.039673 -0.025606
v 0.071664 -0.071546 -0.025756
v 0.059259 -0.090527 -0.025846
v -0.061569 -0.028435 -0.038812
v -0.050716 -0.087924 -0.039083
v 0.043148 -0.009146 -0.038695
v 0.068215 -0.015753 -0.038719
v 0.076587 -0.038064 -0.038819
v 0.068999 -0.056998 -0.038909
v 0.055370 -0.069330 -0.038969
v -0.058448 -0.045327 -0.046956
v -0.053737 -0.071471 -0.047075
v 0.046268 -0.026037 -0.046839
v 0.052677 -0.029788 -0.046855
v 0.058666 -0.039164 -0.046897
v 0.054208 -0.047688 -0.046937
v 0.052254 -0.052364 -0.046959
v -0.017302 0.042514 0.030876
v -0.017294 0.042656 -0.000095
v -0.015795 0.046871 -0.000075
v -0.018793 0.038441 -0.000115
v -0.017286 0.042799 -0.031065
v -0.011405 0.047539 0.030901
v -0.011397 0.047682 -0.000070
v -0.006999 0.048492 -0.000065
v -0.011389 0.047824 -0.031041
v -0.004107 0.044944 0.030890
v -0.004099 0.045087 -0.000080
v -0.001198 0.041682 -0.000095
v -0.004090 0.045229 -0.031051
v -0.002703 0.037325 0.030856
v -0.002695 0.037468 -0.000115
v -0.004193 0.033254 -0.000135
v -0.002687 0.037610 -0.031085
v -0.008599 0.032302 0.030831
v -0.008590 0.032444 -0.000140
v -0.012989 0.031634 -0.000144
v -0.008582 0.032586 -0.031110
v -0.015899 0.034895 0.030841
v -0.015891 0.035038 -0.000129
v -0.015882 0.035180 -0.031100
v -0.007101 0.036515 0.030851
v -0.010002 0.039920 0.030866
v -0.014400 0.039110 0.030861
v -0.007085 0.036800 -0.031090
v -0.009985 0.040205 -0.031075
v -0.014384 0.039395 -0.031080
v -0.054098 0.041016 0.030859
v -0.051188 0.037755 -0.000126
v -0.054089 0.041158 -0.000111
v -0.054081 0.041301 -0.031082
v -0.056991 0.044562 -0.000096
v -0.046798 0.038423 0.030849
v -0.042392 0.039375 -0.000116
v -0.046790 0.038565 -0.000121
v -0.046781 0.038707 -0.031092
v -0.040901 0.043447 0.030874
v -0.039394 0.047803 -0.000077
v -0.040893 0.043589 -0.000097
v -0.040885 0.043731 -0.031067
v -0.042304 0.051065 0.030908
v -0.045198 0.054612 -0.000047
v -0.042296 0.051208 -0.000062
v -0.042288 0.051350 -0.031032
v -0.049604 0.053660 0.030918
v -0.053994 0.052992 -0.000057
v -0.049596 0.053802 -0.000052
v -0.049588 0.053945 -0.031022
v -0.055501 0.048635 0.030894
v -0.055493 0.048777 -0.000077
v -0.055484 0.048920 -0.031047
v -0.046702 0.050255 0.030903
v -0.048201 0.046041 0.030884
v -0.052599 0.045231 0.030879
v -0.046686 0.050540 -0.031037
v -0.048184 0.046326 -0.031057
v -0.052583 0.045516 -0.031062
v -0.059909 0.025879 -0.031543
v -0.061354 0.021693 -0.000591
v -0.059917 0.025736 -0.000572
v -0.059925 0.025594 0.030398
v -0.058480 0.029779 -0.000553
v -0.065567 0.021058 -0.031567
v -0.069795 0.020138 -0.000601
v -0.065575 0.020916 -0.000596
v -0.065583 0.020773 0.030375
v -0.072571 0.023546 -0.031557
v -0.075362 0.026670 -0.000572
v -0.072579 0.023404 -0.000586
v -0.072587 0.023262 0.030384
v -0.073917 0.030855 -0.031524
v -0.072488 0.034756 -0.000534
v -0.073925 0.030713 -0.000553
v -0.073933 0.030571 0.030417
v -0.068259 0.035677 -0.031500
v -0.064047 0.036314 -0.000525
v -0.068267 0.035535 -0.000530
v -0.068276 0.035392 0.030441
v -0.061255 0.033189 -0.031510
v -0.061263 0.033046 -0.000539
v -0.061272 0.032904 0.030431
v -0.069697 0.031634 -0.031519
v -0.066913 0.028368 -0.031533
v -0.062692 0.029146 -0.031529
v -0.069713 0.031350 0.030422
v -0.066930 0.028084 0.030408
v -0.062709 0.028861 0.030412
v 0.120144 -0.025069 0.030602
v 0.120152 -0.024927 -0.000369
v 0.117995 -0.030995 -0.000397
v 0.122310 -0.018858 -0.000341
v 0.120161 -0.024784 -0.031340
v 0.111653 -0.032304 0.030566
v 0.111661 -0.032162 -0.000405
v 0.105328 -0.033328 -0.000412
v 0.111670 -0.032020 -0.031375
v 0.101142 -0.028569 0.030580
v 0.101150 -0.028426 -0.000390
v 0.096972 -0.023525 -0.000369
v 0.101158 -0.028284 -0.031361
v 0.099121 -0.017599 0.030631
v 0.099129 -0.017456 -0.000340
v 0.101286 -0.011388 -0.000312
v 0.099137 -0.017314 -0.031311
v 0.107612 -0.010364 0.030666
v 0.107620 -0.010221 -0.000305
v 0.113954 -0.009055 -0.000298
v 0.107628 -0.010079 -0.031275
v 0.118123 -0.014099 0.030651
v 0.118132 -0.013956 -0.000319
v 0.118140 -0.013814 -0.031290
v 0.105455 -0.016432 0.030637
v 0.109633 -0.021334 0.030616
v 0.115966 -0.020167 0.030623
v 0.105471 -0.016147 -0.031304
v 0.109649 -0.021049 -0.031325
v 0.115983 -0.019883 -0.031318
v -0.175105 0.104344 0.045192
v -0.175093 0.104551 0.000206
v -0.177951 0.098575 0.000178
v -0.172234 0.110527 0.000234
v -0.175081 0.104758 -0.044779
v -0.184531 0.099240 0.045166
v -0.184519 0.099447 0.000180
v -0.191087 0.100319 0.000182
v -0.184507 0.099654 -0.044805
v -0.192299 0.106627 0.045197
v -0.192287 0.106834 0.000212
v -0.193487 0.113349 0.000242
v -0.192275 0.107041 -0.044773
v -0.187672 0.116297 0.045243
v -0.187661 0.116504 0.000258
v -0.181834 0.119659 0.000274
v -0.187649 0.116711 -0.044728
v -0.177046 0.114886 0.045240
v -0.177034 0.115093 0.000254
v -0.177023 0.115300 -0.044731
v -0.186473 0.109782 0.045214
v -0.179905 0.108910 0.045211
v -0.186449 0.110196 -0.044757
v -0.179881 0.109324 -0.044760
v -0.089389 -0.079104 0.050360
v -0.087853 -0.087416 0.046137
v -0.117506 -0.092877 0.046104
v -0.058201 -0.081954 0.046170
v -0.086318 -0.095727 0.041915
v -0.121477 -0.071342 0.050387
v -0.123010 -0.062993 0.046241
v -0.125445 -0.049769 0.046301
v -0.121474 -0.071304 0.042018
v -0.094260 -0.052657 0.050481
v -0.095793 -0.044307 0.046333
v -0.066141 -0.038845 0.046367
v -0.097326 -0.035958 0.042187
v -0.062172 -0.060419 0.050453
v -0.060636 -0.068731 0.046231
v -0.062169 -0.060381 0.042084
v -0.084195 -0.107203 0.035243
v -0.113847 -0.112664 0.035210
v -0.054543 -0.101740 0.035276
v -0.082073 -0.118677 0.028572
v -0.123592 -0.059768 0.035451
v -0.129096 -0.029884 0.035587
v -0.121469 -0.071243 0.028779
v -0.099443 -0.024422 0.035620
v -0.069791 -0.018960 0.035653
v -0.101561 -0.012885 0.029053
v -0.060047 -0.071855 0.035412
v -0.062164 -0.060319 0.028845
v -0.082066 -0.118553 0.001513
v -0.111718 -0.124015 0.001480
v -0.052414 -0.113090 0.001546
v -0.082058 -0.118428 -0.025546
v -0.121462 -0.071119 0.001720
v -0.131206 -0.018222 0.001961
v -0.121455 -0.070994 -0.025339
v -0.101554 -0.012761 0.001994
v -0.071901 -0.007300 0.002027
v -0.101547 -0.012636 -0.025065
v -0.062157 -0.060195 0.001786
v -0.062150 -0.060070 -0.025272
v -0.084177 -0.106891 -0.032113
v -0.113830 -0.112354 -0.032146
v -0.054525 -0.101430 -0.032080
v -0.086296 -0.095356 -0.038680
v -0.119334 -0.082470 -0.032010
v -0.129078 -0.029574 -0.031769
v -0.121453 -0.070934 -0.038577
v -0.099426 -0.024111 -0.031736
v -0.069773 -0.018650 -0.031703
v -0.097305 -0.035587 -0.038408
v -0.064269 -0.048535 -0.031839
v -0.062148 -0.060010 -0.038511
v -0.087829 -0.087006 -0.042828
v -0.117482 -0.092468 -0.042861
v -0.058177 -0.081545 -0.042795
v -0.089362 -0.078656 -0.046976
v -0.119917 -0.079244 -0.042801
v -0.125422 -0.049360 -0.042665
v -0.121451 -0.070894 -0.046949
v -0.095769 -0.043898 -0.042632
v -0.066117 -0.038436 -0.042599
v -0.094234 -0.052209 -0.046856
v -0.063681 -0.051660 -0.042659
v -0.062146 -0.059971 -0.046883
v -0.091824 -0.065880 0.050420
v -0.091798 -0.065433 -0.046916
v 0.083801 -0.060218 0.022230
v 0.083110 -0.056438 0.017339
v 0.087785 -0.039430 0.013266
v 0.079129 -0.077184 0.017242
v 0.083113 -0.056396 0.008279
v 0.078811 -0.020893 0.022409
v 0.078813 -0.020852 0.013349
v 0.069148 0.001466 0.017602
v 0.078122 -0.017071 0.008458
v 0.055291 0.010474 0.026700
v 0.055293 0.010516 0.017640
v 0.041439 0.019567 0.017677
v 0.055296 0.010558 0.008579
v -0.048745 0.003542 0.026641
v -0.048743 0.003583 0.017580
v -0.138925 -0.012400 0.017483
v -0.048740 0.003625 0.008520
v -0.128245 -0.069368 0.015345
v -0.128245 -0.069366 0.014904
v -0.117563 -0.126293 0.003706
v -0.128243 -0.069324 0.005844
v -0.122364 -0.127179 0.004142
v -0.122363 -0.127177 0.003701
v -0.127164 -0.128061 0.003696
v -0.122363 -0.127175 0.003260
v -0.136915 -0.139785 0.004080
v -0.136915 -0.139783 0.003639
v -0.146665 -0.151505 0.003583
v -0.136914 -0.139781 0.003198
v -0.148258 -0.161726 0.003976
v -0.148258 -0.161724 0.003535
v -0.149851 -0.171943 0.003488
v -0.148258 -0.161722 0.003094
v -0.153299 -0.172084 0.003927
v -0.153299 -0.172082 0.003486
v -0.156747 -0.172222 0.003485
v -0.153299 -0.172080 0.003045
v -0.156507 -0.162750 0.003969
v -0.156507 -0.162748 0.003528
v -0.156266 -0.153274 0.003572
v -0.156507 -0.162746 0.003087
v -0.150846 -0.136893 0.004090
v -0.150846 -0.136891 0.003649
v -0.145427 -0.120508 0.003726
v -0.150846 -0.136889 0.003208
v -0.151617 -0.105769 0.004233
v -0.151617 -0.105767 0.003792
v -0.157807 -0.091026 0.003858
v -0.151617 -0.105765 0.003351
v -0.157138 -0.078498 0.004357
v -0.157138 -0.078495 0.003916
v -0.156468 -0.065965 0.003974
v -0.157138 -0.078493 0.003475
v -0.153844 -0.050645 0.015425
v -0.153842 -0.050603 0.006364
v -0.151217 -0.035281 0.017374
v -0.153842 -0.050601 0.005923
v -0.161792 -0.031812 0.026448
v -0.161789 -0.031770 0.017387
v -0.172361 -0.028259 0.017401
v -0.161787 -0.031729 0.008327
v -0.181725 -0.020595 0.026494
v -0.181723 -0.020554 0.017434
v -0.191084 -0.012848 0.017466
v -0.181720 -0.020512 0.008373
v -0.205314 0.001050 0.026587
v -0.205311 0.001091 0.017527
v -0.219538 0.015031 0.017587
v -0.205309 0.001133 0.008466
v -0.260951 0.104585 0.027049
v -0.260949 0.104627 0.017989
v -0.302359 0.194224 0.018390
v -0.260946 0.104669 0.008928
v -0.226520 0.208193 0.027535
v -0.226518 0.208235 0.018474
v -0.150676 0.222245 0.018559
v -0.226515 0.208276 0.009414
v -0.134643 0.214803 0.027590
v -0.134641 0.214846 0.018529
v -0.118605 0.207446 0.018499
v -0.134638 0.214888 0.009469
v -0.119662 0.174689 0.027409
v -0.119660 0.174730 0.018349
v -0.120715 0.142016 0.018198
v -0.119658 0.174773 0.009288
v -0.117632 0.108802 0.027106
v -0.117630 0.108844 0.018046
v -0.114545 0.075671 0.017894
v -0.117628 0.108885 0.008985
v -0.087715 0.067856 0.026926
v -0.087712 0.067898 0.017866
v -0.060879 0.060125 0.017837
v -0.087710 0.067940 0.008805
v -0.036178 0.063813 0.026921
v -0.036176 0.063854 0.017861
v -0.011472 0.067583 0.017884
v -0.036173 0.063896 0.008800
v 0.009898 0.054109 0.026889
v 0.009900 0.054151 0.017828
v 0.031272 0.040718 0.017772
v 0.009903 0.054192 0.008768
v 0.038949 0.042090 0.026841
v 0.038951 0.042132 0.017781
v 0.046630 0.043546 0.017789
v 0.038954 0.042174 0.008720
v 0.081053 0.022054 0.026760
v 0.081056 0.022096 0.017700
v 0.115481 0.000646 0.017610
v 0.081058 0.022138 0.008639
v 0.137723 0.006835 0.026705
v 0.137725 0.006877 0.017645
v 0.159970 0.013108 0.017679
v 0.137728 0.006919 0.008584
v 0.168406 0.007673 0.026717
v 0.168409 0.007714 0.017657
v 0.176847 0.002321 0.017634
v 0.168411 0.007756 0.008596
v 0.253406 0.016383 0.026780
v 0.253408 0.016425 0.017720
v 0.329969 0.030528 0.017805
v 0.253411 0.016466 0.008659
v 0.335032 0.029930 0.026864
v 0.335034 0.029972 0.017804
v 0.340100 0.029416 0.017803
v 0.335037 0.030014 0.008743
v 0.350683 0.020406 0.026825
v 0.350686 0.020447 0.017764
v 0.361271 0.011479 0.017726
v 0.350688 0.020489 0.008704
v 0.525606 0.037504 0.022797
v 0.524766 0.042092 0.017910
v 0.689103 0.068158 0.013921
v 0.524768 0.042134 0.008850
v 0.379639 -0.027197 0.018307
v 0.380470 -0.031679 0.013379
v 0.064157 -0.089830 0.013027
v 0.696794 0.026411 0.013731
v 0.381312 -0.036222 0.008451
v 0.071226 -0.081287 0.022129
v 0.071229 -0.081245 0.013069
v 0.072060 -0.085727 0.008141
v 0.083115 -0.056354 -0.000780
v 0.087096 -0.035608 -0.000684
v 0.079134 -0.077101 -0.000877
v 0.083118 -0.056312 -0.009839
v 0.078125 -0.017029 -0.000601
v 0.069153 0.001549 -0.000518
v 0.078127 -0.016987 -0.009660
v 0.055298 0.010600 -0.000480
v 0.041444 0.019650 -0.000442
v 0.055301 0.010641 -0.009539
v -0.048738 0.003667 -0.000539
v -0.138920 -0.012317 -0.000637
v -0.048736 0.003708 -0.009598
v -0.128241 -0.069304 0.001425
v -0.117562 -0.126270 -0.001154
v -0.128239 -0.069262 -0.007634
v -0.122362 -0.127154 -0.001159
v -0.127163 -0.128038 -0.001165
v -0.122361 -0.127134 -0.005578
v -0.136913 -0.139761 -0.001221
v -0.146664 -0.151483 -0.001278
v -0.136912 -0.139741 -0.005640
v -0.148257 -0.161702 -0.001325
v -0.149850 -0.171920 -0.001372
v -0.148256 -0.161681 -0.005744
v -0.153299 -0.172059 -0.001374
v -0.156747 -0.172199 -0.001376
v -0.153297 -0.172038 -0.005793
v -0.156505 -0.162726 -0.001332
v -0.156265 -0.153251 -0.001288
v -0.156505 -0.162704 -0.005751
v -0.150845 -0.136869 -0.001211
v -0.145425 -0.120486 -0.001135
v -0.150844 -0.136848 -0.005631
v -0.151616 -0.105745 -0.001069
v -0.157806 -0.091003 -0.001002
v -0.151615 -0.105724 -0.005488
v -0.157137 -0.078473 -0.000945
v -0.156467 -0.065942 -0.000887
v -0.157135 -0.078453 -0.005364
v -0.153839 -0.050559 -0.003136
v -0.151213 -0.035198 -0.000745
v -0.153838 -0.050539 -0.007555
v -0.161785 -0.031687 -0.000732
v -0.172356 -0.028176 -0.000719
v -0.161782 -0.031646 -0.009791
v -0.181718 -0.020470 -0.000686
v -0.191079 -0.012764 -0.000653
v -0.181715 -0.020429 -0.009745
v -0.205306 0.001175 -0.000592
v -0.219534 0.015114 -0.000532
v -0.205304 0.001216 -0.009651
v -0.260944 0.104711 -0.000131
v -0.302354 0.194307 0.000270
v -0.260942 0.104752 -0.009190
v -0.226513 0.208318 0.000355
v -0.150671 0.222329 0.000439
v -0.226510 0.208360 -0.008704
v -0.134636 0.214928 0.000410
v -0.118600 0.207529 0.000380
v -0.134633 0.214970 -0.008649
v -0.119655 0.174815 0.000229
v -0.120710 0.142100 0.000078
v -0.119652 0.174855 -0.008830
v -0.117625 0.108927 -0.000073
v -0.114541 0.075754 -0.000225
v -0.117623 0.108969 -0.009132
v -0.087707 0.067981 -0.000254
v -0.060874 0.060209 -0.000282
v -0.087705 0.068023 -0.009313
v -0.036171 0.063938 -0.000259
v -0.011467 0.067666 -0.000235
v -0.036168 0.063979 -0.009318
v 0.009905 0.054234 -0.000291
v 0.031277 0.040801 -0.000347
v 0.009907 0.054276 -0.009350
v 0.038956 0.042215 -0.000339
v 0.046635 0.043630 -0.000330
v 0.038959 0.042257 -0.009398
v 0.081061 0.022180 -0.000420
v 0.115486 0.000729 -0.000509
v 0.081063 0.022221 -0.009478
v 0.137730 0.006960 -0.000475
v 0.159974 0.013191 -0.000440
v 0.137733 0.007002 -0.009533
v 0.168413 0.007798 -0.000463
v 0.176852 0.002404 -0.000485
v 0.168416 0.007839 -0.009521
v 0.253413 0.016508 -0.000400
v 0.329974 0.030612 -0.000314
v 0.253415 0.016550 -0.009459
v 0.335039 0.030055 -0.000316
v 0.340105 0.029499 -0.000317
v 0.335042 0.030097 -0.009374
v 0.350691 0.020531 -0.000355
v 0.361276 0.011562 -0.000394
v 0.350693 0.020572 -0.009414
v 0.524771 0.042175 -0.000209
v 0.688265 0.072788 -0.000025
v 0.524773 0.042217 -0.009268
v 0.381314 -0.036180 -0.000608
v 0.064990 -0.094270 -0.000959
v 0.697637 0.021910 -0.000257
v 0.381316 -0.036138 -0.009667
v 0.072062 -0.085685 -0.000918
v 0.072065 -0.085644 -0.009977
v 0.083811 -0.060048 -0.014764
v 0.087792 -0.039301 -0.014667
v 0.079139 -0.077018 -0.018995
v 0.083813 -0.060006 -0.023823
v 0.078129 -0.016946 -0.018718
v 0.069158 0.001633 -0.018635
v 0.078823 -0.020681 -0.023643
v 0.055303 0.010683 -0.018598
v 0.041449 0.019733 -0.018560
v 0.055305 0.010725 -0.027656
v -0.048733 0.003750 -0.018657
v -0.138915 -0.012233 -0.018755
v -0.048731 0.003792 -0.027716
v -0.128239 -0.069260 -0.008077
v -0.117561 -0.126248 -0.006015
v -0.128237 -0.069219 -0.017136
v -0.122361 -0.127132 -0.006021
v -0.127161 -0.128016 -0.006026
v -0.122361 -0.127130 -0.006463
v -0.136912 -0.139738 -0.006083
v -0.146663 -0.151461 -0.006140
v -0.136912 -0.139736 -0.006525
v -0.148256 -0.161679 -0.006187
v -0.149849 -0.171898 -0.006234
v -0.148256 -0.161677 -0.006629
v -0.153297 -0.172037 -0.006236
v -0.156745 -0.172176 -0.006237
v -0.153297 -0.172036 -0.006678
v -0.156504 -0.162702 -0.006194
v -0.156263 -0.153229 -0.006150
v -0.156504 -0.162701 -0.006636
v -0.150844 -0.136846 -0.006073
v -0.145424 -0.120463 -0.005996
v -0.150844 -0.136844 -0.006516
v -0.151614 -0.105722 -0.005930
v -0.157805 -0.090981 -0.005864
v -0.151614 -0.105720 -0.006373
v -0.157135 -0.078451 -0.005806
v -0.156466 -0.065920 -0.005749
v -0.157135 -0.078449 -0.006249
v -0.153836 -0.050497 -0.016614
v -0.151208 -0.035115 -0.018863
v -0.153836 -0.050495 -0.017057
v -0.161780 -0.031604 -0.018850
v -0.172352 -0.028093 -0.018836
v -0.161777 -0.031562 -0.027909
v -0.181713 -0.020387 -0.018804
v -0.191074 -0.012681 -0.018771
v -0.181711 -0.020345 -0.027862
v -0.205301 0.001258 -0.018710
v -0.219529 0.015197 -0.018650
v -0.205299 0.001300 -0.027769
v -0.260939 0.104794 -0.018249
v -0.302350 0.194390 -0.017847
v -0.260937 0.104836 -0.027307
v -0.226508 0.208401 -0.017763
v -0.150666 0.222412 -0.017678
v -0.226506 0.208443 -0.026822
v -0.134631 0.215012 -0.017708
v -0.118595 0.207611 -0.017738
v -0.134628 0.215053 -0.026767
v -0.119650 0.174897 -0.017889
v -0.120705 0.142183 -0.018039
v -0.119648 0.174939 -0.026947
v -0.117620 0.109010 -0.018191
v -0.114536 0.075837 -0.018343
v -0.117618 0.109052 -0.027250
v -0.087703 0.068064 -0.018372
v -0.060870 0.060292 -0.018400
v -0.087700 0.068106 -0.027430
v -0.036166 0.064021 -0.018377
v -0.011463 0.067750 -0.018353
v -0.036164 0.064062 -0.027435
v 0.009910 0.054317 -0.018409
v 0.031282 0.040885 -0.018465
v 0.009912 0.054359 -0.027468
v 0.038961 0.042299 -0.018456
v 0.046640 0.043713 -0.018448
v 0.038963 0.042341 -0.027515
v 0.081065 0.022263 -0.018537
v 0.115491 0.000813 -0.018627
v 0.081068 0.022304 -0.027596
v 0.137735 0.007044 -0.018592
v 0.159979 0.013275 -0.018558
v 0.137737 0.007085 -0.027651
v 0.168418 0.007881 -0.018580
v 0.176857 0.002488 -0.018603
v 0.168421 0.007923 -0.027639
v 0.253418 0.016591 -0.018517
v 0.329978 0.030695 -0.018432
v 0.253420 0.016633 -0.027576
v 0.335044 0.030139 -0.018433
v 0.340110 0.029582 -0.018435
v 0.335046 0.030181 -0.027492
v 0.350695 0.020614 -0.018473
v 0.361281 0.011646 -0.018511
v 0.350698 0.020656 -0.027532
v 0.525615 0.037674 -0.014197
v 0.689110 0.068287 -0.014012
v 0.525618 0.037716 -0.023255
v 0.380487 -0.031611 -0.014554
v 0.064164 -0.089701 -0.014905
v 0.696801 0.026540 -0.014202
v 0.379650 -0.027023 -0.019440
v 0.072067 -0.085602 -0.019036
v 0.071239 -0.081075 -0.023923
v 0.387539 -0.023136 0.022481
v 0.392214 -0.006128 0.018408
v -0.135698 0.182089 0.027439
v -0.132613 0.148916 0.027287
v 0.389209 0.010180 0.018482
v 0.692947 0.047262 0.018733
v 0.224872 -0.015887 0.022471
v 0.214287 -0.006919 0.022510
v 0.209221 -0.006362 0.022511
v 0.132660 -0.020466 0.022426
v 0.124221 -0.015072 0.022448
v 0.101977 -0.021303 0.022414
v 0.092312 0.001014 0.026667
v 0.057887 0.022464 0.026756
v 0.044032 0.031515 0.026794
v 0.036353 0.030100 0.026785
v -0.246724 0.090646 0.026989
v -0.237363 0.082940 0.026956
v -0.226791 0.079429 0.026942
v -0.153059 -0.162610 0.003971
v -0.151465 -0.152392 0.004019
v -0.146046 -0.136009 0.004095
v -0.136296 -0.124286 0.004152
v -0.133046 -0.070252 0.015340
v -0.142177 -0.066476 0.015355
v -0.148367 -0.051735 0.015421
v -0.147698 -0.039204 0.015479
v -0.145073 -0.023882 0.026489
v -0.220644 0.090870 0.026997
v -0.126737 0.031594 0.026749
v -0.208455 0.134905 0.027202
v -0.036556 0.047577 0.026846
v -0.009722 0.039804 0.026818
v 0.014981 0.043533 0.026841
v 0.387553 -0.022924 -0.023571
v 0.392225 -0.005955 -0.019340
v -0.135683 0.182339 -0.026918
v -0.132599 0.149166 -0.027070
v 0.692958 0.047436 -0.019015
v 0.389219 0.010353 -0.019266
v 0.224884 -0.015675 -0.023581
v 0.214299 -0.006706 -0.023543
v 0.209233 -0.006150 -0.023541
v 0.132673 -0.020254 -0.023627
v 0.124234 -0.014860 -0.023604
v 0.101989 -0.021091 -0.023639
v 0.092327 0.001264 -0.027690
v 0.057901 0.022715 -0.027601
v 0.044047 0.031765 -0.027563
v 0.036368 0.030351 -0.027571
v -0.246710 0.090896 -0.027368
v -0.237348 0.083191 -0.027401
v -0.226776 0.079680 -0.027414
v -0.153056 -0.162561 -0.006635
v -0.151463 -0.152343 -0.006587
v -0.146043 -0.135960 -0.006510
v -0.136293 -0.124237 -0.006454
v -0.133037 -0.070103 -0.017141
v -0.142168 -0.066326 -0.017126
v -0.148358 -0.051586 -0.017060
v -0.147689 -0.039055 -0.017002
v -0.145059 -0.023632 -0.027868
v -0.220630 0.091120 -0.027360
v -0.126723 0.031844 -0.027608
v -0.208440 0.135156 -0.027154
v -0.036541 0.047827 -0.027510
v -0.009708 0.040054 -0.027539
v 0.014995 0.043783 -0.027515
v 0.691434 0.055473 0.017684
v 0.694439 0.039165 0.017610
v 0.695280 0.034622 0.012682
v 0.690594 0.060061 0.012798
v 0.694260 0.040167 0.012282
v 0.696615 0.027412 0.008403
v 0.696617 0.027454 -0.000656
v 0.696621 0.027492 -0.009145
v 0.695599 0.032995 -0.000485
v 0.689264 0.067312 0.008585
v 0.691595 0.054627 0.012348
v 0.689267 0.067354 -0.000474
v 0.695783 0.032080 -0.014031
v 0.689269 0.067393 -0.008963
v 0.690268 0.061917 -0.000354
v 0.694269 0.040283 -0.013187
v 0.694449 0.039331 -0.018244
v 0.690111 0.062850 -0.013892
v 0.691443 0.055638 -0.018170
v 0.691603 0.054745 -0.013121
v 0.102792 -0.068709 -0.005357
v 0.102794 -0.068670 -0.013846
v 0.104122 -0.075959 -0.001144
v 0.101459 -0.061498 -0.001078
v 0.100130 -0.054209 -0.013780
v 0.100126 -0.054287 0.003201
v 0.102787 -0.068788 0.011624
v 0.098795 -0.047037 -0.001012
v 0.100124 -0.054326 0.011690
v 0.397190 -0.007100 0.016232
v 0.395859 0.000151 0.012019
v 0.398523 -0.014311 0.011953
v 0.399858 -0.021521 0.007674
v 0.399864 -0.021444 -0.009303
v 0.399862 -0.021483 -0.000814
v 0.394529 0.007401 0.007806
v 0.394531 0.007440 -0.000683
v 0.394534 0.007479 -0.009172
v 0.395867 0.000268 -0.013450
v 0.397199 -0.006944 -0.017729
v 0.398529 -0.014193 -0.013516
v -0.227963 0.203926 0.038015
v -0.227953 0.204101 -0.000035
v -0.154892 0.217401 0.000046
v -0.301014 0.190801 -0.000116
v -0.227943 0.204276 -0.038085
v -0.140024 0.210834 0.038070
v -0.140013 0.211009 0.000020
v -0.125136 0.204616 -0.000005
v -0.140004 0.211184 -0.038030
v -0.126774 0.169891 0.037885
v -0.126763 0.170066 -0.000165
v -0.128391 0.135516 -0.000324
v -0.126753 0.170241 -0.038215
v -0.128595 0.112776 0.037622
v -0.128584 0.112951 -0.000428
v -0.128778 0.090385 -0.000532
v -0.128574 0.113126 -0.038478
v -0.139113 0.080012 0.037469
v -0.139103 0.080188 -0.000581
v -0.149427 0.069990 -0.000631
v -0.139092 0.080363 -0.038632
v -0.134703 0.054567 0.037353
v -0.134693 0.054742 -0.000697
v -0.119958 0.039495 -0.000764
v -0.134682 0.054918 -0.038748
v -0.131011 0.037286 0.037275
v -0.131000 0.037461 -0.000776
v -0.142043 0.035427 -0.000788
v -0.130990 0.037636 -0.038826
v -0.167075 0.047463 0.037311
v -0.167065 0.047638 -0.000739
v -0.192086 0.059848 -0.000689
v -0.167055 0.047813 -0.038789
v -0.212455 0.055684 0.037337
v -0.212445 0.055859 -0.000713
v -0.232803 0.051870 -0.000737
v -0.212434 0.056034 -0.038763
v -0.266919 0.121160 0.037624
v -0.266909 0.121336 -0.000426
v -0.266898 0.121510 -0.038477
v -0.193857 0.134460 0.037704
v -0.173499 0.138450 0.037728
v -0.138919 0.102578 0.037573
v -0.158621 0.132057 0.037703
v -0.160249 0.097507 0.037543
v -0.170767 0.064744 0.037390
v -0.156032 0.049496 0.037324
v -0.193837 0.134810 -0.038396
v -0.173479 0.138800 -0.038372
v -0.138899 0.102928 -0.038528
v -0.158601 0.132407 -0.038397
v -0.160228 0.097857 -0.038557
v -0.170747 0.065095 -0.038710
v -0.156012 0.049847 -0.038777
v -0.056118 -0.058846 0.050185
v -0.057677 -0.050363 0.046188
v -0.060032 -0.037291 0.046247
v -0.052250 -0.080107 0.046053
v -0.056164 -0.058552 0.042116
v -0.006116 -0.036129 0.050302
v -0.007674 -0.027646 0.046306
v 0.044685 -0.018002 0.046364
v -0.009232 -0.019163 0.042309
v 0.049447 -0.028360 0.050353
v 0.057218 -0.021305 0.046352
v 0.060423 -0.023180 0.046345
v 0.055660 -0.012822 0.042356
v 0.055646 -0.034923 0.050323
v 0.064608 -0.034336 0.046294
v 0.067603 -0.039024 0.046272
v 0.072380 -0.027281 0.042294
v 0.056411 -0.043874 0.050282
v 0.063809 -0.048491 0.046228
v 0.061580 -0.052753 0.046209
v 0.072772 -0.047904 0.042199
v 0.053205 -0.050474 0.050252
v 0.054765 -0.058919 0.046179
v 0.053788 -0.061257 0.046168
v 0.062163 -0.063537 0.042124
v -0.000767 -0.062365 0.050183
v 0.000746 -0.070554 0.046111
v 0.002306 -0.079000 0.042037
v -0.058108 -0.047954 0.035554
v -0.063535 -0.018210 0.035690
v -0.048661 -0.099520 0.035320
v -0.056032 -0.059178 0.028894
v -0.011178 -0.008565 0.035748
v 0.041180 0.001080 0.035806
v -0.013122 0.002033 0.029187
v 0.054415 -0.006023 0.035777
v 0.066949 -0.009327 0.035766
v 0.052469 0.004575 0.029216
v 0.075506 -0.028025 0.035682
v 0.079691 -0.039180 0.035632
v 0.074261 -0.021226 0.029103
v 0.074108 -0.055117 0.035557
v 0.070314 -0.064584 0.035512
v 0.077234 -0.055861 0.028945
v 0.064111 -0.074074 0.035467
v 0.057297 -0.080240 0.035437
v 0.065447 -0.081287 0.028825
v 0.004382 -0.090224 0.035377
v 0.006330 -0.100761 0.028719
v -0.056025 -0.059052 0.001581
v -0.065472 -0.007486 0.001816
v -0.046578 -0.110618 0.001347
v -0.056018 -0.058926 -0.025732
v -0.013115 0.002159 0.001874
v 0.039242 0.011803 0.001932
v -0.013108 0.002285 -0.025439
v 0.052476 0.004701 0.001903
v 0.065711 -0.002401 0.001874
v 0.052484 0.004827 -0.025410
v 0.074268 -0.021100 0.001790
v 0.082825 -0.039798 0.001707
v 0.074275 -0.020974 -0.025522
v 0.077241 -0.055735 0.001632
v 0.071657 -0.071671 0.001557
v 0.077248 -0.055609 -0.025681
v 0.065454 -0.081162 0.001512
v 0.059252 -0.090652 0.001467
v 0.065462 -0.081036 -0.025801
v 0.006337 -0.100635 0.001407
v 0.006344 -0.100510 -0.025906
v -0.054070 -0.069463 -0.032389
v -0.063517 -0.017897 -0.032154
v -0.048643 -0.099208 -0.032525
v -0.056142 -0.058179 -0.038947
v -0.011158 -0.008253 -0.032096
v 0.041198 0.001392 -0.032038
v -0.009210 -0.018790 -0.038754
v 0.053732 -0.001912 -0.032050
v 0.066967 -0.009014 -0.032079
v 0.055682 -0.012449 -0.038707
v 0.071153 -0.020170 -0.032129
v 0.079709 -0.038868 -0.032213
v 0.072401 -0.026908 -0.038769
v 0.075916 -0.048335 -0.032257
v 0.070332 -0.064272 -0.032332
v 0.072793 -0.047531 -0.038864
v 0.063517 -0.070438 -0.032363
v 0.057315 -0.079928 -0.032408
v 0.062185 -0.063164 -0.038939
v 0.004272 -0.089225 -0.032465
v 0.002327 -0.078627 -0.039026
v -0.054582 -0.066625 -0.043020
v -0.060009 -0.036881 -0.042884
v -0.052227 -0.079698 -0.043079
v -0.056093 -0.058399 -0.047015
v -0.007650 -0.027236 -0.042826
v 0.044708 -0.017591 -0.042767
v -0.006090 -0.035682 -0.046898
v 0.047912 -0.019467 -0.042775
v 0.060446 -0.022770 -0.042787
v 0.049472 -0.027912 -0.046847
v 0.063441 -0.027458 -0.042808
v 0.067627 -0.038614 -0.042858
v 0.055671 -0.034476 -0.046876
v 0.065398 -0.042876 -0.042878
v 0.061604 -0.052343 -0.042923
v 0.056437 -0.043426 -0.046917
v 0.060627 -0.054681 -0.042934
v 0.053812 -0.060847 -0.042964
v 0.053231 -0.050026 -0.046948
v 0.000816 -0.070401 -0.043022
v -0.000742 -0.061918 -0.047017
v -0.003760 -0.049201 0.050243
v 0.049236 -0.039648 0.050301
v 0.050212 -0.037310 0.050312
v 0.053417 -0.039185 0.050304
v -0.003735 -0.048754 -0.046957
v 0.049261 -0.039201 -0.046899
v 0.050238 -0.036863 -0.046888
v 0.053442 -0.038738 -0.046896
f 1 301 303
f 301 2 302
f 302 3 303
f 301 302 303
f 3 302 305
f 302 2 304
f 304 4 305
f 302 304 305
f 5 306 308
f 306 1 307
f 307 6 308
f 306 307 308
f 6 307 309
f 307 1 303
f 303 3 309
f 307 303 309
f 7 310 312
f 310 5 311
f 311 8 312
f 310 311 312
f 8 311 313
f 311 5 308
f 308 6 313
f 311 308 313
f 9 314 316
f 314 7 315
f 315 10 316
f 314 315 316
f 10 315 317
f 315 7 312
f 312 8 317
f 315 312 317
f 11 318 320
f 318 9 319
f 319 12 320
f 318 319 320
f 12 319 321
f 319 9 316
f 316 10 321
f 319 316 321
f 2 322 304
f 322 11 323
f 323 4 304
f 322 323 304
f 4 323 324
f 323 11 320
f 320 12 324
f 323 320 324
f 11 325 318
f 325 7 314
f 314 9 318
f 325 314 318
f 11 326 325
f 326 5 310
f 310 7 325
f 326 310 325
f 11 327 326
f 327 1 306
f 306 5 326
f 327 306 326
f 11 322 327
f 322 2 301
f 301 1 327
f 322 301 327
f 10 317 321
f 317 8 328
f 328 12 321
f 317 328 321
f 8 313 328
f 313 6 329
f 329 12 328
f 313 329 328
f 6 309 329
f 309 3 330
f 330 12 329
f 309 330 329
f 3 305 330
f 305 4 324
f 324 12 330
f 305 324 330
f 13 331 333
f 331 14 332
f 332 15 333
f 331 332 333
f 13 333 335
f 333 15 334
f 334 16 335
f 333 334 335
f 14 336 338
f 336 17 337
f 337 18 338
f 336 337 338
f 14 338 332
f 338 18 339
f 339 15 332
f 338 339 332
f 17 340 342
f 340 19 341
f 341 20 342
f 340 341 342
f 17 342 337
f 342 20 343
f 343 18 337
f 342 343 337
f 19 344 346
f 344 21 345
f 345 22 346
f 344 345 346
f 19 346 341
f 346 22 347
f 347 20 341
f 346 347 341
f 21 348 350
f 348 23 349
f 349 24 350
f 348 349 350
f 21 350 345
f 350 24 351
f 351 22 345
f 350 351 345
f 23 352 353
f 352 13 335
f 335 16 353
f 352 335 353
f 23 353 349
f 353 16 354
f 354 24 349
f 353 354 349
f 19 355 344
f 355 23 348
f 348 21 344
f 355 348 344
f 17 356 340
f 356 23 355
f 355 19 340
f 356 355 340
f 14 357 336
f 357 23 356
f 356 17 336
f 357 356 336
f 13 352 331
f 352 23 357
f 357 14 331
f 352 357 331
f 20 347 358
f 347 22 351
f 351 24 358
f 347 351 358
f 18 343 359
f 343 20 358
f 358 24 359
f 343 358 359
f 15 339 360
f 339 18 359
f 359 24 360
f 339 359 360
f 16 334 354
f 334 15 360
f 360 24 354
f 334 360 354
f 25 361 363
f 361 26 362
f 362 27 363
f 361 362 363
f 25 363 365
f 363 27 364
f 364 28 365
f 363 364 365
f 26 366 368
f 366 29 367
f 367 30 368
f 366 367 368
f 26 368 362
f 368 30 369
f 369 27 362
f 368 369 362
f 29 370 372
f 370 31 371
f 371 32 372
f 370 371 372
f 29 372 367
f 372 32 373
f 373 30 367
f 372 373 367
f 31 374 376
f 374 33 375
f 375 34 376
f 374 375 376
f 31 376 371
f 376 34 377
f 377 32 371
f 376 377 371
f 33 378 380
f 378 35 379
f 379 36 380
f 378 379 380
f 33 380 375
f 380 36 381
f 381 34 375
f 380 381 375
f 35 382 383
f 382 25 365
f 365 28 383
f 382 365 383
f 35 383 379
f 383 28 384
f 384 36 379
f 383 384 379
f 31 385 374
f 385 35 378
f 378 33 374
f 385 378 374
f 29 386 370
f 386 35 385
f 385 31 370
f 386 385 370
f 26 387 366
f 387 35 386
f 386 29 366
f 387 386 366
f 25 382 361
f 382 35 387
f 387 26 361
f 382 387 361
f 32 377 388
f 377 34 381
f 381 36 388
f 377 381 388
f 30 373 389
f 373 32 388
f 388 36 389
f 373 388 389
f 27 369 390
f 369 30 389
f 389 36 390
f 369 389 390
f 28 364 384
f 364 27 390
f 390 36 384
f 364 390 384
f 37 391 393
f 391 38 392
f 392 39 393
f 391 392 393
f 39 392 395
f 392 38 394
f 394 40 395
f 392 394 395
f 41 396 398
f 396 37 397
f 397 42 398
f 396 397 398
f 42 397 399
f 397 37 393
f 393 39 399
f 397 393 399
f 43 400 402
f 400 41 401
f 401 44 402
f 400 401 402
f 44 401 403
f 401 41 398
f 398 42 403
f 401 398 403
f 45 404 406
f 404 43 405
f 405 46 406
f 404 405 406
f 46 405 407
f 405 43 402
f 402 44 407
f 405 402 407
f 47 408 410
f 408 45 409
f 409 48 410
f 408 409 410
f 48 409 411
f 409 45 406
f 406 46 411
f 409 406 411
f 38 412 394
f 412 47 413
f 413 40 394
f 412 413 394
f 40 413 414
f 413 47 410
f 410 48 414
f 413 410 414
f 47 415 408
f 415 43 404
f 404 45 408
f 415 404 408
f 47 416 415
f 416 41 400
f 400 43 415
f 416 400 415
f 47 417 416
f 417 37 396
f 396 41 416
f 417 396 416
f 47 412 417
f 412 38 391
f 391 37 417
f 412 391 417
f 46 407 411
f 407 44 418
f 418 48 411
f 407 418 411
f 44 403 418
f 403 42 419
f 419 48 418
f 403 419 418
f 42 399 419
f 399 39 420
f 420 48 419
f 399 420 419
f 39 395 420
f 395 40 414
f 414 48 420
f 395 414 420
f 49 421 423
f 421 50 422
f 422 51 423
f 421 422 423
f 51 422 425
f 422 50 424
f 424 52 425
f 422 424 425
f 53 426 428
f 426 49 427
f 427 54 428
f 426 427 428
f 54 427 429
f 427 49 423
f 423 51 429
f 427 423 429
f 55 430 432
f 430 53 431
f 431 56 432
f 430 431 432
f 56 431 433
f 431 53 428
f 428 54 433
f 431 428 433
f 57 434 436
f 434 55 435
f 435 58 436
f 434 435 436
f 58 435 437
f 435 55 432
f 432 56 437
f 435 432 437
f 50 438 424
f 438 57 439
f 439 52 424
f 438 439 424
f 52 439 440
f 439 57 436
f 436 58 440
f 439 436 440
f 57 441 434
f 441 53 430
f 430 55 434
f 441 430 434
f 57 442 441
f 442 49 426
f 426 53 441
f 442 426 441
f 57 438 442
f 438 50 421
f 421 49 442
f 438 421 442
f 56 433 437
f 433 54 443
f 443 58 437
f 433 443 437
f 54 429 443
f 429 51 444
f 444 58 443
f 429 444 443
f 51 425 444
f 425 52 440
f 440 58 444
f 425 440 444
f 59 445 447
f 445 60 446
f 446 61 447
f 445 446 447
f 61 446 449
f 446 60 448
f 448 62 449
f 446 448 449
f 63 450 452
f 450 59 451
f 451 64 452
f 450 451 452
f 64 451 453
f 451 59 447
f 447 61 453
f 451 447 453
f 65 454 456
f 454 63 455
f 455 66 456
f 454 455 456
f 66 455 457
f 455 63 452
f 452 64 457
f 455 452 457
f 60 458 448
f 458 65 459
f 459 62 448
f 458 459 448
f 62 459 460
f 459 65 456
f 456 66 460
f 459 456 460
f 61 449 462
f 449 62 461
f 461 67 462
f 449 461 462
f 67 461 464
f 461 62 463
f 463 68 464
f 461 463 464
f 64 453 466
f 453 61 465
f 465 69 466
f 453 465 466
f 69 465 467
f 465 61 462
f 462 67 467
f 465 462 467
f 66 457 469
f 457 64 468
f 468 70 469
f 457 468 469
f 70 468 470
f 468 64 466
f 466 69 470
f 468 466 470
f 62 460 463
f 460 66 471
f 471 68 463
f 460 471 463
f 68 471 472
f 471 66 469
f 469 70 472
f 471 469 472
f 67 464 474
f 464 68 473
f 473 71 474
f 464 473 474
f 71 473 476
f 473 68 475
f 475 72 476
f 473 475 476
f 69 467 478
f 467 67 477
f 477 73 478
f 467 477 478
f 73 477 479
f 477 67 474
f 474 71 479
f 477 474 479
f 70 470 481
f 470 69 480
f 480 74 481
f 470 480 481
f 74 480 482
f 480 69 478
f 478 73 482
f 480 478 482
f 68 472 475
f 472 70 483
f 483 72 475
f 472 483 475
f 72 483 484
f 483 70 481
f 481 74 484
f 483 481 484
f 71 476 486
f 476 72 485
f 485 75 486
f 476 485 486
f 75 485 488
f 485 72 487
f 487 76 488
f 485 487 488
f 73 479 490
f 479 71 489
f 489 77 490
f 479 489 490
f 77 489 491
f 489 71 486
f 486 75 491
f 489 486 491
f 74 482 493
f 482 73 492
f 492 78 493
f 482 492 493
f 78 492 494
f 492 73 490
f 490 77 494
f 492 490 494
f 72 484 487
f 484 74 495
f 495 76 487
f 484 495 487
f 76 495 496
f 495 74 493
f 493 78 496
f 495 493 496
f 75 488 498
f 488 76 497
f 497 79 498
f 488 497 498
f 79 497 500
f 497 76 499
f 499 80 500
f 497 499 500
f 77 491 502
f 491 75 501
f 501 81 502
f 491 501 502
f 81 501 503
f 501 75 498
f 498 79 503
f 501 498 503
f 78 494 505
f 494 77 504
f 504 82 505
f 494 504 505
f 82 504 506
f 504 77 502
f 502 81 506
f 504 502 506
f 76 496 499
f 496 78 507
f 507 80 499
f 496 507 499
f 80 507 508
f 507 78 505
f 505 82 508
f 507 505 508
f 60 509 458
f 509 63 454
f 454 65 458
f 509 454 458
f 60 445 509
f 445 59 450
f 450 63 509
f 445 450 509
f 82 506 508
f 506 81 510
f 510 80 508
f 506 510 508
f 81 503 510
f 503 79 500
f 500 80 510
f 503 500 510
f 83 511 513
f 511 84 512
f 512 85 513
f 511 512 513
f 85 512 515
f 512 84 514
f 514 86 515
f 512 514 515
f 87 516 518
f 516 83 517
f 517 88 518
f 516 517 518
f 88 517 519
f 517 83 513
f 513 85 519
f 517 513 519
f 89 520 522
f 520 87 521
f 521 90 522
f 520 521 522
f 90 521 523
f 521 87 518
f 518 88 523
f 521 518 523
f 91 524 526
f 524 89 525
f 525 92 526
f 524 525 526
f 92 525 527
f 525 89 522
f 522 90 527
f 525 522 527
f 93 528 530
f 528 91 529
f 529 94 530
f 528 529 530
f 94 529 531
f 529 91 526
f 526 92 531
f 529 526 531
f 95 532 534
f 532 93 533
f 533 96 534
f 532 533 534
f 96 533 535
f 533 93 530
f 530 94 535
f 533 530 535
f 97 536 538
f 536 95 537
f 537 98 538
f 536 537 538
f 98 537 539
f 537 95 534
f 534 96 539
f 537 534 539
f 99 540 542
f 540 97 541
f 541 100 542
f 540 541 542
f 100 541 543
f 541 97 538
f 538 98 543
f 541 538 543
f 101 544 546
f 544 99 545
f 545 102 546
f 544 545 546
f 102 545 547
f 545 99 542
f 542 100 547
f 545 542 547
f 103 548 550
f 548 101 549
f 549 104 550
f 548 549 550
f 104 549 551
f 549 101 546
f 546 102 551
f 549 546 551
f 105 552 554
f 552 103 553
f 553 106 554
f 552 553 554
f 106 553 555
f 553 103 550
f 550 104 555
f 553 550 555
f 107 556 558
f 556 105 557
f 557 108 558
f 556 557 558
f 108 557 559
f 557 105 554
f 554 106 559
f 557 554 559
f 109 560 562
f 560 107 561
f 561 110 562
f 560 561 562
f 110 561 563
f 561 107 558
f 558 108 563
f 561 558 563
f 111 564 566
f 564 109 565
f 565 112 566
f 564 565 566
f 112 565 567
f 565 109 562
f 562 110 567
f 565 562 567
f 113 568 570
f 568 111 569
f 569 114 570
f 568 569 570
f 114 569 571
f 569 111 566
f 566 112 571
f 569 566 571
f 115 572 574
f 572 113 573
f 573 116 574
f 572 573 574
f 116 573 575
f 573 113 570
f 570 114 575
f 573 570 575
f 117 576 578
f 576 115 577
f 577 118 578
f 576 577 578
f 118 577 579
f 577 115 574
f 574 116 579
f 577 574 579
f 119 580 582
f 580 117 581
f 581 120 582
f 580 581 582
f 120 581 583
f 581 117 578
f 578 118 583
f 581 578 583
f 121 584 586
f 584 119 585
f 585 122 586
f 584 585 586
f 122 585 587
f 585 119 582
f 582 120 587
f 585 582 587
f 123 588 590
f 588 121 589
f 589 124 590
f 588 589 590
f 124 589 591
f 589 121 586
f 586 122 591
f 589 586 591
f 125 592 594
f 592 123 593
f 593 126 594
f 592 593 594
f 126 593 595
f 593 123 590
f 590 124 595
f 593 590 595
f 127 596 598
f 596 125 597
f 597 128 598
f 596 597 598
f 128 597 599
f 597 125 594
f 594 126 599
f 597 594 599
f 129 600 602
f 600 127 601
f 601 130 602
f 600 601 602
f 130 601 603
f 601 127 598
f 598 128 603
f 601 598 603
f 131 604 606
f 604 129 605
f 605 132 606
f 604 605 606
f 132 605 607
f 605 129 602
f 602 130 607
f 605 602 607
f 133 608 610
f 608 131 609
f 609 134 610
f 608 609 610
f 134 609 611
f 609 131 606
f 606 132 611
f 609 606 611
f 135 612 614
f 612 133 613
f 613 136 614
f 612 613 614
f 136 613 615
f 613 133 610
f 610 134 615
f 613 610 615
f 137 616 618
f 616 135 617
f 617 138 618
f 616 617 618
f 138 617 619
f 617 135 614
f 614 136 619
f 617 614 619
f 139 620 622
f 620 137 621
f 621 140 622
f 620 621 622
f 140 621 623
f 621 137 618
f 618 138 623
f 621 618 623
f 141 624 626
f 624 139 625
f 625 142 626
f 624 625 626
f 142 625 627
f 625 139 622
f 622 140 627
f 625 622 627
f 143 628 630
f 628 141 629
f 629 144 630
f 628 629 630
f 144 629 631
f 629 141 626
f 626 142 631
f 629 626 631
f 145 632 634
f 632 143 633
f 633 146 634
f 632 633 634
f 146 633 635
f 633 143 630
f 630 144 635
f 633 630 635
f 147 636 638
f 636 145 637
f 637 148 638
f 636 637 638
f 148 637 639
f 637 145 634
f 634 146 639
f 637 634 639
f 149 640 642
f 640 147 641
f 641 150 642
f 640 641 642
f 150 641 643
f 641 147 638
f 638 148 643
f 641 638 643
f 151 644 646
f 644 152 645
f 645 153 646
f 644 645 646
f 153 645 648
f 645 152 647
f 647 154 648
f 645 647 648
f 84 649 514
f 649 151 650
f 650 86 514
f 649 650 514
f 86 650 651
f 650 151 646
f 646 153 651
f 650 646 651
f 85 515 653
f 515 86 652
f 652 155 653
f 515 652 653
f 155 652 655
f 652 86 654
f 654 156 655
f 652 654 655
f 88 519 657
f 519 85 656
f 656 157 657
f 519 656 657
f 157 656 658
f 656 85 653
f 653 155 658
f 656 653 658
f 90 523 660
f 523 88 659
f 659 158 660
f 523 659 660
f 158 659 661
f 659 88 657
f 657 157 661
f 659 657 661
f 92 527 663
f 527 90 662
f 662 159 663
f 527 662 663
f 159 662 664
f 662 90 660
f 660 158 664
f 662 660 664
f 94 531 666
f 531 92 665
f 665 160 666
f 531 665 666
f 160 665 667
f 665 92 663
f 663 159 667
f 665 663 667
f 96 535 669
f 535 94 668
f 668 161 669
f 535 668 669
f 161 668 670
f 668 94 666
f 666 160 670
f 668 666 670
f 98 539 672
f 539 96 671
f 671 162 672
f 539 671 672
f 162 671 673
f 671 96 669
f 669 161 673
f 671 669 673
f 100 543 675
f 543 98 674
f 674 163 675
f 543 674 675
f 163 674 676
f 674 98 672
f 672 162 676
f 674 672 676
f 102 547 678
f 547 100 677
f 677 164 678
f 547 677 678
f 164 677 679
f 677 100 675
f 675 163 679
f 677 675 679
f 104 551 681
f 551 102 680
f 680 165 681
f 551 680 681
f 165 680 682
f 680 102 678
f 678 164 682
f 680 678 682
f 106 555 684
f 555 104 683
f 683 166 684
f 555 683 684
f 166 683 685
f 683 104 681
f 681 165 685
f 683 681 685
f 108 559 687
f 559 106 686
f 686 167 687
f 559 686 687
f 167 686 688
f 686 106 684
f 684 166 688
f 686 684 688
f 110 563 690
f 563 108 689
f 689 168 690
f 563 689 690
f 168 689 691
f 689 108 687
f 687 167 691
f 689 687 691
f 112 567 693
f 567 110 692
f 692 169 693
f 567 692 693
f 169 692 694
f 692 110 690
f 690 168 694
f 692 690 694
f 114 571 696
f 571 112 695
f 695 170 696
f 571 695 696
f 170 695 697
f 695 112 693
f 693 169 697
f 695 693 697
f 116 575 699
f 575 114 698
f 698 171 699
f 575 698 699
f 171 698 700
f 698 114 696
f 696 170 700
f 698 696 700
f 118 579 702
f 579 116 701
f 701 172 702
f 579 701 702
f 172 701 703
f 701 116 699
f 699 171 703
f 701 699 703
f 120 583 705
f 583 118 704
f 704 173 705
f 583 704 705
f 173 704 706
f 704 118 702
f 702 172 706
f 704 702 706
f 122 587 708
f 587 120 707
f 707 174 708
f 587 707 708
f 174 707 709
f 707 120 705
f 705 173 709
f 707 705 709
f 124 591 711
f 591 122 710
f 710 175 711
f 591 710 711
f 175 710 712
f 710 122 708
f 708 174 712
f 710 708 712
f 126 595 714
f 595 124 713
f 713 176 714
f 595 713 714
f 176 713 715
f 713 124 711
f 711 175 715
f 713 711 715
f 128 599 717
f 599 126 716
f 716 177 717
f 599 716 717
f 177 716 718
f 716 126 714
f 714 176 718
f 716 714 718
f 130 603 720
f 603 128 719
f 719 178 720
f 603 719 720
f 178 719 721
f 719 128 717
f 717 177 721
f 719 717 721
f 132 607 723
f 607 130 722
f 722 179 723
f 607 722 723
f 179 722 724
f 722 130 720
f 720 178 724
f 722 720 724
f 134 611 726
f 611 132 725
f 725 180 726
f 611 725 726
f 180 725 727
f 725 132 723
f 723 179 727
f 725 723 727
f 136 615 729
f 615 134 728
f 728 181 729
f 615 728 729
f 181 728 730
f 728 134 726
f 726 180 730
f 728 726 730
f 138 619 732
f 619 136 731
f 731 182 732
f 619 731 732
f 182 731 733
f 731 136 729
f 729 181 733
f 731 729 733
f 140 623 735
f 623 138 734
f 734 183 735
f 623 734 735
f 183 734 736
f 734 138 732
f 732 182 736
f 734 732 736
f 142 627 738
f 627 140 737
f 737 184 738
f 627 737 738
f 184 737 739
f 737 140 735
f 735 183 739
f 737 735 739
f 144 631 741
f 631 142 740
f 740 185 741
f 631 740 741
f 185 740 742
f 740 142 738
f 738 184 742
f 740 738 742
f 146 635 744
f 635 144 743
f 743 186 744
f 635 743 744
f 186 743 745
f 743 144 741
f 741 185 745
f 743 741 745
f 148 639 747
f 639 146 746
f 746 187 747
f 639 746 747
f 187 746 748
f 746 146 744
f 744 186 748
f 746 744 748
f 150 643 750
f 643 148 749
f 749 188 750
f 643 749 750
f 188 749 751
f 749 148 747
f 747 187 751
f 749 747 751
f 153 648 753
f 648 154 752
f 752 189 753
f 648 752 753
f 189 752 755
f 752 154 754
f 754 190 755
f 752 754 755
f 86 651 654
f 651 153 756
f 756 156 654
f 651 756 654
f 156 756 757
f 756 153 753
f 753 189 757
f 756 753 757
f 155 655 759
f 655 156 758
f 758 191 759
f 655 758 759
f 191 758 761
f 758 156 760
f 760 192 761
f 758 760 761
f 157 658 763
f 658 155 762
f 762 193 763
f 658 762 763
f 193 762 764
f 762 155 759
f 759 191 764
f 762 759 764
f 158 661 766
f 661 157 765
f 765 194 766
f 661 765 766
f 194 765 767
f 765 157 763
f 763 193 767
f 765 763 767
f 159 664 769
f 664 158 768
f 768 195 769
f 664 768 769
f 195 768 770
f 768 158 766
f 766 194 770
f 768 766 770
f 160 667 772
f 667 159 771
f 771 196 772
f 667 771 772
f 196 771 773
f 771 159 769
f 769 195 773
f 771 769 773
f 161 670 775
f 670 160 774
f 774 197 775
f 670 774 775
f 197 774 776
f 774 160 772
f 772 196 776
f 774 772 776
f 162 673 778
f 673 161 777
f 777 198 778
f 673 777 778
f 198 777 779
f 777 161 775
f 775 197 779
f 777 775 779
f 163 676 781
f 676 162 780
f 780 199 781
f 676 780 781
f 199 780 782
f 780 162 778
f 778 198 782
f 780 778 782
f 164 679 784
f 679 163 783
f 783 200 784
f 679 783 784
f 200 783 785
f 783 163 781
f 781 199 785
f 783 781 785
f 165 682 787
f 682 164 786
f 786 201 787
f 682 786 787
f 201 786 788
f 786 164 784
f 784 200 788
f 786 784 788
f 166 685 790
f 685 165 789
f 789 202 790
f 685 789 790
f 202 789 791
f 789 165 787
f 787 201 791
f 789 787 791
f 167 688 793
f 688 166 792
f 792 203 793
f 688 792 793
f 203 792 794
f 792 166 790
f 790 202 794
f 792 790 794
f 168 691 796
f 691 167 795
f 795 204 796
f 691 795 796
f 204 795 797
f 795 167 793
f 793 203 797
f 795 793 797
f 169 694 799
f 694 168 798
f 798 205 799
f 694 798 799
f 205 798 800
f 798 168 796
f 796 204 800
f 798 796 800
f 170 697 802
f 697 169 801
f 801 206 802
f 697 801 802
f 206 801 803
f 801 169 799
f 799 205 803
f 801 799 803
f 171 700 805
f 700 170 804
f 804 207 805
f 700 804 805
f 207 804 806
f 804 170 802
f 802 206 806
f 804 802 806
f 172 703 808
f 703 171 807
f 807 208 808
f 703 807 808
f 208 807 809
f 807 171 805
f 805 207 809
f 807 805 809
f 173 706 811
f 706 172 810
f 810 209 811
f 706 810 811
f 209 810 812
f 810 172 808
f 808 208 812
f 810 808 812
f 174 709 814
f 709 173 813
f 813 210 814
f 709 813 814
f 210 813 815
f 813 173 811
f 811 209 815
f 813 811 815
f 175 712 817
f 712 174 816
f 816 211 817
f 712 816 817
f 211 816 818
f 816 174 814
f 814 210 818
f 816 814 818
f 176 715 820
f 715 175 819
f 819 212 820
f 715 819 820
f 212 819 821
f 819 175 817
f 817 211 821
f 819 817 821
f 177 718 823
f 718 176 822
f 822 213 823
f 718 822 823
f 213 822 824
f 822 176 820
f 820 212 824
f 822 820 824
f 178 721 826
f 721 177 825
f 825 214 826
f 721 825 826
f 214 825 827
f 825 177 823
f 823 213 827
f 825 823 827
f 179 724 829
f 724 178 828
f 828 215 829
f 724 828 829
f 215 828 830
f 828 178 826
f 826 214 830
f 828 826 830
f 180 727 832
f 727 179 831
f 831 216 832
f 727 831 832
f 216 831 833
f 831 179 829
f 829 215 833
f 831 829 833
f 181 730 835
f 730 180 834
f 834 217 835
f 730 834 835
f 217 834 836
f 834 180 832
f 832 216 836
f 834 832 836
f 182 733 838
f 733 181 837
f 837 218 838
f 733 837 838
f 218 837 839
f 837 181 835
f 835 217 839
f 837 835 839
f 183 736 841
f 736 182 840
f 840 219 841
f 736 840 841
f 219 840 842
f 840 182 838
f 838 218 842
f 840 838 842
f 184 739 844
f 739 183 843
f 843 220 844
f 739 843 844
f 220 843 845
f 843 183 841
f 841 219 845
f 843 841 845
f 185 742 847
f 742 184 846
f 846 221 847
f 742 846 847
f 221 846 848
f 846 184 844
f 844 220 848
f 846 844 848
f 186 745 850
f 745 185 849
f 849 222 850
f 745 849 850
f 222 849 851
f 849 185 847
f 847 221 851
f 849 847 851
f 187 748 853
f 748 186 852
f 852 223 853
f 748 852 853
f 223 852 854
f 852 186 850
f 850 222 854
f 852 850 854
f 188 751 856
f 751 187 855
f 855 224 856
f 751 855 856
f 224 855 857
f 855 187 853
f 853 223 857
f 855 853 857
f 189 755 859
f 755 190 858
f 858 225 859
f 755 858 859
f 225 858 861
f 858 190 860
f 860 226 861
f 858 860 861
f 156 757 760
f 757 189 862
f 862 192 760
f 757 862 760
f 192 862 863
f 862 189 859
f 859 225 863
f 862 859 863
f 84 864 649
f 864 152 644
f 644 151 649
f 864 644 649
f 83 865 511
f 865 152 864
f 864 84 511
f 865 864 511
f 125 866 592
f 866 121 588
f 588 123 592
f 866 588 592
f 127 867 596
f 867 121 866
f 866 125 596
f 867 866 596
f 83 868 865
f 868 149 869
f 869 152 865
f 868 869 865
f 83 870 868
f 870 147 640
f 640 149 868
f 870 640 868
f 83 871 870
f 871 145 636
f 636 147 870
f 871 636 870
f 83 872 871
f 872 143 632
f 632 145 871
f 872 632 871
f 83 873 872
f 873 141 628
f 628 143 872
f 873 628 872
f 83 874 873
f 874 139 624
f 624 141 873
f 874 624 873
f 83 875 874
f 875 137 620
f 620 139 874
f 875 620 874
f 87 876 516
f 876 137 875
f 875 83 516
f 876 875 516
f 87 877 876
f 877 135 616
f 616 137 876
f 877 616 876
f 89 878 520
f 878 135 877
f 877 87 520
f 878 877 520
f 89 879 878
f 879 133 612
f 612 135 878
f 879 612 878
f 119 880 580
f 880 115 576
f 576 117 580
f 880 576 580
f 119 881 880
f 881 113 572
f 572 115 880
f 881 572 880
f 119 882 881
f 882 111 568
f 568 113 881
f 882 568 881
f 103 883 548
f 883 99 544
f 544 101 548
f 883 544 548
f 103 884 883
f 884 97 540
f 540 99 883
f 884 540 883
f 105 885 552
f 885 97 884
f 884 103 552
f 885 884 552
f 105 886 885
f 886 95 536
f 536 97 885
f 886 536 885
f 95 887 532
f 887 91 528
f 528 93 532
f 887 528 532
f 105 888 886
f 888 91 887
f 887 95 886
f 888 887 886
f 107 889 556
f 889 91 888
f 888 105 556
f 889 888 556
f 109 890 560
f 890 91 889
f 889 107 560
f 890 889 560
f 111 891 564
f 891 91 890
f 890 109 564
f 891 890 564
f 119 892 882
f 892 91 891
f 891 111 882
f 892 891 882
f 127 893 894
f 893 91 892
f 892 119 894
f 893 892 894
f 127 894 867
f 894 119 584
f 584 121 867
f 894 584 867
f 91 893 524
f 893 127 895
f 895 89 524
f 893 895 524
f 89 896 897
f 896 129 604
f 604 131 897
f 896 604 897
f 127 600 895
f 600 129 896
f 896 89 895
f 600 896 895
f 133 879 608
f 879 89 897
f 897 131 608
f 879 897 608
f 225 861 863
f 861 226 898
f 898 192 863
f 861 898 863
f 192 898 761
f 898 226 899
f 899 191 761
f 898 899 761
f 211 818 821
f 818 210 900
f 900 212 821
f 818 900 821
f 212 900 824
f 900 210 901
f 901 213 824
f 900 901 824
f 226 902 899
f 902 224 903
f 903 191 899
f 902 903 899
f 224 857 903
f 857 223 904
f 904 191 903
f 857 904 903
f 223 854 904
f 854 222 905
f 905 191 904
f 854 905 904
f 222 851 905
f 851 221 906
f 906 191 905
f 851 906 905
f 221 848 906
f 848 220 907
f 907 191 906
f 848 907 906
f 220 845 907
f 845 219 908
f 908 191 907
f 845 908 907
f 219 842 908
f 842 218 909
f 909 191 908
f 842 909 908
f 191 909 764
f 909 218 910
f 910 193 764
f 909 910 764
f 218 839 910
f 839 217 911
f 911 193 910
f 839 911 910
f 193 911 767
f 911 217 912
f 912 194 767
f 911 912 767
f 217 836 912
f 836 216 913
f 913 194 912
f 836 913 912
f 208 809 812
f 809 207 914
f 914 209 812
f 809 914 812
f 207 806 914
f 806 206 915
f 915 209 914
f 806 915 914
f 206 803 915
f 803 205 916
f 916 209 915
f 803 916 915
f 200 785 788
f 785 199 917
f 917 201 788
f 785 917 788
f 199 782 917
f 782 198 918
f 918 201 917
f 782 918 917
f 201 918 791
f 918 198 919
f 919 202 791
f 918 919 791
f 198 779 919
f 779 197 920
f 920 202 919
f 779 920 919
f 196 773 776
f 773 195 921
f 921 197 776
f 773 921 776
f 197 921 920
f 921 195 922
f 922 202 920
f 921 922 920
f 202 922 794
f 922 195 923
f 923 203 794
f 922 923 794
f 203 923 797
f 923 195 924
f 924 204 797
f 923 924 797
f 204 924 800
f 924 195 925
f 925 205 800
f 924 925 800
f 205 925 916
f 925 195 926
f 926 209 916
f 925 926 916
f 209 926 928
f 926 195 927
f 927 213 928
f 926 927 928
f 210 815 901
f 815 209 928
f 928 213 901
f 815 928 901
f 194 929 770
f 929 213 927
f 927 195 770
f 929 927 770
f 213 929 827
f 929 194 930
f 930 214 827
f 929 930 827
f 214 930 830
f 930 194 931
f 931 215 830
f 930 931 830
f 215 931 833
f 931 194 913
f 913 216 833
f 931 913 833
f 152 869 933
f 869 149 932
f 932 227 933
f 869 932 933
f 154 647 934
f 647 152 933
f 933 227 934
f 647 933 934
f 227 932 935
f 932 149 642
f 642 150 935
f 932 642 935
f 154 934 937
f 934 227 936
f 936 228 937
f 934 936 937
f 190 754 938
f 754 154 937
f 937 228 938
f 754 937 938
f 229 939 940
f 939 190 938
f 938 228 940
f 939 938 940
f 227 935 942
f 935 150 941
f 941 230 942
f 935 941 942
f 230 941 943
f 941 150 750
f 750 188 943
f 941 750 943
f 190 939 860
f 939 229 944
f 944 226 860
f 939 944 860
f 230 943 946
f 943 188 945
f 945 231 946
f 943 945 946
f 229 947 944
f 947 232 948
f 948 226 944
f 947 948 944
f 231 945 949
f 945 188 856
f 856 224 949
f 945 856 949
f 224 902 950
f 902 226 948
f 948 232 950
f 902 948 950
f 231 949 951
f 949 224 950
f 950 232 951
f 949 950 951
f 233 952 954
f 952 234 953
f 953 235 954
f 952 953 954
f 233 955 952
f 955 236 956
f 956 234 952
f 955 956 952
f 237 957 958
f 957 236 955
f 955 233 958
f 957 955 958
f 238 959 960
f 959 236 957
f 957 237 960
f 959 957 960
f 237 961 960
f 961 227 962
f 962 238 960
f 961 962 960
f 237 958 961
f 958 233 963
f 963 227 961
f 958 963 961
f 233 964 963
f 964 228 936
f 936 227 963
f 964 936 963
f 233 954 966
f 954 235 965
f 965 229 966
f 954 965 966
f 229 940 966
f 940 228 964
f 964 233 966
f 940 964 966
f 236 959 968
f 959 238 967
f 967 230 968
f 959 967 968
f 230 967 942
f 967 238 962
f 962 227 942
f 967 962 942
f 234 956 970
f 956 236 969
f 969 231 970
f 956 969 970
f 230 946 968
f 946 231 969
f 969 236 968
f 946 969 968
f 235 953 972
f 953 234 971
f 971 232 972
f 953 971 972
f 229 965 947
f 965 235 972
f 972 232 947
f 965 972 947
f 231 951 970
f 951 232 971
f 971 234 970
f 951 971 970
f 239 973 975
f 973 240 974
f 974 241 975
f 973 974 975
f 241 974 977
f 974 240 976
f 976 242 977
f 974 976 977
f 243 978 980
f 978 239 979
f 979 244 980
f 978 979 980
f 244 979 981
f 979 239 975
f 975 241 981
f 979 975 981
f 245 982 984
f 982 243 983
f 983 246 984
f 982 983 984
f 246 983 985
f 983 243 980
f 980 244 985
f 983 980 985
f 247 986 988
f 986 245 987
f 987 248 988
f 986 987 988
f 248 987 989
f 987 245 984
f 984 246 989
f 987 984 989
f 249 990 992
f 990 247 991
f 991 250 992
f 990 991 992
f 250 991 993
f 991 247 988
f 988 248 993
f 991 988 993
f 251 994 996
f 994 249 995
f 995 252 996
f 994 995 996
f 252 995 997
f 995 249 992
f 992 250 997
f 995 992 997
f 253 998 1000
f 998 251 999
f 999 254 1000
f 998 999 1000
f 254 999 1001
f 999 251 996
f 996 252 1001
f 999 996 1001
f 255 1002 1004
f 1002 253 1003
f 1003 256 1004
f 1002 1003 1004
f 256 1003 1005
f 1003 253 1000
f 1000 254 1005
f 1003 1000 1005
f 257 1006 1008
f 1006 255 1007
f 1007 258 1008
f 1006 1007 1008
f 258 1007 1009
f 1007 255 1004
f 1004 256 1009
f 1007 1004 1009
f 240 1010 976
f 1010 257 1011
f 1011 242 976
f 1010 1011 976
f 242 1011 1012
f 1011 257 1008
f 1008 258 1012
f 1011 1008 1012
f 239 1013 973
f 1013 257 1010
f 1010 240 973
f 1013 1010 973
f 239 1014 1013
f 1014 255 1006
f 1006 257 1013
f 1014 1006 1013
f 249 1015 990
f 1015 245 986
f 986 247 990
f 1015 986 990
f 243 1016 978
f 1016 255 1014
f 1014 239 978
f 1016 1014 978
f 245 1017 982
f 1017 255 1016
f 1016 243 982
f 1017 1016 982
f 249 1018 1015
f 1018 255 1017
f 1017 245 1015
f 1018 1017 1015
f 251 1019 994
f 1019 255 1018
f 1018 249 994
f 1019 1018 994
f 251 998 1019
f 998 253 1002
f 1002 255 1019
f 998 1002 1019
f 242 1012 977
f 1012 258 1020
f 1020 241 977
f 1012 1020 977
f 258 1009 1020
f 1009 256 1021
f 1021 241 1020
f 1009 1021 1020
f 248 989 993
f 989 246 1022
f 1022 250 993
f 989 1022 993
f 241 1021 981
f 1021 256 1023
f 1023 244 981
f 1021 1023 981
f 244 1023 985
f 1023 256 1024
f 1024 246 985
f 1023 1024 985
f 246 1024 1022
f 1024 256 1025
f 1025 250 1022
f 1024 1025 1022
f 250 1025 997
f 1025 256 1026
f 1026 252 997
f 1025 1026 997
f 256 1005 1026
f 1005 254 1001
f 1001 252 1026
f 1005 1001 1026
f 259 1027 1029
f 1027 260 1028
f 1028 261 1029
f 1027 1028 1029
f 261 1028 1031
f 1028 260 1030
f 1030 262 1031
f 1028 1030 1031
f 263 1032 1034
f 1032 259 1033
f 1033 264 1034
f 1032 1033 1034
f 264 1033 1035
f 1033 259 1029
f 1029 261 1035
f 1033 1029 1035
f 265 1036 1038
f 1036 263 1037
f 1037 266 1038
f 1036 1037 1038
f 266 1037 1039
f 1037 263 1034
f 1034 264 1039
f 1037 1034 1039
f 267 1040 1042
f 1040 265 1041
f 1041 268 1042
f 1040 1041 1042
f 268 1041 1043
f 1041 265 1038
f 1038 266 1043
f 1041 1038 1043
f 269 1044 1046
f 1044 267 1045
f 1045 270 1046
f 1044 1045 1046
f 270 1045 1047
f 1045 267 1042
f 1042 268 1047
f 1045 1042 1047
f 271 1048 1050
f 1048 269 1049
f 1049 272 1050
f 1048 1049 1050
f 272 1049 1051
f 1049 269 1046
f 1046 270 1051
f 1049 1046 1051
f 260 1052 1030
f 1052 271 1053
f 1053 262 1030
f 1052 1053 1030
f 262 1053 1054
f 1053 271 1050
f 1050 272 1054
f 1053 1050 1054
f 261 1031 1056
f 1031 262 1055
f 1055 273 1056
f 1031 1055 1056
f 273 1055 1058
f 1055 262 1057
f 1057 274 1058
f 1055 1057 1058
f 264 1035 1060
f 1035 261 1059
f 1059 275 1060
f 1035 1059 1060
f 275 1059 1061
f 1059 261 1056
f 1056 273 1061
f 1059 1056 1061
f 266 1039 1063
f 1039 264 1062
f 1062 276 1063
f 1039 1062 1063
f 276 1062 1064
f 1062 264 1060
f 1060 275 1064
f 1062 1060 1064
f 268 1043 1066
f 1043 266 1065
f 1065 277 1066
f 1043 1065 1066
f 277 1065 1067
f 1065 266 1063
f 1063 276 1067
f 1065 1063 1067
f 270 1047 1069
f 1047 268 1068
f 1068 278 1069
f 1047 1068 1069
f 278 1068 1070
f 1068 268 1066
f 1066 277 1070
f 1068 1066 1070
f 272 1051 1072
f 1051 270 1071
f 1071 279 1072
f 1051 1071 1072
f 279 1071 1073
f 1071 270 1069
f 1069 278 1073
f 1071 1069 1073
f 262 1054 1057
f 1054 272 1074
f 1074 274 1057
f 1054 1074 1057
f 274 1074 1075
f 1074 272 1072
f 1072 279 1075
f 1074 1072 1075
f 273 1058 1077
f 1058 274 1076
f 1076 280 1077
f 1058 1076 1077
f 280 1076 1079
f 1076 274 1078
f 1078 281 1079
f 1076 1078 1079
f 275 1061 1081
f 1061 273 1080
f 1080 282 1081
f 1061 1080 1081
f 282 1080 1082
f 1080 273 1077
f 1077 280 1082
f 1080 1077 1082
f 276 1064 1084
f 1064 275 1083
f 1083 283 1084
f 1064 1083 1084
f 283 1083 1085
f 1083 275 1081
f 1081 282 1085
f 1083 1081 1085
f 277 1067 1087
f 1067 276 1086
f 1086 284 1087
f 1067 1086 1087
f 284 1086 1088
f 1086 276 1084
f 1084 283 1088
f 1086 1084 1088
f 278 1070 1090
f 1070 277 1089
f 1089 285 1090
f 1070 1089 1090
f 285 1089 1091
f 1089 277 1087
f 1087 284 1091
f 1089 1087 1091
f 279 1073 1093
f 1073 278 1092
f 1092 286 1093
f 1073 1092 1093
f 286 1092 1094
f 1092 278 1090
f 1090 285 1094
f 1092 1090 1094
f 274 1075 1078
f 1075 279 1095
f 1095 281 1078
f 1075 1095 1078
f 281 1095 1096
f 1095 279 1093
f 1093 286 1096
f 1095 1093 1096
f 280 1079 1098
f 1079 281 1097
f 1097 287 1098
f 1079 1097 1098
f 287 1097 1100
f 1097 281 1099
f 1099 288 1100
f 1097 1099 1100
f 282 1082 1102
f 1082 280 1101
f 1101 289 1102
f 1082 1101 1102
f 289 1101 1103
f 1101 280 1098
f 1098 287 1103
f 1101 1098 1103
f 283 1085 1105
f 1085 282 1104
f 1104 290 1105
f 1085 1104 1105
f 290 1104 1106
f 1104 282 1102
f 1102 289 1106
f 1104 1102 1106
f 284 1088 1108
f 1088 283 1107
f 1107 291 1108
f 1088 1107 1108
f 291 1107 1109
f 1107 283 1105
f 1105 290 1109
f 1107 1105 1109
f 285 1091 1111
f 1091 284 1110
f 1110 292 1111
f 1091 1110 1111
f 292 1110 1112
f 1110 284 1108
f 1108 291 1112
f 1110 1108 1112
f 286 1094 1114
f 1094 285 1113
f 1113 293 1114
f 1094 1113 1114
f 293 1113 1115
f 1113 285 1111
f 1111 292 1115
f 1113 1111 1115
f 281 1096 1099
f 1096 286 1116
f 1116 288 1099
f 1096 1116 1099
f 288 1116 1117
f 1116 286 1114
f 1114 293 1117
f 1116 1114 1117
f 287 1100 1119
f 1100 288 1118
f 1118 294 1119
f 1100 1118 1119
f 294 1118 1121
f 1118 288 1120
f 1120 295 1121
f 1118 1120 1121
f 289 1103 1123
f 1103 287 1122
f 1122 296 1123
f 1103 1122 1123
f 296 1122 1124
f 1122 287 1119
f 1119 294 1124
f 1122 1119 1124
f 290 1106 1126
f 1106 289 1125
f 1125 297 1126
f 1106 1125 1126
f 297 1125 1127
f 1125 289 1123
f 1123 296 1127
f 1125 1123 1127
f 291 1109 1129
f 1109 290 1128
f 1128 298 1129
f 1109 1128 1129
f 298 1128 1130
f 1128 290 1126
f 1126 297 1130
f 1128 1126 1130
f 292 1112 1132
f 1112 291 1131
f 1131 299 1132
f 1112 1131 1132
f 299 1131 1133
f 1131 291 1129
f 1129 298 1133
f 1131 1129 1133
f 293 1115 1135
f 1115 292 1134
f 1134 300 1135
f 1115 1134 1135
f 300 1134 1136
f 1134 292 1132
f 1132 299 1136
f 1134 1132 1136
f 288 1117 1120
f 1117 293 1137
f 1137 295 1120
f 1117 1137 1120
f 295 1137 1138
f 1137 293 1135
f 1135 300 1138
f 1137 1135 1138
f 263 1139 1032
f 1139 260 1027
f 1027 259 1032
f 1139 1027 1032
f 263 1140 1139
f 1140 271 1052
f 1052 260 1139
f 1140 1052 1139
f 263 1141 1140
f 1141 269 1048
f 1048 271 1140
f 1141 1048 1140
f 265 1142 1036
f 1142 269 1141
f 1141 263 1036
f 1142 1141 1036
f 267 1044 1040
f 1044 269 1142
f 1142 265 1040
f 1044 1142 1040
f 294 1121 1124
f 1121 295 1143
f 1143 296 1124
f 1121 1143 1124
f 295 1138 1143
f 1138 300 1144
f 1144 296 1143
f 1138 1144 1143
f 300 1136 1144
f 1136 299 1145
f 1145 296 1144
f 1136 1145 1144
f 296 1145 1127
f 1145 299 1146
f 1146 297 1127
f 1145 1146 1127
f 297 1146 1130
f 1146 299 1133
f 1133 298 1130
f 1146 1133 1130
