# Unified Preprocessed OBJ file from m780.obj
# Applied remeshing: Yes
# Applied 4-step normalization: centering, PCA alignment, flipping, scaling
# Generated on 2025-09-29 15:15:31

v -0.357881 -0.207608 -0.050009
v -0.354631 0.135751 0.298236
v -0.354760 0.122111 0.311685
v -0.358010 -0.221249 -0.036559
v -0.366518 0.152582 0.315191
v -0.366647 0.138942 0.328641
v -0.389101 0.161453 0.323970
v -0.389230 0.147812 0.337420
v -0.414760 0.160916 0.323179
v -0.414889 0.147275 0.336629
v -0.438034 0.152903 0.314828
v -0.438164 0.139262 0.328278
v -0.455797 0.139214 0.300775
v -0.455926 0.125573 0.314224
v -0.465136 0.121557 0.282777
v -0.465265 0.107916 0.296227
v -0.467308 -0.107932 0.050022
v -0.467438 -0.121573 0.063472
v -0.401839 -0.207192 -0.050009
v -0.401969 -0.220833 -0.036559
v 0.355495 0.129025 0.298240
v 0.352245 -0.214335 -0.050004
v 0.352116 -0.227975 -0.036554
v 0.355366 0.115384 0.311690
v 0.367698 0.145628 0.315196
v 0.367569 0.131987 0.328646
v 0.390449 0.154069 0.323975
v 0.390320 0.140428 0.337425
v 0.416092 0.153046 0.323184
v 0.415963 0.139405 0.336634
v 0.439211 0.144594 0.314834
v 0.439082 0.130953 0.328284
v 0.456711 0.130570 0.300780
v 0.456582 0.116929 0.314230
v 0.465715 0.112739 0.282783
v 0.465585 0.099099 0.296233
v 0.463542 -0.116749 0.050029
v 0.463413 -0.130390 0.063479
v 0.396207 -0.214751 -0.050004
v 0.396078 -0.228392 -0.036554
v -0.410510 0.033689 0.221477
v -0.410381 0.047330 0.208027
v 0.409436 0.025922 0.221483
v 0.409565 0.039563 0.208033
v 0.291091 -0.097003 -0.155014
v 0.327486 -0.097307 -0.154889
v 0.325108 -0.348281 0.032266
v 0.288711 -0.347977 0.032140
v 0.291147 -0.091054 -0.147048
v 0.288768 -0.342027 0.040106
v 0.327543 -0.091358 -0.146923
v 0.325164 -0.342329 0.040230
v 0.212233 -0.096260 -0.155018
v 0.248628 -0.096563 -0.154892
v 0.246250 -0.347535 0.032260
v 0.209854 -0.347231 0.032134
v 0.212289 -0.090310 -0.147051
v 0.209910 -0.341281 0.040101
v 0.248685 -0.090614 -0.146926
v 0.246306 -0.341585 0.040226
v 0.133374 -0.095516 -0.155022
v 0.169771 -0.095820 -0.154897
v 0.167392 -0.346791 0.032256
v 0.130996 -0.346487 0.032131
v 0.133430 -0.089567 -0.147055
v 0.131052 -0.340538 0.040097
v 0.169827 -0.089869 -0.146932
v 0.167449 -0.340842 0.040222
v 0.054516 -0.094770 -0.155027
v 0.090913 -0.095074 -0.154901
v 0.088534 -0.346047 0.032252
v 0.052138 -0.345743 0.032127
v 0.054571 -0.088821 -0.147061
v 0.052193 -0.339794 0.040093
v 0.090968 -0.089125 -0.146935
v 0.088590 -0.340098 0.040218
v -0.024343 -0.094026 -0.155030
v 0.012054 -0.094330 -0.154905
v 0.009676 -0.345303 0.032249
v -0.026721 -0.344999 0.032124
v -0.024286 -0.088077 -0.147064
v -0.026665 -0.339050 0.040090
v 0.012110 -0.088381 -0.146939
v 0.009732 -0.339354 0.040215
v -0.103201 -0.093282 -0.155034
v -0.066804 -0.093586 -0.154908
v -0.069182 -0.344557 0.032243
v -0.105579 -0.344254 0.032119
v -0.103145 -0.087333 -0.147068
v -0.105524 -0.338304 0.040085
v -0.066749 -0.087637 -0.146942
v -0.069127 -0.338608 0.040210
v -0.182059 -0.092539 -0.155038
v -0.145663 -0.092843 -0.154913
v -0.148041 -0.343813 0.032240
v -0.184438 -0.343510 0.032115
v -0.182003 -0.086589 -0.147071
v -0.184381 -0.337560 0.040081
v -0.145606 -0.086893 -0.146946
v -0.147986 -0.337864 0.040207
v -0.260917 -0.091793 -0.155043
v -0.224521 -0.092096 -0.154917
v -0.226900 -0.343070 0.032236
v -0.263296 -0.342766 0.032111
v -0.260862 -0.085842 -0.147077
v -0.263240 -0.336817 0.040077
v -0.224465 -0.086146 -0.146951
v -0.226844 -0.337121 0.040203
v -0.339777 -0.091049 -0.155047
v -0.303380 -0.091353 -0.154922
v -0.305759 -0.342326 0.032232
v -0.342155 -0.342022 0.032108
v -0.339721 -0.085099 -0.147081
v -0.342099 -0.336073 0.040074
v -0.303324 -0.085403 -0.146955
v -0.305702 -0.336377 0.040199
v -0.364164 -0.342049 0.028448
v -0.366062 -0.403498 0.074203
v -0.365969 -0.393728 0.087284
v -0.364074 -0.332279 0.041530
v -0.361232 -0.032699 -0.202615
v -0.363130 -0.094150 -0.156859
v -0.363037 -0.084379 -0.143776
v -0.361142 -0.022928 -0.189532
v 0.351689 -0.410296 0.074207
v 0.353586 -0.348848 0.028453
v 0.353677 -0.339077 0.041535
v 0.351781 -0.400526 0.087289
v 0.354620 -0.100948 -0.156854
v 0.356518 -0.039497 -0.202610
v 0.356608 -0.029727 -0.189528
v 0.354713 -0.091178 -0.143772
v -0.355884 -0.009293 -0.186156
v -0.353298 0.263515 -0.455148
v -0.395760 0.263917 -0.455149
v -0.398346 -0.008891 -0.186156
v -0.359447 -0.385308 0.096906
v -0.401910 -0.384905 0.096905
v -0.359536 -0.394926 0.100804
v -0.401999 -0.394523 0.100804
v -0.359635 -0.405315 0.099922
v -0.402097 -0.404913 0.099921
v -0.359720 -0.414172 0.094420
v -0.402183 -0.413769 0.094420
v -0.359772 -0.419563 0.085495
v -0.402234 -0.419161 0.085494
v -0.359779 -0.420318 0.075097
v -0.402241 -0.419916 0.075096
v -0.359741 -0.416269 0.065488
v -0.402203 -0.415867 0.065488
v -0.359694 -0.411305 0.060583
v -0.402156 -0.410903 0.060583
v -0.356181 -0.040654 -0.217964
v -0.398643 -0.040252 -0.217965
v -0.353582 0.232155 -0.486956
v -0.396044 0.232557 -0.486957
v 0.356593 0.256791 -0.455144
v 0.354007 -0.016017 -0.186151
v 0.396470 -0.016420 -0.186151
v 0.399055 0.256389 -0.455143
v 0.350444 -0.392032 0.096910
v 0.392906 -0.392434 0.096911
v 0.350353 -0.401649 0.100809
v 0.392815 -0.402052 0.100809
v 0.350254 -0.412039 0.099926
v 0.392717 -0.412441 0.099927
v 0.350170 -0.420896 0.094425
v 0.392633 -0.421299 0.094425
v 0.350119 -0.426288 0.085499
v 0.392582 -0.426690 0.085500
v 0.350115 -0.427042 0.075101
v 0.392577 -0.427444 0.075101
v 0.350154 -0.422993 0.065493
v 0.392615 -0.423395 0.065493
v 0.350201 -0.418029 0.060588
v 0.392662 -0.418431 0.060588
v 0.353713 -0.047378 -0.217960
v 0.396175 -0.047780 -0.217959
v 0.356286 0.225431 -0.486952
v 0.398748 0.225029 -0.486952
v -0.356676 -0.093094 -0.143979
v -0.399137 -0.092692 -0.143979
v 0.353213 -0.099818 -0.143974
v 0.395676 -0.100220 -0.143974
v -0.354538 0.130725 0.293150
v -0.350354 0.572154 -0.142103
v -0.392816 0.572556 -0.142103
v -0.397000 0.131127 0.293150
v -0.350640 0.540794 -0.173910
v -0.354837 0.099366 0.261343
v -0.397300 0.099768 0.261342
v -0.393103 0.541196 -0.173911
v 0.359492 0.565430 -0.142098
v 0.355307 0.124002 0.293155
v 0.397770 0.123599 0.293155
v 0.401954 0.565028 -0.142098
v 0.355013 0.092642 0.261347
v 0.359184 0.534070 -0.173906
v 0.401647 0.533668 -0.173905
v 0.397475 0.092240 0.261348
v -0.394635 0.024033 -0.137079
v -0.395157 -0.015781 -0.177639
v -0.395246 -0.025136 -0.168415
v -0.394723 0.014681 -0.127858
v -0.394193 0.071208 -0.089230
v -0.394716 0.031394 -0.129789
v -0.394804 0.022040 -0.120565
v -0.394282 0.061857 -0.080008
v -0.393750 0.118385 -0.041380
v -0.394274 0.078570 -0.081940
v -0.394363 0.069215 -0.072717
v -0.393838 0.109033 -0.032159
v -0.393308 0.165560 0.006469
v -0.393831 0.125745 -0.034091
v -0.393920 0.116392 -0.024867
v -0.393397 0.156208 0.015690
v -0.392867 0.212736 0.054319
v -0.393389 0.172922 0.013759
v -0.393478 0.163567 0.022982
v -0.392955 0.203384 0.063539
v -0.392425 0.259911 0.102167
v -0.392948 0.220097 0.061608
v -0.393037 0.210743 0.070832
v -0.392514 0.250559 0.111388
v 0.418175 0.016334 -0.137073
v 0.417652 -0.023480 -0.177633
v 0.417564 -0.032835 -0.168409
v 0.418086 0.006982 -0.127852
v 0.418619 0.063509 -0.089224
v 0.418096 0.023695 -0.129784
v 0.418007 0.014341 -0.120560
v 0.418530 0.054158 -0.080003
v 0.419060 0.110685 -0.041375
v 0.418537 0.070871 -0.081935
v 0.418449 0.061517 -0.072711
v 0.418971 0.101334 -0.032153
v 0.419501 0.157861 0.006475
v 0.418979 0.118047 -0.034086
v 0.418890 0.108692 -0.024862
v 0.419413 0.148510 0.015696
v 0.419946 0.205037 0.054324
v 0.419420 0.165222 0.013764
v 0.419332 0.155868 0.022988
v 0.419857 0.195685 0.063545
v 0.420386 0.252212 0.102173
v 0.419865 0.212398 0.061613
v 0.419776 0.203044 0.070837
v 0.420298 0.242860 0.111393
v 0.381598 -0.028573 -0.184509
v 0.381828 0.007833 -0.220344
v 0.384504 0.290553 0.066413
v 0.384274 0.254147 0.102249
v 0.366087 -0.028426 -0.184509
v 0.368763 0.254294 0.102249
v 0.366314 0.007979 -0.220345
v 0.368990 0.290698 0.066411
v -0.383705 -0.021324 -0.184513
v -0.368193 -0.021471 -0.184514
v -0.365517 0.261249 0.102244
v -0.381029 0.261396 0.102244
v -0.383245 0.015080 -0.220349
v -0.380569 0.297800 0.066408
v -0.367734 0.014932 -0.220350
v -0.365058 0.297651 0.066406
v -0.365121 0.431712 -0.066287
v -0.383318 0.431885 -0.066287
v -0.383663 0.395510 -0.030421
v -0.365465 0.395337 -0.030421
v -0.385949 0.153935 -0.348206
v -0.367752 0.153762 -0.348206
v -0.368096 0.117387 -0.312340
v -0.386294 0.117560 -0.312340
v 0.389792 0.424562 -0.066282
v 0.371594 0.424734 -0.066282
v 0.371250 0.388359 -0.030416
v 0.389447 0.388187 -0.030416
v 0.368963 0.146784 -0.348201
v 0.387161 0.146612 -0.348201
v 0.386816 0.110237 -0.312335
v 0.368619 0.110409 -0.312335
v -0.276776 0.368296 0.004976
v -0.352254 0.369010 0.004976
v -0.352127 0.382460 0.018617
v -0.276649 0.381745 0.018618
v -0.224277 0.342792 0.029630
v -0.224150 0.356242 0.043271
v -0.167839 0.322754 0.048860
v -0.167712 0.336203 0.062501
v -0.108035 0.308096 0.062753
v -0.107906 0.321545 0.076394
v -0.046376 0.298561 0.071579
v -0.046249 0.312010 0.085220
v -0.008084 0.293495 0.076216
v -0.007956 0.306944 0.089857
v 0.012003 0.293305 0.076216
v 0.012130 0.306754 0.089857
v 0.050384 0.297644 0.071580
v 0.050511 0.311094 0.085221
v 0.112212 0.306010 0.062755
v 0.112339 0.319459 0.076395
v 0.172283 0.319532 0.048862
v 0.172412 0.332981 0.062503
v 0.229092 0.338498 0.029633
v 0.229220 0.351947 0.043274
v 0.282066 0.362993 0.004988
v 0.282194 0.376443 0.018629
v 0.357541 0.362280 0.004987
v 0.357668 0.375729 0.018628
v 0.356504 0.253179 0.112562
v 0.356631 0.266628 0.126203
v -0.353282 0.259902 0.112557
v -0.353155 0.273352 0.126199
v -0.356256 -0.035928 0.124113
v -0.354696 0.128931 0.304960
v -0.356320 -0.042749 0.130838
v -0.357945 -0.214429 -0.043284
v -0.356385 -0.049569 0.137563
v -0.360574 0.144167 0.306713
v -0.366583 0.145762 0.321916
v -0.360639 0.137347 0.313438
v -0.360704 0.130526 0.320163
v -0.377809 0.157018 0.319581
v -0.389165 0.154632 0.330695
v -0.377874 0.150197 0.326306
v -0.377939 0.143377 0.333031
v -0.401930 0.161184 0.323574
v -0.414824 0.154095 0.329904
v -0.401995 0.154364 0.330299
v -0.402059 0.147543 0.337024
v -0.426397 0.156909 0.319004
v -0.438099 0.146082 0.321553
v -0.426462 0.150089 0.325728
v -0.426526 0.143268 0.332453
v -0.446915 0.146058 0.307801
v -0.455861 0.132393 0.307499
v -0.446980 0.139238 0.314526
v -0.447045 0.132418 0.321251
v -0.460466 0.130385 0.291776
v -0.465201 0.114736 0.289502
v -0.460531 0.123565 0.298501
v -0.460596 0.116745 0.305226
v -0.466222 0.006812 0.166400
v -0.467373 -0.114753 0.056747
v -0.466287 -0.000008 0.173125
v -0.466351 -0.006829 0.179850
v -0.434574 -0.157562 0.000007
v -0.401904 -0.214012 -0.043284
v -0.434638 -0.164382 0.006732
v -0.434703 -0.171203 0.013456
v -0.379860 -0.207400 -0.050009
v -0.379925 -0.214220 -0.043284
v -0.379989 -0.221041 -0.036559
v 0.353870 -0.042655 0.124118
v 0.352181 -0.221155 -0.043279
v 0.353806 -0.049475 0.130843
v 0.355430 0.122205 0.304965
v 0.353741 -0.056295 0.137568
v 0.361597 0.137326 0.306718
v 0.361532 0.130506 0.313443
v 0.367634 0.138808 0.321921
v 0.361467 0.123686 0.320168
v 0.379074 0.149848 0.319586
v 0.379009 0.143028 0.326311
v 0.390384 0.147249 0.330700
v 0.378944 0.136208 0.333036
v 0.403271 0.153557 0.323580
v 0.403206 0.146737 0.330305
v 0.416027 0.146226 0.329909
v 0.403141 0.139917 0.337030
v 0.427651 0.148820 0.319009
v 0.427587 0.141999 0.325734
v 0.439146 0.137773 0.321559
v 0.427522 0.135179 0.332459
v 0.447961 0.137582 0.307807
v 0.447896 0.130762 0.314532
v 0.456646 0.123750 0.307505
v 0.447832 0.123941 0.321257
v 0.461213 0.121655 0.291782
v 0.461148 0.114834 0.298506
v 0.465650 0.105919 0.289508
v 0.461084 0.108014 0.305231
v 0.464628 -0.002005 0.166406
v 0.464564 -0.008825 0.173131
v 0.463478 -0.123569 0.056754
v 0.464499 -0.015646 0.179856
v 0.429875 -0.165750 0.000013
v 0.429810 -0.172570 0.006737
v 0.396142 -0.221571 -0.043279
v 0.429745 -0.179391 0.013462
v 0.374226 -0.214543 -0.050004
v 0.374162 -0.221363 -0.043279
v 0.374097 -0.228183 -0.036554
v -0.384260 -0.093780 0.092459
v -0.382635 0.077900 0.266581
v -0.388579 0.086315 0.275059
v -0.399870 0.090750 0.279449
v -0.412700 0.090482 0.279053
v -0.424337 0.086475 0.274878
v -0.433218 0.079631 0.267851
v -0.437888 0.070802 0.258852
v -0.438974 -0.043942 0.142475
v -0.406239 -0.093572 0.092459
v -0.384131 -0.080139 0.079009
v -0.382506 0.091540 0.253131
v -0.388449 0.099956 0.261609
v -0.399741 0.104391 0.265999
v -0.412570 0.104123 0.265603
v -0.424208 0.100116 0.261428
v -0.433089 0.093272 0.254401
v -0.437758 0.084443 0.245402
v -0.438845 -0.030301 0.129025
v -0.406110 -0.079931 0.079009
v 0.380776 -0.101026 0.092464
v 0.382401 0.070653 0.266586
v 0.388502 0.078955 0.275064
v 0.399878 0.083175 0.279454
v 0.412699 0.082664 0.279059
v 0.424259 0.078438 0.274884
v 0.433009 0.071426 0.267856
v 0.437510 0.062511 0.258858
v 0.436424 -0.052234 0.142481
v 0.402757 -0.101235 0.092464
v 0.380905 -0.087386 0.079014
v 0.382530 0.084294 0.253137
v 0.388632 0.092596 0.261614
v 0.400007 0.096816 0.266004
v 0.412828 0.096305 0.265609
v 0.424388 0.092078 0.261434
v 0.433138 0.085067 0.254407
v 0.437640 0.076151 0.245408
v 0.436554 -0.038593 0.129031
v 0.402886 -0.087594 0.079015
v 0.309288 -0.097155 -0.154952
v 0.326297 -0.222794 -0.061312
v 0.308099 -0.222642 -0.061374
v 0.289901 -0.222490 -0.061437
v 0.306910 -0.348129 0.032203
v 0.291119 -0.094029 -0.151031
v 0.289929 -0.219516 -0.057454
v 0.289957 -0.216541 -0.053471
v 0.288739 -0.345002 0.036123
v 0.309345 -0.091206 -0.146985
v 0.308155 -0.216692 -0.053408
v 0.326353 -0.216843 -0.053347
v 0.306966 -0.342178 0.040168
v 0.327514 -0.094332 -0.150906
v 0.326325 -0.219818 -0.057330
v 0.325136 -0.345305 0.036248
v 0.230431 -0.096411 -0.154955
v 0.247439 -0.222049 -0.061316
v 0.229241 -0.221897 -0.061379
v 0.211044 -0.221746 -0.061442
v 0.228052 -0.347383 0.032197
v 0.212261 -0.093285 -0.151035
v 0.211072 -0.218771 -0.057459
v 0.211099 -0.215796 -0.053475
v 0.209882 -0.344256 0.036117
v 0.230487 -0.090462 -0.146989
v 0.229297 -0.215947 -0.053413
v 0.247496 -0.216099 -0.053350
v 0.228108 -0.341433 0.040163
v 0.248657 -0.093588 -0.150909
v 0.247467 -0.219074 -0.057333
v 0.246278 -0.344560 0.036243
v 0.151572 -0.095668 -0.154959
v 0.168581 -0.221306 -0.061320
v 0.150383 -0.221154 -0.061383
v 0.132185 -0.221002 -0.061446
v 0.149194 -0.346639 0.032193
v 0.133402 -0.092541 -0.151039
v 0.132213 -0.218027 -0.057462
v 0.132241 -0.215052 -0.053479
v 0.131024 -0.343513 0.036114
v 0.151629 -0.089718 -0.146994
v 0.150439 -0.215203 -0.053418
v 0.168638 -0.215355 -0.053355
v 0.149250 -0.340690 0.040159
v 0.169799 -0.092844 -0.150914
v 0.168610 -0.218331 -0.057337
v 0.167420 -0.343817 0.036239
v 0.072714 -0.094922 -0.154964
v 0.089724 -0.220561 -0.061325
v 0.071525 -0.220409 -0.061387
v 0.053327 -0.220257 -0.061450
v 0.070336 -0.345895 0.032190
v 0.054544 -0.091796 -0.151044
v 0.053355 -0.217282 -0.057467
v 0.053382 -0.214307 -0.053484
v 0.052165 -0.342769 0.036110
v 0.072770 -0.088973 -0.146998
v 0.071581 -0.214459 -0.053421
v 0.089779 -0.214611 -0.053358
v 0.070391 -0.339946 0.040156
v 0.090940 -0.092100 -0.150918
v 0.089751 -0.217586 -0.057342
v 0.088562 -0.343073 0.036235
v -0.006144 -0.094178 -0.154968
v 0.010865 -0.219817 -0.061328
v -0.007334 -0.219665 -0.061391
v -0.025532 -0.219513 -0.061453
v -0.008523 -0.345151 0.032186
v -0.024315 -0.091052 -0.151047
v -0.025504 -0.216538 -0.057470
v -0.025476 -0.213563 -0.053487
v -0.026693 -0.342025 0.036107
v -0.006088 -0.088229 -0.147002
v -0.007277 -0.213715 -0.053425
v 0.010921 -0.213867 -0.053362
v -0.008466 -0.339202 0.040152
v 0.012082 -0.091355 -0.150922
v 0.010893 -0.216842 -0.057345
v 0.009704 -0.342329 0.036232
v -0.085002 -0.093434 -0.154971
v -0.067993 -0.219072 -0.061332
v -0.086191 -0.218920 -0.061395
v -0.104390 -0.218768 -0.061457
v -0.087381 -0.344405 0.032181
v -0.103173 -0.090307 -0.151051
v -0.104362 -0.215793 -0.057474
v -0.104334 -0.212819 -0.053491
v -0.105551 -0.341279 0.036102
v -0.084947 -0.087485 -0.147005
v -0.086136 -0.212970 -0.053429
v -0.067938 -0.213122 -0.053366
v -0.087325 -0.338456 0.040148
v -0.066776 -0.090611 -0.150925
v -0.067965 -0.216097 -0.057349
v -0.069155 -0.341583 0.036227
v -0.163861 -0.092691 -0.154975
v -0.146852 -0.218328 -0.061336
v -0.165050 -0.218176 -0.061399
v -0.183249 -0.218025 -0.061462
v -0.166239 -0.343662 0.032177
v -0.182031 -0.089564 -0.151054
v -0.183220 -0.215050 -0.057478
v -0.183192 -0.212074 -0.053495
v -0.184410 -0.340535 0.036098
v -0.163805 -0.086741 -0.147008
v -0.164994 -0.212226 -0.053432
v -0.146796 -0.212378 -0.053370
v -0.166184 -0.337712 0.040144
v -0.145635 -0.089868 -0.150929
v -0.146824 -0.215354 -0.057353
v -0.148013 -0.340839 0.036223
v -0.242719 -0.091944 -0.154980
v -0.225710 -0.217583 -0.061341
v -0.243909 -0.217431 -0.061404
v -0.262106 -0.217280 -0.061466
v -0.245098 -0.342918 0.032173
v -0.260890 -0.088818 -0.151060
v -0.262079 -0.214304 -0.057483
v -0.262051 -0.211330 -0.053500
v -0.263268 -0.339792 0.036094
v -0.242664 -0.085994 -0.147014
v -0.243853 -0.211482 -0.053437
v -0.225654 -0.211634 -0.053374
v -0.245042 -0.336969 0.040140
v -0.224493 -0.089121 -0.150934
v -0.225682 -0.214608 -0.057357
v -0.226872 -0.340095 0.036219
v -0.321579 -0.091201 -0.154984
v -0.304570 -0.216839 -0.061345
v -0.322768 -0.216687 -0.061407
v -0.340966 -0.216536 -0.061470
v -0.323957 -0.342174 0.032170
v -0.339749 -0.088074 -0.151064
v -0.340938 -0.213561 -0.057487
v -0.340910 -0.210586 -0.053504
v -0.342127 -0.339048 0.036091
v -0.321522 -0.085251 -0.147018
v -0.322712 -0.210738 -0.053441
v -0.304513 -0.210890 -0.053378
v -0.323901 -0.336225 0.040136
v -0.303352 -0.088378 -0.150939
v -0.304541 -0.213865 -0.057361
v -0.305731 -0.339351 0.036216
v -0.365113 -0.372774 0.051325
v -0.366016 -0.398613 0.080743
v -0.365066 -0.367889 0.057866
v -0.364119 -0.337164 0.034989
v -0.365022 -0.363003 0.064407
v -0.362181 -0.063424 -0.179737
v -0.363084 -0.089264 -0.150318
v -0.362135 -0.058539 -0.173196
v -0.361187 -0.027813 -0.196074
v -0.362090 -0.053654 -0.166654
v 0.352638 -0.379572 0.051330
v 0.353632 -0.343963 0.034994
v 0.352683 -0.374687 0.057871
v 0.351735 -0.405411 0.080748
v 0.352729 -0.369802 0.064412
v -0.007094 -0.397127 0.087287
v -0.007140 -0.402012 0.080746
v -0.007187 -0.406897 0.074205
v -0.006238 -0.376173 0.051328
v -0.005289 -0.345449 0.028450
v -0.005244 -0.340563 0.034992
v -0.005199 -0.335678 0.041533
v -0.006147 -0.366403 0.064410
v 0.355569 -0.070223 -0.179732
v 0.356563 -0.034612 -0.196069
v 0.355614 -0.065337 -0.173191
v 0.354667 -0.096063 -0.150313
v 0.355661 -0.060452 -0.166650
v -0.004162 -0.087778 -0.143774
v -0.004208 -0.092664 -0.150315
v -0.004255 -0.097549 -0.156857
v -0.003306 -0.066823 -0.179735
v -0.002357 -0.036098 -0.202612
v -0.002312 -0.031213 -0.196071
v -0.002267 -0.026327 -0.189530
v -0.003215 -0.057053 -0.166652
v -0.354591 0.127111 -0.320652
v -0.374529 0.263716 -0.455148
v -0.375822 0.127312 -0.320652
v -0.377115 -0.009092 -0.186156
v -0.397053 0.127513 -0.320653
v -0.357665 -0.197300 -0.044625
v -0.378897 -0.197099 -0.044625
v -0.380678 -0.385106 0.096905
v -0.400128 -0.196898 -0.044626
v -0.359492 -0.390117 0.098855
v -0.380723 -0.389916 0.098855
v -0.380768 -0.394724 0.100804
v -0.401954 -0.389714 0.098855
v -0.359585 -0.400120 0.100363
v -0.380817 -0.399919 0.100363
v -0.380866 -0.405114 0.099922
v -0.402048 -0.399718 0.100363
v -0.359678 -0.409744 0.097171
v -0.380909 -0.409542 0.097171
v -0.380952 -0.413971 0.094420
v -0.402140 -0.409341 0.097171
v -0.359746 -0.416868 0.089957
v -0.380978 -0.416666 0.089957
v -0.381003 -0.419362 0.085494
v -0.402208 -0.416465 0.089957
v -0.359776 -0.419941 0.080296
v -0.381007 -0.419740 0.080295
v -0.381010 -0.420117 0.075096
v -0.402237 -0.419539 0.080295
v -0.359760 -0.418293 0.070292
v -0.380991 -0.418092 0.070292
v -0.380972 -0.416068 0.065488
v -0.402222 -0.417891 0.070292
v -0.359717 -0.413787 0.063036
v -0.380948 -0.413586 0.063035
v -0.380925 -0.411104 0.060583
v -0.402179 -0.413385 0.063035
v -0.357937 -0.225979 -0.078691
v -0.379168 -0.225778 -0.078691
v -0.377412 -0.040453 -0.217965
v -0.400399 -0.225577 -0.078691
v -0.354881 0.095750 -0.352460
v -0.376113 0.095952 -0.352461
v -0.374813 0.232356 -0.486957
v -0.397344 0.096153 -0.352461
v -0.353440 0.247835 -0.471052
v -0.374671 0.248036 -0.471053
v -0.395902 0.248237 -0.471053
v 0.355300 0.120387 -0.320648
v 0.375238 -0.016219 -0.186151
v 0.376531 0.120186 -0.320647
v 0.377824 0.256590 -0.455143
v 0.397762 0.119985 -0.320647
v 0.352225 -0.204025 -0.044621
v 0.371675 -0.392233 0.096910
v 0.373457 -0.204226 -0.044620
v 0.394688 -0.204427 -0.044620
v 0.350398 -0.396840 0.098860
v 0.371584 -0.401851 0.100809
v 0.371629 -0.397042 0.098860
v 0.392861 -0.397243 0.098860
v 0.350303 -0.406844 0.100368
v 0.371485 -0.412240 0.099927
v 0.371535 -0.407045 0.100368
v 0.392766 -0.407247 0.100368
v 0.350212 -0.416467 0.097176
v 0.371402 -0.421097 0.094425
v 0.371444 -0.416669 0.097176
v 0.392675 -0.416870 0.097176
v 0.350145 -0.423592 0.089962
v 0.371351 -0.426489 0.085499
v 0.371376 -0.423793 0.089962
v 0.392607 -0.423994 0.089962
v 0.350117 -0.426665 0.080300
v 0.371346 -0.427243 0.075101
v 0.371348 -0.426866 0.080300
v 0.392579 -0.427067 0.080301
v 0.350134 -0.425018 0.070297
v 0.371384 -0.423194 0.065493
v 0.371365 -0.425219 0.070297
v 0.392596 -0.425420 0.070297
v 0.350177 -0.420511 0.063040
v 0.371432 -0.418230 0.060588
v 0.371408 -0.420712 0.063040
v 0.392639 -0.420913 0.063041
v 0.351957 -0.232704 -0.078686
v 0.374944 -0.047579 -0.217960
v 0.373188 -0.232905 -0.078686
v 0.394419 -0.233106 -0.078686
v 0.355000 0.089026 -0.352456
v 0.377517 0.225230 -0.486952
v 0.376231 0.088825 -0.352456
v 0.397461 0.088624 -0.352455
v 0.356440 0.241111 -0.471048
v 0.377671 0.240910 -0.471048
v 0.398902 0.240709 -0.471047
v -0.354987 0.085211 -0.299564
v -0.356280 -0.051194 -0.165068
v -0.358061 -0.239201 -0.023537
v -0.358106 -0.244010 -0.021588
v -0.358155 -0.249204 -0.022029
v -0.358198 -0.253633 -0.024779
v -0.358224 -0.256329 -0.029242
v -0.358228 -0.256706 -0.034441
v -0.358208 -0.254681 -0.039245
v -0.358185 -0.252200 -0.041698
v -0.356428 -0.066874 -0.180972
v -0.355129 0.069530 -0.315468
v -0.397449 0.085613 -0.299564
v -0.398742 -0.050792 -0.165068
v -0.400523 -0.238799 -0.023537
v -0.400568 -0.243608 -0.021588
v -0.400617 -0.248802 -0.022029
v -0.400660 -0.253231 -0.024779
v -0.400686 -0.255927 -0.029242
v -0.400689 -0.256304 -0.034442
v -0.400670 -0.254279 -0.039246
v -0.400646 -0.251798 -0.041698
v -0.398890 -0.066472 -0.180972
v -0.397591 0.069932 -0.315468
v 0.354903 0.078486 -0.299559
v 0.353610 -0.057918 -0.165063
v 0.351828 -0.245925 -0.023532
v 0.351783 -0.250734 -0.021583
v 0.351734 -0.255929 -0.022024
v 0.351692 -0.260357 -0.024775
v 0.351666 -0.263053 -0.029238
v 0.351664 -0.263430 -0.034437
v 0.351683 -0.261406 -0.039241
v 0.351707 -0.258924 -0.041693
v 0.353463 -0.073598 -0.180967
v 0.354750 0.062806 -0.315463
v 0.397365 0.078084 -0.299559
v 0.396073 -0.058320 -0.165063
v 0.394291 -0.246327 -0.023532
v 0.394245 -0.251136 -0.021583
v 0.394196 -0.256331 -0.022024
v 0.394154 -0.260760 -0.024774
v 0.394129 -0.263455 -0.029237
v 0.394126 -0.263832 -0.034436
v 0.394145 -0.261808 -0.039240
v 0.394169 -0.259326 -0.041693
v 0.395925 -0.074000 -0.180967
v 0.397212 0.062404 -0.315463
v -0.352446 0.351439 0.075524
v -0.371585 0.572355 -0.142103
v -0.373677 0.351640 0.075524
v -0.375769 0.130926 0.293150
v -0.394908 0.351842 0.075523
v -0.352739 0.320080 0.043716
v -0.376068 0.099567 0.261342
v -0.373970 0.320281 0.043716
v -0.371871 0.540995 -0.173910
v -0.395201 0.320482 0.043716
v 0.357399 0.344716 0.075528
v 0.376539 0.123800 0.293155
v 0.378631 0.344515 0.075529
v 0.380723 0.565229 -0.142098
v 0.399862 0.344314 0.075529
v 0.357098 0.313356 0.043721
v 0.380415 0.533869 -0.173905
v 0.378330 0.313155 0.043721
v 0.376244 0.092441 0.261347
v 0.399561 0.312954 0.043721
v -0.392959 0.556876 -0.158007
v -0.395058 0.336162 0.059620
v -0.397150 0.115448 0.277246
v -0.354688 0.115045 0.277246
v -0.352596 0.335760 0.059620
v -0.350497 0.556474 -0.158006
v 0.401800 0.549348 -0.158001
v 0.399708 0.328634 0.059625
v 0.397623 0.107920 0.277251
v 0.359338 0.549750 -0.158002
v 0.357246 0.329036 0.059625
v 0.355160 0.108322 0.277251
v -0.375918 0.115246 0.277246
v -0.371728 0.556675 -0.158007
v 0.376391 0.108121 0.277251
v 0.380569 0.549549 -0.158002
v -0.394896 0.004126 -0.157359
v -0.395202 -0.020459 -0.173027
v -0.394940 -0.000552 -0.152747
v -0.394679 0.019357 -0.132468
v -0.394985 -0.005227 -0.148136
v -0.394454 0.051301 -0.109510
v -0.394760 0.026717 -0.125177
v -0.394499 0.046624 -0.104897
v -0.394237 0.066533 -0.084619
v -0.394543 0.041949 -0.100287
v -0.394012 0.098477 -0.061660
v -0.394319 0.073893 -0.077328
v -0.394056 0.093800 -0.057048
v -0.393794 0.113709 -0.036769
v -0.394101 0.089124 -0.052438
v -0.393570 0.145653 -0.013811
v -0.393875 0.121069 -0.029479
v -0.393614 0.140976 -0.009199
v -0.393353 0.160884 0.011080
v -0.393658 0.136300 -0.004588
v -0.393128 0.192829 0.034039
v -0.393434 0.168244 0.018371
v -0.393172 0.188151 0.038651
v -0.392911 0.208060 0.058929
v -0.393217 0.183476 0.043261
v -0.392687 0.240004 0.081888
v -0.392992 0.215420 0.066220
v -0.392731 0.235327 0.086499
v -0.392470 0.255235 0.106778
v -0.392775 0.230651 0.091110
v 0.417914 -0.003573 -0.157353
v 0.417608 -0.028157 -0.173021
v 0.417869 -0.008250 -0.152741
v 0.418131 0.011658 -0.132463
v 0.417825 -0.012926 -0.148131
v 0.011159 -0.028985 -0.168412
v 0.011203 -0.024308 -0.173024
v 0.011248 -0.019631 -0.177636
v 0.011509 0.000276 -0.157356
v 0.011770 0.020183 -0.137076
v 0.011726 0.015507 -0.132466
v 0.011682 0.010832 -0.127855
v 0.011420 -0.009077 -0.148134
v 0.418357 0.043602 -0.109504
v 0.418051 0.019018 -0.125172
v 0.418313 0.038925 -0.104892
v 0.418574 0.058834 -0.084614
v 0.418269 0.034249 -0.100282
v 0.011601 0.018191 -0.120563
v 0.011646 0.022868 -0.125174
v 0.011690 0.027545 -0.129787
v 0.011951 0.047452 -0.109507
v 0.012213 0.067359 -0.089227
v 0.012168 0.062683 -0.084616
v 0.012124 0.058008 -0.080006
v 0.011863 0.038099 -0.100284
v 0.418799 0.090778 -0.061655
v 0.418493 0.066194 -0.077323
v 0.418754 0.086101 -0.057043
v 0.419016 0.106010 -0.036764
v 0.418710 0.081425 -0.052432
v 0.012043 0.065366 -0.072714
v 0.012087 0.070043 -0.077326
v 0.012131 0.074720 -0.081937
v 0.012393 0.094627 -0.061658
v 0.012655 0.114535 -0.041377
v 0.012611 0.109859 -0.036767
v 0.012567 0.105183 -0.032156
v 0.012305 0.085275 -0.052435
v 0.419240 0.137954 -0.013805
v 0.418934 0.113369 -0.029474
v 0.419196 0.133277 -0.009193
v 0.419457 0.153185 0.011085
v 0.419151 0.128601 -0.004583
v 0.012485 0.112542 -0.024864
v 0.012530 0.117219 -0.029476
v 0.012574 0.121896 -0.034088
v 0.012835 0.141803 -0.013808
v 0.013097 0.161711 0.006472
v 0.013052 0.157035 0.011083
v 0.013008 0.152359 0.015693
v 0.012747 0.132450 -0.004586
v 0.419683 0.185130 0.034044
v 0.419376 0.160545 0.018376
v 0.419639 0.180453 0.038656
v 0.419902 0.200361 0.058935
v 0.419594 0.175777 0.043266
v 0.012927 0.159718 0.022985
v 0.012971 0.164395 0.018373
v 0.013015 0.169072 0.013761
v 0.013278 0.188979 0.034041
v 0.013540 0.208886 0.054321
v 0.013495 0.204210 0.058932
v 0.013451 0.199535 0.063542
v 0.013188 0.179626 0.043264
v 0.420125 0.232305 0.081893
v 0.419820 0.207721 0.066225
v 0.420081 0.227628 0.086505
v 0.420342 0.247536 0.106783
v 0.420037 0.222952 0.091115
v 0.013370 0.206893 0.070834
v 0.013414 0.211571 0.066223
v 0.013458 0.216248 0.061611
v 0.013719 0.236155 0.081890
v 0.013980 0.256061 0.102170
v 0.013936 0.251385 0.106780
v 0.013892 0.246710 0.111391
v 0.013631 0.226801 0.091113
v 0.381713 -0.010370 -0.202426
v 0.383166 0.149193 -0.076965
v 0.383051 0.130990 -0.059048
v 0.382936 0.112787 -0.041130
v 0.384389 0.272350 0.084331
v 0.373842 -0.028500 -0.184509
v 0.375180 0.112860 -0.041130
v 0.367425 0.112934 -0.041130
v 0.376518 0.254220 0.102249
v 0.366200 -0.010224 -0.202427
v 0.367538 0.131137 -0.059048
v 0.367652 0.149339 -0.076967
v 0.368876 0.272496 0.084330
v 0.374071 0.007906 -0.220344
v 0.375409 0.149266 -0.076966
v 0.376747 0.290626 0.066412
v -0.375949 -0.021397 -0.184513
v -0.366855 0.119889 -0.041135
v -0.374611 0.119963 -0.041135
v -0.382367 0.120036 -0.041135
v -0.373273 0.261322 0.102244
v -0.383475 -0.003122 -0.202431
v -0.382137 0.138238 -0.059053
v -0.381907 0.156440 -0.076970
v -0.380799 0.279598 0.084326
v -0.375489 0.015006 -0.220349
v -0.374151 0.156366 -0.076971
v -0.366396 0.156292 -0.076972
v -0.372813 0.297726 0.066407
v -0.367964 -0.003270 -0.202432
v -0.366626 0.138090 -0.059054
v -0.365288 0.279450 0.084325
v -0.374220 0.431799 -0.066287
v -0.383491 0.413698 -0.048354
v -0.374392 0.413611 -0.048354
v -0.365293 0.413525 -0.048354
v -0.374564 0.395424 -0.030421
v -0.376850 0.153849 -0.348206
v -0.367924 0.135575 -0.330273
v -0.377023 0.135661 -0.330273
v -0.386122 0.135748 -0.330273
v -0.377195 0.117474 -0.312340
v -0.366436 0.292737 -0.207247
v -0.366609 0.274550 -0.189314
v -0.366781 0.256362 -0.171381
v -0.384634 0.292910 -0.207246
v -0.375535 0.292824 -0.207246
v -0.384979 0.256535 -0.171380
v -0.384806 0.274723 -0.189313
v -0.375880 0.256449 -0.171380
v 0.380693 0.424648 -0.066282
v 0.371422 0.406547 -0.048349
v 0.380521 0.406460 -0.048349
v 0.389620 0.406374 -0.048349
v 0.380348 0.388273 -0.030416
v 0.378062 0.146698 -0.348201
v 0.386989 0.128424 -0.330268
v 0.377890 0.128510 -0.330268
v 0.368791 0.128597 -0.330268
v 0.377718 0.110323 -0.312335
v 0.369934 0.249384 -0.171376
v 0.370106 0.267572 -0.189309
v 0.370279 0.285759 -0.207242
v 0.379378 0.285673 -0.207242
v 0.388477 0.285587 -0.207242
v 0.388304 0.267399 -0.189309
v 0.388132 0.249212 -0.171376
v 0.379033 0.249298 -0.171376
v -0.314515 0.368653 0.004976
v -0.352190 0.375735 0.011796
v -0.314452 0.375378 0.011797
v -0.276713 0.375020 0.011797
v -0.314388 0.382102 0.018617
v -0.250527 0.355544 0.017303
v -0.250463 0.362269 0.024124
v -0.224214 0.349517 0.036450
v -0.250400 0.368993 0.030944
v -0.196058 0.332773 0.039245
v -0.195995 0.339498 0.046065
v -0.167775 0.329478 0.055680
v -0.195931 0.346222 0.052886
v -0.137937 0.315425 0.055806
v -0.137873 0.322149 0.062627
v -0.107970 0.314821 0.069574
v -0.137809 0.328874 0.069448
v -0.077205 0.303328 0.067166
v -0.077141 0.310053 0.073986
v -0.046313 0.305285 0.078399
v -0.077078 0.316778 0.080807
v -0.027230 0.296028 0.073897
v -0.027166 0.302753 0.080718
v -0.008020 0.300220 0.083037
v -0.027103 0.309477 0.087539
v 0.001960 0.293400 0.076216
v 0.002023 0.300125 0.083037
v 0.012067 0.300029 0.083037
v 0.002087 0.306849 0.089857
v 0.031194 0.295475 0.073898
v 0.031257 0.302199 0.080719
v 0.050448 0.304369 0.078400
v 0.031321 0.308924 0.087539
v 0.081298 0.301827 0.067167
v 0.081362 0.308552 0.073988
v 0.112275 0.312735 0.069575
v 0.081425 0.315276 0.080808
v 0.142248 0.312771 0.055808
v 0.142311 0.319495 0.062629
v 0.172348 0.326257 0.055682
v 0.142375 0.326220 0.069449
v 0.200688 0.329015 0.039247
v 0.200752 0.335740 0.046068
v 0.229156 0.345223 0.036453
v 0.200816 0.342464 0.052888
v 0.255579 0.350746 0.017310
v 0.255643 0.357470 0.024131
v 0.282130 0.369718 0.011809
v 0.255707 0.364195 0.030952
v 0.319804 0.362637 0.004988
v 0.319867 0.369361 0.011808
v 0.357605 0.369005 0.011808
v 0.319931 0.376086 0.018629
v 0.357022 0.307730 0.058775
v 0.357086 0.314454 0.065595
v 0.356567 0.259904 0.119383
v 0.357150 0.321179 0.072416
v 0.001611 0.256541 0.112560
v 0.001674 0.263265 0.119380
v -0.353218 0.266627 0.119378
v 0.001738 0.269990 0.126201
v -0.352768 0.314456 0.058766
v -0.352704 0.321181 0.065587
v -0.352641 0.327906 0.072408
v 0.292925 0.309288 0.084739
v 0.264521 0.299805 0.094353
v 0.234485 0.293044 0.101299
v 0.203571 0.288861 0.105712
v 0.184381 0.286691 0.108030
v 0.174337 0.286786 0.108030
v -0.180556 0.290148 0.108028
v -0.199702 0.292681 0.105709
v -0.230531 0.297448 0.101296
v -0.260433 0.304777 0.094350
v -0.314902 0.327548 0.072408
v -0.288652 0.314797 0.084735
v 0.319412 0.321536 0.072416
v 0.292798 0.295839 0.071097
v 0.264394 0.286356 0.080712
v 0.234358 0.279595 0.087658
v 0.203444 0.275412 0.092071
v 0.184253 0.273242 0.094389
v -0.170639 0.276604 0.094387
v -0.180683 0.276699 0.094387
v -0.199829 0.279232 0.092068
v -0.230658 0.283999 0.087655
v -0.260561 0.291328 0.080708
v -0.315029 0.314099 0.058767
v -0.288780 0.301347 0.071093
v 0.319285 0.308086 0.058775
f 1 313 315
f 313 2 314
f 314 3 315
f 313 314 315
f 4 316 317
f 316 1 315
f 315 3 317
f 316 315 317
f 2 318 320
f 318 5 319
f 319 6 320
f 318 319 320
f 3 314 321
f 314 2 320
f 320 6 321
f 314 320 321
f 5 322 324
f 322 7 323
f 323 8 324
f 322 323 324
f 6 319 325
f 319 5 324
f 324 8 325
f 319 324 325
f 7 326 328
f 326 9 327
f 327 10 328
f 326 327 328
f 8 323 329
f 323 7 328
f 328 10 329
f 323 328 329
f 9 330 332
f 330 11 331
f 331 12 332
f 330 331 332
f 10 327 333
f 327 9 332
f 332 12 333
f 327 332 333
f 11 334 336
f 334 13 335
f 335 14 336
f 334 335 336
f 12 331 337
f 331 11 336
f 336 14 337
f 331 336 337
f 13 338 340
f 338 15 339
f 339 16 340
f 338 339 340
f 14 335 341
f 335 13 340
f 340 16 341
f 335 340 341
f 15 342 344
f 342 17 343
f 343 18 344
f 342 343 344
f 16 339 345
f 339 15 344
f 344 18 345
f 339 344 345
f 17 346 348
f 346 19 347
f 347 20 348
f 346 347 348
f 18 343 349
f 343 17 348
f 348 20 349
f 343 348 349
f 19 350 351
f 350 1 316
f 316 4 351
f 350 316 351
f 20 347 352
f 347 19 351
f 351 4 352
f 347 351 352
f 21 353 355
f 353 22 354
f 354 23 355
f 353 354 355
f 24 356 357
f 356 21 355
f 355 23 357
f 356 355 357
f 25 358 359
f 358 21 356
f 356 24 359
f 358 356 359
f 26 360 361
f 360 25 359
f 359 24 361
f 360 359 361
f 27 362 363
f 362 25 360
f 360 26 363
f 362 360 363
f 28 364 365
f 364 27 363
f 363 26 365
f 364 363 365
f 29 366 367
f 366 27 364
f 364 28 367
f 366 364 367
f 30 368 369
f 368 29 367
f 367 28 369
f 368 367 369
f 31 370 371
f 370 29 368
f 368 30 371
f 370 368 371
f 32 372 373
f 372 31 371
f 371 30 373
f 372 371 373
f 33 374 375
f 374 31 372
f 372 32 375
f 374 372 375
f 34 376 377
f 376 33 375
f 375 32 377
f 376 375 377
f 35 378 379
f 378 33 376
f 376 34 379
f 378 376 379
f 36 380 381
f 380 35 379
f 379 34 381
f 380 379 381
f 37 382 383
f 382 35 380
f 380 36 383
f 382 380 383
f 38 384 385
f 384 37 383
f 383 36 385
f 384 383 385
f 39 386 387
f 386 37 384
f 384 38 387
f 386 384 387
f 40 388 389
f 388 39 387
f 387 38 389
f 388 387 389
f 22 390 391
f 390 39 388
f 388 40 391
f 390 388 391
f 23 354 392
f 354 22 391
f 391 40 392
f 354 391 392
f 41 393 394
f 393 4 317
f 317 3 394
f 393 317 394
f 41 394 395
f 394 3 321
f 321 6 395
f 394 321 395
f 41 395 396
f 395 6 325
f 325 8 396
f 395 325 396
f 41 396 397
f 396 8 329
f 329 10 397
f 396 329 397
f 41 397 398
f 397 10 333
f 333 12 398
f 397 333 398
f 41 398 399
f 398 12 337
f 337 14 399
f 398 337 399
f 41 399 400
f 399 14 341
f 341 16 400
f 399 341 400
f 41 400 401
f 400 16 345
f 345 18 401
f 400 345 401
f 41 401 402
f 401 18 349
f 349 20 402
f 401 349 402
f 41 402 393
f 402 20 352
f 352 4 393
f 402 352 393
f 2 313 404
f 313 1 403
f 403 42 404
f 313 403 404
f 5 318 405
f 318 2 404
f 404 42 405
f 318 404 405
f 7 322 406
f 322 5 405
f 405 42 406
f 322 405 406
f 9 326 407
f 326 7 406
f 406 42 407
f 326 406 407
f 11 330 408
f 330 9 407
f 407 42 408
f 330 407 408
f 13 334 409
f 334 11 408
f 408 42 409
f 334 408 409
f 15 338 410
f 338 13 409
f 409 42 410
f 338 409 410
f 17 342 411
f 342 15 410
f 410 42 411
f 342 410 411
f 19 346 412
f 346 17 411
f 411 42 412
f 346 411 412
f 1 350 403
f 350 19 412
f 412 42 403
f 350 412 403
f 24 357 414
f 357 23 413
f 413 43 414
f 357 413 414
f 26 361 415
f 361 24 414
f 414 43 415
f 361 414 415
f 28 365 416
f 365 26 415
f 415 43 416
f 365 415 416
f 30 369 417
f 369 28 416
f 416 43 417
f 369 416 417
f 32 373 418
f 373 30 417
f 417 43 418
f 373 417 418
f 34 377 419
f 377 32 418
f 418 43 419
f 377 418 419
f 36 381 420
f 381 34 419
f 419 43 420
f 381 419 420
f 38 385 421
f 385 36 420
f 420 43 421
f 385 420 421
f 40 389 422
f 389 38 421
f 421 43 422
f 389 421 422
f 23 392 413
f 392 40 422
f 422 43 413
f 392 422 413
f 44 423 424
f 423 22 353
f 353 21 424
f 423 353 424
f 44 424 425
f 424 21 358
f 358 25 425
f 424 358 425
f 44 425 426
f 425 25 362
f 362 27 426
f 425 362 426
f 44 426 427
f 426 27 366
f 366 29 427
f 426 366 427
f 44 427 428
f 427 29 370
f 370 31 428
f 427 370 428
f 44 428 429
f 428 31 374
f 374 33 429
f 428 374 429
f 44 429 430
f 429 33 378
f 378 35 430
f 429 378 430
f 44 430 431
f 430 35 382
f 382 37 431
f 430 382 431
f 44 431 432
f 431 37 386
f 386 39 432
f 431 386 432
f 44 432 423
f 432 39 390
f 390 22 423
f 432 390 423
f 45 433 435
f 433 46 434
f 434 47 435
f 433 434 435
f 48 436 437
f 436 45 435
f 435 47 437
f 436 435 437
f 49 438 439
f 438 45 436
f 436 48 439
f 438 436 439
f 50 440 441
f 440 49 439
f 439 48 441
f 440 439 441
f 51 442 443
f 442 49 440
f 440 50 443
f 442 440 443
f 52 444 445
f 444 51 443
f 443 50 445
f 444 443 445
f 46 446 447
f 446 51 444
f 444 52 447
f 446 444 447
f 47 434 448
f 434 46 447
f 447 52 448
f 434 447 448
f 53 449 451
f 449 54 450
f 450 55 451
f 449 450 451
f 56 452 453
f 452 53 451
f 451 55 453
f 452 451 453
f 57 454 455
f 454 53 452
f 452 56 455
f 454 452 455
f 58 456 457
f 456 57 455
f 455 56 457
f 456 455 457
f 59 458 459
f 458 57 456
f 456 58 459
f 458 456 459
f 60 460 461
f 460 59 459
f 459 58 461
f 460 459 461
f 54 462 463
f 462 59 460
f 460 60 463
f 462 460 463
f 55 450 464
f 450 54 463
f 463 60 464
f 450 463 464
f 61 465 467
f 465 62 466
f 466 63 467
f 465 466 467
f 64 468 469
f 468 61 467
f 467 63 469
f 468 467 469
f 65 470 471
f 470 61 468
f 468 64 471
f 470 468 471
f 66 472 473
f 472 65 471
f 471 64 473
f 472 471 473
f 67 474 475
f 474 65 472
f 472 66 475
f 474 472 475
f 68 476 477
f 476 67 475
f 475 66 477
f 476 475 477
f 62 478 479
f 478 67 476
f 476 68 479
f 478 476 479
f 63 466 480
f 466 62 479
f 479 68 480
f 466 479 480
f 69 481 483
f 481 70 482
f 482 71 483
f 481 482 483
f 72 484 485
f 484 69 483
f 483 71 485
f 484 483 485
f 73 486 487
f 486 69 484
f 484 72 487
f 486 484 487
f 74 488 489
f 488 73 487
f 487 72 489
f 488 487 489
f 75 490 491
f 490 73 488
f 488 74 491
f 490 488 491
f 76 492 493
f 492 75 491
f 491 74 493
f 492 491 493
f 70 494 495
f 494 75 492
f 492 76 495
f 494 492 495
f 71 482 496
f 482 70 495
f 495 76 496
f 482 495 496
f 77 497 499
f 497 78 498
f 498 79 499
f 497 498 499
f 80 500 501
f 500 77 499
f 499 79 501
f 500 499 501
f 81 502 503
f 502 77 500
f 500 80 503
f 502 500 503
f 82 504 505
f 504 81 503
f 503 80 505
f 504 503 505
f 83 506 507
f 506 81 504
f 504 82 507
f 506 504 507
f 84 508 509
f 508 83 507
f 507 82 509
f 508 507 509
f 78 510 511
f 510 83 508
f 508 84 511
f 510 508 511
f 79 498 512
f 498 78 511
f 511 84 512
f 498 511 512
f 85 513 515
f 513 86 514
f 514 87 515
f 513 514 515
f 88 516 517
f 516 85 515
f 515 87 517
f 516 515 517
f 89 518 519
f 518 85 516
f 516 88 519
f 518 516 519
f 90 520 521
f 520 89 519
f 519 88 521
f 520 519 521
f 91 522 523
f 522 89 520
f 520 90 523
f 522 520 523
f 92 524 525
f 524 91 523
f 523 90 525
f 524 523 525
f 86 526 527
f 526 91 524
f 524 92 527
f 526 524 527
f 87 514 528
f 514 86 527
f 527 92 528
f 514 527 528
f 93 529 531
f 529 94 530
f 530 95 531
f 529 530 531
f 96 532 533
f 532 93 531
f 531 95 533
f 532 531 533
f 97 534 535
f 534 93 532
f 532 96 535
f 534 532 535
f 98 536 537
f 536 97 535
f 535 96 537
f 536 535 537
f 99 538 539
f 538 97 536
f 536 98 539
f 538 536 539
f 100 540 541
f 540 99 539
f 539 98 541
f 540 539 541
f 94 542 543
f 542 99 540
f 540 100 543
f 542 540 543
f 95 530 544
f 530 94 543
f 543 100 544
f 530 543 544
f 101 545 547
f 545 102 546
f 546 103 547
f 545 546 547
f 104 548 549
f 548 101 547
f 547 103 549
f 548 547 549
f 105 550 551
f 550 101 548
f 548 104 551
f 550 548 551
f 106 552 553
f 552 105 551
f 551 104 553
f 552 551 553
f 107 554 555
f 554 105 552
f 552 106 555
f 554 552 555
f 108 556 557
f 556 107 555
f 555 106 557
f 556 555 557
f 102 558 559
f 558 107 556
f 556 108 559
f 558 556 559
f 103 546 560
f 546 102 559
f 559 108 560
f 546 559 560
f 109 561 563
f 561 110 562
f 562 111 563
f 561 562 563
f 112 564 565
f 564 109 563
f 563 111 565
f 564 563 565
f 113 566 567
f 566 109 564
f 564 112 567
f 566 564 567
f 114 568 569
f 568 113 567
f 567 112 569
f 568 567 569
f 115 570 571
f 570 113 568
f 568 114 571
f 570 568 571
f 116 572 573
f 572 115 571
f 571 114 573
f 572 571 573
f 110 574 575
f 574 115 572
f 572 116 575
f 574 572 575
f 111 562 576
f 562 110 575
f 575 116 576
f 562 575 576
f 117 577 579
f 577 118 578
f 578 119 579
f 577 578 579
f 120 580 581
f 580 117 579
f 579 119 581
f 580 579 581
f 121 582 584
f 582 122 583
f 583 123 584
f 582 583 584
f 124 585 586
f 585 121 584
f 584 123 586
f 585 584 586
f 125 587 589
f 587 126 588
f 588 127 589
f 587 588 589
f 128 590 591
f 590 125 589
f 589 127 591
f 590 589 591
f 125 590 593
f 590 128 592
f 592 119 593
f 590 592 593
f 118 594 578
f 594 125 593
f 593 119 578
f 594 593 578
f 126 587 595
f 587 125 594
f 594 118 595
f 587 594 595
f 117 596 577
f 596 126 595
f 595 118 577
f 596 595 577
f 127 588 597
f 588 126 596
f 596 117 597
f 588 596 597
f 120 598 580
f 598 127 597
f 597 117 580
f 598 597 580
f 128 591 599
f 591 127 598
f 598 120 599
f 591 598 599
f 119 592 581
f 592 128 599
f 599 120 581
f 592 599 581
f 129 600 602
f 600 130 601
f 601 131 602
f 600 601 602
f 132 603 604
f 603 129 602
f 602 131 604
f 603 602 604
f 129 603 606
f 603 132 605
f 605 123 606
f 603 605 606
f 122 607 583
f 607 129 606
f 606 123 583
f 607 606 583
f 130 600 608
f 600 129 607
f 607 122 608
f 600 607 608
f 121 609 582
f 609 130 608
f 608 122 582
f 609 608 582
f 131 601 610
f 601 130 609
f 609 121 610
f 601 609 610
f 124 611 585
f 611 131 610
f 610 121 585
f 611 610 585
f 132 604 612
f 604 131 611
f 611 124 612
f 604 611 612
f 123 605 586
f 605 132 612
f 612 124 586
f 605 612 586
f 133 613 615
f 613 134 614
f 614 135 615
f 613 614 615
f 136 616 617
f 616 133 615
f 615 135 617
f 616 615 617
f 137 618 619
f 618 133 616
f 616 136 619
f 618 616 619
f 138 620 621
f 620 137 619
f 619 136 621
f 620 619 621
f 139 622 623
f 622 137 620
f 620 138 623
f 622 620 623
f 140 624 625
f 624 139 623
f 623 138 625
f 624 623 625
f 141 626 627
f 626 139 624
f 624 140 627
f 626 624 627
f 142 628 629
f 628 141 627
f 627 140 629
f 628 627 629
f 143 630 631
f 630 141 628
f 628 142 631
f 630 628 631
f 144 632 633
f 632 143 631
f 631 142 633
f 632 631 633
f 145 634 635
f 634 143 632
f 632 144 635
f 634 632 635
f 146 636 637
f 636 145 635
f 635 144 637
f 636 635 637
f 147 638 639
f 638 145 636
f 636 146 639
f 638 636 639
f 148 640 641
f 640 147 639
f 639 146 641
f 640 639 641
f 149 642 643
f 642 147 640
f 640 148 643
f 642 640 643
f 150 644 645
f 644 149 643
f 643 148 645
f 644 643 645
f 151 646 647
f 646 149 644
f 644 150 647
f 646 644 647
f 152 648 649
f 648 151 647
f 647 150 649
f 648 647 649
f 153 650 651
f 650 151 648
f 648 152 651
f 650 648 651
f 154 652 653
f 652 153 651
f 651 152 653
f 652 651 653
f 155 654 655
f 654 153 652
f 652 154 655
f 654 652 655
f 156 656 657
f 656 155 655
f 655 154 657
f 656 655 657
f 134 658 659
f 658 155 656
f 656 156 659
f 658 656 659
f 135 614 660
f 614 134 659
f 659 156 660
f 614 659 660
f 157 661 663
f 661 158 662
f 662 159 663
f 661 662 663
f 160 664 665
f 664 157 663
f 663 159 665
f 664 663 665
f 158 666 668
f 666 161 667
f 667 162 668
f 666 667 668
f 159 662 669
f 662 158 668
f 668 162 669
f 662 668 669
f 161 670 672
f 670 163 671
f 671 164 672
f 670 671 672
f 162 667 673
f 667 161 672
f 672 164 673
f 667 672 673
f 163 674 676
f 674 165 675
f 675 166 676
f 674 675 676
f 164 671 677
f 671 163 676
f 676 166 677
f 671 676 677
f 165 678 680
f 678 167 679
f 679 168 680
f 678 679 680
f 166 675 681
f 675 165 680
f 680 168 681
f 675 680 681
f 167 682 684
f 682 169 683
f 683 170 684
f 682 683 684
f 168 679 685
f 679 167 684
f 684 170 685
f 679 684 685
f 169 686 688
f 686 171 687
f 687 172 688
f 686 687 688
f 170 683 689
f 683 169 688
f 688 172 689
f 683 688 689
f 171 690 692
f 690 173 691
f 691 174 692
f 690 691 692
f 172 687 693
f 687 171 692
f 692 174 693
f 687 692 693
f 173 694 696
f 694 175 695
f 695 176 696
f 694 695 696
f 174 691 697
f 691 173 696
f 696 176 697
f 691 696 697
f 175 698 700
f 698 177 699
f 699 178 700
f 698 699 700
f 176 695 701
f 695 175 700
f 700 178 701
f 695 700 701
f 177 702 704
f 702 179 703
f 703 180 704
f 702 703 704
f 178 699 705
f 699 177 704
f 704 180 705
f 699 704 705
f 179 706 707
f 706 157 664
f 664 160 707
f 706 664 707
f 180 703 708
f 703 179 707
f 707 160 708
f 703 707 708
f 181 709 710
f 709 134 613
f 613 133 710
f 709 613 710
f 181 710 711
f 710 133 618
f 618 137 711
f 710 618 711
f 181 711 712
f 711 137 622
f 622 139 712
f 711 622 712
f 181 712 713
f 712 139 626
f 626 141 713
f 712 626 713
f 181 713 714
f 713 141 630
f 630 143 714
f 713 630 714
f 181 714 715
f 714 143 634
f 634 145 715
f 714 634 715
f 181 715 716
f 715 145 638
f 638 147 716
f 715 638 716
f 181 716 717
f 716 147 642
f 642 149 717
f 716 642 717
f 181 717 718
f 717 149 646
f 646 151 718
f 717 646 718
f 181 718 719
f 718 151 650
f 650 153 719
f 718 650 719
f 181 719 720
f 719 153 654
f 654 155 720
f 719 654 720
f 181 720 709
f 720 155 658
f 658 134 709
f 720 658 709
f 136 617 722
f 617 135 721
f 721 182 722
f 617 721 722
f 138 621 723
f 621 136 722
f 722 182 723
f 621 722 723
f 140 625 724
f 625 138 723
f 723 182 724
f 625 723 724
f 142 629 725
f 629 140 724
f 724 182 725
f 629 724 725
f 144 633 726
f 633 142 725
f 725 182 726
f 633 725 726
f 146 637 727
f 637 144 726
f 726 182 727
f 637 726 727
f 148 641 728
f 641 146 727
f 727 182 728
f 641 727 728
f 150 645 729
f 645 148 728
f 728 182 729
f 645 728 729
f 152 649 730
f 649 150 729
f 729 182 730
f 649 729 730
f 154 653 731
f 653 152 730
f 730 182 731
f 653 730 731
f 156 657 732
f 657 154 731
f 731 182 732
f 657 731 732
f 135 660 721
f 660 156 732
f 732 182 721
f 660 732 721
f 158 661 734
f 661 157 733
f 733 183 734
f 661 733 734
f 161 666 735
f 666 158 734
f 734 183 735
f 666 734 735
f 163 670 736
f 670 161 735
f 735 183 736
f 670 735 736
f 165 674 737
f 674 163 736
f 736 183 737
f 674 736 737
f 167 678 738
f 678 165 737
f 737 183 738
f 678 737 738
f 169 682 739
f 682 167 738
f 738 183 739
f 682 738 739
f 171 686 740
f 686 169 739
f 739 183 740
f 686 739 740
f 173 690 741
f 690 171 740
f 740 183 741
f 690 740 741
f 175 694 742
f 694 173 741
f 741 183 742
f 694 741 742
f 177 698 743
f 698 175 742
f 742 183 743
f 698 742 743
f 179 702 744
f 702 177 743
f 743 183 744
f 702 743 744
f 157 706 733
f 706 179 744
f 744 183 733
f 706 744 733
f 184 745 746
f 745 160 665
f 665 159 746
f 745 665 746
f 184 746 747
f 746 159 669
f 669 162 747
f 746 669 747
f 184 747 748
f 747 162 673
f 673 164 748
f 747 673 748
f 184 748 749
f 748 164 677
f 677 166 749
f 748 677 749
f 184 749 750
f 749 166 681
f 681 168 750
f 749 681 750
f 184 750 751
f 750 168 685
f 685 170 751
f 750 685 751
f 184 751 752
f 751 170 689
f 689 172 752
f 751 689 752
f 184 752 753
f 752 172 693
f 693 174 753
f 752 693 753
f 184 753 754
f 753 174 697
f 697 176 754
f 753 697 754
f 184 754 755
f 754 176 701
f 701 178 755
f 754 701 755
f 184 755 756
f 755 178 705
f 705 180 756
f 755 705 756
f 184 756 745
f 756 180 708
f 708 160 745
f 756 708 745
f 185 757 759
f 757 186 758
f 758 187 759
f 757 758 759
f 188 760 761
f 760 185 759
f 759 187 761
f 760 759 761
f 189 762 764
f 762 190 763
f 763 191 764
f 762 763 764
f 192 765 766
f 765 189 764
f 764 191 766
f 765 764 766
f 193 767 769
f 767 194 768
f 768 195 769
f 767 768 769
f 196 770 771
f 770 193 769
f 769 195 771
f 770 769 771
f 197 772 774
f 772 198 773
f 773 199 774
f 772 773 774
f 200 775 776
f 775 197 774
f 774 199 776
f 775 774 776
f 187 777 778
f 777 192 766
f 766 191 778
f 777 766 778
f 188 761 779
f 761 187 778
f 778 191 779
f 761 778 779
f 186 757 781
f 757 185 780
f 780 190 781
f 757 780 781
f 189 782 762
f 782 186 781
f 781 190 762
f 782 781 762
f 199 783 784
f 783 196 771
f 771 195 784
f 783 771 784
f 200 776 785
f 776 199 784
f 784 195 785
f 776 784 785
f 194 767 787
f 767 193 786
f 786 198 787
f 767 786 787
f 197 788 772
f 788 194 787
f 787 198 772
f 788 787 772
f 190 780 789
f 780 185 760
f 760 188 789
f 780 760 789
f 191 763 779
f 763 190 789
f 789 188 779
f 763 789 779
f 186 782 790
f 782 189 765
f 765 192 790
f 782 765 790
f 187 758 777
f 758 186 790
f 790 192 777
f 758 790 777
f 194 788 791
f 788 197 775
f 775 200 791
f 788 775 791
f 195 768 785
f 768 194 791
f 791 200 785
f 768 791 785
f 198 786 792
f 786 193 770
f 770 196 792
f 786 770 792
f 199 773 783
f 773 198 792
f 792 196 783
f 773 792 783
f 201 793 795
f 793 202 794
f 794 203 795
f 793 794 795
f 204 796 797
f 796 201 795
f 795 203 797
f 796 795 797
f 205 798 800
f 798 206 799
f 799 207 800
f 798 799 800
f 208 801 802
f 801 205 800
f 800 207 802
f 801 800 802
f 209 803 805
f 803 210 804
f 804 211 805
f 803 804 805
f 212 806 807
f 806 209 805
f 805 211 807
f 806 805 807
f 213 808 810
f 808 214 809
f 809 215 810
f 808 809 810
f 216 811 812
f 811 213 810
f 810 215 812
f 811 810 812
f 217 813 815
f 813 218 814
f 814 219 815
f 813 814 815
f 220 816 817
f 816 217 815
f 815 219 817
f 816 815 817
f 221 818 820
f 818 222 819
f 819 223 820
f 818 819 820
f 224 821 822
f 821 221 820
f 820 223 822
f 821 820 822
f 225 823 825
f 823 226 824
f 824 227 825
f 823 824 825
f 228 826 827
f 826 225 825
f 825 227 827
f 826 825 827
f 226 824 829
f 824 227 828
f 828 203 829
f 824 828 829
f 202 830 794
f 830 226 829
f 829 203 794
f 830 829 794
f 225 823 831
f 823 226 830
f 830 202 831
f 823 830 831
f 201 832 793
f 832 225 831
f 831 202 793
f 832 831 793
f 228 826 833
f 826 225 832
f 832 201 833
f 826 832 833
f 204 834 796
f 834 228 833
f 833 201 796
f 834 833 796
f 227 827 835
f 827 228 834
f 834 204 835
f 827 834 835
f 203 828 797
f 828 227 835
f 835 204 797
f 828 835 797
f 229 836 838
f 836 230 837
f 837 231 838
f 836 837 838
f 232 839 840
f 839 229 838
f 838 231 840
f 839 838 840
f 230 837 842
f 837 231 841
f 841 207 842
f 837 841 842
f 206 843 799
f 843 230 842
f 842 207 799
f 843 842 799
f 229 836 844
f 836 230 843
f 843 206 844
f 836 843 844
f 205 845 798
f 845 229 844
f 844 206 798
f 845 844 798
f 232 839 846
f 839 229 845
f 845 205 846
f 839 845 846
f 208 847 801
f 847 232 846
f 846 205 801
f 847 846 801
f 231 840 848
f 840 232 847
f 847 208 848
f 840 847 848
f 207 841 802
f 841 231 848
f 848 208 802
f 841 848 802
f 233 849 851
f 849 234 850
f 850 235 851
f 849 850 851
f 236 852 853
f 852 233 851
f 851 235 853
f 852 851 853
f 234 850 855
f 850 235 854
f 854 211 855
f 850 854 855
f 210 856 804
f 856 234 855
f 855 211 804
f 856 855 804
f 233 849 857
f 849 234 856
f 856 210 857
f 849 856 857
f 209 858 803
f 858 233 857
f 857 210 803
f 858 857 803
f 236 852 859
f 852 233 858
f 858 209 859
f 852 858 859
f 212 860 806
f 860 236 859
f 859 209 806
f 860 859 806
f 235 853 861
f 853 236 860
f 860 212 861
f 853 860 861
f 211 854 807
f 854 235 861
f 861 212 807
f 854 861 807
f 237 862 864
f 862 238 863
f 863 239 864
f 862 863 864
f 240 865 866
f 865 237 864
f 864 239 866
f 865 864 866
f 238 863 868
f 863 239 867
f 867 215 868
f 863 867 868
f 214 869 809
f 869 238 868
f 868 215 809
f 869 868 809
f 237 862 870
f 862 238 869
f 869 214 870
f 862 869 870
f 213 871 808
f 871 237 870
f 870 214 808
f 871 870 808
f 240 865 872
f 865 237 871
f 871 213 872
f 865 871 872
f 216 873 811
f 873 240 872
f 872 213 811
f 873 872 811
f 239 866 874
f 866 240 873
f 873 216 874
f 866 873 874
f 215 867 812
f 867 239 874
f 874 216 812
f 867 874 812
f 241 875 877
f 875 242 876
f 876 243 877
f 875 876 877
f 244 878 879
f 878 241 877
f 877 243 879
f 878 877 879
f 242 876 881
f 876 243 880
f 880 219 881
f 876 880 881
f 218 882 814
f 882 242 881
f 881 219 814
f 882 881 814
f 241 875 883
f 875 242 882
f 882 218 883
f 875 882 883
f 217 884 813
f 884 241 883
f 883 218 813
f 884 883 813
f 244 878 885
f 878 241 884
f 884 217 885
f 878 884 885
f 220 886 816
f 886 244 885
f 885 217 816
f 886 885 816
f 243 879 887
f 879 244 886
f 886 220 887
f 879 886 887
f 219 880 817
f 880 243 887
f 887 220 817
f 880 887 817
f 245 888 890
f 888 246 889
f 889 247 890
f 888 889 890
f 248 891 892
f 891 245 890
f 890 247 892
f 891 890 892
f 246 889 894
f 889 247 893
f 893 223 894
f 889 893 894
f 222 895 819
f 895 246 894
f 894 223 819
f 895 894 819
f 245 888 896
f 888 246 895
f 895 222 896
f 888 895 896
f 221 897 818
f 897 245 896
f 896 222 818
f 897 896 818
f 248 891 898
f 891 245 897
f 897 221 898
f 891 897 898
f 224 899 821
f 899 248 898
f 898 221 821
f 899 898 821
f 247 892 900
f 892 248 899
f 899 224 900
f 892 899 900
f 223 893 822
f 893 247 900
f 900 224 822
f 893 900 822
f 249 901 903
f 901 250 902
f 902 251 903
f 901 902 903
f 252 904 905
f 904 249 903
f 903 251 905
f 904 903 905
f 253 906 907
f 906 249 904
f 904 252 907
f 906 904 907
f 254 908 909
f 908 253 907
f 907 252 909
f 908 907 909
f 255 910 911
f 910 253 908
f 908 254 911
f 910 908 911
f 256 912 913
f 912 255 911
f 911 254 913
f 912 911 913
f 250 914 915
f 914 255 912
f 912 256 915
f 914 912 915
f 251 902 916
f 902 250 915
f 915 256 916
f 902 915 916
f 257 917 919
f 917 258 918
f 918 259 919
f 917 918 919
f 260 920 921
f 920 257 919
f 919 259 921
f 920 919 921
f 261 922 923
f 922 257 920
f 920 260 923
f 922 920 923
f 262 924 925
f 924 261 923
f 923 260 925
f 924 923 925
f 263 926 927
f 926 261 924
f 924 262 927
f 926 924 927
f 264 928 929
f 928 263 927
f 927 262 929
f 928 927 929
f 258 930 931
f 930 263 928
f 928 264 931
f 930 928 931
f 259 918 932
f 918 258 931
f 931 264 932
f 918 931 932
f 265 933 935
f 933 266 934
f 934 267 935
f 933 934 935
f 268 936 937
f 936 265 935
f 935 267 937
f 936 935 937
f 269 938 940
f 938 270 939
f 939 271 940
f 938 939 940
f 272 941 942
f 941 269 940
f 940 271 942
f 941 940 942
f 271 939 944
f 939 270 943
f 943 265 944
f 939 943 944
f 268 945 936
f 945 271 944
f 944 265 936
f 945 944 936
f 270 938 947
f 938 269 946
f 946 266 947
f 938 946 947
f 265 943 933
f 943 270 947
f 947 266 933
f 943 947 933
f 269 941 949
f 941 272 948
f 948 267 949
f 941 948 949
f 266 946 934
f 946 269 949
f 949 267 934
f 946 949 934
f 272 942 950
f 942 271 945
f 945 268 950
f 942 945 950
f 267 948 937
f 948 272 950
f 950 268 937
f 948 950 937
f 273 951 953
f 951 274 952
f 952 275 953
f 951 952 953
f 276 954 955
f 954 273 953
f 953 275 955
f 954 953 955
f 277 956 958
f 956 278 957
f 957 279 958
f 956 957 958
f 280 959 960
f 959 277 958
f 958 279 960
f 959 958 960
f 277 959 962
f 959 280 961
f 961 275 962
f 959 961 962
f 274 963 952
f 963 277 962
f 962 275 952
f 963 962 952
f 278 956 964
f 956 277 963
f 963 274 964
f 956 963 964
f 273 965 951
f 965 278 964
f 964 274 951
f 965 964 951
f 279 957 966
f 957 278 965
f 965 273 966
f 957 965 966
f 276 967 954
f 967 279 966
f 966 273 954
f 967 966 954
f 280 960 968
f 960 279 967
f 967 276 968
f 960 967 968
f 275 961 955
f 961 280 968
f 968 276 955
f 961 968 955
f 281 969 971
f 969 282 970
f 970 283 971
f 969 970 971
f 284 972 973
f 972 281 971
f 971 283 973
f 972 971 973
f 285 974 975
f 974 281 972
f 972 284 975
f 974 972 975
f 286 976 977
f 976 285 975
f 975 284 977
f 976 975 977
f 287 978 979
f 978 285 976
f 976 286 979
f 978 976 979
f 288 980 981
f 980 287 979
f 979 286 981
f 980 979 981
f 289 982 983
f 982 287 980
f 980 288 983
f 982 980 983
f 290 984 985
f 984 289 983
f 983 288 985
f 984 983 985
f 291 986 987
f 986 289 984
f 984 290 987
f 986 984 987
f 292 988 989
f 988 291 987
f 987 290 989
f 988 987 989
f 293 990 991
f 990 291 988
f 988 292 991
f 990 988 991
f 294 992 993
f 992 293 991
f 991 292 993
f 992 991 993
f 295 994 995
f 994 293 992
f 992 294 995
f 994 992 995
f 296 996 997
f 996 295 995
f 995 294 997
f 996 995 997
f 297 998 999
f 998 295 996
f 996 296 999
f 998 996 999
f 298 1000 1001
f 1000 297 999
f 999 296 1001
f 1000 999 1001
f 299 1002 1003
f 1002 297 1000
f 1000 298 1003
f 1002 1000 1003
f 300 1004 1005
f 1004 299 1003
f 1003 298 1005
f 1004 1003 1005
f 301 1006 1007
f 1006 299 1004
f 1004 300 1007
f 1006 1004 1007
f 302 1008 1009
f 1008 301 1007
f 1007 300 1009
f 1008 1007 1009
f 303 1010 1011
f 1010 301 1008
f 1008 302 1011
f 1010 1008 1011
f 304 1012 1013
f 1012 303 1011
f 1011 302 1013
f 1012 1011 1013
f 305 1014 1015
f 1014 303 1012
f 1012 304 1015
f 1014 1012 1015
f 306 1016 1017
f 1016 305 1015
f 1015 304 1017
f 1016 1015 1017
f 307 1018 1019
f 1018 305 1016
f 1016 306 1019
f 1018 1016 1019
f 308 1020 1021
f 1020 307 1019
f 1019 306 1021
f 1020 1019 1021
f 309 1022 1023
f 1022 307 1020
f 1020 308 1023
f 1022 1020 1023
f 310 1024 1025
f 1024 309 1023
f 1023 308 1025
f 1024 1023 1025
f 311 1026 1027
f 1026 309 1024
f 1024 310 1027
f 1026 1024 1027
f 312 1028 1029
f 1028 311 1027
f 1027 310 1029
f 1028 1027 1029
f 282 1030 1031
f 1030 311 1028
f 1028 312 1031
f 1030 1028 1031
f 283 970 1032
f 970 282 1031
f 1031 312 1032
f 970 1031 1032
f 310 1033 1034
f 1033 304 1013
f 1013 302 1034
f 1033 1013 1034
f 310 1034 1035
f 1034 302 1009
f 1009 300 1035
f 1034 1009 1035
f 310 1035 1036
f 1035 300 1005
f 1005 298 1036
f 1035 1005 1036
f 310 1036 1037
f 1036 298 1001
f 1001 296 1037
f 1036 1001 1037
f 310 1037 1038
f 1037 296 997
f 997 294 1038
f 1037 997 1038
f 312 1029 1039
f 1029 310 1038
f 1038 294 1039
f 1029 1038 1039
f 312 1039 1040
f 1039 294 993
f 993 292 1040
f 1039 993 1040
f 312 1040 1041
f 1040 292 989
f 989 290 1041
f 1040 989 1041
f 312 1041 1042
f 1041 290 985
f 985 288 1042
f 1041 985 1042
f 312 1043 1032
f 1043 284 973
f 973 283 1032
f 1043 973 1032
f 312 1044 1043
f 1044 286 977
f 977 284 1043
f 1044 977 1043
f 312 1042 1044
f 1042 288 981
f 981 286 1044
f 1042 981 1044
f 310 1045 1033
f 1045 306 1017
f 1017 304 1033
f 1045 1017 1033
f 310 1025 1045
f 1025 308 1021
f 1021 306 1045
f 1025 1021 1045
f 301 1010 1047
f 1010 303 1046
f 1046 309 1047
f 1010 1046 1047
f 299 1006 1048
f 1006 301 1047
f 1047 309 1048
f 1006 1047 1048
f 297 1002 1049
f 1002 299 1048
f 1048 309 1049
f 1002 1048 1049
f 295 998 1050
f 998 297 1049
f 1049 309 1050
f 998 1049 1050
f 295 1050 1051
f 1050 309 1026
f 1026 311 1051
f 1050 1026 1051
f 293 994 1052
f 994 295 1051
f 1051 311 1052
f 994 1051 1052
f 291 990 1053
f 990 293 1052
f 1052 311 1053
f 990 1052 1053
f 289 986 1054
f 986 291 1053
f 1053 311 1054
f 986 1053 1054
f 287 982 1055
f 982 289 1054
f 1054 311 1055
f 982 1054 1055
f 311 1030 1056
f 1030 282 969
f 969 281 1056
f 1030 969 1056
f 311 1056 1057
f 1056 281 974
f 974 285 1057
f 1056 974 1057
f 311 1057 1055
f 1057 285 978
f 978 287 1055
f 1057 978 1055
f 309 1046 1058
f 1046 303 1014
f 1014 305 1058
f 1046 1014 1058
f 309 1058 1022
f 1058 305 1018
f 1018 307 1022
f 1058 1018 1022
