# Unified Preprocessed OBJ file from m781.obj
# Applied remeshing: Yes
# Applied 4-step normalization: centering, PCA alignment, flipping, scaling
# Generated on 2025-09-29 15:15:32

v 0.414637 -0.146063 -0.031468
v 0.414329 0.113030 0.225380
v 0.414345 0.102969 0.235528
v 0.414653 -0.156124 -0.021320
v 0.423772 0.125657 0.237883
v 0.423788 0.115596 0.248032
v 0.441564 0.132213 0.244355
v 0.441580 0.122152 0.254503
v 0.461707 0.131652 0.243767
v 0.461723 0.121591 0.253915
v 0.479932 0.125465 0.237604
v 0.479948 0.115404 0.247753
v 0.493789 0.115029 0.227236
v 0.493805 0.104968 0.237385
v 0.501007 0.101650 0.213961
v 0.501023 0.091588 0.224109
v 0.501213 -0.071518 0.042293
v 0.501229 -0.081579 0.052441
v 0.449159 -0.146016 -0.031476
v 0.449175 -0.156077 -0.021327
v -0.412119 0.111883 0.225545
v -0.411811 -0.147210 -0.031303
v -0.411795 -0.157271 -0.021155
v -0.412103 0.101822 0.235693
v -0.421592 0.124484 0.238052
v -0.421576 0.114423 0.248201
v -0.439400 0.130991 0.244531
v -0.439384 0.120930 0.254679
v -0.459541 0.130374 0.243951
v -0.459525 0.120313 0.254099
v -0.477752 0.124136 0.237796
v -0.477736 0.114075 0.247944
v -0.491584 0.113661 0.227433
v -0.491568 0.103600 0.237581
v -0.498771 0.100262 0.214160
v -0.498755 0.090201 0.224309
v -0.498565 -0.072905 0.042492
v -0.498549 -0.082966 0.052641
v -0.446333 -0.147258 -0.031297
v -0.446317 -0.157320 -0.021149
v 0.457543 0.035914 0.168986
v 0.457527 0.045975 0.158837
v -0.455142 0.034648 0.169168
v -0.455158 0.044709 0.159020
v -0.355986 -0.060933 -0.110626
v -0.384567 -0.060940 -0.110528
v -0.384282 -0.246565 0.031208
v -0.355700 -0.246559 0.031110
v -0.355991 -0.056427 -0.104735
v -0.355706 -0.242052 0.037001
v -0.384572 -0.056435 -0.104635
v -0.384287 -0.242059 0.037099
v -0.294061 -0.060849 -0.110641
v -0.322642 -0.060856 -0.110542
v -0.322356 -0.246481 0.031193
v -0.293775 -0.246473 0.031094
v -0.294066 -0.056343 -0.104749
v -0.293780 -0.241968 0.036986
v -0.322647 -0.056352 -0.104651
v -0.322361 -0.241975 0.037085
v -0.232136 -0.060765 -0.110655
v -0.260717 -0.060772 -0.110559
v -0.260431 -0.246398 0.031179
v -0.231850 -0.246390 0.031079
v -0.232141 -0.056259 -0.104764
v -0.231855 -0.241884 0.036971
v -0.260722 -0.056266 -0.104667
v -0.260436 -0.241892 0.037070
v -0.170211 -0.060680 -0.110671
v -0.198792 -0.060688 -0.110574
v -0.198506 -0.246314 0.031164
v -0.169925 -0.246306 0.031065
v -0.170215 -0.056174 -0.104780
v -0.169929 -0.241801 0.036957
v -0.198797 -0.056183 -0.104681
v -0.198511 -0.241808 0.037055
v -0.108284 -0.060596 -0.110686
v -0.136865 -0.060604 -0.110588
v -0.136580 -0.246230 0.031149
v -0.107999 -0.246222 0.031050
v -0.108290 -0.056090 -0.104795
v -0.108004 -0.241717 0.036942
v -0.136871 -0.056099 -0.104696
v -0.136585 -0.241724 0.037040
v -0.046359 -0.060513 -0.110701
v -0.074940 -0.060521 -0.110603
v -0.074654 -0.246145 0.031133
v -0.046073 -0.246137 0.031034
v -0.046364 -0.056007 -0.104809
v -0.046078 -0.241632 0.036926
v -0.074945 -0.056015 -0.104711
v -0.074659 -0.241640 0.037025
v 0.015566 -0.060429 -0.110715
v -0.013015 -0.060437 -0.110617
v -0.012729 -0.246062 0.031119
v 0.015852 -0.246054 0.031019
v 0.015561 -0.055923 -0.104824
v 0.015847 -0.241548 0.036912
v -0.013020 -0.055930 -0.104727
v -0.012734 -0.241557 0.037010
v 0.077491 -0.060344 -0.110731
v 0.048910 -0.060353 -0.110633
v 0.049196 -0.245979 0.031103
v 0.077777 -0.245970 0.031005
v 0.077487 -0.055838 -0.104840
v 0.077773 -0.241465 0.036897
v 0.048906 -0.055847 -0.104741
v 0.049192 -0.241473 0.036996
v 0.139416 -0.060260 -0.110746
v 0.110836 -0.060269 -0.110647
v 0.111122 -0.245895 0.031089
v 0.139702 -0.245886 0.030990
v 0.139412 -0.055755 -0.104855
v 0.139698 -0.241381 0.036882
v 0.110831 -0.055763 -0.104756
v 0.111117 -0.241390 0.036981
v 0.201343 -0.060177 -0.110761
v 0.172762 -0.060185 -0.110662
v 0.173047 -0.245810 0.031073
v 0.201628 -0.245802 0.030975
v 0.201338 -0.055670 -0.104869
v 0.201623 -0.241296 0.036866
v 0.172756 -0.055679 -0.104770
v 0.173042 -0.241304 0.036965
v 0.263268 -0.060094 -0.110776
v 0.234687 -0.060102 -0.110676
v 0.234973 -0.245726 0.031058
v 0.263554 -0.245718 0.030960
v 0.263263 -0.055588 -0.104884
v 0.263549 -0.241212 0.036852
v 0.234682 -0.055596 -0.104785
v 0.234968 -0.241221 0.036950
v 0.325193 -0.060008 -0.110792
v 0.296612 -0.060016 -0.110692
v 0.296898 -0.245642 0.031044
v 0.325479 -0.245634 0.030946
v 0.325188 -0.055503 -0.104900
v 0.325474 -0.241128 0.036837
v 0.296607 -0.055510 -0.104801
v 0.296893 -0.241137 0.036936
v 0.387119 -0.059925 -0.110806
v 0.358538 -0.059933 -0.110707
v 0.358824 -0.245559 0.031029
v 0.387405 -0.245551 0.030931
v 0.387114 -0.055419 -0.104914
v 0.387400 -0.241045 0.036822
v 0.358533 -0.055427 -0.104816
v 0.358819 -0.241053 0.036921
v 0.418722 -0.245714 0.028198
v 0.419825 -0.291172 0.062848
v 0.419816 -0.283772 0.072524
v 0.418715 -0.238315 0.037873
v 0.418370 -0.016914 -0.146788
v 0.419472 -0.062373 -0.112136
v 0.419464 -0.054974 -0.102461
v 0.418362 -0.009514 -0.137114
v -0.412612 -0.292327 0.063014
v -0.413713 -0.246869 0.028364
v -0.413721 -0.239470 0.038039
v -0.412620 -0.284927 0.072690
v -0.412964 -0.063528 -0.111970
v -0.414065 -0.018069 -0.146622
v -0.414074 -0.010669 -0.136947
v -0.412972 -0.056129 -0.102295
v 0.414321 0.000716 -0.134711
v 0.414001 0.201935 -0.337678
v 0.447346 0.201981 -0.337685
v 0.447665 0.000763 -0.134718
v 0.414750 -0.277370 0.079630
v 0.448094 -0.277324 0.079623
v 0.414758 -0.284513 0.082619
v 0.448102 -0.284466 0.082612
v 0.414769 -0.292270 0.082049
v 0.448113 -0.292224 0.082042
v 0.414779 -0.298924 0.078020
v 0.448124 -0.298878 0.078014
v 0.414784 -0.303022 0.071409
v 0.448128 -0.302975 0.071403
v 0.414783 -0.303672 0.063659
v 0.448127 -0.303626 0.063652
v 0.414778 -0.300734 0.056457
v 0.448122 -0.300688 0.056451
v 0.414772 -0.297072 0.052756
v 0.448116 -0.297026 0.052750
v 0.414349 -0.022948 -0.158171
v 0.447693 -0.022901 -0.158178
v 0.414020 0.178271 -0.361138
v 0.447364 0.178317 -0.361145
v -0.412264 0.200788 -0.337513
v -0.411944 -0.000430 -0.134546
v -0.445288 -0.000476 -0.134539
v -0.445608 0.200742 -0.337506
v -0.411515 -0.278517 0.079795
v -0.444859 -0.278563 0.079802
v -0.411503 -0.285659 0.082784
v -0.444847 -0.285705 0.082791
v -0.411492 -0.293417 0.082214
v -0.444836 -0.293463 0.082221
v -0.411486 -0.300070 0.078186
v -0.444830 -0.300117 0.078192
v -0.411481 -0.304168 0.071574
v -0.444825 -0.304214 0.071581
v -0.411482 -0.304819 0.063824
v -0.444826 -0.304865 0.063830
v -0.411487 -0.301881 0.056622
v -0.444832 -0.301927 0.056629
v -0.411493 -0.298219 0.052921
v -0.444837 -0.298265 0.052928
v -0.411916 -0.024094 -0.158006
v -0.445260 -0.024140 -0.157999
v -0.412226 0.177124 -0.360973
v -0.445570 0.177078 -0.360967
v 0.414412 -0.061438 -0.102537
v 0.447756 -0.061391 -0.102544
v -0.411849 -0.062584 -0.102372
v -0.445193 -0.062630 -0.102366
v 0.414225 0.109238 0.221628
v 0.413708 0.434828 -0.106791
v 0.447052 0.434874 -0.106798
v 0.447569 0.109285 0.221622
v 0.413726 0.411165 -0.130250
v 0.414253 0.085575 0.198169
v 0.447597 0.085621 0.198162
v 0.447070 0.411211 -0.130257
v -0.412524 0.433682 -0.106626
v -0.412006 0.108092 0.221793
v -0.445351 0.108046 0.221800
v -0.445868 0.433635 -0.106619
v -0.411978 0.084429 0.198334
v -0.412486 0.410018 -0.130085
v -0.445830 0.409972 -0.130079
v -0.445322 0.084382 0.198341
v 0.444969 0.025760 -0.098389
v 0.445118 -0.004285 -0.128304
v 0.445129 -0.011185 -0.121345
v 0.444980 0.018862 -0.091431
v 0.444930 0.061358 -0.063097
v 0.445080 0.031313 -0.093013
v 0.445091 0.024413 -0.086054
v 0.444941 0.054460 -0.056139
v 0.444892 0.096956 -0.027806
v 0.445041 0.066910 -0.057722
v 0.445052 0.060010 -0.050763
v 0.444903 0.090058 -0.020848
v 0.444852 0.132554 0.007485
v 0.445003 0.102508 -0.022431
v 0.445014 0.095608 -0.015472
v 0.444863 0.125656 0.014443
v 0.444812 0.168152 0.042777
v 0.444965 0.138106 0.012860
v 0.444976 0.131206 0.019820
v 0.444823 0.161254 0.049735
v 0.444774 0.203749 0.078067
v 0.444925 0.173704 0.048152
v 0.444936 0.166804 0.055111
v 0.444785 0.196851 0.085025
v -0.462116 0.024501 -0.098208
v -0.461965 -0.005544 -0.128123
v -0.461954 -0.012444 -0.121164
v -0.462105 0.017603 -0.091249
v -0.462154 0.060099 -0.062916
v -0.462004 0.030054 -0.092832
v -0.461993 0.023154 -0.085872
v -0.462143 0.053201 -0.055958
v -0.462192 0.095697 -0.027625
v -0.462043 0.065651 -0.057541
v -0.462032 0.058752 -0.050582
v -0.462181 0.088799 -0.020667
v -0.462231 0.131295 0.007667
v -0.462081 0.101249 -0.022250
v -0.462070 0.094350 -0.015290
v -0.462220 0.124397 0.014625
v -0.462272 0.166893 0.042958
v -0.462120 0.136847 0.013041
v -0.462109 0.129948 0.020001
v -0.462261 0.159995 0.049916
v -0.462310 0.202491 0.078249
v -0.462160 0.172445 0.048333
v -0.462149 0.165546 0.055292
v -0.462299 0.195593 0.085207
v -0.433687 -0.009617 -0.133211
v -0.433639 0.017235 -0.160252
v -0.433893 0.230571 0.051247
v -0.433941 0.203718 0.078287
v -0.421506 -0.009600 -0.133213
v -0.421759 0.203735 0.078284
v -0.421459 0.017252 -0.160254
v -0.421712 0.230586 0.051243
v 0.436090 -0.008411 -0.133385
v 0.423909 -0.008427 -0.133382
v 0.423655 0.204908 0.078116
v 0.435837 0.204925 0.078113
v 0.435958 0.018442 -0.160425
v 0.435704 0.231778 0.051073
v 0.423777 0.018425 -0.160423
v 0.423523 0.231759 0.051074
v 0.007371 -0.005408 -0.129733
v -0.004810 -0.005426 -0.129731
v -0.005063 0.207909 0.081767
v 0.007117 0.207926 0.081764
v 0.007247 0.015214 -0.150490
v 0.006994 0.228549 0.061008
v -0.004933 0.015196 -0.150488
v -0.005187 0.228532 0.061010
v 0.424412 0.330629 -0.049045
v 0.438702 0.330649 -0.049048
v 0.438745 0.303819 -0.021985
v 0.424455 0.303799 -0.021982
v 0.438952 0.120912 -0.256978
v 0.424661 0.120892 -0.256975
v 0.424704 0.094062 -0.229912
v 0.438994 0.094082 -0.229915
v -0.437206 0.329433 -0.048873
v -0.422916 0.329453 -0.048876
v -0.422873 0.302623 -0.021813
v -0.437164 0.302604 -0.021810
v -0.422666 0.119717 -0.256806
v -0.436957 0.119697 -0.256803
v -0.436914 0.092867 -0.229740
v -0.422624 0.092887 -0.229743
v 0.354647 0.284459 0.004658
v 0.413917 0.284541 0.004646
v 0.413905 0.294689 0.014706
v 0.354635 0.294606 0.014718
v 0.313265 0.265959 0.023268
v 0.313253 0.276107 0.033329
v 0.268822 0.251513 0.037787
v 0.268810 0.261661 0.047847
v 0.221771 0.241055 0.048279
v 0.221759 0.251203 0.058340
v 0.173296 0.234387 0.054947
v 0.173284 0.244534 0.065008
v 0.124142 0.230849 0.058456
v 0.124130 0.240997 0.068517
v -0.122327 0.230507 0.058506
v -0.122339 0.240655 0.068566
v -0.171493 0.233908 0.055016
v -0.171505 0.244056 0.065077
v -0.219988 0.240442 0.048368
v -0.220000 0.250590 0.058428
v -0.267072 0.250770 0.037894
v -0.267084 0.260917 0.047954
v -0.311561 0.265092 0.023393
v -0.311573 0.275240 0.033453
v -0.353002 0.283471 0.004805
v -0.353014 0.293619 0.014866
v -0.412272 0.283390 0.004816
v -0.412284 0.293538 0.014876
v -0.412140 0.202919 0.085986
v -0.412152 0.213067 0.096046
v 0.414041 0.204065 0.085821
v 0.414029 0.214213 0.095881
v 0.414483 -0.016517 0.096956
v 0.414337 0.107999 0.230454
v 0.414491 -0.021547 0.102030
v 0.414645 -0.151094 -0.026394
v 0.414499 -0.026578 0.107104
v 0.419050 0.119343 0.231631
v 0.423780 0.120627 0.242957
v 0.419058 0.114313 0.236706
v 0.419066 0.109282 0.241780
v 0.432668 0.128935 0.241119
v 0.441572 0.127182 0.249429
v 0.432676 0.123905 0.246193
v 0.432684 0.118874 0.251267
v 0.451635 0.131933 0.244061
v 0.461715 0.126622 0.248841
v 0.451643 0.126902 0.249135
v 0.451651 0.121871 0.254209
v 0.470819 0.128559 0.240686
v 0.479940 0.120435 0.242679
v 0.470827 0.123528 0.245760
v 0.470835 0.118498 0.250834
v 0.486861 0.120247 0.232420
v 0.493797 0.109998 0.232310
v 0.486869 0.115216 0.237495
v 0.486877 0.110186 0.242569
v 0.497398 0.108339 0.220598
v 0.501015 0.096619 0.219035
v 0.497406 0.103309 0.225673
v 0.497414 0.098278 0.230747
v 0.501110 0.015066 0.128127
v 0.501221 -0.076548 0.047367
v 0.501118 0.010035 0.133201
v 0.501126 0.005005 0.138275
v 0.475186 -0.108767 0.005408
v 0.449167 -0.151047 -0.026402
v 0.475194 -0.113797 0.010483
v 0.475202 -0.118828 0.015557
v 0.431898 -0.146040 -0.031472
v 0.431906 -0.151070 -0.026398
v 0.431914 -0.156101 -0.021324
v -0.411965 -0.017663 0.097121
v -0.411803 -0.152240 -0.026229
v -0.411957 -0.022694 0.102195
v -0.412111 0.106853 0.230619
v -0.411949 -0.027724 0.107269
v -0.416856 0.118184 0.231798
v -0.416848 0.113153 0.236873
v -0.421584 0.119454 0.243126
v -0.416840 0.108123 0.241947
v -0.430496 0.127737 0.241291
v -0.430488 0.122707 0.246366
v -0.439392 0.125960 0.249605
v -0.430480 0.117676 0.251440
v -0.449471 0.130682 0.244241
v -0.449463 0.125652 0.249315
v -0.459533 0.125343 0.249025
v -0.449455 0.120621 0.254389
v -0.468647 0.127255 0.240873
v -0.468639 0.122225 0.245947
v -0.477744 0.119106 0.242870
v -0.468631 0.117194 0.251022
v -0.484668 0.118899 0.232614
v -0.484660 0.113868 0.237689
v -0.491576 0.108631 0.232507
v -0.484652 0.108838 0.242763
v -0.495177 0.106962 0.220797
v -0.495169 0.101931 0.225871
v -0.498763 0.095232 0.219235
v -0.495161 0.096901 0.230945
v -0.498668 0.013679 0.128326
v -0.498660 0.008648 0.133401
v -0.498557 -0.077935 0.047567
v -0.498652 0.003618 0.138475
v -0.472449 -0.110082 0.005598
v -0.472441 -0.115112 0.010672
v -0.446325 -0.152289 -0.026223
v -0.472433 -0.120143 0.015746
v -0.429072 -0.147234 -0.031300
v -0.429064 -0.152265 -0.026226
v -0.429056 -0.157295 -0.021152
v 0.436098 -0.060105 0.073833
v 0.435944 0.069441 0.202257
v 0.440666 0.075755 0.208509
v 0.449562 0.079033 0.211745
v 0.459633 0.078752 0.211451
v 0.468746 0.075659 0.208370
v 0.475674 0.070441 0.203185
v 0.479283 0.063751 0.196548
v 0.479386 -0.022832 0.110714
v 0.453359 -0.060082 0.073829
v 0.436082 -0.050044 0.063685
v 0.435928 0.079502 0.192109
v 0.440650 0.085816 0.198360
v 0.449546 0.089094 0.201596
v 0.459617 0.088814 0.201302
v 0.468730 0.085720 0.198221
v 0.475658 0.080502 0.193037
v 0.479267 0.073812 0.186399
v 0.479370 -0.012771 0.100565
v 0.453343 -0.050020 0.063681
v -0.433469 -0.061312 0.074007
v -0.433623 0.068235 0.202431
v -0.438359 0.074535 0.208684
v -0.447263 0.077789 0.211924
v -0.457334 0.077480 0.211634
v -0.466439 0.074361 0.208556
v -0.473355 0.069124 0.203375
v -0.476948 0.062424 0.196739
v -0.476845 -0.024159 0.110905
v -0.450730 -0.061336 0.074010
v -0.433485 -0.051251 0.063858
v -0.433639 0.078296 0.192282
v -0.438375 0.084596 0.198536
v -0.447279 0.087850 0.201775
v -0.457350 0.087541 0.201485
v -0.466455 0.084423 0.198408
v -0.473371 0.079185 0.193226
v -0.476964 0.072486 0.186590
v -0.476861 -0.014098 0.100756
v -0.450746 -0.051275 0.063861
v -0.370277 -0.060936 -0.110577
v -0.384424 -0.153753 -0.039660
v -0.370134 -0.153749 -0.039709
v -0.355843 -0.153746 -0.039758
v -0.369991 -0.246562 0.031159
v -0.355989 -0.058680 -0.107680
v -0.355846 -0.151493 -0.036812
v -0.355848 -0.149239 -0.033867
v -0.355703 -0.244305 0.034055
v -0.370282 -0.056431 -0.104685
v -0.370139 -0.149243 -0.033817
v -0.384430 -0.149247 -0.033768
v -0.369996 -0.242055 0.037050
v -0.384570 -0.058687 -0.107581
v -0.384427 -0.151499 -0.036714
v -0.384284 -0.244312 0.034153
v -0.308352 -0.060853 -0.110591
v -0.322499 -0.153669 -0.039674
v -0.308209 -0.153665 -0.039724
v -0.293918 -0.153661 -0.039773
v -0.308066 -0.246477 0.031143
v -0.294064 -0.058596 -0.107695
v -0.293921 -0.151408 -0.036828
v -0.293923 -0.149155 -0.033882
v -0.293778 -0.244221 0.034040
v -0.308357 -0.056347 -0.104700
v -0.308214 -0.149160 -0.033832
v -0.322504 -0.149163 -0.033783
v -0.308071 -0.241972 0.037035
v -0.322645 -0.058604 -0.107596
v -0.322502 -0.151416 -0.036729
v -0.322359 -0.244228 0.034139
v -0.246426 -0.060769 -0.110607
v -0.260574 -0.153585 -0.039690
v -0.246283 -0.153582 -0.039738
v -0.231993 -0.153578 -0.039788
v -0.246141 -0.246394 0.031129
v -0.232138 -0.058512 -0.107710
v -0.231995 -0.151324 -0.036842
v -0.231998 -0.149072 -0.033896
v -0.231853 -0.244137 0.034025
v -0.246432 -0.056263 -0.104715
v -0.246289 -0.149075 -0.033848
v -0.260579 -0.149079 -0.033798
v -0.246146 -0.241888 0.037021
v -0.260720 -0.058519 -0.107613
v -0.260577 -0.151332 -0.036744
v -0.260434 -0.244145 0.034124
v -0.184501 -0.060684 -0.110622
v -0.198649 -0.153501 -0.039705
v -0.184358 -0.153497 -0.039754
v -0.170068 -0.153493 -0.039803
v -0.184215 -0.246310 0.031114
v -0.170213 -0.058427 -0.107726
v -0.170070 -0.151240 -0.036858
v -0.170072 -0.148987 -0.033912
v -0.169927 -0.244053 0.034011
v -0.184506 -0.056178 -0.104731
v -0.184363 -0.148992 -0.033862
v -0.198654 -0.148995 -0.033813
v -0.184220 -0.241804 0.037006
v -0.198794 -0.058435 -0.107627
v -0.198651 -0.151248 -0.036759
v -0.198508 -0.244061 0.034110
v -0.122575 -0.060600 -0.110637
v -0.136723 -0.153417 -0.039719
v -0.122432 -0.153413 -0.039768
v -0.108142 -0.153409 -0.039818
v -0.122289 -0.246226 0.031100
v -0.108287 -0.058343 -0.107740
v -0.108144 -0.151156 -0.036872
v -0.108147 -0.148904 -0.033926
v -0.108001 -0.243970 0.033996
v -0.122580 -0.056095 -0.104745
v -0.122437 -0.148908 -0.033877
v -0.136728 -0.148911 -0.033828
v -0.122294 -0.241720 0.036991
v -0.136868 -0.058352 -0.107642
v -0.136725 -0.151164 -0.036774
v -0.136582 -0.243977 0.034095
v -0.060650 -0.060517 -0.110652
v -0.074797 -0.153333 -0.039735
v -0.060507 -0.153329 -0.039784
v -0.046216 -0.153325 -0.039833
v -0.060364 -0.246141 0.031084
v -0.046362 -0.058260 -0.107755
v -0.046219 -0.151072 -0.036888
v -0.046221 -0.148819 -0.033942
v -0.046076 -0.243885 0.033980
v -0.060655 -0.056011 -0.104760
v -0.060512 -0.148824 -0.033892
v -0.074802 -0.148828 -0.033843
v -0.060369 -0.241636 0.036976
v -0.074943 -0.058268 -0.107657
v -0.074800 -0.151080 -0.036789
v -0.074657 -0.243893 0.034079
v 0.001275 -0.060433 -0.110666
v -0.012872 -0.153249 -0.039749
v 0.001418 -0.153245 -0.039798
v 0.015709 -0.153241 -0.039848
v 0.001561 -0.246058 0.031069
v 0.015563 -0.058176 -0.107769
v 0.015706 -0.150988 -0.036902
v 0.015704 -0.148736 -0.033956
v 0.015849 -0.243801 0.033965
v 0.001270 -0.055927 -0.104775
v 0.001413 -0.148739 -0.033908
v -0.012877 -0.148744 -0.033858
v 0.001556 -0.241553 0.036961
v -0.013018 -0.058184 -0.107672
v -0.012875 -0.150997 -0.036804
v -0.012732 -0.243809 0.034064
v 0.063201 -0.060348 -0.110682
v 0.049053 -0.153166 -0.039765
v 0.063344 -0.153161 -0.039814
v 0.077634 -0.153157 -0.039863
v 0.063486 -0.245974 0.031054
v 0.077489 -0.058091 -0.107786
v 0.077632 -0.150904 -0.036918
v 0.077630 -0.148651 -0.033971
v 0.077775 -0.243717 0.033951
v 0.063197 -0.055842 -0.104791
v 0.063340 -0.148656 -0.033922
v 0.049049 -0.148660 -0.033873
v 0.063482 -0.241469 0.036946
v 0.048908 -0.058100 -0.107687
v 0.049051 -0.150913 -0.036819
v 0.049194 -0.243726 0.034049
v 0.125126 -0.060265 -0.110697
v 0.110979 -0.153082 -0.039779
v 0.125269 -0.153078 -0.039829
v 0.139559 -0.153073 -0.039878
v 0.125412 -0.245891 0.031039
v 0.139414 -0.058008 -0.107800
v 0.139557 -0.150821 -0.036932
v 0.139555 -0.148568 -0.033986
v 0.139700 -0.243634 0.033936
v 0.125122 -0.055759 -0.104805
v 0.125265 -0.148572 -0.033937
v 0.110974 -0.148576 -0.033887
v 0.125408 -0.241385 0.036932
v 0.110834 -0.058016 -0.107702
v 0.110977 -0.150829 -0.036833
v 0.111120 -0.243642 0.034035
v 0.187052 -0.060181 -0.110711
v 0.172904 -0.152998 -0.039795
v 0.187195 -0.152994 -0.039844
v 0.201486 -0.152990 -0.039893
v 0.187338 -0.245806 0.031024
v 0.201340 -0.057924 -0.107815
v 0.201483 -0.150736 -0.036947
v 0.201480 -0.148483 -0.034001
v 0.201626 -0.243549 0.033921
v 0.187047 -0.055675 -0.104820
v 0.187190 -0.148487 -0.033952
v 0.172899 -0.148492 -0.033903
v 0.187333 -0.241300 0.036916
v 0.172759 -0.057932 -0.107716
v 0.172902 -0.150745 -0.036848
v 0.173045 -0.243557 0.034019
v 0.248977 -0.060098 -0.110726
v 0.234830 -0.152914 -0.039809
v 0.249120 -0.152910 -0.039859
v 0.263411 -0.152906 -0.039908
v 0.249263 -0.245722 0.031009
v 0.263265 -0.057841 -0.107830
v 0.263408 -0.150653 -0.036962
v 0.263406 -0.148400 -0.034016
v 0.263551 -0.243465 0.033906
v 0.248972 -0.055592 -0.104835
v 0.249115 -0.148404 -0.033967
v 0.234825 -0.148408 -0.033917
v 0.249258 -0.241216 0.036901
v 0.234684 -0.057849 -0.107731
v 0.234827 -0.150661 -0.036863
v 0.234970 -0.243473 0.034004
v 0.310902 -0.060012 -0.110742
v 0.296755 -0.152829 -0.039824
v 0.311045 -0.152825 -0.039874
v 0.325336 -0.152821 -0.039923
v 0.311188 -0.245638 0.030995
v 0.325190 -0.057756 -0.107846
v 0.325333 -0.150569 -0.036977
v 0.325331 -0.148316 -0.034031
v 0.325476 -0.243381 0.033891
v 0.310897 -0.055507 -0.104850
v 0.311040 -0.148319 -0.033982
v 0.296750 -0.148324 -0.033933
v 0.311183 -0.241133 0.036886
v 0.296609 -0.057763 -0.107747
v 0.296752 -0.150577 -0.036878
v 0.296895 -0.243390 0.033990
v 0.372829 -0.059929 -0.110757
v 0.358681 -0.152746 -0.039839
v 0.372972 -0.152742 -0.039889
v 0.387262 -0.152738 -0.039938
v 0.373115 -0.245555 0.030980
v 0.387117 -0.057672 -0.107860
v 0.387260 -0.150485 -0.036992
v 0.387257 -0.148232 -0.034046
v 0.387403 -0.243298 0.033877
v 0.372824 -0.055423 -0.104865
v 0.372967 -0.148236 -0.033997
v 0.358676 -0.148240 -0.033947
v 0.373110 -0.241049 0.036872
v 0.358536 -0.057680 -0.107761
v 0.358679 -0.150493 -0.036893
v 0.358822 -0.243306 0.033975
v 0.419273 -0.268443 0.045523
v 0.419820 -0.287472 0.067686
v 0.419269 -0.264743 0.050361
v 0.418718 -0.242014 0.033035
v 0.419265 -0.261044 0.055199
v 0.418921 -0.039644 -0.129462
v 0.419468 -0.058674 -0.107299
v 0.418917 -0.035944 -0.124625
v 0.418366 -0.013214 -0.141951
v 0.418913 -0.032244 -0.119787
v -0.413162 -0.269598 0.045689
v -0.413717 -0.243169 0.033202
v -0.413167 -0.265898 0.050527
v -0.412616 -0.288627 0.067852
v -0.413171 -0.262199 0.055365
v 0.003598 -0.284350 0.072607
v 0.003602 -0.288050 0.067769
v 0.003606 -0.291749 0.062931
v 0.003056 -0.269020 0.045606
v 0.002505 -0.246292 0.028281
v 0.002500 -0.242592 0.033119
v 0.002497 -0.238892 0.037956
v 0.003047 -0.261621 0.055282
v -0.413515 -0.040799 -0.129296
v -0.414070 -0.014369 -0.141785
v -0.413519 -0.037099 -0.124459
v -0.412968 -0.059829 -0.107132
v -0.413523 -0.033399 -0.119621
v 0.003246 -0.055551 -0.102378
v 0.003250 -0.059251 -0.107215
v 0.003254 -0.062951 -0.112053
v 0.002703 -0.040221 -0.129379
v 0.002152 -0.017492 -0.146705
v 0.002148 -0.013792 -0.141868
v 0.002144 -0.010091 -0.137030
v 0.002695 -0.032821 -0.119704
v 0.414161 0.101326 -0.236195
v 0.430674 0.201958 -0.337681
v 0.430833 0.101349 -0.236198
v 0.430993 0.000740 -0.134714
v 0.447505 0.101372 -0.236201
v 0.414535 -0.138327 -0.027541
v 0.431208 -0.138304 -0.027544
v 0.431422 -0.277347 0.079627
v 0.447880 -0.138281 -0.027547
v 0.414754 -0.280942 0.081124
v 0.431426 -0.280918 0.081121
v 0.431430 -0.284490 0.082616
v 0.448098 -0.280895 0.081118
v 0.414764 -0.288391 0.082334
v 0.431436 -0.288368 0.082331
v 0.431441 -0.292247 0.082046
v 0.448108 -0.288345 0.082327
v 0.414774 -0.295597 0.080035
v 0.431446 -0.295574 0.080031
v 0.431451 -0.298901 0.078017
v 0.448118 -0.295551 0.080028
v 0.414782 -0.300973 0.074715
v 0.431454 -0.300950 0.074712
v 0.431456 -0.302999 0.071406
v 0.448126 -0.300927 0.074708
v 0.414783 -0.303347 0.067534
v 0.431456 -0.303324 0.067531
v 0.431455 -0.303649 0.063655
v 0.448128 -0.303301 0.067527
v 0.414780 -0.302203 0.060058
v 0.431452 -0.302180 0.060055
v 0.431450 -0.300711 0.056454
v 0.448125 -0.302157 0.060051
v 0.414775 -0.298903 0.054607
v 0.431447 -0.298880 0.054603
v 0.431444 -0.297049 0.052753
v 0.448119 -0.298857 0.054600
v 0.414561 -0.160010 -0.052707
v 0.431233 -0.159987 -0.052711
v 0.431021 -0.022924 -0.158174
v 0.447905 -0.159964 -0.052714
v 0.414185 0.077662 -0.259655
v 0.430857 0.077685 -0.259658
v 0.430692 0.178294 -0.361142
v 0.447529 0.077708 -0.259661
v 0.414011 0.190103 -0.349408
v 0.430683 0.190126 -0.349411
v 0.447355 0.190149 -0.349415
v -0.412104 0.100179 -0.236029
v -0.428616 -0.000453 -0.134543
v -0.428776 0.100156 -0.236026
v -0.428936 0.200765 -0.337510
v -0.445448 0.100133 -0.236023
v -0.411729 -0.139473 -0.027375
v -0.428187 -0.278540 0.079798
v -0.428402 -0.139497 -0.027372
v -0.445074 -0.139520 -0.027369
v -0.411509 -0.282088 0.081289
v -0.428175 -0.285682 0.082787
v -0.428181 -0.282111 0.081293
v -0.444853 -0.282134 0.081296
v -0.411497 -0.289538 0.082499
v -0.428164 -0.293440 0.082217
v -0.428169 -0.289561 0.082502
v -0.444841 -0.289584 0.082506
v -0.411489 -0.296743 0.080200
v -0.428158 -0.300094 0.078189
v -0.428161 -0.296767 0.080203
v -0.444833 -0.296790 0.080206
v -0.411483 -0.302119 0.074880
v -0.428153 -0.304191 0.071578
v -0.428155 -0.302142 0.074883
v -0.444828 -0.302166 0.074887
v -0.411481 -0.304493 0.067699
v -0.428154 -0.304842 0.063827
v -0.428154 -0.304516 0.067702
v -0.444826 -0.304540 0.067706
v -0.411485 -0.303350 0.060223
v -0.428159 -0.301904 0.056626
v -0.428157 -0.303373 0.060226
v -0.444829 -0.303396 0.060230
v -0.411490 -0.300050 0.054772
v -0.428165 -0.298242 0.052925
v -0.428162 -0.300073 0.054775
v -0.444834 -0.300096 0.054778
v -0.411704 -0.161156 -0.052542
v -0.428588 -0.024117 -0.158003
v -0.428376 -0.161180 -0.052539
v -0.445049 -0.161203 -0.052536
v -0.412071 0.076515 -0.259490
v -0.428898 0.177101 -0.360970
v -0.428743 0.076492 -0.259486
v -0.445415 0.076469 -0.259483
v -0.412245 0.188956 -0.349243
v -0.428917 0.188933 -0.349240
v -0.445589 0.188910 -0.349236
v 0.414207 0.070249 -0.220108
v 0.414366 -0.030361 -0.118624
v 0.414581 -0.169404 -0.011454
v 0.414585 -0.172975 -0.009959
v 0.414590 -0.176854 -0.010244
v 0.414596 -0.180181 -0.012258
v 0.414598 -0.182230 -0.015564
v 0.414597 -0.182555 -0.019439
v 0.414595 -0.181086 -0.023040
v 0.414592 -0.179255 -0.024891
v 0.414381 -0.042193 -0.130354
v 0.414216 0.058417 -0.231838
v 0.447551 0.070295 -0.220114
v 0.447711 -0.030314 -0.118631
v 0.447925 -0.169358 -0.011460
v 0.447929 -0.172929 -0.009966
v 0.447934 -0.176808 -0.010251
v 0.447940 -0.180135 -0.012265
v 0.447942 -0.182183 -0.015571
v 0.447942 -0.182509 -0.019446
v 0.447939 -0.181040 -0.023047
v 0.447936 -0.179209 -0.024897
v 0.447725 -0.042146 -0.130361
v 0.447560 0.058463 -0.231845
v -0.412056 0.069102 -0.219943
v -0.411896 -0.031507 -0.118459
v -0.411682 -0.170551 -0.011289
v -0.411676 -0.174122 -0.009794
v -0.411670 -0.178000 -0.010079
v -0.411667 -0.181327 -0.012093
v -0.411665 -0.183376 -0.015399
v -0.411665 -0.183701 -0.019274
v -0.411668 -0.182232 -0.022875
v -0.411671 -0.180401 -0.024726
v -0.411882 -0.043339 -0.130189
v -0.412037 0.057270 -0.231673
v -0.445400 0.069056 -0.219936
v -0.445241 -0.031553 -0.118453
v -0.445026 -0.170597 -0.011282
v -0.445020 -0.174168 -0.009788
v -0.445015 -0.178047 -0.010073
v -0.445011 -0.181374 -0.012087
v -0.445009 -0.183422 -0.015392
v -0.445010 -0.183748 -0.019268
v -0.445012 -0.182279 -0.022868
v -0.445015 -0.180448 -0.024719
v -0.445227 -0.043385 -0.130183
v -0.445382 0.057224 -0.231666
v 0.413966 0.272033 0.057419
v 0.430380 0.434851 -0.106794
v 0.430638 0.272056 0.057415
v 0.430897 0.109261 0.221625
v 0.447310 0.272079 0.057412
v 0.413990 0.248370 0.033959
v 0.430925 0.085598 0.198166
v 0.430662 0.248393 0.033956
v 0.430398 0.411188 -0.130254
v 0.447334 0.248416 0.033953
v -0.412265 0.270887 0.057584
v -0.428678 0.108069 0.221797
v -0.428937 0.270864 0.057587
v -0.429196 0.433659 -0.106623
v -0.445609 0.270840 0.057590
v -0.412232 0.247224 0.034124
v -0.429158 0.409995 -0.130082
v -0.428904 0.247200 0.034128
v -0.428650 0.084406 0.198337
v -0.445576 0.247177 0.034131
v 0.447061 0.423043 -0.118527
v 0.447324 0.260248 0.045682
v 0.447583 0.097453 0.209892
v 0.414239 0.097407 0.209899
v 0.413980 0.260202 0.045689
v 0.413717 0.422996 -0.118521
v -0.445849 0.421804 -0.118349
v -0.445590 0.259009 0.045861
v -0.445336 0.096214 0.210070
v -0.412505 0.421850 -0.118356
v -0.412246 0.259055 0.045854
v -0.411992 0.096260 0.210064
v 0.430911 0.097430 0.209895
v 0.430389 0.423020 -0.118524
v -0.428664 0.096237 0.210067
v -0.429177 0.421827 -0.118352
v 0.445044 0.010737 -0.113347
v 0.445124 -0.007735 -0.124825
v 0.445049 0.007288 -0.109867
v 0.444974 0.022311 -0.094910
v 0.445055 0.003839 -0.106388
v 0.445005 0.046335 -0.078055
v 0.445086 0.027863 -0.089533
v 0.445011 0.042886 -0.074575
v 0.444935 0.057909 -0.059618
v 0.445016 0.039437 -0.071096
v 0.444966 0.081933 -0.042764
v 0.445047 0.063460 -0.054243
v 0.444972 0.078483 -0.039284
v 0.444897 0.093507 -0.024327
v 0.444977 0.075034 -0.035805
v 0.444928 0.117531 -0.007473
v 0.445008 0.099058 -0.018951
v 0.444933 0.114081 -0.003993
v 0.444858 0.129105 0.010964
v 0.444939 0.110632 -0.000514
v 0.444889 0.153129 0.027819
v 0.444970 0.134656 0.016340
v 0.444894 0.149679 0.031298
v 0.444818 0.164703 0.046256
v 0.444899 0.146230 0.034777
v 0.444849 0.188727 0.063109
v 0.444930 0.170254 0.051631
v 0.444855 0.185277 0.066589
v 0.444780 0.200300 0.081546
v 0.444860 0.181828 0.070068
v -0.462041 0.009479 -0.113165
v -0.461960 -0.008994 -0.124643
v -0.462035 0.006029 -0.109686
v -0.462110 0.021052 -0.094728
v -0.462030 0.002580 -0.106207
v -0.008413 -0.011814 -0.121254
v -0.008418 -0.008364 -0.124734
v -0.008424 -0.004915 -0.128214
v -0.008499 0.010108 -0.113256
v -0.008573 0.025131 -0.098298
v -0.008568 0.021682 -0.094819
v -0.008562 0.018233 -0.091340
v -0.008487 0.003209 -0.106297
v -0.462079 0.045077 -0.077874
v -0.461998 0.026604 -0.089352
v -0.462073 0.041627 -0.074394
v -0.462149 0.056650 -0.059437
v -0.462068 0.038178 -0.070915
v -0.008451 0.023784 -0.085963
v -0.008456 0.027234 -0.089443
v -0.008462 0.030683 -0.092922
v -0.008537 0.045706 -0.077965
v -0.008612 0.060729 -0.063007
v -0.008607 0.057280 -0.059528
v -0.008601 0.053831 -0.056049
v -0.008526 0.038807 -0.071006
v -0.462117 0.080674 -0.042583
v -0.462037 0.062201 -0.054062
v -0.462112 0.077225 -0.039103
v -0.462187 0.092248 -0.024146
v -0.462107 0.073776 -0.035624
v -0.008490 0.059381 -0.050672
v -0.008495 0.062831 -0.054152
v -0.008501 0.066281 -0.057632
v -0.008576 0.081304 -0.042674
v -0.008650 0.096327 -0.027715
v -0.008645 0.092878 -0.024236
v -0.008639 0.089429 -0.020757
v -0.008565 0.074405 -0.035715
v -0.462156 0.116272 -0.007292
v -0.462075 0.097799 -0.018770
v -0.462151 0.112823 -0.003812
v -0.462226 0.127846 0.011146
v -0.462145 0.109374 -0.000333
v -0.008528 0.094979 -0.015381
v -0.008534 0.098429 -0.018861
v -0.008539 0.101879 -0.022340
v -0.008614 0.116902 -0.007382
v -0.008689 0.131925 0.007576
v -0.008684 0.128476 0.011055
v -0.008678 0.125027 0.014534
v -0.008603 0.110003 -0.000423
v -0.462196 0.151870 0.028000
v -0.462115 0.133397 0.016521
v -0.462190 0.148421 0.031479
v -0.462266 0.163444 0.046437
v -0.462185 0.144972 0.034958
v -0.008567 0.130577 0.019910
v -0.008572 0.134027 0.016431
v -0.008578 0.137477 0.012951
v -0.008653 0.152500 0.027909
v -0.008730 0.167523 0.042867
v -0.008724 0.164074 0.046346
v -0.008719 0.160625 0.049825
v -0.008643 0.145601 0.034868
v -0.462235 0.187468 0.063291
v -0.462155 0.168995 0.051813
v -0.462230 0.184018 0.066770
v -0.462304 0.199042 0.081728
v -0.462224 0.180569 0.070249
v -0.008607 0.166175 0.055202
v -0.008612 0.169625 0.051722
v -0.008618 0.173075 0.048242
v -0.008693 0.188097 0.063200
v -0.008768 0.203120 0.078158
v -0.008762 0.199671 0.081637
v -0.008757 0.196222 0.085116
v -0.008682 0.181198 0.070159
v -0.433663 0.003809 -0.146731
v -0.433766 0.123903 -0.054502
v -0.433790 0.110477 -0.040982
v -0.433814 0.097050 -0.027462
v -0.433917 0.217144 0.064767
v -0.427596 -0.009609 -0.133212
v -0.427723 0.097059 -0.027463
v -0.421632 0.097067 -0.027464
v -0.427850 0.203726 0.078286
v -0.421482 0.003826 -0.146734
v -0.421609 0.110493 -0.040985
v -0.421586 0.123919 -0.054506
v -0.421736 0.217161 0.064764
v -0.427549 0.017243 -0.160253
v -0.427676 0.123911 -0.054504
v -0.427803 0.230579 0.051245
v 0.430000 -0.008419 -0.133383
v 0.423782 0.098240 -0.027633
v 0.429873 0.098249 -0.027634
v 0.435963 0.098257 -0.027636
v 0.429746 0.204916 0.078114
v 0.436024 0.005016 -0.146905
v 0.435897 0.111683 -0.041156
v 0.435831 0.125110 -0.054676
v 0.435771 0.218351 0.064593
v 0.429867 0.018433 -0.160424
v 0.429741 0.125101 -0.054675
v 0.423650 0.125092 -0.054674
v 0.429614 0.231768 0.051074
v 0.423843 0.004999 -0.146903
v 0.423716 0.111666 -0.041154
v 0.423589 0.218334 0.064595
v 0.001281 -0.005417 -0.129732
v -0.004937 0.101242 -0.023982
v 0.001154 0.101251 -0.023983
v 0.007244 0.101259 -0.023984
v 0.001027 0.207918 0.081765
v 0.007309 0.004903 -0.140111
v 0.007182 0.111570 -0.034363
v 0.007121 0.121882 -0.044741
v 0.007055 0.218238 0.071386
v 0.001157 0.015205 -0.150489
v 0.001030 0.121873 -0.044740
v -0.005060 0.121864 -0.044739
v 0.000903 0.228541 0.061009
v -0.004871 0.004885 -0.140110
v -0.004998 0.111553 -0.034361
v -0.005125 0.218221 0.071388
v 0.431557 0.330639 -0.049047
v 0.438724 0.317234 -0.035517
v 0.431578 0.317224 -0.035515
v 0.424433 0.317214 -0.035514
v 0.431600 0.303809 -0.021984
v 0.431807 0.120902 -0.256977
v 0.424683 0.107477 -0.243444
v 0.431828 0.107487 -0.243445
v 0.438973 0.107497 -0.243447
v 0.431849 0.094072 -0.229914
v 0.424537 0.225761 -0.153010
v 0.424558 0.212346 -0.139479
v 0.424579 0.198931 -0.125947
v 0.438827 0.225780 -0.153013
v 0.431682 0.225770 -0.153012
v 0.438870 0.198951 -0.125950
v 0.438848 0.212365 -0.139482
v 0.431724 0.198941 -0.125949
v -0.430061 0.329443 -0.048875
v -0.422894 0.316038 -0.035344
v -0.430040 0.316028 -0.035343
v -0.437185 0.316018 -0.035342
v -0.430018 0.302613 -0.021812
v -0.429812 0.119707 -0.256805
v -0.436936 0.106282 -0.243272
v -0.429790 0.106292 -0.243273
v -0.422645 0.106302 -0.243275
v -0.429769 0.092877 -0.229742
v -0.422748 0.197755 -0.125778
v -0.422770 0.211170 -0.139310
v -0.422791 0.224585 -0.152841
v -0.429936 0.224575 -0.152840
v -0.437082 0.224565 -0.152838
v -0.437060 0.211150 -0.139307
v -0.437039 0.197735 -0.125775
v -0.429894 0.197745 -0.125777
v 0.384282 0.284500 0.004652
v 0.413911 0.289615 0.009676
v 0.384276 0.289574 0.009682
v 0.354641 0.289533 0.009688
v 0.384270 0.294648 0.014712
v 0.333956 0.275209 0.013963
v 0.333950 0.280283 0.018993
v 0.313259 0.271033 0.028298
v 0.333944 0.285357 0.024023
v 0.291043 0.258736 0.030527
v 0.291037 0.263810 0.035558
v 0.268816 0.256587 0.042817
v 0.291031 0.268884 0.040588
v 0.245296 0.246284 0.043033
v 0.245290 0.251358 0.048063
v 0.221765 0.246129 0.053309
v 0.245284 0.256432 0.053093
v 0.197533 0.237721 0.051613
v 0.197527 0.242795 0.056643
v 0.173290 0.239461 0.059977
v 0.197521 0.247869 0.061674
v 0.148719 0.232618 0.056702
v 0.148713 0.237692 0.061732
v 0.124136 0.235923 0.063486
v 0.148707 0.242766 0.066762
v 0.000907 0.230678 0.058481
v 0.000901 0.235752 0.063511
v -0.122333 0.235581 0.063536
v 0.000895 0.240826 0.068541
v -0.146910 0.232208 0.056761
v -0.146916 0.237282 0.061791
v -0.171499 0.238982 0.060046
v -0.146922 0.242356 0.066821
v -0.195740 0.237175 0.051692
v -0.195746 0.242249 0.056722
v -0.219994 0.245516 0.053398
v -0.195752 0.247323 0.061752
v -0.243530 0.245606 0.043131
v -0.243536 0.250680 0.048161
v -0.267078 0.255844 0.042924
v -0.243542 0.255754 0.053191
v -0.289316 0.257931 0.030643
v -0.289322 0.263005 0.035673
v -0.311567 0.270166 0.028423
v -0.289328 0.268079 0.040704
v -0.332281 0.274282 0.014099
v -0.332287 0.279356 0.019129
v -0.353008 0.288545 0.009835
v -0.332293 0.284429 0.024159
v -0.382637 0.283430 0.004810
v -0.382643 0.288504 0.009841
v -0.412278 0.288464 0.009846
v -0.382649 0.293578 0.014871
v -0.412206 0.243155 0.045401
v -0.412212 0.248228 0.050431
v -0.412146 0.207993 0.091016
v -0.412218 0.253302 0.055461
v 0.000951 0.203492 0.085903
v 0.000945 0.208566 0.090934
v 0.414035 0.209139 0.090851
v 0.000939 0.213640 0.095964
v 0.413979 0.244303 0.045233
v 0.413973 0.249377 0.050264
v 0.413967 0.254451 0.055294
v -0.361862 0.244153 0.064750
v -0.339618 0.236992 0.072000
v -0.316076 0.231828 0.077237
v -0.291828 0.228561 0.080561
v -0.267246 0.226861 0.082306
v -0.144011 0.227032 0.082281
v 0.269079 0.227605 0.082199
v 0.293657 0.229374 0.080445
v 0.317894 0.232708 0.077110
v 0.341419 0.237937 0.071864
v 0.384332 0.254410 0.055300
v 0.363641 0.245160 0.064605
v -0.382583 0.253343 0.055456
v -0.361850 0.234006 0.054689
v -0.339606 0.226844 0.061940
v -0.316064 0.221680 0.067177
v -0.291816 0.218414 0.070501
v -0.267234 0.216713 0.072246
v 0.145857 0.217286 0.072163
v 0.269092 0.217457 0.072139
v 0.293669 0.219226 0.070384
v 0.317906 0.222560 0.067050
v 0.341431 0.227789 0.061804
v 0.384344 0.244262 0.045239
v 0.363653 0.235012 0.054545
v -0.382571 0.243195 0.045396
f 1 353 355
f 353 2 354
f 354 3 355
f 353 354 355
f 4 356 357
f 356 1 355
f 355 3 357
f 356 355 357
f 2 358 360
f 358 5 359
f 359 6 360
f 358 359 360
f 3 354 361
f 354 2 360
f 360 6 361
f 354 360 361
f 5 362 364
f 362 7 363
f 363 8 364
f 362 363 364
f 6 359 365
f 359 5 364
f 364 8 365
f 359 364 365
f 7 366 368
f 366 9 367
f 367 10 368
f 366 367 368
f 8 363 369
f 363 7 368
f 368 10 369
f 363 368 369
f 9 370 372
f 370 11 371
f 371 12 372
f 370 371 372
f 10 367 373
f 367 9 372
f 372 12 373
f 367 372 373
f 11 374 376
f 374 13 375
f 375 14 376
f 374 375 376
f 12 371 377
f 371 11 376
f 376 14 377
f 371 376 377
f 13 378 380
f 378 15 379
f 379 16 380
f 378 379 380
f 14 375 381
f 375 13 380
f 380 16 381
f 375 380 381
f 15 382 384
f 382 17 383
f 383 18 384
f 382 383 384
f 16 379 385
f 379 15 384
f 384 18 385
f 379 384 385
f 17 386 388
f 386 19 387
f 387 20 388
f 386 387 388
f 18 383 389
f 383 17 388
f 388 20 389
f 383 388 389
f 19 390 391
f 390 1 356
f 356 4 391
f 390 356 391
f 20 387 392
f 387 19 391
f 391 4 392
f 387 391 392
f 21 393 395
f 393 22 394
f 394 23 395
f 393 394 395
f 24 396 397
f 396 21 395
f 395 23 397
f 396 395 397
f 25 398 399
f 398 21 396
f 396 24 399
f 398 396 399
f 26 400 401
f 400 25 399
f 399 24 401
f 400 399 401
f 27 402 403
f 402 25 400
f 400 26 403
f 402 400 403
f 28 404 405
f 404 27 403
f 403 26 405
f 404 403 405
f 29 406 407
f 406 27 404
f 404 28 407
f 406 404 407
f 30 408 409
f 408 29 407
f 407 28 409
f 408 407 409
f 31 410 411
f 410 29 408
f 408 30 411
f 410 408 411
f 32 412 413
f 412 31 411
f 411 30 413
f 412 411 413
f 33 414 415
f 414 31 412
f 412 32 415
f 414 412 415
f 34 416 417
f 416 33 415
f 415 32 417
f 416 415 417
f 35 418 419
f 418 33 416
f 416 34 419
f 418 416 419
f 36 420 421
f 420 35 419
f 419 34 421
f 420 419 421
f 37 422 423
f 422 35 420
f 420 36 423
f 422 420 423
f 38 424 425
f 424 37 423
f 423 36 425
f 424 423 425
f 39 426 427
f 426 37 424
f 424 38 427
f 426 424 427
f 40 428 429
f 428 39 427
f 427 38 429
f 428 427 429
f 22 430 431
f 430 39 428
f 428 40 431
f 430 428 431
f 23 394 432
f 394 22 431
f 431 40 432
f 394 431 432
f 41 433 434
f 433 4 357
f 357 3 434
f 433 357 434
f 41 434 435
f 434 3 361
f 361 6 435
f 434 361 435
f 41 435 436
f 435 6 365
f 365 8 436
f 435 365 436
f 41 436 437
f 436 8 369
f 369 10 437
f 436 369 437
f 41 437 438
f 437 10 373
f 373 12 438
f 437 373 438
f 41 438 439
f 438 12 377
f 377 14 439
f 438 377 439
f 41 439 440
f 439 14 381
f 381 16 440
f 439 381 440
f 41 440 441
f 440 16 385
f 385 18 441
f 440 385 441
f 41 441 442
f 441 18 389
f 389 20 442
f 441 389 442
f 41 442 433
f 442 20 392
f 392 4 433
f 442 392 433
f 2 353 444
f 353 1 443
f 443 42 444
f 353 443 444
f 5 358 445
f 358 2 444
f 444 42 445
f 358 444 445
f 7 362 446
f 362 5 445
f 445 42 446
f 362 445 446
f 9 366 447
f 366 7 446
f 446 42 447
f 366 446 447
f 11 370 448
f 370 9 447
f 447 42 448
f 370 447 448
f 13 374 449
f 374 11 448
f 448 42 449
f 374 448 449
f 15 378 450
f 378 13 449
f 449 42 450
f 378 449 450
f 17 382 451
f 382 15 450
f 450 42 451
f 382 450 451
f 19 386 452
f 386 17 451
f 451 42 452
f 386 451 452
f 1 390 443
f 390 19 452
f 452 42 443
f 390 452 443
f 24 397 454
f 397 23 453
f 453 43 454
f 397 453 454
f 26 401 455
f 401 24 454
f 454 43 455
f 401 454 455
f 28 405 456
f 405 26 455
f 455 43 456
f 405 455 456
f 30 409 457
f 409 28 456
f 456 43 457
f 409 456 457
f 32 413 458
f 413 30 457
f 457 43 458
f 413 457 458
f 34 417 459
f 417 32 458
f 458 43 459
f 417 458 459
f 36 421 460
f 421 34 459
f 459 43 460
f 421 459 460
f 38 425 461
f 425 36 460
f 460 43 461
f 425 460 461
f 40 429 462
f 429 38 461
f 461 43 462
f 429 461 462
f 23 432 453
f 432 40 462
f 462 43 453
f 432 462 453
f 44 463 464
f 463 22 393
f 393 21 464
f 463 393 464
f 44 464 465
f 464 21 398
f 398 25 465
f 464 398 465
f 44 465 466
f 465 25 402
f 402 27 466
f 465 402 466
f 44 466 467
f 466 27 406
f 406 29 467
f 466 406 467
f 44 467 468
f 467 29 410
f 410 31 468
f 467 410 468
f 44 468 469
f 468 31 414
f 414 33 469
f 468 414 469
f 44 469 470
f 469 33 418
f 418 35 470
f 469 418 470
f 44 470 471
f 470 35 422
f 422 37 471
f 470 422 471
f 44 471 472
f 471 37 426
f 426 39 472
f 471 426 472
f 44 472 463
f 472 39 430
f 430 22 463
f 472 430 463
f 45 473 475
f 473 46 474
f 474 47 475
f 473 474 475
f 48 476 477
f 476 45 475
f 475 47 477
f 476 475 477
f 49 478 479
f 478 45 476
f 476 48 479
f 478 476 479
f 50 480 481
f 480 49 479
f 479 48 481
f 480 479 481
f 51 482 483
f 482 49 480
f 480 50 483
f 482 480 483
f 52 484 485
f 484 51 483
f 483 50 485
f 484 483 485
f 46 486 487
f 486 51 484
f 484 52 487
f 486 484 487
f 47 474 488
f 474 46 487
f 487 52 488
f 474 487 488
f 53 489 491
f 489 54 490
f 490 55 491
f 489 490 491
f 56 492 493
f 492 53 491
f 491 55 493
f 492 491 493
f 57 494 495
f 494 53 492
f 492 56 495
f 494 492 495
f 58 496 497
f 496 57 495
f 495 56 497
f 496 495 497
f 59 498 499
f 498 57 496
f 496 58 499
f 498 496 499
f 60 500 501
f 500 59 499
f 499 58 501
f 500 499 501
f 54 502 503
f 502 59 500
f 500 60 503
f 502 500 503
f 55 490 504
f 490 54 503
f 503 60 504
f 490 503 504
f 61 505 507
f 505 62 506
f 506 63 507
f 505 506 507
f 64 508 509
f 508 61 507
f 507 63 509
f 508 507 509
f 65 510 511
f 510 61 508
f 508 64 511
f 510 508 511
f 66 512 513
f 512 65 511
f 511 64 513
f 512 511 513
f 67 514 515
f 514 65 512
f 512 66 515
f 514 512 515
f 68 516 517
f 516 67 515
f 515 66 517
f 516 515 517
f 62 518 519
f 518 67 516
f 516 68 519
f 518 516 519
f 63 506 520
f 506 62 519
f 519 68 520
f 506 519 520
f 69 521 523
f 521 70 522
f 522 71 523
f 521 522 523
f 72 524 525
f 524 69 523
f 523 71 525
f 524 523 525
f 73 526 527
f 526 69 524
f 524 72 527
f 526 524 527
f 74 528 529
f 528 73 527
f 527 72 529
f 528 527 529
f 75 530 531
f 530 73 528
f 528 74 531
f 530 528 531
f 76 532 533
f 532 75 531
f 531 74 533
f 532 531 533
f 70 534 535
f 534 75 532
f 532 76 535
f 534 532 535
f 71 522 536
f 522 70 535
f 535 76 536
f 522 535 536
f 77 537 539
f 537 78 538
f 538 79 539
f 537 538 539
f 80 540 541
f 540 77 539
f 539 79 541
f 540 539 541
f 81 542 543
f 542 77 540
f 540 80 543
f 542 540 543
f 82 544 545
f 544 81 543
f 543 80 545
f 544 543 545
f 83 546 547
f 546 81 544
f 544 82 547
f 546 544 547
f 84 548 549
f 548 83 547
f 547 82 549
f 548 547 549
f 78 550 551
f 550 83 548
f 548 84 551
f 550 548 551
f 79 538 552
f 538 78 551
f 551 84 552
f 538 551 552
f 85 553 555
f 553 86 554
f 554 87 555
f 553 554 555
f 88 556 557
f 556 85 555
f 555 87 557
f 556 555 557
f 89 558 559
f 558 85 556
f 556 88 559
f 558 556 559
f 90 560 561
f 560 89 559
f 559 88 561
f 560 559 561
f 91 562 563
f 562 89 560
f 560 90 563
f 562 560 563
f 92 564 565
f 564 91 563
f 563 90 565
f 564 563 565
f 86 566 567
f 566 91 564
f 564 92 567
f 566 564 567
f 87 554 568
f 554 86 567
f 567 92 568
f 554 567 568
f 93 569 571
f 569 94 570
f 570 95 571
f 569 570 571
f 96 572 573
f 572 93 571
f 571 95 573
f 572 571 573
f 97 574 575
f 574 93 572
f 572 96 575
f 574 572 575
f 98 576 577
f 576 97 575
f 575 96 577
f 576 575 577
f 99 578 579
f 578 97 576
f 576 98 579
f 578 576 579
f 100 580 581
f 580 99 579
f 579 98 581
f 580 579 581
f 94 582 583
f 582 99 580
f 580 100 583
f 582 580 583
f 95 570 584
f 570 94 583
f 583 100 584
f 570 583 584
f 101 585 587
f 585 102 586
f 586 103 587
f 585 586 587
f 104 588 589
f 588 101 587
f 587 103 589
f 588 587 589
f 105 590 591
f 590 101 588
f 588 104 591
f 590 588 591
f 106 592 593
f 592 105 591
f 591 104 593
f 592 591 593
f 107 594 595
f 594 105 592
f 592 106 595
f 594 592 595
f 108 596 597
f 596 107 595
f 595 106 597
f 596 595 597
f 102 598 599
f 598 107 596
f 596 108 599
f 598 596 599
f 103 586 600
f 586 102 599
f 599 108 600
f 586 599 600
f 109 601 603
f 601 110 602
f 602 111 603
f 601 602 603
f 112 604 605
f 604 109 603
f 603 111 605
f 604 603 605
f 113 606 607
f 606 109 604
f 604 112 607
f 606 604 607
f 114 608 609
f 608 113 607
f 607 112 609
f 608 607 609
f 115 610 611
f 610 113 608
f 608 114 611
f 610 608 611
f 116 612 613
f 612 115 611
f 611 114 613
f 612 611 613
f 110 614 615
f 614 115 612
f 612 116 615
f 614 612 615
f 111 602 616
f 602 110 615
f 615 116 616
f 602 615 616
f 117 617 619
f 617 118 618
f 618 119 619
f 617 618 619
f 120 620 621
f 620 117 619
f 619 119 621
f 620 619 621
f 121 622 623
f 622 117 620
f 620 120 623
f 622 620 623
f 122 624 625
f 624 121 623
f 623 120 625
f 624 623 625
f 123 626 627
f 626 121 624
f 624 122 627
f 626 624 627
f 124 628 629
f 628 123 627
f 627 122 629
f 628 627 629
f 118 630 631
f 630 123 628
f 628 124 631
f 630 628 631
f 119 618 632
f 618 118 631
f 631 124 632
f 618 631 632
f 125 633 635
f 633 126 634
f 634 127 635
f 633 634 635
f 128 636 637
f 636 125 635
f 635 127 637
f 636 635 637
f 129 638 639
f 638 125 636
f 636 128 639
f 638 636 639
f 130 640 641
f 640 129 639
f 639 128 641
f 640 639 641
f 131 642 643
f 642 129 640
f 640 130 643
f 642 640 643
f 132 644 645
f 644 131 643
f 643 130 645
f 644 643 645
f 126 646 647
f 646 131 644
f 644 132 647
f 646 644 647
f 127 634 648
f 634 126 647
f 647 132 648
f 634 647 648
f 133 649 651
f 649 134 650
f 650 135 651
f 649 650 651
f 136 652 653
f 652 133 651
f 651 135 653
f 652 651 653
f 137 654 655
f 654 133 652
f 652 136 655
f 654 652 655
f 138 656 657
f 656 137 655
f 655 136 657
f 656 655 657
f 139 658 659
f 658 137 656
f 656 138 659
f 658 656 659
f 140 660 661
f 660 139 659
f 659 138 661
f 660 659 661
f 134 662 663
f 662 139 660
f 660 140 663
f 662 660 663
f 135 650 664
f 650 134 663
f 663 140 664
f 650 663 664
f 141 665 667
f 665 142 666
f 666 143 667
f 665 666 667
f 144 668 669
f 668 141 667
f 667 143 669
f 668 667 669
f 145 670 671
f 670 141 668
f 668 144 671
f 670 668 671
f 146 672 673
f 672 145 671
f 671 144 673
f 672 671 673
f 147 674 675
f 674 145 672
f 672 146 675
f 674 672 675
f 148 676 677
f 676 147 675
f 675 146 677
f 676 675 677
f 142 678 679
f 678 147 676
f 676 148 679
f 678 676 679
f 143 666 680
f 666 142 679
f 679 148 680
f 666 679 680
f 149 681 683
f 681 150 682
f 682 151 683
f 681 682 683
f 152 684 685
f 684 149 683
f 683 151 685
f 684 683 685
f 153 686 688
f 686 154 687
f 687 155 688
f 686 687 688
f 156 689 690
f 689 153 688
f 688 155 690
f 689 688 690
f 157 691 693
f 691 158 692
f 692 159 693
f 691 692 693
f 160 694 695
f 694 157 693
f 693 159 695
f 694 693 695
f 157 694 697
f 694 160 696
f 696 151 697
f 694 696 697
f 150 698 682
f 698 157 697
f 697 151 682
f 698 697 682
f 158 691 699
f 691 157 698
f 698 150 699
f 691 698 699
f 149 700 681
f 700 158 699
f 699 150 681
f 700 699 681
f 159 692 701
f 692 158 700
f 700 149 701
f 692 700 701
f 152 702 684
f 702 159 701
f 701 149 684
f 702 701 684
f 160 695 703
f 695 159 702
f 702 152 703
f 695 702 703
f 151 696 685
f 696 160 703
f 703 152 685
f 696 703 685
f 161 704 706
f 704 162 705
f 705 163 706
f 704 705 706
f 164 707 708
f 707 161 706
f 706 163 708
f 707 706 708
f 161 707 710
f 707 164 709
f 709 155 710
f 707 709 710
f 154 711 687
f 711 161 710
f 710 155 687
f 711 710 687
f 162 704 712
f 704 161 711
f 711 154 712
f 704 711 712
f 153 713 686
f 713 162 712
f 712 154 686
f 713 712 686
f 163 705 714
f 705 162 713
f 713 153 714
f 705 713 714
f 156 715 689
f 715 163 714
f 714 153 689
f 715 714 689
f 164 708 716
f 708 163 715
f 715 156 716
f 708 715 716
f 155 709 690
f 709 164 716
f 716 156 690
f 709 716 690
f 165 717 719
f 717 166 718
f 718 167 719
f 717 718 719
f 168 720 721
f 720 165 719
f 719 167 721
f 720 719 721
f 169 722 723
f 722 165 720
f 720 168 723
f 722 720 723
f 170 724 725
f 724 169 723
f 723 168 725
f 724 723 725
f 171 726 727
f 726 169 724
f 724 170 727
f 726 724 727
f 172 728 729
f 728 171 727
f 727 170 729
f 728 727 729
f 173 730 731
f 730 171 728
f 728 172 731
f 730 728 731
f 174 732 733
f 732 173 731
f 731 172 733
f 732 731 733
f 175 734 735
f 734 173 732
f 732 174 735
f 734 732 735
f 176 736 737
f 736 175 735
f 735 174 737
f 736 735 737
f 177 738 739
f 738 175 736
f 736 176 739
f 738 736 739
f 178 740 741
f 740 177 739
f 739 176 741
f 740 739 741
f 179 742 743
f 742 177 740
f 740 178 743
f 742 740 743
f 180 744 745
f 744 179 743
f 743 178 745
f 744 743 745
f 181 746 747
f 746 179 744
f 744 180 747
f 746 744 747
f 182 748 749
f 748 181 747
f 747 180 749
f 748 747 749
f 183 750 751
f 750 181 748
f 748 182 751
f 750 748 751
f 184 752 753
f 752 183 751
f 751 182 753
f 752 751 753
f 185 754 755
f 754 183 752
f 752 184 755
f 754 752 755
f 186 756 757
f 756 185 755
f 755 184 757
f 756 755 757
f 187 758 759
f 758 185 756
f 756 186 759
f 758 756 759
f 188 760 761
f 760 187 759
f 759 186 761
f 760 759 761
f 166 762 763
f 762 187 760
f 760 188 763
f 762 760 763
f 167 718 764
f 718 166 763
f 763 188 764
f 718 763 764
f 189 765 767
f 765 190 766
f 766 191 767
f 765 766 767
f 192 768 769
f 768 189 767
f 767 191 769
f 768 767 769
f 190 770 772
f 770 193 771
f 771 194 772
f 770 771 772
f 191 766 773
f 766 190 772
f 772 194 773
f 766 772 773
f 193 774 776
f 774 195 775
f 775 196 776
f 774 775 776
f 194 771 777
f 771 193 776
f 776 196 777
f 771 776 777
f 195 778 780
f 778 197 779
f 779 198 780
f 778 779 780
f 196 775 781
f 775 195 780
f 780 198 781
f 775 780 781
f 197 782 784
f 782 199 783
f 783 200 784
f 782 783 784
f 198 779 785
f 779 197 784
f 784 200 785
f 779 784 785
f 199 786 788
f 786 201 787
f 787 202 788
f 786 787 788
f 200 783 789
f 783 199 788
f 788 202 789
f 783 788 789
f 201 790 792
f 790 203 791
f 791 204 792
f 790 791 792
f 202 787 793
f 787 201 792
f 792 204 793
f 787 792 793
f 203 794 796
f 794 205 795
f 795 206 796
f 794 795 796
f 204 791 797
f 791 203 796
f 796 206 797
f 791 796 797
f 205 798 800
f 798 207 799
f 799 208 800
f 798 799 800
f 206 795 801
f 795 205 800
f 800 208 801
f 795 800 801
f 207 802 804
f 802 209 803
f 803 210 804
f 802 803 804
f 208 799 805
f 799 207 804
f 804 210 805
f 799 804 805
f 209 806 808
f 806 211 807
f 807 212 808
f 806 807 808
f 210 803 809
f 803 209 808
f 808 212 809
f 803 808 809
f 211 810 811
f 810 189 768
f 768 192 811
f 810 768 811
f 212 807 812
f 807 211 811
f 811 192 812
f 807 811 812
f 213 813 814
f 813 166 717
f 717 165 814
f 813 717 814
f 213 814 815
f 814 165 722
f 722 169 815
f 814 722 815
f 213 815 816
f 815 169 726
f 726 171 816
f 815 726 816
f 213 816 817
f 816 171 730
f 730 173 817
f 816 730 817
f 213 817 818
f 817 173 734
f 734 175 818
f 817 734 818
f 213 818 819
f 818 175 738
f 738 177 819
f 818 738 819
f 213 819 820
f 819 177 742
f 742 179 820
f 819 742 820
f 213 820 821
f 820 179 746
f 746 181 821
f 820 746 821
f 213 821 822
f 821 181 750
f 750 183 822
f 821 750 822
f 213 822 823
f 822 183 754
f 754 185 823
f 822 754 823
f 213 823 824
f 823 185 758
f 758 187 824
f 823 758 824
f 213 824 813
f 824 187 762
f 762 166 813
f 824 762 813
f 168 721 826
f 721 167 825
f 825 214 826
f 721 825 826
f 170 725 827
f 725 168 826
f 826 214 827
f 725 826 827
f 172 729 828
f 729 170 827
f 827 214 828
f 729 827 828
f 174 733 829
f 733 172 828
f 828 214 829
f 733 828 829
f 176 737 830
f 737 174 829
f 829 214 830
f 737 829 830
f 178 741 831
f 741 176 830
f 830 214 831
f 741 830 831
f 180 745 832
f 745 178 831
f 831 214 832
f 745 831 832
f 182 749 833
f 749 180 832
f 832 214 833
f 749 832 833
f 184 753 834
f 753 182 833
f 833 214 834
f 753 833 834
f 186 757 835
f 757 184 834
f 834 214 835
f 757 834 835
f 188 761 836
f 761 186 835
f 835 214 836
f 761 835 836
f 167 764 825
f 764 188 836
f 836 214 825
f 764 836 825
f 190 765 838
f 765 189 837
f 837 215 838
f 765 837 838
f 193 770 839
f 770 190 838
f 838 215 839
f 770 838 839
f 195 774 840
f 774 193 839
f 839 215 840
f 774 839 840
f 197 778 841
f 778 195 840
f 840 215 841
f 778 840 841
f 199 782 842
f 782 197 841
f 841 215 842
f 782 841 842
f 201 786 843
f 786 199 842
f 842 215 843
f 786 842 843
f 203 790 844
f 790 201 843
f 843 215 844
f 790 843 844
f 205 794 845
f 794 203 844
f 844 215 845
f 794 844 845
f 207 798 846
f 798 205 845
f 845 215 846
f 798 845 846
f 209 802 847
f 802 207 846
f 846 215 847
f 802 846 847
f 211 806 848
f 806 209 847
f 847 215 848
f 806 847 848
f 189 810 837
f 810 211 848
f 848 215 837
f 810 848 837
f 216 849 850
f 849 192 769
f 769 191 850
f 849 769 850
f 216 850 851
f 850 191 773
f 773 194 851
f 850 773 851
f 216 851 852
f 851 194 777
f 777 196 852
f 851 777 852
f 216 852 853
f 852 196 781
f 781 198 853
f 852 781 853
f 216 853 854
f 853 198 785
f 785 200 854
f 853 785 854
f 216 854 855
f 854 200 789
f 789 202 855
f 854 789 855
f 216 855 856
f 855 202 793
f 793 204 856
f 855 793 856
f 216 856 857
f 856 204 797
f 797 206 857
f 856 797 857
f 216 857 858
f 857 206 801
f 801 208 858
f 857 801 858
f 216 858 859
f 858 208 805
f 805 210 859
f 858 805 859
f 216 859 860
f 859 210 809
f 809 212 860
f 859 809 860
f 216 860 849
f 860 212 812
f 812 192 849
f 860 812 849
f 217 861 863
f 861 218 862
f 862 219 863
f 861 862 863
f 220 864 865
f 864 217 863
f 863 219 865
f 864 863 865
f 221 866 868
f 866 222 867
f 867 223 868
f 866 867 868
f 224 869 870
f 869 221 868
f 868 223 870
f 869 868 870
f 225 871 873
f 871 226 872
f 872 227 873
f 871 872 873
f 228 874 875
f 874 225 873
f 873 227 875
f 874 873 875
f 229 876 878
f 876 230 877
f 877 231 878
f 876 877 878
f 232 879 880
f 879 229 878
f 878 231 880
f 879 878 880
f 219 881 882
f 881 224 870
f 870 223 882
f 881 870 882
f 220 865 883
f 865 219 882
f 882 223 883
f 865 882 883
f 218 861 885
f 861 217 884
f 884 222 885
f 861 884 885
f 221 886 866
f 886 218 885
f 885 222 866
f 886 885 866
f 231 887 888
f 887 228 875
f 875 227 888
f 887 875 888
f 232 880 889
f 880 231 888
f 888 227 889
f 880 888 889
f 226 871 891
f 871 225 890
f 890 230 891
f 871 890 891
f 229 892 876
f 892 226 891
f 891 230 876
f 892 891 876
f 222 884 893
f 884 217 864
f 864 220 893
f 884 864 893
f 223 867 883
f 867 222 893
f 893 220 883
f 867 893 883
f 218 886 894
f 886 221 869
f 869 224 894
f 886 869 894
f 219 862 881
f 862 218 894
f 894 224 881
f 862 894 881
f 226 892 895
f 892 229 879
f 879 232 895
f 892 879 895
f 227 872 889
f 872 226 895
f 895 232 889
f 872 895 889
f 230 890 896
f 890 225 874
f 874 228 896
f 890 874 896
f 231 877 887
f 877 230 896
f 896 228 887
f 877 896 887
f 233 897 899
f 897 234 898
f 898 235 899
f 897 898 899
f 236 900 901
f 900 233 899
f 899 235 901
f 900 899 901
f 237 902 904
f 902 238 903
f 903 239 904
f 902 903 904
f 240 905 906
f 905 237 904
f 904 239 906
f 905 904 906
f 241 907 909
f 907 242 908
f 908 243 909
f 907 908 909
f 244 910 911
f 910 241 909
f 909 243 911
f 910 909 911
f 245 912 914
f 912 246 913
f 913 247 914
f 912 913 914
f 248 915 916
f 915 245 914
f 914 247 916
f 915 914 916
f 249 917 919
f 917 250 918
f 918 251 919
f 917 918 919
f 252 920 921
f 920 249 919
f 919 251 921
f 920 919 921
f 253 922 924
f 922 254 923
f 923 255 924
f 922 923 924
f 256 925 926
f 925 253 924
f 924 255 926
f 925 924 926
f 257 927 929
f 927 258 928
f 928 259 929
f 927 928 929
f 260 930 931
f 930 257 929
f 929 259 931
f 930 929 931
f 258 928 933
f 928 259 932
f 932 235 933
f 928 932 933
f 234 934 898
f 934 258 933
f 933 235 898
f 934 933 898
f 257 927 935
f 927 258 934
f 934 234 935
f 927 934 935
f 233 936 897
f 936 257 935
f 935 234 897
f 936 935 897
f 260 930 937
f 930 257 936
f 936 233 937
f 930 936 937
f 236 938 900
f 938 260 937
f 937 233 900
f 938 937 900
f 259 931 939
f 931 260 938
f 938 236 939
f 931 938 939
f 235 932 901
f 932 259 939
f 939 236 901
f 932 939 901
f 261 940 942
f 940 262 941
f 941 263 942
f 940 941 942
f 264 943 944
f 943 261 942
f 942 263 944
f 943 942 944
f 262 941 946
f 941 263 945
f 945 239 946
f 941 945 946
f 238 947 903
f 947 262 946
f 946 239 903
f 947 946 903
f 261 940 948
f 940 262 947
f 947 238 948
f 940 947 948
f 237 949 902
f 949 261 948
f 948 238 902
f 949 948 902
f 264 943 950
f 943 261 949
f 949 237 950
f 943 949 950
f 240 951 905
f 951 264 950
f 950 237 905
f 951 950 905
f 263 944 952
f 944 264 951
f 951 240 952
f 944 951 952
f 239 945 906
f 945 263 952
f 952 240 906
f 945 952 906
f 265 953 955
f 953 266 954
f 954 267 955
f 953 954 955
f 268 956 957
f 956 265 955
f 955 267 957
f 956 955 957
f 266 954 959
f 954 267 958
f 958 243 959
f 954 958 959
f 242 960 908
f 960 266 959
f 959 243 908
f 960 959 908
f 265 953 961
f 953 266 960
f 960 242 961
f 953 960 961
f 241 962 907
f 962 265 961
f 961 242 907
f 962 961 907
f 268 956 963
f 956 265 962
f 962 241 963
f 956 962 963
f 244 964 910
f 964 268 963
f 963 241 910
f 964 963 910
f 267 957 965
f 957 268 964
f 964 244 965
f 957 964 965
f 243 958 911
f 958 267 965
f 965 244 911
f 958 965 911
f 269 966 968
f 966 270 967
f 967 271 968
f 966 967 968
f 272 969 970
f 969 269 968
f 968 271 970
f 969 968 970
f 270 967 972
f 967 271 971
f 971 247 972
f 967 971 972
f 246 973 913
f 973 270 972
f 972 247 913
f 973 972 913
f 269 966 974
f 966 270 973
f 973 246 974
f 966 973 974
f 245 975 912
f 975 269 974
f 974 246 912
f 975 974 912
f 272 969 976
f 969 269 975
f 975 245 976
f 969 975 976
f 248 977 915
f 977 272 976
f 976 245 915
f 977 976 915
f 271 970 978
f 970 272 977
f 977 248 978
f 970 977 978
f 247 971 916
f 971 271 978
f 978 248 916
f 971 978 916
f 273 979 981
f 979 274 980
f 980 275 981
f 979 980 981
f 276 982 983
f 982 273 981
f 981 275 983
f 982 981 983
f 274 980 985
f 980 275 984
f 984 251 985
f 980 984 985
f 250 986 918
f 986 274 985
f 985 251 918
f 986 985 918
f 273 979 987
f 979 274 986
f 986 250 987
f 979 986 987
f 249 988 917
f 988 273 987
f 987 250 917
f 988 987 917
f 276 982 989
f 982 273 988
f 988 249 989
f 982 988 989
f 252 990 920
f 990 276 989
f 989 249 920
f 990 989 920
f 275 983 991
f 983 276 990
f 990 252 991
f 983 990 991
f 251 984 921
f 984 275 991
f 991 252 921
f 984 991 921
f 277 992 994
f 992 278 993
f 993 279 994
f 992 993 994
f 280 995 996
f 995 277 994
f 994 279 996
f 995 994 996
f 278 993 998
f 993 279 997
f 997 255 998
f 993 997 998
f 254 999 923
f 999 278 998
f 998 255 923
f 999 998 923
f 277 992 1000
f 992 278 999
f 999 254 1000
f 992 999 1000
f 253 1001 922
f 1001 277 1000
f 1000 254 922
f 1001 1000 922
f 280 995 1002
f 995 277 1001
f 1001 253 1002
f 995 1001 1002
f 256 1003 925
f 1003 280 1002
f 1002 253 925
f 1003 1002 925
f 279 996 1004
f 996 280 1003
f 1003 256 1004
f 996 1003 1004
f 255 997 926
f 997 279 1004
f 1004 256 926
f 997 1004 926
f 281 1005 1007
f 1005 282 1006
f 1006 283 1007
f 1005 1006 1007
f 284 1008 1009
f 1008 281 1007
f 1007 283 1009
f 1008 1007 1009
f 285 1010 1011
f 1010 281 1008
f 1008 284 1011
f 1010 1008 1011
f 286 1012 1013
f 1012 285 1011
f 1011 284 1013
f 1012 1011 1013
f 287 1014 1015
f 1014 285 1012
f 1012 286 1015
f 1014 1012 1015
f 288 1016 1017
f 1016 287 1015
f 1015 286 1017
f 1016 1015 1017
f 282 1018 1019
f 1018 287 1016
f 1016 288 1019
f 1018 1016 1019
f 283 1006 1020
f 1006 282 1019
f 1019 288 1020
f 1006 1019 1020
f 289 1021 1023
f 1021 290 1022
f 1022 291 1023
f 1021 1022 1023
f 292 1024 1025
f 1024 289 1023
f 1023 291 1025
f 1024 1023 1025
f 293 1026 1027
f 1026 289 1024
f 1024 292 1027
f 1026 1024 1027
f 294 1028 1029
f 1028 293 1027
f 1027 292 1029
f 1028 1027 1029
f 295 1030 1031
f 1030 293 1028
f 1028 294 1031
f 1030 1028 1031
f 296 1032 1033
f 1032 295 1031
f 1031 294 1033
f 1032 1031 1033
f 290 1034 1035
f 1034 295 1032
f 1032 296 1035
f 1034 1032 1035
f 291 1022 1036
f 1022 290 1035
f 1035 296 1036
f 1022 1035 1036
f 297 1037 1039
f 1037 298 1038
f 1038 299 1039
f 1037 1038 1039
f 300 1040 1041
f 1040 297 1039
f 1039 299 1041
f 1040 1039 1041
f 301 1042 1043
f 1042 297 1040
f 1040 300 1043
f 1042 1040 1043
f 302 1044 1045
f 1044 301 1043
f 1043 300 1045
f 1044 1043 1045
f 303 1046 1047
f 1046 301 1044
f 1044 302 1047
f 1046 1044 1047
f 304 1048 1049
f 1048 303 1047
f 1047 302 1049
f 1048 1047 1049
f 298 1050 1051
f 1050 303 1048
f 1048 304 1051
f 1050 1048 1051
f 299 1038 1052
f 1038 298 1051
f 1051 304 1052
f 1038 1051 1052
f 305 1053 1055
f 1053 306 1054
f 1054 307 1055
f 1053 1054 1055
f 308 1056 1057
f 1056 305 1055
f 1055 307 1057
f 1056 1055 1057
f 309 1058 1060
f 1058 310 1059
f 1059 311 1060
f 1058 1059 1060
f 312 1061 1062
f 1061 309 1060
f 1060 311 1062
f 1061 1060 1062
f 311 1059 1064
f 1059 310 1063
f 1063 305 1064
f 1059 1063 1064
f 308 1065 1056
f 1065 311 1064
f 1064 305 1056
f 1065 1064 1056
f 310 1058 1067
f 1058 309 1066
f 1066 306 1067
f 1058 1066 1067
f 305 1063 1053
f 1063 310 1067
f 1067 306 1053
f 1063 1067 1053
f 309 1061 1069
f 1061 312 1068
f 1068 307 1069
f 1061 1068 1069
f 306 1066 1054
f 1066 309 1069
f 1069 307 1054
f 1066 1069 1054
f 312 1062 1070
f 1062 311 1065
f 1065 308 1070
f 1062 1065 1070
f 307 1068 1057
f 1068 312 1070
f 1070 308 1057
f 1068 1070 1057
f 313 1071 1073
f 1071 314 1072
f 1072 315 1073
f 1071 1072 1073
f 316 1074 1075
f 1074 313 1073
f 1073 315 1075
f 1074 1073 1075
f 317 1076 1078
f 1076 318 1077
f 1077 319 1078
f 1076 1077 1078
f 320 1079 1080
f 1079 317 1078
f 1078 319 1080
f 1079 1078 1080
f 317 1079 1082
f 1079 320 1081
f 1081 315 1082
f 1079 1081 1082
f 314 1083 1072
f 1083 317 1082
f 1082 315 1072
f 1083 1082 1072
f 318 1076 1084
f 1076 317 1083
f 1083 314 1084
f 1076 1083 1084
f 313 1085 1071
f 1085 318 1084
f 1084 314 1071
f 1085 1084 1071
f 319 1077 1086
f 1077 318 1085
f 1085 313 1086
f 1077 1085 1086
f 316 1087 1074
f 1087 319 1086
f 1086 313 1074
f 1087 1086 1074
f 320 1080 1088
f 1080 319 1087
f 1087 316 1088
f 1080 1087 1088
f 315 1081 1075
f 1081 320 1088
f 1088 316 1075
f 1081 1088 1075
f 321 1089 1091
f 1089 322 1090
f 1090 323 1091
f 1089 1090 1091
f 324 1092 1093
f 1092 321 1091
f 1091 323 1093
f 1092 1091 1093
f 325 1094 1095
f 1094 321 1092
f 1092 324 1095
f 1094 1092 1095
f 326 1096 1097
f 1096 325 1095
f 1095 324 1097
f 1096 1095 1097
f 327 1098 1099
f 1098 325 1096
f 1096 326 1099
f 1098 1096 1099
f 328 1100 1101
f 1100 327 1099
f 1099 326 1101
f 1100 1099 1101
f 329 1102 1103
f 1102 327 1100
f 1100 328 1103
f 1102 1100 1103
f 330 1104 1105
f 1104 329 1103
f 1103 328 1105
f 1104 1103 1105
f 331 1106 1107
f 1106 329 1104
f 1104 330 1107
f 1106 1104 1107
f 332 1108 1109
f 1108 331 1107
f 1107 330 1109
f 1108 1107 1109
f 333 1110 1111
f 1110 331 1108
f 1108 332 1111
f 1110 1108 1111
f 334 1112 1113
f 1112 333 1111
f 1111 332 1113
f 1112 1111 1113
f 335 1114 1115
f 1114 333 1112
f 1112 334 1115
f 1114 1112 1115
f 336 1116 1117
f 1116 335 1115
f 1115 334 1117
f 1116 1115 1117
f 337 1118 1119
f 1118 335 1116
f 1116 336 1119
f 1118 1116 1119
f 338 1120 1121
f 1120 337 1119
f 1119 336 1121
f 1120 1119 1121
f 339 1122 1123
f 1122 337 1120
f 1120 338 1123
f 1122 1120 1123
f 340 1124 1125
f 1124 339 1123
f 1123 338 1125
f 1124 1123 1125
f 341 1126 1127
f 1126 339 1124
f 1124 340 1127
f 1126 1124 1127
f 342 1128 1129
f 1128 341 1127
f 1127 340 1129
f 1128 1127 1129
f 343 1130 1131
f 1130 341 1128
f 1128 342 1131
f 1130 1128 1131
f 344 1132 1133
f 1132 343 1131
f 1131 342 1133
f 1132 1131 1133
f 345 1134 1135
f 1134 343 1132
f 1132 344 1135
f 1134 1132 1135
f 346 1136 1137
f 1136 345 1135
f 1135 344 1137
f 1136 1135 1137
f 347 1138 1139
f 1138 345 1136
f 1136 346 1139
f 1138 1136 1139
f 348 1140 1141
f 1140 347 1139
f 1139 346 1141
f 1140 1139 1141
f 349 1142 1143
f 1142 347 1140
f 1140 348 1143
f 1142 1140 1143
f 350 1144 1145
f 1144 349 1143
f 1143 348 1145
f 1144 1143 1145
f 351 1146 1147
f 1146 349 1144
f 1144 350 1147
f 1146 1144 1147
f 352 1148 1149
f 1148 351 1147
f 1147 350 1149
f 1148 1147 1149
f 322 1150 1151
f 1150 351 1148
f 1148 352 1151
f 1150 1148 1151
f 323 1090 1152
f 1090 322 1151
f 1151 352 1152
f 1090 1151 1152
f 350 1153 1154
f 1153 344 1133
f 1133 342 1154
f 1153 1133 1154
f 350 1154 1155
f 1154 342 1129
f 1129 340 1155
f 1154 1129 1155
f 350 1155 1156
f 1155 340 1125
f 1125 338 1156
f 1155 1125 1156
f 350 1156 1157
f 1156 338 1121
f 1121 336 1157
f 1156 1121 1157
f 350 1157 1158
f 1157 336 1117
f 1117 334 1158
f 1157 1117 1158
f 352 1149 1159
f 1149 350 1158
f 1158 334 1159
f 1149 1158 1159
f 352 1159 1160
f 1159 334 1113
f 1113 332 1160
f 1159 1113 1160
f 352 1160 1161
f 1160 332 1109
f 1109 330 1161
f 1160 1109 1161
f 352 1161 1162
f 1161 330 1105
f 1105 328 1162
f 1161 1105 1162
f 352 1163 1152
f 1163 324 1093
f 1093 323 1152
f 1163 1093 1152
f 352 1164 1163
f 1164 326 1097
f 1097 324 1163
f 1164 1097 1163
f 352 1162 1164
f 1162 328 1101
f 1101 326 1164
f 1162 1101 1164
f 350 1165 1153
f 1165 346 1137
f 1137 344 1153
f 1165 1137 1153
f 350 1145 1165
f 1145 348 1141
f 1141 346 1165
f 1145 1141 1165
f 341 1130 1167
f 1130 343 1166
f 1166 349 1167
f 1130 1166 1167
f 339 1126 1168
f 1126 341 1167
f 1167 349 1168
f 1126 1167 1168
f 337 1122 1169
f 1122 339 1168
f 1168 349 1169
f 1122 1168 1169
f 335 1118 1170
f 1118 337 1169
f 1169 349 1170
f 1118 1169 1170
f 335 1170 1171
f 1170 349 1146
f 1146 351 1171
f 1170 1146 1171
f 333 1114 1172
f 1114 335 1171
f 1171 351 1172
f 1114 1171 1172
f 331 1110 1173
f 1110 333 1172
f 1172 351 1173
f 1110 1172 1173
f 329 1106 1174
f 1106 331 1173
f 1173 351 1174
f 1106 1173 1174
f 327 1102 1175
f 1102 329 1174
f 1174 351 1175
f 1102 1174 1175
f 351 1150 1176
f 1150 322 1089
f 1089 321 1176
f 1150 1089 1176
f 351 1176 1177
f 1176 321 1094
f 1094 325 1177
f 1176 1094 1177
f 351 1177 1175
f 1177 325 1098
f 1098 327 1175
f 1177 1098 1175
f 349 1166 1178
f 1166 343 1134
f 1134 345 1178
f 1166 1134 1178
f 349 1178 1142
f 1178 345 1138
f 1138 347 1142
f 1178 1138 1142
