# Original shape: m829.obj
# No processing applied - exact copy of source file
# Generated on 2025-10-03 21:47:18

v 0.869386 0.071291 0.110155
v 0.869386 0.065237 0.109056
v 0.869386 0.067145 0.101421
v 0.869386 0.070820 0.102106
v 0.869386 0.103094 0.101871
v 0.869386 0.098900 0.094794
v 0.869386 0.166888 0.064348
v 0.869386 0.162357 0.057468
v 0.843511 0.235829 0.032348
v 0.843511 0.239381 0.039563
v 0.126554 0.162357 0.057468
v 0.143394 0.235829 0.032348
v 0.126554 0.098900 0.094797
v 0.126554 0.070820 0.102109
v 0.126554 0.067145 0.101423
v 0.126554 0.065237 0.109056
v 0.126554 0.071291 0.110155
v 0.126554 0.103094 0.101873
v 0.126554 0.166888 0.064348
v 0.143394 0.239381 0.039563
v 0.126836 0.105944 0.112889
v 0.126836 0.105943 0.306294
v 0.867368 0.105943 0.306294
v 0.867387 0.105944 0.112890
v 0.126836 0.078867 0.108877
v 0.126836 0.089914 0.302282
v 0.867368 0.089914 0.302282
v 0.867387 0.078867 0.108877
v 0.869525 0.025000 0.248007
v 0.877320 0.025000 0.248007
v 0.877320 0.125162 0.240924
v 0.869525 0.129660 0.241510
v 0.879848 0.139575 0.306984
v 0.882588 0.130218 0.306984
v 0.952689 0.139575 0.306984
v 0.952689 0.130218 0.306984
v 0.115344 0.139575 0.306984
v 0.042570 0.139575 0.306984
v 0.042570 0.130218 0.306984
v 0.112609 0.130218 0.306984
v 0.125673 0.129660 0.241509
v 0.117875 0.125162 0.240923
v 0.125673 0.025000 0.248006
v 0.117875 0.025000 0.248006
v 0.869534 0.129660 0.093080
v 0.869534 0.025000 0.093103
v 0.879866 0.139575 0.058287
v 0.952698 0.139575 0.058287
v 0.952698 0.130218 0.058287
v 0.882597 0.130218 0.058287
v 0.877330 0.125163 0.093106
v 0.877330 0.025000 0.093106
v 0.117875 0.025000 0.093102
v 0.125673 0.025000 0.093106
v 0.117875 0.125163 0.093103
v 0.112609 0.130218 0.058287
v 0.042570 0.130218 0.058287
v 0.042570 0.139575 0.058287
v 0.115344 0.139575 0.058287
v 0.125673 0.129660 0.093083
v 0.974741 0.137601 0.302235
v 0.974130 0.138531 0.313534
v 0.973565 0.136346 0.297382
v 0.974954 0.139480 0.244641
v 0.973343 0.137589 0.236532
v 0.974991 0.136615 0.179092
v 0.973334 0.135678 0.169200
v 0.975000 0.136794 0.125986
v 0.973389 0.135884 0.117253
v 0.974833 0.136829 0.085835
v 0.973658 0.136164 0.080552
v 0.974213 0.136527 0.069082
v 0.971306 0.156297 0.302836
v 0.963789 0.148700 0.313981
v 0.972871 0.156182 0.257254
v 0.973121 0.154235 0.190941
v 0.973148 0.156842 0.129558
v 0.971899 0.156500 0.081529
v 0.967436 0.149098 0.056410
v 0.960363 0.141108 0.064474
v 0.958465 0.135756 0.104410
v 0.958067 0.132485 0.163951
v 0.958188 0.132746 0.242038
v 0.959780 0.133479 0.310583
v 0.919814 0.158322 0.303460
v 0.919786 0.150612 0.314570
v 0.919823 0.158248 0.257891
v 0.919832 0.156181 0.192476
v 0.919842 0.158789 0.131093
v 0.919832 0.158417 0.083040
v 0.919795 0.150907 0.057838
v 0.919768 0.142820 0.065823
v 0.919758 0.137422 0.105720
v 0.919749 0.134141 0.165256
v 0.919740 0.134513 0.242577
v 0.919749 0.135287 0.311140
v 0.870349 0.156302 0.302837
v 0.874552 0.148700 0.313981
v 0.868859 0.156190 0.257257
v 0.868618 0.154243 0.190949
v 0.868618 0.156850 0.129566
v 0.869803 0.156506 0.081535
v 0.874052 0.149099 0.056411
v 0.877904 0.141104 0.064470
v 0.879746 0.135748 0.104404
v 0.880125 0.132477 0.163945
v 0.879987 0.132737 0.242031
v 0.878440 0.133472 0.310581
v 0.863554 0.136677 0.299550
v 0.864665 0.137062 0.310064
v 0.863165 0.138973 0.243328
v 0.863100 0.136445 0.179476
v 0.863109 0.136778 0.128266
v 0.863424 0.136814 0.089376
v 0.864544 0.136148 0.072618
v 0.865554 0.135380 0.083133
v 0.866035 0.134818 0.118263
v 0.866137 0.134424 0.168304
v 0.866091 0.135913 0.234446
v 0.865683 0.134563 0.294098
v 0.136640 0.137601 0.302235
v 0.136030 0.138531 0.313534
v 0.135467 0.136346 0.297382
v 0.136855 0.139480 0.244641
v 0.135243 0.137589 0.236531
v 0.136890 0.136615 0.179092
v 0.135223 0.135678 0.169200
v 0.136891 0.136794 0.125986
v 0.135280 0.135884 0.117253
v 0.136719 0.136829 0.085835
v 0.135546 0.136164 0.080552
v 0.136104 0.136527 0.069082
v 0.133211 0.156297 0.302836
v 0.125689 0.148700 0.313981
v 0.134770 0.156182 0.257254
v 0.135022 0.154235 0.190941
v 0.135035 0.156842 0.129558
v 0.133789 0.156500 0.081529
v 0.129326 0.149098 0.056410
v 0.122251 0.141108 0.064474
v 0.120351 0.135756 0.104407
v 0.119955 0.132485 0.163951
v 0.120092 0.132746 0.242033
v 0.121684 0.133479 0.310583
v 0.081717 0.158322 0.303459
v 0.081684 0.150612 0.314570
v 0.081728 0.158248 0.257883
v 0.081730 0.156181 0.192475
v 0.081730 0.158789 0.131093
v 0.081721 0.158417 0.083040
v 0.081689 0.150907 0.057838
v 0.081659 0.142820 0.065823
v 0.081644 0.137422 0.105723
v 0.081641 0.134141 0.165256
v 0.081642 0.134513 0.242571
v 0.081654 0.135287 0.311139
v 0.032246 0.156302 0.302837
v 0.036449 0.148700 0.313981
v 0.030761 0.156190 0.257256
v 0.030521 0.154243 0.190948
v 0.030509 0.156850 0.129565
v 0.031696 0.156506 0.081535
v 0.035946 0.149099 0.056411
v 0.039789 0.141104 0.064470
v 0.041634 0.135748 0.104404
v 0.042020 0.132477 0.163945
v 0.041886 0.132737 0.242031
v 0.040339 0.133472 0.310581
v 0.025456 0.136677 0.299550
v 0.026563 0.137062 0.310064
v 0.025067 0.138973 0.243328
v 0.025003 0.136445 0.179476
v 0.025000 0.136778 0.128265
v 0.025312 0.136814 0.089376
v 0.026429 0.136148 0.072618
v 0.027440 0.135380 0.083133
v 0.027926 0.134818 0.118263
v 0.028027 0.134424 0.168304
v 0.027992 0.135913 0.234446
v 0.027586 0.134563 0.294098
v 0.375244 0.132805 0.126747
v 0.376605 0.122320 0.130525
v 0.377865 0.138177 0.127238
v 0.375850 0.167177 0.117216
v 0.379464 0.175942 0.117335
v 0.375092 0.215877 0.104257
v 0.378817 0.225745 0.104165
v 0.374397 0.265653 0.091063
v 0.378011 0.274419 0.091183
v 0.372954 0.310348 0.056175
v 0.375439 0.314794 0.053511
v 0.373815 0.321351 0.046315
v 0.390460 0.104436 0.104018
v 0.399715 0.102722 0.129589
v 0.385896 0.139598 0.082216
v 0.384183 0.193898 0.060046
v 0.383023 0.249957 0.038466
v 0.385500 0.279321 0.033546
v 0.394852 0.307731 0.025184
v 0.404347 0.316381 0.037420
v 0.411643 0.300560 0.068421
v 0.412528 0.232642 0.111569
v 0.412222 0.176203 0.132490
v 0.408663 0.129933 0.141406
v 0.497977 0.101856 0.100196
v 0.498049 0.100285 0.125186
v 0.497951 0.136967 0.078093
v 0.497947 0.191259 0.055845
v 0.497947 0.247317 0.034237
v 0.497967 0.275089 0.033250
v 0.498041 0.303737 0.025442
v 0.498107 0.312601 0.038209
v 0.498139 0.296883 0.067574
v 0.498145 0.230397 0.107511
v 0.498143 0.173953 0.128423
v 0.498116 0.127630 0.137244
v 0.608426 0.104428 0.103880
v 0.597224 0.102722 0.127860
v 0.613369 0.139587 0.082171
v 0.615545 0.193886 0.060040
v 0.617174 0.249946 0.038492
v 0.614888 0.279306 0.033541
v 0.606000 0.307729 0.025000
v 0.596492 0.316392 0.037049
v 0.590206 0.300577 0.066005
v 0.586142 0.232653 0.108987
v 0.584892 0.176214 0.129872
v 0.590438 0.129940 0.141420
v 0.621868 0.136009 0.127682
v 0.619063 0.126738 0.132185
v 0.623461 0.168799 0.118006
v 0.624571 0.215620 0.105072
v 0.625553 0.263523 0.091944
v 0.627330 0.308157 0.058628
v 0.625534 0.319787 0.049020
v 0.622757 0.314522 0.055928
v 0.618822 0.274127 0.094232
v 0.617628 0.227360 0.107223
v 0.616739 0.179402 0.120294
v 0.616961 0.142756 0.129610
v 0.621266 0.132805 0.126797
v 0.622340 0.122320 0.130665
v 0.623840 0.138177 0.127481
v 0.621489 0.167177 0.117315
v 0.625053 0.175942 0.117889
v 0.622368 0.215877 0.104368
v 0.626081 0.225745 0.104746
v 0.623349 0.265653 0.091191
v 0.626914 0.274419 0.091765
v 0.626321 0.310348 0.056396
v 0.629117 0.314794 0.054068
v 0.628413 0.321351 0.046724
v 0.637644 0.104436 0.106063
v 0.645457 0.102722 0.131445
v 0.635866 0.139598 0.083863
v 0.636968 0.193898 0.061653
v 0.638542 0.249957 0.040100
v 0.641615 0.279321 0.035531
v 0.651947 0.307731 0.028415
v 0.659825 0.316381 0.041753
v 0.661890 0.300560 0.071329
v 0.660316 0.232642 0.111566
v 0.660011 0.176203 0.132490
v 0.656446 0.129933 0.141406
v 0.745757 0.101856 0.100195
v 0.745831 0.100285 0.125185
v 0.745738 0.136967 0.078093
v 0.745729 0.191259 0.055846
v 0.745729 0.247317 0.034237
v 0.745748 0.275089 0.033250
v 0.745822 0.303737 0.025442
v 0.745886 0.312601 0.038209
v 0.745924 0.296883 0.067575
v 0.745933 0.230397 0.107510
v 0.745924 0.173953 0.128423
v 0.745896 0.127630 0.137244
v 0.856314 0.104428 0.104845
v 0.846918 0.102722 0.129586
v 0.859629 0.139587 0.082829
v 0.860165 0.193886 0.060598
v 0.860193 0.249946 0.038988
v 0.857536 0.279306 0.034221
v 0.848038 0.307729 0.026363
v 0.839456 0.316392 0.039082
v 0.835327 0.300577 0.068425
v 0.834475 0.232653 0.111589
v 0.834771 0.176214 0.132510
v 0.838224 0.129940 0.141420
v 0.871479 0.136009 0.127588
v 0.869007 0.126738 0.132285
v 0.872358 0.168799 0.117821
v 0.872497 0.215620 0.104835
v 0.872506 0.263523 0.091670
v 0.871803 0.308157 0.058317
v 0.869303 0.319787 0.048867
v 0.867044 0.314522 0.055962
v 0.865961 0.274127 0.094452
v 0.865739 0.227360 0.107496
v 0.865813 0.179402 0.120600
v 0.866729 0.142756 0.129875
v 0.127460 0.132805 0.126751
v 0.128821 0.122320 0.130528
v 0.130081 0.138177 0.127241
v 0.126979 0.167177 0.117278
v 0.130582 0.175942 0.117586
v 0.126902 0.215877 0.104298
v 0.130626 0.225745 0.104400
v 0.126898 0.265653 0.091085
v 0.130501 0.274419 0.091393
v 0.127282 0.310348 0.056166
v 0.129904 0.314794 0.053636
v 0.128658 0.321351 0.046364
v 0.142260 0.104436 0.104857
v 0.151931 0.102722 0.129586
v 0.138844 0.139598 0.082849
v 0.138293 0.193898 0.060619
v 0.138264 0.249957 0.039009
v 0.136657 0.279321 0.032054
v 0.150772 0.307731 0.026362
v 0.159614 0.316381 0.039079
v 0.163859 0.300560 0.068421
v 0.164745 0.232642 0.111568
v 0.164438 0.176203 0.132490
v 0.160879 0.129933 0.141406
v 0.250193 0.101856 0.100196
v 0.250266 0.100285 0.125185
v 0.250167 0.136967 0.078093
v 0.250163 0.191259 0.055845
v 0.250163 0.247317 0.034237
v 0.250184 0.275089 0.033252
v 0.250257 0.303737 0.025443
v 0.250323 0.312601 0.038209
v 0.250355 0.296883 0.067575
v 0.250361 0.230397 0.107511
v 0.250359 0.173953 0.128423
v 0.250333 0.127630 0.137244
v 0.361198 0.104428 0.105538
v 0.351349 0.102722 0.129590
v 0.363359 0.139587 0.083378
v 0.362730 0.193886 0.061149
v 0.361627 0.249946 0.039567
v 0.358728 0.279306 0.034946
v 0.348833 0.307729 0.027595
v 0.340923 0.316392 0.040747
v 0.338341 0.300577 0.070265
v 0.339740 0.232653 0.113412
v 0.339200 0.176214 0.132510
v 0.342658 0.129940 0.141420
v 0.375915 0.136009 0.127584
v 0.373444 0.126738 0.132285
v 0.377899 0.168799 0.117653
v 0.377361 0.215620 0.104680
v 0.376678 0.263523 0.091533
v 0.374236 0.308157 0.058262
v 0.371248 0.319787 0.048956
v 0.369363 0.314522 0.056159
v 0.370294 0.274127 0.094653
v 0.370751 0.227360 0.107690
v 0.371515 0.179402 0.120773
v 0.371158 0.142756 0.129875
v 0.375244 0.138882 0.325686
v 0.376605 0.138085 0.336117
v 0.377865 0.141053 0.321059
v 0.374763 0.143610 0.292352
v 0.378366 0.146795 0.284657
v 0.374685 0.142842 0.232274
v 0.378409 0.143804 0.223122
v 0.374681 0.136881 0.184030
v 0.378285 0.137906 0.175935
v 0.375066 0.132590 0.147537
v 0.377687 0.133456 0.142622
v 0.376442 0.131476 0.132257
v 0.390044 0.113393 0.344420
v 0.399715 0.130783 0.353251
v 0.386628 0.109279 0.306679
v 0.386077 0.106470 0.246065
v 0.386048 0.094457 0.190712
v 0.388779 0.090143 0.146992
v 0.399904 0.103307 0.121580
v 0.407398 0.121210 0.128853
v 0.411643 0.136831 0.164239
v 0.412528 0.150068 0.217804
v 0.412222 0.157713 0.288829
v 0.408662 0.148561 0.332569
v 0.497977 0.109133 0.345335
v 0.498049 0.126759 0.349775
v 0.497951 0.104934 0.307611
v 0.497947 0.102476 0.247793
v 0.497947 0.090462 0.192440
v 0.497967 0.086210 0.148694
v 0.498041 0.099594 0.124499
v 0.498107 0.117697 0.130373
v 0.498139 0.133414 0.165717
v 0.498145 0.146669 0.219274
v 0.498143 0.153998 0.289626
v 0.498116 0.144758 0.333385
v 0.608528 0.113380 0.344423
v 0.609981 0.130783 0.351082
v 0.611842 0.109260 0.306683
v 0.612379 0.106453 0.246066
v 0.612407 0.094440 0.190719
v 0.609759 0.090129 0.146999
v 0.598844 0.103306 0.121265
v 0.589836 0.121221 0.126568
v 0.587549 0.136847 0.164232
v 0.586688 0.150085 0.217797
v 0.586985 0.157731 0.288825
v 0.590438 0.148574 0.332566
v 0.623701 0.140573 0.323087
v 0.621229 0.140854 0.332711
v 0.624571 0.144553 0.291072
v 0.624710 0.143245 0.232589
v 0.624720 0.137154 0.186100
v 0.624025 0.132994 0.150753
v 0.621526 0.132655 0.135405
v 0.619267 0.135399 0.144833
v 0.618184 0.140291 0.176670
v 0.617952 0.146387 0.222087
v 0.618035 0.150155 0.282473
v 0.618943 0.144514 0.317769
v 0.127460 0.138882 0.325686
v 0.128821 0.138085 0.336117
v 0.130081 0.141053 0.321059
v 0.126979 0.143610 0.292352
v 0.130582 0.146795 0.284657
v 0.126902 0.142842 0.232274
v 0.130626 0.143804 0.223122
v 0.126898 0.136881 0.184030
v 0.130501 0.137906 0.175935
v 0.127282 0.132589 0.147537
v 0.129904 0.133456 0.142622
v 0.128658 0.131476 0.132257
v 0.135121 0.113393 0.344420
v 0.145423 0.130783 0.353251
v 0.131637 0.109278 0.306679
v 0.131076 0.106470 0.246065
v 0.131046 0.094457 0.190712
v 0.133831 0.090143 0.146992
v 0.143803 0.103307 0.122889
v 0.159615 0.121210 0.128852
v 0.163859 0.136831 0.164239
v 0.164745 0.150068 0.217804
v 0.164438 0.157713 0.288829
v 0.160879 0.148561 0.332569
v 0.250193 0.109133 0.340996
v 0.250266 0.126759 0.351945
v 0.250167 0.104934 0.307611
v 0.250163 0.102476 0.247787
v 0.250163 0.090462 0.192440
v 0.250184 0.086210 0.148694
v 0.250257 0.099594 0.124498
v 0.250323 0.117697 0.130372
v 0.250355 0.133414 0.165717
v 0.250361 0.146669 0.219274
v 0.250359 0.153998 0.289626
v 0.250333 0.144758 0.333384
v 0.360743 0.113380 0.344423
v 0.362195 0.130783 0.353251
v 0.364061 0.109260 0.306683
v 0.364596 0.106453 0.246072
v 0.364624 0.094440 0.190719
v 0.361971 0.090129 0.146999
v 0.353886 0.103306 0.123992
v 0.343886 0.121221 0.128848
v 0.339763 0.136847 0.164232
v 0.338903 0.150084 0.217797
v 0.339200 0.157731 0.288825
v 0.342658 0.148574 0.332566
v 0.375915 0.140573 0.323087
v 0.373444 0.140854 0.332711
v 0.376787 0.144553 0.291072
v 0.376927 0.143244 0.232594
v 0.376935 0.137154 0.186100
v 0.376238 0.132994 0.150753
v 0.373740 0.132655 0.135405
v 0.371481 0.135399 0.144833
v 0.370396 0.140291 0.176670
v 0.370170 0.146387 0.222092
v 0.370248 0.150155 0.282473
v 0.371158 0.144514 0.317769
v 0.623025 0.138882 0.325686
v 0.624386 0.138085 0.336117
v 0.625645 0.141053 0.321059
v 0.622544 0.143610 0.292352
v 0.626145 0.146795 0.284657
v 0.622470 0.142842 0.232269
v 0.626192 0.143804 0.223116
v 0.622461 0.136881 0.184030
v 0.626071 0.137906 0.175935
v 0.622850 0.132590 0.147537
v 0.625469 0.133456 0.142622
v 0.622053 0.131476 0.132380
v 0.637829 0.113393 0.344421
v 0.636653 0.130783 0.357589
v 0.634413 0.109279 0.306679
v 0.633857 0.106470 0.246059
v 0.633829 0.094457 0.190712
v 0.636560 0.090143 0.146992
v 0.644800 0.103307 0.124680
v 0.653178 0.121210 0.131279
v 0.659427 0.136831 0.164239
v 0.660316 0.150068 0.217804
v 0.660011 0.157713 0.288829
v 0.656446 0.148561 0.332569
v 0.745757 0.109133 0.345335
v 0.745831 0.126759 0.349776
v 0.745738 0.104934 0.307611
v 0.745729 0.102476 0.247793
v 0.745729 0.090462 0.192440
v 0.745748 0.086210 0.148695
v 0.745822 0.099594 0.124498
v 0.745886 0.117697 0.130372
v 0.745924 0.133414 0.165717
v 0.745933 0.146669 0.219274
v 0.745924 0.153998 0.289626
v 0.745896 0.144758 0.333385
v 0.863443 0.113380 0.344423
v 0.844733 0.130783 0.355420
v 0.866822 0.109261 0.306683
v 0.867368 0.106453 0.246073
v 0.867396 0.094440 0.190719
v 0.864702 0.090129 0.146999
v 0.848038 0.103306 0.122890
v 0.839456 0.121221 0.128848
v 0.835327 0.136847 0.164232
v 0.834456 0.150085 0.217797
v 0.834753 0.157731 0.288825
v 0.838215 0.148574 0.332566
v 0.871469 0.140573 0.323087
v 0.868998 0.140854 0.332711
v 0.872340 0.144553 0.291072
v 0.872488 0.143245 0.232595
v 0.872488 0.137154 0.186100
v 0.871803 0.132994 0.150753
v 0.869303 0.132655 0.135405
v 0.867044 0.135399 0.144833
v 0.865952 0.140291 0.176670
v 0.865729 0.146387 0.222093
v 0.865804 0.150155 0.282473
v 0.866711 0.144514 0.317769
f 1 2 3
f 1 3 4
f 5 1 4
f 5 4 6
f 7 5 6
f 7 6 8
f 7 8 9
f 10 7 9
f 9 8 11
f 9 11 12
f 8 6 13
f 8 13 11
f 6 4 14
f 6 14 13
f 4 3 15
f 4 15 14
f 3 2 16
f 3 16 15
f 2 1 17
f 2 17 16
f 1 5 18
f 1 18 17
f 5 7 19
f 5 19 18
f 7 10 20
f 7 20 19
f 10 9 12
f 10 12 20
f 15 16 17
f 14 15 17
f 14 17 18
f 13 14 18
f 13 18 19
f 11 13 19
f 12 11 19
f 12 19 20
f 21 22 23
f 21 23 24
f 21 25 26
f 21 26 22
f 22 26 27
f 22 27 23
f 23 27 28
f 23 28 24
f 24 28 25
f 24 25 21
f 25 28 27
f 25 27 26
f 29 30 31
f 32 29 31
f 33 32 31
f 33 31 34
f 35 33 34
f 35 34 36
f 37 38 39
f 37 39 40
f 41 37 40
f 41 40 42
f 43 41 42
f 43 42 44
f 29 32 45
f 29 45 46
f 32 33 47
f 32 47 45
f 33 35 48
f 33 48 47
f 35 36 49
f 35 49 48
f 36 34 50
f 36 50 49
f 34 31 51
f 34 51 50
f 31 30 52
f 31 52 51
f 30 29 46
f 30 46 52
f 43 44 53
f 43 53 54
f 44 42 55
f 44 55 53
f 42 40 56
f 42 56 55
f 40 39 57
f 40 57 56
f 39 38 58
f 39 58 57
f 38 37 59
f 38 59 58
f 37 41 60
f 37 60 59
f 41 43 54
f 41 54 60
f 51 52 46
f 51 46 45
f 51 45 47
f 50 51 47
f 50 47 48
f 49 50 48
f 57 58 59
f 56 57 59
f 56 59 60
f 55 56 60
f 55 60 54
f 53 55 54
f 61 62 63
f 64 61 63
f 64 63 65
f 66 64 65
f 66 65 67
f 68 66 67
f 68 67 69
f 70 68 69
f 70 69 71
f 72 70 71
f 62 61 73
f 62 73 74
f 61 64 75
f 61 75 73
f 64 66 76
f 64 76 75
f 66 68 77
f 66 77 76
f 68 70 78
f 68 78 77
f 70 72 79
f 70 79 78
f 72 71 80
f 72 80 79
f 71 69 81
f 71 81 80
f 69 67 82
f 69 82 81
f 67 65 83
f 67 83 82
f 65 63 84
f 65 84 83
f 63 62 74
f 63 74 84
f 74 73 85
f 74 85 86
f 73 75 87
f 73 87 85
f 75 76 88
f 75 88 87
f 76 77 89
f 76 89 88
f 77 78 90
f 77 90 89
f 78 79 91
f 78 91 90
f 79 80 92
f 79 92 91
f 80 81 93
f 80 93 92
f 81 82 94
f 81 94 93
f 82 83 95
f 82 95 94
f 83 84 96
f 83 96 95
f 84 74 86
f 84 86 96
f 86 85 97
f 86 97 98
f 85 87 99
f 85 99 97
f 87 88 100
f 87 100 99
f 88 89 101
f 88 101 100
f 89 90 102
f 89 102 101
f 90 91 103
f 90 103 102
f 91 92 104
f 91 104 103
f 92 93 105
f 92 105 104
f 93 94 106
f 93 106 105
f 94 95 107
f 94 107 106
f 95 96 108
f 95 108 107
f 96 86 98
f 96 98 108
f 98 97 109
f 98 109 110
f 97 99 111
f 97 111 109
f 99 100 112
f 99 112 111
f 100 101 113
f 100 113 112
f 101 102 114
f 101 114 113
f 102 103 115
f 102 115 114
f 103 104 116
f 103 116 115
f 104 105 117
f 104 117 116
f 105 106 118
f 105 118 117
f 106 107 119
f 106 119 118
f 107 108 120
f 107 120 119
f 108 98 110
f 108 110 120
f 120 110 109
f 120 109 111
f 119 120 111
f 119 111 112
f 118 119 112
f 118 112 113
f 117 118 113
f 117 113 114
f 116 117 114
f 116 114 115
f 121 122 123
f 124 121 123
f 124 123 125
f 126 124 125
f 126 125 127
f 128 126 127
f 128 127 129
f 130 128 129
f 130 129 131
f 132 130 131
f 122 121 133
f 122 133 134
f 121 124 135
f 121 135 133
f 124 126 136
f 124 136 135
f 126 128 137
f 126 137 136
f 128 130 138
f 128 138 137
f 130 132 139
f 130 139 138
f 132 131 140
f 132 140 139
f 131 129 141
f 131 141 140
f 129 127 142
f 129 142 141
f 127 125 143
f 127 143 142
f 125 123 144
f 125 144 143
f 123 122 134
f 123 134 144
f 134 133 145
f 134 145 146
f 133 135 147
f 133 147 145
f 135 136 148
f 135 148 147
f 136 137 149
f 136 149 148
f 137 138 150
f 137 150 149
f 138 139 151
f 138 151 150
f 139 140 152
f 139 152 151
f 140 141 153
f 140 153 152
f 141 142 154
f 141 154 153
f 142 143 155
f 142 155 154
f 143 144 156
f 143 156 155
f 144 134 146
f 144 146 156
f 146 145 157
f 146 157 158
f 145 147 159
f 145 159 157
f 147 148 160
f 147 160 159
f 148 149 161
f 148 161 160
f 149 150 162
f 149 162 161
f 150 151 163
f 150 163 162
f 151 152 164
f 151 164 163
f 152 153 165
f 152 165 164
f 153 154 166
f 153 166 165
f 154 155 167
f 154 167 166
f 155 156 168
f 155 168 167
f 156 146 158
f 156 158 168
f 158 157 169
f 158 169 170
f 157 159 171
f 157 171 169
f 159 160 172
f 159 172 171
f 160 161 173
f 160 173 172
f 161 162 174
f 161 174 173
f 162 163 175
f 162 175 174
f 163 164 176
f 163 176 175
f 164 165 177
f 164 177 176
f 165 166 178
f 165 178 177
f 166 167 179
f 166 179 178
f 167 168 180
f 167 180 179
f 168 158 170
f 168 170 180
f 180 170 169
f 180 169 171
f 179 180 171
f 179 171 172
f 178 179 172
f 178 172 173
f 177 178 173
f 177 173 174
f 176 177 174
f 176 174 175
f 181 182 183
f 184 181 183
f 184 183 185
f 186 184 185
f 186 185 187
f 188 186 187
f 188 187 189
f 190 188 189
f 190 189 191
f 192 190 191
f 182 181 193
f 182 193 194
f 181 184 195
f 181 195 193
f 184 186 196
f 184 196 195
f 186 188 197
f 186 197 196
f 188 190 198
f 188 198 197
f 190 192 199
f 190 199 198
f 192 191 200
f 192 200 199
f 191 189 201
f 191 201 200
f 189 187 202
f 189 202 201
f 187 185 203
f 187 203 202
f 185 183 204
f 185 204 203
f 183 182 194
f 183 194 204
f 194 193 205
f 194 205 206
f 193 195 207
f 193 207 205
f 195 196 208
f 195 208 207
f 196 197 209
f 196 209 208
f 197 198 210
f 197 210 209
f 198 199 211
f 198 211 210
f 199 200 212
f 199 212 211
f 200 201 213
f 200 213 212
f 201 202 214
f 201 214 213
f 202 203 215
f 202 215 214
f 203 204 216
f 203 216 215
f 204 194 206
f 204 206 216
f 206 205 217
f 206 217 218
f 205 207 219
f 205 219 217
f 207 208 220
f 207 220 219
f 208 209 221
f 208 221 220
f 209 210 222
f 209 222 221
f 210 211 223
f 210 223 222
f 211 212 224
f 211 224 223
f 212 213 225
f 212 225 224
f 213 214 226
f 213 226 225
f 214 215 227
f 214 227 226
f 215 216 228
f 215 228 227
f 216 206 218
f 216 218 228
f 218 217 229
f 218 229 230
f 217 219 231
f 217 231 229
f 219 220 232
f 219 232 231
f 220 221 233
f 220 233 232
f 221 222 234
f 221 234 233
f 222 223 235
f 222 235 234
f 223 224 236
f 223 236 235
f 224 225 237
f 224 237 236
f 225 226 238
f 225 238 237
f 226 227 239
f 226 239 238
f 227 228 240
f 227 240 239
f 228 218 230
f 228 230 240
f 240 230 229
f 240 229 231
f 239 240 231
f 239 231 232
f 238 239 232
f 238 232 233
f 237 238 233
f 237 233 234
f 236 237 234
f 236 234 235
f 241 242 243
f 244 241 243
f 244 243 245
f 246 244 245
f 246 245 247
f 248 246 247
f 248 247 249
f 250 248 249
f 250 249 251
f 252 250 251
f 242 241 253
f 242 253 254
f 241 244 255
f 241 255 253
f 244 246 256
f 244 256 255
f 246 248 257
f 246 257 256
f 248 250 258
f 248 258 257
f 250 252 259
f 250 259 258
f 252 251 260
f 252 260 259
f 251 249 261
f 251 261 260
f 249 247 262
f 249 262 261
f 247 245 263
f 247 263 262
f 245 243 264
f 245 264 263
f 243 242 254
f 243 254 264
f 254 253 265
f 254 265 266
f 253 255 267
f 253 267 265
f 255 256 268
f 255 268 267
f 256 257 269
f 256 269 268
f 257 258 270
f 257 270 269
f 258 259 271
f 258 271 270
f 259 260 272
f 259 272 271
f 260 261 273
f 260 273 272
f 261 262 274
f 261 274 273
f 262 263 275
f 262 275 274
f 263 264 276
f 263 276 275
f 264 254 266
f 264 266 276
f 266 265 277
f 266 277 278
f 265 267 279
f 265 279 277
f 267 268 280
f 267 280 279
f 268 269 281
f 268 281 280
f 269 270 282
f 269 282 281
f 270 271 283
f 270 283 282
f 271 272 284
f 271 284 283
f 272 273 285
f 272 285 284
f 273 274 286
f 273 286 285
f 274 275 287
f 274 287 286
f 275 276 288
f 275 288 287
f 276 266 278
f 276 278 288
f 278 277 289
f 278 289 290
f 277 279 291
f 277 291 289
f 279 280 292
f 279 292 291
f 280 281 293
f 280 293 292
f 281 282 294
f 281 294 293
f 282 283 295
f 282 295 294
f 283 284 296
f 283 296 295
f 284 285 297
f 284 297 296
f 285 286 298
f 285 298 297
f 286 287 299
f 286 299 298
f 287 288 300
f 287 300 299
f 288 278 290
f 288 290 300
f 300 290 289
f 300 289 291
f 299 300 291
f 299 291 292
f 298 299 292
f 298 292 293
f 297 298 293
f 297 293 294
f 296 297 294
f 296 294 295
f 301 302 303
f 304 301 303
f 304 303 305
f 306 304 305
f 306 305 307
f 308 306 307
f 308 307 309
f 310 308 309
f 310 309 311
f 312 310 311
f 302 301 313
f 302 313 314
f 301 304 315
f 301 315 313
f 304 306 316
f 304 316 315
f 306 308 317
f 306 317 316
f 308 310 318
f 308 318 317
f 310 312 319
f 310 319 318
f 312 311 320
f 312 320 319
f 311 309 321
f 311 321 320
f 309 307 322
f 309 322 321
f 307 305 323
f 307 323 322
f 305 303 324
f 305 324 323
f 303 302 314
f 303 314 324
f 314 313 325
f 314 325 326
f 313 315 327
f 313 327 325
f 315 316 328
f 315 328 327
f 316 317 329
f 316 329 328
f 317 318 330
f 317 330 329
f 318 319 331
f 318 331 330
f 319 320 332
f 319 332 331
f 320 321 333
f 320 333 332
f 321 322 334
f 321 334 333
f 322 323 335
f 322 335 334
f 323 324 336
f 323 336 335
f 324 314 326
f 324 326 336
f 326 325 337
f 326 337 338
f 325 327 339
f 325 339 337
f 327 328 340
f 327 340 339
f 328 329 341
f 328 341 340
f 329 330 342
f 329 342 341
f 330 331 343
f 330 343 342
f 331 332 344
f 331 344 343
f 332 333 345
f 332 345 344
f 333 334 346
f 333 346 345
f 334 335 347
f 334 347 346
f 335 336 348
f 335 348 347
f 336 326 338
f 336 338 348
f 338 337 349
f 338 349 350
f 337 339 351
f 337 351 349
f 339 340 352
f 339 352 351
f 340 341 353
f 340 353 352
f 341 342 354
f 341 354 353
f 342 343 355
f 342 355 354
f 343 344 356
f 343 356 355
f 344 345 357
f 344 357 356
f 345 346 358
f 345 358 357
f 346 347 359
f 346 359 358
f 347 348 360
f 347 360 359
f 348 338 350
f 348 350 360
f 360 350 349
f 360 349 351
f 359 360 351
f 359 351 352
f 358 359 352
f 358 352 353
f 357 358 353
f 357 353 354
f 356 357 354
f 356 354 355
f 361 362 363
f 364 361 363
f 364 363 365
f 366 364 365
f 366 365 367
f 368 366 367
f 368 367 369
f 370 368 369
f 370 369 371
f 372 370 371
f 362 361 373
f 362 373 374
f 361 364 375
f 361 375 373
f 364 366 376
f 364 376 375
f 366 368 377
f 366 377 376
f 368 370 378
f 368 378 377
f 370 372 379
f 370 379 378
f 372 371 380
f 372 380 379
f 371 369 381
f 371 381 380
f 369 367 382
f 369 382 381
f 367 365 383
f 367 383 382
f 365 363 384
f 365 384 383
f 363 362 374
f 363 374 384
f 374 373 385
f 374 385 386
f 373 375 387
f 373 387 385
f 375 376 388
f 375 388 387
f 376 377 389
f 376 389 388
f 377 378 390
f 377 390 389
f 378 379 391
f 378 391 390
f 379 380 392
f 379 392 391
f 380 381 393
f 380 393 392
f 381 382 394
f 381 394 393
f 382 383 395
f 382 395 394
f 383 384 396
f 383 396 395
f 384 374 386
f 384 386 396
f 386 385 397
f 386 397 398
f 385 387 399
f 385 399 397
f 387 388 400
f 387 400 399
f 388 389 401
f 388 401 400
f 389 390 402
f 389 402 401
f 390 391 403
f 390 403 402
f 391 392 404
f 391 404 403
f 392 393 405
f 392 405 404
f 393 394 406
f 393 406 405
f 394 395 407
f 394 407 406
f 395 396 408
f 395 408 407
f 396 386 398
f 396 398 408
f 398 397 409
f 398 409 410
f 397 399 411
f 397 411 409
f 399 400 412
f 399 412 411
f 400 401 413
f 400 413 412
f 401 402 414
f 401 414 413
f 402 403 415
f 402 415 414
f 403 404 416
f 403 416 415
f 404 405 417
f 404 417 416
f 405 406 418
f 405 418 417
f 406 407 419
f 406 419 418
f 407 408 420
f 407 420 419
f 408 398 410
f 408 410 420
f 420 410 409
f 420 409 411
f 419 420 411
f 419 411 412
f 418 419 412
f 418 412 413
f 417 418 413
f 417 413 414
f 416 417 414
f 416 414 415
f 421 422 423
f 424 421 423
f 424 423 425
f 426 424 425
f 426 425 427
f 428 426 427
f 428 427 429
f 430 428 429
f 430 429 431
f 432 430 431
f 422 421 433
f 422 433 434
f 421 424 435
f 421 435 433
f 424 426 436
f 424 436 435
f 426 428 437
f 426 437 436
f 428 430 438
f 428 438 437
f 430 432 439
f 430 439 438
f 432 431 440
f 432 440 439
f 431 429 441
f 431 441 440
f 429 427 442
f 429 442 441
f 427 425 443
f 427 443 442
f 425 423 444
f 425 444 443
f 423 422 434
f 423 434 444
f 434 433 445
f 434 445 446
f 433 435 447
f 433 447 445
f 435 436 448
f 435 448 447
f 436 437 449
f 436 449 448
f 437 438 450
f 437 450 449
f 438 439 451
f 438 451 450
f 439 440 452
f 439 452 451
f 440 441 453
f 440 453 452
f 441 442 454
f 441 454 453
f 442 443 455
f 442 455 454
f 443 444 456
f 443 456 455
f 444 434 446
f 444 446 456
f 446 445 457
f 446 457 458
f 445 447 459
f 445 459 457
f 447 448 460
f 447 460 459
f 448 449 461
f 448 461 460
f 449 450 462
f 449 462 461
f 450 451 463
f 450 463 462
f 451 452 464
f 451 464 463
f 452 453 465
f 452 465 464
f 453 454 466
f 453 466 465
f 454 455 467
f 454 467 466
f 455 456 468
f 455 468 467
f 456 446 458
f 456 458 468
f 458 457 469
f 458 469 470
f 457 459 471
f 457 471 469
f 459 460 472
f 459 472 471
f 460 461 473
f 460 473 472
f 461 462 474
f 461 474 473
f 462 463 475
f 462 475 474
f 463 464 476
f 463 476 475
f 464 465 477
f 464 477 476
f 465 466 478
f 465 478 477
f 466 467 479
f 466 479 478
f 467 468 480
f 467 480 479
f 468 458 470
f 468 470 480
f 480 470 469
f 480 469 471
f 479 480 471
f 479 471 472
f 478 479 472
f 478 472 473
f 477 478 473
f 477 473 474
f 476 477 474
f 476 474 475
f 481 482 483
f 484 481 483
f 484 483 485
f 486 484 485
f 486 485 487
f 488 486 487
f 488 487 489
f 490 488 489
f 490 489 491
f 492 490 491
f 482 481 493
f 482 493 494
f 481 484 495
f 481 495 493
f 484 486 496
f 484 496 495
f 486 488 497
f 486 497 496
f 488 490 498
f 488 498 497
f 490 492 499
f 490 499 498
f 492 491 500
f 492 500 499
f 491 489 501
f 491 501 500
f 489 487 502
f 489 502 501
f 487 485 503
f 487 503 502
f 485 483 504
f 485 504 503
f 483 482 494
f 483 494 504
f 494 493 505
f 494 505 506
f 493 495 507
f 493 507 505
f 495 496 508
f 495 508 507
f 496 497 509
f 496 509 508
f 497 498 510
f 497 510 509
f 498 499 511
f 498 511 510
f 499 500 512
f 499 512 511
f 500 501 513
f 500 513 512
f 501 502 514
f 501 514 513
f 502 503 515
f 502 515 514
f 503 504 516
f 503 516 515
f 504 494 506
f 504 506 516
f 506 505 517
f 506 517 518
f 505 507 519
f 505 519 517
f 507 508 520
f 507 520 519
f 508 509 521
f 508 521 520
f 509 510 522
f 509 522 521
f 510 511 523
f 510 523 522
f 511 512 524
f 511 524 523
f 512 513 525
f 512 525 524
f 513 514 526
f 513 526 525
f 514 515 527
f 514 527 526
f 515 516 528
f 515 528 527
f 516 506 518
f 516 518 528
f 518 517 529
f 518 529 530
f 517 519 531
f 517 531 529
f 519 520 532
f 519 532 531
f 520 521 533
f 520 533 532
f 521 522 534
f 521 534 533
f 522 523 535
f 522 535 534
f 523 524 536
f 523 536 535
f 524 525 537
f 524 537 536
f 525 526 538
f 525 538 537
f 526 527 539
f 526 539 538
f 527 528 540
f 527 540 539
f 528 518 530
f 528 530 540
f 540 530 529
f 540 529 531
f 539 540 531
f 539 531 532
f 538 539 532
f 538 532 533
f 537 538 533
f 537 533 534
f 536 537 534
f 536 534 535
