# Original shape: m155.obj
# No processing applied - exact copy of source file
# Generated on 2025-10-13 11:16:39

v 0.331195 0.474079 0.184502
v 0.329373 0.503837 0.177214
v 0.305578 0.472257 0.180858
v 0.357751 0.490145 0.175392
v 0.269912 0.535914 0.199961
v 0.269912 0.501132 0.192673
v 0.241589 0.463589 0.164461
v 0.269912 0.473637 0.187207
v 0.238829 0.472257 0.180858
v 0.314743 0.494231 0.026822
v 0.354991 0.489206 0.033226
v 0.323907 0.468116 0.033226
v 0.161093 0.548281 0.103398
v 0.157449 0.516204 0.124323
v 0.172080 0.545521 0.151707
v 0.155627 0.488268 0.129844
v 0.172080 0.499752 0.157173
v 0.213211 0.474576 0.184502
v 0.217794 0.466294 0.173570
v 0.269912 0.552367 0.043219
v 0.226020 0.570697 0.039575
v 0.269912 0.572518 0.045041
v 0.226958 0.551483 0.033226
v 0.269912 0.523547 0.035932
v 0.315681 0.551483 0.033226
v 0.269912 0.494231 0.026822
v 0.311982 0.522609 0.032288
v 0.362278 0.551483 0.052384
v 0.357751 0.521725 0.049624
v 0.379670 0.519903 0.093350
v 0.183066 0.475459 0.182680
v 0.228780 0.494231 0.026822
v 0.188532 0.489206 0.033226
v 0.231541 0.522609 0.032288
v 0.185772 0.490145 0.175392
v 0.215033 0.503837 0.178098
v 0.180306 0.551483 0.052384
v 0.163853 0.519903 0.093350
v 0.214150 0.540938 0.181741
v 0.269912 0.461712 0.065138
v 0.252576 0.462209 0.080597
v 0.219616 0.468116 0.033226
v 0.381492 0.491967 0.076069
v 0.374204 0.499752 0.157173
v 0.329373 0.540938 0.181741
v 0.369621 0.545079 0.151707
v 0.362278 0.475459 0.182680
v 0.326613 0.466294 0.173570
v 0.189471 0.567494 0.061494
v 0.387013 0.516204 0.124323
v 0.382430 0.548281 0.104282
v 0.291886 0.462209 0.080597
v 0.185772 0.521725 0.049624
v 0.166559 0.564734 0.096994
v 0.304694 0.459448 0.157173
v 0.301934 0.463589 0.164461
v 0.374204 0.482802 0.158056
v 0.388834 0.488268 0.129844
v 0.172963 0.564292 0.146241
v 0.205923 0.560151 0.178098
v 0.269912 0.561090 0.199961
v 0.239767 0.459448 0.157173
v 0.171141 0.482802 0.158056
v 0.162031 0.491967 0.076069
v 0.269912 0.469055 0.033226
v 0.317503 0.570697 0.039575
v 0.353169 0.567494 0.061494
v 0.377848 0.564734 0.096994
v 0.370560 0.564292 0.146241
v 0.337600 0.560151 0.179920
v 0.269912 0.456246 0.130727
v 0.269912 0.463589 0.164461
v 0.226958 0.593609 0.045041
v 0.269912 0.595431 0.042336
v 0.381492 0.633415 0.137132
v 0.372382 0.583505 0.136193
v 0.368683 0.589026 0.068782
v 0.226958 0.624250 0.032288
v 0.186710 0.625189 0.060555
v 0.197697 0.591787 0.055089
v 0.320208 0.593609 0.045041
v 0.318386 0.624250 0.032288
v 0.362278 0.625189 0.060555
v 0.351347 0.591787 0.055089
v 0.269912 0.588088 0.199961
v 0.341243 0.583505 0.174454
v 0.317503 0.627011 0.189029
v 0.201341 0.583505 0.174454
v 0.227842 0.627011 0.189029
v 0.269912 0.623367 0.037754
v 0.269912 0.630710 0.201783
v 0.196759 0.628833 0.168988
v 0.180306 0.589026 0.068782
v 0.172963 0.633415 0.137132
v 0.171141 0.583505 0.136193
v 0.353169 0.628833 0.168988
v 0.269912 0.670516 0.041397
v 0.304694 0.665051 0.034110
v 0.350408 0.670958 0.045980
v 0.369621 0.692048 0.067843
v 0.269912 0.707618 0.035932
v 0.301050 0.708501 0.034110
v 0.341243 0.712642 0.036870
v 0.355874 0.749246 0.050507
v 0.269912 0.804677 0.059672
v 0.304694 0.796451 0.053268
v 0.336716 0.796451 0.056911
v 0.358635 0.787286 0.060555
v 0.313804 0.646279 0.190851
v 0.316564 0.666873 0.192673
v 0.269912 0.649923 0.201783
v 0.269912 0.669578 0.199961
v 0.351347 0.647604 0.169926
v 0.349525 0.665934 0.171748
v 0.367799 0.692932 0.169926
v 0.377848 0.663173 0.146241
v 0.296468 0.710820 0.199961
v 0.294646 0.732352 0.191790
v 0.269912 0.714022 0.201783
v 0.322085 0.712200 0.197255
v 0.317503 0.732352 0.190851
v 0.311982 0.711261 0.199961
v 0.344004 0.735996 0.177214
v 0.358635 0.741020 0.148063
v 0.344004 0.714022 0.187207
v 0.361395 0.712642 0.163522
v 0.317503 0.796451 0.146241
v 0.301934 0.797831 0.150769
v 0.297351 0.764815 0.169926
v 0.269912 0.795070 0.147125
v 0.269912 0.765312 0.167166
v 0.345826 0.759349 0.161700
v 0.342182 0.789549 0.148063
v 0.320208 0.763932 0.167166
v 0.355874 0.779059 0.142597
v 0.378786 0.692932 0.080597
v 0.365039 0.720868 0.083799
v 0.377848 0.692932 0.152591
v 0.366861 0.700716 0.099534
v 0.363217 0.719046 0.133543
v 0.337600 0.819804 0.092467
v 0.360456 0.809701 0.086062
v 0.322969 0.834435 0.087001
v 0.265330 0.833993 0.079713
v 0.301934 0.833497 0.083357
v 0.342182 0.824829 0.123440
v 0.323907 0.817927 0.142597
v 0.362278 0.816105 0.115213
v 0.361395 0.811081 0.131666
v 0.294646 0.823007 0.149885
v 0.359573 0.795070 0.127967
v 0.269912 0.820688 0.156234
v 0.297351 0.687908 0.199961
v 0.320208 0.686086 0.196317
v 0.346764 0.689729 0.182680
v 0.316564 0.832613 0.122501
v 0.269912 0.687466 0.199961
v 0.269912 0.734615 0.185385
v 0.325729 0.701213 0.197255
v 0.312921 0.700275 0.199961
v 0.241589 0.665051 0.034110
v 0.204985 0.670958 0.045980
v 0.192176 0.692048 0.067843
v 0.246172 0.708501 0.034110
v 0.211389 0.712642 0.036870
v 0.193115 0.750185 0.050507
v 0.241589 0.796451 0.053268
v 0.211389 0.796451 0.056911
v 0.192176 0.787286 0.060555
v 0.232424 0.666873 0.192673
v 0.233363 0.646279 0.190851
v 0.204102 0.665934 0.171748
v 0.200402 0.647604 0.169926
v 0.195820 0.692932 0.169926
v 0.180306 0.663173 0.146241
v 0.250699 0.732352 0.191790
v 0.248877 0.710820 0.199961
v 0.229664 0.732352 0.190851
v 0.226020 0.712200 0.197255
v 0.236068 0.711261 0.199961
v 0.204985 0.735996 0.177214
v 0.207745 0.714022 0.187207
v 0.190354 0.741958 0.148063
v 0.193998 0.712642 0.163522
v 0.244294 0.797831 0.150769
v 0.228780 0.796451 0.146241
v 0.247994 0.764815 0.169926
v 0.206807 0.789549 0.148063
v 0.203163 0.759349 0.161700
v 0.226958 0.763932 0.167166
v 0.193998 0.779059 0.142597
v 0.187594 0.692932 0.080597
v 0.186710 0.720868 0.083799
v 0.187594 0.692932 0.152591
v 0.189471 0.718163 0.133543
v 0.184888 0.699833 0.099534
v 0.215972 0.819804 0.092467
v 0.190354 0.809701 0.086062
v 0.232424 0.834435 0.087001
v 0.247994 0.833497 0.083357
v 0.226020 0.817927 0.142597
v 0.215972 0.824829 0.123440
v 0.193115 0.816105 0.115213
v 0.189471 0.811081 0.131666
v 0.252576 0.823007 0.149885
v 0.191293 0.795070 0.127967
v 0.249815 0.687908 0.199961
v 0.230602 0.686086 0.196317
v 0.208629 0.689729 0.182680
v 0.239767 0.832613 0.123440
v 0.227842 0.701213 0.197255
v 0.237890 0.700275 0.199961
v 0.298290 0.844483 0.091528
v 0.311982 0.844483 0.101576
v 0.276316 0.843600 0.083357
v 0.306516 0.841778 0.123440
v 0.294646 0.838079 0.148063
v 0.277255 0.837637 0.164461
v 0.278138 0.848182 0.158056
v 0.301050 0.858231 0.096994
v 0.286365 0.850446 0.144419
v 0.301050 0.856409 0.138015
v 0.311099 0.858231 0.120679
v 0.309277 0.866954 0.119796
v 0.298290 0.869217 0.088823
v 0.276316 0.863752 0.084240
v 0.245233 0.844483 0.104282
v 0.254398 0.844483 0.092467
v 0.259864 0.838079 0.148063
v 0.247994 0.841778 0.124323
v 0.251637 0.858231 0.097933
v 0.268090 0.850446 0.144419
v 0.254398 0.856409 0.138954
v 0.246172 0.858231 0.122501
v 0.246172 0.866954 0.121618
v 0.254398 0.869217 0.089706
v 0.274494 0.878824 0.077891
v 0.290947 0.928292 0.179920
v 0.294646 0.940218 0.174454
v 0.280015 0.940218 0.176276
v 0.301050 0.929673 0.177214
v 0.280015 0.949383 0.171748
v 0.312921 0.938396 0.164461
v 0.316564 0.938837 0.138015
v 0.312921 0.948002 0.160817
v 0.299173 0.948444 0.169926
v 0.280015 0.926912 0.182680
v 0.280015 0.922330 0.184502
v 0.285481 0.923268 0.182680
v 0.282721 0.888927 0.193612
v 0.280015 0.894890 0.195434
v 0.280015 0.887989 0.195434
v 0.290947 0.887106 0.187207
v 0.298290 0.894890 0.185385
v 0.290064 0.895774 0.189968
v 0.297351 0.900356 0.183563
v 0.308338 0.893952 0.176276
v 0.288242 0.905877 0.189029
v 0.285481 0.907699 0.199077
v 0.286365 0.904055 0.198139
v 0.297351 0.953965 0.100638
v 0.275433 0.968596 0.108864
v 0.293707 0.965393 0.114330
v 0.280015 0.908141 0.199077
v 0.289125 0.851385 0.156234
v 0.278138 0.849563 0.159878
v 0.304694 0.860550 0.149885
v 0.310160 0.866015 0.126145
v 0.322085 0.939279 0.122501
v 0.320208 0.920066 0.111569
v 0.322085 0.932875 0.106104
v 0.322085 0.913165 0.108864
v 0.317503 0.914103 0.086062
v 0.301934 0.882523 0.095172
v 0.316564 0.948444 0.139837
v 0.319325 0.921446 0.118857
v 0.293707 0.924151 0.180858
v 0.303756 0.963571 0.158995
v 0.312921 0.955787 0.163522
v 0.314743 0.890749 0.150769
v 0.311099 0.892571 0.166283
v 0.310160 0.883406 0.165344
v 0.301934 0.883406 0.175392
v 0.292769 0.883406 0.186324
v 0.285481 0.886167 0.192673
v 0.311982 0.902675 0.174454
v 0.280015 0.884345 0.193612
v 0.280015 0.881585 0.195434
v 0.285481 0.881585 0.192673
v 0.280015 0.878824 0.195434
v 0.280015 0.874738 0.193612
v 0.284543 0.877499 0.192673
v 0.286365 0.869714 0.189029
v 0.297351 0.871978 0.179920
v 0.285481 0.874738 0.192673
v 0.280015 0.869714 0.194495
v 0.304694 0.876560 0.172632
v 0.294646 0.876119 0.184502
v 0.292769 0.878824 0.188146
v 0.308338 0.914545 0.167166
v 0.301050 0.913662 0.171748
v 0.311099 0.911343 0.168988
v 0.301050 0.920508 0.174454
v 0.299173 0.916367 0.175392
v 0.308338 0.920066 0.170810
v 0.293707 0.912281 0.177214
v 0.286365 0.910459 0.183563
v 0.298290 0.909079 0.179036
v 0.286365 0.914545 0.180858
v 0.317503 0.909079 0.163522
v 0.311099 0.909079 0.174454
v 0.301050 0.911343 0.174454
v 0.314743 0.912723 0.163522
v 0.290064 0.914545 0.179036
v 0.292769 0.915484 0.179920
v 0.282721 0.917305 0.184502
v 0.305578 0.915484 0.171748
v 0.311982 0.917305 0.163522
v 0.298290 0.905877 0.179920
v 0.318386 0.909079 0.150769
v 0.318386 0.903116 0.149885
v 0.293707 0.920508 0.179920
v 0.280015 0.915484 0.190851
v 0.301050 0.925090 0.177214
v 0.310160 0.924151 0.174454
v 0.315681 0.915484 0.158995
v 0.317503 0.913165 0.155351
v 0.318386 0.916367 0.135310
v 0.316564 0.926912 0.143481
v 0.316564 0.920508 0.152591
v 0.318386 0.914103 0.124323
v 0.319325 0.909079 0.131666
v 0.317503 0.910901 0.124323
v 0.318386 0.903116 0.133488
v 0.312921 0.881585 0.151707
v 0.315681 0.881585 0.134371
v 0.317503 0.902675 0.165344
v 0.315681 0.879763 0.122501
v 0.317503 0.897595 0.122501
v 0.311982 0.879321 0.115213
v 0.310160 0.928292 0.173570
v 0.313804 0.922330 0.163522
v 0.297351 0.861433 0.177214
v 0.308338 0.871978 0.161700
v 0.314743 0.926912 0.163522
v 0.317503 0.919127 0.125262
v 0.278138 0.969037 0.148063
v 0.293707 0.971798 0.127967
v 0.274494 0.975000 0.127083
v 0.280015 0.960369 0.172632
v 0.291886 0.969037 0.146241
v 0.301050 0.965393 0.146241
v 0.302872 0.964455 0.133488
v 0.317503 0.947064 0.102460
v 0.274494 0.956670 0.096994
v 0.309277 0.959431 0.120679
v 0.274494 0.913165 0.074247
v 0.273611 0.933813 0.078775
v 0.294646 0.930611 0.084240
v 0.293707 0.912281 0.079713
v 0.320208 0.928734 0.089706
v 0.297351 0.956670 0.170810
v 0.280015 0.957609 0.172632
v 0.290064 0.854145 0.176276
v 0.288242 0.858231 0.186324
v 0.278138 0.858231 0.188146
v 0.301934 0.915484 0.172632
v 0.301934 0.914103 0.170810
v 0.298290 0.915484 0.175392
v 0.299173 0.915484 0.174454
v 0.299173 0.914103 0.172632
v 0.298290 0.914103 0.173570
v 0.290947 0.914103 0.176276
v 0.320208 0.914103 0.115213
v 0.322085 0.917305 0.113391
v 0.322085 0.918686 0.117974
v 0.317503 0.916367 0.123440
v 0.317503 0.913165 0.135310
v 0.319325 0.914545 0.121618
v 0.318386 0.910901 0.117035
v 0.320208 0.908141 0.109747
v 0.321147 0.912723 0.112508
v 0.316564 0.908141 0.115213
v 0.320208 0.902675 0.117974
v 0.320208 0.906760 0.107926
v 0.316564 0.894890 0.115213
v 0.317503 0.908141 0.122501
v 0.319325 0.910901 0.120679
v 0.317503 0.904938 0.121618
v 0.311982 0.891688 0.115213
v 0.301934 0.914545 0.171748
v 0.297351 0.914545 0.175392
v 0.278138 0.854145 0.179920
v 0.299173 0.960369 0.170810
v 0.280015 0.904938 0.199961
v 0.280015 0.899473 0.195434
v 0.282721 0.910901 0.191790
v 0.280015 0.910901 0.195434
v 0.309277 0.866954 0.140776
v 0.309277 0.869714 0.149885
v 0.314743 0.895774 0.083357
v 0.285481 0.901736 0.189029
v 0.289125 0.904938 0.185385
v 0.292769 0.881585 0.186324
v 0.286365 0.908141 0.185385
v 0.234246 0.920066 0.115213
v 0.233363 0.939279 0.125262
v 0.232424 0.932875 0.109747
v 0.234246 0.914103 0.088823
v 0.232424 0.913165 0.111569
v 0.250699 0.882523 0.096994
v 0.239767 0.938837 0.140776
v 0.236068 0.948444 0.141659
v 0.236068 0.921446 0.122501
v 0.259864 0.929673 0.178098
v 0.265330 0.924151 0.181741
v 0.269029 0.928292 0.180858
v 0.241589 0.955787 0.166283
v 0.247055 0.963571 0.160817
v 0.247055 0.892571 0.168988
v 0.242473 0.890749 0.152591
v 0.247994 0.883406 0.167166
v 0.259864 0.925090 0.178098
v 0.249815 0.928292 0.174454
v 0.240651 0.913165 0.158056
v 0.238829 0.913165 0.138954
v 0.237007 0.909079 0.134371
v 0.259864 0.948444 0.170810
v 0.246172 0.938396 0.167166
v 0.264446 0.940218 0.174454
v 0.272672 0.874738 0.192673
v 0.274494 0.877499 0.192673
v 0.265330 0.878824 0.189029
v 0.267207 0.854145 0.176276
v 0.256220 0.912281 0.080597
v 0.252576 0.953965 0.101576
v 0.254398 0.930611 0.085179
v 0.252576 0.965393 0.115213
v 0.264446 0.971798 0.129844
v 0.258980 0.969037 0.148063
v 0.260802 0.960369 0.171748
v 0.272672 0.904055 0.198139
v 0.272672 0.910459 0.183563
v 0.271734 0.914545 0.181741
v 0.276316 0.910901 0.191790
v 0.274494 0.907699 0.199077
v 0.276316 0.917305 0.184502
v 0.274494 0.923268 0.182680
v 0.265330 0.920508 0.179920
v 0.240651 0.879763 0.124323
v 0.241589 0.881585 0.137132
v 0.237890 0.903116 0.135310
v 0.247994 0.909079 0.175392
v 0.241589 0.909079 0.165344
v 0.241589 0.902675 0.168988
v 0.246172 0.869714 0.151707
v 0.245233 0.866954 0.142597
v 0.250699 0.860550 0.152591
v 0.267207 0.851385 0.156234
v 0.268090 0.914103 0.178098
v 0.268090 0.914545 0.180858
v 0.247055 0.902675 0.177214
v 0.243411 0.879321 0.117035
v 0.243411 0.891688 0.116152
v 0.244294 0.881585 0.154412
v 0.237890 0.908141 0.125262
v 0.237890 0.897595 0.125262
v 0.234246 0.906760 0.110686
v 0.238829 0.895774 0.086062
v 0.235185 0.902675 0.120679
v 0.237890 0.904938 0.125262
v 0.244294 0.926912 0.165344
v 0.245233 0.922330 0.166283
v 0.241589 0.920508 0.155351
v 0.261686 0.956670 0.171748
v 0.259864 0.861433 0.173570
v 0.260802 0.871978 0.180858
v 0.263508 0.876119 0.186324
v 0.254398 0.876560 0.175392
v 0.268090 0.895774 0.190851
v 0.273611 0.901736 0.189968
v 0.269029 0.858231 0.186324
v 0.237007 0.910901 0.119796
v 0.237007 0.910901 0.123440
v 0.236068 0.914545 0.124323
v 0.237890 0.914103 0.127083
v 0.265330 0.915484 0.181741
v 0.247994 0.911343 0.172632
v 0.244294 0.912723 0.165344
v 0.260802 0.905877 0.180858
v 0.260802 0.900356 0.184502
v 0.269029 0.904938 0.185385
v 0.259864 0.909079 0.179920
v 0.247994 0.871978 0.164461
v 0.272672 0.881585 0.192673
v 0.265330 0.881585 0.188146
v 0.272672 0.908141 0.185385
v 0.249815 0.924151 0.176276
v 0.238829 0.908141 0.117974
v 0.245233 0.866015 0.128905
v 0.259864 0.916367 0.174454
v 0.252576 0.915484 0.172632
v 0.250699 0.920066 0.172632
v 0.246172 0.948002 0.163522
v 0.243411 0.959431 0.123440
v 0.247994 0.964455 0.137132
v 0.248877 0.965393 0.148947
v 0.232424 0.928734 0.092467
v 0.289125 0.901736 0.188146
v 0.235185 0.947064 0.105220
v 0.267207 0.883406 0.187207
v 0.269912 0.901736 0.189029
v 0.256220 0.883406 0.178098
v 0.273611 0.886167 0.194495
v 0.271734 0.905877 0.189029
v 0.257103 0.911343 0.176276
v 0.257103 0.913662 0.172632
v 0.246172 0.917305 0.166283
v 0.264446 0.912281 0.178098
v 0.250699 0.914545 0.169926
v 0.242473 0.915484 0.160817
v 0.240651 0.926912 0.146241
v 0.238829 0.903116 0.152591
v 0.239767 0.909079 0.153529
v 0.269912 0.869714 0.189029
v 0.274494 0.888927 0.193612
v 0.259864 0.894890 0.187207
v 0.268090 0.887106 0.187207
v 0.250699 0.893952 0.178098
v 0.258980 0.920508 0.176276
v 0.238829 0.916367 0.138954
v 0.237890 0.910901 0.127083
v 0.238829 0.919127 0.127967
v 0.257103 0.915484 0.175392
v 0.257103 0.914103 0.173570
v 0.258980 0.915484 0.177214
v 0.260802 0.915484 0.177214
v 0.260802 0.914103 0.175392
v 0.258980 0.914103 0.173570
v 0.233363 0.917305 0.116152
v 0.234246 0.914103 0.117974
v 0.233363 0.918686 0.121618
v 0.238829 0.916367 0.126145
v 0.234246 0.908141 0.113391
v 0.234246 0.912723 0.115213
v 0.238829 0.894890 0.117035
v 0.256220 0.914545 0.174454
v 0.260802 0.914545 0.177214
v 0.380608 0.767576 0.141107
v 0.387896 0.795070 0.131611
v 0.384252 0.782262 0.085013
v 0.375087 0.751123 0.078112
v 0.394300 0.797831 0.112729
v 0.408931 0.757527 0.087553
v 0.427261 0.719985 0.087553
v 0.391595 0.724567 0.081866
v 0.376026 0.698894 0.103288
v 0.372382 0.690668 0.131611
v 0.401643 0.697072 0.079989
v 0.383313 0.683325 0.103288
v 0.409870 0.759349 0.129126
v 0.427261 0.728211 0.126587
v 0.419918 0.765754 0.111459
v 0.436370 0.732793 0.110244
v 0.368683 0.739198 0.143591
v 0.379670 0.673277 0.132273
v 0.383313 0.715402 0.147401
v 0.397999 0.691607 0.149278
v 0.435487 0.666873 0.125317
v 0.432727 0.641200 0.143591
v 0.443713 0.644899 0.124709
v 0.439131 0.628391 0.136027
v 0.441891 0.618343 0.133543
v 0.448296 0.630213 0.125317
v 0.451940 0.622925 0.126587
v 0.406226 0.618343 0.134150
v 0.412630 0.623809 0.103950
v 0.415335 0.610061 0.103288
v 0.405287 0.639378 0.103288
v 0.427261 0.619226 0.087553
v 0.430905 0.611938 0.085676
v 0.418096 0.650365 0.082529
v 0.425439 0.631152 0.085013
v 0.443713 0.618343 0.093240
v 0.414452 0.714464 0.144254
v 0.424500 0.658591 0.145468
v 0.411691 0.646721 0.149885
v 0.398883 0.632973 0.134150
v 0.418096 0.629330 0.148008
v 0.429966 0.664112 0.090093
v 0.440069 0.668694 0.108975
v 0.442775 0.631152 0.091970
v 0.438192 0.645782 0.091307
v 0.451001 0.632973 0.107097
v 0.445535 0.649481 0.109582
v 0.422678 0.618343 0.141714
v 0.421740 0.609178 0.140444
v 0.414452 0.606417 0.102681
v 0.414452 0.597253 0.126587
v 0.410753 0.606417 0.127856
v 0.451940 0.621048 0.107705
v 0.398883 0.741020 0.143591
v 0.464748 0.556949 0.113999
v 0.463810 0.561532 0.124709
v 0.468392 0.502954 0.131003
v 0.416274 0.599074 0.104558
v 0.455583 0.552367 0.096994
v 0.426322 0.574340 0.102681
v 0.440069 0.581683 0.086946
v 0.429966 0.600896 0.084406
v 0.459227 0.596369 0.116538
v 0.452823 0.595431 0.132273
v 0.457405 0.558826 0.135420
v 0.444597 0.592670 0.141107
v 0.429083 0.580800 0.142984
v 0.437309 0.545079 0.137960
v 0.443713 0.543257 0.102018
v 0.416274 0.589026 0.126587
v 0.423562 0.564292 0.127249
v 0.424500 0.603657 0.141107
v 0.433665 0.534092 0.121562
v 0.439131 0.500193 0.121562
v 0.442775 0.502015 0.129734
v 0.473913 0.503837 0.120293
v 0.465245 0.499586 0.119685
v 0.472975 0.503837 0.111459
v 0.459227 0.496605 0.110244
v 0.461933 0.499586 0.124102
v 0.458123 0.499089 0.128464
v 0.452823 0.502015 0.134758
v 0.445038 0.490752 0.124102
v 0.452657 0.494175 0.131611
v 0.463810 0.502015 0.108312
v 0.446143 0.490752 0.116538
v 0.461104 0.502954 0.134150
v 0.450118 0.554244 0.140444
v 0.453762 0.590848 0.102018
v 0.442775 0.612822 0.136690
v 0.453762 0.614644 0.126587
v 0.447357 0.611000 0.095724
v 0.455583 0.611938 0.110852
v 0.485397 0.467674 0.127856
v 0.480483 0.474576 0.126587
v 0.479931 0.465245 0.128464
v 0.474465 0.475514 0.126587
v 0.467398 0.490255 0.125317
v 0.459227 0.487826 0.129734
v 0.464693 0.473582 0.129126
v 0.474465 0.458841 0.130396
v 0.451608 0.484348 0.132881
v 0.457571 0.470159 0.131611
v 0.464693 0.455915 0.132273
v 0.447247 0.484348 0.129734
v 0.451608 0.466239 0.130396
v 0.456522 0.453982 0.132881
v 0.506653 0.434824 0.117146
v 0.509910 0.436812 0.118415
v 0.508254 0.436812 0.120293
v 0.509910 0.438248 0.119685
v 0.507702 0.436315 0.113999
v 0.509358 0.438248 0.113999
v 0.495721 0.423065 0.121562
v 0.500635 0.424059 0.122832
v 0.495721 0.425991 0.124102
v 0.500635 0.428972 0.122832
v 0.495169 0.425991 0.119023
v 0.500083 0.428972 0.118415
v 0.484845 0.415225 0.124102
v 0.488102 0.415225 0.125317
v 0.485397 0.417157 0.127249
v 0.488654 0.418151 0.126587
v 0.484845 0.417157 0.120955
v 0.488102 0.418151 0.120293
v 0.464693 0.411802 0.126587
v 0.467951 0.411305 0.127856
v 0.465742 0.412740 0.129734
v 0.469055 0.413237 0.129734
v 0.465245 0.413734 0.123440
v 0.468503 0.414231 0.123440
v 0.478275 0.475073 0.116538
v 0.485949 0.467178 0.117808
v 0.472864 0.474576 0.117146
v 0.479379 0.463755 0.117808
v 0.468503 0.490752 0.110244
v 0.462485 0.487826 0.110244
v 0.462485 0.473582 0.117808
v 0.471760 0.458841 0.118415
v 0.456522 0.486832 0.112122
v 0.458675 0.467178 0.119685
v 0.464693 0.453982 0.119685
v 0.450504 0.482912 0.112122
v 0.448848 0.464748 0.122170
v 0.456522 0.451995 0.120955
v 0.442885 0.480925 0.113999
v 0.487550 0.468171 0.122832
v 0.493568 0.458841 0.126587
v 0.494120 0.459338 0.120293
v 0.488654 0.462319 0.115268
v 0.493016 0.457902 0.116538
v 0.489759 0.456412 0.127249
v 0.481035 0.460828 0.121562
v 0.488102 0.455418 0.121562
v 0.483189 0.458841 0.115876
v 0.489206 0.454921 0.117146
v 0.481035 0.451498 0.128464
v 0.485397 0.453982 0.127856
v 0.486446 0.453982 0.122170
v 0.475017 0.454424 0.120955
v 0.478275 0.450007 0.123440
v 0.479931 0.457902 0.117146
v 0.483741 0.452492 0.118415
v 0.476122 0.454921 0.117146
v 0.480483 0.450504 0.119023
v 0.471760 0.445149 0.130396
v 0.476674 0.447578 0.129126
v 0.477778 0.448075 0.124102
v 0.465245 0.451498 0.122832
v 0.470104 0.443658 0.122832
v 0.472864 0.451498 0.119023
v 0.476674 0.446584 0.121562
v 0.469055 0.449566 0.118415
v 0.471208 0.443658 0.120293
v 0.455418 0.452492 0.125979
v 0.457571 0.438248 0.125317
v 0.459779 0.439738 0.132273
v 0.459227 0.446087 0.119685
v 0.459227 0.438248 0.122170
v 0.466294 0.441229 0.131611
v 0.467398 0.441671 0.124102
v 0.463037 0.446087 0.119685
v 0.465742 0.440235 0.121562
v 0.442885 0.484348 0.123440
v 0.435763 0.470656 0.123440
v 0.437971 0.472091 0.129126
v 0.448351 0.464251 0.125317
v 0.444486 0.463755 0.129126
v 0.443989 0.461822 0.122170
v 0.436867 0.470159 0.115268
v 0.441781 0.463258 0.116538
v 0.501739 0.449069 0.124709
v 0.502291 0.449566 0.119023
v 0.496825 0.446087 0.120293
v 0.497930 0.447081 0.125317
v 0.496825 0.453485 0.115268
v 0.501187 0.448572 0.117146
v 0.493016 0.451001 0.115876
v 0.497378 0.446584 0.118415
v 0.511014 0.438248 0.116538
v 0.493568 0.442167 0.127249
v 0.494672 0.442167 0.120955
v 0.485949 0.437309 0.122170
v 0.488102 0.438744 0.127856
v 0.486998 0.446584 0.116538
v 0.493016 0.441671 0.117808
v 0.484845 0.444652 0.117146
v 0.488654 0.438744 0.118415
v 0.502843 0.427482 0.120293
v 0.482084 0.435321 0.128464
v 0.483189 0.435321 0.122832
v 0.475017 0.431401 0.124102
v 0.476674 0.432892 0.129734
v 0.476674 0.441229 0.119685
v 0.481587 0.434824 0.120293
v 0.473913 0.439241 0.119023
v 0.476122 0.432395 0.120955
v 0.490808 0.417157 0.123440
v 0.467398 0.428475 0.131611
v 0.468503 0.428972 0.125979
v 0.460332 0.425991 0.126587
v 0.461381 0.426985 0.132273
v 0.465742 0.432892 0.120293
v 0.466846 0.427482 0.122170
v 0.462485 0.432395 0.120293
v 0.460884 0.425991 0.122832
v 0.470656 0.412740 0.125979
v 0.433058 0.456909 0.125317
v 0.436315 0.452492 0.127856
v 0.436867 0.451498 0.122832
v 0.430352 0.456412 0.122170
v 0.435266 0.453982 0.115268
v 0.428696 0.455418 0.116538
v 0.429800 0.441229 0.125979
v 0.431954 0.440732 0.124709
v 0.432506 0.439738 0.119685
v 0.428144 0.440235 0.122170
v 0.430352 0.440732 0.117808
v 0.427592 0.440732 0.118415
v 0.483189 0.474576 0.120955
v 0.430352 0.438248 0.122170
v 0.471760 0.491746 0.120955
v 0.472312 0.490255 0.114606
v 0.307455 0.285923 0.037754
v 0.306516 0.309718 0.039575
v 0.337600 0.309277 0.037754
v 0.336716 0.285923 0.035932
v 0.374204 0.309277 0.062377
v 0.363217 0.285923 0.058733
v 0.294646 0.349580 0.066960
v 0.322085 0.348642 0.035932
v 0.348586 0.348642 0.035932
v 0.382430 0.352285 0.066960
v 0.313804 0.419145 0.025000
v 0.284543 0.419145 0.059672
v 0.352230 0.418261 0.025939
v 0.385191 0.419145 0.061494
v 0.306516 0.352782 0.158995
v 0.345826 0.351844 0.182680
v 0.343121 0.382044 0.180858
v 0.299173 0.284984 0.159878
v 0.333017 0.284984 0.174454
v 0.332134 0.306516 0.179036
v 0.300112 0.309277 0.138954
v 0.366861 0.284984 0.153529
v 0.372382 0.309277 0.145303
v 0.300112 0.384362 0.153529
v 0.388834 0.352782 0.158056
v 0.380608 0.384362 0.151707
v 0.282721 0.350463 0.114330
v 0.290064 0.310160 0.111569
v 0.397999 0.352782 0.114330
v 0.394300 0.382541 0.112508
v 0.382430 0.309277 0.111569
v 0.311982 0.382044 0.031404
v 0.293707 0.382541 0.064199
v 0.347648 0.382044 0.031404
v 0.378786 0.382044 0.064199
v 0.342182 0.418261 0.189029
v 0.269912 0.419145 0.111569
v 0.275433 0.382541 0.110686
v 0.377848 0.420083 0.157173
v 0.397061 0.419145 0.113391
v 0.297351 0.419145 0.153529
v 0.379670 0.285923 0.115213
v 0.292769 0.285923 0.117974
v 0.320208 0.138457 0.131666
v 0.332134 0.090424 0.114330
v 0.348586 0.138457 0.144419
v 0.365039 0.088547 0.130727
v 0.391595 0.138954 0.131666
v 0.387896 0.209899 0.098816
v 0.386074 0.138954 0.055089
v 0.376026 0.209899 0.062377
v 0.333956 0.090424 0.051446
v 0.324791 0.088547 0.087001
v 0.326613 0.138954 0.055089
v 0.310160 0.138457 0.098816
v 0.301934 0.210340 0.098816
v 0.317503 0.208077 0.136193
v 0.380608 0.207138 0.135310
v 0.399821 0.138954 0.098816
v 0.397999 0.089485 0.114330
v 0.403465 0.089485 0.085179
v 0.346764 0.205316 0.162639
v 0.338538 0.247000 0.170810
v 0.307455 0.247441 0.151707
v 0.367799 0.247441 0.151707
v 0.350187 0.075296 0.099037
v 0.365039 0.073309 0.104392
v 0.365039 0.089485 0.036870
v 0.365039 0.072702 0.063205
v 0.348586 0.138954 0.044158
v 0.341243 0.247000 0.034110
v 0.310160 0.248380 0.060555
v 0.368683 0.248380 0.058733
v 0.345826 0.208077 0.037754
v 0.379670 0.247883 0.106104
v 0.320208 0.210340 0.062377
v 0.298290 0.247883 0.106104
v 0.399821 0.089485 0.056911
v 0.384031 0.072702 0.077118
v 0.380498 0.072702 0.089927
v 0.380498 0.073309 0.099037
v 0.347813 0.070051 0.089927
v 0.350187 0.072702 0.077118
v 0.349028 0.043275 0.100141
v 0.350187 0.063537 0.116704
v 0.368628 0.061549 0.127967
v 0.387620 0.055697 0.126863
v 0.392975 0.043937 0.100141
v 0.381657 0.025663 0.130120
v 0.385853 0.025663 0.160099
v 0.356757 0.025663 0.122611
v 0.389994 0.042005 0.127415
v 0.394742 0.040017 0.155793
v 0.352009 0.025000 0.157946
v 0.349028 0.042005 0.122059
v 0.343065 0.041342 0.154744
v 0.343673 0.052439 0.152038
v 0.351402 0.026932 0.179864
v 0.355543 0.029582 0.195930
v 0.347261 0.042612 0.176662
v 0.372161 0.051777 0.153087
v 0.363880 0.048520 0.168657
v 0.385853 0.042612 0.171307
v 0.375750 0.029582 0.195930
v 0.375750 0.043937 0.191127
v 0.381657 0.026932 0.178815
v 0.372768 0.028257 0.186821
v 0.388779 0.047195 0.084627
v 0.377516 0.026932 0.100141
v 0.373928 0.028920 0.079768
v 0.355543 0.026932 0.082971
v 0.386405 0.030852 0.084627
v 0.356150 0.026932 0.100141
v 0.388779 0.026325 0.065303
v 0.352009 0.049844 0.081922
v 0.354935 0.026325 0.065303
v 0.384639 0.056359 0.063205
v 0.355543 0.043937 0.191127
v 0.354935 0.056359 0.063702
v 0.365039 0.025663 0.165951
v 0.360291 0.025663 0.167552
v 0.361505 0.026932 0.181465
v 0.370394 0.028920 0.051943
v 0.370394 0.058292 0.052495
v 0.363272 0.026325 0.174509
v 0.369180 0.027595 0.182570
v 0.372161 0.026325 0.170258
v 0.373928 0.025663 0.165399
v 0.108975 0.647604 0.124709
v 0.114440 0.632035 0.136027
v 0.122667 0.643960 0.143591
v 0.142818 0.628391 0.103950
v 0.127249 0.623809 0.087553
v 0.130010 0.634795 0.085013
v 0.112618 0.634795 0.091970
v 0.121783 0.616466 0.085676
v 0.137297 0.614644 0.103288
v 0.137297 0.611000 0.102681
v 0.136414 0.602774 0.126587
v 0.142818 0.611938 0.127856
v 0.131832 0.622925 0.141714
v 0.138236 0.632973 0.148008
v 0.114440 0.670516 0.108975
v 0.118084 0.667756 0.125317
v 0.129071 0.731855 0.110244
v 0.136414 0.718163 0.087553
v 0.108975 0.652187 0.109582
v 0.122667 0.665934 0.090093
v 0.115379 0.648543 0.091307
v 0.103454 0.636617 0.107097
v 0.101632 0.625631 0.107705
v 0.102570 0.627452 0.126587
v 0.109858 0.622925 0.093240
v 0.172963 0.674160 0.132273
v 0.158332 0.691607 0.149278
v 0.155627 0.636617 0.134150
v 0.148284 0.622925 0.134150
v 0.144640 0.649481 0.149885
v 0.132715 0.614644 0.140444
v 0.164737 0.795070 0.112729
v 0.172963 0.764815 0.141107
v 0.138236 0.653125 0.082529
v 0.146462 0.713580 0.144254
v 0.130010 0.661352 0.145468
v 0.151928 0.643022 0.103288
v 0.171141 0.684264 0.103288
v 0.105275 0.633912 0.125317
v 0.110796 0.622925 0.133543
v 0.177545 0.750185 0.078112
v 0.171141 0.778562 0.085013
v 0.182128 0.738259 0.143591
v 0.167497 0.791371 0.131611
v 0.152867 0.754767 0.087553
v 0.162915 0.723628 0.081866
v 0.156510 0.697072 0.079989
v 0.146462 0.762993 0.111459
v 0.151045 0.756589 0.129126
v 0.133653 0.727272 0.126587
v 0.158332 0.739198 0.143591
v 0.171141 0.714464 0.147401
v 0.177545 0.698894 0.103288
v 0.179367 0.690668 0.131611
v 0.110796 0.617404 0.136690
v 0.098871 0.620165 0.126587
v 0.104392 0.598191 0.141107
v 0.095227 0.600896 0.132273
v 0.095227 0.562470 0.140444
v 0.087940 0.567053 0.135420
v 0.087940 0.513941 0.134758
v 0.080597 0.513941 0.134150
v 0.120845 0.580800 0.102681
v 0.125427 0.572518 0.127249
v 0.099810 0.551483 0.102018
v 0.076953 0.513002 0.108312
v 0.069610 0.514824 0.111459
v 0.135475 0.604596 0.104558
v 0.080597 0.568875 0.124709
v 0.080597 0.565231 0.113999
v 0.074192 0.514824 0.131003
v 0.104392 0.615582 0.095724
v 0.095227 0.616466 0.110852
v 0.121783 0.606417 0.084406
v 0.097049 0.513941 0.129734
v 0.108975 0.554244 0.137960
v 0.099810 0.512119 0.121562
v 0.111680 0.544140 0.121562
v 0.133653 0.595431 0.126587
v 0.127249 0.609178 0.141107
v 0.119906 0.587204 0.142984
v 0.070272 0.507371 0.119685
v 0.069610 0.514824 0.120293
v 0.076235 0.504389 0.110244
v 0.073530 0.507371 0.124102
v 0.077339 0.506874 0.128464
v 0.090976 0.498537 0.124102
v 0.082805 0.501960 0.131611
v 0.089320 0.498537 0.116538
v 0.088823 0.561532 0.096994
v 0.108036 0.588088 0.086946
v 0.089761 0.601835 0.116538
v 0.093405 0.597253 0.102018
v 0.063150 0.498040 0.114606
v 0.063702 0.499531 0.120955
v 0.052826 0.482360 0.120955
v 0.054979 0.482360 0.126587
v 0.047912 0.475956 0.122832
v 0.050065 0.475459 0.127856
v 0.066960 0.498537 0.110244
v 0.057188 0.482857 0.116538
v 0.049569 0.474962 0.117808
v 0.088216 0.492133 0.129734
v 0.092577 0.492133 0.123440
v 0.103509 0.448517 0.124709
v 0.102957 0.447523 0.119685
v 0.105110 0.446032 0.122170
v 0.107318 0.448020 0.122170
v 0.106214 0.449013 0.125979
v 0.084406 0.474024 0.130396
v 0.078995 0.461767 0.132881
v 0.080045 0.460276 0.125979
v 0.087167 0.472036 0.125317
v 0.092577 0.488710 0.113999
v 0.105110 0.448517 0.117808
v 0.107870 0.448517 0.118415
v 0.079492 0.459779 0.120955
v 0.086614 0.472533 0.121562
v 0.068064 0.498040 0.125317
v 0.060997 0.483299 0.126587
v 0.055531 0.473030 0.128464
v 0.076235 0.495556 0.129734
v 0.070769 0.481367 0.129126
v 0.060997 0.466626 0.130396
v 0.083854 0.492133 0.132881
v 0.077891 0.477944 0.131611
v 0.071321 0.463699 0.132273
v 0.025552 0.444597 0.118415
v 0.028809 0.442609 0.117146
v 0.027208 0.444597 0.120293
v 0.025552 0.446032 0.119685
v 0.026104 0.446032 0.113999
v 0.027761 0.444100 0.113999
v 0.034827 0.431843 0.122832
v 0.039741 0.430849 0.121562
v 0.039741 0.433775 0.124102
v 0.034827 0.436702 0.122832
v 0.035380 0.436702 0.118415
v 0.040845 0.433775 0.119023
v 0.047912 0.423010 0.125317
v 0.051170 0.423010 0.124102
v 0.050065 0.424942 0.127249
v 0.046808 0.425936 0.126587
v 0.047360 0.425936 0.120293
v 0.050618 0.424942 0.120955
v 0.067512 0.419090 0.127856
v 0.071321 0.419587 0.126587
v 0.069720 0.420525 0.129734
v 0.066463 0.421022 0.129734
v 0.066960 0.422016 0.123440
v 0.070769 0.421519 0.123440
v 0.062598 0.482360 0.117146
v 0.056083 0.471539 0.117808
v 0.072978 0.495556 0.110244
v 0.072978 0.481367 0.117808
v 0.063702 0.466626 0.118415
v 0.078995 0.494617 0.112122
v 0.076787 0.474962 0.119685
v 0.070769 0.461767 0.119685
v 0.084958 0.490697 0.112122
v 0.041894 0.466626 0.126587
v 0.041342 0.467122 0.120293
v 0.047360 0.470104 0.115268
v 0.042446 0.465687 0.116538
v 0.045704 0.464196 0.127249
v 0.054427 0.468613 0.121562
v 0.047912 0.463202 0.121562
v 0.052274 0.466626 0.115876
v 0.046256 0.462706 0.117146
v 0.054427 0.459283 0.128464
v 0.049569 0.461767 0.127856
v 0.049016 0.461767 0.122170
v 0.060445 0.462209 0.120955
v 0.057188 0.457792 0.123440
v 0.056083 0.465687 0.117146
v 0.050618 0.460276 0.118415
v 0.059341 0.462706 0.117146
v 0.054979 0.458289 0.119023
v 0.064254 0.452933 0.130396
v 0.058789 0.455363 0.129126
v 0.057740 0.455860 0.124102
v 0.070272 0.459283 0.122832
v 0.065359 0.451443 0.122832
v 0.062598 0.459283 0.119023
v 0.058789 0.454369 0.121562
v 0.066463 0.457350 0.118415
v 0.064254 0.451443 0.120293
v 0.077891 0.446032 0.125317
v 0.075683 0.447523 0.132273
v 0.076235 0.446032 0.122170
v 0.076235 0.453872 0.119685
v 0.069168 0.449013 0.131611
v 0.068616 0.449455 0.124102
v 0.072978 0.453872 0.119685
v 0.069720 0.448020 0.121562
v 0.100251 0.478882 0.122832
v 0.097491 0.480373 0.128464
v 0.090976 0.471539 0.129126
v 0.091528 0.469607 0.122170
v 0.099147 0.477944 0.114606
v 0.094233 0.471042 0.116538
v 0.033723 0.456853 0.124709
v 0.033171 0.457350 0.119023
v 0.039189 0.453872 0.120293
v 0.037533 0.454866 0.125317
v 0.038637 0.461270 0.115268
v 0.034275 0.456356 0.117146
v 0.042999 0.458786 0.115876
v 0.038085 0.454369 0.118415
v 0.025000 0.446032 0.116538
v 0.041894 0.449952 0.127249
v 0.040845 0.449952 0.120955
v 0.049569 0.445094 0.122170
v 0.047360 0.446529 0.127856
v 0.047912 0.454369 0.116538
v 0.041894 0.449455 0.117808
v 0.050618 0.452437 0.117146
v 0.046808 0.446529 0.118415
v 0.032674 0.435266 0.120293
v 0.053378 0.443106 0.128464
v 0.052274 0.443106 0.122832
v 0.060445 0.439186 0.124102
v 0.058789 0.440677 0.129734
v 0.058789 0.449013 0.119685
v 0.054427 0.442609 0.120293
v 0.061549 0.447026 0.119023
v 0.059341 0.440180 0.120955
v 0.045207 0.424942 0.123440
v 0.068064 0.436260 0.131611
v 0.066960 0.436702 0.125979
v 0.075131 0.433775 0.126587
v 0.074082 0.434769 0.132273
v 0.070272 0.440677 0.120293
v 0.068616 0.435266 0.122170
v 0.073530 0.440180 0.120293
v 0.074634 0.433775 0.122832
v 0.064807 0.420525 0.125979
v 0.102957 0.464693 0.125317
v 0.099147 0.460276 0.127856
v 0.098595 0.459283 0.122832
v 0.105110 0.464196 0.122170
v 0.100748 0.461767 0.115268
v 0.106766 0.463202 0.116538
v 0.218732 0.309718 0.039575
v 0.213211 0.285923 0.037754
v 0.192176 0.309277 0.037754
v 0.187594 0.285923 0.035932
v 0.162915 0.309277 0.062377
v 0.164737 0.285923 0.058733
v 0.233363 0.349580 0.066960
v 0.209567 0.348642 0.035932
v 0.187594 0.348642 0.035932
v 0.162031 0.352285 0.066960
v 0.221437 0.419145 0.025000
v 0.247055 0.419145 0.059672
v 0.188532 0.418261 0.025939
v 0.159271 0.419145 0.061494
v 0.191293 0.284984 0.174454
v 0.219616 0.284984 0.159878
v 0.195820 0.306516 0.179036
v 0.223259 0.309277 0.138954
v 0.162031 0.284984 0.153529
v 0.162915 0.309277 0.145303
v 0.225137 0.352782 0.158995
v 0.233363 0.384362 0.153529
v 0.195820 0.382044 0.180858
v 0.156510 0.352782 0.158056
v 0.165675 0.384362 0.151707
v 0.189471 0.351844 0.182680
v 0.196759 0.418261 0.189029
v 0.235185 0.419145 0.153529
v 0.156510 0.309277 0.111569
v 0.151045 0.285923 0.115213
v 0.151045 0.352782 0.114330
v 0.149223 0.419145 0.113391
v 0.259864 0.419145 0.111569
v 0.244294 0.350463 0.114330
v 0.231541 0.310160 0.111569
v 0.225137 0.285923 0.117974
v 0.164737 0.420083 0.157173
v 0.253459 0.382541 0.110686
v 0.222376 0.382044 0.031404
v 0.192176 0.382044 0.031404
v 0.165675 0.382044 0.064199
v 0.152867 0.382541 0.112508
v 0.237890 0.382541 0.064199
v 0.168381 0.138954 0.044158
v 0.190354 0.138954 0.055089
v 0.160154 0.089485 0.036870
v 0.130893 0.138954 0.055089
v 0.175724 0.247000 0.034110
v 0.207745 0.248380 0.060555
v 0.150106 0.248380 0.058733
v 0.168381 0.138457 0.144419
v 0.196759 0.208077 0.136193
v 0.169319 0.205316 0.162639
v 0.126311 0.138954 0.131666
v 0.135475 0.207138 0.135310
v 0.177545 0.247000 0.170810
v 0.149223 0.247441 0.151707
v 0.131832 0.089485 0.056911
v 0.118084 0.138954 0.098816
v 0.140058 0.247883 0.106104
v 0.219616 0.247883 0.106104
v 0.211389 0.210340 0.098816
v 0.193115 0.210340 0.062377
v 0.206807 0.138457 0.098816
v 0.196759 0.138457 0.131666
v 0.187594 0.090424 0.114330
v 0.129071 0.089485 0.085179
v 0.208629 0.247441 0.151707
v 0.129071 0.209899 0.098816
v 0.169319 0.208077 0.037754
v 0.140058 0.209899 0.062377
v 0.161093 0.088547 0.130727
v 0.193998 0.088547 0.087001
v 0.185772 0.090424 0.051446
v 0.133653 0.089485 0.114330
v 0.168270 0.070051 0.089927
v 0.165896 0.072702 0.077118
v 0.151045 0.072702 0.063205
v 0.165896 0.075296 0.099037
v 0.151045 0.073309 0.104392
v 0.132052 0.072702 0.077118
v 0.135586 0.072702 0.089927
v 0.135586 0.073309 0.099037
v 0.130230 0.042612 0.171307
v 0.121342 0.040017 0.155793
v 0.134426 0.026932 0.178815
v 0.130230 0.025663 0.160099
v 0.126090 0.042005 0.127415
v 0.123108 0.043937 0.100141
v 0.134426 0.025663 0.130120
v 0.127304 0.047195 0.084627
v 0.131445 0.056359 0.063205
v 0.127304 0.026325 0.065303
v 0.142101 0.028920 0.079768
v 0.129071 0.030852 0.084627
v 0.143923 0.051777 0.153143
v 0.128464 0.055697 0.126863
v 0.164682 0.026932 0.179864
v 0.173018 0.041342 0.154744
v 0.168822 0.042612 0.176662
v 0.159933 0.043937 0.191127
v 0.159933 0.029582 0.195930
v 0.159326 0.025663 0.122611
v 0.159933 0.026932 0.100141
v 0.167056 0.043275 0.100141
v 0.167056 0.042005 0.122059
v 0.161148 0.026325 0.065303
v 0.161148 0.056359 0.063702
v 0.164074 0.049844 0.081922
v 0.160541 0.026932 0.082971
v 0.172411 0.052439 0.152038
v 0.152204 0.048520 0.168657
v 0.165896 0.063537 0.116704
v 0.155185 0.025663 0.167552
v 0.150437 0.025663 0.165951
v 0.164074 0.025000 0.157946
v 0.154578 0.026932 0.181465
v 0.138567 0.026932 0.100141
v 0.145689 0.028920 0.051943
v 0.145689 0.058292 0.052495
v 0.147456 0.061549 0.127967
v 0.140334 0.043937 0.191127
v 0.140334 0.029582 0.195930
v 0.152811 0.026325 0.174509
v 0.143923 0.026325 0.170258
v 0.146849 0.027595 0.182570
v 0.142708 0.028257 0.186821
v 0.142101 0.025663 0.165399
f 1 2 3
f 4 2 1
f 5 6 2
f 7 8 9
f 10 11 12
f 13 14 15
f 16 17 14
f 7 18 19
f 8 6 9
f 20 21 22
f 21 20 23
f 24 20 25
f 26 27 10
f 25 28 29
f 11 10 27
f 29 28 30
f 18 31 19
f 27 25 29
f 29 11 27
f 32 33 34
f 25 27 24
f 35 36 17
f 37 38 13
f 14 13 38
f 5 39 36
f 40 41 42
f 29 43 11
f 2 4 44
f 45 5 2
f 45 2 46
f 47 1 48
f 21 23 37
f 49 21 37
f 30 43 29
f 36 39 15
f 30 50 43
f 26 24 27
f 30 28 51
f 51 50 30
f 20 24 23
f 52 40 12
f 37 53 38
f 34 26 32
f 37 23 53
f 37 54 49
f 55 48 56
f 4 1 47
f 57 44 4
f 43 50 58
f 54 37 13
f 13 59 54
f 13 15 59
f 15 60 59
f 60 15 39
f 60 39 5
f 61 60 5
f 19 62 7
f 18 35 31
f 17 63 35
f 14 64 16
f 17 15 14
f 16 63 17
f 36 15 17
f 40 42 65
f 35 63 31
f 7 9 18
f 36 9 6
f 36 18 9
f 36 35 18
f 6 5 36
f 34 23 24
f 24 26 34
f 23 34 53
f 33 53 34
f 64 53 33
f 64 38 53
f 14 38 64
f 26 65 32
f 32 65 42
f 33 32 42
f 46 44 50
f 57 58 44
f 46 2 44
f 57 4 47
f 3 56 1
f 3 2 6
f 8 56 3
f 50 51 46
f 44 58 50
f 1 56 48
f 6 8 3
f 66 20 22
f 20 66 25
f 25 66 28
f 66 67 28
f 68 28 67
f 28 68 51
f 69 51 68
f 46 51 69
f 70 46 69
f 46 70 45
f 45 70 5
f 70 61 5
f 12 40 65
f 65 26 10
f 65 10 12
f 71 41 40
f 40 52 71
f 55 56 72
f 72 71 55
f 8 72 56
f 8 7 72
f 72 7 62
f 62 71 72
f 22 73 74
f 75 76 77
f 78 73 79
f 80 79 73
f 81 66 22
f 66 81 67
f 81 82 83
f 83 84 81
f 85 86 87
f 88 85 89
f 81 22 74
f 74 90 82
f 82 81 74
f 91 89 85
f 89 92 88
f 93 79 80
f 87 91 85
f 79 93 94
f 95 94 93
f 94 95 92
f 88 92 95
f 61 86 85
f 76 68 77
f 67 81 84
f 77 67 84
f 86 70 69
f 70 86 61
f 76 69 68
f 83 77 84
f 96 87 86
f 86 69 76
f 76 75 96
f 96 86 76
f 77 68 67
f 90 74 78
f 73 78 74
f 77 83 75
f 88 61 85
f 60 88 59
f 88 60 61
f 59 95 54
f 59 88 95
f 54 93 49
f 54 95 93
f 73 49 80
f 49 93 80
f 21 73 22
f 73 21 49
f 90 97 98
f 98 82 90
f 82 98 99
f 99 100 83
f 83 82 99
f 97 101 102
f 102 98 97
f 98 102 103
f 103 99 98
f 99 103 104
f 104 100 99
f 101 105 106
f 106 102 101
f 102 106 107
f 107 108 104
f 104 103 107
f 109 110 111
f 110 112 111
f 113 114 110
f 113 110 109
f 115 114 116
f 117 118 119
f 120 121 122
f 120 123 121
f 124 125 126
f 124 123 125
f 127 128 129
f 128 130 131
f 132 133 134
f 129 128 131
f 124 135 132
f 135 133 132
f 83 100 136
f 137 100 104
f 136 138 116
f 116 83 136
f 139 140 138
f 116 138 115
f 116 113 75
f 138 140 126
f 140 124 126
f 108 107 141
f 141 142 108
f 107 106 143
f 143 141 107
f 106 105 144
f 144 145 106
f 146 147 148
f 147 149 148
f 150 147 146
f 151 149 147
f 147 133 151
f 147 150 128
f 128 127 147
f 150 152 130
f 130 128 150
f 153 112 110
f 154 110 155
f 155 110 114
f 155 114 115
f 150 146 156
f 119 157 153
f 157 112 153
f 107 103 102
f 136 139 138
f 132 134 121
f 158 118 129
f 131 158 129
f 132 121 123
f 132 123 124
f 155 159 154
f 125 155 115
f 117 119 153
f 120 122 159
f 158 119 118
f 110 154 153
f 125 120 159
f 123 120 125
f 159 122 160
f 118 122 121
f 118 121 134
f 129 134 127
f 118 134 129
f 133 127 134
f 147 127 133
f 111 91 109
f 109 91 87
f 96 109 87
f 96 113 109
f 75 113 96
f 83 116 75
f 116 114 113
f 155 125 159
f 122 117 160
f 117 122 118
f 160 117 153
f 159 160 154
f 160 153 154
f 126 125 115
f 138 126 115
f 151 133 135
f 100 137 136
f 137 139 136
f 148 142 146
f 146 142 141
f 146 141 156
f 156 141 143
f 106 145 143
f 97 90 161
f 78 161 90
f 161 78 162
f 163 162 79
f 78 79 162
f 101 97 164
f 161 164 97
f 164 161 165
f 162 165 161
f 165 162 166
f 163 166 162
f 105 101 167
f 164 167 101
f 167 164 168
f 169 168 166
f 165 166 168
f 170 171 111
f 112 170 111
f 172 173 170
f 170 173 171
f 172 174 175
f 176 177 119
f 178 179 180
f 181 179 178
f 182 183 184
f 181 183 182
f 185 186 187
f 130 185 131
f 188 189 190
f 185 187 131
f 191 183 189
f 188 191 189
f 163 79 192
f 163 193 166
f 194 192 175
f 79 175 192
f 195 196 194
f 194 175 174
f 173 175 94
f 195 194 184
f 183 195 184
f 168 169 197
f 198 197 169
f 167 168 199
f 197 199 168
f 105 167 144
f 200 144 167
f 201 202 203
f 204 201 203
f 201 205 202
f 204 206 201
f 188 201 206
f 205 201 185
f 186 185 201
f 152 205 130
f 185 130 205
f 112 207 170
f 170 208 209
f 170 209 172
f 172 209 174
f 202 205 210
f 157 119 207
f 112 157 207
f 165 168 164
f 196 192 194
f 190 189 178
f 176 158 187
f 158 131 187
f 178 189 181
f 181 189 183
f 211 209 208
f 209 182 174
f 119 177 207
f 180 179 211
f 119 158 176
f 208 170 207
f 179 182 211
f 179 181 182
f 180 211 212
f 180 176 178
f 178 176 190
f 190 187 186
f 190 176 187
f 186 188 190
f 186 201 188
f 91 111 171
f 91 171 89
f 171 92 89
f 173 92 171
f 173 94 92
f 175 79 94
f 172 175 173
f 182 209 211
f 177 180 212
f 180 177 176
f 177 212 207
f 212 211 208
f 207 212 208
f 182 184 174
f 184 194 174
f 188 206 191
f 193 163 192
f 196 193 192
f 198 203 202
f 198 202 197
f 197 202 210
f 197 210 199
f 200 167 199
f 213 214 143
f 145 144 215
f 216 217 156
f 150 156 217
f 217 218 152
f 217 152 150
f 217 219 218
f 214 213 220
f 221 217 222
f 214 220 223
f 216 223 222
f 222 223 224
f 156 143 216
f 216 143 214
f 223 216 214
f 217 221 219
f 225 224 220
f 225 220 226
f 215 213 145
f 220 213 215
f 143 145 213
f 227 228 199
f 144 200 215
f 229 230 210
f 210 205 229
f 218 229 152
f 152 229 205
f 219 229 218
f 228 227 231
f 229 232 233
f 231 227 234
f 234 230 233
f 234 233 235
f 229 233 230
f 234 235 231
f 226 236 237
f 231 226 215
f 222 217 216
f 224 223 220
f 225 226 237
f 226 220 215
f 199 210 230
f 199 230 227
f 230 234 227
f 232 229 219
f 235 236 231
f 231 236 226
f 228 215 200
f 228 231 215
f 200 199 228
f 238 239 240
f 241 239 238
f 242 240 239
f 243 244 245
f 246 243 245
f 247 248 249
f 250 251 252
f 253 254 255
f 253 255 250
f 256 255 254
f 256 254 257
f 258 259 260
f 261 262 263
f 260 259 264
f 265 266 221
f 267 265 222
f 268 267 222
f 269 270 271
f 272 273 270
f 224 225 274
f 275 244 269
f 269 276 270
f 277 241 238
f 278 279 275
f 280 281 282
f 283 253 284
f 284 253 285
f 283 254 253
f 256 257 286
f 250 252 287
f 255 251 250
f 253 250 285
f 288 285 287
f 287 285 250
f 284 285 289
f 290 289 288
f 291 292 290
f 292 289 290
f 293 294 295
f 295 291 296
f 297 283 298
f 298 299 295
f 300 301 302
f 303 304 305
f 306 307 308
f 306 309 307
f 310 302 311
f 302 312 311
f 302 313 300
f 314 315 316
f 317 300 318
f 312 301 306
f 312 306 308
f 308 286 311
f 308 311 312
f 319 286 308
f 286 319 256
f 320 310 321
f 310 320 313
f 249 322 277
f 238 249 277
f 316 309 314
f 316 323 309
f 249 248 316
f 304 303 322
f 303 324 277
f 322 303 277
f 305 325 303
f 305 318 325
f 326 327 328
f 327 313 320
f 329 330 328
f 331 332 333
f 334 332 320
f 332 327 320
f 280 335 336
f 281 280 337
f 268 338 336
f 334 280 336
f 334 338 339
f 339 338 340
f 274 340 224
f 224 340 338
f 341 324 325
f 324 303 325
f 277 324 241
f 239 241 341
f 326 318 300
f 318 326 342
f 342 326 330
f 325 318 342
f 283 257 254
f 280 282 335
f 281 337 286
f 321 280 334
f 297 282 283
f 282 257 283
f 294 343 344
f 297 344 282
f 282 281 257
f 281 286 257
f 337 321 310
f 337 280 321
f 329 345 330
f 330 326 328
f 244 329 346
f 329 328 346
f 347 348 349
f 347 350 351
f 278 352 351
f 352 275 353
f 348 352 353
f 262 349 263
f 263 354 261
f 262 261 355
f 354 356 271
f 356 354 263
f 276 269 244
f 269 356 275
f 357 358 359
f 357 359 360
f 360 359 361
f 271 361 354
f 354 361 359
f 362 363 242
f 265 364 266
f 221 222 265
f 221 266 219
f 364 365 366
f 365 296 366
f 365 343 293
f 293 295 296
f 304 367 317
f 300 368 301
f 369 370 304
f 371 372 314
f 371 314 373
f 374 375 376
f 377 378 331
f 376 377 379
f 380 381 382
f 380 383 381
f 384 381 383
f 376 276 377
f 328 377 346
f 375 270 376
f 375 272 270
f 381 385 382
f 384 386 385
f 384 339 386
f 381 384 385
f 374 379 380
f 333 332 387
f 327 378 328
f 328 378 377
f 273 272 385
f 375 382 272
f 374 382 375
f 385 272 382
f 387 383 388
f 374 380 382
f 334 389 387
f 387 384 383
f 386 339 390
f 386 390 385
f 276 244 346
f 377 276 346
f 379 374 376
f 270 276 376
f 333 379 331
f 379 377 331
f 388 379 333
f 387 388 333
f 241 324 341
f 367 370 391
f 391 317 367
f 371 301 368
f 304 315 369
f 315 392 369
f 315 372 392
f 314 372 315
f 371 373 301
f 392 372 371
f 368 300 317
f 317 391 368
f 367 304 370
f 370 369 371
f 369 392 371
f 391 370 371
f 391 371 368
f 378 327 332
f 243 246 239
f 292 295 299
f 364 393 266
f 360 237 357
f 261 358 355
f 359 358 261
f 348 263 349
f 348 347 351
f 350 394 351
f 395 396 260
f 364 366 393
f 323 307 309
f 397 398 259
f 249 316 322
f 336 338 334
f 310 311 337
f 399 400 267
f 364 265 267
f 309 373 314
f 311 286 337
f 340 274 390
f 400 399 335
f 334 387 332
f 339 340 390
f 385 390 274
f 274 401 385
f 384 387 389
f 345 341 342
f 330 345 342
f 275 279 244
f 362 279 394
f 350 362 394
f 267 343 364
f 298 294 297
f 251 255 402
f 343 365 364
f 388 380 379
f 331 378 332
f 270 273 271
f 401 273 385
f 247 238 240
f 316 315 322
f 302 310 313
f 256 319 403
f 308 307 319
f 248 323 316
f 259 398 264
f 260 396 402
f 396 251 402
f 292 291 295
f 282 344 335
f 289 299 404
f 405 397 259
f 307 405 319
f 341 345 243
f 342 341 325
f 238 247 249
f 239 341 243
f 380 388 383
f 334 339 389
f 268 224 338
f 389 339 384
f 312 302 301
f 305 317 318
f 306 301 373
f 406 407 408
f 409 410 406
f 236 235 411
f 373 309 306
f 412 413 407
f 414 407 406
f 415 416 417
f 418 419 413
f 420 421 422
f 423 415 424
f 425 426 427
f 428 429 430
f 431 432 433
f 393 434 266
f 237 435 357
f 358 436 355
f 358 437 436
f 438 439 349
f 347 439 440
f 441 350 440
f 396 395 442
f 366 434 393
f 443 323 444
f 398 445 446
f 447 448 449
f 450 451 452
f 453 454 455
f 456 457 458
f 459 434 458
f 460 444 461
f 462 453 455
f 411 463 464
f 457 456 465
f 466 452 427
f 463 467 464
f 464 468 411
f 469 411 468
f 466 470 471
f 424 472 473
f 472 474 473
f 418 413 412
f 418 475 441
f 475 350 441
f 476 458 434
f 477 478 479
f 480 251 481
f 482 476 434
f 483 484 485
f 426 486 427
f 409 406 408
f 409 469 468
f 417 247 240
f 487 447 449
f 454 488 489
f 490 491 492
f 443 493 490
f 323 248 447
f 398 446 264
f 396 442 481
f 251 396 481
f 291 432 431
f 494 422 465
f 433 495 496
f 445 497 446
f 497 443 490
f 472 424 429
f 424 473 498
f 247 417 448
f 424 430 429
f 484 483 499
f 467 452 471
f 235 500 450
f 467 471 470
f 233 500 235
f 458 476 456
f 487 449 501
f 502 501 503
f 418 412 504
f 418 504 475
f 505 413 506
f 413 419 507
f 408 407 505
f 409 408 508
f 260 509 258
f 509 256 403
f 456 476 494
f 465 456 494
f 237 469 435
f 469 237 411
f 411 237 236
f 319 405 403
f 405 259 258
f 435 469 409
f 508 435 409
f 510 436 437
f 439 438 505
f 439 505 506
f 507 440 439
f 441 440 419
f 418 441 419
f 475 363 350
f 475 504 428
f 428 430 242
f 475 428 242
f 398 323 445
f 495 511 496
f 512 491 480
f 433 496 513
f 431 478 477
f 478 433 513
f 514 495 288
f 433 432 495
f 513 496 511
f 445 443 497
f 445 323 443
f 481 442 512
f 481 512 480
f 264 442 395
f 446 515 442
f 268 222 224
f 262 436 438
f 446 442 264
f 266 459 232
f 459 458 233
f 458 500 233
f 343 267 400
f 488 516 517
f 502 503 518
f 517 519 460
f 444 460 519
f 512 442 515
f 491 512 492
f 497 490 492
f 446 497 515
f 515 492 512
f 497 492 515
f 489 520 521
f 489 521 425
f 472 429 522
f 522 429 412
f 500 457 451
f 452 523 524
f 458 457 500
f 451 457 465
f 525 482 296
f 479 494 477
f 525 477 476
f 430 417 240
f 430 415 417
f 240 242 430
f 412 429 504
f 429 428 504
f 248 247 448
f 251 526 252
f 527 528 480
f 480 528 526
f 480 491 527
f 527 491 529
f 322 315 304
f 304 317 305
f 244 279 245
f 245 279 362
f 275 356 353
f 278 275 352
f 269 271 356
f 271 273 361
f 403 258 509
f 403 405 258
f 343 400 344
f 400 335 344
f 401 237 360
f 237 401 274
f 237 274 225
f 300 313 326
f 326 313 327
f 401 360 273
f 360 361 273
f 261 354 359
f 263 348 356
f 356 348 353
f 351 352 348
f 351 394 278
f 394 279 278
f 363 362 350
f 245 362 246
f 239 246 242
f 246 362 242
f 323 398 397
f 284 289 404
f 256 509 255
f 404 299 283
f 298 295 294
f 299 298 283
f 289 285 288
f 292 299 289
f 404 283 284
f 307 397 405
f 323 397 307
f 260 402 509
f 509 402 255
f 243 345 329
f 243 329 244
f 399 268 336
f 528 513 511
f 528 511 514
f 527 513 528
f 529 491 462
f 252 526 287
f 251 480 526
f 526 528 514
f 514 288 287
f 514 287 526
f 514 511 495
f 495 290 288
f 432 291 290
f 495 432 290
f 477 525 431
f 291 431 296
f 513 479 478
f 433 478 431
f 517 520 488
f 501 530 503
f 443 519 493
f 444 519 443
f 488 454 453
f 516 488 453
f 489 488 520
f 487 461 447
f 520 502 518
f 517 516 519
f 519 516 493
f 462 493 453
f 453 493 516
f 462 490 493
f 490 462 491
f 454 524 523
f 524 454 489
f 449 448 416
f 448 417 416
f 444 447 461
f 323 447 444
f 248 448 447
f 530 501 449
f 423 530 416
f 530 449 416
f 498 503 530
f 518 503 498
f 425 521 531
f 489 425 524
f 474 522 531
f 427 486 532
f 427 452 524
f 425 427 524
f 465 421 451
f 421 420 455
f 450 500 451
f 421 452 451
f 450 452 467
f 450 467 463
f 463 411 235
f 463 235 450
f 423 424 498
f 530 423 498
f 423 416 415
f 415 430 424
f 518 521 520
f 521 518 473
f 521 473 474
f 518 498 473
f 529 513 527
f 422 421 465
f 455 420 462
f 421 523 452
f 422 479 513
f 529 422 513
f 476 477 494
f 494 479 422
f 420 422 529
f 462 420 529
f 523 455 454
f 421 455 523
f 472 522 474
f 521 474 531
f 522 412 533
f 531 522 533
f 439 347 349
f 350 347 440
f 507 419 440
f 413 507 506
f 507 439 506
f 349 262 438
f 510 438 436
f 436 262 355
f 505 510 408
f 510 505 438
f 407 414 412
f 505 407 413
f 358 357 437
f 437 357 435
f 437 435 508
f 508 408 510
f 508 510 437
f 363 475 242
f 434 459 266
f 233 232 459
f 321 334 320
f 266 232 219
f 482 434 366
f 296 482 366
f 476 482 525
f 431 525 296
f 534 501 502
f 535 520 517
f 536 537 501
f 538 539 461
f 461 539 460
f 540 541 542
f 426 543 486
f 543 542 485
f 544 483 545
f 499 483 544
f 544 470 499
f 414 542 543
f 543 531 533
f 406 540 542
f 410 540 406
f 468 544 545
f 546 470 468
f 467 470 546
f 470 544 468
f 485 541 483
f 427 532 466
f 426 425 531
f 426 531 543
f 410 409 468
f 545 540 410
f 545 541 540
f 410 468 545
f 499 466 484
f 483 541 545
f 471 452 466
f 470 466 499
f 467 546 464
f 464 546 468
f 412 414 533
f 414 543 533
f 541 485 542
f 414 406 542
f 485 532 486
f 543 485 486
f 485 484 532
f 484 466 532
f 399 267 268
f 399 336 335
f 365 293 296
f 344 297 294
f 260 264 395
f 294 293 343
f 536 534 547
f 502 547 534
f 517 539 535
f 487 501 537
f 548 487 537
f 538 487 548
f 538 461 487
f 460 539 517
f 538 548 539
f 520 535 502
f 547 502 535
f 501 534 536
f 537 536 539
f 548 537 539
f 536 547 539
f 539 547 535
f 549 550 151
f 108 551 552
f 149 550 553
f 553 148 149
f 550 149 151
f 554 555 556
f 139 557 558
f 559 560 557
f 561 562 563
f 563 551 553
f 142 553 551
f 554 552 551
f 563 564 554
f 554 551 563
f 556 552 554
f 556 137 552
f 135 124 565
f 565 140 558
f 560 566 558
f 565 558 567
f 567 566 568
f 569 570 571
f 572 573 574
f 574 573 575
f 576 577 578
f 566 560 579
f 578 580 581
f 579 582 583
f 584 581 580
f 562 585 586
f 587 585 568
f 579 577 588
f 586 589 570
f 586 570 569
f 569 564 562
f 569 562 586
f 579 583 577
f 579 588 566
f 582 559 590
f 582 560 559
f 590 559 555
f 590 555 591
f 592 583 593
f 574 594 595
f 574 595 571
f 574 571 572
f 596 597 572
f 572 571 570
f 580 577 583
f 580 583 592
f 578 581 598
f 598 599 600
f 596 570 589
f 596 589 600
f 569 591 564
f 571 591 569
f 555 564 591
f 590 595 593
f 593 595 594
f 575 601 594
f 593 594 592
f 592 601 584
f 568 566 588
f 577 576 588
f 568 588 587
f 587 576 589
f 578 600 576
f 598 600 578
f 589 576 600
f 596 599 597
f 554 564 555
f 561 553 550
f 555 559 556
f 563 553 561
f 549 151 135
f 563 562 564
f 549 561 550
f 567 602 549
f 602 561 549
f 557 560 558
f 148 553 142
f 552 104 108
f 565 124 140
f 557 556 559
f 566 567 558
f 142 551 108
f 561 602 562
f 602 568 585
f 562 602 585
f 590 593 582
f 593 583 582
f 567 549 565
f 549 135 565
f 590 591 595
f 591 571 595
f 586 585 587
f 586 587 589
f 582 579 560
f 576 587 588
f 592 584 580
f 574 575 594
f 601 592 594
f 572 570 596
f 572 597 573
f 580 578 577
f 599 596 600
f 602 567 568
f 558 140 139
f 556 139 137
f 556 557 139
f 104 552 137
f 603 604 605
f 599 598 606
f 607 608 609
f 603 607 609
f 606 610 609
f 611 612 613
f 611 613 604
f 614 615 616
f 608 607 617
f 597 599 618
f 608 619 618
f 597 618 620
f 620 619 615
f 615 619 621
f 615 621 616
f 616 621 622
f 616 622 623
f 624 625 626
f 625 627 626
f 624 605 628
f 605 629 628
f 630 631 632
f 633 627 634
f 634 631 623
f 635 630 632
f 633 634 622
f 626 627 633
f 623 631 630
f 632 629 635
f 614 616 636
f 619 617 621
f 630 636 623
f 609 637 603
f 610 606 598
f 620 573 597
f 606 608 618
f 620 615 638
f 612 639 638
f 639 601 575
f 573 639 575
f 606 609 608
f 629 605 635
f 624 628 625
f 606 618 599
f 622 634 623
f 640 581 584
f 640 584 641
f 610 581 640
f 610 598 581
f 623 636 616
f 633 622 621
f 633 621 617
f 635 604 613
f 636 635 613
f 624 607 603
f 624 603 605
f 626 607 624
f 626 617 607
f 619 620 618
f 573 638 639
f 638 614 612
f 612 614 636
f 612 636 613
f 636 630 635
f 619 608 617
f 626 633 617
f 639 641 601
f 612 641 639
f 640 637 610
f 637 609 610
f 640 641 611
f 641 612 611
f 638 573 620
f 638 615 614
f 584 601 641
f 640 611 637
f 637 611 604
f 637 604 603
f 635 605 604
f 642 643 644
f 645 644 643
f 646 629 647
f 632 647 629
f 645 646 648
f 644 645 649
f 648 649 645
f 647 632 650
f 648 647 651
f 649 648 652
f 650 632 653
f 651 650 654
f 653 654 650
f 652 651 655
f 654 655 651
f 656 657 658
f 659 658 657
f 660 661 657
f 656 660 657
f 662 663 664
f 665 664 663
f 666 667 663
f 662 666 663
f 668 669 670
f 671 670 669
f 672 673 669
f 668 672 669
f 674 675 676
f 677 676 675
f 678 679 675
f 674 678 675
f 680 681 682
f 683 682 681
f 684 680 685
f 682 685 680
f 685 627 684
f 682 683 686
f 687 686 683
f 685 682 688
f 686 688 682
f 688 627 685
f 686 687 689
f 690 689 687
f 688 686 691
f 689 691 686
f 627 688 634
f 691 634 688
f 689 690 692
f 693 692 690
f 689 692 691
f 694 691 692
f 694 634 691
f 695 642 696
f 696 697 695
f 695 697 698
f 697 699 698
f 642 644 700
f 644 701 702
f 702 700 644
f 698 699 703
f 699 704 703
f 703 704 702
f 702 701 703
f 644 649 705
f 705 706 644
f 701 644 706
f 706 707 701
f 649 708 709
f 709 705 649
f 701 707 710
f 707 711 710
f 710 711 712
f 711 713 712
f 712 713 709
f 709 708 712
f 649 652 714
f 714 715 649
f 708 649 715
f 715 716 708
f 652 717 718
f 718 714 652
f 708 716 719
f 716 720 719
f 719 720 721
f 720 722 721
f 721 722 718
f 718 717 721
f 655 723 724
f 724 725 655
f 726 727 724
f 724 723 726
f 652 655 725
f 725 728 652
f 717 652 728
f 728 729 717
f 717 729 730
f 729 731 730
f 730 731 726
f 653 732 733
f 733 734 653
f 654 653 734
f 735 654 736
f 736 737 735
f 732 694 738
f 738 733 732
f 692 735 737
f 737 739 692
f 694 692 739
f 739 738 694
f 697 696 740
f 740 741 697
f 700 702 742
f 742 743 700
f 696 700 743
f 697 741 744
f 741 745 744
f 744 745 746
f 745 747 746
f 746 747 742
f 742 702 746
f 741 740 659
f 659 748 741
f 743 742 656
f 656 658 743
f 740 743 658
f 658 659 740
f 745 741 748
f 748 661 745
f 747 745 661
f 661 660 747
f 742 747 660
f 660 656 742
f 707 706 749
f 749 750 707
f 705 709 751
f 751 752 705
f 706 705 752
f 707 750 753
f 750 754 753
f 753 754 755
f 755 756 751
f 751 709 755
f 750 749 665
f 665 757 750
f 752 751 662
f 749 752 664
f 664 665 749
f 754 750 757
f 757 667 754
f 756 754 667
f 667 666 756
f 751 756 666
f 666 662 751
f 716 715 758
f 758 759 716
f 714 718 760
f 760 761 714
f 715 714 761
f 716 759 762
f 759 763 762
f 762 763 764
f 763 765 764
f 764 765 760
f 760 718 764
f 759 758 671
f 671 766 759
f 761 760 668
f 668 670 761
f 758 761 670
f 670 671 758
f 763 759 766
f 765 763 673
f 673 672 765
f 760 765 672
f 672 668 760
f 729 728 767
f 767 768 729
f 725 724 769
f 728 725 770
f 729 768 771
f 768 772 771
f 771 772 773
f 773 774 769
f 769 724 773
f 768 767 677
f 677 775 768
f 770 769 674
f 674 676 770
f 767 770 676
f 676 677 767
f 772 768 775
f 775 679 772
f 774 772 679
f 679 678 774
f 769 774 678
f 678 674 769
f 736 734 776
f 776 777 736
f 737 736 777
f 777 778 737
f 734 733 779
f 739 737 778
f 778 780 739
f 738 739 780
f 780 781 738
f 733 738 781
f 777 776 782
f 782 783 777
f 778 777 783
f 783 784 778
f 776 779 785
f 785 782 776
f 780 778 784
f 784 786 780
f 781 780 786
f 786 787 781
f 779 781 787
f 787 785 779
f 695 681 788
f 647 648 646
f 650 651 647
f 651 652 648
f 700 696 642
f 731 727 726
f 734 736 654
f 743 740 696
f 752 749 706
f 754 756 755
f 662 664 752
f 761 758 715
f 766 673 763
f 769 770 725
f 770 767 728
f 772 774 773
f 779 776 734
f 781 779 733
f 628 646 625
f 773 724 727
f 773 727 771
f 771 731 729
f 771 727 731
f 726 723 693
f 726 693 730
f 730 690 717
f 730 693 690
f 721 690 719
f 721 717 690
f 719 687 708
f 719 690 687
f 764 722 762
f 764 718 722
f 762 720 716
f 762 722 720
f 677 675 775
f 775 675 679
f 671 669 766
f 766 669 673
f 665 663 757
f 757 663 667
f 659 657 748
f 748 657 661
f 755 709 713
f 755 713 753
f 753 711 707
f 753 713 711
f 783 782 789
f 789 786 784
f 746 704 744
f 746 702 704
f 744 699 697
f 744 704 699
f 703 683 698
f 703 701 683
f 698 681 695
f 698 683 681
f 710 683 701
f 710 687 683
f 712 687 710
f 712 708 687
f 790 791 625
f 791 790 788
f 643 788 790
f 788 643 695
f 642 695 643
f 627 625 684
f 791 684 625
f 684 791 680
f 788 680 791
f 680 788 681
f 653 632 732
f 631 732 632
f 784 783 789
f 785 789 782
f 655 654 723
f 735 723 654
f 732 631 694
f 634 694 631
f 786 789 787
f 785 787 789
f 723 735 693
f 692 693 735
f 790 625 646
f 629 646 628
f 643 790 645
f 646 645 790
f 792 793 794
f 794 795 792
f 795 794 796
f 796 797 795
f 793 798 799
f 794 799 800
f 794 800 801
f 12 802 803
f 11 804 802
f 43 805 804
f 806 807 808
f 809 810 811
f 811 812 809
f 810 813 814
f 814 811 810
f 812 811 806
f 808 815 806
f 811 814 816
f 817 808 807
f 812 818 819
f 817 820 821
f 822 816 814
f 818 806 815
f 803 823 824
f 802 825 823
f 804 826 825
f 827 48 55
f 805 821 826
f 828 803 829
f 807 816 817
f 827 817 830
f 817 821 831
f 58 57 830
f 815 832 829
f 52 12 803
f 52 828 71
f 823 798 824
f 825 799 823
f 826 800 825
f 821 801 826
f 830 57 47
f 819 798 793
f 798 818 829
f 808 827 832
f 817 827 808
f 812 806 818
f 832 828 829
f 799 798 823
f 799 794 793
f 800 799 825
f 801 800 826
f 801 796 794
f 806 811 807
f 807 811 816
f 820 801 821
f 820 822 796
f 798 829 824
f 816 820 817
f 818 815 829
f 803 802 823
f 11 802 12
f 802 804 825
f 43 804 11
f 804 805 826
f 797 796 822
f 822 833 797
f 796 801 820
f 58 831 805
f 52 803 828
f 819 818 798
f 793 792 834
f 834 819 793
f 832 827 55
f 48 827 47
f 808 832 815
f 830 47 827
f 58 805 43
f 805 831 821
f 829 803 824
f 831 58 830
f 832 71 828
f 819 834 809
f 809 812 819
f 833 822 814
f 814 813 833
f 822 820 816
f 55 71 832
f 831 830 817
f 835 836 837
f 837 838 839
f 840 841 842
f 843 844 845
f 844 836 846
f 847 835 848
f 849 850 840
f 851 852 839
f 838 837 836
f 837 848 835
f 851 839 838
f 849 853 837
f 854 855 848
f 809 855 810
f 856 854 853
f 840 856 849
f 857 836 844
f 836 857 838
f 838 858 851
f 838 857 858
f 859 860 843
f 845 861 859
f 859 861 841
f 795 862 863
f 797 864 862
f 848 837 853
f 837 839 849
f 848 853 854
f 853 849 856
f 813 810 854
f 795 863 792
f 863 862 865
f 797 862 795
f 862 864 842
f 833 864 797
f 864 866 840
f 847 863 867
f 863 868 834
f 848 868 847
f 834 855 809
f 813 856 833
f 861 845 865
f 843 845 859
f 841 861 842
f 859 841 869
f 850 841 840
f 869 850 852
f 846 845 844
f 860 859 869
f 870 869 852
f 860 869 870
f 871 852 851
f 870 852 871
f 871 851 872
f 851 858 872
f 846 847 867
f 846 835 847
f 839 850 849
f 866 833 856
f 873 843 874
f 843 860 874
f 857 844 873
f 865 845 867
f 842 861 865
f 869 841 850
f 833 866 864
f 847 868 863
f 863 865 867
f 862 842 865
f 854 810 855
f 856 813 854
f 864 840 842
f 863 834 792
f 855 868 848
f 873 844 843
f 867 845 846
f 836 835 846
f 852 850 839
f 834 868 855
f 840 866 856
f 875 876 857
f 876 858 857
f 877 858 876
f 877 872 858
f 878 872 877
f 878 879 872
f 880 881 882
f 881 880 883
f 881 883 884
f 883 878 884
f 882 885 886
f 882 881 885
f 886 885 887
f 888 886 887
f 889 890 891
f 891 888 887
f 892 893 894
f 888 893 892
f 895 894 896
f 896 894 893
f 895 897 894
f 898 897 895
f 899 879 900
f 899 871 879
f 901 900 902
f 900 901 903
f 875 902 904
f 902 900 904
f 903 905 899
f 900 903 899
f 906 907 875
f 873 906 875
f 884 894 897
f 881 884 897
f 879 883 880
f 908 899 905
f 901 905 903
f 884 892 894
f 892 884 878
f 879 878 883
f 870 871 908
f 899 908 871
f 900 879 880
f 909 890 896
f 887 889 891
f 909 891 890
f 904 882 875
f 875 882 886
f 910 907 906
f 902 875 907
f 888 891 893
f 888 876 886
f 875 886 876
f 874 910 873
f 906 873 910
f 911 912 885
f 912 913 889
f 900 880 904
f 904 880 882
f 914 901 907
f 907 901 902
f 910 915 914
f 907 910 914
f 874 860 910
f 915 910 860
f 888 892 877
f 888 877 876
f 896 893 909
f 893 891 909
f 895 896 890
f 873 875 857
f 879 871 872
f 908 860 870
f 877 892 878
f 901 914 905
f 912 911 916
f 905 914 915
f 889 913 890
f 917 918 898
f 890 913 895
f 889 887 885
f 889 885 912
f 919 911 885
f 919 916 911
f 912 916 913
f 916 919 918
f 897 898 919
f 885 881 919
f 918 917 913
f 916 918 913
f 898 918 919
f 917 898 913
f 897 919 881
f 898 895 913
f 905 915 908
f 915 860 908
f 920 921 922
f 923 924 925
f 925 924 926
f 927 928 929
f 930 929 931
f 922 932 933
f 933 932 931
f 934 935 936
f 934 920 935
f 936 937 934
f 938 939 940
f 938 940 941
f 942 943 941
f 941 940 926
f 942 926 944
f 945 946 947
f 948 923 947
f 947 946 949
f 948 949 933
f 931 928 948
f 931 929 928
f 948 933 931
f 930 932 950
f 951 203 198
f 206 952 191
f 940 939 953
f 925 940 953
f 934 939 938
f 920 934 938
f 954 955 949
f 949 955 933
f 956 953 957
f 949 948 947
f 944 926 924
f 943 958 941
f 926 942 941
f 922 921 932
f 950 921 959
f 928 924 923
f 932 930 931
f 922 935 920
f 959 921 958
f 959 958 943
f 960 166 193
f 961 198 169
f 166 960 169
f 183 962 195
f 963 952 206
f 183 191 962
f 961 169 960
f 963 204 951
f 203 951 204
f 204 963 206
f 937 964 965
f 966 937 965
f 951 967 968
f 969 967 936
f 970 971 952
f 968 970 952
f 965 972 966
f 971 945 973
f 970 968 969
f 191 952 962
f 971 970 946
f 195 973 196
f 196 965 193
f 972 965 196
f 923 948 928
f 957 945 956
f 924 928 927
f 953 956 925
f 927 944 924
f 954 969 955
f 954 949 946
f 923 956 947
f 933 955 922
f 951 198 961
f 936 967 964
f 936 964 937
f 951 968 963
f 968 952 963
f 946 970 954
f 970 969 954
f 957 972 973
f 952 971 962
f 972 196 973
f 957 966 972
f 969 968 967
f 961 967 951
f 960 964 961
f 961 964 967
f 960 965 964
f 193 965 960
f 922 955 935
f 195 962 973
f 945 957 973
f 973 962 971
f 945 971 946
f 936 935 969
f 969 935 955
f 925 956 923
f 947 956 945
f 966 953 939
f 957 953 966
f 966 939 937
f 937 939 934
f 925 926 940
f 941 958 938
f 938 958 920
f 920 958 921
f 950 932 921
f 974 959 975
f 976 974 977
f 976 977 978
f 978 977 979
f 980 978 981
f 982 983 984
f 985 986 984
f 929 930 987
f 988 989 990
f 927 991 944
f 944 991 992
f 927 993 991
f 929 993 927
f 978 994 995
f 996 985 997
f 997 985 984
f 988 981 979
f 930 950 998
f 983 982 998
f 998 950 999
f 983 999 1000
f 983 1000 997
f 997 1000 995
f 997 995 996
f 996 995 994
f 1001 1002 986
f 1003 1001 986
f 990 1002 1004
f 1005 990 1004
f 1006 980 1007
f 1003 985 1008
f 1006 1008 994
f 982 1009 1010
f 980 981 1007
f 993 987 1010
f 1008 985 996
f 990 1005 981
f 1004 1002 1001
f 1003 986 985
f 1008 996 994
f 1006 994 980
f 1005 1007 981
f 995 976 978
f 981 978 979
f 1009 1002 989
f 989 1002 990
f 1009 986 1002
f 984 986 1009
f 959 999 950
f 982 987 998
f 1000 999 974
f 975 977 974
f 942 975 943
f 975 959 943
f 1010 987 982
f 998 987 930
f 992 975 942
f 992 977 975
f 942 944 992
f 1011 991 1012
f 1012 991 993
f 1010 1012 993
f 992 991 1011
f 977 992 1011
f 959 974 999
f 1000 974 976
f 987 993 929
f 999 983 998
f 1012 1010 989
f 1009 989 1010
f 977 1011 979
f 979 1011 988
f 1000 976 995
f 1009 982 984
f 984 983 997
f 978 980 994
f 1011 1012 988
f 988 1012 989
f 990 981 988
f 1013 1014 1001
f 1014 1013 1015
f 1015 1016 1014
f 1016 1015 1017
f 1017 1018 1016
f 1001 1003 1019
f 1019 1013 1001
f 1013 1019 1020
f 1020 1015 1013
f 1015 1020 1021
f 1007 1022 1023
f 1023 1006 1007
f 1024 1025 1026
f 1026 1027 1028
f 1029 1030 1031
f 1031 1032 1029
f 1006 1023 1033
f 1033 1008 1006
f 1026 1034 1035
f 1035 1027 1026
f 1032 1031 1036
f 1036 1037 1032
f 1001 1014 1038
f 1038 1005 1004
f 1014 1016 1039
f 1039 1038 1014
f 1016 1018 1040
f 1040 1039 1016
f 1005 1038 1041
f 1041 1007 1005
f 1038 1039 1042
f 1039 1040 1043
f 1043 1042 1039
f 1007 1041 1044
f 1041 1042 1045
f 1042 1043 1046
f 1007 1044 1022
f 1044 1045 1029
f 1029 1022 1044
f 1045 1046 1030
f 1030 1029 1045
f 1047 1048 1049
f 1049 1050 1047
f 1051 1052 1047
f 1052 1048 1047
f 1053 1054 1055
f 1055 1056 1053
f 1057 1058 1053
f 1058 1054 1053
f 1059 1060 1061
f 1061 1062 1059
f 1063 1064 1059
f 1064 1060 1059
f 1065 1066 1067
f 1067 1068 1065
f 1069 1070 1065
f 1070 1066 1065
f 1021 1020 1071
f 1071 1072 1021
f 1020 1019 1073
f 1073 1071 1020
f 1003 1073 1019
f 1072 1071 1074
f 1074 1075 1072
f 1071 1073 1076
f 1076 1074 1071
f 1003 1076 1073
f 1075 1074 1077
f 1077 1078 1075
f 1074 1076 1079
f 1079 1077 1074
f 1076 1003 1008
f 1008 1079 1076
f 1078 1077 1037
f 1037 1036 1078
f 1037 1077 1079
f 1079 1033 1037
f 1008 1033 1079
f 1018 1017 1080
f 1081 1080 1017
f 1081 1017 1082
f 1083 1081 1082
f 1040 1018 1084
f 1085 1040 1086
f 1084 1086 1040
f 1083 1082 1087
f 1088 1083 1087
f 1088 1087 1086
f 1085 1086 1087
f 1043 1040 1089
f 1090 1089 1040
f 1040 1085 1090
f 1091 1090 1085
f 1092 1043 1093
f 1089 1093 1043
f 1091 1085 1094
f 1095 1091 1094
f 1095 1094 1096
f 1097 1095 1096
f 1097 1096 1093
f 1092 1093 1096
f 1046 1043 1098
f 1099 1098 1043
f 1043 1092 1099
f 1100 1099 1092
f 1101 1046 1102
f 1098 1102 1046
f 1100 1092 1103
f 1104 1100 1103
f 1104 1103 1105
f 1106 1104 1105
f 1106 1105 1102
f 1101 1102 1105
f 1031 1030 1107
f 1108 1107 1030
f 1109 1110 1107
f 1031 1107 1110
f 1030 1046 1108
f 1111 1108 1046
f 1046 1101 1111
f 1112 1111 1101
f 1112 1101 1113
f 1114 1112 1113
f 1114 1113 1110
f 1023 1022 1115
f 1116 1115 1022
f 1022 1029 1116
f 1029 1032 1117
f 1118 1117 1032
f 1033 1023 1119
f 1115 1119 1023
f 1032 1037 1118
f 1120 1118 1037
f 1037 1033 1120
f 1119 1120 1033
f 1080 1081 1121
f 1122 1121 1081
f 1086 1084 1123
f 1124 1123 1084
f 1084 1080 1124
f 1122 1081 1125
f 1126 1122 1125
f 1126 1125 1127
f 1128 1126 1127
f 1128 1127 1123
f 1086 1123 1127
f 1121 1122 1050
f 1129 1050 1122
f 1123 1124 1048
f 1049 1048 1124
f 1124 1121 1049
f 1050 1049 1121
f 1122 1126 1129
f 1051 1129 1126
f 1126 1128 1051
f 1052 1051 1128
f 1128 1123 1052
f 1048 1052 1123
f 1090 1091 1130
f 1131 1130 1091
f 1093 1089 1132
f 1133 1132 1089
f 1089 1090 1133
f 1131 1091 1134
f 1135 1131 1134
f 1135 1134 1136
f 1137 1136 1132
f 1093 1132 1136
f 1130 1131 1056
f 1138 1056 1131
f 1132 1133 1054
f 1133 1130 1055
f 1056 1055 1130
f 1131 1135 1138
f 1057 1138 1135
f 1135 1137 1057
f 1058 1057 1137
f 1137 1132 1058
f 1054 1058 1132
f 1099 1100 1139
f 1140 1139 1100
f 1102 1098 1141
f 1142 1141 1098
f 1098 1099 1142
f 1140 1100 1143
f 1144 1140 1143
f 1144 1143 1145
f 1146 1144 1145
f 1146 1145 1141
f 1102 1141 1145
f 1139 1140 1062
f 1147 1062 1140
f 1141 1142 1060
f 1061 1060 1142
f 1142 1139 1061
f 1062 1061 1139
f 1140 1144 1147
f 1144 1146 1063
f 1064 1063 1146
f 1146 1141 1064
f 1060 1064 1141
f 1111 1112 1148
f 1149 1148 1112
f 1107 1108 1150
f 1108 1111 1151
f 1149 1112 1152
f 1153 1149 1152
f 1153 1152 1154
f 1155 1154 1150
f 1107 1150 1154
f 1148 1149 1068
f 1156 1068 1149
f 1150 1151 1066
f 1067 1066 1151
f 1151 1148 1067
f 1068 1067 1148
f 1149 1153 1156
f 1069 1156 1153
f 1153 1155 1069
f 1070 1069 1155
f 1155 1150 1070
f 1066 1070 1150
f 1116 1117 1157
f 1158 1157 1117
f 1117 1118 1158
f 1159 1158 1118
f 1115 1116 1160
f 1118 1120 1159
f 1161 1159 1120
f 1120 1119 1161
f 1162 1161 1119
f 1119 1115 1162
f 1157 1158 1028
f 1024 1028 1158
f 1158 1159 1024
f 1025 1024 1159
f 1160 1157 1027
f 1028 1027 1157
f 1159 1161 1025
f 1034 1025 1161
f 1161 1162 1034
f 1035 1034 1162
f 1162 1160 1035
f 1027 1035 1160
f 1021 1017 1015
f 1042 1041 1038
f 1045 1044 1041
f 1046 1045 1042
f 1080 1084 1018
f 1109 1114 1110
f 1117 1116 1029
f 1121 1124 1080
f 1130 1133 1090
f 1137 1135 1136
f 1055 1054 1133
f 1139 1142 1099
f 1063 1147 1144
f 1151 1150 1108
f 1148 1151 1111
f 1155 1153 1154
f 1157 1160 1116
f 1160 1162 1115
f 1038 1004 1001
f 1107 1154 1109
f 1109 1154 1152
f 1114 1152 1112
f 1109 1152 1114
f 1031 1110 1036
f 1036 1110 1113
f 1078 1113 1101
f 1036 1113 1078
f 1078 1105 1103
f 1101 1105 1078
f 1075 1103 1092
f 1078 1103 1075
f 1106 1145 1143
f 1102 1145 1106
f 1104 1143 1100
f 1106 1143 1104
f 1065 1068 1156
f 1065 1156 1069
f 1059 1062 1147
f 1059 1147 1063
f 1053 1056 1138
f 1053 1138 1057
f 1047 1050 1129
f 1047 1129 1051
f 1093 1136 1097
f 1097 1136 1134
f 1095 1134 1091
f 1097 1134 1095
f 1028 1024 1026
f 1034 1026 1025
f 1088 1127 1125
f 1086 1127 1088
f 1083 1125 1081
f 1088 1125 1083
f 1072 1087 1082
f 1085 1087 1072
f 1021 1082 1017
f 1072 1082 1021
f 1072 1094 1085
f 1075 1094 1072
f 1075 1096 1094
f 1092 1096 1075
f 1163 1164 1165
f 1166 1165 1164
f 1165 1166 1167
f 1168 1167 1166
f 1169 1163 1170
f 1170 1165 1171
f 1171 1165 1172
f 1173 42 1174
f 1175 33 1173
f 1176 64 1175
f 1177 1178 1179
f 1180 1179 1178
f 1181 1177 1182
f 1179 1182 1177
f 1179 1180 1183
f 1184 1185 1183
f 1182 1179 1186
f 1185 1187 1188
f 1189 1185 1190
f 1189 1187 1185
f 1167 1168 1191
f 1192 1191 1168
f 1172 1167 1193
f 1194 16 1176
f 1174 41 1195
f 1196 1197 1169
f 1164 1163 1198
f 1197 1198 1163
f 1198 1197 1178
f 1180 1178 1197
f 1191 1192 1182
f 1181 1182 1192
f 1193 1191 1186
f 71 62 1190
f 1199 1194 1187
f 1183 1180 1196
f 1195 1190 1200
f 1169 1170 1201
f 1165 1170 1163
f 1170 1171 1202
f 1171 1172 1203
f 1167 1172 1165
f 1179 1183 1188
f 1179 1188 1186
f 1172 1193 1204
f 1191 1193 1167
f 1200 1169 1205
f 1193 1186 1187
f 1184 1196 1200
f 1173 1174 1201
f 1173 33 42
f 1175 1173 1202
f 1175 64 33
f 1176 1175 1203
f 1189 1190 62
f 1189 19 31
f 1190 1185 1184
f 31 1199 1189
f 1176 16 64
f 1194 1176 1204
f 1174 1200 1205
f 16 1194 1199
f 71 1190 1195
f 42 41 1174
f 1188 1183 1185
f 1186 1188 1187
f 1187 1189 1199
f 1204 1187 1194
f 63 16 1199
f 1190 1184 1200
f 1195 41 71
f 1169 1201 1205
f 1170 1202 1201
f 1171 1203 1202
f 1172 1204 1203
f 1169 1197 1163
f 1196 1169 1200
f 1196 1180 1197
f 1193 1187 1204
f 1186 1191 1182
f 1183 1196 1184
f 1201 1174 1205
f 1202 1173 1201
f 1203 1175 1202
f 19 1189 62
f 1204 1176 1203
f 1174 1195 1200
f 63 1199 31
f 1206 1207 1208
f 1206 1208 1209
f 1210 1166 1211
f 1212 1168 1210
f 1213 1214 1215
f 1216 1213 1217
f 1215 1214 1218
f 1217 1215 1219
f 1177 1181 1218
f 1209 1220 1221
f 1222 1192 1212
f 1223 1224 1211
f 1207 1225 1226
f 1227 1228 1226
f 1221 1229 1216
f 1223 1198 1230
f 1222 1231 1219
f 1232 1211 1225
f 1233 1210 1232
f 1177 1218 1230
f 1181 1219 1218
f 1231 1212 1233
f 1198 1211 1164
f 1223 1230 1214
f 1192 1222 1219
f 1207 1232 1225
f 1206 1233 1232
f 1228 1227 1213
f 1234 1213 1216
f 1209 1231 1233
f 1235 1236 1207
f 1228 1235 1226
f 1227 1224 1214
f 1221 1217 1231
f 1229 1237 1216
f 1213 1234 1228
f 1214 1213 1227
f 1216 1237 1234
f 1215 1217 1213
f 1230 1218 1214
f 1230 1178 1177
f 1218 1219 1215
f 1219 1231 1217
f 1211 1166 1164
f 1210 1211 1232
f 1210 1168 1166
f 1212 1210 1233
f 1212 1192 1168
f 1222 1212 1231
f 1211 1224 1225
f 1223 1211 1198
f 1223 1214 1224
f 1230 1198 1178
f 1219 1181 1192
f 1207 1206 1232
f 1207 1236 1208
f 1206 1209 1233
f 1209 1208 1220
f 1209 1221 1231
f 1221 1220 1229
f 1207 1226 1235
f 1224 1226 1225
f 1227 1226 1224
f 1221 1216 1217
f 1236 1238 1239
f 1240 1236 1239
f 1235 1241 1238
f 1235 1238 1236
f 1228 1241 1235
f 1241 1228 1234
f 1242 1234 1237
f 1241 1234 1242
f 1240 1208 1236
f 1208 1240 1220
f 1220 1243 1229
f 1220 1240 1243
f 1229 1244 1237
f 1229 1243 1244
f 1237 1244 1245
f 1242 1237 1245
f 1246 1247 1248
f 1247 1249 1248
f 1250 1251 1252
f 1253 1254 1255
f 1255 1256 1257
f 1258 1247 1246
f 1247 1258 1259
f 1259 1251 1250
f 1244 1243 1254
f 1254 1253 1244
f 1260 1261 1262
f 1262 1263 1264
f 1265 1266 1267
f 1265 1267 1268
f 1269 1270 1271
f 1267 1272 1269
f 1262 1273 1274
f 1275 1273 1268
f 1268 1267 1275
f 1270 1239 1238
f 1238 1271 1270
f 1276 1277 1278
f 1279 1276 1260
f 1252 1280 1266
f 1252 1266 1265
f 1256 1281 1269
f 1256 1269 1272
f 1282 1270 1281
f 1270 1269 1281
f 1240 1239 1270
f 1270 1282 1240
f 1258 1273 1283
f 1283 1273 1275
f 1274 1284 1263
f 1262 1274 1263
f 1284 1285 1264
f 1267 1238 1241
f 1244 1251 1245
f 1240 1254 1243
f 1258 1283 1259
f 1281 1256 1255
f 1281 1255 1282
f 1282 1255 1254
f 1240 1282 1254
f 1251 1280 1252
f 1264 1263 1284
f 1277 1276 1286
f 1279 1260 1264
f 1287 1288 1289
f 1279 1264 1285
f 1261 1260 1278
f 1278 1260 1276
f 1277 1290 1278
f 1286 1290 1277
f 1286 1276 1279
f 1290 1286 1287
f 1289 1248 1290
f 1249 1278 1290
f 1288 1287 1279
f 1287 1286 1279
f 1287 1289 1290
f 1289 1288 1279
f 1290 1248 1249
f 1285 1289 1279
f 1275 1267 1241
f 1242 1275 1241
f 1242 1283 1275
f 1245 1283 1242
f 1245 1259 1283
f 1251 1259 1245
f 1249 1252 1265
f 1252 1249 1250
f 1250 1249 1247
f 1259 1250 1247
f 1278 1265 1268
f 1249 1265 1278
f 1278 1268 1261
f 1268 1273 1261
f 1264 1260 1262
f 1273 1262 1261
f 1274 1258 1246
f 1274 1273 1258
f 1246 1285 1284
f 1246 1284 1274
f 1248 1285 1246
f 1248 1289 1285
f 1251 1253 1280
f 1244 1253 1251
f 1280 1256 1272
f 1256 1280 1257
f 1272 1267 1266
f 1280 1272 1266
f 1255 1257 1253
f 1257 1280 1253
f 1269 1271 1267
f 1271 1238 1267
