# Unified Preprocessed OBJ file from m1176.obj
# Applied remeshing: Yes
# Applied 4-step normalization: centering, PCA alignment, flipping, scaling
# Generated on 2025-10-13 00:39:57

v 0.288182 -0.019445 0.061074
v 0.251081 -0.016520 0.059905
v 0.250116 -0.023017 0.023766
v 0.288501 0.009008 0.077360
v 0.323446 -0.013100 0.055728
v 0.287105 -0.026140 0.020868
v 0.323705 0.009131 0.068811
v 0.144602 0.008243 0.058594
v 0.383941 0.009242 0.033053
v 0.322591 -0.019401 0.023648
v 0.323237 0.031229 0.055511
v 0.322325 0.037208 0.023371
v 0.250844 0.034010 0.059658
v 0.249819 0.040143 0.023456
v 0.287915 0.037295 0.060796
v 0.286778 0.043586 0.020526
v 0.202075 0.062527 -0.021622
v -0.002276 0.332960 -0.027993
v -0.131161 0.324792 -0.031814
v 0.007395 0.333006 -0.027753
v -0.057645 0.415748 -0.022500
v -0.126706 0.059604 -0.029778
v -0.128170 -0.311697 -0.028696
v 0.000786 -0.318615 -0.024801
v 0.202586 -0.046225 -0.021089
v -0.053803 -0.401863 -0.018495
v -0.126208 -0.046471 -0.029258
v -0.282936 0.002641 0.039006
v -0.413008 0.126838 -0.007590
v -0.410309 0.005595 0.037124
v -0.411869 -0.115662 -0.006402
v -0.366741 -0.115444 -0.005282
v -0.421499 0.005506 0.033133
v -0.350620 0.006395 0.146502
v -0.183061 0.006674 0.042842
v -0.379818 0.006291 0.153356
v -0.452344 0.005941 0.151555
v -0.244727 0.033511 -0.043643
v -0.215615 0.057579 -0.024737
v -0.217375 0.005245 0.053249
v -0.215991 0.060494 -0.010141
v -0.215122 -0.047283 -0.024223
v -0.214886 0.002899 -0.041899
v -0.211219 -0.020906 -0.042550
v -0.212492 0.013451 0.002034
v -0.246030 0.033762 0.008787
v -0.212770 0.032033 0.009621
v -0.211745 0.050362 -0.035220
v -0.211467 0.031782 -0.042809
v -0.211323 -0.039414 -0.034781
v -0.244480 -0.019177 -0.043385
v -0.212418 -0.002147 0.002111
v -0.245782 -0.018926 0.009045
v -0.428685 0.005253 0.026521
v -0.409473 -0.006562 0.026486
v -0.409677 -0.003369 0.034085
v -0.409299 -0.003442 0.018858
v -0.409575 0.014981 0.026381
v -0.409749 0.011861 0.034010
v -0.409792 0.004261 0.037200
v -0.313432 0.005097 0.048647
v -0.313158 -0.007321 0.042166
v -0.312769 -0.011874 0.027388
v -0.312538 -0.011580 0.017991
v -0.312342 -0.002561 0.008366
v -0.312089 0.006211 -0.003541
v -0.312430 0.016125 0.008274
v -0.312699 0.022721 0.017823
v -0.312934 0.023105 0.027216
v -0.313131 0.022661 0.035250
v -0.313277 0.017855 0.042043
v -0.217225 0.022655 0.046924
v -0.216937 0.038321 0.032262
v -0.216727 0.051492 0.021246
v -0.216495 0.055551 0.011091
v -0.216248 0.057993 0.000692
v -0.215753 -0.047453 0.001208
v -0.312090 0.006400 -0.003542
v -0.216022 -0.044912 0.011583
v -0.216294 -0.040756 0.021698
v -0.217064 -0.011675 0.047092
v -0.214892 -0.019118 -0.038946
v 0.138362 -0.015490 -0.036376
v 0.138318 -0.021425 -0.035209
v -0.214921 -0.028642 -0.035933
v 0.138289 -0.031144 -0.032133
v -0.214957 -0.039003 -0.032503
v 0.138382 -0.059037 -0.030482
v 0.138294 -0.064206 -0.025914
v 0.137647 -0.066675 0.000601
v 0.136986 -0.065899 0.027097
v 0.136695 -0.060008 0.037667
v 0.136555 -0.054147 0.042184
v 0.136415 -0.032403 0.043591
v 0.136160 -0.026197 0.052646
v 0.135769 0.006978 0.058853
v -0.215120 0.029275 -0.039183
v 0.138311 0.004585 -0.038239
v -0.215238 0.038827 -0.036264
v 0.137949 0.041246 -0.032487
v -0.215371 0.049222 -0.032935
v 0.137780 0.069155 -0.031110
v 0.136967 0.078219 -0.000109
v 0.136316 0.076567 0.026399
v 0.136081 0.070777 0.037026
v 0.135995 0.064959 0.041600
v 0.136060 0.043230 0.043220
v 0.135863 0.037109 0.052336
v 0.138070 0.031498 -0.035469
v 0.137643 0.074365 -0.026593
v 0.248838 -0.012423 -0.034468
v 0.248799 -0.017661 -0.033439
v 0.248794 0.005291 -0.036113
v 0.248580 0.029039 -0.033667
v 0.248271 0.069900 -0.029153
v 0.248473 0.037640 -0.031037
v 0.246483 0.065700 0.043675
v 0.246569 0.071527 0.039094
v 0.246632 0.033990 0.043811
v 0.246659 0.035425 0.042480
v 0.248871 -0.057929 -0.028527
v 0.248783 -0.063106 -0.023952
v 0.246962 -0.022181 0.041423
v 0.247041 -0.053032 0.044257
v 0.246895 -0.021871 0.044084
v 0.247181 -0.058901 0.039733
v 0.247473 -0.064802 0.029145
v 0.248135 -0.065578 0.002606
v 0.248773 -0.026237 -0.030724
v 0.246805 0.077326 0.028448
v 0.247456 0.078981 0.001898
v 0.248133 0.075121 -0.024629
v 0.247178 0.044499 0.021375
v 0.246549 0.007403 0.049560
v 0.314818 0.006497 0.044630
v 0.315055 -0.015553 0.039393
v 0.314844 0.029373 0.039172
v 0.547656 0.007967 0.001656
v 0.494896 0.000873 0.022467
v 0.494838 0.013366 0.022406
v 0.495126 -0.009273 0.015172
v 0.495440 -0.013192 0.003311
v 0.495717 -0.009387 -0.008590
v 0.495793 0.013182 -0.016046
v 0.495563 0.023328 -0.008751
v 0.451601 -0.019534 0.024160
v 0.452107 -0.025873 0.004975
v 0.452556 -0.019718 -0.014275
v 0.452774 -0.003421 -0.026234
v 0.452679 0.016788 -0.026333
v 0.452307 0.033198 -0.014534
v 0.451800 0.039537 0.004654
v 0.451352 0.033382 0.023901
v 0.451134 0.017085 0.035860
v 0.451229 -0.003124 0.035959
v 0.372643 -0.005025 0.040692
v 0.373072 -0.023960 0.027079
v 0.372534 0.018294 0.040578
v 0.372785 0.037098 0.026780
v 0.373303 0.044200 0.004570
v 0.373887 0.036886 -0.017569
v 0.374317 0.017951 -0.031182
v 0.374426 -0.005368 -0.031068
v 0.374174 -0.024172 -0.017270
v 0.373657 -0.031274 0.004940
v 0.315526 -0.031088 0.023435
v 0.316450 -0.030122 -0.013986
v 0.316830 -0.012168 -0.032780
v 0.316654 0.025296 -0.032964
v 0.316104 0.043430 -0.014346
v 0.315169 0.044754 0.023064
v 0.316699 -0.026739 -0.024693
v 0.316386 0.039944 -0.025020
v 0.247534 -0.031343 0.021747
v 0.248394 0.039688 -0.026708
v 0.248113 0.043175 -0.016035
v 0.248662 0.025042 -0.034652
v 0.248708 -0.026994 -0.026381
v 0.248458 -0.030377 -0.015674
v -0.245502 0.059861 -0.017556
v -0.212241 0.058132 -0.016721
v -0.245926 0.052269 0.001018
v -0.245752 0.015180 0.001199
v -0.245255 0.007412 -0.017299
v -0.211570 0.013274 -0.035039
v -0.244831 0.015003 -0.035873
v -0.245005 0.052092 -0.036055
v -0.245008 -0.045276 -0.017041
v -0.244583 -0.037684 -0.035615
v -0.244758 -0.000596 -0.035797
v -0.211497 -0.002324 -0.034962
v -0.245679 -0.000418 0.001276
v -0.245505 -0.037506 0.001458
v -0.212244 -0.039236 0.002292
v 0.268610 -0.024578 0.022317
v 0.269149 -0.021231 0.042420
v 0.287644 -0.022792 0.040971
v 0.323018 -0.016250 0.039688
v 0.353266 -0.005079 0.028351
v 0.353693 -0.001929 0.044391
v 0.250599 -0.019768 0.041836
v 0.197359 -0.007387 0.041180
v 0.197842 -0.004138 0.059249
v 0.353589 0.020236 0.044282
v 0.353133 0.023225 0.028212
v 0.322781 0.034219 0.039441
v 0.197723 0.021126 0.059126
v 0.197211 0.024193 0.041025
v 0.250331 0.037076 0.041557
v 0.268867 0.038719 0.042126
v 0.268298 0.041865 0.021991
v 0.287346 0.040440 0.040661
v 0.305810 0.023213 0.064803
v 0.288208 0.023151 0.069078
v 0.306103 0.009069 0.073086
v 0.002560 0.332983 -0.027873
v -0.025125 0.374377 -0.025127
v -0.029960 0.374354 -0.025247
v -0.128933 0.192198 -0.030796
v 0.037684 0.061065 -0.025700
v 0.035457 0.193660 -0.026718
v -0.063692 -0.315156 -0.026749
v -0.026509 -0.360239 -0.021648
v -0.090987 -0.356780 -0.023595
v 0.037208 -0.178961 -0.024893
v 0.038189 -0.046348 -0.025174
v -0.127189 -0.179084 -0.028977
v -0.411659 0.066216 0.014767
v -0.346622 0.004118 0.038065
v -0.347972 0.064740 0.015708
v -0.347402 -0.056510 0.016302
v -0.324838 -0.056401 0.016862
v -0.389305 -0.115553 -0.005842
v -0.386059 0.005950 0.089817
v -0.266840 0.006534 0.094672
v -0.302280 0.006090 0.037988
v -0.400658 0.005899 0.093245
v -0.416081 0.006116 0.152456
v -0.436922 0.005724 0.092344
v -0.231051 0.019378 0.004803
v -0.216131 0.004072 0.005675
v -0.229807 0.018205 -0.042771
v -0.419079 -0.000654 0.026504
v -0.409386 -0.005002 0.022672
v -0.418992 0.000906 0.022689
v -0.361555 0.000864 0.041366
v -0.313295 -0.001112 0.045407
v -0.361418 -0.005345 0.038126
v -0.361121 -0.009218 0.026937
v -0.312653 -0.011727 0.022689
v -0.361005 -0.009071 0.022239
v -0.361137 0.018851 0.022102
v -0.312816 0.022913 0.022520
v -0.361254 0.019043 0.026799
v -0.361440 0.017261 0.034630
v -0.313204 0.020258 0.038646
v -0.361513 0.014858 0.038027
v -0.361534 0.011058 0.039622
v -0.313354 0.011476 0.045345
v -0.361612 0.004679 0.042924
v -0.265178 0.022658 0.041087
v -0.265034 0.030491 0.033756
v -0.217081 0.030488 0.039593
v -0.264929 0.037076 0.028248
v -0.313032 0.022883 0.031233
v -0.264830 0.037298 0.024231
v -0.264462 0.035838 0.009683
v -0.312564 0.019423 0.013049
v -0.264597 0.039136 0.014457
v -0.264168 0.032102 -0.001424
v -0.312259 0.011168 0.002367
v -0.264339 0.037059 0.004483
v -0.263921 -0.020526 -0.001167
v -0.312216 0.001920 0.002412
v -0.264047 -0.025007 0.004787
v -0.264182 -0.023736 0.009974
v -0.312440 -0.007071 0.013178
v -0.264280 -0.028246 0.014787
v -0.038265 -0.017304 -0.037661
v -0.038262 -0.006295 -0.039137
v -0.214889 -0.008109 -0.040422
v -0.038287 -0.020271 -0.037078
v -0.038302 -0.025033 -0.035571
v -0.214907 -0.023880 -0.037440
v -0.038334 -0.035074 -0.032318
v 0.138335 -0.045091 -0.031307
v -0.038287 -0.049020 -0.031492
v -0.038414 -0.055744 -0.025069
v 0.137971 -0.065441 -0.012656
v -0.038737 -0.056979 -0.011811
v -0.039053 -0.057064 0.000905
v 0.137317 -0.066287 0.013849
v -0.039383 -0.056676 0.014153
v -0.039518 -0.055406 0.019340
v 0.136840 -0.062954 0.032382
v -0.039664 -0.052460 0.024625
v -0.039869 -0.047452 0.031941
v 0.136485 -0.043275 0.042887
v -0.039939 -0.036579 0.032644
v -0.040452 -0.018936 0.049869
v 0.135964 -0.009610 0.055750
v -0.040648 -0.002348 0.052972
v -0.215493 0.053401 -0.028836
v -0.038918 0.063367 -0.027923
v -0.038796 0.059188 -0.032022
v -0.038729 0.053991 -0.033687
v -0.038645 0.040037 -0.034376
v 0.137864 0.055200 -0.031799
v -0.040334 0.047361 0.032233
v -0.040366 0.058225 0.031423
v 0.136027 0.054094 0.042410
v -0.039837 0.068531 0.008129
v -0.039512 0.069357 -0.005125
v 0.136642 0.077393 0.013145
v -0.039324 0.067899 -0.012423
v -0.038986 0.065972 -0.025665
v 0.137305 0.076292 -0.013351
v -0.040084 0.064385 0.018859
v -0.039966 0.067280 0.013545
v 0.136199 0.073672 0.031713
v -0.040728 0.014816 0.052888
v -0.040681 0.029882 0.049630
v 0.135816 0.022044 0.055595
v -0.038525 0.030386 -0.037326
v -0.038404 0.016930 -0.038711
v 0.138190 0.018041 -0.036854
v 0.193580 -0.016575 -0.034907
v 0.193559 -0.019543 -0.034324
v 0.138340 -0.018457 -0.035792
v 0.248687 0.017165 -0.034890
v 0.193445 0.016812 -0.035953
v 0.193552 0.004938 -0.037176
v 0.193110 0.055573 -0.030820
v 0.193211 0.039443 -0.031762
v 0.248372 0.053770 -0.030095
v 0.191282 0.068239 0.040351
v 0.191325 0.071152 0.038060
v 0.246526 0.068613 0.041385
v 0.191327 0.050192 0.042040
v 0.191239 0.065329 0.042638
v 0.246571 0.050562 0.043078
v 0.191759 -0.038164 0.041803
v 0.191798 -0.053589 0.043220
v 0.247002 -0.037606 0.042840
v 0.191868 -0.056520 0.040962
v 0.191938 -0.059455 0.038700
v 0.247111 -0.055967 0.041995
v 0.193214 -0.064892 -0.011654
v 0.193538 -0.063656 -0.024933
v 0.248459 -0.064342 -0.010673
v 0.192560 -0.065739 0.014873
v 0.192891 -0.066126 0.001603
v 0.247804 -0.065190 0.015875
v 0.193580 -0.044537 -0.030330
v 0.193531 -0.028691 -0.031428
v 0.248822 -0.042083 -0.029625
v 0.191886 0.077773 0.014170
v 0.192211 0.078600 0.000894
v 0.247130 0.078154 0.015173
v 0.192549 0.076673 -0.012348
v 0.192888 0.074743 -0.025611
v 0.247795 0.077051 -0.011366
v 0.193575 -0.003919 -0.036354
v 0.138336 -0.005453 -0.037307
v 0.193600 -0.013957 -0.035422
v 0.191619 0.043864 0.032298
v 0.191359 0.039328 0.042850
v 0.246918 0.039962 0.031928
v 0.191354 -0.009397 0.051103
v 0.191528 -0.024034 0.048365
v 0.246722 -0.007234 0.046822
v 0.191206 0.022256 0.050948
v 0.191248 0.035549 0.048073
v 0.246590 0.020696 0.046685
v 0.280857 -0.007687 0.044357
v 0.314936 -0.004528 0.042011
v 0.280975 -0.018712 0.041738
v 0.280725 0.020243 0.044220
v 0.314831 0.017935 0.041901
v 0.280738 0.031681 0.041492
v 0.521276 0.004420 0.012062
v 0.494867 0.007120 0.022437
v 0.521247 0.010666 0.012031
v 0.521548 -0.002613 0.002484
v 0.495578 -0.011290 -0.002640
v 0.521686 -0.000710 -0.003467
v 0.521724 0.010574 -0.007195
v 0.495678 0.018255 -0.012398
v 0.521609 0.015648 -0.003547
v 0.473520 -0.016363 0.013736
v 0.473774 -0.019533 0.004143
v 0.451854 -0.022704 0.014567
v 0.473912 -0.017630 -0.001808
v 0.474136 -0.014552 -0.011433
v 0.452332 -0.022796 -0.004650
v 0.474284 0.004880 -0.021140
v 0.474236 0.014985 -0.021189
v 0.452726 0.006683 -0.026283
v 0.473682 0.031433 -0.002048
v 0.473935 0.028263 -0.011643
v 0.452054 0.036368 -0.004940
v 0.473095 0.023374 0.023154
v 0.472986 0.015226 0.029133
v 0.451243 0.025234 0.029880
v 0.473015 0.008979 0.029164
v 0.473062 -0.001125 0.029213
v 0.451181 0.006981 0.035909
v 0.473177 -0.006199 0.025565
v 0.473363 -0.014404 0.019666
v 0.451415 -0.011329 0.030059
v 0.412122 -0.012279 0.032426
v 0.412336 -0.021747 0.025620
v 0.372858 -0.014492 0.033886
v 0.411881 0.007585 0.038268
v 0.411936 -0.004074 0.038326
v 0.372588 0.006635 0.040635
v 0.411960 0.027092 0.031320
v 0.411834 0.017690 0.038219
v 0.372659 0.027696 0.033679
v 0.412327 0.038791 0.014236
v 0.412069 0.035240 0.025341
v 0.373044 0.040649 0.015675
v 0.412805 0.038699 -0.004982
v 0.413097 0.035042 -0.016052
v 0.373595 0.040543 -0.006499
v 0.413553 0.005710 -0.028700
v 0.413498 0.017369 -0.028757
v 0.374371 0.006292 -0.031125
v 0.413474 -0.013797 -0.021752
v 0.413600 -0.004395 -0.028651
v 0.374300 -0.014770 -0.024169
v 0.413106 -0.025496 -0.004668
v 0.413365 -0.021945 -0.015773
v 0.373916 -0.027723 -0.006165
v 0.412590 -0.024916 0.016027
v 0.412882 -0.028574 0.004957
v 0.373365 -0.027617 0.016010
v 0.344591 -0.031181 0.014188
v 0.345054 -0.030698 -0.004523
v 0.315988 -0.030605 0.004725
v 0.344236 0.044477 0.013817
v 0.344703 0.043815 -0.004888
v 0.315637 0.044092 0.004359
v 0.345137 0.038415 -0.021294
v 0.344996 0.040158 -0.015958
v 0.316245 0.041687 -0.019683
v 0.247248 -0.026762 0.031585
v 0.281009 -0.018867 0.040408
v 0.281294 -0.023448 0.030570
v 0.281011 0.036936 0.030274
v 0.315006 0.037063 0.031118
v 0.281173 0.044626 0.022219
v 0.282724 0.015294 -0.034538
v 0.248728 0.015166 -0.035382
v 0.282658 0.025169 -0.033808
v 0.282812 -0.003439 -0.034446
v 0.248816 -0.003566 -0.035290
v 0.282834 -0.012296 -0.033624
v 0.282579 -0.028558 -0.020184
v 0.248583 -0.028686 -0.021028
v 0.282454 -0.030250 -0.014830
v 0.281992 -0.030733 0.003880
v 0.247996 -0.030860 0.003036
v 0.281530 -0.031216 0.022591
v 0.282769 -0.019581 -0.029581
v 0.248773 -0.019709 -0.030425
v 0.282704 -0.026866 -0.025537
v 0.282524 0.032492 -0.029836
v 0.282390 0.039816 -0.025864
v 0.316520 0.032620 -0.028992
v 0.281641 0.043964 0.003514
v 0.247645 0.043837 0.002670
v 0.282108 0.043303 -0.015190
v -0.229348 0.042151 0.005320
v -0.245978 0.043016 0.004902
v -0.229400 0.032897 0.009204
v -0.229261 0.023607 0.005410
v -0.245891 0.024471 0.004993
v -0.229122 0.014316 0.001617
v -0.228413 0.010343 -0.026169
v -0.245043 0.011208 -0.026586
v -0.228201 0.014139 -0.035456
v -0.228149 0.023393 -0.039341
v -0.244779 0.024257 -0.039758
v -0.228097 0.032646 -0.043226
v -0.228236 0.041937 -0.039432
v -0.244866 0.042802 -0.039849
v -0.228375 0.051227 -0.035638
v -0.228623 0.055112 -0.026388
v -0.228872 0.058997 -0.017138
v -0.211993 0.054247 -0.025971
v -0.228165 -0.042345 -0.025911
v -0.244796 -0.041480 -0.026328
v -0.227953 -0.038549 -0.035198
v -0.227988 -0.010751 -0.039174
v -0.244619 -0.009886 -0.039591
v -0.227849 -0.020041 -0.042968
v -0.228376 0.002544 -0.026131
v -0.245007 0.003408 -0.026548
v -0.228127 -0.001460 -0.035380
v -0.229100 -0.010537 0.005578
v -0.245731 -0.009672 0.005160
v -0.229049 -0.001283 0.001693
v -0.228626 -0.042256 -0.007374
v -0.245256 -0.041391 -0.007792
v -0.228874 -0.038371 0.001875
v 0.277858 -0.025359 0.021592
v 0.278127 -0.023685 0.031644
v 0.287374 -0.024466 0.030919
v 0.259363 -0.023797 0.023041
v 0.259632 -0.022124 0.033093
v 0.268880 -0.022905 0.032368
v 0.278665 -0.020338 0.051747
v 0.287913 -0.021119 0.051022
v 0.278396 -0.022012 0.041695
v 0.323232 -0.014675 0.047708
v 0.338356 -0.009090 0.042039
v 0.338569 -0.007514 0.050059
v 0.322805 -0.017825 0.031668
v 0.337929 -0.012240 0.025999
v 0.338142 -0.010665 0.034019
v 0.368604 0.002081 0.030702
v 0.368817 0.003657 0.038722
v 0.353480 -0.003504 0.036371
v 0.250840 -0.018144 0.050870
v 0.224220 -0.011953 0.050542
v 0.224462 -0.010329 0.059577
v 0.250357 -0.021392 0.032801
v 0.223737 -0.015202 0.032473
v 0.223979 -0.013578 0.041508
v 0.170981 0.000428 0.049887
v 0.171222 0.002052 0.058921
v 0.197600 -0.005763 0.050215
v 0.338413 0.025732 0.049896
v 0.338185 0.027227 0.041861
v 0.323009 0.032724 0.047476
v 0.368765 0.014739 0.038668
v 0.368537 0.016234 0.030633
v 0.353361 0.021730 0.036247
v 0.337729 0.030217 0.025791
v 0.322553 0.035713 0.031406
v 0.337957 0.028722 0.033826
v 0.224283 0.027568 0.059392
v 0.224027 0.029101 0.050341
v 0.250588 0.035543 0.050607
v 0.171163 0.014684 0.058860
v 0.170907 0.016218 0.049809
v 0.197467 0.022659 0.050075
v 0.223515 0.032168 0.032241
v 0.250075 0.038610 0.032507
v 0.223771 0.030635 0.041291
v 0.278391 0.038007 0.051461
v 0.278107 0.039580 0.041394
v 0.287631 0.038868 0.050729
v 0.259343 0.039431 0.032791
v 0.259059 0.041004 0.022724
v 0.268583 0.040292 0.032059
v 0.277538 0.042725 0.021259
v 0.287062 0.042013 0.030594
v 0.277822 0.041152 0.031326
v 0.314757 0.016172 0.066807
v 0.305956 0.016141 0.068944
v 0.314904 0.009100 0.070948
v 0.296863 0.030254 0.062800
v 0.288062 0.030223 0.064937
v 0.297009 0.023182 0.066941
v 0.288355 0.016079 0.073219
v 0.297302 0.009038 0.075223
v 0.297156 0.016110 0.071082
v 0.000142 0.332971 -0.027933
v -0.013700 0.353668 -0.026560
v -0.016118 0.353657 -0.026620
v 0.004977 0.332995 -0.027813
v -0.008865 0.353692 -0.026440
v -0.011283 0.353680 -0.026500
v -0.041385 0.395063 -0.023814
v -0.043802 0.395051 -0.023874
v -0.027542 0.374365 -0.025187
v -0.130047 0.258495 -0.031305
v -0.046738 0.192929 -0.028757
v -0.047852 0.259226 -0.029266
v -0.127820 0.125901 -0.030287
v -0.044511 0.060334 -0.027739
v -0.045624 0.126632 -0.028248
v 0.119880 0.061796 -0.023661
v 0.118766 0.128093 -0.024170
v 0.036571 0.127362 -0.026209
v -0.095931 -0.313427 -0.027722
v -0.077339 -0.335968 -0.025172
v -0.109578 -0.334238 -0.026146
v -0.031453 -0.316886 -0.025775
v -0.012861 -0.339427 -0.023225
v -0.045100 -0.337698 -0.024198
v -0.040156 -0.381051 -0.020071
v -0.072395 -0.379321 -0.021045
v -0.058748 -0.358509 -0.022622
v -0.045481 -0.245329 -0.026794
v -0.044990 -0.179023 -0.026935
v -0.127679 -0.245390 -0.028837
v 0.119897 -0.112593 -0.022991
v 0.120388 -0.046287 -0.023132
v 0.037699 -0.112655 -0.025033
v -0.044009 -0.046410 -0.027216
v -0.126698 -0.112778 -0.029118
v -0.044500 -0.112716 -0.027075
v -0.412333 0.096527 0.003589
v -0.379815 0.065478 0.015238
v -0.380490 0.095789 0.004059
v -0.410984 0.035906 0.025946
v -0.378466 0.004857 0.037595
v -0.379141 0.035167 0.026416
v -0.314779 0.003380 0.038536
v -0.315454 0.033690 0.027357
v -0.347297 0.034429 0.026887
v -0.379636 -0.086086 0.004950
v -0.368354 -0.086032 0.005230
v -0.400587 -0.115607 -0.006122
v -0.315169 -0.026934 0.027654
v -0.303887 -0.026880 0.027934
v -0.336120 -0.056456 0.016582
v -0.345789 -0.085923 0.005790
v -0.378023 -0.115499 -0.005562
v -0.357071 -0.085977 0.005510
v -0.403779 0.005728 0.061475
v -0.344170 0.006020 0.063903
v -0.361889 0.005798 0.035560
v -0.368339 0.006173 0.118160
v -0.308730 0.006465 0.120587
v -0.326450 0.006242 0.092245
v -0.224951 0.006604 0.068757
v -0.242671 0.006382 0.040415
v -0.284560 0.006312 0.066330
v -0.411079 0.005702 0.063189
v -0.418790 0.005811 0.092794
v -0.429210 0.005615 0.062739
v -0.390238 0.006095 0.123300
v -0.397949 0.006204 0.152906
v -0.408370 0.006007 0.122850
v -0.434213 0.006029 0.152006
v -0.444633 0.005833 0.121950
v -0.426501 0.005920 0.122400
v -0.237889 0.026444 -0.019420
v -0.230429 0.018791 -0.018984
v -0.237267 0.025858 -0.043207
v -0.224213 0.012311 0.029026
v -0.216753 0.004659 0.029462
v -0.223591 0.011725 0.005239
v -0.215509 0.003486 -0.018112
v -0.222347 0.010552 -0.042335
v -0.222969 0.011139 -0.018548
v -0.423882 0.002300 0.026512
v -0.419036 0.000126 0.024596
v -0.423839 0.003080 0.024605
v -0.414276 -0.003608 0.026495
v -0.409430 -0.005782 0.024579
v -0.414233 -0.002828 0.024588
v -0.409343 -0.004222 0.020765
v -0.414146 -0.001268 0.020774
v -0.414189 -0.002048 0.022681
v -0.385616 -0.001253 0.037726
v -0.361486 -0.002241 0.039746
v -0.385548 -0.004357 0.036105
v -0.337494 0.002981 0.045007
v -0.313364 0.001993 0.047027
v -0.337425 -0.000124 0.043386
v -0.313227 -0.004217 0.043787
v -0.337288 -0.006333 0.040146
v -0.337357 -0.003229 0.041766
v -0.385297 -0.007890 0.026712
v -0.361063 -0.009145 0.024588
v -0.385239 -0.007817 0.024363
v -0.336945 -0.010546 0.027162
v -0.312711 -0.011800 0.025039
v -0.336887 -0.010473 0.024813
v -0.312596 -0.011654 0.020340
v -0.336772 -0.010326 0.020115
v -0.336829 -0.010399 0.022464
v -0.385356 0.016916 0.024241
v -0.361195 0.018947 0.024450
v -0.385414 0.017012 0.026590
v -0.336918 0.020786 0.019963
v -0.312757 0.022817 0.020171
v -0.336976 0.020882 0.022311
v -0.312875 0.023009 0.024868
v -0.337094 0.021074 0.027007
v -0.337035 0.020978 0.024659
v -0.385595 0.014561 0.034320
v -0.361476 0.016060 0.036328
v -0.385631 0.013360 0.036019
v -0.337286 0.019961 0.034940
v -0.313167 0.021459 0.036948
v -0.337322 0.018760 0.036638
v -0.313240 0.019057 0.040345
v -0.337395 0.016357 0.040035
v -0.337358 0.017558 0.038337
v -0.385663 0.007660 0.038411
v -0.361573 0.007869 0.041273
v -0.385702 0.004470 0.040062
v -0.337405 0.014457 0.040832
v -0.313316 0.014666 0.043694
v -0.337444 0.011267 0.042483
v -0.313393 0.008287 0.046996
v -0.337522 0.004888 0.045786
v -0.337483 0.008078 0.044134
v -0.241202 0.022657 0.044005
v -0.241130 0.026573 0.040340
v -0.217153 0.026572 0.043258
v -0.289155 0.022659 0.038168
v -0.289083 0.026576 0.034503
v -0.265106 0.026575 0.037421
v -0.240986 0.034406 0.033009
v -0.217009 0.034405 0.035927
v -0.241058 0.030490 0.036674
v -0.240828 0.044284 0.024747
v -0.264880 0.037187 0.026240
v -0.240779 0.044395 0.022739
v -0.289030 0.029869 0.031749
v -0.313082 0.022772 0.033242
v -0.288981 0.029980 0.029741
v -0.312983 0.022994 0.029225
v -0.288882 0.030202 0.025724
v -0.288931 0.030091 0.027732
v -0.240478 0.045695 0.010387
v -0.264529 0.037487 0.012070
v -0.240546 0.047344 0.012774
v -0.288446 0.025982 0.008978
v -0.312497 0.017774 0.010661
v -0.288513 0.027631 0.011366
v -0.312632 0.021072 0.015436
v -0.288648 0.030929 0.016140
v -0.288580 0.029280 0.013753
v -0.240208 0.045048 -0.000366
v -0.264254 0.034581 0.001529
v -0.240294 0.047526 0.002587
v -0.288129 0.019156 -0.002483
v -0.312174 0.008689 -0.000587
v -0.288214 0.021635 0.000471
v -0.312345 0.013647 0.005320
v -0.288384 0.026592 0.006378
v -0.288299 0.024114 0.003425
v -0.239837 -0.033990 0.000021
v -0.263984 -0.022767 0.001810
v -0.239900 -0.036230 0.002998
v -0.288005 -0.007063 -0.002354
v -0.312153 0.004160 -0.000565
v -0.288069 -0.009303 0.000623
v -0.312279 -0.000321 0.005389
v -0.288195 -0.013784 0.006576
v -0.288132 -0.011544 0.003599
v -0.240102 -0.034324 0.010779
v -0.264231 -0.025991 0.012381
v -0.240151 -0.036579 0.013185
v -0.288262 -0.013149 0.009170
v -0.312391 -0.004816 0.010772
v -0.288311 -0.015403 0.011576
v -0.312489 -0.009325 0.015585
v -0.288409 -0.019913 0.016389
v -0.288360 -0.017658 0.013983
v -0.126579 -0.018211 -0.038304
v -0.126577 -0.012707 -0.039042
v -0.214891 -0.013614 -0.039684
v 0.050048 -0.016397 -0.037018
v 0.050050 -0.010893 -0.037756
v -0.038264 -0.011800 -0.038399
v -0.126574 -0.001698 -0.040518
v -0.214888 -0.002605 -0.041161
v -0.126576 -0.007202 -0.039780
v -0.126590 -0.019695 -0.038012
v -0.126597 -0.022075 -0.037259
v -0.214900 -0.021499 -0.038193
v 0.050016 -0.020848 -0.036144
v 0.050008 -0.023229 -0.035390
v -0.038294 -0.022652 -0.036325
v -0.126611 -0.026837 -0.035752
v -0.214914 -0.026261 -0.036687
v -0.126604 -0.024456 -0.036506
v -0.126645 -0.037039 -0.032410
v -0.038311 -0.042047 -0.031905
v -0.126622 -0.044012 -0.031997
v 0.049977 -0.033109 -0.032225
v 0.138312 -0.038118 -0.031720
v 0.050001 -0.040082 -0.031812
v 0.138359 -0.052064 -0.030894
v 0.050047 -0.054029 -0.030987
v 0.050024 -0.047056 -0.031400
v -0.126768 -0.051513 -0.024646
v -0.038576 -0.056362 -0.018440
v -0.126930 -0.052131 -0.018017
v 0.049940 -0.059975 -0.025491
v 0.138132 -0.064823 -0.019285
v 0.049778 -0.060592 -0.018863
v 0.137809 -0.066058 -0.006028
v 0.049455 -0.061827 -0.005605
v 0.049617 -0.061210 -0.012234
v -0.127403 -0.052259 0.001056
v -0.039218 -0.056870 0.007529
v -0.127568 -0.052065 0.007680
v 0.049297 -0.061870 0.000753
v 0.137482 -0.066481 0.007225
v 0.049132 -0.061676 0.007377
v 0.137151 -0.066093 0.020473
v 0.048801 -0.061288 0.020625
v 0.048967 -0.061482 0.014001
v -0.127770 -0.050159 0.015462
v -0.039591 -0.053933 0.021983
v -0.127843 -0.048686 0.018104
v 0.048734 -0.060653 0.023218
v 0.136913 -0.064427 0.029739
v 0.048661 -0.059180 0.025861
v 0.136768 -0.061481 0.035025
v 0.048516 -0.056234 0.031146
v 0.048588 -0.057707 0.028504
v -0.128082 -0.044104 0.026819
v -0.039904 -0.042015 0.032293
v -0.128116 -0.038668 0.027171
v 0.048343 -0.050799 0.037062
v 0.136520 -0.048711 0.042536
v 0.048308 -0.045363 0.037414
v 0.136450 -0.037839 0.043239
v 0.048238 -0.034491 0.038118
v 0.048273 -0.039927 0.037766
v -0.128758 -0.015305 0.048480
v -0.040550 -0.010642 0.051421
v -0.128856 -0.007012 0.050032
v 0.047854 -0.022567 0.051258
v 0.136062 -0.017904 0.054198
v 0.047756 -0.014273 0.052809
v 0.135867 -0.001316 0.057301
v 0.047560 0.002315 0.055913
v 0.047658 -0.005979 0.054361
v -0.215432 0.051311 -0.030885
v -0.127144 0.056294 -0.030429
v -0.127083 0.054205 -0.032479
v -0.215554 0.055490 -0.026786
v -0.127266 0.060473 -0.026330
v -0.127205 0.058384 -0.028380
v 0.049431 0.066261 -0.029516
v 0.049492 0.064171 -0.031566
v -0.038857 0.061278 -0.029973
v 0.049525 0.061573 -0.032398
v 0.049567 0.054596 -0.032743
v 0.137822 0.062178 -0.031454
v -0.126984 0.046409 -0.034975
v -0.126942 0.039432 -0.035320
v -0.038687 0.047014 -0.034031
v 0.049652 0.040641 -0.033432
v 0.137906 0.048223 -0.032143
v 0.049610 0.047619 -0.033087
v 0.047863 0.045296 0.037727
v 0.047847 0.050728 0.037322
v 0.136043 0.048662 0.042815
v -0.128530 0.049426 0.026740
v -0.128547 0.054859 0.026335
v -0.040350 0.052793 0.031828
v 0.047815 0.061592 0.036512
v 0.136011 0.059527 0.042005
v 0.047831 0.056160 0.036917
v 0.048240 0.072549 0.017264
v 0.048402 0.072962 0.010637
v 0.136479 0.076980 0.019772
v -0.127914 0.064512 -0.001006
v -0.127752 0.064926 -0.007633
v -0.039675 0.068944 0.001502
v 0.048727 0.073788 -0.002617
v 0.136804 0.077806 0.006518
v 0.048565 0.073375 0.004010
v 0.048821 0.073059 -0.006266
v 0.048990 0.072096 -0.012887
v 0.137136 0.077256 -0.006730
v -0.127470 0.062739 -0.018580
v -0.127300 0.061776 -0.025201
v -0.039155 0.066936 -0.019044
v 0.049328 0.070168 -0.026129
v 0.137474 0.075328 -0.019972
v 0.049159 0.071132 -0.019508
v 0.047998 0.067581 0.027943
v 0.048057 0.069029 0.025286
v 0.136140 0.072225 0.034369
v -0.128166 0.061189 0.009775
v -0.128107 0.062637 0.007118
v -0.040025 0.065833 0.016202
v 0.048175 0.071924 0.019972
v 0.136257 0.075120 0.029056
v 0.048116 0.070476 0.022629
v 0.047520 0.010897 0.055871
v 0.047544 0.018430 0.054241
v 0.135792 0.014511 0.057224
v -0.128977 0.018736 0.049906
v -0.128953 0.026269 0.048277
v -0.040705 0.022349 0.051259
v 0.047591 0.033496 0.050983
v 0.135839 0.029576 0.053965
v 0.047567 0.025963 0.052612
v 0.049772 0.030942 -0.036397
v 0.049833 0.024214 -0.037090
v 0.138130 0.024770 -0.036161
v -0.126822 0.029831 -0.038255
v -0.126762 0.023102 -0.038947
v -0.038465 0.023658 -0.038019
v 0.049953 0.010757 -0.038475
v 0.138251 0.011313 -0.037546
v 0.049893 0.017486 -0.037782
v 0.165971 -0.016033 -0.035641
v 0.165960 -0.017516 -0.035350
v 0.138351 -0.016974 -0.036084
v 0.221190 -0.017118 -0.034173
v 0.221179 -0.018602 -0.033881
v 0.193569 -0.018059 -0.034615
v 0.165938 -0.020484 -0.034767
v 0.138329 -0.019941 -0.035501
v 0.165949 -0.019000 -0.035058
v 0.248740 0.011228 -0.035501
v 0.221119 0.011051 -0.036033
v 0.221173 0.005114 -0.036644
v 0.248633 0.023102 -0.034279
v 0.221012 0.022925 -0.034810
v 0.221066 0.016988 -0.035421
v 0.165878 0.010698 -0.037096
v 0.165932 0.004761 -0.037707
v 0.193499 0.010875 -0.036564
v 0.220690 0.062737 -0.029987
v 0.220741 0.054672 -0.030458
v 0.248321 0.061835 -0.029624
v 0.165529 0.048410 -0.031654
v 0.165580 0.040345 -0.032125
v 0.193160 0.047508 -0.031291
v 0.220842 0.038541 -0.031399
v 0.248422 0.045705 -0.030566
v 0.220791 0.046607 -0.030929
v 0.218882 0.066969 0.042013
v 0.218904 0.068426 0.040868
v 0.246504 0.067157 0.042530
v 0.163681 0.069508 0.038689
v 0.163703 0.070965 0.037543
v 0.191303 0.069695 0.039205
v 0.218947 0.071339 0.038577
v 0.246547 0.070070 0.040239
v 0.218925 0.069883 0.039722
v 0.218993 0.042808 0.042260
v 0.218949 0.050377 0.042559
v 0.246615 0.042994 0.042779
v 0.163661 0.057575 0.041820
v 0.163617 0.065144 0.042119
v 0.191283 0.057761 0.042339
v 0.218861 0.065514 0.043157
v 0.246527 0.058131 0.043376
v 0.218905 0.057946 0.042858
v 0.219360 -0.030172 0.041613
v 0.219380 -0.037885 0.042322
v 0.246982 -0.029894 0.042131
v 0.164157 -0.046156 0.041994
v 0.164176 -0.053868 0.042702
v 0.191778 -0.045877 0.042512
v 0.219419 -0.053311 0.043739
v 0.247021 -0.045319 0.043548
v 0.219400 -0.045598 0.043030
v 0.219454 -0.054776 0.042609
v 0.219489 -0.056243 0.041478
v 0.247076 -0.054499 0.043126
v 0.164281 -0.058264 0.039315
v 0.164317 -0.059732 0.038184
v 0.191903 -0.057987 0.039831
v 0.219560 -0.059178 0.039216
v 0.247146 -0.057434 0.040864
v 0.219525 -0.057711 0.040347
v 0.220675 -0.065235 -0.004524
v 0.220837 -0.064617 -0.011163
v 0.248297 -0.064960 -0.004034
v 0.165754 -0.064549 -0.018784
v 0.165916 -0.063931 -0.025423
v 0.193376 -0.064274 -0.018293
v 0.221160 -0.063381 -0.024442
v 0.248621 -0.063724 -0.017312
v 0.220999 -0.063999 -0.017803
v 0.220016 -0.065270 0.022009
v 0.220182 -0.065464 0.015374
v 0.247638 -0.064996 0.022510
v 0.165104 -0.066207 0.007737
v 0.165269 -0.066401 0.001102
v 0.192726 -0.065933 0.008238
v 0.220513 -0.065852 0.002105
v 0.247970 -0.065384 0.009241
v 0.220348 -0.065658 0.008739
v 0.221226 -0.051233 -0.029428
v 0.221201 -0.043310 -0.029978
v 0.248847 -0.050006 -0.029076
v 0.165934 -0.037841 -0.031231
v 0.165910 -0.029918 -0.031781
v 0.193555 -0.036614 -0.030879
v 0.221152 -0.027464 -0.031076
v 0.248798 -0.034160 -0.030175
v 0.221176 -0.035387 -0.030527
v 0.219345 0.077549 0.021309
v 0.219508 0.077963 0.014671
v 0.246968 0.077740 0.021811
v 0.164426 0.077996 0.007030
v 0.164589 0.078410 0.000393
v 0.192048 0.078187 0.007532
v 0.219834 0.078791 0.001396
v 0.247293 0.078567 0.008535
v 0.219671 0.078377 0.008034
v 0.220003 0.077827 -0.005225
v 0.220172 0.076862 -0.011857
v 0.247625 0.078016 -0.004734
v 0.165096 0.075519 -0.019470
v 0.165265 0.074554 -0.026102
v 0.192719 0.075708 -0.018979
v 0.220510 0.074932 -0.025120
v 0.247964 0.076086 -0.017997
v 0.220341 0.075897 -0.018488
v 0.221206 -0.008171 -0.035411
v 0.193587 -0.008938 -0.035888
v 0.221219 -0.013190 -0.034945
v 0.165943 0.000333 -0.037296
v 0.138324 -0.000434 -0.037773
v 0.165955 -0.004686 -0.036830
v 0.138349 -0.010471 -0.036841
v 0.165981 -0.014723 -0.035899
v 0.165968 -0.009705 -0.036365
v 0.219398 0.044182 0.026837
v 0.219268 0.041913 0.032113
v 0.247048 0.042230 0.026651
v 0.163839 0.043547 0.037759
v 0.163709 0.041279 0.043035
v 0.191489 0.041596 0.037574
v 0.219009 0.037376 0.042665
v 0.246788 0.037693 0.037204
v 0.219139 0.039645 0.037389
v 0.218951 -0.000997 0.050332
v 0.219038 -0.008316 0.048963
v 0.246635 0.000084 0.048191
v 0.163757 -0.017797 0.051875
v 0.163844 -0.025116 0.050506
v 0.191441 -0.016716 0.049734
v 0.219211 -0.022953 0.046225
v 0.246808 -0.014553 0.045453
v 0.219125 -0.015634 0.047594
v 0.218877 0.014829 0.050254
v 0.218898 0.021476 0.048817
v 0.246570 0.014049 0.048123
v 0.163534 0.029683 0.051642
v 0.163555 0.036329 0.050205
v 0.191227 0.028903 0.049511
v 0.218940 0.034770 0.045942
v 0.246611 0.027343 0.045248
v 0.218919 0.028123 0.047379
v 0.263876 -0.014779 0.044221
v 0.280916 -0.013200 0.043048
v 0.263935 -0.020292 0.042911
v 0.297837 -0.000595 0.044493
v 0.314877 0.000984 0.043320
v 0.297897 -0.006108 0.043184
v 0.314996 -0.010041 0.040702
v 0.298015 -0.017133 0.040565
v 0.297956 -0.011620 0.041875
v 0.263679 0.027116 0.044015
v 0.280732 0.025962 0.042856
v 0.263685 0.032835 0.042651
v 0.297772 0.013370 0.044425
v 0.314825 0.012216 0.043265
v 0.297778 0.019089 0.043061
v 0.314837 0.023654 0.040537
v 0.297791 0.030527 0.040332
v 0.297784 0.024808 0.041696
v 0.534466 0.006194 0.006859
v 0.521261 0.007543 0.012046
v 0.534451 0.009317 0.006844
v 0.508086 0.002647 0.017265
v 0.494882 0.003996 0.022452
v 0.508072 0.005770 0.017249
v 0.494852 0.010243 0.022421
v 0.508042 0.012016 0.017219
v 0.508057 0.008893 0.017234
v 0.534602 0.002677 0.002070
v 0.521617 -0.001661 -0.000492
v 0.534671 0.003629 -0.000906
v 0.508494 -0.007902 0.002898
v 0.495509 -0.012241 0.000336
v 0.508563 -0.006951 -0.000078
v 0.495648 -0.010338 -0.005615
v 0.508702 -0.005048 -0.006029
v 0.508632 -0.006000 -0.003053
v 0.534690 0.009271 -0.002769
v 0.521667 0.013111 -0.005371
v 0.534633 0.011807 -0.000946
v 0.508759 0.011878 -0.011620
v 0.495736 0.015718 -0.014222
v 0.508701 0.014415 -0.009797
v 0.495621 0.020792 -0.010575
v 0.508586 0.019488 -0.006149
v 0.508644 0.016951 -0.007973
v 0.462560 -0.017949 0.018948
v 0.462687 -0.019533 0.014152
v 0.451727 -0.021119 0.019364
v 0.484480 -0.014778 0.008524
v 0.484607 -0.016362 0.003727
v 0.473647 -0.017948 0.008939
v 0.462940 -0.022703 0.004559
v 0.451981 -0.024288 0.009771
v 0.462814 -0.021118 0.009355
v 0.463010 -0.021752 0.001583
v 0.463122 -0.020213 -0.003229
v 0.452219 -0.024334 0.000162
v 0.484815 -0.013508 -0.005199
v 0.484927 -0.011970 -0.010012
v 0.474024 -0.016091 -0.006620
v 0.463346 -0.017135 -0.012854
v 0.452444 -0.021257 -0.009463
v 0.463234 -0.018674 -0.008041
v 0.463529 0.000730 -0.023687
v 0.463505 0.005782 -0.023712
v 0.452750 0.001631 -0.026259
v 0.485038 0.009031 -0.018593
v 0.485015 0.014083 -0.018618
v 0.474260 0.009933 -0.021165
v 0.463458 0.015886 -0.023761
v 0.452703 0.011736 -0.026308
v 0.463481 0.010834 -0.023736
v 0.462741 0.035485 0.001303
v 0.462868 0.033900 -0.003494
v 0.451927 0.037953 -0.000143
v 0.484622 0.027381 -0.005399
v 0.484749 0.025796 -0.010197
v 0.473808 0.029848 -0.006845
v 0.463121 0.030731 -0.013088
v 0.452180 0.034783 -0.009737
v 0.462994 0.032316 -0.008291
v 0.462223 0.028378 0.023527
v 0.462169 0.024304 0.026517
v 0.451297 0.029308 0.026891
v 0.483966 0.018370 0.022780
v 0.483912 0.014296 0.025770
v 0.473040 0.019300 0.026143
v 0.462060 0.016156 0.032496
v 0.451188 0.021160 0.032870
v 0.462114 0.020230 0.029507
v 0.462074 0.013032 0.032512
v 0.462098 0.007980 0.032536
v 0.451157 0.012033 0.035884
v 0.483956 0.004926 0.025815
v 0.483979 -0.000126 0.025840
v 0.473039 0.003927 0.029188
v 0.462146 -0.002125 0.032586
v 0.451205 0.001928 0.035934
v 0.462122 0.002928 0.032561
v 0.462203 -0.004661 0.030762
v 0.462296 -0.008764 0.027812
v 0.451322 -0.007226 0.033009
v 0.484152 -0.007736 0.020369
v 0.484245 -0.011838 0.017419
v 0.473270 -0.010301 0.022616
v 0.462482 -0.016969 0.021913
v 0.451508 -0.015432 0.027110
v 0.462389 -0.012866 0.024863
v 0.392382 -0.008652 0.036559
v 0.392490 -0.013386 0.033156
v 0.372750 -0.009758 0.037289
v 0.431861 -0.015907 0.028293
v 0.431969 -0.020641 0.024890
v 0.412229 -0.017013 0.029023
v 0.392704 -0.022853 0.026350
v 0.372965 -0.019226 0.030483
v 0.392597 -0.018120 0.029753
v 0.392207 0.012940 0.039423
v 0.392235 0.007110 0.039452
v 0.372561 0.012464 0.040607
v 0.431555 0.002231 0.037114
v 0.431582 -0.003599 0.037142
v 0.411908 0.001755 0.038297
v 0.392289 -0.004549 0.039509
v 0.372616 0.000805 0.040664
v 0.392262 0.001280 0.039480
v 0.392372 0.032095 0.029050
v 0.392309 0.027394 0.032500
v 0.372722 0.032397 0.030230
v 0.431547 0.022089 0.033590
v 0.431484 0.017388 0.037039
v 0.411897 0.022391 0.034769
v 0.392184 0.017992 0.039399
v 0.372597 0.022995 0.037129
v 0.392247 0.022693 0.035949
v 0.392815 0.041495 0.009403
v 0.392686 0.039720 0.014955
v 0.373173 0.042424 0.010123
v 0.431840 0.036086 0.019068
v 0.431710 0.034311 0.024621
v 0.412198 0.037015 0.019788
v 0.392427 0.036169 0.026060
v 0.372915 0.038873 0.021228
v 0.392556 0.037944 0.020508
v 0.393054 0.041449 -0.000206
v 0.393200 0.039621 -0.005741
v 0.373449 0.042371 -0.000965
v 0.432556 0.035949 -0.009758
v 0.432702 0.034120 -0.015293
v 0.412951 0.036871 -0.010517
v 0.393492 0.035964 -0.016810
v 0.373741 0.038714 -0.012034
v 0.393346 0.037792 -0.011276
v 0.393989 0.000171 -0.029884
v 0.393962 0.006001 -0.029913
v 0.374399 0.000462 -0.031096
v 0.433116 0.011249 -0.027517
v 0.433088 0.017079 -0.027545
v 0.413525 0.011540 -0.028729
v 0.393907 0.017660 -0.029970
v 0.374344 0.012121 -0.031154
v 0.393935 0.011831 -0.029941
v 0.393824 -0.018984 -0.019511
v 0.393887 -0.014283 -0.022960
v 0.374237 -0.019471 -0.020720
v 0.433124 -0.008609 -0.023993
v 0.433187 -0.003908 -0.027442
v 0.413537 -0.009096 -0.025201
v 0.394013 -0.004881 -0.029859
v 0.374363 -0.010069 -0.027618
v 0.393950 -0.009582 -0.026410
v 0.393382 -0.028385 0.000136
v 0.393511 -0.026610 -0.005416
v 0.373786 -0.029499 -0.000613
v 0.432831 -0.022607 -0.009471
v 0.432960 -0.020831 -0.015024
v 0.413236 -0.023721 -0.010220
v 0.393770 -0.023058 -0.016521
v 0.374045 -0.025947 -0.011718
v 0.393640 -0.024834 -0.010969
v 0.392831 -0.024438 0.021553
v 0.392977 -0.026267 0.016018
v 0.373219 -0.025788 0.021545
v 0.432349 -0.025395 0.010501
v 0.432495 -0.027224 0.004966
v 0.412736 -0.026745 0.010492
v 0.393270 -0.029924 0.004949
v 0.373511 -0.029446 0.010475
v 0.393124 -0.028095 0.010484
v 0.330059 -0.031134 0.018811
v 0.330290 -0.030893 0.009456
v 0.315757 -0.030846 0.014080
v 0.359124 -0.031228 0.009564
v 0.359355 -0.030986 0.000208
v 0.344822 -0.030940 0.004832
v 0.330752 -0.030410 -0.009255
v 0.316219 -0.030363 -0.004631
v 0.330521 -0.030652 0.000101
v 0.329703 0.044615 0.018440
v 0.329936 0.044284 0.009088
v 0.315403 0.044423 0.013711
v 0.358769 0.044338 0.009194
v 0.359003 0.044007 -0.000159
v 0.344470 0.044146 0.004464
v 0.330404 0.043623 -0.009617
v 0.315871 0.043761 -0.004994
v 0.330170 0.043954 -0.000265
v 0.330761 0.039179 -0.023157
v 0.330691 0.040051 -0.020489
v 0.316316 0.040815 -0.022351
v 0.359512 0.037650 -0.019432
v 0.359442 0.038522 -0.016763
v 0.345066 0.039286 -0.018626
v 0.330550 0.041794 -0.015152
v 0.316175 0.042559 -0.017015
v 0.330621 0.040923 -0.017820
v 0.247391 -0.029053 0.026666
v 0.264271 -0.025105 0.031077
v 0.264414 -0.027396 0.026158
v 0.247105 -0.024471 0.036504
v 0.263985 -0.020524 0.040915
v 0.264128 -0.022814 0.035996
v 0.298032 -0.017210 0.039900
v 0.298174 -0.019501 0.034981
v 0.281151 -0.021158 0.035489
v 0.264094 0.040717 0.025825
v 0.281092 0.040781 0.026247
v 0.264175 0.044562 0.021797
v 0.297927 0.033154 0.034723
v 0.314925 0.033218 0.035145
v 0.298008 0.036999 0.030696
v 0.315088 0.040909 0.027091
v 0.298171 0.044690 0.022642
v 0.298090 0.040845 0.026669
v 0.299689 0.020295 -0.033751
v 0.282691 0.020231 -0.034173
v 0.299656 0.025233 -0.033386
v 0.265759 0.010292 -0.035325
v 0.248761 0.010229 -0.035747
v 0.265726 0.015230 -0.034960
v 0.248695 0.020104 -0.035017
v 0.265660 0.025106 -0.034230
v 0.265693 0.020168 -0.034595
v 0.299821 -0.007803 -0.033613
v 0.282823 -0.007867 -0.034035
v 0.299832 -0.012232 -0.033202
v 0.265803 0.000926 -0.035279
v 0.248805 0.000862 -0.035701
v 0.265814 -0.003503 -0.034868
v 0.248827 -0.007995 -0.034879
v 0.265836 -0.012360 -0.034046
v 0.265825 -0.007931 -0.034457
v 0.299514 -0.029340 -0.017085
v 0.282516 -0.029404 -0.017507
v 0.299452 -0.030186 -0.014408
v 0.265643 -0.027776 -0.023282
v 0.248645 -0.027840 -0.023704
v 0.265581 -0.028622 -0.020606
v 0.248521 -0.029532 -0.018351
v 0.265456 -0.030314 -0.015252
v 0.265518 -0.029468 -0.017929
v 0.298759 -0.030910 0.013658
v 0.281761 -0.030974 0.013236
v 0.298528 -0.031152 0.023013
v 0.265225 -0.030555 -0.005897
v 0.248227 -0.030619 -0.006319
v 0.264994 -0.030796 0.003458
v 0.247765 -0.031102 0.012392
v 0.264532 -0.031279 0.022169
v 0.264763 -0.031038 0.012814
v 0.299734 -0.023160 -0.027137
v 0.282736 -0.023224 -0.027559
v 0.299702 -0.026803 -0.025115
v 0.265804 -0.016002 -0.032024
v 0.248806 -0.016066 -0.032447
v 0.265771 -0.019645 -0.030003
v 0.248740 -0.023351 -0.028403
v 0.265706 -0.026930 -0.025959
v 0.265738 -0.023288 -0.027981
v 0.299589 0.028894 -0.031400
v 0.299522 0.032556 -0.029414
v 0.316587 0.028958 -0.030978
v 0.265459 0.036090 -0.028272
v 0.265392 0.039752 -0.026286
v 0.282457 0.036154 -0.027850
v 0.299388 0.039880 -0.025442
v 0.316453 0.036282 -0.027006
v 0.299455 0.036218 -0.027428
v 0.298873 0.043697 -0.005416
v 0.281875 0.043634 -0.005838
v 0.299106 0.043366 -0.014768
v 0.264409 0.044232 0.012445
v 0.247411 0.044168 0.012023
v 0.264643 0.043901 0.003092
v 0.247879 0.043506 -0.006682
v 0.265111 0.043239 -0.015613
v 0.264877 0.043570 -0.006260
v -0.221059 0.037092 0.007470
v -0.229374 0.037524 0.007262
v -0.221085 0.032465 0.009413
v -0.237637 0.047210 0.003169
v -0.245952 0.047642 0.002960
v -0.237663 0.042583 0.005111
v -0.246004 0.038389 0.006844
v -0.237715 0.033329 0.008995
v -0.237689 0.037956 0.007053
v -0.220876 0.018529 0.003722
v -0.229191 0.018961 0.003514
v -0.220807 0.013884 0.001825
v -0.237645 0.028684 0.007098
v -0.245961 0.029116 0.006890
v -0.237576 0.024039 0.005202
v -0.245822 0.019826 0.003096
v -0.237437 0.014748 0.001408
v -0.237506 0.019393 0.003305
v -0.219992 0.011809 -0.030604
v -0.228307 0.012241 -0.030812
v -0.219886 0.013706 -0.035247
v -0.236834 0.008878 -0.021734
v -0.245149 0.009310 -0.021942
v -0.236728 0.010776 -0.026377
v -0.244937 0.013105 -0.031230
v -0.236516 0.014571 -0.035665
v -0.236622 0.012673 -0.031021
v -0.219808 0.027587 -0.041075
v -0.228123 0.028019 -0.041283
v -0.219782 0.032214 -0.043017
v -0.236490 0.019198 -0.037607
v -0.244805 0.019630 -0.037816
v -0.236464 0.023825 -0.039550
v -0.244753 0.028884 -0.041701
v -0.236412 0.033079 -0.043435
v -0.236438 0.028452 -0.041492
v -0.219990 0.046149 -0.037326
v -0.228305 0.046582 -0.037535
v -0.220060 0.050795 -0.035429
v -0.236482 0.037724 -0.041538
v -0.244797 0.038156 -0.041746
v -0.236551 0.042369 -0.039641
v -0.244936 0.047447 -0.037952
v -0.236690 0.051660 -0.035846
v -0.236621 0.047014 -0.037743
v -0.220184 0.052737 -0.030804
v -0.220308 0.054679 -0.026179
v -0.211869 0.052305 -0.030596
v -0.237063 0.057486 -0.021972
v -0.237187 0.059429 -0.017347
v -0.228747 0.057054 -0.021763
v -0.220557 0.058564 -0.016930
v -0.212117 0.056190 -0.021346
v -0.220432 0.056622 -0.021555
v -0.219744 -0.040879 -0.030346
v -0.228059 -0.040447 -0.030554
v -0.219638 -0.038981 -0.034989
v -0.236587 -0.043811 -0.021476
v -0.244902 -0.043378 -0.021684
v -0.236481 -0.041912 -0.026119
v -0.244690 -0.039582 -0.030972
v -0.236268 -0.038116 -0.035407
v -0.236374 -0.040014 -0.030763
v -0.219604 -0.015828 -0.040862
v -0.227919 -0.015396 -0.041071
v -0.219534 -0.020473 -0.042759
v -0.236373 -0.005673 -0.037485
v -0.244688 -0.005241 -0.037694
v -0.236304 -0.010318 -0.039382
v -0.244549 -0.014532 -0.041488
v -0.236165 -0.019609 -0.043177
v -0.236234 -0.014964 -0.041279
v -0.219937 0.000110 -0.030546
v -0.228252 0.000542 -0.030755
v -0.219812 -0.001892 -0.035171
v -0.236816 0.004978 -0.021715
v -0.245131 0.005410 -0.021923
v -0.236691 0.002976 -0.026339
v -0.244882 0.001406 -0.031172
v -0.236443 -0.001028 -0.035588
v -0.236567 0.000974 -0.030964
v -0.220759 -0.006342 0.003844
v -0.229074 -0.005910 0.003635
v -0.220733 -0.001715 0.001902
v -0.237441 -0.014731 0.007311
v -0.245757 -0.014299 0.007103
v -0.237416 -0.010104 0.005369
v -0.245705 -0.005045 0.003218
v -0.237364 -0.000850 0.001485
v -0.237390 -0.005477 0.003427
v -0.220435 -0.040746 -0.002541
v -0.228750 -0.040314 -0.002750
v -0.220559 -0.038804 0.002084
v -0.236817 -0.043766 -0.012207
v -0.245132 -0.043334 -0.012416
v -0.236941 -0.041824 -0.007583
v -0.245380 -0.039449 -0.003167
v -0.237189 -0.037939 0.001666
v -0.237065 -0.039881 -0.002958
f 6 507 509
f 507 195 508
f 508 197 509
f 507 508 509
f 195 510 512
f 510 3 511
f 511 196 512
f 510 511 512
f 196 513 515
f 513 1 514
f 514 197 515
f 513 514 515
f 195 512 508
f 512 196 515
f 515 197 508
f 512 515 508
f 1 513 514
f 513 196 515
f 515 197 514
f 513 515 514
f 196 511 512
f 511 3 510
f 510 195 512
f 511 510 512
f 195 507 508
f 507 6 509
f 509 197 508
f 507 509 508
f 196 512 515
f 512 195 508
f 508 197 515
f 512 508 515
f 5 516 518
f 516 198 517
f 517 200 518
f 516 517 518
f 198 519 521
f 519 10 520
f 520 199 521
f 519 520 521
f 199 522 524
f 522 9 523
f 523 200 524
f 522 523 524
f 198 521 517
f 521 199 524
f 524 200 517
f 521 524 517
f 9 522 523
f 522 199 524
f 524 200 523
f 522 524 523
f 199 520 521
f 520 10 519
f 519 198 521
f 520 519 521
f 198 516 517
f 516 5 518
f 518 200 517
f 516 518 517
f 199 521 524
f 521 198 517
f 517 200 524
f 521 517 524
f 2 525 527
f 525 201 526
f 526 203 527
f 525 526 527
f 201 528 530
f 528 3 529
f 529 202 530
f 528 529 530
f 202 531 533
f 531 8 532
f 532 203 533
f 531 532 533
f 201 530 526
f 530 202 533
f 533 203 526
f 530 533 526
f 8 531 532
f 531 202 533
f 533 203 532
f 531 533 532
f 202 529 530
f 529 3 528
f 528 201 530
f 529 528 530
f 201 525 526
f 525 2 527
f 527 203 526
f 525 527 526
f 202 530 533
f 530 201 526
f 526 203 533
f 530 526 533
f 11 534 536
f 534 204 535
f 535 206 536
f 534 535 536
f 204 537 539
f 537 9 538
f 538 205 539
f 537 538 539
f 205 540 542
f 540 12 541
f 541 206 542
f 540 541 542
f 204 539 535
f 539 205 542
f 542 206 535
f 539 542 535
f 12 540 541
f 540 205 542
f 542 206 541
f 540 542 541
f 205 538 539
f 538 9 537
f 537 204 539
f 538 537 539
f 204 534 535
f 534 11 536
f 536 206 535
f 534 536 535
f 205 539 542
f 539 204 535
f 535 206 542
f 539 535 542
f 13 543 545
f 543 207 544
f 544 209 545
f 543 544 545
f 207 546 548
f 546 8 547
f 547 208 548
f 546 547 548
f 208 549 551
f 549 14 550
f 550 209 551
f 549 550 551
f 207 548 544
f 548 208 551
f 551 209 544
f 548 551 544
f 14 549 550
f 549 208 551
f 551 209 550
f 549 551 550
f 208 547 548
f 547 8 546
f 546 207 548
f 547 546 548
f 207 543 544
f 543 13 545
f 545 209 544
f 543 545 544
f 208 548 551
f 548 207 544
f 544 209 551
f 548 544 551
f 15 552 554
f 552 210 553
f 553 212 554
f 552 553 554
f 210 555 557
f 555 14 556
f 556 211 557
f 555 556 557
f 211 558 560
f 558 16 559
f 559 212 560
f 558 559 560
f 210 557 553
f 557 211 560
f 560 212 553
f 557 560 553
f 16 558 559
f 558 211 560
f 560 212 559
f 558 560 559
f 211 556 557
f 556 14 555
f 555 210 557
f 556 555 557
f 210 552 553
f 552 15 554
f 554 212 553
f 552 554 553
f 211 557 560
f 557 210 553
f 553 212 560
f 557 553 560
f 7 561 563
f 561 213 562
f 562 215 563
f 561 562 563
f 213 564 566
f 564 15 565
f 565 214 566
f 564 565 566
f 214 567 569
f 567 4 568
f 568 215 569
f 567 568 569
f 213 566 562
f 566 214 569
f 569 215 562
f 566 569 562
f 4 567 568
f 567 214 569
f 569 215 568
f 567 569 568
f 214 565 566
f 565 15 564
f 564 213 566
f 565 564 566
f 213 561 562
f 561 7 563
f 563 215 562
f 561 563 562
f 214 566 569
f 566 213 562
f 562 215 569
f 566 562 569
f 18 570 572
f 570 216 571
f 571 218 572
f 570 571 572
f 216 573 575
f 573 20 574
f 574 217 575
f 573 574 575
f 217 576 578
f 576 21 577
f 577 218 578
f 576 577 578
f 216 575 571
f 575 217 578
f 578 218 571
f 575 578 571
f 21 576 577
f 576 217 578
f 578 218 577
f 576 578 577
f 217 574 575
f 574 20 573
f 573 216 575
f 574 573 575
f 216 570 571
f 570 18 572
f 572 218 571
f 570 572 571
f 217 575 578
f 575 216 571
f 571 218 578
f 575 571 578
f 19 579 581
f 579 219 580
f 580 221 581
f 579 580 581
f 219 582 584
f 582 22 583
f 583 220 584
f 582 583 584
f 220 585 587
f 585 17 586
f 586 221 587
f 585 586 587
f 219 584 580
f 584 220 587
f 587 221 580
f 584 587 580
f 17 585 586
f 585 220 587
f 587 221 586
f 585 587 586
f 220 583 584
f 583 22 582
f 582 219 584
f 583 582 584
f 219 579 580
f 579 19 581
f 581 221 580
f 579 581 580
f 220 584 587
f 584 219 580
f 580 221 587
f 584 580 587
f 23 588 590
f 588 222 589
f 589 224 590
f 588 589 590
f 222 591 593
f 591 24 592
f 592 223 593
f 591 592 593
f 223 594 596
f 594 26 595
f 595 224 596
f 594 595 596
f 222 593 589
f 593 223 596
f 596 224 589
f 593 596 589
f 26 594 595
f 594 223 596
f 596 224 595
f 594 596 595
f 223 592 593
f 592 24 591
f 591 222 593
f 592 591 593
f 222 588 589
f 588 23 590
f 590 224 589
f 588 590 589
f 223 593 596
f 593 222 589
f 589 224 596
f 593 589 596
f 23 597 599
f 597 225 598
f 598 227 599
f 597 598 599
f 225 600 602
f 600 25 601
f 601 226 602
f 600 601 602
f 226 603 605
f 603 27 604
f 604 227 605
f 603 604 605
f 225 602 598
f 602 226 605
f 605 227 598
f 602 605 598
f 27 603 604
f 603 226 605
f 605 227 604
f 603 605 604
f 226 601 602
f 601 25 600
f 600 225 602
f 601 600 602
f 225 597 598
f 597 23 599
f 599 227 598
f 597 599 598
f 226 602 605
f 602 225 598
f 598 227 605
f 602 598 605
f 29 606 608
f 606 228 607
f 607 230 608
f 606 607 608
f 228 609 611
f 609 30 610
f 610 229 611
f 609 610 611
f 229 612 614
f 612 28 613
f 613 230 614
f 612 613 614
f 228 611 607
f 611 229 614
f 614 230 607
f 611 614 607
f 28 612 613
f 612 229 614
f 614 230 613
f 612 614 613
f 229 610 611
f 610 30 609
f 609 228 611
f 610 609 611
f 228 606 607
f 606 29 608
f 608 230 607
f 606 608 607
f 229 611 614
f 611 228 607
f 607 230 614
f 611 607 614
f 31 615 617
f 615 231 616
f 616 233 617
f 615 616 617
f 231 618 620
f 618 28 619
f 619 232 620
f 618 619 620
f 232 621 623
f 621 32 622
f 622 233 623
f 621 622 623
f 231 620 616
f 620 232 623
f 623 233 616
f 620 623 616
f 32 621 622
f 621 232 623
f 623 233 622
f 621 623 622
f 232 619 620
f 619 28 618
f 618 231 620
f 619 618 620
f 231 615 616
f 615 31 617
f 617 233 616
f 615 617 616
f 232 620 623
f 620 231 616
f 616 233 623
f 620 616 623
f 33 624 626
f 624 234 625
f 625 236 626
f 624 625 626
f 234 627 629
f 627 34 628
f 628 235 629
f 627 628 629
f 235 630 632
f 630 35 631
f 631 236 632
f 630 631 632
f 234 629 625
f 629 235 632
f 632 236 625
f 629 632 625
f 35 630 631
f 630 235 632
f 632 236 631
f 630 632 631
f 235 628 629
f 628 34 627
f 627 234 629
f 628 627 629
f 234 624 625
f 624 33 626
f 626 236 625
f 624 626 625
f 235 629 632
f 629 234 625
f 625 236 632
f 629 625 632
f 33 633 635
f 633 237 634
f 634 239 635
f 633 634 635
f 237 636 638
f 636 36 637
f 637 238 638
f 636 637 638
f 238 639 641
f 639 37 640
f 640 239 641
f 639 640 641
f 237 638 634
f 638 238 641
f 641 239 634
f 638 641 634
f 37 639 640
f 639 238 641
f 641 239 640
f 639 641 640
f 238 637 638
f 637 36 636
f 636 237 638
f 637 636 638
f 237 633 634
f 633 33 635
f 635 239 634
f 633 635 634
f 238 638 641
f 638 237 634
f 634 239 641
f 638 634 641
f 38 642 644
f 642 240 643
f 643 242 644
f 642 643 644
f 240 645 647
f 645 40 646
f 646 241 647
f 645 646 647
f 241 648 650
f 648 43 649
f 649 242 650
f 648 649 650
f 240 647 643
f 647 241 650
f 650 242 643
f 647 650 643
f 43 648 649
f 648 241 650
f 650 242 649
f 648 650 649
f 241 646 647
f 646 40 645
f 645 240 647
f 646 645 647
f 240 642 643
f 642 38 644
f 644 242 643
f 642 644 643
f 241 647 650
f 647 240 643
f 643 242 650
f 647 643 650
f 54 651 653
f 651 243 652
f 652 245 653
f 651 652 653
f 243 654 656
f 654 55 655
f 655 244 656
f 654 655 656
f 244 657 659
f 657 57 658
f 658 245 659
f 657 658 659
f 243 656 652
f 656 244 659
f 659 245 652
f 656 659 652
f 57 657 658
f 657 244 659
f 659 245 658
f 657 659 658
f 244 655 656
f 655 55 654
f 654 243 656
f 655 654 656
f 243 651 652
f 651 54 653
f 653 245 652
f 651 653 652
f 244 656 659
f 656 243 652
f 652 245 659
f 656 652 659
f 56 660 662
f 660 246 661
f 661 248 662
f 660 661 662
f 246 663 665
f 663 61 664
f 664 247 665
f 663 664 665
f 247 666 668
f 666 62 667
f 667 248 668
f 666 667 668
f 246 665 661
f 665 247 668
f 668 248 661
f 665 668 661
f 62 666 667
f 666 247 668
f 668 248 667
f 666 668 667
f 247 664 665
f 664 61 663
f 663 246 665
f 664 663 665
f 246 660 661
f 660 56 662
f 662 248 661
f 660 662 661
f 247 665 668
f 665 246 661
f 661 248 668
f 665 661 668
f 55 669 671
f 669 249 670
f 670 251 671
f 669 670 671
f 249 672 674
f 672 63 673
f 673 250 674
f 672 673 674
f 250 675 677
f 675 64 676
f 676 251 677
f 675 676 677
f 249 674 670
f 674 250 677
f 677 251 670
f 674 677 670
f 64 675 676
f 675 250 677
f 677 251 676
f 675 677 676
f 250 673 674
f 673 63 672
f 672 249 674
f 673 672 674
f 249 669 670
f 669 55 671
f 671 251 670
f 669 671 670
f 250 674 677
f 674 249 670
f 670 251 677
f 674 670 677
f 58 678 680
f 678 252 679
f 679 254 680
f 678 679 680
f 252 681 683
f 681 68 682
f 682 253 683
f 681 682 683
f 253 684 686
f 684 69 685
f 685 254 686
f 684 685 686
f 252 683 679
f 683 253 686
f 686 254 679
f 683 686 679
f 69 684 685
f 684 253 686
f 686 254 685
f 684 686 685
f 253 682 683
f 682 68 681
f 681 252 683
f 682 681 683
f 252 678 679
f 678 58 680
f 680 254 679
f 678 680 679
f 253 683 686
f 683 252 679
f 679 254 686
f 683 679 686
f 59 687 689
f 687 255 688
f 688 257 689
f 687 688 689
f 255 690 692
f 690 70 691
f 691 256 692
f 690 691 692
f 256 693 695
f 693 71 694
f 694 257 695
f 693 694 695
f 255 692 688
f 692 256 695
f 695 257 688
f 692 695 688
f 71 693 694
f 693 256 695
f 695 257 694
f 693 695 694
f 256 691 692
f 691 70 690
f 690 255 692
f 691 690 692
f 255 687 688
f 687 59 689
f 689 257 688
f 687 689 688
f 256 692 695
f 692 255 688
f 688 257 695
f 692 688 695
f 60 696 698
f 696 258 697
f 697 260 698
f 696 697 698
f 258 699 701
f 699 71 700
f 700 259 701
f 699 700 701
f 259 702 704
f 702 61 703
f 703 260 704
f 702 703 704
f 258 701 697
f 701 259 704
f 704 260 697
f 701 704 697
f 61 702 703
f 702 259 704
f 704 260 703
f 702 704 703
f 259 700 701
f 700 71 699
f 699 258 701
f 700 699 701
f 258 696 697
f 696 60 698
f 698 260 697
f 696 698 697
f 259 701 704
f 701 258 697
f 697 260 704
f 701 697 704
f 72 705 707
f 705 261 706
f 706 263 707
f 705 706 707
f 261 708 710
f 708 70 709
f 709 262 710
f 708 709 710
f 262 711 713
f 711 73 712
f 712 263 713
f 711 712 713
f 261 710 706
f 710 262 713
f 713 263 706
f 710 713 706
f 73 711 712
f 711 262 713
f 713 263 712
f 711 713 712
f 262 709 710
f 709 70 708
f 708 261 710
f 709 708 710
f 261 705 706
f 705 72 707
f 707 263 706
f 705 707 706
f 262 710 713
f 710 261 706
f 706 263 713
f 710 706 713
f 74 714 716
f 714 264 715
f 715 266 716
f 714 715 716
f 264 717 719
f 717 70 718
f 718 265 719
f 717 718 719
f 265 720 722
f 720 69 721
f 721 266 722
f 720 721 722
f 264 719 715
f 719 265 722
f 722 266 715
f 719 722 715
f 69 720 721
f 720 265 722
f 722 266 721
f 720 722 721
f 265 718 719
f 718 70 717
f 717 264 719
f 718 717 719
f 264 714 715
f 714 74 716
f 716 266 715
f 714 716 715
f 265 719 722
f 719 264 715
f 715 266 722
f 719 715 722
f 75 723 725
f 723 267 724
f 724 269 725
f 723 724 725
f 267 726 728
f 726 67 727
f 727 268 728
f 726 727 728
f 268 729 731
f 729 68 730
f 730 269 731
f 729 730 731
f 267 728 724
f 728 268 731
f 731 269 724
f 728 731 724
f 68 729 730
f 729 268 731
f 731 269 730
f 729 731 730
f 268 727 728
f 727 67 726
f 726 267 728
f 727 726 728
f 267 723 724
f 723 75 725
f 725 269 724
f 723 725 724
f 268 728 731
f 728 267 724
f 724 269 731
f 728 724 731
f 76 732 734
f 732 270 733
f 733 272 734
f 732 733 734
f 270 735 737
f 735 66 736
f 736 271 737
f 735 736 737
f 271 738 740
f 738 67 739
f 739 272 740
f 738 739 740
f 270 737 733
f 737 271 740
f 740 272 733
f 737 740 733
f 67 738 739
f 738 271 740
f 740 272 739
f 738 740 739
f 271 736 737
f 736 66 735
f 735 270 737
f 736 735 737
f 270 732 733
f 732 76 734
f 734 272 733
f 732 734 733
f 271 737 740
f 737 270 733
f 733 272 740
f 737 733 740
f 77 741 743
f 741 273 742
f 742 275 743
f 741 742 743
f 273 744 746
f 744 78 745
f 745 274 746
f 744 745 746
f 274 747 749
f 747 65 748
f 748 275 749
f 747 748 749
f 273 746 742
f 746 274 749
f 749 275 742
f 746 749 742
f 65 747 748
f 747 274 749
f 749 275 748
f 747 749 748
f 274 745 746
f 745 78 744
f 744 273 746
f 745 744 746
f 273 741 742
f 741 77 743
f 743 275 742
f 741 743 742
f 274 746 749
f 746 273 742
f 742 275 749
f 746 742 749
f 79 750 752
f 750 276 751
f 751 278 752
f 750 751 752
f 276 753 755
f 753 65 754
f 754 277 755
f 753 754 755
f 277 756 758
f 756 64 757
f 757 278 758
f 756 757 758
f 276 755 751
f 755 277 758
f 758 278 751
f 755 758 751
f 64 756 757
f 756 277 758
f 758 278 757
f 756 758 757
f 277 754 755
f 754 65 753
f 753 276 755
f 754 753 755
f 276 750 751
f 750 79 752
f 752 278 751
f 750 752 751
f 277 755 758
f 755 276 751
f 751 278 758
f 755 751 758
f 82 759 761
f 759 279 760
f 760 281 761
f 759 760 761
f 279 762 764
f 762 83 763
f 763 280 764
f 762 763 764
f 280 765 767
f 765 43 766
f 766 281 767
f 765 766 767
f 279 764 760
f 764 280 767
f 767 281 760
f 764 767 760
f 43 765 766
f 765 280 767
f 767 281 766
f 765 767 766
f 280 763 764
f 763 83 762
f 762 279 764
f 763 762 764
f 279 759 760
f 759 82 761
f 761 281 760
f 759 761 760
f 280 764 767
f 764 279 760
f 760 281 767
f 764 760 767
f 82 768 770
f 768 282 769
f 769 284 770
f 768 769 770
f 282 771 773
f 771 84 772
f 772 283 773
f 771 772 773
f 283 774 776
f 774 85 775
f 775 284 776
f 774 775 776
f 282 773 769
f 773 283 776
f 776 284 769
f 773 776 769
f 85 774 775
f 774 283 776
f 776 284 775
f 774 776 775
f 283 772 773
f 772 84 771
f 771 282 773
f 772 771 773
f 282 768 769
f 768 82 770
f 770 284 769
f 768 770 769
f 283 773 776
f 773 282 769
f 769 284 776
f 773 769 776
f 87 777 779
f 777 285 778
f 778 287 779
f 777 778 779
f 285 780 782
f 780 86 781
f 781 286 782
f 780 781 782
f 286 783 785
f 783 88 784
f 784 287 785
f 783 784 785
f 285 782 778
f 782 286 785
f 785 287 778
f 782 785 778
f 88 783 784
f 783 286 785
f 785 287 784
f 783 785 784
f 286 781 782
f 781 86 780
f 780 285 782
f 781 780 782
f 285 777 778
f 777 87 779
f 779 287 778
f 777 779 778
f 286 782 785
f 782 285 778
f 778 287 785
f 782 778 785
f 42 786 788
f 786 288 787
f 787 290 788
f 786 787 788
f 288 789 791
f 789 89 790
f 790 289 791
f 789 790 791
f 289 792 794
f 792 90 793
f 793 290 794
f 792 793 794
f 288 791 787
f 791 289 794
f 794 290 787
f 791 794 787
f 90 792 793
f 792 289 794
f 794 290 793
f 792 794 793
f 289 790 791
f 790 89 789
f 789 288 791
f 790 789 791
f 288 786 787
f 786 42 788
f 788 290 787
f 786 788 787
f 289 791 794
f 791 288 787
f 787 290 794
f 791 787 794
f 77 795 797
f 795 291 796
f 796 293 797
f 795 796 797
f 291 798 800
f 798 90 799
f 799 292 800
f 798 799 800
f 292 801 803
f 801 91 802
f 802 293 803
f 801 802 803
f 291 800 796
f 800 292 803
f 803 293 796
f 800 803 796
f 91 801 802
f 801 292 803
f 803 293 802
f 801 803 802
f 292 799 800
f 799 90 798
f 798 291 800
f 799 798 800
f 291 795 796
f 795 77 797
f 797 293 796
f 795 797 796
f 292 800 803
f 800 291 796
f 796 293 803
f 800 796 803
f 79 804 806
f 804 294 805
f 805 296 806
f 804 805 806
f 294 807 809
f 807 91 808
f 808 295 809
f 807 808 809
f 295 810 812
f 810 92 811
f 811 296 812
f 810 811 812
f 294 809 805
f 809 295 812
f 812 296 805
f 809 812 805
f 92 810 811
f 810 295 812
f 812 296 811
f 810 812 811
f 295 808 809
f 808 91 807
f 807 294 809
f 808 807 809
f 294 804 805
f 804 79 806
f 806 296 805
f 804 806 805
f 295 809 812
f 809 294 805
f 805 296 812
f 809 805 812
f 80 813 815
f 813 297 814
f 814 299 815
f 813 814 815
f 297 816 818
f 816 93 817
f 817 298 818
f 816 817 818
f 298 819 821
f 819 94 820
f 820 299 821
f 819 820 821
f 297 818 814
f 818 298 821
f 821 299 814
f 818 821 814
f 94 819 820
f 819 298 821
f 821 299 820
f 819 821 820
f 298 817 818
f 817 93 816
f 816 297 818
f 817 816 818
f 297 813 814
f 813 80 815
f 815 299 814
f 813 815 814
f 298 818 821
f 818 297 814
f 814 299 821
f 818 814 821
f 81 822 824
f 822 300 823
f 823 302 824
f 822 823 824
f 300 825 827
f 825 95 826
f 826 301 827
f 825 826 827
f 301 828 830
f 828 96 829
f 829 302 830
f 828 829 830
f 300 827 823
f 827 301 830
f 830 302 823
f 827 830 823
f 96 828 829
f 828 301 830
f 830 302 829
f 828 830 829
f 301 826 827
f 826 95 825
f 825 300 827
f 826 825 827
f 300 822 823
f 822 81 824
f 824 302 823
f 822 824 823
f 301 827 830
f 827 300 823
f 823 302 830
f 827 823 830
f 101 831 833
f 831 303 832
f 832 305 833
f 831 832 833
f 303 834 836
f 834 39 835
f 835 304 836
f 834 835 836
f 304 837 839
f 837 102 838
f 838 305 839
f 837 838 839
f 303 836 832
f 836 304 839
f 839 305 832
f 836 839 832
f 102 837 838
f 837 304 839
f 839 305 838
f 837 839 838
f 304 835 836
f 835 39 834
f 834 303 836
f 835 834 836
f 303 831 832
f 831 101 833
f 833 305 832
f 831 833 832
f 304 836 839
f 836 303 832
f 832 305 839
f 836 832 839
f 102 840 842
f 840 306 841
f 841 308 842
f 840 841 842
f 306 843 845
f 843 99 844
f 844 307 845
f 843 844 845
f 307 846 848
f 846 100 847
f 847 308 848
f 846 847 848
f 306 845 841
f 845 307 848
f 848 308 841
f 845 848 841
f 100 846 847
f 846 307 848
f 848 308 847
f 846 848 847
f 307 844 845
f 844 99 843
f 843 306 845
f 844 843 845
f 306 840 841
f 840 102 842
f 842 308 841
f 840 842 841
f 307 845 848
f 845 306 841
f 841 308 848
f 845 841 848
f 107 849 851
f 849 309 850
f 850 311 851
f 849 850 851
f 309 852 854
f 852 74 853
f 853 310 854
f 852 853 854
f 310 855 857
f 855 106 856
f 856 311 857
f 855 856 857
f 309 854 850
f 854 310 857
f 857 311 850
f 854 857 850
f 106 855 856
f 855 310 857
f 857 311 856
f 855 857 856
f 310 853 854
f 853 74 852
f 852 309 854
f 853 852 854
f 309 849 850
f 849 107 851
f 851 311 850
f 849 851 850
f 310 854 857
f 854 309 850
f 850 311 857
f 854 850 857
f 104 858 860
f 858 312 859
f 859 314 860
f 858 859 860
f 312 861 863
f 861 41 862
f 862 313 863
f 861 862 863
f 313 864 866
f 864 103 865
f 865 314 866
f 864 865 866
f 312 863 859
f 863 313 866
f 866 314 859
f 863 866 859
f 103 864 865
f 864 313 866
f 866 314 865
f 864 866 865
f 313 862 863
f 862 41 861
f 861 312 863
f 862 861 863
f 312 858 859
f 858 104 860
f 860 314 859
f 858 860 859
f 313 863 866
f 863 312 859
f 859 314 866
f 863 859 866
f 103 867 869
f 867 315 868
f 868 317 869
f 867 868 869
f 315 870 872
f 870 39 871
f 871 316 872
f 870 871 872
f 316 873 875
f 873 110 874
f 874 317 875
f 873 874 875
f 315 872 868
f 872 316 875
f 875 317 868
f 872 875 868
f 110 873 874
f 873 316 875
f 875 317 874
f 873 875 874
f 316 871 872
f 871 39 870
f 870 315 872
f 871 870 872
f 315 867 868
f 867 103 869
f 869 317 868
f 867 869 868
f 316 872 875
f 872 315 868
f 868 317 875
f 872 868 875
f 105 876 878
f 876 318 877
f 877 320 878
f 876 877 878
f 318 879 881
f 879 76 880
f 880 319 881
f 879 880 881
f 319 882 884
f 882 104 883
f 883 320 884
f 882 883 884
f 318 881 877
f 881 319 884
f 884 320 877
f 881 884 877
f 104 882 883
f 882 319 884
f 884 320 883
f 882 884 883
f 319 880 881
f 880 76 879
f 879 318 881
f 880 879 881
f 318 876 877
f 876 105 878
f 878 320 877
f 876 878 877
f 319 881 884
f 881 318 877
f 877 320 884
f 881 877 884
f 96 885 887
f 885 321 886
f 886 323 887
f 885 886 887
f 321 888 890
f 888 72 889
f 889 322 890
f 888 889 890
f 322 891 893
f 891 108 892
f 892 323 893
f 891 892 893
f 321 890 886
f 890 322 893
f 893 323 886
f 890 893 886
f 108 891 892
f 891 322 893
f 893 323 892
f 891 893 892
f 322 889 890
f 889 72 888
f 888 321 890
f 889 888 890
f 321 885 886
f 885 96 887
f 887 323 886
f 885 887 886
f 322 890 893
f 890 321 886
f 886 323 893
f 890 886 893
f 109 894 896
f 894 324 895
f 895 326 896
f 894 895 896
f 324 897 899
f 897 97 898
f 898 325 899
f 897 898 899
f 325 900 902
f 900 98 901
f 901 326 902
f 900 901 902
f 324 899 895
f 899 325 902
f 902 326 895
f 899 902 895
f 98 900 901
f 900 325 902
f 902 326 901
f 900 902 901
f 325 898 899
f 898 97 897
f 897 324 899
f 898 897 899
f 324 894 895
f 894 109 896
f 896 326 895
f 894 896 895
f 325 899 902
f 899 324 895
f 895 326 902
f 899 895 902
f 83 903 905
f 903 327 904
f 904 329 905
f 903 904 905
f 327 906 908
f 906 112 907
f 907 328 908
f 906 907 908
f 328 909 911
f 909 84 910
f 910 329 911
f 909 910 911
f 327 908 904
f 908 328 911
f 911 329 904
f 908 911 904
f 84 909 910
f 909 328 911
f 911 329 910
f 909 911 910
f 328 907 908
f 907 112 906
f 906 327 908
f 907 906 908
f 327 903 904
f 903 83 905
f 905 329 904
f 903 905 904
f 328 908 911
f 908 327 904
f 904 329 911
f 908 904 911
f 113 912 914
f 912 330 913
f 913 332 914
f 912 913 914
f 330 915 917
f 915 114 916
f 916 331 917
f 915 916 917
f 331 918 920
f 918 98 919
f 919 332 920
f 918 919 920
f 330 917 913
f 917 331 920
f 920 332 913
f 917 920 913
f 98 918 919
f 918 331 920
f 920 332 919
f 918 920 919
f 331 916 917
f 916 114 915
f 915 330 917
f 916 915 917
f 330 912 913
f 912 113 914
f 914 332 913
f 912 914 913
f 331 917 920
f 917 330 913
f 913 332 920
f 917 913 920
f 115 921 923
f 921 333 922
f 922 335 923
f 921 922 923
f 333 924 926
f 924 100 925
f 925 334 926
f 924 925 926
f 334 927 929
f 927 116 928
f 928 335 929
f 927 928 929
f 333 926 922
f 926 334 929
f 929 335 922
f 926 929 922
f 116 927 928
f 927 334 929
f 929 335 928
f 927 929 928
f 334 925 926
f 925 100 924
f 924 333 926
f 925 924 926
f 333 921 922
f 921 115 923
f 923 335 922
f 921 923 922
f 334 926 929
f 926 333 922
f 922 335 929
f 926 922 929
f 117 930 932
f 930 336 931
f 931 338 932
f 930 931 932
f 336 933 935
f 933 105 934
f 934 337 935
f 933 934 935
f 337 936 938
f 936 118 937
f 937 338 938
f 936 937 938
f 336 935 931
f 935 337 938
f 938 338 931
f 935 938 931
f 118 936 937
f 936 337 938
f 938 338 937
f 936 938 937
f 337 934 935
f 934 105 933
f 933 336 935
f 934 933 935
f 336 930 931
f 930 117 932
f 932 338 931
f 930 932 931
f 337 935 938
f 935 336 931
f 931 338 938
f 935 931 938
f 120 939 941
f 939 339 940
f 940 341 941
f 939 940 941
f 339 942 944
f 942 106 943
f 943 340 944
f 942 943 944
f 340 945 947
f 945 117 946
f 946 341 947
f 945 946 947
f 339 944 940
f 944 340 947
f 947 341 940
f 944 947 940
f 117 945 946
f 945 340 947
f 947 341 946
f 945 947 946
f 340 943 944
f 943 106 942
f 942 339 944
f 943 942 944
f 339 939 940
f 939 120 941
f 941 341 940
f 939 941 940
f 340 944 947
f 944 339 940
f 940 341 947
f 944 940 947
f 123 948 950
f 948 342 949
f 949 344 950
f 948 949 950
f 342 951 953
f 951 93 952
f 952 343 953
f 951 952 953
f 343 954 956
f 954 124 955
f 955 344 956
f 954 955 956
f 342 953 949
f 953 343 956
f 956 344 949
f 953 956 949
f 124 954 955
f 954 343 956
f 956 344 955
f 954 956 955
f 343 952 953
f 952 93 951
f 951 342 953
f 952 951 953
f 342 948 949
f 948 123 950
f 950 344 949
f 948 950 949
f 343 953 956
f 953 342 949
f 949 344 956
f 953 949 956
f 124 957 959
f 957 345 958
f 958 347 959
f 957 958 959
f 345 960 962
f 960 92 961
f 961 346 962
f 960 961 962
f 346 963 965
f 963 126 964
f 964 347 965
f 963 964 965
f 345 962 958
f 962 346 965
f 965 347 958
f 962 965 958
f 126 963 964
f 963 346 965
f 965 347 964
f 963 965 964
f 346 961 962
f 961 92 960
f 960 345 962
f 961 960 962
f 345 957 958
f 957 124 959
f 959 347 958
f 957 959 958
f 346 962 965
f 962 345 958
f 958 347 965
f 962 958 965
f 128 966 968
f 966 348 967
f 967 350 968
f 966 967 968
f 348 969 971
f 969 89 970
f 970 349 971
f 969 970 971
f 349 972 974
f 972 122 973
f 973 350 974
f 972 973 974
f 348 971 967
f 971 349 974
f 974 350 967
f 971 974 967
f 122 972 973
f 972 349 974
f 974 350 973
f 972 974 973
f 349 970 971
f 970 89 969
f 969 348 971
f 970 969 971
f 348 966 967
f 966 128 968
f 968 350 967
f 966 968 967
f 349 971 974
f 971 348 967
f 967 350 974
f 971 967 974
f 127 975 977
f 975 351 976
f 976 353 977
f 975 976 977
f 351 978 980
f 978 90 979
f 979 352 980
f 978 979 980
f 352 981 983
f 981 128 982
f 982 353 983
f 981 982 983
f 351 980 976
f 980 352 983
f 983 353 976
f 980 983 976
f 128 981 982
f 981 352 983
f 983 353 982
f 981 983 982
f 352 979 980
f 979 90 978
f 978 351 980
f 979 978 980
f 351 975 976
f 975 127 977
f 977 353 976
f 975 977 976
f 352 980 983
f 980 351 976
f 976 353 983
f 980 976 983
f 121 984 986
f 984 354 985
f 985 356 986
f 984 985 986
f 354 987 989
f 987 86 988
f 988 355 989
f 987 988 989
f 355 990 992
f 990 129 991
f 991 356 992
f 990 991 992
f 354 989 985
f 989 355 992
f 992 356 985
f 989 992 985
f 129 990 991
f 990 355 992
f 992 356 991
f 990 992 991
f 355 988 989
f 988 86 987
f 987 354 989
f 988 987 989
f 354 984 985
f 984 121 986
f 986 356 985
f 984 986 985
f 355 989 992
f 989 354 985
f 985 356 992
f 989 985 992
f 130 993 995
f 993 357 994
f 994 359 995
f 993 994 995
f 357 996 998
f 996 103 997
f 997 358 998
f 996 997 998
f 358 999 1001
f 999 131 1000
f 1000 359 1001
f 999 1000 1001
f 357 998 994
f 998 358 1001
f 1001 359 994
f 998 1001 994
f 131 999 1000
f 999 358 1001
f 1001 359 1000
f 999 1001 1000
f 358 997 998
f 997 103 996
f 996 357 998
f 997 996 998
f 357 993 994
f 993 130 995
f 995 359 994
f 993 995 994
f 358 998 1001
f 998 357 994
f 994 359 1001
f 998 994 1001
f 131 1002 1004
f 1002 360 1003
f 1003 362 1004
f 1002 1003 1004
f 360 1005 1007
f 1005 110 1006
f 1006 361 1007
f 1005 1006 1007
f 361 1008 1010
f 1008 132 1009
f 1009 362 1010
f 1008 1009 1010
f 360 1007 1003
f 1007 361 1010
f 1010 362 1003
f 1007 1010 1003
f 132 1008 1009
f 1008 361 1010
f 1010 362 1009
f 1008 1010 1009
f 361 1006 1007
f 1006 110 1005
f 1005 360 1007
f 1006 1005 1007
f 360 1002 1003
f 1002 131 1004
f 1004 362 1003
f 1002 1004 1003
f 361 1007 1010
f 1007 360 1003
f 1003 362 1010
f 1007 1003 1010
f 111 1011 1013
f 1011 363 1012
f 1012 365 1013
f 1011 1012 1013
f 363 1014 1016
f 1014 98 1015
f 1015 364 1016
f 1014 1015 1016
f 364 1017 1019
f 1017 83 1018
f 1018 365 1019
f 1017 1018 1019
f 363 1016 1012
f 1016 364 1019
f 1019 365 1012
f 1016 1019 1012
f 83 1017 1018
f 1017 364 1019
f 1019 365 1018
f 1017 1019 1018
f 364 1015 1016
f 1015 98 1014
f 1014 363 1016
f 1015 1014 1016
f 363 1011 1012
f 1011 111 1013
f 1013 365 1012
f 1011 1013 1012
f 364 1016 1019
f 1016 363 1012
f 1012 365 1019
f 1016 1012 1019
f 133 1020 1022
f 1020 366 1021
f 1021 368 1022
f 1020 1021 1022
f 366 1023 1025
f 1023 107 1024
f 1024 367 1025
f 1023 1024 1025
f 367 1026 1028
f 1026 120 1027
f 1027 368 1028
f 1026 1027 1028
f 366 1025 1021
f 1025 367 1028
f 1028 368 1021
f 1025 1028 1021
f 120 1026 1027
f 1026 367 1028
f 1028 368 1027
f 1026 1028 1027
f 367 1024 1025
f 1024 107 1023
f 1023 366 1025
f 1024 1023 1025
f 366 1020 1021
f 1020 133 1022
f 1022 368 1021
f 1020 1022 1021
f 367 1025 1028
f 1025 366 1021
f 1021 368 1028
f 1025 1021 1028
f 134 1029 1031
f 1029 369 1030
f 1030 371 1031
f 1029 1030 1031
f 369 1032 1034
f 1032 95 1033
f 1033 370 1034
f 1032 1033 1034
f 370 1035 1037
f 1035 125 1036
f 1036 371 1037
f 1035 1036 1037
f 369 1034 1030
f 1034 370 1037
f 1037 371 1030
f 1034 1037 1030
f 125 1035 1036
f 1035 370 1037
f 1037 371 1036
f 1035 1037 1036
f 370 1033 1034
f 1033 95 1032
f 1032 369 1034
f 1033 1032 1034
f 369 1029 1030
f 1029 134 1031
f 1031 371 1030
f 1029 1031 1030
f 370 1034 1037
f 1034 369 1030
f 1030 371 1037
f 1034 1030 1037
f 134 1038 1040
f 1038 372 1039
f 1039 374 1040
f 1038 1039 1040
f 372 1041 1043
f 1041 108 1042
f 1042 373 1043
f 1041 1042 1043
f 373 1044 1046
f 1044 119 1045
f 1045 374 1046
f 1044 1045 1046
f 372 1043 1039
f 1043 373 1046
f 1046 374 1039
f 1043 1046 1039
f 119 1044 1045
f 1044 373 1046
f 1046 374 1045
f 1044 1046 1045
f 373 1042 1043
f 1042 108 1041
f 1041 372 1043
f 1042 1041 1043
f 372 1038 1039
f 1038 134 1040
f 1040 374 1039
f 1038 1040 1039
f 373 1043 1046
f 1043 372 1039
f 1039 374 1046
f 1043 1039 1046
f 125 1047 1049
f 1047 375 1048
f 1048 377 1049
f 1047 1048 1049
f 375 1050 1052
f 1050 135 1051
f 1051 376 1052
f 1050 1051 1052
f 376 1053 1055
f 1053 136 1054
f 1054 377 1055
f 1053 1054 1055
f 375 1052 1048
f 1052 376 1055
f 1055 377 1048
f 1052 1055 1048
f 136 1053 1054
f 1053 376 1055
f 1055 377 1054
f 1053 1055 1054
f 376 1051 1052
f 1051 135 1050
f 1050 375 1052
f 1051 1050 1052
f 375 1047 1048
f 1047 125 1049
f 1049 377 1048
f 1047 1049 1048
f 376 1052 1055
f 1052 375 1048
f 1048 377 1055
f 1052 1048 1055
f 119 1056 1058
f 1056 378 1057
f 1057 380 1058
f 1056 1057 1058
f 378 1059 1061
f 1059 135 1060
f 1060 379 1061
f 1059 1060 1061
f 379 1062 1064
f 1062 137 1063
f 1063 380 1064
f 1062 1063 1064
f 378 1061 1057
f 1061 379 1064
f 1064 380 1057
f 1061 1064 1057
f 137 1062 1063
f 1062 379 1064
f 1064 380 1063
f 1062 1064 1063
f 379 1060 1061
f 1060 135 1059
f 1059 378 1061
f 1060 1059 1061
f 378 1056 1057
f 1056 119 1058
f 1058 380 1057
f 1056 1058 1057
f 379 1061 1064
f 1061 378 1057
f 1057 380 1064
f 1061 1057 1064
f 138 1065 1067
f 1065 381 1066
f 1066 383 1067
f 1065 1066 1067
f 381 1068 1070
f 1068 139 1069
f 1069 382 1070
f 1068 1069 1070
f 382 1071 1073
f 1071 140 1072
f 1072 383 1073
f 1071 1072 1073
f 381 1070 1066
f 1070 382 1073
f 1073 383 1066
f 1070 1073 1066
f 140 1071 1072
f 1071 382 1073
f 1073 383 1072
f 1071 1073 1072
f 382 1069 1070
f 1069 139 1068
f 1068 381 1070
f 1069 1068 1070
f 381 1065 1066
f 1065 138 1067
f 1067 383 1066
f 1065 1067 1066
f 382 1070 1073
f 1070 381 1066
f 1066 383 1073
f 1070 1066 1073
f 138 1074 1076
f 1074 384 1075
f 1075 386 1076
f 1074 1075 1076
f 384 1077 1079
f 1077 142 1078
f 1078 385 1079
f 1077 1078 1079
f 385 1080 1082
f 1080 143 1081
f 1081 386 1082
f 1080 1081 1082
f 384 1079 1075
f 1079 385 1082
f 1082 386 1075
f 1079 1082 1075
f 143 1080 1081
f 1080 385 1082
f 1082 386 1081
f 1080 1082 1081
f 385 1078 1079
f 1078 142 1077
f 1077 384 1079
f 1078 1077 1079
f 384 1074 1075
f 1074 138 1076
f 1076 386 1075
f 1074 1076 1075
f 385 1079 1082
f 1079 384 1075
f 1075 386 1082
f 1079 1075 1082
f 138 1083 1085
f 1083 387 1084
f 1084 389 1085
f 1083 1084 1085
f 387 1086 1088
f 1086 144 1087
f 1087 388 1088
f 1086 1087 1088
f 388 1089 1091
f 1089 145 1090
f 1090 389 1091
f 1089 1090 1091
f 387 1088 1084
f 1088 388 1091
f 1091 389 1084
f 1088 1091 1084
f 145 1089 1090
f 1089 388 1091
f 1091 389 1090
f 1089 1091 1090
f 388 1087 1088
f 1087 144 1086
f 1086 387 1088
f 1087 1086 1088
f 387 1083 1084
f 1083 138 1085
f 1085 389 1084
f 1083 1085 1084
f 388 1088 1091
f 1088 387 1084
f 1084 389 1091
f 1088 1084 1091
f 146 1092 1094
f 1092 390 1093
f 1093 392 1094
f 1092 1093 1094
f 390 1095 1097
f 1095 142 1096
f 1096 391 1097
f 1095 1096 1097
f 391 1098 1100
f 1098 147 1099
f 1099 392 1100
f 1098 1099 1100
f 390 1097 1093
f 1097 391 1100
f 1100 392 1093
f 1097 1100 1093
f 147 1098 1099
f 1098 391 1100
f 1100 392 1099
f 1098 1100 1099
f 391 1096 1097
f 1096 142 1095
f 1095 390 1097
f 1096 1095 1097
f 390 1092 1093
f 1092 146 1094
f 1094 392 1093
f 1092 1094 1093
f 391 1097 1100
f 1097 390 1093
f 1093 392 1100
f 1097 1093 1100
f 147 1101 1103
f 1101 393 1102
f 1102 395 1103
f 1101 1102 1103
f 393 1104 1106
f 1104 143 1105
f 1105 394 1106
f 1104 1105 1106
f 394 1107 1109
f 1107 148 1108
f 1108 395 1109
f 1107 1108 1109
f 393 1106 1102
f 1106 394 1109
f 1109 395 1102
f 1106 1109 1102
f 148 1107 1108
f 1107 394 1109
f 1109 395 1108
f 1107 1109 1108
f 394 1105 1106
f 1105 143 1104
f 1104 393 1106
f 1105 1104 1106
f 393 1101 1102
f 1101 147 1103
f 1103 395 1102
f 1101 1103 1102
f 394 1106 1109
f 1106 393 1102
f 1102 395 1109
f 1106 1102 1109
f 149 1110 1112
f 1110 396 1111
f 1111 398 1112
f 1110 1111 1112
f 396 1113 1115
f 1113 144 1114
f 1114 397 1115
f 1113 1114 1115
f 397 1116 1118
f 1116 150 1117
f 1117 398 1118
f 1116 1117 1118
f 396 1115 1111
f 1115 397 1118
f 1118 398 1111
f 1115 1118 1111
f 150 1116 1117
f 1116 397 1118
f 1118 398 1117
f 1116 1118 1117
f 397 1114 1115
f 1114 144 1113
f 1113 396 1115
f 1114 1113 1115
f 396 1110 1111
f 1110 149 1112
f 1112 398 1111
f 1110 1112 1111
f 397 1115 1118
f 1115 396 1111
f 1111 398 1118
f 1115 1111 1118
f 152 1119 1121
f 1119 399 1120
f 1120 401 1121
f 1119 1120 1121
f 399 1122 1124
f 1122 145 1123
f 1123 400 1124
f 1122 1123 1124
f 400 1125 1127
f 1125 151 1126
f 1126 401 1127
f 1125 1126 1127
f 399 1124 1120
f 1124 400 1127
f 1127 401 1120
f 1124 1127 1120
f 151 1125 1126
f 1125 400 1127
f 1127 401 1126
f 1125 1127 1126
f 400 1123 1124
f 1123 145 1122
f 1122 399 1124
f 1123 1122 1124
f 399 1119 1120
f 1119 152 1121
f 1121 401 1120
f 1119 1121 1120
f 400 1124 1127
f 1124 399 1120
f 1120 401 1127
f 1124 1120 1127
f 153 1128 1130
f 1128 402 1129
f 1129 404 1130
f 1128 1129 1130
f 402 1131 1133
f 1131 140 1132
f 1132 403 1133
f 1131 1132 1133
f 403 1134 1136
f 1134 154 1135
f 1135 404 1136
f 1134 1135 1136
f 402 1133 1129
f 1133 403 1136
f 1136 404 1129
f 1133 1136 1129
f 154 1134 1135
f 1134 403 1136
f 1136 404 1135
f 1134 1136 1135
f 403 1132 1133
f 1132 140 1131
f 1131 402 1133
f 1132 1131 1133
f 402 1128 1129
f 1128 153 1130
f 1130 404 1129
f 1128 1130 1129
f 403 1133 1136
f 1133 402 1129
f 1129 404 1136
f 1133 1129 1136
f 154 1137 1139
f 1137 405 1138
f 1138 407 1139
f 1137 1138 1139
f 405 1140 1142
f 1140 139 1141
f 1141 406 1142
f 1140 1141 1142
f 406 1143 1145
f 1143 155 1144
f 1144 407 1145
f 1143 1144 1145
f 405 1142 1138
f 1142 406 1145
f 1145 407 1138
f 1142 1145 1138
f 155 1143 1144
f 1143 406 1145
f 1145 407 1144
f 1143 1145 1144
f 406 1141 1142
f 1141 139 1140
f 1140 405 1142
f 1141 1140 1142
f 405 1137 1138
f 1137 154 1139
f 1139 407 1138
f 1137 1139 1138
f 406 1142 1145
f 1142 405 1138
f 1138 407 1145
f 1142 1138 1145
f 155 1146 1148
f 1146 408 1147
f 1147 410 1148
f 1146 1147 1148
f 408 1149 1151
f 1149 141 1150
f 1150 409 1151
f 1149 1150 1151
f 409 1152 1154
f 1152 146 1153
f 1153 410 1154
f 1152 1153 1154
f 408 1151 1147
f 1151 409 1154
f 1154 410 1147
f 1151 1154 1147
f 146 1152 1153
f 1152 409 1154
f 1154 410 1153
f 1152 1154 1153
f 409 1150 1151
f 1150 141 1149
f 1149 408 1151
f 1150 1149 1151
f 408 1146 1147
f 1146 155 1148
f 1148 410 1147
f 1146 1148 1147
f 409 1151 1154
f 1151 408 1147
f 1147 410 1154
f 1151 1147 1154
f 156 1155 1157
f 1155 411 1156
f 1156 413 1157
f 1155 1156 1157
f 411 1158 1160
f 1158 146 1159
f 1159 412 1160
f 1158 1159 1160
f 412 1161 1163
f 1161 157 1162
f 1162 413 1163
f 1161 1162 1163
f 411 1160 1156
f 1160 412 1163
f 1163 413 1156
f 1160 1163 1156
f 157 1161 1162
f 1161 412 1163
f 1163 413 1162
f 1161 1163 1162
f 412 1159 1160
f 1159 146 1158
f 1158 411 1160
f 1159 1158 1160
f 411 1155 1156
f 1155 156 1157
f 1157 413 1156
f 1155 1157 1156
f 412 1160 1163
f 1160 411 1156
f 1156 413 1163
f 1160 1156 1163
f 158 1164 1166
f 1164 414 1165
f 1165 416 1166
f 1164 1165 1166
f 414 1167 1169
f 1167 155 1168
f 1168 415 1169
f 1167 1168 1169
f 415 1170 1172
f 1170 156 1171
f 1171 416 1172
f 1170 1171 1172
f 414 1169 1165
f 1169 415 1172
f 1172 416 1165
f 1169 1172 1165
f 156 1170 1171
f 1170 415 1172
f 1172 416 1171
f 1170 1172 1171
f 415 1168 1169
f 1168 155 1167
f 1167 414 1169
f 1168 1167 1169
f 414 1164 1165
f 1164 158 1166
f 1166 416 1165
f 1164 1166 1165
f 415 1169 1172
f 1169 414 1165
f 1165 416 1172
f 1169 1165 1172
f 159 1173 1175
f 1173 417 1174
f 1174 419 1175
f 1173 1174 1175
f 417 1176 1178
f 1176 154 1177
f 1177 418 1178
f 1176 1177 1178
f 418 1179 1181
f 1179 158 1180
f 1180 419 1181
f 1179 1180 1181
f 417 1178 1174
f 1178 418 1181
f 1181 419 1174
f 1178 1181 1174
f 158 1179 1180
f 1179 418 1181
f 1181 419 1180
f 1179 1181 1180
f 418 1177 1178
f 1177 154 1176
f 1176 417 1178
f 1177 1176 1178
f 417 1173 1174
f 1173 159 1175
f 1175 419 1174
f 1173 1175 1174
f 418 1178 1181
f 1178 417 1174
f 1174 419 1181
f 1178 1174 1181
f 160 1182 1184
f 1182 420 1183
f 1183 422 1184
f 1182 1183 1184
f 420 1185 1187
f 1185 153 1186
f 1186 421 1187
f 1185 1186 1187
f 421 1188 1190
f 1188 159 1189
f 1189 422 1190
f 1188 1189 1190
f 420 1187 1183
f 1187 421 1190
f 1190 422 1183
f 1187 1190 1183
f 159 1188 1189
f 1188 421 1190
f 1190 422 1189
f 1188 1190 1189
f 421 1186 1187
f 1186 153 1185
f 1185 420 1187
f 1186 1185 1187
f 420 1182 1183
f 1182 160 1184
f 1184 422 1183
f 1182 1184 1183
f 421 1187 1190
f 1187 420 1183
f 1183 422 1190
f 1187 1183 1190
f 160 1191 1193
f 1191 423 1192
f 1192 425 1193
f 1191 1192 1193
f 423 1194 1196
f 1194 151 1195
f 1195 424 1196
f 1194 1195 1196
f 424 1197 1199
f 1197 161 1198
f 1198 425 1199
f 1197 1198 1199
f 423 1196 1192
f 1196 424 1199
f 1199 425 1192
f 1196 1199 1192
f 161 1197 1198
f 1197 424 1199
f 1199 425 1198
f 1197 1199 1198
f 424 1195 1196
f 1195 151 1194
f 1194 423 1196
f 1195 1194 1196
f 423 1191 1192
f 1191 160 1193
f 1193 425 1192
f 1191 1193 1192
f 424 1196 1199
f 1196 423 1192
f 1192 425 1199
f 1196 1192 1199
f 163 1200 1202
f 1200 426 1201
f 1201 428 1202
f 1200 1201 1202
f 426 1203 1205
f 1203 150 1204
f 1204 427 1205
f 1203 1204 1205
f 427 1206 1208
f 1206 162 1207
f 1207 428 1208
f 1206 1207 1208
f 426 1205 1201
f 1205 427 1208
f 1208 428 1201
f 1205 1208 1201
f 162 1206 1207
f 1206 427 1208
f 1208 428 1207
f 1206 1208 1207
f 427 1204 1205
f 1204 150 1203
f 1203 426 1205
f 1204 1203 1205
f 426 1200 1201
f 1200 163 1202
f 1202 428 1201
f 1200 1202 1201
f 427 1205 1208
f 1205 426 1201
f 1201 428 1208
f 1205 1201 1208
f 164 1209 1211
f 1209 429 1210
f 1210 431 1211
f 1209 1210 1211
f 429 1212 1214
f 1212 149 1213
f 1213 430 1214
f 1212 1213 1214
f 430 1215 1217
f 1215 163 1216
f 1216 431 1217
f 1215 1216 1217
f 429 1214 1210
f 1214 430 1217
f 1217 431 1210
f 1214 1217 1210
f 163 1215 1216
f 1215 430 1217
f 1217 431 1216
f 1215 1217 1216
f 430 1213 1214
f 1213 149 1212
f 1212 429 1214
f 1213 1212 1214
f 429 1209 1210
f 1209 164 1211
f 1211 431 1210
f 1209 1211 1210
f 430 1214 1217
f 1214 429 1210
f 1210 431 1217
f 1214 1210 1217
f 165 1218 1220
f 1218 432 1219
f 1219 434 1220
f 1218 1219 1220
f 432 1221 1223
f 1221 148 1222
f 1222 433 1223
f 1221 1222 1223
f 433 1224 1226
f 1224 164 1225
f 1225 434 1226
f 1224 1225 1226
f 432 1223 1219
f 1223 433 1226
f 1226 434 1219
f 1223 1226 1219
f 164 1224 1225
f 1224 433 1226
f 1226 434 1225
f 1224 1226 1225
f 433 1222 1223
f 1222 148 1221
f 1221 432 1223
f 1222 1221 1223
f 432 1218 1219
f 1218 165 1220
f 1220 434 1219
f 1218 1220 1219
f 433 1223 1226
f 1223 432 1219
f 1219 434 1226
f 1223 1219 1226
f 157 1227 1229
f 1227 435 1228
f 1228 437 1229
f 1227 1228 1229
f 435 1230 1232
f 1230 147 1231
f 1231 436 1232
f 1230 1231 1232
f 436 1233 1235
f 1233 165 1234
f 1234 437 1235
f 1233 1234 1235
f 435 1232 1228
f 1232 436 1235
f 1235 437 1228
f 1232 1235 1228
f 165 1233 1234
f 1233 436 1235
f 1235 437 1234
f 1233 1235 1234
f 436 1231 1232
f 1231 147 1230
f 1230 435 1232
f 1231 1230 1232
f 435 1227 1228
f 1227 157 1229
f 1229 437 1228
f 1227 1229 1228
f 436 1232 1235
f 1232 435 1228
f 1228 437 1235
f 1232 1228 1235
f 166 1236 1238
f 1236 438 1237
f 1237 440 1238
f 1236 1237 1238
f 438 1239 1241
f 1239 165 1240
f 1240 439 1241
f 1239 1240 1241
f 439 1242 1244
f 1242 167 1243
f 1243 440 1244
f 1242 1243 1244
f 438 1241 1237
f 1241 439 1244
f 1244 440 1237
f 1241 1244 1237
f 167 1242 1243
f 1242 439 1244
f 1244 440 1243
f 1242 1244 1243
f 439 1240 1241
f 1240 165 1239
f 1239 438 1241
f 1240 1239 1241
f 438 1236 1237
f 1236 166 1238
f 1238 440 1237
f 1236 1238 1237
f 439 1241 1244
f 1241 438 1237
f 1237 440 1244
f 1241 1237 1244
f 171 1245 1247
f 1245 441 1246
f 1246 443 1247
f 1245 1246 1247
f 441 1248 1250
f 1248 160 1249
f 1249 442 1250
f 1248 1249 1250
f 442 1251 1253
f 1251 170 1252
f 1252 443 1253
f 1251 1252 1253
f 441 1250 1246
f 1250 442 1253
f 1253 443 1246
f 1250 1253 1246
f 170 1251 1252
f 1251 442 1253
f 1253 443 1252
f 1251 1253 1252
f 442 1249 1250
f 1249 160 1248
f 1248 441 1250
f 1249 1248 1250
f 441 1245 1246
f 1245 171 1247
f 1247 443 1246
f 1245 1247 1246
f 442 1250 1253
f 1250 441 1246
f 1246 443 1253
f 1250 1246 1253
f 173 1254 1256
f 1254 444 1255
f 1255 446 1256
f 1254 1255 1256
f 444 1257 1259
f 1257 161 1258
f 1258 445 1259
f 1257 1258 1259
f 445 1260 1262
f 1260 170 1261
f 1261 446 1262
f 1260 1261 1262
f 444 1259 1255
f 1259 445 1262
f 1262 446 1255
f 1259 1262 1255
f 170 1260 1261
f 1260 445 1262
f 1262 446 1261
f 1260 1262 1261
f 445 1258 1259
f 1258 161 1257
f 1257 444 1259
f 1258 1257 1259
f 444 1254 1255
f 1254 173 1256
f 1256 446 1255
f 1254 1256 1255
f 445 1259 1262
f 1259 444 1255
f 1255 446 1262
f 1259 1255 1262
f 174 1263 1265
f 1263 447 1264
f 1264 449 1265
f 1263 1264 1265
f 447 1266 1268
f 1266 123 1267
f 1267 448 1268
f 1266 1267 1268
f 448 1269 1271
f 1269 136 1270
f 1270 449 1271
f 1269 1270 1271
f 447 1268 1264
f 1268 448 1271
f 1271 449 1264
f 1268 1271 1264
f 136 1269 1270
f 1269 448 1271
f 1271 449 1270
f 1269 1271 1270
f 448 1267 1268
f 1267 123 1266
f 1266 447 1268
f 1267 1266 1268
f 447 1263 1264
f 1263 174 1265
f 1265 449 1264
f 1263 1265 1264
f 448 1268 1271
f 1268 447 1264
f 1264 449 1271
f 1268 1264 1271
f 133 1272 1274
f 1272 450 1273
f 1273 452 1274
f 1272 1273 1274
f 450 1275 1277
f 1275 137 1276
f 1276 451 1277
f 1275 1276 1277
f 451 1278 1280
f 1278 171 1279
f 1279 452 1280
f 1278 1279 1280
f 450 1277 1273
f 1277 451 1280
f 1280 452 1273
f 1277 1280 1273
f 171 1278 1279
f 1278 451 1280
f 1280 452 1279
f 1278 1280 1279
f 451 1276 1277
f 1276 137 1275
f 1275 450 1277
f 1276 1275 1277
f 450 1272 1273
f 1272 133 1274
f 1274 452 1273
f 1272 1274 1273
f 451 1277 1280
f 1277 450 1273
f 1273 452 1280
f 1277 1273 1280
f 169 1281 1283
f 1281 453 1282
f 1282 455 1283
f 1281 1282 1283
f 453 1284 1286
f 1284 113 1285
f 1285 454 1286
f 1284 1285 1286
f 454 1287 1289
f 1287 177 1288
f 1288 455 1289
f 1287 1288 1289
f 453 1286 1282
f 1286 454 1289
f 1289 455 1282
f 1286 1289 1282
f 177 1287 1288
f 1287 454 1289
f 1289 455 1288
f 1287 1289 1288
f 454 1285 1286
f 1285 113 1284
f 1284 453 1286
f 1285 1284 1286
f 453 1281 1282
f 1281 169 1283
f 1283 455 1282
f 1281 1283 1282
f 454 1286 1289
f 1286 453 1282
f 1282 455 1289
f 1286 1282 1289
f 168 1290 1292
f 1290 456 1291
f 1291 458 1292
f 1290 1291 1292
f 456 1293 1295
f 1293 113 1294
f 1294 457 1295
f 1293 1294 1295
f 457 1296 1298
f 1296 111 1297
f 1297 458 1298
f 1296 1297 1298
f 456 1295 1291
f 1295 457 1298
f 1298 458 1291
f 1295 1298 1291
f 111 1296 1297
f 1296 457 1298
f 1298 458 1297
f 1296 1298 1297
f 457 1294 1295
f 1294 113 1293
f 1293 456 1295
f 1294 1293 1295
f 456 1290 1291
f 1290 168 1292
f 1292 458 1291
f 1290 1292 1291
f 457 1295 1298
f 1295 456 1291
f 1291 458 1298
f 1295 1291 1298
f 167 1299 1301
f 1299 459 1300
f 1300 461 1301
f 1299 1300 1301
f 459 1302 1304
f 1302 178 1303
f 1303 460 1304
f 1302 1303 1304
f 460 1305 1307
f 1305 179 1306
f 1306 461 1307
f 1305 1306 1307
f 459 1304 1300
f 1304 460 1307
f 1307 461 1300
f 1304 1307 1300
f 179 1305 1306
f 1305 460 1307
f 1307 461 1306
f 1305 1307 1306
f 460 1303 1304
f 1303 178 1302
f 1302 459 1304
f 1303 1302 1304
f 459 1299 1300
f 1299 167 1301
f 1301 461 1300
f 1299 1301 1300
f 460 1304 1307
f 1304 459 1300
f 1300 461 1307
f 1304 1300 1307
f 166 1308 1310
f 1308 462 1309
f 1309 464 1310
f 1308 1309 1310
f 462 1311 1313
f 1311 179 1312
f 1312 463 1313
f 1311 1312 1313
f 463 1314 1316
f 1314 174 1315
f 1315 464 1316
f 1314 1315 1316
f 462 1313 1309
f 1313 463 1316
f 1316 464 1309
f 1313 1316 1309
f 174 1314 1315
f 1314 463 1316
f 1316 464 1315
f 1314 1316 1315
f 463 1312 1313
f 1312 179 1311
f 1311 462 1313
f 1312 1311 1313
f 462 1308 1309
f 1308 166 1310
f 1310 464 1309
f 1308 1310 1309
f 463 1313 1316
f 1313 462 1309
f 1309 464 1316
f 1313 1309 1316
f 172 1317 1319
f 1317 465 1318
f 1318 467 1319
f 1317 1318 1319
f 465 1320 1322
f 1320 111 1321
f 1321 466 1322
f 1320 1321 1322
f 466 1323 1325
f 1323 178 1324
f 1324 467 1325
f 1323 1324 1325
f 465 1322 1318
f 1322 466 1325
f 1325 467 1318
f 1322 1325 1318
f 178 1323 1324
f 1323 466 1325
f 1325 467 1324
f 1323 1325 1324
f 466 1321 1322
f 1321 111 1320
f 1320 465 1322
f 1321 1320 1322
f 465 1317 1318
f 1317 172 1319
f 1319 467 1318
f 1317 1319 1318
f 466 1322 1325
f 1322 465 1318
f 1318 467 1325
f 1322 1318 1325
f 169 1326 1328
f 1326 468 1327
f 1327 470 1328
f 1326 1327 1328
f 468 1329 1331
f 1329 175 1330
f 1330 469 1331
f 1329 1330 1331
f 469 1332 1334
f 1332 173 1333
f 1333 470 1334
f 1332 1333 1334
f 468 1331 1327
f 1331 469 1334
f 1334 470 1327
f 1331 1334 1327
f 173 1332 1333
f 1332 469 1334
f 1334 470 1333
f 1332 1334 1333
f 469 1330 1331
f 1330 175 1329
f 1329 468 1331
f 1330 1329 1331
f 468 1326 1327
f 1326 169 1328
f 1328 470 1327
f 1326 1328 1327
f 469 1331 1334
f 1331 468 1327
f 1327 470 1334
f 1331 1327 1334
f 170 1335 1337
f 1335 471 1336
f 1336 473 1337
f 1335 1336 1337
f 471 1338 1340
f 1338 133 1339
f 1339 472 1340
f 1338 1339 1340
f 472 1341 1343
f 1341 176 1342
f 1342 473 1343
f 1341 1342 1343
f 471 1340 1336
f 1340 472 1343
f 1343 473 1336
f 1340 1343 1336
f 176 1341 1342
f 1341 472 1343
f 1343 473 1342
f 1341 1343 1342
f 472 1339 1340
f 1339 133 1338
f 1338 471 1340
f 1339 1338 1340
f 471 1335 1336
f 1335 170 1337
f 1337 473 1336
f 1335 1337 1336
f 472 1340 1343
f 1340 471 1336
f 1336 473 1343
f 1340 1336 1343
f 47 1344 1346
f 1344 474 1345
f 1345 476 1346
f 1344 1345 1346
f 474 1347 1349
f 1347 182 1348
f 1348 475 1349
f 1347 1348 1349
f 475 1350 1352
f 1350 46 1351
f 1351 476 1352
f 1350 1351 1352
f 474 1349 1345
f 1349 475 1352
f 1352 476 1345
f 1349 1352 1345
f 46 1350 1351
f 1350 475 1352
f 1352 476 1351
f 1350 1352 1351
f 475 1348 1349
f 1348 182 1347
f 1347 474 1349
f 1348 1347 1349
f 474 1344 1345
f 1344 47 1346
f 1346 476 1345
f 1344 1346 1345
f 475 1349 1352
f 1349 474 1345
f 1345 476 1352
f 1349 1345 1352
f 45 1353 1355
f 1353 477 1354
f 1354 479 1355
f 1353 1354 1355
f 477 1356 1358
f 1356 46 1357
f 1357 478 1358
f 1356 1357 1358
f 478 1359 1361
f 1359 183 1360
f 1360 479 1361
f 1359 1360 1361
f 477 1358 1354
f 1358 478 1361
f 1361 479 1354
f 1358 1361 1354
f 183 1359 1360
f 1359 478 1361
f 1361 479 1360
f 1359 1361 1360
f 478 1357 1358
f 1357 46 1356
f 1356 477 1358
f 1357 1356 1358
f 477 1353 1354
f 1353 45 1355
f 1355 479 1354
f 1353 1355 1354
f 478 1358 1361
f 1358 477 1354
f 1354 479 1361
f 1358 1354 1361
f 185 1362 1364
f 1362 480 1363
f 1363 482 1364
f 1362 1363 1364
f 480 1365 1367
f 1365 184 1366
f 1366 481 1367
f 1365 1366 1367
f 481 1368 1370
f 1368 186 1369
f 1369 482 1370
f 1368 1369 1370
f 480 1367 1363
f 1367 481 1370
f 1370 482 1363
f 1367 1370 1363
f 186 1368 1369
f 1368 481 1370
f 1370 482 1369
f 1368 1370 1369
f 481 1366 1367
f 1366 184 1365
f 1365 480 1367
f 1366 1365 1367
f 480 1362 1363
f 1362 185 1364
f 1364 482 1363
f 1362 1364 1363
f 481 1367 1370
f 1367 480 1363
f 1363 482 1370
f 1367 1363 1370
f 49 1371 1373
f 1371 483 1372
f 1372 485 1373
f 1371 1372 1373
f 483 1374 1376
f 1374 186 1375
f 1375 484 1376
f 1374 1375 1376
f 484 1377 1379
f 1377 38 1378
f 1378 485 1379
f 1377 1378 1379
f 483 1376 1372
f 1376 484 1379
f 1379 485 1372
f 1376 1379 1372
f 38 1377 1378
f 1377 484 1379
f 1379 485 1378
f 1377 1379 1378
f 484 1375 1376
f 1375 186 1374
f 1374 483 1376
f 1375 1374 1376
f 483 1371 1372
f 1371 49 1373
f 1373 485 1372
f 1371 1373 1372
f 484 1376 1379
f 1376 483 1372
f 1372 485 1379
f 1376 1372 1379
f 48 1380 1382
f 1380 486 1381
f 1381 488 1382
f 1380 1381 1382
f 486 1383 1385
f 1383 38 1384
f 1384 487 1385
f 1383 1384 1385
f 487 1386 1388
f 1386 187 1387
f 1387 488 1388
f 1386 1387 1388
f 486 1385 1381
f 1385 487 1388
f 1388 488 1381
f 1385 1388 1381
f 187 1386 1387
f 1386 487 1388
f 1388 488 1387
f 1386 1388 1387
f 487 1384 1385
f 1384 38 1383
f 1383 486 1385
f 1384 1383 1385
f 486 1380 1381
f 1380 48 1382
f 1382 488 1381
f 1380 1382 1381
f 487 1385 1388
f 1385 486 1381
f 1381 488 1388
f 1385 1381 1388
f 48 1389 1391
f 1389 489 1390
f 1390 491 1391
f 1389 1390 1391
f 489 1392 1394
f 1392 180 1393
f 1393 490 1394
f 1392 1393 1394
f 490 1395 1397
f 1395 181 1396
f 1396 491 1397
f 1395 1396 1397
f 489 1394 1390
f 1394 490 1397
f 1397 491 1390
f 1394 1397 1390
f 181 1395 1396
f 1395 490 1397
f 1397 491 1396
f 1395 1397 1396
f 490 1393 1394
f 1393 180 1392
f 1392 489 1394
f 1393 1392 1394
f 489 1389 1390
f 1389 48 1391
f 1391 491 1390
f 1389 1391 1390
f 490 1394 1397
f 1394 489 1390
f 1390 491 1397
f 1394 1390 1397
f 50 1398 1400
f 1398 492 1399
f 1399 494 1400
f 1398 1399 1400
f 492 1401 1403
f 1401 188 1402
f 1402 493 1403
f 1401 1402 1403
f 493 1404 1406
f 1404 189 1405
f 1405 494 1406
f 1404 1405 1406
f 492 1403 1399
f 1403 493 1406
f 1406 494 1399
f 1403 1406 1399
f 189 1404 1405
f 1404 493 1406
f 1406 494 1405
f 1404 1406 1405
f 493 1402 1403
f 1402 188 1401
f 1401 492 1403
f 1402 1401 1403
f 492 1398 1399
f 1398 50 1400
f 1400 494 1399
f 1398 1400 1399
f 493 1403 1406
f 1403 492 1399
f 1399 494 1406
f 1403 1399 1406
f 44 1407 1409
f 1407 495 1408
f 1408 497 1409
f 1407 1408 1409
f 495 1410 1412
f 1410 190 1411
f 1411 496 1412
f 1410 1411 1412
f 496 1413 1415
f 1413 51 1414
f 1414 497 1415
f 1413 1414 1415
f 495 1412 1408
f 1412 496 1415
f 1415 497 1408
f 1412 1415 1408
f 51 1413 1414
f 1413 496 1415
f 1415 497 1414
f 1413 1415 1414
f 496 1411 1412
f 1411 190 1410
f 1410 495 1412
f 1411 1410 1412
f 495 1407 1408
f 1407 44 1409
f 1409 497 1408
f 1407 1409 1408
f 496 1412 1415
f 1412 495 1408
f 1408 497 1415
f 1412 1408 1415
f 191 1416 1418
f 1416 498 1417
f 1417 500 1418
f 1416 1417 1418
f 498 1419 1421
f 1419 184 1420
f 1420 499 1421
f 1419 1420 1421
f 499 1422 1424
f 1422 190 1423
f 1423 500 1424
f 1422 1423 1424
f 498 1421 1417
f 1421 499 1424
f 1424 500 1417
f 1421 1424 1417
f 190 1422 1423
f 1422 499 1424
f 1424 500 1423
f 1422 1424 1423
f 499 1420 1421
f 1420 184 1419
f 1419 498 1421
f 1420 1419 1421
f 498 1416 1417
f 1416 191 1418
f 1418 500 1417
f 1416 1418 1417
f 499 1421 1424
f 1421 498 1417
f 1417 500 1424
f 1421 1417 1424
f 52 1425 1427
f 1425 501 1426
f 1426 503 1427
f 1425 1426 1427
f 501 1428 1430
f 1428 53 1429
f 1429 502 1430
f 1428 1429 1430
f 502 1431 1433
f 1431 192 1432
f 1432 503 1433
f 1431 1432 1433
f 501 1430 1426
f 1430 502 1433
f 1433 503 1426
f 1430 1433 1426
f 192 1431 1432
f 1431 502 1433
f 1433 503 1432
f 1431 1433 1432
f 502 1429 1430
f 1429 53 1428
f 1428 501 1430
f 1429 1428 1430
f 501 1425 1426
f 1425 52 1427
f 1427 503 1426
f 1425 1427 1426
f 502 1430 1433
f 1430 501 1426
f 1426 503 1433
f 1430 1426 1433
f 194 1434 1436
f 1434 504 1435
f 1435 506 1436
f 1434 1435 1436
f 504 1437 1439
f 1437 188 1438
f 1438 505 1439
f 1437 1438 1439
f 505 1440 1442
f 1440 193 1441
f 1441 506 1442
f 1440 1441 1442
f 504 1439 1435
f 1439 505 1442
f 1442 506 1435
f 1439 1442 1435
f 193 1440 1441
f 1440 505 1442
f 1442 506 1441
f 1440 1442 1441
f 505 1438 1439
f 1438 188 1437
f 1437 504 1439
f 1438 1437 1439
f 504 1434 1435
f 1434 194 1436
f 1436 506 1435
f 1434 1436 1435
f 505 1439 1442
f 1439 504 1435
f 1435 506 1442
f 1439 1435 1442
