# Original shape: m531.obj
# No processing applied - exact copy of source file
# Generated on 2025-10-13 18:08:11

v 0.138956 0.975000 0.260067
v 0.112732 0.975000 0.234109
v 0.110464 0.975000 0.260067
v 0.140804 0.975000 0.239065
v 0.119495 0.975000 0.208921
v 0.146265 0.975000 0.218666
v 0.130514 0.975000 0.185273
v 0.155184 0.975000 0.199526
v 0.145467 0.975000 0.163935
v 0.167309 0.975000 0.182234
v 0.163907 0.975000 0.145495
v 0.182220 0.975000 0.167323
v 0.185259 0.975000 0.130542
v 0.199512 0.975000 0.155212
v 0.208893 0.975000 0.119523
v 0.218638 0.975000 0.146293
v 0.234081 0.975000 0.112760
v 0.239037 0.975000 0.140818
v 0.260039 0.975000 0.110478
v 0.260039 0.975000 0.138984
v 0.286012 0.975000 0.112760
v 0.281055 0.975000 0.140818
v 0.311200 0.975000 0.119523
v 0.301455 0.975000 0.146293
v 0.334834 0.975000 0.130542
v 0.320581 0.975000 0.155212
v 0.356172 0.975000 0.145495
v 0.337872 0.975000 0.167323
v 0.374626 0.975000 0.163935
v 0.352784 0.975000 0.182234
v 0.389579 0.975000 0.185273
v 0.364895 0.975000 0.199526
v 0.400598 0.975000 0.208921
v 0.373814 0.975000 0.218666
v 0.407361 0.975000 0.234109
v 0.379288 0.975000 0.239065
v 0.409629 0.975000 0.260067
v 0.381122 0.975000 0.260067
v 0.407361 0.975000 0.286026
v 0.379288 0.975000 0.281069
v 0.400598 0.975000 0.311214
v 0.373814 0.975000 0.301469
v 0.389579 0.975000 0.334862
v 0.364895 0.975000 0.320609
v 0.374626 0.975000 0.356200
v 0.352784 0.975000 0.337900
v 0.356172 0.975000 0.374640
v 0.337872 0.975000 0.352826
v 0.334834 0.975000 0.389593
v 0.320581 0.975000 0.364923
v 0.311200 0.975000 0.400640
v 0.301455 0.975000 0.373842
v 0.286012 0.975000 0.407375
v 0.281055 0.975000 0.379316
v 0.260039 0.975000 0.409657
v 0.260039 0.975000 0.381150
v 0.234081 0.975000 0.407375
v 0.239037 0.975000 0.379316
v 0.208893 0.975000 0.400640
v 0.218638 0.975000 0.373842
v 0.185273 0.975000 0.389593
v 0.199512 0.975000 0.364923
v 0.163907 0.975000 0.374640
v 0.182220 0.975000 0.352826
v 0.145467 0.975000 0.356200
v 0.167309 0.975000 0.337900
v 0.130514 0.975000 0.334862
v 0.155184 0.975000 0.320609
v 0.119495 0.975000 0.311214
v 0.146265 0.975000 0.301469
v 0.112732 0.975000 0.286026
v 0.140804 0.975000 0.281069
v 0.174576 0.904966 0.260067
v 0.175892 0.904966 0.245240
v 0.179728 0.904966 0.230847
v 0.186043 0.904966 0.217349
v 0.194583 0.904966 0.205140
v 0.205112 0.904966 0.194611
v 0.217321 0.904966 0.186057
v 0.230833 0.904966 0.179756
v 0.245212 0.904966 0.175892
v 0.260039 0.904966 0.174604
v 0.274881 0.904966 0.175892
v 0.289260 0.904966 0.179756
v 0.302771 0.904966 0.186057
v 0.314980 0.904966 0.194611
v 0.325509 0.904966 0.205140
v 0.334050 0.904966 0.217349
v 0.340365 0.904966 0.230847
v 0.344215 0.904966 0.245240
v 0.345517 0.904966 0.260067
v 0.344215 0.904966 0.274895
v 0.340365 0.904966 0.289288
v 0.334050 0.904966 0.302785
v 0.325509 0.904966 0.314994
v 0.314980 0.904966 0.325523
v 0.302771 0.904966 0.334092
v 0.289260 0.904966 0.340379
v 0.274881 0.904966 0.344243
v 0.260039 0.904966 0.345531
v 0.245212 0.904966 0.344243
v 0.230833 0.904966 0.340379
v 0.217321 0.904966 0.334092
v 0.205112 0.904966 0.325523
v 0.194583 0.904966 0.314994
v 0.186043 0.904966 0.302785
v 0.179728 0.904966 0.289288
v 0.175892 0.904966 0.274895
v 0.203068 0.795336 0.260067
v 0.203936 0.795336 0.250196
v 0.206526 0.795336 0.240592
v 0.210713 0.795336 0.231589
v 0.216397 0.795336 0.223454
v 0.223440 0.795336 0.216425
v 0.231575 0.795336 0.210741
v 0.240564 0.795336 0.206526
v 0.250168 0.795336 0.203964
v 0.260039 0.795336 0.203096
v 0.269910 0.795336 0.203964
v 0.279515 0.795336 0.206526
v 0.288518 0.795336 0.210741
v 0.296653 0.795336 0.216425
v 0.303681 0.795336 0.223454
v 0.309366 0.795336 0.231589
v 0.313580 0.795336 0.240592
v 0.316156 0.795336 0.250196
v 0.317010 0.795336 0.260067
v 0.316156 0.795336 0.269938
v 0.313580 0.795336 0.279543
v 0.309366 0.795336 0.288546
v 0.303681 0.795336 0.296681
v 0.296653 0.795336 0.303709
v 0.288518 0.795336 0.309394
v 0.279515 0.795336 0.313608
v 0.269910 0.795336 0.316170
v 0.260039 0.795336 0.317038
v 0.250168 0.795336 0.316170
v 0.240564 0.795336 0.313608
v 0.231575 0.795336 0.309394
v 0.223440 0.795336 0.303709
v 0.216397 0.795336 0.296681
v 0.210713 0.795336 0.288546
v 0.206526 0.795336 0.279543
v 0.203936 0.795336 0.269938
v 0.217321 0.548689 0.260067
v 0.217965 0.548689 0.252661
v 0.219884 0.548689 0.245478
v 0.223048 0.548689 0.238715
v 0.227318 0.548689 0.232611
v 0.232597 0.548689 0.227346
v 0.238687 0.548689 0.223062
v 0.245450 0.548689 0.219912
v 0.252647 0.548689 0.217993
v 0.260039 0.548689 0.217349
v 0.267446 0.548689 0.217993
v 0.274643 0.548689 0.219912
v 0.281405 0.548689 0.223062
v 0.287496 0.548689 0.227346
v 0.292774 0.548689 0.232611
v 0.297045 0.548689 0.238715
v 0.300195 0.548689 0.245478
v 0.302113 0.548689 0.252661
v 0.302771 0.548689 0.260067
v 0.302113 0.548689 0.267474
v 0.300195 0.548689 0.274657
v 0.297045 0.548689 0.281419
v 0.292774 0.548689 0.287524
v 0.287496 0.548689 0.292788
v 0.281405 0.548689 0.297073
v 0.274643 0.548689 0.300223
v 0.267446 0.548689 0.302141
v 0.260039 0.548689 0.302785
v 0.252647 0.548689 0.302141
v 0.245450 0.548689 0.300223
v 0.238687 0.548689 0.297073
v 0.232597 0.548689 0.292788
v 0.227318 0.548689 0.287524
v 0.223048 0.548689 0.281419
v 0.219884 0.548689 0.274657
v 0.217965 0.548689 0.267474
v 0.217349 0.289904 0.260067
v 0.217993 0.289904 0.252661
v 0.219912 0.289904 0.245478
v 0.223062 0.289904 0.238715
v 0.227332 0.289904 0.232611
v 0.232611 0.289904 0.227346
v 0.238701 0.289904 0.223062
v 0.245450 0.289904 0.219912
v 0.252647 0.289904 0.217993
v 0.260039 0.289904 0.217349
v 0.267446 0.289904 0.217993
v 0.274643 0.289904 0.219912
v 0.281377 0.289904 0.223062
v 0.287482 0.289904 0.227346
v 0.292746 0.289904 0.232611
v 0.297031 0.289904 0.238715
v 0.300181 0.289904 0.245478
v 0.302099 0.289904 0.252661
v 0.302743 0.289904 0.260067
v 0.302099 0.289904 0.267474
v 0.300181 0.289904 0.274657
v 0.297031 0.289904 0.281419
v 0.292746 0.289904 0.287524
v 0.287482 0.289904 0.292788
v 0.281377 0.289904 0.297073
v 0.274643 0.289904 0.300223
v 0.267446 0.289904 0.302141
v 0.260039 0.289904 0.302785
v 0.252647 0.289904 0.302141
v 0.245450 0.289904 0.300223
v 0.238701 0.289904 0.297073
v 0.232611 0.289904 0.292788
v 0.227332 0.289904 0.287524
v 0.223062 0.289904 0.281419
v 0.219912 0.289904 0.274657
v 0.217993 0.289904 0.267474
v 0.210209 0.250322 0.260067
v 0.210979 0.250322 0.251428
v 0.213233 0.250322 0.243028
v 0.216887 0.250322 0.235159
v 0.221872 0.250322 0.228032
v 0.228018 0.250322 0.221886
v 0.235145 0.250322 0.216901
v 0.243014 0.250322 0.213233
v 0.251415 0.250322 0.210979
v 0.260039 0.250322 0.210209
v 0.268678 0.250322 0.210979
v 0.277065 0.250322 0.213233
v 0.284948 0.250322 0.216901
v 0.292060 0.250322 0.221886
v 0.298221 0.250322 0.228032
v 0.303191 0.250322 0.235159
v 0.306860 0.250322 0.243028
v 0.309114 0.250322 0.251428
v 0.309884 0.250322 0.260067
v 0.309114 0.250322 0.268706
v 0.306860 0.250322 0.277107
v 0.303191 0.250322 0.284990
v 0.298221 0.250322 0.292102
v 0.292060 0.250322 0.298249
v 0.284948 0.250322 0.303233
v 0.277065 0.250322 0.306902
v 0.268678 0.250322 0.309156
v 0.260039 0.250322 0.309926
v 0.251415 0.250322 0.309156
v 0.243014 0.250322 0.306902
v 0.235145 0.250322 0.303233
v 0.228018 0.250322 0.298249
v 0.221872 0.250322 0.292102
v 0.216887 0.250322 0.284990
v 0.213233 0.250322 0.277107
v 0.210979 0.250322 0.268706
v 0.181702 0.219870 0.260067
v 0.182906 0.219870 0.246472
v 0.186435 0.219870 0.233283
v 0.192217 0.219884 0.220906
v 0.200058 0.219884 0.209719
v 0.209705 0.219884 0.200058
v 0.220892 0.219884 0.192217
v 0.233283 0.219884 0.186449
v 0.246472 0.219884 0.182906
v 0.260039 0.219884 0.181730
v 0.273634 0.219884 0.182906
v 0.286838 0.219884 0.186449
v 0.299201 0.219884 0.192217
v 0.310388 0.219884 0.200058
v 0.320035 0.219870 0.209719
v 0.327875 0.219884 0.220906
v 0.333658 0.219870 0.233283
v 0.337186 0.219870 0.246472
v 0.338376 0.219870 0.260067
v 0.337186 0.219870 0.273663
v 0.333658 0.219870 0.286852
v 0.327875 0.219884 0.299229
v 0.320035 0.219870 0.310416
v 0.310388 0.219884 0.320077
v 0.299201 0.219884 0.327917
v 0.286838 0.219884 0.333686
v 0.273634 0.219884 0.337228
v 0.260039 0.219884 0.338404
v 0.246472 0.219884 0.337228
v 0.233283 0.219884 0.333686
v 0.220892 0.219884 0.327917
v 0.209705 0.219884 0.320077
v 0.200058 0.219884 0.310416
v 0.192217 0.219884 0.299229
v 0.186435 0.219870 0.286852
v 0.182906 0.219870 0.273663
v 0.146097 0.207703 0.260067
v 0.147833 0.207703 0.240297
v 0.152972 0.207703 0.221102
v 0.161358 0.207703 0.203096
v 0.172769 0.207703 0.186827
v 0.186799 0.207703 0.172769
v 0.203068 0.207703 0.161386
v 0.221088 0.207703 0.152972
v 0.240269 0.207703 0.147847
v 0.260039 0.207703 0.146097
v 0.279809 0.207703 0.147847
v 0.299005 0.207703 0.152972
v 0.316996 0.207703 0.161386
v 0.333280 0.207703 0.172769
v 0.347323 0.207703 0.186827
v 0.358720 0.207703 0.203096
v 0.367121 0.207703 0.221102
v 0.372273 0.207703 0.240297
v 0.373996 0.207703 0.260067
v 0.372273 0.207703 0.279837
v 0.367121 0.207703 0.299033
v 0.358720 0.207703 0.317038
v 0.347323 0.207703 0.333308
v 0.333280 0.207703 0.347365
v 0.316996 0.207703 0.358762
v 0.299005 0.207703 0.367163
v 0.279809 0.207703 0.372287
v 0.260039 0.207703 0.374038
v 0.240269 0.207703 0.372287
v 0.221088 0.207703 0.367163
v 0.203068 0.207703 0.358762
v 0.186799 0.207703 0.347365
v 0.172769 0.207703 0.333308
v 0.161358 0.207703 0.317038
v 0.152972 0.207703 0.299033
v 0.147833 0.207703 0.279837
v 0.074872 0.183326 0.260067
v 0.077673 0.183326 0.227934
v 0.086017 0.183326 0.196740
v 0.099683 0.183326 0.167477
v 0.118206 0.183326 0.141043
v 0.141015 0.183326 0.118206
v 0.167463 0.183326 0.099683
v 0.196726 0.183326 0.086045
v 0.227906 0.183326 0.077687
v 0.260039 0.183354 0.074872
v 0.292186 0.183326 0.077687
v 0.323367 0.183326 0.086045
v 0.352630 0.183326 0.099683
v 0.379078 0.183326 0.118206
v 0.401900 0.183326 0.141043
v 0.420410 0.183326 0.167477
v 0.434047 0.183326 0.196740
v 0.442420 0.183326 0.227934
v 0.445220 0.183326 0.260067
v 0.442420 0.183326 0.292200
v 0.434047 0.183326 0.323395
v 0.420410 0.183326 0.352658
v 0.401900 0.183326 0.379120
v 0.379078 0.183326 0.401928
v 0.352630 0.183326 0.420452
v 0.323367 0.183326 0.434089
v 0.292186 0.183326 0.442448
v 0.260039 0.183354 0.445262
v 0.227906 0.183326 0.442448
v 0.196726 0.183326 0.434089
v 0.167463 0.183326 0.420452
v 0.141015 0.183326 0.401928
v 0.118206 0.183326 0.379120
v 0.099683 0.183326 0.352658
v 0.086017 0.183326 0.323395
v 0.077673 0.183326 0.292200
v 0.046366 0.155926 0.260067
v 0.049628 0.155926 0.222964
v 0.059261 0.155926 0.186981
v 0.074998 0.155926 0.153238
v 0.096365 0.155926 0.122715
v 0.122715 0.155926 0.096379
v 0.153210 0.155926 0.075012
v 0.186981 0.155926 0.059261
v 0.222950 0.155926 0.049628
v 0.260039 0.155926 0.046366
v 0.297143 0.155926 0.049628
v 0.333112 0.155926 0.059261
v 0.366883 0.155926 0.075012
v 0.397392 0.155926 0.096379
v 0.423714 0.155926 0.122715
v 0.445080 0.155926 0.153238
v 0.460845 0.155926 0.186981
v 0.470464 0.155926 0.222964
v 0.473727 0.155926 0.260067
v 0.470464 0.155926 0.297171
v 0.460845 0.155926 0.333154
v 0.445080 0.155926 0.366897
v 0.423714 0.155926 0.397420
v 0.397392 0.155926 0.423756
v 0.366883 0.155926 0.445122
v 0.333112 0.155926 0.460873
v 0.297143 0.155926 0.470506
v 0.260039 0.155926 0.473769
v 0.222950 0.155926 0.470506
v 0.186981 0.155926 0.460873
v 0.153210 0.155926 0.445122
v 0.122715 0.155926 0.423756
v 0.096365 0.155926 0.397420
v 0.074998 0.155926 0.366897
v 0.059261 0.155926 0.333154
v 0.049628 0.155926 0.297171
v 0.046366 0.128525 0.260067
v 0.049628 0.128525 0.222964
v 0.059247 0.128525 0.186981
v 0.074998 0.128525 0.153238
v 0.096365 0.128525 0.122715
v 0.122715 0.128525 0.096379
v 0.153210 0.128525 0.075012
v 0.186981 0.128525 0.059261
v 0.222964 0.128525 0.049628
v 0.260039 0.128525 0.046366
v 0.297143 0.128525 0.049628
v 0.333112 0.128525 0.059261
v 0.366883 0.128525 0.075012
v 0.397392 0.128525 0.096379
v 0.423714 0.128525 0.122715
v 0.445080 0.128525 0.153238
v 0.460845 0.128525 0.186981
v 0.470492 0.128525 0.222964
v 0.473727 0.128525 0.260067
v 0.470492 0.128525 0.297171
v 0.460845 0.128525 0.333154
v 0.445080 0.128525 0.366897
v 0.423714 0.128525 0.397420
v 0.397392 0.128525 0.423756
v 0.366883 0.128525 0.445122
v 0.333112 0.128525 0.460873
v 0.297143 0.128525 0.470506
v 0.260039 0.128525 0.473769
v 0.222964 0.128525 0.470506
v 0.186981 0.128525 0.460873
v 0.153210 0.128525 0.445122
v 0.122715 0.128525 0.423756
v 0.096365 0.128525 0.397420
v 0.074998 0.128525 0.366897
v 0.059247 0.128525 0.333154
v 0.049628 0.128525 0.297171
v 0.067732 0.091968 0.260067
v 0.070658 0.091996 0.226688
v 0.079339 0.091968 0.194289
v 0.093508 0.091996 0.163921
v 0.112732 0.091968 0.136450
v 0.136436 0.091996 0.112732
v 0.163893 0.091996 0.093508
v 0.194289 0.091996 0.079339
v 0.226674 0.091996 0.070672
v 0.260039 0.091996 0.067760
v 0.293418 0.091996 0.070672
v 0.325803 0.091996 0.079339
v 0.356200 0.091996 0.093508
v 0.383656 0.091968 0.112732
v 0.407361 0.091996 0.136450
v 0.426584 0.091996 0.163921
v 0.440754 0.091996 0.194289
v 0.449434 0.091996 0.226688
v 0.452361 0.091968 0.260067
v 0.449434 0.091996 0.293460
v 0.440754 0.091996 0.325845
v 0.426584 0.091996 0.356214
v 0.407361 0.091996 0.383684
v 0.383656 0.091968 0.407403
v 0.356200 0.091996 0.426626
v 0.325803 0.091996 0.440796
v 0.293418 0.091996 0.449462
v 0.260039 0.091996 0.452375
v 0.226674 0.091996 0.449462
v 0.194289 0.091996 0.440796
v 0.163893 0.091996 0.426626
v 0.136436 0.091996 0.407403
v 0.112732 0.091968 0.383684
v 0.093508 0.091996 0.356214
v 0.079339 0.091968 0.325845
v 0.070658 0.091996 0.293460
v 0.096238 0.076763 0.260067
v 0.098717 0.076763 0.231631
v 0.106109 0.076763 0.204062
v 0.118178 0.076763 0.178160
v 0.134546 0.076763 0.154764
v 0.154764 0.076763 0.134574
v 0.178146 0.076763 0.118192
v 0.204034 0.076763 0.106137
v 0.231617 0.076763 0.098731
v 0.260039 0.076763 0.096238
v 0.288476 0.076763 0.098731
v 0.316058 0.076763 0.106109
v 0.341947 0.076763 0.118192
v 0.365329 0.076763 0.134574
v 0.385519 0.076763 0.154764
v 0.401900 0.076763 0.178160
v 0.413983 0.076763 0.204062
v 0.421362 0.076763 0.231631
v 0.423854 0.076763 0.260067
v 0.421362 0.076763 0.288504
v 0.413983 0.076763 0.316100
v 0.401900 0.076763 0.341975
v 0.385519 0.076763 0.365371
v 0.365329 0.076763 0.385561
v 0.341947 0.076763 0.401942
v 0.316058 0.076763 0.414025
v 0.288476 0.076763 0.421404
v 0.260039 0.076763 0.423896
v 0.231617 0.076763 0.421404
v 0.204034 0.076763 0.414025
v 0.178146 0.076763 0.401942
v 0.154764 0.076763 0.385561
v 0.134546 0.076763 0.365371
v 0.118178 0.076763 0.341975
v 0.106109 0.076763 0.316100
v 0.098717 0.076763 0.288504
v 0.210209 0.076763 0.260067
v 0.210951 0.076763 0.251428
v 0.213205 0.076763 0.243028
v 0.216873 0.076763 0.235159
v 0.221872 0.076763 0.228032
v 0.228004 0.076763 0.221886
v 0.235145 0.076763 0.216901
v 0.243014 0.076763 0.213233
v 0.251415 0.076763 0.210979
v 0.260039 0.076763 0.210209
v 0.268678 0.076763 0.210979
v 0.277093 0.076763 0.213233
v 0.284948 0.076763 0.216901
v 0.292088 0.076763 0.221886
v 0.298221 0.076763 0.228032
v 0.303219 0.076763 0.235159
v 0.306888 0.076763 0.243028
v 0.309142 0.076763 0.251428
v 0.309884 0.076763 0.260067
v 0.309142 0.076763 0.268706
v 0.306888 0.076763 0.277107
v 0.303219 0.076763 0.284990
v 0.298221 0.076763 0.292102
v 0.292088 0.076763 0.298249
v 0.284948 0.076763 0.303233
v 0.277093 0.076763 0.306902
v 0.268678 0.076763 0.309156
v 0.260039 0.076763 0.309926
v 0.251415 0.076763 0.309156
v 0.243014 0.076763 0.306902
v 0.235145 0.076763 0.303233
v 0.228004 0.076763 0.298249
v 0.221872 0.076763 0.292102
v 0.216873 0.076763 0.284990
v 0.213205 0.076763 0.277107
v 0.210951 0.076763 0.268706
v 0.217321 0.149835 0.260067
v 0.217965 0.149849 0.252661
v 0.219912 0.149835 0.245478
v 0.223048 0.149835 0.238715
v 0.227318 0.149849 0.232611
v 0.232597 0.149849 0.227346
v 0.238687 0.149849 0.223062
v 0.245450 0.149835 0.219912
v 0.252647 0.149849 0.217993
v 0.260039 0.149849 0.217349
v 0.267446 0.149849 0.217993
v 0.274643 0.149849 0.219912
v 0.281405 0.149849 0.223062
v 0.287496 0.149849 0.227346
v 0.292774 0.149835 0.232611
v 0.297045 0.149835 0.238715
v 0.300181 0.149849 0.245478
v 0.302113 0.149849 0.252661
v 0.302771 0.149849 0.260067
v 0.302113 0.149849 0.267474
v 0.300181 0.149849 0.274657
v 0.297045 0.149835 0.281419
v 0.292774 0.149835 0.287524
v 0.287496 0.149849 0.292788
v 0.281405 0.149849 0.297073
v 0.274643 0.149849 0.300223
v 0.267446 0.149849 0.302141
v 0.260039 0.149849 0.302785
v 0.252647 0.149849 0.302141
v 0.245450 0.149835 0.300223
v 0.238687 0.149849 0.297073
v 0.232597 0.149849 0.292788
v 0.227318 0.149849 0.287524
v 0.223048 0.149835 0.281419
v 0.219912 0.149835 0.274657
v 0.217965 0.149849 0.267474
v 0.238701 0.177250 0.260067
v 0.239023 0.177250 0.256371
v 0.239975 0.177250 0.252787
v 0.241544 0.177250 0.249398
v 0.243686 0.177250 0.246360
v 0.246332 0.177250 0.243714
v 0.249384 0.177250 0.241572
v 0.252759 0.177250 0.240003
v 0.256343 0.177250 0.239037
v 0.260039 0.177250 0.238715
v 0.263736 0.177250 0.239037
v 0.267334 0.177250 0.240003
v 0.270722 0.177250 0.241572
v 0.273761 0.177250 0.243714
v 0.276407 0.177250 0.246360
v 0.278535 0.177250 0.249398
v 0.280103 0.177250 0.252787
v 0.281069 0.177250 0.256371
v 0.281405 0.177250 0.260067
v 0.281069 0.177250 0.263764
v 0.280103 0.177250 0.267348
v 0.278535 0.177250 0.270736
v 0.276407 0.177250 0.273775
v 0.273761 0.177250 0.276421
v 0.270722 0.177250 0.278563
v 0.267334 0.177250 0.280131
v 0.263736 0.177250 0.281097
v 0.260039 0.177250 0.281419
v 0.256343 0.177250 0.281097
v 0.252759 0.177250 0.280131
v 0.249384 0.177250 0.278563
v 0.246332 0.177250 0.276421
v 0.243686 0.177250 0.273775
v 0.241544 0.177250 0.270736
v 0.239975 0.177250 0.267348
v 0.239023 0.177250 0.263764
v 0.238687 0.058491 0.260067
v 0.239023 0.058491 0.256371
v 0.239975 0.058491 0.252787
v 0.241544 0.058491 0.249398
v 0.243686 0.058491 0.246360
v 0.246332 0.058491 0.243714
v 0.249384 0.058491 0.241572
v 0.252759 0.058491 0.240003
v 0.256343 0.058491 0.239037
v 0.260039 0.058491 0.238715
v 0.263736 0.058491 0.239037
v 0.267334 0.058491 0.240003
v 0.270722 0.058491 0.241572
v 0.273761 0.058491 0.243714
v 0.276407 0.058491 0.246360
v 0.278535 0.058491 0.249398
v 0.280103 0.058491 0.252787
v 0.281069 0.058491 0.256371
v 0.281405 0.058491 0.260067
v 0.281069 0.058491 0.263764
v 0.280103 0.058491 0.267348
v 0.278535 0.058491 0.270736
v 0.276407 0.058491 0.273775
v 0.273761 0.058491 0.276421
v 0.270722 0.058491 0.278563
v 0.267334 0.058491 0.280131
v 0.263736 0.058491 0.281097
v 0.260039 0.058491 0.281419
v 0.256343 0.058491 0.281097
v 0.252759 0.058491 0.280131
v 0.249384 0.058491 0.278563
v 0.246332 0.058491 0.276421
v 0.243686 0.058491 0.273775
v 0.241544 0.058491 0.270736
v 0.239975 0.058491 0.267348
v 0.239023 0.058491 0.263764
v 0.131844 0.055439 0.260067
v 0.133790 0.055439 0.237833
v 0.139572 0.055439 0.216229
v 0.149009 0.055439 0.195983
v 0.161834 0.055439 0.177656
v 0.177656 0.055439 0.161862
v 0.195955 0.055453 0.149037
v 0.216201 0.055439 0.139586
v 0.237805 0.055439 0.133804
v 0.260039 0.055439 0.131872
v 0.282287 0.055453 0.133804
v 0.303877 0.055453 0.139586
v 0.324137 0.055439 0.149037
v 0.342437 0.055439 0.161862
v 0.358258 0.055439 0.177656
v 0.371069 0.055439 0.195983
v 0.380520 0.055439 0.216229
v 0.386303 0.055439 0.237833
v 0.388249 0.055439 0.260067
v 0.386303 0.055439 0.282329
v 0.380520 0.055439 0.303905
v 0.371069 0.055439 0.324179
v 0.358258 0.055439 0.342479
v 0.342437 0.055439 0.358272
v 0.324137 0.055439 0.371097
v 0.303877 0.055453 0.380548
v 0.282287 0.055453 0.386331
v 0.260039 0.055439 0.388263
v 0.237805 0.055439 0.386331
v 0.216201 0.055439 0.380548
v 0.195955 0.055453 0.371097
v 0.177656 0.055439 0.358272
v 0.161834 0.055439 0.342479
v 0.149009 0.055439 0.324179
v 0.139572 0.055439 0.303905
v 0.133790 0.055439 0.282329
v 0.110478 0.046310 0.260067
v 0.112760 0.046310 0.234109
v 0.119495 0.046310 0.208921
v 0.130514 0.046310 0.185273
v 0.145467 0.046310 0.163935
v 0.163907 0.046310 0.145495
v 0.185273 0.046324 0.130542
v 0.208893 0.046310 0.119523
v 0.234081 0.046310 0.112760
v 0.260039 0.046310 0.110478
v 0.286012 0.046310 0.112760
v 0.311200 0.046310 0.119523
v 0.334820 0.046310 0.130542
v 0.356172 0.046310 0.145495
v 0.374626 0.046310 0.163935
v 0.389579 0.046324 0.185273
v 0.400598 0.046310 0.208921
v 0.407333 0.046310 0.234109
v 0.409615 0.046310 0.260067
v 0.407333 0.046310 0.286026
v 0.400598 0.046310 0.311214
v 0.389579 0.046324 0.334862
v 0.374626 0.046310 0.356200
v 0.356172 0.046310 0.374640
v 0.334820 0.046310 0.389593
v 0.311200 0.046310 0.400640
v 0.286012 0.046310 0.407375
v 0.260039 0.046310 0.409657
v 0.234081 0.046310 0.407375
v 0.208893 0.046310 0.400640
v 0.185273 0.046310 0.389593
v 0.163907 0.046310 0.374640
v 0.145467 0.046310 0.356200
v 0.130514 0.046310 0.334862
v 0.119495 0.046310 0.311214
v 0.112760 0.046310 0.286026
v 0.103351 0.025000 0.260067
v 0.105731 0.025000 0.232863
v 0.112816 0.025000 0.206484
v 0.124339 0.025000 0.181730
v 0.140020 0.025000 0.159342
v 0.159328 0.025000 0.140034
v 0.181702 0.025000 0.124367
v 0.206470 0.025000 0.112816
v 0.232849 0.025000 0.105745
v 0.260039 0.025000 0.103365
v 0.287244 0.025000 0.105745
v 0.313622 0.025000 0.112816
v 0.338376 0.025000 0.124367
v 0.360764 0.025000 0.140020
v 0.380072 0.025000 0.159342
v 0.395754 0.025000 0.181730
v 0.407291 0.025000 0.206484
v 0.414347 0.025000 0.232863
v 0.416741 0.025000 0.260067
v 0.414347 0.025000 0.287272
v 0.407291 0.025000 0.313650
v 0.395754 0.025000 0.338404
v 0.380072 0.025000 0.360792
v 0.360764 0.025000 0.380114
v 0.338376 0.025000 0.395768
v 0.313622 0.025000 0.407319
v 0.287244 0.025000 0.414389
v 0.260039 0.025000 0.416769
v 0.232849 0.025000 0.414389
v 0.206470 0.025000 0.407319
v 0.181702 0.025000 0.395768
v 0.159328 0.025000 0.380114
v 0.140020 0.025000 0.360792
v 0.124339 0.025000 0.338404
v 0.112816 0.025000 0.313650
v 0.105731 0.025000 0.287272
v 0.081985 0.025000 0.260067
v 0.084687 0.025000 0.229166
v 0.092724 0.025000 0.199176
v 0.105829 0.025000 0.171047
v 0.123653 0.025000 0.145607
v 0.145607 0.025000 0.123653
v 0.171033 0.025000 0.105857
v 0.199148 0.025000 0.092724
v 0.229138 0.025000 0.084715
v 0.260039 0.025000 0.081985
v 0.290954 0.025000 0.084715
v 0.320931 0.025000 0.092724
v 0.349059 0.025000 0.105857
v 0.374500 0.025000 0.123653
v 0.396440 0.025000 0.145607
v 0.414249 0.025000 0.171033
v 0.427368 0.025000 0.199176
v 0.435405 0.025000 0.229166
v 0.438107 0.025000 0.260067
v 0.435405 0.025000 0.290968
v 0.427368 0.025000 0.320959
v 0.414249 0.025000 0.349101
v 0.396440 0.025000 0.374528
v 0.374500 0.025000 0.396482
v 0.349059 0.025000 0.414277
v 0.320931 0.025000 0.427410
v 0.290954 0.025000 0.435447
v 0.260039 0.025000 0.438149
v 0.229138 0.025000 0.435447
v 0.199148 0.025000 0.427410
v 0.171033 0.025000 0.414277
v 0.145607 0.025000 0.396482
v 0.123653 0.025000 0.374528
v 0.105829 0.025000 0.349101
v 0.092724 0.025000 0.320959
v 0.084687 0.025000 0.290968
v 0.074872 0.055439 0.260067
v 0.077673 0.055439 0.227934
v 0.086017 0.055439 0.196740
v 0.099655 0.055439 0.167477
v 0.118178 0.055439 0.141043
v 0.141015 0.055453 0.118206
v 0.167463 0.055453 0.099683
v 0.196726 0.055439 0.086045
v 0.227906 0.055453 0.077687
v 0.260039 0.055439 0.074872
v 0.292186 0.055439 0.077687
v 0.323367 0.055439 0.086045
v 0.352630 0.055439 0.099683
v 0.379078 0.055439 0.118206
v 0.401900 0.055439 0.141043
v 0.420424 0.055439 0.167477
v 0.434075 0.055439 0.196740
v 0.442420 0.055439 0.227934
v 0.445248 0.055439 0.260067
v 0.442420 0.055439 0.292200
v 0.434075 0.055439 0.323395
v 0.420424 0.055439 0.352658
v 0.401900 0.055439 0.379120
v 0.379078 0.055439 0.401928
v 0.352630 0.055439 0.420452
v 0.323367 0.055439 0.434089
v 0.292186 0.055439 0.442448
v 0.260039 0.055439 0.445262
v 0.227906 0.055453 0.442448
v 0.196726 0.055439 0.434089
v 0.167463 0.055453 0.420452
v 0.141015 0.055453 0.401928
v 0.118178 0.055439 0.379120
v 0.099655 0.055439 0.352658
v 0.086017 0.055439 0.323395
v 0.077673 0.055439 0.292200
v 0.060619 0.070672 0.260067
v 0.063630 0.070672 0.225442
v 0.072646 0.070672 0.191867
v 0.087334 0.070672 0.160350
v 0.107285 0.070672 0.131872
v 0.131872 0.070672 0.107285
v 0.160350 0.070672 0.087362
v 0.191839 0.070672 0.072660
v 0.225442 0.070672 0.063658
v 0.260039 0.070672 0.060619
v 0.294678 0.070672 0.063658
v 0.328253 0.070672 0.072660
v 0.359742 0.070672 0.087362
v 0.388221 0.070672 0.107285
v 0.412821 0.070672 0.131872
v 0.432759 0.070672 0.160350
v 0.447460 0.070672 0.191867
v 0.456449 0.070672 0.225442
v 0.459473 0.070672 0.260067
v 0.456449 0.070672 0.294692
v 0.447460 0.070672 0.328267
v 0.432759 0.070672 0.359784
v 0.412821 0.070672 0.388263
v 0.388221 0.070672 0.412849
v 0.359742 0.070672 0.432801
v 0.328253 0.070672 0.447474
v 0.294678 0.070672 0.456477
v 0.260039 0.070672 0.459515
v 0.225442 0.070672 0.456477
v 0.191839 0.070672 0.447474
v 0.160350 0.070672 0.432801
v 0.131872 0.070672 0.412849
v 0.107285 0.070672 0.388263
v 0.087334 0.070672 0.359784
v 0.072646 0.070672 0.328267
v 0.063630 0.070672 0.294692
v 0.039253 0.082867 0.260067
v 0.042600 0.082839 0.221732
v 0.052568 0.082839 0.184558
v 0.068824 0.082839 0.149667
v 0.090904 0.082839 0.118122
v 0.118122 0.082867 0.090918
v 0.149667 0.082867 0.068838
v 0.184544 0.082867 0.052568
v 0.221718 0.082867 0.042614
v 0.260039 0.082867 0.039253
v 0.298375 0.082867 0.042614
v 0.335562 0.082867 0.052568
v 0.370453 0.082867 0.068838
v 0.401970 0.082867 0.090918
v 0.429189 0.082867 0.118122
v 0.451255 0.082867 0.149667
v 0.467524 0.082839 0.184558
v 0.477507 0.082839 0.221732
v 0.480853 0.082839 0.260067
v 0.477507 0.082839 0.298403
v 0.467524 0.082839 0.335576
v 0.451255 0.082867 0.370467
v 0.429189 0.082867 0.402012
v 0.401970 0.082867 0.429217
v 0.370453 0.082867 0.451297
v 0.335562 0.082867 0.467566
v 0.298375 0.082867 0.477521
v 0.260039 0.082867 0.480881
v 0.221718 0.082867 0.477521
v 0.184544 0.082867 0.467566
v 0.149667 0.082867 0.451297
v 0.118122 0.082867 0.429217
v 0.090904 0.082839 0.402012
v 0.068824 0.082839 0.370467
v 0.052568 0.082839 0.335576
v 0.042600 0.082839 0.298403
v 0.025000 0.098073 0.260067
v 0.028570 0.098073 0.219268
v 0.039169 0.098073 0.179700
v 0.056489 0.098073 0.142555
v 0.079983 0.098073 0.108980
v 0.108966 0.098073 0.080011
v 0.142527 0.098073 0.056503
v 0.179672 0.098073 0.039183
v 0.219240 0.098087 0.028570
v 0.260039 0.098073 0.025000
v 0.300839 0.098087 0.028570
v 0.340421 0.098073 0.039183
v 0.377566 0.098073 0.056503
v 0.411113 0.098073 0.080011
v 0.440110 0.098073 0.108980
v 0.463604 0.098073 0.142555
v 0.480909 0.098073 0.179700
v 0.491522 0.098073 0.219268
v 0.495107 0.098073 0.260067
v 0.491522 0.098073 0.300867
v 0.480909 0.098073 0.340463
v 0.463604 0.098073 0.377580
v 0.440110 0.098073 0.411155
v 0.411113 0.098073 0.440124
v 0.377566 0.098073 0.463632
v 0.340421 0.098073 0.480951
v 0.300839 0.098087 0.491564
v 0.260039 0.098073 0.495135
v 0.219240 0.098087 0.491564
v 0.179672 0.098073 0.480951
v 0.142527 0.098073 0.463632
v 0.108966 0.098073 0.440124
v 0.079983 0.098073 0.411155
v 0.056489 0.098073 0.377580
v 0.039169 0.098073 0.340463
v 0.028570 0.098073 0.300867
v 0.025000 0.137668 0.260067
v 0.028570 0.137668 0.219268
v 0.039169 0.137668 0.179700
v 0.056489 0.137668 0.142555
v 0.079997 0.137668 0.108980
v 0.108966 0.137668 0.080011
v 0.142527 0.137668 0.056503
v 0.179672 0.137668 0.039183
v 0.219240 0.137668 0.028570
v 0.260039 0.137668 0.025000
v 0.300839 0.137668 0.028570
v 0.340421 0.137668 0.039183
v 0.377566 0.137668 0.056503
v 0.411113 0.137668 0.080011
v 0.440110 0.137668 0.108980
v 0.463604 0.137668 0.142555
v 0.480909 0.137668 0.179700
v 0.491522 0.137668 0.219268
v 0.495107 0.137668 0.260067
v 0.491522 0.137668 0.300867
v 0.480909 0.137668 0.340463
v 0.463604 0.137668 0.377580
v 0.440110 0.137668 0.411155
v 0.411113 0.137668 0.440124
v 0.377566 0.137668 0.463632
v 0.340421 0.137668 0.480951
v 0.300839 0.137668 0.491564
v 0.260039 0.137668 0.495135
v 0.219240 0.137668 0.491564
v 0.179672 0.137668 0.480951
v 0.142527 0.137668 0.463632
v 0.108966 0.137668 0.440124
v 0.079997 0.137668 0.411155
v 0.056489 0.137668 0.377580
v 0.039169 0.137668 0.340463
v 0.028570 0.137668 0.300867
v 0.032113 0.180288 0.260067
v 0.035585 0.180288 0.220500
v 0.045862 0.180288 0.182122
v 0.062649 0.180288 0.146097
v 0.085458 0.180288 0.113558
v 0.113544 0.180288 0.085458
v 0.146097 0.180288 0.062677
v 0.182094 0.180288 0.045876
v 0.220472 0.180288 0.035585
v 0.260039 0.180288 0.032127
v 0.299607 0.180288 0.035585
v 0.337984 0.180288 0.045876
v 0.373996 0.180288 0.062677
v 0.406549 0.180288 0.085458
v 0.434635 0.180288 0.113558
v 0.457429 0.180288 0.146097
v 0.474217 0.180288 0.182122
v 0.484508 0.180288 0.220500
v 0.487966 0.180288 0.260067
v 0.484508 0.180288 0.299635
v 0.474217 0.180288 0.338012
v 0.457429 0.180288 0.374038
v 0.434635 0.180288 0.406577
v 0.406549 0.180288 0.434677
v 0.373996 0.180288 0.457457
v 0.337984 0.180288 0.474259
v 0.299607 0.180288 0.484550
v 0.260039 0.180288 0.488008
v 0.220472 0.180288 0.484550
v 0.182094 0.180288 0.474259
v 0.146097 0.180288 0.457457
v 0.113544 0.180288 0.434677
v 0.085458 0.180288 0.406577
v 0.062649 0.180288 0.374038
v 0.045862 0.180288 0.338012
v 0.035585 0.180288 0.299635
v 0.074872 0.213793 0.260067
v 0.077673 0.213793 0.227934
v 0.086045 0.213765 0.196740
v 0.099683 0.213793 0.167477
v 0.118206 0.213793 0.141043
v 0.141015 0.213793 0.118206
v 0.167463 0.213793 0.099683
v 0.196726 0.213793 0.086045
v 0.227906 0.213793 0.077687
v 0.260039 0.213793 0.074872
v 0.292186 0.213793 0.077687
v 0.323367 0.213793 0.086045
v 0.352630 0.213793 0.099683
v 0.379078 0.213793 0.118206
v 0.401900 0.213793 0.141043
v 0.420410 0.213793 0.167477
v 0.434047 0.213793 0.196740
v 0.442420 0.213765 0.227934
v 0.445220 0.213793 0.260067
v 0.442420 0.213765 0.292200
v 0.434047 0.213793 0.323395
v 0.420410 0.213793 0.352658
v 0.401900 0.213793 0.379120
v 0.379078 0.213793 0.401928
v 0.352630 0.213793 0.420452
v 0.323367 0.213793 0.434089
v 0.292186 0.213793 0.442448
v 0.260039 0.213793 0.445262
v 0.227906 0.213793 0.442448
v 0.196726 0.213793 0.434089
v 0.167463 0.213793 0.420452
v 0.141015 0.213793 0.401928
v 0.118206 0.213793 0.379120
v 0.099683 0.213793 0.352658
v 0.086045 0.213765 0.323395
v 0.077673 0.213793 0.292200
v 0.138984 0.228998 0.260067
v 0.140818 0.228998 0.239065
v 0.146265 0.228998 0.218666
v 0.155184 0.228998 0.199526
v 0.167309 0.228998 0.182234
v 0.182234 0.228998 0.167323
v 0.199526 0.229026 0.155212
v 0.218652 0.229026 0.146293
v 0.239037 0.229026 0.140818
v 0.260039 0.229026 0.138984
v 0.281055 0.229026 0.140818
v 0.301427 0.229026 0.146293
v 0.320567 0.229026 0.155212
v 0.337872 0.229026 0.167323
v 0.352784 0.229026 0.182234
v 0.364881 0.228998 0.199526
v 0.373814 0.228998 0.218666
v 0.379274 0.228998 0.239065
v 0.381108 0.229026 0.260067
v 0.379274 0.228998 0.281069
v 0.373814 0.228998 0.301469
v 0.364881 0.228998 0.320609
v 0.352784 0.229026 0.337900
v 0.337872 0.229026 0.352826
v 0.320567 0.229026 0.364923
v 0.301427 0.229026 0.373842
v 0.281055 0.229026 0.379316
v 0.260039 0.229026 0.381150
v 0.239037 0.229026 0.379316
v 0.218652 0.229026 0.373842
v 0.199526 0.228998 0.364923
v 0.182234 0.228998 0.352826
v 0.167309 0.228998 0.337900
v 0.155184 0.228998 0.320609
v 0.146265 0.228998 0.301469
v 0.140818 0.228998 0.281069
v 0.167463 0.241194 0.260067
v 0.168877 0.241194 0.244008
v 0.173049 0.241194 0.228424
v 0.179868 0.241194 0.213779
v 0.189137 0.241194 0.200548
v 0.200548 0.241194 0.189137
v 0.213779 0.241194 0.179882
v 0.228396 0.241194 0.173063
v 0.243980 0.241194 0.168891
v 0.260039 0.241194 0.167477
v 0.276113 0.241194 0.168891
v 0.291696 0.241194 0.173063
v 0.306313 0.241194 0.179882
v 0.319545 0.241194 0.189137
v 0.330956 0.241194 0.200548
v 0.340225 0.241194 0.213779
v 0.347043 0.241194 0.228424
v 0.351216 0.241194 0.244008
v 0.352630 0.241194 0.260067
v 0.351216 0.241194 0.276127
v 0.347043 0.241194 0.291710
v 0.340225 0.241194 0.306355
v 0.330956 0.241194 0.319587
v 0.319545 0.241194 0.330998
v 0.306313 0.241194 0.340253
v 0.291696 0.241194 0.347071
v 0.276113 0.241194 0.351244
v 0.260039 0.241194 0.352658
v 0.243980 0.241194 0.351244
v 0.228396 0.241194 0.347071
v 0.213779 0.241194 0.340253
v 0.200548 0.241194 0.330998
v 0.189137 0.241194 0.319587
v 0.179868 0.241194 0.306355
v 0.173049 0.241194 0.291710
v 0.168877 0.241194 0.276127
v 0.188843 0.265542 0.260067
v 0.189921 0.265556 0.247704
v 0.193141 0.265556 0.235705
v 0.198392 0.265542 0.224462
v 0.205504 0.265556 0.214283
v 0.214283 0.265542 0.205504
v 0.224462 0.265556 0.198392
v 0.235705 0.265556 0.193141
v 0.247704 0.265556 0.189921
v 0.260039 0.265556 0.188843
v 0.272388 0.265556 0.189921
v 0.284387 0.265556 0.193141
v 0.295630 0.265556 0.198392
v 0.305809 0.265556 0.205504
v 0.314588 0.265556 0.214283
v 0.321701 0.265556 0.224462
v 0.326951 0.265556 0.235705
v 0.330172 0.265556 0.247704
v 0.331250 0.265542 0.260067
v 0.330172 0.265556 0.272430
v 0.326951 0.265556 0.284429
v 0.321701 0.265556 0.295673
v 0.314588 0.265556 0.305851
v 0.305809 0.265556 0.314630
v 0.295630 0.265556 0.321743
v 0.284387 0.265556 0.326993
v 0.272388 0.265556 0.330214
v 0.260039 0.265556 0.331292
v 0.247704 0.265556 0.330214
v 0.235705 0.265556 0.326993
v 0.224462 0.265556 0.321743
v 0.214283 0.265542 0.314630
v 0.205504 0.265556 0.305851
v 0.198392 0.265542 0.295673
v 0.193141 0.265556 0.284429
v 0.189921 0.265556 0.272430
v 0.195955 0.289904 0.260067
v 0.196936 0.289904 0.248964
v 0.199820 0.289904 0.238155
v 0.204566 0.289904 0.228032
v 0.210951 0.289904 0.218876
v 0.218876 0.289904 0.210979
v 0.228018 0.289904 0.204566
v 0.238141 0.289904 0.199848
v 0.248936 0.289904 0.196936
v 0.260039 0.289904 0.195983
v 0.271156 0.289904 0.196936
v 0.281951 0.289904 0.199848
v 0.292060 0.289904 0.204566
v 0.301217 0.289904 0.210979
v 0.309114 0.289904 0.218876
v 0.315526 0.289904 0.228032
v 0.320273 0.289904 0.238155
v 0.323157 0.289904 0.248964
v 0.324137 0.289904 0.260067
v 0.323157 0.289904 0.271198
v 0.320273 0.289904 0.281979
v 0.315526 0.289904 0.292102
v 0.309114 0.289904 0.301259
v 0.301217 0.289904 0.309156
v 0.292060 0.289904 0.315568
v 0.281951 0.289904 0.320287
v 0.271156 0.289904 0.323199
v 0.260039 0.289904 0.324151
v 0.248936 0.289904 0.323199
v 0.238141 0.289904 0.320287
v 0.228018 0.289904 0.315568
v 0.218876 0.289904 0.309156
v 0.210951 0.289904 0.301259
v 0.204566 0.289904 0.292102
v 0.199820 0.289904 0.281979
v 0.196936 0.289904 0.271198
v 0.195955 0.548689 0.260067
v 0.196922 0.548689 0.248964
v 0.199820 0.548689 0.238155
v 0.204538 0.548689 0.228032
v 0.210951 0.548689 0.218876
v 0.218848 0.548689 0.210979
v 0.228004 0.548689 0.204566
v 0.238141 0.548689 0.199848
v 0.248922 0.548689 0.196936
v 0.260039 0.548689 0.195983
v 0.271170 0.548689 0.196936
v 0.281951 0.548689 0.199848
v 0.292088 0.548689 0.204566
v 0.301231 0.548689 0.210979
v 0.309142 0.548689 0.218876
v 0.315540 0.548689 0.228032
v 0.320273 0.548689 0.238155
v 0.323171 0.548689 0.248964
v 0.324137 0.548689 0.260067
v 0.323171 0.548689 0.271198
v 0.320273 0.548689 0.281979
v 0.315540 0.548689 0.292102
v 0.309142 0.548689 0.301259
v 0.301231 0.548689 0.309156
v 0.292088 0.548689 0.315568
v 0.281951 0.548689 0.320287
v 0.271170 0.548689 0.323199
v 0.260039 0.548689 0.324151
v 0.248922 0.548689 0.323199
v 0.238141 0.548689 0.320287
v 0.228004 0.548689 0.315568
v 0.218848 0.548689 0.309156
v 0.210951 0.548689 0.301259
v 0.204538 0.548689 0.292102
v 0.199820 0.548689 0.281979
v 0.196922 0.548689 0.271198
v 0.181702 0.798374 0.260067
v 0.182878 0.798374 0.246472
v 0.186435 0.798374 0.233283
v 0.192189 0.798374 0.220906
v 0.200030 0.798374 0.209719
v 0.209705 0.798374 0.200058
v 0.220892 0.798374 0.192217
v 0.233255 0.798374 0.186449
v 0.246444 0.798374 0.182906
v 0.260039 0.798374 0.181730
v 0.273634 0.798374 0.182906
v 0.286838 0.798374 0.186449
v 0.299201 0.798374 0.192217
v 0.310388 0.798374 0.200058
v 0.320049 0.798374 0.209719
v 0.327889 0.798374 0.220906
v 0.333658 0.798374 0.233283
v 0.337200 0.798374 0.246472
v 0.338376 0.798374 0.260067
v 0.337200 0.798374 0.273663
v 0.333658 0.798374 0.286852
v 0.327889 0.798374 0.299229
v 0.320049 0.798374 0.310416
v 0.310388 0.798374 0.320077
v 0.299201 0.798374 0.327917
v 0.286838 0.798374 0.333686
v 0.273634 0.798374 0.337228
v 0.260039 0.798374 0.338404
v 0.246444 0.798374 0.337228
v 0.233255 0.798374 0.333686
v 0.220892 0.798374 0.327917
v 0.209705 0.798374 0.320077
v 0.200030 0.798374 0.310416
v 0.192189 0.798374 0.299229
v 0.186435 0.798374 0.286852
v 0.182878 0.798374 0.273663
v 0.153210 0.904966 0.260067
v 0.154834 0.904966 0.241530
v 0.159664 0.904966 0.223538
v 0.167519 0.904966 0.206666
v 0.178202 0.904966 0.191391
v 0.191377 0.904966 0.178230
v 0.206638 0.904966 0.167547
v 0.223510 0.904966 0.159678
v 0.241516 0.904966 0.154862
v 0.260039 0.904966 0.153238
v 0.278577 0.904966 0.154862
v 0.296569 0.904966 0.159678
v 0.313454 0.904966 0.167547
v 0.328716 0.904966 0.178230
v 0.341891 0.904966 0.191391
v 0.352574 0.904966 0.206666
v 0.360428 0.904966 0.223538
v 0.365259 0.904966 0.241530
v 0.366883 0.904966 0.260067
v 0.365259 0.904966 0.278605
v 0.360428 0.904966 0.296597
v 0.352574 0.904966 0.313468
v 0.341891 0.904966 0.328743
v 0.328716 0.904966 0.341905
v 0.313454 0.904966 0.352588
v 0.296569 0.904966 0.360456
v 0.278577 0.904966 0.365273
v 0.260039 0.904966 0.366897
v 0.241516 0.904966 0.365273
v 0.223510 0.904966 0.360456
v 0.206638 0.904966 0.352588
v 0.191377 0.904966 0.341905
v 0.178202 0.904966 0.328743
v 0.167519 0.904966 0.313468
v 0.159664 0.904966 0.296597
v 0.154834 0.904966 0.278605
f 1 2 3
f 4 2 1
f 4 5 2
f 6 5 4
f 6 7 5
f 8 7 6
f 8 9 7
f 10 9 8
f 10 11 9
f 12 11 10
f 12 13 11
f 14 13 12
f 14 15 13
f 16 15 14
f 16 17 15
f 18 17 16
f 18 19 17
f 20 19 18
f 20 21 19
f 22 21 20
f 22 23 21
f 24 23 22
f 24 25 23
f 26 25 24
f 26 27 25
f 28 27 26
f 28 29 27
f 30 29 28
f 30 31 29
f 32 31 30
f 32 33 31
f 34 33 32
f 34 35 33
f 36 35 34
f 36 37 35
f 38 37 36
f 38 39 37
f 40 39 38
f 40 41 39
f 42 41 40
f 42 43 41
f 44 43 42
f 44 45 43
f 46 45 44
f 46 47 45
f 48 47 46
f 48 49 47
f 50 49 48
f 50 51 49
f 52 51 50
f 52 53 51
f 54 53 52
f 54 55 53
f 56 55 54
f 56 57 55
f 58 57 56
f 58 59 57
f 60 59 58
f 60 61 59
f 62 61 60
f 62 63 61
f 64 63 62
f 64 65 63
f 66 65 64
f 66 67 65
f 68 67 66
f 68 69 67
f 70 69 68
f 70 71 69
f 72 71 70
f 72 3 71
f 72 3 1
f 73 4 1
f 74 4 73
f 74 6 4
f 75 6 74
f 75 8 6
f 76 8 75
f 76 10 8
f 77 10 76
f 77 12 10
f 78 12 77
f 78 14 12
f 79 14 78
f 79 16 14
f 80 16 79
f 80 18 16
f 81 18 80
f 81 20 18
f 82 20 81
f 82 22 20
f 83 22 82
f 83 24 22
f 84 24 83
f 84 26 24
f 85 26 84
f 85 28 26
f 86 28 85
f 86 30 28
f 87 30 86
f 87 32 30
f 88 32 87
f 88 34 32
f 89 34 88
f 89 36 34
f 90 36 89
f 90 38 36
f 91 38 90
f 91 40 38
f 92 40 91
f 92 42 40
f 93 42 92
f 93 44 42
f 94 44 93
f 94 46 44
f 95 46 94
f 95 48 46
f 96 48 95
f 96 50 48
f 97 50 96
f 97 52 50
f 98 52 97
f 98 54 52
f 99 54 98
f 99 56 54
f 100 56 99
f 100 58 56
f 101 58 100
f 101 60 58
f 102 60 101
f 102 62 60
f 103 62 102
f 103 64 62
f 104 64 103
f 104 66 64
f 105 66 104
f 105 68 66
f 106 68 105
f 106 70 68
f 107 70 106
f 107 72 70
f 108 72 107
f 108 1 72
f 108 1 73
f 109 74 73
f 110 74 109
f 110 75 74
f 111 75 110
f 111 76 75
f 112 76 111
f 112 77 76
f 113 77 112
f 113 78 77
f 114 78 113
f 114 79 78
f 115 79 114
f 115 80 79
f 116 80 115
f 116 81 80
f 117 81 116
f 117 82 81
f 118 82 117
f 118 83 82
f 119 83 118
f 119 84 83
f 120 84 119
f 120 85 84
f 121 85 120
f 121 86 85
f 122 86 121
f 122 87 86
f 123 87 122
f 123 88 87
f 124 88 123
f 124 89 88
f 125 89 124
f 125 90 89
f 126 90 125
f 126 91 90
f 127 91 126
f 127 92 91
f 128 92 127
f 128 93 92
f 129 93 128
f 129 94 93
f 130 94 129
f 130 95 94
f 131 95 130
f 131 96 95
f 132 96 131
f 132 97 96
f 133 97 132
f 133 98 97
f 134 98 133
f 134 99 98
f 135 99 134
f 135 100 99
f 136 100 135
f 136 101 100
f 137 101 136
f 137 102 101
f 138 102 137
f 138 103 102
f 139 103 138
f 139 104 103
f 140 104 139
f 140 105 104
f 141 105 140
f 141 106 105
f 142 106 141
f 142 107 106
f 143 107 142
f 143 108 107
f 144 108 143
f 144 73 108
f 144 73 109
f 145 110 109
f 146 110 145
f 146 111 110
f 147 111 146
f 147 112 111
f 148 112 147
f 148 113 112
f 149 113 148
f 149 114 113
f 150 114 149
f 150 115 114
f 151 115 150
f 151 116 115
f 152 116 151
f 152 117 116
f 153 117 152
f 153 118 117
f 154 118 153
f 154 119 118
f 155 119 154
f 155 120 119
f 156 120 155
f 156 121 120
f 157 121 156
f 157 122 121
f 158 122 157
f 158 123 122
f 159 123 158
f 159 124 123
f 160 124 159
f 160 125 124
f 161 125 160
f 161 126 125
f 162 126 161
f 162 127 126
f 163 127 162
f 163 128 127
f 164 128 163
f 164 129 128
f 165 129 164
f 165 130 129
f 166 130 165
f 166 131 130
f 167 131 166
f 167 132 131
f 168 132 167
f 168 133 132
f 169 133 168
f 169 134 133
f 170 134 169
f 170 135 134
f 171 135 170
f 171 136 135
f 172 136 171
f 172 137 136
f 173 137 172
f 173 138 137
f 174 138 173
f 174 139 138
f 175 139 174
f 175 140 139
f 176 140 175
f 176 141 140
f 177 141 176
f 177 142 141
f 178 142 177
f 178 143 142
f 179 143 178
f 179 144 143
f 180 144 179
f 180 109 144
f 180 109 145
f 181 146 145
f 182 146 181
f 182 147 146
f 183 147 182
f 183 148 147
f 184 148 183
f 184 149 148
f 185 149 184
f 185 150 149
f 186 150 185
f 186 151 150
f 187 151 186
f 187 152 151
f 188 152 187
f 188 153 152
f 189 153 188
f 189 154 153
f 190 154 189
f 190 155 154
f 191 155 190
f 191 156 155
f 192 156 191
f 192 157 156
f 193 157 192
f 193 158 157
f 194 158 193
f 194 159 158
f 195 159 194
f 195 160 159
f 196 160 195
f 196 161 160
f 197 161 196
f 197 162 161
f 198 162 197
f 198 163 162
f 199 163 198
f 199 164 163
f 200 164 199
f 200 165 164
f 201 165 200
f 201 166 165
f 202 166 201
f 202 167 166
f 203 167 202
f 203 168 167
f 204 168 203
f 204 169 168
f 205 169 204
f 205 170 169
f 206 170 205
f 206 171 170
f 207 171 206
f 207 172 171
f 208 172 207
f 208 173 172
f 209 173 208
f 209 174 173
f 210 174 209
f 210 175 174
f 211 175 210
f 211 176 175
f 212 176 211
f 212 177 176
f 213 177 212
f 213 178 177
f 214 178 213
f 214 179 178
f 215 179 214
f 215 180 179
f 216 180 215
f 216 145 180
f 216 145 181
f 217 182 181
f 218 182 217
f 218 183 182
f 219 183 218
f 219 184 183
f 220 184 219
f 220 185 184
f 221 185 220
f 221 186 185
f 222 186 221
f 222 187 186
f 223 187 222
f 223 188 187
f 224 188 223
f 224 189 188
f 225 189 224
f 225 190 189
f 226 190 225
f 226 191 190
f 227 191 226
f 227 192 191
f 228 192 227
f 228 193 192
f 229 193 228
f 229 194 193
f 230 194 229
f 230 195 194
f 231 195 230
f 231 196 195
f 232 196 231
f 232 197 196
f 233 197 232
f 233 198 197
f 234 198 233
f 234 199 198
f 235 199 234
f 235 200 199
f 236 200 235
f 236 201 200
f 237 201 236
f 237 202 201
f 238 202 237
f 238 203 202
f 239 203 238
f 239 204 203
f 240 204 239
f 240 205 204
f 241 205 240
f 241 206 205
f 242 206 241
f 242 207 206
f 243 207 242
f 243 208 207
f 244 208 243
f 244 209 208
f 245 209 244
f 245 210 209
f 246 210 245
f 246 211 210
f 247 211 246
f 247 212 211
f 248 212 247
f 248 213 212
f 249 213 248
f 249 214 213
f 250 214 249
f 250 215 214
f 251 215 250
f 251 216 215
f 252 216 251
f 252 181 216
f 252 181 217
f 253 218 217
f 254 218 253
f 254 219 218
f 255 219 254
f 255 220 219
f 256 220 255
f 256 221 220
f 257 221 256
f 257 222 221
f 258 222 257
f 258 223 222
f 259 223 258
f 259 224 223
f 260 224 259
f 260 225 224
f 261 225 260
f 261 226 225
f 262 226 261
f 262 227 226
f 263 227 262
f 263 228 227
f 264 228 263
f 264 229 228
f 265 229 264
f 265 230 229
f 266 230 265
f 266 231 230
f 267 231 266
f 267 232 231
f 268 232 267
f 268 233 232
f 269 233 268
f 269 234 233
f 270 234 269
f 270 235 234
f 271 235 270
f 271 236 235
f 272 236 271
f 272 237 236
f 273 237 272
f 273 238 237
f 274 238 273
f 274 239 238
f 275 239 274
f 275 240 239
f 276 240 275
f 276 241 240
f 277 241 276
f 277 242 241
f 278 242 277
f 278 243 242
f 279 243 278
f 279 244 243
f 280 244 279
f 280 245 244
f 281 245 280
f 281 246 245
f 282 246 281
f 282 247 246
f 283 247 282
f 283 248 247
f 284 248 283
f 284 249 248
f 285 249 284
f 285 250 249
f 286 250 285
f 286 251 250
f 287 251 286
f 287 252 251
f 288 252 287
f 288 217 252
f 288 217 253
f 289 254 253
f 290 254 289
f 290 255 254
f 291 255 290
f 291 256 255
f 292 256 291
f 292 257 256
f 293 257 292
f 293 258 257
f 294 258 293
f 294 259 258
f 295 259 294
f 295 260 259
f 296 260 295
f 296 261 260
f 297 261 296
f 297 262 261
f 298 262 297
f 298 263 262
f 299 263 298
f 299 264 263
f 300 264 299
f 300 265 264
f 301 265 300
f 301 266 265
f 302 266 301
f 302 267 266
f 303 267 302
f 303 268 267
f 304 268 303
f 304 269 268
f 305 269 304
f 305 270 269
f 306 270 305
f 306 271 270
f 307 271 306
f 307 272 271
f 308 272 307
f 308 273 272
f 309 273 308
f 309 274 273
f 310 274 309
f 310 275 274
f 311 275 310
f 311 276 275
f 312 276 311
f 312 277 276
f 313 277 312
f 313 278 277
f 314 278 313
f 314 279 278
f 315 279 314
f 315 280 279
f 316 280 315
f 316 281 280
f 317 281 316
f 317 282 281
f 318 282 317
f 318 283 282
f 319 283 318
f 319 284 283
f 320 284 319
f 320 285 284
f 321 285 320
f 321 286 285
f 322 286 321
f 322 287 286
f 323 287 322
f 323 288 287
f 324 288 323
f 324 253 288
f 324 253 289
f 325 290 289
f 326 290 325
f 326 291 290
f 327 291 326
f 327 292 291
f 328 292 327
f 328 293 292
f 329 293 328
f 329 294 293
f 330 294 329
f 330 295 294
f 331 295 330
f 331 296 295
f 332 296 331
f 332 297 296
f 333 297 332
f 333 298 297
f 334 298 333
f 334 299 298
f 335 299 334
f 335 300 299
f 336 300 335
f 336 301 300
f 337 301 336
f 337 302 301
f 338 302 337
f 338 303 302
f 339 303 338
f 339 304 303
f 340 304 339
f 340 305 304
f 341 305 340
f 341 306 305
f 342 306 341
f 342 307 306
f 343 307 342
f 343 308 307
f 344 308 343
f 344 309 308
f 345 309 344
f 345 310 309
f 346 310 345
f 346 311 310
f 347 311 346
f 347 312 311
f 348 312 347
f 348 313 312
f 349 313 348
f 349 314 313
f 350 314 349
f 350 315 314
f 351 315 350
f 351 316 315
f 352 316 351
f 352 317 316
f 353 317 352
f 353 318 317
f 354 318 353
f 354 319 318
f 355 319 354
f 355 320 319
f 356 320 355
f 356 321 320
f 357 321 356
f 357 322 321
f 358 322 357
f 358 323 322
f 359 323 358
f 359 324 323
f 360 324 359
f 360 289 324
f 360 289 325
f 361 326 325
f 362 326 361
f 362 327 326
f 363 327 362
f 363 328 327
f 364 328 363
f 364 329 328
f 365 329 364
f 365 330 329
f 366 330 365
f 366 331 330
f 367 331 366
f 367 332 331
f 368 332 367
f 368 333 332
f 369 333 368
f 369 334 333
f 370 334 369
f 370 335 334
f 371 335 370
f 371 336 335
f 372 336 371
f 372 337 336
f 373 337 372
f 373 338 337
f 374 338 373
f 374 339 338
f 375 339 374
f 375 340 339
f 376 340 375
f 376 341 340
f 377 341 376
f 377 342 341
f 378 342 377
f 378 343 342
f 379 343 378
f 379 344 343
f 380 344 379
f 380 345 344
f 381 345 380
f 381 346 345
f 382 346 381
f 382 347 346
f 383 347 382
f 383 348 347
f 384 348 383
f 384 349 348
f 385 349 384
f 385 350 349
f 386 350 385
f 386 351 350
f 387 351 386
f 387 352 351
f 388 352 387
f 388 353 352
f 389 353 388
f 389 354 353
f 390 354 389
f 390 355 354
f 391 355 390
f 391 356 355
f 392 356 391
f 392 357 356
f 393 357 392
f 393 358 357
f 394 358 393
f 394 359 358
f 395 359 394
f 395 360 359
f 396 360 395
f 396 325 360
f 396 325 361
f 397 362 361
f 398 362 397
f 398 363 362
f 399 363 398
f 399 364 363
f 400 364 399
f 400 365 364
f 401 365 400
f 401 366 365
f 402 366 401
f 402 367 366
f 403 367 402
f 403 368 367
f 404 368 403
f 404 369 368
f 405 369 404
f 405 370 369
f 406 370 405
f 406 371 370
f 407 371 406
f 407 372 371
f 408 372 407
f 408 373 372
f 409 373 408
f 409 374 373
f 410 374 409
f 410 375 374
f 411 375 410
f 411 376 375
f 412 376 411
f 412 377 376
f 413 377 412
f 413 378 377
f 414 378 413
f 414 379 378
f 415 379 414
f 415 380 379
f 416 380 415
f 416 381 380
f 417 381 416
f 417 382 381
f 418 382 417
f 418 383 382
f 419 383 418
f 419 384 383
f 420 384 419
f 420 385 384
f 421 385 420
f 421 386 385
f 422 386 421
f 422 387 386
f 423 387 422
f 423 388 387
f 424 388 423
f 424 389 388
f 425 389 424
f 425 390 389
f 426 390 425
f 426 391 390
f 427 391 426
f 427 392 391
f 428 392 427
f 428 393 392
f 429 393 428
f 429 394 393
f 430 394 429
f 430 395 394
f 431 395 430
f 431 396 395
f 432 396 431
f 432 361 396
f 432 361 397
f 433 398 397
f 434 398 433
f 434 399 398
f 435 399 434
f 435 400 399
f 436 400 435
f 436 401 400
f 437 401 436
f 437 402 401
f 438 402 437
f 438 403 402
f 439 403 438
f 439 404 403
f 440 404 439
f 440 405 404
f 441 405 440
f 441 406 405
f 442 406 441
f 442 407 406
f 443 407 442
f 443 408 407
f 444 408 443
f 444 409 408
f 445 409 444
f 445 410 409
f 446 410 445
f 446 411 410
f 447 411 446
f 447 412 411
f 448 412 447
f 448 413 412
f 449 413 448
f 449 414 413
f 450 414 449
f 450 415 414
f 451 415 450
f 451 416 415
f 452 416 451
f 452 417 416
f 453 417 452
f 453 418 417
f 454 418 453
f 454 419 418
f 455 419 454
f 455 420 419
f 456 420 455
f 456 421 420
f 457 421 456
f 457 422 421
f 458 422 457
f 458 423 422
f 459 423 458
f 459 424 423
f 460 424 459
f 460 425 424
f 461 425 460
f 461 426 425
f 462 426 461
f 462 427 426
f 463 427 462
f 463 428 427
f 464 428 463
f 464 429 428
f 465 429 464
f 465 430 429
f 466 430 465
f 466 431 430
f 467 431 466
f 467 432 431
f 468 432 467
f 468 397 432
f 468 397 433
f 469 434 433
f 470 434 469
f 470 435 434
f 471 435 470
f 471 436 435
f 472 436 471
f 472 437 436
f 473 437 472
f 473 438 437
f 474 438 473
f 474 439 438
f 475 439 474
f 475 440 439
f 476 440 475
f 476 441 440
f 477 441 476
f 477 442 441
f 478 442 477
f 478 443 442
f 479 443 478
f 479 444 443
f 480 444 479
f 480 445 444
f 481 445 480
f 481 446 445
f 482 446 481
f 482 447 446
f 483 447 482
f 483 448 447
f 484 448 483
f 484 449 448
f 485 449 484
f 485 450 449
f 486 450 485
f 486 451 450
f 487 451 486
f 487 452 451
f 488 452 487
f 488 453 452
f 489 453 488
f 489 454 453
f 490 454 489
f 490 455 454
f 491 455 490
f 491 456 455
f 492 456 491
f 492 457 456
f 493 457 492
f 493 458 457
f 494 458 493
f 494 459 458
f 495 459 494
f 495 460 459
f 496 460 495
f 496 461 460
f 497 461 496
f 497 462 461
f 498 462 497
f 498 463 462
f 499 463 498
f 499 464 463
f 500 464 499
f 500 465 464
f 501 465 500
f 501 466 465
f 502 466 501
f 502 467 466
f 503 467 502
f 503 468 467
f 504 468 503
f 504 433 468
f 504 433 469
f 505 470 469
f 506 470 505
f 506 471 470
f 507 471 506
f 507 472 471
f 508 472 507
f 508 473 472
f 509 473 508
f 509 474 473
f 510 474 509
f 510 475 474
f 511 475 510
f 511 476 475
f 512 476 511
f 512 477 476
f 513 477 512
f 513 478 477
f 514 478 513
f 514 479 478
f 515 479 514
f 515 480 479
f 516 480 515
f 516 481 480
f 517 481 516
f 517 482 481
f 518 482 517
f 518 483 482
f 519 483 518
f 519 484 483
f 520 484 519
f 520 485 484
f 521 485 520
f 521 486 485
f 522 486 521
f 522 487 486
f 523 487 522
f 523 488 487
f 524 488 523
f 524 489 488
f 525 489 524
f 525 490 489
f 526 490 525
f 526 491 490
f 527 491 526
f 527 492 491
f 528 492 527
f 528 493 492
f 529 493 528
f 529 494 493
f 530 494 529
f 530 495 494
f 531 495 530
f 531 496 495
f 532 496 531
f 532 497 496
f 533 497 532
f 533 498 497
f 534 498 533
f 534 499 498
f 535 499 534
f 535 500 499
f 536 500 535
f 536 501 500
f 537 501 536
f 537 502 501
f 538 502 537
f 538 503 502
f 539 503 538
f 539 504 503
f 540 504 539
f 540 469 504
f 540 469 505
f 541 506 505
f 542 506 541
f 542 507 506
f 543 507 542
f 543 508 507
f 544 508 543
f 544 509 508
f 545 509 544
f 545 510 509
f 546 510 545
f 546 511 510
f 547 511 546
f 547 512 511
f 548 512 547
f 548 513 512
f 549 513 548
f 549 514 513
f 550 514 549
f 550 515 514
f 551 515 550
f 551 516 515
f 552 516 551
f 552 517 516
f 553 517 552
f 553 518 517
f 554 518 553
f 554 519 518
f 555 519 554
f 555 520 519
f 556 520 555
f 556 521 520
f 557 521 556
f 557 522 521
f 558 522 557
f 558 523 522
f 559 523 558
f 559 524 523
f 560 524 559
f 560 525 524
f 561 525 560
f 561 526 525
f 562 526 561
f 562 527 526
f 563 527 562
f 563 528 527
f 564 528 563
f 564 529 528
f 565 529 564
f 565 530 529
f 566 530 565
f 566 531 530
f 567 531 566
f 567 532 531
f 568 532 567
f 568 533 532
f 569 533 568
f 569 534 533
f 570 534 569
f 570 535 534
f 571 535 570
f 571 536 535
f 572 536 571
f 572 537 536
f 573 537 572
f 573 538 537
f 574 538 573
f 574 539 538
f 575 539 574
f 575 540 539
f 576 540 575
f 576 505 540
f 576 505 541
f 577 542 541
f 578 542 577
f 578 543 542
f 579 543 578
f 579 544 543
f 580 544 579
f 580 545 544
f 581 545 580
f 581 546 545
f 582 546 581
f 582 547 546
f 583 547 582
f 583 548 547
f 584 548 583
f 584 549 548
f 585 549 584
f 585 550 549
f 586 550 585
f 586 551 550
f 587 551 586
f 587 552 551
f 588 552 587
f 588 553 552
f 589 553 588
f 589 554 553
f 590 554 589
f 590 555 554
f 591 555 590
f 591 556 555
f 592 556 591
f 592 557 556
f 593 557 592
f 593 558 557
f 594 558 593
f 594 559 558
f 595 559 594
f 595 560 559
f 596 560 595
f 596 561 560
f 597 561 596
f 597 562 561
f 598 562 597
f 598 563 562
f 599 563 598
f 599 564 563
f 600 564 599
f 600 565 564
f 601 565 600
f 601 566 565
f 602 566 601
f 602 567 566
f 603 567 602
f 603 568 567
f 604 568 603
f 604 569 568
f 605 569 604
f 605 570 569
f 606 570 605
f 606 571 570
f 607 571 606
f 607 572 571
f 608 572 607
f 608 573 572
f 609 573 608
f 609 574 573
f 610 574 609
f 610 575 574
f 611 575 610
f 611 576 575
f 612 576 611
f 612 541 576
f 612 541 577
f 613 578 577
f 614 578 613
f 614 579 578
f 615 579 614
f 615 580 579
f 616 580 615
f 616 581 580
f 617 581 616
f 617 582 581
f 618 582 617
f 618 583 582
f 619 583 618
f 619 584 583
f 620 584 619
f 620 585 584
f 621 585 620
f 621 586 585
f 622 586 621
f 622 587 586
f 623 587 622
f 623 588 587
f 624 588 623
f 624 589 588
f 625 589 624
f 625 590 589
f 626 590 625
f 626 591 590
f 627 591 626
f 627 592 591
f 628 592 627
f 628 593 592
f 629 593 628
f 629 594 593
f 630 594 629
f 630 595 594
f 631 595 630
f 631 596 595
f 632 596 631
f 632 597 596
f 633 597 632
f 633 598 597
f 634 598 633
f 634 599 598
f 635 599 634
f 635 600 599
f 636 600 635
f 636 601 600
f 637 601 636
f 637 602 601
f 638 602 637
f 638 603 602
f 639 603 638
f 639 604 603
f 640 604 639
f 640 605 604
f 641 605 640
f 641 606 605
f 642 606 641
f 642 607 606
f 643 607 642
f 643 608 607
f 644 608 643
f 644 609 608
f 645 609 644
f 645 610 609
f 646 610 645
f 646 611 610
f 647 611 646
f 647 612 611
f 648 612 647
f 648 577 612
f 648 577 613
f 649 614 613
f 650 614 649
f 650 615 614
f 651 615 650
f 651 616 615
f 652 616 651
f 652 617 616
f 653 617 652
f 653 618 617
f 654 618 653
f 654 619 618
f 655 619 654
f 655 620 619
f 656 620 655
f 656 621 620
f 657 621 656
f 657 622 621
f 658 622 657
f 658 623 622
f 659 623 658
f 659 624 623
f 660 624 659
f 660 625 624
f 661 625 660
f 661 626 625
f 662 626 661
f 662 627 626
f 663 627 662
f 663 628 627
f 664 628 663
f 664 629 628
f 665 629 664
f 665 630 629
f 666 630 665
f 666 631 630
f 667 631 666
f 667 632 631
f 668 632 667
f 668 633 632
f 669 633 668
f 669 634 633
f 670 634 669
f 670 635 634
f 671 635 670
f 671 636 635
f 672 636 671
f 672 637 636
f 673 637 672
f 673 638 637
f 674 638 673
f 674 639 638
f 675 639 674
f 675 640 639
f 676 640 675
f 676 641 640
f 677 641 676
f 677 642 641
f 678 642 677
f 678 643 642
f 679 643 678
f 679 644 643
f 680 644 679
f 680 645 644
f 681 645 680
f 681 646 645
f 682 646 681
f 682 647 646
f 683 647 682
f 683 648 647
f 684 648 683
f 684 613 648
f 684 613 649
f 685 650 649
f 686 650 685
f 686 651 650
f 687 651 686
f 687 652 651
f 688 652 687
f 688 653 652
f 689 653 688
f 689 654 653
f 690 654 689
f 690 655 654
f 691 655 690
f 691 656 655
f 692 656 691
f 692 657 656
f 693 657 692
f 693 658 657
f 694 658 693
f 694 659 658
f 695 659 694
f 695 660 659
f 696 660 695
f 696 661 660
f 697 661 696
f 697 662 661
f 698 662 697
f 698 663 662
f 699 663 698
f 699 664 663
f 700 664 699
f 700 665 664
f 701 665 700
f 701 666 665
f 702 666 701
f 702 667 666
f 703 667 702
f 703 668 667
f 704 668 703
f 704 669 668
f 705 669 704
f 705 670 669
f 706 670 705
f 706 671 670
f 707 671 706
f 707 672 671
f 708 672 707
f 708 673 672
f 709 673 708
f 709 674 673
f 710 674 709
f 710 675 674
f 711 675 710
f 711 676 675
f 712 676 711
f 712 677 676
f 713 677 712
f 713 678 677
f 714 678 713
f 714 679 678
f 715 679 714
f 715 680 679
f 716 680 715
f 716 681 680
f 717 681 716
f 717 682 681
f 718 682 717
f 718 683 682
f 719 683 718
f 719 684 683
f 720 684 719
f 720 649 684
f 720 649 685
f 721 686 685
f 722 686 721
f 722 687 686
f 723 687 722
f 723 688 687
f 724 688 723
f 724 689 688
f 725 689 724
f 725 690 689
f 726 690 725
f 726 691 690
f 727 691 726
f 727 692 691
f 728 692 727
f 728 693 692
f 729 693 728
f 729 694 693
f 730 694 729
f 730 695 694
f 731 695 730
f 731 696 695
f 732 696 731
f 732 697 696
f 733 697 732
f 733 698 697
f 734 698 733
f 734 699 698
f 735 699 734
f 735 700 699
f 736 700 735
f 736 701 700
f 737 701 736
f 737 702 701
f 738 702 737
f 738 703 702
f 739 703 738
f 739 704 703
f 740 704 739
f 740 705 704
f 741 705 740
f 741 706 705
f 742 706 741
f 742 707 706
f 743 707 742
f 743 708 707
f 744 708 743
f 744 709 708
f 745 709 744
f 745 710 709
f 746 710 745
f 746 711 710
f 747 711 746
f 747 712 711
f 748 712 747
f 748 713 712
f 749 713 748
f 749 714 713
f 750 714 749
f 750 715 714
f 751 715 750
f 751 716 715
f 752 716 751
f 752 717 716
f 753 717 752
f 753 718 717
f 754 718 753
f 754 719 718
f 755 719 754
f 755 720 719
f 756 720 755
f 756 685 720
f 756 685 721
f 757 722 721
f 758 722 757
f 758 723 722
f 759 723 758
f 759 724 723
f 760 724 759
f 760 725 724
f 761 725 760
f 761 726 725
f 762 726 761
f 762 727 726
f 763 727 762
f 763 728 727
f 764 728 763
f 764 729 728
f 765 729 764
f 765 730 729
f 766 730 765
f 766 731 730
f 767 731 766
f 767 732 731
f 768 732 767
f 768 733 732
f 769 733 768
f 769 734 733
f 770 734 769
f 770 735 734
f 771 735 770
f 771 736 735
f 772 736 771
f 772 737 736
f 773 737 772
f 773 738 737
f 774 738 773
f 774 739 738
f 775 739 774
f 775 740 739
f 776 740 775
f 776 741 740
f 777 741 776
f 777 742 741
f 778 742 777
f 778 743 742
f 779 743 778
f 779 744 743
f 780 744 779
f 780 745 744
f 781 745 780
f 781 746 745
f 782 746 781
f 782 747 746
f 783 747 782
f 783 748 747
f 784 748 783
f 784 749 748
f 785 749 784
f 785 750 749
f 786 750 785
f 786 751 750
f 787 751 786
f 787 752 751
f 788 752 787
f 788 753 752
f 789 753 788
f 789 754 753
f 790 754 789
f 790 755 754
f 791 755 790
f 791 756 755
f 792 756 791
f 792 721 756
f 792 721 757
f 793 758 757
f 794 758 793
f 794 759 758
f 795 759 794
f 795 760 759
f 796 760 795
f 796 761 760
f 797 761 796
f 797 762 761
f 798 762 797
f 798 763 762
f 799 763 798
f 799 764 763
f 800 764 799
f 800 765 764
f 801 765 800
f 801 766 765
f 802 766 801
f 802 767 766
f 803 767 802
f 803 768 767
f 804 768 803
f 804 769 768
f 805 769 804
f 805 770 769
f 806 770 805
f 806 771 770
f 807 771 806
f 807 772 771
f 808 772 807
f 808 773 772
f 809 773 808
f 809 774 773
f 810 774 809
f 810 775 774
f 811 775 810
f 811 776 775
f 812 776 811
f 812 777 776
f 813 777 812
f 813 778 777
f 814 778 813
f 814 779 778
f 815 779 814
f 815 780 779
f 816 780 815
f 816 781 780
f 817 781 816
f 817 782 781
f 818 782 817
f 818 783 782
f 819 783 818
f 819 784 783
f 820 784 819
f 820 785 784
f 821 785 820
f 821 786 785
f 822 786 821
f 822 787 786
f 823 787 822
f 823 788 787
f 824 788 823
f 824 789 788
f 825 789 824
f 825 790 789
f 826 790 825
f 826 791 790
f 827 791 826
f 827 792 791
f 828 792 827
f 828 757 792
f 828 757 793
f 829 794 793
f 830 794 829
f 830 795 794
f 831 795 830
f 831 796 795
f 832 796 831
f 832 797 796
f 833 797 832
f 833 798 797
f 834 798 833
f 834 799 798
f 835 799 834
f 835 800 799
f 836 800 835
f 836 801 800
f 837 801 836
f 837 802 801
f 838 802 837
f 838 803 802
f 839 803 838
f 839 804 803
f 840 804 839
f 840 805 804
f 841 805 840
f 841 806 805
f 842 806 841
f 842 807 806
f 843 807 842
f 843 808 807
f 844 808 843
f 844 809 808
f 845 809 844
f 845 810 809
f 846 810 845
f 846 811 810
f 847 811 846
f 847 812 811
f 848 812 847
f 848 813 812
f 849 813 848
f 849 814 813
f 850 814 849
f 850 815 814
f 851 815 850
f 851 816 815
f 852 816 851
f 852 817 816
f 853 817 852
f 853 818 817
f 854 818 853
f 854 819 818
f 855 819 854
f 855 820 819
f 856 820 855
f 856 821 820
f 857 821 856
f 857 822 821
f 858 822 857
f 858 823 822
f 859 823 858
f 859 824 823
f 860 824 859
f 860 825 824
f 861 825 860
f 861 826 825
f 862 826 861
f 862 827 826
f 863 827 862
f 863 828 827
f 864 828 863
f 864 793 828
f 864 793 829
f 865 830 829
f 866 830 865
f 866 831 830
f 867 831 866
f 867 832 831
f 868 832 867
f 868 833 832
f 869 833 868
f 869 834 833
f 870 834 869
f 870 835 834
f 871 835 870
f 871 836 835
f 872 836 871
f 872 837 836
f 873 837 872
f 873 838 837
f 874 838 873
f 874 839 838
f 875 839 874
f 875 840 839
f 876 840 875
f 876 841 840
f 877 841 876
f 877 842 841
f 878 842 877
f 878 843 842
f 879 843 878
f 879 844 843
f 880 844 879
f 880 845 844
f 881 845 880
f 881 846 845
f 882 846 881
f 882 847 846
f 883 847 882
f 883 848 847
f 884 848 883
f 884 849 848
f 885 849 884
f 885 850 849
f 886 850 885
f 886 851 850
f 887 851 886
f 887 852 851
f 888 852 887
f 888 853 852
f 889 853 888
f 889 854 853
f 890 854 889
f 890 855 854
f 891 855 890
f 891 856 855
f 892 856 891
f 892 857 856
f 893 857 892
f 893 858 857
f 894 858 893
f 894 859 858
f 895 859 894
f 895 860 859
f 896 860 895
f 896 861 860
f 897 861 896
f 897 862 861
f 898 862 897
f 898 863 862
f 899 863 898
f 899 864 863
f 900 864 899
f 900 829 864
f 900 829 865
f 901 866 865
f 902 866 901
f 902 867 866
f 903 867 902
f 903 868 867
f 904 868 903
f 904 869 868
f 905 869 904
f 905 870 869
f 906 870 905
f 906 871 870
f 907 871 906
f 907 872 871
f 908 872 907
f 908 873 872
f 909 873 908
f 909 874 873
f 910 874 909
f 910 875 874
f 911 875 910
f 911 876 875
f 912 876 911
f 912 877 876
f 913 877 912
f 913 878 877
f 914 878 913
f 914 879 878
f 915 879 914
f 915 880 879
f 916 880 915
f 916 881 880
f 917 881 916
f 917 882 881
f 918 882 917
f 918 883 882
f 919 883 918
f 919 884 883
f 920 884 919
f 920 885 884
f 921 885 920
f 921 886 885
f 922 886 921
f 922 887 886
f 923 887 922
f 923 888 887
f 924 888 923
f 924 889 888
f 925 889 924
f 925 890 889
f 926 890 925
f 926 891 890
f 927 891 926
f 927 892 891
f 928 892 927
f 928 893 892
f 929 893 928
f 929 894 893
f 930 894 929
f 930 895 894
f 931 895 930
f 931 896 895
f 932 896 931
f 932 897 896
f 933 897 932
f 933 898 897
f 934 898 933
f 934 899 898
f 935 899 934
f 935 900 899
f 936 900 935
f 936 865 900
f 936 865 901
f 937 902 901
f 938 902 937
f 938 903 902
f 939 903 938
f 939 904 903
f 940 904 939
f 940 905 904
f 941 905 940
f 941 906 905
f 942 906 941
f 942 907 906
f 943 907 942
f 943 908 907
f 944 908 943
f 944 909 908
f 945 909 944
f 945 910 909
f 946 910 945
f 946 911 910
f 947 911 946
f 947 912 911
f 948 912 947
f 948 913 912
f 949 913 948
f 949 914 913
f 950 914 949
f 950 915 914
f 951 915 950
f 951 916 915
f 952 916 951
f 952 917 916
f 953 917 952
f 953 918 917
f 954 918 953
f 954 919 918
f 955 919 954
f 955 920 919
f 956 920 955
f 956 921 920
f 957 921 956
f 957 922 921
f 958 922 957
f 958 923 922
f 959 923 958
f 959 924 923
f 960 924 959
f 960 925 924
f 961 925 960
f 961 926 925
f 962 926 961
f 962 927 926
f 963 927 962
f 963 928 927
f 964 928 963
f 964 929 928
f 965 929 964
f 965 930 929
f 966 930 965
f 966 931 930
f 967 931 966
f 967 932 931
f 968 932 967
f 968 933 932
f 969 933 968
f 969 934 933
f 970 934 969
f 970 935 934
f 971 935 970
f 971 936 935
f 972 936 971
f 972 901 936
f 972 901 937
f 973 938 937
f 974 938 973
f 974 939 938
f 975 939 974
f 975 940 939
f 976 940 975
f 976 941 940
f 977 941 976
f 977 942 941
f 978 942 977
f 978 943 942
f 979 943 978
f 979 944 943
f 980 944 979
f 980 945 944
f 981 945 980
f 981 946 945
f 982 946 981
f 982 947 946
f 983 947 982
f 983 948 947
f 984 948 983
f 984 949 948
f 985 949 984
f 985 950 949
f 986 950 985
f 986 951 950
f 987 951 986
f 987 952 951
f 988 952 987
f 988 953 952
f 989 953 988
f 989 954 953
f 990 954 989
f 990 955 954
f 991 955 990
f 991 956 955
f 992 956 991
f 992 957 956
f 993 957 992
f 993 958 957
f 994 958 993
f 994 959 958
f 995 959 994
f 995 960 959
f 996 960 995
f 996 961 960
f 997 961 996
f 997 962 961
f 998 962 997
f 998 963 962
f 999 963 998
f 999 964 963
f 1000 964 999
f 1000 965 964
f 1001 965 1000
f 1001 966 965
f 1002 966 1001
f 1002 967 966
f 1003 967 1002
f 1003 968 967
f 1004 968 1003
f 1004 969 968
f 1005 969 1004
f 1005 970 969
f 1006 970 1005
f 1006 971 970
f 1007 971 1006
f 1007 972 971
f 1008 972 1007
f 1008 937 972
f 1008 937 973
f 1009 974 973
f 1010 974 1009
f 1010 975 974
f 1011 975 1010
f 1011 976 975
f 1012 976 1011
f 1012 977 976
f 1013 977 1012
f 1013 978 977
f 1014 978 1013
f 1014 979 978
f 1015 979 1014
f 1015 980 979
f 1016 980 1015
f 1016 981 980
f 1017 981 1016
f 1017 982 981
f 1018 982 1017
f 1018 983 982
f 1019 983 1018
f 1019 984 983
f 1020 984 1019
f 1020 985 984
f 1021 985 1020
f 1021 986 985
f 1022 986 1021
f 1022 987 986
f 1023 987 1022
f 1023 988 987
f 1024 988 1023
f 1024 989 988
f 1025 989 1024
f 1025 990 989
f 1026 990 1025
f 1026 991 990
f 1027 991 1026
f 1027 992 991
f 1028 992 1027
f 1028 993 992
f 1029 993 1028
f 1029 994 993
f 1030 994 1029
f 1030 995 994
f 1031 995 1030
f 1031 996 995
f 1032 996 1031
f 1032 997 996
f 1033 997 1032
f 1033 998 997
f 1034 998 1033
f 1034 999 998
f 1035 999 1034
f 1035 1000 999
f 1036 1000 1035
f 1036 1001 1000
f 1037 1001 1036
f 1037 1002 1001
f 1038 1002 1037
f 1038 1003 1002
f 1039 1003 1038
f 1039 1004 1003
f 1040 1004 1039
f 1040 1005 1004
f 1041 1005 1040
f 1041 1006 1005
f 1042 1006 1041
f 1042 1007 1006
f 1043 1007 1042
f 1043 1008 1007
f 1044 1008 1043
f 1044 973 1008
f 1044 973 1009
f 1045 1010 1009
f 1046 1010 1045
f 1046 1011 1010
f 1047 1011 1046
f 1047 1012 1011
f 1048 1012 1047
f 1048 1013 1012
f 1049 1013 1048
f 1049 1014 1013
f 1050 1014 1049
f 1050 1015 1014
f 1051 1015 1050
f 1051 1016 1015
f 1052 1016 1051
f 1052 1017 1016
f 1053 1017 1052
f 1053 1018 1017
f 1054 1018 1053
f 1054 1019 1018
f 1055 1019 1054
f 1055 1020 1019
f 1056 1020 1055
f 1056 1021 1020
f 1057 1021 1056
f 1057 1022 1021
f 1058 1022 1057
f 1058 1023 1022
f 1059 1023 1058
f 1059 1024 1023
f 1060 1024 1059
f 1060 1025 1024
f 1061 1025 1060
f 1061 1026 1025
f 1062 1026 1061
f 1062 1027 1026
f 1063 1027 1062
f 1063 1028 1027
f 1064 1028 1063
f 1064 1029 1028
f 1065 1029 1064
f 1065 1030 1029
f 1066 1030 1065
f 1066 1031 1030
f 1067 1031 1066
f 1067 1032 1031
f 1068 1032 1067
f 1068 1033 1032
f 1069 1033 1068
f 1069 1034 1033
f 1070 1034 1069
f 1070 1035 1034
f 1071 1035 1070
f 1071 1036 1035
f 1072 1036 1071
f 1072 1037 1036
f 1073 1037 1072
f 1073 1038 1037
f 1074 1038 1073
f 1074 1039 1038
f 1075 1039 1074
f 1075 1040 1039
f 1076 1040 1075
f 1076 1041 1040
f 1077 1041 1076
f 1077 1042 1041
f 1078 1042 1077
f 1078 1043 1042
f 1079 1043 1078
f 1079 1044 1043
f 1080 1044 1079
f 1080 1009 1044
f 1080 1009 1045
f 1081 1046 1045
f 1082 1046 1081
f 1082 1047 1046
f 1083 1047 1082
f 1083 1048 1047
f 1084 1048 1083
f 1084 1049 1048
f 1085 1049 1084
f 1085 1050 1049
f 1086 1050 1085
f 1086 1051 1050
f 1087 1051 1086
f 1087 1052 1051
f 1088 1052 1087
f 1088 1053 1052
f 1089 1053 1088
f 1089 1054 1053
f 1090 1054 1089
f 1090 1055 1054
f 1091 1055 1090
f 1091 1056 1055
f 1092 1056 1091
f 1092 1057 1056
f 1093 1057 1092
f 1093 1058 1057
f 1094 1058 1093
f 1094 1059 1058
f 1095 1059 1094
f 1095 1060 1059
f 1096 1060 1095
f 1096 1061 1060
f 1097 1061 1096
f 1097 1062 1061
f 1098 1062 1097
f 1098 1063 1062
f 1099 1063 1098
f 1099 1064 1063
f 1100 1064 1099
f 1100 1065 1064
f 1101 1065 1100
f 1101 1066 1065
f 1102 1066 1101
f 1102 1067 1066
f 1103 1067 1102
f 1103 1068 1067
f 1104 1068 1103
f 1104 1069 1068
f 1105 1069 1104
f 1105 1070 1069
f 1106 1070 1105
f 1106 1071 1070
f 1107 1071 1106
f 1107 1072 1071
f 1108 1072 1107
f 1108 1073 1072
f 1109 1073 1108
f 1109 1074 1073
f 1110 1074 1109
f 1110 1075 1074
f 1111 1075 1110
f 1111 1076 1075
f 1112 1076 1111
f 1112 1077 1076
f 1113 1077 1112
f 1113 1078 1077
f 1114 1078 1113
f 1114 1079 1078
f 1115 1079 1114
f 1115 1080 1079
f 1116 1080 1115
f 1116 1045 1080
f 1116 1045 1081
f 1117 1082 1081
f 1118 1082 1117
f 1118 1083 1082
f 1119 1083 1118
f 1119 1084 1083
f 1120 1084 1119
f 1120 1085 1084
f 1121 1085 1120
f 1121 1086 1085
f 1122 1086 1121
f 1122 1087 1086
f 1123 1087 1122
f 1123 1088 1087
f 1124 1088 1123
f 1124 1089 1088
f 1125 1089 1124
f 1125 1090 1089
f 1126 1090 1125
f 1126 1091 1090
f 1127 1091 1126
f 1127 1092 1091
f 1128 1092 1127
f 1128 1093 1092
f 1129 1093 1128
f 1129 1094 1093
f 1130 1094 1129
f 1130 1095 1094
f 1131 1095 1130
f 1131 1096 1095
f 1132 1096 1131
f 1132 1097 1096
f 1133 1097 1132
f 1133 1098 1097
f 1134 1098 1133
f 1134 1099 1098
f 1135 1099 1134
f 1135 1100 1099
f 1136 1100 1135
f 1136 1101 1100
f 1137 1101 1136
f 1137 1102 1101
f 1138 1102 1137
f 1138 1103 1102
f 1139 1103 1138
f 1139 1104 1103
f 1140 1104 1139
f 1140 1105 1104
f 1141 1105 1140
f 1141 1106 1105
f 1142 1106 1141
f 1142 1107 1106
f 1143 1107 1142
f 1143 1108 1107
f 1144 1108 1143
f 1144 1109 1108
f 1145 1109 1144
f 1145 1110 1109
f 1146 1110 1145
f 1146 1111 1110
f 1147 1111 1146
f 1147 1112 1111
f 1148 1112 1147
f 1148 1113 1112
f 1149 1113 1148
f 1149 1114 1113
f 1150 1114 1149
f 1150 1115 1114
f 1151 1115 1150
f 1151 1116 1115
f 1152 1116 1151
f 1152 1081 1116
f 1152 1081 1117
f 1153 1118 1117
f 1154 1118 1153
f 1154 1119 1118
f 1155 1119 1154
f 1155 1120 1119
f 1156 1120 1155
f 1156 1121 1120
f 1157 1121 1156
f 1157 1122 1121
f 1158 1122 1157
f 1158 1123 1122
f 1159 1123 1158
f 1159 1124 1123
f 1160 1124 1159
f 1160 1125 1124
f 1161 1125 1160
f 1161 1126 1125
f 1162 1126 1161
f 1162 1127 1126
f 1163 1127 1162
f 1163 1128 1127
f 1164 1128 1163
f 1164 1129 1128
f 1165 1129 1164
f 1165 1130 1129
f 1166 1130 1165
f 1166 1131 1130
f 1167 1131 1166
f 1167 1132 1131
f 1168 1132 1167
f 1168 1133 1132
f 1169 1133 1168
f 1169 1134 1133
f 1170 1134 1169
f 1170 1135 1134
f 1171 1135 1170
f 1171 1136 1135
f 1172 1136 1171
f 1172 1137 1136
f 1173 1137 1172
f 1173 1138 1137
f 1174 1138 1173
f 1174 1139 1138
f 1175 1139 1174
f 1175 1140 1139
f 1176 1140 1175
f 1176 1141 1140
f 1177 1141 1176
f 1177 1142 1141
f 1178 1142 1177
f 1178 1143 1142
f 1179 1143 1178
f 1179 1144 1143
f 1180 1144 1179
f 1180 1145 1144
f 1181 1145 1180
f 1181 1146 1145
f 1182 1146 1181
f 1182 1147 1146
f 1183 1147 1182
f 1183 1148 1147
f 1184 1148 1183
f 1184 1149 1148
f 1185 1149 1184
f 1185 1150 1149
f 1186 1150 1185
f 1186 1151 1150
f 1187 1151 1186
f 1187 1152 1151
f 1188 1152 1187
f 1188 1117 1152
f 1188 1117 1153
f 1189 1154 1153
f 1190 1154 1189
f 1190 1155 1154
f 1191 1155 1190
f 1191 1156 1155
f 1192 1156 1191
f 1192 1157 1156
f 1193 1157 1192
f 1193 1158 1157
f 1194 1158 1193
f 1194 1159 1158
f 1195 1159 1194
f 1195 1160 1159
f 1196 1160 1195
f 1196 1161 1160
f 1197 1161 1196
f 1197 1162 1161
f 1198 1162 1197
f 1198 1163 1162
f 1199 1163 1198
f 1199 1164 1163
f 1200 1164 1199
f 1200 1165 1164
f 1201 1165 1200
f 1201 1166 1165
f 1202 1166 1201
f 1202 1167 1166
f 1203 1167 1202
f 1203 1168 1167
f 1204 1168 1203
f 1204 1169 1168
f 1205 1169 1204
f 1205 1170 1169
f 1206 1170 1205
f 1206 1171 1170
f 1207 1171 1206
f 1207 1172 1171
f 1208 1172 1207
f 1208 1173 1172
f 1209 1173 1208
f 1209 1174 1173
f 1210 1174 1209
f 1210 1175 1174
f 1211 1175 1210
f 1211 1176 1175
f 1212 1176 1211
f 1212 1177 1176
f 1213 1177 1212
f 1213 1178 1177
f 1214 1178 1213
f 1214 1179 1178
f 1215 1179 1214
f 1215 1180 1179
f 1216 1180 1215
f 1216 1181 1180
f 1217 1181 1216
f 1217 1182 1181
f 1218 1182 1217
f 1218 1183 1182
f 1219 1183 1218
f 1219 1184 1183
f 1220 1184 1219
f 1220 1185 1184
f 1221 1185 1220
f 1221 1186 1185
f 1222 1186 1221
f 1222 1187 1186
f 1223 1187 1222
f 1223 1188 1187
f 1224 1188 1223
f 1224 1153 1188
f 1224 1153 1189
f 1225 1190 1189
f 1226 1190 1225
f 1226 1191 1190
f 1227 1191 1226
f 1227 1192 1191
f 1228 1192 1227
f 1228 1193 1192
f 1229 1193 1228
f 1229 1194 1193
f 1230 1194 1229
f 1230 1195 1194
f 1231 1195 1230
f 1231 1196 1195
f 1232 1196 1231
f 1232 1197 1196
f 1233 1197 1232
f 1233 1198 1197
f 1234 1198 1233
f 1234 1199 1198
f 1235 1199 1234
f 1235 1200 1199
f 1236 1200 1235
f 1236 1201 1200
f 1237 1201 1236
f 1237 1202 1201
f 1238 1202 1237
f 1238 1203 1202
f 1239 1203 1238
f 1239 1204 1203
f 1240 1204 1239
f 1240 1205 1204
f 1241 1205 1240
f 1241 1206 1205
f 1242 1206 1241
f 1242 1207 1206
f 1243 1207 1242
f 1243 1208 1207
f 1244 1208 1243
f 1244 1209 1208
f 1245 1209 1244
f 1245 1210 1209
f 1246 1210 1245
f 1246 1211 1210
f 1247 1211 1246
f 1247 1212 1211
f 1248 1212 1247
f 1248 1213 1212
f 1249 1213 1248
f 1249 1214 1213
f 1250 1214 1249
f 1250 1215 1214
f 1251 1215 1250
f 1251 1216 1215
f 1252 1216 1251
f 1252 1217 1216
f 1253 1217 1252
f 1253 1218 1217
f 1254 1218 1253
f 1254 1219 1218
f 1255 1219 1254
f 1255 1220 1219
f 1256 1220 1255
f 1256 1221 1220
f 1257 1221 1256
f 1257 1222 1221
f 1258 1222 1257
f 1258 1223 1222
f 1259 1223 1258
f 1259 1224 1223
f 1260 1224 1259
f 1260 1189 1224
f 1260 1189 1225
f 1261 1226 1225
f 1262 1226 1261
f 1262 1227 1226
f 1263 1227 1262
f 1263 1228 1227
f 1264 1228 1263
f 1264 1229 1228
f 1265 1229 1264
f 1265 1230 1229
f 1266 1230 1265
f 1266 1231 1230
f 1267 1231 1266
f 1267 1232 1231
f 1268 1232 1267
f 1268 1233 1232
f 1269 1233 1268
f 1269 1234 1233
f 1270 1234 1269
f 1270 1235 1234
f 1271 1235 1270
f 1271 1236 1235
f 1272 1236 1271
f 1272 1237 1236
f 1273 1237 1272
f 1273 1238 1237
f 1274 1238 1273
f 1274 1239 1238
f 1275 1239 1274
f 1275 1240 1239
f 1276 1240 1275
f 1276 1241 1240
f 1277 1241 1276
f 1277 1242 1241
f 1278 1242 1277
f 1278 1243 1242
f 1279 1243 1278
f 1279 1244 1243
f 1280 1244 1279
f 1280 1245 1244
f 1281 1245 1280
f 1281 1246 1245
f 1282 1246 1281
f 1282 1247 1246
f 1283 1247 1282
f 1283 1248 1247
f 1284 1248 1283
f 1284 1249 1248
f 1285 1249 1284
f 1285 1250 1249
f 1286 1250 1285
f 1286 1251 1250
f 1287 1251 1286
f 1287 1252 1251
f 1288 1252 1287
f 1288 1253 1252
f 1289 1253 1288
f 1289 1254 1253
f 1290 1254 1289
f 1290 1255 1254
f 1291 1255 1290
f 1291 1256 1255
f 1292 1256 1291
f 1292 1257 1256
f 1293 1257 1292
f 1293 1258 1257
f 1294 1258 1293
f 1294 1259 1258
f 1295 1259 1294
f 1295 1260 1259
f 1296 1260 1295
f 1296 1225 1260
f 1296 1225 1261
f 3 1262 1261
f 2 1262 3
f 2 1263 1262
f 5 1263 2
f 5 1264 1263
f 7 1264 5
f 7 1265 1264
f 9 1265 7
f 9 1266 1265
f 11 1266 9
f 11 1267 1266
f 13 1267 11
f 13 1268 1267
f 15 1268 13
f 15 1269 1268
f 17 1269 15
f 17 1270 1269
f 19 1270 17
f 19 1271 1270
f 21 1271 19
f 21 1272 1271
f 23 1272 21
f 23 1273 1272
f 25 1273 23
f 25 1274 1273
f 27 1274 25
f 27 1275 1274
f 29 1275 27
f 29 1276 1275
f 31 1276 29
f 31 1277 1276
f 33 1277 31
f 33 1278 1277
f 35 1278 33
f 35 1279 1278
f 37 1279 35
f 37 1280 1279
f 39 1280 37
f 39 1281 1280
f 41 1281 39
f 41 1282 1281
f 43 1282 41
f 43 1283 1282
f 45 1283 43
f 45 1284 1283
f 47 1284 45
f 47 1285 1284
f 49 1285 47
f 49 1286 1285
f 51 1286 49
f 51 1287 1286
f 53 1287 51
f 53 1288 1287
f 55 1288 53
f 55 1289 1288
f 57 1289 55
f 57 1290 1289
f 59 1290 57
f 59 1291 1290
f 61 1291 59
f 61 1292 1291
f 63 1292 61
f 63 1293 1292
f 65 1293 63
f 65 1294 1293
f 67 1294 65
f 67 1295 1294
f 69 1295 67
f 69 1296 1295
f 71 1296 69
f 71 1261 1296
f 71 1261 3
