# Unified Preprocessed OBJ file from m535.obj
# Applied remeshing: Yes
# Applied 4-step normalization: centering, PCA alignment, flipping, scaling
# Generated on 2025-09-29 15:21:48

v -0.367265 0.139014 -0.139277
v -0.367273 0.183241 -0.076100
v -0.412554 0.246240 -0.102243
v -0.412543 0.186449 -0.186792
v -0.367257 0.075778 -0.183424
v -0.412531 0.101858 -0.246503
v -0.312548 0.099043 -0.099245
v -0.312554 0.130784 -0.054330
v -0.312542 0.054080 -0.130938
v -0.367280 0.196730 -0.000169
v -0.412563 0.263866 -0.000199
v -0.312559 0.140163 -0.000136
v -0.367285 0.183320 0.075777
v -0.412570 0.246392 0.101858
v -0.312562 0.130843 0.054079
v -0.265244 0.099947 -0.100134
v -0.265250 0.131231 -0.054510
v -0.265238 0.054256 -0.131353
v -0.220872 0.116544 -0.116774
v -0.220879 0.153894 -0.063908
v -0.220865 0.063655 -0.154070
v -0.265255 0.141434 -0.000138
v -0.220885 0.164940 -0.000128
v -0.265258 0.131265 0.054256
v -0.220889 0.153989 0.063656
v -0.160342 0.190096 -0.190414
v -0.160353 0.252220 -0.104697
v -0.160330 0.104327 -0.252408
v -0.087546 0.238928 -0.239305
v -0.087560 0.315523 -0.130953
v -0.087531 0.130532 -0.315756
v -0.160363 0.269026 -0.000175
v -0.087572 0.338131 -0.000201
v -0.160369 0.252336 0.104327
v -0.087580 0.315696 0.130531
v 0.213452 0.155958 -0.156116
v 0.213442 0.206339 -0.085620
v 0.213461 0.085362 -0.206448
v 0.512424 0.064147 -0.064180
v 0.512420 0.084693 -0.035116
v 0.512427 0.035035 -0.084666
v 0.213435 0.220663 -0.000162
v 0.512417 0.090756 -0.000044
v 0.213429 0.206434 0.085363
v 0.512414 0.084698 0.035034
v 0.556794 0.094377 -0.094442
v 0.556788 0.123660 -0.051279
v 0.556800 0.051178 -0.123692
v 0.587406 0.145728 -0.145884
v 0.587397 0.192428 -0.079807
v 0.587415 0.079627 -0.192480
v 0.556784 0.133535 -0.000062
v 0.587390 0.206223 -0.000077
v 0.556780 0.123731 0.051178
v 0.587385 0.192524 0.079628
v -0.367286 0.139173 0.139015
v -0.412571 0.186681 0.186449
v -0.312563 0.099149 0.099043
v -0.367285 0.075996 0.183241
v -0.412570 0.102132 0.246240
v -0.312562 0.054235 0.130784
v -0.367280 0.000065 0.196730
v -0.412563 0.000088 0.263866
v -0.312559 0.000040 0.140163
v -0.367273 -0.075881 0.183319
v -0.412554 -0.101969 0.246392
v -0.312554 -0.054175 0.130842
v -0.367265 -0.139118 0.139174
v -0.412543 -0.186559 0.186681
v -0.312548 -0.099138 0.099150
v -0.367257 -0.183345 0.075996
v -0.412532 -0.246351 0.102132
v -0.312542 -0.130880 0.054234
v -0.367250 -0.196834 0.000066
v -0.412522 -0.263976 0.000088
v -0.312537 -0.140258 0.000041
v -0.367245 -0.183423 -0.075882
v -0.412516 -0.246503 -0.101969
v -0.312533 -0.130938 -0.054175
v -0.367243 -0.139277 -0.139118
v -0.412514 -0.186792 -0.186560
v -0.312532 -0.099245 -0.099138
v -0.367245 -0.076099 -0.183345
v -0.412516 -0.102242 -0.246351
v -0.312533 -0.054329 -0.130880
v -0.367250 -0.000169 -0.196834
v -0.412522 -0.000199 -0.263977
v -0.312537 -0.000136 -0.140258
v -0.265259 0.100046 0.099946
v -0.220891 0.116693 0.116544
v -0.265258 0.054422 0.131231
v -0.220889 0.063827 0.153894
v -0.265255 0.000050 0.141434
v -0.220885 0.000047 0.164940
v -0.265250 -0.054344 0.131264
v -0.220879 -0.063737 0.153989
v -0.265244 -0.100034 0.100046
v -0.220873 -0.116625 0.116693
v -0.265238 -0.131320 0.054422
v -0.220866 -0.153976 0.063826
v -0.265233 -0.141522 0.000050
v -0.220860 -0.165021 0.000047
v -0.265229 -0.131352 -0.054344
v -0.220856 -0.154070 -0.063736
v -0.265228 -0.100134 -0.100034
v -0.220854 -0.116774 -0.116625
v -0.265229 -0.054509 -0.131319
v -0.220856 -0.063907 -0.153975
v -0.265233 -0.000139 -0.141522
v -0.220860 -0.000128 -0.165021
v -0.160371 0.190343 0.190097
v -0.087583 0.239245 0.238928
v -0.160369 0.104625 0.252220
v -0.087580 0.130892 0.315524
v -0.160363 0.000104 0.269026
v -0.087572 0.000141 0.338132
v -0.160353 -0.104399 0.252335
v -0.087560 -0.130592 0.315695
v -0.160342 -0.190168 0.190343
v -0.087546 -0.238989 0.239244
v -0.160330 -0.252292 0.104624
v -0.087531 -0.315584 0.130892
v -0.160321 -0.269098 0.000104
v -0.087520 -0.338192 0.000140
v -0.160314 -0.252407 -0.104399
v -0.087511 -0.315756 -0.130593
v -0.160312 -0.190415 -0.190168
v -0.087509 -0.239305 -0.238989
v -0.160314 -0.104696 -0.252292
v -0.087511 -0.130952 -0.315584
v -0.160321 -0.000176 -0.269097
v -0.087519 -0.000201 -0.338192
v 0.213427 0.156103 0.155958
v 0.512414 0.064212 0.064146
v 0.213429 0.085606 0.206339
v 0.512414 0.035148 0.084692
v 0.213434 0.000148 0.220663
v 0.512417 0.000076 0.090756
v 0.213442 -0.085377 0.206434
v 0.512420 -0.035002 0.084697
v 0.213451 -0.155972 0.156103
v 0.512424 -0.064114 0.064211
v 0.213461 -0.206354 0.085605
v 0.512427 -0.084660 0.035148
v 0.213469 -0.220677 0.000148
v 0.512431 -0.090724 0.000076
v 0.213474 -0.206448 -0.085376
v 0.512433 -0.084665 -0.035003
v 0.213476 -0.156117 -0.155972
v 0.512433 -0.064179 -0.064115
v 0.213474 -0.085619 -0.206353
v 0.512433 -0.035116 -0.084661
v 0.213469 -0.000162 -0.220677
v 0.512431 -0.000044 -0.090724
v 0.556779 0.094481 0.094377
v 0.587383 0.145928 0.145729
v 0.556780 0.051318 0.123660
v 0.587385 0.079851 0.192428
v 0.556784 0.000101 0.133535
v 0.587390 0.000121 0.206223
v 0.556788 -0.051139 0.123732
v 0.587397 -0.079584 0.192525
v 0.556794 -0.094337 0.094482
v 0.587406 -0.145685 0.145928
v 0.556799 -0.123621 0.051318
v 0.587415 -0.192384 0.079850
v 0.556804 -0.133496 0.000102
v 0.587422 -0.206179 0.000122
v 0.556807 -0.123692 -0.051139
v 0.587427 -0.192481 -0.079583
v 0.556808 -0.094443 -0.094338
v 0.587429 -0.145884 -0.145684
v 0.556807 -0.051278 -0.123621
v 0.587427 -0.079807 -0.192385
v 0.556804 -0.000063 -0.133496
v 0.587422 -0.000078 -0.206179
v -0.367269 0.161128 -0.107688
v -0.389913 0.214741 -0.089171
v -0.389909 0.192627 -0.120760
v -0.412548 0.216345 -0.144518
v -0.389904 0.162732 -0.163035
v -0.367261 0.107396 -0.161351
v -0.389900 0.131114 -0.185108
v -0.412537 0.144154 -0.216647
v -0.389894 0.088818 -0.214963
v -0.312551 0.114913 -0.076787
v -0.339913 0.157013 -0.065215
v -0.339910 0.141142 -0.087672
v -0.339906 0.119029 -0.119261
v -0.312545 0.076561 -0.115091
v -0.339903 0.096547 -0.135108
v -0.339899 0.064929 -0.157181
v -0.389922 0.230298 -0.000184
v -0.412558 0.255053 -0.051221
v -0.389917 0.221485 -0.051206
v -0.367277 0.189985 -0.038134
v -0.339919 0.168446 -0.000152
v -0.339916 0.161702 -0.038118
v -0.312556 0.135474 -0.027233
v -0.389927 0.214856 0.088818
v -0.412566 0.255129 0.050830
v -0.389924 0.223593 0.037789
v -0.367283 0.190025 0.037804
v -0.339923 0.157081 0.064928
v -0.339921 0.163786 0.026955
v -0.312560 0.135503 0.026972
v -0.265247 0.115589 -0.077322
v -0.288902 0.131008 -0.054420
v -0.288899 0.115365 -0.077232
v -0.288896 0.099495 -0.099689
v -0.265241 0.077101 -0.115743
v -0.288893 0.076649 -0.115299
v -0.288890 0.054168 -0.131146
v -0.220876 0.135219 -0.090341
v -0.243065 0.142563 -0.059209
v -0.243061 0.123888 -0.085642
v -0.243058 0.108245 -0.108454
v -0.220869 0.090100 -0.135422
v -0.243055 0.081801 -0.127102
v -0.243052 0.058956 -0.142711
v -0.288907 0.140799 -0.000137
v -0.288904 0.136109 -0.027234
v -0.265252 0.136333 -0.027324
v -0.243070 0.153187 -0.000133
v -0.243067 0.148086 -0.027319
v -0.220882 0.159417 -0.032018
v -0.288910 0.131054 0.054167
v -0.288908 0.135714 0.027060
v -0.265256 0.136350 0.027059
v -0.243074 0.142627 0.058956
v -0.243072 0.147712 0.031759
v -0.220887 0.159465 0.031764
v -0.160348 0.221158 -0.147555
v -0.190616 0.203057 -0.084302
v -0.190611 0.171995 -0.127161
v -0.190607 0.153320 -0.153594
v -0.160336 0.147212 -0.221411
v -0.190601 0.110436 -0.184591
v -0.190598 0.083991 -0.203239
v -0.087553 0.277226 -0.185129
v -0.123957 0.283872 -0.117825
v -0.123949 0.245574 -0.172001
v -0.123944 0.214512 -0.214860
v -0.087538 0.184730 -0.277531
v -0.123937 0.160314 -0.253085
v -0.123931 0.117430 -0.284082
v -0.190624 0.216983 -0.000151
v -0.190621 0.211460 -0.032042
v -0.160358 0.260623 -0.052436
v -0.123967 0.303579 -0.000188
v -0.123962 0.295176 -0.052449
v -0.087566 0.326827 -0.065577
v -0.190629 0.203162 0.083991
v -0.190627 0.208638 0.052100
v -0.160366 0.260681 0.052076
v -0.123975 0.284016 0.117429
v -0.123971 0.292361 0.065178
v -0.087576 0.326913 0.065165
v 0.213447 0.181148 -0.120868
v 0.062941 0.260931 -0.108286
v 0.062946 0.235740 -0.143535
v 0.062953 0.197443 -0.197711
v 0.213456 0.120660 -0.181282
v 0.062958 0.162145 -0.222876
v 0.062965 0.107947 -0.261102
v 0.512422 0.074420 -0.049648
v 0.362931 0.145516 -0.060368
v 0.362933 0.135243 -0.074900
v 0.362938 0.110052 -0.110148
v 0.512425 0.049591 -0.074423
v 0.362939 0.095496 -0.120391
v 0.362944 0.060199 -0.145557
v 0.062931 0.279397 -0.000182
v 0.062937 0.268093 -0.065557
v 0.213438 0.213501 -0.042891
v 0.362926 0.155710 -0.000103
v 0.362929 0.148548 -0.042832
v 0.512418 0.087725 -0.017580
v 0.062924 0.261065 0.107947
v 0.062929 0.272283 0.042581
v 0.213432 0.213548 0.042601
v 0.362922 0.145566 0.060199
v 0.362924 0.152680 0.017436
v 0.512415 0.087727 0.017495
v 0.556791 0.109018 -0.072860
v 0.534604 0.104176 -0.043197
v 0.534607 0.089535 -0.064779
v 0.534609 0.079262 -0.079311
v 0.556797 0.072778 -0.109067
v 0.534612 0.057662 -0.093936
v 0.534613 0.043106 -0.104179
v 0.587402 0.169078 -0.112845
v 0.572093 0.158044 -0.065543
v 0.572097 0.134694 -0.098581
v 0.572100 0.120053 -0.120163
v 0.587410 0.112678 -0.169182
v 0.572104 0.087002 -0.143461
v 0.572107 0.065403 -0.158086
v 0.534600 0.112146 -0.000053
v 0.534602 0.109114 -0.017589
v 0.556786 0.128597 -0.025670
v 0.572087 0.169879 -0.000070
v 0.572089 0.164941 -0.025678
v 0.587394 0.199326 -0.039942
v 0.534597 0.104214 0.043106
v 0.534598 0.107244 0.025567
v 0.556782 0.128633 0.025558
v 0.572083 0.158128 0.065403
v 0.572084 0.163030 0.039783
v 0.587388 0.199373 0.039775
v -0.389929 0.162927 0.162732
v -0.412570 0.216537 0.144153
v -0.389928 0.192783 0.120437
v -0.367286 0.161247 0.107396
v -0.339925 0.119161 0.119029
v -0.339924 0.141235 0.087410
v -0.312563 0.114996 0.076561
v -0.389927 0.089064 0.214741
v -0.412571 0.144407 0.216345
v -0.389928 0.131339 0.184845
v -0.367286 0.107585 0.161128
v -0.339924 0.065115 0.157013
v -0.339924 0.096704 0.134900
v -0.312563 0.076692 0.114914
v -0.389922 0.000077 0.230298
v -0.412566 0.051110 0.255053
v -0.389925 0.051099 0.221485
v -0.367283 0.038031 0.189986
v -0.339919 0.000053 0.168447
v -0.339922 0.038018 0.161702
v -0.312560 0.027137 0.135474
v -0.389914 -0.088925 0.214856
v -0.412558 -0.050941 0.255129
v -0.389918 -0.037897 0.223593
v -0.367277 -0.037908 0.190025
v -0.339913 -0.065028 0.157081
v -0.339917 -0.027055 0.163786
v -0.312556 -0.027067 0.135503
v -0.389904 -0.162839 0.162928
v -0.412548 -0.144264 0.216537
v -0.389909 -0.120544 0.192783
v -0.367269 -0.107500 0.161247
v -0.339906 -0.119128 0.119162
v -0.339911 -0.087510 0.141235
v -0.312551 -0.076656 0.114996
v -0.389894 -0.214848 0.089064
v -0.412537 -0.216455 0.144407
v -0.389900 -0.184952 0.131339
v -0.367261 -0.161232 0.107585
v -0.339899 -0.157113 0.065115
v -0.339903 -0.134999 0.096704
v -0.312545 -0.115009 0.076692
v -0.389886 -0.230405 0.000077
v -0.412527 -0.255164 0.051110
v -0.389891 -0.221593 0.051099
v -0.367253 -0.190090 0.038031
v -0.339893 -0.168546 0.000053
v -0.339897 -0.161802 0.038018
v -0.312539 -0.135569 0.027137
v -0.389880 -0.214963 -0.088925
v -0.412519 -0.255240 -0.050940
v -0.389884 -0.223700 -0.037897
v -0.367247 -0.190129 -0.037908
v -0.339889 -0.157181 -0.065029
v -0.339892 -0.163886 -0.027055
v -0.312535 -0.135598 -0.027067
v -0.389879 -0.163035 -0.162839
v -0.412515 -0.216648 -0.144264
v -0.389880 -0.192890 -0.120543
v -0.367244 -0.161350 -0.107500
v -0.339888 -0.119261 -0.119128
v -0.339889 -0.141334 -0.087510
v -0.312533 -0.115091 -0.076657
v -0.389880 -0.089171 -0.214848
v -0.412515 -0.144517 -0.216456
v -0.389879 -0.131446 -0.184952
v -0.367244 -0.107688 -0.161231
v -0.339889 -0.065214 -0.157112
v -0.339888 -0.096803 -0.134999
v -0.312533 -0.076787 -0.115009
v -0.389886 -0.000184 -0.230405
v -0.412519 -0.051221 -0.255164
v -0.389883 -0.051206 -0.221592
v -0.367247 -0.038134 -0.190089
v -0.339893 -0.000153 -0.168546
v -0.339891 -0.038118 -0.161801
v -0.312535 -0.027233 -0.135569
v -0.412527 0.050829 -0.255240
v -0.389889 0.037789 -0.223700
v -0.367253 0.037804 -0.190129
v -0.339896 0.026955 -0.163886
v -0.312539 0.026972 -0.135598
v -0.288911 0.099598 0.099495
v -0.288911 0.115444 0.077012
v -0.265259 0.115655 0.077101
v -0.243075 0.108369 0.108245
v -0.243074 0.123979 0.085400
v -0.220890 0.135341 0.090100
v -0.288910 0.054328 0.131008
v -0.288911 0.076786 0.115137
v -0.265259 0.077234 0.115589
v -0.243074 0.059125 0.142563
v -0.243074 0.081936 0.126920
v -0.220890 0.090260 0.135219
v -0.288907 0.000045 0.140799
v -0.288908 0.027142 0.136109
v -0.265256 0.027236 0.136333
v -0.243070 0.000048 0.153187
v -0.243072 0.027234 0.148086
v -0.220887 0.031937 0.159417
v -0.288902 -0.054259 0.131053
v -0.288904 -0.027152 0.135714
v -0.265252 -0.027147 0.136349
v -0.243065 -0.059040 0.142627
v -0.243067 -0.031843 0.147712
v -0.220882 -0.031845 0.159465
v -0.288896 -0.099586 0.099598
v -0.288899 -0.077104 0.115444
v -0.265247 -0.077189 0.115655
v -0.243058 -0.108330 0.108370
v -0.243061 -0.085485 0.123979
v -0.220876 -0.090181 0.135341
v -0.288890 -0.131100 0.054328
v -0.288893 -0.115229 0.076786
v -0.265241 -0.115677 0.077234
v -0.243052 -0.142648 0.059124
v -0.243055 -0.127005 0.081936
v -0.220869 -0.135301 0.090260
v -0.288885 -0.140890 0.000046
v -0.288887 -0.136201 0.027142
v -0.265235 -0.136421 0.027236
v -0.243046 -0.153272 0.000049
v -0.243049 -0.148171 0.027234
v -0.220863 -0.159499 0.031937
v -0.288881 -0.131145 -0.054260
v -0.288883 -0.135805 -0.027152
v -0.265231 -0.136437 -0.027147
v -0.243043 -0.142711 -0.059040
v -0.243044 -0.147796 -0.031843
v -0.220858 -0.159546 -0.031845
v -0.288880 -0.099690 -0.099586
v -0.288881 -0.115536 -0.077105
v -0.265229 -0.115743 -0.077189
v -0.243041 -0.108454 -0.108330
v -0.243042 -0.124063 -0.085485
v -0.220855 -0.135422 -0.090181
v -0.288881 -0.054419 -0.131100
v -0.288881 -0.076877 -0.115229
v -0.265229 -0.077322 -0.115677
v -0.243043 -0.059208 -0.142647
v -0.243042 -0.082021 -0.127005
v -0.220855 -0.090341 -0.135300
v -0.288885 -0.000137 -0.140890
v -0.288883 -0.027234 -0.136201
v -0.265231 -0.027324 -0.136421
v -0.243046 -0.000133 -0.153272
v -0.243045 -0.027319 -0.148170
v -0.220858 -0.032018 -0.159498
v -0.288887 0.027060 -0.135805
v -0.265235 0.027059 -0.136438
v -0.243049 0.031758 -0.147796
v -0.220863 0.031764 -0.159546
v -0.190631 0.153518 0.153320
v -0.190630 0.172166 0.126876
v -0.160370 0.221339 0.147212
v -0.123977 0.214794 0.214512
v -0.123976 0.245790 0.171628
v -0.087581 0.277470 0.184730
v -0.190629 0.084226 0.203057
v -0.190630 0.110659 0.184382
v -0.160370 0.147484 0.221158
v -0.123975 0.117759 0.283872
v -0.123976 0.160618 0.252810
v -0.087581 0.185069 0.277226
v -0.190624 0.000075 0.216983
v -0.190626 0.031965 0.211460
v -0.160366 0.052364 0.260623
v -0.123967 0.000122 0.303579
v -0.123971 0.052383 0.295176
v -0.087576 0.065517 0.326828
v -0.190616 -0.084068 0.203162
v -0.190619 -0.052176 0.208638
v -0.160358 -0.052148 0.260681
v -0.123957 -0.117496 0.284015
v -0.123961 -0.065244 0.292361
v -0.087566 -0.065226 0.326913
v -0.190607 -0.153397 0.153518
v -0.190611 -0.126952 0.172166
v -0.160348 -0.147284 0.221339
v -0.123944 -0.214579 0.214794
v -0.123950 -0.171694 0.245790
v -0.087553 -0.184791 0.277470
v -0.190598 -0.203134 0.084225
v -0.190601 -0.184459 0.110659
v -0.160336 -0.221230 0.147484
v -0.123931 -0.283938 0.117758
v -0.123937 -0.252876 0.160617
v -0.087539 -0.277287 0.185068
v -0.190590 -0.217060 0.000076
v -0.190593 -0.211537 0.031965
v -0.160326 -0.260695 0.052364
v -0.123920 -0.303645 0.000122
v -0.123925 -0.295242 0.052382
v -0.087525 -0.326888 0.065516
v -0.190585 -0.203239 -0.084068
v -0.190587 -0.208714 -0.052176
v -0.160318 -0.260752 -0.052148
v -0.123913 -0.284081 -0.117496
v -0.123916 -0.292427 -0.065244
v -0.087515 -0.326974 -0.065226
v -0.190583 -0.153594 -0.153396
v -0.190584 -0.172243 -0.126952
v -0.160313 -0.221411 -0.147284
v -0.123911 -0.214860 -0.214578
v -0.123911 -0.245856 -0.171694
v -0.087510 -0.277530 -0.184791
v -0.190585 -0.084302 -0.203134
v -0.190584 -0.110735 -0.184459
v -0.160313 -0.147555 -0.221230
v -0.123913 -0.117824 -0.283938
v -0.123912 -0.160683 -0.252876
v -0.087510 -0.185128 -0.277286
v -0.190590 -0.000152 -0.217059
v -0.190588 -0.032041 -0.211536
v -0.160318 -0.052436 -0.260695
v -0.123920 -0.000188 -0.303645
v -0.123917 -0.052448 -0.295242
v -0.087515 -0.065577 -0.326888
v -0.190595 0.052100 -0.208714
v -0.160326 0.052076 -0.260753
v -0.123926 0.065178 -0.292427
v -0.087525 0.065166 -0.326974
v 0.062922 0.197674 0.197443
v 0.062924 0.235899 0.143245
v 0.213428 0.181268 0.120661
v 0.362921 0.110157 0.110052
v 0.362921 0.135323 0.074755
v 0.512414 0.074455 0.049590
v 0.062924 0.108249 0.260932
v 0.062923 0.162425 0.222634
v 0.213428 0.120854 0.181149
v 0.362922 0.060377 0.145516
v 0.362921 0.095625 0.120325
v 0.512414 0.049680 0.074419
v 0.062931 0.000144 0.279398
v 0.062927 0.065520 0.268094
v 0.213432 0.042877 0.213501
v 0.362925 0.000112 0.155710
v 0.362923 0.042841 0.148548
v 0.512415 0.017612 0.087724
v 0.062941 -0.107984 0.261065
v 0.062935 -0.042618 0.272283
v 0.213438 -0.042614 0.213549
v 0.362931 -0.060189 0.145566
v 0.362927 -0.017427 0.152680
v 0.512418 -0.017463 0.087727
v 0.062953 -0.197480 0.197674
v 0.062946 -0.143282 0.235899
v 0.213447 -0.120674 0.181269
v 0.362937 -0.110043 0.110157
v 0.362933 -0.074746 0.135323
v 0.512422 -0.049558 0.074454
v 0.062965 -0.260969 0.108249
v 0.062958 -0.222671 0.162425
v 0.213456 -0.181163 0.120854
v 0.362944 -0.145507 0.060377
v 0.362939 -0.120316 0.095625
v 0.512425 -0.074387 0.049679
v 0.062975 -0.279435 0.000144
v 0.062969 -0.268131 0.065520
v 0.213465 -0.213515 0.042877
v 0.362950 -0.155701 0.000112
v 0.362946 -0.148539 0.042841
v 0.512429 -0.087692 0.017612
v 0.062981 -0.261102 -0.107985
v 0.062977 -0.272320 -0.042618
v 0.213471 -0.213563 -0.042614
v 0.362953 -0.145557 -0.060189
v 0.362951 -0.152671 -0.017427
v 0.512432 -0.087695 -0.017463
v 0.062984 -0.197711 -0.197480
v 0.062982 -0.235936 -0.143282
v 0.213475 -0.181283 -0.120674
v 0.362955 -0.110148 -0.110043
v 0.362954 -0.135314 -0.074746
v 0.512433 -0.074422 -0.049559
v 0.062982 -0.108286 -0.260969
v 0.062983 -0.162462 -0.222671
v 0.213475 -0.120868 -0.181162
v 0.362953 -0.060367 -0.145507
v 0.362954 -0.095616 -0.120316
v 0.512433 -0.049647 -0.074388
v 0.062975 -0.000181 -0.279434
v 0.062979 -0.065557 -0.268130
v 0.213471 -0.042891 -0.213515
v 0.362950 -0.000103 -0.155701
v 0.362952 -0.042831 -0.148539
v 0.512432 -0.017580 -0.087693
v 0.062971 0.042581 -0.272320
v 0.213465 0.042600 -0.213562
v 0.362948 0.017436 -0.152671
v 0.512429 0.017495 -0.087695
v 0.534596 0.079346 0.079262
v 0.534597 0.089589 0.064705
v 0.556780 0.109106 0.072778
v 0.572081 0.120204 0.120053
v 0.572082 0.134829 0.098454
v 0.587384 0.169226 0.112678
v 0.534597 0.043233 0.104176
v 0.534597 0.057765 0.093903
v 0.556780 0.072900 0.109019
v 0.572083 0.065584 0.158044
v 0.572082 0.087166 0.143402
v 0.587384 0.112889 0.169078
v 0.534600 0.000089 0.112145
v 0.534599 0.017625 0.109114
v 0.556782 0.025709 0.128598
v 0.572087 0.000111 0.169879
v 0.572085 0.025720 0.164942
v 0.587387 0.039986 0.199326
v 0.534604 -0.043071 0.104214
v 0.534602 -0.025531 0.107244
v 0.556786 -0.025519 0.128633
v 0.572093 -0.065361 0.158128
v 0.572090 -0.039741 0.163030
v 0.587394 -0.039731 0.199374
v 0.534609 -0.079226 0.079346
v 0.534607 -0.064670 0.089589
v 0.556791 -0.072738 0.109107
v 0.572100 -0.120011 0.120205
v 0.572097 -0.098412 0.134830
v 0.587402 -0.112634 0.169226
v 0.534613 -0.104141 0.043233
v 0.534611 -0.093868 0.057764
v 0.556797 -0.108979 0.072900
v 0.572107 -0.158003 0.065584
v 0.572104 -0.143361 0.087166
v 0.587410 -0.169034 0.112889
v 0.534617 -0.112110 0.000089
v 0.534616 -0.109078 0.017625
v 0.556802 -0.128558 0.025710
v 0.572113 -0.169837 0.000112
v 0.572111 -0.164900 0.025720
v 0.587418 -0.199282 0.039986
v 0.534620 -0.104179 -0.043071
v 0.534619 -0.107208 -0.025531
v 0.556806 -0.128594 -0.025519
v 0.572117 -0.158086 -0.065361
v 0.572116 -0.162988 -0.039741
v 0.587424 -0.199330 -0.039731
v 0.534621 -0.079311 -0.079226
v 0.534621 -0.089554 -0.064670
v 0.556808 -0.109068 -0.072738
v 0.572119 -0.120164 -0.120011
v 0.572118 -0.134788 -0.098411
v 0.587428 -0.169182 -0.112634
v 0.534620 -0.043197 -0.104141
v 0.534620 -0.057729 -0.093868
v 0.556808 -0.072861 -0.108979
v 0.572117 -0.065543 -0.158003
v 0.572118 -0.087125 -0.143361
v 0.587428 -0.112846 -0.169034
v 0.534617 -0.000053 -0.112110
v 0.534619 -0.017589 -0.109078
v 0.556806 -0.025670 -0.128558
v 0.572113 -0.000070 -0.169837
v 0.572115 -0.025678 -0.164900
v 0.587425 -0.039942 -0.199282
v 0.534615 0.025567 -0.107208
v 0.556802 0.025558 -0.128594
v 0.572109 0.039782 -0.162988
v 0.587418 0.039775 -0.199329
f 1 177 179
f 177 2 178
f 178 3 179
f 177 178 179
f 3 180 179
f 180 4 181
f 181 1 179
f 180 181 179
f 5 182 183
f 182 1 181
f 181 4 183
f 182 181 183
f 4 184 183
f 184 6 185
f 185 5 183
f 184 185 183
f 7 186 188
f 186 8 187
f 187 2 188
f 186 187 188
f 2 177 188
f 177 1 189
f 189 7 188
f 177 189 188
f 9 190 191
f 190 7 189
f 189 1 191
f 190 189 191
f 1 182 191
f 182 5 192
f 192 9 191
f 182 192 191
f 10 193 195
f 193 11 194
f 194 3 195
f 193 194 195
f 3 178 195
f 178 2 196
f 196 10 195
f 178 196 195
f 12 197 198
f 197 10 196
f 196 2 198
f 197 196 198
f 2 187 198
f 187 8 199
f 199 12 198
f 187 199 198
f 13 200 202
f 200 14 201
f 201 11 202
f 200 201 202
f 11 193 202
f 193 10 203
f 203 13 202
f 193 203 202
f 15 204 205
f 204 13 203
f 203 10 205
f 204 203 205
f 10 197 205
f 197 12 206
f 206 15 205
f 197 206 205
f 16 207 209
f 207 17 208
f 208 8 209
f 207 208 209
f 8 186 209
f 186 7 210
f 210 16 209
f 186 210 209
f 18 211 212
f 211 16 210
f 210 7 212
f 211 210 212
f 7 190 212
f 190 9 213
f 213 18 212
f 190 213 212
f 19 214 216
f 214 20 215
f 215 17 216
f 214 215 216
f 17 207 216
f 207 16 217
f 217 19 216
f 207 217 216
f 21 218 219
f 218 19 217
f 217 16 219
f 218 217 219
f 16 211 219
f 211 18 220
f 220 21 219
f 211 220 219
f 22 221 222
f 221 12 199
f 199 8 222
f 221 199 222
f 8 208 222
f 208 17 223
f 223 22 222
f 208 223 222
f 23 224 225
f 224 22 223
f 223 17 225
f 224 223 225
f 17 215 225
f 215 20 226
f 226 23 225
f 215 226 225
f 24 227 228
f 227 15 206
f 206 12 228
f 227 206 228
f 12 221 228
f 221 22 229
f 229 24 228
f 221 229 228
f 25 230 231
f 230 24 229
f 229 22 231
f 230 229 231
f 22 224 231
f 224 23 232
f 232 25 231
f 224 232 231
f 26 233 235
f 233 27 234
f 234 20 235
f 233 234 235
f 20 214 235
f 214 19 236
f 236 26 235
f 214 236 235
f 28 237 238
f 237 26 236
f 236 19 238
f 237 236 238
f 19 218 238
f 218 21 239
f 239 28 238
f 218 239 238
f 29 240 242
f 240 30 241
f 241 27 242
f 240 241 242
f 27 233 242
f 233 26 243
f 243 29 242
f 233 243 242
f 31 244 245
f 244 29 243
f 243 26 245
f 244 243 245
f 26 237 245
f 237 28 246
f 246 31 245
f 237 246 245
f 32 247 248
f 247 23 226
f 226 20 248
f 247 226 248
f 20 234 248
f 234 27 249
f 249 32 248
f 234 249 248
f 33 250 251
f 250 32 249
f 249 27 251
f 250 249 251
f 27 241 251
f 241 30 252
f 252 33 251
f 241 252 251
f 34 253 254
f 253 25 232
f 232 23 254
f 253 232 254
f 23 247 254
f 247 32 255
f 255 34 254
f 247 255 254
f 35 256 257
f 256 34 255
f 255 32 257
f 256 255 257
f 32 250 257
f 250 33 258
f 258 35 257
f 250 258 257
f 36 259 261
f 259 37 260
f 260 30 261
f 259 260 261
f 30 240 261
f 240 29 262
f 262 36 261
f 240 262 261
f 38 263 264
f 263 36 262
f 262 29 264
f 263 262 264
f 29 244 264
f 244 31 265
f 265 38 264
f 244 265 264
f 39 266 268
f 266 40 267
f 267 37 268
f 266 267 268
f 37 259 268
f 259 36 269
f 269 39 268
f 259 269 268
f 41 270 271
f 270 39 269
f 269 36 271
f 270 269 271
f 36 263 271
f 263 38 272
f 272 41 271
f 263 272 271
f 42 273 274
f 273 33 252
f 252 30 274
f 273 252 274
f 30 260 274
f 260 37 275
f 275 42 274
f 260 275 274
f 43 276 277
f 276 42 275
f 275 37 277
f 276 275 277
f 37 267 277
f 267 40 278
f 278 43 277
f 267 278 277
f 44 279 280
f 279 35 258
f 258 33 280
f 279 258 280
f 33 273 280
f 273 42 281
f 281 44 280
f 273 281 280
f 45 282 283
f 282 44 281
f 281 42 283
f 282 281 283
f 42 276 283
f 276 43 284
f 284 45 283
f 276 284 283
f 46 285 287
f 285 47 286
f 286 40 287
f 285 286 287
f 40 266 287
f 266 39 288
f 288 46 287
f 266 288 287
f 48 289 290
f 289 46 288
f 288 39 290
f 289 288 290
f 39 270 290
f 270 41 291
f 291 48 290
f 270 291 290
f 49 292 294
f 292 50 293
f 293 47 294
f 292 293 294
f 47 285 294
f 285 46 295
f 295 49 294
f 285 295 294
f 51 296 297
f 296 49 295
f 295 46 297
f 296 295 297
f 46 289 297
f 289 48 298
f 298 51 297
f 289 298 297
f 52 299 300
f 299 43 278
f 278 40 300
f 299 278 300
f 40 286 300
f 286 47 301
f 301 52 300
f 286 301 300
f 53 302 303
f 302 52 301
f 301 47 303
f 302 301 303
f 47 293 303
f 293 50 304
f 304 53 303
f 293 304 303
f 54 305 306
f 305 45 284
f 284 43 306
f 305 284 306
f 43 299 306
f 299 52 307
f 307 54 306
f 299 307 306
f 55 308 309
f 308 54 307
f 307 52 309
f 308 307 309
f 52 302 309
f 302 53 310
f 310 55 309
f 302 310 309
f 56 311 313
f 311 57 312
f 312 14 313
f 311 312 313
f 14 200 313
f 200 13 314
f 314 56 313
f 200 314 313
f 58 315 316
f 315 56 314
f 314 13 316
f 315 314 316
f 13 204 316
f 204 15 317
f 317 58 316
f 204 317 316
f 59 318 320
f 318 60 319
f 319 57 320
f 318 319 320
f 57 311 320
f 311 56 321
f 321 59 320
f 311 321 320
f 61 322 323
f 322 59 321
f 321 56 323
f 322 321 323
f 56 315 323
f 315 58 324
f 324 61 323
f 315 324 323
f 62 325 327
f 325 63 326
f 326 60 327
f 325 326 327
f 60 318 327
f 318 59 328
f 328 62 327
f 318 328 327
f 64 329 330
f 329 62 328
f 328 59 330
f 329 328 330
f 59 322 330
f 322 61 331
f 331 64 330
f 322 331 330
f 65 332 334
f 332 66 333
f 333 63 334
f 332 333 334
f 63 325 334
f 325 62 335
f 335 65 334
f 325 335 334
f 67 336 337
f 336 65 335
f 335 62 337
f 336 335 337
f 62 329 337
f 329 64 338
f 338 67 337
f 329 338 337
f 68 339 341
f 339 69 340
f 340 66 341
f 339 340 341
f 66 332 341
f 332 65 342
f 342 68 341
f 332 342 341
f 70 343 344
f 343 68 342
f 342 65 344
f 343 342 344
f 65 336 344
f 336 67 345
f 345 70 344
f 336 345 344
f 71 346 348
f 346 72 347
f 347 69 348
f 346 347 348
f 69 339 348
f 339 68 349
f 349 71 348
f 339 349 348
f 73 350 351
f 350 71 349
f 349 68 351
f 350 349 351
f 68 343 351
f 343 70 352
f 352 73 351
f 343 352 351
f 74 353 355
f 353 75 354
f 354 72 355
f 353 354 355
f 72 346 355
f 346 71 356
f 356 74 355
f 346 356 355
f 76 357 358
f 357 74 356
f 356 71 358
f 357 356 358
f 71 350 358
f 350 73 359
f 359 76 358
f 350 359 358
f 77 360 362
f 360 78 361
f 361 75 362
f 360 361 362
f 75 353 362
f 353 74 363
f 363 77 362
f 353 363 362
f 79 364 365
f 364 77 363
f 363 74 365
f 364 363 365
f 74 357 365
f 357 76 366
f 366 79 365
f 357 366 365
f 80 367 369
f 367 81 368
f 368 78 369
f 367 368 369
f 78 360 369
f 360 77 370
f 370 80 369
f 360 370 369
f 82 371 372
f 371 80 370
f 370 77 372
f 371 370 372
f 77 364 372
f 364 79 373
f 373 82 372
f 364 373 372
f 83 374 376
f 374 84 375
f 375 81 376
f 374 375 376
f 81 367 376
f 367 80 377
f 377 83 376
f 367 377 376
f 85 378 379
f 378 83 377
f 377 80 379
f 378 377 379
f 80 371 379
f 371 82 380
f 380 85 379
f 371 380 379
f 86 381 383
f 381 87 382
f 382 84 383
f 381 382 383
f 84 374 383
f 374 83 384
f 384 86 383
f 374 384 383
f 88 385 386
f 385 86 384
f 384 83 386
f 385 384 386
f 83 378 386
f 378 85 387
f 387 88 386
f 378 387 386
f 5 185 389
f 185 6 388
f 388 87 389
f 185 388 389
f 87 381 389
f 381 86 390
f 390 5 389
f 381 390 389
f 9 192 391
f 192 5 390
f 390 86 391
f 192 390 391
f 86 385 391
f 385 88 392
f 392 9 391
f 385 392 391
f 89 393 394
f 393 58 317
f 317 15 394
f 393 317 394
f 15 227 394
f 227 24 395
f 395 89 394
f 227 395 394
f 90 396 397
f 396 89 395
f 395 24 397
f 396 395 397
f 24 230 397
f 230 25 398
f 398 90 397
f 230 398 397
f 91 399 400
f 399 61 324
f 324 58 400
f 399 324 400
f 58 393 400
f 393 89 401
f 401 91 400
f 393 401 400
f 92 402 403
f 402 91 401
f 401 89 403
f 402 401 403
f 89 396 403
f 396 90 404
f 404 92 403
f 396 404 403
f 93 405 406
f 405 64 331
f 331 61 406
f 405 331 406
f 61 399 406
f 399 91 407
f 407 93 406
f 399 407 406
f 94 408 409
f 408 93 407
f 407 91 409
f 408 407 409
f 91 402 409
f 402 92 410
f 410 94 409
f 402 410 409
f 95 411 412
f 411 67 338
f 338 64 412
f 411 338 412
f 64 405 412
f 405 93 413
f 413 95 412
f 405 413 412
f 96 414 415
f 414 95 413
f 413 93 415
f 414 413 415
f 93 408 415
f 408 94 416
f 416 96 415
f 408 416 415
f 97 417 418
f 417 70 345
f 345 67 418
f 417 345 418
f 67 411 418
f 411 95 419
f 419 97 418
f 411 419 418
f 98 420 421
f 420 97 419
f 419 95 421
f 420 419 421
f 95 414 421
f 414 96 422
f 422 98 421
f 414 422 421
f 99 423 424
f 423 73 352
f 352 70 424
f 423 352 424
f 70 417 424
f 417 97 425
f 425 99 424
f 417 425 424
f 100 426 427
f 426 99 425
f 425 97 427
f 426 425 427
f 97 420 427
f 420 98 428
f 428 100 427
f 420 428 427
f 101 429 430
f 429 76 359
f 359 73 430
f 429 359 430
f 73 423 430
f 423 99 431
f 431 101 430
f 423 431 430
f 102 432 433
f 432 101 431
f 431 99 433
f 432 431 433
f 99 426 433
f 426 100 434
f 434 102 433
f 426 434 433
f 103 435 436
f 435 79 366
f 366 76 436
f 435 366 436
f 76 429 436
f 429 101 437
f 437 103 436
f 429 437 436
f 104 438 439
f 438 103 437
f 437 101 439
f 438 437 439
f 101 432 439
f 432 102 440
f 440 104 439
f 432 440 439
f 105 441 442
f 441 82 373
f 373 79 442
f 441 373 442
f 79 435 442
f 435 103 443
f 443 105 442
f 435 443 442
f 106 444 445
f 444 105 443
f 443 103 445
f 444 443 445
f 103 438 445
f 438 104 446
f 446 106 445
f 438 446 445
f 107 447 448
f 447 85 380
f 380 82 448
f 447 380 448
f 82 441 448
f 441 105 449
f 449 107 448
f 441 449 448
f 108 450 451
f 450 107 449
f 449 105 451
f 450 449 451
f 105 444 451
f 444 106 452
f 452 108 451
f 444 452 451
f 109 453 454
f 453 88 387
f 387 85 454
f 453 387 454
f 85 447 454
f 447 107 455
f 455 109 454
f 447 455 454
f 110 456 457
f 456 109 455
f 455 107 457
f 456 455 457
f 107 450 457
f 450 108 458
f 458 110 457
f 450 458 457
f 18 213 459
f 213 9 392
f 392 88 459
f 213 392 459
f 88 453 459
f 453 109 460
f 460 18 459
f 453 460 459
f 21 220 461
f 220 18 460
f 460 109 461
f 220 460 461
f 109 456 461
f 456 110 462
f 462 21 461
f 456 462 461
f 111 463 464
f 463 90 398
f 398 25 464
f 463 398 464
f 25 253 464
f 253 34 465
f 465 111 464
f 253 465 464
f 112 466 467
f 466 111 465
f 465 34 467
f 466 465 467
f 34 256 467
f 256 35 468
f 468 112 467
f 256 468 467
f 113 469 470
f 469 92 404
f 404 90 470
f 469 404 470
f 90 463 470
f 463 111 471
f 471 113 470
f 463 471 470
f 114 472 473
f 472 113 471
f 471 111 473
f 472 471 473
f 111 466 473
f 466 112 474
f 474 114 473
f 466 474 473
f 115 475 476
f 475 94 410
f 410 92 476
f 475 410 476
f 92 469 476
f 469 113 477
f 477 115 476
f 469 477 476
f 116 478 479
f 478 115 477
f 477 113 479
f 478 477 479
f 113 472 479
f 472 114 480
f 480 116 479
f 472 480 479
f 117 481 482
f 481 96 416
f 416 94 482
f 481 416 482
f 94 475 482
f 475 115 483
f 483 117 482
f 475 483 482
f 118 484 485
f 484 117 483
f 483 115 485
f 484 483 485
f 115 478 485
f 478 116 486
f 486 118 485
f 478 486 485
f 119 487 488
f 487 98 422
f 422 96 488
f 487 422 488
f 96 481 488
f 481 117 489
f 489 119 488
f 481 489 488
f 120 490 491
f 490 119 489
f 489 117 491
f 490 489 491
f 117 484 491
f 484 118 492
f 492 120 491
f 484 492 491
f 121 493 494
f 493 100 428
f 428 98 494
f 493 428 494
f 98 487 494
f 487 119 495
f 495 121 494
f 487 495 494
f 122 496 497
f 496 121 495
f 495 119 497
f 496 495 497
f 119 490 497
f 490 120 498
f 498 122 497
f 490 498 497
f 123 499 500
f 499 102 434
f 434 100 500
f 499 434 500
f 100 493 500
f 493 121 501
f 501 123 500
f 493 501 500
f 124 502 503
f 502 123 501
f 501 121 503
f 502 501 503
f 121 496 503
f 496 122 504
f 504 124 503
f 496 504 503
f 125 505 506
f 505 104 440
f 440 102 506
f 505 440 506
f 102 499 506
f 499 123 507
f 507 125 506
f 499 507 506
f 126 508 509
f 508 125 507
f 507 123 509
f 508 507 509
f 123 502 509
f 502 124 510
f 510 126 509
f 502 510 509
f 127 511 512
f 511 106 446
f 446 104 512
f 511 446 512
f 104 505 512
f 505 125 513
f 513 127 512
f 505 513 512
f 128 514 515
f 514 127 513
f 513 125 515
f 514 513 515
f 125 508 515
f 508 126 516
f 516 128 515
f 508 516 515
f 129 517 518
f 517 108 452
f 452 106 518
f 517 452 518
f 106 511 518
f 511 127 519
f 519 129 518
f 511 519 518
f 130 520 521
f 520 129 519
f 519 127 521
f 520 519 521
f 127 514 521
f 514 128 522
f 522 130 521
f 514 522 521
f 131 523 524
f 523 110 458
f 458 108 524
f 523 458 524
f 108 517 524
f 517 129 525
f 525 131 524
f 517 525 524
f 132 526 527
f 526 131 525
f 525 129 527
f 526 525 527
f 129 520 527
f 520 130 528
f 528 132 527
f 520 528 527
f 28 239 529
f 239 21 462
f 462 110 529
f 239 462 529
f 110 523 529
f 523 131 530
f 530 28 529
f 523 530 529
f 31 246 531
f 246 28 530
f 530 131 531
f 246 530 531
f 131 526 531
f 526 132 532
f 532 31 531
f 526 532 531
f 133 533 534
f 533 112 468
f 468 35 534
f 533 468 534
f 35 279 534
f 279 44 535
f 535 133 534
f 279 535 534
f 134 536 537
f 536 133 535
f 535 44 537
f 536 535 537
f 44 282 537
f 282 45 538
f 538 134 537
f 282 538 537
f 135 539 540
f 539 114 474
f 474 112 540
f 539 474 540
f 112 533 540
f 533 133 541
f 541 135 540
f 533 541 540
f 136 542 543
f 542 135 541
f 541 133 543
f 542 541 543
f 133 536 543
f 536 134 544
f 544 136 543
f 536 544 543
f 137 545 546
f 545 116 480
f 480 114 546
f 545 480 546
f 114 539 546
f 539 135 547
f 547 137 546
f 539 547 546
f 138 548 549
f 548 137 547
f 547 135 549
f 548 547 549
f 135 542 549
f 542 136 550
f 550 138 549
f 542 550 549
f 139 551 552
f 551 118 486
f 486 116 552
f 551 486 552
f 116 545 552
f 545 137 553
f 553 139 552
f 545 553 552
f 140 554 555
f 554 139 553
f 553 137 555
f 554 553 555
f 137 548 555
f 548 138 556
f 556 140 555
f 548 556 555
f 141 557 558
f 557 120 492
f 492 118 558
f 557 492 558
f 118 551 558
f 551 139 559
f 559 141 558
f 551 559 558
f 142 560 561
f 560 141 559
f 559 139 561
f 560 559 561
f 139 554 561
f 554 140 562
f 562 142 561
f 554 562 561
f 143 563 564
f 563 122 498
f 498 120 564
f 563 498 564
f 120 557 564
f 557 141 565
f 565 143 564
f 557 565 564
f 144 566 567
f 566 143 565
f 565 141 567
f 566 565 567
f 141 560 567
f 560 142 568
f 568 144 567
f 560 568 567
f 145 569 570
f 569 124 504
f 504 122 570
f 569 504 570
f 122 563 570
f 563 143 571
f 571 145 570
f 563 571 570
f 146 572 573
f 572 145 571
f 571 143 573
f 572 571 573
f 143 566 573
f 566 144 574
f 574 146 573
f 566 574 573
f 147 575 576
f 575 126 510
f 510 124 576
f 575 510 576
f 124 569 576
f 569 145 577
f 577 147 576
f 569 577 576
f 148 578 579
f 578 147 577
f 577 145 579
f 578 577 579
f 145 572 579
f 572 146 580
f 580 148 579
f 572 580 579
f 149 581 582
f 581 128 516
f 516 126 582
f 581 516 582
f 126 575 582
f 575 147 583
f 583 149 582
f 575 583 582
f 150 584 585
f 584 149 583
f 583 147 585
f 584 583 585
f 147 578 585
f 578 148 586
f 586 150 585
f 578 586 585
f 151 587 588
f 587 130 522
f 522 128 588
f 587 522 588
f 128 581 588
f 581 149 589
f 589 151 588
f 581 589 588
f 152 590 591
f 590 151 589
f 589 149 591
f 590 589 591
f 149 584 591
f 584 150 592
f 592 152 591
f 584 592 591
f 153 593 594
f 593 132 528
f 528 130 594
f 593 528 594
f 130 587 594
f 587 151 595
f 595 153 594
f 587 595 594
f 154 596 597
f 596 153 595
f 595 151 597
f 596 595 597
f 151 590 597
f 590 152 598
f 598 154 597
f 590 598 597
f 38 265 599
f 265 31 532
f 532 132 599
f 265 532 599
f 132 593 599
f 593 153 600
f 600 38 599
f 593 600 599
f 41 272 601
f 272 38 600
f 600 153 601
f 272 600 601
f 153 596 601
f 596 154 602
f 602 41 601
f 596 602 601
f 155 603 604
f 603 134 538
f 538 45 604
f 603 538 604
f 45 305 604
f 305 54 605
f 605 155 604
f 305 605 604
f 156 606 607
f 606 155 605
f 605 54 607
f 606 605 607
f 54 308 607
f 308 55 608
f 608 156 607
f 308 608 607
f 157 609 610
f 609 136 544
f 544 134 610
f 609 544 610
f 134 603 610
f 603 155 611
f 611 157 610
f 603 611 610
f 158 612 613
f 612 157 611
f 611 155 613
f 612 611 613
f 155 606 613
f 606 156 614
f 614 158 613
f 606 614 613
f 159 615 616
f 615 138 550
f 550 136 616
f 615 550 616
f 136 609 616
f 609 157 617
f 617 159 616
f 609 617 616
f 160 618 619
f 618 159 617
f 617 157 619
f 618 617 619
f 157 612 619
f 612 158 620
f 620 160 619
f 612 620 619
f 161 621 622
f 621 140 556
f 556 138 622
f 621 556 622
f 138 615 622
f 615 159 623
f 623 161 622
f 615 623 622
f 162 624 625
f 624 161 623
f 623 159 625
f 624 623 625
f 159 618 625
f 618 160 626
f 626 162 625
f 618 626 625
f 163 627 628
f 627 142 562
f 562 140 628
f 627 562 628
f 140 621 628
f 621 161 629
f 629 163 628
f 621 629 628
f 164 630 631
f 630 163 629
f 629 161 631
f 630 629 631
f 161 624 631
f 624 162 632
f 632 164 631
f 624 632 631
f 165 633 634
f 633 144 568
f 568 142 634
f 633 568 634
f 142 627 634
f 627 163 635
f 635 165 634
f 627 635 634
f 166 636 637
f 636 165 635
f 635 163 637
f 636 635 637
f 163 630 637
f 630 164 638
f 638 166 637
f 630 638 637
f 167 639 640
f 639 146 574
f 574 144 640
f 639 574 640
f 144 633 640
f 633 165 641
f 641 167 640
f 633 641 640
f 168 642 643
f 642 167 641
f 641 165 643
f 642 641 643
f 165 636 643
f 636 166 644
f 644 168 643
f 636 644 643
f 169 645 646
f 645 148 580
f 580 146 646
f 645 580 646
f 146 639 646
f 639 167 647
f 647 169 646
f 639 647 646
f 170 648 649
f 648 169 647
f 647 167 649
f 648 647 649
f 167 642 649
f 642 168 650
f 650 170 649
f 642 650 649
f 171 651 652
f 651 150 586
f 586 148 652
f 651 586 652
f 148 645 652
f 645 169 653
f 653 171 652
f 645 653 652
f 172 654 655
f 654 171 653
f 653 169 655
f 654 653 655
f 169 648 655
f 648 170 656
f 656 172 655
f 648 656 655
f 173 657 658
f 657 152 592
f 592 150 658
f 657 592 658
f 150 651 658
f 651 171 659
f 659 173 658
f 651 659 658
f 174 660 661
f 660 173 659
f 659 171 661
f 660 659 661
f 171 654 661
f 654 172 662
f 662 174 661
f 654 662 661
f 175 663 664
f 663 154 598
f 598 152 664
f 663 598 664
f 152 657 664
f 657 173 665
f 665 175 664
f 657 665 664
f 176 666 667
f 666 175 665
f 665 173 667
f 666 665 667
f 173 660 667
f 660 174 668
f 668 176 667
f 660 668 667
f 48 291 669
f 291 41 602
f 602 154 669
f 291 602 669
f 154 663 669
f 663 175 670
f 670 48 669
f 663 670 669
f 51 298 671
f 298 48 670
f 670 175 671
f 298 670 671
f 175 666 671
f 666 176 672
f 672 51 671
f 666 672 671
