# Original shape: m547.obj
# No processing applied - exact copy of source file
# Generated on 2025-10-03 23:45:45

v 0.735173 0.025000 0.546779
v 0.721529 0.025000 0.591760
v 0.330450 0.025000 0.669550
v 0.739781 0.025000 0.500000
v 0.735173 0.025000 0.453221
v 0.721529 0.025000 0.408240
v 0.627929 0.025000 0.425416
v 0.699370 0.025000 0.366785
v 0.669550 0.025000 0.330450
v 0.572576 0.025000 0.374518
v 0.633215 0.025000 0.300630
v 0.591760 0.025000 0.278471
v 0.546779 0.025000 0.264827
v 0.500000 0.025000 0.260219
v 0.453221 0.025000 0.264827
v 0.408240 0.025000 0.278471
v 0.366785 0.025000 0.300630
v 0.045331 0.597435 0.590439
v 0.034127 0.595326 0.592667
v 0.025000 0.595326 0.500000
v 0.036423 0.597435 0.500000
v 0.025604 0.694659 0.500000
v 0.034722 0.694659 0.592550
v 0.046053 0.693474 0.590296
v 0.037159 0.693474 0.500000
v 0.061159 0.595326 0.681774
v 0.071712 0.597435 0.677403
v 0.061716 0.694659 0.681543
v 0.072391 0.693474 0.677121
v 0.105053 0.595326 0.763895
v 0.114550 0.597435 0.757549
v 0.105555 0.694659 0.763560
v 0.115162 0.693474 0.757140
v 0.172202 0.597435 0.827798
v 0.164126 0.595326 0.835874
v 0.164552 0.694659 0.835448
v 0.172723 0.693474 0.827277
v 0.236105 0.595326 0.894947
v 0.242451 0.597435 0.885450
v 0.236440 0.694659 0.894445
v 0.242860 0.693474 0.884838
v 0.322597 0.597435 0.928288
v 0.318226 0.595326 0.938841
v 0.318457 0.694659 0.938284
v 0.322879 0.693474 0.927609
v 0.409561 0.597435 0.954669
v 0.407333 0.595326 0.965873
v 0.407450 0.694659 0.965278
v 0.409704 0.693474 0.953947
v 0.500000 0.595326 0.975000
v 0.500000 0.597435 0.963577
v 0.500000 0.694659 0.974396
v 0.500000 0.693474 0.962841
v 0.590439 0.597435 0.954669
v 0.592667 0.595326 0.965873
v 0.592550 0.694659 0.965278
v 0.590296 0.693474 0.953947
v 0.681774 0.595326 0.938841
v 0.677403 0.597435 0.928288
v 0.681543 0.694659 0.938284
v 0.677121 0.693474 0.927609
v 0.763895 0.595326 0.894947
v 0.757549 0.597435 0.885450
v 0.763560 0.694659 0.894445
v 0.757140 0.693474 0.884838
v 0.827798 0.597435 0.827798
v 0.835874 0.595326 0.835874
v 0.835448 0.694659 0.835448
v 0.827277 0.693474 0.827277
v 0.894947 0.595326 0.763895
v 0.885450 0.597435 0.757549
v 0.894445 0.694659 0.763560
v 0.884838 0.693474 0.757140
v 0.928288 0.597435 0.677403
v 0.938841 0.595326 0.681774
v 0.938284 0.694659 0.681543
v 0.927609 0.693474 0.677121
v 0.954669 0.597435 0.590439
v 0.965873 0.595326 0.592667
v 0.965278 0.694659 0.592550
v 0.953947 0.693474 0.590296
v 0.975000 0.595326 0.500000
v 0.963577 0.597435 0.500000
v 0.974396 0.694659 0.500000
v 0.962841 0.693474 0.500000
v 0.954669 0.597435 0.409561
v 0.965873 0.595326 0.407333
v 0.965278 0.694659 0.407450
v 0.953947 0.693474 0.409704
v 0.938841 0.595326 0.318226
v 0.928288 0.597435 0.322597
v 0.938284 0.694659 0.318457
v 0.927609 0.693474 0.322879
v 0.894947 0.595326 0.236105
v 0.885450 0.597435 0.242451
v 0.894445 0.694659 0.236440
v 0.884838 0.693474 0.242860
v 0.827798 0.597435 0.172202
v 0.835874 0.595326 0.164126
v 0.835448 0.694659 0.164552
v 0.827277 0.693474 0.172723
v 0.763895 0.595326 0.105053
v 0.757549 0.597435 0.114550
v 0.763560 0.694659 0.105555
v 0.757140 0.693474 0.115162
v 0.677403 0.597435 0.071712
v 0.681774 0.595326 0.061159
v 0.681543 0.694659 0.061716
v 0.677121 0.693474 0.072391
v 0.590439 0.597435 0.045331
v 0.592667 0.595326 0.034127
v 0.592550 0.694659 0.034722
v 0.590296 0.693474 0.046053
v 0.500000 0.595326 0.025000
v 0.500000 0.597435 0.036423
v 0.500000 0.694659 0.025604
v 0.500000 0.693474 0.037159
v 0.409561 0.597435 0.045331
v 0.407333 0.595326 0.034127
v 0.407450 0.694659 0.034722
v 0.409704 0.693474 0.046053
v 0.318226 0.595326 0.061159
v 0.322597 0.597435 0.071712
v 0.318457 0.694659 0.061716
v 0.322879 0.693474 0.072391
v 0.236105 0.595326 0.105053
v 0.242451 0.597435 0.114550
v 0.236440 0.694659 0.105555
v 0.242860 0.693474 0.115162
v 0.172202 0.597435 0.172202
v 0.164126 0.595326 0.164126
v 0.164552 0.694659 0.164552
v 0.172723 0.693474 0.172723
v 0.105053 0.595326 0.236105
v 0.114550 0.597435 0.242451
v 0.105555 0.694659 0.236440
v 0.115162 0.693474 0.242860
v 0.071712 0.597435 0.322597
v 0.061159 0.595326 0.318226
v 0.061716 0.694659 0.318457
v 0.072391 0.693474 0.322879
v 0.045331 0.597435 0.409561
v 0.034127 0.595326 0.407333
v 0.034722 0.694659 0.407450
v 0.046053 0.693474 0.409704
v 0.500000 0.069915 0.500000
v 0.302288 0.070120 0.500000
v 0.316572 0.069843 0.572091
v 0.264827 0.025000 0.546779
v 0.260219 0.025000 0.500000
v 0.047611 0.701459 0.589986
v 0.040507 0.705190 0.500000
v 0.052046 0.708227 0.589104
v 0.050037 0.712749 0.500000
v 0.058683 0.712749 0.587784
v 0.066513 0.714336 0.586226
v 0.058020 0.714336 0.500000
v 0.066004 0.712749 0.500000
v 0.074343 0.712749 0.584668
v 0.080980 0.708227 0.583348
v 0.072771 0.708227 0.500000
v 0.085416 0.701459 0.582466
v 0.077293 0.701459 0.500000
v 0.086973 0.693474 0.582156
v 0.078881 0.693474 0.500000
v 0.079052 0.597435 0.500000
v 0.087140 0.597435 0.582123
v 0.295641 0.077222 0.539770
v 0.292305 0.076558 0.500000
v 0.304178 0.070911 0.538951
v 0.278471 0.025000 0.591760
v 0.073858 0.701459 0.676514
v 0.078036 0.708227 0.674783
v 0.084289 0.712749 0.672193
v 0.091664 0.714336 0.669138
v 0.099040 0.712749 0.666083
v 0.105292 0.708227 0.663493
v 0.109470 0.701459 0.661763
v 0.110937 0.693474 0.661155
v 0.111094 0.597435 0.661090
v 0.307549 0.076783 0.578780
v 0.358122 0.069843 0.636799
v 0.300630 0.025000 0.633215
v 0.116483 0.701459 0.756258
v 0.120243 0.708227 0.753746
v 0.125870 0.712749 0.749986
v 0.132507 0.714336 0.745551
v 0.139145 0.712749 0.741115
v 0.144772 0.708227 0.737355
v 0.148532 0.701459 0.734843
v 0.149853 0.693474 0.733961
v 0.149994 0.597435 0.733866
v 0.326416 0.077222 0.614947
v 0.333990 0.070911 0.610924
v 0.173845 0.701459 0.826155
v 0.177043 0.708227 0.822957
v 0.181828 0.712749 0.818172
v 0.187473 0.714336 0.812527
v 0.193118 0.712749 0.806882
v 0.197904 0.708227 0.802096
v 0.201101 0.701459 0.798899
v 0.202224 0.693474 0.797776
v 0.202345 0.597435 0.797655
v 0.352805 0.076975 0.647195
v 0.389913 0.070178 0.664758
v 0.366785 0.025000 0.699370
v 0.243742 0.701459 0.883517
v 0.246254 0.708227 0.879757
v 0.250014 0.712749 0.874130
v 0.254449 0.714336 0.867493
v 0.258885 0.712749 0.860855
v 0.262644 0.708227 0.855228
v 0.265157 0.701459 0.851468
v 0.266039 0.693474 0.850147
v 0.266134 0.597435 0.850006
v 0.385053 0.077222 0.673584
v 0.427909 0.069843 0.683428
v 0.408240 0.025000 0.721529
v 0.323486 0.701459 0.926142
v 0.325217 0.708227 0.921964
v 0.327807 0.712749 0.915711
v 0.330862 0.714336 0.908336
v 0.333917 0.712749 0.900960
v 0.336507 0.708227 0.894708
v 0.338237 0.701459 0.890530
v 0.338845 0.693474 0.889063
v 0.338910 0.597435 0.888906
v 0.421220 0.076783 0.692451
v 0.453221 0.025000 0.735173
v 0.410014 0.701459 0.952389
v 0.410896 0.708227 0.947955
v 0.412216 0.712749 0.941317
v 0.413774 0.714336 0.933487
v 0.415332 0.712749 0.925657
v 0.416652 0.708227 0.919020
v 0.417534 0.701459 0.914584
v 0.417844 0.693474 0.913027
v 0.417877 0.597435 0.912860
v 0.460230 0.077222 0.704359
v 0.461049 0.070911 0.695822
v 0.500000 0.070120 0.697712
v 0.500000 0.025000 0.739781
v 0.500000 0.705190 0.959493
v 0.500000 0.712749 0.949962
v 0.500000 0.714336 0.941980
v 0.500000 0.712749 0.933996
v 0.500000 0.708227 0.927229
v 0.500000 0.701459 0.922707
v 0.500000 0.693474 0.921119
v 0.500000 0.597435 0.920948
v 0.500000 0.076558 0.707695
v 0.572091 0.069843 0.683428
v 0.546779 0.025000 0.735173
v 0.589986 0.701459 0.952389
v 0.589104 0.708227 0.947955
v 0.587784 0.712749 0.941317
v 0.586226 0.714336 0.933487
v 0.584668 0.712749 0.925657
v 0.583348 0.708227 0.919020
v 0.582466 0.701459 0.914584
v 0.582156 0.693474 0.913027
v 0.539770 0.077222 0.704359
v 0.582123 0.597435 0.912860
v 0.538951 0.070911 0.695822
v 0.591760 0.025000 0.721529
v 0.676514 0.701459 0.926142
v 0.674783 0.708227 0.921964
v 0.672193 0.712749 0.915711
v 0.669138 0.714336 0.908336
v 0.666083 0.712749 0.900960
v 0.663493 0.708227 0.894708
v 0.661763 0.701459 0.890530
v 0.661155 0.693474 0.889063
v 0.661090 0.597435 0.888906
v 0.578780 0.076783 0.692451
v 0.636799 0.069843 0.641878
v 0.633215 0.025000 0.699370
v 0.756258 0.701459 0.883517
v 0.753746 0.708227 0.879757
v 0.749986 0.712749 0.874130
v 0.745551 0.714336 0.867493
v 0.741115 0.712749 0.860855
v 0.737355 0.708227 0.855228
v 0.734843 0.701459 0.851468
v 0.733961 0.693474 0.850147
v 0.733866 0.597435 0.850006
v 0.614947 0.077222 0.673584
v 0.610924 0.070911 0.666010
v 0.669550 0.025000 0.669550
v 0.826155 0.701459 0.826155
v 0.822957 0.708227 0.822957
v 0.818172 0.712749 0.818172
v 0.812527 0.714336 0.812527
v 0.806882 0.712749 0.806882
v 0.802096 0.708227 0.802096
v 0.798899 0.701459 0.798899
v 0.797776 0.693474 0.797776
v 0.797655 0.597435 0.797655
v 0.647195 0.076975 0.647195
v 0.664758 0.070178 0.610087
v 0.699370 0.025000 0.633215
v 0.883517 0.701459 0.756258
v 0.879757 0.708227 0.753746
v 0.874130 0.712749 0.749986
v 0.867493 0.714336 0.745551
v 0.860855 0.712749 0.741115
v 0.855228 0.708227 0.737355
v 0.851468 0.701459 0.734843
v 0.850147 0.693474 0.733961
v 0.850006 0.597435 0.733866
v 0.673584 0.077222 0.614947
v 0.683428 0.069843 0.572091
v 0.926142 0.701459 0.676514
v 0.921964 0.708227 0.674783
v 0.915711 0.712749 0.672193
v 0.908336 0.714336 0.669138
v 0.900960 0.712749 0.666083
v 0.894708 0.708227 0.663493
v 0.890530 0.701459 0.661763
v 0.889063 0.693474 0.661155
v 0.888906 0.597435 0.661090
v 0.692451 0.076783 0.578780
v 0.952389 0.701459 0.589986
v 0.947955 0.708227 0.589104
v 0.941317 0.712749 0.587784
v 0.933487 0.714336 0.586226
v 0.925657 0.712749 0.584668
v 0.919020 0.708227 0.583348
v 0.914584 0.701459 0.582466
v 0.913027 0.693474 0.582156
v 0.912860 0.597435 0.582123
v 0.704359 0.077222 0.539770
v 0.695822 0.070911 0.538951
v 0.697712 0.070120 0.500000
v 0.959493 0.705190 0.500000
v 0.949962 0.712749 0.500000
v 0.941980 0.714336 0.500000
v 0.933996 0.712749 0.500000
v 0.927229 0.708227 0.500000
v 0.922707 0.701459 0.500000
v 0.921119 0.693474 0.500000
v 0.920948 0.597435 0.500000
v 0.707695 0.076558 0.500000
v 0.683428 0.069843 0.427909
v 0.952389 0.701459 0.410014
v 0.947955 0.708227 0.410896
v 0.941317 0.712749 0.412216
v 0.933487 0.714336 0.413774
v 0.925657 0.712749 0.415332
v 0.919020 0.708227 0.416652
v 0.914584 0.701459 0.417534
v 0.913027 0.693474 0.417844
v 0.912860 0.597435 0.417877
v 0.704359 0.077222 0.460230
v 0.695822 0.070911 0.461049
v 0.926142 0.701459 0.323486
v 0.921964 0.708227 0.325217
v 0.915711 0.712749 0.327807
v 0.908336 0.714336 0.330862
v 0.900960 0.712749 0.333917
v 0.894708 0.708227 0.336507
v 0.890530 0.701459 0.338237
v 0.889063 0.693474 0.338845
v 0.888906 0.597435 0.338910
v 0.692451 0.076783 0.421220
v 0.641878 0.069843 0.363201
v 0.883517 0.701459 0.243742
v 0.879757 0.708227 0.246254
v 0.874130 0.712749 0.250014
v 0.867493 0.714336 0.254449
v 0.860855 0.712749 0.258885
v 0.855228 0.708227 0.262644
v 0.851468 0.701459 0.265157
v 0.850147 0.693474 0.266039
v 0.850006 0.597435 0.266134
v 0.673584 0.077222 0.385053
v 0.666010 0.070911 0.389076
v 0.826155 0.701459 0.173845
v 0.822957 0.708227 0.177043
v 0.818172 0.712749 0.181828
v 0.812527 0.714336 0.187473
v 0.806882 0.712749 0.193118
v 0.802096 0.708227 0.197904
v 0.798899 0.701459 0.201101
v 0.797776 0.693474 0.202224
v 0.797655 0.597435 0.202345
v 0.647195 0.076975 0.352805
v 0.610087 0.070178 0.335242
v 0.756258 0.701459 0.116483
v 0.753746 0.708227 0.120243
v 0.749986 0.712749 0.125870
v 0.745551 0.714336 0.132507
v 0.741115 0.712749 0.139145
v 0.737355 0.708227 0.144772
v 0.734843 0.701459 0.148532
v 0.733961 0.693474 0.149853
v 0.733866 0.597435 0.149994
v 0.614947 0.077222 0.326416
v 0.572091 0.069843 0.316572
v 0.676514 0.701459 0.073858
v 0.674783 0.708227 0.078036
v 0.672193 0.712749 0.084289
v 0.669138 0.714336 0.091664
v 0.666083 0.712749 0.099040
v 0.663493 0.708227 0.105292
v 0.661763 0.701459 0.109470
v 0.661155 0.693474 0.110937
v 0.661090 0.597435 0.111094
v 0.578780 0.076783 0.307549
v 0.589986 0.701459 0.047611
v 0.589104 0.708227 0.052046
v 0.587784 0.712749 0.058683
v 0.586226 0.714336 0.066513
v 0.584668 0.712749 0.074343
v 0.583348 0.708227 0.080980
v 0.582466 0.701459 0.085416
v 0.582156 0.693474 0.086973
v 0.582123 0.597435 0.087140
v 0.539770 0.077222 0.295641
v 0.538951 0.070911 0.304178
v 0.500000 0.070120 0.302288
v 0.500000 0.705190 0.040507
v 0.500000 0.712749 0.050037
v 0.500000 0.714336 0.058020
v 0.500000 0.712749 0.066004
v 0.500000 0.708227 0.072771
v 0.500000 0.701459 0.077293
v 0.500000 0.693474 0.078881
v 0.500000 0.597435 0.079052
v 0.500000 0.076558 0.292305
v 0.427909 0.069843 0.316572
v 0.410014 0.701459 0.047611
v 0.410896 0.708227 0.052046
v 0.412216 0.712749 0.058683
v 0.413774 0.714336 0.066513
v 0.415332 0.712749 0.074343
v 0.416652 0.708227 0.080980
v 0.417534 0.701459 0.085416
v 0.417844 0.693474 0.086973
v 0.417877 0.597435 0.087140
v 0.460230 0.077222 0.295641
v 0.461049 0.070911 0.304178
v 0.323486 0.701459 0.073858
v 0.325217 0.708227 0.078036
v 0.327807 0.712749 0.084289
v 0.330862 0.714336 0.091664
v 0.333917 0.712749 0.099040
v 0.336507 0.708227 0.105292
v 0.338237 0.701459 0.109470
v 0.338845 0.693474 0.110937
v 0.338910 0.597435 0.111094
v 0.421220 0.076783 0.307549
v 0.363201 0.069843 0.358122
v 0.243742 0.701459 0.116483
v 0.246254 0.708227 0.120243
v 0.250014 0.712749 0.125870
v 0.254449 0.714336 0.132507
v 0.258885 0.712749 0.139145
v 0.262644 0.708227 0.144772
v 0.265157 0.701459 0.148532
v 0.266039 0.693474 0.149853
v 0.266134 0.597435 0.149994
v 0.385053 0.077222 0.326416
v 0.389076 0.070911 0.333990
v 0.330450 0.025000 0.330450
v 0.173845 0.701459 0.173845
v 0.177043 0.708227 0.177043
v 0.181828 0.712749 0.181828
v 0.187473 0.714336 0.187473
v 0.193118 0.712749 0.193118
v 0.197904 0.708227 0.197904
v 0.201101 0.701459 0.201101
v 0.202224 0.693474 0.202224
v 0.202345 0.597435 0.202345
v 0.352805 0.076975 0.352805
v 0.335242 0.070178 0.389913
v 0.300630 0.025000 0.366785
v 0.116483 0.701459 0.243742
v 0.120243 0.708227 0.246254
v 0.125870 0.712749 0.250014
v 0.132507 0.714336 0.254449
v 0.139145 0.712749 0.258885
v 0.144772 0.708227 0.262644
v 0.148532 0.701459 0.265157
v 0.149853 0.693474 0.266039
v 0.149994 0.597435 0.266134
v 0.326416 0.077222 0.385053
v 0.316572 0.069843 0.427909
v 0.278471 0.025000 0.408240
v 0.073858 0.701459 0.323486
v 0.078036 0.708227 0.325217
v 0.084289 0.712749 0.327807
v 0.091664 0.714336 0.330862
v 0.099040 0.712749 0.333917
v 0.105292 0.708227 0.336507
v 0.109470 0.701459 0.338237
v 0.110937 0.693474 0.338845
v 0.111094 0.597435 0.338910
v 0.307549 0.076783 0.421220
v 0.264827 0.025000 0.453221
v 0.047611 0.701459 0.410014
v 0.052046 0.708227 0.410896
v 0.058683 0.712749 0.412216
v 0.066513 0.714336 0.413774
v 0.074343 0.712749 0.415332
v 0.080980 0.708227 0.416652
v 0.085416 0.701459 0.417534
v 0.086973 0.693474 0.417844
v 0.087140 0.597435 0.417877
v 0.295641 0.077222 0.460230
v 0.304178 0.070911 0.461049
v 0.097487 0.693474 0.629852
v 0.079904 0.597435 0.541376
v 0.123713 0.597435 0.692723
v 0.232096 0.693474 0.826441
v 0.307277 0.597435 0.876287
v 0.458624 0.597435 0.920096
v 0.615610 0.597435 0.906655
v 0.767904 0.693474 0.826441
v 0.876287 0.597435 0.692723
v 0.920096 0.597435 0.541376
v 0.902513 0.693474 0.370148
v 0.906655 0.597435 0.384390
v 0.826441 0.693474 0.232096
v 0.692723 0.597435 0.123713
v 0.541376 0.597435 0.079904
v 0.384390 0.597435 0.093345
v 0.232096 0.693474 0.173559
v 0.093345 0.597435 0.384390
f 1 2 3
f 4 1 3
f 5 4 3
f 6 5 3
f 6 3 7
f 7 8 6
f 7 3 9
f 9 8 7
f 9 3 10
f 10 11 9
f 10 3 12
f 12 11 10
f 13 12 3
f 14 13 3
f 15 14 3
f 16 15 3
f 17 16 3
f 18 19 20
f 21 18 20
f 22 23 24
f 24 25 22
f 26 19 18
f 18 27 26
f 24 23 28
f 29 24 28
f 30 26 27
f 27 31 30
f 28 32 33
f 33 29 28
f 34 35 30
f 31 34 30
f 33 32 36
f 37 33 36
f 38 35 34
f 34 39 38
f 36 40 41
f 41 37 36
f 42 43 38
f 39 42 38
f 41 40 44
f 45 41 44
f 46 47 43
f 42 46 43
f 44 48 49
f 49 45 44
f 50 47 46
f 46 51 50
f 49 48 52
f 53 49 52
f 54 55 50
f 51 54 50
f 52 56 57
f 57 53 52
f 58 55 54
f 54 59 58
f 57 56 60
f 61 57 60
f 62 58 59
f 59 63 62
f 60 64 65
f 65 61 60
f 66 67 62
f 63 66 62
f 65 64 68
f 69 65 68
f 70 67 66
f 66 71 70
f 68 72 73
f 73 69 68
f 74 75 70
f 71 74 70
f 73 72 76
f 77 73 76
f 78 79 75
f 74 78 75
f 76 80 81
f 81 77 76
f 82 79 78
f 78 83 82
f 81 80 84
f 85 81 84
f 86 87 82
f 83 86 82
f 84 88 89
f 89 85 84
f 90 87 86
f 86 91 90
f 89 88 92
f 93 89 92
f 94 90 91
f 91 95 94
f 92 96 97
f 97 93 92
f 98 99 94
f 95 98 94
f 97 96 100
f 101 97 100
f 102 99 98
f 98 103 102
f 100 104 105
f 105 101 100
f 106 107 102
f 103 106 102
f 105 104 108
f 109 105 108
f 110 111 107
f 106 110 107
f 108 112 113
f 113 109 108
f 114 111 110
f 110 115 114
f 113 112 116
f 117 113 116
f 118 119 114
f 115 118 114
f 116 120 121
f 121 117 116
f 122 119 118
f 118 123 122
f 121 120 124
f 125 121 124
f 126 122 123
f 123 127 126
f 124 128 129
f 129 125 124
f 130 131 126
f 127 130 126
f 129 128 132
f 133 129 132
f 134 131 130
f 130 135 134
f 132 136 137
f 137 133 132
f 138 139 134
f 135 138 134
f 137 136 140
f 141 137 140
f 142 143 139
f 138 142 139
f 140 144 145
f 145 141 140
f 20 143 142
f 142 21 20
f 145 144 22
f 25 145 22
f 146 147 148
f 149 150 3
f 21 150 149
f 18 21 149
f 25 24 151
f 151 152 25
f 152 151 153
f 154 152 153
f 155 154 153
f 154 155 156
f 156 157 154
f 158 157 156
f 159 158 156
f 158 159 160
f 160 161 158
f 161 160 162
f 162 163 161
f 163 162 164
f 164 165 163
f 166 167 168
f 168 169 166
f 169 168 170
f 170 147 169
f 148 147 170
f 171 149 3
f 18 149 171
f 27 18 171
f 24 29 172
f 172 151 24
f 151 172 173
f 173 153 151
f 153 173 174
f 174 155 153
f 156 155 174
f 175 156 174
f 156 175 176
f 176 159 156
f 160 159 176
f 177 160 176
f 160 177 178
f 178 162 160
f 162 178 179
f 179 164 162
f 167 180 181
f 181 168 167
f 170 168 181
f 148 170 181
f 146 148 182
f 183 171 3
f 27 171 183
f 31 27 183
f 29 33 184
f 184 172 29
f 172 184 185
f 185 173 172
f 174 173 185
f 186 174 185
f 174 186 187
f 187 175 174
f 176 175 187
f 188 176 187
f 177 176 188
f 189 177 188
f 177 189 190
f 190 178 177
f 178 190 191
f 191 179 178
f 180 192 193
f 193 181 180
f 181 193 194
f 194 148 181
f 182 148 194
f 31 183 3
f 34 31 3
f 33 37 195
f 195 184 33
f 184 195 196
f 196 185 184
f 185 196 197
f 197 186 185
f 187 186 197
f 198 187 197
f 187 198 199
f 199 188 187
f 188 199 200
f 200 189 188
f 189 200 201
f 201 190 189
f 190 201 202
f 202 191 190
f 192 203 204
f 204 193 192
f 194 193 204
f 182 194 204
f 146 182 205
f 3 206 39
f 39 34 3
f 195 37 41
f 207 195 41
f 196 195 207
f 208 196 207
f 197 196 208
f 209 197 208
f 197 209 210
f 210 198 197
f 199 198 210
f 211 199 210
f 200 199 211
f 212 200 211
f 201 200 212
f 213 201 212
f 202 201 213
f 214 202 213
f 204 203 215
f 216 204 215
f 204 216 205
f 205 182 204
f 146 205 217
f 218 206 3
f 42 39 206
f 42 206 218
f 207 41 45
f 219 207 45
f 208 207 219
f 220 208 219
f 208 220 221
f 221 209 208
f 210 209 221
f 222 210 221
f 210 222 223
f 223 211 210
f 211 223 224
f 224 212 211
f 213 212 224
f 225 213 224
f 214 213 225
f 226 214 225
f 216 215 227
f 228 216 227
f 205 216 228
f 217 205 228
f 229 218 3
f 218 229 46
f 46 42 218
f 219 45 49
f 230 219 49
f 220 219 230
f 231 220 230
f 221 220 231
f 232 221 231
f 221 232 233
f 233 222 221
f 223 222 233
f 234 223 233
f 223 234 235
f 235 224 223
f 225 224 235
f 236 225 235
f 226 225 236
f 237 226 236
f 228 227 238
f 239 228 238
f 228 239 240
f 240 217 228
f 146 217 241
f 242 229 3
f 229 242 51
f 51 46 229
f 230 49 53
f 243 230 53
f 231 230 243
f 231 243 244
f 244 232 231
f 233 232 244
f 245 233 244
f 246 234 233
f 246 233 245
f 235 234 246
f 247 235 246
f 236 235 247
f 248 236 247
f 237 236 248
f 249 237 248
f 250 251 239
f 239 238 250
f 240 239 251
f 241 240 251
f 241 217 240
f 146 241 252
f 253 242 3
f 51 242 253
f 54 51 253
f 53 57 254
f 254 243 53
f 243 254 255
f 244 243 255
f 256 244 255
f 244 256 257
f 257 245 244
f 257 258 246
f 246 245 257
f 246 258 259
f 259 247 246
f 247 259 260
f 260 248 247
f 248 260 261
f 261 249 248
f 262 251 250
f 262 250 263
f 251 262 264
f 264 241 251
f 252 241 264
f 265 253 3
f 54 253 265
f 59 54 265
f 57 61 266
f 266 254 57
f 254 266 267
f 267 255 254
f 255 267 268
f 268 256 255
f 257 256 268
f 269 257 268
f 257 269 270
f 270 258 257
f 259 258 270
f 271 259 270
f 259 271 272
f 272 260 259
f 260 272 273
f 273 261 260
f 263 274 275
f 275 262 263
f 264 262 275
f 252 264 275
f 146 252 276
f 277 265 3
f 59 265 277
f 63 59 277
f 61 65 278
f 278 266 61
f 266 278 279
f 279 267 266
f 268 267 279
f 280 268 279
f 268 280 281
f 281 269 268
f 270 269 281
f 282 270 281
f 271 270 282
f 283 271 282
f 271 283 284
f 284 272 271
f 272 284 285
f 285 273 272
f 274 286 287
f 287 275 274
f 275 287 288
f 288 252 275
f 276 252 288
f 289 277 3
f 63 277 289
f 66 63 289
f 65 69 290
f 290 278 65
f 278 290 291
f 291 279 278
f 279 291 292
f 292 280 279
f 281 280 292
f 293 281 292
f 281 293 294
f 294 282 281
f 282 294 295
f 295 283 282
f 283 295 296
f 296 284 283
f 284 296 297
f 297 285 284
f 286 298 299
f 299 287 286
f 288 287 299
f 276 288 299
f 146 276 300
f 301 289 3
f 289 301 71
f 71 66 289
f 290 69 73
f 302 290 73
f 291 290 302
f 303 291 302
f 292 291 303
f 304 292 303
f 292 304 305
f 305 293 292
f 294 293 305
f 306 294 305
f 295 294 306
f 307 295 306
f 296 295 307
f 308 296 307
f 297 296 308
f 309 297 308
f 299 298 310
f 311 299 310
f 299 311 300
f 300 276 299
f 146 300 312
f 2 301 3
f 74 71 301
f 74 301 2
f 302 73 77
f 313 302 77
f 303 302 313
f 314 303 313
f 303 314 315
f 315 304 303
f 305 304 315
f 316 305 315
f 305 316 317
f 317 306 305
f 306 317 318
f 318 307 306
f 308 307 318
f 319 308 318
f 309 308 319
f 320 309 319
f 311 310 321
f 322 311 321
f 300 311 322
f 312 300 322
f 2 1 78
f 78 74 2
f 313 77 81
f 323 313 81
f 314 313 323
f 324 314 323
f 315 314 324
f 325 315 324
f 315 325 326
f 326 316 315
f 317 316 326
f 327 317 326
f 317 327 328
f 328 318 317
f 319 318 328
f 329 319 328
f 320 319 329
f 330 320 329
f 322 321 331
f 332 322 331
f 322 332 333
f 333 312 322
f 146 312 334
f 1 4 83
f 83 78 1
f 323 81 85
f 335 323 85
f 324 323 335
f 324 335 336
f 336 325 324
f 326 325 336
f 337 326 336
f 326 337 338
f 338 327 326
f 328 327 338
f 339 328 338
f 329 328 339
f 340 329 339
f 330 329 340
f 341 330 340
f 342 343 332
f 332 331 342
f 343 334 333
f 333 332 343
f 334 312 333
f 146 334 344
f 5 86 83
f 83 4 5
f 85 89 345
f 345 335 85
f 335 345 346
f 336 335 346
f 347 336 346
f 336 347 348
f 348 337 336
f 338 337 348
f 349 338 348
f 338 349 350
f 350 339 338
f 339 350 351
f 351 340 339
f 340 351 352
f 352 341 340
f 342 353 354
f 354 343 342
f 343 354 355
f 355 334 343
f 344 334 355
f 86 5 6
f 91 86 6
f 89 93 356
f 356 345 89
f 345 356 357
f 357 346 345
f 346 357 358
f 358 347 346
f 348 347 358
f 359 348 358
f 348 359 360
f 360 349 348
f 350 349 360
f 361 350 360
f 350 361 362
f 362 351 350
f 351 362 363
f 363 352 351
f 353 364 365
f 365 354 353
f 355 354 365
f 344 355 365
f 146 344 366
f 91 6 8
f 95 91 8
f 93 97 367
f 367 356 93
f 356 367 368
f 368 357 356
f 358 357 368
f 369 358 368
f 358 369 370
f 370 359 358
f 360 359 370
f 371 360 370
f 361 360 371
f 372 361 371
f 361 372 373
f 373 362 361
f 362 373 374
f 374 363 362
f 364 375 376
f 376 365 364
f 365 376 377
f 377 344 365
f 366 344 377
f 95 8 9
f 98 95 9
f 97 101 378
f 378 367 97
f 367 378 379
f 379 368 367
f 368 379 380
f 380 369 368
f 370 369 380
f 381 370 380
f 370 381 382
f 382 371 370
f 371 382 383
f 383 372 371
f 372 383 384
f 384 373 372
f 373 384 385
f 385 374 373
f 375 386 387
f 387 376 375
f 377 376 387
f 366 377 387
f 146 366 388
f 9 11 103
f 103 98 9
f 378 101 105
f 389 378 105
f 379 378 389
f 390 379 389
f 380 379 390
f 391 380 390
f 380 391 392
f 392 381 380
f 382 381 392
f 393 382 392
f 383 382 393
f 394 383 393
f 384 383 394
f 395 384 394
f 385 384 395
f 396 385 395
f 387 386 397
f 398 387 397
f 387 398 388
f 388 366 387
f 146 388 399
f 106 103 11
f 106 11 12
f 389 105 109
f 400 389 109
f 390 389 400
f 401 390 400
f 390 401 402
f 402 391 390
f 392 391 402
f 403 392 402
f 392 403 404
f 404 393 392
f 393 404 405
f 405 394 393
f 395 394 405
f 406 395 405
f 396 395 406
f 407 396 406
f 398 397 408
f 409 398 408
f 388 398 409
f 399 388 409
f 12 13 110
f 110 106 12
f 400 109 113
f 410 400 113
f 401 400 410
f 411 401 410
f 402 401 411
f 412 402 411
f 402 412 413
f 413 403 402
f 404 403 413
f 414 404 413
f 404 414 415
f 415 405 404
f 406 405 415
f 416 406 415
f 407 406 416
f 417 407 416
f 409 408 418
f 419 409 418
f 409 419 420
f 420 399 409
f 146 399 421
f 115 110 13
f 115 13 14
f 410 113 117
f 422 410 117
f 411 410 422
f 411 422 423
f 423 412 411
f 413 412 423
f 424 413 423
f 413 424 425
f 425 414 413
f 415 414 425
f 426 415 425
f 416 415 426
f 427 416 426
f 417 416 427
f 428 417 427
f 419 418 429
f 430 419 429
f 420 419 430
f 421 420 430
f 421 399 420
f 146 421 431
f 115 14 15
f 118 115 15
f 117 121 432
f 432 422 117
f 422 432 433
f 423 422 433
f 434 423 433
f 423 434 435
f 435 424 423
f 425 424 435
f 436 425 435
f 425 436 437
f 437 426 425
f 426 437 438
f 438 427 426
f 427 438 439
f 439 428 427
f 429 440 441
f 441 430 429
f 430 441 442
f 442 421 430
f 431 421 442
f 118 15 16
f 123 118 16
f 121 125 443
f 443 432 121
f 432 443 444
f 444 433 432
f 433 444 445
f 445 434 433
f 435 434 445
f 446 435 445
f 435 446 447
f 447 436 435
f 437 436 447
f 448 437 447
f 437 448 449
f 449 438 437
f 438 449 450
f 450 439 438
f 440 451 452
f 452 441 440
f 442 441 452
f 431 442 452
f 146 431 453
f 123 16 17
f 127 123 17
f 125 129 454
f 454 443 125
f 443 454 455
f 455 444 443
f 445 444 455
f 456 445 455
f 445 456 457
f 457 446 445
f 447 446 457
f 458 447 457
f 448 447 458
f 459 448 458
f 448 459 460
f 460 449 448
f 449 460 461
f 461 450 449
f 451 462 463
f 463 452 451
f 452 463 464
f 464 431 452
f 453 431 464
f 465 17 3
f 127 17 465
f 130 127 465
f 129 133 466
f 466 454 129
f 454 466 467
f 467 455 454
f 455 467 468
f 468 456 455
f 457 456 468
f 469 457 468
f 457 469 470
f 470 458 457
f 458 470 471
f 471 459 458
f 459 471 472
f 472 460 459
f 460 472 473
f 473 461 460
f 462 474 475
f 475 463 462
f 464 463 475
f 453 464 475
f 146 453 476
f 477 465 3
f 465 477 135
f 135 130 465
f 466 133 137
f 478 466 137
f 467 466 478
f 479 467 478
f 468 467 479
f 480 468 479
f 468 480 481
f 481 469 468
f 470 469 481
f 482 470 481
f 471 470 482
f 483 471 482
f 472 471 483
f 484 472 483
f 473 472 484
f 485 473 484
f 475 474 486
f 487 475 486
f 475 487 476
f 476 453 475
f 146 476 488
f 489 477 3
f 138 135 477
f 138 477 489
f 478 137 141
f 490 478 141
f 479 478 490
f 491 479 490
f 479 491 492
f 492 480 479
f 481 480 492
f 493 481 492
f 481 493 494
f 494 482 481
f 482 494 495
f 495 483 482
f 484 483 495
f 496 484 495
f 485 484 496
f 497 485 496
f 487 486 498
f 499 487 498
f 476 487 499
f 488 476 499
f 500 489 3
f 489 500 142
f 142 138 489
f 490 141 145
f 501 490 145
f 491 490 501
f 502 491 501
f 492 491 502
f 503 492 502
f 492 503 504
f 504 493 492
f 494 493 504
f 505 494 504
f 494 505 506
f 506 495 494
f 496 495 506
f 507 496 506
f 497 496 507
f 508 497 507
f 499 498 509
f 510 499 509
f 499 510 511
f 511 488 499
f 146 488 147
f 150 500 3
f 500 150 21
f 21 142 500
f 501 145 25
f 152 501 25
f 502 501 152
f 502 152 154
f 154 503 502
f 504 503 154
f 157 504 154
f 504 157 158
f 158 505 504
f 506 505 158
f 161 506 158
f 507 506 161
f 163 507 161
f 508 507 163
f 165 508 163
f 510 509 166
f 169 510 166
f 511 510 169
f 147 511 169
f 147 488 511
f 20 19 23
f 23 22 20
f 165 512 513
f 19 26 28
f 28 23 19
f 514 513 512
f 26 30 32
f 32 28 26
f 512 191 514
f 30 35 36
f 36 32 30
f 191 515 203
f 203 514 191
f 36 35 38
f 40 36 38
f 516 203 515
f 40 38 43
f 44 40 43
f 516 515 226
f 44 43 47
f 48 44 47
f 516 226 237
f 517 516 237
f 48 47 50
f 52 48 50
f 517 237 249
f 50 55 56
f 56 52 50
f 249 261 518
f 518 517 249
f 55 58 60
f 60 56 55
f 261 273 518
f 58 62 64
f 64 60 58
f 273 519 286
f 286 518 273
f 62 67 68
f 68 64 62
f 298 286 519
f 68 67 70
f 72 68 70
f 298 519 309
f 520 298 309
f 72 70 75
f 76 72 75
f 520 309 320
f 76 75 79
f 80 76 79
f 520 320 330
f 521 520 330
f 82 84 80
f 80 79 82
f 521 330 341
f 88 84 82
f 88 82 87
f 341 522 523
f 523 521 341
f 87 90 92
f 92 88 87
f 90 94 96
f 96 92 90
f 522 524 375
f 375 523 522
f 94 99 100
f 100 96 94
f 386 375 524
f 100 99 102
f 104 100 102
f 386 524 396
f 525 386 396
f 104 102 107
f 108 104 107
f 525 396 407
f 108 107 111
f 112 108 111
f 525 407 417
f 526 525 417
f 112 111 114
f 116 112 114
f 526 417 428
f 114 119 120
f 120 116 114
f 428 439 527
f 527 526 428
f 119 122 124
f 124 120 119
f 439 450 527
f 122 126 128
f 128 124 122
f 450 528 462
f 462 527 450
f 126 131 132
f 132 128 126
f 474 462 528
f 132 131 134
f 136 132 134
f 474 528 485
f 486 474 485
f 136 134 139
f 140 136 139
f 486 485 497
f 529 486 497
f 140 139 143
f 144 140 143
f 529 497 508
f 144 143 20
f 22 144 20
f 529 508 165
f 513 529 165
