# Original shape: m87.obj
# No processing applied - exact copy of source file
# Generated on 2025-10-13 16:43:53

v 0.099059 0.757930 0.742608
v 0.083737 0.755376 0.711962
v 0.093951 0.763038 0.717070
v 0.096505 0.763038 0.686425
v 0.216532 0.763038 0.686425
v 0.229301 0.755376 0.711962
v 0.219086 0.763038 0.717070
v 0.213978 0.757930 0.742608
v 0.168010 0.586828 0.152688
v 0.196102 0.579167 0.190995
v 0.180779 0.591935 0.190995
v 0.116935 0.579167 0.190995
v 0.145026 0.586828 0.152688
v 0.132258 0.591935 0.190995
v 0.211425 0.763038 0.737500
v 0.208871 0.770699 0.719624
v 0.203763 0.770699 0.683871
v 0.208871 0.752823 0.658333
v 0.198656 0.755376 0.650672
v 0.213978 0.729839 0.645564
v 0.208871 0.729839 0.632796
v 0.221640 0.706855 0.645564
v 0.219086 0.699194 0.637903
v 0.236962 0.643011 0.686425
v 0.219086 0.627688 0.683871
v 0.234409 0.643011 0.694086
v 0.219086 0.627688 0.699194
v 0.224194 0.635349 0.714516
v 0.242070 0.648118 0.701747
v 0.229301 0.660887 0.727285
v 0.247177 0.663441 0.704301
v 0.226747 0.696640 0.722177
v 0.236962 0.704301 0.701747
v 0.229301 0.724731 0.719624
v 0.236962 0.722177 0.696640
v 0.229301 0.745161 0.722177
v 0.216532 0.755376 0.737500
v 0.091398 0.390188 0.734946
v 0.160350 0.397849 0.750269
v 0.152689 0.382527 0.734946
v 0.081183 0.346774 0.719624
v 0.147581 0.351882 0.699194
v 0.078629 0.321236 0.678764
v 0.178226 0.339113 0.653226
v 0.116936 0.321236 0.632796
v 0.180780 0.339113 0.645565
v 0.183334 0.339113 0.604704
v 0.122043 0.336559 0.553629
v 0.201210 0.334005 0.584274
v 0.231855 0.336559 0.655780
v 0.234409 0.331452 0.678763
v 0.226748 0.323790 0.688978
v 0.203764 0.351882 0.737500
v 0.229301 0.397849 0.765591
v 0.229301 0.402957 0.763038
v 0.183334 0.336559 0.553629
v 0.165457 0.339113 0.502554
v 0.147581 0.339113 0.502554
v 0.190995 0.334005 0.568952
v 0.231856 0.122043 0.890726
v 0.219087 0.088844 0.911156
v 0.231856 0.088844 0.911156
v 0.203764 0.073522 0.946909
v 0.231856 0.073522 0.946909
v 0.231856 0.083737 0.969892
v 0.206318 0.083737 0.975000
v 0.211426 0.106720 0.967339
v 0.231856 0.106720 0.962231
v 0.213979 0.127151 0.936694
v 0.231856 0.127151 0.936694
v 0.229302 0.152688 0.923925
v 0.196103 0.093952 0.944355
v 0.198657 0.122043 0.921371
v 0.229302 0.129704 0.877957
v 0.203764 0.132258 0.906048
v 0.208872 0.198656 0.875403
v 0.229302 0.137366 0.854973
v 0.226748 0.190995 0.834543
v 0.211425 0.244624 0.829435
v 0.226748 0.226747 0.809005
v 0.226748 0.239516 0.770699
v 0.213979 0.272715 0.798790
v 0.229302 0.265054 0.745161
v 0.229301 0.293145 0.732392
v 0.213979 0.308468 0.770699
v 0.226748 0.328898 0.801344
v 0.229302 0.295699 0.824328
v 0.226748 0.275269 0.839651
v 0.081183 0.065860 0.594489
v 0.068415 0.040322 0.602151
v 0.083737 0.040322 0.602151
v 0.045431 0.027554 0.650672
v 0.083737 0.027554 0.650672
v 0.055646 0.032661 0.681317
v 0.091398 0.032661 0.688979
v 0.065861 0.058199 0.683871
v 0.091398 0.058199 0.686425
v 0.070968 0.076075 0.655780
v 0.086291 0.076075 0.655780
v 0.073522 0.093951 0.640457
v 0.196102 0.372312 0.341667
v 0.119489 0.374865 0.326344
v 0.137366 0.356989 0.405511
v 0.173118 0.356989 0.405511
v 0.206317 0.397849 0.231855
v 0.150134 0.392742 0.175672
v 0.201209 0.418280 0.175672
v 0.155242 0.420833 0.109274
v 0.221639 0.456586 0.134812
v 0.155242 0.469355 0.101613
v 0.196102 0.517876 0.104167
v 0.114381 0.517876 0.104167
v 0.178225 0.545968 0.101613
v 0.134811 0.545968 0.101613
v 0.249732 0.025000 0.420833
v 0.290592 0.025000 0.413172
v 0.282930 0.025000 0.374866
v 0.290592 0.035215 0.425941
v 0.247178 0.035215 0.431048
v 0.252285 0.065860 0.415726
v 0.285484 0.065860 0.410618
v 0.257393 0.076075 0.377419
v 0.280377 0.076075 0.377419
v 0.270162 0.088844 0.349328
v 0.270161 0.374866 0.326344
v 0.257392 0.408065 0.339113
v 0.262500 0.410618 0.211425
v 0.231855 0.410618 0.139919
v 0.242070 0.377419 0.157796
v 0.280376 0.367204 0.254839
v 0.042876 0.027554 0.058199
v 0.058199 0.027554 0.058199
v 0.042876 0.042876 0.035215
v 0.042876 0.035215 0.101613
v 0.063307 0.035215 0.101613
v 0.042876 0.053091 0.119489
v 0.063307 0.053091 0.119489
v 0.042876 0.083736 0.096505
v 0.058199 0.083736 0.096505
v 0.042876 0.099059 0.078629
v 0.053091 0.099059 0.078629
v 0.055645 0.203763 0.109274
v 0.165456 0.586828 0.045430
v 0.145026 0.586828 0.045430
v 0.175671 0.645564 0.027554
v 0.155241 0.645564 0.027554
v 0.201209 0.699193 0.025000
v 0.168010 0.699193 0.025000
v 0.216532 0.755376 0.045430
v 0.188440 0.755376 0.045430
v 0.234408 0.796237 0.091398
v 0.208870 0.796237 0.091398
v 0.257392 0.811559 0.155242
v 0.229300 0.811559 0.155242
v 0.259946 0.801344 0.219086
v 0.242069 0.801344 0.219086
v 0.259946 0.745161 0.257392
v 0.247177 0.745161 0.257392
v 0.239516 0.737500 0.247177
v 0.119490 0.420833 0.775807
v 0.206318 0.420833 0.775806
v 0.119490 0.402957 0.763038
v 0.137366 0.459140 0.768145
v 0.173119 0.459140 0.768145
v 0.142473 0.482124 0.768145
v 0.170565 0.482124 0.768145
v 0.155242 0.515323 0.750269
v 0.155242 0.543414 0.768145
v 0.155242 0.568952 0.768145
v 0.157796 0.568952 0.768145
v 0.152688 0.597043 0.765591
v 0.160350 0.597043 0.765591
v 0.147581 0.614919 0.775806
v 0.162903 0.614919 0.775806
v 0.152688 0.627688 0.816667
v 0.160350 0.627688 0.816667
v 0.152688 0.622581 0.860081
v 0.160350 0.622581 0.860081
v 0.145027 0.635349 0.890726
v 0.165457 0.635349 0.890726
v 0.175672 0.658333 0.890726
v 0.150135 0.673656 0.903495
v 0.162903 0.673656 0.903495
v 0.134812 0.658333 0.890726
v 0.155242 0.714516 0.883065
v 0.145027 0.734946 0.816667
v 0.165457 0.734946 0.816667
v 0.142473 0.742607 0.806452
v 0.170565 0.742607 0.806452
v 0.137366 0.755376 0.801344
v 0.173118 0.755376 0.801344
v 0.132258 0.768145 0.786022
v 0.180780 0.768145 0.786022
v 0.127150 0.775806 0.763038
v 0.183333 0.775806 0.763038
v 0.132258 0.788575 0.719624
v 0.183333 0.788575 0.719624
v 0.134812 0.786021 0.681317
v 0.180779 0.786021 0.681317
v 0.137365 0.755376 0.637903
v 0.173118 0.755376 0.637903
v 0.139919 0.719624 0.617473
v 0.170564 0.719624 0.617473
v 0.145027 0.681317 0.591936
v 0.168011 0.681317 0.591936
v 0.145027 0.658333 0.589382
v 0.168011 0.658333 0.589382
v 0.168011 0.645564 0.576613
v 0.147581 0.643011 0.561290
v 0.165457 0.643011 0.561290
v 0.145027 0.645564 0.576613
v 0.150134 0.630242 0.533199
v 0.162903 0.630242 0.533199
v 0.152688 0.614919 0.479570
v 0.157796 0.614919 0.479570
v 0.155242 0.594489 0.443817
v 0.206317 0.385081 0.433602
v 0.208871 0.367204 0.502554
v 0.224194 0.356989 0.553629
v 0.239516 0.466801 0.173118
v 0.226747 0.522984 0.137366
v 0.201209 0.551075 0.127151
v 0.155241 0.599597 0.122043
v 0.196102 0.581720 0.137366
v 0.155241 0.597043 0.152688
v 0.155241 0.602150 0.190995
v 0.155242 0.597043 0.257393
v 0.185887 0.584274 0.257392
v 0.155242 0.584274 0.311022
v 0.185887 0.576613 0.311022
v 0.188441 0.584274 0.443817
v 0.196102 0.597043 0.479570
v 0.201210 0.614919 0.533199
v 0.196102 0.622581 0.561290
v 0.180779 0.632796 0.581720
v 0.257392 0.464247 0.308468
v 0.254838 0.502554 0.277823
v 0.234408 0.538306 0.234409
v 0.216532 0.563844 0.188441
v 0.208871 0.566398 0.254839
v 0.239516 0.533199 0.311021
v 0.219086 0.558737 0.311021
v 0.247177 0.500000 0.311021
v 0.249731 0.459140 0.326344
v 0.216532 0.561290 0.443817
v 0.229301 0.533199 0.443817
v 0.242070 0.497446 0.443817
v 0.236962 0.448925 0.441263
v 0.259947 0.362097 0.701747
v 0.254839 0.346774 0.719624
v 0.259947 0.390188 0.734946
v 0.265054 0.397849 0.719624
v 0.231855 0.418280 0.750269
v 0.226748 0.423387 0.750269
v 0.196102 0.459140 0.750269
v 0.193549 0.482124 0.742608
v 0.257393 0.367204 0.655780
v 0.219086 0.563844 0.479570
v 0.229301 0.533199 0.479570
v 0.236962 0.497446 0.479570
v 0.242070 0.446371 0.487231
v 0.249731 0.441263 0.533199
v 0.249731 0.497446 0.528091
v 0.244624 0.533199 0.528091
v 0.229301 0.566398 0.528091
v 0.226747 0.579167 0.571505
v 0.247177 0.535753 0.581720
v 0.262500 0.497446 0.589382
v 0.267608 0.438710 0.617473
v 0.262500 0.423387 0.714516
v 0.247178 0.459140 0.706855
v 0.231855 0.482124 0.706855
v 0.198656 0.520430 0.734946
v 0.229301 0.530645 0.699194
v 0.203763 0.602150 0.597043
v 0.239516 0.553629 0.607258
v 0.219086 0.579167 0.620027
v 0.234409 0.543414 0.673656
v 0.244624 0.515323 0.663441
v 0.185887 0.678763 0.599597
v 0.180779 0.643011 0.594489
v 0.183333 0.711962 0.625134
v 0.188441 0.747715 0.645565
v 0.196102 0.775806 0.683871
v 0.198656 0.780914 0.722177
v 0.196102 0.770699 0.755376
v 0.193548 0.755376 0.788575
v 0.190995 0.745161 0.796237
v 0.190995 0.740054 0.793683
v 0.185887 0.724731 0.814113
v 0.175672 0.706855 0.875403
v 0.170565 0.699193 0.890726
v 0.155242 0.709409 0.903495
v 0.178226 0.665995 0.885618
v 0.170565 0.678763 0.893280
v 0.193549 0.663441 0.834543
v 0.198656 0.655780 0.829435
v 0.203764 0.673656 0.798790
v 0.206317 0.665995 0.796237
v 0.208871 0.673656 0.783468
v 0.208871 0.660887 0.783468
v 0.188441 0.645564 0.809005
v 0.193549 0.650672 0.814113
v 0.180780 0.640457 0.857527
v 0.185887 0.648118 0.860081
v 0.165457 0.632796 0.872850
v 0.160350 0.627688 0.872850
v 0.165457 0.630242 0.870296
v 0.165457 0.627688 0.860081
v 0.168011 0.632796 0.816667
v 0.180780 0.625134 0.775806
v 0.180780 0.602150 0.757930
v 0.198656 0.568952 0.757930
v 0.198656 0.551075 0.752823
v 0.155242 0.530645 0.757930
v 0.198656 0.533199 0.737500
v 0.206317 0.660887 0.622581
v 0.203763 0.614919 0.612366
v 0.198656 0.699193 0.640457
v 0.203763 0.729839 0.663441
v 0.211425 0.755376 0.686425
v 0.213978 0.757930 0.717070
v 0.211425 0.752823 0.745161
v 0.206317 0.750269 0.770699
v 0.201210 0.706855 0.791129
v 0.206317 0.734946 0.783468
v 0.185887 0.683871 0.865188
v 0.183334 0.681317 0.875403
v 0.168011 0.691532 0.895833
v 0.219086 0.630242 0.658333
v 0.219086 0.591935 0.630242
v 0.208871 0.673656 0.678763
v 0.219086 0.711962 0.701747
v 0.221640 0.568952 0.706855
v 0.231855 0.548522 0.704301
v 0.213979 0.612366 0.727285
v 0.208871 0.645564 0.737500
v 0.208871 0.665995 0.740054
v 0.211425 0.676210 0.742608
v 0.216532 0.706855 0.745161
v 0.234409 0.561290 0.683871
v 0.211425 0.727285 0.750269
v 0.211425 0.737500 0.765591
v 0.213978 0.740054 0.755376
v 0.193548 0.574059 0.101613
v 0.180779 0.563844 0.091398
v 0.183333 0.586828 0.109274
v 0.180779 0.591935 0.060753
v 0.183333 0.648118 0.045430
v 0.211424 0.701747 0.042876
v 0.229300 0.747715 0.065860
v 0.247177 0.788575 0.104167
v 0.267607 0.786022 0.150134
v 0.275268 0.783468 0.201210
v 0.267607 0.737500 0.247177
v 0.272715 0.699194 0.265054
v 0.262500 0.694086 0.272715
v 0.277822 0.691532 0.265054
v 0.275268 0.676210 0.267607
v 0.272715 0.691532 0.254839
v 0.170564 0.604704 0.078629
v 0.155241 0.599597 0.109274
v 0.155241 0.612365 0.086290
v 0.165456 0.650672 0.076075
v 0.175671 0.653226 0.063307
v 0.211424 0.717070 0.086290
v 0.213978 0.722177 0.070968
v 0.234408 0.773253 0.116935
v 0.221639 0.757930 0.127151
v 0.249731 0.757930 0.185887
v 0.270161 0.699194 0.249731
v 0.254838 0.722177 0.234409
v 0.211425 0.359543 0.267608
v 0.252285 0.336559 0.208871
v 0.226747 0.318683 0.272715
v 0.265054 0.305914 0.229301
v 0.247177 0.275269 0.272715
v 0.265054 0.277823 0.234409
v 0.265054 0.311022 0.326344
v 0.265054 0.285484 0.313575
v 0.270161 0.257392 0.229301
v 0.257392 0.221640 0.280376
v 0.270161 0.216532 0.234409
v 0.277823 0.201210 0.249731
v 0.259946 0.139919 0.295699
v 0.285484 0.101613 0.285484
v 0.254839 0.068414 0.334005
v 0.280377 0.063307 0.305914
v 0.249731 0.053091 0.369758
v 0.280377 0.045430 0.344220
v 0.280377 0.030108 0.356989
v 0.244624 0.045430 0.392742
v 0.270161 0.226747 0.311021
v 0.277823 0.196102 0.316129
v 0.083736 0.359543 0.257393
v 0.088844 0.410618 0.088844
v 0.099059 0.456586 0.081183
v 0.252285 0.387634 0.757930
v 0.252285 0.339113 0.719624
v 0.099060 0.050537 0.655780
v 0.099060 0.063306 0.632796
v 0.099060 0.078629 0.622581
v 0.091398 0.093951 0.617473
v 0.076076 0.132258 0.637903
v 0.091398 0.196102 0.614919
v 0.081183 0.231855 0.665995
v 0.099059 0.226747 0.622581
v 0.093952 0.285484 0.630242
v 0.076076 0.270161 0.668549
v 0.109274 0.313575 0.568952
v 0.081183 0.298253 0.584274
v 0.081183 0.224193 0.586828
v 0.081183 0.208871 0.581721
v 0.081183 0.109274 0.576613
v 0.081183 0.091398 0.571505
v 0.058199 0.249731 0.145027
v 0.101613 0.308468 0.129704
v 0.086290 0.265054 0.104167
v 0.070968 0.326344 0.231855
v 0.124597 0.362097 0.165457
v 0.073522 0.068414 0.068414
v 0.076075 0.053091 0.076075
v 0.065860 0.083736 0.060753
v 0.060753 0.106720 0.055645
v 0.076075 0.221640 0.088844
v 0.070967 0.369758 0.101613
v 0.070968 0.336559 0.093952
v 0.058199 0.277822 0.058199
v 0.053091 0.242070 0.060753
v 0.042876 0.109274 0.025000
v 0.042876 0.078629 0.042876
v 0.042876 0.058199 0.042876
v 0.070968 0.648118 0.701747
v 0.076075 0.643011 0.686425
v 0.065860 0.663441 0.704301
v 0.076075 0.643011 0.694086
v 0.091398 0.706855 0.645565
v 0.073522 0.704301 0.701747
v 0.076075 0.722177 0.696640
v 0.096505 0.729839 0.645565
v 0.101613 0.752822 0.658333
v 0.093952 0.755376 0.737500
v 0.083737 0.745161 0.722178
v 0.083737 0.724731 0.719624
v 0.083737 0.696640 0.722178
v 0.081183 0.660887 0.727285
v 0.086290 0.635349 0.714516
v 0.091398 0.627688 0.699194
v 0.091398 0.627688 0.683871
v 0.093951 0.699193 0.637903
v 0.101613 0.729839 0.632796
v 0.114382 0.755376 0.650672
v 0.109274 0.770699 0.683871
v 0.104167 0.770699 0.719624
v 0.099059 0.763038 0.737500
v 0.249732 0.305914 0.750269
v 0.252285 0.321237 0.786021
v 0.252285 0.277823 0.763038
v 0.247178 0.285484 0.811559
v 0.254839 0.259946 0.780914
v 0.244624 0.239516 0.819220
v 0.244624 0.272715 0.829435
v 0.239517 0.206317 0.844758
v 0.236963 0.142473 0.911156
v 0.239517 0.155242 0.865188
v 0.234409 0.137366 0.888172
v 0.247178 0.124597 0.898387
v 0.242071 0.124597 0.923925
v 0.247178 0.093952 0.923925
v 0.244624 0.099059 0.946909
v 0.249732 0.088844 0.944355
v 0.244625 0.091398 0.954570
v 0.285484 0.334005 0.254839
v 0.280376 0.318683 0.311021
v 0.288038 0.295699 0.254839
v 0.280376 0.282930 0.293145
v 0.285484 0.280376 0.254839
v 0.290591 0.244624 0.257392
v 0.288038 0.224194 0.288038
v 0.295699 0.216532 0.262500
v 0.293145 0.201210 0.270161
v 0.288038 0.193548 0.303360
v 0.285484 0.116936 0.298253
v 0.277823 0.070968 0.339113
v 0.293145 0.063307 0.316129
v 0.293145 0.050538 0.359543
v 0.293145 0.063307 0.374866
v 0.298253 0.040323 0.367204
v 0.300807 0.032661 0.379973
v 0.305914 0.053091 0.395296
v 0.300807 0.032661 0.405511
v 0.300807 0.040323 0.410618
v 0.139919 0.604704 0.078629
v 0.132257 0.591935 0.060753
v 0.147580 0.648118 0.045430
v 0.155241 0.653226 0.063307
v 0.157795 0.701747 0.042876
v 0.188440 0.722177 0.070968
v 0.175671 0.747715 0.065860
v 0.208870 0.773253 0.116935
v 0.196101 0.788575 0.104167
v 0.221639 0.786021 0.150134
v 0.226747 0.783468 0.201210
v 0.254838 0.699194 0.265054
v 0.259946 0.691532 0.265054
v 0.129704 0.586828 0.109274
v 0.116935 0.581720 0.137366
v 0.119489 0.574059 0.101613
v 0.129704 0.563844 0.091398
v 0.111827 0.551075 0.127151
v 0.106720 0.750269 0.770699
v 0.096505 0.740054 0.755376
v 0.101613 0.752822 0.745161
v 0.101613 0.727285 0.750269
v 0.096505 0.757930 0.717070
v 0.093952 0.706855 0.745161
v 0.093952 0.711962 0.701747
v 0.101613 0.737500 0.765592
v 0.106720 0.734946 0.783468
v 0.109274 0.706855 0.791129
v 0.101613 0.676210 0.742608
v 0.101613 0.673656 0.678764
v 0.101613 0.665994 0.740054
v 0.101613 0.645564 0.737500
v 0.099059 0.612365 0.727285
v 0.093952 0.630242 0.658333
v 0.088844 0.568951 0.706855
v 0.078629 0.561290 0.683871
v 0.093952 0.591935 0.630242
v 0.081183 0.548521 0.704301
v 0.104167 0.673656 0.783468
v 0.106721 0.673656 0.798790
v 0.104167 0.660887 0.783468
v 0.132258 0.625134 0.775807
v 0.129704 0.602150 0.757930
v 0.114382 0.568951 0.757930
v 0.114382 0.551075 0.752823
v 0.114382 0.533199 0.737500
v 0.099059 0.755376 0.686425
v 0.109274 0.729839 0.663441
v 0.114382 0.699193 0.640457
v 0.106720 0.660887 0.622581
v 0.106720 0.614919 0.612366
v 0.122043 0.645564 0.809005
v 0.142473 0.632796 0.816667
v 0.132258 0.640457 0.857527
v 0.145027 0.627688 0.860081
v 0.145027 0.632796 0.872850
v 0.147581 0.630242 0.870296
v 0.119489 0.663441 0.834543
v 0.124597 0.683871 0.865188
v 0.129704 0.681317 0.875403
v 0.134812 0.665995 0.885618
v 0.139920 0.678763 0.893280
v 0.145027 0.691532 0.895833
v 0.139920 0.699193 0.890726
v 0.134812 0.706855 0.875403
v 0.129704 0.724731 0.814113
v 0.119489 0.740054 0.793683
v 0.111828 0.770699 0.755376
v 0.119489 0.755376 0.788575
v 0.114382 0.780914 0.722178
v 0.116935 0.775806 0.683871
v 0.124597 0.747715 0.645565
v 0.127150 0.711962 0.625134
v 0.124597 0.678763 0.599597
v 0.132258 0.643011 0.594489
v 0.150135 0.627688 0.872850
v 0.127151 0.648118 0.860081
v 0.116936 0.650672 0.814113
v 0.106721 0.665994 0.796237
v 0.111828 0.655779 0.829436
v 0.122043 0.745161 0.796237
v 0.086290 0.579167 0.571505
v 0.070968 0.553629 0.607258
v 0.063307 0.535752 0.581721
v 0.050538 0.497446 0.589382
v 0.068414 0.515322 0.663441
v 0.078629 0.482123 0.706855
v 0.073522 0.459140 0.706855
v 0.083737 0.530645 0.699194
v 0.078629 0.543414 0.673656
v 0.093952 0.579167 0.620027
v 0.106720 0.602150 0.597043
v 0.116935 0.622581 0.561290
v 0.132258 0.632796 0.581721
v 0.063307 0.423387 0.714516
v 0.050538 0.438709 0.617473
v 0.063307 0.397849 0.719624
v 0.119489 0.482124 0.742608
v 0.114382 0.520430 0.734946
v 0.116936 0.459140 0.750269
v 0.091398 0.423387 0.750269
v 0.083737 0.418279 0.745161
v 0.065861 0.362097 0.701747
v 0.035215 0.367204 0.655780
v 0.091398 0.356989 0.553629
v 0.060753 0.441263 0.533199
v 0.060753 0.497446 0.528092
v 0.068414 0.533199 0.528092
v 0.083737 0.566398 0.528092
v 0.109274 0.614919 0.533199
v 0.091398 0.563844 0.479570
v 0.116935 0.597043 0.479570
v 0.083737 0.533199 0.479570
v 0.073522 0.497446 0.479570
v 0.070968 0.446371 0.487231
v 0.114382 0.367204 0.502554
v 0.104167 0.385080 0.433602
v 0.073522 0.448925 0.441264
v 0.070968 0.497446 0.443817
v 0.083736 0.533199 0.443817
v 0.096505 0.561290 0.443817
v 0.122043 0.584274 0.443817
v 0.042877 0.323790 0.655780
v 0.083737 0.334005 0.584274
v 0.053092 0.275269 0.650672
v 0.068414 0.293145 0.604704
v 0.058199 0.224193 0.607258
v 0.053092 0.226747 0.640457
v 0.058199 0.208871 0.607258
v 0.060753 0.124597 0.622581
v 0.055646 0.116935 0.607258
v 0.058199 0.083736 0.625135
v 0.060753 0.091398 0.604704
v 0.053092 0.073521 0.614919
v 0.053092 0.058199 0.620027
v 0.045431 0.065860 0.650672
v 0.042877 0.047984 0.648118
v 0.065861 0.053091 0.673656
v 0.060753 0.045430 0.673656
v 0.060753 0.459140 0.308468
v 0.047984 0.408064 0.265054
v 0.070968 0.500000 0.311022
v 0.078629 0.533199 0.311022
v 0.091398 0.558736 0.311022
v 0.124596 0.576613 0.311022
v 0.045430 0.464247 0.270161
v 0.055645 0.502554 0.252285
v 0.076075 0.538306 0.226747
v 0.101613 0.566398 0.254839
v 0.124596 0.584274 0.257393
v 0.096505 0.563844 0.188441
v 0.083736 0.522984 0.132258
v 0.060752 0.466801 0.142473
v 0.050537 0.410618 0.139920
v 0.032661 0.372312 0.229301
v 0.053091 0.369758 0.127151
v 0.030107 0.334005 0.190995
v 0.050537 0.336559 0.122043
v 0.032661 0.106720 0.042876
v 0.032661 0.096505 0.070968
v 0.035215 0.083736 0.050538
v 0.037769 0.213978 0.101613
v 0.037769 0.231855 0.076075
v 0.035215 0.275269 0.083737
v 0.032661 0.262500 0.124597
v 0.032661 0.083736 0.086291
v 0.027554 0.065860 0.055645
v 0.025000 0.060753 0.093952
v 0.027554 0.045430 0.055645
v 0.025000 0.045430 0.096506
v 0.027554 0.040322 0.068414
v 0.168011 0.648118 0.860081
v 0.155242 0.635349 0.890726
v 0.170565 0.635349 0.890726
v 0.155242 0.648118 0.860081
v 0.155242 0.612365 0.898387
v 0.170565 0.612365 0.898387
v 0.155242 0.607258 0.913710
v 0.168011 0.607258 0.913710
v 0.155242 0.620027 0.903495
v 0.168011 0.620027 0.903495
v 0.155242 0.640457 0.895833
v 0.168011 0.640457 0.895833
v 0.145027 0.650672 0.862634
v 0.178226 0.650672 0.862634
v 0.142473 0.650672 0.814113
v 0.180780 0.650672 0.814113
v 0.178226 0.640457 0.893280
v 0.180780 0.617473 0.900941
v 0.175672 0.612366 0.911156
v 0.180780 0.625134 0.900941
v 0.178226 0.643011 0.893280
v 0.150135 0.612365 0.911156
v 0.142473 0.617473 0.900941
v 0.142473 0.625134 0.900941
v 0.142473 0.640457 0.893280
v 0.142473 0.643011 0.893280
v 0.165457 0.691532 0.906048
v 0.147581 0.691532 0.906048
f 1 2 3
f 3 2 4
f 5 6 7
f 7 6 8
f 9 10 11
f 12 13 14
f 7 8 15
f 16 7 15
f 5 16 17
f 7 16 5
f 18 5 17
f 19 18 17
f 20 19 21
f 18 19 20
f 22 20 21
f 23 22 21
f 24 23 25
f 22 23 24
f 26 24 25
f 27 26 25
f 28 26 27
f 29 26 28
f 30 31 29
f 28 30 29
f 32 31 30
f 33 31 32
f 34 35 33
f 32 34 33
f 36 35 34
f 6 35 36
f 37 8 6
f 36 37 6
f 35 6 5
f 18 35 5
f 20 35 18
f 22 33 35
f 20 22 35
f 31 22 24
f 33 22 31
f 29 31 24
f 26 29 24
f 38 39 40
f 41 38 40
f 41 42 43
f 40 42 41
f 42 44 45
f 43 42 45
f 44 46 45
f 45 46 47
f 45 47 48
f 47 49 48
f 47 50 49
f 50 47 46
f 51 50 46
f 51 44 52
f 46 44 51
f 52 44 42
f 53 52 42
f 53 40 54
f 42 40 53
f 54 40 39
f 55 54 39
f 56 57 58
f 58 48 56
f 48 59 56
f 48 49 59
f 60 61 62
f 61 63 64
f 64 62 61
f 63 65 64
f 66 65 63
f 65 66 67
f 68 65 67
f 68 69 70
f 67 69 68
f 70 69 71
f 66 63 72
f 63 61 72
f 61 73 72
f 60 73 61
f 60 74 75
f 73 60 75
f 74 76 75
f 77 76 74
f 77 78 76
f 78 79 76
f 80 79 78
f 80 81 82
f 79 80 82
f 81 83 82
f 83 84 85
f 82 83 85
f 84 53 85
f 52 53 84
f 53 86 85
f 54 86 53
f 85 86 87
f 82 85 87
f 82 88 79
f 87 88 82
f 88 71 76
f 79 88 76
f 76 71 75
f 75 71 69
f 73 75 69
f 69 72 73
f 67 72 69
f 67 66 72
f 89 90 91
f 91 92 93
f 92 91 90
f 93 92 94
f 95 93 94
f 95 96 97
f 94 96 95
f 96 98 99
f 97 96 99
f 98 100 99
f 101 102 103
f 101 103 104
f 105 106 102
f 105 102 101
f 105 107 106
f 108 106 107
f 108 109 110
f 107 109 108
f 110 109 111
f 112 110 111
f 112 113 114
f 113 112 111
f 115 116 117
f 118 116 115
f 118 115 119
f 119 120 118
f 118 120 121
f 122 123 121
f 122 121 120
f 122 124 123
f 125 101 126
f 127 128 129
f 127 129 130
f 125 126 130
f 130 126 127
f 131 132 133
f 134 135 132
f 132 131 134
f 136 137 134
f 135 134 137
f 138 139 137
f 137 136 138
f 140 141 138
f 139 138 141
f 142 141 140
f 104 103 57
f 58 57 103
f 114 143 144
f 143 114 113
f 144 145 146
f 145 144 143
f 145 147 148
f 148 146 145
f 148 149 150
f 149 148 147
f 149 151 152
f 152 150 149
f 151 153 154
f 154 152 151
f 154 155 156
f 155 154 153
f 157 158 155
f 158 156 155
f 159 158 157
f 55 160 161
f 160 55 162
f 160 163 164
f 164 161 160
f 164 165 166
f 165 164 163
f 166 165 167
f 168 169 170
f 170 171 172
f 171 170 169
f 171 173 174
f 174 172 171
f 174 175 176
f 175 174 173
f 175 177 178
f 178 176 175
f 178 179 180
f 179 178 177
f 181 182 183
f 182 181 184
f 185 186 187
f 186 188 189
f 189 187 186
f 189 190 191
f 190 189 188
f 190 192 193
f 193 191 190
f 193 194 195
f 194 193 192
f 194 196 197
f 197 195 194
f 197 198 199
f 198 197 196
f 198 200 201
f 201 199 198
f 200 202 203
f 203 201 200
f 202 204 205
f 205 203 202
f 205 206 207
f 206 205 204
f 208 209 210
f 209 208 211
f 209 212 213
f 213 210 209
f 213 214 215
f 214 213 212
f 215 214 216
f 126 101 217
f 217 101 104
f 217 104 57
f 217 57 218
f 219 218 56
f 56 218 57
f 128 127 220
f 109 128 220
f 111 109 221
f 221 109 220
f 111 221 222
f 113 111 222
f 9 223 224
f 225 223 9
f 226 225 9
f 11 226 9
f 227 11 228
f 226 11 227
f 229 227 228
f 230 229 228
f 231 229 230
f 216 229 231
f 232 215 216
f 231 232 216
f 233 215 232
f 213 215 233
f 234 210 213
f 233 234 213
f 235 210 234
f 208 210 235
f 127 126 236
f 127 236 220
f 221 220 237
f 237 220 236
f 238 221 237
f 221 238 222
f 239 224 222
f 238 239 222
f 10 9 224
f 239 10 224
f 228 11 10
f 240 228 10
f 240 239 238
f 10 239 240
f 241 242 240
f 238 241 240
f 230 240 242
f 228 240 230
f 237 243 241
f 238 237 241
f 236 243 237
f 243 236 244
f 244 236 126
f 245 231 230
f 242 245 230
f 246 242 241
f 245 242 246
f 247 246 241
f 243 247 241
f 244 247 243
f 247 244 248
f 217 248 126
f 126 248 244
f 49 219 59
f 59 219 56
f 249 51 250
f 50 51 249
f 251 252 249
f 250 251 249
f 253 251 55
f 252 251 253
f 161 254 253
f 55 161 253
f 255 161 164
f 254 161 255
f 166 256 255
f 164 166 255
f 49 50 257
f 49 257 219
f 249 257 50
f 258 232 231
f 245 258 231
f 259 245 246
f 258 245 259
f 260 259 246
f 247 260 246
f 248 260 247
f 260 248 261
f 218 261 217
f 217 261 248
f 218 219 262
f 218 262 261
f 260 261 263
f 263 261 262
f 264 260 263
f 259 260 264
f 265 258 259
f 264 265 259
f 265 232 258
f 233 232 265
f 266 234 233
f 265 266 233
f 267 265 264
f 266 265 267
f 268 267 263
f 263 267 264
f 268 263 262
f 268 262 269
f 257 269 219
f 219 269 262
f 252 257 249
f 257 252 269
f 270 253 254
f 252 253 270
f 271 270 254
f 255 271 254
f 272 255 256
f 271 255 272
f 273 274 272
f 256 273 272
f 167 256 166
f 273 256 167
f 252 270 269
f 269 270 271
f 269 271 268
f 275 235 234
f 266 275 234
f 266 276 277
f 266 277 275
f 277 276 278
f 278 276 279
f 279 272 274
f 279 274 278
f 279 271 272
f 271 279 268
f 267 268 276
f 276 268 279
f 267 276 266
f 280 207 281
f 205 207 280
f 203 205 280
f 282 203 280
f 283 203 282
f 201 203 283
f 199 201 283
f 284 199 283
f 197 284 285
f 199 284 197
f 286 195 197
f 285 286 197
f 287 195 286
f 193 195 287
f 191 193 287
f 288 191 287
f 189 288 289
f 191 288 189
f 290 187 189
f 289 290 189
f 291 187 290
f 185 187 291
f 292 293 185
f 291 292 185
f 294 183 295
f 181 183 294
f 296 297 181
f 294 296 181
f 298 297 296
f 299 297 298
f 300 299 298
f 299 300 301
f 302 303 299
f 301 302 299
f 304 303 302
f 305 303 304
f 306 180 305
f 304 306 305
f 307 180 306
f 308 307 306
f 178 308 309
f 307 308 178
f 176 178 309
f 310 176 309
f 174 310 311
f 176 310 174
f 312 172 174
f 311 312 174
f 313 172 312
f 170 172 313
f 314 168 170
f 313 314 170
f 315 168 314
f 316 315 314
f 317 280 281
f 318 317 281
f 319 280 317
f 282 280 319
f 320 283 282
f 319 320 282
f 321 283 320
f 284 283 321
f 322 285 284
f 321 322 284
f 323 285 322
f 286 285 323
f 324 287 286
f 323 324 286
f 325 289 326
f 290 289 325
f 327 291 290
f 325 327 290
f 328 291 327
f 292 291 328
f 329 292 328
f 295 329 328
f 328 294 295
f 296 328 327
f 294 328 296
f 325 298 296
f 327 325 296
f 304 308 306
f 309 308 304
f 310 309 304
f 302 310 304
f 311 302 301
f 310 302 311
f 330 318 331
f 317 318 330
f 332 319 317
f 330 332 317
f 320 332 333
f 319 332 320
f 321 320 333
f 322 321 333
f 334 335 316
f 314 334 316
f 313 334 314
f 336 334 313
f 312 336 313
f 337 312 311
f 336 312 337
f 301 338 337
f 311 301 337
f 300 338 301
f 339 338 300
f 300 298 325
f 340 300 325
f 339 300 340
f 334 341 335
f 330 331 341
f 334 330 341
f 336 330 334
f 332 330 336
f 337 332 336
f 338 332 337
f 339 332 338
f 339 340 333
f 332 339 333
f 342 340 325
f 326 342 325
f 343 342 326
f 344 342 343
f 324 344 343
f 342 333 340
f 322 333 342
f 323 342 344
f 322 342 323
f 324 323 344
f 345 113 222
f 346 113 345
f 224 347 345
f 222 224 345
f 143 346 348
f 113 346 143
f 349 145 143
f 348 349 143
f 147 349 350
f 145 349 147
f 149 147 350
f 351 149 350
f 151 351 352
f 149 351 151
f 153 151 352
f 353 153 352
f 354 153 353
f 155 153 354
f 355 157 155
f 354 355 155
f 356 157 355
f 357 157 356
f 358 359 357
f 356 358 357
f 360 359 358
f 361 346 345
f 348 346 361
f 361 345 347
f 347 223 362
f 224 223 347
f 361 347 362
f 363 361 362
f 364 361 363
f 365 361 364
f 366 367 365
f 364 366 365
f 368 366 369
f 367 366 368
f 370 354 368
f 369 370 368
f 356 360 358
f 371 360 356
f 355 372 371
f 356 355 371
f 370 355 354
f 372 355 370
f 368 354 353
f 352 368 353
f 351 367 368
f 352 351 368
f 350 367 351
f 365 367 350
f 349 365 350
f 361 349 348
f 365 349 361
f 373 105 101
f 373 374 105
f 105 374 129
f 375 376 374
f 375 374 373
f 375 377 376
f 376 377 378
f 379 375 101
f 101 375 373
f 380 377 375
f 380 375 379
f 377 381 378
f 377 382 381
f 381 382 383
f 382 384 383
f 382 385 384
f 384 385 386
f 387 388 386
f 387 386 385
f 389 390 387
f 387 390 388
f 389 391 390
f 392 117 389
f 389 117 391
f 115 117 392
f 115 392 119
f 380 393 377
f 377 393 382
f 394 385 382
f 394 382 393
f 394 124 385
f 385 124 387
f 122 389 387
f 122 387 124
f 120 392 122
f 122 392 389
f 119 392 120
f 129 107 105
f 107 129 128
f 109 107 128
f 109 111 128
f 102 106 395
f 106 108 396
f 108 397 396
f 110 397 108
f 397 110 112
f 55 398 54
f 251 398 55
f 398 251 250
f 399 398 250
f 399 51 52
f 250 51 399
f 95 97 400
f 400 97 99
f 401 400 99
f 99 402 401
f 100 402 99
f 402 100 403
f 403 404 405
f 100 404 403
f 405 404 406
f 407 405 406
f 406 408 407
f 409 408 406
f 408 409 43
f 45 408 43
f 48 410 45
f 45 411 408
f 410 411 45
f 408 411 412
f 407 408 412
f 412 405 407
f 413 405 412
f 405 413 414
f 403 405 414
f 414 415 403
f 403 415 89
f 402 403 89
f 89 401 402
f 91 401 89
f 401 91 93
f 400 401 93
f 93 95 400
f 416 417 418
f 416 419 417
f 417 419 420
f 137 421 422
f 137 422 135
f 137 139 421
f 421 139 423
f 141 424 423
f 141 423 139
f 141 142 424
f 424 142 425
f 416 418 425
f 416 425 142
f 395 106 420
f 395 420 419
f 420 106 396
f 420 396 426
f 426 427 420
f 420 427 417
f 418 417 427
f 418 427 428
f 428 429 418
f 418 429 425
f 430 424 425
f 430 425 429
f 430 431 424
f 424 431 423
f 432 421 423
f 432 423 431
f 133 422 432
f 432 422 421
f 132 135 422
f 132 422 133
f 433 434 435
f 436 434 433
f 435 434 437
f 438 435 437
f 437 439 438
f 440 439 437
f 440 441 439
f 439 4 2
f 441 4 439
f 442 2 1
f 443 2 442
f 443 444 439
f 2 443 439
f 444 438 439
f 445 438 444
f 445 446 435
f 438 445 435
f 446 433 435
f 447 433 446
f 447 448 436
f 433 447 436
f 436 449 434
f 448 449 436
f 434 449 450
f 437 434 450
f 437 451 440
f 450 451 437
f 440 451 452
f 441 440 452
f 441 453 4
f 452 453 441
f 4 453 454
f 3 4 454
f 3 455 1
f 454 455 3
f 399 456 457
f 398 399 457
f 457 458 459
f 456 458 457
f 458 460 459
f 459 461 462
f 460 461 459
f 461 463 462
f 463 464 462
f 465 464 463
f 465 466 464
f 464 467 468
f 466 467 464
f 468 467 469
f 470 468 469
f 470 471 472
f 469 471 470
f 399 52 84
f 456 399 84
f 84 458 456
f 83 458 84
f 83 81 460
f 458 83 460
f 460 80 461
f 81 80 460
f 80 78 463
f 461 80 463
f 78 465 463
f 77 465 78
f 465 77 74
f 466 465 74
f 466 60 467
f 74 60 466
f 467 60 62
f 469 467 62
f 469 64 471
f 62 64 469
f 64 65 472
f 471 64 472
f 472 68 470
f 65 68 472
f 470 68 70
f 468 470 70
f 70 464 468
f 71 464 70
f 464 71 88
f 462 464 88
f 462 87 459
f 88 87 462
f 87 86 457
f 459 87 457
f 86 398 457
f 54 398 86
f 473 474 130
f 130 474 125
f 475 476 474
f 475 474 473
f 477 476 475
f 478 479 476
f 478 476 477
f 480 479 478
f 481 482 479
f 481 479 480
f 483 482 481
f 484 482 483
f 484 483 485
f 485 486 484
f 484 486 487
f 488 487 486
f 489 490 488
f 488 490 487
f 491 492 490
f 491 490 489
f 374 473 130
f 374 130 129
f 374 376 473
f 473 376 475
f 378 477 475
f 378 475 376
f 378 381 477
f 477 381 478
f 383 480 478
f 383 478 381
f 383 384 480
f 480 384 481
f 483 481 384
f 483 384 386
f 388 485 386
f 386 485 483
f 390 486 485
f 390 485 388
f 390 391 486
f 486 391 488
f 117 489 488
f 117 488 391
f 116 491 117
f 117 491 489
f 118 492 491
f 491 116 118
f 118 121 492
f 492 121 490
f 487 490 121
f 487 121 123
f 124 484 123
f 123 484 487
f 482 484 124
f 482 124 394
f 394 393 482
f 482 393 479
f 476 479 393
f 476 393 380
f 379 474 380
f 380 474 476
f 125 474 379
f 125 379 101
f 493 494 495
f 496 493 495
f 496 497 498
f 495 497 496
f 497 499 498
f 499 500 498
f 501 500 499
f 501 502 500
f 500 502 503
f 370 503 159
f 372 370 159
f 372 504 371
f 159 504 372
f 371 504 505
f 360 371 505
f 503 369 500
f 370 369 503
f 500 369 366
f 498 500 366
f 498 364 496
f 366 364 498
f 496 364 363
f 493 496 363
f 493 362 506
f 363 362 493
f 506 362 223
f 507 506 223
f 493 506 508
f 493 508 509
f 494 493 509
f 360 505 359
f 505 357 359
f 504 357 505
f 504 159 158
f 357 504 158
f 159 156 158
f 503 156 159
f 503 502 154
f 156 503 154
f 154 501 152
f 502 501 154
f 152 501 499
f 150 152 499
f 150 497 148
f 499 497 150
f 497 495 146
f 148 497 146
f 495 144 146
f 494 144 495
f 144 494 509
f 114 144 509
f 507 508 506
f 510 508 507
f 508 510 114
f 509 508 114
f 511 512 513
f 513 512 514
f 515 513 514
f 514 516 517
f 515 514 517
f 511 518 512
f 518 519 514
f 512 518 514
f 514 520 516
f 519 520 514
f 521 517 516
f 522 517 521
f 521 523 522
f 523 524 522
f 522 525 526
f 524 525 522
f 525 527 526
f 526 528 529
f 527 528 526
f 527 530 528
f 516 520 531
f 521 516 531
f 531 520 532
f 531 533 523
f 521 531 523
f 533 524 523
f 534 524 533
f 524 534 535
f 525 524 535
f 525 536 527
f 535 536 525
f 536 537 527
f 527 538 530
f 537 538 527
f 539 517 540
f 515 517 539
f 540 517 522
f 541 540 522
f 522 542 541
f 526 542 522
f 526 529 543
f 542 526 543
f 534 533 544
f 545 534 544
f 545 546 547
f 544 546 545
f 546 548 549
f 547 546 549
f 520 550 532
f 551 550 520
f 550 551 552
f 553 550 552
f 552 554 553
f 555 552 556
f 554 552 555
f 552 551 557
f 556 552 557
f 551 558 557
f 520 558 551
f 520 519 559
f 558 520 559
f 511 560 561
f 513 560 511
f 513 515 562
f 560 513 562
f 515 563 562
f 539 563 515
f 539 540 564
f 563 539 564
f 540 565 564
f 541 565 540
f 541 542 566
f 565 541 566
f 542 567 566
f 543 567 542
f 315 537 168
f 538 537 315
f 537 169 168
f 536 169 537
f 536 535 171
f 169 536 171
f 535 173 171
f 534 173 535
f 173 534 545
f 175 173 545
f 175 547 177
f 545 547 175
f 177 547 549
f 568 177 549
f 568 548 179
f 549 548 568
f 548 569 179
f 546 569 548
f 546 544 570
f 569 546 570
f 544 571 570
f 533 571 544
f 571 533 531
f 531 532 571
f 532 550 572
f 571 532 572
f 550 184 572
f 553 184 550
f 553 554 182
f 184 553 182
f 556 185 293
f 557 185 556
f 557 558 186
f 185 557 186
f 558 188 186
f 559 188 558
f 188 559 573
f 190 188 573
f 190 561 192
f 573 561 190
f 561 560 194
f 192 561 194
f 194 562 196
f 560 562 194
f 196 562 563
f 198 196 563
f 198 564 200
f 563 564 198
f 564 565 202
f 200 564 202
f 202 566 204
f 565 566 202
f 566 567 206
f 204 566 206
f 574 575 576
f 575 577 576
f 578 577 575
f 578 579 580
f 577 578 580
f 581 579 578
f 582 581 578
f 582 575 583
f 578 575 582
f 583 575 574
f 584 583 574
f 584 585 586
f 574 585 584
f 580 587 588
f 577 580 588
f 588 587 589
f 167 165 590
f 591 167 590
f 591 579 581
f 590 579 591
f 579 590 592
f 580 579 592
f 580 593 587
f 592 593 580
f 587 593 594
f 589 587 594
f 589 595 596
f 588 589 596
f 597 588 596
f 598 588 597
f 598 599 577
f 588 598 577
f 576 577 599
f 576 599 600
f 600 601 576
f 574 576 601
f 574 602 585
f 601 602 574
f 601 603 604
f 602 601 604
f 605 603 601
f 605 601 600
f 599 606 600
f 600 606 605
f 607 606 599
f 607 599 598
f 598 597 608
f 598 608 607
f 607 608 609
f 607 609 610
f 611 606 610
f 610 606 607
f 612 605 606
f 612 606 611
f 612 613 605
f 603 605 613
f 603 614 604
f 613 614 603
f 595 615 596
f 596 615 616
f 597 596 616
f 615 617 618
f 616 615 618
f 617 619 618
f 620 619 617
f 619 620 621
f 621 622 623
f 620 622 621
f 623 624 625
f 622 624 623
f 626 624 627
f 625 624 626
f 627 628 629
f 624 628 627
f 629 628 630
f 631 629 630
f 165 592 590
f 163 592 165
f 592 163 160
f 593 592 160
f 593 162 594
f 160 162 593
f 594 162 38
f 589 594 38
f 38 595 589
f 41 595 38
f 595 41 43
f 615 595 43
f 43 617 615
f 409 617 43
f 617 409 406
f 620 617 406
f 620 404 622
f 406 404 620
f 404 100 624
f 624 622 404
f 624 98 628
f 100 98 624
f 98 96 630
f 628 98 630
f 96 631 630
f 94 631 96
f 631 94 92
f 629 631 92
f 92 627 629
f 90 627 92
f 627 90 89
f 626 627 89
f 89 625 626
f 415 625 89
f 625 415 414
f 623 625 414
f 623 413 621
f 414 413 623
f 621 413 412
f 619 621 412
f 412 618 619
f 411 618 412
f 411 410 616
f 618 411 616
f 410 597 616
f 597 410 48
f 632 610 609
f 632 609 633
f 632 634 610
f 610 634 611
f 612 611 634
f 612 634 635
f 635 636 612
f 613 612 636
f 613 637 614
f 636 637 613
f 638 632 633
f 639 634 638
f 638 634 632
f 635 634 639
f 635 639 640
f 637 636 641
f 642 637 641
f 635 641 636
f 641 635 640
f 641 640 643
f 12 641 643
f 642 12 14
f 641 12 642
f 12 507 13
f 643 507 12
f 643 510 507
f 640 510 643
f 640 639 644
f 510 640 644
f 639 645 644
f 645 639 638
f 638 633 645
f 645 633 646
f 586 585 209
f 211 586 209
f 585 212 209
f 602 212 585
f 602 604 214
f 212 602 214
f 604 216 214
f 614 216 604
f 614 637 229
f 216 614 229
f 229 642 227
f 637 642 229
f 227 642 14
f 226 227 14
f 226 13 225
f 14 13 226
f 13 507 223
f 225 13 223
f 510 644 112
f 114 510 112
f 644 397 112
f 645 397 644
f 645 646 396
f 397 645 396
f 633 647 646
f 646 647 648
f 649 650 648
f 649 648 647
f 651 652 653
f 654 652 651
f 654 651 655
f 656 657 655
f 655 657 654
f 650 649 657
f 650 657 656
f 652 658 653
f 653 658 659
f 660 661 659
f 660 659 658
f 662 663 660
f 660 663 661
f 608 597 48
f 608 48 58
f 103 609 58
f 58 609 608
f 102 633 609
f 102 609 103
f 102 395 633
f 633 395 647
f 419 649 647
f 419 647 395
f 419 416 649
f 649 416 657
f 654 657 416
f 654 416 142
f 142 140 654
f 654 140 652
f 658 652 140
f 658 140 138
f 136 660 138
f 138 660 658
f 662 660 136
f 662 136 134
f 131 663 134
f 134 663 662
f 661 663 131
f 661 131 133
f 133 432 661
f 661 432 659
f 431 653 659
f 431 659 432
f 430 651 431
f 431 651 653
f 655 651 430
f 655 430 429
f 428 656 429
f 429 656 655
f 427 650 656
f 427 656 428
f 427 426 650
f 650 426 648
f 646 648 426
f 646 426 396
f 664 665 666
f 665 664 667
f 665 668 669
f 669 666 665
f 669 670 671
f 670 669 668
f 670 672 673
f 673 671 670
f 673 674 675
f 674 673 672
f 674 676 677
f 677 675 674
f 677 678 679
f 678 677 676
f 664 677 679
f 666 677 664
f 680 677 666
f 681 680 666
f 669 681 666
f 682 669 671
f 681 669 682
f 673 683 682
f 671 673 682
f 675 683 673
f 684 683 675
f 677 684 675
f 680 684 677
f 683 680 681
f 684 680 683
f 682 683 681
f 180 569 305
f 569 180 179
f 569 570 303
f 303 305 569
f 303 571 299
f 571 303 570
f 685 686 687
f 687 686 688
f 689 687 688
f 688 676 689
f 676 674 689
f 674 672 687
f 689 674 687
f 672 685 687
f 670 685 672
f 685 670 668
f 686 685 668
f 686 665 688
f 668 665 686
f 665 667 676
f 688 665 676
f 667 678 676
f 293 690 691
f 690 183 182
f 182 691 690
f 329 293 292
f 690 293 329
f 183 690 329
f 295 183 329
f 182 555 691
f 554 555 182
f 555 556 293
f 691 555 293
f 343 326 324
f 326 289 287
f 324 326 287
f 289 288 287
f 559 561 573
f 519 511 561
f 519 561 559
f 518 511 519
f 206 211 208
f 208 207 206
f 281 207 208
f 235 281 208
f 318 235 275
f 281 235 318
f 331 318 275
f 277 331 275
f 278 331 277
f 341 331 278
f 335 341 278
f 274 335 278
f 316 274 273
f 335 274 316
f 167 315 316
f 273 167 316
f 167 538 315
f 591 538 167
f 538 591 581
f 530 538 581
f 530 582 528
f 581 582 530
f 582 583 529
f 528 582 529
f 529 584 543
f 583 584 529
f 543 584 586
f 567 543 586
f 567 211 206
f 586 211 567
