# Original shape: m865.obj
# No processing applied - exact copy of source file
# Generated on 2025-10-03 22:47:54

v 0.722939 0.974994 0.256579
v 0.722858 0.974994 0.256992
v 0.722875 0.025001 0.256992
v 0.722957 0.025001 0.256579
v 0.722623 0.974994 0.257341
v 0.722643 0.025001 0.257341
v 0.722274 0.974994 0.257575
v 0.722292 0.025001 0.257575
v 0.721861 0.974994 0.257657
v 0.721881 0.025001 0.257657
v 0.703633 0.974994 0.256992
v 0.703552 0.974994 0.256579
v 0.703569 0.025000 0.256579
v 0.703651 0.025000 0.256992
v 0.703866 0.974994 0.257341
v 0.703885 0.025000 0.257341
v 0.704217 0.974994 0.257575
v 0.704234 0.025000 0.257575
v 0.704628 0.974994 0.257657
v 0.704647 0.025000 0.257657
v 0.703570 0.025000 0.025014
v 0.722957 0.025001 0.025014
v 0.722940 0.974977 0.025014
v 0.703552 0.974977 0.025014
v 0.703552 0.974977 0.256579
v 0.722939 0.974977 0.256579
v 0.722623 0.974977 0.257341
v 0.722858 0.974977 0.256992
v 0.722274 0.974977 0.257575
v 0.721861 0.974977 0.257657
v 0.704628 0.974977 0.257657
v 0.704217 0.974977 0.257575
v 0.703866 0.974977 0.257341
v 0.703633 0.974977 0.256992
v 0.044388 0.974994 0.256578
v 0.044306 0.974994 0.256990
v 0.044324 0.025001 0.256990
v 0.044405 0.025001 0.256578
v 0.044072 0.974994 0.257339
v 0.044091 0.025001 0.257339
v 0.043723 0.974994 0.257573
v 0.043740 0.025001 0.257573
v 0.043310 0.974994 0.257655
v 0.043329 0.025001 0.257655
v 0.025081 0.974994 0.256990
v 0.025000 0.974994 0.256578
v 0.025017 0.025000 0.256578
v 0.025099 0.025000 0.256990
v 0.025314 0.974994 0.257339
v 0.025333 0.025000 0.257339
v 0.025665 0.974994 0.257573
v 0.025682 0.025000 0.257573
v 0.026076 0.974994 0.257655
v 0.026095 0.025000 0.257655
v 0.025018 0.025000 0.025012
v 0.044406 0.025001 0.025012
v 0.044388 0.974977 0.025012
v 0.025001 0.974977 0.025012
v 0.025000 0.974977 0.256578
v 0.044388 0.974977 0.256578
v 0.044072 0.974977 0.257339
v 0.044306 0.974977 0.256990
v 0.043723 0.974977 0.257573
v 0.043310 0.974977 0.257655
v 0.026076 0.974977 0.257655
v 0.025665 0.974977 0.257573
v 0.025314 0.974977 0.257339
v 0.025081 0.974977 0.256990
v 0.044397 0.083172 0.256565
v 0.044397 0.083090 0.256977
v 0.703569 0.083090 0.256979
v 0.703569 0.083172 0.256567
v 0.044397 0.082857 0.257327
v 0.703569 0.082857 0.257329
v 0.044397 0.082507 0.257560
v 0.703569 0.082507 0.257562
v 0.044397 0.082095 0.257642
v 0.703569 0.082095 0.257644
v 0.044397 0.063866 0.256977
v 0.044397 0.063784 0.256565
v 0.703569 0.063784 0.256567
v 0.703569 0.063866 0.256979
v 0.044397 0.064100 0.257327
v 0.703569 0.064100 0.257329
v 0.044397 0.064449 0.257560
v 0.703569 0.064449 0.257562
v 0.044397 0.064861 0.257642
v 0.703569 0.064861 0.257644
v 0.703570 0.063784 0.025002
v 0.703570 0.083172 0.025002
v 0.044406 0.083172 0.025000
v 0.044406 0.063784 0.025000
v 0.044405 0.063784 0.256565
v 0.044405 0.083172 0.256565
v 0.044405 0.082857 0.257327
v 0.044405 0.083090 0.256977
v 0.044405 0.082507 0.257560
v 0.044405 0.082095 0.257642
v 0.044405 0.064861 0.257642
v 0.044405 0.064449 0.257560
v 0.044405 0.064100 0.257327
v 0.044405 0.063866 0.256977
v 0.044397 0.063784 0.256565
v 0.044406 0.063784 0.025000
v 0.703570 0.063784 0.025002
v 0.703569 0.063784 0.256567
v 0.044397 0.306128 0.256565
v 0.044397 0.306047 0.256977
v 0.703569 0.306047 0.256979
v 0.703569 0.306128 0.256567
v 0.044397 0.305814 0.257327
v 0.703569 0.305814 0.257329
v 0.044397 0.305463 0.257560
v 0.703569 0.305463 0.257562
v 0.044397 0.305052 0.257642
v 0.703569 0.305052 0.257644
v 0.044397 0.286824 0.256977
v 0.044397 0.286741 0.256565
v 0.703569 0.286741 0.256567
v 0.703569 0.286824 0.256979
v 0.044397 0.287057 0.257327
v 0.703569 0.287057 0.257329
v 0.044397 0.287406 0.257560
v 0.703569 0.287406 0.257562
v 0.044397 0.287819 0.257642
v 0.703569 0.287819 0.257644
v 0.703570 0.286741 0.025002
v 0.703570 0.306128 0.025002
v 0.044406 0.306128 0.025000
v 0.044406 0.286741 0.025000
v 0.044405 0.286741 0.256565
v 0.044405 0.306128 0.256565
v 0.044405 0.305814 0.257327
v 0.044405 0.306047 0.256977
v 0.044405 0.305463 0.257560
v 0.044405 0.305052 0.257642
v 0.044405 0.287819 0.257642
v 0.044405 0.287406 0.257560
v 0.044405 0.287057 0.257327
v 0.044405 0.286824 0.256977
v 0.044397 0.529086 0.256565
v 0.044397 0.529004 0.256977
v 0.703569 0.529004 0.256979
v 0.703569 0.529086 0.256567
v 0.044397 0.528772 0.257327
v 0.703569 0.528772 0.257329
v 0.044397 0.528421 0.257560
v 0.703569 0.528421 0.257562
v 0.044397 0.528010 0.257642
v 0.703569 0.528010 0.257644
v 0.044397 0.509781 0.256977
v 0.044397 0.509698 0.256565
v 0.703569 0.509698 0.256567
v 0.703569 0.509781 0.256979
v 0.044397 0.510014 0.257327
v 0.703569 0.510014 0.257329
v 0.044397 0.510363 0.257560
v 0.703569 0.510363 0.257562
v 0.044397 0.510776 0.257642
v 0.703569 0.510776 0.257644
v 0.703570 0.509698 0.025002
v 0.703570 0.529086 0.025002
v 0.044406 0.529086 0.025000
v 0.044406 0.509698 0.025000
v 0.044405 0.509698 0.256565
v 0.044405 0.529086 0.256565
v 0.044405 0.528772 0.257327
v 0.044405 0.529004 0.256977
v 0.044405 0.528421 0.257560
v 0.044405 0.528010 0.257642
v 0.044405 0.510776 0.257642
v 0.044405 0.510363 0.257560
v 0.044405 0.510014 0.257327
v 0.044405 0.509781 0.256977
v 0.044397 0.752043 0.256565
v 0.044397 0.751961 0.256977
v 0.703569 0.751961 0.256979
v 0.703569 0.752043 0.256567
v 0.044397 0.751729 0.257327
v 0.703569 0.751729 0.257329
v 0.044397 0.751378 0.257560
v 0.703569 0.751378 0.257562
v 0.044397 0.750967 0.257642
v 0.703569 0.750967 0.257644
v 0.044397 0.732739 0.256977
v 0.044397 0.732655 0.256565
v 0.703569 0.732655 0.256567
v 0.703569 0.732739 0.256979
v 0.044397 0.732971 0.257327
v 0.703569 0.732971 0.257329
v 0.044397 0.733320 0.257560
v 0.703569 0.733320 0.257562
v 0.044397 0.733733 0.257642
v 0.703569 0.733733 0.257644
v 0.703570 0.732655 0.025002
v 0.703570 0.752043 0.025002
v 0.044406 0.752043 0.025000
v 0.044406 0.732655 0.025000
v 0.044405 0.732655 0.256565
v 0.044405 0.752043 0.256565
v 0.044405 0.751729 0.257327
v 0.044405 0.751961 0.256977
v 0.044405 0.751378 0.257560
v 0.044405 0.750967 0.257642
v 0.044405 0.733733 0.257642
v 0.044405 0.733320 0.257560
v 0.044405 0.732971 0.257327
v 0.044405 0.732739 0.256977
v 0.044397 0.975000 0.256565
v 0.044397 0.974919 0.256977
v 0.703569 0.974919 0.256979
v 0.703569 0.975000 0.256567
v 0.044397 0.974686 0.257327
v 0.703569 0.974686 0.257329
v 0.044397 0.974335 0.257560
v 0.703569 0.974335 0.257562
v 0.044397 0.973924 0.257642
v 0.703569 0.973924 0.257644
v 0.044397 0.955696 0.256977
v 0.044397 0.955612 0.256565
v 0.703569 0.955612 0.256567
v 0.703569 0.955696 0.256979
v 0.044397 0.955928 0.257327
v 0.703569 0.955928 0.257329
v 0.044397 0.956277 0.257560
v 0.703569 0.956277 0.257562
v 0.044397 0.956690 0.257642
v 0.703569 0.956690 0.257644
v 0.703570 0.955612 0.025002
v 0.703570 0.975000 0.025002
v 0.044406 0.975000 0.025000
v 0.044406 0.955612 0.025000
v 0.044405 0.955612 0.256565
v 0.044405 0.975000 0.256565
v 0.044405 0.974686 0.257327
v 0.044405 0.974919 0.256977
v 0.044405 0.974335 0.257560
v 0.044405 0.973924 0.257642
v 0.044405 0.956690 0.257642
v 0.044405 0.956277 0.257560
v 0.044405 0.955928 0.257327
v 0.044405 0.955696 0.256977
v 0.703569 0.025028 0.226581
v 0.703569 0.025027 0.207193
v 0.703569 0.063770 0.207175
v 0.703569 0.063771 0.226563
v 0.044405 0.025027 0.207191
v 0.044405 0.025028 0.226579
v 0.044405 0.063771 0.226561
v 0.044405 0.063770 0.207173
v 0.044397 0.063770 0.207173
v 0.044397 0.063771 0.226561
v 0.044405 0.025028 0.226579
v 0.703569 0.025028 0.226581
v 0.703569 0.063771 0.226562
f 1 2 3
f 4 1 3
f 2 5 6
f 3 2 6
f 5 7 8
f 6 5 8
f 7 9 10
f 8 7 10
f 11 12 13
f 14 11 13
f 15 11 14
f 16 15 14
f 17 15 16
f 18 17 16
f 19 17 18
f 20 19 18
f 9 19 20
f 10 9 20
f 21 22 4
f 13 21 4
f 18 16 14
f 20 18 14
f 10 20 14
f 8 10 14
f 6 8 14
f 3 6 14
f 4 3 14
f 13 4 14
f 23 24 25
f 26 23 25
f 27 28 26
f 29 27 26
f 30 29 26
f 31 30 26
f 32 31 26
f 33 32 26
f 34 33 26
f 25 34 26
f 22 23 1
f 4 22 1
f 12 24 21
f 13 12 21
f 22 21 24
f 23 22 24
f 35 36 37
f 38 35 37
f 36 39 40
f 37 36 40
f 39 41 42
f 40 39 42
f 41 43 44
f 42 41 44
f 45 46 47
f 48 45 47
f 49 45 48
f 50 49 48
f 51 49 50
f 52 51 50
f 53 51 52
f 54 53 52
f 43 53 54
f 44 43 54
f 55 56 38
f 47 55 38
f 52 50 48
f 54 52 48
f 44 54 48
f 42 44 48
f 40 42 48
f 37 40 48
f 38 37 48
f 47 38 48
f 57 58 59
f 60 57 59
f 61 62 60
f 63 61 60
f 64 63 60
f 65 64 60
f 66 65 60
f 67 66 60
f 68 67 60
f 59 68 60
f 56 57 35
f 38 56 35
f 46 58 55
f 47 46 55
f 56 55 58
f 57 56 58
f 69 70 71
f 72 69 71
f 70 73 74
f 71 70 74
f 73 75 76
f 74 73 76
f 75 77 78
f 76 75 78
f 79 80 81
f 82 79 81
f 83 79 82
f 84 83 82
f 85 83 84
f 86 85 84
f 87 85 86
f 88 87 86
f 77 87 88
f 78 77 88
f 89 90 72
f 81 89 72
f 86 84 82
f 88 86 82
f 78 88 82
f 76 78 82
f 74 76 82
f 71 74 82
f 72 71 82
f 81 72 82
f 91 92 93
f 94 91 93
f 95 96 94
f 97 95 94
f 98 97 94
f 99 98 94
f 100 99 94
f 101 100 94
f 102 101 94
f 93 102 94
f 90 91 69
f 72 90 69
f 103 104 105
f 106 103 105
f 90 89 92
f 91 90 92
f 107 108 109
f 110 107 109
f 108 111 112
f 109 108 112
f 111 113 114
f 112 111 114
f 113 115 116
f 114 113 116
f 117 118 119
f 120 117 119
f 121 117 120
f 122 121 120
f 123 121 122
f 124 123 122
f 125 123 124
f 126 125 124
f 115 125 126
f 116 115 126
f 127 128 110
f 119 127 110
f 124 122 120
f 126 124 120
f 116 126 120
f 114 116 120
f 112 114 120
f 109 112 120
f 110 109 120
f 119 110 120
f 129 130 131
f 132 129 131
f 133 134 132
f 135 133 132
f 136 135 132
f 137 136 132
f 138 137 132
f 139 138 132
f 140 139 132
f 131 140 132
f 128 129 107
f 110 128 107
f 118 130 127
f 119 118 127
f 128 127 130
f 129 128 130
f 141 142 143
f 144 141 143
f 142 145 146
f 143 142 146
f 145 147 148
f 146 145 148
f 147 149 150
f 148 147 150
f 151 152 153
f 154 151 153
f 155 151 154
f 156 155 154
f 157 155 156
f 158 157 156
f 159 157 158
f 160 159 158
f 149 159 160
f 150 149 160
f 161 162 144
f 153 161 144
f 158 156 154
f 160 158 154
f 150 160 154
f 148 150 154
f 146 148 154
f 143 146 154
f 144 143 154
f 153 144 154
f 163 164 165
f 166 163 165
f 167 168 166
f 169 167 166
f 170 169 166
f 171 170 166
f 172 171 166
f 173 172 166
f 174 173 166
f 165 174 166
f 162 163 141
f 144 162 141
f 152 164 161
f 153 152 161
f 162 161 164
f 163 162 164
f 175 176 177
f 178 175 177
f 176 179 180
f 177 176 180
f 179 181 182
f 180 179 182
f 181 183 184
f 182 181 184
f 185 186 187
f 188 185 187
f 189 185 188
f 190 189 188
f 191 189 190
f 192 191 190
f 193 191 192
f 194 193 192
f 183 193 194
f 184 183 194
f 195 196 178
f 187 195 178
f 192 190 188
f 194 192 188
f 184 194 188
f 182 184 188
f 180 182 188
f 177 180 188
f 178 177 188
f 187 178 188
f 197 198 199
f 200 197 199
f 201 202 200
f 203 201 200
f 204 203 200
f 205 204 200
f 206 205 200
f 207 206 200
f 208 207 200
f 199 208 200
f 196 197 175
f 178 196 175
f 186 198 195
f 187 186 195
f 196 195 198
f 197 196 198
f 209 210 211
f 212 209 211
f 210 213 214
f 211 210 214
f 213 215 216
f 214 213 216
f 215 217 218
f 216 215 218
f 219 220 221
f 222 219 221
f 223 219 222
f 224 223 222
f 225 223 224
f 226 225 224
f 227 225 226
f 228 227 226
f 217 227 228
f 218 217 228
f 229 230 212
f 221 229 212
f 226 224 222
f 228 226 222
f 218 228 222
f 216 218 222
f 214 216 222
f 211 214 222
f 212 211 222
f 221 212 222
f 231 232 233
f 234 231 233
f 235 236 234
f 237 235 234
f 238 237 234
f 239 238 234
f 240 239 234
f 241 240 234
f 242 241 234
f 233 242 234
f 230 231 209
f 212 230 209
f 220 232 229
f 221 220 229
f 230 229 232
f 231 230 232
f 243 244 245
f 246 243 245
f 247 248 249
f 250 247 249
f 244 247 251
f 245 244 251
f 252 253 254
f 255 252 254
f 244 243 248
f 247 244 248
