# Original shape: m347.obj
# No processing applied - exact copy of source file
# Generated on 2025-10-13 14:38:17

v 0.489484 0.025000 0.345675
v 0.475555 0.025000 0.288337
v 0.475555 0.204178 0.288337
v 0.435887 0.025000 0.239728
v 0.435887 0.204178 0.239728
v 0.376522 0.025000 0.207250
v 0.376522 0.204178 0.207250
v 0.306495 0.025000 0.195844
v 0.306495 0.204178 0.195844
v 0.236469 0.025000 0.207250
v 0.236469 0.204178 0.207250
v 0.177103 0.025000 0.239728
v 0.177103 0.204178 0.239728
v 0.137436 0.025000 0.288337
v 0.137436 0.204178 0.288337
v 0.123507 0.025000 0.345675
v 0.123507 0.204178 0.345675
v 0.137436 0.025000 0.403013
v 0.137436 0.204178 0.403013
v 0.177103 0.025000 0.451621
v 0.177103 0.204178 0.451621
v 0.236469 0.025000 0.484101
v 0.236469 0.204178 0.484101
v 0.306495 0.025000 0.495506
v 0.306495 0.204178 0.495506
v 0.376522 0.025000 0.484101
v 0.376522 0.204178 0.484101
v 0.435887 0.025000 0.451621
v 0.435887 0.204178 0.451621
v 0.475555 0.025000 0.403013
v 0.475555 0.204178 0.403013
v 0.489484 0.204178 0.345675
v 0.067565 0.565460 0.509531
v 0.051453 0.666223 0.497500
v 0.035216 0.550543 0.450678
v 0.555569 0.666223 0.497500
v 0.539457 0.565460 0.509531
v 0.571806 0.550543 0.450678
v 0.523831 0.903150 0.497636
v 0.421777 0.945831 0.467092
v 0.414351 0.813476 0.629607
v 0.295075 0.951056 0.470109
v 0.303391 0.799376 0.660844
v 0.186474 0.945831 0.467092
v 0.192672 0.813476 0.629607
v 0.083191 0.903150 0.497636
v 0.102196 0.809514 0.552152
v 0.204532 0.663030 0.669689
v 0.303615 0.658859 0.694470
v 0.123535 0.666774 0.626907
v 0.069401 0.638231 0.564956
v 0.029690 0.687335 0.325116
v 0.062817 0.434996 0.244279
v 0.402490 0.663030 0.669689
v 0.483488 0.666774 0.626907
v 0.504827 0.809514 0.552152
v 0.537622 0.638231 0.564956
v 0.577333 0.687335 0.325116
v 0.546291 0.432735 0.243328
v 0.073361 0.492366 0.512626
v 0.533661 0.492366 0.512626
v 0.307999 0.432735 0.243328
v 0.304498 0.328590 0.148637
v 0.359003 0.329122 0.168774
v 0.248019 0.329122 0.168774
v 0.185519 0.310803 0.198395
v 0.143653 0.292551 0.245896
v 0.109786 0.303012 0.327698
v 0.421503 0.310803 0.198395
v 0.463369 0.292551 0.245896
v 0.497236 0.303012 0.327698
v 0.262274 0.274327 0.666995
v 0.222242 0.286109 0.650242
v 0.264345 0.234231 0.663227
v 0.239899 0.298071 0.664479
v 0.303505 0.270118 0.672888
v 0.303766 0.213394 0.667583
v 0.303429 0.444307 0.761331
v 0.290302 0.440336 0.744979
v 0.305345 0.411337 0.722920
v 0.285344 0.525250 0.710312
v 0.288185 0.558020 0.696975
v 0.277661 0.513867 0.698903
v 0.280523 0.496917 0.730245
v 0.223318 0.551997 0.645187
v 0.227519 0.509335 0.663068
v 0.231648 0.555626 0.649323
v 0.245340 0.547018 0.650259
v 0.191978 0.530371 0.639428
v 0.191396 0.475035 0.664329
v 0.137718 0.467453 0.637899
v 0.122080 0.552082 0.595058
v 0.099501 0.474826 0.586560
v 0.145444 0.542191 0.623625
v 0.120940 0.575171 0.576208
v 0.084849 0.521630 0.550752
v 0.303079 0.349939 0.717195
v 0.282690 0.377930 0.715342
v 0.115893 0.299810 0.397092
v 0.129418 0.170666 0.400383
v 0.172458 0.167027 0.466155
v 0.174185 0.264236 0.493489
v 0.235108 0.202829 0.543167
v 0.235622 0.154400 0.499684
v 0.303096 0.188672 0.550357
v 0.303567 0.144528 0.497821
v 0.196045 0.215466 0.522045
v 0.302282 0.167977 0.176942
v 0.176667 0.153431 0.206957
v 0.143393 0.153250 0.249655
v 0.123218 0.168167 0.348757
v 0.218892 0.146723 0.497237
v 0.083585 0.581061 0.558624
v 0.206805 0.353711 0.632629
v 0.223849 0.311325 0.660423
v 0.226541 0.342357 0.655305
v 0.140107 0.282460 0.504919
v 0.155925 0.589679 0.621619
v 0.101253 0.610307 0.602132
v 0.193182 0.589014 0.634115
v 0.145360 0.622032 0.637534
v 0.201691 0.619666 0.659421
v 0.304522 0.208558 0.657276
v 0.250530 0.215048 0.622870
v 0.192463 0.255799 0.567451
v 0.287076 0.592995 0.690886
v 0.302363 0.591446 0.695602
v 0.302755 0.555122 0.705254
v 0.277018 0.588919 0.682031
v 0.280046 0.550942 0.687145
v 0.276303 0.466066 0.746329
v 0.303655 0.493743 0.739098
v 0.303429 0.463823 0.759203
v 0.242440 0.461609 0.688278
v 0.248308 0.419632 0.688766
v 0.253918 0.477106 0.708935
v 0.249760 0.440165 0.720389
v 0.275979 0.439927 0.731704
v 0.257972 0.414226 0.696848
v 0.273866 0.565384 0.671258
v 0.140010 0.401275 0.629003
v 0.189941 0.405532 0.676168
v 0.264440 0.332001 0.688675
v 0.304729 0.316589 0.711636
v 0.285813 0.361930 0.715336
v 0.104094 0.349027 0.491798
v 0.100351 0.418407 0.549124
v 0.270123 0.627951 0.690212
v 0.282109 0.412658 0.717088
v 0.103430 0.349246 0.451282
v 0.230620 0.614212 0.670473
v 0.247116 0.625139 0.682276
v 0.274841 0.406872 0.705111
v 0.274737 0.386862 0.711877
v 0.205561 0.353597 0.633970
v 0.168845 0.335925 0.619783
v 0.222625 0.552899 0.646148
v 0.384781 0.286109 0.650242
v 0.344748 0.274327 0.666995
v 0.345902 0.234231 0.663227
v 0.367123 0.298071 0.664479
v 0.316721 0.440336 0.744979
v 0.318837 0.558020 0.696975
v 0.321678 0.525250 0.710312
v 0.329361 0.513867 0.698903
v 0.326500 0.496917 0.730245
v 0.379503 0.509335 0.663068
v 0.383705 0.551997 0.645187
v 0.375374 0.555626 0.649323
v 0.361682 0.547018 0.650259
v 0.415627 0.475035 0.664329
v 0.415044 0.530371 0.639428
v 0.469304 0.467453 0.637899
v 0.507522 0.474826 0.586560
v 0.484943 0.552082 0.595058
v 0.461578 0.542191 0.623625
v 0.522173 0.521630 0.550752
v 0.486083 0.575171 0.576208
v 0.324333 0.377930 0.715342
v 0.477605 0.170666 0.400383
v 0.491129 0.299810 0.397092
v 0.434565 0.167027 0.466155
v 0.432837 0.264236 0.493489
v 0.371401 0.154400 0.499684
v 0.371915 0.202829 0.543167
v 0.410978 0.215466 0.522045
v 0.430355 0.153431 0.206957
v 0.463629 0.153250 0.249655
v 0.483804 0.168167 0.348757
v 0.388131 0.146723 0.497237
v 0.523438 0.581061 0.558624
v 0.383173 0.311325 0.660423
v 0.400217 0.353711 0.632629
v 0.380482 0.342357 0.655305
v 0.466916 0.282460 0.504919
v 0.505770 0.610307 0.602132
v 0.451097 0.589679 0.621619
v 0.461663 0.622032 0.637534
v 0.413840 0.589014 0.634115
v 0.405331 0.619666 0.659421
v 0.356493 0.215048 0.622870
v 0.414559 0.255799 0.567451
v 0.319947 0.592995 0.690886
v 0.326977 0.550942 0.687145
v 0.330004 0.588919 0.682031
v 0.330719 0.466066 0.746329
v 0.358714 0.419632 0.688766
v 0.364583 0.461609 0.688278
v 0.353105 0.477106 0.708935
v 0.357263 0.440165 0.720389
v 0.331043 0.439927 0.731704
v 0.349051 0.414226 0.696848
v 0.333156 0.565384 0.671258
v 0.467013 0.401275 0.629003
v 0.417081 0.405532 0.676168
v 0.342582 0.332001 0.688675
v 0.321210 0.361930 0.715336
v 0.502929 0.349027 0.491798
v 0.506672 0.418407 0.549124
v 0.336899 0.627951 0.690212
v 0.324913 0.412658 0.717088
v 0.503592 0.349246 0.451282
v 0.359907 0.625139 0.682276
v 0.376403 0.614212 0.670473
v 0.332285 0.386862 0.711877
v 0.332181 0.406872 0.705111
v 0.400512 0.354680 0.633874
v 0.438178 0.335925 0.619783
v 0.384398 0.552899 0.646148
v 0.149722 0.566287 0.629146
v 0.135901 0.554818 0.613419
v 0.190579 0.572206 0.647631
v 0.168712 0.573422 0.638939
v 0.179645 0.572814 0.643285
v 0.159217 0.569850 0.634042
v 0.457301 0.566287 0.629146
v 0.471121 0.554818 0.613419
v 0.416444 0.572206 0.647631
v 0.427377 0.572814 0.643285
v 0.438311 0.573422 0.638939
v 0.447806 0.569850 0.634042
v 0.111683 0.555721 0.611714
v 0.134133 0.537716 0.626685
v 0.109529 0.548652 0.653787
v 0.134765 0.547236 0.666799
v 0.151168 0.542714 0.633182
v 0.159982 0.550039 0.675296
v 0.168205 0.547711 0.639680
v 0.173764 0.549678 0.679531
v 0.180130 0.548928 0.644368
v 0.187511 0.545944 0.683374
v 0.192054 0.550134 0.649056
v 0.213307 0.535284 0.683540
v 0.472890 0.537716 0.626685
v 0.495339 0.555721 0.611714
v 0.497493 0.548652 0.653787
v 0.455854 0.542714 0.633182
v 0.472258 0.547236 0.666799
v 0.447041 0.550039 0.675296
v 0.438818 0.547711 0.639680
v 0.426893 0.548928 0.644368
v 0.433259 0.549678 0.679531
v 0.419512 0.545944 0.683374
v 0.414968 0.550134 0.649056
v 0.393715 0.535284 0.683540
v 0.200288 0.526153 0.649928
v 0.224018 0.540234 0.646987
v 0.215969 0.549355 0.647079
v 0.183592 0.533051 0.642098
v 0.123548 0.546334 0.612888
v 0.148614 0.539379 0.626842
v 0.147623 0.541887 0.626096
v 0.156608 0.536889 0.631809
v 0.177543 0.525241 0.644429
v 0.182840 0.524100 0.644069
v 0.224406 0.540870 0.646984
v 0.197118 0.535483 0.645654
v 0.213315 0.640711 0.676643
v 0.224059 0.644179 0.678266
v 0.205280 0.652655 0.673697
v 0.132764 0.651030 0.636400
v 0.070320 0.630117 0.580438
v 0.081049 0.626364 0.593637
v 0.091176 0.635856 0.605326
v 0.100503 0.633015 0.617444
v 0.111434 0.637699 0.628077
v 0.163697 0.641443 0.651420
v 0.189453 0.641937 0.665863
v 0.260291 0.621005 0.691698
v 0.234767 0.638840 0.681761
v 0.159225 0.652664 0.647775
v 0.383005 0.540234 0.646987
v 0.406735 0.526153 0.649928
v 0.391053 0.549355 0.647079
v 0.483474 0.546334 0.612888
v 0.423430 0.533051 0.642098
v 0.458408 0.539379 0.626842
v 0.459400 0.541887 0.626096
v 0.450203 0.537345 0.631604
v 0.429479 0.525241 0.644429
v 0.424182 0.524100 0.644069
v 0.382617 0.540870 0.646984
v 0.409904 0.535483 0.645654
v 0.382964 0.644179 0.678266
v 0.393708 0.640711 0.676643
v 0.401743 0.652655 0.673697
v 0.536703 0.630117 0.580438
v 0.474259 0.651030 0.636400
v 0.525973 0.626364 0.593637
v 0.515847 0.635856 0.605326
v 0.506519 0.633015 0.617444
v 0.495588 0.637699 0.628077
v 0.443326 0.641443 0.651420
v 0.417569 0.641937 0.665863
v 0.372256 0.638840 0.681761
v 0.346731 0.621005 0.691698
v 0.447798 0.652664 0.647775
v 0.157377 0.546562 0.619621
v 0.157135 0.542372 0.618954
v 0.161113 0.538010 0.625253
v 0.157933 0.550771 0.619455
v 0.161558 0.545754 0.626485
v 0.162585 0.553536 0.626178
v 0.207974 0.540633 0.638626
v 0.208530 0.544842 0.638460
v 0.201312 0.548994 0.640725
v 0.207733 0.536443 0.637960
v 0.200285 0.541212 0.641032
v 0.199840 0.533478 0.639801
v 0.157246 0.538837 0.617557
v 0.157361 0.546942 0.613370
v 0.158404 0.535721 0.613499
v 0.157691 0.536500 0.615642
v 0.212128 0.540519 0.633942
v 0.210213 0.550847 0.635855
v 0.209316 0.548434 0.637487
v 0.160487 0.557669 0.614807
v 0.158719 0.554362 0.618482
v 0.159616 0.556785 0.616849
v 0.208289 0.530571 0.634648
v 0.209002 0.529782 0.632505
v 0.207844 0.532908 0.636562
v 0.178708 0.532443 0.636202
v 0.179338 0.543388 0.637943
v 0.169271 0.544642 0.632919
v 0.168688 0.534523 0.631311
v 0.189913 0.523540 0.635810
v 0.189646 0.532072 0.639184
v 0.178997 0.523207 0.632551
v 0.190229 0.542182 0.640791
v 0.180791 0.554391 0.637509
v 0.191571 0.552348 0.640390
v 0.168955 0.526001 0.627938
v 0.170613 0.554809 0.632518
v 0.161317 0.531483 0.622672
v 0.180161 0.517098 0.627546
v 0.170031 0.520357 0.623313
v 0.190988 0.517896 0.631185
v 0.200044 0.526941 0.637219
v 0.200867 0.522628 0.633679
v 0.163456 0.525716 0.615175
v 0.162140 0.527169 0.619133
v 0.164039 0.560168 0.624380
v 0.172512 0.563474 0.630169
v 0.182846 0.563769 0.634966
v 0.174677 0.569318 0.626229
v 0.185190 0.570097 0.630702
v 0.193470 0.561013 0.638041
v 0.195635 0.566857 0.634101
v 0.202765 0.555626 0.638926
v 0.204423 0.560101 0.635910
v 0.197738 0.568995 0.629170
v 0.206033 0.561736 0.632137
v 0.211084 0.551731 0.633812
v 0.187467 0.572406 0.625364
v 0.176780 0.571455 0.621298
v 0.165696 0.564643 0.621364
v 0.167306 0.566277 0.617590
v 0.171750 0.518457 0.618142
v 0.182022 0.515046 0.621948
v 0.192708 0.515996 0.626014
v 0.202183 0.521174 0.629721
v 0.449888 0.542372 0.618954
v 0.449646 0.546562 0.619621
v 0.445910 0.538010 0.625253
v 0.449090 0.550771 0.619455
v 0.444437 0.553536 0.626178
v 0.445465 0.545754 0.626485
v 0.398492 0.544842 0.638460
v 0.399048 0.540633 0.638626
v 0.405710 0.548994 0.640725
v 0.399290 0.536443 0.637960
v 0.407183 0.533478 0.639801
v 0.406738 0.541212 0.641032
v 0.449662 0.546942 0.613370
v 0.449776 0.538837 0.617557
v 0.448619 0.535721 0.613499
v 0.449332 0.536500 0.615642
v 0.394895 0.540519 0.633942
v 0.396809 0.550847 0.635855
v 0.397706 0.548434 0.637487
v 0.446535 0.557669 0.614807
v 0.448304 0.554362 0.618482
v 0.447407 0.556785 0.616849
v 0.398021 0.529782 0.632505
v 0.398734 0.530571 0.634648
v 0.399179 0.532908 0.636562
v 0.427685 0.543388 0.637943
v 0.428315 0.532443 0.636202
v 0.437752 0.544642 0.632919
v 0.438334 0.534523 0.631311
v 0.417377 0.532072 0.639184
v 0.417110 0.523540 0.635810
v 0.428026 0.523207 0.632551
v 0.416794 0.542182 0.640791
v 0.426231 0.554391 0.637509
v 0.415452 0.552348 0.640390
v 0.438067 0.526001 0.627938
v 0.436410 0.554809 0.632518
v 0.445706 0.531483 0.622672
v 0.426862 0.517098 0.627546
v 0.436992 0.520357 0.623313
v 0.416034 0.517896 0.631185
v 0.406979 0.526941 0.637219
v 0.406156 0.522628 0.633679
v 0.443566 0.525716 0.615175
v 0.444883 0.527169 0.619133
v 0.442984 0.560168 0.624380
v 0.434510 0.563474 0.630169
v 0.424176 0.563769 0.634966
v 0.432345 0.569318 0.626229
v 0.421832 0.570097 0.630702
v 0.413553 0.561013 0.638041
v 0.411387 0.566857 0.634101
v 0.404257 0.555626 0.638926
v 0.402600 0.560101 0.635910
v 0.409285 0.568995 0.629170
v 0.400990 0.561736 0.632137
v 0.395938 0.551731 0.633812
v 0.419556 0.572406 0.625364
v 0.430242 0.571455 0.621298
v 0.441327 0.564643 0.621364
v 0.439717 0.566277 0.617590
v 0.435272 0.518457 0.618142
v 0.425000 0.515046 0.621948
v 0.414314 0.515996 0.626014
v 0.404840 0.521174 0.629721
v 0.303353 0.323848 0.720357
v 0.273022 0.325720 0.700709
v 0.280785 0.300380 0.709828
v 0.284333 0.322984 0.718835
v 0.260341 0.360011 0.713860
v 0.303147 0.358595 0.717705
v 0.287848 0.370320 0.721407
v 0.288527 0.369902 0.721470
v 0.303271 0.298204 0.709976
v 0.334001 0.325720 0.700709
v 0.326237 0.300380 0.709828
v 0.322690 0.322984 0.718835
v 0.346682 0.360011 0.713860
v 0.319174 0.370320 0.721407
v 0.318496 0.369902 0.721470
v 0.184062 0.543255 0.639897
v 0.182691 0.544044 0.640328
v 0.182497 0.542571 0.640385
v 0.183911 0.541659 0.639802
v 0.182412 0.541098 0.640153
v 0.175062 0.543749 0.636043
v 0.174986 0.542419 0.635833
v 0.176240 0.541051 0.637820
v 0.175237 0.545070 0.635991
v 0.176381 0.543493 0.638209
v 0.176705 0.545944 0.638112
v 0.188596 0.542058 0.642797
v 0.188455 0.539616 0.642408
v 0.190943 0.540557 0.641828
v 0.188920 0.544509 0.642700
v 0.191019 0.541878 0.642037
v 0.191195 0.543198 0.641985
v 0.174343 0.543588 0.636318
v 0.174298 0.542790 0.636191
v 0.175054 0.541963 0.637389
v 0.174450 0.544386 0.636287
v 0.175139 0.543426 0.637622
v 0.175333 0.544908 0.637564
v 0.184017 0.540547 0.639172
v 0.184152 0.540395 0.638765
v 0.184747 0.542438 0.639038
v 0.184213 0.543939 0.639712
v 0.191119 0.538704 0.640783
v 0.191343 0.538457 0.640107
v 0.192330 0.541840 0.640559
v 0.190978 0.539436 0.641386
v 0.191443 0.544338 0.641679
v 0.191726 0.545099 0.641164
v 0.174341 0.543654 0.635130
v 0.174539 0.541526 0.635155
v 0.174403 0.541668 0.635562
v 0.174769 0.545526 0.635792
v 0.174599 0.545070 0.636101
v 0.175021 0.541307 0.635392
v 0.175056 0.543863 0.634072
v 0.175386 0.540319 0.634113
v 0.175161 0.540576 0.634788
v 0.175768 0.546970 0.635169
v 0.175485 0.546201 0.635684
v 0.177075 0.538238 0.636037
v 0.176748 0.538609 0.637019
v 0.175249 0.539901 0.636225
v 0.175499 0.539626 0.635473
v 0.176544 0.539673 0.637898
v 0.175092 0.540718 0.636898
v 0.176493 0.541298 0.638539
v 0.176604 0.543217 0.638844
v 0.176858 0.545146 0.638768
v 0.175924 0.547018 0.636649
v 0.177631 0.547911 0.637573
v 0.178030 0.548310 0.636636
v 0.176230 0.547331 0.635932
v 0.179027 0.537592 0.636760
v 0.178672 0.537982 0.637824
v 0.178452 0.539151 0.638775
v 0.178397 0.540899 0.639469
v 0.178516 0.542980 0.639799
v 0.178792 0.545070 0.639717
v 0.179182 0.546856 0.639233
v 0.177219 0.546799 0.638322
v 0.179628 0.548053 0.638422
v 0.180060 0.548491 0.637409
v 0.181057 0.537773 0.637532
v 0.180730 0.538134 0.638516
v 0.180526 0.539208 0.639394
v 0.180475 0.540832 0.640035
v 0.180586 0.542752 0.640340
v 0.180840 0.544680 0.640264
v 0.181202 0.546334 0.639818
v 0.181613 0.547436 0.639069
v 0.182012 0.547844 0.638132
v 0.182858 0.538761 0.638237
v 0.182607 0.539037 0.638990
v 0.182451 0.539854 0.639661
v 0.182968 0.545308 0.639986
v 0.183282 0.546153 0.639413
v 0.176979 0.537165 0.634641
v 0.176564 0.537630 0.635889
v 0.176304 0.538989 0.637006
v 0.177162 0.548034 0.637545
v 0.177685 0.549450 0.636593
v 0.178193 0.549963 0.635403
v 0.176042 0.547246 0.634525
v 0.179053 0.535483 0.637208
v 0.179595 0.534885 0.635577
v 0.178714 0.537260 0.638667
v 0.178629 0.539949 0.639731
v 0.178813 0.543141 0.640237
v 0.180518 0.550923 0.638128
v 0.179835 0.549080 0.639371
v 0.181182 0.551597 0.636573
v 0.182835 0.533801 0.636777
v 0.182248 0.534457 0.638543
v 0.181880 0.536376 0.640121
v 0.181789 0.539293 0.641273
v 0.181988 0.542742 0.641822
v 0.182446 0.546210 0.641685
v 0.183094 0.549175 0.640882
v 0.183833 0.551170 0.639538
v 0.186205 0.534105 0.638059
v 0.185662 0.534704 0.639691
v 0.185323 0.536481 0.641149
v 0.185240 0.539170 0.642214
v 0.185423 0.542362 0.642720
v 0.185847 0.545574 0.642594
v 0.186445 0.548301 0.641853
v 0.187129 0.550144 0.640610
v 0.189194 0.535740 0.639229
v 0.188779 0.536196 0.640478
v 0.188520 0.537554 0.641594
v 0.189378 0.546600 0.642133
v 0.189900 0.548015 0.641182
v 0.190407 0.548529 0.639991
v 0.187792 0.550818 0.639055
v 0.192001 0.545374 0.640519
v 0.175610 0.546172 0.637222
v 0.184552 0.551902 0.637854
v 0.424331 0.544044 0.640328
v 0.422960 0.543255 0.639897
v 0.424526 0.542571 0.640385
v 0.423065 0.542457 0.639928
v 0.423091 0.540994 0.639537
v 0.424611 0.541098 0.640153
v 0.432037 0.542419 0.635833
v 0.431961 0.543749 0.636043
v 0.430783 0.541051 0.637820
v 0.431785 0.545070 0.635991
v 0.430318 0.545944 0.638112
v 0.430642 0.543493 0.638209
v 0.418568 0.539616 0.642408
v 0.418427 0.542058 0.642797
v 0.416079 0.540557 0.641828
v 0.418103 0.544509 0.642700
v 0.415828 0.543198 0.641985
v 0.416003 0.541878 0.642037
v 0.432703 0.542115 0.635926
v 0.432679 0.543588 0.636318
v 0.431969 0.541963 0.637389
v 0.432573 0.544386 0.636287
v 0.431689 0.544908 0.637564
v 0.431884 0.543426 0.637622
v 0.422870 0.540395 0.638765
v 0.423006 0.540547 0.639172
v 0.422276 0.542438 0.639038
v 0.422474 0.544566 0.639014
v 0.415679 0.538457 0.640107
v 0.415904 0.538704 0.640783
v 0.414693 0.541840 0.640559
v 0.416044 0.539436 0.641386
v 0.415580 0.544338 0.641679
v 0.415297 0.545099 0.641164
v 0.432681 0.543654 0.635130
v 0.432484 0.541526 0.635155
v 0.432619 0.541668 0.635562
v 0.432088 0.545697 0.635403
v 0.432424 0.545070 0.636101
v 0.431966 0.543863 0.634072
v 0.432002 0.541307 0.635392
v 0.431637 0.540319 0.634113
v 0.431861 0.540576 0.634788
v 0.431254 0.546970 0.635169
v 0.431537 0.546201 0.635684
v 0.430275 0.538609 0.637019
v 0.429948 0.538238 0.636037
v 0.431774 0.539901 0.636225
v 0.431523 0.539626 0.635473
v 0.430479 0.539673 0.637898
v 0.431930 0.540718 0.636898
v 0.430529 0.541298 0.638539
v 0.430419 0.543217 0.638844
v 0.430164 0.545146 0.638768
v 0.429392 0.547911 0.637573
v 0.431098 0.547018 0.636649
v 0.428992 0.548310 0.636636
v 0.430792 0.547331 0.635932
v 0.427996 0.537592 0.636760
v 0.428350 0.537982 0.637824
v 0.428571 0.539151 0.638775
v 0.428626 0.540899 0.639469
v 0.428507 0.542980 0.639799
v 0.428230 0.545070 0.639717
v 0.427786 0.546343 0.640111
v 0.429803 0.546799 0.638322
v 0.427394 0.548053 0.638422
v 0.426962 0.548491 0.637409
v 0.425966 0.537773 0.637532
v 0.426293 0.538134 0.638516
v 0.426497 0.539208 0.639394
v 0.426547 0.540832 0.640035
v 0.426437 0.542752 0.640340
v 0.426182 0.544680 0.640264
v 0.425821 0.546334 0.639818
v 0.425410 0.547436 0.639069
v 0.425010 0.547844 0.638132
v 0.424165 0.538761 0.638237
v 0.424415 0.539037 0.638990
v 0.424572 0.539854 0.639661
v 0.424054 0.545308 0.639986
v 0.423434 0.546467 0.638696
v 0.430459 0.537630 0.635889
v 0.430044 0.537165 0.634641
v 0.430718 0.538989 0.637006
v 0.429860 0.548034 0.637545
v 0.429337 0.549450 0.636593
v 0.428830 0.549963 0.635403
v 0.430980 0.547246 0.634525
v 0.427970 0.535483 0.637208
v 0.427427 0.534885 0.635577
v 0.428309 0.537260 0.638667
v 0.428392 0.539949 0.639731
v 0.428209 0.543141 0.640237
v 0.426504 0.550923 0.638128
v 0.427187 0.549080 0.639371
v 0.425840 0.551597 0.636573
v 0.424188 0.533801 0.636777
v 0.424775 0.534457 0.638543
v 0.425142 0.536376 0.640121
v 0.425233 0.539293 0.641273
v 0.425035 0.542742 0.641822
v 0.424577 0.546210 0.641685
v 0.423928 0.549175 0.640882
v 0.423189 0.551170 0.639538
v 0.420817 0.534105 0.638059
v 0.421360 0.534704 0.639691
v 0.421699 0.536481 0.641149
v 0.421783 0.539170 0.642214
v 0.421599 0.542362 0.642720
v 0.421176 0.545574 0.642594
v 0.420577 0.548301 0.641853
v 0.419894 0.550144 0.640610
v 0.418244 0.536196 0.640478
v 0.417829 0.535740 0.639229
v 0.418503 0.537554 0.641594
v 0.417645 0.546600 0.642133
v 0.417122 0.548015 0.641182
v 0.416615 0.548529 0.639991
v 0.419231 0.550818 0.639055
v 0.415022 0.545374 0.640519
v 0.431413 0.546172 0.637222
v 0.422471 0.551902 0.637854
v 0.186272 0.357949 0.612953
v 0.303932 0.392686 0.707917
v 0.286170 0.308751 0.691396
v 0.304125 0.308960 0.697057
v 0.420750 0.357949 0.612953
v 0.320853 0.308751 0.691396
v 0.049594 0.822578 0.267645
v 0.049554 0.795803 0.230767
v 0.030471 0.797171 0.285502
v 0.049436 0.769038 0.201752
v 0.049259 0.746367 0.185020
v 0.049051 0.731241 0.183113
v 0.050921 0.863672 0.388235
v 0.049259 0.865886 0.368508
v 0.049436 0.860517 0.342188
v 0.049554 0.845306 0.306770
v 0.107889 0.675525 0.099414
v 0.108274 0.924319 0.441979
v 0.196319 0.633395 0.039263
v 0.108274 0.703468 0.102936
v 0.196450 0.962639 0.491474
v 0.109160 0.919445 0.475667
v 0.299818 0.623153 0.025000
v 0.196450 0.674080 0.048494
v 0.300362 0.975000 0.509459
v 0.195948 0.949907 0.523371
v 0.401944 0.630326 0.040964
v 0.300362 0.662669 0.029982
v 0.404192 0.959541 0.493193
v 0.299132 0.967741 0.555739
v 0.108819 0.794805 0.187468
v 0.108600 0.745360 0.133858
v 0.108600 0.914390 0.393348
v 0.108819 0.886285 0.327903
v 0.108895 0.844298 0.255608
v 0.197161 0.793418 0.158941
v 0.196876 0.728809 0.088893
v 0.196876 0.949660 0.427935
v 0.197161 0.912946 0.342428
v 0.197261 0.858085 0.247969
v 0.301131 0.791841 0.149527
v 0.300823 0.721911 0.073708
v 0.300823 0.960957 0.440685
v 0.301131 0.921212 0.348133
v 0.301240 0.861829 0.245890
v 0.404902 0.790321 0.160659
v 0.404618 0.725702 0.090612
v 0.404192 0.670983 0.050213
v 0.404618 0.946562 0.429654
v 0.404902 0.909839 0.344147
v 0.405002 0.854978 0.249688
v 0.492675 0.789076 0.190644
v 0.492458 0.739621 0.137034
v 0.492132 0.697739 0.106113
v 0.489105 0.666869 0.099783
v 0.492132 0.918590 0.445155
v 0.403689 0.946800 0.525090
v 0.492458 0.908661 0.396525
v 0.492675 0.880556 0.331080
v 0.492752 0.838569 0.258784
v 0.551088 0.788306 0.234918
v 0.550970 0.761550 0.205903
v 0.550794 0.738880 0.189170
v 0.547344 0.722642 0.187215
v 0.550794 0.858398 0.372658
v 0.491747 0.908842 0.469568
v 0.550970 0.853030 0.346338
v 0.551088 0.837818 0.310921
v 0.551130 0.815091 0.271795
v 0.571246 0.788135 0.286738
v 0.550586 0.853125 0.385870
v 0.293660 0.350452 0.168313
v 0.190848 0.365284 0.187864
v 0.191532 0.398796 0.169290
v 0.103689 0.404430 0.245240
v 0.104372 0.437941 0.226665
v 0.045450 0.461933 0.331708
v 0.046134 0.495454 0.313133
v 0.025000 0.529051 0.434104
v 0.025683 0.562562 0.415528
v 0.045450 0.595561 0.536837
v 0.046134 0.629072 0.518262
v 0.103689 0.651324 0.624269
v 0.104372 0.684845 0.605694
v 0.190848 0.687867 0.683089
v 0.191532 0.721388 0.664514
v 0.293660 0.699620 0.704341
v 0.294344 0.733141 0.685766
v 0.396473 0.684798 0.684790
v 0.397156 0.718319 0.666215
v 0.483634 0.645652 0.627413
v 0.484318 0.679164 0.608838
v 0.541872 0.588149 0.540945
v 0.542556 0.621661 0.522370
v 0.562323 0.521031 0.438550
v 0.563007 0.554543 0.419975
v 0.541872 0.454521 0.335816
v 0.542556 0.488042 0.317241
v 0.483634 0.398758 0.248384
v 0.484318 0.432269 0.229809
v 0.396473 0.362206 0.189566
v 0.397156 0.395727 0.170990
v 0.294344 0.383973 0.149738
v 0.192216 0.432307 0.150713
v 0.105056 0.471453 0.208090
v 0.046818 0.528965 0.294557
v 0.026367 0.596083 0.396953
v 0.046818 0.662584 0.499687
v 0.105056 0.718357 0.587119
v 0.192216 0.754900 0.645939
v 0.295028 0.766653 0.667191
v 0.397840 0.751831 0.647640
v 0.485001 0.712685 0.590263
v 0.543240 0.655173 0.503795
v 0.563691 0.588054 0.401400
v 0.543240 0.521554 0.298666
v 0.485001 0.465781 0.211234
v 0.397840 0.429238 0.152415
v 0.295028 0.417485 0.131162
v 0.192900 0.465828 0.132138
v 0.105740 0.504974 0.189514
v 0.047501 0.562477 0.275983
v 0.027051 0.629595 0.378377
v 0.047501 0.696095 0.481112
v 0.105740 0.751869 0.568543
v 0.192900 0.788411 0.627363
v 0.295712 0.800164 0.648616
v 0.398524 0.785342 0.629065
v 0.485685 0.746196 0.571687
v 0.543924 0.688684 0.485220
v 0.564374 0.621575 0.382825
v 0.543924 0.555066 0.280091
v 0.485685 0.499302 0.192658
v 0.398524 0.462759 0.133840
v 0.295712 0.450996 0.112588
v 0.193584 0.499340 0.113563
v 0.106424 0.538486 0.170939
v 0.048185 0.595998 0.257408
v 0.027735 0.663106 0.359802
v 0.048185 0.729616 0.462537
v 0.106424 0.785390 0.549968
v 0.193584 0.821932 0.608788
v 0.296396 0.833685 0.630040
v 0.399208 0.818863 0.610489
v 0.486369 0.779708 0.553112
v 0.544608 0.722205 0.466645
v 0.565058 0.655087 0.364249
v 0.544608 0.588577 0.261515
v 0.486369 0.532813 0.174083
v 0.399208 0.496271 0.115264
v 0.296396 0.484517 0.094013
v 0.194268 0.532851 0.094988
v 0.107108 0.571997 0.152364
v 0.048870 0.629509 0.238832
v 0.028419 0.696627 0.341228
v 0.048870 0.763128 0.443961
v 0.107108 0.818901 0.531393
v 0.194268 0.855444 0.590212
v 0.297080 0.867197 0.611465
v 0.399892 0.852375 0.591915
v 0.487053 0.813229 0.534537
v 0.545291 0.755717 0.448069
v 0.565742 0.688599 0.345674
v 0.545291 0.622098 0.242940
v 0.487053 0.566325 0.155508
v 0.399892 0.529782 0.096690
v 0.297080 0.518029 0.075437
v 0.194952 0.566372 0.076412
v 0.107792 0.605518 0.133788
v 0.049554 0.663021 0.220257
v 0.029103 0.730139 0.322652
v 0.049554 0.796639 0.425386
v 0.107792 0.852413 0.512818
v 0.194952 0.888955 0.571638
v 0.297764 0.900708 0.592890
v 0.400576 0.885886 0.573340
v 0.487737 0.846740 0.515962
v 0.545976 0.789228 0.429494
v 0.566426 0.722120 0.327099
v 0.545976 0.655610 0.224365
v 0.487737 0.599846 0.136933
v 0.400576 0.563294 0.078115
v 0.297764 0.551540 0.056862
v 0.195635 0.599884 0.057838
v 0.108476 0.639030 0.115214
v 0.050238 0.696542 0.201682
v 0.029787 0.763650 0.304077
v 0.050238 0.830160 0.406811
v 0.108476 0.885924 0.494243
v 0.195635 0.922476 0.553063
v 0.298448 0.934229 0.574314
v 0.401260 0.919398 0.554764
v 0.488421 0.880252 0.497387
v 0.546660 0.822749 0.410919
v 0.567110 0.755631 0.308523
v 0.546660 0.689131 0.205789
v 0.488421 0.633357 0.118358
v 0.401260 0.596815 0.059540
v 0.298448 0.585061 0.038287
f 1 2 3
f 3 2 1
f 2 4 5
f 5 4 2
f 4 6 7
f 7 6 4
f 6 8 9
f 9 8 6
f 8 10 11
f 11 10 8
f 10 12 13
f 13 12 10
f 12 14 15
f 15 14 12
f 14 16 17
f 17 16 14
f 16 18 19
f 19 18 16
f 18 20 21
f 21 20 18
f 20 22 23
f 23 22 20
f 22 24 25
f 25 24 22
f 24 26 27
f 27 26 24
f 26 28 29
f 29 28 26
f 28 30 31
f 31 30 28
f 30 1 32
f 32 1 30
f 33 34 35
f 36 37 38
f 39 40 41
f 40 42 43
f 42 44 45
f 44 46 47
f 45 48 43
f 49 43 48
f 47 50 45
f 48 45 50
f 34 51 47
f 50 47 51
f 34 52 35
f 53 35 52
f 34 47 52
f 46 52 47
f 51 34 33
f 54 41 43
f 43 49 54
f 55 56 41
f 41 54 55
f 57 36 56
f 56 55 57
f 58 36 38
f 38 59 58
f 56 36 58
f 58 39 56
f 36 57 37
f 60 33 34
f 37 61 36
f 62 59 63
f 53 62 63
f 63 59 64
f 65 53 63
f 66 53 65
f 67 53 66
f 53 67 68
f 64 59 69
f 59 70 69
f 59 71 70
f 72 73 74
f 75 73 74
f 76 72 74
f 77 76 74
f 78 79 80
f 81 82 83
f 81 83 84
f 85 86 87
f 88 87 86
f 89 90 85
f 86 85 90
f 90 89 91
f 92 93 94
f 91 94 93
f 95 96 92
f 93 92 96
f 97 80 98
f 99 100 101
f 101 102 99
f 103 104 105
f 106 105 104
f 103 107 104
f 63 108 65
f 66 109 67
f 110 67 109
f 65 108 66
f 109 66 108
f 102 101 107
f 111 100 68
f 99 68 100
f 68 67 111
f 110 111 67
f 101 112 107
f 104 107 112
f 96 95 113
f 114 115 116
f 115 73 75
f 117 99 102
f 118 119 95
f 113 95 119
f 120 121 118
f 119 118 121
f 121 120 122
f 123 124 105
f 103 105 124
f 103 124 107
f 125 107 124
f 75 73 72
f 126 82 127
f 128 127 82
f 129 130 126
f 82 126 130
f 130 83 82
f 84 131 132
f 133 132 131
f 134 135 136
f 137 136 135
f 137 135 138
f 139 138 135
f 79 78 131
f 133 131 78
f 74 73 77
f 73 124 77
f 86 134 88
f 140 88 134
f 91 141 90
f 142 90 141
f 121 50 119
f 51 119 50
f 35 60 34
f 143 72 144
f 116 115 143
f 135 145 139
f 146 117 147
f 126 127 148
f 49 148 127
f 134 136 140
f 81 84 82
f 136 137 83
f 149 80 79
f 86 90 134
f 147 60 146
f 150 146 60
f 119 51 113
f 151 152 122
f 139 149 138
f 79 138 149
f 131 137 79
f 138 79 137
f 96 60 93
f 147 93 60
f 141 91 147
f 93 147 91
f 129 126 152
f 148 152 126
f 49 48 148
f 152 148 48
f 122 88 151
f 140 151 88
f 129 152 140
f 151 140 152
f 107 125 102
f 117 102 125
f 146 150 117
f 99 117 150
f 153 154 149
f 98 149 154
f 149 98 80
f 142 114 155
f 68 99 53
f 150 53 99
f 150 60 53
f 35 53 60
f 125 124 156
f 73 156 124
f 115 114 73
f 156 73 114
f 123 77 124
f 144 72 76
f 75 72 115
f 143 115 72
f 154 153 145
f 145 135 155
f 142 155 135
f 125 156 117
f 83 130 136
f 132 128 84
f 82 84 128
f 131 84 137
f 142 135 90
f 134 90 135
f 33 60 51
f 48 50 152
f 141 156 142
f 114 142 156
f 154 145 98
f 149 139 153
f 145 153 139
f 141 147 156
f 117 156 147
f 129 140 130
f 136 130 140
f 137 84 83
f 96 113 60
f 51 60 113
f 121 122 50
f 152 50 122
f 98 145 97
f 94 91 89
f 157 122 120
f 122 157 88
f 158 159 160
f 158 161 160
f 159 76 160
f 76 77 160
f 162 78 80
f 163 164 165
f 165 164 166
f 167 168 169
f 169 170 167
f 171 172 168
f 168 167 171
f 172 171 173
f 174 175 176
f 176 173 174
f 177 178 175
f 175 174 177
f 80 97 179
f 180 181 182
f 183 182 181
f 184 185 105
f 105 106 184
f 186 185 184
f 108 63 64
f 187 69 70
f 70 188 187
f 108 64 69
f 69 187 108
f 182 183 186
f 180 189 71
f 71 181 180
f 70 71 189
f 189 188 70
f 190 182 186
f 186 184 190
f 178 177 191
f 192 193 194
f 158 192 161
f 181 195 183
f 196 197 178
f 178 191 196
f 198 199 197
f 197 196 198
f 199 198 200
f 201 123 105
f 105 185 201
f 201 185 186
f 186 202 201
f 158 161 159
f 163 203 127
f 127 128 163
f 204 205 203
f 203 163 204
f 165 204 163
f 206 166 132
f 132 133 206
f 207 208 209
f 209 210 207
f 207 210 211
f 211 212 207
f 78 162 206
f 206 133 78
f 158 160 77
f 201 158 77
f 208 167 170
f 170 213 208
f 214 173 171
f 171 215 214
f 55 198 196
f 196 57 55
f 61 38 36
f 159 216 144
f 192 194 216
f 217 207 212
f 195 218 219
f 127 203 220
f 220 49 127
f 209 208 213
f 166 164 163
f 210 209 165
f 80 221 162
f 171 167 208
f 61 219 218
f 218 222 61
f 57 196 191
f 223 224 200
f 221 212 211
f 211 162 221
f 210 206 162
f 162 211 210
f 61 177 174
f 174 219 61
f 173 214 219
f 219 174 173
f 203 205 223
f 223 220 203
f 54 49 220
f 220 223 54
f 170 200 224
f 224 213 170
f 223 205 213
f 213 224 223
f 202 186 183
f 183 195 202
f 222 218 195
f 195 181 222
f 225 226 221
f 221 179 225
f 179 221 80
f 193 215 227
f 181 71 59
f 59 222 181
f 61 222 59
f 59 38 61
f 201 202 228
f 228 158 201
f 193 192 158
f 158 228 193
f 77 123 201
f 159 144 76
f 159 161 192
f 192 216 159
f 226 225 217
f 207 217 227
f 227 215 207
f 228 202 195
f 204 165 209
f 128 132 166
f 166 163 128
f 166 206 210
f 207 215 171
f 171 208 207
f 61 37 57
f 55 54 223
f 228 214 215
f 215 193 228
f 217 225 179
f 212 221 226
f 226 217 212
f 219 214 228
f 228 195 219
f 213 205 204
f 204 209 213
f 166 210 165
f 191 177 61
f 61 57 191
f 200 198 55
f 55 223 200
f 217 179 97
f 173 176 172
f 200 229 199
f 229 200 170
f 118 95 92
f 95 118 92
f 118 92 230
f 92 231 230
f 231 92 230
f 92 118 230
f 232 88 157
f 88 232 157
f 232 157 120
f 157 232 120
f 232 120 118
f 120 232 118
f 233 234 118
f 234 232 118
f 232 234 118
f 234 233 118
f 230 235 118
f 235 233 118
f 233 235 118
f 235 230 118
f 178 197 175
f 197 178 175
f 175 197 236
f 237 175 236
f 175 237 236
f 197 175 236
f 170 238 229
f 238 170 229
f 229 238 199
f 238 229 199
f 199 238 197
f 238 199 197
f 239 240 197
f 238 239 197
f 239 238 197
f 240 239 197
f 241 236 197
f 240 241 197
f 241 240 197
f 236 241 197
f 242 243 244
f 243 242 244
f 231 242 92
f 242 231 92
f 243 231 230
f 231 243 230
f 231 243 242
f 243 231 242
f 245 246 247
f 246 248 247
f 248 246 247
f 246 245 247
f 243 246 244
f 246 245 244
f 245 246 244
f 246 243 244
f 235 246 230
f 246 243 230
f 243 246 230
f 246 235 230
f 248 246 233
f 246 235 233
f 235 246 233
f 246 248 233
f 249 250 251
f 250 252 251
f 252 250 251
f 250 249 251
f 248 250 247
f 250 249 247
f 249 250 247
f 250 248 247
f 234 250 233
f 250 248 233
f 248 250 233
f 250 234 233
f 252 250 232
f 250 234 232
f 234 250 232
f 250 252 232
f 253 157 88
f 157 253 88
f 252 253 251
f 253 252 251
f 157 252 232
f 252 157 232
f 252 157 253
f 157 252 253
f 254 255 256
f 255 254 256
f 255 237 175
f 237 255 175
f 237 254 236
f 254 237 236
f 254 237 255
f 237 254 255
f 257 258 259
f 260 257 259
f 257 260 259
f 258 257 259
f 257 254 256
f 258 257 256
f 257 258 256
f 254 257 256
f 257 241 236
f 254 257 236
f 257 254 236
f 241 257 236
f 257 260 240
f 241 257 240
f 257 241 240
f 260 257 240
f 261 262 263
f 264 261 263
f 261 264 263
f 262 261 263
f 261 260 259
f 262 261 259
f 261 262 259
f 260 261 259
f 261 239 240
f 260 261 240
f 261 260 240
f 239 261 240
f 261 264 238
f 239 261 238
f 261 239 238
f 264 261 238
f 229 265 170
f 265 229 170
f 265 264 263
f 264 265 263
f 264 229 238
f 229 264 238
f 229 264 265
f 264 229 265
f 120 118 157
f 118 95 157
f 95 92 157
f 92 94 157
f 94 89 157
f 89 85 157
f 85 87 157
f 197 199 229
f 178 197 229
f 175 178 229
f 176 175 229
f 172 176 229
f 168 172 229
f 169 168 229
f 266 267 268
f 269 270 271
f 269 272 270
f 269 271 273
f 269 273 274
f 269 274 275
f 266 269 275
f 88 276 267
f 266 88 267
f 266 268 277
f 269 266 277
f 278 279 280
f 281 282 283
f 281 284 282
f 281 283 285
f 281 285 286
f 281 286 287
f 281 287 288
f 278 281 288
f 289 290 279
f 278 289 279
f 278 280 291
f 281 278 291
f 292 293 294
f 295 296 297
f 298 296 295
f 297 296 299
f 299 296 300
f 300 296 301
f 296 293 301
f 302 170 292
f 170 293 292
f 294 293 303
f 293 296 303
f 304 305 306
f 307 308 309
f 310 308 307
f 309 308 311
f 311 308 312
f 312 308 313
f 313 308 314
f 308 305 314
f 315 316 304
f 316 305 304
f 306 305 317
f 305 308 317
f 318 319 320
f 321 318 320
f 322 323 321
f 320 322 321
f 324 325 326
f 327 324 326
f 328 329 327
f 326 328 327
f 330 331 332
f 333 330 332
f 321 331 330
f 318 321 330
f 319 318 330
f 327 334 335
f 324 327 335
f 325 324 335
f 336 325 335
f 337 331 338
f 339 337 338
f 340 341 334
f 342 340 334
f 343 344 345
f 346 343 345
f 347 348 343
f 349 347 343
f 344 343 348
f 350 344 348
f 351 344 350
f 352 351 350
f 350 348 329
f 328 350 329
f 346 345 322
f 320 346 322
f 349 343 346
f 353 349 346
f 354 345 344
f 351 354 344
f 353 346 320
f 355 353 320
f 356 349 353
f 357 356 353
f 349 356 358
f 347 349 358
f 348 347 359
f 329 348 359
f 360 359 347
f 358 360 347
f 323 322 345
f 354 323 345
f 355 320 319
f 330 355 319
f 333 332 361
f 362 333 361
f 338 321 323
f 363 338 323
f 363 323 354
f 364 363 354
f 364 354 351
f 365 364 351
f 366 364 365
f 367 366 365
f 365 351 352
f 368 365 352
f 367 365 368
f 369 367 368
f 368 352 326
f 370 368 326
f 352 350 328
f 326 352 328
f 369 368 370
f 371 369 370
f 370 326 325
f 336 370 325
f 372 369 371
f 373 372 371
f 371 370 336
f 335 371 336
f 335 374 373
f 371 335 373
f 369 372 375
f 367 369 375
f 367 375 376
f 366 367 376
f 364 366 377
f 363 364 377
f 366 376 378
f 377 366 378
f 337 339 377
f 378 337 377
f 333 362 355
f 330 333 355
f 355 362 357
f 353 355 357
f 362 361 379
f 357 362 379
f 357 379 380
f 356 357 380
f 356 380 381
f 358 356 381
f 358 381 382
f 360 358 382
f 360 382 341
f 340 360 341
f 359 360 340
f 342 359 340
f 327 329 359
f 342 327 359
f 363 377 339
f 338 363 339
f 374 335 334
f 327 342 334
f 383 384 385
f 384 386 385
f 387 388 386
f 388 385 386
f 389 390 391
f 390 392 391
f 393 394 392
f 394 391 392
f 395 396 397
f 396 398 397
f 395 386 396
f 386 384 396
f 384 383 396
f 399 392 400
f 392 390 400
f 390 389 400
f 389 401 400
f 395 402 403
f 402 404 403
f 405 406 399
f 406 407 399
f 408 409 410
f 409 411 410
f 412 413 409
f 413 414 409
f 409 408 412
f 408 415 412
f 408 416 415
f 416 417 415
f 412 415 393
f 415 394 393
f 410 411 388
f 411 385 388
f 409 414 411
f 414 418 411
f 410 419 408
f 419 416 408
f 411 418 385
f 418 420 385
f 414 421 418
f 421 422 418
f 421 414 423
f 414 413 423
f 413 412 424
f 412 393 424
f 424 425 413
f 425 423 413
f 388 387 410
f 387 419 410
f 385 420 383
f 420 396 383
f 397 398 426
f 398 427 426
f 386 403 387
f 403 428 387
f 387 428 419
f 428 429 419
f 419 429 416
f 429 430 416
f 429 431 430
f 431 432 430
f 416 430 417
f 430 433 417
f 430 432 433
f 432 434 433
f 417 433 391
f 433 435 391
f 415 417 394
f 417 391 394
f 433 434 435
f 434 436 435
f 391 435 389
f 435 401 389
f 434 437 436
f 437 438 436
f 435 436 401
f 436 400 401
f 439 400 438
f 400 436 438
f 437 434 440
f 434 432 440
f 440 432 441
f 432 431 441
f 431 429 442
f 429 428 442
f 441 431 443
f 431 442 443
f 404 402 442
f 402 443 442
f 427 398 420
f 398 396 420
f 427 420 422
f 420 418 422
f 426 427 444
f 427 422 444
f 444 422 445
f 422 421 445
f 445 421 446
f 421 423 446
f 446 423 447
f 423 425 447
f 447 425 405
f 425 406 405
f 425 424 406
f 424 407 406
f 393 392 424
f 392 407 424
f 442 428 404
f 428 403 404
f 400 439 399
f 407 392 399
f 114 448 449
f 114 449 448
f 114 450 451
f 114 451 450
f 451 448 114
f 451 114 448
f 114 452 97
f 97 452 453
f 453 452 454
f 114 452 97
f 97 452 453
f 453 452 455
f 114 97 452
f 97 453 452
f 453 454 452
f 114 97 452
f 97 453 452
f 453 455 452
f 456 448 450
f 451 450 448
f 448 456 451
f 456 450 448
f 451 448 450
f 448 451 456
f 448 193 457
f 457 193 448
f 458 193 459
f 459 193 458
f 448 459 193
f 193 459 448
f 460 193 97
f 460 97 453
f 460 453 461
f 460 193 97
f 460 97 453
f 460 453 462
f 97 193 460
f 453 97 460
f 461 453 460
f 97 193 460
f 453 97 460
f 462 453 460
f 448 456 458
f 458 459 448
f 456 448 459
f 458 456 448
f 448 459 458
f 459 448 456
f 463 464 465
f 466 463 465
f 467 466 465
f 468 469 470
f 471 468 470
f 472 473 471
f 470 472 471
f 474 475 476
f 477 474 476
f 478 479 477
f 476 478 477
f 480 481 482
f 483 480 482
f 484 485 483
f 482 484 483
f 486 487 488
f 466 486 488
f 488 463 466
f 489 463 488
f 490 491 492
f 493 490 492
f 478 476 493
f 479 478 493
f 492 479 493
f 494 479 492
f 495 494 492
f 481 496 497
f 498 481 497
f 483 496 481
f 480 483 481
f 499 496 483
f 500 499 483
f 501 502 503
f 504 501 503
f 471 502 501
f 468 471 501
f 469 468 501
f 505 502 471
f 506 505 471
f 507 508 509
f 510 507 509
f 508 511 512
f 509 508 512
f 512 511 513
f 482 512 513
f 484 482 513
f 514 484 513
f 514 515 485
f 484 514 485
f 516 517 518
f 519 516 518
f 508 507 520
f 521 508 520
f 511 508 521
f 522 511 521
f 513 511 522
f 523 513 522
f 514 513 523
f 524 514 523
f 515 514 524
f 525 515 524
f 525 526 527
f 515 525 527
f 518 517 528
f 529 518 528
f 521 520 530
f 531 521 530
f 522 521 531
f 532 522 531
f 523 522 532
f 533 523 532
f 524 523 533
f 534 524 533
f 534 535 525
f 524 534 525
f 526 525 535
f 536 526 535
f 529 528 537
f 538 529 537
f 531 530 539
f 540 531 539
f 541 532 531
f 540 541 531
f 467 533 532
f 541 467 532
f 465 534 533
f 467 465 533
f 535 534 465
f 464 535 465
f 536 535 464
f 542 536 464
f 537 536 542
f 543 537 542
f 538 537 543
f 540 539 487
f 486 540 487
f 466 541 540
f 486 466 540
f 466 467 541
f 489 542 464
f 463 489 464
f 543 542 489
f 544 545 504
f 503 544 504
f 546 470 469
f 501 546 469
f 506 547 548
f 505 506 548
f 548 549 550
f 505 548 550
f 551 545 544
f 552 551 544
f 551 553 546
f 545 551 546
f 554 470 546
f 553 554 546
f 472 470 554
f 555 472 554
f 556 548 547
f 557 556 547
f 549 548 556
f 558 549 556
f 551 552 559
f 560 551 559
f 553 551 560
f 561 553 560
f 554 553 561
f 562 554 561
f 555 554 562
f 563 555 562
f 526 555 563
f 564 526 563
f 557 526 564
f 565 557 564
f 556 557 565
f 566 556 565
f 560 559 567
f 568 560 567
f 561 560 568
f 569 561 568
f 570 562 561
f 569 570 561
f 563 562 570
f 571 563 570
f 564 563 571
f 572 564 571
f 565 564 572
f 573 565 572
f 566 565 573
f 574 566 573
f 575 576 568
f 567 575 568
f 569 568 576
f 577 569 576
f 475 570 569
f 577 475 569
f 571 570 475
f 474 571 475
f 573 578 579
f 574 573 579
f 579 580 581
f 574 579 581
f 576 575 491
f 490 576 491
f 493 577 576
f 490 493 576
f 476 475 577
f 493 476 577
f 495 579 578
f 494 495 578
f 580 579 495
f 582 580 495
f 498 497 510
f 509 498 510
f 481 498 509
f 512 481 509
f 482 481 512
f 583 500 483
f 485 583 483
f 516 499 500
f 583 516 500
f 519 499 516
f 527 583 485
f 515 527 485
f 517 516 583
f 527 517 583
f 517 527 526
f 528 517 526
f 501 504 545
f 546 501 545
f 547 506 471
f 473 547 471
f 473 472 555
f 526 473 555
f 557 547 473
f 526 557 473
f 558 556 566
f 584 558 566
f 584 566 574
f 581 584 574
f 528 526 536
f 537 528 536
f 572 571 474
f 477 572 474
f 573 572 477
f 578 573 477
f 494 578 477
f 479 494 477
f 582 495 492
f 505 550 502
f 585 586 587
f 586 588 587
f 588 589 587
f 589 590 587
f 591 592 593
f 592 594 593
f 595 596 594
f 596 593 594
f 597 598 599
f 598 600 599
f 601 602 600
f 602 599 600
f 603 604 605
f 604 606 605
f 607 608 606
f 608 605 606
f 609 610 611
f 610 589 611
f 588 586 589
f 586 611 589
f 586 612 611
f 613 614 615
f 614 616 615
f 599 602 616
f 602 601 616
f 601 615 616
f 601 617 615
f 617 618 615
f 619 603 620
f 603 621 620
f 619 606 603
f 606 604 603
f 619 622 606
f 622 623 606
f 624 625 626
f 625 627 626
f 624 594 625
f 594 592 625
f 592 591 625
f 624 628 594
f 628 629 594
f 630 631 632
f 631 633 632
f 634 630 635
f 630 632 635
f 634 635 636
f 635 605 636
f 605 608 636
f 608 637 636
f 638 637 607
f 637 608 607
f 639 640 641
f 640 642 641
f 631 630 643
f 630 644 643
f 630 634 644
f 634 645 644
f 634 636 645
f 636 646 645
f 636 637 646
f 637 647 646
f 637 638 647
f 638 648 647
f 649 648 650
f 648 638 650
f 639 641 651
f 641 652 651
f 643 644 653
f 644 654 653
f 644 645 654
f 645 655 654
f 645 646 655
f 646 656 655
f 646 647 656
f 647 657 656
f 658 657 648
f 657 647 648
f 648 649 658
f 649 659 658
f 651 652 660
f 652 661 660
f 653 654 662
f 654 663 662
f 655 664 654
f 664 663 654
f 656 590 655
f 590 664 655
f 657 587 656
f 587 590 656
f 657 658 587
f 658 585 587
f 658 659 585
f 659 665 585
f 659 660 665
f 660 666 665
f 660 661 666
f 662 663 609
f 663 610 609
f 664 589 663
f 589 610 663
f 590 589 664
f 665 612 585
f 612 586 585
f 665 666 612
f 667 668 627
f 668 626 627
f 593 669 591
f 669 625 591
f 670 629 671
f 629 628 671
f 672 671 673
f 671 628 673
f 667 674 668
f 674 675 668
f 676 674 669
f 674 667 669
f 593 677 669
f 677 676 669
f 593 596 677
f 596 678 677
f 671 679 670
f 679 680 670
f 671 672 679
f 672 681 679
f 675 674 682
f 674 683 682
f 674 676 683
f 676 684 683
f 676 677 684
f 677 685 684
f 677 678 685
f 678 686 685
f 678 649 686
f 649 687 686
f 649 680 687
f 680 688 687
f 680 679 688
f 679 689 688
f 682 683 690
f 683 691 690
f 683 684 691
f 684 692 691
f 685 693 684
f 693 692 684
f 685 686 693
f 686 694 693
f 686 687 694
f 687 695 694
f 687 688 695
f 688 696 695
f 688 689 696
f 689 697 696
f 698 699 691
f 699 690 691
f 691 692 698
f 692 700 698
f 693 597 692
f 597 700 692
f 693 694 597
f 694 598 597
f 701 696 702
f 696 697 702
f 703 702 704
f 702 697 704
f 699 698 613
f 698 614 613
f 700 616 698
f 616 614 698
f 597 599 700
f 599 616 700
f 702 618 701
f 618 617 701
f 702 703 618
f 703 705 618
f 620 621 633
f 621 632 633
f 621 603 632
f 603 635 632
f 603 605 635
f 623 706 606
f 706 607 606
f 622 640 623
f 640 706 623
f 622 642 640
f 706 650 607
f 650 638 607
f 640 639 706
f 639 650 706
f 650 639 649
f 639 651 649
f 627 625 667
f 625 669 667
f 629 670 594
f 670 595 594
f 596 595 678
f 595 649 678
f 670 680 595
f 680 649 595
f 679 681 689
f 681 707 689
f 689 707 697
f 707 704 697
f 649 651 659
f 651 660 659
f 694 695 598
f 695 600 598
f 695 696 600
f 696 701 600
f 701 617 600
f 617 601 600
f 618 705 615
f 673 628 624
f 708 709 710
f 710 709 711
f 708 710 709
f 710 711 709
f 709 712 713
f 709 713 711
f 713 712 709
f 711 713 709
f 714 715 716
f 715 714 716
f 715 717 716
f 717 715 716
f 717 718 716
f 718 717 716
f 718 719 716
f 719 718 716
f 720 721 716
f 721 720 716
f 721 722 716
f 722 721 716
f 722 723 716
f 723 722 716
f 723 714 716
f 714 723 716
f 724 719 718
f 718 719 724
f 725 721 720
f 720 721 725
f 726 724 727
f 727 724 726
f 728 725 729
f 729 725 728
f 730 726 731
f 731 726 730
f 732 728 733
f 733 728 732
f 734 730 735
f 735 730 734
f 736 732 737
f 737 732 736
f 738 715 714
f 714 715 738
f 739 717 715
f 715 717 739
f 727 718 717
f 717 718 727
f 740 722 721
f 721 722 740
f 741 723 722
f 722 723 741
f 742 714 723
f 723 714 742
f 743 738 742
f 742 738 743
f 744 739 738
f 738 739 744
f 731 727 739
f 739 727 731
f 745 740 725
f 725 740 745
f 746 741 740
f 740 741 746
f 747 742 741
f 741 742 747
f 748 743 747
f 747 743 748
f 749 744 743
f 743 744 749
f 735 731 744
f 744 731 735
f 750 745 728
f 728 745 750
f 751 746 745
f 745 746 751
f 752 747 746
f 746 747 752
f 753 748 752
f 752 748 753
f 754 749 748
f 748 749 754
f 755 735 749
f 749 735 755
f 756 750 732
f 732 750 756
f 757 751 750
f 750 751 757
f 758 752 751
f 751 752 758
f 759 753 758
f 758 753 759
f 760 754 753
f 753 754 760
f 761 755 754
f 754 755 761
f 762 734 755
f 755 734 762
f 763 736 764
f 764 736 763
f 765 756 736
f 736 756 765
f 766 757 756
f 756 757 766
f 767 758 757
f 757 758 767
f 768 759 767
f 767 759 768
f 769 760 759
f 759 760 769
f 770 761 760
f 760 761 770
f 771 762 761
f 761 762 771
f 772 763 773
f 773 763 772
f 774 765 763
f 763 765 774
f 775 766 765
f 765 766 775
f 776 767 766
f 766 767 776
f 768 776 777
f 776 768 777
f 769 768 777
f 768 769 777
f 770 769 777
f 769 770 777
f 771 770 777
f 770 771 777
f 772 778 777
f 778 772 777
f 774 772 777
f 772 774 777
f 775 774 777
f 774 775 777
f 776 775 777
f 775 776 777
f 779 780 781
f 781 780 779
f 780 782 783
f 783 782 780
f 782 784 785
f 785 784 782
f 784 786 787
f 787 786 784
f 786 788 789
f 789 788 786
f 788 790 791
f 791 790 788
f 790 792 793
f 793 792 790
f 792 794 795
f 795 794 792
f 794 796 797
f 797 796 794
f 796 798 799
f 799 798 796
f 798 800 801
f 801 800 798
f 800 802 803
f 803 802 800
f 802 804 805
f 805 804 802
f 804 806 807
f 807 806 804
f 806 808 809
f 809 808 806
f 808 779 810
f 810 779 808
f 810 781 811
f 811 781 810
f 781 783 812
f 812 783 781
f 783 785 813
f 813 785 783
f 785 787 814
f 814 787 785
f 787 789 815
f 815 789 787
f 789 791 816
f 816 791 789
f 791 793 817
f 817 793 791
f 793 795 818
f 818 795 793
f 795 797 819
f 819 797 795
f 797 799 820
f 820 799 797
f 799 801 821
f 821 801 799
f 801 803 822
f 822 803 801
f 803 805 823
f 823 805 803
f 805 807 824
f 824 807 805
f 807 809 825
f 825 809 807
f 809 810 826
f 826 810 809
f 826 811 827
f 827 811 826
f 811 812 828
f 828 812 811
f 812 813 829
f 829 813 812
f 813 814 830
f 830 814 813
f 814 815 831
f 831 815 814
f 815 816 832
f 832 816 815
f 816 817 833
f 833 817 816
f 817 818 834
f 834 818 817
f 818 819 835
f 835 819 818
f 819 820 836
f 836 820 819
f 820 821 837
f 837 821 820
f 821 822 838
f 838 822 821
f 822 823 839
f 839 823 822
f 823 824 840
f 840 824 823
f 824 825 841
f 841 825 824
f 825 826 842
f 842 826 825
f 842 827 843
f 843 827 842
f 827 828 844
f 844 828 827
f 828 829 845
f 845 829 828
f 829 830 846
f 846 830 829
f 830 831 847
f 847 831 830
f 831 832 848
f 848 832 831
f 832 833 849
f 849 833 832
f 833 834 850
f 850 834 833
f 834 835 851
f 851 835 834
f 835 836 852
f 852 836 835
f 836 837 853
f 853 837 836
f 837 838 854
f 854 838 837
f 838 839 855
f 855 839 838
f 839 840 856
f 856 840 839
f 840 841 857
f 857 841 840
f 841 842 858
f 858 842 841
f 858 843 859
f 859 843 858
f 843 844 860
f 860 844 843
f 844 845 861
f 861 845 844
f 845 846 862
f 862 846 845
f 846 847 863
f 863 847 846
f 847 848 864
f 864 848 847
f 848 849 865
f 865 849 848
f 849 850 866
f 866 850 849
f 850 851 867
f 867 851 850
f 851 852 868
f 868 852 851
f 852 853 869
f 869 853 852
f 853 854 870
f 870 854 853
f 854 855 871
f 871 855 854
f 855 856 872
f 872 856 855
f 856 857 873
f 873 857 856
f 857 858 874
f 874 858 857
f 874 859 875
f 875 859 874
f 859 860 876
f 876 860 859
f 860 861 877
f 877 861 860
f 861 862 878
f 878 862 861
f 862 863 879
f 879 863 862
f 863 864 880
f 880 864 863
f 864 865 881
f 881 865 864
f 865 866 882
f 882 866 865
f 866 867 883
f 883 867 866
f 867 868 884
f 884 868 867
f 868 869 885
f 885 869 868
f 869 870 886
f 886 870 869
f 870 871 887
f 887 871 870
f 871 872 888
f 888 872 871
f 872 873 889
f 889 873 872
f 873 874 890
f 890 874 873
f 890 875 891
f 891 875 890
f 875 876 892
f 892 876 875
f 876 877 893
f 893 877 876
f 877 878 894
f 894 878 877
f 878 879 895
f 895 879 878
f 879 880 896
f 896 880 879
f 880 881 897
f 897 881 880
f 881 882 898
f 898 882 881
f 882 883 899
f 899 883 882
f 883 884 900
f 900 884 883
f 884 885 901
f 901 885 884
f 885 886 902
f 902 886 885
f 886 887 903
f 903 887 886
f 887 888 904
f 904 888 887
f 888 889 905
f 905 889 888
f 889 890 906
f 906 890 889
f 906 891 726
f 726 891 906
f 891 892 724
f 724 892 891
f 892 893 719
f 719 893 892
f 893 894 716
f 716 894 893
f 894 895 720
f 720 895 894
f 895 896 729
f 729 896 895
f 896 897 733
f 733 897 896
f 897 898 737
f 737 898 897
f 898 899 764
f 764 899 898
f 899 900 773
f 773 900 899
f 900 901 778
f 778 901 900
f 901 902 777
f 777 902 901
f 902 903 771
f 771 903 902
f 903 904 762
f 762 904 903
f 904 905 734
f 734 905 904
f 905 906 730
f 730 906 905
f 726 724 719
f 734 762 771
f 1 3 32
f 3 1 32
f 2 5 3
f 5 2 3
f 4 7 5
f 7 4 5
f 6 9 7
f 9 6 7
f 8 11 9
f 11 8 9
f 10 13 11
f 13 10 11
f 12 15 13
f 15 12 13
f 14 17 15
f 17 14 15
f 16 19 17
f 19 16 17
f 18 21 19
f 21 18 19
f 20 23 21
f 23 20 21
f 22 25 23
f 25 22 23
f 24 27 25
f 27 24 25
f 26 29 27
f 29 26 27
f 28 31 29
f 31 28 29
f 30 32 31
f 32 30 31
f 39 41 56
f 40 43 41
f 42 45 43
f 44 47 45
f 724 718 727
f 718 724 727
f 725 720 729
f 720 725 729
f 726 727 731
f 727 726 731
f 728 729 733
f 729 728 733
f 730 731 735
f 731 730 735
f 732 733 737
f 733 732 737
f 734 735 755
f 735 734 755
f 736 737 764
f 737 736 764
f 738 714 742
f 714 738 742
f 739 715 738
f 715 739 738
f 727 717 739
f 717 727 739
f 740 721 725
f 721 740 725
f 741 722 740
f 722 741 740
f 742 723 741
f 723 742 741
f 743 742 747
f 742 743 747
f 744 738 743
f 738 744 743
f 731 739 744
f 739 731 744
f 745 725 728
f 725 745 728
f 746 740 745
f 740 746 745
f 747 741 746
f 741 747 746
f 748 747 752
f 747 748 752
f 749 743 748
f 743 749 748
f 735 744 749
f 744 735 749
f 750 728 732
f 728 750 732
f 751 745 750
f 745 751 750
f 752 746 751
f 746 752 751
f 753 752 758
f 752 753 758
f 754 748 753
f 748 754 753
f 755 749 754
f 749 755 754
f 756 732 736
f 732 756 736
f 757 750 756
f 750 757 756
f 758 751 757
f 751 758 757
f 759 758 767
f 758 759 767
f 760 753 759
f 753 760 759
f 761 754 760
f 754 761 760
f 762 755 761
f 755 762 761
f 763 764 773
f 764 763 773
f 765 736 763
f 736 765 763
f 766 756 765
f 756 766 765
f 767 757 766
f 757 767 766
f 768 767 776
f 767 768 776
f 769 759 768
f 759 769 768
f 770 760 769
f 760 770 769
f 771 761 770
f 761 771 770
f 772 773 778
f 773 772 778
f 774 763 772
f 763 774 772
f 775 765 774
f 765 775 774
f 776 766 775
f 766 776 775
f 779 781 810
f 781 779 810
f 780 783 781
f 783 780 781
f 782 785 783
f 785 782 783
f 784 787 785
f 787 784 785
f 786 789 787
f 789 786 787
f 788 791 789
f 791 788 789
f 790 793 791
f 793 790 791
f 792 795 793
f 795 792 793
f 794 797 795
f 797 794 795
f 796 799 797
f 799 796 797
f 798 801 799
f 801 798 799
f 800 803 801
f 803 800 801
f 802 805 803
f 805 802 803
f 804 807 805
f 807 804 805
f 806 809 807
f 809 806 807
f 808 810 809
f 810 808 809
f 810 811 826
f 811 810 826
f 781 812 811
f 812 781 811
f 783 813 812
f 813 783 812
f 785 814 813
f 814 785 813
f 787 815 814
f 815 787 814
f 789 816 815
f 816 789 815
f 791 817 816
f 817 791 816
f 793 818 817
f 818 793 817
f 795 819 818
f 819 795 818
f 797 820 819
f 820 797 819
f 799 821 820
f 821 799 820
f 801 822 821
f 822 801 821
f 803 823 822
f 823 803 822
f 805 824 823
f 824 805 823
f 807 825 824
f 825 807 824
f 809 826 825
f 826 809 825
f 826 827 842
f 827 826 842
f 811 828 827
f 828 811 827
f 812 829 828
f 829 812 828
f 813 830 829
f 830 813 829
f 814 831 830
f 831 814 830
f 815 832 831
f 832 815 831
f 816 833 832
f 833 816 832
f 817 834 833
f 834 817 833
f 818 835 834
f 835 818 834
f 819 836 835
f 836 819 835
f 820 837 836
f 837 820 836
f 821 838 837
f 838 821 837
f 822 839 838
f 839 822 838
f 823 840 839
f 840 823 839
f 824 841 840
f 841 824 840
f 825 842 841
f 842 825 841
f 842 843 858
f 843 842 858
f 827 844 843
f 844 827 843
f 828 845 844
f 845 828 844
f 829 846 845
f 846 829 845
f 830 847 846
f 847 830 846
f 831 848 847
f 848 831 847
f 832 849 848
f 849 832 848
f 833 850 849
f 850 833 849
f 834 851 850
f 851 834 850
f 835 852 851
f 852 835 851
f 836 853 852
f 853 836 852
f 837 854 853
f 854 837 853
f 838 855 854
f 855 838 854
f 839 856 855
f 856 839 855
f 840 857 856
f 857 840 856
f 841 858 857
f 858 841 857
f 858 859 874
f 859 858 874
f 843 860 859
f 860 843 859
f 844 861 860
f 861 844 860
f 845 862 861
f 862 845 861
f 846 863 862
f 863 846 862
f 847 864 863
f 864 847 863
f 848 865 864
f 865 848 864
f 849 866 865
f 866 849 865
f 850 867 866
f 867 850 866
f 851 868 867
f 868 851 867
f 852 869 868
f 869 852 868
f 853 870 869
f 870 853 869
f 854 871 870
f 871 854 870
f 855 872 871
f 872 855 871
f 856 873 872
f 873 856 872
f 857 874 873
f 874 857 873
f 874 875 890
f 875 874 890
f 859 876 875
f 876 859 875
f 860 877 876
f 877 860 876
f 861 878 877
f 878 861 877
f 862 879 878
f 879 862 878
f 863 880 879
f 880 863 879
f 864 881 880
f 881 864 880
f 865 882 881
f 882 865 881
f 866 883 882
f 883 866 882
f 867 884 883
f 884 867 883
f 868 885 884
f 885 868 884
f 869 886 885
f 886 869 885
f 870 887 886
f 887 870 886
f 871 888 887
f 888 871 887
f 872 889 888
f 889 872 888
f 873 890 889
f 890 873 889
f 890 891 906
f 891 890 906
f 875 892 891
f 892 875 891
f 876 893 892
f 893 876 892
f 877 894 893
f 894 877 893
f 878 895 894
f 895 878 894
f 879 896 895
f 896 879 895
f 880 897 896
f 897 880 896
f 881 898 897
f 898 881 897
f 882 899 898
f 899 882 898
f 883 900 899
f 900 883 899
f 884 901 900
f 901 884 900
f 885 902 901
f 902 885 901
f 886 903 902
f 903 886 902
f 887 904 903
f 904 887 903
f 888 905 904
f 905 888 904
f 889 906 905
f 906 889 905
f 906 726 730
f 726 906 730
f 891 724 726
f 724 891 726
f 892 719 724
f 719 892 724
f 893 716 719
f 716 893 719
f 894 720 716
f 720 894 716
f 895 729 720
f 729 895 720
f 896 733 729
f 733 896 729
f 897 737 733
f 737 897 733
f 898 764 737
f 764 898 737
f 899 773 764
f 773 899 764
f 900 778 773
f 778 900 773
f 901 777 778
f 777 901 778
f 902 771 777
f 771 902 777
f 903 762 771
f 762 903 771
f 904 734 762
f 734 904 762
f 905 730 734
f 730 905 734
f 726 719 716
f 726 716 720
f 726 720 729
f 726 729 733
f 726 733 737
f 726 737 764
f 726 764 773
f 726 773 778
f 726 778 777
f 726 777 771
f 726 771 762
f 726 762 734
f 726 734 730
f 734 771 777
f 734 777 778
f 734 778 773
f 734 773 764
f 734 764 737
f 734 737 733
f 734 733 729
f 734 729 720
f 734 720 716
f 734 716 719
f 734 719 724
f 734 724 726
f 734 726 730
