# Original shape: m1609.obj
# No processing applied - exact copy of source file
# Generated on 2025-10-03 19:05:01

v 0.025000 0.028011 0.275684
v 0.098423 0.028011 0.452945
v 0.067156 0.068661 0.275684
v 0.128232 0.068661 0.128232
v 0.098423 0.028011 0.098423
v 0.125871 0.031022 0.275684
v 0.169750 0.031022 0.381617
v 0.025000 0.110816 0.275684
v 0.098423 0.110816 0.452945
v 0.083716 0.312559 0.275684
v 0.139942 0.312559 0.139942
v 0.098423 0.110816 0.098423
v 0.128232 0.068661 0.423135
v 0.139942 0.312559 0.411425
v 0.118344 0.311053 0.275684
v 0.164428 0.311053 0.164428
v 0.275684 0.068661 0.067156
v 0.275684 0.028011 0.025000
v 0.169750 0.031022 0.169750
v 0.275684 0.028011 0.526367
v 0.275684 0.031022 0.425496
v 0.275684 0.312559 0.083716
v 0.275684 0.110816 0.025000
v 0.275684 0.110816 0.526367
v 0.275684 0.068661 0.484211
v 0.110817 0.643779 0.275684
v 0.202816 0.599756 0.348551
v 0.159106 0.643779 0.392261
v 0.143940 0.658834 0.275684
v 0.182526 0.658834 0.182526
v 0.159106 0.643779 0.159106
v 0.172634 0.599756 0.275684
v 0.117765 0.834860 0.275684
v 0.164018 0.834860 0.387349
v 0.136866 0.907627 0.275684
v 0.177526 0.907627 0.177526
v 0.164018 0.834860 0.164018
v 0.135829 0.756834 0.275684
v 0.176792 0.756834 0.374575
v 0.189978 0.312559 0.189978
v 0.164428 0.311053 0.386939
v 0.154478 0.312559 0.275684
v 0.275684 0.025000 0.275684
v 0.176792 0.756834 0.176792
v 0.193738 0.698373 0.275684
v 0.217739 0.698373 0.333628
v 0.177526 0.907627 0.373841
v 0.195185 0.949643 0.275684
v 0.218762 0.949643 0.218762
v 0.275684 0.311053 0.118344
v 0.275684 0.312559 0.467651
v 0.214464 0.684430 0.214464
v 0.182526 0.658834 0.368841
v 0.189106 0.684430 0.275684
v 0.189978 0.312559 0.361389
v 0.194464 0.434146 0.275684
v 0.218252 0.434146 0.218252
v 0.275684 0.658834 0.143940
v 0.275684 0.643779 0.110817
v 0.202816 0.599756 0.202816
v 0.275684 0.599756 0.378733
v 0.275684 0.643779 0.440550
v 0.275684 0.907627 0.136866
v 0.275684 0.834860 0.117765
v 0.275684 0.834860 0.433602
v 0.275684 0.756834 0.415538
v 0.275684 0.312559 0.154478
v 0.275684 0.311053 0.433023
v 0.275684 0.031022 0.125871
v 0.207878 0.535488 0.275684
v 0.227738 0.535488 0.323629
v 0.275684 0.756834 0.135829
v 0.217739 0.698373 0.217739
v 0.275684 0.698373 0.357629
v 0.275684 0.949643 0.195185
v 0.275684 0.907627 0.414501
v 0.218762 0.949643 0.332605
v 0.275684 0.684430 0.189106
v 0.275684 0.658834 0.407427
v 0.214464 0.684430 0.336903
v 0.270406 0.651307 0.275684
v 0.271952 0.651307 0.271952
v 0.275684 0.434146 0.194464
v 0.275684 0.312559 0.396889
v 0.218252 0.434146 0.333115
v 0.271952 0.651307 0.279416
v 0.227738 0.535488 0.227738
v 0.275684 0.975000 0.275684
v 0.275684 0.599756 0.172634
v 0.275684 0.535488 0.343489
v 0.275684 0.651307 0.270406
v 0.275684 0.684430 0.362261
v 0.275684 0.698373 0.193738
v 0.275684 0.651307 0.280961
v 0.275684 0.535488 0.207878
v 0.275684 0.434146 0.356903
v 0.275684 0.949643 0.356182
v 0.423135 0.068661 0.128232
v 0.452945 0.028011 0.098423
v 0.411425 0.312559 0.139942
v 0.452945 0.110816 0.098423
v 0.386939 0.311053 0.164428
v 0.368841 0.658834 0.182526
v 0.392261 0.643779 0.159106
v 0.373841 0.907627 0.177526
v 0.387349 0.834860 0.164018
v 0.361389 0.312559 0.189978
v 0.381617 0.031022 0.169750
v 0.374575 0.756834 0.176792
v 0.332605 0.949643 0.218762
v 0.336903 0.684430 0.214464
v 0.333115 0.434146 0.218252
v 0.348551 0.599756 0.202816
v 0.279416 0.651307 0.271952
v 0.333628 0.698373 0.217739
v 0.323629 0.535488 0.227738
v 0.425496 0.031022 0.275684
v 0.381617 0.031022 0.381617
v 0.332605 0.949643 0.332605
v 0.356182 0.949643 0.275684
v 0.279416 0.651307 0.279416
v 0.336903 0.684430 0.336903
v 0.323629 0.535488 0.323629
v 0.333115 0.434146 0.333115
v 0.373841 0.907627 0.373841
v 0.361389 0.312559 0.361389
v 0.333628 0.698373 0.333628
v 0.368841 0.658834 0.368841
v 0.348551 0.599756 0.348551
v 0.386939 0.311053 0.386939
v 0.392261 0.643779 0.392261
v 0.387349 0.834860 0.387349
v 0.374575 0.756834 0.374575
v 0.411425 0.312559 0.411425
v 0.452945 0.110816 0.452945
v 0.423135 0.068661 0.423135
v 0.452945 0.028011 0.452945
v 0.357629 0.698373 0.275684
v 0.280961 0.651307 0.275684
v 0.362261 0.684430 0.275684
v 0.378733 0.599756 0.275684
v 0.343489 0.535488 0.275684
v 0.356903 0.434146 0.275684
v 0.414501 0.907627 0.275684
v 0.396889 0.312559 0.275684
v 0.415538 0.756834 0.275684
v 0.407427 0.658834 0.275684
v 0.440550 0.643779 0.275684
v 0.433023 0.311053 0.275684
v 0.433602 0.834860 0.275684
v 0.526367 0.028011 0.275684
v 0.467651 0.312559 0.275684
v 0.526367 0.110816 0.275684
v 0.484211 0.068661 0.275684
f 1 2 3
f 1 3 4
f 1 4 5
f 1 5 6
f 1 6 7
f 1 7 2
f 8 9 10
f 8 10 11
f 8 11 12
f 8 12 3
f 8 3 13
f 8 13 9
f 3 12 4
f 3 2 13
f 10 9 14
f 10 14 15
f 10 15 16
f 10 16 11
f 5 4 17
f 5 17 18
f 5 18 19
f 5 19 6
f 2 20 13
f 2 7 21
f 2 21 20
f 12 11 22
f 12 22 23
f 12 23 4
f 9 24 14
f 9 13 25
f 9 25 24
f 26 27 28
f 26 28 29
f 26 29 30
f 26 30 31
f 26 31 32
f 26 32 27
f 33 34 35
f 33 35 36
f 33 36 37
f 33 37 38
f 33 38 39
f 33 39 34
f 15 40 16
f 15 14 41
f 15 41 42
f 15 42 40
f 6 19 43
f 6 43 7
f 4 23 17
f 13 20 25
f 38 37 44
f 38 44 45
f 38 45 46
f 38 46 39
f 35 34 47
f 35 47 48
f 35 48 49
f 35 49 36
f 11 16 50
f 11 50 22
f 14 24 51
f 14 51 41
f 29 52 30
f 29 28 53
f 29 53 54
f 29 54 52
f 42 55 56
f 42 56 57
f 42 57 40
f 42 41 55
f 31 30 58
f 31 58 59
f 31 59 60
f 31 60 32
f 28 61 62
f 28 62 53
f 28 27 61
f 37 36 63
f 37 63 64
f 37 64 44
f 34 65 47
f 34 39 66
f 34 66 65
f 16 67 50
f 16 40 67
f 41 51 68
f 41 68 55
f 19 18 69
f 19 69 43
f 7 43 21
f 32 60 70
f 32 70 71
f 32 71 27
f 44 64 72
f 44 72 73
f 44 73 45
f 39 46 74
f 39 74 66
f 36 49 75
f 36 75 63
f 47 65 76
f 47 76 77
f 47 77 48
f 30 78 58
f 30 52 78
f 53 62 79
f 53 79 80
f 53 80 54
f 54 80 81
f 54 81 82
f 54 82 52
f 40 57 83
f 40 83 67
f 55 84 85
f 55 85 56
f 55 68 84
f 45 73 81
f 45 81 86
f 45 86 46
f 56 85 70
f 56 70 87
f 56 87 57
f 48 77 88
f 48 88 49
f 60 59 89
f 60 89 87
f 60 87 70
f 27 71 90
f 27 90 61
f 70 85 71
f 52 82 91
f 52 91 78
f 80 92 86
f 80 86 81
f 80 79 92
f 73 72 93
f 73 93 82
f 73 82 81
f 46 86 94
f 46 94 74
f 57 87 95
f 57 95 83
f 85 96 71
f 85 84 96
f 49 88 75
f 77 97 88
f 77 76 97
f 87 89 95
f 71 96 90
f 82 93 91
f 86 92 94
f 18 17 98
f 18 98 99
f 18 99 69
f 23 22 100
f 23 100 101
f 23 101 17
f 17 101 98
f 22 50 102
f 22 102 100
f 59 58 103
f 59 103 104
f 59 104 89
f 64 63 105
f 64 105 106
f 64 106 72
f 50 107 102
f 50 67 107
f 69 99 108
f 69 108 43
f 72 106 109
f 72 109 93
f 63 75 110
f 63 110 105
f 58 111 103
f 58 78 111
f 67 83 112
f 67 112 107
f 89 104 113
f 89 113 95
f 78 91 114
f 78 114 111
f 93 109 115
f 93 115 91
f 83 95 116
f 83 116 112
f 75 88 110
f 95 113 116
f 91 115 114
f 43 117 118
f 43 118 21
f 43 108 117
f 88 97 119
f 88 119 120
f 88 120 110
f 94 121 74
f 94 92 122
f 94 122 121
f 90 123 61
f 90 96 124
f 90 124 123
f 97 76 125
f 97 125 119
f 96 84 126
f 96 126 124
f 74 127 66
f 74 121 127
f 92 79 128
f 92 128 122
f 61 129 62
f 61 123 129
f 84 68 130
f 84 130 126
f 79 62 131
f 79 131 128
f 76 132 125
f 76 65 132
f 66 133 65
f 66 127 133
f 21 118 20
f 68 51 134
f 68 134 130
f 65 133 132
f 62 129 131
f 51 24 135
f 51 135 134
f 25 136 24
f 25 20 137
f 25 137 136
f 20 118 137
f 24 136 135
f 114 115 138
f 114 138 139
f 114 139 111
f 121 139 127
f 121 122 140
f 121 140 139
f 139 138 127
f 139 140 111
f 116 113 141
f 116 141 142
f 116 142 112
f 123 142 129
f 123 124 143
f 123 143 142
f 110 120 105
f 119 125 144
f 119 144 120
f 112 142 143
f 112 143 107
f 124 126 145
f 124 145 143
f 115 109 146
f 115 146 138
f 127 138 133
f 111 140 103
f 122 128 147
f 122 147 140
f 142 141 129
f 113 104 148
f 113 148 141
f 129 141 131
f 120 144 105
f 143 145 107
f 138 146 133
f 107 145 102
f 126 130 149
f 126 149 145
f 140 147 103
f 103 147 104
f 128 131 148
f 128 148 147
f 105 144 106
f 125 150 144
f 125 132 150
f 109 106 150
f 109 150 146
f 133 146 132
f 141 148 131
f 108 151 117
f 108 99 151
f 118 117 137
f 102 145 149
f 102 149 100
f 130 134 152
f 130 152 149
f 106 144 150
f 132 146 150
f 104 147 148
f 100 149 152
f 100 152 101
f 134 135 153
f 134 153 152
f 98 101 153
f 98 153 154
f 98 154 99
f 136 154 135
f 136 137 151
f 136 151 154
f 117 151 137
f 99 154 151
f 101 152 153
f 135 154 153
