# Unified Preprocessed OBJ file from m1608.obj
# Applied remeshing: Yes
# Applied 4-step normalization: centering, PCA alignment, flipping, scaling
# Generated on 2025-09-29 15:06:39

v -0.448171 0.000413 0.122807
v -0.448171 0.000000 0.000000
v -0.448171 0.061760 0.106148
v -0.500802 0.088229 0.151639
v -0.500802 0.000589 0.175437
v -0.465715 0.123520 0.212295
v -0.465715 0.000824 0.245613
v -0.413083 0.132343 0.227459
v -0.413083 0.000883 0.263157
v -0.307820 0.123520 0.212295
v -0.307820 0.000824 0.245613
v -0.255189 0.079406 0.136475
v -0.255189 0.000530 0.157894
v -0.220100 0.061760 0.106148
v -0.220100 0.000413 0.122807
v -0.167469 0.044114 0.075819
v -0.167469 0.000294 0.087719
v -0.114837 0.070583 0.121311
v -0.114837 0.000470 0.140350
v -0.062205 0.105874 0.181967
v -0.062205 0.000706 0.210525
v 0.007969 0.132343 0.227459
v 0.007969 0.000883 0.263157
v 0.060601 0.088229 0.151639
v 0.060601 0.000589 0.175437
v 0.113232 0.061760 0.106148
v 0.113232 0.000413 0.122807
v 0.218496 0.061760 0.106148
v 0.218496 0.000413 0.122807
v 0.288671 0.123520 0.212294
v 0.288671 0.000824 0.245613
v 0.393935 0.149988 0.257786
v 0.393934 0.001000 0.298244
v 0.429022 0.114697 0.197131
v 0.429022 0.000765 0.228069
v 0.464110 0.149988 0.257786
v 0.464110 0.001000 0.298244
v 0.481653 0.194103 0.333606
v 0.481653 0.001295 0.385963
v 0.499198 0.211748 0.363934
v 0.499198 0.001412 0.421050
v 0.481653 -0.000000 -0.000000
v -0.448171 -0.061047 0.106559
v -0.500802 -0.087209 0.152227
v -0.465715 -0.122093 0.213119
v -0.413083 -0.130814 0.228342
v -0.307820 -0.122093 0.213119
v -0.255189 -0.078488 0.137005
v -0.220100 -0.061047 0.106559
v -0.167469 -0.043605 0.076114
v -0.114837 -0.069767 0.121782
v -0.062205 -0.104651 0.182673
v 0.007969 -0.130814 0.228342
v 0.060601 -0.087209 0.152227
v 0.113232 -0.061047 0.106559
v 0.218496 -0.061047 0.106559
v 0.288671 -0.122093 0.213119
v 0.393934 -0.148255 0.258787
v 0.429022 -0.113372 0.197896
v 0.464110 -0.148255 0.258787
v 0.481653 -0.191860 0.334900
v 0.499198 -0.209302 0.365346
v -0.448171 -0.106148 0.061760
v -0.500802 -0.151639 0.088229
v -0.465715 -0.212294 0.123520
v -0.413083 -0.227459 0.132343
v -0.307820 -0.212294 0.123520
v -0.255189 -0.136475 0.079406
v -0.220100 -0.106148 0.061760
v -0.167469 -0.075819 0.044114
v -0.114837 -0.121311 0.070583
v -0.062205 -0.181967 0.105874
v 0.007969 -0.227459 0.132343
v 0.060601 -0.151639 0.088229
v 0.113232 -0.106148 0.061760
v 0.218496 -0.106148 0.061760
v 0.288671 -0.212295 0.123520
v 0.393934 -0.257786 0.149988
v 0.429022 -0.197131 0.114697
v 0.464110 -0.257786 0.149988
v 0.481653 -0.333606 0.194103
v 0.499198 -0.363934 0.211748
v -0.448171 -0.122807 0.000413
v -0.500802 -0.175437 0.000589
v -0.465715 -0.245613 0.000824
v -0.413083 -0.263157 0.000883
v -0.307820 -0.245613 0.000824
v -0.255189 -0.157894 0.000530
v -0.220100 -0.122807 0.000413
v -0.167469 -0.087719 0.000294
v -0.114837 -0.140350 0.000470
v -0.062205 -0.210525 0.000706
v 0.007969 -0.263157 0.000883
v 0.060601 -0.175437 0.000589
v 0.113232 -0.122807 0.000413
v 0.218496 -0.122807 0.000413
v 0.288671 -0.245613 0.000824
v 0.393934 -0.298244 0.001000
v 0.429022 -0.228069 0.000765
v 0.464110 -0.298244 0.001000
v 0.481653 -0.385962 0.001295
v 0.499198 -0.421050 0.001412
v -0.448171 -0.106559 -0.061047
v -0.500802 -0.152227 -0.087209
v -0.465715 -0.213119 -0.122093
v -0.413083 -0.228342 -0.130814
v -0.307820 -0.213119 -0.122093
v -0.255189 -0.137005 -0.078488
v -0.220100 -0.106559 -0.061047
v -0.167469 -0.076114 -0.043605
v -0.114837 -0.121782 -0.069767
v -0.062205 -0.182673 -0.104651
v 0.007969 -0.228342 -0.130814
v 0.060601 -0.152227 -0.087209
v 0.113232 -0.106559 -0.061047
v 0.218496 -0.106559 -0.061047
v 0.288671 -0.213119 -0.122093
v 0.393934 -0.258787 -0.148255
v 0.429022 -0.197896 -0.113372
v 0.464110 -0.258787 -0.148255
v 0.481653 -0.334900 -0.191860
v 0.499198 -0.365346 -0.209302
v -0.448171 -0.061760 -0.106148
v -0.500802 -0.088229 -0.151639
v -0.465715 -0.123520 -0.212295
v -0.413083 -0.132343 -0.227459
v -0.307820 -0.123520 -0.212295
v -0.255189 -0.079406 -0.136475
v -0.220100 -0.061760 -0.106148
v -0.167469 -0.044114 -0.075819
v -0.114837 -0.070583 -0.121311
v -0.062205 -0.105874 -0.181967
v 0.007969 -0.132343 -0.227459
v 0.060601 -0.088229 -0.151639
v 0.113232 -0.061760 -0.106148
v 0.218496 -0.061760 -0.106148
v 0.288671 -0.123520 -0.212295
v 0.393934 -0.149988 -0.257786
v 0.429022 -0.114697 -0.197131
v 0.464110 -0.149988 -0.257786
v 0.481653 -0.194103 -0.333606
v 0.499198 -0.211748 -0.363934
v -0.448171 -0.000413 -0.122807
v -0.500802 -0.000588 -0.175437
v -0.465715 -0.000824 -0.245613
v -0.413083 -0.000883 -0.263157
v -0.307820 -0.000824 -0.245613
v -0.255189 -0.000530 -0.157894
v -0.220100 -0.000413 -0.122807
v -0.167469 -0.000294 -0.087719
v -0.114837 -0.000471 -0.140350
v -0.062205 -0.000706 -0.210525
v 0.007969 -0.000883 -0.263157
v 0.060601 -0.000589 -0.175437
v 0.113232 -0.000413 -0.122807
v 0.218496 -0.000413 -0.122807
v 0.288671 -0.000824 -0.245613
v 0.393934 -0.001000 -0.298244
v 0.429022 -0.000766 -0.228069
v 0.464110 -0.001000 -0.298244
v 0.481653 -0.001295 -0.385962
v 0.499198 -0.001412 -0.421050
v -0.448171 0.061047 -0.106559
v -0.500802 0.087209 -0.152227
v -0.465715 0.122093 -0.213119
v -0.413083 0.130814 -0.228342
v -0.307820 0.122093 -0.213119
v -0.255189 0.078488 -0.137005
v -0.220100 0.061047 -0.106559
v -0.167469 0.043605 -0.076114
v -0.114837 0.069767 -0.121782
v -0.062205 0.104651 -0.182673
v 0.007969 0.130814 -0.228342
v 0.060601 0.087209 -0.152227
v 0.113232 0.061047 -0.106559
v 0.218496 0.061047 -0.106559
v 0.288671 0.122093 -0.213119
v 0.393934 0.148255 -0.258787
v 0.429022 0.113372 -0.197896
v 0.464110 0.148255 -0.258787
v 0.481653 0.191860 -0.334901
v 0.499198 0.209302 -0.365346
v -0.448171 0.106148 -0.061760
v -0.500802 0.151639 -0.088229
v -0.465715 0.212295 -0.123520
v -0.413083 0.227459 -0.132343
v -0.307820 0.212295 -0.123520
v -0.255189 0.136475 -0.079406
v -0.220100 0.106148 -0.061760
v -0.167469 0.075819 -0.044114
v -0.114837 0.121311 -0.070583
v -0.062205 0.181967 -0.105874
v 0.007969 0.227459 -0.132343
v 0.060601 0.151639 -0.088229
v 0.113232 0.106148 -0.061760
v 0.218496 0.106148 -0.061760
v 0.288671 0.212294 -0.123520
v 0.393935 0.257786 -0.149988
v 0.429022 0.197131 -0.114697
v 0.464110 0.257786 -0.149988
v 0.481653 0.333606 -0.194103
v 0.499198 0.363934 -0.211748
v -0.448171 0.122807 -0.000413
v -0.500802 0.175437 -0.000589
v -0.465715 0.245613 -0.000824
v -0.413083 0.263157 -0.000883
v -0.307820 0.245613 -0.000824
v -0.255189 0.157894 -0.000530
v -0.220100 0.122807 -0.000413
v -0.167469 0.087719 -0.000294
v -0.114837 0.140350 -0.000470
v -0.062205 0.210525 -0.000706
v 0.007969 0.263157 -0.000883
v 0.060601 0.175437 -0.000589
v 0.113232 0.122807 -0.000413
v 0.218496 0.122807 -0.000413
v 0.288671 0.245613 -0.000824
v 0.393935 0.298244 -0.001000
v 0.429022 0.228069 -0.000765
v 0.464110 0.298244 -0.001000
v 0.481653 0.385963 -0.001295
v 0.499198 0.421050 -0.001412
v -0.448171 0.106559 0.061047
v -0.500802 0.152227 0.087209
v -0.465715 0.213119 0.122093
v -0.413083 0.228342 0.130814
v -0.307820 0.213119 0.122093
v -0.255189 0.137005 0.078488
v -0.220100 0.106559 0.061047
v -0.167469 0.076114 0.043605
v -0.114837 0.121782 0.069767
v -0.062205 0.182673 0.104651
v 0.007969 0.228342 0.130814
v 0.060601 0.152227 0.087209
v 0.113232 0.106559 0.061047
v 0.218496 0.106559 0.061047
v 0.288671 0.213119 0.122093
v 0.393935 0.258787 0.148255
v 0.429022 0.197896 0.113372
v 0.464110 0.258787 0.148255
v 0.481653 0.334901 0.191861
v 0.499198 0.365346 0.209302
v -0.448171 0.000206 0.061403
v -0.448171 0.030880 0.053074
v -0.448171 0.031086 0.114477
v -0.474487 0.074994 0.128894
v -0.474487 0.044321 0.137223
v -0.474487 0.000501 0.149122
v -0.500802 0.044409 0.163538
v -0.483259 0.105874 0.181967
v -0.483259 0.062054 0.193866
v -0.483259 0.000706 0.210525
v -0.465715 0.062172 0.228954
v -0.439399 0.127931 0.219877
v -0.439399 0.066583 0.236536
v -0.439399 0.000854 0.254385
v -0.413083 0.066613 0.245308
v -0.360452 0.127931 0.219877
v -0.360452 0.062201 0.237726
v -0.360452 0.000854 0.254385
v -0.307820 0.062172 0.228954
v -0.281504 0.101463 0.174385
v -0.281504 0.040115 0.191044
v -0.281504 0.000677 0.201754
v -0.255189 0.039968 0.147185
v -0.237644 0.070583 0.121311
v -0.237644 0.031145 0.132021
v -0.237644 0.000471 0.140350
v -0.220100 0.031086 0.114477
v -0.193784 0.052937 0.090983
v -0.193784 0.022263 0.099313
v -0.193784 0.000353 0.105263
v -0.167469 0.022204 0.081769
v -0.141153 0.057348 0.098565
v -0.141153 0.035438 0.104515
v -0.141153 0.000382 0.114035
v -0.114837 0.035527 0.130831
v -0.088521 0.088228 0.151639
v -0.088521 0.053172 0.161159
v -0.088521 0.000588 0.175438
v -0.062205 0.053290 0.196246
v -0.027118 0.119108 0.204713
v -0.027118 0.066524 0.218992
v -0.027118 0.000795 0.236841
v 0.007969 0.066613 0.245308
v 0.034285 0.110286 0.189549
v 0.034285 0.044556 0.207398
v 0.034285 0.000736 0.219297
v 0.060601 0.044409 0.163538
v 0.086917 0.074994 0.128894
v 0.086917 0.031174 0.140792
v 0.086917 0.000501 0.149122
v 0.113232 0.031086 0.114477
v 0.165864 0.061760 0.106148
v 0.165864 0.031086 0.114477
v 0.165864 0.000413 0.122807
v 0.218496 0.031086 0.114477
v 0.253583 0.092640 0.159221
v 0.253583 0.061966 0.167551
v 0.253583 0.000618 0.184210
v 0.288671 0.062172 0.228954
v 0.341303 0.136754 0.235040
v 0.341303 0.075406 0.251700
v 0.341303 0.000912 0.271929
v 0.393934 0.075494 0.278015
v 0.411478 0.132343 0.227459
v 0.411478 0.057849 0.247688
v 0.411478 0.000883 0.263157
v 0.429022 0.057731 0.212600
v 0.446566 0.132343 0.227459
v 0.446566 0.075377 0.242928
v 0.446566 0.000883 0.263157
v 0.464110 0.075494 0.278015
v 0.472882 0.172046 0.295696
v 0.472882 0.097552 0.315925
v 0.472882 0.001148 0.342104
v 0.481653 0.097699 0.359785
v 0.490426 0.202926 0.348770
v 0.490426 0.106522 0.374948
v 0.490426 0.001354 0.403506
v 0.499198 0.106580 0.392492
v 0.490426 0.105874 0.181967
v 0.490426 0.000706 0.210525
v -0.448171 -0.030524 0.053280
v -0.448171 -0.030317 0.114683
v -0.474487 -0.030229 0.140998
v -0.474487 -0.074128 0.129393
v -0.500802 -0.043310 0.163832
v -0.483259 -0.043192 0.198920
v -0.483259 -0.104651 0.182673
v -0.465715 -0.060635 0.229366
v -0.439399 -0.060605 0.238138
v -0.439399 -0.126454 0.220731
v -0.413083 -0.064966 0.245749
v -0.360452 -0.064995 0.236978
v -0.360452 -0.126454 0.220731
v -0.307820 -0.060635 0.229366
v -0.281504 -0.060782 0.185507
v -0.281504 -0.100291 0.175062
v -0.255189 -0.038979 0.147450
v -0.237644 -0.039038 0.129906
v -0.237644 -0.069768 0.121782
v -0.220100 -0.030317 0.114683
v -0.193784 -0.030377 0.097139
v -0.193784 -0.052326 0.091337
v -0.167469 -0.021655 0.081917
v -0.141153 -0.021567 0.108232
v -0.141153 -0.056686 0.098948
v -0.114837 -0.034648 0.131066
v -0.088521 -0.034530 0.166154
v -0.088521 -0.087209 0.152228
v -0.062205 -0.051972 0.196599
v -0.027118 -0.051884 0.222915
v -0.027118 -0.117733 0.205508
v 0.007969 -0.064966 0.245749
v 0.034285 -0.065113 0.201889
v 0.034285 -0.109012 0.190284
v 0.060601 -0.043310 0.163832
v 0.086917 -0.043398 0.137517
v 0.086917 -0.074128 0.129393
v 0.113232 -0.030317 0.114683
v 0.165864 -0.030317 0.114683
v 0.165864 -0.061047 0.106559
v 0.218496 -0.030317 0.114683
v 0.253583 -0.030112 0.176086
v 0.253583 -0.091570 0.159839
v 0.288671 -0.060635 0.229366
v 0.341303 -0.060546 0.255682
v 0.341303 -0.135174 0.235953
v 0.393934 -0.073628 0.278516
v 0.411478 -0.073745 0.243428
v 0.411478 -0.130814 0.228342
v 0.429022 -0.056303 0.212982
v 0.446566 -0.056186 0.248070
v 0.446566 -0.130814 0.228342
v 0.464110 -0.073628 0.278516
v 0.472882 -0.073480 0.322375
v 0.472882 -0.170058 0.296844
v 0.481653 -0.095282 0.360432
v 0.490426 -0.095224 0.377975
v 0.490426 -0.200581 0.350123
v 0.499198 -0.103945 0.393198
v 0.490426 -0.104651 0.182673
v -0.448171 -0.053074 0.030880
v -0.448171 -0.083597 0.084160
v -0.474487 -0.096678 0.106994
v -0.474487 -0.128894 0.074994
v -0.500802 -0.119424 0.120228
v -0.483259 -0.136866 0.150674
v -0.483259 -0.181967 0.105874
v -0.465715 -0.167194 0.168319
v -0.439399 -0.171554 0.175931
v -0.439399 -0.219877 0.127931
v -0.413083 -0.179136 0.180342
v -0.360452 -0.174776 0.172731
v -0.360452 -0.219877 0.127931
v -0.307820 -0.167194 0.168319
v -0.281504 -0.145391 0.130262
v -0.281504 -0.174385 0.101463
v -0.255189 -0.107482 0.108205
v -0.237644 -0.098761 0.092983
v -0.237644 -0.121311 0.070583
v -0.220100 -0.083597 0.084160
v -0.193784 -0.074876 0.068937
v -0.193784 -0.090983 0.052937
v -0.167469 -0.059712 0.060114
v -0.141153 -0.072793 0.082948
v -0.141153 -0.098565 0.057348
v -0.114837 -0.095539 0.096183
v -0.088521 -0.112981 0.126628
v -0.088521 -0.151639 0.088228
v -0.062205 -0.143309 0.144274
v -0.027118 -0.156391 0.167108
v -0.027118 -0.204713 0.119108
v 0.007969 -0.179137 0.180342
v 0.034285 -0.157334 0.142285
v 0.034285 -0.189549 0.110286
v 0.060601 -0.119424 0.120228
v 0.086917 -0.106343 0.097394
v 0.086917 -0.128894 0.074994
v 0.113232 -0.083597 0.084160
v 0.165864 -0.083597 0.084160
v 0.165864 -0.106148 0.061760
v 0.218496 -0.083597 0.084160
v 0.253583 -0.114120 0.137440
v 0.253583 -0.159221 0.092640
v 0.288671 -0.167194 0.168319
v 0.341303 -0.180275 0.191154
v 0.341303 -0.235040 0.136754
v 0.393934 -0.203021 0.204388
v 0.411478 -0.185579 0.173942
v 0.411478 -0.227459 0.132343
v 0.429022 -0.155252 0.156296
v 0.446566 -0.172693 0.186742
v 0.446566 -0.227459 0.132343
v 0.464110 -0.203021 0.204388
v 0.472882 -0.224823 0.242444
v 0.472882 -0.295696 0.172046
v 0.481653 -0.262733 0.264502
v 0.490426 -0.271454 0.279725
v 0.490426 -0.348770 0.202926
v 0.499198 -0.286618 0.288547
v 0.490426 -0.181967 0.105874
v -0.448171 -0.061403 0.000206
v -0.448171 -0.114477 0.031086
v -0.474487 -0.137223 0.044321
v -0.474487 -0.149122 0.000501
v -0.500802 -0.163538 0.044409
v -0.483259 -0.193866 0.062054
v -0.483259 -0.210525 0.000706
v -0.465715 -0.228954 0.062172
v -0.439399 -0.236536 0.066583
v -0.439399 -0.254385 0.000854
v -0.413083 -0.245308 0.066613
v -0.360452 -0.237726 0.062201
v -0.360452 -0.254385 0.000854
v -0.307820 -0.228954 0.062172
v -0.281504 -0.191044 0.040115
v -0.281504 -0.201754 0.000677
v -0.255189 -0.147185 0.039968
v -0.237644 -0.132021 0.031145
v -0.237644 -0.140350 0.000471
v -0.220100 -0.114477 0.031086
v -0.193784 -0.099313 0.022263
v -0.193784 -0.105263 0.000353
v -0.167469 -0.081769 0.022204
v -0.141153 -0.104515 0.035438
v -0.141153 -0.114035 0.000382
v -0.114837 -0.130831 0.035527
v -0.088521 -0.161159 0.053172
v -0.088521 -0.175438 0.000588
v -0.062205 -0.196246 0.053290
v -0.027118 -0.218992 0.066524
v -0.027118 -0.236841 0.000795
v 0.007969 -0.245308 0.066613
v 0.034285 -0.207398 0.044556
v 0.034285 -0.219297 0.000736
v 0.060601 -0.163538 0.044409
v 0.086917 -0.140792 0.031174
v 0.086917 -0.149122 0.000501
v 0.113232 -0.114477 0.031086
v 0.165864 -0.114477 0.031086
v 0.165864 -0.122807 0.000413
v 0.218496 -0.114477 0.031086
v 0.253583 -0.167551 0.061966
v 0.253583 -0.184210 0.000618
v 0.288671 -0.228954 0.062172
v 0.341303 -0.251700 0.075406
v 0.341303 -0.271929 0.000912
v 0.393934 -0.278015 0.075494
v 0.411478 -0.247688 0.057849
v 0.411478 -0.263157 0.000883
v 0.429022 -0.212600 0.057731
v 0.446566 -0.242928 0.075377
v 0.446566 -0.263157 0.000883
v 0.464110 -0.278015 0.075494
v 0.472882 -0.315925 0.097552
v 0.472882 -0.342103 0.001147
v 0.481653 -0.359784 0.097699
v 0.490426 -0.374948 0.106522
v 0.490426 -0.403506 0.001354
v 0.499198 -0.392492 0.106580
v 0.490426 -0.210525 0.000706
v -0.448171 -0.053280 -0.030524
v -0.448171 -0.114683 -0.030317
v -0.474487 -0.140998 -0.030229
v -0.474487 -0.129393 -0.074128
v -0.500802 -0.163832 -0.043310
v -0.483259 -0.198920 -0.043192
v -0.483259 -0.182673 -0.104651
v -0.465715 -0.229366 -0.060635
v -0.439399 -0.238138 -0.060605
v -0.439399 -0.220731 -0.126454
v -0.413083 -0.245749 -0.064966
v -0.360452 -0.236978 -0.064995
v -0.360452 -0.220731 -0.126454
v -0.307820 -0.229366 -0.060635
v -0.281504 -0.185507 -0.060782
v -0.281504 -0.175062 -0.100291
v -0.255189 -0.147450 -0.038979
v -0.237644 -0.129906 -0.039038
v -0.237644 -0.121782 -0.069768
v -0.220100 -0.114683 -0.030317
v -0.193784 -0.097139 -0.030377
v -0.193784 -0.091337 -0.052326
v -0.167469 -0.081917 -0.021655
v -0.141153 -0.108232 -0.021567
v -0.141153 -0.098948 -0.056686
v -0.114837 -0.131066 -0.034648
v -0.088521 -0.166154 -0.034530
v -0.088521 -0.152228 -0.087209
v -0.062205 -0.196599 -0.051972
v -0.027118 -0.222915 -0.051884
v -0.027118 -0.205508 -0.117733
v 0.007969 -0.245749 -0.064966
v 0.034285 -0.201889 -0.065113
v 0.034285 -0.190284 -0.109012
v 0.060601 -0.163832 -0.043310
v 0.086917 -0.137517 -0.043398
v 0.086917 -0.129393 -0.074128
v 0.113232 -0.114683 -0.030317
v 0.165864 -0.114683 -0.030317
v 0.165864 -0.106559 -0.061047
v 0.218496 -0.114683 -0.030317
v 0.253583 -0.176086 -0.030112
v 0.253583 -0.159839 -0.091570
v 0.288671 -0.229366 -0.060635
v 0.341303 -0.255682 -0.060546
v 0.341303 -0.235953 -0.135174
v 0.393934 -0.278516 -0.073628
v 0.411478 -0.243428 -0.073745
v 0.411478 -0.228342 -0.130814
v 0.429022 -0.212982 -0.056303
v 0.446566 -0.248070 -0.056186
v 0.446566 -0.228342 -0.130814
v 0.464110 -0.278516 -0.073628
v 0.472882 -0.322375 -0.073480
v 0.472882 -0.296844 -0.170058
v 0.481653 -0.360431 -0.095282
v 0.490426 -0.377975 -0.095224
v 0.490426 -0.350123 -0.200581
v 0.499198 -0.393198 -0.103945
v 0.490426 -0.182673 -0.104651
v -0.448171 -0.030880 -0.053074
v -0.448171 -0.084160 -0.083597
v -0.474487 -0.106994 -0.096678
v -0.474487 -0.074994 -0.128894
v -0.500802 -0.120228 -0.119424
v -0.483259 -0.150674 -0.136866
v -0.483259 -0.105874 -0.181967
v -0.465715 -0.168319 -0.167194
v -0.439399 -0.175931 -0.171554
v -0.439399 -0.127931 -0.219877
v -0.413083 -0.180342 -0.179137
v -0.360452 -0.172731 -0.174776
v -0.360452 -0.127931 -0.219877
v -0.307820 -0.168319 -0.167194
v -0.281504 -0.130262 -0.145391
v -0.281504 -0.101463 -0.174385
v -0.255189 -0.108205 -0.107482
v -0.237644 -0.092983 -0.098761
v -0.237644 -0.070583 -0.121311
v -0.220100 -0.084160 -0.083597
v -0.193784 -0.068937 -0.074876
v -0.193784 -0.052937 -0.090983
v -0.167469 -0.060114 -0.059712
v -0.141153 -0.082948 -0.072793
v -0.141153 -0.057348 -0.098565
v -0.114837 -0.096183 -0.095539
v -0.088521 -0.126628 -0.112981
v -0.088521 -0.088228 -0.151639
v -0.062205 -0.144274 -0.143309
v -0.027118 -0.167108 -0.156391
v -0.027118 -0.119108 -0.204713
v 0.007969 -0.180342 -0.179137
v 0.034285 -0.142285 -0.157334
v 0.034285 -0.110286 -0.189549
v 0.060601 -0.120228 -0.119424
v 0.086917 -0.097394 -0.106343
v 0.086917 -0.074994 -0.128894
v 0.113232 -0.084160 -0.083597
v 0.165864 -0.084160 -0.083597
v 0.165864 -0.061760 -0.106148
v 0.218496 -0.084160 -0.083597
v 0.253583 -0.137440 -0.114120
v 0.253583 -0.092640 -0.159221
v 0.288671 -0.168320 -0.167194
v 0.341303 -0.191154 -0.180275
v 0.341303 -0.136754 -0.235040
v 0.393934 -0.204388 -0.203021
v 0.411478 -0.173942 -0.185579
v 0.411478 -0.132343 -0.227459
v 0.429022 -0.156297 -0.155252
v 0.446566 -0.186742 -0.172693
v 0.446566 -0.132343 -0.227459
v 0.464110 -0.204388 -0.203021
v 0.472882 -0.242444 -0.224823
v 0.472882 -0.172046 -0.295696
v 0.481653 -0.264502 -0.262733
v 0.490426 -0.279725 -0.271454
v 0.490426 -0.202926 -0.348770
v 0.499198 -0.288547 -0.286618
v 0.490426 -0.105874 -0.181967
v -0.448171 -0.000206 -0.061403
v -0.448171 -0.031086 -0.114477
v -0.474487 -0.044321 -0.137223
v -0.474487 -0.000501 -0.149122
v -0.500802 -0.044409 -0.163538
v -0.483259 -0.062054 -0.193866
v -0.483259 -0.000706 -0.210525
v -0.465715 -0.062172 -0.228954
v -0.439399 -0.066583 -0.236536
v -0.439399 -0.000853 -0.254385
v -0.413083 -0.066613 -0.245308
v -0.360452 -0.062201 -0.237726
v -0.360452 -0.000853 -0.254385
v -0.307820 -0.062172 -0.228954
v -0.281504 -0.040115 -0.191044
v -0.281504 -0.000677 -0.201754
v -0.255189 -0.039968 -0.147185
v -0.237644 -0.031145 -0.132021
v -0.237644 -0.000471 -0.140350
v -0.220100 -0.031086 -0.114477
v -0.193784 -0.022263 -0.099313
v -0.193784 -0.000353 -0.105263
v -0.167469 -0.022204 -0.081769
v -0.141153 -0.035438 -0.104515
v -0.141153 -0.000382 -0.114035
v -0.114837 -0.035527 -0.130831
v -0.088521 -0.053172 -0.161159
v -0.088521 -0.000588 -0.175438
v -0.062205 -0.053290 -0.196246
v -0.027118 -0.066524 -0.218992
v -0.027118 -0.000795 -0.236841
v 0.007969 -0.066613 -0.245308
v 0.034285 -0.044556 -0.207398
v 0.034285 -0.000736 -0.219297
v 0.060601 -0.044409 -0.163538
v 0.086917 -0.031174 -0.140792
v 0.086917 -0.000501 -0.149122
v 0.113232 -0.031086 -0.114477
v 0.165864 -0.031086 -0.114477
v 0.165864 -0.000413 -0.122807
v 0.218496 -0.031086 -0.114477
v 0.253583 -0.061966 -0.167551
v 0.253583 -0.000618 -0.184210
v 0.288671 -0.062172 -0.228954
v 0.341303 -0.075406 -0.251700
v 0.341303 -0.000912 -0.271929
v 0.393934 -0.075494 -0.278015
v 0.411478 -0.057849 -0.247688
v 0.411478 -0.000883 -0.263157
v 0.429022 -0.057731 -0.212600
v 0.446566 -0.075377 -0.242928
v 0.446566 -0.000883 -0.263157
v 0.464110 -0.075494 -0.278015
v 0.472882 -0.097552 -0.315925
v 0.472882 -0.001148 -0.342103
v 0.481653 -0.097699 -0.359784
v 0.490426 -0.106522 -0.374948
v 0.490426 -0.001354 -0.403506
v 0.499198 -0.106580 -0.392492
v 0.490426 -0.000706 -0.210525
v -0.448171 0.030524 -0.053280
v -0.448171 0.030317 -0.114683
v -0.474487 0.030229 -0.140998
v -0.474487 0.074128 -0.129393
v -0.500802 0.043310 -0.163832
v -0.483259 0.043192 -0.198920
v -0.483259 0.104651 -0.182673
v -0.465715 0.060635 -0.229366
v -0.439399 0.060605 -0.238138
v -0.439399 0.126454 -0.220731
v -0.413083 0.064966 -0.245749
v -0.360452 0.064995 -0.236978
v -0.360452 0.126454 -0.220731
v -0.307820 0.060635 -0.229366
v -0.281504 0.060782 -0.185507
v -0.281504 0.100291 -0.175062
v -0.255189 0.038979 -0.147450
v -0.237644 0.039038 -0.129906
v -0.237644 0.069768 -0.121782
v -0.220100 0.030317 -0.114683
v -0.193784 0.030377 -0.097139
v -0.193784 0.052326 -0.091337
v -0.167469 0.021655 -0.081917
v -0.141153 0.021567 -0.108232
v -0.141153 0.056686 -0.098948
v -0.114837 0.034648 -0.131066
v -0.088521 0.034530 -0.166154
v -0.088521 0.087209 -0.152228
v -0.062205 0.051972 -0.196599
v -0.027118 0.051884 -0.222915
v -0.027118 0.117733 -0.205508
v 0.007969 0.064966 -0.245749
v 0.034285 0.065113 -0.201889
v 0.034285 0.109012 -0.190284
v 0.060601 0.043310 -0.163832
v 0.086917 0.043398 -0.137517
v 0.086917 0.074128 -0.129393
v 0.113232 0.030317 -0.114683
v 0.165864 0.030317 -0.114683
v 0.165864 0.061047 -0.106559
v 0.218496 0.030317 -0.114683
v 0.253583 0.030112 -0.176086
v 0.253583 0.091570 -0.159839
v 0.288671 0.060635 -0.229366
v 0.341303 0.060546 -0.255682
v 0.341303 0.135174 -0.235953
v 0.393934 0.073628 -0.278516
v 0.411478 0.073745 -0.243428
v 0.411478 0.130814 -0.228342
v 0.429022 0.056303 -0.212982
v 0.446566 0.056186 -0.248070
v 0.446566 0.130814 -0.228342
v 0.464110 0.073628 -0.278516
v 0.472882 0.073480 -0.322375
v 0.472882 0.170058 -0.296844
v 0.481653 0.095283 -0.360431
v 0.490426 0.095224 -0.377975
v 0.490426 0.200581 -0.350124
v 0.499198 0.103945 -0.393198
v 0.490426 0.104651 -0.182673
v -0.448171 0.053074 -0.030880
v -0.448171 0.083597 -0.084160
v -0.474487 0.096678 -0.106994
v -0.474487 0.128894 -0.074994
v -0.500802 0.119424 -0.120228
v -0.483259 0.136866 -0.150674
v -0.483259 0.181967 -0.105874
v -0.465715 0.167194 -0.168319
v -0.439399 0.171554 -0.175931
v -0.439399 0.219877 -0.127931
v -0.413083 0.179137 -0.180342
v -0.360452 0.174776 -0.172731
v -0.360452 0.219877 -0.127931
v -0.307820 0.167194 -0.168319
v -0.281504 0.145391 -0.130262
v -0.281504 0.174385 -0.101463
v -0.255189 0.107482 -0.108205
v -0.237644 0.098761 -0.092983
v -0.237644 0.121311 -0.070583
v -0.220100 0.083597 -0.084160
v -0.193784 0.074876 -0.068937
v -0.193784 0.090984 -0.052937
v -0.167469 0.059712 -0.060114
v -0.141153 0.072793 -0.082948
v -0.141153 0.098565 -0.057348
v -0.114837 0.095539 -0.096183
v -0.088521 0.112981 -0.126628
v -0.088521 0.151639 -0.088228
v -0.062205 0.143309 -0.144274
v -0.027118 0.156391 -0.167108
v -0.027118 0.204713 -0.119108
v 0.007969 0.179137 -0.180342
v 0.034285 0.157334 -0.142285
v 0.034285 0.189549 -0.110286
v 0.060601 0.119424 -0.120228
v 0.086917 0.106343 -0.097394
v 0.086917 0.128894 -0.074994
v 0.113232 0.083597 -0.084160
v 0.165864 0.083597 -0.084160
v 0.165864 0.106148 -0.061760
v 0.218496 0.083597 -0.084160
v 0.253583 0.114120 -0.137440
v 0.253583 0.159221 -0.092640
v 0.288671 0.167194 -0.168319
v 0.341303 0.180275 -0.191154
v 0.341303 0.235040 -0.136754
v 0.393934 0.203021 -0.204388
v 0.411478 0.185579 -0.173942
v 0.411478 0.227459 -0.132343
v 0.429022 0.155252 -0.156297
v 0.446566 0.172693 -0.186742
v 0.446566 0.227459 -0.132343
v 0.464110 0.203021 -0.204388
v 0.472882 0.224823 -0.242445
v 0.472882 0.295696 -0.172046
v 0.481653 0.262733 -0.264502
v 0.490426 0.271454 -0.279725
v 0.490426 0.348770 -0.202926
v 0.499198 0.286618 -0.288547
v 0.490426 0.181967 -0.105874
v -0.448171 0.061403 -0.000206
v -0.448171 0.114477 -0.031086
v -0.474487 0.137223 -0.044321
v -0.474487 0.149122 -0.000501
v -0.500802 0.163538 -0.044409
v -0.483259 0.193866 -0.062054
v -0.483259 0.210525 -0.000706
v -0.465715 0.228954 -0.062172
v -0.439399 0.236536 -0.066583
v -0.439399 0.254385 -0.000853
v -0.413083 0.245308 -0.066613
v -0.360452 0.237726 -0.062201
v -0.360452 0.254385 -0.000854
v -0.307820 0.228954 -0.062172
v -0.281504 0.191044 -0.040115
v -0.281504 0.201754 -0.000677
v -0.255189 0.147185 -0.039968
v -0.237644 0.132021 -0.031145
v -0.237644 0.140350 -0.000471
v -0.220100 0.114477 -0.031086
v -0.193784 0.099313 -0.022263
v -0.193784 0.105263 -0.000353
v -0.167469 0.081769 -0.022204
v -0.141153 0.104515 -0.035438
v -0.141153 0.114035 -0.000382
v -0.114837 0.130831 -0.035527
v -0.088521 0.161159 -0.053172
v -0.088521 0.175438 -0.000588
v -0.062205 0.196246 -0.053290
v -0.027118 0.218992 -0.066524
v -0.027118 0.236841 -0.000795
v 0.007969 0.245308 -0.066613
v 0.034285 0.207398 -0.044556
v 0.034285 0.219297 -0.000736
v 0.060601 0.163538 -0.044409
v 0.086917 0.140792 -0.031174
v 0.086917 0.149122 -0.000501
v 0.113232 0.114477 -0.031086
v 0.165864 0.114477 -0.031086
v 0.165864 0.122807 -0.000413
v 0.218496 0.114477 -0.031086
v 0.253583 0.167551 -0.061966
v 0.253583 0.184210 -0.000618
v 0.288671 0.228954 -0.062172
v 0.341303 0.251700 -0.075406
v 0.341303 0.271929 -0.000912
v 0.393935 0.278015 -0.075494
v 0.411478 0.247688 -0.057849
v 0.411478 0.263156 -0.000883
v 0.429022 0.212600 -0.057731
v 0.446566 0.242928 -0.075377
v 0.446566 0.263156 -0.000883
v 0.464110 0.278015 -0.075494
v 0.472882 0.315925 -0.097552
v 0.472882 0.342103 -0.001148
v 0.481653 0.359785 -0.097699
v 0.490426 0.374948 -0.106522
v 0.490426 0.403506 -0.001354
v 0.499198 0.392492 -0.106580
v 0.490426 0.210525 -0.000706
v -0.448171 0.053280 0.030524
v -0.448171 0.114683 0.030317
v -0.474487 0.140998 0.030229
v -0.474487 0.129393 0.074128
v -0.500802 0.163832 0.043310
v -0.483259 0.198920 0.043192
v -0.483259 0.182673 0.104651
v -0.465715 0.229366 0.060635
v -0.439399 0.238138 0.060605
v -0.439399 0.220731 0.126454
v -0.413083 0.245749 0.064966
v -0.360452 0.236978 0.064995
v -0.360452 0.220731 0.126454
v -0.307820 0.229366 0.060635
v -0.281504 0.185507 0.060782
v -0.281504 0.175062 0.100291
v -0.255189 0.147450 0.038979
v -0.237644 0.129906 0.039038
v -0.237644 0.121782 0.069768
v -0.220100 0.114683 0.030317
v -0.193784 0.097139 0.030377
v -0.193784 0.091337 0.052326
v -0.167469 0.081917 0.021655
v -0.141153 0.108232 0.021567
v -0.141153 0.098948 0.056686
v -0.114837 0.131066 0.034648
v -0.088521 0.166154 0.034530
v -0.088521 0.152228 0.087209
v -0.062205 0.196599 0.051972
v -0.027118 0.222915 0.051884
v -0.027118 0.205508 0.117733
v 0.007969 0.245749 0.064966
v 0.034285 0.201889 0.065113
v 0.034285 0.190284 0.109012
v 0.060601 0.163832 0.043310
v 0.086917 0.137517 0.043398
v 0.086917 0.129393 0.074128
v 0.113232 0.114683 0.030317
v 0.165864 0.114683 0.030317
v 0.165864 0.106559 0.061047
v 0.218496 0.114683 0.030317
v 0.253583 0.176086 0.030112
v 0.253583 0.159839 0.091570
v 0.288671 0.229366 0.060635
v 0.341303 0.255682 0.060546
v 0.341303 0.235953 0.135174
v 0.393935 0.278516 0.073628
v 0.411478 0.243428 0.073745
v 0.411478 0.228342 0.130814
v 0.429022 0.212982 0.056303
v 0.446566 0.248070 0.056186
v 0.446566 0.228342 0.130814
v 0.464110 0.278516 0.073628
v 0.472882 0.322375 0.073480
v 0.472882 0.296844 0.170058
v 0.481653 0.360432 0.095283
v 0.490426 0.377975 0.095224
v 0.490426 0.350124 0.200581
v 0.499198 0.393198 0.103945
v 0.490426 0.182673 0.104651
v -0.448171 0.084160 0.083597
v -0.474487 0.106994 0.096678
v -0.500802 0.120228 0.119424
v -0.483259 0.150674 0.136866
v -0.465715 0.168319 0.167194
v -0.439399 0.175931 0.171554
v -0.413083 0.180342 0.179137
v -0.360452 0.172731 0.174776
v -0.307820 0.168319 0.167194
v -0.281504 0.130262 0.145391
v -0.255189 0.108205 0.107482
v -0.237644 0.092983 0.098761
v -0.220100 0.084160 0.083597
v -0.193784 0.068937 0.074876
v -0.167469 0.060114 0.059712
v -0.141153 0.082948 0.072793
v -0.114837 0.096183 0.095539
v -0.088521 0.126628 0.112981
v -0.062205 0.144274 0.143309
v -0.027118 0.167108 0.156391
v 0.007969 0.180342 0.179137
v 0.034285 0.142285 0.157334
v 0.060601 0.120228 0.119424
v 0.086917 0.097394 0.106343
v 0.113232 0.084160 0.083597
v 0.165864 0.084160 0.083597
v 0.218496 0.084160 0.083597
v 0.253583 0.137440 0.114120
v 0.288671 0.168319 0.167194
v 0.341303 0.191154 0.180275
v 0.393935 0.204388 0.203021
v 0.411478 0.173942 0.185579
v 0.429022 0.156296 0.155252
v 0.446566 0.186742 0.172693
v 0.464110 0.204388 0.203021
v 0.472882 0.242444 0.224823
v 0.481653 0.264502 0.262733
v 0.490426 0.279725 0.271454
v 0.499198 0.288547 0.286618
f 1 243 245
f 243 2 244
f 244 3 245
f 243 244 245
f 1 245 247
f 245 3 246
f 246 4 247
f 245 246 247
f 5 248 249
f 248 1 247
f 247 4 249
f 248 247 249
f 5 249 251
f 249 4 250
f 250 6 251
f 249 250 251
f 7 252 253
f 252 5 251
f 251 6 253
f 252 251 253
f 7 253 255
f 253 6 254
f 254 8 255
f 253 254 255
f 9 256 257
f 256 7 255
f 255 8 257
f 256 255 257
f 9 257 259
f 257 8 258
f 258 10 259
f 257 258 259
f 11 260 261
f 260 9 259
f 259 10 261
f 260 259 261
f 11 261 263
f 261 10 262
f 262 12 263
f 261 262 263
f 13 264 265
f 264 11 263
f 263 12 265
f 264 263 265
f 13 265 267
f 265 12 266
f 266 14 267
f 265 266 267
f 15 268 269
f 268 13 267
f 267 14 269
f 268 267 269
f 15 269 271
f 269 14 270
f 270 16 271
f 269 270 271
f 17 272 273
f 272 15 271
f 271 16 273
f 272 271 273
f 17 273 275
f 273 16 274
f 274 18 275
f 273 274 275
f 19 276 277
f 276 17 275
f 275 18 277
f 276 275 277
f 19 277 279
f 277 18 278
f 278 20 279
f 277 278 279
f 21 280 281
f 280 19 279
f 279 20 281
f 280 279 281
f 21 281 283
f 281 20 282
f 282 22 283
f 281 282 283
f 23 284 285
f 284 21 283
f 283 22 285
f 284 283 285
f 23 285 287
f 285 22 286
f 286 24 287
f 285 286 287
f 25 288 289
f 288 23 287
f 287 24 289
f 288 287 289
f 25 289 291
f 289 24 290
f 290 26 291
f 289 290 291
f 27 292 293
f 292 25 291
f 291 26 293
f 292 291 293
f 27 293 295
f 293 26 294
f 294 28 295
f 293 294 295
f 29 296 297
f 296 27 295
f 295 28 297
f 296 295 297
f 29 297 299
f 297 28 298
f 298 30 299
f 297 298 299
f 31 300 301
f 300 29 299
f 299 30 301
f 300 299 301
f 31 301 303
f 301 30 302
f 302 32 303
f 301 302 303
f 33 304 305
f 304 31 303
f 303 32 305
f 304 303 305
f 33 305 307
f 305 32 306
f 306 34 307
f 305 306 307
f 35 308 309
f 308 33 307
f 307 34 309
f 308 307 309
f 35 309 311
f 309 34 310
f 310 36 311
f 309 310 311
f 37 312 313
f 312 35 311
f 311 36 313
f 312 311 313
f 37 313 315
f 313 36 314
f 314 38 315
f 313 314 315
f 39 316 317
f 316 37 315
f 315 38 317
f 316 315 317
f 39 317 319
f 317 38 318
f 318 40 319
f 317 318 319
f 41 320 321
f 320 39 319
f 319 40 321
f 320 319 321
f 41 321 323
f 321 40 322
f 322 42 323
f 321 322 323
f 43 324 325
f 324 2 243
f 243 1 325
f 324 243 325
f 43 325 326
f 325 1 248
f 248 5 326
f 325 248 326
f 44 327 328
f 327 43 326
f 326 5 328
f 327 326 328
f 44 328 329
f 328 5 252
f 252 7 329
f 328 252 329
f 45 330 331
f 330 44 329
f 329 7 331
f 330 329 331
f 45 331 332
f 331 7 256
f 256 9 332
f 331 256 332
f 46 333 334
f 333 45 332
f 332 9 334
f 333 332 334
f 46 334 335
f 334 9 260
f 260 11 335
f 334 260 335
f 47 336 337
f 336 46 335
f 335 11 337
f 336 335 337
f 47 337 338
f 337 11 264
f 264 13 338
f 337 264 338
f 48 339 340
f 339 47 338
f 338 13 340
f 339 338 340
f 48 340 341
f 340 13 268
f 268 15 341
f 340 268 341
f 49 342 343
f 342 48 341
f 341 15 343
f 342 341 343
f 49 343 344
f 343 15 272
f 272 17 344
f 343 272 344
f 50 345 346
f 345 49 344
f 344 17 346
f 345 344 346
f 50 346 347
f 346 17 276
f 276 19 347
f 346 276 347
f 51 348 349
f 348 50 347
f 347 19 349
f 348 347 349
f 51 349 350
f 349 19 280
f 280 21 350
f 349 280 350
f 52 351 352
f 351 51 350
f 350 21 352
f 351 350 352
f 52 352 353
f 352 21 284
f 284 23 353
f 352 284 353
f 53 354 355
f 354 52 353
f 353 23 355
f 354 353 355
f 53 355 356
f 355 23 288
f 288 25 356
f 355 288 356
f 54 357 358
f 357 53 356
f 356 25 358
f 357 356 358
f 54 358 359
f 358 25 292
f 292 27 359
f 358 292 359
f 55 360 361
f 360 54 359
f 359 27 361
f 360 359 361
f 55 361 362
f 361 27 296
f 296 29 362
f 361 296 362
f 56 363 364
f 363 55 362
f 362 29 364
f 363 362 364
f 56 364 365
f 364 29 300
f 300 31 365
f 364 300 365
f 57 366 367
f 366 56 365
f 365 31 367
f 366 365 367
f 57 367 368
f 367 31 304
f 304 33 368
f 367 304 368
f 58 369 370
f 369 57 368
f 368 33 370
f 369 368 370
f 58 370 371
f 370 33 308
f 308 35 371
f 370 308 371
f 59 372 373
f 372 58 371
f 371 35 373
f 372 371 373
f 59 373 374
f 373 35 312
f 312 37 374
f 373 312 374
f 60 375 376
f 375 59 374
f 374 37 376
f 375 374 376
f 60 376 377
f 376 37 316
f 316 39 377
f 376 316 377
f 61 378 379
f 378 60 377
f 377 39 379
f 378 377 379
f 61 379 380
f 379 39 320
f 320 41 380
f 379 320 380
f 62 381 382
f 381 61 380
f 380 41 382
f 381 380 382
f 62 382 383
f 382 41 323
f 323 42 383
f 382 323 383
f 63 384 385
f 384 2 324
f 324 43 385
f 384 324 385
f 63 385 386
f 385 43 327
f 327 44 386
f 385 327 386
f 64 387 388
f 387 63 386
f 386 44 388
f 387 386 388
f 64 388 389
f 388 44 330
f 330 45 389
f 388 330 389
f 65 390 391
f 390 64 389
f 389 45 391
f 390 389 391
f 65 391 392
f 391 45 333
f 333 46 392
f 391 333 392
f 66 393 394
f 393 65 392
f 392 46 394
f 393 392 394
f 66 394 395
f 394 46 336
f 336 47 395
f 394 336 395
f 67 396 397
f 396 66 395
f 395 47 397
f 396 395 397
f 67 397 398
f 397 47 339
f 339 48 398
f 397 339 398
f 68 399 400
f 399 67 398
f 398 48 400
f 399 398 400
f 68 400 401
f 400 48 342
f 342 49 401
f 400 342 401
f 69 402 403
f 402 68 401
f 401 49 403
f 402 401 403
f 69 403 404
f 403 49 345
f 345 50 404
f 403 345 404
f 70 405 406
f 405 69 404
f 404 50 406
f 405 404 406
f 70 406 407
f 406 50 348
f 348 51 407
f 406 348 407
f 71 408 409
f 408 70 407
f 407 51 409
f 408 407 409
f 71 409 410
f 409 51 351
f 351 52 410
f 409 351 410
f 72 411 412
f 411 71 410
f 410 52 412
f 411 410 412
f 72 412 413
f 412 52 354
f 354 53 413
f 412 354 413
f 73 414 415
f 414 72 413
f 413 53 415
f 414 413 415
f 73 415 416
f 415 53 357
f 357 54 416
f 415 357 416
f 74 417 418
f 417 73 416
f 416 54 418
f 417 416 418
f 74 418 419
f 418 54 360
f 360 55 419
f 418 360 419
f 75 420 421
f 420 74 419
f 419 55 421
f 420 419 421
f 75 421 422
f 421 55 363
f 363 56 422
f 421 363 422
f 76 423 424
f 423 75 422
f 422 56 424
f 423 422 424
f 76 424 425
f 424 56 366
f 366 57 425
f 424 366 425
f 77 426 427
f 426 76 425
f 425 57 427
f 426 425 427
f 77 427 428
f 427 57 369
f 369 58 428
f 427 369 428
f 78 429 430
f 429 77 428
f 428 58 430
f 429 428 430
f 78 430 431
f 430 58 372
f 372 59 431
f 430 372 431
f 79 432 433
f 432 78 431
f 431 59 433
f 432 431 433
f 79 433 434
f 433 59 375
f 375 60 434
f 433 375 434
f 80 435 436
f 435 79 434
f 434 60 436
f 435 434 436
f 80 436 437
f 436 60 378
f 378 61 437
f 436 378 437
f 81 438 439
f 438 80 437
f 437 61 439
f 438 437 439
f 81 439 440
f 439 61 381
f 381 62 440
f 439 381 440
f 82 441 442
f 441 81 440
f 440 62 442
f 441 440 442
f 82 442 443
f 442 62 383
f 383 42 443
f 442 383 443
f 83 444 445
f 444 2 384
f 384 63 445
f 444 384 445
f 83 445 446
f 445 63 387
f 387 64 446
f 445 387 446
f 84 447 448
f 447 83 446
f 446 64 448
f 447 446 448
f 84 448 449
f 448 64 390
f 390 65 449
f 448 390 449
f 85 450 451
f 450 84 449
f 449 65 451
f 450 449 451
f 85 451 452
f 451 65 393
f 393 66 452
f 451 393 452
f 86 453 454
f 453 85 452
f 452 66 454
f 453 452 454
f 86 454 455
f 454 66 396
f 396 67 455
f 454 396 455
f 87 456 457
f 456 86 455
f 455 67 457
f 456 455 457
f 87 457 458
f 457 67 399
f 399 68 458
f 457 399 458
f 88 459 460
f 459 87 458
f 458 68 460
f 459 458 460
f 88 460 461
f 460 68 402
f 402 69 461
f 460 402 461
f 89 462 463
f 462 88 461
f 461 69 463
f 462 461 463
f 89 463 464
f 463 69 405
f 405 70 464
f 463 405 464
f 90 465 466
f 465 89 464
f 464 70 466
f 465 464 466
f 90 466 467
f 466 70 408
f 408 71 467
f 466 408 467
f 91 468 469
f 468 90 467
f 467 71 469
f 468 467 469
f 91 469 470
f 469 71 411
f 411 72 470
f 469 411 470
f 92 471 472
f 471 91 470
f 470 72 472
f 471 470 472
f 92 472 473
f 472 72 414
f 414 73 473
f 472 414 473
f 93 474 475
f 474 92 473
f 473 73 475
f 474 473 475
f 93 475 476
f 475 73 417
f 417 74 476
f 475 417 476
f 94 477 478
f 477 93 476
f 476 74 478
f 477 476 478
f 94 478 479
f 478 74 420
f 420 75 479
f 478 420 479
f 95 480 481
f 480 94 479
f 479 75 481
f 480 479 481
f 95 481 482
f 481 75 423
f 423 76 482
f 481 423 482
f 96 483 484
f 483 95 482
f 482 76 484
f 483 482 484
f 96 484 485
f 484 76 426
f 426 77 485
f 484 426 485
f 97 486 487
f 486 96 485
f 485 77 487
f 486 485 487
f 97 487 488
f 487 77 429
f 429 78 488
f 487 429 488
f 98 489 490
f 489 97 488
f 488 78 490
f 489 488 490
f 98 490 491
f 490 78 432
f 432 79 491
f 490 432 491
f 99 492 493
f 492 98 491
f 491 79 493
f 492 491 493
f 99 493 494
f 493 79 435
f 435 80 494
f 493 435 494
f 100 495 496
f 495 99 494
f 494 80 496
f 495 494 496
f 100 496 497
f 496 80 438
f 438 81 497
f 496 438 497
f 101 498 499
f 498 100 497
f 497 81 499
f 498 497 499
f 101 499 500
f 499 81 441
f 441 82 500
f 499 441 500
f 102 501 502
f 501 101 500
f 500 82 502
f 501 500 502
f 102 502 503
f 502 82 443
f 443 42 503
f 502 443 503
f 103 504 505
f 504 2 444
f 444 83 505
f 504 444 505
f 103 505 506
f 505 83 447
f 447 84 506
f 505 447 506
f 104 507 508
f 507 103 506
f 506 84 508
f 507 506 508
f 104 508 509
f 508 84 450
f 450 85 509
f 508 450 509
f 105 510 511
f 510 104 509
f 509 85 511
f 510 509 511
f 105 511 512
f 511 85 453
f 453 86 512
f 511 453 512
f 106 513 514
f 513 105 512
f 512 86 514
f 513 512 514
f 106 514 515
f 514 86 456
f 456 87 515
f 514 456 515
f 107 516 517
f 516 106 515
f 515 87 517
f 516 515 517
f 107 517 518
f 517 87 459
f 459 88 518
f 517 459 518
f 108 519 520
f 519 107 518
f 518 88 520
f 519 518 520
f 108 520 521
f 520 88 462
f 462 89 521
f 520 462 521
f 109 522 523
f 522 108 521
f 521 89 523
f 522 521 523
f 109 523 524
f 523 89 465
f 465 90 524
f 523 465 524
f 110 525 526
f 525 109 524
f 524 90 526
f 525 524 526
f 110 526 527
f 526 90 468
f 468 91 527
f 526 468 527
f 111 528 529
f 528 110 527
f 527 91 529
f 528 527 529
f 111 529 530
f 529 91 471
f 471 92 530
f 529 471 530
f 112 531 532
f 531 111 530
f 530 92 532
f 531 530 532
f 112 532 533
f 532 92 474
f 474 93 533
f 532 474 533
f 113 534 535
f 534 112 533
f 533 93 535
f 534 533 535
f 113 535 536
f 535 93 477
f 477 94 536
f 535 477 536
f 114 537 538
f 537 113 536
f 536 94 538
f 537 536 538
f 114 538 539
f 538 94 480
f 480 95 539
f 538 480 539
f 115 540 541
f 540 114 539
f 539 95 541
f 540 539 541
f 115 541 542
f 541 95 483
f 483 96 542
f 541 483 542
f 116 543 544
f 543 115 542
f 542 96 544
f 543 542 544
f 116 544 545
f 544 96 486
f 486 97 545
f 544 486 545
f 117 546 547
f 546 116 545
f 545 97 547
f 546 545 547
f 117 547 548
f 547 97 489
f 489 98 548
f 547 489 548
f 118 549 550
f 549 117 548
f 548 98 550
f 549 548 550
f 118 550 551
f 550 98 492
f 492 99 551
f 550 492 551
f 119 552 553
f 552 118 551
f 551 99 553
f 552 551 553
f 119 553 554
f 553 99 495
f 495 100 554
f 553 495 554
f 120 555 556
f 555 119 554
f 554 100 556
f 555 554 556
f 120 556 557
f 556 100 498
f 498 101 557
f 556 498 557
f 121 558 559
f 558 120 557
f 557 101 559
f 558 557 559
f 121 559 560
f 559 101 501
f 501 102 560
f 559 501 560
f 122 561 562
f 561 121 560
f 560 102 562
f 561 560 562
f 122 562 563
f 562 102 503
f 503 42 563
f 562 503 563
f 123 564 565
f 564 2 504
f 504 103 565
f 564 504 565
f 123 565 566
f 565 103 507
f 507 104 566
f 565 507 566
f 124 567 568
f 567 123 566
f 566 104 568
f 567 566 568
f 124 568 569
f 568 104 510
f 510 105 569
f 568 510 569
f 125 570 571
f 570 124 569
f 569 105 571
f 570 569 571
f 125 571 572
f 571 105 513
f 513 106 572
f 571 513 572
f 126 573 574
f 573 125 572
f 572 106 574
f 573 572 574
f 126 574 575
f 574 106 516
f 516 107 575
f 574 516 575
f 127 576 577
f 576 126 575
f 575 107 577
f 576 575 577
f 127 577 578
f 577 107 519
f 519 108 578
f 577 519 578
f 128 579 580
f 579 127 578
f 578 108 580
f 579 578 580
f 128 580 581
f 580 108 522
f 522 109 581
f 580 522 581
f 129 582 583
f 582 128 581
f 581 109 583
f 582 581 583
f 129 583 584
f 583 109 525
f 525 110 584
f 583 525 584
f 130 585 586
f 585 129 584
f 584 110 586
f 585 584 586
f 130 586 587
f 586 110 528
f 528 111 587
f 586 528 587
f 131 588 589
f 588 130 587
f 587 111 589
f 588 587 589
f 131 589 590
f 589 111 531
f 531 112 590
f 589 531 590
f 132 591 592
f 591 131 590
f 590 112 592
f 591 590 592
f 132 592 593
f 592 112 534
f 534 113 593
f 592 534 593
f 133 594 595
f 594 132 593
f 593 113 595
f 594 593 595
f 133 595 596
f 595 113 537
f 537 114 596
f 595 537 596
f 134 597 598
f 597 133 596
f 596 114 598
f 597 596 598
f 134 598 599
f 598 114 540
f 540 115 599
f 598 540 599
f 135 600 601
f 600 134 599
f 599 115 601
f 600 599 601
f 135 601 602
f 601 115 543
f 543 116 602
f 601 543 602
f 136 603 604
f 603 135 602
f 602 116 604
f 603 602 604
f 136 604 605
f 604 116 546
f 546 117 605
f 604 546 605
f 137 606 607
f 606 136 605
f 605 117 607
f 606 605 607
f 137 607 608
f 607 117 549
f 549 118 608
f 607 549 608
f 138 609 610
f 609 137 608
f 608 118 610
f 609 608 610
f 138 610 611
f 610 118 552
f 552 119 611
f 610 552 611
f 139 612 613
f 612 138 611
f 611 119 613
f 612 611 613
f 139 613 614
f 613 119 555
f 555 120 614
f 613 555 614
f 140 615 616
f 615 139 614
f 614 120 616
f 615 614 616
f 140 616 617
f 616 120 558
f 558 121 617
f 616 558 617
f 141 618 619
f 618 140 617
f 617 121 619
f 618 617 619
f 141 619 620
f 619 121 561
f 561 122 620
f 619 561 620
f 142 621 622
f 621 141 620
f 620 122 622
f 621 620 622
f 142 622 623
f 622 122 563
f 563 42 623
f 622 563 623
f 143 624 625
f 624 2 564
f 564 123 625
f 624 564 625
f 143 625 626
f 625 123 567
f 567 124 626
f 625 567 626
f 144 627 628
f 627 143 626
f 626 124 628
f 627 626 628
f 144 628 629
f 628 124 570
f 570 125 629
f 628 570 629
f 145 630 631
f 630 144 629
f 629 125 631
f 630 629 631
f 145 631 632
f 631 125 573
f 573 126 632
f 631 573 632
f 146 633 634
f 633 145 632
f 632 126 634
f 633 632 634
f 146 634 635
f 634 126 576
f 576 127 635
f 634 576 635
f 147 636 637
f 636 146 635
f 635 127 637
f 636 635 637
f 147 637 638
f 637 127 579
f 579 128 638
f 637 579 638
f 148 639 640
f 639 147 638
f 638 128 640
f 639 638 640
f 148 640 641
f 640 128 582
f 582 129 641
f 640 582 641
f 149 642 643
f 642 148 641
f 641 129 643
f 642 641 643
f 149 643 644
f 643 129 585
f 585 130 644
f 643 585 644
f 150 645 646
f 645 149 644
f 644 130 646
f 645 644 646
f 150 646 647
f 646 130 588
f 588 131 647
f 646 588 647
f 151 648 649
f 648 150 647
f 647 131 649
f 648 647 649
f 151 649 650
f 649 131 591
f 591 132 650
f 649 591 650
f 152 651 652
f 651 151 650
f 650 132 652
f 651 650 652
f 152 652 653
f 652 132 594
f 594 133 653
f 652 594 653
f 153 654 655
f 654 152 653
f 653 133 655
f 654 653 655
f 153 655 656
f 655 133 597
f 597 134 656
f 655 597 656
f 154 657 658
f 657 153 656
f 656 134 658
f 657 656 658
f 154 658 659
f 658 134 600
f 600 135 659
f 658 600 659
f 155 660 661
f 660 154 659
f 659 135 661
f 660 659 661
f 155 661 662
f 661 135 603
f 603 136 662
f 661 603 662
f 156 663 664
f 663 155 662
f 662 136 664
f 663 662 664
f 156 664 665
f 664 136 606
f 606 137 665
f 664 606 665
f 157 666 667
f 666 156 665
f 665 137 667
f 666 665 667
f 157 667 668
f 667 137 609
f 609 138 668
f 667 609 668
f 158 669 670
f 669 157 668
f 668 138 670
f 669 668 670
f 158 670 671
f 670 138 612
f 612 139 671
f 670 612 671
f 159 672 673
f 672 158 671
f 671 139 673
f 672 671 673
f 159 673 674
f 673 139 615
f 615 140 674
f 673 615 674
f 160 675 676
f 675 159 674
f 674 140 676
f 675 674 676
f 160 676 677
f 676 140 618
f 618 141 677
f 676 618 677
f 161 678 679
f 678 160 677
f 677 141 679
f 678 677 679
f 161 679 680
f 679 141 621
f 621 142 680
f 679 621 680
f 162 681 682
f 681 161 680
f 680 142 682
f 681 680 682
f 162 682 683
f 682 142 623
f 623 42 683
f 682 623 683
f 163 684 685
f 684 2 624
f 624 143 685
f 684 624 685
f 163 685 686
f 685 143 627
f 627 144 686
f 685 627 686
f 164 687 688
f 687 163 686
f 686 144 688
f 687 686 688
f 164 688 689
f 688 144 630
f 630 145 689
f 688 630 689
f 165 690 691
f 690 164 689
f 689 145 691
f 690 689 691
f 165 691 692
f 691 145 633
f 633 146 692
f 691 633 692
f 166 693 694
f 693 165 692
f 692 146 694
f 693 692 694
f 166 694 695
f 694 146 636
f 636 147 695
f 694 636 695
f 167 696 697
f 696 166 695
f 695 147 697
f 696 695 697
f 167 697 698
f 697 147 639
f 639 148 698
f 697 639 698
f 168 699 700
f 699 167 698
f 698 148 700
f 699 698 700
f 168 700 701
f 700 148 642
f 642 149 701
f 700 642 701
f 169 702 703
f 702 168 701
f 701 149 703
f 702 701 703
f 169 703 704
f 703 149 645
f 645 150 704
f 703 645 704
f 170 705 706
f 705 169 704
f 704 150 706
f 705 704 706
f 170 706 707
f 706 150 648
f 648 151 707
f 706 648 707
f 171 708 709
f 708 170 707
f 707 151 709
f 708 707 709
f 171 709 710
f 709 151 651
f 651 152 710
f 709 651 710
f 172 711 712
f 711 171 710
f 710 152 712
f 711 710 712
f 172 712 713
f 712 152 654
f 654 153 713
f 712 654 713
f 173 714 715
f 714 172 713
f 713 153 715
f 714 713 715
f 173 715 716
f 715 153 657
f 657 154 716
f 715 657 716
f 174 717 718
f 717 173 716
f 716 154 718
f 717 716 718
f 174 718 719
f 718 154 660
f 660 155 719
f 718 660 719
f 175 720 721
f 720 174 719
f 719 155 721
f 720 719 721
f 175 721 722
f 721 155 663
f 663 156 722
f 721 663 722
f 176 723 724
f 723 175 722
f 722 156 724
f 723 722 724
f 176 724 725
f 724 156 666
f 666 157 725
f 724 666 725
f 177 726 727
f 726 176 725
f 725 157 727
f 726 725 727
f 177 727 728
f 727 157 669
f 669 158 728
f 727 669 728
f 178 729 730
f 729 177 728
f 728 158 730
f 729 728 730
f 178 730 731
f 730 158 672
f 672 159 731
f 730 672 731
f 179 732 733
f 732 178 731
f 731 159 733
f 732 731 733
f 179 733 734
f 733 159 675
f 675 160 734
f 733 675 734
f 180 735 736
f 735 179 734
f 734 160 736
f 735 734 736
f 180 736 737
f 736 160 678
f 678 161 737
f 736 678 737
f 181 738 739
f 738 180 737
f 737 161 739
f 738 737 739
f 181 739 740
f 739 161 681
f 681 162 740
f 739 681 740
f 182 741 742
f 741 181 740
f 740 162 742
f 741 740 742
f 182 742 743
f 742 162 683
f 683 42 743
f 742 683 743
f 183 744 745
f 744 2 684
f 684 163 745
f 744 684 745
f 183 745 746
f 745 163 687
f 687 164 746
f 745 687 746
f 184 747 748
f 747 183 746
f 746 164 748
f 747 746 748
f 184 748 749
f 748 164 690
f 690 165 749
f 748 690 749
f 185 750 751
f 750 184 749
f 749 165 751
f 750 749 751
f 185 751 752
f 751 165 693
f 693 166 752
f 751 693 752
f 186 753 754
f 753 185 752
f 752 166 754
f 753 752 754
f 186 754 755
f 754 166 696
f 696 167 755
f 754 696 755
f 187 756 757
f 756 186 755
f 755 167 757
f 756 755 757
f 187 757 758
f 757 167 699
f 699 168 758
f 757 699 758
f 188 759 760
f 759 187 758
f 758 168 760
f 759 758 760
f 188 760 761
f 760 168 702
f 702 169 761
f 760 702 761
f 189 762 763
f 762 188 761
f 761 169 763
f 762 761 763
f 189 763 764
f 763 169 705
f 705 170 764
f 763 705 764
f 190 765 766
f 765 189 764
f 764 170 766
f 765 764 766
f 190 766 767
f 766 170 708
f 708 171 767
f 766 708 767
f 191 768 769
f 768 190 767
f 767 171 769
f 768 767 769
f 191 769 770
f 769 171 711
f 711 172 770
f 769 711 770
f 192 771 772
f 771 191 770
f 770 172 772
f 771 770 772
f 192 772 773
f 772 172 714
f 714 173 773
f 772 714 773
f 193 774 775
f 774 192 773
f 773 173 775
f 774 773 775
f 193 775 776
f 775 173 717
f 717 174 776
f 775 717 776
f 194 777 778
f 777 193 776
f 776 174 778
f 777 776 778
f 194 778 779
f 778 174 720
f 720 175 779
f 778 720 779
f 195 780 781
f 780 194 779
f 779 175 781
f 780 779 781
f 195 781 782
f 781 175 723
f 723 176 782
f 781 723 782
f 196 783 784
f 783 195 782
f 782 176 784
f 783 782 784
f 196 784 785
f 784 176 726
f 726 177 785
f 784 726 785
f 197 786 787
f 786 196 785
f 785 177 787
f 786 785 787
f 197 787 788
f 787 177 729
f 729 178 788
f 787 729 788
f 198 789 790
f 789 197 788
f 788 178 790
f 789 788 790
f 198 790 791
f 790 178 732
f 732 179 791
f 790 732 791
f 199 792 793
f 792 198 791
f 791 179 793
f 792 791 793
f 199 793 794
f 793 179 735
f 735 180 794
f 793 735 794
f 200 795 796
f 795 199 794
f 794 180 796
f 795 794 796
f 200 796 797
f 796 180 738
f 738 181 797
f 796 738 797
f 201 798 799
f 798 200 797
f 797 181 799
f 798 797 799
f 201 799 800
f 799 181 741
f 741 182 800
f 799 741 800
f 202 801 802
f 801 201 800
f 800 182 802
f 801 800 802
f 202 802 803
f 802 182 743
f 743 42 803
f 802 743 803
f 203 804 805
f 804 2 744
f 744 183 805
f 804 744 805
f 203 805 806
f 805 183 747
f 747 184 806
f 805 747 806
f 204 807 808
f 807 203 806
f 806 184 808
f 807 806 808
f 204 808 809
f 808 184 750
f 750 185 809
f 808 750 809
f 205 810 811
f 810 204 809
f 809 185 811
f 810 809 811
f 205 811 812
f 811 185 753
f 753 186 812
f 811 753 812
f 206 813 814
f 813 205 812
f 812 186 814
f 813 812 814
f 206 814 815
f 814 186 756
f 756 187 815
f 814 756 815
f 207 816 817
f 816 206 815
f 815 187 817
f 816 815 817
f 207 817 818
f 817 187 759
f 759 188 818
f 817 759 818
f 208 819 820
f 819 207 818
f 818 188 820
f 819 818 820
f 208 820 821
f 820 188 762
f 762 189 821
f 820 762 821
f 209 822 823
f 822 208 821
f 821 189 823
f 822 821 823
f 209 823 824
f 823 189 765
f 765 190 824
f 823 765 824
f 210 825 826
f 825 209 824
f 824 190 826
f 825 824 826
f 210 826 827
f 826 190 768
f 768 191 827
f 826 768 827
f 211 828 829
f 828 210 827
f 827 191 829
f 828 827 829
f 211 829 830
f 829 191 771
f 771 192 830
f 829 771 830
f 212 831 832
f 831 211 830
f 830 192 832
f 831 830 832
f 212 832 833
f 832 192 774
f 774 193 833
f 832 774 833
f 213 834 835
f 834 212 833
f 833 193 835
f 834 833 835
f 213 835 836
f 835 193 777
f 777 194 836
f 835 777 836
f 214 837 838
f 837 213 836
f 836 194 838
f 837 836 838
f 214 838 839
f 838 194 780
f 780 195 839
f 838 780 839
f 215 840 841
f 840 214 839
f 839 195 841
f 840 839 841
f 215 841 842
f 841 195 783
f 783 196 842
f 841 783 842
f 216 843 844
f 843 215 842
f 842 196 844
f 843 842 844
f 216 844 845
f 844 196 786
f 786 197 845
f 844 786 845
f 217 846 847
f 846 216 845
f 845 197 847
f 846 845 847
f 217 847 848
f 847 197 789
f 789 198 848
f 847 789 848
f 218 849 850
f 849 217 848
f 848 198 850
f 849 848 850
f 218 850 851
f 850 198 792
f 792 199 851
f 850 792 851
f 219 852 853
f 852 218 851
f 851 199 853
f 852 851 853
f 219 853 854
f 853 199 795
f 795 200 854
f 853 795 854
f 220 855 856
f 855 219 854
f 854 200 856
f 855 854 856
f 220 856 857
f 856 200 798
f 798 201 857
f 856 798 857
f 221 858 859
f 858 220 857
f 857 201 859
f 858 857 859
f 221 859 860
f 859 201 801
f 801 202 860
f 859 801 860
f 222 861 862
f 861 221 860
f 860 202 862
f 861 860 862
f 222 862 863
f 862 202 803
f 803 42 863
f 862 803 863
f 223 864 865
f 864 2 804
f 804 203 865
f 864 804 865
f 223 865 866
f 865 203 807
f 807 204 866
f 865 807 866
f 224 867 868
f 867 223 866
f 866 204 868
f 867 866 868
f 224 868 869
f 868 204 810
f 810 205 869
f 868 810 869
f 225 870 871
f 870 224 869
f 869 205 871
f 870 869 871
f 225 871 872
f 871 205 813
f 813 206 872
f 871 813 872
f 226 873 874
f 873 225 872
f 872 206 874
f 873 872 874
f 226 874 875
f 874 206 816
f 816 207 875
f 874 816 875
f 227 876 877
f 876 226 875
f 875 207 877
f 876 875 877
f 227 877 878
f 877 207 819
f 819 208 878
f 877 819 878
f 228 879 880
f 879 227 878
f 878 208 880
f 879 878 880
f 228 880 881
f 880 208 822
f 822 209 881
f 880 822 881
f 229 882 883
f 882 228 881
f 881 209 883
f 882 881 883
f 229 883 884
f 883 209 825
f 825 210 884
f 883 825 884
f 230 885 886
f 885 229 884
f 884 210 886
f 885 884 886
f 230 886 887
f 886 210 828
f 828 211 887
f 886 828 887
f 231 888 889
f 888 230 887
f 887 211 889
f 888 887 889
f 231 889 890
f 889 211 831
f 831 212 890
f 889 831 890
f 232 891 892
f 891 231 890
f 890 212 892
f 891 890 892
f 232 892 893
f 892 212 834
f 834 213 893
f 892 834 893
f 233 894 895
f 894 232 893
f 893 213 895
f 894 893 895
f 233 895 896
f 895 213 837
f 837 214 896
f 895 837 896
f 234 897 898
f 897 233 896
f 896 214 898
f 897 896 898
f 234 898 899
f 898 214 840
f 840 215 899
f 898 840 899
f 235 900 901
f 900 234 899
f 899 215 901
f 900 899 901
f 235 901 902
f 901 215 843
f 843 216 902
f 901 843 902
f 236 903 904
f 903 235 902
f 902 216 904
f 903 902 904
f 236 904 905
f 904 216 846
f 846 217 905
f 904 846 905
f 237 906 907
f 906 236 905
f 905 217 907
f 906 905 907
f 237 907 908
f 907 217 849
f 849 218 908
f 907 849 908
f 238 909 910
f 909 237 908
f 908 218 910
f 909 908 910
f 238 910 911
f 910 218 852
f 852 219 911
f 910 852 911
f 239 912 913
f 912 238 911
f 911 219 913
f 912 911 913
f 239 913 914
f 913 219 855
f 855 220 914
f 913 855 914
f 240 915 916
f 915 239 914
f 914 220 916
f 915 914 916
f 240 916 917
f 916 220 858
f 858 221 917
f 916 858 917
f 241 918 919
f 918 240 917
f 917 221 919
f 918 917 919
f 241 919 920
f 919 221 861
f 861 222 920
f 919 861 920
f 242 921 922
f 921 241 920
f 920 222 922
f 921 920 922
f 242 922 923
f 922 222 863
f 863 42 923
f 922 863 923
f 3 244 924
f 244 2 864
f 864 223 924
f 244 864 924
f 3 924 925
f 924 223 867
f 867 224 925
f 924 867 925
f 4 246 926
f 246 3 925
f 925 224 926
f 246 925 926
f 4 926 927
f 926 224 870
f 870 225 927
f 926 870 927
f 6 250 928
f 250 4 927
f 927 225 928
f 250 927 928
f 6 928 929
f 928 225 873
f 873 226 929
f 928 873 929
f 8 254 930
f 254 6 929
f 929 226 930
f 254 929 930
f 8 930 931
f 930 226 876
f 876 227 931
f 930 876 931
f 10 258 932
f 258 8 931
f 931 227 932
f 258 931 932
f 10 932 933
f 932 227 879
f 879 228 933
f 932 879 933
f 12 262 934
f 262 10 933
f 933 228 934
f 262 933 934
f 12 934 935
f 934 228 882
f 882 229 935
f 934 882 935
f 14 266 936
f 266 12 935
f 935 229 936
f 266 935 936
f 14 936 937
f 936 229 885
f 885 230 937
f 936 885 937
f 16 270 938
f 270 14 937
f 937 230 938
f 270 937 938
f 16 938 939
f 938 230 888
f 888 231 939
f 938 888 939
f 18 274 940
f 274 16 939
f 939 231 940
f 274 939 940
f 18 940 941
f 940 231 891
f 891 232 941
f 940 891 941
f 20 278 942
f 278 18 941
f 941 232 942
f 278 941 942
f 20 942 943
f 942 232 894
f 894 233 943
f 942 894 943
f 22 282 944
f 282 20 943
f 943 233 944
f 282 943 944
f 22 944 945
f 944 233 897
f 897 234 945
f 944 897 945
f 24 286 946
f 286 22 945
f 945 234 946
f 286 945 946
f 24 946 947
f 946 234 900
f 900 235 947
f 946 900 947
f 26 290 948
f 290 24 947
f 947 235 948
f 290 947 948
f 26 948 949
f 948 235 903
f 903 236 949
f 948 903 949
f 28 294 950
f 294 26 949
f 949 236 950
f 294 949 950
f 28 950 951
f 950 236 906
f 906 237 951
f 950 906 951
f 30 298 952
f 298 28 951
f 951 237 952
f 298 951 952
f 30 952 953
f 952 237 909
f 909 238 953
f 952 909 953
f 32 302 954
f 302 30 953
f 953 238 954
f 302 953 954
f 32 954 955
f 954 238 912
f 912 239 955
f 954 912 955
f 34 306 956
f 306 32 955
f 955 239 956
f 306 955 956
f 34 956 957
f 956 239 915
f 915 240 957
f 956 915 957
f 36 310 958
f 310 34 957
f 957 240 958
f 310 957 958
f 36 958 959
f 958 240 918
f 918 241 959
f 958 918 959
f 38 314 960
f 314 36 959
f 959 241 960
f 314 959 960
f 38 960 961
f 960 241 921
f 921 242 961
f 960 921 961
f 40 318 962
f 318 38 961
f 961 242 962
f 318 961 962
f 40 962 322
f 962 242 923
f 923 42 322
f 962 923 322
