# Unified Preprocessed OBJ file from m1614.obj
# Applied remeshing: Yes
# Applied 4-step normalization: centering, PCA alignment, flipping, scaling
# Generated on 2025-09-29 15:06:41

v -0.373730 -0.110732 0.040988
v -0.368290 -0.111323 0.041184
v -0.368557 -0.066587 0.098493
v -0.177467 -0.091383 0.034165
v -0.177542 -0.076516 0.061019
v -0.252255 -0.101610 0.037807
v -0.166671 -0.092895 0.034743
v -0.166747 -0.077779 0.062055
v -0.163763 -0.088667 0.033197
v -0.103086 -0.080554 0.030325
v -0.103152 -0.067327 0.054193
v -0.084487 -0.077791 0.062448
v -0.074392 -0.080570 0.064664
v -0.065026 -0.114426 0.042699
v -0.065119 -0.095710 0.076526
v -0.054550 -0.115276 0.043013
v -0.043608 -0.104304 0.039034
v -0.032089 -0.062321 0.023786
v -0.008276 -0.054604 0.021008
v -0.022187 -0.046180 0.038062
v 0.010093 -0.055415 0.021320
v 0.327305 -0.111337 0.042008
v 0.316394 -0.062534 0.099686
v 0.289034 -0.088918 0.033836
v 0.368239 -0.115006 0.043394
v 0.507933 -0.191362 0.071324
v 0.507774 -0.159464 0.128966
v 0.522972 -0.178118 0.066534
v 0.522824 -0.148336 0.120349
v 0.546595 -0.196801 0.073354
v 0.546430 -0.163943 0.132643
v 0.564615 -0.196884 0.073393
v 0.564450 -0.163996 0.132768
v 0.579680 -0.186519 0.069655
v 0.576675 -0.111510 0.174979
v -0.414537 -0.029900 -0.007154
v -0.414508 -0.029262 0.011307
v -0.420036 -0.021568 -0.004742
v -0.406508 -0.028217 0.010945
v -0.378878 -0.064454 0.095219
v -0.373738 -0.117697 0.005061
v -0.323986 -0.149962 0.006099
v -0.368390 -0.158889 0.081580
v -0.188507 -0.094725 0.003995
v -0.173491 -0.101496 0.004197
v -0.169163 -0.102643 0.004207
v -0.103092 -0.085744 0.003550
v -0.069885 -0.107201 -0.030814
v -0.065035 -0.121808 0.004704
v -0.022200 -0.056772 -0.016548
v 0.487641 -0.207421 0.006808
v 0.522408 -0.192333 0.006222
v 0.522958 -0.189853 0.006139
v 0.546579 -0.209690 0.006785
v 0.564599 -0.209785 0.006762
v -0.406583 -0.025019 -0.015063
v -0.395997 -0.021780 0.001779
v -0.373843 -0.113221 -0.031268
v -0.368404 -0.113827 -0.031461
v -0.252536 -0.089606 -0.059804
v -0.177562 -0.093476 -0.026428
v -0.166768 -0.095020 -0.026914
v -0.163855 -0.090704 -0.025698
v -0.107047 -0.080431 -0.022966
v -0.065145 -0.117080 -0.033674
v -0.054670 -0.117937 -0.033972
v 0.255496 -0.080665 0.030793
v 0.288776 -0.077879 -0.055948
v 0.327185 -0.113959 -0.034462
v 0.399699 -0.133369 -0.040343
v 0.487449 -0.199237 -0.059632
v 0.522229 -0.184718 -0.055600
v 0.522782 -0.182332 -0.054921
v 0.546385 -0.201402 -0.060496
v 0.564404 -0.201487 -0.060599
v 0.579481 -0.190931 -0.057631
v -0.414651 -0.019557 -0.022466
v -0.383261 -0.087215 -0.057238
v -0.374034 -0.097729 -0.064407
v -0.276223 -0.096969 -0.064617
v -0.177723 -0.080494 -0.054232
v -0.166931 -0.081814 -0.055220
v -0.084672 -0.081880 -0.055872
v -0.065347 -0.100721 -0.068724
v -0.054874 -0.101440 -0.069311
v -0.043902 -0.091754 -0.062851
v -0.022300 -0.048662 -0.033909
v 0.165318 -0.042996 -0.059772
v 0.316355 -0.095011 -0.067735
v 0.507386 -0.168006 -0.118460
v 0.522461 -0.156314 -0.110644
v 0.546031 -0.172726 -0.121923
v 0.564051 -0.172802 -0.122107
v -0.396149 -0.008107 -0.018470
v -0.374292 -0.072794 -0.091167
v -0.368855 -0.073171 -0.091718
v -0.351497 -0.106272 -0.134337
v -0.361297 -0.127806 -0.117862
v -0.188960 -0.058046 -0.074602
v -0.173976 -0.062180 -0.080086
v -0.169653 -0.062866 -0.081018
v -0.107374 -0.050993 -0.066592
v -0.065620 -0.074334 -0.097014
v -0.032418 -0.040107 -0.053588
v -0.008567 -0.034997 -0.047342
v 0.326710 -0.071145 -0.097855
v 0.399144 -0.083352 -0.114403
v 0.506921 -0.123055 -0.166613
v 0.522027 -0.114340 -0.155639
v 0.545553 -0.126481 -0.171487
v 0.563572 -0.126489 -0.171723
v 0.578689 -0.119674 -0.163184
v -0.414808 -0.002193 -0.028784
v -0.406798 -0.002089 -0.027764
v -0.374592 -0.040761 -0.108880
v -0.369157 -0.040962 -0.109532
v -0.276782 -0.039979 -0.109107
v -0.178191 -0.032702 -0.091541
v -0.167407 -0.033210 -0.093164
v -0.164466 -0.031645 -0.088965
v -0.107593 -0.027685 -0.079490
v -0.055498 -0.040753 -0.116687
v -0.032777 -0.000345 -0.068047
v -0.008884 0.000153 -0.060088
v 0.306874 -0.033183 -0.104941
v 0.506380 -0.065432 -0.198535
v 0.521522 -0.060503 -0.185440
v 0.544997 -0.067176 -0.204322
v 0.563015 -0.067116 -0.204612
v -0.420229 -0.001941 -0.020064
v -0.374905 -0.004876 -0.115850
v -0.369485 -0.080948 -0.157309
v -0.325479 -0.005592 -0.148622
v -0.189460 -0.002563 -0.094766
v -0.174513 -0.002692 -0.101671
v -0.170197 -0.002691 -0.102886
v -0.075362 -0.001930 -0.103800
v -0.085423 -0.001888 -0.100178
v -0.066268 -0.002513 -0.123112
v -0.055831 -0.002467 -0.124115
v -0.044745 -0.001968 -0.112552
v 0.287782 0.032209 -0.095955
v 0.325748 0.039200 -0.119268
v 0.398386 0.000631 -0.144951
v 0.505817 -0.000741 -0.211084
v 0.520996 -0.000133 -0.197156
v 0.544417 -0.000628 -0.217234
v 0.562434 -0.000487 -0.217512
v 0.577609 0.000015 -0.206695
v -0.414947 0.015560 -0.023684
v -0.375200 0.031453 -0.111374
v -0.369769 0.031681 -0.112035
v -0.253617 0.030083 -0.103316
v -0.178701 0.027889 -0.093633
v -0.167926 0.028445 -0.095287
v -0.164962 0.027248 -0.091002
v -0.108035 0.024886 -0.081309
v -0.066580 0.035863 -0.118384
v -0.023041 0.036387 -0.050400
v 0.164568 0.046117 -0.062834
v 0.505285 0.064652 -0.203027
v 0.520500 0.060924 -0.189634
v 0.543870 0.066652 -0.208945
v 0.561887 0.066872 -0.209214
v -0.406976 0.021647 -0.016679
v -0.396348 0.018524 -0.006042
v -0.380290 0.062709 -0.093163
v -0.370018 0.065037 -0.096494
v -0.277638 0.065431 -0.096080
v -0.189904 0.054154 -0.078486
v -0.174989 0.058139 -0.084213
v -0.075846 0.060041 -0.085996
v -0.085890 0.057937 -0.082986
v -0.066843 0.070929 -0.102001
v -0.056410 0.071567 -0.102849
v 0.325486 0.074289 -0.102903
v 0.397714 0.086551 -0.120265
v 0.504839 0.124340 -0.175134
v 0.520083 0.116664 -0.163592
v 0.543410 0.128077 -0.180266
v 0.561426 0.128378 -0.180526
v 0.576652 0.122420 -0.171523
v -0.415015 0.026930 -0.009120
v -0.380462 0.088694 -0.068894
v -0.370197 0.091936 -0.071377
v -0.353455 0.134732 -0.104706
v -0.363654 0.118408 -0.125859
v -0.190048 0.075990 -0.058089
v -0.175143 0.081548 -0.062358
v -0.108345 0.068511 -0.051869
v -0.067030 0.099203 -0.075635
v -0.056599 0.100057 -0.076253
v -0.045441 0.091018 -0.069146
v -0.023134 0.050397 -0.037332
v 0.305889 0.092668 -0.068795
v 0.504520 0.172516 -0.130198
v 0.519785 0.161641 -0.121638
v 0.543082 0.177640 -0.134019
v 0.561098 0.177993 -0.134211
v -0.420320 0.016347 0.012961
v -0.375714 0.109086 -0.038928
v -0.370286 0.109773 -0.039185
v -0.277904 0.109903 -0.039109
v -0.179132 0.093001 -0.032857
v -0.168365 0.094711 -0.033451
v -0.076083 0.099708 -0.035180
v -0.086119 0.096233 -0.033928
v -0.067123 0.117935 -0.041784
v -0.033251 0.066381 -0.023006
v -0.009302 0.059063 -0.020316
v 0.305805 0.109552 -0.038289
v 0.504375 0.216987 -0.007880
v 0.504360 0.204414 -0.072555
v 0.519636 0.191441 -0.067800
v 0.542918 0.210475 -0.074712
v 0.560933 0.210882 -0.074836
v 0.576184 0.200788 -0.071131
v -0.414986 0.027571 0.009345
v -0.406970 0.026649 0.009050
v -0.375705 0.116051 -0.003001
v -0.371384 0.167938 -0.060320
v -0.326504 0.149126 -0.004244
v -0.190114 0.096154 -0.002604
v -0.175214 0.103197 -0.002881
v -0.170905 0.104399 -0.002929
v -0.108403 0.086483 -0.002402
v -0.067114 0.125301 -0.003812
v -0.056684 0.126371 -0.003872
v -0.033184 0.067834 0.019292
v -0.009244 0.060341 0.017016
v 0.314631 0.125441 -0.004427
v 0.366075 0.133361 -0.004782
v 0.519650 0.203158 -0.007427
v 0.542934 0.223387 -0.008161
v 0.560949 0.223783 -0.008204
v -0.375601 0.111558 0.033306
v -0.370172 0.112254 0.033479
v -0.253988 0.104307 0.030718
v -0.179037 0.095094 0.027737
v -0.168268 0.096818 0.028182
v -0.165288 0.092552 0.026956
v -0.108327 0.083229 0.024013
v -0.067004 0.120591 0.034588
v -0.056573 0.121604 0.034825
v -0.045417 0.110559 0.031599
v 0.211523 0.055157 0.065378
v 0.325526 0.107642 0.068987
v 0.504564 0.208932 0.057515
v 0.519827 0.195637 0.053632
v 0.543128 0.215117 0.059143
v 0.561144 0.215503 0.059179
v 0.576383 0.205183 0.056133
v -0.414871 0.017224 0.024653
v -0.396248 0.011776 0.017440
v -0.375410 0.096106 0.066451
v -0.277600 0.096940 0.066292
v -0.189873 0.079876 0.054115
v -0.174955 0.085700 0.057947
v -0.075812 0.088127 0.058837
v -0.085857 0.085052 0.056836
v -0.066802 0.104231 0.069638
v -0.022885 0.039805 0.048657
v 0.397762 0.125474 0.080511
v 0.504907 0.181058 0.117228
v 0.520147 0.169637 0.109378
v 0.543481 0.186441 0.120570
v 0.561497 0.186800 0.120665
v -0.406785 0.008762 0.028212
v -0.375152 0.071130 0.093205
v -0.369720 0.071597 0.093736
v -0.353046 0.105093 0.136387
v -0.363265 0.126385 0.120009
v -0.189662 0.059479 0.075952
v -0.174729 0.063863 0.081381
v -0.108000 0.053790 0.067639
v -0.066529 0.077826 0.097907
v -0.056065 0.078512 0.098655
v 0.505372 0.136106 0.165382
v 0.520581 0.127644 0.154351
v 0.543960 0.140177 0.170112
v 0.561976 0.140486 0.170282
v 0.577174 0.133925 0.161686
v -0.414714 -0.000136 0.030974
v -0.374852 0.039138 0.110924
v -0.369418 0.039407 0.111573
v -0.277041 0.039950 0.110782
v -0.178409 0.034320 0.092850
v -0.167629 0.035008 0.094432
v -0.075314 0.037314 0.098505
v -0.085377 0.035996 0.095132
v -0.066212 0.043977 0.116640
v -0.055745 0.044420 0.117541
v -0.044693 0.040554 0.106641
v -0.022728 0.023036 0.057938
v 0.326117 0.047314 0.116083
v 0.398452 0.055025 0.135508
v 0.505913 0.078484 0.197303
v 0.521086 0.073826 0.184174
v 0.544516 0.080891 0.202969
v 0.562533 0.081114 0.203170
v -0.374539 0.003212 0.117888
v -0.370059 0.060539 0.169745
v -0.252731 -0.029698 0.104925
v -0.189161 0.004016 0.096138
v -0.174192 0.004371 0.103006
v -0.169872 0.004465 0.104186
v -0.107553 0.004325 0.085610
v -0.065881 0.006023 0.124027
v -0.032563 0.004395 0.068815
v -0.008695 0.004297 0.060767
v 0.506476 0.013794 0.209852
v 0.521612 0.013438 0.195868
v 0.545096 0.014325 0.215858
v 0.563114 0.014503 0.216093
v 0.578255 0.014237 0.205197
v -0.414576 -0.017893 0.025871
v -0.406574 -0.017244 0.025002
v -0.396043 -0.012640 0.018286
v -0.374244 -0.033099 0.113434
v -0.368807 -0.033253 0.114052
v -0.177899 -0.026271 0.094942
v -0.167110 -0.026647 0.096556
v -0.164182 -0.025401 0.092260
v -0.107339 -0.022089 0.082356
v -0.065569 -0.032371 0.119276
v -0.055097 -0.032562 0.120201
v -0.032244 -0.036284 0.057141
v -0.008414 -0.031608 0.050467
v 0.212344 -0.042372 0.068719
v 0.288596 -0.022780 0.095554
v 0.326761 -0.029153 0.118704
v 0.399204 -0.034295 0.138584
v 0.507008 -0.051600 0.201796
v 0.522108 -0.047619 0.188346
v 0.545642 -0.052955 0.207569
v 0.563661 -0.052874 0.207771
v 0.578775 -0.049751 0.197314
v -0.188717 -0.052720 0.079836
v -0.173716 -0.056438 0.085530
v -0.169391 -0.057093 0.086496
v -0.107158 -0.046233 0.071086
v -0.074550 -0.056700 0.086922
v -0.065307 -0.067420 0.102916
v -0.054833 -0.067900 0.103702
v -0.043865 -0.061328 0.094089
v 0.399511 -0.075279 0.119455
v 0.487170 -0.113327 0.176705
v 0.521970 -0.104759 0.164374
v 0.564122 -0.114380 0.179084
v -0.376475 -0.117006 0.074258
v -0.387711 -0.153594 0.019957
v -0.388220 -0.150561 0.067911
v -0.360997 -0.152686 0.085995
v -0.368348 -0.178765 0.014661
v -0.376519 -0.134887 -0.029426
v -0.351615 -0.169449 -0.019492
v -0.368546 -0.170489 -0.054680
v -0.388748 -0.123339 -0.094193
v -0.388426 -0.153775 -0.057515
v -0.377189 -0.073729 -0.115159
v -0.389150 -0.019395 -0.151606
v -0.389316 -0.067452 -0.148743
v -0.370080 -0.014068 -0.177046
v -0.378088 0.030029 -0.132916
v -0.353475 0.020277 -0.167749
v -0.362572 0.047862 -0.168135
v -0.390619 0.094610 -0.121053
v -0.390370 0.058046 -0.151580
v -0.378689 0.115614 -0.071616
v -0.390332 0.151908 -0.017309
v -0.390969 0.148963 -0.065229
v -0.363853 0.151563 -0.083434
v -0.371372 0.177309 -0.012013
v -0.378645 0.133294 0.031999
v -0.354644 0.168163 0.021982
v -0.363175 0.168482 0.049594
v -0.390437 0.121259 0.096489
v -0.390760 0.151698 0.059955
v -0.378261 0.072159 0.117495
v -0.389181 0.017867 0.153948
v -0.389872 0.065648 0.150788
v -0.363136 0.084005 0.153200
v -0.369642 0.012611 0.179041
v -0.377078 -0.031368 0.135255
v -0.352787 -0.021192 0.169876
v -0.361703 -0.049372 0.170425
v -0.388572 -0.096062 0.123549
v -0.388821 -0.059456 0.153897
v -0.361196 -0.119422 0.128329
v -0.376581 -0.099480 0.096477
v -0.371010 -0.111028 0.041086
v -0.368423 -0.088955 0.069839
v -0.371143 -0.088659 0.069741
v -0.177505 -0.083950 0.047592
v -0.214898 -0.089063 0.049413
v -0.214861 -0.096497 0.035986
v -0.166709 -0.085337 0.048399
v -0.172144 -0.077148 0.061537
v -0.172106 -0.084706 0.047881
v -0.172069 -0.092139 0.034454
v -0.165217 -0.090781 0.033970
v -0.165255 -0.083223 0.047626
v -0.134916 -0.079167 0.046190
v -0.103119 -0.073941 0.042259
v -0.134949 -0.072553 0.058124
v -0.093786 -0.079172 0.046386
v -0.093819 -0.072559 0.058320
v -0.088739 -0.080562 0.047495
v -0.079440 -0.079180 0.063556
v -0.065072 -0.105068 0.059613
v -0.069756 -0.088140 0.070595
v -0.069709 -0.097498 0.053681
v -0.059788 -0.114851 0.042856
v -0.059834 -0.105493 0.059770
v -0.049079 -0.109790 0.041023
v -0.054364 -0.100007 0.057780
v -0.020183 -0.058463 0.022397
v -0.015232 -0.050392 0.029535
v -0.027138 -0.054251 0.030924
v 0.000908 -0.055009 0.021164
v -0.006047 -0.050797 0.029691
v 0.321850 -0.086936 0.070847
v 0.302714 -0.075726 0.066761
v 0.308170 -0.100127 0.037922
v 0.347772 -0.113171 0.042701
v 0.342317 -0.088770 0.071540
v 0.507853 -0.175413 0.100145
v 0.438006 -0.137235 0.086180
v 0.438086 -0.153184 0.057359
v 0.522898 -0.163227 0.093441
v 0.515299 -0.153900 0.124657
v 0.515373 -0.168791 0.097750
v 0.515453 -0.184740 0.068929
v 0.546512 -0.180372 0.102998
v 0.534627 -0.156140 0.126496
v 0.534709 -0.172568 0.096851
v 0.534784 -0.187459 0.069944
v 0.564532 -0.180440 0.103081
v 0.555440 -0.163970 0.132705
v 0.555522 -0.180413 0.103018
v 0.555605 -0.196842 0.073374
v 0.578177 -0.149015 0.122317
v 0.570562 -0.137753 0.153874
v 0.572065 -0.175258 0.101211
v 0.572147 -0.191701 0.071524
v -0.414522 -0.029581 0.002076
v -0.417272 -0.025415 0.003282
v -0.417286 -0.025734 -0.005948
v -0.410522 -0.029058 0.001896
v -0.410508 -0.028739 0.011126
v -0.376308 -0.091075 0.050140
v -0.373734 -0.114214 0.023025
v -0.376304 -0.087593 0.068104
v -0.371014 -0.114510 0.023123
v -0.288121 -0.125786 0.021953
v -0.310323 -0.130250 0.059694
v -0.346188 -0.154426 0.043840
v -0.182987 -0.093054 0.019080
v -0.220381 -0.098168 0.020901
v -0.180999 -0.098111 0.004096
v -0.175479 -0.096440 0.019181
v -0.167917 -0.097769 0.019475
v -0.173315 -0.097013 0.019186
v -0.171327 -0.102069 0.004202
v -0.166463 -0.095655 0.018702
v -0.134919 -0.081762 0.032803
v -0.133428 -0.087206 0.018374
v -0.136127 -0.094194 0.003879
v -0.103089 -0.083149 0.016938
v -0.072138 -0.093885 0.016925
v -0.086485 -0.093878 -0.000244
v -0.086488 -0.096473 -0.013632
v -0.065030 -0.118117 0.023701
v -0.069713 -0.101189 0.034684
v -0.059792 -0.118542 0.023858
v -0.054322 -0.113056 0.021869
v -0.027144 -0.059547 0.003619
v -0.037849 -0.083313 0.031410
v -0.032904 -0.080538 0.011243
v 0.497787 -0.199391 0.039066
v 0.427940 -0.161213 0.025101
v 0.505024 -0.199877 0.006515
v 0.515170 -0.191848 0.038773
v 0.522690 -0.185226 0.036378
v 0.522683 -0.191093 0.006180
v 0.522965 -0.183986 0.036336
v 0.546587 -0.203245 0.040070
v 0.534776 -0.193904 0.036660
v 0.534769 -0.199772 0.006462
v 0.564607 -0.203334 0.040078
v 0.555597 -0.203293 0.040058
v 0.555589 -0.209738 0.006774
v 0.572139 -0.198152 0.038208
v -0.406546 -0.026618 -0.002059
v -0.410560 -0.027459 -0.011108
v -0.401290 -0.023399 -0.006642
v -0.401253 -0.024998 0.006362
v -0.373790 -0.115459 -0.013103
v -0.376361 -0.088838 0.031976
v -0.371123 -0.113524 -0.031364
v -0.371071 -0.115762 -0.013200
v -0.252396 -0.095608 -0.010998
v -0.288261 -0.119784 -0.026853
v -0.215049 -0.091541 -0.043116
v -0.214909 -0.097543 0.005690
v -0.183035 -0.094101 -0.011216
v -0.175527 -0.097486 -0.011115
v -0.167965 -0.098831 -0.011353
v -0.170129 -0.098258 -0.011358
v -0.172165 -0.094248 -0.026671
v -0.165312 -0.092862 -0.026306
v -0.166509 -0.096674 -0.010746
v -0.138105 -0.091537 -0.009380
v -0.105069 -0.083088 -0.009708
v -0.088466 -0.093816 -0.026890
v -0.065090 -0.119444 -0.014485
v -0.069769 -0.098825 0.015495
v -0.067515 -0.112141 -0.032244
v -0.059908 -0.117509 -0.033823
v -0.059852 -0.119872 -0.014634
v -0.049139 -0.111121 0.002531
v -0.038435 -0.087355 -0.025260
v -0.015238 -0.055688 0.002230
v -0.006054 -0.056094 0.002386
v 0.116648 -0.068719 0.007123
v 0.132794 -0.068040 0.026056
v 0.288905 -0.083398 -0.011056
v 0.272265 -0.084792 0.032314
v 0.272136 -0.079272 -0.012577
v 0.327245 -0.112648 0.003773
v 0.308110 -0.101439 -0.000313
v 0.383969 -0.124187 0.001526
v 0.363502 -0.122353 0.000833
v 0.363442 -0.123664 -0.037402
v 0.487545 -0.203329 -0.026412
v 0.427844 -0.157121 -0.008119
v 0.443574 -0.166303 -0.049987
v 0.522318 -0.188525 -0.024689
v 0.504935 -0.196069 -0.024396
v 0.504839 -0.191977 -0.057616
v 0.522870 -0.186092 -0.024391
v 0.522595 -0.187332 -0.024349
v 0.522506 -0.183525 -0.055260
v 0.546482 -0.205546 -0.026855
v 0.534672 -0.195628 -0.027179
v 0.534583 -0.191867 -0.057708
v 0.564501 -0.205636 -0.026918
v 0.555492 -0.205589 -0.026907
v 0.555394 -0.201445 -0.060548
v 0.579580 -0.188725 0.006012
v 0.572040 -0.200358 -0.025434
v 0.571942 -0.196209 -0.059115
v -0.414594 -0.024729 -0.014810
v -0.417344 -0.020563 -0.013604
v -0.410617 -0.022288 -0.018764
v -0.378552 -0.100218 -0.044253
v -0.381070 -0.075835 0.018991
v -0.389629 -0.054498 -0.027730
v -0.387438 -0.043117 0.048499
v -0.378648 -0.092472 -0.060823
v -0.373938 -0.105475 -0.047838
v -0.371219 -0.105778 -0.047934
v -0.264380 -0.093288 -0.062211
v -0.300105 -0.123466 -0.029259
v -0.215129 -0.085050 -0.057018
v -0.177642 -0.086985 -0.040330
v -0.166849 -0.088417 -0.041067
v -0.172247 -0.087645 -0.040824
v -0.172327 -0.081154 -0.054726
v -0.165393 -0.086259 -0.040459
v -0.135451 -0.085568 -0.024332
v -0.136989 -0.081122 -0.039093
v -0.077278 -0.094541 -0.043343
v -0.095860 -0.081156 -0.039419
v -0.065246 -0.108901 -0.051199
v -0.067616 -0.103961 -0.049769
v -0.075010 -0.091301 -0.062298
v -0.054772 -0.109688 -0.051641
v -0.060009 -0.109260 -0.051492
v -0.060110 -0.101080 -0.069017
v -0.049388 -0.096597 -0.066081
v -0.049286 -0.104846 -0.048412
v -0.022250 -0.052717 -0.025228
v -0.038485 -0.083299 -0.033941
v -0.033101 -0.070208 -0.048380
v 0.071559 -0.049884 -0.038160
v 0.210407 -0.061830 -0.014489
v 0.227047 -0.060437 -0.057860
v 0.321770 -0.104485 -0.051098
v 0.302695 -0.091965 -0.016950
v 0.302565 -0.086445 -0.061841
v 0.497417 -0.183621 -0.089046
v 0.453543 -0.150687 -0.079401
v 0.514807 -0.176362 -0.087030
v 0.514924 -0.162160 -0.114552
v 0.522345 -0.170516 -0.083122
v 0.522622 -0.169323 -0.082782
v 0.546208 -0.187064 -0.091210
v 0.534407 -0.177529 -0.088422
v 0.534246 -0.164520 -0.116284
v 0.564227 -0.187145 -0.091353
v 0.555218 -0.187102 -0.091301
v 0.555041 -0.172764 -0.122015
v 0.571766 -0.181867 -0.089869
v -0.396073 -0.014943 -0.008346
v -0.401366 -0.016563 -0.016766
v -0.374163 -0.085261 -0.077787
v -0.378776 -0.080005 -0.074202
v -0.371573 -0.072982 -0.091442
v -0.371444 -0.085450 -0.078062
v -0.313860 -0.101621 -0.099477
v -0.318760 -0.112388 -0.091239
v -0.356397 -0.117039 -0.126099
v -0.183341 -0.069270 -0.064417
v -0.220748 -0.073826 -0.067203
v -0.181468 -0.060113 -0.077344
v -0.175849 -0.071337 -0.067159
v -0.168292 -0.072340 -0.068119
v -0.173688 -0.071680 -0.067625
v -0.171815 -0.062523 -0.080552
v -0.107210 -0.065712 -0.044779
v -0.137152 -0.066403 -0.060906
v -0.138514 -0.056929 -0.073805
v -0.096023 -0.066437 -0.061232
v -0.065483 -0.087527 -0.082869
v -0.075146 -0.078107 -0.076443
v -0.060247 -0.087887 -0.083163
v -0.054761 -0.083044 -0.079933
v -0.027359 -0.044384 -0.043749
v -0.038160 -0.065931 -0.058220
v -0.020493 -0.037552 -0.050465
v -0.015433 -0.041829 -0.040626
v 0.071509 -0.045829 -0.046840
v 0.321532 -0.083078 -0.082795
v 0.307743 -0.074512 -0.076902
v 0.363165 -0.098656 -0.074432
v 0.357749 -0.089182 -0.091069
v 0.362927 -0.077248 -0.106129
v 0.399422 -0.108361 -0.077373
v 0.507153 -0.145530 -0.142536
v 0.453310 -0.128212 -0.103478
v 0.453032 -0.103204 -0.140508
v 0.522244 -0.135327 -0.133142
v 0.514707 -0.141173 -0.137049
v 0.514474 -0.118697 -0.161126
v 0.545792 -0.149603 -0.146705
v 0.534007 -0.141397 -0.141065
v 0.533790 -0.120410 -0.163563
v 0.563811 -0.149645 -0.146915
v 0.554801 -0.149607 -0.146823
v 0.554562 -0.126485 -0.171605
v 0.579085 -0.155303 -0.110407
v 0.571370 -0.146238 -0.142645
v 0.571131 -0.123082 -0.167453
v 0.579185 -0.153097 -0.046765
v -0.414730 -0.010875 -0.025625
v -0.417422 -0.011881 -0.016763
v -0.406691 -0.013554 -0.021413
v -0.410725 -0.010823 -0.025115
v -0.410803 -0.002141 -0.028274
v -0.401474 -0.005098 -0.023117
v -0.374442 -0.056777 -0.100023
v -0.378927 -0.063988 -0.083059
v -0.369006 -0.057066 -0.100625
v -0.371724 -0.056878 -0.100349
v -0.371875 -0.040861 -0.109206
v -0.276502 -0.068474 -0.086862
v -0.314139 -0.073126 -0.121722
v -0.264659 -0.064793 -0.084456
v -0.183575 -0.045374 -0.083072
v -0.215364 -0.061154 -0.075673
v -0.227486 -0.036341 -0.100324
v -0.176083 -0.047441 -0.085814
v -0.168530 -0.048038 -0.087091
v -0.170691 -0.047695 -0.086625
v -0.172799 -0.032956 -0.092352
v -0.165937 -0.032427 -0.091064
v -0.167060 -0.047255 -0.084992
v -0.138623 -0.045276 -0.080254
v -0.107483 -0.039339 -0.073041
v -0.096132 -0.054783 -0.067681
v -0.060559 -0.057543 -0.106851
v -0.070085 -0.061316 -0.086280
v -0.049700 -0.066253 -0.089769
v -0.032598 -0.020226 -0.060818
v -0.038340 -0.046049 -0.065449
v -0.044137 -0.020549 -0.092367
v -0.008726 -0.017422 -0.053715
v -0.020651 -0.019977 -0.056838
v 0.078376 -0.038997 -0.053557
v 0.236096 -0.038090 -0.082356
v 0.297825 -0.055531 -0.080445
v 0.316792 -0.052164 -0.101398
v 0.506651 -0.094244 -0.182574
v 0.452762 -0.074392 -0.156469
v 0.521775 -0.087422 -0.170539
v 0.514222 -0.091779 -0.176026
v 0.513951 -0.062968 -0.191987
v 0.545275 -0.096828 -0.187904
v 0.533512 -0.090758 -0.179981
v 0.533259 -0.063840 -0.194881
v 0.563293 -0.096802 -0.188167
v 0.554284 -0.096798 -0.188049
v 0.554006 -0.067146 -0.204467
v 0.570852 -0.093395 -0.183898
v -0.417518 -0.002067 -0.024424
v -0.420132 -0.011755 -0.012403
v -0.389705 -0.047661 -0.037854
v -0.374749 -0.022818 -0.112365
v -0.379083 -0.046045 -0.086544
v -0.372031 -0.022919 -0.112691
v -0.360491 -0.093610 -0.145823
v -0.323133 -0.060464 -0.133208
v -0.301131 -0.022786 -0.128864
v -0.347482 -0.043270 -0.152966
v -0.183826 -0.017633 -0.093153
v -0.233121 -0.021271 -0.101936
v -0.181987 -0.002628 -0.098218
v -0.176352 -0.017697 -0.096606
v -0.168802 -0.017950 -0.098025
v -0.174194 -0.017697 -0.097213
v -0.172355 -0.002691 -0.102278
v -0.167331 -0.017168 -0.095925
v -0.136029 -0.029665 -0.084228
v -0.138895 -0.015188 -0.091188
v -0.080017 -0.041905 -0.079836
v -0.091477 -0.014808 -0.091645
v -0.080392 -0.001909 -0.101989
v -0.096508 -0.014786 -0.089834
v -0.060883 -0.021633 -0.119900
v -0.075470 -0.042197 -0.089492
v -0.070815 -0.002222 -0.113456
v -0.061050 -0.002490 -0.123614
v -0.055665 -0.021610 -0.120401
v -0.050288 -0.002218 -0.118334
v -0.050121 -0.021361 -0.114620
v -0.038761 -0.001156 -0.090300
v -0.020831 -0.000096 -0.064068
v 0.078217 -0.021422 -0.059930
v 0.297328 -0.000487 -0.100448
v 0.226550 -0.005394 -0.077863
v 0.306765 0.035704 -0.107611
v 0.316311 0.003008 -0.112105
v 0.326229 -0.015972 -0.108562
v 0.362067 0.019915 -0.132110
v 0.362548 -0.035257 -0.121403
v 0.398765 -0.041361 -0.129677
v 0.506098 -0.033087 -0.204810
v 0.452480 -0.042047 -0.162743
v 0.452101 -0.000055 -0.178018
v 0.521259 -0.030318 -0.191298
v 0.513688 -0.032783 -0.197846
v 0.513406 -0.000437 -0.204120
v 0.544707 -0.033902 -0.210778
v 0.532970 -0.030565 -0.201337
v 0.532707 -0.000380 -0.207195
v 0.562724 -0.033802 -0.211062
v 0.553715 -0.033832 -0.210917
v 0.553425 -0.000557 -0.217373
v 0.578149 -0.059830 -0.184940
v 0.570312 -0.033551 -0.205653
v 0.570022 -0.000236 -0.212104
v 0.578644 -0.093252 -0.068520
v -0.414878 0.006684 -0.026234
v -0.417588 0.006810 -0.021874
v -0.410873 0.006736 -0.025724
v -0.375052 0.013288 -0.113612
v -0.379231 -0.027881 -0.084306
v -0.372484 0.031567 -0.111704
v -0.372337 0.013403 -0.113942
v -0.289548 0.012245 -0.125969
v -0.265199 -0.004948 -0.106211
v -0.184081 0.012663 -0.094199
v -0.227741 -0.006045 -0.101370
v -0.216159 0.028986 -0.098474
v -0.176607 0.012599 -0.097652
v -0.169061 0.012877 -0.099086
v -0.171219 0.012876 -0.098479
v -0.173313 0.028167 -0.094460
v -0.166444 0.027846 -0.093144
v -0.167579 0.012279 -0.096944
v -0.139116 0.011097 -0.092097
v -0.107814 -0.001400 -0.080400
v -0.096729 0.011499 -0.090744
v -0.091698 0.011478 -0.092554
v -0.066424 0.016675 -0.120748
v -0.070971 0.016967 -0.111092
v -0.061206 0.016698 -0.121250
v -0.055662 0.016947 -0.115468
v -0.027909 0.018021 -0.059223
v -0.033893 0.017209 -0.081476
v 0.077842 0.023135 -0.061461
v 0.164943 0.001561 -0.061303
v 0.226175 0.039163 -0.079394
v 0.505551 0.031955 -0.207056
v 0.451836 0.032641 -0.173989
v 0.520748 0.030396 -0.193395
v 0.513158 0.030092 -0.200359
v 0.512893 0.062788 -0.196331
v 0.544143 0.033012 -0.213089
v 0.532433 0.033259 -0.203051
v 0.532185 0.063788 -0.199289
v 0.562160 0.033192 -0.213363
v 0.553152 0.033122 -0.213224
v 0.552878 0.066762 -0.209079
v 0.569748 0.033443 -0.207954
v -0.406887 0.009779 -0.022222
v -0.410962 0.018604 -0.020182
v -0.396249 0.005208 -0.012256
v -0.401573 0.008217 -0.016903
v -0.401662 0.020085 -0.011361
v -0.377745 0.047081 -0.102269
v -0.381776 -0.012253 -0.075201
v -0.369894 0.048359 -0.104264
v -0.372609 0.048245 -0.103934
v -0.375154 0.063873 -0.094828
v -0.265628 0.047757 -0.099698
v -0.301559 0.029920 -0.122351
v -0.184302 0.041021 -0.086060
v -0.221760 0.042118 -0.090901
v -0.182446 0.056147 -0.081349
v -0.176845 0.043014 -0.088923
v -0.171457 0.043292 -0.089750
v -0.169975 0.042694 -0.087607
v -0.136498 0.026067 -0.086155
v -0.141512 0.041513 -0.082761
v -0.075604 0.029055 -0.094898
v -0.091941 0.042463 -0.083653
v -0.080868 0.058989 -0.084491
v -0.096963 0.041412 -0.082148
v -0.066711 0.053396 -0.110192
v -0.071102 0.034499 -0.102900
v -0.071344 0.065485 -0.093998
v -0.061626 0.071248 -0.102425
v -0.061495 0.053715 -0.110617
v -0.050577 0.034799 -0.107701
v -0.039726 0.053977 -0.076624
v -0.015962 0.018270 -0.055244
v 0.070764 0.041252 -0.056617
v 0.325617 0.056744 -0.111085
v 0.306634 0.053249 -0.099429
v 0.398050 0.043591 -0.132608
v 0.361731 0.062876 -0.119767
v 0.361600 0.080420 -0.111584
v 0.505062 0.094496 -0.189081
v 0.451612 0.062486 -0.160043
v 0.451276 0.105446 -0.147699
v 0.520292 0.088794 -0.176613
v 0.512684 0.090658 -0.183310
v 0.512461 0.120502 -0.169363
v 0.543640 0.097365 -0.194605
v 0.531955 0.094501 -0.184950
v 0.531747 0.122371 -0.171929
v 0.561657 0.097625 -0.194870
v 0.552648 0.097515 -0.194735
v 0.552418 0.128228 -0.180396
v 0.577130 0.061217 -0.189109
v 0.569269 0.094646 -0.190368
v 0.569039 0.125399 -0.176025
v 0.578166 -0.032050 -0.050934
v -0.414981 0.021245 -0.016402
v -0.417622 0.012494 -0.014592
v -0.410996 0.024288 -0.012900
v -0.381862 0.000739 -0.063066
v -0.388306 0.040294 -0.043682
v -0.380376 0.075701 -0.081029
v -0.370107 0.078486 -0.083935
v -0.375243 0.077323 -0.082270
v -0.375329 0.090315 -0.070135
v -0.315547 0.100081 -0.100393
v -0.320646 0.091920 -0.110970
v -0.358555 0.126570 -0.115283
v -0.233843 0.070711 -0.077084
v -0.221833 0.053036 -0.080702
v -0.189976 0.065072 -0.068287
v -0.175066 0.069844 -0.073285
v -0.182524 0.067851 -0.070422
v -0.182596 0.078769 -0.060223
v -0.141667 0.063325 -0.068041
v -0.108190 0.046699 -0.066589
v -0.097118 0.063224 -0.067428
v -0.092096 0.064276 -0.068933
v -0.066936 0.085066 -0.088818
v -0.071438 0.079622 -0.080816
v -0.056505 0.085812 -0.089551
v -0.061721 0.085493 -0.089127
v -0.061814 0.099630 -0.075944
v -0.051020 0.095537 -0.072699
v -0.050926 0.081293 -0.085997
v -0.023087 0.043392 -0.043866
v -0.039772 0.060982 -0.070091
v -0.034287 0.070708 -0.053239
v 0.070717 0.048257 -0.050083
v 0.235229 0.069393 -0.065815
v 0.296836 0.062439 -0.082375
v 0.315688 0.083479 -0.085849
v 0.504679 0.148428 -0.152666
v 0.451117 0.129533 -0.125232
v 0.519934 0.139152 -0.142615
v 0.512312 0.142990 -0.148386
v 0.512152 0.167078 -0.125918
v 0.543246 0.152859 -0.157143
v 0.531583 0.147152 -0.148805
v 0.531434 0.169640 -0.127828
v 0.561262 0.153186 -0.157368
v 0.552254 0.153035 -0.157238
v 0.552090 0.177817 -0.134115
v 0.568875 0.150207 -0.152867
v -0.420274 0.007203 -0.003551
v -0.420178 -0.002611 0.004110
v -0.417667 0.021638 0.001921
v -0.386031 0.063805 -0.022485
v -0.385931 0.050490 -0.028699
v -0.378088 0.098890 -0.053911
v -0.370241 0.100855 -0.055281
v -0.375374 0.099234 -0.054039
v -0.373000 0.109430 -0.039056
v -0.277771 0.087667 -0.067595
v -0.315680 0.122317 -0.071908
v -0.233976 0.092947 -0.048599
v -0.228518 0.101452 -0.035983
v -0.184590 0.084496 -0.045473
v -0.177138 0.087275 -0.047607
v -0.173748 0.093856 -0.033154
v -0.171754 0.088130 -0.047904
v -0.171677 0.076425 -0.058832
v -0.138355 0.081611 -0.042660
v -0.075965 0.079875 -0.060588
v -0.092214 0.084110 -0.043525
v -0.081101 0.097971 -0.034554
v -0.097232 0.082372 -0.042899
v -0.067077 0.108569 -0.058709
v -0.071485 0.088988 -0.063890
v -0.071603 0.108822 -0.038482
v -0.061861 0.108996 -0.059018
v -0.056282 0.104477 -0.055465
v -0.028192 0.058389 -0.030169
v -0.039346 0.078700 -0.046076
v -0.021277 0.062722 -0.021661
v -0.016218 0.054730 -0.028824
v 0.305847 0.101110 -0.053542
v 0.235187 0.077834 -0.050562
v 0.451045 0.151769 -0.064073
v 0.414930 0.145638 -0.055392
v 0.405132 0.154828 -0.038338
v 0.504440 0.188465 -0.101377
v 0.451037 0.145483 -0.096410
v 0.504368 0.210701 -0.040218
v 0.519711 0.176541 -0.094719
v 0.512078 0.181978 -0.098999
v 0.511998 0.197928 -0.070178
v 0.543000 0.194058 -0.104365
v 0.531352 0.186058 -0.098175
v 0.531277 0.200958 -0.071256
v 0.561016 0.194438 -0.104523
v 0.552008 0.194261 -0.104427
v 0.551926 0.210679 -0.074774
v 0.576418 0.161604 -0.121327
v 0.568641 0.189391 -0.102671
v 0.568558 0.205835 -0.072983
v 0.577932 0.007134 -0.000738
v -0.415000 0.027250 0.000112
v -0.417653 0.021959 0.011153
v -0.406973 0.024148 -0.003815
v -0.410993 0.026789 -0.000035
v -0.410978 0.027110 0.009197
v -0.401659 0.022586 0.001504
v -0.386027 0.067287 -0.004521
v -0.375710 0.112568 -0.020964
v -0.372996 0.112912 -0.021093
v -0.362419 0.151335 -0.082513
v -0.324644 0.138920 -0.049714
v -0.302204 0.129514 -0.021677
v -0.348944 0.158532 -0.032282
v -0.184623 0.094578 -0.017730
v -0.234009 0.103029 -0.020857
v -0.182664 0.099676 -0.002743
v -0.177173 0.098099 -0.017869
v -0.169635 0.099555 -0.018190
v -0.175019 0.098700 -0.017893
v -0.173060 0.103798 -0.002905
v -0.139654 0.095441 -0.002665
v -0.138384 0.090597 -0.017926
v -0.108374 0.077497 -0.027136
v -0.097261 0.091358 -0.018165
v -0.092243 0.093096 -0.018791
v -0.067119 0.121618 -0.022798
v -0.071599 0.112505 -0.019496
v -0.061899 0.125836 -0.003842
v -0.061904 0.122153 -0.022828
v -0.051063 0.108695 -0.036509
v -0.033218 0.067107 -0.001857
v -0.039313 0.079426 -0.024927
v -0.044934 0.097102 0.007710
v -0.009273 0.059702 -0.001650
v -0.021247 0.063361 -0.002995
v 0.077633 0.052590 -0.041575
v 0.239599 0.085779 -0.033631
v 0.310218 0.117497 -0.021358
v 0.335982 0.113015 -0.036788
v 0.335940 0.121457 -0.021536
v 0.340353 0.129401 -0.004604
v 0.435225 0.175174 -0.006331
v 0.519643 0.197300 -0.037613
v 0.512005 0.203786 -0.039991
v 0.512013 0.210073 -0.007654
v 0.542926 0.216931 -0.041436
v 0.531285 0.207414 -0.037980
v 0.531292 0.213273 -0.007794
v 0.560941 0.217332 -0.041520
v 0.551934 0.217129 -0.041458
v 0.551941 0.223585 -0.008182
v 0.568566 0.212286 -0.039667
v -0.375653 0.113804 0.015153
v -0.385974 0.065041 0.013632
v -0.372886 0.111906 0.033392
v -0.372939 0.114152 0.015239
v -0.290246 0.126716 0.013237
v -0.265946 0.107105 -0.004196
v -0.184575 0.095624 0.012566
v -0.228470 0.102499 -0.005686
v -0.216513 0.099701 0.029227
v -0.177125 0.099146 0.012428
v -0.169587 0.100608 0.012627
v -0.171741 0.100007 0.012651
v -0.173652 0.095956 0.027960
v -0.166778 0.094685 0.027569
v -0.168097 0.098475 0.012014
v -0.139616 0.093814 0.010542
v -0.108365 0.084856 0.010806
v -0.092205 0.091469 -0.005584
v -0.067059 0.122946 0.015388
v -0.071544 0.110150 -0.000296
v -0.056629 0.123988 0.015477
v -0.061844 0.123452 0.015507
v -0.061788 0.121098 0.034707
v -0.050995 0.116082 0.033212
v -0.051051 0.118465 0.013864
v -0.039301 0.089196 0.025445
v -0.021214 0.064087 0.018154
v 0.101110 0.057110 0.022531
v 0.101140 0.057749 0.041197
v 0.188046 0.050637 0.001272
v 0.268524 0.081399 0.067183
v 0.245047 0.076879 0.003076
v 0.320078 0.116542 0.032280
v 0.435319 0.171147 0.026367
v 0.504469 0.212959 0.024817
v 0.519738 0.199398 0.023103
v 0.512101 0.206312 0.022876
v 0.512195 0.202284 0.055574
v 0.543031 0.219252 0.025491
v 0.531389 0.209138 0.025858
v 0.531477 0.205377 0.056388
v 0.561046 0.219643 0.025487
v 0.552039 0.219445 0.025509
v 0.552136 0.215310 0.059161
v 0.576283 0.202985 -0.007499
v 0.568666 0.214483 0.023964
v 0.568763 0.210343 0.057656
v 0.578032 0.009332 0.062894
v -0.414929 0.022397 0.016999
v -0.417596 0.016786 0.018807
v -0.410921 0.021936 0.016851
v -0.396298 0.015150 0.005699
v -0.401609 0.019212 0.013245
v -0.375505 0.103832 0.049879
v -0.385879 0.057315 0.030204
v -0.372791 0.104180 0.049965
v -0.265794 0.100624 0.048505
v -0.302052 0.123033 0.031024
v -0.184455 0.087485 0.040926
v -0.221930 0.092091 0.042416
v -0.182414 0.082788 0.056031
v -0.176996 0.090397 0.042842
v -0.171611 0.091259 0.043065
v -0.170122 0.089126 0.042452
v -0.136808 0.087890 0.025484
v -0.141641 0.084464 0.040980
v -0.075948 0.093918 0.011828
v -0.092070 0.085678 0.041425
v -0.080835 0.086590 0.057836
v -0.097092 0.084141 0.040424
v -0.066903 0.112411 0.052113
v -0.071443 0.101970 0.017229
v -0.071307 0.096179 0.064238
v -0.061687 0.112918 0.052232
v -0.056110 0.107395 0.050619
v -0.028035 0.053819 0.033974
v -0.034151 0.075182 0.040128
v 0.381918 0.129418 0.037865
v 0.356196 0.125458 0.038042
v 0.361644 0.116558 0.074749
v 0.504736 0.194995 0.087371
v 0.435491 0.157210 0.056223
v 0.451335 0.153266 0.098870
v 0.519987 0.182637 0.081505
v 0.512355 0.189284 0.083447
v 0.512527 0.175347 0.113303
v 0.543304 0.200779 0.089857
v 0.531654 0.191039 0.087101
v 0.531814 0.178039 0.114974
v 0.561320 0.201152 0.089922
v 0.552312 0.200959 0.089904
v 0.552489 0.186620 0.120617
v 0.568940 0.195991 0.088399
v -0.406878 0.017705 0.018631
v -0.410828 0.012993 0.026432
v -0.401517 0.010269 0.022826
v -0.375281 0.083618 0.079828
v -0.385750 0.044827 0.043582
v -0.372436 0.071364 0.093471
v -0.372565 0.083852 0.080094
v -0.315323 0.101017 0.101340
v -0.320432 0.111663 0.093151
v -0.358155 0.115739 0.128198
v -0.233631 0.078210 0.071122
v -0.221825 0.081893 0.053335
v -0.189767 0.069677 0.065033
v -0.174842 0.074782 0.069664
v -0.182301 0.071870 0.067748
v -0.182195 0.061671 0.078666
v -0.141477 0.069745 0.062793
v -0.108163 0.068509 0.045826
v -0.096929 0.069421 0.062238
v -0.091906 0.070959 0.063238
v -0.066666 0.091028 0.083773
v -0.071171 0.082977 0.078372
v -0.061297 0.078169 0.098281
v -0.061434 0.091372 0.084147
v -0.050741 0.094535 0.065127
v -0.039475 0.059159 0.073656
v -0.016065 0.050073 0.032836
v 0.094319 0.047481 0.057017
v 0.505140 0.158582 0.141305
v 0.451567 0.130790 0.122947
v 0.520364 0.148641 0.131865
v 0.512744 0.154351 0.135790
v 0.512977 0.131875 0.159867
v 0.543720 0.163309 0.145341
v 0.532053 0.154907 0.139745
v 0.532270 0.133911 0.162232
v 0.561737 0.163643 0.145473
v 0.552729 0.163463 0.145426
v 0.552968 0.140332 0.170197
v 0.576779 0.169554 0.108909
v 0.569336 0.160363 0.141175
v 0.569575 0.137206 0.165984
v 0.578427 -0.026297 0.115670
v -0.414793 0.008544 0.027814
v -0.417517 0.008105 0.021968
v -0.410750 0.004313 0.029593
v -0.375002 0.055134 0.102064
v -0.385600 0.028831 0.052441
v -0.385550 0.025457 0.064182
v -0.369569 0.055502 0.102654
v -0.372285 0.055269 0.102389
v -0.372135 0.039273 0.111248
v -0.277321 0.068445 0.088537
v -0.315044 0.072522 0.123585
v -0.233352 0.049715 0.093367
v -0.227725 0.037135 0.101816
v -0.184035 0.046900 0.084401
v -0.176569 0.049092 0.087115
v -0.173019 0.034664 0.093641
v -0.171179 0.049436 0.087907
v -0.171292 0.060354 0.076190
v -0.137814 0.044399 0.081036
v -0.075563 0.062721 0.078671
v -0.091657 0.045552 0.083072
v -0.080345 0.036655 0.096819
v -0.096688 0.044893 0.081386
v -0.066370 0.060901 0.107273
v -0.071012 0.066052 0.087738
v -0.070763 0.040645 0.107572
v -0.055905 0.061466 0.108098
v -0.061137 0.061123 0.107724
v -0.060978 0.044198 0.117090
v -0.050219 0.042487 0.112091
v -0.050379 0.059533 0.102648
v -0.022807 0.031421 0.053298
v -0.039397 0.050774 0.078297
v -0.033711 0.031795 0.082290
v 0.094397 0.039096 0.061658
v 0.268820 0.051236 0.090731
v 0.325822 0.077478 0.092535
v 0.362285 0.051170 0.125796
v 0.361989 0.081333 0.102248
v 0.398107 0.090249 0.108010
v 0.505643 0.107295 0.181343
v 0.451837 0.101979 0.138907
v 0.452182 0.066755 0.166406
v 0.520834 0.100735 0.169263
v 0.513229 0.104966 0.174778
v 0.513500 0.076155 0.190739
v 0.544238 0.110534 0.186541
v 0.532549 0.104268 0.178660
v 0.532801 0.077359 0.193572
v 0.562255 0.110800 0.186726
v 0.553246 0.110646 0.186641
v 0.553525 0.081003 0.203069
v 0.569854 0.107520 0.182428
v -0.374695 0.021175 0.114406
v -0.385393 0.007494 0.067664
v -0.371978 0.021310 0.114730
v -0.361553 0.082816 0.153066
v -0.323550 0.050244 0.140264
v -0.264886 0.005126 0.107853
v -0.311395 0.015420 0.137335
v -0.183785 0.019168 0.094494
v -0.233101 0.021983 0.103460
v -0.181676 0.004193 0.099572
v -0.176300 0.019346 0.097928
v -0.168750 0.019736 0.099309
v -0.174140 0.019392 0.098518
v -0.172032 0.004418 0.103596
v -0.138713 0.004395 0.094898
v -0.137591 0.019666 0.090021
v -0.107777 0.029058 0.076625
v -0.096465 0.020161 0.090371
v -0.091434 0.020820 0.092058
v -0.066046 0.025000 0.120333
v -0.070598 0.021669 0.111266
v -0.060813 0.025222 0.120784
v -0.055287 0.023289 0.115334
v -0.027645 0.013716 0.063377
v -0.038628 0.022475 0.087728
v -0.020629 0.004346 0.064791
v -0.015711 0.013667 0.059353
v 0.101414 0.029727 0.063073
v 0.506195 0.046139 0.203578
v 0.452464 0.034409 0.172680
v 0.521349 0.043632 0.190021
v 0.513763 0.045961 0.196586
v 0.514044 0.013616 0.202860
v 0.544806 0.047608 0.209414
v 0.533091 0.044075 0.200016
v 0.533354 0.013882 0.205863
v 0.562823 0.047809 0.209631
v 0.553815 0.047697 0.209531
v 0.554105 0.014414 0.215976
v 0.577714 0.074081 0.183442
v 0.570394 0.047676 0.204183
v 0.570684 0.014370 0.210645
v 0.578967 -0.086141 0.137426
v -0.417448 -0.000773 0.019416
v -0.417306 -0.019731 0.010565
v -0.414645 -0.009015 0.028423
v -0.406680 -0.004241 0.026607
v -0.410644 -0.008690 0.027988
v -0.410575 -0.017568 0.025436
v -0.396146 -0.000432 0.017863
v -0.401414 -0.001939 0.023249
v -0.401308 -0.014942 0.021644
v -0.374391 -0.014943 0.115661
v -0.385246 -0.010661 0.065437
v -0.371525 -0.033176 0.113743
v -0.371673 -0.015021 0.115970
v -0.183530 -0.011128 0.095540
v -0.227470 0.006839 0.102862
v -0.215315 -0.027985 0.099933
v -0.176045 -0.010950 0.098974
v -0.168491 -0.011091 0.100371
v -0.170651 -0.011138 0.099781
v -0.172504 -0.026459 0.095749
v -0.165646 -0.026024 0.094408
v -0.167027 -0.010468 0.098223
v -0.138605 -0.008812 0.093271
v -0.107446 -0.008882 0.083983
v -0.091327 0.007613 0.090431
v -0.065725 -0.013174 0.121652
v -0.070442 0.002472 0.108891
v -0.060333 -0.032466 0.119739
v -0.060489 -0.013269 0.122114
v -0.049895 0.003996 0.113421
v -0.032404 -0.015944 0.062978
v -0.038469 0.002135 0.081891
v -0.043671 -0.034423 0.088671
v -0.008554 -0.013655 0.055617
v -0.020488 -0.013606 0.059641
v 0.101825 -0.019038 0.064743
v 0.211933 0.006392 0.067049
v 0.250470 -0.032576 0.082137
v 0.250060 0.016188 0.080466
v 0.307357 0.012267 0.105818
v 0.307679 -0.025967 0.107129
v 0.326439 0.009081 0.117393
v 0.362982 -0.031724 0.128644
v 0.362661 0.006510 0.127334
v 0.398828 0.010365 0.137046
v 0.506742 -0.018903 0.205824
v 0.452730 0.001713 0.168652
v 0.453106 -0.042947 0.170190
v 0.521860 -0.017090 0.192107
v 0.514292 -0.016913 0.199099
v 0.514558 -0.049609 0.195071
v 0.545369 -0.019315 0.211714
v 0.533627 -0.019758 0.201719
v 0.533875 -0.050287 0.197958
v 0.563387 -0.019185 0.211932
v 0.554378 -0.019274 0.211815
v 0.554652 -0.052914 0.207670
v 0.578515 -0.017757 0.201255
v 0.570944 -0.017624 0.206703
v 0.571218 -0.051312 0.202543
v 0.579227 -0.118135 0.133484
v -0.387563 -0.026339 0.056330
v -0.387461 -0.038547 0.056753
v -0.376561 -0.048776 0.104327
v -0.368682 -0.049920 0.106273
v -0.371400 -0.049843 0.105964
v -0.373718 -0.065520 0.096856
v -0.183308 -0.039496 0.087389
v -0.220724 -0.041209 0.092380
v -0.181217 -0.054579 0.082683
v -0.175807 -0.041354 0.090236
v -0.168250 -0.041870 0.091526
v -0.173645 -0.041682 0.090719
v -0.171554 -0.056765 0.086013
v -0.166786 -0.041247 0.089378
v -0.138274 -0.051663 0.078791
v -0.135670 -0.035817 0.081673
v -0.138515 -0.020884 0.087636
v -0.107248 -0.034161 0.076721
v -0.074932 -0.009693 0.092714
v -0.090945 -0.039395 0.084639
v -0.090854 -0.051467 0.079004
v -0.065438 -0.049895 0.111096
v -0.070310 -0.015053 0.100711
v -0.069928 -0.062060 0.094919
v -0.054965 -0.050231 0.111952
v -0.060201 -0.050135 0.111489
v -0.060070 -0.067660 0.103309
v -0.049349 -0.064614 0.098895
v -0.049481 -0.046945 0.107145
v -0.038055 -0.048806 0.075615
v -0.020329 -0.033946 0.053804
v 0.101965 -0.036990 0.059593
v 0.321577 -0.045844 0.109195
v 0.302495 -0.042657 0.097620
v 0.399357 -0.054787 0.129020
v 0.363136 -0.052216 0.119080
v 0.357952 -0.068906 0.109571
v 0.453259 -0.063439 0.160625
v 0.443341 -0.094303 0.148080
v 0.497089 -0.082463 0.189250
v 0.504570 -0.109043 0.170540
v 0.514489 -0.078179 0.183085
v 0.522039 -0.076189 0.176360
v 0.554882 -0.083667 0.193327
v 0.543115 -0.080999 0.183715
v 0.543046 -0.109569 0.171729
v 0.563891 -0.083627 0.193428
v 0.577725 -0.080631 0.186146
v 0.570168 -0.082192 0.191375
v 0.570398 -0.112945 0.177032
v -0.414542 -0.023577 0.018589
v -0.406541 -0.022730 0.017974
v -0.410542 -0.023055 0.018408
v -0.396020 -0.017210 0.010033
v -0.401286 -0.019512 0.013390
v -0.183130 -0.064618 0.070427
v -0.215136 -0.053107 0.082972
v -0.252493 -0.065654 0.071366
v -0.175629 -0.066477 0.073274
v -0.168069 -0.067436 0.074275
v -0.170232 -0.067109 0.073792
v -0.136952 -0.062006 0.066570
v -0.105155 -0.056780 0.062639
v -0.095822 -0.062012 0.066767
v -0.074471 -0.068635 0.075793
v -0.090775 -0.063401 0.067875
v -0.065213 -0.081565 0.089721
v -0.069835 -0.076205 0.081724
v -0.059976 -0.081805 0.090114
v -0.043737 -0.082816 0.066561
v -0.049221 -0.086102 0.071368
v -0.032167 -0.049302 0.040463
v -0.037977 -0.061825 0.058937
v -0.027216 -0.041232 0.047602
v -0.015300 -0.038894 0.044265
v 0.111218 -0.048893 0.045019
v 0.000839 -0.043511 0.035893
v 0.233920 -0.061519 0.049756
v 0.288815 -0.055849 0.064695
v 0.250689 -0.065645 0.051278
v 0.383875 -0.095142 0.081425
v 0.497472 -0.136395 0.152835
v 0.453642 -0.117371 0.124211
v 0.514872 -0.132112 0.146670
v 0.522397 -0.126547 0.142362
v 0.555276 -0.139162 0.155863
v 0.534200 -0.134351 0.148508
v 0.564286 -0.139188 0.155926
v -0.372383 -0.114165 0.057721
v -0.372516 -0.091796 0.086376
v -0.382093 -0.135300 0.047107
v -0.387966 -0.152077 0.043934
v -0.382348 -0.133784 0.071085
v -0.306864 -0.091192 0.095460
v -0.306626 -0.127148 0.061901
v -0.364693 -0.155787 0.083788
v -0.378000 -0.132459 0.030571
v -0.380725 -0.135645 0.012509
v -0.378305 -0.154725 0.074746
v -0.378051 -0.156242 0.050769
v -0.368369 -0.168827 0.048121
v -0.378030 -0.166180 0.017309
v -0.346167 -0.164364 0.010380
v -0.375128 -0.126292 -0.012183
v -0.382115 -0.144240 -0.004735
v -0.372461 -0.124357 -0.030444
v -0.375276 -0.116308 -0.046917
v -0.337801 -0.159706 -0.006697
v -0.313919 -0.133209 -0.042054
v -0.359982 -0.174107 -0.002415
v -0.360080 -0.169969 -0.037086
v -0.322385 -0.133729 -0.059649
v -0.381391 -0.110534 -0.079300
v -0.382633 -0.129113 -0.061810
v -0.388587 -0.138557 -0.075854
v -0.382472 -0.144331 -0.043471
v -0.374862 -0.140790 -0.087689
v -0.364922 -0.149147 -0.086271
v -0.378486 -0.162132 -0.056098
v -0.375611 -0.085729 -0.089783
v -0.373022 -0.073450 -0.103438
v -0.373173 -0.057345 -0.112345
v -0.382968 -0.098534 -0.104676
v -0.375023 -0.125573 -0.106027
v -0.383169 -0.046562 -0.133382
v -0.389233 -0.043423 -0.150174
v -0.383252 -0.070591 -0.131951
v -0.379154 -0.030178 -0.130569
v -0.382028 -0.012135 -0.133728
v -0.379698 -0.040760 -0.162894
v -0.369782 -0.047508 -0.167178
v -0.379400 -0.074200 -0.153026
v -0.347780 -0.009830 -0.162834
v -0.379615 -0.016731 -0.164326
v -0.383619 0.005317 -0.142261
v -0.376496 0.012577 -0.124383
v -0.373928 0.030855 -0.122475
v -0.374053 0.047533 -0.114705
v -0.339477 0.007342 -0.158185
v -0.315556 0.042854 -0.131914
v -0.361777 0.003104 -0.172397
v -0.358023 0.034069 -0.167942
v -0.320105 0.056646 -0.132107
v -0.380319 0.079823 -0.108773
v -0.384353 0.062319 -0.126984
v -0.390494 0.076328 -0.136316
v -0.384229 0.044037 -0.142248
v -0.363113 0.083135 -0.146997
v -0.376471 0.052954 -0.159857
v -0.377012 0.088227 -0.138720
v -0.374354 0.090326 -0.084055
v -0.374443 0.103775 -0.071496
v -0.384654 0.105112 -0.096335
v -0.377136 0.106509 -0.123456
v -0.374488 0.112694 -0.055400
v -0.384511 0.133761 -0.044463
v -0.390651 0.150435 -0.041269
v -0.384829 0.132289 -0.068423
v -0.367618 0.159750 -0.071877
v -0.377411 0.150263 -0.074332
v -0.381176 0.158450 -0.062774
v -0.358654 0.143147 -0.094070
v -0.380309 0.130841 -0.028247
v -0.383019 0.133979 -0.010155
v -0.380858 0.159923 -0.038814
v -0.371378 0.172623 -0.036166
v -0.380852 0.164608 -0.014661
v -0.348938 0.163217 -0.008129
v -0.384488 0.142601 0.007345
v -0.377175 0.124672 0.014499
v -0.374408 0.122774 0.032739
v -0.377027 0.114700 0.049225
v -0.340574 0.158644 0.008869
v -0.316122 0.132551 0.044137
v -0.363008 0.172736 0.004984
v -0.358909 0.168322 0.035788
v -0.320388 0.132711 0.057943
v -0.382924 0.108683 0.081470
v -0.384541 0.127277 0.064244
v -0.390599 0.136479 0.078222
v -0.384702 0.142496 0.045977
v -0.363220 0.147433 0.084802
v -0.376967 0.160090 0.054775
v -0.377012 0.139041 0.089982
v -0.376836 0.084132 0.091973
v -0.373991 0.071878 0.105615
v -0.373840 0.055783 0.114534
v -0.384349 0.096709 0.106992
v -0.376851 0.123822 0.108249
v -0.383721 0.045013 0.135721
v -0.389527 0.041758 0.152368
v -0.384067 0.068904 0.134141
v -0.366598 0.072272 0.161473
v -0.376504 0.074827 0.151994
v -0.379966 0.063094 0.160266
v -0.358091 0.094549 0.144794
v -0.379300 0.028637 0.132760
v -0.381860 0.010540 0.135918
v -0.379620 0.039203 0.161847
v -0.369851 0.036575 0.174393
v -0.379412 0.015239 0.166494
v -0.311186 -0.008543 0.141983
v -0.375808 -0.014078 0.126571
v -0.383130 -0.006750 0.144602
v -0.372942 -0.032310 0.124654
v -0.372817 -0.048977 0.116874
v -0.361215 -0.004291 0.174459
v -0.302759 -0.025445 0.137401
v -0.357245 -0.035282 0.170151
v -0.307217 -0.039535 0.137675
v -0.378565 -0.081324 0.111021
v -0.382825 -0.063715 0.129402
v -0.388697 -0.077759 0.138723
v -0.382949 -0.045412 0.144576
v -0.361449 -0.084397 0.149377
v -0.375262 -0.054414 0.162161
v -0.375009 -0.089439 0.141113
v -0.306964 -0.074560 0.116627
v -0.372569 -0.083033 0.097485
v -0.382576 -0.097771 0.110013
v -0.376528 -0.108243 0.085368
v -0.374884 -0.107742 0.125939
v -0.361096 -0.136054 0.107162
v -0.372433 -0.137948 0.077919
v -0.368736 -0.134846 0.080127
v -0.369663 -0.161522 0.000233
v -0.364067 -0.152168 -0.024459
v -0.372532 -0.152688 -0.042053
v -0.364343 -0.090000 -0.124748
v -0.370123 -0.114806 -0.114265
v -0.373337 -0.077338 -0.136234
v -0.371313 0.000441 -0.159677
v -0.365781 0.025153 -0.150332
v -0.370330 0.038945 -0.150525
v -0.372037 0.114671 -0.112879
v -0.371271 0.133588 -0.077525
v -0.366072 0.125173 -0.088161
v -0.372488 0.160035 0.002336
v -0.366644 0.150728 0.026991
v -0.370910 0.150888 0.040797
v -0.371742 0.113176 0.116438
v -0.365654 0.088626 0.126941
v -0.370698 0.078082 0.135347
v -0.370984 -0.001663 0.161912
v -0.364932 -0.026280 0.152566
v -0.369390 -0.040370 0.152840
v -0.368789 -0.126083 0.091236
v -0.368888 -0.109451 0.112403
f 1 391 393
f 391 2 392
f 392 3 393
f 391 392 393
f 4 394 396
f 394 5 395
f 395 6 396
f 394 395 396
f 7 397 399
f 397 8 398
f 398 5 399
f 397 398 399
f 4 400 394
f 400 7 399
f 399 5 394
f 400 399 394
f 7 401 397
f 401 9 402
f 402 8 397
f 401 402 397
f 8 403 405
f 403 10 404
f 404 11 405
f 403 404 405
f 10 406 404
f 406 12 407
f 407 11 404
f 406 407 404
f 10 408 406
f 408 13 409
f 409 12 406
f 408 409 406
f 14 410 412
f 410 15 411
f 411 13 412
f 410 411 412
f 14 413 410
f 413 16 414
f 414 15 410
f 413 414 410
f 16 415 414
f 415 17 416
f 416 15 414
f 415 416 414
f 18 417 419
f 417 19 418
f 418 20 419
f 417 418 419
f 19 420 418
f 420 21 421
f 421 20 418
f 420 421 418
f 22 422 424
f 422 23 423
f 423 24 424
f 422 423 424
f 22 425 422
f 425 25 426
f 426 23 422
f 425 426 422
f 26 427 429
f 427 27 428
f 428 25 429
f 427 428 429
f 28 430 432
f 430 29 431
f 431 27 432
f 430 431 432
f 26 433 427
f 433 28 432
f 432 27 427
f 433 432 427
f 30 434 436
f 434 31 435
f 435 29 436
f 434 435 436
f 28 437 430
f 437 30 436
f 436 29 430
f 437 436 430
f 32 438 440
f 438 33 439
f 439 31 440
f 438 439 440
f 30 441 434
f 441 32 440
f 440 31 434
f 441 440 434
f 34 442 444
f 442 35 443
f 443 33 444
f 442 443 444
f 32 445 438
f 445 34 444
f 444 33 438
f 445 444 438
f 36 446 448
f 446 37 447
f 447 38 448
f 446 447 448
f 36 449 446
f 449 39 450
f 450 37 446
f 449 450 446
f 40 451 453
f 451 41 452
f 452 1 453
f 451 452 453
f 41 454 452
f 454 2 391
f 391 1 452
f 454 391 452
f 42 455 457
f 455 6 456
f 456 43 457
f 455 456 457
f 44 458 459
f 458 4 396
f 396 6 459
f 458 396 459
f 44 460 458
f 460 45 461
f 461 4 458
f 460 461 458
f 46 462 463
f 462 7 400
f 400 4 463
f 462 400 463
f 45 464 461
f 464 46 463
f 463 4 461
f 464 463 461
f 46 465 462
f 465 9 401
f 401 7 462
f 465 401 462
f 47 466 467
f 466 8 402
f 402 9 467
f 466 402 467
f 46 468 465
f 468 47 467
f 467 9 465
f 468 467 465
f 47 469 466
f 469 10 403
f 403 8 466
f 469 403 466
f 48 470 471
f 470 13 408
f 408 10 471
f 470 408 471
f 47 472 469
f 472 48 471
f 471 10 469
f 472 471 469
f 49 473 474
f 473 14 412
f 412 13 474
f 473 412 474
f 49 475 473
f 475 16 413
f 413 14 473
f 475 413 473
f 49 476 475
f 476 17 415
f 415 16 475
f 476 415 475
f 50 477 479
f 477 18 478
f 478 17 479
f 477 478 479
f 51 480 481
f 480 26 429
f 429 25 481
f 480 429 481
f 51 482 480
f 482 52 483
f 483 26 480
f 482 483 480
f 52 484 483
f 484 28 433
f 433 26 483
f 484 433 483
f 52 485 484
f 485 53 486
f 486 28 484
f 485 486 484
f 54 487 488
f 487 30 437
f 437 28 488
f 487 437 488
f 53 489 486
f 489 54 488
f 488 28 486
f 489 488 486
f 55 490 491
f 490 32 441
f 441 30 491
f 490 441 491
f 54 492 487
f 492 55 491
f 491 30 487
f 492 491 487
f 55 493 490
f 493 34 445
f 445 32 490
f 493 445 490
f 56 494 495
f 494 39 449
f 449 36 495
f 494 449 495
f 56 496 494
f 496 57 497
f 497 39 494
f 496 497 494
f 58 498 499
f 498 41 451
f 451 40 499
f 498 451 499
f 58 500 498
f 500 59 501
f 501 41 498
f 500 501 498
f 60 502 503
f 502 6 455
f 455 42 503
f 502 455 503
f 60 504 502
f 504 61 505
f 505 6 502
f 504 505 502
f 61 506 505
f 506 44 459
f 459 6 505
f 506 459 505
f 61 507 506
f 507 45 460
f 460 44 506
f 507 460 506
f 62 508 509
f 508 46 464
f 464 45 509
f 508 464 509
f 61 510 507
f 510 62 509
f 509 45 507
f 510 509 507
f 62 511 508
f 511 63 512
f 512 46 508
f 511 512 508
f 46 513 468
f 513 64 514
f 514 47 468
f 513 514 468
f 64 515 514
f 515 48 472
f 472 47 514
f 515 472 514
f 65 516 517
f 516 49 474
f 474 13 517
f 516 474 517
f 48 518 470
f 518 65 517
f 517 13 470
f 518 517 470
f 65 519 516
f 519 66 520
f 520 49 516
f 519 520 516
f 66 521 520
f 521 17 476
f 476 49 520
f 521 476 520
f 66 522 521
f 522 50 479
f 479 17 521
f 522 479 521
f 50 523 477
f 523 19 417
f 417 18 477
f 523 417 477
f 50 524 523
f 524 21 420
f 420 19 523
f 524 420 523
f 50 525 524
f 525 67 526
f 526 21 524
f 525 526 524
f 68 527 529
f 527 24 528
f 528 67 529
f 527 528 529
f 69 530 531
f 530 22 424
f 424 24 531
f 530 424 531
f 70 532 533
f 532 25 425
f 425 22 533
f 532 425 533
f 69 534 530
f 534 70 533
f 533 22 530
f 534 533 530
f 71 535 536
f 535 51 481
f 481 25 536
f 535 481 536
f 70 537 532
f 537 71 536
f 536 25 532
f 537 536 532
f 72 538 539
f 538 52 482
f 482 51 539
f 538 482 539
f 71 540 535
f 540 72 539
f 539 51 535
f 540 539 535
f 73 541 542
f 541 53 485
f 485 52 542
f 541 485 542
f 72 543 538
f 543 73 542
f 542 52 538
f 543 542 538
f 74 544 545
f 544 54 489
f 489 53 545
f 544 489 545
f 73 546 541
f 546 74 545
f 545 53 541
f 546 545 541
f 75 547 548
f 547 55 492
f 492 54 548
f 547 492 548
f 74 549 544
f 549 75 548
f 548 54 544
f 549 548 544
f 76 550 551
f 550 34 493
f 493 55 551
f 550 493 551
f 75 552 547
f 552 76 551
f 551 55 547
f 552 551 547
f 77 553 554
f 553 36 448
f 448 38 554
f 553 448 554
f 77 555 553
f 555 56 495
f 495 36 553
f 555 495 553
f 78 556 557
f 556 58 499
f 499 40 557
f 556 499 557
f 57 558 559
f 558 78 557
f 557 40 559
f 558 557 559
f 78 560 556
f 560 79 561
f 561 58 556
f 560 561 556
f 79 562 561
f 562 59 500
f 500 58 561
f 562 500 561
f 80 563 564
f 563 60 503
f 503 42 564
f 563 503 564
f 60 565 504
f 565 81 566
f 566 61 504
f 565 566 504
f 82 567 568
f 567 62 510
f 510 61 568
f 567 510 568
f 81 569 566
f 569 82 568
f 568 61 566
f 569 568 566
f 82 570 567
f 570 63 511
f 511 62 567
f 570 511 567
f 64 513 571
f 513 46 512
f 512 63 571
f 513 512 571
f 82 572 570
f 572 64 571
f 571 63 570
f 572 571 570
f 83 573 574
f 573 48 515
f 515 64 574
f 573 515 574
f 84 575 576
f 575 65 518
f 518 48 576
f 575 518 576
f 83 577 573
f 577 84 576
f 576 48 573
f 577 576 573
f 85 578 579
f 578 66 519
f 519 65 579
f 578 519 579
f 84 580 575
f 580 85 579
f 579 65 575
f 580 579 575
f 85 581 578
f 581 86 582
f 582 66 578
f 581 582 578
f 87 583 584
f 583 50 522
f 522 66 584
f 583 522 584
f 86 585 582
f 585 87 584
f 584 66 582
f 585 584 582
f 50 586 525
f 586 88 587
f 587 67 525
f 586 587 525
f 88 588 587
f 588 68 529
f 529 67 587
f 588 529 587
f 89 589 590
f 589 69 531
f 531 24 590
f 589 531 590
f 68 591 527
f 591 89 590
f 590 24 527
f 591 590 527
f 90 592 593
f 592 71 537
f 537 70 593
f 592 537 593
f 90 594 592
f 594 72 540
f 540 71 592
f 594 540 592
f 90 595 594
f 595 91 596
f 596 72 594
f 595 596 594
f 91 597 596
f 597 73 543
f 543 72 596
f 597 543 596
f 92 598 599
f 598 74 546
f 546 73 599
f 598 546 599
f 91 600 597
f 600 92 599
f 599 73 597
f 600 599 597
f 93 601 602
f 601 75 549
f 549 74 602
f 601 549 602
f 92 603 598
f 603 93 602
f 602 74 598
f 603 602 598
f 93 604 601
f 604 76 552
f 552 75 601
f 604 552 601
f 94 605 606
f 605 57 496
f 496 56 606
f 605 496 606
f 95 607 608
f 607 79 560
f 560 78 608
f 607 560 608
f 95 609 607
f 609 96 610
f 610 79 607
f 609 610 607
f 97 611 613
f 611 80 612
f 612 98 613
f 611 612 613
f 99 614 615
f 614 81 565
f 565 60 615
f 614 565 615
f 99 616 614
f 616 100 617
f 617 81 614
f 616 617 614
f 101 618 619
f 618 82 569
f 569 81 619
f 618 569 619
f 100 620 617
f 620 101 619
f 619 81 617
f 620 619 617
f 102 621 622
f 621 64 572
f 572 82 622
f 621 572 622
f 101 623 618
f 623 102 622
f 622 82 618
f 623 622 618
f 102 624 621
f 624 83 574
f 574 64 621
f 624 574 621
f 103 625 626
f 625 84 577
f 577 83 626
f 625 577 626
f 103 627 625
f 627 85 580
f 580 84 625
f 627 580 625
f 103 628 627
f 628 86 581
f 581 85 627
f 628 581 627
f 104 629 630
f 629 87 585
f 585 86 630
f 629 585 630
f 104 631 629
f 631 105 632
f 632 87 629
f 631 632 629
f 87 633 583
f 633 88 586
f 586 50 583
f 633 586 583
f 106 634 635
f 634 89 591
f 591 68 635
f 634 591 635
f 107 636 637
f 636 69 589
f 589 89 637
f 636 589 637
f 106 638 634
f 638 107 637
f 637 89 634
f 638 637 634
f 107 639 636
f 639 70 534
f 534 69 636
f 639 534 636
f 108 640 641
f 640 90 593
f 593 70 641
f 640 593 641
f 107 642 639
f 642 108 641
f 641 70 639
f 642 641 639
f 109 643 644
f 643 91 595
f 595 90 644
f 643 595 644
f 108 645 640
f 645 109 644
f 644 90 640
f 645 644 640
f 110 646 647
f 646 92 600
f 600 91 647
f 646 600 647
f 109 648 643
f 648 110 647
f 647 91 643
f 648 647 643
f 111 649 650
f 649 93 603
f 603 92 650
f 649 603 650
f 110 651 646
f 651 111 650
f 650 92 646
f 651 650 646
f 112 652 653
f 652 76 604
f 604 93 653
f 652 604 653
f 111 654 649
f 654 112 653
f 653 93 649
f 654 653 649
f 112 655 652
f 655 34 550
f 550 76 652
f 655 550 652
f 113 656 657
f 656 77 554
f 554 38 657
f 656 554 657
f 114 658 659
f 658 56 555
f 555 77 659
f 658 555 659
f 113 660 656
f 660 114 659
f 659 77 656
f 660 659 656
f 114 661 658
f 661 94 606
f 606 56 658
f 661 606 658
f 115 662 663
f 662 95 608
f 608 78 663
f 662 608 663
f 116 664 665
f 664 96 609
f 609 95 665
f 664 609 665
f 115 666 662
f 666 116 665
f 665 95 662
f 666 665 662
f 117 667 668
f 667 80 611
f 611 97 668
f 667 611 668
f 117 669 667
f 669 60 563
f 563 80 667
f 669 563 667
f 118 670 671
f 670 99 615
f 615 60 671
f 670 615 671
f 117 672 669
f 672 118 671
f 671 60 669
f 672 671 669
f 118 673 670
f 673 100 616
f 616 99 670
f 673 616 670
f 119 674 675
f 674 101 620
f 620 100 675
f 674 620 675
f 118 676 673
f 676 119 675
f 675 100 673
f 676 675 673
f 119 677 674
f 677 120 678
f 678 101 674
f 677 678 674
f 101 679 623
f 679 121 680
f 680 102 623
f 679 680 623
f 121 681 680
f 681 83 624
f 624 102 680
f 681 624 680
f 122 682 683
f 682 103 626
f 626 83 683
f 682 626 683
f 122 684 682
f 684 86 628
f 628 103 682
f 684 628 682
f 123 685 686
f 685 104 630
f 630 86 686
f 685 630 686
f 122 687 684
f 687 123 686
f 686 86 684
f 687 686 684
f 124 688 689
f 688 105 631
f 631 104 689
f 688 631 689
f 105 690 632
f 690 88 633
f 633 87 632
f 690 633 632
f 88 691 588
f 691 125 692
f 692 68 588
f 691 692 588
f 125 693 692
f 693 106 635
f 635 68 692
f 693 635 692
f 126 694 695
f 694 108 642
f 642 107 695
f 694 642 695
f 127 696 697
f 696 109 645
f 645 108 697
f 696 645 697
f 126 698 694
f 698 127 697
f 697 108 694
f 698 697 694
f 128 699 700
f 699 110 648
f 648 109 700
f 699 648 700
f 127 701 696
f 701 128 700
f 700 109 696
f 701 700 696
f 129 702 703
f 702 111 651
f 651 110 703
f 702 651 703
f 128 704 699
f 704 129 703
f 703 110 699
f 704 703 699
f 129 705 702
f 705 112 654
f 654 111 702
f 705 654 702
f 130 706 707
f 706 113 657
f 657 38 707
f 706 657 707
f 94 708 605
f 708 78 558
f 558 57 605
f 708 558 605
f 131 709 710
f 709 115 663
f 663 78 710
f 709 663 710
f 131 711 709
f 711 116 666
f 666 115 709
f 711 666 709
f 117 668 713
f 668 97 712
f 712 132 713
f 668 712 713
f 133 714 715
f 714 117 713
f 713 132 715
f 714 713 715
f 134 716 717
f 716 118 672
f 672 117 717
f 716 672 717
f 134 718 716
f 718 135 719
f 719 118 716
f 718 719 716
f 136 720 721
f 720 119 676
f 676 118 721
f 720 676 721
f 135 722 719
f 722 136 721
f 721 118 719
f 722 721 719
f 136 723 720
f 723 120 677
f 677 119 720
f 723 677 720
f 121 679 724
f 679 101 678
f 678 120 724
f 679 678 724
f 136 725 723
f 725 121 724
f 724 120 723
f 725 724 723
f 137 726 727
f 726 83 681
f 681 121 727
f 726 681 727
f 138 728 729
f 728 137 727
f 727 121 729
f 728 727 729
f 139 730 731
f 730 122 683
f 683 83 731
f 730 683 731
f 137 732 726
f 732 139 731
f 731 83 726
f 732 731 726
f 139 733 730
f 733 140 734
f 734 122 730
f 733 734 730
f 140 735 734
f 735 141 736
f 736 122 734
f 735 736 734
f 141 737 736
f 737 123 687
f 687 122 736
f 737 687 736
f 123 738 685
f 738 124 689
f 689 104 685
f 738 689 685
f 88 690 739
f 690 105 688
f 688 124 739
f 690 688 739
f 142 740 741
f 740 125 691
f 691 88 741
f 740 691 741
f 142 742 740
f 742 143 743
f 743 125 740
f 742 743 740
f 143 744 743
f 744 106 693
f 693 125 743
f 744 693 743
f 143 745 744
f 745 144 746
f 746 106 744
f 745 746 744
f 144 747 746
f 747 107 638
f 638 106 746
f 747 638 746
f 145 748 749
f 748 126 695
f 695 107 749
f 748 695 749
f 144 750 747
f 750 145 749
f 749 107 747
f 750 749 747
f 146 751 752
f 751 127 698
f 698 126 752
f 751 698 752
f 145 753 748
f 753 146 752
f 752 126 748
f 753 752 748
f 147 754 755
f 754 128 701
f 701 127 755
f 754 701 755
f 146 756 751
f 756 147 755
f 755 127 751
f 756 755 751
f 148 757 758
f 757 129 704
f 704 128 758
f 757 704 758
f 147 759 754
f 759 148 758
f 758 128 754
f 759 758 754
f 149 760 761
f 760 112 705
f 705 129 761
f 760 705 761
f 148 762 757
f 762 149 761
f 761 129 757
f 762 761 757
f 149 763 760
f 763 34 655
f 655 112 760
f 763 655 760
f 150 764 765
f 764 113 706
f 706 130 765
f 764 706 765
f 150 766 764
f 766 114 660
f 660 113 764
f 766 660 764
f 151 767 768
f 767 131 710
f 710 78 768
f 767 710 768
f 151 769 767
f 769 152 770
f 770 131 767
f 769 770 767
f 133 771 714
f 771 153 772
f 772 117 714
f 771 772 714
f 154 773 774
f 773 134 717
f 717 117 774
f 773 717 774
f 153 775 772
f 775 154 774
f 774 117 772
f 775 774 772
f 154 776 773
f 776 135 718
f 718 134 773
f 776 718 773
f 155 777 778
f 777 136 722
f 722 135 778
f 777 722 778
f 154 779 776
f 779 155 778
f 778 135 776
f 779 778 776
f 155 780 777
f 780 156 781
f 781 136 777
f 780 781 777
f 136 782 725
f 782 157 783
f 783 121 725
f 782 783 725
f 157 784 783
f 784 138 729
f 729 121 783
f 784 729 783
f 157 785 784
f 785 137 728
f 728 138 784
f 785 728 784
f 158 786 787
f 786 139 732
f 732 137 787
f 786 732 787
f 158 788 786
f 788 140 733
f 733 139 786
f 788 733 786
f 158 789 788
f 789 141 735
f 735 140 788
f 789 735 788
f 159 790 791
f 790 123 737
f 737 141 791
f 790 737 791
f 124 792 739
f 792 160 793
f 793 88 739
f 792 793 739
f 160 794 793
f 794 142 741
f 741 88 793
f 794 741 793
f 161 795 796
f 795 145 750
f 750 144 796
f 795 750 796
f 162 797 798
f 797 146 753
f 753 145 798
f 797 753 798
f 161 799 795
f 799 162 798
f 798 145 795
f 799 798 795
f 163 800 801
f 800 147 756
f 756 146 801
f 800 756 801
f 162 802 797
f 802 163 801
f 801 146 797
f 802 801 797
f 164 803 804
f 803 148 759
f 759 147 804
f 803 759 804
f 163 805 800
f 805 164 804
f 804 147 800
f 805 804 800
f 164 806 803
f 806 149 762
f 762 148 803
f 806 762 803
f 165 807 808
f 807 114 766
f 766 150 808
f 807 766 808
f 166 809 810
f 809 94 661
f 661 114 810
f 809 661 810
f 165 811 807
f 811 166 810
f 810 114 807
f 811 810 807
f 167 812 813
f 812 151 768
f 768 78 813
f 812 768 813
f 168 814 815
f 814 152 769
f 769 151 815
f 814 769 815
f 167 816 812
f 816 168 815
f 815 151 812
f 816 815 812
f 169 817 818
f 817 153 771
f 771 133 818
f 817 771 818
f 170 819 820
f 819 154 775
f 775 153 820
f 819 775 820
f 170 821 819
f 821 171 822
f 822 154 819
f 821 822 819
f 171 823 822
f 823 155 779
f 779 154 822
f 823 779 822
f 171 824 823
f 824 156 780
f 780 155 823
f 824 780 823
f 157 782 825
f 782 136 781
f 781 156 825
f 782 781 825
f 171 826 824
f 826 157 825
f 825 156 824
f 826 825 824
f 172 827 828
f 827 137 785
f 785 157 828
f 827 785 828
f 173 829 830
f 829 172 828
f 828 157 830
f 829 828 830
f 174 831 832
f 831 158 787
f 787 137 832
f 831 787 832
f 172 833 827
f 833 174 832
f 832 137 827
f 833 832 827
f 174 834 831
f 834 175 835
f 835 158 831
f 834 835 831
f 175 836 835
f 836 141 789
f 789 158 835
f 836 789 835
f 175 837 836
f 837 159 791
f 791 141 836
f 837 791 836
f 159 838 790
f 838 124 738
f 738 123 790
f 838 738 790
f 159 839 838
f 839 160 792
f 792 124 838
f 839 792 838
f 176 840 841
f 840 143 742
f 742 142 841
f 840 742 841
f 177 842 843
f 842 144 745
f 745 143 843
f 842 745 843
f 176 844 840
f 844 177 843
f 843 143 840
f 844 843 840
f 178 845 846
f 845 161 796
f 796 144 846
f 845 796 846
f 177 847 842
f 847 178 846
f 846 144 842
f 847 846 842
f 179 848 849
f 848 162 799
f 799 161 849
f 848 799 849
f 178 850 845
f 850 179 849
f 849 161 845
f 850 849 845
f 180 851 852
f 851 163 802
f 802 162 852
f 851 802 852
f 179 853 848
f 853 180 852
f 852 162 848
f 853 852 848
f 181 854 855
f 854 164 805
f 805 163 855
f 854 805 855
f 180 856 851
f 856 181 855
f 855 163 851
f 856 855 851
f 182 857 858
f 857 149 806
f 806 164 858
f 857 806 858
f 181 859 854
f 859 182 858
f 858 164 854
f 859 858 854
f 182 860 857
f 860 34 763
f 763 149 857
f 860 763 857
f 183 861 862
f 861 150 765
f 765 130 862
f 861 765 862
f 183 863 861
f 863 165 808
f 808 150 861
f 863 808 861
f 184 864 865
f 864 78 708
f 708 94 865
f 864 708 865
f 184 866 864
f 866 167 813
f 813 78 864
f 866 813 864
f 185 867 868
f 867 168 816
f 816 167 868
f 867 816 868
f 184 869 866
f 869 185 868
f 868 167 866
f 869 868 866
f 186 870 872
f 870 169 871
f 871 187 872
f 870 871 872
f 169 873 817
f 873 188 874
f 874 153 817
f 873 874 817
f 188 875 874
f 875 170 820
f 820 153 874
f 875 820 874
f 189 876 877
f 876 171 821
f 821 170 877
f 876 821 877
f 188 878 875
f 878 189 877
f 877 170 875
f 878 877 875
f 171 879 826
f 879 190 880
f 880 157 826
f 879 880 826
f 190 881 880
f 881 173 830
f 830 157 880
f 881 830 880
f 190 882 881
f 882 172 829
f 829 173 881
f 882 829 881
f 191 883 884
f 883 174 833
f 833 172 884
f 883 833 884
f 192 885 886
f 885 175 834
f 834 174 886
f 885 834 886
f 191 887 883
f 887 192 886
f 886 174 883
f 887 886 883
f 192 888 885
f 888 193 889
f 889 175 885
f 888 889 885
f 194 890 891
f 890 159 837
f 837 175 891
f 890 837 891
f 193 892 889
f 892 194 891
f 891 175 889
f 892 891 889
f 194 893 890
f 893 160 839
f 839 159 890
f 893 839 890
f 160 894 794
f 894 195 895
f 895 142 794
f 894 895 794
f 195 896 895
f 896 176 841
f 841 142 895
f 896 841 895
f 196 897 898
f 897 178 847
f 847 177 898
f 897 847 898
f 197 899 900
f 899 179 850
f 850 178 900
f 899 850 900
f 196 901 897
f 901 197 900
f 900 178 897
f 901 900 897
f 198 902 903
f 902 180 853
f 853 179 903
f 902 853 903
f 197 904 899
f 904 198 903
f 903 179 899
f 904 903 899
f 199 905 906
f 905 181 856
f 856 180 906
f 905 856 906
f 198 907 902
f 907 199 906
f 906 180 902
f 907 906 902
f 199 908 905
f 908 182 859
f 859 181 905
f 908 859 905
f 200 909 910
f 909 130 707
f 707 38 910
f 909 707 910
f 200 911 909
f 911 183 862
f 862 130 909
f 911 862 909
f 166 912 809
f 912 201 913
f 913 94 809
f 912 913 809
f 201 914 913
f 914 184 865
f 865 94 913
f 914 865 913
f 202 915 916
f 915 185 869
f 869 184 916
f 915 869 916
f 201 917 914
f 917 202 916
f 916 184 914
f 917 916 914
f 203 918 919
f 918 169 870
f 870 186 919
f 918 870 919
f 203 920 918
f 920 188 873
f 873 169 918
f 920 873 918
f 203 921 920
f 921 204 922
f 922 188 920
f 921 922 920
f 204 923 922
f 923 189 878
f 878 188 922
f 923 878 922
f 204 924 923
f 924 205 925
f 925 189 923
f 924 925 923
f 205 926 925
f 926 171 876
f 876 189 925
f 926 876 925
f 205 927 926
f 927 190 879
f 879 171 926
f 927 879 926
f 206 928 929
f 928 172 882
f 882 190 929
f 928 882 929
f 207 930 931
f 930 206 929
f 929 190 931
f 930 929 931
f 208 932 933
f 932 191 884
f 884 172 933
f 932 884 933
f 206 934 928
f 934 208 933
f 933 172 928
f 934 933 928
f 208 935 932
f 935 192 887
f 887 191 932
f 935 887 932
f 208 936 935
f 936 193 888
f 888 192 935
f 936 888 935
f 209 937 938
f 937 194 892
f 892 193 938
f 937 892 938
f 209 939 937
f 939 210 940
f 940 194 937
f 939 940 937
f 211 941 942
f 941 195 894
f 894 160 942
f 941 894 942
f 212 943 944
f 943 177 844
f 844 176 944
f 943 844 944
f 195 945 896
f 945 212 944
f 944 176 896
f 945 944 896
f 213 946 947
f 946 196 898
f 898 177 947
f 946 898 947
f 212 948 943
f 948 213 947
f 947 177 943
f 948 947 943
f 214 949 950
f 949 197 901
f 901 196 950
f 949 901 950
f 213 951 946
f 951 214 950
f 950 196 946
f 951 950 946
f 215 952 953
f 952 198 904
f 904 197 953
f 952 904 953
f 214 954 949
f 954 215 953
f 953 197 949
f 954 953 949
f 216 955 956
f 955 199 907
f 907 198 956
f 955 907 956
f 215 957 952
f 957 216 956
f 956 198 952
f 957 956 952
f 217 958 959
f 958 182 908
f 908 199 959
f 958 908 959
f 216 960 955
f 960 217 959
f 959 199 955
f 960 959 955
f 217 961 958
f 961 34 860
f 860 182 958
f 961 860 958
f 218 962 963
f 962 183 911
f 911 200 963
f 962 911 963
f 219 964 965
f 964 165 863
f 863 183 965
f 964 863 965
f 218 966 962
f 966 219 965
f 965 183 962
f 966 965 962
f 219 967 964
f 967 166 811
f 811 165 964
f 967 811 964
f 166 968 912
f 968 220 969
f 969 201 912
f 968 969 912
f 220 970 969
f 970 202 917
f 917 201 969
f 970 917 969
f 203 919 972
f 919 186 971
f 971 221 972
f 919 971 972
f 222 973 974
f 973 203 972
f 972 221 974
f 973 972 974
f 223 975 976
f 975 204 921
f 921 203 976
f 975 921 976
f 223 977 975
f 977 224 978
f 978 204 975
f 977 978 975
f 225 979 980
f 979 205 924
f 924 204 980
f 979 924 980
f 224 981 978
f 981 225 980
f 980 204 978
f 981 980 978
f 225 982 979
f 982 226 983
f 983 205 979
f 982 983 979
f 226 984 983
f 984 190 927
f 927 205 983
f 984 927 983
f 226 985 984
f 985 207 931
f 931 190 984
f 985 931 984
f 226 986 985
f 986 206 930
f 930 207 985
f 986 930 985
f 227 987 988
f 987 208 934
f 934 206 988
f 987 934 988
f 227 989 987
f 989 228 990
f 990 208 987
f 989 990 987
f 228 991 990
f 991 193 936
f 936 208 990
f 991 936 990
f 229 992 993
f 992 209 938
f 938 193 993
f 992 938 993
f 228 994 991
f 994 229 993
f 993 193 991
f 994 993 991
f 230 995 996
f 995 210 939
f 939 209 996
f 995 939 996
f 210 997 940
f 997 160 893
f 893 194 940
f 997 893 940
f 160 998 942
f 998 231 999
f 999 211 942
f 998 999 942
f 232 1000 1001
f 1000 195 941
f 941 211 1001
f 1000 941 1001
f 231 1002 999
f 1002 232 1001
f 1001 211 999
f 1002 1001 999
f 232 1003 1000
f 1003 212 945
f 945 195 1000
f 1003 945 1000
f 233 1004 1005
f 1004 214 951
f 951 213 1005
f 1004 951 1005
f 212 1006 948
f 1006 233 1005
f 1005 213 948
f 1006 1005 948
f 234 1007 1008
f 1007 215 954
f 954 214 1008
f 1007 954 1008
f 233 1009 1004
f 1009 234 1008
f 1008 214 1004
f 1009 1008 1004
f 235 1010 1011
f 1010 216 957
f 957 215 1011
f 1010 957 1011
f 234 1012 1007
f 1012 235 1011
f 1011 215 1007
f 1012 1011 1007
f 235 1013 1010
f 1013 217 960
f 960 216 1010
f 1013 960 1010
f 236 1014 1015
f 1014 220 968
f 968 166 1015
f 1014 968 1015
f 236 1016 1014
f 1016 237 1017
f 1017 220 1014
f 1016 1017 1014
f 222 1018 973
f 1018 238 1019
f 1019 203 973
f 1018 1019 973
f 239 1020 1021
f 1020 223 976
f 976 203 1021
f 1020 976 1021
f 238 1022 1019
f 1022 239 1021
f 1021 203 1019
f 1022 1021 1019
f 239 1023 1020
f 1023 224 977
f 977 223 1020
f 1023 977 1020
f 240 1024 1025
f 1024 225 981
f 981 224 1025
f 1024 981 1025
f 239 1026 1023
f 1026 240 1025
f 1025 224 1023
f 1026 1025 1023
f 240 1027 1024
f 1027 241 1028
f 1028 225 1024
f 1027 1028 1024
f 225 1029 982
f 1029 242 1030
f 1030 226 982
f 1029 1030 982
f 242 1031 1030
f 1031 206 986
f 986 226 1030
f 1031 986 1030
f 243 1032 1033
f 1032 227 988
f 988 206 1033
f 1032 988 1033
f 244 1034 1035
f 1034 228 989
f 989 227 1035
f 1034 989 1035
f 243 1036 1032
f 1036 244 1035
f 1035 227 1032
f 1036 1035 1032
f 244 1037 1034
f 1037 245 1038
f 1038 228 1034
f 1037 1038 1034
f 245 1039 1038
f 1039 229 994
f 994 228 1038
f 1039 994 1038
f 229 1040 992
f 1040 230 996
f 996 209 992
f 1040 996 992
f 246 1041 1042
f 1041 210 995
f 995 230 1042
f 1041 995 1042
f 246 1043 1041
f 1043 160 997
f 997 210 1041
f 1043 997 1041
f 246 1044 1043
f 1044 247 1045
f 1045 160 1043
f 1044 1045 1043
f 247 1046 1045
f 1046 231 998
f 998 160 1045
f 1046 998 1045
f 232 1047 1003
f 1047 248 1048
f 1048 212 1003
f 1047 1048 1003
f 249 1049 1050
f 1049 233 1006
f 1006 212 1050
f 1049 1006 1050
f 248 1051 1048
f 1051 249 1050
f 1050 212 1048
f 1051 1050 1048
f 250 1052 1053
f 1052 234 1009
f 1009 233 1053
f 1052 1009 1053
f 249 1054 1049
f 1054 250 1053
f 1053 233 1049
f 1054 1053 1049
f 251 1055 1056
f 1055 235 1012
f 1012 234 1056
f 1055 1012 1056
f 250 1057 1052
f 1057 251 1056
f 1056 234 1052
f 1057 1056 1052
f 252 1058 1059
f 1058 217 1013
f 1013 235 1059
f 1058 1013 1059
f 251 1060 1055
f 1060 252 1059
f 1059 235 1055
f 1060 1059 1055
f 252 1061 1058
f 1061 34 961
f 961 217 1058
f 1061 961 1058
f 253 1062 1063
f 1062 218 963
f 963 200 1063
f 1062 963 1063
f 253 1064 1062
f 1064 219 966
f 966 218 1062
f 1064 966 1062
f 254 1065 1066
f 1065 166 967
f 967 219 1066
f 1065 967 1066
f 255 1067 1068
f 1067 236 1015
f 1015 166 1068
f 1067 1015 1068
f 255 1069 1067
f 1069 237 1016
f 1016 236 1067
f 1069 1016 1067
f 256 1070 1071
f 1070 238 1018
f 1018 222 1071
f 1070 1018 1071
f 257 1072 1073
f 1072 239 1022
f 1022 238 1073
f 1072 1022 1073
f 257 1074 1072
f 1074 258 1075
f 1075 239 1072
f 1074 1075 1072
f 258 1076 1075
f 1076 240 1026
f 1026 239 1075
f 1076 1026 1075
f 258 1077 1076
f 1077 241 1027
f 1027 240 1076
f 1077 1027 1076
f 242 1029 1078
f 1029 225 1028
f 1028 241 1078
f 1029 1028 1078
f 258 1079 1077
f 1079 242 1078
f 1078 241 1077
f 1079 1078 1077
f 259 1080 1081
f 1080 206 1031
f 1031 242 1081
f 1080 1031 1081
f 260 1082 1083
f 1082 259 1081
f 1081 242 1083
f 1082 1081 1083
f 261 1084 1085
f 1084 243 1033
f 1033 206 1085
f 1084 1033 1085
f 259 1086 1080
f 1086 261 1085
f 1085 206 1080
f 1086 1085 1080
f 261 1087 1084
f 1087 244 1036
f 1036 243 1084
f 1087 1036 1084
f 261 1088 1087
f 1088 245 1037
f 1037 244 1087
f 1088 1037 1087
f 262 1089 1090
f 1089 229 1039
f 1039 245 1090
f 1089 1039 1090
f 263 1091 1092
f 1091 232 1002
f 1002 231 1092
f 1091 1002 1092
f 247 1093 1046
f 1093 263 1092
f 1092 231 1046
f 1093 1092 1046
f 264 1094 1095
f 1094 248 1047
f 1047 232 1095
f 1094 1047 1095
f 263 1096 1091
f 1096 264 1095
f 1095 232 1091
f 1096 1095 1091
f 265 1097 1098
f 1097 249 1051
f 1051 248 1098
f 1097 1051 1098
f 264 1099 1094
f 1099 265 1098
f 1098 248 1094
f 1099 1098 1094
f 266 1100 1101
f 1100 250 1054
f 1054 249 1101
f 1100 1054 1101
f 265 1102 1097
f 1102 266 1101
f 1101 249 1097
f 1102 1101 1097
f 267 1103 1104
f 1103 251 1057
f 1057 250 1104
f 1103 1057 1104
f 266 1105 1100
f 1105 267 1104
f 1104 250 1100
f 1105 1104 1100
f 267 1106 1103
f 1106 252 1060
f 1060 251 1103
f 1106 1060 1103
f 268 1107 1108
f 1107 219 1064
f 1064 253 1108
f 1107 1064 1108
f 268 1109 1107
f 1109 254 1066
f 1066 219 1107
f 1109 1066 1107
f 269 1110 1111
f 1110 255 1068
f 1068 166 1111
f 1110 1068 1111
f 269 1112 1110
f 1112 270 1113
f 1113 255 1110
f 1112 1113 1110
f 271 1114 1116
f 1114 256 1115
f 1115 272 1116
f 1114 1115 1116
f 256 1117 1070
f 1117 273 1118
f 1118 238 1070
f 1117 1118 1070
f 273 1119 1118
f 1119 257 1073
f 1073 238 1118
f 1119 1073 1118
f 274 1120 1121
f 1120 258 1074
f 1074 257 1121
f 1120 1074 1121
f 273 1122 1119
f 1122 274 1121
f 1121 257 1119
f 1122 1121 1119
f 258 1123 1079
f 1123 275 1124
f 1124 242 1079
f 1123 1124 1079
f 275 1125 1124
f 1125 260 1083
f 1083 242 1124
f 1125 1083 1124
f 275 1126 1125
f 1126 259 1082
f 1082 260 1125
f 1126 1082 1125
f 276 1127 1128
f 1127 261 1086
f 1086 259 1128
f 1127 1086 1128
f 276 1129 1127
f 1129 277 1130
f 1130 261 1127
f 1129 1130 1127
f 277 1131 1130
f 1131 245 1088
f 1088 261 1130
f 1131 1088 1130
f 277 1132 1131
f 1132 262 1090
f 1090 245 1131
f 1132 1090 1131
f 262 1133 1089
f 1133 230 1040
f 1040 229 1089
f 1133 1040 1089
f 262 1134 1133
f 1134 246 1042
f 1042 230 1133
f 1134 1042 1133
f 278 1135 1136
f 1135 264 1096
f 1096 263 1136
f 1135 1096 1136
f 279 1137 1138
f 1137 265 1099
f 1099 264 1138
f 1137 1099 1138
f 278 1139 1135
f 1139 279 1138
f 1138 264 1135
f 1139 1138 1135
f 280 1140 1141
f 1140 266 1102
f 1102 265 1141
f 1140 1102 1141
f 279 1142 1137
f 1142 280 1141
f 1141 265 1137
f 1142 1141 1137
f 281 1143 1144
f 1143 267 1105
f 1105 266 1144
f 1143 1105 1144
f 280 1145 1140
f 1145 281 1144
f 1144 266 1140
f 1145 1144 1140
f 282 1146 1147
f 1146 252 1106
f 1106 267 1147
f 1146 1106 1147
f 281 1148 1143
f 1148 282 1147
f 1147 267 1143
f 1148 1147 1143
f 282 1149 1146
f 1149 34 1061
f 1061 252 1146
f 1149 1061 1146
f 283 1150 1151
f 1150 253 1063
f 1063 200 1151
f 1150 1063 1151
f 283 1152 1150
f 1152 268 1108
f 1108 253 1150
f 1152 1108 1150
f 284 1153 1154
f 1153 269 1111
f 1111 166 1154
f 1153 1111 1154
f 254 1155 1065
f 1155 284 1154
f 1154 166 1065
f 1155 1154 1065
f 285 1156 1157
f 1156 270 1112
f 1112 269 1157
f 1156 1112 1157
f 284 1158 1153
f 1158 285 1157
f 1157 269 1153
f 1158 1157 1153
f 286 1159 1160
f 1159 256 1114
f 1114 271 1160
f 1159 1114 1160
f 286 1161 1159
f 1161 273 1117
f 1117 256 1159
f 1161 1117 1159
f 286 1162 1161
f 1162 287 1163
f 1163 273 1161
f 1162 1163 1161
f 287 1164 1163
f 1164 274 1122
f 1122 273 1163
f 1164 1122 1163
f 287 1165 1164
f 1165 288 1166
f 1166 274 1164
f 1165 1166 1164
f 288 1167 1166
f 1167 258 1120
f 1120 274 1166
f 1167 1120 1166
f 288 1168 1167
f 1168 275 1123
f 1123 258 1167
f 1168 1123 1167
f 289 1169 1170
f 1169 259 1126
f 1126 275 1170
f 1169 1126 1170
f 290 1171 1172
f 1171 289 1170
f 1170 275 1172
f 1171 1170 1172
f 291 1173 1174
f 1173 276 1128
f 1128 259 1174
f 1173 1128 1174
f 289 1175 1169
f 1175 291 1174
f 1174 259 1169
f 1175 1174 1169
f 292 1176 1177
f 1176 277 1129
f 1129 276 1177
f 1176 1129 1177
f 291 1178 1173
f 1178 292 1177
f 1177 276 1173
f 1178 1177 1173
f 292 1179 1176
f 1179 293 1180
f 1180 277 1176
f 1179 1180 1176
f 294 1181 1182
f 1181 262 1132
f 1132 277 1182
f 1181 1132 1182
f 293 1183 1180
f 1183 294 1182
f 1182 277 1180
f 1183 1182 1180
f 294 1184 1181
f 1184 246 1134
f 1134 262 1181
f 1184 1134 1181
f 246 1185 1044
f 1185 295 1186
f 1186 247 1044
f 1185 1186 1044
f 295 1187 1186
f 1187 296 1188
f 1188 247 1186
f 1187 1188 1186
f 296 1189 1188
f 1189 263 1093
f 1093 247 1188
f 1189 1093 1188
f 297 1190 1191
f 1190 278 1136
f 1136 263 1191
f 1190 1136 1191
f 296 1192 1189
f 1192 297 1191
f 1191 263 1189
f 1192 1191 1189
f 298 1193 1194
f 1193 279 1139
f 1139 278 1194
f 1193 1139 1194
f 297 1195 1190
f 1195 298 1194
f 1194 278 1190
f 1195 1194 1190
f 299 1196 1197
f 1196 280 1142
f 1142 279 1197
f 1196 1142 1197
f 298 1198 1193
f 1198 299 1197
f 1197 279 1193
f 1198 1197 1193
f 300 1199 1200
f 1199 281 1145
f 1145 280 1200
f 1199 1145 1200
f 299 1201 1196
f 1201 300 1200
f 1200 280 1196
f 1201 1200 1196
f 300 1202 1199
f 1202 282 1148
f 1148 281 1199
f 1202 1148 1199
f 301 1203 1204
f 1203 284 1155
f 1155 254 1204
f 1203 1155 1204
f 301 1205 1203
f 1205 285 1158
f 1158 284 1203
f 1205 1158 1203
f 286 1160 1207
f 1160 271 1206
f 1206 302 1207
f 1160 1206 1207
f 303 1208 1209
f 1208 286 1207
f 1207 302 1209
f 1208 1207 1209
f 304 1210 1211
f 1210 287 1162
f 1162 286 1211
f 1210 1162 1211
f 304 1212 1210
f 1212 305 1213
f 1213 287 1210
f 1212 1213 1210
f 306 1214 1215
f 1214 288 1165
f 1165 287 1215
f 1214 1165 1215
f 305 1216 1213
f 1216 306 1215
f 1215 287 1213
f 1216 1215 1213
f 306 1217 1214
f 1217 307 1218
f 1218 288 1214
f 1217 1218 1214
f 307 1219 1218
f 1219 275 1168
f 1168 288 1218
f 1219 1168 1218
f 307 1220 1219
f 1220 290 1172
f 1172 275 1219
f 1220 1172 1219
f 307 1221 1220
f 1221 289 1171
f 1171 290 1220
f 1221 1171 1220
f 308 1222 1223
f 1222 291 1175
f 1175 289 1223
f 1222 1175 1223
f 308 1224 1222
f 1224 292 1178
f 1178 291 1222
f 1224 1178 1222
f 308 1225 1224
f 1225 293 1179
f 1179 292 1224
f 1225 1179 1224
f 309 1226 1227
f 1226 294 1183
f 1183 293 1227
f 1226 1183 1227
f 309 1228 1226
f 1228 310 1229
f 1229 294 1226
f 1228 1229 1226
f 310 1230 1229
f 1230 246 1184
f 1184 294 1229
f 1230 1184 1229
f 311 1231 1232
f 1231 297 1192
f 1192 296 1232
f 1231 1192 1232
f 312 1233 1234
f 1233 298 1195
f 1195 297 1234
f 1233 1195 1234
f 311 1235 1231
f 1235 312 1234
f 1234 297 1231
f 1235 1234 1231
f 313 1236 1237
f 1236 299 1198
f 1198 298 1237
f 1236 1198 1237
f 312 1238 1233
f 1238 313 1237
f 1237 298 1233
f 1238 1237 1233
f 314 1239 1240
f 1239 300 1201
f 1201 299 1240
f 1239 1201 1240
f 313 1241 1236
f 1241 314 1240
f 1240 299 1236
f 1241 1240 1236
f 315 1242 1243
f 1242 282 1202
f 1202 300 1243
f 1242 1202 1243
f 314 1244 1239
f 1244 315 1243
f 1243 300 1239
f 1244 1243 1239
f 315 1245 1242
f 1245 34 1149
f 1149 282 1242
f 1245 1149 1242
f 316 1246 1247
f 1246 200 910
f 910 38 1247
f 1246 910 1247
f 316 1248 1246
f 1248 283 1151
f 1151 200 1246
f 1248 1151 1246
f 317 1249 1250
f 1249 268 1152
f 1152 283 1250
f 1249 1152 1250
f 316 1251 1248
f 1251 317 1250
f 1250 283 1248
f 1251 1250 1248
f 318 1252 1253
f 1252 254 1109
f 1109 268 1253
f 1252 1109 1253
f 317 1254 1249
f 1254 318 1253
f 1253 268 1249
f 1254 1253 1249
f 319 1255 1256
f 1255 301 1204
f 1204 254 1256
f 1255 1204 1256
f 319 1257 1255
f 1257 320 1258
f 1258 301 1255
f 1257 1258 1255
f 321 1259 1260
f 1259 304 1211
f 1211 286 1260
f 1259 1211 1260
f 303 1261 1208
f 1261 321 1260
f 1260 286 1208
f 1261 1260 1208
f 321 1262 1259
f 1262 305 1212
f 1212 304 1259
f 1262 1212 1259
f 322 1263 1264
f 1263 306 1216
f 1216 305 1264
f 1263 1216 1264
f 321 1265 1262
f 1265 322 1264
f 1264 305 1262
f 1265 1264 1262
f 322 1266 1263
f 1266 323 1267
f 1267 306 1263
f 1266 1267 1263
f 306 1268 1217
f 1268 324 1269
f 1269 307 1217
f 1268 1269 1217
f 324 1270 1269
f 1270 289 1221
f 1221 307 1269
f 1270 1221 1269
f 325 1271 1272
f 1271 308 1223
f 1223 289 1272
f 1271 1223 1272
f 325 1273 1271
f 1273 326 1274
f 1274 308 1271
f 1273 1274 1271
f 326 1275 1274
f 1275 293 1225
f 1225 308 1274
f 1275 1225 1274
f 327 1276 1277
f 1276 309 1227
f 1227 293 1277
f 1276 1227 1277
f 326 1278 1275
f 1278 327 1277
f 1277 293 1275
f 1278 1277 1275
f 328 1279 1280
f 1279 310 1228
f 1228 309 1280
f 1279 1228 1280
f 310 1281 1230
f 1281 329 1282
f 1282 246 1230
f 1281 1282 1230
f 329 1283 1282
f 1283 330 1284
f 1284 246 1282
f 1283 1284 1282
f 330 1285 1284
f 1285 295 1185
f 1185 246 1284
f 1285 1185 1284
f 330 1286 1285
f 1286 331 1287
f 1287 295 1285
f 1286 1287 1285
f 331 1288 1287
f 1288 332 1289
f 1289 295 1287
f 1288 1289 1287
f 332 1290 1289
f 1290 296 1187
f 1187 295 1289
f 1290 1187 1289
f 333 1291 1292
f 1291 311 1232
f 1232 296 1292
f 1291 1232 1292
f 332 1293 1290
f 1293 333 1292
f 1292 296 1290
f 1293 1292 1290
f 334 1294 1295
f 1294 312 1235
f 1235 311 1295
f 1294 1235 1295
f 333 1296 1291
f 1296 334 1295
f 1295 311 1291
f 1296 1295 1291
f 335 1297 1298
f 1297 313 1238
f 1238 312 1298
f 1297 1238 1298
f 334 1299 1294
f 1299 335 1298
f 1298 312 1294
f 1299 1298 1294
f 336 1300 1301
f 1300 314 1241
f 1241 313 1301
f 1300 1241 1301
f 335 1302 1297
f 1302 336 1301
f 1301 313 1297
f 1302 1301 1297
f 337 1303 1304
f 1303 315 1244
f 1244 314 1304
f 1303 1244 1304
f 336 1305 1300
f 1305 337 1304
f 1304 314 1300
f 1305 1304 1300
f 337 1306 1303
f 1306 34 1245
f 1245 315 1303
f 1306 1245 1303
f 40 1307 1308
f 1307 254 1252
f 1252 318 1308
f 1307 1252 1308
f 40 1309 1307
f 1309 319 1256
f 1256 254 1307
f 1309 1256 1307
f 3 1310 1311
f 1310 320 1257
f 1257 319 1311
f 1310 1257 1311
f 40 1312 1309
f 1312 3 1311
f 1311 319 1309
f 1312 1311 1309
f 338 1313 1314
f 1313 321 1261
f 1261 303 1314
f 1313 1261 1314
f 338 1315 1313
f 1315 339 1316
f 1316 321 1313
f 1315 1316 1313
f 340 1317 1318
f 1317 322 1265
f 1265 321 1318
f 1317 1265 1318
f 339 1319 1316
f 1319 340 1318
f 1318 321 1316
f 1319 1318 1316
f 340 1320 1317
f 1320 323 1266
f 1266 322 1317
f 1320 1266 1317
f 340 1321 1320
f 1321 341 1322
f 1322 323 1320
f 1321 1322 1320
f 341 1323 1322
f 1323 306 1267
f 1267 323 1322
f 1323 1267 1322
f 341 1324 1323
f 1324 324 1268
f 1268 306 1323
f 1324 1268 1323
f 342 1325 1326
f 1325 289 1270
f 1270 324 1326
f 1325 1270 1326
f 341 1327 1324
f 1327 342 1326
f 1326 324 1324
f 1327 1326 1324
f 343 1328 1329
f 1328 325 1272
f 1272 289 1329
f 1328 1272 1329
f 342 1330 1325
f 1330 343 1329
f 1329 289 1325
f 1330 1329 1325
f 344 1331 1332
f 1331 326 1273
f 1273 325 1332
f 1331 1273 1332
f 343 1333 1328
f 1333 344 1332
f 1332 325 1328
f 1333 1332 1328
f 344 1334 1331
f 1334 345 1335
f 1335 326 1331
f 1334 1335 1331
f 345 1336 1335
f 1336 327 1278
f 1278 326 1335
f 1336 1278 1335
f 327 1337 1276
f 1337 328 1280
f 1280 309 1276
f 1337 1280 1276
f 329 1281 1338
f 1281 310 1279
f 1279 328 1338
f 1281 1279 1338
f 23 1339 1340
f 1339 331 1286
f 1286 330 1340
f 1339 1286 1340
f 346 1341 1342
f 1341 332 1288
f 1288 331 1342
f 1341 1288 1342
f 23 1343 1339
f 1343 346 1342
f 1342 331 1339
f 1343 1342 1339
f 346 1344 1341
f 1344 333 1293
f 1293 332 1341
f 1344 1293 1341
f 346 1345 1344
f 1345 347 1346
f 1346 333 1344
f 1345 1346 1344
f 347 1347 1346
f 1347 348 1348
f 1348 333 1346
f 1347 1348 1346
f 348 1349 1348
f 1349 334 1296
f 1296 333 1348
f 1349 1296 1348
f 349 1350 1351
f 1350 335 1299
f 1299 334 1351
f 1350 1299 1351
f 348 1352 1349
f 1352 349 1351
f 1351 334 1349
f 1352 1351 1349
f 349 1353 1350
f 1353 336 1302
f 1302 335 1350
f 1353 1302 1350
f 35 1354 1355
f 1354 337 1305
f 1305 336 1355
f 1354 1305 1355
f 349 1356 1353
f 1356 35 1355
f 1355 336 1353
f 1356 1355 1353
f 35 442 1354
f 442 34 1306
f 1306 337 1354
f 442 1306 1354
f 38 447 1247
f 447 37 1357
f 1357 316 1247
f 447 1357 1247
f 39 1358 1359
f 1358 317 1251
f 1251 316 1359
f 1358 1251 1359
f 37 450 1357
f 450 39 1359
f 1359 316 1357
f 450 1359 1357
f 57 1360 1361
f 1360 318 1254
f 1254 317 1361
f 1360 1254 1361
f 39 497 1358
f 497 57 1361
f 1361 317 1358
f 497 1361 1358
f 57 559 1360
f 559 40 1308
f 1308 318 1360
f 559 1308 1360
f 1 393 453
f 393 3 1312
f 1312 40 453
f 393 1312 453
f 5 1362 1363
f 1362 338 1314
f 1314 303 1363
f 1362 1314 1363
f 6 395 1364
f 395 5 1363
f 1363 303 1364
f 395 1363 1364
f 5 1365 1362
f 1365 339 1315
f 1315 338 1362
f 1365 1315 1362
f 8 1366 1367
f 1366 340 1319
f 1319 339 1367
f 1366 1319 1367
f 5 398 1365
f 398 8 1367
f 1367 339 1365
f 398 1367 1365
f 8 1368 1366
f 1368 341 1321
f 1321 340 1366
f 1368 1321 1366
f 8 405 1368
f 405 11 1369
f 1369 341 1368
f 405 1369 1368
f 11 407 1369
f 407 12 1370
f 1370 341 1369
f 407 1370 1369
f 13 1371 1372
f 1371 342 1327
f 1327 341 1372
f 1371 1327 1372
f 12 409 1370
f 409 13 1372
f 1372 341 1370
f 409 1372 1370
f 15 1373 1374
f 1373 343 1330
f 1330 342 1374
f 1373 1330 1374
f 13 411 1371
f 411 15 1374
f 1374 342 1371
f 411 1374 1371
f 15 1375 1373
f 1375 344 1333
f 1333 343 1373
f 1375 1333 1373
f 17 1376 1377
f 1376 345 1334
f 1334 344 1377
f 1376 1334 1377
f 15 416 1375
f 416 17 1377
f 1377 344 1375
f 416 1377 1375
f 18 1378 1379
f 1378 327 1336
f 1336 345 1379
f 1378 1336 1379
f 17 478 1376
f 478 18 1379
f 1379 345 1376
f 478 1379 1376
f 18 419 1378
f 419 20 1380
f 1380 327 1378
f 419 1380 1378
f 20 1381 1380
f 1381 328 1337
f 1337 327 1380
f 1381 1337 1380
f 21 1382 1383
f 1382 329 1338
f 1338 328 1383
f 1382 1338 1383
f 20 421 1381
f 421 21 1383
f 1383 328 1381
f 421 1383 1381
f 21 526 1382
f 526 67 1384
f 1384 329 1382
f 526 1384 1382
f 24 1385 1386
f 1385 330 1283
f 1283 329 1386
f 1385 1283 1386
f 67 528 1384
f 528 24 1386
f 1386 329 1384
f 528 1386 1384
f 24 423 1385
f 423 23 1340
f 1340 330 1385
f 423 1340 1385
f 23 426 1343
f 426 25 1387
f 1387 346 1343
f 426 1387 1343
f 27 1388 1389
f 1388 347 1345
f 1345 346 1389
f 1388 1345 1389
f 25 428 1387
f 428 27 1389
f 1389 346 1387
f 428 1389 1387
f 27 1390 1388
f 1390 348 1347
f 1347 347 1388
f 1390 1347 1388
f 27 431 1390
f 431 29 1391
f 1391 348 1390
f 431 1391 1390
f 31 1392 1393
f 1392 349 1352
f 1352 348 1393
f 1392 1352 1393
f 29 435 1391
f 435 31 1393
f 1393 348 1391
f 435 1393 1391
f 31 439 1392
f 439 33 1394
f 1394 349 1392
f 439 1394 1392
f 33 443 1394
f 443 35 1356
f 1356 349 1394
f 443 1356 1394
f 2 1395 392
f 1395 350 1396
f 1396 3 392
f 1395 1396 392
f 350 1397 1399
f 1397 351 1398
f 1398 352 1399
f 1397 1398 1399
f 6 1364 1401
f 1364 303 1400
f 1400 353 1401
f 1364 1400 1401
f 43 456 1402
f 456 6 1401
f 1401 353 1402
f 456 1401 1402
f 2 1403 1395
f 1403 351 1397
f 1397 350 1395
f 1403 1397 1395
f 351 1403 1404
f 1403 2 454
f 454 41 1404
f 1403 454 1404
f 43 1405 1406
f 1405 352 1398
f 1398 351 1406
f 1405 1398 1406
f 354 1407 1408
f 1407 43 1406
f 1406 351 1408
f 1407 1406 1408
f 43 1407 457
f 1407 354 1409
f 1409 42 457
f 1407 1409 457
f 351 1404 1411
f 1404 41 1410
f 1410 355 1411
f 1404 1410 1411
f 41 501 1410
f 501 59 1412
f 1412 355 1410
f 501 1412 1410
f 355 1412 1413
f 1412 59 562
f 562 79 1413
f 1412 562 1413
f 80 564 1415
f 564 42 1414
f 1414 356 1415
f 564 1414 1415
f 42 1409 1414
f 1409 354 1416
f 1416 356 1414
f 1409 1416 1414
f 80 1415 1418
f 1415 356 1417
f 1417 357 1418
f 1415 1417 1418
f 355 1413 1420
f 1413 79 1419
f 1419 358 1420
f 1413 1419 1420
f 358 1421 1420
f 1421 359 1422
f 1422 355 1420
f 1421 1422 1420
f 359 1423 1425
f 1423 98 1424
f 1424 357 1425
f 1423 1424 1425
f 357 1424 1418
f 1424 98 612
f 612 80 1418
f 1424 612 1418
f 360 1426 1427
f 1426 79 610
f 610 96 1427
f 1426 610 1427
f 360 1427 1428
f 1427 96 664
f 664 116 1428
f 1427 664 1428
f 79 1426 1419
f 1426 360 1429
f 1429 358 1419
f 1426 1429 1419
f 98 1423 1430
f 1423 359 1421
f 1421 358 1430
f 1423 1421 1430
f 360 1431 1433
f 1431 361 1432
f 1432 362 1433
f 1431 1432 1433
f 116 1434 1428
f 1434 361 1431
f 1431 360 1428
f 1434 1431 1428
f 361 1434 1435
f 1434 116 711
f 711 131 1435
f 1434 711 1435
f 362 1436 1438
f 1436 363 1437
f 1437 132 1438
f 1436 1437 1438
f 132 1437 715
f 1437 363 1439
f 1439 133 715
f 1437 1439 715
f 361 1440 1432
f 1440 363 1436
f 1436 362 1432
f 1440 1436 1432
f 364 1441 1442
f 1441 361 1435
f 1435 131 1442
f 1441 1435 1442
f 131 770 1442
f 770 152 1443
f 1443 364 1442
f 770 1443 1442
f 364 1443 1444
f 1443 152 814
f 814 168 1444
f 1443 814 1444
f 169 818 1446
f 818 133 1445
f 1445 365 1446
f 818 1445 1446
f 133 1439 1445
f 1439 363 1447
f 1447 365 1445
f 1439 1447 1445
f 169 1446 1449
f 1446 365 1448
f 1448 366 1449
f 1446 1448 1449
f 364 1444 1451
f 1444 168 1450
f 1450 367 1451
f 1444 1450 1451
f 367 1452 1451
f 1452 368 1453
f 1453 364 1451
f 1452 1453 1451
f 187 1454 1456
f 1454 366 1455
f 1455 368 1456
f 1454 1455 1456
f 366 1454 1449
f 1454 187 871
f 871 169 1449
f 1454 871 1449
f 369 1457 1458
f 1457 168 867
f 867 185 1458
f 1457 867 1458
f 369 1459 1457
f 1459 367 1450
f 1450 168 1457
f 1459 1450 1457
f 187 1456 1460
f 1456 368 1452
f 1452 367 1460
f 1456 1452 1460
f 185 915 1458
f 915 202 1461
f 1461 369 1458
f 915 1461 1458
f 369 1462 1464
f 1462 370 1463
f 1463 371 1464
f 1462 1463 1464
f 221 1465 1467
f 1465 372 1466
f 1466 371 1467
f 1465 1466 1467
f 372 1465 1468
f 1465 221 971
f 971 186 1468
f 1465 971 1468
f 202 1469 1461
f 1469 370 1462
f 1462 369 1461
f 1469 1462 1461
f 370 1469 1470
f 1469 202 970
f 970 220 1470
f 1469 970 1470
f 221 1467 1471
f 1467 371 1463
f 1463 370 1471
f 1467 1463 1471
f 373 1472 1473
f 1472 221 1471
f 1471 370 1473
f 1472 1471 1473
f 221 1472 974
f 1472 373 1474
f 1474 222 974
f 1472 1474 974
f 374 1475 1476
f 1475 370 1470
f 1470 220 1476
f 1475 1470 1476
f 220 1017 1476
f 1017 237 1477
f 1477 374 1476
f 1017 1477 1476
f 374 1477 1478
f 1477 237 1069
f 1069 255 1478
f 1477 1069 1478
f 256 1071 1480
f 1071 222 1479
f 1479 375 1480
f 1071 1479 1480
f 222 1474 1479
f 1474 373 1481
f 1481 375 1479
f 1474 1481 1479
f 256 1480 1483
f 1480 375 1482
f 1482 376 1483
f 1480 1482 1483
f 374 1478 1485
f 1478 255 1484
f 1484 377 1485
f 1478 1484 1485
f 377 1486 1485
f 1486 378 1487
f 1487 374 1485
f 1486 1487 1485
f 272 1488 1490
f 1488 376 1489
f 1489 378 1490
f 1488 1489 1490
f 376 1488 1483
f 1488 272 1115
f 1115 256 1483
f 1488 1115 1483
f 379 1491 1492
f 1491 255 1113
f 1113 270 1492
f 1491 1113 1492
f 379 1492 1493
f 1492 270 1156
f 1156 285 1493
f 1492 1156 1493
f 379 1494 1491
f 1494 377 1484
f 1484 255 1491
f 1494 1484 1491
f 272 1490 1495
f 1490 378 1486
f 1486 377 1495
f 1490 1486 1495
f 379 1496 1498
f 1496 380 1497
f 1497 381 1498
f 1496 1497 1498
f 302 1499 1501
f 1499 382 1500
f 1500 381 1501
f 1499 1500 1501
f 382 1499 1502
f 1499 302 1206
f 1206 271 1502
f 1499 1206 1502
f 285 1503 1493
f 1503 380 1496
f 1496 379 1493
f 1503 1496 1493
f 380 1503 1504
f 1503 285 1205
f 1205 301 1504
f 1503 1205 1504
f 302 1501 1505
f 1501 381 1497
f 1497 380 1505
f 1501 1497 1505
f 383 1506 1507
f 1506 302 1505
f 1505 380 1507
f 1506 1505 1507
f 302 1506 1209
f 1506 383 1508
f 1508 303 1209
f 1506 1508 1209
f 380 1504 1510
f 1504 301 1509
f 1509 384 1510
f 1504 1509 1510
f 301 1258 1509
f 1258 320 1511
f 1511 384 1509
f 1258 1511 1509
f 384 1511 1512
f 1511 320 1310
f 1310 3 1512
f 1511 1310 1512
f 303 1508 1514
f 1508 383 1513
f 1513 385 1514
f 1508 1513 1514
f 303 1514 1516
f 1514 385 1515
f 1515 386 1516
f 1514 1515 1516
f 384 1512 1518
f 1512 3 1517
f 1517 387 1518
f 1512 1517 1518
f 387 1519 1518
f 1519 388 1520
f 1520 384 1518
f 1519 1520 1518
f 389 1521 1523
f 1521 386 1522
f 1522 388 1523
f 1521 1522 1523
f 386 1521 1516
f 1521 389 1524
f 1524 303 1516
f 1521 1524 1516
f 387 1517 1526
f 1517 3 1525
f 1525 390 1526
f 1517 1525 1526
f 350 1527 1396
f 1527 390 1525
f 1525 3 1396
f 1527 1525 1396
f 389 1523 1528
f 1523 388 1519
f 1519 387 1528
f 1523 1519 1528
f 353 1400 1529
f 1400 303 1524
f 1524 389 1529
f 1400 1524 1529
f 350 1399 1530
f 1399 352 1405
f 1405 43 1530
f 1399 1405 1530
f 353 1531 1402
f 1531 350 1530
f 1530 43 1402
f 1531 1530 1402
f 351 1532 1408
f 1532 356 1416
f 1416 354 1408
f 1532 1416 1408
f 356 1532 1533
f 1532 351 1411
f 1411 355 1533
f 1532 1411 1533
f 355 1534 1533
f 1534 357 1417
f 1417 356 1533
f 1534 1417 1533
f 357 1534 1425
f 1534 355 1422
f 1422 359 1425
f 1534 1422 1425
f 358 1429 1536
f 1429 360 1535
f 1535 97 1536
f 1429 1535 1536
f 98 1430 613
f 1430 358 1536
f 1536 97 613
f 1430 1536 613
f 132 1537 1438
f 1537 360 1433
f 1433 362 1438
f 1537 1433 1438
f 97 1535 712
f 1535 360 1537
f 1537 132 712
f 1535 1537 712
f 361 1538 1440
f 1538 365 1447
f 1447 363 1440
f 1538 1447 1440
f 365 1538 1539
f 1538 361 1441
f 1441 364 1539
f 1538 1441 1539
f 364 1540 1539
f 1540 366 1448
f 1448 365 1539
f 1540 1448 1539
f 364 1453 1540
f 1453 368 1455
f 1455 366 1540
f 1453 1455 1540
f 187 1460 872
f 1460 367 1541
f 1541 186 872
f 1460 1541 872
f 369 1464 1542
f 1464 371 1466
f 1466 372 1542
f 1464 1466 1542
f 186 1541 1543
f 1541 367 1459
f 1459 369 1543
f 1541 1459 1543
f 186 1543 1468
f 1543 369 1542
f 1542 372 1468
f 1543 1542 1468
f 370 1544 1473
f 1544 375 1481
f 1481 373 1473
f 1544 1481 1473
f 375 1544 1545
f 1544 370 1475
f 1475 374 1545
f 1544 1475 1545
f 374 1546 1545
f 1546 376 1482
f 1482 375 1545
f 1546 1482 1545
f 374 1487 1546
f 1487 378 1489
f 1489 376 1546
f 1487 1489 1546
f 377 1547 1495
f 1547 271 1116
f 1116 272 1495
f 1547 1116 1495
f 377 1494 1547
f 1494 379 1548
f 1548 271 1547
f 1494 1548 1547
f 379 1498 1549
f 1498 381 1500
f 1500 382 1549
f 1498 1500 1549
f 271 1548 1502
f 1548 379 1549
f 1549 382 1502
f 1548 1549 1502
f 380 1550 1507
f 1550 385 1513
f 1513 383 1507
f 1550 1513 1507
f 385 1550 1551
f 1550 380 1510
f 1510 384 1551
f 1550 1510 1551
f 384 1552 1551
f 1552 386 1515
f 1515 385 1551
f 1552 1515 1551
f 384 1520 1552
f 1520 388 1522
f 1522 386 1552
f 1520 1522 1552
f 353 1553 1531
f 1553 390 1527
f 1527 350 1531
f 1553 1527 1531
f 387 1526 1528
f 1526 390 1554
f 1554 389 1528
f 1526 1554 1528
f 389 1554 1529
f 1554 390 1553
f 1553 353 1529
f 1554 1553 1529
