# Original shape: m874.obj
# No processing applied - exact copy of source file
# Generated on 2025-10-13 16:50:07

v 0.975000 0.347321 0.025000
v 0.975000 0.313393 0.025000
v 0.025000 0.313393 0.025000
v 0.975000 0.347321 0.432143
v 0.975000 0.313393 0.432143
v 0.025000 0.347321 0.432143
v 0.025000 0.313393 0.432143
v 0.025000 0.347321 0.025000
v 0.052143 0.025000 0.364286
v 0.052143 0.025000 0.411786
v 0.092857 0.025000 0.364286
v 0.025000 0.313393 0.364286
v 0.092857 0.025000 0.411786
v 0.092857 0.313393 0.364286
v 0.092857 0.025000 0.045357
v 0.052143 0.025000 0.045357
v 0.092857 0.313393 0.092857
v 0.092857 0.025000 0.092857
v 0.025000 0.313393 0.092857
v 0.052143 0.025000 0.092857
v 0.947857 0.025000 0.092857
v 0.947857 0.025000 0.045357
v 0.907143 0.025000 0.092857
v 0.975000 0.313393 0.092857
v 0.907143 0.025000 0.045357
v 0.907143 0.313393 0.092857
v 0.907143 0.025000 0.411786
v 0.947857 0.025000 0.411786
v 0.907143 0.313393 0.364286
v 0.907143 0.025000 0.364286
v 0.975000 0.313393 0.364286
v 0.947857 0.025000 0.364286
v 0.092857 0.265893 0.411786
v 0.907143 0.265893 0.411786
v 0.907143 0.313393 0.411786
v 0.907143 0.265893 0.364286
v 0.092857 0.265893 0.364286
v 0.092857 0.265893 0.045357
v 0.907143 0.265893 0.045357
v 0.907143 0.265893 0.092857
v 0.092857 0.265893 0.092857
v 0.907143 0.313393 0.045357
v 0.947857 0.313393 0.364286
v 0.947857 0.265893 0.364286
v 0.947857 0.265893 0.092857
v 0.052143 0.265893 0.364286
v 0.052143 0.265893 0.092857
v 0.052143 0.313393 0.364286
v 0.052143 0.355804 0.045357
v 0.947857 0.355804 0.045357
v 0.947857 0.355804 0.411786
v 0.052143 0.355804 0.411786
v 0.069107 0.123393 0.388036
v 0.930893 0.123393 0.388036
v 0.930893 0.143750 0.388036
v 0.930893 0.123393 0.069107
v 0.930893 0.143750 0.069107
v 0.069107 0.123393 0.069107
v 0.069107 0.143750 0.388036
v 0.092857 0.313393 0.432143
v 0.092857 0.313393 0.025000
v 0.907143 0.313393 0.025000
v 0.907143 0.313393 0.432143
v 0.092857 0.313393 0.411786
v 0.092857 0.313393 0.045357
v 0.947857 0.313393 0.092857
v 0.052143 0.313393 0.092857
v 0.069107 0.143750 0.069107
f 1 2 3
f 4 5 2
f 6 7 5
f 8 3 7
f 9 10 7
f 11 9 12
f 13 11 14
f 7 10 13
f 15 16 3
f 17 18 15
f 19 20 18
f 3 16 20
f 21 22 2
f 23 21 24
f 25 23 26
f 2 22 25
f 27 28 5
f 29 30 27
f 31 32 30
f 5 28 32
f 33 34 35
f 29 36 37
f 36 34 33
f 38 39 40
f 41 40 26
f 42 39 38
f 43 44 45
f 26 40 36
f 40 45 44
f 46 47 41
f 37 41 17
f 47 46 48
f 2 5 7
f 49 50 1
f 51 4 1
f 52 6 4
f 6 52 49
f 52 51 50
f 53 54 55
f 54 56 57
f 57 56 58
f 58 53 59
f 59 55 57
f 58 56 54
f 1 3 8
f 4 2 1
f 6 5 4
f 8 7 6
f 9 7 12
f 11 12 14
f 13 14 60
f 7 13 60
f 15 3 61
f 17 15 61
f 19 18 17
f 3 20 19
f 21 2 24
f 23 24 26
f 25 26 62
f 2 25 62
f 27 5 63
f 29 27 63
f 31 30 29
f 5 32 31
f 33 35 64
f 29 37 14
f 36 33 37
f 38 40 41
f 41 26 17
f 42 38 65
f 43 45 66
f 26 36 29
f 40 44 36
f 46 41 37
f 37 17 14
f 47 48 67
f 2 7 3
f 49 1 8
f 51 1 50
f 52 4 51
f 6 49 8
f 52 50 49
f 53 55 59
f 54 57 55
f 57 58 68
f 58 59 68
f 59 57 68
f 58 54 53
