v 0.4993 -0.151167 -0.019735
v 0.15022 0.499729 -0.01952
v -0.500676 0.150649 -0.01863
v -0.151596 -0.500247 -0.018845
v 0.150244 0.499736 0.000317
v -0.500652 0.150655 0.001207
v 0.499324 -0.151161 0.000102
v -0.151572 -0.500241 0.000992
v 0.118762 0.349003 0.022493
v 0.119016 0.34907 0.234294
v 0.102822 0.353957 0.234311
v 0.102568 0.353891 0.02251
v 0.111945 0.326049 0.234309
v 0.095897 0.331015 0.234327
v 0.111691 0.325983 0.022508
v 0.095643 0.330949 0.022526
v -0.087057 -0.328037 0.022951
v -0.086803 -0.32797 0.234752
v -0.102918 -0.323229 0.23477
v -0.103172 -0.323296 0.022969
v -0.093795 -0.351137 0.234768
v -0.109843 -0.346171 0.234786
v -0.094049 -0.351204 0.022967
v -0.110097 -0.346237 0.022984
v -0.093871 -0.350536 0.00163
v 0.118736 0.348997 0.001156
v 0.102542 0.353884 0.001174
v -0.109918 -0.345569 0.001648
v 0.118761 0.349003 0.022032
v 0.102567 0.35389 0.02205
v -0.093846 -0.350529 0.022506
v -0.109893 -0.345563 0.022524
v -0.3434 0.115846 0.02312
v -0.343146 0.115912 0.234921
v -0.348033 0.099719 0.234932
v -0.348287 0.099652 0.023131
v -0.320126 0.108842 0.234895
v -0.324946 0.092873 0.234906
v -0.32038 0.108775 0.023094
v -0.3252 0.092806 0.023105
v 0.333787 -0.089894 0.022372
v 0.334041 -0.089828 0.234173
v 0.329152 -0.106022 0.234184
v 0.328898 -0.106088 0.022383
v 0.35706 -0.096898 0.234148
v 0.352094 -0.112946 0.234159
v 0.356806 -0.096964 0.022347
v 0.35184 -0.113012 0.022358
v 0.356105 -0.096768 0.001011
v -0.343425 0.115839 0.001784
v -0.348313 0.099646 0.001795
v 0.351365 -0.112883 0.001022
v -0.3434 0.115846 0.022659
v -0.348288 0.099652 0.02267
v 0.35613 -0.096761 0.021887
v 0.35139 -0.112877 0.021898
v 0.32476 0.174281 -0.019627
v -0.175228 0.325189 -0.019075
v -0.000688 -0.000259 -0.019182
v 0.173852 -0.325707 -0.01929
v -0.326136 -0.174799 -0.018737
v -0.175204 0.325195 0.000762
v -0.500664 0.150652 -0.008711
v -0.175216 0.325192 -0.009156
v 0.150232 0.499733 -0.009601
v 0.324784 0.174287 0.00021
v 0.324772 0.174284 -0.009709
v 0.499312 -0.151164 -0.009816
v 0.173876 -0.325701 0.000547
v 0.173864 -0.325704 -0.009371
v -0.151584 -0.500244 -0.008926
v -0.326112 -0.174793 0.0011
v -0.326124 -0.174796 -0.008819
v -0.000664 -0.000253 0.000655
v 0.118889 0.349036 0.128393
v 0.110919 0.351513 0.234302
v 0.110792 0.35148 0.128402
v 0.110665 0.351447 0.022501
v 0.102695 0.353924 0.128411
v 0.103921 0.328532 0.234318
v 0.09936 0.342486 0.234319
v 0.107383 0.340003 0.23431
v 0.11548 0.33756 0.234301
v 0.111818 0.326016 0.128409
v 0.115353 0.337526 0.128401
v 0.115226 0.337493 0.0225
v 0.103667 0.328466 0.022517
v 0.107203 0.339976 0.022509
v 0.099106 0.34242 0.022518
v 0.09577 0.330982 0.128426
v 0.099233 0.342453 0.128419
v 0.103794 0.328499 0.128418
v -0.08693 -0.328004 0.128852
v -0.09486 -0.3256 0.234761
v -0.094987 -0.325633 0.128861
v -0.095114 -0.325666 0.02296
v -0.103045 -0.323262 0.12887
v -0.101819 -0.348654 0.234777
v -0.10638 -0.3347 0.234778
v -0.098357 -0.337183 0.234769
v -0.090299 -0.339554 0.23476
v -0.093922 -0.35117 0.128867
v -0.090426 -0.339587 0.128859
v -0.090553 -0.33962 0.022959
v -0.102073 -0.34872 0.022976
v -0.098577 -0.337137 0.022968
v -0.106634 -0.334766 0.022977
v -0.10997 -0.346204 0.128885
v -0.106507 -0.334733 0.128877
v -0.101946 -0.348687 0.128876
v 0.012433 -0.000769 0.001393
v 0.110639 0.35144 0.001165
v 0.004336 0.001674 0.001402
v -0.101895 -0.348052 0.001639
v -0.003688 0.004157 0.001411
v 0.110664 0.351447 0.022041
v 0.102555 0.353887 0.011612
v 0.110652 0.351444 0.011603
v 0.118749 0.349 0.011594
v 0.012458 -0.000763 0.022269
v 0.012445 -0.000766 0.011831
v -0.093858 -0.350532 0.012068
v -0.10187 -0.348046 0.022515
v -0.101882 -0.348049 0.012077
v -0.109906 -0.345566 0.012086
v -0.003663 0.004164 0.022287
v -0.003676 0.004161 0.011849
v 0.004361 0.001681 0.022278
v -0.343273 0.115879 0.12902
v -0.34559 0.107815 0.234926
v -0.345717 0.107782 0.129026
v -0.345844 0.107749 0.023125
v -0.34816 0.099686 0.129031
v -0.322536 0.100857 0.234901
v -0.33649 0.096296 0.234919
v -0.33408 0.10428 0.234913
v -0.331636 0.112377 0.234908
v -0.320253 0.108809 0.128995
v -0.331763 0.112344 0.129008
v -0.33189 0.112311 0.023107
v -0.32279 0.100791 0.0231
v -0.3343 0.104326 0.023112
v -0.336744 0.096229 0.023118
v -0.325073 0.09284 0.129006
v -0.336617 0.096263 0.129018
v -0.322663 0.100824 0.129
v 0.333914 -0.089861 0.128272
v 0.331597 -0.097925 0.234178
v 0.33147 -0.097958 0.128278
v 0.331343 -0.097991 0.022377
v 0.329025 -0.106055 0.128283
v 0.354577 -0.104922 0.234153
v 0.340623 -0.109484 0.234171
v 0.343106 -0.10146 0.234166
v 0.345551 -0.093363 0.23416
v 0.356933 -0.096931 0.128247
v 0.345424 -0.093396 0.12826
v 0.345297 -0.093429 0.022359
v 0.354323 -0.104988 0.022352
v 0.342813 -0.101453 0.022365
v 0.340369 -0.10955 0.02237
v 0.351967 -0.112979 0.128258
v 0.340496 -0.109517 0.128271
v 0.35445 -0.104955 0.128253
v 0.00634 0.009536 0.001397
v -0.345869 0.107742 0.001789
v 0.003896 0.001439 0.001403
v 0.353735 -0.104826 0.001017
v 0.001526 -0.006619 0.001408
v -0.345844 0.107749 0.022665
v -0.3483 0.099649 0.012232
v -0.345857 0.107746 0.012227
v -0.343413 0.115842 0.012222
v 0.006365 0.009542 0.022273
v 0.006353 0.009539 0.011835
v 0.356118 -0.096765 0.011449
v 0.35376 -0.104819 0.021892
v 0.353748 -0.104822 0.011455
v 0.351377 -0.11288 0.01146
v 0.001551 -0.006612 0.022284
v 0.001539 -0.006615 0.011846
v 0.003921 0.001445 0.022279
v 0.41203 0.011557 -0.019681
v 0.162036 0.087011 -0.019405
v 0.249306 -0.075713 -0.019459
v 0.23749 0.337005 -0.019573
v -0.012504 0.412459 -0.019297
v 0.074766 0.249735 -0.019351
v -0.337952 0.237919 -0.018852
v -0.250682 0.075195 -0.018906
v -0.087958 0.162465 -0.019129
v 0.011128 -0.412977 -0.019067
v -0.076142 -0.250253 -0.019014
v -0.238866 -0.337523 -0.018791
v 0.336576 -0.238437 -0.019512
v 0.086582 -0.162983 -0.019236
v -0.413406 -0.012075 -0.018684
v -0.163412 -0.087529 -0.01896
v -0.01248 0.412466 0.00054
v -0.17521 0.325194 -0.004197
v -0.012486 0.412464 -0.004419
v -0.337928 0.237925 0.000985
v -0.500658 0.150654 -0.003752
v -0.337934 0.237924 -0.003975
v -0.50067 0.150651 -0.013671
v -0.337946 0.237921 -0.013893
v -0.33794 0.237922 -0.008934
v 0.150226 0.499731 -0.01456
v -0.012498 0.412461 -0.014338
v 0.150238 0.499734 -0.004642
v -0.012492 0.412462 -0.009379
v -0.175222 0.325191 -0.014116
v 0.412054 0.011563 0.000156
v 0.324778 0.174286 -0.004749
v 0.412048 0.011562 -0.004803
v 0.237514 0.337012 0.000264
v 0.237508 0.33701 -0.004696
v 0.237496 0.337007 -0.014614
v 0.237502 0.337008 -0.009655
v 0.499306 -0.151165 -0.014775
v 0.412036 0.011559 -0.014722
v 0.499318 -0.151162 -0.004857
v 0.412042 0.01156 -0.009762
v 0.324766 0.174283 -0.014668
v 0.011152 -0.412971 0.00077
v 0.17387 -0.325702 -0.004412
v 0.011146 -0.412973 -0.00419
v 0.3366 -0.238431 0.000325
v 0.336594 -0.238432 -0.004634
v 0.336582 -0.238435 -0.014553
v 0.336588 -0.238434 -0.009594
v -0.15159 -0.500246 -0.013886
v 0.011134 -0.412976 -0.014108
v -0.151578 -0.500243 -0.003967
v 0.01114 -0.412974 -0.009149
v 0.173858 -0.325706 -0.014331
v -0.413382 -0.012069 0.001153
v -0.326118 -0.174795 -0.00386
v -0.413388 -0.01207 -0.003806
v -0.238842 -0.337517 0.001046
v -0.238848 -0.337519 -0.003913
v -0.23886 -0.337522 -0.013832
v -0.238854 -0.33752 -0.008873
v -0.4134 -0.012074 -0.013724
v -0.413394 -0.012072 -0.008765
v -0.32613 -0.174798 -0.013778
v 0.086606 -0.162977 0.000601
v 0.24933 -0.075707 0.000379
v -0.076118 -0.250247 0.000823
v -0.250658 0.075201 0.000931
v -0.163388 -0.087523 0.000877
v 0.07479 0.249741 0.000486
v 0.16206 0.087017 0.000432
v -0.087934 0.162471 0.000709
v 0.118825 0.34902 0.075443
v 0.11484 0.350258 0.128397
v 0.114777 0.350242 0.075447
v 0.118952 0.349053 0.181343
v 0.114967 0.350291 0.234298
v 0.114904 0.350275 0.181348
v 0.10687 0.352735 0.234307
v 0.106807 0.352718 0.181357
v 0.110855 0.351497 0.181352
v 0.106616 0.352669 0.022506
v 0.10668 0.352685 0.075456
v 0.102631 0.353907 0.075461
v 0.114713 0.350225 0.022497
v 0.110728 0.351463 0.075452
v 0.102758 0.35394 0.181361
v 0.106743 0.352702 0.128406
v 0.107933 0.327291 0.234314
v 0.105652 0.334268 0.234314
v 0.109664 0.333026 0.23431
v 0.099909 0.329774 0.234322
v 0.097628 0.336751 0.234323
v 0.10164 0.335509 0.234319
v 0.101091 0.348221 0.234315
v 0.105102 0.34698 0.234311
v 0.103371 0.341245 0.234315
v 0.117248 0.343315 0.234297
v 0.113199 0.344536 0.234302
v 0.113712 0.331804 0.234305
v 0.111432 0.338781 0.234306
v 0.109151 0.345758 0.234306
v 0.111754 0.326 0.075458
v 0.113585 0.331771 0.128405
v 0.113522 0.331755 0.075455
v 0.111881 0.326033 0.181359
v 0.113649 0.331788 0.181355
v 0.117184 0.343298 0.181347
v 0.115417 0.337543 0.181351
v 0.116994 0.343248 0.022496
v 0.117057 0.343265 0.075447
v 0.113458 0.331738 0.022504
v 0.11529 0.33751 0.075451
v 0.117121 0.343281 0.128397
v 0.099655 0.329707 0.022521
v 0.105435 0.334221 0.022513
v 0.101423 0.335463 0.022518
v 0.107679 0.327225 0.022513
v 0.109447 0.33298 0.022509
v 0.112982 0.34449 0.022501
v 0.111214 0.338735 0.022505
v 0.100837 0.348155 0.022514
v 0.104885 0.346933 0.02251
v 0.097374 0.336684 0.022522
v 0.103154 0.341198 0.022514
v 0.108934 0.345712 0.022505
v 0.095834 0.330999 0.181377
v 0.097501 0.336717 0.128423
v 0.097565 0.336734 0.181373
v 0.095707 0.330965 0.075476
v 0.097438 0.336701 0.075472
v 0.1009 0.348172 0.075465
v 0.099169 0.342436 0.075468
v 0.101027 0.348205 0.181365
v 0.099296 0.342469 0.181369
v 0.100964 0.348188 0.128415
v 0.103731 0.328483 0.075467
v 0.107742 0.327241 0.075463
v 0.099719 0.329724 0.075472
v 0.099846 0.329757 0.181372
v 0.099782 0.329741 0.128422
v 0.107869 0.327274 0.181363
v 0.107806 0.327258 0.128413
v 0.103858 0.328516 0.181368
v -0.086993 -0.32802 0.075901
v -0.090958 -0.326818 0.128856
v -0.091022 -0.326835 0.075906
v -0.086866 -0.327987 0.181802
v -0.090831 -0.326785 0.234757
v -0.090895 -0.326802 0.181806
v -0.098889 -0.324415 0.234766
v -0.098953 -0.324431 0.181815
v -0.094924 -0.325616 0.181811
v -0.099143 -0.324481 0.022965
v -0.09908 -0.324464 0.075915
v -0.103109 -0.323279 0.075919
v -0.091085 -0.326851 0.022956
v -0.095051 -0.32565 0.07591
v -0.102982 -0.323246 0.18182
v -0.099016 -0.324448 0.128865
v -0.097807 -0.349896 0.234772
v -0.100088 -0.342919 0.234773
v -0.096076 -0.34416 0.234768
v -0.105831 -0.347412 0.234781
v -0.108111 -0.340435 0.234782
v -0.1041 -0.341677 0.234777
v -0.104649 -0.328965 0.234774
v -0.100637 -0.330206 0.234769
v -0.102368 -0.335942 0.234773
v -0.088551 -0.333762 0.234756
v -0.09258 -0.332577 0.234761
v -0.092047 -0.345346 0.234764
v -0.094328 -0.338369 0.234764
v -0.096608 -0.331392 0.234765
v -0.093985 -0.351187 0.075917
v -0.092174 -0.345379 0.128863
v -0.092237 -0.345395 0.075913
v -0.093858 -0.351154 0.181818
v -0.09211 -0.345362 0.181814
v -0.088614 -0.333779 0.181806
v -0.090362 -0.33957 0.18181
v -0.088805 -0.333828 0.022955
v -0.088741 -0.333812 0.075905
v -0.092301 -0.345412 0.022963
v -0.090489 -0.339604 0.075909
v -0.088678 -0.333795 0.128856
v -0.106085 -0.347479 0.02298
v -0.100325 -0.342929 0.022972
v -0.104337 -0.341687 0.022976
v -0.098061 -0.349962 0.022971
v -0.096313 -0.34417 0.022967
v -0.092817 -0.332587 0.022959
v -0.094565 -0.338379 0.022963
v -0.104903 -0.329031 0.022973
v -0.100874 -0.330216 0.022968
v -0.108365 -0.340502 0.022981
v -0.102605 -0.335952 0.022972
v -0.096845 -0.331402 0.022964
v -0.109906 -0.346187 0.181835
v -0.108238 -0.340469 0.128881
v -0.108175 -0.340452 0.181831
v -0.110033 -0.346221 0.075935
v -0.108302 -0.340485 0.075931
v -0.10484 -0.329014 0.075923
v -0.106571 -0.33475 0.075927
v -0.104713 -0.328981 0.181824
v -0.106444 -0.334717 0.181828
v -0.104776 -0.328998 0.128873
v -0.102009 -0.348704 0.075926
v -0.097997 -0.349945 0.075921
v -0.106021 -0.347462 0.07593
v -0.105894 -0.347429 0.181831
v -0.105958 -0.347446 0.128881
v -0.09787 -0.349912 0.181822
v -0.097934 -0.349929 0.128872
v -0.101882 -0.348671 0.181826
v -0.040719 -0.175652 0.001512
v 0.008384 0.000452 0.001398
v -0.044768 -0.174431 0.001516
v 0.065584 0.174114 0.001275
v 0.114688 0.350218 0.001161
v 0.061536 0.175335 0.001279
v 0.106591 0.352662 0.00117
v 0.053439 0.177779 0.001288
v 0.057487 0.176557 0.001284
v -0.105907 -0.346811 0.001644
v -0.052791 -0.171947 0.001525
v -0.056803 -0.170706 0.00153
v -0.097883 -0.349294 0.001635
v -0.048779 -0.173189 0.001521
v 0.049427 0.179021 0.001293
v 0.000324 0.002916 0.001407
v 0.114713 0.350225 0.022037
v 0.110658 0.351445 0.016822
v 0.114706 0.350223 0.016818
v 0.106616 0.352669 0.022046
v 0.102561 0.353889 0.016831
v 0.106609 0.352667 0.016827
v 0.102548 0.353885 0.006393
v 0.106597 0.352664 0.006389
v 0.106603 0.352665 0.011608
v 0.118742 0.348998 0.006375
v 0.114694 0.35022 0.00638
v 0.118755 0.349002 0.016813
v 0.1147 0.350222 0.011599
v 0.110645 0.351442 0.006384
v -0.040694 -0.175646 0.022388
v 0.012451 -0.000765 0.01705
v -0.0407 -0.175648 0.017169
v 0.065609 0.17412 0.022151
v 0.065603 0.174119 0.016932
v 0.065591 0.174115 0.006494
v 0.065597 0.174117 0.011713
v -0.093865 -0.350534 0.006849
v -0.040713 -0.175651 0.006731
v -0.093852 -0.350531 0.017287
v -0.040707 -0.175649 0.01195
v 0.012439 -0.000768 0.006612
v -0.105882 -0.346804 0.022519
v -0.101876 -0.348047 0.017296
v -0.105888 -0.346806 0.0173
v -0.097858 -0.349287 0.02251
v -0.097864 -0.349289 0.017292
v -0.097876 -0.349292 0.006854
v -0.09787 -0.349291 0.012073
v -0.109912 -0.345567 0.006867
v -0.1059 -0.346809 0.006862
v -0.1099 -0.345564 0.017305
v -0.105894 -0.346807 0.012081
v -0.101888 -0.348051 0.006858
v 0.049452 0.179027 0.022169
v -0.003669 0.004162 0.017068
v 0.049446 0.179026 0.01695
v -0.056778 -0.170699 0.022405
v -0.056785 -0.170701 0.017186
v -0.056797 -0.170704 0.006748
v -0.056791 -0.170703 0.011967
v 0.049433 0.179022 0.006512
v 0.049439 0.179024 0.011731
v -0.003682 0.004159 0.00663
v -0.048754 -0.173183 0.022397
v -0.044743 -0.174424 0.022392
v -0.052766 -0.171941 0.022401
v 0.053464 0.177786 0.022164
v 0.000349 0.002922 0.022283
v 0.061561 0.175342 0.022155
v 0.008409 0.000459 0.022274
v 0.057512 0.176564 0.02216
v -0.343336 0.115862 0.07607
v -0.344495 0.111831 0.129023
v -0.344558 0.111814 0.076073
v -0.343209 0.115895 0.18197
v -0.344368 0.111864 0.234923
v -0.344431 0.111847 0.181973
v -0.346811 0.103767 0.234929
v -0.346875 0.10375 0.181979
v -0.345653 0.107799 0.181976
v -0.347065 0.103701 0.023128
v -0.347002 0.103717 0.076078
v -0.348224 0.099669 0.076081
v -0.344622 0.111797 0.023122
v -0.34578 0.107766 0.076075
v -0.348097 0.099702 0.181981
v -0.346938 0.103734 0.129028
v -0.321331 0.104849 0.234898
v -0.328308 0.102569 0.234907
v -0.327103 0.106561 0.234904
v -0.323741 0.096865 0.234903
v -0.330718 0.094584 0.234912
v -0.329513 0.098576 0.23491
v -0.342261 0.098007 0.234925
v -0.341056 0.101999 0.234923
v -0.335285 0.100288 0.234916
v -0.337391 0.114144 0.234914
v -0.338613 0.110096 0.234917
v -0.325881 0.110609 0.234902
v -0.332858 0.108329 0.234911
v -0.339835 0.106048 0.23492
v -0.320316 0.108792 0.076045
v -0.326008 0.110576 0.129001
v -0.326071 0.11056 0.076051
v -0.320189 0.108825 0.181945
v -0.325944 0.110593 0.181951
v -0.337454 0.114128 0.181964
v -0.331699 0.11236 0.181958
v -0.337645 0.114078 0.023113
v -0.337581 0.114095 0.076064
v -0.326135 0.110543 0.023101
v -0.331826 0.112327 0.076057
v -0.337518 0.114111 0.129014
v -0.323995 0.096799 0.023102
v -0.328545 0.102559 0.023106
v -0.32975 0.098566 0.023109
v -0.321585 0.104783 0.023097
v -0.32734 0.106551 0.023103
v -0.33885 0.110086 0.023116
v -0.333095 0.108318 0.02311
v -0.342515 0.097941 0.023124
v -0.341294 0.101989 0.023122
v -0.330972 0.094518 0.023111
v -0.335522 0.100278 0.023115
v -0.340072 0.106038 0.023119
v -0.325009 0.092856 0.181956
v -0.330845 0.094551 0.129012
v -0.330781 0.094568 0.181962
v -0.325136 0.092823 0.076055
v -0.330908 0.094534 0.076062
v -0.342452 0.097957 0.076075
v -0.33668 0.096246 0.076068
v -0.342325 0.097991 0.181975
v -0.336553 0.096279 0.181969
v -0.342388 0.097974 0.129025
v -0.322726 0.100808 0.07605
v -0.321521 0.1048 0.076047
v -0.323931 0.096815 0.076053
v -0.323804 0.096848 0.181953
v -0.323868 0.096832 0.129003
v -0.321394 0.104833 0.181948
v -0.321458 0.104816 0.128998
v -0.322599 0.100841 0.18195
v 0.33385 -0.089878 0.075322
v 0.332692 -0.09391 0.128275
v 0.332628 -0.093926 0.075325
v 0.333977 -0.089845 0.181223
v 0.332819 -0.093876 0.234176
v 0.332755 -0.093893 0.181225
v 0.330374 -0.101973 0.234181
v 0.330311 -0.10199 0.181231
v 0.331533 -0.097941 0.181228
v 0.33012 -0.102039 0.02238
v 0.330184 -0.102023 0.07533
v 0.328962 -0.106071 0.075333
v 0.332565 -0.093943 0.022375
v 0.331406 -0.097975 0.075328
v 0.329089 -0.106038 0.181234
v 0.330247 -0.102006 0.128281
v 0.355819 -0.10091 0.23415
v 0.348842 -0.103191 0.234159
v 0.350083 -0.099179 0.234157
v 0.353336 -0.108934 0.234156
v 0.346359 -0.111215 0.234165
v 0.3476 -0.107203 0.234162
v 0.334888 -0.107753 0.234178
v 0.336129 -0.103741 0.234175
v 0.341865 -0.105472 0.234168
v 0.339796 -0.091596 0.234167
v 0.338574 -0.095644 0.234169
v 0.351305 -0.095131 0.234154
v 0.344328 -0.097412 0.234163
v 0.337351 -0.099692 0.234172
v 0.35687 -0.096948 0.075297
v 0.351178 -0.095164 0.128253
v 0.351115 -0.09518 0.075303
v 0.356997 -0.096915 0.181197
v 0.351242 -0.095147 0.181204
v 0.339732 -0.091612 0.181216
v 0.345487 -0.09338 0.18121
v 0.339542 -0.091662 0.022366
v 0.339605 -0.091645 0.075316
v 0.351051 -0.095197 0.022353
v 0.34536 -0.093413 0.07531
v 0.339669 -0.091629 0.128266
v 0.353082 -0.109 0.022355
v 0.348568 -0.103221 0.022358
v 0.347327 -0.107233 0.022361
v 0.355565 -0.100976 0.022349
v 0.34981 -0.099209 0.022356
v 0.3383 -0.095674 0.022368
v 0.344055 -0.097441 0.022362
v 0.334634 -0.107819 0.022377
v 0.335856 -0.103771 0.022374
v 0.346105 -0.111281 0.022364
v 0.341591 -0.105502 0.022367
v 0.337078 -0.099722 0.022371
v 0.35203 -0.112963 0.181208
v 0.346232 -0.111248 0.128264
v 0.346295 -0.111231 0.181215
v 0.351903 -0.112996 0.075308
v 0.346168 -0.111265 0.075314
v 0.334697 -0.107802 0.075327
v 0.340433 -0.109534 0.07532
v 0.334824 -0.107769 0.181227
v 0.34056 -0.1095 0.181221
v 0.334761 -0.107786 0.128277
v 0.354387 -0.104972 0.075302
v 0.355628 -0.10096 0.0753
v 0.353145 -0.108984 0.075305
v 0.353272 -0.108951 0.181206
v 0.353209 -0.108967 0.128255
v 0.355755 -0.100927 0.1812
v 0.355692 -0.100943 0.12825
v 0.354514 -0.104939 0.181203
v 0.181223 -0.043616 0.001204
v 0.005118 0.005487 0.0014
v 0.180001 -0.047664 0.001207
v -0.168543 0.062687 0.001591
v -0.344647 0.111791 0.001786
v -0.169765 0.058639 0.001593
v -0.347091 0.103694 0.001792
v -0.172208 0.050542 0.001599
v -0.170986 0.054591 0.001596
v 0.35255 -0.108854 0.001019
v 0.177631 -0.055722 0.001212
v 0.176445 -0.059751 0.001215
v 0.35492 -0.100797 0.001014
v 0.178816 -0.051693 0.00121
v -0.173393 0.046513 0.001601
v 0.002711 -0.00259 0.001406
v -0.344622 0.111797 0.022662
v -0.34585 0.107747 0.017446
v -0.344628 0.111796 0.017443
v -0.347066 0.103701 0.022668
v -0.348294 0.099651 0.017451
v -0.347072 0.103699 0.017449
v -0.348307 0.099647 0.007014
v -0.347085 0.103696 0.007011
v -0.347078 0.103697 0.01223
v -0.343419 0.115841 0.007003
v -0.344641 0.111792 0.007005
v -0.343407 0.115844 0.01744
v -0.344635 0.111794 0.012224
v -0.345863 0.107744 0.007008
v 0.181248 -0.04361 0.02208
v 0.006359 0.00954 0.017054
v 0.181242 -0.043611 0.016861
v -0.168518 0.062694 0.022466
v -0.168524 0.062692 0.017247
v -0.168536 0.062689 0.006809
v -0.16853 0.062691 0.012028
v 0.356112 -0.096766 0.00623
v 0.181229 -0.043615 0.006423
v 0.356124 -0.096763 0.016668
v 0.181235 -0.043613 0.011642
v 0.006346 0.009537 0.006616
v 0.352575 -0.108848 0.021895
v 0.353754 -0.104821 0.016673
v 0.352569 -0.108849 0.016676
v 0.354945 -0.10079 0.02189
v 0.354939 -0.100792 0.016671
v 0.354927 -0.100795 0.006233
v 0.354933 -0.100793 0.011452
v 0.351371 -0.112882 0.006241
v 0.352556 -0.108853 0.006238
v 0.351384 -0.112878 0.016679
v 0.352563 -0.108851 0.011457
v 0.353741 -0.104824 0.006236
v -0.173368 0.04652 0.022477
v 0.001545 -0.006614 0.017065
v -0.173375 0.046518 0.017258
v 0.176471 -0.059744 0.022091
v 0.176464 -0.059746 0.016872
v 0.176452 -0.059749 0.006434
v 0.176458 -0.059748 0.011653
v -0.173387 0.046515 0.00682
v -0.173381 0.046517 0.012039
v 0.001532 -0.006617 0.006627
v 0.178841 -0.051687 0.022086
v 0.180026 -0.047658 0.022083
v 0.177656 -0.055716 0.022088
v -0.172183 0.050549 0.022475
v 0.002736 -0.002583 0.022281
v -0.169739 0.058646 0.022469
v 0.005143 0.005494 0.022276
v -0.170961 0.054597 0.022472
f 1 183 185
f 183 57 184
f 184 59 185
f 183 184 185
f 57 186 188
f 186 2 187
f 187 58 188
f 186 187 188
f 58 189 191
f 189 3 190
f 190 59 191
f 189 190 191
f 57 188 184
f 188 58 191
f 191 59 184
f 188 191 184
f 4 192 194
f 192 60 193
f 193 61 194
f 192 193 194
f 60 195 196
f 195 1 185
f 185 59 196
f 195 185 196
f 59 190 198
f 190 3 197
f 197 61 198
f 190 197 198
f 60 196 193
f 196 59 198
f 198 61 193
f 196 198 193
f 5 199 201
f 199 62 200
f 200 64 201
f 199 200 201
f 62 202 204
f 202 6 203
f 203 63 204
f 202 203 204
f 63 205 207
f 205 3 206
f 206 64 207
f 205 206 207
f 62 204 200
f 204 63 207
f 207 64 200
f 204 207 200
f 2 208 187
f 208 65 209
f 209 58 187
f 208 209 187
f 65 210 211
f 210 5 201
f 201 64 211
f 210 201 211
f 64 206 212
f 206 3 189
f 189 58 212
f 206 189 212
f 65 211 209
f 211 64 212
f 212 58 209
f 211 212 209
f 7 213 215
f 213 66 214
f 214 67 215
f 213 214 215
f 66 216 217
f 216 5 210
f 210 65 217
f 216 210 217
f 65 208 219
f 208 2 218
f 218 67 219
f 208 218 219
f 66 217 214
f 217 65 219
f 219 67 214
f 217 219 214
f 1 220 183
f 220 68 221
f 221 57 183
f 220 221 183
f 68 222 223
f 222 7 215
f 215 67 223
f 222 215 223
f 67 218 224
f 218 2 186
f 186 57 224
f 218 186 224
f 68 223 221
f 223 67 224
f 224 57 221
f 223 224 221
f 8 225 227
f 225 69 226
f 226 70 227
f 225 226 227
f 69 228 229
f 228 7 222
f 222 68 229
f 228 222 229
f 68 220 231
f 220 1 230
f 230 70 231
f 220 230 231
f 69 229 226
f 229 68 231
f 231 70 226
f 229 231 226
f 4 232 192
f 232 71 233
f 233 60 192
f 232 233 192
f 71 234 235
f 234 8 227
f 227 70 235
f 234 227 235
f 70 230 236
f 230 1 195
f 195 60 236
f 230 195 236
f 71 235 233
f 235 70 236
f 236 60 233
f 235 236 233
f 6 237 239
f 237 72 238
f 238 73 239
f 237 238 239
f 72 240 241
f 240 8 234
f 234 71 241
f 240 234 241
f 71 232 243
f 232 4 242
f 242 73 243
f 232 242 243
f 72 241 238
f 241 71 243
f 243 73 238
f 241 243 238
f 3 205 197
f 205 63 244
f 244 61 197
f 205 244 197
f 63 203 245
f 203 6 239
f 239 73 245
f 203 239 245
f 73 242 246
f 242 4 194
f 194 61 246
f 242 194 246
f 63 245 244
f 245 73 246
f 246 61 244
f 245 246 244
f 7 228 248
f 228 69 247
f 247 74 248
f 228 247 248
f 69 225 249
f 225 8 240
f 240 72 249
f 225 240 249
f 72 237 251
f 237 6 250
f 250 74 251
f 237 250 251
f 69 249 247
f 249 72 251
f 251 74 247
f 249 251 247
f 5 216 199
f 216 66 252
f 252 62 199
f 216 252 199
f 66 213 253
f 213 7 248
f 248 74 253
f 213 248 253
f 74 250 254
f 250 6 202
f 202 62 254
f 250 202 254
f 66 253 252
f 253 74 254
f 254 62 252
f 253 254 252
f 9 255 257
f 255 75 256
f 256 77 257
f 255 256 257
f 75 258 260
f 258 10 259
f 259 76 260
f 258 259 260
f 76 261 263
f 261 11 262
f 262 77 263
f 261 262 263
f 75 260 256
f 260 76 263
f 263 77 256
f 260 263 256
f 12 264 266
f 264 78 265
f 265 79 266
f 264 265 266
f 78 267 268
f 267 9 257
f 257 77 268
f 267 257 268
f 77 262 270
f 262 11 269
f 269 79 270
f 262 269 270
f 78 268 265
f 268 77 270
f 270 79 265
f 268 270 265
f 13 271 273
f 271 80 272
f 272 82 273
f 271 272 273
f 80 274 276
f 274 14 275
f 275 81 276
f 274 275 276
f 81 277 279
f 277 11 278
f 278 82 279
f 277 278 279
f 80 276 272
f 276 81 279
f 279 82 272
f 276 279 272
f 10 280 259
f 280 83 281
f 281 76 259
f 280 281 259
f 83 282 283
f 282 13 273
f 273 82 283
f 282 273 283
f 82 278 284
f 278 11 261
f 261 76 284
f 278 261 284
f 83 283 281
f 283 82 284
f 284 76 281
f 283 284 281
f 15 285 287
f 285 84 286
f 286 85 287
f 285 286 287
f 84 288 289
f 288 13 282
f 282 83 289
f 288 282 289
f 83 280 291
f 280 10 290
f 290 85 291
f 280 290 291
f 84 289 286
f 289 83 291
f 291 85 286
f 289 291 286
f 9 292 255
f 292 86 293
f 293 75 255
f 292 293 255
f 86 294 295
f 294 15 287
f 287 85 295
f 294 287 295
f 85 290 296
f 290 10 258
f 258 75 296
f 290 258 296
f 86 295 293
f 295 85 296
f 296 75 293
f 295 296 293
f 16 297 299
f 297 87 298
f 298 88 299
f 297 298 299
f 87 300 301
f 300 15 294
f 294 86 301
f 300 294 301
f 86 292 303
f 292 9 302
f 302 88 303
f 292 302 303
f 87 301 298
f 301 86 303
f 303 88 298
f 301 303 298
f 12 304 264
f 304 89 305
f 305 78 264
f 304 305 264
f 89 306 307
f 306 16 299
f 299 88 307
f 306 299 307
f 88 302 308
f 302 9 267
f 267 78 308
f 302 267 308
f 89 307 305
f 307 88 308
f 308 78 305
f 307 308 305
f 14 309 311
f 309 90 310
f 310 91 311
f 309 310 311
f 90 312 313
f 312 16 306
f 306 89 313
f 312 306 313
f 89 304 315
f 304 12 314
f 314 91 315
f 304 314 315
f 90 313 310
f 313 89 315
f 315 91 310
f 313 315 310
f 11 277 269
f 277 81 316
f 316 79 269
f 277 316 269
f 81 275 317
f 275 14 311
f 311 91 317
f 275 311 317
f 91 314 318
f 314 12 266
f 266 79 318
f 314 266 318
f 81 317 316
f 317 91 318
f 318 79 316
f 317 318 316
f 15 300 320
f 300 87 319
f 319 92 320
f 300 319 320
f 87 297 321
f 297 16 312
f 312 90 321
f 297 312 321
f 90 309 323
f 309 14 322
f 322 92 323
f 309 322 323
f 87 321 319
f 321 90 323
f 323 92 319
f 321 323 319
f 13 288 271
f 288 84 324
f 324 80 271
f 288 324 271
f 84 285 325
f 285 15 320
f 320 92 325
f 285 320 325
f 92 322 326
f 322 14 274
f 274 80 326
f 322 274 326
f 84 325 324
f 325 92 326
f 326 80 324
f 325 326 324
f 17 327 329
f 327 93 328
f 328 95 329
f 327 328 329
f 93 330 332
f 330 18 331
f 331 94 332
f 330 331 332
f 94 333 335
f 333 19 334
f 334 95 335
f 333 334 335
f 93 332 328
f 332 94 335
f 335 95 328
f 332 335 328
f 20 336 338
f 336 96 337
f 337 97 338
f 336 337 338
f 96 339 340
f 339 17 329
f 329 95 340
f 339 329 340
f 95 334 342
f 334 19 341
f 341 97 342
f 334 341 342
f 96 340 337
f 340 95 342
f 342 97 337
f 340 342 337
f 21 343 345
f 343 98 344
f 344 100 345
f 343 344 345
f 98 346 348
f 346 22 347
f 347 99 348
f 346 347 348
f 99 349 351
f 349 19 350
f 350 100 351
f 349 350 351
f 98 348 344
f 348 99 351
f 351 100 344
f 348 351 344
f 18 352 331
f 352 101 353
f 353 94 331
f 352 353 331
f 101 354 355
f 354 21 345
f 345 100 355
f 354 345 355
f 100 350 356
f 350 19 333
f 333 94 356
f 350 333 356
f 101 355 353
f 355 100 356
f 356 94 353
f 355 356 353
f 23 357 359
f 357 102 358
f 358 103 359
f 357 358 359
f 102 360 361
f 360 21 354
f 354 101 361
f 360 354 361
f 101 352 363
f 352 18 362
f 362 103 363
f 352 362 363
f 102 361 358
f 361 101 363
f 363 103 358
f 361 363 358
f 17 364 327
f 364 104 365
f 365 93 327
f 364 365 327
f 104 366 367
f 366 23 359
f 359 103 367
f 366 359 367
f 103 362 368
f 362 18 330
f 330 93 368
f 362 330 368
f 104 367 365
f 367 103 368
f 368 93 365
f 367 368 365
f 24 369 371
f 369 105 370
f 370 106 371
f 369 370 371
f 105 372 373
f 372 23 366
f 366 104 373
f 372 366 373
f 104 364 375
f 364 17 374
f 374 106 375
f 364 374 375
f 105 373 370
f 373 104 375
f 375 106 370
f 373 375 370
f 20 376 336
f 376 107 377
f 377 96 336
f 376 377 336
f 107 378 379
f 378 24 371
f 371 106 379
f 378 371 379
f 106 374 380
f 374 17 339
f 339 96 380
f 374 339 380
f 107 379 377
f 379 106 380
f 380 96 377
f 379 380 377
f 22 381 383
f 381 108 382
f 382 109 383
f 381 382 383
f 108 384 385
f 384 24 378
f 378 107 385
f 384 378 385
f 107 376 387
f 376 20 386
f 386 109 387
f 376 386 387
f 108 385 382
f 385 107 387
f 387 109 382
f 385 387 382
f 19 349 341
f 349 99 388
f 388 97 341
f 349 388 341
f 99 347 389
f 347 22 383
f 383 109 389
f 347 383 389
f 109 386 390
f 386 20 338
f 338 97 390
f 386 338 390
f 99 389 388
f 389 109 390
f 390 97 388
f 389 390 388
f 23 372 392
f 372 105 391
f 391 110 392
f 372 391 392
f 105 369 393
f 369 24 384
f 384 108 393
f 369 384 393
f 108 381 395
f 381 22 394
f 394 110 395
f 381 394 395
f 105 393 391
f 393 108 395
f 395 110 391
f 393 395 391
f 21 360 343
f 360 102 396
f 396 98 343
f 360 396 343
f 102 357 397
f 357 23 392
f 392 110 397
f 357 392 397
f 110 394 398
f 394 22 346
f 346 98 398
f 394 346 398
f 102 397 396
f 397 110 398
f 398 98 396
f 397 398 396
f 25 399 401
f 399 111 400
f 400 113 401
f 399 400 401
f 111 402 404
f 402 26 403
f 403 112 404
f 402 403 404
f 112 405 407
f 405 27 406
f 406 113 407
f 405 406 407
f 111 404 400
f 404 112 407
f 407 113 400
f 404 407 400
f 28 408 410
f 408 114 409
f 409 115 410
f 408 409 410
f 114 411 412
f 411 25 401
f 401 113 412
f 411 401 412
f 113 406 414
f 406 27 413
f 413 115 414
f 406 413 414
f 114 412 409
f 412 113 414
f 414 115 409
f 412 414 409
f 29 415 417
f 415 116 416
f 416 118 417
f 415 416 417
f 116 418 420
f 418 30 419
f 419 117 420
f 418 419 420
f 117 421 423
f 421 27 422
f 422 118 423
f 421 422 423
f 116 420 416
f 420 117 423
f 423 118 416
f 420 423 416
f 26 424 403
f 424 119 425
f 425 112 403
f 424 425 403
f 119 426 427
f 426 29 417
f 417 118 427
f 426 417 427
f 118 422 428
f 422 27 405
f 405 112 428
f 422 405 428
f 119 427 425
f 427 118 428
f 428 112 425
f 427 428 425
f 31 429 431
f 429 120 430
f 430 121 431
f 429 430 431
f 120 432 433
f 432 29 426
f 426 119 433
f 432 426 433
f 119 424 435
f 424 26 434
f 434 121 435
f 424 434 435
f 120 433 430
f 433 119 435
f 435 121 430
f 433 435 430
f 25 436 399
f 436 122 437
f 437 111 399
f 436 437 399
f 122 438 439
f 438 31 431
f 431 121 439
f 438 431 439
f 121 434 440
f 434 26 402
f 402 111 440
f 434 402 440
f 122 439 437
f 439 121 440
f 440 111 437
f 439 440 437
f 32 441 443
f 441 123 442
f 442 124 443
f 441 442 443
f 123 444 445
f 444 31 438
f 438 122 445
f 444 438 445
f 122 436 447
f 436 25 446
f 446 124 447
f 436 446 447
f 123 445 442
f 445 122 447
f 447 124 442
f 445 447 442
f 28 448 408
f 448 125 449
f 449 114 408
f 448 449 408
f 125 450 451
f 450 32 443
f 443 124 451
f 450 443 451
f 124 446 452
f 446 25 411
f 411 114 452
f 446 411 452
f 125 451 449
f 451 124 452
f 452 114 449
f 451 452 449
f 30 453 455
f 453 126 454
f 454 127 455
f 453 454 455
f 126 456 457
f 456 32 450
f 450 125 457
f 456 450 457
f 125 448 459
f 448 28 458
f 458 127 459
f 448 458 459
f 126 457 454
f 457 125 459
f 459 127 454
f 457 459 454
f 27 421 413
f 421 117 460
f 460 115 413
f 421 460 413
f 117 419 461
f 419 30 455
f 455 127 461
f 419 455 461
f 127 458 462
f 458 28 410
f 410 115 462
f 458 410 462
f 117 461 460
f 461 127 462
f 462 115 460
f 461 462 460
f 31 444 464
f 444 123 463
f 463 128 464
f 444 463 464
f 123 441 465
f 441 32 456
f 456 126 465
f 441 456 465
f 126 453 467
f 453 30 466
f 466 128 467
f 453 466 467
f 123 465 463
f 465 126 467
f 467 128 463
f 465 467 463
f 29 432 415
f 432 120 468
f 468 116 415
f 432 468 415
f 120 429 469
f 429 31 464
f 464 128 469
f 429 464 469
f 128 466 470
f 466 30 418
f 418 116 470
f 466 418 470
f 120 469 468
f 469 128 470
f 470 116 468
f 469 470 468
f 33 471 473
f 471 129 472
f 472 131 473
f 471 472 473
f 129 474 476
f 474 34 475
f 475 130 476
f 474 475 476
f 130 477 479
f 477 35 478
f 478 131 479
f 477 478 479
f 129 476 472
f 476 130 479
f 479 131 472
f 476 479 472
f 36 480 482
f 480 132 481
f 481 133 482
f 480 481 482
f 132 483 484
f 483 33 473
f 473 131 484
f 483 473 484
f 131 478 486
f 478 35 485
f 485 133 486
f 478 485 486
f 132 484 481
f 484 131 486
f 486 133 481
f 484 486 481
f 37 487 489
f 487 134 488
f 488 136 489
f 487 488 489
f 134 490 492
f 490 38 491
f 491 135 492
f 490 491 492
f 135 493 495
f 493 35 494
f 494 136 495
f 493 494 495
f 134 492 488
f 492 135 495
f 495 136 488
f 492 495 488
f 34 496 475
f 496 137 497
f 497 130 475
f 496 497 475
f 137 498 499
f 498 37 489
f 489 136 499
f 498 489 499
f 136 494 500
f 494 35 477
f 477 130 500
f 494 477 500
f 137 499 497
f 499 136 500
f 500 130 497
f 499 500 497
f 39 501 503
f 501 138 502
f 502 139 503
f 501 502 503
f 138 504 505
f 504 37 498
f 498 137 505
f 504 498 505
f 137 496 507
f 496 34 506
f 506 139 507
f 496 506 507
f 138 505 502
f 505 137 507
f 507 139 502
f 505 507 502
f 33 508 471
f 508 140 509
f 509 129 471
f 508 509 471
f 140 510 511
f 510 39 503
f 503 139 511
f 510 503 511
f 139 506 512
f 506 34 474
f 474 129 512
f 506 474 512
f 140 511 509
f 511 139 512
f 512 129 509
f 511 512 509
f 40 513 515
f 513 141 514
f 514 142 515
f 513 514 515
f 141 516 517
f 516 39 510
f 510 140 517
f 516 510 517
f 140 508 519
f 508 33 518
f 518 142 519
f 508 518 519
f 141 517 514
f 517 140 519
f 519 142 514
f 517 519 514
f 36 520 480
f 520 143 521
f 521 132 480
f 520 521 480
f 143 522 523
f 522 40 515
f 515 142 523
f 522 515 523
f 142 518 524
f 518 33 483
f 483 132 524
f 518 483 524
f 143 523 521
f 523 142 524
f 524 132 521
f 523 524 521
f 38 525 527
f 525 144 526
f 526 145 527
f 525 526 527
f 144 528 529
f 528 40 522
f 522 143 529
f 528 522 529
f 143 520 531
f 520 36 530
f 530 145 531
f 520 530 531
f 144 529 526
f 529 143 531
f 531 145 526
f 529 531 526
f 35 493 485
f 493 135 532
f 532 133 485
f 493 532 485
f 135 491 533
f 491 38 527
f 527 145 533
f 491 527 533
f 145 530 534
f 530 36 482
f 482 133 534
f 530 482 534
f 135 533 532
f 533 145 534
f 534 133 532
f 533 534 532
f 39 516 536
f 516 141 535
f 535 146 536
f 516 535 536
f 141 513 537
f 513 40 528
f 528 144 537
f 513 528 537
f 144 525 539
f 525 38 538
f 538 146 539
f 525 538 539
f 141 537 535
f 537 144 539
f 539 146 535
f 537 539 535
f 37 504 487
f 504 138 540
f 540 134 487
f 504 540 487
f 138 501 541
f 501 39 536
f 536 146 541
f 501 536 541
f 146 538 542
f 538 38 490
f 490 134 542
f 538 490 542
f 138 541 540
f 541 146 542
f 542 134 540
f 541 542 540
f 41 543 545
f 543 147 544
f 544 149 545
f 543 544 545
f 147 546 548
f 546 42 547
f 547 148 548
f 546 547 548
f 148 549 551
f 549 43 550
f 550 149 551
f 549 550 551
f 147 548 544
f 548 148 551
f 551 149 544
f 548 551 544
f 44 552 554
f 552 150 553
f 553 151 554
f 552 553 554
f 150 555 556
f 555 41 545
f 545 149 556
f 555 545 556
f 149 550 558
f 550 43 557
f 557 151 558
f 550 557 558
f 150 556 553
f 556 149 558
f 558 151 553
f 556 558 553
f 45 559 561
f 559 152 560
f 560 154 561
f 559 560 561
f 152 562 564
f 562 46 563
f 563 153 564
f 562 563 564
f 153 565 567
f 565 43 566
f 566 154 567
f 565 566 567
f 152 564 560
f 564 153 567
f 567 154 560
f 564 567 560
f 42 568 547
f 568 155 569
f 569 148 547
f 568 569 547
f 155 570 571
f 570 45 561
f 561 154 571
f 570 561 571
f 154 566 572
f 566 43 549
f 549 148 572
f 566 549 572
f 155 571 569
f 571 154 572
f 572 148 569
f 571 572 569
f 47 573 575
f 573 156 574
f 574 157 575
f 573 574 575
f 156 576 577
f 576 45 570
f 570 155 577
f 576 570 577
f 155 568 579
f 568 42 578
f 578 157 579
f 568 578 579
f 156 577 574
f 577 155 579
f 579 157 574
f 577 579 574
f 41 580 543
f 580 158 581
f 581 147 543
f 580 581 543
f 158 582 583
f 582 47 575
f 575 157 583
f 582 575 583
f 157 578 584
f 578 42 546
f 546 147 584
f 578 546 584
f 158 583 581
f 583 157 584
f 584 147 581
f 583 584 581
f 48 585 587
f 585 159 586
f 586 160 587
f 585 586 587
f 159 588 589
f 588 47 582
f 582 158 589
f 588 582 589
f 158 580 591
f 580 41 590
f 590 160 591
f 580 590 591
f 159 589 586
f 589 158 591
f 591 160 586
f 589 591 586
f 44 592 552
f 592 161 593
f 593 150 552
f 592 593 552
f 161 594 595
f 594 48 587
f 587 160 595
f 594 587 595
f 160 590 596
f 590 41 555
f 555 150 596
f 590 555 596
f 161 595 593
f 595 160 596
f 596 150 593
f 595 596 593
f 46 597 599
f 597 162 598
f 598 163 599
f 597 598 599
f 162 600 601
f 600 48 594
f 594 161 601
f 600 594 601
f 161 592 603
f 592 44 602
f 602 163 603
f 592 602 603
f 162 601 598
f 601 161 603
f 603 163 598
f 601 603 598
f 43 565 557
f 565 153 604
f 604 151 557
f 565 604 557
f 153 563 605
f 563 46 599
f 599 163 605
f 563 599 605
f 163 602 606
f 602 44 554
f 554 151 606
f 602 554 606
f 153 605 604
f 605 163 606
f 606 151 604
f 605 606 604
f 47 588 608
f 588 159 607
f 607 164 608
f 588 607 608
f 159 585 609
f 585 48 600
f 600 162 609
f 585 600 609
f 162 597 611
f 597 46 610
f 610 164 611
f 597 610 611
f 159 609 607
f 609 162 611
f 611 164 607
f 609 611 607
f 45 576 559
f 576 156 612
f 612 152 559
f 576 612 559
f 156 573 613
f 573 47 608
f 608 164 613
f 573 608 613
f 164 610 614
f 610 46 562
f 562 152 614
f 610 562 614
f 156 613 612
f 613 164 614
f 614 152 612
f 613 614 612
f 49 615 617
f 615 165 616
f 616 167 617
f 615 616 617
f 165 618 620
f 618 50 619
f 619 166 620
f 618 619 620
f 166 621 623
f 621 51 622
f 622 167 623
f 621 622 623
f 165 620 616
f 620 166 623
f 623 167 616
f 620 623 616
f 52 624 626
f 624 168 625
f 625 169 626
f 624 625 626
f 168 627 628
f 627 49 617
f 617 167 628
f 627 617 628
f 167 622 630
f 622 51 629
f 629 169 630
f 622 629 630
f 168 628 625
f 628 167 630
f 630 169 625
f 628 630 625
f 53 631 633
f 631 170 632
f 632 172 633
f 631 632 633
f 170 634 636
f 634 54 635
f 635 171 636
f 634 635 636
f 171 637 639
f 637 51 638
f 638 172 639
f 637 638 639
f 170 636 632
f 636 171 639
f 639 172 632
f 636 639 632
f 50 640 619
f 640 173 641
f 641 166 619
f 640 641 619
f 173 642 643
f 642 53 633
f 633 172 643
f 642 633 643
f 172 638 644
f 638 51 621
f 621 166 644
f 638 621 644
f 173 643 641
f 643 172 644
f 644 166 641
f 643 644 641
f 55 645 647
f 645 174 646
f 646 175 647
f 645 646 647
f 174 648 649
f 648 53 642
f 642 173 649
f 648 642 649
f 173 640 651
f 640 50 650
f 650 175 651
f 640 650 651
f 174 649 646
f 649 173 651
f 651 175 646
f 649 651 646
f 49 652 615
f 652 176 653
f 653 165 615
f 652 653 615
f 176 654 655
f 654 55 647
f 647 175 655
f 654 647 655
f 175 650 656
f 650 50 618
f 618 165 656
f 650 618 656
f 176 655 653
f 655 175 656
f 656 165 653
f 655 656 653
f 56 657 659
f 657 177 658
f 658 178 659
f 657 658 659
f 177 660 661
f 660 55 654
f 654 176 661
f 660 654 661
f 176 652 663
f 652 49 662
f 662 178 663
f 652 662 663
f 177 661 658
f 661 176 663
f 663 178 658
f 661 663 658
f 52 664 624
f 664 179 665
f 665 168 624
f 664 665 624
f 179 666 667
f 666 56 659
f 659 178 667
f 666 659 667
f 178 662 668
f 662 49 627
f 627 168 668
f 662 627 668
f 179 667 665
f 667 178 668
f 668 168 665
f 667 668 665
f 54 669 671
f 669 180 670
f 670 181 671
f 669 670 671
f 180 672 673
f 672 56 666
f 666 179 673
f 672 666 673
f 179 664 675
f 664 52 674
f 674 181 675
f 664 674 675
f 180 673 670
f 673 179 675
f 675 181 670
f 673 675 670
f 51 637 629
f 637 171 676
f 676 169 629
f 637 676 629
f 171 635 677
f 635 54 671
f 671 181 677
f 635 671 677
f 181 674 678
f 674 52 626
f 626 169 678
f 674 626 678
f 171 677 676
f 677 181 678
f 678 169 676
f 677 678 676
f 55 660 680
f 660 177 679
f 679 182 680
f 660 679 680
f 177 657 681
f 657 56 672
f 672 180 681
f 657 672 681
f 180 669 683
f 669 54 682
f 682 182 683
f 669 682 683
f 177 681 679
f 681 180 683
f 683 182 679
f 681 683 679
f 53 648 631
f 648 174 684
f 684 170 631
f 648 684 631
f 174 645 685
f 645 55 680
f 680 182 685
f 645 680 685
f 182 682 686
f 682 54 634
f 634 170 686
f 682 634 686
f 174 685 684
f 685 182 686
f 686 170 684
f 685 686 684
