# Unified Preprocessed OBJ file from D00127.obj
# Applied remeshing: Yes
# Applied 4-step normalization: centering, PCA alignment, flipping, scaling
# Generated on 2025-09-29 15:07:22

v 0.493686 -0.115229 0.077927
v -0.504163 -0.114814 0.006714
v -0.504050 -0.106861 0.078577
v 0.493572 -0.123181 0.006064
v -0.501899 0.151838 0.049946
v -0.501967 0.147067 0.006828
v 0.495769 0.138699 0.006178
v 0.495837 0.143471 0.049296
v -0.358099 0.058595 0.006695
v -0.357734 0.102173 0.006715
v -0.401114 0.102537 0.006744
v -0.401479 0.058959 0.006723
v -0.438728 -0.071782 0.006690
v -0.498423 -0.076087 -0.004051
v -0.503798 -0.071236 0.006732
v -0.444197 -0.076542 -0.004086
v -0.498728 -0.112437 -0.004067
v -0.439094 -0.115359 0.006671
v -0.444502 -0.112891 -0.004103
v -0.285800 0.057989 0.006648
v -0.325611 0.053514 -0.004108
v -0.329180 0.058352 0.006676
v -0.289461 0.053210 -0.004131
v -0.325916 0.017164 -0.004122
v -0.286165 0.014408 0.006630
v -0.329545 0.014772 0.006658
v -0.289766 0.016861 -0.004145
v -0.375441 0.146006 0.006745
v -0.431823 0.141670 -0.003999
v -0.436897 0.146521 0.006785
v -0.380610 0.141240 -0.004033
v -0.432128 0.105320 -0.004016
v -0.375807 0.102428 0.006727
v -0.437263 0.102943 0.006767
v -0.380915 0.104891 -0.004049
v 0.212335 -0.033557 0.006286
v 0.172522 -0.038032 -0.004469
v 0.168956 -0.033194 0.006314
v 0.208674 -0.038336 -0.004493
v 0.172217 -0.074380 -0.004486
v 0.211970 -0.077136 0.006266
v 0.168590 -0.076772 0.006294
v 0.208369 -0.074683 -0.004509
v 0.494670 0.007759 0.006121
v 0.454859 0.003284 -0.004635
v 0.451291 0.008123 0.006149
v 0.491009 0.002981 -0.004658
v 0.454555 -0.033066 -0.004651
v 0.494305 -0.035819 0.006103
v 0.450925 -0.035455 0.006131
v 0.490704 -0.033369 -0.004675
v -0.243153 -0.029737 0.006583
v -0.282964 -0.034212 -0.004173
v -0.286532 -0.029374 0.006611
v -0.246814 -0.034515 -0.004196
v -0.283269 -0.070559 -0.004189
v -0.243518 -0.073316 0.006562
v -0.286898 -0.072952 0.006591
v -0.247119 -0.070863 -0.004213
v -0.460052 -0.027918 0.006724
v -0.499863 -0.032393 -0.004031
v -0.503431 -0.027555 0.006752
v -0.463713 -0.032696 -0.004055
v -0.500168 -0.068740 -0.004048
v -0.460417 -0.071497 0.006704
v -0.503797 -0.071133 0.006732
v -0.464018 -0.069044 -0.004071
v -0.112281 0.056533 0.006535
v -0.152092 0.052058 -0.004221
v -0.155660 0.056897 0.006563
v -0.115942 0.051755 -0.004244
v -0.152396 0.015709 -0.004235
v -0.112646 0.012953 0.006517
v -0.156026 0.013317 0.006545
v -0.116247 0.015406 -0.004259
v 0.365263 0.096110 0.006244
v 0.325452 0.091635 -0.004511
v 0.321883 0.096473 0.006273
v 0.361602 0.091331 -0.004535
v 0.325147 0.055287 -0.004528
v 0.364897 0.052531 0.006224
v 0.321518 0.052895 0.006252
v 0.361297 0.054984 -0.004551
v -0.430765 0.015520 0.006724
v -0.497087 0.011268 -0.004015
v -0.503065 0.016127 0.006771
v -0.436838 0.010762 -0.004054
v -0.497392 -0.025082 -0.004031
v -0.431131 -0.028058 0.006705
v -0.503431 -0.027451 0.006753
v -0.437143 -0.025587 -0.004070
v -0.048310 -0.075056 0.006435
v -0.088121 -0.079528 -0.004318
v -0.091690 -0.074692 0.006463
v -0.051971 -0.079831 -0.004342
v -0.088426 -0.115878 -0.004335
v -0.048675 -0.118634 0.006417
v -0.092055 -0.118270 0.006445
v -0.052276 -0.116181 -0.004358
v -0.257246 0.014065 0.006611
v -0.297057 0.009590 -0.004145
v -0.300626 0.014429 0.006639
v -0.260907 0.009287 -0.004169
v -0.297362 -0.026759 -0.004161
v -0.257612 -0.029513 0.006592
v -0.300992 -0.029149 0.006621
v -0.261212 -0.027063 -0.004185
v 0.148730 0.141610 0.006404
v 0.089035 0.137302 -0.004339
v 0.083660 0.142155 0.006446
v 0.143261 0.136847 -0.004374
v 0.088730 0.100952 -0.004355
v 0.148365 0.098032 0.006386
v 0.083295 0.098577 0.006428
v 0.142956 0.100497 -0.004390
v 0.027279 0.137819 -0.004299
v 0.022207 0.142671 0.006486
v 0.078492 0.137390 -0.004332
v 0.026974 0.101470 -0.004315
v 0.021841 0.099093 0.006468
v 0.078187 0.101040 -0.004348
v -0.039249 0.143186 0.006526
v -0.291141 0.140490 -0.004091
v -0.313988 0.145490 0.006705
v -0.062191 0.138570 -0.004240
v -0.291445 0.104140 -0.004107
v -0.039614 0.099608 0.006508
v -0.314353 0.101912 0.006687
v -0.062496 0.102220 -0.004257
v -0.069634 -0.031243 0.006469
v -0.109445 -0.035718 -0.004287
v -0.113014 -0.030879 0.006497
v -0.073295 -0.036021 -0.004311
v -0.109750 -0.072067 -0.004301
v -0.069999 -0.074821 0.006450
v -0.113379 -0.074457 0.006479
v -0.073600 -0.072370 -0.004325
v -0.135069 -0.074328 0.006492
v -0.174880 -0.078801 -0.004262
v -0.178449 -0.073964 0.006520
v -0.138731 -0.079104 -0.004285
v -0.175185 -0.115150 -0.004278
v -0.135435 -0.117906 0.006474
v -0.178815 -0.117542 0.006502
v -0.139036 -0.115453 -0.004302
v -0.368991 0.053877 -0.004080
v -0.372559 0.058716 0.006704
v -0.332841 0.053574 -0.004103
v -0.369295 0.017528 -0.004094
v -0.372925 0.015136 0.006686
v -0.333146 0.017225 -0.004117
v -0.340437 0.009954 -0.004117
v -0.344006 0.014793 0.006667
v -0.304287 0.009651 -0.004140
v -0.340742 -0.026396 -0.004133
v -0.344371 -0.028785 0.006649
v -0.304592 -0.026699 -0.004157
v -0.156393 -0.030465 0.006526
v -0.196206 -0.034940 -0.004229
v -0.199773 -0.030101 0.006555
v -0.160056 -0.035243 -0.004253
v -0.196511 -0.071287 -0.004246
v -0.156759 -0.074043 0.006506
v -0.200138 -0.073679 0.006534
v -0.160361 -0.071590 -0.004269
v 0.017859 0.055442 0.006450
v -0.021952 0.050967 -0.004306
v -0.025521 0.055806 0.006478
v 0.014198 0.050664 -0.004329
v -0.022257 0.014618 -0.004320
v 0.017493 0.011862 0.006432
v -0.025886 0.012225 0.006460
v 0.013893 0.014315 -0.004343
v -0.131501 -0.079164 -0.004290
v -0.095351 -0.079468 -0.004314
v -0.131806 -0.115514 -0.004306
v -0.095656 -0.115817 -0.004330
v -0.083727 0.012610 0.006498
v -0.123540 0.008135 -0.004258
v -0.127107 0.012973 0.006526
v -0.087388 0.007832 -0.004282
v -0.123845 -0.028215 -0.004274
v -0.084092 -0.030968 0.006479
v -0.127472 -0.030604 0.006508
v -0.087693 -0.028518 -0.004298
v -0.218260 -0.078437 -0.004234
v -0.221829 -0.073601 0.006548
v -0.182110 -0.078740 -0.004257
v -0.218565 -0.114786 -0.004250
v -0.222195 -0.117179 0.006530
v -0.182415 -0.115089 -0.004273
v -0.493946 0.098507 -0.003977
v -0.502333 0.103386 0.006809
v -0.409596 0.097799 -0.004032
v -0.494251 0.062159 -0.003994
v -0.502699 0.059808 0.006789
v -0.409901 0.061452 -0.004049
v 0.300560 0.140336 0.006305
v 0.260748 0.135861 -0.004451
v 0.257180 0.140700 0.006333
v 0.296898 0.135558 -0.004474
v 0.260444 0.099512 -0.004467
v 0.300194 0.096758 0.006287
v 0.256814 0.097122 0.006315
v 0.296593 0.099209 -0.004490
v 0.364165 -0.034831 0.006187
v 0.324354 -0.039306 -0.004568
v 0.320785 -0.034467 0.006216
v 0.360503 -0.039609 -0.004592
v 0.324049 -0.075653 -0.004585
v 0.363799 -0.078409 0.006167
v 0.320419 -0.078045 0.006195
v 0.360199 -0.075956 -0.004608
v -0.034175 0.138335 -0.004258
v 0.017038 0.137905 -0.004292
v -0.034480 0.101985 -0.004275
v 0.016733 0.101556 -0.004308
v 0.452389 0.139063 0.006206
v 0.412578 0.134588 -0.004549
v 0.409009 0.139427 0.006234
v 0.448728 0.134285 -0.004573
v 0.412273 0.098239 -0.004566
v 0.452023 0.095485 0.006188
v 0.408644 0.095849 0.006216
v 0.448423 0.097935 -0.004589
v -0.170487 0.013337 0.006554
v -0.210298 0.008862 -0.004201
v -0.213866 0.013701 0.006582
v -0.174148 0.008559 -0.004225
v -0.210602 -0.027487 -0.004218
v -0.170852 -0.030241 0.006536
v -0.214232 -0.029877 0.006564
v -0.174453 -0.027790 -0.004241
v -0.412370 0.054241 -0.004051
v -0.415939 0.059080 0.006732
v -0.376221 0.053938 -0.004075
v -0.412675 0.017892 -0.004065
v -0.416305 0.015500 0.006715
v -0.376525 0.017589 -0.004089
v -0.004930 -0.075420 0.006407
v -0.044741 -0.079892 -0.004347
v -0.008591 -0.080195 -0.004370
v -0.045046 -0.116242 -0.004363
v -0.005296 -0.118998 0.006389
v -0.008896 -0.116545 -0.004386
v 0.038450 -0.075783 0.006379
v -0.001361 -0.080256 -0.004375
v 0.034789 -0.080559 -0.004398
v -0.001666 -0.116605 -0.004391
v 0.038084 -0.119361 0.006360
v 0.034484 -0.116908 -0.004415
v -0.152825 -0.035354 -0.004259
v -0.156393 -0.030516 0.006525
v -0.116675 -0.035657 -0.004282
v -0.153130 -0.071703 -0.004273
v -0.156759 -0.074094 0.006507
v -0.116980 -0.072007 -0.004296
v 0.017126 -0.031971 0.006412
v -0.022685 -0.036446 -0.004343
v -0.026254 -0.031607 0.006440
v 0.013465 -0.036749 -0.004367
v -0.022990 -0.072795 -0.004358
v 0.016760 -0.075549 0.006394
v -0.026620 -0.075185 0.006422
v 0.013160 -0.073098 -0.004381
v 0.081830 -0.076147 0.006350
v 0.042019 -0.080620 -0.004403
v 0.078168 -0.080923 -0.004427
v 0.041714 -0.116969 -0.004419
v 0.081464 -0.119725 0.006332
v 0.077864 -0.117272 -0.004443
v 0.046412 0.011518 0.006413
v 0.006601 0.007043 -0.004343
v 0.003033 0.011882 0.006441
v 0.042751 0.006740 -0.004366
v 0.006297 -0.029306 -0.004359
v 0.046047 -0.032060 0.006395
v 0.002667 -0.031696 0.006423
v 0.042446 -0.029609 -0.004383
v -0.351969 -0.072509 0.006633
v -0.391780 -0.076982 -0.004121
v -0.395348 -0.072145 0.006661
v -0.355630 -0.077285 -0.004144
v -0.392084 -0.113331 -0.004137
v -0.352334 -0.116087 0.006615
v -0.395714 -0.115723 0.006643
v -0.355935 -0.113634 -0.004160
v -0.435159 -0.076618 -0.004092
v -0.399009 -0.076921 -0.004116
v -0.435464 -0.112967 -0.004109
v -0.399314 -0.113270 -0.004132
v -0.265209 -0.073237 0.006577
v -0.305020 -0.077709 -0.004177
v -0.308589 -0.072873 0.006605
v -0.268870 -0.078012 -0.004201
v -0.305325 -0.114059 -0.004193
v -0.265574 -0.116815 0.006558
v -0.308954 -0.116451 0.006587
v -0.269175 -0.114362 -0.004217
v -0.239584 -0.034576 -0.004201
v -0.203434 -0.034879 -0.004224
v -0.239889 -0.070923 -0.004217
v -0.203739 -0.071226 -0.004241
v 0.299461 0.009396 0.006248
v 0.259650 0.004921 -0.004508
v 0.256082 0.009760 0.006276
v 0.295800 0.004618 -0.004531
v 0.259345 -0.031428 -0.004524
v 0.299096 -0.034182 0.006230
v 0.255716 -0.033818 0.006258
v 0.295495 -0.031732 -0.004547
v -0.348400 -0.077345 -0.004149
v -0.312250 -0.077649 -0.004172
v -0.348705 -0.113695 -0.004165
v -0.312555 -0.113998 -0.004189
v -0.261640 -0.078073 -0.004205
v -0.225490 -0.078376 -0.004229
v -0.261945 -0.114422 -0.004222
v -0.225795 -0.114726 -0.004245
v 0.147266 -0.033012 0.006329
v 0.067689 -0.037153 -0.004401
v 0.060506 -0.032284 0.006385
v 0.139988 -0.037759 -0.004448
v 0.067384 -0.073500 -0.004418
v 0.146900 -0.076590 0.006308
v 0.060141 -0.075862 0.006365
v 0.139683 -0.074107 -0.004465
v 0.299095 -0.034285 0.006230
v 0.259284 -0.038760 -0.004526
v 0.255715 -0.033921 0.006258
v 0.295434 -0.039063 -0.004549
v 0.258979 -0.075107 -0.004542
v 0.298729 -0.077863 0.006209
v 0.255350 -0.077499 0.006237
v 0.295129 -0.075410 -0.004566
v 0.411480 0.003648 -0.004607
v 0.407911 0.008486 0.006177
v 0.447629 0.003345 -0.004630
v 0.411175 -0.032702 -0.004623
v 0.407545 -0.035091 0.006159
v 0.447325 -0.033005 -0.004646
v 0.256813 0.097019 0.006315
v 0.217002 0.092544 -0.004441
v 0.213434 0.097383 0.006343
v 0.253152 0.092241 -0.004464
v 0.216697 0.056197 -0.004457
v 0.256448 0.053441 0.006294
v 0.213068 0.053805 0.006323
v 0.252847 0.055894 -0.004481
v 0.455958 0.134224 -0.004578
v 0.492107 0.133921 -0.004601
v 0.455653 0.097875 -0.004594
v 0.495403 0.095121 0.006160
v 0.491803 0.097572 -0.004618
v 0.255349 -0.077550 0.006238
v 0.215538 -0.082025 -0.004517
v 0.211969 -0.077186 0.006267
v 0.251688 -0.082328 -0.004541
v 0.215233 -0.118374 -0.004533
v 0.254984 -0.121130 0.006218
v 0.211604 -0.120766 0.006246
v 0.251383 -0.118677 -0.004557
v 0.212702 0.010124 0.006304
v 0.172888 0.005649 -0.004451
v 0.169322 0.010487 0.006333
v 0.209040 0.005346 -0.004475
v 0.172584 -0.030701 -0.004467
v 0.212336 -0.033454 0.006286
v 0.168956 -0.033091 0.006315
v 0.208736 -0.031004 -0.004491
v 0.408643 0.095746 0.006216
v 0.368832 0.091271 -0.004539
v 0.404981 0.090968 -0.004563
v 0.368527 0.054924 -0.004556
v 0.408277 0.052168 0.006196
v 0.404677 0.054620 -0.004580
v -0.370370 0.141154 -0.004039
v -0.319156 0.140725 -0.004073
v -0.370675 0.104805 -0.004056
v -0.319461 0.104375 -0.004089
v 0.147632 0.010669 0.006347
v 0.094566 0.006306 -0.004400
v 0.089792 0.011154 0.006385
v 0.142764 0.005901 -0.004431
v 0.094261 -0.030044 -0.004416
v 0.147266 -0.032909 0.006329
v 0.089427 -0.032424 0.006366
v 0.142459 -0.030448 -0.004448
v 0.146899 -0.076693 0.006308
v 0.087204 -0.080999 -0.004433
v 0.141430 -0.081453 -0.004468
v 0.086899 -0.117348 -0.004449
v 0.146534 -0.120271 0.006290
v 0.141125 -0.117803 -0.004484
v -0.184215 0.100718 0.006602
v -0.224026 0.096243 -0.004153
v -0.227595 0.101082 0.006631
v -0.187876 0.095940 -0.004177
v -0.224331 0.059896 -0.004170
v -0.184580 0.057140 0.006582
v -0.227960 0.057503 0.006610
v -0.188181 0.059593 -0.004193
v 0.364531 0.008850 0.006206
v 0.324720 0.004375 -0.004550
v 0.321151 0.009214 0.006234
v 0.360870 0.004072 -0.004574
v 0.324415 -0.031974 -0.004566
v 0.364166 -0.034728 0.006187
v 0.320786 -0.034364 0.006216
v 0.360565 -0.032277 -0.004590
v 0.407544 -0.035195 0.006159
v 0.367733 -0.039669 -0.004597
v 0.403883 -0.039973 -0.004620
v 0.367429 -0.076017 -0.004613
v 0.407179 -0.078773 0.006139
v 0.403578 -0.076320 -0.004637
v 0.368100 0.004012 -0.004578
v 0.404250 0.003708 -0.004602
v 0.367795 -0.032338 -0.004595
v 0.403945 -0.032641 -0.004618
v 0.450558 -0.079187 0.006111
v 0.410747 -0.083662 -0.004644
v 0.407179 -0.078823 0.006140
v 0.446897 -0.083965 -0.004668
v 0.410442 -0.120011 -0.004661
v 0.450193 -0.122767 0.006091
v 0.406813 -0.122404 0.006119
v 0.446592 -0.120314 -0.004684
v -0.496592 0.142213 -0.003957
v -0.442366 0.141758 -0.003993
v -0.496897 0.105864 -0.003974
v -0.502332 0.103489 0.006810
v -0.442671 0.105409 -0.004009
v -0.314354 0.101809 0.006687
v -0.354165 0.097334 -0.004069
v -0.318015 0.097031 -0.004092
v -0.354470 0.060987 -0.004085
v -0.314720 0.058231 0.006667
v -0.318320 0.060684 -0.004109
v 0.032684 0.098899 0.006461
v -0.007127 0.094424 -0.004295
v -0.010695 0.099263 0.006489
v 0.029023 0.094121 -0.004318
v -0.007432 0.058077 -0.004311
v 0.032319 0.055321 0.006440
v -0.011061 0.055684 0.006469
v 0.028718 0.057773 -0.004335
v -0.326343 -0.033848 -0.004144
v -0.329912 -0.029010 0.006639
v -0.290194 -0.034152 -0.004168
v -0.326648 -0.070196 -0.004161
v -0.330278 -0.072588 0.006619
v -0.290498 -0.070499 -0.004185
v -0.369723 -0.033485 -0.004116
v -0.373292 -0.028646 0.006668
v -0.333573 -0.033788 -0.004140
v -0.370028 -0.069832 -0.004133
v -0.373658 -0.072224 0.006647
v -0.333878 -0.070135 -0.004156
v -0.242420 0.057625 0.006619
v -0.282231 0.053150 -0.004136
v -0.246081 0.052847 -0.004160
v -0.282536 0.016801 -0.004150
v -0.242785 0.014044 0.006601
v -0.246386 0.016497 -0.004174
v 0.148364 0.097929 0.006386
v 0.042276 0.094010 -0.004327
v 0.138677 0.093201 -0.004390
v 0.041971 0.057662 -0.004343
v 0.147998 0.054350 0.006365
v 0.138372 0.056854 -0.004406
v -0.050507 0.094788 -0.004266
v -0.054075 0.099626 0.006517
v -0.014357 0.094484 -0.004290
v -0.050811 0.058440 -0.004283
v -0.054441 0.056048 0.006497
v -0.014662 0.058137 -0.004306
v -0.066065 -0.036082 -0.004315
v -0.029915 -0.036385 -0.004339
v -0.066370 -0.072431 -0.004329
v -0.030220 -0.072734 -0.004353
v -0.036778 0.007407 -0.004315
v -0.040347 0.012246 0.006469
v -0.000629 0.007104 -0.004338
v -0.037083 -0.028942 -0.004331
v -0.040713 -0.031332 0.006451
v -0.000933 -0.029245 -0.004354
v 0.049981 0.006680 -0.004371
v 0.086131 0.006376 -0.004395
v 0.049676 -0.029670 -0.004387
v 0.085826 -0.029973 -0.004411
v -0.397545 0.097698 -0.004040
v -0.361395 0.097395 -0.004064
v -0.397850 0.061351 -0.004057
v -0.361700 0.061048 -0.004080
v -0.195474 0.052422 -0.004193
v -0.199040 0.057261 0.006591
v -0.159324 0.052119 -0.004216
v -0.195778 0.016073 -0.004207
v -0.199406 0.013681 0.006573
v -0.159629 0.015770 -0.004230
v -0.097455 0.099990 0.006546
v -0.137266 0.095515 -0.004210
v -0.140835 0.100354 0.006574
v -0.101116 0.095212 -0.004233
v -0.137571 0.059168 -0.004226
v -0.097821 0.056412 0.006525
v -0.141200 0.056776 0.006554
v -0.101421 0.058865 -0.004250
v -0.413103 -0.033121 -0.004088
v -0.416672 -0.028282 0.006696
v -0.376953 -0.033424 -0.004111
v -0.413408 -0.069468 -0.004104
v -0.417037 -0.071860 0.006675
v -0.377258 -0.069771 -0.004128
v 0.213800 0.141064 0.006362
v 0.173987 0.136589 -0.004394
v 0.170420 0.141428 0.006390
v 0.210139 0.136286 -0.004418
v 0.173682 0.100240 -0.004410
v 0.213434 0.097486 0.006343
v 0.170055 0.097850 0.006372
v 0.209834 0.099936 -0.004434
v 0.215904 -0.038396 -0.004498
v 0.252054 -0.038699 -0.004521
v 0.215599 -0.074743 -0.004514
v 0.251749 -0.075047 -0.004538
v 0.216270 0.005285 -0.004479
v 0.252420 0.004982 -0.004503
v 0.215966 -0.031065 -0.004496
v 0.252115 -0.031368 -0.004519
v -0.068901 0.056169 0.006506
v -0.108712 0.051695 -0.004249
v -0.072562 0.051391 -0.004273
v -0.109017 0.015345 -0.004263
v -0.069266 0.012589 0.006488
v -0.072867 0.015042 -0.004287
v -0.267406 0.096607 -0.004125
v -0.270974 0.101445 0.006659
v -0.231256 0.096304 -0.004149
v -0.267710 0.060260 -0.004142
v -0.271340 0.057867 0.006638
v -0.231561 0.059956 -0.004165
v -0.080158 0.007771 -0.004286
v -0.044008 0.007468 -0.004310
v -0.080463 -0.028578 -0.004303
v -0.044313 -0.028882 -0.004326
v 0.298729 -0.077914 0.006210
v 0.258918 -0.082388 -0.004545
v 0.295068 -0.082692 -0.004569
v 0.258613 -0.118738 -0.004562
v 0.298364 -0.121494 0.006190
v 0.294763 -0.119041 -0.004585
v 0.451657 0.051753 0.006168
v 0.411846 0.047279 -0.004587
v 0.408277 0.052117 0.006197
v 0.447995 0.046975 -0.004611
v 0.411541 0.010929 -0.004604
v 0.451291 0.008173 0.006148
v 0.407911 0.008537 0.006176
v 0.447691 0.010626 -0.004627
v 0.452022 0.095382 0.006188
v 0.412211 0.090907 -0.004568
v 0.448361 0.090604 -0.004591
v 0.411907 0.054560 -0.004584
v 0.451657 0.051804 0.006167
v 0.448056 0.054257 -0.004608
v 0.368466 0.047642 -0.004559
v 0.364897 0.052481 0.006225
v 0.404616 0.047339 -0.004583
v 0.368161 0.011293 -0.004575
v 0.364531 0.008901 0.006205
v 0.404311 0.010990 -0.004599
v 0.325086 0.048006 -0.004531
v 0.321517 0.052845 0.006253
v 0.361236 0.047703 -0.004554
v 0.324781 0.011657 -0.004547
v 0.321152 0.009264 0.006233
v 0.360931 0.011354 -0.004571
v 0.495036 0.051390 0.006140
v 0.455225 0.046915 -0.004616
v 0.491375 0.046612 -0.004639
v 0.454920 0.010565 -0.004632
v 0.494671 0.007809 0.006120
v 0.491070 0.010262 -0.004655
v 0.495402 0.095018 0.006160
v 0.455591 0.090543 -0.004596
v 0.491741 0.090240 -0.004620
v 0.455286 0.054196 -0.004613
v 0.495037 0.051440 0.006139
v 0.491436 0.053893 -0.004636
v -0.495516 0.054939 -0.003997
v -0.423216 0.054332 -0.004044
v -0.495821 0.018589 -0.004011
v -0.503064 0.016227 0.006771
v -0.423521 0.017983 -0.004058
v 0.060506 -0.032335 0.006384
v 0.020695 -0.036810 -0.004372
v 0.056844 -0.037113 -0.004395
v 0.020390 -0.073159 -0.004386
v 0.060140 -0.075913 0.006366
v 0.056540 -0.073462 -0.004409
v 0.217369 0.136225 -0.004422
v 0.253518 0.135922 -0.004446
v 0.217064 0.099876 -0.004439
v 0.253214 0.099573 -0.004462
v -0.253677 0.009226 -0.004173
v -0.217528 0.008923 -0.004197
v -0.253982 -0.027123 -0.004190
v -0.217832 -0.027426 -0.004213
v -0.238851 0.052786 -0.004164
v -0.202701 0.052483 -0.004188
v -0.239156 0.016437 -0.004178
v -0.203006 0.016134 -0.004202
v -0.180646 0.095879 -0.004182
v -0.144496 0.095576 -0.004205
v -0.180951 0.059532 -0.004198
v -0.144801 0.059229 -0.004222
v 0.329432 0.135285 -0.004495
v 0.322249 0.140154 0.006291
v 0.401732 0.134679 -0.004542
v 0.329127 0.098936 -0.004512
v 0.321884 0.096576 0.006273
v 0.401427 0.098330 -0.004559
v -0.387386 0.015156 0.006695
v -0.427197 0.010681 -0.004060
v -0.391047 0.010378 -0.004084
v -0.427502 -0.025668 -0.004077
v -0.387751 -0.028422 0.006677
v -0.391352 -0.025971 -0.004100
v 0.172156 -0.081661 -0.004489
v 0.168590 -0.076822 0.006295
v 0.208308 -0.081964 -0.004512
v 0.171851 -0.118010 -0.004505
v 0.168224 -0.120403 0.006275
v 0.208003 -0.118313 -0.004529
v -0.456483 -0.032757 -0.004060
v -0.420333 -0.033060 -0.004083
v -0.456788 -0.069104 -0.004076
v -0.420638 -0.069407 -0.004100
v -0.383817 0.010318 -0.004088
v -0.347667 0.010014 -0.004112
v -0.384122 -0.026032 -0.004105
v -0.347972 -0.026335 -0.004128
v 0.450924 -0.035558 0.006131
v 0.411113 -0.040033 -0.004625
v 0.447263 -0.040336 -0.004648
v 0.410808 -0.076380 -0.004641
v 0.450559 -0.079137 0.006110
v 0.446958 -0.076684 -0.004665
v 0.367368 -0.083298 -0.004616
v 0.363799 -0.078459 0.006168
v 0.403517 -0.083601 -0.004640
v 0.367063 -0.119647 -0.004632
v 0.363433 -0.122040 0.006148
v 0.403213 -0.119951 -0.004656
v 0.061239 0.055078 0.006422
v 0.021428 0.050603 -0.004334
v 0.057578 0.050300 -0.004357
v 0.021123 0.014254 -0.004348
v 0.060873 0.011498 0.006404
v 0.057273 0.013951 -0.004372
v 0.323988 -0.082934 -0.004588
v 0.320419 -0.078095 0.006196
v 0.360138 -0.083237 -0.004611
v 0.323683 -0.119284 -0.004604
v 0.320053 -0.121676 0.006176
v 0.359833 -0.119587 -0.004628
v 0.493938 -0.079551 0.006083
v 0.454127 -0.084026 -0.004673
v 0.490277 -0.084329 -0.004696
v 0.453822 -0.120375 -0.004689
v 0.493573 -0.123131 0.006063
v 0.489972 -0.120678 -0.004712
v 0.494304 -0.035922 0.006103
v 0.454493 -0.040397 -0.004653
v 0.490643 -0.040700 -0.004677
v 0.454188 -0.076744 -0.004670
v 0.493939 -0.079500 0.006082
v 0.490338 -0.077047 -0.004693
v 0.068421 0.050209 -0.004365
v 0.140721 0.049603 -0.004412
v 0.068116 0.013860 -0.004379
v 0.147633 0.010770 0.006347
v 0.140416 0.013253 -0.004426
v -0.310785 0.096971 -0.004097
v -0.274636 0.096667 -0.004120
v -0.311090 0.060623 -0.004113
v -0.274940 0.060320 -0.004137
v -0.065332 0.051331 -0.004277
v -0.029182 0.051028 -0.004301
v -0.065637 0.014982 -0.004291
v -0.029487 0.014678 -0.004315
v -0.166918 0.008499 -0.004230
v -0.130768 0.008195 -0.004253
v -0.167223 -0.027851 -0.004246
v -0.131073 -0.028154 -0.004270
v -0.093886 0.095151 -0.004238
v -0.057736 0.094848 -0.004262
v -0.094191 0.058804 -0.004255
v -0.058041 0.058501 -0.004278
f 1 2 3
f 2 1 4
f 2 5 3
f 5 2 6
f 7 5 6
f 5 7 8
f 7 2 4
f 2 7 9
f 9 7 10
f 10 7 11
f 2 12 6
f 12 2 9
f 6 12 11
f 6 11 7
f 4 8 1
f 8 4 7
f 8 3 1
f 3 8 5
f 13 14 15
f 14 13 16
f 17 18 2
f 18 17 19
f 14 2 15
f 2 14 17
f 18 16 13
f 16 18 19
f 14 19 17
f 19 14 16
f 20 21 22
f 21 20 23
f 24 25 26
f 25 24 27
f 21 26 22
f 26 21 24
f 25 23 20
f 23 25 27
f 21 27 24
f 27 21 23
f 28 29 30
f 29 28 31
f 32 33 34
f 33 32 35
f 29 34 30
f 34 29 32
f 33 31 28
f 31 33 35
f 29 35 32
f 35 29 31
f 36 37 38
f 37 36 39
f 40 41 42
f 41 40 43
f 37 42 38
f 42 37 40
f 41 39 36
f 39 41 43
f 37 43 40
f 43 37 39
f 44 45 46
f 45 44 47
f 48 49 50
f 49 48 51
f 45 50 46
f 50 45 48
f 49 47 44
f 47 49 51
f 45 51 48
f 51 45 47
f 52 53 54
f 53 52 55
f 56 57 58
f 57 56 59
f 53 58 54
f 58 53 56
f 57 55 52
f 55 57 59
f 53 59 56
f 59 53 55
f 60 61 62
f 61 60 63
f 64 65 66
f 65 64 67
f 61 66 62
f 66 61 64
f 65 63 60
f 63 65 67
f 61 67 64
f 67 61 63
f 68 69 70
f 69 68 71
f 72 73 74
f 73 72 75
f 69 74 70
f 74 69 72
f 73 71 68
f 71 73 75
f 69 75 72
f 75 69 71
f 76 77 78
f 77 76 79
f 80 81 82
f 81 80 83
f 77 82 78
f 82 77 80
f 81 79 76
f 79 81 83
f 77 83 80
f 83 77 79
f 84 85 86
f 85 84 87
f 88 89 90
f 89 88 91
f 85 90 86
f 90 85 88
f 89 87 84
f 87 89 91
f 85 91 88
f 91 85 87
f 92 93 94
f 93 92 95
f 96 97 98
f 97 96 99
f 93 98 94
f 98 93 96
f 97 95 92
f 95 97 99
f 93 99 96
f 99 93 95
f 100 101 102
f 101 100 103
f 104 105 106
f 105 104 107
f 101 106 102
f 106 101 104
f 105 103 100
f 103 105 107
f 101 107 104
f 107 101 103
f 108 109 110
f 109 108 111
f 112 113 114
f 113 112 115
f 109 114 110
f 114 109 112
f 113 111 108
f 111 113 115
f 109 115 112
f 115 109 111
f 110 116 117
f 116 110 118
f 119 114 120
f 114 119 121
f 116 120 117
f 120 116 119
f 114 118 110
f 118 114 121
f 116 121 119
f 121 116 118
f 122 123 124
f 123 122 125
f 126 127 128
f 127 126 129
f 123 128 124
f 128 123 126
f 127 125 122
f 125 127 129
f 123 129 126
f 129 123 125
f 10 12 9
f 12 10 11
f 130 131 132
f 131 130 133
f 134 135 136
f 135 134 137
f 131 136 132
f 136 131 134
f 135 133 130
f 133 135 137
f 131 137 134
f 137 131 133
f 138 139 140
f 139 138 141
f 142 143 144
f 143 142 145
f 139 144 140
f 144 139 142
f 143 141 138
f 141 143 145
f 139 145 142
f 145 139 141
f 22 146 147
f 146 22 148
f 149 26 150
f 26 149 151
f 146 150 147
f 150 146 149
f 26 148 22
f 148 26 151
f 146 151 149
f 151 146 148
f 102 152 153
f 152 102 154
f 155 106 156
f 106 155 157
f 152 156 153
f 156 152 155
f 106 154 102
f 154 106 157
f 152 157 155
f 157 152 154
f 158 159 160
f 159 158 161
f 162 163 164
f 163 162 165
f 159 164 160
f 164 159 162
f 163 161 158
f 161 163 165
f 159 165 162
f 165 159 161
f 166 167 168
f 167 166 169
f 170 171 172
f 171 170 173
f 167 172 168
f 172 167 170
f 171 169 166
f 169 171 173
f 167 173 170
f 173 167 169
f 94 174 138
f 174 94 175
f 176 98 143
f 98 176 177
f 174 143 138
f 143 174 176
f 98 175 94
f 175 98 177
f 174 177 176
f 177 174 175
f 178 179 180
f 179 178 181
f 182 183 184
f 183 182 185
f 179 184 180
f 184 179 182
f 183 181 178
f 181 183 185
f 179 185 182
f 185 179 181
f 140 186 187
f 186 140 188
f 189 144 190
f 144 189 191
f 186 190 187
f 190 186 189
f 144 188 140
f 188 144 191
f 186 191 189
f 191 186 188
f 11 192 193
f 192 11 194
f 195 12 196
f 12 195 197
f 192 196 193
f 196 192 195
f 194 12 197
f 192 197 195
f 197 192 194
f 198 199 200
f 199 198 201
f 202 203 204
f 203 202 205
f 199 204 200
f 204 199 202
f 203 201 198
f 201 203 205
f 199 205 202
f 205 199 201
f 206 207 208
f 207 206 209
f 210 211 212
f 211 210 213
f 207 212 208
f 212 207 210
f 211 209 206
f 209 211 213
f 207 213 210
f 213 207 209
f 117 214 122
f 214 117 215
f 216 120 127
f 120 216 217
f 214 127 122
f 127 214 216
f 120 215 117
f 215 120 217
f 214 217 216
f 217 214 215
f 218 219 220
f 219 218 221
f 222 223 224
f 223 222 225
f 219 224 220
f 224 219 222
f 223 221 218
f 221 223 225
f 219 225 222
f 225 219 221
f 226 227 228
f 227 226 229
f 230 231 232
f 231 230 233
f 227 232 228
f 232 227 230
f 231 229 226
f 229 231 233
f 227 233 230
f 233 227 229
f 147 234 235
f 234 147 236
f 237 150 238
f 150 237 239
f 234 238 235
f 238 234 237
f 150 236 147
f 236 150 239
f 234 239 237
f 239 234 236
f 240 241 92
f 241 240 242
f 243 244 97
f 244 243 245
f 241 97 92
f 97 241 243
f 244 242 240
f 242 244 245
f 241 245 243
f 245 241 242
f 246 247 240
f 247 246 248
f 249 250 244
f 250 249 251
f 247 244 240
f 244 247 249
f 250 248 246
f 248 250 251
f 247 251 249
f 251 247 248
f 132 252 253
f 252 132 254
f 255 136 256
f 136 255 257
f 252 256 253
f 256 252 255
f 136 254 132
f 254 136 257
f 252 257 255
f 257 252 254
f 258 259 260
f 259 258 261
f 262 263 264
f 263 262 265
f 259 264 260
f 264 259 262
f 263 261 258
f 261 263 265
f 259 265 262
f 265 259 261
f 266 267 246
f 267 266 268
f 269 270 250
f 270 269 271
f 267 250 246
f 250 267 269
f 270 268 266
f 268 270 271
f 267 271 269
f 271 267 268
f 272 273 274
f 273 272 275
f 276 277 278
f 277 276 279
f 273 278 274
f 278 273 276
f 277 275 272
f 275 277 279
f 273 279 276
f 279 273 275
f 280 281 282
f 281 280 283
f 284 285 286
f 285 284 287
f 281 286 282
f 286 281 284
f 285 283 280
f 283 285 287
f 281 287 284
f 287 281 283
f 282 288 13
f 288 282 289
f 290 286 18
f 286 290 291
f 288 18 13
f 18 288 290
f 286 289 282
f 289 286 291
f 288 291 290
f 291 288 289
f 292 293 294
f 293 292 295
f 296 297 298
f 297 296 299
f 293 298 294
f 298 293 296
f 297 295 292
f 295 297 299
f 293 299 296
f 299 293 295
f 160 300 52
f 300 160 301
f 302 164 57
f 164 302 303
f 300 57 52
f 57 300 302
f 164 301 160
f 301 164 303
f 300 303 302
f 303 300 301
f 304 305 306
f 305 304 307
f 308 309 310
f 309 308 311
f 305 310 306
f 310 305 308
f 309 307 304
f 307 309 311
f 305 311 308
f 311 305 307
f 294 312 280
f 312 294 313
f 314 298 285
f 298 314 315
f 312 285 280
f 285 312 314
f 298 313 294
f 313 298 315
f 312 315 314
f 315 312 313
f 187 316 292
f 316 187 317
f 318 190 297
f 190 318 319
f 316 297 292
f 297 316 318
f 190 317 187
f 317 190 319
f 316 319 318
f 319 316 317
f 320 321 322
f 321 320 323
f 324 325 326
f 325 324 327
f 321 326 322
f 326 321 324
f 325 323 320
f 323 325 327
f 321 327 324
f 327 321 323
f 328 329 330
f 329 328 331
f 332 333 334
f 333 332 335
f 329 334 330
f 334 329 332
f 333 331 328
f 331 333 335
f 329 335 332
f 335 329 331
f 46 336 337
f 336 46 338
f 339 50 340
f 50 339 341
f 336 340 337
f 340 336 339
f 50 338 46
f 338 50 341
f 336 341 339
f 341 336 338
f 342 343 344
f 343 342 345
f 346 347 348
f 347 346 349
f 343 348 344
f 348 343 346
f 347 345 342
f 345 347 349
f 343 349 346
f 349 343 345
f 7 350 218
f 350 7 351
f 352 353 223
f 353 352 354
f 350 223 218
f 223 350 352
f 353 351 7
f 351 353 354
f 350 354 352
f 354 350 351
f 355 356 357
f 356 355 358
f 359 360 361
f 360 359 362
f 356 361 357
f 361 356 359
f 360 358 355
f 358 360 362
f 356 362 359
f 362 356 358
f 363 364 365
f 364 363 366
f 367 368 369
f 368 367 370
f 364 369 365
f 369 364 367
f 368 366 363
f 366 368 370
f 364 370 367
f 370 364 366
f 371 372 76
f 372 371 373
f 374 375 81
f 375 374 376
f 372 81 76
f 81 372 374
f 375 373 371
f 373 375 376
f 372 376 374
f 376 372 373
f 124 377 28
f 377 124 378
f 379 128 33
f 128 379 380
f 377 33 28
f 33 377 379
f 128 378 124
f 378 128 380
f 377 380 379
f 380 377 378
f 381 382 383
f 382 381 384
f 385 386 387
f 386 385 388
f 382 387 383
f 387 382 385
f 386 384 381
f 384 386 388
f 382 388 385
f 388 382 384
f 389 390 266
f 390 389 391
f 392 393 270
f 393 392 394
f 390 270 266
f 270 390 392
f 393 391 389
f 391 393 394
f 390 394 392
f 394 390 391
f 395 396 397
f 396 395 398
f 399 400 401
f 400 399 402
f 396 401 397
f 401 396 399
f 400 398 395
f 398 400 402
f 396 402 399
f 402 396 398
f 403 404 405
f 404 403 406
f 407 408 409
f 408 407 410
f 404 409 405
f 409 404 407
f 408 406 403
f 406 408 410
f 404 410 407
f 410 404 406
f 411 412 206
f 412 411 413
f 414 415 211
f 415 414 416
f 412 211 206
f 211 412 414
f 415 413 411
f 413 415 416
f 412 416 414
f 416 412 413
f 337 417 403
f 417 337 418
f 419 340 408
f 340 419 420
f 417 408 403
f 408 417 419
f 340 418 337
f 418 340 420
f 417 420 419
f 420 417 418
f 421 422 423
f 422 421 424
f 425 426 427
f 426 425 428
f 422 427 423
f 427 422 425
f 426 424 421
f 424 426 428
f 422 428 425
f 428 422 424
f 30 429 6
f 429 30 430
f 431 34 432
f 34 431 433
f 429 432 6
f 432 429 431
f 34 430 30
f 430 34 433
f 429 433 431
f 433 429 430
f 434 435 10
f 435 434 436
f 437 438 9
f 438 437 439
f 9 435 437
f 438 436 434
f 436 438 439
f 435 439 437
f 439 435 436
f 440 441 442
f 441 440 443
f 444 445 446
f 445 444 447
f 441 446 442
f 446 441 444
f 445 443 440
f 443 445 447
f 441 447 444
f 447 441 443
f 54 448 449
f 448 54 450
f 451 58 452
f 58 451 453
f 448 452 449
f 452 448 451
f 58 450 54
f 450 58 453
f 448 453 451
f 453 448 450
f 449 454 455
f 454 449 456
f 457 452 458
f 452 457 459
f 454 458 455
f 458 454 457
f 452 456 449
f 456 452 459
f 454 459 457
f 459 454 456
f 460 461 20
f 461 460 462
f 463 464 25
f 464 463 465
f 461 25 20
f 25 461 463
f 464 462 460
f 462 464 465
f 461 465 463
f 465 461 462
f 466 467 440
f 467 466 468
f 469 470 445
f 470 469 471
f 467 445 440
f 445 467 469
f 470 468 466
f 468 470 471
f 467 471 469
f 471 467 468
f 442 472 473
f 472 442 474
f 475 446 476
f 446 475 477
f 472 476 473
f 476 472 475
f 446 474 442
f 474 446 477
f 472 477 475
f 477 472 474
f 260 478 130
f 478 260 479
f 480 264 135
f 264 480 481
f 478 135 130
f 135 478 480
f 264 479 260
f 479 264 481
f 478 481 480
f 481 478 479
f 274 482 483
f 482 274 484
f 485 278 486
f 278 485 487
f 482 486 483
f 486 482 485
f 278 484 274
f 484 278 487
f 482 487 485
f 487 482 484
f 383 488 272
f 488 383 489
f 490 387 277
f 387 490 491
f 488 277 272
f 277 488 490
f 387 489 383
f 489 387 491
f 488 491 490
f 491 488 489
f 492 10 493
f 9 494 495
f 12 492 494
f 493 9 495
f 492 495 494
f 495 492 493
f 70 496 497
f 496 70 498
f 499 74 500
f 74 499 501
f 496 500 497
f 500 496 499
f 74 498 70
f 498 74 501
f 496 501 499
f 501 496 498
f 502 503 504
f 503 502 505
f 506 507 508
f 507 506 509
f 503 508 504
f 508 503 506
f 507 505 502
f 505 507 509
f 503 509 506
f 509 503 505
f 455 510 511
f 510 455 512
f 513 458 514
f 458 513 515
f 510 514 511
f 514 510 513
f 458 512 455
f 512 458 515
f 510 515 513
f 515 510 512
f 516 517 518
f 517 516 519
f 520 521 522
f 521 520 523
f 517 522 518
f 522 517 520
f 521 519 516
f 519 521 523
f 517 523 520
f 523 517 519
f 330 524 36
f 524 330 525
f 526 334 41
f 334 526 527
f 524 41 36
f 41 524 526
f 334 525 330
f 525 334 527
f 524 527 526
f 527 524 525
f 306 528 363
f 528 306 529
f 530 310 368
f 310 530 531
f 528 368 363
f 368 528 530
f 310 529 306
f 529 310 531
f 528 531 530
f 531 528 529
f 532 533 68
f 533 532 534
f 535 536 73
f 536 535 537
f 533 73 68
f 73 533 535
f 536 534 532
f 534 536 537
f 533 537 535
f 537 533 534
f 397 538 539
f 538 397 540
f 541 401 542
f 401 541 543
f 538 542 539
f 542 538 541
f 401 540 397
f 540 401 543
f 538 543 541
f 543 538 540
f 483 544 178
f 544 483 545
f 546 486 183
f 486 546 547
f 544 183 178
f 183 544 546
f 486 545 483
f 545 486 547
f 544 547 546
f 547 544 545
f 548 549 355
f 549 548 550
f 551 552 360
f 552 551 553
f 549 360 355
f 360 549 551
f 552 550 548
f 550 552 553
f 549 553 551
f 553 549 550
f 554 555 556
f 555 554 557
f 558 559 560
f 559 558 561
f 555 560 556
f 560 555 558
f 559 557 554
f 557 559 561
f 555 561 558
f 561 555 557
f 562 563 371
f 563 562 564
f 565 566 375
f 566 565 567
f 563 375 371
f 375 563 565
f 566 564 562
f 564 566 567
f 563 567 565
f 567 563 564
f 556 568 569
f 568 556 570
f 571 560 572
f 560 571 573
f 568 572 569
f 572 568 571
f 560 570 556
f 570 560 573
f 568 573 571
f 573 568 570
f 569 574 575
f 574 569 576
f 577 572 578
f 572 577 579
f 574 578 575
f 578 574 577
f 572 576 569
f 576 572 579
f 574 579 577
f 579 574 576
f 580 581 554
f 581 580 582
f 583 584 559
f 584 583 585
f 581 559 554
f 559 581 583
f 584 582 580
f 582 584 585
f 581 585 583
f 585 581 582
f 586 587 562
f 587 586 588
f 589 590 566
f 590 589 591
f 587 566 562
f 566 587 589
f 590 588 586
f 588 590 591
f 587 591 589
f 591 587 588
f 235 592 196
f 592 235 593
f 594 238 595
f 238 594 596
f 592 595 196
f 595 592 594
f 238 593 235
f 593 238 596
f 592 596 594
f 596 592 593
f 597 598 258
f 598 597 599
f 600 601 263
f 601 600 602
f 598 263 258
f 263 598 600
f 601 599 597
f 599 601 602
f 598 602 600
f 602 598 599
f 200 603 516
f 603 200 604
f 605 204 521
f 204 605 606
f 603 521 516
f 521 603 605
f 204 604 200
f 604 204 606
f 603 606 605
f 606 603 604
f 228 607 100
f 607 228 608
f 609 232 105
f 232 609 610
f 607 105 100
f 105 607 609
f 232 608 228
f 608 232 610
f 607 610 609
f 610 607 608
f 497 611 460
f 611 497 612
f 613 500 464
f 500 613 614
f 611 464 460
f 464 611 613
f 500 612 497
f 612 500 614
f 611 614 613
f 614 611 612
f 504 615 395
f 615 504 616
f 617 508 400
f 508 617 618
f 615 400 395
f 400 615 617
f 508 616 504
f 616 508 618
f 615 618 617
f 618 615 616
f 220 619 620
f 619 220 621
f 622 224 623
f 224 622 624
f 619 623 620
f 623 619 622
f 224 621 220
f 621 224 624
f 619 624 622
f 624 619 621
f 625 626 84
f 626 625 627
f 628 629 89
f 629 628 630
f 626 89 84
f 89 626 628
f 629 627 625
f 627 629 630
f 626 630 628
f 630 626 627
f 357 631 632
f 631 357 633
f 634 361 635
f 361 634 636
f 631 635 632
f 635 631 634
f 361 633 357
f 633 361 636
f 631 636 634
f 636 631 633
f 511 637 60
f 637 511 638
f 639 514 65
f 514 639 640
f 637 65 60
f 65 637 639
f 514 638 511
f 638 514 640
f 637 640 639
f 640 637 638
f 153 641 625
f 641 153 642
f 643 156 629
f 156 643 644
f 641 629 625
f 629 641 643
f 156 642 153
f 642 156 644
f 641 644 643
f 644 641 642
f 645 646 411
f 646 645 647
f 648 649 415
f 649 648 650
f 646 415 411
f 415 646 648
f 649 647 645
f 647 649 650
f 646 650 648
f 650 646 647
f 423 651 652
f 651 423 653
f 654 427 655
f 427 654 656
f 651 655 652
f 655 651 654
f 427 653 423
f 653 427 656
f 651 656 654
f 656 651 653
f 657 658 166
f 658 657 659
f 660 661 171
f 661 660 662
f 658 171 166
f 171 658 660
f 661 659 657
f 659 661 662
f 658 662 660
f 662 658 659
f 652 663 664
f 663 652 665
f 666 655 667
f 655 666 668
f 663 667 664
f 667 663 666
f 655 665 652
f 665 655 668
f 663 668 666
f 668 663 665
f 669 670 421
f 670 669 671
f 672 673 426
f 673 672 674
f 670 426 421
f 426 670 672
f 673 671 669
f 671 673 674
f 670 674 672
f 674 670 671
f 675 676 645
f 676 675 677
f 678 679 649
f 679 678 680
f 676 649 645
f 649 676 678
f 679 677 675
f 677 679 680
f 676 680 678
f 680 676 677
f 470 681 657
f 681 470 682
f 683 684 661
f 684 683 685
f 681 661 657
f 661 681 683
f 684 682 470
f 682 684 685
f 681 685 683
f 685 681 682
f 539 686 434
f 686 539 687
f 688 542 438
f 542 688 689
f 686 438 434
f 438 686 688
f 542 687 539
f 687 542 689
f 686 689 688
f 689 686 687
f 168 690 532
f 690 168 691
f 692 172 536
f 172 692 693
f 690 536 532
f 536 690 692
f 172 691 168
f 691 172 693
f 690 693 692
f 693 690 691
f 180 694 226
f 694 180 695
f 696 184 231
f 184 696 697
f 694 231 226
f 231 694 696
f 184 695 180
f 695 184 697
f 694 697 696
f 697 694 695
f 473 698 502
f 698 473 699
f 700 476 507
f 476 700 701
f 698 507 502
f 507 698 700
f 476 699 473
f 699 476 701
f 698 701 700
f 701 698 699
