# Created by Open3D 
# object name: m439
# number of vertices: 356
# number of triangles: 532
v 0.025041 0.066784 0.974995
vn -1.57082 -1.57209 1.56955
v 0.025041 0.066891 0.841625
vn -1.57077 -1.5695 -1.57205
v 0.588834 0.066784 0.974995
vn 1.57082 -1.57209 1.56955
v 0.588834 0.066891 0.841625
vn 1.57077 -1.5695 -1.57205
v 0.588834 0.072847 0.975
vn 1.57077 1.5695 1.57205
v 0.025041 0.072847 0.975
vn -1.57077 1.5695 1.57205
v 0.025041 0.072953 0.84163
vn -1.57082 1.57209 -1.56955
v 0.588834 0.072953 0.84163
vn 1.57082 1.57209 -1.56955
v 0.025041 0.066891 0.841613
vn -1.57082 -1.57209 1.56955
v 0.025041 0.067089 0.592453
vn -1.57077 -1.5695 -1.57205
v 0.588834 0.066891 0.841613
vn 1.57082 -1.57209 1.56955
v 0.588834 0.067089 0.592453
vn 1.57077 -1.5695 -1.57205
v 0.588834 0.072953 0.841618
vn 1.57077 1.5695 1.57205
v 0.025041 0.072953 0.841618
vn -1.57077 1.5695 1.57205
v 0.025041 0.073151 0.592458
vn -1.57082 1.57209 -1.56955
v 0.588834 0.073151 0.592458
vn 1.57082 1.57209 -1.56955
v 0.025 0.067089 0.592461
vn -1.57082 -1.57209 1.56955
v 0.025 0.067224 0.422716
vn -1.57077 -1.5695 -1.57205
v 0.183832 0.067089 0.592461
vn 1.57082 -1.57209 1.56955
v 0.183832 0.067224 0.422716
vn 1.57077 -1.5695 -1.57205
v 0.183832 0.073151 0.592466
vn 1.57077 1.5695 1.57205
v 0.025 0.073151 0.592466
vn -1.57077 1.5695 1.57205
v 0.025 0.073286 0.422721
vn -1.57082 1.57209 -1.56955
v 0.183832 0.073286 0.422721
vn 1.57082 1.57209 -1.56955
v 0.436629 0.067089 0.592461
vn -1.57082 -1.57209 1.56955
v 0.436629 0.067224 0.422716
vn -1.57077 -1.5695 -1.57205
v 0.588793 0.067089 0.592461
vn 1.57082 -1.57209 1.56955
v 0.588793 0.067224 0.422716
vn 1.57077 -1.5695 -1.57205
v 0.588793 0.073151 0.592466
vn 1.57077 1.5695 1.57205
v 0.436629 0.073151 0.592466
vn -1.57077 1.5695 1.57205
v 0.436629 0.073286 0.422721
vn -1.57082 1.57209 -1.56955
v 0.588793 0.073286 0.422721
vn 1.57082 1.57209 -1.56955
v 0.025041 0.067224 0.422726
vn -1.57066 -1.57183 1.56955
v 0.025041 0.067286 0.344522
vn -1.57077 -1.5695 -1.57205
v 0.588834 0.067224 0.422726
vn 1.57066 -1.57183 1.56955
v 0.588834 0.067286 0.344522
vn 1.57077 -1.5695 -1.57205
v 0.588834 0.073286 0.42273
vn 1.57093 1.56976 1.57205
v 0.025041 0.073286 0.42273
vn -1.57093 1.56976 1.57205
v 0.025041 0.073349 0.344527
vn -1.57082 1.57209 -1.56954
v 0.588834 0.073349 0.344527
vn 1.57082 1.57209 -1.56954
v 0.025041 0.067647 0.346595
vn -1.57082 -0.941063 2.0123
v 0.025041 0.043461 0.279917
vn -1.57077 -2.01224 -0.941037
v 0.588834 0.067647 0.346595
vn 1.57082 -0.941063 2.0123
v 0.588834 0.043461 0.279917
vn 1.57077 -2.01224 -0.941037
v 0.588834 0.073346 0.344528
vn 1.57077 2.01224 0.941037
v 0.025041 0.073346 0.344528
vn -1.57077 2.01224 0.941037
v 0.025041 0.04916 0.27785
vn -1.57082 0.941063 -2.0123
v 0.588834 0.04916 0.27785
vn 1.57082 0.941063 -2.0123
v 0.025041 0.04311 0.278321
vn -1.57076 -1.43646 1.69446
v 0.025041 0.037087 0.205214
vn -1.57067 -1.69427 -1.43653
v 0.588834 0.04311 0.278321
vn 1.57076 -1.43646 1.69446
v 0.588834 0.037087 0.205214
vn 1.57067 -1.69427 -1.43653
v 0.588834 0.049152 0.277823
vn 1.57083 1.69453 1.43651
v 0.025041 0.049152 0.277823
vn -1.57083 1.69453 1.43651
v 0.025041 0.043129 0.204717
vn -1.57092 1.43671 -1.69449
v 0.588834 0.043129 0.204717
vn 1.57092 1.43671 -1.69449
v 0.025041 0.037265 0.206539
vn -1.57076 -1.14434 1.90397
v 0.025041 0.025179 0.158038
vn -1.57084 -1.90404 -1.14439
v 0.588834 0.037265 0.206539
vn 1.57076 -1.14434 1.90397
v 0.588834 0.025179 0.158038
vn 1.57084 -1.90404 -1.14439
v 0.588834 0.043147 0.205073
vn 1.57084 1.90404 1.14439
v 0.025041 0.043147 0.205073
vn -1.57084 1.90404 1.14439
v 0.025041 0.031062 0.156572
vn -1.57076 1.14434 -1.90397
v 0.588834 0.031062 0.156572
vn 1.57076 1.14434 -1.90397
v 0.025041 0.025 0.156552
vn -1.57082 -1.57209 1.56954
v 0.025041 0.025105 0.025
vn -1.5708 -1.56955 -1.57205
v 0.588834 0.025 0.156552
vn 1.57082 -1.57209 1.56954
v 0.588834 0.025105 0.025
vn 1.5708 -1.56955 -1.57205
v 0.588834 0.031062 0.156557
vn 1.57077 1.5695 1.57205
v 0.025041 0.031062 0.156557
vn -1.57077 1.5695 1.57205
v 0.025041 0.031167 0.025005
vn -1.57079 1.57204 -1.56954
v 0.588834 0.031167 0.025005
vn 1.57079 1.57204 -1.56954
v 0.183829 0.059816 0.592472
vn -1.57074 -1.57201 1.5695
v 0.183829 0.059819 0.58944
vn -1.57081 -1.56953 -1.57209
v 0.311137 0.059816 0.592472
vn 1.57074 -1.57201 1.5695
v 0.311137 0.059819 0.58944
vn 1.57081 -1.56953 -1.57209
v 0.311137 0.088309 0.592494
vn 1.57082 1.56958 1.57204
v 0.183829 0.088309 0.592494
vn -1.57082 1.56958 1.57204
v 0.183829 0.088312 0.589463
vn -1.57081 1.57206 -1.56955
v 0.311137 0.088312 0.589463
vn 1.57081 1.57206 -1.56955
v 0.311137 0.073152 0.592482
vn -1.5708 -1.57204 1.56955
v 0.311137 0.073155 0.589451
vn -1.5708 -1.56955 -1.57204
v 0.436627 0.073152 0.592482
vn 1.5708 -1.57204 1.56955
v 0.436627 0.073155 0.589451
vn 1.5708 -1.56955 -1.57204
v 0.436627 0.088308 0.592494
vn 1.5708 1.56955 1.57204
v 0.311137 0.088308 0.592494
vn -1.5708 1.56955 1.57204
v 0.311137 0.08831 0.589463
vn -1.5708 1.57204 -1.56955
v 0.436627 0.08831 0.589463
vn 1.5708 1.57204 -1.56955
v 0.183817 0.059817 0.592455
vn -1.57081 -1.57206 1.56955
v 0.183817 0.059952 0.422711
vn -1.57082 -1.56958 -1.57205
v 0.186848 0.059817 0.592455
vn 1.57081 -1.57206 1.56955
v 0.186848 0.059952 0.422711
vn 1.57082 -1.56958 -1.57205
v 0.186848 0.088309 0.592478
vn 1.57079 1.56953 1.57205
v 0.183817 0.088309 0.592478
vn -1.57079 1.56953 1.57205
v 0.183817 0.088444 0.422733
vn -1.57077 1.57201 -1.56955
v 0.186848 0.088444 0.422733
vn 1.57077 1.57201 -1.56955
v 0.433583 0.073152 0.592466
vn -1.57079 -1.57204 1.56955
v 0.433583 0.073287 0.422721
vn -1.5708 -1.56955 -1.57205
v 0.436614 0.073152 0.592466
vn 1.57079 -1.57204 1.56955
v 0.436614 0.073287 0.422721
vn 1.5708 -1.56955 -1.57205
v 0.436614 0.088308 0.592478
vn 1.5708 1.56955 1.57205
v 0.433583 0.088308 0.592478
vn -1.5708 1.56955 1.57205
v 0.433583 0.088443 0.422733
vn -1.57079 1.57204 -1.56955
v 0.436614 0.088443 0.422733
vn 1.57079 1.57204 -1.56955
v 0.183829 0.059949 0.425759
vn -1.57078 -1.57201 1.56955
v 0.183829 0.059952 0.422727
vn -1.57078 -1.56953 -1.57204
v 0.311137 0.059949 0.425759
vn 1.57078 -1.57201 1.56955
v 0.311137 0.059952 0.422727
vn 1.57078 -1.56953 -1.57204
v 0.311137 0.088442 0.425781
vn 1.57082 1.56958 1.57204
v 0.183829 0.088442 0.425781
vn -1.57082 1.56958 1.57204
v 0.183829 0.088444 0.42275
vn -1.57081 1.57206 -1.56955
v 0.311137 0.088444 0.42275
vn 1.57081 1.57206 -1.56955
v 0.311137 0.073285 0.425769
vn -1.5708 -1.57204 1.56955
v 0.311137 0.073287 0.422738
vn -1.5708 -1.56955 -1.57204
v 0.436627 0.073285 0.425769
vn 1.5708 -1.57204 1.56955
v 0.436627 0.073287 0.422738
vn 1.5708 -1.56955 -1.57204
v 0.436627 0.088441 0.425781
vn 1.57083 1.56955 1.57209
v 0.311137 0.088441 0.425781
vn -1.57083 1.56955 1.57209
v 0.311137 0.088443 0.42275
vn -1.57076 1.57204 -1.5695
v 0.436627 0.088443 0.42275
vn 1.57076 1.57204 -1.5695
v 0.309306 0.059815 0.592455
vn -1.57082 -1.57209 1.56955
v 0.309306 0.05995 0.422711
vn -1.57084 -1.56962 -1.57205
v 0.312337 0.059815 0.592455
vn 1.57082 -1.57209 1.56955
v 0.312337 0.05995 0.422711
vn 1.57084 -1.56962 -1.57205
v 0.312337 0.073152 0.592466
vn 1.57077 1.5695 1.57205
v 0.309306 0.073152 0.592466
vn -1.57077 1.5695 1.57205
v 0.309306 0.073287 0.422721
vn -1.57075 1.57197 -1.56955
v 0.312337 0.073287 0.422721
vn 1.57075 1.57197 -1.56955
v 0.183829 0.054964 0.592451
vn -1.57082 -1.57209 1.56955
v 0.183829 0.055099 0.422707
vn -1.57077 -1.5695 -1.57205
v 0.31235 0.054964 0.592451
vn 1.57082 -1.57209 1.56955
v 0.31235 0.055099 0.422707
vn 1.57077 -1.5695 -1.57205
v 0.31235 0.059814 0.592455
vn 1.57077 1.5695 1.57205
v 0.183829 0.059814 0.592455
vn -1.57077 1.5695 1.57205
v 0.183829 0.059949 0.422711
vn -1.57082 1.57209 -1.56955
v 0.31235 0.059949 0.422711
vn 1.57082 1.57209 -1.56955
v 0.309319 0.068301 0.592462
vn -1.57082 -1.57209 1.56955
v 0.309319 0.068436 0.422717
vn -1.57077 -1.5695 -1.57205
v 0.436627 0.068301 0.592462
vn 1.57082 -1.57209 1.56955
v 0.436627 0.068436 0.422717
vn 1.57077 -1.5695 -1.57205
v 0.436627 0.073151 0.592466
vn 1.57077 1.5695 1.57205
v 0.309319 0.073151 0.592466
vn -1.57077 1.5695 1.57205
v 0.309319 0.073286 0.422721
vn -1.57082 1.57209 -1.56955
v 0.436627 0.073286 0.422721
vn 1.57082 1.57209 -1.56955
v 0.183829 0.088312 0.592494
vn -1.57077 -1.57205 1.5695
v 0.183829 0.088314 0.589463
vn -1.57082 -1.56955 -1.57209
v 0.311137 0.088312 0.592494
vn 1.57077 -1.57205 1.5695
v 0.311137 0.088314 0.589463
vn 1.57082 -1.56955 -1.57209
v 0.311137 0.141054 0.592536
vn 1.57066 1.56955 1.57183
v 0.183829 0.141054 0.592536
vn -1.57066 1.56955 1.57183
v 0.183829 0.141056 0.589505
vn -1.57093 1.57205 -1.56976
v 0.311137 0.141056 0.589505
vn 1.57093 1.57205 -1.56976
v 0.183817 0.088312 0.592478
vn -1.5708 -1.57205 1.56955
v 0.183817 0.088447 0.422733
vn -1.5708 -1.56955 -1.57205
v 0.186848 0.088312 0.592478
vn 1.5708 -1.57205 1.56955
v 0.186848 0.088447 0.422733
vn 1.5708 -1.56955 -1.57205
v 0.186848 0.141054 0.59252
vn 1.5708 1.56955 1.57205
v 0.183817 0.141054 0.59252
vn -1.5708 1.56955 1.57205
v 0.183817 0.141189 0.422775
vn -1.5708 1.57205 -1.56955
v 0.186848 0.141189 0.422775
vn 1.5708 1.57205 -1.56955
v 0.183829 0.088444 0.425781
vn -1.5708 -1.57205 1.56955
v 0.183829 0.088447 0.42275
vn -1.57079 -1.56955 -1.57204
v 0.311137 0.088444 0.425781
vn 1.5708 -1.57205 1.56955
v 0.311137 0.088447 0.42275
vn 1.57079 -1.56955 -1.57204
v 0.311137 0.141186 0.425823
vn 1.57099 1.56955 1.57235
v 0.183829 0.141186 0.425823
vn -1.57099 1.56955 1.57235
v 0.183829 0.141189 0.422792
vn -1.5706 1.57205 -1.56924
v 0.311137 0.141189 0.422792
vn 1.5706 1.57205 -1.56924
v 0.311137 0.088314 0.592494
vn -1.5708 -1.57205 1.56955
v 0.311137 0.088317 0.589463
vn -1.57079 -1.56954 -1.57204
v 0.436627 0.088314 0.592494
vn 1.5708 -1.57205 1.56955
v 0.436627 0.088317 0.589463
vn 1.57079 -1.56954 -1.57204
v 0.436627 0.167124 0.592557
vn 1.57066 1.56954 1.57183
v 0.311137 0.167124 0.592557
vn -1.57066 1.56954 1.57183
v 0.311137 0.167126 0.589526
vn -1.57094 1.57205 -1.56976
v 0.436627 0.167126 0.589526
vn 1.57094 1.57205 -1.56976
v 0.433583 0.088314 0.592478
vn -1.57079 -1.57203 1.56955
v 0.433583 0.088449 0.422733
vn -1.57079 -1.56954 -1.57205
v 0.436614 0.088314 0.592478
vn 1.57079 -1.57203 1.56955
v 0.436614 0.088449 0.422733
vn 1.57079 -1.56954 -1.57205
v 0.436614 0.167124 0.59254
vn 1.57081 1.56956 1.57205
v 0.433583 0.167124 0.59254
vn -1.57081 1.56956 1.57205
v 0.433583 0.167259 0.422796
vn -1.5708 1.57205 -1.56955
v 0.436614 0.167259 0.422796
vn 1.5708 1.57205 -1.56955
v 0.311137 0.088447 0.425781
vn -1.5708 -1.57205 1.56955
v 0.311137 0.088449 0.42275
vn -1.57079 -1.56954 -1.57204
v 0.436627 0.088447 0.425781
vn 1.5708 -1.57205 1.56955
v 0.436627 0.088449 0.42275
vn 1.57079 -1.56954 -1.57204
v 0.436627 0.167257 0.425844
vn 1.57066 1.56954 1.57183
v 0.311137 0.167257 0.425844
vn -1.57066 1.56954 1.57183
v 0.311137 0.167259 0.422813
vn -1.57094 1.57205 -1.56976
v 0.436627 0.167259 0.422813
vn 1.57094 1.57205 -1.56976
v 0.309306 0.141051 0.59252
vn -1.57077 -1.572 1.56955
v 0.309306 0.141186 0.422775
vn -1.57079 -1.56953 -1.57205
v 0.312337 0.141051 0.59252
vn 1.57077 -1.572 1.56955
v 0.312337 0.141186 0.422775
vn 1.57079 -1.56953 -1.57205
v 0.312337 0.167119 0.59254
vn 1.57082 1.56959 1.57205
v 0.309306 0.167119 0.59254
vn -1.57082 1.56959 1.57205
v 0.309306 0.167254 0.422796
vn -1.57081 1.57206 -1.56955
v 0.312337 0.167254 0.422796
vn 1.57081 1.57206 -1.56955
v 0.183816 0.141041 0.60163
vn -0.321808 -0.081033 0.49675
v 0.311125 0.141041 0.60163
vn 0.321808 -0.081033 0.49675
v 0.311125 0.172444 0.507689
vn 2.49797 2.98032 0.002374
v 0.183816 0.172444 0.507689
vn -2.49797 2.98032 0.002374
v 0.311125 0.141191 0.413699
vn 0.321811 -0.080242 -0.496884
v 0.183816 0.141191 0.413699
vn -0.321811 -0.080242 -0.496884
v 0.445707 0.167116 0.592557
vn 0.496799 -0.080897 0.321799
v 0.445724 0.167251 0.422813
vn 0.496854 -0.080383 -0.321828
v 0.373886 0.191202 0.422825
vn 0.000251 2.9823 -2.4956
v 0.373869 0.191067 0.59257
vn -0.00023 2.97827 2.50034
v 0.302047 0.167251 0.422799
vn -0.496786 -0.080381 -0.321922
v 0.302031 0.167116 0.592544
vn -0.496853 -0.080895 0.321702
v 0.379634 0.072846 0.974975
vn -1.57165 -1.57339 1.56954
v 0.379634 0.073151 0.592444
vn -1.56994 -1.5682 -1.57205
v 0.432982 0.072846 0.974975
vn 1.57165 -1.57339 1.56954
v 0.432982 0.073151 0.592444
vn 1.56994 -1.5682 -1.57205
v 0.432982 0.073452 0.974976
vn 1.56994 1.5682 1.57205
v 0.379634 0.073452 0.974976
vn -1.56994 1.5682 1.57205
v 0.379634 0.073757 0.592445
vn -1.57165 1.57339 -1.56954
v 0.432982 0.073757 0.592445
vn 1.57165 1.57339 -1.56954
v 0.135323 0.076303 0.441527
vn -1.57066 -1.57183 1.56955
v 0.135323 0.07636 0.368779
vn -1.57077 -1.5695 -1.57205
v 0.183821 0.076303 0.441527
vn 1.57066 -1.57183 1.56955
v 0.183821 0.07636 0.368779
vn 1.57077 -1.5695 -1.57205
v 0.183821 0.082365 0.441531
vn 1.57093 1.56976 1.57205
v 0.135323 0.082365 0.441531
vn -1.57093 1.56976 1.57205
v 0.135323 0.082423 0.368784
vn -1.57082 1.57209 -1.56955
v 0.183821 0.082423 0.368784
vn 1.57082 1.57209 -1.56955
v 0.183822 0.079349 0.422738
vn -1.57066 -1.57183 1.56954
v 0.183822 0.079392 0.368177
vn -1.57077 -1.5695 -1.57205
v 0.244445 0.079349 0.422738
vn 1.57066 -1.57183 1.56954
v 0.244445 0.079392 0.368177
vn 1.57077 -1.5695 -1.57205
v 0.244445 0.085411 0.422742
vn 1.57093 1.56976 1.57205
v 0.183822 0.085411 0.422742
vn -1.57093 1.56976 1.57205
v 0.183822 0.085455 0.368182
vn -1.57082 1.57209 -1.56954
v 0.244445 0.085455 0.368182
vn 1.57082 1.57209 -1.56954
v 0.279602 0.091341 0.593103
vn -1.57081 -1.57203 1.56959
v 0.279602 0.091342 0.591284
vn -1.57075 -1.56952 -1.57201
v 0.297789 0.091341 0.593103
vn 1.57081 -1.57203 1.56959
v 0.297789 0.091342 0.591284
vn 1.57075 -1.56952 -1.57201
v 0.297789 0.130746 0.593134
vn 1.57056 1.56956 1.57166
v 0.279602 0.130746 0.593134
vn -1.57056 1.56956 1.57166
v 0.279602 0.130747 0.591316
vn -1.57106 1.57207 -1.56993
v 0.297789 0.130747 0.591316
vn 1.57106 1.57207 -1.56993
v 0.188672 0.091476 0.423965
vn -1.57081 -1.57203 1.56959
v 0.188672 0.091477 0.422146
vn -1.57075 -1.56952 -1.57201
v 0.243232 0.091476 0.423965
vn 1.57081 -1.57203 1.56959
v 0.243232 0.091477 0.422146
vn 1.57075 -1.56952 -1.57201
v 0.243232 0.130881 0.423996
vn 1.57056 1.56956 1.57166
v 0.188672 0.130881 0.423996
vn -1.57056 1.56956 1.57166
v 0.188672 0.130882 0.422178
vn -1.57106 1.57207 -1.56993
v 0.243232 0.130882 0.422178
vn 1.57106 1.57207 -1.56993
v 0.435402 0.076301 0.447594
vn -1.57081 -1.57207 1.56954
v 0.435402 0.076316 0.429407
vn -1.57078 -1.56952 -1.57205
v 0.43722 0.076301 0.447594
vn 1.57081 -1.57207 1.56954
v 0.43722 0.076316 0.429407
vn 1.57078 -1.56952 -1.57205
v 0.43722 0.115706 0.447626
vn 1.57081 1.56952 1.57209
v 0.435402 0.115706 0.447626
vn -1.57081 1.56952 1.57209
v 0.435402 0.115721 0.429439
vn -1.57078 1.57207 -1.5695
v 0.43722 0.115721 0.429439
vn 1.57078 1.57207 -1.5695
v 0.382058 0.073154 0.593089
vn -1.57081 -1.57203 1.56959
v 0.382058 0.073155 0.59127
vn -1.57078 -1.56956 -1.57201
v 0.430557 0.073154 0.593089
vn 1.57081 -1.57203 1.56959
v 0.430557 0.073155 0.59127
vn 1.57078 -1.56956 -1.57201
v 0.430557 0.112559 0.59312
vn 1.57056 1.56956 1.57166
v 0.382058 0.112559 0.59312
vn -1.57056 1.56956 1.57166
v 0.382058 0.11256 0.591301
vn -1.57103 1.57203 -1.56993
v 0.430557 0.11256 0.591301
vn 1.57103 1.57203 -1.56993
v 0.206859 0.103464 0.593113
vn -1.57047 -1.57201 1.56907
v 0.206859 0.103466 0.591294
vn -1.57109 -1.56953 -1.57252
v 0.267482 0.103464 0.593113
vn 1.57047 -1.57201 1.56907
v 0.267482 0.103466 0.591294
vn 1.57109 -1.56953 -1.57252
v 0.267482 0.130745 0.593134
vn 1.57058 1.56959 1.57166
v 0.206859 0.130745 0.593134
vn -1.57058 1.56959 1.57166
v 0.206859 0.130746 0.591316
vn -1.57105 1.57206 -1.56993
v 0.267482 0.130746 0.591316
vn 1.57105 1.57206 -1.56993
v 0.322041 0.091339 0.593103
vn -1.57083 -1.57205 1.56959
v 0.322041 0.091341 0.591284
vn -1.57077 -1.56954 -1.57201
v 0.364477 0.091339 0.593103
vn 1.57083 -1.57205 1.56959
v 0.364477 0.091341 0.591284
vn 1.57077 -1.56954 -1.57201
v 0.364477 0.112557 0.59312
vn 1.57109 1.56954 1.57252
v 0.322041 0.112557 0.59312
vn -1.57109 1.56954 1.57252
v 0.322041 0.112559 0.591301
vn -1.5705 1.57205 -1.56907
v 0.364477 0.112559 0.591301
vn 1.5705 1.57205 -1.56907
v 0.322041 0.139838 0.593142
vn -1.57105 -1.57205 1.56993
v 0.322041 0.139839 0.591323
vn -1.57054 -1.56954 -1.57166
v 0.364477 0.139838 0.593142
vn 1.57105 -1.57205 1.56993
v 0.364477 0.139839 0.591323
vn 1.57054 -1.56954 -1.57166
v 0.364477 0.161056 0.593159
vn 1.57054 1.56954 1.57166
v 0.322041 0.161056 0.593159
vn -1.57054 1.56954 1.57166
v 0.322041 0.161057 0.59134
vn -1.57105 1.57205 -1.56993
v 0.364477 0.161057 0.59134
vn 1.57105 1.57205 -1.56993
v 0.382664 0.139838 0.593142
vn -1.57105 -1.57205 1.56993
v 0.382664 0.139839 0.591323
vn -1.57054 -1.56954 -1.57166
v 0.4251 0.139838 0.593142
vn 1.57105 -1.57205 1.56993
v 0.4251 0.139839 0.591323
vn 1.57054 -1.56954 -1.57166
v 0.4251 0.161056 0.593159
vn 1.57054 1.56954 1.57166
v 0.382664 0.161056 0.593159
vn -1.57054 1.56954 1.57166
v 0.382664 0.161057 0.59134
vn -1.57105 1.57205 -1.56993
v 0.4251 0.161057 0.59134
vn 1.57105 1.57205 -1.56993
v 0.435402 0.139881 0.538579
vn -1.5708 -1.57205 1.56954
v 0.435402 0.139898 0.517361
vn -1.5708 -1.56954 -1.57205
v 0.43722 0.139881 0.538579
vn 1.5708 -1.57205 1.56954
v 0.43722 0.139898 0.517361
vn 1.5708 -1.56954 -1.57205
v 0.43722 0.161099 0.538596
vn 1.5708 1.56954 1.57205
v 0.435402 0.161099 0.538596
vn -1.5708 1.56954 1.57205
v 0.435402 0.161116 0.517378
vn -1.5708 1.57205 -1.56954
v 0.43722 0.161116 0.517378
vn 1.5708 1.57205 -1.56954
v 0.435402 0.13992 0.490081
vn -1.57084 -1.57205 1.56961
v 0.435402 0.139936 0.468863
vn -1.57075 -1.56954 -1.57198
v 0.43722 0.13992 0.490081
vn 1.57084 -1.57205 1.56961
v 0.43722 0.139936 0.468863
vn 1.57075 -1.56954 -1.57198
v 0.43722 0.161138 0.490098
vn 1.5708 1.56954 1.57205
v 0.435402 0.161138 0.490098
vn -1.5708 1.56954 1.57205
v 0.435402 0.161155 0.46888
vn -1.5708 1.57205 -1.56954
v 0.43722 0.161155 0.46888
vn 1.5708 1.57205 -1.56954
v 0.382662 0.139972 0.424004
vn -1.5705 -1.57205 1.56907
v 0.382662 0.139974 0.422185
vn -1.57109 -1.56954 -1.57252
v 0.40388 0.139972 0.424004
vn 1.5705 -1.57205 1.56907
v 0.40388 0.139974 0.422185
vn 1.57109 -1.56954 -1.57252
v 0.40388 0.16119 0.424021
vn 1.57109 1.56954 1.57252
v 0.382662 0.16119 0.424021
vn -1.57109 1.56954 1.57252
v 0.382662 0.161192 0.422202
vn -1.5705 1.57205 -1.56907
v 0.40388 0.161192 0.422202
vn 1.5705 1.57205 -1.56907
v 0.328101 0.139972 0.424004
vn -1.5705 -1.57205 1.56907
v 0.328101 0.139974 0.422185
vn -1.57109 -1.56954 -1.57252
v 0.346288 0.139972 0.424004
vn 1.5705 -1.57205 1.56907
v 0.346288 0.139974 0.422185
vn 1.57109 -1.56954 -1.57252
v 0.346288 0.16119 0.424021
vn 1.57109 1.56954 1.57252
v 0.328101 0.16119 0.424021
vn -1.57109 1.56954 1.57252
v 0.328101 0.161192 0.422202
vn -1.5705 1.57205 -1.56907
v 0.346288 0.161192 0.422202
vn 1.5705 1.57205 -1.56907
v 0.267478 0.115722 0.423984
vn -1.57049 -1.57204 1.56907
v 0.267478 0.115724 0.422166
vn -1.57111 -1.56955 -1.57252
v 0.288696 0.115722 0.423984
vn 1.57049 -1.57204 1.56907
v 0.288696 0.115724 0.422166
vn 1.57111 -1.56955 -1.57252
v 0.288696 0.130878 0.423996
vn 1.57111 1.56955 1.57252
v 0.267478 0.130878 0.423996
vn -1.57111 1.56955 1.57252
v 0.267478 0.13088 0.422178
vn -1.57049 1.57204 -1.56907
v 0.288696 0.13088 0.422178
vn 1.57049 1.57204 -1.56907
v 0.358413 0.091474 0.423965
vn -1.57077 -1.57205 1.5695
v 0.358413 0.091475 0.422146
vn -1.57082 -1.56954 -1.57209
v 0.379631 0.091474 0.423965
vn 1.57077 -1.57205 1.5695
v 0.379631 0.091475 0.422146
vn 1.57082 -1.56954 -1.57209
v 0.379631 0.112692 0.423982
vn 1.57054 1.56954 1.57166
v 0.358413 0.112692 0.423982
vn -1.57054 1.56954 1.57166
v 0.358413 0.112693 0.422163
vn -1.57105 1.57205 -1.56993
v 0.379631 0.112693 0.422163
vn 1.57105 1.57205 -1.56993
v 0.328101 0.103597 0.423975
vn -1.57047 -1.572 1.56907
v 0.328101 0.103599 0.422156
vn -1.57113 -1.56959 -1.57252
v 0.346288 0.103597 0.423975
vn 1.57047 -1.572 1.56907
v 0.346288 0.103599 0.422156
vn 1.57113 -1.56959 -1.57252
v 0.346288 0.112691 0.423982
vn 1.57058 1.56959 1.57166
v 0.328101 0.112691 0.423982
vn -1.57058 1.56959 1.57166
v 0.328101 0.112692 0.422163
vn -1.57102 1.57201 -1.56993
v 0.346288 0.112692 0.422163
vn 1.57102 1.57201 -1.56993
f 1//1 2//2 3//3
f 3//3 2//2 4//4
f 1//1 5//5 6//6
f 1//1 3//3 5//5
f 1//1 6//6 2//2
f 2//2 6//6 7//7
f 2//2 7//7 8//8
f 2//2 8//8 4//4
f 3//3 8//8 5//5
f 3//3 4//4 8//8
f 5//5 7//7 6//6
f 5//5 8//8 7//7
f 9//9 10//10 11//11
f 11//11 10//10 12//12
f 9//9 13//13 14//14
f 9//9 11//11 13//13
f 9//9 14//14 10//10
f 10//10 14//14 15//15
f 10//10 15//15 16//16
f 10//10 16//16 12//12
f 11//11 16//16 13//13
f 11//11 12//12 16//16
f 13//13 15//15 14//14
f 13//13 16//16 15//15
f 17//17 18//18 19//19
f 19//19 18//18 20//20
f 17//17 21//21 22//22
f 17//17 19//19 21//21
f 17//17 22//22 18//18
f 18//18 22//22 23//23
f 18//18 23//23 24//24
f 18//18 24//24 20//20
f 19//19 24//24 21//21
f 19//19 20//20 24//24
f 21//21 23//23 22//22
f 21//21 24//24 23//23
f 25//25 26//26 27//27
f 27//27 26//26 28//28
f 25//25 29//29 30//30
f 25//25 27//27 29//29
f 25//25 30//30 26//26
f 26//26 30//30 31//31
f 26//26 31//31 32//32
f 26//26 32//32 28//28
f 27//27 32//32 29//29
f 27//27 28//28 32//32
f 29//29 31//31 30//30
f 29//29 32//32 31//31
f 33//33 34//34 35//35
f 35//35 34//34 36//36
f 33//33 37//37 38//38
f 33//33 35//35 37//37
f 33//33 38//38 34//34
f 34//34 38//38 39//39
f 34//34 39//39 40//40
f 34//34 40//40 36//36
f 35//35 40//40 37//37
f 35//35 36//36 40//40
f 37//37 39//39 38//38
f 37//37 40//40 39//39
f 41//41 42//42 43//43
f 43//43 42//42 44//44
f 41//41 45//45 46//46
f 41//41 43//43 45//45
f 41//41 46//46 42//42
f 42//42 46//46 47//47
f 42//42 47//47 48//48
f 42//42 48//48 44//44
f 43//43 48//48 45//45
f 43//43 44//44 48//48
f 45//45 47//47 46//46
f 45//45 48//48 47//47
f 49//49 50//50 51//51
f 51//51 50//50 52//52
f 49//49 53//53 54//54
f 49//49 51//51 53//53
f 49//49 54//54 50//50
f 50//50 54//54 55//55
f 50//50 55//55 56//56
f 50//50 56//56 52//52
f 51//51 56//56 53//53
f 51//51 52//52 56//56
f 53//53 55//55 54//54
f 53//53 56//56 55//55
f 57//57 58//58 59//59
f 59//59 58//58 60//60
f 57//57 61//61 62//62
f 57//57 59//59 61//61
f 57//57 62//62 58//58
f 58//58 62//62 63//63
f 58//58 63//63 64//64
f 58//58 64//64 60//60
f 59//59 64//64 61//61
f 59//59 60//60 64//64
f 61//61 63//63 62//62
f 61//61 64//64 63//63
f 65//65 66//66 67//67
f 67//67 66//66 68//68
f 65//65 69//69 70//70
f 65//65 67//67 69//69
f 65//65 70//70 66//66
f 66//66 70//70 71//71
f 66//66 71//71 72//72
f 66//66 72//72 68//68
f 67//67 72//72 69//69
f 67//67 68//68 72//72
f 69//69 71//71 70//70
f 69//69 72//72 71//71
f 73//73 74//74 75//75
f 75//75 74//74 76//76
f 73//73 77//77 78//78
f 73//73 75//75 77//77
f 73//73 78//78 74//74
f 74//74 78//78 79//79
f 74//74 79//79 80//80
f 74//74 80//80 76//76
f 75//75 80//80 77//77
f 75//75 76//76 80//80
f 77//77 79//79 78//78
f 77//77 80//80 79//79
f 81//81 82//82 83//83
f 83//83 82//82 84//84
f 81//81 85//85 86//86
f 81//81 83//83 85//85
f 81//81 86//86 82//82
f 82//82 86//86 87//87
f 82//82 87//87 88//88
f 82//82 88//88 84//84
f 83//83 88//88 85//85
f 83//83 84//84 88//88
f 85//85 87//87 86//86
f 85//85 88//88 87//87
f 89//89 90//90 91//91
f 91//91 90//90 92//92
f 89//89 93//93 94//94
f 89//89 91//91 93//93
f 89//89 94//94 90//90
f 90//90 94//94 95//95
f 90//90 95//95 96//96
f 90//90 96//96 92//92
f 91//91 96//96 93//93
f 91//91 92//92 96//96
f 93//93 95//95 94//94
f 93//93 96//96 95//95
f 97//97 98//98 99//99
f 99//99 98//98 100//100
f 97//97 101//101 102//102
f 97//97 99//99 101//101
f 97//97 102//102 98//98
f 98//98 102//102 103//103
f 98//98 103//103 104//104
f 98//98 104//104 100//100
f 99//99 104//104 101//101
f 99//99 100//100 104//104
f 101//101 103//103 102//102
f 101//101 104//104 103//103
f 105//105 106//106 107//107
f 107//107 106//106 108//108
f 105//105 109//109 110//110
f 105//105 107//107 109//109
f 105//105 110//110 106//106
f 106//106 110//110 111//111
f 106//106 111//111 112//112
f 106//106 112//112 108//108
f 107//107 112//112 109//109
f 107//107 108//108 112//112
f 109//109 111//111 110//110
f 109//109 112//112 111//111
f 113//113 114//114 115//115
f 115//115 114//114 116//116
f 113//113 117//117 118//118
f 113//113 115//115 117//117
f 113//113 118//118 114//114
f 114//114 118//118 119//119
f 114//114 119//119 120//120
f 114//114 120//120 116//116
f 115//115 120//120 117//117
f 115//115 116//116 120//120
f 117//117 119//119 118//118
f 117//117 120//120 119//119
f 121//121 122//122 123//123
f 123//123 122//122 124//124
f 121//121 125//125 126//126
f 121//121 123//123 125//125
f 121//121 126//126 122//122
f 122//122 126//126 127//127
f 122//122 127//127 128//128
f 122//122 128//128 124//124
f 123//123 128//128 125//125
f 123//123 124//124 128//128
f 125//125 127//127 126//126
f 125//125 128//128 127//127
f 129//129 130//130 131//131
f 131//131 130//130 132//132
f 129//129 133//133 134//134
f 129//129 131//131 133//133
f 129//129 134//134 130//130
f 130//130 134//134 135//135
f 130//130 135//135 136//136
f 130//130 136//136 132//132
f 131//131 136//136 133//133
f 131//131 132//132 136//136
f 133//133 135//135 134//134
f 133//133 136//136 135//135
f 137//137 138//138 139//139
f 139//139 138//138 140//140
f 137//137 141//141 142//142
f 137//137 139//139 141//141
f 137//137 142//142 138//138
f 138//138 142//142 143//143
f 138//138 143//143 144//144
f 138//138 144//144 140//140
f 139//139 144//144 141//141
f 139//139 140//140 144//144
f 141//141 143//143 142//142
f 141//141 144//144 143//143
f 145//145 146//146 147//147
f 147//147 146//146 148//148
f 145//145 149//149 150//150
f 145//145 147//147 149//149
f 145//145 150//150 146//146
f 146//146 150//150 151//151
f 146//146 151//151 152//152
f 146//146 152//152 148//148
f 147//147 152//152 149//149
f 147//147 148//148 152//152
f 149//149 151//151 150//150
f 149//149 152//152 151//151
f 153//153 154//154 155//155
f 155//155 154//154 156//156
f 153//153 157//157 158//158
f 153//153 155//155 157//157
f 153//153 158//158 154//154
f 154//154 158//158 159//159
f 154//154 159//159 160//160
f 154//154 160//160 156//156
f 155//155 160//160 157//157
f 155//155 156//156 160//160
f 157//157 159//159 158//158
f 157//157 160//160 159//159
f 161//161 162//162 163//163
f 163//163 162//162 164//164
f 161//161 165//165 166//166
f 161//161 163//163 165//165
f 161//161 166//166 162//162
f 162//162 166//166 167//167
f 162//162 167//167 168//168
f 162//162 168//168 164//164
f 163//163 168//168 165//165
f 163//163 164//164 168//168
f 165//165 167//167 166//166
f 165//165 168//168 167//167
f 169//169 170//170 171//171
f 171//171 170//170 172//172
f 169//169 173//173 174//174
f 169//169 171//171 173//173
f 169//169 174//174 170//170
f 170//170 174//174 175//175
f 170//170 175//175 176//176
f 170//170 176//176 172//172
f 171//171 176//176 173//173
f 171//171 172//172 176//176
f 173//173 175//175 174//174
f 173//173 176//176 175//175
f 177//177 178//178 179//179
f 179//179 178//178 180//180
f 177//177 181//181 182//182
f 177//177 179//179 181//181
f 177//177 182//182 178//178
f 178//178 182//182 183//183
f 178//178 183//183 184//184
f 178//178 184//184 180//180
f 179//179 184//184 181//181
f 179//179 180//180 184//184
f 181//181 183//183 182//182
f 181//181 184//184 183//183
f 185//185 186//186 187//187
f 187//187 186//186 188//188
f 185//185 189//189 190//190
f 185//185 187//187 189//189
f 185//185 190//190 186//186
f 186//186 190//190 191//191
f 186//186 191//191 192//192
f 186//186 192//192 188//188
f 187//187 192//192 189//189
f 187//187 188//188 192//192
f 189//189 191//191 190//190
f 189//189 192//192 191//191
f 193//193 194//194 195//195
f 195//195 194//194 196//196
f 193//193 197//197 198//198
f 193//193 195//195 197//197
f 193//193 198//198 194//194
f 194//194 198//198 199//199
f 194//194 199//199 200//200
f 194//194 200//200 196//196
f 195//195 200//200 197//197
f 195//195 196//196 200//200
f 197//197 199//199 198//198
f 197//197 200//200 199//199
f 201//201 202//202 203//203
f 204//204 203//203 205//205
f 201//201 206//206 205//205
f 201//201 204//204 206//206
f 202//202 205//205 203//203
f 207//207 208//208 209//209
f 210//210 209//209 211//211
f 207//207 212//212 211//211
f 207//207 210//210 212//212
f 208//208 211//211 209//209
f 213//213 214//214 215//215
f 215//215 214//214 216//216
f 213//213 217//217 218//218
f 213//213 215//215 217//217
f 213//213 218//218 214//214
f 214//214 218//218 219//219
f 214//214 219//219 220//220
f 214//214 220//220 216//216
f 215//215 220//220 217//217
f 215//215 216//216 220//220
f 217//217 219//219 218//218
f 217//217 220//220 219//219
f 221//221 222//222 223//223
f 223//223 222//222 224//224
f 221//221 225//225 226//226
f 221//221 223//223 225//225
f 221//221 226//226 222//222
f 222//222 226//226 227//227
f 222//222 227//227 228//228
f 222//222 228//228 224//224
f 223//223 228//228 225//225
f 223//223 224//224 228//228
f 225//225 227//227 226//226
f 225//225 228//228 227//227
f 229//229 230//230 231//231
f 231//231 230//230 232//232
f 229//229 233//233 234//234
f 229//229 231//231 233//233
f 229//229 234//234 230//230
f 230//230 234//234 235//235
f 230//230 235//235 236//236
f 230//230 236//236 232//232
f 231//231 236//236 233//233
f 231//231 232//232 236//236
f 233//233 235//235 234//234
f 233//233 236//236 235//235
f 237//237 238//238 239//239
f 239//239 238//238 240//240
f 237//237 241//241 242//242
f 237//237 239//239 241//241
f 237//237 242//242 238//238
f 238//238 242//242 243//243
f 238//238 243//243 244//244
f 238//238 244//244 240//240
f 239//239 244//244 241//241
f 239//239 240//240 244//244
f 241//241 243//243 242//242
f 241//241 244//244 243//243
f 245//245 246//246 247//247
f 247//247 246//246 248//248
f 245//245 249//249 250//250
f 245//245 247//247 249//249
f 245//245 250//250 246//246
f 246//246 250//250 251//251
f 246//246 251//251 252//252
f 246//246 252//252 248//248
f 247//247 252//252 249//249
f 247//247 248//248 252//252
f 249//249 251//251 250//250
f 249//249 252//252 251//251
f 253//253 254//254 255//255
f 255//255 254//254 256//256
f 253//253 257//257 258//258
f 253//253 255//255 257//257
f 253//253 258//258 254//254
f 254//254 258//258 259//259
f 254//254 259//259 260//260
f 254//254 260//260 256//256
f 255//255 260//260 257//257
f 255//255 256//256 260//260
f 257//257 259//259 258//258
f 257//257 260//260 259//259
f 261//261 262//262 263//263
f 263//263 262//262 264//264
f 261//261 265//265 266//266
f 261//261 263//263 265//265
f 261//261 266//266 262//262
f 262//262 266//266 267//267
f 262//262 267//267 268//268
f 262//262 268//268 264//264
f 263//263 268//268 265//265
f 263//263 264//264 268//268
f 265//265 267//267 266//266
f 265//265 268//268 267//267
f 269//269 270//270 271//271
f 271//271 270//270 272//272
f 269//269 273//273 274//274
f 269//269 271//271 273//273
f 269//269 274//274 270//270
f 270//270 274//274 275//275
f 270//270 275//275 276//276
f 270//270 276//276 272//272
f 271//271 276//276 273//273
f 271//271 272//272 276//276
f 273//273 275//275 274//274
f 273//273 276//276 275//275
f 277//277 278//278 279//279
f 279//279 278//278 280//280
f 277//277 281//281 282//282
f 277//277 279//279 281//281
f 277//277 282//282 278//278
f 278//278 282//282 283//283
f 278//278 283//283 284//284
f 278//278 284//284 280//280
f 279//279 284//284 281//281
f 279//279 280//280 284//284
f 281//281 283//283 282//282
f 281//281 284//284 283//283
f 285//285 286//286 287//287
f 287//287 286//286 288//288
f 285//285 289//289 290//290
f 285//285 287//287 289//289
f 285//285 290//290 286//286
f 286//286 290//290 291//291
f 286//286 291//291 292//292
f 286//286 292//292 288//288
f 287//287 292//292 289//289
f 287//287 288//288 292//292
f 289//289 291//291 290//290
f 289//289 292//292 291//291
f 293//293 294//294 295//295
f 295//295 294//294 296//296
f 293//293 297//297 298//298
f 293//293 295//295 297//297
f 293//293 298//298 294//294
f 294//294 298//298 299//299
f 294//294 299//299 300//300
f 294//294 300//300 296//296
f 295//295 300//300 297//297
f 295//295 296//296 300//300
f 297//297 299//299 298//298
f 297//297 300//300 299//299
f 301//301 302//302 303//303
f 303//303 302//302 304//304
f 301//301 305//305 306//306
f 301//301 303//303 305//305
f 301//301 306//306 302//302
f 302//302 306//306 307//307
f 302//302 307//307 308//308
f 302//302 308//308 304//304
f 303//303 308//308 305//305
f 303//303 304//304 308//308
f 305//305 307//307 306//306
f 305//305 308//308 307//307
f 309//309 310//310 311//311
f 311//311 310//310 312//312
f 309//309 313//313 314//314
f 309//309 311//311 313//313
f 309//309 314//314 310//310
f 310//310 314//314 315//315
f 310//310 315//315 316//316
f 310//310 316//316 312//312
f 311//311 316//316 313//313
f 311//311 312//312 316//316
f 313//313 315//315 314//314
f 313//313 316//316 315//315
f 317//317 318//318 319//319
f 319//319 318//318 320//320
f 317//317 321//321 322//322
f 317//317 319//319 321//321
f 317//317 322//322 318//318
f 318//318 322//322 323//323
f 318//318 323//323 324//324
f 318//318 324//324 320//320
f 319//319 324//324 321//321
f 319//319 320//320 324//324
f 321//321 323//323 322//322
f 321//321 324//324 323//323
f 325//325 326//326 327//327
f 327//327 326//326 328//328
f 325//325 329//329 330//330
f 325//325 327//327 329//329
f 325//325 330//330 326//326
f 326//326 330//330 331//331
f 326//326 331//331 332//332
f 326//326 332//332 328//328
f 327//327 332//332 329//329
f 327//327 328//328 332//332
f 329//329 331//331 330//330
f 329//329 332//332 331//331
f 333//333 334//334 335//335
f 335//335 334//334 336//336
f 333//333 337//337 338//338
f 333//333 335//335 337//337
f 333//333 338//338 334//334
f 334//334 338//338 339//339
f 334//334 339//339 340//340
f 334//334 340//340 336//336
f 335//335 340//340 337//337
f 335//335 336//336 340//340
f 337//337 339//339 338//338
f 337//337 340//340 339//339
f 341//341 342//342 343//343
f 343//343 342//342 344//344
f 341//341 345//345 346//346
f 341//341 343//343 345//345
f 341//341 346//346 342//342
f 342//342 346//346 347//347
f 342//342 347//347 348//348
f 342//342 348//348 344//344
f 343//343 348//348 345//345
f 343//343 344//344 348//348
f 345//345 347//347 346//346
f 345//345 348//348 347//347
f 349//349 350//350 351//351
f 351//351 350//350 352//352
f 349//349 353//353 354//354
f 349//349 351//351 353//353
f 349//349 354//354 350//350
f 350//350 354//354 355//355
f 350//350 355//355 356//356
f 350//350 356//356 352//352
f 351//351 356//356 353//353
f 351//351 352//352 356//356
f 353//353 355//355 354//354
f 353//353 356//356 355//355
f 201//201 203//203 204//204
f 204//204 205//205 206//206
f 201//201 205//205 202//202
f 207//207 209//209 210//210
f 210//210 211//211 212//212
f 207//207 211//211 208//208
