# Original shape: m1319.obj
# No processing applied - exact copy of source file
# Generated on 2025-10-13 11:13:47

v 0.189091 0.500000 0.177000
v 0.190386 0.975000 0.177957
v 0.189091 0.975000 0.177000
v 0.190386 0.500000 0.177957
v 0.191682 0.975000 0.178196
v 0.191682 0.500000 0.178196
v 0.192977 0.975000 0.178435
v 0.192977 0.500000 0.178435
v 0.194273 0.975000 0.178495
v 0.194273 0.500000 0.178495
v 0.196864 0.975000 0.178555
v 0.196864 0.500000 0.178555
v 0.204636 0.975000 0.178435
v 0.204636 0.500000 0.178435
v 0.215000 0.975000 0.177000
v 0.215000 0.500000 0.177000
v 0.204636 0.975000 0.175565
v 0.204636 0.500000 0.175565
v 0.196864 0.975000 0.175445
v 0.196864 0.500000 0.175445
v 0.194273 0.975000 0.175505
v 0.194273 0.500000 0.175505
v 0.192977 0.975000 0.175565
v 0.192977 0.500000 0.175565
v 0.191682 0.975000 0.175804
v 0.191682 0.500000 0.175804
v 0.190386 0.975000 0.176043
v 0.190386 0.500000 0.176043
v 0.190386 0.025000 0.177957
v 0.189091 0.025000 0.177000
v 0.191682 0.025000 0.178196
v 0.192977 0.025000 0.178435
v 0.194273 0.025000 0.178495
v 0.196864 0.025000 0.178555
v 0.204636 0.025000 0.178435
v 0.215000 0.025000 0.177000
v 0.204636 0.025000 0.175565
v 0.196864 0.025000 0.175445
v 0.194273 0.025000 0.175505
v 0.192977 0.025000 0.175565
v 0.191682 0.025000 0.175804
v 0.190386 0.025000 0.176043
v 0.543182 0.507773 0.113955
v 0.544826 0.571595 0.115169
v 0.543182 0.571595 0.113955
v 0.544812 0.507773 0.115159
v 0.546470 0.571595 0.115472
v 0.546443 0.507773 0.115460
v 0.548114 0.571595 0.115776
v 0.548073 0.507773 0.115761
v 0.549758 0.571595 0.115851
v 0.549703 0.507773 0.115836
v 0.553046 0.571595 0.115927
v 0.552964 0.507773 0.115911
v 0.562910 0.571595 0.115776
v 0.562747 0.507773 0.115761
v 0.576062 0.571595 0.113955
v 0.575790 0.507773 0.113955
v 0.562910 0.571595 0.112134
v 0.562747 0.507773 0.112149
v 0.553046 0.571595 0.111982
v 0.552964 0.507773 0.111998
v 0.549758 0.571595 0.112058
v 0.549703 0.507773 0.112073
v 0.548114 0.571595 0.112134
v 0.548073 0.507773 0.112149
v 0.546470 0.571595 0.112437
v 0.546443 0.507773 0.112450
v 0.544826 0.571595 0.112741
v 0.544812 0.507773 0.112751
v 0.543182 0.492227 0.113955
v 0.544826 0.428405 0.115169
v 0.543182 0.428405 0.113955
v 0.544812 0.492227 0.115159
v 0.546470 0.428405 0.115472
v 0.546443 0.492227 0.115460
v 0.548114 0.428405 0.115776
v 0.548073 0.492227 0.115761
v 0.549758 0.428405 0.115851
v 0.549703 0.492227 0.115836
v 0.553046 0.428405 0.115927
v 0.552964 0.492227 0.115911
v 0.562910 0.428405 0.115776
v 0.562747 0.492227 0.115761
v 0.576062 0.428405 0.113955
v 0.575790 0.492227 0.113955
v 0.562910 0.428405 0.112134
v 0.562747 0.492227 0.112149
v 0.553046 0.428405 0.111982
v 0.552964 0.492227 0.111998
v 0.549758 0.428405 0.112058
v 0.549703 0.492227 0.112073
v 0.548114 0.428405 0.112134
v 0.548073 0.492227 0.112149
v 0.546470 0.428405 0.112437
v 0.546443 0.492227 0.112450
v 0.544826 0.428405 0.112741
v 0.544812 0.492227 0.112751
v 0.025000 0.515114 0.056091
v 0.028455 0.524622 0.058010
v 0.028455 0.525139 0.056091
v 0.025000 0.514803 0.056091
v 0.028455 0.523062 0.058940
v 0.025000 0.513864 0.056091
v 0.028455 0.520421 0.059598
v 0.025000 0.512277 0.056091
v 0.028455 0.516589 0.060052
v 0.025000 0.509973 0.056091
v 0.028455 0.511179 0.060320
v 0.025000 0.506721 0.056091
v 0.028455 0.500192 0.060409
v 0.025000 0.500115 0.056091
v 0.028455 0.488836 0.060320
v 0.025000 0.493288 0.056091
v 0.028455 0.483421 0.060053
v 0.025000 0.490033 0.056091
v 0.028455 0.479586 0.059599
v 0.025000 0.487727 0.056091
v 0.028455 0.476943 0.058941
v 0.025000 0.486138 0.056091
v 0.028455 0.475380 0.058012
v 0.025000 0.485199 0.056091
v 0.028455 0.474861 0.056141
v 0.025000 0.484886 0.056091
v 0.028455 0.475376 0.054175
v 0.025000 0.485196 0.056091
v 0.028455 0.476934 0.053244
v 0.025000 0.486133 0.056091
v 0.028455 0.479571 0.052585
v 0.025000 0.487718 0.056091
v 0.028455 0.483401 0.052131
v 0.025000 0.490021 0.056091
v 0.028455 0.488806 0.051862
v 0.025000 0.493271 0.056091
v 0.028455 0.499629 0.051773
v 0.025000 0.499777 0.056091
v 0.028455 0.511149 0.051861
v 0.025000 0.506703 0.056091
v 0.028455 0.516569 0.052128
v 0.025000 0.509961 0.056091
v 0.028455 0.520407 0.052581
v 0.025000 0.512268 0.056091
v 0.028455 0.523052 0.053239
v 0.025000 0.513859 0.056091
v 0.028455 0.524617 0.054167
v 0.025000 0.514800 0.056091
v 0.036839 0.533085 0.059584
v 0.036839 0.533780 0.055508
v 0.036839 0.530988 0.061559
v 0.036839 0.527441 0.062958
v 0.036839 0.522291 0.063922
v 0.036839 0.515021 0.064492
v 0.036839 0.500258 0.064681
v 0.036839 0.484999 0.064493
v 0.036839 0.477722 0.063924
v 0.036839 0.472569 0.062961
v 0.036839 0.469018 0.061563
v 0.036839 0.466918 0.059590
v 0.036839 0.466220 0.055614
v 0.036839 0.466912 0.051437
v 0.036839 0.469005 0.049461
v 0.036839 0.472550 0.048061
v 0.036839 0.477695 0.047096
v 0.036839 0.484959 0.046525
v 0.036839 0.499501 0.046335
v 0.036839 0.514981 0.046523
v 0.036839 0.522264 0.047091
v 0.036839 0.527421 0.048053
v 0.036839 0.530976 0.049449
v 0.036839 0.533079 0.051421
v 0.055068 0.539725 0.063020
v 0.055068 0.540560 0.056730
v 0.055068 0.537207 0.066067
v 0.055068 0.532948 0.068225
v 0.055068 0.526765 0.069712
v 0.055068 0.518036 0.070592
v 0.055068 0.500310 0.070884
v 0.055068 0.481988 0.070593
v 0.055068 0.473252 0.069715
v 0.055068 0.467064 0.068229
v 0.055068 0.462800 0.066073
v 0.055068 0.460279 0.063028
v 0.055068 0.459440 0.056894
v 0.055068 0.460271 0.050449
v 0.055068 0.462785 0.047399
v 0.055068 0.467041 0.045239
v 0.055068 0.473219 0.043750
v 0.055068 0.481940 0.042870
v 0.055068 0.499401 0.042577
v 0.055068 0.517988 0.042866
v 0.055068 0.526732 0.043742
v 0.055068 0.532924 0.045227
v 0.055068 0.537192 0.047382
v 0.055068 0.539717 0.050424
v 0.068223 0.542791 0.067453
v 0.068223 0.543690 0.059222
v 0.068223 0.540079 0.071442
v 0.068223 0.535490 0.074267
v 0.068223 0.528831 0.076213
v 0.068223 0.519428 0.077364
v 0.068223 0.500334 0.077746
v 0.068223 0.480598 0.077366
v 0.068223 0.471187 0.076217
v 0.068223 0.464522 0.074272
v 0.068223 0.459929 0.071449
v 0.068223 0.457213 0.067464
v 0.068223 0.456310 0.059436
v 0.068223 0.457205 0.051001
v 0.068223 0.459913 0.047009
v 0.068223 0.464497 0.044182
v 0.068223 0.471152 0.042234
v 0.068223 0.480547 0.041081
v 0.068223 0.499355 0.040697
v 0.068223 0.519376 0.041076
v 0.068223 0.528795 0.042223
v 0.068223 0.535465 0.044166
v 0.068223 0.540062 0.046987
v 0.068223 0.542783 0.050968
v 0.093227 0.547038 0.092697
v 0.093227 0.548026 0.076386
v 0.093227 0.544056 0.100600
v 0.093227 0.539013 0.106197
v 0.093227 0.531692 0.110054
v 0.093227 0.521356 0.112334
v 0.093227 0.500367 0.113091
v 0.093227 0.478673 0.112337
v 0.093227 0.468328 0.110061
v 0.093227 0.461001 0.106208
v 0.093227 0.455953 0.100615
v 0.093227 0.452967 0.092719
v 0.093227 0.451974 0.076811
v 0.093227 0.452958 0.060097
v 0.093227 0.455934 0.052188
v 0.093227 0.460973 0.046586
v 0.093227 0.468289 0.042726
v 0.093227 0.478616 0.040442
v 0.093227 0.499291 0.039682
v 0.093227 0.521299 0.040432
v 0.093227 0.531653 0.042705
v 0.093227 0.538985 0.046554
v 0.093227 0.544038 0.052143
v 0.093227 0.547029 0.060033
v 0.103929 0.547985 0.101738
v 0.103929 0.548993 0.082380
v 0.103929 0.544944 0.111117
v 0.103929 0.539798 0.117760
v 0.103929 0.532330 0.122337
v 0.103929 0.521786 0.125043
v 0.103929 0.500374 0.125942
v 0.103929 0.478243 0.125047
v 0.103929 0.467690 0.122345
v 0.103929 0.460216 0.117773
v 0.103929 0.455065 0.111135
v 0.103929 0.452020 0.101763
v 0.103929 0.451007 0.082884
v 0.103929 0.452010 0.063048
v 0.103929 0.455047 0.053661
v 0.103929 0.460187 0.047012
v 0.103929 0.467650 0.042431
v 0.103929 0.478185 0.039721
v 0.103929 0.499276 0.038818
v 0.103929 0.521728 0.039709
v 0.103929 0.532290 0.042406
v 0.103929 0.539770 0.046975
v 0.103929 0.544925 0.053608
v 0.103929 0.547976 0.062971
v 0.126480 0.550100 0.106179
v 0.126480 0.551152 0.085455
v 0.126480 0.546924 0.116220
v 0.126480 0.541552 0.123332
v 0.126480 0.533755 0.128232
v 0.126480 0.522746 0.131129
v 0.126480 0.500391 0.132091
v 0.126480 0.477284 0.131133
v 0.126480 0.466266 0.128241
v 0.126480 0.458463 0.123345
v 0.126480 0.453085 0.116239
v 0.126480 0.449905 0.106206
v 0.126480 0.448848 0.085995
v 0.126480 0.449896 0.064758
v 0.126480 0.453066 0.054708
v 0.126480 0.458433 0.047591
v 0.126480 0.466224 0.042686
v 0.126480 0.477224 0.039784
v 0.126480 0.499245 0.038818
v 0.126480 0.522686 0.039771
v 0.126480 0.533713 0.042660
v 0.126480 0.541523 0.047551
v 0.126480 0.546905 0.054651
v 0.126480 0.550090 0.064675
v 0.173297 0.552232 0.107531
v 0.173297 0.553330 0.085900
v 0.173297 0.548922 0.118012
v 0.173297 0.543321 0.125435
v 0.173297 0.535192 0.130550
v 0.173297 0.523714 0.133574
v 0.173297 0.500407 0.134578
v 0.173297 0.476317 0.133579
v 0.173297 0.464830 0.130559
v 0.173297 0.456694 0.125449
v 0.173297 0.451088 0.118032
v 0.173297 0.447773 0.107560
v 0.173297 0.446670 0.086463
v 0.173297 0.447763 0.064297
v 0.173297 0.451068 0.053807
v 0.173297 0.456663 0.046378
v 0.173297 0.464787 0.041258
v 0.173297 0.476254 0.038229
v 0.173297 0.499212 0.037221
v 0.173297 0.523651 0.038216
v 0.173297 0.535148 0.041231
v 0.173297 0.543290 0.046336
v 0.173297 0.548902 0.053747
v 0.173297 0.552222 0.064211
v 0.250511 0.544796 0.106892
v 0.250511 0.545737 0.086380
v 0.250511 0.541957 0.116831
v 0.250511 0.537154 0.123870
v 0.250511 0.530182 0.128720
v 0.250511 0.520338 0.131588
v 0.250511 0.500349 0.132540
v 0.250511 0.479689 0.131592
v 0.250511 0.469837 0.128729
v 0.250511 0.462860 0.123883
v 0.250511 0.458052 0.116850
v 0.250511 0.455208 0.106919
v 0.250511 0.454263 0.086914
v 0.250511 0.455200 0.065894
v 0.250511 0.458034 0.055947
v 0.250511 0.462833 0.048903
v 0.250511 0.469800 0.044048
v 0.250511 0.479635 0.041176
v 0.250511 0.499325 0.040219
v 0.250511 0.520284 0.041163
v 0.250511 0.530144 0.044022
v 0.250511 0.537127 0.048863
v 0.250511 0.541940 0.055891
v 0.250511 0.544788 0.065813
v 0.278700 0.536937 0.108517
v 0.278700 0.537713 0.089368
v 0.278700 0.534596 0.117795
v 0.278700 0.530635 0.124367
v 0.278700 0.524886 0.128894
v 0.278700 0.516770 0.131571
v 0.278700 0.500288 0.132460
v 0.278700 0.483253 0.131575
v 0.278700 0.475129 0.128902
v 0.278700 0.469376 0.124379
v 0.278700 0.465411 0.117813
v 0.278700 0.463067 0.108542
v 0.278700 0.462287 0.089867
v 0.278700 0.463060 0.070244
v 0.278700 0.465397 0.060958
v 0.278700 0.469354 0.054382
v 0.278700 0.475098 0.049850
v 0.278700 0.483208 0.047169
v 0.278700 0.499443 0.046276
v 0.278700 0.516725 0.047157
v 0.278700 0.524856 0.049826
v 0.278700 0.530613 0.054345
v 0.278700 0.534581 0.060906
v 0.278700 0.536930 0.070168
v 0.320043 0.526275 0.110852
v 0.320043 0.526827 0.094338
v 0.320043 0.524610 0.118854
v 0.320043 0.521792 0.124521
v 0.320043 0.517703 0.128425
v 0.320043 0.511929 0.130734
v 0.320043 0.500205 0.131501
v 0.320043 0.488087 0.130738
v 0.320043 0.482308 0.128432
v 0.320043 0.478215 0.124531
v 0.320043 0.475395 0.118869
v 0.320043 0.473727 0.110874
v 0.320043 0.473173 0.094768
v 0.320043 0.473722 0.077845
v 0.320043 0.475385 0.069837
v 0.320043 0.478200 0.064165
v 0.320043 0.482286 0.060257
v 0.320043 0.488055 0.057945
v 0.320043 0.499604 0.057175
v 0.320043 0.511898 0.057934
v 0.320043 0.517681 0.060236
v 0.320043 0.521777 0.064133
v 0.320043 0.524600 0.069792
v 0.320043 0.526270 0.077780
v 0.350112 0.517270 0.115158
v 0.350112 0.517633 0.102854
v 0.350112 0.516175 0.121119
v 0.350112 0.514324 0.125341
v 0.350112 0.511636 0.128250
v 0.350112 0.507841 0.129970
v 0.350112 0.500135 0.130541
v 0.350112 0.492170 0.129973
v 0.350112 0.488371 0.128255
v 0.350112 0.485682 0.125349
v 0.350112 0.483828 0.121130
v 0.350112 0.482732 0.115174
v 0.350112 0.482367 0.103175
v 0.350112 0.482728 0.090567
v 0.350112 0.483821 0.084601
v 0.350112 0.485671 0.080376
v 0.350112 0.488357 0.077464
v 0.350112 0.492149 0.075741
v 0.350112 0.499740 0.075167
v 0.350112 0.507820 0.075733
v 0.350112 0.511621 0.077448
v 0.350112 0.514313 0.080352
v 0.350112 0.516169 0.084567
v 0.350112 0.517267 0.090518
v 0.368904 0.509454 0.116889
v 0.368904 0.509653 0.107486
v 0.368904 0.508855 0.121445
v 0.368904 0.507841 0.124672
v 0.368904 0.506370 0.126896
v 0.368904 0.504292 0.128210
v 0.368904 0.500074 0.128647
v 0.368904 0.495713 0.128212
v 0.368904 0.493634 0.126900
v 0.368904 0.492161 0.124678
v 0.368904 0.491147 0.121454
v 0.368904 0.490547 0.116902
v 0.368904 0.490347 0.107731
v 0.368904 0.490545 0.098095
v 0.368904 0.491143 0.093535
v 0.368904 0.492156 0.090306
v 0.368904 0.493626 0.088080
v 0.368904 0.495702 0.086763
v 0.368904 0.499857 0.086325
v 0.368904 0.504281 0.086758
v 0.368904 0.506362 0.088068
v 0.368904 0.507836 0.090287
v 0.368904 0.508851 0.093509
v 0.368904 0.509453 0.098058
v 0.385817 0.506608 0.119864
v 0.385817 0.506747 0.112848
v 0.385817 0.506189 0.123264
v 0.385817 0.505481 0.125671
v 0.385817 0.504452 0.127330
v 0.385817 0.503000 0.128311
v 0.385817 0.500052 0.128637
v 0.385817 0.497004 0.128313
v 0.385817 0.495550 0.127333
v 0.385817 0.494521 0.125676
v 0.385817 0.493812 0.123270
v 0.385817 0.493392 0.119874
v 0.385817 0.493253 0.113031
v 0.385817 0.493391 0.105842
v 0.385817 0.493809 0.102439
v 0.385817 0.494517 0.100030
v 0.385817 0.495545 0.098369
v 0.385817 0.496996 0.097387
v 0.385817 0.499900 0.097060
v 0.385817 0.502992 0.097382
v 0.385817 0.504447 0.098360
v 0.385817 0.505477 0.100016
v 0.385817 0.506187 0.102420
v 0.385817 0.506607 0.105814
v 0.539917 0.507075 0.117036
v 0.539917 0.507224 0.113773
v 0.539917 0.506627 0.118617
v 0.539917 0.505868 0.119736
v 0.539917 0.504767 0.120507
v 0.539917 0.503212 0.120964
v 0.539917 0.500055 0.121115
v 0.539917 0.496792 0.120964
v 0.539917 0.495236 0.120509
v 0.539917 0.494134 0.119738
v 0.539917 0.493374 0.118620
v 0.539917 0.492925 0.117040
v 0.539917 0.492776 0.113859
v 0.539917 0.492924 0.110515
v 0.539917 0.493372 0.108933
v 0.539917 0.494130 0.107813
v 0.539917 0.495230 0.107041
v 0.539917 0.496783 0.106584
v 0.539917 0.499893 0.106432
v 0.539917 0.503204 0.106582
v 0.539917 0.504761 0.107037
v 0.539917 0.505864 0.107807
v 0.539917 0.506624 0.108924
v 0.539917 0.507074 0.110502
v 0.664091 0.504229 0.114425
v 0.664091 0.504318 0.112089
v 0.664091 0.503961 0.115557
v 0.664091 0.503508 0.116359
v 0.664091 0.502850 0.116911
v 0.664091 0.501920 0.117238
v 0.664091 0.500033 0.117346
v 0.664091 0.498082 0.117239
v 0.664091 0.497152 0.116912
v 0.664091 0.496493 0.116360
v 0.664091 0.496040 0.115559
v 0.664091 0.495771 0.114428
v 0.664091 0.495682 0.112150
v 0.664091 0.495770 0.109755
v 0.664091 0.496038 0.108622
v 0.664091 0.496491 0.107820
v 0.664091 0.497149 0.107267
v 0.664091 0.498077 0.106940
v 0.664091 0.499936 0.106831
v 0.664091 0.501915 0.106938
v 0.664091 0.502846 0.107264
v 0.664091 0.503505 0.107815
v 0.664091 0.503960 0.108616
v 0.664091 0.504229 0.109746
v 0.624364 0.500000 0.116227
v 0.666731 0.501020 0.176682
v 0.665625 0.500000 0.176682
v 0.626331 0.502179 0.116227
v 0.667836 0.501276 0.176682
v 0.628298 0.502724 0.116227
v 0.668941 0.501531 0.176682
v 0.630265 0.503268 0.116227
v 0.670047 0.501594 0.176682
v 0.632232 0.503404 0.116227
v 0.672258 0.501658 0.176682
v 0.636166 0.503541 0.116227
v 0.678891 0.501531 0.176682
v 0.647968 0.503268 0.116227
v 0.687735 0.500000 0.176682
v 0.663705 0.500000 0.116227
v 0.678891 0.498469 0.176682
v 0.647968 0.496732 0.116227
v 0.672258 0.498342 0.176682
v 0.636166 0.496459 0.116227
v 0.670047 0.498406 0.176682
v 0.632232 0.496595 0.116227
v 0.668941 0.498469 0.176682
v 0.630265 0.496732 0.116227
v 0.667836 0.498724 0.176682
v 0.628298 0.497276 0.116227
v 0.666731 0.498980 0.176682
v 0.626331 0.497821 0.116227
v 0.199455 0.497409 0.135545
v 0.199455 0.502591 0.135545
v 0.204636 0.497409 0.135545
v 0.204636 0.502591 0.135545
v 0.204636 0.497409 0.177000
v 0.199455 0.497409 0.177000
v 0.199455 0.502591 0.177000
v 0.204636 0.502591 0.177000
v 0.646818 0.489636 0.111364
v 0.646818 0.494818 0.111364
v 0.650273 0.489636 0.111364
v 0.650273 0.494818 0.111364
v 0.650273 0.489636 0.114818
v 0.646818 0.489636 0.114818
v 0.646818 0.494818 0.114818
v 0.650273 0.494818 0.114818
v 0.645091 0.487477 0.085455
v 0.645091 0.490068 0.085455
v 0.652000 0.487477 0.085455
v 0.652000 0.490068 0.085455
v 0.652000 0.487477 0.145909
v 0.645091 0.487477 0.145909
v 0.645091 0.490068 0.145909
v 0.652000 0.490068 0.145909
v 0.169462 0.480568 0.131779
v 0.169462 0.519432 0.131779
v 0.290371 0.480568 0.131779
v 0.290371 0.519432 0.131779
v 0.290371 0.480568 0.157688
v 0.169462 0.480568 0.157688
v 0.169462 0.519432 0.157688
v 0.290371 0.519432 0.157688
v 0.240909 0.430909 0.033636
v 0.240909 0.569091 0.033636
v 0.247818 0.430909 0.033636
v 0.247818 0.569091 0.033636
v 0.247818 0.430909 0.040545
v 0.240909 0.430909 0.040545
v 0.240909 0.569091 0.040545
v 0.247818 0.569091 0.040545
v 0.120000 0.430909 0.033636
v 0.120000 0.569091 0.033636
v 0.126909 0.430909 0.033636
v 0.126909 0.569091 0.033636
v 0.126909 0.430909 0.040545
v 0.120000 0.430909 0.040545
v 0.120000 0.569091 0.040545
v 0.126909 0.569091 0.040545
v 0.101000 0.564773 0.025000
v 0.101000 0.569955 0.025000
v 0.273727 0.564773 0.025000
v 0.273727 0.569955 0.025000
v 0.273727 0.564773 0.033636
v 0.101000 0.564773 0.033636
v 0.101000 0.569955 0.033636
v 0.273727 0.569955 0.033636
v 0.101000 0.430045 0.025000
v 0.101000 0.435227 0.025000
v 0.273727 0.430045 0.025000
v 0.273727 0.435227 0.025000
v 0.273727 0.430045 0.033636
v 0.101000 0.430045 0.033636
v 0.101000 0.435227 0.033636
v 0.273727 0.435227 0.033636
f 1 2 3
f 4 5 2
f 6 7 5
f 8 9 7
f 10 11 9
f 12 13 11
f 14 15 13
f 16 17 15
f 18 19 17
f 20 21 19
f 22 23 21
f 24 25 23
f 26 27 25
f 28 3 27
f 1 4 2
f 4 6 5
f 6 8 7
f 8 10 9
f 10 12 11
f 12 14 13
f 14 16 15
f 16 18 17
f 18 20 19
f 20 22 21
f 22 24 23
f 24 26 25
f 26 28 27
f 28 1 3
f 1 29 30
f 4 31 29
f 6 32 31
f 8 33 32
f 10 34 33
f 12 35 34
f 14 36 35
f 16 37 36
f 18 38 37
f 20 39 38
f 22 40 39
f 24 41 40
f 26 42 41
f 28 30 42
f 1 4 29
f 4 6 31
f 6 8 32
f 8 10 33
f 10 12 34
f 12 14 35
f 14 16 36
f 16 18 37
f 18 20 38
f 20 22 39
f 22 24 40
f 24 26 41
f 26 28 42
f 28 1 30
f 43 44 45
f 46 47 44
f 48 49 47
f 50 51 49
f 52 53 51
f 54 55 53
f 56 57 55
f 58 59 57
f 60 61 59
f 62 63 61
f 64 65 63
f 66 67 65
f 68 69 67
f 70 45 69
f 43 46 44
f 46 48 47
f 48 50 49
f 50 52 51
f 52 54 53
f 54 56 55
f 56 58 57
f 58 60 59
f 60 62 61
f 62 64 63
f 64 66 65
f 66 68 67
f 68 70 69
f 70 43 45
f 71 72 73
f 74 75 72
f 76 77 75
f 78 79 77
f 80 81 79
f 82 83 81
f 84 85 83
f 86 87 85
f 88 89 87
f 90 91 89
f 92 93 91
f 94 95 93
f 96 97 95
f 98 73 97
f 71 74 72
f 74 76 75
f 76 78 77
f 78 80 79
f 80 82 81
f 82 84 83
f 84 86 85
f 86 88 87
f 88 90 89
f 90 92 91
f 92 94 93
f 94 96 95
f 96 98 97
f 98 71 73
f 99 100 101
f 102 103 100
f 104 105 103
f 106 107 105
f 108 109 107
f 110 111 109
f 112 113 111
f 114 115 113
f 116 117 115
f 118 119 117
f 120 121 119
f 122 123 121
f 124 125 123
f 126 127 125
f 128 129 127
f 130 131 129
f 132 133 131
f 134 135 133
f 136 137 135
f 138 139 137
f 140 141 139
f 142 143 141
f 144 145 143
f 146 101 145
f 101 147 148
f 100 149 147
f 103 150 149
f 105 151 150
f 107 152 151
f 109 153 152
f 111 154 153
f 113 155 154
f 115 156 155
f 117 157 156
f 119 158 157
f 121 159 158
f 123 160 159
f 125 161 160
f 127 162 161
f 129 163 162
f 131 164 163
f 133 165 164
f 135 166 165
f 137 167 166
f 139 168 167
f 141 169 168
f 143 170 169
f 145 148 170
f 148 171 172
f 147 173 171
f 149 174 173
f 150 175 174
f 151 176 175
f 152 177 176
f 153 178 177
f 154 179 178
f 155 180 179
f 156 181 180
f 157 182 181
f 158 183 182
f 159 184 183
f 160 185 184
f 161 186 185
f 162 187 186
f 163 188 187
f 164 189 188
f 165 190 189
f 166 191 190
f 167 192 191
f 168 193 192
f 169 194 193
f 170 172 194
f 172 195 196
f 171 197 195
f 173 198 197
f 174 199 198
f 175 200 199
f 176 201 200
f 177 202 201
f 178 203 202
f 179 204 203
f 180 205 204
f 181 206 205
f 182 207 206
f 183 208 207
f 184 209 208
f 185 210 209
f 186 211 210
f 187 212 211
f 188 213 212
f 189 214 213
f 190 215 214
f 191 216 215
f 192 217 216
f 193 218 217
f 194 196 218
f 196 219 220
f 195 221 219
f 197 222 221
f 198 223 222
f 199 224 223
f 200 225 224
f 201 226 225
f 202 227 226
f 203 228 227
f 204 229 228
f 205 230 229
f 206 231 230
f 207 232 231
f 208 233 232
f 209 234 233
f 210 235 234
f 211 236 235
f 212 237 236
f 213 238 237
f 214 239 238
f 215 240 239
f 216 241 240
f 217 242 241
f 218 220 242
f 220 243 244
f 219 245 243
f 221 246 245
f 222 247 246
f 223 248 247
f 224 249 248
f 225 250 249
f 226 251 250
f 227 252 251
f 228 253 252
f 229 254 253
f 230 255 254
f 231 256 255
f 232 257 256
f 233 258 257
f 234 259 258
f 235 260 259
f 236 261 260
f 237 262 261
f 238 263 262
f 239 264 263
f 240 265 264
f 241 266 265
f 242 244 266
f 244 267 268
f 243 269 267
f 245 270 269
f 246 271 270
f 247 272 271
f 248 273 272
f 249 274 273
f 250 275 274
f 251 276 275
f 252 277 276
f 253 278 277
f 254 279 278
f 255 280 279
f 256 281 280
f 257 282 281
f 258 283 282
f 259 284 283
f 260 285 284
f 261 286 285
f 262 287 286
f 263 288 287
f 264 289 288
f 265 290 289
f 266 268 290
f 268 291 292
f 267 293 291
f 269 294 293
f 270 295 294
f 271 296 295
f 272 297 296
f 273 298 297
f 274 299 298
f 275 300 299
f 276 301 300
f 277 302 301
f 278 303 302
f 279 304 303
f 280 305 304
f 281 306 305
f 282 307 306
f 283 308 307
f 284 309 308
f 285 310 309
f 286 311 310
f 287 312 311
f 288 313 312
f 289 314 313
f 290 292 314
f 292 315 316
f 291 317 315
f 293 318 317
f 294 319 318
f 295 320 319
f 296 321 320
f 297 322 321
f 298 323 322
f 299 324 323
f 300 325 324
f 301 326 325
f 302 327 326
f 303 328 327
f 304 329 328
f 305 330 329
f 306 331 330
f 307 332 331
f 308 333 332
f 309 334 333
f 310 335 334
f 311 336 335
f 312 337 336
f 313 338 337
f 314 316 338
f 316 339 340
f 315 341 339
f 317 342 341
f 318 343 342
f 319 344 343
f 320 345 344
f 321 346 345
f 322 347 346
f 323 348 347
f 324 349 348
f 325 350 349
f 326 351 350
f 327 352 351
f 328 353 352
f 329 354 353
f 330 355 354
f 331 356 355
f 332 357 356
f 333 358 357
f 334 359 358
f 335 360 359
f 336 361 360
f 337 362 361
f 338 340 362
f 340 363 364
f 339 365 363
f 341 366 365
f 342 367 366
f 343 368 367
f 344 369 368
f 345 370 369
f 346 371 370
f 347 372 371
f 348 373 372
f 349 374 373
f 350 375 374
f 351 376 375
f 352 377 376
f 353 378 377
f 354 379 378
f 355 380 379
f 356 381 380
f 357 382 381
f 358 383 382
f 359 384 383
f 360 385 384
f 361 386 385
f 362 364 386
f 364 387 388
f 363 389 387
f 365 390 389
f 366 391 390
f 367 392 391
f 368 393 392
f 369 394 393
f 370 395 394
f 371 396 395
f 372 397 396
f 373 398 397
f 374 399 398
f 375 400 399
f 376 401 400
f 377 402 401
f 378 403 402
f 379 404 403
f 380 405 404
f 381 406 405
f 382 407 406
f 383 408 407
f 384 409 408
f 385 410 409
f 386 388 410
f 388 411 412
f 387 413 411
f 389 414 413
f 390 415 414
f 391 416 415
f 392 417 416
f 393 418 417
f 394 419 418
f 395 420 419
f 396 421 420
f 397 422 421
f 398 423 422
f 399 424 423
f 400 425 424
f 401 426 425
f 402 427 426
f 403 428 427
f 404 429 428
f 405 430 429
f 406 431 430
f 407 432 431
f 408 433 432
f 409 434 433
f 410 412 434
f 412 435 436
f 411 437 435
f 413 438 437
f 414 439 438
f 415 440 439
f 416 441 440
f 417 442 441
f 418 443 442
f 419 444 443
f 420 445 444
f 421 446 445
f 422 447 446
f 423 448 447
f 424 449 448
f 425 450 449
f 426 451 450
f 427 452 451
f 428 453 452
f 429 454 453
f 430 455 454
f 431 456 455
f 432 457 456
f 433 458 457
f 434 436 458
f 436 459 460
f 435 461 459
f 437 462 461
f 438 463 462
f 439 464 463
f 440 465 464
f 441 466 465
f 442 467 466
f 443 468 467
f 444 469 468
f 445 470 469
f 446 471 470
f 447 472 471
f 448 473 472
f 449 474 473
f 450 475 474
f 451 476 475
f 452 477 476
f 453 478 477
f 454 479 478
f 455 480 479
f 456 481 480
f 457 482 481
f 458 460 482
f 460 483 484
f 459 485 483
f 461 486 485
f 462 487 486
f 463 488 487
f 464 489 488
f 465 490 489
f 466 491 490
f 467 492 491
f 468 493 492
f 469 494 493
f 470 495 494
f 471 496 495
f 472 497 496
f 473 498 497
f 474 499 498
f 475 500 499
f 476 501 500
f 477 502 501
f 478 503 502
f 479 504 503
f 480 505 504
f 481 506 505
f 482 484 506
f 99 102 100
f 102 104 103
f 104 106 105
f 106 108 107
f 108 110 109
f 110 112 111
f 112 114 113
f 114 116 115
f 116 118 117
f 118 120 119
f 120 122 121
f 122 124 123
f 124 126 125
f 126 128 127
f 128 130 129
f 130 132 131
f 132 134 133
f 134 136 135
f 136 138 137
f 138 140 139
f 140 142 141
f 142 144 143
f 144 146 145
f 146 99 101
f 101 100 147
f 100 103 149
f 103 105 150
f 105 107 151
f 107 109 152
f 109 111 153
f 111 113 154
f 113 115 155
f 115 117 156
f 117 119 157
f 119 121 158
f 121 123 159
f 123 125 160
f 125 127 161
f 127 129 162
f 129 131 163
f 131 133 164
f 133 135 165
f 135 137 166
f 137 139 167
f 139 141 168
f 141 143 169
f 143 145 170
f 145 101 148
f 148 147 171
f 147 149 173
f 149 150 174
f 150 151 175
f 151 152 176
f 152 153 177
f 153 154 178
f 154 155 179
f 155 156 180
f 156 157 181
f 157 158 182
f 158 159 183
f 159 160 184
f 160 161 185
f 161 162 186
f 162 163 187
f 163 164 188
f 164 165 189
f 165 166 190
f 166 167 191
f 167 168 192
f 168 169 193
f 169 170 194
f 170 148 172
f 172 171 195
f 171 173 197
f 173 174 198
f 174 175 199
f 175 176 200
f 176 177 201
f 177 178 202
f 178 179 203
f 179 180 204
f 180 181 205
f 181 182 206
f 182 183 207
f 183 184 208
f 184 185 209
f 185 186 210
f 186 187 211
f 187 188 212
f 188 189 213
f 189 190 214
f 190 191 215
f 191 192 216
f 192 193 217
f 193 194 218
f 194 172 196
f 196 195 219
f 195 197 221
f 197 198 222
f 198 199 223
f 199 200 224
f 200 201 225
f 201 202 226
f 202 203 227
f 203 204 228
f 204 205 229
f 205 206 230
f 206 207 231
f 207 208 232
f 208 209 233
f 209 210 234
f 210 211 235
f 211 212 236
f 212 213 237
f 213 214 238
f 214 215 239
f 215 216 240
f 216 217 241
f 217 218 242
f 218 196 220
f 220 219 243
f 219 221 245
f 221 222 246
f 222 223 247
f 223 224 248
f 224 225 249
f 225 226 250
f 226 227 251
f 227 228 252
f 228 229 253
f 229 230 254
f 230 231 255
f 231 232 256
f 232 233 257
f 233 234 258
f 234 235 259
f 235 236 260
f 236 237 261
f 237 238 262
f 238 239 263
f 239 240 264
f 240 241 265
f 241 242 266
f 242 220 244
f 244 243 267
f 243 245 269
f 245 246 270
f 246 247 271
f 247 248 272
f 248 249 273
f 249 250 274
f 250 251 275
f 251 252 276
f 252 253 277
f 253 254 278
f 254 255 279
f 255 256 280
f 256 257 281
f 257 258 282
f 258 259 283
f 259 260 284
f 260 261 285
f 261 262 286
f 262 263 287
f 263 264 288
f 264 265 289
f 265 266 290
f 266 244 268
f 268 267 291
f 267 269 293
f 269 270 294
f 270 271 295
f 271 272 296
f 272 273 297
f 273 274 298
f 274 275 299
f 275 276 300
f 276 277 301
f 277 278 302
f 278 279 303
f 279 280 304
f 280 281 305
f 281 282 306
f 282 283 307
f 283 284 308
f 284 285 309
f 285 286 310
f 286 287 311
f 287 288 312
f 288 289 313
f 289 290 314
f 290 268 292
f 292 291 315
f 291 293 317
f 293 294 318
f 294 295 319
f 295 296 320
f 296 297 321
f 297 298 322
f 298 299 323
f 299 300 324
f 300 301 325
f 301 302 326
f 302 303 327
f 303 304 328
f 304 305 329
f 305 306 330
f 306 307 331
f 307 308 332
f 308 309 333
f 309 310 334
f 310 311 335
f 311 312 336
f 312 313 337
f 313 314 338
f 314 292 316
f 316 315 339
f 315 317 341
f 317 318 342
f 318 319 343
f 319 320 344
f 320 321 345
f 321 322 346
f 322 323 347
f 323 324 348
f 324 325 349
f 325 326 350
f 326 327 351
f 327 328 352
f 328 329 353
f 329 330 354
f 330 331 355
f 331 332 356
f 332 333 357
f 333 334 358
f 334 335 359
f 335 336 360
f 336 337 361
f 337 338 362
f 338 316 340
f 340 339 363
f 339 341 365
f 341 342 366
f 342 343 367
f 343 344 368
f 344 345 369
f 345 346 370
f 346 347 371
f 347 348 372
f 348 349 373
f 349 350 374
f 350 351 375
f 351 352 376
f 352 353 377
f 353 354 378
f 354 355 379
f 355 356 380
f 356 357 381
f 357 358 382
f 358 359 383
f 359 360 384
f 360 361 385
f 361 362 386
f 362 340 364
f 364 363 387
f 363 365 389
f 365 366 390
f 366 367 391
f 367 368 392
f 368 369 393
f 369 370 394
f 370 371 395
f 371 372 396
f 372 373 397
f 373 374 398
f 374 375 399
f 375 376 400
f 376 377 401
f 377 378 402
f 378 379 403
f 379 380 404
f 380 381 405
f 381 382 406
f 382 383 407
f 383 384 408
f 384 385 409
f 385 386 410
f 386 364 388
f 388 387 411
f 387 389 413
f 389 390 414
f 390 391 415
f 391 392 416
f 392 393 417
f 393 394 418
f 394 395 419
f 395 396 420
f 396 397 421
f 397 398 422
f 398 399 423
f 399 400 424
f 400 401 425
f 401 402 426
f 402 403 427
f 403 404 428
f 404 405 429
f 405 406 430
f 406 407 431
f 407 408 432
f 408 409 433
f 409 410 434
f 410 388 412
f 412 411 435
f 411 413 437
f 413 414 438
f 414 415 439
f 415 416 440
f 416 417 441
f 417 418 442
f 418 419 443
f 419 420 444
f 420 421 445
f 421 422 446
f 422 423 447
f 423 424 448
f 424 425 449
f 425 426 450
f 426 427 451
f 427 428 452
f 428 429 453
f 429 430 454
f 430 431 455
f 431 432 456
f 432 433 457
f 433 434 458
f 434 412 436
f 436 435 459
f 435 437 461
f 437 438 462
f 438 439 463
f 439 440 464
f 440 441 465
f 441 442 466
f 442 443 467
f 443 444 468
f 444 445 469
f 445 446 470
f 446 447 471
f 447 448 472
f 448 449 473
f 449 450 474
f 450 451 475
f 451 452 476
f 452 453 477
f 453 454 478
f 454 455 479
f 455 456 480
f 456 457 481
f 457 458 482
f 458 436 460
f 460 459 483
f 459 461 485
f 461 462 486
f 462 463 487
f 463 464 488
f 464 465 489
f 465 466 490
f 466 467 491
f 467 468 492
f 468 469 493
f 469 470 494
f 470 471 495
f 471 472 496
f 472 473 497
f 473 474 498
f 474 475 499
f 475 476 500
f 476 477 501
f 477 478 502
f 478 479 503
f 479 480 504
f 480 481 505
f 481 482 506
f 482 460 484
f 507 508 509
f 510 511 508
f 512 513 511
f 514 515 513
f 516 517 515
f 518 519 517
f 520 521 519
f 522 523 521
f 524 525 523
f 526 527 525
f 528 529 527
f 530 531 529
f 532 533 531
f 534 509 533
f 507 510 508
f 510 512 511
f 512 514 513
f 514 516 515
f 516 518 517
f 518 520 519
f 520 522 521
f 522 524 523
f 524 526 525
f 526 528 527
f 528 530 529
f 530 532 531
f 532 534 533
f 534 507 509
f 535 536 537
f 537 536 538
f 535 539 540
f 535 537 539
f 535 540 536
f 536 540 541
f 536 541 542
f 536 542 538
f 537 542 539
f 537 538 542
f 539 541 540
f 539 542 541
f 543 544 545
f 545 544 546
f 543 547 548
f 543 545 547
f 543 548 544
f 544 548 549
f 544 549 550
f 544 550 546
f 545 550 547
f 545 546 550
f 547 549 548
f 547 550 549
f 551 552 553
f 553 552 554
f 551 555 556
f 551 553 555
f 551 556 552
f 552 556 557
f 552 557 558
f 552 558 554
f 553 558 555
f 553 554 558
f 555 557 556
f 555 558 557
f 559 560 561
f 561 560 562
f 559 563 564
f 559 561 563
f 559 564 560
f 560 564 565
f 560 565 566
f 560 566 562
f 561 566 563
f 561 562 566
f 563 565 564
f 563 566 565
f 567 568 569
f 569 568 570
f 567 571 572
f 567 569 571
f 567 572 568
f 568 572 573
f 568 573 574
f 568 574 570
f 569 574 571
f 569 570 574
f 571 573 572
f 571 574 573
f 575 576 577
f 577 576 578
f 575 579 580
f 575 577 579
f 575 580 576
f 576 580 581
f 576 581 582
f 576 582 578
f 577 582 579
f 577 578 582
f 579 581 580
f 579 582 581
f 583 584 585
f 585 584 586
f 583 587 588
f 583 585 587
f 583 588 584
f 584 588 589
f 584 589 590
f 584 590 586
f 585 590 587
f 585 586 590
f 587 589 588
f 587 590 589
f 591 592 593
f 593 592 594
f 591 595 596
f 591 593 595
f 591 596 592
f 592 596 597
f 592 597 598
f 592 598 594
f 593 598 595
f 593 594 598
f 595 597 596
f 595 598 597
