# Unified Preprocessed OBJ file from D00711.obj
# Applied remeshing: Yes
# Applied 4-step normalization: centering, PCA alignment, flipping, scaling
# Generated on 2025-09-29 15:04:03

v -0.487793 0.075519 0.034899
v -0.509956 0.083084 0.003371
v -0.509953 0.075520 0.034901
v -0.487796 0.083083 0.003369
v -0.432392 0.166119 0.006613
v -0.432387 0.150990 0.069673
v -0.332661 0.201302 0.092850
v -0.332668 0.221473 0.008770
v -0.210780 0.201298 0.092839
v -0.210787 0.221469 0.008759
v -0.055661 0.181167 0.083550
v -0.055667 0.199321 0.007879
v 0.143781 0.171097 0.078895
v 0.143775 0.188243 0.007428
v 0.332144 0.191217 0.088153
v 0.332138 0.210380 0.008278
v 0.442944 0.171087 0.078868
v 0.442938 0.188233 0.007402
v 0.487260 0.130833 0.060316
v 0.487257 0.143945 0.005665
v 0.490031 0.100644 0.046404
v 0.490025 0.110730 0.004365
v 0.476171 0.000014 0.000034
v -0.487791 0.056464 0.061133
v -0.509951 0.056465 0.061136
v -0.432383 0.112882 0.122142
v -0.332657 0.150491 0.162810
v -0.210775 0.150487 0.162799
v -0.055657 0.135437 0.146514
v 0.143785 0.127907 0.138361
v 0.332148 0.142946 0.154615
v 0.442948 0.127898 0.138334
v 0.487262 0.097806 0.105790
v 0.490030 0.075238 0.081384
v -0.509951 0.028822 0.078082
v -0.487791 0.028821 0.078080
v -0.432382 0.057594 0.156034
v -0.332655 0.076774 0.207999
v -0.210774 0.076770 0.207988
v -0.055656 0.069092 0.187185
v 0.143786 0.065249 0.176772
v 0.332150 0.072915 0.197545
v 0.442949 0.065239 0.176745
v 0.487263 0.049891 0.135162
v 0.490034 0.038380 0.103979
v -0.509951 -0.003203 0.083159
v -0.487791 -0.003204 0.083157
v -0.432384 -0.006454 0.166190
v -0.332656 -0.008624 0.221539
v -0.210776 -0.008628 0.221528
v -0.055657 -0.007767 0.199371
v 0.143785 -0.007340 0.188281
v 0.332149 -0.008212 0.210407
v 0.442948 -0.007349 0.188254
v 0.487266 -0.005618 0.143964
v 0.490033 -0.004319 0.110749
v -0.509953 -0.034733 0.075595
v -0.487793 -0.034733 0.075593
v -0.432387 -0.069514 0.151061
v -0.332661 -0.092703 0.201367
v -0.210780 -0.092707 0.201356
v -0.055661 -0.083438 0.181216
v 0.143781 -0.078807 0.171135
v 0.332145 -0.088087 0.191244
v 0.442944 -0.078816 0.171109
v 0.487260 -0.060270 0.130852
v 0.490027 -0.046358 0.100663
v -0.509956 -0.060967 0.056541
v -0.487796 -0.060968 0.056539
v -0.432392 -0.121984 0.112953
v -0.332668 -0.162663 0.150556
v -0.210787 -0.162667 0.150545
v -0.055667 -0.146401 0.135486
v 0.143775 -0.138273 0.127946
v 0.332138 -0.154549 0.142974
v 0.442938 -0.138282 0.127919
v 0.487256 -0.105744 0.097825
v 0.490023 -0.081337 0.075257
v -0.487798 -0.077915 0.028896
v -0.509959 -0.077914 0.028898
v -0.432398 -0.155875 0.057665
v -0.332676 -0.207852 0.076840
v -0.210795 -0.207856 0.076829
v -0.055675 -0.187072 0.069142
v 0.143768 -0.176684 0.065287
v 0.332130 -0.197479 0.072943
v 0.442931 -0.176694 0.065260
v 0.487254 -0.135116 0.049909
v 0.490023 -0.103933 0.038399
v -0.487802 -0.082991 -0.003129
v -0.509962 -0.082991 -0.003127
v -0.432404 -0.166031 -0.006383
v -0.332684 -0.221392 -0.008558
v -0.210803 -0.221396 -0.008569
v -0.055682 -0.199258 -0.007717
v 0.143762 -0.188193 -0.007301
v 0.332123 -0.210342 -0.008185
v 0.442924 -0.188203 -0.007328
v 0.487247 -0.143918 -0.005599
v 0.490019 -0.110703 -0.004300
v -0.487804 -0.075428 -0.034659
v -0.509964 -0.075427 -0.034657
v -0.432409 -0.150902 -0.069443
v -0.332691 -0.201221 -0.092637
v -0.210810 -0.201225 -0.092648
v -0.055688 -0.181104 -0.083388
v 0.143756 -0.171047 -0.078768
v 0.332116 -0.191179 -0.088060
v 0.442918 -0.171057 -0.078795
v 0.487239 -0.130806 -0.060250
v 0.490012 -0.100617 -0.046339
v -0.487806 -0.056373 -0.060893
v -0.509966 -0.056372 -0.060892
v -0.432413 -0.112794 -0.121913
v -0.332696 -0.150410 -0.162598
v -0.210815 -0.150414 -0.162608
v -0.055692 -0.135373 -0.146351
v 0.143752 -0.127857 -0.138234
v 0.332111 -0.142909 -0.154522
v 0.442915 -0.127867 -0.138261
v 0.487237 -0.097779 -0.105724
v 0.490014 -0.075211 -0.081319
v -0.509966 -0.028729 -0.077838
v -0.487806 -0.028730 -0.077840
v -0.432414 -0.057506 -0.155804
v -0.332697 -0.076693 -0.207787
v -0.210816 -0.076697 -0.207798
v -0.055693 -0.069029 -0.187023
v 0.143750 -0.065198 -0.176645
v 0.332110 -0.072878 -0.197451
v 0.442913 -0.065208 -0.176672
v 0.487236 -0.049863 -0.135097
v 0.490010 -0.038353 -0.103914
v -0.509966 0.003296 -0.082915
v -0.487806 0.003295 -0.082917
v -0.432412 0.006542 -0.165960
v -0.332696 0.008705 -0.221327
v -0.210814 0.008701 -0.221338
v -0.055692 0.007830 -0.199208
v 0.143752 0.007390 -0.188155
v 0.332112 0.008250 -0.210314
v 0.442915 0.007380 -0.188181
v 0.487239 0.005645 -0.143899
v 0.490010 0.004346 -0.110684
v -0.509965 0.034826 -0.075351
v -0.487804 0.034825 -0.075353
v -0.432409 0.069602 -0.150831
v -0.332691 0.092784 -0.201155
v -0.210810 0.092780 -0.201166
v -0.055688 0.083501 -0.181054
v 0.143756 0.078857 -0.171008
v 0.332116 0.088125 -0.191152
v 0.442918 0.078847 -0.171035
v 0.487245 0.060297 -0.130787
v 0.490016 0.046385 -0.100598
v -0.509962 0.061060 -0.056297
v -0.487802 0.061059 -0.056299
v -0.432404 0.122072 -0.112723
v -0.332684 0.162744 -0.150344
v -0.210803 0.162740 -0.150355
v -0.055682 0.146464 -0.135324
v 0.143761 0.138322 -0.127819
v 0.332122 0.154587 -0.142881
v 0.442924 0.138313 -0.127846
v 0.487248 0.105771 -0.097760
v 0.490020 0.081365 -0.075192
v -0.487799 0.078005 -0.028656
v -0.509959 0.078007 -0.028654
v -0.432398 0.155963 -0.057435
v -0.332676 0.207934 -0.076628
v -0.210795 0.207930 -0.076639
v -0.055674 0.187135 -0.068979
v 0.143768 0.176733 -0.065160
v 0.332130 0.197517 -0.072850
v 0.442931 0.176724 -0.065187
v 0.487250 0.135143 -0.049844
v 0.490020 0.103960 -0.038334
v -0.498874 0.079301 0.019135
v -0.509954 0.079302 0.019136
v -0.498873 0.075519 0.034900
v -0.487794 0.079301 0.019134
v -0.498876 0.083083 0.003370
v -0.460092 0.120819 0.020756
v -0.460094 0.124601 0.004991
v -0.460090 0.113254 0.052286
v -0.432389 0.158554 0.038143
v -0.382527 0.183710 0.049731
v -0.382524 0.176146 0.081261
v -0.332665 0.211388 0.050810
v -0.382530 0.193796 0.007692
v -0.271724 0.211386 0.050805
v -0.271721 0.201300 0.092844
v -0.210784 0.211384 0.050799
v -0.271728 0.221471 0.008765
v -0.133224 0.201318 0.046155
v -0.133220 0.191233 0.088195
v -0.055664 0.190244 0.045715
v -0.133227 0.210395 0.008319
v 0.044057 0.185209 0.043387
v 0.044060 0.176132 0.081223
v 0.143778 0.179670 0.043162
v 0.044054 0.193782 0.007654
v 0.237960 0.189730 0.047790
v 0.237963 0.181157 0.083524
v 0.332141 0.200798 0.048215
v 0.237957 0.199311 0.007853
v 0.387541 0.190734 0.043573
v 0.387544 0.181152 0.083510
v 0.442941 0.179660 0.043135
v 0.387538 0.199306 0.007840
v 0.465099 0.159533 0.033859
v 0.465102 0.150960 0.069592
v 0.487258 0.137389 0.032990
v 0.465098 0.166089 0.006533
v 0.488644 0.122295 0.026034
v 0.490028 0.105687 0.025384
v 0.488641 0.127337 0.005015
v 0.488645 0.115739 0.053360
v 0.483098 0.055372 0.002199
v 0.483101 0.050329 0.023219
v -0.498872 0.065992 0.048017
v -0.509952 0.065992 0.048018
v -0.498871 0.056465 0.061135
v -0.487792 0.065992 0.048016
v -0.460089 0.103727 0.065403
v -0.460087 0.084673 0.091638
v -0.432385 0.131936 0.095907
v -0.382522 0.150740 0.116241
v -0.382520 0.131686 0.142476
v -0.332659 0.175896 0.127830
v -0.271718 0.175894 0.127824
v -0.271716 0.150489 0.162804
v -0.210778 0.175892 0.127819
v -0.133218 0.168367 0.119676
v -0.133216 0.142962 0.154656
v -0.055659 0.158302 0.115032
v 0.044062 0.154537 0.110956
v 0.044064 0.131672 0.142438
v 0.143783 0.149502 0.108628
v 0.237965 0.157021 0.116755
v 0.237967 0.135427 0.146488
v 0.332146 0.167081 0.121384
v 0.387546 0.159557 0.113243
v 0.387548 0.135422 0.146474
v 0.442946 0.149492 0.108601
v 0.465103 0.134447 0.092329
v 0.487261 0.114320 0.083053
v 0.465105 0.112852 0.122062
v 0.488645 0.103036 0.070850
v 0.490030 0.087941 0.063894
v 0.488646 0.086522 0.093587
v 0.483100 0.037626 0.040709
v -0.498871 0.042643 0.069608
v -0.498871 0.028822 0.078081
v -0.487791 0.042643 0.069607
v -0.509951 0.042643 0.069609
v -0.460087 0.070852 0.100111
v -0.460086 0.043208 0.117057
v -0.432383 0.085238 0.139088
v -0.382519 0.094828 0.165070
v -0.382519 0.067184 0.182017
v -0.332656 0.113632 0.185404
v -0.271715 0.113630 0.185399
v -0.271714 0.076772 0.207993
v -0.210775 0.113628 0.185393
v -0.133215 0.106103 0.177251
v -0.133215 0.072931 0.197586
v -0.055656 0.102264 0.166849
v 0.044065 0.098500 0.162773
v 0.044065 0.067170 0.181978
v 0.143786 0.096578 0.157566
v 0.237967 0.100411 0.167953
v 0.237968 0.069082 0.187158
v 0.332149 0.107931 0.176080
v 0.387549 0.100406 0.167939
v 0.387550 0.069077 0.187145
v 0.442948 0.096568 0.157540
v 0.465105 0.088894 0.136748
v 0.487263 0.073848 0.120476
v 0.465106 0.057565 0.155954
v 0.488648 0.068093 0.104884
v 0.490032 0.056809 0.092681
v 0.488648 0.044135 0.119571
v 0.483102 0.019197 0.052006
v -0.498871 0.012809 0.080620
v -0.498871 -0.003203 0.083158
v -0.487791 0.012809 0.080619
v -0.509951 0.012810 0.080621
v -0.460087 0.027195 0.119596
v -0.460087 -0.004829 0.124673
v -0.432383 0.025570 0.161112
v -0.382519 0.024485 0.188787
v -0.382520 -0.007539 0.193864
v -0.332656 0.034075 0.214769
v -0.271715 0.034073 0.214763
v -0.271716 -0.008626 0.221533
v -0.210775 0.034071 0.214758
v -0.133216 0.030232 0.204356
v -0.133216 -0.008197 0.210449
v -0.055656 0.030663 0.193278
v 0.044065 0.028741 0.188071
v 0.044064 -0.007553 0.193826
v 0.143785 0.028954 0.182526
v 0.237968 0.028518 0.193590
v 0.237967 -0.007776 0.199344
v 0.332149 0.032351 0.203976
v 0.387549 0.028513 0.193576
v 0.387548 -0.007781 0.199331
v 0.442948 0.028945 0.182500
v 0.465107 0.029810 0.160354
v 0.487264 0.022136 0.139563
v 0.465107 -0.006484 0.166109
v 0.488648 0.022786 0.122956
v 0.490033 0.017031 0.107364
v 0.488649 -0.004968 0.127356
v 0.483102 -0.002152 0.055391
v -0.498872 -0.018968 0.079376
v -0.498873 -0.034733 0.075594
v -0.487792 -0.018968 0.079375
v -0.509952 -0.018968 0.079377
v -0.460089 -0.036359 0.117109
v -0.460090 -0.052123 0.113327
v -0.432385 -0.037984 0.158625
v -0.382522 -0.049579 0.183779
v -0.382524 -0.081108 0.176214
v -0.332659 -0.050663 0.211453
v -0.271718 -0.050666 0.211448
v -0.271721 -0.092705 0.201362
v -0.210778 -0.050668 0.211442
v -0.133218 -0.050237 0.200364
v -0.133221 -0.088072 0.191286
v -0.055659 -0.045602 0.190294
v 0.044062 -0.045389 0.184749
v 0.044060 -0.081122 0.176176
v 0.143783 -0.043074 0.179708
v 0.237965 -0.047714 0.189763
v 0.237963 -0.083447 0.181190
v 0.332147 -0.048150 0.200826
v 0.387546 -0.047718 0.189749
v 0.387544 -0.083452 0.181177
v 0.442946 -0.043083 0.179681
v 0.465105 -0.042217 0.157536
v 0.465102 -0.069543 0.150980
v 0.487263 -0.032944 0.137408
v 0.488646 -0.032294 0.120800
v 0.488643 -0.053314 0.115758
v 0.490030 -0.025338 0.105706
v 0.483099 -0.023172 0.050348
v -0.498875 -0.047850 0.066067
v -0.498876 -0.060967 0.056540
v -0.487794 -0.047850 0.066066
v -0.509955 -0.047850 0.066068
v -0.460092 -0.078359 0.094273
v -0.460094 -0.091476 0.084746
v -0.432389 -0.095749 0.132007
v -0.382526 -0.107343 0.157160
v -0.382530 -0.142323 0.131754
v -0.332664 -0.127683 0.175962
v -0.271724 -0.127685 0.175956
v -0.271727 -0.162665 0.150551
v -0.210784 -0.127687 0.175951
v -0.133224 -0.119554 0.168421
v -0.133227 -0.154534 0.143016
v -0.055664 -0.114920 0.158351
v 0.044057 -0.110855 0.154581
v 0.044054 -0.142337 0.131716
v 0.143778 -0.108540 0.149540
v 0.237960 -0.113180 0.159595
v 0.237957 -0.146411 0.135460
v 0.332141 -0.121318 0.167109
v 0.387541 -0.113185 0.159582
v 0.387538 -0.146416 0.135446
v 0.442941 -0.108549 0.149514
v 0.465099 -0.099276 0.129385
v 0.465097 -0.122013 0.112872
v 0.487258 -0.083007 0.114339
v 0.488642 -0.076051 0.099244
v 0.488640 -0.093541 0.086541
v 0.490025 -0.063848 0.087960
v 0.483097 -0.040662 0.037645
v -0.498877 -0.069441 0.042718
v -0.509957 -0.069440 0.042719
v -0.498878 -0.077914 0.028897
v -0.487797 -0.069441 0.042717
v -0.460097 -0.108421 0.057102
v -0.460098 -0.116895 0.043280
v -0.432395 -0.138930 0.085309
v -0.382534 -0.164918 0.094896
v -0.382537 -0.181864 0.067253
v -0.332672 -0.185258 0.113698
v -0.271731 -0.185259 0.113693
v -0.271736 -0.207854 0.076834
v -0.210791 -0.185261 0.113687
v -0.133231 -0.174869 0.109843
v -0.133235 -0.197464 0.072985
v -0.055671 -0.166737 0.102314
v 0.044051 -0.161542 0.100386
v 0.044047 -0.181878 0.067214
v 0.143772 -0.157478 0.096616
v 0.237953 -0.167876 0.100444
v 0.237949 -0.187081 0.069115
v 0.332134 -0.176014 0.107959
v 0.387535 -0.165621 0.104117
v 0.387531 -0.187086 0.069102
v 0.442935 -0.157488 0.096589
v 0.465094 -0.141219 0.081543
v 0.465093 -0.155905 0.057585
v 0.487255 -0.120430 0.073867
v 0.488639 -0.108227 0.062583
v 0.488639 -0.119525 0.044154
v 0.490023 -0.092635 0.056828
v 0.483097 -0.051959 0.019216
v -0.498880 -0.080452 0.012884
v -0.509960 -0.080452 0.012885
v -0.498882 -0.082991 -0.003128
v -0.487800 -0.080453 0.012883
v -0.460101 -0.121973 0.011256
v -0.460103 -0.124511 -0.004756
v -0.432401 -0.160953 0.025641
v -0.382541 -0.188634 0.024554
v -0.382544 -0.193711 -0.007471
v -0.332680 -0.214622 0.034141
v -0.271740 -0.214624 0.034135
v -0.271744 -0.221394 -0.008564
v -0.210799 -0.214626 0.034130
v -0.133238 -0.203557 0.034556
v -0.133242 -0.210327 -0.008143
v -0.055678 -0.193165 0.030713
v 0.044044 -0.187633 0.030920
v 0.044040 -0.193725 -0.007509
v 0.143765 -0.182438 0.028993
v 0.237945 -0.193513 0.028551
v 0.237942 -0.199268 -0.007743
v 0.332126 -0.203911 0.032379
v 0.387527 -0.192841 0.032808
v 0.387523 -0.199273 -0.007756
v 0.442928 -0.182448 0.028966
v 0.465089 -0.161659 0.021291
v 0.465086 -0.166060 -0.006464
v 0.487251 -0.139517 0.022155
v 0.488635 -0.123925 0.016400
v 0.488633 -0.127310 -0.004950
v 0.490021 -0.107318 0.017049
v 0.483095 -0.055344 -0.002133
v -0.498883 -0.079209 -0.018893
v -0.509963 -0.079209 -0.018892
v -0.498884 -0.075427 -0.034658
v -0.487803 -0.079210 -0.018894
v -0.460105 -0.116946 -0.036286
v -0.460107 -0.113165 -0.052051
v -0.432407 -0.158466 -0.037913
v -0.382548 -0.183626 -0.049510
v -0.382550 -0.176061 -0.081040
v -0.332688 -0.211306 -0.050598
v -0.271747 -0.211308 -0.050603
v -0.271750 -0.201223 -0.092643
v -0.210807 -0.211310 -0.050609
v -0.133245 -0.201250 -0.045979
v -0.133249 -0.191164 -0.088018
v -0.055685 -0.190181 -0.045552
v 0.044037 -0.185152 -0.043242
v 0.044034 -0.176075 -0.081078
v 0.143759 -0.179620 -0.043035
v 0.237939 -0.189686 -0.047680
v 0.237936 -0.181113 -0.083414
v 0.332119 -0.200761 -0.048122
v 0.387520 -0.190699 -0.043490
v 0.387517 -0.181118 -0.083427
v 0.442921 -0.179630 -0.043061
v 0.465083 -0.157487 -0.042197
v 0.465079 -0.150931 -0.069523
v 0.487243 -0.137362 -0.032925
v 0.488629 -0.120754 -0.032275
v 0.488626 -0.115711 -0.053295
v 0.490016 -0.105660 -0.025319
v 0.483092 -0.050301 -0.023153
v -0.498885 -0.065900 -0.047775
v -0.509965 -0.065899 -0.047775
v -0.498886 -0.056372 -0.060893
v -0.487805 -0.065900 -0.047776
v -0.460108 -0.103637 -0.065168
v -0.460109 -0.084584 -0.091403
v -0.432411 -0.131848 -0.095678
v -0.382553 -0.150656 -0.116020
v -0.382554 -0.131602 -0.142255
v -0.332693 -0.175815 -0.127617
v -0.271753 -0.175817 -0.127623
v -0.271755 -0.150412 -0.162603
v -0.210812 -0.175819 -0.127628
v -0.133251 -0.168299 -0.119500
v -0.133253 -0.142893 -0.154480
v -0.055690 -0.158239 -0.114870
v 0.044032 -0.154481 -0.110811
v 0.044030 -0.131615 -0.142293
v 0.143754 -0.149452 -0.108501
v 0.237934 -0.156978 -0.116645
v 0.237932 -0.135383 -0.146378
v 0.332114 -0.167044 -0.121291
v 0.387515 -0.159523 -0.113160
v 0.387513 -0.135388 -0.146391
v 0.442916 -0.149462 -0.108528
v 0.465078 -0.134418 -0.092260
v 0.465076 -0.112823 -0.121993
v 0.487238 -0.114292 -0.082987
v 0.488626 -0.103008 -0.070785
v 0.488625 -0.086495 -0.093522
v 0.490013 -0.087914 -0.063829
v 0.483092 -0.037598 -0.040643
v -0.498886 -0.042551 -0.069366
v -0.509966 -0.042551 -0.069365
v -0.498886 -0.028730 -0.077839
v -0.487806 -0.042552 -0.069367
v -0.460109 -0.070762 -0.099877
v -0.460110 -0.043118 -0.116822
v -0.432413 -0.085150 -0.138859
v -0.382555 -0.094744 -0.164850
v -0.332697 -0.113552 -0.185192
v -0.382556 -0.067100 -0.181795
v -0.271756 -0.113554 -0.185198
v -0.271757 -0.076695 -0.207792
v -0.210815 -0.113555 -0.185203
v -0.133254 -0.106035 -0.177075
v -0.133255 -0.072863 -0.197410
v -0.055693 -0.102201 -0.166687
v 0.044029 -0.098443 -0.162628
v 0.044029 -0.067114 -0.181834
v 0.143751 -0.096528 -0.157440
v 0.237931 -0.100368 -0.167843
v 0.332111 -0.107893 -0.175986
v 0.237930 -0.069038 -0.187048
v 0.387512 -0.100373 -0.167856
v 0.387512 -0.069043 -0.187062
v 0.442914 -0.096538 -0.157467
v 0.465075 -0.088865 -0.136679
v 0.465075 -0.057536 -0.155884
v 0.487236 -0.073821 -0.120411
v 0.488623 -0.068066 -0.104819
v 0.488623 -0.044108 -0.119505
v 0.490012 -0.056782 -0.092616
v 0.483090 -0.019169 -0.051940
v -0.498886 -0.012717 -0.080378
v -0.509966 -0.012717 -0.080377
v -0.498886 0.003295 -0.082916
v -0.487806 -0.012718 -0.080379
v -0.460110 -0.027106 -0.119361
v -0.460109 0.004919 -0.124439
v -0.432413 -0.025482 -0.160882
v -0.382555 -0.024401 -0.188565
v -0.332696 -0.033994 -0.214557
v -0.382554 0.007624 -0.193643
v -0.271756 -0.033996 -0.214562
v -0.271755 0.008703 -0.221332
v -0.210815 -0.033998 -0.214568
v -0.133254 -0.030164 -0.204180
v -0.133253 0.008265 -0.210273
v -0.055693 -0.030600 -0.193115
v 0.044029 -0.028684 -0.187927
v 0.044030 0.007610 -0.193681
v 0.143751 -0.028904 -0.182400
v 0.237931 -0.028474 -0.193480
v 0.332111 -0.032314 -0.203883
v 0.237932 0.007820 -0.199234
v 0.387512 -0.028479 -0.193493
v 0.387513 0.007815 -0.199248
v 0.442914 -0.028914 -0.182427
v 0.465076 -0.029781 -0.160285
v 0.465077 0.006513 -0.166040
v 0.487237 -0.022109 -0.139498
v 0.488623 -0.022759 -0.122890
v 0.488624 0.004996 -0.127291
v 0.490010 -0.017003 -0.107299
v 0.483091 0.002180 -0.055325
v -0.498885 0.019060 -0.079134
v -0.509965 0.019061 -0.079133
v -0.498884 0.034825 -0.075352
v -0.487805 0.019060 -0.079135
v -0.460108 0.036448 -0.116874
v -0.432411 0.038072 -0.158395
v -0.460107 0.052213 -0.113092
v -0.382553 0.039153 -0.186079
v -0.382550 0.081193 -0.175993
v -0.332693 0.050745 -0.211241
v -0.271753 0.050743 -0.211246
v -0.271751 0.092782 -0.201161
v -0.210812 0.050740 -0.211252
v -0.133251 0.046101 -0.201196
v -0.055690 0.045665 -0.190131
v -0.133249 0.088140 -0.191110
v 0.044032 0.043343 -0.185108
v 0.143754 0.043123 -0.179581
v 0.044034 0.081179 -0.176031
v 0.237934 0.043553 -0.190661
v 0.237936 0.083491 -0.181080
v 0.332114 0.048187 -0.200733
v 0.387515 0.043548 -0.190675
v 0.442917 0.043113 -0.179608
v 0.387517 0.083486 -0.181093
v 0.465079 0.042246 -0.157467
v 0.465082 0.069572 -0.150911
v 0.487242 0.032971 -0.137343
v 0.488627 0.032321 -0.120735
v 0.488631 0.053341 -0.115692
v 0.490013 0.025365 -0.105641
v 0.483094 0.023200 -0.050282
v -0.498883 0.047942 -0.065825
v -0.509963 0.047943 -0.065824
v -0.498882 0.061059 -0.056298
v -0.487803 0.047942 -0.065826
v -0.460104 0.078448 -0.094038
v -0.432407 0.095837 -0.131777
v -0.460103 0.091565 -0.084511
v -0.382548 0.107428 -0.156939
v -0.382544 0.142408 -0.131533
v -0.332688 0.127764 -0.175750
v -0.271747 0.127762 -0.175755
v -0.271744 0.162742 -0.150350
v -0.210806 0.127760 -0.175761
v -0.133246 0.119622 -0.168245
v -0.055685 0.114983 -0.158189
v -0.133242 0.154602 -0.142839
v 0.044037 0.110912 -0.154437
v 0.143758 0.108590 -0.149414
v 0.044040 0.142393 -0.131571
v 0.237939 0.113224 -0.159485
v 0.237942 0.146455 -0.135350
v 0.332119 0.121356 -0.167016
v 0.387520 0.113219 -0.159499
v 0.442921 0.108580 -0.149440
v 0.387523 0.146450 -0.135363
v 0.465084 0.099305 -0.129316
v 0.465086 0.122042 -0.112803
v 0.487246 0.083034 -0.114273
v 0.488632 0.076078 -0.099179
v 0.488634 0.093568 -0.086476
v 0.490018 0.063875 -0.087895
v 0.483096 0.040689 -0.037579
v -0.498880 0.069533 -0.042476
v -0.509960 0.069533 -0.042475
v -0.498879 0.078006 -0.028655
v -0.487800 0.069532 -0.042477
v -0.460100 0.108511 -0.056867
v -0.432401 0.139018 -0.085079
v -0.460098 0.116984 -0.043046
v -0.382540 0.165003 -0.094675
v -0.382537 0.181948 -0.067032
v -0.332680 0.185339 -0.113486
v -0.271740 0.185337 -0.113491
v -0.271736 0.207932 -0.076633
v -0.210799 0.185335 -0.113497
v -0.133239 0.174938 -0.109667
v -0.133235 0.197532 -0.072809
v -0.055678 0.166800 -0.102152
v 0.044043 0.161599 -0.100242
v 0.044047 0.181934 -0.067070
v 0.143765 0.157528 -0.096490
v 0.237946 0.167920 -0.100335
v 0.237949 0.187125 -0.069005
v 0.332126 0.176052 -0.107866
v 0.387527 0.165655 -0.104034
v 0.387531 0.187120 -0.069019
v 0.442928 0.157518 -0.096516
v 0.465090 0.141247 -0.081474
v 0.465091 0.155934 -0.057516
v 0.487249 0.120457 -0.073802
v 0.488635 0.108254 -0.062518
v 0.488635 0.119552 -0.044089
v 0.490020 0.092662 -0.056763
v 0.483096 0.051987 -0.019150
v -0.498877 0.080545 -0.012642
v -0.509957 0.080545 -0.012641
v -0.487797 0.080544 -0.012643
v -0.460097 0.119523 -0.027033
v -0.432395 0.161041 -0.025411
v -0.382533 0.188718 -0.024332
v -0.332672 0.214703 -0.033929
v -0.271732 0.214701 -0.033934
v -0.210791 0.214699 -0.033940
v -0.133231 0.203625 -0.034380
v -0.055671 0.193228 -0.030550
v 0.044050 0.187689 -0.030776
v 0.143772 0.182488 -0.028866
v 0.237953 0.193557 -0.028441
v 0.332134 0.203948 -0.032286
v 0.387534 0.192875 -0.032724
v 0.442935 0.182478 -0.028893
v 0.465094 0.161688 -0.021221
v 0.487253 0.139544 -0.022090
v 0.488639 0.123952 -0.016335
v 0.490022 0.107345 -0.016985
f 1 178 180
f 178 2 179
f 179 3 180
f 178 179 180
f 2 178 182
f 178 1 181
f 181 4 182
f 178 181 182
f 1 183 181
f 183 5 184
f 184 4 181
f 183 184 181
f 5 183 186
f 183 1 185
f 185 6 186
f 183 185 186
f 7 187 188
f 187 5 186
f 186 6 188
f 187 186 188
f 5 187 190
f 187 7 189
f 189 8 190
f 187 189 190
f 9 191 192
f 191 8 189
f 189 7 192
f 191 189 192
f 8 191 194
f 191 9 193
f 193 10 194
f 191 193 194
f 11 195 196
f 195 10 193
f 193 9 196
f 195 193 196
f 10 195 198
f 195 11 197
f 197 12 198
f 195 197 198
f 13 199 200
f 199 12 197
f 197 11 200
f 199 197 200
f 12 199 202
f 199 13 201
f 201 14 202
f 199 201 202
f 15 203 204
f 203 14 201
f 201 13 204
f 203 201 204
f 14 203 206
f 203 15 205
f 205 16 206
f 203 205 206
f 17 207 208
f 207 16 205
f 205 15 208
f 207 205 208
f 16 207 210
f 207 17 209
f 209 18 210
f 207 209 210
f 19 211 212
f 211 18 209
f 209 17 212
f 211 209 212
f 18 211 214
f 211 19 213
f 213 20 214
f 211 213 214
f 20 215 217
f 215 21 216
f 216 22 217
f 215 216 217
f 21 215 218
f 215 20 213
f 213 19 218
f 215 213 218
f 23 219 220
f 219 22 216
f 216 21 220
f 219 216 220
f 24 221 223
f 221 3 222
f 222 25 223
f 221 222 223
f 3 221 180
f 221 24 224
f 224 1 180
f 221 224 180
f 24 225 224
f 225 6 185
f 185 1 224
f 225 185 224
f 6 225 227
f 225 24 226
f 226 26 227
f 225 226 227
f 27 228 229
f 228 6 227
f 227 26 229
f 228 227 229
f 6 228 188
f 228 27 230
f 230 7 188
f 228 230 188
f 28 231 232
f 231 7 230
f 230 27 232
f 231 230 232
f 7 231 192
f 231 28 233
f 233 9 192
f 231 233 192
f 29 234 235
f 234 9 233
f 233 28 235
f 234 233 235
f 9 234 196
f 234 29 236
f 236 11 196
f 234 236 196
f 30 237 238
f 237 11 236
f 236 29 238
f 237 236 238
f 11 237 200
f 237 30 239
f 239 13 200
f 237 239 200
f 31 240 241
f 240 13 239
f 239 30 241
f 240 239 241
f 13 240 204
f 240 31 242
f 242 15 204
f 240 242 204
f 32 243 244
f 243 15 242
f 242 31 244
f 243 242 244
f 15 243 208
f 243 32 245
f 245 17 208
f 243 245 208
f 17 246 212
f 246 33 247
f 247 19 212
f 246 247 212
f 33 246 248
f 246 17 245
f 245 32 248
f 246 245 248
f 19 249 218
f 249 34 250
f 250 21 218
f 249 250 218
f 34 249 251
f 249 19 247
f 247 33 251
f 249 247 251
f 23 220 252
f 220 21 250
f 250 34 252
f 220 250 252
f 24 253 255
f 253 35 254
f 254 36 255
f 253 254 255
f 35 253 256
f 253 24 223
f 223 25 256
f 253 223 256
f 36 257 255
f 257 26 226
f 226 24 255
f 257 226 255
f 26 257 259
f 257 36 258
f 258 37 259
f 257 258 259
f 38 260 261
f 260 26 259
f 259 37 261
f 260 259 261
f 26 260 229
f 260 38 262
f 262 27 229
f 260 262 229
f 28 263 265
f 263 38 264
f 264 39 265
f 263 264 265
f 38 263 262
f 263 28 232
f 232 27 262
f 263 232 262
f 29 266 268
f 266 39 267
f 267 40 268
f 266 267 268
f 39 266 265
f 266 29 235
f 235 28 265
f 266 235 265
f 30 269 271
f 269 40 270
f 270 41 271
f 269 270 271
f 40 269 268
f 269 30 238
f 238 29 268
f 269 238 268
f 42 272 273
f 272 30 271
f 271 41 273
f 272 271 273
f 30 272 241
f 272 42 274
f 274 31 241
f 272 274 241
f 32 275 277
f 275 42 276
f 276 43 277
f 275 276 277
f 42 275 274
f 275 32 244
f 244 31 274
f 275 244 274
f 32 278 248
f 278 44 279
f 279 33 248
f 278 279 248
f 44 278 280
f 278 32 277
f 277 43 280
f 278 277 280
f 33 281 251
f 281 45 282
f 282 34 251
f 281 282 251
f 45 281 283
f 281 33 279
f 279 44 283
f 281 279 283
f 23 252 284
f 252 34 282
f 282 45 284
f 252 282 284
f 36 285 287
f 285 46 286
f 286 47 287
f 285 286 287
f 46 285 288
f 285 36 254
f 254 35 288
f 285 254 288
f 47 289 287
f 289 37 258
f 258 36 287
f 289 258 287
f 37 289 291
f 289 47 290
f 290 48 291
f 289 290 291
f 49 292 293
f 292 37 291
f 291 48 293
f 292 291 293
f 37 292 261
f 292 49 294
f 294 38 261
f 292 294 261
f 39 295 297
f 295 49 296
f 296 50 297
f 295 296 297
f 49 295 294
f 295 39 264
f 264 38 294
f 295 264 294
f 40 298 300
f 298 50 299
f 299 51 300
f 298 299 300
f 50 298 297
f 298 40 267
f 267 39 297
f 298 267 297
f 41 301 303
f 301 51 302
f 302 52 303
f 301 302 303
f 51 301 300
f 301 41 270
f 270 40 300
f 301 270 300
f 53 304 305
f 304 41 303
f 303 52 305
f 304 303 305
f 41 304 273
f 304 53 306
f 306 42 273
f 304 306 273
f 43 307 309
f 307 53 308
f 308 54 309
f 307 308 309
f 53 307 306
f 307 43 276
f 276 42 306
f 307 276 306
f 43 310 280
f 310 55 311
f 311 44 280
f 310 311 280
f 55 310 312
f 310 43 309
f 309 54 312
f 310 309 312
f 44 313 283
f 313 56 314
f 314 45 283
f 313 314 283
f 56 313 315
f 313 44 311
f 311 55 315
f 313 311 315
f 23 284 316
f 284 45 314
f 314 56 316
f 284 314 316
f 47 317 319
f 317 57 318
f 318 58 319
f 317 318 319
f 57 317 320
f 317 47 286
f 286 46 320
f 317 286 320
f 59 321 322
f 321 47 319
f 319 58 322
f 321 319 322
f 47 321 290
f 321 59 323
f 323 48 290
f 321 323 290
f 60 324 325
f 324 48 323
f 323 59 325
f 324 323 325
f 48 324 293
f 324 60 326
f 326 49 293
f 324 326 293
f 50 327 329
f 327 60 328
f 328 61 329
f 327 328 329
f 60 327 326
f 327 50 296
f 296 49 326
f 327 296 326
f 51 330 332
f 330 61 331
f 331 62 332
f 330 331 332
f 61 330 329
f 330 51 299
f 299 50 329
f 330 299 329
f 52 333 335
f 333 62 334
f 334 63 335
f 333 334 335
f 62 333 332
f 333 52 302
f 302 51 332
f 333 302 332
f 64 336 337
f 336 52 335
f 335 63 337
f 336 335 337
f 52 336 305
f 336 64 338
f 338 53 305
f 336 338 305
f 54 339 341
f 339 64 340
f 340 65 341
f 339 340 341
f 64 339 338
f 339 54 308
f 308 53 338
f 339 308 338
f 55 342 344
f 342 65 343
f 343 66 344
f 342 343 344
f 65 342 341
f 342 55 312
f 312 54 341
f 342 312 341
f 56 345 347
f 345 66 346
f 346 67 347
f 345 346 347
f 66 345 344
f 345 56 315
f 315 55 344
f 345 315 344
f 23 316 348
f 316 56 347
f 347 67 348
f 316 347 348
f 58 349 351
f 349 68 350
f 350 69 351
f 349 350 351
f 68 349 352
f 349 58 318
f 318 57 352
f 349 318 352
f 70 353 354
f 353 58 351
f 351 69 354
f 353 351 354
f 58 353 322
f 353 70 355
f 355 59 322
f 353 355 322
f 60 356 358
f 356 70 357
f 357 71 358
f 356 357 358
f 70 356 355
f 356 60 325
f 325 59 355
f 356 325 355
f 61 359 361
f 359 71 360
f 360 72 361
f 359 360 361
f 71 359 358
f 359 61 328
f 328 60 358
f 359 328 358
f 73 362 363
f 362 61 361
f 361 72 363
f 362 361 363
f 61 362 331
f 362 73 364
f 364 62 331
f 362 364 331
f 74 365 366
f 365 62 364
f 364 73 366
f 365 364 366
f 62 365 334
f 365 74 367
f 367 63 334
f 365 367 334
f 64 368 370
f 368 74 369
f 369 75 370
f 368 369 370
f 74 368 367
f 368 64 337
f 337 63 367
f 368 337 367
f 76 371 372
f 371 64 370
f 370 75 372
f 371 370 372
f 64 371 340
f 371 76 373
f 373 65 340
f 371 373 340
f 66 374 376
f 374 76 375
f 375 77 376
f 374 375 376
f 76 374 373
f 374 66 343
f 343 65 373
f 374 343 373
f 67 377 379
f 377 77 378
f 378 78 379
f 377 378 379
f 77 377 376
f 377 67 346
f 346 66 376
f 377 346 376
f 23 348 380
f 348 67 379
f 379 78 380
f 348 379 380
f 79 381 383
f 381 68 382
f 382 80 383
f 381 382 383
f 68 381 350
f 381 79 384
f 384 69 350
f 381 384 350
f 81 385 386
f 385 69 384
f 384 79 386
f 385 384 386
f 69 385 354
f 385 81 387
f 387 70 354
f 385 387 354
f 82 388 389
f 388 70 387
f 387 81 389
f 388 387 389
f 70 388 357
f 388 82 390
f 390 71 357
f 388 390 357
f 83 391 392
f 391 71 390
f 390 82 392
f 391 390 392
f 71 391 360
f 391 83 393
f 393 72 360
f 391 393 360
f 84 394 395
f 394 72 393
f 393 83 395
f 394 393 395
f 72 394 363
f 394 84 396
f 396 73 363
f 394 396 363
f 85 397 398
f 397 73 396
f 396 84 398
f 397 396 398
f 73 397 366
f 397 85 399
f 399 74 366
f 397 399 366
f 86 400 401
f 400 74 399
f 399 85 401
f 400 399 401
f 74 400 369
f 400 86 402
f 402 75 369
f 400 402 369
f 87 403 404
f 403 75 402
f 402 86 404
f 403 402 404
f 75 403 372
f 403 87 405
f 405 76 372
f 403 405 372
f 77 406 408
f 406 87 407
f 407 88 408
f 406 407 408
f 87 406 405
f 406 77 375
f 375 76 405
f 406 375 405
f 78 409 411
f 409 88 410
f 410 89 411
f 409 410 411
f 88 409 408
f 409 78 378
f 378 77 408
f 409 378 408
f 23 380 412
f 380 78 411
f 411 89 412
f 380 411 412
f 90 413 415
f 413 80 414
f 414 91 415
f 413 414 415
f 80 413 383
f 413 90 416
f 416 79 383
f 413 416 383
f 92 417 418
f 417 79 416
f 416 90 418
f 417 416 418
f 79 417 386
f 417 92 419
f 419 81 386
f 417 419 386
f 93 420 421
f 420 81 419
f 419 92 421
f 420 419 421
f 81 420 389
f 420 93 422
f 422 82 389
f 420 422 389
f 94 423 424
f 423 82 422
f 422 93 424
f 423 422 424
f 82 423 392
f 423 94 425
f 425 83 392
f 423 425 392
f 95 426 427
f 426 83 425
f 425 94 427
f 426 425 427
f 83 426 395
f 426 95 428
f 428 84 395
f 426 428 395
f 96 429 430
f 429 84 428
f 428 95 430
f 429 428 430
f 84 429 398
f 429 96 431
f 431 85 398
f 429 431 398
f 97 432 433
f 432 85 431
f 431 96 433
f 432 431 433
f 85 432 401
f 432 97 434
f 434 86 401
f 432 434 401
f 98 435 436
f 435 86 434
f 434 97 436
f 435 434 436
f 86 435 404
f 435 98 437
f 437 87 404
f 435 437 404
f 88 438 440
f 438 98 439
f 439 99 440
f 438 439 440
f 98 438 437
f 438 88 407
f 407 87 437
f 438 407 437
f 89 441 443
f 441 99 442
f 442 100 443
f 441 442 443
f 99 441 440
f 441 89 410
f 410 88 440
f 441 410 440
f 23 412 444
f 412 89 443
f 443 100 444
f 412 443 444
f 101 445 447
f 445 91 446
f 446 102 447
f 445 446 447
f 91 445 415
f 445 101 448
f 448 90 415
f 445 448 415
f 103 449 450
f 449 90 448
f 448 101 450
f 449 448 450
f 90 449 418
f 449 103 451
f 451 92 418
f 449 451 418
f 104 452 453
f 452 92 451
f 451 103 453
f 452 451 453
f 92 452 421
f 452 104 454
f 454 93 421
f 452 454 421
f 105 455 456
f 455 93 454
f 454 104 456
f 455 454 456
f 93 455 424
f 455 105 457
f 457 94 424
f 455 457 424
f 106 458 459
f 458 94 457
f 457 105 459
f 458 457 459
f 94 458 427
f 458 106 460
f 460 95 427
f 458 460 427
f 107 461 462
f 461 95 460
f 460 106 462
f 461 460 462
f 95 461 430
f 461 107 463
f 463 96 430
f 461 463 430
f 108 464 465
f 464 96 463
f 463 107 465
f 464 463 465
f 96 464 433
f 464 108 466
f 466 97 433
f 464 466 433
f 109 467 468
f 467 97 466
f 466 108 468
f 467 466 468
f 97 467 436
f 467 109 469
f 469 98 436
f 467 469 436
f 99 470 472
f 470 109 471
f 471 110 472
f 470 471 472
f 109 470 469
f 470 99 439
f 439 98 469
f 470 439 469
f 100 473 475
f 473 110 474
f 474 111 475
f 473 474 475
f 110 473 472
f 473 100 442
f 442 99 472
f 473 442 472
f 23 444 476
f 444 100 475
f 475 111 476
f 444 475 476
f 112 477 479
f 477 102 478
f 478 113 479
f 477 478 479
f 102 477 447
f 477 112 480
f 480 101 447
f 477 480 447
f 103 481 483
f 481 112 482
f 482 114 483
f 481 482 483
f 112 481 480
f 481 103 450
f 450 101 480
f 481 450 480
f 115 484 485
f 484 103 483
f 483 114 485
f 484 483 485
f 103 484 453
f 484 115 486
f 486 104 453
f 484 486 453
f 116 487 488
f 487 104 486
f 486 115 488
f 487 486 488
f 104 487 456
f 487 116 489
f 489 105 456
f 487 489 456
f 117 490 491
f 490 105 489
f 489 116 491
f 490 489 491
f 105 490 459
f 490 117 492
f 492 106 459
f 490 492 459
f 118 493 494
f 493 106 492
f 492 117 494
f 493 492 494
f 106 493 462
f 493 118 495
f 495 107 462
f 493 495 462
f 119 496 497
f 496 107 495
f 495 118 497
f 496 495 497
f 107 496 465
f 496 119 498
f 498 108 465
f 496 498 465
f 120 499 500
f 499 108 498
f 498 119 500
f 499 498 500
f 108 499 468
f 499 120 501
f 501 109 468
f 499 501 468
f 121 502 503
f 502 109 501
f 501 120 503
f 502 501 503
f 109 502 471
f 502 121 504
f 504 110 471
f 502 504 471
f 122 505 506
f 505 110 504
f 504 121 506
f 505 504 506
f 110 505 474
f 505 122 507
f 507 111 474
f 505 507 474
f 23 476 508
f 476 111 507
f 507 122 508
f 476 507 508
f 123 509 510
f 509 112 479
f 479 113 510
f 509 479 510
f 112 509 512
f 509 123 511
f 511 124 512
f 509 511 512
f 114 513 515
f 513 124 514
f 514 125 515
f 513 514 515
f 124 513 512
f 513 114 482
f 482 112 512
f 513 482 512
f 114 516 485
f 516 126 517
f 517 115 485
f 516 517 485
f 126 516 518
f 516 114 515
f 515 125 518
f 516 515 518
f 126 519 517
f 519 116 488
f 488 115 517
f 519 488 517
f 116 519 521
f 519 126 520
f 520 127 521
f 519 520 521
f 127 522 521
f 522 117 491
f 491 116 521
f 522 491 521
f 117 522 524
f 522 127 523
f 523 128 524
f 522 523 524
f 128 525 524
f 525 118 494
f 494 117 524
f 525 494 524
f 118 525 527
f 525 128 526
f 526 129 527
f 525 526 527
f 118 528 497
f 528 130 529
f 529 119 497
f 528 529 497
f 130 528 530
f 528 118 527
f 527 129 530
f 528 527 530
f 130 531 529
f 531 120 500
f 500 119 529
f 531 500 529
f 120 531 533
f 531 130 532
f 532 131 533
f 531 532 533
f 132 534 535
f 534 120 533
f 533 131 535
f 534 533 535
f 120 534 503
f 534 132 536
f 536 121 503
f 534 536 503
f 133 537 538
f 537 121 536
f 536 132 538
f 537 536 538
f 121 537 506
f 537 133 539
f 539 122 506
f 537 539 506
f 23 508 540
f 508 122 539
f 539 133 540
f 508 539 540
f 134 541 542
f 541 124 511
f 511 123 542
f 541 511 542
f 124 541 544
f 541 134 543
f 543 135 544
f 541 543 544
f 125 545 547
f 545 135 546
f 546 136 547
f 545 546 547
f 135 545 544
f 545 125 514
f 514 124 544
f 545 514 544
f 125 548 518
f 548 137 549
f 549 126 518
f 548 549 518
f 137 548 550
f 548 125 547
f 547 136 550
f 548 547 550
f 137 551 549
f 551 127 520
f 520 126 549
f 551 520 549
f 127 551 553
f 551 137 552
f 552 138 553
f 551 552 553
f 138 554 553
f 554 128 523
f 523 127 553
f 554 523 553
f 128 554 556
f 554 138 555
f 555 139 556
f 554 555 556
f 139 557 556
f 557 129 526
f 526 128 556
f 557 526 556
f 129 557 559
f 557 139 558
f 558 140 559
f 557 558 559
f 129 560 530
f 560 141 561
f 561 130 530
f 560 561 530
f 141 560 562
f 560 129 559
f 559 140 562
f 560 559 562
f 141 563 561
f 563 131 532
f 532 130 561
f 563 532 561
f 131 563 565
f 563 141 564
f 564 142 565
f 563 564 565
f 143 566 567
f 566 131 565
f 565 142 567
f 566 565 567
f 131 566 535
f 566 143 568
f 568 132 535
f 566 568 535
f 144 569 570
f 569 132 568
f 568 143 570
f 569 568 570
f 132 569 538
f 569 144 571
f 571 133 538
f 569 571 538
f 23 540 572
f 540 133 571
f 571 144 572
f 540 571 572
f 145 573 574
f 573 135 543
f 543 134 574
f 573 543 574
f 135 573 576
f 573 145 575
f 575 146 576
f 573 575 576
f 135 577 546
f 577 147 578
f 578 136 546
f 577 578 546
f 147 577 579
f 577 135 576
f 576 146 579
f 577 576 579
f 147 580 578
f 580 137 550
f 550 136 578
f 580 550 578
f 137 580 582
f 580 147 581
f 581 148 582
f 580 581 582
f 148 583 582
f 583 138 552
f 552 137 582
f 583 552 582
f 138 583 585
f 583 148 584
f 584 149 585
f 583 584 585
f 138 586 555
f 586 150 587
f 587 139 555
f 586 587 555
f 150 586 588
f 586 138 585
f 585 149 588
f 586 585 588
f 139 589 558
f 589 151 590
f 590 140 558
f 589 590 558
f 151 589 591
f 589 139 587
f 587 150 591
f 589 587 591
f 151 592 590
f 592 141 562
f 562 140 590
f 592 562 590
f 141 592 594
f 592 151 593
f 593 152 594
f 592 593 594
f 141 595 564
f 595 153 596
f 596 142 564
f 595 596 564
f 153 595 597
f 595 141 594
f 594 152 597
f 595 594 597
f 153 598 596
f 598 143 567
f 567 142 596
f 598 567 596
f 143 598 600
f 598 153 599
f 599 154 600
f 598 599 600
f 154 601 600
f 601 144 570
f 570 143 600
f 601 570 600
f 144 601 603
f 601 154 602
f 602 155 603
f 601 602 603
f 23 572 604
f 572 144 603
f 603 155 604
f 572 603 604
f 156 605 606
f 605 146 575
f 575 145 606
f 605 575 606
f 146 605 608
f 605 156 607
f 607 157 608
f 605 607 608
f 146 609 579
f 609 158 610
f 610 147 579
f 609 610 579
f 158 609 611
f 609 146 608
f 608 157 611
f 609 608 611
f 158 612 610
f 612 148 581
f 581 147 610
f 612 581 610
f 148 612 614
f 612 158 613
f 613 159 614
f 612 613 614
f 159 615 614
f 615 149 584
f 584 148 614
f 615 584 614
f 149 615 617
f 615 159 616
f 616 160 617
f 615 616 617
f 149 618 588
f 618 161 619
f 619 150 588
f 618 619 588
f 161 618 620
f 618 149 617
f 617 160 620
f 618 617 620
f 150 621 591
f 621 162 622
f 622 151 591
f 621 622 591
f 162 621 623
f 621 150 619
f 619 161 623
f 621 619 623
f 162 624 622
f 624 152 593
f 593 151 622
f 624 593 622
f 152 624 626
f 624 162 625
f 625 163 626
f 624 625 626
f 152 627 597
f 627 164 628
f 628 153 597
f 627 628 597
f 164 627 629
f 627 152 626
f 626 163 629
f 627 626 629
f 164 630 628
f 630 154 599
f 599 153 628
f 630 599 628
f 154 630 632
f 630 164 631
f 631 165 632
f 630 631 632
f 165 633 632
f 633 155 602
f 602 154 632
f 633 602 632
f 155 633 635
f 633 165 634
f 634 166 635
f 633 634 635
f 23 604 636
f 604 155 635
f 635 166 636
f 604 635 636
f 167 637 639
f 637 156 638
f 638 168 639
f 637 638 639
f 156 637 607
f 637 167 640
f 640 157 607
f 637 640 607
f 157 641 611
f 641 169 642
f 642 158 611
f 641 642 611
f 169 641 643
f 641 157 640
f 640 167 643
f 641 640 643
f 170 644 645
f 644 158 642
f 642 169 645
f 644 642 645
f 158 644 613
f 644 170 646
f 646 159 613
f 644 646 613
f 171 647 648
f 647 159 646
f 646 170 648
f 647 646 648
f 159 647 616
f 647 171 649
f 649 160 616
f 647 649 616
f 172 650 651
f 650 160 649
f 649 171 651
f 650 649 651
f 160 650 620
f 650 172 652
f 652 161 620
f 650 652 620
f 173 653 654
f 653 161 652
f 652 172 654
f 653 652 654
f 161 653 623
f 653 173 655
f 655 162 623
f 653 655 623
f 174 656 657
f 656 162 655
f 655 173 657
f 656 655 657
f 162 656 625
f 656 174 658
f 658 163 625
f 656 658 625
f 175 659 660
f 659 163 658
f 658 174 660
f 659 658 660
f 163 659 629
f 659 175 661
f 661 164 629
f 659 661 629
f 175 662 661
f 662 165 631
f 631 164 661
f 662 631 661
f 165 662 664
f 662 175 663
f 663 176 664
f 662 663 664
f 176 665 664
f 665 166 634
f 634 165 664
f 665 634 664
f 166 665 667
f 665 176 666
f 666 177 667
f 665 666 667
f 23 636 668
f 636 166 667
f 667 177 668
f 636 667 668
f 4 669 182
f 669 168 670
f 670 2 182
f 669 670 182
f 168 669 639
f 669 4 671
f 671 167 639
f 669 671 639
f 4 672 671
f 672 169 643
f 643 167 671
f 672 643 671
f 169 672 673
f 672 4 184
f 184 5 673
f 672 184 673
f 8 674 190
f 674 169 673
f 673 5 190
f 674 673 190
f 169 674 645
f 674 8 675
f 675 170 645
f 674 675 645
f 10 676 194
f 676 170 675
f 675 8 194
f 676 675 194
f 170 676 648
f 676 10 677
f 677 171 648
f 676 677 648
f 12 678 198
f 678 171 677
f 677 10 198
f 678 677 198
f 171 678 651
f 678 12 679
f 679 172 651
f 678 679 651
f 14 680 202
f 680 172 679
f 679 12 202
f 680 679 202
f 172 680 654
f 680 14 681
f 681 173 654
f 680 681 654
f 16 682 206
f 682 173 681
f 681 14 206
f 682 681 206
f 173 682 657
f 682 16 683
f 683 174 657
f 682 683 657
f 18 684 210
f 684 174 683
f 683 16 210
f 684 683 210
f 174 684 660
f 684 18 685
f 685 175 660
f 684 685 660
f 18 686 685
f 686 176 663
f 663 175 685
f 686 663 685
f 176 686 687
f 686 18 214
f 214 20 687
f 686 214 687
f 20 688 687
f 688 177 666
f 666 176 687
f 688 666 687
f 177 688 689
f 688 20 217
f 217 22 689
f 688 217 689
f 23 668 219
f 668 177 689
f 689 22 219
f 668 689 219
