# Unified Preprocessed OBJ file from D00962.obj
# Applied remeshing: No
# Applied 4-step normalization: centering, PCA alignment, flipping, scaling
# Generated on 2025-09-29 15:16:17

v 0.501061 0.561354 0.195602
v 0.465409 0.482860 -0.051493
v 0.498559 0.482858 -0.051828
v 0.465596 0.488747 -0.032936
v -0.461732 0.488818 -0.023582
v 0.473377 0.564300 0.205161
v -0.468881 0.561429 0.205387
v 0.473283 0.561356 0.195882
v -0.468788 0.564372 0.214666
v -0.496319 0.482934 -0.041792
v -0.461920 0.482931 -0.042139
v -0.493817 0.561431 0.205638
v -0.491197 -0.222387 0.471299
v 0.500772 -0.313716 0.173625
v -0.494106 -0.313640 0.183661
v 0.503681 -0.222464 0.461263
v 0.500925 -0.274600 0.188450
v 0.500674 -0.282450 0.163707
v 0.503435 -0.198865 0.436756
v 0.503592 -0.193959 0.452221
v -0.491443 -0.198788 0.446792
v -0.491286 -0.193882 0.462257
v -0.493953 -0.274524 0.198486
v -0.494204 -0.282374 0.173743
v -0.466507 -0.198790 0.446541
v 0.475658 -0.198863 0.437036
v 0.475752 -0.195919 0.446315
v -0.466413 -0.195847 0.455820
v -0.459554 -0.274527 0.198139
v -0.461717 0.418102 -0.021574
v -0.460578 0.053407 0.094113
v -0.459925 -0.155834 0.160488
v -0.460130 -0.090061 0.139624
v -0.460182 -0.073340 0.134319
v -0.461853 0.461404 -0.035310
v 0.467962 -0.268711 0.207341
v 0.467775 -0.274598 0.188784
v -0.459366 -0.268639 0.216696
v -0.461665 0.467291 -0.016753
v -0.440163 0.544649 0.220634
v 0.446218 0.544581 0.211692
v 0.448467 -0.175418 0.440087
v -0.437914 -0.175350 0.449029
v -0.459681 -0.168046 0.184786
v 0.467648 -0.168117 0.175431
v -0.461038 -0.100174 0.049734
v -0.433007 -0.141579 -0.081066
v -0.462357 -0.141576 -0.080770
v -0.432187 -0.115876 -0.000048
v -0.431687 -0.100176 0.049438
v -0.459995 -0.067452 0.152876
v 0.466938 0.059223 0.103315
v 0.465588 0.425398 -0.033265
v 0.465776 0.431285 -0.014708
v 0.466750 0.053336 0.084758
v -0.460351 -0.078644 0.117599
v -0.462306 -0.000791 -0.076726
v -0.462540 -0.132165 -0.098926
v -0.464167 0.388795 -0.264183
v -0.464032 0.345492 -0.250447
v -0.463445 0.363903 -0.192413
v -0.463881 0.317215 -0.235251
v -0.463739 0.288440 -0.221019
v -0.463608 0.259202 -0.207769
v -0.463487 0.229531 -0.195513
v -0.463375 0.199463 -0.184268
v -0.463275 0.169033 -0.174046
v -0.463184 0.138274 -0.164858
v -0.463104 0.107222 -0.156715
v -0.463035 0.075912 -0.149626
v -0.462977 0.044381 -0.143600
v -0.462929 0.012664 -0.138642
v -0.462893 -0.019202 -0.134760
v 0.467198 -0.090132 0.130269
v 0.466291 -0.100245 0.040379
v 0.466977 -0.078715 0.108244
v 0.467193 -0.145377 0.130183
v 0.467404 -0.155905 0.151133
v 0.467104 -0.162774 0.121442
v 0.467314 -0.173302 0.142391
v 0.440658 -0.115943 -0.008853
v 0.464971 -0.141647 -0.090125
v 0.439839 -0.141646 -0.089872
v 0.441158 -0.100243 0.040633
v 0.440699 -0.096074 -0.004944
v 0.439809 -0.095032 -0.093174
v 0.440617 -0.069696 -0.013311
v 0.439525 -0.090343 -0.121316
v 0.439770 -0.082660 -0.097099
v 0.439656 -0.132234 -0.108027
v 0.440605 -0.099017 -0.014222
v -0.433189 -0.132167 -0.099222
v -0.433075 -0.082593 -0.088293
v -0.433320 -0.090276 -0.112511
v -0.433036 -0.094965 -0.084369
v -0.432229 -0.069629 -0.004506
v -0.432240 -0.098950 -0.005417
v -0.432146 -0.096007 0.003861
v 0.426181 -0.069695 -0.013166
v 0.425373 -0.095031 -0.093028
v -0.423013 -0.082594 -0.088395
v -0.413279 -0.082595 -0.088493
v -0.403544 -0.082596 -0.088591
v -0.390565 -0.082597 -0.088722
v -0.377586 -0.082598 -0.088853
v -0.367852 -0.082598 -0.088951
v -0.354872 -0.082599 -0.089082
v -0.345138 -0.082600 -0.089181
v -0.332159 -0.082601 -0.089311
v -0.315935 -0.082602 -0.089475
v -0.299711 -0.082604 -0.089639
v -0.283488 -0.082605 -0.089802
v -0.270508 -0.082606 -0.089933
v -0.257529 -0.082607 -0.090064
v -0.244550 -0.082608 -0.090195
v -0.228326 -0.082609 -0.090359
v -0.215347 -0.082610 -0.090490
v -0.202368 -0.082611 -0.090621
v -0.189389 -0.082612 -0.090752
v -0.176410 -0.082613 -0.090883
v -0.163431 -0.082614 -0.091014
v -0.150451 -0.082615 -0.091145
v -0.137472 -0.082616 -0.091275
v -0.124494 -0.082617 -0.091406
v -0.111514 -0.082618 -0.091537
v -0.098535 -0.082619 -0.091668
v -0.085556 -0.082620 -0.091799
v -0.075822 -0.082621 -0.091897
v -0.062843 -0.082622 -0.092028
v -0.053108 -0.082623 -0.092126
v -0.040130 -0.082624 -0.092257
v -0.027150 -0.082625 -0.092388
v -0.014171 -0.082626 -0.092519
v -0.001192 -0.082627 -0.092650
v 0.011787 -0.082628 -0.092781
v 0.024766 -0.082629 -0.092912
v 0.037745 -0.082630 -0.093043
v 0.050725 -0.082631 -0.093174
v 0.060459 -0.082631 -0.093272
v 0.070193 -0.082632 -0.093370
v 0.083172 -0.082633 -0.093501
v 0.096151 -0.082634 -0.093632
v 0.109130 -0.082635 -0.093763
v 0.122109 -0.082636 -0.093894
v 0.135089 -0.082637 -0.094025
v 0.148068 -0.082638 -0.094156
v 0.161047 -0.082639 -0.094287
v 0.174026 -0.082640 -0.094418
v 0.187005 -0.082641 -0.094549
v 0.199984 -0.082642 -0.094680
v 0.212963 -0.082643 -0.094811
v 0.222698 -0.082644 -0.094909
v 0.232432 -0.082644 -0.095007
v 0.242166 -0.082645 -0.095105
v 0.255145 -0.082646 -0.095236
v 0.268124 -0.082647 -0.095367
v 0.281103 -0.082648 -0.095498
v 0.294083 -0.082649 -0.095629
v 0.307062 -0.082650 -0.095760
v 0.320041 -0.082651 -0.095891
v 0.333020 -0.082652 -0.096022
v 0.345999 -0.082653 -0.096153
v 0.358978 -0.082654 -0.096284
v 0.371957 -0.082655 -0.096415
v 0.384936 -0.082656 -0.096545
v 0.397915 -0.082657 -0.096676
v 0.410895 -0.082658 -0.096807
v 0.425335 -0.082659 -0.096953
v 0.464789 -0.132236 -0.108281
v -0.460135 -0.145306 0.139538
v -0.158167 -0.108335 0.062873
v -0.158108 -0.111249 0.068672
v 0.182593 -0.111275 0.065235
v 0.182535 -0.108361 0.059436
v 0.467146 -0.073411 0.124965
v -0.460014 -0.173231 0.151746
v -0.460225 -0.162703 0.130796
v 0.233278 -0.069680 -0.011220
v 0.230146 -0.069680 -0.011188
v 0.230167 -0.076255 -0.009102
v -0.412187 -0.076206 -0.002622
v -0.422166 -0.069630 -0.004607
v -0.412432 -0.069631 -0.004706
v -0.405289 -0.076207 -0.002692
v -0.399613 -0.076207 -0.002749
v -0.405310 -0.069631 -0.004777
v -0.402698 -0.069631 -0.004804
v -0.392715 -0.076208 -0.002819
v -0.385988 -0.076208 -0.002886
v -0.392736 -0.069632 -0.004904
v -0.389719 -0.069632 -0.004935
v -0.379091 -0.076209 -0.002956
v -0.363184 -0.076210 -0.003116
v -0.379111 -0.069633 -0.005042
v -0.376740 -0.069633 -0.005066
v -0.367005 -0.069634 -0.005164
v -0.356286 -0.076210 -0.003186
v -0.353614 -0.076211 -0.003213
v -0.356307 -0.069635 -0.005272
v -0.354026 -0.069635 -0.005295
v -0.346717 -0.076211 -0.003283
v -0.312533 -0.076214 -0.003627
v -0.346737 -0.069636 -0.005368
v -0.344292 -0.069636 -0.005393
v -0.331313 -0.069637 -0.005524
v -0.315089 -0.069638 -0.005688
v -0.302186 -0.076214 -0.003732
v -0.297320 -0.076215 -0.003781
v -0.302206 -0.069639 -0.005818
v -0.298865 -0.069639 -0.005851
v -0.286974 -0.076216 -0.003885
v -0.279849 -0.076216 -0.003957
v -0.286994 -0.069640 -0.005971
v -0.282641 -0.069641 -0.006015
v -0.272951 -0.076217 -0.004027
v -0.241583 -0.076219 -0.004343
v -0.272972 -0.069641 -0.006112
v -0.269662 -0.069642 -0.006146
v -0.256683 -0.069643 -0.006277
v -0.243136 -0.069644 -0.006413
v -0.231236 -0.076220 -0.004448
v -0.224326 -0.076220 -0.004517
v -0.231256 -0.069645 -0.006533
v -0.227480 -0.069645 -0.006571
v -0.217428 -0.076221 -0.004587
v -0.211192 -0.076221 -0.004650
v -0.217449 -0.069646 -0.006673
v -0.214501 -0.069646 -0.006702
v -0.204294 -0.076222 -0.004719
v -0.172918 -0.076224 -0.005036
v -0.204315 -0.069647 -0.006805
v -0.201522 -0.069647 -0.006833
v -0.188543 -0.069648 -0.006964
v -0.175564 -0.069649 -0.007095
v -0.166020 -0.076225 -0.005105
v -0.159883 -0.076225 -0.005167
v -0.166040 -0.069650 -0.007191
v -0.162585 -0.069650 -0.007226
v -0.152985 -0.076226 -0.005237
v -0.120513 -0.076228 -0.005564
v -0.153006 -0.069651 -0.007323
v -0.149605 -0.069651 -0.007357
v -0.136626 -0.069652 -0.007488
v -0.123647 -0.069653 -0.007619
v -0.113615 -0.076229 -0.005634
v -0.107572 -0.076229 -0.005695
v -0.113636 -0.069654 -0.007720
v -0.110668 -0.069654 -0.007750
v -0.100674 -0.076230 -0.005765
v -0.095047 -0.076230 -0.005821
v -0.100695 -0.069655 -0.007850
v -0.097689 -0.069655 -0.007881
v -0.088149 -0.076231 -0.005891
v -0.061527 -0.076233 -0.006160
v -0.088170 -0.069656 -0.007977
v -0.084710 -0.069656 -0.008012
v -0.074975 -0.069657 -0.008110
v -0.061996 -0.069658 -0.008241
v -0.054629 -0.076233 -0.006229
v -0.049993 -0.076234 -0.006276
v -0.054649 -0.069658 -0.008315
v -0.052262 -0.069658 -0.008339
v -0.043095 -0.076234 -0.006345
v -0.011177 -0.076237 -0.006667
v -0.043116 -0.069659 -0.008431
v -0.039283 -0.069659 -0.008470
v -0.026304 -0.069660 -0.008601
v -0.013325 -0.069661 -0.008732
v -0.004279 -0.076237 -0.006737
v 0.002053 -0.076238 -0.006801
v -0.004299 -0.069662 -0.008823
v -0.000346 -0.069662 -0.008863
v 0.008950 -0.076238 -0.006870
v 0.016003 -0.076239 -0.006942
v 0.008930 -0.069663 -0.008956
v 0.012634 -0.069663 -0.008994
v 0.022901 -0.076239 -0.007011
v 0.052378 -0.076242 -0.007309
v 0.022881 -0.069664 -0.009097
v 0.025612 -0.069664 -0.009125
v 0.038591 -0.069665 -0.009256
v 0.051571 -0.069666 -0.009386
v 0.059276 -0.076242 -0.007378
v 0.061697 -0.076242 -0.007403
v 0.059256 -0.069667 -0.009464
v 0.061305 -0.069667 -0.009485
v 0.068594 -0.076243 -0.007472
v 0.099774 -0.076245 -0.007787
v 0.068574 -0.069668 -0.009558
v 0.071039 -0.069668 -0.009583
v 0.084018 -0.069669 -0.009714
v 0.096998 -0.069670 -0.009845
v 0.106672 -0.076246 -0.007856
v 0.112763 -0.076246 -0.007918
v 0.106651 -0.069670 -0.009942
v 0.109977 -0.069671 -0.009976
v 0.119661 -0.076247 -0.007987
v 0.151746 -0.076249 -0.008311
v 0.119640 -0.069671 -0.010073
v 0.122956 -0.069672 -0.010107
v 0.135935 -0.069673 -0.010238
v 0.148914 -0.069674 -0.010368
v 0.158644 -0.076250 -0.008381
v 0.164817 -0.076250 -0.008443
v 0.158623 -0.069674 -0.010466
v 0.161893 -0.069675 -0.010499
v 0.171715 -0.076251 -0.008512
v 0.177618 -0.076251 -0.008572
v 0.171694 -0.069675 -0.010598
v 0.174872 -0.069676 -0.010630
v 0.184516 -0.076252 -0.008642
v 0.216404 -0.076254 -0.008963
v 0.184495 -0.069676 -0.010727
v 0.187851 -0.069677 -0.010761
v 0.200830 -0.069678 -0.010892
v 0.213810 -0.069679 -0.011023
v 0.223375 -0.076255 -0.009034
v 0.225869 -0.076255 -0.009059
v 0.223355 -0.069679 -0.011119
v 0.223544 -0.069679 -0.011121
v 0.225848 -0.069680 -0.011145
v 0.259268 -0.076258 -0.009396
v 0.243012 -0.069681 -0.011318
v 0.255992 -0.069682 -0.011449
v 0.264971 -0.076258 -0.009453
v 0.272027 -0.076258 -0.009524
v 0.264950 -0.069683 -0.011539
v 0.268971 -0.069683 -0.011580
v 0.277871 -0.076259 -0.009583
v 0.285275 -0.076260 -0.009658
v 0.277850 -0.069684 -0.011669
v 0.281950 -0.069684 -0.011711
v 0.291253 -0.076260 -0.009718
v 0.324306 -0.076262 -0.010052
v 0.291233 -0.069685 -0.011804
v 0.294929 -0.069685 -0.011841
v 0.307908 -0.069686 -0.011972
v 0.320887 -0.069687 -0.012103
v 0.329320 -0.076263 -0.010102
v 0.337240 -0.076263 -0.010182
v 0.329299 -0.069688 -0.012188
v 0.333866 -0.069688 -0.012234
v 0.342921 -0.076264 -0.010240
v 0.342900 -0.069689 -0.012325
v 0.346845 -0.069689 -0.012365
v 0.376143 -0.076266 -0.010575
v 0.359824 -0.069690 -0.012496
v 0.372804 -0.069691 -0.012627
v 0.381179 -0.076267 -0.010626
v 0.389751 -0.076268 -0.010712
v 0.381159 -0.069692 -0.012711
v 0.385783 -0.069692 -0.012758
v 0.395116 -0.076268 -0.010766
v 0.402480 -0.076268 -0.010840
v 0.395095 -0.069693 -0.012852
v 0.398762 -0.069693 -0.012889
v 0.408106 -0.076269 -0.010897
v 0.408085 -0.069694 -0.012983
v 0.411741 -0.069694 -0.013020
v 0.402460 -0.069693 -0.012926
v 0.389731 -0.069692 -0.012798
v 0.376122 -0.069691 -0.012661
v 0.337220 -0.069688 -0.012268
v 0.324286 -0.069687 -0.012138
v 0.285255 -0.069684 -0.011744
v 0.272006 -0.069683 -0.011610
v 0.259247 -0.069682 -0.011481
v 0.216384 -0.069679 -0.011049
v 0.177597 -0.069676 -0.010658
v 0.164797 -0.069675 -0.010529
v 0.151725 -0.069674 -0.010397
v 0.112742 -0.069671 -0.010004
v 0.099754 -0.069670 -0.009873
v 0.061676 -0.069667 -0.009488
v 0.052358 -0.069666 -0.009394
v 0.015983 -0.069664 -0.009027
v 0.002032 -0.069662 -0.008887
v -0.011197 -0.069661 -0.008753
v -0.050014 -0.069658 -0.008362
v -0.061547 -0.069658 -0.008245
v -0.095068 -0.069655 -0.007907
v -0.107593 -0.069654 -0.007781
v -0.120533 -0.069653 -0.007650
v -0.159904 -0.069650 -0.007253
v -0.172938 -0.069649 -0.007122
v -0.211213 -0.069646 -0.006736
v -0.224346 -0.069645 -0.006603
v -0.241603 -0.069644 -0.006429
v -0.279870 -0.069641 -0.006043
v -0.297341 -0.069640 -0.005867
v -0.312553 -0.069638 -0.005713
v -0.353635 -0.069635 -0.005299
v -0.363205 -0.069634 -0.005202
v -0.386009 -0.069633 -0.004972
v -0.399634 -0.069632 -0.004835
v -0.412207 -0.069631 -0.004708
v 0.410933 -0.095030 -0.092883
v 0.397954 -0.095029 -0.092752
v 0.384975 -0.095028 -0.092621
v 0.371996 -0.095027 -0.092490
v 0.359017 -0.095026 -0.092359
v 0.346038 -0.095025 -0.092228
v 0.333059 -0.095024 -0.092097
v 0.320079 -0.095023 -0.091966
v 0.307100 -0.095022 -0.091835
v 0.294121 -0.095021 -0.091704
v 0.281142 -0.095020 -0.091573
v 0.268163 -0.095019 -0.091442
v 0.255184 -0.095018 -0.091312
v 0.242205 -0.095017 -0.091181
v 0.232470 -0.095016 -0.091082
v 0.222736 -0.095016 -0.090984
v 0.213002 -0.095015 -0.090886
v 0.200023 -0.095014 -0.090755
v 0.187044 -0.095013 -0.090624
v 0.174065 -0.095012 -0.090493
v 0.161085 -0.095011 -0.090362
v 0.148106 -0.095010 -0.090231
v 0.135127 -0.095009 -0.090100
v 0.122148 -0.095008 -0.089969
v 0.109169 -0.095007 -0.089839
v 0.096190 -0.095006 -0.089708
v 0.083211 -0.095005 -0.089577
v 0.070232 -0.095004 -0.089446
v 0.060498 -0.095003 -0.089348
v 0.050763 -0.095003 -0.089249
v 0.037784 -0.095002 -0.089118
v 0.024805 -0.095001 -0.088987
v 0.011826 -0.095000 -0.088857
v -0.001153 -0.094999 -0.088726
v -0.014132 -0.094998 -0.088595
v -0.027111 -0.094997 -0.088464
v -0.040091 -0.094996 -0.088333
v -0.053070 -0.094995 -0.088202
v -0.062804 -0.094994 -0.088104
v -0.075783 -0.094993 -0.087973
v -0.085518 -0.094992 -0.087875
v -0.098497 -0.094991 -0.087744
v -0.111475 -0.094990 -0.087613
v -0.124455 -0.094989 -0.087482
v -0.137434 -0.094988 -0.087351
v -0.150413 -0.094987 -0.087220
v -0.163392 -0.094986 -0.087089
v -0.176371 -0.094985 -0.086958
v -0.189350 -0.094984 -0.086827
v -0.202330 -0.094983 -0.086696
v -0.215309 -0.094982 -0.086565
v -0.228287 -0.094981 -0.086434
v -0.244512 -0.094980 -0.086271
v -0.257491 -0.094979 -0.086140
v -0.270470 -0.094978 -0.086009
v -0.283449 -0.094977 -0.085878
v -0.299673 -0.094976 -0.085714
v -0.315896 -0.094974 -0.085551
v -0.332121 -0.094973 -0.085387
v -0.345099 -0.094972 -0.085256
v -0.354834 -0.094971 -0.085158
v -0.367813 -0.094970 -0.085027
v -0.377547 -0.094970 -0.084929
v -0.390526 -0.094969 -0.084798
v -0.403506 -0.094968 -0.084667
v -0.413240 -0.094967 -0.084569
v -0.422974 -0.094966 -0.084470
v 0.389253 -0.084666 -0.059996
v 0.394618 -0.084666 -0.060051
v 0.375645 -0.084665 -0.059859
v 0.380682 -0.084665 -0.059910
v 0.336742 -0.084662 -0.059467
v 0.342423 -0.084662 -0.059524
v 0.284777 -0.084658 -0.058942
v 0.290756 -0.084658 -0.059003
v 0.271529 -0.084657 -0.058809
v 0.277373 -0.084657 -0.058868
v 0.258770 -0.084656 -0.058680
v 0.264473 -0.084656 -0.058738
v 0.225371 -0.084653 -0.058343
v 0.229669 -0.084654 -0.058387
v 0.177120 -0.084650 -0.057856
v 0.184018 -0.084650 -0.057926
v 0.151248 -0.084648 -0.057595
v 0.158146 -0.084648 -0.057665
v 0.112265 -0.084645 -0.057202
v 0.119163 -0.084645 -0.057272
v 0.099276 -0.084644 -0.057071
v 0.106174 -0.084644 -0.057141
v 0.061199 -0.084641 -0.056687
v 0.068097 -0.084641 -0.056757
v 0.051881 -0.084640 -0.056593
v 0.058779 -0.084640 -0.056663
v 0.015505 -0.084637 -0.056226
v 0.012483 -0.074394 -0.023906
v 0.022403 -0.084638 -0.056296
v -0.011675 -0.084635 -0.055952
v -0.004777 -0.084636 -0.056021
v -0.062024 -0.084631 -0.055444
v -0.055127 -0.084632 -0.055514
v -0.108070 -0.084628 -0.054979
v -0.101172 -0.084628 -0.055049
v -0.121011 -0.084627 -0.054849
v -0.114113 -0.084627 -0.054918
v -0.160381 -0.084624 -0.054452
v -0.153483 -0.084624 -0.054521
v -0.211690 -0.084620 -0.053934
v -0.204792 -0.084620 -0.054004
v -0.243875 -0.092800 -0.079405
v -0.242081 -0.084617 -0.053628
v -0.231734 -0.084618 -0.053732
v -0.297818 -0.084613 -0.053065
v -0.287471 -0.084614 -0.053170
v -0.313031 -0.084612 -0.052912
v -0.302684 -0.084613 -0.053016
v -0.354112 -0.084609 -0.052497
v -0.347214 -0.084609 -0.052567
v -0.363682 -0.084608 -0.052401
v -0.356784 -0.084609 -0.052470
v -0.386486 -0.084606 -0.052171
v -0.379588 -0.084607 -0.052240
v -0.412685 -0.084604 -0.051906
v -0.405787 -0.084605 -0.051976
v -0.460391 0.059295 0.112670
v -0.429082 0.423986 -0.003344
v -0.461530 0.423989 -0.003017
v -0.429217 0.467289 -0.017080
v -0.111601 0.413018 -0.003075
v 0.089575 0.413003 -0.005104
v 0.089469 0.447026 -0.015897
v 0.436573 0.431287 -0.014414
v -0.111707 0.447041 -0.013867
v 0.436438 0.474589 -0.028150
v 0.465641 0.474587 -0.028445
v 0.465453 0.468700 -0.047002
v 0.433936 0.396093 -0.275580
v 0.463138 0.396091 -0.275875
v 0.434071 0.352790 -0.261844
v 0.434719 0.373132 -0.197726
v 0.434251 0.325171 -0.243769
v 0.434417 0.296692 -0.227083
v 0.434569 0.267422 -0.211828
v 0.435882 0.001070 -0.079702
v 0.434706 0.237432 -0.198039
v 0.434828 0.206796 -0.185752
v 0.434934 0.175591 -0.174996
v 0.435024 0.143891 -0.165797
v 0.435098 0.111774 -0.158178
v 0.435157 0.079320 -0.152159
v 0.435199 0.046608 -0.147753
v 0.435224 0.013717 -0.144971
v 0.435233 -0.019271 -0.143820
v -0.431719 0.388792 -0.264510
v -0.431584 0.345490 -0.250774
v 0.463922 0.373129 -0.198021
v -0.430997 0.363901 -0.192740
v 0.465084 0.001068 -0.079997
v -0.429858 -0.000793 -0.077053
v -0.430445 -0.019204 -0.135087
v 0.464301 0.111772 -0.158473
v 0.464227 0.143889 -0.166092
v 0.464359 0.079317 -0.152453
v 0.464401 0.046605 -0.148047
v 0.464427 0.013715 -0.145265
v 0.463620 0.296690 -0.227378
v 0.463454 0.325169 -0.244064
v 0.463772 0.267420 -0.212122
v 0.463909 0.237430 -0.198334
v 0.464030 0.206794 -0.186046
v 0.464136 0.175588 -0.175290
v 0.463274 0.352788 -0.262138
v 0.464436 -0.019273 -0.144115
v -0.431433 0.317213 -0.235578
v -0.431291 0.288438 -0.221346
v -0.431160 0.259199 -0.208096
v -0.431039 0.229528 -0.195840
v -0.430928 0.199461 -0.184595
v -0.430827 0.169030 -0.174373
v -0.430736 0.138271 -0.165185
v -0.430657 0.107219 -0.157042
v -0.430588 0.075910 -0.149954
v -0.430529 0.044379 -0.143927
v -0.430482 0.012662 -0.138970
v 0.089481 0.410059 -0.014383
v -0.111695 0.410074 -0.012353
v 0.089375 0.444082 -0.025175
v -0.111801 0.444098 -0.023146
v -0.089111 0.422159 -0.016415
v -0.059908 0.422157 -0.016710
v -0.027936 0.422036 -0.016995
v -0.059937 0.431436 -0.019653
v 0.001267 0.422033 -0.017289
v 0.001238 0.431312 -0.020233
v 0.040591 0.421985 -0.017672
v 0.069794 0.421983 -0.017966
v 0.069765 0.431261 -0.020910
v -0.089140 0.431438 -0.019359
v -0.027965 0.431315 -0.019938
v 0.040562 0.431264 -0.020615
v 0.069106 0.400396 -0.086010
v 0.039874 0.409677 -0.088659
v 0.039903 0.400398 -0.085715
v 0.069077 0.409675 -0.088953
v 0.000579 0.400447 -0.085333
v -0.028653 0.409728 -0.087982
v -0.028624 0.400449 -0.085038
v 0.000550 0.409726 -0.088276
v -0.060596 0.400570 -0.084753
v -0.089828 0.409852 -0.087402
v -0.089799 0.400573 -0.084459
v -0.060625 0.409849 -0.087697
v -0.158198 -0.128646 0.059930
v 0.182446 -0.125758 0.050695
v -0.158256 -0.125731 0.054132
v 0.182504 -0.128672 0.056493
v -0.392495 0.531087 0.177411
v -0.438347 -0.188908 0.406291
v -0.440595 0.531090 0.177896
v -0.390247 -0.188912 0.405806
v -0.392329 0.536302 0.193848
v -0.368186 0.536300 0.193605
v -0.191096 0.536286 0.191818
v -0.166953 0.536284 0.191575
v 0.020189 0.536270 0.189687
v 0.040883 0.536268 0.189478
v 0.257718 0.536252 0.187291
v 0.281860 0.536250 0.187047
v 0.445786 0.531023 0.168954
v 0.281694 0.531035 0.170610
v 0.257551 0.531037 0.170853
v 0.040717 0.531054 0.173041
v 0.020023 0.531055 0.173250
v -0.167120 0.531069 0.175137
v -0.191262 0.531071 0.175381
v -0.368353 0.531085 0.177167
v -0.439957 0.385042 0.242317
v -0.439840 0.347805 0.254129
v -0.439774 0.349891 0.260704
v -0.439252 0.159305 0.313924
v -0.439152 0.127387 0.324049
v -0.439086 0.129473 0.330624
v -0.438536 -0.069889 0.386628
v -0.438423 -0.106053 0.398100
v -0.438356 -0.103967 0.404675
v -0.439890 0.387128 0.248892
v -0.439185 0.161391 0.320499
v -0.438469 -0.067803 0.393203
v -0.366104 -0.188914 0.405563
v -0.365938 -0.183699 0.422000
v -0.391857 0.385038 0.241832
v -0.391740 0.347801 0.253644
v -0.390080 -0.183697 0.422244
v -0.189013 -0.188927 0.403776
v -0.164871 -0.188929 0.403532
v -0.164704 -0.183714 0.419970
v -0.190624 0.385023 0.239802
v -0.190507 0.347786 0.251614
v -0.188847 -0.183713 0.420214
v 0.022272 -0.188944 0.401645
v 0.042965 -0.188945 0.401436
v 0.043132 -0.183730 0.417873
v 0.020661 0.385007 0.237670
v 0.020778 0.347770 0.249482
v 0.022438 -0.183729 0.418082
v 0.259800 -0.188962 0.399248
v 0.283943 -0.188964 0.399005
v 0.448034 -0.188976 0.397350
v 0.284109 -0.183749 0.415442
v 0.259967 -0.183747 0.415686
v 0.283867 -0.106108 0.390813
v 0.283701 -0.111323 0.374376
v 0.258190 0.384989 0.235274
v 0.258306 0.347751 0.247086
v 0.258895 0.159251 0.306881
v 0.258995 0.127334 0.317006
v 0.259611 -0.069942 0.379585
v 0.259724 -0.106106 0.391057
v 0.447792 -0.111336 0.372721
v 0.446491 0.387060 0.239950
v 0.446607 0.349823 0.251762
v 0.447196 0.161323 0.311558
v 0.446374 0.342522 0.228750
v 0.447295 0.129405 0.321682
v 0.447063 0.122105 0.298670
v 0.447912 -0.067871 0.384261
v 0.448025 -0.104035 0.395733
v 0.447679 -0.075171 0.361249
v 0.446963 0.154022 0.288545
v 0.446258 0.379759 0.216938
v 0.283588 -0.075159 0.362904
v 0.283754 -0.069944 0.379342
v 0.282971 0.122117 0.300325
v 0.282872 0.154035 0.290200
v 0.283038 0.159249 0.306638
v 0.283138 0.127332 0.316763
v 0.282283 0.342535 0.230405
v 0.282167 0.379772 0.218593
v 0.282333 0.384987 0.235030
v 0.282449 0.347750 0.246843
v 0.401983 -0.084667 -0.060125
v 0.407608 -0.084667 -0.060182
v 0.323809 -0.084661 -0.059336
v 0.328822 -0.084661 -0.059387
v 0.215906 -0.084653 -0.058248
v 0.222878 -0.084653 -0.058318
v 0.164319 -0.084649 -0.057727
v 0.171217 -0.084649 -0.057797
v 0.001555 -0.084636 -0.056085
v 0.008453 -0.084637 -0.056155
v -0.050491 -0.084632 -0.055560
v -0.043593 -0.084633 -0.055630
v -0.095545 -0.084629 -0.055106
v -0.088647 -0.084629 -0.055175
v -0.173415 -0.084623 -0.054320
v -0.166517 -0.084623 -0.054390
v -0.224824 -0.084619 -0.053802
v -0.217926 -0.084619 -0.053871
v -0.280347 -0.084614 -0.053242
v -0.273449 -0.084615 -0.053311
v -0.400111 -0.084605 -0.052033
v -0.393213 -0.084606 -0.052103
v 0.407628 -0.091243 -0.058096
v 0.402003 -0.091242 -0.058039
v 0.394639 -0.091242 -0.057965
v 0.389274 -0.091241 -0.057911
v 0.380702 -0.091241 -0.057824
v 0.375666 -0.091240 -0.057773
v 0.342444 -0.091238 -0.057438
v 0.336763 -0.091237 -0.057381
v 0.328842 -0.091237 -0.057301
v 0.323829 -0.091236 -0.057250
v 0.290776 -0.091234 -0.056917
v 0.284798 -0.091233 -0.056857
v 0.277394 -0.091233 -0.056782
v 0.271549 -0.091232 -0.056723
v 0.264494 -0.091232 -0.056652
v 0.258791 -0.091231 -0.056594
v 0.229690 -0.091229 -0.056301
v 0.225392 -0.091229 -0.056257
v 0.222898 -0.091228 -0.056232
v 0.215927 -0.091228 -0.056162
v 0.184038 -0.091225 -0.055840
v 0.177140 -0.091225 -0.055771
v 0.171238 -0.091224 -0.055711
v 0.164340 -0.091224 -0.055641
v 0.158166 -0.091223 -0.055579
v 0.151269 -0.091223 -0.055510
v 0.119183 -0.091220 -0.055186
v 0.112286 -0.091220 -0.055116
v 0.106195 -0.091219 -0.055055
v 0.099297 -0.091219 -0.054985
v 0.068117 -0.091217 -0.054671
v 0.061219 -0.091216 -0.054601
v 0.058799 -0.091216 -0.054577
v 0.051901 -0.091215 -0.054507
v 0.022424 -0.091213 -0.054210
v 0.015526 -0.091213 -0.054140
v 0.008473 -0.091212 -0.054069
v 0.001575 -0.091211 -0.054000
v -0.004756 -0.091211 -0.053936
v -0.011654 -0.091210 -0.053866
v -0.043572 -0.091208 -0.053544
v -0.050470 -0.091207 -0.053474
v -0.055106 -0.091207 -0.053428
v -0.062004 -0.091207 -0.053358
v -0.088627 -0.091205 -0.053090
v -0.095524 -0.091204 -0.053020
v -0.101151 -0.091204 -0.052963
v -0.108049 -0.091203 -0.052894
v -0.114092 -0.091203 -0.052833
v -0.120990 -0.091202 -0.052763
v -0.153463 -0.091200 -0.052436
v -0.160360 -0.091199 -0.052366
v -0.166497 -0.091199 -0.052304
v -0.173395 -0.091198 -0.052234
v -0.204772 -0.091196 -0.051918
v -0.211670 -0.091195 -0.051848
v -0.217905 -0.091195 -0.051785
v -0.224803 -0.091194 -0.051716
v -0.231713 -0.091194 -0.051646
v -0.242060 -0.091193 -0.051542
v -0.273429 -0.091190 -0.051225
v -0.280326 -0.091190 -0.051156
v -0.287451 -0.091189 -0.051084
v -0.297798 -0.091188 -0.050979
v -0.302663 -0.091188 -0.050930
v -0.313010 -0.091187 -0.050826
v -0.347194 -0.091185 -0.050481
v -0.354092 -0.091184 -0.050412
v -0.356763 -0.091184 -0.050385
v -0.363661 -0.091183 -0.050315
v -0.379568 -0.091182 -0.050155
v -0.386466 -0.091182 -0.050085
v -0.393193 -0.091181 -0.050017
v -0.400090 -0.091181 -0.049948
v -0.405766 -0.091180 -0.049890
v -0.412664 -0.091180 -0.049821
f 1 2 3
f 1 2 3
f 1 2 3
f 2 1 4
f 2 1 4
f 2 1 4
f 4 1 5
f 4 1 5
f 4 1 5
f 6 7 8
f 6 7 8
f 6 7 8
f 7 6 9
f 7 6 9
f 7 6 9
f 5 10 11
f 5 10 11
f 5 10 11
f 10 5 12
f 10 5 12
f 10 5 12
f 12 5 1
f 12 5 1
f 12 5 1
f 12 1 8
f 12 1 8
f 12 1 8
f 12 8 7
f 12 8 7
f 12 8 7
f 13 14 15
f 13 14 15
f 13 14 15
f 14 13 16
f 14 13 16
f 14 13 16
f 14 17 18
f 14 17 18
f 14 17 18
f 17 14 19
f 17 14 19
f 17 14 19
f 19 14 20
f 19 14 20
f 19 14 20
f 20 14 16
f 20 14 16
f 20 14 16
f 17 1 3
f 17 1 3
f 17 1 3
f 1 17 19
f 1 17 19
f 1 17 19
f 13 21 22
f 13 21 22
f 13 21 22
f 21 10 12
f 21 10 12
f 21 10 12
f 10 21 23
f 10 21 23
f 10 21 23
f 23 21 24
f 23 21 24
f 23 21 24
f 24 21 15
f 24 21 15
f 24 21 15
f 15 21 13
f 15 21 13
f 15 21 13
f 14 24 15
f 14 24 15
f 14 24 15
f 24 14 18
f 24 14 18
f 24 14 18
f 20 13 22
f 20 13 22
f 20 13 22
f 13 20 16
f 13 20 16
f 13 20 16
f 7 21 12
f 7 21 12
f 7 21 12
f 21 7 25
f 21 7 25
f 21 7 25
f 20 26 19
f 20 26 19
f 20 26 19
f 26 20 27
f 26 20 27
f 26 20 27
f 27 20 28
f 27 20 28
f 27 20 28
f 28 21 25
f 28 21 25
f 28 21 25
f 21 28 22
f 21 28 22
f 21 28 22
f 22 28 20
f 22 28 20
f 22 28 20
f 29 10 23
f 29 10 23
f 29 10 23
f 10 29 30
f 10 29 30
f 10 29 30
f 30 29 31
f 30 29 31
f 30 29 31
f 31 29 32
f 31 29 32
f 31 29 32
f 31 32 33
f 31 32 33
f 31 32 33
f 31 33 34
f 31 33 34
f 31 33 34
f 30 11 10
f 30 11 10
f 30 11 10
f 11 30 35
f 11 30 35
f 11 30 35
f 36 29 37
f 36 29 37
f 36 29 37
f 29 36 38
f 29 36 38
f 29 36 38
f 17 24 18
f 17 24 18
f 17 24 18
f 24 17 23
f 24 17 23
f 24 17 23
f 23 17 37
f 23 17 37
f 23 17 37
f 23 37 29
f 23 37 29
f 23 37 29
f 35 5 11
f 35 5 11
f 35 5 11
f 5 35 39
f 5 35 39
f 5 35 39
f 8 19 26
f 8 19 26
f 8 19 26
f 19 8 1
f 19 8 1
f 19 8 1
f 9 40 28
f 9 40 28
f 9 40 28
f 40 9 6
f 40 9 6
f 40 9 6
f 40 6 41
f 40 6 41
f 40 6 41
f 41 6 42
f 41 6 42
f 41 6 42
f 42 6 27
f 42 6 27
f 42 6 27
f 28 43 27
f 28 43 27
f 28 43 27
f 43 28 40
f 43 28 40
f 43 28 40
f 27 43 42
f 27 43 42
f 27 43 42
f 26 6 8
f 26 6 8
f 26 6 8
f 6 26 27
f 6 26 27
f 6 26 27
f 28 7 9
f 28 7 9
f 28 7 9
f 7 28 25
f 7 28 25
f 7 28 25
f 36 44 38
f 36 44 38
f 36 44 38
f 44 36 45
f 44 36 45
f 44 36 45
f 46 47 48
f 46 47 48
f 46 47 48
f 47 46 49
f 47 46 49
f 47 46 49
f 49 46 50
f 49 46 50
f 49 46 50
f 33 51 34
f 33 51 34
f 33 51 34
f 51 33 44
f 51 33 44
f 51 33 44
f 44 33 32
f 44 33 32
f 44 33 32
f 52 53 54
f 52 53 54
f 52 53 54
f 53 52 55
f 53 52 55
f 53 52 55
f 33 56 34
f 33 56 34
f 33 56 34
f 34 57 31
f 34 57 31
f 34 57 31
f 57 34 58
f 57 34 58
f 57 34 58
f 58 34 48
f 58 34 48
f 58 34 48
f 48 34 56
f 48 34 56
f 48 34 56
f 48 56 46
f 48 56 46
f 48 56 46
f 30 59 35
f 30 59 35
f 30 59 35
f 59 30 60
f 59 30 60
f 59 30 60
f 60 30 61
f 60 30 61
f 60 30 61
f 60 61 62
f 60 61 62
f 60 61 62
f 62 61 57
f 62 61 57
f 62 61 57
f 62 57 63
f 62 57 63
f 62 57 63
f 63 57 64
f 63 57 64
f 63 57 64
f 64 57 65
f 64 57 65
f 64 57 65
f 65 57 66
f 65 57 66
f 65 57 66
f 66 57 67
f 66 57 67
f 66 57 67
f 67 57 68
f 67 57 68
f 67 57 68
f 68 57 69
f 68 57 69
f 68 57 69
f 69 57 70
f 69 57 70
f 69 57 70
f 70 57 71
f 70 57 71
f 70 57 71
f 71 57 72
f 71 57 72
f 71 57 72
f 72 57 73
f 72 57 73
f 72 57 73
f 73 57 58
f 73 57 58
f 73 57 58
f 74 75 76
f 74 75 76
f 74 75 76
f 75 74 77
f 75 74 77
f 75 74 77
f 77 74 78
f 77 74 78
f 77 74 78
f 77 78 79
f 77 78 79
f 77 78 79
f 79 78 80
f 79 78 80
f 79 78 80
f 44 78 32
f 44 78 32
f 44 78 32
f 78 44 45
f 78 44 45
f 78 44 45
f 81 82 83
f 81 82 83
f 81 82 83
f 82 81 75
f 82 81 75
f 82 81 75
f 75 81 84
f 75 81 84
f 75 81 84
f 85 86 87
f 85 86 87
f 85 86 87
f 86 88 89
f 86 88 89
f 86 88 89
f 88 86 90
f 88 86 90
f 88 86 90
f 90 86 91
f 90 86 91
f 90 86 91
f 91 86 85
f 91 86 85
f 91 86 85
f 90 91 81
f 90 91 81
f 90 91 81
f 90 81 83
f 90 81 83
f 90 81 83
f 92 93 94
f 92 93 94
f 92 93 94
f 93 92 95
f 93 92 95
f 93 92 95
f 95 92 96
f 95 92 96
f 95 92 96
f 96 92 97
f 96 92 97
f 96 92 97
f 97 92 49
f 97 92 49
f 97 92 49
f 49 92 47
f 49 92 47
f 49 92 47
f 98 96 97
f 98 96 97
f 98 96 97
f 99 86 100
f 99 86 100
f 99 86 100
f 86 99 87
f 86 99 87
f 86 99 87
f 93 88 94
f 93 88 94
f 93 88 94
f 88 93 89
f 88 93 89
f 88 93 89
f 89 93 101
f 89 93 101
f 89 93 101
f 89 101 102
f 89 101 102
f 89 101 102
f 89 102 103
f 89 102 103
f 89 102 103
f 89 103 104
f 89 103 104
f 89 103 104
f 89 104 105
f 89 104 105
f 89 104 105
f 89 105 106
f 89 105 106
f 89 105 106
f 89 106 107
f 89 106 107
f 89 106 107
f 89 107 108
f 89 107 108
f 89 107 108
f 89 108 109
f 89 108 109
f 89 108 109
f 89 109 110
f 89 109 110
f 89 109 110
f 89 110 111
f 89 110 111
f 89 110 111
f 89 111 112
f 89 111 112
f 89 111 112
f 89 112 113
f 89 112 113
f 89 112 113
f 89 113 114
f 89 113 114
f 89 113 114
f 89 114 115
f 89 114 115
f 89 114 115
f 89 115 116
f 89 115 116
f 89 115 116
f 89 116 117
f 89 116 117
f 89 116 117
f 89 117 118
f 89 117 118
f 89 117 118
f 89 118 119
f 89 118 119
f 89 118 119
f 89 119 120
f 89 119 120
f 89 119 120
f 89 120 121
f 89 120 121
f 89 120 121
f 89 121 122
f 89 121 122
f 89 121 122
f 89 122 123
f 89 122 123
f 89 122 123
f 89 123 124
f 89 123 124
f 89 123 124
f 89 124 125
f 89 124 125
f 89 124 125
f 89 125 126
f 89 125 126
f 89 125 126
f 89 126 127
f 89 126 127
f 89 126 127
f 89 127 128
f 89 127 128
f 89 127 128
f 89 128 129
f 89 128 129
f 89 128 129
f 89 129 130
f 89 129 130
f 89 129 130
f 89 130 131
f 89 130 131
f 89 130 131
f 89 131 132
f 89 131 132
f 89 131 132
f 89 132 133
f 89 132 133
f 89 132 133
f 89 133 134
f 89 133 134
f 89 133 134
f 89 134 135
f 89 134 135
f 89 134 135
f 89 135 136
f 89 135 136
f 89 135 136
f 89 136 137
f 89 136 137
f 89 136 137
f 89 137 138
f 89 137 138
f 89 137 138
f 89 138 139
f 89 138 139
f 89 138 139
f 89 139 140
f 89 139 140
f 89 139 140
f 89 140 141
f 89 140 141
f 89 140 141
f 89 141 142
f 89 141 142
f 89 141 142
f 89 142 143
f 89 142 143
f 89 142 143
f 89 143 144
f 89 143 144
f 89 143 144
f 89 144 145
f 89 144 145
f 89 144 145
f 89 145 146
f 89 145 146
f 89 145 146
f 89 146 147
f 89 146 147
f 89 146 147
f 89 147 148
f 89 147 148
f 89 147 148
f 89 148 149
f 89 148 149
f 89 148 149
f 89 149 150
f 89 149 150
f 89 149 150
f 89 150 151
f 89 150 151
f 89 150 151
f 89 151 152
f 89 151 152
f 89 151 152
f 89 152 153
f 89 152 153
f 89 152 153
f 89 153 154
f 89 153 154
f 89 153 154
f 89 154 155
f 89 154 155
f 89 154 155
f 89 155 156
f 89 155 156
f 89 155 156
f 89 156 157
f 89 156 157
f 89 156 157
f 89 157 158
f 89 157 158
f 89 157 158
f 89 158 159
f 89 158 159
f 89 158 159
f 89 159 160
f 89 159 160
f 89 159 160
f 89 160 161
f 89 160 161
f 89 160 161
f 89 161 162
f 89 161 162
f 89 161 162
f 89 162 163
f 89 162 163
f 89 162 163
f 89 163 164
f 89 163 164
f 89 163 164
f 89 164 165
f 89 164 165
f 89 164 165
f 89 165 166
f 89 165 166
f 89 165 166
f 89 166 167
f 89 166 167
f 89 166 167
f 89 167 168
f 89 167 168
f 89 167 168
f 86 168 100
f 86 168 100
f 86 168 100
f 168 86 89
f 168 86 89
f 168 86 89
f 47 58 48
f 47 58 48
f 47 58 48
f 58 47 92
f 58 47 92
f 58 47 92
f 82 90 83
f 82 90 83
f 82 90 83
f 90 82 169
f 90 82 169
f 90 82 169
f 45 37 78
f 45 37 78
f 45 37 78
f 37 45 36
f 37 45 36
f 37 45 36
f 170 50 46
f 170 50 46
f 170 50 46
f 50 170 171
f 50 170 171
f 50 170 171
f 50 171 84
f 50 171 84
f 50 171 84
f 84 171 75
f 84 171 75
f 84 171 75
f 171 170 172
f 171 170 172
f 171 170 172
f 172 170 173
f 172 170 173
f 172 170 173
f 75 174 77
f 75 174 77
f 75 174 77
f 174 75 171
f 174 75 171
f 174 75 171
f 77 174 173
f 77 174 173
f 77 174 173
f 77 173 170
f 77 173 170
f 77 173 170
f 29 44 32
f 29 44 32
f 29 44 32
f 44 29 38
f 44 29 38
f 44 29 38
f 78 33 32
f 78 33 32
f 78 33 32
f 33 78 34
f 33 78 34
f 33 78 34
f 34 78 175
f 34 78 175
f 34 78 175
f 175 78 74
f 175 78 74
f 175 78 74
f 176 79 177
f 176 79 177
f 176 79 177
f 79 176 80
f 79 176 80
f 79 176 80
f 79 170 177
f 79 170 177
f 79 170 177
f 170 79 77
f 170 79 77
f 170 79 77
f 78 176 32
f 78 176 32
f 78 176 32
f 176 78 80
f 176 78 80
f 176 78 80
f 81 97 49
f 81 97 49
f 81 97 49
f 97 81 91
f 97 81 91
f 97 81 91
f 50 81 49
f 50 81 49
f 50 81 49
f 81 50 84
f 81 50 84
f 81 50 84
f 178 179 180
f 178 179 180
f 178 179 180
f 98 181 96
f 98 181 96
f 98 181 96
f 181 98 85
f 181 98 85
f 181 98 85
f 96 181 182
f 96 181 182
f 96 181 182
f 182 181 183
f 182 181 183
f 182 181 183
f 181 85 184
f 181 85 184
f 181 85 184
f 184 85 185
f 184 85 185
f 184 85 185
f 184 185 186
f 184 185 186
f 184 185 186
f 186 185 187
f 186 185 187
f 186 185 187
f 185 85 188
f 185 85 188
f 185 85 188
f 188 85 189
f 188 85 189
f 188 85 189
f 188 189 190
f 188 189 190
f 188 189 190
f 190 189 191
f 190 189 191
f 190 189 191
f 189 85 192
f 189 85 192
f 189 85 192
f 192 85 193
f 192 85 193
f 192 85 193
f 192 193 194
f 192 193 194
f 192 193 194
f 194 193 195
f 194 193 195
f 194 193 195
f 195 193 196
f 195 193 196
f 195 193 196
f 193 85 197
f 193 85 197
f 193 85 197
f 197 85 198
f 197 85 198
f 197 85 198
f 197 198 199
f 197 198 199
f 197 198 199
f 199 198 200
f 199 198 200
f 199 198 200
f 198 85 201
f 198 85 201
f 198 85 201
f 201 85 202
f 201 85 202
f 201 85 202
f 201 202 203
f 201 202 203
f 201 202 203
f 203 202 204
f 203 202 204
f 203 202 204
f 204 202 205
f 204 202 205
f 204 202 205
f 205 202 206
f 205 202 206
f 205 202 206
f 202 85 207
f 202 85 207
f 202 85 207
f 207 85 208
f 207 85 208
f 207 85 208
f 207 208 209
f 207 208 209
f 207 208 209
f 209 208 210
f 209 208 210
f 209 208 210
f 208 85 211
f 208 85 211
f 208 85 211
f 211 85 212
f 211 85 212
f 211 85 212
f 211 212 213
f 211 212 213
f 211 212 213
f 213 212 214
f 213 212 214
f 213 212 214
f 212 85 215
f 212 85 215
f 212 85 215
f 215 85 216
f 215 85 216
f 215 85 216
f 215 216 217
f 215 216 217
f 215 216 217
f 217 216 218
f 217 216 218
f 217 216 218
f 218 216 219
f 218 216 219
f 218 216 219
f 219 216 220
f 219 216 220
f 219 216 220
f 216 85 221
f 216 85 221
f 216 85 221
f 221 85 222
f 221 85 222
f 221 85 222
f 221 222 223
f 221 222 223
f 221 222 223
f 223 222 224
f 223 222 224
f 223 222 224
f 222 85 225
f 222 85 225
f 222 85 225
f 225 85 226
f 225 85 226
f 225 85 226
f 225 226 227
f 225 226 227
f 225 226 227
f 227 226 228
f 227 226 228
f 227 226 228
f 226 85 229
f 226 85 229
f 226 85 229
f 229 85 230
f 229 85 230
f 229 85 230
f 229 230 231
f 229 230 231
f 229 230 231
f 231 230 232
f 231 230 232
f 231 230 232
f 232 230 233
f 232 230 233
f 232 230 233
f 233 230 234
f 233 230 234
f 233 230 234
f 230 85 235
f 230 85 235
f 230 85 235
f 235 85 236
f 235 85 236
f 235 85 236
f 235 236 237
f 235 236 237
f 235 236 237
f 237 236 238
f 237 236 238
f 237 236 238
f 236 85 239
f 236 85 239
f 236 85 239
f 239 85 240
f 239 85 240
f 239 85 240
f 239 240 241
f 239 240 241
f 239 240 241
f 241 240 242
f 241 240 242
f 241 240 242
f 242 240 243
f 242 240 243
f 242 240 243
f 243 240 244
f 243 240 244
f 243 240 244
f 240 85 245
f 240 85 245
f 240 85 245
f 245 85 246
f 245 85 246
f 245 85 246
f 245 246 247
f 245 246 247
f 245 246 247
f 247 246 248
f 247 246 248
f 247 246 248
f 246 85 249
f 246 85 249
f 246 85 249
f 249 85 250
f 249 85 250
f 249 85 250
f 249 250 251
f 249 250 251
f 249 250 251
f 251 250 252
f 251 250 252
f 251 250 252
f 250 85 253
f 250 85 253
f 250 85 253
f 253 85 254
f 253 85 254
f 253 85 254
f 253 254 255
f 253 254 255
f 253 254 255
f 255 254 256
f 255 254 256
f 255 254 256
f 256 254 257
f 256 254 257
f 256 254 257
f 257 254 258
f 257 254 258
f 257 254 258
f 254 85 259
f 254 85 259
f 254 85 259
f 259 85 260
f 259 85 260
f 259 85 260
f 259 260 261
f 259 260 261
f 259 260 261
f 261 260 262
f 261 260 262
f 261 260 262
f 260 85 263
f 260 85 263
f 260 85 263
f 263 85 264
f 263 85 264
f 263 85 264
f 263 264 265
f 263 264 265
f 263 264 265
f 265 264 266
f 265 264 266
f 265 264 266
f 266 264 267
f 266 264 267
f 266 264 267
f 267 264 268
f 267 264 268
f 267 264 268
f 264 85 269
f 264 85 269
f 264 85 269
f 269 85 270
f 269 85 270
f 269 85 270
f 269 270 271
f 269 270 271
f 269 270 271
f 271 270 272
f 271 270 272
f 271 270 272
f 270 85 273
f 270 85 273
f 270 85 273
f 273 85 274
f 273 85 274
f 273 85 274
f 273 274 275
f 273 274 275
f 273 274 275
f 275 274 276
f 275 274 276
f 275 274 276
f 274 85 277
f 274 85 277
f 274 85 277
f 277 85 278
f 277 85 278
f 277 85 278
f 277 278 279
f 277 278 279
f 277 278 279
f 279 278 280
f 279 278 280
f 279 278 280
f 280 278 281
f 280 278 281
f 280 278 281
f 281 278 282
f 281 278 282
f 281 278 282
f 278 85 283
f 278 85 283
f 278 85 283
f 283 85 284
f 283 85 284
f 283 85 284
f 283 284 285
f 283 284 285
f 283 284 285
f 285 284 286
f 285 284 286
f 285 284 286
f 284 85 287
f 284 85 287
f 284 85 287
f 287 85 288
f 287 85 288
f 287 85 288
f 287 288 289
f 287 288 289
f 287 288 289
f 289 288 290
f 289 288 290
f 289 288 290
f 290 288 291
f 290 288 291
f 290 288 291
f 291 288 292
f 291 288 292
f 291 288 292
f 288 85 293
f 288 85 293
f 288 85 293
f 293 85 294
f 293 85 294
f 293 85 294
f 293 294 295
f 293 294 295
f 293 294 295
f 295 294 296
f 295 294 296
f 295 294 296
f 294 85 297
f 294 85 297
f 294 85 297
f 297 85 298
f 297 85 298
f 297 85 298
f 297 298 299
f 297 298 299
f 297 298 299
f 299 298 300
f 299 298 300
f 299 298 300
f 300 298 301
f 300 298 301
f 300 298 301
f 301 298 302
f 301 298 302
f 301 298 302
f 298 85 303
f 298 85 303
f 298 85 303
f 303 85 304
f 303 85 304
f 303 85 304
f 303 304 305
f 303 304 305
f 303 304 305
f 305 304 306
f 305 304 306
f 305 304 306
f 304 85 307
f 304 85 307
f 304 85 307
f 307 85 308
f 307 85 308
f 307 85 308
f 307 308 309
f 307 308 309
f 307 308 309
f 309 308 310
f 309 308 310
f 309 308 310
f 308 85 311
f 308 85 311
f 308 85 311
f 311 85 312
f 311 85 312
f 311 85 312
f 311 312 313
f 311 312 313
f 311 312 313
f 313 312 314
f 313 312 314
f 313 312 314
f 314 312 315
f 314 312 315
f 314 312 315
f 315 312 316
f 315 312 316
f 315 312 316
f 312 85 317
f 312 85 317
f 312 85 317
f 317 85 318
f 317 85 318
f 317 85 318
f 317 318 319
f 317 318 319
f 317 318 319
f 319 318 320
f 319 318 320
f 319 318 320
f 320 318 321
f 320 318 321
f 320 318 321
f 318 85 180
f 318 85 180
f 318 85 180
f 180 85 322
f 180 85 322
f 180 85 322
f 180 322 178
f 180 322 178
f 180 322 178
f 178 322 323
f 178 322 323
f 178 322 323
f 323 322 324
f 323 322 324
f 323 322 324
f 322 85 325
f 322 85 325
f 322 85 325
f 325 85 326
f 325 85 326
f 325 85 326
f 325 326 327
f 325 326 327
f 325 326 327
f 327 326 328
f 327 326 328
f 327 326 328
f 326 85 329
f 326 85 329
f 326 85 329
f 329 85 330
f 329 85 330
f 329 85 330
f 329 330 331
f 329 330 331
f 329 330 331
f 331 330 332
f 331 330 332
f 331 330 332
f 330 85 333
f 330 85 333
f 330 85 333
f 333 85 334
f 333 85 334
f 333 85 334
f 333 334 335
f 333 334 335
f 333 334 335
f 335 334 336
f 335 334 336
f 335 334 336
f 336 334 337
f 336 334 337
f 336 334 337
f 337 334 338
f 337 334 338
f 337 334 338
f 334 85 339
f 334 85 339
f 334 85 339
f 339 85 340
f 339 85 340
f 339 85 340
f 339 340 341
f 339 340 341
f 339 340 341
f 341 340 342
f 341 340 342
f 341 340 342
f 340 85 343
f 340 85 343
f 340 85 343
f 343 85 344
f 343 85 344
f 343 85 344
f 344 85 345
f 344 85 345
f 344 85 345
f 345 85 346
f 345 85 346
f 345 85 346
f 345 346 347
f 345 346 347
f 345 346 347
f 347 346 348
f 347 346 348
f 347 346 348
f 346 85 349
f 346 85 349
f 346 85 349
f 349 85 350
f 349 85 350
f 349 85 350
f 349 350 351
f 349 350 351
f 349 350 351
f 351 350 352
f 351 350 352
f 351 350 352
f 350 85 353
f 350 85 353
f 350 85 353
f 353 85 354
f 353 85 354
f 353 85 354
f 353 354 355
f 353 354 355
f 353 354 355
f 355 354 356
f 355 354 356
f 355 354 356
f 354 85 357
f 354 85 357
f 354 85 357
f 357 85 358
f 357 85 358
f 357 85 358
f 358 85 359
f 358 85 359
f 358 85 359
f 359 85 99
f 359 85 99
f 359 85 99
f 99 85 87
f 99 85 87
f 99 85 87
f 360 356 354
f 360 356 354
f 360 356 354
f 361 352 350
f 361 352 350
f 361 352 350
f 362 348 346
f 362 348 346
f 362 348 346
f 363 342 340
f 363 342 340
f 363 342 340
f 364 338 334
f 364 338 334
f 364 338 334
f 365 332 330
f 365 332 330
f 365 332 330
f 366 328 326
f 366 328 326
f 366 328 326
f 367 324 322
f 367 324 322
f 367 324 322
f 368 316 312
f 368 316 312
f 368 316 312
f 369 310 308
f 369 310 308
f 369 310 308
f 370 306 304
f 370 306 304
f 370 306 304
f 371 302 298
f 371 302 298
f 371 302 298
f 372 296 294
f 372 296 294
f 372 296 294
f 373 292 288
f 373 292 288
f 373 292 288
f 374 286 284
f 374 286 284
f 374 286 284
f 375 282 278
f 375 282 278
f 375 282 278
f 376 276 274
f 376 276 274
f 376 276 274
f 377 272 270
f 377 272 270
f 377 272 270
f 378 268 264
f 378 268 264
f 378 268 264
f 379 262 260
f 379 262 260
f 379 262 260
f 380 258 254
f 380 258 254
f 380 258 254
f 381 252 250
f 381 252 250
f 381 252 250
f 382 248 246
f 382 248 246
f 382 248 246
f 383 244 240
f 383 244 240
f 383 244 240
f 384 238 236
f 384 238 236
f 384 238 236
f 385 234 230
f 385 234 230
f 385 234 230
f 386 228 226
f 386 228 226
f 386 228 226
f 387 224 222
f 387 224 222
f 387 224 222
f 388 220 216
f 388 220 216
f 388 220 216
f 389 214 212
f 389 214 212
f 389 214 212
f 390 210 208
f 390 210 208
f 390 210 208
f 391 206 202
f 391 206 202
f 391 206 202
f 392 200 198
f 392 200 198
f 392 200 198
f 393 196 193
f 393 196 193
f 393 196 193
f 394 191 189
f 394 191 189
f 394 191 189
f 395 187 185
f 395 187 185
f 395 187 185
f 396 183 181
f 396 183 181
f 396 183 181
f 85 97 91
f 85 97 91
f 85 97 91
f 97 85 98
f 97 85 98
f 97 85 98
f 100 167 397
f 100 167 397
f 100 167 397
f 167 100 168
f 167 100 168
f 167 100 168
f 397 166 398
f 397 166 398
f 397 166 398
f 166 397 167
f 166 397 167
f 166 397 167
f 398 165 399
f 398 165 399
f 398 165 399
f 165 398 166
f 165 398 166
f 165 398 166
f 399 164 400
f 399 164 400
f 399 164 400
f 164 399 165
f 164 399 165
f 164 399 165
f 400 163 401
f 400 163 401
f 400 163 401
f 163 400 164
f 163 400 164
f 163 400 164
f 401 162 402
f 401 162 402
f 401 162 402
f 162 401 163
f 162 401 163
f 162 401 163
f 402 161 403
f 402 161 403
f 402 161 403
f 161 402 162
f 161 402 162
f 161 402 162
f 403 160 404
f 403 160 404
f 403 160 404
f 160 403 161
f 160 403 161
f 160 403 161
f 404 159 405
f 404 159 405
f 404 159 405
f 159 404 160
f 159 404 160
f 159 404 160
f 405 158 406
f 405 158 406
f 405 158 406
f 158 405 159
f 158 405 159
f 158 405 159
f 406 157 407
f 406 157 407
f 406 157 407
f 157 406 158
f 157 406 158
f 157 406 158
f 407 156 408
f 407 156 408
f 407 156 408
f 156 407 157
f 156 407 157
f 156 407 157
f 408 155 409
f 408 155 409
f 408 155 409
f 155 408 156
f 155 408 156
f 155 408 156
f 409 154 410
f 409 154 410
f 409 154 410
f 154 409 155
f 154 409 155
f 154 409 155
f 410 153 411
f 410 153 411
f 410 153 411
f 153 410 154
f 153 410 154
f 153 410 154
f 411 152 412
f 411 152 412
f 411 152 412
f 152 411 153
f 152 411 153
f 152 411 153
f 412 151 413
f 412 151 413
f 412 151 413
f 151 412 152
f 151 412 152
f 151 412 152
f 413 150 414
f 413 150 414
f 413 150 414
f 150 413 151
f 150 413 151
f 150 413 151
f 414 149 415
f 414 149 415
f 414 149 415
f 149 414 150
f 149 414 150
f 149 414 150
f 415 148 416
f 415 148 416
f 415 148 416
f 148 415 149
f 148 415 149
f 148 415 149
f 416 147 417
f 416 147 417
f 416 147 417
f 147 416 148
f 147 416 148
f 147 416 148
f 417 146 418
f 417 146 418
f 417 146 418
f 146 417 147
f 146 417 147
f 146 417 147
f 418 145 419
f 418 145 419
f 418 145 419
f 145 418 146
f 145 418 146
f 145 418 146
f 419 144 420
f 419 144 420
f 419 144 420
f 144 419 145
f 144 419 145
f 144 419 145
f 420 143 421
f 420 143 421
f 420 143 421
f 143 420 144
f 143 420 144
f 143 420 144
f 421 142 422
f 421 142 422
f 421 142 422
f 142 421 143
f 142 421 143
f 142 421 143
f 422 141 423
f 422 141 423
f 422 141 423
f 141 422 142
f 141 422 142
f 141 422 142
f 423 140 424
f 423 140 424
f 423 140 424
f 140 423 141
f 140 423 141
f 140 423 141
f 424 139 425
f 424 139 425
f 424 139 425
f 139 424 140
f 139 424 140
f 139 424 140
f 425 138 426
f 425 138 426
f 425 138 426
f 138 425 139
f 138 425 139
f 138 425 139
f 426 137 427
f 426 137 427
f 426 137 427
f 137 426 138
f 137 426 138
f 137 426 138
f 427 136 428
f 427 136 428
f 427 136 428
f 136 427 137
f 136 427 137
f 136 427 137
f 428 135 429
f 428 135 429
f 428 135 429
f 135 428 136
f 135 428 136
f 135 428 136
f 429 134 430
f 429 134 430
f 429 134 430
f 134 429 135
f 134 429 135
f 134 429 135
f 430 133 431
f 430 133 431
f 430 133 431
f 133 430 134
f 133 430 134
f 133 430 134
f 431 132 432
f 431 132 432
f 431 132 432
f 132 431 133
f 132 431 133
f 132 431 133
f 432 131 433
f 432 131 433
f 432 131 433
f 131 432 132
f 131 432 132
f 131 432 132
f 433 130 434
f 433 130 434
f 433 130 434
f 130 433 131
f 130 433 131
f 130 433 131
f 434 129 435
f 434 129 435
f 434 129 435
f 129 434 130
f 129 434 130
f 129 434 130
f 435 128 436
f 435 128 436
f 435 128 436
f 128 435 129
f 128 435 129
f 128 435 129
f 436 127 437
f 436 127 437
f 436 127 437
f 127 436 128
f 127 436 128
f 127 436 128
f 437 126 438
f 437 126 438
f 437 126 438
f 126 437 127
f 126 437 127
f 126 437 127
f 438 125 439
f 438 125 439
f 438 125 439
f 125 438 126
f 125 438 126
f 125 438 126
f 439 124 440
f 439 124 440
f 439 124 440
f 124 439 125
f 124 439 125
f 124 439 125
f 440 123 441
f 440 123 441
f 440 123 441
f 123 440 124
f 123 440 124
f 123 440 124
f 441 122 442
f 441 122 442
f 441 122 442
f 122 441 123
f 122 441 123
f 122 441 123
f 442 121 443
f 442 121 443
f 442 121 443
f 121 442 122
f 121 442 122
f 121 442 122
f 443 120 444
f 443 120 444
f 443 120 444
f 120 443 121
f 120 443 121
f 120 443 121
f 444 119 445
f 444 119 445
f 444 119 445
f 119 444 120
f 119 444 120
f 119 444 120
f 445 118 446
f 445 118 446
f 445 118 446
f 118 445 119
f 118 445 119
f 118 445 119
f 446 117 447
f 446 117 447
f 446 117 447
f 117 446 118
f 117 446 118
f 117 446 118
f 447 116 448
f 447 116 448
f 447 116 448
f 116 447 117
f 116 447 117
f 116 447 117
f 448 115 449
f 448 115 449
f 448 115 449
f 115 448 116
f 115 448 116
f 115 448 116
f 449 114 450
f 449 114 450
f 449 114 450
f 114 449 115
f 114 449 115
f 114 449 115
f 450 113 451
f 450 113 451
f 450 113 451
f 113 450 114
f 113 450 114
f 113 450 114
f 451 112 452
f 451 112 452
f 451 112 452
f 112 451 113
f 112 451 113
f 112 451 113
f 452 111 453
f 452 111 453
f 452 111 453
f 111 452 112
f 111 452 112
f 111 452 112
f 453 110 454
f 453 110 454
f 453 110 454
f 110 453 111
f 110 453 111
f 110 453 111
f 454 109 455
f 454 109 455
f 454 109 455
f 109 454 110
f 109 454 110
f 109 454 110
f 455 108 456
f 455 108 456
f 455 108 456
f 108 455 109
f 108 455 109
f 108 455 109
f 456 107 457
f 456 107 457
f 456 107 457
f 107 456 108
f 107 456 108
f 107 456 108
f 457 106 458
f 457 106 458
f 457 106 458
f 106 457 107
f 106 457 107
f 106 457 107
f 458 105 459
f 458 105 459
f 458 105 459
f 105 458 106
f 105 458 106
f 105 458 106
f 459 104 460
f 459 104 460
f 459 104 460
f 104 459 105
f 104 459 105
f 104 459 105
f 460 103 461
f 460 103 461
f 460 103 461
f 103 460 104
f 103 460 104
f 103 460 104
f 461 102 462
f 461 102 462
f 461 102 462
f 102 461 103
f 102 461 103
f 102 461 103
f 462 101 463
f 462 101 463
f 462 101 463
f 101 462 102
f 101 462 102
f 101 462 102
f 463 93 95
f 463 93 95
f 463 93 95
f 93 463 101
f 93 463 101
f 93 463 101
f 359 100 397
f 359 100 397
f 359 100 397
f 100 359 99
f 100 359 99
f 100 359 99
f 399 464 398
f 399 464 398
f 399 464 398
f 464 399 352
f 464 399 352
f 464 399 352
f 464 352 361
f 464 352 361
f 464 352 361
f 398 465 356
f 398 465 356
f 398 465 356
f 465 398 464
f 465 398 464
f 465 398 464
f 356 465 355
f 356 465 355
f 356 465 355
f 400 466 399
f 400 466 399
f 400 466 399
f 466 400 348
f 466 400 348
f 466 400 348
f 466 348 362
f 466 348 362
f 466 348 362
f 399 467 352
f 399 467 352
f 399 467 352
f 467 399 466
f 467 399 466
f 467 399 466
f 352 467 351
f 352 467 351
f 352 467 351
f 347 400 401
f 347 400 401
f 347 400 401
f 400 347 348
f 400 347 348
f 400 347 348
f 345 401 402
f 345 401 402
f 345 401 402
f 401 345 347
f 401 345 347
f 401 345 347
f 403 468 402
f 403 468 402
f 403 468 402
f 468 403 342
f 468 403 342
f 468 403 342
f 468 342 363
f 468 342 363
f 468 342 363
f 402 469 345
f 402 469 345
f 402 469 345
f 469 402 468
f 469 402 468
f 469 402 468
f 345 469 344
f 345 469 344
f 345 469 344
f 337 404 405
f 337 404 405
f 337 404 405
f 404 337 338
f 404 337 338
f 404 337 338
f 336 405 406
f 336 405 406
f 336 405 406
f 405 336 337
f 405 336 337
f 405 336 337
f 407 470 406
f 407 470 406
f 407 470 406
f 470 407 332
f 470 407 332
f 470 407 332
f 470 332 365
f 470 332 365
f 470 332 365
f 406 471 336
f 406 471 336
f 406 471 336
f 471 406 470
f 471 406 470
f 471 406 470
f 336 471 335
f 336 471 335
f 336 471 335
f 408 472 407
f 408 472 407
f 408 472 407
f 472 408 328
f 472 408 328
f 472 408 328
f 472 328 366
f 472 328 366
f 472 328 366
f 407 473 332
f 407 473 332
f 407 473 332
f 473 407 472
f 473 407 472
f 473 407 472
f 332 473 331
f 332 473 331
f 332 473 331
f 409 474 408
f 409 474 408
f 409 474 408
f 474 409 324
f 474 409 324
f 474 409 324
f 474 324 367
f 474 324 367
f 474 324 367
f 408 475 328
f 408 475 328
f 408 475 328
f 475 408 474
f 475 408 474
f 475 408 474
f 328 475 327
f 328 475 327
f 328 475 327
f 323 409 410
f 323 409 410
f 323 409 410
f 409 323 324
f 409 323 324
f 409 323 324
f 178 410 411
f 178 410 411
f 178 410 411
f 410 178 323
f 410 178 323
f 410 178 323
f 412 476 411
f 412 476 411
f 412 476 411
f 476 412 320
f 476 412 320
f 476 412 320
f 476 320 321
f 476 320 321
f 476 320 321
f 411 477 178
f 411 477 178
f 411 477 178
f 477 411 476
f 477 411 476
f 477 411 476
f 178 477 179
f 178 477 179
f 178 477 179
f 315 413 414
f 315 413 414
f 315 413 414
f 413 315 316
f 413 315 316
f 413 315 316
f 314 414 415
f 314 414 415
f 314 414 415
f 414 314 315
f 414 314 315
f 414 314 315
f 416 478 415
f 416 478 415
f 416 478 415
f 478 416 310
f 478 416 310
f 478 416 310
f 478 310 369
f 478 310 369
f 478 310 369
f 415 479 314
f 415 479 314
f 415 479 314
f 479 415 478
f 479 415 478
f 479 415 478
f 314 479 313
f 314 479 313
f 314 479 313
f 418 480 417
f 418 480 417
f 418 480 417
f 480 418 302
f 480 418 302
f 480 418 302
f 480 302 371
f 480 302 371
f 480 302 371
f 417 481 306
f 417 481 306
f 417 481 306
f 481 417 480
f 481 417 480
f 481 417 480
f 306 481 305
f 306 481 305
f 306 481 305
f 301 418 419
f 301 418 419
f 301 418 419
f 418 301 302
f 418 301 302
f 418 301 302
f 300 419 420
f 300 419 420
f 300 419 420
f 419 300 301
f 419 300 301
f 419 300 301
f 421 482 420
f 421 482 420
f 421 482 420
f 482 421 296
f 482 421 296
f 482 421 296
f 482 296 372
f 482 296 372
f 482 296 372
f 420 483 300
f 420 483 300
f 420 483 300
f 483 420 482
f 483 420 482
f 483 420 482
f 300 483 299
f 300 483 299
f 300 483 299
f 422 484 421
f 422 484 421
f 422 484 421
f 484 422 292
f 484 422 292
f 484 422 292
f 484 292 373
f 484 292 373
f 484 292 373
f 421 485 296
f 421 485 296
f 421 485 296
f 485 421 484
f 485 421 484
f 485 421 484
f 296 485 295
f 296 485 295
f 296 485 295
f 291 422 423
f 291 422 423
f 291 422 423
f 422 291 292
f 422 291 292
f 422 291 292
f 290 423 424
f 290 423 424
f 290 423 424
f 423 290 291
f 423 290 291
f 423 290 291
f 425 486 424
f 425 486 424
f 425 486 424
f 486 425 286
f 486 425 286
f 486 425 286
f 486 286 374
f 486 286 374
f 486 286 374
f 424 487 290
f 424 487 290
f 424 487 290
f 487 424 486
f 487 424 486
f 487 424 486
f 290 487 289
f 290 487 289
f 290 487 289
f 426 488 425
f 426 488 425
f 426 488 425
f 488 426 282
f 488 426 282
f 488 426 282
f 488 282 375
f 488 282 375
f 488 282 375
f 425 489 286
f 425 489 286
f 425 489 286
f 489 425 488
f 489 425 488
f 489 425 488
f 286 489 285
f 286 489 285
f 286 489 285
f 281 426 427
f 281 426 427
f 281 426 427
f 426 281 282
f 426 281 282
f 426 281 282
f 280 427 428
f 280 427 428
f 280 427 428
f 427 280 281
f 427 280 281
f 427 280 281
f 429 490 428
f 429 490 428
f 429 490 428
f 490 429 491
f 490 429 491
f 490 429 491
f 490 491 376
f 490 491 376
f 490 491 376
f 376 491 276
f 376 491 276
f 376 491 276
f 428 492 280
f 428 492 280
f 428 492 280
f 492 428 490
f 492 428 490
f 492 428 490
f 280 492 279
f 280 492 279
f 280 492 279
f 431 493 430
f 431 493 430
f 431 493 430
f 493 431 268
f 493 431 268
f 493 431 268
f 493 268 378
f 493 268 378
f 493 268 378
f 430 494 272
f 430 494 272
f 430 494 272
f 494 430 493
f 494 430 493
f 494 430 493
f 272 494 271
f 272 494 271
f 272 494 271
f 267 431 432
f 267 431 432
f 267 431 432
f 431 267 268
f 431 267 268
f 431 267 268
f 266 432 433
f 266 432 433
f 266 432 433
f 432 266 267
f 432 266 267
f 432 266 267
f 435 495 434
f 435 495 434
f 435 495 434
f 495 435 258
f 495 435 258
f 495 435 258
f 495 258 380
f 495 258 380
f 495 258 380
f 434 496 262
f 434 496 262
f 434 496 262
f 496 434 495
f 496 434 495
f 496 434 495
f 262 496 261
f 262 496 261
f 262 496 261
f 257 435 436
f 257 435 436
f 257 435 436
f 435 257 258
f 435 257 258
f 435 257 258
f 256 436 437
f 256 436 437
f 256 436 437
f 436 256 257
f 436 256 257
f 436 256 257
f 439 497 438
f 439 497 438
f 439 497 438
f 497 439 248
f 497 439 248
f 497 439 248
f 497 248 382
f 497 248 382
f 497 248 382
f 438 498 252
f 438 498 252
f 438 498 252
f 498 438 497
f 498 438 497
f 498 438 497
f 252 498 251
f 252 498 251
f 252 498 251
f 440 499 439
f 440 499 439
f 440 499 439
f 499 440 244
f 499 440 244
f 499 440 244
f 499 244 383
f 499 244 383
f 499 244 383
f 439 500 248
f 439 500 248
f 439 500 248
f 500 439 499
f 500 439 499
f 500 439 499
f 248 500 247
f 248 500 247
f 248 500 247
f 243 440 441
f 243 440 441
f 243 440 441
f 440 243 244
f 440 243 244
f 440 243 244
f 242 441 442
f 242 441 442
f 242 441 442
f 441 242 243
f 441 242 243
f 441 242 243
f 443 501 442
f 443 501 442
f 443 501 442
f 501 443 238
f 501 443 238
f 501 443 238
f 501 238 384
f 501 238 384
f 501 238 384
f 442 502 242
f 442 502 242
f 442 502 242
f 502 442 501
f 502 442 501
f 502 442 501
f 242 502 241
f 242 502 241
f 242 502 241
f 233 444 445
f 233 444 445
f 233 444 445
f 444 233 234
f 444 233 234
f 444 233 234
f 232 445 446
f 232 445 446
f 232 445 446
f 445 232 233
f 445 232 233
f 445 232 233
f 447 503 446
f 447 503 446
f 447 503 446
f 503 447 228
f 503 447 228
f 503 447 228
f 503 228 386
f 503 228 386
f 503 228 386
f 446 504 232
f 446 504 232
f 446 504 232
f 504 446 503
f 504 446 503
f 504 446 503
f 232 504 231
f 232 504 231
f 232 504 231
f 219 449 450
f 219 449 450
f 219 449 450
f 449 219 505
f 449 219 505
f 449 219 505
f 505 219 220
f 505 219 220
f 505 219 220
f 220 506 505
f 220 506 505
f 220 506 505
f 506 220 388
f 506 220 388
f 506 220 388
f 505 448 449
f 505 448 449
f 505 448 449
f 448 505 507
f 448 505 507
f 448 505 507
f 448 507 224
f 448 507 224
f 448 507 224
f 507 505 506
f 507 505 506
f 507 505 506
f 224 507 223
f 224 507 223
f 224 507 223
f 218 450 451
f 218 450 451
f 218 450 451
f 450 218 219
f 450 218 219
f 450 218 219
f 453 508 452
f 453 508 452
f 453 508 452
f 508 453 210
f 508 453 210
f 508 453 210
f 508 210 390
f 508 210 390
f 508 210 390
f 452 509 214
f 452 509 214
f 452 509 214
f 509 452 508
f 509 452 508
f 509 452 508
f 214 509 213
f 214 509 213
f 214 509 213
f 454 510 453
f 454 510 453
f 454 510 453
f 510 454 206
f 510 454 206
f 510 454 206
f 510 206 391
f 510 206 391
f 510 206 391
f 453 511 210
f 453 511 210
f 453 511 210
f 511 453 510
f 511 453 510
f 511 453 510
f 210 511 209
f 210 511 209
f 210 511 209
f 205 454 455
f 205 454 455
f 205 454 455
f 454 205 206
f 454 205 206
f 454 205 206
f 204 455 456
f 204 455 456
f 204 455 456
f 455 204 205
f 455 204 205
f 455 204 205
f 457 512 456
f 457 512 456
f 457 512 456
f 512 457 200
f 512 457 200
f 512 457 200
f 512 200 392
f 512 200 392
f 512 200 392
f 456 513 204
f 456 513 204
f 456 513 204
f 513 456 512
f 513 456 512
f 513 456 512
f 204 513 203
f 204 513 203
f 204 513 203
f 458 514 457
f 458 514 457
f 458 514 457
f 514 458 196
f 514 458 196
f 514 458 196
f 514 196 393
f 514 196 393
f 514 196 393
f 457 515 200
f 457 515 200
f 457 515 200
f 515 457 514
f 515 457 514
f 515 457 514
f 200 515 199
f 200 515 199
f 200 515 199
f 195 458 459
f 195 458 459
f 195 458 459
f 458 195 196
f 458 195 196
f 458 195 196
f 460 516 459
f 460 516 459
f 460 516 459
f 516 460 191
f 516 460 191
f 516 460 191
f 516 191 394
f 516 191 394
f 516 191 394
f 459 517 195
f 459 517 195
f 459 517 195
f 517 459 516
f 517 459 516
f 517 459 516
f 195 517 194
f 195 517 194
f 195 517 194
f 462 518 461
f 462 518 461
f 462 518 461
f 518 462 183
f 518 462 183
f 518 462 183
f 518 183 396
f 518 183 396
f 518 183 396
f 461 519 187
f 461 519 187
f 461 519 187
f 519 461 518
f 519 461 518
f 519 461 518
f 187 519 186
f 187 519 186
f 187 519 186
f 182 462 463
f 182 462 463
f 182 462 463
f 462 182 183
f 462 182 183
f 462 182 183
f 96 463 95
f 96 463 95
f 96 463 95
f 463 96 182
f 463 96 182
f 463 96 182
f 520 521 522
f 520 521 522
f 520 521 522
f 521 520 52
f 521 520 52
f 521 520 52
f 521 52 523
f 521 52 523
f 521 52 523
f 523 52 524
f 523 52 524
f 523 52 524
f 524 52 525
f 524 52 525
f 524 52 525
f 525 52 526
f 525 52 526
f 525 52 526
f 526 52 527
f 526 52 527
f 526 52 527
f 527 52 54
f 527 52 54
f 527 52 54
f 523 5 39
f 523 5 39
f 523 5 39
f 5 523 4
f 5 523 4
f 5 523 4
f 4 523 528
f 4 523 528
f 4 523 528
f 528 523 524
f 528 523 524
f 528 523 524
f 4 528 526
f 4 528 526
f 4 528 526
f 4 526 529
f 4 526 529
f 4 526 529
f 529 526 527
f 529 526 527
f 529 526 527
f 4 529 530
f 4 529 530
f 4 529 530
f 531 532 533
f 531 532 533
f 531 532 533
f 532 531 529
f 532 531 529
f 532 531 529
f 529 531 530
f 529 531 530
f 529 531 530
f 527 532 529
f 527 532 529
f 527 532 529
f 532 527 534
f 532 527 534
f 532 527 534
f 534 527 535
f 534 527 535
f 534 527 535
f 534 535 536
f 534 535 536
f 534 535 536
f 536 535 537
f 536 535 537
f 536 535 537
f 537 535 538
f 537 535 538
f 537 535 538
f 538 535 539
f 538 535 539
f 538 535 539
f 538 539 540
f 538 539 540
f 538 539 540
f 540 539 541
f 540 539 541
f 540 539 541
f 541 539 542
f 541 539 542
f 541 539 542
f 542 539 543
f 542 539 543
f 542 539 543
f 543 539 544
f 543 539 544
f 543 539 544
f 544 539 545
f 544 539 545
f 544 539 545
f 545 539 546
f 545 539 546
f 545 539 546
f 546 539 547
f 546 539 547
f 546 539 547
f 547 539 548
f 547 539 548
f 547 539 548
f 530 2 4
f 530 2 4
f 530 2 4
f 2 530 531
f 2 530 531
f 2 530 531
f 523 59 549
f 523 59 549
f 523 59 549
f 59 523 35
f 59 523 35
f 59 523 35
f 35 523 39
f 35 523 39
f 35 523 39
f 31 522 30
f 31 522 30
f 31 522 30
f 522 31 520
f 522 31 520
f 522 31 520
f 550 59 60
f 550 59 60
f 550 59 60
f 59 550 549
f 59 550 549
f 59 550 549
f 17 78 37
f 17 78 37
f 17 78 37
f 78 17 74
f 78 17 74
f 78 17 74
f 74 17 175
f 74 17 175
f 74 17 175
f 175 17 55
f 175 17 55
f 175 17 55
f 55 17 53
f 55 17 53
f 55 17 53
f 53 17 531
f 53 17 531
f 53 17 531
f 531 17 2
f 531 17 2
f 531 17 2
f 2 17 3
f 2 17 3
f 2 17 3
f 527 551 535
f 527 551 535
f 527 551 535
f 551 527 53
f 551 527 53
f 551 527 53
f 53 527 54
f 53 527 54
f 53 527 54
f 30 552 61
f 30 552 61
f 30 552 61
f 552 30 521
f 552 30 521
f 552 30 521
f 521 30 522
f 521 30 522
f 521 30 522
f 551 539 535
f 551 539 535
f 551 539 535
f 539 551 553
f 539 551 553
f 539 551 553
f 552 57 61
f 552 57 61
f 552 57 61
f 57 552 554
f 57 552 554
f 57 552 554
f 55 539 553
f 55 539 553
f 55 539 553
f 539 555 548
f 539 555 548
f 539 555 548
f 555 539 554
f 555 539 554
f 555 539 554
f 554 539 57
f 554 539 57
f 554 539 57
f 57 539 31
f 57 539 31
f 57 539 31
f 31 539 55
f 31 539 55
f 31 539 55
f 31 55 52
f 31 55 52
f 31 55 52
f 31 52 520
f 31 52 520
f 31 52 520
f 556 543 544
f 556 543 544
f 556 543 544
f 543 556 557
f 543 556 557
f 543 556 557
f 558 544 545
f 558 544 545
f 558 544 545
f 544 558 556
f 544 558 556
f 544 558 556
f 559 545 546
f 559 545 546
f 559 545 546
f 545 559 558
f 545 559 558
f 545 559 558
f 560 546 547
f 560 546 547
f 560 546 547
f 546 560 559
f 546 560 559
f 546 560 559
f 561 536 537
f 561 536 537
f 561 536 537
f 536 561 562
f 536 561 562
f 536 561 562
f 563 537 538
f 563 537 538
f 563 537 538
f 537 563 561
f 537 563 561
f 537 563 561
f 564 538 540
f 564 538 540
f 564 538 540
f 538 564 563
f 538 564 563
f 538 564 563
f 565 540 541
f 565 540 541
f 565 540 541
f 540 565 564
f 540 565 564
f 540 565 564
f 566 541 542
f 566 541 542
f 566 541 542
f 541 566 565
f 541 566 565
f 541 566 565
f 557 542 543
f 557 542 543
f 557 542 543
f 542 557 566
f 542 557 566
f 542 557 566
f 562 534 536
f 562 534 536
f 562 534 536
f 534 562 567
f 534 562 567
f 534 562 567
f 567 532 534
f 567 532 534
f 567 532 534
f 532 567 533
f 532 567 533
f 532 567 533
f 169 88 90
f 169 88 90
f 169 88 90
f 92 73 58
f 92 73 58
f 92 73 58
f 73 92 94
f 73 92 94
f 73 92 94
f 73 94 555
f 73 94 555
f 73 94 555
f 555 94 88
f 555 94 88
f 555 94 88
f 555 88 548
f 555 88 548
f 555 88 548
f 548 88 568
f 548 88 568
f 548 88 568
f 568 88 169
f 568 88 169
f 568 88 169
f 568 547 548
f 568 547 548
f 568 547 548
f 547 568 560
f 547 568 560
f 547 568 560
f 569 552 550
f 569 552 550
f 569 552 550
f 552 569 554
f 552 569 554
f 552 569 554
f 554 569 570
f 554 569 570
f 554 569 570
f 554 570 571
f 554 570 571
f 554 570 571
f 554 571 572
f 554 571 572
f 554 571 572
f 554 572 573
f 554 572 573
f 554 572 573
f 554 573 574
f 554 573 574
f 554 573 574
f 554 574 575
f 554 574 575
f 554 574 575
f 554 575 576
f 554 575 576
f 554 575 576
f 554 576 577
f 554 576 577
f 554 576 577
f 554 577 578
f 554 577 578
f 554 577 578
f 554 578 579
f 554 578 579
f 554 578 579
f 554 579 555
f 554 579 555
f 554 579 555
f 550 523 549
f 550 523 549
f 550 523 549
f 523 550 521
f 523 550 521
f 523 550 521
f 521 550 552
f 521 550 552
f 521 550 552
f 555 72 73
f 555 72 73
f 555 72 73
f 72 555 579
f 72 555 579
f 72 555 579
f 579 71 72
f 579 71 72
f 579 71 72
f 71 579 578
f 71 579 578
f 71 579 578
f 578 70 71
f 578 70 71
f 578 70 71
f 70 578 577
f 70 578 577
f 70 578 577
f 70 576 69
f 70 576 69
f 70 576 69
f 576 70 577
f 576 70 577
f 576 70 577
f 576 68 69
f 576 68 69
f 576 68 69
f 68 576 575
f 68 576 575
f 68 576 575
f 575 67 68
f 575 67 68
f 575 67 68
f 67 575 574
f 67 575 574
f 67 575 574
f 574 66 67
f 574 66 67
f 574 66 67
f 66 574 573
f 66 574 573
f 66 574 573
f 573 65 66
f 573 65 66
f 573 65 66
f 65 573 572
f 65 573 572
f 65 573 572
f 65 571 64
f 65 571 64
f 65 571 64
f 571 65 572
f 571 65 572
f 571 65 572
f 571 63 64
f 571 63 64
f 571 63 64
f 63 571 570
f 63 571 570
f 63 571 570
f 570 62 63
f 570 62 63
f 570 62 63
f 62 570 569
f 62 570 569
f 62 570 569
f 569 60 62
f 569 60 62
f 569 60 62
f 60 569 550
f 60 569 550
f 60 569 550
f 524 580 581
f 524 580 581
f 524 580 581
f 580 524 525
f 580 524 525
f 580 524 525
f 580 526 582
f 580 526 582
f 580 526 582
f 526 580 525
f 526 580 525
f 526 580 525
f 526 583 582
f 526 583 582
f 526 583 582
f 583 526 528
f 583 526 528
f 583 526 528
f 524 583 528
f 524 583 528
f 524 583 528
f 583 524 581
f 583 524 581
f 583 524 581
f 581 584 583
f 581 584 583
f 581 584 583
f 584 581 580
f 584 581 580
f 584 581 580
f 584 580 585
f 584 580 585
f 584 580 585
f 585 580 586
f 585 580 586
f 585 580 586
f 585 586 587
f 585 586 587
f 585 586 587
f 586 580 588
f 586 580 588
f 586 580 588
f 588 580 589
f 588 580 589
f 588 580 589
f 589 580 590
f 589 580 590
f 589 580 590
f 590 580 591
f 590 580 591
f 590 580 591
f 591 580 592
f 591 580 592
f 591 580 592
f 583 593 582
f 583 593 582
f 583 593 582
f 593 583 584
f 593 583 584
f 593 583 584
f 582 593 587
f 582 593 587
f 582 593 587
f 582 587 594
f 582 587 594
f 582 587 594
f 594 587 586
f 594 587 586
f 594 587 586
f 582 594 589
f 582 594 589
f 582 594 589
f 582 589 595
f 582 589 595
f 582 589 595
f 595 589 590
f 595 589 590
f 595 589 590
f 582 595 592
f 582 595 592
f 582 595 592
f 582 592 580
f 582 592 580
f 582 592 580
f 596 597 598
f 596 597 598
f 596 597 598
f 597 596 599
f 597 596 599
f 597 596 599
f 590 596 598
f 590 596 598
f 590 596 598
f 596 590 591
f 596 590 591
f 596 590 591
f 596 592 599
f 596 592 599
f 596 592 599
f 592 596 591
f 592 596 591
f 592 596 591
f 592 597 599
f 592 597 599
f 592 597 599
f 597 592 595
f 597 592 595
f 597 592 595
f 590 597 595
f 590 597 595
f 590 597 595
f 597 590 598
f 597 590 598
f 597 590 598
f 600 601 602
f 600 601 602
f 600 601 602
f 601 600 603
f 601 600 603
f 601 600 603
f 600 589 603
f 600 589 603
f 600 589 603
f 589 600 588
f 589 600 588
f 589 600 588
f 589 601 603
f 589 601 603
f 589 601 603
f 601 589 594
f 601 589 594
f 601 589 594
f 586 601 594
f 586 601 594
f 586 601 594
f 601 586 602
f 601 586 602
f 601 586 602
f 586 600 602
f 586 600 602
f 586 600 602
f 600 586 588
f 600 586 588
f 600 586 588
f 604 605 606
f 604 605 606
f 604 605 606
f 605 604 607
f 605 604 607
f 605 604 607
f 587 605 607
f 587 605 607
f 587 605 607
f 605 587 593
f 605 587 593
f 605 587 593
f 584 605 593
f 584 605 593
f 584 605 593
f 605 584 606
f 605 584 606
f 605 584 606
f 584 604 606
f 584 604 606
f 584 604 606
f 604 584 585
f 604 584 585
f 604 584 585
f 604 587 607
f 604 587 607
f 604 587 607
f 587 604 585
f 587 604 585
f 587 604 585
f 44 34 51
f 44 34 51
f 44 34 51
f 34 44 33
f 34 44 33
f 34 44 33
f 33 44 32
f 33 44 32
f 33 44 32
f 33 46 56
f 33 46 56
f 33 46 56
f 46 33 170
f 46 33 170
f 46 33 170
f 170 33 32
f 170 33 32
f 170 33 32
f 170 32 177
f 170 32 177
f 170 32 177
f 177 32 176
f 177 32 176
f 177 32 176
f 74 76 175
f 74 76 175
f 74 76 175
f 175 553 55
f 175 553 55
f 175 553 55
f 553 175 568
f 553 175 568
f 553 175 568
f 568 175 169
f 568 175 169
f 568 175 169
f 169 175 82
f 169 175 82
f 169 175 82
f 82 175 76
f 82 175 76
f 82 175 76
f 82 76 75
f 82 76 75
f 82 76 75
f 53 533 531
f 53 533 531
f 53 533 531
f 533 53 567
f 533 53 567
f 533 53 567
f 567 53 551
f 567 53 551
f 567 53 551
f 567 551 562
f 567 551 562
f 567 551 562
f 562 551 561
f 562 551 561
f 562 551 561
f 561 551 563
f 561 551 563
f 561 551 563
f 563 551 553
f 563 551 553
f 563 551 553
f 563 553 564
f 563 553 564
f 563 553 564
f 564 553 565
f 564 553 565
f 564 553 565
f 565 553 566
f 565 553 566
f 565 553 566
f 566 553 557
f 566 553 557
f 566 553 557
f 557 553 556
f 557 553 556
f 557 553 556
f 556 553 558
f 556 553 558
f 556 553 558
f 558 553 559
f 558 553 559
f 558 553 559
f 559 553 560
f 559 553 560
f 559 553 560
f 560 553 568
f 560 553 568
f 560 553 568
f 608 609 610
f 608 609 610
f 608 609 610
f 609 608 611
f 609 608 611
f 609 608 611
f 172 610 171
f 172 610 171
f 172 610 171
f 610 172 608
f 610 172 608
f 610 172 608
f 609 173 174
f 609 173 174
f 609 173 174
f 173 609 611
f 173 609 611
f 173 609 611
f 609 171 610
f 609 171 610
f 609 171 610
f 171 609 174
f 171 609 174
f 171 609 174
f 173 608 172
f 173 608 172
f 173 608 172
f 608 173 611
f 608 173 611
f 608 173 611
f 612 613 614
f 612 613 614
f 612 613 614
f 613 612 615
f 613 612 615
f 613 612 615
f 40 612 614
f 40 612 614
f 40 612 614
f 612 40 616
f 612 40 616
f 612 40 616
f 616 40 617
f 616 40 617
f 616 40 617
f 617 40 618
f 617 40 618
f 617 40 618
f 618 40 619
f 618 40 619
f 618 40 619
f 619 40 620
f 619 40 620
f 619 40 620
f 620 40 621
f 620 40 621
f 620 40 621
f 621 40 622
f 621 40 622
f 621 40 622
f 622 40 623
f 622 40 623
f 622 40 623
f 623 624 625
f 623 624 625
f 623 624 625
f 624 623 41
f 624 623 41
f 624 623 41
f 41 623 40
f 41 623 40
f 41 623 40
f 621 626 627
f 621 626 627
f 621 626 627
f 626 621 622
f 626 621 622
f 626 621 622
f 619 628 629
f 619 628 629
f 619 628 629
f 628 619 620
f 628 619 620
f 628 619 620
f 617 630 631
f 617 630 631
f 617 630 631
f 630 617 618
f 630 617 618
f 630 617 618
f 614 632 40
f 614 632 40
f 614 632 40
f 632 614 613
f 632 614 613
f 632 614 613
f 632 613 633
f 632 613 633
f 632 613 633
f 633 613 634
f 633 613 634
f 633 613 634
f 634 613 635
f 634 613 635
f 634 613 635
f 635 613 636
f 635 613 636
f 635 613 636
f 636 613 637
f 636 613 637
f 636 613 637
f 637 613 638
f 637 613 638
f 637 613 638
f 638 613 639
f 638 613 639
f 638 613 639
f 639 613 640
f 639 613 640
f 639 613 640
f 40 641 43
f 40 641 43
f 40 641 43
f 641 40 632
f 641 40 632
f 641 40 632
f 43 641 634
f 43 641 634
f 43 641 634
f 43 634 642
f 43 634 642
f 43 634 642
f 642 634 635
f 642 634 635
f 642 634 635
f 43 642 637
f 43 642 637
f 43 642 637
f 43 637 643
f 43 637 643
f 43 637 643
f 643 637 638
f 643 637 638
f 643 637 638
f 43 643 640
f 43 643 640
f 43 643 640
f 43 640 613
f 43 640 613
f 43 640 613
f 644 617 631
f 644 617 631
f 644 617 631
f 617 644 645
f 617 644 645
f 617 644 645
f 617 646 616
f 617 646 616
f 617 646 616
f 646 617 647
f 646 617 647
f 646 617 647
f 647 617 648
f 647 617 648
f 647 617 648
f 648 617 645
f 648 617 645
f 648 617 645
f 646 612 616
f 646 612 616
f 646 612 616
f 612 646 615
f 612 646 615
f 612 646 615
f 615 646 647
f 615 646 647
f 615 646 647
f 615 647 648
f 615 647 648
f 615 647 648
f 630 644 631
f 630 644 631
f 630 644 631
f 644 630 649
f 644 630 649
f 644 630 649
f 650 619 629
f 650 619 629
f 650 619 629
f 619 650 651
f 619 650 651
f 619 650 651
f 619 652 618
f 619 652 618
f 619 652 618
f 652 619 653
f 652 619 653
f 652 619 653
f 653 619 654
f 653 619 654
f 653 619 654
f 654 619 651
f 654 619 651
f 654 619 651
f 652 630 618
f 652 630 618
f 652 630 618
f 630 652 649
f 630 652 649
f 630 652 649
f 649 652 653
f 649 652 653
f 649 652 653
f 649 653 654
f 649 653 654
f 649 653 654
f 628 650 629
f 628 650 629
f 628 650 629
f 650 628 655
f 650 628 655
f 650 628 655
f 656 621 627
f 656 621 627
f 656 621 627
f 621 656 657
f 621 656 657
f 621 656 657
f 621 658 620
f 621 658 620
f 621 658 620
f 658 621 659
f 658 621 659
f 658 621 659
f 659 621 660
f 659 621 660
f 659 621 660
f 660 621 657
f 660 621 657
f 660 621 657
f 658 628 620
f 658 628 620
f 658 628 620
f 628 658 655
f 628 658 655
f 628 658 655
f 655 658 659
f 655 658 659
f 655 658 659
f 655 659 660
f 655 659 660
f 655 659 660
f 626 656 627
f 626 656 627
f 626 656 627
f 656 626 661
f 656 626 661
f 656 626 661
f 42 662 663
f 42 662 663
f 42 662 663
f 662 42 664
f 662 42 664
f 662 42 664
f 664 42 665
f 664 42 665
f 664 42 665
f 665 42 657
f 665 42 657
f 665 42 657
f 657 42 660
f 657 42 660
f 657 42 660
f 660 42 651
f 660 42 651
f 660 42 651
f 651 42 654
f 651 42 654
f 651 42 654
f 654 42 645
f 654 42 645
f 654 42 645
f 645 42 648
f 645 42 648
f 645 42 648
f 648 613 615
f 648 613 615
f 648 613 615
f 613 648 43
f 613 648 43
f 613 648 43
f 43 648 42
f 43 648 42
f 43 648 42
f 654 644 649
f 654 644 649
f 654 644 649
f 644 654 645
f 644 654 645
f 644 654 645
f 660 650 655
f 660 650 655
f 660 650 655
f 650 660 651
f 650 660 651
f 650 660 651
f 665 656 661
f 665 656 661
f 665 656 661
f 656 665 657
f 656 665 657
f 656 665 657
f 662 666 667
f 662 666 667
f 662 666 667
f 666 662 664
f 666 662 664
f 666 662 664
f 668 626 622
f 668 626 622
f 668 626 622
f 626 668 661
f 626 668 661
f 626 668 661
f 661 668 669
f 661 668 669
f 661 668 669
f 661 669 670
f 661 669 670
f 661 669 670
f 661 670 671
f 661 670 671
f 661 670 671
f 661 671 672
f 661 671 672
f 661 671 672
f 661 672 673
f 661 672 673
f 661 672 673
f 661 673 665
f 661 673 665
f 661 673 665
f 674 662 667
f 674 662 667
f 674 662 667
f 662 674 663
f 662 674 663
f 662 674 663
f 41 675 624
f 41 675 624
f 41 675 624
f 675 41 42
f 675 41 42
f 675 41 42
f 675 42 676
f 675 42 676
f 675 42 676
f 676 42 677
f 676 42 677
f 676 42 677
f 676 677 678
f 676 677 678
f 676 677 678
f 677 42 679
f 677 42 679
f 677 42 679
f 679 42 680
f 679 42 680
f 679 42 680
f 680 42 681
f 680 42 681
f 680 42 681
f 681 42 682
f 681 42 682
f 681 42 682
f 682 42 674
f 682 42 674
f 682 42 674
f 674 42 663
f 674 42 663
f 674 42 663
f 683 680 681
f 683 680 681
f 683 680 681
f 684 678 677
f 684 678 677
f 684 678 677
f 685 624 675
f 685 624 675
f 685 624 675
f 681 686 683
f 681 686 683
f 681 686 683
f 686 681 687
f 686 681 687
f 686 681 687
f 687 681 672
f 687 681 672
f 687 681 672
f 672 681 638
f 672 681 638
f 672 681 638
f 638 681 643
f 638 681 643
f 638 681 643
f 640 673 639
f 640 673 639
f 640 673 639
f 673 640 666
f 673 640 666
f 673 640 666
f 666 674 667
f 666 674 667
f 666 674 667
f 674 666 682
f 674 666 682
f 674 666 682
f 682 666 640
f 682 666 640
f 682 666 640
f 680 686 688
f 680 686 688
f 680 686 688
f 686 680 683
f 686 680 683
f 686 680 683
f 677 689 684
f 677 689 684
f 677 689 684
f 689 677 690
f 689 677 690
f 689 677 690
f 690 677 670
f 690 677 670
f 690 677 670
f 670 677 635
f 670 677 635
f 670 677 635
f 635 677 642
f 635 677 642
f 635 677 642
f 677 637 642
f 677 637 642
f 677 637 642
f 637 677 679
f 637 677 679
f 637 677 679
f 637 671 636
f 637 671 636
f 637 671 636
f 671 637 691
f 671 637 691
f 671 637 691
f 691 680 688
f 691 680 688
f 691 680 688
f 680 691 679
f 680 691 679
f 680 691 679
f 679 691 637
f 679 691 637
f 679 691 637
f 692 684 689
f 692 684 689
f 692 684 689
f 684 692 678
f 684 692 678
f 684 692 678
f 675 693 685
f 675 693 685
f 675 693 685
f 693 675 694
f 693 675 694
f 693 675 694
f 694 675 668
f 694 675 668
f 694 675 668
f 668 675 658
f 668 675 658
f 668 675 658
f 658 675 652
f 658 675 652
f 658 675 652
f 652 675 646
f 652 675 646
f 652 675 646
f 646 675 632
f 646 675 632
f 646 675 632
f 632 675 641
f 632 675 641
f 632 675 641
f 675 634 641
f 675 634 641
f 675 634 641
f 634 675 676
f 634 675 676
f 634 675 676
f 634 647 633
f 634 647 633
f 634 647 633
f 647 634 653
f 647 634 653
f 647 634 653
f 653 634 659
f 653 634 659
f 653 634 659
f 659 634 669
f 659 634 669
f 659 634 669
f 669 634 695
f 669 634 695
f 669 634 695
f 695 678 692
f 695 678 692
f 695 678 692
f 678 695 676
f 678 695 676
f 678 695 676
f 676 695 634
f 676 695 634
f 676 695 634
f 624 693 625
f 624 693 625
f 624 693 625
f 693 624 685
f 693 624 685
f 693 624 685
f 689 695 692
f 689 695 692
f 689 695 692
f 695 689 690
f 695 689 690
f 695 689 690
f 673 664 665
f 673 664 665
f 673 664 665
f 664 673 666
f 664 673 666
f 664 673 666
f 686 691 688
f 686 691 688
f 686 691 688
f 691 686 687
f 691 686 687
f 691 686 687
f 669 658 659
f 669 658 659
f 669 658 659
f 658 669 668
f 658 669 668
f 658 669 668
f 659 652 653
f 659 652 653
f 659 652 653
f 652 659 658
f 652 659 658
f 652 659 658
f 653 646 647
f 653 646 647
f 653 646 647
f 646 653 652
f 646 653 652
f 646 653 652
f 647 632 633
f 647 632 633
f 647 632 633
f 632 647 646
f 632 647 646
f 632 647 646
f 695 670 669
f 695 670 669
f 695 670 669
f 670 695 690
f 670 695 690
f 670 695 690
f 671 635 636
f 671 635 636
f 671 635 636
f 635 671 670
f 635 671 670
f 635 671 670
f 681 640 643
f 681 640 643
f 681 640 643
f 640 681 682
f 640 681 682
f 640 681 682
f 691 672 671
f 691 672 671
f 691 672 671
f 672 691 687
f 672 691 687
f 672 691 687
f 673 638 639
f 673 638 639
f 673 638 639
f 638 673 672
f 638 673 672
f 638 673 672
f 693 623 625
f 693 623 625
f 693 623 625
f 623 693 694
f 623 693 694
f 623 693 694
f 623 668 622
f 623 668 622
f 623 668 622
f 668 623 694
f 668 623 694
f 668 623 694
f 398 696 397
f 398 696 397
f 398 696 397
f 696 398 356
f 696 398 356
f 696 398 356
f 696 356 360
f 696 356 360
f 696 356 360
f 397 697 359
f 397 697 359
f 397 697 359
f 697 397 696
f 697 397 696
f 697 397 696
f 359 697 358
f 359 697 358
f 359 697 358
f 404 698 403
f 404 698 403
f 404 698 403
f 698 404 338
f 698 404 338
f 698 404 338
f 698 338 364
f 698 338 364
f 698 338 364
f 403 699 342
f 403 699 342
f 403 699 342
f 699 403 698
f 699 403 698
f 699 403 698
f 342 699 341
f 342 699 341
f 342 699 341
f 413 700 412
f 413 700 412
f 413 700 412
f 700 413 316
f 700 413 316
f 700 413 316
f 700 316 368
f 700 316 368
f 700 316 368
f 412 701 320
f 412 701 320
f 412 701 320
f 701 412 700
f 701 412 700
f 701 412 700
f 320 701 319
f 320 701 319
f 320 701 319
f 417 702 416
f 417 702 416
f 417 702 416
f 702 417 306
f 702 417 306
f 702 417 306
f 702 306 370
f 702 306 370
f 702 306 370
f 416 703 310
f 416 703 310
f 416 703 310
f 703 416 702
f 703 416 702
f 703 416 702
f 310 703 309
f 310 703 309
f 310 703 309
f 430 704 429
f 430 704 429
f 430 704 429
f 704 430 272
f 704 430 272
f 704 430 272
f 704 272 377
f 704 272 377
f 704 272 377
f 429 705 491
f 429 705 491
f 429 705 491
f 705 429 704
f 705 429 704
f 705 429 704
f 491 705 275
f 491 705 275
f 491 705 275
f 491 275 276
f 491 275 276
f 491 275 276
f 434 706 433
f 434 706 433
f 434 706 433
f 706 434 262
f 706 434 262
f 706 434 262
f 706 262 379
f 706 262 379
f 706 262 379
f 433 707 266
f 433 707 266
f 433 707 266
f 707 433 706
f 707 433 706
f 707 433 706
f 266 707 265
f 266 707 265
f 266 707 265
f 438 708 437
f 438 708 437
f 438 708 437
f 708 438 252
f 708 438 252
f 708 438 252
f 708 252 381
f 708 252 381
f 708 252 381
f 437 709 256
f 437 709 256
f 437 709 256
f 709 437 708
f 709 437 708
f 709 437 708
f 256 709 255
f 256 709 255
f 256 709 255
f 444 710 443
f 444 710 443
f 444 710 443
f 710 444 234
f 710 444 234
f 710 444 234
f 710 234 385
f 710 234 385
f 710 234 385
f 443 711 238
f 443 711 238
f 443 711 238
f 711 443 710
f 711 443 710
f 711 443 710
f 238 711 237
f 238 711 237
f 238 711 237
f 448 712 447
f 448 712 447
f 448 712 447
f 712 448 224
f 712 448 224
f 712 448 224
f 712 224 387
f 712 224 387
f 712 224 387
f 447 713 228
f 447 713 228
f 447 713 228
f 713 447 712
f 713 447 712
f 713 447 712
f 228 713 227
f 228 713 227
f 228 713 227
f 452 714 451
f 452 714 451
f 452 714 451
f 714 452 214
f 714 452 214
f 714 452 214
f 714 214 389
f 714 214 389
f 714 214 389
f 451 715 218
f 451 715 218
f 451 715 218
f 715 451 714
f 715 451 714
f 715 451 714
f 218 715 217
f 218 715 217
f 218 715 217
f 461 716 460
f 461 716 460
f 461 716 460
f 716 461 187
f 716 461 187
f 716 461 187
f 716 187 395
f 716 187 395
f 716 187 395
f 460 717 191
f 460 717 191
f 460 717 191
f 717 460 716
f 717 460 716
f 717 460 716
f 191 717 190
f 191 717 190
f 191 717 190
f 354 718 719
f 354 718 719
f 354 718 719
f 718 354 357
f 718 354 357
f 718 354 357
f 718 358 697
f 718 358 697
f 718 358 697
f 358 718 357
f 358 718 357
f 358 718 357
f 718 696 719
f 718 696 719
f 718 696 719
f 696 718 697
f 696 718 697
f 696 718 697
f 354 696 360
f 354 696 360
f 354 696 360
f 696 354 719
f 696 354 719
f 696 354 719
f 350 720 721
f 350 720 721
f 350 720 721
f 720 350 353
f 720 350 353
f 720 350 353
f 720 355 465
f 720 355 465
f 720 355 465
f 355 720 353
f 355 720 353
f 355 720 353
f 720 464 721
f 720 464 721
f 720 464 721
f 464 720 465
f 464 720 465
f 464 720 465
f 350 464 361
f 350 464 361
f 350 464 361
f 464 350 721
f 464 350 721
f 464 350 721
f 346 722 723
f 346 722 723
f 346 722 723
f 722 346 349
f 722 346 349
f 722 346 349
f 722 351 467
f 722 351 467
f 722 351 467
f 351 722 349
f 351 722 349
f 351 722 349
f 722 466 723
f 722 466 723
f 722 466 723
f 466 722 467
f 466 722 467
f 466 722 467
f 346 466 362
f 346 466 362
f 346 466 362
f 466 346 723
f 466 346 723
f 466 346 723
f 340 724 725
f 340 724 725
f 340 724 725
f 724 340 343
f 724 340 343
f 724 340 343
f 724 344 469
f 724 344 469
f 724 344 469
f 344 724 343
f 344 724 343
f 344 724 343
f 724 468 725
f 724 468 725
f 724 468 725
f 468 724 469
f 468 724 469
f 468 724 469
f 340 468 363
f 340 468 363
f 340 468 363
f 468 340 725
f 468 340 725
f 468 340 725
f 334 726 727
f 334 726 727
f 334 726 727
f 726 334 339
f 726 334 339
f 726 334 339
f 726 341 699
f 726 341 699
f 726 341 699
f 341 726 339
f 341 726 339
f 341 726 339
f 726 698 727
f 726 698 727
f 726 698 727
f 698 726 699
f 698 726 699
f 698 726 699
f 334 698 364
f 334 698 364
f 334 698 364
f 698 334 727
f 698 334 727
f 698 334 727
f 330 728 729
f 330 728 729
f 330 728 729
f 728 330 333
f 728 330 333
f 728 330 333
f 728 335 471
f 728 335 471
f 728 335 471
f 335 728 333
f 335 728 333
f 335 728 333
f 728 470 729
f 728 470 729
f 728 470 729
f 470 728 471
f 470 728 471
f 470 728 471
f 330 470 365
f 330 470 365
f 330 470 365
f 470 330 729
f 470 330 729
f 470 330 729
f 326 730 731
f 326 730 731
f 326 730 731
f 730 326 329
f 730 326 329
f 730 326 329
f 730 331 473
f 730 331 473
f 730 331 473
f 331 730 329
f 331 730 329
f 331 730 329
f 730 472 731
f 730 472 731
f 730 472 731
f 472 730 473
f 472 730 473
f 472 730 473
f 326 472 366
f 326 472 366
f 326 472 366
f 472 326 731
f 472 326 731
f 472 326 731
f 322 732 733
f 322 732 733
f 322 732 733
f 732 322 325
f 732 322 325
f 732 322 325
f 732 327 475
f 732 327 475
f 732 327 475
f 327 732 325
f 327 732 325
f 327 732 325
f 732 474 733
f 732 474 733
f 732 474 733
f 474 732 475
f 474 732 475
f 474 732 475
f 322 474 367
f 322 474 367
f 322 474 367
f 474 322 733
f 474 322 733
f 474 322 733
f 318 734 735
f 318 734 735
f 318 734 735
f 734 318 180
f 734 318 180
f 734 318 180
f 734 179 477
f 734 179 477
f 734 179 477
f 179 734 180
f 179 734 180
f 179 734 180
f 735 477 476
f 735 477 476
f 735 477 476
f 477 735 734
f 477 735 734
f 477 735 734
f 318 476 321
f 318 476 321
f 318 476 321
f 476 318 735
f 476 318 735
f 476 318 735
f 312 736 737
f 312 736 737
f 312 736 737
f 736 312 317
f 736 312 317
f 736 312 317
f 736 319 701
f 736 319 701
f 736 319 701
f 319 736 317
f 319 736 317
f 319 736 317
f 736 700 737
f 736 700 737
f 736 700 737
f 700 736 701
f 700 736 701
f 700 736 701
f 312 700 368
f 312 700 368
f 312 700 368
f 700 312 737
f 700 312 737
f 700 312 737
f 308 738 739
f 308 738 739
f 308 738 739
f 738 308 311
f 738 308 311
f 738 308 311
f 738 313 479
f 738 313 479
f 738 313 479
f 313 738 311
f 313 738 311
f 313 738 311
f 738 478 739
f 738 478 739
f 738 478 739
f 478 738 479
f 478 738 479
f 478 738 479
f 308 478 369
f 308 478 369
f 308 478 369
f 478 308 739
f 478 308 739
f 478 308 739
f 304 740 741
f 304 740 741
f 304 740 741
f 740 304 307
f 740 304 307
f 740 304 307
f 740 309 703
f 740 309 703
f 740 309 703
f 309 740 307
f 309 740 307
f 309 740 307
f 740 702 741
f 740 702 741
f 740 702 741
f 702 740 703
f 702 740 703
f 702 740 703
f 304 702 370
f 304 702 370
f 304 702 370
f 702 304 741
f 702 304 741
f 702 304 741
f 298 742 743
f 298 742 743
f 298 742 743
f 742 298 303
f 742 298 303
f 742 298 303
f 742 305 481
f 742 305 481
f 742 305 481
f 305 742 303
f 305 742 303
f 305 742 303
f 742 480 743
f 742 480 743
f 742 480 743
f 480 742 481
f 480 742 481
f 480 742 481
f 298 480 371
f 298 480 371
f 298 480 371
f 480 298 743
f 480 298 743
f 480 298 743
f 294 744 745
f 294 744 745
f 294 744 745
f 744 294 297
f 744 294 297
f 744 294 297
f 744 299 483
f 744 299 483
f 744 299 483
f 299 744 297
f 299 744 297
f 299 744 297
f 744 482 745
f 744 482 745
f 744 482 745
f 482 744 483
f 482 744 483
f 482 744 483
f 294 482 372
f 294 482 372
f 294 482 372
f 482 294 745
f 482 294 745
f 482 294 745
f 288 746 747
f 288 746 747
f 288 746 747
f 746 288 293
f 746 288 293
f 746 288 293
f 746 295 485
f 746 295 485
f 746 295 485
f 295 746 293
f 295 746 293
f 295 746 293
f 746 484 747
f 746 484 747
f 746 484 747
f 484 746 485
f 484 746 485
f 484 746 485
f 288 484 373
f 288 484 373
f 288 484 373
f 484 288 747
f 484 288 747
f 484 288 747
f 284 748 749
f 284 748 749
f 284 748 749
f 748 284 287
f 748 284 287
f 748 284 287
f 748 289 487
f 748 289 487
f 748 289 487
f 289 748 287
f 289 748 287
f 289 748 287
f 748 486 749
f 748 486 749
f 748 486 749
f 486 748 487
f 486 748 487
f 486 748 487
f 284 486 374
f 284 486 374
f 284 486 374
f 486 284 749
f 486 284 749
f 486 284 749
f 278 750 751
f 278 750 751
f 278 750 751
f 750 278 283
f 750 278 283
f 750 278 283
f 750 285 489
f 750 285 489
f 750 285 489
f 285 750 283
f 285 750 283
f 285 750 283
f 750 488 751
f 750 488 751
f 750 488 751
f 488 750 489
f 488 750 489
f 488 750 489
f 278 488 375
f 278 488 375
f 278 488 375
f 488 278 751
f 488 278 751
f 488 278 751
f 274 752 753
f 274 752 753
f 274 752 753
f 752 274 277
f 752 274 277
f 752 274 277
f 752 279 492
f 752 279 492
f 752 279 492
f 279 752 277
f 279 752 277
f 279 752 277
f 752 490 753
f 752 490 753
f 752 490 753
f 490 752 492
f 490 752 492
f 490 752 492
f 274 490 376
f 274 490 376
f 274 490 376
f 490 274 753
f 490 274 753
f 490 274 753
f 270 754 755
f 270 754 755
f 270 754 755
f 754 270 273
f 754 270 273
f 754 270 273
f 754 275 705
f 754 275 705
f 754 275 705
f 275 754 273
f 275 754 273
f 275 754 273
f 754 704 755
f 754 704 755
f 754 704 755
f 704 754 705
f 704 754 705
f 704 754 705
f 270 704 377
f 270 704 377
f 270 704 377
f 704 270 755
f 704 270 755
f 704 270 755
f 264 756 757
f 264 756 757
f 264 756 757
f 756 264 269
f 756 264 269
f 756 264 269
f 756 271 494
f 756 271 494
f 756 271 494
f 271 756 269
f 271 756 269
f 271 756 269
f 756 493 757
f 756 493 757
f 756 493 757
f 493 756 494
f 493 756 494
f 493 756 494
f 264 493 378
f 264 493 378
f 264 493 378
f 493 264 757
f 493 264 757
f 493 264 757
f 260 758 759
f 260 758 759
f 260 758 759
f 758 260 263
f 758 260 263
f 758 260 263
f 758 265 707
f 758 265 707
f 758 265 707
f 265 758 263
f 265 758 263
f 265 758 263
f 758 706 759
f 758 706 759
f 758 706 759
f 706 758 707
f 706 758 707
f 706 758 707
f 260 706 379
f 260 706 379
f 260 706 379
f 706 260 759
f 706 260 759
f 706 260 759
f 254 760 761
f 254 760 761
f 254 760 761
f 760 254 259
f 760 254 259
f 760 254 259
f 760 261 496
f 760 261 496
f 760 261 496
f 261 760 259
f 261 760 259
f 261 760 259
f 760 495 761
f 760 495 761
f 760 495 761
f 495 760 496
f 495 760 496
f 495 760 496
f 254 495 380
f 254 495 380
f 254 495 380
f 495 254 761
f 495 254 761
f 495 254 761
f 250 762 763
f 250 762 763
f 250 762 763
f 762 250 253
f 762 250 253
f 762 250 253
f 762 255 709
f 762 255 709
f 762 255 709
f 255 762 253
f 255 762 253
f 255 762 253
f 762 708 763
f 762 708 763
f 762 708 763
f 708 762 709
f 708 762 709
f 708 762 709
f 250 708 381
f 250 708 381
f 250 708 381
f 708 250 763
f 708 250 763
f 708 250 763
f 246 764 765
f 246 764 765
f 246 764 765
f 764 246 249
f 764 246 249
f 764 246 249
f 764 251 498
f 764 251 498
f 764 251 498
f 251 764 249
f 251 764 249
f 251 764 249
f 764 497 765
f 764 497 765
f 764 497 765
f 497 764 498
f 497 764 498
f 497 764 498
f 246 497 382
f 246 497 382
f 246 497 382
f 497 246 765
f 497 246 765
f 497 246 765
f 240 766 767
f 240 766 767
f 240 766 767
f 766 240 245
f 766 240 245
f 766 240 245
f 766 247 500
f 766 247 500
f 766 247 500
f 247 766 245
f 247 766 245
f 247 766 245
f 766 499 767
f 766 499 767
f 766 499 767
f 499 766 500
f 499 766 500
f 499 766 500
f 240 499 383
f 240 499 383
f 240 499 383
f 499 240 767
f 499 240 767
f 499 240 767
f 236 768 769
f 236 768 769
f 236 768 769
f 768 236 239
f 768 236 239
f 768 236 239
f 768 241 502
f 768 241 502
f 768 241 502
f 241 768 239
f 241 768 239
f 241 768 239
f 768 501 769
f 768 501 769
f 768 501 769
f 501 768 502
f 501 768 502
f 501 768 502
f 236 501 384
f 236 501 384
f 236 501 384
f 501 236 769
f 501 236 769
f 501 236 769
f 230 770 771
f 230 770 771
f 230 770 771
f 770 230 235
f 770 230 235
f 770 230 235
f 770 237 711
f 770 237 711
f 770 237 711
f 237 770 235
f 237 770 235
f 237 770 235
f 770 710 771
f 770 710 771
f 770 710 771
f 710 770 711
f 710 770 711
f 710 770 711
f 230 710 385
f 230 710 385
f 230 710 385
f 710 230 771
f 710 230 771
f 710 230 771
f 226 772 773
f 226 772 773
f 226 772 773
f 772 226 229
f 772 226 229
f 772 226 229
f 772 231 504
f 772 231 504
f 772 231 504
f 231 772 229
f 231 772 229
f 231 772 229
f 772 503 773
f 772 503 773
f 772 503 773
f 503 772 504
f 503 772 504
f 503 772 504
f 226 503 386
f 226 503 386
f 226 503 386
f 503 226 773
f 503 226 773
f 503 226 773
f 222 774 775
f 222 774 775
f 222 774 775
f 774 222 225
f 774 222 225
f 774 222 225
f 774 227 713
f 774 227 713
f 774 227 713
f 227 774 225
f 227 774 225
f 227 774 225
f 774 712 775
f 774 712 775
f 774 712 775
f 712 774 713
f 712 774 713
f 712 774 713
f 222 712 387
f 222 712 387
f 222 712 387
f 712 222 775
f 712 222 775
f 712 222 775
f 216 776 777
f 216 776 777
f 216 776 777
f 776 216 221
f 776 216 221
f 776 216 221
f 776 223 507
f 776 223 507
f 776 223 507
f 223 776 221
f 223 776 221
f 223 776 221
f 776 506 777
f 776 506 777
f 776 506 777
f 506 776 507
f 506 776 507
f 506 776 507
f 216 506 388
f 216 506 388
f 216 506 388
f 506 216 777
f 506 216 777
f 506 216 777
f 212 778 779
f 212 778 779
f 212 778 779
f 778 212 215
f 778 212 215
f 778 212 215
f 778 217 715
f 778 217 715
f 778 217 715
f 217 778 215
f 217 778 215
f 217 778 215
f 778 714 779
f 778 714 779
f 778 714 779
f 714 778 715
f 714 778 715
f 714 778 715
f 212 714 389
f 212 714 389
f 212 714 389
f 714 212 779
f 714 212 779
f 714 212 779
f 208 780 781
f 208 780 781
f 208 780 781
f 780 208 211
f 780 208 211
f 780 208 211
f 780 213 509
f 780 213 509
f 780 213 509
f 213 780 211
f 213 780 211
f 213 780 211
f 780 508 781
f 780 508 781
f 780 508 781
f 508 780 509
f 508 780 509
f 508 780 509
f 208 508 390
f 208 508 390
f 208 508 390
f 508 208 781
f 508 208 781
f 508 208 781
f 202 782 783
f 202 782 783
f 202 782 783
f 782 202 207
f 782 202 207
f 782 202 207
f 782 209 511
f 782 209 511
f 782 209 511
f 209 782 207
f 209 782 207
f 209 782 207
f 782 510 783
f 782 510 783
f 782 510 783
f 510 782 511
f 510 782 511
f 510 782 511
f 202 510 391
f 202 510 391
f 202 510 391
f 510 202 783
f 510 202 783
f 510 202 783
f 198 784 785
f 198 784 785
f 198 784 785
f 784 198 201
f 784 198 201
f 784 198 201
f 784 203 513
f 784 203 513
f 784 203 513
f 203 784 201
f 203 784 201
f 203 784 201
f 784 512 785
f 784 512 785
f 784 512 785
f 512 784 513
f 512 784 513
f 512 784 513
f 198 512 392
f 198 512 392
f 198 512 392
f 512 198 785
f 512 198 785
f 512 198 785
f 193 786 787
f 193 786 787
f 193 786 787
f 786 193 197
f 786 193 197
f 786 193 197
f 786 199 515
f 786 199 515
f 786 199 515
f 199 786 197
f 199 786 197
f 199 786 197
f 786 514 787
f 786 514 787
f 786 514 787
f 514 786 515
f 514 786 515
f 514 786 515
f 193 514 393
f 193 514 393
f 193 514 393
f 514 193 787
f 514 193 787
f 514 193 787
f 189 788 789
f 189 788 789
f 189 788 789
f 788 189 192
f 788 189 192
f 788 189 192
f 788 194 517
f 788 194 517
f 788 194 517
f 194 788 192
f 194 788 192
f 194 788 192
f 788 516 789
f 788 516 789
f 788 516 789
f 516 788 517
f 516 788 517
f 516 788 517
f 189 516 394
f 189 516 394
f 189 516 394
f 516 189 789
f 516 189 789
f 516 189 789
f 185 790 791
f 185 790 791
f 185 790 791
f 790 185 188
f 790 185 188
f 790 185 188
f 790 190 717
f 790 190 717
f 790 190 717
f 190 790 188
f 190 790 188
f 190 790 188
f 790 716 791
f 790 716 791
f 790 716 791
f 716 790 717
f 716 790 717
f 716 790 717
f 185 716 395
f 185 716 395
f 185 716 395
f 716 185 791
f 716 185 791
f 716 185 791
f 181 792 793
f 181 792 793
f 181 792 793
f 792 181 184
f 792 181 184
f 792 181 184
f 792 186 519
f 792 186 519
f 792 186 519
f 186 792 184
f 186 792 184
f 186 792 184
f 792 518 793
f 792 518 793
f 792 518 793
f 518 792 519
f 518 792 519
f 518 792 519
f 181 518 396
f 181 518 396
f 181 518 396
f 518 181 793
f 518 181 793
f 518 181 793
