# Original shape: D00526.obj
# No processing applied - exact copy of source file
# Generated on 2025-10-03 23:53:25

v -0.080996 -0.255343 0.083164
v -0.103377 -0.255472 0.096021
v -0.083525 -0.233676 0.090212
v -0.120700 -0.236216 0.096908
v -0.052617 -0.226830 0.057921
v -0.050820 -0.254620 0.050717
v -0.130887 -0.206437 0.098109
v -0.083513 -0.204322 0.095886
v -0.024595 -0.268299 -0.008841
v -0.025676 -0.215985 0.000573
v -0.071552 0.310813 0.150607
v -0.046968 0.345706 0.099312
v -0.071098 0.282094 0.147420
v -0.044375 0.293398 0.090613
v -0.222008 -0.404793 -0.015393
v -0.226782 -0.278467 0.007248
v -0.184088 -0.407808 0.011822
v -0.188694 -0.281805 0.034051
v -0.252988 -0.400374 -0.044955
v -0.257616 -0.274383 -0.022678
v -0.291331 -0.396612 -0.073889
v -0.295947 -0.270601 -0.051637
v -0.048467 -0.400851 0.000347
v -0.053091 -0.274838 0.022618
v -0.019973 -0.394322 -0.031107
v -0.087949 -0.405854 0.020207
v -0.092451 -0.280092 0.042175
v -0.135489 -0.408427 0.024033
v -0.140184 -0.282314 0.046476
v 0.143879 -0.288441 -0.412001
v -0.004043 -0.355326 -0.063832
v 0.147825 -0.229888 -0.398927
v -0.006186 -0.296537 -0.053475
v 0.132870 -0.317457 -0.422631
v -0.002965 -0.384735 -0.069025
v -0.021170 -0.362737 -0.025439
v 0.162787 -0.134399 -0.421385
v -0.372808 -0.393015 -0.111527
v -0.383744 -0.358061 -0.066102
v -0.331401 -0.393268 -0.101233
v -0.342339 -0.358304 -0.055802
v -0.391559 -0.277590 -0.032121
v -0.350121 -0.277900 -0.021900
v -0.268813 -0.153370 0.026254
v -0.213700 -0.155786 0.052213
v -0.270990 -0.172771 0.021758
v -0.216853 -0.187870 0.042798
v -0.193106 -0.197973 0.066787
v -0.190272 -0.160512 0.082105
v -0.278741 -0.190953 0.015424
v -0.228807 -0.217106 0.028128
v -0.205269 -0.231434 0.040356
v -0.260927 -0.241231 0.005676
v -0.250849 -0.258623 -0.000037
v -0.355473 -0.152368 0.003273
v -0.372637 0.336370 0.086602
v -0.318435 0.343604 0.056797
v -0.368723 0.209843 0.067193
v -0.294888 0.246933 0.092992
v -0.309045 0.262891 0.091343
v -0.282133 0.208866 0.090335
v -0.285713 0.228515 0.092674
v -0.215724 0.458292 0.164555
v -0.167172 0.457699 0.176878
v -0.211159 0.332396 0.142430
v -0.162559 0.331680 0.154631
v -0.119563 0.460157 0.172883
v -0.114949 0.334128 0.150634
v -0.080174 0.465326 0.153250
v -0.075611 0.339410 0.131127
v -0.051732 0.471990 0.121927
v -0.323057 0.469609 0.079062
v -0.284608 0.465648 0.107736
v -0.279988 0.339626 0.085474
v -0.253799 0.461607 0.137721
v -0.249139 0.335491 0.115360
v -0.702042 -0.109223 -0.069320
v -0.712326 0.169194 -0.019959
v -0.562547 -0.151288 -0.047935
v -0.575877 0.211095 0.016182
v -0.713873 0.211301 -0.012557
v -0.700622 -0.150936 -0.076481
v -0.270433 -0.111318 0.033902
v -0.280529 0.166821 0.082806
v -0.579872 0.337743 0.035788
v -0.538254 0.337220 0.045480
v -0.414068 0.336670 0.076365
v -0.515903 -0.276719 -0.062615
v -0.557377 -0.276480 -0.072664
v -0.528898 0.474121 0.010978
v -0.536724 0.425038 0.041492
v -0.570350 0.474356 0.000879
v -0.578194 0.425260 0.031431
v -0.404558 0.473275 0.041484
v -0.412404 0.424182 0.072042
v -0.872375 0.152720 0.040626
v -0.873903 0.194720 0.047975
v -0.811323 0.164044 -0.010769
v -0.812845 0.206069 -0.003430
v -0.710258 0.243998 -0.006280
v -0.805559 0.261505 0.001968
v -0.862286 0.263372 0.042858
v -0.697313 0.274540 0.000886
v -0.781191 0.314167 0.002777
v -0.827633 0.331153 0.021630
v -0.676098 0.300857 0.009045
v -0.743360 0.360201 0.006185
v -0.777369 0.389180 0.006532
v -0.648056 0.320981 0.017767
v -0.694370 0.395193 0.011727
v -0.715120 0.434195 -0.001108
v -0.615266 0.333610 0.026938
v -0.637975 0.417795 0.019861
v -0.643791 0.463954 -0.006039
v -0.370943 0.423828 0.082206
v -0.363142 0.472979 0.051755
v -0.272089 0.317546 0.102011
v -0.280714 0.299011 0.101066
v -0.246682 0.270960 0.114306
v -0.224079 0.281862 0.131013
v -0.232351 0.239116 0.117872
v -0.209217 0.242361 0.144499
v -0.226947 0.206235 0.116109
v -0.203524 0.201539 0.146014
v -0.225468 0.164388 0.108886
v -0.226988 0.206406 0.116217
v -0.202119 0.159821 0.138972
v -0.203679 0.201923 0.146403
v -0.191835 -0.118599 0.089612
v -0.215288 -0.113845 0.059780
v -0.190369 -0.160405 0.082337
v -0.213660 -0.155957 0.052107
v -0.626841 -0.259462 -0.084624
v -0.593084 -0.272046 -0.080002
v -0.679449 -0.213664 -0.085279
v -0.656324 -0.239550 -0.086334
v -0.694554 -0.183537 -0.081875
v -0.609857 -0.350126 -0.115714
v -0.549541 -0.357017 -0.106701
v -0.538659 -0.391879 -0.151992
v -0.612703 -0.385057 -0.155932
v -0.667916 -0.330555 -0.116129
v -0.686008 -0.364208 -0.141787
v -0.719222 -0.299013 -0.110199
v -0.751194 -0.329123 -0.119995
v -0.760340 -0.257817 -0.097993
v -0.805159 -0.283038 -0.086769
v -0.788313 -0.209434 -0.081179
v -0.844256 -0.229296 -0.044101
v -0.799563 -0.156195 -0.067426
v -0.860632 -0.167518 -0.015995
v -0.801099 -0.114259 -0.059979
v -0.862212 -0.125498 -0.008439
v -0.508109 -0.357174 -0.096547
v -0.497178 -0.392110 -0.141960
v -0.053491 -0.197537 0.063048
v -0.070039 0.253011 0.142708
v -0.025673 -0.215985 0.000575
v -0.052588 -0.226831 0.057934
v 0.202334 -0.118938 -0.500295
v 0.201333 -0.089613 -0.495203
v 0.183684 0.390298 -0.410382
v 0.184791 0.360906 -0.415560
v 0.144259 0.374591 -0.331773
v -0.031277 0.389025 0.067535
v 0.139959 0.463146 -0.316201
v 0.122765 0.455639 -0.277990
v 0.165117 -0.222530 -0.437372
v -0.034502 0.477241 0.083099
v -0.033430 0.447840 0.077918
v -0.050585 0.440501 0.116381
v 0.101244 0.544676 -0.270291
v 0.114456 0.514780 -0.270164
v -0.147318 0.243954 0.177486
v -0.139306 0.272937 0.186714
v -0.099999 0.246112 0.175394
v -0.102187 0.275551 0.180151
v -0.101264 0.298453 0.180914
v -0.123467 0.292586 0.192833
v 0.159376 0.459018 -0.358224
v 0.149719 0.464080 -0.337522
v 0.175859 0.432323 -0.392516
v 0.168337 0.448117 -0.377024
v 0.181196 0.412617 -0.403793
v 0.149125 0.523581 -0.343743
v 0.131733 0.522124 -0.308579
v 0.118484 0.552096 -0.308612
v 0.141604 0.553907 -0.349602
v 0.167977 0.515202 -0.376737
v 0.169559 0.543400 -0.387188
v 0.187564 0.496708 -0.406281
v 0.200246 0.521099 -0.419233
v 0.207068 0.470260 -0.428789
v 0.236416 0.488681 -0.440827
v 0.224110 0.437016 -0.444147
v 0.259477 0.448632 -0.458213
v 0.232093 0.399680 -0.453440
v 0.273078 0.403678 -0.467572
v 0.233192 0.370269 -0.458602
v 0.274284 0.374082 -0.472994
v 0.290729 -0.076250 -0.552398
v 0.249691 -0.080176 -0.538140
v 0.150105 -0.309994 -0.460939
v 0.161160 -0.281091 -0.450423
v 0.291727 -0.105563 -0.557483
v 0.250743 -0.109568 -0.543354
v 0.201539 -0.142317 -0.501820
v 0.245696 -0.148552 -0.547861
v 0.281601 -0.152175 -0.564571
v 0.197723 -0.165091 -0.497963
v 0.231106 -0.185979 -0.544669
v 0.261598 -0.197042 -0.562059
v 0.191507 -0.185749 -0.488844
v 0.213694 -0.220129 -0.532569
v 0.227988 -0.237513 -0.553086
v 0.183752 -0.203230 -0.475434
v 0.195958 -0.248671 -0.511623
v 0.199400 -0.271358 -0.531051
v 0.174730 -0.215775 -0.457819
v 0.178090 -0.269397 -0.483582
v 0.172722 -0.296079 -0.499655
v -0.083315 -0.233685 0.090304
v 0.159982 0.373413 -0.319590
v -0.033249 0.289932 0.113061
v 0.178782 -0.136106 -0.409873
v -0.014591 -0.219323 0.023136
v -0.073627 -0.208602 0.120142
v -0.073598 -0.237657 0.114914
v -0.043039 -0.201243 0.086943
v -0.041974 -0.230846 0.081423
v -0.138663 0.239696 0.201912
v -0.122269 -0.210502 0.122638
v -0.090265 0.242143 0.200028
v -0.059533 0.249197 0.166471
v 0.199934 -0.204242 -0.464277
v 0.190691 -0.216882 -0.446213
v 0.180974 -0.224070 -0.425590
v 0.214575 -0.166456 -0.488224
v 0.208087 -0.186999 -0.478551
v 0.219209 -0.120049 -0.490488
v 0.218524 -0.143656 -0.492314
v 0.194197 -0.270705 -0.472655
v 0.176825 -0.282521 -0.438609
v 0.165509 -0.311509 -0.449364
v 0.188693 -0.297346 -0.489060
v 0.212677 -0.250068 -0.501831
v 0.216208 -0.272759 -0.521700
v 0.230780 -0.221195 -0.523163
v 0.245382 -0.238452 -0.544028
v 0.248598 -0.186898 -0.535562
v 0.279930 -0.198066 -0.553549
v 0.263614 -0.149484 -0.539063
v 0.300434 -0.152995 -0.556211
v 0.268872 -0.110497 -0.534729
v 0.310838 -0.106342 -0.549108
v 0.267769 -0.081038 -0.529388
v 0.218166 -0.090640 -0.485289
v 0.309841 -0.077029 -0.544023
v 0.159150 -0.290112 -0.399318
v 0.163252 -0.231574 -0.386184
v 0.147790 -0.319007 -0.409963
v 0.251277 0.369392 -0.449867
v 0.201835 0.359467 -0.406164
v 0.293396 0.373303 -0.464618
v 0.116251 0.542987 -0.257834
v 0.129734 0.513101 -0.257498
v 0.133890 0.550600 -0.297041
v 0.147457 0.520640 -0.296903
v 0.138199 0.453973 -0.265264
v 0.155859 0.461562 -0.304521
v 0.292189 0.402899 -0.459197
v 0.250323 0.398491 -0.445069
v 0.200579 0.389176 -0.400620
v 0.198044 0.411456 -0.393957
v 0.242044 0.436112 -0.435384
v 0.278273 0.447879 -0.449763
v 0.192571 0.431188 -0.382435
v 0.224562 0.469350 -0.419688
v 0.254699 0.487801 -0.432191
v 0.184999 0.446701 -0.366935
v 0.204513 0.495913 -0.396537
v 0.217568 0.520273 -0.410001
v 0.175839 0.457498 -0.347758
v 0.184556 0.514045 -0.366603
v 0.186229 0.542294 -0.377493
v 0.165825 0.462682 -0.326274
v 0.165142 0.522492 -0.332591
v 0.157576 0.552623 -0.339011
v -0.091506 0.294515 0.205438
v -0.114220 0.288531 0.217558
v -0.092455 0.271595 0.204716
v -0.130517 0.268927 0.211479
v -0.060762 0.278605 0.171590
v -0.061049 0.307011 0.174353
v -0.021880 0.444548 0.099362
v -0.019654 0.385673 0.088806
v -0.022898 0.473847 0.104410
v -0.039420 0.436953 0.138679
v -0.035829 0.342186 0.121672
v -0.040563 0.468426 0.144215
v -0.497796 -0.395902 -0.122796
v -0.509079 -0.360881 -0.076143
v -0.540466 -0.395338 -0.132702
v -0.551540 -0.360703 -0.086563
v -0.516999 -0.280550 -0.041717
v -0.559514 -0.280254 -0.052002
v -0.370360 -0.396730 -0.091495
v -0.381630 -0.361753 -0.044875
v -0.389431 -0.281648 -0.010743
v -0.365727 0.206056 0.089269
v -0.578146 0.207463 0.037189
v -0.352444 -0.156184 0.025271
v -0.564877 -0.154779 -0.026775
v -0.871695 -0.129929 0.012787
v -0.870250 -0.171707 0.005561
v -0.809089 -0.118339 -0.039955
v -0.807682 -0.160053 -0.047088
v -0.707793 -0.112713 -0.048943
v -0.706238 -0.154693 -0.056438
v -0.882040 0.148564 0.062293
v -0.819285 0.159900 0.009188
v -0.717994 0.165527 0.000209
v -0.700112 -0.187213 -0.061669
v -0.796189 -0.213296 -0.060974
v -0.853523 -0.233427 -0.022964
v -0.684593 -0.217451 -0.065183
v -0.767605 -0.261573 -0.077884
v -0.813459 -0.287061 -0.066541
v -0.660904 -0.243324 -0.066169
v -0.725415 -0.302806 -0.090402
v -0.758275 -0.332838 -0.100166
v -0.630581 -0.263492 -0.064628
v -0.672757 -0.334515 -0.096581
v -0.691476 -0.367831 -0.122374
v -0.596137 -0.275779 -0.059479
v -0.613402 -0.353792 -0.095730
v -0.616342 -0.388643 -0.136812
v -0.208733 -0.117729 0.083046
v -0.265141 -0.115339 0.056237
v -0.207023 -0.160021 0.075168
v -0.263666 -0.157136 0.048942
v -0.184828 -0.122340 0.113953
v -0.183232 -0.164386 0.106357
v -0.218915 0.160472 0.132150
v -0.275430 0.163065 0.105606
v -0.195037 0.155915 0.163127
v -0.402205 0.469757 0.061751
v -0.410299 0.420530 0.093294
v -0.359751 0.469454 0.072274
v -0.367841 0.420237 0.103807
v -0.412076 0.332882 0.098078
v -0.369617 0.332592 0.108592
v -0.196512 0.197882 0.170350
v -0.220429 0.202511 0.139472
v -0.276813 0.204847 0.112605
v -0.276963 0.205044 0.112966
v -0.220433 0.202461 0.139476
v -0.280616 0.224700 0.115280
v -0.226059 0.235524 0.141420
v -0.202062 0.238133 0.168000
v -0.196533 0.197828 0.170394
v -0.289996 0.243119 0.115509
v -0.240589 0.267131 0.137307
v -0.217388 0.277978 0.154327
v -0.304509 0.259114 0.113791
v -0.275399 0.295208 0.123509
v -0.266584 0.313794 0.124496
v -0.329662 0.271670 0.107289
v -0.327610 0.316882 0.106810
v -0.314000 0.340016 0.077906
v -0.316840 0.416907 0.091535
v -0.318622 0.466044 0.100171
v -0.651967 0.317258 0.038179
v -0.618319 0.329866 0.047460
v -0.581979 0.333882 0.056371
v -0.702487 0.270803 0.021055
v -0.680706 0.297111 0.029275
v -0.719511 0.207549 0.007537
v -0.715766 0.240251 0.013805
v -0.641536 0.414138 0.039882
v -0.580150 0.421412 0.051456
v -0.572167 0.470878 0.020188
v -0.647483 0.460501 0.013214
v -0.699448 0.391702 0.031861
v -0.720721 0.430859 0.018635
v -0.749577 0.356466 0.026042
v -0.784596 0.385771 0.026724
v -0.788542 0.310623 0.023104
v -0.835976 0.327209 0.041966
v -0.813434 0.257642 0.022172
v -0.871606 0.259332 0.064124
v -0.820912 0.202106 0.016781
v -0.883464 0.190416 0.069392
v -0.537740 0.421375 0.062005
v -0.539380 0.333467 0.066454
v -0.529640 0.470607 0.030449
v -0.247767 0.457907 0.160612
v -0.243184 0.331977 0.138442
v -0.208744 0.454545 0.188129
v -0.204118 0.328532 0.165852
v -0.279427 0.462224 0.130076
v -0.274707 0.336038 0.107571
v -0.069780 0.461701 0.176476
v -0.065162 0.335707 0.154221
v -0.110260 0.456611 0.196862
v -0.105633 0.330609 0.174586
v -0.159049 0.454084 0.200932
v -0.154374 0.327949 0.178533
v -0.346975 -0.281942 -0.000225
v -0.291529 -0.274169 -0.030487
v -0.311633 -0.221297 0.020303
v -0.273964 -0.194548 0.038225
v -0.287313 -0.209916 0.030933
v -0.265937 -0.176501 0.044475
v -0.288702 -0.351025 -0.044086
v -0.339177 -0.362023 -0.034349
v -0.327897 -0.397040 -0.080993
v -0.286760 -0.400471 -0.053116
v -0.255636 -0.245030 0.028171
v -0.245432 -0.262222 0.022663
v -0.222713 -0.220932 0.051129
v -0.198579 -0.235334 0.063672
v -0.210370 -0.191817 0.065881
v -0.186080 -0.201943 0.090604
v -0.207137 -0.159680 0.075459
v -0.183291 -0.164220 0.106507
v -0.263665 -0.157116 0.048941
v -0.013476 -0.271773 0.013569
v 0.005510 -0.300090 -0.032389
v -0.014594 -0.219323 0.023134
v 0.008619 -0.388079 -0.047665
v 0.007541 -0.358684 -0.042471
v -0.008803 -0.397878 -0.008820
v -0.010002 -0.366297 -0.003148
v -0.177034 -0.411666 0.035216
v -0.127346 -0.412105 0.048037
v -0.181645 -0.285669 0.057453
v -0.131856 -0.286314 0.070027
v -0.078394 -0.409891 0.043565
v -0.083146 -0.283619 0.066152
v -0.037897 -0.404843 0.023137
v -0.042657 -0.278537 0.045747
v -0.247674 -0.404011 -0.022939
v -0.252250 -0.278122 -0.000788
v -0.216059 -0.408265 0.007706
v -0.220685 -0.282271 0.029979
v -0.040382 -0.258315 0.074620
v -0.042004 -0.230845 0.081410
v -0.111869 -0.240318 0.121568
v -0.073813 -0.237649 0.114820
v -0.071140 -0.259458 0.107449
v -0.094140 -0.259557 0.120767
v -0.284168 0.566351 -0.230437
v -0.267013 0.573713 -0.268897
v -0.017333 0.484599 0.044604
v -0.268659 0.511959 -0.281523
v -0.270981 0.574959 -0.270367
v -0.207758 0.545989 -0.353700
v -0.201837 0.591357 -0.350894
v -0.211038 0.635094 -0.337929
v -0.273219 0.637842 -0.259411
v -0.385938 0.479956 -0.016880
v -0.369438 0.532392 -0.049656
v -0.367131 0.469399 -0.060778
v -0.390679 0.522858 -0.002071
v -0.389234 0.569095 -0.001069
v -0.371714 0.595348 -0.038606
v -0.337100 -0.350642 -0.205565
v -0.238614 -0.308114 -0.426346
v -0.332477 -0.476641 -0.227832
v -0.233983 -0.434099 -0.448631
v -0.334801 -0.413625 -0.216669
v -0.354557 -0.376977 -0.168179
v -0.356181 -0.422901 -0.168743
v -0.351316 -0.466033 -0.183857
v -0.176384 -0.310962 -0.504985
v -0.236323 -0.371053 -0.437429
v -0.167325 -0.354406 -0.517599
v -0.173135 -0.400037 -0.520682
v -0.284497 0.576765 -0.228718
v -0.034913 0.487797 0.085017
v -0.267265 0.583995 -0.267366
v -0.017781 0.495171 0.046610
v -0.335027 -0.377773 -0.159620
v -0.317570 -0.351438 -0.197007
v -0.336651 -0.423697 -0.160185
v -0.331786 -0.466828 -0.175298
v -0.312947 -0.477437 -0.219274
v -0.214453 -0.434895 -0.440072
v -0.153605 -0.400833 -0.512123
v -0.147795 -0.355202 -0.509040
v -0.156854 -0.311758 -0.496426
v -0.219084 -0.308910 -0.417787
v -0.253689 0.637046 -0.250852
v -0.191508 0.634298 -0.329370
v -0.352184 0.594552 -0.030048
v -0.369704 0.568300 0.007490
v -0.188228 0.545193 -0.345142
v -0.249129 0.511163 -0.272964
v -0.347601 0.468603 -0.052219
v -0.182307 0.590561 -0.342335
v -0.371149 0.522062 0.006488
v -0.366408 0.479160 -0.008321
v 0.794144 -0.198009 -0.272430
v 0.809918 -0.209984 -0.291718
v 0.842970 -0.199999 -0.251033
v 0.834542 -0.219271 -0.300091
v 0.861430 -0.223399 -0.295333
v 0.883367 -0.221261 -0.278694
v 0.894486 -0.213431 -0.254658
v 0.891795 -0.201989 -0.229636
v 0.876033 -0.190053 -0.210377
v 0.851394 -0.180742 -0.201968
v 0.824518 -0.176617 -0.206753
v 0.802569 -0.178752 -0.223365
v 0.791465 -0.186607 -0.247438
v 0.800265 -0.148256 -0.263952
v 0.851775 -0.161675 -0.267562
v 0.802950 -0.159685 -0.288959
v 0.811388 -0.140440 -0.239926
v 0.833326 -0.138284 -0.223288
v 0.860214 -0.142430 -0.218530
v 0.884833 -0.151703 -0.226892
v 0.900601 -0.163665 -0.246165
v 0.903358 -0.175165 -0.271345
v 0.892180 -0.182906 -0.295239
v 0.870348 -0.185294 -0.312140
v 0.843355 -0.180916 -0.316636
v 0.818790 -0.171719 -0.308406
v 0.771356 0.428116 -0.162201
v 0.820181 0.426126 -0.140804
v 0.785852 0.447320 -0.175677
v 0.797137 0.417723 -0.204179
v 0.782498 0.398818 -0.190352
v 0.809767 0.460376 -0.180355
v 0.821077 0.430736 -0.208919
v 0.836218 0.464778 -0.173804
v 0.847528 0.435158 -0.202367
v 0.858593 0.458386 -0.158958
v 0.869903 0.428746 -0.187523
v 0.870420 0.443874 -0.138617
v 0.881705 0.414276 -0.167119
v 0.869006 0.424136 -0.119407
v 0.880149 0.394838 -0.147558
v 0.854250 0.405471 -0.105288
v 0.865563 0.375864 -0.133858
v 0.830431 0.392220 -0.100848
v 0.841736 0.362591 -0.129401
v 0.803983 0.387870 -0.107400
v 0.815139 0.358480 -0.135591
v 0.781605 0.394210 -0.122245
v 0.792911 0.364581 -0.150798
v 0.769682 0.408918 -0.142348
v 0.780995 0.379311 -0.170919
v 0.831323 0.396828 -0.168955
v 0.532540 0.487321 0.388261
v 0.581366 0.485331 0.409657
v 0.534877 0.510555 0.402907
v 0.550659 0.530640 0.368762
v 0.548361 0.507373 0.354024
v 0.549615 0.527141 0.419499
v 0.565425 0.547150 0.385283
v 0.572900 0.532451 0.433356
v 0.588848 0.552175 0.398800
v 0.598440 0.525151 0.440896
v 0.614250 0.545160 0.406679
v 0.619445 0.507108 0.439967
v 0.635227 0.527194 0.405822
v 0.630191 0.483341 0.431054
v 0.646012 0.503393 0.396817
v 0.627863 0.460114 0.416389
v 0.643671 0.480142 0.382177
v 0.613066 0.443623 0.399938
v 0.629017 0.463379 0.365379
v 0.589796 0.438308 0.386048
v 0.605585 0.458350 0.351881
v 0.564241 0.445612 0.378542
v 0.580191 0.465369 0.343982
v 0.543295 0.463561 0.379328
v 0.559103 0.483588 0.345117
v 0.597186 0.505383 0.375420
v 0.416770 -0.064332 0.601136
v 0.465596 -0.066322 0.622533
v 0.412659 -0.069306 0.627875
v 0.411076 -0.027233 0.635399
v 0.415252 -0.022355 0.608504
v 0.422643 -0.073337 0.653397
v 0.421178 -0.031488 0.660632
v 0.444189 -0.075568 0.670522
v 0.442651 -0.033583 0.677936
v 0.471468 -0.075326 0.674794
v 0.470003 -0.033478 0.682028
v 0.497227 -0.072753 0.664935
v 0.495644 -0.030680 0.672459
v 0.514421 -0.068311 0.643929
v 0.512903 -0.026335 0.651297
v 0.518599 -0.063454 0.617028
v 0.517067 -0.021480 0.624429
v 0.508694 -0.059582 0.591312
v 0.507039 -0.017344 0.599017
v 0.487134 -0.057333 0.574220
v 0.485513 -0.015110 0.581846
v 0.459869 -0.057593 0.569915
v 0.458213 -0.015354 0.577620
v 0.434031 -0.060008 0.579968
v 0.432499 -0.018033 0.587369
v 0.464078 -0.024345 0.629901
v 0.583906 -0.464230 0.182558
v 0.632732 -0.466220 0.203955
v 0.588056 -0.490881 0.188428
v 0.571372 -0.485108 0.227036
v 0.567173 -0.458328 0.221291
v 0.604177 -0.510936 0.198457
v 0.587420 -0.505009 0.237247
v 0.627943 -0.519012 0.209973
v 0.611206 -0.513114 0.248714
v 0.653002 -0.512925 0.219854
v 0.636245 -0.506999 0.258644
v 0.672624 -0.494328 0.225488
v 0.655940 -0.488554 0.264096
v 0.681557 -0.468209 0.225352
v 0.664823 -0.462308 0.264085
v 0.677422 -0.441551 0.219448
v 0.660685 -0.435630 0.258190
v 0.661327 -0.421583 0.209352
v 0.644559 -0.415611 0.248170
v 0.637672 -0.413735 0.197561
v 0.620788 -0.407534 0.236666
v 0.612502 -0.419594 0.187955
v 0.595734 -0.413622 0.226773
v 0.592854 -0.438105 0.182388
v 0.576117 -0.432183 0.221130
v 0.615998 -0.460318 0.242688
v 0.638307 -0.465121 0.217934
v 0.629949 -0.462171 0.237279
v 0.599247 -0.463529 0.200817
v 0.590889 -0.460579 0.220162
v 0.494891 -0.005416 0.055959
v 0.377710 -0.000641 0.004607
v 0.465331 0.005067 0.124387
v 0.348151 0.009842 0.073034
v 0.475040 -0.056330 0.628510
v 0.474217 -0.035246 0.632350
v 0.435980 -0.054738 0.611392
v 0.435156 -0.033654 0.615232
v 0.462649 0.079096 0.137392
v 0.345468 0.083872 0.086040
v 0.595098 0.489913 0.405346
v 0.603123 0.499701 0.387944
v 0.556038 0.491505 0.388229
v 0.564063 0.501293 0.370827
v 0.490652 0.114138 0.076750
v 0.373471 0.118913 0.025398
v 0.832654 0.418564 -0.143371
v 0.838413 0.403552 -0.157909
v 0.793594 0.420156 -0.160488
v 0.799353 0.405144 -0.175026
v 0.510472 0.062116 0.026686
v 0.393291 0.066891 -0.024666
v 0.815867 -0.189227 -0.267983
v 0.820296 -0.170076 -0.276308
v 0.854927 -0.190819 -0.250865
v 0.859356 -0.171668 -0.259191
v 0.023221 0.097004 -0.055178
v 0.482379 0.078292 0.146039
v 0.051224 0.132046 -0.115820
v 0.510383 0.113334 0.085397
v 0.071043 0.080024 -0.165885
v 0.530202 0.061312 0.035332
v 0.055463 0.012492 -0.136611
v 0.514621 -0.006220 0.064606
v 0.025903 0.022975 -0.068184
v 0.485062 0.004263 0.133033
v -0.249557 -0.378629 -0.397293
v 0.014184 -0.377336 -0.107470
v -0.002585 -0.395213 -0.070868
v -0.249092 -0.389259 -0.399343
v -0.235953 -0.381561 -0.439248
v 0.014702 -0.388143 -0.109657
f 1 2 3
f 4 3 2
f 5 6 3
f 1 3 6
f 7 8 4
f 3 4 8
f 6 5 9
f 10 9 5
f 11 12 13
f 14 13 12
f 15 16 17
f 18 17 16
f 19 20 15
f 16 15 20
f 21 22 19
f 20 19 22
f 23 24 25
f 9 25 24
f 26 27 23
f 24 23 27
f 28 29 26
f 27 26 29
f 17 18 28
f 29 28 18
f 30 31 32
f 33 32 31
f 34 35 30
f 31 30 35
f 31 36 33
f 9 33 36
f 35 25 31
f 36 31 25
f 33 10 32
f 37 32 10
f 9 10 33
f 38 39 40
f 41 40 39
f 39 42 41
f 43 41 42
f 44 45 46
f 47 46 45
f 47 45 48
f 49 48 45
f 46 47 50
f 51 50 47
f 51 47 52
f 48 52 47
f 50 51 53
f 53 51 54
f 52 54 51
f 55 53 22
f 54 22 53
f 41 22 40
f 21 40 22
f 41 43 22
f 43 42 55
f 44 46 55
f 50 55 46
f 50 53 55
f 43 55 22
f 56 57 58
f 59 58 60
f 57 60 58
f 61 58 62
f 59 62 58
f 63 64 65
f 66 65 64
f 64 67 66
f 68 66 67
f 67 69 68
f 70 68 69
f 69 71 70
f 12 70 71
f 72 73 57
f 74 57 73
f 73 75 74
f 76 74 75
f 75 63 76
f 65 76 63
f 77 78 79
f 80 79 78
f 81 80 78
f 82 77 79
f 44 55 83
f 61 84 58
f 83 55 84
f 58 84 55
f 85 86 80
f 56 58 87
f 86 87 80
f 58 80 87
f 88 79 42
f 55 42 79
f 89 79 88
f 90 91 92
f 93 92 91
f 91 86 93
f 85 93 86
f 94 95 90
f 91 90 95
f 95 87 91
f 86 91 87
f 96 97 98
f 99 98 97
f 98 99 78
f 81 78 99
f 81 99 100
f 101 100 99
f 101 99 102
f 97 102 99
f 100 101 103
f 104 103 101
f 104 101 105
f 102 105 101
f 103 104 106
f 107 106 104
f 107 104 108
f 105 108 104
f 106 107 109
f 110 109 107
f 110 107 111
f 108 111 107
f 109 110 112
f 113 112 110
f 113 110 114
f 111 114 110
f 93 113 92
f 114 92 113
f 112 113 85
f 93 85 113
f 81 100 80
f 103 80 100
f 103 106 80
f 109 80 106
f 109 112 80
f 85 80 112
f 57 56 72
f 115 72 56
f 115 116 72
f 117 118 57
f 60 57 118
f 118 117 119
f 120 119 117
f 59 60 119
f 118 119 60
f 119 120 121
f 122 121 120
f 62 59 121
f 119 121 59
f 121 122 123
f 124 123 122
f 61 62 123
f 121 123 62
f 125 84 126
f 61 126 84
f 127 125 128
f 126 128 125
f 95 115 87
f 56 87 115
f 94 116 95
f 115 95 116
f 127 129 125
f 130 125 129
f 125 130 84
f 83 84 130
f 129 131 130
f 132 130 131
f 130 132 83
f 44 83 132
f 133 79 134
f 89 134 79
f 135 79 136
f 133 136 79
f 82 79 137
f 135 137 79
f 134 89 138
f 139 138 89
f 139 140 138
f 141 138 140
f 138 141 142
f 143 142 141
f 133 134 142
f 138 142 134
f 142 143 144
f 145 144 143
f 136 133 144
f 142 144 133
f 144 145 146
f 147 146 145
f 135 136 146
f 144 146 136
f 146 147 148
f 149 148 147
f 137 135 148
f 146 148 135
f 148 149 150
f 151 150 149
f 82 137 150
f 148 150 137
f 98 78 152
f 77 152 78
f 96 98 153
f 152 153 98
f 152 77 150
f 82 150 77
f 153 152 151
f 150 151 152
f 58 55 80
f 79 80 55
f 39 154 42
f 88 42 154
f 38 155 39
f 154 39 155
f 154 139 88
f 89 88 139
f 155 140 154
f 139 154 140
f 156 157 158
f 14 158 157
f 13 14 157
f 159 156 158
f 160 37 161
f 162 163 164
f 161 37 163
f 164 163 37
f 12 165 14
f 166 164 167
f 165 167 14
f 164 14 167
f 168 32 37
f 169 170 71
f 171 71 170
f 170 165 171
f 12 171 165
f 172 173 169
f 170 169 173
f 173 167 170
f 165 170 167
f 174 175 176
f 177 176 175
f 176 177 157
f 13 157 177
f 13 177 11
f 178 11 177
f 178 177 179
f 175 179 177
f 180 164 181
f 166 181 164
f 182 164 183
f 180 183 164
f 162 164 184
f 182 184 164
f 181 166 185
f 186 185 166
f 186 187 185
f 188 185 187
f 185 188 189
f 190 189 188
f 180 181 189
f 185 189 181
f 189 190 191
f 192 191 190
f 183 180 191
f 189 191 180
f 191 192 193
f 194 193 192
f 182 183 193
f 191 193 183
f 193 194 195
f 196 195 194
f 184 182 195
f 193 195 182
f 195 196 197
f 198 197 196
f 162 184 197
f 195 197 184
f 199 163 197
f 162 197 163
f 200 199 198
f 197 198 199
f 173 186 167
f 166 167 186
f 172 187 173
f 186 173 187
f 200 201 199
f 202 199 201
f 199 202 163
f 161 163 202
f 34 30 203
f 204 203 30
f 30 32 204
f 168 204 32
f 201 205 202
f 206 202 205
f 202 206 161
f 160 161 206
f 160 206 207
f 208 207 206
f 208 206 209
f 205 209 206
f 207 208 210
f 211 210 208
f 211 208 212
f 209 212 208
f 210 211 213
f 214 213 211
f 214 211 215
f 212 215 211
f 213 214 216
f 217 216 214
f 217 214 218
f 215 218 214
f 216 217 219
f 220 219 217
f 220 217 221
f 218 221 217
f 204 220 203
f 221 203 220
f 219 220 168
f 204 168 220
f 160 207 37
f 210 37 207
f 210 213 37
f 216 37 213
f 216 219 37
f 168 37 219
f 176 157 8
f 156 8 157
f 174 176 7
f 8 7 176
f 8 156 222
f 159 222 156
f 164 37 14
f 158 14 37
f 223 224 225
f 226 225 224
f 227 228 229
f 230 229 228
f 231 232 233
f 227 233 232
f 233 227 234
f 229 234 227
f 235 225 236
f 237 236 225
f 238 225 239
f 235 239 225
f 240 225 241
f 238 241 225
f 236 237 242
f 243 242 237
f 243 244 242
f 245 242 244
f 242 245 246
f 247 246 245
f 235 236 246
f 242 246 236
f 246 247 248
f 249 248 247
f 239 235 248
f 246 248 235
f 248 249 250
f 251 250 249
f 238 239 250
f 248 250 239
f 250 251 252
f 253 252 251
f 241 238 252
f 250 252 238
f 252 253 254
f 255 254 253
f 240 241 254
f 252 254 241
f 256 257 254
f 240 254 257
f 258 256 255
f 254 255 256
f 259 243 260
f 237 260 243
f 261 244 259
f 243 259 244
f 262 263 256
f 257 256 263
f 264 262 258
f 256 258 262
f 265 266 267
f 268 267 266
f 266 269 268
f 270 268 269
f 264 271 262
f 272 262 271
f 262 272 263
f 273 263 272
f 273 272 274
f 275 274 272
f 275 272 276
f 271 276 272
f 274 275 277
f 278 277 275
f 278 275 279
f 276 279 275
f 277 278 280
f 281 280 278
f 281 278 282
f 279 282 278
f 280 281 283
f 284 283 281
f 284 281 285
f 282 285 281
f 283 284 286
f 287 286 284
f 287 284 288
f 285 288 284
f 268 287 267
f 288 267 287
f 286 287 270
f 268 270 287
f 273 274 223
f 277 223 274
f 277 280 223
f 283 223 280
f 283 286 223
f 270 223 286
f 289 290 291
f 292 291 290
f 293 294 291
f 289 291 294
f 233 234 291
f 293 291 234
f 231 233 292
f 291 292 233
f 266 295 269
f 296 269 295
f 265 297 266
f 295 266 297
f 295 298 296
f 299 296 298
f 297 300 295
f 298 295 300
f 237 225 260
f 296 224 269
f 223 269 224
f 270 269 223
f 299 224 296
f 257 263 225
f 223 225 263
f 273 223 263
f 240 257 225
f 230 226 229
f 293 234 224
f 229 226 234
f 224 234 226
f 301 302 303
f 304 303 302
f 302 305 304
f 306 304 305
f 307 308 301
f 302 301 308
f 308 309 302
f 305 302 309
f 310 311 312
f 313 312 311
f 314 315 316
f 317 316 315
f 316 317 318
f 319 318 317
f 320 314 321
f 316 321 314
f 321 316 322
f 318 322 316
f 319 317 323
f 324 323 317
f 324 317 325
f 315 325 317
f 323 324 326
f 327 326 324
f 327 324 328
f 325 328 324
f 326 327 329
f 330 329 327
f 330 327 331
f 328 331 327
f 329 330 332
f 333 332 330
f 333 330 334
f 331 334 330
f 332 333 335
f 336 335 333
f 336 333 337
f 334 337 333
f 304 336 303
f 337 303 336
f 335 336 306
f 304 306 336
f 319 323 313
f 326 313 323
f 326 329 313
f 332 313 329
f 332 335 313
f 306 313 335
f 338 339 340
f 341 340 339
f 342 338 343
f 340 343 338
f 344 345 338
f 339 338 345
f 346 344 342
f 338 342 344
f 347 348 349
f 350 349 348
f 348 351 350
f 352 350 351
f 346 353 344
f 354 344 353
f 344 354 345
f 355 345 354
f 356 357 358
f 359 358 357
f 359 357 360
f 361 360 357
f 358 359 362
f 363 362 359
f 363 359 364
f 360 364 359
f 362 363 365
f 366 365 363
f 366 363 367
f 364 367 363
f 365 366 368
f 369 368 366
f 369 366 370
f 367 370 366
f 350 371 349
f 372 349 371
f 370 371 352
f 350 352 371
f 373 311 374
f 375 374 311
f 376 311 377
f 373 377 311
f 378 311 379
f 376 379 311
f 374 375 380
f 381 380 375
f 381 382 380
f 383 380 382
f 380 383 384
f 385 384 383
f 373 374 384
f 380 384 374
f 384 385 386
f 387 386 385
f 377 373 386
f 384 386 373
f 386 387 388
f 389 388 387
f 376 377 388
f 386 388 377
f 388 389 390
f 391 390 389
f 379 376 390
f 388 390 376
f 390 391 392
f 393 392 391
f 378 379 392
f 390 392 379
f 321 322 392
f 378 392 322
f 320 321 393
f 392 393 321
f 348 394 351
f 395 351 394
f 347 396 348
f 394 348 396
f 394 381 395
f 375 395 381
f 396 382 394
f 381 394 382
f 306 305 313
f 305 309 313
f 312 313 309
f 395 311 351
f 310 351 311
f 352 351 310
f 375 311 395
f 339 345 312
f 310 312 345
f 355 310 345
f 341 339 312
f 319 313 318
f 378 322 311
f 318 313 322
f 311 322 313
f 397 398 399
f 400 399 398
f 401 402 397
f 398 397 402
f 372 370 401
f 402 401 370
f 403 404 300
f 299 300 404
f 405 406 403
f 404 403 406
f 407 408 405
f 406 405 408
f 399 400 407
f 408 407 400
f 355 358 310
f 362 310 358
f 362 365 310
f 368 310 365
f 368 369 310
f 352 310 370
f 369 370 310
f 409 410 312
f 411 312 410
f 412 312 413
f 411 413 312
f 341 312 414
f 412 414 312
f 409 312 309
f 410 409 415
f 416 415 409
f 416 417 415
f 418 415 417
f 411 410 419
f 420 419 410
f 413 411 419
f 419 420 421
f 422 421 420
f 412 413 421
f 419 421 413
f 421 422 423
f 424 423 422
f 414 412 423
f 421 423 412
f 423 424 425
f 426 425 424
f 427 414 425
f 423 425 414
f 308 416 309
f 409 309 416
f 307 417 308
f 416 308 417
f 428 429 430
f 429 260 430
f 225 430 260
f 431 432 433
f 434 433 432
f 432 429 434
f 428 434 429
f 261 259 431
f 432 431 259
f 259 260 432
f 429 432 260
f 435 436 437
f 438 437 436
f 436 439 438
f 440 438 439
f 439 441 440
f 442 440 441
f 441 433 442
f 428 442 433
f 418 443 410
f 444 410 443
f 443 445 444
f 446 444 445
f 445 435 446
f 437 446 435
f 294 293 299
f 224 299 293
f 447 428 448
f 430 448 428
f 232 449 227
f 450 227 449
f 448 450 447
f 451 447 450
f 451 450 452
f 449 452 450
f 244 261 203
f 34 203 261
f 245 244 221
f 203 221 244
f 247 245 218
f 221 218 245
f 249 247 215
f 218 215 247
f 251 249 212
f 215 212 249
f 253 251 209
f 212 209 251
f 255 253 205
f 209 205 253
f 258 255 201
f 205 201 255
f 264 258 200
f 201 200 258
f 261 431 34
f 35 34 431
f 431 433 35
f 25 35 433
f 433 441 25
f 23 25 441
f 441 439 23
f 26 23 439
f 439 436 26
f 28 26 436
f 436 435 28
f 17 28 435
f 435 445 17
f 15 17 445
f 9 428 6
f 447 6 428
f 6 447 1
f 451 1 447
f 1 451 2
f 452 2 451
f 2 452 4
f 449 4 452
f 442 428 24
f 9 24 428
f 440 442 27
f 24 27 442
f 438 440 29
f 27 29 440
f 437 438 18
f 29 18 438
f 446 437 16
f 18 16 437
f 444 446 20
f 16 20 446
f 410 444 22
f 20 22 444
f 15 445 19
f 443 19 445
f 19 443 21
f 418 21 443
f 21 418 40
f 417 40 418
f 40 417 38
f 307 38 417
f 38 307 155
f 301 155 307
f 155 301 140
f 303 140 301
f 140 303 141
f 337 141 303
f 141 337 143
f 334 143 337
f 143 334 145
f 331 145 334
f 145 331 147
f 328 147 331
f 147 328 149
f 325 149 328
f 151 149 315
f 325 315 149
f 153 151 314
f 315 314 151
f 96 153 320
f 314 320 153
f 342 343 129
f 131 129 343
f 49 426 48
f 424 48 426
f 48 424 52
f 422 52 424
f 52 422 54
f 420 54 422
f 346 342 127
f 129 127 342
f 54 420 22
f 410 22 420
f 117 57 367
f 370 367 57
f 120 117 364
f 367 364 117
f 122 120 360
f 364 360 120
f 124 122 361
f 360 361 122
f 346 127 353
f 128 353 127
f 96 320 97
f 393 97 320
f 97 393 102
f 391 102 393
f 105 102 389
f 391 389 102
f 108 105 387
f 389 387 105
f 111 108 385
f 387 385 108
f 114 111 383
f 385 383 111
f 92 114 382
f 383 382 114
f 90 92 396
f 382 396 92
f 94 90 347
f 396 347 90
f 116 94 349
f 347 349 94
f 72 116 372
f 349 372 116
f 73 72 401
f 372 401 72
f 75 73 397
f 401 397 73
f 370 57 402
f 74 402 57
f 402 74 398
f 76 398 74
f 398 76 400
f 65 400 76
f 400 65 408
f 66 408 65
f 408 66 406
f 68 406 66
f 406 68 404
f 70 404 68
f 404 70 299
f 12 299 70
f 179 175 290
f 292 290 175
f 178 179 289
f 290 289 179
f 11 178 294
f 289 294 178
f 12 11 299
f 294 299 11
f 399 63 397
f 75 397 63
f 407 64 399
f 63 399 64
f 405 67 407
f 64 407 67
f 403 69 405
f 67 405 69
f 300 71 403
f 69 403 71
f 297 169 300
f 71 300 169
f 265 172 297
f 169 297 172
f 264 200 271
f 198 271 200
f 271 198 276
f 196 276 198
f 276 196 279
f 194 279 196
f 279 194 282
f 192 282 194
f 282 192 285
f 190 285 192
f 285 190 288
f 188 288 190
f 288 188 267
f 187 267 188
f 267 187 265
f 172 265 187
f 231 292 174
f 175 174 292
f 231 174 232
f 7 232 174
f 232 7 449
f 4 449 7
f 453 454 169
f 455 169 454
f 456 457 458
f 458 457 459
f 459 457 460
f 460 457 461
f 462 463 464
f 465 463 462
f 466 463 465
f 467 463 466
f 467 461 464
f 456 464 461
f 468 469 470
f 471 470 469
f 468 472 473
f 473 472 474
f 474 472 475
f 475 472 470
f 476 477 469
f 478 477 476
f 479 477 478
f 471 477 479
f 480 481 482
f 483 482 481
f 484 485 473
f 468 473 485
f 486 484 474
f 473 474 484
f 487 486 475
f 474 475 486
f 470 488 475
f 487 475 488
f 489 488 471
f 470 471 488
f 490 489 479
f 471 479 489
f 491 490 478
f 479 478 490
f 492 491 476
f 478 476 491
f 493 492 469
f 476 469 492
f 485 493 468
f 469 468 493
f 494 495 461
f 460 461 495
f 496 494 467
f 461 467 494
f 497 496 466
f 467 466 496
f 498 499 458
f 456 458 499
f 499 500 456
f 464 456 500
f 501 498 459
f 458 459 498
f 495 501 460
f 459 460 501
f 502 497 465
f 466 465 497
f 503 502 462
f 465 462 502
f 500 503 464
f 462 464 503
f 483 455 482
f 454 482 455
f 169 481 453
f 480 453 481
f 504 505 506
f 505 507 506
f 507 508 506
f 508 509 506
f 509 510 506
f 510 511 506
f 511 512 506
f 512 513 506
f 513 514 506
f 514 515 506
f 515 516 506
f 516 504 506
f 517 518 519
f 519 504 517
f 516 517 504
f 520 518 517
f 517 516 520
f 515 520 516
f 521 518 520
f 520 515 521
f 514 521 515
f 522 518 521
f 521 514 522
f 513 522 514
f 523 518 522
f 522 513 523
f 512 523 513
f 524 518 523
f 523 512 524
f 511 524 512
f 525 518 524
f 524 511 525
f 510 525 511
f 526 518 525
f 525 510 526
f 509 526 510
f 527 518 526
f 526 509 527
f 508 527 509
f 528 518 527
f 527 508 528
f 507 528 508
f 529 518 528
f 528 507 529
f 505 529 507
f 529 505 519
f 504 519 505
f 519 518 529
f 530 531 532
f 532 533 530
f 534 530 533
f 535 536 532
f 533 532 536
f 532 531 535
f 537 538 535
f 536 535 538
f 535 531 537
f 539 540 537
f 538 537 540
f 537 531 539
f 541 542 539
f 540 539 542
f 539 531 541
f 543 544 541
f 542 541 544
f 541 531 543
f 545 546 543
f 544 543 546
f 543 531 545
f 547 548 545
f 546 545 548
f 545 531 547
f 549 550 547
f 548 547 550
f 547 531 549
f 551 552 549
f 550 549 552
f 549 531 551
f 553 554 551
f 552 551 554
f 551 531 553
f 530 534 553
f 554 553 534
f 553 531 530
f 554 534 555
f 552 554 555
f 550 552 555
f 548 550 555
f 546 548 555
f 544 546 555
f 542 544 555
f 540 542 555
f 538 540 555
f 536 538 555
f 533 536 555
f 534 533 555
f 556 557 558
f 558 559 556
f 560 556 559
f 561 562 558
f 559 558 562
f 558 557 561
f 563 564 561
f 562 561 564
f 561 557 563
f 565 566 563
f 564 563 566
f 563 557 565
f 567 568 565
f 566 565 568
f 565 557 567
f 569 570 567
f 568 567 570
f 567 557 569
f 571 572 569
f 570 569 572
f 569 557 571
f 573 574 571
f 572 571 574
f 571 557 573
f 575 576 573
f 574 573 576
f 573 557 575
f 577 578 575
f 576 575 578
f 575 557 577
f 579 580 577
f 578 577 580
f 577 557 579
f 556 560 579
f 580 579 560
f 579 557 556
f 580 560 581
f 578 580 581
f 576 578 581
f 574 576 581
f 572 574 581
f 570 572 581
f 568 570 581
f 566 568 581
f 564 566 581
f 562 564 581
f 559 562 581
f 560 559 581
f 582 583 584
f 584 585 582
f 586 582 585
f 587 588 584
f 585 584 588
f 584 583 587
f 589 590 587
f 588 587 590
f 587 583 589
f 591 592 589
f 590 589 592
f 589 583 591
f 593 594 591
f 592 591 594
f 591 583 593
f 595 596 593
f 594 593 596
f 593 583 595
f 597 598 595
f 596 595 598
f 595 583 597
f 599 600 597
f 598 597 600
f 597 583 599
f 601 602 599
f 600 599 602
f 599 583 601
f 603 604 601
f 602 601 604
f 601 583 603
f 605 606 603
f 604 603 606
f 603 583 605
f 582 586 605
f 606 605 586
f 605 583 582
f 606 586 607
f 604 606 607
f 602 604 607
f 600 602 607
f 598 600 607
f 596 598 607
f 594 596 607
f 592 594 607
f 590 592 607
f 588 590 607
f 585 588 607
f 586 585 607
f 608 609 610
f 610 611 608
f 612 608 611
f 613 614 610
f 611 610 614
f 610 609 613
f 615 616 613
f 614 613 616
f 613 609 615
f 617 618 615
f 616 615 618
f 615 609 617
f 619 620 617
f 618 617 620
f 617 609 619
f 621 622 619
f 620 619 622
f 619 609 621
f 623 624 621
f 622 621 624
f 621 609 623
f 625 626 623
f 624 623 626
f 623 609 625
f 627 628 625
f 626 625 628
f 625 609 627
f 629 630 627
f 628 627 630
f 627 609 629
f 631 632 629
f 630 629 632
f 629 609 631
f 608 612 631
f 632 631 612
f 631 609 608
f 632 612 633
f 630 632 633
f 628 630 633
f 626 628 633
f 624 626 633
f 622 624 633
f 620 622 633
f 618 620 633
f 616 618 633
f 614 616 633
f 611 614 633
f 612 611 633
f 634 635 636
f 637 636 635
f 634 636 638
f 639 638 636
f 635 640 637
f 641 637 640
f 637 641 636
f 639 636 641
f 642 643 644
f 645 644 643
f 642 644 640
f 641 640 644
f 643 646 645
f 647 645 646
f 645 647 644
f 641 644 647
f 648 649 650
f 651 650 649
f 648 650 646
f 647 646 650
f 649 652 651
f 653 651 652
f 651 653 650
f 647 650 653
f 654 655 656
f 657 656 655
f 654 656 652
f 653 652 656
f 655 658 657
f 659 657 658
f 657 659 656
f 653 656 659
f 660 639 661
f 659 661 639
f 662 638 660
f 639 660 638
f 663 661 658
f 659 658 661
f 663 662 661
f 660 661 662
f 664 665 666
f 667 666 665
f 666 667 668
f 669 668 667
f 668 669 670
f 671 670 669
f 670 671 672
f 673 672 671
f 672 673 664
f 665 664 673
f 477 674 35
f 35 675 477
f 676 677 678
f 678 679 676
f 477 675 679
f 679 678 477
f 677 676 35
f 35 674 677
